<?xml version="1.0" encoding="UTF-8" standalone="no"?>
<!-- Created with Inkscape (http://www.inkscape.org/) -->

<svg
   xmlns:dc="http://purl.org/dc/elements/1.1/"
   xmlns:cc="http://creativecommons.org/ns#"
   xmlns:rdf="http://www.w3.org/1999/02/22-rdf-syntax-ns#"
   xmlns:svg="http://www.w3.org/2000/svg"
   xmlns="http://www.w3.org/2000/svg"
   xmlns:sodipodi="http://sodipodi.sourceforge.net/DTD/sodipodi-0.dtd"
   xmlns:inkscape="http://www.inkscape.org/namespaces/inkscape"
   width="24"
   height="24"
   id="svg3495"
   version="1.1"
   inkscape:version="0.48.4 r9939"
   sodipodi:docname="edit-copy.svg">
  <defs
     id="defs3497">
    <clipPath
       clipPathUnits="userSpaceOnUse"
       id="clipPath3669">
      <path
         inkscape:connector-curvature="0"
         d="M 0,96 96,96 96,0 0,0 0,96 z"
         id="path3671" />
    </clipPath>
  </defs>
  <sodipodi:namedview
     id="base"
     pagecolor="#ffffff"
     bordercolor="#666666"
     borderopacity="1.0"
     inkscape:pageopacity="0.0"
     inkscape:pageshadow="2"
     inkscape:zoom="16"
     inkscape:cx="15.080624"
     inkscape:cy="11.96205"
     inkscape:current-layer="layer1"
     showgrid="true"
     inkscape:grid-bbox="true"
     inkscape:document-units="px"
     inkscape:window-width="1364"
     inkscape:window-height="701"
     inkscape:window-x="0"
     inkscape:window-y="27"
     inkscape:window-maximized="1"
     inkscape:snap-bbox="true"
     inkscape:bbox-paths="true"
     inkscape:bbox-nodes="true"
     inkscape:snap-bbox-edge-midpoints="false"
     showguides="true"
     inkscape:guide-bbox="true">
    <inkscape:grid
       type="xygrid"
       id="grid3512"
       empspacing="4"
       visible="true"
       enabled="true"
       snapvisiblegridlinesonly="true"
       dotted="false" />
  </sodipodi:namedview>
  <metadata
     id="metadata3500">
    <rdf:RDF>
      <cc:Work
         rdf:about="">
        <dc:format>image/svg+xml</dc:format>
        <dc:type
           rdf:resource="http://purl.org/dc/dcmitype/StillImage" />
        <dc:title></dc:title>
      </cc:Work>
    </rdf:RDF>
  </metadata>
  <g
     id="layer1"
     inkscape:label="Layer 1"
     inkscape:groupmode="layer"
     transform="translate(1,-25)">
    <g
       id="g3822"
       transform="matrix(-1,0,0,1,23,0)">
      <g
         transform="matrix(-1,0,0,1,23,-1)"
         id="g3768">
        <path
           style="color:#000000;fill:#333333;fill-opacity:1;fill-rule:nonzero;stroke:none;stroke-width:4;marker:none;visibility:visible;display:inline;overflow:visible;enable-background:accumulate"
           d="m 21,48 0,-15 -4,0 0,2 2,0 0,11 -10,0 0,-1 -2,0 0,3 z"
           id="rect2997"
           inkscape:connector-curvature="0"
           sodipodi:nodetypes="ccccccccccc" />
        <path
           inkscape:connector-curvature="0"
           id="path3810"
           transform="matrix(-1,0,0,1,23,26)"
           d="M 7,3 7,15 7,18 8.65625,18 21,18 21,3 18,3 17,3 15,3 13,3 12,3 9,3 7,3 z m 2,2 1,0 2,0 0.125,0 L 17,5 18,5 19,5 19,16 9,16 9,15 9,5 z"
           style="color:#000000;fill:#333333;fill-opacity:1;fill-rule:nonzero;stroke:none;stroke-width:4;marker:none;visibility:visible;display:inline;overflow:visible;enable-background:accumulate" />
      </g>
    </g>
    <g
       id="g3827"
       style="opacity:0.3;fill:#ffffff;fill-opacity:1"
       transform="matrix(-1,0,0,1,23,-1)">
      <g
         id="g3829"
         transform="matrix(-1,0,0,1,23,-1)"
         style="fill:#ffffff;fill-opacity:1">
        <path
           sodipodi:nodetypes="ccccccccccc"
           inkscape:connector-curvature="0"
           id="path3831"
           d="m 21,48 0,-15 -4,0 0,2 2,0 0,11 -10,0 0,-1 -2,0 0,3 z"
           style="color:#000000;fill:#ffffff;fill-opacity:1;fill-rule:nonzero;stroke:none;stroke-width:4;marker:none;visibility:visible;display:inline;overflow:visible;enable-background:accumulate" />
        <path
           style="color:#000000;fill:#ffffff;fill-opacity:1;fill-rule:nonzero;stroke:none;stroke-width:4;marker:none;visibility:visible;display:inline;overflow:visible;enable-background:accumulate"
           d="M 7,3 7,15 7,18 8.65625,18 21,18 21,3 18,3 17,3 15,3 13,3 12,3 9,3 7,3 z m 2,2 1,0 2,0 0.125,0 L 17,5 18,5 19,5 19,16 9,16 9,15 9,5 z"
           transform="matrix(-1,0,0,1,23,26)"
           id="path3833"
           inkscape:connector-curvature="0" />
      </g>
    </g>
  </g>
</svg>
