<?xml version="1.0" encoding="UTF-8" standalone="no"?>
<!-- Created with Inkscape (http://www.inkscape.org/) -->

<svg
   xmlns:dc="http://purl.org/dc/elements/1.1/"
   xmlns:cc="http://creativecommons.org/ns#"
   xmlns:rdf="http://www.w3.org/1999/02/22-rdf-syntax-ns#"
   xmlns:svg="http://www.w3.org/2000/svg"
   xmlns="http://www.w3.org/2000/svg"
   xmlns:sodipodi="http://sodipodi.sourceforge.net/DTD/sodipodi-0.dtd"
   xmlns:inkscape="http://www.inkscape.org/namespaces/inkscape"
   width="24"
   height="24"
   id="svg3495"
   version="1.1"
   inkscape:version="0.48.4 r9939"
   sodipodi:docname="go-previous.svg">
  <defs
     id="defs3497" />
  <sodipodi:namedview
     id="base"
     pagecolor="#ffffff"
     bordercolor="#666666"
     borderopacity="1.0"
     inkscape:pageopacity="0.0"
     inkscape:pageshadow="2"
     inkscape:zoom="4"
     inkscape:cx="25.693166"
     inkscape:cy="28.528833"
     inkscape:current-layer="layer1"
     showgrid="false"
     inkscape:grid-bbox="true"
     inkscape:document-units="px"
     inkscape:window-width="1364"
     inkscape:window-height="701"
     inkscape:window-x="0"
     inkscape:window-y="27"
     inkscape:window-maximized="1"
     inkscape:snap-bbox="true"
     inkscape:bbox-paths="true"
     inkscape:bbox-nodes="true"
     inkscape:snap-bbox-edge-midpoints="false">
    <inkscape:grid
       type="xygrid"
       id="grid3512"
       empspacing="4"
       visible="true"
       enabled="true"
       snapvisiblegridlinesonly="true"
       dotted="false" />
  </sodipodi:namedview>
  <metadata
     id="metadata3500">
    <rdf:RDF>
      <cc:Work
         rdf:about="">
        <dc:format>image/svg+xml</dc:format>
        <dc:type
           rdf:resource="http://purl.org/dc/dcmitype/StillImage" />
        <dc:title></dc:title>
      </cc:Work>
    </rdf:RDF>
  </metadata>
  <g
     id="layer1"
     inkscape:label="Layer 1"
     inkscape:groupmode="layer"
     transform="translate(1,-25)">
    <g
       id="g3759">
      <g
         style="opacity:1"
         transform="matrix(0.5,0,0,-0.5,2.4561029,49.021017)"
         id="g4629">
        <g
           id="g4767"
           transform="matrix(1.5113588,0,0,-1.5113588,23.008549,40)">
          <path
             sodipodi:nodetypes="cccccccccc"
             d="m 0.05293263,-0.02781246 1.83299997,1.83399996 -7.456,7.457 14.885688,-0.027812 -2.74e-4,2.6466255 -14.885688,0.02781 7.456274,7.402375 -1.83299997,1.833 -10.58699963,-10.586 z"
             style="fill:#333333;fill-opacity:1;fill-rule:nonzero;stroke:none"
             id="path4769"
             inkscape:connector-curvature="0" />
        </g>
      </g>
      <path
         transform="translate(0,26)"
         d="m 5,11 a 2,2 0 1 1 -4,0 2,2 0 1 1 4,0 z"
         sodipodi:ry="2"
         sodipodi:rx="2"
         sodipodi:cy="11"
         sodipodi:cx="3"
         id="path2989"
         style="opacity:1;color:#000000;fill:#333333;fill-opacity:1;fill-rule:nonzero;stroke:none;stroke-width:4;marker:none;visibility:visible;display:inline;overflow:visible;enable-background:accumulate"
         sodipodi:type="arc" />
    </g>
    <g
       id="g3765"
       style="opacity:0.3;fill:#ffffff;fill-opacity:1"
       transform="translate(0,-0.99999847)">
      <g
         id="g3767"
         transform="matrix(0.5,0,0,-0.5,2.4561029,49.021017)"
         style="fill:#ffffff;fill-opacity:1">
        <g
           transform="matrix(1.5113588,0,0,-1.5113588,23.008549,40)"
           id="g3769"
           style="fill:#ffffff;fill-opacity:1">
          <path
             inkscape:connector-curvature="0"
             id="path3771"
             style="fill:#ffffff;fill-opacity:1;fill-rule:nonzero;stroke:none"
             d="m 0.05293263,-0.02781246 1.83299997,1.83399996 -7.456,7.457 14.885688,-0.027812 -2.74e-4,2.6466255 -14.885688,0.02781 7.456274,7.402375 -1.83299997,1.833 -10.58699963,-10.586 z"
             sodipodi:nodetypes="cccccccccc" />
        </g>
      </g>
      <path
         sodipodi:type="arc"
         style="color:#000000;fill:#ffffff;fill-opacity:1;fill-rule:nonzero;stroke:none;stroke-width:4;marker:none;visibility:visible;display:inline;overflow:visible;enable-background:accumulate"
         id="path3773"
         sodipodi:cx="3"
         sodipodi:cy="11"
         sodipodi:rx="2"
         sodipodi:ry="2"
         d="M 5,11 C 5,12.104569 4.1045695,13 3,13 1.8954305,13 1,12.104569 1,11 1,9.8954305 1.8954305,9 3,9 4.1045695,9 5,9.8954305 5,11 z"
         transform="translate(0,26)" />
    </g>
  </g>
</svg>
