<?xml version="1.0" encoding="UTF-8" standalone="no"?>
<!-- Created with Inkscape (http://www.inkscape.org/) -->

<svg
   xmlns:dc="http://purl.org/dc/elements/1.1/"
   xmlns:cc="http://creativecommons.org/ns#"
   xmlns:rdf="http://www.w3.org/1999/02/22-rdf-syntax-ns#"
   xmlns:svg="http://www.w3.org/2000/svg"
   xmlns="http://www.w3.org/2000/svg"
   xmlns:sodipodi="http://sodipodi.sourceforge.net/DTD/sodipodi-0.dtd"
   xmlns:inkscape="http://www.inkscape.org/namespaces/inkscape"
   width="24"
   height="24"
   id="svg3495"
   version="1.1"
   inkscape:version="0.48.4 r9939"
   sodipodi:docname="mail-send.svg">
  <defs
     id="defs3497">
    <clipPath
       clipPathUnits="userSpaceOnUse"
       id="clipPath3669">
      <path
         inkscape:connector-curvature="0"
         d="M 0,96 96,96 96,0 0,0 0,96 z"
         id="path3671" />
    </clipPath>
  </defs>
  <sodipodi:namedview
     id="base"
     pagecolor="#ffffff"
     bordercolor="#666666"
     borderopacity="1.0"
     inkscape:pageopacity="0.0"
     inkscape:pageshadow="2"
     inkscape:zoom="1"
     inkscape:cx="17.293102"
     inkscape:cy="-2.5650786"
     inkscape:current-layer="layer1"
     showgrid="false"
     inkscape:grid-bbox="true"
     inkscape:document-units="px"
     inkscape:window-width="1364"
     inkscape:window-height="700"
     inkscape:window-x="0"
     inkscape:window-y="28"
     inkscape:window-maximized="1"
     inkscape:snap-bbox="true"
     inkscape:bbox-paths="true"
     inkscape:bbox-nodes="true"
     inkscape:snap-bbox-edge-midpoints="false"
     showguides="true"
     inkscape:guide-bbox="true">
    <inkscape:grid
       type="xygrid"
       id="grid3512"
       empspacing="4"
       visible="true"
       enabled="true"
       snapvisiblegridlinesonly="true"
       dotted="false" />
  </sodipodi:namedview>
  <metadata
     id="metadata3500">
    <rdf:RDF>
      <cc:Work
         rdf:about="">
        <dc:format>image/svg+xml</dc:format>
        <dc:type
           rdf:resource="http://purl.org/dc/dcmitype/StillImage" />
        <dc:title></dc:title>
      </cc:Work>
    </rdf:RDF>
  </metadata>
  <g
     id="layer1"
     inkscape:label="Layer 1"
     inkscape:groupmode="layer"
     transform="translate(1,-25)">
    <path
       style="font-style:normal;font-variant:normal;font-weight:normal;font-stretch:normal;text-indent:0;text-align:start;text-decoration:none;line-height:normal;letter-spacing:normal;word-spacing:normal;text-transform:none;direction:ltr;block-progression:tb;writing-mode:lr-tb;text-anchor:start;baseline-shift:baseline;color:#000000;fill:#555555;fill-opacity:1;fill-rule:evenodd;stroke:none;stroke-width:19.78388023000000118;marker:none;visibility:visible;display:inline;overflow:visible;enable-background:accumulate;font-family:sans-serif;-inkscape-font-specification:sans-serif"
       d="m 12.603752,27 -0.453507,0.31796 c -4.3246935,3.032107 -6.9460135,6.45344 -7.6456668,9.80324 -0.6996667,3.3498 0.58292,6.599573 3.9047467,9.103453 L 9.4380049,47 8.9251782,45.818347 c 0,0 -0.44096,-1.016387 -0.82884,-2.315987 -0.3878933,-1.2996 -0.70304,-2.88892 -0.5085467,-3.918027 0.39436,-2.08672 1.1764534,-3.100413 3.0424005,-4.769866 0.604173,1.864013 1.377587,3.183266 2.066733,4.154133 0.518187,0.73 0.908587,1.211307 1.16892,1.644147 0.260347,0.432826 0.40332,0.812546 0.462094,1.42956 0.07867,0.826266 -0.319227,1.8128 -0.761547,2.578626 -0.442307,0.765827 -0.904253,1.300587 -0.904253,1.300587 l -0.702014,0.811813 1.041214,-0.260373 c 0.280773,-0.07027 0.64056,-0.264347 1.133933,-0.59764 0.493373,-0.33328 1.076467,-0.801213 1.62872,-1.397573 1.104507,-1.192747 2.093107,-2.920947 1.88956,-5.05812 -0.200453,-2.1048 -1.23416,-3.21392 -2.277293,-4.684734 -1.043134,-1.4708 -2.152107,-3.351186 -2.694947,-7.186533 z"
       id="path4355"
       inkscape:connector-curvature="0"
       xml:space="default"
       sodipodi:nodetypes="csscccsscsssscccsssscc" />
    <path
       sodipodi:nodetypes="csscccsscsssscccsssscc"
       xml:space="default"
       inkscape:connector-curvature="0"
       id="path3864"
       d="m 12.603752,26 -0.453507,0.31796 c -4.3246935,3.032107 -6.9460135,6.45344 -7.6456668,9.80324 -0.6996667,3.3498 0.58292,6.599573 3.9047467,9.103453 L 9.4380049,46 8.9251782,44.818347 c 0,0 -0.44096,-1.016387 -0.82884,-2.315987 -0.3878933,-1.2996 -0.70304,-2.88892 -0.5085467,-3.918027 0.39436,-2.08672 1.1764534,-3.100413 3.0424005,-4.769866 0.604173,1.864013 1.377587,3.183266 2.066733,4.154133 0.518187,0.73 0.908587,1.211307 1.16892,1.644147 0.260347,0.432826 0.40332,0.812546 0.462094,1.42956 0.07867,0.826266 -0.319227,1.8128 -0.761547,2.578626 -0.442307,0.765827 -0.904253,1.300587 -0.904253,1.300587 l -0.702014,0.811813 1.041214,-0.260373 c 0.280773,-0.07027 0.64056,-0.264347 1.133933,-0.59764 0.493373,-0.33328 1.076467,-0.801213 1.62872,-1.397573 1.104507,-1.192747 2.093107,-2.920947 1.88956,-5.05812 -0.200453,-2.1048 -1.23416,-3.21392 -2.277293,-4.684734 -1.043134,-1.4708 -2.152107,-3.351186 -2.694947,-7.186533 z"
       style="font-style:normal;font-variant:normal;font-weight:normal;font-stretch:normal;text-indent:0;text-align:start;text-decoration:none;line-height:normal;letter-spacing:normal;word-spacing:normal;text-transform:none;direction:ltr;block-progression:tb;writing-mode:lr-tb;text-anchor:start;baseline-shift:baseline;opacity:0.1;color:#000000;fill:#ffffff;fill-opacity:1;fill-rule:evenodd;stroke:none;stroke-width:19.78388023;marker:none;visibility:visible;display:inline;overflow:visible;enable-background:accumulate;font-family:sans-serif;-inkscape-font-specification:sans-serif" />
  </g>
</svg>
