<?xml version="1.0" encoding="UTF-8" standalone="no"?>
<svg xmlns="http://www.w3.org/2000/svg" xmlns:xlink="http://www.w3.org/1999/xlink" xmlns:sodipodi="http://sodipodi.sourceforge.net/DTD/sodipodi-0.dtd" xmlns:inkscape="http://www.inkscape.org/namespaces/inkscape" version="1.1" width="24" height="24">
 <defs id="defs3830">
  <linearGradient id="linearGradient3958">
   <stop id="stop3960" stop-color="#e8efff"/>
   <stop offset="1" id="stop3963" stop-color="#1166c9"/>
  </linearGradient>
  <linearGradient id="linearGradient3916">
   <stop id="stop3918" stop-color="#232323"/>
   <stop id="stop3926" offset="0.8" stop-color="#535353"/>
   <stop id="stop3924" offset="0.8" stop-color="#676767"/>
   <stop offset="1" id="stop3920" stop-color="#676767"/>
  </linearGradient>
  <linearGradient inkscape:collect="always" id="linearGradient3801">
   <stop id="stop3803" stop-color="#ffffff"/>
   <stop offset="1" id="stop3805" stop-color="#ffffff" stop-opacity="0"/>
  </linearGradient>
  <linearGradient id="linearGradient3977">
   <stop id="stop3979" stop-color="#ffffff"/>
   <stop id="stop3981" offset="0.036" stop-color="#ffffff" stop-opacity="0.235"/>
   <stop id="stop3983" offset="0.951" stop-color="#ffffff" stop-opacity="0.157"/>
   <stop id="stop3985" offset="1" stop-color="#ffffff" stop-opacity="0.392"/>
  </linearGradient>
  <linearGradient id="linearGradient3600-4">
   <stop id="stop3602-7" stop-color="#f4f4f4"/>
   <stop id="stop3604-6" offset="1" stop-color="#dbdbdb"/>
  </linearGradient>
  <linearGradient y1="5.564" x2="0" y2="43" id="linearGradient3000" xlink:href="#linearGradient3977" gradientUnits="userSpaceOnUse" gradientTransform="matrix(0.40540511,0,0,0.51351253,1.2696879,-1.32431)"/>
  <linearGradient y1="0.985" x2="0" y2="47.01" id="linearGradient3003" xlink:href="#linearGradient3988-5" gradientUnits="userSpaceOnUse" gradientTransform="matrix(0.48571543,0,0,-0.45629579,-0.6571703,22.651132)"/>
  <linearGradient inkscape:collect="always" xlink:href="#linearGradient3988-5" id="linearGradient3158" gradientUnits="userSpaceOnUse" gradientTransform="matrix(0.175,0,0,0.175,-1.20002,-6.0000326)" y1="280" x2="0" y2="40"/>
  <linearGradient id="linearGradient3988-5">
   <stop id="stop3990-5" stop-color="#ededed"/>
   <stop offset="1" id="stop3992-0" stop-color="#fafafa"/>
  </linearGradient>
  <linearGradient inkscape:collect="always" xlink:href="#linearGradient3801" id="linearGradient3807" y1="0" x2="0" y2="22" gradientUnits="userSpaceOnUse"/>
  <radialGradient inkscape:collect="always" xlink:href="#linearGradient6557" id="radialGradient3981" gradientUnits="userSpaceOnUse" cx="311.47" cy="828.53" r="3.281"/>
  <linearGradient id="linearGradient6557">
   <stop id="stop6559" stop-color="#fce94f"/>
   <stop id="stop6565" offset="0.673" stop-color="#fce94f"/>
   <stop offset="1" id="stop6561" stop-color="#fce94f" stop-opacity="0"/>
  </linearGradient>
  <linearGradient id="linearGradient6620">
   <stop id="stop6622" stop-color="#ffffff"/>
   <stop offset="0.33" id="stop6624" stop-color="#ffffff"/>
   <stop id="stop6626" offset="1" stop-color="#fce94f"/>
  </linearGradient>
  <linearGradient inkscape:collect="always" id="linearGradient3952">
   <stop id="stop3954"/>
   <stop offset="1" id="stop3956" stop-opacity="0"/>
  </linearGradient>
  <linearGradient inkscape:collect="always" xlink:href="#linearGradient3960" id="linearGradient3051" gradientUnits="userSpaceOnUse" gradientTransform="matrix(1.1428571,0,0,1,-11.857143,2)" y1="45" x2="0" y2="42"/>
  <linearGradient id="linearGradient3960">
   <stop id="stop3962" stop-opacity="0"/>
   <stop id="stop3970" offset="0.5"/>
   <stop offset="1" id="stop3964" stop-opacity="0"/>
  </linearGradient>
  <linearGradient inkscape:collect="always" xlink:href="#linearGradient3960" id="linearGradient3320" gradientUnits="userSpaceOnUse" gradientTransform="translate(-9,-23)" y1="45" x2="0" y2="42"/>
  <radialGradient inkscape:collect="always" xlink:href="#linearGradient3952" id="radialGradient3323" gradientUnits="userSpaceOnUse" gradientTransform="matrix(1,0,0,0.75,-5,-12.125)" cx="9" cy="43.5" r="2"/>
  <radialGradient inkscape:collect="always" xlink:href="#linearGradient3952" id="radialGradient3326" gradientUnits="userSpaceOnUse" gradientTransform="matrix(1,0,0,0.75,-22,-12.125)" cx="40" cy="43.5" r="2"/>
  <radialGradient inkscape:collect="always" xlink:href="#linearGradient3952" id="radialGradient4265" gradientUnits="userSpaceOnUse" gradientTransform="matrix(1,0,0,0.75,-3,-12.125)" cx="9" cy="43.5" r="2"/>
  <linearGradient inkscape:collect="always" xlink:href="#linearGradient3801" id="linearGradient4333" gradientUnits="userSpaceOnUse" y1="0" x2="0" y2="22" gradientTransform="translate(-3,-2)"/>
  <linearGradient inkscape:collect="always" xlink:href="#linearGradient3988-5" id="linearGradient4338" gradientUnits="userSpaceOnUse" gradientTransform="matrix(0.48571543,0,0,-0.45629579,-3.6571703,20.651132)" y1="0.985" x2="0" y2="47.01"/>
  <linearGradient inkscape:collect="always" xlink:href="#linearGradient3960" id="linearGradient4341" gradientUnits="userSpaceOnUse" gradientTransform="translate(-12,-25)" y1="45" x2="0" y2="42"/>
  <radialGradient inkscape:collect="always" xlink:href="#linearGradient3952" id="radialGradient4344" gradientUnits="userSpaceOnUse" gradientTransform="matrix(1,0,0,0.75,-6,-14.125)" cx="9" cy="43.5" r="2"/>
  <radialGradient inkscape:collect="always" xlink:href="#linearGradient3952" id="radialGradient4347" gradientUnits="userSpaceOnUse" gradientTransform="matrix(1,0,0,0.75,-25,-14.125)" cx="40" cy="43.5" r="2"/>
  <linearGradient inkscape:collect="always" xlink:href="#linearGradient3801" id="linearGradient3129" gradientUnits="userSpaceOnUse" gradientTransform="translate(-1,-4)" y1="0" x2="0" y2="22"/>
  <linearGradient inkscape:collect="always" xlink:href="#linearGradient3988-5" id="linearGradient3134" gradientUnits="userSpaceOnUse" gradientTransform="matrix(0.48571543,0,0,-0.25856743,-1.6571703,11.218952)" y1="0.985" x2="0" y2="47.01"/>
  <linearGradient inkscape:collect="always" xlink:href="#linearGradient3916" id="linearGradient3922" y1="19" x2="0" y2="9" gradientUnits="userSpaceOnUse"/>
  <linearGradient inkscape:collect="always" xlink:href="#linearGradient3988-5" id="linearGradient4032" gradientUnits="userSpaceOnUse" gradientTransform="matrix(0.48571543,0,0,-0.25856743,-1.6571312,25.718969)" y1="0.985" x2="0" y2="47.01"/>
 </defs>
 <metadata id="metadata3833"/>
 <g inkscape:groupmode="layer" id="layer1" inkscape:label="Background" transform="translate(0,2)">
  <path sodipodi:nodetypes="ccccc" inkscape:connector-curvature="0" id="path4291" d="m 5,1 0,1 c 4.157995,7.52e-5 13.292656,-7.52e-5 14,0 l 0,-1 c -0.707344,-7.52e-5 -9.842005,7.52e-5 -14,0 z" opacity="0.4" fill="#ffffff"/>
  <path sodipodi:nodetypes="cccccccccc" inkscape:connector-curvature="0" id="path4293" d="M 5,1 5,16 19,16 19,1 z M 6,2 18,2 18,15 6,15 z" opacity="0.4" fill="url(#linearGradient3129)"/>
  <path d="m 3.78125,8.5 -0.125,0.15625 -2,2 L 1.5,10.78125 1.5,11 l 0,7 0,0.5 0.5,0 20,0 0.5,0 0,-0.5 0,-7 0,-0.21875 -0.15625,-0.125 -2,-2 L 20.21875,8.5 20,8.5 4,8.5 z" id="rect3145" inkscape:connector-curvature="0" sodipodi:nodetypes="ccccccccccccccccccc" fill="url(#linearGradient3922)"/>
  <path id="path3935" d="m 3.78125,8.5 -0.125,0.15625 -2,2 L 1.5,10.78125 1.5,11 l 0,7 0,0.5 0.5,0 20,0 0.5,0 0,-0.5 0,-7 0,-0.21875 -0.15625,-0.125 -2,-2 L 20.21875,8.5 20,8.5 4,8.5 z" inkscape:connector-curvature="0" sodipodi:nodetypes="ccccccccccccccccccc" opacity="0.71" fill="none" stroke="#000000"/>
  <path sodipodi:nodetypes="ccccsc" id="path4287" inkscape:connector-curvature="0" d="M 4.4999609,10 C 8.3955418,10 19.50002,9.9992064 19.50002,9.9992064 l 2.1e-5,-9.4992434 c 0,0 -9.333386,0 -15.0000801,0 0,3.9666667 0,5.5333346 0,9.5000021 z" fill="url(#linearGradient3134)"/>
  <path d="m 2,11 20,0 0,1 -20,0 z" id="rect3937" inkscape:connector-curvature="0" sodipodi:nodetypes="ccccc" opacity="0.2" fill="#ffffff"/>
  <path d="M 4.34375,0 C 4.1372199,0.06764995 3.9892075,0.28294071 4,0.5 L 4,8 5,8 5,1 c 3.9461392,9.56e-5 13.37307,-9.56e-5 14,0 l 0,7 1,0 0,-7.5 C 19.999994,0.23820218 19.761798,5.72e-6 19.5,0 L 4.5,0 C 4.468842,-0.00293 4.437408,-0.00293 4.40625,0 4.385444,-0.0013 4.364556,-0.0013 4.34375,0 z" id="path4289" inkscape:connector-curvature="0" sodipodi:nodetypes="ccccccccccccc" opacity="0.41" color="#000000"/>
  <path d="m 4.5,10 15,0 0,1 -15,0 z" id="rect3948" inkscape:connector-curvature="0" sodipodi:nodetypes="ccccc" opacity="0.4"/>
  <path d="m 4,17 16,0 0,-1 -16,0 z" id="rect3950" inkscape:connector-curvature="0" sodipodi:nodetypes="ccccc" fill="#505050"/>
  <path d="m 5,15 14,0 0,1 -14,0 z" id="rect3952" inkscape:connector-curvature="0" sodipodi:nodetypes="ccccc" opacity="0.2"/>
  <path d="m 4,17 16,0 0,1 -16,0 z" id="rect3954" inkscape:connector-curvature="0" sodipodi:nodetypes="ccccc" opacity="0.4"/>
  <path d="m 20,20.5 -0.49992,-4.50002 c 0,0 -9.333386,0 -15.00008,0 L 4,20.5 z" inkscape:connector-curvature="0" id="path4030" sodipodi:nodetypes="ccccc" fill="url(#linearGradient4032)"/>
  <path d="m 4,15.875 -0.5,4.5 C 3.4225572,20.67445 3.6908541,21.009821 4,21 l 16,0 c 0.309146,0.0098 0.577443,-0.32555 0.5,-0.625 l -0.5,-4.5 0,0.125 -0.90625,0 0,0.5 0,0 0.25,3.5 -0.25,0 0,0.03125 L 6,20.03125 6,20 l -1.34375,0 0.25,-3.5 0,0 0,-0.5 L 4,16 z" id="path4034" inkscape:connector-curvature="0" sodipodi:nodetypes="ccccccccccccccccccccc" opacity="0.61" color="#000000"/>
  <path d="m 6,17 11,0 0,1 -11,0 z" id="rect4046" inkscape:connector-curvature="0" sodipodi:nodetypes="ccccc" opacity="0.2"/>
 </g>
</svg>
