<?xml version="1.0" encoding="UTF-8" standalone="no"?>
<svg xmlns="http://www.w3.org/2000/svg" xmlns:sodipodi="http://sodipodi.sourceforge.net/DTD/sodipodi-0.dtd" xmlns:inkscape="http://www.inkscape.org/namespaces/inkscape" height="24" version="1.1" width="24" enable-background="new">
 <metadata id="metadata90"/>
 <defs id="defs7386">
  <linearGradient id="linearGradient5606" osb:paint="solid">
   <stop id="stop5608"/>
  </linearGradient>
  <filter inkscape:collect="always" color-interpolation-filters="sRGB" id="filter7554">
   <feBlend inkscape:collect="always" id="feBlend7556" in2="BackgroundImage" mode="darken"/>
  </filter>
 </defs>
 <g inkscape:groupmode="layer" id="layer9" inkscape:label="status" transform="translate(-257.00019,351)">
  <rect id="rect3807" width="6" height="8" x="266" y="-342" opacity="0.35" fill="#ffffff" color="#000000" rx="0"/>
  <path sodipodi:nodetypes="ccccccsscsccscccccccccccc" id="path3765" d="m 267.00019,-345 0,1 4,0 0,-1 z m -2.15625,2 c -0.28125,0.0469 -0.84375,0.25 -0.84375,1 l 0,10 c 0,1 1,1 1,1 l 8,0 c 1,0 1,-1 1,-1 l 0,-10 c 0,0 0,-1 -1,-1 l -8,0 c 0,0 -0.0625,-0.0156 -0.15625,0 z m 0.15625,1 8,0 0,10 -8,0 z m 1.00001,3 -1e-5,6 6,0 1e-5,-6 z" inkscape:connector-curvature="0" opacity="0.2"/>
  <path inkscape:connector-curvature="0" d="m 267.00019,-346 0,1 4,0 0,-1 z m -2.15625,2 c -0.28125,0.0469 -0.84375,0.25 -0.84375,1 l 0,10 c 0,1 1,1 1,1 l 8,0 c 1,0 1,-1 1,-1 l 0,-10 c 0,0 0,-1 -1,-1 l -8,0 c 0,0 -0.0625,-0.0156 -0.15625,0 z m 0.15625,1 8,0 0,10 -8,0 z m 1.00001,3 -1e-5,6 6,0 1e-5,-6 z" id="rect2388-2-2-5" sodipodi:nodetypes="ccccccsscsccscccccccccccc" fill="#ffffff"/>
 </g>
</svg>
