<?xml version="1.0" encoding="UTF-8" standalone="no"?>
<svg
   xmlns:osb="http://www.openswatchbook.org/uri/2009/osb"
   xmlns:dc="http://purl.org/dc/elements/1.1/"
   xmlns:cc="http://creativecommons.org/ns#"
   xmlns:rdf="http://www.w3.org/1999/02/22-rdf-syntax-ns#"
   xmlns:svg="http://www.w3.org/2000/svg"
   xmlns="http://www.w3.org/2000/svg"
   xmlns:sodipodi="http://sodipodi.sourceforge.net/DTD/sodipodi-0.dtd"
   xmlns:inkscape="http://www.inkscape.org/namespaces/inkscape"
   height="24"
   version="1.1"
   width="24"
   enable-background="new"
   id="svg3003"
   inkscape:version="0.48.4 r9939"
   sodipodi:docname="bluetooth-disabled.svg">
  <sodipodi:namedview
     pagecolor="#ffffff"
     bordercolor="#666666"
     borderopacity="1"
     objecttolerance="10"
     gridtolerance="10"
     guidetolerance="10"
     inkscape:pageopacity="0"
     inkscape:pageshadow="2"
     inkscape:window-width="680"
     inkscape:window-height="480"
     id="namedview3013"
     showgrid="false"
     inkscape:zoom="1"
     inkscape:cx="-0.50967462"
     inkscape:cy="12"
     inkscape:window-x="523"
     inkscape:window-y="64"
     inkscape:window-maximized="0"
     inkscape:current-layer="layer9" />
  <metadata
     id="metadata90">
    <rdf:RDF>
      <cc:Work
         rdf:about="">
        <dc:format>image/svg+xml</dc:format>
        <dc:type
           rdf:resource="http://purl.org/dc/dcmitype/StillImage" />
      </cc:Work>
    </rdf:RDF>
  </metadata>
  <defs
     id="defs7386">
    <linearGradient
       id="linearGradient5606"
       osb:paint="solid">
      <stop
         id="stop5608" />
    </linearGradient>
  </defs>
  <g
     inkscape:groupmode="layer"
     id="layer9"
     inkscape:label="status"
     transform="translate(-257.00019,351)">
    <path
       id="path3855"
       d="m 268.00019,-344.96875 0,5 -2.5,-1.875 c -0.0839,-0.048 -0.27311,-0.125 -0.5,-0.125 l -1,0 0,1 c 0,0.32539 0.16093,0.61184 0.28125,0.71875 l 3.03125,2.28125 -3.03125,2.28125 c -0.12032,0.10691 -0.28125,0.39336 -0.28125,0.71875 l 0,0.90625 -1.03125,1.03125 1.0625,1.0625 11,-11 -1.0625,-1.0625 -1.4375,1.4375 -2.8125,-2.09375 c -0.0346,-0.0346 -0.0856,-0.0645 -0.125,-0.0937 -0.16662,-0.12377 -0.36936,-0.1875 -0.59375,-0.1875 l -1,0 z m 1,2.25 2.09375,1.5625 -1.4375,1.4375 -0.65625,0.5 0,-3.5 z m 2.46875,5.3125 -1.46875,1.46875 1.3125,0.96875 -2.3125,1.75 0,-1.71875 -1,1 0,2.96875 1,0 c 0.27556,0 0.53893,-0.10144 0.71875,-0.28125 l 3.875,-2.90625 c 0.51366,-0.36865 0.51366,-1.25635 0,-1.625 l -2.125,-1.625 z"
       style="font-size:medium;font-style:normal;font-variant:normal;font-weight:normal;font-stretch:normal;text-indent:0;text-align:start;text-decoration:none;line-height:normal;letter-spacing:normal;word-spacing:normal;text-transform:none;direction:ltr;block-progression:tb;writing-mode:lr-tb;text-anchor:start;baseline-shift:baseline;color:#000000;fill:#000000;fill-opacity:1;stroke:none;stroke-width:2;marker:none;visibility:visible;display:inline;overflow:visible;enable-background:accumulate;font-family:Sans;-inkscape-font-specification:Sans;opacity:0.2"
       inkscape:connector-curvature="0" />
    <path
       style="font-size:medium;font-style:normal;font-variant:normal;font-weight:normal;font-stretch:normal;text-indent:0;text-align:start;text-decoration:none;line-height:normal;letter-spacing:normal;word-spacing:normal;text-transform:none;direction:ltr;block-progression:tb;writing-mode:lr-tb;text-anchor:start;baseline-shift:baseline;color:#000000;fill:#ffffff;fill-opacity:1;stroke:none;stroke-width:2;marker:none;visibility:visible;display:inline;overflow:visible;enable-background:accumulate;font-family:Sans;-inkscape-font-specification:Sans"
       d="M 11 5.03125 L 11 10.03125 L 8.5 8.15625 C 8.4161 8.10825 8.22689 8.03125 8 8.03125 L 7 8.03125 L 7 9.03125 C 7 9.35664 7.16093 9.64309 7.28125 9.75 L 10.3125 12.03125 L 7.28125 14.3125 C 7.16093 14.41941 7 14.70586 7 15.03125 L 7 15.9375 L 5.96875 16.96875 L 7.03125 18.03125 L 18.03125 7.03125 L 16.96875 5.96875 L 15.53125 7.40625 L 12.71875 5.3125 C 12.68415 5.2779 12.63315 5.24795 12.59375 5.21875 C 12.42713 5.09498 12.22439 5.03125 12 5.03125 L 11 5.03125 z M 12 7.28125 L 14.09375 8.84375 L 12.65625 10.28125 L 12 10.78125 L 12 7.28125 z M 14.46875 12.59375 L 13 14.0625 L 14.3125 15.03125 L 12 16.78125 L 12 15.0625 L 11 16.0625 L 11 19.03125 L 12 19.03125 C 12.27556 19.03125 12.53893 18.92981 12.71875 18.75 L 16.59375 15.84375 C 17.10741 15.4751 17.10741 14.5874 16.59375 14.21875 L 14.46875 12.59375 z "
       transform="translate(257.00019,-351)"
       id="path5061" />
  </g>
</svg>
