<?xml version="1.0" encoding="UTF-8" standalone="no"?>
<svg
   xmlns:osb="http://www.openswatchbook.org/uri/2009/osb"
   xmlns:dc="http://purl.org/dc/elements/1.1/"
   xmlns:cc="http://creativecommons.org/ns#"
   xmlns:rdf="http://www.w3.org/1999/02/22-rdf-syntax-ns#"
   xmlns:svg="http://www.w3.org/2000/svg"
   xmlns="http://www.w3.org/2000/svg"
   id="svg2990"
   enable-background="new"
   width="24"
   version="1.1"
   height="24">
  <metadata
     id="metadata90">
    <rdf:RDF>
      <cc:Work
         rdf:about="">
        <dc:format>image/svg+xml</dc:format>
        <dc:type
           rdf:resource="http://purl.org/dc/dcmitype/StillImage" />
      </cc:Work>
    </rdf:RDF>
  </metadata>
  <defs
     id="defs7386">
    <linearGradient
       osb:paint="solid"
       id="linearGradient5606">
      <stop
         id="stop5608" />
    </linearGradient>
  </defs>
  <g
     transform="translate(-257.00019,351)"
     id="layer9">
    <path
       style="opacity:0.35;fill:#000000;fill-opacity:1;stroke:none"
       d="m 269.31269,-346 c -3.047,0 -5.5,2.676 -5.5,6 l 0,4 c 0,3.324 2.453,6 5.5,6 0.23333,0 0.46197,-0.032 0.6875,-0.0625 l 0,-0.9375 0,-1.53125 -0.21875,0.21875 c -0.0252,0.0599 -0.0798,0.11106 -0.125,0.15625 -0.0904,0.0904 -0.20525,0.15625 -0.34375,0.15625 l -0.5,0 0,-0.5 0,-4.4375 -2.15625,1.78125 c -0.0905,0.0905 -0.20568,0.15625 -0.34375,0.15625 l -0.5,0 0,-0.5 c 0,-0.15322 0.079,-0.28328 0.1875,-0.375 l 2.5625,-2.125 -2.4375,-2.03125 c -0.0467,-0.0197 -0.0868,-0.0616 -0.125,-0.0937 -0.10854,-0.0917 -0.1875,-0.22178 -0.1875,-0.375 l 0,-0.5 0.5,0 c 0.12292,0 0.22543,0.0514 0.3125,0.125 0.0107,0.009 0.0214,0.0213 0.0312,0.0312 l 2.15625,1.78125 0,-4.4375 0,-0.5 0.5,0 c 0.20775,0 0.39305,0.13292 0.46875,0.3125 l 2.875,2.84375 0.40625,0.375 -0.4375,0.34375 -2.5625,2.125 1.53125,1.25 c 0.54668,-0.74778 1.41756,-1.25 2.40625,-1.25 0.28461,0 0.55158,0.0491 0.8125,0.125 l 0,-2.125 c 0,-3.324 -2.453,-6 -5.5,-6 z m 0.5,3.6875 0,3.25 1.78125,-1.46875 -1.78125,-1.78125 z m 4.1875,5.3125 c -1.108,0 -2,0.91085 -2,2.03125 l 0,0.96875 -1,0 0,1 0,2 0,1 1,0 4,0 1,0 0,-1 0,-2 0,-1 -1,0 0,-0.96875 c 0,-1.1199 -0.892,-2.03125 -2,-2.03125 z m -4.1875,0.0625 0,3.25 0.1875,-0.1875 0,-0.125 0,-1 1,0 c 0.003,-0.29677 0.0725,-0.57151 0.15625,-0.84375 l -1.34375,-1.09375 z m 4.1875,0.9375 c 0.554,0 1,0.4424 1,1 l 0,1 -2,0 0,-1 c 0,-0.5576 0.446,-1 1,-1 z"
       id="path4328" />
    <path
       transform="translate(257.00019,-351)"
       id="path3787"
       d="M 12.3125 4 C 9.2655 4 6.8125 6.676 6.8125 10 L 6.8125 14 C 6.8125 17.324 9.2655 20 12.3125 20 C 12.545829 20 12.774472 19.967973 13 19.9375 L 13 19 L 13 17.46875 L 12.78125 17.6875 C 12.75605 17.7474 12.70145 17.79856 12.65625 17.84375 C 12.56585 17.93415 12.451 18 12.3125 18 L 11.8125 18 L 11.8125 17.5 L 11.8125 13.0625 L 9.65625 14.84375 C 9.56575 14.93425 9.45057 15 9.3125 15 L 8.8125 15 L 8.8125 14.5 C 8.8125 14.34678 8.8915 14.21672 9 14.125 L 11.5625 12 L 9.125 9.96875 C 9.0783 9.94905 9.0382 9.9072 9 9.875 C 8.89146 9.7833 8.8125 9.65322 8.8125 9.5 L 8.8125 9 L 9.3125 9 C 9.43542 9 9.53793 9.0514 9.625 9.125 C 9.6357 9.134 9.64635 9.14635 9.65625 9.15625 L 11.8125 10.9375 L 11.8125 6.5 L 11.8125 6 L 12.3125 6 C 12.52025 6 12.70555 6.13292 12.78125 6.3125 L 15.65625 9.15625 L 16.0625 9.53125 L 15.625 9.875 L 13.0625 12 L 14.59375 13.25 C 15.140432 12.502223 16.011314 12 17 12 C 17.284609 12 17.551581 12.049127 17.8125 12.125 L 17.8125 10 C 17.8125 6.676 15.3595 4 12.3125 4 z M 12.8125 7.6875 L 12.8125 10.9375 L 14.59375 9.46875 L 12.8125 7.6875 z M 17 13 C 15.892 13 15 13.91085 15 15.03125 L 15 16 L 14 16 L 14 17 L 14 19 L 14 20 L 15 20 L 19 20 L 20 20 L 20 19 L 20 17 L 20 16 L 19 16 L 19 15.03125 C 19 13.91135 18.108 13 17 13 z M 12.8125 13.0625 L 12.8125 16.3125 L 13 16.125 L 13 16 L 13 15 L 14 15 C 14.003036 14.70323 14.07246 14.428493 14.15625 14.15625 L 12.8125 13.0625 z M 17 14 C 17.554 14 18 14.4424 18 15 L 18 16 L 16 16 L 16 15 C 16 14.4424 16.446 14 17 14 z "
       style="fill:#ffffff;fill-opacity:1;stroke:none;opacity:1" />
  </g>
</svg>
