<?xml version="1.0" encoding="UTF-8" standalone="no"?>
<svg
   xmlns:dc="http://purl.org/dc/elements/1.1/"
   xmlns:cc="http://creativecommons.org/ns#"
   xmlns:rdf="http://www.w3.org/1999/02/22-rdf-syntax-ns#"
   xmlns:svg="http://www.w3.org/2000/svg"
   xmlns="http://www.w3.org/2000/svg"
   xmlns:sodipodi="http://sodipodi.sourceforge.net/DTD/sodipodi-0.dtd"
   xmlns:inkscape="http://www.inkscape.org/namespaces/inkscape"
   version="1.1"
   width="24"
   height="24"
   id="svg2"
   inkscape:version="0.48.4 r9939"
   sodipodi:docname="bluetooth-active-symbolic.svg">
  <defs
     id="defs186" />
  <sodipodi:namedview
     pagecolor="#353535"
     bordercolor="#666666"
     borderopacity="1"
     objecttolerance="10"
     gridtolerance="10"
     guidetolerance="10"
     inkscape:pageopacity="1"
     inkscape:pageshadow="2"
     inkscape:window-width="1366"
     inkscape:window-height="715"
     id="namedview184"
     showgrid="false"
     inkscape:zoom="1"
     inkscape:cx="13.280746"
     inkscape:cy="9.456251"
     inkscape:window-x="0"
     inkscape:window-y="28"
     inkscape:window-maximized="1"
     inkscape:current-layer="layer1"
     inkscape:snap-bbox="true"
     inkscape:bbox-nodes="true"
     inkscape:snap-bbox-edge-midpoints="true"
     inkscape:snap-bbox-midpoints="true">
    <inkscape:grid
       type="xygrid"
       id="grid3174"
       empspacing="24"
       visible="true"
       enabled="true"
       snapvisiblegridlinesonly="true" />
  </sodipodi:namedview>
  <metadata
     id="metadata90">
    <rdf:RDF>
      <cc:Work
         rdf:about="">
        <dc:format>image/svg+xml</dc:format>
        <dc:type
           rdf:resource="http://purl.org/dc/dcmitype/StillImage" />
      </cc:Work>
    </rdf:RDF>
  </metadata>
  <title
     id="title8473">Faba Symbolic Icon Theme</title>
  <g
     inkscape:groupmode="layer"
     id="layer1"
     inkscape:label="panel"
     transform="translate(0,-192)">
    <path
       style="color:#bebebe;fill:#bebebe;fill-opacity:1;fill-rule:nonzero;stroke:none;stroke-width:2;marker:none;visibility:visible;display:inline;overflow:visible;enable-background:accumulate"
       d="M 11.65625 4.96875 A 0.750075 0.750075 0 0 0 11.5625 5 A 0.750075 0.750075 0 0 0 11 5.5 A 0.750075 0.750075 0 0 0 11 5.53125 A 0.750075 0.750075 0 0 0 11 5.90625 L 11 10.625 L 9.21875 9.15625 C 9.085893 9.053694 8.9178193 8.9976694 8.75 9 L 8.59375 9 L 8 9 L 8 9.53125 C 7.9991318 9.552071 7.9991318 9.572929 8 9.59375 C 7.942804 9.8695405 8.056815 10.173571 8.28125 10.34375 L 10.3125 12 L 8.28125 13.65625 C 8.1049884 13.79856 7.9984543 14.023465 8 14.25 C 7.99461 14.3019 7.99461 14.354353 8 14.40625 L 8 15 L 8.625 15 L 8.75 15 C 8.9177698 15.0018 9.0856348 14.94588 9.21875 14.84375 L 11 13.375 L 11 18.15625 A 0.75259966 0.75259966 0 0 0 11 18.375 L 11 18.5 L 11.03125 18.5 A 0.75259966 0.75259966 0 0 0 12.25 18.8125 L 15.75 15.5625 A 0.750075 0.750075 0 0 0 15.71875 14.40625 L 12.71875 12 L 15.71875 9.59375 A 0.750075 0.750075 0 0 0 15.75 8.4375 L 12.25 5.1875 A 0.750075 0.750075 0 0 0 11.71875 4.96875 A 0.750075 0.750075 0 0 0 11.65625 4.96875 z M 12 7 L 14.09375 8.96875 L 12 10.625 L 12 7 z M 12 13.375 L 14.09375 15.03125 L 12 17 L 12 13.375 z "
       transform="translate(0,192)"
       id="rect8730" />
    <path
       style="color:#bebebe;fill:#bebebe;fill-opacity:1;fill-rule:nonzero;stroke:none;stroke-width:2;marker:none;visibility:visible;display:inline;overflow:visible;enable-background:accumulate"
       d="m 11.000013,197 0.749987,0 0,0.5 -0.749987,0 z"
       id="rect8734" />
    <path
       style="color:#bebebe;fill:#bebebe;fill-opacity:1;fill-rule:nonzero;stroke:none;stroke-width:2;marker:none;visibility:visible;display:inline;overflow:visible;enable-background:accumulate"
       d="m 11.000013,210.5 0.749987,0 0,0.5 -0.749987,0 z"
       id="rect8736" />
  </g>
</svg>
