<?xml version="1.0" encoding="UTF-8" standalone="no"?>
<svg
   xmlns:dc="http://purl.org/dc/elements/1.1/"
   xmlns:cc="http://creativecommons.org/ns#"
   xmlns:rdf="http://www.w3.org/1999/02/22-rdf-syntax-ns#"
   xmlns:svg="http://www.w3.org/2000/svg"
   xmlns="http://www.w3.org/2000/svg"
   xmlns:sodipodi="http://sodipodi.sourceforge.net/DTD/sodipodi-0.dtd"
   xmlns:inkscape="http://www.inkscape.org/namespaces/inkscape"
   width="24"
   height="24"
   version="1.1"
   id="svg2"
   inkscape:version="0.48.4 r9939"
   sodipodi:docname="dropboxstatus-busy.svg">
  <defs
     id="defs10" />
  <sodipodi:namedview
     pagecolor="#000000"
     bordercolor="#666666"
     borderopacity="1"
     objecttolerance="10"
     gridtolerance="10"
     guidetolerance="10"
     inkscape:pageopacity="0.46666667"
     inkscape:pageshadow="2"
     inkscape:window-width="1364"
     inkscape:window-height="701"
     id="namedview8"
     showgrid="true"
     inkscape:zoom="1"
     inkscape:cx="17.290884"
     inkscape:cy="11.128753"
     inkscape:window-x="0"
     inkscape:window-y="28"
     inkscape:window-maximized="1"
     inkscape:current-layer="layer1">
    <inkscape:grid
       type="xygrid"
       id="grid2999"
       empspacing="5"
       visible="true"
       enabled="true"
       snapvisiblegridlinesonly="true" />
  </sodipodi:namedview>
  <metadata
     id="metadata3401">
    <rdf:RDF>
      <cc:Work
         rdf:about="">
        <dc:format>image/svg+xml</dc:format>
        <dc:type
           rdf:resource="http://purl.org/dc/dcmitype/StillImage" />
      </cc:Work>
    </rdf:RDF>
  </metadata>
  <g
     id="layer1"
     inkscape:label="Layer 1"
     inkscape:groupmode="layer"
     transform="translate(0,8)">
    <path
       id="path3894"
       d="M 8,-2 4,1 8,4 4,7 12,13 20,7 16,4 16,5.5 16,6 13,6 13,5.59375 c -0.004,-0.0362 -0.004,-0.0574 0,-0.0937 2.5e-5,-0.26179 0.23821,-0.49998 0.5,-0.5 l 0.71875,0 c 0.268236,10e-5 0.415358,-0.005 0.53125,-0.0312 l -0.4375,0 c -0.3867,-0.88251 -1.284721,-1.5 -2.3125,-1.5 -1.027779,0 -1.894551,0.61749 -2.28125,1.5 l -1.0625,0 c 0.434009,-1.43715 1.767146,-2.5 3.34375,-2.5 1.273261,0 2.389678,0.72627 3,1.75 L 15,3.5 C 14.9945,3.27095 15.151425,3.0501 15.375,3 c 0.02045,-0.007 0.04135,0.004 0.0625,0 0.0473,-10e-4 0.11045,-0.0118 0.15625,0 L 16,3 16,3.40625 c 0.003,0.0311 0.003,0.0626 0,0.0937 l 0,0.5 4,-3 -4,-3 -4,3 -4,-3 z m 0,7.96875 3,0 0,0.40625 c 0.004,0.0362 0.004,0.0574 0,0.0937 -2.5e-5,0.26179 -0.23821,0.49997 -0.5,0.5 l -0.71875,0 c -0.02784,0 -0.0366,-3e-5 -0.0625,0 0.386699,0.8825 1.253471,1.5 2.28125,1.5 1.027779,0 1.9258,-0.61745 2.3125,-1.5 l 1.03125,0 c -0.43401,1.43714 -1.767147,2.5 -3.34375,2.5 -1.288719,0 -2.39471,-0.70577 -3,-1.75 l 0,0.75 C 9.0055,8.69775 8.848575,8.9186 8.625,8.9687 8.60455,8.9747 8.58365,8.996 8.5625,8.9999 8.5152,9.0009 8.45205,8.9804 8.40625,8.9687 L 8,8.9687 8,8.56245 C 7.997,8.53135 7.997,8.49985 8,8.46875 l 0,-2 0,-0.5 z"
       inkscape:connector-curvature="0"
       style="opacity:0.2;color:#000000" />
    <path
       inkscape:connector-curvature="0"
       d="M 8,-3 4,0 8,3 4,6 12,12 20,6 16,3 16,4.5 16,5 13,5 13,4.59375 c -0.004,-0.0362 -0.004,-0.0574 0,-0.0937 2.5e-5,-0.26179 0.23821,-0.49998 0.5,-0.5 l 0.71875,0 c 0.268236,10e-5 0.415358,-0.005 0.53125,-0.0312 l -0.4375,0 c -0.3867,-0.88251 -1.284721,-1.5 -2.3125,-1.5 -1.027779,0 -1.894551,0.61749 -2.28125,1.5 l -1.0625,0 c 0.434009,-1.43715 1.767146,-2.5 3.34375,-2.5 1.273261,0 2.389678,0.72627 3,1.75 L 15,2.5 C 14.9945,2.27095 15.151425,2.0501 15.375,2 c 0.02045,-0.007 0.04135,0.004 0.0625,0 0.0473,-10e-4 0.11045,-0.0118 0.15625,0 L 16,2 16,2.40625 c 0.003,0.0311 0.003,0.0626 0,0.0937 l 0,0.5 4,-3 -4,-3 -4,3 -4,-3 z m 0,7.96875 3,0 0,0.40625 c 0.004,0.0362 0.004,0.0574 0,0.0937 -2.5e-5,0.26179 -0.23821,0.49997 -0.5,0.5 l -0.71875,0 c -0.02784,0 -0.0366,-3e-5 -0.0625,0 0.386699,0.8825 1.253471,1.5 2.28125,1.5 1.027779,0 1.9258,-0.61745 2.3125,-1.5 l 1.03125,0 c -0.43401,1.43714 -1.767147,2.5 -3.34375,2.5 -1.288719,0 -2.39471,-0.70577 -3,-1.75 l 0,0.75 C 9.0055,7.69775 8.848575,7.9186 8.625,7.9687 8.60455,7.9747 8.58365,7.996 8.5625,7.9999 8.5152,8.0009 8.45205,7.9804 8.40625,7.9687 L 8,7.9687 8,7.56245 C 7.997,7.53135 7.997,7.49985 8,7.46875 l 0,-2 0,-0.5 z"
       id="path4305-2-8"
       style="color:#000000;fill:#ffffff" />
  </g>
</svg>
