<?xml version="1.0" encoding="UTF-8" standalone="no"?>
<svg
   xmlns:dc="http://purl.org/dc/elements/1.1/"
   xmlns:cc="http://creativecommons.org/ns#"
   xmlns:rdf="http://www.w3.org/1999/02/22-rdf-syntax-ns#"
   xmlns:svg="http://www.w3.org/2000/svg"
   xmlns="http://www.w3.org/2000/svg"
   id="svg2"
   version="1.1"
   height="24"
   width="24">
  <defs
     id="defs10" />
  <metadata
     id="metadata3401">
    <rdf:RDF>
      <cc:Work
         rdf:about="">
        <dc:format>image/svg+xml</dc:format>
        <dc:type
           rdf:resource="http://purl.org/dc/dcmitype/StillImage" />
      </cc:Work>
    </rdf:RDF>
  </metadata>
  <g
     transform="translate(0,8)"
     id="layer1">
    <path
       style="opacity:0.2;color:#000000"
       d="M 8,-2 4,1 8,4 4,7 12,13 20,7 16,4 20,1 16,-2 12,1 8,-2 z m 3,4 2,0 -0.25,5 -1.5,0 L 11,2 z m 0,6 2,0 0,2 -2,0 0,-2 z"
       id="path3828" />
    <path
       style="color:#000000;fill:#e13f2b"
       id="path4281"
       d="M 8,-3 4,0 8,3 4,6 12,12 20,6 16,3 20,0 16,-3 12,0 8,-3 z m 3,4 2,0 -0.25,5 -1.5,0 L 11,1 z m 0,6 2,0 0,2 -2,0 0,-2 z" />
  </g>
</svg>
