<?xml version="1.0" encoding="UTF-8" standalone="no"?>
<svg
   xmlns:dc="http://purl.org/dc/elements/1.1/"
   xmlns:cc="http://creativecommons.org/ns#"
   xmlns:rdf="http://www.w3.org/1999/02/22-rdf-syntax-ns#"
   xmlns:svg="http://www.w3.org/2000/svg"
   xmlns="http://www.w3.org/2000/svg"
   id="svg2987"
   version="1.1"
   height="24"
   width="24">
  <defs
     id="defs2995" />
  <metadata
     id="metadata3401">
    <rdf:RDF>
      <cc:Work
         rdf:about="">
        <dc:format>image/svg+xml</dc:format>
        <dc:type
           rdf:resource="http://purl.org/dc/dcmitype/StillImage" />
      </cc:Work>
    </rdf:RDF>
  </metadata>
  <g
     transform="translate(0,8)"
     id="layer1">
    <path
       style="opacity:0.2;color:#000000"
       d="M 9,-2 5,1 9,4 5,7 13,13 21,7 17,4 21,1 17,-2 13,1 9,-2 z m 1,4 0.40625,0 c 0.0311,-0.003 0.0627,-0.003 0.0937,0 l 2,0 0.5,0 0,3 -0.40625,0 C 12.5575,5.004 12.5362,5.004 12.5,5 12.23821,4.99997 12.00003,4.76179 12,4.5 l 0,-0.71875 c 0,-0.0278 3e-5,-0.0366 0,-0.0625 C 11.1175,4.10545 10.5,4.97222 10.5,6 c 0,1.02779 0.61745,1.92581 1.5,2.3125 l 0,1.03125 C 10.56286,8.90974 9.5,7.57661 9.5,6 9.5,4.71129 10.20577,3.60529 11.25,3 L 10.5,3 C 10.27095,3.006 10.0501,2.84857 10,2.625 9.993,2.6046 9.9728,2.5837 9.9688,2.5625 9.9678,2.5152 9.9883,2.45205 10,2.40625 L 10,2 z m 4,0.65625 C 15.43715,3.09026 16.5,4.4234 16.5,6 c 0,1.27326 -0.72627,2.38968 -1.75,3 l 0.71875,0 c 0.22905,-0.006 0.4499,0.15142 0.5,0.375 0.007,0.0204 -0.004,0.0413 0,0.0625 10e-4,0.0473 0.0118,0.11045 0,0.15625 l 0,0.40625 -0.40625,0 c -0.0311,0.003 -0.0627,0.003 -0.0937,0 l -2,0 -0.5,0 0,-3 0.40625,0 c 0.0362,-0.004 0.0575,-0.004 0.0937,0 0.26179,3e-5 0.49998,0.23822 0.5,0.5 l 0,0.71875 c -10e-5,0.26825 0.005,0.41536 0.0312,0.53125 l 0,-0.4375 c 0.88251,-0.38669 1.5,-1.28471 1.5,-2.3125 0,-1.02778 -0.61749,-1.89455 -1.5,-2.28125 l 0,-1.0625 z"
       id="path3979" />
    <path
       style="color:#000000;fill:#ffffff"
       id="path4329-9"
       d="M 9,-3 5,0 9,3 5,6 13,12 21,6 17,3 21,0 17,-3 13,0 9,-3 z m 1,4 0.40625,0 c 0.0311,-0.003 0.0627,-0.003 0.0937,0 l 2,0 0.5,0 0,3 -0.40625,0 C 12.5575,4.004 12.5362,4.004 12.5,4 12.23821,3.99997 12.00003,3.76179 12,3.5 l 0,-0.71875 c 0,-0.0278 3e-5,-0.0366 0,-0.0625 C 11.1175,3.10545 10.5,3.97222 10.5,5 c 0,1.02779 0.61745,1.92581 1.5,2.3125 l 0,1.03125 C 10.56286,7.90974 9.5,6.57661 9.5,5 9.5,3.71129 10.20577,2.60529 11.25,2 L 10.5,2 C 10.27095,2.006 10.0501,1.84857 10,1.625 9.993,1.6046 9.9728,1.5837 9.9688,1.5625 9.9678,1.5152 9.9883,1.45205 10,1.40625 L 10,1 z m 4,0.65625 C 15.43715,2.09026 16.5,3.4234 16.5,5 c 0,1.27326 -0.72627,2.38968 -1.75,3 l 0.71875,0 c 0.22905,-0.006 0.4499,0.15142 0.5,0.375 0.007,0.0204 -0.004,0.0413 0,0.0625 10e-4,0.0473 0.0118,0.11045 0,0.15625 l 0,0.40625 -0.40625,0 c -0.0311,0.003 -0.0627,0.003 -0.0937,0 l -2,0 -0.5,0 0,-3 0.40625,0 c 0.0362,-0.004 0.0575,-0.004 0.0937,0 0.26179,3e-5 0.49998,0.23822 0.5,0.5 l 0,0.71875 c -10e-5,0.26825 0.005,0.41536 0.0312,0.53125 l 0,-0.4375 c 0.88251,-0.38669 1.5,-1.28471 1.5,-2.3125 0,-1.02778 -0.61749,-1.89455 -1.5,-2.28125 l 0,-1.0625 z" />
  </g>
</svg>
