<?xml version="1.0" encoding="UTF-8" standalone="no"?>
<svg xmlns="http://www.w3.org/2000/svg" xmlns:sodipodi="http://sodipodi.sourceforge.net/DTD/sodipodi-0.dtd" xmlns:inkscape="http://www.inkscape.org/namespaces/inkscape" width="24" height="24" version="1.1">
 <metadata id="metadata3401"/>
 <g id="layer1" inkscape:label="Layer 1" inkscape:groupmode="layer" transform="translate(0,8)">
  <path id="path3979" d="M 8,-3 4,0 8,3 4,6 12,12 20,6 16,3 20,0 16,-3 12,0 8,-3 z m 1,4 0.40625,0 c 0.0311,-0.003 0.0627,-0.003 0.0937,0 l 2,0 0.5,0 0,3 -0.40625,0 C 11.5575,4.004 11.5362,4.004 11.5,4 11.23821,3.99997 11.00003,3.76179 11,3.5 l 0,-0.71875 c 0,-0.0278 3e-5,-0.0366 0,-0.0625 C 10.1175,3.10545 9.5,3.97222 9.5,5 c 0,1.02779 0.61745,1.92581 1.5,2.3125 l 0,1.03125 C 9.56286,7.90974 8.5,6.57661 8.5,5 8.5,3.71129 9.20577,2.60529 10.25,2 L 9.5,2 C 9.27095,2.006 9.0501,1.84857 9,1.625 8.993,1.6046 8.9728,1.5837 8.9688,1.5625 8.9678,1.5152 8.9883,1.45205 9,1.40625 L 9,1 z m 4,0.65625 C 14.43715,2.09026 15.5,3.4234 15.5,5 c 0,1.27326 -0.72627,2.38968 -1.75,3 l 0.71875,0 c 0.22905,-0.006 0.4499,0.15142 0.5,0.375 0.007,0.0204 -0.004,0.0413 0,0.0625 10e-4,0.0473 0.0118,0.11045 0,0.15625 l 0,0.40625 -0.40625,0 c -0.0311,0.003 -0.0627,0.003 -0.0937,0 l -2,0 -0.5,0 0,-3 0.40625,0 c 0.0362,-0.004 0.0575,-0.004 0.0937,0 0.26179,3e-5 0.49998,0.23822 0.5,0.5 l 0,0.71875 c -10e-5,0.26825 0.005,0.41536 0.0312,0.53125 l 0,-0.4375 c 0.88251,-0.38669 1.5,-1.28471 1.5,-2.3125 0,-1.02778 -0.61749,-1.89455 -1.5,-2.28125 l 0,-1.0625 z" inkscape:connector-curvature="0" opacity="0.2" color="#000000"/>
  <path inkscape:connector-curvature="0" d="m 8,-4 -4,3 4,3 -4,3 8,6 8,-6 -4,-3 4,-3 -4,-3 -4,3 -4,-3 z m 1,4 0.40625,0 c 0.0311,-0.003 0.0627,-0.003 0.0937,0 l 2,0 0.5,0 0,3 -0.40625,0 C 11.5575,3.004 11.5362,3.004 11.5,3 11.23821,2.99997 11.00003,2.76179 11,2.5 l 0,-0.71875 c 0,-0.0278 3e-5,-0.0366 0,-0.0625 C 10.1175,2.10545 9.5,2.97222 9.5,4 c 0,1.02779 0.61745,1.92581 1.5,2.3125 l 0,1.03125 C 9.56286,6.90974 8.5,5.57661 8.5,4 8.5,2.71129 9.20577,1.60529 10.25,1 L 9.5,1 C 9.27095,1.006 9.0501,0.84857 9,0.625 8.993,0.6046 8.9728,0.5837 8.9688,0.5625 8.9678,0.5152 8.9883,0.45205 9,0.40625 L 9,0 z m 4,0.65625 C 14.43715,1.09026 15.5,2.4234 15.5,4 c 0,1.27326 -0.72627,2.38968 -1.75,3 l 0.71875,0 c 0.22905,-0.006 0.4499,0.15142 0.5,0.375 0.007,0.0204 -0.004,0.0413 0,0.0625 10e-4,0.0473 0.0118,0.11045 0,0.15625 l 0,0.40625 -0.40625,0 c -0.0311,0.003 -0.0627,0.003 -0.0937,0 l -2,0 -0.5,0 0,-3 0.40625,0 c 0.0362,-0.004 0.0575,-0.004 0.0937,0 0.26179,3e-5 0.49998,0.23822 0.5,0.5 l 0,0.71875 c -10e-5,0.26825 0.005,0.41536 0.0312,0.53125 l 0,-0.4375 c 0.88251,-0.38669 1.5,-1.28471 1.5,-2.3125 0,-1.02778 -0.61749,-1.89455 -1.5,-2.28125 l 0,-1.0625 z" id="path4329-9" fill="#ffffff" color="#000000"/>
 </g>
</svg>
