<?xml version="1.0" encoding="UTF-8" standalone="no"?>
<svg
   xmlns:dc="http://purl.org/dc/elements/1.1/"
   xmlns:cc="http://creativecommons.org/ns#"
   xmlns:rdf="http://www.w3.org/1999/02/22-rdf-syntax-ns#"
   xmlns:svg="http://www.w3.org/2000/svg"
   xmlns="http://www.w3.org/2000/svg"
   id="svg2"
   version="1.1"
   height="24"
   width="24">
  <defs
     id="defs13" />
  <metadata
     id="metadata3401">
    <rdf:RDF>
      <cc:Work
         rdf:about="">
        <dc:format>image/svg+xml</dc:format>
        <dc:type
           rdf:resource="http://purl.org/dc/dcmitype/StillImage" />
      </cc:Work>
    </rdf:RDF>
  </metadata>
  <g
     transform="translate(0,6)"
     id="layer1">
    <path
       stroke-width="2"
       color="#000000"
       opacity="0.2"
       transform="translate(-37,-207)"
       d="m 56,218 a 3,3 0 1 1 -6,0 3,3 0 1 1 6,0 z"
       id="path8968" />
    <path
       stroke-width="4"
       color="#000000"
       opacity="0.2"
       d="m 14,0.375 c -0.38928,0.0194 -0.73289,0.26582 -0.875,0.65625 -0.004,0.0103 -0.0276,0.0211 -0.0312,0.0312 C 11.31677,0.89249 9.62159,1.87057 8.93755,3.74995 8.25172,5.63426 6.86203,9.3906597 5.18755,8.7812 5.076,8.7406 4.95367,8.8074 4.9063,8.93745 l -0.25,0.7187497 1.875,0.6874993 1.875,0.65625 3.75,1.375 0.125,0.0312 c -0.16513,-0.43832 -0.28125,-0.90998 -0.28125,-1.40615 0,-2.209139 1.79086,-3.999999 4,-3.999999 0.0851,0 0.16626,0.026 0.25,0.0312 0.0607,-0.16903 0.13351,-0.38292 0.1875,-0.53125 0.68104,-1.87116 0.0198,-3.76621 -1.4375,-4.78125 0.18948,-0.52059 -0.0732,-1.09177 -0.59375,-1.28125 -0.13015,-0.0474 -0.27649,-0.069 -0.40625,-0.0625 z M 8.34375,12.062499 c 0.12102,0.67925 0.555,1.24704 1.25,1.5 0.695,0.25296 1.43942,0.0988 1.96875,-0.34375 l -3.21875,-1.15625 z"
       id="path8966" />
    <path
       fill="#ffffff"
       stroke-width="4"
       color="#000000"
       opacity="0.25"
       id="path4184"
       d="M 7.40625,1.21875 C 7.26072,1.48317 7.13828,1.76844 7.03125,2.0625 6.77401,2.76928 6.43003,3.68997 6.0625,4.46875 L 6.96875,4.9375 C 7.37755,4.09133 7.74009,3.12036 8,2.40625 8.0967,2.1407 8.21301,1.89231 8.34375,1.65625 c 0.004,-0.008 -0.004,-0.0237 0,-0.0312 L 7.40625,1.2188 z m 9.96875,4.625 c -0.0394,0.1084 -0.0823,0.25684 -0.125,0.375 0.31697,0.10429 0.62982,0.2304 0.90625,0.40625 0.0394,-0.11119 0.0874,-0.23981 0.125,-0.34375 L 17.375,5.84375 z" />
    <path
       stroke-width="4"
       color="#000000"
       fill="#ffffff"
       id="path4188"
       d="m 14,-0.625 c -0.38928,0.0194 -0.73289,0.26582 -0.875,0.65625 -0.004,0.0103 -0.0276,0.0211 -0.0312,0.0312 C 11.31677,-0.1075101 9.62159,0.87057 8.93755,2.74995 8.25172,4.63426 6.86203,8.39066 5.18755,7.7812 5.076,7.7406 4.95367,7.8074 4.9063,7.93745 l -0.25,0.71875 1.875,0.6875 1.875,0.6562492 3.75,1.3749998 0.125,0.0312 C 12.11617,10.967829 12.00005,10.496169 12.00005,9.9999992 12.00005,7.79086 13.79091,6 16.00005,6 c 0.0851,0 0.16626,0.026 0.25,0.0312 0.0607,-0.16903 0.13351,-0.38292 0.1875,-0.53125 0.68104,-1.87116 0.0198,-3.76621 -1.4375,-4.78125 0.18948,-0.52059 -0.0732,-1.09177 -0.59375,-1.28125 -0.13015,-0.0474 -0.27649,-0.069 -0.40625,-0.0625 z M 8.34375,11.062499 c 0.12102,0.67925 0.555,1.24704 1.25,1.5 0.695,0.25296 1.43942,0.0988 1.96875,-0.34375 l -3.21875,-1.15625 z" />
    <path
       stroke-width="2"
       color="#000000"
       fill="#00aafa"
       id="path4190"
       d="m 56,218 a 3,3 0 1 1 -6,0 3,3 0 1 1 6,0 z"
       transform="translate(-37,-208)" />
  </g>
</svg>
