<?xml version="1.0" encoding="UTF-8" standalone="no"?>
<svg
   xmlns:dc="http://purl.org/dc/elements/1.1/"
   xmlns:cc="http://creativecommons.org/ns#"
   xmlns:rdf="http://www.w3.org/1999/02/22-rdf-syntax-ns#"
   xmlns:svg="http://www.w3.org/2000/svg"
   xmlns="http://www.w3.org/2000/svg"
   id="svg2"
   version="1.1"
   height="24"
   width="24">
  <defs
     id="defs10" />
  <metadata
     id="metadata3401">
    <rdf:RDF>
      <cc:Work
         rdf:about="">
        <dc:format>image/svg+xml</dc:format>
        <dc:type
           rdf:resource="http://purl.org/dc/dcmitype/StillImage" />
      </cc:Work>
    </rdf:RDF>
  </metadata>
  <g
     transform="translate(0,6)"
     id="layer1">
    <path
       stroke-width="4"
       color="#000000"
       opacity="0.2"
       d="m 12,0 c -0.554,0 -1,0.446 -1,1 0,0.0109 -3.4e-4,0.0205 0,0.0312 C 9.27201,1.47932 8,3 8,5 8,7.00524 8.00069,11 6.21875,11 6.10004,11 6,11.1115 6,11.25 l 0,0.75 2,0 2,0 4,0 2,0 2,0 0,-0.75 C 18,11.1115 17.89996,11 17.78125,11 15.99234,11 16,7.00488 16,5 16,3 14.72799,1.47932 13,1.03125 c 3.4e-4,-0.0108 0,-0.0205 0,-0.0312 0,-0.554 -0.446,-1 -1,-1 z m -1.71875,13 c 0.34604,0.5969 0.97915,1 1.71875,1 0.7396,0 1.37271,-0.4031 1.71875,-1 l -3.4375,0 z"
       id="path8962" />
    <path
       stroke-width="4"
       color="#000000"
       fill="#ffffff"
       id="path4178"
       d="m 12,-1 c -0.554,0 -1,0.446 -1,1 0,0.0109 -3.4e-4,0.0205 0,0.0312 C 9.27201,0.47932 8,2 8,4 8,6.00524 8.00069,10 6.21875,10 6.10004,10 6,10.1115 6,10.25 l 0,0.75 2,0 2,0 4,0 2,0 2,0 0,-0.75 C 18,10.1115 17.89996,10 17.78125,10 15.99234,10 16,6.00488 16,4 16,2 14.72799,0.47932 13,0.03125 c 3.4e-4,-0.0108 0,-0.0205 0,-0.0312 0,-0.554 -0.446,-1 -1,-1 z m -1.71875,13 c 0.34604,0.5969 0.97915,1 1.71875,1 0.7396,0 1.37271,-0.4031 1.71875,-1 l -3.4375,0 z" />
  </g>
</svg>
