<?xml version="1.0" encoding="UTF-8" standalone="no"?>
<svg
   xmlns:osb="http://www.openswatchbook.org/uri/2009/osb"
   xmlns:dc="http://purl.org/dc/elements/1.1/"
   xmlns:cc="http://creativecommons.org/ns#"
   xmlns:rdf="http://www.w3.org/1999/02/22-rdf-syntax-ns#"
   xmlns:svg="http://www.w3.org/2000/svg"
   xmlns="http://www.w3.org/2000/svg"
   width="24"
   version="1.1"
   style="enable-background:new"
   id="svg7384"
   height="24">
  <metadata
     id="metadata90">
    <rdf:RDF>
      <cc:Work
         rdf:about="">
        <dc:format>image/svg+xml</dc:format>
        <dc:type
           rdf:resource="http://purl.org/dc/dcmitype/StillImage" />
        <dc:title>Moka Symbolic Icon Theme</dc:title>
      </cc:Work>
    </rdf:RDF>
  </metadata>
  <title
     id="title8473">Moka Symbolic Icon Theme</title>
  <defs
     id="defs7386">
    <linearGradient
       osb:paint="solid"
       id="linearGradient5606">
      <stop
         style="stop-color:#000000;stop-opacity:1;"
         offset="0"
         id="stop5608" />
    </linearGradient>
    <filter
       id="filter7554"
       color-interpolation-filters="sRGB">
      <feBlend
         mode="darken"
         in2="BackgroundImage"
         id="feBlend7556" />
    </filter>
  </defs>
  <g
     transform="translate(-465.0004,431.00336)"
     style="display:inline"
     id="layer9">
    <path
       d="m 474.0004,-419.00336 c -0.55228,0 -1,0.44772 -1,1 0,0.55228 0.44772,1 1,1 0.55228,0 1,-0.44772 1,-1 0,-0.55228 -0.44772,-1 -1,-1 z m 3,0 c -0.55228,0 -1,0.44772 -1,1 0,0.55228 0.44772,1 1,1 0.55228,0 1,-0.44772 1,-1 0,-0.55228 -0.44772,-1 -1,-1 z m 3,0 c -0.55228,0 -1,0.44772 -1,1 0,0.55228 0.44772,1 1,1 0.55228,0 1,-0.44772 1,-1 0,-0.55228 -0.44772,-1 -1,-1 z"
       id="path6505"
       style="opacity:0.35;fill:#000000;fill-opacity:1;stroke:none" />
    <path
       style="opacity:0.35;fill:#ffffff;fill-opacity:1;stroke:none"
       id="path5983-7"
       d="m 482.0004,-418.00331 c -0.0961,0 -0.18881,0.018 -0.28125,0.0312 -0.29767,0.49886 -0.80781,0.84404 -1.40625,0.9375 -0.19227,0.31227 -0.3125,0.66733 -0.3125,1.0625 l 0,0.96875 -1,0 0,1 0,2 0,1 1,0 4,0 1,0 0,-1 0,-2 0,-1 -1,0 0,-0.96875 c 0,-1.1199 -0.892,-2.03125 -2,-2.03125 z m 0,1 c 0.554,0 1,0.4424 1,1 l 0,1 -2,0 0,-1 c 0,-0.5576 0.446,-1 1,-1 z" />
    <path
       style="fill:#ffffff;fill-opacity:1;stroke:none"
       id="path9679"
       d="m 474.0004,-420.00336 c -0.55228,0 -1,0.44772 -1,1 0,0.55228 0.44772,1 1,1 0.55228,0 1,-0.44772 1,-1 0,-0.55228 -0.44772,-1 -1,-1 z m 3,0 c -0.55228,0 -1,0.44772 -1,1 0,0.55228 0.44772,1 1,1 0.55228,0 1,-0.44772 1,-1 0,-0.55228 -0.44772,-1 -1,-1 z m 3,0 c -0.55228,0 -1,0.44772 -1,1 0,0.55228 0.44772,1 1,1 0.55228,0 1,-0.44772 1,-1 0,-0.55228 -0.44772,-1 -1,-1 z" />
    <path
       style="opacity:0.35;color:#000000;fill:#ffffff;fill-opacity:1;stroke:none"
       id="path9681"
       d="m 479.0002,-427 c 0.004,0.003 0,1.33333 0,2 l -3,0 0,4 4,0 c 0.67626,0 1.26337,0.33287 1.625,0.84375 l 2.875,-2.34375 -5.5,-4.5 z m -6.96875,8.4375 -2.53125,2.0625 5.5,4.5 c -0.004,-0.003 0,-1.33333 0,-2 l 3,0 0,-2.1875 0,-0.8125 -4,0 c -0.95911,0 -1.7718,-0.6642 -1.96875,-1.5625 z" />
  </g>
  <g
     transform="translate(-465.0004,431.00336)"
     style="display:inline;filter:url(#filter7554)"
     id="layer10" />
  <g
     transform="translate(-224.0002,-185.99664)"
     style="display:inline"
     id="layer1" />
  <g
     transform="translate(-465.0004,431.00336)"
     style="display:inline"
     id="layer14" />
  <g
     transform="translate(-465.0004,431.00336)"
     style="display:inline"
     id="layer15" />
  <g
     transform="translate(-465.0004,431.00336)"
     style="display:inline"
     id="g71291" />
  <g
     transform="translate(-224.0002,-35.996643)"
     style="display:inline"
     id="layer2" />
  <g
     transform="translate(-224.0002,-35.996643)"
     style="display:inline"
     id="g6058" />
  <g
     transform="translate(-465.0004,431.00336)"
     style="display:inline"
     id="layer12" />
</svg>
