<?xml version="1.0" encoding="UTF-8" standalone="no"?>
<svg
   xmlns:osb="http://www.openswatchbook.org/uri/2009/osb"
   xmlns:dc="http://purl.org/dc/elements/1.1/"
   xmlns:cc="http://creativecommons.org/ns#"
   xmlns:rdf="http://www.w3.org/1999/02/22-rdf-syntax-ns#"
   xmlns:svg="http://www.w3.org/2000/svg"
   xmlns="http://www.w3.org/2000/svg"
   xmlns:sodipodi="http://sodipodi.sourceforge.net/DTD/sodipodi-0.dtd"
   xmlns:inkscape="http://www.inkscape.org/namespaces/inkscape"
   height="24"
   version="1.1"
   width="24"
   enable-background="new"
   id="svg3876"
   inkscape:version="0.48.4 r9939"
   sodipodi:docname="network-wireless-hotspot.svg">
  <sodipodi:namedview
     pagecolor="#ffffff"
     bordercolor="#666666"
     borderopacity="1"
     objecttolerance="10"
     gridtolerance="10"
     guidetolerance="10"
     inkscape:pageopacity="0"
     inkscape:pageshadow="2"
     inkscape:window-width="640"
     inkscape:window-height="480"
     id="namedview3886"
     showgrid="false"
     inkscape:zoom="1"
     inkscape:cx="12"
     inkscape:cy="12"
     inkscape:window-x="0"
     inkscape:window-y="28"
     inkscape:window-maximized="0"
     inkscape:current-layer="layer9" />
  <metadata
     id="metadata90">
    <rdf:RDF>
      <cc:Work
         rdf:about="">
        <dc:format>image/svg+xml</dc:format>
        <dc:type
           rdf:resource="http://purl.org/dc/dcmitype/StillImage" />
      </cc:Work>
    </rdf:RDF>
  </metadata>
  <defs
     id="defs7386">
    <linearGradient
       id="linearGradient5606"
       osb:paint="solid">
      <stop
         id="stop5608" />
    </linearGradient>
  </defs>
  <g
     inkscape:groupmode="layer"
     id="layer9"
     inkscape:label="status"
     transform="translate(-421.0002,362)">
    <path
       style="opacity:0.35;color:#000000;fill:#000000;stroke-width:4"
       id="path6489"
       d="m 428.0002,-356 c 0,0 -2,0 -2,2 l 0,10 c 0,0 -9e-5,2 2,2 l 10,0 c 0,0 2,0 2,-2 l 0,-10 c 0,0 -9e-5,-1.88755 -2,-1.90625 l -10,-0.0937 z m 5.03125,3 c 1.70789,0 3.24295,0.55602 4.71875,1.3125 l -3.65625,4.03125 C 433.77896,-347.86418 433.4004,-348 433.0002,-348 c -0.38541,0 -0.7549,0.11844 -1.0625,0.3125 l -3.6875,-3.96875 c 1.492,-0.77095 3.05178,-1.34375 4.78125,-1.34375 z m -0.0312,6 c 0.55228,0 1,0.44772 1,1 0,0.55228 -0.44772,1 -1,1 -0.55228,0 -1,-0.44772 -1,-1 0,-0.55228 0.44772,-1 1,-1 z"
       inkscape:connector-curvature="0" />
    <path
       inkscape:connector-curvature="0"
       d="m 428.0002,-357 c 0,0 -2,0 -2,2 l 0,10 c 0,0 -9e-5,2 2,2 l 10,0 c 0,0 2,0 2,-2 l 0,-10 c 0,0 -9e-5,-1.88755 -2,-1.90625 l -10,-0.0937 z m 5.03125,3 c 1.70789,0 3.24295,0.55602 4.71875,1.3125 l -3.65625,4.03125 C 433.77896,-348.86418 433.4004,-349 433.0002,-349 c -0.38541,0 -0.7549,0.11844 -1.0625,0.3125 l -3.6875,-3.96875 c 1.492,-0.77095 3.05178,-1.34375 4.78125,-1.34375 z m -0.0312,6 c 0.55228,0 1,0.44772 1,1 0,0.55228 -0.44772,1 -1,1 -0.55228,0 -1,-0.44772 -1,-1 0,-0.55228 0.44772,-1 1,-1 z"
       id="rect12924"
       style="color:#000000;fill:#ffffff;stroke-width:4" />
  </g>
</svg>
