<?xml version="1.0" encoding="UTF-8" standalone="no"?>
<svg xmlns="http://www.w3.org/2000/svg" xmlns:sodipodi="http://sodipodi.sourceforge.net/DTD/sodipodi-0.dtd" xmlns:inkscape="http://www.inkscape.org/namespaces/inkscape" height="24" version="1.1" width="24" enable-background="new">
 <metadata id="metadata90"/>
 <defs id="defs7386">
  <linearGradient id="linearGradient5606" osb:paint="solid">
   <stop id="stop5608"/>
  </linearGradient>
  <filter inkscape:collect="always" color-interpolation-filters="sRGB" id="filter7554">
   <feBlend inkscape:collect="always" id="feBlend7556" in2="BackgroundImage" mode="darken"/>
  </filter>
 </defs>
 <g inkscape:groupmode="layer" id="layer12" inkscape:label="actions" transform="translate(-443.00018,411)">
  <path sodipodi:nodetypes="ccccccccccccccccccccccccccc" inkscape:connector-curvature="0" id="path3785" d="m 457.00018,-405.5315 0,1.03125 0,1.5 -2.5,0 -0.5,0 0,1 0.5,0 3,0 0.5,0 0,-0.5 0,-0.96875 3.71875,2.96875 -3.71875,2.96875 0,-0.96875 0,-0.5 -0.5,0 -2.5,0 0,1 2,0 0,1.5 0,1.03125 0.8125,-0.65625 5,-4 0.5,-0.375 -0.5,-0.375 -5,-4 z" opacity="0.2" color="#000000"/>
  <path d="M 14,4.46875 14,5.5 14,7 11.5,7 11,7 l 0,1 0.5,0 3,0 L 15,8 15,7.5 15,6.53125 18.71875,9.5 15,12.46875 15,11.5 15,11 l -0.5,0 -2.5,0 0,1 2,0 0,1.5 0,1.03125 0.8125,-0.65625 5,-4 0.5,-0.375 -0.5,-0.375 -5,-4 z" transform="translate(443.00018,-411)" id="path3766" inkscape:connector-curvature="0" sodipodi:nodetypes="ccccccccccccccccccccccccccc" color="#000000" fill="#ffffff"/>
  <path id="path3783" transform="translate(443.00018,-411)" d="M 10,8.46875 9.1875,9.125 l -5,4 -0.5,0.375 0.5,0.375 5,4 L 10,18.53125 10,17.5 10,16 l 2.5,0 0.5,0 0,-1 -0.5,0 -3,0 L 9,15 9,15.5 9,16.46875 5.28125,13.5 9,10.53125 9,11.5 9,12 l 0.5,0 2.50002,0 0,-1 L 10,11 10,9.5 z" inkscape:connector-curvature="0" sodipodi:nodetypes="ccccccccccccccccccccccccccc" opacity="0.35" color="#000000" fill="#ffffff"/>
 </g>
</svg>
