<?xml version="1.0" encoding="UTF-8" standalone="no"?>
<svg
   xmlns:dc="http://purl.org/dc/elements/1.1/"
   xmlns:cc="http://creativecommons.org/ns#"
   xmlns:rdf="http://www.w3.org/1999/02/22-rdf-syntax-ns#"
   xmlns:svg="http://www.w3.org/2000/svg"
   xmlns="http://www.w3.org/2000/svg"
   id="svg2"
   version="1.1"
   height="24"
   width="24">
  <defs
     id="defs12" />
  <metadata
     id="metadata3401">
    <rdf:RDF>
      <cc:Work
         rdf:about="">
        <dc:format>image/svg+xml</dc:format>
        <dc:type
           rdf:resource="http://purl.org/dc/dcmitype/StillImage" />
      </cc:Work>
    </rdf:RDF>
  </metadata>
  <g
     transform="translate(0,8)"
     id="layer1">
    <path
       stroke-width="0"
       color="#bebebe"
       stroke-linecap="round"
       stroke-linejoin="round"
       stroke="#333333"
       opacity="0.2"
       d="m 13,-2 c -0.554,0 -1,0.446 -1,1 l 0,12 c 0,0.554 0.446,1 1,1 l 6,0 c 0.554,0 1,-0.446 1,-1 l 0,-12 c 0,-0.554 -0.446,-1 -1,-1 z m 0,1 6,0 0,7 -6,0 z m 1,8 1,0 0,1 1,0 0,-1 1,0 0,1 1,0 0,-1 1,0 0,1 -1,0 0,1 1,0 0,1 -1,0 0,1 -1,0 0,-1 -1,0 0,1 -1,0 0,-1 -1,0 0,1 -1,0 0,-1 1,0 0,-1 -1,0 0,-1 1,0 z m 0,1 0,1 1,0 0,-1 z m 1,1 0,1 1,0 0,-1 z m 1,0 1,0 0,-1 -1,0 z m 1,0 0,1 1,0 0,-1 z"
       id="path4017" />
    <path
       stroke-width="0"
       color="#bebebe"
       stroke-linecap="round"
       stroke-linejoin="round"
       stroke="#333333"
       opacity="0.2"
       id="path3775"
       d="M 6.5,-3 C 6.223,-3 6,-2.777 6,-2.5 L 6,-2 4.5,-2 C 4.223,-2 4,-1.777 4,-1.5 l 0,14 C 4,12.777 4.223,13 4.5,13 l 6,0 c 0.277,0 0.5,-0.223 0.5,-0.5 l 0,-14 C 11,-1.777 10.777,-2 10.5,-2 L 9,-2 9,-2.5 C 9,-2.777 8.777,-3 8.5,-3 z m -1.5,2 1.5,0 2,0 1.5,0 0,13 -5,0 z" />
    <path
       stroke-width="0"
       color="#bebebe"
       stroke-linecap="round"
       stroke-linejoin="round"
       stroke="#333333"
       fill="#e13f2b"
       d="M 6.5,-4 C 6.223,-4 6,-3.777 6,-3.5 L 6,-3 4.5,-3 C 4.223,-3 4,-2.777 4,-2.5 l 0,14 C 4,11.777 4.223,12 4.5,12 l 6,0 c 0.277,0 0.5,-0.223 0.5,-0.5 l 0,-14 C 11,-2.777 10.777,-3 10.5,-3 L 9,-3 9,-3.5 C 9,-3.777 8.777,-4 8.5,-4 z m -1.5,2 1.5,0 2,0 1.5,0 0,13 -5,0 z"
       id="path2994" />
    <path
       stroke-width="0"
       color="#bebebe"
       stroke-linecap="round"
       stroke-linejoin="round"
       stroke="#333333"
       fill="#ffffff"
       id="path4950"
       d="m 13,-3 c -0.554,0 -1,0.446 -1,1 l 0,12 c 0,0.554 0.446,1 1,1 l 6,0 c 0.554,0 1,-0.446 1,-1 l 0,-12 c 0,-0.554 -0.446,-1 -1,-1 z m 0,1 6,0 0,7 -6,0 z m 1,8 1,0 0,1 1,0 0,-1 1,0 0,1 1,0 0,-1 1,0 0,1 -1,0 0,1 1,0 0,1 -1,0 0,1 -1,0 0,-1 -1,0 0,1 -1,0 0,-1 -1,0 0,1 -1,0 0,-1 1,0 0,-1 -1,0 0,-1 1,0 z m 0,1 0,1 1,0 0,-1 z m 1,1 0,1 1,0 0,-1 z m 1,0 1,0 0,-1 -1,0 z m 1,0 0,1 1,0 0,-1 z" />
  </g>
</svg>
