<?xml version="1.0" encoding="UTF-8" standalone="no"?>
<svg xmlns="http://www.w3.org/2000/svg" xmlns:sodipodi="http://sodipodi.sourceforge.net/DTD/sodipodi-0.dtd" xmlns:inkscape="http://www.inkscape.org/namespaces/inkscape" width="24" height="24" version="1.1">
 <metadata id="metadata3401"/>
 <g id="layer1" inkscape:label="Layer 1" inkscape:groupmode="layer" transform="translate(0,8)">
  <path inkscape:connector-curvature="0" id="path3779" d="m 6.99999,-2 0,3 1,0 1,0 0,-1 6,0 0,1 1,0 1,0 0,-3 -10,0 z m 0,9 0,5 10,0 0,-5 -1,0 -1,0 0,3 -6,0 0,-3 -1,0 -1,0 z" opacity="0.2" fill-rule="evenodd" color="#000000" stroke-width="2"/>
  <path d="m 5.84374,1.99998 c -0.28125,0.0469 -0.84375,0.25 -0.84375,1 l 0,3 c 0,1 0.96875,1 0.96875,1 l 0.0312,-1 12,0 c 0,0 0.008,1 0,1 1.03125,0 1,-1 1,-1 l 0,-3 c 0,0 0,-1 -1,-1 l -12,0 c 0,0 -0.0625,-0.0156 -0.15625,0 z m 1.15625,2 1,0 0,1 -1,0 z" id="path3781" inkscape:connector-curvature="0" sodipodi:nodetypes="cssccccccscccccccc" opacity="0.2"/>
  <path d="m 6.99999,-3 0,3 1,0 1,0 0,-1 6,0 0,1 1,0 1,0 0,-3 -10,0 z m 0,9 0,5 10,0 0,-5 -1,0 -1,0 0,3 -6,0 0,-3 -1,0 -1,0 z" id="path6123-4" inkscape:connector-curvature="0" fill="#ffffff" fill-rule="evenodd" color="#000000" stroke-width="2"/>
  <path sodipodi:nodetypes="cssccccccscccccccc" inkscape:connector-curvature="0" id="path6130-5" d="m 5.84374,0.99998 c -0.28125,0.0469 -0.84375,0.25 -0.84375,1 l 0,3 c 0,1 0.96875,1 0.96875,1 l 0.0312,-1 12,0 c 0,0 0.008,1 0,1 1.03125,0 1,-1 1,-1 l 0,-3 c 0,0 0,-1 -1,-1 l -12,0 c 0,0 -0.0625,-0.0156 -0.15625,0 z m 1.15625,2 1,0 0,1 -1,0 z" fill="#ffffff"/>
 </g>
</svg>
