<?xml version='1.0' encoding='UTF-8' standalone='no'?>
<svg height="24" xmlns:inkscape="http://www.inkscape.org/namespaces/inkscape" xmlns:sodipodi="http://sodipodi.sourceforge.net/DTD/sodipodi-0.dtd" version="1.1" width="24" xmlns="http://www.w3.org/2000/svg">
 <metadata id="metadata90"/>
 <g inkscape:groupmode="layer" id="layer1" inkscape:label="panel" transform="translate(-24.000003,-24)">
  <path inkscape:connector-curvature="0" d="m 30.99857,29 0,6 -1,0 c -1,0 -1,1 -1,1 l 0,5 2,0 0,2 10,0 0,-2 2,0 0,-5 c 0,0 0.108,-1 -1,-1 l -1,0 0,-6 -10,0 z m 1,1 8,0 0,5 -8,0 0,-5 z m -1,7 1,0 0,1 -1,0 0,-1 z m 1,4 8,0 0,1 -8,0 0,-1 z" id="rect2997" fill="#bebebe" color="#000000" stroke-width="4"/>
 </g>
</svg>
