<?xml version="1.0" encoding="UTF-8" standalone="no"?>
<svg xmlns="http://www.w3.org/2000/svg" xmlns:sodipodi="http://sodipodi.sourceforge.net/DTD/sodipodi-0.dtd" xmlns:inkscape="http://www.inkscape.org/namespaces/inkscape" width="24" height="24" version="1.1">
 <metadata id="metadata3401"/>
 <g id="layer1" inkscape:label="Layer 1" inkscape:groupmode="layer" transform="translate(0,8)">
  <path inkscape:connector-curvature="0" d="m 12.000045,-4 c -2.8404,0 -5.14286,2.30914 -5.14286,5.15571 0,1.68789 0.79443,3.16131 2.04106,4.10143 0.57344,0.43406 1.04787,0.99321 1.04787,1.76464 L 10.000015,8 l 4,0 0.0571,-0.97822 c 0.045,-0.77013 0.4722,-1.33058 1.0446,-1.76464 1.2477,-0.94012 2.0411,-2.41354 2.0411,-4.10143 0,-2.84657 -2.3024,-5.15571 -5.14293,-5.15571 z m 0,2.06035 c 1.70331,0 3.0857,1.38947 3.0857,3.09536 0,0.97457 -0.4438,1.87149 -1.22142,2.45571 -1.16023,0.87789 -1.59994,1.85863 -1.76143,2.67429 l -0.20571,0 c -0.16046,-0.81566 -0.60069,-1.7964 -1.76143,-2.67429 -0.77554,-0.58474 -1.22143,-1.48165 -1.22143,-2.45571 0,-1.70589 1.38292,-3.09536 3.08572,-3.09536 z m -2,10.93965 0,1 4,0 0,-1 z m 1,2 0,1 2,0 0,-1 z" id="path4766" sodipodi:nodetypes="sscsccscssscccccssccccccccccc" opacity="0.35" fill="#ffffff"/>
 </g>
</svg>
