<?xml version="1.0" encoding="UTF-8" standalone="no"?>
<!-- Created with Inkscape (http://www.inkscape.org/) -->

<svg
   xmlns:dc="http://purl.org/dc/elements/1.1/"
   xmlns:cc="http://creativecommons.org/ns#"
   xmlns:rdf="http://www.w3.org/1999/02/22-rdf-syntax-ns#"
   xmlns:svg="http://www.w3.org/2000/svg"
   xmlns="http://www.w3.org/2000/svg"
   xmlns:xlink="http://www.w3.org/1999/xlink"
   xmlns:sodipodi="http://sodipodi.sourceforge.net/DTD/sodipodi-0.dtd"
   xmlns:inkscape="http://www.inkscape.org/namespaces/inkscape"
   version="1.1"
   width="48"
   height="48"
   id="svg3759"
   inkscape:version="0.48.4 r9939"
   sodipodi:docname="document-properties.svg"
   inkscape:export-filename="/home/sam/faba-internet-mail.png"
   inkscape:export-xdpi="90"
   inkscape:export-ydpi="90">
  <sodipodi:namedview
     pagecolor="#ffffff"
     bordercolor="#666666"
     borderopacity="1"
     objecttolerance="10"
     gridtolerance="10"
     guidetolerance="10"
     inkscape:pageopacity="0"
     inkscape:pageshadow="2"
     inkscape:window-width="1364"
     inkscape:window-height="701"
     id="namedview36"
     showgrid="false"
     showborder="false"
     inkscape:zoom="1"
     inkscape:cx="45.372583"
     inkscape:cy="4.125392"
     inkscape:window-x="0"
     inkscape:window-y="28"
     inkscape:window-maximized="1"
     inkscape:current-layer="layer2"
     inkscape:snap-bbox="true"
     inkscape:bbox-paths="true"
     inkscape:bbox-nodes="true"
     inkscape:snap-bbox-edge-midpoints="true"
     inkscape:snap-bbox-midpoints="true"
     showguides="true"
     inkscape:guide-bbox="true"
     inkscape:showpageshadow="true">
    <inkscape:grid
       type="xygrid"
       id="grid3818"
       empspacing="4"
       visible="true"
       enabled="true"
       snapvisiblegridlinesonly="true" />
  </sodipodi:namedview>
  <metadata
     id="metadata37">
    <rdf:RDF>
      <cc:Work
         rdf:about="">
        <dc:format>image/svg+xml</dc:format>
        <dc:type
           rdf:resource="http://purl.org/dc/dcmitype/StillImage" />
        <dc:title />
      </cc:Work>
    </rdf:RDF>
  </metadata>
  <defs
     id="defs3761">
    <linearGradient
       id="linearGradient4520">
      <stop
         id="stop4522"
         offset="0"
         style="stop-color:#571746;stop-opacity:1;" />
      <stop
         style="stop-color:#8a2c48;stop-opacity:1;"
         offset="0.36206895"
         id="stop4524" />
      <stop
         id="stop4526"
         offset="1"
         style="stop-color:#af5c25;stop-opacity:1;" />
    </linearGradient>
    <linearGradient
       inkscape:collect="always"
       id="linearGradient4125">
      <stop
         style="stop-color:#000000;stop-opacity:1;"
         offset="0"
         id="stop4127" />
      <stop
         style="stop-color:#000000;stop-opacity:0;"
         offset="1"
         id="stop4129" />
    </linearGradient>
    <linearGradient
       id="linearGradient3810">
      <stop
         style="stop-color:#4cc7e0;stop-opacity:1;"
         offset="0"
         id="stop3812" />
      <stop
         style="stop-color:#2061be;stop-opacity:1;"
         offset="1"
         id="stop3814" />
    </linearGradient>
    <linearGradient
       id="linearGradient4873">
      <stop
         id="stop4875"
         style="stop-color:#ffffff;stop-opacity:1"
         offset="0" />
      <stop
         id="stop4877"
         style="stop-color:#ffffff;stop-opacity:0"
         offset="1" />
    </linearGradient>
    <linearGradient
       inkscape:collect="always"
       xlink:href="#linearGradient4873"
       id="linearGradient3017"
       gradientUnits="userSpaceOnUse"
       gradientTransform="matrix(2.1153734,0,0,2.1153252,-107.57708,31.426557)"
       x1="62.200409"
       y1="-12.489107"
       x2="62.200409"
       y2="-1.4615115" />
    <linearGradient
       inkscape:collect="always"
       xlink:href="#linearGradient3810"
       id="linearGradient3816"
       x1="4.5000031"
       y1="24"
       x2="43.500003"
       y2="24"
       gradientUnits="userSpaceOnUse"
       gradientTransform="matrix(0,1,-1,0,48.000003,-3e-6)" />
    <linearGradient
       inkscape:collect="always"
       xlink:href="#linearGradient3988"
       id="linearGradient3965"
       gradientUnits="userSpaceOnUse"
       x1="287.72006"
       y1="116.2613"
       x2="287.72006"
       y2="31.772648" />
    <linearGradient
       id="linearGradient3988">
      <stop
         style="stop-color:#eeeeec;stop-opacity:1;"
         offset="0"
         id="stop3990" />
      <stop
         style="stop-color:#ffffff;stop-opacity:1;"
         offset="1"
         id="stop3992" />
    </linearGradient>
    <linearGradient
       inkscape:collect="always"
       xlink:href="#linearGradient3810"
       id="linearGradient3882"
       gradientUnits="userSpaceOnUse"
       gradientTransform="matrix(0,1,-1,0,48.000003,-3e-6)"
       x1="4.5000031"
       y1="24"
       x2="43.500003"
       y2="24" />
    <radialGradient
       inkscape:collect="always"
       xlink:href="#linearGradient26113-9-3-1"
       id="radialGradient3755"
       gradientUnits="userSpaceOnUse"
       gradientTransform="matrix(1,0,0,0.37,0,24.5124)"
       cx="24.849752"
       cy="38.908627"
       fx="24.849752"
       fy="38.908627"
       r="20.203051" />
    <linearGradient
       inkscape:collect="always"
       id="linearGradient26113-9-3-1">
      <stop
         style="stop-color: rgb(0, 0, 0); stop-opacity: 1;"
         offset="0"
         id="stop26115-7-7-9" />
      <stop
         style="stop-color: rgb(0, 0, 0); stop-opacity: 0;"
         offset="1"
         id="stop26117-3-7-8" />
    </linearGradient>
    <linearGradient
       inkscape:collect="always"
       id="linearGradient26121-3-8-2">
      <stop
         style="stop-color: rgb(0, 0, 0); stop-opacity: 1;"
         offset="0"
         id="stop26123-4-7-8" />
      <stop
         style="stop-color: rgb(0, 0, 0); stop-opacity: 0;"
         offset="1"
         id="stop26125-3-9-9" />
    </linearGradient>
    <radialGradient
       r="20.203051"
       fy="38.908627"
       fx="24.849752"
       cy="38.908627"
       cx="24.849752"
       gradientTransform="matrix(1.00851,0,0,0.373148,-0.211403,24.39)"
       gradientUnits="userSpaceOnUse"
       id="radialGradient4274"
       xlink:href="#linearGradient26121-3-8-2"
       inkscape:collect="always" />
    <linearGradient
       inkscape:collect="always"
       xlink:href="#linearGradient4134"
       id="linearGradient4140"
       x1="789"
       y1="256"
       x2="827"
       y2="256"
       gradientUnits="userSpaceOnUse" />
    <linearGradient
       inkscape:collect="always"
       id="linearGradient4134">
      <stop
         style="stop-color:#ffffff;stop-opacity:1;"
         offset="0"
         id="stop4136" />
      <stop
         style="stop-color:#ffffff;stop-opacity:0;"
         offset="1"
         id="stop4138" />
    </linearGradient>
    <clipPath
       clipPathUnits="userSpaceOnUse"
       id="clipPath4130">
      <path
         id="path4132"
         d="M 790.4375,237 C 789.62555,237 789,237.62555 789,238.4375 l 0,35.09375 c 0,0.812 0.62555,1.46875 1.4375,1.46875 l 35.125,0 c 0.81195,0 1.4375,-0.65675 1.4375,-1.46875 l 0,-35.09375 C 827,237.62555 826.37445,237 825.5625,237 l -35.125,0 z"
         style="fill:#ba2222;fill-opacity:1;stroke:none"
         inkscape:connector-curvature="0" />
    </clipPath>
    <linearGradient
       inkscape:collect="always"
       xlink:href="#linearGradient5618"
       id="linearGradient4083"
       x1="-1023.8622"
       y1="-808"
       x2="-984.86218"
       y2="-808"
       gradientUnits="userSpaceOnUse"
       gradientTransform="translate(980.3622,784)" />
    <linearGradient
       id="linearGradient5618">
      <stop
         style="stop-color:#3e3e3e;stop-opacity:1;"
         offset="0"
         id="stop5620" />
      <stop
         style="stop-color:#595959;stop-opacity:1;"
         offset="1"
         id="stop5622" />
    </linearGradient>
    <linearGradient
       id="linearGradient4094">
      <stop
         style="stop-color:#e28192;stop-opacity:1;"
         offset="0"
         id="stop4096" />
      <stop
         id="stop4317"
         offset="0.25862068"
         style="stop-color:#f7d6c7;stop-opacity:1;" />
      <stop
         style="stop-color:#fffee4;stop-opacity:1;"
         offset="1"
         id="stop4098" />
    </linearGradient>
    <clipPath
       clipPathUnits="userSpaceOnUse"
       id="clipPath14228">
      <rect
         style="color:#bebebe;fill:url(#linearGradient14232);fill-opacity:1;fill-rule:nonzero;stroke:none;stroke-width:0;marker:none;visibility:visible;display:inline;overflow:visible;enable-background:accumulate"
         id="rect14230"
         width="32"
         height="42"
         x="312"
         y="231"
         ry="0" />
    </clipPath>
    <clipPath
       clipPathUnits="userSpaceOnUse"
       id="clipPath3449">
      <rect
         style="color:#bebebe;fill:url(#linearGradient14232);fill-opacity:1;fill-rule:nonzero;stroke:none;stroke-width:0;marker:none;visibility:visible;display:inline;overflow:visible;enable-background:accumulate"
         id="rect3451"
         width="32"
         height="42"
         x="312"
         y="231"
         ry="0" />
    </clipPath>
    <linearGradient
       inkscape:collect="always"
       xlink:href="#linearGradient3988-5"
       id="linearGradient4030"
       x1="304.00003"
       y1="228"
       x2="352.00003"
       y2="228"
       gradientUnits="userSpaceOnUse" />
    <linearGradient
       id="linearGradient3988-5">
      <stop
         style="stop-color:#ededed;stop-opacity:1;"
         offset="0"
         id="stop3990-5" />
      <stop
         style="stop-color:#ffffff;stop-opacity:1;"
         offset="1"
         id="stop3992-0" />
    </linearGradient>
    <clipPath
       clipPathUnits="userSpaceOnUse"
       id="clipPath3457">
      <rect
         style="color:#bebebe;fill:url(#linearGradient14232);fill-opacity:1;fill-rule:nonzero;stroke:none;stroke-width:0;marker:none;visibility:visible;display:inline;overflow:visible;enable-background:accumulate"
         id="rect3459"
         width="32"
         height="42"
         x="312"
         y="231"
         ry="0" />
    </clipPath>
    <clipPath
       clipPathUnits="userSpaceOnUse"
       id="clipPath3461">
      <rect
         style="color:#bebebe;fill:url(#linearGradient14232);fill-opacity:1;fill-rule:nonzero;stroke:none;stroke-width:0;marker:none;visibility:visible;display:inline;overflow:visible;enable-background:accumulate"
         id="rect3463"
         width="32"
         height="42"
         x="312"
         y="231"
         ry="0" />
    </clipPath>
    <linearGradient
       id="outerBackgroundGradient">
      <stop
         style="stop-color:#8c166c;stop-opacity:1;"
         offset="0"
         id="stop3864-8-6" />
      <stop
         id="stop4409"
         offset="0.36206895"
         style="stop-color:#ca3561;stop-opacity:1;" />
      <stop
         style="stop-color:#f38f4e;stop-opacity:1;"
         offset="1"
         id="stop3866-9-1" />
    </linearGradient>
    <linearGradient
       inkscape:collect="always"
       xlink:href="#linearGradient3988-5"
       id="linearGradient3947"
       gradientUnits="userSpaceOnUse"
       gradientTransform="matrix(0,-0.175,0.175,0,-4.0000326,48.20002)"
       x1="144.00006"
       y1="280.00018"
       x2="144.00006"
       y2="40.000172" />
    <linearGradient
       inkscape:collect="always"
       xlink:href="#outerBackgroundGradient"
       id="linearGradient3949"
       gradientUnits="userSpaceOnUse"
       gradientTransform="matrix(0,-0.175,0.175,0,-4.0000326,1.2000199)"
       x1="144.00006"
       y1="280.00018"
       x2="144.00006"
       y2="40.000172" />
    <linearGradient
       inkscape:collect="always"
       xlink:href="#linearGradient4094"
       id="linearGradient3951"
       gradientUnits="userSpaceOnUse"
       x1="324"
       y1="260"
       x2="332"
       y2="260" />
    <linearGradient
       inkscape:collect="always"
       xlink:href="#linearGradient3988-5"
       id="linearGradient4117"
       gradientUnits="userSpaceOnUse"
       gradientTransform="matrix(0,-0.175,0.175,0,-4.0000326,48.20002)"
       x1="144.00006"
       y1="280.00018"
       x2="144.00006"
       y2="40.000172" />
    <radialGradient
       inkscape:collect="always"
       xlink:href="#linearGradient4125"
       id="radialGradient4131"
       cx="23.5"
       cy="40"
       fx="23.5"
       fy="40"
       r="20.5"
       gradientTransform="matrix(1,0,0,0.09756098,0,36.097561)"
       gradientUnits="userSpaceOnUse" />
    <radialGradient
       cx="4.9929786"
       cy="43.5"
       fx="4.9929786"
       fy="43.5"
       gradientTransform="matrix(2.003784,0,0,1.4,27.98813,-17.4)"
       gradientUnits="userSpaceOnUse"
       id="radialGradient9116"
       inkscape:collect="always"
       r="2.5"
       xlink:href="#linearGradient3688" />
    <linearGradient
       id="linearGradient3688"
       inkscape:collect="always">
      <stop
         id="stop3690"
         offset="0"
         style="stop-color:black;stop-opacity:1;" />
      <stop
         id="stop3692"
         offset="1"
         style="stop-color:black;stop-opacity:0;" />
    </linearGradient>
    <radialGradient
       cx="4.9929786"
       cy="43.5"
       fx="4.9929786"
       fy="43.5"
       gradientTransform="matrix(2.003784,0,0,1.4,-20.01187,-104.4)"
       gradientUnits="userSpaceOnUse"
       id="radialGradient9118"
       inkscape:collect="always"
       r="2.5"
       xlink:href="#linearGradient3688" />
    <linearGradient
       gradientUnits="userSpaceOnUse"
       id="linearGradient9120"
       inkscape:collect="always"
       x1="25.058096"
       x2="25.058096"
       xlink:href="#linearGradient3702"
       y1="47.027729"
       y2="39.999443" />
    <linearGradient
       id="linearGradient3702">
      <stop
         id="stop3704"
         offset="0"
         style="stop-color:black;stop-opacity:0;" />
      <stop
         id="stop3710"
         offset="0.5"
         style="stop-color:black;stop-opacity:1;" />
      <stop
         id="stop3706"
         offset="1"
         style="stop-color:black;stop-opacity:0;" />
    </linearGradient>
    <linearGradient
       gradientTransform="translate(80.00001,-0.0389932)"
       gradientUnits="userSpaceOnUse"
       id="linearGradient9122"
       inkscape:collect="always"
       x1="-21.478369"
       x2="-21.478369"
       xlink:href="#linearGradient6394"
       y1="-0.80551612"
       y2="18.005089" />
    <linearGradient
       id="linearGradient6394"
       inkscape:collect="always">
      <stop
         id="stop6396"
         offset="0"
         style="stop-color:#729fcf;stop-opacity:1" />
      <stop
         id="stop6398"
         offset="1"
         style="stop-color:#ffffff;stop-opacity:1" />
    </linearGradient>
    <linearGradient
       gradientTransform="matrix(1,0,0,2,80.00001,-17.038994)"
       gradientUnits="userSpaceOnUse"
       id="linearGradient9124"
       inkscape:collect="always"
       x1="-21.03125"
       x2="-21.03125"
       xlink:href="#linearGradient6754"
       y1="16.187811"
       y2="14.13769" />
    <linearGradient
       id="linearGradient6754"
       inkscape:collect="always">
      <stop
         id="stop6756"
         offset="0"
         style="stop-color:#729fcf;stop-opacity:1" />
      <stop
         id="stop6758"
         offset="1"
         style="stop-color:#729fcf;stop-opacity:0" />
    </linearGradient>
    <radialGradient
       cx="-16.48411"
       cy="16.06098"
       fx="-16.48411"
       fy="16.06098"
       gradientTransform="matrix(1.4386863,0,0,1.1876132,7.181008,-2.926052)"
       gradientUnits="userSpaceOnUse"
       id="radialGradient9126"
       inkscape:collect="always"
       r="9"
       xlink:href="#linearGradient6794" />
    <linearGradient
       id="linearGradient6794"
       inkscape:collect="always">
      <stop
         id="stop6796"
         offset="0"
         style="stop-color:#ffffff;stop-opacity:1;" />
      <stop
         id="stop6798"
         offset="1"
         style="stop-color:#ffffff;stop-opacity:0;" />
    </linearGradient>
    <radialGradient
       inkscape:collect="always"
       xlink:href="#linearGradient6794"
       id="radialGradient4420"
       gradientUnits="userSpaceOnUse"
       gradientTransform="matrix(1.4386863,0,0,1.1876132,7.181008,-2.926052)"
       cx="-16.48411"
       cy="16.06098"
       fx="-16.48411"
       fy="16.06098"
       r="9" />
    <radialGradient
       inkscape:collect="always"
       xlink:href="#linearGradient3688"
       id="radialGradient4438"
       gradientUnits="userSpaceOnUse"
       gradientTransform="matrix(2.003784,0,0,1.4,27.98813,-17.4)"
       cx="4.9929786"
       cy="43.5"
       fx="4.9929786"
       fy="43.5"
       r="2.5" />
    <radialGradient
       inkscape:collect="always"
       xlink:href="#linearGradient3688"
       id="radialGradient4440"
       gradientUnits="userSpaceOnUse"
       gradientTransform="matrix(2.003784,0,0,1.4,-20.01187,-104.4)"
       cx="4.9929786"
       cy="43.5"
       fx="4.9929786"
       fy="43.5"
       r="2.5" />
    <linearGradient
       inkscape:collect="always"
       xlink:href="#linearGradient3702"
       id="linearGradient4442"
       gradientUnits="userSpaceOnUse"
       x1="25.058096"
       y1="47.027729"
       x2="25.058096"
       y2="39.999443" />
    <linearGradient
       inkscape:collect="always"
       xlink:href="#linearGradient6394"
       id="linearGradient4444"
       gradientUnits="userSpaceOnUse"
       gradientTransform="translate(80.00001,-0.0389932)"
       x1="-21.478369"
       y1="-0.80551612"
       x2="-21.478369"
       y2="18.005089" />
    <linearGradient
       inkscape:collect="always"
       xlink:href="#linearGradient6754"
       id="linearGradient4446"
       gradientUnits="userSpaceOnUse"
       gradientTransform="matrix(1,0,0,2,80.00001,-17.038994)"
       x1="-21.03125"
       y1="16.187811"
       x2="-21.03125"
       y2="14.13769" />
    <radialGradient
       inkscape:collect="always"
       xlink:href="#linearGradient6794"
       id="radialGradient4448"
       gradientUnits="userSpaceOnUse"
       gradientTransform="matrix(1.4386863,0,0,1.1876132,7.181008,-2.926052)"
       cx="-16.48411"
       cy="16.06098"
       fx="-16.48411"
       fy="16.06098"
       r="9" />
    <linearGradient
       inkscape:collect="always"
       xlink:href="#linearGradient6754"
       id="linearGradient4458"
       gradientUnits="userSpaceOnUse"
       gradientTransform="matrix(1,0,0,2,47.965462,11.645619)"
       x1="-21.03125"
       y1="16.187811"
       x2="-21.03125"
       y2="14.13769" />
    <linearGradient
       inkscape:collect="always"
       xlink:href="#outerBackgroundGradient-9"
       id="linearGradient4462"
       gradientUnits="userSpaceOnUse"
       gradientTransform="matrix(1.0769229,0,0,1.0769229,55.461537,22.120194)"
       x1="-21.478369"
       y1="-0.80551612"
       x2="-21.478369"
       y2="18.005089" />
    <linearGradient
       inkscape:collect="always"
       xlink:href="#outerBackgroundGradient-9"
       id="linearGradient3123"
       gradientUnits="userSpaceOnUse"
       gradientTransform="matrix(0,-0.175,0.175,0,-5.0000326,-0.7999801)"
       x1="144.00006"
       y1="280.00018"
       x2="144.00006"
       y2="40.000172" />
    <linearGradient
       id="outerBackgroundGradient-9">
      <stop
         style="stop-color:#8c166c;stop-opacity:1;"
         offset="0"
         id="stop3864-8-6-6" />
      <stop
         id="stop4409-9"
         offset="0.36206895"
         style="stop-color:#ca3561;stop-opacity:1;" />
      <stop
         style="stop-color:#f38f4e;stop-opacity:1;"
         offset="1"
         id="stop3866-9-1-1" />
    </linearGradient>
    <linearGradient
       inkscape:collect="always"
       xlink:href="#linearGradient4094-8"
       id="linearGradient3117"
       gradientUnits="userSpaceOnUse"
       x1="324"
       y1="260"
       x2="332"
       y2="260"
       gradientTransform="matrix(0,-1,1,0,-208.375,365.12502)" />
    <linearGradient
       id="linearGradient4094-8">
      <stop
         style="stop-color:#e28192;stop-opacity:1;"
         offset="0"
         id="stop4096-0" />
      <stop
         id="stop4317-3"
         offset="0.25862068"
         style="stop-color:#f7d6c7;stop-opacity:1;" />
      <stop
         style="stop-color:#fffee4;stop-opacity:1;"
         offset="1"
         id="stop4098-7" />
    </linearGradient>
    <linearGradient
       y2="40.000172"
       x2="144.00006"
       y1="280.00018"
       x1="144.00006"
       gradientTransform="matrix(0,-0.175,0.175,0,5.124967,-36.42498)"
       gradientUnits="userSpaceOnUse"
       id="linearGradient3157"
       xlink:href="#outerBackgroundGradient-9"
       inkscape:collect="always" />
    <linearGradient
       inkscape:collect="always"
       xlink:href="#linearGradient4094-8"
       id="linearGradient4537"
       gradientUnits="userSpaceOnUse"
       gradientTransform="matrix(0,-1,1,0,-208.375,365.12502)"
       x1="324"
       y1="260"
       x2="332"
       y2="260" />
    <radialGradient
       inkscape:collect="always"
       xlink:href="#linearGradient3688"
       id="radialGradient4539"
       gradientUnits="userSpaceOnUse"
       gradientTransform="matrix(2.003784,0,0,1.4,27.98813,-17.4)"
       cx="4.9929786"
       cy="43.5"
       fx="4.9929786"
       fy="43.5"
       r="2.5" />
    <radialGradient
       inkscape:collect="always"
       xlink:href="#linearGradient3688"
       id="radialGradient4541"
       gradientUnits="userSpaceOnUse"
       gradientTransform="matrix(2.003784,0,0,1.4,-20.01187,-104.4)"
       cx="4.9929786"
       cy="43.5"
       fx="4.9929786"
       fy="43.5"
       r="2.5" />
    <linearGradient
       inkscape:collect="always"
       xlink:href="#linearGradient3702"
       id="linearGradient4543"
       gradientUnits="userSpaceOnUse"
       x1="25.058096"
       y1="47.027729"
       x2="25.058096"
       y2="39.999443" />
    <clipPath
       clipPathUnits="userSpaceOnUse"
       id="clipPath4552">
      <rect
         style="opacity:0.2;fill:#000000;fill-opacity:1;stroke:none"
         id="rect4554"
         width="21.097717"
         height="21.097717"
         x="42.891773"
         y="24.010498"
         rx="0" />
    </clipPath>
    <radialGradient
       inkscape:collect="always"
       xlink:href="#linearGradient3688"
       id="radialGradient4798"
       gradientUnits="userSpaceOnUse"
       gradientTransform="matrix(2.003784,0,0,1.4,27.98813,-17.4)"
       cx="4.9929786"
       cy="43.5"
       fx="4.9929786"
       fy="43.5"
       r="2.5" />
    <radialGradient
       inkscape:collect="always"
       xlink:href="#linearGradient3688"
       id="radialGradient4800"
       gradientUnits="userSpaceOnUse"
       gradientTransform="matrix(2.003784,0,0,1.4,-20.01187,-104.4)"
       cx="4.9929786"
       cy="43.5"
       fx="4.9929786"
       fy="43.5"
       r="2.5" />
    <linearGradient
       inkscape:collect="always"
       xlink:href="#linearGradient3702"
       id="linearGradient4802"
       gradientUnits="userSpaceOnUse"
       x1="25.058096"
       y1="47.027729"
       x2="25.058096"
       y2="39.999443" />
    <linearGradient
       inkscape:collect="always"
       xlink:href="#outerBackgroundGradient-9"
       id="linearGradient4804"
       gradientUnits="userSpaceOnUse"
       gradientTransform="matrix(1.0769229,0,0,1.0769229,55.461537,22.120194)"
       x1="-21.478369"
       y1="-0.80551612"
       x2="-21.478369"
       y2="18.005089" />
    <linearGradient
       inkscape:collect="always"
       xlink:href="#linearGradient4094-8"
       id="linearGradient4806"
       gradientUnits="userSpaceOnUse"
       gradientTransform="matrix(0,-1,1,0,-208.375,365.12502)"
       x1="324"
       y1="260"
       x2="332"
       y2="260" />
    <linearGradient
       inkscape:collect="always"
       xlink:href="#outerBackgroundGradient-9"
       id="linearGradient4820"
       gradientUnits="userSpaceOnUse"
       gradientTransform="matrix(1.0769229,0,0,1.0769229,55.461537,22.120194)"
       x1="-21.478369"
       y1="-0.80551612"
       x2="-21.478369"
       y2="18.005089" />
    <radialGradient
       inkscape:collect="always"
       xlink:href="#linearGradient3688"
       id="radialGradient4847"
       gradientUnits="userSpaceOnUse"
       gradientTransform="matrix(2.003784,0,0,1.4,27.98813,-17.4)"
       cx="4.9929786"
       cy="43.5"
       fx="4.9929786"
       fy="43.5"
       r="2.5" />
    <radialGradient
       inkscape:collect="always"
       xlink:href="#linearGradient3688"
       id="radialGradient4849"
       gradientUnits="userSpaceOnUse"
       gradientTransform="matrix(2.003784,0,0,1.4,-20.01187,-104.4)"
       cx="4.9929786"
       cy="43.5"
       fx="4.9929786"
       fy="43.5"
       r="2.5" />
    <linearGradient
       inkscape:collect="always"
       xlink:href="#linearGradient3702"
       id="linearGradient4851"
       gradientUnits="userSpaceOnUse"
       x1="25.058096"
       y1="47.027729"
       x2="25.058096"
       y2="39.999443" />
    <linearGradient
       inkscape:collect="always"
       xlink:href="#outerBackgroundGradient-9"
       id="linearGradient4853"
       gradientUnits="userSpaceOnUse"
       gradientTransform="matrix(1.0769229,0,0,1.0769229,55.461537,22.120194)"
       x1="-21.478369"
       y1="-0.80551612"
       x2="-21.478369"
       y2="18.005089" />
    <linearGradient
       inkscape:collect="always"
       xlink:href="#linearGradient4094-8"
       id="linearGradient4855"
       gradientUnits="userSpaceOnUse"
       gradientTransform="matrix(0,-1,1,0,-208.375,365.12502)"
       x1="324"
       y1="260"
       x2="332"
       y2="260" />
    <radialGradient
       inkscape:collect="always"
       xlink:href="#linearGradient4125-8"
       id="radialGradient4131-2"
       cx="23.5"
       cy="40"
       fx="23.5"
       fy="40"
       r="20.5"
       gradientTransform="matrix(1,0,0,0.09756098,0,36.097561)"
       gradientUnits="userSpaceOnUse" />
    <linearGradient
       inkscape:collect="always"
       id="linearGradient4125-8">
      <stop
         style="stop-color:#000000;stop-opacity:1;"
         offset="0"
         id="stop4127-8" />
      <stop
         style="stop-color:#000000;stop-opacity:0;"
         offset="1"
         id="stop4129-3" />
    </linearGradient>
    <radialGradient
       r="20.5"
       fy="40"
       fx="23.5"
       cy="40"
       cx="23.5"
       gradientTransform="matrix(1,0,0,0.09756098,0,36.097561)"
       gradientUnits="userSpaceOnUse"
       id="radialGradient4975"
       xlink:href="#linearGradient4125-8"
       inkscape:collect="always" />
    <linearGradient
       inkscape:collect="always"
       xlink:href="#linearGradient3960"
       id="linearGradient3149"
       gradientUnits="userSpaceOnUse"
       x1="25"
       y1="45"
       x2="25"
       y2="42"
       gradientTransform="matrix(1.0571429,0,0,1.6666667,-4.9000011,-31.500001)" />
    <linearGradient
       id="linearGradient3960">
      <stop
         style="stop-color:#000000;stop-opacity:0;"
         offset="0"
         id="stop3962" />
      <stop
         id="stop3970"
         offset="0.5"
         style="stop-color:#000000;stop-opacity:1;" />
      <stop
         style="stop-color:#000000;stop-opacity:0;"
         offset="1"
         id="stop3964" />
    </linearGradient>
    <radialGradient
       inkscape:collect="always"
       xlink:href="#linearGradient3952"
       id="radialGradient3146"
       gradientUnits="userSpaceOnUse"
       gradientTransform="matrix(1.0571429,0,0,1.25,2.0999999,-13.375001)"
       cx="40"
       cy="43.5"
       fx="40"
       fy="43.5"
       r="2" />
    <linearGradient
       inkscape:collect="always"
       id="linearGradient3952">
      <stop
         style="stop-color:#000000;stop-opacity:1;"
         offset="0"
         id="stop3954" />
      <stop
         style="stop-color:#000000;stop-opacity:0;"
         offset="1"
         id="stop3956" />
    </linearGradient>
    <radialGradient
       inkscape:collect="always"
       xlink:href="#linearGradient3944"
       id="radialGradient3143"
       gradientUnits="userSpaceOnUse"
       gradientTransform="matrix(1.0571429,0,0,1.25,-4.9000011,-13.375001)"
       cx="9"
       cy="43.5"
       fx="9"
       fy="43.5"
       r="2" />
    <linearGradient
       inkscape:collect="always"
       id="linearGradient3944">
      <stop
         style="stop-color:#000000;stop-opacity:1;"
         offset="0"
         id="stop3946" />
      <stop
         style="stop-color:#000000;stop-opacity:0;"
         offset="1"
         id="stop3948" />
    </linearGradient>
    <linearGradient
       inkscape:collect="always"
       xlink:href="#linearGradient3960"
       id="linearGradient3158"
       gradientUnits="userSpaceOnUse"
       x1="25"
       y1="45"
       x2="25"
       y2="42"
       gradientTransform="translate(-3.5000011,-2.5000014)" />
    <linearGradient
       id="linearGradient3124">
      <stop
         style="stop-color:#000000;stop-opacity:0;"
         offset="0"
         id="stop3126" />
      <stop
         id="stop3128"
         offset="0.5"
         style="stop-color:#000000;stop-opacity:1;" />
      <stop
         style="stop-color:#000000;stop-opacity:0;"
         offset="1"
         id="stop3130" />
    </linearGradient>
    <radialGradient
       inkscape:collect="always"
       xlink:href="#linearGradient3952"
       id="radialGradient3155"
       gradientUnits="userSpaceOnUse"
       gradientTransform="matrix(1,0,0,0.75,3.4999999,8.3749986)"
       cx="40"
       cy="43.5"
       fx="40"
       fy="43.5"
       r="2" />
    <radialGradient
       inkscape:collect="always"
       xlink:href="#linearGradient3944"
       id="radialGradient3152"
       gradientUnits="userSpaceOnUse"
       gradientTransform="matrix(1,0,0,0.75,-3.5000011,8.3749986)"
       cx="9"
       cy="43.5"
       fx="9"
       fy="43.5"
       r="2" />
    <radialGradient
       r="2"
       fy="43.5"
       fx="9"
       cy="43.5"
       cx="9"
       gradientTransform="matrix(1,0,0,0.75,-3.5000011,8.3749986)"
       gradientUnits="userSpaceOnUse"
       id="radialGradient3153"
       xlink:href="#linearGradient3944"
       inkscape:collect="always" />
    <linearGradient
       id="linearGradient3904">
      <stop
         id="stop3906"
         offset="0"
         style="stop-color:#104b88;stop-opacity:1;" />
      <stop
         id="stop3908"
         offset="1"
         style="stop-color:#0e7398;stop-opacity:1;" />
    </linearGradient>
    <linearGradient
       y2="9"
       x2="12"
       y1="15"
       x1="12"
       gradientTransform="translate(0.5,0.5)"
       gradientUnits="userSpaceOnUse"
       id="linearGradient3059"
       xlink:href="#linearGradient3886"
       inkscape:collect="always" />
    <linearGradient
       inkscape:collect="always"
       id="linearGradient3886">
      <stop
         style="stop-color:#5097e1;stop-opacity:1;"
         offset="0"
         id="stop3888" />
      <stop
         style="stop-color:#53d0ff;stop-opacity:1"
         offset="1"
         id="stop3890" />
    </linearGradient>
    <radialGradient
       cx="24.837126"
       cy="36.421127"
       r="15.644737"
       fx="24.837126"
       fy="36.421127"
       id="radialGradient3870"
       xlink:href="#linearGradient8662-7"
       gradientUnits="userSpaceOnUse"
       gradientTransform="matrix(0.52995454,0,0,-0.35307735,0.487385,37.835677)" />
    <linearGradient
       id="linearGradient8662-7">
      <stop
         id="stop8664-0"
         style="stop-color:#000000;stop-opacity:1"
         offset="0" />
      <stop
         id="stop8666-1"
         style="stop-color:#000000;stop-opacity:0"
         offset="1" />
    </linearGradient>
    <linearGradient
       id="linearGradient8662-7-5">
      <stop
         id="stop8664-0-2"
         style="stop-color:#000000;stop-opacity:1"
         offset="0" />
      <stop
         id="stop8666-1-0"
         style="stop-color:#000000;stop-opacity:0"
         offset="1" />
    </linearGradient>
    <radialGradient
       r="15.644737"
       fy="36.421127"
       fx="24.837126"
       cy="36.421127"
       cx="24.837126"
       gradientTransform="matrix(0.51135407,0,0,-0.34068496,23.299435,53.078208)"
       gradientUnits="userSpaceOnUse"
       id="radialGradient3021-8"
       xlink:href="#linearGradient8662-7-5"
       inkscape:collect="always" />
    <linearGradient
       id="linearGradient4318">
      <stop
         id="stop4320"
         style="stop-color:#000000;stop-opacity:1"
         offset="0" />
      <stop
         id="stop4322"
         style="stop-color:#000000;stop-opacity:0"
         offset="1" />
    </linearGradient>
    <linearGradient
       inkscape:collect="always"
       xlink:href="#linearGradient3886-1"
       id="linearGradient4001-3"
       gradientUnits="userSpaceOnUse"
       gradientTransform="scale(3,3)"
       x1="12"
       y1="15"
       x2="12"
       y2="9" />
    <linearGradient
       inkscape:collect="always"
       id="linearGradient3886-1">
      <stop
         style="stop-color:#5097e1;stop-opacity:1;"
         offset="0"
         id="stop3888-0" />
      <stop
         style="stop-color:#53d0ff;stop-opacity:1"
         offset="1"
         id="stop3890-9" />
    </linearGradient>
    <linearGradient
       inkscape:collect="always"
       xlink:href="#linearGradient3904-5"
       id="linearGradient4015-4"
       x1="26"
       y1="36"
       x2="46"
       y2="36"
       gradientUnits="userSpaceOnUse"
       gradientTransform="matrix(0,-1,1,0,0,72)" />
    <linearGradient
       id="linearGradient3904-5">
      <stop
         id="stop3906-0"
         offset="0"
         style="stop-color:#104b88;stop-opacity:1;" />
      <stop
         id="stop3908-0"
         offset="1"
         style="stop-color:#0e7398;stop-opacity:1;" />
    </linearGradient>
    <radialGradient
       r="15.644737"
       fy="36.421127"
       fx="24.837126"
       cy="36.421127"
       cx="24.837126"
       gradientTransform="matrix(0.57527333,0,0,-0.38327058,21.711864,53.962984)"
       gradientUnits="userSpaceOnUse"
       id="radialGradient4338"
       xlink:href="#linearGradient8662-7-5"
       inkscape:collect="always" />
    <linearGradient
       inkscape:collect="always"
       xlink:href="#linearGradient3960-7"
       id="linearGradient3997"
       gradientUnits="userSpaceOnUse"
       x1="25"
       y1="45"
       x2="25"
       y2="42" />
    <linearGradient
       id="linearGradient3960-7">
      <stop
         style="stop-color:#000000;stop-opacity:0;"
         offset="0"
         id="stop3962-5" />
      <stop
         id="stop3970-2"
         offset="0.5"
         style="stop-color:#000000;stop-opacity:1;" />
      <stop
         style="stop-color:#000000;stop-opacity:0;"
         offset="1"
         id="stop3964-3" />
    </linearGradient>
    <radialGradient
       inkscape:collect="always"
       xlink:href="#linearGradient3952-6"
       id="radialGradient3999"
       gradientUnits="userSpaceOnUse"
       gradientTransform="matrix(1,0,0,0.75,0,10.875)"
       cx="40"
       cy="43.5"
       fx="40"
       fy="43.5"
       r="2" />
    <linearGradient
       inkscape:collect="always"
       id="linearGradient3952-6">
      <stop
         style="stop-color:#000000;stop-opacity:1;"
         offset="0"
         id="stop3954-4" />
      <stop
         style="stop-color:#000000;stop-opacity:0;"
         offset="1"
         id="stop3956-4" />
    </linearGradient>
    <radialGradient
       inkscape:collect="always"
       xlink:href="#linearGradient3944-4"
       id="radialGradient4001"
       gradientUnits="userSpaceOnUse"
       gradientTransform="matrix(1,0,0,0.75,0,10.875)"
       cx="9"
       cy="43.5"
       fx="9"
       fy="43.5"
       r="2" />
    <linearGradient
       inkscape:collect="always"
       id="linearGradient3944-4">
      <stop
         style="stop-color:#000000;stop-opacity:1;"
         offset="0"
         id="stop3946-3" />
      <stop
         style="stop-color:#000000;stop-opacity:0;"
         offset="1"
         id="stop3948-1" />
    </linearGradient>
    <linearGradient
       inkscape:collect="always"
       xlink:href="#linearGradient3960-7"
       id="linearGradient3968"
       x1="25"
       y1="45"
       x2="25"
       y2="42"
       gradientUnits="userSpaceOnUse" />
    <linearGradient
       id="linearGradient3232">
      <stop
         style="stop-color:#000000;stop-opacity:0;"
         offset="0"
         id="stop3234" />
      <stop
         id="stop3236"
         offset="0.5"
         style="stop-color:#000000;stop-opacity:1;" />
      <stop
         style="stop-color:#000000;stop-opacity:0;"
         offset="1"
         id="stop3238" />
    </linearGradient>
    <radialGradient
       inkscape:collect="always"
       xlink:href="#linearGradient3952-6"
       id="radialGradient3958"
       cx="40"
       cy="43.5"
       fx="40"
       fy="43.5"
       r="2"
       gradientTransform="matrix(1,0,0,0.75,0,10.875)"
       gradientUnits="userSpaceOnUse" />
    <radialGradient
       inkscape:collect="always"
       xlink:href="#linearGradient3944-4"
       id="radialGradient3950"
       cx="9"
       cy="43.5"
       fx="9"
       fy="43.5"
       r="2"
       gradientTransform="matrix(1,0,0,0.75,0,10.875)"
       gradientUnits="userSpaceOnUse" />
    <linearGradient
       inkscape:collect="always"
       xlink:href="#linearGradient3988-5-2"
       id="linearGradient3158-9"
       gradientUnits="userSpaceOnUse"
       gradientTransform="matrix(0.175,0,0,0.175,-1.20002,-6.0000326)"
       x1="144.00006"
       y1="280.00018"
       x2="144.00006"
       y2="40.000172" />
    <linearGradient
       id="linearGradient3988-5-2">
      <stop
         style="stop-color:#ededed;stop-opacity:1;"
         offset="0"
         id="stop3990-5-4" />
      <stop
         style="stop-color:#fafafa;stop-opacity:1;"
         offset="1"
         id="stop3992-0-9" />
    </linearGradient>
    <radialGradient
       r="2"
       fy="43.5"
       fx="9"
       cy="43.5"
       cx="9"
       gradientTransform="matrix(1,0,0,0.75,0,10.875)"
       gradientUnits="userSpaceOnUse"
       id="radialGradient3272"
       xlink:href="#linearGradient3944-4"
       inkscape:collect="always" />
    <linearGradient
       y2="11"
       x2="21.5"
       y1="11"
       x1="0.5"
       gradientTransform="matrix(0,-1,-1,0,47,47)"
       gradientUnits="userSpaceOnUse"
       id="linearGradient3956"
       xlink:href="#outerBackgroundGradient-4-3"
       inkscape:collect="always" />
    <linearGradient
       id="outerBackgroundGradient-4-3">
      <stop
         style="stop-color:#f0f0f0;stop-opacity:1;"
         offset="0"
         id="stop3864-8-6-6-4" />
      <stop
         style="stop-color:#f9f9f9;stop-opacity:1;"
         offset="1"
         id="stop3866-9-1-7-8" />
    </linearGradient>
    <linearGradient
       x1="71.204407"
       y1="15.369057"
       x2="71.204407"
       y2="40.495617"
       id="linearGradient3097"
       xlink:href="#linearGradient3812"
       gradientUnits="userSpaceOnUse"
       gradientTransform="matrix(0.77562456,0,0,0.77562491,-19.98157,14.385739)" />
    <linearGradient
       inkscape:collect="always"
       id="linearGradient3812">
      <stop
         style="stop-color:#ffffff;stop-opacity:1;"
         offset="0"
         id="stop3814-3" />
      <stop
         style="stop-color:#ffffff;stop-opacity:0;"
         offset="1"
         id="stop3816" />
    </linearGradient>
    <linearGradient
       y2="11"
       x2="21.5"
       y1="11"
       x1="0.5"
       gradientTransform="matrix(0,-1,-1,0,47,47)"
       gradientUnits="userSpaceOnUse"
       id="linearGradient3173"
       xlink:href="#outerBackgroundGradient-4-3"
       inkscape:collect="always" />
    <linearGradient
       inkscape:collect="always"
       xlink:href="#outerBackgroundGradient-4"
       id="linearGradient3874"
       gradientUnits="userSpaceOnUse"
       gradientTransform="matrix(0,-1.2664031,1.2663965,0,1.8688284,22.131223)"
       x1="0.50000119"
       y1="8"
       x2="15.499999"
       y2="8" />
    <linearGradient
       id="outerBackgroundGradient-4">
      <stop
         style="stop-color:#cfcfcf;stop-opacity:1;"
         offset="0"
         id="stop3864-8-6-6-7" />
      <stop
         style="stop-color:#ebebeb;stop-opacity:1;"
         offset="1"
         id="stop3866-9-1-7" />
    </linearGradient>
    <linearGradient
       inkscape:collect="always"
       xlink:href="#linearGradient7772"
       id="linearGradient7778"
       x1="12"
       y1="24"
       x2="12"
       y2="3"
       gradientUnits="userSpaceOnUse" />
    <linearGradient
       inkscape:collect="always"
       id="linearGradient7772">
      <stop
         style="stop-color:#979797;stop-opacity:1;"
         offset="0"
         id="stop7774" />
      <stop
         style="stop-color:#e3e3e3;stop-opacity:1"
         offset="1"
         id="stop7776" />
    </linearGradient>
    <linearGradient
       inkscape:collect="always"
       xlink:href="#linearGradient7772"
       id="linearGradient7786"
       gradientUnits="userSpaceOnUse"
       x1="12"
       y1="24"
       x2="12"
       y2="3" />
    <linearGradient
       inkscape:collect="always"
       xlink:href="#linearGradient7799"
       id="linearGradient7805"
       x1="12"
       y1="0"
       x2="12"
       y2="24"
       gradientUnits="userSpaceOnUse" />
    <linearGradient
       inkscape:collect="always"
       id="linearGradient7799">
      <stop
         style="stop-color:#ffffff;stop-opacity:1;"
         offset="0"
         id="stop7801" />
      <stop
         style="stop-color:#ffffff;stop-opacity:0;"
         offset="1"
         id="stop7803" />
    </linearGradient>
    <clipPath
       clipPathUnits="userSpaceOnUse"
       id="clipPath7793">
      <path
         id="path7795"
         d="m 11,2 0,1.2871094 0,0.6328125 A 0.50005,0.50005 0 0 1 10.98633,4.0351562 C 10.95871,4.1527902 10.88851,4.3563441 10.732424,4.4863281 10.576333,4.6163171 10.464145,4.6365869 10.33008,4.6855469 9.9753975,4.8150859 9.5736197,4.884376 9.1328125,5.078125 8.7769999,5.234515 8.4986498,5.3806056 8.2851562,5.4941406 8.0716629,5.6076746 8.0048246,5.68867 7.7304688,5.75 7.7079389,5.75504 7.6140951,5.786455 7.4726562,5.765625 7.3312174,5.744795 7.276523,5.7053313 7.21875,5.6757812 7.011639,5.5698552 6.8250211,5.4109584 6.5449219,5.1308594 L 5.6367188,4.2226562 4.9296875,4.9296875 4.2226562,5.6367188 5.1328125,6.546875 5.578125,6.9921875 a 0.50005,0.50005 0 0 1 0.070312,0.089844 C 5.712542,7.1848746 5.8080911,7.3771014 5.7910151,7.5800784 5.7739391,7.7830554 5.7085851,7.8798829 5.648437,8.0097659 5.4885297,8.3550669 5.253834,8.6849108 5.0800776,9.1328128 4.939463,9.4952848 4.8454371,9.7940749 4.7753901,10.025391 c -0.070047,0.231316 -0.05894,0.334338 -0.2109375,0.574218 -0.012432,0.01962 -0.056333,0.110613 -0.171875,0.195313 -0.1155421,0.0847 -0.1793023,0.09364 -0.2402343,0.113281 C 3.9334737,10.978763 3.6863687,11 3.2890625,11 L 2,11 l 0,1 0,1 1.2890625,0 0.6308594,0 a 0.50005,0.50005 0 0 1 0.1152343,0.01367 c 0.1176336,0.02762 0.321188,0.09782 0.4511719,0.253906 0.1299839,0.156091 0.1502563,0.268279 0.1992188,0.402344 0.1295321,0.354673 0.1988291,0.756456 0.3925781,1.197266 0.1564236,0.355888 0.3024834,0.634106 0.4160156,0.847656 0.1135323,0.213549 0.1943537,0.279927 0.2558594,0.554687 0.00482,0.02152 0.037071,0.114924 0.015625,0.257813 -0.021446,0.142889 -0.060718,0.195063 -0.089844,0.251953 -0.1057945,0.206644 -0.264715,0.393622 -0.5449218,0.673828 l -0.9082032,0.910156 0.7070313,0.707031 0.7070313,0.707032 0.9101562,-0.910156 0.4453125,-0.445313 a 0.50005,0.50005 0 0 1 0.089844,-0.07031 c 0.1028433,-0.0641 0.2950694,-0.159654 0.4980469,-0.142578 0.2029776,0.01708 0.2998051,0.08243 0.4296875,0.142578 0.3453023,0.159909 0.6751443,0.394603 1.1230469,0.56836 0.3624714,0.140615 0.6612618,0.23464 0.8925784,0.304687 0.231316,0.07005 0.33434,0.05894 0.574218,0.210938 0.01961,0.01243 0.110603,0.05633 0.195313,0.171875 0.08471,0.115541 0.09364,0.179294 0.113281,0.240234 C 10.978763,20.066518 11,20.313629 11,20.710938 L 11,22 l 1,0 1,0 0,-1.289062 0,-0.63086 a 0.50005,0.50005 0 0 1 0.01367,-0.115234 c 0.02762,-0.117634 0.09782,-0.321188 0.253906,-0.451172 0.156091,-0.129989 0.268279,-0.150259 0.402344,-0.199219 0.35468,-0.129539 0.756457,-0.198829 1.197266,-0.392578 0.355887,-0.156424 0.634106,-0.302483 0.847656,-0.416016 0.213549,-0.113532 0.279927,-0.194349 0.554687,-0.255859 0.02154,-0.0048 0.11493,-0.03708 0.257813,-0.01563 0.142882,0.02145 0.195073,0.06072 0.251953,0.08984 0.206673,0.105801 0.393626,0.264716 0.673828,0.544922 l 0.910156,0.908203 0.707031,-0.707032 0.707032,-0.707031 -0.910156,-0.910156 -0.445313,-0.445313 a 0.50005,0.50005 0 0 1 -0.07031,-0.08984 c -0.06411,-0.102844 -0.159658,-0.29507 -0.142578,-0.498047 0.01708,-0.202977 0.08243,-0.299806 0.142578,-0.429688 0.159909,-0.345301 0.394603,-0.675145 0.56836,-1.123046 0.140615,-0.362472 0.234637,-0.661263 0.304687,-0.892579 0.07005,-0.231316 0.05894,-0.334337 0.210938,-0.574218 0.01243,-0.01961 0.05633,-0.110603 0.171875,-0.195313 0.115541,-0.08471 0.179294,-0.09364 0.240234,-0.113281 C 20.066518,13.021237 20.31363,13 20.710938,13 L 22,13 l 0,-2 -1.289062,0 -0.63086,0 A 0.50005,0.50005 0 0 1 19.964844,10.98633 C 19.84721,10.95871 19.643656,10.888513 19.513672,10.732422 19.383683,10.576331 19.363413,10.464143 19.314453,10.330078 19.184915,9.9753981 19.115624,9.5736205 18.921875,9.1328125 18.765399,8.7768045 18.619341,8.4986392 18.505859,8.2851562 18.392378,8.0716743 18.3116,8.0038818 18.25,7.7304688 18.2459,7.7123328 18.21175,7.6275739 18.23047,7.4824219 18.24919,7.3372699 18.29227,7.2813663 18.32227,7.2226562 18.428295,7.0151432 18.587035,6.827031 18.867192,6.546875 L 19.777344,5.6367188 19.070312,4.9296875 18.363281,4.2226562 17.453125,5.1328125 17.007812,5.578125 a 0.50005,0.50005 0 0 1 -0.08984,0.070312 C 16.815125,5.7125465 16.622899,5.8080956 16.419922,5.7910156 16.216945,5.7739386 16.120116,5.7085875 15.990234,5.6484375 15.644933,5.4885305 15.31509,5.2538351 14.867188,5.0800781 14.504508,4.9393831 14.206168,4.8440075 13.974609,4.7734375 13.743051,4.7028665 13.638996,4.714091 13.400391,4.5625 13.381285,4.55036 13.290198,4.506523 13.205078,4.390625 13.119957,4.274727 13.111467,4.2094875 13.091797,4.1484375 13.021347,3.9297465 13,3.6843524 13,3.2871094 L 13,2 12,2 11,2 z m 1,5 c 2.759989,0 5,2.240011 5,5 0,2.759989 -2.240011,5 -5,5 C 9.2400111,17 7,14.759989 7,12 7,9.240011 9.2400111,7 12,7 z"
         style="fill:url(#linearGradient7797);fill-opacity:1;stroke:none"
         inkscape:connector-curvature="0" />
    </clipPath>
    <linearGradient
       inkscape:collect="always"
       xlink:href="#linearGradient7799"
       id="linearGradient7821"
       gradientUnits="userSpaceOnUse"
       x1="12"
       y1="7"
       x2="12"
       y2="17" />
    <clipPath
       clipPathUnits="userSpaceOnUse"
       id="clipPath3053">
      <path
         id="path3055"
         d="m 11,2 0,1.2871094 0,0.6328125 A 0.50005,0.50005 0 0 1 10.98633,4.0351562 C 10.95871,4.1527902 10.88851,4.3563441 10.732424,4.4863281 10.576333,4.6163171 10.464145,4.6365869 10.33008,4.6855469 9.9753975,4.8150859 9.5736197,4.884376 9.1328125,5.078125 8.7769999,5.234515 8.4986498,5.3806056 8.2851562,5.4941406 8.0716629,5.6076746 8.0048246,5.68867 7.7304688,5.75 7.7079389,5.75504 7.6140951,5.786455 7.4726562,5.765625 7.3312174,5.744795 7.276523,5.7053313 7.21875,5.6757812 7.011639,5.5698552 6.8250211,5.4109584 6.5449219,5.1308594 L 5.6367188,4.2226562 4.9296875,4.9296875 4.2226562,5.6367188 5.1328125,6.546875 5.578125,6.9921875 a 0.50005,0.50005 0 0 1 0.070312,0.089844 C 5.712542,7.1848746 5.8080911,7.3771014 5.7910151,7.5800784 5.7739391,7.7830554 5.7085851,7.8798829 5.648437,8.0097659 5.4885297,8.3550669 5.253834,8.6849108 5.0800776,9.1328128 4.939463,9.4952848 4.8454371,9.7940749 4.7753901,10.025391 c -0.070047,0.231316 -0.05894,0.334338 -0.2109375,0.574218 -0.012432,0.01962 -0.056333,0.110613 -0.171875,0.195313 -0.1155421,0.0847 -0.1793023,0.09364 -0.2402343,0.113281 C 3.9334737,10.978763 3.6863687,11 3.2890625,11 L 2,11 l 0,1 0,1 1.2890625,0 0.6308594,0 a 0.50005,0.50005 0 0 1 0.1152343,0.01367 c 0.1176336,0.02762 0.321188,0.09782 0.4511719,0.253906 0.1299839,0.156091 0.1502563,0.268279 0.1992188,0.402344 0.1295321,0.354673 0.1988291,0.756456 0.3925781,1.197266 0.1564236,0.355888 0.3024834,0.634106 0.4160156,0.847656 0.1135323,0.213549 0.1943537,0.279927 0.2558594,0.554687 0.00482,0.02152 0.037071,0.114924 0.015625,0.257813 -0.021446,0.142889 -0.060718,0.195063 -0.089844,0.251953 -0.1057945,0.206644 -0.264715,0.393622 -0.5449218,0.673828 l -0.9082032,0.910156 0.7070313,0.707031 0.7070313,0.707032 0.9101562,-0.910156 0.4453125,-0.445313 a 0.50005,0.50005 0 0 1 0.089844,-0.07031 c 0.1028433,-0.0641 0.2950694,-0.159654 0.4980469,-0.142578 0.2029776,0.01708 0.2998051,0.08243 0.4296875,0.142578 0.3453023,0.159909 0.6751443,0.394603 1.1230469,0.56836 0.3624714,0.140615 0.6612618,0.23464 0.8925784,0.304687 0.231316,0.07005 0.33434,0.05894 0.574218,0.210938 0.01961,0.01243 0.110603,0.05633 0.195313,0.171875 0.08471,0.115541 0.09364,0.179294 0.113281,0.240234 C 10.978763,20.066518 11,20.313629 11,20.710938 L 11,22 l 1,0 1,0 0,-1.289062 0,-0.63086 a 0.50005,0.50005 0 0 1 0.01367,-0.115234 c 0.02762,-0.117634 0.09782,-0.321188 0.253906,-0.451172 0.156091,-0.129989 0.268279,-0.150259 0.402344,-0.199219 0.35468,-0.129539 0.756457,-0.198829 1.197266,-0.392578 0.355887,-0.156424 0.634106,-0.302483 0.847656,-0.416016 0.213549,-0.113532 0.279927,-0.194349 0.554687,-0.255859 0.02154,-0.0048 0.11493,-0.03708 0.257813,-0.01563 0.142882,0.02145 0.195073,0.06072 0.251953,0.08984 0.206673,0.105801 0.393626,0.264716 0.673828,0.544922 l 0.910156,0.908203 0.707031,-0.707032 0.707032,-0.707031 -0.910156,-0.910156 -0.445313,-0.445313 a 0.50005,0.50005 0 0 1 -0.07031,-0.08984 c -0.06411,-0.102844 -0.159658,-0.29507 -0.142578,-0.498047 0.01708,-0.202977 0.08243,-0.299806 0.142578,-0.429688 0.159909,-0.345301 0.394603,-0.675145 0.56836,-1.123046 0.140615,-0.362472 0.234637,-0.661263 0.304687,-0.892579 0.07005,-0.231316 0.05894,-0.334337 0.210938,-0.574218 0.01243,-0.01961 0.05633,-0.110603 0.171875,-0.195313 0.115541,-0.08471 0.179294,-0.09364 0.240234,-0.113281 C 20.066518,13.021237 20.31363,13 20.710938,13 L 22,13 l 0,-2 -1.289062,0 -0.63086,0 A 0.50005,0.50005 0 0 1 19.964844,10.98633 C 19.84721,10.95871 19.643656,10.888513 19.513672,10.732422 19.383683,10.576331 19.363413,10.464143 19.314453,10.330078 19.184915,9.9753981 19.115624,9.5736205 18.921875,9.1328125 18.765399,8.7768045 18.619341,8.4986392 18.505859,8.2851562 18.392378,8.0716743 18.3116,8.0038818 18.25,7.7304688 18.2459,7.7123328 18.21175,7.6275739 18.23047,7.4824219 18.24919,7.3372699 18.29227,7.2813663 18.32227,7.2226562 18.428295,7.0151432 18.587035,6.827031 18.867192,6.546875 L 19.777344,5.6367188 19.070312,4.9296875 18.363281,4.2226562 17.453125,5.1328125 17.007812,5.578125 a 0.50005,0.50005 0 0 1 -0.08984,0.070312 C 16.815125,5.7125465 16.622899,5.8080956 16.419922,5.7910156 16.216945,5.7739386 16.120116,5.7085875 15.990234,5.6484375 15.644933,5.4885305 15.31509,5.2538351 14.867188,5.0800781 14.504508,4.9393831 14.206168,4.8440075 13.974609,4.7734375 13.743051,4.7028665 13.638996,4.714091 13.400391,4.5625 13.381285,4.55036 13.290198,4.506523 13.205078,4.390625 13.119957,4.274727 13.111467,4.2094875 13.091797,4.1484375 13.021347,3.9297465 13,3.6843524 13,3.2871094 L 13,2 12,2 11,2 z m 1,5 c 2.759989,0 5,2.240011 5,5 0,2.759989 -2.240011,5 -5,5 C 9.2400111,17 7,14.759989 7,12 7,9.240011 9.2400111,7 12,7 z"
         style="fill:url(#linearGradient7797);fill-opacity:1;stroke:none"
         inkscape:connector-curvature="0" />
    </clipPath>
    <linearGradient
       y2="17"
       x2="12"
       y1="7"
       x1="12"
       gradientUnits="userSpaceOnUse"
       id="linearGradient3065"
       xlink:href="#linearGradient7799"
       inkscape:collect="always" />
  </defs>
  <g
     inkscape:groupmode="layer"
     id="layer1"
     inkscape:label="Background">
    <g
       id="g3983"
       transform="matrix(1.0571429,0,0,1.6666667,-1.4000003,-29.000001)"
       style="opacity:0.2">
      <rect
         style="opacity:0.6;fill:url(#linearGradient3997);fill-opacity:1;stroke:none"
         id="rect3985"
         width="31"
         height="3"
         x="9"
         y="42" />
      <path
         style="opacity:0.6;fill:url(#radialGradient3999);fill-opacity:1;stroke:none"
         d="m 40,42 0,3 0.5,0 C 41.331,45 42,44.331 42,43.5 42,42.669 41.331,42 40.5,42 L 40,42 z"
         id="path3987"
         inkscape:connector-curvature="0" />
      <path
         style="opacity:0.6;fill:url(#radialGradient3272);fill-opacity:1;stroke:none"
         d="M 8.40625,42 C 7.6271875,42 7,42.627187 7,43.40625 l 0,0.1875 C 7,44.372813 7.6271875,45 8.40625,45 L 9,45 9,42 8.40625,42 z"
         id="path3989"
         inkscape:connector-curvature="0" />
    </g>
    <g
       transform="translate(-3e-7,-1.2e-6)"
       id="g3978"
       style="opacity:0.2">
      <rect
         y="42"
         x="9"
         height="3"
         width="31"
         id="rect3938"
         style="opacity:0.6;fill:url(#linearGradient3968);fill-opacity:1;stroke:none" />
      <path
         inkscape:connector-curvature="0"
         id="rect3940"
         d="m 40,42 0,3 0.5,0 C 41.331,45 42,44.331 42,43.5 42,42.669 41.331,42 40.5,42 L 40,42 z"
         style="opacity:0.6;fill:url(#radialGradient3958);fill-opacity:1;stroke:none" />
      <path
         inkscape:connector-curvature="0"
         id="rect3942"
         d="M 8.40625,42 C 7.6271875,42 7,42.627187 7,43.40625 l 0,0.1875 C 7,44.372813 7.6271875,45 8.40625,45 L 9,45 9,42 8.40625,42 z"
         style="opacity:0.6;fill:url(#radialGradient3950);fill-opacity:1;stroke:none" />
    </g>
    <g
       id="g4204"
       transform="matrix(0,1,-1,0,48,-1.0000015)">
      <g
         transform="translate(2,-1)"
         id="g4020">
        <rect
           ry="1"
           y="2"
           x="8"
           height="41"
           width="33"
           id="rect3886"
           style="opacity:0.35;color:#bebebe;fill:#000000;fill-opacity:1;fill-rule:nonzero;stroke:none;stroke-width:0;marker:none;visibility:visible;display:inline;overflow:visible;enable-background:accumulate"
           transform="matrix(0,1,1,0,0,0)" />
        <rect
           transform="matrix(0,1,1,0,0,0)"
           style="color:#bebebe;fill:url(#linearGradient3158-9);fill-opacity:1;fill-rule:nonzero;stroke:none;stroke-width:0;marker:none;visibility:visible;display:inline;overflow:visible;enable-background:accumulate"
           id="rect3882"
           width="31"
           height="39"
           x="9"
           y="3"
           ry="0" />
        <path
           id="path3893"
           d="m 3,9 0,31 39,0 0,-31 z m 1,1 37,0 0,29 -37,0 z"
           style="opacity:0.4;fill:#ffffff;fill-opacity:1;stroke:none"
           inkscape:connector-curvature="0"
           sodipodi:nodetypes="cccccccccc" />
        <rect
           style="opacity:0.4;fill:#ffffff;fill-opacity:1;stroke:none"
           id="rect4018"
           width="39"
           height="1"
           x="3"
           y="9" />
      </g>
    </g>
  </g>
  <g
     inkscape:groupmode="layer"
     id="layer2"
     inkscape:label="Symbol"
     style="display:inline">
    <g
       transform="translate(23.999998,-1.000003)"
       id="g3010">
      <path
         style="opacity:0.1;fill:#000000;fill-opacity:1;stroke:#000000;stroke-width:3;stroke-linecap:round;stroke-linejoin:round;stroke-miterlimit:4;stroke-opacity:1;stroke-dasharray:none"
         d="m 10.5,26.5 0,0.5 0,1.287109 0,0.632813 c -0.04317,0.183872 -0.07779,0.200456 -0.341797,0.296875 -0.2728994,0.09967 -0.7271054,0.18477 -1.2265624,0.404297 -0.7444001,0.327186 -1.1679765,0.608757 -1.3105468,0.640625 -0.071285,0.01593 -0.070239,0.02173 -0.1738282,-0.03125 -0.1035892,-0.05298 -0.2891975,-0.193495 -0.5488281,-0.453125 l -1.2617187,-1.261719 -1.0605469,1.060547 -1.0605469,1.060547 1.2636719,1.263672 0.4453125,0.445312 c 0.1005644,0.161334 0.088614,0.19851 -0.029297,0.453125 -0.1219603,0.263359 -0.3845595,0.643309 -0.5820313,1.152344 -0.2943588,0.758788 -0.3930903,1.258371 -0.4707031,1.380859 -0.038806,0.06124 -0.033791,0.06391 -0.1445312,0.09961 C 3.8873073,35.467342 3.6567631,35.5 3.2890625,35.5 L 1.5,35.5 l 0,1.5 0,1.5 1.7890625,0 0.6308594,0 c 0.183872,0.04317 0.2004559,0.07779 0.296875,0.341797 0.099667,0.272899 0.1847704,0.727105 0.4042969,1.226562 0.3272208,0.744479 0.6088709,1.168694 0.640625,1.310547 0.015877,0.07093 0.021704,0.06844 -0.03125,0.171875 -0.052954,0.103433 -0.1934425,0.289146 -0.453125,0.548828 l -1.2617188,1.263672 1.0605469,1.060547 1.0605469,1.060547 1.2636718,-1.263672 0.4453125,-0.445312 c 0.1613344,-0.100565 0.1985101,-0.08861 0.453125,0.0293 0.2633594,0.12196 0.6433087,0.384559 1.1523438,0.582031 0.7587878,0.294359 1.2583711,0.39309 1.3808591,0.470703 0.06124,0.03881 0.06391,0.03379 0.09961,0.144531 0.0357,0.11074 0.06836,0.341284 0.06836,0.708985 l 0,1.789062 1.5,0 1.5,0 0,-1.789062 0,-0.63086 c 0.04317,-0.183872 0.07779,-0.200456 0.341797,-0.296875 0.272899,-0.09967 0.727104,-0.18477 1.226562,-0.404297 0.744479,-0.327221 1.168694,-0.608871 1.310547,-0.640625 0.07093,-0.01588 0.06844,-0.0217 0.171875,0.03125 0.103433,0.05295 0.289146,0.193442 0.548828,0.453125 l 1.263672,1.261719 1.060547,-1.060547 1.060547,-1.060547 -1.263672,-1.263672 -0.445312,-0.445312 c -0.100565,-0.161335 -0.08861,-0.19851 0.0293,-0.453125 0.12196,-0.263359 0.384559,-0.643309 0.582031,-1.152344 0.294359,-0.758788 0.39309,-1.258371 0.470703,-1.380859 0.03881,-0.06124 0.03379,-0.06391 0.144531,-0.09961 0.11074,-0.0357 0.341284,-0.06836 0.708985,-0.06836 l 1.789062,0 0,-3 -1.789062,0 -0.63086,0 c -0.183872,-0.04317 -0.200456,-0.07779 -0.296875,-0.341797 -0.09967,-0.2729 -0.18477,-0.727105 -0.404297,-1.226562 -0.327299,-0.744658 -0.608612,-1.168465 -0.640625,-1.310547 -0.01601,-0.07104 -0.02345,-0.06865 0.0293,-0.171875 0.05274,-0.103223 0.193495,-0.289198 0.453125,-0.548828 l 1.263672,-1.263672 -1.060547,-1.060547 -1.060547,-1.060547 -1.263672,1.263672 -0.445312,0.445312 c -0.161335,0.100565 -0.19851,0.08861 -0.453125,-0.0293 -0.263359,-0.12196 -0.643309,-0.384559 -1.152344,-0.582031 -0.758603,-0.294287 -1.258198,-0.394727 -1.380859,-0.472656 -0.06133,-0.03897 -0.06384,-0.03349 -0.09961,-0.144531 C 13.532587,28.885053 13.5,28.65481 13.5,28.287109 l 0,-1.787109 -1.5,0 -1.5,0 z m 1.5,6 c 2.491204,0 4.5,2.008796 4.5,4.5 0,2.491204 -2.008796,4.5 -4.5,4.5 -2.4912037,0 -4.5,-2.008796 -4.5,-4.5 0,-2.491204 2.0087963,-4.5 4.5,-4.5 z"
         id="path7924"
         inkscape:connector-curvature="0" />
      <path
         inkscape:connector-curvature="0"
         id="path7807"
         d="m 10.5,26.5 0,0.5 0,1.287109 0,0.632813 c -0.04317,0.183872 -0.07779,0.200456 -0.341797,0.296875 -0.2728994,0.09967 -0.7271054,0.18477 -1.2265624,0.404297 -0.7444001,0.327186 -1.1679765,0.608757 -1.3105468,0.640625 -0.071285,0.01593 -0.070239,0.02173 -0.1738282,-0.03125 -0.1035892,-0.05298 -0.2891975,-0.193495 -0.5488281,-0.453125 l -1.2617187,-1.261719 -1.0605469,1.060547 -1.0605469,1.060547 1.2636719,1.263672 0.4453125,0.445312 c 0.1005644,0.161334 0.088614,0.19851 -0.029297,0.453125 -0.1219603,0.263359 -0.3845595,0.643309 -0.5820313,1.152344 -0.2943588,0.758788 -0.3930903,1.258371 -0.4707031,1.380859 -0.038806,0.06124 -0.033791,0.06391 -0.1445312,0.09961 C 3.8873073,35.467342 3.6567631,35.5 3.2890625,35.5 L 1.5,35.5 l 0,1.5 0,1.5 1.7890625,0 0.6308594,0 c 0.183872,0.04317 0.2004559,0.07779 0.296875,0.341797 0.099667,0.272899 0.1847704,0.727105 0.4042969,1.226562 0.3272208,0.744479 0.6088709,1.168694 0.640625,1.310547 0.015877,0.07093 0.021704,0.06844 -0.03125,0.171875 -0.052954,0.103433 -0.1934425,0.289146 -0.453125,0.548828 l -1.2617188,1.263672 1.0605469,1.060547 1.0605469,1.060547 1.2636718,-1.263672 0.4453125,-0.445312 c 0.1613344,-0.100565 0.1985101,-0.08861 0.453125,0.0293 0.2633594,0.12196 0.6433087,0.384559 1.1523438,0.582031 0.7587878,0.294359 1.2583711,0.39309 1.3808591,0.470703 0.06124,0.03881 0.06391,0.03379 0.09961,0.144531 0.0357,0.11074 0.06836,0.341284 0.06836,0.708985 l 0,1.789062 1.5,0 1.5,0 0,-1.789062 0,-0.63086 c 0.04317,-0.183872 0.07779,-0.200456 0.341797,-0.296875 0.272899,-0.09967 0.727104,-0.18477 1.226562,-0.404297 0.744479,-0.327221 1.168694,-0.608871 1.310547,-0.640625 0.07093,-0.01588 0.06844,-0.0217 0.171875,0.03125 0.103433,0.05295 0.289146,0.193442 0.548828,0.453125 l 1.263672,1.261719 1.060547,-1.060547 1.060547,-1.060547 -1.263672,-1.263672 -0.445312,-0.445312 c -0.100565,-0.161335 -0.08861,-0.19851 0.0293,-0.453125 0.12196,-0.263359 0.384559,-0.643309 0.582031,-1.152344 0.294359,-0.758788 0.39309,-1.258371 0.470703,-1.380859 0.03881,-0.06124 0.03379,-0.06391 0.144531,-0.09961 0.11074,-0.0357 0.341284,-0.06836 0.708985,-0.06836 l 1.789062,0 0,-3 -1.789062,0 -0.63086,0 c -0.183872,-0.04317 -0.200456,-0.07779 -0.296875,-0.341797 -0.09967,-0.2729 -0.18477,-0.727105 -0.404297,-1.226562 -0.327299,-0.744658 -0.608612,-1.168465 -0.640625,-1.310547 -0.01601,-0.07104 -0.02345,-0.06865 0.0293,-0.171875 0.05274,-0.103223 0.193495,-0.289198 0.453125,-0.548828 l 1.263672,-1.263672 -1.060547,-1.060547 -1.060547,-1.060547 -1.263672,1.263672 -0.445312,0.445312 c -0.161335,0.100565 -0.19851,0.08861 -0.453125,-0.0293 -0.263359,-0.12196 -0.643309,-0.384559 -1.152344,-0.582031 -0.758603,-0.294287 -1.258198,-0.394727 -1.380859,-0.472656 -0.06133,-0.03897 -0.06384,-0.03349 -0.09961,-0.144531 C 13.532587,28.885053 13.5,28.65481 13.5,28.287109 l 0,-1.787109 -1.5,0 -1.5,0 z m 1.5,6 c 2.491204,0 4.5,2.008796 4.5,4.5 0,2.491204 -2.008796,4.5 -4.5,4.5 -2.4912037,0 -4.5,-2.008796 -4.5,-4.5 0,-2.491204 2.0087963,-4.5 4.5,-4.5 z"
         style="opacity:0.2;fill:#000000;fill-opacity:1;stroke:#000000;stroke-width:1;stroke-linecap:round;stroke-linejoin:round;stroke-miterlimit:4;stroke-opacity:1;stroke-dasharray:none" />
      <path
         inkscape:connector-curvature="0"
         id="circle7735"
         transform="translate(0,24)"
         d="m 10.5,1.5 0,0.5 0,1.2871094 0,0.6328125 c -0.04317,0.183872 -0.07779,0.200456 -0.341797,0.296875 -0.2728994,0.09967 -0.7271054,0.1847699 -1.2265624,0.4042969 -0.7444001,0.327186 -1.1679765,0.608757 -1.3105468,0.640625 -0.071285,0.01593 -0.070239,0.02173 -0.1738282,-0.03125 C 7.3436764,5.1774887 7.1580681,5.0369738 6.8984375,4.7773438 L 5.6367188,3.515625 4.5761719,4.5761719 3.515625,5.6367188 4.7792969,6.9003906 5.2246094,7.3457031 c 0.1005644,0.161334 0.088614,0.19851 -0.029297,0.453125 C 5.0733522,8.0621871 4.810753,8.4421369 4.6132812,8.9511719 4.3189224,9.7099599 4.2201909,10.209543 4.1425781,10.332031 c -0.038806,0.06124 -0.033791,0.06391 -0.1445312,0.09961 C 3.8873073,10.467342 3.6567631,10.5 3.2890625,10.5 L 1.5,10.5 l 0,1.5 0,1.5 1.7890625,0 0.6308594,0 c 0.183872,0.04317 0.2004559,0.07779 0.296875,0.341797 0.099667,0.272899 0.1847704,0.727105 0.4042969,1.226562 0.3272208,0.744479 0.6088709,1.168694 0.640625,1.310547 0.015877,0.07093 0.021704,0.06844 -0.03125,0.171875 -0.052954,0.103433 -0.1934425,0.289146 -0.453125,0.548828 l -1.2617188,1.263672 1.0605469,1.060547 1.0605469,1.060547 1.2636718,-1.263672 0.4453125,-0.445312 c 0.1613344,-0.100565 0.1985101,-0.08861 0.453125,0.0293 0.2633594,0.12196 0.6433087,0.384559 1.1523438,0.582031 0.7587878,0.294359 1.2583711,0.39309 1.3808591,0.470703 0.06124,0.03881 0.06391,0.03379 0.09961,0.144531 0.0357,0.11074 0.06836,0.341284 0.06836,0.708985 l 0,1.789062 1.5,0 1.5,0 0,-1.789062 0,-0.63086 c 0.04317,-0.183872 0.07779,-0.200456 0.341797,-0.296875 0.272899,-0.09967 0.727104,-0.18477 1.226562,-0.404297 0.744479,-0.327221 1.168694,-0.608871 1.310547,-0.640625 0.07093,-0.01588 0.06844,-0.0217 0.171875,0.03125 0.103433,0.05295 0.289146,0.193442 0.548828,0.453125 l 1.263672,1.261719 1.060547,-1.060547 1.060547,-1.060547 -1.263672,-1.263672 -0.445312,-0.445312 c -0.100565,-0.161335 -0.08861,-0.19851 0.0293,-0.453125 0.12196,-0.263359 0.384559,-0.643309 0.582031,-1.152344 0.294359,-0.758788 0.39309,-1.258371 0.470703,-1.380859 0.03881,-0.06124 0.03379,-0.06391 0.144531,-0.09961 0.11074,-0.0357 0.341284,-0.06836 0.708985,-0.06836 l 1.789062,0 0,-3 -1.789062,0 -0.63086,0 c -0.183876,-0.04317 -0.20046,-0.07779 -0.296879,-0.341799 -0.09967,-0.2728999 -0.18477,-0.7271054 -0.404297,-1.2265624 -0.327299,-0.744658 -0.608612,-1.1684649 -0.640625,-1.3105468 -0.01601,-0.07104 -0.02345,-0.06865 0.0293,-0.171875 0.05274,-0.103223 0.193495,-0.2891982 0.453125,-0.5488282 L 20.484375,5.6367188 19.423828,4.5761719 18.363281,3.515625 17.099609,4.7792969 16.654297,5.2246094 c -0.161335,0.100565 -0.19851,0.088613 -0.453125,-0.029297 C 15.937813,5.0733525 15.557863,4.8107533 15.048828,4.6132812 14.290225,4.3189942 13.79063,4.218554 13.667969,4.140625 13.606639,4.101655 13.604129,4.1071348 13.568359,3.9960938 13.532587,3.8850527 13.5,3.6548104 13.5,3.2871094 L 13.5,1.5 l -1.5,0 -1.5,0 z m 1.5,6 c 2.491204,0 4.5,2.008796 4.5,4.5 0,2.491204 -2.008796,4.5 -4.5,4.5 C 9.5087963,16.5 7.5,14.491204 7.5,12 7.5,9.508796 9.5087963,7.5 12,7.5 z"
         style="fill:url(#linearGradient7778);fill-opacity:1;stroke:none" />
      <path
         inkscape:connector-curvature="0"
         transform="translate(0,24)"
         style="opacity:0.4;fill:none;stroke:#000000;stroke-width:1;stroke-linecap:round;stroke-linejoin:round;stroke-miterlimit:4;stroke-opacity:1;stroke-dasharray:none"
         d="m 10.5,1.5 0,0.5 0,1.2871094 0,0.6328125 c -0.04317,0.183872 -0.07779,0.200456 -0.341797,0.296875 -0.2728994,0.09967 -0.7271054,0.1847699 -1.2265624,0.4042969 -0.7444001,0.327186 -1.1679765,0.608757 -1.3105468,0.640625 -0.071285,0.01593 -0.070239,0.02173 -0.1738282,-0.03125 C 7.3436764,5.1774887 7.1580681,5.0369738 6.8984375,4.7773438 L 5.6367188,3.515625 4.5761719,4.5761719 3.515625,5.6367188 4.7792969,6.9003906 5.2246094,7.3457031 c 0.1005644,0.161334 0.088614,0.19851 -0.029297,0.453125 C 5.0733522,8.0621871 4.810753,8.4421369 4.6132812,8.9511719 4.3189224,9.7099599 4.2201909,10.209543 4.1425781,10.332031 c -0.038806,0.06124 -0.033791,0.06391 -0.1445312,0.09961 C 3.8873073,10.467342 3.6567631,10.5 3.2890625,10.5 L 1.5,10.5 l 0,1.5 0,1.5 1.7890625,0 0.6308594,0 c 0.183872,0.04317 0.2004559,0.07779 0.296875,0.341797 0.099667,0.272899 0.1847704,0.727105 0.4042969,1.226562 0.3272208,0.744479 0.6088709,1.168694 0.640625,1.310547 0.015877,0.07093 0.021704,0.06844 -0.03125,0.171875 -0.052954,0.103433 -0.1934425,0.289146 -0.453125,0.548828 l -1.2617188,1.263672 1.0605469,1.060547 1.0605469,1.060547 1.2636718,-1.263672 0.4453125,-0.445312 c 0.1613344,-0.100565 0.1985101,-0.08861 0.453125,0.0293 0.2633594,0.12196 0.6433087,0.384559 1.1523438,0.582031 0.7587878,0.294359 1.2583711,0.39309 1.3808591,0.470703 0.06124,0.03881 0.06391,0.03379 0.09961,0.144531 0.0357,0.11074 0.06836,0.341284 0.06836,0.708985 l 0,1.789062 1.5,0 1.5,0 0,-1.789062 0,-0.63086 c 0.04317,-0.183872 0.07779,-0.200456 0.341797,-0.296875 0.272899,-0.09967 0.727104,-0.18477 1.226562,-0.404297 0.744479,-0.327221 1.168694,-0.608871 1.310547,-0.640625 0.07093,-0.01588 0.06844,-0.0217 0.171875,0.03125 0.103433,0.05295 0.289146,0.193442 0.548828,0.453125 l 1.263672,1.261719 1.060547,-1.060547 1.060547,-1.060547 -1.263672,-1.263672 -0.445312,-0.445312 c -0.100565,-0.161335 -0.08861,-0.19851 0.0293,-0.453125 0.12196,-0.263359 0.384559,-0.643309 0.582031,-1.152344 0.294359,-0.758788 0.39309,-1.258371 0.470703,-1.380859 0.03881,-0.06124 0.03379,-0.06391 0.144531,-0.09961 0.11074,-0.0357 0.341284,-0.06836 0.708985,-0.06836 l 1.789062,0 0,-3 -1.789062,0 -0.63086,0 c -0.183876,-0.04317 -0.20046,-0.07779 -0.296879,-0.341799 -0.09967,-0.2728999 -0.18477,-0.7271054 -0.404297,-1.2265624 -0.327299,-0.744658 -0.608612,-1.1684649 -0.640625,-1.3105468 -0.01601,-0.07104 -0.02345,-0.06865 0.0293,-0.171875 0.05274,-0.103223 0.193495,-0.2891982 0.453125,-0.5488282 L 20.484375,5.6367188 19.423828,4.5761719 18.363281,3.515625 17.099609,4.7792969 16.654297,5.2246094 c -0.161335,0.100565 -0.19851,0.088613 -0.453125,-0.029297 C 15.937813,5.0733525 15.557863,4.8107533 15.048828,4.6132812 14.290225,4.3189942 13.79063,4.218554 13.667969,4.140625 13.606639,4.101655 13.604129,4.1071348 13.568359,3.9960938 13.532587,3.8850527 13.5,3.6548104 13.5,3.2871094 L 13.5,1.5 l -1.5,0 -1.5,0 z m 1.5,6 c 2.491204,0 4.5,2.008796 4.5,4.5 0,2.491204 -2.008796,4.5 -4.5,4.5 C 9.5087963,16.5 7.5,14.491204 7.5,12 7.5,9.508796 9.5087963,7.5 12,7.5 z"
         id="path7770" />
      <path
         inkscape:connector-curvature="0"
         id="path7780"
         transform="translate(0,24)"
         d="m 11,2 0,1.2871094 0,0.6328125 A 0.50005,0.50005 0 0 1 10.98633,4.0351562 C 10.95871,4.1527902 10.88851,4.3563441 10.732424,4.4863281 10.576333,4.6163171 10.464145,4.6365869 10.33008,4.6855469 9.9753975,4.8150859 9.5736197,4.884376 9.1328125,5.078125 8.7769999,5.234515 8.4986498,5.3806056 8.2851562,5.4941406 8.0716629,5.6076746 8.0048246,5.68867 7.7304688,5.75 7.7079389,5.75504 7.6140951,5.786455 7.4726562,5.765625 7.3312174,5.744795 7.276523,5.7053313 7.21875,5.6757812 7.011639,5.5698552 6.8250211,5.4109584 6.5449219,5.1308594 L 5.6367188,4.2226562 4.9296875,4.9296875 4.2226562,5.6367188 5.1328125,6.546875 5.578125,6.9921875 a 0.50005,0.50005 0 0 1 0.070312,0.089844 C 5.712542,7.1848746 5.8080911,7.3771014 5.7910151,7.5800784 5.7739391,7.7830554 5.7085851,7.8798829 5.648437,8.0097659 5.4885297,8.3550669 5.253834,8.6849108 5.0800776,9.1328128 4.939463,9.4952848 4.8454371,9.7940749 4.7753901,10.025391 c -0.070047,0.231316 -0.05894,0.334338 -0.2109375,0.574218 -0.012432,0.01962 -0.056333,0.110613 -0.171875,0.195313 -0.1155421,0.0847 -0.1793023,0.09364 -0.2402343,0.113281 C 3.9334737,10.978763 3.6863687,11 3.2890625,11 L 2,11 l 0,1 0,1 1.2890625,0 0.6308594,0 a 0.50005,0.50005 0 0 1 0.1152343,0.01367 c 0.1176336,0.02762 0.321188,0.09782 0.4511719,0.253906 0.1299839,0.156091 0.1502563,0.268279 0.1992188,0.402344 0.1295321,0.354673 0.1988291,0.756456 0.3925781,1.197266 0.1564236,0.355888 0.3024834,0.634106 0.4160156,0.847656 0.1135323,0.213549 0.1943537,0.279927 0.2558594,0.554687 0.00482,0.02152 0.037071,0.114924 0.015625,0.257813 -0.021446,0.142889 -0.060718,0.195063 -0.089844,0.251953 -0.1057945,0.206644 -0.264715,0.393622 -0.5449218,0.673828 l -0.9082032,0.910156 0.7070313,0.707031 0.7070313,0.707032 0.9101562,-0.910156 0.4453125,-0.445313 a 0.50005,0.50005 0 0 1 0.089844,-0.07031 c 0.1028433,-0.0641 0.2950694,-0.159654 0.4980469,-0.142578 0.2029776,0.01708 0.2998051,0.08243 0.4296875,0.142578 0.3453023,0.159909 0.6751443,0.394603 1.1230469,0.56836 0.3624714,0.140615 0.6612618,0.23464 0.8925784,0.304687 0.231316,0.07005 0.33434,0.05894 0.574218,0.210938 0.01961,0.01243 0.110603,0.05633 0.195313,0.171875 0.08471,0.115541 0.09364,0.179294 0.113281,0.240234 C 10.978763,20.066518 11,20.313629 11,20.710938 L 11,22 l 1,0 1,0 0,-1.289062 0,-0.63086 a 0.50005,0.50005 0 0 1 0.01367,-0.115234 c 0.02762,-0.117634 0.09782,-0.321188 0.253906,-0.451172 0.156091,-0.129989 0.268279,-0.150259 0.402344,-0.199219 0.35468,-0.129539 0.756457,-0.198829 1.197266,-0.392578 0.355887,-0.156424 0.634106,-0.302483 0.847656,-0.416016 0.213549,-0.113532 0.279927,-0.194349 0.554687,-0.255859 0.02154,-0.0048 0.11493,-0.03708 0.257813,-0.01563 0.142882,0.02145 0.195073,0.06072 0.251953,0.08984 0.206673,0.105801 0.393626,0.264716 0.673828,0.544922 l 0.910156,0.908203 0.707031,-0.707032 0.707032,-0.707031 -0.910156,-0.910156 -0.445313,-0.445313 a 0.50005,0.50005 0 0 1 -0.07031,-0.08984 c -0.06411,-0.102844 -0.159658,-0.29507 -0.142578,-0.498047 0.01708,-0.202977 0.08243,-0.299806 0.142578,-0.429688 0.159909,-0.345301 0.394603,-0.675145 0.56836,-1.123046 0.140615,-0.362472 0.234637,-0.661263 0.304687,-0.892579 0.07005,-0.231316 0.05894,-0.334337 0.210938,-0.574218 0.01243,-0.01961 0.05633,-0.110603 0.171875,-0.195313 0.115541,-0.08471 0.179294,-0.09364 0.240234,-0.113281 C 20.066518,13.021237 20.31363,13 20.710938,13 L 22,13 l 0,-2 -1.289062,0 -0.63086,0 A 0.50005,0.50005 0 0 1 19.964844,10.98633 C 19.84721,10.95871 19.643656,10.888513 19.513672,10.732422 19.383683,10.576331 19.363413,10.464143 19.314453,10.330078 19.184915,9.9753981 19.115624,9.5736205 18.921875,9.1328125 18.765399,8.7768045 18.619341,8.4986392 18.505859,8.2851562 18.392378,8.0716743 18.3116,8.0038818 18.25,7.7304688 18.2459,7.7123328 18.21175,7.6275739 18.23047,7.4824219 18.24919,7.3372699 18.29227,7.2813663 18.32227,7.2226562 18.428295,7.0151432 18.587035,6.827031 18.867192,6.546875 L 19.777344,5.6367188 19.070312,4.9296875 18.363281,4.2226562 17.453125,5.1328125 17.007812,5.578125 a 0.50005,0.50005 0 0 1 -0.08984,0.070312 C 16.815125,5.7125465 16.622899,5.8080956 16.419922,5.7910156 16.216945,5.7739386 16.120116,5.7085875 15.990234,5.6484375 15.644933,5.4885305 15.31509,5.2538351 14.867188,5.0800781 14.504508,4.9393831 14.206168,4.8440075 13.974609,4.7734375 13.743051,4.7028665 13.638996,4.714091 13.400391,4.5625 13.381285,4.55036 13.290198,4.506523 13.205078,4.390625 13.119957,4.274727 13.111467,4.2094875 13.091797,4.1484375 13.021347,3.9297465 13,3.6843524 13,3.2871094 L 13,2 12,2 11,2 z m 1,5 c 2.759989,0 5,2.240011 5,5 0,2.759989 -2.240011,5 -5,5 C 9.2400111,17 7,14.759989 7,12 7,9.240011 9.2400111,7 12,7 z"
         style="fill:url(#linearGradient7786);fill-opacity:1;stroke:none" />
      <path
         sodipodi:nodetypes="ccccccsscscsccccccsssscscsccccccssssssscccccccsssscscsccccccccsscscccccccccssccscscccccccsscscsccccccccsscscsccc"
         inkscape:connector-curvature="0"
         clip-path="url(#clipPath7793)"
         style="opacity:0.4;fill:none;stroke:url(#linearGradient7805);stroke-width:2;stroke-linecap:round;stroke-linejoin:round;stroke-miterlimit:4;stroke-opacity:1;stroke-dasharray:none"
         d="m 11,2 0,1.2871094 0,0.6328125 c -7e-5,0.038812 -0.0047,0.077484 -0.01367,0.1152343 -0.02762,0.117634 -0.09782,0.3211879 -0.253906,0.4511719 C 10.576333,4.6163171 10.464145,4.6365869 10.33008,4.6855469 9.9753975,4.8150859 9.5736197,4.884376 9.1328125,5.078125 8.7769999,5.234515 8.4986498,5.3806056 8.2851562,5.4941406 8.0716629,5.6076746 8.0048246,5.68867 7.7304688,5.75 7.7079389,5.75504 7.6140951,5.786455 7.4726562,5.765625 7.3312174,5.744795 7.276523,5.7053313 7.21875,5.6757812 7.011639,5.5698552 6.8250211,5.4109584 6.5449219,5.1308594 L 5.6367188,4.2226562 4.9296875,4.9296875 4.2226562,5.6367188 5.1328125,6.546875 5.578125,6.9921875 c 0.026788,0.027167 0.050379,0.057311 0.070312,0.089844 C 5.712542,7.1848746 5.8080911,7.3771014 5.7910151,7.5800784 5.7739391,7.7830554 5.7085851,7.8798829 5.648437,8.0097659 5.4885297,8.3550669 5.253834,8.6849108 5.0800776,9.1328128 4.939463,9.4952848 4.8454371,9.7940749 4.7753901,10.025391 c -0.070047,0.231316 -0.05894,0.334338 -0.2109375,0.574218 -0.012432,0.01962 -0.056333,0.110613 -0.171875,0.195313 -0.1155421,0.0847 -0.1793023,0.09364 -0.2402343,0.113281 C 3.9334737,10.978763 3.6863687,11 3.2890625,11 L 2,11 l 0,1 0,1 1.2890625,0 0.6308594,0 c 0.038812,7e-5 0.077484,0.0047 0.1152343,0.01367 0.1176336,0.02762 0.321188,0.09782 0.4511719,0.253906 0.1299839,0.156091 0.1502563,0.268279 0.1992188,0.402344 0.1295321,0.354673 0.1988291,0.756456 0.3925781,1.197266 0.1564236,0.355888 0.3024834,0.634106 0.4160156,0.847656 0.1135323,0.213549 0.1943537,0.279927 0.2558594,0.554687 0.00482,0.02152 0.037071,0.114924 0.015625,0.257813 -0.021446,0.142889 -0.060718,0.195063 -0.089844,0.251953 -0.1057945,0.206644 -0.264715,0.393622 -0.5449218,0.673828 l -0.9082032,0.910156 0.7070313,0.707031 0.7070313,0.707032 0.9101562,-0.910156 0.4453125,-0.445313 c 0.027167,-0.02679 0.057311,-0.05038 0.089844,-0.07031 0.1028433,-0.0641 0.2950694,-0.159654 0.4980469,-0.142578 0.2029776,0.01708 0.2998051,0.08243 0.4296875,0.142578 0.3453023,0.159909 0.6751443,0.394603 1.1230469,0.56836 0.3624714,0.140615 0.6612618,0.23464 0.8925784,0.304687 0.231316,0.07005 0.33434,0.05894 0.574218,0.210938 0.01961,0.01243 0.110603,0.05633 0.195313,0.171875 0.08471,0.115541 0.09364,0.179294 0.113281,0.240234 C 10.978763,20.066518 11,20.313629 11,20.710938 L 11,22 l 1,0 1,0 0,-1.289062 0,-0.63086 c 7e-5,-0.03881 0.0047,-0.07748 0.01367,-0.115234 0.02762,-0.117634 0.09782,-0.321188 0.253906,-0.451172 0.156091,-0.129989 0.268279,-0.150259 0.402344,-0.199219 0.35468,-0.129539 0.756457,-0.198829 1.197266,-0.392578 0.355887,-0.156424 0.634106,-0.302483 0.847656,-0.416016 0.213549,-0.113532 0.279927,-0.194349 0.554687,-0.255859 0.02154,-0.0048 0.11493,-0.03708 0.257813,-0.01563 0.142882,0.02145 0.195073,0.06072 0.251953,0.08984 0.206673,0.105801 0.393626,0.264716 0.673828,0.544922 l 0.910156,0.908203 0.707031,-0.707032 0.707032,-0.707031 -0.910156,-0.910156 -0.445313,-0.445313 c -0.02679,-0.02717 -0.05038,-0.05731 -0.07031,-0.08984 -0.06411,-0.102844 -0.159658,-0.29507 -0.142578,-0.498047 0.01708,-0.202977 0.08243,-0.299806 0.142578,-0.429688 0.159909,-0.345301 0.394603,-0.675145 0.56836,-1.123046 0.140615,-0.362472 0.234637,-0.661263 0.304687,-0.892579 0.07005,-0.231316 0.05894,-0.334337 0.210938,-0.574218 0.01243,-0.01961 0.05633,-0.110603 0.171875,-0.195313 0.115541,-0.08471 0.179294,-0.09364 0.240234,-0.113281 C 20.066518,13.021237 20.31363,13 20.710938,13 L 22,13 l 0,-2 -1.289062,0 -0.63086,0 c -0.03881,-7e-5 -0.07748,-0.0047 -0.115234,-0.01367 C 19.84721,10.95871 19.643656,10.888513 19.513672,10.732422 19.383683,10.576331 19.363413,10.464143 19.314453,10.330078 19.184915,9.9753981 19.115624,9.5736205 18.921875,9.1328125 18.765399,8.7768045 18.619341,8.4986392 18.505859,8.2851562 18.392378,8.0716743 18.3116,8.0038818 18.25,7.7304688 18.2459,7.7123328 18.21175,7.6275739 18.23047,7.4824219 18.24919,7.3372699 18.29227,7.2813663 18.32227,7.2226562 18.428295,7.0151432 18.587035,6.827031 18.867192,6.546875 L 19.777344,5.6367188 19.070312,4.9296875 18.363281,4.2226562 17.453125,5.1328125 17.007812,5.578125 c -0.02717,0.026788 -0.05731,0.050379 -0.08984,0.070312 -0.102844,0.064109 -0.29507,0.1596581 -0.498047,0.1425781 C 16.216945,5.7739386 16.120116,5.7085875 15.990234,5.6484375 15.644933,5.4885305 15.31509,5.2538351 14.867188,5.0800781 14.504508,4.9393831 14.206168,4.8440075 13.974609,4.7734375 13.743051,4.7028665 13.638996,4.714091 13.400391,4.5625 13.381285,4.55036 13.290198,4.506523 13.205078,4.390625 13.119957,4.274727 13.111467,4.2094875 13.091797,4.1484375 13.021347,3.9297465 13,3.6843524 13,3.2871094 L 13,2 12,2 z"
         transform="translate(0,24)"
         id="path7789" />
      <path
         sodipodi:nodetypes="sssss"
         inkscape:connector-curvature="0"
         id="path7819"
         transform="matrix(1,0,0,-1,0,48)"
         d="m 12,7 c 2.759989,0 5,2.240011 5,5 0,2.759989 -2.240011,5 -5,5 C 9.2400111,17 7,14.759989 7,12 7,9.240011 9.2400111,7 12,7 z"
         style="opacity:0.4;fill:none;stroke:url(#linearGradient3065);stroke-width:2;stroke-linecap:round;stroke-linejoin:round;stroke-miterlimit:4;stroke-opacity:1;stroke-dasharray:none"
         clip-path="url(#clipPath7793)" />
    </g>
  </g>
  <path
     inkscape:connector-curvature="0"
     id="path3204"
     d="m 33,27 0,6 -6,0 0,6 6,0 0,6 6,0 0,-6 6,0 0,-6 -6,0 0,-6 -6,0 z"
     style="fill:none;fill-opacity:1;stroke:none;display:inline" />
</svg>
