<?xml version='1.0' encoding='UTF-8' standalone='no'?>
<svg height="16" xmlns:inkscape="http://www.inkscape.org/namespaces/inkscape" xmlns:sodipodi="http://sodipodi.sourceforge.net/DTD/sodipodi-0.dtd" version="1.1" width="16.04" xmlns="http://www.w3.org/2000/svg" enable-background="new">
 <metadata id="metadata90"/>
 <defs id="defs7386">
  <linearGradient id="linearGradient5606" osb:paint="solid">
   <stop id="stop5608"/>
  </linearGradient>
  <filter inkscape:collect="always" color-interpolation-filters="sRGB" id="filter7554">
   <feBlend inkscape:collect="always" id="feBlend7556" in2="BackgroundImage" mode="darken"/>
  </filter>
 </defs>
 <g inkscape:groupmode="layer" id="layer1" inkscape:label="places" transform="translate(-502.97826,-272)">
  <path inkscape:connector-curvature="0" d="m 510.90625,272.625 a 0.50005,0.50005 0 0 0 -0.375,0.3125 L 508.65625,278 503.5,278 a 0.50005,0.50005 0 0 0 -0.3125,0.90625 l 4.03125,3.28125 -1.34375,5 a 0.50005,0.50005 0 0 0 0.75,0.5625 l 4.375,-2.8125 4.375,2.8125 a 0.50005,0.50005 0 0 0 0.75,-0.5625 l -1.34375,-5 4.03125,-3.28125 A 0.50005,0.50005 0 0 0 518.5,278 l -5.15625,0 -1.875,-5.0625 a 0.50005,0.50005 0 0 0 -0.5625,-0.3125 z m 0.0937,1.9375 1.53125,4.125 A 0.50005,0.50005 0 0 0 513,279 l 4.09375,0 -3.1875,2.59375 a 0.50005,0.50005 0 0 0 -0.1875,0.53125 l 1.09375,4.0625 -3.53125,-2.28125 a 0.50005,0.50005 0 0 0 -0.5625,0 l -3.53125,2.28125 1.09375,-4.0625 a 0.50005,0.50005 0 0 0 -0.1875,-0.53125 L 504.90625,279 509,279 a 0.50005,0.50005 0 0 0 0.46875,-0.3125 L 511,274.5625 z" id="polygon5122-0-0" color="#000000" fill="#bebebe"/>
 </g>
</svg>
