<?xml version="1.0" encoding="UTF-8" standalone="no"?>
<svg
   xmlns:dc="http://purl.org/dc/elements/1.1/"
   xmlns:cc="http://creativecommons.org/ns#"
   xmlns:rdf="http://www.w3.org/1999/02/22-rdf-syntax-ns#"
   xmlns:svg="http://www.w3.org/2000/svg"
   xmlns="http://www.w3.org/2000/svg"
   xmlns:xlink="http://www.w3.org/1999/xlink"
   version="1.1"
   id="svg5014"
   height="24"
   width="24">
  <defs
     id="defs5016">
    <linearGradient
       id="linearGradient5200">
      <stop
         id="stop5202"
         offset="0"
         style="stop-color:#000000;stop-opacity:1;" />
      <stop
         id="stop5204"
         offset="1"
         style="stop-color:#000000;stop-opacity:0;" />
    </linearGradient>
    <linearGradient
       id="linearGradient5082">
      <stop
         id="stop5084"
         offset="0"
         style="stop-color:#ffffff;stop-opacity:1;" />
      <stop
         style="stop-color:#ffffff;stop-opacity:0.74901961;"
         offset="0.46633396"
         id="stop5086" />
      <stop
         style="stop-color:#ffffff;stop-opacity:0"
         offset="0.67677671"
         id="stop5088" />
      <stop
         id="stop5090"
         offset="1"
         style="stop-color:#ffffff;stop-opacity:0;" />
    </linearGradient>
    <linearGradient
       id="linearGradient5072">
      <stop
         id="stop5074"
         offset="0"
         style="stop-color:#000000;stop-opacity:1;" />
      <stop
         id="stop5076"
         offset="1"
         style="stop-color:#000000;stop-opacity:0;" />
    </linearGradient>
    <linearGradient
       id="linearGradient4935">
      <stop
         id="stop4937"
         offset="0"
         style="stop-color:#e5cf08;stop-opacity:1;" />
      <stop
         style="stop-color:#e9d414;stop-opacity:1;"
         offset="0.5"
         id="stop4977" />
      <stop
         id="stop4939"
         offset="1"
         style="stop-color:#fff279;stop-opacity:1;" />
    </linearGradient>
    <linearGradient
       id="linearGradient4927">
      <stop
         id="stop4929"
         offset="0"
         style="stop-color:#c09e06;stop-opacity:1;" />
      <stop
         id="stop4931"
         offset="1"
         style="stop-color:#b99b13;stop-opacity:1" />
    </linearGradient>
    <linearGradient
       y2="13"
       x2="15"
       y1="-1"
       x1="15"
       gradientTransform="matrix(0.73333333,0,0,0.73333333,0.39999997,13.038)"
       gradientUnits="userSpaceOnUse"
       id="linearGradient3132"
       xlink:href="#linearGradient5072" />
    <linearGradient
       y2="8"
       x2="24"
       y1="8"
       x1="8"
       gradientTransform="matrix(0.73333333,0,0,0.73333333,0.39999997,13.038)"
       gradientUnits="userSpaceOnUse"
       id="linearGradient3140"
       xlink:href="#linearGradient5082" />
    <linearGradient
       y2="0"
       x2="20"
       y1="20"
       x1="20"
       gradientTransform="matrix(0.73333333,0,0,0.73333333,0.39999997,13.038)"
       gradientUnits="userSpaceOnUse"
       id="linearGradient3144"
       xlink:href="#linearGradient4935" />
    <radialGradient
       r="10"
       fy="29.5"
       fx="17"
       cy="29.5"
       cx="17"
       gradientTransform="matrix(1,0,0,0.25,0,22.125)"
       gradientUnits="userSpaceOnUse"
       id="radialGradient3151"
       xlink:href="#linearGradient5200" />
    <radialGradient
       r="10"
       fy="29.5"
       fx="17"
       cy="29.5"
       cx="17"
       gradientTransform="matrix(1,0,0,0.25,0,22.125)"
       gradientUnits="userSpaceOnUse"
       id="radialGradient3153"
       xlink:href="#linearGradient5200" />
    <linearGradient
       y2="12"
       x2="0"
       y1="12"
       x1="32"
       gradientTransform="matrix(0.73333333,0,0,0.73333333,0.39999997,13.038)"
       gradientUnits="userSpaceOnUse"
       id="linearGradient3931"
       xlink:href="#linearGradient4927" />
  </defs>
  <metadata
     id="metadata5019">
    <rdf:RDF>
      <cc:Work
         rdf:about="">
        <dc:format>image/svg+xml</dc:format>
        <dc:type
           rdf:resource="http://purl.org/dc/dcmitype/StillImage" />
        <dc:title />
      </cc:Work>
    </rdf:RDF>
  </metadata>
  <g
     transform="translate(0,-8)"
     id="layer1">
    <path
       transform="matrix(0.91666666,0,0,0.58666666,-3.0833333,9.664667)"
       d="m 27,29.5 a 10,2.5 0 1 1 -20,0 10,2.5 0 1 1 20,0 z"
       id="path5198"
       style="opacity:0.2;fill:url(#radialGradient3153);fill-opacity:1;stroke:none" />
    <path
       style="opacity:0.2;fill:url(#radialGradient3151);fill-opacity:1;stroke:none"
       id="path5208"
       d="m 27,29.5 a 10,2.5 0 1 1 -20,0 10,2.5 0 1 1 20,0 z"
       transform="matrix(0.66,0,0,0.29333333,0.9133333,18.318)" />
    <path
       id="path4925"
       d="m 9.9333333,15.238 c 0,0 -1.4666667,1.466667 -7.3333333,1.466667 0,8.8 4.3999999,8.8 4.3999999,8.8 2.9333334,0 3.6666661,-2.2 5.1333331,-2.2 1.466667,0 2.2,2.2 5.866667,2.2 0,0 3.666666,0 3.666666,-8.8 -6.6,0 -7.333333,-1.466667 -7.333333,-1.466667 -0.733333,0 -0.733333,1.466667 -2.2,1.466667 -1.466667,0 -1.466667,-1.466667 -2.1999997,-1.466667 z"
       style="fill:none;stroke:url(#linearGradient3931);stroke-width:2;stroke-miterlimit:4;stroke-opacity:1;stroke-dasharray:none" />
    <path
       style="fill:none;stroke:url(#linearGradient3144);stroke-width:1;stroke-miterlimit:4;stroke-opacity:1;stroke-dasharray:none"
       d="m 9.9333333,15.238 c 0,0 -1.4666667,1.466667 -7.3333333,1.466667 0,8.8 4.3999999,8.8 4.3999999,8.8 2.9333334,0 3.6666661,-2.2 5.1333331,-2.2 1.466667,0 2.2,2.2 5.866667,2.2 0,0 3.666666,0 3.666666,-8.8 -6.6,0 -7.333333,-1.466667 -7.333333,-1.466667 -0.733333,0 -0.733333,1.466667 -2.2,1.466667 -1.466667,0 -1.466667,-1.466667 -2.1999997,-1.466667 z"
       id="path4923" />
    <path
       id="path4915"
       d="m 9.9333333,15.238 c 0,0 -1.4666667,1.466667 -7.3333333,1.466667 0,8.8 4.3999999,8.8 4.3999999,8.8 2.9333334,0 3.6666661,-2.2 5.1333331,-2.2 1.466667,0 2.2,2.2 5.866667,2.2 0,0 3.666666,0 3.666666,-8.8 -6.6,0 -7.333333,-1.466667 -7.333333,-1.466667 -0.733333,0 -0.733333,1.466667 -2.2,1.466667 -1.466667,0 -1.466667,-1.466667 -2.1999997,-1.466667 z m -3.09375,4.19375 C 7.8427407,19.33569 9.062255,19.750646 10.666666,21.104667 9.8756317,21.892344 8.954884,22.472481 7.7333333,22.571333 5.8785557,22.40547 5.1987469,21.479334 4.8,20.371333 5.4127524,19.892694 6.05935,19.506465 6.8395833,19.43175 z m 10.2437497,0 c 0.935059,-0.01919 1.683045,0.392566 2.383333,0.939583 -0.398747,1.108001 -1.078556,2.034137 -2.933333,2.2 -1.221551,-0.09885 -2.142298,-0.678989 -2.933333,-1.466666 1.426143,-1.203574 2.548274,-1.653723 3.483333,-1.672917 z"
       style="fill:#a161ab;fill-opacity:1;stroke:none" />
    <path
       id="path4943"
       d="m 9.9333333,15.238 c 0,0 -0.6329246,0.620666 -2.6583334,1.054167 0.9881154,0.357041 3.5241111,1.043118 4.1250001,1.879166 1.53868,2.388518 -0.803477,5.556164 -2.8645834,7.104167 1.7283244,-0.565619 2.4271214,-1.970833 3.5979164,-1.970833 1.170794,0 1.869591,1.405214 3.597917,1.970833 -2.061107,-1.548003 -4.403264,-4.715649 -2.864584,-7.104167 0.600888,-0.836048 3.136885,-1.522125 4.125,-1.879166 C 14.966258,15.858666 14.333333,15.238 14.333333,15.238 c -0.733333,0 -0.733333,1.466667 -2.2,1.466667 -1.466667,0 -1.466667,-1.466667 -2.1999997,-1.466667 z"
       style="opacity:0.5;fill:url(#linearGradient3140);fill-opacity:1;stroke:none" />
    <path
       id="path4968"
       style="fill:none;stroke:#4d1556;stroke-width:1;stroke-miterlimit:4;stroke-opacity:1;stroke-dasharray:none"
       d="M 6.8395833,19.43175 C 7.8427407,19.33569 9.062255,19.750646 10.666666,21.104667 9.8756317,21.892344 8.954884,22.472481 7.7333333,22.571333 5.8785557,22.40547 5.1987469,21.479334 4.8,20.371333 5.4127524,19.892694 6.05935,19.506465 6.8395833,19.43175 z m 10.2437497,0 c 0.935059,-0.01919 1.683045,0.392566 2.383333,0.939583 -0.398747,1.108001 -1.078556,2.034137 -2.933333,2.2 -1.221551,-0.09885 -2.142298,-0.678989 -2.933333,-1.466666 1.426143,-1.203574 2.548274,-1.653723 3.483333,-1.672917 z" />
    <path
       id="path4987"
       d="m 8.4895833,15.971333 c -0.3357552,0.114187 -0.7295435,0.21702 -1.2145834,0.320834 0.9881154,0.357041 3.5241111,1.043118 4.1250001,1.879166 0.26646,0.41363 0.403026,0.858346 0.458333,1.30625 C 11.923291,18.771775 11.812331,18.078069 11.4,17.438 10.978051,16.85092 9.6139145,16.348511 8.4895833,15.971333 z"
       style="opacity:0.2;fill:#ffffff;fill-opacity:1;stroke:none" />
    <path
       style="opacity:0.1;fill:#ffffff;fill-opacity:1;stroke:none"
       d="m 15.6625,15.99425 c 0.335755,0.114187 0.729543,0.21702 1.214583,0.320833 -0.988115,0.357041 -3.524112,1.043119 -4.125,1.879167 -0.26646,0.41363 -0.403027,0.858346 -0.458333,1.30625 -0.06496,-0.705808 0.046,-1.399515 0.458333,-2.039583 0.421948,-0.587081 1.786085,-1.08949 2.910417,-1.466667 z"
       id="path4996" />
    <path
       style="font-size:medium;font-style:normal;font-variant:normal;font-weight:normal;font-stretch:normal;text-indent:0;text-align:start;text-decoration:none;line-height:normal;letter-spacing:normal;word-spacing:normal;text-transform:none;direction:ltr;block-progression:tb;writing-mode:lr-tb;text-anchor:start;baseline-shift:baseline;opacity:0.4;color:#000000;fill:#000000;fill-opacity:1;stroke:none;stroke-width:1;marker:none;visibility:visible;display:inline;overflow:visible;enable-background:accumulate;font-family:Sans;-inkscape-font-specification:Sans"
       d="m 6.8854166,19.798417 c -0.5711911,0.0547 -1.0635046,0.382703 -1.5583333,0.733333 0.042125,0.09528 0.093144,0.183107 0.1375,0.275 0.4491025,-0.312308 0.9026706,-0.592047 1.4208333,-0.641667 0.7373117,-0.07061 1.7029481,0.269304 2.9104167,1.145834 0.081784,-0.06456 0.1722886,-0.114243 0.2520837,-0.183334 -1.3375498,-1.029558 -2.3710035,-1.40496 -3.1625004,-1.329166 z m 10.1979164,0 c -0.737346,0.01514 -1.685086,0.421205 -2.864583,1.329166 0.07979,0.0691 0.170299,0.118769 0.252083,0.183334 1.058702,-0.770484 1.93059,-1.131836 2.6125,-1.145834 0.65798,-0.01351 1.20505,0.254507 1.741667,0.61875 0.04432,-0.09122 0.09625,-0.179685 0.1375,-0.275 -0.58088,-0.412118 -1.165289,-0.72507 -1.879167,-0.710416 z"
       id="path5021" />
    <path
       id="path5023"
       d="m 4.59375,20.783833 c -0.00846,0.0066 -0.014477,0.01632 -0.022917,0.02292 l -0.20625,0.183333 0.091667,0.229167 c 0.2108324,0.585842 0.515181,1.180574 1.0312499,1.627083 0.516069,0.446509 1.2391825,0.73703 2.2229167,0.825 l 0.022917,0 0.022917,0 c 1.3217461,-0.10696 2.3344434,-0.756708 3.1625004,-1.58125 l 0.297916,-0.275 L 10.895833,21.563 C 10.856413,21.52973 10.820303,21.50357 10.78125,21.47133 10.1255,22.095 9.3631057,22.602308 8.4208333,22.823417 8.2077904,22.873407 7.9875557,22.919277 7.7562499,22.938 l -0.022917,0 c -0.00833,-8.07e-4 -0.014652,8.07e-4 -0.022917,0 -0.1967467,-0.01759 -0.3736744,-0.05824 -0.55,-0.09167 C 6.4551135,22.712631 5.9003551,22.470207 5.4874999,22.113 5.0609841,21.743973 4.7977621,21.266654 4.59375,20.783833 z m 15.079166,0.02292 c -0.203344,0.475941 -0.473002,0.942214 -0.89375,1.30625 -0.412855,0.357207 -0.967613,0.599631 -1.672916,0.733333 -0.175552,0.04021 -0.359407,0.07148 -0.572917,0.09166 l -0.02292,0 c -0.231306,-0.01872 -0.45154,-0.06459 -0.664583,-0.114579 -0.942273,-0.221109 -1.704667,-0.728417 -2.360417,-1.352084 -0.0389,0.03211 -0.07531,0.05852 -0.114583,0.09167 l -0.320833,0.252083 0.297916,0.275 c 0.828057,0.824542 1.840754,1.47429 3.1625,1.58125 l 0.02292,0 0.02292,0 c 0.983734,-0.08797 1.706848,-0.378491 2.222916,-0.825 0.516069,-0.446509 0.820418,-1.041241 1.03125,-1.627083 l 0.09166,-0.22917 -0.20625,-0.183333 c -0.0048,-0.0037 -0.0181,0.0037 -0.02292,0 z"
       style="font-size:medium;font-style:normal;font-variant:normal;font-weight:normal;font-stretch:normal;text-indent:0;text-align:start;text-decoration:none;line-height:normal;letter-spacing:normal;word-spacing:normal;text-transform:none;direction:ltr;block-progression:tb;writing-mode:lr-tb;text-anchor:start;baseline-shift:baseline;opacity:0.4;color:#000000;fill:#ffffff;fill-opacity:1;stroke:none;stroke-width:1;marker:none;visibility:visible;display:inline;overflow:visible;enable-background:accumulate;font-family:Sans;-inkscape-font-specification:Sans" />
    <path
       id="path5069"
       d="M 8.4437499,15.971333 C 8.2128995,16.04772 7.9396654,16.127604 7.6416666,16.2005 7.9428972,16.126122 8.2109254,16.049298 8.4437499,15.971333 z m -1.16875,0.320834 C 6.1719016,16.528264 4.668562,16.704667 2.6,16.704667 c 0,8.8 4.3999999,8.8 4.3999999,8.8 0.5917436,0 1.0986514,-0.08623 1.5354167,-0.229167 0.00824,-0.0062 0.014674,-0.01668 0.022917,-0.02292 2.0550434,-1.554669 4.3742004,-4.702274 2.8416674,-7.08125 -0.600889,-0.836048 -3.1368854,-1.522125 -4.1250008,-1.879166 z m 9.6020831,0.02292 c -1.04204,0.364817 -3.42635,1.043607 -4.010417,1.85625 -1.47047,2.282634 0.603848,5.262894 2.589584,6.875 0.662901,0.267041 1.469461,0.458334 2.54375,0.458334 0,0 3.666666,0 3.666666,-8.8 -2.19609,0 -3.703456,-0.172879 -4.789583,-0.389584 z M 6.8395833,19.43175 C 7.8427407,19.33569 9.062255,19.750646 10.666666,21.104667 9.8756317,21.892344 8.954884,22.472481 7.7333333,22.571333 5.8785557,22.40547 5.1987469,21.479334 4.8,20.371333 5.4127524,19.892694 6.05935,19.506465 6.8395833,19.43175 z m 10.2437497,0 c 0.935059,-0.01919 1.683045,0.392566 2.383333,0.939583 -0.398747,1.108001 -1.078556,2.034137 -2.933333,2.2 -1.221551,-0.09885 -2.142298,-0.678989 -2.933333,-1.466666 1.426143,-1.203574 2.548274,-1.653723 3.483333,-1.672917 z"
       style="opacity:0.2;fill:url(#linearGradient3132);fill-opacity:1;stroke:none" />
    <path
       id="path5093"
       d="m 11.95,23.304667 0,-2.939713 0,-2.926954"
       style="opacity:0.5;fill:none;stroke:#ffffff;stroke-width:0.5;stroke-linecap:butt;stroke-linejoin:miter;stroke-miterlimit:4;stroke-opacity:1;stroke-dasharray:none" />
    <path
       id="path5106"
       d="m 2.6,16.704667 c 0,8.8 4.3999999,8.8 4.3999999,8.8 2.0478598,0.349202 3.7235171,-2.138928 5.1333331,-2.2 2.911784,1.227505 2.980278,2.180596 5.866667,2.2 0,0 3.666666,0 3.666666,-8.8 -0.0083,0 -0.01467,5e-6 -0.02292,0 -0.203196,8.046103 -3.64375,8.066666 -3.64375,8.066666 -2.918529,0.05083 -3.642726,-1.49652 -5.866667,-2.2 -2.1809199,0.882866 -2.9116161,2.038231 -5.1333331,2.2 0,0 -4.1332484,-0.02056 -4.3770833,-8.066666 -0.00819,5e-6 -0.01471,0 -0.022917,0 z"
       style="opacity:0.1;fill:#000000;fill-opacity:1;stroke:none" />
    <path
       id="path5116"
       d="M 9.9333333,15.238 C 7.9949015,16.474561 4.8607703,16.697396 2.6,16.704667 c 0,0.258837 0.015528,0.489498 0.022917,0.733333 2.540148,-0.114639 5.1295526,-0.06246 7.3104163,-1.466667 0.7333327,0 0.7333327,1.466667 2.1999997,1.466667 1.466667,0 1.466667,-1.466667 2.2,-1.466667 2.067281,1.216437 4.613401,1.456918 7.310417,1.466667 0.0062,-0.243835 0.02292,-0.474496 0.02292,-0.733333 -2.723742,-0.110376 -5.059027,-0.0113 -7.333337,-1.466667 -0.733333,0 -0.733333,1.466667 -2.2,1.466667 -1.466667,0 -1.466667,-1.466667 -2.1999997,-1.466667 z M 5.0291666,20.921333 C 4.9494156,20.979113 4.8784323,21.043401 4.8,21.104667 c 0.3987469,1.108 1.0785557,2.034136 2.9333333,2.2 C 8.954884,23.205817 9.8756317,22.625678 10.666666,21.838 10.51503,21.710028 10.376152,21.605806 10.23125,21.49425 9.5376999,22.07562 8.7393573,22.489922 7.7333333,22.571333 6.1950237,22.43377 5.4610081,21.774846 5.0291666,20.921333 z m 14.1854164,0 c -0.432503,0.848525 -1.149133,1.512991 -2.68125,1.65 C 15.527309,22.489923 14.728966,22.07562 14.035416,21.49425 13.894057,21.60313 13.747755,21.713304 13.6,21.838 c 0.791035,0.787678 1.711782,1.367815 2.933333,1.466667 1.854777,-0.165864 2.534586,-1.092 2.933333,-2.2 -0.08326,-0.06503 -0.167245,-0.12262 -0.252083,-0.183334 z M 13.370833,23.488 c 0.172674,0.265494 0.371502,0.510634 0.572917,0.75625 -0.200449,-0.244105 -0.401023,-0.494408 -0.572917,-0.75625 z"
       style="opacity:0.1;fill:#000000;fill-opacity:1;stroke:none" />
    <path
       id="path3923"
       d="m 9.53125,14.2505 -0.3125,0.28125 c 0,0 0.036912,-0.03465 -0.125,0.0625 -0.1619123,0.09715 -0.4507456,0.275248 -0.9375,0.4375 -0.9735089,0.324503 -2.7125001,0.6875 -5.5625,0.6875 l -1,0 0,1 c 0,4.566667 1.1642978,7.070548 2.5,8.40625 0.6678511,0.667851 1.3672589,1.007836 1.90625,1.1875 0.5389911,0.179664 1,0.1875 1,0.1875 1.7166667,0 2.9214167,-0.68325 3.71875,-1.28125 0.398667,-0.299 0.701696,-0.567161 0.9375,-0.71875 0.235804,-0.151589 0.352083,-0.1875 0.46875,-0.1875 0.116667,0 0.243556,0.02833 0.5,0.1875 0.256444,0.159172 0.607331,0.446554 1.0625,0.75 0.910338,0.606892 2.279167,1.25 4.3125,1.25 0,0 0.451455,-0.02433 0.9375,-0.21875 0.486045,-0.194418 1.092969,-0.574062 1.65625,-1.25 1.126563,-1.351876 2.0625,-3.773611 2.0625,-8.3125 l 0,-1 -1,0 c -3.225926,0 -4.937552,-0.380701 -5.78125,-0.6875 -0.421849,-0.1534 -0.617201,-0.287511 -0.6875,-0.34375 -0.03515,-0.02812 -0.04472,-0.04764 -0.03125,-0.03125 l -0.21875,-0.40625 -0.59375,0 c -0.516667,0 -0.966262,0.289899 -1.1875,0.53125 -0.221238,0.241351 -0.332,0.453083 -0.4375,0.59375 -0.211,0.281333 -0.19375,0.34375 -0.59375,0.34375 -0.4,0 -0.3515,-0.06242 -0.5625,-0.34375 C 11.457,15.234833 11.346238,15.023101 11.125,14.78175 10.903762,14.540399 10.454167,14.2505 9.9375,14.2505 z"
       style="font-size:medium;font-style:normal;font-variant:normal;font-weight:normal;font-stretch:normal;text-indent:0;text-align:start;text-decoration:none;line-height:normal;letter-spacing:normal;word-spacing:normal;text-transform:none;direction:ltr;block-progression:tb;writing-mode:lr-tb;text-anchor:start;baseline-shift:baseline;opacity:0.41000001;color:#000000;fill:none;stroke:#000000;stroke-width:1;stroke-miterlimit:4;stroke-opacity:1;stroke-dasharray:none;marker:none;visibility:visible;display:inline;overflow:visible;enable-background:accumulate;font-family:Sans;-inkscape-font-specification:Sans" />
  </g>
  <g
     transform="translate(0,-8)"
     id="layer2" />
</svg>
