<?xml version="1.0" encoding="UTF-8" standalone="no"?>
<svg xmlns="http://www.w3.org/2000/svg" xmlns:sodipodi="http://sodipodi.sourceforge.net/DTD/sodipodi-0.dtd" xmlns:inkscape="http://www.inkscape.org/namespaces/inkscape" height="24" width="24" version="1.1">
 <metadata id="metadata7"/>
 <path d="m 11.99991,5 c 0,0 -3.2288213,4.055387 -4.2662183,6.4 -0.5932,1.340693 -1.067563,2.991061 -1.067563,4.266667 0,2.94552 2.387813,5.333333 5.3333333,5.333333 2.945524,0 5.264254,-2.388624 5.333334,-5.333333 C 17.360206,14.498576 16.859966,12.740651 16.267026,11.4 15.229906,9.055083 11.99991,5 11.99991,5 z" id="path3883" inkscape:connector-curvature="0" sodipodi:nodetypes="cacssac" opacity="0.2" color="#bebebe"/>
 <path sodipodi:nodetypes="cacssac" inkscape:connector-curvature="0" id="path3108" d="m 11.99991,4 c 0,0 -3.2288213,4.055387 -4.2662183,6.4 -0.5932,1.340693 -1.067563,2.991061 -1.067563,4.266667 0,2.94552 2.387813,5.333333 5.3333333,5.333333 2.945524,0 5.264254,-2.388624 5.333334,-5.333333 C 17.360206,13.498576 16.859966,11.740651 16.267026,10.4 15.229906,8.055083 11.99991,4 11.99991,4 z" fill="#ffffff" color="#bebebe"/>
</svg>
