<?xml version='1.0' encoding='UTF-8' standalone='no'?>
<svg height="16" xmlns:inkscape="http://www.inkscape.org/namespaces/inkscape" xmlns:sodipodi="http://sodipodi.sourceforge.net/DTD/sodipodi-0.dtd" version="1.1" width="16" xmlns="http://www.w3.org/2000/svg" enable-background="new">
 <metadata id="metadata90"/>
 <defs id="defs7386">
  <linearGradient id="linearGradient5606" osb:paint="solid">
   <stop id="stop5608"/>
  </linearGradient>
  <filter inkscape:collect="always" color-interpolation-filters="sRGB" id="filter7554">
   <feBlend inkscape:collect="always" id="feBlend7556" in2="BackgroundImage" mode="darken"/>
  </filter>
 </defs>
 <g inkscape:groupmode="layer" id="layer14" inkscape:label="mimetypes" transform="translate(-721.0002,239)">
  <path inkscape:connector-curvature="0" d="m 723.0002,-237 c -0.52358,5e-5 -0.99995,0.47642 -1,1 l 0,10 c 5e-5,0.52358 0.47642,0.99995 1,1 l 4,0 0,-1 -4,0 0,-10 13,0 0,10 -3,0 0,1 3,0 c 0.51929,0 1,-0.43513 1,-1 l 0,-10 c 7.5e-4,-0.46663 -0.43709,-1.00022 -1,-1 l -13,0 z" id="path1234-2" fill="#bebebe"/>
  <path inkscape:connector-curvature="0" d="m 729.71779,-232.98672 a 3,3 0 0 0 -2.71875,3.0625 3.0000004,3.0000004 0 0 0 6,0 3,3 0 0 0 -3.28125,-3.0625 z m 0.28125,1 c 1.10457,0 2.00001,0.89543 2.00001,2 0,1.10457 -0.89544,2 -2.00001,2 -1.10457,0 -2,-0.89543 -2,-2 0,-1.10457 0.89543,-2 2,-2 z" id="path4136-5" fill="#bebebe"/>
  <path inkscape:connector-curvature="0" d="m 728,-228.00002 0,5 1.2e-4,2e-5 2.00018,-2 1.99983,2 -1.3e-4,-2e-5 0,-5" id="path3655-4-1" sodipodi:nodetypes="ccccccc" fill="#bebebe" fill-rule="evenodd"/>
 </g>
</svg>
