<?xml version="1.0" encoding="UTF-8" standalone="no"?>
<svg xmlns="http://www.w3.org/2000/svg" xmlns:sodipodi="http://sodipodi.sourceforge.net/DTD/sodipodi-0.dtd" xmlns:inkscape="http://www.inkscape.org/namespaces/inkscape" height="16" version="1.1" width="16" enable-background="new">
 <metadata id="metadata90"/>
 <defs id="defs7386">
  <linearGradient id="linearGradient5606" osb:paint="solid">
   <stop id="stop5608"/>
  </linearGradient>
  <filter inkscape:collect="always" color-interpolation-filters="sRGB" id="filter7554">
   <feBlend inkscape:collect="always" id="feBlend7556" in2="BackgroundImage" mode="darken"/>
  </filter>
 </defs>
 <g inkscape:groupmode="layer" id="layer14" inkscape:label="mimetypes" transform="translate(-781.00021,276.99986)">
  <ellipse cx="323.06" cy="97.19" id="path4983" rx="2" ry="3.236" transform="matrix(1.0000007,0,0,0.61803426,461.93768,-325.06519)" fill="#bbbbbb" color="#000000" stroke-width="1.696"/>
  <path inkscape:connector-curvature="0" d="m 783.00041,-274.99998 0,1 c 0,0.55016 0.45347,1 1,1 4.97056,0 9,4.02944 9,9 0,0.55016 0.45347,1 1,1 l 1,0 0,-1 c 0,-6.07513 -4.92487,-11 -11,-11 l -1,0 z m 0,4 0,1 c 0,0.55016 0.45347,1 1,1 2.76143,0 5,2.23857 5,5 0,0.55016 0.45347,1 1,1 l 1,0 0,-1 c 0,-3.866 -3.134,-7 -7,-7 l -1,0 z" id="path5814" fill="#bbbbbb" color="#000000" stroke-width="1.333"/>
 </g>
</svg>
