<?xml version="1.0" encoding="UTF-8" standalone="no"?>
<svg
   xmlns:dc="http://purl.org/dc/elements/1.1/"
   xmlns:cc="http://creativecommons.org/ns#"
   xmlns:rdf="http://www.w3.org/1999/02/22-rdf-syntax-ns#"
   xmlns:svg="http://www.w3.org/2000/svg"
   xmlns="http://www.w3.org/2000/svg"
   xmlns:xlink="http://www.w3.org/1999/xlink"
   version="1.1"
   id="svg5400"
   height="16px"
   width="16px">
  <defs
     id="defs5402">
    <linearGradient
       id="linearGradient3988">
      <stop
         id="stop3990"
         offset="0"
         style="stop-color:#f1f1f1;stop-opacity:1;" />
      <stop
         id="stop3992"
         offset="1"
         style="stop-color:#f4f4f4;stop-opacity:1;" />
    </linearGradient>
    <linearGradient
       id="outerBackgroundGradient">
      <stop
         id="stop3864-8-6"
         offset="0"
         style="stop-color:#8c166c;stop-opacity:1;" />
      <stop
         style="stop-color:#ca3561;stop-opacity:1;"
         offset="0.36206895"
         id="stop4409" />
      <stop
         id="stop3866-9-1"
         offset="1"
         style="stop-color:#f38f4e;stop-opacity:1;" />
    </linearGradient>
    <linearGradient
       id="linearGradient4094">
      <stop
         id="stop4096"
         offset="0"
         style="stop-color:#e28192;stop-opacity:1;" />
      <stop
         style="stop-color:#f7d6c7;stop-opacity:1;"
         offset="0.25862068"
         id="stop4317" />
      <stop
         id="stop4098"
         offset="1"
         style="stop-color:#fffee4;stop-opacity:1;" />
    </linearGradient>
    <linearGradient
       y2="40.00005"
       x2="144"
       y1="280.00003"
       x1="144"
       gradientTransform="matrix(0.05,0,0,0.05,-0.2,-0.75003)"
       gradientUnits="userSpaceOnUse"
       id="linearGradient3183"
       xlink:href="#linearGradient3988" />
    <linearGradient
       y2="40.00005"
       x2="144"
       y1="280.00003"
       x1="144"
       gradientTransform="matrix(0.04166667,0,0,0.04166667,1,0.70832)"
       gradientUnits="userSpaceOnUse"
       id="linearGradient3185"
       xlink:href="#outerBackgroundGradient" />
    <linearGradient
       y2="260"
       x2="332"
       y1="260"
       x1="324"
       gradientUnits="userSpaceOnUse"
       id="linearGradient3189"
       xlink:href="#linearGradient4094" />
  </defs>
  <metadata
     id="metadata5405">
    <rdf:RDF>
      <cc:Work
         rdf:about="">
        <dc:format>image/svg+xml</dc:format>
        <dc:type
           rdf:resource="http://purl.org/dc/dcmitype/StillImage" />
        <dc:title />
      </cc:Work>
    </rdf:RDF>
  </metadata>
  <g
     id="layer1">
    <path
       id="rect6270"
       d="M 15,2.0000052 15,14 1,14 1,2.0000052 z"
       style="opacity:0.41000001;color:#bebebe;fill:#000000;fill-opacity:1;fill-rule:nonzero;stroke:#000000;stroke-width:2;stroke-linejoin:round;stroke-miterlimit:4;stroke-opacity:1;marker:none;visibility:visible;display:inline;overflow:visible;enable-background:accumulate" />
    <path
       id="rect5498"
       d="M 15,2.0000052 15,14 1,14 1,2.0000052 z"
       style="color:#bebebe;fill:url(#linearGradient3183);fill-opacity:1;fill-rule:nonzero;stroke:#000000;stroke-width:0;stroke-opacity:1;marker:none;visibility:visible;display:inline;overflow:visible;enable-background:accumulate" />
    <path
       id="rect3373"
       d="M 14,3.0000052 14,13 2,13 2,3.0000052 z"
       style="color:#bebebe;fill:url(#linearGradient3185);fill-opacity:1;fill-rule:nonzero;stroke:none;stroke-width:0;marker:none;visibility:visible;display:inline;overflow:visible;enable-background:accumulate" />
    <g
       transform="translate(-1389.5,177.22602)"
       id="g6352">
      <rect
         style="opacity:0.3;color:#000000;fill:#000000;fill-opacity:1;stroke:none;stroke-width:6;marker:none;visibility:visible;display:inline;overflow:visible;enable-background:new"
         id="rect4145"
         width="12"
         height="1.0588236"
         x="1391.5"
         y="-165.64813" />
      <path
         style="opacity:0.1;color:#000000;fill:none;stroke:#fed8cd;stroke-width:11.33333302;stroke-miterlimit:4;stroke-opacity:1;stroke-dasharray:none;marker:none;visibility:visible;display:inline;overflow:visible;enable-background:new"
         id="path4135"
         d="m 332,260 a 4,4 0 1 1 -8,0 4,4 0 1 1 8,0 z"
         transform="matrix(0.35294118,0,0,0.35294118,1279.2289,-259.49624)" />
      <path
         transform="matrix(0.35294118,0,0,0.35294118,1279.2289,-259.49624)"
         d="m 332,260 a 4,4 0 1 1 -8,0 4,4 0 1 1 8,0 z"
         id="path4133"
         style="opacity:0.1;color:#000000;fill:none;stroke:#fed8cd;stroke-width:5.66666651;stroke-miterlimit:4;stroke-opacity:1;stroke-dasharray:none;marker:none;visibility:visible;display:inline;overflow:visible;enable-background:new" />
      <path
         style="color:#000000;fill:url(#linearGradient3189);fill-opacity:1;fill-rule:evenodd;stroke:none;stroke-width:14;marker:none;visibility:visible;display:inline;overflow:visible;enable-background:new"
         id="path4139"
         d="m 332,260 a 4,4 0 1 1 -8,0 4,4 0 1 1 8,0 z"
         transform="matrix(0,-0.35294118,0.35294118,0,1303.2289,-51.966811)" />
      <path
         style="fill:#000000;fill-opacity:1;stroke:none;display:inline"
         d="m 1391.5,-165.64808 0,-0.35294 c 0,0 0.8908,-0.5882 1.1412,-0.63951 0.2505,-0.0513 0.5463,-0.009 0.8502,0.0478 0.304,0.0572 0.7578,0.13451 0.8994,0.13936 0.1416,0.005 0.3979,-0.0125 0.6957,-0.0302 0.2978,-0.0177 0.7909,-0.034 0.9447,-0.0322 0.1538,0.002 0.5377,0.0213 0.947,0.0462 0.4093,0.0249 0.9714,0.0669 1.0989,0.0786 0.1276,0.0117 0.2775,0.0332 0.4476,0.0567 0.1702,0.0234 0.4647,0.0584 0.5689,0.0681 0.1042,0.01 0.3458,0.0427 0.626,0.0686 0.2803,0.0258 0.7289,0.0347 0.8584,0.025 0.1295,-0.01 0.401,-0.10548 0.7036,-0.19386 0.3026,-0.0884 0.6362,-0.16933 0.89,-0.1493 0.2538,0.0201 1.3284,0.51474 1.3284,0.51474 l 0,0.35294 -1.5,0 -1.5,0 -1.5,0 -1.5,0 -1.5,0 -1.5,0 -1.5,0 z"
         id="path4141" />
      <path
         id="path4143"
         d="m 1391.5,-165.64807 0,0.23029 c 0,0 0.8908,0.38376 1.1412,0.41725 0.2505,0.0335 0.5463,0.006 0.8502,-0.0311 0.304,-0.0373 0.7578,-0.0878 0.8994,-0.0909 0.1416,-0.004 0.3979,0.008 0.6957,0.0198 0.2978,0.0116 0.7909,0.0222 0.9447,0.0208 0.1538,0 0.5377,-0.0138 0.947,-0.03 0.4093,-0.0162 0.9714,-0.0437 1.0989,-0.0513 0.1276,-0.008 0.2775,-0.0215 0.4476,-0.037 0.1702,-0.0152 0.4647,-0.0381 0.5689,-0.0444 0.1042,-0.006 0.3458,-0.0279 0.626,-0.0448 0.2803,-0.0169 0.7289,-0.0226 0.8584,-0.0162 0.1295,0.006 0.401,0.0688 0.7036,0.12649 0.3026,0.0577 0.6362,0.11047 0.89,0.0974 0.2538,-0.013 1.3284,-0.33582 1.3284,-0.33582 l 0,-0.23026 -1.5,0 -1.5,0 -1.5,0 -1.5,0 -1.5,0 -1.5,0 -1.5,0 z"
         style="opacity:0.9;fill:#000000;fill-opacity:1;stroke:none;display:inline" />
    </g>
    <path
       style="opacity:0.15;color:#bebebe;fill:#000000;fill-opacity:1;fill-rule:nonzero;stroke:none;stroke-width:0;marker:none;visibility:visible;display:inline;overflow:visible;enable-background:accumulate"
       d="M 14,3 14,13 2,13 2,3 z m -1,1 -10,0 0,8 10,0 z"
       id="rect7398" />
    <path
       id="rect7403"
       d="m 1,2.0000043 14,0 0,1 -14,0 z"
       style="opacity:0.15;fill:#ffffff;fill-opacity:1;stroke:none;display:inline;enable-background:new" />
  </g>
</svg>
