<?xml version="1.0" encoding="UTF-8" standalone="no"?>
<svg xmlns="http://www.w3.org/2000/svg" xmlns:xlink="http://www.w3.org/1999/xlink" xmlns:sodipodi="http://sodipodi.sourceforge.net/DTD/sodipodi-0.dtd" xmlns:inkscape="http://www.inkscape.org/namespaces/inkscape" width="16" height="16" version="1.1">
 <defs id="defs5402">
  <linearGradient inkscape:collect="always" xlink:href="#linearGradient3988" id="linearGradient6402" gradientUnits="userSpaceOnUse" gradientTransform="matrix(0,-0.05,0.05,0,-180.75031,-1391.8)" y1="280" x2="0" y2="40"/>
  <linearGradient id="linearGradient3988">
   <stop id="stop3990" stop-color="#f1f1f1"/>
   <stop offset="1" id="stop3992" stop-color="#f4f4f4"/>
  </linearGradient>
  <linearGradient inkscape:collect="always" xlink:href="#outerBackgroundGradient" id="linearGradient6404" gradientUnits="userSpaceOnUse" gradientTransform="matrix(0,-0.04166667,0.04166667,0,-179.29196,-1393)" y1="280" x2="0" y2="40"/>
  <linearGradient id="outerBackgroundGradient">
   <stop id="stop3864-8-6" stop-color="#8c166c"/>
   <stop id="stop4409" offset="0.362" stop-color="#ca3561"/>
   <stop offset="1" id="stop3866-9-1" stop-color="#f38f4e"/>
  </linearGradient>
  <linearGradient inkscape:collect="always" xlink:href="#linearGradient4094" id="linearGradient6406" gradientUnits="userSpaceOnUse" x1="324" x2="332"/>
  <linearGradient id="linearGradient4094">
   <stop id="stop4096" stop-color="#e28192"/>
   <stop id="stop4317" offset="0.259" stop-color="#f7d6c7"/>
   <stop offset="1" id="stop4098" stop-color="#fffee4"/>
  </linearGradient>
 </defs>
 <metadata id="metadata5405"/>
 <g id="layer1" inkscape:label="Layer 1" inkscape:groupmode="layer">
  <g id="g6362" transform="translate(-1391,181.00027)" enable-background="new">
   <rect transform="matrix(0,1,-1,0,0,0)" y="-1405" x="-178" height="12" width="10" id="rect6270" opacity="0.41" stroke="#000000" stroke-linejoin="round" color="#bebebe" stroke-width="2" rx="0"/>
   <rect id="rect5498" width="10" height="12" x="-178" y="-1405" transform="matrix(0,1,-1,0,0,0)" fill="url(#linearGradient6402)" stroke="#000000" color="#bebebe" stroke-width="0" rx="0"/>
   <rect transform="matrix(0,1,-1,0,0,0)" y="-1404" x="-177" height="10" width="8" id="rect3373" fill="url(#linearGradient6404)" color="#bebebe" stroke-width="0" rx="0"/>
   <g transform="matrix(0.83333333,0,0,0.83333333,234.41667,-32.270878)" id="g6352">
    <rect id="rect4145" width="12" height="1.059" x="1391.5" y="-165.65" opacity="0.3" color="#000000" stroke-width="6"/>
    <path sodipodi:type="arc" id="path4135" sodipodi:cx="328" sodipodi:cy="260" sodipodi:rx="4" sodipodi:ry="4" d="m 332,260 c 0,2.20914 -1.79086,4 -4,4 -2.20914,0 -4,-1.79086 -4,-4 0,-2.20914 1.79086,-4 4,-4 2.20914,0 4,1.79086 4,4 z" transform="matrix(0.35294118,0,0,0.35294118,1279.3228,-259.40249)" opacity="0.1" fill="none" stroke="#fed8cd" color="#000000" stroke-width="13.6"/>
    <path transform="matrix(0.35294118,0,0,0.35294118,1279.3228,-259.40249)" d="m 332,260 c 0,2.20914 -1.79086,4 -4,4 -2.20914,0 -4,-1.79086 -4,-4 0,-2.20914 1.79086,-4 4,-4 2.20914,0 4,1.79086 4,4 z" sodipodi:ry="4" sodipodi:rx="4" sodipodi:cy="260" sodipodi:cx="328" id="path4133" sodipodi:type="arc" opacity="0.1" fill="none" stroke="#fed8cd" color="#000000" stroke-width="6.8"/>
    <path sodipodi:type="arc" id="path4139" sodipodi:cx="328" sodipodi:cy="260" sodipodi:rx="4" sodipodi:ry="4" d="m 332,260 c 0,2.20914 -1.79086,4 -4,4 -2.20914,0 -4,-1.79086 -4,-4 0,-2.20914 1.79086,-4 4,-4 2.20914,0 4,1.79086 4,4 z" transform="matrix(0,-0.35294118,0.35294118,0,1303.3228,-51.873061)" fill="url(#linearGradient6406)" fill-rule="evenodd" color="#000000" stroke-width="14"/>
    <path d="m 1391.5,-165.64808 0,-0.35294 c 0,0 0.8908,-0.5882 1.1412,-0.63951 0.2505,-0.0513 0.5463,-0.009 0.8502,0.0478 0.304,0.0572 0.7578,0.13451 0.8994,0.13936 0.1416,0.005 0.3979,-0.0125 0.6957,-0.0302 0.2978,-0.0177 0.7909,-0.034 0.9447,-0.0322 0.1538,0.002 0.5377,0.0213 0.947,0.0462 0.4093,0.0249 0.9714,0.0669 1.0989,0.0786 0.1276,0.0117 0.2775,0.0332 0.4476,0.0567 0.1702,0.0234 0.4647,0.0584 0.5689,0.0681 0.1042,0.01 0.3458,0.0427 0.626,0.0686 0.2803,0.0258 0.7289,0.0347 0.8584,0.025 0.1295,-0.01 0.401,-0.10548 0.7036,-0.19386 0.3026,-0.0884 0.6362,-0.16933 0.89,-0.1493 0.2538,0.0201 1.3284,0.51474 1.3284,0.51474 l 0,0.35294 -1.5,0 -1.5,0 -1.5,0 -1.5,0 -1.5,0 -1.5,0 -1.5,0 z" id="path4141" inkscape:connector-curvature="0" sodipodi:nodetypes="cczszszszszszszcccccccccc"/>
    <path sodipodi:nodetypes="cczszszszszszszcccccccccc" inkscape:connector-curvature="0" id="path4143" d="m 1391.5,-165.64807 0,0.23029 c 0,0 0.8908,0.38376 1.1412,0.41725 0.2505,0.0335 0.5463,0.006 0.8502,-0.0311 0.304,-0.0373 0.7578,-0.0878 0.8994,-0.0909 0.1416,-0.004 0.3979,0.008 0.6957,0.0198 0.2978,0.0116 0.7909,0.0222 0.9447,0.0208 0.1538,0 0.5377,-0.0138 0.947,-0.03 0.4093,-0.0162 0.9714,-0.0437 1.0989,-0.0513 0.1276,-0.008 0.2775,-0.0215 0.4476,-0.037 0.1702,-0.0152 0.4647,-0.0381 0.5689,-0.0444 0.1042,-0.006 0.3458,-0.0279 0.626,-0.0448 0.2803,-0.0169 0.7289,-0.0226 0.8584,-0.0162 0.1295,0.006 0.401,0.0688 0.7036,0.12649 0.3026,0.0577 0.6362,0.11047 0.89,0.0974 0.2538,-0.013 1.3284,-0.33582 1.3284,-0.33582 l 0,-0.23026 -1.5,0 -1.5,0 -1.5,0 -1.5,0 -1.5,0 -1.5,0 -1.5,0 z" opacity="0.9"/>
   </g>
   <path d="m 1404,-177.00028 0,8 -10,0 0,-8 10,0 z m -1,1 -8,0 0,6 8,0 0,-6 z" id="rect7398" inkscape:connector-curvature="0" opacity="0.15" color="#bebebe" stroke-width="0"/>
  </g>
  <rect id="rect7403" width="12" height="1" x="2" y="3" opacity="0.15" fill="#ffffff"/>
 </g>
</svg>
