<?xml version="1.0" encoding="UTF-8" standalone="no"?>
<svg xmlns="http://www.w3.org/2000/svg" xmlns:xlink="http://www.w3.org/1999/xlink" xmlns:sodipodi="http://sodipodi.sourceforge.net/DTD/sodipodi-0.dtd" xmlns:inkscape="http://www.inkscape.org/namespaces/inkscape" width="16" height="16" version="1.1">
 <defs id="defs5402">
  <clipPath id="clipPath11908-0">
   <path id="path11910-2" d="m 432,129 0,1 0,3 0,2 0,7.5 c 0,0 0,1.5 1.5,1.5 l 13,0 c 0,0 1.5,0 1.5,-1.5 l 0,-7.5 0,-2 0,-1 0,-1 -1,0 -5,0 c -0.66667,0 -0.78125,-0.21875 -1.28125,-0.71875 C 440.21875,129.78125 439.33333,129 438,129 l -5,0 -1,0 z"/>
  </clipPath>
  <linearGradient y2="136" x2="0" y1="129" gradientUnits="userSpaceOnUse" id="linearGradient5379" xlink:href="#linearGradient11342-5" inkscape:collect="always"/>
  <linearGradient id="linearGradient11342-5">
   <stop id="stop11344-0" stop-color="#ffffff"/>
   <stop offset="1" id="stop11346-0" stop-color="#ffffff" stop-opacity="0"/>
  </linearGradient>
  <clipPath id="clipPath11561-9">
   <path d="m 432,128.99972 16,0 0,9.5 c 0,1.5 -1.5,1.5 -1.5,1.5 l -13,0 c -1.5,0 -1.5002,-1.5 -1.5002,-1.5 z" id="path11563-7"/>
  </clipPath>
  <linearGradient inkscape:collect="always" xlink:href="#linearGradient4968" id="linearGradient11891-1" gradientUnits="userSpaceOnUse" gradientTransform="matrix(0.38091417,0,0,0.38091417,-116.93905,-87.847007)" y1="228" x2="0" y2="276"/>
  <linearGradient id="linearGradient4968">
   <stop id="stop4970" stop-color="#f1e6f4"/>
   <stop offset="1" id="stop4972" stop-color="#c9bcce"/>
  </linearGradient>
  <linearGradient gradientTransform="translate(-432,-124)" y2="131" x2="0" y1="127" gradientUnits="userSpaceOnUse" id="linearGradient5325" xlink:href="#linearGradient11359" inkscape:collect="always"/>
  <linearGradient id="linearGradient11359">
   <stop id="stop11361" stop-color="#d5cbd7"/>
   <stop offset="1" id="stop11363" stop-color="#d9bfdf"/>
  </linearGradient>
 </defs>
 <metadata id="metadata5405"/>
 <g id="layer1" inkscape:label="Layer 1" inkscape:groupmode="layer">
  <path inkscape:connector-curvature="0" id="path4938-1" d="m 0.50000014,1.49972 0,0.5 0,4.5 14.99999986,0 0,-2.5 0,-0.5 -0.5,0 -5,0 c -0.3880199,0 -0.7106699,-0.0767 -0.9687499,-0.25 -0.25808,-0.17334 -0.41853,-0.38728 -0.65625,-0.625 -0.47545,-0.47545 -1.23698,-1.125 -2.375,-1.125 l -5,0 -0.49999996,0 z" color="#000000" stroke-width="2" fill="url(#linearGradient5325)"/>
  <path inkscape:connector-curvature="0" id="path11441" d="m 0.50000014,5.49972 0,9 c 0,0 -0.003,0.27549 0.125,0.53125 0.12792,0.25576 0.29167,0.46875 0.87499996,0.46875 l 12.9999999,0 c 0,0 0.27551,0.003 0.53125,-0.125 C 15.28699,15.24685 15.5,15.08305 15.5,14.49972 l 0,-9 -14.99999986,0 z" color="#000000" stroke-width="2" fill="url(#linearGradient11891-1)"/>
  <path d="m 1,4.9997253 14,0 0,1 -14,0 z" id="rect11912" opacity="0.41" color="#000000"/>
  <path inkscape:connector-curvature="0" d="M 1,6 1,7 15,7 15,6 1,6 z" id="path7434" opacity="0.1" color="#000000" stroke-width="2" fill="#ffffff"/>
  <path d="m 0,1 0,0.5 0,0.5 0,3.5 0,1 0,8 c 0,0 -0.00621212,0.362939 0.1875,0.75 0.0773025,0.154557 0.20365347,0.377775 0.4375,0.53125 C 0.85884653,15.934725 1.1474804,16 1.5,16 l 13,0 c 0,0 0.362935,0.0062 0.75,-0.1875 0.154588,-0.07729 0.377775,-0.203649 0.53125,-0.4375 C 15.934725,15.141149 16,14.852525 16,14.5 l 0,-8 0,-1 L 16,4 16,3.5 16,3 15.5,3 15,3 10,3 C 9.6778702,3 9.4671458,2.9475942 9.3125,2.84375 9.1378513,2.7264468 9.0002051,2.5335604 8.75,2.28125 l -0.03125,0 C 8.2155432,1.7780432 7.3282773,1 6,1 L 1,1 0.5,1 0,1 z M 1,2 6,2 C 6.9477627,2 7.5835568,2.5210568 8.03125,2.96875 8.242452,3.179952 8.4134711,3.4302197 8.75,3.65625 9.1115142,3.8990058 9.54609,4 10,4 l 5,0 0,1.5 0,1 0,8 c 0,0.230805 -0.04553,0.317901 -0.0625,0.34375 -0.01697,0.02585 -0.02385,0.04317 -0.125,0.09375 C 14.688085,14.999771 14.5,15 14.5,15 l -13,0 C 1.2691897,15 1.182091,14.95446 1.15625,14.9375 1.130409,14.92054 1.1131175,14.913703 1.0625,14.8125 1.0002121,14.688041 1,14.5 1,14.5 L 1,6.5 1,5.5 1,2 z" id="path3007" inkscape:connector-curvature="0" opacity="0.41" color="#000000"/>
 </g>
</svg>
