<?xml version="1.0" encoding="UTF-8" standalone="no"?>
<!-- Created with Inkscape (http://www.inkscape.org/) -->

<svg
   xmlns:dc="http://purl.org/dc/elements/1.1/"
   xmlns:cc="http://creativecommons.org/ns#"
   xmlns:rdf="http://www.w3.org/1999/02/22-rdf-syntax-ns#"
   xmlns:svg="http://www.w3.org/2000/svg"
   xmlns="http://www.w3.org/2000/svg"
   xmlns:xlink="http://www.w3.org/1999/xlink"
   xmlns:sodipodi="http://sodipodi.sourceforge.net/DTD/sodipodi-0.dtd"
   xmlns:inkscape="http://www.inkscape.org/namespaces/inkscape"
   width="16px"
   height="16px"
   id="svg5400"
   version="1.1"
   inkscape:version="0.48.4 r9939"
   sodipodi:docname="media-optical.svg">
  <defs
     id="defs5402">
    <linearGradient
       id="linearGradient4228">
      <stop
         style="stop-color:#ffffff;stop-opacity:1;"
         offset="0"
         id="stop4230" />
      <stop
         id="stop4262"
         offset="0.22413793"
         style="stop-color:#ffffff;stop-opacity:0.85098039;" />
      <stop
         style="stop-color:#ffffff;stop-opacity:0.70253164;"
         offset="1"
         id="stop4232" />
    </linearGradient>
    <linearGradient
       id="outerBackgroundGradient">
      <stop
         style="stop-color:#b79877;stop-opacity:1;"
         offset="0"
         id="stop3864-8-6" />
      <stop
         style="stop-color:#f7d2a2;stop-opacity:1;"
         offset="1"
         id="stop3866-9-1" />
    </linearGradient>
    <clipPath
       clipPathUnits="userSpaceOnUse"
       id="clipPath4308">
      <path
         id="path4310"
         d="m 424,145 c -1.65685,0 -3,1.34315 -3,3 0,1.65685 1.34315,3 3,3 1.65685,0 3,-1.34315 3,-3 0,-1.65685 -1.34315,-3 -3,-3 z m 0,2 c 0.55228,0 1,0.44772 1,1 0,0.55228 -0.44772,1 -1,1 -0.55228,0 -1,-0.44772 -1,-1 0,-0.55228 0.44772,-1 1,-1 z"
         style="opacity:0.4;color:#000000;fill:#ffffff;fill-opacity:1;stroke:none;stroke-width:2;marker:none;visibility:visible;display:inline;overflow:visible;enable-background:new"
         inkscape:connector-curvature="0" />
    </clipPath>
    <clipPath
       clipPathUnits="userSpaceOnUse"
       id="clipPath4288">
      <path
         style="fill:url(#linearGradient4293);fill-opacity:1;fill-rule:nonzero;stroke:none;display:inline;enable-background:new"
         d="m 424,140 c -4.43433,0 -8,3.56568 -8,8 0,4.43433 3.56567,8 8,8 4.43432,0 8,-3.56567 8,-8 0,-4.43432 -3.56568,-8 -8,-8 z m 0,5 c 1.65685,0 3,1.34315 3,3 0,1.65685 -1.34315,3 -3,3 -1.65685,0 -3,-1.34315 -3,-3 0,-1.65685 1.34315,-3 3,-3 z"
         id="path4290"
         inkscape:connector-curvature="0" />
    </clipPath>
    <clipPath
       clipPathUnits="userSpaceOnUse"
       id="clipPath4045">
      <path
         d="m 377.5,75.999997 c 0,-23.003065 -18.49694,-41.499998 -41.5,-41.499998 -23.00307,0 -41.5,18.496935 -41.5,41.499998 0,23.003064 18.49693,41.500003 41.5,41.500003 23.00306,-1e-5 41.5,-18.496936 41.5,-41.500003 z m -24.95648,0 c 0,8.356947 -8.01936,15.845456 -16.54352,15.845456 -8.69138,0 -16.54352,-7.657431 -16.54352,-15.845456 0,-8.355272 6.12158,-17.328843 16.54352,-17.328843 10.77097,0 16.54352,9.139112 16.54352,17.328843 z"
         inkscape:connector-curvature="0"
         id="path4047"
         style="fill:url(#linearGradient4049);fill-opacity:1;fill-rule:nonzero;stroke:none" />
    </clipPath>
    <clipPath
       clipPathUnits="userSpaceOnUse"
       id="clipPath4078">
      <path
         id="path4080"
         d="m 336,58 c -9.38884,0 -17,7.61116 -17,17 0,9.38884 7.61116,17 17,17 9.38884,0 17,-7.61116 17,-17 0,-9.38884 -7.61116,-17 -17,-17 z m 0,8 c 4.97056,0 9,4.029437 9,9 0,4.970563 -4.02944,9 -9,9 -4.97056,0 -9,-4.029437 -9,-9 0,-4.970563 4.02944,-9 9,-9 z"
         style="opacity:0.2;color:#000000;fill:#ffffff;fill-opacity:1;stroke:none;stroke-width:3.21759868;marker:none;visibility:visible;display:inline;overflow:visible;enable-background:new"
         inkscape:connector-curvature="0" />
    </clipPath>
    <filter
       color-interpolation-filters="sRGB"
       inkscape:collect="always"
       id="filter4773">
      <feGaussianBlur
         inkscape:collect="always"
         stdDeviation="0.60835228"
         id="feGaussianBlur4775" />
    </filter>
    <linearGradient
       inkscape:collect="always"
       xlink:href="#linearGradient3487"
       id="linearGradient4253"
       gradientUnits="userSpaceOnUse"
       gradientTransform="matrix(0.37866078,0.01069876,-0.01069876,0.37866078,-1.00482,-1.5099049)"
       spreadMethod="reflect"
       x1="20.580074"
       y1="10.774516"
       x2="24.27351"
       y2="9.8622112" />
    <linearGradient
       id="linearGradient3487">
      <stop
         id="stop3489"
         style="stop-color:#e6cde2;stop-opacity:1"
         offset="0" />
      <stop
         id="stop3491"
         style="stop-color:#e6cde2;stop-opacity:0"
         offset="1" />
    </linearGradient>
    <linearGradient
       inkscape:collect="always"
       xlink:href="#linearGradient3503"
       id="linearGradient4257"
       gradientUnits="userSpaceOnUse"
       gradientTransform="matrix(0.3788119,0,0,0.3788119,-1.26712,-1.2557749)"
       spreadMethod="reflect"
       x1="14.084608"
       y1="13.045606"
       x2="16.994024"
       y2="10.732353" />
    <linearGradient
       id="linearGradient3503">
      <stop
         id="stop3505"
         style="stop-color:#c4ebdd;stop-opacity:1"
         offset="0" />
      <stop
         id="stop3507"
         style="stop-color:#c4ebdd;stop-opacity:0"
         offset="1" />
    </linearGradient>
    <linearGradient
       inkscape:collect="always"
       xlink:href="#linearGradient3495"
       id="linearGradient4260"
       gradientUnits="userSpaceOnUse"
       gradientTransform="matrix(0.3788119,0,0,0.3788119,-1.26712,-1.2557749)"
       spreadMethod="reflect"
       x1="17.494959"
       y1="11.200086"
       x2="21.047453"
       y2="9.7956104" />
    <linearGradient
       id="linearGradient3495">
      <stop
         id="stop3497"
         style="stop-color:#c1cbe4;stop-opacity:1"
         offset="0" />
      <stop
         id="stop3499"
         style="stop-color:#c1cbe4;stop-opacity:0"
         offset="1" />
    </linearGradient>
    <linearGradient
       inkscape:collect="always"
       xlink:href="#linearGradient3519"
       id="linearGradient4263"
       gradientUnits="userSpaceOnUse"
       gradientTransform="matrix(0.3788119,0,0,0.3788119,-1.26712,-1.2557749)"
       spreadMethod="reflect"
       x1="10.609375"
       y1="17.886322"
       x2="9.7297754"
       y2="20.612656" />
    <linearGradient
       id="linearGradient3519">
      <stop
         id="stop3521"
         style="stop-color:#fcd9cd;stop-opacity:1"
         offset="0" />
      <stop
         id="stop3523"
         style="stop-color:#fcd9cd;stop-opacity:0"
         offset="1" />
    </linearGradient>
    <linearGradient
       inkscape:collect="always"
       xlink:href="#linearGradient3511"
       id="linearGradient4266"
       gradientUnits="userSpaceOnUse"
       gradientTransform="matrix(0.3788119,0,0,0.3788119,-1.26712,-1.2557749)"
       spreadMethod="reflect"
       x1="12.371647"
       y1="16.188046"
       x2="14.609327"
       y2="13.461712" />
    <linearGradient
       id="linearGradient3511">
      <stop
         id="stop3513"
         style="stop-color:#ebeec7;stop-opacity:1"
         offset="0" />
      <stop
         id="stop3515"
         style="stop-color:#ebeec7;stop-opacity:0"
         offset="1" />
    </linearGradient>
    <linearGradient
       inkscape:collect="always"
       xlink:href="#linearGradient3519"
       id="linearGradient4269"
       gradientUnits="userSpaceOnUse"
       gradientTransform="matrix(-0.38787865,0,0,-0.38787865,17.30909,17.322666)"
       spreadMethod="reflect"
       x1="10.609375"
       y1="17.886322"
       x2="9.7297754"
       y2="20.612656" />
    <linearGradient
       inkscape:collect="always"
       xlink:href="#linearGradient3511"
       id="linearGradient4272"
       gradientUnits="userSpaceOnUse"
       gradientTransform="matrix(-0.38787865,0,0,-0.38787865,17.30909,17.322666)"
       spreadMethod="reflect"
       x1="12.371647"
       y1="16.188046"
       x2="14.609327"
       y2="13.461712" />
    <linearGradient
       inkscape:collect="always"
       xlink:href="#linearGradient3503"
       id="linearGradient4275"
       gradientUnits="userSpaceOnUse"
       gradientTransform="matrix(-0.38787865,0,0,-0.38787865,17.30909,17.322666)"
       spreadMethod="reflect"
       x1="14.084608"
       y1="13.045606"
       x2="16.994024"
       y2="10.732353" />
    <linearGradient
       inkscape:collect="always"
       xlink:href="#linearGradient3495"
       id="linearGradient4278"
       gradientUnits="userSpaceOnUse"
       gradientTransform="matrix(-0.38787865,0,0,-0.38787865,17.30909,17.322666)"
       spreadMethod="reflect"
       x1="17.494959"
       y1="11.200086"
       x2="21.047453"
       y2="9.7956104" />
    <linearGradient
       inkscape:collect="always"
       xlink:href="#linearGradient3487"
       id="linearGradient4281"
       gradientUnits="userSpaceOnUse"
       gradientTransform="matrix(-0.38772393,-0.01095484,0.01095484,-0.38772393,17.04051,17.582856)"
       spreadMethod="reflect"
       x1="20.580074"
       y1="10.774516"
       x2="24.27351"
       y2="9.8622112" />
    <linearGradient
       x1="12.2744"
       y1="32.4165"
       x2="35.391201"
       y2="14.2033"
       id="linearGradient3263-6"
       gradientUnits="userSpaceOnUse">
      <stop
         id="stop3265-8"
         style="stop-color:#eeeeee;stop-opacity:1;"
         offset="0" />
      <stop
         id="stop3267-9"
         style="stop-color:#f4f4f4;stop-opacity:1;"
         offset="0.5" />
      <stop
         id="stop3269-2"
         style="stop-color:#d8d8d8;stop-opacity:1;"
         offset="1" />
    </linearGradient>
    <linearGradient
       y2="14.2033"
       x2="35.391201"
       y1="32.4165"
       x1="12.2744"
       gradientTransform="matrix(0,0.45714671,-0.45714671,0,18.56009,-2.9715248)"
       gradientUnits="userSpaceOnUse"
       id="linearGradient3496"
       xlink:href="#linearGradient3263-6"
       inkscape:collect="always" />
    <clipPath
       clipPathUnits="userSpaceOnUse"
       id="clipPath3271">
      <rect
         style="fill:#ffffff;fill-opacity:1;fill-rule:evenodd;stroke:none"
         id="rect3273"
         width="118"
         height="59"
         x="5"
         y="160.00336" />
    </clipPath>
    <linearGradient
       inkscape:collect="always"
       xlink:href="#linearGradient3236"
       id="linearGradient3917"
       gradientUnits="userSpaceOnUse"
       gradientTransform="matrix(-0.9850397,0.171492,-0.171492,-0.9850397,138.01803,271.06706)"
       x1="5"
       y1="64"
       x2="123"
       y2="64" />
    <linearGradient
       id="linearGradient3236">
      <stop
         id="stop3238"
         offset="0"
         style="stop-color:#ffffff;stop-opacity:0;" />
      <stop
         style="stop-color:#fffc2b;stop-opacity:0.234375;"
         offset="0.34999999"
         id="stop3240" />
      <stop
         style="stop-color:#46d15d;stop-opacity:0.21875;"
         offset="0.5"
         id="stop3242" />
      <stop
         id="stop3244"
         offset="0.64999998"
         style="stop-color:#46d1aa;stop-opacity:0;" />
      <stop
         id="stop3246"
         offset="1"
         style="stop-color:#ffffff;stop-opacity:0;" />
    </linearGradient>
    <linearGradient
       inkscape:collect="always"
       xlink:href="#linearGradient3265"
       id="linearGradient3919"
       gradientUnits="userSpaceOnUse"
       gradientTransform="matrix(-0.8529965,0.5216416,-0.5216416,-0.8529964,151.97682,240.20671)"
       x1="5"
       y1="64"
       x2="123"
       y2="64" />
    <linearGradient
       id="linearGradient3265">
      <stop
         style="stop-color:#ffffff;stop-opacity:0;"
         offset="0"
         id="stop3267" />
      <stop
         id="stop3252"
         offset="0.2"
         style="stop-color:#afcff3;stop-opacity:0;" />
      <stop
         id="stop3269"
         offset="0.34999999"
         style="stop-color:#60a0e7;stop-opacity:0.1484375;" />
      <stop
         id="stop3271"
         offset="0.5"
         style="stop-color:#db8ef1;stop-opacity:0.2109375;" />
      <stop
         style="stop-color:#ffffff;stop-opacity:0;"
         offset="0.64999998"
         id="stop3273" />
      <stop
         style="stop-color:#ffffff;stop-opacity:0;"
         offset="1"
         id="stop3275" />
    </linearGradient>
    <linearGradient
       inkscape:collect="always"
       xlink:href="#linearGradient3247"
       id="linearGradient3921"
       gradientUnits="userSpaceOnUse"
       gradientTransform="matrix(-0.881451,-0.4719713,0.4719713,-0.881451,90.206697,305.61903)"
       x1="5"
       y1="64"
       x2="123"
       y2="64" />
    <linearGradient
       id="linearGradient3247">
      <stop
         id="stop3249"
         offset="0"
         style="stop-color:#ffffff;stop-opacity:0;" />
      <stop
         id="stop3293"
         offset="0.30000001"
         style="stop-color:#d5d5d5;stop-opacity:0;" />
      <stop
         style="stop-color:#eb8888;stop-opacity:0.2578125;"
         offset="0.5"
         id="stop3251" />
      <stop
         id="stop3295"
         offset="0.69999999"
         style="stop-color:#e28f25;stop-opacity:0;" />
      <stop
         id="stop3253"
         offset="1"
         style="stop-color:#ffffff;stop-opacity:0;" />
    </linearGradient>
    <clipPath
       clipPathUnits="userSpaceOnUse"
       id="clipPath3194">
      <rect
         style="fill:#ffffff;fill-opacity:1;fill-rule:evenodd;stroke:none"
         id="rect3196"
         width="118"
         height="59"
         x="5"
         y="160.00336" />
    </clipPath>
    <linearGradient
       inkscape:collect="always"
       xlink:href="#linearGradient3236"
       id="linearGradient3923"
       gradientUnits="userSpaceOnUse"
       gradientTransform="matrix(-0.9850397,0.171492,-0.171492,-0.9850397,138.01803,271.06706)"
       x1="5"
       y1="64"
       x2="123"
       y2="64" />
    <linearGradient
       id="linearGradient3199">
      <stop
         id="stop3201"
         offset="0"
         style="stop-color:#ffffff;stop-opacity:0;" />
      <stop
         style="stop-color:#fffc2b;stop-opacity:0.234375;"
         offset="0.34999999"
         id="stop3203" />
      <stop
         style="stop-color:#46d15d;stop-opacity:0.21875;"
         offset="0.5"
         id="stop3205" />
      <stop
         id="stop3207"
         offset="0.64999998"
         style="stop-color:#46d1aa;stop-opacity:0;" />
      <stop
         id="stop3209"
         offset="1"
         style="stop-color:#ffffff;stop-opacity:0;" />
    </linearGradient>
    <linearGradient
       inkscape:collect="always"
       xlink:href="#linearGradient3265"
       id="linearGradient3925"
       gradientUnits="userSpaceOnUse"
       gradientTransform="matrix(-0.8529965,0.5216416,-0.5216416,-0.8529964,151.97682,240.20671)"
       x1="5"
       y1="64"
       x2="123"
       y2="64" />
    <linearGradient
       id="linearGradient3212">
      <stop
         style="stop-color:#ffffff;stop-opacity:0;"
         offset="0"
         id="stop3214" />
      <stop
         id="stop3216"
         offset="0.2"
         style="stop-color:#afcff3;stop-opacity:0;" />
      <stop
         id="stop3218"
         offset="0.34999999"
         style="stop-color:#60a0e7;stop-opacity:0.1484375;" />
      <stop
         id="stop3220"
         offset="0.5"
         style="stop-color:#db8ef1;stop-opacity:0.2109375;" />
      <stop
         style="stop-color:#ffffff;stop-opacity:0;"
         offset="0.64999998"
         id="stop3222" />
      <stop
         style="stop-color:#ffffff;stop-opacity:0;"
         offset="1"
         id="stop3224" />
    </linearGradient>
    <linearGradient
       inkscape:collect="always"
       xlink:href="#linearGradient3247"
       id="linearGradient3927"
       gradientUnits="userSpaceOnUse"
       gradientTransform="matrix(-0.881451,-0.4719713,0.4719713,-0.881451,90.206697,305.61903)"
       x1="5"
       y1="64"
       x2="123"
       y2="64" />
    <linearGradient
       id="linearGradient3227">
      <stop
         id="stop3229"
         offset="0"
         style="stop-color:#ffffff;stop-opacity:0;" />
      <stop
         id="stop3231"
         offset="0.30000001"
         style="stop-color:#d5d5d5;stop-opacity:0;" />
      <stop
         style="stop-color:#eb8888;stop-opacity:0.2578125;"
         offset="0.5"
         id="stop3233" />
      <stop
         id="stop3235"
         offset="0.69999999"
         style="stop-color:#e28f25;stop-opacity:0;" />
      <stop
         id="stop3237"
         offset="1"
         style="stop-color:#ffffff;stop-opacity:0;" />
    </linearGradient>
    <linearGradient
       inkscape:collect="always"
       xlink:href="#linearGradient3247"
       id="linearGradient3972"
       gradientUnits="userSpaceOnUse"
       gradientTransform="matrix(-0.02147941,0.12526976,0.12526472,0.02148028,1.357766,-1.3920127)"
       x1="5"
       y1="64"
       x2="123"
       y2="64" />
    <linearGradient
       inkscape:collect="always"
       xlink:href="#linearGradient3263-6"
       id="linearGradient4031"
       gradientUnits="userSpaceOnUse"
       gradientTransform="matrix(0,0.45714671,-0.45714671,0,18.56009,-2.9715248)"
       x1="12.2744"
       y1="32.4165"
       x2="35.391201"
       y2="14.2033" />
  </defs>
  <sodipodi:namedview
     id="base"
     pagecolor="#ffffff"
     bordercolor="#666666"
     borderopacity="1.0"
     inkscape:pageopacity="0.0"
     inkscape:pageshadow="2"
     inkscape:zoom="1"
     inkscape:cx="3.8212983"
     inkscape:cy="11.081269"
     inkscape:current-layer="layer1"
     showgrid="false"
     showborder="false"
     inkscape:grid-bbox="true"
     inkscape:document-units="px"
     inkscape:window-width="1364"
     inkscape:window-height="700"
     inkscape:window-x="0"
     inkscape:window-y="28"
     inkscape:window-maximized="1"
     inkscape:snap-bbox="true"
     inkscape:bbox-paths="true"
     inkscape:bbox-nodes="true"
     inkscape:snap-bbox-midpoints="true"
     inkscape:snap-bbox-edge-midpoints="true">
    <inkscape:grid
       type="xygrid"
       id="grid3025"
       empspacing="4"
       visible="true"
       enabled="true"
       snapvisiblegridlinesonly="true" />
  </sodipodi:namedview>
  <metadata
     id="metadata5405">
    <rdf:RDF>
      <cc:Work
         rdf:about="">
        <dc:format>image/svg+xml</dc:format>
        <dc:type
           rdf:resource="http://purl.org/dc/dcmitype/StillImage" />
        <dc:title />
      </cc:Work>
    </rdf:RDF>
  </metadata>
  <g
     id="layer1"
     inkscape:label="Background"
     inkscape:groupmode="layer"
     style="display:inline">
    <path
       style="fill:url(#linearGradient4031);fill-opacity:1;fill-rule:nonzero;stroke:none;display:inline;enable-background:new"
       d="M 8 1 C 4.1004317 1 1 4.1004416 1 8 C 1 11.89957 4.1004309 15 8 15 C 11.899558 15 15 11.899569 15 8 C 15 4.1004424 11.899558 1 8 1 z M 8 4 C 10.199146 4 12 5.8008537 12 8 C 12 10.199147 10.199146 12 8 12 C 5.8008537 12 4 10.199147 4 8 C 4 5.8008537 5.8008537 4 8 4 z "
       id="path4556" />
    <g
       style="display:inline"
       id="g3289"
       transform="matrix(0.07807683,-0.10030989,0.10030586,0.07807997,-18.964211,-2.6799534)"
       clip-path="none">
      <g
         clip-path="url(#clipPath3271)"
         id="g3266">
        <path
           id="path3259"
           d="M 74.118027,277.11735 C 106.19881,271.5322 127.70249,240.96275 122.11734,208.88198 116.5322,176.8012 85.962749,155.29751 53.881978,160.88266 21.801203,166.46781 0.29750806,197.03725 5.8826547,229.11804 11.4678,261.19881 42.037246,282.70249 74.118027,277.11735 z m -6.516698,-37.43151 c -11.41858,1.98793 -22.299227,-5.66593 -24.287158,-17.08451 -1.987941,-11.41857 5.665921,-22.29923 17.084499,-24.28716 11.41858,-1.98793 22.299233,5.66593 24.28717,17.08451 1.987924,11.41857 -5.665932,22.29923 -17.084511,24.28716 z"
           style="fill:url(#linearGradient3917);fill-opacity:1;fill-rule:evenodd;stroke:none;display:inline"
           inkscape:connector-curvature="0" />
        <path
           style="fill:url(#linearGradient3919);fill-opacity:1;fill-rule:evenodd;stroke:none;display:inline"
           d="M 94.776853,269.3268 C 122.55724,252.33798 131.31561,216.00355 114.32679,188.22315 97.337964,160.44278 61.003543,151.6844 33.223145,168.67322 5.4427579,185.66204 -3.3156068,221.99648 13.673211,249.77686 30.662035,277.55725 66.996455,286.31562 94.776853,269.3268 z M 74.954469,236.91293 c -9.88793,6.04687 -22.820523,2.92947 -28.867393,-6.95846 -6.046863,-9.88793 -2.929476,-22.82053 6.958454,-28.86739 9.887938,-6.04686 22.820537,-2.92949 28.867401,6.95845 6.046855,9.88793 2.929476,22.82053 -6.958462,28.8674 z"
           id="path3231"
           inkscape:connector-curvature="0" />
        <path
           style="fill:url(#linearGradient3921);fill-opacity:1;fill-rule:evenodd;stroke:none;display:inline"
           d="m 36.153689,271.00561 c 28.707102,15.37117 64.480751,4.54779 79.851921,-24.1593 15.37116,-28.70708 4.5478,-64.48074 -24.159308,-79.85191 -28.707087,-15.37116 -64.480736,-4.5478 -79.851909,24.15931 -15.371173,28.70708 -4.5478122,64.48073 24.159296,79.8519 z m 17.934913,-33.49512 c -10.217773,-5.4711 -14.070163,-18.2041 -8.599064,-28.42189 5.471077,-10.21777 18.204079,-14.07015 28.421859,-8.59906 10.217787,5.47108 14.07017,18.2041 8.599071,28.42186 -5.471084,10.21778 -18.204093,14.07016 -28.421866,8.59909 z"
           id="path3243"
           inkscape:connector-curvature="0" />
      </g>
      <g
         transform="matrix(1,0,0,-1,0,438.00336)"
         id="g3275"
         clip-path="url(#clipPath3271)">
        <path
           style="fill:url(#linearGradient3923);fill-opacity:1;fill-rule:evenodd;stroke:none;display:inline"
           d="M 74.118027,277.11735 C 106.19881,271.5322 127.70249,240.96275 122.11734,208.88198 116.5322,176.8012 85.962749,155.29751 53.881978,160.88266 21.801203,166.46781 0.29750806,197.03725 5.8826547,229.11804 11.4678,261.19881 42.037246,282.70249 74.118027,277.11735 z m -6.516698,-37.43151 c -11.41858,1.98793 -22.299227,-5.66593 -24.287158,-17.08451 -1.987941,-11.41857 5.665921,-22.29923 17.084499,-24.28716 11.41858,-1.98793 22.299233,5.66593 24.28717,17.08451 1.987924,11.41857 -5.665932,22.29923 -17.084511,24.28716 z"
           id="path3277"
           inkscape:connector-curvature="0" />
        <path
           id="path3279"
           d="M 94.776853,269.3268 C 122.55724,252.33798 131.31561,216.00355 114.32679,188.22315 97.337964,160.44278 61.003543,151.6844 33.223145,168.67322 5.4427579,185.66204 -3.3156068,221.99648 13.673211,249.77686 30.662035,277.55725 66.996455,286.31562 94.776853,269.3268 z M 74.954469,236.91293 c -9.88793,6.04687 -22.820523,2.92947 -28.867393,-6.95846 -6.046863,-9.88793 -2.929476,-22.82053 6.958454,-28.86739 9.887938,-6.04686 22.820537,-2.92949 28.867401,6.95845 6.046855,9.88793 2.929476,22.82053 -6.958462,28.8674 z"
           style="fill:url(#linearGradient3925);fill-opacity:1;fill-rule:evenodd;stroke:none;display:inline"
           inkscape:connector-curvature="0" />
        <path
           style="fill:url(#linearGradient3972);fill-opacity:1;fill-rule:evenodd;stroke:none;display:inline"
           d="M 8 1 C 4.1004317 1 1 4.1004416 1 8 C 1 11.89957 4.1004309 15 8 15 C 11.899558 15 15 11.899569 15 8 C 15 4.1004424 11.899558 1 8 1 z M 8 4 C 10.199146 4 12 5.8008537 12 8 C 12 10.199147 10.199146 12 8 12 C 5.8008537 12 4 10.199147 4 8 C 4 5.8008537 5.8008537 4 8 4 z M 8 5 C 6.3450063 5 5 6.3450063 5 8 C 5 9.6549942 6.3450063 11 8 11 C 9.6549937 11 11 9.6549942 11 8 C 11 6.3450063 9.6549937 5 8 5 z M 7.90625 5.34375 C 8.0834537 5.338044 8.2559915 5.343875 8.4375 5.375 C 9.8895673 5.6239971 10.873991 6.9853731 10.625 8.4375 C 10.376011 9.8896269 9.0145666 10.874 7.5625 10.625 C 6.1104297 10.376001 5.1260121 9.014627 5.375 7.5625 C 5.5928671 6.2918909 6.6658241 5.3836918 7.90625 5.34375 z "
           transform="matrix(4.8323074,-6.2080995,-6.2078501,-4.832113,75.004148,307.32181)"
           id="path3281" />
      </g>
    </g>
    <path
       inkscape:connector-curvature="0"
       style="opacity:0.4;color:#000000;fill:#ffffff;fill-opacity:1;stroke:none;stroke-width:2;marker:none;visibility:visible;display:inline;overflow:visible;enable-background:new"
       d="m 8,4.9999952 c -1.65685,0 -3,1.34315 -3,3 0,1.6568504 1.34315,3.0000008 3,3.0000008 1.65685,0 3,-1.3431504 3,-3.0000008 0,-1.65685 -1.34315,-3 -3,-3 z m 0,2 c 0.55228,0 1,0.44772 1,1 0,0.55228 -0.44772,1 -1,1 -0.55228,0 -1,-0.44772 -1,-1 0,-0.55228 0.44772,-1 1,-1 z"
       id="path4295" />
    <path
       transform="translate(-416,-140)"
       id="path4303"
       d="m 424,147 c 0.55228,0 1,0.44772 1,1 0,0.55228 -0.44772,1 -1,1 -0.55228,0 -1,-0.44772 -1,-1 0,-0.55228 0.44772,-1 1,-1 z"
       style="opacity:0.1;color:#000000;fill:none;stroke:#000000;stroke-width:2;stroke-linejoin:round;stroke-miterlimit:4;stroke-opacity:1;stroke-dasharray:none;marker:none;visibility:visible;display:inline;overflow:visible;enable-background:new"
       inkscape:connector-curvature="0"
       sodipodi:nodetypes="sssss"
       clip-path="url(#clipPath4308)" />
    <path
       style="fill:#ffffff;fill-opacity:1;fill-rule:nonzero;stroke:none;display:inline;enable-background:new;opacity:0.2"
       d="M 8 0.5 C 3.83371 0.5 0.5 3.83372 0.5 8 C 0.5 8.1668014 0.52072345 8.3360282 0.53125 8.5 C 0.7836509 4.5683652 4.0005113 1.5 8 1.5 C 11.999479 1.5 15.216348 4.5683652 15.46875 8.5 C 15.479277 8.3360282 15.5 8.1668014 15.5 8 C 15.5 3.83372 12.16628 0.5 8 0.5 z M 4.53125 8.5 C 4.5083594 8.6610883 4.5 8.8327824 4.5 9 C 4.5 10.927071 6.07293 12.5 8 12.5 C 9.92707 12.5 11.5 10.927071 11.5 9 C 11.5 8.8327824 11.491641 8.6610883 11.46875 8.5 C 11.227842 10.195346 9.7598524 11.5 8 11.5 C 6.2401476 11.5 4.7721581 10.195346 4.53125 8.5 z "
       id="path3179" />
    <path
       id="path3964"
       d="m 8,0.49999515 c -4.16629,0 -7.50000003,3.33372005 -7.50000003,7.50000005 0,4.1662908 3.33371003,7.5000008 7.50000003,7.5000008 4.16628,0 7.5,-3.33371 7.5,-7.5000008 0,-4.16628 -3.33372,-7.50000005 -7.5,-7.50000005 z M 8,4.4999952 c 1.92707,0 3.5,1.57293 3.5,3.5 0,1.9270704 -1.57293,3.5000008 -3.5,3.5000008 -1.92707,0 -3.5,-1.5729304 -3.5,-3.5000008 0,-1.92707 1.57293,-3.5 3.5,-3.5 z"
       style="fill:none;fill-opacity:1;fill-rule:nonzero;stroke:#000000;display:inline;enable-background:new;stroke-opacity:1;opacity:0.41"
       inkscape:connector-curvature="0" />
  </g>
  <g
     inkscape:groupmode="layer"
     id="layer2"
     inkscape:label="Symbol"
     style="display:inline" />
</svg>
