<?xml version="1.0" encoding="UTF-8" standalone="no"?>
<svg xmlns="http://www.w3.org/2000/svg" xmlns:xlink="http://www.w3.org/1999/xlink" xmlns:sodipodi="http://sodipodi.sourceforge.net/DTD/sodipodi-0.dtd" xmlns:inkscape="http://www.inkscape.org/namespaces/inkscape" width="16" height="16" version="1.1">
 <defs id="defs5402">
  <linearGradient inkscape:collect="always" id="linearGradient3818">
   <stop id="stop3820"/>
   <stop offset="1" id="stop3822" stop-opacity="0.515"/>
  </linearGradient>
  <linearGradient id="linearGradient3904">
   <stop id="stop3906" stop-color="#104b88"/>
   <stop id="stop3908" offset="1" stop-color="#0e7398"/>
  </linearGradient>
  <linearGradient inkscape:collect="always" id="linearGradient3804">
   <stop id="stop3806" stop-color="#ffffff"/>
   <stop offset="1" id="stop3808" stop-color="#ffffff" stop-opacity="0"/>
  </linearGradient>
  <linearGradient inkscape:collect="always" xlink:href="#linearGradient3804" id="linearGradient6750" x1="443.5" y1="-178.5" x2="444" y2="-175.5" gradientUnits="userSpaceOnUse" gradientTransform="translate(-433,180.00027)"/>
  <linearGradient inkscape:collect="always" xlink:href="#linearGradient3804" id="linearGradient6736" x1="435" x2="438" gradientUnits="userSpaceOnUse"/>
  <linearGradient inkscape:collect="always" xlink:href="#linearGradient5621" id="linearGradient5956" y1="63.937" x2="0" y2="47.937" gradientUnits="userSpaceOnUse" gradientTransform="translate(-1400.9375,-47.937495)"/>
  <linearGradient id="linearGradient5621">
   <stop id="stop5623" stop-color="#0b0b0b"/>
   <stop offset="1" id="stop5625" stop-color="#585858"/>
  </linearGradient>
  <linearGradient id="linearGradient8589">
   <stop id="stop8591" stop-color="#fefefe"/>
   <stop id="stop8593" offset="1" stop-color="#cbcbcb"/>
  </linearGradient>
  <radialGradient cx="102" cy="112.3" r="139.56" id="XMLID_8_" gradientUnits="userSpaceOnUse">
   <stop id="stop41" stop-color="#b7b8b9"/>
   <stop id="stop47" offset="0.189" stop-color="#ececec"/>
   <stop id="stop49" offset="0.257" stop-color="#fafafa" stop-opacity="0"/>
   <stop id="stop51" offset="0.301" stop-color="#ffffff" stop-opacity="0"/>
   <stop id="stop53" offset="0.531" stop-color="#fafafa" stop-opacity="0"/>
   <stop id="stop55" offset="0.845" stop-color="#ebecec" stop-opacity="0"/>
   <stop id="stop57" offset="1" stop-color="#e1e2e3" stop-opacity="0"/>
  </radialGradient>
  <linearGradient inkscape:collect="always" xlink:href="#linearGradient3804" id="linearGradient6701" y1="-180" x2="0" y2="-164" gradientUnits="userSpaceOnUse"/>
  <clipPath id="clipPath6691">
   <path id="path6693" d="m 914,-179.00027 8,-1e-5 4,3 0,11 -12,0 z"/>
  </clipPath>
  <linearGradient id="outerBackgroundGradient-4">
   <stop id="stop3864-8-6-6" stop-color="#f0f0f0"/>
   <stop offset="1" id="stop3866-9-1-7" stop-color="#f9f9f9"/>
  </linearGradient>
  <linearGradient inkscape:collect="always" xlink:href="#outerBackgroundGradient-4" id="linearGradient3825" gradientUnits="userSpaceOnUse" gradientTransform="matrix(0.05555556,0,0,0.05714289,-2,-2.1428659)" y1="280" x2="0" y2="40"/>
  <linearGradient inkscape:collect="always" xlink:href="#linearGradient3804" id="linearGradient3827" gradientUnits="userSpaceOnUse" y1="1" x2="0" y2="14"/>
  <linearGradient inkscape:collect="always" xlink:href="#linearGradient3818" id="linearGradient3824" y1="0" x2="0" y2="16" gradientUnits="userSpaceOnUse"/>
  <linearGradient inkscape:collect="always" xlink:href="#linearGradient3818" id="linearGradient3866" gradientUnits="userSpaceOnUse" y1="0" x2="0" y2="16" gradientTransform="matrix(1,0,0,-1,0,16.009618)"/>
  <linearGradient inkscape:collect="always" xlink:href="#linearGradient3818" id="linearGradient3881" gradientUnits="userSpaceOnUse" y1="0" x2="0" y2="16" gradientTransform="translate(0,0.999522)"/>
  <linearGradient inkscape:collect="always" xlink:href="#outerBackgroundGradient-4" id="linearGradient3869" gradientUnits="userSpaceOnUse" gradientTransform="matrix(0,-0.05555556,0.05714289,0,-3.1428659,15)" y1="280" x2="0" y2="40"/>
  <linearGradient inkscape:collect="always" xlink:href="#linearGradient3804" id="linearGradient3871" gradientUnits="userSpaceOnUse" y1="1" x2="0" y2="14" gradientTransform="matrix(0,-1,1,0,-1,13)"/>
  <linearGradient inkscape:collect="always" xlink:href="#linearGradient4228" id="linearGradient4540" gradientUnits="userSpaceOnUse" gradientTransform="matrix(0.5,0,0,0.5,-156.00005,-494.4311)" y1="995.63" x2="0" y2="1012.1"/>
  <linearGradient id="linearGradient4228">
   <stop id="stop4230" stop-color="#ffffff"/>
   <stop id="stop4262" offset="0.224" stop-color="#ffffff" stop-opacity="0.851"/>
   <stop offset="1" id="stop4232" stop-color="#ffffff" stop-opacity="0.703"/>
  </linearGradient>
  <clipPath id="clipPath4069">
   <rect id="rect4071" width="14" height="16" x="433" y="124" fill="none" color="#bebebe" stroke-width="0" rx="0"/>
  </clipPath>
  <clipPath id="clipPath3186">
   <rect id="rect3188" width="14" height="16" x="433" y="124" fill="none" color="#bebebe" stroke-width="0" rx="0"/>
  </clipPath>
  <linearGradient inkscape:collect="always" xlink:href="#outerBackgroundGradient" id="linearGradient4097" gradientUnits="userSpaceOnUse" y1="280" x2="0" y2="40" gradientTransform="matrix(0,-0.06666667,0.06666667,0,873.69551,-430.4)"/>
  <linearGradient id="outerBackgroundGradient">
   <stop id="stop3864-8-6" stop-color="#b79877"/>
   <stop offset="1" id="stop3866-9-1" stop-color="#f7d2a2"/>
  </linearGradient>
  <linearGradient y2="40" x2="0" y1="280" gradientTransform="matrix(0,-0.06666667,0.06666667,0,-5.66667,-19.4)" gradientUnits="userSpaceOnUse" id="linearGradient3201" xlink:href="#outerBackgroundGradient" inkscape:collect="always"/>
  <linearGradient inkscape:collect="always" xlink:href="#linearGradient3804" id="linearGradient3921" gradientUnits="userSpaceOnUse" gradientTransform="translate(2,1)" y1="1" x2="0" y2="14"/>
  <linearGradient inkscape:collect="always" xlink:href="#outerBackgroundGradient" id="linearGradient3924" gradientUnits="userSpaceOnUse" gradientTransform="matrix(0.06018519,0,0,0.06285718,-0.66666667,-2.0571525)" y1="280" x2="0" y2="40"/>
  <linearGradient inkscape:collect="always" xlink:href="#linearGradient4228" id="linearGradient3947" gradientUnits="userSpaceOnUse" gradientTransform="matrix(0.5,0,0,0.5,-156.00005,-493.93109)" y1="995.63" x2="0" y2="1012.1"/>
 </defs>
 <metadata id="metadata5405"/>
 <g id="layer1" inkscape:label="Background" inkscape:groupmode="layer">
  <path d="m 14.499996,2.5 4e-6,11 c -4.333333,0 -8.6666678,0 -13,0 l 0,-11 z" id="rect3373-6" inkscape:connector-curvature="0" sodipodi:nodetypes="ccccc" fill="url(#linearGradient3924)" color="#bebebe" stroke-width="0"/>
  <path inkscape:connector-curvature="0" d="M 14,3 2,3 2,13 14,13 14,3 z m -1,1 0,8 -10,0 0,-8 10,0 z" id="path3799" opacity="0.4" fill="url(#linearGradient3921)" color="#bebebe" stroke-width="0"/>
  <rect id="rect7124" width="14" height="16" x="433" y="124" clip-path="url(#clipPath4069)" transform="matrix(0,1,-1,0,161,-435)" opacity="0.2" fill="none" stroke="#ffffff" color="#bebebe" stroke-width="4" rx="0"/>
  <path sodipodi:nodetypes="ccccc" inkscape:connector-curvature="0" id="path3927" d="m 14.499996,2.5 4e-6,11 c -4.333333,0 -8.6666678,0 -13,0 l 0,-11 z" opacity="0.41" fill="none" stroke="#000000" color="#bebebe"/>
 </g>
 <g inkscape:groupmode="layer" id="layer2" inkscape:label="Symbol">
  <g id="g3943" transform="matrix(1,0,0,0.85714286,0,1.1428571)">
   <path inkscape:connector-curvature="0" id="path3991" d="M 7,1 7,15 8,15 8,1 7,1 z" opacity="0.05" color="#000000" fill="#ffffff"/>
   <path inkscape:connector-curvature="0" id="path3955" d="M 8,1 8,15 9,15 9,1 8,1 z" opacity="0.1" color="#000000"/>
  </g>
  <path d="M 12.11719,7 10.88281,7 5.11718,7 3.88277,7 c 0,0.10598 0.34374,0.20652 0.34374,0.3125 0,0.16227 -0.34374,0.33774 -0.34374,0.5 0,0.20156 0.39067,0.39219 0.39067,0.59375 0,0.19686 -0.39067,0.39688 -0.39067,0.59375 l 1.23441,0 5.76563,0 1.23438,0 c 0,-0.19687 -0.375,-0.39689 -0.375,-0.59375 0,-0.20156 0.375,-0.39219 0.375,-0.59375 0,-0.16226 -0.32813,-0.33773 -0.32813,-0.5 0,-0.10598 0.32813,-0.20652 0.32813,-0.3125 z" id="path4248" inkscape:connector-curvature="0" opacity="0.3" fill="url(#linearGradient3947)"/>
 </g>
</svg>
