<?xml version="1.0" encoding="UTF-8" standalone="no"?>
<svg
   xmlns:dc="http://purl.org/dc/elements/1.1/"
   xmlns:cc="http://creativecommons.org/ns#"
   xmlns:rdf="http://www.w3.org/1999/02/22-rdf-syntax-ns#"
   xmlns:svg="http://www.w3.org/2000/svg"
   xmlns="http://www.w3.org/2000/svg"
   xmlns:xlink="http://www.w3.org/1999/xlink"
   width="16px"
   height="16px"
   id="svg5400"
   version="1.1">
  <defs
     id="defs5402">
    <linearGradient
       id="linearGradient3804">
      <stop
         style="stop-color:#ffffff;stop-opacity:1;"
         offset="0"
         id="stop3806" />
      <stop
         style="stop-color:#ffffff;stop-opacity:0;"
         offset="1"
         id="stop3808" />
    </linearGradient>
    <linearGradient
       id="linearGradient4228">
      <stop
         style="stop-color:#ffffff;stop-opacity:1;"
         offset="0"
         id="stop4230" />
      <stop
         id="stop4262"
         offset="0.22413793"
         style="stop-color:#ffffff;stop-opacity:0.85098039;" />
      <stop
         style="stop-color:#ffffff;stop-opacity:0.70253164;"
         offset="1"
         id="stop4232" />
    </linearGradient>
    <linearGradient
       id="outerBackgroundGradient">
      <stop
         style="stop-color:#b79877;stop-opacity:1;"
         offset="0"
         id="stop3864-8-6" />
      <stop
         style="stop-color:#f7d2a2;stop-opacity:1;"
         offset="1"
         id="stop3866-9-1" />
    </linearGradient>
    <linearGradient
       xlink:href="#linearGradient3804"
       id="linearGradient3921"
       gradientUnits="userSpaceOnUse"
       gradientTransform="translate(2,1)"
       x1="5"
       y1="1"
       x2="5"
       y2="14" />
    <linearGradient
       xlink:href="#outerBackgroundGradient"
       id="linearGradient3924"
       gradientUnits="userSpaceOnUse"
       gradientTransform="matrix(0.06018519,0,0,0.06285718,-0.66666667,-2.0571525)"
       x1="144"
       y1="280.00003"
       x2="144"
       y2="40.00005" />
    <linearGradient
       xlink:href="#linearGradient4228"
       id="linearGradient3947"
       gradientUnits="userSpaceOnUse"
       gradientTransform="matrix(0.5,0,0,0.5,-156.00005,-493.93109)"
       x1="330"
       y1="995.62781"
       x2="330"
       y2="1012.0966" />
  </defs>
  <metadata
     id="metadata5405">
    <rdf:RDF>
      <cc:Work
         rdf:about="">
        <dc:format>image/svg+xml</dc:format>
        <dc:type
           rdf:resource="http://purl.org/dc/dcmitype/StillImage" />
        <dc:title />
      </cc:Work>
    </rdf:RDF>
  </metadata>
  <g
     id="layer1"
     style="display:inline">
    <path
       style="color:#bebebe;fill:url(#linearGradient3924);fill-opacity:1;fill-rule:nonzero;stroke:none;stroke-width:0;marker:none;visibility:visible;display:inline;overflow:visible;enable-background:accumulate"
       d="m 15.499996,1.5 4e-6,13 c -4.333333,0 -10.6666678,0 -15,0 l 0,-13 z"
       id="rect3373-6" />
    <path
       style="opacity:0.4;color:#bebebe;fill:url(#linearGradient3921);fill-opacity:1;fill-rule:nonzero;stroke:none;stroke-width:0;marker:none;visibility:visible;display:inline;overflow:visible;enable-background:accumulate"
       d="M 15,2 1,2 1,14 15,14 z M 14,3 14,13 2,13 2,3 z"
       id="path3799" />
    <path
       id="path3927"
       d="m 15.499996,1.5 4e-6,13 c -4.333333,0 -10.6666678,0 -15,0 l 0,-13 z"
       style="opacity:0.71;color:#bebebe;fill:none;stroke:#6d4216;stroke-width:1;stroke-miterlimit:4;stroke-opacity:1;stroke-dasharray:none;marker:none;visibility:visible;display:inline;overflow:visible;enable-background:accumulate" />
  </g>
  <g
     id="layer2"
     style="display:inline">
    <g
       id="g3943"
       transform="matrix(1,0,0,0.85714286,0,1.1428571)">
      <path
         id="path3991"
         d="M 7,1 7,15 8,15 8,1 7,1 z"
         style="font-size:medium;font-style:normal;font-variant:normal;font-weight:normal;font-stretch:normal;text-indent:0;text-align:start;text-decoration:none;line-height:normal;letter-spacing:normal;word-spacing:normal;text-transform:none;direction:ltr;block-progression:tb;writing-mode:lr-tb;text-anchor:start;baseline-shift:baseline;opacity:0.05;color:#000000;fill:#ffffff;fill-opacity:1;stroke:none;stroke-width:1;marker:none;visibility:visible;display:inline;overflow:visible;enable-background:new;font-family:Sans;-inkscape-font-specification:Sans" />
      <path
         id="path3955"
         d="M 8,1 8,15 9,15 9,1 8,1 z"
         style="font-size:medium;font-style:normal;font-variant:normal;font-weight:normal;font-stretch:normal;text-indent:0;text-align:start;text-decoration:none;line-height:normal;letter-spacing:normal;word-spacing:normal;text-transform:none;direction:ltr;block-progression:tb;writing-mode:lr-tb;text-anchor:start;baseline-shift:baseline;opacity:0.1;color:#000000;fill:#000000;fill-opacity:1;stroke:none;stroke-width:1;marker:none;visibility:visible;display:inline;overflow:visible;enable-background:new;font-family:Sans;-inkscape-font-specification:Sans" />
    </g>
    <path
       style="opacity:0.3;fill:url(#linearGradient3947);fill-opacity:1;fill-rule:nonzero;stroke:none;stroke-width:1;marker:none;visibility:visible;display:inline;overflow:visible;enable-background:accumulate"
       d="M 12.11719,7 10.88281,7 5.11718,7 3.88277,7 c 0,0.10598 0.34374,0.20652 0.34374,0.3125 0,0.16227 -0.34374,0.33774 -0.34374,0.5 0,0.20156 0.39067,0.39219 0.39067,0.59375 0,0.19686 -0.39067,0.39688 -0.39067,0.59375 l 1.23441,0 5.76563,0 1.23438,0 c 0,-0.19687 -0.375,-0.39689 -0.375,-0.59375 0,-0.20156 0.375,-0.39219 0.375,-0.59375 0,-0.16226 -0.32813,-0.33773 -0.32813,-0.5 0,-0.10598 0.32813,-0.20652 0.32813,-0.3125 z"
       id="path4248" />
  </g>
</svg>
