<?xml version="1.0" encoding="UTF-8" standalone="no"?>
<svg xmlns="http://www.w3.org/2000/svg" xmlns:xlink="http://www.w3.org/1999/xlink" xmlns:sodipodi="http://sodipodi.sourceforge.net/DTD/sodipodi-0.dtd" xmlns:inkscape="http://www.inkscape.org/namespaces/inkscape" width="16" height="16" version="1.1">
 <defs id="defs5402">
  <linearGradient inkscape:collect="always" id="linearGradient3818">
   <stop id="stop3820"/>
   <stop offset="1" id="stop3822" stop-opacity="0.515"/>
  </linearGradient>
  <linearGradient id="linearGradient3904">
   <stop id="stop3906" stop-color="#104b88"/>
   <stop id="stop3908" offset="1" stop-color="#0e7398"/>
  </linearGradient>
  <linearGradient inkscape:collect="always" id="linearGradient3804">
   <stop id="stop3806" stop-color="#ffffff"/>
   <stop offset="1" id="stop3808" stop-color="#ffffff" stop-opacity="0"/>
  </linearGradient>
  <linearGradient inkscape:collect="always" xlink:href="#linearGradient3804" id="linearGradient6750" x1="443.5" y1="-178.5" x2="444" y2="-175.5" gradientUnits="userSpaceOnUse" gradientTransform="translate(-433,180.00027)"/>
  <linearGradient inkscape:collect="always" xlink:href="#linearGradient3804" id="linearGradient6736" x1="435" x2="438" gradientUnits="userSpaceOnUse"/>
  <linearGradient inkscape:collect="always" xlink:href="#linearGradient5621" id="linearGradient5956" y1="63.937" x2="0" y2="47.937" gradientUnits="userSpaceOnUse" gradientTransform="translate(-1400.9375,-47.937495)"/>
  <linearGradient id="linearGradient5621">
   <stop id="stop5623" stop-color="#0b0b0b"/>
   <stop offset="1" id="stop5625" stop-color="#585858"/>
  </linearGradient>
  <linearGradient id="linearGradient8589">
   <stop id="stop8591" stop-color="#fefefe"/>
   <stop id="stop8593" offset="1" stop-color="#cbcbcb"/>
  </linearGradient>
  <radialGradient cx="102" cy="112.3" r="139.56" id="XMLID_8_" gradientUnits="userSpaceOnUse">
   <stop id="stop41" stop-color="#b7b8b9"/>
   <stop id="stop47" offset="0.189" stop-color="#ececec"/>
   <stop id="stop49" offset="0.257" stop-color="#fafafa" stop-opacity="0"/>
   <stop id="stop51" offset="0.301" stop-color="#ffffff" stop-opacity="0"/>
   <stop id="stop53" offset="0.531" stop-color="#fafafa" stop-opacity="0"/>
   <stop id="stop55" offset="0.845" stop-color="#ebecec" stop-opacity="0"/>
   <stop id="stop57" offset="1" stop-color="#e1e2e3" stop-opacity="0"/>
  </radialGradient>
  <linearGradient inkscape:collect="always" xlink:href="#linearGradient3804" id="linearGradient6701" y1="-180" x2="0" y2="-164" gradientUnits="userSpaceOnUse"/>
  <clipPath id="clipPath6691">
   <path id="path6693" d="m 914,-179.00027 8,-1e-5 4,3 0,11 -12,0 z"/>
  </clipPath>
  <linearGradient id="outerBackgroundGradient-4">
   <stop id="stop3864-8-6-6" stop-color="#f0f0f0"/>
   <stop offset="1" id="stop3866-9-1-7" stop-color="#f9f9f9"/>
  </linearGradient>
  <linearGradient inkscape:collect="always" xlink:href="#outerBackgroundGradient-4" id="linearGradient3825" gradientUnits="userSpaceOnUse" gradientTransform="matrix(0.05555556,0,0,0.05714289,-2,-2.1428659)" y1="280" x2="0" y2="40"/>
  <linearGradient inkscape:collect="always" xlink:href="#linearGradient3804" id="linearGradient3827" gradientUnits="userSpaceOnUse" y1="1" x2="0" y2="14"/>
  <linearGradient inkscape:collect="always" xlink:href="#linearGradient3818" id="linearGradient3824" y1="0" x2="0" y2="16" gradientUnits="userSpaceOnUse"/>
  <linearGradient inkscape:collect="always" xlink:href="#linearGradient3818" id="linearGradient3866" gradientUnits="userSpaceOnUse" y1="0" x2="0" y2="16" gradientTransform="matrix(1,0,0,-1,0,16.009618)"/>
  <linearGradient inkscape:collect="always" xlink:href="#linearGradient3818" id="linearGradient3881" gradientUnits="userSpaceOnUse" y1="0" x2="0" y2="16" gradientTransform="translate(0,0.999522)"/>
  <linearGradient inkscape:collect="always" xlink:href="#linearGradient3804" id="linearGradient3156" gradientUnits="userSpaceOnUse" y1="1" x2="0" y2="14" gradientTransform="translate(2,1)"/>
  <linearGradient inkscape:collect="always" xlink:href="#outerBackgroundGradient-4" id="linearGradient3159" gradientUnits="userSpaceOnUse" gradientTransform="matrix(0.05555556,0,0,0.05714289,0,-1.1428659)" y1="280" x2="0" y2="40"/>
 </defs>
 <metadata id="metadata5405"/>
 <g id="layer1" inkscape:label="Background" inkscape:groupmode="layer">
  <path sodipodi:nodetypes="ccccc" inkscape:connector-curvature="0" id="path3029" d="M 2,1.000004 14,1 c 0,4 0,10.000001 0,14 L 2,15 z" opacity="0.41" fill="none" stroke="#000000" stroke-linejoin="round" color="#bebebe" stroke-width="2"/>
  <path d="M 2,1.000004 14,1 c 0,4 0,10.000001 0,14 L 2,15 z" id="rect3373-6" inkscape:connector-curvature="0" sodipodi:nodetypes="ccccc" fill="url(#linearGradient3159)" color="#bebebe" stroke-width="0"/>
  <path inkscape:connector-curvature="0" d="M 2,1 2,15 14,15 14,1 z M 3,2 13,2 13,14 3,14 z" id="path3799" sodipodi:nodetypes="cccccccccc" fill="url(#linearGradient3156)" color="#bebebe" stroke-width="0"/>
 </g>
 <g inkscape:groupmode="layer" id="layer2" inkscape:label="Symbol">
  <path id="path26173" d="m 4.28906,3 0,-0.859375 L 3,2.140625 3,3 4.28906,3" inkscape:connector-curvature="0" opacity="0.2"/>
  <path id="path26175" d="m 5.53906,3 0,-0.859375 -1.28906,0 L 4.25,3 5.53906,3" inkscape:connector-curvature="0" opacity="0.2"/>
  <path id="path26177" d="m 6.78906,3 0,-0.859375 -1.28906,0 L 5.5,3 6.78906,3" inkscape:connector-curvature="0" opacity="0.2"/>
  <path id="path26179" d="m 8.03906,3 0,-0.859375 -1.28906,0 L 6.75,3 8.03906,3" inkscape:connector-curvature="0" opacity="0.2"/>
  <path id="path26181" d="m 9.28906,3 0,-0.859375 L 8,2.140625 8,3 9.28906,3" inkscape:connector-curvature="0" opacity="0.2"/>
  <path id="path26183" d="m 13.04687,3 0,-0.859375 -1.28906,0 0,0.859375 1.28906,0" inkscape:connector-curvature="0" opacity="0.2"/>
  <path id="path26203" d="m 4.28906,5 0,-0.859375 L 3,4.140625 3,5 4.28906,5" inkscape:connector-curvature="0" opacity="0.2"/>
  <path id="path26205" d="m 5.53906,5 0,-0.859375 -1.28906,0 L 4.25,5 5.53906,5" inkscape:connector-curvature="0" opacity="0.2"/>
  <path id="path26207" d="m 6.78906,5 0,-0.859375 -1.28906,0 L 5.5,5 6.78906,5" inkscape:connector-curvature="0" opacity="0.2"/>
  <path id="path26209" d="m 10.54687,5 0,-0.859375 -1.28906,0 0,0.859375 1.28906,0" inkscape:connector-curvature="0" opacity="0.2"/>
  <path id="path26211" d="m 11.79687,5 0,-0.859375 -1.28906,0 0,0.859375 1.28906,0" inkscape:connector-curvature="0" opacity="0.2"/>
  <path id="path26213" d="m 13.04687,5 0,-0.859375 -1.28906,0 0,0.859375 1.28906,0" inkscape:connector-curvature="0" opacity="0.2"/>
  <path id="path26219" d="m 4.28906,7 0,-0.859375 L 3,6.140625 3,7 4.28906,7" inkscape:connector-curvature="0" opacity="0.2"/>
  <path id="path26221" d="m 5.53906,7 0,-0.859375 -1.28906,0 L 4.25,7 5.53906,7" inkscape:connector-curvature="0" opacity="0.2"/>
  <path id="path26223" d="m 6.78906,7 0,-0.859375 -1.28906,0 L 5.5,7 6.78906,7" inkscape:connector-curvature="0" opacity="0.2"/>
  <path id="path26225" d="m 8.03906,7 0,-0.859375 -1.28906,0 L 6.75,7 8.03906,7" inkscape:connector-curvature="0" opacity="0.2"/>
  <path id="path26227" d="m 9.28906,7 0,-0.859375 L 8,6.140625 8,7 9.28906,7" inkscape:connector-curvature="0" opacity="0.2"/>
  <path id="path26231" d="m 11.78906,7 0,-0.859375 -1.28906,0 L 10.5,7 11.78906,7" inkscape:connector-curvature="0" opacity="0.2"/>
  <path id="path26233" d="m 13.03906,7 0,-0.859375 -1.28906,0 0,0.859375 1.28906,0" inkscape:connector-curvature="0" opacity="0.2"/>
  <path id="path26241" d="m 4.28906,9 0,-0.859375 L 3,8.140625 3,9 4.28906,9" inkscape:connector-curvature="0" opacity="0.2"/>
  <path id="path26243" d="m 5.53906,9 0,-0.859375 -1.28906,0 L 4.25,9 5.53906,9" inkscape:connector-curvature="0" opacity="0.2"/>
  <path id="path26245" d="m 6.78906,9 0,-0.859375 -1.28906,0 L 5.5,9 6.78906,9" inkscape:connector-curvature="0" opacity="0.2"/>
  <path id="path26249" d="m 9.28906,9 0,-0.859375 L 8,8.140625 8,9 9.28906,9" inkscape:connector-curvature="0" opacity="0.2"/>
  <path id="path26251" d="m 10.53906,9 0,-0.859375 -1.28906,0 L 9.25,9 10.53906,9" inkscape:connector-curvature="0" opacity="0.2"/>
  <path id="path26253" d="m 11.78906,9 0,-0.859375 -1.28906,0 L 10.5,9 11.78906,9" inkscape:connector-curvature="0" opacity="0.2"/>
  <path inkscape:connector-curvature="0" d="m 8.03906,5 0,-0.859375 -1.28906,0 L 6.75,5 8.03906,5" id="path3798" opacity="0.2"/>
  <path inkscape:connector-curvature="0" d="m 11.79687,3 0,-0.859375 -1.28906,0 0,0.859375 1.28906,0" id="path3800" opacity="0.2"/>
 </g>
</svg>
