<?xml version='1.0' encoding='UTF-8' standalone='no'?>
<svg height="16.01" xmlns:inkscape="http://www.inkscape.org/namespaces/inkscape" xmlns:sodipodi="http://sodipodi.sourceforge.net/DTD/sodipodi-0.dtd" version="1.1" width="16" xmlns="http://www.w3.org/2000/svg" enable-background="new">
 <metadata id="metadata90"/>
 <defs id="defs7386">
  <linearGradient id="linearGradient5606" osb:paint="solid">
   <stop id="stop5608"/>
  </linearGradient>
  <filter inkscape:collect="always" color-interpolation-filters="sRGB" id="filter7554">
   <feBlend inkscape:collect="always" id="feBlend7556" in2="BackgroundImage" mode="darken"/>
  </filter>
 </defs>
 <g inkscape:groupmode="layer" id="layer14" inkscape:label="mimetypes" transform="translate(-682.00027,221.00671)">
  <path inkscape:connector-curvature="0" d="m 684.84395,-220 c -0.28125,0.0469 -0.84375,0.25 -0.84375,1 l 0,13 c 0,1 1,1 1,1 l 10,0 c 1,0 1,-1 1,-1 0.0235,-0.0576 0,-10 0,-10 l -4,-4 -7,0 c 0,0 -0.0625,-0.0156 -0.15625,0 z m 0.15625,1 7,0 0,3 3,0 0,10 -10,0 z m 1,1 0,3 4,0 0,-3 z m 1,1 2,0 0,1 -2,0 z m -1,3 0,1 8,0 0,-1 z m 0,2 0,1 8,0 0,-1 z m 0,2 0,1 8,0 0,-1 z m 0,2 0,1 4,0 0,-1 z" id="path5297" sodipodi:nodetypes="csscscccccccccccccccccccccccccccccccccccccccccc" fill="#bebebe"/>
 </g>
</svg>
