<?xml version="1.0" encoding="UTF-8" standalone="no"?>
<svg
   xmlns:dc="http://purl.org/dc/elements/1.1/"
   xmlns:cc="http://creativecommons.org/ns#"
   xmlns:rdf="http://www.w3.org/1999/02/22-rdf-syntax-ns#"
   xmlns:svg="http://www.w3.org/2000/svg"
   xmlns="http://www.w3.org/2000/svg"
   xmlns:xlink="http://www.w3.org/1999/xlink"
   width="16px"
   height="16px"
   id="svg5400"
   version="1.1">
  <defs
     id="defs5402">
    <linearGradient
       id="linearGradient3804">
      <stop
         style="stop-color:#ffffff;stop-opacity:1;"
         offset="0"
         id="stop3806" />
      <stop
         style="stop-color:#ffffff;stop-opacity:0;"
         offset="1"
         id="stop3808" />
    </linearGradient>
    <linearGradient
       id="outerBackgroundGradient-4">
      <stop
         style="stop-color:#f0f0f0;stop-opacity:1;"
         offset="0"
         id="stop3864-8-6-6" />
      <stop
         style="stop-color:#f9f9f9;stop-opacity:1;"
         offset="1"
         id="stop3866-9-1-7" />
    </linearGradient>
    <linearGradient
       id="linearGradient20553">
      <stop
         style="stop-color:#a348b1;stop-opacity:1;"
         offset="0"
         id="stop20555" />
      <stop
         style="stop-color:#bf7bca;stop-opacity:1;"
         offset="1"
         id="stop20557" />
    </linearGradient>
    <linearGradient
       xlink:href="#linearGradient3804"
       id="linearGradient3057"
       gradientUnits="userSpaceOnUse"
       x1="5"
       y1="1"
       x2="5"
       y2="14"
       gradientTransform="translate(2,1)" />
    <linearGradient
       xlink:href="#outerBackgroundGradient-4"
       id="linearGradient3060"
       gradientUnits="userSpaceOnUse"
       gradientTransform="matrix(0.05555556,0,0,0.05714289,0,-1.1428659)"
       x1="144"
       y1="280.00003"
       x2="144"
       y2="40.00005" />
    <linearGradient
       xlink:href="#linearGradient20553"
       id="linearGradient3834"
       gradientUnits="userSpaceOnUse"
       gradientTransform="matrix(0.49999997,0,0,0.35555555,-152.12499,347.67917)"
       x1="318.25"
       y1="-932.84766"
       x2="318.25"
       y2="-977.84766" />
  </defs>
  <metadata
     id="metadata5405">
    <rdf:RDF>
      <cc:Work
         rdf:about="">
        <dc:format>image/svg+xml</dc:format>
        <dc:type
           rdf:resource="http://purl.org/dc/dcmitype/StillImage" />
        <dc:title />
      </cc:Work>
    </rdf:RDF>
  </metadata>
  <g
     id="layer1"
     style="display:inline">
    <path
       style="color:#bebebe;fill:url(#linearGradient3060);fill-opacity:1;fill-rule:nonzero;stroke:none;stroke-width:0;marker:none;visibility:visible;display:inline;overflow:visible;enable-background:accumulate"
       d="M 2.0001373,1.000004 14.000137,1 c 0,4 0,10.000001 0,14 L 2.0001373,15 z"
       id="rect3373-6" />
    <path
       style="color:#000000;fill:url(#linearGradient3834);fill-opacity:1;fill-rule:evenodd;stroke:none;stroke-width:2;marker:none;visibility:visible;display:inline;overflow:visible;enable-background:new"
       d="m 1.0001373,1 c 0,-1 0.9375,-1 0.9375,-1 l 2.0625,0 0,16 -2,0 c 0,0 -1,0 -1,-1 z"
       id="rect20578" />
    <path
       style="opacity:0.4;color:#bebebe;fill:url(#linearGradient3057);fill-opacity:1;fill-rule:nonzero;stroke:none;stroke-width:0;marker:none;visibility:visible;display:inline;overflow:visible;enable-background:accumulate"
       d="m 2.0001373,1 0,14 11.9999997,0 0,-14 z m 1,1 9.9999997,0 0,12 -9.9999997,0 z"
       id="path3799" />
    <path
       style="font-size:medium;font-style:normal;font-variant:normal;font-weight:normal;font-stretch:normal;text-indent:0;text-align:start;text-decoration:none;line-height:normal;letter-spacing:normal;word-spacing:normal;text-transform:none;direction:ltr;block-progression:tb;writing-mode:lr-tb;text-anchor:start;baseline-shift:baseline;opacity:0.41000001;color:#bebebe;fill:#000000;fill-opacity:1;stroke:none;stroke-width:2;marker:none;visibility:visible;display:inline;overflow:visible;enable-background:accumulate;font-family:Sans;-inkscape-font-specification:Sans"
       d="m 1.8126373,0 c -0.4584025,0.08746655 -0.82072345,0.53339997 -0.8125,1 l 0,14 c 5.24e-5,0.523584 0.4764155,0.999948 1,1 l 11.9999997,0 c 0.523584,-5.2e-5 0.999948,-0.476416 1,-1 l 0,-14 c -5.2e-5,-0.52358447 -0.476416,-0.99994765 -1,-1 L 2.0001373,0 c -0.031227,-0.00147 -0.062523,-0.00147 -0.09375,0 -0.031227,-0.00147 -0.062523,-0.00147 -0.09375,0 z m 0.1875,1 11.9999997,0 0,14 -11.9999997,0 z"
       id="path3837" />
  </g>
  <g
     id="layer2"
     style="display:inline" />
</svg>
