<?xml version="1.0" encoding="UTF-8" standalone="no"?>
<svg
   xmlns:dc="http://purl.org/dc/elements/1.1/"
   xmlns:cc="http://creativecommons.org/ns#"
   xmlns:rdf="http://www.w3.org/1999/02/22-rdf-syntax-ns#"
   xmlns:svg="http://www.w3.org/2000/svg"
   xmlns="http://www.w3.org/2000/svg"
   xmlns:xlink="http://www.w3.org/1999/xlink"
   version="1.1"
   id="svg5400"
   height="16px"
   width="16px">
  <defs
     id="defs5402">
    <linearGradient
       y2="0"
       x2="8"
       y1="16"
       x1="8"
       gradientUnits="userSpaceOnUse"
       id="linearGradient4025"
       xlink:href="#linearGradient3413" />
    <linearGradient
       id="outerBackgroundGradient-6">
      <stop
         id="stop3864-8-6-0"
         offset="0"
         style="stop-color:#c23021;stop-opacity:1;" />
      <stop
         id="stop3866-9-1-7-5"
         offset="1"
         style="stop-color:#e74c3c;stop-opacity:1;" />
    </linearGradient>
    <linearGradient
       id="linearGradient3413">
      <stop
         id="stop3415"
         offset="0"
         style="stop-color:#dddddd;stop-opacity:1;" />
      <stop
         id="stop3417"
         offset="1"
         style="stop-color:#f2f2f2;stop-opacity:1;" />
    </linearGradient>
    <linearGradient
       y2="0"
       x2="8"
       y1="16"
       x1="8"
       gradientUnits="userSpaceOnUse"
       id="linearGradient3883"
       xlink:href="#outerBackgroundGradient-6" />
  </defs>
  <metadata
     id="metadata5405">
    <rdf:RDF>
      <cc:Work
         rdf:about="">
        <dc:format>image/svg+xml</dc:format>
        <dc:type
           rdf:resource="http://purl.org/dc/dcmitype/StillImage" />
        <dc:title />
      </cc:Work>
    </rdf:RDF>
  </metadata>
  <g
     id="layer1">
    <path
       id="path3878"
       d="M 3.5 1.5 C 1.5 1.5 1.5 3.5 1.5 3.5 L 1.5 5 L 14.5 5 L 14.5 3.5 C 14.5 1.5 12.5 1.5 12.5 1.5 L 3.5 1.5 z "
       style="font-size:medium;font-style:normal;font-variant:normal;font-weight:normal;font-stretch:normal;text-indent:0;text-align:start;text-decoration:none;line-height:normal;letter-spacing:normal;word-spacing:normal;text-transform:none;direction:ltr;block-progression:tb;writing-mode:lr-tb;text-anchor:start;baseline-shift:baseline;color:#000000;fill:url(#linearGradient3883);fill-opacity:1;stroke:none;stroke-width:1;marker:none;visibility:visible;display:inline;overflow:visible;enable-background:accumulate;font-family:Sans;-inkscape-font-specification:Sans" />
    <path
       id="path4436"
       d="M 1.5 5 L 1.5 12.5 C 1.5 14.5 3.5 14.5 3.5 14.5 L 12.5 14.5 C 14.5 14.5 14.5 12.5 14.5 12.5 L 14.5 5 L 1.5 5 z "
       style="font-size:medium;font-style:normal;font-variant:normal;font-weight:normal;font-stretch:normal;text-indent:0;text-align:start;text-decoration:none;line-height:normal;letter-spacing:normal;word-spacing:normal;text-transform:none;direction:ltr;block-progression:tb;writing-mode:lr-tb;text-anchor:start;baseline-shift:baseline;color:#000000;fill:url(#linearGradient4025);fill-opacity:1;stroke:none;stroke-width:1;marker:none;visibility:visible;display:inline;overflow:visible;enable-background:accumulate;font-family:Sans;-inkscape-font-specification:Sans" />
    <rect
       y="5"
       x="1.5"
       height="1"
       width="13"
       id="rect3888"
       style="opacity:0.41000001;fill:#ffffff;fill-opacity:1;stroke:none" />
    <rect
       ry="1"
       rx="0"
       y="4"
       x="1.5"
       height="1"
       width="13"
       id="rect3853"
       style="fill:#ad3125;fill-opacity:1;stroke:none" />
    <path
       style="font-size:medium;font-style:normal;font-variant:normal;font-weight:normal;font-stretch:normal;text-indent:0;text-align:start;text-decoration:none;line-height:normal;letter-spacing:normal;word-spacing:normal;text-transform:none;direction:ltr;block-progression:tb;writing-mode:lr-tb;text-anchor:start;baseline-shift:baseline;opacity:0.41;color:#000000;fill:none;stroke:#000000;stroke-width:1;stroke-opacity:1;marker:none;visibility:visible;display:inline;overflow:visible;enable-background:accumulate;font-family:Sans;-inkscape-font-specification:Sans"
       d="m 12.5,14.5 -9,0 c -2,0 -2,-2 -2,-2 l 0,-9 c 0,-2 2,-2 2,-2 l 9,0 c 2,0 2,2 2,2 l 0,9 c 0,2 -2,2 -2,2 z"
       id="path3832" />
    <path
       id="path4035"
       d="M 3.5 2 C 3.5 2 3.099493 1.9971285 2.71875 2.1875 C 2.338007 2.3778715 2 2.6666667 2 3.5 L 2 4.5 C 2 3.6666667 2.338007 3.3778715 2.71875 3.1875 C 3.099493 2.99713 3.5 3 3.5 3 L 12.5 3 C 13.333333 3 13.622128 3.338007 13.8125 3.71875 C 14.0029 4.099493 14 4.5 14 4.5 L 14 3.5 C 14 3.5 14.002872 3.099493 13.8125 2.71875 C 13.622128 2.338007 13.333333 2 12.5 2 L 3.5 2 z "
       style="font-size:medium;font-style:normal;font-variant:normal;font-weight:normal;font-stretch:normal;text-indent:0;text-align:start;text-decoration:none;line-height:normal;letter-spacing:normal;word-spacing:normal;text-transform:none;direction:ltr;block-progression:tb;writing-mode:lr-tb;text-anchor:start;baseline-shift:baseline;color:#000000;fill:#ffffff;fill-opacity:1;stroke:none;stroke-width:1;marker:none;visibility:visible;display:inline;overflow:visible;enable-background:accumulate;font-family:Sans;-inkscape-font-specification:Sans;opacity:0.2" />
    <path
       style="font-size:medium;font-style:normal;font-variant:normal;font-weight:normal;font-stretch:normal;text-indent:0;text-align:start;text-decoration:none;line-height:normal;letter-spacing:normal;word-spacing:normal;text-transform:none;direction:ltr;block-progression:tb;writing-mode:lr-tb;text-anchor:start;baseline-shift:baseline;opacity:0.20000000000000001;color:#000000;fill:#000000;fill-opacity:1;stroke:none;stroke-width:1;marker:none;visibility:visible;display:inline;overflow:visible;enable-background:accumulate;font-family:Sans;-inkscape-font-specification:Sans"
       d="m 3.4999987,14.999997 c 0,0 -0.400507,0.0029 -0.78125,-0.1875 -0.380743,-0.190372 -0.71875,-0.479167 -0.71875,-1.3125 l 0,-1 c 0,0.833333 0.338007,1.122128 0.71875,1.3125 0.380743,0.19037 0.78125,0.1875 0.78125,0.1875 l 9.0000003,0 c 0.833333,0 1.122128,-0.338007 1.3125,-0.71875 0.1904,-0.380743 0.1875,-0.78125 0.1875,-0.78125 l 0,1 c 0,0 0.0029,0.400507 -0.1875,0.78125 -0.190372,0.380743 -0.479167,0.71875 -1.3125,0.71875 l -9.0000003,0 z"
       id="path4051" />
  </g>
  <g
     id="layer2" />
</svg>
