<?xml version="1.0" encoding="UTF-8" standalone="no"?>
<svg xmlns="http://www.w3.org/2000/svg" xmlns:xlink="http://www.w3.org/1999/xlink" xmlns:sodipodi="http://sodipodi.sourceforge.net/DTD/sodipodi-0.dtd" xmlns:inkscape="http://www.inkscape.org/namespaces/inkscape" width="16" height="16" version="1.1">
 <defs id="defs5402">
  <linearGradient inkscape:collect="always" id="linearGradient3818">
   <stop id="stop3820"/>
   <stop offset="1" id="stop3822" stop-opacity="0.515"/>
  </linearGradient>
  <linearGradient id="linearGradient3904">
   <stop id="stop3906" stop-color="#104b88"/>
   <stop id="stop3908" offset="1" stop-color="#0e7398"/>
  </linearGradient>
  <linearGradient inkscape:collect="always" id="linearGradient3804">
   <stop id="stop3806" stop-color="#ffffff"/>
   <stop offset="1" id="stop3808" stop-color="#ffffff" stop-opacity="0"/>
  </linearGradient>
  <linearGradient inkscape:collect="always" xlink:href="#linearGradient3804" id="linearGradient6750" x1="443.5" y1="-178.5" x2="444" y2="-175.5" gradientUnits="userSpaceOnUse" gradientTransform="translate(-433,180.00027)"/>
  <linearGradient inkscape:collect="always" xlink:href="#linearGradient3804" id="linearGradient6736" x1="435" x2="438" gradientUnits="userSpaceOnUse"/>
  <linearGradient inkscape:collect="always" xlink:href="#linearGradient5621" id="linearGradient5956" y1="63.937" x2="0" y2="47.937" gradientUnits="userSpaceOnUse" gradientTransform="translate(-1400.9375,-47.937495)"/>
  <linearGradient id="linearGradient5621">
   <stop id="stop5623" stop-color="#0b0b0b"/>
   <stop offset="1" id="stop5625" stop-color="#585858"/>
  </linearGradient>
  <linearGradient id="linearGradient8589">
   <stop id="stop8591" stop-color="#fefefe"/>
   <stop id="stop8593" offset="1" stop-color="#cbcbcb"/>
  </linearGradient>
  <radialGradient cx="102" cy="112.3" r="139.56" id="XMLID_8_" gradientUnits="userSpaceOnUse">
   <stop id="stop41" stop-color="#b7b8b9"/>
   <stop id="stop47" offset="0.189" stop-color="#ececec"/>
   <stop id="stop49" offset="0.257" stop-color="#fafafa" stop-opacity="0"/>
   <stop id="stop51" offset="0.301" stop-color="#ffffff" stop-opacity="0"/>
   <stop id="stop53" offset="0.531" stop-color="#fafafa" stop-opacity="0"/>
   <stop id="stop55" offset="0.845" stop-color="#ebecec" stop-opacity="0"/>
   <stop id="stop57" offset="1" stop-color="#e1e2e3" stop-opacity="0"/>
  </radialGradient>
  <linearGradient inkscape:collect="always" xlink:href="#linearGradient3804" id="linearGradient6701" y1="-180" x2="0" y2="-164" gradientUnits="userSpaceOnUse"/>
  <clipPath id="clipPath6691">
   <path id="path6693" d="m 914,-179.00027 8,-1e-5 4,3 0,11 -12,0 z"/>
  </clipPath>
  <linearGradient id="outerBackgroundGradient-4">
   <stop id="stop3864-8-6-6" stop-color="#f0f0f0"/>
   <stop offset="1" id="stop3866-9-1-7" stop-color="#f9f9f9"/>
  </linearGradient>
  <linearGradient inkscape:collect="always" xlink:href="#outerBackgroundGradient-4" id="linearGradient3825" gradientUnits="userSpaceOnUse" gradientTransform="matrix(0.05555556,0,0,0.05714289,-2,-2.1428659)" y1="280" x2="0" y2="40"/>
  <linearGradient inkscape:collect="always" xlink:href="#linearGradient3804" id="linearGradient3827" gradientUnits="userSpaceOnUse" y1="1" x2="0" y2="14"/>
  <linearGradient inkscape:collect="always" xlink:href="#linearGradient3818" id="linearGradient3824" y1="0" x2="0" y2="16" gradientUnits="userSpaceOnUse"/>
  <linearGradient inkscape:collect="always" xlink:href="#linearGradient3818" id="linearGradient3866" gradientUnits="userSpaceOnUse" y1="0" x2="0" y2="16" gradientTransform="matrix(1,0,0,-1,0,16.009618)"/>
  <linearGradient inkscape:collect="always" xlink:href="#linearGradient3818" id="linearGradient3881" gradientUnits="userSpaceOnUse" y1="0" x2="0" y2="16" gradientTransform="translate(0,0.999522)"/>
  <linearGradient inkscape:collect="always" xlink:href="#linearGradient20553" id="linearGradient20580" gradientUnits="userSpaceOnUse" gradientTransform="matrix(0.49999997,0,0,0.35555555,277.00001,10.228848)" y1="-939" x2="0" y2="-984"/>
  <linearGradient id="linearGradient20553">
   <stop id="stop20555" stop-color="#a348b1"/>
   <stop offset="1" id="stop20557" stop-color="#bf7bca"/>
  </linearGradient>
  <linearGradient y2="-984" x2="0" y1="-939" gradientTransform="matrix(0.49999997,0,0,0.35555555,-152.12499,347.67917)" gradientUnits="userSpaceOnUse" id="linearGradient6249" xlink:href="#linearGradient20553" inkscape:collect="always"/>
  <linearGradient inkscape:collect="always" xlink:href="#linearGradient3804" id="linearGradient3057" gradientUnits="userSpaceOnUse" y1="1" x2="0" y2="14" gradientTransform="translate(2,1)"/>
  <linearGradient inkscape:collect="always" xlink:href="#outerBackgroundGradient-4" id="linearGradient3060" gradientUnits="userSpaceOnUse" gradientTransform="matrix(0.05555556,0,0,0.05714289,0,-1.1428659)" y1="280" x2="0" y2="40"/>
  <linearGradient inkscape:collect="always" xlink:href="#linearGradient20553" id="linearGradient3834" gradientUnits="userSpaceOnUse" gradientTransform="matrix(0.49999997,0,0,0.35555555,-152.12499,347.67917)" y1="-932.85" x2="0" y2="-977.85"/>
 </defs>
 <metadata id="metadata5405"/>
 <g id="layer1" inkscape:label="Background" inkscape:groupmode="layer">
  <path d="M 3,2.000004 13,2 c 0,4 0,8.000001 0,12 L 3,14 z" id="rect3373-6" inkscape:connector-curvature="0" sodipodi:nodetypes="ccccc" fill="url(#linearGradient3060)" color="#bebebe" stroke-width="0"/>
  <path d="M 2,2 C 2,1 2.9375,1 2.9375,1 L 5,1 5,15 3,15 c 0,0 -1,0 -1,-1 z" id="rect20578" inkscape:connector-curvature="0" sodipodi:nodetypes="ccccccc" fill="url(#linearGradient3834)" fill-rule="evenodd" color="#000000" stroke-width="2"/>
  <path inkscape:connector-curvature="0" d="M 3,2 3,14 13,14 13,2 3,2 z m 1,1 8,0 0,10 -8,0 0,-10 z" id="path3799" opacity="0.4" fill="url(#linearGradient3057)" color="#bebebe" stroke-width="0"/>
  <path d="M 2.8125 1 A 1.0001 1.0001 0 0 0 2 2 L 2 14 A 1.0001 1.0001 0 0 0 3 15 L 13 15 A 1.0001 1.0001 0 0 0 14 14 L 14 2 A 1.0001 1.0001 0 0 0 13 1 L 3 1 A 1.0001 1.0001 0 0 0 2.90625 1 A 1.0001 1.0001 0 0 0 2.8125 1 z M 3 2 L 13 2 L 13 14 L 3 14 L 3 2 z " id="path3837" opacity="0.41" color="#bebebe" stroke-width="2"/>
 </g>
</svg>
