<?xml version='1.0' encoding='UTF-8' standalone='no'?>
<svg height="16" xmlns:inkscape="http://www.inkscape.org/namespaces/inkscape" xmlns:sodipodi="http://sodipodi.sourceforge.net/DTD/sodipodi-0.dtd" version="1.1" width="16" xmlns="http://www.w3.org/2000/svg" enable-background="new">
 <metadata id="metadata90"/>
 <defs id="defs7386">
  <linearGradient id="linearGradient5606" osb:paint="solid">
   <stop id="stop5608"/>
  </linearGradient>
  <filter inkscape:collect="always" color-interpolation-filters="sRGB" id="filter7554">
   <feBlend inkscape:collect="always" id="feBlend7556" in2="BackgroundImage" mode="darken"/>
  </filter>
 </defs>
 <g inkscape:groupmode="layer" id="layer9" inkscape:label="status" transform="translate(-261.00021,243)">
  <path inkscape:connector-curvature="0" d="m 267.49679,-242 c -0.79399,9.7e-4 -0.78072,0.0333 -0.53125,1.03125 l 1.625,4.96875 -4.5,0 -1.21875,-1.78125 c -0.13926,-0.20883 -0.1227,-0.21873 -0.34375,-0.21875 l -0.21875,0 c -0.42773,0 -0.28125,0.4375 -0.28125,0.4375 l 0.28125,2.5625 -0.28125,2.5625 c 0,0 -0.13986,0.43749 0.25,0.4375 l 0.25,0 c 0.21159,0 0.20422,-0.009 0.34375,-0.21875 l 1.21875,-1.78125 4.5,0 -1.625,4.9375 c -0.26171,1.04691 -0.2647,1.06251 0.53125,1.0625 0.43199,0 0.43388,-0.0117 0.71875,-0.5 l 3.6875,-5.5 3.09375,0 c 0.554,0 1,-0.446 1,-1 0,-0.554 -0.446,-1 -1,-1 l -3.09375,0 -3.6875,-5.5 c -0.2665,-0.45685 -0.28331,-0.49822 -0.65625,-0.5 l -0.0625,0 z" id="path6273" fill="#bebebe"/>
 </g>
</svg>
