<?xml version="1.0" encoding="UTF-8" standalone="no"?>
<svg
   xmlns:osb="http://www.openswatchbook.org/uri/2009/osb"
   xmlns:dc="http://purl.org/dc/elements/1.1/"
   xmlns:cc="http://creativecommons.org/ns#"
   xmlns:rdf="http://www.w3.org/1999/02/22-rdf-syntax-ns#"
   xmlns:svg="http://www.w3.org/2000/svg"
   xmlns="http://www.w3.org/2000/svg"
   width="16"
   version="1.1"
   style="enable-background:new"
   id="svg7384"
   height="16">
  <metadata
     id="metadata90">
    <rdf:RDF>
      <cc:Work
         rdf:about="">
        <dc:format>image/svg+xml</dc:format>
        <dc:type
           rdf:resource="http://purl.org/dc/dcmitype/StillImage" />
        <dc:title>Moka Symbolic Icon Theme</dc:title>
      </cc:Work>
    </rdf:RDF>
  </metadata>
  <title
     id="title8473">Moka Symbolic Icon Theme</title>
  <defs
     id="defs7386">
    <linearGradient
       osb:paint="solid"
       id="linearGradient5606">
      <stop
         style="stop-color:#000000;stop-opacity:1;"
         offset="0"
         id="stop5608" />
    </linearGradient>
    <filter
       style="color-interpolation-filters:sRGB"
       id="filter7554">
      <feBlend
         mode="darken"
         in2="BackgroundImage"
         id="feBlend7556" />
    </filter>
  </defs>
  <g
     transform="translate(-401.0002,248.00336)"
     style="display:inline"
     id="layer9">
    <path
       style="color:#bebebe;display:inline;overflow:visible;visibility:visible;fill:#bebebe;fill-opacity:1;fill-rule:nonzero;stroke:none;stroke-width:1;marker:none;enable-background:accumulate"
       id="path6751-4-5"
       d="m 409.00022,-247.00336 c -2.20914,0 -4,1.79086 -4,4 0,2.20914 1.79086,4 4,4 2.20914,0 4,-1.79086 4,-4 0,-2.20914 -1.79086,-4 -4,-4 z" />
    <path
       style="fill:#bebebe;fill-opacity:1;fill-rule:evenodd;stroke:none"
       id="path6729-2-3"
       d="m 405.78147,-239.22211 c -2.24866,1.16455 -2.78125,3.51165 -2.78125,6.21875 l 12,0 c 0,-2.7071 -0.53259,-5.0542 -2.78125,-6.21875 -0.87459,0.74817 -1.98482,1.21875 -3.21875,1.21875 -1.23393,0 -2.34416,-0.47058 -3.21875,-1.21875 z" />
  </g>
  <g
     transform="translate(-401.0002,248.00336)"
     style="display:inline;filter:url(#filter7554)"
     id="layer10" />
  <g
     transform="translate(-160,-368.99664)"
     style="display:inline"
     id="layer1" />
  <g
     transform="translate(-401.0002,248.00336)"
     style="display:inline"
     id="layer14" />
  <g
     transform="translate(-401.0002,248.00336)"
     style="display:inline"
     id="layer15" />
  <g
     transform="translate(-401.0002,248.00336)"
     style="display:inline"
     id="g71291" />
  <g
     transform="translate(-160,-218.99664)"
     style="display:inline"
     id="layer2" />
  <g
     transform="translate(-160,-218.99664)"
     style="display:inline"
     id="g6058" />
  <g
     transform="translate(-401.0002,248.00336)"
     style="display:inline"
     id="layer12" />
</svg>
