<?xml version='1.0' encoding='UTF-8' standalone='no'?>
<svg height="16" xmlns:inkscape="http://www.inkscape.org/namespaces/inkscape" xmlns:sodipodi="http://sodipodi.sourceforge.net/DTD/sodipodi-0.dtd" version="1.1" width="16" xmlns="http://www.w3.org/2000/svg" enable-background="new">
 <metadata id="metadata90"/>
 <defs id="defs7386">
  <linearGradient id="linearGradient5606" osb:paint="solid">
   <stop id="stop5608"/>
  </linearGradient>
  <filter inkscape:collect="always" color-interpolation-filters="sRGB" id="filter7554">
   <feBlend inkscape:collect="always" id="feBlend7556" in2="BackgroundImage" mode="darken"/>
  </filter>
 </defs>
 <g inkscape:groupmode="layer" id="layer9" inkscape:label="status" transform="translate(-340.0002,162)">
  <g id="g7261" transform="translate(-137,241)">
   <path inkscape:connector-curvature="0" d="m 243,64 c -2.01566,0 -4,2.02594 -4,4 l 0,2 1,0 0,-2 c 0,-1.662 1.338,-3 3,-3 l 2,0 c 1.662,0 3,1.338 3,3 l 0,2 1,0 0,-2 c 0,-1.99486 -1.96353,-4 -4,-4 l -2,0 z" id="rect5137-0" transform="translate(241.0002,-467)" fill="#bebebe" color="#bebebe"/>
   <path inkscape:connector-curvature="0" d="m 238,71 0,1 0,1 0,0.5 0,1.25 0,0.25 0,0.5 0,1.5 0,0.5 0,0.5 0,0.5 c 0,0.831 0.669,1.5 1.5,1.5 l 9,0 c 0.831,0 1.5,-0.669 1.5,-1.5 l 0,-0.5 0,-0.5 0,-0.5 0,-1.5 0,-0.5 0,-0.25 0,-1.25 0,-0.5 0,-1 0,-1 -12,0 z m 1,1 10,0 0,1 -1.25,0 0,0.5 1.25,0 0,1.25 0,0.25 -1.25,0 0,0.5 1.25,0 0,1.5 -1.25,0 0,0.5 1.25,0 0,0.5 0,0.5 c 0,0.2943 -0.2057,0.5 -0.5,0.5 l -9,0 c -0.2943,0 -0.5,-0.2057 -0.5,-0.5 l 0,-0.5 0,-0.5 1.25,0 0,-0.5 -1.25,0 0,-1.5 1.25,0 0,-0.5 -1.25,0 0,-0.25 0,-1.25 1.25,0 0,-0.5 -1.25,0 0,-1 z m 4.75,1 c -0.9695,0 -1.75,0.7805 -1.75,1.75 0,0.702266 0.40576,1.314629 1,1.59375 L 243,78 l 2,0 0,-1.65625 c 0.59424,-0.279121 1,-0.891484 1,-1.59375 0,-0.9695 -0.7805,-1.75 -1.75,-1.75 l -0.5,0 z" id="rect7229" transform="translate(241.0002,-467)" fill="#bebebe" color="#000000"/>
  </g>
 </g>
</svg>
