<?xml version="1.0" encoding="UTF-8" standalone="no"?>
<svg
   xmlns:osb="http://www.openswatchbook.org/uri/2009/osb"
   xmlns:dc="http://purl.org/dc/elements/1.1/"
   xmlns:cc="http://creativecommons.org/ns#"
   xmlns:rdf="http://www.w3.org/1999/02/22-rdf-syntax-ns#"
   xmlns:svg="http://www.w3.org/2000/svg"
   xmlns="http://www.w3.org/2000/svg"
   height="16"
   id="svg7384"
   style="enable-background:new"
   version="1.1"
   width="16">
  <metadata
     id="metadata90">
    <rdf:RDF>
      <cc:Work
         rdf:about="">
        <dc:format>image/svg+xml</dc:format>
        <dc:type
           rdf:resource="http://purl.org/dc/dcmitype/StillImage" />
        <dc:title>Moka Symbolic Icon Theme</dc:title>
      </cc:Work>
    </rdf:RDF>
  </metadata>
  <title
     id="title8473">Moka Symbolic Icon Theme</title>
  <defs
     id="defs7386">
    <linearGradient
       id="linearGradient5606"
       osb:paint="solid">
      <stop
         id="stop5608"
         offset="0"
         style="stop-color:#000000;stop-opacity:1;" />
    </linearGradient>
    <filter
       id="filter7554"
       style="color-interpolation-filters:sRGB">
      <feBlend
         id="feBlend7556"
         in2="BackgroundImage"
         mode="darken" />
    </filter>
  </defs>
  <g
     id="layer9"
     style="display:inline"
     transform="translate(-280.00021,288.00336)">
    <path
       d="m 288.0002,-287.00336 c -3.86599,0 -7,3.13401 -7,7 0,3.86599 3.13401,7 7,7 3.86599,0 7,-3.13401 7,-7 0,-3.86599 -3.13401,-7 -7,-7 z m -1,2 2,0 0,5 -0.25,2 -1.5,0 -0.25,-2 0,-5 z m 0,8 2,0 0,2 -2,0 0,-2 z"
       id="path5381"
       style="color:#000000;display:inline;overflow:visible;visibility:visible;fill:#bebebe;fill-opacity:1;fill-rule:nonzero;stroke:none;stroke-width:2;marker:none;enable-background:accumulate" />
  </g>
  <g
     id="layer10"
     style="display:inline;filter:url(#filter7554)"
     transform="translate(-280.00021,288.00336)" />
  <g
     id="layer1"
     style="display:inline"
     transform="translate(-39.000014,-328.99664)" />
  <g
     id="layer14"
     style="display:inline"
     transform="translate(-280.00021,288.00336)" />
  <g
     id="layer15"
     style="display:inline"
     transform="translate(-280.00021,288.00336)" />
  <g
     id="g71291"
     style="display:inline"
     transform="translate(-280.00021,288.00336)" />
  <g
     id="layer2"
     style="display:inline"
     transform="translate(-39.000014,-178.99664)" />
  <g
     id="g6058"
     style="display:inline"
     transform="translate(-39.000014,-178.99664)" />
  <g
     id="layer12"
     style="display:inline"
     transform="translate(-280.00021,288.00336)" />
</svg>
