<?xml version='1.0' encoding='UTF-8' standalone='no'?>
<svg height="16" xmlns:inkscape="http://www.inkscape.org/namespaces/inkscape" xmlns:sodipodi="http://sodipodi.sourceforge.net/DTD/sodipodi-0.dtd" version="1.1" width="16" xmlns="http://www.w3.org/2000/svg" enable-background="new">
 <metadata id="metadata90"/>
 <defs id="defs7386">
  <linearGradient id="linearGradient5606" osb:paint="solid">
   <stop id="stop5608"/>
  </linearGradient>
  <filter inkscape:collect="always" color-interpolation-filters="sRGB" id="filter7554">
   <feBlend inkscape:collect="always" id="feBlend7556" in2="BackgroundImage" mode="darken"/>
  </filter>
 </defs>
 <g inkscape:groupmode="layer" id="layer9" inkscape:label="status" transform="translate(-360.99799,323)">
  <path inkscape:connector-curvature="0" d="m 366.0002,-322 c -1.662,0 -3,1.338 -3,3 l 0,5 c 0,1.662 1.338,3 3,3 1.662,0 3,-1.338 3,-3 l 0,-5 c 0,-1.662 -1.338,-3 -3,-3 z m -5,5 0,2.90625 a 0.50030048,0.49979969 0 0 0 0,0.0937 c 0,2.40877 1.72585,4.4097 4,4.875 l 0,2.125 2,0 0,-2.125 c 2.27415,-0.4653 4,-2.46623 4,-4.875 a 0.50030048,0.49979969 0 0 0 0,-0.1875 l 0,-2.8125 -1,0 0,2.8125 a 0.50030048,0.49979969 0 0 0 0,0.15625 l 0,0.0312 c 0,2.21271 -1.78508,4 -4,4 -2.21492,0 -4,-1.78729 -4,-4 a 0.50030048,0.49979969 0 0 0 0,-0.0312 l 0,-2.9688 -1,0 z" id="rect16707-7" fill="#bebebe" color="#bebebe" stroke-width="2"/>
  <path inkscape:connector-curvature="0" d="m 375.00015,-317 c -1.10457,0 -2,0.89543 -2,2 0,1.10457 0.89543,2 2,2 1.10457,0 2,-0.89543 2,-2 0,-1.10457 -0.89543,-2 -2,-2 z" id="path6723" sodipodi:nodetypes="sssss" opacity="0.35" fill="#bebebe" color="#bebebe" stroke-width="2"/>
  <path inkscape:connector-curvature="0" d="m 375.00015,-322 c -1.10457,0 -2,0.89543 -2,2 0,1.10457 0.89543,2 2,2 1.10457,0 2,-0.89543 2,-2 0,-1.10457 -0.89543,-2 -2,-2 z" id="path6726" sodipodi:nodetypes="sssss" opacity="0.35" fill="#bebebe" color="#bebebe" stroke-width="2"/>
  <circle cx="113.5" cy="101.5" id="path6756" r="2.5" transform="matrix(0.8,0,0,0.8,284.2002,-391.2)" fill="#bebebe" color="#bebebe" stroke-width="2"/>
 </g>
</svg>
