<?xml version='1.0' encoding='UTF-8' standalone='no'?>
<svg height="16" xmlns:inkscape="http://www.inkscape.org/namespaces/inkscape" xmlns:sodipodi="http://sodipodi.sourceforge.net/DTD/sodipodi-0.dtd" version="1.1" width="16" xmlns="http://www.w3.org/2000/svg" enable-background="new">
 <metadata id="metadata90"/>
 <defs id="defs7386">
  <linearGradient id="linearGradient5606" osb:paint="solid">
   <stop id="stop5608"/>
  </linearGradient>
  <filter inkscape:collect="always" color-interpolation-filters="sRGB" id="filter7554">
   <feBlend inkscape:collect="always" id="feBlend7556" in2="BackgroundImage" mode="darken"/>
  </filter>
 </defs>
 <g inkscape:groupmode="layer" id="layer9" inkscape:label="status" transform="translate(-461.0002,363)">
  <path inkscape:connector-curvature="0" d="m 471.00019,-362.53125 0,1.03125 0,1.5 -2.5,0 -0.5,0 0,1 0.5,0 3,0 0.5,0 0,-0.5 0,-0.96875 3.40627,2.96875 -3.40627,2.96875 0,-0.96875 0,-0.5 -0.5,0 -2.5,0 0,1 2,0 0,1.5 0,1.03125 0.8125,-0.65625 5.18752,-4.375 0,0 0,0 -5.18752,-4.375 z" id="path5918" sodipodi:nodetypes="ccccccccccccccccccccccccccc" opacity="0.35" fill="#bebebe" color="#000000"/>
  <path inkscape:connector-curvature="0" d="m 467.00019,-358.53125 -0.8125,0.65625 -5.18748,4.375 0,0 0,0 5.18748,4.375 0.8125,0.65625 0,-1.03125 0,-1.5 2.5,0 0.5,0 0,-1 -0.5,0 -3,0 -0.5,0 0,0.5 0,0.96875 -3.40623,-2.96875 3.40623,-2.96875 0,0.96875 0,0.5 0.5,0 2.50002,0 0,-1 -2.00002,0 0,-1.5 z" id="path5920" sodipodi:nodetypes="ccccccccccccccccccccccccccc" opacity="0.35" fill="#bebebe" color="#000000"/>
  <path inkscape:connector-curvature="0" d="m 472.00019,-352 0,1 c 0,0.27614 0.10029,0.53779 0.28125,0.71875 l 0.78125,0.78125 -0.78125,0.78125 c -0.18096,0.18096 -0.28125,0.44261 -0.28125,0.71875 l 0,1 1,0 c 0.27614,0 0.53779,-0.10029 0.71875,-0.28125 l 0.78125,-0.78125 0.78125,0.78125 c 0.18096,0.18096 0.44261,0.28125 0.71875,0.28125 l 1,0 0,-1 c 0,-0.27614 -0.10029,-0.53779 -0.28125,-0.71875 l -0.78125,-0.78125 0.78125,-0.78125 c 0.18096,-0.18096 0.28125,-0.44261 0.28125,-0.71875 l 0,-1 -1,0 c -0.27614,0 -0.53779,0.10029 -0.71875,0.28125 l -0.78125,0.78125 -0.78125,-0.78125 C 473.53798,-351.89971 473.27633,-352 473.00019,-352 l -1,0 z" id="path5898-0" fill="#bebebe"/>
 </g>
</svg>
