<?xml version='1.0' encoding='UTF-8' standalone='no'?>
<svg height="16" xmlns:inkscape="http://www.inkscape.org/namespaces/inkscape" xmlns:sodipodi="http://sodipodi.sourceforge.net/DTD/sodipodi-0.dtd" version="1.1" width="16" xmlns="http://www.w3.org/2000/svg" enable-background="new">
 <metadata id="metadata90"/>
 <defs id="defs7386">
  <linearGradient id="linearGradient5606" osb:paint="solid">
   <stop id="stop5608"/>
  </linearGradient>
  <filter inkscape:collect="always" color-interpolation-filters="sRGB" id="filter7554">
   <feBlend inkscape:collect="always" id="feBlend7556" in2="BackgroundImage" mode="darken"/>
  </filter>
 </defs>
 <g inkscape:groupmode="layer" id="layer9" inkscape:label="status" transform="translate(-461.00021,263)">
  <path inkscape:connector-curvature="0" d="m 464.0002,-262 0,6 -1,0 c -1,0 -1,1 -1,1 l 0,5 2,0 0,2 7,0 0,-1 -6,0 0,-1 6,0 0,-6 -6,0 0,-5 8,0 0,4 1,0 0,-5 -10,0 z m 11,6 0,6 1,0 0,-5 c 0,0 0.108,-1 -1,-1 z m -11,2 1,0 0,1 -1,0 0,-1 z" id="path5169" fill="#bebebe" color="#000000" stroke-width="4"/>
  <path inkscape:connector-curvature="0" d="m 472.00019,-256.00003 1e-5,4.00003 0.25,2 1.5,0 0.25,-2 -1e-5,-4.00003 z m 0,7 0,2 2,0 0,-2 z" id="path5140" sodipodi:nodetypes="cccccccccccc" fill="#f57900" color="#bebebe" stroke-width="2"/>
 </g>
</svg>
