<?xml version='1.0' encoding='UTF-8' standalone='no'?>
<svg height="16" xmlns:inkscape="http://www.inkscape.org/namespaces/inkscape" xmlns:sodipodi="http://sodipodi.sourceforge.net/DTD/sodipodi-0.dtd" version="1.1" width="16.969" xmlns="http://www.w3.org/2000/svg" enable-background="new">
 <metadata id="metadata90"/>
 <defs id="defs7386">
  <linearGradient id="linearGradient5606" osb:paint="solid">
   <stop id="stop5608"/>
  </linearGradient>
  <filter inkscape:collect="always" color-interpolation-filters="sRGB" id="filter7554">
   <feBlend inkscape:collect="always" id="feBlend7556" in2="BackgroundImage" mode="darken"/>
  </filter>
 </defs>
 <g inkscape:groupmode="layer" id="layer9" inkscape:label="status" transform="translate(-400.03146,208.00336)">
  <path inkscape:connector-curvature="0" d="m 411.0002,-197.00336 0,1 c 0,0.27614 0.10029,0.53779 0.28125,0.71875 l 0.78125,0.78125 -0.78125,0.78125 c -0.18096,0.18096 -0.28125,0.44261 -0.28125,0.71875 l 0,1 1,0 c 0.27614,0 0.53779,-0.10029 0.71875,-0.28125 l 0.78125,-0.78125 0.78125,0.78125 c 0.18096,0.18096 0.44261,0.28125 0.71875,0.28125 l 1,0 0,-1 c 0,-0.27614 -0.10029,-0.53779 -0.28125,-0.71875 l -0.78125,-0.78125 0.78125,-0.78125 c 0.18096,-0.18096 0.28125,-0.44261 0.28125,-0.71875 l 0,-1 -1,0 c -0.27614,0 -0.53779,0.10029 -0.71875,0.28125 l -0.78125,0.78125 -0.78125,-0.78125 c -0.18096,-0.18096 -0.44261,-0.28125 -0.71875,-0.28125 z" id="path5658" sodipodi:nodetypes="csscsscsscsscsscsscsscssc" fill="#bebebe"/>
  <path inkscape:connector-curvature="0" d="m 408.0002,-208 c -1.10457,0 -2,0.89543 -2,2 l -4,0 0,10 0,3 1.65625,0 6.34375,0 0,-1 -5,0 -1,0 -1,0 0,-10 0,-0.5 0,-0.5 3,0 0,1 c 0,0 -1,0 -1,1 l 1,0 4,0 1,0 c 0,-0.75 -0.5625,-0.95312 -0.84375,-1 l -0.15625,0 0,-1 2,0 1,0 0,2 0,5 1,0 0,-8 -4,0 c 0,-0.13807 -0.005,-0.27605 -0.0312,-0.40625 C 409.78241,-207.31762 408.9667,-208 408.0002,-208 z m 0,1 c 0.41421,0 0.75444,0.26608 0.90625,0.625 0.0506,0.11964 0.0937,0.23693 0.0937,0.375 0,0.55228 -0.44771,1 -1,1 -0.55229,0 -1,-0.44772 -1,-1 0,-0.55228 0.44771,-1 1,-1 z" id="path6055" sodipodi:nodetypes="sccccccccccccccccccccccccccccccsscsssss" fill="#bebebe" color="#000000" stroke-width="4"/>
 </g>
</svg>
