<?xml version='1.0' encoding='UTF-8' standalone='no'?>
<svg height="16" xmlns:inkscape="http://www.inkscape.org/namespaces/inkscape" xmlns:sodipodi="http://sodipodi.sourceforge.net/DTD/sodipodi-0.dtd" version="1.1" width="16" xmlns="http://www.w3.org/2000/svg" enable-background="new">
 <metadata id="metadata90"/>
 <defs id="defs7386">
  <linearGradient id="linearGradient5606" osb:paint="solid">
   <stop id="stop5608"/>
  </linearGradient>
  <filter inkscape:collect="always" color-interpolation-filters="sRGB" id="filter7554">
   <feBlend inkscape:collect="always" id="feBlend7556" in2="BackgroundImage" mode="darken"/>
  </filter>
 </defs>
 <g inkscape:groupmode="layer" id="layer9" inkscape:label="status" transform="translate(-381.03146,208.00328)">
  <path inkscape:connector-curvature="0" d="m 389.0002,-208 c -1.10457,0 -2,0.89543 -2,2 l -4,0 0,10 0,3 1.65625,0 7.34375,0 0,-1 -6,0 -1,0 -1,0 0,-10 0,-0.5 0,-0.5 3,0 0,1 c 0,0 -1,0 -1,1 l 1,0 4,0 1,0 c 0,-0.75 -0.5625,-0.95312 -0.84375,-1 l -0.15625,0 0,-1 2,0 1,0 0,2 0,1 1,0 0,-4 -4,0 c 0,-0.13807 -0.005,-0.27605 -0.0312,-0.40625 C 390.78241,-207.31762 389.9667,-208 389.0002,-208 z m 0,1 c 0.41421,0 0.75444,0.26608 0.90625,0.625 0.0506,0.11964 0.0937,0.23693 0.0937,0.375 0,0.55228 -0.44771,1 -1,1 -0.55229,0 -1,-0.44772 -1,-1 0,-0.55228 0.44771,-1 1,-1 z" id="path3810-3" fill="#bebebe" color="#000000" stroke-width="4"/>
  <path inkscape:connector-curvature="0" d="m 393.0002,-201 10e-6,4.00003 0.25,2 1.5,0 0.25,-2 -10e-6,-4.00003 z m 0,7 0,2 2,0 0,-2 z" id="path5140-8-2" sodipodi:nodetypes="cccccccccccc" fill="#f57900" color="#bebebe" stroke-width="2"/>
 </g>
</svg>
