<?xml version="1.0" encoding="UTF-8" standalone="no"?>
<svg
   xmlns:osb="http://www.openswatchbook.org/uri/2009/osb"
   xmlns:dc="http://purl.org/dc/elements/1.1/"
   xmlns:cc="http://creativecommons.org/ns#"
   xmlns:rdf="http://www.w3.org/1999/02/22-rdf-syntax-ns#"
   xmlns:svg="http://www.w3.org/2000/svg"
   xmlns="http://www.w3.org/2000/svg"
   width="16.000013"
   version="1.1"
   style="enable-background:new"
   id="svg7384"
   height="16.000002">
  <metadata
     id="metadata90">
    <rdf:RDF>
      <cc:Work
         rdf:about="">
        <dc:format>image/svg+xml</dc:format>
        <dc:type
           rdf:resource="http://purl.org/dc/dcmitype/StillImage" />
        <dc:title>Moka Symbolic Icon Theme</dc:title>
      </cc:Work>
    </rdf:RDF>
  </metadata>
  <title
     id="title8473">Moka Symbolic Icon Theme</title>
  <defs
     id="defs7386">
    <linearGradient
       osb:paint="solid"
       id="linearGradient5606">
      <stop
         style="stop-color:#000000;stop-opacity:1;"
         offset="0"
         id="stop5608" />
    </linearGradient>
    <filter
       style="color-interpolation-filters:sRGB"
       id="filter7554">
      <feBlend
         mode="darken"
         in2="BackgroundImage"
         id="feBlend7556" />
    </filter>
  </defs>
  <g
     transform="translate(-341.0002,268.00336)"
     style="display:inline"
     id="layer9">
    <rect
       y="-357.00021"
       x="-268.00336"
       width="16.000002"
       transform="matrix(0,1,-1,0,0,0)"
       style="fill:none;stroke:none"
       id="rect23847-0-7"
       height="16" />
    <path
       style="opacity:0.35;fill:#bebebe;fill-opacity:1;stroke:none"
       id="path23849-6-5"
       d="m 342.5002,-266.00336 c -1.5,0 -1.5,1.5 -1.5,1.5 l 0,9 c 0,0 0,1.5 1.5,1.5 l 8.75,0 c 0.084,-0.15845 0.17984,-0.30484 0.3125,-0.4375 l 0.0625,-0.0625 -0.0625,-0.0625 c -0.39113,-0.39113 -0.5625,-0.91924 -0.5625,-1.4375 l -2,0 0,-2 2,0 2,0 1,0 0,0.25 c 0.15845,0.084 0.30484,0.17984 0.4375,0.3125 l 0.0625,0.0625 0.0625,-0.0625 c 0.39113,-0.39113 0.91924,-0.5625 1.4375,-0.5625 l 0,-6.5 c 0,-1.5 -1.5,-1.5 -1.5,-1.5 l -12,0 z m 0.5,2 11,0 0,5 -11,0 0,-5 z m 0,6 5,0 0,2 -5,0 0,-2 z" />
    <path
       style="display:inline;fill:#bebebe;fill-opacity:1;stroke:none;enable-background:new"
       id="path2987-7-9-8-5-1-5"
       d="m 352.00019,-257.00336 0,1 c 0,0.27614 0.10029,0.53779 0.28125,0.71875 l 0.78125,0.78125 -0.78125,0.78125 c -0.18096,0.18096 -0.28125,0.44261 -0.28125,0.71875 l 0,1 1,0 c 0.27614,0 0.53779,-0.10029 0.71875,-0.28125 l 0.78125,-0.78125 0.78125,0.78125 c 0.18096,0.18096 0.44261,0.28125 0.71875,0.28125 l 1,0 0,-1 c 0,-0.27614 -0.10029,-0.53779 -0.28125,-0.71875 l -0.78125,-0.78125 0.78125,-0.78125 c 0.18096,-0.18096 0.28125,-0.44261 0.28125,-0.71875 l 0,-1 -1,0 c -0.27614,0 -0.53779,0.10029 -0.71875,0.28125 l -0.78125,0.78125 -0.78125,-0.78125 c -0.18096,-0.18096 -0.44261,-0.28125 -0.71875,-0.28125 l -1,0 z" />
  </g>
  <g
     transform="translate(-341.0002,268.00336)"
     style="display:inline;filter:url(#filter7554)"
     id="layer10" />
  <g
     transform="translate(-100,-348.99664)"
     style="display:inline"
     id="layer1" />
  <g
     transform="translate(-341.0002,268.00336)"
     style="display:inline"
     id="layer14" />
  <g
     transform="translate(-341.0002,268.00336)"
     style="display:inline"
     id="layer15" />
  <g
     transform="translate(-341.0002,268.00336)"
     style="display:inline"
     id="g71291" />
  <g
     transform="translate(-100,-198.99664)"
     style="display:inline"
     id="layer2" />
  <g
     transform="translate(-100,-198.99664)"
     style="display:inline"
     id="g6058" />
  <g
     transform="translate(-341.0002,268.00336)"
     style="display:inline"
     id="layer12" />
</svg>
