<?xml version="1.0" encoding="UTF-8" standalone="no"?>
<svg
   xmlns:osb="http://www.openswatchbook.org/uri/2009/osb"
   xmlns:dc="http://purl.org/dc/elements/1.1/"
   xmlns:cc="http://creativecommons.org/ns#"
   xmlns:rdf="http://www.w3.org/1999/02/22-rdf-syntax-ns#"
   xmlns:svg="http://www.w3.org/2000/svg"
   xmlns="http://www.w3.org/2000/svg"
   width="16.000019"
   version="1.1"
   style="enable-background:new"
   id="svg7384"
   height="16.000124">
  <metadata
     id="metadata90">
    <rdf:RDF>
      <cc:Work
         rdf:about="">
        <dc:format>image/svg+xml</dc:format>
        <dc:type
           rdf:resource="http://purl.org/dc/dcmitype/StillImage" />
        <dc:title>Moka Symbolic Icon Theme</dc:title>
      </cc:Work>
    </rdf:RDF>
  </metadata>
  <title
     id="title8473">Moka Symbolic Icon Theme</title>
  <defs
     id="defs7386">
    <linearGradient
       osb:paint="solid"
       id="linearGradient5606">
      <stop
         style="stop-color:#000000;stop-opacity:1;"
         offset="0"
         id="stop5608" />
    </linearGradient>
    <filter
       style="color-interpolation-filters:sRGB"
       id="filter7554">
      <feBlend
         mode="darken"
         in2="BackgroundImage"
         id="feBlend7556" />
    </filter>
  </defs>
  <g
     transform="translate(-461.0002,308.00336)"
     style="display:inline"
     id="layer9">
    <path
       style="color:#000000;font-style:normal;font-variant:normal;font-weight:normal;font-stretch:normal;line-height:normal;font-family:Sans;-inkscape-font-specification:Sans;text-indent:0;text-align:start;text-decoration:none;text-decoration-line:none;letter-spacing:normal;word-spacing:normal;text-transform:none;direction:ltr;block-progression:tb;writing-mode:lr-tb;baseline-shift:baseline;text-anchor:start;display:inline;overflow:visible;visibility:visible;fill:#bebebe;fill-opacity:1;stroke:none;stroke-width:1px;marker:none;enable-background:accumulate"
       id="path6093-5"
       d="m 467.5002,-308.00336 c -1.92707,0 -3.5,1.57293 -3.5,3.5 0,0.17852 0.0365,0.35978 0.0625,0.53125 -1.72441,0.21437 -3.0625,1.68811 -3.0625,3.46875 0,1.92707 1.57293,3.5 3.5,3.5 l 2.5,0 0,-4.96875 0,-1.03125 4.01562,0 -0.0156,1.03125 0,4.96875 3,0 c 1.65093,0 3,-1.34907 3,-3 0,-1.65093 -1.34907,-3 -3,-3 -0.17414,0 -0.33381,0.0337 -0.5,0.0625 -0.10013,-1.14613 -1.0792,-2.0625 -2.25,-2.0625 -0.0997,0 -0.18491,0.0187 -0.28125,0.0312 -0.22778,-1.70973 -1.69852,-3.0312 -3.46877,-3.0312 z" />
    <rect
       y="-308.00299"
       x="461.00021"
       width="16"
       style="color:#bebebe;display:inline;overflow:visible;visibility:visible;fill:none;stroke:none;stroke-width:1.78100002;marker:none;enable-background:new"
       id="rect7669"
       height="15.999758" />
    <path
       style="color:#bebebe;display:inline;overflow:visible;visibility:visible;fill:#ef2929;fill-opacity:1;stroke:none;stroke-width:2;marker:none;enable-background:accumulate"
       id="rect7811"
       d="m 468.0002,-302.00336 0,4 0.25,2 1.5,0 0.25,-2 0,-4 z m 0,7 0,2 2,0 0,-2 z"
       class="error" />
  </g>
  <g
     transform="translate(-461.0002,308.00336)"
     style="display:inline;filter:url(#filter7554)"
     id="layer10" />
  <g
     transform="translate(-220,-308.99664)"
     style="display:inline"
     id="layer1" />
  <g
     transform="translate(-461.0002,308.00336)"
     style="display:inline"
     id="layer14" />
  <g
     transform="translate(-461.0002,308.00336)"
     style="display:inline"
     id="layer15" />
  <g
     transform="translate(-461.0002,308.00336)"
     style="display:inline"
     id="g71291" />
  <g
     transform="translate(-220,-158.99664)"
     style="display:inline"
     id="layer2" />
  <g
     transform="translate(-220,-158.99664)"
     style="display:inline"
     id="g6058" />
  <g
     transform="translate(-461.0002,308.00336)"
     style="display:inline"
     id="layer12" />
</svg>
