<?xml version="1.0" encoding="UTF-8" standalone="no"?>
<svg
   xmlns:osb="http://www.openswatchbook.org/uri/2009/osb"
   xmlns:dc="http://purl.org/dc/elements/1.1/"
   xmlns:cc="http://creativecommons.org/ns#"
   xmlns:rdf="http://www.w3.org/1999/02/22-rdf-syntax-ns#"
   xmlns:svg="http://www.w3.org/2000/svg"
   xmlns="http://www.w3.org/2000/svg"
   width="16.000013"
   version="1.1"
   style="enable-background:new"
   id="svg7384"
   height="16">
  <metadata
     id="metadata90">
    <rdf:RDF>
      <cc:Work
         rdf:about="">
        <dc:format>image/svg+xml</dc:format>
        <dc:type
           rdf:resource="http://purl.org/dc/dcmitype/StillImage" />
        <dc:title>Moka Symbolic Icon Theme</dc:title>
      </cc:Work>
    </rdf:RDF>
  </metadata>
  <title
     id="title8473">Moka Symbolic Icon Theme</title>
  <defs
     id="defs7386">
    <linearGradient
       osb:paint="solid"
       id="linearGradient5606">
      <stop
         style="stop-color:#000000;stop-opacity:1;"
         offset="0"
         id="stop5608" />
    </linearGradient>
    <filter
       style="color-interpolation-filters:sRGB"
       id="filter7554">
      <feBlend
         mode="darken"
         in2="BackgroundImage"
         id="feBlend7556" />
    </filter>
  </defs>
  <g
     transform="translate(-361.0002,308.00336)"
     style="display:inline"
     id="layer9">
    <path
       style="color:#bebebe;display:inline;overflow:visible;visibility:visible;fill:#bebebe;fill-opacity:1;stroke:none;stroke-width:2;marker:none;enable-background:accumulate"
       id="path6112"
       d="m 369.0002,-308.00336 -0.5,1.03125 c 0.16526,-0.0117 0.33177,-0.0312 0.5,-0.0312 0.16823,0 0.33474,0.0196 0.5,0.0312 l -0.5,-1.03125 z m 0,2 c -3.31371,0 -6,2.68629 -6,6 0,3.31371 2.68629,6 6,6 3.31371,0 6,-2.68629 6,-6 0,-3.31371 -2.68629,-6 -6,-6 z m -5.65625,0.34375 0.375,1.09375 c 0.21793,-0.25121 0.46754,-0.50082 0.71875,-0.71875 l -1.09375,-0.375 z m 11.3125,0 -1.09375,0.375 c 0.25121,0.21793 0.50082,0.46754 0.71875,0.71875 l 0.375,-1.09375 z m -12.625,5.15625 -1.03125,0.5 1.03125,0.5 c -0.0117,-0.16526 -0.0312,-0.33177 -0.0312,-0.5 0,-0.16823 0.0196,-0.33474 0.0312,-0.5 z m 13.9375,0 c 0.0117,0.16526 0.0312,0.33177 0.0312,0.5 0,0.16823 -0.0196,0.33474 -0.0312,0.5 l 1.03125,-0.5 -1.03125,-0.5 z m -12.25,5.0625 -0.375,1.09375 1.09375,-0.375 c -0.25121,-0.21793 -0.50082,-0.46754 -0.71875,-0.71875 z m 10.5625,0 c -0.21793,0.25121 -0.46754,0.50082 -0.71875,0.71875 l 1.09375,0.375 -0.375,-1.09375 z m -5.78125,2.40625 0.5,1.03125 0.5,-1.03125 c -0.16526,0.0117 -0.33177,0.0312 -0.5,0.0312 -0.16823,0 -0.33474,-0.0196 -0.5,-0.0312 z" />
  </g>
  <g
     transform="translate(-361.0002,308.00336)"
     style="display:inline;filter:url(#filter7554)"
     id="layer10" />
  <g
     transform="translate(-120,-308.99664)"
     style="display:inline"
     id="layer1" />
  <g
     transform="translate(-361.0002,308.00336)"
     style="display:inline"
     id="layer14" />
  <g
     transform="translate(-361.0002,308.00336)"
     style="display:inline"
     id="layer15" />
  <g
     transform="translate(-361.0002,308.00336)"
     style="display:inline"
     id="g71291" />
  <g
     transform="translate(-120,-158.99664)"
     style="display:inline"
     id="layer2" />
  <g
     transform="translate(-120,-158.99664)"
     style="display:inline"
     id="g6058" />
  <g
     transform="translate(-361.0002,308.00336)"
     style="display:inline"
     id="layer12" />
</svg>
