<?xml version='1.0' encoding='UTF-8' standalone='no'?>
<svg height="16" xmlns:inkscape="http://www.inkscape.org/namespaces/inkscape" xmlns:sodipodi="http://sodipodi.sourceforge.net/DTD/sodipodi-0.dtd" version="1.1" width="16" xmlns="http://www.w3.org/2000/svg" enable-background="new">
 <metadata id="metadata90"/>
 <defs id="defs7386">
  <linearGradient id="linearGradient5606" osb:paint="solid">
   <stop id="stop5608"/>
  </linearGradient>
  <filter inkscape:collect="always" color-interpolation-filters="sRGB" id="filter7554">
   <feBlend inkscape:collect="always" id="feBlend7556" in2="BackgroundImage" mode="darken"/>
  </filter>
 </defs>
 <g inkscape:groupmode="layer" id="layer9" inkscape:label="status" transform="translate(-481.0002,243)">
  <g id="g5037" transform="translate(7.7929688e-5,31)">
   <path inkscape:connector-curvature="0" d="m 246.5,193 c -1.92707,0 -3.5,1.57293 -3.5,3.5 0,0.17852 0.0365,0.35978 0.0625,0.53125 C 241.33809,197.24562 240,198.71936 240,200.5 c 0,1.92707 1.57293,3.5 3.5,3.5 l 9.5,0 c 1.65093,0 3,-1.34907 3,-3 0,-1.65093 -1.34907,-3 -3,-3 -0.17414,0 -0.33381,0.0337 -0.5,0.0625 -0.10013,-1.14613 -1.0792,-2.0625 -2.25,-2.0625 -0.0997,0 -0.18491,0.0185 -0.28125,0.0312 C 249.74099,194.32137 248.27025,193 246.5,193 z" id="path6093" sodipodi:nodetypes="sscssssscscs" transform="translate(241.0002,-467)" color="#000000" fill="#bebebe"/>
  </g>
  <path inkscape:connector-curvature="0" d="m 483.875,-231 a 0.50005,0.50005 0 0 0 -0.3125,0.28125 l -1,2 a 0.50005,0.50005 0 1 0 0.875,0.4375 l 1,-2 A 0.50005,0.50005 0 0 0 483.875,-231 z" id="path6124" color="#000000" fill="#bebebe"/>
  <path inkscape:connector-curvature="0" d="m 486.375,-231 a 0.50005,0.50005 0 0 0 -0.3125,0.28125 l -1,2 a 0.50005,0.50005 0 1 0 0.875,0.4375 l 1,-2 A 0.50005,0.50005 0 0 0 486.375,-231 z" id="path6128" color="#000000" fill="#bebebe"/>
  <path inkscape:connector-curvature="0" d="m 488.875,-231 a 0.50005,0.50005 0 0 0 -0.3125,0.28125 l -1,2 a 0.50005,0.50005 0 1 0 0.875,0.4375 l 1,-2 A 0.50005,0.50005 0 0 0 488.875,-231 z" id="path6132" color="#000000" fill="#bebebe"/>
  <path inkscape:connector-curvature="0" d="m 491.375,-231 a 0.50005,0.50005 0 0 0 -0.3125,0.28125 l -1,2 a 0.50005,0.50005 0 1 0 0.875,0.4375 l 1,-2 A 0.50005,0.50005 0 0 0 491.375,-231 z" id="path6136" color="#000000" fill="#bebebe"/>
  <path inkscape:connector-curvature="0" d="m 493.875,-231 a 0.50005,0.50005 0 0 0 -0.3125,0.28125 l -1,2 a 0.50005,0.50005 0 1 0 0.875,0.4375 l 1,-2 A 0.50005,0.50005 0 0 0 493.875,-231 z" id="path6140" color="#000000" fill="#bebebe"/>
 </g>
</svg>
