<?xml version="1.0" encoding="UTF-8" standalone="no"?>
<svg
   xmlns:osb="http://www.openswatchbook.org/uri/2009/osb"
   xmlns:dc="http://purl.org/dc/elements/1.1/"
   xmlns:cc="http://creativecommons.org/ns#"
   xmlns:rdf="http://www.w3.org/1999/02/22-rdf-syntax-ns#"
   xmlns:svg="http://www.w3.org/2000/svg"
   xmlns="http://www.w3.org/2000/svg"
   xmlns:sodipodi="http://sodipodi.sourceforge.net/DTD/sodipodi-0.dtd"
   xmlns:inkscape="http://www.inkscape.org/namespaces/inkscape"
   width="16.000019"
   version="1.1"
   style="enable-background:new"
   id="svg7384"
   height="16.000124"
   inkscape:version="0.91 r"
   sodipodi:docname="weather-severe-alert-symbolic.svg">
  <sodipodi:namedview
     pagecolor="#ffffff"
     bordercolor="#666666"
     borderopacity="1"
     objecttolerance="10"
     gridtolerance="10"
     guidetolerance="10"
     inkscape:pageopacity="0"
     inkscape:pageshadow="2"
     inkscape:window-width="659"
     inkscape:window-height="480"
     id="namedview22"
     showgrid="false"
     inkscape:zoom="14.749886"
     inkscape:cx="8.0000095"
     inkscape:cy="8.000062"
     inkscape:window-x="0"
     inkscape:window-y="27"
     inkscape:window-maximized="0"
     inkscape:current-layer="svg7384" />
  <metadata
     id="metadata90">
    <rdf:RDF>
      <cc:Work
         rdf:about="">
        <dc:format>image/svg+xml</dc:format>
        <dc:type
           rdf:resource="http://purl.org/dc/dcmitype/StillImage" />
        <dc:title>Moka Symbolic Icon Theme</dc:title>
      </cc:Work>
    </rdf:RDF>
  </metadata>
  <title
     id="title8473">Moka Symbolic Icon Theme</title>
  <defs
     id="defs7386">
    <linearGradient
       osb:paint="solid"
       id="linearGradient5606">
      <stop
         style="stop-color:#000000;stop-opacity:1;"
         offset="0"
         id="stop5608" />
    </linearGradient>
    <filter
       style="color-interpolation-filters:sRGB"
       id="filter7554">
      <feBlend
         mode="darken"
         in2="BackgroundImage"
         id="feBlend7556" />
    </filter>
  </defs>
  <path
     inkscape:connector-curvature="0"
     d="M 6.5,0 C 4.57293,0 3,1.57293 3,3.5 3,3.67852 3.0365,3.85978 3.0625,4.03125 1.33809,4.24562 0,5.71936 0,7.5 0,9.42707 1.57293,11 3.5,11 L 6,11 6,6.03125 6,5 l 4.01562,0 -0.0156,1.03125 0,4.96875 3,0 c 1.65093,0 3,-1.34907 3,-3 0,-1.65093 -1.34907,-3 -3,-3 -0.17414,0 -0.33381,0.0337 -0.5,0.0625 C 12.39989,3.91637 11.42082,3 10.25002,3 10.15032,3 10.06511,3.0187 9.96877,3.0312 9.74099,1.32147 8.27025,0 6.5,0 Z"
     id="path6093-5"
     style="color:#000000;font-style:normal;font-variant:normal;font-weight:normal;font-stretch:normal;line-height:normal;font-family:Sans;-inkscape-font-specification:Sans;text-indent:0;text-align:start;text-decoration:none;text-decoration-line:none;letter-spacing:normal;word-spacing:normal;text-transform:none;direction:ltr;block-progression:tb;writing-mode:lr-tb;baseline-shift:baseline;text-anchor:start;display:inline;overflow:visible;visibility:visible;fill:#bebebe;fill-opacity:1;stroke:none;stroke-width:1px;marker:none;enable-background:accumulate" />
  <path
     inkscape:connector-curvature="0"
     class="error"
     d="m 7,6 0,4 0.25,2 1.5,0 L 9,10 9,6 Z m 0,7 0,2 2,0 0,-2 z"
     id="rect7811"
     style="color:#bebebe;display:inline;overflow:visible;visibility:visible;fill:#ef2929;fill-opacity:1;stroke:none;stroke-width:2;marker:none;enable-background:accumulate" />
  <g
     transform="translate(-461.0002,308.00336)"
     style="display:inline;filter:url(#filter7554)"
     id="layer10" />
  <g
     transform="translate(-220,-308.99664)"
     style="display:inline"
     id="layer1" />
  <g
     transform="translate(-461.0002,308.00336)"
     style="display:inline"
     id="layer14" />
  <g
     transform="translate(-461.0002,308.00336)"
     style="display:inline"
     id="layer15" />
  <g
     transform="translate(-461.0002,308.00336)"
     style="display:inline"
     id="g71291" />
  <g
     transform="translate(-220,-158.99664)"
     style="display:inline"
     id="layer2" />
  <g
     transform="translate(-220,-158.99664)"
     style="display:inline"
     id="g6058" />
  <g
     transform="translate(-461.0002,308.00336)"
     style="display:inline"
     id="layer12" />
</svg>
