<?xml version="1.0" encoding="UTF-8" standalone="no"?>
<svg
   xmlns:osb="http://www.openswatchbook.org/uri/2009/osb"
   xmlns:dc="http://purl.org/dc/elements/1.1/"
   xmlns:cc="http://creativecommons.org/ns#"
   xmlns:rdf="http://www.w3.org/1999/02/22-rdf-syntax-ns#"
   xmlns:svg="http://www.w3.org/2000/svg"
   xmlns="http://www.w3.org/2000/svg"
   width="16.000017"
   version="1.1"
   style="enable-background:new"
   id="svg7384"
   height="16.000488">
  <metadata
     id="metadata90">
    <rdf:RDF>
      <cc:Work
         rdf:about="">
        <dc:format>image/svg+xml</dc:format>
        <dc:type
           rdf:resource="http://purl.org/dc/dcmitype/StillImage" />
        <dc:title>Moka Symbolic Icon Theme</dc:title>
      </cc:Work>
    </rdf:RDF>
  </metadata>
  <title
     id="title8473">Moka Symbolic Icon Theme</title>
  <defs
     id="defs7386">
    <linearGradient
       osb:paint="solid"
       id="linearGradient5606">
      <stop
         style="stop-color:#000000;stop-opacity:1;"
         offset="0"
         id="stop5608" />
    </linearGradient>
    <filter
       style="color-interpolation-filters:sRGB"
       id="filter7554">
      <feBlend
         mode="darken"
         in2="BackgroundImage"
         id="feBlend7556" />
    </filter>
  </defs>
  <g
     transform="translate(-521.0002,308.00336)"
     style="display:inline"
     id="layer9">
    <path
       style="color:#000000;font-style:normal;font-variant:normal;font-weight:normal;font-stretch:normal;line-height:normal;font-family:Sans;-inkscape-font-specification:Sans;text-indent:0;text-align:start;text-decoration:none;text-decoration-line:none;letter-spacing:normal;word-spacing:normal;text-transform:none;direction:ltr;block-progression:tb;writing-mode:lr-tb;baseline-shift:baseline;text-anchor:start;display:inline;overflow:visible;visibility:visible;fill:#bebebe;fill-opacity:1;stroke:none;stroke-width:1px;marker:none;enable-background:accumulate"
       id="path6093-2"
       d="m 527.50022,-308.00336 c -1.92707,0 -3.5,1.57293 -3.5,3.5 0,0.17852 0.0365,0.35978 0.0625,0.53125 -1.72441,0.21437 -3.0625,1.68811 -3.0625,3.46875 0,1.92707 1.57293,3.5 3.5,3.5 l 0.5,0 c 0,-1.10457 0.89543,-2 2,-2 1.10457,0 2,0.89543 2,2 l 1.28125,0 c -0.17076,-0.29454 -0.28125,-0.63503 -0.28125,-1 0,-1.10457 0.89543,-2 2,-2 1.10457,0 2,0.89543 2,2 0,0.36497 -0.11049,0.70546 -0.28125,1 l 0.28125,0 c 1.65093,0 3,-1.34907 3,-3 0,-1.65093 -1.34907,-3 -3,-3 -0.17414,0 -0.33381,0.0337 -0.5,0.0625 -0.10013,-1.14613 -1.0792,-2.0625 -2.25,-2.0625 -0.0997,0 -0.18491,0.0186 -0.28125,0.0312 -0.22776,-1.70978 -1.6985,-3.0312 -3.46875,-3.0312 z" />
    <circle
       style="color:#000000;display:inline;overflow:visible;visibility:visible;opacity:0.35;fill:#bebebe;fill-opacity:1;fill-rule:nonzero;stroke:none;stroke-width:1;marker:none;enable-background:accumulate"
       r="1.371967"
       id="path3854"
       cy="-294.00336"
       cx="525.00024" />
    <circle
       style="color:#000000;display:inline;overflow:visible;visibility:visible;opacity:0.35;fill:#bebebe;fill-opacity:1;fill-rule:nonzero;stroke:none;stroke-width:1;marker:none;enable-background:accumulate"
       r="1.371967"
       id="path3856"
       cy="-295.00336"
       cx="530.00024" />
    <circle
       style="color:#000000;display:inline;overflow:visible;visibility:visible;opacity:0.35;fill:#bebebe;fill-opacity:1;fill-rule:nonzero;stroke:none;stroke-width:1;marker:none;enable-background:accumulate"
       r="1.371967"
       id="path3859"
       cy="-297.00336"
       cx="527.00024" />
    <circle
       style="color:#000000;display:inline;overflow:visible;visibility:visible;fill:#bebebe;fill-opacity:1;fill-rule:nonzero;stroke:none;stroke-width:1;marker:none;enable-background:accumulate"
       r="1"
       id="path3855"
       cy="-297.00333"
       cx="527.00024" />
    <circle
       style="color:#000000;display:inline;overflow:visible;visibility:visible;fill:#bebebe;fill-opacity:1;fill-rule:nonzero;stroke:none;stroke-width:1;marker:none;enable-background:accumulate"
       r="1"
       id="path3862"
       cy="-294.00336"
       cx="525.00024" />
    <circle
       style="color:#000000;display:inline;overflow:visible;visibility:visible;fill:#bebebe;fill-opacity:1;fill-rule:nonzero;stroke:none;stroke-width:1;marker:none;enable-background:accumulate"
       r="1"
       id="path3864"
       cy="-295.00336"
       cx="530.00024" />
    <circle
       style="color:#000000;display:inline;overflow:visible;visibility:visible;opacity:0.35;fill:#bebebe;fill-opacity:1;fill-rule:nonzero;stroke:none;stroke-width:1;marker:none;enable-background:accumulate"
       r="1.371967"
       id="path6320"
       cy="-298.00336"
       cx="532.00024" />
    <circle
       style="color:#000000;display:inline;overflow:visible;visibility:visible;fill:#bebebe;fill-opacity:1;fill-rule:nonzero;stroke:none;stroke-width:1;marker:none;enable-background:accumulate"
       r="1"
       id="path6322"
       cy="-298.00336"
       cx="532.00024" />
  </g>
  <g
     transform="translate(-521.0002,308.00336)"
     style="display:inline;filter:url(#filter7554)"
     id="layer10" />
  <g
     transform="translate(-280,-308.99664)"
     style="display:inline"
     id="layer1" />
  <g
     transform="translate(-521.0002,308.00336)"
     style="display:inline"
     id="layer14" />
  <g
     transform="translate(-521.0002,308.00336)"
     style="display:inline"
     id="layer15" />
  <g
     transform="translate(-521.0002,308.00336)"
     style="display:inline"
     id="g71291" />
  <g
     transform="translate(-280,-158.99664)"
     style="display:inline"
     id="layer2" />
  <g
     transform="translate(-280,-158.99664)"
     style="display:inline"
     id="g6058" />
  <g
     transform="translate(-521.0002,308.00336)"
     style="display:inline"
     id="layer12" />
</svg>
