<?xml version="1.0" encoding="UTF-8" standalone="no"?>
<svg
   xmlns:osb="http://www.openswatchbook.org/uri/2009/osb"
   xmlns:dc="http://purl.org/dc/elements/1.1/"
   xmlns:cc="http://creativecommons.org/ns#"
   xmlns:rdf="http://www.w3.org/1999/02/22-rdf-syntax-ns#"
   xmlns:svg="http://www.w3.org/2000/svg"
   xmlns="http://www.w3.org/2000/svg"
   width="16.000013"
   version="1.1"
   style="enable-background:new"
   id="svg7384"
   height="16.0313">
  <metadata
     id="metadata90">
    <rdf:RDF>
      <cc:Work
         rdf:about="">
        <dc:format>image/svg+xml</dc:format>
        <dc:type
           rdf:resource="http://purl.org/dc/dcmitype/StillImage" />
        <dc:title>Moka Symbolic Icon Theme</dc:title>
      </cc:Work>
    </rdf:RDF>
  </metadata>
  <title
     id="title8473">Moka Symbolic Icon Theme</title>
  <defs
     id="defs7386">
    <linearGradient
       osb:paint="solid"
       id="linearGradient5606">
      <stop
         style="stop-color:#000000;stop-opacity:1;"
         offset="0"
         id="stop5608" />
    </linearGradient>
    <filter
       style="color-interpolation-filters:sRGB"
       id="filter7554">
      <feBlend
         mode="darken"
         in2="BackgroundImage"
         id="feBlend7556" />
    </filter>
  </defs>
  <g
     transform="translate(-501.0002,308.03466)"
     style="display:inline"
     id="layer9">
    <path
       style="color:#000000;font-style:normal;font-variant:normal;font-weight:normal;font-stretch:normal;line-height:normal;font-family:Sans;-inkscape-font-specification:Sans;text-indent:0;text-align:start;text-decoration:none;text-decoration-line:none;letter-spacing:normal;word-spacing:normal;text-transform:none;direction:ltr;block-progression:tb;writing-mode:lr-tb;baseline-shift:baseline;text-anchor:start;display:inline;overflow:visible;visibility:visible;fill:#bebebe;fill-opacity:1;stroke:none;stroke-width:1px;marker:none;enable-background:accumulate"
       id="path6093-9"
       d="m 507.5002,-308.03461 c -1.92707,0 -3.5,1.57293 -3.5,3.5 0,0.17852 0.0365,0.35978 0.0625,0.53125 -1.72441,0.21437 -3.0625,1.68811 -3.0625,3.46875 0,1.80143 1.37158,3.28186 3.125,3.46875 l 1.3125,-1.3125 0.34375,-0.34375 0.71875,-0.6875 0.71875,0.6875 0.34375,0.34375 0.6875,0.6875 c 0.18435,-0.48507 0.43171,-0.93171 0.78125,-1.28125 l 1.40625,-1.40625 0.34375,-0.34375 0.71875,-0.6875 0.71875,0.6875 0.34375,0.34375 1.40625,1.40625 c 0.46181,0.46181 0.82303,1.06283 0.96875,1.75 1.18583,-0.40094 2.0625,-1.4952 2.0625,-2.8125 0,-1.65093 -1.34907,-3 -3,-3 -0.17414,0 -0.33381,0.0337 -0.5,0.0625 -0.10013,-1.14613 -1.0792,-2.0625 -2.25,-2.0625 -0.0997,0 -0.18491,0.0186 -0.28125,0.0312 -0.22776,-1.70983 -1.6985,-3.03125 -3.46875,-3.03125 z m 4,9.46875 -1.03125,1.03125 c -0.15254,0.15254 -0.26267,0.31843 -0.34375,0.5 l 2.75,0 c -0.0811,-0.18157 -0.19121,-0.34746 -0.34375,-0.5 l -1.03125,-1.03125 z" />
    <path
       style="color:#000000;font-style:normal;font-variant:normal;font-weight:normal;font-stretch:normal;line-height:normal;font-family:Sans;-inkscape-font-specification:Sans;text-indent:0;text-align:start;text-decoration:none;text-decoration-line:none;letter-spacing:normal;word-spacing:normal;text-transform:none;direction:ltr;block-progression:tb;writing-mode:lr-tb;baseline-shift:baseline;text-anchor:start;display:inline;overflow:visible;visibility:visible;fill:#bebebe;fill-opacity:1;stroke:none;stroke-width:1px;marker:none;enable-background:accumulate"
       id="path7625"
       d="m 511.5002,-300.00336 -0.34375,0.34375 -1.40625,1.40625 c -0.45315,0.45315 -0.75,1.0626 -0.75,1.75 0,1.37479 1.12521,2.5 2.5,2.5 1.37479,0 2.5,-1.12521 2.5,-2.5 0,-0.6874 -0.29685,-1.29685 -0.75,-1.75 l -1.40625,-1.40625 z m -5,2 -0.34375,0.34375 -1.40625,1.40625 c -0.45315,0.45315 -0.75,1.0626 -0.75,1.75 0,1.37479 1.12521,2.5 2.5,2.5 1.37479,0 2.5,-1.12521 2.5,-2.5 0,-0.6874 -0.29685,-1.29685 -0.75,-1.75 l -1.40625,-1.40625 z"
       class="link" />
  </g>
  <g
     transform="translate(-501.0002,308.03466)"
     style="display:inline;filter:url(#filter7554)"
     id="layer10" />
  <g
     transform="translate(-260,-308.96534)"
     style="display:inline"
     id="layer1" />
  <g
     transform="translate(-501.0002,308.03466)"
     style="display:inline"
     id="layer14" />
  <g
     transform="translate(-501.0002,308.03466)"
     style="display:inline"
     id="layer15" />
  <g
     transform="translate(-501.0002,308.03466)"
     style="display:inline"
     id="g71291" />
  <g
     transform="translate(-260,-158.96534)"
     style="display:inline"
     id="layer2" />
  <g
     transform="translate(-260,-158.96534)"
     style="display:inline"
     id="g6058" />
  <g
     transform="translate(-501.0002,308.03466)"
     style="display:inline"
     id="layer12" />
</svg>
