<?xml version="1.0" encoding="UTF-8" standalone="no"?>
<svg xmlns="http://www.w3.org/2000/svg" xmlns:sodipodi="http://sodipodi.sourceforge.net/DTD/sodipodi-0.dtd" xmlns:inkscape="http://www.inkscape.org/namespaces/inkscape" height="22" version="1.1" width="22" enable-background="new">
 <metadata id="metadata90"/>
 <defs id="defs7386">
  <linearGradient id="linearGradient5606" osb:paint="solid">
   <stop id="stop5608"/>
  </linearGradient>
  <filter inkscape:collect="always" color-interpolation-filters="sRGB" id="filter7554">
   <feBlend inkscape:collect="always" id="feBlend7556" in2="BackgroundImage" mode="darken"/>
  </filter>
 </defs>
 <g inkscape:groupmode="layer" id="layer9" inkscape:label="status" transform="translate(-477.00018,351)">
  <path sodipodi:nodetypes="ccccccsscsccsccccccc" id="path6027" d="m 486.00018,-346 0,1 4,0 0,-1 z m -2.15625,2 c -0.28125,0.0469 -0.84375,0.25 -0.84375,1 l 0,10 c 0,1 1,1 1,1 l 8,0 c 1,0 1,-1 1,-1 l 0,-10 c 0,0 0,-1 -1,-1 l -8,0 c 0,0 -0.0625,-0.0156 -0.15625,0 z m 0.15625,1 8,0 0,10 -8,0 z" inkscape:connector-curvature="0" opacity="0.2"/>
  <path sodipodi:nodetypes="ccccccc" id="path6029" d="m 488.00018,-342 0,3 3,0 -3,5 0,-3 -3,0 z" inkscape:connector-curvature="0" opacity="0.2"/>
  <path inkscape:connector-curvature="0" d="m 485.00018,-343 0,3.09375 1.84375,-3.09375 z m 4,0 0,2 2,0 0,-2 z m 2,4.90625 -1.84375,3.09375 1.84375,0 z m -6,1.09375 0,2 2,0 0,-2 z" id="path7932" sodipodi:nodetypes="cccccccccccccccccc" opacity="0.35" fill="#ffffff"/>
  <path inkscape:connector-curvature="0" d="m 486.00018,-347 0,1 4,0 0,-1 z m -2.15625,2 c -0.28125,0.0469 -0.84375,0.25 -0.84375,1 l 0,10 c 0,1 1,1 1,1 l 8,0 c 1,0 1,-1 1,-1 l 0,-10 c 0,0 0,-1 -1,-1 l -8,0 c 0,0 -0.0625,-0.0156 -0.15625,0 z m 0.15625,1 8,0 0,10 -8,0 z" id="path7938" sodipodi:nodetypes="ccccccsscsccsccccccc" fill="#ffffff"/>
  <path inkscape:connector-curvature="0" d="m 488.00018,-343 0,3 3,0 -3,5 0,-3 -3,0 z" id="path7940" sodipodi:nodetypes="ccccccc" fill="#ffffff"/>
 </g>
</svg>
