<?xml version="1.0" encoding="UTF-8" standalone="no"?>
<svg xmlns="http://www.w3.org/2000/svg" xmlns:sodipodi="http://sodipodi.sourceforge.net/DTD/sodipodi-0.dtd" xmlns:inkscape="http://www.inkscape.org/namespaces/inkscape" width="22" height="22" version="1.1">
 <metadata id="metadata3401"/>
 <g id="layer1" inkscape:label="Layer 1" inkscape:groupmode="layer" transform="translate(0,6)">
  <path sodipodi:nodetypes="scsccsscscccccccccccccccscccccsccccccccccccscccscccc" inkscape:connector-curvature="0" d="M 5,-2 C 3,-2 3,0 3,0 l 0,12 c 0,2 2,2 2,2 l 12,0 c 0,0 2,0 2,-2 L 19,0 c 0,-2 -2,-2 -2,-2 z m 6.125,3.03125 c 0.39681,1e-5 0.76991,0.0287 1.09375,0.0625 0.32839,0.0338 0.62346,0.0671 0.90625,0.125 0.28278,0.058 0.56164,0.14149 0.8125,0.21875 C 14.18836,1.51 14.74457,1.76649 15,1.84375 L 15,4 14,4 13.9063,2.625 C 13.74665,2.50911 13.56661,2.41392 13.37505,2.3125 13.18348,2.2111 12.96898,2.1037 12.75005,2.03125 12.53568,1.95395 12.33097,1.91364 12.0938,1.875 11.86118,1.8315 11.61678,1.8125 11.37505,1.8125 10.90981,1.81251 10.49905,1.8599 10.12505,2 9.75104,2.13522 9.4254,2.38555 9.1563,2.71875 8.89175,3.04713 8.67725,3.47592 8.5313,4.03125 8.3899,4.58177 8.31255,5.26799 8.31255,6.09375 c 0,0.56017 0.0428,1.04862 0.125,1.46875 0.0821,0.42013 0.20235,0.78469 0.34375,1.09375 0.14139,0.30906 0.30843,0.5736 0.5,0.78125 0.19612,0.20282 0.40606,0.37927 0.625,0.5 0.22349,0.12073 0.44575,0.19688 0.6875,0.25 0.24173,0.0483 0.48157,0.0625 0.71875,0.0625 0.25997,0 0.5167,-0.019 0.78125,-0.0625 0.26453,-0.0483 0.68731,-0.11023 0.90625,-0.1875 l 0,-2.8125 -1,-0.1875 0,-1 4,0 0,1 -1,0.1875 0,3.15625 c -0.26455,0.0917 -0.57785,0.19915 -0.90625,0.28125 -0.32384,0.0773 -0.6488,0.12955 -1,0.1875 -0.35121,0.058 -0.70674,0.12245 -1.0625,0.15625 C 11.67548,11.00255 11.32839,11 11,11 10.27478,11 9.60662,10.89515 9,10.6875 8.39337,10.47502 7.87536,10.16047 7.4375,9.75 7.00419,9.3347 6.65255,8.82721 6.40625,8.21875 6.16451,7.61029 6,6.79679 6,6 6,5.15009 6.16907,4.53886 6.40625,3.90625 6.64342,3.26882 6.96839,2.73263 7.40625,2.3125 7.84868,1.88755 8.40637,1.58265 9.03125,1.375 9.66067,1.16253 10.34961,1.03126 11.125,1.03125 z" id="path4110" opacity="0.2" color="#000000" stroke-width="2"/>
  <path id="path3918" d="m 5,-3 c -2,0 -2,2 -2,2 l 0,12 c 0,2 2,2 2,2 l 12,0 c 0,0 2,0 2,-2 l 0,-12 c 0,-2 -2,-2 -2,-2 z m 6.125,3.03125 c 0.39681,1e-5 0.76991,0.0287 1.09375,0.0625 0.32839,0.0338 0.62346,0.0671 0.90625,0.125 0.28278,0.058 0.56164,0.14149 0.8125,0.21875 C 14.18836,0.51 14.74457,0.76649 15,0.84375 L 15,3 14,3 13.9063,1.625 C 13.74665,1.50911 13.56661,1.41392 13.37505,1.3125 13.18348,1.2111 12.96898,1.1037 12.75005,1.03125 12.53568,0.95395 12.33097,0.91364 12.0938,0.875 11.86118,0.8315 11.61678,0.8125 11.37505,0.8125 10.90981,0.81251 10.49905,0.8599 10.12505,1 9.75104,1.13522 9.4254,1.38555 9.1563,1.71875 8.89175,2.04713 8.67725,2.47592 8.5313,3.03125 8.3899,3.58177 8.31255,4.26799 8.31255,5.09375 c 0,0.56017 0.0428,1.04862 0.125,1.46875 0.0821,0.42013 0.20235,0.78469 0.34375,1.09375 0.14139,0.30906 0.30843,0.5736 0.5,0.78125 0.19612,0.20282 0.40606,0.37927 0.625,0.5 0.22349,0.12073 0.44575,0.19688 0.6875,0.25 0.24173,0.0483 0.48157,0.0625 0.71875,0.0625 0.25997,0 0.5167,-0.019 0.78125,-0.0625 C 12.35833,9.1392 12.78111,9.07727 13.00005,9 l 0,-2.8125 -1,-0.1875 0,-1 4,0 0,1 -1,0.1875 0,3.15625 C 14.7355,9.43545 14.4222,9.5429 14.0938,9.625 c -0.32384,0.0773 -0.6488,0.12955 -1,0.1875 -0.35121,0.058 -0.70674,0.12245 -1.0625,0.15625 C 11.67548,10.00255 11.32839,10 11,10 10.27478,10 9.60662,9.89515 9,9.6875 8.39337,9.47502 7.87536,9.16047 7.4375,8.75 7.00419,8.3347 6.65255,7.82721 6.40625,7.21875 6.16451,6.61029 6,5.79679 6,5 6,4.15009 6.16907,3.53886 6.40625,2.90625 6.64342,2.26882 6.96839,1.73263 7.40625,1.3125 7.84868,0.88755 8.40637,0.58265 9.03125,0.375 9.66067,0.16253 10.34961,0.03126 11.125,0.03125 z" inkscape:connector-curvature="0" sodipodi:nodetypes="scsccsscscccccccccccccccscccccsccccccccccccscccscccc" fill="#ffffff" color="#000000" stroke-width="2"/>
 </g>
</svg>
