<?xml version="1.0" encoding="UTF-8" standalone="no"?>
<svg xmlns="http://www.w3.org/2000/svg" xmlns:sodipodi="http://sodipodi.sourceforge.net/DTD/sodipodi-0.dtd" xmlns:inkscape="http://www.inkscape.org/namespaces/inkscape" height="22" version="1.1" width="22" enable-background="new">
 <metadata id="metadata90"/>
 <defs id="defs7386">
  <linearGradient id="linearGradient5606" osb:paint="solid">
   <stop id="stop5608"/>
  </linearGradient>
  <filter inkscape:collect="always" color-interpolation-filters="sRGB" id="filter7554">
   <feBlend inkscape:collect="always" id="feBlend7556" in2="BackgroundImage" mode="darken"/>
  </filter>
 </defs>
 <g inkscape:groupmode="layer" id="layer9" inkscape:label="status" transform="translate(-299.99742,403)">
  <g id="g3135" transform="translate(-0.028469,0.75)" opacity="0.2">
   <path d="M 11 6 C 7.96565 6 5.23412 7.07815 2.96875 8.75 L 11 17.5 L 12 16.40625 L 12 16 L 12 15 L 13 15 C 13.01675 13.36263 14.35439 12 16 12 L 18.96875 8.71875 C 16.71214 7.06546 14.01105 6 11 6 z M 10.9375 7 C 13.33112 7 15.46174 7.83638 17.375 9.03125 L 10.9375 16.03125 L 4.5625 9 C 6.46342 7.82136 8.56786 7 10.9375 7 z " transform="translate(300.02589,-403.75)" id="path3137" color="#000000"/>
   <path inkscape:connector-curvature="0" d="m 310.96617,-393.34375 c -1.11918,0 -2.14739,0.25729 -3.09375,0.71875 l 3.09375,3.40625 3.09375,-3.375 c -0.94819,-0.46162 -1.97284,-0.75 -3.09375,-0.75 z" id="path3139" color="#000000"/>
  </g>
  <g id="g3131" transform="translate(-0.028469,-0.25)">
   <path d="M 11 5 C 7.96565 5 5.23412 6.07815 2.96875 7.75 L 11 16.5 L 12 15.40625 L 12 15 L 12 14 L 13 14 C 13.01675 12.36263 14.35439 11 16 11 L 18.96875 7.71875 C 16.71214 6.06546 14.01105 5 11 5 z M 10.9375 6 C 13.33112 6 15.46174 6.83638 17.375 8.03125 L 10.9375 15.03125 L 4.5625 8 C 6.46342 6.82136 8.56786 6 10.9375 6 z " transform="translate(300.02589,-402.75)" id="path7350" fill="#ffffff" color="#000000"/>
   <path id="path7352" d="m 310.96617,-393.34375 c -1.11918,0 -2.14739,0.25729 -3.09375,0.71875 l 3.09375,3.40625 3.09375,-3.375 c -0.94819,-0.46162 -1.97284,-0.75 -3.09375,-0.75 z" inkscape:connector-curvature="0" fill="#ffffff" color="#000000"/>
  </g>
  <path sodipodi:nodetypes="ssccccccccccccssssccss" id="path3795" d="m 316.0002,-389.99999 c -1.108,0 -2,0.91081 -2,2.03125 l 0,0.96875 -1,0 0,1 0,2 0,1 1,0 4,0 1,0 0,-1 0,-2 0,-1 -1,0 0,-0.96875 c 0,-1.12 -0.892,-2.03125 -2,-2.03125 z m 0,1 c 0.554,0 1,0.44236 1,1 l 0,1 -2,0 0,-1 c 0,-0.55764 0.446,-1 1,-1 z" inkscape:connector-curvature="0" opacity="0.2"/>
  <path inkscape:connector-curvature="0" d="m 316.0002,-391 c -1.108,0 -2,0.91081 -2,2.03125 l 0,0.96875 -1,0 0,1 0,2 0,1 1,0 4,0 1,0 0,-1 0,-2 0,-1 -1,0 0,-0.96875 c 0,-1.12 -0.892,-2.03125 -2,-2.03125 z m 0,1 c 0.554,0 1,0.44236 1,1 l 0,1 -2,0 0,-1 c 0,-0.55764 0.446,-1 1,-1 z" id="path5983" sodipodi:nodetypes="ssccccccccccccssssccss" fill="#ffffff"/>
 </g>
</svg>
