<?xml version="1.0" encoding="UTF-8" standalone="no"?>
<svg xmlns="http://www.w3.org/2000/svg" xmlns:xlink="http://www.w3.org/1999/xlink" xmlns:sodipodi="http://sodipodi.sourceforge.net/DTD/sodipodi-0.dtd" xmlns:inkscape="http://www.inkscape.org/namespaces/inkscape" version="1.1" width="22" height="22">
 <defs id="defs3944">
  <radialGradient cx="20.931" cy="8.45" r="20" id="radialGradient3035" xlink:href="#linearGradient2867-449-88-871-390-598-476-591-434-148-57-177-641-289-620-227-114-444-680-744-4-8-69-5-4-8-426-2-9-1-4-965" gradientUnits="userSpaceOnUse" gradientTransform="matrix(1.165708e-8,1.4381477,-1.483354,-2.6496169e-8,28.53406,-5.4214298)"/>
  <linearGradient y1="5" x2="0" y2="43" id="linearGradient3027" xlink:href="#linearGradient3924" gradientUnits="userSpaceOnUse" gradientTransform="matrix(0.62162164,0,0,0.56756755,1.0810837,2.3783866)"/>
  <linearGradient y1="3.916" x2="0" y2="30.09" id="linearGradient3024" xlink:href="#linearGradient4549" gradientUnits="userSpaceOnUse" gradientTransform="translate(-27.316332,0)"/>
  <linearGradient id="linearGradient3702-501-757">
   <stop id="stop2895" stop-color="#181818" stop-opacity="0"/>
   <stop id="stop2897" offset="0.5" stop-color="#181818"/>
   <stop id="stop2899" offset="1" stop-color="#181818" stop-opacity="0"/>
  </linearGradient>
  <linearGradient y1="47.03" x2="0" y2="39.999" id="linearGradient3167" xlink:href="#linearGradient3702-501-757" gradientUnits="userSpaceOnUse"/>
  <linearGradient id="linearGradient3688-464-309">
   <stop id="stop2889" stop-color="#181818"/>
   <stop id="stop2891" offset="1" stop-color="#181818" stop-opacity="0"/>
  </linearGradient>
  <radialGradient cx="4.993" cy="43.5" r="2.5" id="radialGradient3165" xlink:href="#linearGradient3688-464-309" gradientUnits="userSpaceOnUse" gradientTransform="matrix(2.003784,0,0,1.4,-20.01187,-104.4)"/>
  <radialGradient cx="4.993" cy="43.5" r="2.5" id="radialGradient3163" xlink:href="#linearGradient3688-464-309" gradientUnits="userSpaceOnUse" gradientTransform="matrix(2.003784,0,0,1.4,27.98813,-17.4)"/>
  <linearGradient id="linearGradient2867-449-88-871-390-598-476-591-434-148-57-177-641-289-620-227-114-444-680-744-4-8-69-5-4-8-426-2-9-1-4-965">
   <stop id="stop4036" stop-color="#f4f4f4"/>
   <stop id="stop4040" offset="1" stop-color="#d0d0d0"/>
  </linearGradient>
  <linearGradient id="linearGradient3924">
   <stop id="stop3926" stop-color="#ffffff"/>
   <stop id="stop3928" offset="0.063" stop-color="#ffffff" stop-opacity="0.235"/>
   <stop id="stop3930" offset="0.951" stop-color="#ffffff" stop-opacity="0.157"/>
   <stop id="stop3932" offset="1" stop-color="#ffffff" stop-opacity="0.392"/>
  </linearGradient>
  <linearGradient id="linearGradient4549">
   <stop id="stop4551" stop-opacity="0.272"/>
   <stop id="stop4553" offset="1" stop-opacity="0.368"/>
  </linearGradient>
  <linearGradient y1="5" x2="0" y2="43" id="linearGradient3075" xlink:href="#linearGradient3924" gradientUnits="userSpaceOnUse" gradientTransform="matrix(0.62162164,0,0,0.56756755,-52.647729,-11.765681)"/>
  <linearGradient y1="3.916" x2="0" y2="30.09" id="linearGradient3082" xlink:href="#linearGradient4549" gradientUnits="userSpaceOnUse" gradientTransform="translate(-81.045145,-14.144068)"/>
  <radialGradient cx="20.931" cy="8.45" r="20" id="radialGradient3086" xlink:href="#linearGradient2867-449-88-871-390-598-476-591-434-148-57-177-641-289-620-227-114-444-680-744-4-8-69-5-4-8-426-2-9-1-4-965" gradientUnits="userSpaceOnUse" gradientTransform="matrix(1.165708e-8,1.4381477,-1.483354,-2.6496169e-8,-25.194753,-19.565498)"/>
 </defs>
 <metadata id="metadata3947"/>
 <path id="path3785" d="M 6,5 C 4.892,5 4,5.892 4,7 l 0,10 c 0,1.108 0.892,2 2,2 l 10,0 c 1.108,0 2,-0.892 2,-2 L 18,7 C 18,5.892 17.108,5 16,5 z m 0,1 10,0 c 0.554,0 1,0.446 1,1 l 0,9 c 0,0.554 -0.446,1 -1,1 L 6,17 C 5.446,17 5,16.554 5,16 L 5,7 C 5,6.446 5.446,6 6,6 z" inkscape:connector-curvature="0" opacity="0.2" color="#000000"/>
 <path inkscape:connector-curvature="0" id="path3796" d="M 8.4955319,7.8732735 C 8.1142676,7.8732776 7.8185733,8.014084 7.6084482,8.295694 7.3983192,8.577311 7.2932557,8.973737 7.2932573,9.484971 c -1.6e-6,0.509073 0.1050619,0.904416 0.3151909,1.186028 0.2101251,0.281615 0.5058194,0.422422 0.8870837,0.422421 0.3834249,10e-7 0.6802021,-0.140806 0.8903331,-0.422421 C 9.595988,10.389387 9.701052,9.994044 9.701056,9.484971 9.701052,8.973737 9.595988,8.577312 9.385865,8.295694 9.175734,8.014084 8.8789568,7.8732776 8.4955319,7.8732735 m 0,-0.90658 c 0.7798501,4.9e-6 1.3907351,0.2231295 1.8326561,0.6693745 0.441912,0.446253 0.662871,1.062554 0.662876,1.848903 -5e-6,0.784188 -0.220964,1.399406 -0.662876,1.845654 C 9.886267,11.776875 9.275382,12 8.4955319,12 7.7178423,12 7.1069575,11.776875 6.6628755,11.330625 6.2209578,10.884377 5.9999995,10.269159 5.9999998,9.484971 5.9999995,8.698622 6.2209578,8.082322 6.6628755,7.636068 7.1069575,7.189823 7.7178423,6.9666984 8.4955319,6.9666935" opacity="0.2"/>
 <path inkscape:connector-curvature="0" id="path3799" d="m 14.007565,13.026807 c 0.197127,3e-6 0.346599,-0.04332 0.448416,-0.129975 0.101811,-0.08665 0.152718,-0.214457 0.152721,-0.383428 -3e-6,-0.166799 -0.05091,-0.293525 -0.152721,-0.380179 C 14.354164,12.044412 14.204692,12.000004 14.007565,12 l -0.69212,0 0,1.026807 0.69212,0 m 0.04224,2.121853 c 0.251283,0 0.439748,-0.05307 0.565394,-0.159221 0.127806,-0.106145 0.191711,-0.266448 0.191714,-0.480909 -3e-6,-0.210126 -0.06283,-0.36718 -0.188465,-0.471162 -0.125646,-0.106145 -0.315193,-0.159218 -0.568643,-0.15922 l -0.734362,0 0,1.270512 0.734362,0 m 1.163282,-1.744923 c 0.268612,0.07799 0.476573,0.222044 0.623883,0.432169 0.147301,0.210129 0.220954,0.467914 0.220958,0.773355 -4e-6,0.467913 -0.158141,0.816681 -0.474411,1.046304 C 15.267241,15.885188 14.786332,16 14.14079,16 l -2.076361,0 0,-4.85134 1.878148,0 c 0.673704,4e-6 1.161112,0.101819 1.462226,0.305442 0.303272,0.203633 0.45491,0.529655 0.454915,0.978067 -5e-6,0.236126 -0.05524,0.437588 -0.165719,0.604387 -0.110484,0.164638 -0.270787,0.287032 -0.48091,0.367181" opacity="0.2"/>
 <path d="M 6,4 C 4.892,4 4,4.892 4,6 l 0,10 c 0,1.108 0.892,2 2,2 l 10,0 c 1.108,0 2,-0.892 2,-2 L 18,6 C 18,4.892 17.108,4 16,4 z m 0,1 10,0 c 0.554,0 1,0.446 1,1 l 0,9 c 0,0.554 -0.446,1 -1,1 L 6,16 C 5.446,16 5,15.554 5,15 L 5,6 C 5,5.446 5.446,5 6,5 z" id="rect2989" inkscape:connector-curvature="0" fill="#ffffff" color="#000000"/>
 <path inkscape:connector-curvature="0" id="path3802" d="M 8.4955319,6.8732735 C 8.1142676,6.8732776 7.8185733,7.0140843 7.6084482,7.2956943 7.3983192,7.5773115 7.2932557,7.9737368 7.2932573,8.484971 7.2932557,8.994044 7.3983192,9.389387 7.6084482,9.670999 7.8185733,9.952614 8.1142676,10.093421 8.4955319,10.09342 8.8789568,10.093421 9.175734,9.952614 9.385865,9.670999 9.595988,9.389387 9.701052,8.994044 9.701056,8.484971 9.701052,7.9737368 9.595988,7.5773115 9.385865,7.2956943 9.175734,7.0140843 8.8789568,6.8732776 8.4955319,6.8732735 m 0,-0.90658 c 0.7798501,4.9e-6 1.3907351,0.2231295 1.8326561,0.6693745 0.441912,0.4462535 0.662871,1.062554 0.662876,1.848903 -5e-6,0.784188 -0.220964,1.399406 -0.662876,1.845654 C 9.886267,10.776875 9.275382,11 8.4955319,11 7.7178423,11 7.1069575,10.776875 6.6628755,10.330625 6.2209578,9.884377 5.9999995,9.269159 5.9999998,8.484971 5.9999995,7.698622 6.2209578,7.0823215 6.6628755,6.636068 7.1069575,6.189823 7.7178423,5.9666984 8.4955319,5.9666935" fill="#ffffff"/>
 <path inkscape:connector-curvature="0" id="path3805" d="m 14.007565,12.026807 c 0.197127,3e-6 0.346599,-0.04332 0.448416,-0.129975 0.101811,-0.08665 0.152718,-0.214457 0.152721,-0.383428 -3e-6,-0.166799 -0.05091,-0.293525 -0.152721,-0.380179 C 14.354164,11.044412 14.204692,11.000004 14.007565,11 l -0.69212,0 0,1.026807 0.69212,0 m 0.04224,2.121853 c 0.251283,0 0.439748,-0.05307 0.565394,-0.159221 0.127806,-0.106145 0.191711,-0.266448 0.191714,-0.480909 -3e-6,-0.210126 -0.06283,-0.36718 -0.188465,-0.471162 -0.125646,-0.106145 -0.315193,-0.159218 -0.568643,-0.15922 l -0.734362,0 0,1.270512 0.734362,0 m 1.163282,-1.744923 c 0.268612,0.07799 0.476573,0.222044 0.623883,0.432169 0.147301,0.210129 0.220954,0.467914 0.220958,0.773355 -4e-6,0.467913 -0.158141,0.816681 -0.474411,1.046304 C 15.267241,14.885188 14.786332,15 14.14079,15 l -2.076361,0 0,-4.85134 1.878148,0 c 0.673704,4e-6 1.161112,0.101819 1.462226,0.305442 0.303272,0.203633 0.45491,0.529655 0.454915,0.978067 -5e-6,0.236126 -0.05524,0.437588 -0.165719,0.604387 -0.110484,0.164638 -0.270787,0.287032 -0.48091,0.367181" fill="#ffffff"/>
</svg>
