<?xml version="1.0" encoding="UTF-8" standalone="no"?>
<svg xmlns="http://www.w3.org/2000/svg" xmlns:sodipodi="http://sodipodi.sourceforge.net/DTD/sodipodi-0.dtd" xmlns:inkscape="http://www.inkscape.org/namespaces/inkscape" width="22" height="22" version="1.1">
 <metadata id="metadata3401"/>
 <g id="layer1" inkscape:label="Layer 1" inkscape:groupmode="layer" transform="translate(0,6)">
  <path d="m 6,6 0,2 4,0 0,3 2,0 0,-3 4,0 0,-2 z m 6,5 0,3 2,0 -3,3 -3,-3 2,0 0,-3 -3,0 c 0,0 -0.9427,-0.04995 -1,0.875 l -1,6 0,1.125 1,0 10,0 1,0 0,-1.125 -1,-6 C 15.87762,11.0183 15,11 15,11 z" transform="translate(0,-6)" id="path2991" inkscape:connector-curvature="0" sodipodi:nodetypes="ccccccccccccccccccccccccccc" opacity="0.2" color="#000000" stroke-width="2"/>
  <path d="m 6,5 0,2 4,0 0,3 2,0 0,-3 4,0 0,-2 z m 6,5 0,3 2,0 -3,3 -3,-3 2,0 0,-3 -3,0 C 7,10 6.0573,9.95005 6,10.875 l -1,6 0,1.125 1,0 10,0 1,0 0,-1.125 -1,-6 C 15.87762,10.0183 15,10 15,10 z" transform="translate(0,-6)" id="path3775-3" inkscape:connector-curvature="0" sodipodi:nodetypes="ccccccccccccccccccccccccccc" color="#000000" stroke-width="2" fill="#ffffff"/>
 </g>
</svg>
