<?xml version="1.0" encoding="UTF-8" standalone="no"?>
<svg
   xmlns:osb="http://www.openswatchbook.org/uri/2009/osb"
   xmlns:dc="http://purl.org/dc/elements/1.1/"
   xmlns:cc="http://creativecommons.org/ns#"
   xmlns:rdf="http://www.w3.org/1999/02/22-rdf-syntax-ns#"
   xmlns:svg="http://www.w3.org/2000/svg"
   xmlns="http://www.w3.org/2000/svg"
   xmlns:xlink="http://www.w3.org/1999/xlink"
   xmlns:sodipodi="http://sodipodi.sourceforge.net/DTD/sodipodi-0.dtd"
   xmlns:inkscape="http://www.inkscape.org/namespaces/inkscape"
   height="16"
   version="1.1"
   width="16"
   enable-background="new"
   id="svg2989"
   inkscape:version="0.48.4 r9939"
   sodipodi:docname="format-text-italic-symbolic.svg">
  <sodipodi:namedview
     pagecolor="#ffffff"
     bordercolor="#666666"
     borderopacity="1"
     objecttolerance="10"
     gridtolerance="10"
     guidetolerance="10"
     inkscape:pageopacity="0"
     inkscape:pageshadow="2"
     inkscape:window-width="1364"
     inkscape:window-height="700"
     id="namedview2999"
     showgrid="false"
     inkscape:zoom="1"
     inkscape:cx="9.3936595"
     inkscape:cy="7.6372717"
     inkscape:window-x="0"
     inkscape:window-y="28"
     inkscape:window-maximized="1"
     inkscape:current-layer="layer12">
    <inkscape:grid
       type="xygrid"
       id="grid3877" />
  </sodipodi:namedview>
  <metadata
     id="metadata90">
    <rdf:RDF>
      <cc:Work
         rdf:about="">
        <dc:format>image/svg+xml</dc:format>
        <dc:type
           rdf:resource="http://purl.org/dc/dcmitype/StillImage" />
        <dc:title></dc:title>
      </cc:Work>
    </rdf:RDF>
  </metadata>
  <defs
     id="defs7386">
    <linearGradient
       id="linearGradient4396">
      <stop
         style="stop-color:#555555;stop-opacity:1;"
         offset="0"
         id="stop4398" />
      <stop
         style="stop-color:#666666;stop-opacity:1;"
         offset="1"
         id="stop4400" />
    </linearGradient>
    <linearGradient
       id="linearGradient5606"
       osb:paint="solid">
      <stop
         id="stop5608" />
    </linearGradient>
    <linearGradient
       inkscape:collect="always"
       xlink:href="#linearGradient4396"
       id="linearGradient4402"
       x1="8"
       y1="16"
       x2="8"
       y2="0"
       gradientUnits="userSpaceOnUse" />
    <linearGradient
       inkscape:collect="always"
       xlink:href="#linearGradient4396"
       id="linearGradient4424"
       gradientUnits="userSpaceOnUse"
       x1="8"
       y1="16"
       x2="8"
       y2="0" />
    <linearGradient
       inkscape:collect="always"
       xlink:href="#linearGradient4396"
       id="linearGradient4433"
       gradientUnits="userSpaceOnUse"
       x1="8"
       y1="16"
       x2="8"
       y2="0"
       gradientTransform="translate(441.00061,69.00002)" />
    <linearGradient
       inkscape:collect="always"
       xlink:href="#linearGradient4396"
       id="linearGradient4460"
       gradientUnits="userSpaceOnUse"
       x1="8"
       y1="16"
       x2="8"
       y2="0" />
  </defs>
  <g
     inkscape:groupmode="layer"
     id="layer12"
     inkscape:label="actions"
     transform="translate(-441.00061,-69.00002)">
    <path
       style="color:#000000;fill:url(#linearGradient4433);fill-opacity:1;stroke-width:2"
       d="m 445.50061,71.50002 0,0.5 0,2 0,0.5 0.5,0 6,0 c -0.005,-0.0078 -2.6e-4,-0.01827 -0.0312,0.09375 l -0.25,0.90625 -4.84375,0 c -2.08373,0 -3.57189,1.52883 -4,3.125 -0.21446,0.799577 -0.18357,1.715969 0.3125,2.53125 0.52092,0.856106 1.53268,1.34375 2.59375,1.34375 l 6,0 c 1.05197,-1.5e-5 1.4375,-1.0625 1.4375,-1.0625 l 0,-0.03125 1.65625,-6 c 0.52079,-1.879742 -0.85506,-3.90625 -2.875,-3.90625 l -6,0 -0.5,0 z m 1.375,7 4,0 -0.28125,1 -4.8125,0 c 0.004,-0.03858 -0.0136,-0.07433 0,-0.125 0.11042,-0.411653 0.50459,-0.875 1.09375,-0.875 z"
       id="path11643-3-5"
       inkscape:connector-curvature="0" />
    <path
       id="path4394"
       d="m 445.50061,71.50002 0,0.5 0,2 0,0.5 0.5,0 6,0 c -0.005,-0.0078 -2.6e-4,-0.01827 -0.0312,0.09375 l -0.25,0.90625 -4.84375,0 c -2.08373,0 -3.57189,1.52883 -4,3.125 -0.21446,0.799577 -0.18357,1.715969 0.3125,2.53125 0.52092,0.856106 1.53268,1.34375 2.59375,1.34375 l 6,0 c 1.05197,-1.5e-5 1.4375,-1.0625 1.4375,-1.0625 l 0,-0.03125 1.65625,-6 c 0.52079,-1.879742 -0.85506,-3.90625 -2.875,-3.90625 l -6,0 -0.5,0 z m 1.375,7 4,0 -0.28125,1 -4.8125,0 c 0.004,-0.03858 -0.0136,-0.07433 0,-0.125 0.11042,-0.411653 0.50459,-0.875 1.09375,-0.875 z"
       style="opacity:0.61000001;color:#000000;fill:none;stroke:#000000;stroke-width:1;stroke-linejoin:round;stroke-miterlimit:4;stroke-opacity:1;stroke-dasharray:none"
       inkscape:connector-curvature="0" />
    <path
       style="color:#000000;fill:#ffffff;fill-opacity:1;stroke-width:2;opacity:0.2"
       d="M 5 3 L 5 4 L 11 4 C 12.26414 4 13.217042 4.9497974 13.4375 6.09375 C 13.736603 4.5760133 12.618896 3 11 3 L 5 3 z M 11.3125 6.125 L 11.1875 6.625 A 0.50005 0.50005 0 0 1 10.71875 7 L 5.875 7 C 4.03584 7 2.71745 8.356696 2.34375 9.75 C 2.234249 10.158264 2.2009628 10.602055 2.28125 11.03125 C 2.2973093 10.935904 2.3188622 10.842792 2.34375 10.75 C 2.71745 9.356696 4.03584 8 5.875 8 L 10.71875 8 A 0.50005 0.50005 0 0 0 11.1875 7.625 L 11.40625 6.8125 A 0.50005 0.50005 0 0 0 11.40625 6.78125 C 11.40605 6.78141 11.4377 6.71851 11.4375 6.71875 C 11.4371 6.71933 11.45975 6.70875 11.46875 6.6875 A 0.50005 0.50005 0 0 0 11.4375 6.28125 C 11.4395 6.28605 11.4395 6.2542 11.4375 6.25 A 0.50005 0.50005 0 0 0 11.40625 6.21875 C 11.40615 6.21861 11.34385 6.15634 11.34375 6.15625 C 11.34373 6.1562296 11.324252 6.1344049 11.3125 6.125 z M 10.1875 10.125 L 10.0625 10.625 A 0.50005 0.50005 0 0 1 9.59375 11 L 4.78125 11 A 0.50005 0.50005 0 0 1 4.46875 10.875 C 4.3996843 11.001288 4.3473292 11.120156 4.3125 11.25 C 4.2557 11.46185 4.26645 11.580081 4.28125 11.4375 A 0.50005 0.50005 0 0 0 4.78125 12 L 9.59375 12 A 0.50005 0.50005 0 0 0 10.0625 11.625 L 10.34375 10.625 A 0.50005 0.50005 0 0 0 10.1875 10.125 z "
       transform="translate(441.00061,69.00002)"
       id="path4455" />
  </g>
</svg>
