<?xml version="1.0" encoding="UTF-8" standalone="no"?>
<!-- Created with Inkscape (http://www.inkscape.org/) -->

<svg
   xmlns:dc="http://purl.org/dc/elements/1.1/"
   xmlns:cc="http://creativecommons.org/ns#"
   xmlns:rdf="http://www.w3.org/1999/02/22-rdf-syntax-ns#"
   xmlns:svg="http://www.w3.org/2000/svg"
   xmlns="http://www.w3.org/2000/svg"
   xmlns:xlink="http://www.w3.org/1999/xlink"
   xmlns:sodipodi="http://sodipodi.sourceforge.net/DTD/sodipodi-0.dtd"
   xmlns:inkscape="http://www.inkscape.org/namespaces/inkscape"
   width="16px"
   height="16px"
   id="svg5400"
   version="1.1"
   inkscape:version="0.48.4 r9939"
   sodipodi:docname="mail-reply-all.svg">
  <defs
     id="defs5402">
    <linearGradient
       id="linearGradient3911">
      <stop
         style="stop-color:#601088;stop-opacity:1;"
         offset="0"
         id="stop3913" />
      <stop
         style="stop-color:#740e98;stop-opacity:1;"
         offset="1"
         id="stop3915" />
    </linearGradient>
    <linearGradient
       id="linearGradient3905">
      <stop
         id="stop3907"
         offset="0"
         style="stop-color:#c150e1;stop-opacity:1;" />
      <stop
         id="stop3909"
         offset="1"
         style="stop-color:#d253ff;stop-opacity:1;" />
    </linearGradient>
    <linearGradient
       id="linearGradient3904">
      <stop
         id="stop3906"
         offset="0"
         style="stop-color:#104b88;stop-opacity:1;" />
      <stop
         id="stop3908"
         offset="1"
         style="stop-color:#0e7398;stop-opacity:1;" />
    </linearGradient>
    <linearGradient
       inkscape:collect="always"
       id="linearGradient3886">
      <stop
         style="stop-color:#5097e1;stop-opacity:1;"
         offset="0"
         id="stop3888" />
      <stop
         style="stop-color:#53d0ff;stop-opacity:1"
         offset="1"
         id="stop3890" />
    </linearGradient>
    <linearGradient
       inkscape:collect="always"
       id="linearGradient3804">
      <stop
         style="stop-color:#ffffff;stop-opacity:1;"
         offset="0"
         id="stop3806" />
      <stop
         style="stop-color:#ffffff;stop-opacity:0;"
         offset="1"
         id="stop3808" />
    </linearGradient>
    <linearGradient
       inkscape:collect="always"
       xlink:href="#linearGradient6744"
       id="linearGradient6750"
       x1="443.5"
       y1="-178.50027"
       x2="444"
       y2="-175.50027"
       gradientUnits="userSpaceOnUse"
       gradientTransform="translate(-433,180.00027)" />
    <linearGradient
       inkscape:collect="always"
       id="linearGradient6744">
      <stop
         style="stop-color:#ffffff;stop-opacity:1;"
         offset="0"
         id="stop6746" />
      <stop
         style="stop-color:#ffffff;stop-opacity:0;"
         offset="1"
         id="stop6748" />
    </linearGradient>
    <linearGradient
       inkscape:collect="always"
       xlink:href="#linearGradient6728"
       id="linearGradient6736"
       x1="435"
       y1="-163.5"
       x2="438"
       y2="-163.5"
       gradientUnits="userSpaceOnUse" />
    <linearGradient
       inkscape:collect="always"
       id="linearGradient6728">
      <stop
         style="stop-color:#ffffff;stop-opacity:1;"
         offset="0"
         id="stop6730" />
      <stop
         style="stop-color:#ffffff;stop-opacity:0;"
         offset="1"
         id="stop6732" />
    </linearGradient>
    <linearGradient
       inkscape:collect="always"
       xlink:href="#linearGradient6728"
       id="linearGradient6734"
       x1="435"
       y1="-163.5"
       x2="438"
       y2="-163.5"
       gradientUnits="userSpaceOnUse" />
    <linearGradient
       inkscape:collect="always"
       xlink:href="#linearGradient5621"
       id="linearGradient5956"
       x1="1407.9375"
       y1="63.937489"
       x2="1407.9375"
       y2="47.937496"
       gradientUnits="userSpaceOnUse"
       gradientTransform="translate(-1400.9375,-47.937495)" />
    <linearGradient
       id="linearGradient5621">
      <stop
         style="stop-color:#0b0b0b;stop-opacity:1"
         offset="0"
         id="stop5623" />
      <stop
         style="stop-color:#585858;stop-opacity:1"
         offset="1"
         id="stop5625" />
    </linearGradient>
    <linearGradient
       id="linearGradient8589">
      <stop
         id="stop8591"
         style="stop-color:#fefefe;stop-opacity:1"
         offset="0" />
      <stop
         id="stop8593"
         style="stop-color:#cbcbcb;stop-opacity:1"
         offset="1" />
    </linearGradient>
    <radialGradient
       cx="102"
       cy="112.3047"
       r="139.55859"
       id="XMLID_8_"
       gradientUnits="userSpaceOnUse">
      <stop
         id="stop41"
         style="stop-color:#b7b8b9;stop-opacity:1"
         offset="0" />
      <stop
         id="stop47"
         style="stop-color:#ececec;stop-opacity:1"
         offset="0.18851049" />
      <stop
         id="stop49"
         style="stop-color:#fafafa;stop-opacity:0"
         offset="0.25718147" />
      <stop
         id="stop51"
         style="stop-color:#ffffff;stop-opacity:0"
         offset="0.30111277" />
      <stop
         id="stop53"
         style="stop-color:#fafafa;stop-opacity:0"
         offset="0.53130001" />
      <stop
         id="stop55"
         style="stop-color:#ebecec;stop-opacity:0"
         offset="0.84490001" />
      <stop
         id="stop57"
         style="stop-color:#e1e2e3;stop-opacity:0"
         offset="1" />
    </radialGradient>
    <linearGradient
       inkscape:collect="always"
       xlink:href="#linearGradient6582"
       id="linearGradient6701"
       x1="920"
       y1="-180.00027"
       x2="920"
       y2="-164.00027"
       gradientUnits="userSpaceOnUse" />
    <linearGradient
       inkscape:collect="always"
       id="linearGradient6582">
      <stop
         style="stop-color:#ffffff;stop-opacity:1;"
         offset="0"
         id="stop6584" />
      <stop
         style="stop-color:#ffffff;stop-opacity:0;"
         offset="1"
         id="stop6586" />
    </linearGradient>
    <clipPath
       clipPathUnits="userSpaceOnUse"
       id="clipPath6691">
      <path
         sodipodi:nodetypes="cccccc"
         inkscape:connector-curvature="0"
         id="path6693"
         d="m 914,-179.00027 8,-1e-5 4,3 0,11 -12,0 z"
         style="color:#bebebe;fill:#ffffff;fill-opacity:0.57671958;fill-rule:nonzero;stroke:none;stroke-width:0;marker:none;visibility:visible;display:inline;overflow:visible;enable-background:accumulate" />
    </clipPath>
    <linearGradient
       id="outerBackgroundGradient-4">
      <stop
         style="stop-color:#f0f0f0;stop-opacity:1;"
         offset="0"
         id="stop3864-8-6-6" />
      <stop
         style="stop-color:#f9f9f9;stop-opacity:1;"
         offset="1"
         id="stop3866-9-1-7" />
    </linearGradient>
    <linearGradient
       inkscape:collect="always"
       xlink:href="#outerBackgroundGradient-4"
       id="linearGradient3829"
       gradientUnits="userSpaceOnUse"
       gradientTransform="matrix(0,-0.05555556,0.05714289,0,-3.1428659,15)"
       x1="144"
       y1="280.00003"
       x2="144"
       y2="40.00005" />
    <linearGradient
       inkscape:collect="always"
       xlink:href="#linearGradient3804"
       id="linearGradient3831"
       gradientUnits="userSpaceOnUse"
       x1="5"
       y1="1"
       x2="5"
       y2="14"
       gradientTransform="matrix(0,-1,1,0,-1,13)" />
    <linearGradient
       inkscape:collect="always"
       xlink:href="#linearGradient3886"
       id="linearGradient3892"
       x1="12"
       y1="15"
       x2="12"
       y2="9"
       gradientUnits="userSpaceOnUse"
       gradientTransform="translate(0.5,0.5)" />
    <linearGradient
       inkscape:collect="always"
       xlink:href="#linearGradient3904"
       id="linearGradient3902"
       x1="12"
       y1="16"
       x2="12"
       y2="8"
       gradientUnits="userSpaceOnUse"
       gradientTransform="translate(0.5,0.5)" />
    <linearGradient
       inkscape:collect="always"
       xlink:href="#linearGradient3886"
       id="linearGradient4041"
       x1="16"
       y1="16"
       x2="16"
       y2="0"
       gradientUnits="userSpaceOnUse" />
    <linearGradient
       inkscape:collect="always"
       xlink:href="#linearGradient3886"
       id="linearGradient4148"
       gradientUnits="userSpaceOnUse"
       x1="16"
       y1="16"
       x2="16"
       y2="0" />
    <linearGradient
       inkscape:collect="always"
       xlink:href="#linearGradient3904"
       id="linearGradient4156"
       x1="8"
       y1="16"
       x2="8"
       y2="0"
       gradientUnits="userSpaceOnUse" />
    <linearGradient
       inkscape:collect="always"
       xlink:href="#linearGradient3886"
       id="linearGradient3044"
       gradientUnits="userSpaceOnUse"
       x1="16"
       y1="16"
       x2="16"
       y2="0"
       gradientTransform="translate(3,0)" />
    <linearGradient
       inkscape:collect="always"
       xlink:href="#linearGradient3904"
       id="linearGradient3046"
       gradientUnits="userSpaceOnUse"
       x1="8"
       y1="16"
       x2="8"
       y2="0"
       gradientTransform="translate(3,0)" />
    <linearGradient
       inkscape:collect="always"
       xlink:href="#linearGradient3886"
       id="linearGradient3895"
       gradientUnits="userSpaceOnUse"
       x1="16"
       y1="16"
       x2="16"
       y2="0"
       gradientTransform="translate(2,0)" />
    <linearGradient
       inkscape:collect="always"
       xlink:href="#linearGradient3904"
       id="linearGradient3897"
       gradientUnits="userSpaceOnUse"
       x1="8"
       y1="16"
       x2="8"
       y2="0"
       gradientTransform="translate(2,0)" />
    <linearGradient
       inkscape:collect="always"
       xlink:href="#linearGradient3911"
       id="linearGradient3900"
       gradientUnits="userSpaceOnUse"
       x1="8"
       y1="16"
       x2="8"
       y2="0" />
    <linearGradient
       inkscape:collect="always"
       xlink:href="#linearGradient3905"
       id="linearGradient3903"
       gradientUnits="userSpaceOnUse"
       x1="16"
       y1="16"
       x2="16"
       y2="0" />
    <linearGradient
       inkscape:collect="always"
       xlink:href="#linearGradient3904"
       id="linearGradient3050"
       gradientUnits="userSpaceOnUse"
       x1="8"
       y1="16"
       x2="8"
       y2="0" />
    <linearGradient
       inkscape:collect="always"
       xlink:href="#linearGradient3886"
       id="linearGradient3053"
       gradientUnits="userSpaceOnUse"
       x1="16"
       y1="16"
       x2="16"
       y2="0" />
  </defs>
  <sodipodi:namedview
     id="base"
     pagecolor="#ffffff"
     bordercolor="#666666"
     borderopacity="1.0"
     inkscape:pageopacity="0.0"
     inkscape:pageshadow="2"
     inkscape:zoom="1"
     inkscape:cx="7.6110843"
     inkscape:cy="5.7915235"
     inkscape:current-layer="layer1"
     showgrid="false"
     inkscape:grid-bbox="true"
     inkscape:document-units="px"
     inkscape:window-width="1364"
     inkscape:window-height="700"
     inkscape:window-x="0"
     inkscape:window-y="28"
     inkscape:window-maximized="1"
     inkscape:snap-bbox="true"
     inkscape:bbox-paths="true"
     inkscape:bbox-nodes="true"
     inkscape:snap-bbox-midpoints="true"
     inkscape:snap-bbox-edge-midpoints="true">
    <inkscape:grid
       type="xygrid"
       id="grid3025"
       empspacing="4"
       visible="true"
       enabled="true"
       snapvisiblegridlinesonly="true" />
  </sodipodi:namedview>
  <metadata
     id="metadata5405">
    <rdf:RDF>
      <cc:Work
         rdf:about="">
        <dc:format>image/svg+xml</dc:format>
        <dc:type
           rdf:resource="http://purl.org/dc/dcmitype/StillImage" />
        <dc:title />
      </cc:Work>
    </rdf:RDF>
  </metadata>
  <g
     id="layer1"
     inkscape:label="Layer 1"
     inkscape:groupmode="layer">
    <path
       sodipodi:nodetypes="ccccccsscsssscccc"
       inkscape:connector-curvature="0"
       id="path3891"
       d="M 6.5062819,3.4375 1.4125319,7 l 5.09375,3.5625 0,-1.5625 0,-0.5 0.5,0 10e-8,0 c 1.578199,0 2.964044,0.9821431 3.406252,2.34375 0.30318,0.933542 -0.110512,1.927469 -0.53125,2.78125 0.152346,-0.10134 0.155749,-0.06504 0.3125,-0.1875 0.933734,-0.72948 1.8125,-1.767628 1.8125,-3.1875 0,-1.4550433 -0.472614,-2.618304 -1.25,-3.4375 C 9.978898,5.993304 8.888146,5.5 7.506282,5.5 l -0.5000001,0 -0.5,0 0,-0.5 z"
       style="font-style:normal;font-variant:normal;font-weight:normal;font-stretch:normal;text-indent:0;text-align:start;text-decoration:none;line-height:normal;letter-spacing:normal;word-spacing:normal;text-transform:none;direction:ltr;block-progression:tb;writing-mode:lr-tb;text-anchor:start;baseline-shift:baseline;color:#bebebe;fill:url(#linearGradient3903);fill-opacity:1;fill-rule:nonzero;stroke:none;stroke-width:0;marker:none;visibility:visible;display:inline;overflow:visible;enable-background:accumulate;font-family:Sans;-inkscape-font-specification:Sans" />
    <path
       style="font-style:normal;font-variant:normal;font-weight:normal;font-stretch:normal;text-indent:0;text-align:start;text-decoration:none;line-height:normal;letter-spacing:normal;word-spacing:normal;text-transform:none;direction:ltr;block-progression:tb;writing-mode:lr-tb;text-anchor:start;baseline-shift:baseline;color:#bebebe;fill:#ffffff;fill-opacity:1;fill-rule:nonzero;stroke:none;stroke-width:0;marker:none;visibility:visible;display:inline;overflow:visible;enable-background:accumulate;font-family:Sans;-inkscape-font-specification:Sans;opacity:0.4"
       d="M 6 4.375 L 2.28125 7 L 3 7.5 L 6 5.375 L 6 5 L 6 4.375 z M 6 6 L 6 6.5 L 6 7 L 6.5 7 L 7 7 L 7.5 7 C 8.7628692 7 9.7206243 7.4337494 10.40625 8.15625 C 10.993702 8.7752963 11.371544 9.6404102 11.46875 10.71875 C 11.496885 10.564825 11.5 10.417874 11.5 10.25 C 11.5 8.903227 11.090601 7.877407 10.40625 7.15625 C 9.7206243 6.4337494 8.7628692 6 7.5 6 L 7 6 L 6.5 6 L 6 6 z M 10.90625 11.875 C 10.902034 11.906096 10.910605 11.937714 10.90625 11.96875 C 10.91472 11.956847 10.92916 11.94947 10.9375 11.9375 C 10.933715 11.914557 10.910945 11.898028 10.90625 11.875 z "
       id="path3055" />
    <path
       sodipodi:nodetypes="ccccccsscsssscccc"
       inkscape:connector-curvature="0"
       style="font-style:normal;font-variant:normal;font-weight:normal;font-stretch:normal;text-indent:0;text-align:start;text-decoration:none;line-height:normal;letter-spacing:normal;word-spacing:normal;text-transform:none;direction:ltr;block-progression:tb;writing-mode:lr-tb;text-anchor:start;baseline-shift:baseline;opacity:0.81000001;color:#bebebe;fill:none;stroke:url(#linearGradient3900);stroke-width:1;stroke-miterlimit:4;stroke-opacity:1;stroke-dasharray:none;marker:none;visibility:visible;display:inline;overflow:visible;enable-background:accumulate;font-family:Sans;-inkscape-font-specification:Sans"
       d="M 6.5062819,3.4375 1.4125319,7 l 5.09375,3.5625 0,-1.5625 0,-0.5 0.5,0 10e-8,0 c 1.578199,0 2.964044,0.9821431 3.406252,2.34375 0.30318,0.933542 -0.110512,1.927469 -0.53125,2.78125 0.152346,-0.10134 0.155749,-0.06504 0.3125,-0.1875 0.933734,-0.72948 1.8125,-1.767628 1.8125,-3.1875 0,-1.4550433 -0.472614,-2.618304 -1.25,-3.4375 C 9.978898,5.993304 8.888146,5.5 7.506282,5.5 l -0.5000001,0 -0.5,0 0,-0.5 z"
       id="path3893" />
    <path
       style="font-style:normal;font-variant:normal;font-weight:normal;font-stretch:normal;text-indent:0;text-align:start;text-decoration:none;line-height:normal;letter-spacing:normal;word-spacing:normal;text-transform:none;direction:ltr;block-progression:tb;writing-mode:lr-tb;text-anchor:start;baseline-shift:baseline;color:#bebebe;fill:url(#linearGradient3053);fill-opacity:1;fill-rule:nonzero;stroke:none;stroke-width:0;marker:none;visibility:visible;display:inline;overflow:visible;enable-background:accumulate;font-family:Sans;-inkscape-font-specification:Sans"
       d="M 9.5062819,3.4375 4.4125319,7 l 5.09375,3.5625 0,-1.5625 0,-0.5 0.5000001,0 0,0 c 1.578199,0 2.964044,0.9821431 3.406252,2.34375 0.30318,0.933542 -0.110512,1.927469 -0.53125,2.78125 0.152346,-0.10134 0.155749,-0.06504 0.3125,-0.1875 0.933734,-0.72948 1.8125,-1.767628 1.8125,-3.1875 0,-1.4550433 -0.472614,-2.618304 -1.25,-3.4375 C 12.978898,5.993304 11.888146,5.5 10.506282,5.5 l -0.5,0 -0.5000001,0 0,-0.5 z"
       id="path4400-3-3"
       inkscape:connector-curvature="0"
       sodipodi:nodetypes="ccccccsscsssscccc" />
    <path
       id="path4033"
       d="M 9.5062819,3.4375 4.4125319,7 l 5.09375,3.5625 0,-1.5625 0,-0.5 0.5000001,0 0,0 c 1.578199,0 2.964044,0.9821431 3.406252,2.34375 0.30318,0.933542 -0.110512,1.927469 -0.53125,2.78125 0.152346,-0.10134 0.155749,-0.06504 0.3125,-0.1875 0.933734,-0.72948 1.8125,-1.767628 1.8125,-3.1875 0,-1.4550433 -0.472614,-2.618304 -1.25,-3.4375 C 12.978898,5.993304 11.888146,5.5 10.506282,5.5 l -0.5,0 -0.5000001,0 0,-0.5 z"
       style="font-style:normal;font-variant:normal;font-weight:normal;font-stretch:normal;text-indent:0;text-align:start;text-decoration:none;line-height:normal;letter-spacing:normal;word-spacing:normal;text-transform:none;direction:ltr;block-progression:tb;writing-mode:lr-tb;text-anchor:start;baseline-shift:baseline;opacity:0.81000001;color:#bebebe;fill:none;stroke:url(#linearGradient3050);stroke-width:1;stroke-miterlimit:4;stroke-opacity:1;stroke-dasharray:none;marker:none;visibility:visible;display:inline;overflow:visible;enable-background:accumulate;font-family:Sans;-inkscape-font-specification:Sans"
       inkscape:connector-curvature="0"
       sodipodi:nodetypes="ccccccsscsssscccc" />
    <path
       style="font-style:normal;font-variant:normal;font-weight:normal;font-stretch:normal;text-indent:0;text-align:start;text-decoration:none;line-height:normal;letter-spacing:normal;word-spacing:normal;text-transform:none;direction:ltr;block-progression:tb;writing-mode:lr-tb;text-anchor:start;baseline-shift:baseline;color:#bebebe;fill:#ffffff;fill-opacity:1;fill-rule:nonzero;stroke:none;stroke-width:0;marker:none;visibility:visible;display:inline;overflow:visible;enable-background:accumulate;font-family:Sans;-inkscape-font-specification:Sans;opacity:0.4"
       d="M 9 4.375 L 5.28125 7 L 6 7.5 L 9 5.375 L 9 5 L 9 4.375 z M 9 6 L 9 6.5 L 9 7 L 9.5 7 L 10 7 L 10.5 7 C 11.762869 7 12.720624 7.4337494 13.40625 8.15625 C 13.993702 8.7752963 14.371544 9.6404102 14.46875 10.71875 C 14.496885 10.564825 14.5 10.417874 14.5 10.25 C 14.5 8.903227 14.090601 7.877407 13.40625 7.15625 C 12.720624 6.4337494 11.762869 6 10.5 6 L 10 6 L 9.5 6 L 9 6 z M 13.90625 11.875 C 13.902034 11.906096 13.910605 11.937714 13.90625 11.96875 C 13.91472 11.956847 13.92916 11.94947 13.9375 11.9375 C 13.933715 11.914557 13.910945 11.898028 13.90625 11.875 z "
       id="path3057" />
  </g>
</svg>
