<?xml version="1.0" encoding="UTF-8" standalone="no"?>
<!-- Created with Inkscape (http://www.inkscape.org/) -->

<svg
   xmlns:dc="http://purl.org/dc/elements/1.1/"
   xmlns:cc="http://creativecommons.org/ns#"
   xmlns:rdf="http://www.w3.org/1999/02/22-rdf-syntax-ns#"
   xmlns:svg="http://www.w3.org/2000/svg"
   xmlns="http://www.w3.org/2000/svg"
   xmlns:xlink="http://www.w3.org/1999/xlink"
   xmlns:sodipodi="http://sodipodi.sourceforge.net/DTD/sodipodi-0.dtd"
   xmlns:inkscape="http://www.inkscape.org/namespaces/inkscape"
   width="16"
   height="16"
   id="svg3495"
   version="1.1"
   inkscape:version="0.48.4 r9939"
   sodipodi:docname="mail-mark-junk.svg">
  <defs
     id="defs3497">
    <linearGradient
       id="linearGradient3831">
      <stop
         style="stop-color:#ffffff;stop-opacity:1;"
         offset="0"
         id="stop3833" />
      <stop
         style="stop-color:#ffffff;stop-opacity:0;"
         offset="1"
         id="stop3835" />
    </linearGradient>
    <linearGradient
       id="linearGradient3760">
      <stop
         style="stop-color:#e44343;stop-opacity:1;"
         offset="0"
         id="stop3762" />
      <stop
         style="stop-color:#ac0808;stop-opacity:1;"
         offset="1"
         id="stop3764" />
    </linearGradient>
    <linearGradient
       inkscape:collect="always"
       xlink:href="#linearGradient3760"
       id="linearGradient3766"
       x1="0.5"
       y1="8"
       x2="15.5"
       y2="8"
       gradientUnits="userSpaceOnUse"
       gradientTransform="matrix(0,1,-1,0,16,0)" />
    <linearGradient
       inkscape:collect="always"
       xlink:href="#linearGradient3831"
       id="linearGradient3837"
       x1="0"
       y1="40"
       x2="16"
       y2="40"
       gradientUnits="userSpaceOnUse"
       gradientTransform="matrix(0,1,-1,0,48,32)" />
    <linearGradient
       inkscape:collect="always"
       xlink:href="#linearGradient3760"
       id="linearGradient3788"
       gradientUnits="userSpaceOnUse"
       gradientTransform="matrix(0,1,-1,0,16,0)"
       x1="0.5"
       y1="8"
       x2="15.5"
       y2="8" />
    <linearGradient
       inkscape:collect="always"
       xlink:href="#linearGradient3760"
       id="linearGradient3801"
       gradientUnits="userSpaceOnUse"
       gradientTransform="matrix(0,1,-1,0,16,0)"
       x1="0.5"
       y1="8"
       x2="15.5"
       y2="8" />
  </defs>
  <sodipodi:namedview
     id="base"
     pagecolor="#ffffff"
     bordercolor="#666666"
     borderopacity="1.0"
     inkscape:pageopacity="0.0"
     inkscape:pageshadow="2"
     inkscape:zoom="1"
     inkscape:cx="7.4482276"
     inkscape:cy="10.757598"
     inkscape:current-layer="layer1"
     showgrid="false"
     showborder="false"
     inkscape:grid-bbox="true"
     inkscape:document-units="px"
     inkscape:window-width="1364"
     inkscape:window-height="700"
     inkscape:window-x="0"
     inkscape:window-y="28"
     inkscape:window-maximized="1"
     inkscape:snap-bbox="true"
     inkscape:bbox-paths="true"
     inkscape:bbox-nodes="true"
     inkscape:snap-bbox-edge-midpoints="false">
    <inkscape:grid
       type="xygrid"
       id="grid3512"
       empspacing="4"
       visible="true"
       enabled="true"
       snapvisiblegridlinesonly="true"
       dotted="false" />
  </sodipodi:namedview>
  <metadata
     id="metadata3500">
    <rdf:RDF>
      <cc:Work
         rdf:about="">
        <dc:format>image/svg+xml</dc:format>
        <dc:type
           rdf:resource="http://purl.org/dc/dcmitype/StillImage" />
        <dc:title></dc:title>
      </cc:Work>
    </rdf:RDF>
  </metadata>
  <g
     id="layer1"
     inkscape:label="Layer 1"
     inkscape:groupmode="layer"
     transform="translate(0,-32)">
    <path
       style="fill:url(#linearGradient3788);fill-opacity:1;stroke:none"
       d="M 5.375 1.5 L 1.5 5.375 L 1.5 10.625 L 5.375 14.5 L 10.625 14.5 L 14.5 10.625 L 14.5 5.375 L 10.625 1.5 L 5.375 1.5 z "
       transform="translate(0,32)"
       id="rect2987" />
    <g
       id="g4241"
       style="opacity:0.2;fill:#000000;fill-opacity:1;display:inline;enable-background:new"
       transform="matrix(0.5,0,0,0.5,-156,-87)" />
    <g
       id="g3839"
       style="opacity:0.3;fill:#000000;fill-opacity:1;display:inline;enable-background:new"
       transform="matrix(0.5,0,0,0.5,-156,-87)">
      <path
         sodipodi:nodetypes="cccccccccc"
         inkscape:connector-curvature="0"
         style="font-size:40px;font-style:normal;font-variant:normal;font-weight:300;font-stretch:normal;line-height:125%;letter-spacing:0px;word-spacing:0px;fill:#000000;fill-opacity:1;stroke:none;font-family:Ubuntu;-inkscape-font-specification:Ubuntu Light"
         d="m 423,144 c 0,3.34879 0.003,4.31525 0,5 l 2,0 c -0.005,-2 -0.009,-3.00002 0,-5 z m 0,6 0,2 2,0 0,-2 z"
         transform="matrix(2,0,0,2,-520,-40)"
         id="path3841" />
    </g>
    <g
       transform="matrix(0.5,0,0,0.5,-156,-88)"
       style="fill:#ffffff;fill-opacity:1;display:inline;enable-background:new"
       id="g3982">
      <path
         id="path3984"
         transform="matrix(2,0,0,2,-520,-40)"
         d="m 423,144 c 0,3.34879 0.003,4.31525 0,5 l 2,0 c -0.005,-2 -0.009,-3.00002 0,-5 z m 0,6 0,2 2,0 0,-2 z"
         style="font-size:40px;font-style:normal;font-variant:normal;font-weight:300;font-stretch:normal;line-height:125%;letter-spacing:0px;word-spacing:0px;fill:#ffffff;fill-opacity:1;stroke:none;font-family:Ubuntu;-inkscape-font-specification:Ubuntu Light"
         inkscape:connector-curvature="0"
         sodipodi:nodetypes="cccccccccc" />
    </g>
    <path
       id="path3791"
       transform="translate(0,32)"
       d="M 5.375 1.5 L 1.5 5.375 L 1.5 10.625 L 5.375 14.5 L 10.625 14.5 L 14.5 10.625 L 14.5 5.375 L 10.625 1.5 L 5.375 1.5 z "
       style="fill:none;fill-opacity:1;stroke:#790000;stroke-opacity:1;opacity:0.81" />
    <path
       style="fill:#ffffff;fill-opacity:1;stroke:none;opacity:0.4"
       d="M 5.5625 2 L 2 5.5625 L 2 6.5625 L 5.5625 3 L 10.4375 3 L 14 6.5625 L 14 5.5625 L 10.4375 2 L 5.5625 2 z "
       transform="translate(0,32)"
       id="path3793" />
  </g>
</svg>
