<?xml version="1.0" encoding="UTF-8" standalone="no"?>
<!-- Created with Inkscape (http://www.inkscape.org/) -->

<svg
   xmlns:dc="http://purl.org/dc/elements/1.1/"
   xmlns:cc="http://creativecommons.org/ns#"
   xmlns:rdf="http://www.w3.org/1999/02/22-rdf-syntax-ns#"
   xmlns:svg="http://www.w3.org/2000/svg"
   xmlns="http://www.w3.org/2000/svg"
   xmlns:sodipodi="http://sodipodi.sourceforge.net/DTD/sodipodi-0.dtd"
   xmlns:inkscape="http://www.inkscape.org/namespaces/inkscape"
   width="16"
   height="16"
   id="svg3495"
   version="1.1"
   inkscape:version="0.48.4 r9939"
   sodipodi:docname="mail-message-new.svg">
  <defs
     id="defs3497">
    <clipPath
       clipPathUnits="userSpaceOnUse"
       id="clipPath3669">
      <path
         inkscape:connector-curvature="0"
         d="M 0,96 96,96 96,0 0,0 0,96 z"
         id="path3671" />
    </clipPath>
  </defs>
  <sodipodi:namedview
     id="base"
     pagecolor="#ffffff"
     bordercolor="#666666"
     borderopacity="1.0"
     inkscape:pageopacity="0.0"
     inkscape:pageshadow="2"
     inkscape:zoom="4"
     inkscape:cx="27.652859"
     inkscape:cy="7.2311083"
     inkscape:current-layer="layer1"
     showgrid="false"
     inkscape:grid-bbox="true"
     inkscape:document-units="px"
     inkscape:window-width="1364"
     inkscape:window-height="700"
     inkscape:window-x="0"
     inkscape:window-y="28"
     inkscape:window-maximized="1"
     inkscape:snap-bbox="true"
     inkscape:bbox-paths="true"
     inkscape:bbox-nodes="true"
     inkscape:snap-bbox-edge-midpoints="false"
     showguides="true"
     inkscape:guide-bbox="true">
    <inkscape:grid
       type="xygrid"
       id="grid3512"
       empspacing="4"
       visible="true"
       enabled="true"
       snapvisiblegridlinesonly="true"
       dotted="false" />
  </sodipodi:namedview>
  <metadata
     id="metadata3500">
    <rdf:RDF>
      <cc:Work
         rdf:about="">
        <dc:format>image/svg+xml</dc:format>
        <dc:type
           rdf:resource="http://purl.org/dc/dcmitype/StillImage" />
        <dc:title></dc:title>
      </cc:Work>
    </rdf:RDF>
  </metadata>
  <g
     id="layer1"
     inkscape:label="Layer 1"
     inkscape:groupmode="layer"
     transform="translate(0,-32)">
    <g
       id="g3798"
       transform="translate(-5,1)">
      <rect
         y="43"
         x="15"
         height="2"
         width="6"
         id="rect3856"
         style="color:#000000;fill:#555555;fill-opacity:1;fill-rule:nonzero;stroke:none;stroke-width:2;marker:none;visibility:visible;display:inline;overflow:visible;enable-background:accumulate" />
      <rect
         style="color:#000000;fill:#555555;fill-opacity:1;fill-rule:nonzero;stroke:none;stroke-width:2;marker:none;visibility:visible;display:inline;overflow:visible;enable-background:accumulate"
         id="rect3858"
         width="6"
         height="2"
         x="41"
         y="17"
         transform="matrix(0,1,1,0,0,0)" />
      <path
         style="fill:#555555;fill-opacity:1;fill-rule:nonzero;stroke:none;display:inline;enable-background:new"
         d="M 1.15625,1.03125 C 0.61417,1.031229 0.1946834,1.406859 0.0625,1.90625 L 7,5.6875 13.9375,1.90625 C 13.805316,1.406858 13.38583,1.031271 12.84375,1.03125 z M 0,3.21875 0,9.84375 C 0,10.490083 0.5099166,10.999976 1.15625,11 L 9,11 l 2,0 0,-2 3,0 0,-5.78125 -7,3.875 z"
         transform="translate(5,31)"
         id="rect4927"
         inkscape:connector-curvature="0"
         sodipodi:nodetypes="cccccccscccccccc" />
    </g>
    <g
       id="g3803"
       style="opacity:0.1;fill:#ffffff;fill-opacity:1"
       transform="translate(-5,0)">
      <rect
         style="color:#000000;fill:#ffffff;fill-opacity:1;fill-rule:nonzero;stroke:none;stroke-width:2;marker:none;visibility:visible;display:inline;overflow:visible;enable-background:accumulate"
         id="rect3805"
         width="6"
         height="2"
         x="15"
         y="43" />
      <rect
         transform="matrix(0,1,1,0,0,0)"
         y="17"
         x="41"
         height="2"
         width="6"
         id="rect3807"
         style="color:#000000;fill:#ffffff;fill-opacity:1;fill-rule:nonzero;stroke:none;stroke-width:2;marker:none;visibility:visible;display:inline;overflow:visible;enable-background:accumulate" />
      <path
         style="fill:#ffffff;fill-opacity:1;fill-rule:nonzero;stroke:none;display:inline;enable-background:new"
         d="M 1.15625,0.03125 C 0.61417,0.031229 0.1946834,0.406859 0.0625,0.90625 L 7,4.6875 13.9375,0.90625 C 13.805316,0.406858 13.38583,0.031271 12.84375,0.03125 z M 0,2.21875 0,8.84375 C 0,9.490083 0.5099166,9.999976 1.15625,10 L 9,10 l 2,0 0,-2 3,0 0,-5.78125 -7,3.875 z"
         transform="translate(5,32)"
         id="path3809"
         inkscape:connector-curvature="0"
         sodipodi:nodetypes="cccccccscccccccc" />
    </g>
  </g>
</svg>
