<?xml version="1.0" encoding="UTF-8" standalone="no"?>
<svg
   xmlns:dc="http://purl.org/dc/elements/1.1/"
   xmlns:cc="http://creativecommons.org/ns#"
   xmlns:rdf="http://www.w3.org/1999/02/22-rdf-syntax-ns#"
   xmlns:svg="http://www.w3.org/2000/svg"
   xmlns="http://www.w3.org/2000/svg"
   xmlns:xlink="http://www.w3.org/1999/xlink"
   width="16px"
   height="16px"
   id="svg5400"
   version="1.1">
  <defs
     id="defs5402">
    <linearGradient
       id="linearGradient3804">
      <stop
         style="stop-color:#ffffff;stop-opacity:1;"
         offset="0"
         id="stop3806" />
      <stop
         style="stop-color:#ffffff;stop-opacity:0;"
         offset="1"
         id="stop3808" />
    </linearGradient>
    <linearGradient
       id="linearGradient4228">
      <stop
         style="stop-color:#ffffff;stop-opacity:1;"
         offset="0"
         id="stop4230" />
      <stop
         id="stop4262"
         offset="0.22413793"
         style="stop-color:#ffffff;stop-opacity:0.85098039;" />
      <stop
         style="stop-color:#ffffff;stop-opacity:0.70253164;"
         offset="1"
         id="stop4232" />
    </linearGradient>
    <linearGradient
       id="outerBackgroundGradient">
      <stop
         style="stop-color:#b79877;stop-opacity:1;"
         offset="0"
         id="stop3864-8-6" />
      <stop
         style="stop-color:#f7d2a2;stop-opacity:1;"
         offset="1"
         id="stop3866-9-1" />
    </linearGradient>
    <linearGradient
       xlink:href="#linearGradient3804"
       id="linearGradient3921"
       gradientUnits="userSpaceOnUse"
       gradientTransform="translate(2,2)"
       x1="5"
       y1="1"
       x2="5"
       y2="14" />
    <linearGradient
       xlink:href="#outerBackgroundGradient"
       id="linearGradient3924"
       gradientUnits="userSpaceOnUse"
       gradientTransform="matrix(0.06018519,0,0,0.06285718,-0.66666667,-1.0571525)"
       x1="144"
       y1="280.00003"
       x2="144"
       y2="40.00005" />
    <linearGradient
       id="linearGradient3886">
      <stop
         style="stop-color:#e15d21;stop-opacity:1;"
         offset="0"
         id="stop3888" />
      <stop
         style="stop-color:#ff811d;stop-opacity:1;"
         offset="1"
         id="stop3890" />
    </linearGradient>
    <linearGradient
       id="linearGradient3904-5">
      <stop
         id="stop3906-7"
         offset="0"
         style="stop-color:#885010;stop-opacity:1;" />
      <stop
         id="stop3908-4"
         offset="1"
         style="stop-color:#e55b00;stop-opacity:1;" />
    </linearGradient>
    <linearGradient
       xlink:href="#linearGradient3886"
       id="linearGradient3909"
       gradientUnits="userSpaceOnUse"
       gradientTransform="matrix(0,1,-1,0,15,-5)"
       x1="15"
       y1="2"
       x2="5"
       y2="2" />
    <linearGradient
       xlink:href="#linearGradient4228"
       id="linearGradient3940"
       gradientUnits="userSpaceOnUse"
       gradientTransform="matrix(0.5,0,0,0.5,-156.00005,-492.93109)"
       x1="330"
       y1="995.62781"
       x2="330"
       y2="1012.0966" />
    <linearGradient
       xlink:href="#linearGradient3904-5"
       id="linearGradient4083"
       gradientUnits="userSpaceOnUse"
       gradientTransform="matrix(0,1,-1,0,15,-5)"
       x1="17"
       y1="7"
       x2="5"
       y2="7" />
  </defs>
  <metadata
     id="metadata5405">
    <rdf:RDF>
      <cc:Work
         rdf:about="">
        <dc:format>image/svg+xml</dc:format>
        <dc:type
           rdf:resource="http://purl.org/dc/dcmitype/StillImage" />
        <dc:title />
      </cc:Work>
    </rdf:RDF>
  </metadata>
  <g
     id="layer1"
     style="display:inline">
    <path
       style="color:#bebebe;fill:url(#linearGradient3924);fill-opacity:1;fill-rule:nonzero;stroke:none;stroke-width:0;marker:none;visibility:visible;display:inline;overflow:visible;enable-background:accumulate"
       d="m 14.499996,3.5 4e-6,11 c -4.333333,0 -8.6666678,0 -13,0 l 0,-11 z"
       id="rect3373-6" />
    <path
       style="opacity:0.4;color:#bebebe;fill:url(#linearGradient3921);fill-opacity:1;fill-rule:nonzero;stroke:none;stroke-width:0;marker:none;visibility:visible;display:inline;overflow:visible;enable-background:accumulate"
       d="M 14,4 2,4 2,14 14,14 14,4 z m -1,1 0,8 -10,0 0,-8 10,0 z"
       id="path3799" />
    <path
       id="path3927"
       d="m 14.499996,3.5 4e-6,11 c -4.333333,0 -8.6666678,0 -13,0 l 0,-11 z"
       style="opacity:0.41000001;color:#bebebe;fill:none;stroke:#000000;stroke-width:1;stroke-miterlimit:4;stroke-opacity:1;stroke-dasharray:none;marker:none;visibility:visible;display:inline;overflow:visible;enable-background:accumulate" />
    <g
       style="display:inline"
       id="g3943"
       transform="matrix(1,0,0,0.85714286,0,2.1428571)">
      <path
         id="path3991"
         d="M 7,1 7,15 8,15 8,1 7,1 z"
         style="font-size:medium;font-style:normal;font-variant:normal;font-weight:normal;font-stretch:normal;text-indent:0;text-align:start;text-decoration:none;line-height:normal;letter-spacing:normal;word-spacing:normal;text-transform:none;direction:ltr;block-progression:tb;writing-mode:lr-tb;text-anchor:start;baseline-shift:baseline;opacity:0.05;color:#000000;fill:#ffffff;fill-opacity:1;stroke:none;stroke-width:1;marker:none;visibility:visible;display:inline;overflow:visible;enable-background:new;font-family:Sans;-inkscape-font-specification:Sans" />
      <path
         id="path3955"
         d="M 8,1 8,15 9,15 9,1 8,1 z"
         style="font-size:medium;font-style:normal;font-variant:normal;font-weight:normal;font-stretch:normal;text-indent:0;text-align:start;text-decoration:none;line-height:normal;letter-spacing:normal;word-spacing:normal;text-transform:none;direction:ltr;block-progression:tb;writing-mode:lr-tb;text-anchor:start;baseline-shift:baseline;opacity:0.1;color:#000000;fill:#000000;fill-opacity:1;stroke:none;stroke-width:1;marker:none;visibility:visible;display:inline;overflow:visible;enable-background:new;font-family:Sans;-inkscape-font-specification:Sans" />
    </g>
    <path
       style="opacity:0.3;fill:url(#linearGradient3940);fill-opacity:1;fill-rule:nonzero;stroke:none;stroke-width:1;marker:none;visibility:visible;display:inline;overflow:visible;enable-background:accumulate"
       d="M 12.11719,8 10.88281,8 5.11718,8 3.88277,8 c 0,0.10598 0.34374,0.20652 0.34374,0.3125 0,0.16227 -0.34374,0.33774 -0.34374,0.5 0,0.20156 0.39067,0.39219 0.39067,0.59375 0,0.19686 -0.39067,0.39688 -0.39067,0.59375 l 1.23441,0 5.76563,0 1.23438,0 c 0,-0.19687 -0.375,-0.39689 -0.375,-0.59375 0,-0.20156 0.375,-0.39219 0.375,-0.59375 0,-0.16226 -0.32813,-0.33773 -0.32813,-0.5 0,-0.10598 0.32813,-0.20652 0.32813,-0.3125 z"
       id="path4248" />
  </g>
  <g
     id="layer2"
     style="display:inline">
    <path
       id="path4400-3-3"
       d="m 11.5625,4.53125 -1.5625,0 -0.5,0 0,-0.5 0,-3.53125 -3,0 c 8.44e-5,0.010337 0,0.020896 0,0.03125 l 0,3.5 0,0.5 -0.5,0 -1.5625,0 L 8,9.625 z"
       style="font-style:normal;font-variant:normal;font-weight:normal;font-stretch:normal;text-indent:0;text-align:start;text-decoration:none;line-height:normal;letter-spacing:normal;word-spacing:normal;text-transform:none;direction:ltr;block-progression:tb;writing-mode:lr-tb;text-anchor:start;baseline-shift:baseline;color:#bebebe;fill:url(#linearGradient3909);fill-opacity:1;fill-rule:nonzero;stroke:none;stroke-width:0;marker:none;visibility:visible;display:inline;overflow:visible;enable-background:accumulate;font-family:Sans;-inkscape-font-specification:Sans" />
    <path
       id="path4033"
       d="M 11.5625,4.53125 8,9.625 4.4375,4.53125 l 1.5625,0 0.5,0 0,-0.5 L 6.5,0.5 c -0.5,0 2.5,0 3,0 l 0,3.53125 0,0.5 0.5,0 z"
       style="font-style:normal;font-variant:normal;font-weight:normal;font-stretch:normal;text-indent:0;text-align:start;text-decoration:none;line-height:normal;letter-spacing:normal;word-spacing:normal;text-transform:none;direction:ltr;block-progression:tb;writing-mode:lr-tb;text-anchor:start;baseline-shift:baseline;opacity:0.81000000999999999;color:#bebebe;fill:none;stroke:url(#linearGradient4083);stroke-width:1;stroke-miterlimit:4;stroke-opacity:1;stroke-dasharray:none;marker:none;visibility:visible;display:inline;overflow:visible;enable-background:accumulate;font-family:Sans;-inkscape-font-specification:Sans" />
    <path
       style="font-style:normal;font-variant:normal;font-weight:normal;font-stretch:normal;text-indent:0;text-align:start;text-decoration:none;line-height:normal;letter-spacing:normal;word-spacing:normal;text-transform:none;direction:ltr;block-progression:tb;writing-mode:lr-tb;text-anchor:start;baseline-shift:baseline;opacity:0.2;color:#bebebe;fill:#ffffff;fill-opacity:1;fill-rule:nonzero;stroke:none;stroke-width:0;marker:none;visibility:visible;display:inline;overflow:visible;enable-background:accumulate;font-family:Sans;-inkscape-font-specification:Sans"
       d="M 7,1 7,2 9,2 9,1 7,1 z m -1.625,4.03125 0.71875,1 0.40625,0 0.5,0 0,-0.5 0,-0.5 -0.5,0 -0.5,0 -0.625,0 z m 3.625,0 0,0.5 0,0.5 0.5,0 0.40625,0 0.71875,-1 -0.625,0 -0.5,0 -0.5,0 z"
       id="path3921" />
  </g>
</svg>
