<?xml version='1.0' encoding='UTF-8' standalone='no'?>
<svg height="16" xmlns:inkscape="http://www.inkscape.org/namespaces/inkscape" xmlns:sodipodi="http://sodipodi.sourceforge.net/DTD/sodipodi-0.dtd" version="1.1" width="16" xmlns="http://www.w3.org/2000/svg" enable-background="new">
 <metadata id="metadata90"/>
 <defs id="defs7386">
  <linearGradient id="linearGradient5606" osb:paint="solid">
   <stop id="stop5608"/>
  </linearGradient>
  <filter inkscape:collect="always" color-interpolation-filters="sRGB" id="filter7554">
   <feBlend inkscape:collect="always" id="feBlend7556" in2="BackgroundImage" mode="darken"/>
  </filter>
 </defs>
 <g inkscape:groupmode="layer" id="layer12" inkscape:label="actions" transform="translate(-521.0002,-49)">
  <g id="g8309" transform="matrix(0.4886273,0,0,0.4886273,515.99271,49.385298)" fill="#bebebe">
   <path inkscape:connector-curvature="0" d="m 42.440526,21.800014 c -0.867705,1.484724 -3.032248,1.070434 -4.577316,0.844049 -1.501844,-0.218494 -3.294624,-0.439467 -4.281522,-1.837176 -0.554897,-0.782875 -0.385514,-1.752355 -0.382846,-2.594067 0.0025,-0.830783 0.254536,-1.880471 -0.22273,-2.603282 -0.772815,-1.174509 -2.389919,-1.48021 -3.337713,-1.623323 -2.145925,-0.318339 -3.803727,-0.334347 -6.096295,0.06016 -1.111077,0.189831 -2.625105,0.478299 -3.236526,1.555098 -0.912606,1.608932 0.460651,3.437104 -0.609354,5.122537 -1.018116,1.604401 -2.880163,1.670104 -4.265273,1.872152 -1.337201,0.191755 -3.272902,0.694284 -4.341601,-0.383123 -0.612976,-0.620038 -0.56236,-1.499839 -0.561798,-2.300717 -0.0015,-0.815625 -0.102182,-1.61736 -0.0026,-2.335852 0.240502,-1.740559 1.06941,-3.411118 2.477369,-4.932626 1.380265,-1.491786 2.962932,-2.260396 4.517053,-2.8553301 3.039723,-1.1622532 5.898861,-1.4614456 9.113443,-1.4996667 3.160976,-0.038441 6.288054,0.3293548 9.324433,1.5460389 3.790958,1.5201789 6.317422,4.6550389 6.760635,7.9137419 0.07633,0.552373 0.0268,1.277288 0.01892,1.973487 -0.0059,0.696064 0.08574,1.424998 -0.296305,2.077897 z" id="path8317" sodipodi:nodetypes="ccccccccccccccccccccc" fill-rule="evenodd"/>
  </g>
 </g>
</svg>
