<?xml version='1.0' encoding='UTF-8' standalone='no'?>
<svg height="16" xmlns:inkscape="http://www.inkscape.org/namespaces/inkscape" xmlns:sodipodi="http://sodipodi.sourceforge.net/DTD/sodipodi-0.dtd" version="1.1" width="16" xmlns="http://www.w3.org/2000/svg" enable-background="new">
 <metadata id="metadata90"/>
 <defs id="defs7386">
  <linearGradient id="linearGradient5606" osb:paint="solid">
   <stop id="stop5608"/>
  </linearGradient>
  <filter inkscape:collect="always" color-interpolation-filters="sRGB" id="filter7554">
   <feBlend inkscape:collect="always" id="feBlend7556" in2="BackgroundImage" mode="darken"/>
  </filter>
 </defs>
 <g inkscape:groupmode="layer" id="layer12" inkscape:label="actions" transform="translate(-531.00018,-69)">
  <path inkscape:connector-curvature="0" d="M 532.1252,76.15625 531.34395,77 l 1.15625,0 1.5,0 0,3 -1.5,0 -0.5,0 0,0.5 0,3 0,0.5 0.5,0 13,0 0.5,0 0,-0.5 0,-3 0,-0.5 -0.5,0 -1.5,0 0,-3 1.5,0 1.15625,0 L 545.8752,76.15625 539.0002,69 z M 537.9377,74 l 0.875,0 0.3125,0 0.875,0 2.71875,8 -0.875,0 -0.1875,0 -0.875,0 -0.65625,-2 -2.40625,0 -0.625,2 -0.875,0 -0.125,0 -0.875,0 z m 1,2.34375 -0.78125,2.40625 1.5625,0 z" id="path5123" sodipodi:nodetypes="ccccccccccccccccccccccccccccccccccccccccccc" color="#000000" fill="#bbbbbb"/>
 </g>
</svg>
