<?xml version='1.0' encoding='UTF-8' standalone='no'?>
<svg height="16" xmlns:inkscape="http://www.inkscape.org/namespaces/inkscape" xmlns:sodipodi="http://sodipodi.sourceforge.net/DTD/sodipodi-0.dtd" version="1.1" width="16" xmlns="http://www.w3.org/2000/svg" enable-background="new">
 <metadata id="metadata90"/>
 <defs id="defs7386">
  <linearGradient id="linearGradient5606" osb:paint="solid">
   <stop id="stop5608"/>
  </linearGradient>
  <filter inkscape:collect="always" color-interpolation-filters="sRGB" id="filter7554">
   <feBlend inkscape:collect="always" id="feBlend7556" in2="BackgroundImage" mode="darken"/>
  </filter>
 </defs>
 <g inkscape:groupmode="layer" id="layer12" inkscape:label="actions" transform="translate(-421.0002,-49)">
  <path inkscape:connector-curvature="0" d="m 429.00022,50 c -2.20914,0 -4,1.79086 -4,4 0,2.20914 1.79086,4 4,4 2.20914,0 4,-1.79086 4,-4 0,-2.20914 -1.79086,-4 -4,-4 z m -3.21875,7.78125 C 423.53281,58.9458 423.00022,61.2929 423.00022,64 l 7,0 0,-1 0,-2 0,-1 1,0 1,0 0,-1 0,-1 0.5625,0 C 432.44643,57.9268 432.346,57.84704 432.21897,57.78125 431.34438,58.52942 430.23415,59 429.00022,59 c -1.23393,0 -2.34416,-0.47058 -3.21875,-1.21875 z M 433.00022,59 l 0,2 -2,0 0,2 2,0 0,2 2,0 0,-2 2,0 0,-2 -2,0 0,-2 z" id="path6751-4-4" sodipodi:nodetypes="sssssccccccccccccscccccccccccccc" fill="#bebebe" color="#bebebe"/>
 </g>
</svg>
