<?xml version='1.0' encoding='UTF-8' standalone='no'?>
<svg height="16" xmlns:inkscape="http://www.inkscape.org/namespaces/inkscape" xmlns:sodipodi="http://sodipodi.sourceforge.net/DTD/sodipodi-0.dtd" version="1.1" width="16" xmlns="http://www.w3.org/2000/svg" enable-background="new">
 <metadata id="metadata90"/>
 <defs id="defs7386">
  <linearGradient id="linearGradient5606" osb:paint="solid">
   <stop id="stop5608"/>
  </linearGradient>
  <filter inkscape:collect="always" color-interpolation-filters="sRGB" id="filter7554">
   <feBlend inkscape:collect="always" id="feBlend7556" in2="BackgroundImage" mode="darken"/>
  </filter>
 </defs>
 <g inkscape:groupmode="layer" id="layer12" inkscape:label="actions" transform="translate(-421.0002,-48.986926)">
  <g id="g6648" transform="matrix(1,0,0,-1,421.00022,64.993656)">
   <path inkscape:connector-curvature="0" d="m 202,478 0,2 0,2 0,8 0,1 0,1 7,0 0,-1 -6,0 0,-1 0,-7.40625 0,-2.59375 0,-1 10,0 0,7 1,0 0,-8 z" id="path6650" sodipodi:nodetypes="cccccccccccccccccc" transform="translate(-200,-477)" fill="#bebebe" color="#bebebe"/>
  </g>
  <path inkscape:connector-curvature="0" d="m 433.00022,54.99366 0,-2 -2,0 0,-2 2,0 0,-2 L 437.0002,52 z" id="path6654" sodipodi:nodetypes="cccccccc" fill="#bebebe"/>
 </g>
</svg>
