<?xml version="1.0" encoding="UTF-8" standalone="no"?>
<svg
   xmlns:dc="http://purl.org/dc/elements/1.1/"
   xmlns:cc="http://creativecommons.org/ns#"
   xmlns:rdf="http://www.w3.org/1999/02/22-rdf-syntax-ns#"
   xmlns:svg="http://www.w3.org/2000/svg"
   xmlns="http://www.w3.org/2000/svg"
   xmlns:xlink="http://www.w3.org/1999/xlink"
   width="16px"
   height="16px"
   id="svg5400"
   version="1.1">
  <defs
     id="defs5402">
    <linearGradient
       id="linearGradient3804">
      <stop
         style="stop-color:#ffffff;stop-opacity:1;"
         offset="0"
         id="stop3806" />
      <stop
         style="stop-color:#ffffff;stop-opacity:0;"
         offset="1"
         id="stop3808" />
    </linearGradient>
    <linearGradient
       id="outerBackgroundGradient-4">
      <stop
         style="stop-color:#f0f0f0;stop-opacity:1;"
         offset="0"
         id="stop3864-8-6-6" />
      <stop
         style="stop-color:#f9f9f9;stop-opacity:1;"
         offset="1"
         id="stop3866-9-1-7" />
    </linearGradient>
    <linearGradient
       xlink:href="#outerBackgroundGradient-4"
       id="linearGradient3829"
       gradientUnits="userSpaceOnUse"
       gradientTransform="matrix(0.05555556,0,0,0.05714289,-2,-2.1428659)"
       x1="144"
       y1="280.00003"
       x2="144"
       y2="40.00005" />
    <linearGradient
       xlink:href="#linearGradient3804"
       id="linearGradient3831"
       gradientUnits="userSpaceOnUse"
       x1="5"
       y1="1"
       x2="5"
       y2="14" />
    <radialGradient
       xlink:href="#linearGradient2378-8"
       id="radialGradient3067-1"
       gradientUnits="userSpaceOnUse"
       cx="38.658855"
       cy="9.3411446"
       fx="38.658855"
       fy="9.3411446"
       r="8.341651" />
    <linearGradient
       id="linearGradient2378-8">
      <stop
         id="stop2380-8"
         style="stop-color:#ffffff;stop-opacity:1"
         offset="0" />
      <stop
         id="stop4146-9"
         style="stop-color:#fefede;stop-opacity:0.91836733"
         offset="0.25" />
      <stop
         id="stop2386-8"
         style="stop-color:#f5f328;stop-opacity:1"
         offset="0.5" />
      <stop
         id="stop10317-3"
         style="stop-color:#f5f32d;stop-opacity:0.12234043"
         offset="1" />
    </linearGradient>
  </defs>
  <metadata
     id="metadata5405">
    <rdf:RDF>
      <cc:Work
         rdf:about="">
        <dc:format>image/svg+xml</dc:format>
        <dc:type
           rdf:resource="http://purl.org/dc/dcmitype/StillImage" />
        <dc:title />
      </cc:Work>
    </rdf:RDF>
  </metadata>
  <g
     id="layer1">
    <g
       id="g3812"
       transform="translate(2,1)">
      <path
         style="opacity:0.41000001;color:#bebebe;fill:none;stroke:#000000;stroke-width:2;stroke-linejoin:round;stroke-miterlimit:4;stroke-opacity:1;stroke-dasharray:none;marker:none;visibility:visible;display:inline;overflow:visible;enable-background:accumulate"
         d="M 1,1.000004 11,1 c 0,4 0,8.000001 0,12 L 1,13 z"
         id="path3029" />
      <path
         id="rect3373-6"
         d="M 1,1.000004 11,1 c 0,4 0,8.000001 0,12 L 1,13 z"
         style="color:#bebebe;fill:url(#linearGradient3829);fill-opacity:1;fill-rule:nonzero;stroke:none;stroke-width:0;marker:none;visibility:visible;display:inline;overflow:visible;enable-background:accumulate" />
      <path
         id="path3799"
         d="M 1,1 1,13 11,13 11,1 1,1 z m 1,1 8,0 0,10 -8,0 0,-10 z"
         style="color:#bebebe;fill:url(#linearGradient3831);fill-opacity:1;fill-rule:nonzero;stroke:none;stroke-width:0;marker:none;visibility:visible;display:inline;overflow:visible;enable-background:accumulate" />
    </g>
  </g>
  <g
     id="layer2"
     style="display:inline">
    <g
       transform="matrix(0.93921201,0,0,1.0101746,-14.82833,-426.22338)"
       id="g11289">
      <g
         transform="translate(1,-2)"
         id="g11291">
        <path
           d="m 47.000506,9.3411446 a 8.341651,8.341651 0 1 1 -16.683302,0 8.341651,8.341651 0 1 1 16.683302,0 z"
           transform="matrix(0.6381964,0,0,0.6527009,1.8280575,423.27802)"
           id="path11293"
           style="fill:url(#radialGradient3067-1);fill-opacity:1;fill-rule:evenodd;stroke:none" />
        <path
           d="m 33.71875,0.03125 c -0.46837,-0.02427825 -1.008512,0.01404767 -1.5625,0.25 -1.129977,0.48127465 -1.700725,1.4483493 -1.9375,2.0625 -0.236775,0.6141507 -0.281018,1.0549602 -0.3125,1.46875 -0.06296,0.8275796 0.01008,1.5217193 0.0625,2.1875 0.03304,0.4196326 0.06923,0.7273675 0.09375,1.0625 -0.319841,0.1605167 -0.619458,0.3286599 -1.03125,0.53125 -0.610226,0.3002144 -1.253218,0.6168944 -1.9375,1.09375 -0.342141,0.2384278 -0.720058,0.4999648 -1.125,1 -0.404942,0.500035 -0.919606,1.417742 -0.8125,2.625 0.108676,1.224957 0.83472,2.054022 1.34375,2.46875 0.50903,0.414728 0.929157,0.59112 1.3125,0.75 0.766686,0.31776 1.443306,0.466599 2.09375,0.625 0.423819,0.103212 0.72877,0.16643 1.0625,0.25 0.05591,0.355577 0.119142,0.696752 0.1875,1.15625 0.09984,0.671109 0.191872,1.391649 0.4375,2.1875 0.122814,0.397926 0.273261,0.807176 0.625,1.34375 0.351739,0.536574 1.042902,1.323794 2.21875,1.59375 1.189482,0.273085 2.196543,-0.144295 2.75,-0.5 0.553457,-0.355705 0.855882,-0.716081 1.125,-1.03125 0.538236,-0.630338 0.901965,-1.215335 1.25,-1.78125 0.224135,-0.36445 0.38361,-0.619366 0.5625,-0.90625 0.357545,0.05568 0.696337,0.112092 1.15625,0.1875 0.671715,0.110135 1.385879,0.209184 2.21875,0.21875 0.416435,0.0048 0.85184,0.01304 1.46875,-0.15625 0.61691,-0.169294 1.597608,-0.588383 2.21875,-1.625 0.629824,-1.051107 0.511312,-2.177123 0.34375,-2.8125 -0.167562,-0.635377 -0.377164,-1.02135 -0.59375,-1.375 -0.433171,-0.7073 -0.91187,-1.241553 -1.34375,-1.75 -0.276147,-0.325105 -0.469802,-0.553142 -0.6875,-0.8125 0.161407,-0.316481 0.320983,-0.6265922 0.53125,-1.03125 0.311591,-0.5996545 0.63911,-1.2121538 0.90625,-2 C 46.47732,6.9185769 46.595828,6.484287 46.625,5.84375 46.654172,5.203213 46.538668,4.1550279 45.75,3.25 44.950066,2.3320462 43.904222,2.1026594 43.25,2.0625 c -0.654222,-0.040159 -1.096889,0.03051 -1.5,0.125 -0.806222,0.1889801 -1.478143,0.4689271 -2.09375,0.71875 -0.40176,0.1630405 -0.683141,0.2800004 -1,0.40625 C 38.401264,3.0584702 38.169883,2.830184 37.84375,2.5 37.367094,2.0174234 36.855154,1.4970295 36.1875,1 35.853673,0.75148523 35.505496,0.47536814 34.90625,0.25 34.606627,0.13731593 34.18712,0.05552825 33.71875,0.03125 z"
           transform="matrix(0.3735602,0.1529503,-0.1660098,0.3441734,14.555208,419.81907)"
           id="path11295"
           style="color:#000000;fill:#edd400;fill-opacity:1;fill-rule:evenodd;stroke:none;stroke-width:0.5;marker:none;visibility:visible;display:inline;overflow:visible" />
        <path
           d="m 44.503206,15.464878 c -1.191831,1.966747 -3.665135,-0.99033 -5.763376,-0.04909 -2.024585,0.908204 -1.431674,4.753003 -3.591868,4.245718 -2.238783,-0.52574 -0.190729,-3.79178 -1.734298,-5.496465 -1.489383,-1.644844 -4.962785,0.107157 -5.147865,-2.10407 -0.191814,-2.2916723 3.547258,-1.353118 4.691521,-3.3479161 1.104095,-1.9247728 -1.635497,-4.6867762 0.410312,-5.5461045 2.120236,-0.8905915 2.383055,2.9555064 4.633817,3.4273387 2.171752,0.4552692 3.951993,-3.0037432 5.401452,-1.3236111 1.502192,1.7412568 -2.074449,3.1797221 -1.827664,5.466128 0.238121,2.206145 4.077962,2.830361 2.927969,4.728068 z"
           transform="matrix(0.3831859,0.1529503,-0.1702874,0.3441734,14.241265,419.81907)"
           id="path11297"
           style="color:#000000;fill:#ffffff;fill-opacity:1;fill-rule:evenodd;stroke:none;stroke-width:0.5;marker:none;visibility:visible;display:inline;overflow:visible" />
      </g>
      <rect
         width="1"
         height="1"
         x="27"
         y="424"
         id="rect11299"
         style="fill:#ffffff;fill-opacity:1;stroke:none" />
      <rect
         width="1"
         height="1"
         x="24"
         y="426"
         id="rect11301"
         style="fill:#ffffff;fill-opacity:1;stroke:none" />
      <rect
         width="1"
         height="1"
         x="30"
         y="426"
         id="rect11303"
         style="fill:#ffffff;fill-opacity:1;stroke:none" />
      <rect
         width="1"
         height="1"
         x="29"
         y="429"
         id="rect11305"
         style="fill:#ffffff;fill-opacity:1;stroke:none" />
      <rect
         width="1"
         height="1"
         x="25"
         y="429"
         id="rect11307"
         style="fill:#ffffff;fill-opacity:1;stroke:none" />
    </g>
  </g>
</svg>
