<?xml version="1.0" encoding="UTF-8" standalone="no"?>
<svg xmlns="http://www.w3.org/2000/svg" xmlns:xlink="http://www.w3.org/1999/xlink" xmlns:sodipodi="http://sodipodi.sourceforge.net/DTD/sodipodi-0.dtd" xmlns:inkscape="http://www.inkscape.org/namespaces/inkscape" width="16" height="16" version="1.1">
 <defs id="defs5402">
  <linearGradient id="linearGradient3848">
   <stop id="stop3850" stop-color="#6e660d"/>
   <stop id="stop3852" offset="1" stop-color="#75611c"/>
  </linearGradient>
  <linearGradient id="linearGradient3832">
   <stop id="stop3834" stop-color="#eedc1b"/>
   <stop offset="1" id="stop3836" stop-color="#e8c348"/>
  </linearGradient>
  <linearGradient inkscape:collect="always" id="linearGradient3818">
   <stop id="stop3820"/>
   <stop offset="1" id="stop3822" stop-opacity="0.515"/>
  </linearGradient>
  <linearGradient id="linearGradient3904">
   <stop id="stop3906" stop-color="#104b88"/>
   <stop id="stop3908" offset="1" stop-color="#0e7398"/>
  </linearGradient>
  <linearGradient inkscape:collect="always" id="linearGradient3804">
   <stop id="stop3806" stop-color="#ffffff"/>
   <stop offset="1" id="stop3808" stop-color="#ffffff" stop-opacity="0"/>
  </linearGradient>
  <linearGradient inkscape:collect="always" xlink:href="#linearGradient3804" id="linearGradient6750" x1="443.5" y1="-178.5" x2="444" y2="-175.5" gradientUnits="userSpaceOnUse" gradientTransform="translate(-433,180.00027)"/>
  <linearGradient inkscape:collect="always" xlink:href="#linearGradient3804" id="linearGradient6736" x1="435" x2="438" gradientUnits="userSpaceOnUse"/>
  <linearGradient inkscape:collect="always" xlink:href="#linearGradient5621" id="linearGradient5956" y1="63.937" x2="0" y2="47.937" gradientUnits="userSpaceOnUse" gradientTransform="translate(-1400.9375,-47.937495)"/>
  <linearGradient id="linearGradient5621">
   <stop id="stop5623" stop-color="#0b0b0b"/>
   <stop offset="1" id="stop5625" stop-color="#585858"/>
  </linearGradient>
  <linearGradient id="linearGradient8589">
   <stop id="stop8591" stop-color="#fefefe"/>
   <stop id="stop8593" offset="1" stop-color="#cbcbcb"/>
  </linearGradient>
  <radialGradient cx="102" cy="112.3" r="139.56" id="XMLID_8_" gradientUnits="userSpaceOnUse">
   <stop id="stop41" stop-color="#b7b8b9"/>
   <stop id="stop47" offset="0.189" stop-color="#ececec"/>
   <stop id="stop49" offset="0.257" stop-color="#fafafa" stop-opacity="0"/>
   <stop id="stop51" offset="0.301" stop-color="#ffffff" stop-opacity="0"/>
   <stop id="stop53" offset="0.531" stop-color="#fafafa" stop-opacity="0"/>
   <stop id="stop55" offset="0.845" stop-color="#ebecec" stop-opacity="0"/>
   <stop id="stop57" offset="1" stop-color="#e1e2e3" stop-opacity="0"/>
  </radialGradient>
  <linearGradient inkscape:collect="always" xlink:href="#linearGradient3804" id="linearGradient6701" y1="-180" x2="0" y2="-164" gradientUnits="userSpaceOnUse"/>
  <clipPath id="clipPath6691">
   <path id="path6693" d="m 914,-179.00027 8,-1e-5 4,3 0,11 -12,0 z"/>
  </clipPath>
  <linearGradient id="outerBackgroundGradient-4">
   <stop id="stop3864-8-6-6" stop-color="#f0f0f0"/>
   <stop offset="1" id="stop3866-9-1-7" stop-color="#f9f9f9"/>
  </linearGradient>
  <linearGradient inkscape:collect="always" xlink:href="#outerBackgroundGradient-4" id="linearGradient3825" gradientUnits="userSpaceOnUse" gradientTransform="matrix(0.05555556,0,0,0.05714289,-2,-2.1428659)" y1="280" x2="0" y2="40"/>
  <linearGradient inkscape:collect="always" xlink:href="#linearGradient3804" id="linearGradient3827" gradientUnits="userSpaceOnUse" y1="1" x2="0" y2="14"/>
  <linearGradient inkscape:collect="always" xlink:href="#linearGradient3818" id="linearGradient3824" y1="0" x2="0" y2="16" gradientUnits="userSpaceOnUse"/>
  <linearGradient inkscape:collect="always" xlink:href="#linearGradient3818" id="linearGradient3866" gradientUnits="userSpaceOnUse" y1="0" x2="0" y2="16" gradientTransform="matrix(1,0,0,-1,0,16.009618)"/>
  <linearGradient inkscape:collect="always" xlink:href="#linearGradient3818" id="linearGradient3881" gradientUnits="userSpaceOnUse" y1="0" x2="0" y2="16" gradientTransform="translate(0,0.999522)"/>
  <linearGradient inkscape:collect="always" xlink:href="#linearGradient3832" id="linearGradient3890" y1="14" x2="0" y2="5" gradientUnits="userSpaceOnUse"/>
  <linearGradient inkscape:collect="always" xlink:href="#linearGradient3848" id="linearGradient3915" y1="5" x2="0" y2="14" gradientUnits="userSpaceOnUse" gradientTransform="translate(1,1)"/>
  <linearGradient inkscape:collect="always" xlink:href="#linearGradient3832" id="linearGradient3917" gradientUnits="userSpaceOnUse" y1="5" x2="0" y2="14" gradientTransform="translate(1,1)"/>
 </defs>
 <metadata id="metadata5405"/>
 <g id="layer1" inkscape:label="Background" inkscape:groupmode="layer">
  <g id="g3812" transform="translate(2,1)">
   <path d="M 1,1.000004 11,1 c 0,4 0,8.000001 0,12 L 1,13 z" id="path3029" inkscape:connector-curvature="0" sodipodi:nodetypes="ccccc" opacity="0.41" fill="none" stroke="#000000" stroke-linejoin="round" color="#bebebe" stroke-width="2"/>
   <path sodipodi:nodetypes="ccccc" inkscape:connector-curvature="0" id="rect3373-6" d="M 1,1.000004 11,1 c 0,4 0,8.000001 0,12 L 1,13 z" fill="url(#linearGradient3825)" color="#bebebe" stroke-width="0"/>
   <path id="path3799" d="M 1,1 1,13 11,13 11,1 1,1 z m 1,1 8,0 0,10 -8,0 0,-10 z" inkscape:connector-curvature="0" fill="url(#linearGradient3827)" color="#bebebe" stroke-width="0"/>
  </g>
 </g>
 <g inkscape:groupmode="layer" id="layer2" inkscape:label="Symbol">
  <path d="m 10.5,5.125 -0.75,0.4375 -5,3 L 4.03125,9 4.75,9.4375 l 5,3 L 9.84375,12.5 9,12.5 l -0.5,0 0,0.5 0,2 0,0.5 0.5,0 2.65625,0 C 13.765413,15.5 15.5,13.765413 15.5,11.65625 l 0,-0.3125 C 15.5,9.2345871 13.765413,7.5 11.65625,7.5 l -1.15625,0 0,-1.5 0,-0.875 z m 0,5.375 1.15625,0 c 0.507047,0 0.84375,0.336704 0.84375,0.84375 l 0,0.3125 C 12.5,12.163297 12.163297,12.5 11.65625,12.5 l -1.15625,0 0,-0.5 0,-1.5 z" id="path3898" inkscape:connector-curvature="0" color="#bebebe" stroke-width="2" fill="url(#linearGradient3917)"/>
  <path d="M 10,6 5,9 5.84375,9.5 10,7 10,6 z m 0,2 0,1 1.65625,0 c 1.715031,0 3.132681,1.329646 3.3125,3 C 14.981343,11.88302 15,11.776359 15,11.65625 l 0,-0.3125 C 15,9.5086097 13.49139,8 11.65625,8 L 10,8 z m 2.9375,4 c -0.146463,0.585009 -0.639936,1 -1.28125,1 L 10,13 l -1,0 0,1 2.65625,0 C 12.417985,14 13,13.417985 13,12.65625 l 0,-0.3125 C 13,12.223329 12.965002,12.109849 12.9375,12 z" id="path5069" inkscape:connector-curvature="0" opacity="0.4" color="#bebebe" stroke-width="2" fill="#ffffff"/>
  <path id="path3907" d="m 10.5,5.125 -0.75,0.4375 -5,3 L 4.03125,9 4.75,9.4375 l 5,3 L 9.84375,12.5 9,12.5 l -0.5,0 0,0.5 0,2 0,0.5 0.5,0 2.65625,0 C 13.765413,15.5 15.5,13.765413 15.5,11.65625 l 0,-0.3125 C 15.5,9.2345871 13.765413,7.5 11.65625,7.5 l -1.15625,0 0,-1.5 0,-0.875 z m 0,5.375 1.15625,0 c 0.507047,0 0.84375,0.336704 0.84375,0.84375 l 0,0.3125 C 12.5,12.163297 12.163297,12.5 11.65625,12.5 l -1.15625,0 0,-0.5 0,-1.5 z" inkscape:connector-curvature="0" opacity="0.61" color="#bebebe" fill="none" stroke="url(#linearGradient3915)"/>
 </g>
</svg>
