<?xml version="1.0" encoding="UTF-8" standalone="no"?>
<svg
   xmlns:dc="http://purl.org/dc/elements/1.1/"
   xmlns:cc="http://creativecommons.org/ns#"
   xmlns:rdf="http://www.w3.org/1999/02/22-rdf-syntax-ns#"
   xmlns:svg="http://www.w3.org/2000/svg"
   xmlns="http://www.w3.org/2000/svg"
   xmlns:xlink="http://www.w3.org/1999/xlink"
   width="16px"
   height="16px"
   id="svg5400"
   version="1.1">
  <defs
     id="defs5402">
    <linearGradient
       id="linearGradient4011">
      <stop
         style="stop-color:#0d546e;stop-opacity:0.61"
         offset="0"
         id="stop4013" />
      <stop
         style="stop-color:#1c5875;stop-opacity:1"
         offset="1"
         id="stop4015" />
    </linearGradient>
    <linearGradient
       id="linearGradient3995">
      <stop
         id="stop3997"
         offset="0"
         style="stop-color:#1bbaee;stop-opacity:1" />
      <stop
         id="stop3999"
         offset="1"
         style="stop-color:#295da0;stop-opacity:1" />
    </linearGradient>
    <linearGradient
       id="linearGradient3804">
      <stop
         style="stop-color:#ffffff;stop-opacity:1;"
         offset="0"
         id="stop3806" />
      <stop
         style="stop-color:#ffffff;stop-opacity:0;"
         offset="1"
         id="stop3808" />
    </linearGradient>
    <linearGradient
       id="outerBackgroundGradient-4">
      <stop
         style="stop-color:#f0f0f0;stop-opacity:1;"
         offset="0"
         id="stop3864-8-6-6" />
      <stop
         style="stop-color:#f9f9f9;stop-opacity:1;"
         offset="1"
         id="stop3866-9-1-7" />
    </linearGradient>
    <linearGradient
       xlink:href="#outerBackgroundGradient-4"
       id="linearGradient3829"
       gradientUnits="userSpaceOnUse"
       gradientTransform="matrix(0.05555556,0,0,0.05714289,-2,-2.1428659)"
       x1="144"
       y1="280.00003"
       x2="144"
       y2="40.00005" />
    <linearGradient
       xlink:href="#linearGradient3804"
       id="linearGradient3831"
       gradientUnits="userSpaceOnUse"
       x1="5"
       y1="1"
       x2="5"
       y2="14" />
    <linearGradient
       xlink:href="#linearGradient3995"
       id="linearGradient3993"
       x1="10"
       y1="4"
       x2="10"
       y2="12"
       gradientUnits="userSpaceOnUse"
       gradientTransform="translate(1,1)" />
    <linearGradient
       xlink:href="#linearGradient4011"
       id="linearGradient4009"
       x1="9"
       y1="4"
       x2="9"
       y2="13"
       gradientUnits="userSpaceOnUse"
       gradientTransform="translate(1,1)" />
  </defs>
  <metadata
     id="metadata5405">
    <rdf:RDF>
      <cc:Work
         rdf:about="">
        <dc:format>image/svg+xml</dc:format>
        <dc:type
           rdf:resource="http://purl.org/dc/dcmitype/StillImage" />
        <dc:title />
      </cc:Work>
    </rdf:RDF>
  </metadata>
  <g
     id="layer1"
     style="display:inline">
    <g
       id="g3812"
       transform="matrix(-1,0,0,1,14,1)">
      <path
         style="opacity:0.41000001;color:#bebebe;fill:none;stroke:#000000;stroke-width:2;stroke-linejoin:round;stroke-miterlimit:4;stroke-opacity:1;stroke-dasharray:none;marker:none;visibility:visible;display:inline;overflow:visible;enable-background:accumulate"
         d="M 1,1.000004 11,1 c 0,4 0,8.000001 0,12 L 1,13 z"
         id="path3029" />
      <path
         id="rect3373-6"
         d="M 1,1.000004 11,1 c 0,4 0,8.000001 0,12 L 1,13 z"
         style="color:#bebebe;fill:url(#linearGradient3829);fill-opacity:1;fill-rule:nonzero;stroke:none;stroke-width:0;marker:none;visibility:visible;display:inline;overflow:visible;enable-background:accumulate" />
      <path
         id="path3799"
         d="M 1,1 1,13 11,13 11,1 1,1 z m 1,1 8,0 0,10 -8,0 0,-10 z"
         style="color:#bebebe;fill:url(#linearGradient3831);fill-opacity:1;fill-rule:nonzero;stroke:none;stroke-width:0;marker:none;visibility:visible;display:inline;overflow:visible;enable-background:accumulate" />
    </g>
  </g>
  <g
     id="layer2"
     style="display:inline">
    <path
       style="font-size:medium;font-style:normal;font-variant:normal;font-weight:normal;font-stretch:normal;text-indent:0;text-align:start;text-decoration:none;line-height:normal;letter-spacing:normal;word-spacing:normal;text-transform:none;direction:ltr;block-progression:tb;writing-mode:lr-tb;text-anchor:start;baseline-shift:baseline;color:#bebebe;fill:url(#linearGradient3993);fill-opacity:1;stroke:none;stroke-width:1;marker:none;visibility:visible;display:inline;overflow:visible;enable-background:accumulate;font-family:Sans;-inkscape-font-specification:Sans"
       d="m 12.5,5.125 -0.75,0.4375 -5,3 L 6.03125,9 6.75,9.4375 l 5,3 0.75,0.4375 0,-0.875 0,-1.5 2.5,0 0.5,0 0,-0.5 0,-2 0,-0.5 -0.5,0 -2.5,0 0,-1.5 0,-0.875 z"
       id="path3976" />
    <path
       style="font-style:normal;font-variant:normal;font-weight:normal;font-stretch:normal;text-indent:0;text-align:start;text-decoration:none;line-height:normal;letter-spacing:normal;word-spacing:normal;text-transform:none;direction:ltr;block-progression:tb;writing-mode:lr-tb;text-anchor:start;baseline-shift:baseline;opacity:0.4;color:#bebebe;fill:#ffffff;fill-opacity:1;stroke:none;stroke-width:2;marker:none;visibility:visible;display:inline;overflow:visible;enable-background:accumulate;font-family:Sans;-inkscape-font-specification:Sans"
       d="M 12,6 7,9 7.84375,9.5 12,7 12,6 z m 0,2 0,1 3,0 0,-1 -3,0 z"
       id="path5069" />
    <path
       id="path4001"
       d="m 12.5,5.125 -0.75,0.4375 -5,3 L 6.03125,9 6.75,9.4375 l 5,3 0.75,0.4375 0,-0.875 0,-1.5 2.5,0 0.5,0 0,-0.5 0,-2 0,-0.5 -0.5,0 -2.5,0 0,-1.5 0,-0.875 z"
       style="font-size:medium;font-style:normal;font-variant:normal;font-weight:normal;font-stretch:normal;text-indent:0;text-align:start;text-decoration:none;line-height:normal;letter-spacing:normal;word-spacing:normal;text-transform:none;direction:ltr;block-progression:tb;writing-mode:lr-tb;text-anchor:start;baseline-shift:baseline;color:#bebebe;fill:none;stroke:url(#linearGradient4009);stroke-width:1;stroke-opacity:1;marker:none;visibility:visible;display:inline;overflow:visible;enable-background:accumulate;font-family:Sans;-inkscape-font-specification:Sans" />
  </g>
</svg>
