<?xml version="1.0" encoding="UTF-8" standalone="no"?>
<svg
   xmlns:dc="http://purl.org/dc/elements/1.1/"
   xmlns:cc="http://creativecommons.org/ns#"
   xmlns:rdf="http://www.w3.org/1999/02/22-rdf-syntax-ns#"
   xmlns:svg="http://www.w3.org/2000/svg"
   xmlns="http://www.w3.org/2000/svg"
   xmlns:xlink="http://www.w3.org/1999/xlink"
   version="1.1"
   id="svg5400"
   height="16px"
   width="16px">
  <defs
     id="defs5402">
    <linearGradient
       id="linearGradient3904">
      <stop
         style="stop-color:#104b88;stop-opacity:1;"
         offset="0"
         id="stop3906" />
      <stop
         style="stop-color:#0e7398;stop-opacity:1;"
         offset="1"
         id="stop3908" />
    </linearGradient>
    <linearGradient
       id="linearGradient3886">
      <stop
         id="stop3888"
         offset="0"
         style="stop-color:#5097e1;stop-opacity:1;" />
      <stop
         id="stop3890"
         offset="1"
         style="stop-color:#53d0ff;stop-opacity:1" />
    </linearGradient>
    <linearGradient
       id="linearGradient3804">
      <stop
         id="stop3806"
         offset="0"
         style="stop-color:#ffffff;stop-opacity:1;" />
      <stop
         id="stop3808"
         offset="1"
         style="stop-color:#ffffff;stop-opacity:0;" />
    </linearGradient>
    <linearGradient
       id="outerBackgroundGradient-4">
      <stop
         id="stop3864-8-6-6"
         offset="0"
         style="stop-color:#f0f0f0;stop-opacity:1;" />
      <stop
         id="stop3866-9-1-7"
         offset="1"
         style="stop-color:#f9f9f9;stop-opacity:1;" />
    </linearGradient>
    <linearGradient
       y2="40.00005"
       x2="144"
       y1="280.00003"
       x1="144"
       gradientTransform="matrix(0.05555556,0,0,0.05714289,-2,-2.1428659)"
       gradientUnits="userSpaceOnUse"
       id="linearGradient3829"
       xlink:href="#outerBackgroundGradient-4" />
    <linearGradient
       y2="14"
       x2="5"
       y1="1"
       x1="5"
       gradientUnits="userSpaceOnUse"
       id="linearGradient3831"
       xlink:href="#linearGradient3804" />
    <linearGradient
       gradientTransform="translate(0.5,0.5)"
       gradientUnits="userSpaceOnUse"
       y2="9"
       x2="12"
       y1="15"
       x1="12"
       id="linearGradient3892"
       xlink:href="#linearGradient3886" />
    <linearGradient
       gradientTransform="translate(0.5,0.5)"
       gradientUnits="userSpaceOnUse"
       y2="8"
       x2="12"
       y1="16"
       x1="12"
       id="linearGradient3902"
       xlink:href="#linearGradient3904" />
  </defs>
  <metadata
     id="metadata5405">
    <rdf:RDF>
      <cc:Work
         rdf:about="">
        <dc:format>image/svg+xml</dc:format>
        <dc:type
           rdf:resource="http://purl.org/dc/dcmitype/StillImage" />
        <dc:title />
      </cc:Work>
    </rdf:RDF>
  </metadata>
  <g
     id="layer1">
    <g
       transform="translate(2,1)"
       id="g3812">
      <path
         id="path3029"
         d="M 1,1.000004 11,1 c 0,4 0,8.000001 0,12 L 1,13 z"
         style="opacity:0.41000001;color:#bebebe;fill:none;stroke:#000000;stroke-width:2;stroke-linejoin:round;stroke-miterlimit:4;stroke-opacity:1;stroke-dasharray:none;marker:none;visibility:visible;display:inline;overflow:visible;enable-background:accumulate" />
      <path
         style="color:#bebebe;fill:url(#linearGradient3829);fill-opacity:1;fill-rule:nonzero;stroke:none;stroke-width:0;marker:none;visibility:visible;display:inline;overflow:visible;enable-background:accumulate"
         d="M 1,1.000004 11,1 c 0,4 0,8.000001 0,12 L 1,13 z"
         id="rect3373-6" />
      <path
         style="color:#bebebe;fill:url(#linearGradient3831);fill-opacity:1;fill-rule:nonzero;stroke:none;stroke-width:0;marker:none;visibility:visible;display:inline;overflow:visible;enable-background:accumulate"
         d="M 1,1 1,13 11,13 11,1 1,1 z m 1,1 8,0 0,10 -8,0 0,-10 z"
         id="path3799" />
    </g>
    <path
       id="rect3881"
       d="m 11.5,9.5 0,2 -2,0 0,2 2,0 0,2 2,0 0,-2 2,0 0,-2 -2,0 0,-2 -2,0 z"
       style="fill:url(#linearGradient3892);fill-opacity:1;stroke:none" />
    <path
       style="opacity:0.81000000999999999;fill:none;stroke:url(#linearGradient3902);stroke-width:1;stroke-linejoin:miter;stroke-miterlimit:4;stroke-opacity:1;stroke-dasharray:none"
       d="m 11.5,9.5 0,2 -2,0 0,2 2,0 0,2 2,0 0,-2 2,0 0,-2 -2,0 0,-2 -2,0 z"
       id="path3894" />
    <path
       id="rect3910"
       d="M 12 10 L 12 11 L 13 11 L 13 10 L 12 10 z M 10 12 L 10 13 L 12 13 L 12 12 L 10 12 z M 13 12 L 13 13 L 15 13 L 15 12 L 13 12 z "
       style="opacity:0.1;fill:#d4f3ff;stroke:none;stroke-width:11;stroke-linecap:square;stroke-linejoin:miter;stroke-miterlimit:4;stroke-opacity:1;stroke-dasharray:none;fill-opacity:1" />
  </g>
</svg>
