<?xml version='1.0' encoding='UTF-8' standalone='no'?>
<svg height="16" xmlns:inkscape="http://www.inkscape.org/namespaces/inkscape" xmlns:sodipodi="http://sodipodi.sourceforge.net/DTD/sodipodi-0.dtd" version="1.1" width="16" xmlns="http://www.w3.org/2000/svg" enable-background="new">
 <metadata id="metadata90"/>
 <defs id="defs7386">
  <linearGradient id="linearGradient5606" osb:paint="solid">
   <stop id="stop5608"/>
  </linearGradient>
  <filter inkscape:collect="always" color-interpolation-filters="sRGB" id="filter7554">
   <feBlend inkscape:collect="always" id="feBlend7556" in2="BackgroundImage" mode="darken"/>
  </filter>
 </defs>
 <g inkscape:groupmode="layer" id="layer12" inkscape:label="actions" transform="translate(-261.0002,-90)">
  <rect height="1" id="rect5102" transform="scale(1,-1)" width="10" x="264" y="-104" fill="#bebebe"/>
  <rect height="1" id="rect5104" transform="scale(1,-1)" width="10" x="264" y="-92" fill="#bebebe"/>
  <path inkscape:connector-curvature="0" d="m 264,91.5 c 10e-6,2.55 0.37275,3.9345 1.03125,4.8125 0.48968,0.652911 1.07236,0.876936 1.625,1.1875 -0.55264,0.310564 -1.13532,0.534589 -1.625,1.1875 -0.6585,0.878 -1.03124,2.2625 -1.03125,4.8125 l 1,0 c 0,-2.45 0.37725,-3.5655 0.84375,-4.1875 0.4665,-0.622 1.1235,-0.863581 1.9375,-1.40625 a 0.50005,0.50005 0 0 0 0,-0.8125 c -0.814,-0.542669 -1.471,-0.78425 -1.9375,-1.40625 C 265.37725,95.0655 265,93.95 265,91.5 l -1,0 z" id="path5888" color="#000000" fill="#bebebe"/>
  <path inkscape:connector-curvature="0" d="m 273,91.5 c 0,2.45 -0.37725,3.5655 -0.84375,4.1875 -0.4665,0.622 -1.1235,0.863581 -1.9375,1.40625 a 0.50005,0.50005 0 0 0 0,0.8125 c 0.814,0.542669 1.471,0.78425 1.9375,1.40625 C 272.62275,99.9345 273,101.05 273,103.5 l 1,0 c -10e-6,-2.55 -0.37275,-3.9345 -1.03125,-4.8125 -0.48968,-0.652911 -1.07236,-0.876936 -1.625,-1.1875 0.55264,-0.310564 1.13532,-0.534589 1.625,-1.1875 C 273.62725,95.4345 273.99999,94.05 274,91.5 l -1,0 z" id="path5936" color="#000000" fill="#bebebe"/>
  <path inkscape:connector-curvature="0" d="m 266.6252,95 c 0.0123,0.0278 0.0186,0.0769 0.0312,0.0937 0.27067,0.36089 0.78083,0.5518 1.6875,1.15625 l 0,0.0312 0.0312,0 c 0.41523,0.29802 0.6041,0.72701 0.625,1.15625 0.0209,-0.42924 0.20977,-0.85823 0.625,-1.15625 l 0.0312,0 0,-0.0312 c 0.90667,-0.60445 1.41683,-0.79536 1.6875,-1.15625 0.0127,-0.0169 0.019,-0.066 0.0312,-0.0937 z m -0.375,7 5.5,0 c -0.12017,-0.78981 -2.5,-1.25 -2.75,-1.69426 -0.25,0.44426 -2.62983,0.90445 -2.75,1.69426 z" id="rect5938" sodipodi:nodetypes="cccccccccccccccc" fill="#bebebe"/>
 </g>
</svg>
