<?xml version="1.0" encoding="UTF-8" standalone="no"?>
<!-- Created with Inkscape (http://www.inkscape.org/) -->

<svg
   xmlns:dc="http://purl.org/dc/elements/1.1/"
   xmlns:cc="http://creativecommons.org/ns#"
   xmlns:rdf="http://www.w3.org/1999/02/22-rdf-syntax-ns#"
   xmlns:svg="http://www.w3.org/2000/svg"
   xmlns="http://www.w3.org/2000/svg"
   xmlns:xlink="http://www.w3.org/1999/xlink"
   xmlns:sodipodi="http://sodipodi.sourceforge.net/DTD/sodipodi-0.dtd"
   xmlns:inkscape="http://www.inkscape.org/namespaces/inkscape"
   width="16"
   height="16"
   id="svg3495"
   version="1.1"
   inkscape:version="0.48.4 r9939"
   sodipodi:docname="edit-flag.svg">
  <defs
     id="defs3497">
    <clipPath
       clipPathUnits="userSpaceOnUse"
       id="clipPath3669">
      <path
         inkscape:connector-curvature="0"
         d="M 0,96 96,96 96,0 0,0 0,96 z"
         id="path3671" />
    </clipPath>
    <clipPath
       clipPathUnits="userSpaceOnUse"
       id="clipPath4307">
      <path
         d="m 168,265 c -3.86599,0 -7,3.13401 -7,7 0,3.86599 3.13401,7 7,7 3.866,0 7,-3.13401 7,-7 0,-3.86599 -3.134,-7 -7,-7 z m 3.3125,3.0625 1.5625,1.40625 -5.25,6.9375 -4.0625,-3.5 1.34375,-1.78125 2.375,2.0625 4.03125,-5.125 z"
         inkscape:connector-curvature="0"
         id="path4309"
         style="color:#000000;fill:#36e12b;fill-opacity:1;fill-rule:nonzero;stroke:none;stroke-width:0.84323651;marker:none;visibility:visible;display:inline;overflow:visible;enable-background:accumulate" />
    </clipPath>
    <clipPath
       clipPathUnits="userSpaceOnUse"
       id="clipPath4201">
      <path
         sodipodi:nodetypes="sssss"
         d="m 26.5,225.59375 c -3.86599,0 -7,3.13401 -7,7 0,3.86599 3.13401,7 7,7 3.866,0 7,-3.13401 7,-7 0,-3.86599 -3.134,-7 -7,-7 z"
         inkscape:connector-curvature="0"
         id="path4203"
         style="color:#000000;fill:url(#linearGradient4205);fill-opacity:1;fill-rule:nonzero;stroke:none;stroke-width:0.84323651;marker:none;visibility:visible;display:inline;overflow:visible;enable-background:accumulate" />
    </clipPath>
    <linearGradient
       inkscape:collect="always"
       xlink:href="#linearGradient3830"
       id="linearGradient4322"
       x1="168"
       y1="280"
       x2="168"
       y2="264"
       gradientUnits="userSpaceOnUse" />
    <linearGradient
       id="linearGradient3830">
      <stop
         id="stop3832"
         offset="0"
         style="stop-color:#1b51af;stop-opacity:1;" />
      <stop
         id="stop3834"
         offset="1"
         style="stop-color:#43bcff;stop-opacity:1;" />
    </linearGradient>
    <linearGradient
       inkscape:collect="always"
       xlink:href="#linearGradient3830"
       id="linearGradient3799"
       gradientUnits="userSpaceOnUse"
       gradientTransform="matrix(0.92857143,0,0,0.92857143,-151,-218.57143)"
       x1="168"
       y1="280"
       x2="168"
       y2="264" />
    <linearGradient
       gradientTransform="translate(29.790592,21.21875)"
       inkscape:collect="always"
       xlink:href="#linearGradient3904"
       id="linearGradient4156"
       x1="8"
       y1="16"
       x2="8"
       y2="0"
       gradientUnits="userSpaceOnUse" />
    <linearGradient
       id="linearGradient3904">
      <stop
         id="stop3906"
         offset="0"
         style="stop-color:#104b88;stop-opacity:1;" />
      <stop
         id="stop3908"
         offset="1"
         style="stop-color:#0e7398;stop-opacity:1;" />
    </linearGradient>
    <linearGradient
       inkscape:collect="always"
       xlink:href="#linearGradient3886"
       id="linearGradient4148"
       gradientUnits="userSpaceOnUse"
       x1="16"
       y1="16"
       x2="16"
       y2="0" />
    <linearGradient
       inkscape:collect="always"
       id="linearGradient3886">
      <stop
         style="stop-color:#5097e1;stop-opacity:1;"
         offset="0"
         id="stop3888" />
      <stop
         style="stop-color:#53d0ff;stop-opacity:1"
         offset="1"
         id="stop3890" />
    </linearGradient>
    <linearGradient
       gradientTransform="translate(29.790592,21.21875)"
       y2="0"
       x2="16"
       y1="16"
       x1="16"
       gradientUnits="userSpaceOnUse"
       id="linearGradient3055"
       xlink:href="#linearGradient3886"
       inkscape:collect="always" />
    <linearGradient
       inkscape:collect="always"
       xlink:href="#linearGradient3760"
       id="linearGradient3852"
       gradientUnits="userSpaceOnUse"
       gradientTransform="matrix(0.92857143,0,0,-0.92857143,-148,292.57143)"
       x1="168"
       y1="280"
       x2="168"
       y2="264" />
    <linearGradient
       inkscape:collect="always"
       xlink:href="#linearGradient3760"
       id="linearGradient3788"
       gradientUnits="userSpaceOnUse"
       gradientTransform="matrix(0,1,-1,0,16,0)"
       x1="0.5"
       y1="8"
       x2="15.5"
       y2="8" />
    <linearGradient
       id="linearGradient3760">
      <stop
         style="stop-color:#e44343;stop-opacity:1;"
         offset="0"
         id="stop3762" />
      <stop
         style="stop-color:#ac0808;stop-opacity:1;"
         offset="1"
         id="stop3764" />
    </linearGradient>
    <linearGradient
       y2="8"
       x2="15.5"
       y1="8"
       x1="0.5"
       gradientTransform="matrix(0,1,-1,0,23,-43)"
       gradientUnits="userSpaceOnUse"
       id="linearGradient3023"
       xlink:href="#linearGradient3760"
       inkscape:collect="always" />
    <linearGradient
       inkscape:collect="always"
       xlink:href="#linearGradient3760"
       id="linearGradient3831"
       gradientUnits="userSpaceOnUse"
       gradientTransform="matrix(0.92857143,0,0,-0.92857143,-148,260.57143)"
       x1="168"
       y1="280"
       x2="168"
       y2="264" />
  </defs>
  <sodipodi:namedview
     id="base"
     pagecolor="#ffffff"
     bordercolor="#666666"
     borderopacity="1.0"
     inkscape:pageopacity="0"
     inkscape:pageshadow="2"
     inkscape:zoom="1"
     inkscape:cx="9.8242326"
     inkscape:cy="1.3136099"
     inkscape:current-layer="layer2"
     showgrid="false"
     showborder="false"
     inkscape:grid-bbox="true"
     inkscape:document-units="px"
     inkscape:window-width="1364"
     inkscape:window-height="700"
     inkscape:window-x="0"
     inkscape:window-y="28"
     inkscape:window-maximized="1"
     inkscape:snap-bbox="true"
     inkscape:bbox-paths="true"
     inkscape:bbox-nodes="true"
     inkscape:snap-bbox-edge-midpoints="false"
     showguides="true"
     inkscape:guide-bbox="true">
    <inkscape:grid
       type="xygrid"
       id="grid3512"
       empspacing="4"
       visible="true"
       enabled="true"
       snapvisiblegridlinesonly="true"
       dotted="false" />
  </sodipodi:namedview>
  <metadata
     id="metadata3500">
    <rdf:RDF>
      <cc:Work
         rdf:about="">
        <dc:format>image/svg+xml</dc:format>
        <dc:type
           rdf:resource="http://purl.org/dc/dcmitype/StillImage" />
        <dc:title></dc:title>
      </cc:Work>
    </rdf:RDF>
  </metadata>
  <g
     id="layer1"
     inkscape:label="Background"
     inkscape:groupmode="layer"
     transform="translate(0,-32)">
    <path
       style="color:#000000;fill:url(#linearGradient3852);fill-opacity:1;fill-rule:nonzero;stroke:none;stroke-width:0.84323651;marker:none;visibility:visible;display:inline;overflow:visible;enable-background:accumulate"
       id="path2922-6-6-0"
       inkscape:connector-curvature="0"
       d="m 8,46.5 c -3.5898479,0 -6.5,-2.910152 -6.5,-6.5 0,-3.589848 2.9101521,-6.5 6.5,-6.5 3.589857,0 6.5,2.910152 6.5,6.5 0,3.589848 -2.910143,6.5 -6.5,6.5 z"
       sodipodi:nodetypes="sssss" />
    <path
       transform="matrix(0,-1,-1,0,280,208)"
       d="m 168,265 c -3.86599,0 -7,3.13401 -7,7 0,3.86599 3.13401,7 7,7 3.866,0 7,-3.13401 7,-7 0,-3.86599 -3.134,-7 -7,-7 z"
       inkscape:connector-curvature="0"
       id="path4303"
       style="opacity:0.81000000000000005;color:#000000;fill:none;stroke:#790000;stroke-width:2;stroke-miterlimit:4;stroke-opacity:1;stroke-dasharray:none;marker:none;visibility:visible;display:inline;overflow:visible;enable-background:accumulate"
       clip-path="url(#clipPath4307)"
       sodipodi:nodetypes="sssss" />
    <path
       id="path3837"
       d="M 8,47 C 4.67445,47 2,44.32556 2,41 2,40.875084 2.0238103,40.747971 2.03125,40.625 2.3372524,43.659 4.8822969,46 8,46 11.117703,46 13.662748,43.659 13.96875,40.625 13.97619,40.747971 14,40.875084 14,41 c 0,3.32556 -2.67445,6 -6,6 z"
       style="opacity:0.2;color:#000000;fill:#000000;fill-opacity:1;fill-rule:nonzero;stroke:none;stroke-width:0.84323650999999999;marker:none;visibility:visible;display:inline;overflow:visible;enable-background:accumulate"
       inkscape:connector-curvature="0" />
    <path
       style="color:#000000;fill:#ffffff;fill-opacity:1;fill-rule:nonzero;stroke:none;stroke-width:0.84323650999999999;marker:none;visibility:visible;display:inline;overflow:visible;enable-background:accumulate;opacity:0.4"
       d="M 8 2 C 4.67445 2 2 4.67444 2 8 C 2 8.1249155 2.0238103 8.2520291 2.03125 8.375 C 2.3372524 5.3410002 4.8822969 3 8 3 C 11.117703 3 13.662748 5.3410002 13.96875 8.375 C 13.97619 8.2520291 14 8.1249155 14 8 C 14 4.67444 11.32555 2 8 2 z "
       transform="translate(0,32)"
       id="path3822" />
  </g>
  <g
     inkscape:groupmode="layer"
     id="layer2"
     inkscape:label="Symbol"
     style="display:inline">
    <path
       transform="translate(0,-32)"
       sodipodi:nodetypes="cscccscscccscscccscscccsc"
       inkscape:connector-curvature="0"
       id="path3820"
       d="m 5,36 0,1 c 0,0.27614 0.100286,0.53778 0.28125,0.71875 L 6.562503,39 5.28125,40.28125 C 5.100286,40.46222 5.0833356,40.736735 5,41 l 0,1 1,0 c 0.276142,0 0.537786,-0.10028 0.71875,-0.28125 L 8.000003,40.4375 9.28125,41.71875 C 9.462214,41.89972 9.7356512,41.920162 10,42 l 1,0 0,-1 c 0,-0.27614 -0.100286,-0.53778 -0.28125,-0.71875 L 9.437503,39 10.71875,37.71875 C 10.899714,37.53778 10.978919,37.275334 11,37 l 0,-1 -1,0 C 9.723858,36 9.462214,36.10028 9.28125,36.28125 L 8.000003,37.5625 6.71875,36.28125 C 6.537786,36.10028 6.2737283,36.036431 6,36 z"
       style="opacity:0.3;color:#000000;fill:#000000;fill-opacity:1;fill-rule:nonzero;stroke:none;stroke-width:2;marker:none;visibility:visible;display:inline;overflow:visible;enable-background:new" />
    <path
       transform="translate(0,-32)"
       style="color:#000000;fill:#ffffff;fill-opacity:1;fill-rule:nonzero;stroke:none;stroke-width:2;marker:none;visibility:visible;display:inline;overflow:visible;enable-background:new"
       d="m 5,37 0,1 c 0,0.27614 0.100286,0.53778 0.28125,0.71875 L 6.562503,40 5.28125,41.28125 C 5.100286,41.46222 5.0833356,41.736735 5,42 l 0,1 1,0 c 0.276142,0 0.537786,-0.10028 0.71875,-0.28125 L 8.000003,41.4375 9.28125,42.71875 C 9.462214,42.89972 9.7356512,42.920162 10,43 l 1,0 0,-1 c 0,-0.27614 -0.100286,-0.53778 -0.28125,-0.71875 L 9.437503,40 10.71875,38.71875 C 10.899714,38.53778 10.978919,38.275334 11,38 l 0,-1 -1,0 C 9.723858,37 9.462214,37.10028 9.28125,37.28125 L 8.000003,38.5625 6.71875,37.28125 C 6.537786,37.10028 6.2737283,37.036431 6,37 z"
       id="path5757"
       inkscape:connector-curvature="0"
       sodipodi:nodetypes="cscccscscccscscccscscccsc" />
  </g>
</svg>
