<?xml version='1.0' encoding='UTF-8' standalone='no'?>
<svg height="16" xmlns:inkscape="http://www.inkscape.org/namespaces/inkscape" xmlns:sodipodi="http://sodipodi.sourceforge.net/DTD/sodipodi-0.dtd" version="1.1" width="16" xmlns="http://www.w3.org/2000/svg" enable-background="new">
 <metadata id="metadata90"/>
 <defs id="defs7386">
  <linearGradient id="linearGradient5606" osb:paint="solid">
   <stop id="stop5608"/>
  </linearGradient>
  <filter inkscape:collect="always" color-interpolation-filters="sRGB" id="filter7554">
   <feBlend inkscape:collect="always" id="feBlend7556" in2="BackgroundImage" mode="darken"/>
  </filter>
 </defs>
 <g inkscape:groupmode="layer" id="layer12" inkscape:label="actions" transform="translate(-301.00021,-29)">
  <path inkscape:connector-curvature="0" d="m 309.0002,29 c -1.10457,0 -2,0.89543 -2,2 l -4,0 0,10 0,3 1.65625,0 10.34375,0 0,-13 -4,0 c 0,-0.13807 -0.005,-0.27605 -0.0312,-0.40625 C 310.78246,29.68238 309.9667,29 309.0002,29 z m 0,1 c 0.41421,0 0.75444,0.26608 0.90625,0.625 0.0506,0.11964 0.0937,0.23693 0.0937,0.375 0,0.55228 -0.44771,1 -1,1 -0.55229,0 -1,-0.44772 -1,-1 0,-0.55228 0.44771,-1 1,-1 z m -5,2 3,0 0,1 0,0 c 0,0 -1,0 -1,1 l 1,0 4,0 1,0 c 0,-0.75 -0.5625,-0.95312 -0.84375,-1 l -0.15625,0 0,0 0,-1 2,0 1,0 0,2 0,6 0,3 -8,0 -1,0 -1,0 0,-10 0,-0.5 z" id="path3810" sodipodi:nodetypes="scccccccccsscssssccccccccccccccccccccccc" fill="#bebebe" color="#000000" stroke-width="4"/>
 </g>
</svg>
