<?xml version="1.0" encoding="UTF-8" standalone="no"?>
<svg
   xmlns:dc="http://purl.org/dc/elements/1.1/"
   xmlns:cc="http://creativecommons.org/ns#"
   xmlns:rdf="http://www.w3.org/1999/02/22-rdf-syntax-ns#"
   xmlns:svg="http://www.w3.org/2000/svg"
   xmlns="http://www.w3.org/2000/svg"
   xmlns:xlink="http://www.w3.org/1999/xlink"
   width="16px"
   height="16px"
   id="svg5400"
   version="1.1">
  <defs
     id="defs5402">
    <linearGradient
       id="linearGradient3821">
      <stop
         style="stop-color:#555555;stop-opacity:1;"
         offset="0"
         id="stop3823" />
      <stop
         style="stop-color:#666666;stop-opacity:1;"
         offset="1"
         id="stop3825" />
    </linearGradient>
    <linearGradient
       xlink:href="#linearGradient3821"
       id="linearGradient3827"
       x1="8"
       y1="16"
       x2="8"
       y2="0"
       gradientUnits="userSpaceOnUse" />
  </defs>
  <metadata
     id="metadata5405">
    <rdf:RDF>
      <cc:Work
         rdf:about="">
        <dc:format>image/svg+xml</dc:format>
        <dc:type
           rdf:resource="http://purl.org/dc/dcmitype/StillImage" />
        <dc:title />
      </cc:Work>
    </rdf:RDF>
  </metadata>
  <g
     id="layer1">
    <path
       style="font-size:medium;font-style:normal;font-variant:normal;font-weight:normal;font-stretch:normal;text-indent:0;text-align:start;text-decoration:none;line-height:normal;letter-spacing:normal;word-spacing:normal;text-transform:none;direction:ltr;block-progression:tb;writing-mode:lr-tb;text-anchor:start;baseline-shift:baseline;color:#bebebe;fill:url(#linearGradient3827);fill-opacity:1;stroke:none;stroke-width:1;marker:none;visibility:visible;display:inline;overflow:visible;enable-background:accumulate;font-family:Sans;-inkscape-font-specification:Sans"
       d="m 8.5,1.125 0.75,0.4375 5,3 L 14.96875,5 14.25,5.4375 l -5,3 L 8.5,8.875 8.5,8 8.5,6.5 6,6.5 C 4.582853,6.5 3.5,7.5828529 3.5,9 c 0,1.417087 1.094386,2.526739 2.5,2.5 l 5,0 0.5,0 0,0.5 0,2 0,0.5 -0.5,0 -5,0 C 2.975167,14.5 0.5,12.024833 0.5,9 0.5,5.9749814 2.965954,3.6002901 5.96875,3.5 L 6,3.5 l 2.5,0 0,-1.5 0,-0.875 z"
       id="path3812" />
    <path
       style="font-style:normal;font-variant:normal;font-weight:normal;font-stretch:normal;text-indent:0;text-align:start;text-decoration:none;line-height:normal;letter-spacing:normal;word-spacing:normal;text-transform:none;direction:ltr;block-progression:tb;writing-mode:lr-tb;text-anchor:start;baseline-shift:baseline;opacity:0.2;color:#bebebe;fill:#ffffff;fill-opacity:1;stroke:none;stroke-width:2;marker:none;visibility:visible;display:inline;overflow:visible;enable-background:accumulate;font-family:Sans;-inkscape-font-specification:Sans"
       d="M 9,2 14,5 13.15625,5.5 9,3 9,2 z M 9,4 9,5 6,5 C 3.420782,5.086143 1.288389,6.9947077 1.03125,9.5 1.014118,9.33233 1,9.1720438 1,9 1,6.2473 3.248834,4.0918859 6,4 L 9,4 z M 3.0625,9.5 C 3.292096,10.94246 4.489319,12.028737 6,12 l 5,0 0,1 -5,0 C 4.321004,13.03194 3,11.6793 3,10 3,9.8316543 3.036924,9.6601689 3.0625,9.5 z"
       id="path4400" />
    <path
       id="path3832"
       d="m 8.5,1.125 0.75,0.4375 5,3 L 14.96875,5 14.25,5.4375 l -5,3 L 8.5,8.875 8.5,8 8.5,6.5 6,6.5 C 4.582853,6.5 3.5,7.5828529 3.5,9 c 0,1.417087 1.094386,2.526739 2.5,2.5 l 5,0 0.5,0 0,0.5 0,2 0,0.5 -0.5,0 -5,0 C 2.975167,14.5 0.5,12.024833 0.5,9 0.5,5.9749814 2.965954,3.6002901 5.96875,3.5 L 6,3.5 l 2.5,0 0,-1.5 0,-0.875 z"
       style="font-size:medium;font-style:normal;font-variant:normal;font-weight:normal;font-stretch:normal;text-indent:0;text-align:start;text-decoration:none;line-height:normal;letter-spacing:normal;word-spacing:normal;text-transform:none;direction:ltr;block-progression:tb;writing-mode:lr-tb;text-anchor:start;baseline-shift:baseline;opacity:0.61000001;color:#bebebe;fill:none;stroke:#000000;stroke-width:1;stroke-opacity:1;marker:none;visibility:visible;display:inline;overflow:visible;enable-background:accumulate;font-family:Sans;-inkscape-font-specification:Sans" />
  </g>
</svg>
