<?xml version='1.0' encoding='UTF-8' standalone='no'?>
<svg height="16" xmlns:inkscape="http://www.inkscape.org/namespaces/inkscape" xmlns:sodipodi="http://sodipodi.sourceforge.net/DTD/sodipodi-0.dtd" version="1.1" width="16" xmlns="http://www.w3.org/2000/svg" enable-background="new">
 <metadata id="metadata90"/>
 <defs id="defs7386">
  <linearGradient id="linearGradient5606" osb:paint="solid">
   <stop id="stop5608"/>
  </linearGradient>
  <filter inkscape:collect="always" color-interpolation-filters="sRGB" id="filter7554">
   <feBlend inkscape:collect="always" id="feBlend7556" in2="BackgroundImage" mode="darken"/>
  </filter>
 </defs>
 <g inkscape:groupmode="layer" id="layer12" inkscape:label="actions" transform="translate(-401.0002,-49)">
  <path inkscape:connector-curvature="0" d="m 408.0002,49 0,2.09375 c -2.51857,0.41924 -4.48701,2.38768 -4.90625,4.90625 l -2.09375,0 0,2 2.09375,0 c 0.41924,2.51857 2.38768,4.48701 4.90625,4.90625 l 0,2.09375 2,0 0,-2.09375 c 2.51857,-0.41924 4.48701,-2.38768 4.90625,-4.90625 l 2.09375,0 0,-2 -2.09375,0 c -0.41924,-2.51857 -2.38768,-4.48701 -4.90625,-4.90625 l 0,-2.09375 -2,0 z m 1,4 c 2.20914,0 4,1.79086 4,4 0,2.20914 -1.79086,4 -4,4 -2.20914,0 -4,-1.79086 -4,-4 0,-2.20914 1.79086,-4 4,-4 z" id="rect5928" fill="#bebebe" color="#000000" stroke-width="2"/>
  <path inkscape:connector-curvature="0" d="m 409.0002,55 c 1.10457,0 2,0.89543 2,2 0,1.10457 -0.89543,2 -2,2 -1.10457,0 -2,-0.89543 -2,-2 0,-1.10457 0.89543,-2 2,-2 z" id="path5428" sodipodi:nodetypes="sssss" fill="#bebebe" color="#000000" stroke-width="2"/>
 </g>
</svg>
