<?xml version='1.0' encoding='UTF-8' standalone='no'?>
<svg height="16.01" xmlns:inkscape="http://www.inkscape.org/namespaces/inkscape" xmlns:sodipodi="http://sodipodi.sourceforge.net/DTD/sodipodi-0.dtd" version="1.1" width="16" xmlns="http://www.w3.org/2000/svg" enable-background="new">
 <metadata id="metadata90"/>
 <defs id="defs7386">
  <linearGradient id="linearGradient5606" osb:paint="solid">
   <stop id="stop5608"/>
  </linearGradient>
  <filter inkscape:collect="always" color-interpolation-filters="sRGB" id="filter7554">
   <feBlend inkscape:collect="always" id="feBlend7556" in2="BackgroundImage" mode="darken"/>
  </filter>
 </defs>
 <g inkscape:groupmode="layer" id="layer12" inkscape:label="actions" transform="translate(-442.00024,-47.993286)">
  <path inkscape:connector-curvature="0" d="m 443.0002,49 0,0.40625 a 0.50005,0.50005 0 0 0 0,0.0937 l 0,0.5 0,0.5 0,1 0,1.5 0,0.5 0,0.5 0,7 c 0,0.83333 0.57399,1.50574 1.0625,1.75 C 444.55121,62.99436 445.0002,63 445.0002,63 l 6,0 0,-1 -6,0 c 0,0 -0.22511,-0.0188 -0.5,-0.15625 -0.11216,-0.05608 -0.5,-0.46961 -0.5,-0.84375 l 0,-7 12,0 0,3 1,0 0,-4 0,-0.5 0,-0.5 0,-0.5 a 0.50005,0.50005 0 0 0 0,-0.0937 l 0,-0.4063 -0.40625,0 -0.0937,0 -0.5,0 -4.5,0 c -0.26389,0 -0.42709,-0.0542 -0.59375,-0.1875 -0.16666,-0.13333 -0.3125,-0.375 -0.5,-0.625 -0.1875,-0.25 -0.41666,-0.50833 -0.71875,-0.75 C 449.38556,49.19583 448.98631,49 448.5002,49 l -4.5,0 -0.65625,0 -0.34375,0 z m 1,1 4.5,0 c 0.26389,0 0.42709,0.0542 0.59375,0.1875 0.16666,0.13333 0.3125,0.375 0.5,0.625 0.1875,0.25 0.41666,0.50833 0.71875,0.75 0.30209,0.24167 0.70139,0.4375 1.1875,0.4375 l 4.5,0 0,0.5 0,0.5 -12,0 0,-1.5 0,-1 0,-0.5 z" id="path5144-0" color="#000000" stroke-width="2" fill="#bebebe"/>
  <path inkscape:connector-curvature="0" d="m 454.0002,58 0,2 -2,0 0,2 2,0 0,2 2,0 0,-2 2,0 0,-2 -2,0 0,-2 -2,0 z" id="rect5887-6" fill="#bebebe"/>
 </g>
</svg>
