<?xml version="1.0" encoding="UTF-8" standalone="no"?>
<svg xmlns="http://www.w3.org/2000/svg" xmlns:xlink="http://www.w3.org/1999/xlink" xmlns:sodipodi="http://sodipodi.sourceforge.net/DTD/sodipodi-0.dtd" xmlns:inkscape="http://www.inkscape.org/namespaces/inkscape" width="16" height="16" version="1.1">
 <defs id="defs5402">
  <clipPath id="clipPath11908-0">
   <path id="path11910-2" d="m 432,129 0,1 0,3 0,2 0,7.5 c 0,0 0,1.5 1.5,1.5 l 13,0 c 0,0 1.5,0 1.5,-1.5 l 0,-7.5 0,-2 0,-1 0,-1 -1,0 -5,0 c -0.66667,0 -0.78125,-0.21875 -1.28125,-0.71875 C 440.21875,129.78125 439.33333,129 438,129 l -5,0 -1,0 z"/>
  </clipPath>
  <linearGradient y2="136" x2="0" y1="129" gradientUnits="userSpaceOnUse" id="linearGradient5379" xlink:href="#linearGradient11342-5" inkscape:collect="always"/>
  <linearGradient id="linearGradient11342-5">
   <stop id="stop11344-0" stop-color="#ffffff"/>
   <stop offset="1" id="stop11346-0" stop-color="#ffffff" stop-opacity="0"/>
  </linearGradient>
  <clipPath id="clipPath11561-9">
   <path d="m 432,128.99972 16,0 0,9.5 c 0,1.5 -1.5,1.5 -1.5,1.5 l -13,0 c -1.5,0 -1.5002,-1.5 -1.5002,-1.5 z" id="path11563-7"/>
  </clipPath>
  <linearGradient inkscape:collect="always" xlink:href="#linearGradient4968" id="linearGradient11891-1" gradientUnits="userSpaceOnUse" gradientTransform="matrix(0.38091417,0,0,0.38091417,-116.93905,-87.847007)" y1="228" x2="0" y2="276"/>
  <linearGradient id="linearGradient4968">
   <stop id="stop4970" stop-color="#f1e6f4"/>
   <stop offset="1" id="stop4972" stop-color="#c9bcce"/>
  </linearGradient>
  <linearGradient gradientTransform="translate(-432,-124)" y2="131" x2="0" y1="127" gradientUnits="userSpaceOnUse" id="linearGradient5325" xlink:href="#linearGradient11359" inkscape:collect="always"/>
  <linearGradient id="linearGradient11359">
   <stop id="stop11361" stop-color="#d5cbd7"/>
   <stop offset="1" id="stop11363" stop-color="#d9bfdf"/>
  </linearGradient>
  <linearGradient inkscape:collect="always" xlink:href="#linearGradient11359" id="linearGradient7396" gradientUnits="userSpaceOnUse" gradientTransform="translate(-432,-125)" y1="127" x2="0" y2="131"/>
  <linearGradient inkscape:collect="always" xlink:href="#linearGradient4968" id="linearGradient7398" gradientUnits="userSpaceOnUse" gradientTransform="matrix(0.38091417,0,0,0.38091417,-116.93905,-88.84701)" y1="228" x2="0" y2="276"/>
  <linearGradient inkscape:collect="always" xlink:href="#linearGradient3904" id="linearGradient3902" y1="16" x2="0" y2="8" gradientUnits="userSpaceOnUse" gradientTransform="translate(0.5,0.5)"/>
  <linearGradient id="linearGradient3904">
   <stop id="stop3906" stop-color="#104b88"/>
   <stop id="stop3908" offset="1" stop-color="#0e7398"/>
  </linearGradient>
  <linearGradient y2="9" x2="0" y1="15" gradientTransform="translate(0.5,0.5)" gradientUnits="userSpaceOnUse" id="linearGradient3059" xlink:href="#linearGradient3886" inkscape:collect="always"/>
  <linearGradient inkscape:collect="always" id="linearGradient3886">
   <stop id="stop3888" stop-color="#5097e1"/>
   <stop offset="1" id="stop3890" stop-color="#53d0ff"/>
  </linearGradient>
 </defs>
 <metadata id="metadata5405"/>
 <g id="layer1" inkscape:label="Layer 1" inkscape:groupmode="layer">
  <path inkscape:connector-curvature="0" id="path4938-1" d="m 0.50000014,0.49972 0,0.5 0,4.5 14.99999986,0 0,-2.5 0,-0.5 -0.5,0 -5,0 c -0.3880199,0 -0.7106699,-0.0767 -0.9687499,-0.25 -0.25808,-0.17334 -0.41853,-0.38728 -0.65625,-0.625 -0.47545,-0.47545 -1.23698,-1.125 -2.375,-1.125 l -5,0 -0.49999996,0 z" color="#000000" stroke-width="2" fill="url(#linearGradient7396)"/>
  <path inkscape:connector-curvature="0" id="path11441" d="m 0.50000014,4.49972 0,9 c 0,0 -0.003,0.27549 0.125,0.53125 0.12792,0.25576 0.29167,0.46875 0.87499996,0.46875 l 12.9999999,0 c 0,0 0.27551,0.003 0.53125,-0.125 C 15.28699,14.24685 15.5,14.08305 15.5,13.49972 l 0,-9 -14.99999986,0 z" color="#000000" stroke-width="2" fill="url(#linearGradient7398)"/>
  <rect y="4" x="1" height="1" width="14" id="rect11912" opacity="0.41" color="#000000"/>
  <path transform="translate(-432,-129.00028)" inkscape:connector-curvature="0" clip-path="url(#clipPath11908-0)" d="m 432,129 0,1 0,3 0,2 0,7.5 c 0,0 0,1.5 1.5,1.5 l 13,0 c 0,0 1.5,0 1.5,-1.5 l 0,-7.5 0,-2 0,-1 0,-1 -1,0 -5,0 c -0.66667,0 -0.78125,-0.21875 -1.28125,-0.71875 C 440.21875,129.78125 439.33333,129 438,129 l -5,0 -1,0 z" id="path11904" opacity="0.41" color="#000000" stroke-width="2" fill="none" stroke="#000000"/>
  <path inkscape:connector-curvature="0" d="M 1,5 1,6 15,6 15,5 1,5 z" id="path7434" opacity="0.1" color="#000000" stroke-width="2" fill="#ffffff"/>
  <path d="m 11.5,9.5 0,2 -2,0 0,2 2,0 0,2 2,0 0,-2 2,0 0,-2 -2,0 0,-2 -2,0 z" id="rect3881" inkscape:connector-curvature="0" fill="url(#linearGradient3059)"/>
  <path inkscape:connector-curvature="0" id="path3894" d="m 11.5,9.5 0,2 -2,0 0,2 2,0 0,2 2,0 0,-2 2,0 0,-2 -2,0 0,-2 -2,0 z" opacity="0.81" fill="none" stroke="url(#linearGradient3902)"/>
  <path inkscape:connector-curvature="0" d="m 12,10 0,1 1,0 0,-1 -1,0 z m -2,2 0,1 2,0 0,-1 -2,0 z m 3,0 0,1 2,0 0,-1 -2,0 z" id="rect3910" opacity="0.1" fill="#d4f3ff"/>
 </g>
</svg>
