<?xml version="1.0" encoding="UTF-8" standalone="no"?>
<svg
   xmlns:osb="http://www.openswatchbook.org/uri/2009/osb"
   xmlns:dc="http://purl.org/dc/elements/1.1/"
   xmlns:cc="http://creativecommons.org/ns#"
   xmlns:rdf="http://www.w3.org/1999/02/22-rdf-syntax-ns#"
   xmlns:svg="http://www.w3.org/2000/svg"
   xmlns="http://www.w3.org/2000/svg"
   xmlns:xlink="http://www.w3.org/1999/xlink"
   xmlns:sodipodi="http://sodipodi.sourceforge.net/DTD/sodipodi-0.dtd"
   xmlns:inkscape="http://www.inkscape.org/namespaces/inkscape"
   height="16"
   version="1.1"
   width="16"
   enable-background="new"
   id="svg2"
   inkscape:version="0.48.4 r9939"
   sodipodi:docname="format-text-bold-symbolic.svg">
  <sodipodi:namedview
     pagecolor="#ffffff"
     bordercolor="#666666"
     borderopacity="1"
     objecttolerance="10"
     gridtolerance="10"
     guidetolerance="10"
     inkscape:pageopacity="0"
     inkscape:pageshadow="2"
     inkscape:window-width="1364"
     inkscape:window-height="700"
     id="namedview12"
     showgrid="false"
     inkscape:zoom="1"
     inkscape:cx="13.523321"
     inkscape:cy="11.214651"
     inkscape:window-x="0"
     inkscape:window-y="28"
     inkscape:window-maximized="1"
     inkscape:current-layer="layer12">
    <inkscape:grid
       type="xygrid"
       id="grid3804" />
  </sodipodi:namedview>
  <metadata
     id="metadata90">
    <rdf:RDF>
      <cc:Work
         rdf:about="">
        <dc:format>image/svg+xml</dc:format>
        <dc:type
           rdf:resource="http://purl.org/dc/dcmitype/StillImage" />
        <dc:title></dc:title>
      </cc:Work>
    </rdf:RDF>
  </metadata>
  <defs
     id="defs7386">
    <linearGradient
       id="linearGradient3796">
      <stop
         style="stop-color:#555555;stop-opacity:1;"
         offset="0"
         id="stop3798" />
      <stop
         style="stop-color:#666666;stop-opacity:1;"
         offset="1"
         id="stop3800" />
    </linearGradient>
    <linearGradient
       id="linearGradient5606"
       osb:paint="solid">
      <stop
         id="stop5608" />
    </linearGradient>
    <linearGradient
       inkscape:collect="always"
       xlink:href="#linearGradient3796"
       id="linearGradient3802"
       x1="9"
       y1="16"
       x2="9"
       y2="0"
       gradientUnits="userSpaceOnUse" />
    <linearGradient
       inkscape:collect="always"
       xlink:href="#linearGradient3796"
       id="linearGradient3832"
       gradientUnits="userSpaceOnUse"
       x1="9"
       y1="16"
       x2="9"
       y2="0"
       gradientTransform="translate(381.00061,69)" />
    <linearGradient
       inkscape:collect="always"
       xlink:href="#linearGradient3796"
       id="linearGradient3852"
       gradientUnits="userSpaceOnUse"
       x1="9"
       y1="16"
       x2="9"
       y2="0" />
  </defs>
  <g
     inkscape:groupmode="layer"
     id="layer12"
     inkscape:label="actions"
     transform="translate(-381.00061,-69)">
    <path
       style="fill:url(#linearGradient3832);fill-opacity:1"
       d="m 384.50061,71.5 0,0.5 0,2 0,0.5 0.5,0 1,0 4,0 c -0.025,0 0.17547,0.07803 0.3125,0.21875 0.13703,0.14072 0.1875,0.335318 0.1875,0.28125 l 0,0.5 -2.5,0 -2,0 c -1.0585,0 -2.00902,0.424732 -2.625,1.125 -0.59855,0.680457 -0.88241,1.53948 -0.875,2.375 0.007,0.83941 0.31143,1.703294 0.90625,2.375 0.60922,0.687962 1.54227,1.125 2.59375,1.125 l 8,0 c 0,0 0.34949,-0.0029 0.71875,-0.1875 0.36926,-0.184628 0.78125,-0.645833 0.78125,-1.3125 l 0,-6 c 0,-1.903521 -1.54887,-3.5 -3.5,-3.5 l -2,0 -4,0 -1,0 -0.5,0 z m 3.5,7 2.5,0 0,1 -2.5,0 c -0.30589,0 -0.24379,-0.01212 -0.34375,-0.125 -0.0722,-0.08147 -0.15509,-0.244207 -0.15625,-0.375 -10e-4,-0.149778 0.0807,-0.324659 0.125,-0.375 0.0851,-0.09669 0.0442,-0.125 0.375,-0.125 z"
       id="path11643-3-1"
       inkscape:connector-curvature="0" />
    <path
       inkscape:connector-curvature="0"
       id="path3834"
       d="m 384.50061,71.5 0,0.5 0,2 0,0.5 0.5,0 1,0 4,0 c -0.025,0 0.17547,0.07803 0.3125,0.21875 0.13703,0.14072 0.1875,0.335318 0.1875,0.28125 l 0,0.5 -2.5,0 -2,0 c -1.0585,0 -2.00902,0.424732 -2.625,1.125 -0.59855,0.680457 -0.88241,1.53948 -0.875,2.375 0.007,0.83941 0.31143,1.703294 0.90625,2.375 0.60922,0.687962 1.54227,1.125 2.59375,1.125 l 8,0 c 0,0 0.34949,-0.0029 0.71875,-0.1875 0.36926,-0.184628 0.78125,-0.645833 0.78125,-1.3125 l 0,-6 c 0,-1.903521 -1.54887,-3.5 -3.5,-3.5 l -2,0 -4,0 -1,0 -0.5,0 z m 3.5,7 2.5,0 0,1 -2.5,0 c -0.30589,0 -0.24379,-0.01212 -0.34375,-0.125 -0.0722,-0.08147 -0.15509,-0.244207 -0.15625,-0.375 -10e-4,-0.149778 0.0807,-0.324659 0.125,-0.375 0.0851,-0.09669 0.0442,-0.125 0.375,-0.125 z"
       style="fill:none;fill-opacity:1;stroke:#000000;stroke-opacity:1;opacity:0.61" />
    <path
       style="fill:#ffffff;fill-opacity:1;opacity:0.2"
       d="M 4 3 L 4 4 L 5 4 L 9 4 L 11 4 C 12.67839 4 14 5.367708 14 7 L 14 6 C 14 4.367708 12.67839 3 11 3 L 9 3 L 5 3 L 4 3 z M 5 7 C 4.07525 7 3.26373 7.384729 2.75 7.96875 C 2.2375 8.551379 1.994 9.280753 2 10 C 2.0011557 10.138493 2.0423337 10.268033 2.0625 10.40625 C 2.1601223 9.8939642 2.3815386 9.3876306 2.75 8.96875 C 3.26373 8.384729 4.07525 8 5 8 L 7 8 L 9.5 8 L 10 8 L 10 7.5 L 10 7.03125 C 10.002 7.01111 10 7.01141 10 7 L 9.5 7 L 7 7 L 5 7 z M 6.125 10.46875 C 6.1064268 10.505622 6.0782912 10.551752 6.0625 10.59375 C 6.0212 10.703591 5.999 10.832906 6 11 C 6.003 11.33834 6.11583 11.532094 6.28125 11.71875 C 6.28615 11.72445 6.2853 11.71425 6.3125 11.75 C 6.3399 11.78578 6.42198 11.8843 6.53125 11.9375 C 6.7498 12.0439 6.84045 12 7 12 L 9.5 12 L 10 12 L 10 11.5 L 10 11 L 9.5 11 L 7 11 C 6.84045 11 6.7498 11.043899 6.53125 10.9375 C 6.42198 10.8843 6.3399 10.78578 6.3125 10.75 C 6.2853 10.71425 6.28625 10.72445 6.28125 10.71875 C 6.2143522 10.643264 6.1709098 10.555651 6.125 10.46875 z "
       transform="translate(381.00061,69)"
       id="path3850" />
  </g>
</svg>
