<?xml version='1.0' encoding='UTF-8' standalone='no'?>
<svg height="16" xmlns:inkscape="http://www.inkscape.org/namespaces/inkscape" xmlns:sodipodi="http://sodipodi.sourceforge.net/DTD/sodipodi-0.dtd" version="1.1" width="16" xmlns="http://www.w3.org/2000/svg" enable-background="new">
 <metadata id="metadata90"/>
 <defs id="defs7386">
  <linearGradient id="linearGradient5606" osb:paint="solid">
   <stop id="stop5608"/>
  </linearGradient>
  <filter inkscape:collect="always" color-interpolation-filters="sRGB" id="filter7554">
   <feBlend inkscape:collect="always" id="feBlend7556" in2="BackgroundImage" mode="darken"/>
  </filter>
 </defs>
 <g inkscape:groupmode="layer" id="layer12" inkscape:label="actions" transform="translate(-381.00061,-69)">
  <path inkscape:connector-curvature="0" d="m 385.00021,72 0,2 1,0 4,0 c 0.42816,0 1,0.61414 1,1 l 0,1 -3,0 -2,0 c -0.91927,0 -1.7356,0.38396 -2.25,0.96875 -0.5144,0.58479 -0.75639,1.31063 -0.75,2.03125 0.006,0.72062 0.26893,1.45271 0.78125,2.03125 C 384.29378,81.60979 385.09193,82 386.00021,82 l 8,0 c 0,0 1,0 1,-1 l 0,-6 c 0,-1.63434 -1.3198,-3 -3,-3 l -2,0 -4,0 z m 3,6 3,0 0,2 -3,0 c -0.39787,0 -0.56691,-0.10979 -0.71875,-0.28125 -0.15184,-0.17146 -0.27877,-0.43937 -0.28125,-0.71875 -0.002,-0.27938 0.10467,-0.55354 0.25,-0.71875 C 387.39554,78.11604 387.57785,78 388.00021,78 z" id="path11643-3-1" sodipodi:nodetypes="cccssccsscssccsscccsccsscss" color="#000000" stroke-width="2" fill="#bbbbbb"/>
 </g>
</svg>
