<?xml version="1.0" encoding="UTF-8" standalone="no"?>
<svg xmlns="http://www.w3.org/2000/svg" xmlns:xlink="http://www.w3.org/1999/xlink" xmlns:sodipodi="http://sodipodi.sourceforge.net/DTD/sodipodi-0.dtd" xmlns:inkscape="http://www.inkscape.org/namespaces/inkscape" width="16" height="16" version="1.1">
 <defs id="defs5402">
  <linearGradient id="linearGradient3821">
   <stop id="stop3823" stop-color="#555555"/>
   <stop offset="1" id="stop3825" stop-color="#666666"/>
  </linearGradient>
  <linearGradient inkscape:collect="always" xlink:href="#linearGradient3821" id="linearGradient4621" gradientUnits="userSpaceOnUse" y1="16" x2="0" y2="0" gradientTransform="translate(1,2)"/>
  <linearGradient inkscape:collect="always" xlink:href="#linearGradient3821" id="linearGradient4645" gradientUnits="userSpaceOnUse" y1="16" x2="0" y2="0"/>
 </defs>
 <metadata id="metadata5405"/>
 <g id="layer1" inkscape:label="Layer 1" inkscape:groupmode="layer">
  <path d="m 3,6.5 -0.5,0 0,0.5 0,1 0,0.5 0.5,0 c 0,0 4.996916,0 10,0 l 0.5,0 0,-0.5 0,-1 0,-0.5 -0.5,0 c 0,0 -4.996916,0 -10,0 z" id="path4545" inkscape:connector-curvature="0" sodipodi:nodetypes="ccccccccccccc" color="#bebebe" fill="url(#linearGradient4621)"/>
  <path d="M 7,7 7,7.5 7,7.5 7,7 z M 3,7 3,7.5 7,7.5 7,7 z m 4,0 0,0.5 6,0 0,-0.5 z" id="rect31992" inkscape:connector-curvature="0" sodipodi:nodetypes="ccccccccccccccc" opacity="0.2" fill="#bebebe" color="#bebebe"/>
  <path sodipodi:nodetypes="ccccccccccccc" inkscape:connector-curvature="0" id="path4559" d="m 3,6.5 -0.5,0 0,0.5 0,1 0,0.5 0.5,0 c 0,0 4.996916,0 10,0 l 0.5,0 0,-0.5 0,-1 0,-0.5 -0.5,0 c 0,0 -4.996916,0 -10,0 z" opacity="0.61" color="#bebebe" fill="none" stroke="#000000"/>
  <path sodipodi:nodetypes="ccccccccccccc" inkscape:connector-curvature="0" id="path4623" d="m 3,2.5 -0.5,0 0,0.5 0,1 0,0.5 0.5,0 c 0,0 4.996916,0 10,0 l 0.5,0 0,-0.5 0,-1 0,-0.5 -0.5,0 c 0,0 -4.996916,0 -10,0 z" color="#bebebe" fill="url(#linearGradient4621)"/>
  <path sodipodi:nodetypes="ccccccccccccccc" inkscape:connector-curvature="0" id="path4625" d="M 7,3 7,3.5 7,3.5 7,3 z M 3,3 3,3.5 7,3.5 7,3 z m 4,0 0,0.5 6,0 0,-0.5 z" opacity="0.2" fill="#bebebe" color="#bebebe"/>
  <path d="m 3,2.5 -0.5,0 0,0.5 0,1 0,0.5 0.5,0 c 0,0 4.996916,0 10,0 l 0.5,0 0,-0.5 0,-1 0,-0.5 -0.5,0 c 0,0 -4.996916,0 -10,0 z" id="path4627" inkscape:connector-curvature="0" sodipodi:nodetypes="ccccccccccccc" opacity="0.61" color="#bebebe" fill="none" stroke="#000000"/>
  <path d="m 3,10.5 -0.5,0 0,0.5 0,1 0,0.5 0.5,0 c 0,0 4.996916,0 10,0 l 0.5,0 0,-0.5 0,-1 0,-0.5 -0.5,0 c 0,0 -4.996916,0 -10,0 z" id="path4631" inkscape:connector-curvature="0" sodipodi:nodetypes="ccccccccccccc" color="#bebebe" fill="url(#linearGradient4621)"/>
  <path d="m 7,11 0,0.5 0,0 0,-0.5 z m -4,0 0,0.5 4,0 0,-0.5 z m 4,0 0,0.5 6,0 0,-0.5 z" id="path4633" inkscape:connector-curvature="0" sodipodi:nodetypes="ccccccccccccccc" opacity="0.2" fill="#bebebe" color="#bebebe"/>
  <path sodipodi:nodetypes="ccccccccccccc" inkscape:connector-curvature="0" id="path4635" d="m 3,10.5 -0.5,0 0,0.5 0,1 0,0.5 0.5,0 c 0,0 4.996916,0 10,0 l 0.5,0 0,-0.5 0,-1 0,-0.5 -0.5,0 c 0,0 -4.996916,0 -10,0 z" opacity="0.61" color="#bebebe" fill="none" stroke="#000000"/>
 </g>
</svg>
