<?xml version="1.0" encoding="UTF-8" standalone="no"?>
<svg xmlns="http://www.w3.org/2000/svg" xmlns:xlink="http://www.w3.org/1999/xlink" xmlns:sodipodi="http://sodipodi.sourceforge.net/DTD/sodipodi-0.dtd" xmlns:inkscape="http://www.inkscape.org/namespaces/inkscape" width="16" height="16" version="1.1">
 <defs id="defs5402">
  <linearGradient id="linearGradient3821">
   <stop id="stop3823" stop-color="#555555"/>
   <stop offset="1" id="stop3825" stop-color="#666666"/>
  </linearGradient>
  <linearGradient inkscape:collect="always" xlink:href="#linearGradient3821" id="linearGradient3955" gradientUnits="userSpaceOnUse" gradientTransform="matrix(-1,0,0,1,16,1.9995054e-7)" y1="16" x2="0" y2="0"/>
 </defs>
 <metadata id="metadata5405"/>
 <g id="layer1" inkscape:label="Layer 1" inkscape:groupmode="layer">
  <path d="m 1.2763483,8.238626 0.375,0.34375 6,6 0.34375,0.34375 0.34375,-0.34375 6.0624997,-6 0.34375,-0.34375 -0.34375,-0.375 -1.40625,-1.375 -0.34375,-0.34375 -0.34375,0.34375 -2.7812497,2.75 -0.03125,-7.2187498 0,-0.5 -0.5,0 -2,0 -0.5,0 0,0.5 0.03125,7.2499998 -2.78125,-2.78125 -0.375,-0.34375 -0.34375,0.34375 -1.375,1.375 z" id="path3887" inkscape:connector-curvature="0" sodipodi:nodetypes="cccccccccccccccccccccccc" color="#000000" fill="url(#linearGradient3955)"/>
  <path id="path3904" d="m 1.2763483,8.238626 0.375,0.34375 6,6 0.34375,0.34375 0.34375,-0.34375 6.0624997,-6 0.34375,-0.34375 -0.34375,-0.375 -1.40625,-1.375 -0.34375,-0.34375 -0.34375,0.34375 -2.7812497,2.75 -0.03125,-7.2187498 0,-0.5 -0.5,0 -2,0 -0.5,0 0,0.5 0.03125,7.2499998 -2.78125,-2.78125 -0.375,-0.34375 -0.34375,0.34375 -1.375,1.375 z" inkscape:connector-curvature="0" sodipodi:nodetypes="cccccccccccccccccccccccc" opacity="0.61" color="#000000" fill="none" stroke="#000000"/>
  <path d="M 7 2.03125 L 7 3.03125 L 9 3.03125 L 9 2.03125 L 7 2.03125 z M 3.375 6.84375 L 2 8.21875 L 2.5 8.71875 L 3.375 7.84375 L 3.40625 7.84375 L 6.1875 10.625 L 7.03125 11.46875 L 7.03125 10.46875 L 6.1875 9.625 L 3.40625 6.84375 L 3.375 6.84375 z M 12.65625 6.84375 L 9.875 9.59375 L 9.03125 10.4375 L 9.03125 11.4375 L 9.875 10.59375 L 12.65625 7.84375 L 13.5625 8.71875 L 14.0625 8.21875 L 14.03125 8.1875 L 12.65625 6.84375 z " id="path3992" opacity="0.2" color="#000000" fill="#ffffff"/>
 </g>
</svg>
