<?xml version='1.0' encoding='UTF-8' standalone='no'?>
<svg height="16" xmlns:inkscape="http://www.inkscape.org/namespaces/inkscape" xmlns:sodipodi="http://sodipodi.sourceforge.net/DTD/sodipodi-0.dtd" version="1.1" width="16" xmlns="http://www.w3.org/2000/svg" enable-background="new">
 <metadata id="metadata90"/>
 <defs id="defs7386">
  <linearGradient id="linearGradient5606" osb:paint="solid">
   <stop id="stop5608"/>
  </linearGradient>
  <filter inkscape:collect="always" color-interpolation-filters="sRGB" id="filter7554">
   <feBlend inkscape:collect="always" id="feBlend7556" in2="BackgroundImage" mode="darken"/>
  </filter>
 </defs>
 <g inkscape:groupmode="layer" id="layer12" inkscape:label="actions" transform="translate(-465.7502,11.5)">
  <path inkscape:connector-curvature="0" d="m 473.75019,-9.875 -0.6875,0.625 -5.5,5 -0.8125,0.75 0,1 1,0 0,6 12,0 0,-6 1,0 0,-1 -1.0625,-1 -5.25,-4.75 z m 0,1.75 5,4.625 0,6 -3,0 0,-4 -4,0 0,4 -3,0 0,-6 z m -1,7.625 2,0 0,3 -2,0 z" id="path16259-2" sodipodi:nodetypes="ccccccccccccccccccccccccccccc" fill="#bebebe"/>
  <path inkscape:connector-curvature="0" d="m 476.75019,-8.5 0,2.25 1,0.84375 0,-2.09375 1,0 0,2.90625 1,0.84375 0,-4.75 -3,0 z" id="rect3000-4-3" fill="#bebebe" fill-rule="evenodd" color="#000000" stroke-width="2"/>
 </g>
</svg>
