<?xml version="1.0" encoding="UTF-8" standalone="no"?>
<svg
   xmlns:dc="http://purl.org/dc/elements/1.1/"
   xmlns:cc="http://creativecommons.org/ns#"
   xmlns:rdf="http://www.w3.org/1999/02/22-rdf-syntax-ns#"
   xmlns:svg="http://www.w3.org/2000/svg"
   xmlns="http://www.w3.org/2000/svg"
   xmlns:xlink="http://www.w3.org/1999/xlink"
   width="16px"
   height="16px"
   id="svg5400"
   version="1.1">
  <defs
     id="defs5402">
    <linearGradient
       id="linearGradient3821">
      <stop
         style="stop-color:#555555;stop-opacity:1;"
         offset="0"
         id="stop3823" />
      <stop
         style="stop-color:#666666;stop-opacity:1;"
         offset="1"
         id="stop3825" />
    </linearGradient>
    <linearGradient
       xlink:href="#linearGradient3821"
       id="linearGradient3058"
       gradientUnits="userSpaceOnUse"
       x1="8"
       y1="16"
       x2="8"
       y2="0" />
  </defs>
  <metadata
     id="metadata5405">
    <rdf:RDF>
      <cc:Work
         rdf:about="">
        <dc:format>image/svg+xml</dc:format>
        <dc:type
           rdf:resource="http://purl.org/dc/dcmitype/StillImage" />
        <dc:title />
      </cc:Work>
    </rdf:RDF>
  </metadata>
  <g
     id="layer1">
    <path
       style="font-size:medium;font-style:normal;font-variant:normal;font-weight:normal;font-stretch:normal;text-indent:0;text-align:start;text-decoration:none;line-height:normal;letter-spacing:normal;word-spacing:normal;text-transform:none;direction:ltr;block-progression:tb;writing-mode:lr-tb;text-anchor:start;baseline-shift:baseline;color:#bebebe;fill:url(#linearGradient3058);fill-opacity:1;stroke:none;stroke-width:1;marker:none;visibility:visible;display:inline;overflow:visible;enable-background:accumulate;font-family:Sans;-inkscape-font-specification:Sans"
       d="m 14.875,8.578125 -0.4375,0.75 -3,5 -0.4375,0.71875 -0.4375,-0.71875 -3,-5 -0.4375,-0.75 0.875,0 1.5,0 0,-2.5 c 0,-1.417147 -1.0828529,-2.5 -2.5,-2.5 -1.417087,0 -2.526739,1.094386 -2.5,2.5 l 0,5 0,0.5 -0.5,0 -2,0 -0.5,0 0,-0.5 0,-5 c 0,-3.024833 2.475167,-5.5 5.5,-5.5 3.025019,0 5.39971,2.465954 5.5,5.46875 l 0,0.03125 0,2.5 1.5,0 0.875,0 z"
       id="path3812" />
    <path
       id="path3832"
       d="m 14.875,8.578125 -0.4375,0.75 -3,5 -0.4375,0.71875 -0.4375,-0.71875 -3,-5 -0.4375,-0.75 0.875,0 1.5,0 0,-2.5 c 0,-1.417147 -1.0828529,-2.5 -2.5,-2.5 -1.417087,0 -2.526739,1.094386 -2.5,2.5 l 0,5 0,0.5 -0.5,0 -2,0 -0.5,0 0,-0.5 0,-5 c 0,-3.024833 2.475167,-5.5 5.5,-5.5 3.025019,0 5.39971,2.465954 5.5,5.46875 l 0,0.03125 0,2.5 1.5,0 0.875,0 z"
       style="font-size:medium;font-style:normal;font-variant:normal;font-weight:normal;font-stretch:normal;text-indent:0;text-align:start;text-decoration:none;line-height:normal;letter-spacing:normal;word-spacing:normal;text-transform:none;direction:ltr;block-progression:tb;writing-mode:lr-tb;text-anchor:start;baseline-shift:baseline;opacity:0.61000001;color:#bebebe;fill:none;stroke:#000000;stroke-width:1;stroke-opacity:1;marker:none;visibility:visible;display:inline;overflow:visible;enable-background:accumulate;font-family:Sans;-inkscape-font-specification:Sans" />
    <path
       style="font-size:medium;font-style:normal;font-variant:normal;font-weight:normal;font-stretch:normal;text-indent:0;text-align:start;text-decoration:none;line-height:normal;letter-spacing:normal;word-spacing:normal;text-transform:none;direction:ltr;block-progression:tb;writing-mode:lr-tb;text-anchor:start;baseline-shift:baseline;opacity:0.2;color:#bebebe;fill:#ffffff;fill-opacity:1;stroke:none;stroke-width:1;marker:none;visibility:visible;display:inline;overflow:visible;enable-background:accumulate;font-family:Sans;-inkscape-font-specification:Sans"
       d="m 7.015625,1.0625 c 2.7532898,0 4.908195,2.2512451 5,5 l 0,1 c -0.09181,-2.7487549 -2.2467102,-5 -5,-5 -2.752072,0 -5,2.2479277 -5,5 l 0,-1 c 0,-2.7520723 2.247928,-5 5,-5 z m 7,8 -0.59375,1 -0.90625,0 -0.5,0 0,-0.5 0,-0.5 0.5,0 1.5,0 z m -4,0 0,0.5 0,0.5 -0.5,0 -0.9375,0 -0.59375,-1 0.03125,0 1.5,0 0.5,0 z"
       id="path3060" />
  </g>
</svg>
