<?xml version="1.0" encoding="UTF-8" standalone="no"?>
<svg
   xmlns:dc="http://purl.org/dc/elements/1.1/"
   xmlns:cc="http://creativecommons.org/ns#"
   xmlns:rdf="http://www.w3.org/1999/02/22-rdf-syntax-ns#"
   xmlns:svg="http://www.w3.org/2000/svg"
   xmlns="http://www.w3.org/2000/svg"
   xmlns:xlink="http://www.w3.org/1999/xlink"
   width="16px"
   height="16px"
   id="svg5400"
   version="1.1">
  <defs
     id="defs5402">
    <linearGradient
       id="linearGradient3821">
      <stop
         style="stop-color:#555555;stop-opacity:1;"
         offset="0"
         id="stop3823" />
      <stop
         style="stop-color:#666666;stop-opacity:1;"
         offset="1"
         id="stop3825" />
    </linearGradient>
    <linearGradient
       xlink:href="#linearGradient3821"
       id="linearGradient4241"
       x1="8"
       y1="16"
       x2="8"
       y2="0"
       gradientUnits="userSpaceOnUse" />
  </defs>
  <metadata
     id="metadata5405">
    <rdf:RDF>
      <cc:Work
         rdf:about="">
        <dc:format>image/svg+xml</dc:format>
        <dc:type
           rdf:resource="http://purl.org/dc/dcmitype/StillImage" />
        <dc:title />
      </cc:Work>
    </rdf:RDF>
  </metadata>
  <g
     id="layer1">
    <path
       style="font-size:medium;font-style:normal;font-variant:normal;font-weight:normal;font-stretch:normal;text-indent:0;text-align:start;text-decoration:none;line-height:normal;letter-spacing:normal;word-spacing:normal;text-transform:none;direction:ltr;block-progression:tb;writing-mode:lr-tb;text-anchor:start;baseline-shift:baseline;color:#000000;fill:url(#linearGradient4241);fill-opacity:1;stroke:none;stroke-width:1;marker:none;visibility:visible;display:inline;overflow:visible;enable-background:accumulate;font-family:Sans;-inkscape-font-specification:Sans"
       d="m 6.21875,1.28125 0.34375,0.375 6,6 0.0625,0.0625 C 12.773849,7.0482532 13.287609,6.5 14,6.5 c 0.822505,0 1.5,0.6774952 1.5,1.5 0,0.8225048 -0.677495,1.5 -1.5,1.5 -0.712391,0 -1.226151,-0.5482532 -1.375,-1.21875 l -0.0625,0.0625 -6,6.03125 L 6.21875,14.75 5.875,14.375 4.46875,13 4.09375,12.65625 4.46875,12.3125 7.28125,9.53125 1,9.5 0.5,9.5 0.5,9 0.5,7 0.5,6.5 1,6.5 7.28125,6.53125 4.46875,3.71875 4.09375,3.375 4.46875,3.03125 5.875,1.65625 z"
       id="path4229" />
    <path
       id="path4243"
       d="m 6.21875,1.28125 0.34375,0.375 6,6 0.0625,0.0625 C 12.773849,7.0482532 13.287609,6.5 14,6.5 c 0.822505,0 1.5,0.6774952 1.5,1.5 0,0.8225048 -0.677495,1.5 -1.5,1.5 -0.712391,0 -1.226151,-0.5482532 -1.375,-1.21875 l -0.0625,0.0625 -6,6.03125 L 6.21875,14.75 5.875,14.375 4.46875,13 4.09375,12.65625 4.46875,12.3125 7.28125,9.53125 1,9.5 0.5,9.5 0.5,9 0.5,7 0.5,6.5 1,6.5 7.28125,6.53125 4.46875,3.71875 4.09375,3.375 4.46875,3.03125 5.875,1.65625 z"
       style="font-size:medium;font-style:normal;font-variant:normal;font-weight:normal;font-stretch:normal;text-indent:0;text-align:start;text-decoration:none;line-height:normal;letter-spacing:normal;word-spacing:normal;text-transform:none;direction:ltr;block-progression:tb;writing-mode:lr-tb;text-anchor:start;baseline-shift:baseline;opacity:0.61000001;color:#000000;fill:none;stroke:#000000;stroke-width:1;stroke-linejoin:round;stroke-opacity:1;marker:none;visibility:visible;display:inline;overflow:visible;enable-background:accumulate;font-family:Sans;-inkscape-font-specification:Sans" />
    <path
       style="opacity:0.2;fill:#ffffff;fill-opacity:1;fill-rule:nonzero;stroke:none"
       d="m 6.21875,2 6,6 -0.5,0.5 -5.5,-5.5 -0.90625,0.875 -0.5,-0.5 L 6.21875,2 z M 14,7 c 0.552285,0 1,0.4477153 1,1 0,0.1873195 -0.06663,0.350128 -0.15625,0.5 C 14.669139,8.207996 14.364965,8 14,8 13.635035,8 13.330861,8.207996 13.15625,8.5 13.066631,8.350128 13,8.1873195 13,8 13,7.4477153 13.447715,7 14,7 z m -13,0 6.46875,0.03125 1,1 L 1,8 1,7 z m 7.46875,3.03125 -3.15625,3.125 -0.5,-0.5 2.65625,-2.625 1,0 z"
       id="path5849" />
  </g>
</svg>
