<?xml version="1.0" encoding="UTF-8" standalone="no"?>
<svg xmlns="http://www.w3.org/2000/svg" xmlns:xlink="http://www.w3.org/1999/xlink" xmlns:sodipodi="http://sodipodi.sourceforge.net/DTD/sodipodi-0.dtd" xmlns:inkscape="http://www.inkscape.org/namespaces/inkscape" width="16" height="16" version="1.1">
 <defs id="defs5402">
  <linearGradient id="linearGradient3821">
   <stop id="stop3823" stop-color="#555555"/>
   <stop offset="1" id="stop3825" stop-color="#666666"/>
  </linearGradient>
  <linearGradient inkscape:collect="always" xlink:href="#linearGradient3821" id="linearGradient3827" y1="16" x2="0" y2="0" gradientUnits="userSpaceOnUse" gradientTransform="matrix(-1,0,0,1,16,0)"/>
  <linearGradient inkscape:collect="always" xlink:href="#linearGradient3821" id="linearGradient3902" y1="16" x2="0" y2="0" gradientUnits="userSpaceOnUse"/>
 </defs>
 <metadata id="metadata5405"/>
 <g id="layer1" inkscape:label="Layer 1" inkscape:groupmode="layer">
  <path d="M 7.78125 1.28125 L 7.4375 1.65625 L 1.4375 7.65625 L 1.09375 8 L 1.4375 8.34375 L 7.4375 14.40625 L 7.78125 14.75 L 8.15625 14.40625 L 9.53125 13 L 9.875 12.65625 L 9.53125 12.3125 L 6.78125 9.53125 L 14 9.5 L 14.5 9.5 L 14.5 9 L 14.5 7 L 14.5 6.5 L 14 6.5 L 6.75 6.53125 L 9.53125 3.75 L 9.875 3.375 L 9.53125 3.03125 L 8.15625 1.65625 L 7.78125 1.28125 z " id="path3887" color="#000000" fill="url(#linearGradient3902)"/>
  <path id="path3904" d="M 7.78125 1.28125 L 7.4375 1.65625 L 1.4375 7.65625 L 1.09375 8 L 1.4375 8.34375 L 7.4375 14.40625 L 7.78125 14.75 L 8.15625 14.40625 L 9.53125 13 L 9.875 12.65625 L 9.53125 12.3125 L 6.78125 9.53125 L 14 9.5 L 14.5 9.5 L 14.5 9 L 14.5 7 L 14.5 6.5 L 14 6.5 L 6.75 6.53125 L 9.53125 3.75 L 9.875 3.375 L 9.53125 3.03125 L 8.15625 1.65625 L 7.78125 1.28125 z " opacity="0.61" color="#000000" fill="none" stroke="#000000"/>
  <path d="M 7.78125 2 L 1.78125 8 L 2.28125 8.5 L 7.78125 3 L 8.6875 3.875 L 9.1875 3.375 L 7.78125 2 z M 14 7 L 6.53125 7.03125 L 5.53125 8.03125 L 14 8 L 14 7 z M 5.53125 10.03125 L 8.6875 13.15625 L 9.1875 12.65625 L 6.53125 10.03125 L 5.53125 10.03125 z " id="path4765" opacity="0.2" fill="#ffffff"/>
 </g>
</svg>
