<?xml version="1.0" encoding="UTF-8" standalone="no"?>
<svg
   xmlns:dc="http://purl.org/dc/elements/1.1/"
   xmlns:cc="http://creativecommons.org/ns#"
   xmlns:rdf="http://www.w3.org/1999/02/22-rdf-syntax-ns#"
   xmlns:svg="http://www.w3.org/2000/svg"
   xmlns="http://www.w3.org/2000/svg"
   xmlns:xlink="http://www.w3.org/1999/xlink"
   width="16px"
   height="16px"
   id="svg5400"
   version="1.1">
  <defs
     id="defs5402">
    <linearGradient
       id="linearGradient3821">
      <stop
         style="stop-color:#555555;stop-opacity:1;"
         offset="0"
         id="stop3823" />
      <stop
         style="stop-color:#666666;stop-opacity:1;"
         offset="1"
         id="stop3825" />
    </linearGradient>
    <linearGradient
       xlink:href="#linearGradient3821"
       id="linearGradient4241"
       x1="8"
       y1="16"
       x2="8"
       y2="0"
       gradientUnits="userSpaceOnUse" />
  </defs>
  <metadata
     id="metadata5405">
    <rdf:RDF>
      <cc:Work
         rdf:about="">
        <dc:format>image/svg+xml</dc:format>
        <dc:type
           rdf:resource="http://purl.org/dc/dcmitype/StillImage" />
        <dc:title />
      </cc:Work>
    </rdf:RDF>
  </metadata>
  <g
     id="layer1">
    <path
       style="font-size:medium;font-style:normal;font-variant:normal;font-weight:normal;font-stretch:normal;text-indent:0;text-align:start;text-decoration:none;line-height:normal;letter-spacing:normal;word-spacing:normal;text-transform:none;direction:ltr;block-progression:tb;writing-mode:lr-tb;text-anchor:start;baseline-shift:baseline;color:#000000;fill:url(#linearGradient4241);fill-opacity:1;stroke:none;stroke-width:1;marker:none;visibility:visible;display:inline;overflow:visible;enable-background:accumulate;font-family:Sans;-inkscape-font-specification:Sans"
       d="m 1.265625,9.78125 0.375,-0.34375 6,-6 0.0625,-0.0625 C 7.0326282,3.226151 6.484375,2.712391 6.484375,2 c 0,-0.822505 0.6774952,-1.5 1.5,-1.5 0.8225048,0 1.5,0.677495 1.5,1.5 0,0.712391 -0.5482532,1.226151 -1.21875,1.375 l 0.0625,0.0625 6.03125,6 0.375,0.34375 -0.375,0.34375 -1.375,1.40625 -0.34375,0.375 -0.34375,-0.375 L 9.515625,8.71875 9.484375,15 l 0,0.5 -0.5,0 -2,0 -0.5,0 0,-0.5 0.03125,-6.28125 -2.8125,2.8125 -0.34375,0.375 -0.34375,-0.375 -1.375,-1.40625 z"
       id="path4229" />
    <path
       id="path4243"
       d="m 1.265625,9.78125 0.375,-0.34375 6,-6 0.0625,-0.0625 C 7.0326282,3.226151 6.484375,2.712391 6.484375,2 c 0,-0.822505 0.6774952,-1.5 1.5,-1.5 0.8225048,0 1.5,0.677495 1.5,1.5 0,0.712391 -0.5482532,1.226151 -1.21875,1.375 l 0.0625,0.0625 6.03125,6 0.375,0.34375 -0.375,0.34375 -1.375,1.40625 -0.34375,0.375 -0.34375,-0.375 L 9.515625,8.71875 9.484375,15 l 0,0.5 -0.5,0 -2,0 -0.5,0 0,-0.5 0.03125,-6.28125 -2.8125,2.8125 -0.34375,0.375 -0.34375,-0.375 -1.375,-1.40625 z"
       style="font-size:medium;font-style:normal;font-variant:normal;font-weight:normal;font-stretch:normal;text-indent:0;text-align:start;text-decoration:none;line-height:normal;letter-spacing:normal;word-spacing:normal;text-transform:none;direction:ltr;block-progression:tb;writing-mode:lr-tb;text-anchor:start;baseline-shift:baseline;opacity:0.61000001;color:#000000;fill:none;stroke:#000000;stroke-width:1;stroke-linejoin:round;stroke-opacity:1;marker:none;visibility:visible;display:inline;overflow:visible;enable-background:accumulate;font-family:Sans;-inkscape-font-specification:Sans" />
    <path
       style="font-size:medium;font-style:normal;font-variant:normal;font-weight:normal;font-stretch:normal;text-indent:0;text-align:start;text-decoration:none;line-height:normal;letter-spacing:normal;word-spacing:normal;text-transform:none;direction:ltr;block-progression:tb;writing-mode:lr-tb;text-anchor:start;baseline-shift:baseline;color:#000000;fill:#ffffff;fill-opacity:1;stroke:none;stroke-width:1;marker:none;visibility:visible;display:inline;overflow:visible;enable-background:accumulate;font-family:Sans;-inkscape-font-specification:Sans;opacity:0.2"
       d="M 8 1 C 7.452061 1 7 1.4520608 7 2 C 7 2.1946364 7.050621 2.3627529 7.15625 2.5 C 7.3318177 2.2079627 7.6379066 2 8 2 C 8.3472607 2 8.6329237 2.196276 8.8125 2.46875 C 8.916549 2.3346053 9 2.1869022 9 2 C 9 1.4520608 8.547939 1 8 1 z M 7.84375 3.90625 L 2 9.78125 L 2.5 10.28125 L 7.96875 4.78125 L 8 4.78125 L 13.5 10.28125 L 14 9.78125 L 8.09375 3.90625 A 0.50005 0.50005 0 0 0 8 3.96875 A 0.50005 0.50005 0 0 0 7.96875 3.96875 A 0.50005 0.50005 0 0 0 7.84375 3.90625 z "
       id="path4286" />
  </g>
</svg>
