<?xml version="1.0" encoding="UTF-8" standalone="no"?>
<svg xmlns="http://www.w3.org/2000/svg" xmlns:xlink="http://www.w3.org/1999/xlink" xmlns:sodipodi="http://sodipodi.sourceforge.net/DTD/sodipodi-0.dtd" xmlns:inkscape="http://www.inkscape.org/namespaces/inkscape" width="16" height="16" version="1.1">
 <defs id="defs5402">
  <linearGradient id="linearGradient3821">
   <stop id="stop3823" stop-color="#555555"/>
   <stop offset="1" id="stop3825" stop-color="#666666"/>
  </linearGradient>
  <linearGradient inkscape:collect="always" xlink:href="#linearGradient3821" id="linearGradient3902" y1="16" x2="0" y2="0" gradientUnits="userSpaceOnUse" gradientTransform="matrix(-1,0,0,1,16,0)"/>
  <linearGradient inkscape:collect="always" xlink:href="#linearGradient3821" id="linearGradient3951" gradientUnits="userSpaceOnUse" gradientTransform="matrix(0,-1,-1,0,16.21875,15.8125)" y1="16" x2="0" y2="0"/>
 </defs>
 <metadata id="metadata5405"/>
 <g id="layer1" inkscape:label="Layer 1" inkscape:groupmode="layer">
  <path d="m 1.2919733,7.8011262 0.375,-0.34375 6,-6 0.34375,-0.34375 0.34375,0.34375 6.0624997,6 0.34375,0.34375 -0.34375,0.375 -1.40625,1.375 -0.34375,0.34375 -0.34375,-0.34375 -2.7812497,-2.75 -0.03125,7.2187498 0,0.5 -0.5,0 -2,0 -0.5,0 0,-0.5 0.03125,-7.2499998 -2.78125,2.78125 -0.375,0.34375 -0.34375,-0.34375 -1.375,-1.375 z" id="path3887" inkscape:connector-curvature="0" sodipodi:nodetypes="cccccccccccccccccccccccc" color="#000000" fill="url(#linearGradient3902)"/>
  <path id="path3904" d="m 1.2919733,7.8011262 0.375,-0.34375 6,-6 0.34375,-0.34375 0.34375,0.34375 6.0624997,6 0.34375,0.34375 -0.34375,0.375 -1.40625,1.375 -0.34375,0.34375 -0.34375,-0.34375 -2.7812497,-2.75 -0.03125,7.2187498 0,0.5 -0.5,0 -2,0 -0.5,0 0,-0.5 0.03125,-7.2499998 -2.78125,2.78125 -0.375,0.34375 -0.34375,-0.34375 -1.375,-1.375 z" inkscape:connector-curvature="0" sodipodi:nodetypes="cccccccccccccccccccccccc" opacity="0.61" color="#000000" fill="none" stroke="#000000"/>
  <path d="m 8,1.8125 -5.96875,6 0.5,0.5 5.46875,-5.5 0.03125,0 5.53125,5.5 0.5,-0.5 -6.03125,-6 z" id="path3959" inkscape:connector-curvature="0" sodipodi:nodetypes="ccccccccc" opacity="0.2" color="#000000" fill="#ffffff"/>
 </g>
</svg>
