<?xml version="1.0" encoding="UTF-8" standalone="no"?>
<svg xmlns="http://www.w3.org/2000/svg" xmlns:xlink="http://www.w3.org/1999/xlink" xmlns:sodipodi="http://sodipodi.sourceforge.net/DTD/sodipodi-0.dtd" xmlns:inkscape="http://www.inkscape.org/namespaces/inkscape" width="16" height="16" version="1.1">
 <defs id="defs5402">
  <linearGradient inkscape:collect="always" id="linearGradient3905">
   <stop id="stop3907" stop-color="#ffffff"/>
   <stop offset="1" id="stop3909" stop-color="#ffffff" stop-opacity="0"/>
  </linearGradient>
  <linearGradient id="linearGradient3843">
   <stop id="stop3845" stop-color="#ed9336"/>
   <stop id="stop3847" offset="1" stop-color="#ffc328"/>
  </linearGradient>
  <linearGradient id="linearGradient3904">
   <stop id="stop3906" stop-color="#104b88"/>
   <stop id="stop3908" offset="1" stop-color="#0e7398"/>
  </linearGradient>
  <linearGradient inkscape:collect="always" xlink:href="#linearGradient3905" id="linearGradient6750" x1="443.5" y1="-178.5" x2="444" y2="-175.5" gradientUnits="userSpaceOnUse" gradientTransform="translate(-433,180.00027)"/>
  <linearGradient inkscape:collect="always" xlink:href="#linearGradient3905" id="linearGradient6736" x1="435" x2="438" gradientUnits="userSpaceOnUse"/>
  <linearGradient inkscape:collect="always" xlink:href="#linearGradient5621" id="linearGradient5956" y1="63.937" x2="0" y2="47.937" gradientUnits="userSpaceOnUse" gradientTransform="translate(-1400.9375,-47.937495)"/>
  <linearGradient id="linearGradient5621">
   <stop id="stop5623" stop-color="#0b0b0b"/>
   <stop offset="1" id="stop5625" stop-color="#585858"/>
  </linearGradient>
  <linearGradient id="linearGradient8589">
   <stop id="stop8591" stop-color="#fefefe"/>
   <stop id="stop8593" offset="1" stop-color="#cbcbcb"/>
  </linearGradient>
  <radialGradient cx="102" cy="112.3" r="139.56" id="XMLID_8_" gradientUnits="userSpaceOnUse">
   <stop id="stop41" stop-color="#b7b8b9"/>
   <stop id="stop47" offset="0.189" stop-color="#ececec"/>
   <stop id="stop49" offset="0.257" stop-color="#fafafa" stop-opacity="0"/>
   <stop id="stop51" offset="0.301" stop-color="#ffffff" stop-opacity="0"/>
   <stop id="stop53" offset="0.531" stop-color="#fafafa" stop-opacity="0"/>
   <stop id="stop55" offset="0.845" stop-color="#ebecec" stop-opacity="0"/>
   <stop id="stop57" offset="1" stop-color="#e1e2e3" stop-opacity="0"/>
  </radialGradient>
  <linearGradient inkscape:collect="always" xlink:href="#linearGradient3905" id="linearGradient6701" y1="-180" x2="0" y2="-164" gradientUnits="userSpaceOnUse"/>
  <clipPath id="clipPath6691">
   <path id="path6693" d="m 914,-179.00027 8,-1e-5 4,3 0,11 -12,0 z"/>
  </clipPath>
  <linearGradient id="outerBackgroundGradient-4">
   <stop id="stop3864-8-6-6" stop-color="#f0f0f0"/>
   <stop offset="1" id="stop3866-9-1-7" stop-color="#f9f9f9"/>
  </linearGradient>
  <linearGradient inkscape:collect="always" xlink:href="#linearGradient3870" id="linearGradient3876" y1="16" x2="0" y2="0" gradientUnits="userSpaceOnUse" gradientTransform="translate(0,1)"/>
  <linearGradient id="linearGradient3870">
   <stop id="stop3872" stop-color="#edc936"/>
   <stop offset="1" id="stop3874" stop-color="#e37c3e"/>
  </linearGradient>
  <linearGradient inkscape:collect="always" xlink:href="#linearGradient3843" id="linearGradient3841" gradientUnits="userSpaceOnUse" gradientTransform="translate(0,5.984375)" y1="10.02" x2="0" y2="1.016"/>
  <linearGradient inkscape:collect="always" xlink:href="#outerBackgroundGradient-4" id="linearGradient3877" gradientUnits="userSpaceOnUse" gradientTransform="matrix(0,-0.05555556,0.05714289,0,-3.1428659,15)" y1="280" x2="0" y2="40"/>
  <linearGradient inkscape:collect="always" xlink:href="#linearGradient3905" id="linearGradient3879" gradientUnits="userSpaceOnUse" gradientTransform="matrix(0,-1,1,0,-1,13)" y1="1" x2="0" y2="14"/>
  <linearGradient inkscape:collect="always" xlink:href="#linearGradient3905" id="linearGradient3882" gradientUnits="userSpaceOnUse" gradientTransform="translate(1,0)" y1="1" x2="0" y2="14"/>
  <linearGradient inkscape:collect="always" xlink:href="#outerBackgroundGradient-4" id="linearGradient3885" gradientUnits="userSpaceOnUse" gradientTransform="matrix(0.05555556,0,0,0.05714289,-1,-2.1428659)" y1="280" x2="0" y2="40"/>
  <radialGradient gradientTransform="translate(7.7864494,0.24159668)" inkscape:collect="always" xlink:href="#linearGradient2378" id="radialGradient3067" gradientUnits="userSpaceOnUse" cx="38.659" cy="9.341" r="8.342"/>
  <linearGradient id="linearGradient2378">
   <stop id="stop2380" stop-color="#ffffff"/>
   <stop id="stop4146" offset="0.25" stop-color="#fefede" stop-opacity="0.918"/>
   <stop id="stop2386" offset="0.5" stop-color="#f5f328"/>
   <stop id="stop10317" offset="1" stop-color="#f5f32d" stop-opacity="0.122"/>
  </linearGradient>
  <radialGradient inkscape:collect="always" xlink:href="#linearGradient2378" id="radialGradient3067-1" gradientUnits="userSpaceOnUse" cx="38.659" cy="9.341" r="8.342"/>
  <linearGradient inkscape:collect="always" xlink:href="#outerBackgroundGradient-4" id="linearGradient3871" gradientUnits="userSpaceOnUse" gradientTransform="matrix(0,-1,-1,0,14,15)" x1="1" x2="11"/>
  <clipPath id="clipPath3898">
   <path id="path3900" d="M 1.84375,5 C 1.5625,5.046875 1,5.25 1,6 l 0,8 c 0,1 1,1 1,1 l 2,0 0,2 2,-2 6,0 c 0,0 1,0 1,-1 L 13,6 C 13,5 12,5 12,5 L 2,5 C 2,5 1.9375,4.984375 1.84375,5 z"/>
  </clipPath>
  <linearGradient inkscape:collect="always" xlink:href="#outerBackgroundGradient-4" id="linearGradient3902" gradientUnits="userSpaceOnUse" gradientTransform="matrix(0,-1,-1,0,14,16)" x1="1" x2="11"/>
  <linearGradient inkscape:collect="always" xlink:href="#linearGradient3905" id="linearGradient3913" y1="4" x2="0" y2="20" gradientUnits="userSpaceOnUse"/>
 </defs>
 <metadata id="metadata5405"/>
 <g id="layer1" inkscape:label="Background" inkscape:groupmode="layer">
  <path d="M 1.84375,4 C 1.5625,4.046875 1,4.25 1,5 l 0,6 c 0,1 1,1 1,1 l 2,0 0,2 2,-2 6,0 c 0,0 1,0 1,-1 L 13,5 C 13,4 12,4 12,4 L 2,4 C 2,4 1.9375,3.984375 1.84375,4 z" id="path3029" inkscape:connector-curvature="0" sodipodi:nodetypes="ssscccccssccs" opacity="0.41" fill="none" stroke="#000000" color="#bebebe" stroke-width="2"/>
  <path d="M 1.84375,4 C 1.5625,4.046875 1,4.25 1,5 l 0,6 c 0,1 1,1 1,1 l 2,0 0,2 2,-2 6,0 c 0,0 1,0 1,-1 L 13,5 C 13,4 12,4 12,4 L 2,4 C 2,4 1.9375,3.984375 1.84375,4 z" id="path3843" inkscape:connector-curvature="0" sodipodi:nodetypes="ssscccccssccs" fill="url(#linearGradient3871)" color="#bebebe" stroke-width="2"/>
  <path id="path3890" d="M 1.84375,5 C 1.5625,5.046875 1,5.25 1,6 l 0,6 c 0,1 1,1 1,1 l 2,0 0,2 2,-2 6,0 c 0,0 1,0 1,-1 L 13,6 C 13,5 12,5 12,5 L 2,5 C 2,5 1.9375,4.984375 1.84375,5 z" clip-path="url(#clipPath3898)" inkscape:connector-curvature="0" transform="translate(0,-1)" sodipodi:nodetypes="ssscccccssccs" opacity="0.41" fill="none" stroke="url(#linearGradient3913)" color="#bebebe" stroke-width="2"/>
  <rect id="rect3915" width="5" height="1" x="2" y="5" opacity="0.2"/>
  <rect y="7" x="2" height="1" width="3" id="rect3917" opacity="0.2"/>
 </g>
 <g inkscape:groupmode="layer" id="layer2" inkscape:label="Symbol">
  <g transform="matrix(0.93921201,0,0,1.0101746,-14.82833,-426.22336)" id="g11289">
   <g transform="translate(1,-2)" id="g11291">
    <path d="m 47.000506,9.3411446 a 8.341651,8.341651 0 1 1 -16.683302,0 8.341651,8.341651 0 1 1 16.683302,0 z" inkscape:connector-curvature="0" transform="matrix(0.6381964,0,0,0.6527009,1.8280575,423.27802)" id="path11293" fill="url(#radialGradient3067-1)" fill-rule="evenodd"/>
    <path d="m 33.71875,0.03125 c -0.46837,-0.02427825 -1.008512,0.01404767 -1.5625,0.25 -1.129977,0.48127465 -1.700725,1.4483493 -1.9375,2.0625 -0.236775,0.6141507 -0.281018,1.0549602 -0.3125,1.46875 -0.06296,0.8275796 0.01008,1.5217193 0.0625,2.1875 0.03304,0.4196326 0.06923,0.7273675 0.09375,1.0625 -0.319841,0.1605167 -0.619458,0.3286599 -1.03125,0.53125 -0.610226,0.3002144 -1.253218,0.6168944 -1.9375,1.09375 -0.342141,0.2384278 -0.720058,0.4999648 -1.125,1 -0.404942,0.500035 -0.919606,1.417742 -0.8125,2.625 0.108676,1.224957 0.83472,2.054022 1.34375,2.46875 0.50903,0.414728 0.929157,0.59112 1.3125,0.75 0.766686,0.31776 1.443306,0.466599 2.09375,0.625 0.423819,0.103212 0.72877,0.16643 1.0625,0.25 0.05591,0.355577 0.119142,0.696752 0.1875,1.15625 0.09984,0.671109 0.191872,1.391649 0.4375,2.1875 0.122814,0.397926 0.273261,0.807176 0.625,1.34375 0.351739,0.536574 1.042902,1.323794 2.21875,1.59375 1.189482,0.273085 2.196543,-0.144295 2.75,-0.5 0.553457,-0.355705 0.855882,-0.716081 1.125,-1.03125 0.538236,-0.630338 0.901965,-1.215335 1.25,-1.78125 0.224135,-0.36445 0.38361,-0.619366 0.5625,-0.90625 0.357545,0.05568 0.696337,0.112092 1.15625,0.1875 0.671715,0.110135 1.385879,0.209184 2.21875,0.21875 0.416435,0.0048 0.85184,0.01304 1.46875,-0.15625 0.61691,-0.169294 1.597608,-0.588383 2.21875,-1.625 0.629824,-1.051107 0.511312,-2.177123 0.34375,-2.8125 -0.167562,-0.635377 -0.377164,-1.02135 -0.59375,-1.375 -0.433171,-0.7073 -0.91187,-1.241553 -1.34375,-1.75 -0.276147,-0.325105 -0.469802,-0.553142 -0.6875,-0.8125 0.161407,-0.316481 0.320983,-0.6265922 0.53125,-1.03125 0.311591,-0.5996545 0.63911,-1.2121538 0.90625,-2 C 46.47732,6.9185769 46.595828,6.484287 46.625,5.84375 46.654172,5.203213 46.538668,4.1550279 45.75,3.25 44.950066,2.3320462 43.904222,2.1026594 43.25,2.0625 c -0.654222,-0.040159 -1.096889,0.03051 -1.5,0.125 -0.806222,0.1889801 -1.478143,0.4689271 -2.09375,0.71875 -0.40176,0.1630405 -0.683141,0.2800004 -1,0.40625 C 38.401264,3.0584702 38.169883,2.830184 37.84375,2.5 37.367094,2.0174234 36.855154,1.4970295 36.1875,1 35.853673,0.75148523 35.505496,0.47536814 34.90625,0.25 34.606627,0.13731593 34.18712,0.05552825 33.71875,0.03125 z" inkscape:connector-curvature="0" transform="matrix(0.3735602,0.1529503,-0.1660098,0.3441734,14.555208,419.81907)" id="path11295" fill="#edd400" fill-rule="evenodd" color="#000000" stroke-width="0.5"/>
    <path d="m 44.503206,15.464878 c -1.191831,1.966747 -3.665135,-0.99033 -5.763376,-0.04909 -2.024585,0.908204 -1.431674,4.753003 -3.591868,4.245718 -2.238783,-0.52574 -0.190729,-3.79178 -1.734298,-5.496465 -1.489383,-1.644844 -4.962785,0.107157 -5.147865,-2.10407 -0.191814,-2.2916723 3.547258,-1.353118 4.691521,-3.3479161 1.104095,-1.9247728 -1.635497,-4.6867762 0.410312,-5.5461045 2.120236,-0.8905915 2.383055,2.9555064 4.633817,3.4273387 2.171752,0.4552692 3.951993,-3.0037432 5.401452,-1.3236111 1.502192,1.7412568 -2.074449,3.1797221 -1.827664,5.466128 0.238121,2.206145 4.077962,2.830361 2.927969,4.728068 z" inkscape:connector-curvature="0" transform="matrix(0.3831859,0.1529503,-0.1702874,0.3441734,14.241265,419.81907)" id="path11297" fill="#ffffff" fill-rule="evenodd" color="#000000" stroke-width="0.5"/>
   </g>
   <rect width="1" height="1" x="27" y="424" id="rect11299" fill="#ffffff"/>
   <rect width="1" height="1" x="24" y="426" id="rect11301" fill="#ffffff"/>
   <rect width="1" height="1" x="30" y="426" id="rect11303" fill="#ffffff"/>
   <rect width="1" height="1" x="29" y="429" id="rect11305" fill="#ffffff"/>
   <rect width="1" height="1" x="25" y="429" id="rect11307" fill="#ffffff"/>
  </g>
 </g>
</svg>
