<?xml version="1.0" encoding="UTF-8" standalone="no"?>
<svg
   xmlns:dc="http://purl.org/dc/elements/1.1/"
   xmlns:cc="http://creativecommons.org/ns#"
   xmlns:rdf="http://www.w3.org/1999/02/22-rdf-syntax-ns#"
   xmlns:svg="http://www.w3.org/2000/svg"
   xmlns="http://www.w3.org/2000/svg"
   xmlns:xlink="http://www.w3.org/1999/xlink"
   version="1.1"
   id="svg5400"
   height="16px"
   width="16px">
  <defs
     id="defs5402">
    <linearGradient
       gradientTransform="matrix(0,1,-1,0,140,-1872)"
       y2="132"
       x2="1888"
       y1="132"
       x1="1872"
       gradientUnits="userSpaceOnUse"
       id="linearGradient7546"
       xlink:href="#linearGradient3813" />
    <linearGradient
       id="linearGradient3813">
      <stop
         id="stop3815"
         offset="0"
         style="stop-color:#3e8292;stop-opacity:1;" />
      <stop
         id="stop3817"
         offset="1"
         style="stop-color:#133f8f;stop-opacity:1;" />
    </linearGradient>
    <linearGradient
       y2="44.340794"
       x2="71.204407"
       y1="6.2375584"
       x1="71.204407"
       gradientTransform="matrix(0.35135136,0,0,0.35135136,-17.2037,-0.9093)"
       gradientUnits="userSpaceOnUse"
       id="linearGradient7045"
       xlink:href="#linearGradient6851" />
    <linearGradient
       id="linearGradient6851">
      <stop
         id="stop6853"
         offset="0"
         style="stop-color:#ffffff;stop-opacity:1;" />
      <stop
         id="stop6855"
         offset="1"
         style="stop-color:#ffffff;stop-opacity:0;" />
    </linearGradient>
    <linearGradient
       y2="15.99972"
       x2="16"
       y1="-2.8421709e-14"
       x1="16"
       gradientUnits="userSpaceOnUse"
       id="linearGradient7048"
       xlink:href="#linearGradient3810" />
    <linearGradient
       id="linearGradient3810">
      <stop
         id="stop3812"
         offset="0"
         style="stop-color:#4cc7e0;stop-opacity:1;" />
      <stop
         id="stop3814"
         offset="1"
         style="stop-color:#2061be;stop-opacity:1;" />
    </linearGradient>
    <linearGradient
       gradientTransform="matrix(0.18641557,0,0,0.18641557,361.3645,133.82708)"
       y2="31.772648"
       x2="287.72006"
       y1="116.2613"
       x1="287.72006"
       gradientUnits="userSpaceOnUse"
       id="linearGradient4203"
       xlink:href="#linearGradient3988" />
    <linearGradient
       id="linearGradient3988">
      <stop
         id="stop3990"
         offset="0"
         style="stop-color:#eeeeec;stop-opacity:1;" />
      <stop
         id="stop3992"
         offset="1"
         style="stop-color:#ffffff;stop-opacity:1;" />
    </linearGradient>
    <linearGradient
       gradientTransform="translate(0.5,0.5)"
       gradientUnits="userSpaceOnUse"
       y2="9"
       x2="12"
       y1="15"
       x1="12"
       id="linearGradient3892"
       xlink:href="#linearGradient3886" />
    <linearGradient
       id="linearGradient3886">
      <stop
         id="stop3888"
         offset="0"
         style="stop-color:#5097e1;stop-opacity:1;" />
      <stop
         id="stop3890"
         offset="1"
         style="stop-color:#53d0ff;stop-opacity:1" />
    </linearGradient>
    <linearGradient
       gradientTransform="translate(0.5,0.5)"
       gradientUnits="userSpaceOnUse"
       y2="8"
       x2="12"
       y1="16"
       x1="12"
       id="linearGradient3902"
       xlink:href="#linearGradient3904" />
    <linearGradient
       id="linearGradient3904">
      <stop
         style="stop-color:#104b88;stop-opacity:1;"
         offset="0"
         id="stop3906" />
      <stop
         style="stop-color:#0e7398;stop-opacity:1;"
         offset="1"
         id="stop3908" />
    </linearGradient>
  </defs>
  <metadata
     id="metadata5405">
    <rdf:RDF>
      <cc:Work
         rdf:about="">
        <dc:format>image/svg+xml</dc:format>
        <dc:type
           rdf:resource="http://purl.org/dc/dcmitype/StillImage" />
        <dc:title />
      </cc:Work>
    </rdf:RDF>
  </metadata>
  <g
     id="layer1">
    <path
       d="M 8,0.5 C 3.8618,0.5 0.5,3.86176 0.5,8 c 0,4.13824 3.3618,7.5 7.5,7.5 4.1382,0 7.5,-3.36176 7.5,-7.5 C 15.5,3.86176 12.1382,0.5 8,0.5 z"
       id="path2555-7"
       style="color:#000000;fill:url(#linearGradient7048);fill-opacity:1.0;fill-rule:nonzero;stroke:none;stroke-width:0.99999994000000003;marker:none;visibility:visible;display:inline;overflow:visible;enable-background:accumulate" />
    <path
       d="M 14.5,7.99977 C 14.5,11.58974 11.5896,14.5 8.0001,14.5 4.4102,14.5 1.5,11.5897 1.5,7.99977 1.5,4.40997 4.4102,1.5 8.0001,1.5 11.5896,1.5 14.5,4.40997 14.5,7.99977 l 0,0 z"
       id="path8655-6"
       style="opacity:0.5;color:#000000;fill:none;stroke:url(#linearGradient7045);stroke-width:0.99999994;stroke-linecap:round;stroke-linejoin:round;stroke-miterlimit:4;stroke-opacity:1;stroke-dasharray:none;stroke-dashoffset:0;marker:none;visibility:visible;display:inline;overflow:visible;enable-background:accumulate" />
    <path
       style="opacity:0.91000001;color:#000000;fill:none;stroke:url(#linearGradient7546);stroke-width:0.99999994;stroke-linecap:round;stroke-linejoin:round;stroke-miterlimit:4;stroke-opacity:1;stroke-dasharray:none;stroke-dashoffset:0;marker:none;visibility:visible;display:inline;overflow:visible;enable-background:accumulate"
       id="path7037"
       d="m 8,15.5 c 4.1382,0 7.5,-3.3618 7.5,-7.5 C 15.5,3.8618 12.1382,0.5 8,0.5 3.8618,0.5 0.5,3.8618 0.5,8 c 0,4.1382 3.3618,7.5 7.5,7.5 z" />
    <g
       transform="translate(-416,-139)"
       style="opacity:0.2;fill:#000000;fill-opacity:1;display:inline;enable-background:new"
       id="g4217">
      <path
         style="fill:#000000;fill-opacity:1;stroke:none"
         d="m 418,148 2.25,0.75 0,-1.5 z"
         id="path4219" />
      <path
         id="path4221"
         d="m 430,148 -2.25,0.75 0,-1.5 z"
         style="fill:#000000;fill-opacity:1;stroke:none" />
      <path
         id="path4223"
         d="m 424,142 -0.75,2.25 1.5,0 z"
         style="fill:#000000;fill-opacity:1;stroke:none;display:inline;enable-background:new" />
      <path
         style="fill:#000000;fill-opacity:1;stroke:none;display:inline;enable-background:new"
         d="m 424,154 -0.75,-2.25 1.5,0 z"
         id="path4225" />
      <path
         style="color:#000000;fill:#000000;fill-opacity:1;fill-rule:nonzero;stroke:none;stroke-width:2;marker:none;visibility:visible;display:inline;overflow:visible;enable-background:accumulate"
         d="m 424,144 c -2.20914,0 -4,1.79086 -4,4 0,2.20914 1.79086,4 4,4 2.20913,0 4,-1.79086 4,-4 0,-2.20914 -1.79086,-4 -4,-4 z m 0,1 c 1.65685,0 3,1.34315 3,3 0,1.65685 -1.34315,3 -3,3 -1.65685,0 -3,-1.34315 -3,-3 0,-1.65685 1.34315,-3 3,-3 z"
         id="path4227" />
      <path
         style="fill:#000000;fill-opacity:1;fill-rule:evenodd;stroke:none;display:inline"
         d="m 424.65238,148.65238 -1.30476,-1.30476 5.52738,-4.22262 -4.22262,5.52738 z"
         id="path4229" />
      <path
         id="path4231"
         d="m 424.65238,148.65238 -1.30476,-1.30476 -4.22262,5.52738 5.52738,-4.22262 z"
         style="fill:#000000;fill-opacity:1;fill-rule:evenodd;stroke:none;display:inline" />
    </g>
    <g
       id="g4208"
       style="display:inline;enable-background:new"
       transform="translate(-416,-140)">
      <path
         id="path4048"
         d="m 418,148 2.25,0.75 0,-1.5 z"
         style="fill:#ffffff;fill-opacity:1;stroke:none" />
      <path
         style="fill:#ffffff;fill-opacity:1;stroke:none"
         d="m 430,148 -2.25,0.75 0,-1.5 z"
         id="path4050" />
      <path
         style="fill:#ffffff;fill-opacity:1;stroke:none;display:inline;enable-background:new"
         d="m 424,142 -0.75,2.25 1.5,0 z"
         id="path4052" />
      <path
         id="path4054"
         d="m 424,154 -0.75,-2.25 1.5,0 z"
         style="fill:#ffffff;fill-opacity:1;stroke:none;display:inline;enable-background:new" />
      <path
         id="path4056"
         d="m 424,144 c -2.20914,0 -4,1.79086 -4,4 0,2.20914 1.79086,4 4,4 2.20913,0 4,-1.79086 4,-4 0,-2.20914 -1.79086,-4 -4,-4 z m 0,1 c 1.65685,0 3,1.34315 3,3 0,1.65685 -1.34315,3 -3,3 -1.65685,0 -3,-1.34315 -3,-3 0,-1.65685 1.34315,-3 3,-3 z"
         style="color:#000000;fill:#ffffff;fill-opacity:1;fill-rule:nonzero;stroke:none;stroke-width:2;marker:none;visibility:visible;display:inline;overflow:visible;enable-background:accumulate" />
      <path
         id="path4060"
         d="m 424.65238,148.65238 -1.30476,-1.30476 5.52738,-4.22262 -4.22262,5.52738 z"
         style="fill:#ef5a5a;fill-opacity:1;fill-rule:evenodd;stroke:none;display:inline" />
      <path
         style="fill:url(#linearGradient4203);fill-opacity:1;fill-rule:evenodd;stroke:none;display:inline"
         d="m 424.65238,148.65238 -1.30476,-1.30476 -4.22262,5.52738 5.52738,-4.22262 z"
         id="path4062" />
    </g>
    <g
       id="g3937">
      <path
         style="fill:url(#linearGradient3892);fill-opacity:1;stroke:none"
         d="m 11.5,9.5 0,2 -2,0 0,2 2,0 0,2 2,0 0,-2 2,0 0,-2 -2,0 0,-2 -2,0 z"
         id="rect3881" />
      <path
         id="path3894"
         d="m 11.5,9.5 0,2 -2,0 0,2 2,0 0,2 2,0 0,-2 2,0 0,-2 -2,0 0,-2 -2,0 z"
         style="opacity:0.81000001;fill:none;stroke:url(#linearGradient3902);stroke-width:1;stroke-linejoin:miter;stroke-miterlimit:4;stroke-opacity:1;stroke-dasharray:none" />
      <path
         style="opacity:0.1;fill:#d4f3ff;fill-opacity:1;stroke:none"
         d="m 12,10 0,1 1,0 0,-1 -1,0 z m -2,2 0,1 2,0 0,-1 -2,0 z m 3,0 0,1 2,0 0,-1 -2,0 z"
         id="rect3910" />
    </g>
  </g>
</svg>
