<?xml version="1.0" encoding="UTF-8" standalone="no"?>
<svg
   xmlns:dc="http://purl.org/dc/elements/1.1/"
   xmlns:cc="http://creativecommons.org/ns#"
   xmlns:rdf="http://www.w3.org/1999/02/22-rdf-syntax-ns#"
   xmlns:svg="http://www.w3.org/2000/svg"
   xmlns="http://www.w3.org/2000/svg"
   xmlns:xlink="http://www.w3.org/1999/xlink"
   width="16"
   height="16"
   id="svg3495"
   version="1.1">
  <defs
     id="defs3497">
    <clipPath
       clipPathUnits="userSpaceOnUse"
       id="clipPath4307">
      <path
         d="m 168,265 c -3.86599,0 -7,3.13401 -7,7 0,3.86599 3.13401,7 7,7 3.866,0 7,-3.13401 7,-7 0,-3.86599 -3.134,-7 -7,-7 z m 3.3125,3.0625 1.5625,1.40625 -5.25,6.9375 -4.0625,-3.5 1.34375,-1.78125 2.375,2.0625 4.03125,-5.125 z"
         id="path4309"
         style="color:#000000;fill:#36e12b;fill-opacity:1;fill-rule:nonzero;stroke:none;stroke-width:0.84323651;marker:none;visibility:visible;display:inline;overflow:visible;enable-background:accumulate" />
    </clipPath>
    <linearGradient
       xlink:href="#linearGradient3760"
       id="linearGradient3852"
       gradientUnits="userSpaceOnUse"
       gradientTransform="matrix(0.92857143,0,0,-0.92857143,-148,292.57143)"
       x1="168"
       y1="280"
       x2="168"
       y2="264" />
    <linearGradient
       id="linearGradient3760">
      <stop
         style="stop-color:#e44343;stop-opacity:1;"
         offset="0"
         id="stop3762" />
      <stop
         style="stop-color:#ac0808;stop-opacity:1;"
         offset="1"
         id="stop3764" />
    </linearGradient>
  </defs>
  <metadata
     id="metadata3500">
    <rdf:RDF>
      <cc:Work
         rdf:about="">
        <dc:format>image/svg+xml</dc:format>
        <dc:type
           rdf:resource="http://purl.org/dc/dcmitype/StillImage" />
        <dc:title />
      </cc:Work>
    </rdf:RDF>
  </metadata>
  <g
     id="layer1"
     transform="translate(0,-32)">
    <path
       style="color:#000000;fill:url(#linearGradient3852);fill-opacity:1;fill-rule:nonzero;stroke:none;stroke-width:0.84323651;marker:none;visibility:visible;display:inline;overflow:visible;enable-background:accumulate"
       id="path2922-6-6-0"
       d="m 8,46.5 c -3.5898479,0 -6.5,-2.910152 -6.5,-6.5 0,-3.589848 2.9101521,-6.5 6.5,-6.5 3.589857,0 6.5,2.910152 6.5,6.5 0,3.589848 -2.910143,6.5 -6.5,6.5 z" />
    <path
       transform="matrix(0,-1,-1,0,280,208)"
       d="m 168,265 c -3.86599,0 -7,3.13401 -7,7 0,3.86599 3.13401,7 7,7 3.866,0 7,-3.13401 7,-7 0,-3.86599 -3.134,-7 -7,-7 z"
       id="path4303"
       style="opacity:0.81000000000000005;color:#000000;fill:none;stroke:#790000;stroke-width:2;stroke-miterlimit:4;stroke-opacity:1;stroke-dasharray:none;marker:none;visibility:visible;display:inline;overflow:visible;enable-background:accumulate"
       clip-path="url(#clipPath4307)" />
    <path
       id="path3837"
       d="M 8,47 C 4.67445,47 2,44.32556 2,41 2,40.875084 2.0238103,40.747971 2.03125,40.625 2.3372524,43.659 4.8822969,46 8,46 11.117703,46 13.662748,43.659 13.96875,40.625 13.97619,40.747971 14,40.875084 14,41 c 0,3.32556 -2.67445,6 -6,6 z"
       style="opacity:0.2;color:#000000;fill:#000000;fill-opacity:1;fill-rule:nonzero;stroke:none;stroke-width:0.84323650999999999;marker:none;visibility:visible;display:inline;overflow:visible;enable-background:accumulate" />
    <path
       style="color:#000000;fill:#ffffff;fill-opacity:1;fill-rule:nonzero;stroke:none;stroke-width:0.84323650999999999;marker:none;visibility:visible;display:inline;overflow:visible;enable-background:accumulate;opacity:0.4"
       d="M 8 2 C 4.67445 2 2 4.67444 2 8 C 2 8.1249155 2.0238103 8.2520291 2.03125 8.375 C 2.3372524 5.3410002 4.8822969 3 8 3 C 11.117703 3 13.662748 5.3410002 13.96875 8.375 C 13.97619 8.2520291 14 8.1249155 14 8 C 14 4.67444 11.32555 2 8 2 z "
       transform="translate(0,32)"
       id="path3822" />
  </g>
  <g
     id="layer2"
     style="display:inline">
    <rect
       y="6"
       x="4"
       height="2"
       width="8"
       id="rect3820"
       style="fill:#000000;fill-opacity:1;stroke:none;opacity:0.3" />
    <rect
       style="opacity:1;fill:#ffffff;fill-opacity:1;stroke:none"
       id="rect3050"
       width="8"
       height="2"
       x="4"
       y="7" />
  </g>
</svg>
