<?xml version="1.0" encoding="UTF-8" standalone="no"?>
<svg
   xmlns:dc="http://purl.org/dc/elements/1.1/"
   xmlns:cc="http://creativecommons.org/ns#"
   xmlns:rdf="http://www.w3.org/1999/02/22-rdf-syntax-ns#"
   xmlns:svg="http://www.w3.org/2000/svg"
   xmlns="http://www.w3.org/2000/svg"
   xmlns:xlink="http://www.w3.org/1999/xlink"
   width="16px"
   height="16px"
   id="svg5400"
   version="1.1">
  <defs
     id="defs5402">
    <linearGradient
       id="linearGradient3804">
      <stop
         style="stop-color:#ffffff;stop-opacity:1;"
         offset="0"
         id="stop3806" />
      <stop
         style="stop-color:#ffffff;stop-opacity:0;"
         offset="1"
         id="stop3808" />
    </linearGradient>
    <linearGradient
       id="outerBackgroundGradient-4">
      <stop
         style="stop-color:#f0f0f0;stop-opacity:1;"
         offset="0"
         id="stop3864-8-6-6" />
      <stop
         style="stop-color:#f9f9f9;stop-opacity:1;"
         offset="1"
         id="stop3866-9-1-7" />
    </linearGradient>
    <linearGradient
       xlink:href="#linearGradient3804"
       id="linearGradient3852"
       gradientUnits="userSpaceOnUse"
       gradientTransform="translate(2,1)"
       x1="5"
       y1="1"
       x2="5"
       y2="14" />
    <linearGradient
       xlink:href="#outerBackgroundGradient-4"
       id="linearGradient3855"
       gradientUnits="userSpaceOnUse"
       gradientTransform="matrix(0.05555556,0,0,0.05714289,0,-1.1428659)"
       x1="144"
       y1="280.00003"
       x2="144"
       y2="40.00005" />
  </defs>
  <metadata
     id="metadata5405">
    <rdf:RDF>
      <cc:Work
         rdf:about="">
        <dc:format>image/svg+xml</dc:format>
        <dc:type
           rdf:resource="http://purl.org/dc/dcmitype/StillImage" />
        <dc:title />
      </cc:Work>
    </rdf:RDF>
  </metadata>
  <g
     id="layer1">
    <path
       id="path3862"
       d="M 13.999996,3 14,13 C 10,13 5.999999,13 2,13 L 2,3 z"
       style="opacity:0.10000000000000001;color:#bebebe;fill:none;stroke:#1a68d3;stroke-width:4;stroke-linejoin:round;stroke-miterlimit:4;stroke-opacity:1;stroke-dasharray:none;marker:none;visibility:visible;display:inline;overflow:visible;enable-background:accumulate" />
    <path
       style="opacity:0.4;color:#bebebe;fill:none;stroke:#1a68d3;stroke-width:3;stroke-linejoin:round;stroke-miterlimit:4;stroke-opacity:1;stroke-dasharray:none;marker:none;visibility:visible;display:inline;overflow:visible;enable-background:accumulate"
       d="M 13.999996,3 14,13 C 10,13 5.999999,13 2,13 L 2,3 z"
       id="path3860" />
    <path
       id="path3029"
       d="M 13.999996,3 14,13 C 10,13 5.999999,13 2,13 L 2,3 z"
       style="opacity:0.61;color:#bebebe;fill:none;stroke:#1a68d3;stroke-width:2;stroke-linejoin:round;stroke-miterlimit:4;stroke-opacity:1;stroke-dasharray:none;marker:none;visibility:visible;display:inline;overflow:visible;enable-background:accumulate" />
    <path
       style="color:#bebebe;fill:url(#linearGradient3855);fill-opacity:1;fill-rule:nonzero;stroke:none;stroke-width:0;marker:none;visibility:visible;display:inline;overflow:visible;enable-background:accumulate"
       d="M 13.999996,3 14,13 C 10,13 5.999999,13 2,13 L 2,3 z"
       id="rect3373-6" />
    <path
       style="color:#bebebe;fill:url(#linearGradient3852);fill-opacity:1;fill-rule:nonzero;stroke:none;stroke-width:0;marker:none;visibility:visible;display:inline;overflow:visible;enable-background:accumulate"
       d="M 14,3 2,3 2,13 14,13 14,3 z m -1,1 0,8 -10,0 0,-8 10,0 z"
       id="path3799" />
    <path
       style="font-size:medium;font-style:normal;font-variant:normal;font-weight:normal;font-stretch:normal;text-indent:0;text-align:start;text-decoration:none;line-height:normal;letter-spacing:normal;word-spacing:normal;text-transform:none;direction:ltr;block-progression:tb;writing-mode:lr-tb;text-anchor:start;baseline-shift:baseline;opacity:0.4;color:#000000;fill:#000000;fill-opacity:1;stroke:none;stroke-width:0.5;marker:none;visibility:visible;display:inline;overflow:visible;enable-background:accumulate;font-family:Sans;-inkscape-font-specification:Sans"
       d="M 3.15625,4.5625 3,4.75 2.84375,4.9375 6.125,8.0625 l -3.03125,3 -0.03125,0 L 3.25,11.25 3.4375,11.4375 3.6875,11.21875 6.71875,8.5625 7.6875,9.375 7.84375,9.53125 8,9.65625 8.15625,9.53125 8.3125,9.375 9.28125,8.5625 12.3125,11.21875 12.59375,11.4375 12.75,11.25 l 0.1875,-0.1875 -0.03125,0 -3.03125,-3 3.28125,-3.125 L 13,4.75 12.84375,4.5625 8,8.34375 3.15625,4.5625 z"
       id="path3886" />
    <path
       style="opacity:0.60999999999999999;color:#bebebe;fill:none;stroke:none;stroke-width:2;stroke-linejoin:round;stroke-miterlimit:4;stroke-opacity:1;stroke-dasharray:none;marker:none;visibility:visible;display:inline;overflow:visible;enable-background:accumulate"
       d="M 13.999996,3 14,13 C 10,13 5.999999,13 2,13 L 2,3 z"
       id="path3858" />
  </g>
  <g
     id="layer2" />
</svg>
