<?xml version="1.0" encoding="UTF-8" standalone="no"?>
<svg xmlns="http://www.w3.org/2000/svg" xmlns:xlink="http://www.w3.org/1999/xlink" xmlns:sodipodi="http://sodipodi.sourceforge.net/DTD/sodipodi-0.dtd" xmlns:inkscape="http://www.inkscape.org/namespaces/inkscape" width="16" height="16" version="1.1">
 <defs id="defs5402">
  <linearGradient id="linearGradient3821">
   <stop id="stop3823" stop-color="#555555"/>
   <stop offset="1" id="stop3825" stop-color="#666666"/>
  </linearGradient>
  <linearGradient id="linearGradient3904">
   <stop id="stop3906" stop-color="#104b88"/>
   <stop id="stop3908" offset="1" stop-color="#0e7398"/>
  </linearGradient>
  <linearGradient inkscape:collect="always" id="linearGradient3886">
   <stop id="stop3888" stop-color="#5097e1"/>
   <stop offset="1" id="stop3890" stop-color="#53d0ff"/>
  </linearGradient>
  <linearGradient inkscape:collect="always" id="linearGradient3804">
   <stop id="stop3806" stop-color="#ffffff"/>
   <stop offset="1" id="stop3808" stop-color="#ffffff" stop-opacity="0"/>
  </linearGradient>
  <linearGradient inkscape:collect="always" xlink:href="#linearGradient3804" id="linearGradient6750" x1="443.5" y1="-178.5" x2="444" y2="-175.5" gradientUnits="userSpaceOnUse" gradientTransform="translate(-433,180.00027)"/>
  <linearGradient inkscape:collect="always" xlink:href="#linearGradient3804" id="linearGradient6736" x1="435" x2="438" gradientUnits="userSpaceOnUse"/>
  <linearGradient inkscape:collect="always" xlink:href="#linearGradient5621" id="linearGradient5956" y1="63.937" x2="0" y2="47.937" gradientUnits="userSpaceOnUse" gradientTransform="translate(-1400.9375,-47.937495)"/>
  <linearGradient id="linearGradient5621">
   <stop id="stop5623" stop-color="#0b0b0b"/>
   <stop offset="1" id="stop5625" stop-color="#585858"/>
  </linearGradient>
  <linearGradient id="linearGradient8589">
   <stop id="stop8591" stop-color="#fefefe"/>
   <stop id="stop8593" offset="1" stop-color="#cbcbcb"/>
  </linearGradient>
  <radialGradient cx="102" cy="112.3" r="139.56" id="XMLID_8_" gradientUnits="userSpaceOnUse">
   <stop id="stop41" stop-color="#b7b8b9"/>
   <stop id="stop47" offset="0.189" stop-color="#ececec"/>
   <stop id="stop49" offset="0.257" stop-color="#fafafa" stop-opacity="0"/>
   <stop id="stop51" offset="0.301" stop-color="#ffffff" stop-opacity="0"/>
   <stop id="stop53" offset="0.531" stop-color="#fafafa" stop-opacity="0"/>
   <stop id="stop55" offset="0.845" stop-color="#ebecec" stop-opacity="0"/>
   <stop id="stop57" offset="1" stop-color="#e1e2e3" stop-opacity="0"/>
  </radialGradient>
  <linearGradient inkscape:collect="always" xlink:href="#linearGradient3804" id="linearGradient6701" y1="-180" x2="0" y2="-164" gradientUnits="userSpaceOnUse"/>
  <clipPath id="clipPath6691">
   <path id="path6693" d="m 914,-179.00027 8,-1e-5 4,3 0,11 -12,0 z"/>
  </clipPath>
  <linearGradient id="outerBackgroundGradient-4">
   <stop id="stop3864-8-6-6" stop-color="#f0f0f0"/>
   <stop offset="1" id="stop3866-9-1-7" stop-color="#f9f9f9"/>
  </linearGradient>
  <linearGradient inkscape:collect="always" xlink:href="#outerBackgroundGradient-4" id="linearGradient3829" gradientUnits="userSpaceOnUse" gradientTransform="matrix(0,-0.05555556,0.05714289,0,-3.1428659,15)" y1="280" x2="0" y2="40"/>
  <linearGradient inkscape:collect="always" xlink:href="#linearGradient3804" id="linearGradient3831" gradientUnits="userSpaceOnUse" y1="1" x2="0" y2="14" gradientTransform="matrix(0,-1,1,0,-1,13)"/>
  <linearGradient inkscape:collect="always" xlink:href="#linearGradient3886" id="linearGradient3892" y1="15" x2="0" y2="9" gradientUnits="userSpaceOnUse" gradientTransform="translate(0.5,0.5)"/>
  <linearGradient inkscape:collect="always" xlink:href="#linearGradient3886" id="linearGradient4041" y1="16" x2="0" y2="0" gradientUnits="userSpaceOnUse"/>
  <linearGradient inkscape:collect="always" xlink:href="#linearGradient3904" id="linearGradient4156" y1="16" x2="0" y2="0" gradientUnits="userSpaceOnUse"/>
  <linearGradient inkscape:collect="always" xlink:href="#linearGradient3821" id="linearGradient4241" y1="16" x2="0" y2="0" gradientUnits="userSpaceOnUse"/>
  <linearGradient inkscape:collect="always" xlink:href="#linearGradient3821" id="linearGradient3962" y1="16" x2="0" y2="0" gradientUnits="userSpaceOnUse" gradientTransform="matrix(-1,0,0,1,16,0)"/>
  <linearGradient inkscape:collect="always" xlink:href="#linearGradient3821" id="linearGradient3848" gradientUnits="userSpaceOnUse" y1="16" x2="0" y2="0" gradientTransform="translate(9,16)"/>
  <linearGradient inkscape:collect="always" xlink:href="#linearGradient3821" id="linearGradient3993" gradientUnits="userSpaceOnUse" gradientTransform="translate(10,19)" y1="16" x2="0" y2="0"/>
  <linearGradient inkscape:collect="always" xlink:href="#linearGradient3821" id="linearGradient4000" gradientUnits="userSpaceOnUse" gradientTransform="translate(8,18)" y1="16" x2="0" y2="0"/>
 </defs>
 <metadata id="metadata5405"/>
 <g id="layer1" inkscape:label="Layer 1" inkscape:groupmode="layer">
  <use xlink:href="#g3843" id="use4002" transform="translate(-3,0)" width="16" height="16"/>
  <g id="g3843" transform="translate(-8,-18)">
   <path id="path3053" d="m 17.5,20.15625 -0.78125,0.5625 -4.84375,3.375 -0.59375,0.40625 0.59375,0.40625 4.84375,3.375 0.78125,0.5625 0,-0.96875 0,-1.375 1,0 c 0.810396,0 1.520638,0.546229 1.71875,1.15625 0.06954,0.214127 -0.08428,0.916178 -0.375,1.5 -0.290717,0.583822 -0.625,1.0625 -0.625,1.0625 l -0.9375,1.3125 1.53125,-0.5625 c 0,0 0.808734,-0.299792 1.625,-0.9375 0.816266,-0.637708 1.6875,-1.669872 1.6875,-3.09375 0,-1.278038 -0.402386,-2.393091 -1.15625,-3.1875 C 21.214886,22.955591 20.118138,22.5 18.875,22.5 l -1.375,0 0,-1.375 0,-0.96875 z" inkscape:connector-curvature="0" color="#bebebe" fill="url(#linearGradient4000)"/>
   <path id="path4400-3-3-2" d="M 17,21.125 12.15625,24.5 12.875,25 17,22.125 l 0,-1 z m 0,1.875 0,1 1.875,0 c 2.062756,0 3.494629,1.346794 3.71875,3.375 C 22.615723,27.232864 22.625,27.089844 22.625,26.9375 22.625,24.594859 21.125,23 18.875,23 L 17,23 z m 3.65625,5.46875 C 20.382707,29.438314 19.625,30.5 19.625,30.5 c 0,0 0.336806,-0.149306 0.78125,-0.40625 0.246591,-0.555917 0.420954,-1.163577 0.28125,-1.59375 -0.0041,-0.01275 -0.02682,-0.01859 -0.03125,-0.03125 z" inkscape:connector-curvature="0" opacity="0.2" color="#bebebe" stroke-width="0" fill="#ffffff"/>
   <path d="m 17.5,20.15625 -0.78125,0.5625 -4.84375,3.375 -0.59375,0.40625 0.59375,0.40625 4.84375,3.375 0.78125,0.5625 0,-0.96875 0,-1.375 1,0 c 0.810396,0 1.520638,0.546229 1.71875,1.15625 0.06954,0.214127 -0.08428,0.916178 -0.375,1.5 -0.290717,0.583822 -0.625,1.0625 -0.625,1.0625 l -0.9375,1.3125 1.53125,-0.5625 c 0,0 0.808734,-0.299792 1.625,-0.9375 0.816266,-0.637708 1.6875,-1.669872 1.6875,-3.09375 0,-1.278038 -0.402386,-2.393091 -1.15625,-3.1875 C 21.214886,22.955591 20.118138,22.5 18.875,22.5 l -1.375,0 0,-1.375 0,-0.96875 z" id="path3838" inkscape:connector-curvature="0" opacity="0.61" color="#bebebe" fill="none" stroke="#000000"/>
  </g>
 </g>
</svg>
