<?xml version="1.0" encoding="UTF-8" standalone="no"?>
<svg xmlns="http://www.w3.org/2000/svg" xmlns:xlink="http://www.w3.org/1999/xlink" xmlns:sodipodi="http://sodipodi.sourceforge.net/DTD/sodipodi-0.dtd" xmlns:inkscape="http://www.inkscape.org/namespaces/inkscape" width="16" height="16" version="1.1">
 <defs id="defs3497">
  <linearGradient id="linearGradient3831">
   <stop id="stop3833" stop-color="#ffffff"/>
   <stop offset="1" id="stop3835" stop-color="#ffffff" stop-opacity="0"/>
  </linearGradient>
  <linearGradient id="linearGradient3760">
   <stop id="stop3762" stop-color="#e44343"/>
   <stop offset="1" id="stop3764" stop-color="#ac0808"/>
  </linearGradient>
  <linearGradient inkscape:collect="always" xlink:href="#linearGradient3760" id="linearGradient3766" x1="0.5" x2="15.5" gradientUnits="userSpaceOnUse" gradientTransform="matrix(0,1,-1,0,16,0)"/>
  <linearGradient inkscape:collect="always" xlink:href="#linearGradient3831" id="linearGradient3837" x1="0" x2="16" gradientUnits="userSpaceOnUse" gradientTransform="matrix(0,1,-1,0,48,32)"/>
 </defs>
 <metadata id="metadata3500"/>
 <g id="layer1" inkscape:label="Layer 1" inkscape:groupmode="layer" transform="translate(0,-32)">
  <path d="M 5.375 1.5 L 1.5 5.375 L 1.5 10.625 L 5.375 14.5 L 10.625 14.5 L 14.5 10.625 L 14.5 5.375 L 10.625 1.5 L 5.375 1.5 z " transform="translate(0,32)" id="rect2987" fill="url(#linearGradient3766)"/>
  <g id="g3839" transform="matrix(0.5,0,0,0.5,-156,-87)" opacity="0.3" enable-background="new">
   <path sodipodi:nodetypes="cccccccccc" inkscape:connector-curvature="0" d="m 423,144 c 0,3.34879 0.003,4.31525 0,5 l 2,0 c -0.005,-2 -0.009,-3.00002 0,-5 z m 0,6 0,2 2,0 0,-2 z" transform="matrix(2,0,0,2,-520,-40)" id="path3841"/>
  </g>
  <g transform="matrix(0.5,0,0,0.5,-156,-88)" id="g3982" fill="#ffffff" enable-background="new">
   <path id="path3984" transform="matrix(2,0,0,2,-520,-40)" d="m 423,144 c 0,3.34879 0.003,4.31525 0,5 l 2,0 c -0.005,-2 -0.009,-3.00002 0,-5 z m 0,6 0,2 2,0 0,-2 z" inkscape:connector-curvature="0" sodipodi:nodetypes="cccccccccc"/>
  </g>
  <path id="path3791" transform="translate(0,32)" d="M 5.375 1.5 L 1.5 5.375 L 1.5 10.625 L 5.375 14.5 L 10.625 14.5 L 14.5 10.625 L 14.5 5.375 L 10.625 1.5 L 5.375 1.5 z " opacity="0.81" fill="none" stroke="#790000"/>
  <path d="M 5.5625 2 L 2 5.5625 L 2 6.5625 L 5.5625 3 L 10.4375 3 L 14 6.5625 L 14 5.5625 L 10.4375 2 L 5.5625 2 z " transform="translate(0,32)" id="path3793" opacity="0.4" fill="#ffffff"/>
 </g>
</svg>
