<?xml version="1.0" encoding="UTF-8" standalone="no"?>
<svg xmlns="http://www.w3.org/2000/svg" xmlns:xlink="http://www.w3.org/1999/xlink" xmlns:sodipodi="http://sodipodi.sourceforge.net/DTD/sodipodi-0.dtd" xmlns:inkscape="http://www.inkscape.org/namespaces/inkscape" width="16" height="16" version="1.1">
 <defs id="defs5402">
  <linearGradient id="linearGradient3821">
   <stop id="stop3823" stop-color="#555555"/>
   <stop offset="1" id="stop3825" stop-color="#666666"/>
  </linearGradient>
  <linearGradient id="linearGradient3904">
   <stop id="stop3906" stop-color="#104b88"/>
   <stop id="stop3908" offset="1" stop-color="#0e7398"/>
  </linearGradient>
  <linearGradient inkscape:collect="always" id="linearGradient3886">
   <stop id="stop3888" stop-color="#5097e1"/>
   <stop offset="1" id="stop3890" stop-color="#53d0ff"/>
  </linearGradient>
  <linearGradient inkscape:collect="always" id="linearGradient3804">
   <stop id="stop3806" stop-color="#ffffff"/>
   <stop offset="1" id="stop3808" stop-color="#ffffff" stop-opacity="0"/>
  </linearGradient>
  <linearGradient inkscape:collect="always" xlink:href="#linearGradient3804" id="linearGradient6750" x1="443.5" y1="-178.5" x2="444" y2="-175.5" gradientUnits="userSpaceOnUse" gradientTransform="translate(-433,180.00027)"/>
  <linearGradient inkscape:collect="always" xlink:href="#linearGradient3804" id="linearGradient6736" x1="435" x2="438" gradientUnits="userSpaceOnUse"/>
  <linearGradient inkscape:collect="always" xlink:href="#linearGradient5621" id="linearGradient5956" y1="63.937" x2="0" y2="47.937" gradientUnits="userSpaceOnUse" gradientTransform="translate(-1400.9375,-47.937495)"/>
  <linearGradient id="linearGradient5621">
   <stop id="stop5623" stop-color="#0b0b0b"/>
   <stop offset="1" id="stop5625" stop-color="#585858"/>
  </linearGradient>
  <linearGradient id="linearGradient8589">
   <stop id="stop8591" stop-color="#fefefe"/>
   <stop id="stop8593" offset="1" stop-color="#cbcbcb"/>
  </linearGradient>
  <radialGradient cx="102" cy="112.3" r="139.56" id="XMLID_8_" gradientUnits="userSpaceOnUse">
   <stop id="stop41" stop-color="#b7b8b9"/>
   <stop id="stop47" offset="0.189" stop-color="#ececec"/>
   <stop id="stop49" offset="0.257" stop-color="#fafafa" stop-opacity="0"/>
   <stop id="stop51" offset="0.301" stop-color="#ffffff" stop-opacity="0"/>
   <stop id="stop53" offset="0.531" stop-color="#fafafa" stop-opacity="0"/>
   <stop id="stop55" offset="0.845" stop-color="#ebecec" stop-opacity="0"/>
   <stop id="stop57" offset="1" stop-color="#e1e2e3" stop-opacity="0"/>
  </radialGradient>
  <linearGradient inkscape:collect="always" xlink:href="#linearGradient3804" id="linearGradient6701" y1="-180" x2="0" y2="-164" gradientUnits="userSpaceOnUse"/>
  <clipPath id="clipPath6691">
   <path id="path6693" d="m 914,-179.00027 8,-1e-5 4,3 0,11 -12,0 z"/>
  </clipPath>
  <linearGradient id="outerBackgroundGradient-4">
   <stop id="stop3864-8-6-6" stop-color="#f0f0f0"/>
   <stop offset="1" id="stop3866-9-1-7" stop-color="#f9f9f9"/>
  </linearGradient>
  <linearGradient inkscape:collect="always" xlink:href="#outerBackgroundGradient-4" id="linearGradient3829" gradientUnits="userSpaceOnUse" gradientTransform="matrix(0,-0.05555556,0.05714289,0,-3.1428659,15)" y1="280" x2="0" y2="40"/>
  <linearGradient inkscape:collect="always" xlink:href="#linearGradient3804" id="linearGradient3831" gradientUnits="userSpaceOnUse" y1="1" x2="0" y2="14" gradientTransform="matrix(0,-1,1,0,-1,13)"/>
  <linearGradient inkscape:collect="always" xlink:href="#linearGradient3886" id="linearGradient3892" y1="15" x2="0" y2="9" gradientUnits="userSpaceOnUse" gradientTransform="translate(0.5,0.5)"/>
  <linearGradient inkscape:collect="always" xlink:href="#linearGradient3886" id="linearGradient4041" y1="16" x2="0" y2="0" gradientUnits="userSpaceOnUse"/>
  <linearGradient inkscape:collect="always" xlink:href="#linearGradient3904" id="linearGradient4156" y1="16" x2="0" y2="0" gradientUnits="userSpaceOnUse"/>
  <linearGradient inkscape:collect="always" xlink:href="#linearGradient3821" id="linearGradient4241" y1="16" x2="0" y2="0" gradientUnits="userSpaceOnUse"/>
  <linearGradient inkscape:collect="always" xlink:href="#linearGradient3821" id="linearGradient3962" y1="16" x2="0" y2="0" gradientUnits="userSpaceOnUse" gradientTransform="matrix(-1,0,0,1,16,0)"/>
 </defs>
 <metadata id="metadata5405"/>
 <g id="layer1" inkscape:label="Layer 1" inkscape:groupmode="layer">
  <path d="M 8.5,0.53125 7.71875,1.09375 1.25,5.59375 0.65625,6 1.25,6.40625 l 6.46875,4.5 0.78125,0.5625 0,-0.96875 0,-2 0.9375,0 c 1.151623,0 2.179158,0.7645629 2.46875,1.65625 0.124244,0.38257 -0.137013,1.333289 -0.53125,2.125 -0.394237,0.791711 -0.84375,1.4375 -0.84375,1.4375 l -0.9375,1.3125 1.53125,-0.5625 c 0,0 1.058734,-0.38573 2.125,-1.21875 1.066266,-0.83302 2.1875,-2.169872 2.1875,-4 0,-1.6684777 -0.527386,-3.1000762 -1.5,-4.125 C 12.964886,4.1000762 11.555638,3.5 9.9375,3.5 l -1.4375,0 0,-2 z" id="path4020" inkscape:connector-curvature="0" sodipodi:nodetypes="cccccccccssscccssssccc" color="#bebebe" fill="url(#linearGradient4241)"/>
  <path d="M 8,1.5 1.53125,6 2.25,6.5 8,2.5 z M 8,4 8,5 9.9375,5 c 2.864655,0 4.798375,1.9492459 4.96875,4.84375 0.0293,-0.1895142 0.03125,-0.390625 0.03125,-0.59375 0,-3.123521 -2,-5.25 -5,-5.25 z m 4.375,7 c -0.280322,1.357292 -1.4375,3 -1.4375,3 0,0 0.338472,-0.150365 0.8125,-0.40625 C 12.187301,12.741185 12.603912,11.704859 12.375,11 z" id="path4400-3-3" inkscape:connector-curvature="0" sodipodi:nodetypes="cccccccscssccccc" opacity="0.2" color="#bebebe" stroke-width="0" fill="#ffffff"/>
  <path id="path4037" d="M 8.5,0.53125 7.71875,1.09375 1.25,5.59375 0.65625,6 1.25,6.40625 l 6.46875,4.5 0.78125,0.5625 0,-0.96875 0,-2 0.9375,0 c 1.151623,0 2.179158,0.7645629 2.46875,1.65625 0.124244,0.38257 -0.137013,1.333289 -0.53125,2.125 -0.394237,0.791711 -0.84375,1.4375 -0.84375,1.4375 l -0.9375,1.3125 1.53125,-0.5625 c 0,0 1.058734,-0.38573 2.125,-1.21875 1.066266,-0.83302 2.1875,-2.169872 2.1875,-4 0,-1.6684777 -0.527386,-3.1000762 -1.5,-4.125 C 12.964886,4.1000762 11.555638,3.5 9.9375,3.5 l -1.4375,0 0,-2 z" inkscape:connector-curvature="0" sodipodi:nodetypes="cccccccccssscccssssccc" opacity="0.61" color="#bebebe" fill="none" stroke="#000000"/>
 </g>
</svg>
