<?xml version='1.0' encoding='UTF-8' standalone='no'?>
<svg height="16" xmlns:inkscape="http://www.inkscape.org/namespaces/inkscape" xmlns:sodipodi="http://sodipodi.sourceforge.net/DTD/sodipodi-0.dtd" version="1.1" width="16" xmlns="http://www.w3.org/2000/svg" enable-background="new">
 <metadata id="metadata90"/>
 <defs id="defs7386">
  <linearGradient id="linearGradient5606" osb:paint="solid">
   <stop id="stop5608"/>
  </linearGradient>
  <filter inkscape:collect="always" color-interpolation-filters="sRGB" id="filter7554">
   <feBlend inkscape:collect="always" id="feBlend7556" in2="BackgroundImage" mode="darken"/>
  </filter>
 </defs>
 <g inkscape:groupmode="layer" id="layer12" inkscape:label="actions" transform="translate(-361.0002,-169)">
  <path inkscape:connector-curvature="0" d="m 361.84395,170.00688 c -0.28125,0.0469 -0.84375,0.25 -0.84375,1 l 0,9 c 0,0 0,1 1,1 l 6,0 0,-4 c 0,0 7e-5,-0.0712 0,-0.0937 l -6.28125,-4.5 0.5625,-0.8125 6.03125,4.3125 c 0.29997,-0.44866 0.9383,-0.90625 1.6875,-0.90625 l 0.96875,0 4.75,-3.40625 0.5625,0.8125 -3.625,2.59375 3.34375,0 c 0.36709,0 0.71142,0.11486 1,0.28125 l 0,-4.28125 c 0,0 0,-1 -1,-1 l -14,0 c 0,0 -0.0625,-0.0156 -0.15625,0 z" id="path3015-9-2" fill="#bebebe"/>
  <path inkscape:connector-curvature="0" d="m 370.0002,184.00688 c -1,0 -1,-1 -1,-1 l 0,-6 c 0,-1 1,-1 1,-1 l 6,0 c 0,0 1,0 1,1 l 0,6 c 0,0 0,1 -1,1 z m 2,-1 2,0 0,-4 -2,0 z m 0,-5 2,0 0,-1 -2,0 z" id="path6872-9" sodipodi:nodetypes="ccccccccccccccccccc" fill="#f57900" color="#bebebe" stroke-width="2"/>
 </g>
</svg>
