<?xml version="1.0" encoding="UTF-8" standalone="no"?>
<svg xmlns="http://www.w3.org/2000/svg" xmlns:xlink="http://www.w3.org/1999/xlink" xmlns:sodipodi="http://sodipodi.sourceforge.net/DTD/sodipodi-0.dtd" xmlns:inkscape="http://www.inkscape.org/namespaces/inkscape" width="16" height="16" version="1.1">
 <defs id="defs3497">
  <linearGradient inkscape:collect="always" id="linearGradient3798">
   <stop id="stop3800" stop-color="#ffffff"/>
   <stop offset="1" id="stop3802" stop-color="#ffffff" stop-opacity="0"/>
  </linearGradient>
  <linearGradient inkscape:collect="always" id="linearGradient3767">
   <stop id="stop3769"/>
   <stop offset="1" id="stop3771" stop-opacity="0"/>
  </linearGradient>
  <linearGradient id="linearGradient3757">
   <stop id="stop3759" stop-color="#dddddd"/>
   <stop offset="1" id="stop3761" stop-color="#ebebeb"/>
  </linearGradient>
  <clipPath id="clipPath3669">
   <path d="M 0,96 96,96 96,0 0,0 0,96 z" id="path3671"/>
  </clipPath>
  <linearGradient inkscape:collect="always" xlink:href="#linearGradient3757" id="linearGradient3016" gradientUnits="userSpaceOnUse" gradientTransform="translate(0.51386413,-1)" y1="48" x2="0" y2="28"/>
  <linearGradient inkscape:collect="always" xlink:href="#linearGradient3767" id="linearGradient3018" gradientUnits="userSpaceOnUse" gradientTransform="translate(0.51386413,-1)" x1="17" y1="33" x2="2" y2="42"/>
  <linearGradient inkscape:collect="always" xlink:href="#linearGradient3798" id="linearGradient3020" gradientUnits="userSpaceOnUse" gradientTransform="translate(1,25)" x1="5" y1="14" x2="17" y2="7"/>
 </defs>
 <metadata id="metadata3500"/>
 <g id="layer1" inkscape:label="Layer 1" inkscape:groupmode="layer" transform="translate(0,-32)">
  <g id="g3008" transform="matrix(0.7500457,0,0,0.7500457,-0.65399104,12.724442)">
   <path sodipodi:nodetypes="ccccccccc" inkscape:connector-curvature="0" id="path6400" d="m 21.763866,29.535156 -20.000002,4.179688 3.7499998,2.929688 0,5.820312 4.375,-2.5 0,0 -1.25,-1.367188 5.0390692,3.632812 z" fill="url(#linearGradient3016)"/>
   <path d="m 19.966988,30.746094 -11.0546909,7.03125 -1.0937444,1.640624 -2.0546889,1.539064 0,-4.429688 z" id="path3755" inkscape:connector-curvature="0" sodipodi:nodetypes="cccccc" opacity="0.61" fill="url(#linearGradient3018)"/>
   <path d="m 21.763866,29.535156 -20.000002,4.179688 3.7499998,2.929688 0,5.820312 3.125,-3.867188 0,0 0,0 5.0390692,3.632812 z" id="path3765" inkscape:connector-curvature="0" sodipodi:nodetypes="ccccccccc" opacity="0.41" fill="none" stroke="#000000" stroke-linejoin="round" stroke-width="1.333"/>
   <path d="M 6.5138638,35.71875 17.513866,32" id="path3781" inkscape:connector-curvature="0" sodipodi:nodetypes="cc" opacity="0.41" fill="none" stroke="#ffffff" stroke-linecap="round" stroke-width="1.333"/>
   <path inkscape:connector-curvature="0" id="path3783" d="m 20.71875,30.28125 -0.75,0.15625 L 13.53125,40.5 8.9375,37.1875 8.5625,36.90625 8.25,37.28125 6,40.0625 l 0,1 2.25,-2.78125 0.3125,-0.375 0.375,0.28125 4.59375,3.3125 7.1875,-11.21875 z m -16.78125,3.5 -1,0.21875 2.875,2.25 0.1875,0.15625 0,-0.75 0,-0.25 L 5.8125,35.25 3.9375,33.78125 z m 5.03125,5.6875 -0.75,0.46875 -1.5,1.84375 3.03125,-1.75 -0.78125,-0.5625 z" fill="url(#linearGradient3020)"/>
   <path sodipodi:nodetypes="cccc" inkscape:connector-curvature="0" id="path3808" d="M 5,43.875 8.7156746,39.267859 10.5625,40.625 z" opacity="0.3"/>
  </g>
 </g>
</svg>
