<?xml version="1.0" encoding="UTF-8" standalone="no"?>
<!-- Created with Inkscape (http://www.inkscape.org/) -->

<svg
   xmlns:dc="http://purl.org/dc/elements/1.1/"
   xmlns:cc="http://creativecommons.org/ns#"
   xmlns:rdf="http://www.w3.org/1999/02/22-rdf-syntax-ns#"
   xmlns:svg="http://www.w3.org/2000/svg"
   xmlns="http://www.w3.org/2000/svg"
   xmlns:xlink="http://www.w3.org/1999/xlink"
   xmlns:sodipodi="http://sodipodi.sourceforge.net/DTD/sodipodi-0.dtd"
   xmlns:inkscape="http://www.inkscape.org/namespaces/inkscape"
   width="16px"
   height="16px"
   id="svg5400"
   version="1.1"
   inkscape:version="0.48.4 r9939"
   sodipodi:docname="media-playlist-shuffle-rtl.svg">
  <defs
     id="defs5402">
    <linearGradient
       id="linearGradient3821">
      <stop
         style="stop-color:#555555;stop-opacity:1;"
         offset="0"
         id="stop3823" />
      <stop
         style="stop-color:#666666;stop-opacity:1;"
         offset="1"
         id="stop3825" />
    </linearGradient>
    <linearGradient
       id="linearGradient3904">
      <stop
         id="stop3906"
         offset="0"
         style="stop-color:#104b88;stop-opacity:1;" />
      <stop
         id="stop3908"
         offset="1"
         style="stop-color:#0e7398;stop-opacity:1;" />
    </linearGradient>
    <linearGradient
       inkscape:collect="always"
       id="linearGradient3886">
      <stop
         style="stop-color:#5097e1;stop-opacity:1;"
         offset="0"
         id="stop3888" />
      <stop
         style="stop-color:#53d0ff;stop-opacity:1"
         offset="1"
         id="stop3890" />
    </linearGradient>
    <linearGradient
       inkscape:collect="always"
       id="linearGradient3804">
      <stop
         style="stop-color:#ffffff;stop-opacity:1;"
         offset="0"
         id="stop3806" />
      <stop
         style="stop-color:#ffffff;stop-opacity:0;"
         offset="1"
         id="stop3808" />
    </linearGradient>
    <linearGradient
       inkscape:collect="always"
       xlink:href="#linearGradient6744"
       id="linearGradient6750"
       x1="443.5"
       y1="-178.50027"
       x2="444"
       y2="-175.50027"
       gradientUnits="userSpaceOnUse"
       gradientTransform="translate(-433,180.00027)" />
    <linearGradient
       inkscape:collect="always"
       id="linearGradient6744">
      <stop
         style="stop-color:#ffffff;stop-opacity:1;"
         offset="0"
         id="stop6746" />
      <stop
         style="stop-color:#ffffff;stop-opacity:0;"
         offset="1"
         id="stop6748" />
    </linearGradient>
    <linearGradient
       inkscape:collect="always"
       xlink:href="#linearGradient6728"
       id="linearGradient6736"
       x1="435"
       y1="-163.5"
       x2="438"
       y2="-163.5"
       gradientUnits="userSpaceOnUse" />
    <linearGradient
       inkscape:collect="always"
       id="linearGradient6728">
      <stop
         style="stop-color:#ffffff;stop-opacity:1;"
         offset="0"
         id="stop6730" />
      <stop
         style="stop-color:#ffffff;stop-opacity:0;"
         offset="1"
         id="stop6732" />
    </linearGradient>
    <linearGradient
       inkscape:collect="always"
       xlink:href="#linearGradient6728"
       id="linearGradient6734"
       x1="435"
       y1="-163.5"
       x2="438"
       y2="-163.5"
       gradientUnits="userSpaceOnUse" />
    <linearGradient
       inkscape:collect="always"
       xlink:href="#linearGradient5621"
       id="linearGradient5956"
       x1="1407.9375"
       y1="63.937489"
       x2="1407.9375"
       y2="47.937496"
       gradientUnits="userSpaceOnUse"
       gradientTransform="translate(-1400.9375,-47.937495)" />
    <linearGradient
       id="linearGradient5621">
      <stop
         style="stop-color:#0b0b0b;stop-opacity:1"
         offset="0"
         id="stop5623" />
      <stop
         style="stop-color:#585858;stop-opacity:1"
         offset="1"
         id="stop5625" />
    </linearGradient>
    <linearGradient
       id="linearGradient8589">
      <stop
         id="stop8591"
         style="stop-color:#fefefe;stop-opacity:1"
         offset="0" />
      <stop
         id="stop8593"
         style="stop-color:#cbcbcb;stop-opacity:1"
         offset="1" />
    </linearGradient>
    <radialGradient
       cx="102"
       cy="112.3047"
       r="139.55859"
       id="XMLID_8_"
       gradientUnits="userSpaceOnUse">
      <stop
         id="stop41"
         style="stop-color:#b7b8b9;stop-opacity:1"
         offset="0" />
      <stop
         id="stop47"
         style="stop-color:#ececec;stop-opacity:1"
         offset="0.18851049" />
      <stop
         id="stop49"
         style="stop-color:#fafafa;stop-opacity:0"
         offset="0.25718147" />
      <stop
         id="stop51"
         style="stop-color:#ffffff;stop-opacity:0"
         offset="0.30111277" />
      <stop
         id="stop53"
         style="stop-color:#fafafa;stop-opacity:0"
         offset="0.53130001" />
      <stop
         id="stop55"
         style="stop-color:#ebecec;stop-opacity:0"
         offset="0.84490001" />
      <stop
         id="stop57"
         style="stop-color:#e1e2e3;stop-opacity:0"
         offset="1" />
    </radialGradient>
    <linearGradient
       inkscape:collect="always"
       xlink:href="#linearGradient6582"
       id="linearGradient6701"
       x1="920"
       y1="-180.00027"
       x2="920"
       y2="-164.00027"
       gradientUnits="userSpaceOnUse" />
    <linearGradient
       inkscape:collect="always"
       id="linearGradient6582">
      <stop
         style="stop-color:#ffffff;stop-opacity:1;"
         offset="0"
         id="stop6584" />
      <stop
         style="stop-color:#ffffff;stop-opacity:0;"
         offset="1"
         id="stop6586" />
    </linearGradient>
    <clipPath
       clipPathUnits="userSpaceOnUse"
       id="clipPath6691">
      <path
         sodipodi:nodetypes="cccccc"
         inkscape:connector-curvature="0"
         id="path6693"
         d="m 914,-179.00027 8,-1e-5 4,3 0,11 -12,0 z"
         style="color:#bebebe;fill:#ffffff;fill-opacity:0.57671958;fill-rule:nonzero;stroke:none;stroke-width:0;marker:none;visibility:visible;display:inline;overflow:visible;enable-background:accumulate" />
    </clipPath>
    <linearGradient
       id="outerBackgroundGradient-4">
      <stop
         style="stop-color:#f0f0f0;stop-opacity:1;"
         offset="0"
         id="stop3864-8-6-6" />
      <stop
         style="stop-color:#f9f9f9;stop-opacity:1;"
         offset="1"
         id="stop3866-9-1-7" />
    </linearGradient>
    <linearGradient
       inkscape:collect="always"
       xlink:href="#outerBackgroundGradient-4"
       id="linearGradient3829"
       gradientUnits="userSpaceOnUse"
       gradientTransform="matrix(0,-0.05555556,0.05714289,0,-3.1428659,15)"
       x1="144"
       y1="280.00003"
       x2="144"
       y2="40.00005" />
    <linearGradient
       inkscape:collect="always"
       xlink:href="#linearGradient3804"
       id="linearGradient3831"
       gradientUnits="userSpaceOnUse"
       x1="5"
       y1="1"
       x2="5"
       y2="14"
       gradientTransform="matrix(0,-1,1,0,-1,13)" />
    <linearGradient
       inkscape:collect="always"
       xlink:href="#linearGradient3886"
       id="linearGradient3892"
       x1="12"
       y1="15"
       x2="12"
       y2="9"
       gradientUnits="userSpaceOnUse"
       gradientTransform="translate(0.5,0.5)" />
    <linearGradient
       inkscape:collect="always"
       xlink:href="#linearGradient3886"
       id="linearGradient4041"
       x1="16"
       y1="16"
       x2="16"
       y2="0"
       gradientUnits="userSpaceOnUse" />
    <linearGradient
       inkscape:collect="always"
       xlink:href="#linearGradient3886"
       id="linearGradient4148"
       gradientUnits="userSpaceOnUse"
       x1="16"
       y1="16"
       x2="16"
       y2="0" />
    <linearGradient
       inkscape:collect="always"
       xlink:href="#linearGradient3904"
       id="linearGradient4156"
       x1="8"
       y1="16"
       x2="8"
       y2="0"
       gradientUnits="userSpaceOnUse" />
    <linearGradient
       inkscape:collect="always"
       xlink:href="#linearGradient3821"
       id="linearGradient4241"
       x1="8"
       y1="16"
       x2="8"
       y2="0"
       gradientUnits="userSpaceOnUse" />
    <linearGradient
       inkscape:collect="always"
       xlink:href="#linearGradient3821"
       id="linearGradient3846"
       x1="8"
       y1="16"
       x2="8"
       y2="0"
       gradientUnits="userSpaceOnUse"
       gradientTransform="matrix(-1,0,0,1,16.010603,0)" />
    <linearGradient
       inkscape:collect="always"
       xlink:href="#linearGradient3821"
       id="linearGradient3959"
       x1="8"
       y1="16"
       x2="8"
       y2="0"
       gradientUnits="userSpaceOnUse" />
    <linearGradient
       inkscape:collect="always"
       xlink:href="#linearGradient3821"
       id="linearGradient4006"
       gradientUnits="userSpaceOnUse"
       x1="8"
       y1="16"
       x2="8"
       y2="0" />
  </defs>
  <sodipodi:namedview
     id="base"
     pagecolor="#ffffff"
     bordercolor="#666666"
     borderopacity="1.0"
     inkscape:pageopacity="0.0"
     inkscape:pageshadow="2"
     inkscape:zoom="1"
     inkscape:cx="10.902395"
     inkscape:cy="9.3185695"
     inkscape:current-layer="layer1"
     showgrid="false"
     showborder="false"
     inkscape:grid-bbox="true"
     inkscape:document-units="px"
     inkscape:window-width="1364"
     inkscape:window-height="700"
     inkscape:window-x="0"
     inkscape:window-y="28"
     inkscape:window-maximized="1"
     inkscape:snap-bbox="true"
     inkscape:bbox-paths="true"
     inkscape:bbox-nodes="true"
     inkscape:snap-bbox-midpoints="true"
     inkscape:snap-bbox-edge-midpoints="true">
    <inkscape:grid
       type="xygrid"
       id="grid3025"
       empspacing="4"
       visible="true"
       enabled="true"
       snapvisiblegridlinesonly="true" />
  </sodipodi:namedview>
  <metadata
     id="metadata5405">
    <rdf:RDF>
      <cc:Work
         rdf:about="">
        <dc:format>image/svg+xml</dc:format>
        <dc:type
           rdf:resource="http://purl.org/dc/dcmitype/StillImage" />
        <dc:title></dc:title>
      </cc:Work>
    </rdf:RDF>
  </metadata>
  <g
     id="layer1"
     inkscape:label="Layer 1"
     inkscape:groupmode="layer">
    <path
       style="text-indent:0;text-transform:none;block-progression:tb;color:#000000;fill:url(#linearGradient3959);fill-opacity:1;stroke:none"
       d="M 5.5 0 L 5.5 1 L 5.5 2.5 L 4 2.5 C 2.0806197 2.5 0.5 4.0806197 0.5 6 L 0.5 10 C 0.5 11.91938 2.0806197 13.5 4 13.5 L 5 13.5 L 5.65625 13.5 L 9 13.5 L 12 13.5 C 13.91938 13.5 15.5 11.91938 15.5 10 L 15.5 6 C 15.5 4.0806197 13.91938 2.5 12 2.5 L 11.75 2.5 L 11 2.5 L 10.5 2.5 L 10.5 3 L 10.5 3.5 L 10.5 3.75 L 10.3125 3.59375 L 6.3125 0.59375 L 5.5 0 z M 10.5 4.25 L 10.5 4.5 L 10.5 5 L 10.5 5.5 L 11 5.5 L 11.75 5.5 L 12 5.5 C 12.321169 5.5 12.5 5.6788313 12.5 6 L 12.5 10 C 12.5 10.321169 12.321169 10.5 12 10.5 L 9 10.5 L 5.65625 10.5 L 5 10.5 L 4 10.5 C 3.6788313 10.5 3.5 10.321169 3.5 10 L 3.5 6 C 3.5 5.6788313 3.6788313 5.5 4 5.5 L 5.5 5.5 L 5.5 7 L 5.5 8 L 6.3125 7.40625 L 10.3125 4.40625 L 10.5 4.25 z "
       id="path3991-1" />
    <path
       id="path3951"
       d="M 5.5 0 L 5.5 1 L 5.5 2.5 L 4 2.5 C 2.0806197 2.5 0.5 4.0806197 0.5 6 L 0.5 10 C 0.5 11.91938 2.0806197 13.5 4 13.5 L 5 13.5 L 5.65625 13.5 L 9 13.5 L 12 13.5 C 13.91938 13.5 15.5 11.91938 15.5 10 L 15.5 6 C 15.5 4.0806197 13.91938 2.5 12 2.5 L 11.75 2.5 L 11 2.5 L 10.5 2.5 L 10.5 3 L 10.5 3.5 L 10.5 3.75 L 10.3125 3.59375 L 6.3125 0.59375 L 5.5 0 z M 10.5 4.25 L 10.5 4.5 L 10.5 5 L 10.5 5.5 L 11 5.5 L 11.75 5.5 L 12 5.5 C 12.321169 5.5 12.5 5.6788313 12.5 6 L 12.5 10 C 12.5 10.321169 12.321169 10.5 12 10.5 L 9 10.5 L 5.65625 10.5 L 5 10.5 L 4 10.5 C 3.6788313 10.5 3.5 10.321169 3.5 10 L 3.5 6 C 3.5 5.6788313 3.6788313 5.5 4 5.5 L 5.5 5.5 L 5.5 7 L 5.5 8 L 6.3125 7.40625 L 10.3125 4.40625 L 10.5 4.25 z "
       style="text-indent:0;text-transform:none;block-progression:tb;color:#000000;fill:none;fill-opacity:1;stroke:#000000;stroke-opacity:1;opacity:0.61" />
    <path
       style="text-indent:0;text-transform:none;block-progression:tb;color:#000000;fill:#ffffff;fill-opacity:1;stroke:none;opacity:0.2"
       d="M 6 1 L 6 2 L 6.03125 2 L 9.34375 4.5 L 10 4 L 6.03125 1 L 6 1 z M 4 3 C 2.3551214 3 1 4.3551214 1 6 L 1 7 C 1 5.3551214 2.3551214 4 4 4 L 5.5 4 L 6 4 L 6 3.5 L 6 3 L 5.5 3 L 4 3 z M 11 3 L 11 3.1875 L 11 3.5 L 11 3.75 L 11 4 L 11.75 4 L 12 4 C 13.644878 4 15 5.3551215 15 7 L 15 6 C 15 4.3551215 13.644878 3 12 3 L 11.75 3 L 11 3 z M 3 10 L 3 11 C 3 11.253387 3.084881 11.522381 3.28125 11.71875 C 3.4776195 11.915119 3.7466134 12 4 12 L 5 12 L 5.65625 12 L 9 12 L 12 12 C 12.253387 12 12.522381 11.91512 12.71875 11.71875 C 12.91512 11.522381 13 11.253387 13 11 L 13 10 C 13 10.253387 12.915119 10.522381 12.71875 10.71875 C 12.522381 10.91512 12.253387 11 12 11 L 9 11 L 5.65625 11 L 5 11 L 4 11 C 3.7466134 11 3.4776195 10.915119 3.28125 10.71875 C 3.084881 10.522381 3 10.253387 3 10 z "
       id="path3998" />
  </g>
</svg>
