<?xml version="1.0" encoding="UTF-8" standalone="no"?>
<svg
   xmlns:dc="http://purl.org/dc/elements/1.1/"
   xmlns:cc="http://creativecommons.org/ns#"
   xmlns:rdf="http://www.w3.org/1999/02/22-rdf-syntax-ns#"
   xmlns:svg="http://www.w3.org/2000/svg"
   xmlns="http://www.w3.org/2000/svg"
   xmlns:xlink="http://www.w3.org/1999/xlink"
   version="1.1"
   id="svg5400"
   height="16px"
   width="16px">
  <defs
     id="defs5402">
    <linearGradient
       id="linearGradient3821">
      <stop
         id="stop3823"
         offset="0"
         style="stop-color:#555555;stop-opacity:1;" />
      <stop
         id="stop3825"
         offset="1"
         style="stop-color:#666666;stop-opacity:1;" />
    </linearGradient>
    <linearGradient
       gradientUnits="userSpaceOnUse"
       y2="0"
       x2="8"
       y1="16"
       x1="8"
       id="linearGradient3846"
       xlink:href="#linearGradient3821" />
  </defs>
  <metadata
     id="metadata5405">
    <rdf:RDF>
      <cc:Work
         rdf:about="">
        <dc:format>image/svg+xml</dc:format>
        <dc:type
           rdf:resource="http://purl.org/dc/dcmitype/StillImage" />
        <dc:title />
      </cc:Work>
    </rdf:RDF>
  </metadata>
  <g
     id="layer1">
    <path
       id="path4544-6"
       d="m 10.5,0 0,1 0,1.5 -2.5,0 C 7.7067602,2.5 7.4414407,2.542161 7.21875,2.59375 l -0.8125,0.1875 0.5625,0.65625 C 7.4123123,3.9453894 7.728099,4.4952145 7.875,5.125 l 0.09375,0.375 0.40625,0 2.125,0 0,1.5 0,0 0.8125,0.40625 4,-3 L 15.84375,4 15.3125,3.59375 l -4,-3 z m 0,7 0,1 0,1.5 -2.5,0 C 7.6788313,9.5 7.5,9.321169 7.5,9 l 0,-3 C 7.5,4.0806197 5.9193803,2.5 4,2.5 l -3,0 -0.5,0 0,0.5 0,0.9375 0,1.0625 0,0.5 0.5,0 3,0 c 0.3211687,0 0.5,0.1788313 0.5,0.5 l 0,3 c 0,1.91938 1.7179001,2.78716 3.5,3.5 l 2.5,0 0,1.5 0,1 0.8125,-0.59375 4,-3 L 15.84375,11 15.3125,10.59375 l -4,-3 z m -10,2.5 0,0.5 0,2 0,0.5 0.5,0 3,0 c 0.2932398,0 0.5585593,-0.04216 0.78125,-0.09375 l 0.8125,-0.1875 -0.5625,-0.65625 C 4.5876642,11.054538 4.2718998,10.504781 4.125,9.875 L 4.03125,9.5 3.625,9.5 1,9.5 z"
       style="text-indent:0;text-transform:none;block-progression:tb;color:#bebebe;fill:url(#linearGradient3846);fill-opacity:1;stroke:none" />
    <path
       style="text-indent:0;text-transform:none;block-progression:tb;opacity:0.61000001;color:#bebebe;fill:none;stroke:#000000;stroke-linejoin:round;stroke-opacity:1"
       d="m 10.5,0 0,1 0,1.5 -2.5,0 C 7.7067602,2.5 7.4414407,2.542161 7.21875,2.59375 l -0.8125,0.1875 0.5625,0.65625 C 7.4123123,3.9453894 7.728099,4.4952145 7.875,5.125 l 0.09375,0.375 0.40625,0 2.125,0 0,1.5 0,0 0.8125,0.40625 4,-3 L 15.84375,4 15.3125,3.59375 l -4,-3 z m 0,7 0,1 0,1.5 -2.5,0 C 7.6788313,9.5 7.5,9.321169 7.5,9 l 0,-3 C 7.5,4.0806197 5.9193803,2.5 4,2.5 l -3,0 -0.5,0 0,0.5 0,0.9375 0,1.0625 0,0.5 0.5,0 3,0 c 0.3211687,0 0.5,0.1788313 0.5,0.5 l 0,3 c 0,1.91938 1.7179001,2.78716 3.5,3.5 l 2.5,0 0,1.5 0,1 0.8125,-0.59375 4,-3 L 15.84375,11 15.3125,10.59375 l -4,-3 z m -10,2.5 0,0.5 0,2 0,0.5 0.5,0 3,0 c 0.2932398,0 0.5585593,-0.04216 0.78125,-0.09375 l 0.8125,-0.1875 -0.5625,-0.65625 C 4.5876642,11.054538 4.2718998,10.504781 4.125,9.875 L 4.03125,9.5 3.625,9.5 1,9.5 z"
       id="path3855" />
    <path
       id="path3857"
       d="m 11,1 0,1 0.03125,0 3.3125,2.5 L 15,4 11.03125,1 z M 1,3 1,3.9375 1,4 4,4 C 5.6448786,4 7,5.3551214 7,7 L 7,6 C 7,4.3551214 5.6448786,3 4,3 z M 8,3 C 7.7546857,3 7.5397256,3.0483499 7.34375,3.09375 l 0,0.03125 C 7.5810947,3.3994038 7.7910426,3.6888901 7.96875,4 7.9796869,3.9998082 7.9889407,4 8,4 L 10.5,4 11,4 11,3.5 11,3 10.5,3 z m 3,5 0,1 0.03125,0 3.3125,2.5 L 15,11 11.03125,8 z m -4,1 0,1 c 0,0 0.08488,0.522381 0.28125,0.71875 C 7.4776195,10.915119 7.7647364,10.905895 8,11 l 2.5,0 0.5,0 0,-0.5 L 11,10 10.5,10 8,10 C 7.7466134,10 7.4776195,9.915119 7.28125,9.71875 7.08488,9.522381 7,9.253387 7,9 z m -6,1 0,1 2.625,0 c 0.083075,0.356153 0.2285422,0.688895 0.40625,1 0.2316648,-0.0041 0.4378622,-0.0504 0.625,-0.09375 l 0,-0.03125 C 4.1815617,11.326147 3.7911492,10.712306 3.625,10 z"
       style="text-indent:0;text-transform:none;block-progression:tb;opacity:0.2;color:#bebebe;fill:#ffffff;fill-opacity:1;stroke:none" />
  </g>
</svg>
