<?xml version="1.0" encoding="UTF-8" standalone="no"?>
<svg xmlns="http://www.w3.org/2000/svg" xmlns:xlink="http://www.w3.org/1999/xlink" xmlns:sodipodi="http://sodipodi.sourceforge.net/DTD/sodipodi-0.dtd" xmlns:inkscape="http://www.inkscape.org/namespaces/inkscape" width="16" height="16" version="1.1">
 <defs id="defs5402">
  <linearGradient id="linearGradient3821">
   <stop id="stop3823" stop-color="#555555"/>
   <stop offset="1" id="stop3825" stop-color="#666666"/>
  </linearGradient>
  <linearGradient id="linearGradient3904">
   <stop id="stop3906" stop-color="#104b88"/>
   <stop id="stop3908" offset="1" stop-color="#0e7398"/>
  </linearGradient>
  <linearGradient inkscape:collect="always" id="linearGradient3886">
   <stop id="stop3888" stop-color="#5097e1"/>
   <stop offset="1" id="stop3890" stop-color="#53d0ff"/>
  </linearGradient>
  <linearGradient inkscape:collect="always" id="linearGradient3804">
   <stop id="stop3806" stop-color="#ffffff"/>
   <stop offset="1" id="stop3808" stop-color="#ffffff" stop-opacity="0"/>
  </linearGradient>
  <linearGradient inkscape:collect="always" xlink:href="#linearGradient3804" id="linearGradient6750" x1="443.5" y1="-178.5" x2="444" y2="-175.5" gradientUnits="userSpaceOnUse" gradientTransform="translate(-433,180.00027)"/>
  <linearGradient inkscape:collect="always" xlink:href="#linearGradient3804" id="linearGradient6736" x1="435" x2="438" gradientUnits="userSpaceOnUse"/>
  <linearGradient inkscape:collect="always" xlink:href="#linearGradient5621" id="linearGradient5956" y1="63.937" x2="0" y2="47.937" gradientUnits="userSpaceOnUse" gradientTransform="translate(-1400.9375,-47.937495)"/>
  <linearGradient id="linearGradient5621">
   <stop id="stop5623" stop-color="#0b0b0b"/>
   <stop offset="1" id="stop5625" stop-color="#585858"/>
  </linearGradient>
  <linearGradient id="linearGradient8589">
   <stop id="stop8591" stop-color="#fefefe"/>
   <stop id="stop8593" offset="1" stop-color="#cbcbcb"/>
  </linearGradient>
  <radialGradient cx="102" cy="112.3" r="139.56" id="XMLID_8_" gradientUnits="userSpaceOnUse">
   <stop id="stop41" stop-color="#b7b8b9"/>
   <stop id="stop47" offset="0.189" stop-color="#ececec"/>
   <stop id="stop49" offset="0.257" stop-color="#fafafa" stop-opacity="0"/>
   <stop id="stop51" offset="0.301" stop-color="#ffffff" stop-opacity="0"/>
   <stop id="stop53" offset="0.531" stop-color="#fafafa" stop-opacity="0"/>
   <stop id="stop55" offset="0.845" stop-color="#ebecec" stop-opacity="0"/>
   <stop id="stop57" offset="1" stop-color="#e1e2e3" stop-opacity="0"/>
  </radialGradient>
  <linearGradient inkscape:collect="always" xlink:href="#linearGradient3804" id="linearGradient6701" y1="-180" x2="0" y2="-164" gradientUnits="userSpaceOnUse"/>
  <clipPath id="clipPath6691">
   <path id="path6693" d="m 914,-179.00027 8,-1e-5 4,3 0,11 -12,0 z"/>
  </clipPath>
  <linearGradient id="outerBackgroundGradient-4">
   <stop id="stop3864-8-6-6" stop-color="#f0f0f0"/>
   <stop offset="1" id="stop3866-9-1-7" stop-color="#f9f9f9"/>
  </linearGradient>
  <linearGradient inkscape:collect="always" xlink:href="#outerBackgroundGradient-4" id="linearGradient3829" gradientUnits="userSpaceOnUse" gradientTransform="matrix(0,-0.05555556,0.05714289,0,-3.1428659,15)" y1="280" x2="0" y2="40"/>
  <linearGradient inkscape:collect="always" xlink:href="#linearGradient3804" id="linearGradient3831" gradientUnits="userSpaceOnUse" y1="1" x2="0" y2="14" gradientTransform="matrix(0,-1,1,0,-1,13)"/>
  <linearGradient inkscape:collect="always" xlink:href="#linearGradient3886" id="linearGradient3892" y1="15" x2="0" y2="9" gradientUnits="userSpaceOnUse" gradientTransform="translate(0.5,0.5)"/>
  <linearGradient inkscape:collect="always" xlink:href="#linearGradient3886" id="linearGradient4041" y1="16" x2="0" y2="0" gradientUnits="userSpaceOnUse"/>
  <linearGradient inkscape:collect="always" xlink:href="#linearGradient3904" id="linearGradient4156" y1="16" x2="0" y2="0" gradientUnits="userSpaceOnUse"/>
  <linearGradient inkscape:collect="always" xlink:href="#linearGradient3821" id="linearGradient4241" y1="16" x2="0" y2="0" gradientUnits="userSpaceOnUse"/>
  <linearGradient inkscape:collect="always" xlink:href="#linearGradient3821" id="linearGradient3846" y1="16" x2="0" y2="0" gradientUnits="userSpaceOnUse" gradientTransform="matrix(-1,0,0,1,16.010603,0)"/>
  <linearGradient inkscape:collect="always" xlink:href="#linearGradient3821" id="linearGradient3959" y1="16" x2="0" y2="0" gradientUnits="userSpaceOnUse" gradientTransform="matrix(-1,0,0,1,16,0)"/>
  <linearGradient inkscape:collect="always" xlink:href="#outerBackgroundGradient-4" id="linearGradient3823" x1="11" x2="15" gradientUnits="userSpaceOnUse"/>
 </defs>
 <metadata id="metadata5405"/>
 <g id="layer1" inkscape:label="Layer 1" inkscape:groupmode="layer">
  <path d="m 10.5,0 0,1 0,1.5 1.5,0 c 1.91938,0 3.5,1.5806197 3.5,3.5 l 0,4 c 0,1.91938 -1.58062,3.5 -3.5,3.5 l -1,0 -0.65625,0 L 7,13.5 4,13.5 C 2.08062,13.5 0.50000002,11.91938 0.50000002,10 l 0,-4 C 0.50000002,4.0806197 2.08062,2.5 4,2.5 l 0.25,0 0.75,0 0.5,0 0,0.5 0,0.5 0,0.25 0.1875,-0.15625 4,-3 L 10.5,0 z m -5,4.25 0,0.25 0,0.5 0,0.5 L 5,5.5 4.25,5.5 4,5.5 C 3.678831,5.5 3.5,5.6788313 3.5,6 l 0,4 c 0,0.321169 0.178831,0.5 0.5,0.5 l 3,0 3.34375,0 0.65625,0 1,0 c 0.321169,0 0.5,-0.178831 0.5,-0.5 l 0,-4 C 12.5,5.6788313 12.321169,5.5 12,5.5 l -1.5,0 0,1.5 0,1 -0.8125,-0.59375 -4,-3 L 5.5,4.25 z" id="path3991-1" inkscape:connector-curvature="0" fill="url(#linearGradient3959)" color="#000000"/>
  <path id="path3951" d="m 10.5,0 0,1 0,1.5 1.5,0 c 1.91938,0 3.5,1.5806197 3.5,3.5 l 0,4 c 0,1.91938 -1.58062,3.5 -3.5,3.5 l -1,0 -0.65625,0 L 7,13.5 4,13.5 C 2.08062,13.5 0.50000002,11.91938 0.50000002,10 l 0,-4 C 0.50000002,4.0806197 2.08062,2.5 4,2.5 l 0.25,0 0.75,0 0.5,0 0,0.5 0,0.5 0,0.25 0.1875,-0.15625 4,-3 L 10.5,0 z m -5,4.25 0,0.25 0,0.5 0,0.5 L 5,5.5 4.25,5.5 4,5.5 C 3.678831,5.5 3.5,5.6788313 3.5,6 l 0,4 c 0,0.321169 0.178831,0.5 0.5,0.5 l 3,0 3.34375,0 0.65625,0 1,0 c 0.321169,0 0.5,-0.178831 0.5,-0.5 l 0,-4 C 12.5,5.6788313 12.321169,5.5 12,5.5 l -1.5,0 0,1.5 0,1 -0.8125,-0.59375 -4,-3 L 5.5,4.25 z" inkscape:connector-curvature="0" opacity="0.61" fill="none" stroke="#000000" color="#000000"/>
  <path d="M 10,1 10,2 9.96875,2 6.65625,4.5 6,4 9.96875,1 10,1 z m 2,2 c 1.644879,0 3,1.3551214 3,3 l 0,1 C 15,5.3551214 13.644879,4 12,4 L 10.5,4 10,4 10,3.5 10,3 10.5,3 12,3 z M 5,3 5,3.1875 5,3.5 5,3.75 5,4 4.25,4 4,4 C 2.355122,4 1,5.3551215 1,7 L 1,6 C 1,4.3551215 2.355122,3 4,3 L 4.25,3 5,3 z m 8,7 0,1 c 0,0.253387 -0.08488,0.522381 -0.28125,0.71875 C 12.522381,11.915119 12.253387,12 12,12 L 11,12 10.34375,12 7,12 4,12 C 3.746613,12 3.477619,11.91512 3.28125,11.71875 3.08488,11.522381 3,11.253387 3,11 l 0,-1 c 0,0.253387 0.084881,0.522381 0.28125,0.71875 C 3.477619,10.91512 3.746613,11 4,11 l 3,0 3.34375,0 0.65625,0 1,0 c 0.253387,0 0.522381,-0.08488 0.71875,-0.28125 C 12.915119,10.522381 13,10.253387 13,10 z" id="path3998" inkscape:connector-curvature="0" opacity="0.2" fill="#ffffff" color="#000000"/>
  <path sodipodi:type="arc" id="path3042" sodipodi:cx="13" sodipodi:cy="13" sodipodi:rx="2" sodipodi:ry="2" d="m 15,13 a 2,2 0 1 1 -4,0 2,2 0 1 1 4,0 z" transform="matrix(0,-1.75,-1.75,0,26.75,34.75)" fill="url(#linearGradient3823)"/>
  <path transform="matrix(-1.75,0,0,1.75,26.75,-10.75)" d="m 15,13 a 2,2 0 1 1 -4,0 2,2 0 1 1 4,0 z" sodipodi:ry="2" sodipodi:rx="2" sodipodi:cy="13" sodipodi:cx="13" id="path3814" sodipodi:type="arc" opacity="0.61" fill="none" stroke="#000000" stroke-width="0.571"/>
  <path d="m 4,10.5 0.5,0 0,3 -0.5,0 0,-2.1 -0.5,0 0,-0.3 C 4,11.1 4,10.5 4,10.5 z" id="path5102" inkscape:connector-curvature="0" sodipodi:nodetypes="cccccccc" color="#bebebe" stroke-width="2"/>
 </g>
</svg>
