<?xml version="1.0" encoding="UTF-8" standalone="no"?>
<svg xmlns="http://www.w3.org/2000/svg" xmlns:xlink="http://www.w3.org/1999/xlink" xmlns:sodipodi="http://sodipodi.sourceforge.net/DTD/sodipodi-0.dtd" xmlns:inkscape="http://www.inkscape.org/namespaces/inkscape" width="16" height="16" version="1.1">
 <defs id="defs5402">
  <linearGradient id="linearGradient3821">
   <stop id="stop3823" stop-color="#555555"/>
   <stop offset="1" id="stop3825" stop-color="#666666"/>
  </linearGradient>
  <linearGradient id="linearGradient3904">
   <stop id="stop3906" stop-color="#104b88"/>
   <stop id="stop3908" offset="1" stop-color="#0e7398"/>
  </linearGradient>
  <linearGradient inkscape:collect="always" id="linearGradient3886">
   <stop id="stop3888" stop-color="#5097e1"/>
   <stop offset="1" id="stop3890" stop-color="#53d0ff"/>
  </linearGradient>
  <linearGradient inkscape:collect="always" id="linearGradient3804">
   <stop id="stop3806" stop-color="#ffffff"/>
   <stop offset="1" id="stop3808" stop-color="#ffffff" stop-opacity="0"/>
  </linearGradient>
  <linearGradient inkscape:collect="always" xlink:href="#linearGradient3804" id="linearGradient6750" x1="443.5" y1="-178.5" x2="444" y2="-175.5" gradientUnits="userSpaceOnUse" gradientTransform="translate(-433,180.00027)"/>
  <linearGradient inkscape:collect="always" xlink:href="#linearGradient3804" id="linearGradient6736" x1="435" x2="438" gradientUnits="userSpaceOnUse"/>
  <linearGradient inkscape:collect="always" xlink:href="#linearGradient5621" id="linearGradient5956" y1="63.937" x2="0" y2="47.937" gradientUnits="userSpaceOnUse" gradientTransform="translate(-1400.9375,-47.937495)"/>
  <linearGradient id="linearGradient5621">
   <stop id="stop5623" stop-color="#0b0b0b"/>
   <stop offset="1" id="stop5625" stop-color="#585858"/>
  </linearGradient>
  <linearGradient id="linearGradient8589">
   <stop id="stop8591" stop-color="#fefefe"/>
   <stop id="stop8593" offset="1" stop-color="#cbcbcb"/>
  </linearGradient>
  <radialGradient cx="102" cy="112.3" r="139.56" id="XMLID_8_" gradientUnits="userSpaceOnUse">
   <stop id="stop41" stop-color="#b7b8b9"/>
   <stop id="stop47" offset="0.189" stop-color="#ececec"/>
   <stop id="stop49" offset="0.257" stop-color="#fafafa" stop-opacity="0"/>
   <stop id="stop51" offset="0.301" stop-color="#ffffff" stop-opacity="0"/>
   <stop id="stop53" offset="0.531" stop-color="#fafafa" stop-opacity="0"/>
   <stop id="stop55" offset="0.845" stop-color="#ebecec" stop-opacity="0"/>
   <stop id="stop57" offset="1" stop-color="#e1e2e3" stop-opacity="0"/>
  </radialGradient>
  <linearGradient inkscape:collect="always" xlink:href="#linearGradient3804" id="linearGradient6701" y1="-180" x2="0" y2="-164" gradientUnits="userSpaceOnUse"/>
  <clipPath id="clipPath6691">
   <path id="path6693" d="m 914,-179.00027 8,-1e-5 4,3 0,11 -12,0 z"/>
  </clipPath>
  <linearGradient id="outerBackgroundGradient-4">
   <stop id="stop3864-8-6-6" stop-color="#f0f0f0"/>
   <stop offset="1" id="stop3866-9-1-7" stop-color="#f9f9f9"/>
  </linearGradient>
  <linearGradient inkscape:collect="always" xlink:href="#outerBackgroundGradient-4" id="linearGradient3829" gradientUnits="userSpaceOnUse" gradientTransform="matrix(0,-0.05555556,0.05714289,0,-3.1428659,15)" y1="280" x2="0" y2="40"/>
  <linearGradient inkscape:collect="always" xlink:href="#linearGradient3804" id="linearGradient3831" gradientUnits="userSpaceOnUse" y1="1" x2="0" y2="14" gradientTransform="matrix(0,-1,1,0,-1,13)"/>
  <linearGradient inkscape:collect="always" xlink:href="#linearGradient3886" id="linearGradient3892" y1="15" x2="0" y2="9" gradientUnits="userSpaceOnUse" gradientTransform="translate(0.5,0.5)"/>
  <linearGradient inkscape:collect="always" xlink:href="#linearGradient3886" id="linearGradient4041" y1="16" x2="0" y2="0" gradientUnits="userSpaceOnUse"/>
  <linearGradient inkscape:collect="always" xlink:href="#linearGradient3904" id="linearGradient4156" y1="16" x2="0" y2="0" gradientUnits="userSpaceOnUse"/>
  <linearGradient inkscape:collect="always" xlink:href="#linearGradient3821" id="linearGradient4241" y1="16" x2="0" y2="0" gradientUnits="userSpaceOnUse"/>
 </defs>
 <metadata id="metadata5405"/>
 <g id="layer1" inkscape:label="Layer 1" inkscape:groupmode="layer">
  <path d="m 10.5,0 0,1 0,1.5 -2.5,0 C 7.7067602,2.5 7.4414407,2.542161 7.21875,2.59375 l -0.8125,0.1875 0.5625,0.65625 C 7.4123123,3.9453894 7.728099,4.4952145 7.875,5.125 l 0.09375,0.375 0.40625,0 2.125,0 0,1.5 0,0 0.8125,0.40625 4,-3 L 15.84375,4 15.3125,3.59375 l -4,-3 z m 0,7 0,1 0,1.5 -2.5,0 C 7.6788313,9.5 7.5,9.321169 7.5,9 l 0,-3 C 7.5,4.0806197 5.9193803,2.5 4,2.5 l -3,0 -0.5,0 0,0.5 0,0.9375 0,1.0625 0,0.5 0.5,0 3,0 c 0.3211687,0 0.5,0.1788313 0.5,0.5 l 0,3 c 0,1.91938 1.7179001,2.78716 3.5,3.5 l 2.5,0 0,1.5 0,1 0.8125,-0.59375 4,-3 L 15.84375,11 15.3125,10.59375 l -4,-3 z m -10,2.5 0,0.5 0,2 0,0.5 0.5,0 3,0 c 0.2932398,0 0.5585593,-0.04216 0.78125,-0.09375 l 0.8125,-0.1875 -0.5625,-0.65625 C 4.5876642,11.054538 4.2718998,10.504781 4.125,9.875 L 4.03125,9.5 3.625,9.5 1,9.5 z" id="path4544-6" inkscape:connector-curvature="0" sodipodi:nodetypes="cccsccccccccccccccccccsssscccccccssssccccccccccccccscccccccc" fill="url(#linearGradient4241)" color="#bebebe"/>
  <path id="path3855" d="m 10.5,0 0,1 0,1.5 -2.5,0 C 7.7067602,2.5 7.4414407,2.542161 7.21875,2.59375 l -0.8125,0.1875 0.5625,0.65625 C 7.4123123,3.9453894 7.728099,4.4952145 7.875,5.125 l 0.09375,0.375 0.40625,0 2.125,0 0,1.5 0,0 0.8125,0.40625 4,-3 L 15.84375,4 15.3125,3.59375 l -4,-3 z m 0,7 0,1 0,1.5 -2.5,0 C 7.6788313,9.5 7.5,9.321169 7.5,9 l 0,-3 C 7.5,4.0806197 5.9193803,2.5 4,2.5 l -3,0 -0.5,0 0,0.5 0,0.9375 0,1.0625 0,0.5 0.5,0 3,0 c 0.3211687,0 0.5,0.1788313 0.5,0.5 l 0,3 c 0,1.91938 1.7179001,2.78716 3.5,3.5 l 2.5,0 0,1.5 0,1 0.8125,-0.59375 4,-3 L 15.84375,11 15.3125,10.59375 l -4,-3 z m -10,2.5 0,0.5 0,2 0,0.5 0.5,0 3,0 c 0.2932398,0 0.5585593,-0.04216 0.78125,-0.09375 l 0.8125,-0.1875 -0.5625,-0.65625 C 4.5876642,11.054538 4.2718998,10.504781 4.125,9.875 L 4.03125,9.5 3.625,9.5 1,9.5 z" inkscape:connector-curvature="0" sodipodi:nodetypes="cccsccccccccccccccccccsssscccccccssssccccccccccccccscccccccc" opacity="0.61" fill="none" stroke="#000000" stroke-linejoin="round" color="#bebebe"/>
  <path d="m 11,1 0,1 0.03125,0 3.3125,2.5 L 15,4 11.03125,1 z M 1,3 1,3.9375 1,4 4,4 C 5.6448786,4 7,5.3551214 7,7 L 7,6 C 7,4.3551214 5.6448786,3 4,3 z M 8,3 C 7.7546857,3 7.5397256,3.0483499 7.34375,3.09375 l 0,0.03125 C 7.5810947,3.3994038 7.7910426,3.6888901 7.96875,4 7.9796869,3.9998082 7.9889407,4 8,4 L 10.5,4 11,4 11,3.5 11,3 10.5,3 z m 3,5 0,1 0.03125,0 3.3125,2.5 L 15,11 11.03125,8 z m -4,1 0,1 c 0,0 0.08488,0.522381 0.28125,0.71875 C 7.4776195,10.915119 7.7647364,10.905895 8,11 l 2.5,0 0.5,0 0,-0.5 L 11,10 10.5,10 8,10 C 7.7466134,10 7.4776195,9.915119 7.28125,9.71875 7.08488,9.522381 7,9.253387 7,9 z m -6,1 0,1 2.625,0 c 0.083075,0.356153 0.2285422,0.688895 0.40625,1 0.2316648,-0.0041 0.4378622,-0.0504 0.625,-0.09375 l 0,-0.03125 C 4.1815617,11.326147 3.7911492,10.712306 3.625,10 z" id="path3857" inkscape:connector-curvature="0" sodipodi:nodetypes="ccccccccccscsscscccscccccsccccccccssscccccssccccccccc" opacity="0.2" fill="#ffffff" color="#bebebe"/>
 </g>
</svg>
