<?xml version="1.0" encoding="UTF-8" standalone="no"?>
<svg
   xmlns:dc="http://purl.org/dc/elements/1.1/"
   xmlns:cc="http://creativecommons.org/ns#"
   xmlns:rdf="http://www.w3.org/1999/02/22-rdf-syntax-ns#"
   xmlns:svg="http://www.w3.org/2000/svg"
   xmlns="http://www.w3.org/2000/svg"
   xmlns:xlink="http://www.w3.org/1999/xlink"
   version="1.1"
   id="svg5400"
   height="16px"
   width="16px">
  <defs
     id="defs5402">
    <linearGradient
       id="linearGradient3821">
      <stop
         id="stop3823"
         offset="0"
         style="stop-color:#555555;stop-opacity:1;" />
      <stop
         id="stop3825"
         offset="1"
         style="stop-color:#666666;stop-opacity:1;" />
    </linearGradient>
    <linearGradient
       gradientUnits="userSpaceOnUse"
       y2="0"
       x2="8"
       y1="16"
       x1="8"
       id="linearGradient3959"
       xlink:href="#linearGradient3821" />
  </defs>
  <metadata
     id="metadata5405">
    <rdf:RDF>
      <cc:Work
         rdf:about="">
        <dc:format>image/svg+xml</dc:format>
        <dc:type
           rdf:resource="http://purl.org/dc/dcmitype/StillImage" />
        <dc:title />
      </cc:Work>
    </rdf:RDF>
  </metadata>
  <g
     id="layer1">
    <path
       id="path3991-1"
       d="M 5.5 0 L 5.5 1 L 5.5 2.5 L 4 2.5 C 2.0806197 2.5 0.5 4.0806197 0.5 6 L 0.5 10 C 0.5 11.91938 2.0806197 13.5 4 13.5 L 5 13.5 L 5.65625 13.5 L 9 13.5 L 12 13.5 C 13.91938 13.5 15.5 11.91938 15.5 10 L 15.5 6 C 15.5 4.0806197 13.91938 2.5 12 2.5 L 11.75 2.5 L 11 2.5 L 10.5 2.5 L 10.5 3 L 10.5 3.5 L 10.5 3.75 L 10.3125 3.59375 L 6.3125 0.59375 L 5.5 0 z M 10.5 4.25 L 10.5 4.5 L 10.5 5 L 10.5 5.5 L 11 5.5 L 11.75 5.5 L 12 5.5 C 12.321169 5.5 12.5 5.6788313 12.5 6 L 12.5 10 C 12.5 10.321169 12.321169 10.5 12 10.5 L 9 10.5 L 5.65625 10.5 L 5 10.5 L 4 10.5 C 3.6788313 10.5 3.5 10.321169 3.5 10 L 3.5 6 C 3.5 5.6788313 3.6788313 5.5 4 5.5 L 5.5 5.5 L 5.5 7 L 5.5 8 L 6.3125 7.40625 L 10.3125 4.40625 L 10.5 4.25 z "
       style="text-indent:0;text-transform:none;block-progression:tb;color:#000000;fill:url(#linearGradient3959);fill-opacity:1;stroke:none" />
    <path
       style="text-indent:0;text-transform:none;block-progression:tb;color:#000000;fill:none;fill-opacity:1;stroke:#000000;stroke-opacity:1;opacity:0.61"
       d="M 5.5 0 L 5.5 1 L 5.5 2.5 L 4 2.5 C 2.0806197 2.5 0.5 4.0806197 0.5 6 L 0.5 10 C 0.5 11.91938 2.0806197 13.5 4 13.5 L 5 13.5 L 5.65625 13.5 L 9 13.5 L 12 13.5 C 13.91938 13.5 15.5 11.91938 15.5 10 L 15.5 6 C 15.5 4.0806197 13.91938 2.5 12 2.5 L 11.75 2.5 L 11 2.5 L 10.5 2.5 L 10.5 3 L 10.5 3.5 L 10.5 3.75 L 10.3125 3.59375 L 6.3125 0.59375 L 5.5 0 z M 10.5 4.25 L 10.5 4.5 L 10.5 5 L 10.5 5.5 L 11 5.5 L 11.75 5.5 L 12 5.5 C 12.321169 5.5 12.5 5.6788313 12.5 6 L 12.5 10 C 12.5 10.321169 12.321169 10.5 12 10.5 L 9 10.5 L 5.65625 10.5 L 5 10.5 L 4 10.5 C 3.6788313 10.5 3.5 10.321169 3.5 10 L 3.5 6 C 3.5 5.6788313 3.6788313 5.5 4 5.5 L 5.5 5.5 L 5.5 7 L 5.5 8 L 6.3125 7.40625 L 10.3125 4.40625 L 10.5 4.25 z "
       id="path3951" />
    <path
       id="path3998"
       d="M 6 1 L 6 2 L 6.03125 2 L 9.34375 4.5 L 10 4 L 6.03125 1 L 6 1 z M 4 3 C 2.3551214 3 1 4.3551214 1 6 L 1 7 C 1 5.3551214 2.3551214 4 4 4 L 5.5 4 L 6 4 L 6 3.5 L 6 3 L 5.5 3 L 4 3 z M 11 3 L 11 3.1875 L 11 3.5 L 11 3.75 L 11 4 L 11.75 4 L 12 4 C 13.644878 4 15 5.3551215 15 7 L 15 6 C 15 4.3551215 13.644878 3 12 3 L 11.75 3 L 11 3 z M 3 10 L 3 11 C 3 11.253387 3.084881 11.522381 3.28125 11.71875 C 3.4776195 11.915119 3.7466134 12 4 12 L 5 12 L 5.65625 12 L 9 12 L 12 12 C 12.253387 12 12.522381 11.91512 12.71875 11.71875 C 12.91512 11.522381 13 11.253387 13 11 L 13 10 C 13 10.253387 12.915119 10.522381 12.71875 10.71875 C 12.522381 10.91512 12.253387 11 12 11 L 9 11 L 5.65625 11 L 5 11 L 4 11 C 3.7466134 11 3.4776195 10.915119 3.28125 10.71875 C 3.084881 10.522381 3 10.253387 3 10 z "
       style="text-indent:0;text-transform:none;block-progression:tb;color:#000000;fill:#ffffff;fill-opacity:1;stroke:none;opacity:0.2" />
  </g>
</svg>
