<?xml version="1.0" encoding="UTF-8" standalone="no"?>
<svg xmlns="http://www.w3.org/2000/svg" xmlns:xlink="http://www.w3.org/1999/xlink" xmlns:sodipodi="http://sodipodi.sourceforge.net/DTD/sodipodi-0.dtd" xmlns:inkscape="http://www.inkscape.org/namespaces/inkscape" width="16" height="16" version="1.1">
 <defs id="defs5402">
  <linearGradient id="linearGradient3821">
   <stop id="stop3823" stop-color="#555555"/>
   <stop offset="1" id="stop3825" stop-color="#666666"/>
  </linearGradient>
  <linearGradient inkscape:collect="always" xlink:href="#linearGradient3821" id="linearGradient4448" y1="16" x2="0" y2="0" gradientUnits="userSpaceOnUse"/>
 </defs>
 <metadata id="metadata5405"/>
 <g id="layer1" inkscape:label="Layer 1" inkscape:groupmode="layer">
  <path d="M 1.5 1.5 L 1.5 2 L 1.5 14 L 1.5 14.5 L 2 14.5 L 6 14.5 L 6.5 14.5 L 6.5 14 L 6.5 2 L 6.5 1.5 L 6 1.5 L 2 1.5 L 1.5 1.5 z M 9.5 1.5 L 9.5 2 L 9.5 14 L 9.5 14.5 L 10 14.5 L 14 14.5 L 14.5 14.5 L 14.5 14 L 14.5 2 L 14.5 1.5 L 14 1.5 L 10 1.5 L 9.5 1.5 z " id="path4491" color="#000000" fill="url(#linearGradient4448)"/>
  <path d="M 2 2 L 2 3 L 6 3 L 6 2 L 2 2 z M 10 2 L 10 3 L 14 3 L 14 2 L 10 2 z " id="path3807-1-1-5-8-6" opacity="0.2" fill="#ffffff"/>
  <path id="path4508" d="M 1.5 1.5 L 1.5 2 L 1.5 14 L 1.5 14.5 L 2 14.5 L 6 14.5 L 6.5 14.5 L 6.5 14 L 6.5 2 L 6.5 1.5 L 6 1.5 L 2 1.5 L 1.5 1.5 z M 9.5 1.5 L 9.5 2 L 9.5 14 L 9.5 14.5 L 10 14.5 L 14 14.5 L 14.5 14.5 L 14.5 14 L 14.5 2 L 14.5 1.5 L 14 1.5 L 10 1.5 L 9.5 1.5 z " opacity="0.61" color="#000000" fill="none" stroke="#000000"/>
 </g>
</svg>
