<?xml version="1.0" encoding="UTF-8" standalone="no"?>
<svg
   xmlns:dc="http://purl.org/dc/elements/1.1/"
   xmlns:cc="http://creativecommons.org/ns#"
   xmlns:rdf="http://www.w3.org/1999/02/22-rdf-syntax-ns#"
   xmlns:svg="http://www.w3.org/2000/svg"
   xmlns="http://www.w3.org/2000/svg"
   xmlns:xlink="http://www.w3.org/1999/xlink"
   version="1.1"
   id="svg5400"
   height="16px"
   width="16px">
  <defs
     id="defs5402">
    <linearGradient
       id="linearGradient3821">
      <stop
         id="stop3823"
         offset="0"
         style="stop-color:#555555;stop-opacity:1;" />
      <stop
         id="stop3825"
         offset="1"
         style="stop-color:#666666;stop-opacity:1;" />
    </linearGradient>
    <linearGradient
       gradientTransform="matrix(-1,0,0,1,16,0)"
       gradientUnits="userSpaceOnUse"
       y2="0"
       x2="7"
       y1="16"
       x1="7"
       id="linearGradient3962"
       xlink:href="#linearGradient3821" />
  </defs>
  <metadata
     id="metadata5405">
    <rdf:RDF>
      <cc:Work
         rdf:about="">
        <dc:format>image/svg+xml</dc:format>
        <dc:type
           rdf:resource="http://purl.org/dc/dcmitype/StillImage" />
        <dc:title />
      </cc:Work>
    </rdf:RDF>
  </metadata>
  <g
     id="layer1">
    <path
       id="path3947"
       d="m 15.5,3.125 0,0.875 0,8 0,0.875 -0.75,-0.4375 -5.25,-3 0,2.5625 0,0.875 -0.75,-0.4375 -7,-4 L 1,8 1.75,7.5625 l 7,-4 L 9.5,3.125 9.5,4 l 0,2.5625 5.25,-3 0.75,-0.4375 z"
       style="font-size:medium;font-style:normal;font-variant:normal;font-weight:normal;font-stretch:normal;text-indent:0;text-align:start;text-decoration:none;line-height:normal;letter-spacing:normal;word-spacing:normal;text-transform:none;direction:ltr;block-progression:tb;writing-mode:lr-tb;text-anchor:start;baseline-shift:baseline;color:#000000;fill:url(#linearGradient3962);fill-opacity:1;stroke:none;stroke-width:1;marker:none;visibility:visible;display:inline;overflow:visible;enable-background:accumulate;font-family:Sans;-inkscape-font-specification:Sans" />
    <path
       id="path3807-1-1-4-7-2-1"
       d="m 15,4 0,1 -6,3.4375 0,-1 L 15,4 z M 9,4 9,5 2.875,8.5 2,8 9,4 z"
       style="opacity:0.2;fill:#ffffff;fill-opacity:1;stroke:none" />
    <path
       id="path3898"
       style="fill:none;stroke:none"
       d="M 15,4 15.0625,12 8.125,8 c 0,0 6.9375,-4 6.875,-4 z m -6.875,4 0,4 -7,-4 7,-4 z" />
    <path
       style="font-size:medium;font-style:normal;font-variant:normal;font-weight:normal;font-stretch:normal;text-indent:0;text-align:start;text-decoration:none;line-height:normal;letter-spacing:normal;word-spacing:normal;text-transform:none;direction:ltr;block-progression:tb;writing-mode:lr-tb;text-anchor:start;baseline-shift:baseline;opacity:0.61000001;color:#000000;fill:none;stroke:#000000;stroke-width:1;stroke-opacity:1;marker:none;visibility:visible;display:inline;overflow:visible;enable-background:accumulate;font-family:Sans;-inkscape-font-specification:Sans"
       d="m 15.5,3.125 0,0.875 0,8 0,0.875 -0.75,-0.4375 -5.25,-3 0,2.5625 0,0.875 -0.75,-0.4375 -7,-4 L 1,8 1.75,7.5625 l 7,-4 L 9.5,3.125 9.5,4 l 0,2.5625 5.25,-3 0.75,-0.4375 z"
       id="path3964" />
  </g>
</svg>
