<?xml version="1.0" encoding="UTF-8" standalone="no"?>
<svg
   xmlns:dc="http://purl.org/dc/elements/1.1/"
   xmlns:cc="http://creativecommons.org/ns#"
   xmlns:rdf="http://www.w3.org/1999/02/22-rdf-syntax-ns#"
   xmlns:svg="http://www.w3.org/2000/svg"
   xmlns="http://www.w3.org/2000/svg"
   xmlns:xlink="http://www.w3.org/1999/xlink"
   version="1.1"
   id="svg5400"
   height="16px"
   width="16px">
  <defs
     id="defs5402">
    <linearGradient
       id="linearGradient3821">
      <stop
         id="stop3823"
         offset="0"
         style="stop-color:#555555;stop-opacity:1;" />
      <stop
         id="stop3825"
         offset="1"
         style="stop-color:#666666;stop-opacity:1;" />
    </linearGradient>
    <linearGradient
       gradientUnits="userSpaceOnUse"
       y2="0"
       x2="8"
       y1="16"
       x1="8"
       id="linearGradient3836"
       xlink:href="#linearGradient3821" />
  </defs>
  <metadata
     id="metadata5405">
    <rdf:RDF>
      <cc:Work
         rdf:about="">
        <dc:format>image/svg+xml</dc:format>
        <dc:type
           rdf:resource="http://purl.org/dc/dcmitype/StillImage" />
        <dc:title />
      </cc:Work>
    </rdf:RDF>
  </metadata>
  <g
     id="layer1">
    <path
       id="path3052"
       d="M 9.5 3.125 L 8.75 3.5625 L 3.5 6.5625 L 3.5 4 L 3.5 3.5 L 3 3.5 L 1 3.5 L 0.5 3.5 L 0.5 4 L 0.5 12 L 0.5 12.5 L 1 12.5 L 3 12.5 L 3.5 12.5 L 3.5 12 L 3.5 9.4375 L 8.75 12.4375 L 9.5 12.875 L 9.5 12 L 9.5 9.4375 L 14.75 12.4375 L 15.5 12.875 L 15.5 12 L 15.5 4 L 15.5 3.125 L 14.75 3.5625 L 9.5 6.5625 L 9.5 4 L 9.5 3.125 z "
       style="font-size:medium;font-style:normal;font-variant:normal;font-weight:normal;font-stretch:normal;text-indent:0;text-align:start;text-decoration:none;line-height:normal;letter-spacing:normal;word-spacing:normal;text-transform:none;direction:ltr;block-progression:tb;writing-mode:lr-tb;text-anchor:start;baseline-shift:baseline;color:#000000;fill:url(#linearGradient3836);fill-opacity:1;stroke:none;stroke-width:1;marker:none;visibility:visible;display:inline;overflow:visible;enable-background:accumulate;font-family:Sans;-inkscape-font-specification:Sans" />
    <path
       id="path5160"
       d="M 1 4 L 1 5 L 3 5 L 3 4 L 1 4 z M 9 4 L 3 7.4375 L 3 8.4375 L 9 5 L 9 4 z M 15 4 L 9 7.4375 L 9 8.4375 L 15 5 L 15 4 z "
       style="fill:#ffffff;fill-opacity:1;stroke:none;opacity:0.2" />
    <path
       style="font-size:medium;font-style:normal;font-variant:normal;font-weight:normal;font-stretch:normal;text-indent:0;text-align:start;text-decoration:none;line-height:normal;letter-spacing:normal;word-spacing:normal;text-transform:none;direction:ltr;block-progression:tb;writing-mode:lr-tb;text-anchor:start;baseline-shift:baseline;color:#000000;fill:none;fill-opacity:1;stroke:#000000;stroke-width:1;marker:none;visibility:visible;display:inline;overflow:visible;enable-background:accumulate;font-family:Sans;-inkscape-font-specification:Sans;stroke-opacity:1;opacity:0.61"
       d="M 9.5 3.125 L 8.75 3.5625 L 3.5 6.5625 L 3.5 4 L 3.5 3.5 L 3 3.5 L 1 3.5 L 0.5 3.5 L 0.5 4 L 0.5 12 L 0.5 12.5 L 1 12.5 L 3 12.5 L 3.5 12.5 L 3.5 12 L 3.5 9.4375 L 8.75 12.4375 L 9.5 12.875 L 9.5 12 L 9.5 9.4375 L 14.75 12.4375 L 15.5 12.875 L 15.5 12 L 15.5 4 L 15.5 3.125 L 14.75 3.5625 L 9.5 6.5625 L 9.5 4 L 9.5 3.125 z "
       id="path3838" />
  </g>
</svg>
