<?xml version="1.0" encoding="UTF-8" standalone="no"?>
<svg
   xmlns:dc="http://purl.org/dc/elements/1.1/"
   xmlns:cc="http://creativecommons.org/ns#"
   xmlns:rdf="http://www.w3.org/1999/02/22-rdf-syntax-ns#"
   xmlns:svg="http://www.w3.org/2000/svg"
   xmlns="http://www.w3.org/2000/svg"
   xmlns:xlink="http://www.w3.org/1999/xlink"
   width="16px"
   height="16px"
   id="svg5400"
   version="1.1">
  <defs
     id="defs5402">
    <linearGradient
       id="linearGradient3821">
      <stop
         style="stop-color:#555555;stop-opacity:1;"
         offset="0"
         id="stop3823" />
      <stop
         style="stop-color:#666666;stop-opacity:1;"
         offset="1"
         id="stop3825" />
    </linearGradient>
    <linearGradient
       xlink:href="#linearGradient3821"
       id="linearGradient3836"
       x1="8"
       y1="16"
       x2="8"
       y2="0"
       gradientUnits="userSpaceOnUse"
       gradientTransform="matrix(-1,0,0,1,16,0)" />
  </defs>
  <metadata
     id="metadata5405">
    <rdf:RDF>
      <cc:Work
         rdf:about="">
        <dc:format>image/svg+xml</dc:format>
        <dc:type
           rdf:resource="http://purl.org/dc/dcmitype/StillImage" />
        <dc:title />
      </cc:Work>
    </rdf:RDF>
  </metadata>
  <g
     id="layer1">
    <path
       style="font-size:medium;font-style:normal;font-variant:normal;font-weight:normal;font-stretch:normal;text-indent:0;text-align:start;text-decoration:none;line-height:normal;letter-spacing:normal;word-spacing:normal;text-transform:none;direction:ltr;block-progression:tb;writing-mode:lr-tb;text-anchor:start;baseline-shift:baseline;color:#000000;fill:url(#linearGradient3836);fill-opacity:1;stroke:none;stroke-width:1;marker:none;visibility:visible;display:inline;overflow:visible;enable-background:accumulate;font-family:Sans;-inkscape-font-specification:Sans"
       d="m 6.5,3.125 0.75,0.4375 5.25,3 0,-2.5625 0,-0.5 0.5,0 2,0 0.5,0 0,0.5 0,8 0,0.5 -0.5,0 -2,0 -0.5,0 0,-0.5 0,-2.5625 -5.25,3 -0.75,0.4375 0,-0.875 0,-2.5625 -5.25,3 -0.75,0.4375 0,-0.875 0,-8 0,-0.875 0.75,0.4375 5.25,3 L 6.5,4 6.5,3.125 z"
       id="path3052" />
    <path
       style="opacity:0.2;fill:#ffffff;fill-opacity:1;stroke:none"
       d="m 15,4 0,1 -2,0 0,-1 2,0 z m -8,0 6,3.4375 0,1 L 7,5 7,4 z m -6,0 6,3.4375 0,1 L 1,5 1,4 z"
       id="path5160" />
    <path
       id="path3838"
       d="m 6.5,3.125 0.75,0.4375 5.25,3 0,-2.5625 0,-0.5 0.5,0 2,0 0.5,0 0,0.5 0,8 0,0.5 -0.5,0 -2,0 -0.5,0 0,-0.5 0,-2.5625 -5.25,3 -0.75,0.4375 0,-0.875 0,-2.5625 -5.25,3 -0.75,0.4375 0,-0.875 0,-8 0,-0.875 0.75,0.4375 5.25,3 L 6.5,4 6.5,3.125 z"
       style="font-size:medium;font-style:normal;font-variant:normal;font-weight:normal;font-stretch:normal;text-indent:0;text-align:start;text-decoration:none;line-height:normal;letter-spacing:normal;word-spacing:normal;text-transform:none;direction:ltr;block-progression:tb;writing-mode:lr-tb;text-anchor:start;baseline-shift:baseline;opacity:0.61000001;color:#000000;fill:none;stroke:#000000;stroke-width:1;stroke-opacity:1;marker:none;visibility:visible;display:inline;overflow:visible;enable-background:accumulate;font-family:Sans;-inkscape-font-specification:Sans" />
  </g>
</svg>
