<?xml version="1.0" encoding="UTF-8" standalone="no"?>
<svg
   xmlns:dc="http://purl.org/dc/elements/1.1/"
   xmlns:cc="http://creativecommons.org/ns#"
   xmlns:rdf="http://www.w3.org/1999/02/22-rdf-syntax-ns#"
   xmlns:svg="http://www.w3.org/2000/svg"
   xmlns="http://www.w3.org/2000/svg"
   xmlns:xlink="http://www.w3.org/1999/xlink"
   version="1.1"
   id="svg5400"
   height="16px"
   width="16px">
  <defs
     id="defs5402">
    <linearGradient
       id="linearGradient3821">
      <stop
         id="stop3823"
         offset="0"
         style="stop-color:#555555;stop-opacity:1;" />
      <stop
         id="stop3825"
         offset="1"
         style="stop-color:#666666;stop-opacity:1;" />
    </linearGradient>
    <linearGradient
       gradientTransform="matrix(-1,0,0,1,15.999978,0)"
       gradientUnits="userSpaceOnUse"
       y2="0"
       x2="8"
       y1="16"
       x1="8"
       id="linearGradient3968"
       xlink:href="#linearGradient3821" />
  </defs>
  <metadata
     id="metadata5405">
    <rdf:RDF>
      <cc:Work
         rdf:about="">
        <dc:format>image/svg+xml</dc:format>
        <dc:type
           rdf:resource="http://purl.org/dc/dcmitype/StillImage" />
        <dc:title />
      </cc:Work>
    </rdf:RDF>
  </metadata>
  <g
     id="layer1">
    <path
       id="path5905"
       d="m 5.5,4 0,1 0,1.5 6.499978,0 3,0 0.5,0 0,0.5 0,2 0,0.5 -0.5,0 -5.812478,0 -3.6875,0 0,1.5 0,1 -0.8125,-0.59375 -4,-3 L 0.15625,8 0.6875,7.59375 l 4,-3 L 5.5,4 z"
       style="text-indent:0;text-transform:none;block-progression:tb;color:#bebebe;fill:url(#linearGradient3968);fill-opacity:1;stroke:none" />
    <path
       style="text-indent:0;text-transform:none;block-progression:tb;opacity:0.61000001;color:#bebebe;fill:none;stroke:#000000;stroke-opacity:1"
       d="m 5.5,4 0,1 0,1.5 6.499978,0 3,0 0.5,0 0,0.5 0,2 0,0.5 -0.5,0 -5.812478,0 -3.6875,0 0,1.5 0,1 -0.8125,-0.59375 -4,-3 L 0.15625,8 0.6875,7.59375 l 4,-3 L 5.5,4 z"
       id="path3960" />
    <path
       id="path3970"
       d="M 5,5 5,6 4.96875,6 1.65625,8.5 1,8 4.96875,5 5,5 z m 9.999978,2 0,1 -3,0 L 5.5,8 5,8 5,7.5 5,7 l 0.5,0 6.499978,0 3,0 z"
       style="text-indent:0;text-transform:none;block-progression:tb;opacity:0.2;color:#bebebe;fill:#ffffff;fill-opacity:1;stroke:none" />
  </g>
</svg>
