<?xml version="1.0" encoding="UTF-8" standalone="no"?>
<svg xmlns="http://www.w3.org/2000/svg" xmlns:xlink="http://www.w3.org/1999/xlink" xmlns:sodipodi="http://sodipodi.sourceforge.net/DTD/sodipodi-0.dtd" xmlns:inkscape="http://www.inkscape.org/namespaces/inkscape" width="16" height="16" version="1.1">
 <defs id="defs5402">
  <linearGradient id="linearGradient3821">
   <stop id="stop3823" stop-color="#555555"/>
   <stop offset="1" id="stop3825" stop-color="#666666"/>
  </linearGradient>
  <linearGradient id="linearGradient3904">
   <stop id="stop3906" stop-color="#104b88"/>
   <stop id="stop3908" offset="1" stop-color="#0e7398"/>
  </linearGradient>
  <linearGradient inkscape:collect="always" id="linearGradient3886">
   <stop id="stop3888" stop-color="#5097e1"/>
   <stop offset="1" id="stop3890" stop-color="#53d0ff"/>
  </linearGradient>
  <linearGradient inkscape:collect="always" id="linearGradient3804">
   <stop id="stop3806" stop-color="#ffffff"/>
   <stop offset="1" id="stop3808" stop-color="#ffffff" stop-opacity="0"/>
  </linearGradient>
  <linearGradient inkscape:collect="always" xlink:href="#linearGradient3804" id="linearGradient6750" x1="443.5" y1="-178.5" x2="444" y2="-175.5" gradientUnits="userSpaceOnUse" gradientTransform="translate(-433,180.00027)"/>
  <linearGradient inkscape:collect="always" xlink:href="#linearGradient3804" id="linearGradient6736" x1="435" x2="438" gradientUnits="userSpaceOnUse"/>
  <linearGradient inkscape:collect="always" xlink:href="#linearGradient5621" id="linearGradient5956" y1="63.937" x2="0" y2="47.937" gradientUnits="userSpaceOnUse" gradientTransform="translate(-1400.9375,-47.937495)"/>
  <linearGradient id="linearGradient5621">
   <stop id="stop5623" stop-color="#0b0b0b"/>
   <stop offset="1" id="stop5625" stop-color="#585858"/>
  </linearGradient>
  <linearGradient id="linearGradient8589">
   <stop id="stop8591" stop-color="#fefefe"/>
   <stop id="stop8593" offset="1" stop-color="#cbcbcb"/>
  </linearGradient>
  <radialGradient cx="102" cy="112.3" r="139.56" id="XMLID_8_" gradientUnits="userSpaceOnUse">
   <stop id="stop41" stop-color="#b7b8b9"/>
   <stop id="stop47" offset="0.189" stop-color="#ececec"/>
   <stop id="stop49" offset="0.257" stop-color="#fafafa" stop-opacity="0"/>
   <stop id="stop51" offset="0.301" stop-color="#ffffff" stop-opacity="0"/>
   <stop id="stop53" offset="0.531" stop-color="#fafafa" stop-opacity="0"/>
   <stop id="stop55" offset="0.845" stop-color="#ebecec" stop-opacity="0"/>
   <stop id="stop57" offset="1" stop-color="#e1e2e3" stop-opacity="0"/>
  </radialGradient>
  <linearGradient inkscape:collect="always" xlink:href="#linearGradient3804" id="linearGradient6701" y1="-180" x2="0" y2="-164" gradientUnits="userSpaceOnUse"/>
  <clipPath id="clipPath6691">
   <path id="path6693" d="m 914,-179.00027 8,-1e-5 4,3 0,11 -12,0 z"/>
  </clipPath>
  <linearGradient id="outerBackgroundGradient-4">
   <stop id="stop3864-8-6-6" stop-color="#f0f0f0"/>
   <stop offset="1" id="stop3866-9-1-7" stop-color="#f9f9f9"/>
  </linearGradient>
  <linearGradient inkscape:collect="always" xlink:href="#outerBackgroundGradient-4" id="linearGradient3829" gradientUnits="userSpaceOnUse" gradientTransform="matrix(0,-0.05555556,0.05714289,0,-3.1428659,15)" y1="280" x2="0" y2="40"/>
  <linearGradient inkscape:collect="always" xlink:href="#linearGradient3804" id="linearGradient3831" gradientUnits="userSpaceOnUse" y1="1" x2="0" y2="14" gradientTransform="matrix(0,-1,1,0,-1,13)"/>
  <linearGradient inkscape:collect="always" xlink:href="#linearGradient3886" id="linearGradient3892" y1="15" x2="0" y2="9" gradientUnits="userSpaceOnUse" gradientTransform="translate(0.5,0.5)"/>
  <linearGradient inkscape:collect="always" xlink:href="#linearGradient3886" id="linearGradient4041" y1="16" x2="0" y2="0" gradientUnits="userSpaceOnUse"/>
  <linearGradient inkscape:collect="always" xlink:href="#linearGradient3904" id="linearGradient4156" y1="16" x2="0" y2="0" gradientUnits="userSpaceOnUse"/>
  <linearGradient inkscape:collect="always" xlink:href="#linearGradient3821" id="linearGradient4241" y1="16" x2="0" y2="0" gradientUnits="userSpaceOnUse"/>
  <linearGradient inkscape:collect="always" xlink:href="#linearGradient3821" id="linearGradient3846" y1="16" x2="0" y2="0" gradientUnits="userSpaceOnUse" gradientTransform="matrix(-1,0,0,1,16.010603,0)"/>
 </defs>
 <metadata id="metadata5405"/>
 <g id="layer1" inkscape:label="Layer 1" inkscape:groupmode="layer">
  <path d="M 5.5 0 L 5.5 1 L 5.5 2.5 L 4 2.5 C 2.0806197 2.5 0.5 4.0806197 0.5 6 L 0.5 10 C 0.5 11.91938 2.0806197 13.5 4 13.5 L 5 13.5 L 5.65625 13.5 L 9 13.5 L 12 13.5 C 13.91938 13.5 15.5 11.91938 15.5 10 L 15.5 6 C 15.5 4.0806197 13.91938 2.5 12 2.5 L 11.75 2.5 L 11 2.5 L 10.5 2.5 L 10.5 3 L 10.5 3.5 L 10.5 3.75 L 10.3125 3.59375 L 6.3125 0.59375 L 5.5 0 z M 10.5 4.25 L 10.5 4.5 L 10.5 5 L 10.5 5.5 L 11 5.5 L 11.75 5.5 L 12 5.5 C 12.321169 5.5 12.5 5.6788313 12.5 6 L 12.5 10 C 12.5 10.321169 12.321169 10.5 12 10.5 L 9 10.5 L 5.65625 10.5 L 5 10.5 L 4 10.5 C 3.6788313 10.5 3.5 10.321169 3.5 10 L 3.5 6 C 3.5 5.6788313 3.6788313 5.5 4 5.5 L 5.5 5.5 L 5.5 7 L 5.5 8 L 6.3125 7.40625 L 10.3125 4.40625 L 10.5 4.25 z " id="path3991-1" fill="url(#linearGradient4241)" color="#000000"/>
  <path id="path3951" d="M 5.5 0 L 5.5 1 L 5.5 2.5 L 4 2.5 C 2.0806197 2.5 0.5 4.0806197 0.5 6 L 0.5 10 C 0.5 11.91938 2.0806197 13.5 4 13.5 L 5 13.5 L 5.65625 13.5 L 9 13.5 L 12 13.5 C 13.91938 13.5 15.5 11.91938 15.5 10 L 15.5 6 C 15.5 4.0806197 13.91938 2.5 12 2.5 L 11.75 2.5 L 11 2.5 L 10.5 2.5 L 10.5 3 L 10.5 3.5 L 10.5 3.75 L 10.3125 3.59375 L 6.3125 0.59375 L 5.5 0 z M 10.5 4.25 L 10.5 4.5 L 10.5 5 L 10.5 5.5 L 11 5.5 L 11.75 5.5 L 12 5.5 C 12.321169 5.5 12.5 5.6788313 12.5 6 L 12.5 10 C 12.5 10.321169 12.321169 10.5 12 10.5 L 9 10.5 L 5.65625 10.5 L 5 10.5 L 4 10.5 C 3.6788313 10.5 3.5 10.321169 3.5 10 L 3.5 6 C 3.5 5.6788313 3.6788313 5.5 4 5.5 L 5.5 5.5 L 5.5 7 L 5.5 8 L 6.3125 7.40625 L 10.3125 4.40625 L 10.5 4.25 z " opacity="0.61" fill="none" stroke="#000000" color="#000000"/>
  <path d="M 6 1 L 6 2 L 6.03125 2 L 9.34375 4.5 L 10 4 L 6.03125 1 L 6 1 z M 4 3 C 2.3551214 3 1 4.3551214 1 6 L 1 7 C 1 5.3551214 2.3551214 4 4 4 L 5.5 4 L 6 4 L 6 3.5 L 6 3 L 5.5 3 L 4 3 z M 11 3 L 11 3.1875 L 11 3.5 L 11 3.75 L 11 4 L 11.75 4 L 12 4 C 13.644878 4 15 5.3551215 15 7 L 15 6 C 15 4.3551215 13.644878 3 12 3 L 11.75 3 L 11 3 z M 3 10 L 3 11 C 3 11.253387 3.084881 11.522381 3.28125 11.71875 C 3.4776195 11.915119 3.7466134 12 4 12 L 5 12 L 5.65625 12 L 9 12 L 12 12 C 12.253387 12 12.522381 11.91512 12.71875 11.71875 C 12.91512 11.522381 13 11.253387 13 11 L 13 10 C 13 10.253387 12.915119 10.522381 12.71875 10.71875 C 12.522381 10.91512 12.253387 11 12 11 L 9 11 L 5.65625 11 L 5 11 L 4 11 C 3.7466134 11 3.4776195 10.915119 3.28125 10.71875 C 3.084881 10.522381 3 10.253387 3 10 z " id="path3998" opacity="0.2" fill="#ffffff" color="#000000"/>
 </g>
</svg>
