<?xml version='1.0' encoding='UTF-8' standalone='no'?>
<svg height="16" xmlns:inkscape="http://www.inkscape.org/namespaces/inkscape" xmlns:sodipodi="http://sodipodi.sourceforge.net/DTD/sodipodi-0.dtd" version="1.1" width="16" xmlns="http://www.w3.org/2000/svg" enable-background="new">
 <metadata id="metadata90"/>
 <defs id="defs7386">
  <linearGradient id="linearGradient5606" osb:paint="solid">
   <stop id="stop5608"/>
  </linearGradient>
  <filter inkscape:collect="always" color-interpolation-filters="sRGB" id="filter7554">
   <feBlend inkscape:collect="always" id="feBlend7556" in2="BackgroundImage" mode="darken"/>
  </filter>
 </defs>
 <g inkscape:groupmode="layer" id="layer12" inkscape:label="actions" transform="translate(-553.0002,-69)">
  <path inkscape:connector-curvature="0" d="M 554.1252,76.15625 553.34395,77 l 1.15625,0 1.5,0 0,3 -1.5,0 -0.5,0 0,0.5 0,3 0,0.5 0.5,0 13,0 0.5,0 0,-0.5 0,-3 0,-0.5 -0.5,0 -1.5,0 0,-3 1.5,0 1.15625,0 L 567.8752,76.15625 561.0002,69 z M 559.84395,74 l 1,0 0.15625,0 1,0 0,7 1,0 1,0 0,1 -1,0 -4,0 -1,0 0,-1 1,0 1,0 0,-5.40625 -1,0.40625 -0.21875,-0.5 -0.0312,0 -0.34375,-0.78125 z" id="path5938" sodipodi:nodetypes="cccccccccccccccccccccccccccccccccccccccccccc" color="#000000" fill="#bbbbbb"/>
 </g>
</svg>
