<?xml version="1.0" encoding="UTF-8" standalone="no"?>
<svg xmlns="http://www.w3.org/2000/svg" xmlns:xlink="http://www.w3.org/1999/xlink" xmlns:sodipodi="http://sodipodi.sourceforge.net/DTD/sodipodi-0.dtd" xmlns:inkscape="http://www.inkscape.org/namespaces/inkscape" width="16" height="16" version="1.1">
 <defs id="defs5402">
  <linearGradient id="linearGradient3821">
   <stop id="stop3823" stop-color="#f7f7f7"/>
   <stop offset="1" id="stop3825" stop-color="#dddddd"/>
  </linearGradient>
  <linearGradient id="linearGradient3904">
   <stop id="stop3906" stop-color="#104b88"/>
   <stop id="stop3908" offset="1" stop-color="#0e7398"/>
  </linearGradient>
  <linearGradient inkscape:collect="always" id="linearGradient3886">
   <stop id="stop3888" stop-color="#5097e1"/>
   <stop offset="1" id="stop3890" stop-color="#53d0ff"/>
  </linearGradient>
  <linearGradient inkscape:collect="always" id="linearGradient3804">
   <stop id="stop3806" stop-color="#ffffff"/>
   <stop offset="1" id="stop3808" stop-color="#ffffff" stop-opacity="0"/>
  </linearGradient>
  <linearGradient inkscape:collect="always" xlink:href="#linearGradient3804" id="linearGradient6750" x1="443.5" y1="-178.5" x2="444" y2="-175.5" gradientUnits="userSpaceOnUse" gradientTransform="translate(-433,180.00027)"/>
  <linearGradient inkscape:collect="always" xlink:href="#linearGradient3804" id="linearGradient6736" x1="435" x2="438" gradientUnits="userSpaceOnUse"/>
  <linearGradient inkscape:collect="always" xlink:href="#linearGradient5621" id="linearGradient5956" y1="63.937" x2="0" y2="47.937" gradientUnits="userSpaceOnUse" gradientTransform="translate(-1400.9375,-47.937495)"/>
  <linearGradient id="linearGradient5621">
   <stop id="stop5623" stop-color="#0b0b0b"/>
   <stop offset="1" id="stop5625" stop-color="#585858"/>
  </linearGradient>
  <linearGradient id="linearGradient8589">
   <stop id="stop8591" stop-color="#fefefe"/>
   <stop id="stop8593" offset="1" stop-color="#cbcbcb"/>
  </linearGradient>
  <radialGradient cx="102" cy="112.3" r="139.56" id="XMLID_8_" gradientUnits="userSpaceOnUse">
   <stop id="stop41" stop-color="#b7b8b9"/>
   <stop id="stop47" offset="0.189" stop-color="#ececec"/>
   <stop id="stop49" offset="0.257" stop-color="#fafafa" stop-opacity="0"/>
   <stop id="stop51" offset="0.301" stop-color="#ffffff" stop-opacity="0"/>
   <stop id="stop53" offset="0.531" stop-color="#fafafa" stop-opacity="0"/>
   <stop id="stop55" offset="0.845" stop-color="#ebecec" stop-opacity="0"/>
   <stop id="stop57" offset="1" stop-color="#e1e2e3" stop-opacity="0"/>
  </radialGradient>
  <linearGradient inkscape:collect="always" xlink:href="#linearGradient3804" id="linearGradient6701" y1="-180" x2="0" y2="-164" gradientUnits="userSpaceOnUse"/>
  <clipPath id="clipPath6691">
   <path id="path6693" d="m 914,-179.00027 8,-1e-5 4,3 0,11 -12,0 z"/>
  </clipPath>
  <linearGradient id="outerBackgroundGradient-4">
   <stop id="stop3864-8-6-6" stop-color="#f0f0f0"/>
   <stop offset="1" id="stop3866-9-1-7" stop-color="#f9f9f9"/>
  </linearGradient>
  <linearGradient inkscape:collect="always" xlink:href="#outerBackgroundGradient-4" id="linearGradient3829" gradientUnits="userSpaceOnUse" gradientTransform="matrix(0,-0.05555556,0.05714289,0,-3.1428659,15)" y1="280" x2="0" y2="40"/>
  <linearGradient inkscape:collect="always" xlink:href="#linearGradient3804" id="linearGradient3831" gradientUnits="userSpaceOnUse" y1="1" x2="0" y2="14" gradientTransform="matrix(0,-1,1,0,-1,13)"/>
  <linearGradient inkscape:collect="always" xlink:href="#linearGradient3886" id="linearGradient3892" y1="15" x2="0" y2="9" gradientUnits="userSpaceOnUse" gradientTransform="translate(0.5,0.5)"/>
  <linearGradient inkscape:collect="always" xlink:href="#linearGradient3886" id="linearGradient4041" y1="16" x2="0" y2="0" gradientUnits="userSpaceOnUse"/>
  <linearGradient inkscape:collect="always" xlink:href="#linearGradient3904" id="linearGradient4156" y1="16" x2="0" y2="0" gradientUnits="userSpaceOnUse"/>
  <linearGradient inkscape:collect="always" xlink:href="#linearGradient3821" id="linearGradient4377" y1="16" x2="0" y2="0" gradientUnits="userSpaceOnUse"/>
  <linearGradient inkscape:collect="always" xlink:href="#linearGradient3821" id="linearGradient4448" y1="16" x2="0" y2="0" gradientUnits="userSpaceOnUse" gradientTransform="matrix(1,0,0,-1,0,16)"/>
  <linearGradient inkscape:collect="always" xlink:href="#linearGradient3904-5" id="linearGradient3860" x1="161" x2="175" gradientUnits="userSpaceOnUse"/>
  <linearGradient id="linearGradient3904-5">
   <stop id="stop3906-3" stop-color="#1c521e"/>
   <stop id="stop3908-1" offset="1" stop-color="#2f821a"/>
  </linearGradient>
  <clipPath id="clipPath4307">
   <path d="m 168,265 c -3.86599,0 -7,3.13401 -7,7 0,3.86599 3.13401,7 7,7 3.866,0 7,-3.13401 7,-7 0,-3.86599 -3.134,-7 -7,-7 z m 3.3125,3.0625 1.5625,1.40625 -5.25,6.9375 -4.0625,-3.5 1.34375,-1.78125 2.375,2.0625 4.03125,-5.125 z" id="path4309"/>
  </clipPath>
  <clipPath id="clipPath4201">
   <path d="m 26.5,225.59375 c -3.86599,0 -7,3.13401 -7,7 0,3.86599 3.13401,7 7,7 3.866,0 7,-3.13401 7,-7 0,-3.86599 -3.134,-7 -7,-7 z" id="path4203"/>
  </clipPath>
  <linearGradient inkscape:collect="always" xlink:href="#linearGradient3886-2" id="linearGradient3852" gradientUnits="userSpaceOnUse" gradientTransform="matrix(0.92857143,0,0,0.92857143,-148,-212.57143)" y1="280" x2="0" y2="264"/>
  <linearGradient id="linearGradient3886-2">
   <stop id="stop3888-1" stop-color="#2ca42a"/>
   <stop offset="1" id="stop3890-6" stop-color="#57d932"/>
  </linearGradient>
  <linearGradient y2="264" x2="0" y1="280" gradientTransform="matrix(0.92857143,0,0,0.92857143,-118.16979,-254.60265)" gradientUnits="userSpaceOnUse" id="linearGradient3037" xlink:href="#linearGradient3886-2" inkscape:collect="always"/>
  <linearGradient inkscape:collect="always" xlink:href="#linearGradient3934" id="linearGradient4025" gradientUnits="userSpaceOnUse" y1="16" x2="0" y2="0"/>
  <linearGradient inkscape:collect="always" xlink:href="#linearGradient3904-5" id="linearGradient4043" gradientUnits="userSpaceOnUse" gradientTransform="matrix(0,-1,1,0,0,16)" x1="1" x2="15"/>
  <linearGradient inkscape:collect="always" xlink:href="#linearGradient3886-2" id="linearGradient4045" gradientUnits="userSpaceOnUse" y1="16" x2="0" y2="0"/>
  <linearGradient inkscape:collect="always" xlink:href="#linearGradient3760" id="linearGradient3852-8" gradientUnits="userSpaceOnUse" gradientTransform="matrix(0.92857143,0,0,-0.92857143,-148,292.57143)" y1="280" x2="0" y2="264"/>
  <linearGradient id="linearGradient3760">
   <stop id="stop3762" stop-color="#e44343"/>
   <stop offset="1" id="stop3764" stop-color="#ac0808"/>
  </linearGradient>
  <linearGradient y2="264" x2="0" y1="280" gradientTransform="matrix(0.92857143,0,0,-0.92857143,-114,270.57143)" gradientUnits="userSpaceOnUse" id="linearGradient3039" xlink:href="#linearGradient3760" inkscape:collect="always"/>
  <linearGradient id="linearGradient3934">
   <stop id="stop3936" stop-color="#dd2f03"/>
   <stop offset="1" id="stop3938" stop-color="#e96300"/>
  </linearGradient>
 </defs>
 <metadata id="metadata5405"/>
 <g id="layer1" inkscape:label="Background" inkscape:groupmode="layer">
  <path d="m 1.5,3.5 0,9 c 0,2 2,2 2,2 l 9,0 c 2,0 2,-2 2,-2 l 0,-9 c 0,-2 -2,-2 -2,-2 l -9,0 c -2,0 -2,2 -2,2 z" id="path4436" inkscape:connector-curvature="0" sodipodi:nodetypes="ccccccccc" color="#000000" fill="url(#linearGradient4025)"/>
  <path sodipodi:nodetypes="ccccccccc" inkscape:connector-curvature="0" id="path3832" d="m 12.5,14.5 -9,0 c -2,0 -2,-2 -2,-2 l 0,-9 c 0,-2 2,-2 2,-2 l 9,0 c 2,0 2,2 2,2 l 0,9 c 0,2 -2,2 -2,2 z" opacity="0.61" color="#000000" fill="none" stroke="#640000"/>
  <path d="M 3.5 2 C 3.5 2 3.099493 1.9971285 2.71875 2.1875 C 2.338007 2.3778715 2 2.6666667 2 3.5 L 2 4.5 C 2 3.6666667 2.338007 3.3778715 2.71875 3.1875 C 3.099493 2.99713 3.5 3 3.5 3 L 12.5 3 C 13.333333 3 13.622128 3.338007 13.8125 3.71875 C 14.0029 4.099493 14 4.5 14 4.5 L 14 3.5 C 14 3.5 14.002872 3.099493 13.8125 2.71875 C 13.622128 2.338007 13.333333 2 12.5 2 L 3.5 2 z " id="path4035" opacity="0.2" color="#000000" fill="#ffffff"/>
  <path id="path4051" d="m 3.4999987,14.999997 c 0,0 -0.400507,0.0029 -0.78125,-0.1875 -0.380743,-0.190372 -0.71875,-0.479167 -0.71875,-1.3125 l 0,-1 c 0,0.833333 0.338007,1.122128 0.71875,1.3125 0.380743,0.19037 0.78125,0.1875 0.78125,0.1875 l 9.0000003,0 c 0.833333,0 1.122128,-0.338007 1.3125,-0.71875 0.1904,-0.380743 0.1875,-0.78125 0.1875,-0.78125 l 0,1 c 0,0 0.0029,0.400507 -0.1875,0.78125 -0.190372,0.380743 -0.479167,0.71875 -1.3125,0.71875 l -9.0000003,0 z" inkscape:connector-curvature="0" opacity="0.2" color="#000000"/>
 </g>
 <g inkscape:groupmode="layer" id="layer2" inkscape:label="Symbol">
  <path d="M 9,5.00028 9,9 11,9 8,13 5,9 7,9 7,5.00028 z" inkscape:connector-curvature="0" id="path4238" sodipodi:nodetypes="cccccccc" opacity="0.3" color="#000000"/>
  <path sodipodi:nodetypes="cccccccc" id="rect3005" inkscape:connector-curvature="0" d="m 9,4.00014 0,3.99972 2,0 -3,4 -3,-4 2,0 0,-3.99972 z" fill="#ffffff" color="#000000"/>
 </g>
</svg>
