<?xml version="1.0" encoding="UTF-8" standalone="no"?>
<!-- Created with Inkscape (http://www.inkscape.org/) -->

<svg
   xmlns:dc="http://purl.org/dc/elements/1.1/"
   xmlns:cc="http://creativecommons.org/ns#"
   xmlns:rdf="http://www.w3.org/1999/02/22-rdf-syntax-ns#"
   xmlns:svg="http://www.w3.org/2000/svg"
   xmlns="http://www.w3.org/2000/svg"
   xmlns:xlink="http://www.w3.org/1999/xlink"
   xmlns:sodipodi="http://sodipodi.sourceforge.net/DTD/sodipodi-0.dtd"
   xmlns:inkscape="http://www.inkscape.org/namespaces/inkscape"
   width="16"
   height="16"
   id="svg3495"
   version="1.1"
   inkscape:version="0.48.4 r9939"
   sodipodi:docname="process-stop.svg">
  <defs
     id="defs3497">
    <linearGradient
       id="linearGradient3799">
      <stop
         id="stop3801"
         offset="0"
         style="stop-color:#f7f7f7;stop-opacity:1;" />
      <stop
         id="stop3803"
         offset="1"
         style="stop-color:#e6e6e6;stop-opacity:1;" />
    </linearGradient>
    <linearGradient
       id="linearGradient3831">
      <stop
         style="stop-color:#ffffff;stop-opacity:1;"
         offset="0"
         id="stop3833" />
      <stop
         style="stop-color:#ffffff;stop-opacity:0;"
         offset="1"
         id="stop3835" />
    </linearGradient>
    <linearGradient
       id="linearGradient3760">
      <stop
         style="stop-color:#e44343;stop-opacity:1;"
         offset="0"
         id="stop3762" />
      <stop
         style="stop-color:#ac0808;stop-opacity:1;"
         offset="1"
         id="stop3764" />
    </linearGradient>
    <linearGradient
       inkscape:collect="always"
       xlink:href="#linearGradient3760"
       id="linearGradient3766"
       x1="0.5"
       y1="8"
       x2="15.5"
       y2="8"
       gradientUnits="userSpaceOnUse"
       gradientTransform="matrix(0,1,-1,0,16,0)" />
    <linearGradient
       inkscape:collect="always"
       xlink:href="#linearGradient3831"
       id="linearGradient3837"
       x1="0"
       y1="40"
       x2="16"
       y2="40"
       gradientUnits="userSpaceOnUse"
       gradientTransform="matrix(0,1,-1,0,48,32)" />
    <linearGradient
       inkscape:collect="always"
       xlink:href="#linearGradient3799"
       id="linearGradient3788"
       gradientUnits="userSpaceOnUse"
       gradientTransform="matrix(0,1,-1,0,16,0)"
       x1="0.5"
       y1="8"
       x2="15.5"
       y2="8" />
    <linearGradient
       inkscape:collect="always"
       xlink:href="#linearGradient3760"
       id="linearGradient3801"
       gradientUnits="userSpaceOnUse"
       gradientTransform="matrix(0,1,-1,0,16,0)"
       x1="0.5"
       y1="8"
       x2="15.5"
       y2="8" />
    <linearGradient
       inkscape:collect="always"
       xlink:href="#linearGradient3760"
       id="linearGradient3796"
       gradientUnits="userSpaceOnUse"
       gradientTransform="matrix(0,1,-1,0,16,0)"
       x1="0.5"
       y1="8"
       x2="15.5"
       y2="8" />
    <clipPath
       clipPathUnits="userSpaceOnUse"
       id="clipPath3816">
      <path
         id="path3818"
         d="M 6.4375,4 4,6.4375 4,9.5625 6.4375,12 9.5625,12 12,9.5625 12,6.4375 9.5625,4 6.4375,4 z"
         style="fill:url(#linearGradient3820);fill-opacity:1;stroke:none"
         inkscape:connector-curvature="0" />
    </clipPath>
    <linearGradient
       inkscape:collect="always"
       xlink:href="#linearGradient3760"
       id="linearGradient3820"
       gradientUnits="userSpaceOnUse"
       gradientTransform="matrix(0,1,-1,0,16,0)"
       x1="0.5"
       y1="8"
       x2="15.5"
       y2="8" />
  </defs>
  <sodipodi:namedview
     id="base"
     pagecolor="#ffffff"
     bordercolor="#666666"
     borderopacity="1.0"
     inkscape:pageopacity="0.0"
     inkscape:pageshadow="2"
     inkscape:zoom="1"
     inkscape:cx="11.712892"
     inkscape:cy="8.5541666"
     inkscape:current-layer="layer1"
     showgrid="false"
     showborder="false"
     inkscape:grid-bbox="true"
     inkscape:document-units="px"
     inkscape:window-width="1364"
     inkscape:window-height="700"
     inkscape:window-x="0"
     inkscape:window-y="28"
     inkscape:window-maximized="1"
     inkscape:snap-bbox="true"
     inkscape:bbox-paths="true"
     inkscape:bbox-nodes="true"
     inkscape:snap-bbox-edge-midpoints="false">
    <inkscape:grid
       type="xygrid"
       id="grid3512"
       empspacing="4"
       visible="true"
       enabled="true"
       snapvisiblegridlinesonly="true"
       dotted="false" />
  </sodipodi:namedview>
  <metadata
     id="metadata3500">
    <rdf:RDF>
      <cc:Work
         rdf:about="">
        <dc:format>image/svg+xml</dc:format>
        <dc:type
           rdf:resource="http://purl.org/dc/dcmitype/StillImage" />
        <dc:title></dc:title>
      </cc:Work>
    </rdf:RDF>
  </metadata>
  <g
     id="layer1"
     inkscape:label="Layer 1"
     inkscape:groupmode="layer"
     transform="translate(0,-32)">
    <path
       style="fill:url(#linearGradient3788);fill-opacity:1.0;stroke:none"
       d="M 5.375 1.5 L 1.5 5.375 L 1.5 10.625 L 5.375 14.5 L 10.625 14.5 L 14.5 10.625 L 14.5 5.375 L 10.625 1.5 L 5.375 1.5 z "
       transform="translate(0,32)"
       id="rect2987" />
    <g
       id="g4241"
       style="opacity:0.2;fill:#000000;fill-opacity:1;display:inline;enable-background:new"
       transform="matrix(0.5,0,0,0.5,-156,-87)" />
    <path
       id="path3791"
       transform="translate(0,32)"
       d="M 5.375 1.5 L 1.5 5.375 L 1.5 10.625 L 5.375 14.5 L 10.625 14.5 L 14.5 10.625 L 14.5 5.375 L 10.625 1.5 L 5.375 1.5 z "
       style="fill:none;fill-opacity:1;stroke:#000000;stroke-opacity:1;opacity:0.41" />
    <path
       style="fill:#ffffff;fill-opacity:1;stroke:none;opacity:0.4"
       d="M 5.5625 2 L 2 5.5625 L 2 6.5625 L 5.5625 3 L 10.4375 3 L 14 6.5625 L 14 5.5625 L 10.4375 2 L 5.5625 2 z "
       transform="translate(0,32)"
       id="path3793" />
    <path
       style="fill:url(#linearGradient3796);fill-opacity:1;stroke:none"
       d="M 6.4375 4 L 4 6.4375 L 4 9.5625 L 6.4375 12 L 9.5625 12 L 12 9.5625 L 12 6.4375 L 9.5625 4 L 6.4375 4 z "
       transform="translate(0,32)"
       id="path3794" />
    <path
       style="fill:#000000;fill-opacity:1;stroke:none;opacity:0.3"
       d="M 6.4375 4 L 4 6.4375 L 4 7.4375 L 6.4375 5 L 9.5625 5 L 12 7.4375 L 12 6.4375 L 9.5625 4 L 6.4375 4 z "
       transform="translate(0,32)"
       id="path3805" />
    <path
       id="path3810"
       d="M 6.4375,45 4,42.5625 l 0,-1 L 6.4375,44 9.5625,44 12,41.5625 l 0,1 L 9.5625,45 6.4375,45 z"
       style="opacity:1;fill:#ffffff;fill-opacity:1;stroke:none"
       inkscape:connector-curvature="0" />
    <path
       id="path3812"
       transform="translate(0,32)"
       d="M 6.4375 4 L 4 6.4375 L 4 9.5625 L 6.4375 12 L 9.5625 12 L 12 9.5625 L 12 6.4375 L 9.5625 4 L 6.4375 4 z "
       style="fill:none;fill-opacity:1;stroke:#000000;stroke-opacity:1;stroke-width:2;stroke-miterlimit:4;stroke-dasharray:none;opacity:0.2"
       clip-path="url(#clipPath3816)" />
  </g>
</svg>
