<?xml version='1.0' encoding='UTF-8' standalone='no'?>
<svg height="16" xmlns:inkscape="http://www.inkscape.org/namespaces/inkscape" xmlns:sodipodi="http://sodipodi.sourceforge.net/DTD/sodipodi-0.dtd" version="1.1" width="16" xmlns="http://www.w3.org/2000/svg" enable-background="new">
 <metadata id="metadata90"/>
 <defs id="defs7386">
  <linearGradient id="linearGradient5606" osb:paint="solid">
   <stop id="stop5608"/>
  </linearGradient>
  <filter inkscape:collect="always" color-interpolation-filters="sRGB" id="filter7554">
   <feBlend inkscape:collect="always" id="feBlend7556" in2="BackgroundImage" mode="darken"/>
  </filter>
 </defs>
 <g inkscape:groupmode="layer" id="layer12" inkscape:label="actions" transform="translate(-321.00021,-49)">
  <g id="g3874" transform="translate(61.0002,397)" fill="#bebebe">
   <rect height="6" id="rect5820" rx="0.5" width="2" x="267" y="-347" color="#bebebe"/>
   <path inkscape:connector-curvature="0" d="M 9,5.34375 C 6.668833,6.1669998 5,8.3870028 5,11 c 0,3.313708 2.6862915,6 6,6 3.313708,0 6,-2.686292 6,-6 0,-2.6129972 -1.668833,-4.8330002 -4,-5.65625 l 0,2.21875 c 1.193791,0.6920851 2,1.9582915 2,3.4375 0,2.209139 -1.790861,4 -4,4 C 8.790861,15 7,13.209139 7,11 7,9.5207915 7.8062088,8.2545851 9,7.5625 L 9,5.34375 z" id="path3864-9" transform="translate(257.00019,-351)" color="#000000"/>
  </g>
 </g>
</svg>
