<?xml version='1.0' encoding='UTF-8' standalone='no'?>
<svg height="16" xmlns:inkscape="http://www.inkscape.org/namespaces/inkscape" xmlns:sodipodi="http://sodipodi.sourceforge.net/DTD/sodipodi-0.dtd" version="1.1" width="16" xmlns="http://www.w3.org/2000/svg" enable-background="new">
 <metadata id="metadata90"/>
 <defs id="defs7386">
  <linearGradient id="linearGradient5606" osb:paint="solid">
   <stop id="stop5608"/>
  </linearGradient>
  <filter inkscape:collect="always" color-interpolation-filters="sRGB" id="filter7554">
   <feBlend inkscape:collect="always" id="feBlend7556" in2="BackgroundImage" mode="darken"/>
  </filter>
 </defs>
 <g inkscape:groupmode="layer" id="layer12" inkscape:label="actions" transform="translate(-341.0002,-89)">
  <path inkscape:connector-curvature="0" d="m 341.0002,98.999989 0,3.000001 9,0 0,-1.99999 2,0 0,-2 3,0 0,-4.000011 c 0,0 0,-2 -2,-2 l -8,0 c 0,0 -2,0 -2,2 l 0,4 c 0,1 -1,1 -1,1 z m 12,1.1e-5 0,2 -2,0 0,2 2,0 0,2 2,0 0,-2 2,0 0,-2 -2,0 0,-2 z" id="path3027-5" sodipodi:nodetypes="ccccccccccccccccccccccccccc" fill="#bebebe"/>
 </g>
</svg>
