<?xml version="1.0" encoding="UTF-8" standalone="no"?>
<!-- Created with Inkscape (http://www.inkscape.org/) -->

<svg
   xmlns:dc="http://purl.org/dc/elements/1.1/"
   xmlns:cc="http://creativecommons.org/ns#"
   xmlns:rdf="http://www.w3.org/1999/02/22-rdf-syntax-ns#"
   xmlns:svg="http://www.w3.org/2000/svg"
   xmlns="http://www.w3.org/2000/svg"
   xmlns:xlink="http://www.w3.org/1999/xlink"
   xmlns:sodipodi="http://sodipodi.sourceforge.net/DTD/sodipodi-0.dtd"
   xmlns:inkscape="http://www.inkscape.org/namespaces/inkscape"
   version="1.1"
   width="16"
   height="16"
   id="svg3279"
   inkscape:version="0.48.4 r9939"
   sodipodi:docname="tag-new.svg">
  <sodipodi:namedview
     pagecolor="#ffffff"
     bordercolor="#666666"
     borderopacity="1"
     objecttolerance="10"
     gridtolerance="10"
     guidetolerance="10"
     inkscape:pageopacity="0"
     inkscape:pageshadow="2"
     inkscape:window-width="1364"
     inkscape:window-height="700"
     id="namedview19"
     showgrid="false"
     showborder="false"
     inkscape:zoom="1"
     inkscape:cx="-117.64696"
     inkscape:cy="2.9314167"
     inkscape:window-x="0"
     inkscape:window-y="28"
     inkscape:window-maximized="1"
     inkscape:current-layer="layer1">
    <inkscape:grid
       type="xygrid"
       id="grid3009" />
  </sodipodi:namedview>
  <defs
     id="defs3281">
    <linearGradient
       id="linearGradient4222">
      <stop
         id="stop4224"
         style="stop-color:#ffffff;stop-opacity:1"
         offset="0" />
      <stop
         id="stop4226"
         style="stop-color:#ffffff;stop-opacity:0"
         offset="1" />
    </linearGradient>
    <linearGradient
       id="linearGradient3243">
      <stop
         id="stop3245"
         style="stop-color:#eeeeee;stop-opacity:1;"
         offset="0" />
      <stop
         id="stop3247"
         style="stop-color:#dfdfdf;stop-opacity:1;"
         offset="1" />
    </linearGradient>
    <linearGradient
       x1="40.006763"
       y1="12.910877"
       x2="40.006763"
       y2="7.0924568"
       id="linearGradient3029"
       xlink:href="#linearGradient4222"
       gradientUnits="userSpaceOnUse"
       gradientTransform="matrix(-0.82996661,0,0,0.83014725,39.690513,-2.8028554)" />
    <linearGradient
       x1="38.382198"
       y1="5.90625"
       x2="38.382198"
       y2="22.697742"
       id="linearGradient3032"
       xlink:href="#linearGradient4222"
       gradientUnits="userSpaceOnUse"
       gradientTransform="matrix(0.63241105,0,0,0.63366331,-16.06917,-0.5594047)" />
    <linearGradient
       x1="39.905758"
       y1="6.1230369"
       x2="39.905758"
       y2="24.0341"
       id="linearGradient3035"
       xlink:href="#linearGradient3243"
       gradientUnits="userSpaceOnUse"
       gradientTransform="matrix(-0.6666711,0,0,0.6666711,33.153019,-1.1667711)" />
    <linearGradient
       inkscape:collect="always"
       xlink:href="#linearGradient3904"
       id="linearGradient3902"
       x1="12"
       y1="16"
       x2="12"
       y2="8"
       gradientUnits="userSpaceOnUse"
       gradientTransform="translate(0.5,0.5)" />
    <linearGradient
       id="linearGradient3904">
      <stop
         id="stop3906"
         offset="0"
         style="stop-color:#104b88;stop-opacity:1;" />
      <stop
         id="stop3908"
         offset="1"
         style="stop-color:#0e7398;stop-opacity:1;" />
    </linearGradient>
    <linearGradient
       y2="9"
       x2="12"
       y1="15"
       x1="12"
       gradientTransform="translate(0.5,0.5)"
       gradientUnits="userSpaceOnUse"
       id="linearGradient3059"
       xlink:href="#linearGradient3886"
       inkscape:collect="always" />
    <linearGradient
       inkscape:collect="always"
       id="linearGradient3886">
      <stop
         style="stop-color:#5097e1;stop-opacity:1;"
         offset="0"
         id="stop3888" />
      <stop
         style="stop-color:#53d0ff;stop-opacity:1"
         offset="1"
         id="stop3890" />
    </linearGradient>
    <linearGradient
       y2="9"
       x2="12"
       y1="15"
       x1="12"
       gradientTransform="translate(0.5,0.5)"
       gradientUnits="userSpaceOnUse"
       id="linearGradient3046"
       xlink:href="#linearGradient3886"
       inkscape:collect="always" />
    <linearGradient
       inkscape:collect="always"
       xlink:href="#linearGradient3243"
       id="linearGradient3836"
       gradientUnits="userSpaceOnUse"
       gradientTransform="matrix(0.6666711,0,0,0.6666711,-17.166785,-1.1667711)"
       x1="39.905758"
       y1="6.1230369"
       x2="39.905758"
       y2="24.0341" />
    <radialGradient
       inkscape:collect="always"
       xlink:href="#linearGradient2378-8"
       id="radialGradient3067-1"
       gradientUnits="userSpaceOnUse"
       cx="38.658855"
       cy="9.3411446"
       fx="38.658855"
       fy="9.3411446"
       r="8.341651" />
    <linearGradient
       id="linearGradient2378-8">
      <stop
         id="stop2380-8"
         style="stop-color:#ffffff;stop-opacity:1"
         offset="0" />
      <stop
         id="stop4146-9"
         style="stop-color:#fefede;stop-opacity:0.91836733"
         offset="0.25" />
      <stop
         id="stop2386-8"
         style="stop-color:#f5f328;stop-opacity:1"
         offset="0.5" />
      <stop
         id="stop10317-3"
         style="stop-color:#f5f32d;stop-opacity:0.12234043"
         offset="1" />
    </linearGradient>
    <linearGradient
       inkscape:collect="always"
       xlink:href="#linearGradient3243"
       id="linearGradient3062"
       gradientUnits="userSpaceOnUse"
       gradientTransform="matrix(-0.6666711,0,0,0.6666711,33.153019,-0.16677116)"
       x1="39.905758"
       y1="6.1230369"
       x2="39.905758"
       y2="24.0341" />
    <linearGradient
       inkscape:collect="always"
       xlink:href="#linearGradient4222"
       id="linearGradient3064"
       gradientUnits="userSpaceOnUse"
       gradientTransform="matrix(-0.82996661,0,0,0.83014725,39.690513,-1.8028555)"
       x1="40.006763"
       y1="12.910877"
       x2="40.006763"
       y2="7.0924568" />
  </defs>
  <metadata
     id="metadata3284">
    <rdf:RDF>
      <cc:Work
         rdf:about="">
        <dc:format>image/svg+xml</dc:format>
        <dc:type
           rdf:resource="http://purl.org/dc/dcmitype/StillImage" />
        <dc:title></dc:title>
      </cc:Work>
    </rdf:RDF>
  </metadata>
  <g
     inkscape:groupmode="layer"
     id="layer1"
     inkscape:label="Background">
    <path
       d="M 9.1528607,3.4999191 15.486234,10.062463 9.9861998,15.5 3.4861582,9.1666241 l 0,-5.666705 5.6667025,0 z m -2.6666849,2.000014 c -0.5520026,0 -1.0000066,0.448002 -1.0000066,1.000006 0,0.552004 0.448004,1.000007 1.0000066,1.000007 0.5520042,0 1.0000072,-0.448003 1.0000072,-1.000007 0,-0.552004 -0.448003,-1.000006 -1.0000072,-1.000006 z"
       inkscape:connector-curvature="0"
       id="path2463"
       style="fill:url(#linearGradient3062);fill-opacity:1;fill-rule:evenodd;stroke:none" />
    <path
       d="M 6.4918491,4.5010735 C 5.2358702,4.4567937 4.2002582,5.7909531 4.5577382,6.9971781 4.8231942,8.1808174 6.2803458,8.8629499 7.3568224,8.2988449 8.4648264,7.8093157 8.8510513,6.2507989 8.0916253,5.3042991 7.7227102,4.8049751 7.1133875,4.4962645 6.4918491,4.5010735 z"
       inkscape:connector-curvature="0"
       id="path3294"
       style="opacity:0.6;fill:none;stroke:url(#linearGradient3064);stroke-width:1.00000012px;stroke-linecap:butt;stroke-linejoin:miter;stroke-opacity:1" />
    <path
       d="m 5.6528342,5.9995633 c -0.73935,-0.391482 -1.702694,-0.511416 -2.617932,-0.53183 -0.411434,-0.0092 -0.8273,0.0746 -1.231029,-0.02143 C 1.290042,5.3240813 0.93987997,4.9476243 0.99110193,4.6034643 1.0598719,4.1414853 1.6804522,3.8004433 2.2624842,3.5563923 2.7787602,3.3399163 3.1761202,2.9541571 3.3861172,2.5466457 3.4922152,2.3407557 3.3069272,2.124569 3.0097182,2.0582025 2.7397202,1.9979115 2.4569272,1.9740795 2.1821832,2.0352985 1.7640192,2.1284735 1.270389,2.2421466 1.075862,2.5384083"
       inkscape:connector-curvature="0"
       id="path3298"
       style="opacity:0.41000001;color:#000000;fill:none;stroke:#000000;stroke-width:1.00000012px;stroke-linecap:butt;stroke-linejoin:miter;stroke-miterlimit:4;stroke-opacity:1;stroke-dasharray:none;stroke-dashoffset:0;marker:none;visibility:visible;display:inline;overflow:visible;enable-background:accumulate" />
    <path
       d="M 9.1528607,3.499919 15.486234,10.062463 9.9861998,15.5 3.4861582,9.166624 l 0,-5.666705 5.6667025,0 z M 6.4861758,5.499933 c -0.5520026,0 -1.0000066,0.448002 -1.0000066,1.000006 0,0.552004 0.448004,1.000007 1.0000066,1.000007 0.5520042,0 1.0000072,-0.448003 1.0000072,-1.000007 0,-0.552004 -0.448003,-1.000006 -1.0000072,-1.000006 z"
       inkscape:connector-curvature="0"
       id="path2463-3"
       style="opacity:0.41000001;fill:none;stroke:#000000;stroke-width:1.00000012px;stroke-linecap:butt;stroke-linejoin:miter;stroke-opacity:1" />
    <path
       style="opacity:0.4;fill:#ffffff;fill-opacity:1;fill-rule:evenodd;stroke:none"
       d="m 8.9549862,3.9999999 5.8437478,6.0625001 -0.5,0.5 -5.3437478,-5.5625001 -2.46875,0 -2.5,0 0,-1 4.96875,0 z m -1.0625,3 c 0.053994,0.1539545 0.09375,0.3286385 0.09375,0.5 0,0.8225353 -0.6774646,1.5 -1.5,1.5 -0.822535,0 -1.5,-0.6774641 -1.5,-1.5 0,-0.1713616 0.039756,-0.3460454 0.09375,-0.5 0.205176,0.5850274 0.755076,1 1.40625,1 0.6511739,0 1.2010741,-0.4149727 1.40625,-1 z"
       id="path2996"
       inkscape:connector-curvature="0" />
    <path
       style="opacity:0.2;fill:#000000;fill-opacity:1;fill-rule:evenodd;stroke:none"
       d="m 6.4862362,4.9994999 c 0.8225348,0 1.5,0.6774647 1.5,1.5 0,0.1713615 -0.039756,0.3460455 -0.09375,0.5 -0.205176,-0.5850273 -0.7550766,-1 -1.40625,-1 -0.651173,0 -1.201074,0.4149726 -1.40625,1 -0.053994,-0.1539546 -0.09375,-0.3286384 -0.09375,-0.5 0,-0.8225359 0.677466,-1.5 1.5,-1.5 z m -2.5,3.96875 5.9999996,5.8437501 4.3124982,-4.25 0.5,0.5 -4.8124982,4.75 -5.9999996,-5.8437501 0,-1 z"
       id="path3828"
       inkscape:connector-curvature="0" />
  </g>
  <g
     inkscape:groupmode="layer"
     id="layer2"
     inkscape:label="Symbol">
    <g
       style="display:inline"
       transform="matrix(0.93921201,0,0,1.0101746,-14.82833,-426.22336)"
       id="g11289">
      <g
         transform="translate(1,-2)"
         id="g11291">
        <path
           d="m 47.000506,9.3411446 a 8.341651,8.341651 0 1 1 -16.683302,0 8.341651,8.341651 0 1 1 16.683302,0 z"
           inkscape:connector-curvature="0"
           transform="matrix(0.6381964,0,0,0.6527009,1.8280575,423.27802)"
           id="path11293"
           style="fill:url(#radialGradient3067-1);fill-opacity:1;fill-rule:evenodd;stroke:none" />
        <path
           d="m 33.71875,0.03125 c -0.46837,-0.02427825 -1.008512,0.01404767 -1.5625,0.25 -1.129977,0.48127465 -1.700725,1.4483493 -1.9375,2.0625 -0.236775,0.6141507 -0.281018,1.0549602 -0.3125,1.46875 -0.06296,0.8275796 0.01008,1.5217193 0.0625,2.1875 0.03304,0.4196326 0.06923,0.7273675 0.09375,1.0625 -0.319841,0.1605167 -0.619458,0.3286599 -1.03125,0.53125 -0.610226,0.3002144 -1.253218,0.6168944 -1.9375,1.09375 -0.342141,0.2384278 -0.720058,0.4999648 -1.125,1 -0.404942,0.500035 -0.919606,1.417742 -0.8125,2.625 0.108676,1.224957 0.83472,2.054022 1.34375,2.46875 0.50903,0.414728 0.929157,0.59112 1.3125,0.75 0.766686,0.31776 1.443306,0.466599 2.09375,0.625 0.423819,0.103212 0.72877,0.16643 1.0625,0.25 0.05591,0.355577 0.119142,0.696752 0.1875,1.15625 0.09984,0.671109 0.191872,1.391649 0.4375,2.1875 0.122814,0.397926 0.273261,0.807176 0.625,1.34375 0.351739,0.536574 1.042902,1.323794 2.21875,1.59375 1.189482,0.273085 2.196543,-0.144295 2.75,-0.5 0.553457,-0.355705 0.855882,-0.716081 1.125,-1.03125 0.538236,-0.630338 0.901965,-1.215335 1.25,-1.78125 0.224135,-0.36445 0.38361,-0.619366 0.5625,-0.90625 0.357545,0.05568 0.696337,0.112092 1.15625,0.1875 0.671715,0.110135 1.385879,0.209184 2.21875,0.21875 0.416435,0.0048 0.85184,0.01304 1.46875,-0.15625 0.61691,-0.169294 1.597608,-0.588383 2.21875,-1.625 0.629824,-1.051107 0.511312,-2.177123 0.34375,-2.8125 -0.167562,-0.635377 -0.377164,-1.02135 -0.59375,-1.375 -0.433171,-0.7073 -0.91187,-1.241553 -1.34375,-1.75 -0.276147,-0.325105 -0.469802,-0.553142 -0.6875,-0.8125 0.161407,-0.316481 0.320983,-0.6265922 0.53125,-1.03125 0.311591,-0.5996545 0.63911,-1.2121538 0.90625,-2 C 46.47732,6.9185769 46.595828,6.484287 46.625,5.84375 46.654172,5.203213 46.538668,4.1550279 45.75,3.25 44.950066,2.3320462 43.904222,2.1026594 43.25,2.0625 c -0.654222,-0.040159 -1.096889,0.03051 -1.5,0.125 -0.806222,0.1889801 -1.478143,0.4689271 -2.09375,0.71875 -0.40176,0.1630405 -0.683141,0.2800004 -1,0.40625 C 38.401264,3.0584702 38.169883,2.830184 37.84375,2.5 37.367094,2.0174234 36.855154,1.4970295 36.1875,1 35.853673,0.75148523 35.505496,0.47536814 34.90625,0.25 34.606627,0.13731593 34.18712,0.05552825 33.71875,0.03125 z"
           inkscape:connector-curvature="0"
           transform="matrix(0.3735602,0.1529503,-0.1660098,0.3441734,14.555208,419.81907)"
           id="path11295"
           style="color:#000000;fill:#edd400;fill-opacity:1;fill-rule:evenodd;stroke:none;stroke-width:0.5;marker:none;visibility:visible;display:inline;overflow:visible" />
        <path
           d="m 44.503206,15.464878 c -1.191831,1.966747 -3.665135,-0.99033 -5.763376,-0.04909 -2.024585,0.908204 -1.431674,4.753003 -3.591868,4.245718 -2.238783,-0.52574 -0.190729,-3.79178 -1.734298,-5.496465 -1.489383,-1.644844 -4.962785,0.107157 -5.147865,-2.10407 -0.191814,-2.2916723 3.547258,-1.353118 4.691521,-3.3479161 1.104095,-1.9247728 -1.635497,-4.6867762 0.410312,-5.5461045 2.120236,-0.8905915 2.383055,2.9555064 4.633817,3.4273387 2.171752,0.4552692 3.951993,-3.0037432 5.401452,-1.3236111 1.502192,1.7412568 -2.074449,3.1797221 -1.827664,5.466128 0.238121,2.206145 4.077962,2.830361 2.927969,4.728068 z"
           inkscape:connector-curvature="0"
           transform="matrix(0.3831859,0.1529503,-0.1702874,0.3441734,14.241265,419.81907)"
           id="path11297"
           style="color:#000000;fill:#ffffff;fill-opacity:1;fill-rule:evenodd;stroke:none;stroke-width:0.5;marker:none;visibility:visible;display:inline;overflow:visible" />
      </g>
      <rect
         width="1"
         height="1"
         x="27"
         y="424"
         id="rect11299"
         style="fill:#ffffff;fill-opacity:1;stroke:none" />
      <rect
         width="1"
         height="1"
         x="24"
         y="426"
         id="rect11301"
         style="fill:#ffffff;fill-opacity:1;stroke:none" />
      <rect
         width="1"
         height="1"
         x="30"
         y="426"
         id="rect11303"
         style="fill:#ffffff;fill-opacity:1;stroke:none" />
      <rect
         width="1"
         height="1"
         x="29"
         y="429"
         id="rect11305"
         style="fill:#ffffff;fill-opacity:1;stroke:none" />
      <rect
         width="1"
         height="1"
         x="25"
         y="429"
         id="rect11307"
         style="fill:#ffffff;fill-opacity:1;stroke:none" />
    </g>
  </g>
</svg>
