<?xml version='1.0' encoding='UTF-8' standalone='no'?>
<svg height="16.03" xmlns:inkscape="http://www.inkscape.org/namespaces/inkscape" xmlns:sodipodi="http://sodipodi.sourceforge.net/DTD/sodipodi-0.dtd" version="1.1" width="16" xmlns="http://www.w3.org/2000/svg" enable-background="new">
 <metadata id="metadata90"/>
 <defs id="defs7386">
  <linearGradient id="linearGradient5606" osb:paint="solid">
   <stop id="stop5608"/>
  </linearGradient>
  <filter inkscape:collect="always" color-interpolation-filters="sRGB" id="filter7554">
   <feBlend inkscape:collect="always" id="feBlend7556" in2="BackgroundImage" mode="darken"/>
  </filter>
 </defs>
 <g inkscape:groupmode="layer" id="layer12" inkscape:label="actions" transform="translate(-453.00021,-149)">
  <path inkscape:connector-curvature="0" d="m 454.0002,149.03125 0,1 0,11 0,1 2,0 0,-1 0,-0.0312 -1,0 0,-11 9,0 0,1.03125 1,0 0,-2 -2,0 -8,0 -1,0 z" id="path8130" color="#000000" stroke-width="2" fill="#bebebe"/>
  <path inkscape:connector-curvature="0" d="m 457.0002,152.03125 0,1 0,11 0,1 1,0 9,0 1,0 0,-1 0,-11 0,-1 -1,0 -9,0 -1,0 z m 1,0.96875 9,0 0,11 -9,0 0,-11 z" id="path8128" color="#000000" stroke-width="2" fill="#bebebe"/>
 </g>
</svg>
