<?xml version="1.0" encoding="UTF-8" standalone="no"?>
<!-- Created with Inkscape (http://www.inkscape.org/) -->

<svg
   xmlns:dc="http://purl.org/dc/elements/1.1/"
   xmlns:cc="http://creativecommons.org/ns#"
   xmlns:rdf="http://www.w3.org/1999/02/22-rdf-syntax-ns#"
   xmlns:svg="http://www.w3.org/2000/svg"
   xmlns="http://www.w3.org/2000/svg"
   xmlns:xlink="http://www.w3.org/1999/xlink"
   xmlns:sodipodi="http://sodipodi.sourceforge.net/DTD/sodipodi-0.dtd"
   xmlns:inkscape="http://www.inkscape.org/namespaces/inkscape"
   width="16"
   height="16"
   id="svg3495"
   version="1.1"
   inkscape:version="0.48.4 r9939"
   sodipodi:docname="window-close.svg">
  <defs
     id="defs3497">
    <linearGradient
       id="linearGradient3783">
      <stop
         style="stop-color:#555555;stop-opacity:1;"
         offset="0"
         id="stop3785" />
      <stop
         style="stop-color:#666666;stop-opacity:1;"
         offset="1"
         id="stop3787" />
    </linearGradient>
    <clipPath
       clipPathUnits="userSpaceOnUse"
       id="clipPath3669">
      <path
         inkscape:connector-curvature="0"
         d="M 0,96 96,96 96,0 0,0 0,96 z"
         id="path3671" />
    </clipPath>
    <linearGradient
       inkscape:collect="always"
       xlink:href="#linearGradient3783"
       id="linearGradient3789"
       x1="11"
       y1="22"
       x2="11"
       y2="0"
       gradientUnits="userSpaceOnUse"
       gradientTransform="translate(-3,29)" />
    <linearGradient
       inkscape:collect="always"
       xlink:href="#linearGradient3783"
       id="linearGradient3779"
       x1="8"
       y1="16"
       x2="8"
       y2="0"
       gradientUnits="userSpaceOnUse" />
    <linearGradient
       inkscape:collect="always"
       xlink:href="#linearGradient3783"
       id="linearGradient3791"
       gradientUnits="userSpaceOnUse"
       x1="8"
       y1="16"
       x2="8"
       y2="0" />
  </defs>
  <sodipodi:namedview
     id="base"
     pagecolor="#ffffff"
     bordercolor="#666666"
     borderopacity="1.0"
     inkscape:pageopacity="0.0"
     inkscape:pageshadow="2"
     inkscape:zoom="1"
     inkscape:cx="16.819479"
     inkscape:cy="3.854402"
     inkscape:current-layer="layer1"
     showgrid="false"
     showborder="false"
     inkscape:grid-bbox="true"
     inkscape:document-units="px"
     inkscape:window-width="1364"
     inkscape:window-height="700"
     inkscape:window-x="0"
     inkscape:window-y="28"
     inkscape:window-maximized="1"
     inkscape:snap-bbox="true"
     inkscape:bbox-paths="true"
     inkscape:bbox-nodes="true"
     inkscape:snap-bbox-edge-midpoints="false"
     showguides="true"
     inkscape:guide-bbox="true">
    <inkscape:grid
       type="xygrid"
       id="grid3512"
       empspacing="4"
       visible="true"
       enabled="true"
       snapvisiblegridlinesonly="true"
       dotted="false" />
  </sodipodi:namedview>
  <metadata
     id="metadata3500">
    <rdf:RDF>
      <cc:Work
         rdf:about="">
        <dc:format>image/svg+xml</dc:format>
        <dc:type
           rdf:resource="http://purl.org/dc/dcmitype/StillImage" />
        <dc:title></dc:title>
      </cc:Work>
    </rdf:RDF>
  </metadata>
  <g
     id="layer1"
     inkscape:label="Layer 1"
     inkscape:groupmode="layer"
     transform="translate(0,-32)">
    <path
       style="font-size:medium;font-style:normal;font-variant:normal;font-weight:normal;font-stretch:normal;text-indent:0;text-align:start;text-decoration:none;line-height:normal;letter-spacing:normal;word-spacing:normal;text-transform:none;direction:ltr;block-progression:tb;writing-mode:lr-tb;text-anchor:start;baseline-shift:baseline;color:#000000;fill:url(#linearGradient3779);fill-opacity:1;stroke:none;stroke-width:3;marker:none;visibility:visible;display:inline;overflow:visible;enable-background:accumulate;font-family:Sans;-inkscape-font-specification:Sans"
       d="M 3 0.875 L 0.875 3 L 1.9375 4.0625 L 5.875 8 L 1.9375 11.9375 L 0.875 13 L 3 15.125 L 4.0625 14.0625 L 8 10.125 L 11.9375 14.0625 L 13 15.125 L 15.125 13 L 14.0625 11.9375 L 10.125 8 L 14.0625 4.0625 L 15.125 3 L 13 0.875 L 11.9375 1.9375 L 8 5.875 L 4.0625 1.9375 L 3 0.875 z "
       transform="translate(0,32)"
       id="path2992" />
    <path
       id="path3781"
       transform="translate(0,32)"
       d="M 3 0.875 L 0.875 3 L 1.9375 4.0625 L 5.875 8 L 1.9375 11.9375 L 0.875 13 L 3 15.125 L 4.0625 14.0625 L 8 10.125 L 11.9375 14.0625 L 13 15.125 L 15.125 13 L 14.0625 11.9375 L 10.125 8 L 14.0625 4.0625 L 15.125 3 L 13 0.875 L 11.9375 1.9375 L 8 5.875 L 4.0625 1.9375 L 3 0.875 z "
       style="font-size:medium;font-style:normal;font-variant:normal;font-weight:normal;font-stretch:normal;text-indent:0;text-align:start;text-decoration:none;line-height:normal;letter-spacing:normal;word-spacing:normal;text-transform:none;direction:ltr;block-progression:tb;writing-mode:lr-tb;text-anchor:start;baseline-shift:baseline;color:#000000;fill:none;fill-opacity:1;stroke:#000000;stroke-width:1;marker:none;visibility:visible;display:inline;overflow:visible;enable-background:accumulate;font-family:Sans;-inkscape-font-specification:Sans;stroke-opacity:1;stroke-miterlimit:4;stroke-dasharray:none;opacity:0.61" />
    <path
       style="font-size:medium;font-style:normal;font-variant:normal;font-weight:normal;font-stretch:normal;text-indent:0;text-align:start;text-decoration:none;line-height:normal;letter-spacing:normal;word-spacing:normal;text-transform:none;direction:ltr;block-progression:tb;writing-mode:lr-tb;text-anchor:start;baseline-shift:baseline;color:#000000;fill:#ffffff;fill-opacity:1;stroke:none;stroke-width:3;marker:none;visibility:visible;display:inline;overflow:visible;enable-background:accumulate;font-family:Sans;-inkscape-font-specification:Sans;opacity:0.2"
       d="M 3 1.5625 L 1.5625 3 L 2.0625 3.5 L 3 2.5625 L 3.71875 3.28125 L 7.65625 7.21875 L 8 7.59375 L 8.34375 7.21875 L 12.28125 3.28125 L 13 2.5625 L 13.9375 3.5 L 14.4375 3 L 13 1.5625 L 12.28125 2.28125 L 8.34375 6.21875 L 8 6.59375 L 7.65625 6.21875 L 3.71875 2.28125 L 3 1.5625 z M 6.0625 8.5 L 2.28125 12.28125 L 1.5625 13 L 2.0625 13.5 L 2.28125 13.28125 L 6.21875 9.34375 L 6.59375 9 L 6.21875 8.65625 L 6.0625 8.5 z M 9.9375 8.5 L 9.78125 8.65625 L 9.40625 9 L 9.78125 9.34375 L 13.71875 13.28125 L 13.9375 13.5 L 14.4375 13 L 13.71875 12.28125 L 9.9375 8.5 z "
       transform="translate(0,32)"
       id="path3783" />
  </g>
</svg>
