<?xml version="1.0" encoding="UTF-8" standalone="no"?>
<svg
   xmlns:dc="http://purl.org/dc/elements/1.1/"
   xmlns:cc="http://creativecommons.org/ns#"
   xmlns:rdf="http://www.w3.org/1999/02/22-rdf-syntax-ns#"
   xmlns:svg="http://www.w3.org/2000/svg"
   xmlns="http://www.w3.org/2000/svg"
   xmlns:xlink="http://www.w3.org/1999/xlink"
   version="1.1"
   id="svg5400"
   height="16px"
   width="16px">
  <defs
     id="defs5402">
    <linearGradient
       id="linearGradient3821">
      <stop
         id="stop3823"
         offset="0"
         style="stop-color:#f7f7f7;stop-opacity:1;" />
      <stop
         id="stop3825"
         offset="1"
         style="stop-color:#dddddd;stop-opacity:1;" />
    </linearGradient>
    <linearGradient
       gradientTransform="matrix(1,0,0,-1,0,16)"
       gradientUnits="userSpaceOnUse"
       y2="0"
       x2="8"
       y1="16"
       x1="8"
       id="linearGradient4448"
       xlink:href="#linearGradient3821" />
  </defs>
  <metadata
     id="metadata5405">
    <rdf:RDF>
      <cc:Work
         rdf:about="">
        <dc:format>image/svg+xml</dc:format>
        <dc:type
           rdf:resource="http://purl.org/dc/dcmitype/StillImage" />
        <dc:title />
      </cc:Work>
    </rdf:RDF>
  </metadata>
  <g
     id="layer1">
    <path
       id="path4436"
       d="M 3.5 1.5 C 3.5 1.5 1.5 1.5 1.5 3.5 L 1.5 12.5 C 1.5 12.5 1.5 14.5 3.5 14.5 L 12.5 14.5 C 12.5 14.5 14.5 14.5 14.5 12.5 L 14.5 3.5 C 14.5 3.5 14.5 1.5 12.5 1.5 L 3.5 1.5 z M 6.5 4.5 L 7 4.5 L 9 4.5 L 9.5 4.5 L 9.5 5 L 9.5 11 L 9.5 11.5 L 9 11.5 L 7 11.5 L 6.5 11.5 L 6.5 11 L 6.5 7.5 L 6 7.5 L 5.5 7.5 L 5.5 7 L 5.5 6 L 5.5 5.5 L 6 5.5 C 6 5.5 6.150507 5.5028715 6.28125 5.4375 C 6.411993 5.3721285 6.5 5.3333333 6.5 5 L 6.5 4.5 z "
       style="font-size:medium;font-style:normal;font-variant:normal;font-weight:normal;font-stretch:normal;text-indent:0;text-align:start;text-decoration:none;line-height:normal;letter-spacing:normal;word-spacing:normal;text-transform:none;direction:ltr;block-progression:tb;writing-mode:lr-tb;text-anchor:start;baseline-shift:baseline;color:#000000;fill:url(#linearGradient4448);fill-opacity:1;stroke:none;stroke-width:1;marker:none;visibility:visible;display:inline;overflow:visible;enable-background:accumulate;font-family:Sans;-inkscape-font-specification:Sans" />
    <path
       id="path3832"
       d="M 3.5 1.5 C 3.5 1.5 1.5 1.5 1.5 3.5 L 1.5 12.5 C 1.5 12.5 1.5 14.5 3.5 14.5 L 12.5 14.5 C 12.5 14.5 14.5 14.5 14.5 12.5 L 14.5 3.5 C 14.5 3.5 14.5 1.5 12.5 1.5 L 3.5 1.5 z M 6.5 4.5 L 7 4.5 L 9 4.5 L 9.5 4.5 L 9.5 5 L 9.5 11 L 9.5 11.5 L 9 11.5 L 7 11.5 L 6.5 11.5 L 6.5 11 L 6.5 7.5 L 6 7.5 L 5.5 7.5 L 5.5 7 L 5.5 6 L 5.5 5.5 L 6 5.5 C 6 5.5 6.150507 5.5028715 6.28125 5.4375 C 6.411993 5.3721285 6.5 5.3333333 6.5 5 L 6.5 4.5 z "
       style="font-size:medium;font-style:normal;font-variant:normal;font-weight:normal;font-stretch:normal;text-indent:0;text-align:start;text-decoration:none;line-height:normal;letter-spacing:normal;word-spacing:normal;text-transform:none;direction:ltr;block-progression:tb;writing-mode:lr-tb;text-anchor:start;baseline-shift:baseline;opacity:0.41000001;color:#000000;fill:none;stroke:#000000;stroke-width:1;stroke-opacity:1;marker:none;visibility:visible;display:inline;overflow:visible;enable-background:accumulate;font-family:Sans;-inkscape-font-specification:Sans" />
  </g>
  <g
     id="layer2" />
</svg>
