<?xml version="1.0" encoding="UTF-8" standalone="no"?>
<svg
   xmlns:dc="http://purl.org/dc/elements/1.1/"
   xmlns:cc="http://creativecommons.org/ns#"
   xmlns:rdf="http://www.w3.org/1999/02/22-rdf-syntax-ns#"
   xmlns:svg="http://www.w3.org/2000/svg"
   xmlns="http://www.w3.org/2000/svg"
   id="svg2"
   height="48"
   width="48"
   version="1.2">
  <defs
     id="defs4" />
  <metadata
     id="metadata7">
    <rdf:RDF>
      <cc:Work
         rdf:about="">
        <dc:format>image/svg+xml</dc:format>
        <dc:type
           rdf:resource="http://purl.org/dc/dcmitype/StillImage" />
      </cc:Work>
    </rdf:RDF>
  </metadata>
  <path
     fill="#ffffff"
     id="path6210"
     d="M 23 8 C 22.446001 8 22 8.4460011 22 9 L 22 11 C 22 11.553999 22.446001 12 23 12 L 25 12 C 25.553999 12 26 11.553999 26 11 L 26 9 C 26 8.4460011 25.553999 8 25 8 L 23 8 z M 14.09375 11.6875 C 13.838131 11.6875 13.602118 11.772882 13.40625 11.96875 L 11.96875 13.40625 C 11.577014 13.797986 11.577014 14.420764 11.96875 14.8125 L 13.40625 16.21875 C 13.797986 16.610486 14.420764 16.610486 14.8125 16.21875 L 16.21875 14.8125 C 16.610486 14.420764 16.610486 13.797986 16.21875 13.40625 L 14.8125 11.96875 C 14.616632 11.772882 14.349369 11.6875 14.09375 11.6875 z M 33.90625 11.6875 C 33.650631 11.6875 33.383368 11.772882 33.1875 11.96875 L 31.78125 13.40625 C 31.389514 13.797986 31.389514 14.420764 31.78125 14.8125 L 33.1875 16.21875 C 33.579236 16.610486 34.202014 16.610486 34.59375 16.21875 L 36.03125 14.8125 C 36.422986 14.420764 36.422986 13.797986 36.03125 13.40625 L 34.59375 11.96875 C 34.397882 11.772882 34.161869 11.6875 33.90625 11.6875 z M 24 14 C 18.76365 14.00032 14 18.76445 14 24 C 14 29.23555 18.76365 33.99968 24 34 C 29.23633 34.00032 34 29.23613 34 24 C 34 18.76387 29.23633 13.99968 24 14 z M 9 22 C 8.4460011 22 8 22.446001 8 23 L 8 25 C 8 25.553999 8.4460011 26 9 26 L 11 26 C 11.553999 26 12 25.553999 12 25 L 12 23 C 12 22.446001 11.553999 22 11 22 L 9 22 z M 37 22 C 36.446001 22 36 22.446001 36 23 L 36 25 C 36 25.553999 36.446001 26 37 26 L 39 26 C 39.553999 26 40 25.553999 40 25 L 40 23 C 40 22.446001 39.553999 22 39 22 L 37 22 z M 14.09375 31.46875 C 13.838131 31.46875 13.602118 31.585382 13.40625 31.78125 L 11.96875 33.1875 C 11.577014 33.579236 11.577014 34.202014 11.96875 34.59375 L 13.40625 36.03125 C 13.797986 36.422986 14.420764 36.422986 14.8125 36.03125 L 16.21875 34.59375 C 16.610486 34.202014 16.610486 33.579236 16.21875 33.1875 L 14.8125 31.78125 C 14.616632 31.585382 14.349369 31.46875 14.09375 31.46875 z M 33.90625 31.46875 C 33.650631 31.46875 33.383368 31.585382 33.1875 31.78125 L 31.78125 33.1875 C 31.389514 33.579236 31.389514 34.202014 31.78125 34.59375 L 33.1875 36.03125 C 33.579236 36.422986 34.202014 36.422986 34.59375 36.03125 L 36.03125 34.59375 C 36.422986 34.202014 36.422986 33.579236 36.03125 33.1875 L 34.59375 31.78125 C 34.397882 31.585382 34.161869 31.46875 33.90625 31.46875 z M 23 36 C 22.446001 36 22 36.446001 22 37 L 22 39 C 22 39.553999 22.446001 40 23 40 L 25 40 C 25.553999 40 26 39.553999 26 39 L 26 37 C 26 36.446001 25.553999 36 25 36 L 23 36 z " />
</svg>
