<?xml version='1.0' encoding='UTF-8' standalone='no'?>
<svg height="16" xmlns:inkscape="http://www.inkscape.org/namespaces/inkscape" xmlns:sodipodi="http://sodipodi.sourceforge.net/DTD/sodipodi-0.dtd" version="1.1" width="16.01" xmlns="http://www.w3.org/2000/svg" enable-background="new">
 <metadata id="metadata90"/>
 <defs id="defs7386">
  <linearGradient id="linearGradient5606" osb:paint="solid">
   <stop id="stop5608"/>
  </linearGradient>
  <filter inkscape:collect="always" color-interpolation-filters="sRGB" id="filter7554">
   <feBlend inkscape:collect="always" id="feBlend7556" in2="BackgroundImage" mode="darken"/>
  </filter>
 </defs>
 <g inkscape:groupmode="layer" id="layer10" inkscape:label="devices" transform="translate(-341.00009,71)" filter="url(#filter7554)">
  <path inkscape:connector-curvature="0" d="m 342.0002,-71 c -0.99979,0 -1,1 -1,1 l 0,10 c 0,0.0113 -2.5e-4,0.0202 0,0.0312 l 0,1.9688 c 0,0.554 0.446,1 1,1 l 14,0 c 0.554,0 1,-0.446 1,-1 l 0,-1.84375 c 0.0156,-0.0937 0,-0.15625 0,-0.15625 l 0,-10 c 0,0 0,-1 -1,-1 l -14,0 z m 0,1 14,0 0,10 -14,0 0,-10 z m 0,11 1,0 0,1 -1,0 0,-1 z m 2,3 0,1 10,0 0,-1 -10,0 z" id="path4922" fill="#bebebe"/>
 </g>
</svg>
