<?xml version='1.0' encoding='UTF-8' standalone='no'?>
<svg height="16" xmlns:inkscape="http://www.inkscape.org/namespaces/inkscape" xmlns:sodipodi="http://sodipodi.sourceforge.net/DTD/sodipodi-0.dtd" version="1.1" width="16.03" xmlns="http://www.w3.org/2000/svg" enable-background="new">
 <metadata id="metadata90"/>
 <defs id="defs7386">
  <linearGradient id="linearGradient5606" osb:paint="solid">
   <stop id="stop5608"/>
  </linearGradient>
  <filter inkscape:collect="always" color-interpolation-filters="sRGB" id="filter7554">
   <feBlend inkscape:collect="always" id="feBlend7556" in2="BackgroundImage" mode="darken"/>
  </filter>
 </defs>
 <g inkscape:groupmode="layer" id="layer10" inkscape:label="devices" transform="translate(-301.00021,71)" filter="url(#filter7554)">
  <path inkscape:connector-curvature="0" d="m 302.00021,-67 c -1,0 -1,1 -1,1 l 0,5 c 0,1 1,1 1,1 l 1,0 c 0,1 1,1 1,1 l 1,0 c 0,0 1,0 1,-1 l 6,0 c 0,1 0.96875,1 0.96875,1 l 1,0 c 0,0 1.03125,0 1.03125,-1 l 1,0 c 1,0 1,-1 1,-1 l 0,-5 c 0,0 0,-1 -1.03125,-1 l -13.96875,0 z m 2.5,1 c 1.378,0 2.5,1.1193 2.5,2.5 0,1.3807 -1.122,2.5 -2.5,2.5 -1.378,0 -2.5,-1.1193 -2.5,-2.5 0,-1.3807 1.122,-2.5 2.5,-2.5 z m 6.5,1 1,0 0,1 1,0 0,-1 1,0 0,1 1,0 0,-1 1,0 0,1 -1,0 0,1 1,0 0,1 -1,0 0,-1 -1,0 0,1 -1,0 0,-1 -1,0 0,0.875 -1,0 0,-1 1,0 0,-0.875 -1,0 0,-1 z m 2,2 1,0 0,-1 -1,0 0,1 z" id="rect9405" fill="#bebebe"/>
  <path inkscape:connector-curvature="0" d="m 304.31271,-65 a 1.5,1.5 0 0 0 -1.3125,1.5 1.5,1.5 0 0 0 3,0 1.5,1.5 0 0 0 -1.6875,-1.5 z m 0.1875,0.5 c 0.55229,0 1,0.44772 1,1 0,0.55228 -0.44771,1 -1,1 -0.55229,0 -1,-0.44772 -1,-1 0,-0.55228 0.44771,-1 1,-1 z" id="path9418" fill="#bebebe"/>
 </g>
</svg>
