<?xml version="1.0" encoding="UTF-8" standalone="no"?>
<svg
   xmlns:osb="http://www.openswatchbook.org/uri/2009/osb"
   xmlns:dc="http://purl.org/dc/elements/1.1/"
   xmlns:cc="http://creativecommons.org/ns#"
   xmlns:rdf="http://www.w3.org/1999/02/22-rdf-syntax-ns#"
   xmlns:svg="http://www.w3.org/2000/svg"
   xmlns="http://www.w3.org/2000/svg"
   width="16.000013"
   version="1.1"
   style="enable-background:new"
   id="svg7384"
   height="16">
  <metadata
     id="metadata90">
    <rdf:RDF>
      <cc:Work
         rdf:about="">
        <dc:format>image/svg+xml</dc:format>
        <dc:type
           rdf:resource="http://purl.org/dc/dcmitype/StillImage" />
        <dc:title>Moka Symbolic Icon Theme</dc:title>
      </cc:Work>
    </rdf:RDF>
  </metadata>
  <title
     id="title8473">Moka Symbolic Icon Theme</title>
  <defs
     id="defs7386">
    <linearGradient
       osb:paint="solid"
       id="linearGradient5606">
      <stop
         style="stop-color:#000000;stop-opacity:1;"
         offset="0"
         id="stop5608" />
    </linearGradient>
    <filter
       style="color-interpolation-filters:sRGB"
       id="filter7554">
      <feBlend
         mode="darken"
         in2="BackgroundImage"
         id="feBlend7556" />
    </filter>
  </defs>
  <g
     transform="translate(-361.0002,136.00335)"
     style="display:inline"
     id="layer9" />
  <g
     transform="translate(-361.0002,136.00335)"
     style="display:inline;filter:url(#filter7554)"
     id="layer10">
    <path
       style="display:inline;fill:#bebebe;fill-opacity:1;stroke:none;enable-background:new"
       id="path5892"
       d="m 362.5002,-135.00336 c -0.831,0 -1.5,0.669 -1.5,1.5 l 0,9 c 0,0.831 0.669,1.5 1.5,1.5 l 0.5,0 0,-1 -0.5,0 c -0.277,0 -0.5,-0.223 -0.5,-0.5 0,-0.277 0.223,-0.5 0.5,-0.5 l 0.5,0 12,0 0.5,0 c 0.277,0 0.5,0.223 0.5,0.5 0,0.277 -0.223,0.5 -0.5,0.5 l -0.5,0 0,1 0.5,0 c 0.831,0 1.5,-0.669 1.5,-1.5 l 0,-9 c 0,-0.831 -0.669,-1.5 -1.5,-1.5 z" />
    <path
       style="color:#000000;display:inline;overflow:visible;visibility:visible;fill:#bebebe;fill-opacity:1;fill-rule:nonzero;stroke:none;stroke-width:1;marker:none;enable-background:new"
       id="rect6895-2"
       d="m 364.09395,-124.00336 c 0.46623,2.27841 2.49001,4 4.90625,4 2.41624,0 4.44002,-1.72159 4.90625,-4 l -2.09375,0 c -0.41551,1.15835 -1.51118,2 -2.8125,2 -1.30132,0 -2.39699,-0.84165 -2.8125,-2 z m 3.1875,0 c 0.34604,0.5969 0.97915,1 1.71875,1 0.7396,0 1.37271,-0.4031 1.71875,-1 z" />
  </g>
  <g
     transform="translate(-120,-480.99665)"
     style="display:inline"
     id="layer1" />
  <g
     transform="translate(-361.0002,136.00335)"
     style="display:inline"
     id="layer14" />
  <g
     transform="translate(-361.0002,136.00335)"
     style="display:inline"
     id="layer15" />
  <g
     transform="translate(-361.0002,136.00335)"
     style="display:inline"
     id="g71291" />
  <g
     transform="translate(-120,-330.99665)"
     style="display:inline"
     id="layer2" />
  <g
     transform="translate(-120,-330.99665)"
     style="display:inline"
     id="g6058" />
  <g
     transform="translate(-361.0002,136.00335)"
     style="display:inline"
     id="layer12" />
</svg>
