<?xml version="1.0" encoding="UTF-8" standalone="no"?>
<svg
   xmlns:osb="http://www.openswatchbook.org/uri/2009/osb"
   xmlns:dc="http://purl.org/dc/elements/1.1/"
   xmlns:cc="http://creativecommons.org/ns#"
   xmlns:rdf="http://www.w3.org/1999/02/22-rdf-syntax-ns#"
   xmlns:svg="http://www.w3.org/2000/svg"
   xmlns="http://www.w3.org/2000/svg"
   width="16"
   version="1.1"
   style="enable-background:new"
   id="svg7384"
   height="16">
  <metadata
     id="metadata90">
    <rdf:RDF>
      <cc:Work
         rdf:about="">
        <dc:format>image/svg+xml</dc:format>
        <dc:type
           rdf:resource="http://purl.org/dc/dcmitype/StillImage" />
        <dc:title>Moka Symbolic Icon Theme</dc:title>
      </cc:Work>
    </rdf:RDF>
  </metadata>
  <title
     id="title8473">Moka Symbolic Icon Theme</title>
  <defs
     id="defs7386">
    <linearGradient
       osb:paint="solid"
       id="linearGradient5606">
      <stop
         style="stop-color:#000000;stop-opacity:1;"
         offset="0"
         id="stop5608" />
    </linearGradient>
    <filter
       style="color-interpolation-filters:sRGB"
       id="filter7554">
      <feBlend
         mode="darken"
         in2="BackgroundImage"
         id="feBlend7556" />
    </filter>
  </defs>
  <g
     transform="translate(-561.00044,156.00336)"
     style="display:inline"
     id="layer9" />
  <g
     transform="translate(-561.00044,156.00336)"
     style="display:inline;filter:url(#filter7554)"
     id="layer10">
    <path
       style="color:#bebebe;display:inline;overflow:visible;visibility:visible;fill:#bebebe;fill-opacity:1;fill-rule:nonzero;stroke:none;stroke-width:1.20000005;marker:none;enable-background:accumulate"
       id="rect7175"
       d="m 568.00021,-156.00336 c -2.76999,0 -5,2.676 -5,6 l 0,4 c 0,3.324 2.23001,6 5,6 l 1,0 c 2.76999,0 5,-2.676 5,-6 l 0,-4 c 0,-3.324 -2.23001,-6 -5,-6 l 0,2 c 0.554,0 1,0.446 1,1 l 0,2 c 0,0.554 -0.446,1 -1,1 l 0,1 c 0,0.27614 -0.22386,0.5 -0.5,0.5 -0.27614,0 -0.5,-0.22386 -0.5,-0.5 l 0,-1 c -0.554,0 -1,-0.446 -1,-1 l 0,-2 c 0,-0.554 0.446,-1 1,-1 l 0,-2 z" />
    <rect
       y="-153.00336"
       x="568.00018"
       width="1"
       style="color:#bebebe;display:inline;overflow:visible;visibility:visible;fill:#bebebe;fill-opacity:1;fill-rule:nonzero;stroke:none;stroke-width:1.20000005;marker:none;enable-background:accumulate"
       ry="0.5"
       id="rect7201"
       height="2" />
  </g>
  <g
     transform="translate(-320.00024,-460.99664)"
     style="display:inline"
     id="layer1" />
  <g
     transform="translate(-561.00044,156.00336)"
     style="display:inline"
     id="layer14" />
  <g
     transform="translate(-561.00044,156.00336)"
     style="display:inline"
     id="layer15" />
  <g
     transform="translate(-561.00044,156.00336)"
     style="display:inline"
     id="g71291" />
  <g
     transform="translate(-320.00024,-310.99664)"
     style="display:inline"
     id="layer2" />
  <g
     transform="translate(-320.00024,-310.99664)"
     style="display:inline"
     id="g6058" />
  <g
     transform="translate(-561.00044,156.00336)"
     style="display:inline"
     id="layer12" />
</svg>
