<?xml version="1.0" encoding="UTF-8" standalone="no"?>
<!-- Created with Inkscape (http://www.inkscape.org/) -->

<svg
   xmlns:dc="http://purl.org/dc/elements/1.1/"
   xmlns:cc="http://creativecommons.org/ns#"
   xmlns:rdf="http://www.w3.org/1999/02/22-rdf-syntax-ns#"
   xmlns:svg="http://www.w3.org/2000/svg"
   xmlns="http://www.w3.org/2000/svg"
   xmlns:sodipodi="http://sodipodi.sourceforge.net/DTD/sodipodi-0.dtd"
   xmlns:inkscape="http://www.inkscape.org/namespaces/inkscape"
   width="22"
   height="22"
   id="svg3495"
   version="1.1"
   inkscape:version="0.48.4 r9939"
   sodipodi:docname="edit-paste.svg">
  <defs
     id="defs3497" />
  <sodipodi:namedview
     id="base"
     pagecolor="#ffffff"
     bordercolor="#666666"
     borderopacity="1.0"
     inkscape:pageopacity="0.0"
     inkscape:pageshadow="2"
     inkscape:zoom="4"
     inkscape:cx="12.928389"
     inkscape:cy="8.6445336"
     inkscape:current-layer="layer1"
     showgrid="false"
     inkscape:grid-bbox="true"
     inkscape:document-units="px"
     inkscape:window-width="1364"
     inkscape:window-height="701"
     inkscape:window-x="0"
     inkscape:window-y="27"
     inkscape:window-maximized="1"
     inkscape:snap-bbox="true"
     inkscape:bbox-paths="true"
     inkscape:bbox-nodes="true"
     inkscape:snap-bbox-edge-midpoints="false">
    <inkscape:grid
       type="xygrid"
       id="grid3512"
       empspacing="4"
       visible="true"
       enabled="true"
       snapvisiblegridlinesonly="true"
       dotted="false" />
  </sodipodi:namedview>
  <metadata
     id="metadata3500">
    <rdf:RDF>
      <cc:Work
         rdf:about="">
        <dc:format>image/svg+xml</dc:format>
        <dc:type
           rdf:resource="http://purl.org/dc/dcmitype/StillImage" />
        <dc:title></dc:title>
      </cc:Work>
    </rdf:RDF>
  </metadata>
  <g
     id="layer1"
     inkscape:label="Layer 1"
     inkscape:groupmode="layer"
     transform="translate(0,-26)">
    <g
       id="g3811">
      <g
         transform="matrix(0.83333333,0,0,-0.83333333,18.888829,31.03725)"
         id="g4825">
        <path
           inkscape:connector-curvature="0"
           id="path4827"
           style="fill:#555555;fill-opacity:1;fill-rule:nonzero;stroke:none"
           d="m -1.0815523,-0.39507017 c -0.3416165,-0.2480097 -0.6301568,-0.63691193 -0.7691195,-0.91001213 -0.070446,-0.1418576 -0.1669481,-0.3126658 -0.2895054,-0.5249698 -0.106152,-0.1901086 -0.2344994,-0.4149578 -0.3850422,-0.691918 -0.7884198,-1.4475272 -1.5903498,-2.3903499 -1.59614,-2.3961399 -0.00579,-0.00579 -0.4468033,-0.5114596 -0.9360675,-0.9486128 -2.7338963,1.173462 -7.2115801,3.0841978 -7.6429441,3.1942099 -0.643667,0.161158 -1.257418,-0.2933655 -1.283474,-0.3126659 l -0.28275,-0.212304 0.30205,-0.1833534 6.5910747,-4.000965 -6.5910747,-3.9990358 -0.30205,-0.182388 0.28275,-0.213269 c 0.02605,-0.01834 0.639807,-0.472859 1.283474,-0.311701 0.427503,0.106153 4.9090478,2.020748 7.6429441,3.1942104 0.4892642,-0.4410133 0.9302775,-0.944753 0.9331725,-0.9486125 0.00868,-0.0097 0.8106152,-0.9486139 1.599035,-2.3990359 0.1505428,-0.27696 0.2788902,-0.502775 0.3879373,-0.691918 0.1196622,-0.213269 0.2161641,-0.380217 0.2866103,-0.522075 0.1389627,-0.2731 0.427503,-0.662002 0.7691195,-0.912906 1.01037389,-0.74017 2.4376357,-0.522075 3.1778046,0.488298 0.2866103,0.392763 0.4371532,0.853077 0.4371532,1.33848 0,0.717009 -0.3435465,1.402172 -0.9196623,1.833535 -0.2470447,0.183353 -0.5307599,0.315561 -0.79710491,0.376357 -0.2161641,0.0772 -0.3802172,0.103257 -0.5529554,0.132208 -0.2576598,0.04535 -0.54813029,0.09361 -1.13293125,0.3281056 -1.13872134,0.456454 -2.09119424,1.3027749 -2.10663454,1.3191803 -0.2769602,0.2306392 -0.5471652,0.6359468 -0.7855247,1.1705669 0.2383595,0.5365501 0.5085645,0.9418577 0.7913149,1.1802171 0.00965,0.00579 0.9592279,0.852111 2.10084434,1.3095295 0.58480096,0.2344995 0.87527145,0.2856455 1.13293125,0.3281062 0.1727382,0.027986 0.3367913,0.056936 0.5297949,0.1254524 0.28950551,0.070446 0.57322071,0.2026538 0.82702051,0.3850422 0.5732207,0.431363 0.9129072,1.1136309 0.9129072,1.8306393 0,0.4863692 -0.1505429,0.9495779 -0.4371532,1.33848013 -0.743064,1.01037397 -2.16743071,1.23232813 -3.1778046,0.4892642 M 0.41133069,-1.2577964 c 0.2595898,-0.041496 0.4882992,-0.1794933 0.64270201,-0.3889023 0.1264174,-0.1708082 0.1901086,-0.3705669 0.1901086,-0.5790108 0,-0.3117009 -0.1505428,-0.6108565 -0.40241261,-0.7942099 -0.2123039,-0.154403 -0.4689988,-0.2190592 -0.7305187,-0.1775634 -0.2566948,0.038601 -0.48540408,0.1775634 -0.63980696,0.3898674 -0.12545236,0.1698431 -0.18914355,0.3696019 -0.18914355,0.5790108 0,0.3117009 0.14764776,0.6069964 0.39855247,0.7913149 0.21230394,0.1572979 0.47285884,0.2180941 0.73051874,0.1794933 M -6.1546524,-7.3818012 c 0,0.424608 0.3445114,0.7691194 0.7691194,0.7691194 0.4217128,0 0.7652593,-0.3445114 0.7652593,-0.7691194 0,-0.4217129 -0.3435465,-0.7662244 -0.7652593,-0.7662244 -0.424608,0 -0.7691194,0.3445115 -0.7691194,0.7662244 m 6.99638109,-4.3628468 c 0.25186981,-0.182389 0.40241261,-0.478649 0.40241261,-0.79035 0,-0.20941 -0.063691,-0.409168 -0.1901086,-0.579976 -0.15440281,-0.21134 -0.38311221,-0.350301 -0.64270201,-0.387937 -0.2576599,-0.04246 -0.5182148,0.0222 -0.73051874,0.176597 -0.25090471,0.183355 -0.39855247,0.48251 -0.39855247,0.794211 0,0.209408 0.0636911,0.409168 0.18914355,0.579011 0.31845597,0.435223 0.93317246,0.53076 1.37032566,0.208444" />
      </g>
      <g
         transform="matrix(0.83333333,0,0,-0.83333333,15.333329,45.333334)"
         id="g4829">
        <path
           inkscape:connector-curvature="0"
           id="path4831"
           style="fill:#555555;fill-opacity:1;fill-rule:nonzero;stroke:none"
           d="m -0.39369477,0.40000049 -13.20000023,0 0,19.20000051 13.20000023,0 0,-3.6 L 2,16 l 0,6 -18,0 0,-24 16,0 2,0 0,6 -2.39369477,5e-7 z"
           sodipodi:nodetypes="cccccccccccccc" />
      </g>
    </g>
    <g
       id="g3817"
       style="opacity:0.1;fill:#ffffff;fill-opacity:1"
       transform="translate(0,-1.0000007)">
      <g
         id="g3819"
         transform="matrix(0.83333333,0,0,-0.83333333,18.888829,31.03725)"
         style="fill:#ffffff;fill-opacity:1">
        <path
           d="m -1.0815523,-0.39507017 c -0.3416165,-0.2480097 -0.6301568,-0.63691193 -0.7691195,-0.91001213 -0.070446,-0.1418576 -0.1669481,-0.3126658 -0.2895054,-0.5249698 -0.106152,-0.1901086 -0.2344994,-0.4149578 -0.3850422,-0.691918 -0.7884198,-1.4475272 -1.5903498,-2.3903499 -1.59614,-2.3961399 -0.00579,-0.00579 -0.4468033,-0.5114596 -0.9360675,-0.9486128 -2.7338963,1.173462 -7.2115801,3.0841978 -7.6429441,3.1942099 -0.643667,0.161158 -1.257418,-0.2933655 -1.283474,-0.3126659 l -0.28275,-0.212304 0.30205,-0.1833534 6.5910747,-4.000965 -6.5910747,-3.9990358 -0.30205,-0.182388 0.28275,-0.213269 c 0.02605,-0.01834 0.639807,-0.472859 1.283474,-0.311701 0.427503,0.106153 4.9090478,2.020748 7.6429441,3.1942104 0.4892642,-0.4410133 0.9302775,-0.944753 0.9331725,-0.9486125 0.00868,-0.0097 0.8106152,-0.9486139 1.599035,-2.3990359 0.1505428,-0.27696 0.2788902,-0.502775 0.3879373,-0.691918 0.1196622,-0.213269 0.2161641,-0.380217 0.2866103,-0.522075 0.1389627,-0.2731 0.427503,-0.662002 0.7691195,-0.912906 1.01037389,-0.74017 2.4376357,-0.522075 3.1778046,0.488298 0.2866103,0.392763 0.4371532,0.853077 0.4371532,1.33848 0,0.717009 -0.3435465,1.402172 -0.9196623,1.833535 -0.2470447,0.183353 -0.5307599,0.315561 -0.79710491,0.376357 -0.2161641,0.0772 -0.3802172,0.103257 -0.5529554,0.132208 -0.2576598,0.04535 -0.54813029,0.09361 -1.13293125,0.3281056 -1.13872134,0.456454 -2.09119424,1.3027749 -2.10663454,1.3191803 -0.2769602,0.2306392 -0.5471652,0.6359468 -0.7855247,1.1705669 0.2383595,0.5365501 0.5085645,0.9418577 0.7913149,1.1802171 0.00965,0.00579 0.9592279,0.852111 2.10084434,1.3095295 0.58480096,0.2344995 0.87527145,0.2856455 1.13293125,0.3281062 0.1727382,0.027986 0.3367913,0.056936 0.5297949,0.1254524 0.28950551,0.070446 0.57322071,0.2026538 0.82702051,0.3850422 0.5732207,0.431363 0.9129072,1.1136309 0.9129072,1.8306393 0,0.4863692 -0.1505429,0.9495779 -0.4371532,1.33848013 -0.743064,1.01037397 -2.16743071,1.23232813 -3.1778046,0.4892642 M 0.41133069,-1.2577964 c 0.2595898,-0.041496 0.4882992,-0.1794933 0.64270201,-0.3889023 0.1264174,-0.1708082 0.1901086,-0.3705669 0.1901086,-0.5790108 0,-0.3117009 -0.1505428,-0.6108565 -0.40241261,-0.7942099 -0.2123039,-0.154403 -0.4689988,-0.2190592 -0.7305187,-0.1775634 -0.2566948,0.038601 -0.48540408,0.1775634 -0.63980696,0.3898674 -0.12545236,0.1698431 -0.18914355,0.3696019 -0.18914355,0.5790108 0,0.3117009 0.14764776,0.6069964 0.39855247,0.7913149 0.21230394,0.1572979 0.47285884,0.2180941 0.73051874,0.1794933 M -6.1546524,-7.3818012 c 0,0.424608 0.3445114,0.7691194 0.7691194,0.7691194 0.4217128,0 0.7652593,-0.3445114 0.7652593,-0.7691194 0,-0.4217129 -0.3435465,-0.7662244 -0.7652593,-0.7662244 -0.424608,0 -0.7691194,0.3445115 -0.7691194,0.7662244 m 6.99638109,-4.3628468 c 0.25186981,-0.182389 0.40241261,-0.478649 0.40241261,-0.79035 0,-0.20941 -0.063691,-0.409168 -0.1901086,-0.579976 -0.15440281,-0.21134 -0.38311221,-0.350301 -0.64270201,-0.387937 -0.2576599,-0.04246 -0.5182148,0.0222 -0.73051874,0.176597 -0.25090471,0.183355 -0.39855247,0.48251 -0.39855247,0.794211 0,0.209408 0.0636911,0.409168 0.18914355,0.579011 0.31845597,0.435223 0.93317246,0.53076 1.37032566,0.208444"
           style="fill:#ffffff;fill-opacity:1;fill-rule:nonzero;stroke:none"
           id="path3821"
           inkscape:connector-curvature="0" />
      </g>
      <g
         id="g3823"
         transform="matrix(0.83333333,0,0,-0.83333333,15.333329,45.333334)"
         style="fill:#ffffff;fill-opacity:1">
        <path
           sodipodi:nodetypes="cccccccccccccc"
           d="m -0.39369477,0.40000049 -13.20000023,0 0,19.20000051 13.20000023,0 0,-3.6 L 2,16 l 0,6 -18,0 0,-24 16,0 2,0 0,6 -2.39369477,5e-7 z"
           style="fill:#ffffff;fill-opacity:1;fill-rule:nonzero;stroke:none"
           id="path3825"
           inkscape:connector-curvature="0" />
      </g>
    </g>
  </g>
</svg>
