<?xml version="1.0" encoding="UTF-8" standalone="no"?>
<!-- Created with Inkscape (http://www.inkscape.org/) -->

<svg
   xmlns:dc="http://purl.org/dc/elements/1.1/"
   xmlns:cc="http://creativecommons.org/ns#"
   xmlns:rdf="http://www.w3.org/1999/02/22-rdf-syntax-ns#"
   xmlns:svg="http://www.w3.org/2000/svg"
   xmlns="http://www.w3.org/2000/svg"
   xmlns:sodipodi="http://sodipodi.sourceforge.net/DTD/sodipodi-0.dtd"
   xmlns:inkscape="http://www.inkscape.org/namespaces/inkscape"
   width="22"
   height="22"
   id="svg3495"
   version="1.1"
   inkscape:version="0.48.4 r9939"
   sodipodi:docname="format-text-strikethrough.svg">
  <defs
     id="defs3497">
    <clipPath
       clipPathUnits="userSpaceOnUse"
       id="clipPath3669">
      <path
         inkscape:connector-curvature="0"
         d="M 0,96 96,96 96,0 0,0 0,96 z"
         id="path3671" />
    </clipPath>
  </defs>
  <sodipodi:namedview
     id="base"
     pagecolor="#ffffff"
     bordercolor="#666666"
     borderopacity="1.0"
     inkscape:pageopacity="0.0"
     inkscape:pageshadow="2"
     inkscape:zoom="1"
     inkscape:cx="12.541373"
     inkscape:cy="11.06559"
     inkscape:current-layer="layer1"
     showgrid="false"
     inkscape:grid-bbox="true"
     inkscape:document-units="px"
     inkscape:window-width="1364"
     inkscape:window-height="701"
     inkscape:window-x="0"
     inkscape:window-y="27"
     inkscape:window-maximized="1"
     inkscape:snap-bbox="true"
     inkscape:bbox-paths="true"
     inkscape:bbox-nodes="true"
     inkscape:snap-bbox-edge-midpoints="false"
     showguides="true"
     inkscape:guide-bbox="true">
    <inkscape:grid
       type="xygrid"
       id="grid3512"
       empspacing="4"
       visible="true"
       enabled="true"
       snapvisiblegridlinesonly="true"
       dotted="false" />
  </sodipodi:namedview>
  <metadata
     id="metadata3500">
    <rdf:RDF>
      <cc:Work
         rdf:about="">
        <dc:format>image/svg+xml</dc:format>
        <dc:type
           rdf:resource="http://purl.org/dc/dcmitype/StillImage" />
        <dc:title></dc:title>
      </cc:Work>
    </rdf:RDF>
  </metadata>
  <g
     id="layer1"
     inkscape:label="Layer 1"
     inkscape:groupmode="layer"
     transform="translate(0,-26)">
    <path
       sodipodi:nodetypes="ccsccsssscccscsccsccs"
       inkscape:connector-curvature="0"
       id="path11643-3-5"
       d="m 7,29 0,3 9,0 c 0.64224,0 0.890745,0.400995 0.703125,1.078125 L 16.1875,35 8.3125,35 c -2.75781,0 -4.68771,2.028555 -5.25,4.125 -0.281145,1.048215 -0.243285,2.218245 0.375,3.234375 C 4.055785,43.375505 5.309455,44.000002 6.671875,44 l 9,-1.5e-5 C 16.7497,43.99997 17.125,42.921875 17.125,42.921875 l 2.484375,-9 C 20.261395,31.568705 18.5203,29 16,29 z m 1.3125,9 7.03125,0 L 14.5,41 6.671875,41 C 6.07507,41 6.03499,40.87445 5.96875,40.765625 c -0.0663,-0.1089 -0.1212,-0.43884 0,-0.890625 C 6.211105,38.971445 7.04542,38 8.3125,38 z"
       style="font-style:normal;font-variant:normal;font-weight:normal;font-stretch:normal;text-indent:0;text-align:start;text-decoration:none;line-height:normal;letter-spacing:normal;word-spacing:normal;text-transform:none;direction:ltr;block-progression:tb;writing-mode:lr-tb;text-anchor:start;baseline-shift:baseline;color:#000000;fill:#555555;fill-opacity:1;stroke:none;stroke-width:2;marker:none;visibility:visible;display:inline;overflow:visible;enable-background:accumulate;font-family:Sans;-inkscape-font-specification:Sans" />
    <path
       style="font-style:normal;font-variant:normal;font-weight:normal;font-stretch:normal;text-indent:0;text-align:start;text-decoration:none;line-height:normal;letter-spacing:normal;word-spacing:normal;text-transform:none;direction:ltr;block-progression:tb;writing-mode:lr-tb;text-anchor:start;baseline-shift:baseline;opacity:0.1;color:#000000;fill:#ffffff;fill-opacity:1;stroke:none;stroke-width:2;marker:none;visibility:visible;display:inline;overflow:visible;enable-background:accumulate;font-family:Sans;-inkscape-font-specification:Sans"
       d="m 7,28 0,3 9,0 c 0.64224,0 0.890745,0.400995 0.703125,1.078125 L 16.1875,34 8.3125,34 c -2.75781,0 -4.68771,2.028555 -5.25,4.125 -0.281145,1.048215 -0.243285,2.218245 0.375,3.234375 C 4.055785,42.375505 5.309455,43.000002 6.671875,43 l 9,-1.5e-5 C 16.7497,42.99997 17.125,41.921875 17.125,41.921875 l 2.484375,-9 C 20.261395,30.568705 18.5203,28 16,28 z m 1.3125,9 7.03125,0 L 14.5,40 6.671875,40 C 6.07507,40 6.03499,39.87445 5.96875,39.765625 c -0.0663,-0.1089 -0.1212,-0.43884 0,-0.890625 C 6.211105,37.971445 7.04542,37 8.3125,37 z"
       id="path3975"
       inkscape:connector-curvature="0"
       sodipodi:nodetypes="ccsccsssscccscsccsccs" />
  </g>
</svg>
