<?xml version="1.0" encoding="UTF-8" standalone="no"?>
<svg
   xmlns:dc="http://purl.org/dc/elements/1.1/"
   xmlns:cc="http://creativecommons.org/ns#"
   xmlns:rdf="http://www.w3.org/1999/02/22-rdf-syntax-ns#"
   xmlns:svg="http://www.w3.org/2000/svg"
   xmlns="http://www.w3.org/2000/svg"
   xmlns:xlink="http://www.w3.org/1999/xlink"
   version="1.1"
   id="svg5318"
   height="24"
   width="24">
  <defs
     id="defs5320">
    <clipPath
       id="clipPath11923"
       clipPathUnits="userSpaceOnUse">
      <path
         style="font-size:medium;font-style:normal;font-variant:normal;font-weight:normal;font-stretch:normal;text-indent:0;text-align:start;text-decoration:none;line-height:normal;letter-spacing:normal;word-spacing:normal;text-transform:none;direction:ltr;block-progression:tb;writing-mode:lr-tb;text-anchor:start;baseline-shift:baseline;color:#000000;fill:#000000;fill-opacity:1;stroke:none;stroke-width:2;marker:none;visibility:visible;display:inline;overflow:visible;enable-background:accumulate;font-family:Sans;-inkscape-font-specification:Sans"
         d="m 433,90 0,5 0,5 0,8 c 0,0 0,2 2,2 l 18,0 c 0,0 2,0 2,-2 l 0,-8 0,-5 0,-2 -8.25,0 C 444,93 444,90 441,90 l -8,0 z"
         id="path11925" />
    </clipPath>
    <linearGradient
       y2="288.37659"
       x2="364.75159"
       y1="230.62079"
       x1="364.75159"
       gradientTransform="matrix(0.38091417,0,0,0.38091417,-115.93905,-78.847007)"
       gradientUnits="userSpaceOnUse"
       id="linearGradient5281"
       xlink:href="#linearGradient4968" />
    <linearGradient
       id="linearGradient4968">
      <stop
         style="stop-color:#f1e6f4;stop-opacity:1;"
         offset="0"
         id="stop4970" />
      <stop
         id="stop4972"
         offset="1"
         style="stop-color:#c9bcce;stop-opacity:1;" />
    </linearGradient>
    <linearGradient
       y2="96.999718"
       x2="437"
       y1="86.999718"
       x1="437"
       gradientTransform="translate(-432,-77)"
       gradientUnits="userSpaceOnUse"
       id="linearGradient5284"
       xlink:href="#linearGradient11359" />
    <linearGradient
       id="linearGradient11359">
      <stop
         id="stop11361"
         offset="0"
         style="stop-color:#d5cbd7;stop-opacity:1;" />
      <stop
         id="stop11363"
         offset="1"
         style="stop-color:#d9bfdf;stop-opacity:1;" />
    </linearGradient>
  </defs>
  <metadata
     id="metadata5323">
    <rdf:RDF>
      <cc:Work
         rdf:about="">
        <dc:format>image/svg+xml</dc:format>
        <dc:type
           rdf:resource="http://purl.org/dc/dcmitype/StillImage" />
        <dc:title />
      </cc:Work>
    </rdf:RDF>
  </metadata>
  <g
     style="display:inline"
     transform="translate(0,-8)"
     id="layer1">
    <path
       id="path11573"
       d="m 1.5,10.49972 0,9 21,0 0,-6 -7.75,0 c -1.55682,0 -2.44251,-0.911477 -3.15625,-1.65625 C 10.88001,11.098697 10.33333,10.49972 9,10.49972 l -7.5,0 z"
       style="font-size:medium;font-style:normal;font-variant:normal;font-weight:normal;font-stretch:normal;text-indent:0;text-align:start;text-decoration:none;line-height:normal;letter-spacing:normal;word-spacing:normal;text-transform:none;direction:ltr;block-progression:tb;writing-mode:lr-tb;text-anchor:start;baseline-shift:baseline;color:#000000;fill:url(#linearGradient5284);fill-opacity:1;stroke:none;stroke-width:2;marker:none;visibility:visible;display:inline;overflow:visible;enable-background:accumulate;font-family:Sans;-inkscape-font-specification:Sans" />
    <path
       id="path11602"
       d="m 1.5,15.49972 0,12.5 c 0,0 -0.003,0.40051 0.1875,0.78125 0.19037,0.38074 0.47917,0.71875 1.3125,0.71875 l 18,0 c 0,0 0.40051,0.003 0.78125,-0.1875 C 22.16199,29.12185 22.5,28.83305 22.5,27.99972 l 0,-12.5 -21,0 z"
       style="font-size:medium;font-style:normal;font-variant:normal;font-weight:normal;font-stretch:normal;text-indent:0;text-align:start;text-decoration:none;line-height:normal;letter-spacing:normal;word-spacing:normal;text-transform:none;direction:ltr;block-progression:tb;writing-mode:lr-tb;text-anchor:start;baseline-shift:baseline;color:#000000;fill:url(#linearGradient5281);fill-opacity:1;fill-rule:nonzero;stroke:none;stroke-width:2;marker:none;visibility:visible;display:inline;overflow:visible;enable-background:accumulate;font-family:Sans;-inkscape-font-specification:Sans" />
    <path
       clip-path="url(#clipPath11923)"
       id="path11914"
       d="m 433,90 0,5 0,5 0,8 c 0,0 0,2 2,2 l 18,0 c 0,0 2,0 2,-2 l 0,-8 0,-5 0,-2 -8.25,0 C 444,93 444,90 441,90 l -8,0 z"
       style="font-size:medium;font-style:normal;font-variant:normal;font-weight:normal;font-stretch:normal;text-indent:0;text-align:start;text-decoration:none;line-height:normal;letter-spacing:normal;word-spacing:normal;text-transform:none;direction:ltr;block-progression:tb;writing-mode:lr-tb;text-anchor:start;baseline-shift:baseline;opacity:0.41000001;color:#000000;fill:none;stroke:#000000;stroke-width:2;stroke-opacity:1;marker:none;visibility:visible;display:inline;overflow:visible;enable-background:accumulate;font-family:Sans;-inkscape-font-specification:Sans"
       transform="translate(-432,-80.00028)" />
    <rect
       y="14.999718"
       x="2"
       height="1"
       width="20"
       id="rect11946"
       style="opacity:0.41000001;color:#000000;fill:#000000;fill-opacity:1;stroke:none;stroke-width:1;marker:none;visibility:visible;display:inline;overflow:visible;enable-background:accumulate" />
    <rect
       y="16"
       x="2"
       height="1"
       width="20"
       id="rect5385"
       style="opacity:0.1;fill:#ffffff;fill-opacity:1;stroke:none" />
  </g>
  <g
     transform="translate(0,2)"
     id="layer2" />
</svg>
