<?xml version="1.0" encoding="UTF-8" standalone="no"?>
<svg
   xmlns:dc="http://purl.org/dc/elements/1.1/"
   xmlns:cc="http://creativecommons.org/ns#"
   xmlns:rdf="http://www.w3.org/1999/02/22-rdf-syntax-ns#"
   xmlns:svg="http://www.w3.org/2000/svg"
   xmlns="http://www.w3.org/2000/svg"
   xmlns:xlink="http://www.w3.org/1999/xlink"
   id="svg12707"
   height="24"
   width="24"
   version="1.1">
  <defs
     id="defs12709">
    <linearGradient
       id="linearGradient5618">
      <stop
         id="stop5620"
         offset="0"
         style="stop-color:#1e1e1e;stop-opacity:1;" />
      <stop
         id="stop5622"
         offset="1"
         style="stop-color:#535353;stop-opacity:1;" />
    </linearGradient>
    <linearGradient
       gradientTransform="matrix(1,0,0,-1,1.5,23.5)"
       y2="22"
       x2="0"
       y1="-3"
       x1="0"
       gradientUnits="userSpaceOnUse"
       id="linearGradient4124"
       xlink:href="#linearGradient5618" />
  </defs>
  <metadata
     id="metadata12712">
    <rdf:RDF>
      <cc:Work
         rdf:about="">
        <dc:format>image/svg+xml</dc:format>
        <dc:type
           rdf:resource="http://purl.org/dc/dcmitype/StillImage" />
        <dc:title />
      </cc:Work>
    </rdf:RDF>
  </metadata>
  <path
     id="path5906"
     d="m 2.5,20.5 c -0.5357827,0 -1,-0.464217 -1,-1 l 0,-14 c 0,-0.535783 0.4642177,-1 1,-1 l 14,0 c 0.535782,0 1.094801,0.4726716 1,1 l 0,5.5625 3.28125,-3.28125 c 0.259681,-0.26483 0.52056,-0.288072 0.8125,-0.25 l 0,-0.03125 c 0.03081,0.0042 0.06238,-0.0061 0.09375,0 l 0.3125,0 0.5,0 0,0.5 0,0.3125 0,0.03125 c 0.0018,0.03407 0.0018,0.05968 0,0.09375 -5.93e-4,0.01136 9.88e-4,0.0182 0,0.03125 3.91e-4,0.02531 3.93e-4,0.0059 0,0.03125 l 0,8 0,0.03125 c 5.5e-5,0.0076 5.5e-5,0.0236 0,0.03125 -5.5e-5,0.0076 1.65e-4,0.0261 0,0.03125 l 0,0.40625 0,0.5 -0.5,0 -0.3125,0 -0.1875,0 c -0.02592,0.0016 -0.02084,1.62e-4 -0.03125,0 -0.01041,-1.62e-4 -0.03637,0 -0.03125,0 0.01024,0 -0.01065,0.0032 -0.0625,0 l -0.03125,0 -0.03125,0 C 21.151011,17.47202 20.975148,17.40943 20.78125,17.21875 L 17.5,13.9375 17.5,19.5 c 0,0.535782 -0.464217,1 -1,1 z"
     style="font-size:medium;font-style:normal;font-variant:normal;font-weight:normal;font-stretch:normal;text-indent:0;text-align:start;text-decoration:none;line-height:normal;letter-spacing:normal;word-spacing:normal;text-transform:none;direction:ltr;block-progression:tb;writing-mode:lr-tb;text-anchor:start;baseline-shift:baseline;color:#000000;fill:url(#linearGradient4124);fill-opacity:1;stroke:none;stroke-width:2;marker:none;visibility:visible;display:inline;overflow:visible;enable-background:accumulate;font-family:Sans;-inkscape-font-specification:Sans" />
  <path
     id="path4104"
     d="m 2.5,4.5 c -0.554,0 -1,0.446 -1,1 l 0,14 c 0,0.554 0.446,1 1,1 l 14,0 c 0.554,0 1,-0.446 1,-1 l 0,-5.5625 3.28125,3.28125 c 0.23073,0.2353 0.58284,0.34458 0.90625,0.28125 l 0.8125,0 0,-0.8125 c 0.004,-0.05198 0.004,-0.10427 0,-0.15625 1.6e-4,-0.01042 1.6e-4,-0.02083 0,-0.03125 l 0,-8 c 0.001,-0.03123 0.001,-0.06252 0,-0.09375 L 22.5,7.5 21.6875,7.5 21.5,7.5 C 21.4584,7.4974 21.4166,7.4974 21.375,7.5 21.15315,7.52398 20.94035,7.624789 20.78125,7.78125 L 17.5,11.0625 17.5,5.5 c 0,-0.554 -0.446,-1 -1,-1 z"
     style="font-size:medium;font-style:normal;font-variant:normal;font-weight:normal;font-stretch:normal;text-indent:0;text-align:start;text-decoration:none;line-height:normal;letter-spacing:normal;word-spacing:normal;text-transform:none;direction:ltr;block-progression:tb;writing-mode:lr-tb;text-anchor:start;baseline-shift:baseline;opacity:0.6;color:#000000;fill:none;stroke:#000000;stroke-width:1;stroke-miterlimit:4;stroke-opacity:1;stroke-dasharray:none;marker:none;visibility:visible;display:inline;overflow:visible;enable-background:accumulate;font-family:Sans;-inkscape-font-specification:Sans" />
  <path
     style="fill:#ffffff;fill-opacity:1;stroke:none;display:inline;enable-background:new"
     d="m 7,9.5 0,6 6,-3 z"
     id="path6878" />
  <path
     id="path4128"
     d="M 2.5,5 C 2.2530267,5 2,5.2530267 2,5.5 l 0,1 C 2,6.2530267 2.2530267,6 2.5,6 l 14,0 C 16.746973,6 17,6.2530272 17,6.5 l 0,-1 C 17,5.2530272 16.746973,5 16.5,5 z M 17.84375,11.40625 17,12.28125 17,12.71875 17.28125,13 17.84375,12.40625 C 21.574317,9.477391 21,9 21.6875,9 L 22,9 22,8.5 22,8.46875 c 1.9e-5,-0.00265 1.9e-5,-0.02858 0,-0.03125 L 22,8.40625 22,8 21.6875,8 C 21,8 19.292859,9.957141 17.84375,11.40625 z"
     style="font-size:medium;font-style:normal;font-variant:normal;font-weight:normal;font-stretch:normal;text-indent:0;text-align:start;text-decoration:none;line-height:normal;letter-spacing:normal;word-spacing:normal;text-transform:none;direction:ltr;block-progression:tb;writing-mode:lr-tb;text-anchor:start;baseline-shift:baseline;opacity:0.1;color:#000000;fill:#ffffff;fill-opacity:1;stroke:none;stroke-width:2;marker:none;visibility:visible;display:inline;overflow:visible;enable-background:accumulate;font-family:Sans;-inkscape-font-specification:Sans" />
  <path
     style="font-size:medium;font-style:normal;font-variant:normal;font-weight:normal;font-stretch:normal;text-indent:0;text-align:start;text-decoration:none;line-height:normal;letter-spacing:normal;word-spacing:normal;text-transform:none;direction:ltr;block-progression:tb;writing-mode:lr-tb;text-anchor:start;baseline-shift:baseline;opacity:0.5;color:#000000;fill:#000000;fill-opacity:1;stroke:none;stroke-width:2;marker:none;visibility:visible;display:inline;overflow:visible;enable-background:accumulate;font-family:Sans;-inkscape-font-specification:Sans"
     d="M 2.5,21 C 2.2530267,21 2,20.5 2,20.5 l 0,-1 C 2,19.746973 2.2530267,20 2.5,20 l 14,0 c 0.246973,0 0.5,-0.253027 0.5,-0.5 l 0,1 c 0,0 -0.253027,0.5 -0.5,0.5 z M 17.84375,14.59375 17,13.71875 17,13.28125 17.28125,13 l 0.5625,0.59375 C 21.330617,16.179635 21,17 22,17 l 0,0.5 0,0.03125 c 1.9e-5,0.0027 1.9e-5,0.02858 0,0.03125 L 22,17.59375 22,18 c -1,0 -2.279204,-1.529204 -4.15625,-3.40625 z"
     id="path4140" />
  <path
     id="path4142"
     d="m 7,9.5 0,6 6,-3 z"
     style="opacity:0.05;fill:none;stroke:#ffffff;stroke-width:2;stroke-linejoin:round;stroke-miterlimit:4;stroke-opacity:1;stroke-dasharray:none;display:inline;enable-background:new" />
  <path
     style="opacity:0.1;fill:none;stroke:#ffffff;stroke-width:1;stroke-linejoin:round;stroke-miterlimit:4;stroke-opacity:1;stroke-dasharray:none;display:inline;enable-background:new"
     d="m 7,9.5 0,6 6,-3 z"
     id="path4144" />
</svg>
