<?xml version="1.0" encoding="UTF-8" standalone="no"?>
<svg xmlns="http://www.w3.org/2000/svg" xmlns:xlink="http://www.w3.org/1999/xlink" xmlns:sodipodi="http://sodipodi.sourceforge.net/DTD/sodipodi-0.dtd" xmlns:inkscape="http://www.inkscape.org/namespaces/inkscape" width="24" height="24" version="1.1">
 <defs id="defs5320">
  <clipPath id="clipPath11923">
   <path id="path11925" d="m 433,90 0,5 0,5 0,8 c 0,0 0,2 2,2 l 18,0 c 0,0 2,0 2,-2 l 0,-8 0,-5 0,-2 -8.25,0 C 444,93 444,90 441,90 l -8,0 z"/>
  </clipPath>
  <linearGradient inkscape:collect="always" xlink:href="#linearGradient4968" id="linearGradient5281" gradientUnits="userSpaceOnUse" gradientTransform="matrix(0.38091417,0,0,0.38091417,-116.93905,-79.847007)" y1="230.62" x2="0" y2="288.38"/>
  <linearGradient id="linearGradient4968">
   <stop id="stop4970" stop-color="#c198dc"/>
   <stop offset="1" id="stop4972" stop-color="#9b75aa"/>
  </linearGradient>
  <linearGradient inkscape:collect="always" xlink:href="#linearGradient11359" id="linearGradient5284" gradientUnits="userSpaceOnUse" gradientTransform="translate(-433,-78)" y1="87" x2="0" y2="97"/>
  <linearGradient id="linearGradient11359">
   <stop id="stop11361" stop-color="#b59dc3"/>
   <stop offset="1" id="stop11363" stop-color="#bd95ce"/>
  </linearGradient>
  <linearGradient inkscape:collect="always" xlink:href="#linearGradient4511" id="linearGradient5610" y1="0" x2="0" y2="48" gradientUnits="userSpaceOnUse"/>
  <linearGradient id="linearGradient4511">
   <stop id="stop4513" stop-color="#935d1d"/>
   <stop id="stop4515" offset="1" stop-color="#b67841"/>
  </linearGradient>
 </defs>
 <metadata id="metadata5323"/>
 <g id="layer1" inkscape:label="Background" inkscape:groupmode="layer" transform="translate(0,-8)">
  <path inkscape:connector-curvature="0" d="m 1.5,10.49972 0,9 21,0 0,-6 -7.75,0 c -1.55682,0 -2.44251,-0.911477 -3.15625,-1.65625 C 10.88001,11.098697 10.33333,10.49972 9,10.49972 l -7.5,0 z" id="path11573" color="#000000" stroke-width="2" fill="url(#linearGradient5284)"/>
  <path inkscape:connector-curvature="0" d="m 1.5000016,15.49972 0,12.5 c 0,0 -0.003,0.40051 0.1875,0.78125 0.19037,0.38074 0.47917,0.71875 1.3125,0.71875 l 17.9999994,0 c 0,0 0.40051,0.003 0.78125,-0.1875 0.38074,-0.19037 0.71875,-0.47917 0.71875,-1.3125 l 0,-12.5 -20.9999994,0 z" id="path11602" color="#000000" stroke-width="2" fill="url(#linearGradient5281)"/>
  <path transform="translate(-432,-80.00028)" inkscape:connector-curvature="0" d="m 433,90 0,5 0,5 0,8 c 0,0 0,2 2,2 l 18,0 c 0,0 2,0 2,-2 l 0,-8 0,-5 0,-2 -8.25,0 C 444,93 444,90 441,90 l -8,0 z" id="path11914" clip-path="url(#clipPath11923)" opacity="0.81" color="#000000" stroke-width="2" fill="none" stroke="#7b4f87"/>
  <rect id="rect11946" width="20" height="1" x="2" y="15" opacity="0.81" fill="#7b4f87" color="#000000"/>
  <rect id="rect5385" width="20" height="1" x="2" y="16" opacity="0.1" fill="#ffffff"/>
 </g>
 <g inkscape:groupmode="layer" id="layer2" inkscape:label="Symbol" transform="translate(0,2)">
  <path id="path3857" d="m 11,8.00025 c -2.209139,0 -4,1.790861 -4,4 0,2.209139 1.790861,4 4,4 0.91749,0 1.762632,-0.324276 2.4375,-0.84375 l 0.21875,0.1875 3,3 0.34375,0.375 0.71875,-0.71875 -0.375,-0.34375 -3,-3 -0.1875,-0.21875 C 14.675724,13.762882 15,12.91774 15,12.00025 c 0,-2.209139 -1.790861,-4 -4,-4 z m 0,1 c 1.656854,0 3,1.343146 3,3 0,1.656854 -1.343146,3 -3,3 -1.6568542,0 -3,-1.343146 -3,-3 0,-1.656854 1.3431458,-3 3,-3 z" inkscape:connector-curvature="0" opacity="0.3"/>
  <path d="m 11,7 c -2.209139,0 -4,1.790861 -4,4 0,2.209139 1.790861,4 4,4 0.91749,0 1.762632,-0.324276 2.4375,-0.84375 l 0.21875,0.1875 3,3 L 17,17.71875 17.71875,17 l -0.375,-0.34375 -3,-3 -0.1875,-0.21875 C 14.675724,12.762632 15,11.91749 15,11 15,8.790861 13.209139,7 11,7 z m 0,1 c 1.656854,0 3,1.343146 3,3 0,1.656854 -1.343146,3 -3,3 C 9.3431458,14 8,12.656854 8,11 8,9.343146 9.3431458,8 11,8 z" id="path3847" inkscape:connector-curvature="0" fill="#ffffff"/>
 </g>
</svg>
