<?xml version="1.0" encoding="UTF-8" standalone="no"?>
<svg xmlns="http://www.w3.org/2000/svg" xmlns:xlink="http://www.w3.org/1999/xlink" xmlns:sodipodi="http://sodipodi.sourceforge.net/DTD/sodipodi-0.dtd" xmlns:inkscape="http://www.inkscape.org/namespaces/inkscape" version="1.1" width="24" height="24">
 <defs id="defs3830">
  <linearGradient inkscape:collect="always" id="linearGradient3801">
   <stop id="stop3803" stop-color="#ffffff"/>
   <stop offset="1" id="stop3805" stop-color="#ffffff" stop-opacity="0"/>
  </linearGradient>
  <linearGradient id="linearGradient3977">
   <stop id="stop3979" stop-color="#ffffff"/>
   <stop id="stop3981" offset="0.036" stop-color="#ffffff" stop-opacity="0.235"/>
   <stop id="stop3983" offset="0.951" stop-color="#ffffff" stop-opacity="0.157"/>
   <stop id="stop3985" offset="1" stop-color="#ffffff" stop-opacity="0.392"/>
  </linearGradient>
  <linearGradient id="linearGradient3600-4">
   <stop id="stop3602-7" stop-color="#f4f4f4"/>
   <stop id="stop3604-6" offset="1" stop-color="#dbdbdb"/>
  </linearGradient>
  <linearGradient y1="5.564" x2="0" y2="43" id="linearGradient3000" xlink:href="#linearGradient3977" gradientUnits="userSpaceOnUse" gradientTransform="matrix(0.40540511,0,0,0.51351253,1.2696879,-1.32431)"/>
  <linearGradient y1="0.985" x2="0" y2="47.01" id="linearGradient3003" xlink:href="#linearGradient21877" gradientUnits="userSpaceOnUse" gradientTransform="matrix(0.48571543,0,0,-0.45629579,0.3428297,21.651132)"/>
  <linearGradient inkscape:collect="always" xlink:href="#linearGradient3988-5" id="linearGradient3158" gradientUnits="userSpaceOnUse" gradientTransform="matrix(0.175,0,0,0.175,-1.20002,-6.0000326)" y1="280" x2="0" y2="40"/>
  <linearGradient id="linearGradient3988-5">
   <stop id="stop3990-5" stop-color="#ededed"/>
   <stop offset="1" id="stop3992-0" stop-color="#fafafa"/>
  </linearGradient>
  <linearGradient inkscape:collect="always" xlink:href="#linearGradient3801" id="linearGradient3807" y1="0" x2="0" y2="22" gradientUnits="userSpaceOnUse" gradientTransform="translate(1,-1)"/>
  <radialGradient inkscape:collect="always" xlink:href="#linearGradient6557" id="radialGradient3981" gradientUnits="userSpaceOnUse" cx="311.47" cy="828.53" r="3.281"/>
  <linearGradient id="linearGradient6557">
   <stop id="stop6559" stop-color="#fce94f"/>
   <stop id="stop6565" offset="0.673" stop-color="#fce94f"/>
   <stop offset="1" id="stop6561" stop-color="#fce94f" stop-opacity="0"/>
  </linearGradient>
  <linearGradient id="linearGradient6620">
   <stop id="stop6622" stop-color="#ffffff"/>
   <stop offset="0.33" id="stop6624" stop-color="#ffffff"/>
   <stop id="stop6626" offset="1" stop-color="#fce94f"/>
  </linearGradient>
  <linearGradient inkscape:collect="always" id="linearGradient3952">
   <stop id="stop3954"/>
   <stop offset="1" id="stop3956" stop-opacity="0"/>
  </linearGradient>
  <linearGradient inkscape:collect="always" xlink:href="#linearGradient3960" id="linearGradient3051" gradientUnits="userSpaceOnUse" gradientTransform="matrix(1.1428571,0,0,1,-11.857143,2)" y1="45" x2="0" y2="42"/>
  <linearGradient id="linearGradient3960">
   <stop id="stop3962" stop-opacity="0"/>
   <stop id="stop3970" offset="0.5"/>
   <stop offset="1" id="stop3964" stop-opacity="0"/>
  </linearGradient>
  <linearGradient inkscape:collect="always" xlink:href="#linearGradient3960" id="linearGradient3320" gradientUnits="userSpaceOnUse" gradientTransform="translate(-9,-23)" y1="45" x2="0" y2="42"/>
  <radialGradient inkscape:collect="always" xlink:href="#linearGradient3952" id="radialGradient3323" gradientUnits="userSpaceOnUse" gradientTransform="matrix(1,0,0,0.75,-5,-12.125)" cx="9" cy="43.5" r="2"/>
  <radialGradient inkscape:collect="always" xlink:href="#linearGradient3952" id="radialGradient3326" gradientUnits="userSpaceOnUse" gradientTransform="matrix(1,0,0,0.75,-22,-12.125)" cx="40" cy="43.5" r="2"/>
  <linearGradient inkscape:collect="always" xlink:href="#linearGradient3960" id="linearGradient4262" gradientUnits="userSpaceOnUse" gradientTransform="translate(-8,-24)" y1="45" x2="0" y2="42"/>
  <radialGradient inkscape:collect="always" xlink:href="#linearGradient3952" id="radialGradient4265" gradientUnits="userSpaceOnUse" gradientTransform="matrix(1,0,0,0.75,-4,-13.125)" cx="9" cy="43.5" r="2"/>
  <radialGradient inkscape:collect="always" xlink:href="#linearGradient3952" id="radialGradient4268" gradientUnits="userSpaceOnUse" gradientTransform="matrix(1,0,0,0.75,-21,-13.125)" cx="40" cy="43.5" r="2"/>
  <linearGradient id="linearGradient7570">
   <stop id="stop7572" stop-color="#347fa0"/>
   <stop id="stop7574" offset="1" stop-color="#489fc6"/>
  </linearGradient>
  <linearGradient y2="40" x2="0" y1="280" gradientTransform="matrix(0.07222223,0,0,0.07142975,-0.39196015,1.564777)" gradientUnits="userSpaceOnUse" id="linearGradient3026" xlink:href="#linearGradient21877" inkscape:collect="always"/>
  <linearGradient id="linearGradient21877">
   <stop id="stop21879" stop-color="#3fafe0"/>
   <stop offset="1" id="stop21881" stop-color="#84d5f9"/>
  </linearGradient>
  <linearGradient inkscape:collect="always" xlink:href="#linearGradient7570" id="linearGradient3836" y1="22" x2="0" y2="1" gradientUnits="userSpaceOnUse" gradientTransform="translate(1,-1)"/>
 </defs>
 <metadata id="metadata3833"/>
 <g inkscape:groupmode="layer" id="layer1" inkscape:label="Background" transform="translate(0,2)">
  <path d="m 19,18 0,3 0.5,0 C 20.331,21 21,20.331 21,19.5 21,18.669 20.331,18 19.5,18 L 19,18 z" id="rect3940" inkscape:connector-curvature="0" opacity="0.2" fill="url(#radialGradient4268)"/>
  <path d="M 4.40625,18 C 3.6271875,18 3,18.627187 3,19.40625 l 0,0.1875 C 3,20.372813 3.6271875,21 4.40625,21 L 5,21 5,18 4.40625,18 z" id="rect3942" inkscape:connector-curvature="0" opacity="0.2" fill="url(#radialGradient4265)"/>
  <path d="m 5,18 14,0 0,3 -14,0 z" id="rect3938" inkscape:connector-curvature="0" sodipodi:nodetypes="ccccc" opacity="0.2" fill="url(#linearGradient4262)"/>
  <path d="m 4.4999609,19.500039 c 3.8955809,0 15.0000591,-0.0014 15.0000591,-0.0014 l 2.1e-5,-18.998676 c 0,0 -9.333386,0 -15.0000801,0 0,7.000005 0,12.000008 0,19.000014 z" inkscape:connector-curvature="0" id="path4160-3" sodipodi:nodetypes="ccccsc" fill="url(#linearGradient3003)"/>
  <path d="m 4.4999609,0.4999629 c 3.8955809,0 15.0000591,0.0014 15.0000591,0.0014 l 2.1e-5,18.9986761 c 0,0 -9.333386,0 -15.0000801,0 0,-7.000005 0,-12.0000081 0,-19.0000141 z" inkscape:connector-curvature="0" id="path4160-3-5" sodipodi:nodetypes="ccccsc" opacity="0.91" fill="none" stroke="url(#linearGradient3836)" stroke-linejoin="round"/>
  <path d="m 5,1 0,1 c 4.1579948,7.52e-5 13.292656,-7.52e-5 14,0 l 0,-1 c -0.707344,-7.52e-5 -9.8420052,7.52e-5 -14,0 z" id="path3780" inkscape:connector-curvature="0" sodipodi:nodetypes="ccccc" opacity="0.4" fill="#ffffff"/>
  <path d="M 5,1 5,19 19,19 19,1 z M 6,2 18,2 18,18 6,18 z" id="rect3796" inkscape:connector-curvature="0" sodipodi:nodetypes="cccccccccc" opacity="0.4" fill="url(#linearGradient3807)"/>
 </g>
 <g inkscape:groupmode="layer" id="layer2" inkscape:label="Symbol" transform="translate(0,2)">
  <path id="path3848" d="M 7,3 7,4 8,4 8,3 7,3 z M 7,4 6,4 6,5 7,5 7,4 z M 9,3 9,4 10,4 10,3 9,3 z m 2,0 0,1 1,0 0,-1 -1,0 z m 2,0 0,1 1,0 0,-1 -1,0 z m 2,0 0,1 1,0 0,-1 -1,0 z m 2,0 0,1 1,0 0,-1 -1,0 z m 0,2 0,1 1,0 0,-1 -1,0 z M 6,6 6,7 7,7 7,6 6,6 z m 11,1 0,1 1,0 0,-1 -1,0 z M 6,8 6,9 7,9 7,8 6,8 z m 11,1 0,1 1,0 0,-1 -1,0 z m -11,1 0,1 1,0 0,-1 -1,0 z m 11,1 0,1 1,0 0,-1 -1,0 z m -11,1 0,1 1,0 0,-1 -1,0 z m 11,1 0,1 1,0 0,-1 -1,0 z m -11,1 0,1 1,0 0,-1 -1,0 z m 11,1 0,1 1,0 0,-1 -1,0 z m -11,1 0,1 1,0 0,-1 -1,0 z m 11,1 0,1 1,0 0,-1 -1,0 z m 0,1 -1,0 0,1 1,0 0,-1 z m -11,0 0,1 1,0 0,-1 -1,0 z m 2,0 0,1 1,0 0,-1 -1,0 z m 2,0 0,1 1,0 0,-1 -1,0 z m 2,0 0,1 1,0 0,-1 -1,0 z m 2,0 0,1 1,0 0,-1 -1,0 z" inkscape:connector-curvature="0" opacity="0.1"/>
  <path d="M 7,2 7,3 8,3 8,2 7,2 z M 7,3 6,3 6,4 7,4 7,3 z M 9,2 9,3 10,3 10,2 9,2 z m 2,0 0,1 1,0 0,-1 -1,0 z m 2,0 0,1 1,0 0,-1 -1,0 z m 2,0 0,1 1,0 0,-1 -1,0 z m 2,0 0,1 1,0 0,-1 -1,0 z m 0,2 0,1 1,0 0,-1 -1,0 z M 6,5 6,6 7,6 7,5 6,5 z m 11,1 0,1 1,0 0,-1 -1,0 z M 6,7 6,8 7,8 7,7 6,7 z m 11,1 0,1 1,0 0,-1 -1,0 z M 6,9 6,10 7,10 7,9 6,9 z m 11,1 0,1 1,0 0,-1 -1,0 z m -11,1 0,1 1,0 0,-1 -1,0 z m 11,1 0,1 1,0 0,-1 -1,0 z m -11,1 0,1 1,0 0,-1 -1,0 z m 11,1 0,1 1,0 0,-1 -1,0 z m -11,1 0,1 1,0 0,-1 -1,0 z m 11,1 0,1 1,0 0,-1 -1,0 z m 0,1 -1,0 0,1 1,0 0,-1 z m -11,0 0,1 1,0 0,-1 -1,0 z m 2,0 0,1 1,0 0,-1 -1,0 z m 2,0 0,1 1,0 0,-1 -1,0 z m 2,0 0,1 1,0 0,-1 -1,0 z m 2,0 0,1 1,0 0,-1 -1,0 z" id="rect7288" inkscape:connector-curvature="0" fill="#ffffff"/>
 </g>
</svg>
