<?xml version="1.0" encoding="UTF-8" standalone="no"?>
<svg
   xmlns:dc="http://purl.org/dc/elements/1.1/"
   xmlns:cc="http://creativecommons.org/ns#"
   xmlns:rdf="http://www.w3.org/1999/02/22-rdf-syntax-ns#"
   xmlns:svg="http://www.w3.org/2000/svg"
   xmlns="http://www.w3.org/2000/svg"
   xmlns:xlink="http://www.w3.org/1999/xlink"
   id="svg3828"
   height="24"
   width="24"
   version="1.1">
  <defs
     id="defs3830">
    <linearGradient
       id="linearGradient3801">
      <stop
         id="stop3803"
         offset="0"
         style="stop-color:#ffffff;stop-opacity:1;" />
      <stop
         id="stop3805"
         offset="1"
         style="stop-color:#ffffff;stop-opacity:0;" />
    </linearGradient>
    <linearGradient
       gradientTransform="matrix(0.48571543,0,0,-0.45629579,0.3428297,21.651132)"
       gradientUnits="userSpaceOnUse"
       xlink:href="#linearGradient21877"
       id="linearGradient3003"
       y2="47.013336"
       x2="25.132275"
       y1="0.98520643"
       x1="25.132275" />
    <linearGradient
       gradientTransform="translate(1,-1)"
       gradientUnits="userSpaceOnUse"
       y2="22"
       x2="10"
       y1="0"
       x1="10"
       id="linearGradient3807"
       xlink:href="#linearGradient3801" />
    <linearGradient
       id="linearGradient3952">
      <stop
         id="stop3954"
         offset="0"
         style="stop-color:#000000;stop-opacity:1;" />
      <stop
         id="stop3956"
         offset="1"
         style="stop-color:#000000;stop-opacity:0;" />
    </linearGradient>
    <linearGradient
       id="linearGradient3944">
      <stop
         id="stop3946"
         offset="0"
         style="stop-color:#000000;stop-opacity:1;" />
      <stop
         id="stop3948"
         offset="1"
         style="stop-color:#000000;stop-opacity:0;" />
    </linearGradient>
    <linearGradient
       id="linearGradient3960">
      <stop
         id="stop3962"
         offset="0"
         style="stop-color:#000000;stop-opacity:0;" />
      <stop
         style="stop-color:#000000;stop-opacity:1;"
         offset="0.5"
         id="stop3970" />
      <stop
         id="stop3964"
         offset="1"
         style="stop-color:#000000;stop-opacity:0;" />
    </linearGradient>
    <linearGradient
       y2="42"
       x2="25"
       y1="45"
       x1="25"
       gradientTransform="translate(-8,-24)"
       gradientUnits="userSpaceOnUse"
       id="linearGradient4262"
       xlink:href="#linearGradient3960" />
    <radialGradient
       r="2"
       fy="43.5"
       fx="9"
       cy="43.5"
       cx="9"
       gradientTransform="matrix(1,0,0,0.75,-4,-13.125)"
       gradientUnits="userSpaceOnUse"
       id="radialGradient4265"
       xlink:href="#linearGradient3944" />
    <radialGradient
       r="2"
       fy="43.5"
       fx="40"
       cy="43.5"
       cx="40"
       gradientTransform="matrix(1,0,0,0.75,-21,-13.125)"
       gradientUnits="userSpaceOnUse"
       id="radialGradient4268"
       xlink:href="#linearGradient3952" />
    <linearGradient
       id="linearGradient7570">
      <stop
         style="stop-color:#347fa0;stop-opacity:1;"
         offset="0"
         id="stop7572" />
      <stop
         style="stop-color:#489fc6;stop-opacity:1;"
         offset="1"
         id="stop7574" />
    </linearGradient>
    <linearGradient
       id="linearGradient21877">
      <stop
         id="stop21879"
         offset="0"
         style="stop-color:#3fafe0;stop-opacity:1;" />
      <stop
         id="stop21881"
         offset="1"
         style="stop-color:#84d5f9;stop-opacity:1;" />
    </linearGradient>
    <linearGradient
       gradientTransform="translate(1,-1)"
       gradientUnits="userSpaceOnUse"
       y2="1.000002"
       x2="11.000001"
       y1="22"
       x1="11"
       id="linearGradient3836"
       xlink:href="#linearGradient7570" />
  </defs>
  <metadata
     id="metadata3833">
    <rdf:RDF>
      <cc:Work
         rdf:about="">
        <dc:format>image/svg+xml</dc:format>
        <dc:type
           rdf:resource="http://purl.org/dc/dcmitype/StillImage" />
        <dc:title />
      </cc:Work>
    </rdf:RDF>
  </metadata>
  <g
     transform="translate(0,2)"
     style="display:inline"
     id="layer1">
    <path
       id="rect3940"
       d="m 19,18 0,3 0.5,0 C 20.331,21 21,20.331 21,19.5 21,18.669 20.331,18 19.5,18 L 19,18 z"
       style="opacity:0.2;fill:url(#radialGradient4268);fill-opacity:1;stroke:none" />
    <path
       id="rect3942"
       d="M 4.40625,18 C 3.6271875,18 3,18.627187 3,19.40625 l 0,0.1875 C 3,20.372813 3.6271875,21 4.40625,21 L 5,21 5,18 4.40625,18 z"
       style="opacity:0.2;fill:url(#radialGradient4265);fill-opacity:1;stroke:none" />
    <path
       id="rect3938"
       d="m 5,18 14,0 0,3 -14,0 z"
       style="opacity:0.2;fill:url(#linearGradient4262);fill-opacity:1;stroke:none" />
    <path
       style="fill:url(#linearGradient3003);fill-opacity:1;stroke:none;display:inline"
       id="path4160-3"
       d="m 4.4999609,19.500039 c 3.8955809,0 15.0000591,-0.0014 15.0000591,-0.0014 l 2.1e-5,-18.998676 c 0,0 -9.333386,0 -15.0000801,0 0,7.000005 0,12.000008 0,19.000014 z" />
    <path
       style="opacity:0.91000001;fill:none;stroke:url(#linearGradient3836);stroke-width:0.99992186;stroke-linecap:butt;stroke-linejoin:round;stroke-miterlimit:4;stroke-opacity:1;stroke-dasharray:none;stroke-dashoffset:0;display:inline"
       id="path4160-3-5"
       d="m 4.4999609,0.4999629 c 3.8955809,0 15.0000591,0.0014 15.0000591,0.0014 l 2.1e-5,18.9986761 c 0,0 -9.333386,0 -15.0000801,0 0,-7.000005 0,-12.0000081 0,-19.0000141 z" />
    <path
       id="path3780"
       d="m 5,1 0,1 c 4.1579948,7.52e-5 13.292656,-7.52e-5 14,0 l 0,-1 c -0.707344,-7.52e-5 -9.8420052,7.52e-5 -14,0 z"
       style="opacity:0.4;fill:#ffffff;fill-opacity:1;stroke:none;display:inline" />
    <path
       id="rect3796"
       d="M 5,1 5,19 19,19 19,1 z M 6,2 18,2 18,18 6,18 z"
       style="opacity:0.4;fill:url(#linearGradient3807);fill-opacity:1" />
  </g>
  <g
     transform="translate(0,2)"
     id="layer2">
    <path
       style="opacity:0.1;fill:#000000;fill-opacity:1;stroke:none;display:inline;enable-background:new"
       d="M 7,3 7,4 8,4 8,3 7,3 z M 7,4 6,4 6,5 7,5 7,4 z M 9,3 9,4 10,4 10,3 9,3 z m 2,0 0,1 1,0 0,-1 -1,0 z m 2,0 0,1 1,0 0,-1 -1,0 z m 2,0 0,1 1,0 0,-1 -1,0 z m 2,0 0,1 1,0 0,-1 -1,0 z m 0,2 0,1 1,0 0,-1 -1,0 z M 6,6 6,7 7,7 7,6 6,6 z m 11,1 0,1 1,0 0,-1 -1,0 z M 6,8 6,9 7,9 7,8 6,8 z m 11,1 0,1 1,0 0,-1 -1,0 z m -11,1 0,1 1,0 0,-1 -1,0 z m 11,1 0,1 1,0 0,-1 -1,0 z m -11,1 0,1 1,0 0,-1 -1,0 z m 11,1 0,1 1,0 0,-1 -1,0 z m -11,1 0,1 1,0 0,-1 -1,0 z m 11,1 0,1 1,0 0,-1 -1,0 z m -11,1 0,1 1,0 0,-1 -1,0 z m 11,1 0,1 1,0 0,-1 -1,0 z m 0,1 -1,0 0,1 1,0 0,-1 z m -11,0 0,1 1,0 0,-1 -1,0 z m 2,0 0,1 1,0 0,-1 -1,0 z m 2,0 0,1 1,0 0,-1 -1,0 z m 2,0 0,1 1,0 0,-1 -1,0 z m 2,0 0,1 1,0 0,-1 -1,0 z"
       id="path3848" />
    <path
       id="rect7288"
       d="M 7,2 7,3 8,3 8,2 7,2 z M 7,3 6,3 6,4 7,4 7,3 z M 9,2 9,3 10,3 10,2 9,2 z m 2,0 0,1 1,0 0,-1 -1,0 z m 2,0 0,1 1,0 0,-1 -1,0 z m 2,0 0,1 1,0 0,-1 -1,0 z m 2,0 0,1 1,0 0,-1 -1,0 z m 0,2 0,1 1,0 0,-1 -1,0 z M 6,5 6,6 7,6 7,5 6,5 z m 11,1 0,1 1,0 0,-1 -1,0 z M 6,7 6,8 7,8 7,7 6,7 z m 11,1 0,1 1,0 0,-1 -1,0 z M 6,9 6,10 7,10 7,9 6,9 z m 11,1 0,1 1,0 0,-1 -1,0 z m -11,1 0,1 1,0 0,-1 -1,0 z m 11,1 0,1 1,0 0,-1 -1,0 z m -11,1 0,1 1,0 0,-1 -1,0 z m 11,1 0,1 1,0 0,-1 -1,0 z m -11,1 0,1 1,0 0,-1 -1,0 z m 11,1 0,1 1,0 0,-1 -1,0 z m 0,1 -1,0 0,1 1,0 0,-1 z m -11,0 0,1 1,0 0,-1 -1,0 z m 2,0 0,1 1,0 0,-1 -1,0 z m 2,0 0,1 1,0 0,-1 -1,0 z m 2,0 0,1 1,0 0,-1 -1,0 z m 2,0 0,1 1,0 0,-1 -1,0 z"
       style="fill:#ffffff;fill-opacity:1;stroke:none;display:inline;enable-background:new" />
  </g>
</svg>
