<?xml version="1.0" encoding="UTF-8" standalone="no"?>
<svg
   xmlns:dc="http://purl.org/dc/elements/1.1/"
   xmlns:cc="http://creativecommons.org/ns#"
   xmlns:rdf="http://www.w3.org/1999/02/22-rdf-syntax-ns#"
   xmlns:svg="http://www.w3.org/2000/svg"
   xmlns="http://www.w3.org/2000/svg"
   xmlns:xlink="http://www.w3.org/1999/xlink"
   id="svg12707"
   height="24"
   width="24"
   version="1.1">
  <defs
     id="defs12709">
    <linearGradient
       id="outerBackgroundGradient-4">
      <stop
         id="stop3864-8-6-6"
         offset="0"
         style="stop-color:#f0f0f0;stop-opacity:1;" />
      <stop
         id="stop3866-9-1-7"
         offset="1"
         style="stop-color:#f9f9f9;stop-opacity:1;" />
    </linearGradient>
    <linearGradient
       id="linearGradient6582">
      <stop
         id="stop6584"
         offset="0"
         style="stop-color:#ffffff;stop-opacity:1;" />
      <stop
         id="stop6586"
         offset="1"
         style="stop-color:#ffffff;stop-opacity:0;" />
    </linearGradient>
    <radialGradient
       gradientUnits="userSpaceOnUse"
       id="XMLID_8_"
       r="139.55859"
       cy="112.3047"
       cx="102">
      <stop
         offset="0"
         style="stop-color:#b7b8b9;stop-opacity:1"
         id="stop41" />
      <stop
         offset="0.18851049"
         style="stop-color:#ececec;stop-opacity:1"
         id="stop47" />
      <stop
         offset="0.25718147"
         style="stop-color:#fafafa;stop-opacity:0"
         id="stop49" />
      <stop
         offset="0.30111277"
         style="stop-color:#ffffff;stop-opacity:0"
         id="stop51" />
      <stop
         offset="0.53130001"
         style="stop-color:#fafafa;stop-opacity:0"
         id="stop53" />
      <stop
         offset="0.84490001"
         style="stop-color:#ebecec;stop-opacity:0"
         id="stop55" />
      <stop
         offset="1"
         style="stop-color:#e1e2e3;stop-opacity:0"
         id="stop57" />
    </radialGradient>
    <linearGradient
       id="linearGradient8589">
      <stop
         offset="0"
         style="stop-color:#fefefe;stop-opacity:1"
         id="stop8591" />
      <stop
         offset="1"
         style="stop-color:#cbcbcb;stop-opacity:1"
         id="stop8593" />
    </linearGradient>
    <linearGradient
       y2="40.00005"
       x2="144"
       y1="280.00003"
       x1="144"
       gradientTransform="matrix(0.06666667,0,0,0.06666667,4.4,-0.66667)"
       gradientUnits="userSpaceOnUse"
       id="linearGradient4239"
       xlink:href="#outerBackgroundGradient-4" />
    <radialGradient
       r="139.55859"
       cy="112.3047"
       cx="102"
       gradientTransform="matrix(0.12846887,0,0,-0.14049355,4.74831,18.727619)"
       gradientUnits="userSpaceOnUse"
       id="radialGradient4282"
       xlink:href="#XMLID_8_" />
    <linearGradient
       y2="5.4565363"
       x2="36.358372"
       y1="8.0590115"
       x1="32.892288"
       gradientTransform="matrix(0.34972769,0,0,0.35610773,4.64314,1.30014)"
       gradientUnits="userSpaceOnUse"
       id="linearGradient4284"
       xlink:href="#linearGradient8589" />
    <clipPath
       id="clipPath4303"
       clipPathUnits="userSpaceOnUse">
      <path
         style="color:#bebebe;fill:#967362;fill-opacity:1;fill-rule:nonzero;stroke:none;stroke-width:2;marker:none;visibility:visible;display:inline;overflow:visible;enable-background:accumulate"
         d="m 4,2 0,18 15,0 0,-14.09375 0,-0.03125 -0.03125,0 0,-0.03125 L 15.0625,2.03125 15.03125,2 15,2 4,2 z"
         id="path4305" />
    </clipPath>
    <linearGradient
       gradientUnits="userSpaceOnUse"
       y2="22"
       x2="11"
       y1="0"
       x1="11"
       id="linearGradient4313"
       xlink:href="#linearGradient6582" />
  </defs>
  <metadata
     id="metadata12712">
    <rdf:RDF>
      <cc:Work
         rdf:about="">
        <dc:format>image/svg+xml</dc:format>
        <dc:type
           rdf:resource="http://purl.org/dc/dcmitype/StillImage" />
        <dc:title />
      </cc:Work>
    </rdf:RDF>
  </metadata>
  <path
     id="rect3373-6"
     d="m 4.5,2.5 0,0.5 0,18 0,0.5 0.5,0 15,0 0.5,0 0,-0.5 0,-14.099875 0,-0.25 -0.1875,-0.15625 -4,-3.900125 L 16.15625,2.5 16,2.5 5,2.5 z"
     style="color:#bebebe;fill:url(#linearGradient4239);fill-opacity:1;fill-rule:nonzero;stroke:none;stroke-width:0;marker:none;visibility:visible;display:inline;overflow:visible;enable-background:accumulate" />
  <path
     transform="translate(1,1)"
     clip-path="url(#clipPath4303)"
     id="path4294"
     d="m 4,2 0,18 15,0 0,-14.09375 0,-0.03125 -0.03125,0 0,-0.03125 L 15.0625,2.03125 15.03125,2 15,2 4,2 z"
     style="color:#bebebe;fill:url(#linearGradient4313);fill-opacity:1;fill-rule:nonzero;stroke:#ffffff;stroke-width:2;stroke-miterlimit:4;stroke-opacity:1;stroke-dasharray:none;marker:none;visibility:visible;display:inline;overflow:visible;enable-background:accumulate" />
  <path
     style="opacity:0.4;color:#bebebe;fill:none;stroke:#000000;stroke-width:1;stroke-miterlimit:4;stroke-opacity:1;stroke-dasharray:none;marker:none;visibility:visible;display:inline;overflow:visible;enable-background:accumulate"
     d="m 4.5,2.5 0,0.5 0,18 0,0.5 0.5,0 15,0 0.5,0 0,-0.5 0,-14.099875 0,-0.25 -0.1875,-0.15625 C 19.447378,4.2887387 17.21921,3.0556801 15.693782,2.59375 L 15.537532,2.5 15.381282,2.5 5,2.5 z"
     id="path4286" />
  <g
     transform="matrix(1.1546577,0,0,1.1546577,-1.3449099,0.2056782)"
     id="g4276">
    <path
       style="fill:url(#radialGradient4282);fill-opacity:1;display:inline;enable-background:new"
       id="path4191"
       d="m 15.31854,2.01855 3.65217,3.18754 c 0,11.152198 -12.0567,-3.18754 -3.65217,-3.18754 z" />
    <path
       style="opacity:0.17000002;fill:#000000;fill-opacity:1;fill-rule:evenodd;stroke:none;display:inline;enable-background:new"
       id="path4474-4"
       d="m 12.99166,1.99377 c 1.11697,0 1,4.0124595 1,4.0124595 0,0 5.01089,-0.5812695 5.01089,1 0,-0.38528 0.0301,-1.8062995 -0.0469,-1.9265195 -0.55326,-0.86374 -2.94292,-2.80197 -3.80586,-3.05599 -0.69408,-0.058 -2.15813,-0.0299 -2.15813,-0.0299 z" />
    <path
       style="opacity:0.05;fill:#000000;fill-opacity:1;fill-rule:evenodd;stroke:none;display:inline;enable-background:new"
       id="path4474-4-2"
       d="m 12.1637,2.01886 c 1.11697,0 0.82796,4.9873695 0.82796,4.9873695 0,0 6.1005,-0.69597 6.1005,0.8853 0,-0.38528 -0.0846,-2.0356895 -0.1616,-2.1559095 C 18.3773,4.87188 15.24212,2.36018 14.37918,2.10616 13.16334,1.97812 12.1637,2.01886 12.1637,2.01886 z" />
    <path
       style="fill:url(#linearGradient4284);fill-opacity:1;fill-rule:evenodd;stroke:none;display:inline;enable-background:new"
       id="path4474"
       d="m 13.99166,1.99377 c 1.11697,0 1,3.01246 1,3.01246 0,0 4.01089,-0.58127 4.01089,0.9999995 0,-0.3852795 0.0301,-0.8062995 -0.0469,-0.9265195 -0.55326,-0.86374 -2.94292,-2.80197 -3.80586,-3.05599 -0.17779,-0.005 -0.98055,-0.02 -1.15813,-0.0299 z" />
  </g>
</svg>
