<?xml version="1.0" encoding="UTF-8" standalone="no"?>
<svg xmlns="http://www.w3.org/2000/svg" xmlns:xlink="http://www.w3.org/1999/xlink" xmlns:sodipodi="http://sodipodi.sourceforge.net/DTD/sodipodi-0.dtd" xmlns:inkscape="http://www.inkscape.org/namespaces/inkscape" version="1.1" width="24" height="24">
 <defs id="defs12709">
  <linearGradient inkscape:collect="always" id="linearGradient4021">
   <stop id="stop4023" stop-color="#ffffff"/>
   <stop offset="1" id="stop4025" stop-color="#ffffff" stop-opacity="0"/>
  </linearGradient>
  <linearGradient y1="15" x2="0" y2="10" id="linearGradient5610-3-8" xlink:href="#linearGradient5604-7" gradientUnits="userSpaceOnUse" gradientTransform="matrix(1.6666724,0,0,1.6000028,-2.33337,-7.7000402)"/>
  <linearGradient y1="10" x2="0" y2="15" id="linearGradient5618-5-7" xlink:href="#linearGradient5612-8" gradientUnits="userSpaceOnUse" gradientTransform="matrix(1.6666724,0,0,1.6000028,-2.33337,-7.7000402)"/>
  <linearGradient y1="218.84" x2="0" y2="230.17" id="linearGradient6572-9" xlink:href="#linearGradient3977-3" gradientUnits="userSpaceOnUse" gradientTransform="matrix(1.3879448,0,0,1.3871043,-867.75826,-305.61463)"/>
  <linearGradient id="linearGradient3977-3">
   <stop id="stop3979-9" stop-color="#ffffff"/>
   <stop id="stop3981-8" offset="0.029" stop-color="#ffffff" stop-opacity="0.235"/>
   <stop id="stop3983-01" offset="0.972" stop-color="#ffffff" stop-opacity="0.157"/>
   <stop id="stop3985-2" offset="1" stop-color="#ffffff" stop-opacity="0.392"/>
  </linearGradient>
  <linearGradient y1="15.03" x2="0" y2="3.102" id="linearGradient5936" xlink:href="#linearGradient5518-7" gradientUnits="userSpaceOnUse" gradientTransform="matrix(1.3879448,0,0,1.3871043,-0.29276,-6.0001202)"/>
  <linearGradient id="linearGradient5518-7">
   <stop id="stop5520-3" stop-color="#eae5ff"/>
   <stop id="stop5522-8" offset="1" stop-color="#d4d5da"/>
  </linearGradient>
  <linearGradient id="linearGradient5604-7">
   <stop id="stop5606-8" stop-color="#6f6c7e"/>
   <stop id="stop5608-5" offset="1" stop-color="#aaaaaa"/>
  </linearGradient>
  <linearGradient id="linearGradient5612-8">
   <stop id="stop5614-2" stop-color="#212121"/>
   <stop id="stop5616-0" offset="1" stop-color="#58575e"/>
  </linearGradient>
  <linearGradient gradientTransform="translate(-12.000339,-16)" inkscape:collect="always" xlink:href="#linearGradient5621" id="linearGradient4509" y1="13" x2="0" y2="43" gradientUnits="userSpaceOnUse"/>
  <linearGradient id="linearGradient5621">
   <stop id="stop5623" stop-color="#0b0b0b"/>
   <stop offset="1" id="stop5625" stop-color="#585858"/>
  </linearGradient>
  <linearGradient inkscape:collect="always" xlink:href="#linearGradient4021" id="linearGradient4011" x1="4" x2="8" gradientUnits="userSpaceOnUse"/>
  <linearGradient inkscape:collect="always" xlink:href="#linearGradient4021" id="linearGradient4013" x1="14" x2="18" gradientUnits="userSpaceOnUse"/>
  <linearGradient inkscape:collect="always" xlink:href="#linearGradient4021" id="linearGradient4027" x1="13" y1="4" x2="13.438" y2="7" gradientUnits="userSpaceOnUse"/>
  <linearGradient inkscape:collect="always" xlink:href="#linearGradient5618" id="linearGradient6822" gradientUnits="userSpaceOnUse" gradientTransform="matrix(0,-1,-1,0,892.3623,926.00005)" x1="912.5" x2="927.5"/>
  <linearGradient id="linearGradient5618">
   <stop id="stop5620" stop-color="#1e1e1e"/>
   <stop offset="1" id="stop5622" stop-color="#535353"/>
  </linearGradient>
  <linearGradient inkscape:collect="always" xlink:href="#linearGradient4021" id="linearGradient6857" y1="-479" x2="0" y2="-465" gradientUnits="userSpaceOnUse" gradientTransform="matrix(1.1363636,0,0,1.1392857,-490.99999,548.17322)"/>
  <linearGradient x2="927.5" x1="912.5" gradientTransform="matrix(0,-1.1392857,-1.1363636,0,1013.9572,1057.434)" gradientUnits="userSpaceOnUse" id="linearGradient3024" xlink:href="#linearGradient5618" inkscape:collect="always"/>
  <linearGradient inkscape:collect="always" xlink:href="#linearGradient5618" id="linearGradient4100" y1="-3" x2="0" y2="22" gradientUnits="userSpaceOnUse"/>
  <linearGradient inkscape:collect="always" xlink:href="#linearGradient5618" id="linearGradient4124" gradientUnits="userSpaceOnUse" y1="-3" x2="0" y2="22" gradientTransform="matrix(1,0,0,-1,1.5,23.5)"/>
  <linearGradient inkscape:collect="always" xlink:href="#linearGradient5618" id="linearGradient4134" gradientUnits="userSpaceOnUse" gradientTransform="translate(0.5,-0.5)" y1="-3" x2="0" y2="22"/>
 </defs>
 <metadata id="metadata12712"/>
 <path d="m 2.5,20.5 c -0.5357827,0 -1,-0.464217 -1,-1 l 0,-14 c 0,-0.535783 0.4642177,-1 1,-1 l 14,0 c 0.535782,0 1.094801,0.4726716 1,1 l 0,5.5625 3.28125,-3.28125 c 0.259681,-0.26483 0.52056,-0.288072 0.8125,-0.25 l 0,-0.03125 c 0.03081,0.0042 0.06238,-0.0061 0.09375,0 l 0.3125,0 0.5,0 0,0.5 0,0.3125 0,0.03125 c 0.0018,0.03407 0.0018,0.05968 0,0.09375 -5.93e-4,0.01136 9.88e-4,0.0182 0,0.03125 3.91e-4,0.02531 3.93e-4,0.0059 0,0.03125 l 0,8 0,0.03125 c 5.5e-5,0.0076 5.5e-5,0.0236 0,0.03125 -5.5e-5,0.0076 1.65e-4,0.0261 0,0.03125 l 0,0.40625 0,0.5 -0.5,0 -0.3125,0 -0.1875,0 c -0.02592,0.0016 -0.02084,1.62e-4 -0.03125,0 -0.01041,-1.62e-4 -0.03637,0 -0.03125,0 0.01024,0 -0.01065,0.0032 -0.0625,0 l -0.03125,0 -0.03125,0 C 21.151011,17.47202 20.975148,17.40943 20.78125,17.21875 L 17.5,13.9375 17.5,19.5 c 0,0.535782 -0.464217,1 -1,1 z" id="path5906" inkscape:connector-curvature="0" sodipodi:nodetypes="ssssssccccccccccccccccccccccsscccccsss" color="#000000" stroke-width="2" fill="url(#linearGradient4124)"/>
 <path sodipodi:nodetypes="sssssscccccccccccccccsss" inkscape:connector-curvature="0" d="m 2.5,4.5 c -0.554,0 -1,0.446 -1,1 l 0,14 c 0,0.554 0.446,1 1,1 l 14,0 c 0.554,0 1,-0.446 1,-1 l 0,-5.5625 3.28125,3.28125 c 0.23073,0.2353 0.58284,0.34458 0.90625,0.28125 l 0.8125,0 0,-0.8125 c 0.004,-0.05198 0.004,-0.10427 0,-0.15625 1.6e-4,-0.01042 1.6e-4,-0.02083 0,-0.03125 l 0,-8 c 0.001,-0.03123 0.001,-0.06252 0,-0.09375 L 22.5,7.5 21.6875,7.5 21.5,7.5 C 21.4584,7.4974 21.4166,7.4974 21.375,7.5 21.15315,7.52398 20.94035,7.624789 20.78125,7.78125 L 17.5,11.0625 17.5,5.5 c 0,-0.554 -0.446,-1 -1,-1 z" id="path4104" opacity="0.6" color="#000000" fill="none" stroke="#000000"/>
 <path id="path6878" d="m 7,9.5 0,6 6,-3 z" inkscape:connector-curvature="0" sodipodi:nodetypes="cccc" fill="#ffffff"/>
 <path d="M 2.5,5 C 2.2530267,5 2,5.2530267 2,5.5 l 0,1 C 2,6.2530267 2.2530267,6 2.5,6 l 14,0 C 16.746973,6 17,6.2530272 17,6.5 l 0,-1 C 17,5.2530272 16.746973,5 16.5,5 z M 17.84375,11.40625 17,12.28125 17,12.71875 17.28125,13 17.84375,12.40625 C 21.574317,9.477391 21,9 21.6875,9 L 22,9 22,8.5 22,8.46875 c 1.9e-5,-0.00265 1.9e-5,-0.02858 0,-0.03125 L 22,8.40625 22,8 21.6875,8 C 21,8 19.292859,9.957141 17.84375,11.40625 z" id="path4128" inkscape:connector-curvature="0" sodipodi:nodetypes="sscsscssscccccccccccccc" opacity="0.1" color="#000000" stroke-width="2" fill="#ffffff"/>
 <path id="path4140" d="M 2.5,21 C 2.2530267,21 2,20.5 2,20.5 l 0,-1 C 2,19.746973 2.2530267,20 2.5,20 l 14,0 c 0.246973,0 0.5,-0.253027 0.5,-0.5 l 0,1 c 0,0 -0.253027,0.5 -0.5,0.5 z M 17.84375,14.59375 17,13.71875 17,13.28125 17.28125,13 l 0.5625,0.59375 C 21.330617,16.179635 21,17 22,17 l 0,0.5 0,0.03125 c 1.9e-5,0.0027 1.9e-5,0.02858 0,0.03125 L 22,17.59375 22,18 c -1,0 -2.279204,-1.529204 -4.15625,-3.40625 z" inkscape:connector-curvature="0" sodipodi:nodetypes="sscsscssscccccccccccc" opacity="0.5" color="#000000" stroke-width="2"/>
 <path sodipodi:nodetypes="cccc" inkscape:connector-curvature="0" d="m 7,9.5 0,6 6,-3 z" id="path4142" opacity="0.05" fill="none" stroke="#ffffff" stroke-linejoin="round" stroke-width="2"/>
 <path id="path4144" d="m 7,9.5 0,6 6,-3 z" inkscape:connector-curvature="0" sodipodi:nodetypes="cccc" opacity="0.1" fill="none" stroke="#ffffff" stroke-linejoin="round"/>
</svg>
