<?xml version="1.0" encoding="UTF-8" standalone="no"?>
<svg xmlns="http://www.w3.org/2000/svg" xmlns:xlink="http://www.w3.org/1999/xlink" xmlns:sodipodi="http://sodipodi.sourceforge.net/DTD/sodipodi-0.dtd" xmlns:inkscape="http://www.inkscape.org/namespaces/inkscape" width="24" height="24" version="1.1">
 <defs id="defs5320">
  <clipPath id="clipPath11923">
   <path id="path11925" d="m 433,90 0,5 0,5 0,8 c 0,0 0,2 2,2 l 18,0 c 0,0 2,0 2,-2 l 0,-8 0,-5 0,-2 -8.25,0 C 444,93 444,90 441,90 l -8,0 z"/>
  </clipPath>
  <linearGradient inkscape:collect="always" xlink:href="#linearGradient4968" id="linearGradient5281" gradientUnits="userSpaceOnUse" gradientTransform="matrix(0.38091417,0,0,0.38091417,-115.93905,-78.847007)" y1="230.62" x2="0" y2="288.38"/>
  <linearGradient id="linearGradient4968">
   <stop id="stop4970" stop-color="#f1e6f4"/>
   <stop offset="1" id="stop4972" stop-color="#c9bcce"/>
  </linearGradient>
  <linearGradient inkscape:collect="always" xlink:href="#linearGradient11359" id="linearGradient5284" gradientUnits="userSpaceOnUse" gradientTransform="translate(-432,-77)" y1="87" x2="0" y2="100"/>
  <linearGradient id="linearGradient11359">
   <stop id="stop11361" stop-color="#d5cbd7"/>
   <stop offset="1" id="stop11363" stop-color="#d9bfdf"/>
  </linearGradient>
 </defs>
 <metadata id="metadata5323"/>
 <g id="layer1" inkscape:label="Background" inkscape:groupmode="layer" transform="translate(0,-8)">
  <path inkscape:connector-curvature="0" d="m 1.5,10.49972 0,13 21,0 0,-10 -7.75,0 c -1.55682,0 -2.44251,-0.911477 -3.15625,-1.65625 C 10.88001,11.098697 10.33333,10.49972 9,10.49972 z" id="path11573" sodipodi:nodetypes="ccccsssc" color="#000000" stroke-width="2" fill="url(#linearGradient5284)"/>
  <path inkscape:connector-curvature="0" d="m 1.5,19.49972 0,8.5 c 0,0 -0.003,0.40051 0.1875,0.78125 0.19037,0.38074 0.47917,0.71875 1.3125,0.71875 l 18,0 c 0,0 0.40051,0.003 0.78125,-0.1875 C 22.16199,29.12185 22.5,28.83305 22.5,27.99972 l 0,-8.5 z" id="path11602" sodipodi:nodetypes="cccsccscc" color="#000000" stroke-width="2" fill="url(#linearGradient5281)"/>
  <path transform="translate(-432,-80.00028)" inkscape:connector-curvature="0" d="m 433,90 0,9 0,5 0,4 c 0,0 0,2 2,2 l 18,0 c 0,0 2,0 2,-2 l 0,-4 0,-5 0,-6 -8.25,0 C 444,93 444,90 441,90 z" id="path11914" clip-path="url(#clipPath11923)" sodipodi:nodetypes="ccccscscccssc" opacity="0.41" color="#000000" stroke-width="2" fill="none" stroke="#000000"/>
  <rect id="rect11946" width="20" height="1" x="1.867" y="19" opacity="0.41" color="#000000"/>
  <rect id="rect5385" width="20" height="1" x="1.867" y="20" opacity="0.1" fill="#ffffff"/>
 </g>
</svg>
