<?xml version="1.0" encoding="UTF-8" standalone="no"?>
<svg
   xmlns:dc="http://purl.org/dc/elements/1.1/"
   xmlns:cc="http://creativecommons.org/ns#"
   xmlns:rdf="http://www.w3.org/1999/02/22-rdf-syntax-ns#"
   xmlns:svg="http://www.w3.org/2000/svg"
   xmlns="http://www.w3.org/2000/svg"
   xmlns:xlink="http://www.w3.org/1999/xlink"
   version="1.1"
   width="24"
   height="24"
   id="svg12707">
  <defs
     id="defs12709">
    <linearGradient
       id="linearGradient4021">
      <stop
         style="stop-color:#ffffff;stop-opacity:1;"
         offset="0"
         id="stop4023" />
      <stop
         style="stop-color:#ffffff;stop-opacity:0;"
         offset="1"
         id="stop4025" />
    </linearGradient>
    <linearGradient
       id="linearGradient4005">
      <stop
         style="stop-color:#ffffff;stop-opacity:1;"
         offset="0"
         id="stop4007" />
      <stop
         style="stop-color:#ffffff;stop-opacity:0;"
         offset="1"
         id="stop4009" />
    </linearGradient>
    <linearGradient
       gradientTransform="translate(-11.000339,-15)"
       xlink:href="#linearGradient5621"
       id="linearGradient4509"
       x1="12.000339"
       y1="13"
       x2="12.000339"
       y2="43"
       gradientUnits="userSpaceOnUse" />
    <linearGradient
       id="linearGradient5621">
      <stop
         style="stop-color:#0b0b0b;stop-opacity:1"
         offset="0"
         id="stop5623" />
      <stop
         style="stop-color:#585858;stop-opacity:1"
         offset="1"
         id="stop5625" />
    </linearGradient>
    <linearGradient
       xlink:href="#linearGradient4005"
       id="linearGradient4011"
       x1="4"
       y1="17"
       x2="8"
       y2="17"
       gradientUnits="userSpaceOnUse" />
    <linearGradient
       xlink:href="#linearGradient4005"
       id="linearGradient4013"
       x1="14"
       y1="16"
       x2="18"
       y2="16"
       gradientUnits="userSpaceOnUse" />
    <linearGradient
       xlink:href="#linearGradient4021"
       id="linearGradient4027"
       x1="13"
       y1="4"
       x2="13.4375"
       y2="7"
       gradientUnits="userSpaceOnUse"
       gradientTransform="translate(1,1)" />
  </defs>
  <metadata
     id="metadata12712">
    <rdf:RDF>
      <cc:Work
         rdf:about="">
        <dc:format>image/svg+xml</dc:format>
        <dc:type
           rdf:resource="http://purl.org/dc/dcmitype/StillImage" />
        <dc:title />
      </cc:Work>
    </rdf:RDF>
  </metadata>
  <path
     style="color:#bebebe;fill:url(#linearGradient4509);fill-opacity:1;fill-rule:nonzero;stroke:none;stroke-width:4;marker:none;visibility:visible;display:inline;overflow:visible;enable-background:accumulate"
     d="M 20,4 9.0000004,5.25 8.9996614,15.78125 C 8.4679174,15.301756 7.7720474,15 6.9996614,15 c -1.656854,0 -3,1.343146 -3,3 0,1.656854 1.343146,3 3,3 1.503652,0 2.720065,-1.119486 2.9375,-2.5625 0.0292,-0.142714 0.05875,-0.287057 0.0625,-0.4375 0,-0.02156 4.526e-4,-0.04105 0,-0.0625 L 10,9 19,8.0625 18.999661,14.78125 C 18.467917,14.301756 17.772047,14 16.999661,14 c -1.656854,0 -3,1.343146 -3,3 0,1.656854 1.343146,3 3,3 1.311676,0 2.40482,-0.858426 2.8125,-2.03125 0.02467,-0.07099 0.04312,-0.145451 0.0625,-0.21875 0.01715,-0.05307 0.04949,-0.101642 0.0625,-0.15625 0.03372,-0.164795 0.05701,-0.326569 0.0625,-0.5 -1.57e-4,-0.03164 0.0016,-0.0618 0,-0.09375 0,-0.02156 4.53e-4,-0.04105 0,-0.0625 z"
     id="path8432-5" />
  <path
     style="opacity:0.5;fill:url(#linearGradient4011);fill-opacity:1;stroke:none"
     id="path3993"
     d="m 8,17 a 2,2 0 1 1 -4,0 2,2 0 1 1 4,0 z"
     transform="matrix(0,1,-1,0,24,12)" />
  <path
     style="opacity:0.5;fill:url(#linearGradient4013);fill-opacity:1;stroke:none"
     id="path4003"
     d="m 18,16 a 2,2 0 1 1 -4,0 2,2 0 1 1 4,0 z"
     transform="matrix(0,1,-1,0,33,1)" />
  <path
     style="font-size:medium;font-style:normal;font-variant:normal;font-weight:normal;font-stretch:normal;text-indent:0;text-align:start;text-decoration:none;line-height:normal;letter-spacing:normal;word-spacing:normal;text-transform:none;direction:ltr;block-progression:tb;writing-mode:lr-tb;text-anchor:start;baseline-shift:baseline;opacity:0.5;color:#bebebe;fill:url(#linearGradient4027);fill-opacity:1;stroke:none;stroke-width:2;marker:none;visibility:visible;display:inline;overflow:visible;enable-background:accumulate;font-family:Sans;-inkscape-font-specification:Sans"
     d="M 19.000339,5.1249999 19,7.0625 l -0.09375,0 L 10,8 10.000339,6.1562499 z"
     id="path4015" />
</svg>
