<?xml version="1.0" encoding="UTF-8" standalone="no"?>
<svg
   xmlns:dc="http://purl.org/dc/elements/1.1/"
   xmlns:cc="http://creativecommons.org/ns#"
   xmlns:rdf="http://www.w3.org/1999/02/22-rdf-syntax-ns#"
   xmlns:svg="http://www.w3.org/2000/svg"
   xmlns="http://www.w3.org/2000/svg"
   xmlns:xlink="http://www.w3.org/1999/xlink"
   id="svg12707"
   height="24"
   width="24"
   version="1.1">
  <defs
     id="defs12709">
    <linearGradient
       id="linearGradient3850">
      <stop
         id="stop3852"
         offset="0"
         style="stop-color:#ffffff;stop-opacity:1;" />
      <stop
         id="stop3854"
         offset="1"
         style="stop-color:#ffffff;stop-opacity:0;" />
    </linearGradient>
    <linearGradient
       id="linearGradient5621-4">
      <stop
         id="stop5623-4"
         offset="0"
         style="stop-color:#0b0b0b;stop-opacity:1" />
      <stop
         id="stop5625-9"
         offset="1"
         style="stop-color:#585858;stop-opacity:1" />
    </linearGradient>
    <linearGradient
       y2="-176"
       x2="1888"
       y1="-160"
       x1="1888"
       gradientTransform="translate(-1869.0002,180.00001)"
       gradientUnits="userSpaceOnUse"
       id="linearGradient3842"
       xlink:href="#linearGradient5621-4" />
    <linearGradient
       gradientUnits="userSpaceOnUse"
       y2="4.5"
       x2="18"
       y1="4.5"
       x1="13"
       id="linearGradient3856"
       xlink:href="#linearGradient3850" />
    <linearGradient
       gradientUnits="userSpaceOnUse"
       y2="11.5"
       x2="8"
       y1="11.5"
       x1="3"
       id="linearGradient3858"
       xlink:href="#linearGradient3850" />
    <linearGradient
       gradientUnits="userSpaceOnUse"
       y2="18.5"
       x2="18"
       y1="18.5"
       x1="13"
       id="linearGradient3860"
       xlink:href="#linearGradient3850" />
  </defs>
  <metadata
     id="metadata12712">
    <rdf:RDF>
      <cc:Work
         rdf:about="">
        <dc:format>image/svg+xml</dc:format>
        <dc:type
           rdf:resource="http://purl.org/dc/dcmitype/StillImage" />
        <dc:title />
      </cc:Work>
    </rdf:RDF>
  </metadata>
  <path
     id="path8436-3-3"
     d="M 16.5,1 C 14.567003,1 13,2.5670034 13,4.5 c 0,0.438376 0.102821,0.8632799 0.25,1.25 L 8.9375,9 C 8.3067893,8.3850602 7.4504613,8 6.5,8 4.5670034,8 3,9.567003 3,11.5 3,13.432997 4.5670034,15 6.5,15 7.4504613,15 8.3067893,14.61494 8.9375,14 L 13.25,17.25 C 13.102821,17.63672 13,18.061624 13,18.5 13,20.432997 14.567003,22 16.5,22 18.432997,22 20,20.432997 20,18.5 20,16.567003 18.432997,15 16.5,15 c -0.950461,0 -1.806789,0.38506 -2.4375,1 L 9.75,12.75 C 9.8971789,12.36328 10,11.938376 10,11.5 10,11.061624 9.8971789,10.63672 9.75,10.25 L 14.0625,7 C 14.693211,7.6149398 15.549539,8 16.5,8 18.432997,8 20,6.4329966 20,4.5 20,2.5670034 18.432997,1 16.5,1 z"
     style="color:#bebebe;fill:url(#linearGradient3842);fill-opacity:1;fill-rule:nonzero;stroke:none;stroke-width:4;marker:none;visibility:visible;display:inline;overflow:visible;enable-background:accumulate" />
  <path
     transform="matrix(0,1,-1,0,18,6)"
     d="m 8,11.5 a 2.5,2.5 0 1 1 -5,0 2.5,2.5 0 1 1 5,0 z"
     id="path3844"
     style="opacity:0.6;fill:url(#linearGradient3858);fill-opacity:1;stroke:none" />
  <path
     transform="matrix(0,1,-1,0,21,-11)"
     d="m 18,4.5 a 2.5,2.5 0 1 1 -5,0 2.5,2.5 0 1 1 5,0 z"
     id="path3846"
     style="opacity:0.6;fill:url(#linearGradient3856);fill-opacity:1;stroke:none" />
  <path
     transform="matrix(0,1,-1,0,35,3)"
     d="m 18,18.5 a 2.5,2.5 0 1 1 -5,0 2.5,2.5 0 1 1 5,0 z"
     id="path3848"
     style="opacity:0.6;fill:url(#linearGradient3860);fill-opacity:1;stroke:none" />
</svg>
