<?xml version="1.0" encoding="UTF-8" standalone="no"?>
<svg xmlns="http://www.w3.org/2000/svg" xmlns:sodipodi="http://sodipodi.sourceforge.net/DTD/sodipodi-0.dtd" xmlns:inkscape="http://www.inkscape.org/namespaces/inkscape" width="22" height="22" version="1.1">
 <metadata id="metadata3401"/>
 <g id="layer1" inkscape:label="Layer 1" inkscape:groupmode="layer" transform="translate(0,6)">
  <path sodipodi:nodetypes="sscsssssssscsssccccccc" inkscape:connector-curvature="0" d="M 5.5,-2 C 5.223,-2 5,-1.777 5,-1.5 L 5,-1 3.5,-1 C 3.223,-1 3,-0.777 3,-0.5 l 0,14 C 3,13.777 3.223,14 3.5,14 l 6,0 C 9.777,14 10,13.777 10,13.5 l 0,-14 C 10,-0.777 9.777,-1 9.5,-1 L 8,-1 8,-1.5 C 8,-1.777 7.777,-2 7.5,-2 z M 4,0 5.5,0 7.5,0 9,0 9,13 4,13 z" id="path3775" opacity="0.2" stroke-linejoin="round" stroke-linecap="round" color="#bebebe" stroke-width="0"/>
  <path id="path3777" d="M 5,6.9999999 5,12 8,12 8,6.9999999 z" inkscape:connector-curvature="0" sodipodi:nodetypes="ccccc" opacity="0.2" stroke-linejoin="round" stroke-linecap="round" color="#bebebe" stroke-width="0"/>
  <path id="path2994" d="M 5.5,-3 C 5.223,-3 5,-2.777 5,-2.5 L 5,-2 3.5,-2 C 3.223,-2 3,-1.777 3,-1.5 l 0,14 C 3,12.777 3.223,13 3.5,13 l 6,0 C 9.777,13 10,12.777 10,12.5 l 0,-14 C 10,-1.777 9.777,-2 9.5,-2 L 8,-2 8,-2.5 C 8,-2.777 7.777,-3 7.5,-3 z m -1.5,2 1.5,0 2,0 1.5,0 0,13 -5,0 z" inkscape:connector-curvature="0" sodipodi:nodetypes="sscsssssssscsssccccccc" fill="#ffffff" stroke-linejoin="round" stroke-linecap="round" color="#bebebe" stroke-width="0"/>
  <path sodipodi:nodetypes="ccccc" inkscape:connector-curvature="0" d="M 5,5.9999999 5,11 8,11 8,5.9999999 z" id="path2996" fill="#ffffff" stroke-linejoin="round" stroke-linecap="round" color="#bebebe" stroke-width="0"/>
  <path id="path3836" inkscape:connector-curvature="0" d="m 13,-1.0000016 c -0.554,0 -1,0.446 -1,1.00000007 V 13 c 0,0.554 0.446,1 1,1 h 5 c 0.554,0 1,-0.446 1,-1 V -1.53e-6 C 19,-0.5540016 18.554,-1.0000016 18,-1.0000016 h -5 z m 0,3.0000001 h 1 V 2.9999984 H 13 V 1.9999985 z m 2,0 h 1 V 2.9999984 H 15 V 1.9999985 z m 2,0.9999999 h 1 V 9.9999985 H 17 V 2.9999984 z m -4,1 h 1 v 1 h -1 v -1 z m 2,0 h 1 v 1 h -1 v -1 z m -2,2 h 1 v 1 h -1 v -1 z m 2,0 h 1 v 1 h -1 v -1 z m -2,2 h 1 v 1 h -1 v -1 z m 2,0 h 1 v 1 h -1 v -1 z m -2,2.0000001 h 1 V 10.999999 H 13 V 9.9999985 z m 2,0 h 1 V 10.999999 H 15 V 9.9999985 z" opacity="0.2" fill-rule="evenodd"/>
  <path d="m 13,-2.0000016 c -0.554,0 -1,0.446 -1,1.0000001 V 12 c 0,0.554 0.446,1 1,1 h 5 c 0.554,0 1,-0.446 1,-1 V -1.0000015 c 0,-0.5540001 -0.446,-1.0000001 -1,-1.0000001 h -5 z m 0,3.0000001 h 1 V 1.9999984 H 13 V 0.9999985 z m 2,0 h 1 V 1.9999984 H 15 V 0.9999985 z m 2,0.9999999 h 1 V 8.9999985 H 17 V 1.9999984 z m -4,1 h 1 v 1 h -1 v -1 z m 2,0 h 1 v 1 h -1 v -1 z m -2,2 h 1 v 1 h -1 v -1 z m 2,0 h 1 v 1 h -1 v -1 z m -2,2 h 1 v 1 h -1 v -1 z m 2,0 h 1 v 1 h -1 v -1 z m -2,2.0000001 h 1 V 9.999999 H 13 V 8.9999985 z m 2,0 h 1 V 9.999999 H 15 V 8.9999985 z" inkscape:connector-curvature="0" id="rect2397" fill="#ffffff" fill-rule="evenodd"/>
 </g>
</svg>
