<?xml version="1.0" encoding="UTF-8" standalone="no"?>
<svg xmlns="http://www.w3.org/2000/svg" xmlns:sodipodi="http://sodipodi.sourceforge.net/DTD/sodipodi-0.dtd" xmlns:inkscape="http://www.inkscape.org/namespaces/inkscape" height="22" version="1.1" width="22" enable-background="new">
 <metadata id="metadata90"/>
 <defs id="defs7386">
  <linearGradient id="linearGradient5606" osb:paint="solid">
   <stop id="stop5608"/>
  </linearGradient>
  <filter inkscape:collect="always" color-interpolation-filters="sRGB" id="filter7554">
   <feBlend inkscape:collect="always" id="feBlend7556" in2="BackgroundImage" mode="darken"/>
  </filter>
 </defs>
 <g inkscape:groupmode="layer" id="layer9" inkscape:label="status" transform="translate(-360.96897,403)">
  <path id="path6495" d="m 369.0002,-393 c -0.55228,0 -1,0.44772 -1,1 0,0.55228 0.44772,1 1,1 0.55228,0 1,-0.44772 1,-1 0,-0.55228 -0.44772,-1 -1,-1 z m 3,0 c -0.55228,0 -1,0.44772 -1,1 0,0.55228 0.44772,1 1,1 0.55228,0 1,-0.44772 1,-1 0,-0.55228 -0.44772,-1 -1,-1 z m 3,0 c -0.55228,0 -1,0.44772 -1,1 0,0.55228 0.44772,1 1,1 0.55228,0 1,-0.44772 1,-1 0,-0.55228 -0.44772,-1 -1,-1 z" inkscape:connector-curvature="0" opacity="0.2"/>
  <path inkscape:connector-curvature="0" d="m 372.0627,-398 c -3.03435,0 -5.76588,1.07815 -8.03125,2.75 l 8.03125,8.75 7.96875,-8.78125 C 377.77484,-396.93454 375.07375,-398 372.0627,-398 z m -0.0625,1 c 2.39362,0 4.52424,0.83638 6.4375,2.03125 l -1.40625,1.53125 c 0.031,0.13839 0.0312,0.29066 0.0312,0.4375 0,1.09273 -0.90727,2 -2,2 -0.09,0 -0.16534,-0.0179 -0.25,-0.0312 l -2.8125,3.0625 -2.78125,-3.0625 c -0.0547,0.005 -0.0994,0.0312 -0.15625,0.0312 -1.09273,0 -2,-0.90727 -2,-2 0,-0.12615 0.008,-0.25491 0.0312,-0.375 l 0,-0.0312 -1.4687,-1.59375 c 1.90092,-1.17864 4.00536,-2 6.375,-2 z" id="path7627" opacity="0.35" fill="#ffffff" color="#000000"/>
  <path inkscape:connector-curvature="0" d="m 369.0002,-394 c -0.55228,0 -1,0.44772 -1,1 0,0.55228 0.44772,1 1,1 0.55228,0 1,-0.44772 1,-1 0,-0.55228 -0.44772,-1 -1,-1 z m 3,0 c -0.55228,0 -1,0.44772 -1,1 0,0.55228 0.44772,1 1,1 0.55228,0 1,-0.44772 1,-1 0,-0.55228 -0.44772,-1 -1,-1 z m 3,0 c -0.55228,0 -1,0.44772 -1,1 0,0.55228 0.44772,1 1,1 0.55228,0 1,-0.44772 1,-1 0,-0.55228 -0.44772,-1 -1,-1 z" id="path4955" fill="#ffffff"/>
 </g>
</svg>
