<?xml version="1.0" encoding="UTF-8" standalone="no"?>
<svg xmlns="http://www.w3.org/2000/svg" xmlns:sodipodi="http://sodipodi.sourceforge.net/DTD/sodipodi-0.dtd" xmlns:inkscape="http://www.inkscape.org/namespaces/inkscape" height="22" version="1.1" width="22" enable-background="new">
 <metadata id="metadata90"/>
 <defs id="defs7386">
  <linearGradient id="linearGradient5606" osb:paint="solid">
   <stop id="stop5608"/>
  </linearGradient>
  <filter inkscape:collect="always" color-interpolation-filters="sRGB" id="filter7554">
   <feBlend inkscape:collect="always" id="feBlend7556" in2="BackgroundImage" mode="darken"/>
  </filter>
 </defs>
 <g inkscape:groupmode="layer" id="layer9" inkscape:label="status" transform="translate(-340.00013,308.99997)">
  <path id="path4978" d="m 354.00011,-293.99997 0,1 c 0,0.27614 0.10029,0.53779 0.28125,0.71875 l 0.78125,0.78125 -0.78125,0.78125 c -0.18096,0.18096 -0.28125,0.44261 -0.28125,0.71875 l 0,1 1,0 c 0.27614,0 0.53779,-0.10029 0.71875,-0.28125 l 0.78125,-0.78125 0.78125,0.78125 c 0.18096,0.18096 0.44261,0.28125 0.71875,0.28125 l 1,0 0,-1 c 0,-0.27614 -0.10029,-0.53779 -0.28125,-0.71875 l -0.78125,-0.78125 0.78125,-0.78125 c 0.18096,-0.18096 0.28125,-0.44261 0.28125,-0.71875 l 0,-1 -1,0 c -0.27614,0 -0.53779,0.10029 -0.71875,0.28125 l -0.78125,0.78125 -0.78125,-0.78125 c -0.18096,-0.18096 -0.44261,-0.28125 -0.71875,-0.28125 l -1,0 z" inkscape:connector-curvature="0" opacity="0.2"/>
  <path inkscape:connector-curvature="0" d="m 353.50011,-302.99997 c -0.277,0 -0.5,0.223 -0.5,0.5 l 0,6.5 1,0 1,0 0,-6.5 c 0,-0.277 -0.223,-0.5 -0.5,-0.5 z" id="rect7124" sodipodi:nodetypes="sscccsss" opacity="0.35" fill="#ffffff" color="#444444"/>
  <rect height="9" id="rect7126" width="2" x="350" y="-300" opacity="0.35" fill="#ffffff" color="#444444" rx="0.5"/>
  <rect height="6" id="rect7128" width="2" x="347" y="-297" opacity="0.35" fill="#ffffff" color="#444444" rx="0.5"/>
  <rect height="3" id="rect7130" width="2" x="344" y="-294" opacity="0.35" fill="#ffffff" color="#444444" rx="0.5"/>
  <path d="m 356.50013,-305.99997 c -0.277,0 -0.5,0.223 -0.5,0.5 l 0,9.5 2,0 0,-9.5 c 0,-0.277 -0.223,-0.5 -0.5,-0.5 l -1,0 z" id="rect7132" inkscape:connector-curvature="0" opacity="0.35" fill="#ffffff" color="#444444"/>
  <path inkscape:connector-curvature="0" d="m 354.00011,-294.99997 0,1 c 0,0.27614 0.10029,0.53779 0.28125,0.71875 l 0.78125,0.78125 -0.78125,0.78125 c -0.18096,0.18096 -0.28125,0.44261 -0.28125,0.71875 l 0,1 1,0 c 0.27614,0 0.53779,-0.10029 0.71875,-0.28125 l 0.78125,-0.78125 0.78125,0.78125 c 0.18096,0.18096 0.44261,0.28125 0.71875,0.28125 l 1,0 0,-1 c 0,-0.27614 -0.10029,-0.53779 -0.28125,-0.71875 l -0.78125,-0.78125 0.78125,-0.78125 c 0.18096,-0.18096 0.28125,-0.44261 0.28125,-0.71875 l 0,-1 -1,0 c -0.27614,0 -0.53779,0.10029 -0.71875,0.28125 l -0.78125,0.78125 -0.78125,-0.78125 c -0.18096,-0.18096 -0.44261,-0.28125 -0.71875,-0.28125 l -1,0 z" id="path2987-7-9-8-5-1" fill="#ffffff"/>
 </g>
</svg>
