<?xml version="1.0" encoding="UTF-8" standalone="no"?>
<svg xmlns="http://www.w3.org/2000/svg" xmlns:sodipodi="http://sodipodi.sourceforge.net/DTD/sodipodi-0.dtd" xmlns:inkscape="http://www.inkscape.org/namespaces/inkscape" height="22" version="1.1" width="22" enable-background="new">
 <metadata id="metadata90"/>
 <defs id="defs7386">
  <linearGradient id="linearGradient5606" osb:paint="solid">
   <stop id="stop5608"/>
  </linearGradient>
  <filter inkscape:collect="always" color-interpolation-filters="sRGB" id="filter7554">
   <feBlend inkscape:collect="always" id="feBlend7556" in2="BackgroundImage" mode="darken"/>
  </filter>
 </defs>
 <g inkscape:groupmode="layer" id="layer12" inkscape:label="actions" transform="translate(-443.00018,409)">
  <path d="m 456.00018,-405.53125 0,1.03125 0,1.5 -2.5,0 -0.5,0 0,1 0.5,0 3,0 0.5,0 0,-0.5 0,-0.96875 3.71875,2.96875 -3.71875,2.96875 0,-0.96875 0,-0.5 -0.5,0 -2.5,0 0,1 2,0 0,1.5 0,1.03125 0.8125,-0.65625 5,-4 0.5,-0.375 -0.5,-0.375 -5,-4 z" id="path3766" inkscape:connector-curvature="0" sodipodi:nodetypes="ccccccccccccccccccccccccccc" opacity="0.35" color="#000000" fill="#ffffff"/>
  <path id="path3783" d="m 452.00018,-401.53125 -0.8125,0.65625 -5,4 -0.5,0.375 0.5,0.375 5,4 0.8125,0.65625 0,-1.03125 0,-1.5 2.5,0 0.5,0 0,-1 -0.5,0 -3,0 -0.5,0 0,0.5 0,0.96875 -3.71875,-2.96875 3.71875,-2.96875 0,0.96875 0,0.5 0.5,0 2.50002,0 0,-1 -2.00002,0 0,-1.5 z" inkscape:connector-curvature="0" sodipodi:nodetypes="ccccccccccccccccccccccccccc" opacity="0.35" color="#000000" fill="#ffffff"/>
 </g>
</svg>
