<?xml version='1.0' encoding='UTF-8' standalone='no'?>
<svg height="16" xmlns:inkscape="http://www.inkscape.org/namespaces/inkscape" xmlns:sodipodi="http://sodipodi.sourceforge.net/DTD/sodipodi-0.dtd" version="1.1" width="16" xmlns="http://www.w3.org/2000/svg" enable-background="new">
 <metadata id="metadata90"/>
 <defs id="defs7386">
  <linearGradient id="linearGradient5606" osb:paint="solid">
   <stop id="stop5608"/>
  </linearGradient>
  <filter inkscape:collect="always" color-interpolation-filters="sRGB" id="filter7554">
   <feBlend inkscape:collect="always" id="feBlend7556" in2="BackgroundImage" mode="darken"/>
  </filter>
 </defs>
 <g inkscape:groupmode="layer" id="layer12" inkscape:label="actions" transform="translate(-361.0002,-89)">
  <path inkscape:connector-curvature="0" d="m 369.0002,89.39258 -2.11914,5.49414 -5.88086,0.3164 4.57227,3.71485 -1.51563,5.69141 4.94336,-3.20118 1,0.64844 0,-2.05664 2,0 0,-1 0,-1 1.55664,0 3.44336,-2.79688 -5.88086,-0.3164 -2.11914,-5.49414 z m 4,9.60742 0,2 -2,0 0,2 2,0 0,2 2,0 0,-2 2,0 0,-2 -2,0 0,-2 -2,0 z" id="polygon5122-0-01" color="#000000" stroke-width="5.359" fill="#bebebe"/>
 </g>
</svg>
