<?xml version="1.0" encoding="UTF-8" standalone="no"?>
<svg
   xmlns:osb="http://www.openswatchbook.org/uri/2009/osb"
   xmlns:dc="http://purl.org/dc/elements/1.1/"
   xmlns:cc="http://creativecommons.org/ns#"
   xmlns:rdf="http://www.w3.org/1999/02/22-rdf-syntax-ns#"
   xmlns:svg="http://www.w3.org/2000/svg"
   xmlns="http://www.w3.org/2000/svg"
   width="15.981825"
   version="1.1"
   style="enable-background:new"
   id="svg7384"
   height="16">
  <metadata
     id="metadata90">
    <rdf:RDF>
      <cc:Work
         rdf:about="">
        <dc:format>image/svg+xml</dc:format>
        <dc:type
           rdf:resource="http://purl.org/dc/dcmitype/StillImage" />
        <dc:title>Moka Symbolic Icon Theme</dc:title>
      </cc:Work>
    </rdf:RDF>
  </metadata>
  <title
     id="title8473">Moka Symbolic Icon Theme</title>
  <defs
     id="defs7386">
    <linearGradient
       osb:paint="solid"
       id="linearGradient5606">
      <stop
         style="stop-color:#000000;stop-opacity:1;"
         offset="0"
         id="stop5608" />
    </linearGradient>
    <filter
       style="color-interpolation-filters:sRGB"
       id="filter7554">
      <feBlend
         mode="darken"
         in2="BackgroundImage"
         id="feBlend7556" />
    </filter>
  </defs>
  <g
     transform="translate(-363.0004,-3.996662)"
     style="display:inline"
     id="layer9" />
  <g
     transform="translate(-363.0004,-3.996662)"
     style="display:inline;filter:url(#filter7554)"
     id="layer10" />
  <g
     transform="translate(-122.0002,-620.99666)"
     style="display:inline"
     id="layer1" />
  <g
     transform="translate(-363.0004,-3.996662)"
     style="display:inline"
     id="layer14" />
  <g
     transform="translate(-363.0004,-3.996662)"
     style="display:inline"
     id="layer15" />
  <g
     transform="translate(-363.0004,-3.996662)"
     style="display:inline"
     id="g71291" />
  <g
     transform="translate(-122.0002,-470.99666)"
     style="display:inline"
     id="layer2" />
  <g
     transform="translate(-122.0002,-470.99666)"
     style="display:inline"
     id="g6058" />
  <g
     transform="translate(-363.0004,-3.996662)"
     style="display:inline"
     id="layer12">
    <path
       style="color:#bebebe;fill:#bebebe;stroke:none;stroke-linejoin:round"
       id="path7274"
       d="m 367.8752,5.99664 c -0.25613,0.0339 -0.497,0.17155 -0.65625,0.375 l -4,5 c -0.28127,0.35137 -0.28127,0.89863 0,1.25 l 4,5 c 0.20539,0.2592 0.54566,0.40503 0.875,0.375 0.01,7.7e-4 0.0212,-5.1e-4 0.0312,0 0.0201,0.001 0.0421,0 0.0625,0 l 8.625,0 c 0.6627,0 1.1875,-0.54894 1.1875,-1.21875 l 0,-9.5625 c 10e-5,-0.66976 -0.52475,-1.21875 -1.18745,-1.21875 l -8.625,0 c -0.0416,-0.003 -0.0834,-0.003 -0.125,0 -0.0623,-0.006 -0.12518,-0.006 -0.1875,0 z m 1.125,3 1,0 c 0.27614,0 0.53779,0.10029 0.71875,0.28125 l 1.28125,1.28125 1.28125,-1.28125 c 0.18096,-0.18096 0.44292,-0.26812 0.71875,-0.28125 l 1,0 0,1 c 0,0.27614 -0.12201,0.51841 -0.28125,0.71875 l -1.28125,1.28125 1.28125,1.28125 c 0.18096,0.18096 0.19393,0.45678 0.28125,0.71875 l 0,1 -1,0 c -0.27549,0.019 -0.56909,-0.0737 -0.71875,-0.28125 l -1.28125,-1.28125 -1.28125,1.28125 c -0.18096,0.18096 -0.44261,0.28125 -0.71875,0.28125 l -1,0 0,-1 c 0,-0.27614 0.0856,-0.55379 0.28125,-0.71875 l 1.28125,-1.28125 -1.28125,-1.28125 c -0.18096,-0.18096 -0.35917,-0.45383 -0.28125,-0.71875 z" />
    <rect
       y="3.9966619"
       x="363.0004"
       width="15.981825"
       style="fill:none;stroke:none;stroke-linejoin:round"
       ry="0"
       rx="0"
       id="rect7276"
       height="16" />
  </g>
</svg>
