<?xml version="1.0" encoding="UTF-8" standalone="no"?>
<svg
   xmlns:osb="http://www.openswatchbook.org/uri/2009/osb"
   xmlns:dc="http://purl.org/dc/elements/1.1/"
   xmlns:cc="http://creativecommons.org/ns#"
   xmlns:rdf="http://www.w3.org/1999/02/22-rdf-syntax-ns#"
   xmlns:svg="http://www.w3.org/2000/svg"
   xmlns="http://www.w3.org/2000/svg"
   width="16"
   version="1.1"
   style="enable-background:new"
   id="svg7384"
   height="16">
  <metadata
     id="metadata90">
    <rdf:RDF>
      <cc:Work
         rdf:about="">
        <dc:format>image/svg+xml</dc:format>
        <dc:type
           rdf:resource="http://purl.org/dc/dcmitype/StillImage" />
        <dc:title>Moka Symbolic Icon Theme</dc:title>
      </cc:Work>
    </rdf:RDF>
  </metadata>
  <title
     id="title8473">Moka Symbolic Icon Theme</title>
  <defs
     id="defs7386">
    <linearGradient
       osb:paint="solid"
       id="linearGradient5606">
      <stop
         style="stop-color:#000000;stop-opacity:1;"
         offset="0"
         id="stop5608" />
    </linearGradient>
    <filter
       style="color-interpolation-filters:sRGB"
       id="filter7554">
      <feBlend
         mode="darken"
         in2="BackgroundImage"
         id="feBlend7556" />
    </filter>
  </defs>
  <g
     transform="translate(-441.00061,-43.99666)"
     style="display:inline"
     id="layer9" />
  <g
     transform="translate(-441.00061,-43.99666)"
     style="display:inline;filter:url(#filter7554)"
     id="layer10" />
  <g
     transform="translate(-200.00041,-660.99666)"
     style="display:inline"
     id="layer1" />
  <g
     transform="translate(-441.00061,-43.99666)"
     style="display:inline"
     id="layer14" />
  <g
     transform="translate(-441.00061,-43.99666)"
     style="display:inline"
     id="layer15" />
  <g
     transform="translate(-441.00061,-43.99666)"
     style="display:inline"
     id="g71291" />
  <g
     transform="translate(-200.00041,-510.99666)"
     style="display:inline"
     id="layer2" />
  <g
     transform="translate(-200.00041,-510.99666)"
     style="display:inline"
     id="g6058" />
  <g
     transform="translate(-441.00061,-43.99666)"
     style="display:inline"
     id="layer12">
    <path
       style="color:#000000;font-style:normal;font-variant:normal;font-weight:normal;font-stretch:normal;line-height:normal;font-family:Sans;-inkscape-font-specification:Sans;text-indent:0;text-align:start;text-decoration:none;text-decoration-line:none;letter-spacing:normal;word-spacing:normal;text-transform:none;direction:ltr;block-progression:tb;writing-mode:lr-tb;baseline-shift:baseline;text-anchor:start;display:inline;overflow:visible;visibility:visible;fill:#bebebe;fill-opacity:1;stroke:none;stroke-width:2;marker:none;enable-background:accumulate"
       id="path11643-3-5"
       d="m 445.50041,46.99666 0,2 6,0 c 0.42816,0 0.59383,0.26733 0.46875,0.71875 l -0.34375,1.28125 -5.25,0 c -1.83854,0 -3.12514,1.35237 -3.5,2.75 -0.18743,0.69881 -0.16219,1.47883 0.25,2.15625 0.41219,0.67742 1.24797,1.09375 2.15625,1.09375 l 6,-10e-6 c 0.71855,-1e-5 0.96875,-0.71874 0.96875,-0.71874 l 1.65625,-6 c 0.43468,-1.56878 -0.72605,-3.28125 -2.40625,-3.28125 z m 0.875,6 4.6875,0 -0.5625,2 -5.21875,0 c -0.39787,0 -0.42459,-0.0837 -0.46875,-0.15625 -0.0442,-0.0726 -0.0808,-0.29256 0,-0.59375 0.16157,-0.60237 0.71778,-1.25 1.5625,-1.25 z" />
  </g>
</svg>
