<?xml version="1.0" encoding="UTF-8" standalone="no"?>
<svg
   xmlns:osb="http://www.openswatchbook.org/uri/2009/osb"
   xmlns:dc="http://purl.org/dc/elements/1.1/"
   xmlns:cc="http://creativecommons.org/ns#"
   xmlns:rdf="http://www.w3.org/1999/02/22-rdf-syntax-ns#"
   xmlns:svg="http://www.w3.org/2000/svg"
   xmlns="http://www.w3.org/2000/svg"
   width="15.999999"
   version="1.1"
   style="enable-background:new"
   id="svg7384"
   height="16">
  <metadata
     id="metadata90">
    <rdf:RDF>
      <cc:Work
         rdf:about="">
        <dc:format>image/svg+xml</dc:format>
        <dc:type
           rdf:resource="http://purl.org/dc/dcmitype/StillImage" />
        <dc:title>Moka Symbolic Icon Theme</dc:title>
      </cc:Work>
    </rdf:RDF>
  </metadata>
  <title
     id="title8473">Moka Symbolic Icon Theme</title>
  <defs
     id="defs7386">
    <linearGradient
       osb:paint="solid"
       id="linearGradient5606">
      <stop
         style="stop-color:#000000;stop-opacity:1;"
         offset="0"
         id="stop5608" />
    </linearGradient>
    <filter
       style="color-interpolation-filters:sRGB"
       id="filter7554">
      <feBlend
         mode="darken"
         in2="BackgroundImage"
         id="feBlend7556" />
    </filter>
  </defs>
  <g
     transform="translate(-521.0002,-43.99664)"
     style="display:inline"
     id="layer9" />
  <g
     transform="translate(-521.0002,-43.99664)"
     style="display:inline;filter:url(#filter7554)"
     id="layer10" />
  <g
     transform="translate(-280,-660.99664)"
     style="display:inline"
     id="layer1" />
  <g
     transform="translate(-521.0002,-43.99664)"
     style="display:inline"
     id="layer14" />
  <g
     transform="translate(-521.0002,-43.99664)"
     style="display:inline"
     id="layer15" />
  <g
     transform="translate(-521.0002,-43.99664)"
     style="display:inline"
     id="g71291" />
  <g
     transform="translate(-280,-510.99664)"
     style="display:inline"
     id="layer2" />
  <g
     transform="translate(-280,-510.99664)"
     style="display:inline"
     id="g6058" />
  <g
     transform="translate(-521.0002,-43.99664)"
     style="display:inline"
     id="layer12">
    <rect
       y="43.996639"
       x="521.00018"
       width="15.999999"
       style="fill:none;stroke:none"
       id="rect2994"
       height="16" />
    <path
       style="fill:#bebebe;fill-opacity:1;stroke:none"
       id="path11643-3-2-2"
       d="m 523.0002,43.99664 0,2 6,0 c 0.42816,0 1,0.61414 1,1 l 0,1 -5,0 c -0.91927,0 -1.7356,0.38396 -2.25,0.96875 -0.5144,0.58479 -0.75639,1.31063 -0.75,2.03125 0.006,0.72062 0.26893,1.45271 0.78125,2.03125 0.51232,0.57854 1.31047,0.96875 2.21875,0.96875 l 5,0 1,0 1,0 0,-1 0,-1 0,-5 c 9e-5,-1.63434 -1.3198,-3 -3,-3 l -6,0 z m 2,6 5,0 0,2 -5,0 c -0.39787,0 -0.56691,-0.10979 -0.71875,-0.28125 -0.15184,-0.17146 -0.27877,-0.43937 -0.28125,-0.71875 -0.002,-0.27938 0.10467,-0.55354 0.25,-0.71875 0.14533,-0.16521 0.32764,-0.28125 0.75,-0.28125 z" />
    <path
       style="fill:#bebebe;fill-opacity:1;stroke:none"
       id="path4484-2"
       d="M 533.00019,58.99665 537,55.99662 533.00018,52.99668 c 0,0 -1.8e-4,5.99994 -3e-5,6.00001 z" />
    <path
       style="color:#000000;font-style:normal;font-variant:normal;font-weight:normal;font-stretch:normal;line-height:normal;font-family:Sans;-inkscape-font-specification:Sans;text-indent:0;text-align:start;text-decoration:none;text-decoration-line:none;letter-spacing:normal;word-spacing:normal;text-transform:none;direction:ltr;block-progression:tb;writing-mode:lr-tb;baseline-shift:baseline;text-anchor:start;display:inline;overflow:visible;visibility:visible;fill:#bebebe;fill-opacity:1;stroke:none;stroke-width:2;marker:none;enable-background:accumulate"
       id="path4486-0"
       d="m 521.9375,54.99664 0,2 13.0625,0 0,-2 -13.0625,0 z" />
  </g>
</svg>
