<?xml version="1.0" encoding="UTF-8" standalone="no"?>
<svg
   xmlns:osb="http://www.openswatchbook.org/uri/2009/osb"
   xmlns:dc="http://purl.org/dc/elements/1.1/"
   xmlns:cc="http://creativecommons.org/ns#"
   xmlns:rdf="http://www.w3.org/1999/02/22-rdf-syntax-ns#"
   xmlns:svg="http://www.w3.org/2000/svg"
   xmlns="http://www.w3.org/2000/svg"
   width="16"
   version="1.1"
   style="enable-background:new"
   id="svg7384"
   height="16">
  <metadata
     id="metadata90">
    <rdf:RDF>
      <cc:Work
         rdf:about="">
        <dc:format>image/svg+xml</dc:format>
        <dc:type
           rdf:resource="http://purl.org/dc/dcmitype/StillImage" />
        <dc:title>Moka Symbolic Icon Theme</dc:title>
      </cc:Work>
    </rdf:RDF>
  </metadata>
  <title
     id="title8473">Moka Symbolic Icon Theme</title>
  <defs
     id="defs7386">
    <linearGradient
       osb:paint="solid"
       id="linearGradient5606">
      <stop
         style="stop-color:#000000;stop-opacity:1;"
         offset="0"
         id="stop5608" />
    </linearGradient>
    <filter
       style="color-interpolation-filters:sRGB"
       id="filter7554">
      <feBlend
         mode="darken"
         in2="BackgroundImage"
         id="feBlend7556" />
    </filter>
  </defs>
  <g
     transform="translate(-421.00061,-43.99666)"
     style="display:inline"
     id="layer9" />
  <g
     transform="translate(-421.00061,-43.99666)"
     style="display:inline;filter:url(#filter7554)"
     id="layer10" />
  <g
     transform="translate(-180.00041,-660.99666)"
     style="display:inline"
     id="layer1" />
  <g
     transform="translate(-421.00061,-43.99666)"
     style="display:inline"
     id="layer14" />
  <g
     transform="translate(-421.00061,-43.99666)"
     style="display:inline"
     id="layer15" />
  <g
     transform="translate(-421.00061,-43.99666)"
     style="display:inline"
     id="g71291" />
  <g
     transform="translate(-180.00041,-510.99666)"
     style="display:inline"
     id="layer2" />
  <g
     transform="translate(-180.00041,-510.99666)"
     style="display:inline"
     id="g6058" />
  <g
     transform="translate(-421.00061,-43.99666)"
     style="display:inline"
     id="layer12">
    <path
       style="fill:#bebebe;fill-opacity:1;stroke:none"
       id="path11643-3-2-6"
       d="m 425.0002,46.99664 0,2 6,0 c 0.42816,0 1,0.61414 1,1 l 2,0 c 0,-1.63434 -1.3198,-3 -3,-3 l -6,0 z m -1,7 c 0.006,0.72062 0.26893,1.45271 0.78125,2.03125 0.51232,0.57854 1.31047,0.96875 2.21875,0.96875 l 5,0 1,0 1,0 0,-0.84375 c 0.0156,-0.09375 0,-0.15625 0,-0.15625 l 0,-1 0,-1 -2,0 0,1 -5,0 c -0.39787,0 -0.56691,-0.10979 -0.71875,-0.28125 -0.15184,-0.17146 -0.27877,-0.43937 -0.28125,-0.71875 l -2,0 z" />
    <path
       style="color:#000000;font-style:normal;font-variant:normal;font-weight:normal;font-stretch:normal;line-height:normal;font-family:Sans;-inkscape-font-specification:Sans;text-indent:0;text-align:start;text-decoration:none;text-decoration-line:none;letter-spacing:normal;word-spacing:normal;text-transform:none;direction:ltr;block-progression:tb;writing-mode:lr-tb;baseline-shift:baseline;text-anchor:start;display:inline;overflow:visible;visibility:visible;fill:#bebebe;fill-opacity:1;stroke:none;stroke-width:2;marker:none;enable-background:accumulate"
       id="path5100-8"
       d="m 422.00041,50.99666 0,2 14,0 0,-2 -14,0 z" />
  </g>
</svg>
