<?xml version="1.0" encoding="UTF-8" standalone="no"?>
<svg
   xmlns:osb="http://www.openswatchbook.org/uri/2009/osb"
   xmlns:dc="http://purl.org/dc/elements/1.1/"
   xmlns:cc="http://creativecommons.org/ns#"
   xmlns:rdf="http://www.w3.org/1999/02/22-rdf-syntax-ns#"
   xmlns:svg="http://www.w3.org/2000/svg"
   xmlns="http://www.w3.org/2000/svg"
   width="16.000132"
   version="1.1"
   style="enable-background:new"
   id="svg7384"
   height="15.99995">
  <metadata
     id="metadata90">
    <rdf:RDF>
      <cc:Work
         rdf:about="">
        <dc:format>image/svg+xml</dc:format>
        <dc:type
           rdf:resource="http://purl.org/dc/dcmitype/StillImage" />
        <dc:title>Moka Symbolic Icon Theme</dc:title>
      </cc:Work>
    </rdf:RDF>
  </metadata>
  <title
     id="title8473">Moka Symbolic Icon Theme</title>
  <defs
     id="defs7386">
    <linearGradient
       osb:paint="solid"
       id="linearGradient5606">
      <stop
         style="stop-color:#000000;stop-opacity:1;"
         offset="0"
         id="stop5608" />
    </linearGradient>
    <filter
       style="color-interpolation-filters:sRGB"
       id="filter7554">
      <feBlend
         mode="darken"
         in2="BackgroundImage"
         id="feBlend7556" />
    </filter>
  </defs>
  <g
     transform="translate(-301.0002,-103.99664)"
     style="display:inline"
     id="layer9" />
  <g
     transform="translate(-301.0002,-103.99664)"
     style="display:inline;filter:url(#filter7554)"
     id="layer10" />
  <g
     transform="translate(-60,-720.99664)"
     style="display:inline"
     id="layer1" />
  <g
     transform="translate(-301.0002,-103.99664)"
     style="display:inline"
     id="layer14" />
  <g
     transform="translate(-301.0002,-103.99664)"
     style="display:inline"
     id="layer15" />
  <g
     transform="translate(-301.0002,-103.99664)"
     style="display:inline"
     id="g71291" />
  <g
     transform="translate(-60,-570.99664)"
     style="display:inline"
     id="layer2" />
  <g
     transform="translate(-60,-570.99664)"
     style="display:inline"
     id="g6058" />
  <g
     transform="translate(-301.0002,-103.99664)"
     style="display:inline"
     id="layer12">
    <rect
       y="103.99672"
       x="301.00021"
       width="16.000132"
       style="color:#bebebe;display:inline;overflow:visible;visibility:visible;fill:none;stroke:none;stroke-width:1;marker:none"
       id="rect15253"
       height="15.999869" />
    <path
       style="fill:#bebebe;fill-opacity:1;stroke:none"
       id="path15265"
       d="m 306.00006,115.99664 3.00025,3.99995 2.99975,-3.99995 z" />
    <path
       style="color:#000000;display:inline;overflow:visible;visibility:visible;fill:#bebebe;fill-opacity:1;fill-rule:nonzero;stroke:none;stroke-width:6;marker:none;enable-background:accumulate"
       id="path5157"
       d="m 309.0002,103.99664 c -2.76142,0 -5,2.23858 -5,5 0,2.76142 2.23858,5 5,5 2.76142,0 5,-2.23858 5,-5 0,-2.76142 -2.23858,-5 -5,-5 z m 0,1 c 2.20914,0 4,1.79086 4,4 0,2.20914 -1.79086,4 -4,4 -2.20914,0 -4,-1.79086 -4,-4 0,-2.20914 1.79086,-4 4,-4 z" />
  </g>
</svg>
