<?xml version="1.0" encoding="UTF-8" standalone="no"?>
<svg
   xmlns:osb="http://www.openswatchbook.org/uri/2009/osb"
   xmlns:dc="http://purl.org/dc/elements/1.1/"
   xmlns:cc="http://creativecommons.org/ns#"
   xmlns:rdf="http://www.w3.org/1999/02/22-rdf-syntax-ns#"
   xmlns:svg="http://www.w3.org/2000/svg"
   xmlns="http://www.w3.org/2000/svg"
   width="15.982021"
   version="1.1"
   style="enable-background:new"
   id="svg7384"
   height="16.000015">
  <metadata
     id="metadata90">
    <rdf:RDF>
      <cc:Work
         rdf:about="">
        <dc:format>image/svg+xml</dc:format>
        <dc:type
           rdf:resource="http://purl.org/dc/dcmitype/StillImage" />
        <dc:title>Moka Symbolic Icon Theme</dc:title>
      </cc:Work>
    </rdf:RDF>
  </metadata>
  <title
     id="title8473">Moka Symbolic Icon Theme</title>
  <defs
     id="defs7386">
    <linearGradient
       osb:paint="solid"
       id="linearGradient5606">
      <stop
         style="stop-color:#000000;stop-opacity:1;"
         offset="0"
         id="stop5608" />
    </linearGradient>
    <filter
       style="color-interpolation-filters:sRGB"
       id="filter7554">
      <feBlend
         mode="darken"
         in2="BackgroundImage"
         id="feBlend7556" />
    </filter>
  </defs>
  <g
     transform="translate(-462.0002,-22.996641)"
     style="display:inline"
     id="layer9" />
  <g
     transform="translate(-462.0002,-22.996641)"
     style="display:inline;filter:url(#filter7554)"
     id="layer10" />
  <g
     transform="translate(-221,-639.99664)"
     style="display:inline"
     id="layer1" />
  <g
     transform="translate(-462.0002,-22.996641)"
     style="display:inline"
     id="layer14" />
  <g
     transform="translate(-462.0002,-22.996641)"
     style="display:inline"
     id="layer15" />
  <g
     transform="translate(-462.0002,-22.996641)"
     style="display:inline"
     id="g71291" />
  <g
     transform="translate(-221,-489.99664)"
     style="display:inline"
     id="layer2" />
  <g
     transform="translate(-221,-489.99664)"
     style="display:inline"
     id="g6058" />
  <g
     transform="translate(-462.0002,-22.996641)"
     style="display:inline"
     id="layer12">
    <path
       style="display:inline;fill:#bebebe;fill-opacity:1;stroke:none"
       id="path9296"
       d="m 462.0002,22.99664 0,2 c 0.55228,0 1,0.44772 1,1 0,0.55228 -0.44772,1 -1,1 l 0,1 c 0.55229,0 1,0.44772 1,1 0,0.55228 -0.44771,1 -1,1 l 0,1 c 0.55228,0 1,0.44772 1,1 0,0.55228 -0.44772,1 -1,1 l 0,1 c 0.55228,0 1,0.44772 1,1 0,0.55228 -0.44772,1 -1,1 l 0,2 2,0 c 0,-0.55228 0.44772,-1 1,-1 0.55228,0 1,0.44772 1,1 l 1,0 c 0,-0.55228 0.44772,-1 1,-1 0.55228,0 1,0.44772 1,1 l 1,0 c 0,-0.55228 0.44772,-1 1,-1 0.55229,0 1,0.44772 1,1 l 1,0 c 0,-0.55228 0.44771,-1 1,-1 0.55229,0 1,0.44772 1,1 l 2,0 0,-2 c -0.55229,0 -1,-0.44772 -1,-1 0,-0.55228 0.44771,-1 1,-1 l 0,-1 c -0.55229,0 -1,-0.44772 -1,-1 0,-0.55228 0.44771,-1 1,-1 l 0,-1 c -0.55229,0 -1,-0.44772 -1,-1 0,-0.55228 0.44771,-1 1,-1 l 0,-1 c -0.55229,0 -1,-0.44772 -1,-1 0,-0.55228 0.44771,-1 1,-1 l 0,-2 -2,0 c 0,0.55228 -0.44771,1 -1,1 -0.55229,0 -1,-0.44772 -1,-1 l -1,0 c 0,0.55228 -0.44771,1 -1,1 -0.55228,0 -1,-0.44772 -1,-1 l -1,0 c 0,0.55228 -0.44772,1 -1,1 -0.55228,0 -1,-0.44772 -1,-1 l -1,0 c 0,0.55228 -0.44772,1 -1,1 -0.55228,0 -1,-0.44772 -1,-1 l -2,0 z m 2,2 11,0 0,11 -1.5,0 c 0,-1.23945 -0.19074,-2.35208 -0.78125,-3.1875 -0.048,-0.0852 -0.0986,-0.17154 -0.15625,-0.25 -0.0195,-0.0227 -0.0422,-0.0403 -0.0625,-0.0625 -0.0999,-0.1266 -0.22226,-0.20834 -0.34375,-0.3125 -0.15198,-0.1303 -0.32321,-0.25565 -0.5,-0.34375 -0.12335,-0.0615 -0.24366,-0.11859 -0.375,-0.15625 -0.49379,0.47964 -1.07039,0.6875 -1.78125,0.6875 -0.71086,0 -1.28746,-0.20786 -1.78125,-0.6875 -0.11157,0.0402 -0.22867,0.0985 -0.34375,0.15625 -0.009,0.004 -0.0226,-0.004 -0.0312,0 -0.0348,0.018 -0.0602,0.0436 -0.0937,0.0625 -0.25438,0.14299 -0.5108,0.32554 -0.71875,0.5625 -0.031,0.0329 -0.0645,0.0597 -0.0937,0.0937 -0.0389,0.0501 -0.0588,0.10222 -0.0937,0.15625 -0.64273,0.84346 -0.84395,1.99817 -0.84395,3.2813 l -1.5,0 0,-11 z" />
    <circle
       style="color:#bebebe;display:inline;overflow:visible;visibility:visible;fill:#bebebe;fill-opacity:1;fill-rule:nonzero;stroke:none;stroke-width:2;marker:none;enable-background:accumulate"
       r="2.307687"
       id="path9298"
       cy="29.304323"
       cx="469.50018" />
    <rect
       y="22.996656"
       x="462.0004"
       width="15.981825"
       style="fill:none;stroke:none"
       ry="0"
       rx="0"
       id="rect4943"
       height="16" />
  </g>
</svg>
