<?xml version='1.0' encoding='UTF-8' standalone='no'?>
<svg height="16" xmlns:inkscape="http://www.inkscape.org/namespaces/inkscape" xmlns:sodipodi="http://sodipodi.sourceforge.net/DTD/sodipodi-0.dtd" version="1.1" width="15.982" xmlns="http://www.w3.org/2000/svg" enable-background="new">
 <metadata id="metadata90"/>
 <defs id="defs7386">
  <linearGradient id="linearGradient5606" osb:paint="solid">
   <stop id="stop5608"/>
  </linearGradient>
  <filter inkscape:collect="always" color-interpolation-filters="sRGB" id="filter7554">
   <feBlend inkscape:collect="always" id="feBlend7556" in2="BackgroundImage" mode="darken"/>
  </filter>
 </defs>
 <g inkscape:groupmode="layer" id="layer12" inkscape:label="actions" transform="translate(-462.0002,-88)">
  <path inkscape:connector-curvature="0" d="m 462.0002,88 0,2 c 0.55228,0 1,0.44772 1,1 0,0.55228 -0.44772,1 -1,1 l 0,1 c 0.55229,0 1,0.44772 1,1 0,0.55228 -0.44771,1 -1,1 l 0,1 c 0.55228,0 1,0.44772 1,1 0,0.55228 -0.44772,1 -1,1 l 0,1 c 0.55228,0 1,0.44772 1,1 0,0.55228 -0.44772,1 -1,1 l 0,2 2,0 c 0,-0.55228 0.44772,-1 1,-1 0.55228,0 1,0.44772 1,1 l 1,0 c 0,-0.55228 0.44772,-1 1,-1 0.55228,0 1,0.44772 1,1 l 1,0 c 0,-0.55228 0.44772,-1 1,-1 0.55229,0 1,0.44772 1,1 l 1,0 c 0,-0.55228 0.44771,-1 1,-1 0.55229,0 1,0.44772 1,1 l 2,0 0,-2 c -0.55229,0 -1,-0.44772 -1,-1 0,-0.55228 0.44771,-1 1,-1 l 0,-1 c -0.55229,0 -1,-0.44772 -1,-1 0,-0.55228 0.44771,-1 1,-1 l 0,-1 c -0.55229,0 -1,-0.44772 -1,-1 0,-0.55228 0.44771,-1 1,-1 l 0,-1 c -0.55229,0 -1,-0.44772 -1,-1 0,-0.55228 0.44771,-1 1,-1 l 0,-2 -2,0 c 0,0.55228 -0.44771,1 -1,1 -0.55229,0 -1,-0.44772 -1,-1 l -1,0 c 0,0.55228 -0.44771,1 -1,1 -0.55228,0 -1,-0.44772 -1,-1 l -1,0 c 0,0.55228 -0.44772,1 -1,1 -0.55228,0 -1,-0.44772 -1,-1 l -1,0 c 0,0.55228 -0.44772,1 -1,1 -0.55228,0 -1,-0.44772 -1,-1 l -2,0 z m 2,2 11,0 0,11 -1.5,0 c 0,-1.23945 -0.19074,-2.35208 -0.78125,-3.1875 -0.048,-0.0852 -0.0986,-0.17154 -0.15625,-0.25 -0.0195,-0.0227 -0.0422,-0.0403 -0.0625,-0.0625 -0.0999,-0.1266 -0.22226,-0.20834 -0.34375,-0.3125 -0.15198,-0.1303 -0.32321,-0.25565 -0.5,-0.34375 -0.12335,-0.0615 -0.24366,-0.11859 -0.375,-0.15625 -0.49379,0.47964 -1.07039,0.6875 -1.78125,0.6875 -0.71086,0 -1.28746,-0.20786 -1.78125,-0.6875 -0.11157,0.0402 -0.22867,0.0985 -0.34375,0.15625 -0.009,0.004 -0.0226,-0.004 -0.0312,0 -0.0348,0.018 -0.0602,0.0436 -0.0937,0.0625 -0.25438,0.14299 -0.5108,0.32554 -0.71875,0.5625 -0.031,0.0329 -0.0645,0.0597 -0.0937,0.0937 -0.0389,0.0501 -0.0588,0.10222 -0.0937,0.15625 -0.64273,0.84346 -0.84395,1.99817 -0.84395,3.2813 l -1.5,0 0,-11 z" id="path9296" fill="#bebebe"/>
  <path sodipodi:cx="49.5" sodipodi:cy="342.5" d="m 52,342.5 a 2.5,2.5 0 1 1 -5,0 2.5,2.5 0 1 1 5,0 z" id="path9298" sodipodi:rx="2.5" sodipodi:ry="2.5" transform="matrix(0.92307481,0,0,0.92307481,423.80799,-221.84544)" sodipodi:type="arc" fill="#bebebe" color="#bebebe" stroke-width="2"/>
 </g>
</svg>
