<?xml version='1.0' encoding='UTF-8' standalone='no'?>
<svg height="16" xmlns:inkscape="http://www.inkscape.org/namespaces/inkscape" xmlns:sodipodi="http://sodipodi.sourceforge.net/DTD/sodipodi-0.dtd" version="1.1" width="16" xmlns="http://www.w3.org/2000/svg" enable-background="new">
 <metadata id="metadata90"/>
 <defs id="defs7386">
  <linearGradient id="linearGradient5606" osb:paint="solid">
   <stop id="stop5608"/>
  </linearGradient>
  <filter inkscape:collect="always" color-interpolation-filters="sRGB" id="filter7554">
   <feBlend inkscape:collect="always" id="feBlend7556" in2="BackgroundImage" mode="darken"/>
  </filter>
 </defs>
 <g inkscape:groupmode="layer" id="layer12" inkscape:label="actions" transform="translate(-302.0002,-150)">
  <rect height="15" id="rect6315" width="1" x="305" y="151" fill="#bebebe" color="#000000" stroke-width="2" rx="0"/>
  <path inkscape:connector-curvature="0" d="M 314.65645,150.84375 C 311.83174,150.56445 311.0627,155.25 307.0002,152 l 0,8 c 5,4 5,-4 10,0 l 0,-8 c -0.9375,-0.75 -1.69189,-1.0918 -2.34375,-1.15625 z m -0.46875,1.03125 c 0.39006,-0.0624 0.96097,0.0947 1.8125,0.6875 l 0,5.6875 c -0.7477,-0.31934 -1.47493,-0.47901 -2.125,-0.375 -1.10988,0.17758 -1.875,0.84375 -2.5,1.34375 -0.625,0.5 -1.10988,0.83383 -1.5625,0.90625 -0.39006,0.0624 -0.96097,-0.0947 -1.8125,-0.6875 l 0,-5.6875 c 0.7477,0.31934 1.47493,0.47901 2.125,0.375 1.10988,-0.17758 1.875,-0.84375 2.5,-1.34375 0.625,-0.5 1.10988,-0.83383 1.5625,-0.90625 z" id="rect6317" fill="#bebebe" color="#000000" stroke-width="2"/>
 </g>
</svg>
