<?xml version='1.0' encoding='UTF-8' standalone='no'?>
<svg height="16" xmlns:inkscape="http://www.inkscape.org/namespaces/inkscape" xmlns:sodipodi="http://sodipodi.sourceforge.net/DTD/sodipodi-0.dtd" version="1.1" width="16" xmlns="http://www.w3.org/2000/svg" enable-background="new">
 <metadata id="metadata90"/>
 <defs id="defs7386">
  <linearGradient id="linearGradient5606" osb:paint="solid">
   <stop id="stop5608"/>
  </linearGradient>
  <filter inkscape:collect="always" color-interpolation-filters="sRGB" id="filter7554">
   <feBlend inkscape:collect="always" id="feBlend7556" in2="BackgroundImage" mode="darken"/>
  </filter>
 </defs>
 <g inkscape:groupmode="layer" id="layer12" inkscape:label="actions" transform="translate(-381.00035,-89.000002)">
  <path inkscape:connector-curvature="0" d="m 389.0002,89 c -2.76142,0 -5,2.23858 -5,5 0,0.17259 0.0142,0.33191 0.0312,0.5 0.0137,0.16725 0.0358,0.33617 0.0625,0.5 0.57248,3.51444 3.99064,6.25316 4.90625,9 0.91561,-2.74684 4.33377,-5.48556 4.90625,-9 0.0267,-0.16383 0.0488,-0.33275 0.0625,-0.5 0.0171,-0.16809 0.0312,-0.32741 0.0312,-0.5 0,-2.76142 -2.23858,-5 -5,-5 z m 0,3 c 1.10457,0 2,0.89543 2,2 0,1.10457 -0.89543,2 -2,2 -1.10457,0 -2,-0.89543 -2,-2 0,-1.10457 0.89543,-2 2,-2 z" id="path5874" fill="#bebebe" color="#000000" stroke-width="2"/>
 </g>
</svg>
