<?xml version='1.0' encoding='UTF-8' standalone='no'?>
<svg height="16" xmlns:inkscape="http://www.inkscape.org/namespaces/inkscape" xmlns:sodipodi="http://sodipodi.sourceforge.net/DTD/sodipodi-0.dtd" version="1.1" width="16" xmlns="http://www.w3.org/2000/svg" enable-background="new">
 <metadata id="metadata90"/>
 <defs id="defs7386">
  <linearGradient id="linearGradient5606" osb:paint="solid">
   <stop id="stop5608"/>
  </linearGradient>
  <filter inkscape:collect="always" color-interpolation-filters="sRGB" id="filter7554">
   <feBlend inkscape:collect="always" id="feBlend7556" in2="BackgroundImage" mode="darken"/>
  </filter>
 </defs>
 <g inkscape:groupmode="layer" id="layer12" inkscape:label="actions" transform="translate(-261.00019,-123.99664)">
  <path inkscape:connector-curvature="0" d="m 268.0002,125.5 -6.46875,4.5 6.46875,4.5 0,-2.5 2,0 c 1.36491,0 2.5716,0.87335 2.9375,2 0.43763,1.34754 -1.4375,4 -1.4375,4 0,0 4,-1.5 4,-4.75 0,-3.12352 -2,-5.25 -5,-5.25 l -2.5,0 0,-2.5 z m -1,1.90625 0,0.59375 0,1 1,0 2.5,0 c 1.26372,0 2.22648,0.43992 2.90625,1.15625 0.67977,0.71633 1.09375,1.74542 1.09375,3.09375 0,0.67126 -0.24294,1.22048 -0.59375,1.71875 0.0582,-0.41517 0.11806,-0.82135 -0.0312,-1.28125 C 273.35663,132.09093 271.79168,131 270.0002,131 l -2,0 -1,0 0,1 0,0.59375 -3.75,-2.59375 3.75,-2.59375 z" id="path4400-3" color="#bebebe" stroke-width="0" fill="#bebebe"/>
 </g>
</svg>
