<?xml version='1.0' encoding='UTF-8' standalone='no'?>
<svg height="16" xmlns:inkscape="http://www.inkscape.org/namespaces/inkscape" xmlns:sodipodi="http://sodipodi.sourceforge.net/DTD/sodipodi-0.dtd" version="1.1" width="16" xmlns="http://www.w3.org/2000/svg" enable-background="new">
 <metadata id="metadata90"/>
 <defs id="defs7386">
  <linearGradient id="linearGradient5606" osb:paint="solid">
   <stop id="stop5608"/>
  </linearGradient>
  <filter inkscape:collect="always" color-interpolation-filters="sRGB" id="filter7554">
   <feBlend inkscape:collect="always" id="feBlend7556" in2="BackgroundImage" mode="darken"/>
  </filter>
 </defs>
 <g inkscape:groupmode="layer" id="layer12" inkscape:label="actions" transform="translate(-321.0002,-123.99664)">
  <path inkscape:connector-curvature="0" d="m 330.49985,125.49664 6.4707,4.5 -6.4707,4.5 0,-1.04297 4.9707,-3.45703 -4.9707,-3.45703 z" id="path4446" sodipodi:nodetypes="ccccccc" color="#bebebe" stroke-width="0" fill="#bebebe"/>
  <path inkscape:connector-curvature="0" d="m 327.0002,125.5 0,2.5 -1,0 c -3,0 -5,2.12648 -5,5.25 0,3.25 4,4.75 4,4.75 0,0 -1.87513,-2.65246 -1.4375,-4 0.36589,-1.12665 1.57259,-2 2.9375,-2 l 0.5,0 0,2.5 6.46875,-4.5 -6.46875,-4.5 z m 1,1.90625 3.75,2.59375 -3.75,2.59375 0,-0.59375 0,-1 -1,0 -0.5,0 c -1.79148,0 -3.35644,1.09092 -3.875,2.6875 -0.14931,0.4599 -0.0894,0.86608 -0.0312,1.28125 -0.35081,-0.49827 -0.59375,-1.04749 -0.59375,-1.71875 0,-1.34833 0.41398,-2.37742 1.09375,-3.09375 C 323.77372,129.43992 324.73648,129 326.0002,129 l 1,0 1,0 0,-1 0,-0.59375 z" id="path4448" color="#bebebe" stroke-width="0" fill="#bebebe"/>
 </g>
</svg>
