<?xml version="1.0" encoding="UTF-8" standalone="no"?>
<svg
   xmlns:osb="http://www.openswatchbook.org/uri/2009/osb"
   xmlns:dc="http://purl.org/dc/elements/1.1/"
   xmlns:cc="http://creativecommons.org/ns#"
   xmlns:rdf="http://www.w3.org/1999/02/22-rdf-syntax-ns#"
   xmlns:svg="http://www.w3.org/2000/svg"
   xmlns="http://www.w3.org/2000/svg"
   width="16.000196"
   version="1.1"
   style="enable-background:new"
   id="svg7384"
   height="16">
  <metadata
     id="metadata90">
    <rdf:RDF>
      <cc:Work
         rdf:about="">
        <dc:format>image/svg+xml</dc:format>
        <dc:type
           rdf:resource="http://purl.org/dc/dcmitype/StillImage" />
        <dc:title>Moka Symbolic Icon Theme</dc:title>
      </cc:Work>
    </rdf:RDF>
  </metadata>
  <title
     id="title8473">Moka Symbolic Icon Theme</title>
  <defs
     id="defs7386">
    <linearGradient
       osb:paint="solid"
       id="linearGradient5606">
      <stop
         style="stop-color:#000000;stop-opacity:1;"
         offset="0"
         id="stop5608" />
    </linearGradient>
    <filter
       style="color-interpolation-filters:sRGB"
       id="filter7554">
      <feBlend
         mode="darken"
         in2="BackgroundImage"
         id="feBlend7556" />
    </filter>
  </defs>
  <g
     transform="translate(-341.0002,-23.996641)"
     style="display:inline"
     id="layer9" />
  <g
     transform="translate(-341.0002,-23.996641)"
     style="display:inline;filter:url(#filter7554)"
     id="layer10" />
  <g
     transform="translate(-100,-640.99664)"
     style="display:inline"
     id="layer1" />
  <g
     transform="translate(-341.0002,-23.996641)"
     style="display:inline"
     id="layer14" />
  <g
     transform="translate(-341.0002,-23.996641)"
     style="display:inline"
     id="layer15" />
  <g
     transform="translate(-341.0002,-23.996641)"
     style="display:inline"
     id="g71291" />
  <g
     transform="translate(-100,-490.99664)"
     style="display:inline"
     id="layer2" />
  <g
     transform="translate(-100,-490.99664)"
     style="display:inline"
     id="g6058" />
  <g
     transform="translate(-341.0002,-23.996641)"
     style="display:inline"
     id="layer12">
    <rect
       y="23.996641"
       x="341.0004"
       width="15.999999"
       style="fill:none;stroke:none"
       ry="0"
       rx="0"
       id="rect3620-5-49"
       height="16" />
    <path
       style="fill:#bebebe;fill-opacity:1;stroke:none"
       id="path3027-5"
       d="m 341.0002,33.99663 0,3 9,0 0,-1.999989 2,0 0,-2 3,0 0,-4.000011 c 0,0 0,-2 -2,-2 l -8,0 c 0,0 -2,0 -2,2 l 0,4 c 0,1 -1,1 -1,1 z m 12,1.1e-5 0,2 -2,0 0,2 2,0 0,2 2,0 0,-2 2,0 0,-2 -2,0 0,-2 z" />
  </g>
</svg>
