<?xml version="1.0" encoding="UTF-8" standalone="no"?>
<svg
   xmlns:osb="http://www.openswatchbook.org/uri/2009/osb"
   xmlns:dc="http://purl.org/dc/elements/1.1/"
   xmlns:cc="http://creativecommons.org/ns#"
   xmlns:rdf="http://www.w3.org/1999/02/22-rdf-syntax-ns#"
   xmlns:svg="http://www.w3.org/2000/svg"
   xmlns="http://www.w3.org/2000/svg"
   width="15.981825"
   version="1.1"
   style="enable-background:new"
   id="svg7384"
   height="16">
  <metadata
     id="metadata90">
    <rdf:RDF>
      <cc:Work
         rdf:about="">
        <dc:format>image/svg+xml</dc:format>
        <dc:type
           rdf:resource="http://purl.org/dc/dcmitype/StillImage" />
        <dc:title>Moka Symbolic Icon Theme</dc:title>
      </cc:Work>
    </rdf:RDF>
  </metadata>
  <title
     id="title8473">Moka Symbolic Icon Theme</title>
  <defs
     id="defs7386">
    <linearGradient
       osb:paint="solid"
       id="linearGradient5606">
      <stop
         style="stop-color:#000000;stop-opacity:1;"
         offset="0"
         id="stop5608" />
    </linearGradient>
    <filter
       style="color-interpolation-filters:sRGB"
       id="filter7554">
      <feBlend
         mode="darken"
         in2="BackgroundImage"
         id="feBlend7556" />
    </filter>
  </defs>
  <g
     transform="translate(-381.00038,-3.99666)"
     style="display:inline"
     id="layer9" />
  <g
     transform="translate(-381.00038,-3.99666)"
     style="display:inline;filter:url(#filter7554)"
     id="layer10" />
  <g
     transform="translate(-140.00018,-620.99666)"
     style="display:inline"
     id="layer1" />
  <g
     transform="translate(-381.00038,-3.99666)"
     style="display:inline"
     id="layer14" />
  <g
     transform="translate(-381.00038,-3.99666)"
     style="display:inline"
     id="layer15" />
  <g
     transform="translate(-381.00038,-3.99666)"
     style="display:inline"
     id="g71291" />
  <g
     transform="translate(-140.00018,-470.99666)"
     style="display:inline"
     id="layer2" />
  <g
     transform="translate(-140.00018,-470.99666)"
     style="display:inline"
     id="g6058" />
  <g
     transform="translate(-381.00038,-3.99666)"
     style="display:inline"
     id="layer12">
    <path
       style="color:#bebebe;fill:#bebebe;stroke:none"
       id="path5311"
       d="m 384.1877,5.99664 c -0.6627,0 -1.1875,0.54894 -1.1875,1.21875 l 0,9.5625 c 0,0.66976 0.5248,1.21875 1.1875,1.21875 l 9.625,0 c 0.6627,0 1.1875,-0.54894 1.1875,-1.21875 l 0,-9.5625 c 0,-0.66976 -0.5248,-1.21875 -1.1875,-1.21875 l -9.625,0 z m 0.8125,2 3,0 0,2 -1,0 0,1 -2,0 0,-3 z m 5,0 3,0 0,3 -2,0 0,-1 -1,0 0,-2 z m -5,5 2,0 0,1 1,0 0,2 -3,0 0,-3 z m 6,0 2,0 0,3 -3,0 0,-2 1,0 0,-1 z" />
    <rect
       y="3.99666"
       x="381.0004"
       width="15.981825"
       style="fill:none;stroke:none"
       ry="0"
       rx="0"
       id="rect6531"
       height="16" />
  </g>
</svg>
