<?xml version="1.0" encoding="UTF-8" standalone="no"?>
<svg xmlns="http://www.w3.org/2000/svg" xmlns:sodipodi="http://sodipodi.sourceforge.net/DTD/sodipodi-0.dtd" xmlns:inkscape="http://www.inkscape.org/namespaces/inkscape" height="22" version="1.1" width="22" enable-background="new">
 <metadata id="metadata90"/>
 <defs id="defs7386">
  <linearGradient id="linearGradient5606" osb:paint="solid">
   <stop id="stop5608"/>
  </linearGradient>
  <filter inkscape:collect="always" color-interpolation-filters="sRGB" id="filter7554">
   <feBlend inkscape:collect="always" id="feBlend7556" in2="BackgroundImage" mode="darken"/>
  </filter>
 </defs>
 <g inkscape:groupmode="layer" id="layer9" inkscape:label="status" transform="translate(-257.00019,351)">
  <path sodipodi:nodetypes="cccccccccccc" inkscape:connector-curvature="0" id="path3015" d="m 272.0002,-341 0,5 0.25,2 1.5,0 0.25,-2 0,-5 z m 0,8 0,2 2,0 0,-2 z" opacity="0.2"/>
  <rect id="rect3807" width="6" height="8" x="8" y="8" transform="translate(257.00019,-351)" stroke-dashoffset="16" opacity="0.35" color="#000000" stroke-linecap="square" fill="#e13f2b" rx="0"/>
  <path d="m 9,5 0,1 4,0 0,-1 z M 6.84375,7 C 6.5625,7.0469 6,7.25 6,8 l 0,10 c 0,1 1,1 1,1 l 7,0 0,-1 -7,0 0,-10 8,0 0,1 1,0 0,-1 C 16,8 16,7 15,7 L 7,7 C 7,7 6.9375,6.9844 6.84375,7 z" transform="translate(257.00019,-351)" id="path3765" inkscape:connector-curvature="0" sodipodi:nodetypes="ccccccsscccccccccscc" opacity="0.2"/>
  <path d="M 9 4 L 9 5 L 13 5 L 13 4 L 9 4 z M 6.84375 6 C 6.5625 6.0469 6 6.25 6 7 L 6 17 C 6 18 7 18 7 18 L 14 18 L 14 17 L 7 17 L 7 7 L 15 7 L 15 8 L 16 8 L 16 7 C 16 7 16 6 15 6 L 7 6 C 7 6 6.9375 5.9844 6.84375 6 z " transform="translate(257.00019,-351)" id="rect2388-2-2-5" fill="#e13f2b"/>
  <path d="m 272.0002,-342 0,5 0.25,2 1.5,0 0.25,-2 0,-5 z m 0,8 0,2 2,0 0,-2 z" id="path7562" inkscape:connector-curvature="0" sodipodi:nodetypes="cccccccccccc" fill="#e13f2b"/>
 </g>
</svg>
