<?xml version="1.0" encoding="UTF-8" standalone="no"?>
<svg xmlns="http://www.w3.org/2000/svg" xmlns:sodipodi="http://sodipodi.sourceforge.net/DTD/sodipodi-0.dtd" xmlns:inkscape="http://www.inkscape.org/namespaces/inkscape" height="22" version="1.1" width="22" enable-background="new">
 <metadata id="metadata90"/>
 <defs id="defs7386">
  <linearGradient id="linearGradient5606" osb:paint="solid">
   <stop id="stop5608"/>
  </linearGradient>
  <filter inkscape:collect="always" color-interpolation-filters="sRGB" id="filter7554">
   <feBlend inkscape:collect="always" id="feBlend7556" in2="BackgroundImage" mode="darken"/>
  </filter>
 </defs>
 <g inkscape:groupmode="layer" id="layer9" inkscape:label="status" transform="translate(-257.00019,351)">
  <path id="path3830" d="m 267.65644,-345.99971 a 0.750075,0.750075 0 0 0 -0.0937,0.0312 l -0.5625,0 0,0.5 0,0.125 a 0.750075,0.750075 0 0 0 0,0.21875 l 0,4.78125 -1.78125,-1.46875 a 0.750075,0.750075 0 0 0 -0.5625,-0.1875 0.750075,0.750075 0 0 0 -0.15625,0.0312 l -0.5,0 0,0.53125 a 0.750075,0.750075 0 0 0 0,0.21875 0.750075,0.750075 0 0 0 0.28125,0.5625 l 2.03125,1.65625 -2.03125,1.6875 a 0.750075,0.750075 0 0 0 -0.28125,1 l 0,0.34375 0.46875,0 a 0.750075,0.750075 0 0 0 0.75,-0.1875 l 1.78125,-1.46875 0,4.625 a 0.750075,0.750075 0 0 0 0,0.71875 l 0,0.3125 0.34375,0 a 0.750075,0.750075 0 0 0 0.90625,-0.21875 l 3.5,-3.25 a 0.750075,0.750075 0 0 0 -0.0312,-1.125 l -3.03125,-2.4375 3.03125,-2.40625 a 0.750075,0.750075 0 0 0 0.0312,-1.125 l -3.5,-3.25 a 0.750075,0.750075 0 0 0 -0.53125,-0.21875 0.750075,0.750075 0 0 0 -0.0625,0 z m 0.34375,2 2.125,1.96875 -2.125,1.6875 0,-3.65625 z m 0,6.375 2.125,1.6875 -2.125,1.96875 0,-3.65625 z" inkscape:connector-curvature="0" opacity="0.2" color="#bebebe" stroke-width="2"/>
  <path d="M 10.65625 4 A 0.750075 0.750075 0 0 0 10.5625 4.03125 L 10 4.03125 L 10 4.53125 L 10 4.65625 A 0.750075 0.750075 0 0 0 10 4.875 L 10 9.65625 L 8.21875 8.1875 A 0.750075 0.750075 0 0 0 7.65625 8 A 0.750075 0.750075 0 0 0 7.5 8.03125 L 7 8.03125 L 7 8.5625 A 0.750075 0.750075 0 0 0 7 8.78125 A 0.750075 0.750075 0 0 0 7.28125 9.34375 L 9.3125 11 L 7.28125 12.6875 A 0.750075 0.750075 0 0 0 7 13.6875 L 7 14.03125 L 7.46875 14.03125 A 0.750075 0.750075 0 0 0 8.21875 13.84375 L 10 12.375 L 10 17 A 0.750075 0.750075 0 0 0 10 17.71875 L 10 18.03125 L 10.34375 18.03125 A 0.750075 0.750075 0 0 0 11.25 17.8125 L 14.75 14.5625 A 0.750075 0.750075 0 0 0 14.71875 13.4375 L 11.6875 11 L 14.71875 8.59375 A 0.750075 0.750075 0 0 0 14.75 7.46875 L 11.25 4.21875 A 0.750075 0.750075 0 0 0 10.71875 4 A 0.750075 0.750075 0 0 0 10.65625 4 z M 11 6 L 13.125 7.96875 L 11 9.65625 L 11 6 z M 11 12.375 L 13.125 14.0625 L 11 16.03125 L 11 12.375 z " transform="translate(257.00019,-351)" id="rect8730" fill="#ffffff" color="#bebebe" stroke-width="2"/>
 </g>
</svg>
