<?xml version="1.0" encoding="UTF-8" standalone="no"?>
<svg xmlns="http://www.w3.org/2000/svg" xmlns:sodipodi="http://sodipodi.sourceforge.net/DTD/sodipodi-0.dtd" xmlns:inkscape="http://www.inkscape.org/namespaces/inkscape" width="22" height="22" version="1.1">
 <metadata id="metadata3401"/>
 <g id="layer1" inkscape:label="Layer 1" inkscape:groupmode="layer" transform="translate(0,6)">
  <g transform="translate(-509,-270.00002)" id="g3882" opacity="0.2" enable-background="new">
   <path inkscape:connector-curvature="0" id="path3884" d="m 517,270 c -1.662,0 -3,1.338 -3,3 l 0,6 c 0,1.662 1.338,3 3,3 l 6,0 c 1.662,0 3,-1.338 3,-3 l 0,-6 c 0,-1.662 -1.338,-3 -3,-3 l -6,0 z m 0,2 6,0 c 0.554,0 1,0.446 1,1 l 0,6 c 0,0.554 -0.446,1 -1,1 l -6,0 c -0.554,0 -1,-0.446 -1,-1 l 0,-6 c 0,-0.554 0.446,-1 1,-1 z" color="#000000" stroke-width="2"/>
   <rect id="rect3886" width="6" height="6" x="517" y="273" color="#000000" stroke-width="2" rx="0"/>
   <path sodipodi:nodetypes="sscscsssssccssssscscssscsssscsccscssssccsssscc" inkscape:connector-curvature="0" id="path3888" d="m 516.5,267.00002 c -0.277,0 -0.5,0.223 -0.5,0.5 l 0,1.65623 C 516.31943,269.07329 516.65568,269 517,269 l 1,0 0,-1.49998 c 0,-0.277 -0.223,-0.5 -0.5,-0.5 z m 3,0 c -0.277,0 -0.5,0.223 -0.5,0.5 l 0,1.49998 2,0 0,-1.49998 c 0,-0.277 -0.223,-0.5 -0.5,-0.5 z m 3,0 c -0.277,0 -0.5,0.223 -0.5,0.5 l 0,1.49998 1,0 c 0.34432,0 0.68057,0.0733 1,0.15625 l 0,-1.65623 c 0,-0.277 -0.223,-0.5 -0.5,-0.5 z m -6.5,15.84373 0,1.65627 c 0,0.27699 0.223,0.5 0.5,0.5 l 1,0 c 0.277,0 0.5,-0.22301 0.5,-0.5 L 518,283 l -1,0 c -0.34432,0 -0.68057,-0.0733 -1,-0.15625 z m 8,0 C 523.68057,282.92671 523.34432,283 523,283 l -1,0 0,1.50002 c 0,0.27699 0.223,0.5 0.5,0.5 l 1,0 c 0.277,0 0.5,-0.22301 0.5,-0.5 z M 519,283 l 0,1.50002 c 0,0.27699 0.223,0.5 0.5,0.5 l 1,0 c 0.277,0 0.5,-0.22301 0.5,-0.5 L 521,283 z" color="#000000" stroke-width="2"/>
   <path sodipodi:nodetypes="sssscscscscsssscssssccsccsssscsssscscscscssssc" inkscape:connector-curvature="0" id="path3890" d="m 511.5,272 c -0.277,0 -0.5,0.223 -0.5,0.5 l 0,1 c 0,0.277 0.223,0.5 0.5,0.5 l 1.5,0 0,-1 c 0,-0.34432 0.0733,-0.68057 0.15625,-1 z m 15.34375,0 c 0.083,0.31943 0.15625,0.65568 0.15625,1 l 0,1 1.5,0 c 0.277,0 0.5,-0.223 0.5,-0.5 l 0,-1 c 0,-0.277 -0.223,-0.5 -0.5,-0.5 z M 511.5,275 c -0.277,0 -0.5,0.223 -0.5,0.5 l 0,1 c 0,0.277 0.223,0.5 0.5,0.5 l 1.5,0 0,-2 z m 15.5,0 0,2 1.5,0 c 0.277,0 0.5,-0.223 0.5,-0.5 l 0,-1 c 0,-0.277 -0.223,-0.5 -0.5,-0.5 z m -15.5,3 c -0.277,0 -0.5,0.223 -0.5,0.5 l 0,1 c 0,0.277 0.223,0.5 0.5,0.5 l 1.65625,0 C 513.07329,279.68057 513,279.34432 513,279 l 0,-1 z m 15.5,0 0,1 c 0,0.34432 -0.0733,0.68057 -0.15625,1 l 1.65625,0 c 0.277,0 0.5,-0.223 0.5,-0.5 l 0,-1 c 0,-0.277 -0.223,-0.5 -0.5,-0.5 z" color="#000000" stroke-width="2"/>
  </g>
  <g id="g4186" transform="translate(-509,-271.00002)" fill="#ffffff" enable-background="new">
   <path d="m 517,270 c -1.662,0 -3,1.338 -3,3 l 0,6 c 0,1.662 1.338,3 3,3 l 6,0 c 1.662,0 3,-1.338 3,-3 l 0,-6 c 0,-1.662 -1.338,-3 -3,-3 l -6,0 z m 0,2 6,0 c 0.554,0 1,0.446 1,1 l 0,6 c 0,0.554 -0.446,1 -1,1 l -6,0 c -0.554,0 -1,-0.446 -1,-1 l 0,-6 c 0,-0.554 0.446,-1 1,-1 z" id="path4188" inkscape:connector-curvature="0" color="#000000" stroke-width="2"/>
   <rect y="273" x="517" height="6" width="6" id="rect4190" color="#000000" stroke-width="2" rx="0"/>
   <path d="m 516.5,267.00002 c -0.277,0 -0.5,0.223 -0.5,0.5 l 0,1.65623 C 516.31943,269.07329 516.65568,269 517,269 l 1,0 0,-1.49998 c 0,-0.277 -0.223,-0.5 -0.5,-0.5 z m 3,0 c -0.277,0 -0.5,0.223 -0.5,0.5 l 0,1.49998 2,0 0,-1.49998 c 0,-0.277 -0.223,-0.5 -0.5,-0.5 z m 3,0 c -0.277,0 -0.5,0.223 -0.5,0.5 l 0,1.49998 1,0 c 0.34432,0 0.68057,0.0733 1,0.15625 l 0,-1.65623 c 0,-0.277 -0.223,-0.5 -0.5,-0.5 z m -6.5,15.84373 0,1.65627 c 0,0.27699 0.223,0.5 0.5,0.5 l 1,0 c 0.277,0 0.5,-0.22301 0.5,-0.5 L 518,283 l -1,0 c -0.34432,0 -0.68057,-0.0733 -1,-0.15625 z m 8,0 C 523.68057,282.92671 523.34432,283 523,283 l -1,0 0,1.50002 c 0,0.27699 0.223,0.5 0.5,0.5 l 1,0 c 0.277,0 0.5,-0.22301 0.5,-0.5 z M 519,283 l 0,1.50002 c 0,0.27699 0.223,0.5 0.5,0.5 l 1,0 c 0.277,0 0.5,-0.22301 0.5,-0.5 L 521,283 z" id="path4192" inkscape:connector-curvature="0" sodipodi:nodetypes="sscscsssssccssssscscssscsssscsccscssssccsssscc" color="#000000" stroke-width="2"/>
   <path d="m 511.5,272 c -0.277,0 -0.5,0.223 -0.5,0.5 l 0,1 c 0,0.277 0.223,0.5 0.5,0.5 l 1.5,0 0,-1 c 0,-0.34432 0.0733,-0.68057 0.15625,-1 z m 15.34375,0 c 0.083,0.31943 0.15625,0.65568 0.15625,1 l 0,1 1.5,0 c 0.277,0 0.5,-0.223 0.5,-0.5 l 0,-1 c 0,-0.277 -0.223,-0.5 -0.5,-0.5 z M 511.5,275 c -0.277,0 -0.5,0.223 -0.5,0.5 l 0,1 c 0,0.277 0.223,0.5 0.5,0.5 l 1.5,0 0,-2 z m 15.5,0 0,2 1.5,0 c 0.277,0 0.5,-0.223 0.5,-0.5 l 0,-1 c 0,-0.277 -0.223,-0.5 -0.5,-0.5 z m -15.5,3 c -0.277,0 -0.5,0.223 -0.5,0.5 l 0,1 c 0,0.277 0.223,0.5 0.5,0.5 l 1.65625,0 C 513.07329,279.68057 513,279.34432 513,279 l 0,-1 z m 15.5,0 0,1 c 0,0.34432 -0.0733,0.68057 -0.15625,1 l 1.65625,0 c 0.277,0 0.5,-0.223 0.5,-0.5 l 0,-1 c 0,-0.277 -0.223,-0.5 -0.5,-0.5 z" id="path4194" inkscape:connector-curvature="0" sodipodi:nodetypes="sssscscscscsssscssssccsccsssscsssscscscscssssc" color="#000000" stroke-width="2"/>
  </g>
 </g>
</svg>
