<?xml version="1.0" encoding="UTF-8" standalone="no"?>
<svg xmlns="http://www.w3.org/2000/svg" xmlns:sodipodi="http://sodipodi.sourceforge.net/DTD/sodipodi-0.dtd" xmlns:inkscape="http://www.inkscape.org/namespaces/inkscape" width="22" height="22" version="1.1">
 <metadata id="metadata3401"/>
 <g id="layer1" inkscape:label="Layer 1" inkscape:groupmode="layer" transform="translate(0,6)">
  <path id="path3828" d="M 7,-2 3,1 7,4 3,7 11,13 19,7 15,4 19,1 15,-2 11,1 7,-2 z m 3,4 2,0 -0.25,5 -1.5,0 L 10,2 z m 0,6 2,0 0,2 -2,0 0,-2 z" inkscape:connector-curvature="0" opacity="0.2" color="#000000"/>
  <path inkscape:connector-curvature="0" d="M 7,-3 3,0 7,3 3,6 11,12 19,6 15,3 19,0 15,-3 11,0 7,-3 z m 3,4 2,0 -0.25,5 -1.5,0 L 10,1 z m 0,6 2,0 0,2 -2,0 0,-2 z" id="path4281" fill="#e13f2b" color="#000000"/>
 </g>
</svg>
