<?xml version="1.0" encoding="UTF-8" standalone="no"?>
<svg xmlns="http://www.w3.org/2000/svg" xmlns:sodipodi="http://sodipodi.sourceforge.net/DTD/sodipodi-0.dtd" xmlns:inkscape="http://www.inkscape.org/namespaces/inkscape" width="22" height="22" version="1.1">
 <metadata id="metadata3401"/>
 <g id="layer1" inkscape:label="Layer 1" inkscape:groupmode="layer" transform="translate(0,6)">
  <path id="path3894" d="M 7,-2 3,1 7,4 3,7 11,13 19,7 15,4 15,5.5 15,6 12,6 12,5.59375 c -0.004,-0.0362 -0.004,-0.0574 0,-0.0937 2.5e-5,-0.26179 0.23821,-0.49998 0.5,-0.5 l 0.71875,0 c 0.268236,10e-5 0.415358,-0.005 0.53125,-0.0312 l -0.4375,0 c -0.3867,-0.88251 -1.284721,-1.5 -2.3125,-1.5 -1.027779,0 -1.894551,0.61749 -2.28125,1.5 l -1.0625,0 c 0.434009,-1.43715 1.767146,-2.5 3.34375,-2.5 1.273261,0 2.389678,0.72627 3,1.75 L 14,3.5 C 13.9945,3.27095 14.151425,3.0501 14.375,3 c 0.02045,-0.007 0.04135,0.004 0.0625,0 0.0473,-10e-4 0.11045,-0.0118 0.15625,0 L 15,3 15,3.40625 c 0.003,0.0311 0.003,0.0626 0,0.0937 l 0,0.5 4,-3 -4,-3 -4,3 -4,-3 z m 0,7.96875 3,0 0,0.40625 c 0.004,0.0362 0.004,0.0574 0,0.0937 -2.5e-5,0.26179 -0.23821,0.49997 -0.5,0.5 l -0.71875,0 c -0.02784,0 -0.0366,-3e-5 -0.0625,0 0.386699,0.8825 1.253471,1.5 2.28125,1.5 1.027779,0 1.9258,-0.61745 2.3125,-1.5 l 1.03125,0 c -0.43401,1.43714 -1.767147,2.5 -3.34375,2.5 -1.288719,0 -2.39471,-0.70577 -3,-1.75 l 0,0.75 C 8.0055,8.69775 7.848575,8.9186 7.625,8.9687 7.60455,8.9747 7.58365,8.996 7.5625,8.9999 7.5152,9.0009 7.45205,8.9804 7.40625,8.9687 L 7,8.9687 7,8.56245 C 6.997,8.53135 6.997,8.49985 7,8.46875 l 0,-2 0,-0.5 z" inkscape:connector-curvature="0" opacity="0.2" color="#000000"/>
  <path inkscape:connector-curvature="0" d="M 7,-3 3,0 7,3 3,6 11,12 19,6 15,3 15,4.5 15,5 12,5 12,4.59375 c -0.004,-0.0362 -0.004,-0.0574 0,-0.0937 2.5e-5,-0.26179 0.23821,-0.49998 0.5,-0.5 l 0.71875,0 c 0.268236,10e-5 0.415358,-0.005 0.53125,-0.0312 l -0.4375,0 c -0.3867,-0.88251 -1.284721,-1.5 -2.3125,-1.5 -1.027779,0 -1.894551,0.61749 -2.28125,1.5 l -1.0625,0 c 0.434009,-1.43715 1.767146,-2.5 3.34375,-2.5 1.273261,0 2.389678,0.72627 3,1.75 L 14,2.5 C 13.9945,2.27095 14.151425,2.0501 14.375,2 c 0.02045,-0.007 0.04135,0.004 0.0625,0 0.0473,-10e-4 0.11045,-0.0118 0.15625,0 L 15,2 15,2.40625 c 0.003,0.0311 0.003,0.0626 0,0.0937 l 0,0.5 4,-3 -4,-3 -4,3 -4,-3 z m 0,7.96875 3,0 0,0.40625 c 0.004,0.0362 0.004,0.0574 0,0.0937 -2.5e-5,0.26179 -0.23821,0.49997 -0.5,0.5 l -0.71875,0 c -0.02784,0 -0.0366,-3e-5 -0.0625,0 0.386699,0.8825 1.253471,1.5 2.28125,1.5 1.027779,0 1.9258,-0.61745 2.3125,-1.5 l 1.03125,0 c -0.43401,1.43714 -1.767147,2.5 -3.34375,2.5 -1.288719,0 -2.39471,-0.70577 -3,-1.75 l 0,0.75 C 8.0055,7.69775 7.848575,7.9186 7.625,7.9687 7.60455,7.9747 7.58365,7.996 7.5625,7.9999 7.5152,8.0009 7.45205,7.9804 7.40625,7.9687 L 7,7.9687 7,7.56245 C 6.997,7.53135 6.997,7.49985 7,7.46875 l 0,-2 0,-0.5 z" id="path4305-2-8" fill="#ffffff" color="#000000"/>
 </g>
</svg>
