<?xml version="1.0" encoding="UTF-8" standalone="no"?>
<svg xmlns="http://www.w3.org/2000/svg" xmlns:sodipodi="http://sodipodi.sourceforge.net/DTD/sodipodi-0.dtd" xmlns:inkscape="http://www.inkscape.org/namespaces/inkscape" width="22" height="22" version="1.1">
 <metadata id="metadata3401"/>
 <g id="layer1" inkscape:label="Layer 1" inkscape:groupmode="layer" transform="translate(0,6)">
  <path sodipodi:type="arc" id="path8968" sodipodi:cx="53" sodipodi:cy="218" sodipodi:rx="3" sodipodi:ry="3" d="m 56,218 c 0,1.65685 -1.343146,3 -3,3 -1.656854,0 -3,-1.34315 -3,-3 0,-1.65685 1.343146,-3 3,-3 1.656854,0 3,1.34315 3,3 z" transform="translate(-38,-208)" opacity="0.2" color="#000000" stroke-width="2"/>
  <path inkscape:connector-curvature="0" id="path8966" d="m 13,-0.625 c -0.38928,0.0194 -0.73289,0.26582 -0.875,0.65625 -0.004,0.0103 -0.0276,0.0211 -0.0312,0.0312 C 10.31677,-0.10751 8.62159,0.87057 7.93755,2.74995 7.25172,4.63426 5.86203,8.3906597 4.18755,7.7812 4.076,7.7406 3.95367,7.8074 3.9063,7.93745 l -0.25,0.7187497 1.875,0.6874995 1.875,0.65625 3.75,1.3749998 0.125,0.0312 C 11.11617,10.967829 11.00005,10.496169 11.00005,9.9999992 11.00005,7.79086 12.79091,6 15.00005,6 c 0.0851,0 0.16626,0.026 0.25,0.0312 0.0607,-0.16903 0.13351,-0.38292 0.1875,-0.53125 0.68104,-1.87116 0.0198,-3.76621 -1.4375,-4.78125 0.18948,-0.52059 -0.0732,-1.09177 -0.59375,-1.28125 -0.13015,-0.0474 -0.27649,-0.069 -0.40625,-0.0625 z M 7.34375,11.062499 c 0.12102,0.67925 0.555,1.24704 1.25,1.5 0.695,0.25296 1.43942,0.0988 1.96875,-0.34375 l -3.21875,-1.15625 z" opacity="0.2" color="#000000" stroke-width="4"/>
  <path d="M 6.40625,0.21875 C 6.26072,0.48317 6.13828,0.76844 6.03125,1.0625 5.77401,1.76928 5.43003,2.68997 5.0625,3.46875 L 5.96875,3.9375 C 6.37755,3.09133 6.74009,2.12036 7,1.40625 7.0967,1.1407 7.21301,0.89231 7.34375,0.65625 c 0.004,-0.008 -0.004,-0.0237 0,-0.0312 L 6.40625,0.2188 z m 9.96875,4.625 c -0.0394,0.1084 -0.0823,0.25684 -0.125,0.375 0.31697,0.10429 0.62982,0.2304 0.90625,0.40625 0.0394,-0.11119 0.0874,-0.23981 0.125,-0.34375 L 16.375,4.84375 z" id="path4184" inkscape:connector-curvature="0" opacity="0.35" color="#000000" stroke-width="4" fill="#ffffff"/>
  <path d="m 13,-1.625 c -0.38928,0.0194 -0.73289,0.26582 -0.875,0.65625 -0.004,0.0103 -0.0276,0.0211 -0.0312,0.0312 C 10.31677,-1.1075101 8.62159,-0.12943 7.93755,1.74995 7.25172,3.63426 5.86203,7.39066 4.18755,6.7812 4.076,6.7406 3.95367,6.8074 3.9063,6.93745 l -0.25,0.71875 1.875,0.6875 1.875,0.6562492 3.75,1.3749998 0.125,0.0312 C 11.11617,9.9678292 11.00005,9.4961692 11.00005,8.9999992 11.00005,6.79086 12.79091,5 15.00005,5 c 0.0851,0 0.16626,0.026 0.25,0.0312 0.0607,-0.16903 0.13351,-0.38292 0.1875,-0.53125 0.68104,-1.87116 0.0198,-3.76621 -1.4375,-4.78125 0.18948,-0.52059 -0.0732,-1.09177 -0.59375,-1.28125 -0.13015,-0.0474 -0.27649,-0.069 -0.40625,-0.0625 z M 7.34375,10.062499 c 0.12102,0.67925 0.555,1.24704 1.25,1.5 0.695,0.25296 1.43942,0.0988 1.96875,-0.34375 l -3.21875,-1.15625 z" id="path4188" inkscape:connector-curvature="0" fill="#ffffff" color="#000000" stroke-width="4"/>
  <path transform="translate(-38,-209)" d="m 56,218 c 0,1.65685 -1.343146,3 -3,3 -1.656854,0 -3,-1.34315 -3,-3 0,-1.65685 1.343146,-3 3,-3 1.656854,0 3,1.34315 3,3 z" sodipodi:ry="3" sodipodi:rx="3" sodipodi:cy="218" sodipodi:cx="53" id="path4190" sodipodi:type="arc" fill="#00aff0" color="#000000" stroke-width="2"/>
 </g>
</svg>
