<?xml version="1.0" encoding="UTF-8" standalone="no"?>
<svg xmlns="http://www.w3.org/2000/svg" xmlns:sodipodi="http://sodipodi.sourceforge.net/DTD/sodipodi-0.dtd" xmlns:inkscape="http://www.inkscape.org/namespaces/inkscape" height="22" version="1.1" width="22" enable-background="new">
 <metadata id="metadata90"/>
 <defs id="defs7386">
  <linearGradient id="linearGradient5606" osb:paint="solid">
   <stop id="stop5608"/>
  </linearGradient>
  <filter inkscape:collect="always" color-interpolation-filters="sRGB" id="filter7554">
   <feBlend inkscape:collect="always" id="feBlend7556" in2="BackgroundImage" mode="darken"/>
  </filter>
 </defs>
 <g inkscape:groupmode="layer" id="layer9" inkscape:label="status" transform="translate(-257.00019,351)">
  <g id="g3878" transform="translate(0,1)" opacity="0.2">
   <rect id="rect3880" width="2" height="6" x="267" y="-347" color="#bebebe" rx="0.5"/>
   <path d="M 9,5.34375 C 6.668833,6.1669998 5,8.3870028 5,11 c 0,3.313708 2.6862915,6 6,6 3.313708,0 6,-2.686292 6,-6 0,-2.6129972 -1.668833,-4.8330002 -4,-5.65625 l 0,2.21875 c 1.193791,0.6920851 2,1.9582915 2,3.4375 0,2.209139 -1.790861,4 -4,4 C 8.790861,15 7,13.209139 7,11 7,9.5207915 7.8062088,8.2545851 9,7.5625 L 9,5.34375 z" transform="translate(257.00019,-351)" id="path3882" inkscape:connector-curvature="0" color="#000000"/>
  </g>
  <g id="g3874">
   <rect y="-347" x="267" height="6" width="2" id="rect5820" fill="#ffffff" color="#bebebe" rx="0.5"/>
   <path id="path3864" transform="translate(257.00019,-351)" d="M 9 5.34375 C 6.668833 6.1669998 5 8.3870028 5 11 C 5 14.313708 7.6862915 17 11 17 C 14.313708 17 17 14.313708 17 11 C 17 8.3870028 15.331167 6.1669998 13 5.34375 L 13 7.5625 C 14.193791 8.2545851 15 9.5207915 15 11 C 15 13.209139 13.209139 15 11 15 C 8.790861 15 7 13.209139 7 11 C 7 9.5207915 7.8062088 8.2545851 9 7.5625 L 9 5.34375 z " stroke-dashoffset="16" color="#000000" stroke-linecap="square" fill="#ffffff"/>
  </g>
 </g>
</svg>
