<?xml version='1.0' encoding='UTF-8' standalone='no'?>
<svg height="16" xmlns:inkscape="http://www.inkscape.org/namespaces/inkscape" xmlns:sodipodi="http://sodipodi.sourceforge.net/DTD/sodipodi-0.dtd" version="1.1" width="16" xmlns="http://www.w3.org/2000/svg" enable-background="new">
 <metadata id="metadata90"/>
 <defs id="defs7386">
  <linearGradient id="linearGradient5606" osb:paint="solid">
   <stop id="stop5608"/>
  </linearGradient>
  <filter inkscape:collect="always" color-interpolation-filters="sRGB" id="filter7554">
   <feBlend inkscape:collect="always" id="feBlend7556" in2="BackgroundImage" mode="darken"/>
  </filter>
 </defs>
 <g inkscape:groupmode="layer" id="layer15" inkscape:label="emblems" transform="translate(-741.0002,159)">
  <g id="g6513" transform="translate(192.0002,-371)">
   <path inkscape:connector-curvature="0" d="m 536.5,65 c -1.38071,0 -2.5,1.11929 -2.5,2.5 0,0.218421 0.0411,0.423059 0.0937,0.625 l -3.9687,2.46875 C 529.68904,70.223577 529.11672,70 528.5,70 c -1.38071,0 -2.5,1.11929 -2.5,2.5 0,1.38071 1.11929,2.5 2.5,2.5 0.61672,0 1.18904,-0.223577 1.625,-0.59375 l 3.96875,2.46875 C 534.04112,77.076941 534,77.281579 534,77.5 c 0,1.38071 1.11929,2.5 2.5,2.5 1.38071,0 2.5,-1.11929 2.5,-2.5 0,-1.38071 -1.11929,-2.5 -2.5,-2.5 -0.61672,0 -1.18904,0.223577 -1.625,0.59375 L 530.90625,73.125 C 530.95888,72.923059 531,72.718421 531,72.5 c 0,-0.218421 -0.0411,-0.423059 -0.0937,-0.625 l 3.9687,-2.46875 C 535.31096,69.776423 535.88328,70 536.5,70 c 1.38071,0 2.5,-1.11929 2.5,-2.5 0,-1.38071 -1.11929,-2.5 -2.5,-2.5 z" id="path6515" transform="translate(24,148)" fill="#bebebe" color="#bebebe" stroke-width="4"/>
  </g>
 </g>
</svg>
