<?xml version='1.0' encoding='UTF-8' standalone='no'?>
<svg height="16" xmlns:inkscape="http://www.inkscape.org/namespaces/inkscape" xmlns:sodipodi="http://sodipodi.sourceforge.net/DTD/sodipodi-0.dtd" version="1.1" width="16" xmlns="http://www.w3.org/2000/svg" enable-background="new">
 <metadata id="metadata90"/>
 <defs id="defs7386">
  <linearGradient id="linearGradient5606" osb:paint="solid">
   <stop id="stop5608"/>
  </linearGradient>
  <filter inkscape:collect="always" color-interpolation-filters="sRGB" id="filter7554">
   <feBlend inkscape:collect="always" id="feBlend7556" in2="BackgroundImage" mode="darken"/>
  </filter>
 </defs>
 <g inkscape:groupmode="layer" id="layer15" inkscape:label="emblems" transform="translate(-661.0002,159)">
  <path inkscape:connector-curvature="0" d="m 665.78145,-157 c -2.08183,0 -3.78125,1.67505 -3.78125,3.75 0,1.07968 0.45574,2.06473 1.1875,2.75 l 5.71875,5.5 5.90625,-5.5 c 0.73186,-0.68517 1.1875,-1.67022 1.1875,-2.75 0,-2.07495 -1.69942,-3.75 -3.78125,-3.75 -1.37132,0 -2.55933,0.72116 -3.21875,1.8125 -0.65942,-1.09135 -1.84743,-1.8125 -3.21875,-1.8125 z m 0,1 c 1.01641,0 1.89123,0.5431 2.375,1.34375 l 0.84375,1.40625 0.84375,-1.40625 c 0.48382,-0.80072 1.3586,-1.34375 2.375,-1.34375 1.54319,0 2.78125,1.21721 2.78125,2.75 0,0.79733 -0.33607,1.5267 -0.875,2.03125 l -1.84375,1.71875 -3.375,3.125 -3.25,-3.125 0.0625,0 -1.84375,-1.71875 c -0.53902,-0.50478 -0.875,-1.23423 -0.875,-2.03125 0,-1.53279 1.23806,-2.75 2.78125,-2.75 z" id="path4" fill="#bebebe"/>
 </g>
</svg>
