<?xml version='1.0' encoding='UTF-8' standalone='no'?>
<svg height="16" xmlns:inkscape="http://www.inkscape.org/namespaces/inkscape" xmlns:sodipodi="http://sodipodi.sourceforge.net/DTD/sodipodi-0.dtd" version="1.1" width="16" xmlns="http://www.w3.org/2000/svg" enable-background="new">
 <metadata id="metadata90"/>
 <defs id="defs7386">
  <linearGradient id="linearGradient5606" osb:paint="solid">
   <stop id="stop5608"/>
  </linearGradient>
  <filter inkscape:collect="always" color-interpolation-filters="sRGB" id="filter7554">
   <feBlend inkscape:collect="always" id="feBlend7556" in2="BackgroundImage" mode="darken"/>
  </filter>
 </defs>
 <g inkscape:groupmode="layer" id="layer15" inkscape:label="emblems" transform="translate(-661.0002,179)">
  <path inkscape:connector-curvature="0" d="m 668.78145,-178 c -0.12948,0.0123 -0.29915,0.0336 -0.4375,0.0937 0,0 -0.0884,0.29603 -0.15625,1.03125 -0.0831,0.89922 -0.42428,1.13847 -0.68362,1.32214 -0.25933,0.18366 -0.34422,0.22736 -0.44138,0.27156 -0.50814,0.0853 -0.96159,0.13956 -1.65625,-0.4375 -0.56778,-0.47175 -0.8125,-0.625 -0.8125,-0.625 -0.28028,0.11008 -0.53125,0.40625 -0.53125,0.40625 0,0 -0.29573,0.25037 -0.40625,0.53125 0,0 0.15326,0.24473 0.625,0.8125 0.57709,0.69462 0.52263,1.14826 0.4375,1.65625 -0.044,0.0969 -0.0877,0.1821 -0.27135,0.44154 -0.18364,0.25943 -0.42315,0.60024 -1.32235,0.68346 -0.73511,0.068 -1,0.15625 -1,0.15625 -0.12033,0.27712 -0.12505,0.65635 -0.12505,0.65635 0,0 0.005,0.37958 0.125,0.65625 0,0 0.26479,0.0887 1,0.15625 0.89918,0.0832 1.13828,0.42444 1.32209,0.68375 0.18381,0.2593 0.22761,0.34422 0.27161,0.44125 0.0855,0.50813 0.13953,0.96166 -0.4375,1.65625 -0.47174,0.5679 -0.625,0.8125 -0.625,0.8125 0.11092,0.28086 0.40625,0.53125 0.40625,0.53125 0,0 0.25046,0.29582 0.53125,0.40625 0,0 0.24473,-0.15294 0.8125,-0.625 0.69466,-0.57701 1.14821,-0.52231 1.65625,-0.4375 0.0972,0.0441 0.18199,0.0879 0.4415,0.27152 0.25952,0.18359 0.60028,0.42306 0.6835,1.32223 0.0679,0.73512 0.15625,1 0.15625,1 0.27708,0.12005 0.6563,0.125 0.6563,0.125 0,0 0.37969,-0.005 0.65625,-0.125 0,0 0.0886,-0.26465 0.15625,-1 0.0832,-0.89917 0.42466,-1.13832 0.84375,-1.4375 l 0,-0.0312 c 0.0992,-0.0371 0.18416,-0.081 0.28125,-0.125 0.5081,-0.0855 0.96158,-0.13956 1.65625,0.4375 0.56778,0.47175 0.8125,0.625 0.8125,0.625 0.28091,-0.11103 0.53125,-0.40625 0.53125,-0.40625 0,0 0.29579,-0.25043 0.40625,-0.53125 0,0 -0.15284,-0.24471 -0.625,-0.8125 -0.57709,-0.69462 -0.52243,-1.1483 -0.4375,-1.65625 0.0441,-0.0972 0.0879,-0.18204 0.125,-0.28125 l 0.0312,0 c 0.29885,-0.41966 0.53829,-0.76053 1.4375,-0.84375 0.73517,-0.0679 1.03125,-0.15625 1.03125,-0.15625 0.12016,-0.27709 0.0938,-0.6563 0.0938,-0.6563 0,0 0.0265,-0.37943 -0.0937,-0.65625 0,0 -0.29599,-0.0885 -1.03125,-0.15625 -0.89926,-0.0831 -1.13833,-0.4243 -1.4375,-0.84375 -0.0371,-0.0992 -0.11193,-0.18424 -0.15625,-0.28125 -0.0853,-0.50794 -0.13957,-0.96159 0.4375,-1.65625 0.47175,-0.5678 0.625,-0.8125 0.625,-0.8125 -0.11084,-0.28079 -0.40625,-0.53125 -0.40625,-0.53125 0,0 -0.25044,-0.29579 -0.53125,-0.40625 0,0 -0.24451,0.15295 -0.8125,0.625 -0.69464,0.5771 -1.11682,0.5227 -1.73696,0.25256 -0.62013,-0.27013 -0.96111,-0.50948 -1.04424,-1.40876 -0.068,-0.73513 -0.15625,-1.03125 -0.15625,-1.03125 -0.27702,-0.12042 -0.65636,-0.0938 -0.65635,-0.0938 0,0 -0.0893,-0.0123 -0.21875,0 z m 0.21875,4 c 1.65685,0 3,1.34315 3,3 0,1.65685 -1.34315,3 -3,3 -1.65685,0 -3,-1.34315 -3,-3 0,-1.65685 1.34315,-3 3,-3 z" id="path3-8-5-9" sodipodi:nodetypes="scccccccccccccccccccccccccccccccccccccccccccccccccccccccccssssss" fill="#bebebe"/>
 </g>
</svg>
