<?xml version='1.0' encoding='UTF-8' standalone='no'?>
<svg height="16" xmlns:inkscape="http://www.inkscape.org/namespaces/inkscape" xmlns:sodipodi="http://sodipodi.sourceforge.net/DTD/sodipodi-0.dtd" version="1.1" width="16" xmlns="http://www.w3.org/2000/svg" enable-background="new">
 <metadata id="metadata90"/>
 <defs id="defs7386">
  <linearGradient id="linearGradient5606" osb:paint="solid">
   <stop id="stop5608"/>
  </linearGradient>
  <filter inkscape:collect="always" color-interpolation-filters="sRGB" id="filter7554">
   <feBlend inkscape:collect="always" id="feBlend7556" in2="BackgroundImage" mode="darken"/>
  </filter>
 </defs>
 <g inkscape:groupmode="layer" id="layer15" inkscape:label="emblems" transform="translate(-801.0062,159)">
  <g id="g6524" transform="translate(0.00599553,20)">
   <path inkscape:connector-curvature="0" d="m 814.9942,-178.125 -9,1.25 0,8.375 c -0.41644,-0.31019 -0.94081,-0.5 -1.5,-0.5 -1.38071,0 -2.5,1.11929 -2.5,2.5 0,1.38071 1.11929,2.5 2.5,2.5 1.38071,0 2.5,-1.11929 2.5,-2.5 l 0,-7.8125 7,-0.9375 0,5.75 c -0.41644,-0.31019 -0.94081,-0.5 -1.5,-0.5 -1.38071,0 -2.5,1.11929 -2.5,2.5 0,1.38071 1.11929,2.5 2.5,2.5 1.38071,0 2.5,-1.11929 2.5,-2.5 l 0,-10.625 z" id="path6526" fill="#bebebe" color="#bebebe" stroke-width="4"/>
  </g>
 </g>
</svg>
