<?xml version='1.0' encoding='UTF-8' standalone='no'?>
<svg height="16" xmlns:inkscape="http://www.inkscape.org/namespaces/inkscape" xmlns:sodipodi="http://sodipodi.sourceforge.net/DTD/sodipodi-0.dtd" version="1.1" width="16" xmlns="http://www.w3.org/2000/svg" enable-background="new">
 <metadata id="metadata90"/>
 <defs id="defs7386">
  <linearGradient id="linearGradient5606" osb:paint="solid">
   <stop id="stop5608"/>
  </linearGradient>
  <filter inkscape:collect="always" color-interpolation-filters="sRGB" id="filter7554">
   <feBlend inkscape:collect="always" id="feBlend7556" in2="BackgroundImage" mode="darken"/>
  </filter>
 </defs>
 <g inkscape:groupmode="layer" id="layer15" inkscape:label="emblems" transform="translate(-701.0002,159)">
  <path inkscape:connector-curvature="0" d="m 709.0002,-158 c -1.79146,0 -3.57067,0.69567 -4.9375,2.0625 -2.73367,2.73367 -2.73367,7.14133 0,9.875 2.73368,2.73367 7.14133,2.73367 9.875,0 1.96585,-1.96585 2.51771,-4.79087 1.65625,-7.25 -0.24008,-0.68626 -0.57104,-1.30514 -1,-1.875 -0.19867,-0.26536 -0.41501,-0.50875 -0.65625,-0.75 -1.36684,-1.36684 -3.14604,-2.0625 -4.9375,-2.0625 z m 0,1 c 2.0154,0 3.78698,1.00709 4.875,2.53125 l -5.59375,5.59375 -2.8125,-2.84375 -1.40625,1.4375 2.8125,2.8125 1.40625,1.40625 1.4375,-1.40625 5.0625,-5.03125 c 0.12485,0.48053 0.21875,0.98065 0.21875,1.5 0,3.31371 -2.68629,6 -6,6 -3.31371,0 -6,-2.68629 -6,-6 0,-3.31371 2.68629,-6 6,-6 z" id="path2922-6-6-0-7" fill="#bebebe" color="#000000" stroke-width="0.843"/>
 </g>
</svg>
