<?xml version='1.0' encoding='UTF-8' standalone='no'?>
<svg height="16" xmlns:inkscape="http://www.inkscape.org/namespaces/inkscape" xmlns:sodipodi="http://sodipodi.sourceforge.net/DTD/sodipodi-0.dtd" version="1.1" width="16" xmlns="http://www.w3.org/2000/svg" enable-background="new">
 <metadata id="metadata90"/>
 <defs id="defs7386">
  <linearGradient id="linearGradient5606" osb:paint="solid">
   <stop id="stop5608"/>
  </linearGradient>
  <filter inkscape:collect="always" color-interpolation-filters="sRGB" id="filter7554">
   <feBlend inkscape:collect="always" id="feBlend7556" in2="BackgroundImage" mode="darken"/>
  </filter>
 </defs>
 <g inkscape:groupmode="layer" id="layer15" inkscape:label="emblems" transform="translate(-721.00018,158)">
  <path inkscape:connector-curvature="0" d="m 729.0002,-157 c -3.52482,0 -6.41897,2.61003 -6.90625,6 l 2,0 c 0.46623,-2.27841 2.49001,-4 4.90625,-4 1.63862,0 3.0664,0.80776 3.96875,2.03125 L 731.0002,-151 l 5,0 0,-5 -1.59375,1.59375 C 733.12491,-155.97892 731.19069,-157 729.0002,-157 z" id="path6465" sodipodi:nodetypes="sccscccccs" fill="#bebebe" color="#bebebe"/>
  <path inkscape:connector-curvature="0" d="m 722.0002,-149 0,5 1.59375,-1.59375 c 1.28154,1.57267 3.21576,2.59375 5.40625,2.59375 3.52482,0 6.41897,-2.61003 6.90625,-6 l -2,0 c -0.46623,2.27841 -2.49001,4 -4.90625,4 -1.63862,0 -3.0664,-0.80776 -3.96875,-2.03125 L 727.0002,-149 z" id="path6496" sodipodi:nodetypes="cccsccsccc" fill="#bebebe" color="#bebebe"/>
 </g>
</svg>
