<?xml version="1.0" encoding="UTF-8" standalone="no"?>
<svg
   xmlns:dc="http://purl.org/dc/elements/1.1/"
   xmlns:cc="http://creativecommons.org/ns#"
   xmlns:rdf="http://www.w3.org/1999/02/22-rdf-syntax-ns#"
   xmlns:svg="http://www.w3.org/2000/svg"
   xmlns="http://www.w3.org/2000/svg"
   xmlns:xlink="http://www.w3.org/1999/xlink"
   version="1.1"
   id="svg5014"
   height="32px"
   width="32px">
  <defs
     id="defs5016">
    <linearGradient
       id="linearGradient3973">
      <stop
         id="stop3975"
         offset="0"
         style="stop-color:#000000;stop-opacity:1;" />
      <stop
         id="stop3977"
         offset="1"
         style="stop-color:#000000;stop-opacity:0;" />
    </linearGradient>
    <linearGradient
       id="linearGradient3925">
      <stop
         style="stop-color:#ebebeb;stop-opacity:1;"
         offset="0"
         id="stop3927" />
      <stop
         style="stop-color:#787878;stop-opacity:1;"
         offset="1"
         id="stop3929" />
    </linearGradient>
    <linearGradient
       id="linearGradient3913">
      <stop
         id="stop3915"
         offset="0"
         style="stop-color:#000000;stop-opacity:1;" />
      <stop
         style="stop-color:#171717;stop-opacity:1;"
         offset="0.5"
         id="stop3933" />
      <stop
         id="stop3917"
         offset="1"
         style="stop-color:#232323;stop-opacity:1;" />
    </linearGradient>
    <linearGradient
       id="linearGradient3119">
      <stop
         id="stop3121"
         offset="0"
         style="stop-color:#232323;stop-opacity:1;" />
      <stop
         style="stop-color:#535353;stop-opacity:1;"
         offset="0.83844304"
         id="stop3123" />
      <stop
         style="stop-color:#676767;stop-opacity:1;"
         offset="0.83844304"
         id="stop3125" />
      <stop
         id="stop3127"
         offset="1"
         style="stop-color:#676767;stop-opacity:1;" />
    </linearGradient>
    <linearGradient
       id="linearGradient3100">
      <stop
         id="stop3102"
         offset="0"
         style="stop-color:#ffffff;stop-opacity:1" />
      <stop
         id="stop3104"
         offset="1"
         style="stop-color:#a7a7a7;stop-opacity:1" />
    </linearGradient>
    <linearGradient
       id="linearGradient3944-0">
      <stop
         id="stop3946-4"
         offset="0"
         style="stop-color:#000000;stop-opacity:1;" />
      <stop
         id="stop3948-8"
         offset="1"
         style="stop-color:#000000;stop-opacity:0;" />
    </linearGradient>
    <linearGradient
       id="linearGradient3952-7">
      <stop
         id="stop3954-8"
         offset="0"
         style="stop-color:#000000;stop-opacity:1;" />
      <stop
         id="stop3956-9"
         offset="1"
         style="stop-color:#000000;stop-opacity:0;" />
    </linearGradient>
    <linearGradient
       id="linearGradient3960-9">
      <stop
         id="stop3962-7"
         offset="0"
         style="stop-color:#000000;stop-opacity:0;" />
      <stop
         style="stop-color:#000000;stop-opacity:1;"
         offset="0.5"
         id="stop3970-0" />
      <stop
         id="stop3964-8"
         offset="1"
         style="stop-color:#000000;stop-opacity:0;" />
    </linearGradient>
    <linearGradient
       y2="-1.2886789"
       x2="10.994606"
       y1="19"
       x1="11"
       gradientTransform="matrix(1.5254237,0,0,1.5254237,-1.7714325,1.9657814)"
       gradientUnits="userSpaceOnUse"
       id="linearGradient3129"
       xlink:href="#linearGradient3119" />
    <radialGradient
       r="6"
       fy="20"
       fx="16"
       cy="20"
       cx="16"
       gradientUnits="userSpaceOnUse"
       id="radialGradient3943"
       xlink:href="#linearGradient3913" />
    <radialGradient
       gradientUnits="userSpaceOnUse"
       r="2"
       fy="19"
       fx="16"
       cy="19"
       cx="16"
       id="radialGradient3961"
       xlink:href="#linearGradient3100" />
    <linearGradient
       y2="20"
       x2="22"
       y1="20"
       x1="10"
       gradientUnits="userSpaceOnUse"
       id="linearGradient4001"
       xlink:href="#linearGradient3925" />
    <linearGradient
       y2="20"
       x2="22"
       y1="20"
       x1="10"
       gradientUnits="userSpaceOnUse"
       id="linearGradient4041"
       xlink:href="#linearGradient3973" />
    <linearGradient
       y2="20"
       x2="22"
       y1="20"
       x1="10"
       gradientUnits="userSpaceOnUse"
       id="linearGradient4043"
       xlink:href="#linearGradient3973" />
    <linearGradient
       y2="20"
       x2="22"
       y1="20"
       x1="10"
       gradientUnits="userSpaceOnUse"
       id="linearGradient4049"
       xlink:href="#linearGradient3973" />
    <linearGradient
       y2="20"
       x2="22"
       y1="20"
       x1="10"
       gradientUnits="userSpaceOnUse"
       id="linearGradient4051"
       xlink:href="#linearGradient3973" />
    <radialGradient
       gradientTransform="matrix(2,0,0,2,-14,-22)"
       gradientUnits="userSpaceOnUse"
       r="6"
       fy="22"
       fx="14"
       cy="22"
       cx="14"
       id="radialGradient4087"
       xlink:href="#linearGradient3973" />
    <radialGradient
       r="6"
       fy="22"
       fx="14"
       cy="22"
       cx="14"
       gradientTransform="matrix(2,0,0,2,-14,-22)"
       gradientUnits="userSpaceOnUse"
       id="radialGradient4091"
       xlink:href="#linearGradient3973" />
    <radialGradient
       r="2"
       fy="43.5"
       fx="9"
       cy="43.5"
       cx="9"
       gradientTransform="matrix(1,0,0,0.75,-3,-2.125)"
       gradientUnits="userSpaceOnUse"
       id="radialGradient4094"
       xlink:href="#linearGradient3944-0" />
    <radialGradient
       r="2"
       fy="43.5"
       fx="40"
       cy="43.5"
       cx="40"
       gradientTransform="matrix(1,0,0,0.75,-14,-2.125)"
       gradientUnits="userSpaceOnUse"
       id="radialGradient4097"
       xlink:href="#linearGradient3952-7" />
    <linearGradient
       y2="42"
       x2="25"
       y1="45"
       x1="25"
       gradientTransform="matrix(1.2727273,0,0,1,-9.454545,-13)"
       gradientUnits="userSpaceOnUse"
       id="linearGradient4100"
       xlink:href="#linearGradient3960-9" />
  </defs>
  <metadata
     id="metadata5019">
    <rdf:RDF>
      <cc:Work
         rdf:about="">
        <dc:format>image/svg+xml</dc:format>
        <dc:type
           rdf:resource="http://purl.org/dc/dcmitype/StillImage" />
        <dc:title />
      </cc:Work>
    </rdf:RDF>
  </metadata>
  <g
     id="layer1">
    <path
       id="rect3938-8"
       d="m 6,29 20,0 0,3 -20,0 z"
       style="opacity:0.4;fill:url(#linearGradient4100);fill-opacity:1;stroke:none" />
    <path
       id="rect3940-0"
       d="m 26,29 0,3 0.5,0 C 27.331,32 28,31.331 28,30.5 28,29.669 27.331,29 26.5,29 z"
       style="opacity:0.4;fill:url(#radialGradient4097);fill-opacity:1;stroke:none" />
    <path
       id="rect3942-3"
       d="M 5.40625,29 C 4.6271875,29 4,29.627187 4,30.40625 l 0,0.1875 C 4,31.372813 4.6271875,32 5.40625,32 L 6,32 6,29 z"
       style="opacity:0.4;fill:url(#radialGradient4094);fill-opacity:1;stroke:none" />
    <path
       id="rect3145"
       d="M 5.5,4.411756 5.5,30.5 l 21,0 0,-26 -2.5,-2 -16.0034241,0 z"
       style="fill:url(#linearGradient3129);fill-opacity:1;stroke:none;display:inline" />
    <path
       id="rect3937"
       d="m 5.9997524,5 19.9996016,0 0,-0.999999 -19.9996016,0 z"
       style="opacity:0.1;fill:#ffffff;fill-opacity:1;stroke:none;display:inline" />
    <path
       id="rect4753"
       d="m 5.9997524,6.000002 19.9996016,0 0,-0.999999 -19.9996016,0 z"
       style="opacity:0.4;fill:#000000;fill-opacity:1;stroke:none;display:inline" />
    <path
       style="opacity:0.61000001;fill:none;stroke:#000000;stroke-opacity:1;display:inline"
       d="M 5.5,4.411756 5.5,30.5 l 21,0 0,-26 -2.5,-2 -16.0034241,0 z"
       id="path4102" />
  </g>
  <g
     id="layer2">
    <path
       transform="matrix(0,1.3333333,-1.3333333,0,42.666666,-1.333333)"
       d="m 22,20 a 6,6 0 1 1 -12,0 6,6 0 1 1 12,0 z"
       id="path3938"
       style="fill:none;fill-opacity:1;fill-rule:evenodd;stroke:#000000;stroke-opacity:1;stroke-width:1.50000003999999998;stroke-miterlimit:4;stroke-dasharray:none;opacity:0.40999999999999998" />
    <path
       style="fill:url(#linearGradient4001);fill-opacity:1;fill-rule:evenodd;stroke:none"
       id="path3921"
       d="m 22,20 a 6,6 0 1 1 -12,0 6,6 0 1 1 12,0 z"
       transform="matrix(0,1.3333333,-1.3333333,0,42.666666,-1.3333326)" />
    <path
       transform="matrix(0,1,-1,0,36,4)"
       d="m 22,20 a 6,6 0 1 1 -12,0 6,6 0 1 1 12,0 z"
       id="path3143"
       style="fill:url(#radialGradient3943);fill-opacity:1;fill-rule:evenodd;stroke:none" />
    <path
       transform="translate(0,1)"
       style="fill:#000000;fill-opacity:1;stroke:none;opacity:0.2"
       id="path3963"
       d="m 18,20 a 2,2 0 1 1 -4,0 2,2 0 1 1 4,0 z" />
    <path
       id="path3945"
       d="M 16 14 C 12.686292 14 10 16.686292 10 20 C 10 23.313708 12.686292 26 16 26 C 19.313708 26 22 23.313708 22 20 C 22 16.686292 19.313708 14 16 14 z M 16 15 C 18.761424 15 21 17.238576 21 20 C 21 22.761424 18.761424 25 16 25 C 13.238576 25 11 22.761424 11 20 C 11 17.238576 13.238576 15 16 15 z "
       style="fill:#000000;fill-opacity:1;fill-rule:evenodd;stroke:none;opacity:0.2" />
    <path
       id="path4080"
       d="M 16 12 C 11.581722 12 8 15.581722 8 20 C 8 20.170091 8.0207902 20.332546 8.03125 20.5 C 8.2924933 16.317655 11.751813 13 16 13 C 20.248187 13 23.707507 16.317655 23.96875 20.5 C 23.97921 20.332546 24 20.170091 24 20 C 24 15.581722 20.418278 12 16 12 z "
       style="fill:#ffffff;fill-opacity:1;fill-rule:evenodd;stroke:none;opacity:0.4" />
    <path
       d="m 18,20 a 2,2 0 1 1 -4,0 2,2 0 1 1 4,0 z"
       id="path3952"
       style="opacity:1;fill:url(#radialGradient3961);fill-opacity:1;stroke:none;stroke-width:2;stroke-miterlimit:4;stroke-opacity:1;stroke-dasharray:none" />
    <path
       style="fill:url(#radialGradient4087);fill-opacity:1;fill-rule:evenodd;stroke:none"
       id="path3969"
       d="m 22,20 a 6,6 0 1 1 -12,0 6,6 0 1 1 12,0 z"
       transform="matrix(0,0.25,-0.25,0,14.5,4.5)" />
    <g
       id="g4053">
      <path
         style="fill:url(#linearGradient4043);fill-opacity:1;fill-rule:evenodd;stroke:none;opacity:0.5"
         id="path3985"
         d="m 22,20 a 6,6 0 1 1 -12,0 6,6 0 1 1 12,0 z"
         transform="matrix(0,0.08333333,-0.08333333,0,22.616414,23.616414)" />
      <path
         transform="matrix(0,0.08333333,-0.08333333,0,12.716919,13.716919)"
         d="m 22,20 a 6,6 0 1 1 -12,0 6,6 0 1 1 12,0 z"
         id="path3989"
         style="fill:url(#linearGradient4041);fill-opacity:1;fill-rule:evenodd;stroke:none;opacity:0.5" />
      <path
         transform="matrix(0,0.08333333,0.08333333,0,9.3835867,23.616414)"
         d="m 22,20 a 6,6 0 1 1 -12,0 6,6 0 1 1 12,0 z"
         id="path4025"
         style="fill:url(#linearGradient4051);fill-opacity:1;fill-rule:evenodd;stroke:none;opacity:0.5" />
      <path
         style="fill:url(#linearGradient4049);fill-opacity:1;fill-rule:evenodd;stroke:none;opacity:0.5"
         id="path4027"
         d="m 22,20 a 6,6 0 1 1 -12,0 6,6 0 1 1 12,0 z"
         transform="matrix(0,0.08333333,0.08333333,0,19.283082,13.716919)" />
    </g>
    <path
       id="path4075"
       d="M 16 18 C 14.895431 18 14 18.895431 14 20 C 14 20.172589 14.021396 20.340241 14.0625 20.5 C 14.284463 19.637301 15.068019 19 16 19 C 16.931981 19 17.715537 19.637301 17.9375 20.5 C 17.978604 20.340241 18 20.172589 18 20 C 18 18.895431 17.104569 18 16 18 z "
       style="opacity:0.4;fill:#ffffff;fill-opacity:1;stroke:none;stroke-width:2;stroke-miterlimit:4;stroke-opacity:1;stroke-dasharray:none" />
    <path
       style="fill:#000000;fill-opacity:1;fill-rule:evenodd;stroke:none;opacity:0.4"
       d="M 16,29 C 11.581722,29 8,25.418278 8,21 8,20.829909 8.02079,20.667454 8.03125,20.5 8.2924933,24.682345 11.751813,28 16,28 20.248187,28 23.707507,24.682345 23.96875,20.5 23.97921,20.667454 24,20.829909 24,21 c 0,4.418278 -3.581722,8 -8,8 z"
       id="path4085" />
    <path
       transform="matrix(0,0.25,-0.25,0,27.5,4.5)"
       d="m 22,20 a 6,6 0 1 1 -12,0 6,6 0 1 1 12,0 z"
       id="path4089"
       style="fill:url(#radialGradient4091);fill-opacity:1;fill-rule:evenodd;stroke:none" />
  </g>
</svg>
