<?xml version="1.0" encoding="UTF-8" standalone="no"?>
<svg
   xmlns:dc="http://purl.org/dc/elements/1.1/"
   xmlns:cc="http://creativecommons.org/ns#"
   xmlns:rdf="http://www.w3.org/1999/02/22-rdf-syntax-ns#"
   xmlns:svg="http://www.w3.org/2000/svg"
   xmlns="http://www.w3.org/2000/svg"
   xmlns:xlink="http://www.w3.org/1999/xlink"
   version="1.1"
   id="svg5014"
   height="32"
   width="32">
  <defs
     id="defs5016">
    <linearGradient
       id="linearGradient6883">
      <stop
         style="stop-color:#000000;stop-opacity:1;"
         offset="0"
         id="stop6885" />
      <stop
         style="stop-color:#000000;stop-opacity:0;"
         offset="1"
         id="stop6887" />
    </linearGradient>
    <linearGradient
       id="linearGradient3986">
      <stop
         id="stop3988"
         offset="0"
         style="stop-color:#dddddd;stop-opacity:1;" />
      <stop
         style="stop-color:#e2e2e2;stop-opacity:1;"
         offset="0.10526326"
         id="stop3990" />
      <stop
         style="stop-color:#f0f0f0;stop-opacity:1;"
         offset="0.10526326"
         id="stop3992" />
      <stop
         id="stop3994"
         offset="1"
         style="stop-color:#f2f2f2;stop-opacity:1;" />
    </linearGradient>
    <linearGradient
       y2="5.9019461"
       x2="10.359372"
       y1="18.357502"
       x1="10.359372"
       gradientTransform="matrix(1.5254237,0,0,1.5254237,0.2118645,0.997031)"
       gradientUnits="userSpaceOnUse"
       id="linearGradient3129"
       xlink:href="#linearGradient3986" />
    <linearGradient
       id="linearGradient3960-3">
      <stop
         id="stop3962-1"
         offset="0"
         style="stop-color:#000000;stop-opacity:0;" />
      <stop
         style="stop-color:#000000;stop-opacity:1;"
         offset="0.5"
         id="stop3970-3" />
      <stop
         id="stop3964-2"
         offset="1"
         style="stop-color:#000000;stop-opacity:0;" />
    </linearGradient>
    <linearGradient
       id="linearGradient3952-0">
      <stop
         id="stop3954-1"
         offset="0"
         style="stop-color:#000000;stop-opacity:1;" />
      <stop
         id="stop3956-6"
         offset="1"
         style="stop-color:#000000;stop-opacity:0;" />
    </linearGradient>
    <linearGradient
       id="linearGradient3944-3">
      <stop
         id="stop3946-5"
         offset="0"
         style="stop-color:#000000;stop-opacity:1;" />
      <stop
         id="stop3948-5"
         offset="1"
         style="stop-color:#000000;stop-opacity:0;" />
    </linearGradient>
    <linearGradient
       y2="42"
       x2="25"
       y1="45"
       x1="25"
       gradientTransform="matrix(1.4084181,0,0,1.6666667,-9.561478,-51.000001)"
       gradientUnits="userSpaceOnUse"
       id="linearGradient3183"
       xlink:href="#linearGradient3960-3" />
    <radialGradient
       r="2"
       fy="43.5"
       fx="40"
       cy="43.5"
       cx="40"
       gradientTransform="matrix(1.0571429,0,0,1.25,4.5999997,-32.875001)"
       gradientUnits="userSpaceOnUse"
       id="radialGradient3185"
       xlink:href="#linearGradient3952-0" />
    <radialGradient
       r="2"
       fy="43.5"
       fx="9"
       cy="43.5"
       cx="9"
       gradientTransform="matrix(1.0571429,0,0,1.25,-6.4000003,-32.875001)"
       gradientUnits="userSpaceOnUse"
       id="radialGradient3187"
       xlink:href="#linearGradient3944-3" />
    <linearGradient
       y2="42"
       x2="25"
       y1="45"
       x1="25"
       gradientTransform="matrix(1.3457637,0,0,1,-7.817562,-22.000001)"
       gradientUnits="userSpaceOnUse"
       id="linearGradient3189"
       xlink:href="#linearGradient3960-3" />
    <radialGradient
       r="2"
       fy="43.5"
       fx="40"
       cy="43.5"
       cx="40"
       gradientTransform="matrix(1,0,0,0.75,5.9999997,-11.125001)"
       gradientUnits="userSpaceOnUse"
       id="radialGradient3191"
       xlink:href="#linearGradient3952-0" />
    <radialGradient
       r="2"
       fy="43.5"
       fx="9"
       cy="43.5"
       cx="9"
       gradientTransform="matrix(1,0,0,0.75,-5.0000003,-11.125001)"
       gradientUnits="userSpaceOnUse"
       id="radialGradient3193"
       xlink:href="#linearGradient3944-3" />
    <linearGradient
       id="linearGradient3847">
      <stop
         id="stop3849"
         offset="0"
         style="stop-color:#f2f2f2;stop-opacity:1;" />
      <stop
         id="stop3851"
         offset="1"
         style="stop-color:#ebebeb;stop-opacity:0;" />
    </linearGradient>
    <linearGradient
       xlink:href="#linearGradient3847"
       id="linearGradient5033"
       gradientUnits="userSpaceOnUse"
       gradientTransform="matrix(-1,0,0,1,346.87279,-59.715531)"
       x1="328.62787"
       y1="74.43293"
       x2="327.47882"
       y2="67.36187" />
    <linearGradient
       y2="67.36187"
       x2="327.47882"
       y1="74.43293"
       x1="328.62787"
       gradientTransform="matrix(-1,0,0,1,346.87279,-59.715531)"
       gradientUnits="userSpaceOnUse"
       id="linearGradient3916"
       xlink:href="#linearGradient3952-0" />
    <linearGradient
       y2="67.36187"
       x2="327.47882"
       y1="74.43293"
       x1="328.62787"
       gradientTransform="matrix(-1,0,0,1,346.87279,-58.715531)"
       gradientUnits="userSpaceOnUse"
       id="linearGradient3918"
       xlink:href="#linearGradient6883" />
  </defs>
  <metadata
     id="metadata5019">
    <rdf:RDF>
      <cc:Work
         rdf:about="">
        <dc:format>image/svg+xml</dc:format>
        <dc:type
           rdf:resource="http://purl.org/dc/dcmitype/StillImage" />
        <dc:title />
      </cc:Work>
    </rdf:RDF>
  </metadata>
  <g
     id="layer1">
    <g
       transform="matrix(0.65885418,0,0,1,-0.65885418,6)"
       id="g3175">
      <rect
         style="opacity:0.12000002;fill:url(#linearGradient3183);fill-opacity:1;stroke:none"
         id="rect3615"
         width="43.660965"
         height="5"
         x="3.1142857"
         y="19" />
      <path
         style="opacity:0.12000002;fill:url(#radialGradient3185);fill-opacity:1;stroke:none"
         d="m 46.885716,19 0,5 0.528571,0 c 0.878486,0 1.585715,-1.115 1.585715,-2.5 0,-1.385 -0.707229,-2.5 -1.585715,-2.5 z"
         id="path3617" />
      <path
         style="opacity:0.12000002;fill:url(#radialGradient3187);fill-opacity:1;stroke:none"
         d="M 2.4866072,19 C 1.6630268,19 1,20.045312 1,21.34375 l 0,0.3125 C 1,22.954689 1.6630268,24 2.4866072,24 l 0.6276786,0 0,-5 z"
         id="path3619" />
      <rect
         y="19.999998"
         x="4.2943115"
         height="3"
         width="41.718674"
         id="rect3623"
         style="opacity:0.12000002;fill:url(#linearGradient3189);fill-opacity:1;stroke:none" />
      <path
         id="path3625"
         d="m 46,19.999999 0,3 0.5,0 c 0.831,0 1.5,-0.669 1.5,-1.5 0,-0.831 -0.669,-1.5 -1.5,-1.5 z"
         style="opacity:0.12000002;fill:url(#radialGradient3191);fill-opacity:1;stroke:none" />
      <path
         id="path3627"
         d="m 3.4062497,19.999999 c -0.7790625,0 -1.40625,0.627187 -1.40625,1.40625 l 0,0.1875 c 0,0.779063 0.6271875,1.40625 1.40625,1.40625 l 0.59375,0 0,-3 z"
         style="opacity:0.12000002;fill:url(#radialGradient3193);fill-opacity:1;stroke:none" />
    </g>
    <path
       style="opacity:0.41000001;fill:none;stroke:url(#linearGradient3916);stroke-width:3;stroke-linecap:butt;stroke-linejoin:miter;stroke-miterlimit:4;stroke-opacity:1;stroke-dasharray:none;display:inline;enable-background:new"
       d="m 11.947332,21.75 c 0,0 3.28582,-2.83484 2.51847,-4.932011 -0.93374,-2.55191 -6.17883,-0.09195 -6.17883,-1.888855 0,-2.886087 12.874949,0.08421 13.40703,-1.888855 0.40542,-1.503378 -1.777691,-0.866978 -4.080111,-1.993792 -3.645079,-1.7839189 3.165,-1.7782839 3.35797,-9.864021"
       id="path3146" />
    <path
       style="opacity:0.2;fill:none;stroke:url(#linearGradient3918);stroke-width:1;stroke-linecap:butt;stroke-linejoin:miter;stroke-miterlimit:4;stroke-opacity:1;stroke-dasharray:none;display:inline;enable-background:new"
       d="m 11.947332,22.75 c 0,0 3.28582,-2.83484 2.51847,-4.932011 -0.93374,-2.55191 -6.17883,-0.09195 -6.17883,-1.888855 0,-2.886087 12.874949,0.08421 13.40703,-1.888855 0.40542,-1.503378 -1.777691,-0.866978 -4.080111,-1.993792 -3.645079,-1.783919 3.165,-1.778284 3.35797,-9.864021"
       id="path6877" />
    <path
       id="path3590"
       d="m 11.947332,21.75 c 0,0 3.28582,-2.83484 2.51847,-4.932011 -0.93374,-2.55191 -6.17883,-0.09195 -6.17883,-1.888855 0,-2.886087 12.874949,0.08421 13.40703,-1.888855 0.40542,-1.503378 -1.777691,-0.866978 -4.080111,-1.993792 -3.645079,-1.7839189 3.165,-1.7782839 3.35797,-9.864021"
       style="fill:none;stroke:url(#linearGradient5033);stroke-width:1;stroke-linecap:butt;stroke-linejoin:miter;stroke-miterlimit:4;stroke-opacity:1;stroke-dasharray:none;display:inline;enable-background:new" />
    <path
       style="fill:url(#linearGradient3129);fill-opacity:1;stroke:none;display:inline"
       d="M 3.9798729,17.587483 3.7891949,17.825829 0.5,26.443006 l 0,0.306889 0,0.762711 0.7627119,0 29.4573551,0 0.762712,0 0,-0.762711 0,-0.306889 0,0 0,0 -3.289195,-8.617177 -0.190677,-0.238347 -0.333687,0 -23.3556607,0 z"
       id="path3998" />
    <path
       id="rect3937"
       d="m 1.014297,26.999998 29.999726,0 0,-0.999999 -29.999726,0 z"
       style="opacity:0.1;fill:#ffffff;fill-opacity:1;stroke:none;display:inline" />
    <path
       style="opacity:0.41000001;fill:none;stroke:#000000;stroke-opacity:1;display:inline"
       d="M 3.9798729,17.587483 3.7891949,17.825829 0.5,26.443006 l 0,0.306889 0,0.762711 0.7627119,0 29.4573551,0 0.762712,0 0,-0.762711 0,-0.306889 0,0 0,0 -3.289195,-8.617177 -0.190677,-0.238347 -0.333687,0 -23.3556607,0 z"
       id="path3195" />
    <g
       transform="translate(-0.985703,2)"
       id="g3242">
      <path
         id="path6474"
         d="M 6.17615,17.970712 3.75,24 29.68868,23.9925 29.0033,17.970712 z"
         style="opacity:0.2;fill:#000000;fill-opacity:1;fill-rule:evenodd;stroke:none;display:inline;enable-background:new" />
      <path
         style="fill:#ffffff;fill-opacity:1;fill-rule:evenodd;stroke:none;display:inline;enable-background:new"
         d="M 6.17615,16.970712 3.75,23 29.68868,22.9925 29.0033,16.970712 z"
         id="path3704" />
      <rect
         style="opacity:0.4;fill:#000000;fill-opacity:1;stroke:none"
         id="rect4582"
         width="1"
         height="1"
         x="6"
         y="19"
         rx="0.28125"
         ry="0.28125" />
      <rect
         style="opacity:0.4;fill:#000000;fill-opacity:1;stroke:none;display:inline;enable-background:new"
         id="rect4584"
         width="1"
         height="1"
         x="6"
         y="21"
         rx="0.28125"
         ry="0.28125" />
      <rect
         style="opacity:0.4;fill:#000000;fill-opacity:1;stroke:none;display:inline;enable-background:new"
         id="rect4586"
         width="1"
         height="1"
         x="5"
         y="22"
         rx="0.28125"
         ry="0.28125" />
      <rect
         style="opacity:0.4;fill:#000000;fill-opacity:1;stroke:none;display:inline;enable-background:new"
         id="rect4588"
         width="1"
         height="1"
         x="5"
         y="20"
         rx="0.28125"
         ry="0.28125" />
      <rect
         style="opacity:0.4;fill:#000000;fill-opacity:1;stroke:none;display:inline;enable-background:new"
         id="rect4590"
         width="1"
         height="1"
         x="7"
         y="20"
         rx="0.28125"
         ry="0.28125" />
      <rect
         style="opacity:0.4;fill:#000000;fill-opacity:1;stroke:none;display:inline;enable-background:new"
         id="rect4592"
         width="1"
         height="1"
         x="7"
         y="22"
         rx="0.28125"
         ry="0.28125" />
      <rect
         style="opacity:0.4;fill:#000000;fill-opacity:1;stroke:none;display:inline;enable-background:new"
         id="rect4594"
         width="1"
         height="1"
         x="8"
         y="19"
         rx="0.28125"
         ry="0.28125" />
      <rect
         style="opacity:0.4;fill:#000000;fill-opacity:1;stroke:none"
         id="rect4607"
         width="1"
         height="1"
         x="10"
         y="19"
         rx="0.28125"
         ry="0.28125" />
      <rect
         style="opacity:0.4;fill:#000000;fill-opacity:1;stroke:none;display:inline;enable-background:new"
         id="rect4609"
         width="1"
         height="1"
         x="10"
         y="21"
         rx="0.28125"
         ry="0.28125" />
      <rect
         style="opacity:0.4;fill:#000000;fill-opacity:1;stroke:none;display:inline;enable-background:new"
         id="rect4611"
         width="1"
         height="1"
         x="9"
         y="22"
         rx="0.28125"
         ry="0.28125" />
      <rect
         style="opacity:0.4;fill:#000000;fill-opacity:1;stroke:none;display:inline;enable-background:new"
         id="rect4613"
         width="1"
         height="1"
         x="9"
         y="20"
         rx="0.28125"
         ry="0.28125" />
      <rect
         style="opacity:0.4;fill:#000000;fill-opacity:1;stroke:none;display:inline;enable-background:new"
         id="rect4615"
         width="1"
         height="1"
         x="11"
         y="20"
         rx="0.28125"
         ry="0.28125" />
      <rect
         style="opacity:0.4;fill:#000000;fill-opacity:1;stroke:none;display:inline;enable-background:new"
         id="rect4619"
         width="1"
         height="1"
         x="12"
         y="19"
         rx="0.28125"
         ry="0.28125" />
      <rect
         style="opacity:0.4;fill:#000000;fill-opacity:1;stroke:none;display:inline;enable-background:new"
         id="rect4628"
         width="1"
         height="1"
         x="12"
         y="21"
         rx="0.28125"
         ry="0.28125" />
      <rect
         style="opacity:0.4;fill:#000000;fill-opacity:1;stroke:none;display:inline;enable-background:new"
         id="rect4630"
         width="1"
         height="1"
         x="8"
         y="21"
         rx="0.28125"
         ry="0.28125" />
      <rect
         style="opacity:0.4;fill:#000000;fill-opacity:1;stroke:none;display:inline;enable-background:new"
         id="rect4639"
         width="1"
         height="1"
         x="14"
         y="19"
         rx="0.28125"
         ry="0.28125" />
      <rect
         style="opacity:0.4;fill:#000000;fill-opacity:1;stroke:none;display:inline;enable-background:new"
         id="rect4641"
         width="1"
         height="1"
         x="14"
         y="21"
         rx="0.28125"
         ry="0.28125" />
      <rect
         style="opacity:0.4;fill:#000000;fill-opacity:1;stroke:none;display:inline;enable-background:new"
         id="rect4645"
         width="1"
         height="1"
         x="13"
         y="20"
         rx="0.28125"
         ry="0.28125" />
      <rect
         style="opacity:0.4;fill:#000000;fill-opacity:1;stroke:none;display:inline;enable-background:new"
         id="rect4647"
         width="1"
         height="1"
         x="15"
         y="20"
         rx="0.28125"
         ry="0.28125" />
      <rect
         style="opacity:0.4;fill:#000000;fill-opacity:1;stroke:none;display:inline;enable-background:new"
         id="rect4651"
         width="1"
         height="1"
         x="16"
         y="19"
         rx="0.28125"
         ry="0.28125" />
      <rect
         style="opacity:0.4;fill:#000000;fill-opacity:1;stroke:none;display:inline;enable-background:new"
         id="rect4653"
         width="1"
         height="1"
         x="18"
         y="19"
         rx="0.28125"
         ry="0.28125" />
      <rect
         style="opacity:0.4;fill:#000000;fill-opacity:1;stroke:none;display:inline;enable-background:new"
         id="rect4655"
         width="1"
         height="1"
         x="18"
         y="21"
         rx="0.28125"
         ry="0.28125" />
      <rect
         style="opacity:0.4;fill:#000000;fill-opacity:1;stroke:none;display:inline;enable-background:new"
         id="rect4659"
         width="1"
         height="1"
         x="17"
         y="20"
         rx="0.28125"
         ry="0.28125" />
      <rect
         style="opacity:0.4;fill:#000000;fill-opacity:1;stroke:none;display:inline;enable-background:new"
         id="rect4661"
         width="1"
         height="1"
         x="19"
         y="20"
         rx="0.28125"
         ry="0.28125" />
      <rect
         style="opacity:0.4;fill:#000000;fill-opacity:1;stroke:none;display:inline;enable-background:new"
         id="rect4665"
         width="1"
         height="1"
         x="20"
         y="19"
         rx="0.28125"
         ry="0.28125" />
      <rect
         style="opacity:0.4;fill:#000000;fill-opacity:1;stroke:none;display:inline;enable-background:new"
         id="rect4667"
         width="1"
         height="1"
         x="20"
         y="21"
         rx="0.28125"
         ry="0.28125" />
      <rect
         style="opacity:0.4;fill:#000000;fill-opacity:1;stroke:none;display:inline;enable-background:new"
         id="rect4669"
         width="1"
         height="1"
         x="16"
         y="21"
         rx="0.28125"
         ry="0.28125" />
      <rect
         style="opacity:0.4;fill:#000000;fill-opacity:1;stroke:none;display:inline;enable-background:new"
         id="rect4671"
         width="1"
         height="1"
         x="22"
         y="17"
         rx="0.28125"
         ry="0.28125" />
      <rect
         style="opacity:0.4;fill:#000000;fill-opacity:1;stroke:none;display:inline;enable-background:new"
         id="rect4673"
         width="1"
         height="1"
         x="22"
         y="21"
         rx="0.28125"
         ry="0.28125" />
      <rect
         style="opacity:0.4;fill:#000000;fill-opacity:1;stroke:none;display:inline;enable-background:new"
         id="rect4677"
         width="1"
         height="1"
         x="21"
         y="20"
         rx="0.28125"
         ry="0.28125" />
      <rect
         style="opacity:0.4;fill:#000000;fill-opacity:1;stroke:none;display:inline;enable-background:new"
         id="rect4685"
         width="1"
         height="1"
         x="24.999702"
         y="19"
         rx="0.28125"
         ry="0.28125" />
      <rect
         style="opacity:0.4;fill:#000000;fill-opacity:1;stroke:none;display:inline;enable-background:new"
         id="rect4689"
         width="1"
         height="1"
         x="23"
         y="22"
         rx="0.28125"
         ry="0.28125" />
      <rect
         style="opacity:0.4;fill:#000000;fill-opacity:1;stroke:none;display:inline;enable-background:new"
         id="rect4695"
         width="1"
         height="1"
         x="25.999702"
         y="22"
         rx="0.28125"
         ry="0.28125" />
      <rect
         style="opacity:0.4;fill:#000000;fill-opacity:1;stroke:none;display:inline;enable-background:new"
         id="rect4697"
         width="1"
         height="1"
         x="26.999702"
         y="19"
         rx="0.28125"
         ry="0.28125" />
      <rect
         style="opacity:0.4;fill:#000000;fill-opacity:1;stroke:none;display:inline;enable-background:new"
         id="rect4699"
         width="1"
         height="1"
         x="26.999702"
         y="21"
         rx="0.28125"
         ry="0.28125" />
      <rect
         style="opacity:0.4;fill:#000000;fill-opacity:1;stroke:none;display:inline;enable-background:new"
         id="rect4708"
         width="1"
         height="1"
         x="27.999702"
         y="22"
         rx="0.28125"
         ry="0.28125" />
      <rect
         style="opacity:0.4;fill:#000000;fill-opacity:1;stroke:none"
         id="rect3477"
         width="1"
         height="1"
         x="7"
         y="18"
         rx="0.28125"
         ry="0.28125" />
      <rect
         style="opacity:0.4;fill:#000000;fill-opacity:1;stroke:none;display:inline;enable-background:new"
         id="rect3483"
         width="1"
         height="1"
         x="6"
         y="17"
         rx="0.28125"
         ry="0.28125" />
      <rect
         style="opacity:0.4;fill:#000000;fill-opacity:1;stroke:none;display:inline;enable-background:new"
         id="rect3485"
         width="1"
         height="1"
         x="8"
         y="17"
         rx="0.28125"
         ry="0.28125" />
      <rect
         style="opacity:0.4;fill:#000000;fill-opacity:1;stroke:none;display:inline;enable-background:new"
         id="rect3489"
         width="1"
         height="1"
         x="9"
         y="18"
         rx="0.28125"
         ry="0.28125" />
      <rect
         style="opacity:0.4;fill:#000000;fill-opacity:1;stroke:none"
         id="rect3491"
         width="1"
         height="1"
         x="11"
         y="18"
         rx="0.28125"
         ry="0.28125" />
      <rect
         style="opacity:0.4;fill:#000000;fill-opacity:1;stroke:none;display:inline;enable-background:new"
         id="rect3497"
         width="1"
         height="1"
         x="10"
         y="17"
         rx="0.28125"
         ry="0.28125" />
      <rect
         style="opacity:0.4;fill:#000000;fill-opacity:1;stroke:none;display:inline;enable-background:new"
         id="rect3499"
         width="1"
         height="1"
         x="12"
         y="17"
         rx="0.28125"
         ry="0.28125" />
      <rect
         style="opacity:0.4;fill:#000000;fill-opacity:1;stroke:none;display:inline;enable-background:new"
         id="rect3501"
         width="1"
         height="1"
         x="13"
         y="18"
         rx="0.28125"
         ry="0.28125" />
      <rect
         style="opacity:0.4;fill:#000000;fill-opacity:1;stroke:none;display:inline;enable-background:new"
         id="rect3507"
         width="1"
         height="1"
         x="15"
         y="18"
         rx="0.28125"
         ry="0.28125" />
      <rect
         style="opacity:0.4;fill:#000000;fill-opacity:1;stroke:none;display:inline;enable-background:new"
         id="rect3511"
         width="1"
         height="1"
         x="14"
         y="17"
         rx="0.28125"
         ry="0.28125" />
      <rect
         style="opacity:0.4;fill:#000000;fill-opacity:1;stroke:none;display:inline;enable-background:new"
         id="rect3513"
         width="1"
         height="1"
         x="16"
         y="17"
         rx="0.28125"
         ry="0.28125" />
      <rect
         style="opacity:0.4;fill:#000000;fill-opacity:1;stroke:none;display:inline;enable-background:new"
         id="rect3515"
         width="1"
         height="1"
         x="17"
         y="18"
         rx="0.28125"
         ry="0.28125" />
      <rect
         style="opacity:0.4;fill:#000000;fill-opacity:1;stroke:none;display:inline;enable-background:new"
         id="rect3517"
         width="1"
         height="1"
         x="19"
         y="18"
         rx="0.28125"
         ry="0.28125" />
      <rect
         style="opacity:0.4;fill:#000000;fill-opacity:1;stroke:none;display:inline;enable-background:new"
         id="rect3521"
         width="1"
         height="1"
         x="18"
         y="17"
         rx="0.28125"
         ry="0.28125" />
      <rect
         style="opacity:0.4;fill:#000000;fill-opacity:1;stroke:none;display:inline;enable-background:new"
         id="rect3523"
         width="1"
         height="1"
         x="20"
         y="17"
         rx="0.28125"
         ry="0.28125" />
      <rect
         style="opacity:0.4;fill:#000000;fill-opacity:1;stroke:none;display:inline;enable-background:new"
         id="rect3525"
         width="1"
         height="1"
         x="21"
         y="18"
         rx="0.28125"
         ry="0.28125" />
      <rect
         style="opacity:0.4;fill:#000000;fill-opacity:1;stroke:none;display:inline;enable-background:new"
         id="rect3537"
         width="1"
         height="1"
         x="26.999702"
         y="17"
         rx="0.28125"
         ry="0.28125" />
      <rect
         style="opacity:0.4;fill:#000000;fill-opacity:1;stroke:none;display:inline;enable-background:new"
         id="rect3539"
         width="1"
         height="1"
         x="23.999702"
         y="18"
         rx="0.28125"
         ry="0.28125" />
      <rect
         style="opacity:0.4;fill:#000000;fill-opacity:1;stroke:none;display:inline;enable-background:new"
         id="rect3541"
         width="1"
         height="1"
         x="25.999702"
         y="18"
         rx="0.28125"
         ry="0.28125" />
      <rect
         style="opacity:0.4;fill:#000000;fill-opacity:1;stroke:none;display:inline;enable-background:new"
         id="rect3547"
         width="1"
         height="1"
         x="24.999702"
         y="17"
         rx="0.28125"
         ry="0.28125" />
      <rect
         ry="0.28125"
         rx="0.28125"
         y="22"
         x="21"
         height="1"
         width="1"
         id="rect3119"
         style="opacity:0.4;fill:#000000;fill-opacity:1;stroke:none;display:inline;enable-background:new" />
      <rect
         ry="0.28125"
         rx="0.28125"
         y="19"
         x="22"
         height="1"
         width="1"
         id="rect3121"
         style="opacity:0.4;fill:#000000;fill-opacity:1;stroke:none;display:inline;enable-background:new" />
    </g>
    <rect
       ry="0.5"
       y="26"
       x="1"
       height="1"
       width="30"
       id="rect3117"
       style="fill:#ffffff" />
  </g>
  <g
     id="layer2" />
</svg>
