<?xml version="1.0" encoding="UTF-8" standalone="no"?>
<!-- Created with Inkscape (http://www.inkscape.org/) -->

<svg
   xmlns:dc="http://purl.org/dc/elements/1.1/"
   xmlns:cc="http://creativecommons.org/ns#"
   xmlns:rdf="http://www.w3.org/1999/02/22-rdf-syntax-ns#"
   xmlns:svg="http://www.w3.org/2000/svg"
   xmlns="http://www.w3.org/2000/svg"
   xmlns:xlink="http://www.w3.org/1999/xlink"
   xmlns:sodipodi="http://sodipodi.sourceforge.net/DTD/sodipodi-0.dtd"
   xmlns:inkscape="http://www.inkscape.org/namespaces/inkscape"
   version="1.1"
   width="32"
   height="32"
   id="svg4300"
   inkscape:version="0.48.4 r9939"
   sodipodi:docname="preferences-desktop-peripherals.svg">
  <sodipodi:namedview
     pagecolor="#ffffff"
     bordercolor="#666666"
     borderopacity="1"
     objecttolerance="10"
     gridtolerance="10"
     guidetolerance="10"
     inkscape:pageopacity="0"
     inkscape:pageshadow="2"
     inkscape:window-width="1364"
     inkscape:window-height="700"
     id="namedview68"
     showgrid="false"
     showborder="false"
     inkscape:zoom="1"
     inkscape:cx="11.508096"
     inkscape:cy="21.003387"
     inkscape:window-x="0"
     inkscape:window-y="28"
     inkscape:window-maximized="1"
     inkscape:current-layer="svg4300">
    <inkscape:grid
       type="xygrid"
       id="grid3848" />
  </sodipodi:namedview>
  <defs
     id="defs4302">
    <linearGradient
       inkscape:collect="always"
       id="linearGradient3957">
      <stop
         style="stop-color:#ffffff;stop-opacity:1;"
         offset="0"
         id="stop3959" />
      <stop
         style="stop-color:#ffffff;stop-opacity:0;"
         offset="1"
         id="stop3961" />
    </linearGradient>
    <linearGradient
       inkscape:collect="always"
       id="linearGradient3931">
      <stop
         style="stop-color:#ffffff;stop-opacity:1;"
         offset="0"
         id="stop3933" />
      <stop
         style="stop-color:#ffffff;stop-opacity:0;"
         offset="1"
         id="stop3935" />
    </linearGradient>
    <linearGradient
       inkscape:collect="always"
       id="linearGradient3880">
      <stop
         style="stop-color:#ffffff;stop-opacity:1;"
         offset="0"
         id="stop3882" />
      <stop
         style="stop-color:#ffffff;stop-opacity:0;"
         offset="1"
         id="stop3884" />
    </linearGradient>
    <linearGradient
       id="linearGradient3208-2">
      <stop
         id="stop3210-7"
         style="stop-color:#ffffff;stop-opacity:1"
         offset="0" />
      <stop
         id="stop3212-8"
         style="stop-color:#ffffff;stop-opacity:0"
         offset="1" />
    </linearGradient>
    <linearGradient
       id="linearGradient3600-8-3">
      <stop
         id="stop3602-2-5"
         style="stop-color:#f4f4f4;stop-opacity:1"
         offset="0" />
      <stop
         id="stop3604-5-9"
         style="stop-color:#dbdbdb;stop-opacity:1"
         offset="1" />
    </linearGradient>
    <linearGradient
       id="linearGradient23419-5-0">
      <stop
         id="stop23421-7-7"
         style="stop-color:#000000;stop-opacity:1"
         offset="0" />
      <stop
         id="stop23423-0-7"
         style="stop-color:#000000;stop-opacity:0"
         offset="1" />
    </linearGradient>
    <linearGradient
       id="linearGradient4099">
      <stop
         id="stop4101"
         style="stop-color:#a7a7a7;stop-opacity:1"
         offset="0" />
      <stop
         id="stop4103"
         style="stop-color:#d1d1d1;stop-opacity:1"
         offset="1" />
    </linearGradient>
    <radialGradient
       cx="4.9929786"
       cy="43.5"
       r="2.5"
       fx="4.9929786"
       fy="43.5"
       id="radialGradient3163"
       xlink:href="#linearGradient3688-166-749"
       gradientUnits="userSpaceOnUse"
       gradientTransform="matrix(2.003784,0,0,1.4,27.98813,-17.4)" />
    <linearGradient
       id="linearGradient3688-166-749">
      <stop
         id="stop2883"
         style="stop-color:#181818;stop-opacity:1"
         offset="0" />
      <stop
         id="stop2885"
         style="stop-color:#181818;stop-opacity:0"
         offset="1" />
    </linearGradient>
    <radialGradient
       cx="4.9929786"
       cy="43.5"
       r="2.5"
       fx="4.9929786"
       fy="43.5"
       id="radialGradient3165"
       xlink:href="#linearGradient3688-464-309"
       gradientUnits="userSpaceOnUse"
       gradientTransform="matrix(2.003784,0,0,1.4,-20.01187,-104.4)" />
    <linearGradient
       id="linearGradient3688-464-309">
      <stop
         id="stop2889"
         style="stop-color:#181818;stop-opacity:1"
         offset="0" />
      <stop
         id="stop2891"
         style="stop-color:#181818;stop-opacity:0"
         offset="1" />
    </linearGradient>
    <linearGradient
       x1="25.058096"
       y1="47.027729"
       x2="25.058096"
       y2="39.999443"
       id="linearGradient3167"
       xlink:href="#linearGradient3702-501-757"
       gradientUnits="userSpaceOnUse" />
    <linearGradient
       id="linearGradient3702-501-757">
      <stop
         id="stop2895"
         style="stop-color:#181818;stop-opacity:0"
         offset="0" />
      <stop
         id="stop2897"
         style="stop-color:#181818;stop-opacity:1"
         offset="0.5" />
      <stop
         id="stop2899"
         style="stop-color:#181818;stop-opacity:0"
         offset="1" />
    </linearGradient>
    <linearGradient
       inkscape:collect="always"
       xlink:href="#linearGradient3208-2"
       id="linearGradient3817"
       gradientUnits="userSpaceOnUse"
       gradientTransform="matrix(1.4307233,0,0,0.67711807,-21.489987,-2.3730576)"
       x1="14"
       y1="2"
       x2="32"
       y2="40" />
    <linearGradient
       inkscape:collect="always"
       xlink:href="#linearGradient3600-8-3"
       id="linearGradient3823"
       gradientUnits="userSpaceOnUse"
       gradientTransform="matrix(0.61092353,0,0,0.54242943,5.940347,2.219405)"
       x1="18.601307"
       y1="0.85446119"
       x2="18.601307"
       y2="49.956139" />
    <radialGradient
       inkscape:collect="always"
       xlink:href="#linearGradient23419-5-0"
       id="radialGradient3826"
       gradientUnits="userSpaceOnUse"
       gradientTransform="matrix(0.41984462,0,0,0.13257013,0.203125,22.480299)"
       cx="23.334524"
       cy="41.63604"
       fx="23.334524"
       fy="41.63604"
       r="22.627417" />
    <linearGradient
       inkscape:collect="always"
       xlink:href="#linearGradient4099"
       id="linearGradient3861"
       gradientUnits="userSpaceOnUse"
       x1="18.387106"
       y1="26.209101"
       x2="18.387106"
       y2="8.4976816"
       gradientTransform="translate(0.10563469,0)" />
    <linearGradient
       inkscape:collect="always"
       xlink:href="#linearGradient3880"
       id="linearGradient3886"
       x1="21"
       y1="9"
       x2="21"
       y2="27"
       gradientUnits="userSpaceOnUse" />
    <clipPath
       clipPathUnits="userSpaceOnUse"
       id="clipPath3925">
      <path
         sodipodi:nodetypes="ccccccccccccscccc"
         d="M 9.973523,3.0002484 C 8.320279,3.0391614 6.458226,3.1393485 4.8075902,4.6635946 3.1569544,6.1878408 3.4517739,8.68243 3.1960902,10.595779 c -0.00681,0.01239 -0.013174,0.02503 -0.019061,0.03788 -0.2936586,4.903463 -0.2774201,9.875468 0.4772841,14.774346 -1.034e-4,0.0063 -1.034e-4,0.01261 0,0.01891 0.2454814,1.297009 1.0594097,2.673676 2.9649917,3.198028 1.905582,0.524351 4.361324,0.524538 6.63796,0.0031 1.179151,-0.270484 2.400881,-0.995182 2.825522,-2.310859 0.0019,-0.0054 -0.0019,-0.01328 0,-0.01891 0.554242,-1.571852 0.543509,-3.189994 0.786221,-6.29134 C 17.11172,16.905587 17.090954,12.146307 16.483677,7.4325836 16.399603,6.764092 16.263232,6.028284 15.930028,5.3490214 15.600435,4.6771235 15.061374,4.0693598 13.963097,3.5862641 12.86482,3.1031684 11.3516,3.0531689 10.011729,3.0003086 c -0.012722,-4.117e-4 -0.025458,-4.117e-4 -0.03818,0 z"
         inkscape:connector-curvature="0"
         id="path3927"
         style="color:#000000;fill:url(#linearGradient3929);fill-opacity:1;fill-rule:nonzero;stroke:none;stroke-width:0.99992198;marker:none;visibility:visible;display:inline;overflow:visible;enable-background:accumulate" />
    </clipPath>
    <linearGradient
       inkscape:collect="always"
       xlink:href="#linearGradient3600-8-3"
       id="linearGradient3929"
       gradientUnits="userSpaceOnUse"
       gradientTransform="matrix(0.61092353,0,0,0.54242943,5.940347,2.219405)"
       x1="18.601307"
       y1="0.85446119"
       x2="18.601307"
       y2="49.956139" />
    <linearGradient
       inkscape:collect="always"
       xlink:href="#linearGradient3931"
       id="linearGradient3937"
       x1="10"
       y1="1"
       x2="10"
       y2="30"
       gradientUnits="userSpaceOnUse" />
    <linearGradient
       inkscape:collect="always"
       xlink:href="#linearGradient3600-8-3"
       id="linearGradient3954"
       gradientUnits="userSpaceOnUse"
       gradientTransform="matrix(0.61092353,0,0,0.54242943,5.940347,2.219405)"
       x1="18.601307"
       y1="0.85446119"
       x2="18.601307"
       y2="49.956139" />
    <linearGradient
       inkscape:collect="always"
       xlink:href="#linearGradient3957"
       id="linearGradient3963"
       x1="5"
       y1="0.7342205"
       x2="15"
       y2="15.234221"
       gradientUnits="userSpaceOnUse" />
    <linearGradient
       inkscape:collect="always"
       xlink:href="#linearGradient3600-8-3"
       id="linearGradient3965"
       gradientUnits="userSpaceOnUse"
       gradientTransform="matrix(0.61092353,0,0,0.54242943,-11.309653,2.406905)"
       x1="18.601307"
       y1="0.85446119"
       x2="18.601307"
       y2="49.956139" />
    <linearGradient
       inkscape:collect="always"
       xlink:href="#linearGradient3600-8-3"
       id="linearGradient3975"
       gradientUnits="userSpaceOnUse"
       gradientTransform="matrix(0.61092353,0,0,0.54242943,5.940347,2.219405)"
       x1="18.601307"
       y1="0.85446119"
       x2="18.601307"
       y2="49.956139" />
    <linearGradient
       inkscape:collect="always"
       xlink:href="#linearGradient3600-8-3"
       id="linearGradient3984"
       gradientUnits="userSpaceOnUse"
       gradientTransform="matrix(0.61092353,0,0,0.54242943,5.940347,2.219405)"
       x1="18.601307"
       y1="0.85446119"
       x2="18.601307"
       y2="49.956139" />
    <linearGradient
       inkscape:collect="always"
       xlink:href="#linearGradient3600-8-3"
       id="linearGradient3996"
       gradientUnits="userSpaceOnUse"
       gradientTransform="matrix(0.61092353,0,0,0.54242943,5.940347,2.219405)"
       x1="18.601307"
       y1="0.85446119"
       x2="18.601307"
       y2="49.956139" />
    <radialGradient
       inkscape:collect="always"
       xlink:href="#linearGradient23419-5-0"
       id="radialGradient3061"
       gradientUnits="userSpaceOnUse"
       gradientTransform="matrix(0.41984462,0,0,0.13257013,0.203125,22.480299)"
       cx="23.334524"
       cy="41.63604"
       fx="23.334524"
       fy="41.63604"
       r="22.627417" />
    <linearGradient
       inkscape:collect="always"
       xlink:href="#linearGradient3600-8-3"
       id="linearGradient3063"
       gradientUnits="userSpaceOnUse"
       gradientTransform="matrix(0.61092353,0,0,0.54242943,5.940347,2.219405)"
       x1="18.601307"
       y1="0.85446119"
       x2="18.601307"
       y2="49.956139" />
    <linearGradient
       inkscape:collect="always"
       xlink:href="#linearGradient3931"
       id="linearGradient3065"
       gradientUnits="userSpaceOnUse"
       x1="10"
       y1="1"
       x2="10"
       y2="30" />
    <linearGradient
       inkscape:collect="always"
       xlink:href="#linearGradient3957"
       id="linearGradient3067"
       gradientUnits="userSpaceOnUse"
       x1="5"
       y1="0.7342205"
       x2="15"
       y2="15.234221" />
    <linearGradient
       inkscape:collect="always"
       xlink:href="#linearGradient3957"
       id="linearGradient3073"
       gradientUnits="userSpaceOnUse"
       x1="5"
       y1="0.7342205"
       x2="15"
       y2="15.234221"
       gradientTransform="translate(6,0)" />
    <linearGradient
       inkscape:collect="always"
       xlink:href="#linearGradient3600-8-3"
       id="linearGradient3079"
       gradientUnits="userSpaceOnUse"
       gradientTransform="matrix(0.61092353,0,0,0.54242943,11.940347,2.219405)"
       x1="18.601307"
       y1="0.85446119"
       x2="18.601307"
       y2="49.956139" />
    <radialGradient
       inkscape:collect="always"
       xlink:href="#linearGradient23419-5-0"
       id="radialGradient3082"
       gradientUnits="userSpaceOnUse"
       gradientTransform="matrix(0.41984462,0,0,0.13257013,6.203125,22.480299)"
       cx="23.334524"
       cy="41.63604"
       fx="23.334524"
       fy="41.63604"
       r="22.627417" />
  </defs>
  <metadata
     id="metadata4305">
    <rdf:RDF>
      <cc:Work
         rdf:about="">
        <dc:format>image/svg+xml</dc:format>
        <dc:type
           rdf:resource="http://purl.org/dc/dcmitype/StillImage" />
        <dc:title></dc:title>
      </cc:Work>
    </rdf:RDF>
  </metadata>
  <path
     style="opacity:0.3;fill:url(#radialGradient3082);fill-opacity:1;fill-rule:evenodd;stroke:none;stroke-width:2;marker:none;visibility:visible;display:inline;overflow:visible"
     id="path23417-6"
     inkscape:connector-curvature="0"
     d="M 25.5,27.999999 C 25.500427,29.65681 21.247054,31 16,31 10.752946,31 6.4995114,29.65681 6.5,27.999999 6.4995725,26.343197 10.752946,25 16,25 c 5.247054,0 9.500482,1.343197 9.5,2.999999 l 0,0 z" />
  <path
     inkscape:connector-curvature="0"
     style="color:#000000;fill:url(#linearGradient3079);fill-opacity:1;fill-rule:nonzero;stroke:none;stroke-width:0.99992198;marker:none;visibility:visible;display:inline;overflow:visible;enable-background:accumulate"
     d="m 15.96875,2.5 c -1.664597,0.03918 -3.719705,0.1372731 -5.5,1.78125 C 9.5326598,5.1456635 9.1732622,6.2973696 9,7.40625 8.8284533,8.5041514 8.8044989,9.6015069 8.6875,10.5 c -0.00117,0.009 0.0012,0.02231 0,0.03125 l 0,0.0625 c -0.2936995,4.904146 -0.2841572,9.884529 0.46875,14.8125 -1.933e-4,0.01178 -1.933e-4,0.01947 0,0.03125 0.00158,0.01032 -0.00159,0.02093 0,0.03125 l 0,0.0625 c 0.2710123,1.431902 1.257456,2.988422 3.34375,3.5625 2.01149,0.553493 4.522072,0.570162 6.875,0.03125 1.29548,-0.297169 2.693245,-1.124886 3.1875,-2.65625 2.38e-4,-6.75e-4 0.02778,-0.06216 0.03125,-0.09375 0.0012,-0.01053 -4.81e-4,-0.02218 0,-0.03125 0.0016,-0.01452 -2.97e-4,-0.01977 0,-0.03125 1.5e-5,-0.0077 2.39e-4,-0.02487 0,-0.03125 0.530398,-1.617586 0.54806,-3.270324 0.78125,-6.25 C 23.620989,16.888027 23.581292,12.129589 22.96875,7.375 22.881991,6.685163 22.747321,5.8840066 22.375,5.125 22.00298,4.366612 21.340799,3.646044 20.15625,3.125 18.998326,2.6156676 17.584822,2.5797629 16.3125,2.53125 l 0,-0.03125 -0.28125,0 -0.0625,0 z"
     id="path4487" />
  <path
     inkscape:connector-curvature="0"
     style="font-size:medium;font-style:normal;font-variant:normal;font-weight:normal;font-stretch:normal;text-indent:0;text-align:start;text-decoration:none;line-height:normal;letter-spacing:normal;word-spacing:normal;text-transform:none;direction:ltr;block-progression:tb;writing-mode:lr-tb;text-anchor:start;baseline-shift:baseline;opacity:0.41000001;color:#000000;fill:#000000;fill-opacity:1;stroke:none;stroke-width:2;marker:none;visibility:visible;display:inline;overflow:visible;enable-background:accumulate;font-family:Sans;-inkscape-font-specification:Sans"
     d="M 15.9375,2 C 14.261548,2.0394475 12.034974,2.1737736 10.125,3.9375 9.0781202,4.9042199 8.6819407,6.1793272 8.5,7.34375 8.3270833,8.4504195 8.3158264,9.4796952 8.21875,10.3125 l -0.03125,0.0625 0,0.1875 c -0.2931374,4.894761 -0.2777241,9.897148 0.46875,14.84375 -2.832e-4,0.01725 -2.832e-4,0.014 0,0.03125 l 0,0.09375 c 0.00159,0.01034 -0.00159,0.02091 0,0.03125 l 0,0.0625 c 0.2965471,1.566816 1.420466,3.344938 3.6875,3.96875 2.117414,0.58264 4.695768,0.556388 7.125,0 1.399539,-0.321039 2.954869,-1.220091 3.53125,-2.9375 l 0.03125,0 c 0.0029,-0.0088 -0.0028,-0.02242 0,-0.03125 0.0068,-0.0192 -0.0066,-0.04332 0,-0.0625 0.0132,-0.05222 0.02727,-0.08878 0.03125,-0.125 0.0013,-0.01201 -8.44e-4,-0.02022 0,-0.03125 0.0063,-0.05885 0.03255,-0.08962 0.03125,-0.125 0.516207,-1.664715 0.555626,-3.304508 0.78125,-6.1875 C 24.124267,16.908645 24.086557,12.107961 23.46875,7.3125 23.379306,6.6013142 23.223945,5.7450131 22.8125,4.90625 22.398047,4.0613584 21.645835,3.2152482 20.375,2.65625 19.183525,2.1321595 17.859363,2.076664 16.65625,2.03125 L 16.625,2 16.0625,2 15.9375,2 z m 0.03125,1 c 0.01272,-4.117e-4 0.01853,-4.117e-4 0.03125,0 1.339871,0.05286 2.870473,0.1106543 3.96875,0.59375 1.098277,0.4830957 1.639157,1.0781021 1.96875,1.75 0.333204,0.6792626 0.447176,1.4252584 0.53125,2.09375 0.607277,4.713723 0.648962,9.461153 0.40625,12.5625 -0.242712,3.101346 -0.227008,4.740648 -0.78125,6.3125 -0.424641,1.315677 -1.664599,2.042016 -2.84375,2.3125 -2.276636,0.521438 -4.719418,0.524351 -6.625,0 -1.905582,-0.524352 -2.7232686,-1.890491 -2.96875,-3.1875 -1.034e-4,-0.0063 -1.034e-4,-0.02495 0,-0.03125 C 8.9015458,20.507372 8.8938414,15.528463 9.1875,10.625 9.19339,10.61215 9.18069,10.60614 9.1875,10.59375 9.4431837,8.680401 9.1618642,6.1804962 10.8125,4.65625 12.463136,3.1320039 14.315506,3.038913 15.96875,3 z"
     id="path3911" />
  <path
     sodipodi:nodetypes="ccccccccccccsccc"
     d="M 10.80759,4.6635946 C 9.1569544,6.1878408 9.4517739,8.68243 9.1960902,10.595779 c -0.00681,0.01239 -0.013174,0.02503 -0.019061,0.03788 -0.2936586,4.903463 -0.2774201,9.875468 0.4772841,14.774346 -1.034e-4,0.0063 -1.034e-4,0.01261 0,0.01891 0.2454814,1.297009 1.0594097,2.673676 2.9649917,3.198028 1.905582,0.524351 4.361324,0.524538 6.63796,0.0031 1.179151,-0.270484 2.400881,-0.995182 2.825522,-2.310859 0.0019,-0.0054 -0.0019,-0.01328 0,-0.01891 0.554242,-1.571852 0.543509,-3.189994 0.706381,-4.659603 0.0065,-0.0062 0.01286,-0.01246 0.01907,-0.01891 C 23.11172,16.905587 23.090954,12.146307 22.483677,7.4325836 22.399603,6.764092 22.263232,6.028284 21.930028,5.3490214 21.600435,4.6771235 21.061374,4.0693598 19.963097,3.5862641 18.86482,3.1031684 17.3516,3.0531689 15.83594,3.0461652 c -1.515661,-0.007 -3.377714,0.093183 -5.02835,1.6174294 z"
     inkscape:connector-curvature="0"
     id="path3892"
     style="color:#000000;fill:none;stroke:none;stroke-width:0.99992198;marker:none;visibility:visible;display:inline;overflow:visible;enable-background:accumulate" />
  <path
     style="font-size:medium;font-style:normal;font-variant:normal;font-weight:normal;font-stretch:normal;text-indent:0;text-align:start;text-decoration:none;line-height:normal;letter-spacing:normal;word-spacing:normal;text-transform:none;direction:ltr;block-progression:tb;writing-mode:lr-tb;text-anchor:start;baseline-shift:baseline;opacity:0.05;color:#000000;fill:url(#linearGradient3065);fill-opacity:1;stroke:none;stroke-width:2;marker:none;visibility:visible;display:inline;overflow:visible;enable-background:accumulate;font-family:Sans;-inkscape-font-specification:Sans"
     d="M 9.9375,2 C 8.2615481,2.0394475 6.0349737,2.1737736 4.125,3.9375 3.0781202,4.9042199 2.6819407,6.1793272 2.5,7.34375 2.3270833,8.4504195 2.3158264,9.4796952 2.21875,10.3125 l -0.03125,0.0625 0,0.1875 c -0.2931374,4.894761 -0.2777241,9.897148 0.46875,14.84375 -2.832e-4,0.01725 -2.832e-4,0.014 0,0.03125 l 0,0.09375 c 0.00159,0.01034 -0.00159,0.02091 0,0.03125 l 0,0.0625 c 0.2965471,1.566816 1.4204656,3.344938 3.6875,3.96875 2.117414,0.58264 4.695768,0.556388 7.125,0 1.399539,-0.321039 2.954869,-1.220091 3.53125,-2.9375 l 0.03125,0 c 0.0029,-0.0088 -0.0028,-0.02242 0,-0.03125 0.0068,-0.0192 -0.0066,-0.04332 0,-0.0625 0.0132,-0.05222 0.02727,-0.08878 0.03125,-0.125 0.0013,-0.01201 -8.44e-4,-0.02022 0,-0.03125 0.0063,-0.05885 0.03255,-0.08962 0.03125,-0.125 0.516207,-1.664715 0.555626,-3.304508 0.78125,-6.1875 C 18.124267,16.908645 18.086557,12.107961 17.46875,7.3125 17.379306,6.6013142 17.223945,5.7450131 16.8125,4.90625 16.398047,4.0613584 15.645835,3.2152482 14.375,2.65625 13.183525,2.1321595 11.859363,2.076664 10.65625,2.03125 L 10.625,2 10.0625,2 9.9375,2 z M 9.96875,4 C 9.97759,4.0002861 9.991158,4.0002861 10,4 c 1.334638,0.053273 2.757751,0.1460176 3.5625,0.5 0.925719,0.4071932 1.224017,0.7823458 1.46875,1.28125 0.254963,0.5197621 0.390046,1.1554526 0.46875,1.78125 0.596747,4.631986 0.611157,9.357411 0.375,12.375 -0.245002,3.130606 -0.268677,4.6662 -0.75,6.03125 -3.3e-5,9.9e-5 0.0014,0.02579 0,0.03125 -0.285402,0.88427 -1.147275,1.439139 -2.09375,1.65625 -2.12404,0.486488 -4.4625,0.466062 -6.15625,0 -1.4956454,-0.411551 -2.0106042,-1.32163 -2.21875,-2.3125 l 0,-0.03125 0,-0.0625 C 3.9182999,20.459875 3.8983299,15.569538 4.1875,10.71875 4.18892,10.7081 4.18611,10.69816 4.1875,10.6875 4.3251766,9.6345006 4.3229955,8.5578307 4.46875,7.625 4.6159795,6.6827294 4.896244,5.9637763 5.5,5.40625 6.8821027,4.1299754 8.3508441,4.0386586 9.96875,4 z"
     id="path3905"
     inkscape:connector-curvature="0"
     clip-path="url(#clipPath3925)"
     transform="translate(6,0)" />
  <path
     inkscape:connector-curvature="0"
     style="opacity:0.4;color:#000000;fill:url(#linearGradient3073);fill-opacity:1;fill-rule:nonzero;stroke:none;stroke-width:0.99992198;marker:none;visibility:visible;display:inline;overflow:visible;enable-background:accumulate"
     d="m 15.96875,3 c -1.653244,0.038913 -3.505614,0.1320039 -5.15625,1.65625 -1.6506358,1.5242462 -1.3693163,4.024151 -1.625,5.9375 -0.00681,0.01239 0.00589,0.0184 0,0.03125 -0.096241,1.607017 -0.1416656,3.226996 -0.15625,4.84375 5.612264,-3.392509 8.846133,-5.375131 13.40625,-8.1875 -0.08581,-0.6263074 -0.19222,-1.3100662 -0.5,-1.9375 C 21.607907,4.6718521 21.067027,4.0768457 19.96875,3.59375 18.870473,3.1106543 17.339871,3.0528603 16,3 c -0.01272,-4.117e-4 -0.01853,-4.117e-4 -0.03125,0 z"
     id="path3952" />
  <path
     inkscape:connector-curvature="0"
     style="opacity:0.1;color:#000000;fill:#ffffff;fill-opacity:1;fill-rule:nonzero;stroke:none;stroke-width:0.99992198;marker:none;visibility:visible;display:inline;overflow:visible;enable-background:accumulate"
     d="m 15.96875,3 c -1.653244,0.038913 -3.505614,0.1320039 -5.15625,1.65625 -1.6506358,1.5242462 -1.3693163,4.024151 -1.625,5.9375 -0.00681,0.01239 0.00589,0.0184 0,0.03125 -0.093156,1.55551 -0.1391467,3.122717 -0.15625,4.6875 0.027981,-1.23222 0.082835,-2.461634 0.15625,-3.6875 0.00589,-0.01285 -0.00681,-0.01886 0,-0.03125 C 9.4431837,9.6804012 9.1618642,7.1804962 10.8125,5.65625 12.463136,4.1320039 14.315506,4.038913 15.96875,4 15.981472,3.9995883 15.987278,3.9995883 16,4 c 1.339871,0.05286 2.870473,0.1106543 3.96875,0.59375 1.098277,0.4830957 1.639157,1.0781021 1.96875,1.75 0.333204,0.6792626 0.447176,1.4252584 0.53125,2.09375 0.303639,2.356862 0.480488,4.708296 0.53125,6.875 C 22.9797,12.877758 22.821461,10.175269 22.46875,7.4375 22.384676,6.7690084 22.270704,6.0230126 21.9375,5.34375 21.607907,4.6718521 21.067027,4.0768457 19.96875,3.59375 18.870473,3.1106543 17.339871,3.0528603 16,3 c -0.01272,-4.117e-4 -0.01853,-4.117e-4 -0.03125,0 z"
     id="path3941" />
  <path
     inkscape:connector-curvature="0"
     style="color:#000000;fill:#ffffff;fill-opacity:1;fill-rule:nonzero;stroke:none;stroke-width:0.99992198;marker:none;visibility:visible;display:inline;overflow:visible;enable-background:accumulate"
     d="m 15.96875,3 c -1.653244,0.038913 -3.505614,0.1320039 -5.15625,1.65625 -1.6506358,1.5242462 -1.3693163,4.024151 -1.625,5.9375 -0.00681,0.01239 0.00589,0.0184 0,0.03125 -0.093156,1.55551 -0.1379739,3.121768 -0.15625,4.6875 0.028781,-1.232867 0.082835,-2.461634 0.15625,-3.6875 0.00589,-0.01285 -0.00681,-0.01886 0,-0.03125 C 9.4431837,9.6804014 9.1618642,7.1804962 10.8125,5.65625 12.463136,4.1320039 14.315506,4.038913 15.96875,4 15.981472,3.9995883 15.987278,3.9995883 16,4 c 1.339871,0.05286 2.870473,0.1106543 3.96875,0.59375 1.098277,0.4830957 1.639157,1.0781021 1.96875,1.75 0.333204,0.6792626 0.447176,1.4252584 0.53125,2.09375 0.303639,2.356861 0.475258,4.711259 0.53125,6.875 C 22.97379,12.881109 22.821461,10.175268 22.46875,7.4375 22.384676,6.7690084 22.270704,6.0230126 21.9375,5.34375 21.607907,4.6718521 21.067027,4.0768457 19.96875,3.59375 18.870473,3.1106543 17.339871,3.0528603 16,3 c -0.01272,-4.117e-4 -0.01853,-4.117e-4 -0.03125,0 z"
     id="path3980" />
  <path
     inkscape:connector-curvature="0"
     style="opacity:0.6;color:#000000;fill:#ffffff;fill-opacity:1;fill-rule:nonzero;stroke:none;stroke-width:0.99992198;marker:none;visibility:visible;display:inline;overflow:visible;enable-background:accumulate"
     d="M 23,16.40625 C 22.97927,17.3611 22.93568,18.224663 22.875,19 c -0.242712,3.101346 -0.227008,4.740648 -0.78125,6.3125 -0.424641,1.315677 -1.664599,2.042016 -2.84375,2.3125 -2.276636,0.521438 -4.719418,0.524351 -6.625,0 -1.905582,-0.524352 -2.7232686,-1.890491 -2.96875,-3.1875 -1.034e-4,-0.0063 -1.034e-4,-0.02495 0,-0.03125 -0.3773521,-2.449439 -0.5654432,-4.90498 -0.625,-7.375 0.02873,2.8019 0.1969115,5.596225 0.625,8.375 -1.034e-4,0.0063 -1.034e-4,0.02495 0,0.03125 0.2454814,1.297009 1.063168,2.663148 2.96875,3.1875 1.905582,0.524351 4.348364,0.521438 6.625,0 1.179151,-0.270484 2.419109,-0.996823 2.84375,-2.3125 C 22.647992,24.740648 22.632288,23.101346 22.875,20 22.955291,18.974049 22.992134,17.731664 23,16.40625 z"
     id="path3992" />
</svg>
