<?xml version="1.0" encoding="UTF-8" standalone="no"?>
<!-- Created with Inkscape (http://www.inkscape.org/) -->

<svg
   xmlns:dc="http://purl.org/dc/elements/1.1/"
   xmlns:cc="http://creativecommons.org/ns#"
   xmlns:rdf="http://www.w3.org/1999/02/22-rdf-syntax-ns#"
   xmlns:svg="http://www.w3.org/2000/svg"
   xmlns="http://www.w3.org/2000/svg"
   xmlns:xlink="http://www.w3.org/1999/xlink"
   xmlns:sodipodi="http://sodipodi.sourceforge.net/DTD/sodipodi-0.dtd"
   xmlns:inkscape="http://www.inkscape.org/namespaces/inkscape"
   version="1.1"
   width="48"
   height="48"
   id="svg3759"
   inkscape:version="0.48.4 r9939"
   sodipodi:docname="document-photoshop.svg"
   inkscape:export-filename="/home/sam/faba-internet-mail.png"
   inkscape:export-xdpi="90"
   inkscape:export-ydpi="90">
  <sodipodi:namedview
     pagecolor="#ffffff"
     bordercolor="#666666"
     borderopacity="1"
     objecttolerance="10"
     gridtolerance="10"
     guidetolerance="10"
     inkscape:pageopacity="0"
     inkscape:pageshadow="2"
     inkscape:window-width="1364"
     inkscape:window-height="700"
     id="namedview36"
     showgrid="false"
     inkscape:zoom="5.6568542"
     inkscape:cx="25.697069"
     inkscape:cy="37.289625"
     inkscape:window-x="0"
     inkscape:window-y="28"
     inkscape:window-maximized="1"
     inkscape:current-layer="layer1"
     inkscape:snap-bbox="true"
     inkscape:bbox-paths="true"
     inkscape:bbox-nodes="true"
     inkscape:snap-bbox-edge-midpoints="true"
     inkscape:snap-bbox-midpoints="true"
     showguides="true"
     inkscape:guide-bbox="true"
     inkscape:showpageshadow="true"
     showborder="true">
    <inkscape:grid
       type="xygrid"
       id="grid3818"
       empspacing="4"
       visible="true"
       enabled="true"
       snapvisiblegridlinesonly="true" />
  </sodipodi:namedview>
  <metadata
     id="metadata37">
    <rdf:RDF>
      <cc:Work
         rdf:about="">
        <dc:format>image/svg+xml</dc:format>
        <dc:type
           rdf:resource="http://purl.org/dc/dcmitype/StillImage" />
        <dc:title />
      </cc:Work>
    </rdf:RDF>
  </metadata>
  <defs
     id="defs3761">
    <linearGradient
       id="linearGradient4636"
       inkscape:collect="always">
      <stop
         id="stop4638"
         offset="0"
         style="stop-color:#ffffff;stop-opacity:1;" />
      <stop
         id="stop4640"
         offset="1"
         style="stop-color:#ffffff;stop-opacity:0.49803922" />
    </linearGradient>
    <linearGradient
       inkscape:collect="always"
       id="linearGradient4625">
      <stop
         style="stop-color:#ffffff;stop-opacity:1;"
         offset="0"
         id="stop4627" />
      <stop
         style="stop-color:#ffffff;stop-opacity:0;"
         offset="1"
         id="stop4629" />
    </linearGradient>
    <linearGradient
       id="linearGradient3960">
      <stop
         style="stop-color:#000000;stop-opacity:0;"
         offset="0"
         id="stop3962" />
      <stop
         id="stop3970"
         offset="0.5"
         style="stop-color:#000000;stop-opacity:1;" />
      <stop
         style="stop-color:#000000;stop-opacity:0;"
         offset="1"
         id="stop3964" />
    </linearGradient>
    <linearGradient
       inkscape:collect="always"
       id="linearGradient3952">
      <stop
         style="stop-color:#000000;stop-opacity:1;"
         offset="0"
         id="stop3954" />
      <stop
         style="stop-color:#000000;stop-opacity:0;"
         offset="1"
         id="stop3956" />
    </linearGradient>
    <linearGradient
       inkscape:collect="always"
       id="linearGradient3944">
      <stop
         style="stop-color:#000000;stop-opacity:1;"
         offset="0"
         id="stop3946" />
      <stop
         style="stop-color:#000000;stop-opacity:0;"
         offset="1"
         id="stop3948" />
    </linearGradient>
    <linearGradient
       inkscape:collect="always"
       xlink:href="#outerBackgroundGradient-3"
       id="linearGradient3158"
       gradientUnits="userSpaceOnUse"
       gradientTransform="matrix(0.175,0,0,0.175,-1.20002,-6.0000326)"
       x1="144.00006"
       y1="280.00018"
       x2="144.00006"
       y2="40.000172" />
    <radialGradient
       inkscape:collect="always"
       xlink:href="#linearGradient3944"
       id="radialGradient3950"
       cx="9"
       cy="43.5"
       fx="9"
       fy="43.5"
       r="2"
       gradientTransform="matrix(1,0,0,0.75,0,10.875)"
       gradientUnits="userSpaceOnUse" />
    <radialGradient
       inkscape:collect="always"
       xlink:href="#linearGradient3952"
       id="radialGradient3958"
       cx="40"
       cy="43.5"
       fx="40"
       fy="43.5"
       r="2"
       gradientTransform="matrix(1,0,0,0.75,0,10.875)"
       gradientUnits="userSpaceOnUse" />
    <linearGradient
       inkscape:collect="always"
       xlink:href="#linearGradient3960"
       id="linearGradient3968"
       x1="25"
       y1="45"
       x2="25"
       y2="42"
       gradientUnits="userSpaceOnUse" />
    <linearGradient
       inkscape:collect="always"
       xlink:href="#linearGradient3960"
       id="linearGradient3997"
       gradientUnits="userSpaceOnUse"
       x1="25"
       y1="45"
       x2="25"
       y2="42" />
    <radialGradient
       inkscape:collect="always"
       xlink:href="#linearGradient3952"
       id="radialGradient3999"
       gradientUnits="userSpaceOnUse"
       gradientTransform="matrix(1,0,0,0.75,0,10.875)"
       cx="40"
       cy="43.5"
       fx="40"
       fy="43.5"
       r="2" />
    <radialGradient
       inkscape:collect="always"
       xlink:href="#linearGradient3944"
       id="radialGradient4001"
       gradientUnits="userSpaceOnUse"
       gradientTransform="matrix(1,0,0,0.75,0,10.875)"
       cx="9"
       cy="43.5"
       fx="9"
       fy="43.5"
       r="2" />
    <linearGradient
       id="outerBackgroundGradient-3">
      <stop
         style="stop-color:#24ade7;stop-opacity:1;"
         offset="0"
         id="stop3864-8-6-9" />
      <stop
         style="stop-color:#52cbfe;stop-opacity:1;"
         offset="1"
         id="stop3866-9-1-9" />
    </linearGradient>
    <linearGradient
       y2="40"
       x2="144"
       y1="280"
       x1="144"
       gradientTransform="translate(-14,-284)"
       gradientUnits="userSpaceOnUse"
       id="linearGradient3278"
       xlink:href="#outerBackgroundGradient-3"
       inkscape:collect="always" />
    <linearGradient
       inkscape:collect="always"
       xlink:href="#linearGradient4625"
       id="linearGradient4631"
       x1="3"
       y1="24.5"
       x2="42"
       y2="24.5"
       gradientUnits="userSpaceOnUse"
       gradientTransform="matrix(0,1,-1,0,49,1)" />
    <linearGradient
       inkscape:collect="always"
       xlink:href="#linearGradient4636"
       id="linearGradient4634"
       gradientUnits="userSpaceOnUse"
       gradientTransform="matrix(0,1,-1,0,49,1)"
       x1="3"
       y1="25"
       x2="42.5"
       y2="24.5" />
    <linearGradient
       inkscape:collect="always"
       xlink:href="#outerBackgroundGradient-3"
       id="linearGradient4647"
       gradientUnits="userSpaceOnUse"
       gradientTransform="matrix(0.18064516,0,0,0.17948718,-2.0290529,-6.7308027)"
       x1="144.00006"
       y1="280.00018"
       x2="144.00006"
       y2="40.000172" />
    <linearGradient
       inkscape:collect="always"
       xlink:href="#outerBackgroundGradient-3"
       id="linearGradient4649"
       gradientUnits="userSpaceOnUse"
       gradientTransform="matrix(0.175,0,0,0.175,-1.20002,-6.0000326)"
       x1="144.00006"
       y1="280.00018"
       x2="144.00006"
       y2="40.000172" />
    <radialGradient
       inkscape:collect="always"
       xlink:href="#linearGradient3944"
       id="radialGradient4657"
       gradientUnits="userSpaceOnUse"
       gradientTransform="matrix(1.0571429,0,0,1.25,-1.4,-10.875)"
       cx="9"
       cy="43.5"
       fx="9"
       fy="43.5"
       r="2" />
    <radialGradient
       inkscape:collect="always"
       xlink:href="#linearGradient3952"
       id="radialGradient4660"
       gradientUnits="userSpaceOnUse"
       gradientTransform="matrix(1.0571429,0,0,1.25,-1.4,-10.875)"
       cx="40"
       cy="43.5"
       fx="40"
       fy="43.5"
       r="2" />
    <linearGradient
       inkscape:collect="always"
       xlink:href="#linearGradient3960"
       id="linearGradient4663"
       gradientUnits="userSpaceOnUse"
       x1="25"
       y1="45"
       x2="25"
       y2="42"
       gradientTransform="matrix(1.0571429,0,0,1.6666667,-1.4,-29)" />
    <radialGradient
       inkscape:collect="always"
       xlink:href="#linearGradient3944"
       id="radialGradient4666"
       gradientUnits="userSpaceOnUse"
       gradientTransform="matrix(1,0,0,0.75,0,10.875)"
       cx="9"
       cy="43.5"
       fx="9"
       fy="43.5"
       r="2" />
    <radialGradient
       inkscape:collect="always"
       xlink:href="#linearGradient3952"
       id="radialGradient4669"
       gradientUnits="userSpaceOnUse"
       gradientTransform="matrix(1,0,0,0.75,0,10.875)"
       cx="40"
       cy="43.5"
       fx="40"
       fy="43.5"
       r="2" />
    <linearGradient
       inkscape:collect="always"
       xlink:href="#linearGradient3960"
       id="linearGradient4672"
       gradientUnits="userSpaceOnUse"
       x1="25"
       y1="45"
       x2="25"
       y2="42" />
    <linearGradient
       inkscape:collect="always"
       xlink:href="#outerBackgroundGradient-3"
       id="linearGradient4674"
       gradientUnits="userSpaceOnUse"
       gradientTransform="matrix(0.18064516,0,0,0.17948718,-2.0290529,-6.7308027)"
       x1="144.00006"
       y1="280.00018"
       x2="144.00006"
       y2="40.000172" />
    <linearGradient
       inkscape:collect="always"
       xlink:href="#outerBackgroundGradient-3"
       id="linearGradient4676"
       gradientUnits="userSpaceOnUse"
       gradientTransform="matrix(0.175,0,0,0.175,-1.20002,-6.0000326)"
       x1="144.00006"
       y1="280.00018"
       x2="144.00006"
       y2="40.000172" />
    <linearGradient
       inkscape:collect="always"
       xlink:href="#linearGradient4636"
       id="linearGradient4678"
       gradientUnits="userSpaceOnUse"
       gradientTransform="matrix(0,1,-1,0,49,1)"
       x1="3"
       y1="25"
       x2="42.5"
       y2="24.5" />
    <linearGradient
       inkscape:collect="always"
       xlink:href="#linearGradient4636"
       id="linearGradient4681"
       gradientUnits="userSpaceOnUse"
       gradientTransform="matrix(0,1,-1,0,49,1)"
       x1="3"
       y1="25"
       x2="42"
       y2="24.5" />
    <linearGradient
       inkscape:collect="always"
       xlink:href="#outerBackgroundGradient-3"
       id="linearGradient4684"
       gradientUnits="userSpaceOnUse"
       gradientTransform="matrix(0.175,0,0,0.175,-68.700022,-4.5000316)"
       x1="144.00006"
       y1="280.00018"
       x2="144.00006"
       y2="40.000172" />
    <linearGradient
       inkscape:collect="always"
       xlink:href="#outerBackgroundGradient-3"
       id="linearGradient4688"
       gradientUnits="userSpaceOnUse"
       gradientTransform="matrix(0.18064516,0,0,0.17948718,-51.029053,-5.7308027)"
       x1="144.00006"
       y1="280.00018"
       x2="144.00006"
       y2="40.000172" />
  </defs>
  <g
     inkscape:groupmode="layer"
     id="layer1"
     inkscape:label="Background">
    <g
       id="g4690">
      <rect
         style="opacity:0.12000002;fill:url(#linearGradient4663);fill-opacity:1;stroke:none"
         id="rect3985"
         width="32.771431"
         height="5"
         x="8.1142864"
         y="41" />
      <path
         style="opacity:0.12000002;fill:url(#radialGradient4660);fill-opacity:1;stroke:none"
         d="m 40.885716,41.000001 0,5 0.528571,0 c 0.878486,0 1.585715,-1.115 1.585715,-2.5 0,-1.385 -0.707229,-2.5 -1.585715,-2.5 l -0.528571,0 z"
         id="path3987"
         inkscape:connector-curvature="0" />
      <path
         style="opacity:0.12000002;fill:url(#radialGradient4657);fill-opacity:1;stroke:none"
         d="m 7.4866075,41.000001 c -0.8235804,0 -1.4866072,1.045312 -1.4866072,2.34375 l 0,0.3125 c 0,1.298439 0.6630268,2.34375 1.4866072,2.34375 l 0.6276786,0 0,-5 -0.6276786,0 z"
         id="path3989"
         inkscape:connector-curvature="0" />
      <rect
         y="42"
         x="9"
         height="3"
         width="31"
         id="rect3938"
         style="opacity:0.12000002;fill:url(#linearGradient4672);fill-opacity:1;stroke:none" />
      <path
         id="rect3940"
         d="m 40,42 0,3 0.5,0 C 41.331,45 42,44.331 42,43.5 42,42.669 41.331,42 40.5,42 L 40,42 z"
         style="opacity:0.12000002;fill:url(#radialGradient4669);fill-opacity:1;stroke:none"
         inkscape:connector-curvature="0" />
      <path
         id="rect3942"
         d="M 8.40625,42 C 7.6271875,42 7,42.627187 7,43.40625 l 0,0.1875 C 7,44.372813 7.6271875,45 8.40625,45 L 9,45 9,42 8.40625,42 z"
         style="opacity:0.12000002;fill:url(#radialGradient4666);fill-opacity:1;stroke:none"
         inkscape:connector-curvature="0" />
    </g>
    <rect
       ry="0"
       y="3.5"
       x="-40.5"
       height="40"
       width="32"
       id="rect4645"
       style="color:#bebebe;fill:url(#linearGradient4688);fill-opacity:1;fill-rule:nonzero;stroke:none;stroke-width:0;marker:none;visibility:visible;display:inline;overflow:visible;enable-background:accumulate"
       transform="scale(-1,1)" />
    <path
       style="opacity:0.60999999999999999;color:#bebebe;fill:#1e7faa;fill-opacity:1;fill-rule:nonzero;stroke:none;stroke-width:0;marker:none;visibility:visible;display:inline;overflow:visible;enable-background:accumulate"
       d="M 9,3 C 8.446,3 8,3.446 8,4 l 0,39 c 0,0.554 0.446,1 1,1 l 31,0 c 0.554,0 1,-0.446 1,-1 L 41,4 C 41,3.446 40.554,3 40,3 L 9,3 z M 9,4 40,4 40,43 9,43 9,4 z"
       id="rect3886"
       inkscape:connector-curvature="0" />
    <path
       style="opacity:0.40000000000000002;fill:url(#linearGradient4681);fill-opacity:1;stroke:none"
       d="m 9,4 0,39 30,0 1,0 L 40,4 39,4 9,4 z m 1,1 29,0 0,37 -29,0 0,-37 z"
       id="path3893"
       inkscape:connector-curvature="0" />
  </g>
  <g
     inkscape:groupmode="layer"
     id="layer2"
     inkscape:label="Symbol">
    <path
       sodipodi:nodetypes="ssssssssssscsssssssssssssccsssssssscscsccsscsssss"
       inkscape:connector-curvature="0"
       id="path4706"
       d="m 31.06666,32.856837 c 1.16003,-0.3012 2.14219,-1.0392 2.56273,-1.9256 0.28357,-0.5977 0.37061,-1.0198 0.37061,-1.7974 0,-1.0153 -0.27843,-1.7216 -0.95753,-2.4288 -0.49021,-0.5105 -1.00509,-0.8606 -2.17774,-1.481 -1.18923,-0.6292 -1.68166,-0.9875 -1.85814,-1.352 -0.077,-0.159 -0.13993,-0.3706 -0.13993,-0.4702 0,-0.458 0.35148,-0.8673 0.9,-1.0483 0.66172,-0.2182 2.20875,-0.019 3.14268,0.4042 0.24645,0.1118 0.47337,0.1779 0.50426,0.147 0.0309,-0.031 0.0479,-0.6087 0.0379,-1.284 l -0.0182,-1.2279 -0.23333,-0.1113 c -0.74023,-0.3528 -3.12814,-0.4933 -4.06667,-0.2392 -2.24929,0.6091 -3.39294,2.5992 -2.72875,4.7482 0.31234,1.0106 1.02019,1.6946 2.65902,2.5693 1.08604,0.5796 1.56209,0.8966 1.88711,1.2563 0.28591,0.3165 0.34377,0.496 0.30152,0.9357 -0.0401,0.4172 -0.2035,0.6317 -0.65223,0.8563 -0.34333,0.1719 -0.41757,0.183 -1.16667,0.1745 -0.99244,-0.011 -1.61329,-0.1636 -2.51335,-0.6166 -0.35567,-0.179 -0.66317,-0.3089 -0.68333,-0.2888 -0.0555,0.055 -0.0419,2.5034 0.0144,2.5888 0.14039,0.2132 1.02084,0.5197 1.91564,0.6667 0.71094,0.1169 2.31957,0.075 2.9,-0.076 z M 16.8,29.700237 l 0,-3.0582 1.31666,-0.037 c 1.44859,-0.04 1.95697,-0.1236 2.89508,-0.4749 0.83945,-0.3144 1.28194,-0.5997 1.93196,-1.2456 0.48639,-0.4834 0.62581,-0.6737 0.88751,-1.2117 0.40396,-0.8304 0.56673,-1.6021 0.56792,-2.6924 0.001,-1.68647 -0.43457,-2.90721 -1.3796,-3.85919 -0.82943,-0.83552 -1.88454,-1.29455 -3.45287,-1.50216 -0.77368,-0.10241 -5.20989,-0.0474 -5.42415,0.0673 L 14,15.762587 l 0,8.45325 c 0,4.6492 0.02,8.4732 0.0444,8.4976 0.0244,0.024 0.65444,0.044 1.4,0.044 l 1.35556,0 z m 0.11666,-5.583 C 16.80781,24.084237 16.8,23.881637 16.8,21.091637 l 0,-2.99034 0.37814,-0.0472 c 0.6281,-0.0785 2.00304,0.009 2.46947,0.15724 1.30083,0.41323 1.95239,1.3503 1.95239,2.8079 0,1.5938 -0.76376,2.6229 -2.20621,2.9728 -0.42192,0.1023 -2.24783,0.1946 -2.47713,0.1252 z"
       style="fill:#000000;fill-opacity:1;display:inline;opacity:0.2" />
    <path
       style="fill:#ffffff;fill-opacity:1;display:inline"
       d="m 31.06666,31.856837 c 1.16003,-0.3012 2.14219,-1.0392 2.56273,-1.9256 0.28357,-0.5977 0.37061,-1.0198 0.37061,-1.7974 0,-1.0153 -0.27843,-1.7216 -0.95753,-2.4288 -0.49021,-0.5105 -1.00509,-0.8606 -2.17774,-1.481 -1.18923,-0.6292 -1.68166,-0.9875 -1.85814,-1.352 -0.077,-0.159 -0.13993,-0.3706 -0.13993,-0.4702 0,-0.458 0.35148,-0.8673 0.9,-1.0483 0.66172,-0.2182 2.20875,-0.019 3.14268,0.4042 0.24645,0.1118 0.47337,0.1779 0.50426,0.147 0.0309,-0.031 0.0479,-0.6087 0.0379,-1.284 l -0.0182,-1.2279 -0.23333,-0.1113 c -0.74023,-0.3528 -3.12814,-0.4933 -4.06667,-0.2392 -2.24929,0.6091 -3.39294,2.5992 -2.72875,4.7482 0.31234,1.0106 1.02019,1.6946 2.65902,2.5693 1.08604,0.5796 1.56209,0.8966 1.88711,1.2563 0.28591,0.3165 0.34377,0.496 0.30152,0.9357 -0.0401,0.4172 -0.2035,0.6317 -0.65223,0.8563 -0.34333,0.1719 -0.41757,0.183 -1.16667,0.1745 -0.99244,-0.011 -1.61329,-0.1636 -2.51335,-0.6166 -0.35567,-0.179 -0.66317,-0.3089 -0.68333,-0.2888 -0.0555,0.055 -0.0419,2.5034 0.0144,2.5888 0.14039,0.2132 1.02084,0.5197 1.91564,0.6667 0.71094,0.1169 2.31957,0.075 2.9,-0.076 z M 16.8,28.700237 l 0,-3.0582 1.31666,-0.037 c 1.44859,-0.04 1.95697,-0.1236 2.89508,-0.4749 0.83945,-0.3144 1.28194,-0.5997 1.93196,-1.2456 0.48639,-0.4834 0.62581,-0.6737 0.88751,-1.2117 0.40396,-0.8304 0.56673,-1.6021 0.56792,-2.6924 0.001,-1.68647 -0.43457,-2.90721 -1.3796,-3.85919 -0.82943,-0.83552 -1.88454,-1.29455 -3.45287,-1.50216 -0.77368,-0.10241 -5.20989,-0.0474 -5.42415,0.0673 L 14,14.762587 l 0,8.45325 c 0,4.6492 0.02,8.4732 0.0444,8.4976 0.0244,0.024 0.65444,0.044 1.4,0.044 l 1.35556,0 z m 0.11666,-5.583 C 16.80781,23.084237 16.8,22.881637 16.8,20.091637 l 0,-2.99034 0.37814,-0.0472 c 0.6281,-0.0785 2.00304,0.009 2.46947,0.15724 1.30083,0.41323 1.95239,1.3503 1.95239,2.8079 0,1.5938 -0.76376,2.6229 -2.20621,2.9728 -0.42192,0.1023 -2.24783,0.1946 -2.47713,0.1252 z"
       id="path7517"
       inkscape:connector-curvature="0"
       sodipodi:nodetypes="ssssssssssscsssssssssssssccsssssssscscsccsscsssss" />
  </g>
</svg>
