<?xml version="1.0" encoding="UTF-8" standalone="no"?>
<!-- Created with Inkscape (http://www.inkscape.org/) -->

<svg
   xmlns:dc="http://purl.org/dc/elements/1.1/"
   xmlns:cc="http://creativecommons.org/ns#"
   xmlns:rdf="http://www.w3.org/1999/02/22-rdf-syntax-ns#"
   xmlns:svg="http://www.w3.org/2000/svg"
   xmlns="http://www.w3.org/2000/svg"
   xmlns:xlink="http://www.w3.org/1999/xlink"
   xmlns:sodipodi="http://sodipodi.sourceforge.net/DTD/sodipodi-0.dtd"
   xmlns:inkscape="http://www.inkscape.org/namespaces/inkscape"
   version="1.1"
   width="48"
   height="48"
   id="svg3759"
   inkscape:version="0.48.4 r9939"
   sodipodi:docname="unknown.svg"
   inkscape:export-filename="/home/sam/faba-internet-mail.png"
   inkscape:export-xdpi="90"
   inkscape:export-ydpi="90">
  <sodipodi:namedview
     pagecolor="#ffffff"
     bordercolor="#666666"
     borderopacity="1"
     objecttolerance="10"
     gridtolerance="10"
     guidetolerance="10"
     inkscape:pageopacity="0"
     inkscape:pageshadow="2"
     inkscape:window-width="1364"
     inkscape:window-height="700"
     id="namedview36"
     showgrid="false"
     inkscape:zoom="1"
     inkscape:cx="24.265164"
     inkscape:cy="23"
     inkscape:window-x="0"
     inkscape:window-y="28"
     inkscape:window-maximized="1"
     inkscape:current-layer="layer1"
     inkscape:snap-bbox="true"
     inkscape:bbox-paths="true"
     inkscape:bbox-nodes="true"
     inkscape:snap-bbox-edge-midpoints="true"
     inkscape:snap-bbox-midpoints="true"
     showguides="true"
     inkscape:guide-bbox="true"
     inkscape:showpageshadow="true"
     showborder="true">
    <inkscape:grid
       type="xygrid"
       id="grid3818"
       empspacing="4"
       visible="true"
       enabled="true"
       snapvisiblegridlinesonly="true" />
  </sodipodi:namedview>
  <metadata
     id="metadata37">
    <rdf:RDF>
      <cc:Work
         rdf:about="">
        <dc:format>image/svg+xml</dc:format>
        <dc:type
           rdf:resource="http://purl.org/dc/dcmitype/StillImage" />
        <dc:title />
      </cc:Work>
    </rdf:RDF>
  </metadata>
  <defs
     id="defs3761">
    <linearGradient
       id="linearGradient4780">
      <stop
         style="stop-color:#000000;stop-opacity:1;"
         offset="0"
         id="stop4782" />
      <stop
         style="stop-color:#000000;stop-opacity:0.49803922;"
         offset="1"
         id="stop4784" />
    </linearGradient>
    <linearGradient
       id="linearGradient3960">
      <stop
         style="stop-color:#000000;stop-opacity:0;"
         offset="0"
         id="stop3962" />
      <stop
         id="stop3970"
         offset="0.5"
         style="stop-color:#000000;stop-opacity:1;" />
      <stop
         style="stop-color:#000000;stop-opacity:0;"
         offset="1"
         id="stop3964" />
    </linearGradient>
    <linearGradient
       inkscape:collect="always"
       id="linearGradient3952">
      <stop
         style="stop-color:#000000;stop-opacity:1;"
         offset="0"
         id="stop3954" />
      <stop
         style="stop-color:#000000;stop-opacity:0;"
         offset="1"
         id="stop3956" />
    </linearGradient>
    <linearGradient
       inkscape:collect="always"
       id="linearGradient3944">
      <stop
         style="stop-color:#000000;stop-opacity:1;"
         offset="0"
         id="stop3946" />
      <stop
         style="stop-color:#000000;stop-opacity:0;"
         offset="1"
         id="stop3948" />
    </linearGradient>
    <linearGradient
       id="linearGradient4520">
      <stop
         id="stop4522"
         offset="0"
         style="stop-color:#571746;stop-opacity:1;" />
      <stop
         style="stop-color:#8a2c48;stop-opacity:1;"
         offset="0.36206895"
         id="stop4524" />
      <stop
         id="stop4526"
         offset="1"
         style="stop-color:#af5c25;stop-opacity:1;" />
    </linearGradient>
    <linearGradient
       id="linearGradient3810">
      <stop
         style="stop-color:#4cc7e0;stop-opacity:1;"
         offset="0"
         id="stop3812" />
      <stop
         style="stop-color:#2061be;stop-opacity:1;"
         offset="1"
         id="stop3814" />
    </linearGradient>
    <linearGradient
       id="linearGradient4873">
      <stop
         id="stop4875"
         style="stop-color:#ffffff;stop-opacity:1"
         offset="0" />
      <stop
         id="stop4877"
         style="stop-color:#ffffff;stop-opacity:0"
         offset="1" />
    </linearGradient>
    <linearGradient
       inkscape:collect="always"
       xlink:href="#linearGradient4873"
       id="linearGradient3017"
       gradientUnits="userSpaceOnUse"
       gradientTransform="matrix(2.1153734,0,0,2.1153252,-107.57708,31.426557)"
       x1="62.200409"
       y1="-12.489107"
       x2="62.200409"
       y2="-1.4615115" />
    <linearGradient
       inkscape:collect="always"
       xlink:href="#linearGradient3810"
       id="linearGradient3816"
       x1="4.5000031"
       y1="24"
       x2="43.500003"
       y2="24"
       gradientUnits="userSpaceOnUse"
       gradientTransform="matrix(0,1,-1,0,48.000003,-3e-6)" />
    <linearGradient
       inkscape:collect="always"
       xlink:href="#linearGradient3988"
       id="linearGradient3965"
       gradientUnits="userSpaceOnUse"
       x1="287.72006"
       y1="116.2613"
       x2="287.72006"
       y2="31.772648" />
    <linearGradient
       id="linearGradient3988">
      <stop
         style="stop-color:#eeeeec;stop-opacity:1;"
         offset="0"
         id="stop3990" />
      <stop
         style="stop-color:#ffffff;stop-opacity:1;"
         offset="1"
         id="stop3992" />
    </linearGradient>
    <linearGradient
       inkscape:collect="always"
       xlink:href="#linearGradient3810"
       id="linearGradient3882"
       gradientUnits="userSpaceOnUse"
       gradientTransform="matrix(0,1,-1,0,48.000003,-3e-6)"
       x1="4.5000031"
       y1="24"
       x2="43.500003"
       y2="24" />
    <radialGradient
       inkscape:collect="always"
       xlink:href="#linearGradient26113-9-3-1"
       id="radialGradient3755"
       gradientUnits="userSpaceOnUse"
       gradientTransform="matrix(1,0,0,0.37,0,24.5124)"
       cx="24.849752"
       cy="38.908627"
       fx="24.849752"
       fy="38.908627"
       r="20.203051" />
    <linearGradient
       inkscape:collect="always"
       id="linearGradient26113-9-3-1">
      <stop
         style="stop-color: rgb(0, 0, 0); stop-opacity: 1;"
         offset="0"
         id="stop26115-7-7-9" />
      <stop
         style="stop-color: rgb(0, 0, 0); stop-opacity: 0;"
         offset="1"
         id="stop26117-3-7-8" />
    </linearGradient>
    <linearGradient
       inkscape:collect="always"
       id="linearGradient26121-3-8-2">
      <stop
         style="stop-color: rgb(0, 0, 0); stop-opacity: 1;"
         offset="0"
         id="stop26123-4-7-8" />
      <stop
         style="stop-color: rgb(0, 0, 0); stop-opacity: 0;"
         offset="1"
         id="stop26125-3-9-9" />
    </linearGradient>
    <radialGradient
       r="20.203051"
       fy="38.908627"
       fx="24.849752"
       cy="38.908627"
       cx="24.849752"
       gradientTransform="matrix(1.00851,0,0,0.373148,-0.211403,24.39)"
       gradientUnits="userSpaceOnUse"
       id="radialGradient4274"
       xlink:href="#linearGradient26121-3-8-2"
       inkscape:collect="always" />
    <linearGradient
       inkscape:collect="always"
       xlink:href="#linearGradient4134"
       id="linearGradient4140"
       x1="789"
       y1="256"
       x2="827"
       y2="256"
       gradientUnits="userSpaceOnUse" />
    <linearGradient
       inkscape:collect="always"
       id="linearGradient4134">
      <stop
         style="stop-color:#ffffff;stop-opacity:1;"
         offset="0"
         id="stop4136" />
      <stop
         style="stop-color:#ffffff;stop-opacity:0;"
         offset="1"
         id="stop4138" />
    </linearGradient>
    <clipPath
       clipPathUnits="userSpaceOnUse"
       id="clipPath4130">
      <path
         id="path4132"
         d="M 790.4375,237 C 789.62555,237 789,237.62555 789,238.4375 l 0,35.09375 c 0,0.812 0.62555,1.46875 1.4375,1.46875 l 35.125,0 c 0.81195,0 1.4375,-0.65675 1.4375,-1.46875 l 0,-35.09375 C 827,237.62555 826.37445,237 825.5625,237 l -35.125,0 z"
         style="fill:#ba2222;fill-opacity:1;stroke:none"
         inkscape:connector-curvature="0" />
    </clipPath>
    <linearGradient
       inkscape:collect="always"
       xlink:href="#linearGradient5618"
       id="linearGradient4083"
       x1="-1023.8622"
       y1="-808"
       x2="-984.86218"
       y2="-808"
       gradientUnits="userSpaceOnUse"
       gradientTransform="translate(980.3622,784)" />
    <linearGradient
       id="linearGradient5618">
      <stop
         style="stop-color:#3e3e3e;stop-opacity:1;"
         offset="0"
         id="stop5620" />
      <stop
         style="stop-color:#595959;stop-opacity:1;"
         offset="1"
         id="stop5622" />
    </linearGradient>
    <linearGradient
       id="linearGradient4094">
      <stop
         style="stop-color:#e28192;stop-opacity:1;"
         offset="0"
         id="stop4096" />
      <stop
         id="stop4317"
         offset="0.25862068"
         style="stop-color:#f7d6c7;stop-opacity:1;" />
      <stop
         style="stop-color:#fffee4;stop-opacity:1;"
         offset="1"
         id="stop4098" />
    </linearGradient>
    <clipPath
       clipPathUnits="userSpaceOnUse"
       id="clipPath14228">
      <rect
         style="color:#bebebe;fill:url(#linearGradient14232);fill-opacity:1;fill-rule:nonzero;stroke:none;stroke-width:0;marker:none;visibility:visible;display:inline;overflow:visible;enable-background:accumulate"
         id="rect14230"
         width="32"
         height="42"
         x="312"
         y="231"
         ry="0" />
    </clipPath>
    <clipPath
       clipPathUnits="userSpaceOnUse"
       id="clipPath3449">
      <rect
         style="color:#bebebe;fill:url(#linearGradient14232);fill-opacity:1;fill-rule:nonzero;stroke:none;stroke-width:0;marker:none;visibility:visible;display:inline;overflow:visible;enable-background:accumulate"
         id="rect3451"
         width="32"
         height="42"
         x="312"
         y="231"
         ry="0" />
    </clipPath>
    <linearGradient
       inkscape:collect="always"
       xlink:href="#linearGradient3988-5"
       id="linearGradient4030"
       x1="304.00003"
       y1="228"
       x2="352.00003"
       y2="228"
       gradientUnits="userSpaceOnUse" />
    <linearGradient
       id="linearGradient3988-5">
      <stop
         style="stop-color:#ededed;stop-opacity:1;"
         offset="0"
         id="stop3990-5" />
      <stop
         style="stop-color:#fafafa;stop-opacity:1;"
         offset="1"
         id="stop3992-0" />
    </linearGradient>
    <clipPath
       clipPathUnits="userSpaceOnUse"
       id="clipPath3457">
      <rect
         style="color:#bebebe;fill:url(#linearGradient14232);fill-opacity:1;fill-rule:nonzero;stroke:none;stroke-width:0;marker:none;visibility:visible;display:inline;overflow:visible;enable-background:accumulate"
         id="rect3459"
         width="32"
         height="42"
         x="312"
         y="231"
         ry="0" />
    </clipPath>
    <clipPath
       clipPathUnits="userSpaceOnUse"
       id="clipPath3461">
      <rect
         style="color:#bebebe;fill:url(#linearGradient14232);fill-opacity:1;fill-rule:nonzero;stroke:none;stroke-width:0;marker:none;visibility:visible;display:inline;overflow:visible;enable-background:accumulate"
         id="rect3463"
         width="32"
         height="42"
         x="312"
         y="231"
         ry="0" />
    </clipPath>
    <linearGradient
       id="outerBackgroundGradient">
      <stop
         style="stop-color:#8c166c;stop-opacity:1;"
         offset="0"
         id="stop3864-8-6" />
      <stop
         id="stop4409"
         offset="0.36206895"
         style="stop-color:#ca3561;stop-opacity:1;" />
      <stop
         style="stop-color:#f38f4e;stop-opacity:1;"
         offset="1"
         id="stop3866-9-1" />
    </linearGradient>
    <linearGradient
       inkscape:collect="always"
       xlink:href="#linearGradient3988-5"
       id="linearGradient3947"
       gradientUnits="userSpaceOnUse"
       gradientTransform="matrix(0,-0.175,0.175,0,-4.0000326,48.20002)"
       x1="144.00006"
       y1="280.00018"
       x2="144.00006"
       y2="40.000172" />
    <linearGradient
       inkscape:collect="always"
       xlink:href="#outerBackgroundGradient"
       id="linearGradient3949"
       gradientUnits="userSpaceOnUse"
       gradientTransform="matrix(0,-0.175,0.175,0,-4.0000326,1.2000199)"
       x1="144.00006"
       y1="280.00018"
       x2="144.00006"
       y2="40.000172" />
    <linearGradient
       inkscape:collect="always"
       xlink:href="#linearGradient4094"
       id="linearGradient3951"
       gradientUnits="userSpaceOnUse"
       x1="324"
       y1="260"
       x2="332"
       y2="260" />
    <radialGradient
       cx="4.9929786"
       cy="43.5"
       fx="4.9929786"
       fy="43.5"
       gradientTransform="matrix(2.003784,0,0,1.4,27.98813,-17.4)"
       gradientUnits="userSpaceOnUse"
       id="radialGradient9116"
       inkscape:collect="always"
       r="2.5"
       xlink:href="#linearGradient3688" />
    <linearGradient
       id="linearGradient3688"
       inkscape:collect="always">
      <stop
         id="stop3690"
         offset="0"
         style="stop-color:black;stop-opacity:1;" />
      <stop
         id="stop3692"
         offset="1"
         style="stop-color:black;stop-opacity:0;" />
    </linearGradient>
    <radialGradient
       cx="4.9929786"
       cy="43.5"
       fx="4.9929786"
       fy="43.5"
       gradientTransform="matrix(2.003784,0,0,1.4,-20.01187,-104.4)"
       gradientUnits="userSpaceOnUse"
       id="radialGradient9118"
       inkscape:collect="always"
       r="2.5"
       xlink:href="#linearGradient3688" />
    <linearGradient
       gradientUnits="userSpaceOnUse"
       id="linearGradient9120"
       inkscape:collect="always"
       x1="25.058096"
       x2="25.058096"
       xlink:href="#linearGradient3702"
       y1="47.027729"
       y2="39.999443" />
    <linearGradient
       id="linearGradient3702">
      <stop
         id="stop3704"
         offset="0"
         style="stop-color:black;stop-opacity:0;" />
      <stop
         id="stop3710"
         offset="0.5"
         style="stop-color:black;stop-opacity:1;" />
      <stop
         id="stop3706"
         offset="1"
         style="stop-color:black;stop-opacity:0;" />
    </linearGradient>
    <linearGradient
       gradientTransform="translate(80.00001,-0.0389932)"
       gradientUnits="userSpaceOnUse"
       id="linearGradient9122"
       inkscape:collect="always"
       x1="-21.478369"
       x2="-21.478369"
       xlink:href="#linearGradient6394"
       y1="-0.80551612"
       y2="18.005089" />
    <linearGradient
       id="linearGradient6394"
       inkscape:collect="always">
      <stop
         id="stop6396"
         offset="0"
         style="stop-color:#729fcf;stop-opacity:1" />
      <stop
         id="stop6398"
         offset="1"
         style="stop-color:#ffffff;stop-opacity:1" />
    </linearGradient>
    <linearGradient
       gradientTransform="matrix(1,0,0,2,80.00001,-17.038994)"
       gradientUnits="userSpaceOnUse"
       id="linearGradient9124"
       inkscape:collect="always"
       x1="-21.03125"
       x2="-21.03125"
       xlink:href="#linearGradient6754"
       y1="16.187811"
       y2="14.13769" />
    <linearGradient
       id="linearGradient6754"
       inkscape:collect="always">
      <stop
         id="stop6756"
         offset="0"
         style="stop-color:#729fcf;stop-opacity:1" />
      <stop
         id="stop6758"
         offset="1"
         style="stop-color:#729fcf;stop-opacity:0" />
    </linearGradient>
    <radialGradient
       cx="-16.48411"
       cy="16.06098"
       fx="-16.48411"
       fy="16.06098"
       gradientTransform="matrix(1.4386863,0,0,1.1876132,7.181008,-2.926052)"
       gradientUnits="userSpaceOnUse"
       id="radialGradient9126"
       inkscape:collect="always"
       r="9"
       xlink:href="#linearGradient6794" />
    <linearGradient
       id="linearGradient6794"
       inkscape:collect="always">
      <stop
         id="stop6796"
         offset="0"
         style="stop-color:#ffffff;stop-opacity:1;" />
      <stop
         id="stop6798"
         offset="1"
         style="stop-color:#ffffff;stop-opacity:0;" />
    </linearGradient>
    <radialGradient
       inkscape:collect="always"
       xlink:href="#linearGradient6794"
       id="radialGradient4420"
       gradientUnits="userSpaceOnUse"
       gradientTransform="matrix(1.4386863,0,0,1.1876132,7.181008,-2.926052)"
       cx="-16.48411"
       cy="16.06098"
       fx="-16.48411"
       fy="16.06098"
       r="9" />
    <radialGradient
       inkscape:collect="always"
       xlink:href="#linearGradient3688"
       id="radialGradient4438"
       gradientUnits="userSpaceOnUse"
       gradientTransform="matrix(2.003784,0,0,1.4,27.98813,-17.4)"
       cx="4.9929786"
       cy="43.5"
       fx="4.9929786"
       fy="43.5"
       r="2.5" />
    <radialGradient
       inkscape:collect="always"
       xlink:href="#linearGradient3688"
       id="radialGradient4440"
       gradientUnits="userSpaceOnUse"
       gradientTransform="matrix(2.003784,0,0,1.4,-20.01187,-104.4)"
       cx="4.9929786"
       cy="43.5"
       fx="4.9929786"
       fy="43.5"
       r="2.5" />
    <linearGradient
       inkscape:collect="always"
       xlink:href="#linearGradient3702"
       id="linearGradient4442"
       gradientUnits="userSpaceOnUse"
       x1="25.058096"
       y1="47.027729"
       x2="25.058096"
       y2="39.999443" />
    <linearGradient
       inkscape:collect="always"
       xlink:href="#linearGradient6394"
       id="linearGradient4444"
       gradientUnits="userSpaceOnUse"
       gradientTransform="translate(80.00001,-0.0389932)"
       x1="-21.478369"
       y1="-0.80551612"
       x2="-21.478369"
       y2="18.005089" />
    <linearGradient
       inkscape:collect="always"
       xlink:href="#linearGradient6754"
       id="linearGradient4446"
       gradientUnits="userSpaceOnUse"
       gradientTransform="matrix(1,0,0,2,80.00001,-17.038994)"
       x1="-21.03125"
       y1="16.187811"
       x2="-21.03125"
       y2="14.13769" />
    <linearGradient
       inkscape:collect="always"
       xlink:href="#linearGradient6754"
       id="linearGradient4458"
       gradientUnits="userSpaceOnUse"
       gradientTransform="matrix(1,0,0,2,47.965462,11.645619)"
       x1="-21.03125"
       y1="16.187811"
       x2="-21.03125"
       y2="14.13769" />
    <linearGradient
       inkscape:collect="always"
       xlink:href="#outerBackgroundGradient-9"
       id="linearGradient4462"
       gradientUnits="userSpaceOnUse"
       gradientTransform="matrix(1.0769229,0,0,1.0769229,55.461537,22.120194)"
       x1="-21.478369"
       y1="-0.80551612"
       x2="-21.478369"
       y2="18.005089" />
    <linearGradient
       inkscape:collect="always"
       xlink:href="#outerBackgroundGradient-9"
       id="linearGradient3123"
       gradientUnits="userSpaceOnUse"
       gradientTransform="matrix(0,-0.175,0.175,0,-5.0000326,-0.7999801)"
       x1="144.00006"
       y1="280.00018"
       x2="144.00006"
       y2="40.000172" />
    <linearGradient
       id="outerBackgroundGradient-9">
      <stop
         style="stop-color:#8c166c;stop-opacity:1;"
         offset="0"
         id="stop3864-8-6-6" />
      <stop
         id="stop4409-9"
         offset="0.36206895"
         style="stop-color:#ca3561;stop-opacity:1;" />
      <stop
         style="stop-color:#f38f4e;stop-opacity:1;"
         offset="1"
         id="stop3866-9-1-1" />
    </linearGradient>
    <linearGradient
       inkscape:collect="always"
       xlink:href="#linearGradient4094-8"
       id="linearGradient3117"
       gradientUnits="userSpaceOnUse"
       x1="324"
       y1="260"
       x2="332"
       y2="260"
       gradientTransform="matrix(0,-1,1,0,-208.375,365.12502)" />
    <linearGradient
       id="linearGradient4094-8">
      <stop
         style="stop-color:#e28192;stop-opacity:1;"
         offset="0"
         id="stop4096-0" />
      <stop
         id="stop4317-3"
         offset="0.25862068"
         style="stop-color:#f7d6c7;stop-opacity:1;" />
      <stop
         style="stop-color:#fffee4;stop-opacity:1;"
         offset="1"
         id="stop4098-7" />
    </linearGradient>
    <linearGradient
       y2="40.000172"
       x2="144.00006"
       y1="280.00018"
       x1="144.00006"
       gradientTransform="matrix(0,-0.175,0.175,0,5.124967,-36.42498)"
       gradientUnits="userSpaceOnUse"
       id="linearGradient3157"
       xlink:href="#outerBackgroundGradient-9"
       inkscape:collect="always" />
    <linearGradient
       inkscape:collect="always"
       xlink:href="#linearGradient4094-8"
       id="linearGradient4537"
       gradientUnits="userSpaceOnUse"
       gradientTransform="matrix(0,-1,1,0,-208.375,365.12502)"
       x1="324"
       y1="260"
       x2="332"
       y2="260" />
    <radialGradient
       inkscape:collect="always"
       xlink:href="#linearGradient3688"
       id="radialGradient4539"
       gradientUnits="userSpaceOnUse"
       gradientTransform="matrix(2.003784,0,0,1.4,27.98813,-17.4)"
       cx="4.9929786"
       cy="43.5"
       fx="4.9929786"
       fy="43.5"
       r="2.5" />
    <radialGradient
       inkscape:collect="always"
       xlink:href="#linearGradient3688"
       id="radialGradient4541"
       gradientUnits="userSpaceOnUse"
       gradientTransform="matrix(2.003784,0,0,1.4,-20.01187,-104.4)"
       cx="4.9929786"
       cy="43.5"
       fx="4.9929786"
       fy="43.5"
       r="2.5" />
    <linearGradient
       inkscape:collect="always"
       xlink:href="#linearGradient3702"
       id="linearGradient4543"
       gradientUnits="userSpaceOnUse"
       x1="25.058096"
       y1="47.027729"
       x2="25.058096"
       y2="39.999443" />
    <clipPath
       clipPathUnits="userSpaceOnUse"
       id="clipPath4552">
      <rect
         style="opacity:0.2;fill:#000000;fill-opacity:1;stroke:none"
         id="rect4554"
         width="21.097717"
         height="21.097717"
         x="42.891773"
         y="24.010498"
         rx="0" />
    </clipPath>
    <radialGradient
       inkscape:collect="always"
       xlink:href="#linearGradient3688"
       id="radialGradient4798"
       gradientUnits="userSpaceOnUse"
       gradientTransform="matrix(2.003784,0,0,1.4,27.98813,-17.4)"
       cx="4.9929786"
       cy="43.5"
       fx="4.9929786"
       fy="43.5"
       r="2.5" />
    <radialGradient
       inkscape:collect="always"
       xlink:href="#linearGradient3688"
       id="radialGradient4800"
       gradientUnits="userSpaceOnUse"
       gradientTransform="matrix(2.003784,0,0,1.4,-20.01187,-104.4)"
       cx="4.9929786"
       cy="43.5"
       fx="4.9929786"
       fy="43.5"
       r="2.5" />
    <linearGradient
       inkscape:collect="always"
       xlink:href="#linearGradient3702"
       id="linearGradient4802"
       gradientUnits="userSpaceOnUse"
       x1="25.058096"
       y1="47.027729"
       x2="25.058096"
       y2="39.999443" />
    <linearGradient
       inkscape:collect="always"
       xlink:href="#outerBackgroundGradient-9"
       id="linearGradient4804"
       gradientUnits="userSpaceOnUse"
       gradientTransform="matrix(1.0769229,0,0,1.0769229,55.461537,22.120194)"
       x1="-21.478369"
       y1="-0.80551612"
       x2="-21.478369"
       y2="18.005089" />
    <linearGradient
       inkscape:collect="always"
       xlink:href="#linearGradient4094-8"
       id="linearGradient4806"
       gradientUnits="userSpaceOnUse"
       gradientTransform="matrix(0,-1,1,0,-208.375,365.12502)"
       x1="324"
       y1="260"
       x2="332"
       y2="260" />
    <linearGradient
       inkscape:collect="always"
       xlink:href="#outerBackgroundGradient-9"
       id="linearGradient4820"
       gradientUnits="userSpaceOnUse"
       gradientTransform="matrix(1.0769229,0,0,1.0769229,55.461537,22.120194)"
       x1="-21.478369"
       y1="-0.80551612"
       x2="-21.478369"
       y2="18.005089" />
    <linearGradient
       inkscape:collect="always"
       xlink:href="#linearGradient3988-5"
       id="linearGradient3158"
       gradientUnits="userSpaceOnUse"
       gradientTransform="matrix(0.175,0,0,0.175,-1.20002,-6.0000326)"
       x1="144.00006"
       y1="280.00018"
       x2="144.00006"
       y2="40.000172" />
    <radialGradient
       inkscape:collect="always"
       xlink:href="#linearGradient3944"
       id="radialGradient3950"
       cx="9"
       cy="43.5"
       fx="9"
       fy="43.5"
       r="2"
       gradientTransform="matrix(1,0,0,0.75,0,10.875)"
       gradientUnits="userSpaceOnUse" />
    <radialGradient
       inkscape:collect="always"
       xlink:href="#linearGradient3952"
       id="radialGradient3958"
       cx="40"
       cy="43.5"
       fx="40"
       fy="43.5"
       r="2"
       gradientTransform="matrix(1,0,0,0.75,0,10.875)"
       gradientUnits="userSpaceOnUse" />
    <linearGradient
       inkscape:collect="always"
       xlink:href="#linearGradient3960"
       id="linearGradient3968"
       x1="25"
       y1="45"
       x2="25"
       y2="42"
       gradientUnits="userSpaceOnUse" />
    <linearGradient
       inkscape:collect="always"
       xlink:href="#linearGradient3960"
       id="linearGradient3997"
       gradientUnits="userSpaceOnUse"
       x1="25"
       y1="45"
       x2="25"
       y2="42" />
    <radialGradient
       inkscape:collect="always"
       xlink:href="#linearGradient3952"
       id="radialGradient3999"
       gradientUnits="userSpaceOnUse"
       gradientTransform="matrix(1,0,0,0.75,0,10.875)"
       cx="40"
       cy="43.5"
       fx="40"
       fy="43.5"
       r="2" />
    <radialGradient
       inkscape:collect="always"
       xlink:href="#linearGradient3944"
       id="radialGradient4001"
       gradientUnits="userSpaceOnUse"
       gradientTransform="matrix(1,0,0,0.75,0,10.875)"
       cx="9"
       cy="43.5"
       fx="9"
       fy="43.5"
       r="2" />
    <linearGradient
       inkscape:collect="always"
       xlink:href="#linearGradient4780"
       id="linearGradient4835"
       gradientUnits="userSpaceOnUse"
       x1="1784"
       y1="-81.717514"
       x2="1784"
       y2="-62.28249" />
    <linearGradient
       inkscape:collect="always"
       xlink:href="#linearGradient4780"
       id="linearGradient4837"
       gradientUnits="userSpaceOnUse"
       x1="1784"
       y1="-81.717514"
       x2="1784"
       y2="-62.28249" />
    <linearGradient
       inkscape:collect="always"
       xlink:href="#linearGradient4780"
       id="linearGradient4839"
       gradientUnits="userSpaceOnUse"
       x1="1784"
       y1="-81.717514"
       x2="1784"
       y2="-62.28249" />
    <linearGradient
       inkscape:collect="always"
       xlink:href="#linearGradient4780"
       id="linearGradient4841"
       gradientUnits="userSpaceOnUse"
       x1="1784"
       y1="-81.717514"
       x2="1784"
       y2="-62.28249" />
    <linearGradient
       inkscape:collect="always"
       xlink:href="#linearGradient4780"
       id="linearGradient4844"
       gradientUnits="userSpaceOnUse"
       x1="1784"
       y1="-81.717514"
       x2="1784"
       y2="-62.28249"
       gradientTransform="matrix(0.82325582,0,0,0.82325582,-1444.1884,83.274422)" />
    <linearGradient
       inkscape:collect="always"
       xlink:href="#linearGradient4780"
       id="linearGradient4847"
       gradientUnits="userSpaceOnUse"
       x1="1784"
       y1="-81.717514"
       x2="1784"
       y2="-62.28249"
       gradientTransform="matrix(0.82325582,0,0,0.82325582,-1444.1884,83.274422)" />
    <linearGradient
       inkscape:collect="always"
       xlink:href="#linearGradient4780"
       id="linearGradient4850"
       gradientUnits="userSpaceOnUse"
       x1="1784"
       y1="-81.717514"
       x2="1784"
       y2="-62.28249"
       gradientTransform="matrix(0.82325582,0,0,0.82325582,-1444.1884,83.274422)" />
  </defs>
  <g
     inkscape:groupmode="layer"
     id="layer1"
     inkscape:label="Background">
    <g
       id="g3983"
       transform="matrix(1.0571429,0,0,1.6666667,-1.4,-29)"
       style="opacity:0.20000000000000001">
      <rect
         style="opacity:0.59999999999999998;fill:url(#linearGradient3997);fill-opacity:1;stroke:none"
         id="rect3985"
         width="31"
         height="3"
         x="9"
         y="42" />
      <path
         style="opacity:0.59999999999999998;fill:url(#radialGradient3999);fill-opacity:1;stroke:none"
         d="m 40,42 0,3 0.5,0 C 41.331,45 42,44.331 42,43.5 42,42.669 41.331,42 40.5,42 L 40,42 z"
         id="path3987"
         inkscape:connector-curvature="0" />
      <path
         style="opacity:0.59999999999999998;fill:url(#radialGradient4001);fill-opacity:1;stroke:none"
         d="M 8.40625,42 C 7.6271875,42 7,42.627187 7,43.40625 l 0,0.1875 C 7,44.372813 7.6271875,45 8.40625,45 L 9,45 9,42 8.40625,42 z"
         id="path3989"
         inkscape:connector-curvature="0" />
    </g>
    <g
       id="g3978"
       style="opacity:0.20000000000000001">
      <rect
         y="42"
         x="9"
         height="3"
         width="31"
         id="rect3938"
         style="opacity:0.59999999999999998;fill:url(#linearGradient3968);fill-opacity:1;stroke:none" />
      <path
         id="rect3940"
         d="M 40 42 L 40 45 L 40.5 45 C 41.331 45 42 44.331 42 43.5 C 42 42.669 41.331 42 40.5 42 L 40 42 z "
         style="opacity:0.59999999999999998;fill:url(#radialGradient3958);fill-opacity:1;stroke:none" />
      <path
         id="rect3942"
         d="M 8.40625 42 C 7.6271875 42 7 42.627187 7 43.40625 L 7 43.59375 C 7 44.372813 7.6271875 45 8.40625 45 L 9 45 L 9 42 L 8.40625 42 z "
         style="opacity:0.59999999999999998;fill:url(#radialGradient3950);fill-opacity:1;stroke:none" />
    </g>
    <g
       id="g4204"
       transform="matrix(0,1,-1,0,48,-1)">
      <g
         transform="translate(2,-1)"
         id="g4020">
        <rect
           ry="1"
           y="2"
           x="8"
           height="41"
           width="33"
           id="rect3886"
           style="opacity:0.35;color:#bebebe;fill:#000000;fill-opacity:1;fill-rule:nonzero;stroke:none;stroke-width:0;marker:none;visibility:visible;display:inline;overflow:visible;enable-background:accumulate"
           transform="matrix(0,1,1,0,0,0)" />
        <rect
           transform="matrix(0,1,1,0,0,0)"
           style="color:#bebebe;fill:url(#linearGradient3158);fill-opacity:1;fill-rule:nonzero;stroke:none;stroke-width:0;marker:none;visibility:visible;display:inline;overflow:visible;enable-background:accumulate"
           id="rect3882"
           width="31"
           height="39"
           x="9"
           y="3"
           ry="0" />
        <path
           id="path3893"
           d="m 3,9 0,31 39,0 0,-31 z m 1,1 37,0 0,29 -37,0 z"
           style="opacity:0.4;fill:#ffffff;fill-opacity:1;stroke:none"
           inkscape:connector-curvature="0"
           sodipodi:nodetypes="cccccccccc" />
        <rect
           style="opacity:0.4;fill:#ffffff;fill-opacity:1;stroke:none"
           id="rect4018"
           width="39"
           height="1"
           x="3"
           y="9" />
      </g>
    </g>
  </g>
  <g
     inkscape:groupmode="layer"
     id="layer2"
     inkscape:label="Symbol">
    <path
       d="m 20.704892,34.297068 c 0,-0.498146 0.07148,-0.919036 0.214484,-1.263822 0.14298,-0.343629 0.341314,-0.62154 0.59616,-0.833709 0.253688,-0.212177 0.5535,-0.365545 0.898286,-0.461245 0.343628,-0.09456 0.71148,-0.14299 1.103536,-0.14299 0.371314,0 0.724166,0.04843 1.057414,0.14299 0.333258,0.0957 0.62731,0.249068 0.882146,0.461245 0.253689,0.212169 0.454338,0.49008 0.603086,0.833709 0.148748,0.344786 0.222548,0.765676 0.222548,1.263822 0,0.477394 -0.0738,0.8856 -0.222548,1.224618 -0.148748,0.337868 -0.349397,0.620382 -0.603086,0.84294 -0.254836,0.2214 -0.548888,0.382842 -0.882146,0.484312 C 24.241524,36.949258 23.888672,37 23.517358,37 c -0.392056,0 -0.759908,-0.05074 -1.103536,-0.151062 -0.344786,-0.10147 -0.644598,-0.262912 -0.898286,-0.484312 -0.254846,-0.222558 -0.45318,-0.505072 -0.59616,-0.84294 -0.142989,-0.339018 -0.214484,-0.747224 -0.214484,-1.224618 m 0.524666,-5.435828 0,-1.175032 c 0,-0.540822 0.05538,-1.030902 0.167204,-1.47024 0.1107,-0.440494 0.280208,-0.857922 0.508534,-1.255757 0.22716,-0.396669 0.521211,-0.784123 0.88098,-1.16004 0.360934,-0.375925 0.79566,-0.765677 1.304194,-1.168114 0.445106,-0.349397 0.821022,-0.661895 1.127752,-0.938649 0.307894,-0.27444 0.555805,-0.547731 0.74723,-0.818717 0.19026,-0.269829 0.328638,-0.552343 0.412818,-0.8487 0.08528,-0.297505 0.127997,-0.642291 0.127997,-1.0332 0,-0.604243 -0.20526,-1.103546 -0.612309,-1.494454 -0.408206,-0.392066 -1.030902,-0.588086 -1.868066,-0.588086 -0.729934,0 -1.51752,0.15336 -2.36045,0.460097 -0.840626,0.307877 -1.71354,0.683803 -2.614132,1.1289 l -1.620146,-3.512417 c 0.454328,-0.265217 0.950178,-0.5166 1.485232,-0.75414 0.536202,-0.238706 1.092,-0.450874 1.668566,-0.636523 0.577714,-0.1845 1.16351,-0.33095 1.756208,-0.43704 C 22.935032,13.053048 23.517358,13 24.09047,13 c 1.080472,0 2.054862,0.130302 2.923166,0.389752 0.86946,0.259456 1.606311,0.637679 2.209397,1.135833 0.605387,0.498146 1.067784,1.103537 1.390667,1.812712 0.324027,0.710323 0.485464,1.519817 0.485464,2.430788 0,0.667663 -0.07495,1.263823 -0.222544,1.788497 -0.1476,0.524675 -0.369,1.012449 -0.65844,1.462166 -0.292902,0.450866 -0.65844,0.8856 -1.097773,1.303029 -0.439345,0.418585 -0.951334,0.861385 -1.53366,1.327251 -0.445105,0.349389 -0.808345,0.654969 -1.089703,0.914418 -0.280208,0.259465 -0.50046,0.506228 -0.658432,0.738 -0.159136,0.234085 -0.26753,0.475096 -0.32634,0.724166 -0.05768,0.247928 -0.08764,0.54197 -0.08764,0.880996 l 0,0.953632 -4.195072,0 z"
       style="opacity:0.4;fill:#ffffff;fill-opacity:1;fill-rule:nonzero;stroke:none;display:inline;enable-background:new"
       id="path4231"
       inkscape:connector-curvature="0" />
    <path
       inkscape:connector-curvature="0"
       id="path4055"
       style="opacity:1;fill:#bbbbbb;fill-opacity:1;fill-rule:nonzero;stroke:none;display:inline;enable-background:new"
       d="m 20.704892,33.297068 c 0,-0.498146 0.07148,-0.919036 0.214484,-1.263822 0.14298,-0.343629 0.341314,-0.62154 0.59616,-0.833709 0.253688,-0.212177 0.5535,-0.365545 0.898286,-0.461245 0.343628,-0.09456 0.71148,-0.14299 1.103536,-0.14299 0.371314,0 0.724166,0.04843 1.057414,0.14299 0.333258,0.0957 0.62731,0.249068 0.882146,0.461245 0.253689,0.212169 0.454338,0.49008 0.603086,0.833709 0.148748,0.344786 0.222548,0.765676 0.222548,1.263822 0,0.477394 -0.0738,0.8856 -0.222548,1.224618 -0.148748,0.337868 -0.349397,0.620382 -0.603086,0.84294 -0.254836,0.2214 -0.548888,0.382842 -0.882146,0.484312 C 24.241524,35.949258 23.888672,36 23.517358,36 c -0.392056,0 -0.759908,-0.05074 -1.103536,-0.151062 -0.344786,-0.10147 -0.644598,-0.262912 -0.898286,-0.484312 -0.254846,-0.222558 -0.45318,-0.505072 -0.59616,-0.84294 -0.142989,-0.339018 -0.214484,-0.747224 -0.214484,-1.224618 m 0.524666,-5.435828 0,-1.175032 c 0,-0.540822 0.05538,-1.030902 0.167204,-1.47024 0.1107,-0.440494 0.280208,-0.857922 0.508534,-1.255757 0.22716,-0.396669 0.521211,-0.784123 0.88098,-1.16004 0.360934,-0.375925 0.79566,-0.765677 1.304194,-1.168114 0.445106,-0.349397 0.821022,-0.661895 1.127752,-0.938649 0.307894,-0.27444 0.555805,-0.547731 0.74723,-0.818717 0.19026,-0.269829 0.328638,-0.552343 0.412818,-0.8487 0.08528,-0.297505 0.127997,-0.642291 0.127997,-1.0332 0,-0.604243 -0.20526,-1.103546 -0.612309,-1.494454 -0.408206,-0.392066 -1.030902,-0.588086 -1.868066,-0.588086 -0.729934,0 -1.51752,0.15336 -2.36045,0.460097 -0.840626,0.307877 -1.71354,0.683803 -2.614132,1.1289 l -1.620146,-3.512417 c 0.454328,-0.265217 0.950178,-0.5166 1.485232,-0.75414 0.536202,-0.238706 1.092,-0.450874 1.668566,-0.636523 0.577714,-0.1845 1.16351,-0.33095 1.756208,-0.43704 C 22.935032,12.053048 23.517358,12 24.09047,12 c 1.080472,0 2.054862,0.130302 2.923166,0.389752 0.86946,0.259456 1.606311,0.637679 2.209397,1.135833 0.605387,0.498146 1.067784,1.103537 1.390667,1.812712 0.324027,0.710323 0.485464,1.519817 0.485464,2.430788 0,0.667663 -0.07495,1.263823 -0.222544,1.788497 -0.1476,0.524675 -0.369,1.012449 -0.65844,1.462166 -0.292902,0.450866 -0.65844,0.8856 -1.097773,1.303029 -0.439345,0.418585 -0.951334,0.861385 -1.53366,1.327251 -0.445105,0.349389 -0.808345,0.654969 -1.089703,0.914418 -0.280208,0.259465 -0.50046,0.506228 -0.658432,0.738 -0.159136,0.234085 -0.26753,0.475096 -0.32634,0.724166 -0.05768,0.247928 -0.08764,0.54197 -0.08764,0.880996 l 0,0.953632 -4.195072,0 z" />
    <path
       style="opacity:0.2;fill:#000000;fill-opacity:1;fill-rule:nonzero;stroke:none;display:inline;enable-background:new"
       d="m 24.077664,12 c -0.573112,0 -1.156138,0.05017 -1.75,0.15625 -0.592698,0.10609 -1.172286,0.253 -1.75,0.4375 -0.576566,0.185649 -1.120048,0.386294 -1.65625,0.625 -0.535054,0.23754 -1.045672,0.516033 -1.5,0.78125 l 0.375,0.8125 c 0.35709,-0.19432 0.722568,-0.415088 1.125,-0.59375 0.536202,-0.238706 1.079684,-0.439351 1.65625,-0.625 0.577714,-0.1845 1.157302,-0.33141 1.75,-0.4375 C 22.921526,13.05017 23.504552,13 24.077664,13 c 1.080472,0 2.069196,0.11555 2.9375,0.375 0.86946,0.259456 1.615664,0.658096 2.21875,1.15625 0.605387,0.498146 1.052117,1.103325 1.375,1.8125 0.24302,0.532742 0.408157,1.104718 0.46875,1.75 0.0042,-0.107533 0.03125,-0.200977 0.03125,-0.3125 0,-0.910971 -0.175973,-1.727177 -0.5,-2.4375 -0.322883,-0.709175 -0.769613,-1.314354 -1.375,-1.8125 C 28.630828,13.033096 27.884624,12.634456 27.015164,12.375 26.14686,12.11555 25.158136,12 24.077664,12 z m 2.375,6.625 c -0.02054,0.135465 -0.02807,0.286125 -0.0625,0.40625 -0.08418,0.296357 -0.24724,0.573921 -0.4375,0.84375 -0.191425,0.270986 -0.442106,0.53806 -0.75,0.8125 -0.30673,0.276754 -0.679894,0.588103 -1.125,0.9375 -0.508534,0.402437 -0.920316,0.811575 -1.28125,1.1875 -0.359769,0.375917 -0.67909,0.759581 -0.90625,1.15625 -0.228326,0.397835 -0.3893,0.809506 -0.5,1.25 -0.111824,0.439338 -0.15625,0.927928 -0.15625,1.46875 l 0,1 c 0,-0.540822 0.04443,-1.029412 0.15625,-1.46875 0.1107,-0.440494 0.271674,-0.852165 0.5,-1.25 0.22716,-0.396669 0.546481,-0.780333 0.90625,-1.15625 0.360934,-0.375925 0.772716,-0.785063 1.28125,-1.1875 0.445106,-0.349397 0.81827,-0.660746 1.125,-0.9375 0.307894,-0.27444 0.558575,-0.541514 0.75,-0.8125 0.19026,-0.269829 0.35332,-0.547393 0.4375,-0.84375 0.08528,-0.297505 0.125,-0.640341 0.125,-1.03125 0,-0.129912 -0.04356,-0.254824 -0.0625,-0.375 z m -2.9375,11.96875 c -0.392056,0 -0.750122,0.06169 -1.09375,0.15625 -0.344786,0.0957 -0.652562,0.225323 -0.90625,0.4375 -0.254846,0.212169 -0.45077,0.500121 -0.59375,0.84375 -0.143004,0.344786 -0.21875,0.783104 -0.21875,1.28125 0,0.170038 0.01311,0.316267 0.03125,0.46875 0.03328,-0.278631 0.09722,-0.532326 0.1875,-0.75 0.14298,-0.343629 0.338904,-0.631581 0.59375,-0.84375 0.253688,-0.212177 0.561464,-0.3418 0.90625,-0.4375 0.343628,-0.09456 0.701694,-0.15625 1.09375,-0.15625 0.371314,0 0.729252,0.06169 1.0625,0.15625 0.333258,0.0957 0.620164,0.225323 0.875,0.4375 0.253689,0.212169 0.445002,0.500121 0.59375,0.84375 0.09391,0.217674 0.184297,0.471369 0.21875,0.75 0.01878,-0.152483 0.03125,-0.298712 0.03125,-0.46875 0,-0.498146 -0.101252,-0.936464 -0.25,-1.28125 -0.148748,-0.343629 -0.340061,-0.631581 -0.59375,-0.84375 -0.254836,-0.212177 -0.541742,-0.3418 -0.875,-0.4375 -0.333248,-0.09456 -0.691186,-0.15625 -1.0625,-0.15625 z"
       id="path3917"
       inkscape:connector-curvature="0" />
  </g>
</svg>
