<?xml version="1.0" encoding="UTF-8" standalone="no"?>
<!-- Created with Inkscape (http://www.inkscape.org/) -->

<svg
   xmlns:dc="http://purl.org/dc/elements/1.1/"
   xmlns:cc="http://creativecommons.org/ns#"
   xmlns:rdf="http://www.w3.org/1999/02/22-rdf-syntax-ns#"
   xmlns:svg="http://www.w3.org/2000/svg"
   xmlns="http://www.w3.org/2000/svg"
   xmlns:xlink="http://www.w3.org/1999/xlink"
   xmlns:sodipodi="http://sodipodi.sourceforge.net/DTD/sodipodi-0.dtd"
   xmlns:inkscape="http://www.inkscape.org/namespaces/inkscape"
   version="1.1"
   width="48"
   height="48"
   id="svg3759"
   inkscape:version="0.48.4 r9939"
   sodipodi:docname="office-calendar.svg">
  <sodipodi:namedview
     pagecolor="#ffffff"
     bordercolor="#666666"
     borderopacity="1"
     objecttolerance="10"
     gridtolerance="10"
     guidetolerance="10"
     inkscape:pageopacity="0"
     inkscape:pageshadow="2"
     inkscape:window-width="1364"
     inkscape:window-height="700"
     id="namedview36"
     showgrid="false"
     inkscape:zoom="1"
     inkscape:cx="15.10702"
     inkscape:cy="11.250536"
     inkscape:window-x="0"
     inkscape:window-y="28"
     inkscape:window-maximized="1"
     inkscape:current-layer="layer2"
     inkscape:snap-bbox="true"
     inkscape:bbox-paths="true"
     inkscape:bbox-nodes="true"
     inkscape:snap-bbox-edge-midpoints="true"
     inkscape:snap-bbox-midpoints="true">
    <inkscape:grid
       type="xygrid"
       id="grid3818"
       empspacing="4"
       visible="true"
       enabled="true"
       snapvisiblegridlinesonly="true" />
  </sodipodi:namedview>
  <metadata
     id="metadata37">
    <rdf:RDF>
      <cc:Work
         rdf:about="">
        <dc:format>image/svg+xml</dc:format>
        <dc:type
           rdf:resource="http://purl.org/dc/dcmitype/StillImage" />
        <dc:title></dc:title>
      </cc:Work>
    </rdf:RDF>
  </metadata>
  <defs
     id="defs3761">
    <linearGradient
       id="linearGradient4724">
      <stop
         id="stop4726"
         offset="0"
         style="stop-color:#f2fff6;stop-opacity:1;" />
      <stop
         id="stop4728"
         offset="1"
         style="stop-color:#f4fff5;stop-opacity:1;" />
    </linearGradient>
    <linearGradient
       id="linearGradient4706">
      <stop
         id="stop4708"
         offset="0"
         style="stop-color:#2b5b3b;stop-opacity:1;" />
      <stop
         id="stop4710"
         offset="1"
         style="stop-color:#41694e;stop-opacity:1;" />
    </linearGradient>
    <linearGradient
       inkscape:collect="always"
       id="linearGradient4149">
      <stop
         style="stop-color:#ffffff;stop-opacity:1;"
         offset="0"
         id="stop4151" />
      <stop
         style="stop-color:#ffffff;stop-opacity:0;"
         offset="1"
         id="stop4153" />
    </linearGradient>
    <linearGradient
       id="linearGradient4127">
      <stop
         id="stop4129"
         offset="0"
         style="stop-color:#8f2b12;stop-opacity:1;" />
      <stop
         id="stop4131"
         offset="1"
         style="stop-color:#82461a;stop-opacity:1;" />
    </linearGradient>
    <linearGradient
       inkscape:collect="always"
       xlink:href="#linearGradient4134"
       id="linearGradient4140"
       x1="789"
       y1="256"
       x2="827"
       y2="256"
       gradientUnits="userSpaceOnUse" />
    <linearGradient
       inkscape:collect="always"
       id="linearGradient4134">
      <stop
         style="stop-color:#ffffff;stop-opacity:1;"
         offset="0"
         id="stop4136" />
      <stop
         style="stop-color:#ffffff;stop-opacity:0;"
         offset="1"
         id="stop4138" />
    </linearGradient>
    <clipPath
       clipPathUnits="userSpaceOnUse"
       id="clipPath4130">
      <path
         id="path4132"
         d="M 790.4375,237 C 789.62555,237 789,237.62555 789,238.4375 l 0,35.09375 c 0,0.812 0.62555,1.46875 1.4375,1.46875 l 35.125,0 c 0.81195,0 1.4375,-0.65675 1.4375,-1.46875 l 0,-35.09375 C 827,237.62555 826.37445,237 825.5625,237 l -35.125,0 z"
         style="fill:#ba2222;fill-opacity:1;stroke:none"
         inkscape:connector-curvature="0" />
    </clipPath>
    <linearGradient
       inkscape:collect="always"
       xlink:href="#linearGradient5618"
       id="linearGradient4083"
       x1="-1023.8622"
       y1="-808"
       x2="-984.86218"
       y2="-808"
       gradientUnits="userSpaceOnUse"
       gradientTransform="translate(980.3622,784)" />
    <linearGradient
       id="linearGradient5618">
      <stop
         style="stop-color:#3e3e3e;stop-opacity:1;"
         offset="0"
         id="stop5620" />
      <stop
         style="stop-color:#595959;stop-opacity:1;"
         offset="1"
         id="stop5622" />
    </linearGradient>
    <filter
       color-interpolation-filters="sRGB"
       inkscape:collect="always"
       id="filter4155">
      <feGaussianBlur
         inkscape:collect="always"
         stdDeviation="0.39"
         id="feGaussianBlur4157" />
    </filter>
    <filter
       inkscape:collect="always"
       id="filter4023"
       x="-0.063848684"
       width="1.1276974"
       y="-0.99538462"
       height="2.9907692">
      <feGaussianBlur
         inkscape:collect="always"
         stdDeviation="1.0109375"
         id="feGaussianBlur4025" />
    </filter>
    <filter
       inkscape:collect="always"
       id="filter4033"
       x="-0.12769737"
       width="1.2553947"
       y="-1.9907692"
       height="4.9815385">
      <feGaussianBlur
         inkscape:collect="always"
         stdDeviation="2.021875"
         id="feGaussianBlur4035" />
    </filter>
    <linearGradient
       inkscape:collect="always"
       xlink:href="#linearGradient3934"
       id="linearGradient3998"
       gradientUnits="userSpaceOnUse"
       gradientTransform="matrix(0,-1,1,0,68,556)"
       x1="292"
       y1="244"
       x2="332"
       y2="244" />
    <linearGradient
       id="linearGradient3934">
      <stop
         style="stop-color:#dd2f03;stop-opacity:1;"
         offset="0"
         id="stop3936" />
      <stop
         style="stop-color:#e96300;stop-opacity:1;"
         offset="1"
         id="stop3938" />
    </linearGradient>
    <linearGradient
       y2="244"
       x2="332"
       y1="244"
       x1="292"
       gradientTransform="matrix(0,-1,1,0,65,302)"
       gradientUnits="userSpaceOnUse"
       id="linearGradient3177"
       xlink:href="#linearGradient3934"
       inkscape:collect="always" />
    <linearGradient
       inkscape:collect="always"
       xlink:href="#linearGradient4149"
       id="linearGradient4155"
       x1="24"
       y1="43.5"
       x2="37"
       y2="23.375"
       gradientUnits="userSpaceOnUse" />
    <linearGradient
       inkscape:collect="always"
       xlink:href="#outerBackgroundGradient-0"
       id="linearGradient3998-0"
       gradientUnits="userSpaceOnUse"
       gradientTransform="matrix(0,-1,1,0,68,556)"
       x1="292"
       y1="244"
       x2="332"
       y2="244" />
    <linearGradient
       id="outerBackgroundGradient-0">
      <stop
         style="stop-color:#dddddd;stop-opacity:1;"
         offset="0"
         id="stop3864-8-6-9" />
      <stop
         style="stop-color:#f2f2f2;stop-opacity:1;"
         offset="1"
         id="stop3866-9-1-5" />
    </linearGradient>
    <linearGradient
       inkscape:collect="always"
       xlink:href="#linearGradient4100"
       id="linearGradient4898"
       gradientUnits="userSpaceOnUse"
       x1="328"
       y1="235"
       x2="328"
       y2="277"
       gradientTransform="translate(-3.5,-3.5)" />
    <linearGradient
       id="linearGradient4100">
      <stop
         id="stop4102"
         offset="0"
         style="stop-color:#aaaaaa;stop-opacity:1;" />
      <stop
         id="stop4104"
         offset="1"
         style="stop-color:#767676;stop-opacity:1;" />
    </linearGradient>
    <linearGradient
       inkscape:collect="always"
       xlink:href="#linearGradient4084"
       id="linearGradient4900"
       gradientUnits="userSpaceOnUse"
       x1="324"
       y1="231"
       x2="324"
       y2="273"
       gradientTransform="translate(-3.5,-3.5)" />
    <linearGradient
       id="linearGradient4084">
      <stop
         style="stop-color:#cd5fc2;stop-opacity:1;"
         offset="0"
         id="stop4086" />
      <stop
         style="stop-color:#9a4993;stop-opacity:1;"
         offset="1"
         id="stop4088" />
    </linearGradient>
    <linearGradient
       inkscape:collect="always"
       xlink:href="#outerBackgroundGradient-7"
       id="linearGradient4902"
       gradientUnits="userSpaceOnUse"
       x1="328"
       y1="273"
       x2="328"
       y2="231"
       gradientTransform="translate(-3.5,-3.5)" />
    <linearGradient
       id="outerBackgroundGradient-7">
      <stop
         style="stop-color:#dddddd;stop-opacity:1;"
         offset="0"
         id="stop3864-8-6-3" />
      <stop
         style="stop-color:#f2f2f2;stop-opacity:1;"
         offset="1"
         id="stop3866-9-1-2" />
    </linearGradient>
    <linearGradient
       inkscape:collect="always"
       xlink:href="#outerBackgroundGradient-7"
       id="linearGradient4904"
       gradientUnits="userSpaceOnUse"
       x1="336"
       y1="273"
       x2="336"
       y2="231"
       gradientTransform="translate(-3.5,-3.5)" />
    <linearGradient
       id="linearGradient3413">
      <stop
         style="stop-color:#dddddd;stop-opacity:1;"
         offset="0"
         id="stop3415" />
      <stop
         style="stop-color:#f2f2f2;stop-opacity:1;"
         offset="1"
         id="stop3417" />
    </linearGradient>
    <clipPath
       clipPathUnits="userSpaceOnUse"
       id="clipPath4068">
      <rect
         ry="4.5"
         y="259"
         x="316"
         height="9"
         width="24"
         id="rect4070"
         style="color:#bebebe;fill:#525252;fill-opacity:1;fill-rule:nonzero;stroke:none;stroke-width:1;marker:none;visibility:visible;display:inline;overflow:visible;enable-background:accumulate" />
    </clipPath>
    <clipPath
       clipPathUnits="userSpaceOnUse"
       id="clipPath4060">
      <rect
         style="color:#bebebe;fill:#525252;fill-opacity:1;fill-rule:nonzero;stroke:none;stroke-width:1;marker:none;visibility:visible;display:inline;overflow:visible;enable-background:accumulate"
         id="rect4062"
         width="24"
         height="9"
         x="316"
         y="240"
         ry="4.5" />
    </clipPath>
    <clipPath
       clipPathUnits="userSpaceOnUse"
       id="clipPath3423">
      <rect
         style="color:#bebebe;fill:#525252;fill-opacity:1;fill-rule:nonzero;stroke:none;stroke-width:1;marker:none;visibility:visible;display:inline;overflow:visible;enable-background:accumulate"
         id="rect3425"
         width="24"
         height="9"
         x="316"
         y="240"
         ry="4.5" />
    </clipPath>
    <clipPath
       clipPathUnits="userSpaceOnUse"
       id="clipPath3427">
      <rect
         ry="4.5"
         y="259"
         x="316"
         height="9"
         width="24"
         id="rect3429"
         style="color:#bebebe;fill:#525252;fill-opacity:1;fill-rule:nonzero;stroke:none;stroke-width:1;marker:none;visibility:visible;display:inline;overflow:visible;enable-background:accumulate" />
    </clipPath>
    <clipPath
       clipPathUnits="userSpaceOnUse"
       id="clipPath3431">
      <rect
         ry="4.5"
         y="259"
         x="316"
         height="9"
         width="24"
         id="rect3433"
         style="color:#bebebe;fill:#525252;fill-opacity:1;fill-rule:nonzero;stroke:none;stroke-width:1;marker:none;visibility:visible;display:inline;overflow:visible;enable-background:accumulate" />
    </clipPath>
    <clipPath
       clipPathUnits="userSpaceOnUse"
       id="clipPath3435">
      <rect
         style="color:#bebebe;fill:#525252;fill-opacity:1;fill-rule:nonzero;stroke:none;stroke-width:1;marker:none;visibility:visible;display:inline;overflow:visible;enable-background:accumulate"
         id="rect3437"
         width="24"
         height="9"
         x="316"
         y="240"
         ry="4.5" />
    </clipPath>
    <clipPath
       clipPathUnits="userSpaceOnUse"
       id="clipPath3439">
      <rect
         style="color:#bebebe;fill:#525252;fill-opacity:1;fill-rule:nonzero;stroke:none;stroke-width:1;marker:none;visibility:visible;display:inline;overflow:visible;enable-background:accumulate"
         id="rect3441"
         width="24"
         height="9"
         x="316"
         y="240"
         ry="4.5" />
    </clipPath>
    <clipPath
       clipPathUnits="userSpaceOnUse"
       id="clipPath3443">
      <rect
         ry="4.5"
         y="259"
         x="316"
         height="9"
         width="24"
         id="rect3445"
         style="color:#bebebe;fill:#525252;fill-opacity:1;fill-rule:nonzero;stroke:none;stroke-width:1;marker:none;visibility:visible;display:inline;overflow:visible;enable-background:accumulate" />
    </clipPath>
    <linearGradient
       y2="244"
       x2="332"
       y1="244"
       x1="292"
       gradientTransform="matrix(0,-1,1,0,-223.5,332.5)"
       gradientUnits="userSpaceOnUse"
       id="linearGradient3470"
       xlink:href="#outerBackgroundGradient-0"
       inkscape:collect="always" />
    <linearGradient
       inkscape:collect="always"
       xlink:href="#outerBackgroundGradient-6"
       id="linearGradient5320"
       gradientUnits="userSpaceOnUse"
       gradientTransform="matrix(0,-1,1,0,68,556)"
       x1="292"
       y1="244"
       x2="332"
       y2="244" />
    <linearGradient
       id="outerBackgroundGradient-6">
      <stop
         style="stop-color:#c23021;stop-opacity:1;"
         offset="0"
         id="stop3864-8-6-0" />
      <stop
         style="stop-color:#e74c3c;stop-opacity:1;"
         offset="1"
         id="stop3866-9-1-7" />
    </linearGradient>
    <linearGradient
       y2="244"
       x2="332"
       y1="244"
       x1="292"
       gradientTransform="matrix(0,-1,1,0,-223.5,332.5)"
       gradientUnits="userSpaceOnUse"
       id="linearGradient3133"
       xlink:href="#outerBackgroundGradient-6"
       inkscape:collect="always" />
    <linearGradient
       inkscape:collect="always"
       xlink:href="#outerBackgroundGradient-6"
       id="linearGradient3077"
       gradientUnits="userSpaceOnUse"
       gradientTransform="matrix(0,-1,-1,0,-784,-980.3622)"
       x1="-1023.8622"
       y1="-808"
       x2="-984.86218"
       y2="-808" />
    <linearGradient
       inkscape:collect="always"
       xlink:href="#linearGradient3413"
       id="linearGradient3851"
       gradientUnits="userSpaceOnUse"
       gradientTransform="matrix(0,-1,-1,0,-784,-980.3622)"
       x1="-1023.8622"
       y1="-808"
       x2="-984.86218"
       y2="-808" />
  </defs>
  <g
     inkscape:groupmode="layer"
     id="layer1"
     inkscape:label="Background">
    <path
       inkscape:connector-curvature="0"
       style="opacity:0.50000000000000000;fill:#000000;fill-opacity:1;stroke:none;display:inline;filter:url(#filter4023)"
       d="M 6.4375,44.000017 C 5.62555,44.000017 5,43.374417 5,42.562517 l 0,-1 c 0,0.8119 0.62555,1.4375 1.4375,1.4375 l 35.125,0 c 0.81195,0 1.4375,-0.6256 1.4375,-1.4375 l 0,1 c 0,0.8119 -0.62555,1.4375 -1.4375,1.4375 l -35.125,0 z"
       id="path4147" />
    <path
       id="path4027"
       d="M 6.4375,44.000017 C 5.62555,44.000017 5,43.374417 5,42.562517 l 0,-1 c 0,0.8119 0.62555,1.4375 1.4375,1.4375 l 35.125,0 c 0.81195,0 1.4375,-0.6256 1.4375,-1.4375 l 0,1 c 0,0.8119 -0.62555,1.4375 -1.4375,1.4375 l -35.125,0 z"
       style="opacity:0.40000000000000002;fill:#000000;fill-opacity:1;stroke:none;display:inline;filter:url(#filter4033)"
       inkscape:connector-curvature="0" />
    <rect
       rx="1.9499974"
       ry="1.95"
       transform="matrix(0,-1,-1,0,-784,-979.3622)"
       y="-827.5"
       x="-1023.8622"
       height="39"
       width="39"
       id="rect4149"
       style="opacity:0.61000001000000003;fill:#000000;fill-opacity:1;stroke:none;display:inline;filter:url(#filter4155)" />
    <path
       style="fill:url(#linearGradient3077);fill-opacity:1;stroke:none;display:inline"
       d="M 6.4375,4.5 C 5.3572,4.5 4.5,5.3572014 4.5,6.4375 l 0,6.5625 39,0 0,-6.5625 C 43.5,5.3572014 42.6428,4.5 41.5625,4.5 z"
       id="rect3075"
       inkscape:connector-curvature="0"
       sodipodi:nodetypes="ssccsss" />
    <path
       style="fill:url(#linearGradient3851);fill-opacity:1;stroke:none;display:inline"
       d="m 4.5,13 0,28.5625 C 4.5,42.642799 5.3572,43.5 6.4375,43.5 l 35.125,0 C 42.6428,43.5 43.5,42.642799 43.5,41.5625 L 43.5,13 z"
       id="rect4073"
       inkscape:connector-curvature="0"
       sodipodi:nodetypes="csssscc" />
    <rect
       style="opacity:1;fill:#ad3125;fill-opacity:1;stroke:none"
       id="rect3853"
       width="39"
       height="1"
       x="4.5"
       y="13"
       rx="0"
       ry="1" />
    <rect
       ry="1"
       rx="0"
       y="14"
       x="4.5"
       height="1"
       width="39"
       id="rect3855"
       style="opacity:0.4;fill:#ffffff;fill-opacity:1;stroke:none" />
    <rect
       style="opacity:0.61;fill:none;stroke:#000000;stroke-opacity:1;display:inline"
       id="rect4085"
       width="39"
       height="39"
       x="-43.5"
       y="-43.5"
       transform="matrix(0,-1,-1,0,0,0)"
       ry="1.95"
       rx="1.9499974" />
    <path
       inkscape:connector-curvature="0"
       style="opacity:0.14999999999999999;fill:#ffffff;fill-opacity:1;stroke:none;display:inline"
       d="M 6.4375,5.00002 C 5.62555,5.00002 5,5.62557 5,6.43752 l 0,1 C 5,6.62557 5.62555,6.00002 6.4375,6.00002 l 35.125,0 c 0.81195,0 1.4375,0.62555 1.4375,1.4375 l 0,-1 c 0,-0.81195 -0.62555,-1.4375 -1.4375,-1.4375 l -35.125,0 z"
       id="rect4089-4" />
    <path
       id="path4105"
       d="M 6.4375,43.000017 C 5.62555,43.000017 5,42.374417 5,41.562517 L 5,40.56252 c 0,0.811897 0.62555,1.437497 1.4375,1.437497 l 35.125,0 c 0.81195,0 1.4375,-0.6256 1.4375,-1.437497 l 0,0.999997 c 0,0.8119 -0.62555,1.4375 -1.4375,1.4375 l -35.125,0 z"
       style="opacity:0.10000000000000001;fill:#ffffff;fill-opacity:1;stroke:none;display:inline"
       inkscape:connector-curvature="0" />
    <path
       transform="matrix(0,1,-1,0,280,-784)"
       style="opacity:0.10000000000000001;fill:none;stroke:url(#linearGradient4140);stroke-width:2;stroke-miterlimit:4;stroke-opacity:1;stroke-dasharray:none;display:inline"
       d="M 790.4375,237 C 789.62555,237 789,237.62555 789,238.4375 l 0,35.09375 c 0,0.812 0.62555,1.46875 1.4375,1.46875 l 35.125,0 c 0.81195,0 1.4375,-0.65675 1.4375,-1.46875 l 0,-35.09375 C 827,237.62555 826.37445,237 825.5625,237 l -35.125,0 z"
       id="path4128"
       clip-path="url(#clipPath4130)"
       inkscape:connector-curvature="0" />
    <path
       d="M 10,9 A 1,1 0 1 1 8,9 1,1 0 1 1 10,9 z"
       sodipodi:ry="1"
       sodipodi:rx="1"
       sodipodi:cy="9"
       sodipodi:cx="9"
       id="path3861"
       style="fill:#ffffff;fill-opacity:1;stroke:none;opacity:0.2"
       sodipodi:type="arc"
       transform="translate(0,1)" />
    <path
       sodipodi:type="arc"
       style="opacity:1;fill:#ad3125;fill-opacity:1;stroke:none"
       id="path3857"
       sodipodi:cx="9"
       sodipodi:cy="9"
       sodipodi:rx="1"
       sodipodi:ry="1"
       d="M 10,9 A 1,1 0 1 1 8,9 1,1 0 1 1 10,9 z" />
    <path
       transform="translate(30,1)"
       sodipodi:type="arc"
       style="fill:#ffffff;fill-opacity:1;stroke:none;opacity:0.2"
       id="path3863"
       sodipodi:cx="9"
       sodipodi:cy="9"
       sodipodi:rx="1"
       sodipodi:ry="1"
       d="M 10,9 A 1,1 0 1 1 8,9 1,1 0 1 1 10,9 z" />
    <path
       d="M 10,9 A 1,1 0 1 1 8,9 1,1 0 1 1 10,9 z"
       sodipodi:ry="1"
       sodipodi:rx="1"
       sodipodi:cy="9"
       sodipodi:cx="9"
       id="path3859"
       style="fill:#ad3125;fill-opacity:1;stroke:none"
       sodipodi:type="arc"
       transform="translate(30,0)" />
  </g>
  <g
     inkscape:groupmode="layer"
     id="layer2"
     inkscape:label="Symbol">
    <path
       sodipodi:nodetypes="cccccccccccccccccccccccccccccccccccccccccccccccccccccccccccccccccccccccccccccccccccccccccccccccccccccccccccccccccccccccccccccccccccccccccccccccccccccccccccccccccccccccccccccccccccccccccccc"
       inkscape:connector-curvature="0"
       id="path4472"
       d="m 9,19 0,4 0,1 0,3 0,1 0,3 0,1 0,3 0,1 0,4 30,0 0,-21 z m 1,1 4,0 0,3 -4,0 z m 5,0 3,0 0,3 -3,0 z m 4,0 3,0 0,3 -3,0 z m 4,0 3,0 0,3 -3,0 z m 4,0 3,0 0,3 -3,0 z m 4,0 3,0 0,3 -3,0 z m 4,0 3,0 0,3 -3,0 z m -25,4 4,0 0,3 -4,0 z m 5,0 3,0 0,3 -3,0 z m 4,0 3,0 0,3 -3,0 z m 4,0 3,0 0,3 -3,0 z m 4,0 3,0 0,3 -3,0 z m 4,0 3,0 0,3 -3,0 z m 4,0 3,0 0,3 -3,0 z m -25,4 4,0 0,3 -4,0 z m 5,0 3,0 0,3 -3,0 z m 4,0 3,0 0,3 -3,0 z m 4,0 3,0 0,3 -3,0 z m 4,0 3,0 0,3 -3,0 z m 4,0 3,0 0,3 -3,0 z m 4,0 3,0 0,3 -3,0 z m -25,4 4,0 0,3 -4,0 z m 5,0 3,0 0,3 -3,0 z m 4,0 3,0 0,3 -3,0 z m 4,0 3,0 0,3 -3,0 z m 4,0 3,0 0,3 -3,0 z m 4,0 3,0 0,3 -3,0 z m 4,0 3,0 0,3 -3,0 z m -25,4 4,0 0,3 -4,0 z m 5,0 3,0 0,3 -3,0 z m 4,0 3,0 0,3 -3,0 z m 4,0 3,0 0,3 -3,0 z m 4,0 3,0 0,3 -3,0 z m 4,0 3,0 0,3 -3,0 z m 4,0 3,0 0,3 -3,0 z"
       style="opacity:0.2;fill:#ffffff;fill-opacity:1;stroke:none" />
    <rect
       style="fill:#e74c3c;fill-opacity:1;stroke:none"
       id="rect4347"
       width="5"
       height="5"
       x="30"
       y="22" />
    <path
       style="opacity:0.2;fill:#000000;fill-opacity:1;stroke:none"
       d="m 9,18 0,4 0,1 0,3 0,1 0,3 0,1 0,3 0,1 0,4 30,0 0,-21 z m 1,1 4,0 0,3 -4,0 z m 5,0 3,0 0,3 -3,0 z m 4,0 3,0 0,3 -3,0 z m 4,0 3,0 0,3 -3,0 z m 4,0 3,0 0,3 -3,0 z m 4,0 3,0 0,3 -3,0 z m 4,0 3,0 0,3 -3,0 z m -25,4 4,0 0,3 -4,0 z m 5,0 3,0 0,3 -3,0 z m 4,0 3,0 0,3 -3,0 z m 4,0 3,0 0,3 -3,0 z m 4,0 3,0 0,3 -3,0 z m 4,0 3,0 0,3 -3,0 z m 4,0 3,0 0,3 -3,0 z m -25,4 4,0 0,3 -4,0 z m 5,0 3,0 0,3 -3,0 z m 4,0 3,0 0,3 -3,0 z m 4,0 3,0 0,3 -3,0 z m 4,0 3,0 0,3 -3,0 z m 4,0 3,0 0,3 -3,0 z m 4,0 3,0 0,3 -3,0 z m -25,4 4,0 0,3 -4,0 z m 5,0 3,0 0,3 -3,0 z m 4,0 3,0 0,3 -3,0 z m 4,0 3,0 0,3 -3,0 z m 4,0 3,0 0,3 -3,0 z m 4,0 3,0 0,3 -3,0 z m 4,0 3,0 0,3 -3,0 z m -25,4 4,0 0,3 -4,0 z m 5,0 3,0 0,3 -3,0 z m 4,0 3,0 0,3 -3,0 z m 4,0 3,0 0,3 -3,0 z m 4,0 3,0 0,3 -3,0 z m 4,0 3,0 0,3 -3,0 z m 4,0 3,0 0,3 -3,0 z"
       id="rect4313"
       inkscape:connector-curvature="0"
       sodipodi:nodetypes="cccccccccccccccccccccccccccccccccccccccccccccccccccccccccccccccccccccccccccccccccccccccccccccccccccccccccccccccccccccccccccccccccccccccccccccccccccccccccccccccccccccccccccccccccccccccccccc" />
  </g>
</svg>
