<?xml version="1.0" encoding="UTF-8" standalone="no"?>
<svg xmlns="http://www.w3.org/2000/svg" version="1.0" width="20" height="22">
 <metadata id="metadata11"/>
 <path d="m 10,4 c -4.4159999,0 -8.0000002,3.5840001 -8,8 0,4.416 3.5840002,8 8,8 4.416,0 8,-3.584 8,-8 0,-4.4159999 -3.584,-7.9999998 -8,-8 z m 0,5 c 1.656,0 3,1.344 3,3 0,1.656 -1.344,3 -3,3 -1.656,0 -3,-1.344 -3,-3 1e-7,-1.656 1.344,-3 3,-3 z" id="path3170-4" opacity="0.2" fill-rule="evenodd"/>
 <path d="m 10,3 c -4.4159999,0 -8.0000002,3.5840001 -8,8 0,4.416 3.5840002,8 8,8 4.416,0 8,-3.584 8,-8 0,-4.4159999 -3.584,-7.9999998 -8,-8 z m 0,5 c 1.656,10e-8 3,1.344 3,3 0,1.656 -1.344,3 -3,3 -1.656,0 -3,-1.344 -3,-3 1e-7,-1.656 1.344,-3 3,-3 z" id="path3170" opacity="0.35" fill="#ffffff" fill-rule="evenodd"/>
 <path d="m 10,3 0,5 c 1.656,10e-8 3,1.344 3,3 0,0.987512 -0.481732,1.859473 -1.21875,2.40625 -0.237918,0.175704 -0.48556,0.310835 -0.75,0.40625 l 1.53125,4.78125 C 13.328917,18.33481 14.064773,17.943544 14.75,17.4375 16.720951,15.979935 18,13.637745 18,11 18,6.5840001 14.416,3.0000002 10,3 z" id="path3288" fill="#ffffff"/>
</svg>
