<?xml version="1.0" encoding="UTF-8" standalone="no"?>
<!-- Created with Inkscape (http://www.inkscape.org/) -->

<svg
   xmlns:dc="http://purl.org/dc/elements/1.1/"
   xmlns:cc="http://creativecommons.org/ns#"
   xmlns:rdf="http://www.w3.org/1999/02/22-rdf-syntax-ns#"
   xmlns:svg="http://www.w3.org/2000/svg"
   xmlns="http://www.w3.org/2000/svg"
   xmlns:xlink="http://www.w3.org/1999/xlink"
   xmlns:sodipodi="http://sodipodi.sourceforge.net/DTD/sodipodi-0.dtd"
   xmlns:inkscape="http://www.inkscape.org/namespaces/inkscape"
   version="1.1"
   width="48"
   height="48"
   id="svg3759"
   inkscape:version="0.48.4 r9939"
   sodipodi:docname="dialog-question.svg"
   inkscape:export-filename="/home/sam/dialog-password.png"
   inkscape:export-xdpi="90"
   inkscape:export-ydpi="90">
  <sodipodi:namedview
     pagecolor="#ffffff"
     bordercolor="#666666"
     borderopacity="1"
     objecttolerance="10"
     gridtolerance="10"
     guidetolerance="10"
     inkscape:pageopacity="0"
     inkscape:pageshadow="2"
     inkscape:window-width="1364"
     inkscape:window-height="700"
     id="namedview36"
     showgrid="false"
     showborder="false"
     inkscape:zoom="5.6568542"
     inkscape:cx="38.112447"
     inkscape:cy="11.631948"
     inkscape:window-x="0"
     inkscape:window-y="28"
     inkscape:window-maximized="1"
     inkscape:current-layer="layer1"
     inkscape:snap-bbox="true"
     inkscape:bbox-paths="true"
     inkscape:bbox-nodes="true"
     inkscape:snap-bbox-edge-midpoints="true"
     inkscape:snap-bbox-midpoints="true">
    <inkscape:grid
       type="xygrid"
       id="grid3818"
       empspacing="4"
       visible="true"
       enabled="true"
       snapvisiblegridlinesonly="true" />
  </sodipodi:namedview>
  <metadata
     id="metadata37">
    <rdf:RDF>
      <cc:Work
         rdf:about="">
        <dc:format>image/svg+xml</dc:format>
        <dc:type
           rdf:resource="http://purl.org/dc/dcmitype/StillImage" />
        <dc:title />
      </cc:Work>
    </rdf:RDF>
  </metadata>
  <defs
     id="defs3761">
    <linearGradient
       id="linearGradient4036">
      <stop
         style="stop-color:#1c1c1c;stop-opacity:1;"
         offset="0"
         id="stop4038" />
      <stop
         style="stop-color:#676767;stop-opacity:1;"
         offset="1"
         id="stop4040" />
    </linearGradient>
    <linearGradient
       inkscape:collect="always"
       id="linearGradient4010">
      <stop
         style="stop-color:#000000;stop-opacity:1;"
         offset="0"
         id="stop4012" />
      <stop
         style="stop-color:#000000;stop-opacity:0;"
         offset="1"
         id="stop4014" />
    </linearGradient>
    <linearGradient
       id="linearGradient3907">
      <stop
         style="stop-color:#ffffff;stop-opacity:1;"
         offset="0"
         id="stop3909" />
      <stop
         style="stop-color:#b6b6b6;stop-opacity:1"
         offset="1"
         id="stop3911" />
    </linearGradient>
    <linearGradient
       inkscape:collect="always"
       id="linearGradient3894">
      <stop
         style="stop-color:#ffffff;stop-opacity:1;"
         offset="0"
         id="stop3896" />
      <stop
         style="stop-color:#ffffff;stop-opacity:0;"
         offset="1"
         id="stop3898" />
    </linearGradient>
    <linearGradient
       id="linearGradient3881">
      <stop
         style="stop-color:#2d2d2d;stop-opacity:1"
         offset="0"
         id="stop3883" />
      <stop
         style="stop-color:#3f3f3f;stop-opacity:1"
         offset="1"
         id="stop3885" />
    </linearGradient>
    <linearGradient
       id="linearGradient3828">
      <stop
         id="stop3830"
         offset="0"
         style="stop-color:#676767;stop-opacity:1;" />
      <stop
         id="stop3832"
         offset="1"
         style="stop-color:#676767;stop-opacity:1;" />
    </linearGradient>
    <linearGradient
       inkscape:collect="always"
       id="linearGradient3805">
      <stop
         style="stop-color:#555555;stop-opacity:1;"
         offset="0"
         id="stop3807" />
      <stop
         style="stop-color:#555555;stop-opacity:0;"
         offset="1"
         id="stop3809" />
    </linearGradient>
    <linearGradient
       id="linearGradient3810">
      <stop
         style="stop-color:#4cc7e0;stop-opacity:1;"
         offset="0"
         id="stop3812" />
      <stop
         style="stop-color:#2061be;stop-opacity:1;"
         offset="1"
         id="stop3814" />
    </linearGradient>
    <linearGradient
       id="linearGradient3988">
      <stop
         style="stop-color:#eeeeec;stop-opacity:1;"
         offset="0"
         id="stop3990" />
      <stop
         style="stop-color:#ffffff;stop-opacity:1;"
         offset="1"
         id="stop3992" />
    </linearGradient>
    <radialGradient
       inkscape:collect="always"
       xlink:href="#linearGradient26113-9-3-1"
       id="radialGradient3755"
       gradientUnits="userSpaceOnUse"
       gradientTransform="matrix(1,0,0,0.37,0,24.5124)"
       cx="24.849752"
       cy="38.908627"
       fx="24.849752"
       fy="38.908627"
       r="20.203051" />
    <linearGradient
       inkscape:collect="always"
       id="linearGradient26113-9-3-1">
      <stop
         style="stop-color: rgb(0, 0, 0); stop-opacity: 1;"
         offset="0"
         id="stop26115-7-7-9" />
      <stop
         style="stop-color: rgb(0, 0, 0); stop-opacity: 0;"
         offset="1"
         id="stop26117-3-7-8" />
    </linearGradient>
    <linearGradient
       inkscape:collect="always"
       id="linearGradient26121-3-8-2">
      <stop
         style="stop-color: rgb(0, 0, 0); stop-opacity: 1;"
         offset="0"
         id="stop26123-4-7-8" />
      <stop
         style="stop-color: rgb(0, 0, 0); stop-opacity: 0;"
         offset="1"
         id="stop26125-3-9-9" />
    </linearGradient>
    <radialGradient
       r="20.203051"
       fy="38.908627"
       fx="24.849752"
       cy="38.908627"
       cx="24.849752"
       gradientTransform="matrix(1.00851,0,0,0.373148,-0.211403,24.39)"
       gradientUnits="userSpaceOnUse"
       id="radialGradient4274"
       xlink:href="#linearGradient26121-3-8-2"
       inkscape:collect="always" />
    <linearGradient
       id="outerBackgroundGradient-4">
      <stop
         style="stop-color:#ffcb3d;stop-opacity:1;"
         offset="0"
         id="stop3864-8-6-31" />
      <stop
         style="stop-color:#ffee87;stop-opacity:1;"
         offset="1"
         id="stop3866-9-1-8" />
    </linearGradient>
    <linearGradient
       inkscape:collect="always"
       xlink:href="#outerBackgroundGradient-0-8"
       id="linearGradient3874"
       gradientUnits="userSpaceOnUse"
       gradientTransform="matrix(0,-1,-1,0,48.000003,48.000003)"
       x1="4.5000033"
       y1="24"
       x2="43.500004"
       y2="24" />
    <linearGradient
       inkscape:collect="always"
       xlink:href="#linearGradient4073"
       id="linearGradient4070"
       gradientUnits="userSpaceOnUse"
       gradientTransform="matrix(0,-1,1,0,5.0000306e-7,32)"
       x1="1"
       y1="15.999999"
       x2="31"
       y2="15.999999" />
    <linearGradient
       id="linearGradient4073">
      <stop
         id="stop4075"
         offset="0"
         style="stop-color:#323232;stop-opacity:1;" />
      <stop
         id="stop4077"
         offset="1"
         style="stop-color:#5a5a5a;stop-opacity:1;" />
    </linearGradient>
    <radialGradient
       inkscape:collect="always"
       xlink:href="#linearGradient3901"
       id="radialGradient3805"
       gradientUnits="userSpaceOnUse"
       gradientTransform="matrix(4.5367027e-8,-1.7632481,-1.8653063,0,31.761486,43.251051)"
       cx="6.1596723"
       cy="8.4497671"
       fx="6.1596723"
       fy="8.4497671"
       r="19.99999" />
    <linearGradient
       id="linearGradient3901">
      <stop
         style="stop-color:#d2d2d2;stop-opacity:1;"
         offset="0"
         id="stop3903" />
      <stop
         style="stop-color:#ffffff;stop-opacity:1;"
         offset="1"
         id="stop3905" />
    </linearGradient>
    <linearGradient
       id="linearGradient3904">
      <stop
         id="stop3906"
         offset="0"
         style="stop-color:#234683;stop-opacity:1;" />
      <stop
         id="stop3908"
         offset="1"
         style="stop-color:#30589e;stop-opacity:1;" />
    </linearGradient>
    <radialGradient
       inkscape:collect="always"
       xlink:href="#outerBackgroundGradient"
       id="radialGradient3805-1"
       gradientUnits="userSpaceOnUse"
       gradientTransform="matrix(4.5367027e-8,-1.7632481,-1.8653063,0,31.761486,43.251051)"
       cx="6.1596723"
       cy="8.4497671"
       fx="6.1596723"
       fy="8.4497671"
       r="19.99999" />
    <linearGradient
       id="outerBackgroundGradient">
      <stop
         style="stop-color:#1450b9;stop-opacity:1;"
         offset="0"
         id="stop3864-8-6" />
      <stop
         style="stop-color:#5187e6;stop-opacity:1;"
         offset="1"
         id="stop3866-9-1" />
    </linearGradient>
    <linearGradient
       inkscape:collect="always"
       xlink:href="#outerBackgroundGradient-0"
       id="linearGradient4262"
       x1="292"
       y1="244"
       x2="332"
       y2="244"
       gradientUnits="userSpaceOnUse"
       gradientTransform="matrix(0,-1,1,0,68,556)" />
    <linearGradient
       id="outerBackgroundGradient-0">
      <stop
         style="stop-color:#c3c3c3;stop-opacity:1;"
         offset="0"
         id="stop3864-8-6-3" />
      <stop
         style="stop-color:#ebebeb;stop-opacity:1;"
         offset="1"
         id="stop3866-9-1-7" />
    </linearGradient>
    <linearGradient
       y2="244"
       x2="332"
       y1="244"
       x1="292"
       gradientTransform="matrix(0,-1,1,0,-149,343)"
       gradientUnits="userSpaceOnUse"
       id="linearGradient3088"
       xlink:href="#outerBackgroundGradient-0"
       inkscape:collect="always" />
    <linearGradient
       inkscape:collect="always"
       xlink:href="#linearGradient3828"
       id="linearGradient3811"
       x1="9"
       y1="23"
       x2="37"
       y2="23"
       gradientUnits="userSpaceOnUse"
       gradientTransform="matrix(0,1.1428571,-1.1428571,0,50.285717,-2.2857144)" />
    <linearGradient
       inkscape:collect="always"
       xlink:href="#linearGradient3805"
       id="linearGradient3815"
       gradientUnits="userSpaceOnUse"
       gradientTransform="matrix(0,0.99999997,-0.99999997,0,47,1.5)"
       x1="9.0000001"
       y1="23"
       x2="37"
       y2="23" />
    <linearGradient
       inkscape:collect="always"
       xlink:href="#outerBackgroundGradient-0"
       id="linearGradient3826"
       gradientUnits="userSpaceOnUse"
       gradientTransform="matrix(0,0.99999997,-0.99999997,0,47,0.9999998)"
       x1="9"
       y1="23"
       x2="37"
       y2="23" />
    <clipPath
       clipPathUnits="userSpaceOnUse"
       id="clipPath3838">
      <path
         d="M 24.000496,10 C 16.268261,10 10,16.268476 10,23.999824 10,31.73188 16.268332,38 24.000496,38 31.732376,38 38,31.73188 38,23.999824 38,16.268476 31.732376,10 24.000496,10 l 0,0 z"
         inkscape:connector-curvature="0"
         id="path3840"
         style="fill:#000000;fill-opacity:1;fill-rule:nonzero;stroke:none" />
    </clipPath>
    <linearGradient
       inkscape:collect="always"
       xlink:href="#linearGradient3828"
       id="linearGradient3846"
       gradientUnits="userSpaceOnUse"
       gradientTransform="matrix(0,1.1428571,-1.1428571,0,50.285717,-2.2857144)"
       x1="9"
       y1="23"
       x2="37"
       y2="23" />
    <clipPath
       clipPathUnits="userSpaceOnUse"
       id="clipPath3851">
      <path
         id="path3853"
         d="M 24,8 C 15.16316,8 8,15.164174 8,24 8,32.836635 15.163241,40 24,40 32.836434,40 40,32.836635 40,24 40,15.164174 32.836434,8 24,8 z m 0,2 c 7.73188,0 14,6.268652 14,14 0,7.732056 -6.26812,14 -14,14 -7.732164,0 -14,-6.267944 -14,-14 0,-7.731348 6.267765,-14 14,-14 z"
         style="fill:#000000;fill-opacity:1;fill-rule:nonzero;stroke:none"
         inkscape:connector-curvature="0" />
    </clipPath>
    <clipPath
       clipPathUnits="userSpaceOnUse"
       id="clipPath3865">
      <path
         d="m 32,24 a 8,8 0 1 1 -16,0 8,8 0 1 1 16,0 z"
         sodipodi:ry="8"
         sodipodi:rx="8"
         sodipodi:cy="24"
         sodipodi:cx="24"
         id="path3867"
         style="opacity:0.2;fill:#000000;fill-opacity:1;stroke:none"
         sodipodi:type="arc" />
    </clipPath>
    <clipPath
       clipPathUnits="userSpaceOnUse"
       id="clipPath3873">
      <path
         sodipodi:nodetypes="ccccccccccc"
         inkscape:connector-curvature="0"
         id="path3875"
         d="m 21,13 6,0 0,12.024233 L 25,27 l 2,2 0,6 -6,0 L 21,22.892505 23,21 21,19 z"
         style="fill:#555555;fill-opacity:1;stroke:none" />
    </clipPath>
    <linearGradient
       inkscape:collect="always"
       xlink:href="#linearGradient3881"
       id="linearGradient3887"
       x1="24"
       y1="14"
       x2="24"
       y2="33"
       gradientUnits="userSpaceOnUse" />
    <linearGradient
       inkscape:collect="always"
       xlink:href="#linearGradient3894"
       id="linearGradient3900"
       x1="15"
       y1="24"
       x2="33"
       y2="24"
       gradientUnits="userSpaceOnUse"
       gradientTransform="matrix(0,-1,1,0,0,48)" />
    <linearGradient
       inkscape:collect="always"
       xlink:href="#linearGradient3907"
       id="linearGradient3905"
       gradientUnits="userSpaceOnUse"
       gradientTransform="matrix(0,1.25,-1.25,0,52.75,-4.7500011)"
       x1="9"
       y1="23"
       x2="37"
       y2="23" />
    <radialGradient
       inkscape:collect="always"
       xlink:href="#linearGradient4010"
       id="radialGradient4016"
       cx="24"
       cy="24"
       fx="24"
       fy="24"
       r="20"
       gradientUnits="userSpaceOnUse"
       gradientTransform="translate(0,4)" />
    <linearGradient
       inkscape:collect="always"
       xlink:href="#outerBackgroundGradient-0-8"
       id="linearGradient3874-2"
       gradientUnits="userSpaceOnUse"
       gradientTransform="matrix(0,-1,-1,0,48.000003,48.000003)"
       x1="4.5000033"
       y1="24"
       x2="43.500004"
       y2="24" />
    <linearGradient
       id="outerBackgroundGradient-0-8">
      <stop
         style="stop-color:#1c6aba;stop-opacity:1"
         offset="0"
         id="stop3864-8-6-3-9" />
      <stop
         style="stop-color:#4195ec;stop-opacity:1"
         offset="1"
         id="stop3866-9-1-7-5" />
    </linearGradient>
    <linearGradient
       y2="24"
       x2="43.500004"
       y1="24"
       x1="4.5000033"
       gradientTransform="matrix(0,-1,-1,0,48,48.000003)"
       gradientUnits="userSpaceOnUse"
       id="linearGradient3161"
       xlink:href="#outerBackgroundGradient-0-8"
       inkscape:collect="always" />
    <linearGradient
       inkscape:collect="always"
       xlink:href="#linearGradient3904-6"
       id="linearGradient3899"
       x1="4.0000033"
       y1="24"
       x2="44.000004"
       y2="24"
       gradientUnits="userSpaceOnUse"
       gradientTransform="matrix(0,-1,1,0,3.1e-6,48.000003)" />
    <linearGradient
       id="linearGradient3904-6">
      <stop
         id="stop3906-8"
         offset="0"
         style="stop-color:#234683;stop-opacity:1;" />
      <stop
         id="stop3908-2"
         offset="1"
         style="stop-color:#30589e;stop-opacity:1;" />
    </linearGradient>
    <linearGradient
       y2="24"
       x2="44.000004"
       y1="24"
       x1="4.0000033"
       gradientTransform="matrix(0,-1,1,0,0,48.000003)"
       gradientUnits="userSpaceOnUse"
       id="linearGradient3946"
       xlink:href="#linearGradient3904-6"
       inkscape:collect="always" />
  </defs>
  <g
     inkscape:groupmode="layer"
     id="layer1"
     inkscape:label="Background">
    <path
       style="font-size:medium;font-style:normal;font-variant:normal;font-weight:normal;font-stretch:normal;text-indent:0;text-align:start;text-decoration:none;line-height:normal;letter-spacing:normal;word-spacing:normal;text-transform:none;direction:ltr;block-progression:tb;writing-mode:lr-tb;text-anchor:start;baseline-shift:baseline;opacity:0.05000000000000000;color:#000000;fill:#000000;fill-opacity:1;stroke:#000000;stroke-width:2;marker:none;visibility:visible;display:inline;overflow:visible;enable-background:accumulate;font-family:Sans;-inkscape-font-specification:Sans;stroke-opacity:1;stroke-miterlimit:4;stroke-dasharray:none"
       d="M 24,5 C 12.960351,5 4,13.96111 4,25 4,36.03985 12.960367,45 24,45 35.040018,45 44,36.03988 44,25 44,13.961083 35.04013,5 24,5 z"
       id="path4026"
       inkscape:connector-curvature="0"
       sodipodi:nodetypes="sssss" />
    <path
       sodipodi:nodetypes="sssss"
       inkscape:connector-curvature="0"
       id="path4024"
       d="M 24,5 C 12.960351,5 4,13.96111 4,25 4,36.03985 12.960367,45 24,45 35.040018,45 44,36.03988 44,25 44,13.961083 35.04013,5 24,5 z"
       style="font-size:medium;font-style:normal;font-variant:normal;font-weight:normal;font-stretch:normal;text-indent:0;text-align:start;text-decoration:none;line-height:normal;letter-spacing:normal;word-spacing:normal;text-transform:none;direction:ltr;block-progression:tb;writing-mode:lr-tb;text-anchor:start;baseline-shift:baseline;opacity:0.1;color:#000000;fill:#000000;fill-opacity:1;stroke:#000000;stroke-width:1;marker:none;visibility:visible;display:inline;overflow:visible;enable-background:accumulate;font-family:Sans;-inkscape-font-specification:Sans;stroke-opacity:1" />
    <path
       style="font-size:medium;font-style:normal;font-variant:normal;font-weight:normal;font-stretch:normal;text-indent:0;text-align:start;text-decoration:none;line-height:normal;letter-spacing:normal;word-spacing:normal;text-transform:none;direction:ltr;block-progression:tb;writing-mode:lr-tb;text-anchor:start;baseline-shift:baseline;opacity:0.2;color:#000000;fill:#000000;fill-opacity:1;stroke:none;stroke-width:1;marker:none;visibility:visible;display:inline;overflow:visible;enable-background:accumulate;font-family:Sans;-inkscape-font-specification:Sans"
       d="M 24,5 C 12.960351,5 4,13.96111 4,25 4,36.03985 12.960367,45 24,45 35.040018,45 44,36.03988 44,25 44,13.961083 35.04013,5 24,5 z"
       id="path4018"
       inkscape:connector-curvature="0"
       sodipodi:nodetypes="sssss" />
    <path
       style="fill:url(#linearGradient3874);fill-opacity:1.0;fill-rule:nonzero;stroke:none"
       id="path6495"
       inkscape:connector-curvature="0"
       d="M 4.5000031,23.999309 C 4.5000031,34.769208 13.231094,43.5 23.999758,43.5 c 10.769649,0 19.500245,-8.730891 19.500245,-19.500691 0,-10.769405 -8.730596,-19.4993089 -19.500245,-19.4993089 -10.768664,0 -19.4997549,8.7299039 -19.4997549,19.4993089 l 0,0 z" />
    <path
       style="fill:#ffffff;fill-opacity:1;fill-rule:nonzero;stroke:none;opacity:0.4"
       d="M 24 5 C 13.500552 5 5 13.500823 5 24 C 5 24.169463 5.0268485 24.331605 5.03125 24.5 C 5.299553 14.235412 13.670013 6 24 6 C 34.328993 6 42.700416 14.235427 42.96875 24.5 C 42.973152 24.331604 43 24.169465 43 24 C 43 13.500839 34.498438 5 24 5 z "
       id="path3872" />
    <path
       d="M 23.999309,4.5 C 34.769208,4.5 43.5,13.231091 43.5,23.999755 43.5,34.769404 34.769109,43.5 23.999309,43.5 13.229903,43.5 4.5,34.769404 4.5,23.999755 4.5,13.231091 13.229903,4.5 23.999309,4.5 l 0,0 z"
       inkscape:connector-curvature="0"
       id="path3796"
       style="opacity:0.91000001;fill:none;stroke:url(#linearGradient3946);stroke-width:1;stroke-miterlimit:4;stroke-opacity:1;stroke-dasharray:none" />
    <path
       id="path3366"
       d="M 24,43 C 13.500552,43 5,34.499177 5,24 5,23.830537 5.0268485,23.668395 5.03125,23.5 5.299553,33.764588 13.670013,42 24,42 34.328993,42 42.700416,33.764573 42.96875,23.5 42.973152,23.668396 43,23.830535 43,24 43,34.499161 34.498438,43 24,43 z"
       style="opacity:0.1;fill:#ffffff;fill-opacity:1;fill-rule:nonzero;stroke:none"
       inkscape:connector-curvature="0" />
  </g>
  <g
     inkscape:groupmode="layer"
     id="layer2"
     inkscape:label="Symbol">
    <path
       d="m 20.565372,35.071824 c 0,-0.539658 0.07744,-0.995623 0.232357,-1.369141 0.154895,-0.372264 0.369757,-0.673335 0.64584,-0.903184 0.274829,-0.229859 0.599625,-0.396008 0.973143,-0.499683 0.372264,-0.10244 0.77077,-0.154905 1.195498,-0.154905 0.402257,0 0.784513,0.05246 1.145532,0.154905 0.361029,0.103675 0.679585,0.269824 0.955658,0.499683 0.274829,0.229849 0.492199,0.53092 0.653343,0.903184 0.161144,0.373518 0.241094,0.829483 0.241094,1.369141 0,0.517177 -0.07995,0.9594 -0.241094,1.326669 -0.161144,0.366024 -0.378514,0.672081 -0.653343,0.913185 -0.276073,0.23985 -0.594629,0.414746 -0.955658,0.524671 C 24.396723,37.945029 24.014467,38 23.61221,38 c -0.424728,0 -0.823234,-0.05497 -1.195498,-0.163651 -0.373518,-0.109925 -0.698314,-0.284821 -0.973143,-0.524671 -0.276083,-0.241104 -0.490945,-0.547161 -0.64584,-0.913185 -0.154905,-0.367269 -0.232357,-0.809492 -0.232357,-1.326669 m 0.568388,-5.888814 0,-1.272951 c 0,-0.585891 0.05999,-1.116811 0.181137,-1.59276 0.119925,-0.477202 0.303559,-0.929416 0.550912,-1.360403 0.24609,-0.429725 0.564645,-0.849467 0.954395,-1.25671 0.391012,-0.407253 0.861965,-0.829484 1.412877,-1.265457 0.482198,-0.378514 0.889441,-0.717053 1.221731,-1.01687 0.333552,-0.29731 0.602122,-0.593375 0.8095,-0.886943 0.206115,-0.292315 0.356024,-0.598372 0.447219,-0.919425 0.09239,-0.322298 0.138663,-0.695816 0.138663,-1.1193 0,-0.654597 -0.222365,-1.195508 -0.663334,-1.618992 -0.442223,-0.424739 -1.116811,-0.637094 -2.023738,-0.637094 -0.790762,0 -1.64398,0.16614 -2.557155,0.498439 -0.910678,0.333534 -1.856335,0.740787 -2.831976,1.222975 L 17.018833,14.1524 c 0.492189,-0.287319 1.029359,-0.55965 1.609001,-0.816985 0.580886,-0.258598 1.183,-0.488447 1.807613,-0.689567 0.625857,-0.199875 1.26047,-0.35853 1.902559,-0.47346 0.643351,-0.11492 1.274204,-0.172389 1.895075,-0.172389 1.170511,0 2.226101,0.141161 3.166763,0.422231 0.941915,0.281078 1.74017,0.69082 2.393513,1.230487 0.655836,0.539658 1.156766,1.195498 1.506556,1.963771 0.35103,0.769516 0.52592,1.646469 0.52592,2.633355 0,0.723301 -0.0812,1.369141 -0.24109,1.937538 -0.1599,0.568398 -0.39975,1.09682 -0.71331,1.584013 -0.31731,0.488438 -0.71331,0.9594 -1.189254,1.411615 -0.475957,0.453467 -1.030612,0.933167 -1.661465,1.437855 -0.482197,0.378505 -0.875707,0.70955 -1.180511,0.990619 -0.303559,0.281088 -0.542165,0.548414 -0.713301,0.7995 -0.172398,0.253593 -0.289825,0.514688 -0.353535,0.784513 -0.06249,0.268589 -0.09494,0.587135 -0.09494,0.954413 l 0,1.033101 -4.544661,0 z"
       style="opacity:0.3;fill:#000000;fill-opacity:1;fill-rule:nonzero;stroke:none;display:inline;enable-background:new"
       id="path4065"
       inkscape:connector-curvature="0" />
    <path
       inkscape:connector-curvature="0"
       id="path4055"
       style="fill:#ffffff;fill-opacity:1;fill-rule:nonzero;stroke:none;display:inline;enable-background:new"
       d="m 20.565372,34.071824 c 0,-0.539658 0.07744,-0.995623 0.232357,-1.369141 0.154895,-0.372264 0.369757,-0.673335 0.64584,-0.903184 0.274829,-0.229859 0.599625,-0.396008 0.973143,-0.499683 0.372264,-0.10244 0.77077,-0.154905 1.195498,-0.154905 0.402257,0 0.784513,0.05246 1.145532,0.154905 0.361029,0.103675 0.679585,0.269824 0.955658,0.499683 0.274829,0.229849 0.492199,0.53092 0.653343,0.903184 0.161144,0.373518 0.241094,0.829483 0.241094,1.369141 0,0.517177 -0.07995,0.9594 -0.241094,1.326669 -0.161144,0.366024 -0.378514,0.672081 -0.653343,0.913185 -0.276073,0.23985 -0.594629,0.414746 -0.955658,0.524671 C 24.396723,36.945029 24.014467,37 23.61221,37 c -0.424728,0 -0.823234,-0.05497 -1.195498,-0.163651 -0.373518,-0.109925 -0.698314,-0.284821 -0.973143,-0.524671 -0.276083,-0.241104 -0.490945,-0.547161 -0.64584,-0.913185 -0.154905,-0.367269 -0.232357,-0.809492 -0.232357,-1.326669 m 0.568388,-5.888814 0,-1.272951 c 0,-0.585891 0.05999,-1.116811 0.181137,-1.59276 0.119925,-0.477202 0.303559,-0.929416 0.550912,-1.360403 0.24609,-0.429725 0.564645,-0.849467 0.954395,-1.25671 0.391012,-0.407253 0.861965,-0.829484 1.412877,-1.265457 0.482198,-0.378514 0.889441,-0.717053 1.221731,-1.01687 0.333552,-0.29731 0.602122,-0.593375 0.8095,-0.886943 0.206115,-0.292315 0.356024,-0.598372 0.447219,-0.919425 0.09239,-0.322298 0.138663,-0.695816 0.138663,-1.1193 0,-0.654597 -0.222365,-1.195508 -0.663334,-1.618992 -0.442223,-0.424738 -1.116811,-0.637093 -2.023738,-0.637093 -0.790762,0 -1.64398,0.16614 -2.557155,0.498438 -0.910678,0.333534 -1.856335,0.740787 -2.831976,1.222975 L 17.018833,13.1524 c 0.492189,-0.287319 1.029359,-0.55965 1.609001,-0.816985 0.580886,-0.258598 1.183,-0.488447 1.807613,-0.689567 0.625857,-0.199875 1.26047,-0.35853 1.902559,-0.47346 0.643351,-0.11492 1.274204,-0.172389 1.895075,-0.172389 1.170511,0 2.226101,0.141161 3.166763,0.422231 0.941915,0.281078 1.74017,0.69082 2.393513,1.230487 0.655836,0.539658 1.156766,1.195498 1.506556,1.963772 0.35103,0.769516 0.52592,1.646468 0.52592,2.633354 0,0.723301 -0.0812,1.369141 -0.24109,1.937538 -0.1599,0.568398 -0.39975,1.09682 -0.71331,1.584013 -0.31731,0.488438 -0.71331,0.9594 -1.189254,1.411615 -0.475957,0.453467 -1.030612,0.933167 -1.661465,1.437855 -0.482197,0.378505 -0.875707,0.70955 -1.180511,0.990619 -0.303559,0.281088 -0.542165,0.548414 -0.713301,0.7995 -0.172398,0.253593 -0.289825,0.514688 -0.353535,0.784513 -0.06249,0.268589 -0.09494,0.587135 -0.09494,0.954413 l 0,1.033101 -4.544661,0 z" />
  </g>
</svg>
