<?xml version="1.0" encoding="UTF-8" standalone="no"?>
<!-- Created with Inkscape (http://www.inkscape.org/) -->

<svg
   xmlns:dc="http://purl.org/dc/elements/1.1/"
   xmlns:cc="http://creativecommons.org/ns#"
   xmlns:rdf="http://www.w3.org/1999/02/22-rdf-syntax-ns#"
   xmlns:svg="http://www.w3.org/2000/svg"
   xmlns="http://www.w3.org/2000/svg"
   xmlns:xlink="http://www.w3.org/1999/xlink"
   xmlns:sodipodi="http://sodipodi.sourceforge.net/DTD/sodipodi-0.dtd"
   xmlns:inkscape="http://www.inkscape.org/namespaces/inkscape"
   version="1.1"
   width="48"
   height="48"
   id="svg3759"
   inkscape:version="0.48.4 r9939"
   sodipodi:docname="preferences-desktop.svg">
  <sodipodi:namedview
     pagecolor="#ffffff"
     bordercolor="#666666"
     borderopacity="1"
     objecttolerance="10"
     gridtolerance="10"
     guidetolerance="10"
     inkscape:pageopacity="0"
     inkscape:pageshadow="2"
     inkscape:window-width="1364"
     inkscape:window-height="700"
     id="namedview36"
     showgrid="false"
     inkscape:zoom="1"
     inkscape:cx="-15.565394"
     inkscape:cy="25.243233"
     inkscape:window-x="0"
     inkscape:window-y="28"
     inkscape:window-maximized="1"
     inkscape:current-layer="layer2"
     inkscape:snap-bbox="true"
     inkscape:bbox-paths="true"
     inkscape:bbox-nodes="true"
     inkscape:snap-bbox-edge-midpoints="true"
     inkscape:snap-bbox-midpoints="true">
    <inkscape:grid
       type="xygrid"
       id="grid3818"
       empspacing="4"
       visible="true"
       enabled="true"
       snapvisiblegridlinesonly="true" />
  </sodipodi:namedview>
  <metadata
     id="metadata37">
    <rdf:RDF>
      <cc:Work
         rdf:about="">
        <dc:format>image/svg+xml</dc:format>
        <dc:type
           rdf:resource="http://purl.org/dc/dcmitype/StillImage" />
        <dc:title></dc:title>
      </cc:Work>
    </rdf:RDF>
  </metadata>
  <defs
     id="defs3761">
    <linearGradient
       id="linearGradient4566">
      <stop
         id="stop4568"
         offset="0"
         style="stop-color:#3f3f3f;stop-opacity:1;" />
      <stop
         id="stop4570"
         offset="1"
         style="stop-color:#625c5c;stop-opacity:1;" />
    </linearGradient>
    <linearGradient
       inkscape:collect="always"
       id="linearGradient4149">
      <stop
         style="stop-color:#ffffff;stop-opacity:1;"
         offset="0"
         id="stop4151" />
      <stop
         style="stop-color:#ffffff;stop-opacity:0;"
         offset="1"
         id="stop4153" />
    </linearGradient>
    <linearGradient
       id="linearGradient4127">
      <stop
         id="stop4129"
         offset="0"
         style="stop-color:#8f2b12;stop-opacity:1;" />
      <stop
         id="stop4131"
         offset="1"
         style="stop-color:#82461a;stop-opacity:1;" />
    </linearGradient>
    <linearGradient
       inkscape:collect="always"
       xlink:href="#linearGradient4134"
       id="linearGradient4140"
       x1="789"
       y1="256"
       x2="827"
       y2="256"
       gradientUnits="userSpaceOnUse" />
    <linearGradient
       inkscape:collect="always"
       id="linearGradient4134">
      <stop
         style="stop-color:#ffffff;stop-opacity:1;"
         offset="0"
         id="stop4136" />
      <stop
         style="stop-color:#ffffff;stop-opacity:0;"
         offset="1"
         id="stop4138" />
    </linearGradient>
    <clipPath
       clipPathUnits="userSpaceOnUse"
       id="clipPath4130">
      <path
         id="path4132"
         d="M 790.4375,237 C 789.62555,237 789,237.62555 789,238.4375 l 0,35.09375 c 0,0.812 0.62555,1.46875 1.4375,1.46875 l 35.125,0 c 0.81195,0 1.4375,-0.65675 1.4375,-1.46875 l 0,-35.09375 C 827,237.62555 826.37445,237 825.5625,237 l -35.125,0 z"
         style="fill:#ba2222;fill-opacity:1;stroke:none"
         inkscape:connector-curvature="0" />
    </clipPath>
    <linearGradient
       inkscape:collect="always"
       xlink:href="#linearGradient5618"
       id="linearGradient4083"
       x1="-1023.8622"
       y1="-808"
       x2="-984.86218"
       y2="-808"
       gradientUnits="userSpaceOnUse"
       gradientTransform="translate(980.3622,784)" />
    <linearGradient
       id="linearGradient5618">
      <stop
         style="stop-color:#3e3e3e;stop-opacity:1;"
         offset="0"
         id="stop5620" />
      <stop
         style="stop-color:#595959;stop-opacity:1;"
         offset="1"
         id="stop5622" />
    </linearGradient>
    <filter
       inkscape:collect="always"
       id="filter4023"
       x="-0.063848684"
       width="1.1276974"
       y="-0.99538462"
       height="2.9907692">
      <feGaussianBlur
         inkscape:collect="always"
         stdDeviation="1.0109375"
         id="feGaussianBlur4025" />
    </filter>
    <filter
       inkscape:collect="always"
       id="filter4033"
       x="-0.12769737"
       width="1.2553947"
       y="-1.9907692"
       height="4.9815385">
      <feGaussianBlur
         inkscape:collect="always"
         stdDeviation="2.021875"
         id="feGaussianBlur4035" />
    </filter>
    <linearGradient
       inkscape:collect="always"
       xlink:href="#linearGradient3934"
       id="linearGradient3998"
       gradientUnits="userSpaceOnUse"
       gradientTransform="matrix(0,-1,1,0,68,556)"
       x1="292"
       y1="244"
       x2="332"
       y2="244" />
    <linearGradient
       id="linearGradient3934">
      <stop
         style="stop-color:#dd2f03;stop-opacity:1;"
         offset="0"
         id="stop3936" />
      <stop
         style="stop-color:#e96300;stop-opacity:1;"
         offset="1"
         id="stop3938" />
    </linearGradient>
    <linearGradient
       y2="244"
       x2="332"
       y1="244"
       x1="292"
       gradientTransform="matrix(0,-1,1,0,65,302)"
       gradientUnits="userSpaceOnUse"
       id="linearGradient3177"
       xlink:href="#linearGradient3934"
       inkscape:collect="always" />
    <linearGradient
       inkscape:collect="always"
       xlink:href="#linearGradient3934"
       id="linearGradient4117"
       gradientUnits="userSpaceOnUse"
       gradientTransform="translate(980.3622,784)"
       x1="-1023.8622"
       y1="-808"
       x2="-984.86218"
       y2="-808" />
    <linearGradient
       inkscape:collect="always"
       xlink:href="#linearGradient4149"
       id="linearGradient4155"
       x1="24"
       y1="43.5"
       x2="37"
       y2="23.375"
       gradientUnits="userSpaceOnUse" />
    <linearGradient
       inkscape:collect="always"
       xlink:href="#outerBackgroundGradient-0"
       id="linearGradient3998-0"
       gradientUnits="userSpaceOnUse"
       gradientTransform="matrix(0,-1,1,0,68,556)"
       x1="292"
       y1="244"
       x2="332"
       y2="244" />
    <linearGradient
       id="outerBackgroundGradient-0">
      <stop
         style="stop-color:#dddddd;stop-opacity:1;"
         offset="0"
         id="stop3864-8-6-9" />
      <stop
         style="stop-color:#f2f2f2;stop-opacity:1;"
         offset="1"
         id="stop3866-9-1-5" />
    </linearGradient>
    <linearGradient
       inkscape:collect="always"
       xlink:href="#linearGradient4100"
       id="linearGradient4898"
       gradientUnits="userSpaceOnUse"
       x1="328"
       y1="235"
       x2="328"
       y2="277"
       gradientTransform="translate(-3.5,-3.5)" />
    <linearGradient
       id="linearGradient4100">
      <stop
         id="stop4102"
         offset="0"
         style="stop-color:#aaaaaa;stop-opacity:1;" />
      <stop
         id="stop4104"
         offset="1"
         style="stop-color:#767676;stop-opacity:1;" />
    </linearGradient>
    <linearGradient
       inkscape:collect="always"
       xlink:href="#linearGradient4084"
       id="linearGradient4900"
       gradientUnits="userSpaceOnUse"
       x1="324"
       y1="231"
       x2="324"
       y2="273"
       gradientTransform="translate(-3.5,-3.5)" />
    <linearGradient
       id="linearGradient4084">
      <stop
         style="stop-color:#cd5fc2;stop-opacity:1;"
         offset="0"
         id="stop4086" />
      <stop
         style="stop-color:#9a4993;stop-opacity:1;"
         offset="1"
         id="stop4088" />
    </linearGradient>
    <linearGradient
       inkscape:collect="always"
       xlink:href="#linearGradient3413"
       id="linearGradient4902"
       gradientUnits="userSpaceOnUse"
       x1="328"
       y1="273"
       x2="328"
       y2="231"
       gradientTransform="translate(-3.5,-3.5)" />
    <linearGradient
       id="outerBackgroundGradient-7">
      <stop
         style="stop-color:#717171;stop-opacity:1;"
         offset="0"
         id="stop3864-8-6-3" />
      <stop
         style="stop-color:#848484;stop-opacity:1;"
         offset="1"
         id="stop3866-9-1-2" />
    </linearGradient>
    <linearGradient
       inkscape:collect="always"
       xlink:href="#linearGradient3413"
       id="linearGradient4904"
       gradientUnits="userSpaceOnUse"
       x1="336"
       y1="273"
       x2="336"
       y2="231"
       gradientTransform="translate(-3.5,-3.5)" />
    <linearGradient
       id="linearGradient3413">
      <stop
         style="stop-color:#dddddd;stop-opacity:1;"
         offset="0"
         id="stop3415" />
      <stop
         style="stop-color:#f2f2f2;stop-opacity:1;"
         offset="1"
         id="stop3417" />
    </linearGradient>
    <clipPath
       clipPathUnits="userSpaceOnUse"
       id="clipPath4068">
      <rect
         ry="4.5"
         y="259"
         x="316"
         height="9"
         width="24"
         id="rect4070"
         style="color:#bebebe;fill:#525252;fill-opacity:1;fill-rule:nonzero;stroke:none;stroke-width:1;marker:none;visibility:visible;display:inline;overflow:visible;enable-background:accumulate" />
    </clipPath>
    <clipPath
       clipPathUnits="userSpaceOnUse"
       id="clipPath4060">
      <rect
         style="color:#bebebe;fill:#525252;fill-opacity:1;fill-rule:nonzero;stroke:none;stroke-width:1;marker:none;visibility:visible;display:inline;overflow:visible;enable-background:accumulate"
         id="rect4062"
         width="24"
         height="9"
         x="316"
         y="240"
         ry="4.5" />
    </clipPath>
    <clipPath
       clipPathUnits="userSpaceOnUse"
       id="clipPath3423">
      <rect
         style="color:#bebebe;fill:#525252;fill-opacity:1;fill-rule:nonzero;stroke:none;stroke-width:1;marker:none;visibility:visible;display:inline;overflow:visible;enable-background:accumulate"
         id="rect3425"
         width="24"
         height="9"
         x="316"
         y="240"
         ry="4.5" />
    </clipPath>
    <clipPath
       clipPathUnits="userSpaceOnUse"
       id="clipPath3427">
      <rect
         ry="4.5"
         y="259"
         x="316"
         height="9"
         width="24"
         id="rect3429"
         style="color:#bebebe;fill:#525252;fill-opacity:1;fill-rule:nonzero;stroke:none;stroke-width:1;marker:none;visibility:visible;display:inline;overflow:visible;enable-background:accumulate" />
    </clipPath>
    <clipPath
       clipPathUnits="userSpaceOnUse"
       id="clipPath3431">
      <rect
         ry="4.5"
         y="259"
         x="316"
         height="9"
         width="24"
         id="rect3433"
         style="color:#bebebe;fill:#525252;fill-opacity:1;fill-rule:nonzero;stroke:none;stroke-width:1;marker:none;visibility:visible;display:inline;overflow:visible;enable-background:accumulate" />
    </clipPath>
    <clipPath
       clipPathUnits="userSpaceOnUse"
       id="clipPath3435">
      <rect
         style="color:#bebebe;fill:#525252;fill-opacity:1;fill-rule:nonzero;stroke:none;stroke-width:1;marker:none;visibility:visible;display:inline;overflow:visible;enable-background:accumulate"
         id="rect3437"
         width="24"
         height="9"
         x="316"
         y="240"
         ry="4.5" />
    </clipPath>
    <clipPath
       clipPathUnits="userSpaceOnUse"
       id="clipPath3439">
      <rect
         style="color:#bebebe;fill:#525252;fill-opacity:1;fill-rule:nonzero;stroke:none;stroke-width:1;marker:none;visibility:visible;display:inline;overflow:visible;enable-background:accumulate"
         id="rect3441"
         width="24"
         height="9"
         x="316"
         y="240"
         ry="4.5" />
    </clipPath>
    <clipPath
       clipPathUnits="userSpaceOnUse"
       id="clipPath3443">
      <rect
         ry="4.5"
         y="259"
         x="316"
         height="9"
         width="24"
         id="rect3445"
         style="color:#bebebe;fill:#525252;fill-opacity:1;fill-rule:nonzero;stroke:none;stroke-width:1;marker:none;visibility:visible;display:inline;overflow:visible;enable-background:accumulate" />
    </clipPath>
    <linearGradient
       y2="244"
       x2="332"
       y1="244"
       x1="292"
       gradientTransform="matrix(0,-1,1,0,-223.5,332.5)"
       gradientUnits="userSpaceOnUse"
       id="linearGradient3470"
       xlink:href="#outerBackgroundGradient-0"
       inkscape:collect="always" />
    <linearGradient
       inkscape:collect="always"
       xlink:href="#linearGradient3413"
       id="linearGradient4564"
       gradientUnits="userSpaceOnUse"
       gradientTransform="translate(980.3622,784)"
       x1="-1023.8622"
       y1="-808"
       x2="-984.86218"
       y2="-808" />
    <linearGradient
       inkscape:collect="always"
       xlink:href="#linearGradient4100"
       id="linearGradient4629"
       gradientUnits="userSpaceOnUse"
       gradientTransform="translate(-3.5,-3.5)"
       x1="328"
       y1="235"
       x2="328"
       y2="277" />
    <linearGradient
       inkscape:collect="always"
       xlink:href="#linearGradient4084"
       id="linearGradient4631"
       gradientUnits="userSpaceOnUse"
       gradientTransform="translate(-3.5,-3.5)"
       x1="324"
       y1="231"
       x2="324"
       y2="273" />
    <linearGradient
       inkscape:collect="always"
       xlink:href="#linearGradient3413"
       id="linearGradient4633"
       gradientUnits="userSpaceOnUse"
       gradientTransform="translate(-3.5,-3.5)"
       x1="328"
       y1="273"
       x2="328"
       y2="231" />
    <linearGradient
       inkscape:collect="always"
       xlink:href="#linearGradient3413"
       id="linearGradient4635"
       gradientUnits="userSpaceOnUse"
       gradientTransform="translate(-3.5,-3.5)"
       x1="336"
       y1="273"
       x2="336"
       y2="231" />
    <linearGradient
       inkscape:collect="always"
       xlink:href="#linearGradient3413"
       id="linearGradient4642"
       gradientUnits="userSpaceOnUse"
       gradientTransform="translate(-307.5,-231.5)"
       x1="336"
       y1="273"
       x2="336"
       y2="231" />
    <linearGradient
       inkscape:collect="always"
       xlink:href="#linearGradient3413"
       id="linearGradient4646"
       gradientUnits="userSpaceOnUse"
       gradientTransform="translate(-307.5,-231.5)"
       x1="328"
       y1="273"
       x2="328"
       y2="231" />
    <linearGradient
       inkscape:collect="always"
       xlink:href="#linearGradient4084"
       id="linearGradient4650"
       gradientUnits="userSpaceOnUse"
       gradientTransform="translate(-307.5,-231.5)"
       x1="324"
       y1="231"
       x2="324"
       y2="273" />
    <linearGradient
       inkscape:collect="always"
       xlink:href="#linearGradient4100"
       id="linearGradient4653"
       gradientUnits="userSpaceOnUse"
       gradientTransform="translate(-307.5,-235.5)"
       x1="328"
       y1="235"
       x2="328"
       y2="277" />
    <linearGradient
       inkscape:collect="always"
       xlink:href="#linearGradient4100"
       id="linearGradient4669"
       gradientUnits="userSpaceOnUse"
       gradientTransform="translate(-307.5,-235.5)"
       x1="328"
       y1="235"
       x2="328"
       y2="277" />
    <linearGradient
       inkscape:collect="always"
       xlink:href="#linearGradient3413"
       id="linearGradient3877"
       gradientUnits="userSpaceOnUse"
       gradientTransform="matrix(0,-1,-1,0,-784,-980.3622)"
       x1="-1023.8622"
       y1="-808"
       x2="-984.86218"
       y2="-808" />
  </defs>
  <g
     inkscape:groupmode="layer"
     id="layer1"
     inkscape:label="Background">
    <path
       inkscape:connector-curvature="0"
       style="opacity:0.50000000000000000;fill:#000000;fill-opacity:1;stroke:none;display:inline;filter:url(#filter4023)"
       d="M 6.4375,44.000017 C 5.62555,44.000017 5,43.374417 5,42.562517 l 0,-1 c 0,0.8119 0.62555,1.4375 1.4375,1.4375 l 35.125,0 c 0.81195,0 1.4375,-0.6256 1.4375,-1.4375 l 0,1 c 0,0.8119 -0.62555,1.4375 -1.4375,1.4375 l -35.125,0 z"
       id="path4147" />
    <path
       id="path4027"
       d="M 6.4375,44.000017 C 5.62555,44.000017 5,43.374417 5,42.562517 l 0,-1 c 0,0.8119 0.62555,1.4375 1.4375,1.4375 l 35.125,0 c 0.81195,0 1.4375,-0.6256 1.4375,-1.4375 l 0,1 c 0,0.8119 -0.62555,1.4375 -1.4375,1.4375 l -35.125,0 z"
       style="opacity:0.40000000000000002;fill:#000000;fill-opacity:1;stroke:none;display:inline;filter:url(#filter4033)"
       inkscape:connector-curvature="0" />
    <path
       style="fill:url(#linearGradient3877);fill-opacity:1;stroke:none;display:inline"
       d="M 6.4375 5 C 5.625551 5 5 5.6255532 5 6.4375 L 5 41.5625 C 5 42.374447 5.625551 43 6.4375 43 L 41.5625 43 C 42.374449 43 43 42.374447 43 41.5625 L 43 6.4375 C 43 5.6255532 42.374449 5 41.5625 5 L 6.4375 5 z "
       id="rect4073" />
    <rect
       style="opacity:0.41;fill:none;stroke:#000000;stroke-opacity:1;display:inline"
       id="rect4085"
       width="39"
       height="39"
       x="-43.5"
       y="-43.5"
       transform="matrix(0,-1,-1,0,0,0)"
       ry="1.95"
       rx="1.9499974" />
    <path
       inkscape:connector-curvature="0"
       style="opacity:0.14999999999999999;fill:#ffffff;fill-opacity:1;stroke:none;display:inline"
       d="M 6.4375,5.00002 C 5.62555,5.00002 5,5.62557 5,6.43752 l 0,1 C 5,6.62557 5.62555,6.00002 6.4375,6.00002 l 35.125,0 c 0.81195,0 1.4375,0.62555 1.4375,1.4375 l 0,-1 c 0,-0.81195 -0.62555,-1.4375 -1.4375,-1.4375 l -35.125,0 z"
       id="rect4089-4" />
    <path
       id="path4105"
       d="M 6.4375,43.000017 C 5.62555,43.000017 5,42.374417 5,41.562517 L 5,40.56252 c 0,0.811897 0.62555,1.437497 1.4375,1.437497 l 35.125,0 c 0.81195,0 1.4375,-0.6256 1.4375,-1.437497 l 0,0.999997 c 0,0.8119 -0.62555,1.4375 -1.4375,1.4375 l -35.125,0 z"
       style="opacity:0.10000000000000001;fill:#ffffff;fill-opacity:1;stroke:none;display:inline"
       inkscape:connector-curvature="0" />
    <path
       transform="matrix(0,1,-1,0,280,-784)"
       style="opacity:0.10000000000000001;fill:none;stroke:url(#linearGradient4140);stroke-width:2;stroke-miterlimit:4;stroke-opacity:1;stroke-dasharray:none;display:inline"
       d="M 790.4375,237 C 789.62555,237 789,237.62555 789,238.4375 l 0,35.09375 c 0,0.812 0.62555,1.46875 1.4375,1.46875 l 35.125,0 c 0.81195,0 1.4375,-0.65675 1.4375,-1.46875 l 0,-35.09375 C 827,237.62555 826.37445,237 825.5625,237 l -35.125,0 z"
       id="path4128"
       clip-path="url(#clipPath4130)"
       inkscape:connector-curvature="0" />
  </g>
  <g
     inkscape:groupmode="layer"
     id="layer2"
     inkscape:label="Symbol">
    <g
       transform="translate(-293,-217.99988)"
       style="fill:#ffffff;fill-opacity:1;display:inline;enable-background:new;opacity:0.3"
       id="g3874">
      <path
         style="font-size:22.27977753000000050px;font-style:normal;font-weight:normal;fill:#ffffff;fill-opacity:1;stroke:none;display:inline;enable-background:new;font-family:Bitstream Vera Sans"
         id="path3876"
         d="m 312.70626,234.25509 c -1.76734,0 -2.99178,0.17827 -3.67335,0.5348 -0.68157,0.35653 -1.02235,0.96473 -1.02235,1.8246 0,0.6851 0.2536,1.23039 0.76082,1.63586 0.51514,0.39847 1.21255,0.59771 2.09226,0.59771 1.21255,0 2.18339,-0.3775 2.91252,-1.13251 0.73704,-0.762 1.10556,-1.77217 1.10557,-3.03053 l 0,-0.42993 -2.17547,0 m 4.36284,-0.79696 0,6.70071 -2.18737,0 0,-1.78266 c -0.4993,0.71307 -1.12143,1.24087 -1.86639,1.58342 -0.74498,0.33556 -1.65638,0.50334 -2.7342,0.50334 -1.36315,0 -2.4489,-0.33556 -3.25727,-1.00668 -0.80045,-0.67811 -1.20068,-1.58342 -1.20067,-2.71593 -10e-6,-1.32127 0.49928,-2.31746 1.49786,-2.98858 1.0065,-0.67111 2.50437,-1.00667 4.49361,-1.00668 l 3.06706,0 0,-0.18875 c -1e-5,-0.88783 -0.33287,-1.57293 -0.99858,-2.05531 -0.6578,-0.48935 -1.58505,-0.73402 -2.78175,-0.73403 -0.76083,1e-5 -1.50184,0.0804 -2.22303,0.24118 -0.7212,0.1608 -1.41465,0.40198 -2.08037,0.72355 l 0,-1.78266 c 0.80044,-0.27263 1.57712,-0.47537 2.33002,-0.6082 0.75289,-0.13981 1.48597,-0.20972 2.19925,-0.20973 1.92582,1e-5 3.36425,0.44044 4.31528,1.32127 0.95102,0.88085 1.42653,2.2161 1.42655,4.00574"
         inkscape:connector-curvature="0" />
      <path
         inkscape:connector-curvature="0"
         style="font-size:10.17865562000000068px;font-style:normal;font-weight:normal;fill:#ffffff;fill-opacity:1;stroke:none;display:inline;enable-background:new;font-family:Bitstream Vera Sans"
         sodipodi:nodetypes="csssssssccssssssscccccc"
         id="path3878"
         d="m 326.6244,246.28903 c 0.76538,0 1.34775,-0.29189 1.74709,-0.87567 0.40598,-0.58379 0.60898,-1.43166 0.60899,-2.54364 -10e-6,-1.11196 -0.20301,-1.95984 -0.60899,-2.54363 -0.39934,-0.58377 -0.98171,-0.87566 -1.74709,-0.87568 -0.7654,2e-5 -1.35441,0.29538 -1.76705,0.88611 -0.406,0.58379 -0.609,1.42819 -0.60899,2.5332 -10e-6,1.10503 0.20299,1.95291 0.60899,2.54364 0.41264,0.58378 1.00165,0.87567 1.76705,0.87567 m -2.37604,-7.55792 c 0.49251,-0.68107 1.03826,-1.18146 1.63727,-1.50116 0.59899,-0.32663 1.28785,-0.48995 2.06656,-0.48996 1.37769,1e-5 2.50914,0.57337 3.39435,1.72008 0.88518,1.13978 1.32777,2.60966 1.32779,4.40965 -2e-5,1.80001 -0.44261,3.27337 -1.32779,4.42009 -0.88521,1.13977 -2.01666,1.70965 -3.39435,1.70965 -0.77871,0 -1.46757,-0.15985 -2.06656,-0.47954 -0.59901,-0.32664 -1.14476,-0.8305 -1.63727,-1.51158 l 0,1.6888 -4.10438,0 0,-16.22086 4.10438,0 0,6.25483" />
      <path
         inkscape:connector-curvature="0"
         style="font-size:17.54367638000000085px;font-style:normal;font-weight:normal;fill:#ffffff;fill-opacity:1;stroke:none;display:inline;enable-background:new;font-family:Bitstream Vera Sans"
         id="path3880"
         d="m 313.87103,253.40835 c -0.66033,1.45267 -1.57391,2.55925 -2.74074,3.31976 -1.16687,0.76051 -2.54629,1.14077 -4.13826,1.14077 -2.09853,0 -3.64528,-0.6537 -4.64027,-1.9611 -0.99499,-1.31593 -1.26635,-3.05913 -0.81408,-5.22958 0.46131,-2.17899 1.46534,-3.91791 3.01211,-5.21677 1.55579,-1.30738 3.38295,-1.96108 5.48148,-1.96109 0.91357,1e-5 1.80002,0.10255 2.65934,0.30762 0.86834,0.19655 1.71408,0.4999 2.53722,0.91005 l -0.73267,3.48639 -1.45178,0 c 0.0633,-1.1963 -0.16735,-2.06789 -0.69197,-2.61479 -0.5156,-0.54687 -1.36586,-0.82032 -2.55079,-0.82033 -1.34777,1e-5 -2.47392,0.49563 -3.37845,1.48684 -0.89549,0.9827 -1.55128,2.45672 -1.96736,4.42208 -0.41609,1.96537 -0.38896,3.44367 0.0814,4.43489 0.47939,0.99123 1.3975,1.48685 2.75431,1.48685 1.07639,0 1.98997,-0.2649 2.74074,-0.7947 0.7598,-0.52979 1.37036,-1.32875 1.83169,-2.39689 l 2.00807,0" />
    </g>
    <g
       id="g3909"
       style="fill:#323232;fill-opacity:1;display:inline;enable-background:new"
       transform="translate(-293,-219)">
      <path
         inkscape:connector-curvature="0"
         d="m 312.70626,234.25509 c -1.76734,0 -2.99178,0.17827 -3.67335,0.5348 -0.68157,0.35653 -1.02235,0.96473 -1.02235,1.8246 0,0.6851 0.2536,1.23039 0.76082,1.63586 0.51514,0.39847 1.21255,0.59771 2.09226,0.59771 1.21255,0 2.18339,-0.3775 2.91252,-1.13251 0.73704,-0.762 1.10556,-1.77217 1.10557,-3.03053 l 0,-0.42993 -2.17547,0 m 4.36284,-0.79696 0,6.70071 -2.18737,0 0,-1.78266 c -0.4993,0.71307 -1.12143,1.24087 -1.86639,1.58342 -0.74498,0.33556 -1.65638,0.50334 -2.7342,0.50334 -1.36315,0 -2.4489,-0.33556 -3.25727,-1.00668 -0.80045,-0.67811 -1.20068,-1.58342 -1.20067,-2.71593 -10e-6,-1.32127 0.49928,-2.31746 1.49786,-2.98858 1.0065,-0.67111 2.50437,-1.00667 4.49361,-1.00668 l 3.06706,0 0,-0.18875 c -1e-5,-0.88783 -0.33287,-1.57293 -0.99858,-2.05531 -0.6578,-0.48935 -1.58505,-0.73402 -2.78175,-0.73403 -0.76083,1e-5 -1.50184,0.0804 -2.22303,0.24118 -0.7212,0.1608 -1.41465,0.40198 -2.08037,0.72355 l 0,-1.78266 c 0.80044,-0.27263 1.57712,-0.47537 2.33002,-0.6082 0.75289,-0.13981 1.48597,-0.20972 2.19925,-0.20973 1.92582,1e-5 3.36425,0.44044 4.31528,1.32127 0.95102,0.88085 1.42653,2.2161 1.42655,4.00574"
         id="text2841"
         style="font-size:22.27977753000000050px;font-style:normal;font-weight:normal;fill:#323232;fill-opacity:1;stroke:none;display:inline;enable-background:new;font-family:Bitstream Vera Sans" />
      <path
         d="m 326.6244,246.28903 c 0.76538,0 1.34775,-0.29189 1.74709,-0.87567 0.40598,-0.58379 0.60898,-1.43166 0.60899,-2.54364 -10e-6,-1.11196 -0.20301,-1.95984 -0.60899,-2.54363 -0.39934,-0.58377 -0.98171,-0.87566 -1.74709,-0.87568 -0.7654,2e-5 -1.35441,0.29538 -1.76705,0.88611 -0.406,0.58379 -0.609,1.42819 -0.60899,2.5332 -10e-6,1.10503 0.20299,1.95291 0.60899,2.54364 0.41264,0.58378 1.00165,0.87567 1.76705,0.87567 m -2.37604,-7.55792 c 0.49251,-0.68107 1.03826,-1.18146 1.63727,-1.50116 0.59899,-0.32663 1.28785,-0.48995 2.06656,-0.48996 1.37769,1e-5 2.50914,0.57337 3.39435,1.72008 0.88518,1.13978 1.32777,2.60966 1.32779,4.40965 -2e-5,1.80001 -0.44261,3.27337 -1.32779,4.42009 -0.88521,1.13977 -2.01666,1.70965 -3.39435,1.70965 -0.77871,0 -1.46757,-0.15985 -2.06656,-0.47954 -0.59901,-0.32664 -1.14476,-0.8305 -1.63727,-1.51158 l 0,1.6888 -4.10438,0 0,-16.22086 4.10438,0 0,6.25483"
         id="text2849"
         sodipodi:nodetypes="csssssssccssssssscccccc"
         style="font-size:10.17865562000000068px;font-style:normal;font-weight:normal;fill:#323232;fill-opacity:1;stroke:none;display:inline;enable-background:new;font-family:Bitstream Vera Sans"
         inkscape:connector-curvature="0" />
      <path
         d="m 313.87103,253.40835 c -0.66033,1.45267 -1.57391,2.55925 -2.74074,3.31976 -1.16687,0.76051 -2.54629,1.14077 -4.13826,1.14077 -2.09853,0 -3.64528,-0.6537 -4.64027,-1.9611 -0.99499,-1.31593 -1.26635,-3.05913 -0.81408,-5.22958 0.46131,-2.17899 1.46534,-3.91791 3.01211,-5.21677 1.55579,-1.30738 3.38295,-1.96108 5.48148,-1.96109 0.91357,1e-5 1.80002,0.10255 2.65934,0.30762 0.86834,0.19655 1.71408,0.4999 2.53722,0.91005 l -0.73267,3.48639 -1.45178,0 c 0.0633,-1.1963 -0.16735,-2.06789 -0.69197,-2.61479 -0.5156,-0.54687 -1.36586,-0.82032 -2.55079,-0.82033 -1.34777,1e-5 -2.47392,0.49563 -3.37845,1.48684 -0.89549,0.9827 -1.55128,2.45672 -1.96736,4.42208 -0.41609,1.96537 -0.38896,3.44367 0.0814,4.43489 0.47939,0.99123 1.3975,1.48685 2.75431,1.48685 1.07639,0 1.98997,-0.2649 2.74074,-0.7947 0.7598,-0.52979 1.37036,-1.32875 1.83169,-2.39689 l 2.00807,0"
         id="text2853"
         style="font-size:17.54367638000000085px;font-style:normal;font-weight:normal;fill:#323232;fill-opacity:1;stroke:none;display:inline;enable-background:new;font-family:Bitstream Vera Sans"
         inkscape:connector-curvature="0" />
    </g>
  </g>
</svg>
