<?xml version="1.0" encoding="UTF-8" standalone="no"?>
<!-- Created with Inkscape (http://www.inkscape.org/) -->

<svg
   xmlns:dc="http://purl.org/dc/elements/1.1/"
   xmlns:cc="http://creativecommons.org/ns#"
   xmlns:rdf="http://www.w3.org/1999/02/22-rdf-syntax-ns#"
   xmlns:svg="http://www.w3.org/2000/svg"
   xmlns="http://www.w3.org/2000/svg"
   xmlns:xlink="http://www.w3.org/1999/xlink"
   xmlns:sodipodi="http://sodipodi.sourceforge.net/DTD/sodipodi-0.dtd"
   xmlns:inkscape="http://www.inkscape.org/namespaces/inkscape"
   version="1.1"
   width="48"
   height="48"
   id="svg3759"
   inkscape:version="0.48.4 r9939"
   sodipodi:docname="software-store.svg">
  <sodipodi:namedview
     pagecolor="#000000"
     bordercolor="#666666"
     borderopacity="1"
     objecttolerance="10"
     gridtolerance="10"
     guidetolerance="10"
     inkscape:pageopacity="0"
     inkscape:pageshadow="2"
     inkscape:window-width="1364"
     inkscape:window-height="700"
     id="namedview36"
     showgrid="false"
     showborder="false"
     inkscape:zoom="1"
     inkscape:cx="34.684891"
     inkscape:cy="13.990235"
     inkscape:window-x="0"
     inkscape:window-y="28"
     inkscape:window-maximized="1"
     inkscape:current-layer="layer2"
     inkscape:snap-bbox="true"
     inkscape:bbox-paths="true"
     inkscape:bbox-nodes="true"
     inkscape:snap-bbox-edge-midpoints="true"
     inkscape:snap-bbox-midpoints="true">
    <inkscape:grid
       type="xygrid"
       id="grid3818"
       empspacing="4"
       visible="true"
       enabled="true"
       snapvisiblegridlinesonly="true" />
    <inkscape:grid
       type="xygrid"
       id="grid4477"
       empspacing="4"
       visible="true"
       enabled="true"
       snapvisiblegridlinesonly="true"
       dotted="true"
       spacingx="0.5px"
       spacingy="0.5px" />
  </sodipodi:namedview>
  <metadata
     id="metadata37">
    <rdf:RDF>
      <cc:Work
         rdf:about="">
        <dc:format>image/svg+xml</dc:format>
        <dc:type
           rdf:resource="http://purl.org/dc/dcmitype/StillImage" />
        <dc:title></dc:title>
      </cc:Work>
    </rdf:RDF>
  </metadata>
  <defs
     id="defs3761">
    <linearGradient
       id="linearGradient4304">
      <stop
         id="stop4306"
         offset="0"
         style="stop-color:#dbdbdb;stop-opacity:1;" />
      <stop
         style="stop-color:#e4e4e4;stop-opacity:1;"
         offset="0.34999999"
         id="stop4308" />
      <stop
         style="stop-color:#efefef;stop-opacity:1;"
         offset="0.34999999"
         id="stop4310" />
      <stop
         id="stop4312"
         offset="1"
         style="stop-color:#ffffff;stop-opacity:1" />
    </linearGradient>
    <linearGradient
       id="linearGradient4724">
      <stop
         id="stop4726"
         offset="0"
         style="stop-color:#f2fff6;stop-opacity:1;" />
      <stop
         id="stop4728"
         offset="1"
         style="stop-color:#f4fff5;stop-opacity:1;" />
    </linearGradient>
    <linearGradient
       id="linearGradient4706">
      <stop
         id="stop4708"
         offset="0"
         style="stop-color:#2b5b3b;stop-opacity:1;" />
      <stop
         id="stop4710"
         offset="1"
         style="stop-color:#41694e;stop-opacity:1;" />
    </linearGradient>
    <linearGradient
       inkscape:collect="always"
       id="linearGradient4149">
      <stop
         style="stop-color:#ffffff;stop-opacity:1;"
         offset="0"
         id="stop4151" />
      <stop
         style="stop-color:#ffffff;stop-opacity:0;"
         offset="1"
         id="stop4153" />
    </linearGradient>
    <linearGradient
       id="linearGradient4127">
      <stop
         id="stop4129"
         offset="0"
         style="stop-color:#8f2b12;stop-opacity:1;" />
      <stop
         id="stop4131"
         offset="1"
         style="stop-color:#82461a;stop-opacity:1;" />
    </linearGradient>
    <linearGradient
       inkscape:collect="always"
       xlink:href="#linearGradient4134"
       id="linearGradient4140"
       x1="789"
       y1="256"
       x2="827"
       y2="256"
       gradientUnits="userSpaceOnUse" />
    <linearGradient
       inkscape:collect="always"
       id="linearGradient4134">
      <stop
         style="stop-color:#ffffff;stop-opacity:1;"
         offset="0"
         id="stop4136" />
      <stop
         style="stop-color:#ffffff;stop-opacity:0;"
         offset="1"
         id="stop4138" />
    </linearGradient>
    <clipPath
       clipPathUnits="userSpaceOnUse"
       id="clipPath4130">
      <path
         id="path4132"
         d="M 790.4375,237 C 789.62555,237 789,237.62555 789,238.4375 l 0,35.09375 c 0,0.812 0.62555,1.46875 1.4375,1.46875 l 35.125,0 c 0.81195,0 1.4375,-0.65675 1.4375,-1.46875 l 0,-35.09375 C 827,237.62555 826.37445,237 825.5625,237 l -35.125,0 z"
         style="fill:#ba2222;fill-opacity:1;stroke:none"
         inkscape:connector-curvature="0" />
    </clipPath>
    <linearGradient
       inkscape:collect="always"
       xlink:href="#linearGradient5618"
       id="linearGradient4083"
       x1="-1023.8622"
       y1="-808"
       x2="-984.86218"
       y2="-808"
       gradientUnits="userSpaceOnUse"
       gradientTransform="translate(980.3622,784)" />
    <linearGradient
       id="linearGradient5618">
      <stop
         style="stop-color:#3e3e3e;stop-opacity:1;"
         offset="0"
         id="stop5620" />
      <stop
         style="stop-color:#595959;stop-opacity:1;"
         offset="1"
         id="stop5622" />
    </linearGradient>
    <linearGradient
       inkscape:collect="always"
       xlink:href="#linearGradient3934"
       id="linearGradient3998"
       gradientUnits="userSpaceOnUse"
       gradientTransform="matrix(0,-1,1,0,68,556)"
       x1="292"
       y1="244"
       x2="332"
       y2="244" />
    <linearGradient
       id="linearGradient3934">
      <stop
         style="stop-color:#dd2f03;stop-opacity:1;"
         offset="0"
         id="stop3936" />
      <stop
         style="stop-color:#e96300;stop-opacity:1;"
         offset="1"
         id="stop3938" />
    </linearGradient>
    <linearGradient
       y2="244"
       x2="332"
       y1="244"
       x1="292"
       gradientTransform="matrix(0,-1,1,0,65,302)"
       gradientUnits="userSpaceOnUse"
       id="linearGradient3177"
       xlink:href="#linearGradient3934"
       inkscape:collect="always" />
    <linearGradient
       inkscape:collect="always"
       xlink:href="#linearGradient4149"
       id="linearGradient4155"
       x1="24"
       y1="43.5"
       x2="37"
       y2="23.375"
       gradientUnits="userSpaceOnUse" />
    <linearGradient
       inkscape:collect="always"
       xlink:href="#outerBackgroundGradient-0"
       id="linearGradient3998-0"
       gradientUnits="userSpaceOnUse"
       gradientTransform="matrix(0,-1,1,0,68,556)"
       x1="292"
       y1="244"
       x2="332"
       y2="244" />
    <linearGradient
       id="outerBackgroundGradient-0">
      <stop
         style="stop-color:#dddddd;stop-opacity:1;"
         offset="0"
         id="stop3864-8-6-9" />
      <stop
         style="stop-color:#f2f2f2;stop-opacity:1;"
         offset="1"
         id="stop3866-9-1-5" />
    </linearGradient>
    <linearGradient
       inkscape:collect="always"
       xlink:href="#linearGradient4100"
       id="linearGradient4898"
       gradientUnits="userSpaceOnUse"
       x1="328"
       y1="235"
       x2="328"
       y2="277"
       gradientTransform="translate(-3.5,-3.5)" />
    <linearGradient
       id="linearGradient4100">
      <stop
         id="stop4102"
         offset="0"
         style="stop-color:#aaaaaa;stop-opacity:1;" />
      <stop
         id="stop4104"
         offset="1"
         style="stop-color:#767676;stop-opacity:1;" />
    </linearGradient>
    <linearGradient
       inkscape:collect="always"
       xlink:href="#linearGradient4084"
       id="linearGradient4900"
       gradientUnits="userSpaceOnUse"
       x1="324"
       y1="231"
       x2="324"
       y2="273"
       gradientTransform="translate(-3.5,-3.5)" />
    <linearGradient
       id="linearGradient4084">
      <stop
         style="stop-color:#cd5fc2;stop-opacity:1;"
         offset="0"
         id="stop4086" />
      <stop
         style="stop-color:#9a4993;stop-opacity:1;"
         offset="1"
         id="stop4088" />
    </linearGradient>
    <linearGradient
       inkscape:collect="always"
       xlink:href="#outerBackgroundGradient-7"
       id="linearGradient4902"
       gradientUnits="userSpaceOnUse"
       x1="328"
       y1="273"
       x2="328"
       y2="231"
       gradientTransform="translate(-3.5,-3.5)" />
    <linearGradient
       id="outerBackgroundGradient-7">
      <stop
         style="stop-color:#dddddd;stop-opacity:1;"
         offset="0"
         id="stop3864-8-6-3" />
      <stop
         style="stop-color:#f2f2f2;stop-opacity:1;"
         offset="1"
         id="stop3866-9-1-2" />
    </linearGradient>
    <linearGradient
       inkscape:collect="always"
       xlink:href="#outerBackgroundGradient-7"
       id="linearGradient4904"
       gradientUnits="userSpaceOnUse"
       x1="336"
       y1="273"
       x2="336"
       y2="231"
       gradientTransform="translate(-3.5,-3.5)" />
    <linearGradient
       id="linearGradient3413">
      <stop
         style="stop-color:#dddddd;stop-opacity:1;"
         offset="0"
         id="stop3415" />
      <stop
         style="stop-color:#f2f2f2;stop-opacity:1;"
         offset="1"
         id="stop3417" />
    </linearGradient>
    <clipPath
       clipPathUnits="userSpaceOnUse"
       id="clipPath4068">
      <rect
         ry="4.5"
         y="259"
         x="316"
         height="9"
         width="24"
         id="rect4070"
         style="color:#bebebe;fill:#525252;fill-opacity:1;fill-rule:nonzero;stroke:none;stroke-width:1;marker:none;visibility:visible;display:inline;overflow:visible;enable-background:accumulate" />
    </clipPath>
    <clipPath
       clipPathUnits="userSpaceOnUse"
       id="clipPath4060">
      <rect
         style="color:#bebebe;fill:#525252;fill-opacity:1;fill-rule:nonzero;stroke:none;stroke-width:1;marker:none;visibility:visible;display:inline;overflow:visible;enable-background:accumulate"
         id="rect4062"
         width="24"
         height="9"
         x="316"
         y="240"
         ry="4.5" />
    </clipPath>
    <clipPath
       clipPathUnits="userSpaceOnUse"
       id="clipPath3423">
      <rect
         style="color:#bebebe;fill:#525252;fill-opacity:1;fill-rule:nonzero;stroke:none;stroke-width:1;marker:none;visibility:visible;display:inline;overflow:visible;enable-background:accumulate"
         id="rect3425"
         width="24"
         height="9"
         x="316"
         y="240"
         ry="4.5" />
    </clipPath>
    <clipPath
       clipPathUnits="userSpaceOnUse"
       id="clipPath3427">
      <rect
         ry="4.5"
         y="259"
         x="316"
         height="9"
         width="24"
         id="rect3429"
         style="color:#bebebe;fill:#525252;fill-opacity:1;fill-rule:nonzero;stroke:none;stroke-width:1;marker:none;visibility:visible;display:inline;overflow:visible;enable-background:accumulate" />
    </clipPath>
    <clipPath
       clipPathUnits="userSpaceOnUse"
       id="clipPath3431">
      <rect
         ry="4.5"
         y="259"
         x="316"
         height="9"
         width="24"
         id="rect3433"
         style="color:#bebebe;fill:#525252;fill-opacity:1;fill-rule:nonzero;stroke:none;stroke-width:1;marker:none;visibility:visible;display:inline;overflow:visible;enable-background:accumulate" />
    </clipPath>
    <clipPath
       clipPathUnits="userSpaceOnUse"
       id="clipPath3435">
      <rect
         style="color:#bebebe;fill:#525252;fill-opacity:1;fill-rule:nonzero;stroke:none;stroke-width:1;marker:none;visibility:visible;display:inline;overflow:visible;enable-background:accumulate"
         id="rect3437"
         width="24"
         height="9"
         x="316"
         y="240"
         ry="4.5" />
    </clipPath>
    <clipPath
       clipPathUnits="userSpaceOnUse"
       id="clipPath3439">
      <rect
         style="color:#bebebe;fill:#525252;fill-opacity:1;fill-rule:nonzero;stroke:none;stroke-width:1;marker:none;visibility:visible;display:inline;overflow:visible;enable-background:accumulate"
         id="rect3441"
         width="24"
         height="9"
         x="316"
         y="240"
         ry="4.5" />
    </clipPath>
    <clipPath
       clipPathUnits="userSpaceOnUse"
       id="clipPath3443">
      <rect
         ry="4.5"
         y="259"
         x="316"
         height="9"
         width="24"
         id="rect3445"
         style="color:#bebebe;fill:#525252;fill-opacity:1;fill-rule:nonzero;stroke:none;stroke-width:1;marker:none;visibility:visible;display:inline;overflow:visible;enable-background:accumulate" />
    </clipPath>
    <linearGradient
       y2="244"
       x2="332"
       y1="244"
       x1="292"
       gradientTransform="matrix(0,-1,1,0,-223.5,332.5)"
       gradientUnits="userSpaceOnUse"
       id="linearGradient3470"
       xlink:href="#outerBackgroundGradient-0"
       inkscape:collect="always" />
    <linearGradient
       inkscape:collect="always"
       xlink:href="#outerBackgroundGradient-6"
       id="linearGradient5320"
       gradientUnits="userSpaceOnUse"
       gradientTransform="matrix(0,-1,1,0,68,556)"
       x1="292"
       y1="244"
       x2="332"
       y2="244" />
    <linearGradient
       id="outerBackgroundGradient-6">
      <stop
         style="stop-color:#2ba051;stop-opacity:1"
         offset="0"
         id="stop3864-8-6-0" />
      <stop
         style="stop-color:#46bc6c;stop-opacity:1"
         offset="1"
         id="stop3866-9-1-7" />
    </linearGradient>
    <linearGradient
       y2="244"
       x2="332"
       y1="244"
       x1="292"
       gradientTransform="matrix(0,-1,1,0,-223.5,332.5)"
       gradientUnits="userSpaceOnUse"
       id="linearGradient3133"
       xlink:href="#outerBackgroundGradient-6"
       inkscape:collect="always" />
    <linearGradient
       inkscape:collect="always"
       xlink:href="#linearGradient4724"
       id="linearGradient4722"
       x1="24"
       y1="44"
       x2="24"
       y2="4"
       gradientUnits="userSpaceOnUse" />
    <radialGradient
       inkscape:collect="always"
       xlink:href="#linearGradient3952"
       id="radialGradient4205"
       gradientUnits="userSpaceOnUse"
       gradientTransform="matrix(1.0571429,0,0,1.25,0.6,-10.875)"
       cx="40"
       cy="43.5"
       fx="40"
       fy="43.5"
       r="2" />
    <linearGradient
       inkscape:collect="always"
       id="linearGradient3952">
      <stop
         style="stop-color:#000000;stop-opacity:1;"
         offset="0"
         id="stop3954" />
      <stop
         style="stop-color:#000000;stop-opacity:0;"
         offset="1"
         id="stop3956" />
    </linearGradient>
    <radialGradient
       inkscape:collect="always"
       xlink:href="#linearGradient3952"
       id="radialGradient4214"
       gradientUnits="userSpaceOnUse"
       gradientTransform="matrix(1,0,0,0.75,2,10.875)"
       cx="40"
       cy="43.5"
       fx="40"
       fy="43.5"
       r="2" />
    <radialGradient
       inkscape:collect="always"
       xlink:href="#linearGradient3944"
       id="radialGradient4202"
       gradientUnits="userSpaceOnUse"
       gradientTransform="matrix(1.0571429,0,0,1.25,-4.4000003,-10.875)"
       cx="9"
       cy="43.5"
       fx="9"
       fy="43.5"
       r="2" />
    <linearGradient
       inkscape:collect="always"
       id="linearGradient3944">
      <stop
         style="stop-color:#000000;stop-opacity:1;"
         offset="0"
         id="stop3946" />
      <stop
         style="stop-color:#000000;stop-opacity:0;"
         offset="1"
         id="stop3948" />
    </linearGradient>
    <radialGradient
       inkscape:collect="always"
       xlink:href="#linearGradient3944"
       id="radialGradient4211"
       gradientUnits="userSpaceOnUse"
       gradientTransform="matrix(1,0,0,0.75,-3.0000003,10.875)"
       cx="9"
       cy="43.5"
       fx="9"
       fy="43.5"
       r="2" />
    <linearGradient
       inkscape:collect="always"
       xlink:href="#linearGradient3960"
       id="linearGradient4208"
       gradientUnits="userSpaceOnUse"
       x1="25"
       y1="45"
       x2="25"
       y2="42"
       gradientTransform="matrix(1.0571429,0,0,1.6666667,-5.4000003,-29)" />
    <linearGradient
       id="linearGradient3960">
      <stop
         style="stop-color:#000000;stop-opacity:0;"
         offset="0"
         id="stop3962" />
      <stop
         id="stop3970"
         offset="0.5"
         style="stop-color:#000000;stop-opacity:1;" />
      <stop
         style="stop-color:#000000;stop-opacity:0;"
         offset="1"
         id="stop3964" />
    </linearGradient>
    <linearGradient
       inkscape:collect="always"
       xlink:href="#linearGradient3960"
       id="linearGradient4217"
       gradientUnits="userSpaceOnUse"
       x1="25"
       y1="45"
       x2="25"
       y2="42"
       gradientTransform="translate(-4.0000003,0)" />
    <linearGradient
       id="linearGradient3157">
      <stop
         style="stop-color:#000000;stop-opacity:0;"
         offset="0"
         id="stop3159" />
      <stop
         id="stop3161"
         offset="0.5"
         style="stop-color:#000000;stop-opacity:1;" />
      <stop
         style="stop-color:#000000;stop-opacity:0;"
         offset="1"
         id="stop3163" />
    </linearGradient>
    <linearGradient
       y2="42"
       x2="25"
       y1="45"
       x1="25"
       gradientTransform="translate(-4.0000003,0)"
       gradientUnits="userSpaceOnUse"
       id="linearGradient3172"
       xlink:href="#linearGradient3960"
       inkscape:collect="always" />
    <linearGradient
       inkscape:collect="always"
       xlink:href="#outerBackgroundGradient-0-8"
       id="linearGradient3874"
       gradientUnits="userSpaceOnUse"
       gradientTransform="matrix(0,-1,-1,0,48.000003,48.000003)"
       x1="4.5000033"
       y1="24"
       x2="43.500004"
       y2="24" />
    <linearGradient
       id="outerBackgroundGradient-0-8">
      <stop
         style="stop-color:#1c6aba;stop-opacity:1"
         offset="0"
         id="stop3864-8-6-3-9" />
      <stop
         style="stop-color:#4195ec;stop-opacity:1"
         offset="1"
         id="stop3866-9-1-7-5" />
    </linearGradient>
    <linearGradient
       y2="24"
       x2="44.000004"
       y1="24"
       x1="4.0000033"
       gradientTransform="matrix(0,-1,1,0,39,44.562523)"
       gradientUnits="userSpaceOnUse"
       id="linearGradient3946"
       xlink:href="#linearGradient3904-6"
       inkscape:collect="always" />
    <linearGradient
       id="linearGradient3904-6">
      <stop
         id="stop3906-8"
         offset="0"
         style="stop-color:#234683;stop-opacity:1;" />
      <stop
         id="stop3908-2"
         offset="1"
         style="stop-color:#30589e;stop-opacity:1;" />
    </linearGradient>
    <linearGradient
       y2="24"
       x2="43.500004"
       y1="24"
       x1="4.5000033"
       gradientTransform="matrix(0,-1,-1,0,87.000003,44.562523)"
       gradientUnits="userSpaceOnUse"
       id="linearGradient3110"
       xlink:href="#outerBackgroundGradient-0-8"
       inkscape:collect="always" />
    <linearGradient
       inkscape:collect="always"
       id="linearGradient10043">
      <stop
         style="stop-color:#000000;stop-opacity:1;"
         offset="0"
         id="stop10045" />
      <stop
         style="stop-color:#000000;stop-opacity:0;"
         offset="1"
         id="stop10047" />
    </linearGradient>
    <linearGradient
       id="linearGradient45318-8-8-1-5-1">
      <stop
         style="stop-color:#dbdbdb;stop-opacity:1;"
         offset="0"
         id="stop45320-1-9-7-4-5" />
      <stop
         id="stop4302"
         offset="0.25"
         style="stop-color:#e6e7e3;stop-opacity:1;" />
      <stop
         id="stop4300"
         offset="0.5"
         style="stop-color:#eeefec;stop-opacity:1;" />
      <stop
         style="stop-color:#ffffff;stop-opacity:1"
         offset="1"
         id="stop45322-5-2-7-5-29" />
    </linearGradient>
    <linearGradient
       inkscape:collect="always"
       xlink:href="#linearGradient10043"
       id="linearGradient4218"
       gradientUnits="userSpaceOnUse"
       gradientTransform="translate(-296.00668,-51.027728)"
       x1="305.6875"
       y1="61.3125"
       x2="313.03125"
       y2="61.3125" />
    <linearGradient
       inkscape:collect="always"
       xlink:href="#linearGradient4304"
       id="linearGradient4298"
       gradientUnits="userSpaceOnUse"
       gradientTransform="translate(0.4175127,-1.527729)"
       x1="15.582487"
       y1="25.527729"
       x2="15.582487"
       y2="45.527729" />
    <linearGradient
       inkscape:collect="always"
       xlink:href="#linearGradient3904"
       id="linearGradient3839"
       x1="1"
       y1="11"
       x2="21"
       y2="11"
       gradientUnits="userSpaceOnUse"
       gradientTransform="matrix(0,-1,1,0,23,48)" />
    <linearGradient
       id="linearGradient3904">
      <stop
         id="stop3906"
         offset="0"
         style="stop-color:#234683;stop-opacity:1;" />
      <stop
         id="stop3908"
         offset="1"
         style="stop-color:#30589e;stop-opacity:1;" />
    </linearGradient>
    <linearGradient
       inkscape:collect="always"
       xlink:href="#outerBackgroundGradient-0-89"
       id="linearGradient3802"
       x1="11"
       y1="0"
       x2="11"
       y2="22"
       gradientUnits="userSpaceOnUse"
       gradientTransform="matrix(1,0,0,-1,23,48)" />
    <linearGradient
       id="outerBackgroundGradient-0-89">
      <stop
         style="stop-color:#1c6aba;stop-opacity:1"
         offset="0"
         id="stop3864-8-6-3-93" />
      <stop
         style="stop-color:#4195ec;stop-opacity:1"
         offset="1"
         id="stop3866-9-1-7-59" />
    </linearGradient>
    <radialGradient
       inkscape:collect="always"
       xlink:href="#linearGradient3949"
       id="radialGradient3993"
       gradientUnits="userSpaceOnUse"
       gradientTransform="matrix(1,0,0,0.22222222,0,15.555556)"
       cx="11"
       cy="20"
       fx="11"
       fy="20"
       r="9" />
    <linearGradient
       inkscape:collect="always"
       id="linearGradient3949">
      <stop
         style="stop-color:#000000;stop-opacity:1;"
         offset="0"
         id="stop3951" />
      <stop
         style="stop-color:#000000;stop-opacity:0;"
         offset="1"
         id="stop3953" />
    </linearGradient>
    <radialGradient
       r="9"
       fy="20"
       fx="11"
       cy="20"
       cx="11"
       gradientTransform="matrix(1,0,0,0.22222222,0,15.555556)"
       gradientUnits="userSpaceOnUse"
       id="radialGradient4535"
       xlink:href="#linearGradient3949"
       inkscape:collect="always" />
    <radialGradient
       r="9"
       fy="20"
       fx="11"
       cy="20"
       cx="11"
       gradientTransform="matrix(1,0,0,0.22222222,0,15.555556)"
       gradientUnits="userSpaceOnUse"
       id="radialGradient3056"
       xlink:href="#linearGradient3949"
       inkscape:collect="always" />
  </defs>
  <g
     inkscape:groupmode="layer"
     id="layer1"
     inkscape:label="Background">
    <g
       id="g4328"
       transform="translate(0,-4)">
      <path
         sodipodi:type="arc"
         style="color:#000000;fill:#babdb6;fill-opacity:1;fill-rule:nonzero;stroke:none;stroke-width:1;marker:none;visibility:visible;display:inline;overflow:visible;enable-background:accumulate"
         id="path4330"
         sodipodi:cx="17.622427"
         sodipodi:cy="15.484137"
         sodipodi:rx="0.41984466"
         sodipodi:ry="0.51928157"
         d="m 18.042272,15.484137 c 0,0.286791 -0.187971,0.519281 -0.419845,0.519281 -0.231874,0 -0.419845,-0.23249 -0.419845,-0.519281 0,-0.286792 0.187971,-0.519282 0.419845,-0.519282 0.231874,0 0.419845,0.23249 0.419845,0.519282 z"
         transform="matrix(1.1909167,0,0,0.96286876,-3.5693273,0.557881)" />
      <path
         style="color:#000000;fill:#fdfdfc;fill-opacity:1;stroke:none;stroke-width:0.98051518;marker:none;visibility:visible;display:inline;overflow:visible;enable-background:accumulate"
         d="m 15.96875,16.46875 c -0.0411,0.159759 -0.0625,0.327411 -0.0625,0.5 0,1.104569 0.895431,2 2,2 1.104569,0 2,-0.895431 2,-2 0,-0.172589 -0.0214,-0.340241 -0.0625,-0.5 -0.221963,0.862699 -1.00552,1.5 -1.9375,1.5 -0.93198,0 -1.715537,-0.637301 -1.9375,-1.5 z m 12,0 c -0.0411,0.159759 -0.0625,0.327411 -0.0625,0.5 0,1.104569 0.895431,2 2,2 1.104569,0 2,-0.895431 2,-2 0,-0.172589 -0.0214,-0.340241 -0.0625,-0.5 -0.221963,0.862699 -1.00552,1.5 -1.9375,1.5 -0.93198,0 -1.715537,-0.637301 -1.9375,-1.5 z"
         id="path4332"
         inkscape:connector-curvature="0"
         sodipodi:nodetypes="cssscsccssscsc" />
      <path
         sodipodi:type="arc"
         style="opacity:0.2;color:#000000;fill:#000000;fill-opacity:1;stroke:none;stroke-width:0.98051518;marker:none;visibility:visible;display:inline;overflow:visible;enable-background:accumulate"
         id="path4334"
         sodipodi:cx="16.1875"
         sodipodi:cy="16.495852"
         sodipodi:rx="1.15625"
         sodipodi:ry="1.8708518"
         d="m 17.34375,16.495852 c 0,1.033242 -0.517671,1.870851 -1.15625,1.870851 -0.638579,0 -1.15625,-0.837609 -1.15625,-1.870851 0,-1.033243 0.517671,-1.870852 1.15625,-1.870852 0.638579,0 1.15625,0.837609 1.15625,1.870852 z"
         transform="matrix(1.7297297,0,0,1.0690318,-10.082487,-1.662319)" />
      <path
         sodipodi:type="arc"
         style="opacity:0.2;color:#000000;fill:#000000;fill-opacity:1;stroke:none;stroke-width:0.98051518;marker:none;visibility:visible;display:inline;overflow:visible;enable-background:accumulate"
         id="path4336"
         sodipodi:cx="16.1875"
         sodipodi:cy="16.495852"
         sodipodi:rx="1.15625"
         sodipodi:ry="1.8708518"
         d="m 17.34375,16.495852 c 0,1.033242 -0.517671,1.870851 -1.15625,1.870851 -0.638579,0 -1.15625,-0.837609 -1.15625,-1.870851 0,-1.033243 0.517671,-1.870852 1.15625,-1.870852 0.638579,0 1.15625,0.837609 1.15625,1.870852 z"
         transform="matrix(1.7297297,0,0,1.0690318,1.9175127,-1.662319)" />
      <path
         style="fill:none;stroke:#bbbbbb;stroke-width:2;stroke-linecap:round;stroke-linejoin:round;stroke-miterlimit:4;stroke-opacity:1;stroke-dasharray:none;display:inline;enable-background:new"
         d="M 17.829123,15.94036 C 19,12 20,9 24,9 c 4,0 5,3 6.050093,7.08216"
         id="path4338"
         inkscape:connector-curvature="0"
         sodipodi:nodetypes="csc" />
      <path
         style="font-size:medium;font-style:normal;font-variant:normal;font-weight:normal;font-stretch:normal;text-indent:0;text-align:start;text-decoration:none;line-height:normal;letter-spacing:normal;word-spacing:normal;text-transform:none;direction:ltr;block-progression:tb;writing-mode:lr-tb;text-anchor:start;baseline-shift:baseline;opacity:0.3;color:#000000;fill:#000000;fill-opacity:1;stroke:none;stroke-width:1.99999988000000006;marker:none;visibility:visible;display:inline;overflow:visible;enable-background:new;font-family:Sans;-inkscape-font-specification:Sans"
         d="m 24,8 c -2.25,0 -3.926022,0.9608067 -4.96875,2.40625 -1.042728,1.445443 -1.568408,3.271732 -2.15625,5.25 -0.122454,0.27615 -0.110592,0.608289 0.03125,0.875 0.572911,-1.929442 1.104597,-3.710504 2.125,-5.125 C 20.073978,9.9608068 21.75,9 24,9 c 2.25,0 3.908523,0.965986 4.9375,2.4375 0.97499,1.394309 1.496509,3.162324 2,5.09375 0.111084,-0.20844 0.144969,-0.456927 0.09375,-0.6875 C 30.501848,13.785738 29.966477,11.909014 28.9375,10.4375 27.908523,8.9659859 26.25,8 24,8 z"
         id="path4340"
         inkscape:connector-curvature="0"
         sodipodi:nodetypes="ssccsssccss" />
    </g>
    <g
       id="g3111">
      <path
         style="opacity:0.12000002;fill:url(#radialGradient4205);fill-opacity:1;stroke:none"
         d="m 42.885716,41.000001 0,5 0.528571,0 c 0.878486,0 1.585715,-1.115 1.585715,-2.5 0,-1.385 -0.707229,-2.5 -1.585715,-2.5 l -0.528571,0 z"
         id="path3987"
         inkscape:connector-curvature="0" />
      <path
         inkscape:connector-curvature="0"
         id="rect3940"
         d="m 42,42 0,3 0.5,0 C 43.331,45 44,44.331 44,43.5 44,42.669 43.331,42 42.5,42 L 42,42 z"
         style="opacity:0.12000002;fill:url(#radialGradient4214);fill-opacity:1;stroke:none" />
      <path
         style="opacity:0.12000002;fill:url(#radialGradient4202);fill-opacity:1;stroke:none"
         d="M 4.4866072,41.000001 C 3.6630268,41.000001 3,42.045313 3,43.343751 l 0,0.3125 c 0,1.298439 0.6630268,2.34375 1.4866072,2.34375 l 0.6276786,0 0,-5 -0.6276786,0 z"
         id="path3989"
         inkscape:connector-curvature="0" />
      <path
         inkscape:connector-curvature="0"
         id="rect3942"
         d="m 5.4062497,42 c -0.7790625,0 -1.40625,0.627187 -1.40625,1.40625 l 0,0.1875 c 0,0.779063 0.6271875,1.40625 1.40625,1.40625 l 0.59375,0 0,-3 -0.59375,0 z"
         style="opacity:0.12000002;fill:url(#radialGradient4211);fill-opacity:1;stroke:none" />
      <path
         sodipodi:nodetypes="ccccc"
         inkscape:connector-curvature="0"
         id="rect3985"
         d="m 5.1141432,41 37.7717148,0 0,5 -37.7717148,0 z"
         style="opacity:0.12000002;fill:url(#linearGradient4208);fill-opacity:1;stroke:none" />
      <path
         sodipodi:nodetypes="ccccc"
         inkscape:connector-curvature="0"
         id="rect3938"
         d="m 5.9998568,42 36.0002842,0 0,3 -36.0002842,0 z"
         style="opacity:0.12000002;fill:url(#linearGradient3172);fill-opacity:1;stroke:none" />
    </g>
    <path
       style="color:#000000;fill:#a4a4a4;fill-opacity:1;fill-rule:nonzero;stroke:none;stroke-width:0.99999988;marker:none;visibility:visible;display:inline;overflow:visible;enable-background:accumulate"
       d="m 9.524573,7.467071 29.12783,0 -0.03805,2.382766 L 42.5,12 6.5,12 9.516713,10.144346 z"
       id="rect45011-2-2-2-0-3-6-6-3-1"
       inkscape:connector-curvature="0"
       sodipodi:nodetypes="ccccccc" />
    <path
       style="opacity:0.2;fill:#000000;fill-opacity:1;stroke:none"
       d="m 7,12 3,-2 0,5 -3,0 z"
       id="path4314"
       inkscape:connector-curvature="0"
       sodipodi:nodetypes="ccccc" />
    <path
       inkscape:connector-curvature="0"
       id="path4316"
       d="m 42,12 -4,-2 0,5 4,0 z"
       style="opacity:0.2;fill:#000000;fill-opacity:1;stroke:none"
       sodipodi:nodetypes="ccccc" />
    <path
       style="color:#000000;fill:url(#linearGradient4298);fill-opacity:1;fill-rule:nonzero;stroke:none;stroke-width:0.99999994;marker:none;visibility:visible;display:inline;overflow:visible;enable-background:accumulate"
       d="m 7.5,12 -0.46875,0.28125 1.03125,18.6875 0,0.03125 0,0.03125 -0.96875,11.375 0,0.03125 C 7.107218,42.762771 7.3587928,43 7.6875,43 l 33.75,0 c 0.335947,0 0.621446,-0.25339 0.59375,-0.53125 l 0,-0.03125 -0.96875,-11.40625 0,-0.03125 0,-0.03125 0.90625,-18.6875 -0.5,-0.28125 z"
       id="rect45011-3-5-8-7-7-3"
       inkscape:connector-curvature="0"
       sodipodi:nodetypes="cccccccsscccccccc" />
    <rect
       style="opacity:0.1;color:#000000;fill:#000000;fill-opacity:1;fill-rule:nonzero;stroke:none;stroke-width:2;marker:none;visibility:visible;display:inline;overflow:visible;enable-background:accumulate"
       id="rect4367"
       width="26"
       height="1"
       x="10.993323"
       y="10.972273"
       rx="0"
       ry="1" />
    <path
       inkscape:connector-curvature="0"
       id="path10033"
       d="m 11.728703,8.472273 25.52926,0"
       style="opacity:0.2;fill:none;stroke:#ffffff;stroke-width:1px;stroke-linecap:round;stroke-linejoin:miter;stroke-opacity:1;display:inline;enable-background:new"
       sodipodi:nodetypes="cc" />
    <path
       style="opacity:0.53287198;fill:url(#linearGradient4218);fill-opacity:1;stroke:none;display:inline;enable-background:new"
       d="m 10.962073,8.503522 0.0625,2.374999 -2.3437503,1.1875 8.3437503,-0.0625 c 0,0 -0.9375,-3.031249 -1.09375,-3.031249 -0.15625,0 -4.96875,-0.46875 -4.96875,-0.46875 z"
       id="path10041"
       inkscape:connector-curvature="0"
       sodipodi:nodetypes="ccccsc" />
    <path
       style="font-size:medium;font-style:normal;font-variant:normal;font-weight:normal;font-stretch:normal;text-indent:0;text-align:start;text-decoration:none;line-height:normal;letter-spacing:normal;word-spacing:normal;text-transform:none;direction:ltr;block-progression:tb;writing-mode:lr-tb;text-anchor:start;baseline-shift:baseline;color:#000000;fill:#ffffff;fill-opacity:1;stroke:none;stroke-width:1px;marker:none;visibility:visible;display:inline;overflow:visible;enable-background:new;font-family:Sans;-inkscape-font-specification:Sans"
       d="m 7,12 0,1 35,0 0,-1 z"
       id="path107295"
       inkscape:connector-curvature="0"
       sodipodi:nodetypes="ccccc" />
    <g
       id="g4320">
      <path
         transform="matrix(1.1909167,0,0,0.96286876,-3.5693273,0.557881)"
         d="m 18.042272,15.484137 a 0.41984466,0.51928157 0 1 1 -0.83969,0 0.41984466,0.51928157 0 1 1 0.83969,0 z"
         sodipodi:ry="0.51928157"
         sodipodi:rx="0.41984466"
         sodipodi:cy="15.484137"
         sodipodi:cx="17.622427"
         id="path6891-1-1-2"
         style="color:#000000;fill:#babdb6;fill-opacity:1;fill-rule:nonzero;stroke:none;stroke-width:1;marker:none;visibility:visible;display:inline;overflow:visible;enable-background:accumulate"
         sodipodi:type="arc" />
      <path
         sodipodi:nodetypes="cssscsccssscsc"
         inkscape:connector-curvature="0"
         id="path45129-6-2-6-9-8-0-9"
         d="m 15.96875,16.46875 c -0.0411,0.159759 -0.0625,0.327411 -0.0625,0.5 0,1.104569 0.895431,2 2,2 1.104569,0 2,-0.895431 2,-2 0,-0.172589 -0.0214,-0.340241 -0.0625,-0.5 -0.221963,0.862699 -1.00552,1.5 -1.9375,1.5 -0.93198,0 -1.715537,-0.637301 -1.9375,-1.5 z m 12,0 c -0.0411,0.159759 -0.0625,0.327411 -0.0625,0.5 0,1.104569 0.895431,2 2,2 1.104569,0 2,-0.895431 2,-2 0,-0.172589 -0.0214,-0.340241 -0.0625,-0.5 -0.221963,0.862699 -1.00552,1.5 -1.9375,1.5 -0.93198,0 -1.715537,-0.637301 -1.9375,-1.5 z"
         style="color:#000000;fill:#fdfdfc;fill-opacity:1;stroke:none;stroke-width:0.98051518;marker:none;visibility:visible;display:inline;overflow:visible;enable-background:accumulate" />
      <path
         transform="matrix(1.7297297,0,0,1.0690318,-10.082487,-1.662319)"
         d="m 17.34375,16.495852 a 1.15625,1.8708518 0 1 1 -2.3125,0 1.15625,1.8708518 0 1 1 2.3125,0 z"
         sodipodi:ry="1.8708518"
         sodipodi:rx="1.15625"
         sodipodi:cy="16.495852"
         sodipodi:cx="16.1875"
         id="path45129-6-2-4-7-2-8"
         style="color:#000000;fill:#000000;fill-opacity:1;stroke:none;stroke-width:0.98051518000000004;marker:none;visibility:visible;display:inline;overflow:visible;enable-background:accumulate;opacity:0.4"
         sodipodi:type="arc" />
      <path
         transform="matrix(1.7297297,0,0,1.0690318,1.9175127,-1.662319)"
         d="m 17.34375,16.495852 a 1.15625,1.8708518 0 1 1 -2.3125,0 1.15625,1.8708518 0 1 1 2.3125,0 z"
         sodipodi:ry="1.8708518"
         sodipodi:rx="1.15625"
         sodipodi:cy="16.495852"
         sodipodi:cx="16.1875"
         id="path45129-6-2-4-7-2-0-8"
         style="color:#000000;fill:#000000;fill-opacity:1;stroke:none;stroke-width:0.98051518000000004;marker:none;visibility:visible;display:inline;overflow:visible;enable-background:accumulate;opacity:0.4"
         sodipodi:type="arc" />
      <path
         sodipodi:nodetypes="csc"
         inkscape:connector-curvature="0"
         id="path6083-4-4-3-62"
         d="M 17.829123,15.94036 C 19,12 20,9 24,9 c 4,0 5,3 6.050093,7.08216"
         style="fill:none;stroke:#626262;stroke-width:2;stroke-linecap:round;stroke-linejoin:round;stroke-miterlimit:4;stroke-opacity:1;stroke-dasharray:none;display:inline;enable-background:new" />
      <path
         sodipodi:nodetypes="ssccsssccss"
         inkscape:connector-curvature="0"
         id="path4269"
         d="m 24,8 c -2.25,0 -3.926022,0.9608067 -4.96875,2.40625 -1.042728,1.445443 -1.568408,3.271732 -2.15625,5.25 -0.122454,0.27615 -0.110592,0.608289 0.03125,0.875 0.572911,-1.929442 1.104597,-3.710504 2.125,-5.125 C 20.073978,9.9608068 21.75,9 24,9 c 2.25,0 3.908523,0.965986 4.9375,2.4375 0.97499,1.394309 1.496509,3.162324 2,5.09375 0.111084,-0.20844 0.144969,-0.456927 0.09375,-0.6875 C 30.501848,13.785738 29.966477,11.909014 28.9375,10.4375 27.908523,8.9659859 26.25,8 24,8 z"
         style="font-size:medium;font-style:normal;font-variant:normal;font-weight:normal;font-stretch:normal;text-indent:0;text-align:start;text-decoration:none;line-height:normal;letter-spacing:normal;word-spacing:normal;text-transform:none;direction:ltr;block-progression:tb;writing-mode:lr-tb;text-anchor:start;baseline-shift:baseline;color:#000000;fill:#ffffff;fill-opacity:1;stroke:none;stroke-width:1.99999988000000006;marker:none;visibility:visible;display:inline;overflow:visible;enable-background:new;font-family:Sans;-inkscape-font-specification:Sans;opacity:0.8" />
    </g>
    <path
       style="opacity:0.41000001;color:#000000;fill:none;stroke:#000000;stroke-width:0.99999988;stroke-opacity:1;marker:none;visibility:visible;display:inline;overflow:visible;enable-background:accumulate"
       d="m 9.53125,7.46875 0,2.6875 L 6.5,12 7.5625,30.998239 6.59375,42.40625 C 6.59469,43.01219 7.08156,43.5 7.6875,43.5 l 33.75,0 c 0.60594,0 1.15385,-0.490798 1.09375,-1.09375 L 41.5625,30.998239 42.5,12 38.625,9.84375 l 0.03125,-2.375 z"
       id="path4291"
       inkscape:connector-curvature="0"
       sodipodi:nodetypes="cccccsscccccc" />
    <path
       style="fill:none;stroke:#ffffff;stroke-width:1px;stroke-linecap:round;stroke-linejoin:miter;stroke-opacity:1;opacity:0.4"
       d="m 37.5,8.5 0,2 2,1"
       id="path4479"
       inkscape:connector-curvature="0" />
  </g>
  <g
     inkscape:groupmode="layer"
     id="layer2"
     inkscape:label="Symbol">
    <g
       id="g4507"
       transform="translate(23,0)">
      <path
         d="m 20,20 c 0,1.104569 -4.029437,2 -9,2 -4.9705627,0 -9,-0.895431 -9,-2 0,-1.104569 4.0294373,-2 9,-2 4.970563,0 9,0.895431 9,2 z"
         sodipodi:ry="2"
         sodipodi:rx="9"
         sodipodi:cy="20"
         sodipodi:cx="11"
         id="path3163"
         style="opacity:0.4;fill:url(#radialGradient3993);fill-opacity:1;stroke:none"
         sodipodi:type="arc"
         transform="matrix(1,0,0,1.5,0,15)" />
      <path
         transform="matrix(0.66666667,0,0,1,3.6666666,26)"
         sodipodi:type="arc"
         style="opacity:0.8;fill:url(#radialGradient3056);fill-opacity:1;stroke:none"
         id="path3995"
         sodipodi:cx="11"
         sodipodi:cy="20"
         sodipodi:rx="9"
         sodipodi:ry="2"
         d="m 20,20 c 0,1.104569 -4.029437,2 -9,2 -4.9705627,0 -9,-0.895431 -9,-2 0,-1.104569 4.0294373,-2 9,-2 4.970563,0 9,0.895431 9,2 z" />
    </g>
    <path
       style="fill:url(#linearGradient3802);fill-opacity:1;fill-rule:evenodd;stroke:none"
       d="m 34,46.5 c -5.24078,0 -9.5,-4.259217 -9.5,-9.5 0,-5.240782 4.25922,-9.5 9.5,-9.5 5.24078,0 9.5,4.259218 9.5,9.5 0,5.240783 -4.25922,9.5 -9.5,9.5 z"
       id="path4791"
       inkscape:connector-curvature="0" />
    <path
       id="path3804"
       d="m 24.5,37 c 0,5.240783 4.25922,9.5 9.5,9.5 5.24078,0 9.5,-4.259217 9.5,-9.5 0,-5.240783 -4.25922,-9.5 -9.5,-9.5 -5.24078,0 -9.5,4.259217 -9.5,9.5 z"
       style="opacity:0.81000000999999999;fill:none;stroke:url(#linearGradient3839);stroke-opacity:1"
       inkscape:connector-curvature="0" />
    <path
       style="opacity:0.20000000000000001;fill:#ffffff;fill-opacity:1;fill-rule:evenodd;stroke:none"
       d="m 34,28 c -4.96988,0 -9,4.030119 -9,9 0,0.171541 0.0218,0.330826 0.0312,0.5 0.26505,-4.732151 4.17041,-8.5 8.96875,-8.5 4.79834,0 8.7037,3.767849 8.96875,8.5 0.009,-0.169174 0.0312,-0.328459 0.0312,-0.5 0,-4.969881 -4.03012,-9 -9,-9 z"
       id="path3806"
       inkscape:connector-curvature="0" />
    <path
       id="path3820"
       d="m 34,47 c -4.96988,0 -9,-4.030119 -9,-9 0,-0.171541 0.0218,-0.330826 0.0312,-0.5 0.26505,4.732151 4.17041,8.5 8.96875,8.5 4.79834,0 8.7037,-3.767849 8.96875,-8.5 0.01,0.169174 0.0312,0.328459 0.0312,0.5 0,4.969881 -4.03012,9 -9,9 z"
       style="opacity:0.20000000000000001;fill:#000000;fill-opacity:1;fill-rule:evenodd;stroke:none"
       inkscape:connector-curvature="0" />
    <path
       d="m 32,33 0,4.99958 -2.5,2.1e-4 4.5,6 4.5,-6 L 36,37.99958 36,33 z"
       inkscape:connector-curvature="0"
       id="path3854"
       style="opacity:0.3;color:#000000;fill:#000000;fill-opacity:1;fill-rule:nonzero;stroke:none;stroke-width:1;marker:none;visibility:visible;display:inline;overflow:visible;enable-background:accumulate"
       sodipodi:nodetypes="cccccccc" />
    <path
       sodipodi:nodetypes="cccccccc"
       style="color:#000000;fill:#ffffff;fill-opacity:1;fill-rule:nonzero;stroke:none;stroke-width:1;marker:none;visibility:visible;display:inline;overflow:visible;enable-background:accumulate"
       id="rect3005"
       inkscape:connector-curvature="0"
       d="m 32,31.999895 0,4.99958 -2.5,2.1e-4 4.5,6 4.5,-6 -2.5,-2.1e-4 0,-4.99958 z" />
  </g>
</svg>
