<?xml version="1.0" encoding="UTF-8" standalone="no"?>
<!-- Created with Inkscape (http://www.inkscape.org/) -->

<svg
   xmlns:dc="http://purl.org/dc/elements/1.1/"
   xmlns:cc="http://creativecommons.org/ns#"
   xmlns:rdf="http://www.w3.org/1999/02/22-rdf-syntax-ns#"
   xmlns:svg="http://www.w3.org/2000/svg"
   xmlns="http://www.w3.org/2000/svg"
   xmlns:xlink="http://www.w3.org/1999/xlink"
   xmlns:sodipodi="http://sodipodi.sourceforge.net/DTD/sodipodi-0.dtd"
   xmlns:inkscape="http://www.inkscape.org/namespaces/inkscape"
   version="1.1"
   width="48"
   height="48"
   id="svg3759"
   inkscape:version="0.48.4 r9939"
   sodipodi:docname="system-error.svg">
  <sodipodi:namedview
     pagecolor="#ffffff"
     bordercolor="#666666"
     borderopacity="1"
     objecttolerance="10"
     gridtolerance="10"
     guidetolerance="10"
     inkscape:pageopacity="0"
     inkscape:pageshadow="2"
     inkscape:window-width="1364"
     inkscape:window-height="700"
     id="namedview36"
     showgrid="false"
     inkscape:zoom="1"
     inkscape:cx="0.43986582"
     inkscape:cy="25.17424"
     inkscape:window-x="0"
     inkscape:window-y="28"
     inkscape:window-maximized="1"
     inkscape:current-layer="layer1"
     inkscape:snap-bbox="true"
     inkscape:bbox-paths="true"
     inkscape:bbox-nodes="true"
     inkscape:snap-bbox-edge-midpoints="true"
     inkscape:snap-bbox-midpoints="true">
    <inkscape:grid
       type="xygrid"
       id="grid3818"
       empspacing="4"
       visible="true"
       enabled="true"
       snapvisiblegridlinesonly="true" />
  </sodipodi:namedview>
  <metadata
     id="metadata37">
    <rdf:RDF>
      <cc:Work
         rdf:about="">
        <dc:format>image/svg+xml</dc:format>
        <dc:type
           rdf:resource="http://purl.org/dc/dcmitype/StillImage" />
        <dc:title />
      </cc:Work>
    </rdf:RDF>
  </metadata>
  <defs
     id="defs3761">
    <linearGradient
       id="linearGradient4791">
      <stop
         style="stop-color:#fff2f3;stop-opacity:1"
         offset="0"
         id="stop4793" />
      <stop
         style="stop-color:#fff5f4;stop-opacity:1"
         offset="1"
         id="stop4795" />
    </linearGradient>
    <linearGradient
       id="linearGradient4777">
      <stop
         id="stop4779"
         offset="0"
         style="stop-color:#4c1916;stop-opacity:1;" />
      <stop
         id="stop4781"
         offset="1"
         style="stop-color:#55221e;stop-opacity:1;" />
    </linearGradient>
    <linearGradient
       id="linearGradient4724">
      <stop
         id="stop4726"
         offset="0"
         style="stop-color:#f2fff6;stop-opacity:1;" />
      <stop
         id="stop4728"
         offset="1"
         style="stop-color:#f4fff5;stop-opacity:1;" />
    </linearGradient>
    <linearGradient
       id="linearGradient4706">
      <stop
         id="stop4708"
         offset="0"
         style="stop-color:#2b5b3b;stop-opacity:1;" />
      <stop
         id="stop4710"
         offset="1"
         style="stop-color:#41694e;stop-opacity:1;" />
    </linearGradient>
    <linearGradient
       inkscape:collect="always"
       xlink:href="#linearGradient4134"
       id="linearGradient4140"
       x1="789"
       y1="256"
       x2="827"
       y2="256"
       gradientUnits="userSpaceOnUse" />
    <linearGradient
       inkscape:collect="always"
       id="linearGradient4134">
      <stop
         style="stop-color:#ffffff;stop-opacity:1;"
         offset="0"
         id="stop4136" />
      <stop
         style="stop-color:#ffffff;stop-opacity:0;"
         offset="1"
         id="stop4138" />
    </linearGradient>
    <clipPath
       clipPathUnits="userSpaceOnUse"
       id="clipPath4130">
      <path
         id="path4132"
         d="M 790.4375,237 C 789.62555,237 789,237.62555 789,238.4375 l 0,35.09375 c 0,0.812 0.62555,1.46875 1.4375,1.46875 l 35.125,0 c 0.81195,0 1.4375,-0.65675 1.4375,-1.46875 l 0,-35.09375 C 827,237.62555 826.37445,237 825.5625,237 l -35.125,0 z"
         style="fill:#ba2222;fill-opacity:1;stroke:none"
         inkscape:connector-curvature="0" />
    </clipPath>
    <filter
       color-interpolation-filters="sRGB"
       inkscape:collect="always"
       id="filter4155">
      <feGaussianBlur
         inkscape:collect="always"
         stdDeviation="0.39"
         id="feGaussianBlur4157" />
    </filter>
    <filter
       inkscape:collect="always"
       id="filter4023"
       x="-0.063848684"
       width="1.1276974"
       y="-0.99538462"
       height="2.9907692">
      <feGaussianBlur
         inkscape:collect="always"
         stdDeviation="1.0109375"
         id="feGaussianBlur4025" />
    </filter>
    <filter
       inkscape:collect="always"
       id="filter4033"
       x="-0.12769737"
       width="1.2553947"
       y="-1.9907692"
       height="4.9815385">
      <feGaussianBlur
         inkscape:collect="always"
         stdDeviation="2.021875"
         id="feGaussianBlur4035" />
    </filter>
    <linearGradient
       inkscape:collect="always"
       xlink:href="#outerBackgroundGradient"
       id="linearGradient4564"
       gradientUnits="userSpaceOnUse"
       gradientTransform="translate(980.3622,784)"
       x1="-1023.8622"
       y1="-808"
       x2="-984.86218"
       y2="-808" />
    <linearGradient
       inkscape:collect="always"
       xlink:href="#linearGradient4724"
       id="linearGradient4722"
       x1="24"
       y1="44"
       x2="24"
       y2="4"
       gradientUnits="userSpaceOnUse" />
    <linearGradient
       id="outerBackgroundGradient">
      <stop
         style="stop-color:#bd251d;stop-opacity:1;"
         offset="0"
         id="stop3864-8-6" />
      <stop
         style="stop-color:#e22c1e;stop-opacity:1;"
         offset="1"
         id="stop3866-9-1" />
    </linearGradient>
    <linearGradient
       y2="244"
       x2="332"
       y1="244"
       x1="292"
       gradientTransform="matrix(0,-1,1,0,-223.5,332.5)"
       gradientUnits="userSpaceOnUse"
       id="linearGradient3086"
       xlink:href="#outerBackgroundGradient"
       inkscape:collect="always" />
    <linearGradient
       inkscape:collect="always"
       xlink:href="#linearGradient4791"
       id="linearGradient4789"
       x1="24"
       y1="44"
       x2="24"
       y2="4"
       gradientUnits="userSpaceOnUse" />
  </defs>
  <g
     inkscape:groupmode="layer"
     id="layer1"
     inkscape:label="Background">
    <path
       inkscape:connector-curvature="0"
       style="opacity:0.50000000000000000;fill:#000000;fill-opacity:1;stroke:none;display:inline;filter:url(#filter4023)"
       d="M 6.4375,44.000017 C 5.62555,44.000017 5,43.374417 5,42.562517 l 0,-1 c 0,0.8119 0.62555,1.4375 1.4375,1.4375 l 35.125,0 c 0.81195,0 1.4375,-0.6256 1.4375,-1.4375 l 0,1 c 0,0.8119 -0.62555,1.4375 -1.4375,1.4375 l -35.125,0 z"
       id="path4147" />
    <path
       id="path4027"
       d="M 6.4375,44.000017 C 5.62555,44.000017 5,43.374417 5,42.562517 l 0,-1 c 0,0.8119 0.62555,1.4375 1.4375,1.4375 l 35.125,0 c 0.81195,0 1.4375,-0.6256 1.4375,-1.4375 l 0,1 c 0,0.8119 -0.62555,1.4375 -1.4375,1.4375 l -35.125,0 z"
       style="opacity:0.40000000000000002;fill:#000000;fill-opacity:1;stroke:none;display:inline;filter:url(#filter4033)"
       inkscape:connector-curvature="0" />
    <rect
       rx="1.9499974"
       ry="1.95"
       transform="matrix(0,-1,-1,0,-784,-979.3622)"
       y="-827.5"
       x="-1023.8622"
       height="39"
       width="39"
       id="rect4149"
       style="opacity:0.61000001000000003;fill:#000000;fill-opacity:1;stroke:none;display:inline;filter:url(#filter4155)" />
    <rect
       rx="1.9499974"
       ry="1.95"
       transform="matrix(0,-1,-1,0,0,0)"
       y="-43.5"
       x="-43.5"
       height="39"
       width="39"
       id="rect4073"
       style="fill:url(#linearGradient4564);fill-opacity:1.0;stroke:none;display:inline" />
    <rect
       style="opacity:0.60999999999999999;fill:none;stroke:#760000;stroke-opacity:1;display:inline"
       id="rect4085"
       width="39"
       height="39"
       x="-43.5"
       y="-43.5"
       transform="matrix(0,-1,-1,0,0,0)"
       ry="1.95"
       rx="1.9499974" />
    <path
       inkscape:connector-curvature="0"
       style="opacity:0.14999999999999999;fill:#ffffff;fill-opacity:1;stroke:none;display:inline"
       d="M 6.4375,5.00002 C 5.62555,5.00002 5,5.62557 5,6.43752 l 0,1 C 5,6.62557 5.62555,6.00002 6.4375,6.00002 l 35.125,0 c 0.81195,0 1.4375,0.62555 1.4375,1.4375 l 0,-1 c 0,-0.81195 -0.62555,-1.4375 -1.4375,-1.4375 l -35.125,0 z"
       id="rect4089-4" />
    <path
       id="path4105"
       d="M 6.4375,43.000017 C 5.62555,43.000017 5,42.374417 5,41.562517 L 5,40.56252 c 0,0.811897 0.62555,1.437497 1.4375,1.437497 l 35.125,0 c 0.81195,0 1.4375,-0.6256 1.4375,-1.437497 l 0,0.999997 c 0,0.8119 -0.62555,1.4375 -1.4375,1.4375 l -35.125,0 z"
       style="opacity:0.10000000000000001;fill:#ffffff;fill-opacity:1;stroke:none;display:inline"
       inkscape:connector-curvature="0" />
    <path
       transform="matrix(0,1,-1,0,280,-784)"
       style="opacity:0.10000000000000001;fill:none;stroke:url(#linearGradient4140);stroke-width:2;stroke-miterlimit:4;stroke-opacity:1;stroke-dasharray:none;display:inline"
       d="M 790.4375,237 C 789.62555,237 789,237.62555 789,238.4375 l 0,35.09375 c 0,0.812 0.62555,1.46875 1.4375,1.46875 l 35.125,0 c 0.81195,0 1.4375,-0.65675 1.4375,-1.46875 l 0,-35.09375 C 827,237.62555 826.37445,237 825.5625,237 l -35.125,0 z"
       id="path4128"
       clip-path="url(#clipPath4130)"
       inkscape:connector-curvature="0" />
  </g>
  <g
     inkscape:groupmode="layer"
     id="layer2"
     inkscape:label="Symbol">
    <path
       id="path4775"
       d="M 26.375,11.5 21.75,18.15625 10.5,13 15.78125,21.4375 10.875,22 15.5625,24.8125 9,29.5 16.78125,30.125 15,38.5 22.5,34 27,38.5 28.59375,32.96875 37.5,35.5 31.0625,27.8125 39,26.5 l -7.5,-3 6,-6 -9,1.5 -2.125,-7.5 z M 23,19 l 2,0 0,5 c -0.098,2.40972 -0.5,2.125 -0.5,4 l -1,0 c 0,-1.875 -0.49208,-1.99391 -0.5,-4 l 0,-5 z m 1,11 c 0.55228,0 1,0.44772 1,1 0,0.55228 -0.44772,1 -1,1 -0.55228,0 -1,-0.44772 -1,-1 0,-0.55228 0.44772,-1 1,-1 z"
       style="fill:#000000;fill-opacity:1;stroke:none;display:inline;enable-background:new;opacity:0.3"
       inkscape:connector-curvature="0" />
    <path
       id="path4473"
       d="M 26.375,10.5 21.75,17.15625 10.5,12 15.78125,20.4375 10.875,21 15.5625,23.8125 9,28.5 16.78125,29.125 15,37.5 22.5,33 27,37.5 28.59375,31.96875 37.5,34.5 31.0625,26.8125 39,25.5 l -7.5,-3 6,-6 -9,1.5 -2.125,-7.5 z M 23,18 l 2,0 0,5 c -0.098,2.40972 -0.5,2.125 -0.5,4 l -1,0 c 0,-1.875 -0.49208,-1.99391 -0.5,-4 l 0,-5 z m 1,11 c 0.55228,0 1,0.44772 1,1 0,0.55228 -0.44772,1 -1,1 -0.55228,0 -1,-0.44772 -1,-1 0,-0.55228 0.44772,-1 1,-1 z"
       style="opacity:0.2;fill:#000000;fill-opacity:1;stroke:none;display:inline;enable-background:new"
       inkscape:connector-curvature="0" />
    <path
       inkscape:connector-curvature="0"
       style="fill:url(#linearGradient4789);fill-opacity:1;stroke:none;display:inline;enable-background:new"
       d="M 26.375,10.5 21.75,17.15625 10.5,12 15.78125,20.4375 10.875,21 15.5625,23.8125 9,28.5 16.78125,29.125 15,37.5 22.5,33 27,37.5 28.59375,31.96875 37.5,34.5 31.0625,26.8125 39,25.5 l -7.5,-3 6,-6 -9,1.5 -2.125,-7.5 z M 23,18 l 2,0 0,5 c -0.098,2.40972 -0.5,2.125 -0.5,4 l -1,0 c 0,-1.875 -0.49208,-1.99391 -0.5,-4 l 0,-5 z m 1,11 c 0.55228,0 1,0.44772 1,1 0,0.55228 -0.44772,1 -1,1 -0.55228,0 -1,-0.44772 -1,-1 0,-0.55228 0.44772,-1 1,-1 z"
       id="path4357" />
    <path
       style="fill:#ffffff;fill-opacity:1;stroke:none;display:inline;enable-background:new"
       d="M 26.375 10.5 L 21.75 17.15625 L 10.5 12 L 11.375 13.40625 L 21.75 18.15625 L 26.375 11.5 L 28.5 19 L 36.3125 17.6875 L 37.5 16.5 L 28.5 18 L 26.375 10.5 z M 15.1875 20.5 L 10.875 21 L 12.28125 21.84375 L 15.78125 21.4375 L 15.1875 20.5 z M 32.21875 22.78125 L 31.5 23.5 L 37.21875 25.78125 L 39 25.5 L 32.21875 22.78125 z M 23 23 L 23 24 C 23.00792 26.00609 23.5 26.125 23.5 28 L 24.5 28 C 24.5 26.125 24.902 26.40972 25 24 L 25 23 C 24.902 25.40972 24.5 25.125 24.5 27 L 23.5 27 C 23.5 25.125 23.00792 25.00609 23 23 z M 14.8125 24.34375 L 9 28.5 L 10.25 28.59375 L 15.5625 24.8125 L 14.8125 24.34375 z M 31.8125 27.6875 L 31.0625 27.8125 L 36.40625 34.1875 L 37.5 34.5 L 31.8125 27.6875 z M 16.5625 30.09375 L 15 37.5 L 15.25 37.34375 L 16.78125 30.125 L 16.5625 30.09375 z M 23.15625 30.5 C 23.06663 30.649872 23 30.812682 23 31 C 23 31.55228 23.44772 32 24 32 C 24.55228 32 25 31.55228 25 31 C 25 30.812682 24.93337 30.649872 24.84375 30.5 C 24.669138 30.792004 24.364962 31 24 31 C 23.635038 31 23.330862 30.792004 23.15625 30.5 z "
       id="path4797" />
  </g>
</svg>
