<svg xmlns="http://www.w3.org/2000/svg" viewBox="0 0 24 24" xmlns:xlink="http://www.w3.org/1999/xlink"><defs><clipPath><path d="m0 96h96v-96h-96v96"/></clipPath></defs><g transform="translate(1-25)" color="#000"><g fill="#555"><path d="m14 43h6v2h-6z" id="0"/><path transform="matrix(0 1 1 0 0 0)" d="m41 16h6v2h-6z" id="1"/></g><g transform="translate(0-1)" opacity=".1" fill="#fff"><use xlink:href="#0"/><use xlink:href="#1"/></g><path d="m2 1v15h13v-15h-13m2 2h9v11h-9v-11m4.719 1.719c-1.08 0-1.942.316-2.594 1-.652.681-1.014 1.617-1.063 2.781-.046 1.175.221 2.105.813 2.781.592.676 1.434 1 2.531 1 .269 0 .564-.029.844-.094.282-.062.506-.136.688-.25l-.156-.688c-.179.076-.378.139-.625.188-.244.052-.491.094-.719.094-.82 0-1.435-.272-1.875-.813-.437-.54-.64-1.288-.594-2.219.041-.956.298-1.696.781-2.25.483-.554 1.118-.844 1.938-.844.844 0 1.47.265 1.875.781.404.513.606 1.236.563 2.156-.022.445-.128.801-.313 1.094-.182.29-.446.438-.75.438-.076 0-.11-.038-.156-.125-.043-.09-.076-.264-.063-.5l.219-2.313h-.031c-.229-.139-.463-.276-.656-.344-.198-.071-.453-.094-.781-.094-.467 0-.859.215-1.188.625-.326.41-.523.944-.594 1.625-.057.532.036.958.25 1.281.214.32.502.5.906.5.228 0 .425-.073.594-.188.171-.117.326-.3.438-.531.065.225.184.406.344.531.16.122.343.188.563.188.662 0 1.166-.222 1.5-.656.334-.437.507-.934.531-1.531.043-1.124-.217-2.01-.781-2.656-.562-.646-1.376-.969-2.438-.969m.031 2.563c.057 0 .13-.011.188 0 .057.008.097.049.156.063l-.156 1.813c-.087.22-.196.387-.313.469-.114.081-.228.125-.375.125-.163 0-.27-.084-.344-.25-.071-.168-.118-.424-.094-.75.046-.491.166-.849.313-1.094.149-.247.343-.375.625-.375" transform="translate(0 26)" opacity="1" fill="#555"/><path d="m2 26v15h13v-15h-13m2 2h9v11h-9v-11m4.719 1.719c-1.08 0-1.942.316-2.594 1-.652.681-1.014 1.617-1.063 2.781-.046 1.175.221 2.105.813 2.781.592.676 1.434 1 2.531 1 .269 0 .564-.029.844-.094.282-.062.506-.136.688-.25l-.156-.688c-.179.076-.378.139-.625.188-.244.052-.491.094-.719.094-.82 0-1.435-.272-1.875-.813-.437-.54-.64-1.288-.594-2.219.041-.956.298-1.696.781-2.25.483-.554 1.118-.844 1.938-.844.844 0 1.47.265 1.875.781.404.513.606 1.236.563 2.156-.022.445-.128.801-.313 1.094-.182.29-.446.438-.75.438-.076 0-.11-.038-.156-.125-.043-.09-.076-.264-.063-.5l.219-2.313h-.031c-.229-.139-.463-.276-.656-.344-.198-.071-.453-.094-.781-.094-.467 0-.859.215-1.188.625-.326.41-.523.944-.594 1.625-.057.532.036.958.25 1.281.214.32.502.5.906.5.228 0 .425-.073.594-.188.171-.117.326-.3.438-.531.065.225.184.406.344.531.16.122.343.188.563.188.662 0 1.166-.222 1.5-.656.334-.437.507-.934.531-1.531.043-1.124-.217-2.01-.781-2.656-.562-.646-1.376-.969-2.438-.969m.031 2.563c.057 0 .13-.011.188 0 .057.008.097.049.156.063l-.156 1.813c-.087.22-.196.387-.313.469-.114.081-.228.125-.375.125-.163 0-.27-.084-.344-.25-.071-.168-.118-.424-.094-.75.046-.491.166-.849.313-1.094.149-.247.343-.375.625-.375" opacity=".1" fill="#fff"/></g></svg>