<svg xmlns="http://www.w3.org/2000/svg" viewBox="0 0 24 24" xmlns:xlink="http://www.w3.org/1999/xlink"><defs><clipPath><path d="m0 96h96v-96h-96v96"/></clipPath></defs><g transform="translate(1-25)" color="#000"><g transform="translate(1)" fill="#555"><path d="m14 43h6v2h-6z" id="0"/><path transform="matrix(0 1 1 0 0 0)" d="m41 16h6v2h-6z" id="1"/></g><g transform="translate(1-1)" opacity=".1" fill="#fff"><use xlink:href="#0"/><use xlink:href="#1"/></g><path d="m9.5 27.734l-1.987 5.151-5.513.297 4.286 3.483-1.421 5.336 1.531-.992 3.104-2.01 4.634 3-1.421-5.336 4.287-3.483-5.513-.297z" fill="#555"/><path d="m9.5 26.734l-1.987 5.151-5.513.297 4.286 3.483-1.421 5.336 1.531-.992 3.104-2.01 4.634 3-1.421-5.336 4.287-3.483-5.513-.297z" opacity=".1" fill="#fff"/></g></svg>