<svg xmlns="http://www.w3.org/2000/svg" xmlns:xlink="http://www.w3.org/1999/xlink" viewBox="0 0 24 24"><defs><linearGradient xlink:href="#8" id="7" gradientUnits="userSpaceOnUse" gradientTransform="matrix(.4922 0 0 .45839-3.491 7.256)" y1="27.801" x2="0" y2="10.349"/><linearGradient y1="56.36" x2="0" y2="2.03" id="5" gradientUnits="userSpaceOnUse" gradientTransform="matrix(.42231 0 0 .40494 2.865 1.178)"><stop stop-color="#ddd"/><stop offset="1" stop-color="#f2f2f2"/></linearGradient><linearGradient y1="47.03" x2="0" y2="39.999" id="3" gradientUnits="userSpaceOnUse"><stop stop-color="#181818" stop-opacity="0"/><stop offset=".5" stop-color="#181818"/><stop offset="1" stop-color="#181818" stop-opacity="0"/></linearGradient><linearGradient y1="24" x2="0" y2="0" id="4" xlink:href="#8" gradientUnits="userSpaceOnUse"/><linearGradient id="8"><stop stop-color="#c23021"/><stop offset="1" stop-color="#e74c3c"/></linearGradient><linearGradient id="1"><stop stop-color="#181818"/><stop offset="1" stop-color="#181818" stop-opacity="0"/></linearGradient><radialGradient id="6" gradientUnits="userSpaceOnUse" gradientTransform="matrix(-.27598 0 0-.29583 16.324 28.869)" cx="24.837" cy="36.421" r="15.645"><stop/><stop offset="1" stop-opacity="0"/></radialGradient><radialGradient cx="4.993" cy="43.5" r="2.5" id="0" xlink:href="#1" gradientUnits="userSpaceOnUse" gradientTransform="matrix(2.0038 0 0 1.4 29.715-17.4)"/><radialGradient cx="4.993" cy="43.5" r="2.5" id="2" xlink:href="#1" gradientUnits="userSpaceOnUse" gradientTransform="matrix(2.0038 0 0 1.4-21.739-104.4)"/></defs><g transform="matrix(.57895 0 0 .42857-1.895 2.857)" opacity=".4"><path fill="url(#0)" d="m38 40h5v7h-5z"/><path transform="scale(-1-1)" fill="url(#2)" d="m-10-47h5v7h-5z"/><path fill="url(#3)" d="m10 40h28v7h-28z"/></g><rect width="18" height="18" rx=".5" x="3" y="3" fill="url(#5)" color="#000"/><path d="m2.5 7.164v13.3c0 .574.462 1.036 1.036 1.036h16.927c.574 0 1.036-.462 1.036-1.036v-13.3" opacity=".3" fill="none" stroke="#000"/><g color="#000"><path d="m3.536 2.5c-.574 0-1.036.462-1.036 1.036v3.964h19v-3.964c0-.574-.462-1.036-1.036-1.036z" fill="url(#4)"/><g fill="none"><path d="m3.536 2.5c-.574 0-1.036.462-1.036 1.036v3.964h19v-3.964c0-.574-.462-1.036-1.036-1.036z" opacity=".81" stroke="#ad3125" stroke-linecap="round"/><path d="m18.5 17.5h-13zm-.01-5.988l-12.99-.009v7.997h13zm.01 3.988h-13m13-2h-13m2.545-1.979l-.018 7.979m2.549-7.944l-.003 7.944m2.535-7.972l.004 7.972m2.522-8l.013 8" opacity=".2" stroke="#fff"/></g></g><path fill="#b8b8b8" d="m15 14h4v3h-4z"/><path d="m18.5 16.5h-13zm-.01-5.988l-12.99-.009v7.997h13zm.01 3.988h-13m13-2h-13m2.545-1.979l-.018 7.979m2.549-7.944l-.003 7.944m2.535-7.972l.004 7.972m2.459-8l.013 8" opacity=".25" fill="none" stroke="#5e553c"/><path d="m4.151556 18.09445a4.317657 4.628208 0 1 1 8.635314 0 4.317657 4.628208 0 0 1 -8.635314 0" opacity=".141" fill="url(#6)" fill-rule="evenodd"/><g display="block" color="#000"><path d="m7.5 21.271l7-5.673-7-5.696v3.647h-6v4h6z" fill="url(#7)"/><path d="m7.5 21.271l7-5.673-7-5.696v3.647h-6v4h6z" opacity=".81" fill="none" stroke="#ad3125" stroke-linejoin="round" stroke-miterlimit="7"/></g><g fill="#fff"><path opacity=".4" d="m3 8h18v1h-18z"/><g color="#000"><path d="m8 10.938v1l5.094 4.156.625-.5-5.719-4.656m0 2.71875a.50005 .50005 0 0 1 -.5 .40625h-5.5v1h5.5a.50005 .50005 0 0 0 .5 -.5v-.906" opacity=".2" display="block"/><path d="m3.531 3c-.306 0-.531.225-.531.531v1c0-.306.225-.531.531-.531h16.938c.306 0 .531.225.531.531v-1c0-.306-.225-.531-.531-.531h-16.938" opacity=".2"/></g></g></svg>