<svg xmlns="http://www.w3.org/2000/svg" viewBox="0 0 24 24"><g transform="translate(1-25)" fill-rule="evenodd"><path d="m21.1 41.49c-.545.933-1.905.672-2.876.53-.944-.137-2.07-.276-2.69-1.154-.349-.492-.242-1.101-.241-1.63.002-.522.16-1.181-.14-1.635-.486-.738-1.501-.93-2.097-1.02-1.348-.2-2.711-.21-4.151.038-.698.119-1.649.3-2.033.977-.573 1.01.289 2.159-.383 3.218-.64 1.01-1.809 1.049-2.68 1.176-.84.12-2.056.436-2.728-.241-.385-.39-.353-.942-.353-1.445-.001-.512-.064-1.016-.002-1.467.151-1.093.672-2.143 1.556-3.099.867-.937 1.861-1.42 2.838-1.794 1.91-.73 3.867-.918 5.886-.942 1.986-.024 4.111.207 6.02.971 2.382.955 3.969 2.924 4.247 4.972.048.347.017.802.012 1.24-.004.437.054.895-.186 1.305" fill="#555"/><path d="m21.1 40.49c-.545.933-1.905.672-2.876.53-.944-.137-2.07-.276-2.69-1.154-.349-.492-.242-1.101-.241-1.63.002-.522.16-1.181-.14-1.635-.486-.738-1.501-.93-2.097-1.02-1.348-.2-2.711-.21-4.151.038-.698.119-1.649.3-2.033.977-.573 1.01.289 2.159-.383 3.218-.64 1.01-1.809 1.049-2.68 1.176-.84.12-2.056.436-2.728-.241-.385-.39-.353-.942-.353-1.445-.001-.512-.064-1.016-.002-1.467.151-1.093.672-2.143 1.556-3.099.867-.937 1.861-1.42 2.838-1.794 1.91-.73 3.867-.918 5.886-.942 1.986-.024 4.111.207 6.02.971 2.382.955 3.969 2.924 4.247 4.972.048.347.017.802.012 1.24-.004.437.054.895-.186 1.305" opacity=".1" fill="#fff"/></g></svg>