<svg xmlns="http://www.w3.org/2000/svg" viewBox="0 0 24 24" xmlns:xlink="http://www.w3.org/1999/xlink"><defs><clipPath><path d="m0 96h96v-96h-96v96"/></clipPath></defs><g transform="translate(1-25)"><g fill="#555"><g transform="translate(.691 18.11)"><path d="m8.309 9.887c-2.209 0-4 1.791-4 4 0 2.209 1.791 4 4 4 2.209 0 4-1.791 4-4 0-2.209-1.791-4-4-4" color="#bebebe" id="0"/><path d="m5.09 17.669c-2.249 1.165-2.781 3.512-2.781 6.219h12c0-2.707-.533-5.05-2.781-6.219-.875.748-1.985 1.219-3.219 1.219-1.234 0-2.344-.471-3.219-1.219" fill-rule="evenodd" id="1"/></g><g color="#000"><path d="m14 43h6v2h-6z" id="2"/><path transform="matrix(0 1 1 0 0 0)" d="m41 16h6v2h-6z" id="3"/></g></g><g transform="translate(0-1)" opacity=".1" fill="#fff"><g transform="translate(.691 18.11)"><use xlink:href="#0"/><use xlink:href="#1"/></g><g color="#000"><use xlink:href="#2"/><use xlink:href="#3"/></g></g></g></svg>