<svg xmlns="http://www.w3.org/2000/svg" viewBox="0 0 24 24"><defs><linearGradient id="0" y1="46.558" x2="0" y2="24.558" gradientUnits="userSpaceOnUse"><stop stop-color="#555"/><stop offset="1" stop-color="#666"/></linearGradient></defs><g transform="translate(0-24)" color="#000"><path d="m19 28.433l-1.063 1.063-8.938 8.937-2.938-2.938-1.063-1.063-2.125 2.125 1.063 1.063 4 4 1.063 1.063 1.063-1.063 10-10 1.063-1.063-2.125-2.125" fill="url(#0)"/><path d="m19 28.433l-1.063 1.063-8.938 8.937-2.938-2.938-1.063-1.063-2.125 2.125 1.063 1.063 4 4 1.063 1.063 1.063-1.063 10-10 1.063-1.063-2.125-2.125z" opacity=".61" fill="none" stroke="#000"/><path d="m19 29.12l-.719.719-8.938 8.937-.344.375-.344-.375-2.938-2.938-.719-.719-1.438 1.438.5.5.938-.938.719.719 2.938 2.938.344.375.344-.375 8.938-8.938.719-.719.938.938.5-.5-1.438-1.438" opacity=".2" fill="#fff"/></g></svg>