<?xml version="1.0" encoding="UTF-8" standalone="no"?>
<svg xmlns="http://www.w3.org/2000/svg" xmlns:xlink="http://www.w3.org/1999/xlink" xmlns:sodipodi="http://sodipodi.sourceforge.net/DTD/sodipodi-0.dtd" xmlns:inkscape="http://www.inkscape.org/namespaces/inkscape" version="1.1" width="24" height="24">
 <defs id="defs3830">
  <linearGradient inkscape:collect="always" id="linearGradient3801">
   <stop id="stop3803" stop-color="#ffffff"/>
   <stop offset="1" id="stop3805" stop-color="#ffffff" stop-opacity="0"/>
  </linearGradient>
  <linearGradient id="linearGradient3977">
   <stop id="stop3979" stop-color="#ffffff"/>
   <stop id="stop3981" offset="0.036" stop-color="#ffffff" stop-opacity="0.235"/>
   <stop id="stop3983" offset="0.951" stop-color="#ffffff" stop-opacity="0.157"/>
   <stop id="stop3985" offset="1" stop-color="#ffffff" stop-opacity="0.392"/>
  </linearGradient>
  <linearGradient id="linearGradient3600-4">
   <stop id="stop3602-7" stop-color="#f4f4f4"/>
   <stop id="stop3604-6" offset="1" stop-color="#dbdbdb"/>
  </linearGradient>
  <linearGradient y1="5.564" x2="0" y2="43" id="linearGradient3000" xlink:href="#linearGradient3977" gradientUnits="userSpaceOnUse" gradientTransform="matrix(0.40540511,0,0,0.51351253,1.2696879,-1.32431)"/>
  <linearGradient y1="0.985" x2="0" y2="47.01" id="linearGradient3003" xlink:href="#linearGradient3988-5" gradientUnits="userSpaceOnUse" gradientTransform="matrix(0.48571543,0,0,-0.45629579,0.3428297,21.651132)"/>
  <linearGradient inkscape:collect="always" xlink:href="#linearGradient3988-5" id="linearGradient3158" gradientUnits="userSpaceOnUse" gradientTransform="matrix(0.175,0,0,0.175,-1.20002,-6.0000326)" y1="280" x2="0" y2="40"/>
  <linearGradient id="linearGradient3988-5">
   <stop id="stop3990-5" stop-color="#ededed"/>
   <stop offset="1" id="stop3992-0" stop-color="#fafafa"/>
  </linearGradient>
  <linearGradient inkscape:collect="always" xlink:href="#linearGradient3801" id="linearGradient3807" y1="0" x2="0" y2="22" gradientUnits="userSpaceOnUse" gradientTransform="translate(1,-1)"/>
  <radialGradient inkscape:collect="always" xlink:href="#linearGradient6557" id="radialGradient3981" gradientUnits="userSpaceOnUse" cx="311.47" cy="828.53" r="3.281"/>
  <linearGradient id="linearGradient6557">
   <stop id="stop6559" stop-color="#fce94f"/>
   <stop id="stop6565" offset="0.673" stop-color="#fce94f"/>
   <stop offset="1" id="stop6561" stop-color="#fce94f" stop-opacity="0"/>
  </linearGradient>
  <linearGradient id="linearGradient6620">
   <stop id="stop6622" stop-color="#ffffff"/>
   <stop offset="0.33" id="stop6624" stop-color="#ffffff"/>
   <stop id="stop6626" offset="1" stop-color="#fce94f"/>
  </linearGradient>
  <radialGradient inkscape:collect="always" xlink:href="#linearGradient3952" id="radialGradient3047" gradientUnits="userSpaceOnUse" gradientTransform="matrix(1,0,0,0.75,-21,12.875)" cx="40" cy="43.5" r="2"/>
  <linearGradient inkscape:collect="always" id="linearGradient3952">
   <stop id="stop3954"/>
   <stop offset="1" id="stop3956" stop-opacity="0"/>
  </linearGradient>
  <radialGradient inkscape:collect="always" xlink:href="#linearGradient3952" id="radialGradient3049" gradientUnits="userSpaceOnUse" gradientTransform="matrix(1,0,0,0.75,-6,12.875)" cx="9" cy="43.5" r="2"/>
  <linearGradient inkscape:collect="always" xlink:href="#linearGradient3960" id="linearGradient3051" gradientUnits="userSpaceOnUse" gradientTransform="matrix(1.1428571,0,0,1,-11.857143,2)" y1="45" x2="0" y2="42"/>
  <linearGradient id="linearGradient3960">
   <stop id="stop3962" stop-opacity="0"/>
   <stop id="stop3970" offset="0.5"/>
   <stop offset="1" id="stop3964" stop-opacity="0"/>
  </linearGradient>
  <linearGradient inkscape:collect="always" xlink:href="#linearGradient3960" id="linearGradient3043" gradientUnits="userSpaceOnUse" gradientTransform="matrix(1.1428571,0,0,1,-10.857143,-23)" y1="45" x2="0" y2="42"/>
  <radialGradient inkscape:collect="always" xlink:href="#linearGradient3952" id="radialGradient3046" gradientUnits="userSpaceOnUse" gradientTransform="matrix(1,0,0,0.75,-5,-12.125)" cx="9" cy="43.5" r="2"/>
  <linearGradient id="linearGradient3920">
   <stop id="stop3922" stop-color="#f8f8f8"/>
   <stop id="stop3924" offset="1" stop-color="#e6e6e6"/>
  </linearGradient>
  <radialGradient r="3.281" cy="828.53" cx="311.47" gradientUnits="userSpaceOnUse" id="radialGradient4009" xlink:href="#linearGradient6557" inkscape:collect="always"/>
  <radialGradient r="5.5" cy="785.16" cx="316.09" gradientTransform="matrix(2.1730275,0,0,1.9594181,-672.25707,-1534.79)" gradientUnits="userSpaceOnUse" id="radialGradient3095" xlink:href="#linearGradient6620" inkscape:collect="always"/>
  <radialGradient r="5.219" cy="816.91" cx="309.37" gradientTransform="matrix(4.5697471,-0.00304895,0,4.2377637,-1400.2274,-3458.4132)" gradientUnits="userSpaceOnUse" id="radialGradient3097" xlink:href="#linearGradient6633" inkscape:collect="always"/>
  <linearGradient id="linearGradient6633" inkscape:collect="always">
   <stop id="stop6635" stop-color="#edd400"/>
   <stop id="stop6637" offset="1" stop-color="#c4a000"/>
  </linearGradient>
  <linearGradient x2="15" x1="11" gradientUnits="userSpaceOnUse" id="linearGradient3021" xlink:href="#outerBackgroundGradient-4" inkscape:collect="always"/>
  <linearGradient id="outerBackgroundGradient-4">
   <stop id="stop3864-8-6-6" stop-color="#f0f0f0"/>
   <stop offset="1" id="stop3866-9-1-7" stop-color="#f9f9f9"/>
  </linearGradient>
  <radialGradient inkscape:collect="always" xlink:href="#linearGradient3952" id="radialGradient3872" cx="16.5" cy="20.5" r="5.5" gradientTransform="matrix(1,0,0,0.27272727,0,14.909091)" gradientUnits="userSpaceOnUse"/>
 </defs>
 <metadata id="metadata3833"/>
 <g inkscape:groupmode="layer" id="layer1" inkscape:label="Background" transform="translate(0,2)">
  <path d="M 3.40625,19 C 2.6271875,19 2,19.627187 2,20.40625 l 0,0.1875 C 2,21.372813 2.6271875,22 3.40625,22 L 4,22 4,19 3.40625,19 z" id="rect3942" inkscape:connector-curvature="0" opacity="0.2" fill="url(#radialGradient3046)"/>
  <path d="m 4,19 16,0 0,3 -16,0 z" id="rect3938" inkscape:connector-curvature="0" sodipodi:nodetypes="ccccc" opacity="0.2" fill="url(#linearGradient3043)"/>
  <path d="m 3.4999609,20.500039 c 3.8955809,0 17.0000591,-0.0014 17.0000591,-0.0014 l 2.1e-5,-20.998676 c 0,0 -11.333386,0 -17.0000801,0 0,7.000005 0,14.000008 0,21.000014 z" inkscape:connector-curvature="0" id="path4160-3" sodipodi:nodetypes="ccccsc" fill="url(#linearGradient3003)"/>
  <path d="m 3.4999609,-0.5000371 c 3.8955809,0 17.0000591,0.0014 17.0000591,0.0014 l 2.1e-5,20.9986761 c 0,0 -11.333386,0 -17.0000801,0 0,-7.000005 0,-14.0000081 0,-21.0000141 z" inkscape:connector-curvature="0" id="path4160-3-5" sodipodi:nodetypes="ccccsc" opacity="0.41" fill="none" stroke="#000000" stroke-linejoin="round"/>
  <path d="m 4,0 0,1 c 4.1579948,7.52e-5 15.292656,-7.52e-5 16,0 L 20,0 C 19.292656,-7.52e-5 8.1579948,7.52e-5 4,0 z" id="path3780" inkscape:connector-curvature="0" sodipodi:nodetypes="ccccc" opacity="0.4" fill="#ffffff"/>
  <path d="M 4,0 4,20 20,20 20,0 z M 5,1 19,1 19,19 5,19 z" id="rect3796" inkscape:connector-curvature="0" sodipodi:nodetypes="cccccccccc" opacity="0.4" fill="url(#linearGradient3807)"/>
  <path sodipodi:type="arc" id="path3864" sodipodi:cx="16.5" sodipodi:cy="20.5" sodipodi:rx="5.5" sodipodi:ry="1.5" d="m 22,20.5 a 5.5,1.5 0 1 1 -11,0 5.5,1.5 0 1 1 11,0 z" transform="matrix(0.81818182,0,0,1,4.9999672,-4.5392753e-7)" opacity="0.4" fill="url(#radialGradient3872)"/>
  <path sodipodi:type="arc" id="path3042" sodipodi:cx="13" sodipodi:cy="13" sodipodi:rx="2" sodipodi:ry="2" d="m 15,13 a 2,2 0 1 1 -4,0 2,2 0 1 1 4,0 z" transform="matrix(0,-2.4999844,2.4999844,0,-13.999828,48.99983)" fill="url(#linearGradient3021)"/>
  <path transform="matrix(2.4999844,0,0,2.4999844,-13.999828,-15.999766)" d="m 15,13 a 2,2 0 1 1 -4,0 2,2 0 1 1 4,0 z" sodipodi:ry="2" sodipodi:rx="2" sodipodi:cy="13" sodipodi:cx="13" id="path3814" sodipodi:type="arc" opacity="0.41" fill="none" stroke="#000000" stroke-width="0.4"/>
  <path d="m 18.499999,13.642875 0,2.857124 2.142844,0" id="path3825" inkscape:connector-curvature="0" sodipodi:nodetypes="ccc" opacity="0.6" fill="none" stroke="#000000" stroke-linecap="round"/>
 </g>
</svg>
