<svg xmlns="http://www.w3.org/2000/svg" viewBox="0 0 24 24"><g transform="translate(1-25)"><g transform="matrix(-1 0 0 1 22 0)"><path d="m-1.6 2.8h-11.994v16.8h11.994v-4.8h2.394v7.2h-16.794v-21.6h14.794 2v7.2h-2.394z" fill="#555" transform="matrix(.83333 0 0-.83333 15.333 45.33)"/><path d="m12 32.407l-6.03 3.594 6.03 3.625v-2.125-.5h4.188c1.581 0 2.813 1.231 2.813 2.813v.375c0 1.292-.837 2.343-2 2.688v2.063c2.27-.386 4-2.371 4-4.75v-.375c0-2.655-2.158-4.813-4.813-4.813h-4.188v-.5-2.094" color="#000" fill="#444"/></g><g transform="matrix(-1 0 0 1 22-1)" opacity=".1" fill="#fff"><path d="m-1.6 2.8h-11.994v16.8h11.994v-4.8h2.394v7.2h-16.794v-21.6h14.794 2v7.2h-2.394z" transform="matrix(.83333 0 0-.83333 15.333 45.33)"/><path d="m12 32.407l-6.03 3.594 6.03 3.625v-2.125-.5h4.188c1.581 0 2.813 1.231 2.813 2.813v.375c0 1.292-.837 2.343-2 2.688v2.063c2.27-.386 4-2.371 4-4.75v-.375c0-2.655-2.158-4.813-4.813-4.813h-4.188v-.5-2.094" color="#000"/></g></g></svg>