<svg xmlns="http://www.w3.org/2000/svg" viewBox="0 0 24 24"><defs><clipPath><path d="m0 96h96v-96h-96v96"/></clipPath></defs><g transform="translate(1-25)"><g fill="#555"><path transform="translate(0 26)" d="m11 2c-4.971 0-9 4.03-9 9 0 4.971 4.03 9 9 9 4.971 0 9-4.03 9-9 0-4.971-4.03-9-9-9m0 2c3.866 0 7 3.134 7 7 0 3.866-3.134 7-7 7-3.866 0-7-3.134-7-7 0-3.866 3.134-7 7-7" color="#000"/><path d="m11.284 31.12h-.955l-.328 6.15.085.643 3.599 3.091.726-.745-2.804-3.075z"/></g><g transform="translate(0-1)" opacity=".1" fill="#fff"><path d="m11 2c-4.971 0-9 4.03-9 9 0 4.971 4.03 9 9 9 4.971 0 9-4.03 9-9 0-4.971-4.03-9-9-9m0 2c3.866 0 7 3.134 7 7 0 3.866-3.134 7-7 7-3.866 0-7-3.134-7-7 0-3.866 3.134-7 7-7" transform="translate(0 26)" color="#000"/><path d="m11.284 31.12h-.955l-.328 6.15.085.643 3.599 3.091.726-.745-2.804-3.075z"/></g></g></svg>