<?xml version="1.0" encoding="UTF-8" standalone="no"?>
<svg xmlns="http://www.w3.org/2000/svg" xmlns:xlink="http://www.w3.org/1999/xlink" xmlns:sodipodi="http://sodipodi.sourceforge.net/DTD/sodipodi-0.dtd" xmlns:inkscape="http://www.inkscape.org/namespaces/inkscape" version="1.1" width="24" height="24">
 <defs id="defs3830">
  <linearGradient inkscape:collect="always" id="linearGradient3801">
   <stop id="stop3803" stop-color="#ffffff"/>
   <stop offset="1" id="stop3805" stop-color="#ffffff" stop-opacity="0"/>
  </linearGradient>
  <linearGradient id="linearGradient3977">
   <stop id="stop3979" stop-color="#ffffff"/>
   <stop id="stop3981" offset="0.036" stop-color="#ffffff" stop-opacity="0.235"/>
   <stop id="stop3983" offset="0.951" stop-color="#ffffff" stop-opacity="0.157"/>
   <stop id="stop3985" offset="1" stop-color="#ffffff" stop-opacity="0.392"/>
  </linearGradient>
  <linearGradient id="linearGradient3600-4">
   <stop id="stop3602-7" stop-color="#f4f4f4"/>
   <stop id="stop3604-6" offset="1" stop-color="#dbdbdb"/>
  </linearGradient>
  <linearGradient y1="5.564" x2="0" y2="43" id="linearGradient3000" xlink:href="#linearGradient3977" gradientUnits="userSpaceOnUse" gradientTransform="matrix(0.40540511,0,0,0.51351253,1.2696879,-1.32431)"/>
  <linearGradient y1="0.985" x2="0" y2="47.01" id="linearGradient3003" xlink:href="#linearGradient3988-5" gradientUnits="userSpaceOnUse" gradientTransform="matrix(0.48571543,0,0,-0.45629579,0.3428297,21.651132)"/>
  <linearGradient inkscape:collect="always" xlink:href="#linearGradient3988-5" id="linearGradient3158" gradientUnits="userSpaceOnUse" gradientTransform="matrix(0.175,0,0,0.175,-1.20002,-6.0000326)" y1="280" x2="0" y2="40"/>
  <linearGradient id="linearGradient3988-5">
   <stop id="stop3990-5" stop-color="#ededed"/>
   <stop offset="1" id="stop3992-0" stop-color="#fafafa"/>
  </linearGradient>
  <linearGradient inkscape:collect="always" xlink:href="#linearGradient3801" id="linearGradient3807" y1="0" x2="0" y2="22" gradientUnits="userSpaceOnUse" gradientTransform="translate(1,-1)"/>
  <radialGradient inkscape:collect="always" xlink:href="#linearGradient6557" id="radialGradient3981" gradientUnits="userSpaceOnUse" cx="311.47" cy="828.53" r="3.281"/>
  <linearGradient id="linearGradient6557">
   <stop id="stop6559" stop-color="#fce94f"/>
   <stop id="stop6565" offset="0.673" stop-color="#fce94f"/>
   <stop offset="1" id="stop6561" stop-color="#fce94f" stop-opacity="0"/>
  </linearGradient>
  <linearGradient id="linearGradient6620">
   <stop id="stop6622" stop-color="#ffffff"/>
   <stop offset="0.33" id="stop6624" stop-color="#ffffff"/>
   <stop id="stop6626" offset="1" stop-color="#fce94f"/>
  </linearGradient>
  <radialGradient inkscape:collect="always" xlink:href="#linearGradient3952" id="radialGradient3047" gradientUnits="userSpaceOnUse" gradientTransform="matrix(1,0,0,0.75,-21,12.875)" cx="40" cy="43.5" r="2"/>
  <linearGradient inkscape:collect="always" id="linearGradient3952">
   <stop id="stop3954"/>
   <stop offset="1" id="stop3956" stop-opacity="0"/>
  </linearGradient>
  <radialGradient inkscape:collect="always" xlink:href="#linearGradient3952" id="radialGradient3049" gradientUnits="userSpaceOnUse" gradientTransform="matrix(1,0,0,0.75,-6,12.875)" cx="9" cy="43.5" r="2"/>
  <linearGradient inkscape:collect="always" xlink:href="#linearGradient3960" id="linearGradient3051" gradientUnits="userSpaceOnUse" gradientTransform="matrix(1.1428571,0,0,1,-11.857143,2)" y1="45" x2="0" y2="42"/>
  <linearGradient id="linearGradient3960">
   <stop id="stop3962" stop-opacity="0"/>
   <stop id="stop3970" offset="0.5"/>
   <stop offset="1" id="stop3964" stop-opacity="0"/>
  </linearGradient>
  <linearGradient inkscape:collect="always" xlink:href="#linearGradient3960" id="linearGradient3320" gradientUnits="userSpaceOnUse" gradientTransform="translate(-9,-23)" y1="45" x2="0" y2="42"/>
  <radialGradient inkscape:collect="always" xlink:href="#linearGradient3952" id="radialGradient3323" gradientUnits="userSpaceOnUse" gradientTransform="matrix(1,0,0,0.75,-5,-12.125)" cx="9" cy="43.5" r="2"/>
  <radialGradient inkscape:collect="always" xlink:href="#linearGradient3952" id="radialGradient3326" gradientUnits="userSpaceOnUse" gradientTransform="matrix(1,0,0,0.75,-22,-12.125)" cx="40" cy="43.5" r="2"/>
  <linearGradient inkscape:collect="always" xlink:href="#linearGradient3960" id="linearGradient3043" gradientUnits="userSpaceOnUse" gradientTransform="matrix(1.1428571,0,0,1,-10.857143,-23)" y1="45" x2="0" y2="42"/>
  <radialGradient inkscape:collect="always" xlink:href="#linearGradient3952" id="radialGradient3050" gradientUnits="userSpaceOnUse" gradientTransform="matrix(1,0,0,0.75,-20,-12.125)" cx="40" cy="43.5" r="2"/>
  <linearGradient inkscape:collect="always" xlink:href="#linearGradient3920" id="linearGradient3242" gradientUnits="userSpaceOnUse" gradientTransform="translate(0,6)" y1="16" x2="0" y2="9"/>
  <linearGradient id="linearGradient3920">
   <stop id="stop3922" stop-color="#f8f8f8"/>
   <stop id="stop3924" offset="1" stop-color="#e6e6e6"/>
  </linearGradient>
 </defs>
 <metadata id="metadata3833"/>
 <g inkscape:groupmode="layer" id="layer1" inkscape:label="Background" transform="translate(0,2)">
  <path d="m 20,19 0,3 0.5,0 C 21.331,22 22,21.331 22,20.5 22,19.669 21.331,19 20.5,19 L 20,19 z" id="rect3940" inkscape:connector-curvature="0" opacity="0.2" fill="url(#radialGradient3050)"/>
  <path d="M 3.40625,19 C 2.6271875,19 2,19.627187 2,20.40625 l 0,0.1875 C 2,21.372813 2.6271875,22 3.40625,22 L 4,22 4,19 3.40625,19 z" id="rect3942" inkscape:connector-curvature="0" opacity="0.2" fill="url(#radialGradient3323)"/>
  <path d="m 4,19 16,0 0,3 -16,0 z" id="rect3938" inkscape:connector-curvature="0" sodipodi:nodetypes="ccccc" opacity="0.2" fill="url(#linearGradient3043)"/>
  <path d="m 3.4999609,20.500039 c 3.8955809,0 17.0000591,-0.0014 17.0000591,-0.0014 l 2.1e-5,-20.998676 c 0,0 -11.333386,0 -17.0000801,0 0,7.000005 0,14.000008 0,21.000014 z" inkscape:connector-curvature="0" id="path4160-3" sodipodi:nodetypes="ccccsc" fill="url(#linearGradient3003)"/>
  <path d="m 3.4999609,-0.5000371 c 3.8955809,0 17.0000591,0.0014 17.0000591,0.0014 l 2.1e-5,20.9986761 c 0,0 -11.333386,0 -17.0000801,0 0,-7.000005 0,-14.0000081 0,-21.0000141 z" inkscape:connector-curvature="0" id="path4160-3-5" sodipodi:nodetypes="ccccsc" opacity="0.41" fill="none" stroke="#000000" stroke-linejoin="round"/>
  <path d="m 4,0 0,1 c 4.1579948,7.52e-5 15.292656,-7.52e-5 16,0 L 20,0 C 19.292656,-7.52e-5 8.1579948,7.52e-5 4,0 z" id="path3780" inkscape:connector-curvature="0" sodipodi:nodetypes="ccccc" opacity="0.4" fill="#ffffff"/>
  <path d="M 4,0 4,20 20,20 20,0 z M 5,1 19,1 19,19 5,19 z" id="rect3796" inkscape:connector-curvature="0" sodipodi:nodetypes="cccccccccc" opacity="0.4" fill="url(#linearGradient3807)"/>
 </g>
 <g inkscape:groupmode="layer" id="layer2" inkscape:label="Symbol" transform="translate(0,2)">
  <path d="m 14.05016,5 0,5.99979 2.50016,0 L 12.05016,17 7.55,10.99979 l 2.50016,0 0,-5.99979 z" inkscape:connector-curvature="0" id="path3842" sodipodi:nodetypes="cccccccc" opacity="0.4" fill="#ffffff" color="#000000"/>
  <path sodipodi:nodetypes="cccccccc" id="rect3005" inkscape:connector-curvature="0" d="m 14.05016,4 0,5.99979 2.50016,0 L 12.05016,16 7.55,9.99979 l 2.50016,0 0,-5.99979 z" fill="#bbbbbb" color="#000000"/>
  <path d="m 10.0625,4 0,1 4,0 0,-1 -4,0 z m -2.5,6 0.75,1 1.75,0 0,-1 -2.5,0 z m 6.5,0 0,1 1.75,0 0.75,-1 -2.5,0 z" id="path3422" inkscape:connector-curvature="0" opacity="0.1" color="#000000"/>
  <g id="g3059" transform="translate(1,-1)">
   <path d="m 11,14.5 c -1.097031,0 -2,0.902969 -2,2 l 0,4 c 0,1.097031 0.902969,2 2,2 l 9,0 c 1.097031,0 2,-0.902969 2,-2 l 0,-4 c 0,-1.097031 -0.902969,-2 -2,-2 z m 0,1 9,0 c 0.547671,0 1,0.452329 1,1 l 0,4 c 0,0.547671 -0.452329,1 -1,1 l -9,0 c -0.547671,0 -1,-0.452329 -1,-1 l 0,-4 c 0,-0.547671 0.452329,-1 1,-1 z" id="path3244" inkscape:connector-curvature="0" sodipodi:nodetypes="ssssssssssssssssss" opacity="0.31" color="#000000"/>
   <path sodipodi:nodetypes="sssssssss" inkscape:connector-curvature="0" id="rect3140" d="m 11,14.5 c -0.822351,0 -1.5,0.677649 -1.5,1.5 l 0,4 c 0,0.822351 0.677649,1.5 1.5,1.5 l 9,0 c 0.822351,0 1.5,-0.677649 1.5,-1.5 l 0,-4 c 0,-0.822351 -0.677649,-1.5 -1.5,-1.5 z" fill="url(#linearGradient3242)" fill-rule="evenodd"/>
   <path sodipodi:nodetypes="ssssssssssssssssss" inkscape:connector-curvature="0" id="path3925" d="m 11,14 c -1.097031,0 -2,0.902969 -2,2 l 0,4 c 0,1.097031 0.902969,2 2,2 l 9,0 c 1.097031,0 2,-0.902969 2,-2 l 0,-4 c 0,-1.097031 -0.902969,-2 -2,-2 z m 0,1 9,0 c 0.547671,0 1,0.452329 1,1 l 0,4 c 0,0.547671 -0.452329,1 -1,1 l -9,0 c -0.547671,0 -1,-0.452329 -1,-1 l 0,-4 c 0,-0.547671 0.452329,-1 1,-1 z" opacity="0.31" color="#000000"/>
   <rect y="15" x="10" height="6" width="6" id="rect3951" opacity="0.1" rx="0"/>
   <path sodipodi:nodetypes="ccccccccccccc" inkscape:connector-curvature="0" id="rect3956" d="m 11,16 0,0.5 1,0 0,3 -1,0 0,0.5 3,0 0,-0.5 -1,0 0,-3 1,0 0,-0.5 z" opacity="0.2"/>
  </g>
 </g>
</svg>
