<?xml version="1.0" encoding="UTF-8" standalone="no"?>
<svg xmlns="http://www.w3.org/2000/svg" xmlns:xlink="http://www.w3.org/1999/xlink" xmlns:sodipodi="http://sodipodi.sourceforge.net/DTD/sodipodi-0.dtd" xmlns:inkscape="http://www.inkscape.org/namespaces/inkscape" version="1.1" width="24" height="24">
 <defs id="defs3830">
  <linearGradient id="linearGradient3959">
   <stop id="stop3961" stop-color="#640d6e"/>
   <stop id="stop3963" offset="1" stop-color="#6b1c75"/>
  </linearGradient>
  <linearGradient inkscape:collect="always" id="linearGradient3801">
   <stop id="stop3803" stop-color="#ffffff"/>
   <stop offset="1" id="stop3805" stop-color="#ffffff" stop-opacity="0"/>
  </linearGradient>
  <linearGradient id="linearGradient3977">
   <stop id="stop3979" stop-color="#ffffff"/>
   <stop id="stop3981" offset="0.036" stop-color="#ffffff" stop-opacity="0.235"/>
   <stop id="stop3983" offset="0.951" stop-color="#ffffff" stop-opacity="0.157"/>
   <stop id="stop3985" offset="1" stop-color="#ffffff" stop-opacity="0.392"/>
  </linearGradient>
  <linearGradient id="linearGradient3600-4">
   <stop id="stop3602-7" stop-color="#f4f4f4"/>
   <stop id="stop3604-6" offset="1" stop-color="#dbdbdb"/>
  </linearGradient>
  <linearGradient y1="5.564" x2="0" y2="43" id="linearGradient3000" xlink:href="#linearGradient3977" gradientUnits="userSpaceOnUse" gradientTransform="matrix(0.40540511,0,0,0.51351253,1.2696879,-1.32431)"/>
  <linearGradient y1="0.985" x2="0" y2="47.01" id="linearGradient3003" xlink:href="#linearGradient3988-5" gradientUnits="userSpaceOnUse" gradientTransform="matrix(0.48571543,0,0,-0.45629579,0.3428297,21.651132)"/>
  <linearGradient inkscape:collect="always" xlink:href="#linearGradient3988-5" id="linearGradient3158" gradientUnits="userSpaceOnUse" gradientTransform="matrix(0.175,0,0,0.175,-1.20002,-6.0000326)" y1="280" x2="0" y2="40"/>
  <linearGradient id="linearGradient3988-5">
   <stop id="stop3990-5" stop-color="#ededed"/>
   <stop offset="1" id="stop3992-0" stop-color="#fafafa"/>
  </linearGradient>
  <linearGradient inkscape:collect="always" xlink:href="#linearGradient3801" id="linearGradient3807" y1="0" x2="0" y2="22" gradientUnits="userSpaceOnUse" gradientTransform="translate(1,-1)"/>
  <radialGradient inkscape:collect="always" xlink:href="#linearGradient6557" id="radialGradient3981" gradientUnits="userSpaceOnUse" cx="311.47" cy="828.53" r="3.281"/>
  <linearGradient id="linearGradient6557">
   <stop id="stop6559" stop-color="#fce94f"/>
   <stop id="stop6565" offset="0.673" stop-color="#fce94f"/>
   <stop offset="1" id="stop6561" stop-color="#fce94f" stop-opacity="0"/>
  </linearGradient>
  <linearGradient id="linearGradient6620">
   <stop id="stop6622" stop-color="#ffffff"/>
   <stop offset="0.33" id="stop6624" stop-color="#ffffff"/>
   <stop id="stop6626" offset="1" stop-color="#fce94f"/>
  </linearGradient>
  <linearGradient inkscape:collect="always" id="linearGradient3952">
   <stop id="stop3954"/>
   <stop offset="1" id="stop3956" stop-opacity="0"/>
  </linearGradient>
  <linearGradient inkscape:collect="always" xlink:href="#linearGradient3960" id="linearGradient3051" gradientUnits="userSpaceOnUse" gradientTransform="matrix(1.1428571,0,0,1,-11.857143,2)" y1="45" x2="0" y2="42"/>
  <linearGradient id="linearGradient3960">
   <stop id="stop3962" stop-opacity="0"/>
   <stop id="stop3970" offset="0.5"/>
   <stop offset="1" id="stop3964" stop-opacity="0"/>
  </linearGradient>
  <linearGradient inkscape:collect="always" xlink:href="#linearGradient3960" id="linearGradient3320" gradientUnits="userSpaceOnUse" gradientTransform="translate(-9,-23)" y1="45" x2="0" y2="42"/>
  <radialGradient inkscape:collect="always" xlink:href="#linearGradient3952" id="radialGradient3323" gradientUnits="userSpaceOnUse" gradientTransform="matrix(1,0,0,0.75,-5,-12.125)" cx="9" cy="43.5" r="2"/>
  <radialGradient inkscape:collect="always" xlink:href="#linearGradient3952" id="radialGradient3326" gradientUnits="userSpaceOnUse" gradientTransform="matrix(1,0,0,0.75,-22,-12.125)" cx="40" cy="43.5" r="2"/>
  <linearGradient inkscape:collect="always" xlink:href="#linearGradient4011" id="linearGradient4009" y1="4" x2="0" y2="13" gradientUnits="userSpaceOnUse" gradientTransform="translate(39.73185,10.818019)"/>
  <linearGradient id="linearGradient4011">
   <stop id="stop4013" stop-color="#0d546e" stop-opacity="0.61"/>
   <stop offset="1" id="stop4015" stop-color="#1c5875"/>
  </linearGradient>
  <linearGradient inkscape:collect="always" xlink:href="#linearGradient3995" id="linearGradient3993" y1="4" x2="0" y2="12" gradientUnits="userSpaceOnUse" gradientTransform="translate(1,1)"/>
  <linearGradient id="linearGradient3995">
   <stop id="stop3997" stop-color="#db1bee"/>
   <stop id="stop3999" offset="1" stop-color="#9c29a0"/>
  </linearGradient>
  <linearGradient y2="12" x2="0" y1="4" gradientTransform="translate(39.73185,10.818019)" gradientUnits="userSpaceOnUse" id="linearGradient3076" xlink:href="#linearGradient3995" inkscape:collect="always"/>
  <linearGradient inkscape:collect="always" xlink:href="#linearGradient3995" id="linearGradient3939" y1="4" x2="0" y2="19" gradientUnits="userSpaceOnUse" gradientTransform="translate(1,-1)"/>
  <linearGradient inkscape:collect="always" xlink:href="#linearGradient3959" id="linearGradient3957" y1="3" x2="0" y2="19" gradientUnits="userSpaceOnUse" gradientTransform="translate(1,-1)"/>
  <linearGradient inkscape:collect="always" xlink:href="#linearGradient3959" id="linearGradient3973" gradientUnits="userSpaceOnUse" y1="3" x2="0" y2="19"/>
  <linearGradient inkscape:collect="always" xlink:href="#linearGradient3995" id="linearGradient3975" gradientUnits="userSpaceOnUse" y1="4" x2="0" y2="19"/>
 </defs>
 <metadata id="metadata3833"/>
 <g inkscape:groupmode="layer" id="layer1" inkscape:label="Background" transform="translate(0,2)">
  <g id="g3328" transform="translate(1.0000009,-0.999961)">
   <path inkscape:connector-curvature="0" id="rect3940" d="m 18,19 0,3 0.5,0 C 19.331,22 20,21.331 20,20.5 20,19.669 19.331,19 18.5,19 L 18,19 z" opacity="0.2" fill="url(#radialGradient3326)"/>
   <path inkscape:connector-curvature="0" id="rect3942" d="M 3.40625,19 C 2.6271875,19 2,19.627187 2,20.40625 l 0,0.1875 C 2,21.372813 2.6271875,22 3.40625,22 L 4,22 4,19 3.40625,19 z" opacity="0.2" fill="url(#radialGradient3323)"/>
   <path sodipodi:nodetypes="ccccc" inkscape:connector-curvature="0" id="rect3938" d="m 4,19 14,0 0,3 -14,0 z" opacity="0.2" fill="url(#linearGradient3320)"/>
  </g>
  <path d="m 4.4999609,19.500039 c 3.8955809,0 15.0000591,-0.0014 15.0000591,-0.0014 l 2.1e-5,-18.998676 c 0,0 -9.333386,0 -15.0000801,0 0,7.000005 0,12.000008 0,19.000014 z" inkscape:connector-curvature="0" id="path4160-3" sodipodi:nodetypes="ccccsc" fill="url(#linearGradient3003)"/>
  <path d="m 4.4999609,0.4999629 c 3.8955809,0 15.0000591,0.0014 15.0000591,0.0014 l 2.1e-5,18.9986761 c 0,0 -9.333386,0 -15.0000801,0 0,-7.000005 0,-12.0000081 0,-19.0000141 z" inkscape:connector-curvature="0" id="path4160-3-5" sodipodi:nodetypes="ccccsc" opacity="0.41" fill="none" stroke="#000000" stroke-linejoin="round"/>
  <path d="m 5,1 0,1 c 4.1579948,7.52e-5 13.292656,-7.52e-5 14,0 l 0,-1 c -0.707344,-7.52e-5 -9.8420052,7.52e-5 -14,0 z" id="path3780" inkscape:connector-curvature="0" sodipodi:nodetypes="ccccc" opacity="0.4" fill="#ffffff"/>
  <path d="M 5,1 5,19 19,19 19,1 z M 6,2 18,2 18,18 6,18 z" id="rect3796" inkscape:connector-curvature="0" sodipodi:nodetypes="cccccccccc" opacity="0.4" fill="url(#linearGradient3807)"/>
 </g>
 <g inkscape:groupmode="layer" id="layer2" inkscape:label="Symbol" transform="translate(0,2)">
  <path d="M 15.21875,3.28125 14.84375,3.625 13.46875,5 13.125,5.375 13.46875,5.71875 16.25,8.5 9,8.46875 l -0.5,0 0,0.5 0,2 0,0.5 0.5,0 L 16.25,11.5 13.46875,14.28125 13.125,14.625 13.46875,15 l 1.375,1.375 0.375,0.34375 0.34375,-0.34375 6,-6.03125 0.34375,-0.375 -0.34375,-0.34375 -6,-6 -0.34375,-0.34375 z" id="path4765" inkscape:connector-curvature="0" fill="url(#linearGradient3939)"/>
  <path id="path3948" d="M 15.21875,3.28125 14.84375,3.625 13.46875,5 13.125,5.375 13.46875,5.71875 16.25,8.5 9,8.46875 l -0.5,0 0,0.5 0,2 0,0.5 0.5,0 L 16.25,11.5 13.46875,14.28125 13.125,14.625 13.46875,15 l 1.375,1.375 0.375,0.34375 0.34375,-0.34375 6,-6.03125 0.34375,-0.375 -0.34375,-0.34375 -6,-6 -0.34375,-0.34375 z" inkscape:connector-curvature="0" opacity="0.61" fill="none" stroke="url(#linearGradient3957)"/>
  <path d="M 15.21875,3.96875 15.1875,4 13.84375,5.34375 13.8125,5.375 l 0.5,0.5 L 15.1875,5 15.21875,4.96875 20.75,10.5 21.21875,10 l 0,-0.03125 -6,-6 z m -6.21875,5 0,1 L 16.25,10 17.46875,10 16.59375,9.15625 16.4375,9 16.25,9 9,8.96875 z M 16.4375,12 l -2.625,2.625 0,0.03125 0.03125,0 L 14.3125,15.125 16.59375,12.84375 17.4375,12 l -1,0 z" id="path3965" inkscape:connector-curvature="0" opacity="0.4" fill="#ffffff"/>
 </g>
</svg>
