<svg xmlns="http://www.w3.org/2000/svg" viewBox="0 0 24 24" xmlns:xlink="http://www.w3.org/1999/xlink"><g transform="translate(1-25)"><g fill="#555"><path d="m-.394.4h-13.2v19.2h13.2l-.006-1.2h2.394l.006 3.6h-18v-24h16 2l-.006 3.6h-2.394z" transform="matrix(.83333 0 0-.83333 16.333 45.33)" id="0"/><path d="m13.782 30.01c-.129.012-.299.034-.437.094 0 0-.088.296-.156 1.031-.083.899-.424 1.138-.683 1.322-.259.184-.344.227-.441.271-.508.085-.961.14-1.656-.437-.568-.472-.812-.625-.812-.625-.28.11-.531.406-.531.406 0 0-.296.25-.406.531 0 0 .153.245.625.812.577.694.522 1.148.437 1.656-.044.097-.088.182-.271.441-.184.259-.423.6-1.322.683-.735.068-1 .156-1 .156-.12.277-.125.656-.125.656 0 0 .005.379.125.656 0 0 .265.089 1 .156.899.083 1.138.424 1.322.683.184.259.228.344.272.441.085.508.139.961-.437 1.656-.472.568-.625.812-.625.812.111.281.406.531.406.531 0 0 .25.296.531.406 0 0 .245-.153.812-.625.694-.577 1.148-.522 1.656-.437.097.044.182.088.441.271.259.184.6.423.683 1.322.068.735.156 1 .156 1 .277.12.656.125.656.125 0 0 .38-.005.656-.125 0 0 .089-.265.156-1 .083-.899.424-1.138.843-1.437v-.031c.099-.037.184-.081.281-.125.508-.085.961-.14 1.656.437.568.472.812.625.812.625.281-.111.531-.406.531-.406 0 0 .296-.25.406-.531 0 0-.153-.245-.625-.812-.577-.694-.522-1.148-.437-1.656.044-.097.088-.182.125-.281h.031c.299-.419.538-.76 1.437-.843.735-.068 1.031-.156 1.031-.156.12-.277.094-.656.094-.656 0 0 .026-.379-.094-.656 0 0-.296-.088-1.031-.156-.899-.083-1.138-.424-1.437-.843-.037-.099-.112-.184-.156-.281-.085-.508-.14-.961.437-1.656.472-.568.625-.812.625-.812-.111-.281-.406-.531-.406-.531 0 0-.25-.296-.531-.406 0 0-.244.153-.812.625-.694.577-1.116.522-1.736.252-.62-.27-.961-.509-1.044-1.408-.068-.735-.156-1.031-.156-1.031-.277-.12-.656-.094-.656-.094 0 0-.089-.012-.219 0m.219 3.998c1.656 0 2.999 1.343 2.999 2.999 0 1.656-1.343 2.999-2.999 2.999-1.656 0-2.999-1.343-2.999-2.999 0-1.656 1.343-2.999 2.999-2.999" id="1"/></g><g transform="translate(0-1)" opacity=".1" fill="#fff"><use xlink:href="#0"/><use xlink:href="#1"/></g></g></svg>