<?xml version="1.0" encoding="UTF-8" standalone="no"?>
<svg
   xmlns:dc="http://purl.org/dc/elements/1.1/"
   xmlns:cc="http://creativecommons.org/ns#"
   xmlns:rdf="http://www.w3.org/1999/02/22-rdf-syntax-ns#"
   xmlns:svg="http://www.w3.org/2000/svg"
   xmlns="http://www.w3.org/2000/svg"
   xmlns:xlink="http://www.w3.org/1999/xlink"
   id="svg3828"
   height="24"
   width="24"
   version="1.1">
  <defs
     id="defs3830">
    <linearGradient
       id="linearGradient3801">
      <stop
         id="stop3803"
         offset="0"
         style="stop-color:#ffffff;stop-opacity:1;" />
      <stop
         id="stop3805"
         offset="1"
         style="stop-color:#ffffff;stop-opacity:0;" />
    </linearGradient>
    <linearGradient
       gradientTransform="matrix(0.48571543,0,0,-0.45629579,0.3428297,21.651132)"
       gradientUnits="userSpaceOnUse"
       xlink:href="#linearGradient3988-5"
       id="linearGradient3003"
       y2="47.013336"
       x2="25.132275"
       y1="0.98520643"
       x1="25.132275" />
    <linearGradient
       id="linearGradient3988-5">
      <stop
         id="stop3990-5"
         offset="0"
         style="stop-color:#ededed;stop-opacity:1;" />
      <stop
         id="stop3992-0"
         offset="1"
         style="stop-color:#fafafa;stop-opacity:1;" />
    </linearGradient>
    <linearGradient
       gradientTransform="translate(1,-1)"
       gradientUnits="userSpaceOnUse"
       y2="22"
       x2="10"
       y1="0"
       x1="10"
       id="linearGradient3807"
       xlink:href="#linearGradient3801" />
    <linearGradient
       id="linearGradient3944">
      <stop
         id="stop3946"
         offset="0"
         style="stop-color:#000000;stop-opacity:1;" />
      <stop
         id="stop3948"
         offset="1"
         style="stop-color:#000000;stop-opacity:0;" />
    </linearGradient>
    <linearGradient
       id="linearGradient3960">
      <stop
         id="stop3962"
         offset="0"
         style="stop-color:#000000;stop-opacity:0;" />
      <stop
         style="stop-color:#000000;stop-opacity:1;"
         offset="0.5"
         id="stop3970" />
      <stop
         id="stop3964"
         offset="1"
         style="stop-color:#000000;stop-opacity:0;" />
    </linearGradient>
    <linearGradient
       y2="42"
       x2="25"
       y1="45"
       x1="25"
       gradientTransform="matrix(1.1428571,0,0,1,-10.857143,-23)"
       gradientUnits="userSpaceOnUse"
       id="linearGradient3043"
       xlink:href="#linearGradient3960" />
    <radialGradient
       r="2"
       fy="43.5"
       fx="9"
       cy="43.5"
       cx="9"
       gradientTransform="matrix(1,0,0,0.75,-5,-12.125)"
       gradientUnits="userSpaceOnUse"
       id="radialGradient3046"
       xlink:href="#linearGradient3944" />
  </defs>
  <metadata
     id="metadata3833">
    <rdf:RDF>
      <cc:Work
         rdf:about="">
        <dc:format>image/svg+xml</dc:format>
        <dc:type
           rdf:resource="http://purl.org/dc/dcmitype/StillImage" />
        <dc:title />
      </cc:Work>
    </rdf:RDF>
  </metadata>
  <g
     transform="translate(0,2)"
     style="display:inline"
     id="layer1">
    <path
       id="rect3942"
       d="M 3.40625,19 C 2.6271875,19 2,19.627187 2,20.40625 l 0,0.1875 C 2,21.372813 2.6271875,22 3.40625,22 L 4,22 4,19 3.40625,19 z"
       style="opacity:0.2;fill:url(#radialGradient3046);fill-opacity:1;stroke:none" />
    <path
       id="rect3938"
       d="m 4,19 16,0 0,3 -16,0 z"
       style="opacity:0.2;fill:url(#linearGradient3043);fill-opacity:1;stroke:none" />
    <path
       style="fill:url(#linearGradient3003);fill-opacity:1;stroke:none;display:inline"
       id="path4160-3"
       d="m 3.4999609,20.500039 c 3.8955809,0 17.0000591,-0.0014 17.0000591,-0.0014 l 2.1e-5,-20.998676 c 0,0 -11.333386,0 -17.0000801,0 0,7.000005 0,14.000008 0,21.000014 z" />
    <path
       style="opacity:0.41000001;fill:none;stroke:#000000;stroke-width:0.99992186;stroke-linecap:butt;stroke-linejoin:round;stroke-miterlimit:4;stroke-opacity:1;stroke-dasharray:none;stroke-dashoffset:0;display:inline"
       id="path4160-3-5"
       d="m 3.4999609,-0.5000371 c 3.8955809,0 17.0000591,0.0014 17.0000591,0.0014 l 2.1e-5,20.9986761 c 0,0 -11.333386,0 -17.0000801,0 0,-7.000005 0,-14.0000081 0,-21.0000141 z" />
    <path
       id="path3780"
       d="m 4,0 0,1 c 4.1579948,7.52e-5 15.292656,-7.52e-5 16,0 L 20,0 C 19.292656,-7.52e-5 8.1579948,7.52e-5 4,0 z"
       style="opacity:0.4;fill:#ffffff;fill-opacity:1;stroke:none;display:inline" />
    <path
       id="rect3796"
       d="M 4,0 4,20 20,20 20,0 z M 5,1 19,1 19,19 5,19 z"
       style="opacity:0.4;fill:url(#linearGradient3807);fill-opacity:1" />
    <g
       id="g4037">
      <path
         id="path26173"
         style="font-size:2px;font-style:normal;font-variant:normal;font-weight:normal;font-stretch:normal;line-height:100%;letter-spacing:0px;word-spacing:0px;opacity:0.2;fill:#000000;fill-opacity:1;stroke:none;font-family:BLOKK Neue;-inkscape-font-specification:BLOKK Neue"
         d="m 7.28906,3 0,-0.859375 L 6,2.140625 6,3 7.28906,3" />
      <path
         id="path26177"
         style="font-size:2px;font-style:normal;font-variant:normal;font-weight:normal;font-stretch:normal;line-height:100%;letter-spacing:0px;word-spacing:0px;opacity:0.2;fill:#000000;fill-opacity:1;stroke:none;font-family:BLOKK Neue;-inkscape-font-specification:BLOKK Neue"
         d="m 9.78906,3 0,-0.859375 -1.28906,0 L 8.5,3 9.78906,3" />
      <path
         id="path26179"
         style="font-size:2px;font-style:normal;font-variant:normal;font-weight:normal;font-stretch:normal;line-height:100%;letter-spacing:0px;word-spacing:0px;opacity:0.2;fill:#000000;fill-opacity:1;stroke:none;font-family:BLOKK Neue;-inkscape-font-specification:BLOKK Neue"
         d="m 11.03906,3 0,-0.859375 -1.28906,0 L 9.75,3 11.03906,3" />
      <path
         id="path26181"
         style="font-size:2px;font-style:normal;font-variant:normal;font-weight:normal;font-stretch:normal;line-height:100%;letter-spacing:0px;word-spacing:0px;opacity:0.2;fill:#000000;fill-opacity:1;stroke:none;font-family:BLOKK Neue;-inkscape-font-specification:BLOKK Neue"
         d="m 12.28906,3 0,-0.859375 -1.28906,0 L 11,3 12.28906,3" />
      <path
         id="path26183"
         style="font-size:2px;font-style:normal;font-variant:normal;font-weight:normal;font-stretch:normal;line-height:100%;letter-spacing:0px;word-spacing:0px;opacity:0.2;fill:#000000;fill-opacity:1;stroke:none;font-family:BLOKK Neue;-inkscape-font-specification:BLOKK Neue"
         d="m 16.04687,3 0,-0.859375 -1.28906,0 0,0.859375 1.28906,0" />
      <path
         id="path26203"
         style="font-size:2px;font-style:normal;font-variant:normal;font-weight:normal;font-stretch:normal;line-height:100%;letter-spacing:0px;word-spacing:0px;opacity:0.2;fill:#000000;fill-opacity:1;stroke:none;font-family:BLOKK Neue;-inkscape-font-specification:BLOKK Neue"
         d="m 7.28906,5 0,-0.859375 L 6,4.140625 6,5 7.28906,5" />
      <path
         id="path26205"
         style="font-size:2px;font-style:normal;font-variant:normal;font-weight:normal;font-stretch:normal;line-height:100%;letter-spacing:0px;word-spacing:0px;opacity:0.2;fill:#000000;fill-opacity:1;stroke:none;font-family:BLOKK Neue;-inkscape-font-specification:BLOKK Neue"
         d="m 8.53906,5 0,-0.859375 -1.28906,0 L 7.25,5 8.53906,5" />
      <path
         id="path26207"
         style="font-size:2px;font-style:normal;font-variant:normal;font-weight:normal;font-stretch:normal;line-height:100%;letter-spacing:0px;word-spacing:0px;opacity:0.2;fill:#000000;fill-opacity:1;stroke:none;font-family:BLOKK Neue;-inkscape-font-specification:BLOKK Neue"
         d="m 9.78906,5 0,-0.859375 -1.28906,0 L 8.5,5 9.78906,5" />
      <path
         id="path26209"
         style="font-size:2px;font-style:normal;font-variant:normal;font-weight:normal;font-stretch:normal;line-height:100%;letter-spacing:0px;word-spacing:0px;opacity:0.2;fill:#000000;fill-opacity:1;stroke:none;font-family:BLOKK Neue;-inkscape-font-specification:BLOKK Neue"
         d="m 13.54687,5 0,-0.859375 -1.28906,0 0,0.859375 1.28906,0" />
      <path
         id="path26211"
         style="font-size:2px;font-style:normal;font-variant:normal;font-weight:normal;font-stretch:normal;line-height:100%;letter-spacing:0px;word-spacing:0px;opacity:0.2;fill:#000000;fill-opacity:1;stroke:none;font-family:BLOKK Neue;-inkscape-font-specification:BLOKK Neue"
         d="m 14.79687,5 0,-0.859375 -1.28906,0 0,0.859375 1.28906,0" />
      <path
         id="path26213"
         style="font-size:2px;font-style:normal;font-variant:normal;font-weight:normal;font-stretch:normal;line-height:100%;letter-spacing:0px;word-spacing:0px;opacity:0.2;fill:#000000;fill-opacity:1;stroke:none;font-family:BLOKK Neue;-inkscape-font-specification:BLOKK Neue"
         d="m 16.04687,5 0,-0.859375 -1.28906,0 0,0.859375 1.28906,0" />
      <path
         id="path26219"
         style="font-size:2px;font-style:normal;font-variant:normal;font-weight:normal;font-stretch:normal;line-height:100%;letter-spacing:0px;word-spacing:0px;opacity:0.2;fill:#000000;fill-opacity:1;stroke:none;font-family:BLOKK Neue;-inkscape-font-specification:BLOKK Neue"
         d="m 7.28906,7 0,-0.859375 L 6,6.140625 6,7 7.28906,7" />
      <path
         id="path26223"
         style="font-size:2px;font-style:normal;font-variant:normal;font-weight:normal;font-stretch:normal;line-height:100%;letter-spacing:0px;word-spacing:0px;opacity:0.2;fill:#000000;fill-opacity:1;stroke:none;font-family:BLOKK Neue;-inkscape-font-specification:BLOKK Neue"
         d="m 9.78906,7 0,-0.859375 -1.28906,0 L 8.5,7 9.78906,7" />
      <path
         id="path26225"
         style="font-size:2px;font-style:normal;font-variant:normal;font-weight:normal;font-stretch:normal;line-height:100%;letter-spacing:0px;word-spacing:0px;opacity:0.2;fill:#000000;fill-opacity:1;stroke:none;font-family:BLOKK Neue;-inkscape-font-specification:BLOKK Neue"
         d="m 11.03906,7 0,-0.859375 -1.28906,0 L 9.75,7 11.03906,7" />
      <path
         id="path26227"
         style="font-size:2px;font-style:normal;font-variant:normal;font-weight:normal;font-stretch:normal;line-height:100%;letter-spacing:0px;word-spacing:0px;opacity:0.2;fill:#000000;fill-opacity:1;stroke:none;font-family:BLOKK Neue;-inkscape-font-specification:BLOKK Neue"
         d="m 12.28906,7 0,-0.859375 -1.28906,0 L 11,7 12.28906,7" />
      <path
         id="path26229"
         style="font-size:2px;font-style:normal;font-variant:normal;font-weight:normal;font-stretch:normal;line-height:100%;letter-spacing:0px;word-spacing:0px;opacity:0.2;fill:#000000;fill-opacity:1;stroke:none;font-family:BLOKK Neue;-inkscape-font-specification:BLOKK Neue"
         d="m 13.53906,7 0,-0.859375 -1.28906,0 0,0.859375 1.28906,0" />
      <path
         id="path26231"
         style="font-size:2px;font-style:normal;font-variant:normal;font-weight:normal;font-stretch:normal;line-height:100%;letter-spacing:0px;word-spacing:0px;opacity:0.2;fill:#000000;fill-opacity:1;stroke:none;font-family:BLOKK Neue;-inkscape-font-specification:BLOKK Neue"
         d="m 14.78906,7 0,-0.859375 -1.28906,0 L 13.5,7 14.78906,7" />
      <path
         id="path26241"
         style="font-size:2px;font-style:normal;font-variant:normal;font-weight:normal;font-stretch:normal;line-height:100%;letter-spacing:0px;word-spacing:0px;opacity:0.2;fill:#000000;fill-opacity:1;stroke:none;font-family:BLOKK Neue;-inkscape-font-specification:BLOKK Neue"
         d="m 7.28906,9 0,-0.859375 L 6,8.140625 6,9 7.28906,9" />
      <path
         id="path26243"
         style="font-size:2px;font-style:normal;font-variant:normal;font-weight:normal;font-stretch:normal;line-height:100%;letter-spacing:0px;word-spacing:0px;opacity:0.2;fill:#000000;fill-opacity:1;stroke:none;font-family:BLOKK Neue;-inkscape-font-specification:BLOKK Neue"
         d="m 8.53906,9 0,-0.859375 -1.28906,0 L 7.25,9 8.53906,9" />
      <path
         id="path26247"
         style="font-size:2px;font-style:normal;font-variant:normal;font-weight:normal;font-stretch:normal;line-height:100%;letter-spacing:0px;word-spacing:0px;opacity:0.2;fill:#000000;fill-opacity:1;stroke:none;font-family:BLOKK Neue;-inkscape-font-specification:BLOKK Neue"
         d="m 11.03906,9 0,-0.859375 -1.28906,0 L 9.75,9 11.03906,9" />
      <path
         id="path26249"
         style="font-size:2px;font-style:normal;font-variant:normal;font-weight:normal;font-stretch:normal;line-height:100%;letter-spacing:0px;word-spacing:0px;opacity:0.2;fill:#000000;fill-opacity:1;stroke:none;font-family:BLOKK Neue;-inkscape-font-specification:BLOKK Neue"
         d="m 12.28906,9 0,-0.859375 -1.28906,0 L 11,9 12.28906,9" />
      <path
         id="path26251"
         style="font-size:2px;font-style:normal;font-variant:normal;font-weight:normal;font-stretch:normal;line-height:100%;letter-spacing:0px;word-spacing:0px;opacity:0.2;fill:#000000;fill-opacity:1;stroke:none;font-family:BLOKK Neue;-inkscape-font-specification:BLOKK Neue"
         d="m 13.53906,9 0,-0.859375 -1.28906,0 0,0.859375 1.28906,0" />
      <path
         id="path26255"
         style="font-size:2px;font-style:normal;font-variant:normal;font-weight:normal;font-stretch:normal;line-height:100%;letter-spacing:0px;word-spacing:0px;opacity:0.2;fill:#000000;fill-opacity:1;stroke:none;font-family:BLOKK Neue;-inkscape-font-specification:BLOKK Neue"
         d="m 16.03906,9 0,-0.859375 -1.28906,0 0,0.859375 1.28906,0" />
      <path
         id="path26271"
         style="font-size:2px;font-style:normal;font-variant:normal;font-weight:normal;font-stretch:normal;line-height:100%;letter-spacing:0px;word-spacing:0px;opacity:0.2;fill:#000000;fill-opacity:1;stroke:none;font-family:BLOKK Neue;-inkscape-font-specification:BLOKK Neue"
         d="m 7.28906,11 0,-0.859375 -1.28906,0 L 6,11 7.28906,11" />
      <path
         id="path26273"
         style="font-size:2px;font-style:normal;font-variant:normal;font-weight:normal;font-stretch:normal;line-height:100%;letter-spacing:0px;word-spacing:0px;opacity:0.2;fill:#000000;fill-opacity:1;stroke:none;font-family:BLOKK Neue;-inkscape-font-specification:BLOKK Neue"
         d="m 8.53906,11 0,-0.859375 -1.28906,0 0,0.859375 1.28906,0" />
      <path
         id="path26275"
         style="font-size:2px;font-style:normal;font-variant:normal;font-weight:normal;font-stretch:normal;line-height:100%;letter-spacing:0px;word-spacing:0px;opacity:0.2;fill:#000000;fill-opacity:1;stroke:none;font-family:BLOKK Neue;-inkscape-font-specification:BLOKK Neue"
         d="m 9.78906,11 0,-0.859375 -1.28906,0 L 8.5,11 9.78906,11" />
      <path
         id="path26277"
         style="font-size:2px;font-style:normal;font-variant:normal;font-weight:normal;font-stretch:normal;line-height:100%;letter-spacing:0px;word-spacing:0px;opacity:0.2;fill:#000000;fill-opacity:1;stroke:none;font-family:BLOKK Neue;-inkscape-font-specification:BLOKK Neue"
         d="m 13.54687,11 0,-0.859375 -1.28906,0 0,0.859375 1.28906,0" />
      <path
         id="path26279"
         style="font-size:2px;font-style:normal;font-variant:normal;font-weight:normal;font-stretch:normal;line-height:100%;letter-spacing:0px;word-spacing:0px;opacity:0.2;fill:#000000;fill-opacity:1;stroke:none;font-family:BLOKK Neue;-inkscape-font-specification:BLOKK Neue"
         d="m 14.79687,11 0,-0.859375 -1.28906,0 0,0.859375 1.28906,0" />
      <path
         id="path26303"
         style="font-size:2px;font-style:normal;font-variant:normal;font-weight:normal;font-stretch:normal;line-height:100%;letter-spacing:0px;word-spacing:0px;opacity:0.2;fill:#000000;fill-opacity:1;stroke:none;font-family:BLOKK Neue;-inkscape-font-specification:BLOKK Neue"
         d="m 7.28906,13 0,-0.859375 -1.28906,0 L 6,13 7.28906,13" />
      <path
         id="path26305"
         style="font-size:2px;font-style:normal;font-variant:normal;font-weight:normal;font-stretch:normal;line-height:100%;letter-spacing:0px;word-spacing:0px;opacity:0.2;fill:#000000;fill-opacity:1;stroke:none;font-family:BLOKK Neue;-inkscape-font-specification:BLOKK Neue"
         d="m 8.53906,13 0,-0.859375 -1.28906,0 0,0.859375 1.28906,0" />
      <path
         id="path26307"
         style="font-size:2px;font-style:normal;font-variant:normal;font-weight:normal;font-stretch:normal;line-height:100%;letter-spacing:0px;word-spacing:0px;opacity:0.2;fill:#000000;fill-opacity:1;stroke:none;font-family:BLOKK Neue;-inkscape-font-specification:BLOKK Neue"
         d="m 9.78906,13 0,-0.859375 -1.28906,0 L 8.5,13 9.78906,13" />
      <path
         id="path26311"
         style="font-size:2px;font-style:normal;font-variant:normal;font-weight:normal;font-stretch:normal;line-height:100%;letter-spacing:0px;word-spacing:0px;opacity:0.2;fill:#000000;fill-opacity:1;stroke:none;font-family:BLOKK Neue;-inkscape-font-specification:BLOKK Neue"
         d="m 14.79687,13 0,-0.859375 -1.28906,0 0,0.859375 1.28906,0" />
      <path
         id="path26313"
         style="font-size:2px;font-style:normal;font-variant:normal;font-weight:normal;font-stretch:normal;line-height:100%;letter-spacing:0px;word-spacing:0px;opacity:0.2;fill:#000000;fill-opacity:1;stroke:none;font-family:BLOKK Neue;-inkscape-font-specification:BLOKK Neue"
         d="m 16.04687,13 0,-0.859375 -1.28906,0 0,0.859375 1.28906,0" />
      <path
         id="path26335"
         style="font-size:2px;font-style:normal;font-variant:normal;font-weight:normal;font-stretch:normal;line-height:100%;letter-spacing:0px;word-spacing:0px;opacity:0.2;fill:#000000;fill-opacity:1;stroke:none;font-family:BLOKK Neue;-inkscape-font-specification:BLOKK Neue"
         d="m 7.28906,15 0,-0.859375 -1.28906,0 L 6,15 7.28906,15" />
      <path
         id="path26337"
         style="font-size:2px;font-style:normal;font-variant:normal;font-weight:normal;font-stretch:normal;line-height:100%;letter-spacing:0px;word-spacing:0px;opacity:0.2;fill:#000000;fill-opacity:1;stroke:none;font-family:BLOKK Neue;-inkscape-font-specification:BLOKK Neue"
         d="m 8.53906,15 0,-0.859375 -1.28906,0 0,0.859375 1.28906,0" />
      <path
         id="path26339"
         style="font-size:2px;font-style:normal;font-variant:normal;font-weight:normal;font-stretch:normal;line-height:100%;letter-spacing:0px;word-spacing:0px;opacity:0.2;fill:#000000;fill-opacity:1;stroke:none;font-family:BLOKK Neue;-inkscape-font-specification:BLOKK Neue"
         d="m 9.78906,15 0,-0.859375 -1.28906,0 L 8.5,15 9.78906,15" />
      <path
         id="path26341"
         style="font-size:2px;font-style:normal;font-variant:normal;font-weight:normal;font-stretch:normal;line-height:100%;letter-spacing:0px;word-spacing:0px;opacity:0.2;fill:#000000;fill-opacity:1;stroke:none;font-family:BLOKK Neue;-inkscape-font-specification:BLOKK Neue"
         d="m 11.03906,15 0,-0.859375 -1.28906,0 0,0.859375 1.28906,0" />
      <path
         d="m 14.79687,3 0,-0.859375 -1.28906,0 0,0.859375 1.28906,0"
         style="font-size:2px;font-style:normal;font-variant:normal;font-weight:normal;font-stretch:normal;line-height:100%;letter-spacing:0px;word-spacing:0px;opacity:0.2;fill:#000000;fill-opacity:1;stroke:none;font-family:BLOKK Neue;-inkscape-font-specification:BLOKK Neue"
         id="path4457" />
      <path
         d="m 12.28906,5 0,-0.859375 -1.28906,0 L 11,5 12.28906,5"
         style="font-size:2px;font-style:normal;font-variant:normal;font-weight:normal;font-stretch:normal;line-height:100%;letter-spacing:0px;word-spacing:0px;opacity:0.2;fill:#000000;fill-opacity:1;stroke:none;font-family:BLOKK Neue;-inkscape-font-specification:BLOKK Neue"
         id="path4459" />
      <path
         d="m 11.03906,11 0,-0.859375 -1.28906,0 0,0.859375 1.28906,0"
         style="font-size:2px;font-style:normal;font-variant:normal;font-weight:normal;font-stretch:normal;line-height:100%;letter-spacing:0px;word-spacing:0px;opacity:0.2;fill:#000000;fill-opacity:1;stroke:none;font-family:BLOKK Neue;-inkscape-font-specification:BLOKK Neue"
         id="path4461" />
      <path
         d="m 13.54687,15 0,-0.859375 -1.28906,0 0,0.859375 1.28906,0"
         style="font-size:2px;font-style:normal;font-variant:normal;font-weight:normal;font-stretch:normal;line-height:100%;letter-spacing:0px;word-spacing:0px;opacity:0.2;fill:#000000;fill-opacity:1;stroke:none;font-family:BLOKK Neue;-inkscape-font-specification:BLOKK Neue"
         id="path4463" />
      <path
         d="m 12.28906,13 0,-0.859375 -1.28906,0 L 11,13 l 1.28906,0"
         style="font-size:2px;font-style:normal;font-variant:normal;font-weight:normal;font-stretch:normal;line-height:100%;letter-spacing:0px;word-spacing:0px;opacity:0.2;fill:#000000;fill-opacity:1;stroke:none;font-family:BLOKK Neue;-inkscape-font-specification:BLOKK Neue"
         id="path4465" />
      <path
         d="m 7.28906,17 0,-0.859375 -1.28906,0 L 6,17 7.28906,17"
         style="font-size:2px;font-style:normal;font-variant:normal;font-weight:normal;font-stretch:normal;line-height:100%;letter-spacing:0px;word-spacing:0px;opacity:0.2;fill:#000000;fill-opacity:1;stroke:none;font-family:BLOKK Neue;-inkscape-font-specification:BLOKK Neue"
         id="path4638" />
      <path
         d="m 8.53906,17 0,-0.859375 -1.28906,0 0,0.859375 1.28906,0"
         style="font-size:2px;font-style:normal;font-variant:normal;font-weight:normal;font-stretch:normal;line-height:100%;letter-spacing:0px;word-spacing:0px;opacity:0.2;fill:#000000;fill-opacity:1;stroke:none;font-family:BLOKK Neue;-inkscape-font-specification:BLOKK Neue"
         id="path4640" />
      <path
         d="m 11.03906,17 0,-0.859375 -1.28906,0 0,0.859375 1.28906,0"
         style="font-size:2px;font-style:normal;font-variant:normal;font-weight:normal;font-stretch:normal;line-height:100%;letter-spacing:0px;word-spacing:0px;opacity:0.2;fill:#000000;fill-opacity:1;stroke:none;font-family:BLOKK Neue;-inkscape-font-specification:BLOKK Neue"
         id="path4644" />
      <path
         id="path4646"
         style="font-size:2px;font-style:normal;font-variant:normal;font-weight:normal;font-stretch:normal;line-height:100%;letter-spacing:0px;word-spacing:0px;opacity:0.2;fill:#000000;fill-opacity:1;stroke:none;font-family:BLOKK Neue;-inkscape-font-specification:BLOKK Neue"
         d="m 13.54687,17 0,-0.859375 -1.28906,0 0,0.859375 1.28906,0" />
      <path
         id="path4648"
         style="font-size:2px;font-style:normal;font-variant:normal;font-weight:normal;font-stretch:normal;line-height:100%;letter-spacing:0px;word-spacing:0px;opacity:0.2;fill:#000000;fill-opacity:1;stroke:none;font-family:BLOKK Neue;-inkscape-font-specification:BLOKK Neue"
         d="m 12.28906,17 0,-0.859375 -1.28906,0 L 11,17 l 1.28906,0" />
      <path
         d="m 17.296492,5 0,-0.859375 -1.28906,0 0,0.859375 1.28906,0"
         style="font-size:2px;font-style:normal;font-variant:normal;font-weight:normal;font-stretch:normal;line-height:100%;letter-spacing:0px;word-spacing:0px;opacity:0.2;fill:#000000;fill-opacity:1;stroke:none;font-family:BLOKK Neue;-inkscape-font-specification:BLOKK Neue"
         id="path3501" />
      <path
         id="path3503"
         style="font-size:2px;font-style:normal;font-variant:normal;font-weight:normal;font-stretch:normal;line-height:100%;letter-spacing:0px;word-spacing:0px;opacity:0.2;fill:#000000;fill-opacity:1;stroke:none;font-family:BLOKK Neue;-inkscape-font-specification:BLOKK Neue"
         d="m 17.296492,7 0,-0.859375 -1.28906,0 0,0.859375 1.28906,0" />
      <path
         d="m 17.296492,9 0,-0.859375 -1.28906,0 0,0.859375 1.28906,0"
         style="font-size:2px;font-style:normal;font-variant:normal;font-weight:normal;font-stretch:normal;line-height:100%;letter-spacing:0px;word-spacing:0px;opacity:0.2;fill:#000000;fill-opacity:1;stroke:none;font-family:BLOKK Neue;-inkscape-font-specification:BLOKK Neue"
         id="path3505" />
      <path
         id="path3507"
         style="font-size:2px;font-style:normal;font-variant:normal;font-weight:normal;font-stretch:normal;line-height:100%;letter-spacing:0px;word-spacing:0px;opacity:0.2;fill:#000000;fill-opacity:1;stroke:none;font-family:BLOKK Neue;-inkscape-font-specification:BLOKK Neue"
         d="m 17.296492,11 0,-0.859375 -1.28906,0 0,0.859375 1.28906,0" />
      <path
         d="m 17.296492,13 0,-0.859375 -1.28906,0 0,0.859375 1.28906,0"
         style="font-size:2px;font-style:normal;font-variant:normal;font-weight:normal;font-stretch:normal;line-height:100%;letter-spacing:0px;word-spacing:0px;opacity:0.2;fill:#000000;fill-opacity:1;stroke:none;font-family:BLOKK Neue;-inkscape-font-specification:BLOKK Neue"
         id="path3509" />
      <path
         d="m 14.79687,15 0,-0.859375 -1.28906,0 0,0.859375 1.28906,0"
         style="font-size:2px;font-style:normal;font-variant:normal;font-weight:normal;font-stretch:normal;line-height:100%;letter-spacing:0px;word-spacing:0px;opacity:0.2;fill:#000000;fill-opacity:1;stroke:none;font-family:BLOKK Neue;-inkscape-font-specification:BLOKK Neue"
         id="path3511" />
      <path
         d="m 16.04687,17 0,-0.859375 -1.28906,0 0,0.859375 1.28906,0"
         style="font-size:2px;font-style:normal;font-variant:normal;font-weight:normal;font-stretch:normal;line-height:100%;letter-spacing:0px;word-spacing:0px;opacity:0.2;fill:#000000;fill-opacity:1;stroke:none;font-family:BLOKK Neue;-inkscape-font-specification:BLOKK Neue"
         id="path3513" />
      <path
         d="m 16.04687,15 0,-0.859375 -1.28906,0 0,0.859375 1.28906,0"
         style="font-size:2px;font-style:normal;font-variant:normal;font-weight:normal;font-stretch:normal;line-height:100%;letter-spacing:0px;word-spacing:0px;opacity:0.2;fill:#000000;fill-opacity:1;stroke:none;font-family:BLOKK Neue;-inkscape-font-specification:BLOKK Neue"
         id="path3515" />
      <path
         id="path3517"
         style="font-size:2px;font-style:normal;font-variant:normal;font-weight:normal;font-stretch:normal;line-height:100%;letter-spacing:0px;word-spacing:0px;opacity:0.2;fill:#000000;fill-opacity:1;stroke:none;font-family:BLOKK Neue;-inkscape-font-specification:BLOKK Neue"
         d="m 17.296492,3 0,-0.859375 -1.28906,0 0,0.859375 1.28906,0" />
    </g>
  </g>
  <g
     transform="translate(0,2)"
     id="layer2">
    <path
       id="path3410"
       transform="translate(0,-2)"
       d="M 22.5 8.46875 L 6.5 20.46875 L 22.5 20.46875 L 22.5 8.46875 z M 19.5 14.5 L 19.5 17.46875 L 15.53125 17.46875 L 19.5 14.5 z "
       style="opacity:0.5;fill:#a348b1;fill-opacity:1;fill-rule:evenodd;stroke:none" />
    <rect
       transform="scale(-1,1)"
       y="19"
       x="-21"
       height="1"
       width="15"
       id="rect3910"
       style="opacity:0.4;fill:#a348b1;fill-opacity:1;stroke:none" />
    <path
       style="opacity:0.41;fill:none;fill-opacity:1;fill-rule:evenodd;stroke:#4a0056;stroke-opacity:1"
       d="M 22.5 8.46875 L 6.5 20.46875 L 22.5 20.46875 L 22.5 8.46875 z M 19.5 14.5 L 19.5 17.46875 L 15.53125 17.46875 L 19.5 14.5 z "
       transform="translate(0,-2)"
       id="path4161" />
    <path
       id="path4163"
       transform="translate(0,-2)"
       d="M 22 9.5 L 8.03125 19.96875 L 9.375 19.96875 L 22 10.5 L 22 9.5 z M 15.34375 17.96875 L 15.21875 18.0625 L 14.03125 18.96875 L 15.53125 18.96875 L 19.5 18.96875 L 20 18.96875 L 20 18.46875 L 20 17.96875 L 19.5 17.96875 L 15.53125 17.96875 L 15.34375 17.96875 z "
       style="opacity:0.4;fill:#ffffff;fill-opacity:1;fill-rule:evenodd;stroke:none" />
  </g>
</svg>
