<?xml version="1.0" encoding="UTF-8" standalone="no"?>
<svg xmlns="http://www.w3.org/2000/svg" xmlns:xlink="http://www.w3.org/1999/xlink" xmlns:sodipodi="http://sodipodi.sourceforge.net/DTD/sodipodi-0.dtd" xmlns:inkscape="http://www.inkscape.org/namespaces/inkscape" version="1.1" width="24" height="24">
 <defs id="defs3830">
  <linearGradient id="linearGradient3958">
   <stop id="stop3960" stop-color="#e8efff"/>
   <stop offset="1" id="stop3963" stop-color="#1166c9"/>
  </linearGradient>
  <linearGradient id="linearGradient3916">
   <stop id="stop3918" stop-color="#232323"/>
   <stop id="stop3926" offset="0.8" stop-color="#535353"/>
   <stop id="stop3924" offset="0.8" stop-color="#676767"/>
   <stop offset="1" id="stop3920" stop-color="#676767"/>
  </linearGradient>
  <linearGradient inkscape:collect="always" id="linearGradient3801">
   <stop id="stop3803" stop-color="#ffffff"/>
   <stop offset="1" id="stop3805" stop-color="#ffffff" stop-opacity="0"/>
  </linearGradient>
  <linearGradient id="linearGradient3977">
   <stop id="stop3979" stop-color="#ffffff"/>
   <stop id="stop3981" offset="0.036" stop-color="#ffffff" stop-opacity="0.235"/>
   <stop id="stop3983" offset="0.951" stop-color="#ffffff" stop-opacity="0.157"/>
   <stop id="stop3985" offset="1" stop-color="#ffffff" stop-opacity="0.392"/>
  </linearGradient>
  <linearGradient id="linearGradient3600-4">
   <stop id="stop3602-7" stop-color="#f4f4f4"/>
   <stop id="stop3604-6" offset="1" stop-color="#dbdbdb"/>
  </linearGradient>
  <linearGradient y1="5.564" x2="0" y2="43" id="linearGradient3000" xlink:href="#linearGradient3977" gradientUnits="userSpaceOnUse" gradientTransform="matrix(0.40540511,0,0,0.51351253,1.2696879,-1.32431)"/>
  <linearGradient y1="0.985" x2="0" y2="47.01" id="linearGradient3003" xlink:href="#linearGradient3988-5" gradientUnits="userSpaceOnUse" gradientTransform="matrix(0.48571543,0,0,-0.45629579,-0.6571703,22.651132)"/>
  <linearGradient inkscape:collect="always" xlink:href="#linearGradient3988-5" id="linearGradient3158" gradientUnits="userSpaceOnUse" gradientTransform="matrix(0.175,0,0,0.175,-1.20002,-6.0000326)" y1="280" x2="0" y2="40"/>
  <linearGradient id="linearGradient3988-5">
   <stop id="stop3990-5" stop-color="#ededed"/>
   <stop offset="1" id="stop3992-0" stop-color="#fafafa"/>
  </linearGradient>
  <linearGradient inkscape:collect="always" xlink:href="#linearGradient3801" id="linearGradient3807" y1="0" x2="0" y2="22" gradientUnits="userSpaceOnUse"/>
  <radialGradient inkscape:collect="always" xlink:href="#linearGradient6557" id="radialGradient3981" gradientUnits="userSpaceOnUse" cx="311.47" cy="828.53" r="3.281"/>
  <linearGradient id="linearGradient6557">
   <stop id="stop6559" stop-color="#fce94f"/>
   <stop id="stop6565" offset="0.673" stop-color="#fce94f"/>
   <stop offset="1" id="stop6561" stop-color="#fce94f" stop-opacity="0"/>
  </linearGradient>
  <linearGradient id="linearGradient6620">
   <stop id="stop6622" stop-color="#ffffff"/>
   <stop offset="0.33" id="stop6624" stop-color="#ffffff"/>
   <stop id="stop6626" offset="1" stop-color="#fce94f"/>
  </linearGradient>
  <linearGradient inkscape:collect="always" id="linearGradient3952">
   <stop id="stop3954"/>
   <stop offset="1" id="stop3956" stop-opacity="0"/>
  </linearGradient>
  <linearGradient inkscape:collect="always" xlink:href="#linearGradient3960" id="linearGradient3051" gradientUnits="userSpaceOnUse" gradientTransform="matrix(1.1428571,0,0,1,-11.857143,2)" y1="45" x2="0" y2="42"/>
  <linearGradient id="linearGradient3960">
   <stop id="stop3962" stop-opacity="0"/>
   <stop id="stop3970" offset="0.5"/>
   <stop offset="1" id="stop3964" stop-opacity="0"/>
  </linearGradient>
  <linearGradient inkscape:collect="always" xlink:href="#linearGradient3960" id="linearGradient3320" gradientUnits="userSpaceOnUse" gradientTransform="translate(-9,-23)" y1="45" x2="0" y2="42"/>
  <radialGradient inkscape:collect="always" xlink:href="#linearGradient3952" id="radialGradient3323" gradientUnits="userSpaceOnUse" gradientTransform="matrix(1,0,0,0.75,-5,-12.125)" cx="9" cy="43.5" r="2"/>
  <radialGradient inkscape:collect="always" xlink:href="#linearGradient3952" id="radialGradient3326" gradientUnits="userSpaceOnUse" gradientTransform="matrix(1,0,0,0.75,-22,-12.125)" cx="40" cy="43.5" r="2"/>
  <radialGradient inkscape:collect="always" xlink:href="#linearGradient3952" id="radialGradient4265" gradientUnits="userSpaceOnUse" gradientTransform="matrix(1,0,0,0.75,-3,-12.125)" cx="9" cy="43.5" r="2"/>
  <linearGradient inkscape:collect="always" xlink:href="#linearGradient3801" id="linearGradient4333" gradientUnits="userSpaceOnUse" y1="0" x2="0" y2="22" gradientTransform="translate(-3,-2)"/>
  <linearGradient inkscape:collect="always" xlink:href="#linearGradient3988-5" id="linearGradient4338" gradientUnits="userSpaceOnUse" gradientTransform="matrix(0.48571543,0,0,-0.45629579,-3.6571703,20.651132)" y1="0.985" x2="0" y2="47.01"/>
  <linearGradient inkscape:collect="always" xlink:href="#linearGradient3960" id="linearGradient4341" gradientUnits="userSpaceOnUse" gradientTransform="translate(-12,-25)" y1="45" x2="0" y2="42"/>
  <radialGradient inkscape:collect="always" xlink:href="#linearGradient3952" id="radialGradient4344" gradientUnits="userSpaceOnUse" gradientTransform="matrix(1,0,0,0.75,-6,-14.125)" cx="9" cy="43.5" r="2"/>
  <radialGradient inkscape:collect="always" xlink:href="#linearGradient3952" id="radialGradient4347" gradientUnits="userSpaceOnUse" gradientTransform="matrix(1,0,0,0.75,-25,-14.125)" cx="40" cy="43.5" r="2"/>
  <linearGradient inkscape:collect="always" xlink:href="#linearGradient3801" id="linearGradient3129" gradientUnits="userSpaceOnUse" gradientTransform="translate(0,-5)" y1="0" x2="0" y2="22"/>
  <linearGradient inkscape:collect="always" xlink:href="#linearGradient3988-5" id="linearGradient3134" gradientUnits="userSpaceOnUse" gradientTransform="matrix(0.48571543,0,0,-0.25856743,-0.6571703,10.218952)" y1="0.985" x2="0" y2="47.01"/>
  <linearGradient inkscape:collect="always" xlink:href="#linearGradient3916" id="linearGradient3922" y1="19" x2="0" y2="9" gradientUnits="userSpaceOnUse" gradientTransform="translate(1,-1)"/>
  <linearGradient inkscape:collect="always" xlink:href="#linearGradient3988-5" id="linearGradient4032" gradientUnits="userSpaceOnUse" gradientTransform="matrix(0.48571543,0,0,-0.25856743,-0.6571312,24.718969)" y1="0.985" x2="0" y2="47.01"/>
 </defs>
 <metadata id="metadata3833"/>
 <g inkscape:groupmode="layer" id="layer1" inkscape:label="Background" transform="translate(0,2)">
  <path sodipodi:nodetypes="ccccc" inkscape:connector-curvature="0" id="path4291" d="m 6,1 0,1 c 4.157995,7.52e-5 11.292656,-7.52e-5 12,0 l 0,-1 c -0.707344,-7.52e-5 -7.842005,7.52e-5 -12,0 z" opacity="0.4" fill="#ffffff"/>
  <path sodipodi:nodetypes="cccccccccc" inkscape:connector-curvature="0" id="path4293" d="M 6,1 6,15 18,15 18,1 z M 7,2 17,2 17,14 7,14 z" opacity="0.4" fill="url(#linearGradient3129)"/>
  <path d="m 4.78125,7.5 -0.125,0.15625 -2,2 L 2.5,9.78125 2.5,10 l 0,7 0,0.5 0.5,0 18,0 0.5,0 0,-0.5 0,-7 0,-0.21875 -0.15625,-0.125 -2,-2 L 19.21875,7.5 19,7.5 5,7.5 z" id="rect3145" inkscape:connector-curvature="0" sodipodi:nodetypes="ccccccccccccccccccc" fill="url(#linearGradient3922)"/>
  <path id="path3935" d="m 4.78125,7.5 -0.125,0.15625 -2,2 L 2.5,9.78125 2.5,10 l 0,7 0,0.5 0.5,0 18,0 0.5,0 0,-0.5 0,-7 0,-0.21875 -0.15625,-0.125 -2,-2 L 19.21875,7.5 19,7.5 5,7.5 z" inkscape:connector-curvature="0" sodipodi:nodetypes="ccccccccccccccccccc" opacity="0.71" fill="none" stroke="#000000"/>
  <path sodipodi:nodetypes="ccccsc" id="path4287" inkscape:connector-curvature="0" d="M 5.4999609,9 C 9.3955418,9 18.50002,8.9992064 18.50002,8.9992064 l 2.1e-5,-8.4992434 c 0,0 -7.333386,0 -13.0000801,0 0,3.9666667 0,4.5333346 0,8.5000021 z" fill="url(#linearGradient3134)"/>
  <rect id="rect3937" width="18" height="1" x="3" y="10" opacity="0.2" fill="#ffffff"/>
  <path d="M 5.34375,0 A 0.50001093,0.50001093 0 0 0 5,0.5 L 5,7 6,7 6,1 c 3.9461392,9.56e-5 11.37307,-9.56e-5 12,0 l 0,6 1,0 0,-6.5 A 0.50001093,0.50001093 0 0 0 18.5,0 L 5.5,0 A 0.50001093,0.50001093 0 0 0 5.40625,0 0.50001093,0.50001093 0 0 0 5.34375,0 z" id="path4289" inkscape:connector-curvature="0" opacity="0.41" color="#000000"/>
  <rect id="rect3948" width="13" height="1" x="5.5" y="9" opacity="0.4"/>
  <rect id="rect3950" width="14" height="1" x="5" y="-16" transform="scale(1,-1)" fill="#505050"/>
  <rect id="rect3952" width="12" height="1" x="6" y="14" opacity="0.2"/>
  <rect y="16" x="5" height="1" width="14" id="rect3954" opacity="0.4"/>
  <path d="m 19,19.5 -0.49992,-4.50002 c 0,0 -7.333386,0 -13.00008,0 L 5,19.5 z" inkscape:connector-curvature="0" id="path4030" sodipodi:nodetypes="ccccc" fill="url(#linearGradient4032)"/>
  <path d="m 5,14.875 -0.5,4.5 C 4.4225572,19.67445 4.6908541,20.009821 5,20 l 14,0 c 0.309146,0.0098 0.577443,-0.32555 0.5,-0.625 l -0.5,-4.5 0,0.125 -0.90625,0 0,0.5 0,0 0.25,3.5 -0.25,0 0,0.03125 L 7,19.03125 7,19 l -1.34375,0 0.25,-3.5 0,0 0,-0.5 L 5,15 z" id="path4034" inkscape:connector-curvature="0" sodipodi:nodetypes="ccccccccccccccccccccc" opacity="0.61" color="#000000"/>
  <rect id="rect4046" width="9" height="1" x="7" y="16" opacity="0.2"/>
 </g>
</svg>
