<?xml version="1.0" encoding="UTF-8" standalone="no"?>
<svg
   xmlns:dc="http://purl.org/dc/elements/1.1/"
   xmlns:cc="http://creativecommons.org/ns#"
   xmlns:rdf="http://www.w3.org/1999/02/22-rdf-syntax-ns#"
   xmlns:svg="http://www.w3.org/2000/svg"
   xmlns="http://www.w3.org/2000/svg"
   xmlns:xlink="http://www.w3.org/1999/xlink"
   id="svg3828"
   height="24"
   width="24"
   version="1.1">
  <defs
     id="defs3830">
    <linearGradient
       id="linearGradient3916">
      <stop
         id="stop3918"
         offset="0"
         style="stop-color:#232323;stop-opacity:1;" />
      <stop
         style="stop-color:#535353;stop-opacity:1;"
         offset="0.80000001"
         id="stop3926" />
      <stop
         style="stop-color:#676767;stop-opacity:1;"
         offset="0.80000001"
         id="stop3924" />
      <stop
         id="stop3920"
         offset="1"
         style="stop-color:#676767;stop-opacity:1;" />
    </linearGradient>
    <linearGradient
       id="linearGradient3801">
      <stop
         id="stop3803"
         offset="0"
         style="stop-color:#ffffff;stop-opacity:1;" />
      <stop
         id="stop3805"
         offset="1"
         style="stop-color:#ffffff;stop-opacity:0;" />
    </linearGradient>
    <linearGradient
       id="linearGradient3988-5">
      <stop
         id="stop3990-5"
         offset="0"
         style="stop-color:#ededed;stop-opacity:1;" />
      <stop
         id="stop3992-0"
         offset="1"
         style="stop-color:#fafafa;stop-opacity:1;" />
    </linearGradient>
    <linearGradient
       y2="22"
       x2="10"
       y1="0"
       x1="10"
       gradientTransform="translate(-1,-4)"
       gradientUnits="userSpaceOnUse"
       id="linearGradient3129"
       xlink:href="#linearGradient3801" />
    <linearGradient
       y2="47.013336"
       x2="25.132275"
       y1="0.98520643"
       x1="25.132275"
       gradientTransform="matrix(0.48571543,0,0,-0.25856743,-1.6571703,11.218952)"
       gradientUnits="userSpaceOnUse"
       id="linearGradient3134"
       xlink:href="#linearGradient3988-5" />
    <linearGradient
       gradientUnits="userSpaceOnUse"
       y2="9"
       x2="11"
       y1="19"
       x1="11"
       id="linearGradient3922"
       xlink:href="#linearGradient3916" />
    <linearGradient
       y2="47.013336"
       x2="25.132275"
       y1="0.98520643"
       x1="25.132275"
       gradientTransform="matrix(0.48571543,0,0,-0.25856743,-1.6571312,25.718969)"
       gradientUnits="userSpaceOnUse"
       id="linearGradient4032"
       xlink:href="#linearGradient3988-5" />
  </defs>
  <metadata
     id="metadata3833">
    <rdf:RDF>
      <cc:Work
         rdf:about="">
        <dc:format>image/svg+xml</dc:format>
        <dc:type
           rdf:resource="http://purl.org/dc/dcmitype/StillImage" />
        <dc:title />
      </cc:Work>
    </rdf:RDF>
  </metadata>
  <g
     transform="translate(0,2)"
     style="display:inline"
     id="layer1">
    <path
       style="opacity:0.4;fill:#ffffff;fill-opacity:1;stroke:none;display:inline"
       d="m 5,1 0,1 c 4.157995,7.52e-5 13.292656,-7.52e-5 14,0 l 0,-1 c -0.707344,-7.52e-5 -9.842005,7.52e-5 -14,0 z"
       id="path4291" />
    <path
       style="opacity:0.4;fill:url(#linearGradient3129);fill-opacity:1"
       d="M 5,1 5,16 19,16 19,1 z M 6,2 18,2 18,15 6,15 z"
       id="path4293" />
    <path
       id="rect3145"
       d="m 3.78125,8.5 -0.125,0.15625 -2,2 L 1.5,10.78125 1.5,11 l 0,7 0,0.5 0.5,0 20,0 0.5,0 0,-0.5 0,-7 0,-0.21875 -0.15625,-0.125 -2,-2 L 20.21875,8.5 20,8.5 4,8.5 z"
       style="fill:url(#linearGradient3922);fill-opacity:1;stroke:none" />
    <path
       style="opacity:0.70999995;fill:none;stroke:#000000;stroke-opacity:1"
       d="m 3.78125,8.5 -0.125,0.15625 -2,2 L 1.5,10.78125 1.5,11 l 0,7 0,0.5 0.5,0 20,0 0.5,0 0,-0.5 0,-7 0,-0.21875 -0.15625,-0.125 -2,-2 L 20.21875,8.5 20,8.5 4,8.5 z"
       id="path3935" />
    <path
       d="M 4.4999609,10 C 8.3955418,10 19.50002,9.9992064 19.50002,9.9992064 l 2.1e-5,-9.4992434 c 0,0 -9.333386,0 -15.0000801,0 0,3.9666667 0,5.5333346 0,9.5000021 z"
       id="path4287"
       style="fill:url(#linearGradient3134);fill-opacity:1;stroke:none;display:inline" />
    <path
       id="rect3937"
       d="m 2,11 20,0 0,1 -20,0 z"
       style="opacity:0.2;fill:#ffffff;fill-opacity:1;stroke:none" />
    <path
       id="path4289"
       d="M 4.34375,0 C 4.1372199,0.06764995 3.9892075,0.28294071 4,0.5 L 4,8 5,8 5,1 c 3.9461392,9.56e-5 13.37307,-9.56e-5 14,0 l 0,7 1,0 0,-7.5 C 19.999994,0.23820218 19.761798,5.72e-6 19.5,0 L 4.5,0 C 4.468842,-0.00293 4.437408,-0.00293 4.40625,0 4.385444,-0.0013 4.364556,-0.0013 4.34375,0 z"
       style="font-size:medium;font-style:normal;font-variant:normal;font-weight:normal;font-stretch:normal;text-indent:0;text-align:start;text-decoration:none;line-height:normal;letter-spacing:normal;word-spacing:normal;text-transform:none;direction:ltr;block-progression:tb;writing-mode:lr-tb;text-anchor:start;baseline-shift:baseline;opacity:0.41000001;color:#000000;fill:#000000;fill-opacity:1;stroke:none;stroke-width:0.99992186;marker:none;visibility:visible;display:inline;overflow:visible;enable-background:accumulate;font-family:Sans;-inkscape-font-specification:Sans" />
    <path
       id="rect3948"
       d="m 4.5,10 15,0 0,1 -15,0 z"
       style="opacity:0.4;fill:#000000;fill-opacity:1;stroke:none" />
    <path
       id="rect3950"
       d="m 4,17 16,0 0,-1 -16,0 z"
       style="fill:#505050;fill-opacity:1;stroke:none" />
    <path
       id="rect3952"
       d="m 5,15 14,0 0,1 -14,0 z"
       style="opacity:0.2;fill:#000000;fill-opacity:1;stroke:none" />
    <path
       id="rect3954"
       d="m 4,17 16,0 0,1 -16,0 z"
       style="opacity:0.4;fill:#000000;fill-opacity:1;stroke:none" />
    <path
       style="fill:url(#linearGradient4032);fill-opacity:1;stroke:none;display:inline"
       id="path4030"
       d="m 20,20.5 -0.49992,-4.50002 c 0,0 -9.333386,0 -15.00008,0 L 4,20.5 z" />
    <path
       id="path4034"
       d="m 4,15.875 -0.5,4.5 C 3.4225572,20.67445 3.6908541,21.009821 4,21 l 16,0 c 0.309146,0.0098 0.577443,-0.32555 0.5,-0.625 l -0.5,-4.5 0,0.125 -0.90625,0 0,0.5 0,0 0.25,3.5 -0.25,0 0,0.03125 L 6,20.03125 6,20 l -1.34375,0 0.25,-3.5 0,0 0,-0.5 L 4,16 z"
       style="font-size:medium;font-style:normal;font-variant:normal;font-weight:normal;font-stretch:normal;text-indent:0;text-align:start;text-decoration:none;line-height:normal;letter-spacing:normal;word-spacing:normal;text-transform:none;direction:ltr;block-progression:tb;writing-mode:lr-tb;text-anchor:start;baseline-shift:baseline;opacity:0.61000001;color:#000000;fill:#000000;fill-opacity:1;stroke:none;stroke-width:1;marker:none;visibility:visible;display:inline;overflow:visible;enable-background:accumulate;font-family:Sans;-inkscape-font-specification:Sans" />
    <path
       id="rect4046"
       d="m 6,17 11,0 0,1 -11,0 z"
       style="opacity:0.2;fill:#000000;fill-opacity:1;stroke:none" />
  </g>
  <g
     transform="translate(0,2)"
     id="layer2" />
</svg>
