<?xml version="1.0" encoding="UTF-8" standalone="no"?>
<svg
   xmlns:dc="http://purl.org/dc/elements/1.1/"
   xmlns:cc="http://creativecommons.org/ns#"
   xmlns:rdf="http://www.w3.org/1999/02/22-rdf-syntax-ns#"
   xmlns:svg="http://www.w3.org/2000/svg"
   xmlns="http://www.w3.org/2000/svg"
   xmlns:xlink="http://www.w3.org/1999/xlink"
   version="1.1"
   id="svg3495"
   height="24"
   width="24">
  <defs
     id="defs3497">
    <linearGradient
       id="linearGradient3760">
      <stop
         id="stop3762"
         offset="0"
         style="stop-color:#666666;stop-opacity:1;" />
      <stop
         id="stop3764"
         offset="1"
         style="stop-color:#555555;stop-opacity:1;" />
    </linearGradient>
    <linearGradient
       gradientTransform="matrix(0.78328052,0,0,-0.78328052,16.776836,39.570976)"
       y2="-9.4844999"
       x2="-4.8218179"
       y1="18.602501"
       x1="-4.8218179"
       gradientUnits="userSpaceOnUse"
       id="linearGradient3810"
       xlink:href="#linearGradient3760" />
  </defs>
  <metadata
     id="metadata3500">
    <rdf:RDF>
      <cc:Work
         rdf:about="">
        <dc:format>image/svg+xml</dc:format>
        <dc:type
           rdf:resource="http://purl.org/dc/dcmitype/StillImage" />
        <dc:title />
      </cc:Work>
    </rdf:RDF>
  </metadata>
  <g
     transform="translate(0,-24)"
     id="layer1">
    <path
       id="path4623"
       d="m 9.25,29.5 -6.5,6.53125 6.5,6.46875 12.25,0 0,-13 -12.25,0 z"
       style="fill:url(#linearGradient3810);fill-opacity:1;fill-rule:nonzero;stroke:none" />
    <g
       style="opacity:0.1;fill:#ffffff;fill-opacity:1"
       id="g3800"
       transform="matrix(0.78328052,0,0,-0.78328052,15.776836,39.570976)" />
    <path
       style="opacity:0.61000001;fill:none;stroke:#000000;stroke-opacity:1"
       d="m 9.25,29.5 -6.5,6.53125 6.5,6.46875 12.25,0 0,-13 -12.25,0 z"
       id="path3779" />
    <path
       id="path3781"
       d="m 9.4375,30 -6,6.03125 0.5,0.5 L 9.4375,31 21,31 21,30 9.4375,30 z"
       style="opacity:0.2;fill:#ffffff;fill-opacity:1;fill-rule:nonzero;stroke:none" />
  </g>
  <g
     transform="translate(0,2)"
     id="layer2">
    <path
       style="opacity:0.3;color:#000000;fill:#000000;fill-opacity:1;fill-rule:nonzero;stroke:none;stroke-width:2;marker:none;visibility:visible;display:inline;overflow:visible;enable-background:new"
       d="m 12,6 0,1 c 0,0.27614 0.100286,0.53778 0.28125,0.71875 L 13.562503,9 12.28125,10.28125 C 12.100286,10.46222 12,10.72386 12,11 l 0,1 1,0 c 0.276142,0 0.537786,-0.10028 0.71875,-0.28125 l 1.281253,-1.28125 1.281247,1.28125 C 16.462214,11.89972 16.723858,12 17,12 l 1,0 0,-1 c 0,0 -0.100286,-0.53778 -0.28125,-0.71875 L 16.437503,9 17.71875,7.71875 C 17.899714,7.53778 18.014986,7.275733 18,7 L 18,6 17,6 C 16.723858,6 16.462214,6.10028 16.28125,6.28125 L 15.000003,7.5625 13.71875,6.28125 C 13.537786,6.10028 13.275667,6.0161869 13,6 z"
       id="path3797" />
    <path
       id="path5757"
       d="m 12,7 0,1 c 0,0.27614 0.100286,0.53778 0.28125,0.71875 L 13.562503,10 12.28125,11.28125 C 12.100286,11.46222 12,11.72386 12,12 l 0,1 1,0 c 0.276142,0 0.537786,-0.10028 0.71875,-0.28125 l 1.281253,-1.28125 1.281247,1.28125 C 16.462214,12.89972 16.723858,13 17,13 l 1,0 0,-1 c 0,0 -0.100286,-0.53778 -0.28125,-0.71875 L 16.437503,10 17.71875,8.71875 C 17.899714,8.53778 18.014986,8.275733 18,8 L 18,7 17,7 C 16.723858,7 16.462214,7.10028 16.28125,7.28125 L 15.000003,8.5625 13.71875,7.28125 C 13.537786,7.10028 13.275667,7.0161869 13,7 z"
       style="color:#000000;fill:#ffffff;fill-opacity:1;fill-rule:nonzero;stroke:none;stroke-width:2;marker:none;visibility:visible;display:inline;overflow:visible;enable-background:new" />
  </g>
</svg>
