<?xml version="1.0" encoding="UTF-8" standalone="no"?>
<svg xmlns="http://www.w3.org/2000/svg" xmlns:xlink="http://www.w3.org/1999/xlink" xmlns:sodipodi="http://sodipodi.sourceforge.net/DTD/sodipodi-0.dtd" xmlns:inkscape="http://www.inkscape.org/namespaces/inkscape" version="1.1" width="24" height="24">
 <defs id="defs3830">
  <linearGradient inkscape:collect="always" id="linearGradient3971">
   <stop id="stop3973"/>
   <stop offset="1" id="stop3975" stop-opacity="0"/>
  </linearGradient>
  <linearGradient inkscape:collect="always" id="linearGradient3801">
   <stop id="stop3803" stop-color="#ffffff"/>
   <stop offset="1" id="stop3805" stop-color="#ffffff" stop-opacity="0"/>
  </linearGradient>
  <linearGradient id="linearGradient3977">
   <stop id="stop3979" stop-color="#ffffff"/>
   <stop id="stop3981" offset="0.036" stop-color="#ffffff" stop-opacity="0.235"/>
   <stop id="stop3983" offset="0.951" stop-color="#ffffff" stop-opacity="0.157"/>
   <stop id="stop3985" offset="1" stop-color="#ffffff" stop-opacity="0.392"/>
  </linearGradient>
  <linearGradient id="linearGradient3600-4">
   <stop id="stop3602-7" stop-color="#f4f4f4"/>
   <stop id="stop3604-6" offset="1" stop-color="#dbdbdb"/>
  </linearGradient>
  <linearGradient y1="5.564" x2="0" y2="43" id="linearGradient3000" xlink:href="#linearGradient3977" gradientUnits="userSpaceOnUse" gradientTransform="matrix(0.40540511,0,0,0.51351253,1.2696879,-1.32431)"/>
  <linearGradient y1="0.985" x2="0" y2="47.01" id="linearGradient3003" xlink:href="#linearGradient3988-5" gradientUnits="userSpaceOnUse" gradientTransform="matrix(0.48571543,0,0,-0.45629579,-0.6571703,22.651132)"/>
  <linearGradient inkscape:collect="always" xlink:href="#linearGradient3988-5" id="linearGradient3158" gradientUnits="userSpaceOnUse" gradientTransform="matrix(0.175,0,0,0.175,-1.20002,-6.0000326)" y1="280" x2="0" y2="40"/>
  <linearGradient id="linearGradient3988-5">
   <stop id="stop3990-5" stop-color="#ededed"/>
   <stop offset="1" id="stop3992-0" stop-color="#fafafa"/>
  </linearGradient>
  <linearGradient inkscape:collect="always" xlink:href="#linearGradient3801" id="linearGradient3807" y1="0" x2="0" y2="22" gradientUnits="userSpaceOnUse"/>
  <radialGradient inkscape:collect="always" xlink:href="#linearGradient6557" id="radialGradient3981" gradientUnits="userSpaceOnUse" cx="311.47" cy="828.53" r="3.281"/>
  <linearGradient id="linearGradient6557">
   <stop id="stop6559" stop-color="#fce94f"/>
   <stop id="stop6565" offset="0.673" stop-color="#fce94f"/>
   <stop offset="1" id="stop6561" stop-color="#fce94f" stop-opacity="0"/>
  </linearGradient>
  <linearGradient id="linearGradient6620">
   <stop id="stop6622" stop-color="#ffffff"/>
   <stop offset="0.33" id="stop6624" stop-color="#ffffff"/>
   <stop id="stop6626" offset="1" stop-color="#fce94f"/>
  </linearGradient>
  <linearGradient inkscape:collect="always" xlink:href="#linearGradient3960" id="linearGradient3051" gradientUnits="userSpaceOnUse" gradientTransform="matrix(1.1428571,0,0,1,-11.857143,2)" y1="45" x2="0" y2="42"/>
  <linearGradient id="linearGradient3960">
   <stop id="stop3962" stop-opacity="0"/>
   <stop id="stop3970" offset="0.5"/>
   <stop offset="1" id="stop3964" stop-opacity="0"/>
  </linearGradient>
  <linearGradient inkscape:collect="always" xlink:href="#linearGradient3960" id="linearGradient3320" gradientUnits="userSpaceOnUse" gradientTransform="translate(-9,-23)" y1="45" x2="0" y2="42"/>
  <radialGradient inkscape:collect="always" xlink:href="#linearGradient3971" id="radialGradient3323" gradientUnits="userSpaceOnUse" gradientTransform="matrix(1,0,0,0.75,-5,-12.125)" cx="9" cy="43.5" r="2"/>
  <radialGradient inkscape:collect="always" xlink:href="#linearGradient3971" id="radialGradient3326" gradientUnits="userSpaceOnUse" gradientTransform="matrix(1,0,0,0.75,-22,-12.125)" cx="40" cy="43.5" r="2"/>
  <radialGradient inkscape:collect="always" xlink:href="#linearGradient3971" id="radialGradient4265" gradientUnits="userSpaceOnUse" gradientTransform="matrix(1,0,0,0.75,-3,-12.125)" cx="9" cy="43.5" r="2"/>
  <linearGradient inkscape:collect="always" xlink:href="#linearGradient3988-5" id="linearGradient4321" gradientUnits="userSpaceOnUse" gradientTransform="matrix(0.48571543,0,0,-0.45629579,0.3428297,22.651132)" y1="0.985" x2="0" y2="47.01"/>
  <radialGradient inkscape:collect="always" xlink:href="#linearGradient3971" id="radialGradient4327" gradientUnits="userSpaceOnUse" gradientTransform="matrix(1,0,0,0.75,-2,-12.125)" cx="9" cy="43.5" r="2"/>
  <radialGradient inkscape:collect="always" xlink:href="#linearGradient3971" id="radialGradient4330" gradientUnits="userSpaceOnUse" gradientTransform="matrix(1,0,0,0.75,-21,-12.125)" cx="40" cy="43.5" r="2"/>
  <linearGradient inkscape:collect="always" xlink:href="#linearGradient3801" id="linearGradient4333" gradientUnits="userSpaceOnUse" y1="0" x2="0" y2="22" gradientTransform="translate(-3,-2)"/>
  <linearGradient inkscape:collect="always" xlink:href="#linearGradient3988-5" id="linearGradient4338" gradientUnits="userSpaceOnUse" gradientTransform="matrix(0.48571543,0,0,-0.45629579,-3.6571703,20.651132)" y1="0.985" x2="0" y2="47.01"/>
  <linearGradient inkscape:collect="always" xlink:href="#linearGradient3960" id="linearGradient4341" gradientUnits="userSpaceOnUse" gradientTransform="translate(-12,-25)" y1="45" x2="0" y2="42"/>
  <radialGradient inkscape:collect="always" xlink:href="#linearGradient3971" id="radialGradient4344" gradientUnits="userSpaceOnUse" gradientTransform="matrix(1,0,0,0.75,-6,-14.125)" cx="9" cy="43.5" r="2"/>
  <radialGradient inkscape:collect="always" xlink:href="#linearGradient3971" id="radialGradient4347" gradientUnits="userSpaceOnUse" gradientTransform="matrix(1,0,0,0.75,-25,-14.125)" cx="40" cy="43.5" r="2"/>
  <linearGradient inkscape:collect="always" xlink:href="#linearGradient3906" id="linearGradient4045" gradientUnits="userSpaceOnUse" y1="16" x2="0" y2="6" gradientTransform="matrix(0,-1,1,0,3.510369,24.994816)"/>
  <linearGradient id="linearGradient3906">
   <stop id="stop3908" stop-color="#b4b4b4"/>
   <stop offset="1" id="stop3910" stop-color="#f7f7f7"/>
  </linearGradient>
  <linearGradient inkscape:collect="always" xlink:href="#linearGradient3916" id="linearGradient4059" gradientUnits="userSpaceOnUse" gradientTransform="matrix(0,-1,1,0,3.510369,24.994816)" y1="18" x2="0" y2="4"/>
  <linearGradient inkscape:collect="always" id="linearGradient3916">
   <stop id="stop3918" stop-color="#d24b4b"/>
   <stop offset="1" id="stop3920" stop-color="#ec6d6d"/>
  </linearGradient>
  <linearGradient inkscape:collect="always" xlink:href="#linearGradient3916" id="linearGradient3186" gradientUnits="userSpaceOnUse" gradientTransform="translate(0.289105,2.5806805)" y1="18" x2="0" y2="4"/>
  <linearGradient inkscape:collect="always" xlink:href="#linearGradient3906" id="linearGradient3189" gradientUnits="userSpaceOnUse" gradientTransform="translate(0.289105,2.5806805)" y1="16" x2="0" y2="6"/>
  <radialGradient inkscape:collect="always" xlink:href="#linearGradient3971" id="radialGradient3967" cx="14.287" cy="14.563" r="6.184" gradientTransform="matrix(1,0,0,1.1319769,0,-1.9219675)" gradientUnits="userSpaceOnUse"/>
  <radialGradient inkscape:collect="always" xlink:href="#linearGradient3971" id="radialGradient3977" cx="14" cy="20" r="6" gradientTransform="matrix(1,0,0,0.16666667,0,16.666667)" gradientUnits="userSpaceOnUse"/>
  <linearGradient inkscape:collect="always" xlink:href="#linearGradient3916" id="linearGradient3899" gradientUnits="userSpaceOnUse" gradientTransform="translate(-5.711365,-2.489631)" y1="18" x2="0" y2="4"/>
  <linearGradient inkscape:collect="always" xlink:href="#linearGradient3906" id="linearGradient3901" gradientUnits="userSpaceOnUse" gradientTransform="translate(-5.711365,-2.489631)" y1="16" x2="0" y2="6"/>
 </defs>
 <metadata id="metadata3833"/>
 <g inkscape:groupmode="layer" id="layer1" inkscape:label="Background" transform="translate(0,2)">
  <g id="g4349" transform="translate(2,-2)">
   <path d="m 15,17 0,3 0.5,0 C 16.331,20 17,19.331 17,18.5 17,17.669 16.331,17 15.5,17 z" id="path4281" inkscape:connector-curvature="0" sodipodi:nodetypes="ccsssc" opacity="0.2" fill="url(#radialGradient4347)"/>
   <path d="M 2.40625,17 C 1.6271875,17 1,17.627187 1,18.40625 l 0,0.1875 C 1,19.372813 1.6271875,20 2.40625,20 L 3,20 3,17 z" id="path4283" inkscape:connector-curvature="0" sodipodi:nodetypes="ssssccs" opacity="0.2" fill="url(#radialGradient4344)"/>
   <path d="m 3,17 12,0 0,3 -12,0 z" id="path4285" inkscape:connector-curvature="0" sodipodi:nodetypes="ccccc" opacity="0.2" fill="url(#linearGradient4341)"/>
   <path d="m 2.4999609,18.500039 c 3.8955809,0 13.0000591,-0.0014 13.0000591,-0.0014 l 2.1e-5,-14.998676 c 0,0 -7.333386,0 -13.0000801,0 0,7.000005 0,8.000008 0,15.000014 z" inkscape:connector-curvature="0" id="path4287" sodipodi:nodetypes="ccccsc" fill="url(#linearGradient4338)"/>
   <path d="m 2.4999609,3.4999629 c 3.8955809,0 13.0000591,0.0014 13.0000591,0.0014 l 2.1e-5,14.9986761 c 0,0 -7.333386,0 -13.0000801,0 0,-7.000005 0,-8.000008 0,-15.0000141 z" inkscape:connector-curvature="0" id="path4289" sodipodi:nodetypes="ccccsc" opacity="0.41" fill="none" stroke="#000000" stroke-linejoin="round"/>
   <path d="m 3,4 0,1 c 4.157995,7.52e-5 11.292656,-7.52e-5 12,0 l 0,-1 c -0.707344,-7.52e-5 -7.842005,7.52e-5 -12,0 z" id="path4291" inkscape:connector-curvature="0" sodipodi:nodetypes="ccccc" opacity="0.4" fill="#ffffff"/>
   <path d="M 3,4 3,18 15,18 15,4 z M 4,5 14,5 14,17 4,17 z" id="path4293" inkscape:connector-curvature="0" sodipodi:nodetypes="cccccccccc" opacity="0.4" fill="url(#linearGradient4333)"/>
  </g>
  <g id="g3207" transform="translate(-2,-4)">
   <path id="path3209" d="m 10,9 0,-0.859375 -1.28906,0 L 8.71094,9 10,9" inkscape:connector-curvature="0" opacity="0.2"/>
   <path id="path3211" d="m 12.5,9 0,-0.859375 -1.28906,0 L 11.21094,9 12.5,9" inkscape:connector-curvature="0" opacity="0.2"/>
   <path id="path3213" d="m 13.75,9 0,-0.859375 -1.28906,0 0,0.859375 1.28906,0" inkscape:connector-curvature="0" opacity="0.2"/>
   <path id="path3215" d="m 15,9 0,-0.859375 -1.28906,0 L 13.71094,9 15,9" inkscape:connector-curvature="0" opacity="0.2"/>
   <path id="path3217" d="m 10,10.999999 0,-0.859375 -1.28906,0 0,0.859375 1.28906,0" inkscape:connector-curvature="0" opacity="0.2"/>
   <path id="path3219" d="m 11.25,10.999999 0,-0.859375 -1.28906,0 0,0.859375 1.28906,0" inkscape:connector-curvature="0" opacity="0.2"/>
   <path id="path3221" d="m 12.5,10.999999 0,-0.859375 -1.28906,0 0,0.859375 1.28906,0" inkscape:connector-curvature="0" opacity="0.2"/>
   <path id="path3223" d="m 16.25781,10.999999 0,-0.859375 -1.28906,0 0,0.859375 1.28906,0" inkscape:connector-curvature="0" opacity="0.2"/>
   <path id="path3225" d="m 17.50781,10.999999 0,-0.859375 -1.28906,0 0,0.859375 1.28906,0" inkscape:connector-curvature="0" opacity="0.2"/>
   <path id="path3227" d="m 10,12.999999 0,-0.859375 -1.28906,0 0,0.859375 1.28906,0" inkscape:connector-curvature="0" opacity="0.2"/>
   <path id="path3229" d="m 12.5,12.999999 0,-0.859375 -1.28906,0 0,0.859375 1.28906,0" inkscape:connector-curvature="0" opacity="0.2"/>
   <path id="path3231" d="m 13.75,12.999999 0,-0.859375 -1.28906,0 0,0.859375 1.28906,0" inkscape:connector-curvature="0" opacity="0.2"/>
   <path id="path3233" d="m 15,12.999999 0,-0.859375 -1.28906,0 0,0.859375 1.28906,0" inkscape:connector-curvature="0" opacity="0.2"/>
   <path id="path3235" d="m 16.25,12.999999 0,-0.859375 -1.28906,0 0,0.859375 1.28906,0" inkscape:connector-curvature="0" opacity="0.2"/>
   <path id="path3237" d="m 17.5,12.999999 0,-0.859375 -1.28906,0 0,0.859375 1.28906,0" inkscape:connector-curvature="0" opacity="0.2"/>
   <path id="path3239" d="m 10,14.999999 0,-0.859375 -1.28906,0 0,0.859375 1.28906,0" inkscape:connector-curvature="0" opacity="0.2"/>
   <path id="path3241" d="m 11.25,14.999999 0,-0.859375 -1.28906,0 0,0.859375 1.28906,0" inkscape:connector-curvature="0" opacity="0.2"/>
   <path id="path3243" d="m 13.75,14.999999 0,-0.859375 -1.28906,0 0,0.859375 1.28906,0" inkscape:connector-curvature="0" opacity="0.2"/>
   <path id="path3245" d="m 15,14.999999 0,-0.859375 -1.28906,0 0,0.859375 1.28906,0" inkscape:connector-curvature="0" opacity="0.2"/>
   <path id="path3247" d="m 16.25,14.999999 0,-0.859375 -1.28906,0 0,0.859375 1.28906,0" inkscape:connector-curvature="0" opacity="0.2"/>
   <path id="path3249" d="m 10,16.999999 0,-0.859375 -1.28906,0 0,0.859375 1.28906,0" inkscape:connector-curvature="0" opacity="0.2"/>
   <path id="path3251" d="m 11.25,16.999999 0,-0.859375 -1.28906,0 0,0.859375 1.28906,0" inkscape:connector-curvature="0" opacity="0.2"/>
   <path id="path3253" d="m 12.5,16.999999 0,-0.859375 -1.28906,0 0,0.859375 1.28906,0" inkscape:connector-curvature="0" opacity="0.2"/>
   <path id="path3255" d="m 17.50781,14.999999 0,-0.859375 -1.28906,0 0,0.859375 1.28906,0" inkscape:connector-curvature="0" opacity="0.2"/>
   <path inkscape:connector-curvature="0" d="m 17.50781,9 0,-0.859375 -1.28906,0 0,0.859375 1.28906,0" id="path3257" opacity="0.2"/>
   <path inkscape:connector-curvature="0" d="m 15,10.999999 0,-0.859375 -1.28906,0 0,0.859375 1.28906,0" id="path3259" opacity="0.2"/>
   <path inkscape:connector-curvature="0" d="m 13.75,16.999999 0,-0.859375 -1.28906,0 0,0.859375 1.28906,0" id="path3261" opacity="0.2"/>
   <path inkscape:connector-curvature="0" d="m 11.25,12.999999 0,-0.859375 -1.28906,0 0,0.859375 1.28906,0" id="path3263" opacity="0.2"/>
   <path id="path3265" d="m 11.25,8.999999 0,-0.859375 -1.28906,0 0,0.859375 1.28906,0" inkscape:connector-curvature="0" opacity="0.2"/>
  </g>
  <g transform="translate(6.9905158,-1.9998149)" id="g4136">
   <g id="g3878">
    <path sodipodi:type="arc" id="path3969-1" sodipodi:cx="14" sodipodi:cy="20" sodipodi:rx="6" sodipodi:ry="1" d="m 20,20 c 0,0.552285 -2.686292,1 -6,1 -3.313708,0 -6,-0.447715 -6,-1 0,-0.552285 2.686292,-1 6,-1 3.313708,0 6,0.447715 6,1 z" transform="translate(-6.0004712,0.9296885)" opacity="0.2" fill="url(#radialGradient3977)"/>
   </g>
   <g transform="matrix(0.97163594,0,0,0.97163594,-0.05534229,0.12382423)" id="g3887">
    <path d="M 6.4375,9.0625 C 6.0800027,9.4167832 5.7331297,9.6749444 5.375,9.96875 c -0.3337708,0.242638 -0.8256416,0.559393 -1.40625,0.875 -0.232321,0.126279 -0.399121,0.218306 -0.5625,0.3125 -0.1928338,0.108198 -0.3311384,0.2127 -0.40625,0.25 -0.3274748,0.16663 -0.6719172,0.450899 -0.9375,0.8125 -0.7744513,1.05717 -0.5255339,2.538332 0.53125,3.3125 C 2.9897458,15.82022 3.4520458,16 3.96875,16 c 0.7655128,0 1.4850275,-0.364441 1.9375,-0.96875 0.1819499,-0.245155 0.3033549,-0.526149 0.375,-0.8125 0.00167,-0.0067 -0.00701,-0.02678 0,-0.03125 0.066021,-0.19007 0.1290995,-0.338006 0.15625,-0.5 0.036065,-0.204912 0.064757,-0.381771 0.25,-0.84375 0.1685829,-0.420566 0.4157152,-0.828808 0.625,-1.125 0.2712995,-0.441106 0.5719276,-0.617024 0.96875,-0.875 0.535926,0.26325 0.6382912,0.449612 0.96875,0.875 0.2104177,0.296749 0.4563601,0.704112 0.625,1.125 0.185775,0.46329 0.217479,0.646406 0.25,0.84375 0.01751,0.108093 0.05233,0.278542 0.125,0.5 0.0025,0.01015 -0.0026,0.0212 0,0.03125 0.08458,0.324138 0.237867,0.578188 0.40625,0.8125 l 0,0.03125 C 11.114662,15.671666 11.844325,16 12.59375,16 13.111037,16 13.604894,15.822432 14,15.53125 14.656901,15.048142 14.997961,14.272285 14.96875,13.5 14.950968,13.029792 14.784588,12.605716 14.5,12.21875 c -0.265262,-0.365379 -0.611298,-0.646517 -0.9375,-0.8125 -0.08078,-0.04011 -0.22078,-0.142934 -0.40625,-0.25 -0.155854,-0.08703 -0.327387,-0.184704 -0.5625,-0.3125 C 12.011291,10.526504 11.523465,10.205242 11.1875,9.96875 10.746558,9.7055333 10.444284,9.3869207 10.125,9.0625 10.027699,9.274876 9.6344378,9.008127 8,9 6.3655623,8.991873 6.5393114,9.2695757 6.4375,9.0625 z M 4,12.78125 c 0.174507,0 0.327214,0.05171 0.46875,0.15625 0.181343,0.13269 0.280835,0.324475 0.3125,0.53125 0.03167,0.206775 0.0093,0.442853 -0.125,0.625 C 4.504259,14.303642 4.259751,14.4375 4,14.4375 3.825492,14.4375 3.64234,14.3866 3.5,14.28125 3.323883,14.152581 3.218863,13.935075 3.1875,13.71875 3.15212,13.504033 3.1838,13.30192 3.3125,13.125 3.465296,12.915913 3.740249,12.78125 4,12.78125 z m 8.5625,0 c 0.259751,0 0.533901,0.134663 0.6875,0.34375 0.06554,0.08846 0.09997,0.178013 0.125,0.28125 0.02503,0.103237 0.01608,0.205142 0,0.3125 -0.03458,0.216325 -0.137992,0.433831 -0.3125,0.5625 -0.14234,0.105348 -0.326297,0.15625 -0.5,0.15625 -0.259751,0 -0.503456,-0.133858 -0.65625,-0.34375 -0.128669,-0.17692 -0.15958,-0.407067 -0.125,-0.625 0.03217,-0.213912 0.13558,-0.402581 0.3125,-0.53125 0.141536,-0.104544 0.294243,-0.15625 0.46875,-0.15625 z" transform="translate(0,6)" id="path4050" inkscape:connector-curvature="0" sodipodi:nodetypes="cccccccsccccccccccccccscsccccccccscccscccsscsccscccs" fill="url(#linearGradient3899)"/>
    <path sodipodi:nodetypes="cccccccsccccccccccccccscsccccccccscccscccsscsccscccs" inkscape:connector-curvature="0" id="path3870" transform="translate(0,6)" d="M 6.4375,9.0625 C 6.0800027,9.4167832 5.7331297,9.6749444 5.375,9.96875 c -0.3337708,0.242638 -0.8256416,0.559393 -1.40625,0.875 -0.232321,0.126279 -0.399121,0.218306 -0.5625,0.3125 -0.1928338,0.108198 -0.3311384,0.2127 -0.40625,0.25 -0.3274748,0.16663 -0.6719172,0.450899 -0.9375,0.8125 -0.7744513,1.05717 -0.5255339,2.538332 0.53125,3.3125 C 2.9897458,15.82022 3.4520458,16 3.96875,16 c 0.7655128,0 1.4850275,-0.364441 1.9375,-0.96875 0.1819499,-0.245155 0.3033549,-0.526149 0.375,-0.8125 0.00167,-0.0067 -0.00701,-0.02678 0,-0.03125 0.066021,-0.19007 0.1290995,-0.338006 0.15625,-0.5 0.036065,-0.204912 0.064757,-0.381771 0.25,-0.84375 0.1685829,-0.420566 0.4157152,-0.828808 0.625,-1.125 0.2712995,-0.441106 0.5719276,-0.617024 0.96875,-0.875 0.535926,0.26325 0.6382912,0.449612 0.96875,0.875 0.2104177,0.296749 0.4563601,0.704112 0.625,1.125 0.185775,0.46329 0.217479,0.646406 0.25,0.84375 0.01751,0.108093 0.05233,0.278542 0.125,0.5 0.0025,0.01015 -0.0026,0.0212 0,0.03125 0.08458,0.324138 0.237867,0.578188 0.40625,0.8125 l 0,0.03125 C 11.114662,15.671666 11.844325,16 12.59375,16 13.111037,16 13.604894,15.822432 14,15.53125 14.656901,15.048142 14.997961,14.272285 14.96875,13.5 14.950968,13.029792 14.784588,12.605716 14.5,12.21875 c -0.265262,-0.365379 -0.611298,-0.646517 -0.9375,-0.8125 -0.08078,-0.04011 -0.22078,-0.142934 -0.40625,-0.25 -0.155854,-0.08703 -0.327387,-0.184704 -0.5625,-0.3125 C 12.011291,10.526504 11.523465,10.205242 11.1875,9.96875 10.746558,9.7055333 10.444284,9.3869207 10.125,9.0625 10.027699,9.274876 9.6344378,9.008127 8,9 6.3655623,8.991873 6.5393114,9.2695757 6.4375,9.0625 z M 4,12.78125 c 0.174507,0 0.327214,0.05171 0.46875,0.15625 0.181343,0.13269 0.280835,0.324475 0.3125,0.53125 0.03167,0.206775 0.0093,0.442853 -0.125,0.625 C 4.504259,14.303642 4.259751,14.4375 4,14.4375 3.825492,14.4375 3.64234,14.3866 3.5,14.28125 3.323883,14.152581 3.218863,13.935075 3.1875,13.71875 3.15212,13.504033 3.1838,13.30192 3.3125,13.125 3.465296,12.915913 3.740249,12.78125 4,12.78125 z m 8.5625,0 c 0.259751,0 0.533901,0.134663 0.6875,0.34375 0.06554,0.08846 0.09997,0.178013 0.125,0.28125 0.02503,0.103237 0.01608,0.205142 0,0.3125 -0.03458,0.216325 -0.137992,0.433831 -0.3125,0.5625 -0.14234,0.105348 -0.326297,0.15625 -0.5,0.15625 -0.259751,0 -0.503456,-0.133858 -0.65625,-0.34375 -0.128669,-0.17692 -0.15958,-0.407067 -0.125,-0.625 0.03217,-0.213912 0.13558,-0.402581 0.3125,-0.53125 0.141536,-0.104544 0.294243,-0.15625 0.46875,-0.15625 z" opacity="0.61" fill="none" stroke="#990000" stroke-linejoin="round" stroke-width="1.029"/>
    <path d="M 4.78125,0.5625 C 4.4971813,0.98323855 4.2052434,1.48103 3.96875,1.875 3.8569151,2.1321237 3.7392075,2.519955 3.84375,2.9375 3.896088,3.1482855 4.0044988,3.344398 4.15625,3.71875 4.3080012,4.093102 4.4874392,4.575572 4.71875,5.125 5.1813716,6.223856 5.7620309,7.548818 6.0750973,8.2424545 6.3881638,8.936091 6.5572639,9.36246 6.84375,9.75 7.1302361,10.13754 7.6145833,10.5 8.28125,10.5 8.9479167,10.5 9.450019,10.141465 9.75,9.75 10.049981,9.358535 10.217244,8.926989 10.3125,8.6875 10.800269,7.548983 11.350209,6.223498 11.8125,5.125 12.043645,4.575751 12.254374,4.093154 12.40625,3.71875 12.558126,3.3443458 12.635343,3.1420101 12.6875,2.9375 12.751689,2.6811702 12.7369,2.4767779 12.71875,2.34375 12.6826,2.0787196 12.582785,1.8719697 12.5,1.71875 12.242502,1.3432477 12.100766,1.1032199 11.78125,0.5625 L 11.34375,1.25 11.1875,1.5 8.28125,6.28125 5.375,1.5 5.34375,1.5 5.1875,1.25 z" transform="translate(0,6)" id="path4052" inkscape:connector-curvature="0" sodipodi:nodetypes="cccsscssscssccccccccccc" fill="url(#linearGradient3901)"/>
    <path sodipodi:nodetypes="cccsscssscssccccccccccc" inkscape:connector-curvature="0" id="path3868" transform="translate(0,6)" d="M 4.78125,0.5625 C 4.4971813,0.98323855 4.2052434,1.48103 3.96875,1.875 3.8569151,2.1321237 3.7392075,2.519955 3.84375,2.9375 3.896088,3.1482855 4.0044988,3.344398 4.15625,3.71875 4.3080012,4.093102 4.4874392,4.575572 4.71875,5.125 5.1813716,6.223856 5.7620309,7.548818 6.0750973,8.2424545 6.3881638,8.936091 6.5572639,9.36246 6.84375,9.75 7.1302361,10.13754 7.6145833,10.5 8.28125,10.5 8.9479167,10.5 9.450019,10.141465 9.75,9.75 10.049981,9.358535 10.217244,8.926989 10.3125,8.6875 10.800269,7.548983 11.350209,6.223498 11.8125,5.125 12.043645,4.575751 12.254374,4.093154 12.40625,3.71875 12.558126,3.3443458 12.635343,3.1420101 12.6875,2.9375 12.751689,2.6811702 12.7369,2.4767779 12.71875,2.34375 12.6826,2.0787196 12.582785,1.8719697 12.5,1.71875 12.242502,1.3432477 12.100766,1.1032199 11.78125,0.5625 L 11.34375,1.25 11.1875,1.5 8.28125,6.28125 5.375,1.5 5.34375,1.5 5.1875,1.25 z" opacity="0.41" fill="none" stroke="#000000" stroke-linejoin="round" stroke-width="1.029"/>
    <path sodipodi:type="arc" id="path3928" sodipodi:cx="13.5" sodipodi:cy="6.5" sodipodi:rx="0.5" sodipodi:ry="0.5" d="M 14,6.5 C 14,6.7761424 13.776142,7 13.5,7 13.223858,7 13,6.7761424 13,6.5 13,6.2238576 13.223858,6 13.5,6 13.776142,6 14,6.2238576 14,6.5 z" transform="matrix(0,1.5,-1.5,0,18.026965,-5.325826)" opacity="0.41"/>
    <path d="M 8.8674175,12.25157 8.2667354,13.303998 9.5022209,15.263595 10.036612,14.15782 z" id="path3881" inkscape:connector-curvature="0" sodipodi:nodetypes="ccccc" opacity="0.41" color="#000000"/>
   </g>
  </g>
 </g>
</svg>
