<svg xmlns="http://www.w3.org/2000/svg" viewBox="0 0 24 24" xmlns:xlink="http://www.w3.org/1999/xlink"><defs><clipPath><path d="m0 96h96v-96h-96v96"/></clipPath></defs><g transform="translate(1-25)" color="#000"><path d="m14 1c-3.866 0-7 3.134-7 7 0 1.578.525 3.02 1.406 4.188l-.125.094-6 6-.688.719 1.406 1.406.719-.688 6-6 .094-.125c1.171.881 2.609 1.406 4.188 1.406 3.866 0 7-3.134 7-7 0-3.866-3.134-7-7-7m0 2c2.761 0 5 2.239 5 5 0 2.761-2.239 5-5 5-2.761 0-5-2.239-5-5 0-2.761 2.239-5 5-5" transform="translate(0 26)" fill="#555"/><path d="m14 26c-3.866 0-7 3.134-7 7 0 1.578.525 3.02 1.406 4.188l-.125.094-6 6-.688.719 1.406 1.406.719-.688 6-6 .094-.125c1.171.881 2.609 1.406 4.188 1.406 3.866 0 7-3.134 7-7 0-3.866-3.134-7-7-7m0 2c2.761 0 5 2.239 5 5 0 2.761-2.239 5-5 5-2.761 0-5-2.239-5-5 0-2.761 2.239-5 5-5" opacity=".1" fill="#fff"/><g fill="#555"><path d="m18 44h2v2h-2z" id="0"/><path d="m15 44h2v2h-2z" id="1"/><path d="m12 44h2v2h-2z" id="2"/></g><g transform="translate(0-1)" opacity=".1" fill="#fff"><use xlink:href="#0"/><use xlink:href="#1"/><use xlink:href="#2"/></g></g></svg>