<?xml version="1.0" encoding="UTF-8" standalone="no"?>
<svg
   xmlns:dc="http://purl.org/dc/elements/1.1/"
   xmlns:cc="http://creativecommons.org/ns#"
   xmlns:rdf="http://www.w3.org/1999/02/22-rdf-syntax-ns#"
   xmlns:svg="http://www.w3.org/2000/svg"
   xmlns="http://www.w3.org/2000/svg"
   xmlns:xlink="http://www.w3.org/1999/xlink"
   version="1.1"
   id="svg3495"
   height="24"
   width="24">
  <defs
     id="defs3497">
    <linearGradient
       id="linearGradient3821">
      <stop
         id="stop3823"
         offset="0"
         style="stop-color:#555555;stop-opacity:1;" />
      <stop
         id="stop3825"
         offset="1"
         style="stop-color:#666666;stop-opacity:1;" />
    </linearGradient>
    <linearGradient
       gradientTransform="translate(1,25)"
       gradientUnits="userSpaceOnUse"
       y2="-2"
       x2="12"
       y1="22"
       x1="12"
       id="linearGradient3793"
       xlink:href="#linearGradient3821" />
  </defs>
  <metadata
     id="metadata3500">
    <rdf:RDF>
      <cc:Work
         rdf:about="">
        <dc:format>image/svg+xml</dc:format>
        <dc:type
           rdf:resource="http://purl.org/dc/dcmitype/StillImage" />
        <dc:title />
      </cc:Work>
    </rdf:RDF>
  </metadata>
  <g
     transform="translate(0,-24)"
     id="layer1">
    <path
       id="path2987"
       d="m 14.5,26.53125 0.75,0.4375 6.03125,3.59375 L 22,31 21.28125,31.4375 15.25,35.0625 14.5,35.5 l 0,-0.875 0,-2.125 -4.5,0 c -2.515154,0 -4.5,1.984846 -4.5,4.5 0,2.515154 1.984846,4.5 4.5,4.5 l 7,0 0.5,0 0,0.5 0,2 0,0.5 -0.5,0 -7,0 C 5.871443,44.5 2.5,41.128557 2.5,37 2.5,32.871443 5.871443,29.5 10,29.5 l 4.5,0 0,-2.09375 0,-0.875 z"
       style="font-size:medium;font-style:normal;font-variant:normal;font-weight:normal;font-stretch:normal;text-indent:0;text-align:start;text-decoration:none;line-height:normal;letter-spacing:normal;word-spacing:normal;text-transform:none;direction:ltr;block-progression:tb;writing-mode:lr-tb;text-anchor:start;baseline-shift:baseline;color:#bebebe;fill:url(#linearGradient3793);fill-opacity:1;stroke:none;stroke-width:1;marker:none;visibility:visible;display:inline;overflow:visible;enable-background:accumulate;font-family:Sans;-inkscape-font-specification:Sans" />
    <path
       id="path4400"
       d="M 15,27.40625 21.03125,31 20.1875,31.5 15,28.40625 l 0,-1 z M 15,30 15,30.5 15,31 14.5,31 10,31 C 6.310913,31 3.288485,33.874734 3.03125,37.5 3.019547,37.335073 3,37.16783 3,37 3,33.143083 6.143083,30 10,30 l 4.5,0 0.5,0 z M 5.03125,37.5 C 5.28521,40.035334 7.392716,42 10,42 l 7,0 0,1 -7,0 C 7.218897,43 5,40.781103 5,38 5,37.826181 5.014319,37.669022 5.03125,37.5 z"
       style="font-style:normal;font-variant:normal;font-weight:normal;font-stretch:normal;text-indent:0;text-align:start;text-decoration:none;line-height:normal;letter-spacing:normal;word-spacing:normal;text-transform:none;direction:ltr;block-progression:tb;writing-mode:lr-tb;text-anchor:start;baseline-shift:baseline;opacity:0.2;color:#bebebe;fill:#ffffff;fill-opacity:1;stroke:none;stroke-width:2;marker:none;visibility:visible;display:inline;overflow:visible;enable-background:accumulate;font-family:Sans;-inkscape-font-specification:Sans" />
    <path
       style="font-size:medium;font-style:normal;font-variant:normal;font-weight:normal;font-stretch:normal;text-indent:0;text-align:start;text-decoration:none;line-height:normal;letter-spacing:normal;word-spacing:normal;text-transform:none;direction:ltr;block-progression:tb;writing-mode:lr-tb;text-anchor:start;baseline-shift:baseline;opacity:0.61000001;color:#bebebe;fill:none;stroke:#000000;stroke-width:1;stroke-opacity:1;marker:none;visibility:visible;display:inline;overflow:visible;enable-background:accumulate;font-family:Sans;-inkscape-font-specification:Sans"
       d="m 14.5,26.53125 0.75,0.4375 6.03125,3.59375 L 22,31 21.28125,31.4375 15.25,35.0625 14.5,35.5 l 0,-0.875 0,-2.125 -4.5,0 c -2.515154,0 -4.5,1.984846 -4.5,4.5 0,2.515154 1.984846,4.5 4.5,4.5 l 7,0 0.5,0 0,0.5 0,2 0,0.5 -0.5,0 -7,0 C 5.871443,44.5 2.5,41.128557 2.5,37 2.5,32.871443 5.871443,29.5 10,29.5 l 4.5,0 0,-2.09375 0,-0.875 z"
       id="path3764" />
  </g>
</svg>
