<?xml version="1.0" encoding="UTF-8" standalone="no"?>
<!-- Created with Inkscape (http://www.inkscape.org/) -->

<svg
   xmlns:dc="http://purl.org/dc/elements/1.1/"
   xmlns:cc="http://creativecommons.org/ns#"
   xmlns:rdf="http://www.w3.org/1999/02/22-rdf-syntax-ns#"
   xmlns:svg="http://www.w3.org/2000/svg"
   xmlns="http://www.w3.org/2000/svg"
   xmlns:xlink="http://www.w3.org/1999/xlink"
   xmlns:sodipodi="http://sodipodi.sourceforge.net/DTD/sodipodi-0.dtd"
   xmlns:inkscape="http://www.inkscape.org/namespaces/inkscape"
   version="1.1"
   width="24"
   height="24"
   id="svg3828"
   inkscape:version="0.48.4 r9939"
   sodipodi:docname="edit-paste.svg">
  <sodipodi:namedview
     pagecolor="#ffffff"
     bordercolor="#666666"
     borderopacity="1"
     objecttolerance="10"
     gridtolerance="10"
     guidetolerance="10"
     inkscape:pageopacity="0"
     inkscape:pageshadow="2"
     inkscape:window-width="1364"
     inkscape:window-height="700"
     id="namedview18"
     showgrid="false"
     showborder="false"
     inkscape:zoom="1"
     inkscape:cx="20.828511"
     inkscape:cy="5.1771293"
     inkscape:window-x="0"
     inkscape:window-y="28"
     inkscape:window-maximized="1"
     inkscape:current-layer="layer1"
     inkscape:snap-bbox="true"
     inkscape:bbox-paths="true"
     inkscape:snap-bbox-edge-midpoints="true"
     inkscape:bbox-nodes="true"
     inkscape:snap-bbox-midpoints="true">
    <inkscape:grid
       type="xygrid"
       id="grid3794"
       empspacing="4"
       visible="true"
       enabled="true"
       snapvisiblegridlinesonly="true" />
    <inkscape:grid
       type="xygrid"
       id="grid3305"
       empspacing="5"
       visible="true"
       enabled="true"
       snapvisiblegridlinesonly="true"
       dotted="true"
       spacingy="0.5px"
       spacingx="0.5px" />
  </sodipodi:namedview>
  <defs
     id="defs3830">
    <linearGradient
       id="linearGradient4085"
       inkscape:collect="always">
      <stop
         id="stop4087"
         offset="0"
         style="stop-color:#8f5902;stop-opacity:1" />
      <stop
         id="stop4089"
         offset="1"
         style="stop-color:#bf9450;stop-opacity:1" />
    </linearGradient>
    <linearGradient
       inkscape:collect="always"
       id="linearGradient3801">
      <stop
         style="stop-color:#ffffff;stop-opacity:1;"
         offset="0"
         id="stop3803" />
      <stop
         style="stop-color:#ffffff;stop-opacity:0;"
         offset="1"
         id="stop3805" />
    </linearGradient>
    <linearGradient
       id="linearGradient3988-5">
      <stop
         style="stop-color:#ededed;stop-opacity:1;"
         offset="0"
         id="stop3990-5" />
      <stop
         style="stop-color:#fafafa;stop-opacity:1;"
         offset="1"
         id="stop3992-0" />
    </linearGradient>
    <linearGradient
       inkscape:collect="always"
       id="linearGradient3952">
      <stop
         style="stop-color:#000000;stop-opacity:1;"
         offset="0"
         id="stop3954" />
      <stop
         style="stop-color:#000000;stop-opacity:0;"
         offset="1"
         id="stop3956" />
    </linearGradient>
    <linearGradient
       inkscape:collect="always"
       id="linearGradient3944">
      <stop
         style="stop-color:#000000;stop-opacity:1;"
         offset="0"
         id="stop3946" />
      <stop
         style="stop-color:#000000;stop-opacity:0;"
         offset="1"
         id="stop3948" />
    </linearGradient>
    <linearGradient
       id="linearGradient3960">
      <stop
         style="stop-color:#000000;stop-opacity:0;"
         offset="0"
         id="stop3962" />
      <stop
         id="stop3970"
         offset="0.5"
         style="stop-color:#000000;stop-opacity:1;" />
      <stop
         style="stop-color:#000000;stop-opacity:0;"
         offset="1"
         id="stop3964" />
    </linearGradient>
    <linearGradient
       id="linearGradient5772-1">
      <stop
         id="stop5774-8"
         offset="0"
         style="stop-color:#e2b369;stop-opacity:1" />
      <stop
         id="stop5776-7"
         offset="1"
         style="stop-color:#c79b55;stop-opacity:1" />
    </linearGradient>
    <linearGradient
       id="linearGradient3881-2-4-1">
      <stop
         style="stop-color:#babdb6;stop-opacity:1"
         offset="0"
         id="stop3883-6-8-8" />
      <stop
         id="stop3895-6-7-4"
         offset="0.13349205"
         style="stop-color:#eeeeec;stop-opacity:1" />
      <stop
         id="stop3891-1-9-4"
         offset="0.53102833"
         style="stop-color:#babdb6;stop-opacity:1" />
      <stop
         style="stop-color:#eeeeec;stop-opacity:1"
         offset="0.78738999"
         id="stop3893-0-9-8" />
      <stop
         style="stop-color:#9c988a;stop-opacity:1;"
         offset="1"
         id="stop3885-35-2-2" />
    </linearGradient>
    <linearGradient
       inkscape:collect="always"
       id="linearGradient3869-39-6-5">
      <stop
         style="stop-color:#555753;stop-opacity:1;"
         offset="0"
         id="stop3871-72-8-0" />
      <stop
         style="stop-color:#babdb6;stop-opacity:1"
         offset="1"
         id="stop3873-7-4-7" />
    </linearGradient>
    <linearGradient
       id="linearGradient5379-6-6-2"
       inkscape:collect="always">
      <stop
         id="stop5381-7-2-9"
         offset="0"
         style="stop-color:#ffffff;stop-opacity:1;" />
      <stop
         id="stop5383-2-5-8"
         offset="1"
         style="stop-color:#ffffff;stop-opacity:0;" />
    </linearGradient>
    <radialGradient
       inkscape:collect="always"
       xlink:href="#linearGradient3952"
       id="radialGradient3174"
       gradientUnits="userSpaceOnUse"
       gradientTransform="matrix(1,0,0,0.75,-25,-14.125)"
       cx="40"
       cy="43.5"
       fx="40"
       fy="43.5"
       r="2" />
    <radialGradient
       inkscape:collect="always"
       xlink:href="#linearGradient3944"
       id="radialGradient3176"
       gradientUnits="userSpaceOnUse"
       gradientTransform="matrix(1,0,0,0.75,-6,-14.125)"
       cx="9"
       cy="43.5"
       fx="9"
       fy="43.5"
       r="2" />
    <linearGradient
       inkscape:collect="always"
       xlink:href="#linearGradient3960"
       id="linearGradient3178"
       gradientUnits="userSpaceOnUse"
       gradientTransform="translate(-12,-25)"
       x1="25"
       y1="45"
       x2="25"
       y2="42" />
    <linearGradient
       inkscape:collect="always"
       xlink:href="#linearGradient5772-1"
       id="linearGradient3180"
       gradientUnits="userSpaceOnUse"
       gradientTransform="matrix(0.48571543,0,0,0.45629579,-3.6571703,1.34887)"
       x1="25.132275"
       y1="0.98520643"
       x2="25.132275"
       y2="47.013336" />
    <linearGradient
       inkscape:collect="always"
       xlink:href="#linearGradient3801"
       id="linearGradient3184"
       gradientUnits="userSpaceOnUse"
       gradientTransform="translate(-3,-2)"
       x1="10"
       y1="0"
       x2="10"
       y2="22" />
    <linearGradient
       inkscape:collect="always"
       xlink:href="#linearGradient3988-5"
       id="linearGradient3186"
       gradientUnits="userSpaceOnUse"
       gradientTransform="matrix(-0.48571543,0,0,-0.45629579,23.657169,20.651133)"
       x1="25.132275"
       y1="0.98520643"
       x2="25.132275"
       y2="47.013336" />
    <linearGradient
       inkscape:collect="always"
       xlink:href="#linearGradient3801"
       id="linearGradient3188"
       gradientUnits="userSpaceOnUse"
       gradientTransform="matrix(-1,0,0,1,22.999999,-1.999999)"
       x1="10"
       y1="0"
       x2="10"
       y2="22" />
    <linearGradient
       inkscape:collect="always"
       xlink:href="#linearGradient3881-2-4-1"
       id="linearGradient3190"
       gradientUnits="userSpaceOnUse"
       gradientTransform="matrix(-0.49455742,0,0,0.50509861,21.637305,-1.7784213)"
       x1="24.635435"
       y1="3.5194116"
       x2="24.635435"
       y2="11.540999" />
    <linearGradient
       inkscape:collect="always"
       xlink:href="#linearGradient3869-39-6-5"
       id="linearGradient3192"
       gradientUnits="userSpaceOnUse"
       gradientTransform="matrix(-0.49455742,0,0,0.50509861,21.637305,-2.7886185)"
       x1="32.911613"
       y1="14.114658"
       x2="32.911613"
       y2="0.35210887" />
    <linearGradient
       inkscape:collect="always"
       xlink:href="#linearGradient5379-6-6-2"
       id="linearGradient3194"
       gradientUnits="userSpaceOnUse"
       gradientTransform="matrix(-0.33318613,0,0,0.50509861,17.662398,-1.0193848)"
       x1="24.498007"
       y1="3.9980428"
       x2="24.498007"
       y2="8" />
    <radialGradient
       inkscape:collect="always"
       xlink:href="#linearGradient3952"
       id="radialGradient3196"
       gradientUnits="userSpaceOnUse"
       gradientTransform="matrix(1,0,0,0.75,-21,-12.125)"
       cx="40"
       cy="43.5"
       fx="40"
       fy="43.5"
       r="2" />
    <radialGradient
       inkscape:collect="always"
       xlink:href="#linearGradient3944"
       id="radialGradient3198"
       gradientUnits="userSpaceOnUse"
       gradientTransform="matrix(1,0,0,0.75,-2,-12.125)"
       cx="9"
       cy="43.5"
       fx="9"
       fy="43.5"
       r="2" />
    <linearGradient
       inkscape:collect="always"
       xlink:href="#linearGradient3960"
       id="linearGradient3200"
       gradientUnits="userSpaceOnUse"
       gradientTransform="translate(-8,-23)"
       x1="25"
       y1="45"
       x2="25"
       y2="42" />
    <linearGradient
       inkscape:collect="always"
       xlink:href="#linearGradient3988-5"
       id="linearGradient3202"
       gradientUnits="userSpaceOnUse"
       gradientTransform="matrix(0.48571543,0,0,-0.45629579,0.34283,22.651132)"
       x1="25.132275"
       y1="0.98520643"
       x2="25.132275"
       y2="47.013336" />
    <linearGradient
       inkscape:collect="always"
       xlink:href="#linearGradient3801"
       id="linearGradient3204"
       gradientUnits="userSpaceOnUse"
       gradientTransform="translate(1,0)"
       x1="10"
       y1="0"
       x2="10"
       y2="22" />
    <linearGradient
       inkscape:collect="always"
       xlink:href="#linearGradient4085"
       id="linearGradient4083"
       x1="9"
       y1="18.5"
       x2="9"
       y2="2.5"
       gradientUnits="userSpaceOnUse" />
  </defs>
  <metadata
     id="metadata3833">
    <rdf:RDF>
      <cc:Work
         rdf:about="">
        <dc:format>image/svg+xml</dc:format>
        <dc:type
           rdf:resource="http://purl.org/dc/dcmitype/StillImage" />
        <dc:title />
      </cc:Work>
    </rdf:RDF>
  </metadata>
  <g
     inkscape:groupmode="layer"
     id="layer1"
     inkscape:label="Background"
     style="display:inline"
     transform="translate(0,2)">
    <g
       id="g3165"
       transform="translate(-3,-5)">
      <path
         sodipodi:nodetypes="ccsssc"
         inkscape:connector-curvature="0"
         id="rect3940"
         d="m 19,19 0,3 0.5,0 C 20.331,22 21,21.331 21,20.5 21,19.669 20.331,19 19.5,19 z"
         style="opacity:0.2;fill:url(#radialGradient3196);fill-opacity:1;stroke:none" />
      <path
         sodipodi:nodetypes="ssssccs"
         inkscape:connector-curvature="0"
         id="rect3942"
         d="M 6.40625,19 C 5.627187,19 5,19.627187 5,20.40625 l 0,0.1875 C 5,21.372813 5.627187,22 6.40625,22 L 7,22 7,19 z"
         style="opacity:0.2;fill:url(#radialGradient3198);fill-opacity:1;stroke:none" />
      <path
         sodipodi:nodetypes="ccccc"
         inkscape:connector-curvature="0"
         id="rect3938"
         d="m 7,19 12,0 0,3 -12,0 z"
         style="opacity:0.2;fill:url(#linearGradient3200);fill-opacity:1;stroke:none" />
      <path
         sodipodi:nodetypes="ccccsc"
         style="fill:url(#linearGradient3202);fill-opacity:1;stroke:none;display:inline"
         id="path4160-3"
         inkscape:connector-curvature="0"
         d="m 6.499961,20.500039 c 3.895581,0 13.000059,-0.0014 13.000059,-0.0014 l 2.1e-5,-14.998676 c 0,0 -7.333386,0 -13.00008,0 0,7.000005 0,8.000008 0,15.000014 z" />
      <path
         sodipodi:nodetypes="ccccsc"
         style="opacity:0.41000001;fill:none;stroke:#000000;stroke-width:0.99992186;stroke-linecap:butt;stroke-linejoin:round;stroke-miterlimit:4;stroke-opacity:1;stroke-dasharray:none;stroke-dashoffset:0;display:inline"
         id="path4160-3-5"
         inkscape:connector-curvature="0"
         d="m 6.499961,5.4999629 c 3.895581,0 13.000059,0.0014 13.000059,0.0014 l 2.1e-5,14.9986761 c 0,0 -7.333386,0 -13.00008,0 0,-7.000005 0,-8.000008 0,-15.0000141 z" />
      <path
         sodipodi:nodetypes="ccccc"
         inkscape:connector-curvature="0"
         id="path3780"
         d="m 7,6 0,1 c 4.157995,7.52e-5 11.292656,-7.52e-5 12,0 l 0,-1 c -0.707344,-7.52e-5 -7.842005,7.52e-5 -12,0 z"
         style="opacity:0.4;fill:#ffffff;fill-opacity:1;stroke:none;display:inline" />
      <path
         sodipodi:nodetypes="cccccccccc"
         inkscape:connector-curvature="0"
         id="rect3796"
         d="M 7,6 7,20 19,20 19,6 z M 8,7 18,7 18,19 8,19 z"
         style="opacity:0.4;fill:url(#linearGradient3204);fill-opacity:1" />
    </g>
    <g
       id="g3129"
       transform="translate(5,3)">
      <g
         transform="translate(0,-2)"
         id="g4349">
        <path
           sodipodi:nodetypes="ccsssc"
           inkscape:connector-curvature="0"
           id="path4281"
           d="m 15,17 0,3 0.5,0 C 16.331,20 17,19.331 17,18.5 17,17.669 16.331,17 15.5,17 z"
           style="opacity:0.2;fill:url(#radialGradient3174);fill-opacity:1;stroke:none" />
        <path
           sodipodi:nodetypes="ssssccs"
           inkscape:connector-curvature="0"
           id="path4283"
           d="M 2.40625,17 C 1.6271875,17 1,17.627187 1,18.40625 l 0,0.1875 C 1,19.372813 1.6271875,20 2.40625,20 L 3,20 3,17 z"
           style="opacity:0.2;fill:url(#radialGradient3176);fill-opacity:1;stroke:none" />
        <path
           sodipodi:nodetypes="ccccc"
           inkscape:connector-curvature="0"
           id="path4285"
           d="m 3,17 12,0 0,3 -12,0 z"
           style="opacity:0.2;fill:url(#linearGradient3178);fill-opacity:1;stroke:none" />
        <path
           sodipodi:nodetypes="ccccccccc"
           style="fill:url(#linearGradient3180);fill-opacity:1;stroke:none;display:inline"
           id="path4287"
           inkscape:connector-curvature="0"
           d="m 3,3.5 12,0 c 0,0 0.5,0 0.5,0.5 l 0,14 c 0,0.5 -0.5,0.5 -0.5,0.5 l -12,0 c 0,0 -0.5,0 -0.5,-0.5 l 0,-14 c 0,0 0,-0.5 0.5,-0.5 z" />
        <path
           sodipodi:nodetypes="cccccccccc"
           inkscape:connector-curvature="0"
           id="path4293"
           d="M 3,4 3,18 15,18 15,4 z M 4,5 14,5 14,17 4,17 z"
           style="opacity:0.2;fill:url(#linearGradient3184);fill-opacity:1" />
        <path
           sodipodi:nodetypes="ccccc"
           inkscape:connector-curvature="0"
           id="path4291"
           d="m 3,4 0,1 c 4.157995,7.52e-5 11.292656,-7.52e-5 12,0 l 0,-1 c -0.707344,-7.52e-5 -7.842005,7.52e-5 -12,0 z"
           style="opacity:0.2;fill:#ffffff;fill-opacity:1;stroke:none;display:inline" />
        <path
           d="m 3,3.5 12,0 c 0,0 0.5,0 0.5,0.5 l 0,14 c 0,0.5 -0.5,0.5 -0.5,0.5 l -12,0 c 0,0 -0.5,0 -0.5,-0.5 l 0,-14 c 0,0 0,-0.5 0.5,-0.5 z"
           inkscape:connector-curvature="0"
           id="path3307"
           style="opacity:0.81000001;fill:none;stroke:url(#linearGradient4083);stroke-opacity:1;display:inline"
           sodipodi:nodetypes="ccccccccc" />
      </g>
      <g
         transform="matrix(-1,0,0,1,22,-1.0000009)"
         id="g3985">
        <path
           sodipodi:nodetypes="ccccsc"
           style="fill:url(#linearGradient3186);fill-opacity:1;stroke:none;display:inline"
           id="path3973"
           inkscape:connector-curvature="0"
           d="m 17.500038,14.50004 c -3.895581,0 -9.0000589,-0.0014 -9.0000589,-0.0014 l -2.1e-5,-10.998676 c 0,0 3.3333859,0 9.0000799,0 0,7.000005 0,4.000008 0,11.000014 z" />
        <path
           sodipodi:nodetypes="ccccsc"
           style="opacity:0.31000001;fill:none;stroke:#000000;stroke-width:0.99992186;stroke-linecap:butt;stroke-linejoin:round;stroke-miterlimit:4;stroke-opacity:1;stroke-dasharray:none;stroke-dashoffset:0;display:inline"
           id="path3975"
           inkscape:connector-curvature="0"
           d="m 17.500038,3.4999639 c -3.895581,0 -9.0000589,0.0014 -9.0000589,0.0014 l -2.1e-5,10.9986761 c 0,0 3.3333859,0 9.0000799,0 0,-7.000005 0,-4.000008 0,-11.0000141 z" />
        <path
           sodipodi:nodetypes="ccccc"
           inkscape:connector-curvature="0"
           id="path3977"
           d="m 16.999999,4.000001 0,1 c -4.157995,7.52e-5 -7.2926559,-7.52e-5 -7.9999999,0 l 0,-1 c 0.707344,-7.52e-5 3.8420049,7.52e-5 7.9999999,0 z"
           style="opacity:0.4;fill:#ffffff;fill-opacity:1;stroke:none;display:inline" />
        <path
           sodipodi:nodetypes="cccccccccc"
           inkscape:connector-curvature="0"
           id="path3979"
           d="m 16.999999,4.000001 0,10 -7.9999999,0 0,-10 z m -1,1 -5.9999999,0 0,8 5.9999999,0 z"
           style="opacity:0.4;fill:url(#linearGradient3188);fill-opacity:1" />
      </g>
      <path
         inkscape:connector-curvature="0"
         d="m 6.000003,5.5000229 c -0.500002,0 -0.500002,-0.9999993 -0.500002,-0.9999993 l 1,-0.9999992 0,-1.0000044 c 0,-0.4154991 0.501981,-0.9999992 1,-0.9999992 l 2.999999,0 c 0.599611,0 1,0.5893692 1,0.9999992 l 0,1.0000044 1,0.9999992 c 0,0 0,0.9999993 -0.499997,0.9999993 z"
         id="path5584-8-6-5"
         sodipodi:nodetypes="ccccccccccc"
         style="opacity:0.1;color:#000000;fill:#000000;fill-opacity:1;fill-rule:nonzero;stroke:#000000;stroke-width:1;stroke-linecap:butt;stroke-linejoin:miter;stroke-miterlimit:4;stroke-opacity:1;stroke-dasharray:none;stroke-dashoffset:0;marker:none;visibility:visible;display:block;overflow:visible;enable-background:accumulate" />
      <path
         inkscape:connector-curvature="0"
         d="m 6.000003,4.5000201 c -0.500002,0 -0.500002,-0.9999993 -0.500002,-0.9999993 l 1,-0.9999998 0,-1.0000002 c 0,-0.4155012 0.501981,-0.99999983 1,-0.99999983 l 2.999999,0 c 0.599611,0 1,0.58937133 1,0.99999923 l 0,1.0000008 1,0.9999988 c 0,0 0,1.0000003 -0.499997,1.0000003 z"
         id="path5584-8-6"
         sodipodi:nodetypes="ccccccccccc"
         style="color:#000000;fill:url(#linearGradient3190);fill-opacity:1;fill-rule:nonzero;stroke:url(#linearGradient3192);stroke-width:1;stroke-linecap:butt;stroke-linejoin:miter;stroke-miterlimit:4;stroke-opacity:1;stroke-dasharray:none;stroke-dashoffset:0;marker:none;visibility:visible;display:block;overflow:visible;enable-background:accumulate" />
      <rect
         transform="scale(-1,1)"
         height="1"
         id="rect5594-4-8"
         rx="0.27635786"
         ry="0.5"
         style="opacity:0.5;color:#000000;fill:#ffffff;fill-opacity:1;fill-rule:nonzero;stroke:none;stroke-width:1;marker:none;visibility:visible;display:block;overflow:visible;enable-background:accumulate"
         width="5.1037788"
         x="-12.07252"
         y="3.0000212" />
      <path
         inkscape:connector-curvature="0"
         d="m 10.998672,3.021404 0,-1.5152958 c 0.01316,-0.3189981 -0.06929,-0.5220775 -0.333178,-0.5050986 l -3.332302,0 C 7.178905,1.0383166 7.019326,1.0595906 7.000004,1.5061082 l 0,1.5152958 0.333188,-1.0309209 3.332302,0 z"
         id="path5377-6-6"
         sodipodi:nodetypes="ccccccccc"
         style="color:#000000;fill:url(#linearGradient3194);fill-opacity:1;fill-rule:nonzero;stroke:none;stroke-width:1;marker:none;visibility:visible;display:inline;overflow:visible;enable-background:accumulate" />
      <g
         transform="matrix(-1,0,0,1,21.75,-0.429688)"
         id="g4032">
        <path
           id="path26173"
           style="font-size:2px;font-style:normal;font-variant:normal;font-weight:normal;font-stretch:normal;line-height:100%;letter-spacing:0px;word-spacing:0px;opacity:0.2;fill:#000000;fill-opacity:1;stroke:none;font-family:BLOKK Neue;-inkscape-font-specification:BLOKK Neue"
           d="m 11.03906,5.4296875 0,-0.859375 -1.28906,0 0,0.859375 1.28906,0"
           inkscape:connector-curvature="0" />
        <path
           id="path26177"
           style="font-size:2px;font-style:normal;font-variant:normal;font-weight:normal;font-stretch:normal;line-height:100%;letter-spacing:0px;word-spacing:0px;opacity:0.2;fill:#000000;fill-opacity:1;stroke:none;font-family:BLOKK Neue;-inkscape-font-specification:BLOKK Neue"
           d="m 13.53906,5.4296875 0,-0.859375 -1.28906,0 0,0.859375 1.28906,0"
           inkscape:connector-curvature="0" />
        <path
           id="path26179"
           style="font-size:2px;font-style:normal;font-variant:normal;font-weight:normal;font-stretch:normal;line-height:100%;letter-spacing:0px;word-spacing:0px;opacity:0.2;fill:#000000;fill-opacity:1;stroke:none;font-family:BLOKK Neue;-inkscape-font-specification:BLOKK Neue"
           d="m 14.78906,5.4296875 0,-0.859375 -1.28906,0 0,0.859375 1.28906,0"
           inkscape:connector-curvature="0" />
        <path
           id="path26181"
           style="font-size:2px;font-style:normal;font-variant:normal;font-weight:normal;font-stretch:normal;line-height:100%;letter-spacing:0px;word-spacing:0px;opacity:0.2;fill:#000000;fill-opacity:1;stroke:none;font-family:BLOKK Neue;-inkscape-font-specification:BLOKK Neue"
           d="m 16.03906,5.4296875 0,-0.859375 -1.28906,0 0,0.859375 1.28906,0"
           inkscape:connector-curvature="0" />
        <path
           id="path26203"
           style="font-size:2px;font-style:normal;font-variant:normal;font-weight:normal;font-stretch:normal;line-height:100%;letter-spacing:0px;word-spacing:0px;opacity:0.2;fill:#000000;fill-opacity:1;stroke:none;font-family:BLOKK Neue;-inkscape-font-specification:BLOKK Neue"
           d="m 11.03906,7.4296875 0,-0.859375 -1.28906,0 0,0.859375 1.28906,0"
           inkscape:connector-curvature="0" />
        <path
           id="path26205"
           style="font-size:2px;font-style:normal;font-variant:normal;font-weight:normal;font-stretch:normal;line-height:100%;letter-spacing:0px;word-spacing:0px;opacity:0.2;fill:#000000;fill-opacity:1;stroke:none;font-family:BLOKK Neue;-inkscape-font-specification:BLOKK Neue"
           d="m 12.28906,7.4296875 0,-0.859375 -1.28906,0 0,0.859375 1.28906,0"
           inkscape:connector-curvature="0" />
        <path
           id="path26207"
           style="font-size:2px;font-style:normal;font-variant:normal;font-weight:normal;font-stretch:normal;line-height:100%;letter-spacing:0px;word-spacing:0px;opacity:0.2;fill:#000000;fill-opacity:1;stroke:none;font-family:BLOKK Neue;-inkscape-font-specification:BLOKK Neue"
           d="m 13.53906,7.4296875 0,-0.859375 -1.28906,0 0,0.859375 1.28906,0"
           inkscape:connector-curvature="0" />
        <path
           id="path26219"
           style="font-size:2px;font-style:normal;font-variant:normal;font-weight:normal;font-stretch:normal;line-height:100%;letter-spacing:0px;word-spacing:0px;opacity:0.2;fill:#000000;fill-opacity:1;stroke:none;font-family:BLOKK Neue;-inkscape-font-specification:BLOKK Neue"
           d="m 11.03906,9.4296875 0,-0.859375 -1.28906,0 0,0.859375 1.28906,0"
           inkscape:connector-curvature="0" />
        <path
           id="path26223"
           style="font-size:2px;font-style:normal;font-variant:normal;font-weight:normal;font-stretch:normal;line-height:100%;letter-spacing:0px;word-spacing:0px;opacity:0.2;fill:#000000;fill-opacity:1;stroke:none;font-family:BLOKK Neue;-inkscape-font-specification:BLOKK Neue"
           d="m 13.53906,9.4296875 0,-0.859375 -1.28906,0 0,0.859375 1.28906,0"
           inkscape:connector-curvature="0" />
        <path
           id="path26225"
           style="font-size:2px;font-style:normal;font-variant:normal;font-weight:normal;font-stretch:normal;line-height:100%;letter-spacing:0px;word-spacing:0px;opacity:0.2;fill:#000000;fill-opacity:1;stroke:none;font-family:BLOKK Neue;-inkscape-font-specification:BLOKK Neue"
           d="m 14.78906,9.4296875 0,-0.859375 -1.28906,0 0,0.859375 1.28906,0"
           inkscape:connector-curvature="0" />
        <path
           id="path26227"
           style="font-size:2px;font-style:normal;font-variant:normal;font-weight:normal;font-stretch:normal;line-height:100%;letter-spacing:0px;word-spacing:0px;opacity:0.2;fill:#000000;fill-opacity:1;stroke:none;font-family:BLOKK Neue;-inkscape-font-specification:BLOKK Neue"
           d="m 16.03906,9.4296875 0,-0.859375 -1.28906,0 0,0.859375 1.28906,0"
           inkscape:connector-curvature="0" />
        <path
           id="path26241"
           style="font-size:2px;font-style:normal;font-variant:normal;font-weight:normal;font-stretch:normal;line-height:100%;letter-spacing:0px;word-spacing:0px;opacity:0.2;fill:#000000;fill-opacity:1;stroke:none;font-family:BLOKK Neue;-inkscape-font-specification:BLOKK Neue"
           d="m 11.03906,11.429688 0,-0.859375 -1.28906,0 0,0.859375 1.28906,0"
           inkscape:connector-curvature="0" />
        <path
           id="path26243"
           style="font-size:2px;font-style:normal;font-variant:normal;font-weight:normal;font-stretch:normal;line-height:100%;letter-spacing:0px;word-spacing:0px;opacity:0.2;fill:#000000;fill-opacity:1;stroke:none;font-family:BLOKK Neue;-inkscape-font-specification:BLOKK Neue"
           d="m 12.28906,11.429688 0,-0.859375 -1.28906,0 0,0.859375 1.28906,0"
           inkscape:connector-curvature="0" />
        <path
           id="path26247"
           style="font-size:2px;font-style:normal;font-variant:normal;font-weight:normal;font-stretch:normal;line-height:100%;letter-spacing:0px;word-spacing:0px;opacity:0.2;fill:#000000;fill-opacity:1;stroke:none;font-family:BLOKK Neue;-inkscape-font-specification:BLOKK Neue"
           d="m 14.78906,11.429688 0,-0.859375 -1.28906,0 0,0.859375 1.28906,0"
           inkscape:connector-curvature="0" />
        <path
           id="path26249"
           style="font-size:2px;font-style:normal;font-variant:normal;font-weight:normal;font-stretch:normal;line-height:100%;letter-spacing:0px;word-spacing:0px;opacity:0.2;fill:#000000;fill-opacity:1;stroke:none;font-family:BLOKK Neue;-inkscape-font-specification:BLOKK Neue"
           d="m 16.03906,11.429688 0,-0.859375 -1.28906,0 0,0.859375 1.28906,0"
           inkscape:connector-curvature="0" />
        <path
           inkscape:connector-curvature="0"
           d="m 16.03906,7.4296875 0,-0.859375 -1.28906,0 0,0.859375 1.28906,0"
           style="font-size:2px;font-style:normal;font-variant:normal;font-weight:normal;font-stretch:normal;line-height:100%;letter-spacing:0px;word-spacing:0px;opacity:0.2;fill:#000000;fill-opacity:1;stroke:none;font-family:BLOKK Neue;-inkscape-font-specification:BLOKK Neue"
           id="path4459" />
      </g>
    </g>
  </g>
  <g
     inkscape:groupmode="layer"
     id="layer2"
     inkscape:label="Symbol"
     transform="translate(0,2)" />
</svg>
