<?xml version="1.0" encoding="UTF-8" standalone="no"?>
<svg
   xmlns:dc="http://purl.org/dc/elements/1.1/"
   xmlns:cc="http://creativecommons.org/ns#"
   xmlns:rdf="http://www.w3.org/1999/02/22-rdf-syntax-ns#"
   xmlns:svg="http://www.w3.org/2000/svg"
   xmlns="http://www.w3.org/2000/svg"
   xmlns:xlink="http://www.w3.org/1999/xlink"
   id="svg3828"
   height="24"
   width="24"
   version="1.1">
  <defs
     id="defs3830">
    <linearGradient
       id="linearGradient3801">
      <stop
         id="stop3803"
         offset="0"
         style="stop-color:#ffffff;stop-opacity:1;" />
      <stop
         id="stop3805"
         offset="1"
         style="stop-color:#ffffff;stop-opacity:0;" />
    </linearGradient>
    <linearGradient
       id="linearGradient3988-5">
      <stop
         id="stop3990-5"
         offset="0"
         style="stop-color:#ededed;stop-opacity:1;" />
      <stop
         id="stop3992-0"
         offset="1"
         style="stop-color:#fafafa;stop-opacity:1;" />
    </linearGradient>
    <linearGradient
       id="linearGradient3952">
      <stop
         id="stop3954"
         offset="0"
         style="stop-color:#000000;stop-opacity:1;" />
      <stop
         id="stop3956"
         offset="1"
         style="stop-color:#000000;stop-opacity:0;" />
    </linearGradient>
    <linearGradient
       id="linearGradient3944">
      <stop
         id="stop3946"
         offset="0"
         style="stop-color:#000000;stop-opacity:1;" />
      <stop
         id="stop3948"
         offset="1"
         style="stop-color:#000000;stop-opacity:0;" />
    </linearGradient>
    <linearGradient
       id="linearGradient3960">
      <stop
         id="stop3962"
         offset="0"
         style="stop-color:#000000;stop-opacity:0;" />
      <stop
         style="stop-color:#000000;stop-opacity:1;"
         offset="0.5"
         id="stop3970" />
      <stop
         id="stop3964"
         offset="1"
         style="stop-color:#000000;stop-opacity:0;" />
    </linearGradient>
    <linearGradient
       gradientTransform="translate(2,-1)"
       y2="22"
       x2="10"
       y1="0"
       x1="10"
       gradientUnits="userSpaceOnUse"
       id="linearGradient4316"
       xlink:href="#linearGradient3801" />
    <linearGradient
       y2="47.013336"
       x2="25.132275"
       y1="0.98520643"
       x1="25.132275"
       gradientTransform="matrix(0.48571543,0,0,-0.45629579,1.3428297,21.651132)"
       gradientUnits="userSpaceOnUse"
       id="linearGradient4321"
       xlink:href="#linearGradient3988-5" />
    <linearGradient
       y2="42"
       x2="25"
       y1="45"
       x1="25"
       gradientTransform="translate(-7,-24)"
       gradientUnits="userSpaceOnUse"
       id="linearGradient4324"
       xlink:href="#linearGradient3960" />
    <radialGradient
       r="2"
       fy="43.5"
       fx="9"
       cy="43.5"
       cx="9"
       gradientTransform="matrix(1,0,0,0.75,-1,-13.125)"
       gradientUnits="userSpaceOnUse"
       id="radialGradient4327"
       xlink:href="#linearGradient3944" />
    <radialGradient
       r="2"
       fy="43.5"
       fx="40"
       cy="43.5"
       cx="40"
       gradientTransform="matrix(1,0,0,0.75,-20,-13.125)"
       gradientUnits="userSpaceOnUse"
       id="radialGradient4330"
       xlink:href="#linearGradient3952" />
    <radialGradient
       r="2"
       fy="43.5"
       fx="40"
       cy="43.5"
       cx="40"
       gradientTransform="matrix(1,0,0,0.75,-25,-14.125)"
       gradientUnits="userSpaceOnUse"
       id="radialGradient4358"
       xlink:href="#linearGradient3952" />
    <radialGradient
       r="2"
       fy="43.5"
       fx="9"
       cy="43.5"
       cx="9"
       gradientTransform="matrix(1,0,0,0.75,-6,-14.125)"
       gradientUnits="userSpaceOnUse"
       id="radialGradient4360"
       xlink:href="#linearGradient3944" />
    <linearGradient
       y2="42"
       x2="25"
       y1="45"
       x1="25"
       gradientTransform="translate(-12,-25)"
       gradientUnits="userSpaceOnUse"
       id="linearGradient4362"
       xlink:href="#linearGradient3960" />
    <linearGradient
       y2="47.013336"
       x2="25.132275"
       y1="0.98520643"
       x1="25.132275"
       gradientTransform="matrix(0.48571543,0,0,-0.45629579,-3.6571703,20.651132)"
       gradientUnits="userSpaceOnUse"
       id="linearGradient4364"
       xlink:href="#linearGradient3988-5" />
    <linearGradient
       y2="22"
       x2="10"
       y1="0"
       x1="10"
       gradientTransform="translate(-3,-2)"
       gradientUnits="userSpaceOnUse"
       id="linearGradient4366"
       xlink:href="#linearGradient3801" />
  </defs>
  <metadata
     id="metadata3833">
    <rdf:RDF>
      <cc:Work
         rdf:about="">
        <dc:format>image/svg+xml</dc:format>
        <dc:type
           rdf:resource="http://purl.org/dc/dcmitype/StillImage" />
        <dc:title />
      </cc:Work>
    </rdf:RDF>
  </metadata>
  <g
     transform="translate(0,2)"
     style="display:inline"
     id="layer1">
    <g
       transform="translate(1,-3)"
       id="g4349">
      <path
         id="path4281"
         d="m 15,17 0,3 0.5,0 C 16.331,20 17,19.331 17,18.5 17,17.669 16.331,17 15.5,17 z"
         style="opacity:0.2;fill:url(#radialGradient4358);fill-opacity:1;stroke:none" />
      <path
         id="path4283"
         d="M 2.40625,17 C 1.6271875,17 1,17.627187 1,18.40625 l 0,0.1875 C 1,19.372813 1.6271875,20 2.40625,20 L 3,20 3,17 z"
         style="opacity:0.2;fill:url(#radialGradient4360);fill-opacity:1;stroke:none" />
      <path
         id="path4285"
         d="m 3,17 12,0 0,3 -12,0 z"
         style="opacity:0.2;fill:url(#linearGradient4362);fill-opacity:1;stroke:none" />
      <path
         style="fill:url(#linearGradient4364);fill-opacity:1;stroke:none;display:inline"
         id="path4287"
         d="m 2.4999609,18.500039 c 3.8955809,0 13.0000591,-0.0014 13.0000591,-0.0014 l 2.1e-5,-14.998676 c 0,0 -7.333386,0 -13.0000801,0 0,7.000005 0,8.000008 0,15.000014 z" />
      <path
         style="opacity:0.41000001;fill:none;stroke:#000000;stroke-width:0.99992186;stroke-linecap:butt;stroke-linejoin:round;stroke-miterlimit:4;stroke-opacity:1;stroke-dasharray:none;stroke-dashoffset:0;display:inline"
         id="path4289"
         d="m 2.4999609,3.4999629 c 3.8955809,0 13.0000591,0.0014 13.0000591,0.0014 l 2.1e-5,14.9986761 c 0,0 -7.333386,0 -13.0000801,0 0,-7.000005 0,-8.000008 0,-15.0000141 z" />
      <path
         id="path4291"
         d="m 3,4 0,1 c 4.157995,7.52e-5 11.292656,-7.52e-5 12,0 l 0,-1 c -0.707344,-7.52e-5 -7.842005,7.52e-5 -12,0 z"
         style="opacity:0.4;fill:#ffffff;fill-opacity:1;stroke:none;display:inline" />
      <path
         id="path4293"
         d="M 3,4 3,18 15,18 15,4 z M 4,5 14,5 14,17 4,17 z"
         style="opacity:0.4;fill:url(#linearGradient4366);fill-opacity:1" />
    </g>
    <g
       transform="translate(-3,-5)"
       id="g3207">
      <path
         d="m 10,9 0,-0.859375 -1.28906,0 L 8.71094,9 10,9"
         style="font-size:2px;font-style:normal;font-variant:normal;font-weight:normal;font-stretch:normal;line-height:100%;letter-spacing:0px;word-spacing:0px;opacity:0.2;fill:#000000;fill-opacity:1;stroke:none;display:inline;font-family:BLOKK Neue;-inkscape-font-specification:BLOKK Neue"
         id="path3209" />
      <path
         d="m 12.5,9 0,-0.859375 -1.28906,0 L 11.21094,9 12.5,9"
         style="font-size:2px;font-style:normal;font-variant:normal;font-weight:normal;font-stretch:normal;line-height:100%;letter-spacing:0px;word-spacing:0px;opacity:0.2;fill:#000000;fill-opacity:1;stroke:none;display:inline;font-family:BLOKK Neue;-inkscape-font-specification:BLOKK Neue"
         id="path3211" />
      <path
         d="m 13.75,9 0,-0.859375 -1.28906,0 0,0.859375 1.28906,0"
         style="font-size:2px;font-style:normal;font-variant:normal;font-weight:normal;font-stretch:normal;line-height:100%;letter-spacing:0px;word-spacing:0px;opacity:0.2;fill:#000000;fill-opacity:1;stroke:none;display:inline;font-family:BLOKK Neue;-inkscape-font-specification:BLOKK Neue"
         id="path3213" />
      <path
         d="m 15,9 0,-0.859375 -1.28906,0 L 13.71094,9 15,9"
         style="font-size:2px;font-style:normal;font-variant:normal;font-weight:normal;font-stretch:normal;line-height:100%;letter-spacing:0px;word-spacing:0px;opacity:0.2;fill:#000000;fill-opacity:1;stroke:none;display:inline;font-family:BLOKK Neue;-inkscape-font-specification:BLOKK Neue"
         id="path3215" />
      <path
         d="m 10,10.999999 0,-0.859375 -1.28906,0 0,0.859375 1.28906,0"
         style="font-size:2px;font-style:normal;font-variant:normal;font-weight:normal;font-stretch:normal;line-height:100%;letter-spacing:0px;word-spacing:0px;opacity:0.2;fill:#000000;fill-opacity:1;stroke:none;display:inline;font-family:BLOKK Neue;-inkscape-font-specification:BLOKK Neue"
         id="path3217" />
      <path
         d="m 11.25,10.999999 0,-0.859375 -1.28906,0 0,0.859375 1.28906,0"
         style="font-size:2px;font-style:normal;font-variant:normal;font-weight:normal;font-stretch:normal;line-height:100%;letter-spacing:0px;word-spacing:0px;opacity:0.2;fill:#000000;fill-opacity:1;stroke:none;display:inline;font-family:BLOKK Neue;-inkscape-font-specification:BLOKK Neue"
         id="path3219" />
      <path
         d="m 12.5,10.999999 0,-0.859375 -1.28906,0 0,0.859375 1.28906,0"
         style="font-size:2px;font-style:normal;font-variant:normal;font-weight:normal;font-stretch:normal;line-height:100%;letter-spacing:0px;word-spacing:0px;opacity:0.2;fill:#000000;fill-opacity:1;stroke:none;display:inline;font-family:BLOKK Neue;-inkscape-font-specification:BLOKK Neue"
         id="path3221" />
      <path
         d="m 16.25781,10.999999 0,-0.859375 -1.28906,0 0,0.859375 1.28906,0"
         style="font-size:2px;font-style:normal;font-variant:normal;font-weight:normal;font-stretch:normal;line-height:100%;letter-spacing:0px;word-spacing:0px;opacity:0.2;fill:#000000;fill-opacity:1;stroke:none;display:inline;font-family:BLOKK Neue;-inkscape-font-specification:BLOKK Neue"
         id="path3223" />
      <path
         d="m 17.50781,10.999999 0,-0.859375 -1.28906,0 0,0.859375 1.28906,0"
         style="font-size:2px;font-style:normal;font-variant:normal;font-weight:normal;font-stretch:normal;line-height:100%;letter-spacing:0px;word-spacing:0px;opacity:0.2;fill:#000000;fill-opacity:1;stroke:none;display:inline;font-family:BLOKK Neue;-inkscape-font-specification:BLOKK Neue"
         id="path3225" />
      <path
         d="m 10,12.999999 0,-0.859375 -1.28906,0 0,0.859375 1.28906,0"
         style="font-size:2px;font-style:normal;font-variant:normal;font-weight:normal;font-stretch:normal;line-height:100%;letter-spacing:0px;word-spacing:0px;opacity:0.2;fill:#000000;fill-opacity:1;stroke:none;display:inline;font-family:BLOKK Neue;-inkscape-font-specification:BLOKK Neue"
         id="path3227" />
      <path
         d="m 12.5,12.999999 0,-0.859375 -1.28906,0 0,0.859375 1.28906,0"
         style="font-size:2px;font-style:normal;font-variant:normal;font-weight:normal;font-stretch:normal;line-height:100%;letter-spacing:0px;word-spacing:0px;opacity:0.2;fill:#000000;fill-opacity:1;stroke:none;display:inline;font-family:BLOKK Neue;-inkscape-font-specification:BLOKK Neue"
         id="path3229" />
      <path
         d="m 13.75,12.999999 0,-0.859375 -1.28906,0 0,0.859375 1.28906,0"
         style="font-size:2px;font-style:normal;font-variant:normal;font-weight:normal;font-stretch:normal;line-height:100%;letter-spacing:0px;word-spacing:0px;opacity:0.2;fill:#000000;fill-opacity:1;stroke:none;display:inline;font-family:BLOKK Neue;-inkscape-font-specification:BLOKK Neue"
         id="path3231" />
      <path
         d="m 15,12.999999 0,-0.859375 -1.28906,0 0,0.859375 1.28906,0"
         style="font-size:2px;font-style:normal;font-variant:normal;font-weight:normal;font-stretch:normal;line-height:100%;letter-spacing:0px;word-spacing:0px;opacity:0.2;fill:#000000;fill-opacity:1;stroke:none;display:inline;font-family:BLOKK Neue;-inkscape-font-specification:BLOKK Neue"
         id="path3233" />
      <path
         d="m 16.25,12.999999 0,-0.859375 -1.28906,0 0,0.859375 1.28906,0"
         style="font-size:2px;font-style:normal;font-variant:normal;font-weight:normal;font-stretch:normal;line-height:100%;letter-spacing:0px;word-spacing:0px;opacity:0.2;fill:#000000;fill-opacity:1;stroke:none;display:inline;font-family:BLOKK Neue;-inkscape-font-specification:BLOKK Neue"
         id="path3235" />
      <path
         d="m 17.5,12.999999 0,-0.859375 -1.28906,0 0,0.859375 1.28906,0"
         style="font-size:2px;font-style:normal;font-variant:normal;font-weight:normal;font-stretch:normal;line-height:100%;letter-spacing:0px;word-spacing:0px;opacity:0.2;fill:#000000;fill-opacity:1;stroke:none;display:inline;font-family:BLOKK Neue;-inkscape-font-specification:BLOKK Neue"
         id="path3237" />
      <path
         d="m 10,14.999999 0,-0.859375 -1.28906,0 0,0.859375 1.28906,0"
         style="font-size:2px;font-style:normal;font-variant:normal;font-weight:normal;font-stretch:normal;line-height:100%;letter-spacing:0px;word-spacing:0px;opacity:0.2;fill:#000000;fill-opacity:1;stroke:none;display:inline;font-family:BLOKK Neue;-inkscape-font-specification:BLOKK Neue"
         id="path3239" />
      <path
         d="m 11.25,14.999999 0,-0.859375 -1.28906,0 0,0.859375 1.28906,0"
         style="font-size:2px;font-style:normal;font-variant:normal;font-weight:normal;font-stretch:normal;line-height:100%;letter-spacing:0px;word-spacing:0px;opacity:0.2;fill:#000000;fill-opacity:1;stroke:none;display:inline;font-family:BLOKK Neue;-inkscape-font-specification:BLOKK Neue"
         id="path3241" />
      <path
         d="m 13.75,14.999999 0,-0.859375 -1.28906,0 0,0.859375 1.28906,0"
         style="font-size:2px;font-style:normal;font-variant:normal;font-weight:normal;font-stretch:normal;line-height:100%;letter-spacing:0px;word-spacing:0px;opacity:0.2;fill:#000000;fill-opacity:1;stroke:none;display:inline;font-family:BLOKK Neue;-inkscape-font-specification:BLOKK Neue"
         id="path3243" />
      <path
         d="m 15,14.999999 0,-0.859375 -1.28906,0 0,0.859375 1.28906,0"
         style="font-size:2px;font-style:normal;font-variant:normal;font-weight:normal;font-stretch:normal;line-height:100%;letter-spacing:0px;word-spacing:0px;opacity:0.2;fill:#000000;fill-opacity:1;stroke:none;display:inline;font-family:BLOKK Neue;-inkscape-font-specification:BLOKK Neue"
         id="path3245" />
      <path
         d="m 16.25,14.999999 0,-0.859375 -1.28906,0 0,0.859375 1.28906,0"
         style="font-size:2px;font-style:normal;font-variant:normal;font-weight:normal;font-stretch:normal;line-height:100%;letter-spacing:0px;word-spacing:0px;opacity:0.2;fill:#000000;fill-opacity:1;stroke:none;display:inline;font-family:BLOKK Neue;-inkscape-font-specification:BLOKK Neue"
         id="path3247" />
      <path
         d="m 10,16.999999 0,-0.859375 -1.28906,0 0,0.859375 1.28906,0"
         style="font-size:2px;font-style:normal;font-variant:normal;font-weight:normal;font-stretch:normal;line-height:100%;letter-spacing:0px;word-spacing:0px;opacity:0.2;fill:#000000;fill-opacity:1;stroke:none;display:inline;font-family:BLOKK Neue;-inkscape-font-specification:BLOKK Neue"
         id="path3249" />
      <path
         d="m 11.25,16.999999 0,-0.859375 -1.28906,0 0,0.859375 1.28906,0"
         style="font-size:2px;font-style:normal;font-variant:normal;font-weight:normal;font-stretch:normal;line-height:100%;letter-spacing:0px;word-spacing:0px;opacity:0.2;fill:#000000;fill-opacity:1;stroke:none;display:inline;font-family:BLOKK Neue;-inkscape-font-specification:BLOKK Neue"
         id="path3251" />
      <path
         d="m 12.5,16.999999 0,-0.859375 -1.28906,0 0,0.859375 1.28906,0"
         style="font-size:2px;font-style:normal;font-variant:normal;font-weight:normal;font-stretch:normal;line-height:100%;letter-spacing:0px;word-spacing:0px;opacity:0.2;fill:#000000;fill-opacity:1;stroke:none;display:inline;font-family:BLOKK Neue;-inkscape-font-specification:BLOKK Neue"
         id="path3253" />
      <path
         d="m 17.50781,14.999999 0,-0.859375 -1.28906,0 0,0.859375 1.28906,0"
         style="font-size:2px;font-style:normal;font-variant:normal;font-weight:normal;font-stretch:normal;line-height:100%;letter-spacing:0px;word-spacing:0px;opacity:0.2;fill:#000000;fill-opacity:1;stroke:none;display:inline;font-family:BLOKK Neue;-inkscape-font-specification:BLOKK Neue"
         id="path3255" />
      <path
         id="path3257"
         style="font-size:2px;font-style:normal;font-variant:normal;font-weight:normal;font-stretch:normal;line-height:100%;letter-spacing:0px;word-spacing:0px;opacity:0.2;fill:#000000;fill-opacity:1;stroke:none;display:inline;font-family:BLOKK Neue;-inkscape-font-specification:BLOKK Neue"
         d="m 17.50781,9 0,-0.859375 -1.28906,0 0,0.859375 1.28906,0" />
      <path
         id="path3259"
         style="font-size:2px;font-style:normal;font-variant:normal;font-weight:normal;font-stretch:normal;line-height:100%;letter-spacing:0px;word-spacing:0px;opacity:0.2;fill:#000000;fill-opacity:1;stroke:none;display:inline;font-family:BLOKK Neue;-inkscape-font-specification:BLOKK Neue"
         d="m 15,10.999999 0,-0.859375 -1.28906,0 0,0.859375 1.28906,0" />
      <path
         id="path3261"
         style="font-size:2px;font-style:normal;font-variant:normal;font-weight:normal;font-stretch:normal;line-height:100%;letter-spacing:0px;word-spacing:0px;opacity:0.2;fill:#000000;fill-opacity:1;stroke:none;display:inline;font-family:BLOKK Neue;-inkscape-font-specification:BLOKK Neue"
         d="m 13.75,16.999999 0,-0.859375 -1.28906,0 0,0.859375 1.28906,0" />
      <path
         id="path3263"
         style="font-size:2px;font-style:normal;font-variant:normal;font-weight:normal;font-stretch:normal;line-height:100%;letter-spacing:0px;word-spacing:0px;opacity:0.2;fill:#000000;fill-opacity:1;stroke:none;display:inline;font-family:BLOKK Neue;-inkscape-font-specification:BLOKK Neue"
         d="m 11.25,12.999999 0,-0.859375 -1.28906,0 0,0.859375 1.28906,0" />
      <path
         d="m 11.25,8.999999 0,-0.859375 -1.28906,0 0,0.859375 1.28906,0"
         style="font-size:2px;font-style:normal;font-variant:normal;font-weight:normal;font-stretch:normal;line-height:100%;letter-spacing:0px;word-spacing:0px;opacity:0.2;fill:#000000;fill-opacity:1;stroke:none;display:inline;font-family:BLOKK Neue;-inkscape-font-specification:BLOKK Neue"
         id="path3265" />
    </g>
    <path
       id="rect3940"
       d="m 20,18 0,3 0.5,0 C 21.331,21 22,20.331 22,19.5 22,18.669 21.331,18 20.5,18 z"
       style="opacity:0.2;fill:url(#radialGradient4330);fill-opacity:1;stroke:none" />
    <path
       id="rect3942"
       d="M 7.40625,18 C 6.6271875,18 6,18.627187 6,19.40625 l 0,0.1875 C 6,20.372813 6.6271875,21 7.40625,21 L 8,21 8,18 z"
       style="opacity:0.2;fill:url(#radialGradient4327);fill-opacity:1;stroke:none" />
    <path
       id="rect3938"
       d="m 8,18 12,0 0,3 -12,0 z"
       style="opacity:0.2;fill:url(#linearGradient4324);fill-opacity:1;stroke:none" />
    <path
       style="fill:url(#linearGradient4321);fill-opacity:1;stroke:none;display:inline"
       id="path4160-3"
       d="m 7.4999609,19.500039 c 3.8955811,0 13.0000591,-0.0014 13.0000591,-0.0014 l 2.1e-5,-14.998676 c 0,0 -7.333386,0 -13.0000801,0 0,7.000005 0,8.000008 0,15.000014 z" />
    <path
       style="opacity:0.41000001;fill:none;stroke:#000000;stroke-width:0.99992186;stroke-linecap:butt;stroke-linejoin:round;stroke-miterlimit:4;stroke-opacity:1;stroke-dasharray:none;stroke-dashoffset:0;display:inline"
       id="path4160-3-5"
       d="m 7.4999609,4.4999629 c 3.8955811,0 13.0000591,0.0014 13.0000591,0.0014 l 2.1e-5,14.9986761 c 0,0 -7.333386,0 -13.0000801,0 0,-7.000005 0,-8.000008 0,-15.0000141 z" />
    <path
       id="path3780"
       d="m 8,5 0,1 c 4.157995,7.52e-5 11.292656,-7.52e-5 12,0 l 0,-1 c -0.707344,-7.52e-5 -7.842005,7.52e-5 -12,0 z"
       style="opacity:0.4;fill:#ffffff;fill-opacity:1;stroke:none;display:inline" />
    <path
       id="rect3796"
       d="M 8,5 8,19 20,19 20,5 z M 9,6 19,6 19,18 9,18 z"
       style="opacity:0.4;fill:url(#linearGradient4316);fill-opacity:1" />
  </g>
  <g
     transform="translate(0,2)"
     id="layer2">
    <g
       transform="translate(1,-1)"
       id="g3176">
      <path
         id="path26173"
         style="font-size:2px;font-style:normal;font-variant:normal;font-weight:normal;font-stretch:normal;line-height:100%;letter-spacing:0px;word-spacing:0px;opacity:0.2;fill:#000000;fill-opacity:1;stroke:none;display:inline;font-family:BLOKK Neue;-inkscape-font-specification:BLOKK Neue"
         d="m 10,9 0,-0.859375 -1.28906,0 L 8.71094,9 10,9" />
      <path
         id="path26177"
         style="font-size:2px;font-style:normal;font-variant:normal;font-weight:normal;font-stretch:normal;line-height:100%;letter-spacing:0px;word-spacing:0px;opacity:0.2;fill:#000000;fill-opacity:1;stroke:none;display:inline;font-family:BLOKK Neue;-inkscape-font-specification:BLOKK Neue"
         d="m 12.5,9 0,-0.859375 -1.28906,0 L 11.21094,9 12.5,9" />
      <path
         id="path26179"
         style="font-size:2px;font-style:normal;font-variant:normal;font-weight:normal;font-stretch:normal;line-height:100%;letter-spacing:0px;word-spacing:0px;opacity:0.2;fill:#000000;fill-opacity:1;stroke:none;display:inline;font-family:BLOKK Neue;-inkscape-font-specification:BLOKK Neue"
         d="m 13.75,9 0,-0.859375 -1.28906,0 0,0.859375 1.28906,0" />
      <path
         id="path26181"
         style="font-size:2px;font-style:normal;font-variant:normal;font-weight:normal;font-stretch:normal;line-height:100%;letter-spacing:0px;word-spacing:0px;opacity:0.2;fill:#000000;fill-opacity:1;stroke:none;display:inline;font-family:BLOKK Neue;-inkscape-font-specification:BLOKK Neue"
         d="m 15,9 0,-0.859375 -1.28906,0 L 13.71094,9 15,9" />
      <path
         id="path26203"
         style="font-size:2px;font-style:normal;font-variant:normal;font-weight:normal;font-stretch:normal;line-height:100%;letter-spacing:0px;word-spacing:0px;opacity:0.2;fill:#000000;fill-opacity:1;stroke:none;display:inline;font-family:BLOKK Neue;-inkscape-font-specification:BLOKK Neue"
         d="m 10,10.999999 0,-0.859375 -1.28906,0 0,0.859375 1.28906,0" />
      <path
         id="path26205"
         style="font-size:2px;font-style:normal;font-variant:normal;font-weight:normal;font-stretch:normal;line-height:100%;letter-spacing:0px;word-spacing:0px;opacity:0.2;fill:#000000;fill-opacity:1;stroke:none;display:inline;font-family:BLOKK Neue;-inkscape-font-specification:BLOKK Neue"
         d="m 11.25,10.999999 0,-0.859375 -1.28906,0 0,0.859375 1.28906,0" />
      <path
         id="path26207"
         style="font-size:2px;font-style:normal;font-variant:normal;font-weight:normal;font-stretch:normal;line-height:100%;letter-spacing:0px;word-spacing:0px;opacity:0.2;fill:#000000;fill-opacity:1;stroke:none;display:inline;font-family:BLOKK Neue;-inkscape-font-specification:BLOKK Neue"
         d="m 12.5,10.999999 0,-0.859375 -1.28906,0 0,0.859375 1.28906,0" />
      <path
         id="path26209"
         style="font-size:2px;font-style:normal;font-variant:normal;font-weight:normal;font-stretch:normal;line-height:100%;letter-spacing:0px;word-spacing:0px;opacity:0.2;fill:#000000;fill-opacity:1;stroke:none;display:inline;font-family:BLOKK Neue;-inkscape-font-specification:BLOKK Neue"
         d="m 16.25781,10.999999 0,-0.859375 -1.28906,0 0,0.859375 1.28906,0" />
      <path
         id="path26211"
         style="font-size:2px;font-style:normal;font-variant:normal;font-weight:normal;font-stretch:normal;line-height:100%;letter-spacing:0px;word-spacing:0px;opacity:0.2;fill:#000000;fill-opacity:1;stroke:none;display:inline;font-family:BLOKK Neue;-inkscape-font-specification:BLOKK Neue"
         d="m 17.50781,10.999999 0,-0.859375 -1.28906,0 0,0.859375 1.28906,0" />
      <path
         id="path26219"
         style="font-size:2px;font-style:normal;font-variant:normal;font-weight:normal;font-stretch:normal;line-height:100%;letter-spacing:0px;word-spacing:0px;opacity:0.2;fill:#000000;fill-opacity:1;stroke:none;display:inline;font-family:BLOKK Neue;-inkscape-font-specification:BLOKK Neue"
         d="m 10,12.999999 0,-0.859375 -1.28906,0 0,0.859375 1.28906,0" />
      <path
         id="path26223"
         style="font-size:2px;font-style:normal;font-variant:normal;font-weight:normal;font-stretch:normal;line-height:100%;letter-spacing:0px;word-spacing:0px;opacity:0.2;fill:#000000;fill-opacity:1;stroke:none;display:inline;font-family:BLOKK Neue;-inkscape-font-specification:BLOKK Neue"
         d="m 12.5,12.999999 0,-0.859375 -1.28906,0 0,0.859375 1.28906,0" />
      <path
         id="path26225"
         style="font-size:2px;font-style:normal;font-variant:normal;font-weight:normal;font-stretch:normal;line-height:100%;letter-spacing:0px;word-spacing:0px;opacity:0.2;fill:#000000;fill-opacity:1;stroke:none;display:inline;font-family:BLOKK Neue;-inkscape-font-specification:BLOKK Neue"
         d="m 13.75,12.999999 0,-0.859375 -1.28906,0 0,0.859375 1.28906,0" />
      <path
         id="path26227"
         style="font-size:2px;font-style:normal;font-variant:normal;font-weight:normal;font-stretch:normal;line-height:100%;letter-spacing:0px;word-spacing:0px;opacity:0.2;fill:#000000;fill-opacity:1;stroke:none;display:inline;font-family:BLOKK Neue;-inkscape-font-specification:BLOKK Neue"
         d="m 15,12.999999 0,-0.859375 -1.28906,0 0,0.859375 1.28906,0" />
      <path
         id="path26229"
         style="font-size:2px;font-style:normal;font-variant:normal;font-weight:normal;font-stretch:normal;line-height:100%;letter-spacing:0px;word-spacing:0px;opacity:0.2;fill:#000000;fill-opacity:1;stroke:none;display:inline;font-family:BLOKK Neue;-inkscape-font-specification:BLOKK Neue"
         d="m 16.25,12.999999 0,-0.859375 -1.28906,0 0,0.859375 1.28906,0" />
      <path
         id="path26231"
         style="font-size:2px;font-style:normal;font-variant:normal;font-weight:normal;font-stretch:normal;line-height:100%;letter-spacing:0px;word-spacing:0px;opacity:0.2;fill:#000000;fill-opacity:1;stroke:none;display:inline;font-family:BLOKK Neue;-inkscape-font-specification:BLOKK Neue"
         d="m 17.5,12.999999 0,-0.859375 -1.28906,0 0,0.859375 1.28906,0" />
      <path
         id="path26241"
         style="font-size:2px;font-style:normal;font-variant:normal;font-weight:normal;font-stretch:normal;line-height:100%;letter-spacing:0px;word-spacing:0px;opacity:0.2;fill:#000000;fill-opacity:1;stroke:none;display:inline;font-family:BLOKK Neue;-inkscape-font-specification:BLOKK Neue"
         d="m 10,14.999999 0,-0.859375 -1.28906,0 0,0.859375 1.28906,0" />
      <path
         id="path26243"
         style="font-size:2px;font-style:normal;font-variant:normal;font-weight:normal;font-stretch:normal;line-height:100%;letter-spacing:0px;word-spacing:0px;opacity:0.2;fill:#000000;fill-opacity:1;stroke:none;display:inline;font-family:BLOKK Neue;-inkscape-font-specification:BLOKK Neue"
         d="m 11.25,14.999999 0,-0.859375 -1.28906,0 0,0.859375 1.28906,0" />
      <path
         id="path26247"
         style="font-size:2px;font-style:normal;font-variant:normal;font-weight:normal;font-stretch:normal;line-height:100%;letter-spacing:0px;word-spacing:0px;opacity:0.2;fill:#000000;fill-opacity:1;stroke:none;display:inline;font-family:BLOKK Neue;-inkscape-font-specification:BLOKK Neue"
         d="m 13.75,14.999999 0,-0.859375 -1.28906,0 0,0.859375 1.28906,0" />
      <path
         id="path26249"
         style="font-size:2px;font-style:normal;font-variant:normal;font-weight:normal;font-stretch:normal;line-height:100%;letter-spacing:0px;word-spacing:0px;opacity:0.2;fill:#000000;fill-opacity:1;stroke:none;display:inline;font-family:BLOKK Neue;-inkscape-font-specification:BLOKK Neue"
         d="m 15,14.999999 0,-0.859375 -1.28906,0 0,0.859375 1.28906,0" />
      <path
         id="path26251"
         style="font-size:2px;font-style:normal;font-variant:normal;font-weight:normal;font-stretch:normal;line-height:100%;letter-spacing:0px;word-spacing:0px;opacity:0.2;fill:#000000;fill-opacity:1;stroke:none;display:inline;font-family:BLOKK Neue;-inkscape-font-specification:BLOKK Neue"
         d="m 16.25,14.999999 0,-0.859375 -1.28906,0 0,0.859375 1.28906,0" />
      <path
         id="path26271"
         style="font-size:2px;font-style:normal;font-variant:normal;font-weight:normal;font-stretch:normal;line-height:100%;letter-spacing:0px;word-spacing:0px;opacity:0.2;fill:#000000;fill-opacity:1;stroke:none;display:inline;font-family:BLOKK Neue;-inkscape-font-specification:BLOKK Neue"
         d="m 10,16.999999 0,-0.859375 -1.28906,0 0,0.859375 1.28906,0" />
      <path
         id="path26273"
         style="font-size:2px;font-style:normal;font-variant:normal;font-weight:normal;font-stretch:normal;line-height:100%;letter-spacing:0px;word-spacing:0px;opacity:0.2;fill:#000000;fill-opacity:1;stroke:none;display:inline;font-family:BLOKK Neue;-inkscape-font-specification:BLOKK Neue"
         d="m 11.25,16.999999 0,-0.859375 -1.28906,0 0,0.859375 1.28906,0" />
      <path
         id="path26275"
         style="font-size:2px;font-style:normal;font-variant:normal;font-weight:normal;font-stretch:normal;line-height:100%;letter-spacing:0px;word-spacing:0px;opacity:0.2;fill:#000000;fill-opacity:1;stroke:none;display:inline;font-family:BLOKK Neue;-inkscape-font-specification:BLOKK Neue"
         d="m 12.5,16.999999 0,-0.859375 -1.28906,0 0,0.859375 1.28906,0" />
      <path
         id="path26279"
         style="font-size:2px;font-style:normal;font-variant:normal;font-weight:normal;font-stretch:normal;line-height:100%;letter-spacing:0px;word-spacing:0px;opacity:0.2;fill:#000000;fill-opacity:1;stroke:none;display:inline;font-family:BLOKK Neue;-inkscape-font-specification:BLOKK Neue"
         d="m 17.50781,14.999999 0,-0.859375 -1.28906,0 0,0.859375 1.28906,0" />
      <path
         d="m 17.50781,9 0,-0.859375 -1.28906,0 0,0.859375 1.28906,0"
         style="font-size:2px;font-style:normal;font-variant:normal;font-weight:normal;font-stretch:normal;line-height:100%;letter-spacing:0px;word-spacing:0px;opacity:0.2;fill:#000000;fill-opacity:1;stroke:none;display:inline;font-family:BLOKK Neue;-inkscape-font-specification:BLOKK Neue"
         id="path4457" />
      <path
         d="m 15,10.999999 0,-0.859375 -1.28906,0 0,0.859375 1.28906,0"
         style="font-size:2px;font-style:normal;font-variant:normal;font-weight:normal;font-stretch:normal;line-height:100%;letter-spacing:0px;word-spacing:0px;opacity:0.2;fill:#000000;fill-opacity:1;stroke:none;display:inline;font-family:BLOKK Neue;-inkscape-font-specification:BLOKK Neue"
         id="path4459" />
      <path
         d="m 13.75,16.999999 0,-0.859375 -1.28906,0 0,0.859375 1.28906,0"
         style="font-size:2px;font-style:normal;font-variant:normal;font-weight:normal;font-stretch:normal;line-height:100%;letter-spacing:0px;word-spacing:0px;opacity:0.2;fill:#000000;fill-opacity:1;stroke:none;display:inline;font-family:BLOKK Neue;-inkscape-font-specification:BLOKK Neue"
         id="path4461" />
      <path
         d="m 11.25,12.999999 0,-0.859375 -1.28906,0 0,0.859375 1.28906,0"
         style="font-size:2px;font-style:normal;font-variant:normal;font-weight:normal;font-stretch:normal;line-height:100%;letter-spacing:0px;word-spacing:0px;opacity:0.2;fill:#000000;fill-opacity:1;stroke:none;display:inline;font-family:BLOKK Neue;-inkscape-font-specification:BLOKK Neue"
         id="path3172" />
      <path
         id="path3174"
         style="font-size:2px;font-style:normal;font-variant:normal;font-weight:normal;font-stretch:normal;line-height:100%;letter-spacing:0px;word-spacing:0px;opacity:0.2;fill:#000000;fill-opacity:1;stroke:none;display:inline;font-family:BLOKK Neue;-inkscape-font-specification:BLOKK Neue"
         d="m 11.25,8.999999 0,-0.859375 -1.28906,0 0,0.859375 1.28906,0" />
    </g>
  </g>
</svg>
