<?xml version="1.0" encoding="UTF-8" standalone="no"?>
<svg xmlns="http://www.w3.org/2000/svg" xmlns:xlink="http://www.w3.org/1999/xlink" xmlns:sodipodi="http://sodipodi.sourceforge.net/DTD/sodipodi-0.dtd" xmlns:inkscape="http://www.inkscape.org/namespaces/inkscape" version="1.1" width="24" height="24">
 <defs id="defs3830">
  <linearGradient id="linearGradient4085" inkscape:collect="always">
   <stop id="stop4087" stop-color="#8f5902"/>
   <stop id="stop4089" offset="1" stop-color="#bf9450"/>
  </linearGradient>
  <linearGradient inkscape:collect="always" id="linearGradient3801">
   <stop id="stop3803" stop-color="#ffffff"/>
   <stop offset="1" id="stop3805" stop-color="#ffffff" stop-opacity="0"/>
  </linearGradient>
  <linearGradient id="linearGradient3988-5">
   <stop id="stop3990-5" stop-color="#ededed"/>
   <stop offset="1" id="stop3992-0" stop-color="#fafafa"/>
  </linearGradient>
  <linearGradient inkscape:collect="always" id="linearGradient3952">
   <stop id="stop3954"/>
   <stop offset="1" id="stop3956" stop-opacity="0"/>
  </linearGradient>
  <linearGradient id="linearGradient3960">
   <stop id="stop3962" stop-opacity="0"/>
   <stop id="stop3970" offset="0.5"/>
   <stop offset="1" id="stop3964" stop-opacity="0"/>
  </linearGradient>
  <linearGradient id="linearGradient5772-1">
   <stop id="stop5774-8" stop-color="#e2b369"/>
   <stop id="stop5776-7" offset="1" stop-color="#c79b55"/>
  </linearGradient>
  <linearGradient id="linearGradient3881-2-4-1">
   <stop id="stop3883-6-8-8" stop-color="#babdb6"/>
   <stop id="stop3895-6-7-4" offset="0.133" stop-color="#eeeeec"/>
   <stop id="stop3891-1-9-4" offset="0.531" stop-color="#babdb6"/>
   <stop offset="0.787" id="stop3893-0-9-8" stop-color="#eeeeec"/>
   <stop offset="1" id="stop3885-35-2-2" stop-color="#9c988a"/>
  </linearGradient>
  <linearGradient inkscape:collect="always" id="linearGradient3869-39-6-5">
   <stop id="stop3871-72-8-0" stop-color="#555753"/>
   <stop offset="1" id="stop3873-7-4-7" stop-color="#babdb6"/>
  </linearGradient>
  <radialGradient inkscape:collect="always" xlink:href="#linearGradient3952" id="radialGradient3174" gradientUnits="userSpaceOnUse" gradientTransform="matrix(1,0,0,0.75,-25,-14.125)" cx="40" cy="43.5" r="2"/>
  <radialGradient inkscape:collect="always" xlink:href="#linearGradient3952" id="radialGradient3176" gradientUnits="userSpaceOnUse" gradientTransform="matrix(1,0,0,0.75,-6,-14.125)" cx="9" cy="43.5" r="2"/>
  <linearGradient inkscape:collect="always" xlink:href="#linearGradient3960" id="linearGradient3178" gradientUnits="userSpaceOnUse" gradientTransform="translate(-12,-25)" y1="45" x2="0" y2="42"/>
  <linearGradient inkscape:collect="always" xlink:href="#linearGradient5772-1" id="linearGradient3180" gradientUnits="userSpaceOnUse" gradientTransform="matrix(0.48571543,0,0,0.45629579,-3.6571703,1.34887)" y1="0.985" x2="0" y2="47.01"/>
  <linearGradient inkscape:collect="always" xlink:href="#linearGradient3801" id="linearGradient3184" gradientUnits="userSpaceOnUse" gradientTransform="translate(-3,-2)" y1="0" x2="0" y2="22"/>
  <linearGradient inkscape:collect="always" xlink:href="#linearGradient3988-5" id="linearGradient3186" gradientUnits="userSpaceOnUse" gradientTransform="matrix(-0.48571543,0,0,-0.45629579,23.657169,20.651133)" y1="0.985" x2="0" y2="47.01"/>
  <linearGradient inkscape:collect="always" xlink:href="#linearGradient3801" id="linearGradient3188" gradientUnits="userSpaceOnUse" gradientTransform="matrix(-1,0,0,1,22.999999,-1.999999)" y1="0" x2="0" y2="22"/>
  <linearGradient inkscape:collect="always" xlink:href="#linearGradient3881-2-4-1" id="linearGradient3190" gradientUnits="userSpaceOnUse" gradientTransform="matrix(-0.49455742,0,0,0.50509861,21.637305,-1.7784213)" y1="3.519" x2="0" y2="11.541"/>
  <linearGradient inkscape:collect="always" xlink:href="#linearGradient3869-39-6-5" id="linearGradient3192" gradientUnits="userSpaceOnUse" gradientTransform="matrix(-0.49455742,0,0,0.50509861,21.637305,-2.7886185)" y1="14.11" x2="0" y2="0.352"/>
  <linearGradient inkscape:collect="always" xlink:href="#linearGradient3801" id="linearGradient3194" gradientUnits="userSpaceOnUse" gradientTransform="matrix(-0.33318613,0,0,0.50509861,17.662398,-1.0193848)" y1="3.998" x2="0" y2="8"/>
  <radialGradient inkscape:collect="always" xlink:href="#linearGradient3952" id="radialGradient3196" gradientUnits="userSpaceOnUse" gradientTransform="matrix(1,0,0,0.75,-21,-12.125)" cx="40" cy="43.5" r="2"/>
  <radialGradient inkscape:collect="always" xlink:href="#linearGradient3952" id="radialGradient3198" gradientUnits="userSpaceOnUse" gradientTransform="matrix(1,0,0,0.75,-2,-12.125)" cx="9" cy="43.5" r="2"/>
  <linearGradient inkscape:collect="always" xlink:href="#linearGradient3960" id="linearGradient3200" gradientUnits="userSpaceOnUse" gradientTransform="translate(-8,-23)" y1="45" x2="0" y2="42"/>
  <linearGradient inkscape:collect="always" xlink:href="#linearGradient3988-5" id="linearGradient3202" gradientUnits="userSpaceOnUse" gradientTransform="matrix(0.48571543,0,0,-0.45629579,0.34283,22.651132)" y1="0.985" x2="0" y2="47.01"/>
  <linearGradient inkscape:collect="always" xlink:href="#linearGradient3801" id="linearGradient3204" gradientUnits="userSpaceOnUse" gradientTransform="translate(1,0)" y1="0" x2="0" y2="22"/>
  <linearGradient inkscape:collect="always" xlink:href="#linearGradient4085" id="linearGradient4083" y1="18.5" x2="0" y2="2.5" gradientUnits="userSpaceOnUse"/>
 </defs>
 <metadata id="metadata3833"/>
 <g inkscape:groupmode="layer" id="layer1" inkscape:label="Background" transform="translate(0,2)">
  <g id="g3165" transform="translate(-3,-5)">
   <path sodipodi:nodetypes="ccsssc" inkscape:connector-curvature="0" id="rect3940" d="m 19,19 0,3 0.5,0 C 20.331,22 21,21.331 21,20.5 21,19.669 20.331,19 19.5,19 z" opacity="0.2" fill="url(#radialGradient3196)"/>
   <path sodipodi:nodetypes="ssssccs" inkscape:connector-curvature="0" id="rect3942" d="M 6.40625,19 C 5.627187,19 5,19.627187 5,20.40625 l 0,0.1875 C 5,21.372813 5.627187,22 6.40625,22 L 7,22 7,19 z" opacity="0.2" fill="url(#radialGradient3198)"/>
   <path sodipodi:nodetypes="ccccc" inkscape:connector-curvature="0" id="rect3938" d="m 7,19 12,0 0,3 -12,0 z" opacity="0.2" fill="url(#linearGradient3200)"/>
   <path sodipodi:nodetypes="ccccsc" id="path4160-3" inkscape:connector-curvature="0" d="m 6.499961,20.500039 c 3.895581,0 13.000059,-0.0014 13.000059,-0.0014 l 2.1e-5,-14.998676 c 0,0 -7.333386,0 -13.00008,0 0,7.000005 0,8.000008 0,15.000014 z" fill="url(#linearGradient3202)"/>
   <path sodipodi:nodetypes="ccccsc" id="path4160-3-5" inkscape:connector-curvature="0" d="m 6.499961,5.4999629 c 3.895581,0 13.000059,0.0014 13.000059,0.0014 l 2.1e-5,14.9986761 c 0,0 -7.333386,0 -13.00008,0 0,-7.000005 0,-8.000008 0,-15.0000141 z" opacity="0.41" fill="none" stroke="#000000" stroke-linejoin="round"/>
   <path sodipodi:nodetypes="ccccc" inkscape:connector-curvature="0" id="path3780" d="m 7,6 0,1 c 4.157995,7.52e-5 11.292656,-7.52e-5 12,0 l 0,-1 c -0.707344,-7.52e-5 -7.842005,7.52e-5 -12,0 z" opacity="0.4" fill="#ffffff"/>
   <path sodipodi:nodetypes="cccccccccc" inkscape:connector-curvature="0" id="rect3796" d="M 7,6 7,20 19,20 19,6 z M 8,7 18,7 18,19 8,19 z" opacity="0.4" fill="url(#linearGradient3204)"/>
  </g>
  <g id="g3129" transform="translate(5,3)">
   <g transform="translate(0,-2)" id="g4349">
    <path sodipodi:nodetypes="ccsssc" inkscape:connector-curvature="0" id="path4281" d="m 15,17 0,3 0.5,0 C 16.331,20 17,19.331 17,18.5 17,17.669 16.331,17 15.5,17 z" opacity="0.2" fill="url(#radialGradient3174)"/>
    <path sodipodi:nodetypes="ssssccs" inkscape:connector-curvature="0" id="path4283" d="M 2.40625,17 C 1.6271875,17 1,17.627187 1,18.40625 l 0,0.1875 C 1,19.372813 1.6271875,20 2.40625,20 L 3,20 3,17 z" opacity="0.2" fill="url(#radialGradient3176)"/>
    <path sodipodi:nodetypes="ccccc" inkscape:connector-curvature="0" id="path4285" d="m 3,17 12,0 0,3 -12,0 z" opacity="0.2" fill="url(#linearGradient3178)"/>
    <path sodipodi:nodetypes="ccccccccc" id="path4287" inkscape:connector-curvature="0" d="m 3,3.5 12,0 c 0,0 0.5,0 0.5,0.5 l 0,14 c 0,0.5 -0.5,0.5 -0.5,0.5 l -12,0 c 0,0 -0.5,0 -0.5,-0.5 l 0,-14 c 0,0 0,-0.5 0.5,-0.5 z" fill="url(#linearGradient3180)"/>
    <path sodipodi:nodetypes="cccccccccc" inkscape:connector-curvature="0" id="path4293" d="M 3,4 3,18 15,18 15,4 z M 4,5 14,5 14,17 4,17 z" opacity="0.2" fill="url(#linearGradient3184)"/>
    <path sodipodi:nodetypes="ccccc" inkscape:connector-curvature="0" id="path4291" d="m 3,4 0,1 c 4.157995,7.52e-5 11.292656,-7.52e-5 12,0 l 0,-1 c -0.707344,-7.52e-5 -7.842005,7.52e-5 -12,0 z" opacity="0.2" fill="#ffffff"/>
    <path d="m 3,3.5 12,0 c 0,0 0.5,0 0.5,0.5 l 0,14 c 0,0.5 -0.5,0.5 -0.5,0.5 l -12,0 c 0,0 -0.5,0 -0.5,-0.5 l 0,-14 c 0,0 0,-0.5 0.5,-0.5 z" inkscape:connector-curvature="0" id="path3307" sodipodi:nodetypes="ccccccccc" opacity="0.81" fill="none" stroke="url(#linearGradient4083)"/>
   </g>
   <g transform="matrix(-1,0,0,1,22,-1.0000009)" id="g3985">
    <path sodipodi:nodetypes="ccccsc" id="path3973" inkscape:connector-curvature="0" d="m 17.500038,14.50004 c -3.895581,0 -9.0000589,-0.0014 -9.0000589,-0.0014 l -2.1e-5,-10.998676 c 0,0 3.3333859,0 9.0000799,0 0,7.000005 0,4.000008 0,11.000014 z" fill="url(#linearGradient3186)"/>
    <path sodipodi:nodetypes="ccccsc" id="path3975" inkscape:connector-curvature="0" d="m 17.500038,3.4999639 c -3.895581,0 -9.0000589,0.0014 -9.0000589,0.0014 l -2.1e-5,10.9986761 c 0,0 3.3333859,0 9.0000799,0 0,-7.000005 0,-4.000008 0,-11.0000141 z" opacity="0.31" fill="none" stroke="#000000" stroke-linejoin="round"/>
    <path sodipodi:nodetypes="ccccc" inkscape:connector-curvature="0" id="path3977" d="m 16.999999,4.000001 0,1 c -4.157995,7.52e-5 -7.2926559,-7.52e-5 -7.9999999,0 l 0,-1 c 0.707344,-7.52e-5 3.8420049,7.52e-5 7.9999999,0 z" opacity="0.4" fill="#ffffff"/>
    <path sodipodi:nodetypes="cccccccccc" inkscape:connector-curvature="0" id="path3979" d="m 16.999999,4.000001 0,10 -7.9999999,0 0,-10 z m -1,1 -5.9999999,0 0,8 5.9999999,0 z" opacity="0.4" fill="url(#linearGradient3188)"/>
   </g>
   <path inkscape:connector-curvature="0" d="m 6.000003,5.5000229 c -0.500002,0 -0.500002,-0.9999993 -0.500002,-0.9999993 l 1,-0.9999992 0,-1.0000044 c 0,-0.4154991 0.501981,-0.9999992 1,-0.9999992 l 2.999999,0 c 0.599611,0 1,0.5893692 1,0.9999992 l 0,1.0000044 1,0.9999992 c 0,0 0,0.9999993 -0.499997,0.9999993 z" id="path5584-8-6-5" sodipodi:nodetypes="ccccccccccc" opacity="0.1" display="block" color="#000000" stroke="#000000"/>
   <path inkscape:connector-curvature="0" d="m 6.000003,4.5000201 c -0.500002,0 -0.500002,-0.9999993 -0.500002,-0.9999993 l 1,-0.9999998 0,-1.0000002 c 0,-0.4155012 0.501981,-0.99999983 1,-0.99999983 l 2.999999,0 c 0.599611,0 1,0.58937133 1,0.99999923 l 0,1.0000008 1,0.9999988 c 0,0 0,1.0000003 -0.499997,1.0000003 z" id="path5584-8-6" sodipodi:nodetypes="ccccccccccc" fill="url(#linearGradient3190)" display="block" stroke="url(#linearGradient3192)" color="#000000"/>
   <rect transform="scale(-1,1)" height="1" id="rect5594-4-8" rx="0.276" ry="0.5" width="5.104" x="-12.07" y="3" opacity="0.5" fill="#ffffff" display="block" color="#000000"/>
   <path inkscape:connector-curvature="0" d="m 10.998672,3.021404 0,-1.5152958 c 0.01316,-0.3189981 -0.06929,-0.5220775 -0.333178,-0.5050986 l -3.332302,0 C 7.178905,1.0383166 7.019326,1.0595906 7.000004,1.5061082 l 0,1.5152958 0.333188,-1.0309209 3.332302,0 z" id="path5377-6-6" sodipodi:nodetypes="ccccccccc" fill="url(#linearGradient3194)" color="#000000"/>
   <g transform="matrix(-1,0,0,1,21.75,-0.429688)" id="g4032">
    <path id="path26173" d="m 11.03906,5.4296875 0,-0.859375 -1.28906,0 0,0.859375 1.28906,0" inkscape:connector-curvature="0" opacity="0.2"/>
    <path id="path26177" d="m 13.53906,5.4296875 0,-0.859375 -1.28906,0 0,0.859375 1.28906,0" inkscape:connector-curvature="0" opacity="0.2"/>
    <path id="path26179" d="m 14.78906,5.4296875 0,-0.859375 -1.28906,0 0,0.859375 1.28906,0" inkscape:connector-curvature="0" opacity="0.2"/>
    <path id="path26181" d="m 16.03906,5.4296875 0,-0.859375 -1.28906,0 0,0.859375 1.28906,0" inkscape:connector-curvature="0" opacity="0.2"/>
    <path id="path26203" d="m 11.03906,7.4296875 0,-0.859375 -1.28906,0 0,0.859375 1.28906,0" inkscape:connector-curvature="0" opacity="0.2"/>
    <path id="path26205" d="m 12.28906,7.4296875 0,-0.859375 -1.28906,0 0,0.859375 1.28906,0" inkscape:connector-curvature="0" opacity="0.2"/>
    <path id="path26207" d="m 13.53906,7.4296875 0,-0.859375 -1.28906,0 0,0.859375 1.28906,0" inkscape:connector-curvature="0" opacity="0.2"/>
    <path id="path26219" d="m 11.03906,9.4296875 0,-0.859375 -1.28906,0 0,0.859375 1.28906,0" inkscape:connector-curvature="0" opacity="0.2"/>
    <path id="path26223" d="m 13.53906,9.4296875 0,-0.859375 -1.28906,0 0,0.859375 1.28906,0" inkscape:connector-curvature="0" opacity="0.2"/>
    <path id="path26225" d="m 14.78906,9.4296875 0,-0.859375 -1.28906,0 0,0.859375 1.28906,0" inkscape:connector-curvature="0" opacity="0.2"/>
    <path id="path26227" d="m 16.03906,9.4296875 0,-0.859375 -1.28906,0 0,0.859375 1.28906,0" inkscape:connector-curvature="0" opacity="0.2"/>
    <path id="path26241" d="m 11.03906,11.429688 0,-0.859375 -1.28906,0 0,0.859375 1.28906,0" inkscape:connector-curvature="0" opacity="0.2"/>
    <path id="path26243" d="m 12.28906,11.429688 0,-0.859375 -1.28906,0 0,0.859375 1.28906,0" inkscape:connector-curvature="0" opacity="0.2"/>
    <path id="path26247" d="m 14.78906,11.429688 0,-0.859375 -1.28906,0 0,0.859375 1.28906,0" inkscape:connector-curvature="0" opacity="0.2"/>
    <path id="path26249" d="m 16.03906,11.429688 0,-0.859375 -1.28906,0 0,0.859375 1.28906,0" inkscape:connector-curvature="0" opacity="0.2"/>
    <path inkscape:connector-curvature="0" d="m 16.03906,7.4296875 0,-0.859375 -1.28906,0 0,0.859375 1.28906,0" id="path4459" opacity="0.2"/>
   </g>
  </g>
 </g>
</svg>
