<?xml version="1.0" encoding="UTF-8" standalone="no"?>
<svg xmlns="http://www.w3.org/2000/svg" xmlns:xlink="http://www.w3.org/1999/xlink" xmlns:sodipodi="http://sodipodi.sourceforge.net/DTD/sodipodi-0.dtd" xmlns:inkscape="http://www.inkscape.org/namespaces/inkscape" version="1.1" width="24" height="24">
 <defs id="defs3830">
  <linearGradient inkscape:collect="always" id="linearGradient3801">
   <stop id="stop3803" stop-color="#ffffff"/>
   <stop offset="1" id="stop3805" stop-color="#ffffff" stop-opacity="0"/>
  </linearGradient>
  <linearGradient id="linearGradient3977">
   <stop id="stop3979" stop-color="#ffffff"/>
   <stop id="stop3981" offset="0.036" stop-color="#ffffff" stop-opacity="0.235"/>
   <stop id="stop3983" offset="0.951" stop-color="#ffffff" stop-opacity="0.157"/>
   <stop id="stop3985" offset="1" stop-color="#ffffff" stop-opacity="0.392"/>
  </linearGradient>
  <linearGradient id="linearGradient3600-4">
   <stop id="stop3602-7" stop-color="#f4f4f4"/>
   <stop id="stop3604-6" offset="1" stop-color="#dbdbdb"/>
  </linearGradient>
  <linearGradient y1="5.564" x2="0" y2="43" id="linearGradient3000" xlink:href="#linearGradient3977" gradientUnits="userSpaceOnUse" gradientTransform="matrix(0.40540511,0,0,0.51351253,1.2696879,-1.32431)"/>
  <linearGradient y1="0.985" x2="0" y2="47.01" id="linearGradient3003" xlink:href="#linearGradient3988-5" gradientUnits="userSpaceOnUse" gradientTransform="matrix(0.48571543,0,0,-0.45629579,-0.6571703,22.651132)"/>
  <linearGradient inkscape:collect="always" xlink:href="#linearGradient3988-5" id="linearGradient3158" gradientUnits="userSpaceOnUse" gradientTransform="matrix(0.175,0,0,0.175,-1.20002,-6.0000326)" y1="280" x2="0" y2="40"/>
  <linearGradient id="linearGradient3988-5">
   <stop id="stop3990-5" stop-color="#ededed"/>
   <stop offset="1" id="stop3992-0" stop-color="#fafafa"/>
  </linearGradient>
  <linearGradient inkscape:collect="always" xlink:href="#linearGradient3801" id="linearGradient3807" y1="0" x2="0" y2="22" gradientUnits="userSpaceOnUse"/>
  <radialGradient inkscape:collect="always" xlink:href="#linearGradient6557" id="radialGradient3981" gradientUnits="userSpaceOnUse" cx="311.47" cy="828.53" r="3.281"/>
  <linearGradient id="linearGradient6557">
   <stop id="stop6559" stop-color="#fce94f"/>
   <stop id="stop6565" offset="0.673" stop-color="#fce94f"/>
   <stop offset="1" id="stop6561" stop-color="#fce94f" stop-opacity="0"/>
  </linearGradient>
  <linearGradient id="linearGradient6620">
   <stop id="stop6622" stop-color="#ffffff"/>
   <stop offset="0.33" id="stop6624" stop-color="#ffffff"/>
   <stop id="stop6626" offset="1" stop-color="#fce94f"/>
  </linearGradient>
  <linearGradient inkscape:collect="always" id="linearGradient3952">
   <stop id="stop3954"/>
   <stop offset="1" id="stop3956" stop-opacity="0"/>
  </linearGradient>
  <linearGradient inkscape:collect="always" xlink:href="#linearGradient3960" id="linearGradient3051" gradientUnits="userSpaceOnUse" gradientTransform="matrix(1.1428571,0,0,1,-11.857143,2)" y1="45" x2="0" y2="42"/>
  <linearGradient id="linearGradient3960">
   <stop id="stop3962" stop-opacity="0"/>
   <stop id="stop3970" offset="0.5"/>
   <stop offset="1" id="stop3964" stop-opacity="0"/>
  </linearGradient>
  <linearGradient inkscape:collect="always" xlink:href="#linearGradient3960" id="linearGradient3320" gradientUnits="userSpaceOnUse" gradientTransform="translate(-9,-23)" y1="45" x2="0" y2="42"/>
  <radialGradient inkscape:collect="always" xlink:href="#linearGradient3952" id="radialGradient3323" gradientUnits="userSpaceOnUse" gradientTransform="matrix(1,0,0,0.75,-5,-12.125)" cx="9" cy="43.5" r="2"/>
  <radialGradient inkscape:collect="always" xlink:href="#linearGradient3952" id="radialGradient3326" gradientUnits="userSpaceOnUse" gradientTransform="matrix(1,0,0,0.75,-22,-12.125)" cx="40" cy="43.5" r="2"/>
  <radialGradient inkscape:collect="always" xlink:href="#linearGradient3952" id="radialGradient4265" gradientUnits="userSpaceOnUse" gradientTransform="matrix(1,0,0,0.75,-3,-12.125)" cx="9" cy="43.5" r="2"/>
  <linearGradient inkscape:collect="always" xlink:href="#linearGradient3801" id="linearGradient4316" gradientUnits="userSpaceOnUse" y1="0" x2="0" y2="22" gradientTransform="translate(2,-1)"/>
  <linearGradient inkscape:collect="always" xlink:href="#linearGradient3988-5" id="linearGradient4321" gradientUnits="userSpaceOnUse" gradientTransform="matrix(0.48571543,0,0,-0.45629579,1.3428297,21.651132)" y1="0.985" x2="0" y2="47.01"/>
  <linearGradient inkscape:collect="always" xlink:href="#linearGradient3960" id="linearGradient4324" gradientUnits="userSpaceOnUse" gradientTransform="translate(-7,-24)" y1="45" x2="0" y2="42"/>
  <radialGradient inkscape:collect="always" xlink:href="#linearGradient3952" id="radialGradient4327" gradientUnits="userSpaceOnUse" gradientTransform="matrix(1,0,0,0.75,-1,-13.125)" cx="9" cy="43.5" r="2"/>
  <radialGradient inkscape:collect="always" xlink:href="#linearGradient3952" id="radialGradient4330" gradientUnits="userSpaceOnUse" gradientTransform="matrix(1,0,0,0.75,-20,-13.125)" cx="40" cy="43.5" r="2"/>
  <linearGradient inkscape:collect="always" xlink:href="#linearGradient3801" id="linearGradient4333" gradientUnits="userSpaceOnUse" y1="0" x2="0" y2="22" gradientTransform="translate(-3,-2)"/>
  <linearGradient inkscape:collect="always" xlink:href="#linearGradient3988-5" id="linearGradient4338" gradientUnits="userSpaceOnUse" gradientTransform="matrix(0.48571543,0,0,-0.45629579,-3.6571703,20.651132)" y1="0.985" x2="0" y2="47.01"/>
  <linearGradient inkscape:collect="always" xlink:href="#linearGradient3960" id="linearGradient4341" gradientUnits="userSpaceOnUse" gradientTransform="translate(-12,-25)" y1="45" x2="0" y2="42"/>
  <radialGradient inkscape:collect="always" xlink:href="#linearGradient3952" id="radialGradient4344" gradientUnits="userSpaceOnUse" gradientTransform="matrix(1,0,0,0.75,-6,-14.125)" cx="9" cy="43.5" r="2"/>
  <radialGradient inkscape:collect="always" xlink:href="#linearGradient3952" id="radialGradient4347" gradientUnits="userSpaceOnUse" gradientTransform="matrix(1,0,0,0.75,-25,-14.125)" cx="40" cy="43.5" r="2"/>
 </defs>
 <metadata id="metadata3833"/>
 <g inkscape:groupmode="layer" id="layer1" inkscape:label="Background" transform="translate(0,2)">
  <g id="g4349" transform="translate(1,-3)">
   <path d="m 15,17 0,3 0.5,0 C 16.331,20 17,19.331 17,18.5 17,17.669 16.331,17 15.5,17 z" id="path4281" inkscape:connector-curvature="0" sodipodi:nodetypes="ccsssc" opacity="0.2" fill="url(#radialGradient4347)"/>
   <path d="M 2.40625,17 C 1.6271875,17 1,17.627187 1,18.40625 l 0,0.1875 C 1,19.372813 1.6271875,20 2.40625,20 L 3,20 3,17 z" id="path4283" inkscape:connector-curvature="0" sodipodi:nodetypes="ssssccs" opacity="0.2" fill="url(#radialGradient4344)"/>
   <path d="m 3,17 12,0 0,3 -12,0 z" id="path4285" inkscape:connector-curvature="0" sodipodi:nodetypes="ccccc" opacity="0.2" fill="url(#linearGradient4341)"/>
   <path d="m 2.4999609,18.500039 c 3.8955809,0 13.0000591,-0.0014 13.0000591,-0.0014 l 2.1e-5,-14.998676 c 0,0 -7.333386,0 -13.0000801,0 0,7.000005 0,8.000008 0,15.000014 z" inkscape:connector-curvature="0" id="path4287" sodipodi:nodetypes="ccccsc" fill="url(#linearGradient4338)"/>
   <path d="m 2.4999609,3.4999629 c 3.8955809,0 13.0000591,0.0014 13.0000591,0.0014 l 2.1e-5,14.9986761 c 0,0 -7.333386,0 -13.0000801,0 0,-7.000005 0,-8.000008 0,-15.0000141 z" inkscape:connector-curvature="0" id="path4289" sodipodi:nodetypes="ccccsc" opacity="0.41" fill="none" stroke="#000000" stroke-linejoin="round"/>
   <path d="m 3,4 0,1 c 4.157995,7.52e-5 11.292656,-7.52e-5 12,0 l 0,-1 c -0.707344,-7.52e-5 -7.842005,7.52e-5 -12,0 z" id="path4291" inkscape:connector-curvature="0" sodipodi:nodetypes="ccccc" opacity="0.4" fill="#ffffff"/>
   <path d="M 3,4 3,18 15,18 15,4 z M 4,5 14,5 14,17 4,17 z" id="path4293" inkscape:connector-curvature="0" sodipodi:nodetypes="cccccccccc" opacity="0.4" fill="url(#linearGradient4333)"/>
  </g>
  <g id="g3207" transform="translate(-3,-5)">
   <path id="path3209" d="m 10,9 0,-0.859375 -1.28906,0 L 8.71094,9 10,9" inkscape:connector-curvature="0" opacity="0.2"/>
   <path id="path3211" d="m 12.5,9 0,-0.859375 -1.28906,0 L 11.21094,9 12.5,9" inkscape:connector-curvature="0" opacity="0.2"/>
   <path id="path3213" d="m 13.75,9 0,-0.859375 -1.28906,0 0,0.859375 1.28906,0" inkscape:connector-curvature="0" opacity="0.2"/>
   <path id="path3215" d="m 15,9 0,-0.859375 -1.28906,0 L 13.71094,9 15,9" inkscape:connector-curvature="0" opacity="0.2"/>
   <path id="path3217" d="m 10,10.999999 0,-0.859375 -1.28906,0 0,0.859375 1.28906,0" inkscape:connector-curvature="0" opacity="0.2"/>
   <path id="path3219" d="m 11.25,10.999999 0,-0.859375 -1.28906,0 0,0.859375 1.28906,0" inkscape:connector-curvature="0" opacity="0.2"/>
   <path id="path3221" d="m 12.5,10.999999 0,-0.859375 -1.28906,0 0,0.859375 1.28906,0" inkscape:connector-curvature="0" opacity="0.2"/>
   <path id="path3223" d="m 16.25781,10.999999 0,-0.859375 -1.28906,0 0,0.859375 1.28906,0" inkscape:connector-curvature="0" opacity="0.2"/>
   <path id="path3225" d="m 17.50781,10.999999 0,-0.859375 -1.28906,0 0,0.859375 1.28906,0" inkscape:connector-curvature="0" opacity="0.2"/>
   <path id="path3227" d="m 10,12.999999 0,-0.859375 -1.28906,0 0,0.859375 1.28906,0" inkscape:connector-curvature="0" opacity="0.2"/>
   <path id="path3229" d="m 12.5,12.999999 0,-0.859375 -1.28906,0 0,0.859375 1.28906,0" inkscape:connector-curvature="0" opacity="0.2"/>
   <path id="path3231" d="m 13.75,12.999999 0,-0.859375 -1.28906,0 0,0.859375 1.28906,0" inkscape:connector-curvature="0" opacity="0.2"/>
   <path id="path3233" d="m 15,12.999999 0,-0.859375 -1.28906,0 0,0.859375 1.28906,0" inkscape:connector-curvature="0" opacity="0.2"/>
   <path id="path3235" d="m 16.25,12.999999 0,-0.859375 -1.28906,0 0,0.859375 1.28906,0" inkscape:connector-curvature="0" opacity="0.2"/>
   <path id="path3237" d="m 17.5,12.999999 0,-0.859375 -1.28906,0 0,0.859375 1.28906,0" inkscape:connector-curvature="0" opacity="0.2"/>
   <path id="path3239" d="m 10,14.999999 0,-0.859375 -1.28906,0 0,0.859375 1.28906,0" inkscape:connector-curvature="0" opacity="0.2"/>
   <path id="path3241" d="m 11.25,14.999999 0,-0.859375 -1.28906,0 0,0.859375 1.28906,0" inkscape:connector-curvature="0" opacity="0.2"/>
   <path id="path3243" d="m 13.75,14.999999 0,-0.859375 -1.28906,0 0,0.859375 1.28906,0" inkscape:connector-curvature="0" opacity="0.2"/>
   <path id="path3245" d="m 15,14.999999 0,-0.859375 -1.28906,0 0,0.859375 1.28906,0" inkscape:connector-curvature="0" opacity="0.2"/>
   <path id="path3247" d="m 16.25,14.999999 0,-0.859375 -1.28906,0 0,0.859375 1.28906,0" inkscape:connector-curvature="0" opacity="0.2"/>
   <path id="path3249" d="m 10,16.999999 0,-0.859375 -1.28906,0 0,0.859375 1.28906,0" inkscape:connector-curvature="0" opacity="0.2"/>
   <path id="path3251" d="m 11.25,16.999999 0,-0.859375 -1.28906,0 0,0.859375 1.28906,0" inkscape:connector-curvature="0" opacity="0.2"/>
   <path id="path3253" d="m 12.5,16.999999 0,-0.859375 -1.28906,0 0,0.859375 1.28906,0" inkscape:connector-curvature="0" opacity="0.2"/>
   <path id="path3255" d="m 17.50781,14.999999 0,-0.859375 -1.28906,0 0,0.859375 1.28906,0" inkscape:connector-curvature="0" opacity="0.2"/>
   <path inkscape:connector-curvature="0" d="m 17.50781,9 0,-0.859375 -1.28906,0 0,0.859375 1.28906,0" id="path3257" opacity="0.2"/>
   <path inkscape:connector-curvature="0" d="m 15,10.999999 0,-0.859375 -1.28906,0 0,0.859375 1.28906,0" id="path3259" opacity="0.2"/>
   <path inkscape:connector-curvature="0" d="m 13.75,16.999999 0,-0.859375 -1.28906,0 0,0.859375 1.28906,0" id="path3261" opacity="0.2"/>
   <path inkscape:connector-curvature="0" d="m 11.25,12.999999 0,-0.859375 -1.28906,0 0,0.859375 1.28906,0" id="path3263" opacity="0.2"/>
   <path id="path3265" d="m 11.25,8.999999 0,-0.859375 -1.28906,0 0,0.859375 1.28906,0" inkscape:connector-curvature="0" opacity="0.2"/>
  </g>
  <path d="m 20,18 0,3 0.5,0 C 21.331,21 22,20.331 22,19.5 22,18.669 21.331,18 20.5,18 z" id="rect3940" inkscape:connector-curvature="0" sodipodi:nodetypes="ccsssc" opacity="0.2" fill="url(#radialGradient4330)"/>
  <path d="M 7.40625,18 C 6.6271875,18 6,18.627187 6,19.40625 l 0,0.1875 C 6,20.372813 6.6271875,21 7.40625,21 L 8,21 8,18 z" id="rect3942" inkscape:connector-curvature="0" sodipodi:nodetypes="ssssccs" opacity="0.2" fill="url(#radialGradient4327)"/>
  <path d="m 8,18 12,0 0,3 -12,0 z" id="rect3938" inkscape:connector-curvature="0" sodipodi:nodetypes="ccccc" opacity="0.2" fill="url(#linearGradient4324)"/>
  <path d="m 7.4999609,19.500039 c 3.8955811,0 13.0000591,-0.0014 13.0000591,-0.0014 l 2.1e-5,-14.998676 c 0,0 -7.333386,0 -13.0000801,0 0,7.000005 0,8.000008 0,15.000014 z" inkscape:connector-curvature="0" id="path4160-3" sodipodi:nodetypes="ccccsc" fill="url(#linearGradient4321)"/>
  <path d="m 7.4999609,4.4999629 c 3.8955811,0 13.0000591,0.0014 13.0000591,0.0014 l 2.1e-5,14.9986761 c 0,0 -7.333386,0 -13.0000801,0 0,-7.000005 0,-8.000008 0,-15.0000141 z" inkscape:connector-curvature="0" id="path4160-3-5" sodipodi:nodetypes="ccccsc" opacity="0.41" fill="none" stroke="#000000" stroke-linejoin="round"/>
  <path d="m 8,5 0,1 c 4.157995,7.52e-5 11.292656,-7.52e-5 12,0 l 0,-1 c -0.707344,-7.52e-5 -7.842005,7.52e-5 -12,0 z" id="path3780" inkscape:connector-curvature="0" sodipodi:nodetypes="ccccc" opacity="0.4" fill="#ffffff"/>
  <path d="M 8,5 8,19 20,19 20,5 z M 9,6 19,6 19,18 9,18 z" id="rect3796" inkscape:connector-curvature="0" sodipodi:nodetypes="cccccccccc" opacity="0.4" fill="url(#linearGradient4316)"/>
 </g>
 <g inkscape:groupmode="layer" id="layer2" inkscape:label="Symbol" transform="translate(0,2)">
  <g id="g3176" transform="translate(1,-1)">
   <path inkscape:connector-curvature="0" d="m 10,9 0,-0.859375 -1.28906,0 L 8.71094,9 10,9" id="path26173" opacity="0.2"/>
   <path inkscape:connector-curvature="0" d="m 12.5,9 0,-0.859375 -1.28906,0 L 11.21094,9 12.5,9" id="path26177" opacity="0.2"/>
   <path inkscape:connector-curvature="0" d="m 13.75,9 0,-0.859375 -1.28906,0 0,0.859375 1.28906,0" id="path26179" opacity="0.2"/>
   <path inkscape:connector-curvature="0" d="m 15,9 0,-0.859375 -1.28906,0 L 13.71094,9 15,9" id="path26181" opacity="0.2"/>
   <path inkscape:connector-curvature="0" d="m 10,10.999999 0,-0.859375 -1.28906,0 0,0.859375 1.28906,0" id="path26203" opacity="0.2"/>
   <path inkscape:connector-curvature="0" d="m 11.25,10.999999 0,-0.859375 -1.28906,0 0,0.859375 1.28906,0" id="path26205" opacity="0.2"/>
   <path inkscape:connector-curvature="0" d="m 12.5,10.999999 0,-0.859375 -1.28906,0 0,0.859375 1.28906,0" id="path26207" opacity="0.2"/>
   <path inkscape:connector-curvature="0" d="m 16.25781,10.999999 0,-0.859375 -1.28906,0 0,0.859375 1.28906,0" id="path26209" opacity="0.2"/>
   <path inkscape:connector-curvature="0" d="m 17.50781,10.999999 0,-0.859375 -1.28906,0 0,0.859375 1.28906,0" id="path26211" opacity="0.2"/>
   <path inkscape:connector-curvature="0" d="m 10,12.999999 0,-0.859375 -1.28906,0 0,0.859375 1.28906,0" id="path26219" opacity="0.2"/>
   <path inkscape:connector-curvature="0" d="m 12.5,12.999999 0,-0.859375 -1.28906,0 0,0.859375 1.28906,0" id="path26223" opacity="0.2"/>
   <path inkscape:connector-curvature="0" d="m 13.75,12.999999 0,-0.859375 -1.28906,0 0,0.859375 1.28906,0" id="path26225" opacity="0.2"/>
   <path inkscape:connector-curvature="0" d="m 15,12.999999 0,-0.859375 -1.28906,0 0,0.859375 1.28906,0" id="path26227" opacity="0.2"/>
   <path inkscape:connector-curvature="0" d="m 16.25,12.999999 0,-0.859375 -1.28906,0 0,0.859375 1.28906,0" id="path26229" opacity="0.2"/>
   <path inkscape:connector-curvature="0" d="m 17.5,12.999999 0,-0.859375 -1.28906,0 0,0.859375 1.28906,0" id="path26231" opacity="0.2"/>
   <path inkscape:connector-curvature="0" d="m 10,14.999999 0,-0.859375 -1.28906,0 0,0.859375 1.28906,0" id="path26241" opacity="0.2"/>
   <path inkscape:connector-curvature="0" d="m 11.25,14.999999 0,-0.859375 -1.28906,0 0,0.859375 1.28906,0" id="path26243" opacity="0.2"/>
   <path inkscape:connector-curvature="0" d="m 13.75,14.999999 0,-0.859375 -1.28906,0 0,0.859375 1.28906,0" id="path26247" opacity="0.2"/>
   <path inkscape:connector-curvature="0" d="m 15,14.999999 0,-0.859375 -1.28906,0 0,0.859375 1.28906,0" id="path26249" opacity="0.2"/>
   <path inkscape:connector-curvature="0" d="m 16.25,14.999999 0,-0.859375 -1.28906,0 0,0.859375 1.28906,0" id="path26251" opacity="0.2"/>
   <path inkscape:connector-curvature="0" d="m 10,16.999999 0,-0.859375 -1.28906,0 0,0.859375 1.28906,0" id="path26271" opacity="0.2"/>
   <path inkscape:connector-curvature="0" d="m 11.25,16.999999 0,-0.859375 -1.28906,0 0,0.859375 1.28906,0" id="path26273" opacity="0.2"/>
   <path inkscape:connector-curvature="0" d="m 12.5,16.999999 0,-0.859375 -1.28906,0 0,0.859375 1.28906,0" id="path26275" opacity="0.2"/>
   <path inkscape:connector-curvature="0" d="m 17.50781,14.999999 0,-0.859375 -1.28906,0 0,0.859375 1.28906,0" id="path26279" opacity="0.2"/>
   <path id="path4457" d="m 17.50781,9 0,-0.859375 -1.28906,0 0,0.859375 1.28906,0" inkscape:connector-curvature="0" opacity="0.2"/>
   <path id="path4459" d="m 15,10.999999 0,-0.859375 -1.28906,0 0,0.859375 1.28906,0" inkscape:connector-curvature="0" opacity="0.2"/>
   <path id="path4461" d="m 13.75,16.999999 0,-0.859375 -1.28906,0 0,0.859375 1.28906,0" inkscape:connector-curvature="0" opacity="0.2"/>
   <path id="path3172" d="m 11.25,12.999999 0,-0.859375 -1.28906,0 0,0.859375 1.28906,0" inkscape:connector-curvature="0" opacity="0.2"/>
   <path inkscape:connector-curvature="0" d="m 11.25,8.999999 0,-0.859375 -1.28906,0 0,0.859375 1.28906,0" id="path3174" opacity="0.2"/>
  </g>
 </g>
</svg>
