<svg xmlns="http://www.w3.org/2000/svg" viewBox="0 0 24 24"><g transform="translate(1-25)"><g transform="matrix(0-1 1 0-26 48)" fill="#555"><path d="m-.394.4h-13.2v19.2h13.2l-.006-2.4h2.394l.006 4.8h-18v-24h16 2l-.006 4.8h-2.394z" transform="matrix(.83333 0 0-.83333 15.333 45.33)"/><path d="m-3.678-18.58l-1.833 1.834 4.81 4.81-11.198-.028v2.647l11.198.028-4.81 4.81 1.833 1.833 7.941-7.994z" transform="matrix(.75564 0 0-.75564 15.991 29)"/></g><g transform="matrix(0-1 1 0-26 47)" opacity=".1" fill="#fff"><path d="m-.394.4h-13.2v19.2h13.2l-.006-2.4h2.394l.006 4.8h-18v-24h16 2l-.006 4.8h-2.394z" transform="matrix(.83333 0 0-.83333 15.333 45.33)"/><path d="m-3.678-18.58l-1.833 1.834 4.81 4.81-11.198-.028v2.647l11.198.028-4.81 4.81 1.833 1.833 7.941-7.994z" transform="matrix(.75564 0 0-.75564 15.991 29)"/></g></g></svg>