<?xml version="1.0" encoding="UTF-8" standalone="no"?>
<!-- Created with Inkscape (http://www.inkscape.org/) -->

<svg
   xmlns:dc="http://purl.org/dc/elements/1.1/"
   xmlns:cc="http://creativecommons.org/ns#"
   xmlns:rdf="http://www.w3.org/1999/02/22-rdf-syntax-ns#"
   xmlns:svg="http://www.w3.org/2000/svg"
   xmlns="http://www.w3.org/2000/svg"
   xmlns:xlink="http://www.w3.org/1999/xlink"
   xmlns:sodipodi="http://sodipodi.sourceforge.net/DTD/sodipodi-0.dtd"
   xmlns:inkscape="http://www.inkscape.org/namespaces/inkscape"
   width="24"
   height="24"
   id="svg3495"
   version="1.1"
   inkscape:version="0.48.4 r9939"
   sodipodi:docname="folder-new.svg">
  <defs
     id="defs3497">
    <clipPath
       clipPathUnits="userSpaceOnUse"
       id="clipPath3669">
      <path
         inkscape:connector-curvature="0"
         d="M 0,96 96,96 96,0 0,0 0,96 z"
         id="path3671" />
    </clipPath>
    <linearGradient
       inkscape:collect="always"
       xlink:href="#linearGradient3760"
       id="linearGradient3852"
       gradientUnits="userSpaceOnUse"
       gradientTransform="matrix(0.92857143,0,0,-0.92857143,-148,292.57143)"
       x1="168"
       y1="280"
       x2="168"
       y2="264" />
    <linearGradient
       id="linearGradient3760">
      <stop
         style="stop-color:#e44343;stop-opacity:1;"
         offset="0"
         id="stop3762" />
      <stop
         style="stop-color:#ac0808;stop-opacity:1;"
         offset="1"
         id="stop3764" />
    </linearGradient>
    <clipPath
       clipPathUnits="userSpaceOnUse"
       id="clipPath4307">
      <path
         d="m 168,265 c -3.86599,0 -7,3.13401 -7,7 0,3.86599 3.13401,7 7,7 3.866,0 7,-3.13401 7,-7 0,-3.86599 -3.134,-7 -7,-7 z m 3.3125,3.0625 1.5625,1.40625 -5.25,6.9375 -4.0625,-3.5 1.34375,-1.78125 2.375,2.0625 4.03125,-5.125 z"
         inkscape:connector-curvature="0"
         id="path4309"
         style="color:#000000;fill:#36e12b;fill-opacity:1;fill-rule:nonzero;stroke:none;stroke-width:0.84323651;marker:none;visibility:visible;display:inline;overflow:visible;enable-background:accumulate" />
    </clipPath>
    <clipPath
       clipPathUnits="userSpaceOnUse"
       id="clipPath11923">
      <path
         id="path11925"
         d="m 433,90 0,5 0,5 0,8 c 0,0 0,2 2,2 l 18,0 c 0,0 2,0 2,-2 l 0,-8 0,-5 0,-2 -8.25,0 C 444,93 444,90 441,90 l -8,0 z"
         style="font-size:medium;font-style:normal;font-variant:normal;font-weight:normal;font-stretch:normal;text-indent:0;text-align:start;text-decoration:none;line-height:normal;letter-spacing:normal;word-spacing:normal;text-transform:none;direction:ltr;block-progression:tb;writing-mode:lr-tb;text-anchor:start;baseline-shift:baseline;color:#000000;fill:#000000;fill-opacity:1;stroke:none;stroke-width:2;marker:none;visibility:visible;display:inline;overflow:visible;enable-background:accumulate;font-family:Sans;-inkscape-font-specification:Sans"
         inkscape:connector-curvature="0" />
    </clipPath>
    <linearGradient
       inkscape:collect="always"
       xlink:href="#linearGradient4968"
       id="linearGradient5279"
       gradientUnits="userSpaceOnUse"
       gradientTransform="matrix(0.38091417,0,0,0.38091417,-115.93905,-62.847007)"
       x1="364.75159"
       y1="230.62079"
       x2="364.75159"
       y2="288.37659" />
    <linearGradient
       id="linearGradient4968">
      <stop
         id="stop4970"
         offset="0"
         style="stop-color:#f1e6f4;stop-opacity:1;" />
      <stop
         style="stop-color:#c9bcce;stop-opacity:1;"
         offset="1"
         id="stop4972" />
    </linearGradient>
    <linearGradient
       inkscape:collect="always"
       xlink:href="#linearGradient11359"
       id="linearGradient5282"
       gradientUnits="userSpaceOnUse"
       gradientTransform="translate(-432,-61)"
       x1="437"
       y1="86.999718"
       x2="437"
       y2="96.999718" />
    <linearGradient
       id="linearGradient11359">
      <stop
         style="stop-color:#d5cbd7;stop-opacity:1;"
         offset="0"
         id="stop11361" />
      <stop
         style="stop-color:#d9bfdf;stop-opacity:1;"
         offset="1"
         id="stop11363" />
    </linearGradient>
    <linearGradient
       id="linearGradient6557">
      <stop
         style="stop-color:#fce94f;stop-opacity:1;"
         offset="0"
         id="stop6559" />
      <stop
         id="stop6565"
         offset="0.67301035"
         style="stop-color:#fce94f;stop-opacity:1" />
      <stop
         style="stop-color:#fce94f;stop-opacity:0;"
         offset="1"
         id="stop6561" />
    </linearGradient>
    <radialGradient
       inkscape:collect="always"
       xlink:href="#linearGradient6620"
       id="radialGradient6611"
       cx="316.08578"
       cy="785.15662"
       fx="316.08578"
       fy="785.15662"
       r="5.4999967"
       gradientTransform="matrix(2.2045703,0,0,1.7886049,-381.74752,-619.00808)"
       gradientUnits="userSpaceOnUse" />
    <linearGradient
       id="linearGradient6620">
      <stop
         id="stop6622"
         offset="0"
         style="stop-color:#ffffff;stop-opacity:1" />
      <stop
         style="stop-color:#ffffff;stop-opacity:1"
         offset="0.32992947"
         id="stop6624" />
      <stop
         id="stop6626"
         offset="1"
         style="stop-color:#fce94f;stop-opacity:1" />
    </linearGradient>
    <radialGradient
       inkscape:collect="always"
       xlink:href="#linearGradient6633"
       id="radialGradient6639"
       gradientUnits="userSpaceOnUse"
       gradientTransform="matrix(4.6360798,-0.00278316,0,3.8683345,-1120.2848,-2374.9385)"
       cx="309.36545"
       cy="816.90698"
       fx="309.36545"
       fy="816.90698"
       r="5.2188735" />
    <linearGradient
       id="linearGradient6633"
       inkscape:collect="always">
      <stop
         id="stop6635"
         offset="0"
         style="stop-color:#edd400;stop-opacity:1" />
      <stop
         id="stop6637"
         offset="1"
         style="stop-color:#c4a000;stop-opacity:1" />
    </linearGradient>
    <radialGradient
       inkscape:collect="always"
       xlink:href="#linearGradient6620"
       id="radialGradient3911"
       gradientUnits="userSpaceOnUse"
       gradientTransform="matrix(2.1730275,0,0,1.9594181,-673.25706,-1533.7899)"
       cx="316.08578"
       cy="785.15662"
       fx="316.08578"
       fy="785.15662"
       r="5.4999967" />
    <radialGradient
       inkscape:collect="always"
       xlink:href="#linearGradient6633"
       id="radialGradient3913"
       gradientUnits="userSpaceOnUse"
       gradientTransform="matrix(4.5697471,-0.00304895,0,4.2377637,-1401.2274,-3457.4131)"
       cx="309.36545"
       cy="816.90698"
       fx="309.36545"
       fy="816.90698"
       r="5.2188735" />
    <radialGradient
       inkscape:collect="always"
       xlink:href="#linearGradient6557"
       id="radialGradient3916"
       gradientUnits="userSpaceOnUse"
       cx="311.46875"
       cy="828.53125"
       fx="311.46875"
       fy="828.53125"
       r="3.28125" />
    <radialGradient
       inkscape:collect="always"
       xlink:href="#linearGradient6620"
       id="radialGradient3976"
       gradientUnits="userSpaceOnUse"
       gradientTransform="matrix(2.1730275,0,0,1.9594181,-669.25706,-1536.7899)"
       cx="316.08578"
       cy="785.15662"
       fx="316.08578"
       fy="785.15662"
       r="5.4999967" />
    <radialGradient
       inkscape:collect="always"
       xlink:href="#linearGradient6633"
       id="radialGradient3978"
       gradientUnits="userSpaceOnUse"
       gradientTransform="matrix(4.5697471,-0.00304895,0,4.2377637,-1397.2274,-3460.4131)"
       cx="309.36545"
       cy="816.90698"
       fx="309.36545"
       fy="816.90698"
       r="5.2188735" />
    <radialGradient
       inkscape:collect="always"
       xlink:href="#linearGradient6557"
       id="radialGradient3981"
       gradientUnits="userSpaceOnUse"
       cx="311.46875"
       cy="828.53125"
       fx="311.46875"
       fy="828.53125"
       r="3.28125" />
  </defs>
  <sodipodi:namedview
     id="base"
     pagecolor="#ffffff"
     bordercolor="#666666"
     borderopacity="1.0"
     inkscape:pageopacity="0.0"
     inkscape:pageshadow="2"
     inkscape:zoom="1"
     inkscape:cx="53.619953"
     inkscape:cy="1.611817"
     inkscape:current-layer="layer2"
     showgrid="false"
     showborder="false"
     inkscape:grid-bbox="true"
     inkscape:document-units="px"
     inkscape:window-width="1364"
     inkscape:window-height="700"
     inkscape:window-x="0"
     inkscape:window-y="28"
     inkscape:window-maximized="1"
     inkscape:snap-bbox="true"
     inkscape:bbox-paths="true"
     inkscape:bbox-nodes="true"
     inkscape:snap-bbox-edge-midpoints="false"
     showguides="true"
     inkscape:guide-bbox="true">
    <inkscape:grid
       type="xygrid"
       id="grid3512"
       empspacing="4"
       visible="true"
       enabled="true"
       snapvisiblegridlinesonly="true"
       dotted="false" />
  </sodipodi:namedview>
  <metadata
     id="metadata3500">
    <rdf:RDF>
      <cc:Work
         rdf:about="">
        <dc:format>image/svg+xml</dc:format>
        <dc:type
           rdf:resource="http://purl.org/dc/dcmitype/StillImage" />
        <dc:title />
      </cc:Work>
    </rdf:RDF>
  </metadata>
  <g
     id="layer1"
     inkscape:label="Background"
     inkscape:groupmode="layer"
     transform="translate(0,-24)"
     style="display:inline">
    <path
       inkscape:connector-curvature="0"
       style="font-size:medium;font-style:normal;font-variant:normal;font-weight:normal;font-stretch:normal;text-indent:0;text-align:start;text-decoration:none;line-height:normal;letter-spacing:normal;word-spacing:normal;text-transform:none;direction:ltr;block-progression:tb;writing-mode:lr-tb;text-anchor:start;baseline-shift:baseline;color:#000000;fill:url(#linearGradient5282);fill-opacity:1;stroke:none;stroke-width:2;marker:none;visibility:visible;display:inline;overflow:visible;enable-background:accumulate;font-family:Sans;-inkscape-font-specification:Sans"
       d="m 2.5,27.49972 0,9 19,0 0,-6 -6.75,0 c -1.55682,0 -2.44251,-0.911477 -3.15625,-1.65625 C 10.88001,28.098697 10.33333,27.49972 9,27.49972 z"
       id="path11573"
       sodipodi:nodetypes="ccccsssc" />
    <path
       inkscape:connector-curvature="0"
       style="font-size:medium;font-style:normal;font-variant:normal;font-weight:normal;font-stretch:normal;text-indent:0;text-align:start;text-decoration:none;line-height:normal;letter-spacing:normal;word-spacing:normal;text-transform:none;direction:ltr;block-progression:tb;writing-mode:lr-tb;text-anchor:start;baseline-shift:baseline;color:#000000;fill:url(#linearGradient5279);fill-opacity:1;fill-rule:nonzero;stroke:none;stroke-width:2;marker:none;visibility:visible;display:inline;overflow:visible;enable-background:accumulate;font-family:Sans;-inkscape-font-specification:Sans"
       d="m 2.5,32.49972 0,10.50014 c 0,0 -0.003,0.40051 0.1875,0.78125 0.19037,0.38074 0.47917,0.71875 1.3125,0.71875 l 16,0 c 0,0 0.40051,0.003 0.78125,-0.1875 C 21.16199,44.12199 21.5,43.83319 21.5,42.99986 l 0,-10.50014 z"
       id="path11602"
       sodipodi:nodetypes="cccsccscc" />
    <path
       style="opacity:0.41000001;color:#000000;fill:#000000;fill-opacity:1;stroke:none;stroke-width:1;marker:none;visibility:visible;display:inline;overflow:visible;enable-background:accumulate"
       d="m 3,31.999718 18,0 0,1 -18,0 z"
       id="rect11946"
       inkscape:connector-curvature="0"
       sodipodi:nodetypes="ccccc" />
    <path
       style="font-size:medium;font-style:normal;font-variant:normal;font-weight:normal;font-stretch:normal;text-indent:0;text-align:start;text-decoration:none;line-height:normal;letter-spacing:normal;word-spacing:normal;text-transform:none;direction:ltr;block-progression:tb;writing-mode:lr-tb;text-anchor:start;baseline-shift:baseline;opacity:0.41000001;color:#000000;fill:none;stroke:#000000;stroke-width:1;stroke-miterlimit:4;stroke-opacity:1;stroke-dasharray:none;marker:none;visibility:visible;display:inline;overflow:visible;enable-background:accumulate;font-family:Sans;-inkscape-font-specification:Sans"
       d="m 2.5,27.5 0,5 0,4 0,6.50014 c 0,0 -0.003,0.40051 0.1875,0.78125 0.19037,0.38074 0.47917,0.71875 1.3125,0.71875 l 16,0 c 0,0 0.40051,0.003 0.78125,-0.1875 C 21.16199,44.12227 21.5,43.83347 21.5,43.00014 l 0,-6.50014 0,-4 0,-2 -6.75,0 c -1.55682,0 -2.44251,-0.911477 -3.15625,-1.65625 C 10.88001,28.098977 10.33333,27.5 9,27.5 z"
       id="path3970"
       inkscape:connector-curvature="0"
       sodipodi:nodetypes="cccccsccscccsssc" />
  </g>
  <g
     inkscape:groupmode="layer"
     id="layer2"
     inkscape:label="Symbol"
     transform="translate(0,2)">
    <path
       transform="matrix(2.1333337,0,0,1.9809524,-646.46677,-1635.7809)"
       d="m 314.75,828.53125 c 0,1.81218 -1.46907,3.28125 -3.28125,3.28125 -1.81218,0 -3.28125,-1.46907 -3.28125,-3.28125 0,-1.81218 1.46907,-3.28125 3.28125,-3.28125 1.81218,0 3.28125,1.46907 3.28125,3.28125 z"
       sodipodi:ry="3.28125"
       sodipodi:rx="3.28125"
       sodipodi:cy="828.53125"
       sodipodi:cx="311.46875"
       id="path5780"
       style="fill:url(#radialGradient3981);fill-opacity:1;fill-rule:evenodd;stroke:none"
       sodipodi:type="arc" />
    <path
       style="fill:url(#radialGradient3976);fill-opacity:1;fill-rule:evenodd;stroke:url(#radialGradient3978);stroke-width:1.04452038;stroke-linecap:round;stroke-linejoin:round;stroke-miterlimit:4;stroke-opacity:1;stroke-dashoffset:0.3612;display:inline"
       d="m 19.545283,-1.3653668 c -0.58763,-0.2748611 -1.28757,-0.028483 -1.572258,0.5535128 L 17.052891,1.3557807 15.027432,1.619413 c -0.443965,0.069126 -0.810897,0.3821763 -0.948243,0.809082 -0.137377,0.4269057 -0.02168,0.8946189 0.298959,1.2087208 l 1.419375,1.4119253 -0.367692,1.9744979 c -0.09463,0.44908 0.07896,0.912322 0.445583,1.189352 0.366618,0.277008 0.860509,0.318056 1.268033,0.105383 L 18.993581,7.386456 20.7504,8.338905 c 0.396721,0.210521 0.878528,0.179749 1.245107,-0.07953 0.366589,-0.259251 0.555259,-0.702697 0.487601,-1.14598 L 22.152142,5.1264945 23.613993,3.7029131 C 23.943224,3.3863134 24.061191,2.9092885 23.917409,2.4761821 23.773626,2.0430868 23.393553,1.7307158 22.940016,1.6728733 L 20.948701,1.3798488 20.11593,-0.7818702 c -0.115149,-0.255668 -0.317314,-0.4623999 -0.570647,-0.5834856 l 0,0 0,-1.1e-5 z"
       id="path5784"
       sodipodi:nodetypes="ccccscccscccscccsccccc"
       inkscape:connector-curvature="0" />
  </g>
</svg>
