<?xml version="1.0" encoding="UTF-8" standalone="no"?>
<svg
   xmlns:dc="http://purl.org/dc/elements/1.1/"
   xmlns:cc="http://creativecommons.org/ns#"
   xmlns:rdf="http://www.w3.org/1999/02/22-rdf-syntax-ns#"
   xmlns:svg="http://www.w3.org/2000/svg"
   xmlns="http://www.w3.org/2000/svg"
   xmlns:xlink="http://www.w3.org/1999/xlink"
   version="1.1"
   id="svg3495"
   height="24"
   width="24">
  <defs
     id="defs3497">
    <linearGradient
       y2="288.37659"
       x2="364.75159"
       y1="230.62079"
       x1="364.75159"
       gradientTransform="matrix(0.38091417,0,0,0.38091417,-115.93905,-62.847007)"
       gradientUnits="userSpaceOnUse"
       id="linearGradient5279"
       xlink:href="#linearGradient4968" />
    <linearGradient
       id="linearGradient4968">
      <stop
         style="stop-color:#f1e6f4;stop-opacity:1;"
         offset="0"
         id="stop4970" />
      <stop
         id="stop4972"
         offset="1"
         style="stop-color:#c9bcce;stop-opacity:1;" />
    </linearGradient>
    <linearGradient
       y2="96.999718"
       x2="437"
       y1="86.999718"
       x1="437"
       gradientTransform="translate(-432,-61)"
       gradientUnits="userSpaceOnUse"
       id="linearGradient5282"
       xlink:href="#linearGradient11359" />
    <linearGradient
       id="linearGradient11359">
      <stop
         id="stop11361"
         offset="0"
         style="stop-color:#d5cbd7;stop-opacity:1;" />
      <stop
         id="stop11363"
         offset="1"
         style="stop-color:#d9bfdf;stop-opacity:1;" />
    </linearGradient>
    <linearGradient
       id="linearGradient6557">
      <stop
         id="stop6559"
         offset="0"
         style="stop-color:#fce94f;stop-opacity:1;" />
      <stop
         style="stop-color:#fce94f;stop-opacity:1"
         offset="0.67301035"
         id="stop6565" />
      <stop
         id="stop6561"
         offset="1"
         style="stop-color:#fce94f;stop-opacity:0;" />
    </linearGradient>
    <linearGradient
       id="linearGradient6620">
      <stop
         style="stop-color:#ffffff;stop-opacity:1"
         offset="0"
         id="stop6622" />
      <stop
         id="stop6624"
         offset="0.32992947"
         style="stop-color:#ffffff;stop-opacity:1" />
      <stop
         style="stop-color:#fce94f;stop-opacity:1"
         offset="1"
         id="stop6626" />
    </linearGradient>
    <linearGradient
       id="linearGradient6633">
      <stop
         style="stop-color:#edd400;stop-opacity:1"
         offset="0"
         id="stop6635" />
      <stop
         style="stop-color:#c4a000;stop-opacity:1"
         offset="1"
         id="stop6637" />
    </linearGradient>
    <radialGradient
       r="5.4999967"
       fy="785.15662"
       fx="316.08578"
       cy="785.15662"
       cx="316.08578"
       gradientTransform="matrix(2.1730275,0,0,1.9594181,-669.25706,-1536.7899)"
       gradientUnits="userSpaceOnUse"
       id="radialGradient3976"
       xlink:href="#linearGradient6620" />
    <radialGradient
       r="5.2188735"
       fy="816.90698"
       fx="309.36545"
       cy="816.90698"
       cx="309.36545"
       gradientTransform="matrix(4.5697471,-0.00304895,0,4.2377637,-1397.2274,-3460.4131)"
       gradientUnits="userSpaceOnUse"
       id="radialGradient3978"
       xlink:href="#linearGradient6633" />
    <radialGradient
       r="3.28125"
       fy="828.53125"
       fx="311.46875"
       cy="828.53125"
       cx="311.46875"
       gradientUnits="userSpaceOnUse"
       id="radialGradient3981"
       xlink:href="#linearGradient6557" />
  </defs>
  <metadata
     id="metadata3500">
    <rdf:RDF>
      <cc:Work
         rdf:about="">
        <dc:format>image/svg+xml</dc:format>
        <dc:type
           rdf:resource="http://purl.org/dc/dcmitype/StillImage" />
        <dc:title />
      </cc:Work>
    </rdf:RDF>
  </metadata>
  <g
     style="display:inline"
     transform="translate(0,-24)"
     id="layer1">
    <path
       id="path11573"
       d="m 2.5,27.49972 0,9 19,0 0,-6 -6.75,0 c -1.55682,0 -2.44251,-0.911477 -3.15625,-1.65625 C 10.88001,28.098697 10.33333,27.49972 9,27.49972 z"
       style="font-size:medium;font-style:normal;font-variant:normal;font-weight:normal;font-stretch:normal;text-indent:0;text-align:start;text-decoration:none;line-height:normal;letter-spacing:normal;word-spacing:normal;text-transform:none;direction:ltr;block-progression:tb;writing-mode:lr-tb;text-anchor:start;baseline-shift:baseline;color:#000000;fill:url(#linearGradient5282);fill-opacity:1;stroke:none;stroke-width:2;marker:none;visibility:visible;display:inline;overflow:visible;enable-background:accumulate;font-family:Sans;-inkscape-font-specification:Sans" />
    <path
       id="path11602"
       d="m 2.5,32.49972 0,10.50014 c 0,0 -0.003,0.40051 0.1875,0.78125 0.19037,0.38074 0.47917,0.71875 1.3125,0.71875 l 16,0 c 0,0 0.40051,0.003 0.78125,-0.1875 C 21.16199,44.12199 21.5,43.83319 21.5,42.99986 l 0,-10.50014 z"
       style="font-size:medium;font-style:normal;font-variant:normal;font-weight:normal;font-stretch:normal;text-indent:0;text-align:start;text-decoration:none;line-height:normal;letter-spacing:normal;word-spacing:normal;text-transform:none;direction:ltr;block-progression:tb;writing-mode:lr-tb;text-anchor:start;baseline-shift:baseline;color:#000000;fill:url(#linearGradient5279);fill-opacity:1;fill-rule:nonzero;stroke:none;stroke-width:2;marker:none;visibility:visible;display:inline;overflow:visible;enable-background:accumulate;font-family:Sans;-inkscape-font-specification:Sans" />
    <path
       id="rect11946"
       d="m 3,31.999718 18,0 0,1 -18,0 z"
       style="opacity:0.41000001;color:#000000;fill:#000000;fill-opacity:1;stroke:none;stroke-width:1;marker:none;visibility:visible;display:inline;overflow:visible;enable-background:accumulate" />
    <path
       id="path3970"
       d="m 2.5,27.5 0,5 0,4 0,6.50014 c 0,0 -0.003,0.40051 0.1875,0.78125 0.19037,0.38074 0.47917,0.71875 1.3125,0.71875 l 16,0 c 0,0 0.40051,0.003 0.78125,-0.1875 C 21.16199,44.12227 21.5,43.83347 21.5,43.00014 l 0,-6.50014 0,-4 0,-2 -6.75,0 c -1.55682,0 -2.44251,-0.911477 -3.15625,-1.65625 C 10.88001,28.098977 10.33333,27.5 9,27.5 z"
       style="font-size:medium;font-style:normal;font-variant:normal;font-weight:normal;font-stretch:normal;text-indent:0;text-align:start;text-decoration:none;line-height:normal;letter-spacing:normal;word-spacing:normal;text-transform:none;direction:ltr;block-progression:tb;writing-mode:lr-tb;text-anchor:start;baseline-shift:baseline;opacity:0.41000001;color:#000000;fill:none;stroke:#000000;stroke-width:1;stroke-miterlimit:4;stroke-opacity:1;stroke-dasharray:none;marker:none;visibility:visible;display:inline;overflow:visible;enable-background:accumulate;font-family:Sans;-inkscape-font-specification:Sans" />
  </g>
  <g
     transform="translate(0,2)"
     id="layer2">
    <path
       style="fill:url(#radialGradient3981);fill-opacity:1;fill-rule:evenodd;stroke:none"
       id="path5780"
       d="m 314.75,828.53125 c 0,1.81218 -1.46907,3.28125 -3.28125,3.28125 -1.81218,0 -3.28125,-1.46907 -3.28125,-3.28125 0,-1.81218 1.46907,-3.28125 3.28125,-3.28125 1.81218,0 3.28125,1.46907 3.28125,3.28125 z"
       transform="matrix(2.1333337,0,0,1.9809524,-646.46677,-1635.7809)" />
    <path
       id="path5784"
       d="m 19.545283,-1.3653668 c -0.58763,-0.2748611 -1.28757,-0.028483 -1.572258,0.5535128 L 17.052891,1.3557807 15.027432,1.619413 c -0.443965,0.069126 -0.810897,0.3821763 -0.948243,0.809082 -0.137377,0.4269057 -0.02168,0.8946189 0.298959,1.2087208 l 1.419375,1.4119253 -0.367692,1.9744979 c -0.09463,0.44908 0.07896,0.912322 0.445583,1.189352 0.366618,0.277008 0.860509,0.318056 1.268033,0.105383 L 18.993581,7.386456 20.7504,8.338905 c 0.396721,0.210521 0.878528,0.179749 1.245107,-0.07953 0.366589,-0.259251 0.555259,-0.702697 0.487601,-1.14598 L 22.152142,5.1264945 23.613993,3.7029131 C 23.943224,3.3863134 24.061191,2.9092885 23.917409,2.4761821 23.773626,2.0430868 23.393553,1.7307158 22.940016,1.6728733 L 20.948701,1.3798488 20.11593,-0.7818702 c -0.115149,-0.255668 -0.317314,-0.4623999 -0.570647,-0.5834856 l 0,0 0,-1.1e-5 z"
       style="fill:url(#radialGradient3976);fill-opacity:1;fill-rule:evenodd;stroke:url(#radialGradient3978);stroke-width:1.04452038;stroke-linecap:round;stroke-linejoin:round;stroke-miterlimit:4;stroke-opacity:1;stroke-dashoffset:0.3612;display:inline" />
  </g>
</svg>
