<?xml version="1.0" encoding="UTF-8" standalone="no"?>
<svg xmlns="http://www.w3.org/2000/svg" xmlns:xlink="http://www.w3.org/1999/xlink" xmlns:sodipodi="http://sodipodi.sourceforge.net/DTD/sodipodi-0.dtd" xmlns:inkscape="http://www.inkscape.org/namespaces/inkscape" width="24" height="24" version="1.1">
 <defs id="defs3497">
  <clipPath id="clipPath3669">
   <path d="M 0,96 96,96 96,0 0,0 0,96 z" id="path3671"/>
  </clipPath>
  <linearGradient inkscape:collect="always" xlink:href="#linearGradient3821" id="linearGradient2997" gradientUnits="userSpaceOnUse" y1="22" x2="0" y2="-2" gradientTransform="translate(0,26)"/>
  <linearGradient id="linearGradient3821">
   <stop id="stop3823" stop-color="#555555"/>
   <stop offset="1" id="stop3825" stop-color="#666666"/>
  </linearGradient>
  <linearGradient y2="-2" x2="0" y1="22" gradientUnits="userSpaceOnUse" id="linearGradient3986" xlink:href="#linearGradient3821" inkscape:collect="always" gradientTransform="translate(20.051118,39.199301)"/>
  <linearGradient inkscape:collect="always" xlink:href="#linearGradient3821" id="linearGradient3791" y1="22" x2="0" y2="0" gradientUnits="userSpaceOnUse" gradientTransform="translate(1,25)"/>
  <linearGradient inkscape:collect="always" xlink:href="#linearGradient3821" id="linearGradient3801" gradientUnits="userSpaceOnUse" y1="22" x2="0" y2="0"/>
  <linearGradient inkscape:collect="always" id="linearGradient3952">
   <stop id="stop3954"/>
   <stop offset="1" id="stop3956" stop-opacity="0"/>
  </linearGradient>
  <linearGradient inkscape:collect="always" xlink:href="#linearGradient3960" id="linearGradient4217" gradientUnits="userSpaceOnUse" y1="45" x2="0" y2="42" gradientTransform="translate(-4.0000003,0)"/>
  <linearGradient id="linearGradient3960">
   <stop id="stop3962" stop-opacity="0"/>
   <stop id="stop3970" offset="0.5"/>
   <stop offset="1" id="stop3964" stop-opacity="0"/>
  </linearGradient>
  <linearGradient inkscape:collect="always" xlink:href="#linearGradient3960" id="linearGradient3905" gradientUnits="userSpaceOnUse" gradientTransform="translate(-8,1.5)" y1="45" x2="0" y2="42"/>
  <radialGradient inkscape:collect="always" xlink:href="#linearGradient3952" id="radialGradient3908" gradientUnits="userSpaceOnUse" gradientTransform="matrix(1,0,0,0.75,-5,12.375)" cx="9" cy="43.5" r="2"/>
  <radialGradient inkscape:collect="always" xlink:href="#linearGradient3952" id="radialGradient3911" gradientUnits="userSpaceOnUse" gradientTransform="matrix(1,0,0,0.75,-20,12.375)" cx="40" cy="43.5" r="2"/>
  <radialGradient inkscape:collect="always" xlink:href="#linearGradient3952" id="radialGradient3918" gradientUnits="userSpaceOnUse" gradientTransform="matrix(1,0,0,0.75,-4,12.375)" cx="9" cy="43.5" r="2"/>
  <radialGradient inkscape:collect="always" xlink:href="#linearGradient3952" id="radialGradient3960" gradientUnits="userSpaceOnUse" gradientTransform="matrix(1,0,0,0.75,-21,12.375)" cx="40" cy="43.5" r="2"/>
 </defs>
 <metadata id="metadata3500"/>
 <g id="layer1" inkscape:label="Layer 1" inkscape:groupmode="layer" transform="translate(0,-24)">
  <path d="m 5.5,27.5 0,0.5 0,3 0,0.5 0.5,0 1.5,0 6,0 c 0.08206,0 0.389728,0.133396 0.625,0.375 0.235272,0.241604 0.375,0.582603 0.375,0.625 l 0,1 -4,0 -3,0 c -1.5181314,0 -2.8768217,0.632337 -3.75,1.625 L 3.71875,35.15625 C 2.8832144,36.123303 2.4895188,37.318004 2.5,38.5 2.50999,39.69972 2.9615175,40.914024 3.8125,41.875 4.6778777,42.852232 5.9943753,43.5 7.5,43.5 l 10.5,0 1.5,0 0.25,0 1.25,0 0.5,0 0,-0.5 0,-1.5 0,-1.5 0,-7.5 c 0,-2.720691 -2.208768,-5 -5,-5 l -3,0 -6,0 -1.5,0 -0.5,0 z m 5,10 4,0 0,2 -4,0 C 9.9951765,39.5 9.9571342,39.448611 9.78125,39.25 9.6331845,39.082802 9.502401,38.770483 9.5,38.5 9.4979278,38.210532 9.6330513,37.882946 9.75,37.75 9.9077178,37.570708 9.9580406,37.5 10.5,37.5 z" id="path11643-3-1" inkscape:connector-curvature="0" color="#000000" stroke-width="2" fill="url(#linearGradient3791)"/>
  <path id="path3783" d="m 5.5,27.5 0,0.5 0,3 0,0.5 0.5,0 1.5,0 6,0 c 0.08206,0 0.389728,0.133396 0.625,0.375 0.235272,0.241604 0.375,0.582603 0.375,0.625 l 0,1 -4,0 -3,0 c -1.5181314,0 -2.8768217,0.632337 -3.75,1.625 L 3.71875,35.15625 C 2.8832144,36.123303 2.4895188,37.318004 2.5,38.5 2.50999,39.69972 2.9615175,40.914024 3.8125,41.875 4.6778777,42.852232 5.9943753,43.5 7.5,43.5 l 10.5,0 1.5,0 0.25,0 1.25,0 0.5,0 0,-0.5 0,-1.5 0,-1.5 0,-7.5 c 0,-2.720691 -2.208768,-5 -5,-5 l -3,0 -6,0 -1.5,0 -0.5,0 z m 5,10 4,0 0,2 -4,0 C 9.9951765,39.5 9.9571342,39.448611 9.78125,39.25 9.6331845,39.082802 9.502401,38.770483 9.5,38.5 9.4979278,38.210532 9.6330513,37.882946 9.75,37.75 9.9077178,37.570708 9.9580406,37.5 10.5,37.5 z" inkscape:connector-curvature="0" opacity="0.61" color="#000000" fill="none" stroke="#000000"/>
  <path d="m 6,28 0,1 1.5,0 6,0 3,0 c 2.519033,0 4.5,2.049923 4.5,4.5 l 0,-1 C 21,30.049923 19.019033,28 16.5,28 l -3,0 -6,0 -1.5,0 z m 1.5,6 c -1.3792903,0 -2.6021596,0.590155 -3.375,1.46875 l -0.03125,0 L 4.0625,35.5 C 3.3291348,36.365571 2.99065,37.445706 3,38.5 c 0.00113,0.135226 0.048868,0.271244 0.0625,0.40625 0.1010386,-0.854487 0.406254,-1.705468 1,-2.40625 l 0.03125,-0.03125 0.03125,0 C 4.8978404,35.590155 6.1207097,35 7.5,35 l 3,0 4,0 0.5,0 0,-0.5 0,-0.5 -0.5,0 -4,0 -3,0 z m 1.5625,5 C 9.0205927,39.155264 8.9986707,39.314313 9,39.5 c 0.0038,0.428221 0.1501803,0.804592 0.40625,1.09375 0.085614,0.09668 0.2264879,0.228465 0.4375,0.3125 C 10.054762,40.990285 10.230622,41 10.5,41 l 4,0 0.5,0 0,-0.5 0,-0.5 -0.5,0 -4,0 C 10.230622,40 10.054762,39.990285 9.84375,39.90625 9.6327379,39.822215 9.491864,39.69043 9.40625,39.59375 9.2563739,39.424508 9.1306289,39.221905 9.0625,39 z" id="path3793" inkscape:connector-curvature="0" opacity="0.2" color="#000000" stroke-width="2" fill="#ffffff"/>
  <g id="g3962" transform="translate(1,-1)">
   <path inkscape:connector-curvature="0" id="rect3940" d="m 19,43.5 0,3 0.5,0 c 0.831,0 1.5,-0.669 1.5,-1.5 0,-0.831 -0.669,-1.5 -1.5,-1.5 l -0.5,0 z" opacity="0.2" fill="url(#radialGradient3960)"/>
   <path inkscape:connector-curvature="0" id="rect3942" d="M 4.40625,43.5 C 3.6271875,43.5 3,44.127187 3,44.90625 l 0,0.1875 C 3,45.872813 3.6271875,46.5 4.40625,46.5 L 5,46.5 l 0,-3 -0.59375,0 z" opacity="0.2" fill="url(#radialGradient3918)"/>
   <path sodipodi:nodetypes="ccccc" inkscape:connector-curvature="0" id="rect3938" d="m 5,43.5 14,0 0,3 -14,0 z" opacity="0.2" fill="url(#linearGradient3905)"/>
  </g>
 </g>
</svg>
