<?xml version="1.0" encoding="UTF-8" standalone="no"?>
<svg xmlns="http://www.w3.org/2000/svg" xmlns:xlink="http://www.w3.org/1999/xlink" xmlns:sodipodi="http://sodipodi.sourceforge.net/DTD/sodipodi-0.dtd" xmlns:inkscape="http://www.inkscape.org/namespaces/inkscape" width="24" height="24" version="1.1">
 <defs id="defs3497">
  <clipPath id="clipPath3669">
   <path d="M 0,96 96,96 96,0 0,0 0,96 z" id="path3671"/>
  </clipPath>
  <linearGradient inkscape:collect="always" xlink:href="#linearGradient3821" id="linearGradient3793" y1="22" x2="0" y2="-2" gradientUnits="userSpaceOnUse" gradientTransform="translate(0,26)"/>
  <linearGradient id="linearGradient3821">
   <stop id="stop3823" stop-color="#555555"/>
   <stop offset="1" id="stop3825" stop-color="#666666"/>
  </linearGradient>
  <linearGradient y2="-2" x2="0" y1="22" gradientTransform="translate(31.883514,24.756453)" gradientUnits="userSpaceOnUse" id="linearGradient3011" xlink:href="#linearGradient3821" inkscape:collect="always"/>
  <linearGradient inkscape:collect="always" xlink:href="#linearGradient3821" id="linearGradient3800" y1="22" x2="0" y2="0" gradientUnits="userSpaceOnUse" gradientTransform="translate(1,25)"/>
  <linearGradient inkscape:collect="always" xlink:href="#linearGradient3821" id="linearGradient3810" gradientUnits="userSpaceOnUse" y1="22" x2="0" y2="0"/>
  <linearGradient inkscape:collect="always" xlink:href="#linearGradient3821" id="linearGradient3854" gradientUnits="userSpaceOnUse" y1="22" x2="0" y2="0" gradientTransform="translate(0,-10)"/>
  <radialGradient inkscape:collect="always" xlink:href="#linearGradient3952" id="radialGradient3960" gradientUnits="userSpaceOnUse" gradientTransform="matrix(1,0,0,0.75,-21,12.375)" cx="40" cy="43.5" r="2"/>
  <linearGradient inkscape:collect="always" id="linearGradient3952">
   <stop id="stop3954"/>
   <stop offset="1" id="stop3956" stop-opacity="0"/>
  </linearGradient>
  <radialGradient inkscape:collect="always" xlink:href="#linearGradient3952" id="radialGradient3957" gradientUnits="userSpaceOnUse" gradientTransform="matrix(1,0,0,0.75,-4,12.375)" cx="9" cy="43.5" r="2"/>
  <linearGradient inkscape:collect="always" xlink:href="#linearGradient3960" id="linearGradient3954" gradientUnits="userSpaceOnUse" gradientTransform="translate(-8,1.5)" y1="45" x2="0" y2="42"/>
  <linearGradient id="linearGradient3960">
   <stop id="stop3962" stop-opacity="0"/>
   <stop id="stop3970" offset="0.5"/>
   <stop offset="1" id="stop3964" stop-opacity="0"/>
  </linearGradient>
  <linearGradient inkscape:collect="always" xlink:href="#linearGradient3960" id="linearGradient4038" gradientUnits="userSpaceOnUse" gradientTransform="translate(-9,-1)" y1="45" x2="0" y2="42"/>
  <radialGradient inkscape:collect="always" xlink:href="#linearGradient3952" id="radialGradient4041" gradientUnits="userSpaceOnUse" gradientTransform="matrix(1,0,0,0.75,-4,9.875)" cx="9" cy="43.5" r="2"/>
  <radialGradient inkscape:collect="always" xlink:href="#linearGradient3952" id="radialGradient4044" gradientUnits="userSpaceOnUse" gradientTransform="matrix(1,0,0,0.75,-22,9.875)" cx="40" cy="43.5" r="2"/>
 </defs>
 <metadata id="metadata3500"/>
 <g id="layer1" inkscape:label="Layer 1" inkscape:groupmode="layer" transform="translate(0,-24)">
  <path d="m 5.5,25.5 0,0.5 0,3 0,0.5 0.5,0 8.5,0 c 0.08206,0 0.389728,0.133396 0.625,0.375 0.235272,0.241604 0.375,0.582603 0.375,0.625 l 0,1 -7,0 c -1.5181314,0 -2.8768217,0.632337 -3.75,1.625 L 4.71875,33.15625 C 3.8831141,34.123332 3.4895182,35.317935 3.5,36.5 3.50999,37.69972 3.9302675,38.914024 4.78125,39.875 5.6466277,40.852232 6.9943753,41.5 8.5,41.5 l 7.5,0 1.5,0 1.5,0 0.5,0 0,-0.5 0,-1.25 -0.03125,0 c 0.0096,-0.125508 0.009,-0.190696 0,-0.25 l 0.03125,0 0,-1.5 0,-7.5 c 0,-2.720691 -2.208767,-5 -5,-5 l -8.5,0 -0.5,0 z m 3,10 7,0 0,2 -7,0 C 7.9951765,37.5 7.9571342,37.448611 7.78125,37.25 7.6331845,37.082802 7.502401,36.770483 7.5,36.5 7.4979278,36.210532 7.6330513,35.882946 7.75,35.75 7.9077178,35.570708 7.9580406,35.5 8.5,35.5 z" id="path11643-3-2" inkscape:connector-curvature="0" color="#000000" stroke-width="2" fill="url(#linearGradient3800)"/>
  <path id="path3791" d="m 5.5,25.5 0,0.5 0,3 0,0.5 0.5,0 8.5,0 c 0.08206,0 0.389728,0.133396 0.625,0.375 0.235272,0.241604 0.375,0.582603 0.375,0.625 l 0,1 -7,0 c -1.5181314,0 -2.8768217,0.632337 -3.75,1.625 L 4.71875,33.15625 C 3.8831141,34.123332 3.4895182,35.317935 3.5,36.5 3.50999,37.69972 3.9302675,38.914024 4.78125,39.875 5.6466277,40.852232 6.9943753,41.5 8.5,41.5 l 7.5,0 1.5,0 1.5,0 0.5,0 0,-0.5 0,-1.25 -0.03125,0 c 0.0096,-0.125508 0.009,-0.190696 0,-0.25 l 0.03125,0 0,-1.5 0,-7.5 c 0,-2.720691 -2.208767,-5 -5,-5 l -8.5,0 -0.5,0 z m 3,10 7,0 0,2 -7,0 C 7.9951765,37.5 7.9571342,37.448611 7.78125,37.25 7.6331845,37.082802 7.502401,36.770483 7.5,36.5 7.4979278,36.210532 7.6330513,35.882946 7.75,35.75 7.9077178,35.570708 7.9580406,35.5 8.5,35.5 z" inkscape:connector-curvature="0" opacity="0.61" color="#000000" fill="none" stroke="#000000"/>
  <path d="m 6,26 0,1 8.5,0 c 2.519034,0 4.5,2.049922 4.5,4.5 l 0,-1 C 19,28.049922 17.019034,26 14.5,26 L 6,26 z m 2.5,6 c -1.3792903,0 -2.6021596,0.590155 -3.375,1.46875 l -0.03125,0 L 5.0625,33.5 C 4.3290499,34.365593 3.99065,35.445603 4,36.5 4.00139,36.666857 4.012256,36.834179 4.03125,37 4.117778,36.112343 4.4462387,35.227291 5.0625,34.5 l 0.03125,-0.03125 0.03125,0 C 5.8978404,33.590155 7.1207097,33 8.5,33 l 7,0 0.5,0 0,-0.5 0,-0.5 -0.5,0 -7,0 z M 7.0625,37 C 7.0205927,37.155264 6.9986707,37.314313 7,37.5 c 0.0038,0.428221 0.1501803,0.804592 0.40625,1.09375 0.085614,0.09668 0.2264879,0.228465 0.4375,0.3125 C 8.0547621,38.990285 8.2306223,39 8.5,39 l 7,0 0.5,0 0,-0.5 0,-0.5 -0.5,0 -7,0 C 8.2306223,38 8.0547621,37.990285 7.84375,37.90625 7.6327379,37.822215 7.491864,37.69043 7.40625,37.59375 7.2563739,37.424508 7.1306289,37.221905 7.0625,37 z m 11.8125,3 0.09375,0.5625 c 0.0013,0.0088 0.0085,0.04545 0,0.15625 L 18.9375,41 19,41 l 0,-0.75 -0.0625,0 0,-0.25 -0.0625,0 z" id="path3802" inkscape:connector-curvature="0" opacity="0.2" color="#000000" stroke-width="2" fill="#ffffff"/>
  <g id="g3849" transform="translate(1,9)">
   <path id="rect3816" transform="translate(0,26)" d="m 1.5,8.5 0,0.5 0,2 0,0.5 0.5,0 18,0 0.5,0 0,-0.5 0,-2 0,-0.5 -0.5,0 -18,0 -0.5,0 z" inkscape:connector-curvature="0" fill="url(#linearGradient3854)"/>
   <path d="m 1.5,8.5 0,0.5 0,2 0,0.5 0.5,0 18,0 0.5,0 0,-0.5 0,-2 0,-0.5 -0.5,0 -18,0 -0.5,0 z" transform="translate(0,26)" id="path3833" inkscape:connector-curvature="0" opacity="0.61" fill="none" stroke="#000000"/>
   <path id="path3835" transform="translate(0,26)" d="M 2,9 2,10 20,10 20,9 2,9 z" inkscape:connector-curvature="0" opacity="0.2" fill="#ffffff"/>
  </g>
  <g id="g4046" transform="translate(1,-0.5)">
   <path inkscape:connector-curvature="0" id="rect3940" d="m 18,41 0,3 0.5,0 C 19.331,44 20,43.331 20,42.5 20,41.669 19.331,41 18.5,41 L 18,41 z" opacity="0.2" fill="url(#radialGradient4044)"/>
   <path inkscape:connector-curvature="0" id="rect3942" d="M 4.40625,41 C 3.6271875,41 3,41.627187 3,42.40625 l 0,0.1875 C 3,43.372813 3.6271875,44 4.40625,44 L 5,44 5,41 4.40625,41 z" opacity="0.2" fill="url(#radialGradient4041)"/>
   <path sodipodi:nodetypes="ccccc" inkscape:connector-curvature="0" id="rect3938" d="m 5,41 13,0 0,3 -13,0 z" opacity="0.2" fill="url(#linearGradient4038)"/>
  </g>
  <g transform="translate(1,4)" id="g4962">
   <path d="m 18,41 0,3 0.5,0 C 19.331,44 20,43.331 20,42.5 20,41.669 19.331,41 18.5,41 L 18,41 z" id="path4964" inkscape:connector-curvature="0" opacity="0.2" fill="url(#radialGradient4044)"/>
   <path d="M 4.40625,41 C 3.6271875,41 3,41.627187 3,42.40625 l 0,0.1875 C 3,43.372813 3.6271875,44 4.40625,44 L 5,44 5,41 4.40625,41 z" id="path4966" inkscape:connector-curvature="0" opacity="0.2" fill="url(#radialGradient4041)"/>
   <path d="m 5,41 13,0 0,3 -13,0 z" id="path4968" inkscape:connector-curvature="0" sodipodi:nodetypes="ccccc" opacity="0.2" fill="url(#linearGradient4038)"/>
  </g>
 </g>
</svg>
