<?xml version="1.0" encoding="UTF-8" standalone="no"?>
<svg
   xmlns:dc="http://purl.org/dc/elements/1.1/"
   xmlns:cc="http://creativecommons.org/ns#"
   xmlns:rdf="http://www.w3.org/1999/02/22-rdf-syntax-ns#"
   xmlns:svg="http://www.w3.org/2000/svg"
   xmlns="http://www.w3.org/2000/svg"
   xmlns:xlink="http://www.w3.org/1999/xlink"
   version="1.1"
   id="svg3495"
   height="24"
   width="24">
  <defs
     id="defs3497">
    <linearGradient
       id="linearGradient3821">
      <stop
         id="stop3823"
         offset="0"
         style="stop-color:#555555;stop-opacity:1;" />
      <stop
         id="stop3825"
         offset="1"
         style="stop-color:#666666;stop-opacity:1;" />
    </linearGradient>
    <linearGradient
       gradientUnits="userSpaceOnUse"
       y2="0"
       x2="12"
       y1="22"
       x1="12"
       id="linearGradient3824"
       xlink:href="#linearGradient3821" />
    <linearGradient
       id="linearGradient3952-38">
      <stop
         id="stop3954-7"
         offset="0"
         style="stop-color:#000000;stop-opacity:1;" />
      <stop
         id="stop3956-2"
         offset="1"
         style="stop-color:#000000;stop-opacity:0;" />
    </linearGradient>
    <linearGradient
       id="linearGradient3944-2">
      <stop
         id="stop3946-5"
         offset="0"
         style="stop-color:#000000;stop-opacity:1;" />
      <stop
         id="stop3948-8"
         offset="1"
         style="stop-color:#000000;stop-opacity:0;" />
    </linearGradient>
    <linearGradient
       id="linearGradient3960-2">
      <stop
         id="stop3962-9"
         offset="0"
         style="stop-color:#000000;stop-opacity:0;" />
      <stop
         style="stop-color:#000000;stop-opacity:1;"
         offset="0.5"
         id="stop3970-8" />
      <stop
         id="stop3964-7"
         offset="1"
         style="stop-color:#000000;stop-opacity:0;" />
    </linearGradient>
    <linearGradient
       y2="42"
       x2="25"
       y1="45"
       x1="25"
       gradientTransform="translate(-10,2.5)"
       gradientUnits="userSpaceOnUse"
       id="linearGradient3052"
       xlink:href="#linearGradient3960-2" />
    <radialGradient
       r="2"
       fy="43.5"
       fx="9"
       cy="43.5"
       cx="9"
       gradientTransform="matrix(1,0,0,0.75,-5,13.375)"
       gradientUnits="userSpaceOnUse"
       id="radialGradient3055"
       xlink:href="#linearGradient3944-2" />
    <radialGradient
       r="2"
       fy="43.5"
       fx="40"
       cy="43.5"
       cx="40"
       gradientTransform="matrix(1,0,0,0.75,-22,13.375)"
       gradientUnits="userSpaceOnUse"
       id="radialGradient3058"
       xlink:href="#linearGradient3952-38" />
    <linearGradient
       y2="0"
       x2="12"
       y1="22"
       x1="12"
       gradientUnits="userSpaceOnUse"
       id="linearGradient3081"
       xlink:href="#linearGradient3821" />
    <radialGradient
       r="2"
       fy="43.5"
       fx="40"
       cy="43.5"
       cx="40"
       gradientTransform="matrix(1,0,0,0.75,-22,13.375)"
       gradientUnits="userSpaceOnUse"
       id="radialGradient3083"
       xlink:href="#linearGradient3952-38" />
    <radialGradient
       r="2"
       fy="43.5"
       fx="9"
       cy="43.5"
       cx="9"
       gradientTransform="matrix(1,0,0,0.75,-5,13.375)"
       gradientUnits="userSpaceOnUse"
       id="radialGradient3085"
       xlink:href="#linearGradient3944-2" />
    <linearGradient
       y2="42"
       x2="25"
       y1="45"
       x1="25"
       gradientTransform="translate(-10,2.5)"
       gradientUnits="userSpaceOnUse"
       id="linearGradient3087"
       xlink:href="#linearGradient3960-2" />
    <linearGradient
       y2="0"
       x2="12"
       y1="22"
       x1="12"
       gradientUnits="userSpaceOnUse"
       id="linearGradient3105"
       xlink:href="#linearGradient3821" />
    <radialGradient
       r="2"
       fy="43.5"
       fx="40"
       cy="43.5"
       cx="40"
       gradientTransform="matrix(1,0,0,0.75,-22,13.375)"
       gradientUnits="userSpaceOnUse"
       id="radialGradient3107"
       xlink:href="#linearGradient3952-38" />
    <radialGradient
       r="2"
       fy="43.5"
       fx="9"
       cy="43.5"
       cx="9"
       gradientTransform="matrix(1,0,0,0.75,-5,13.375)"
       gradientUnits="userSpaceOnUse"
       id="radialGradient3109"
       xlink:href="#linearGradient3944-2" />
    <linearGradient
       y2="42"
       x2="25"
       y1="45"
       x1="25"
       gradientTransform="translate(-10,2.5)"
       gradientUnits="userSpaceOnUse"
       id="linearGradient3111"
       xlink:href="#linearGradient3960-2" />
    <linearGradient
       y2="0"
       x2="12"
       y1="22"
       x1="12"
       gradientUnits="userSpaceOnUse"
       id="linearGradient3129"
       xlink:href="#linearGradient3821" />
    <radialGradient
       r="2"
       fy="43.5"
       fx="40"
       cy="43.5"
       cx="40"
       gradientTransform="matrix(1,0,0,0.75,-22,13.375)"
       gradientUnits="userSpaceOnUse"
       id="radialGradient3131"
       xlink:href="#linearGradient3952-38" />
    <radialGradient
       r="2"
       fy="43.5"
       fx="9"
       cy="43.5"
       cx="9"
       gradientTransform="matrix(1,0,0,0.75,-5,13.375)"
       gradientUnits="userSpaceOnUse"
       id="radialGradient3133"
       xlink:href="#linearGradient3944-2" />
    <linearGradient
       y2="42"
       x2="25"
       y1="45"
       x1="25"
       gradientTransform="translate(-10,2.5)"
       gradientUnits="userSpaceOnUse"
       id="linearGradient3135"
       xlink:href="#linearGradient3960-2" />
  </defs>
  <metadata
     id="metadata3500">
    <rdf:RDF>
      <cc:Work
         rdf:about="">
        <dc:format>image/svg+xml</dc:format>
        <dc:type
           rdf:resource="http://purl.org/dc/dcmitype/StillImage" />
        <dc:title />
      </cc:Work>
    </rdf:RDF>
  </metadata>
  <g
     transform="translate(0,-24)"
     id="layer1">
    <g
       transform="translate(1,7)"
       id="g3849">
      <path
         style="fill:url(#linearGradient3824);fill-opacity:1;stroke:none"
         d="m 1.5,8.5 0,0.5 0,2 0,0.5 0.5,0 18,0 0.5,0 0,-0.5 0,-2 0,-0.5 -0.5,0 -18,0 -0.5,0 z"
         transform="translate(0,26)"
         id="rect3816" />
      <path
         id="path3833"
         transform="translate(0,26)"
         d="m 1.5,8.5 0,0.5 0,2 0,0.5 0.5,0 18,0 0.5,0 0,-0.5 0,-2 0,-0.5 -0.5,0 -18,0 -0.5,0 z"
         style="opacity:0.61000001;fill:none;stroke:#000000;stroke-width:1;stroke-miterlimit:4;stroke-opacity:1;stroke-dasharray:none" />
      <path
         style="opacity:0.2;fill:#ffffff;fill-opacity:1;stroke:none"
         d="M 2,9 2,10 20,10 20,9 2,9 z"
         transform="translate(0,26)"
         id="path3835" />
    </g>
    <g
       transform="translate(1,-1)"
       id="g3060">
      <path
         style="opacity:0.2;fill:url(#radialGradient3058);fill-opacity:1;stroke:none"
         d="m 18,44.5 0,3 0.5,0 c 0.831,0 1.5,-0.669 1.5,-1.5 0,-0.831 -0.669,-1.5 -1.5,-1.5 l -0.5,0 z"
         id="rect3940-4" />
      <path
         style="opacity:0.2;fill:url(#radialGradient3055);fill-opacity:1;stroke:none"
         d="M 3.40625,44.5 C 2.6271875,44.5 2,45.127187 2,45.90625 l 0,0.1875 C 2,46.872813 2.6271875,47.5 3.40625,47.5 L 4,47.5 l 0,-3 -0.59375,0 z"
         id="rect3942-9" />
      <path
         style="opacity:0.2;fill:url(#linearGradient3052);fill-opacity:1;stroke:none"
         d="m 4,44.5 14,0 0,3 -14,0 z"
         id="rect3938-7" />
    </g>
    <g
       id="g3065"
       transform="translate(1,2)">
      <path
         id="path3067"
         transform="translate(0,26)"
         d="m 1.5,8.5 0,0.5 0,2 0,0.5 0.5,0 18,0 0.5,0 0,-0.5 0,-2 0,-0.5 -0.5,0 -18,0 -0.5,0 z"
         style="fill:url(#linearGradient3081);fill-opacity:1;stroke:none" />
      <path
         style="opacity:0.61000001;fill:none;stroke:#000000;stroke-width:1;stroke-miterlimit:4;stroke-opacity:1;stroke-dasharray:none"
         d="m 1.5,8.5 0,0.5 0,2 0,0.5 0.5,0 18,0 0.5,0 0,-0.5 0,-2 0,-0.5 -0.5,0 -18,0 -0.5,0 z"
         transform="translate(0,26)"
         id="path3069" />
      <path
         id="path3071"
         transform="translate(0,26)"
         d="M 2,9 2,10 20,10 20,9 2,9 z"
         style="opacity:0.2;fill:#ffffff;fill-opacity:1;stroke:none" />
    </g>
    <g
       transform="translate(1,-6)"
       id="g3073">
      <path
         id="path3075"
         d="m 18,44.5 0,3 0.5,0 c 0.831,0 1.5,-0.669 1.5,-1.5 0,-0.831 -0.669,-1.5 -1.5,-1.5 l -0.5,0 z"
         style="opacity:0.2;fill:url(#radialGradient3083);fill-opacity:1;stroke:none" />
      <path
         id="path3077"
         d="M 3.40625,44.5 C 2.6271875,44.5 2,45.127187 2,45.90625 l 0,0.1875 C 2,46.872813 2.6271875,47.5 3.40625,47.5 L 4,47.5 l 0,-3 -0.59375,0 z"
         style="opacity:0.2;fill:url(#radialGradient3085);fill-opacity:1;stroke:none" />
      <path
         id="path3079"
         d="m 4,44.5 14,0 0,3 -14,0 z"
         style="opacity:0.2;fill:url(#linearGradient3087);fill-opacity:1;stroke:none" />
    </g>
    <g
       transform="translate(1,-3)"
       id="g3089">
      <path
         style="fill:url(#linearGradient3105);fill-opacity:1;stroke:none"
         d="m 1.5,8.5 0,0.5 0,2 0,0.5 0.5,0 18,0 0.5,0 0,-0.5 0,-2 0,-0.5 -0.5,0 -18,0 -0.5,0 z"
         transform="translate(0,26)"
         id="path3091" />
      <path
         id="path3093"
         transform="translate(0,26)"
         d="m 1.5,8.5 0,0.5 0,2 0,0.5 0.5,0 18,0 0.5,0 0,-0.5 0,-2 0,-0.5 -0.5,0 -18,0 -0.5,0 z"
         style="opacity:0.61000001;fill:none;stroke:#000000;stroke-width:1;stroke-miterlimit:4;stroke-opacity:1;stroke-dasharray:none" />
      <path
         style="opacity:0.2;fill:#ffffff;fill-opacity:1;stroke:none"
         d="M 2,9 2,10 20,10 20,9 2,9 z"
         transform="translate(0,26)"
         id="path3095" />
    </g>
    <g
       id="g3097"
       transform="translate(1,-11)">
      <path
         style="opacity:0.2;fill:url(#radialGradient3107);fill-opacity:1;stroke:none"
         d="m 18,44.5 0,3 0.5,0 c 0.831,0 1.5,-0.669 1.5,-1.5 0,-0.831 -0.669,-1.5 -1.5,-1.5 l -0.5,0 z"
         id="path3099" />
      <path
         style="opacity:0.2;fill:url(#radialGradient3109);fill-opacity:1;stroke:none"
         d="M 3.40625,44.5 C 2.6271875,44.5 2,45.127187 2,45.90625 l 0,0.1875 C 2,46.872813 2.6271875,47.5 3.40625,47.5 L 4,47.5 l 0,-3 -0.59375,0 z"
         id="path3101" />
      <path
         style="opacity:0.2;fill:url(#linearGradient3111);fill-opacity:1;stroke:none"
         d="m 4,44.5 14,0 0,3 -14,0 z"
         id="path3103" />
    </g>
    <g
       id="g3113"
       transform="translate(1,-8)">
      <path
         id="path3115"
         transform="translate(0,26)"
         d="m 1.5,8.5 0,0.5 0,2 0,0.5 0.5,0 18,0 0.5,0 0,-0.5 0,-2 0,-0.5 -0.5,0 -18,0 -0.5,0 z"
         style="fill:url(#linearGradient3129);fill-opacity:1;stroke:none" />
      <path
         style="opacity:0.61000001;fill:none;stroke:#000000;stroke-width:1;stroke-miterlimit:4;stroke-opacity:1;stroke-dasharray:none"
         d="m 1.5,8.5 0,0.5 0,2 0,0.5 0.5,0 18,0 0.5,0 0,-0.5 0,-2 0,-0.5 -0.5,0 -18,0 -0.5,0 z"
         transform="translate(0,26)"
         id="path3117" />
      <path
         id="path3119"
         transform="translate(0,26)"
         d="M 2,9 2,10 20,10 20,9 2,9 z"
         style="opacity:0.2;fill:#ffffff;fill-opacity:1;stroke:none" />
    </g>
    <g
       transform="translate(1,-16)"
       id="g3121">
      <path
         id="path3123"
         d="m 18,44.5 0,3 0.5,0 c 0.831,0 1.5,-0.669 1.5,-1.5 0,-0.831 -0.669,-1.5 -1.5,-1.5 l -0.5,0 z"
         style="opacity:0.2;fill:url(#radialGradient3131);fill-opacity:1;stroke:none" />
      <path
         id="path3125"
         d="M 3.40625,44.5 C 2.6271875,44.5 2,45.127187 2,45.90625 l 0,0.1875 C 2,46.872813 2.6271875,47.5 3.40625,47.5 L 4,47.5 l 0,-3 -0.59375,0 z"
         style="opacity:0.2;fill:url(#radialGradient3133);fill-opacity:1;stroke:none" />
      <path
         id="path3127"
         d="m 4,44.5 14,0 0,3 -14,0 z"
         style="opacity:0.2;fill:url(#linearGradient3135);fill-opacity:1;stroke:none" />
    </g>
  </g>
</svg>
