<?xml version="1.0" encoding="UTF-8" standalone="no"?>
<!-- Created with Inkscape (http://www.inkscape.org/) -->

<svg
   xmlns:dc="http://purl.org/dc/elements/1.1/"
   xmlns:cc="http://creativecommons.org/ns#"
   xmlns:rdf="http://www.w3.org/1999/02/22-rdf-syntax-ns#"
   xmlns:svg="http://www.w3.org/2000/svg"
   xmlns="http://www.w3.org/2000/svg"
   xmlns:xlink="http://www.w3.org/1999/xlink"
   xmlns:sodipodi="http://sodipodi.sourceforge.net/DTD/sodipodi-0.dtd"
   xmlns:inkscape="http://www.inkscape.org/namespaces/inkscape"
   width="24"
   height="24"
   id="svg3495"
   version="1.1"
   inkscape:version="0.48.4 r9939"
   sodipodi:docname="format-justify-fill.svg">
  <defs
     id="defs3497">
    <clipPath
       clipPathUnits="userSpaceOnUse"
       id="clipPath3669">
      <path
         inkscape:connector-curvature="0"
         d="M 0,96 96,96 96,0 0,0 0,96 z"
         id="path3671" />
    </clipPath>
    <linearGradient
       inkscape:collect="always"
       xlink:href="#linearGradient3821"
       id="linearGradient3793"
       x1="12"
       y1="22"
       x2="12"
       y2="-2"
       gradientUnits="userSpaceOnUse"
       gradientTransform="translate(0,26)" />
    <linearGradient
       id="linearGradient3821">
      <stop
         style="stop-color:#555555;stop-opacity:1;"
         offset="0"
         id="stop3823" />
      <stop
         style="stop-color:#666666;stop-opacity:1;"
         offset="1"
         id="stop3825" />
    </linearGradient>
    <linearGradient
       y2="-2"
       x2="12"
       y1="22"
       x1="12"
       gradientTransform="translate(31.883514,24.756453)"
       gradientUnits="userSpaceOnUse"
       id="linearGradient3011"
       xlink:href="#linearGradient3821"
       inkscape:collect="always" />
    <linearGradient
       inkscape:collect="always"
       xlink:href="#linearGradient3821"
       id="linearGradient3800"
       x1="12"
       y1="22"
       x2="12"
       y2="0"
       gradientUnits="userSpaceOnUse" />
    <linearGradient
       inkscape:collect="always"
       xlink:href="#linearGradient3821"
       id="linearGradient3810"
       gradientUnits="userSpaceOnUse"
       x1="12"
       y1="22"
       x2="12"
       y2="0" />
    <linearGradient
       inkscape:collect="always"
       xlink:href="#linearGradient3821"
       id="linearGradient3824"
       x1="12"
       y1="22"
       x2="12"
       y2="0"
       gradientUnits="userSpaceOnUse" />
    <linearGradient
       inkscape:collect="always"
       xlink:href="#linearGradient3821"
       id="linearGradient3843"
       gradientUnits="userSpaceOnUse"
       x1="12"
       y1="22"
       x2="12"
       y2="0" />
    <radialGradient
       inkscape:collect="always"
       xlink:href="#linearGradient3952"
       id="radialGradient3960"
       gradientUnits="userSpaceOnUse"
       gradientTransform="matrix(1,0,0,0.75,-21,12.375)"
       cx="40"
       cy="43.5"
       fx="40"
       fy="43.5"
       r="2" />
    <linearGradient
       inkscape:collect="always"
       id="linearGradient3952">
      <stop
         style="stop-color:#000000;stop-opacity:1;"
         offset="0"
         id="stop3954" />
      <stop
         style="stop-color:#000000;stop-opacity:0;"
         offset="1"
         id="stop3956" />
    </linearGradient>
    <radialGradient
       inkscape:collect="always"
       xlink:href="#linearGradient3944"
       id="radialGradient3957"
       gradientUnits="userSpaceOnUse"
       gradientTransform="matrix(1,0,0,0.75,-4,12.375)"
       cx="9"
       cy="43.5"
       fx="9"
       fy="43.5"
       r="2" />
    <linearGradient
       inkscape:collect="always"
       id="linearGradient3944">
      <stop
         style="stop-color:#000000;stop-opacity:1;"
         offset="0"
         id="stop3946" />
      <stop
         style="stop-color:#000000;stop-opacity:0;"
         offset="1"
         id="stop3948" />
    </linearGradient>
    <linearGradient
       inkscape:collect="always"
       xlink:href="#linearGradient3960"
       id="linearGradient3954"
       gradientUnits="userSpaceOnUse"
       gradientTransform="translate(-8,1.5)"
       x1="25"
       y1="45"
       x2="25"
       y2="42" />
    <linearGradient
       id="linearGradient3960">
      <stop
         style="stop-color:#000000;stop-opacity:0;"
         offset="0"
         id="stop3962" />
      <stop
         id="stop3970"
         offset="0.5"
         style="stop-color:#000000;stop-opacity:1;" />
      <stop
         style="stop-color:#000000;stop-opacity:0;"
         offset="1"
         id="stop3964" />
    </linearGradient>
    <linearGradient
       y2="42"
       x2="25"
       y1="45"
       x1="25"
       gradientTransform="translate(-8,1.5)"
       gradientUnits="userSpaceOnUse"
       id="linearGradient3994"
       xlink:href="#linearGradient3960"
       inkscape:collect="always" />
    <radialGradient
       inkscape:collect="always"
       xlink:href="#linearGradient3952-3"
       id="radialGradient4051"
       gradientUnits="userSpaceOnUse"
       gradientTransform="matrix(1,0,0,0.75,-22,9.875)"
       cx="40"
       cy="43.5"
       fx="40"
       fy="43.5"
       r="2" />
    <linearGradient
       inkscape:collect="always"
       id="linearGradient3952-3">
      <stop
         style="stop-color:#000000;stop-opacity:1;"
         offset="0"
         id="stop3954-8" />
      <stop
         style="stop-color:#000000;stop-opacity:0;"
         offset="1"
         id="stop3956-3" />
    </linearGradient>
    <radialGradient
       inkscape:collect="always"
       xlink:href="#linearGradient3944-9"
       id="radialGradient4053"
       gradientUnits="userSpaceOnUse"
       gradientTransform="matrix(1,0,0,0.75,-4,9.875)"
       cx="9"
       cy="43.5"
       fx="9"
       fy="43.5"
       r="2" />
    <linearGradient
       inkscape:collect="always"
       id="linearGradient3944-9">
      <stop
         style="stop-color:#000000;stop-opacity:1;"
         offset="0"
         id="stop3946-8" />
      <stop
         style="stop-color:#000000;stop-opacity:0;"
         offset="1"
         id="stop3948-3" />
    </linearGradient>
    <linearGradient
       inkscape:collect="always"
       xlink:href="#linearGradient3960-5"
       id="linearGradient4055"
       gradientUnits="userSpaceOnUse"
       gradientTransform="translate(-9,-1)"
       x1="25"
       y1="45"
       x2="25"
       y2="42" />
    <linearGradient
       id="linearGradient3960-5">
      <stop
         style="stop-color:#000000;stop-opacity:0;"
         offset="0"
         id="stop3962-5" />
      <stop
         id="stop3970-4"
         offset="0.5"
         style="stop-color:#000000;stop-opacity:1;" />
      <stop
         style="stop-color:#000000;stop-opacity:0;"
         offset="1"
         id="stop3964-1" />
    </linearGradient>
    <linearGradient
       y2="42"
       x2="25"
       y1="45"
       x1="25"
       gradientTransform="translate(-9,-1)"
       gradientUnits="userSpaceOnUse"
       id="linearGradient4125"
       xlink:href="#linearGradient3960-5"
       inkscape:collect="always" />
    <radialGradient
       inkscape:collect="always"
       xlink:href="#linearGradient3952-38"
       id="radialGradient4051-3"
       gradientUnits="userSpaceOnUse"
       gradientTransform="matrix(1,0,0,0.75,-22,9.875)"
       cx="40"
       cy="43.5"
       fx="40"
       fy="43.5"
       r="2" />
    <linearGradient
       inkscape:collect="always"
       id="linearGradient3952-38">
      <stop
         style="stop-color:#000000;stop-opacity:1;"
         offset="0"
         id="stop3954-7" />
      <stop
         style="stop-color:#000000;stop-opacity:0;"
         offset="1"
         id="stop3956-2" />
    </linearGradient>
    <radialGradient
       inkscape:collect="always"
       xlink:href="#linearGradient3944-2"
       id="radialGradient4053-0"
       gradientUnits="userSpaceOnUse"
       gradientTransform="matrix(1,0,0,0.75,-4,9.875)"
       cx="9"
       cy="43.5"
       fx="9"
       fy="43.5"
       r="2" />
    <linearGradient
       inkscape:collect="always"
       id="linearGradient3944-2">
      <stop
         style="stop-color:#000000;stop-opacity:1;"
         offset="0"
         id="stop3946-5" />
      <stop
         style="stop-color:#000000;stop-opacity:0;"
         offset="1"
         id="stop3948-8" />
    </linearGradient>
    <linearGradient
       inkscape:collect="always"
       xlink:href="#linearGradient3960-2"
       id="linearGradient4055-2"
       gradientUnits="userSpaceOnUse"
       gradientTransform="translate(-9,-1)"
       x1="25"
       y1="45"
       x2="25"
       y2="42" />
    <linearGradient
       id="linearGradient3960-2">
      <stop
         style="stop-color:#000000;stop-opacity:0;"
         offset="0"
         id="stop3962-9" />
      <stop
         id="stop3970-8"
         offset="0.5"
         style="stop-color:#000000;stop-opacity:1;" />
      <stop
         style="stop-color:#000000;stop-opacity:0;"
         offset="1"
         id="stop3964-7" />
    </linearGradient>
    <linearGradient
       y2="42"
       x2="25"
       y1="45"
       x1="25"
       gradientTransform="translate(-9,-1)"
       gradientUnits="userSpaceOnUse"
       id="linearGradient4125-7"
       xlink:href="#linearGradient3960-2"
       inkscape:collect="always" />
    <linearGradient
       inkscape:collect="always"
       xlink:href="#linearGradient3960-2"
       id="linearGradient3052"
       gradientUnits="userSpaceOnUse"
       gradientTransform="translate(-10,2.5)"
       x1="25"
       y1="45"
       x2="25"
       y2="42" />
    <radialGradient
       inkscape:collect="always"
       xlink:href="#linearGradient3944-2"
       id="radialGradient3055"
       gradientUnits="userSpaceOnUse"
       gradientTransform="matrix(1,0,0,0.75,-5,13.375)"
       cx="9"
       cy="43.5"
       fx="9"
       fy="43.5"
       r="2" />
    <radialGradient
       inkscape:collect="always"
       xlink:href="#linearGradient3952-38"
       id="radialGradient3058"
       gradientUnits="userSpaceOnUse"
       gradientTransform="matrix(1,0,0,0.75,-22,13.375)"
       cx="40"
       cy="43.5"
       fx="40"
       fy="43.5"
       r="2" />
    <linearGradient
       inkscape:collect="always"
       xlink:href="#linearGradient3821"
       id="linearGradient3081"
       gradientUnits="userSpaceOnUse"
       x1="12"
       y1="22"
       x2="12"
       y2="0" />
    <radialGradient
       inkscape:collect="always"
       xlink:href="#linearGradient3952-38"
       id="radialGradient3083"
       gradientUnits="userSpaceOnUse"
       gradientTransform="matrix(1,0,0,0.75,-22,13.375)"
       cx="40"
       cy="43.5"
       fx="40"
       fy="43.5"
       r="2" />
    <radialGradient
       inkscape:collect="always"
       xlink:href="#linearGradient3944-2"
       id="radialGradient3085"
       gradientUnits="userSpaceOnUse"
       gradientTransform="matrix(1,0,0,0.75,-5,13.375)"
       cx="9"
       cy="43.5"
       fx="9"
       fy="43.5"
       r="2" />
    <linearGradient
       inkscape:collect="always"
       xlink:href="#linearGradient3960-2"
       id="linearGradient3087"
       gradientUnits="userSpaceOnUse"
       gradientTransform="translate(-10,2.5)"
       x1="25"
       y1="45"
       x2="25"
       y2="42" />
    <linearGradient
       inkscape:collect="always"
       xlink:href="#linearGradient3821"
       id="linearGradient3105"
       gradientUnits="userSpaceOnUse"
       x1="12"
       y1="22"
       x2="12"
       y2="0" />
    <radialGradient
       inkscape:collect="always"
       xlink:href="#linearGradient3952-38"
       id="radialGradient3107"
       gradientUnits="userSpaceOnUse"
       gradientTransform="matrix(1,0,0,0.75,-22,13.375)"
       cx="40"
       cy="43.5"
       fx="40"
       fy="43.5"
       r="2" />
    <radialGradient
       inkscape:collect="always"
       xlink:href="#linearGradient3944-2"
       id="radialGradient3109"
       gradientUnits="userSpaceOnUse"
       gradientTransform="matrix(1,0,0,0.75,-5,13.375)"
       cx="9"
       cy="43.5"
       fx="9"
       fy="43.5"
       r="2" />
    <linearGradient
       inkscape:collect="always"
       xlink:href="#linearGradient3960-2"
       id="linearGradient3111"
       gradientUnits="userSpaceOnUse"
       gradientTransform="translate(-10,2.5)"
       x1="25"
       y1="45"
       x2="25"
       y2="42" />
    <linearGradient
       inkscape:collect="always"
       xlink:href="#linearGradient3821"
       id="linearGradient3129"
       gradientUnits="userSpaceOnUse"
       x1="12"
       y1="22"
       x2="12"
       y2="0" />
    <radialGradient
       inkscape:collect="always"
       xlink:href="#linearGradient3952-38"
       id="radialGradient3131"
       gradientUnits="userSpaceOnUse"
       gradientTransform="matrix(1,0,0,0.75,-22,13.375)"
       cx="40"
       cy="43.5"
       fx="40"
       fy="43.5"
       r="2" />
    <radialGradient
       inkscape:collect="always"
       xlink:href="#linearGradient3944-2"
       id="radialGradient3133"
       gradientUnits="userSpaceOnUse"
       gradientTransform="matrix(1,0,0,0.75,-5,13.375)"
       cx="9"
       cy="43.5"
       fx="9"
       fy="43.5"
       r="2" />
    <linearGradient
       inkscape:collect="always"
       xlink:href="#linearGradient3960-2"
       id="linearGradient3135"
       gradientUnits="userSpaceOnUse"
       gradientTransform="translate(-10,2.5)"
       x1="25"
       y1="45"
       x2="25"
       y2="42" />
  </defs>
  <sodipodi:namedview
     id="base"
     pagecolor="#ffffff"
     bordercolor="#666666"
     borderopacity="1.0"
     inkscape:pageopacity="0.0"
     inkscape:pageshadow="2"
     inkscape:zoom="1"
     inkscape:cx="46.62516"
     inkscape:cy="34.200744"
     inkscape:current-layer="layer1"
     showgrid="false"
     showborder="true"
     inkscape:grid-bbox="true"
     inkscape:document-units="px"
     inkscape:window-width="1364"
     inkscape:window-height="700"
     inkscape:window-x="0"
     inkscape:window-y="28"
     inkscape:window-maximized="1"
     inkscape:snap-bbox="true"
     inkscape:bbox-paths="true"
     inkscape:bbox-nodes="true"
     inkscape:snap-bbox-edge-midpoints="false"
     showguides="true"
     inkscape:guide-bbox="true">
    <inkscape:grid
       type="xygrid"
       id="grid3512"
       empspacing="4"
       visible="true"
       enabled="true"
       snapvisiblegridlinesonly="true"
       dotted="false" />
  </sodipodi:namedview>
  <metadata
     id="metadata3500">
    <rdf:RDF>
      <cc:Work
         rdf:about="">
        <dc:format>image/svg+xml</dc:format>
        <dc:type
           rdf:resource="http://purl.org/dc/dcmitype/StillImage" />
        <dc:title />
      </cc:Work>
    </rdf:RDF>
  </metadata>
  <g
     id="layer1"
     inkscape:label="Layer 1"
     inkscape:groupmode="layer"
     transform="translate(0,-24)">
    <g
       id="g3849"
       transform="translate(1,7)">
      <path
         id="rect3816"
         transform="translate(0,26)"
         d="m 1.5,8.5 0,0.5 0,2 0,0.5 0.5,0 18,0 0.5,0 0,-0.5 0,-2 0,-0.5 -0.5,0 -18,0 -0.5,0 z"
         style="fill:url(#linearGradient3824);fill-opacity:1;stroke:none"
         inkscape:connector-curvature="0" />
      <path
         style="opacity:0.61000001;fill:none;stroke:#000000;stroke-width:1;stroke-miterlimit:4;stroke-opacity:1;stroke-dasharray:none"
         d="m 1.5,8.5 0,0.5 0,2 0,0.5 0.5,0 18,0 0.5,0 0,-0.5 0,-2 0,-0.5 -0.5,0 -18,0 -0.5,0 z"
         transform="translate(0,26)"
         id="path3833"
         inkscape:connector-curvature="0" />
      <path
         id="path3835"
         transform="translate(0,26)"
         d="M 2,9 2,10 20,10 20,9 2,9 z"
         style="opacity:0.2;fill:#ffffff;fill-opacity:1;stroke:none"
         inkscape:connector-curvature="0" />
    </g>
    <g
       id="g3060"
       transform="translate(1,-1)">
      <path
         inkscape:connector-curvature="0"
         id="rect3940-4"
         d="m 18,44.5 0,3 0.5,0 c 0.831,0 1.5,-0.669 1.5,-1.5 0,-0.831 -0.669,-1.5 -1.5,-1.5 l -0.5,0 z"
         style="opacity:0.2;fill:url(#radialGradient3058);fill-opacity:1;stroke:none" />
      <path
         inkscape:connector-curvature="0"
         id="rect3942-9"
         d="M 3.40625,44.5 C 2.6271875,44.5 2,45.127187 2,45.90625 l 0,0.1875 C 2,46.872813 2.6271875,47.5 3.40625,47.5 L 4,47.5 l 0,-3 -0.59375,0 z"
         style="opacity:0.2;fill:url(#radialGradient3055);fill-opacity:1;stroke:none" />
      <path
         sodipodi:nodetypes="ccccc"
         inkscape:connector-curvature="0"
         id="rect3938-7"
         d="m 4,44.5 14,0 0,3 -14,0 z"
         style="opacity:0.2;fill:url(#linearGradient3052);fill-opacity:1;stroke:none" />
    </g>
    <g
       transform="translate(1,2)"
       id="g3065">
      <path
         inkscape:connector-curvature="0"
         style="fill:url(#linearGradient3081);fill-opacity:1;stroke:none"
         d="m 1.5,8.5 0,0.5 0,2 0,0.5 0.5,0 18,0 0.5,0 0,-0.5 0,-2 0,-0.5 -0.5,0 -18,0 -0.5,0 z"
         transform="translate(0,26)"
         id="path3067" />
      <path
         inkscape:connector-curvature="0"
         id="path3069"
         transform="translate(0,26)"
         d="m 1.5,8.5 0,0.5 0,2 0,0.5 0.5,0 18,0 0.5,0 0,-0.5 0,-2 0,-0.5 -0.5,0 -18,0 -0.5,0 z"
         style="opacity:0.61000001;fill:none;stroke:#000000;stroke-width:1;stroke-miterlimit:4;stroke-opacity:1;stroke-dasharray:none" />
      <path
         inkscape:connector-curvature="0"
         style="opacity:0.2;fill:#ffffff;fill-opacity:1;stroke:none"
         d="M 2,9 2,10 20,10 20,9 2,9 z"
         transform="translate(0,26)"
         id="path3071" />
    </g>
    <g
       id="g3073"
       transform="translate(1,-6)">
      <path
         style="opacity:0.2;fill:url(#radialGradient3083);fill-opacity:1;stroke:none"
         d="m 18,44.5 0,3 0.5,0 c 0.831,0 1.5,-0.669 1.5,-1.5 0,-0.831 -0.669,-1.5 -1.5,-1.5 l -0.5,0 z"
         id="path3075"
         inkscape:connector-curvature="0" />
      <path
         style="opacity:0.2;fill:url(#radialGradient3085);fill-opacity:1;stroke:none"
         d="M 3.40625,44.5 C 2.6271875,44.5 2,45.127187 2,45.90625 l 0,0.1875 C 2,46.872813 2.6271875,47.5 3.40625,47.5 L 4,47.5 l 0,-3 -0.59375,0 z"
         id="path3077"
         inkscape:connector-curvature="0" />
      <path
         style="opacity:0.2;fill:url(#linearGradient3087);fill-opacity:1;stroke:none"
         d="m 4,44.5 14,0 0,3 -14,0 z"
         id="path3079"
         inkscape:connector-curvature="0"
         sodipodi:nodetypes="ccccc" />
    </g>
    <g
       id="g3089"
       transform="translate(1,-3)">
      <path
         id="path3091"
         transform="translate(0,26)"
         d="m 1.5,8.5 0,0.5 0,2 0,0.5 0.5,0 18,0 0.5,0 0,-0.5 0,-2 0,-0.5 -0.5,0 -18,0 -0.5,0 z"
         style="fill:url(#linearGradient3105);fill-opacity:1;stroke:none"
         inkscape:connector-curvature="0" />
      <path
         style="opacity:0.61000001;fill:none;stroke:#000000;stroke-width:1;stroke-miterlimit:4;stroke-opacity:1;stroke-dasharray:none"
         d="m 1.5,8.5 0,0.5 0,2 0,0.5 0.5,0 18,0 0.5,0 0,-0.5 0,-2 0,-0.5 -0.5,0 -18,0 -0.5,0 z"
         transform="translate(0,26)"
         id="path3093"
         inkscape:connector-curvature="0" />
      <path
         id="path3095"
         transform="translate(0,26)"
         d="M 2,9 2,10 20,10 20,9 2,9 z"
         style="opacity:0.2;fill:#ffffff;fill-opacity:1;stroke:none"
         inkscape:connector-curvature="0" />
    </g>
    <g
       transform="translate(1,-11)"
       id="g3097">
      <path
         inkscape:connector-curvature="0"
         id="path3099"
         d="m 18,44.5 0,3 0.5,0 c 0.831,0 1.5,-0.669 1.5,-1.5 0,-0.831 -0.669,-1.5 -1.5,-1.5 l -0.5,0 z"
         style="opacity:0.2;fill:url(#radialGradient3107);fill-opacity:1;stroke:none" />
      <path
         inkscape:connector-curvature="0"
         id="path3101"
         d="M 3.40625,44.5 C 2.6271875,44.5 2,45.127187 2,45.90625 l 0,0.1875 C 2,46.872813 2.6271875,47.5 3.40625,47.5 L 4,47.5 l 0,-3 -0.59375,0 z"
         style="opacity:0.2;fill:url(#radialGradient3109);fill-opacity:1;stroke:none" />
      <path
         sodipodi:nodetypes="ccccc"
         inkscape:connector-curvature="0"
         id="path3103"
         d="m 4,44.5 14,0 0,3 -14,0 z"
         style="opacity:0.2;fill:url(#linearGradient3111);fill-opacity:1;stroke:none" />
    </g>
    <g
       transform="translate(1,-8)"
       id="g3113">
      <path
         inkscape:connector-curvature="0"
         style="fill:url(#linearGradient3129);fill-opacity:1;stroke:none"
         d="m 1.5,8.5 0,0.5 0,2 0,0.5 0.5,0 18,0 0.5,0 0,-0.5 0,-2 0,-0.5 -0.5,0 -18,0 -0.5,0 z"
         transform="translate(0,26)"
         id="path3115" />
      <path
         inkscape:connector-curvature="0"
         id="path3117"
         transform="translate(0,26)"
         d="m 1.5,8.5 0,0.5 0,2 0,0.5 0.5,0 18,0 0.5,0 0,-0.5 0,-2 0,-0.5 -0.5,0 -18,0 -0.5,0 z"
         style="opacity:0.61000001;fill:none;stroke:#000000;stroke-width:1;stroke-miterlimit:4;stroke-opacity:1;stroke-dasharray:none" />
      <path
         inkscape:connector-curvature="0"
         style="opacity:0.2;fill:#ffffff;fill-opacity:1;stroke:none"
         d="M 2,9 2,10 20,10 20,9 2,9 z"
         transform="translate(0,26)"
         id="path3119" />
    </g>
    <g
       id="g3121"
       transform="translate(1,-16)">
      <path
         style="opacity:0.2;fill:url(#radialGradient3131);fill-opacity:1;stroke:none"
         d="m 18,44.5 0,3 0.5,0 c 0.831,0 1.5,-0.669 1.5,-1.5 0,-0.831 -0.669,-1.5 -1.5,-1.5 l -0.5,0 z"
         id="path3123"
         inkscape:connector-curvature="0" />
      <path
         style="opacity:0.2;fill:url(#radialGradient3133);fill-opacity:1;stroke:none"
         d="M 3.40625,44.5 C 2.6271875,44.5 2,45.127187 2,45.90625 l 0,0.1875 C 2,46.872813 2.6271875,47.5 3.40625,47.5 L 4,47.5 l 0,-3 -0.59375,0 z"
         id="path3125"
         inkscape:connector-curvature="0" />
      <path
         style="opacity:0.2;fill:url(#linearGradient3135);fill-opacity:1;stroke:none"
         d="m 4,44.5 14,0 0,3 -14,0 z"
         id="path3127"
         inkscape:connector-curvature="0"
         sodipodi:nodetypes="ccccc" />
    </g>
  </g>
</svg>
