<?xml version="1.0" encoding="UTF-8" standalone="no"?>
<svg
   xmlns:dc="http://purl.org/dc/elements/1.1/"
   xmlns:cc="http://creativecommons.org/ns#"
   xmlns:rdf="http://www.w3.org/1999/02/22-rdf-syntax-ns#"
   xmlns:svg="http://www.w3.org/2000/svg"
   xmlns="http://www.w3.org/2000/svg"
   xmlns:xlink="http://www.w3.org/1999/xlink"
   version="1.1"
   id="svg3495"
   height="24"
   width="24">
  <defs
     id="defs3497">
    <linearGradient
       id="linearGradient3821">
      <stop
         id="stop3823"
         offset="0"
         style="stop-color:#555555;stop-opacity:1;" />
      <stop
         id="stop3825"
         offset="1"
         style="stop-color:#666666;stop-opacity:1;" />
    </linearGradient>
    <linearGradient
       gradientTransform="translate(3,33)"
       y2="0"
       x2="12"
       y1="22"
       x1="12"
       gradientUnits="userSpaceOnUse"
       id="linearGradient3233"
       xlink:href="#linearGradient3821" />
    <linearGradient
       gradientTransform="translate(2,28)"
       y2="0"
       x2="12"
       y1="22"
       x1="12"
       gradientUnits="userSpaceOnUse"
       id="linearGradient3247"
       xlink:href="#linearGradient3821" />
    <linearGradient
       gradientTransform="translate(1,23)"
       y2="0"
       x2="12"
       y1="22"
       x1="12"
       gradientUnits="userSpaceOnUse"
       id="linearGradient3261"
       xlink:href="#linearGradient3821" />
    <linearGradient
       gradientTransform="translate(4,18)"
       y2="0"
       x2="12"
       y1="22"
       x1="12"
       gradientUnits="userSpaceOnUse"
       id="linearGradient3275"
       xlink:href="#linearGradient3821" />
  </defs>
  <metadata
     id="metadata3500">
    <rdf:RDF>
      <cc:Work
         rdf:about="">
        <dc:format>image/svg+xml</dc:format>
        <dc:type
           rdf:resource="http://purl.org/dc/dcmitype/StillImage" />
        <dc:title />
      </cc:Work>
    </rdf:RDF>
  </metadata>
  <g
     transform="translate(0,-24)"
     id="layer1">
    <path
       id="rect3816"
       d="m 4.5,41.5 0,0.5 0,2 0,0.5 0.5,0 14,0 0.5,0 0,-0.5 0,-2 0,-0.5 -0.5,0 -14,0 z"
       style="fill:url(#linearGradient3233);fill-opacity:1;stroke:none" />
    <path
       style="opacity:0.61000001;fill:none;stroke:#000000;stroke-width:1;stroke-miterlimit:4;stroke-opacity:1;stroke-dasharray:none"
       d="m 4.5,41.5 0,0.5 0,2 0,0.5 0.5,0 14,0 0.5,0 0,-0.5 0,-2 0,-0.5 -0.5,0 -14,0 z"
       id="path3833" />
    <path
       id="path3835"
       d="m 5,42 0,1 14,0 0,-1 z"
       style="opacity:0.2;fill:#ffffff;fill-opacity:1;stroke:none" />
    <path
       style="fill:url(#linearGradient3247);fill-opacity:1;stroke:none"
       d="m 3.5,36.5 0,0.5 0,2 0,0.5 0.5,0 16,0 0.5,0 0,-0.5 0,-2 0,-0.5 -0.5,0 -16,0 z"
       id="path3067" />
    <path
       id="path3069"
       d="m 3.5,36.5 0,0.5 0,2 0,0.5 0.5,0 16,0 0.5,0 0,-0.5 0,-2 0,-0.5 -0.5,0 -16,0 z"
       style="opacity:0.61000001;fill:none;stroke:#000000;stroke-width:1;stroke-miterlimit:4;stroke-opacity:1;stroke-dasharray:none" />
    <path
       style="opacity:0.2;fill:#ffffff;fill-opacity:1;stroke:none"
       d="m 4,37 0,1 16,0 0,-1 z"
       id="path3071" />
    <path
       id="path3091"
       d="m 2.5,31.5 0,0.5 0,2 0,0.5 0.5,0 18,0 0.5,0 0,-0.5 0,-2 0,-0.5 -0.5,0 -18,0 z"
       style="fill:url(#linearGradient3261);fill-opacity:1;stroke:none" />
    <path
       style="opacity:0.61000001;fill:none;stroke:#000000;stroke-width:1;stroke-miterlimit:4;stroke-opacity:1;stroke-dasharray:none"
       d="m 2.5,31.5 0,0.5 0,2 0,0.5 0.5,0 18,0 0.5,0 0,-0.5 0,-2 0,-0.5 -0.5,0 -18,0 z"
       id="path3093" />
    <path
       id="path3095"
       d="m 3,32 0,1 18,0 0,-1 z"
       style="opacity:0.2;fill:#ffffff;fill-opacity:1;stroke:none" />
    <path
       style="fill:url(#linearGradient3275);fill-opacity:1;stroke:none"
       d="m 5.5,26.5 0,0.5 0,2 0,0.5 0.5,0 12,0 0.5,0 0,-0.5 0,-2 0,-0.5 -0.5,0 -12,0 z"
       id="path3115" />
    <path
       id="path3117"
       d="m 5.5,26.5 0,0.5 0,2 0,0.5 0.5,0 12,0 0.5,0 0,-0.5 0,-2 0,-0.5 -0.5,0 -12,0 z"
       style="opacity:0.61000001;fill:none;stroke:#000000;stroke-width:1;stroke-miterlimit:4;stroke-opacity:1;stroke-dasharray:none" />
    <path
       style="opacity:0.2;fill:#ffffff;fill-opacity:1;stroke:none"
       d="m 6,27 0,1 12,0 0,-1 z"
       id="path3119" />
  </g>
</svg>
