<?xml version="1.0" encoding="UTF-8" standalone="no"?>
<svg
   xmlns:dc="http://purl.org/dc/elements/1.1/"
   xmlns:cc="http://creativecommons.org/ns#"
   xmlns:rdf="http://www.w3.org/1999/02/22-rdf-syntax-ns#"
   xmlns:svg="http://www.w3.org/2000/svg"
   xmlns="http://www.w3.org/2000/svg"
   xmlns:xlink="http://www.w3.org/1999/xlink"
   version="1.1"
   id="svg3495"
   height="24"
   width="24">
  <defs
     id="defs3497">
    <linearGradient
       id="linearGradient3821">
      <stop
         id="stop3823"
         offset="0"
         style="stop-color:#555555;stop-opacity:1;" />
      <stop
         id="stop3825"
         offset="1"
         style="stop-color:#666666;stop-opacity:1;" />
    </linearGradient>
    <linearGradient
       gradientTransform="translate(1,25)"
       gradientUnits="userSpaceOnUse"
       y2="0"
       x2="12"
       y1="22"
       x1="12"
       id="linearGradient3800"
       xlink:href="#linearGradient3821" />
    <linearGradient
       gradientTransform="translate(0,-10)"
       y2="0"
       x2="12"
       y1="22"
       x1="12"
       gradientUnits="userSpaceOnUse"
       id="linearGradient3854"
       xlink:href="#linearGradient3821" />
    <linearGradient
       id="linearGradient3952">
      <stop
         id="stop3954"
         offset="0"
         style="stop-color:#000000;stop-opacity:1;" />
      <stop
         id="stop3956"
         offset="1"
         style="stop-color:#000000;stop-opacity:0;" />
    </linearGradient>
    <linearGradient
       id="linearGradient3944">
      <stop
         id="stop3946"
         offset="0"
         style="stop-color:#000000;stop-opacity:1;" />
      <stop
         id="stop3948"
         offset="1"
         style="stop-color:#000000;stop-opacity:0;" />
    </linearGradient>
    <linearGradient
       id="linearGradient3960">
      <stop
         id="stop3962"
         offset="0"
         style="stop-color:#000000;stop-opacity:0;" />
      <stop
         style="stop-color:#000000;stop-opacity:1;"
         offset="0.5"
         id="stop3970" />
      <stop
         id="stop3964"
         offset="1"
         style="stop-color:#000000;stop-opacity:0;" />
    </linearGradient>
    <radialGradient
       r="2"
       fy="43.5"
       fx="40"
       cy="43.5"
       cx="40"
       gradientTransform="matrix(1,0,0,0.75,-22,9.875)"
       gradientUnits="userSpaceOnUse"
       id="radialGradient4051"
       xlink:href="#linearGradient3952" />
    <radialGradient
       r="2"
       fy="43.5"
       fx="9"
       cy="43.5"
       cx="9"
       gradientTransform="matrix(1,0,0,0.75,-4,9.875)"
       gradientUnits="userSpaceOnUse"
       id="radialGradient4053"
       xlink:href="#linearGradient3944" />
    <linearGradient
       y2="42"
       x2="25"
       y1="45"
       x1="25"
       gradientTransform="translate(-9,-1)"
       gradientUnits="userSpaceOnUse"
       id="linearGradient4055"
       xlink:href="#linearGradient3960" />
    <radialGradient
       r="2"
       fy="43.5"
       fx="40"
       cy="43.5"
       cx="40"
       gradientTransform="matrix(1,0,0,0.75,-22,9.875)"
       gradientUnits="userSpaceOnUse"
       id="radialGradient4970"
       xlink:href="#linearGradient3952" />
    <radialGradient
       r="2"
       fy="43.5"
       fx="9"
       cy="43.5"
       cx="9"
       gradientTransform="matrix(1,0,0,0.75,-4,9.875)"
       gradientUnits="userSpaceOnUse"
       id="radialGradient4972"
       xlink:href="#linearGradient3944" />
    <linearGradient
       y2="42"
       x2="25"
       y1="45"
       x1="25"
       gradientTransform="translate(-9,-1)"
       gradientUnits="userSpaceOnUse"
       id="linearGradient4974"
       xlink:href="#linearGradient3960" />
  </defs>
  <metadata
     id="metadata3500">
    <rdf:RDF>
      <cc:Work
         rdf:about="">
        <dc:format>image/svg+xml</dc:format>
        <dc:type
           rdf:resource="http://purl.org/dc/dcmitype/StillImage" />
        <dc:title />
      </cc:Work>
    </rdf:RDF>
  </metadata>
  <g
     transform="translate(0,-24)"
     id="layer1">
    <path
       id="path11643-3-2"
       d="m 5.5,25.5 0,0.5 0,3 0,0.5 0.5,0 8.5,0 c 0.08206,0 0.389728,0.133396 0.625,0.375 0.235272,0.241604 0.375,0.582603 0.375,0.625 l 0,1 -7,0 c -1.5181314,0 -2.8768217,0.632337 -3.75,1.625 L 4.71875,33.15625 C 3.8831141,34.123332 3.4895182,35.317935 3.5,36.5 3.50999,37.69972 3.9302675,38.914024 4.78125,39.875 5.6466277,40.852232 6.9943753,41.5 8.5,41.5 l 7.5,0 1.5,0 1.5,0 0.5,0 0,-0.5 0,-1.25 -0.03125,0 c 0.0096,-0.125508 0.009,-0.190696 0,-0.25 l 0.03125,0 0,-1.5 0,-7.5 c 0,-2.720691 -2.208767,-5 -5,-5 l -8.5,0 -0.5,0 z m 3,10 7,0 0,2 -7,0 C 7.9951765,37.5 7.9571342,37.448611 7.78125,37.25 7.6331845,37.082802 7.502401,36.770483 7.5,36.5 7.4979278,36.210532 7.6330513,35.882946 7.75,35.75 7.9077178,35.570708 7.9580406,35.5 8.5,35.5 z"
       style="font-style:normal;font-variant:normal;font-weight:normal;font-stretch:normal;text-indent:0;text-align:start;text-decoration:none;line-height:normal;letter-spacing:normal;word-spacing:normal;text-transform:none;direction:ltr;block-progression:tb;writing-mode:lr-tb;text-anchor:start;baseline-shift:baseline;color:#000000;fill:url(#linearGradient3800);fill-opacity:1;stroke:none;stroke-width:2;marker:none;visibility:visible;display:inline;overflow:visible;enable-background:accumulate;font-family:Sans;-inkscape-font-specification:Sans" />
    <path
       style="font-style:normal;font-variant:normal;font-weight:normal;font-stretch:normal;text-indent:0;text-align:start;text-decoration:none;line-height:normal;letter-spacing:normal;word-spacing:normal;text-transform:none;direction:ltr;block-progression:tb;writing-mode:lr-tb;text-anchor:start;baseline-shift:baseline;opacity:0.61000001;color:#000000;fill:none;stroke:#000000;stroke-width:1;stroke-miterlimit:4;stroke-opacity:1;stroke-dasharray:none;marker:none;visibility:visible;display:inline;overflow:visible;enable-background:accumulate;font-family:Sans;-inkscape-font-specification:Sans"
       d="m 5.5,25.5 0,0.5 0,3 0,0.5 0.5,0 8.5,0 c 0.08206,0 0.389728,0.133396 0.625,0.375 0.235272,0.241604 0.375,0.582603 0.375,0.625 l 0,1 -7,0 c -1.5181314,0 -2.8768217,0.632337 -3.75,1.625 L 4.71875,33.15625 C 3.8831141,34.123332 3.4895182,35.317935 3.5,36.5 3.50999,37.69972 3.9302675,38.914024 4.78125,39.875 5.6466277,40.852232 6.9943753,41.5 8.5,41.5 l 7.5,0 1.5,0 1.5,0 0.5,0 0,-0.5 0,-1.25 -0.03125,0 c 0.0096,-0.125508 0.009,-0.190696 0,-0.25 l 0.03125,0 0,-1.5 0,-7.5 c 0,-2.720691 -2.208767,-5 -5,-5 l -8.5,0 -0.5,0 z m 3,10 7,0 0,2 -7,0 C 7.9951765,37.5 7.9571342,37.448611 7.78125,37.25 7.6331845,37.082802 7.502401,36.770483 7.5,36.5 7.4979278,36.210532 7.6330513,35.882946 7.75,35.75 7.9077178,35.570708 7.9580406,35.5 8.5,35.5 z"
       id="path3791" />
    <path
       id="path3802"
       d="m 6,26 0,1 8.5,0 c 2.519034,0 4.5,2.049922 4.5,4.5 l 0,-1 C 19,28.049922 17.019034,26 14.5,26 L 6,26 z m 2.5,6 c -1.3792903,0 -2.6021596,0.590155 -3.375,1.46875 l -0.03125,0 L 5.0625,33.5 C 4.3290499,34.365593 3.99065,35.445603 4,36.5 4.00139,36.666857 4.012256,36.834179 4.03125,37 4.117778,36.112343 4.4462387,35.227291 5.0625,34.5 l 0.03125,-0.03125 0.03125,0 C 5.8978404,33.590155 7.1207097,33 8.5,33 l 7,0 0.5,0 0,-0.5 0,-0.5 -0.5,0 -7,0 z M 7.0625,37 C 7.0205927,37.155264 6.9986707,37.314313 7,37.5 c 0.0038,0.428221 0.1501803,0.804592 0.40625,1.09375 0.085614,0.09668 0.2264879,0.228465 0.4375,0.3125 C 8.0547621,38.990285 8.2306223,39 8.5,39 l 7,0 0.5,0 0,-0.5 0,-0.5 -0.5,0 -7,0 C 8.2306223,38 8.0547621,37.990285 7.84375,37.90625 7.6327379,37.822215 7.491864,37.69043 7.40625,37.59375 7.2563739,37.424508 7.1306289,37.221905 7.0625,37 z m 11.8125,3 0.09375,0.5625 c 0.0013,0.0088 0.0085,0.04545 0,0.15625 L 18.9375,41 19,41 l 0,-0.75 -0.0625,0 0,-0.25 -0.0625,0 z"
       style="font-style:normal;font-variant:normal;font-weight:normal;font-stretch:normal;text-indent:0;text-align:start;text-decoration:none;line-height:normal;letter-spacing:normal;word-spacing:normal;text-transform:none;direction:ltr;block-progression:tb;writing-mode:lr-tb;text-anchor:start;baseline-shift:baseline;opacity:0.2;color:#000000;fill:#ffffff;fill-opacity:1;stroke:none;stroke-width:2;marker:none;visibility:visible;display:inline;overflow:visible;enable-background:accumulate;font-family:Sans;-inkscape-font-specification:Sans" />
    <g
       transform="translate(1,9)"
       id="g3849">
      <path
         style="fill:url(#linearGradient3854);fill-opacity:1;stroke:none"
         d="m 1.5,8.5 0,0.5 0,2 0,0.5 0.5,0 18,0 0.5,0 0,-0.5 0,-2 0,-0.5 -0.5,0 -18,0 -0.5,0 z"
         transform="translate(0,26)"
         id="rect3816" />
      <path
         id="path3833"
         transform="translate(0,26)"
         d="m 1.5,8.5 0,0.5 0,2 0,0.5 0.5,0 18,0 0.5,0 0,-0.5 0,-2 0,-0.5 -0.5,0 -18,0 -0.5,0 z"
         style="opacity:0.61000001;fill:none;stroke:#000000;stroke-width:1;stroke-miterlimit:4;stroke-opacity:1;stroke-dasharray:none" />
      <path
         style="opacity:0.2;fill:#ffffff;fill-opacity:1;stroke:none"
         d="M 2,9 2,10 20,10 20,9 2,9 z"
         transform="translate(0,26)"
         id="path3835" />
    </g>
    <g
       transform="translate(1,-0.5)"
       id="g4046">
      <path
         style="opacity:0.2;fill:url(#radialGradient4051);fill-opacity:1;stroke:none"
         d="m 18,41 0,3 0.5,0 C 19.331,44 20,43.331 20,42.5 20,41.669 19.331,41 18.5,41 L 18,41 z"
         id="rect3940" />
      <path
         style="opacity:0.2;fill:url(#radialGradient4053);fill-opacity:1;stroke:none"
         d="M 4.40625,41 C 3.6271875,41 3,41.627187 3,42.40625 l 0,0.1875 C 3,43.372813 3.6271875,44 4.40625,44 L 5,44 5,41 4.40625,41 z"
         id="rect3942" />
      <path
         style="opacity:0.2;fill:url(#linearGradient4055);fill-opacity:1;stroke:none"
         d="m 5,41 13,0 0,3 -13,0 z"
         id="rect3938" />
    </g>
    <g
       id="g4962"
       transform="translate(1,4)">
      <path
         id="path4964"
         d="m 18,41 0,3 0.5,0 C 19.331,44 20,43.331 20,42.5 20,41.669 19.331,41 18.5,41 L 18,41 z"
         style="opacity:0.2;fill:url(#radialGradient4970);fill-opacity:1;stroke:none" />
      <path
         id="path4966"
         d="M 4.40625,41 C 3.6271875,41 3,41.627187 3,42.40625 l 0,0.1875 C 3,43.372813 3.6271875,44 4.40625,44 L 5,44 5,41 4.40625,41 z"
         style="opacity:0.2;fill:url(#radialGradient4972);fill-opacity:1;stroke:none" />
      <path
         id="path4968"
         d="m 5,41 13,0 0,3 -13,0 z"
         style="opacity:0.2;fill:url(#linearGradient4974);fill-opacity:1;stroke:none" />
    </g>
  </g>
</svg>
