<?xml version="1.0" encoding="UTF-8" standalone="no"?>
<svg xmlns="http://www.w3.org/2000/svg" xmlns:xlink="http://www.w3.org/1999/xlink" xmlns:sodipodi="http://sodipodi.sourceforge.net/DTD/sodipodi-0.dtd" xmlns:inkscape="http://www.inkscape.org/namespaces/inkscape" width="24" height="24" version="1.1">
 <defs id="defs3497">
  <clipPath id="clipPath3669">
   <path d="M 0,96 96,96 96,0 0,0 0,96 z" id="path3671"/>
  </clipPath>
  <linearGradient inkscape:collect="always" xlink:href="#linearGradient3821" id="linearGradient3793" y1="22" x2="0" y2="-2" gradientUnits="userSpaceOnUse" gradientTransform="translate(0,26)"/>
  <linearGradient id="linearGradient3821">
   <stop id="stop3823" stop-color="#555555"/>
   <stop offset="1" id="stop3825" stop-color="#666666"/>
  </linearGradient>
  <linearGradient y2="-2" x2="0" y1="22" gradientTransform="translate(31.883514,24.756453)" gradientUnits="userSpaceOnUse" id="linearGradient3011" xlink:href="#linearGradient3821" inkscape:collect="always"/>
  <linearGradient inkscape:collect="always" xlink:href="#linearGradient3821" id="linearGradient3800" y1="22" x2="0" y2="0" gradientUnits="userSpaceOnUse"/>
  <radialGradient inkscape:collect="always" xlink:href="#linearGradient3952" id="radialGradient3960" gradientUnits="userSpaceOnUse" gradientTransform="matrix(1,0,0,0.75,-21,12.375)" cx="40" cy="43.5" r="2"/>
  <linearGradient inkscape:collect="always" id="linearGradient3952">
   <stop id="stop3954"/>
   <stop offset="1" id="stop3956" stop-opacity="0"/>
  </linearGradient>
  <radialGradient inkscape:collect="always" xlink:href="#linearGradient3952" id="radialGradient3957" gradientUnits="userSpaceOnUse" gradientTransform="matrix(1,0,0,0.75,-4,12.375)" cx="9" cy="43.5" r="2"/>
  <linearGradient inkscape:collect="always" xlink:href="#linearGradient3960" id="linearGradient3954" gradientUnits="userSpaceOnUse" gradientTransform="translate(-8,1.5)" y1="45" x2="0" y2="42"/>
  <linearGradient id="linearGradient3960">
   <stop id="stop3962" stop-opacity="0"/>
   <stop id="stop3970" offset="0.5"/>
   <stop offset="1" id="stop3964" stop-opacity="0"/>
  </linearGradient>
  <radialGradient inkscape:collect="always" xlink:href="#linearGradient3952" id="radialGradient4051" gradientUnits="userSpaceOnUse" gradientTransform="matrix(1,0,0,0.75,-22,9.875)" cx="40" cy="43.5" r="2"/>
  <radialGradient inkscape:collect="always" xlink:href="#linearGradient3952" id="radialGradient4053" gradientUnits="userSpaceOnUse" gradientTransform="matrix(1,0,0,0.75,-4,9.875)" cx="9" cy="43.5" r="2"/>
  <linearGradient inkscape:collect="always" xlink:href="#linearGradient3960" id="linearGradient4055" gradientUnits="userSpaceOnUse" gradientTransform="translate(-9,-1)" y1="45" x2="0" y2="42"/>
  <radialGradient inkscape:collect="always" xlink:href="#linearGradient3952" id="radialGradient4051-3" gradientUnits="userSpaceOnUse" gradientTransform="matrix(1,0,0,0.75,-22,9.875)" cx="40" cy="43.5" r="2"/>
  <radialGradient inkscape:collect="always" xlink:href="#linearGradient3952" id="radialGradient4053-0" gradientUnits="userSpaceOnUse" gradientTransform="matrix(1,0,0,0.75,-4,9.875)" cx="9" cy="43.5" r="2"/>
  <linearGradient inkscape:collect="always" xlink:href="#linearGradient3960" id="linearGradient4055-2" gradientUnits="userSpaceOnUse" gradientTransform="translate(-9,-1)" y1="45" x2="0" y2="42"/>
  <linearGradient inkscape:collect="always" xlink:href="#linearGradient3960" id="linearGradient3052" gradientUnits="userSpaceOnUse" gradientTransform="translate(-10,2.5)" y1="45" x2="0" y2="42"/>
  <radialGradient inkscape:collect="always" xlink:href="#linearGradient3952" id="radialGradient3055" gradientUnits="userSpaceOnUse" gradientTransform="matrix(1,0,0,0.75,-5,13.375)" cx="9" cy="43.5" r="2"/>
  <radialGradient inkscape:collect="always" xlink:href="#linearGradient3952" id="radialGradient3058" gradientUnits="userSpaceOnUse" gradientTransform="matrix(1,0,0,0.75,-22,13.375)" cx="40" cy="43.5" r="2"/>
 </defs>
 <metadata id="metadata3500"/>
 <g id="layer1" inkscape:label="Layer 1" inkscape:groupmode="layer" transform="translate(0,-24)">
  <g id="g3849" transform="translate(1,7)">
   <path id="rect3816" transform="translate(0,26)" d="m 1.5,8.5 0,0.5 0,2 0,0.5 0.5,0 18,0 0.5,0 0,-0.5 0,-2 0,-0.5 -0.5,0 -18,0 -0.5,0 z" inkscape:connector-curvature="0" fill="url(#linearGradient3800)"/>
   <path d="m 1.5,8.5 0,0.5 0,2 0,0.5 0.5,0 18,0 0.5,0 0,-0.5 0,-2 0,-0.5 -0.5,0 -18,0 -0.5,0 z" transform="translate(0,26)" id="path3833" inkscape:connector-curvature="0" opacity="0.61" fill="none" stroke="#000000"/>
   <path id="path3835" transform="translate(0,26)" d="M 2,9 2,10 20,10 20,9 2,9 z" inkscape:connector-curvature="0" opacity="0.2" fill="#ffffff"/>
  </g>
  <g id="g3060" transform="translate(1,-1)">
   <path inkscape:connector-curvature="0" id="rect3940-4" d="m 18,44.5 0,3 0.5,0 c 0.831,0 1.5,-0.669 1.5,-1.5 0,-0.831 -0.669,-1.5 -1.5,-1.5 l -0.5,0 z" opacity="0.2" fill="url(#radialGradient3058)"/>
   <path inkscape:connector-curvature="0" id="rect3942-9" d="M 3.40625,44.5 C 2.6271875,44.5 2,45.127187 2,45.90625 l 0,0.1875 C 2,46.872813 2.6271875,47.5 3.40625,47.5 L 4,47.5 l 0,-3 -0.59375,0 z" opacity="0.2" fill="url(#radialGradient3055)"/>
   <path sodipodi:nodetypes="ccccc" inkscape:connector-curvature="0" id="rect3938-7" d="m 4,44.5 14,0 0,3 -14,0 z" opacity="0.2" fill="url(#linearGradient3052)"/>
  </g>
  <g transform="translate(1,2)" id="g3065">
   <path inkscape:connector-curvature="0" d="m 1.5,8.5 0,0.5 0,2 0,0.5 0.5,0 18,0 0.5,0 0,-0.5 0,-2 0,-0.5 -0.5,0 -18,0 -0.5,0 z" transform="translate(0,26)" id="path3067" fill="url(#linearGradient3800)"/>
   <path inkscape:connector-curvature="0" id="path3069" transform="translate(0,26)" d="m 1.5,8.5 0,0.5 0,2 0,0.5 0.5,0 18,0 0.5,0 0,-0.5 0,-2 0,-0.5 -0.5,0 -18,0 -0.5,0 z" opacity="0.61" fill="none" stroke="#000000"/>
   <path inkscape:connector-curvature="0" d="M 2,9 2,10 20,10 20,9 2,9 z" transform="translate(0,26)" id="path3071" opacity="0.2" fill="#ffffff"/>
  </g>
  <g id="g3073" transform="translate(1,-6)">
   <path d="m 18,44.5 0,3 0.5,0 c 0.831,0 1.5,-0.669 1.5,-1.5 0,-0.831 -0.669,-1.5 -1.5,-1.5 l -0.5,0 z" id="path3075" inkscape:connector-curvature="0" opacity="0.2" fill="url(#radialGradient3058)"/>
   <path d="M 3.40625,44.5 C 2.6271875,44.5 2,45.127187 2,45.90625 l 0,0.1875 C 2,46.872813 2.6271875,47.5 3.40625,47.5 L 4,47.5 l 0,-3 -0.59375,0 z" id="path3077" inkscape:connector-curvature="0" opacity="0.2" fill="url(#radialGradient3055)"/>
   <path d="m 4,44.5 14,0 0,3 -14,0 z" id="path3079" inkscape:connector-curvature="0" sodipodi:nodetypes="ccccc" opacity="0.2" fill="url(#linearGradient3052)"/>
  </g>
  <g id="g3089" transform="translate(1,-3)">
   <path id="path3091" transform="translate(0,26)" d="m 1.5,8.5 0,0.5 0,2 0,0.5 0.5,0 18,0 0.5,0 0,-0.5 0,-2 0,-0.5 -0.5,0 -18,0 -0.5,0 z" inkscape:connector-curvature="0" fill="url(#linearGradient3800)"/>
   <path d="m 1.5,8.5 0,0.5 0,2 0,0.5 0.5,0 18,0 0.5,0 0,-0.5 0,-2 0,-0.5 -0.5,0 -18,0 -0.5,0 z" transform="translate(0,26)" id="path3093" inkscape:connector-curvature="0" opacity="0.61" fill="none" stroke="#000000"/>
   <path id="path3095" transform="translate(0,26)" d="M 2,9 2,10 20,10 20,9 2,9 z" inkscape:connector-curvature="0" opacity="0.2" fill="#ffffff"/>
  </g>
  <g transform="translate(1,-11)" id="g3097">
   <path inkscape:connector-curvature="0" id="path3099" d="m 18,44.5 0,3 0.5,0 c 0.831,0 1.5,-0.669 1.5,-1.5 0,-0.831 -0.669,-1.5 -1.5,-1.5 l -0.5,0 z" opacity="0.2" fill="url(#radialGradient3058)"/>
   <path inkscape:connector-curvature="0" id="path3101" d="M 3.40625,44.5 C 2.6271875,44.5 2,45.127187 2,45.90625 l 0,0.1875 C 2,46.872813 2.6271875,47.5 3.40625,47.5 L 4,47.5 l 0,-3 -0.59375,0 z" opacity="0.2" fill="url(#radialGradient3055)"/>
   <path sodipodi:nodetypes="ccccc" inkscape:connector-curvature="0" id="path3103" d="m 4,44.5 14,0 0,3 -14,0 z" opacity="0.2" fill="url(#linearGradient3052)"/>
  </g>
  <g transform="translate(1,-8)" id="g3113">
   <path inkscape:connector-curvature="0" d="m 1.5,8.5 0,0.5 0,2 0,0.5 0.5,0 18,0 0.5,0 0,-0.5 0,-2 0,-0.5 -0.5,0 -18,0 -0.5,0 z" transform="translate(0,26)" id="path3115" fill="url(#linearGradient3800)"/>
   <path inkscape:connector-curvature="0" id="path3117" transform="translate(0,26)" d="m 1.5,8.5 0,0.5 0,2 0,0.5 0.5,0 18,0 0.5,0 0,-0.5 0,-2 0,-0.5 -0.5,0 -18,0 -0.5,0 z" opacity="0.61" fill="none" stroke="#000000"/>
   <path inkscape:connector-curvature="0" d="M 2,9 2,10 20,10 20,9 2,9 z" transform="translate(0,26)" id="path3119" opacity="0.2" fill="#ffffff"/>
  </g>
  <g id="g3121" transform="translate(1,-16)">
   <path d="m 18,44.5 0,3 0.5,0 c 0.831,0 1.5,-0.669 1.5,-1.5 0,-0.831 -0.669,-1.5 -1.5,-1.5 l -0.5,0 z" id="path3123" inkscape:connector-curvature="0" opacity="0.2" fill="url(#radialGradient3058)"/>
   <path d="M 3.40625,44.5 C 2.6271875,44.5 2,45.127187 2,45.90625 l 0,0.1875 C 2,46.872813 2.6271875,47.5 3.40625,47.5 L 4,47.5 l 0,-3 -0.59375,0 z" id="path3125" inkscape:connector-curvature="0" opacity="0.2" fill="url(#radialGradient3055)"/>
   <path d="m 4,44.5 14,0 0,3 -14,0 z" id="path3127" inkscape:connector-curvature="0" sodipodi:nodetypes="ccccc" opacity="0.2" fill="url(#linearGradient3052)"/>
  </g>
 </g>
</svg>
