<?xml version="1.0" encoding="UTF-8" standalone="no"?>
<!-- Created with Inkscape (http://www.inkscape.org/) -->

<svg
   xmlns:dc="http://purl.org/dc/elements/1.1/"
   xmlns:cc="http://creativecommons.org/ns#"
   xmlns:rdf="http://www.w3.org/1999/02/22-rdf-syntax-ns#"
   xmlns:svg="http://www.w3.org/2000/svg"
   xmlns="http://www.w3.org/2000/svg"
   xmlns:xlink="http://www.w3.org/1999/xlink"
   xmlns:sodipodi="http://sodipodi.sourceforge.net/DTD/sodipodi-0.dtd"
   xmlns:inkscape="http://www.inkscape.org/namespaces/inkscape"
   width="24"
   height="24"
   id="svg3495"
   version="1.1"
   inkscape:version="0.48.4 r9939"
   sodipodi:docname="go-bottom.svg">
  <defs
     id="defs3497">
    <linearGradient
       id="linearGradient3821">
      <stop
         style="stop-color:#555555;stop-opacity:1;"
         offset="0"
         id="stop3823" />
      <stop
         style="stop-color:#666666;stop-opacity:1;"
         offset="1"
         id="stop3825" />
    </linearGradient>
    <linearGradient
       inkscape:collect="always"
       xlink:href="#linearGradient3821"
       id="linearGradient3795"
       x1="22.000002"
       y1="46"
       x2="1e-06"
       y2="46"
       gradientUnits="userSpaceOnUse" />
    <linearGradient
       inkscape:collect="always"
       xlink:href="#linearGradient3821"
       id="linearGradient3809"
       gradientUnits="userSpaceOnUse"
       x1="22.000002"
       y1="46"
       x2="1e-06"
       y2="46" />
    <linearGradient
       inkscape:collect="always"
       xlink:href="#linearGradient3821"
       id="linearGradient3811"
       gradientUnits="userSpaceOnUse"
       x1="22.000002"
       y1="46"
       x2="1e-06"
       y2="46" />
    <linearGradient
       inkscape:collect="always"
       xlink:href="#linearGradient3821"
       id="linearGradient3822"
       gradientUnits="userSpaceOnUse"
       x1="22.000002"
       y1="46"
       x2="1e-06"
       y2="46" />
    <linearGradient
       inkscape:collect="always"
       xlink:href="#linearGradient3821"
       id="linearGradient3825"
       gradientUnits="userSpaceOnUse"
       x1="22.000002"
       y1="46"
       x2="1e-06"
       y2="46" />
    <linearGradient
       inkscape:collect="always"
       xlink:href="#linearGradient3821"
       id="linearGradient3831"
       gradientUnits="userSpaceOnUse"
       x1="22.000002"
       y1="46"
       x2="1e-06"
       y2="46" />
    <linearGradient
       inkscape:collect="always"
       xlink:href="#linearGradient3821"
       id="linearGradient3873"
       gradientUnits="userSpaceOnUse"
       gradientTransform="matrix(0,-0.7556794,0.7556794,0,4.021018,33.039623)"
       x1="-18.473942"
       y1="25.115124"
       x2="10.638933"
       y2="25.115124" />
  </defs>
  <sodipodi:namedview
     id="base"
     pagecolor="#ffffff"
     bordercolor="#666666"
     borderopacity="1.0"
     inkscape:pageopacity="0.0"
     inkscape:pageshadow="2"
     inkscape:zoom="1"
     inkscape:cx="21.164714"
     inkscape:cy="-0.50480812"
     inkscape:current-layer="layer1"
     showgrid="false"
     showborder="false"
     inkscape:grid-bbox="true"
     inkscape:document-units="px"
     inkscape:window-width="1364"
     inkscape:window-height="700"
     inkscape:window-x="0"
     inkscape:window-y="28"
     inkscape:window-maximized="1"
     inkscape:snap-bbox="true"
     inkscape:bbox-paths="true"
     inkscape:bbox-nodes="true"
     inkscape:snap-bbox-edge-midpoints="false">
    <inkscape:grid
       type="xygrid"
       id="grid3512"
       empspacing="4"
       visible="true"
       enabled="true"
       snapvisiblegridlinesonly="true"
       dotted="false" />
  </sodipodi:namedview>
  <metadata
     id="metadata3500">
    <rdf:RDF>
      <cc:Work
         rdf:about="">
        <dc:format>image/svg+xml</dc:format>
        <dc:type
           rdf:resource="http://purl.org/dc/dcmitype/StillImage" />
        <dc:title />
      </cc:Work>
    </rdf:RDF>
  </metadata>
  <g
     id="layer1"
     inkscape:label="Layer 1"
     inkscape:groupmode="layer"
     transform="translate(0,-24)">
    <path
       style="fill:url(#linearGradient3873);fill-opacity:1;fill-rule:nonzero;stroke:none"
       d="m 12,46.5 c -1.37479,0 -2.5,-1.12521 -2.5,-2.5 0,-1.37479 1.12521,-2.5 2.5,-2.5 1.374789,0 2.5,1.12521 2.5,2.5 0,1.37479 -1.125211,2.5 -2.5,2.5 z m 0,-5.78125 -0.34375,-0.375 -7,-7 L 4.28125,33 l 0.375,-0.34375 1.375,-1.375 0.34375,-0.375 0.34375,0.375 3.8125,3.78125 L 10.5,26 l 0,-0.5 0.5,0 2,0 0.5,0 0,0.5 0.03125,9.0625 3.75,-3.78125 0.34375,-0.375 0.34375,0.375 1.375,1.375 0.375,0.34375 -0.375,0.34375 -7,7 L 12,40.71875 z"
       id="path4769"
       inkscape:connector-curvature="0" />
    <path
       id="path3857"
       d="m 12,46.5 c -1.37479,0 -2.5,-1.12521 -2.5,-2.5 0,-1.37479 1.12521,-2.5 2.5,-2.5 1.374789,0 2.5,1.12521 2.5,2.5 0,1.37479 -1.125211,2.5 -2.5,2.5 z m 0,-5.78125 -0.34375,-0.375 -7,-7 L 4.28125,33 l 0.375,-0.34375 1.375,-1.375 0.34375,-0.375 0.34375,0.375 3.8125,3.78125 L 10.5,26 l 0,-0.5 0.5,0 2,0 0.5,0 0,0.5 0.03125,9.0625 3.75,-3.78125 0.34375,-0.375 0.34375,0.375 1.375,1.375 0.375,0.34375 -0.375,0.34375 -7,7 L 12,40.71875 z"
       style="opacity:0.61000001;fill:none;stroke:#000000;stroke-opacity:1"
       inkscape:connector-curvature="0" />
    <path
       style="opacity:0.2;fill:#ffffff;fill-opacity:1;fill-rule:nonzero;stroke:none"
       d="m 11,26 0,1 2,0 0,-1 -2,0 z M 6.34375,31.625 5,32.96875 5,33 5,33.03125 5.46875,33.5 l 0.875,-0.875 0.03125,0 0.03125,0 3.78125,3.78125 0.84375,0.875 0,-1 -0.84375,-0.875 -3.78125,-3.78125 -0.03125,0 -0.03125,0 z m 11.28125,0 -3.75,3.78125 -0.84375,0.875 0,1 0.84375,-0.875 3.75,-3.78125 0.03125,0 0.875,0.875 L 19,33.03125 19,33 19,32.96875 17.65625,31.625 l -0.03125,0 z M 12,42 c -1.10197,0 -2,0.89803 -2,2 0,0.172183 0.0213,0.340423 0.0625,0.5 C 10.284988,43.638284 11.070213,43 12,43 c 0.929786,0 1.715012,0.638284 1.9375,1.5 C 13.978701,44.340423 14,44.172183 14,44 14,42.89803 13.101969,42 12,42 z"
       id="path3875"
       inkscape:connector-curvature="0" />
  </g>
</svg>
