<?xml version="1.0" encoding="UTF-8" standalone="no"?>
<svg xmlns="http://www.w3.org/2000/svg" xmlns:xlink="http://www.w3.org/1999/xlink" xmlns:sodipodi="http://sodipodi.sourceforge.net/DTD/sodipodi-0.dtd" xmlns:inkscape="http://www.inkscape.org/namespaces/inkscape" width="24" height="24" version="1.1">
 <defs id="defs3497">
  <linearGradient inkscape:collect="always" xlink:href="#linearGradient3821" id="linearGradient2997" gradientUnits="userSpaceOnUse" y1="22" x2="0" y2="-2" gradientTransform="translate(0,26)"/>
  <linearGradient id="linearGradient3821">
   <stop id="stop3823" stop-color="#555555"/>
   <stop offset="1" id="stop3825" stop-color="#666666"/>
  </linearGradient>
  <linearGradient inkscape:collect="always" xlink:href="#linearGradient3821" id="linearGradient3809" y1="22" x2="0" y2="0" gradientUnits="userSpaceOnUse" gradientTransform="translate(1,25)"/>
  <linearGradient inkscape:collect="always" xlink:href="#linearGradient3821" id="linearGradient3948" gradientUnits="userSpaceOnUse" y1="22" x2="0" y2="0"/>
 </defs>
 <metadata id="metadata3500"/>
 <g id="layer1" inkscape:label="Layer 1" inkscape:groupmode="layer" transform="translate(0,-24)">
  <path d="m 3.28125,37.00025 0.375,0.375 8,8 L 12,45.719 l 0.34375,-0.34375 8,-8 0.375,-0.375 -0.375,-0.34375 -1.375,-1.375 -0.34375,-0.375 -0.375,0.375 -4.71875,4.75 0,-12 0,-0.5 -0.5,0 -2,0 -0.5,0 0,0.5 0,12.03125 L 5.75,35.2815 l -0.375,-0.375 -0.34375,0.375 -1.375,1.375 -0.375,0.34375 z" id="path3014" inkscape:connector-curvature="0" color="#000000" fill="url(#linearGradient3809)"/>
  <path id="path3821" d="m 3.28125,37.00025 0.375,0.375 8,8 L 12,45.719 l 0.34375,-0.34375 8,-8 0.375,-0.375 -0.375,-0.34375 -1.375,-1.375 -0.34375,-0.375 -0.375,0.375 -4.71875,4.75 0,-12 0,-0.5 -0.5,0 -2,0 -0.5,0 0,0.5 0,12.03125 L 5.75,35.2815 l -0.375,-0.375 -0.34375,0.375 -1.375,1.375 -0.375,0.34375 z" inkscape:connector-curvature="0" opacity="0.61" color="#000000" fill="none" stroke="#000000"/>
  <path d="m 11.03125,28.03125 0,1 2,0 0,-1 -2,0 z M 5.375,35.625 4,37 4,37.03125 4.5,37.5 l 0.875,-0.875 0.03125,0 4.78125,4.78125 0.84375,0.875 0,-1 -0.84375,-0.875 -4.78125,-4.78125 -0.03125,0 z m 13.21875,0 -4.71875,4.75 -0.84375,0.875 0,1 0.84375,-0.875 4.71875,-4.75 0.03125,0 L 19.5,37.5 20,37.03125 20,37 l -1.375,-1.375 -0.03125,0 z" id="path3940" inkscape:connector-curvature="0" opacity="0.2" color="#000000" fill="#ffffff"/>
 </g>
</svg>
