<?xml version="1.0" encoding="UTF-8" standalone="no"?>
<svg xmlns="http://www.w3.org/2000/svg" xmlns:xlink="http://www.w3.org/1999/xlink" xmlns:sodipodi="http://sodipodi.sourceforge.net/DTD/sodipodi-0.dtd" xmlns:inkscape="http://www.inkscape.org/namespaces/inkscape" width="24" height="24" version="1.1">
 <defs id="defs3497">
  <linearGradient id="linearGradient3821">
   <stop id="stop3823" stop-color="#555555"/>
   <stop offset="1" id="stop3825" stop-color="#666666"/>
  </linearGradient>
  <linearGradient inkscape:collect="always" xlink:href="#linearGradient3821" id="linearGradient3795" x1="22" x2="0" gradientUnits="userSpaceOnUse"/>
  <linearGradient inkscape:collect="always" xlink:href="#linearGradient3821" id="linearGradient3873" gradientUnits="userSpaceOnUse" gradientTransform="matrix(0,-0.7556794,0.7556794,0,4.021018,33.039623)" x1="-18.474" x2="10.639"/>
 </defs>
 <metadata id="metadata3500"/>
 <g id="layer1" inkscape:label="Layer 1" inkscape:groupmode="layer" transform="translate(0,-24)">
  <path d="m 1.5,36 c 0,1.37479 1.12521,2.5 2.5,2.5 1.37479,0 2.5,-1.12521 2.5,-2.5 0,-1.374789 -1.12521,-2.5 -2.5,-2.5 -1.37479,0 -2.5,1.125211 -2.5,2.5 z m 5.78125,0 0.375,0.34375 7,7 0.34375,0.375 0.34375,-0.375 1.375,-1.375 0.375,-0.34375 -0.375,-0.34375 L 12.9375,37.46875 22,37.5 l 0.5,0 0,-0.5 0,-2 0,-0.5 -0.5,0 -9.0625,-0.03125 3.78125,-3.75 0.375,-0.34375 -0.375,-0.34375 -1.375,-1.375 -0.34375,-0.375 -0.34375,0.375 -7,7 L 7.28125,36 z" id="path4769" inkscape:connector-curvature="0" fill="url(#linearGradient3873)"/>
  <path id="path3857" d="m 1.5,36 c 0,1.37479 1.12521,2.5 2.5,2.5 1.37479,0 2.5,-1.12521 2.5,-2.5 0,-1.374789 -1.12521,-2.5 -2.5,-2.5 -1.37479,0 -2.5,1.125211 -2.5,2.5 z m 5.78125,0 0.375,0.34375 7,7 0.34375,0.375 0.34375,-0.375 1.375,-1.375 0.375,-0.34375 -0.375,-0.34375 L 12.9375,37.46875 22,37.5 l 0.5,0 0,-0.5 0,-2 0,-0.5 -0.5,0 -9.0625,-0.03125 3.78125,-3.75 0.375,-0.34375 -0.375,-0.34375 -1.375,-1.375 -0.34375,-0.375 -0.34375,0.375 -7,7 L 7.28125,36 z" inkscape:connector-curvature="0" opacity="0.61" fill="none" stroke="#000000"/>
  <path d="m 15.03125,29 1.34375,1.34375 0,0.03125 -0.5,0.46875 L 15.03125,30 15,30 l -0.03125,0 -6.5,6.5 L 8,36.03125 8,36 8,35.96875 14.96875,29 15,29 15.03125,29 z M 4,34 c 1.10197,0 2,0.898031 2,2 0,0.172183 -0.021299,0.340423 -0.0625,0.5 C 5.715013,35.638284 4.929787,35 4,35 3.070213,35 2.284987,35.638284 2.0625,36.5 2.021299,36.340423 2,36.172183 2,36 2,34.898031 2.89803,34 4,34 z M 12.9375,34.96875 22,35 l 0,1 -9.0625,-0.03125 -1.21875,0 0.875,-0.84375 0.15625,-0.15625 0.1875,0 z m -0.1875,3 3.625,3.625 0,0.03125 0,0.03125 -0.46875,0.46875 -3.3125,-3.3125 -0.875,-0.84375 1.03125,0 z" id="path3924" inkscape:connector-curvature="0" opacity="0.2" fill="#ffffff"/>
 </g>
</svg>
