<?xml version="1.0" encoding="UTF-8" standalone="no"?>
<!-- Created with Inkscape (http://www.inkscape.org/) -->

<svg
   xmlns:dc="http://purl.org/dc/elements/1.1/"
   xmlns:cc="http://creativecommons.org/ns#"
   xmlns:rdf="http://www.w3.org/1999/02/22-rdf-syntax-ns#"
   xmlns:svg="http://www.w3.org/2000/svg"
   xmlns="http://www.w3.org/2000/svg"
   xmlns:xlink="http://www.w3.org/1999/xlink"
   xmlns:sodipodi="http://sodipodi.sourceforge.net/DTD/sodipodi-0.dtd"
   xmlns:inkscape="http://www.inkscape.org/namespaces/inkscape"
   width="24"
   height="24"
   id="svg3495"
   version="1.1"
   inkscape:version="0.48.4 r9939"
   sodipodi:docname="go-home.svg">
  <defs
     id="defs3497">
    <linearGradient
       id="linearGradient3755">
      <stop
         style="stop-color:#555555;stop-opacity:1;"
         offset="0"
         id="stop3757" />
      <stop
         style="stop-color:#666666;stop-opacity:1;"
         offset="1"
         id="stop3759" />
    </linearGradient>
    <linearGradient
       inkscape:collect="always"
       xlink:href="#linearGradient3755"
       id="linearGradient3761"
       x1="12"
       y1="48"
       x2="12"
       y2="24"
       gradientUnits="userSpaceOnUse"
       gradientTransform="translate(0,1)" />
    <linearGradient
       inkscape:collect="always"
       xlink:href="#linearGradient3755"
       id="linearGradient3781"
       gradientUnits="userSpaceOnUse"
       gradientTransform="translate(0,-24)"
       x1="12"
       y1="48"
       x2="12"
       y2="24" />
  </defs>
  <sodipodi:namedview
     id="base"
     pagecolor="#ffffff"
     bordercolor="#666666"
     borderopacity="1.0"
     inkscape:pageopacity="0.0"
     inkscape:pageshadow="2"
     inkscape:zoom="1"
     inkscape:cx="52.159877"
     inkscape:cy="51.842657"
     inkscape:current-layer="layer1"
     showgrid="false"
     inkscape:grid-bbox="true"
     inkscape:document-units="px"
     inkscape:window-width="1364"
     inkscape:window-height="700"
     inkscape:window-x="0"
     inkscape:window-y="28"
     inkscape:window-maximized="1"
     inkscape:snap-bbox="true"
     inkscape:bbox-paths="true"
     inkscape:bbox-nodes="true"
     inkscape:snap-bbox-edge-midpoints="false">
    <inkscape:grid
       type="xygrid"
       id="grid3512"
       empspacing="4"
       visible="true"
       enabled="true"
       snapvisiblegridlinesonly="true"
       dotted="false" />
  </sodipodi:namedview>
  <metadata
     id="metadata3500">
    <rdf:RDF>
      <cc:Work
         rdf:about="">
        <dc:format>image/svg+xml</dc:format>
        <dc:type
           rdf:resource="http://purl.org/dc/dcmitype/StillImage" />
        <dc:title />
      </cc:Work>
    </rdf:RDF>
  </metadata>
  <g
     id="layer1"
     inkscape:label="Layer 1"
     inkscape:groupmode="layer"
     transform="translate(0,-24)">
    <path
       style="fill:url(#linearGradient3761);fill-opacity:1;fill-rule:nonzero;stroke:none"
       d="m 12,26.28125 -0.34375,0.375 -8,8 L 3.5,34.78125 3.5,35 l 0,8 0,2 0,0.5 0.5,0 2,0 5.03125,0 2,0 4.96875,0 2,0 0.5,0 0,-0.5 0,-2 0,-8 0,-0.21875 -0.15625,-0.125 -8,-8 z m 0,4.1875 0.6875,0.65625 4.8125,4.84375 0,6.53125 -2.5,0 -1.96875,0 -2,0 -2.03125,0 -2.5,0 0,-6.53125 4.875,-4.875 z"
       id="path4769"
       inkscape:connector-curvature="0"
       sodipodi:nodetypes="cccccccccccccccccccccccccccccccccc" />
    <path
       id="path3771"
       d="m 12,26.28125 -0.34375,0.375 -8,8 L 3.5,34.78125 3.5,35 l 0,8 0,2 0,0.5 0.5,0 2,0 5.03125,0 2,0 4.96875,0 2,0 0.5,0 0,-0.5 0,-2 0,-8 0,-0.21875 -0.15625,-0.125 -8,-8 z m 0,4.1875 0.6875,0.65625 4.8125,4.84375 0,6.53125 -2.5,0 -1.96875,0 -2,0 -2.03125,0 -2.5,0 0,-6.53125 4.875,-4.875 z"
       style="opacity:0.61000001;fill:none;stroke:#000000;stroke-opacity:1"
       inkscape:connector-curvature="0"
       sodipodi:nodetypes="cccccccccccccccccccccccccccccccccc" />
    <path
       style="opacity:0.2;fill:#ffffff;fill-opacity:1;fill-rule:nonzero;stroke:none"
       d="M 11.96875,27 4,35 4,35.03125 4,36 11.96875,28 12,28 12.03125,28 20,36 20,35.03125 20,35 12.03125,27 12,27 z M 6,43 l 0,0.5 0,0.5 0.5,0 2.5,0 2.03125,0 2,0 1.96875,0 2.5,0 0.5,0 0,-0.5 0,-0.5 -0.5,0 -2.5,0 -1.96875,0 -2,0 L 9,43 6.5,43 z"
       id="path3773"
       inkscape:connector-curvature="0"
       sodipodi:nodetypes="cccccccccccccccccccccccccccccccc" />
  </g>
</svg>
