<?xml version="1.0" encoding="UTF-8" standalone="no"?>
<svg xmlns="http://www.w3.org/2000/svg" xmlns:xlink="http://www.w3.org/1999/xlink" xmlns:sodipodi="http://sodipodi.sourceforge.net/DTD/sodipodi-0.dtd" xmlns:inkscape="http://www.inkscape.org/namespaces/inkscape" width="24" height="24" version="1.1">
 <defs id="defs3497">
  <linearGradient id="linearGradient3755">
   <stop id="stop3757" stop-color="#555555"/>
   <stop offset="1" id="stop3759" stop-color="#666666"/>
  </linearGradient>
  <linearGradient inkscape:collect="always" xlink:href="#linearGradient3755" id="linearGradient3761" y1="48" x2="0" y2="24" gradientUnits="userSpaceOnUse" gradientTransform="translate(0,1)"/>
  <linearGradient inkscape:collect="always" xlink:href="#linearGradient3755" id="linearGradient3781" gradientUnits="userSpaceOnUse" gradientTransform="translate(0,-24)" y1="48" x2="0" y2="24"/>
 </defs>
 <metadata id="metadata3500"/>
 <g id="layer1" inkscape:label="Layer 1" inkscape:groupmode="layer" transform="translate(0,-24)">
  <path d="m 12,26.28125 -0.34375,0.375 -8,8 L 3.5,34.78125 3.5,35 l 0,8 0,2 0,0.5 0.5,0 2,0 5.03125,0 2,0 4.96875,0 2,0 0.5,0 0,-0.5 0,-2 0,-8 0,-0.21875 -0.15625,-0.125 -8,-8 z m 0,4.1875 0.6875,0.65625 4.8125,4.84375 0,6.53125 -2.5,0 -1.96875,0 -2,0 -2.03125,0 -2.5,0 0,-6.53125 4.875,-4.875 z" id="path4769" inkscape:connector-curvature="0" sodipodi:nodetypes="cccccccccccccccccccccccccccccccccc" fill="url(#linearGradient3761)"/>
  <path id="path3771" d="m 12,26.28125 -0.34375,0.375 -8,8 L 3.5,34.78125 3.5,35 l 0,8 0,2 0,0.5 0.5,0 2,0 5.03125,0 2,0 4.96875,0 2,0 0.5,0 0,-0.5 0,-2 0,-8 0,-0.21875 -0.15625,-0.125 -8,-8 z m 0,4.1875 0.6875,0.65625 4.8125,4.84375 0,6.53125 -2.5,0 -1.96875,0 -2,0 -2.03125,0 -2.5,0 0,-6.53125 4.875,-4.875 z" inkscape:connector-curvature="0" sodipodi:nodetypes="cccccccccccccccccccccccccccccccccc" opacity="0.61" fill="none" stroke="#000000"/>
  <path d="M 11.96875,27 4,35 4,35.03125 4,36 11.96875,28 12,28 12.03125,28 20,36 20,35.03125 20,35 12.03125,27 12,27 z M 6,43 l 0,0.5 0,0.5 0.5,0 2.5,0 2.03125,0 2,0 1.96875,0 2.5,0 0.5,0 0,-0.5 0,-0.5 -0.5,0 -2.5,0 -1.96875,0 -2,0 L 9,43 6.5,43 z" id="path3773" inkscape:connector-curvature="0" sodipodi:nodetypes="cccccccccccccccccccccccccccccccc" opacity="0.2" fill="#ffffff"/>
 </g>
</svg>
