<?xml version="1.0" encoding="UTF-8" standalone="no"?>
<svg
   xmlns:dc="http://purl.org/dc/elements/1.1/"
   xmlns:cc="http://creativecommons.org/ns#"
   xmlns:rdf="http://www.w3.org/1999/02/22-rdf-syntax-ns#"
   xmlns:svg="http://www.w3.org/2000/svg"
   xmlns="http://www.w3.org/2000/svg"
   xmlns:xlink="http://www.w3.org/1999/xlink"
   version="1.1"
   id="svg3495"
   height="24"
   width="24">
  <defs
     id="defs3497">
    <linearGradient
       id="linearGradient3821">
      <stop
         id="stop3823"
         offset="0"
         style="stop-color:#555555;stop-opacity:1;" />
      <stop
         id="stop3825"
         offset="1"
         style="stop-color:#666666;stop-opacity:1;" />
    </linearGradient>
    <linearGradient
       gradientTransform="translate(1.0000002,25)"
       gradientUnits="userSpaceOnUse"
       y2="-2"
       x2="12"
       y1="22"
       x1="12"
       id="linearGradient3793"
       xlink:href="#linearGradient3821" />
  </defs>
  <metadata
     id="metadata3500">
    <rdf:RDF>
      <cc:Work
         rdf:about="">
        <dc:format>image/svg+xml</dc:format>
        <dc:type
           rdf:resource="http://purl.org/dc/dcmitype/StillImage" />
        <dc:title />
      </cc:Work>
    </rdf:RDF>
  </metadata>
  <g
     transform="translate(0,-24)"
     id="layer1">
    <path
       id="path2987"
       d="m 21.46875,37.546875 -0.4375,0.75 -3.59375,6.03125 -0.4375,0.71875 -0.4375,-0.71875 -3.625,-6.03125 -0.4375,-0.75 0.875,0 2.125,0 0,-4.5 c 0,-2.515154 -1.984846,-4.5 -4.5,-4.5 -2.515154,0 -4.5,1.984846 -4.5,4.5 l 0,7 0,0.5 -0.5,0 -2,0 -0.5,0 0,-0.5 0,-7 c 0,-4.128557 3.371443,-7.5 7.5,-7.5 4.128557,0 7.5,3.371443 7.5,7.5 l 0,4.5 2.09375,0 0.875,0 z"
       style="font-size:medium;font-style:normal;font-variant:normal;font-weight:normal;font-stretch:normal;text-indent:0;text-align:start;text-decoration:none;line-height:normal;letter-spacing:normal;word-spacing:normal;text-transform:none;direction:ltr;block-progression:tb;writing-mode:lr-tb;text-anchor:start;baseline-shift:baseline;color:#bebebe;fill:url(#linearGradient3793);fill-opacity:1;stroke:none;stroke-width:1;marker:none;visibility:visible;display:inline;overflow:visible;enable-background:accumulate;font-family:Sans;-inkscape-font-specification:Sans" />
    <path
       style="font-size:medium;font-style:normal;font-variant:normal;font-weight:normal;font-stretch:normal;text-indent:0;text-align:start;text-decoration:none;line-height:normal;letter-spacing:normal;word-spacing:normal;text-transform:none;direction:ltr;block-progression:tb;writing-mode:lr-tb;text-anchor:start;baseline-shift:baseline;opacity:0.61000001;color:#bebebe;fill:none;stroke:#000000;stroke-width:1;stroke-opacity:1;marker:none;visibility:visible;display:inline;overflow:visible;enable-background:accumulate;font-family:Sans;-inkscape-font-specification:Sans"
       d="m 21.46875,37.546875 -0.4375,0.75 -3.59375,6.03125 -0.4375,0.71875 -0.4375,-0.71875 -3.625,-6.03125 -0.4375,-0.75 0.875,0 2.125,0 0,-4.5 c 0,-2.515154 -1.984846,-4.5 -4.5,-4.5 -2.515154,0 -4.5,1.984846 -4.5,4.5 l 0,7 0,0.5 -0.5,0 -2,0 -0.5,0 0,-0.5 0,-7 c 0,-4.128557 3.371443,-7.5 7.5,-7.5 4.128557,0 7.5,3.371443 7.5,7.5 l 0,4.5 2.09375,0 0.875,0 z"
       id="path3764" />
    <path
       id="path2994"
       d="m 10.996944,26.0625 c 3.856352,0 7,3.143648 7,7 l 0,1 c 0,-3.856352 -3.143648,-7 -7,-7 -3.856352,0 -7,3.143648 -7,7 l 0,-1 c 0,-3.856352 3.143648,-7 7,-7 z m 9.5625,12 -0.59375,1 -1.46875,0 -0.5,0 0,-0.5 0,-0.5 0.5,0 2.0625,0 z m -4.5625,0 0,0.5 0,0.5 -0.5,0 -1.5,0 -0.59375,-1 2.09375,0 0.5,0 z"
       style="font-size:medium;font-style:normal;font-variant:normal;font-weight:normal;font-stretch:normal;text-indent:0;text-align:start;text-decoration:none;line-height:normal;letter-spacing:normal;word-spacing:normal;text-transform:none;direction:ltr;block-progression:tb;writing-mode:lr-tb;text-anchor:start;baseline-shift:baseline;opacity:0.2;color:#bebebe;fill:#ffffff;fill-opacity:1;stroke:none;stroke-width:1;marker:none;visibility:visible;display:inline;overflow:visible;enable-background:accumulate;font-family:Sans;-inkscape-font-specification:Sans" />
  </g>
</svg>
