<?xml version="1.0" encoding="UTF-8" standalone="no"?>
<svg
   xmlns:dc="http://purl.org/dc/elements/1.1/"
   xmlns:cc="http://creativecommons.org/ns#"
   xmlns:rdf="http://www.w3.org/1999/02/22-rdf-syntax-ns#"
   xmlns:svg="http://www.w3.org/2000/svg"
   xmlns="http://www.w3.org/2000/svg"
   xmlns:xlink="http://www.w3.org/1999/xlink"
   version="1.1"
   id="svg3495"
   height="24"
   width="24">
  <defs
     id="defs3497">
    <linearGradient
       id="linearGradient3821">
      <stop
         id="stop3823"
         offset="0"
         style="stop-color:#555555;stop-opacity:1;" />
      <stop
         id="stop3825"
         offset="1"
         style="stop-color:#666666;stop-opacity:1;" />
    </linearGradient>
    <linearGradient
       y2="25.115124"
       x2="10.638933"
       y1="25.115124"
       x1="-18.473942"
       gradientTransform="matrix(0,-0.7556794,0.7556794,0,4.021018,33.039623)"
       gradientUnits="userSpaceOnUse"
       id="linearGradient3873"
       xlink:href="#linearGradient3821" />
  </defs>
  <metadata
     id="metadata3500">
    <rdf:RDF>
      <cc:Work
         rdf:about="">
        <dc:format>image/svg+xml</dc:format>
        <dc:type
           rdf:resource="http://purl.org/dc/dcmitype/StillImage" />
        <dc:title />
      </cc:Work>
    </rdf:RDF>
  </metadata>
  <g
     transform="translate(0,-24)"
     id="layer1">
    <path
       id="path4769"
       d="m 22.5,36 c 0,1.37479 -1.12521,2.5 -2.5,2.5 -1.37479,0 -2.5,-1.12521 -2.5,-2.5 0,-1.374789 1.12521,-2.5 2.5,-2.5 1.37479,0 2.5,1.125211 2.5,2.5 z m -5.78125,0 -0.375,0.34375 -7,7 -0.34375,0.375 -0.34375,-0.375 -1.375,-1.375 -0.375,-0.34375 0.375,-0.34375 3.78125,-3.8125 L 2,37.5 l -0.5,0 0,-0.5 0,-2 0,-0.5 0.5,0 9.0625,-0.03125 -3.78125,-3.75 -0.375,-0.34375 0.375,-0.34375 1.375,-1.375 0.34375,-0.375 0.34375,0.375 7,7 0.375,0.34375 z"
       style="fill:url(#linearGradient3873);fill-opacity:1;fill-rule:nonzero;stroke:none" />
    <path
       style="opacity:0.61000001;fill:none;stroke:#000000;stroke-opacity:1"
       d="m 22.5,36 c 0,1.37479 -1.12521,2.5 -2.5,2.5 -1.37479,0 -2.5,-1.12521 -2.5,-2.5 0,-1.374789 1.12521,-2.5 2.5,-2.5 1.37479,0 2.5,1.125211 2.5,2.5 z m -5.78125,0 -0.375,0.34375 -7,7 -0.34375,0.375 -0.34375,-0.375 -1.375,-1.375 -0.375,-0.34375 0.375,-0.34375 3.78125,-3.8125 L 2,37.5 l -0.5,0 0,-0.5 0,-2 0,-0.5 0.5,0 9.0625,-0.03125 -3.78125,-3.75 -0.375,-0.34375 0.375,-0.34375 1.375,-1.375 0.34375,-0.375 0.34375,0.375 7,7 0.375,0.34375 z"
       id="path3857" />
    <path
       id="path3924"
       d="m 8.96875,29 -1.34375,1.34375 0,0.03125 0.5,0.46875 L 8.96875,30 9,30 l 0.03125,0 6.5,6.5 L 16,36.03125 16,36 16,35.96875 9.03125,29 9,29 8.96875,29 z M 20,34 c -1.10197,0 -2,0.898031 -2,2 0,0.172183 0.0213,0.340423 0.0625,0.5 C 18.284987,35.638284 19.070213,35 20,35 c 0.929787,0 1.715013,0.638284 1.9375,1.5 C 21.978701,36.340423 22,36.172183 22,36 22,34.898031 21.10197,34 20,34 z M 11.0625,34.96875 2,35 l 0,1 9.0625,-0.03125 1.21875,0 -0.875,-0.84375 -0.15625,-0.15625 -0.1875,0 z m 0.1875,3 -3.625,3.625 0,0.03125 0,0.03125 0.46875,0.46875 3.3125,-3.3125 0.875,-0.84375 -1.03125,0 z"
       style="opacity:0.2;fill:#ffffff;fill-opacity:1;fill-rule:nonzero;stroke:none" />
  </g>
</svg>
