<?xml version="1.0" encoding="UTF-8" standalone="no"?>
<svg xmlns="http://www.w3.org/2000/svg" xmlns:xlink="http://www.w3.org/1999/xlink" xmlns:sodipodi="http://sodipodi.sourceforge.net/DTD/sodipodi-0.dtd" xmlns:inkscape="http://www.inkscape.org/namespaces/inkscape" width="24" height="24" version="1.1">
 <defs id="defs3497">
  <clipPath id="clipPath3669">
   <path d="M 0,96 96,96 96,0 0,0 0,96 z" id="path3671"/>
  </clipPath>
  <linearGradient inkscape:collect="always" xlink:href="#linearGradient3760" id="linearGradient3852" gradientUnits="userSpaceOnUse" gradientTransform="matrix(0.92857143,0,0,-0.92857143,-148,292.57143)" y1="280" x2="0" y2="264"/>
  <linearGradient id="linearGradient3760">
   <stop id="stop3762" stop-color="#e44343"/>
   <stop offset="1" id="stop3764" stop-color="#ac0808"/>
  </linearGradient>
  <clipPath id="clipPath4307">
   <path d="m 168,265 c -3.86599,0 -7,3.13401 -7,7 0,3.86599 3.13401,7 7,7 3.866,0 7,-3.13401 7,-7 0,-3.86599 -3.134,-7 -7,-7 z m 3.3125,3.0625 1.5625,1.40625 -5.25,6.9375 -4.0625,-3.5 1.34375,-1.78125 2.375,2.0625 4.03125,-5.125 z" id="path4309"/>
  </clipPath>
  <linearGradient y2="264" x2="0" y1="280" gradientTransform="matrix(0.92857143,0,0,-0.92857143,-123,277.94643)" gradientUnits="userSpaceOnUse" id="linearGradient3082" xlink:href="#linearGradient3760" inkscape:collect="always"/>
  <linearGradient inkscape:collect="always" xlink:href="#outerBackgroundGradient-0" id="linearGradient3802" y1="0" x2="0" y2="22" gradientUnits="userSpaceOnUse" gradientTransform="matrix(1,0,0,-1,1,47)"/>
  <linearGradient inkscape:collect="always" xlink:href="#linearGradient3760" id="linearGradient3814" gradientUnits="userSpaceOnUse" y1="0" x2="0" y2="22"/>
  <linearGradient id="linearGradient3904">
   <stop id="stop3906" stop-color="#234683"/>
   <stop id="stop3908" offset="1" stop-color="#30589e"/>
  </linearGradient>
  <linearGradient inkscape:collect="always" xlink:href="#outerBackgroundGradient-0" id="linearGradient3874" gradientUnits="userSpaceOnUse" gradientTransform="matrix(0,-1,-1,0,48.000003,48.000003)" x1="4.5" x2="43.5"/>
  <linearGradient id="outerBackgroundGradient-0">
   <stop id="stop3864-8-6-3" stop-color="#1c6aba"/>
   <stop offset="1" id="stop3866-9-1-7" stop-color="#4195ec"/>
  </linearGradient>
  <linearGradient inkscape:collect="always" xlink:href="#linearGradient3904" id="linearGradient3839" x1="1" x2="21" gradientUnits="userSpaceOnUse" gradientTransform="matrix(0,-1,1,0,1,47)"/>
  <radialGradient inkscape:collect="always" xlink:href="#linearGradient3949" id="radialGradient3993" gradientUnits="userSpaceOnUse" gradientTransform="matrix(1,0,0,0.22222222,0,15.555556)" cx="11" cy="20" r="9"/>
  <linearGradient inkscape:collect="always" id="linearGradient3949">
   <stop id="stop3951"/>
   <stop offset="1" id="stop3953" stop-opacity="0"/>
  </linearGradient>
 </defs>
 <metadata id="metadata3500"/>
 <g id="layer1" inkscape:label="Background" inkscape:groupmode="layer" transform="translate(0,-24)">
  <g id="g4507" transform="translate(1,-1)">
   <path d="m 20,20 c 0,1.104569 -4.029437,2 -9,2 -4.9705627,0 -9,-0.895431 -9,-2 0,-1.104569 4.0294373,-2 9,-2 4.970563,0 9,0.895431 9,2 z" sodipodi:ry="2" sodipodi:rx="9" sodipodi:cy="20" sodipodi:cx="11" id="path3163" sodipodi:type="arc" transform="matrix(1,0,0,1.5,0,15)" opacity="0.4" fill="url(#radialGradient3993)"/>
   <path transform="matrix(0.66666667,0,0,1,3.6666666,26)" sodipodi:type="arc" id="path3995" sodipodi:cx="11" sodipodi:cy="20" sodipodi:rx="9" sodipodi:ry="2" d="m 20,20 c 0,1.104569 -4.029437,2 -9,2 -4.9705627,0 -9,-0.895431 -9,-2 0,-1.104569 4.0294373,-2 9,-2 4.970563,0 9,0.895431 9,2 z" opacity="0.8" fill="url(#radialGradient3993)"/>
  </g>
  <path d="m 12,45.5 c -5.2407828,0 -9.5,-4.259217 -9.5,-9.5 0,-5.240782 4.2592171,-9.5 9.5,-9.5 5.240783,0 9.5,4.259218 9.5,9.5 0,5.240783 -4.259217,9.5 -9.5,9.5 z" id="path4791" inkscape:connector-curvature="0" fill="url(#linearGradient3802)" fill-rule="evenodd"/>
  <path id="path3804" d="m 2.5,36 c 0,5.240783 4.259217,9.5 9.5,9.5 5.240782,0 9.5,-4.259217 9.5,-9.5 0,-5.240783 -4.259218,-9.5 -9.5,-9.5 -5.240783,0 -9.5,4.259217 -9.5,9.5 z" inkscape:connector-curvature="0" opacity="0.81" fill="none" stroke="url(#linearGradient3839)"/>
  <path d="m 12,27 c -4.9698807,0 -9,4.030119 -9,9 0,0.171541 0.021774,0.330826 0.03125,0.5 C 3.2963002,31.767849 7.2016599,28 12,28 c 4.79834,0 8.7037,3.767849 8.96875,8.5 C 20.978226,36.330826 21,36.171541 21,36 21,31.030119 16.969881,27 12,27 z" id="path3806" inkscape:connector-curvature="0" opacity="0.2" fill="#ffffff" fill-rule="evenodd"/>
  <path id="path3820" d="M 12,46 C 7.0301193,46 3,41.969881 3,37 3,36.828459 3.021774,36.669174 3.03125,36.5 3.2963002,41.232151 7.2016599,45 12,45 16.79834,45 20.7037,41.232151 20.96875,36.5 20.97825,36.669174 21,36.828459 21,37 c 0,4.969881 -4.030119,9 -9,9 z" inkscape:connector-curvature="0" opacity="0.2" fill-rule="evenodd"/>
 </g>
 <g inkscape:groupmode="layer" id="layer2" inkscape:label="Symbol" transform="translate(0,2)">
  <path d="m 10.469868,13.648534 c 0,-0.249073 0.03574,-0.459518 0.107242,-0.631911 0.07149,-0.171814 0.170657,-0.31077 0.29808,-0.416854 0.126844,-0.106089 0.27675,-0.182773 0.449143,-0.230623 0.171814,-0.04728 0.35574,-0.0715 0.551769,-0.0715 0.185657,0 0.362083,0.02421 0.528707,0.0715 0.166628,0.04785 0.313654,0.124534 0.441073,0.230623 0.126844,0.106084 0.227168,0.24504 0.301543,0.416854 0.07437,0.172393 0.111274,0.382838 0.111274,0.631911 0,0.238697 -0.0369,0.4428 -0.111274,0.612309 -0.07437,0.168934 -0.174699,0.310191 -0.301543,0.42147 -0.127419,0.1107 -0.274445,0.191421 -0.441073,0.242156 C 12.238185,14.97463 12.061759,15 11.876102,15 11.680073,15 11.496147,14.97463 11.324333,14.92447 11.15194,14.87374 11.002034,14.793014 10.87519,14.682314 10.747767,14.571035 10.6486,14.429778 10.57711,14.260844 10.50562,14.091335 10.469868,13.887232 10.469868,13.648535 m 0.262333,-2.717914 0,-0.587516 c 0,-0.270411 0.02769,-0.515451 0.0836,-0.73512 0.05535,-0.220247 0.140104,-0.428961 0.254267,-0.627878 0.11358,-0.198335 0.260606,-0.392062 0.44049,-0.58002 0.180468,-0.187963 0.397831,-0.382839 0.652098,-0.5840565 0.222553,-0.174699 0.410512,-0.330948 0.563876,-0.469325 0.153947,-0.13722 0.277903,-0.273865 0.373616,-0.4093583 0.09513,-0.1349143 0.164318,-0.2761714 0.206408,-0.42435 0.04264,-0.1487528 0.06399,-0.3211457 0.06399,-0.5166 0,-0.3021214 -0.10263,-0.5517728 -0.306154,-0.7472271 -0.204103,-0.1960329 -0.515451,-0.2940429 -0.934033,-0.2940429 -0.364967,0 -0.75876,0.07668 -1.180226,0.2300486 -0.420312,0.1539386 -0.856769,0.3419014 -1.3070652,0.56445 L 8.8329955,3.9934162 c 0.2271643,-0.1326086 0.4750886,-0.2583 0.7426157,-0.37707 0.2681014,-0.1193528 0.5459998,-0.2254371 0.8342828,-0.3182614 0.288857,-0.09225 0.581756,-0.1654757 0.878104,-0.21852 0.296941,-0.05304 0.588104,-0.079564 0.874659,-0.079564 0.540236,0 1.027432,0.065151 1.461583,0.1948757 0.43473,0.1297286 0.803156,0.31884 1.104699,0.5679172 0.302693,0.2490728 0.533892,0.5517685 0.695333,0.9063557 0.162014,0.3551614 0.242733,0.7599085 0.242733,1.2153943 0,0.3338314 -0.03748,0.6319114 -0.111273,0.8942485 -0.0738,0.2623376 -0.1845,0.5062246 -0.32922,0.7310826 -0.146451,0.225433 -0.32922,0.4428 -0.548886,0.6515142 -0.219673,0.209292 -0.475667,0.430692 -0.76683,0.663625 -0.222553,0.174695 -0.404173,0.327485 -0.544851,0.457209 -0.140105,0.129733 -0.25023,0.253114 -0.329216,0.369 -0.07957,0.117043 -0.133766,0.237548 -0.16317,0.362083 -0.02884,0.123965 -0.04382,0.270985 -0.04382,0.440498 l 0,0.476816 -2.097536,0 z" id="path3915" inkscape:connector-curvature="0" opacity="0.3"/>
  <path inkscape:connector-curvature="0" id="path4055" d="m 10.469868,14.648534 c 0,-0.249073 0.03574,-0.459518 0.107242,-0.631911 0.07149,-0.171814 0.170657,-0.31077 0.29808,-0.416854 0.126844,-0.106089 0.27675,-0.182773 0.449143,-0.230623 0.171814,-0.04728 0.35574,-0.0715 0.551769,-0.0715 0.185657,0 0.362083,0.02421 0.528707,0.0715 0.166628,0.04785 0.313654,0.124534 0.441073,0.230623 0.126844,0.106084 0.227168,0.24504 0.301543,0.416854 0.07437,0.172393 0.111274,0.382838 0.111274,0.631911 0,0.238697 -0.0369,0.4428 -0.111274,0.612309 -0.07437,0.168934 -0.174699,0.310191 -0.301543,0.42147 -0.127419,0.1107 -0.274445,0.191421 -0.441073,0.242156 C 12.238185,15.97463 12.061759,16 11.876102,16 11.680073,16 11.496147,15.97463 11.324333,15.92447 11.15194,15.87374 11.002034,15.793014 10.87519,15.682314 10.747767,15.571035 10.6486,15.429778 10.57711,15.260844 10.50562,15.091335 10.469868,14.887232 10.469868,14.648535 m 0.262333,-2.717914 0,-0.587516 c 0,-0.270411 0.02769,-0.515451 0.0836,-0.73512 0.05535,-0.220247 0.140104,-0.428961 0.254267,-0.627878 0.11358,-0.198335 0.260606,-0.392062 0.44049,-0.58002 0.180468,-0.187963 0.397831,-0.382839 0.652098,-0.5840565 0.222553,-0.174699 0.410512,-0.330948 0.563876,-0.469325 0.153947,-0.13722 0.277903,-0.273865 0.373616,-0.4093583 0.09513,-0.1349143 0.164318,-0.2761714 0.206408,-0.42435 0.04264,-0.1487528 0.06399,-0.3211457 0.06399,-0.5166 0,-0.3021214 -0.10263,-0.5517728 -0.306154,-0.7472271 -0.204103,-0.1960329 -0.515451,-0.2940429 -0.934033,-0.2940429 -0.364967,0 -0.75876,0.07668 -1.180226,0.2300486 -0.420312,0.1539386 -0.856769,0.3419014 -1.3070652,0.56445 L 8.8329955,4.9934162 c 0.2271643,-0.1326086 0.4750886,-0.2583 0.7426157,-0.37707 0.2681014,-0.1193528 0.5459998,-0.2254371 0.8342828,-0.3182614 0.288857,-0.09225 0.581756,-0.1654757 0.878104,-0.21852 0.296941,-0.05304 0.588104,-0.079564 0.874659,-0.079564 0.540236,0 1.027432,0.065151 1.461583,0.1948757 0.43473,0.1297286 0.803156,0.31884 1.104699,0.5679172 0.302693,0.2490728 0.533892,0.5517685 0.695333,0.9063557 0.162014,0.3551614 0.242733,0.7599085 0.242733,1.2153943 0,0.3338314 -0.03748,0.6319114 -0.111273,0.8942485 -0.0738,0.2623376 -0.1845,0.5062246 -0.32922,0.7310826 -0.146451,0.225433 -0.32922,0.4428 -0.548886,0.6515142 -0.219673,0.209292 -0.475667,0.430692 -0.76683,0.663625 -0.222553,0.174695 -0.404173,0.327485 -0.544851,0.457209 -0.140105,0.129733 -0.25023,0.253114 -0.329216,0.369 -0.07957,0.117043 -0.133766,0.237548 -0.16317,0.362083 -0.02884,0.123965 -0.04382,0.270985 -0.04382,0.440498 l 0,0.476816 -2.097536,0 z" fill="#ffffff"/>
 </g>
</svg>
