<?xml version="1.0" encoding="UTF-8" standalone="no"?>
<svg
   xmlns:dc="http://purl.org/dc/elements/1.1/"
   xmlns:cc="http://creativecommons.org/ns#"
   xmlns:rdf="http://www.w3.org/1999/02/22-rdf-syntax-ns#"
   xmlns:svg="http://www.w3.org/2000/svg"
   xmlns="http://www.w3.org/2000/svg"
   xmlns:xlink="http://www.w3.org/1999/xlink"
   width="24"
   height="24"
   id="svg3495"
   version="1.1">
  <defs
     id="defs3497">
    <linearGradient
       xlink:href="#outerBackgroundGradient-0"
       id="linearGradient3802"
       x1="11"
       y1="0"
       x2="11"
       y2="22"
       gradientUnits="userSpaceOnUse"
       gradientTransform="matrix(1,0,0,-1,1,47)" />
    <linearGradient
       id="linearGradient3904">
      <stop
         id="stop3906"
         offset="0"
         style="stop-color:#234683;stop-opacity:1;" />
      <stop
         id="stop3908"
         offset="1"
         style="stop-color:#30589e;stop-opacity:1;" />
    </linearGradient>
    <linearGradient
       id="outerBackgroundGradient-0">
      <stop
         style="stop-color:#1c6aba;stop-opacity:1"
         offset="0"
         id="stop3864-8-6-3" />
      <stop
         style="stop-color:#4195ec;stop-opacity:1"
         offset="1"
         id="stop3866-9-1-7" />
    </linearGradient>
    <linearGradient
       xlink:href="#linearGradient3904"
       id="linearGradient3839"
       x1="1"
       y1="11"
       x2="21"
       y2="11"
       gradientUnits="userSpaceOnUse"
       gradientTransform="matrix(0,-1,1,0,1,47)" />
    <radialGradient
       xlink:href="#linearGradient3949"
       id="radialGradient3993"
       gradientUnits="userSpaceOnUse"
       gradientTransform="matrix(1,0,0,0.22222222,0,15.555556)"
       cx="11"
       cy="20"
       fx="11"
       fy="20"
       r="9" />
    <linearGradient
       id="linearGradient3949">
      <stop
         style="stop-color:#000000;stop-opacity:1;"
         offset="0"
         id="stop3951" />
      <stop
         style="stop-color:#000000;stop-opacity:0;"
         offset="1"
         id="stop3953" />
    </linearGradient>
    <radialGradient
       r="9"
       fy="20"
       fx="11"
       cy="20"
       cx="11"
       gradientTransform="matrix(1,0,0,0.22222222,0,15.555556)"
       gradientUnits="userSpaceOnUse"
       id="radialGradient4535"
       xlink:href="#linearGradient3949" />
  </defs>
  <metadata
     id="metadata3500">
    <rdf:RDF>
      <cc:Work
         rdf:about="">
        <dc:format>image/svg+xml</dc:format>
        <dc:type
           rdf:resource="http://purl.org/dc/dcmitype/StillImage" />
        <dc:title />
      </cc:Work>
    </rdf:RDF>
  </metadata>
  <g
     id="layer1"
     transform="translate(0,-24)">
    <g
       id="g4507"
       transform="translate(1,-1)">
      <path
         d="m 20,20 c 0,1.104569 -4.029437,2 -9,2 -4.9705627,0 -9,-0.895431 -9,-2 0,-1.104569 4.0294373,-2 9,-2 4.970563,0 9,0.895431 9,2 z"
         id="path3163"
         style="opacity:0.4;fill:url(#radialGradient3993);fill-opacity:1;stroke:none"
         transform="matrix(1,0,0,1.5,0,15)" />
      <path
         transform="matrix(0.66666667,0,0,1,3.6666666,26)"
         style="opacity:0.8;fill:url(#radialGradient4535);fill-opacity:1;stroke:none"
         id="path3995"
         d="m 20,20 c 0,1.104569 -4.029437,2 -9,2 -4.9705627,0 -9,-0.895431 -9,-2 0,-1.104569 4.0294373,-2 9,-2 4.970563,0 9,0.895431 9,2 z" />
    </g>
    <path
       style="fill:url(#linearGradient3802);fill-opacity:1;fill-rule:evenodd;stroke:none"
       d="m 12,45.5 c -5.2407828,0 -9.5,-4.259217 -9.5,-9.5 0,-5.240782 4.2592171,-9.5 9.5,-9.5 5.240783,0 9.5,4.259218 9.5,9.5 0,5.240783 -4.259217,9.5 -9.5,9.5 z"
       id="path4791" />
    <path
       id="path3804"
       d="m 2.5,36 c 0,5.240783 4.259217,9.5 9.5,9.5 5.240782,0 9.5,-4.259217 9.5,-9.5 0,-5.240783 -4.259218,-9.5 -9.5,-9.5 -5.240783,0 -9.5,4.259217 -9.5,9.5 z"
       style="opacity:0.81000001;fill:none;stroke:url(#linearGradient3839);stroke-opacity:1" />
    <path
       style="opacity:0.2;fill:#ffffff;fill-opacity:1;fill-rule:evenodd;stroke:none"
       d="m 12,27 c -4.9698807,0 -9,4.030119 -9,9 0,0.171541 0.021774,0.330826 0.03125,0.5 C 3.2963002,31.767849 7.2016599,28 12,28 c 4.79834,0 8.7037,3.767849 8.96875,8.5 C 20.978226,36.330826 21,36.171541 21,36 21,31.030119 16.969881,27 12,27 z"
       id="path3806" />
    <path
       id="path3820"
       d="M 12,46 C 7.0301193,46 3,41.969881 3,37 3,36.828459 3.021774,36.669174 3.03125,36.5 3.2963002,41.232151 7.2016599,45 12,45 16.79834,45 20.7037,41.232151 20.96875,36.5 20.97825,36.669174 21,36.828459 21,37 c 0,4.969881 -4.030119,9 -9,9 z"
       style="opacity:0.2;fill:#000000;fill-opacity:1;fill-rule:evenodd;stroke:none" />
  </g>
  <g
     id="layer2"
     transform="translate(0,2)">
    <path
       d="m 10.469868,13.648534 c 0,-0.249073 0.03574,-0.459518 0.107242,-0.631911 0.07149,-0.171814 0.170657,-0.31077 0.29808,-0.416854 0.126844,-0.106089 0.27675,-0.182773 0.449143,-0.230623 0.171814,-0.04728 0.35574,-0.0715 0.551769,-0.0715 0.185657,0 0.362083,0.02421 0.528707,0.0715 0.166628,0.04785 0.313654,0.124534 0.441073,0.230623 0.126844,0.106084 0.227168,0.24504 0.301543,0.416854 0.07437,0.172393 0.111274,0.382838 0.111274,0.631911 0,0.238697 -0.0369,0.4428 -0.111274,0.612309 -0.07437,0.168934 -0.174699,0.310191 -0.301543,0.42147 -0.127419,0.1107 -0.274445,0.191421 -0.441073,0.242156 C 12.238185,14.97463 12.061759,15 11.876102,15 11.680073,15 11.496147,14.97463 11.324333,14.92447 11.15194,14.87374 11.002034,14.793014 10.87519,14.682314 10.747767,14.571035 10.6486,14.429778 10.57711,14.260844 10.50562,14.091335 10.469868,13.887232 10.469868,13.648535 m 0.262333,-2.717914 0,-0.587516 c 0,-0.270411 0.02769,-0.515451 0.0836,-0.73512 0.05535,-0.220247 0.140104,-0.428961 0.254267,-0.627878 0.11358,-0.198335 0.260606,-0.392062 0.44049,-0.58002 0.180468,-0.187963 0.397831,-0.382839 0.652098,-0.5840565 0.222553,-0.174699 0.410512,-0.330948 0.563876,-0.469325 0.153947,-0.13722 0.277903,-0.273865 0.373616,-0.4093583 0.09513,-0.1349143 0.164318,-0.2761714 0.206408,-0.42435 0.04264,-0.1487528 0.06399,-0.3211457 0.06399,-0.5166 0,-0.3021214 -0.10263,-0.5517728 -0.306154,-0.7472271 -0.204103,-0.1960329 -0.515451,-0.2940429 -0.934033,-0.2940429 -0.364967,0 -0.75876,0.07668 -1.180226,0.2300486 -0.420312,0.1539386 -0.856769,0.3419014 -1.3070652,0.56445 L 8.8329955,3.9934162 c 0.2271643,-0.1326086 0.4750886,-0.2583 0.7426157,-0.37707 0.2681014,-0.1193528 0.5459998,-0.2254371 0.8342828,-0.3182614 0.288857,-0.09225 0.581756,-0.1654757 0.878104,-0.21852 0.296941,-0.05304 0.588104,-0.079564 0.874659,-0.079564 0.540236,0 1.027432,0.065151 1.461583,0.1948757 0.43473,0.1297286 0.803156,0.31884 1.104699,0.5679172 0.302693,0.2490728 0.533892,0.5517685 0.695333,0.9063557 0.162014,0.3551614 0.242733,0.7599085 0.242733,1.2153943 0,0.3338314 -0.03748,0.6319114 -0.111273,0.8942485 -0.0738,0.2623376 -0.1845,0.5062246 -0.32922,0.7310826 -0.146451,0.225433 -0.32922,0.4428 -0.548886,0.6515142 -0.219673,0.209292 -0.475667,0.430692 -0.76683,0.663625 -0.222553,0.174695 -0.404173,0.327485 -0.544851,0.457209 -0.140105,0.129733 -0.25023,0.253114 -0.329216,0.369 -0.07957,0.117043 -0.133766,0.237548 -0.16317,0.362083 -0.02884,0.123965 -0.04382,0.270985 -0.04382,0.440498 l 0,0.476816 -2.097536,0 z"
       style="opacity:0.3;fill:#000000;fill-opacity:1;fill-rule:nonzero;stroke:none;display:inline;enable-background:new"
       id="path3915" />
    <path
       id="path4055"
       style="fill:#ffffff;fill-opacity:1;fill-rule:nonzero;stroke:none;display:inline;enable-background:new"
       d="m 10.469868,14.648534 c 0,-0.249073 0.03574,-0.459518 0.107242,-0.631911 0.07149,-0.171814 0.170657,-0.31077 0.29808,-0.416854 0.126844,-0.106089 0.27675,-0.182773 0.449143,-0.230623 0.171814,-0.04728 0.35574,-0.0715 0.551769,-0.0715 0.185657,0 0.362083,0.02421 0.528707,0.0715 0.166628,0.04785 0.313654,0.124534 0.441073,0.230623 0.126844,0.106084 0.227168,0.24504 0.301543,0.416854 0.07437,0.172393 0.111274,0.382838 0.111274,0.631911 0,0.238697 -0.0369,0.4428 -0.111274,0.612309 -0.07437,0.168934 -0.174699,0.310191 -0.301543,0.42147 -0.127419,0.1107 -0.274445,0.191421 -0.441073,0.242156 C 12.238185,15.97463 12.061759,16 11.876102,16 11.680073,16 11.496147,15.97463 11.324333,15.92447 11.15194,15.87374 11.002034,15.793014 10.87519,15.682314 10.747767,15.571035 10.6486,15.429778 10.57711,15.260844 10.50562,15.091335 10.469868,14.887232 10.469868,14.648535 m 0.262333,-2.717914 0,-0.587516 c 0,-0.270411 0.02769,-0.515451 0.0836,-0.73512 0.05535,-0.220247 0.140104,-0.428961 0.254267,-0.627878 0.11358,-0.198335 0.260606,-0.392062 0.44049,-0.58002 0.180468,-0.187963 0.397831,-0.382839 0.652098,-0.5840565 0.222553,-0.174699 0.410512,-0.330948 0.563876,-0.469325 0.153947,-0.13722 0.277903,-0.273865 0.373616,-0.4093583 0.09513,-0.1349143 0.164318,-0.2761714 0.206408,-0.42435 0.04264,-0.1487528 0.06399,-0.3211457 0.06399,-0.5166 0,-0.3021214 -0.10263,-0.5517728 -0.306154,-0.7472271 -0.204103,-0.1960329 -0.515451,-0.2940429 -0.934033,-0.2940429 -0.364967,0 -0.75876,0.07668 -1.180226,0.2300486 -0.420312,0.1539386 -0.856769,0.3419014 -1.3070652,0.56445 L 8.8329955,4.9934162 c 0.2271643,-0.1326086 0.4750886,-0.2583 0.7426157,-0.37707 0.2681014,-0.1193528 0.5459998,-0.2254371 0.8342828,-0.3182614 0.288857,-0.09225 0.581756,-0.1654757 0.878104,-0.21852 0.296941,-0.05304 0.588104,-0.079564 0.874659,-0.079564 0.540236,0 1.027432,0.065151 1.461583,0.1948757 0.43473,0.1297286 0.803156,0.31884 1.104699,0.5679172 0.302693,0.2490728 0.533892,0.5517685 0.695333,0.9063557 0.162014,0.3551614 0.242733,0.7599085 0.242733,1.2153943 0,0.3338314 -0.03748,0.6319114 -0.111273,0.8942485 -0.0738,0.2623376 -0.1845,0.5062246 -0.32922,0.7310826 -0.146451,0.225433 -0.32922,0.4428 -0.548886,0.6515142 -0.219673,0.209292 -0.475667,0.430692 -0.76683,0.663625 -0.222553,0.174695 -0.404173,0.327485 -0.544851,0.457209 -0.140105,0.129733 -0.25023,0.253114 -0.329216,0.369 -0.07957,0.117043 -0.133766,0.237548 -0.16317,0.362083 -0.02884,0.123965 -0.04382,0.270985 -0.04382,0.440498 l 0,0.476816 -2.097536,0 z" />
  </g>
</svg>
