<?xml version="1.0" encoding="UTF-8" standalone="no"?>
<!-- Created with Inkscape (http://www.inkscape.org/) -->

<svg
   xmlns:dc="http://purl.org/dc/elements/1.1/"
   xmlns:cc="http://creativecommons.org/ns#"
   xmlns:rdf="http://www.w3.org/1999/02/22-rdf-syntax-ns#"
   xmlns:svg="http://www.w3.org/2000/svg"
   xmlns="http://www.w3.org/2000/svg"
   xmlns:xlink="http://www.w3.org/1999/xlink"
   xmlns:sodipodi="http://sodipodi.sourceforge.net/DTD/sodipodi-0.dtd"
   xmlns:inkscape="http://www.inkscape.org/namespaces/inkscape"
   width="24"
   height="24"
   id="svg3495"
   version="1.1"
   inkscape:version="0.48.4 r9939"
   sodipodi:docname="image-red-eye.svg">
  <defs
     id="defs3497">
    <linearGradient
       inkscape:collect="always"
       id="linearGradient3884">
      <stop
         style="stop-color:#ffffff;stop-opacity:1;"
         offset="0"
         id="stop3886" />
      <stop
         style="stop-color:#ffffff;stop-opacity:0;"
         offset="1"
         id="stop3888" />
    </linearGradient>
    <linearGradient
       id="linearGradient3779">
      <stop
         style="stop-color:#f6b8b9;stop-opacity:1;"
         offset="0"
         id="stop3781" />
      <stop
         style="stop-color:#d9262a;stop-opacity:1;"
         offset="0.84109592"
         id="stop3878" />
      <stop
         style="stop-color:#800002;stop-opacity:1;"
         offset="1"
         id="stop3783" />
    </linearGradient>
    <clipPath
       clipPathUnits="userSpaceOnUse"
       id="clipPath3669">
      <path
         inkscape:connector-curvature="0"
         d="M 0,96 96,96 96,0 0,0 0,96 z"
         id="path3671" />
    </clipPath>
    <linearGradient
       inkscape:collect="always"
       xlink:href="#linearGradient3760"
       id="linearGradient3852"
       gradientUnits="userSpaceOnUse"
       gradientTransform="matrix(0.92857143,0,0,-0.92857143,-148,292.57143)"
       x1="168"
       y1="280"
       x2="168"
       y2="264" />
    <linearGradient
       id="linearGradient3760">
      <stop
         style="stop-color:#e44343;stop-opacity:1;"
         offset="0"
         id="stop3762" />
      <stop
         style="stop-color:#ac0808;stop-opacity:1;"
         offset="1"
         id="stop3764" />
    </linearGradient>
    <clipPath
       clipPathUnits="userSpaceOnUse"
       id="clipPath4307">
      <path
         d="m 168,265 c -3.86599,0 -7,3.13401 -7,7 0,3.86599 3.13401,7 7,7 3.866,0 7,-3.13401 7,-7 0,-3.86599 -3.134,-7 -7,-7 z m 3.3125,3.0625 1.5625,1.40625 -5.25,6.9375 -4.0625,-3.5 1.34375,-1.78125 2.375,2.0625 4.03125,-5.125 z"
         inkscape:connector-curvature="0"
         id="path4309"
         style="color:#000000;fill:#36e12b;fill-opacity:1;fill-rule:nonzero;stroke:none;stroke-width:0.84323651;marker:none;visibility:visible;display:inline;overflow:visible;enable-background:accumulate" />
    </clipPath>
    <linearGradient
       y2="264"
       x2="168"
       y1="280"
       x1="168"
       gradientTransform="matrix(0.92857143,0,0,-0.92857143,-123,277.94643)"
       gradientUnits="userSpaceOnUse"
       id="linearGradient3082"
       xlink:href="#linearGradient3760"
       inkscape:collect="always" />
    <linearGradient
       inkscape:collect="always"
       xlink:href="#outerBackgroundGradient-0"
       id="linearGradient3802"
       x1="11"
       y1="0"
       x2="11"
       y2="22"
       gradientUnits="userSpaceOnUse"
       gradientTransform="matrix(1,0,0,-1,1,47)" />
    <linearGradient
       inkscape:collect="always"
       xlink:href="#linearGradient3760"
       id="linearGradient3814"
       gradientUnits="userSpaceOnUse"
       x1="11"
       y1="0"
       x2="11"
       y2="22" />
    <linearGradient
       id="linearGradient3904">
      <stop
         id="stop3906"
         offset="0"
         style="stop-color:#234683;stop-opacity:1;" />
      <stop
         id="stop3908"
         offset="1"
         style="stop-color:#30589e;stop-opacity:1;" />
    </linearGradient>
    <linearGradient
       inkscape:collect="always"
       xlink:href="#outerBackgroundGradient-0"
       id="linearGradient3874"
       gradientUnits="userSpaceOnUse"
       gradientTransform="matrix(0,-1,-1,0,48.000003,48.000003)"
       x1="4.5000033"
       y1="24"
       x2="43.500004"
       y2="24" />
    <linearGradient
       id="outerBackgroundGradient-0">
      <stop
         style="stop-color:#414141;stop-opacity:1;"
         offset="0"
         id="stop3864-8-6-3" />
      <stop
         style="stop-color:#9d9d9d;stop-opacity:1;"
         offset="1"
         id="stop3866-9-1-7" />
    </linearGradient>
    <radialGradient
       inkscape:collect="always"
       xlink:href="#linearGradient3779"
       id="radialGradient3787"
       cx="12"
       cy="12"
       fx="12"
       fy="12"
       r="3"
       gradientUnits="userSpaceOnUse" />
    <radialGradient
       inkscape:collect="always"
       xlink:href="#linearGradient3884"
       id="radialGradient3890"
       cx="8.5"
       cy="8.5"
       fx="8.5"
       fy="8.5"
       r="2.5"
       gradientUnits="userSpaceOnUse" />
    <radialGradient
       inkscape:collect="always"
       xlink:href="#linearGradient3884"
       id="radialGradient3894"
       gradientUnits="userSpaceOnUse"
       cx="8.5"
       cy="8.5"
       fx="8.5"
       fy="8.5"
       r="2.5" />
    <linearGradient
       inkscape:collect="always"
       xlink:href="#outerBackgroundGradient-0"
       id="linearGradient3030"
       gradientUnits="userSpaceOnUse"
       gradientTransform="matrix(1,0,0,-1,0,22)"
       x1="11"
       y1="0"
       x2="11"
       y2="22" />
    <radialGradient
       inkscape:collect="always"
       xlink:href="#linearGradient3779"
       id="radialGradient3813"
       gradientUnits="userSpaceOnUse"
       cx="12"
       cy="12"
       fx="12"
       fy="12"
       r="3"
       gradientTransform="matrix(1.5,0,0,1.5,-7,-7)" />
    <radialGradient
       inkscape:collect="always"
       xlink:href="#linearGradient3779"
       id="radialGradient3827"
       gradientUnits="userSpaceOnUse"
       cx="12"
       cy="12"
       fx="12"
       fy="12"
       r="3"
       gradientTransform="matrix(1.5,0,0,1.5,-7,-7)" />
    <radialGradient
       inkscape:collect="always"
       xlink:href="#linearGradient3949"
       id="radialGradient3993"
       gradientUnits="userSpaceOnUse"
       gradientTransform="matrix(1,0,0,0.22222222,0,15.555556)"
       cx="11"
       cy="20"
       fx="11"
       fy="20"
       r="9" />
    <linearGradient
       inkscape:collect="always"
       id="linearGradient3949">
      <stop
         style="stop-color:#000000;stop-opacity:1;"
         offset="0"
         id="stop3951" />
      <stop
         style="stop-color:#000000;stop-opacity:0;"
         offset="1"
         id="stop3953" />
    </linearGradient>
    <radialGradient
       inkscape:collect="always"
       xlink:href="#linearGradient3949"
       id="radialGradient3997"
       gradientUnits="userSpaceOnUse"
       gradientTransform="matrix(1,0,0,0.22222222,0,15.555556)"
       cx="11"
       cy="20"
       fx="11"
       fy="20"
       r="9" />
    <radialGradient
       r="9"
       fy="20"
       fx="11"
       cy="20"
       cx="11"
       gradientTransform="matrix(1,0,0,0.22222222,0,15.555556)"
       gradientUnits="userSpaceOnUse"
       id="radialGradient4535"
       xlink:href="#linearGradient3949"
       inkscape:collect="always" />
  </defs>
  <sodipodi:namedview
     id="base"
     pagecolor="#ffffff"
     bordercolor="#666666"
     borderopacity="1.0"
     inkscape:pageopacity="0.0"
     inkscape:pageshadow="2"
     inkscape:zoom="1"
     inkscape:cx="15.335649"
     inkscape:cy="18.295485"
     inkscape:current-layer="layer1"
     showgrid="false"
     showborder="false"
     inkscape:grid-bbox="true"
     inkscape:document-units="px"
     inkscape:window-width="1364"
     inkscape:window-height="700"
     inkscape:window-x="0"
     inkscape:window-y="28"
     inkscape:window-maximized="1"
     inkscape:snap-bbox="true"
     inkscape:bbox-paths="true"
     inkscape:bbox-nodes="true"
     inkscape:snap-bbox-edge-midpoints="false"
     showguides="true"
     inkscape:guide-bbox="true">
    <inkscape:grid
       type="xygrid"
       id="grid3512"
       empspacing="4"
       visible="true"
       enabled="true"
       snapvisiblegridlinesonly="true"
       dotted="false" />
  </sodipodi:namedview>
  <metadata
     id="metadata3500">
    <rdf:RDF>
      <cc:Work
         rdf:about="">
        <dc:format>image/svg+xml</dc:format>
        <dc:type
           rdf:resource="http://purl.org/dc/dcmitype/StillImage" />
        <dc:title />
      </cc:Work>
    </rdf:RDF>
  </metadata>
  <g
     id="layer1"
     inkscape:label="Background"
     inkscape:groupmode="layer"
     transform="translate(0,-24)">
    <g
       id="g4507"
       transform="translate(1,-1)">
      <path
         d="m 20,20 c 0,1.104569 -4.029437,2 -9,2 -4.9705627,0 -9,-0.895431 -9,-2 0,-1.104569 4.0294373,-2 9,-2 4.970563,0 9,0.895431 9,2 z"
         sodipodi:ry="2"
         sodipodi:rx="9"
         sodipodi:cy="20"
         sodipodi:cx="11"
         id="path3163"
         style="opacity:0.4;fill:url(#radialGradient3993);fill-opacity:1;stroke:none"
         sodipodi:type="arc"
         transform="matrix(1,0,0,1.5,0,15)" />
      <path
         transform="matrix(0.66666667,0,0,1,3.6666666,26)"
         sodipodi:type="arc"
         style="opacity:0.8;fill:url(#radialGradient4535);fill-opacity:1;stroke:none"
         id="path3995"
         sodipodi:cx="11"
         sodipodi:cy="20"
         sodipodi:rx="9"
         sodipodi:ry="2"
         d="m 20,20 c 0,1.104569 -4.029437,2 -9,2 -4.9705627,0 -9,-0.895431 -9,-2 0,-1.104569 4.0294373,-2 9,-2 4.970563,0 9,0.895431 9,2 z" />
    </g>
    <path
       style="fill:url(#linearGradient3802);fill-opacity:1;fill-rule:evenodd;stroke:none"
       d="m 12,45.5 c -5.2407828,0 -9.5,-4.259217 -9.5,-9.5 0,-5.240782 4.2592171,-9.5 9.5,-9.5 5.240783,0 9.5,4.259218 9.5,9.5 0,5.240783 -4.259217,9.5 -9.5,9.5 z"
       id="path4791"
       inkscape:connector-curvature="0" />
    <path
       id="path3804"
       d="m 2.5,36 c 0,5.240783 4.259217,9.5 9.5,9.5 5.240782,0 9.5,-4.259217 9.5,-9.5 0,-5.240783 -4.259218,-9.5 -9.5,-9.5 -5.240783,0 -9.5,4.259217 -9.5,9.5 z"
       style="opacity:0.61;fill:none;stroke:#000000;stroke-opacity:1"
       inkscape:connector-curvature="0" />
    <path
       style="opacity:0.4;fill:#ffffff;fill-opacity:1;fill-rule:evenodd;stroke:none"
       d="m 12,27 c -4.9698809,0 -9,4.030119 -9,9 0,0.171541 0.021774,0.330826 0.03125,0.5 C 3.2963002,31.767849 7.2016597,28 12,28 c 4.798339,0 8.7037,3.767849 8.96875,8.5 C 20.978226,36.330826 21,36.171541 21,36 21,31.030119 16.96988,27 12,27 z"
       id="path3022"
       inkscape:connector-curvature="0" />
  </g>
  <g
     inkscape:groupmode="layer"
     id="layer2"
     inkscape:label="Symbol"
     style="display:inline"
     transform="translate(0,2)">
    <path
       sodipodi:type="arc"
       style="opacity:0.8;fill:url(#radialGradient3787);fill-opacity:1;stroke:none"
       id="path3777"
       sodipodi:cx="12"
       sodipodi:cy="12"
       sodipodi:rx="3"
       sodipodi:ry="3"
       d="m 15,12 c 0,1.656854 -1.343146,3 -3,3 -1.656854,0 -3,-1.343146 -3,-3 0,-1.656854 1.343146,-3 3,-3 1.656854,0 3,1.343146 3,3 z"
       transform="matrix(1.5,0,0,1.5,-6,-8)" />
    <path
       transform="matrix(1.5,0,0,1.5,-6,-8)"
       d="m 15,12 c 0,1.656854 -1.343146,3 -3,3 -1.656854,0 -3,-1.343146 -3,-3 0,-1.656854 1.343146,-3 3,-3 1.656854,0 3,1.343146 3,3 z"
       sodipodi:ry="3"
       sodipodi:rx="3"
       sodipodi:cy="12"
       sodipodi:cx="12"
       id="path3795"
       style="opacity:0.4;fill:none;stroke:#860200;stroke-width:0.66666669;stroke-miterlimit:4;stroke-opacity:1;stroke-dasharray:none"
       sodipodi:type="arc" />
    <path
       style="opacity:0.3;fill:#000000;fill-opacity:1;stroke:none"
       d="M 11.53125,3.0625 11.40625,5.75 12.0625,5.65625 11.53125,3.0625 z M 14.375,3.78125 13.21875,5.65625 13.90625,5.875 14.375,3.78125 z M 8.5625,4.71875 9.34375,6.59375 10.125,6.125 8.5625,4.71875 z m 9.53125,0.53125 -3.1875,1.59375 0.875,1.09375 2.3125,-2.6875 z m -12.125,2.09375 1.25,0.625 0.15625,-0.5 -1.40625,-0.125 z m 10.625,1.6875 0.125,0.84375 2.59375,-0.75 -2.71875,-0.09375 z m -9.21875,1.3125 -2.125,0.5 2.15625,0 -0.03125,-0.5 z m 9.1875,1.34375 -0.15625,0.75 1.875,0.34375 L 16.5625,11.6875 z M 8.25,12.375 6.28125,14.34375 9.03125,13.1875 8.25,12.375 z m 6.75,1.0625 -0.5,0.40625 1.625,1.9375 L 15,13.4375 z M 9.75,14.125 9.28125,16.25 10.625,14.5 9.75,14.125 z M 13,14.1875 11.625,14.28125 12.53125,17.6875 13,14.1875 z"
       id="path3793"
       inkscape:connector-curvature="0" />
    <path
       id="path3880"
       d="M 9.5239536,1.3571833 10.35604,6.3239691 11.502676,5.856607 9.5239536,1.3571833 z m 3.7881014,0.5366361 -1.357369,3.8347617 1.307148,0.1374829 0.05022,-3.9722446 z M 6.7092582,4.7988501 8.6733681,7.57618 9.7641894,6.5456152 6.7092582,4.7988501 z M 17.788726,3.1147474 13.800227,6.2947437 15.347774,7.5632096 17.788726,3.1147474 z M 4.2476341,8.5488469 7.1317172,9.341534 7.240552,8.2002158 4.2476341,8.5488469 z M 15.934306,7.9177604 16.471218,9.241302 20.514794,7.0719402 15.934306,7.9177605 z M 7.696538,10.946678 3.4852129,12.92806 7.9785787,11.972967 7.6965379,10.94668 z m 8.879816,-0.609538 -0.02629,1.379359 3.498825,-0.07279 -3.472534,-1.306571 z M 8.7477734,12.735964 6.3889258,16.36827 10.19978,13.705255 8.7477734,12.735964 z m 6.9151036,-0.383614 -0.761079,0.928529 3.675129,2.860915 -2.91405,-3.789444 z m -5.260942,1.853055 -0.02999,3.616514 1.566021,-3.304045 -1.536031,-0.312469 z m 3.663467,-0.650944 -1.923808,0.568659 2.334452,4.519656 -0.410648,-5.088314 z"
       style="opacity:0.2;fill:#000000;fill-opacity:1;stroke:none"
       inkscape:connector-curvature="0" />
  </g>
</svg>
