<?xml version="1.0" encoding="UTF-8" standalone="no"?>
<svg
   xmlns:dc="http://purl.org/dc/elements/1.1/"
   xmlns:cc="http://creativecommons.org/ns#"
   xmlns:rdf="http://www.w3.org/1999/02/22-rdf-syntax-ns#"
   xmlns:svg="http://www.w3.org/2000/svg"
   xmlns="http://www.w3.org/2000/svg"
   xmlns:xlink="http://www.w3.org/1999/xlink"
   version="1.1"
   id="svg3495"
   height="24"
   width="24">
  <defs
     id="defs3497">
    <linearGradient
       id="linearGradient3779">
      <stop
         id="stop3781"
         offset="0"
         style="stop-color:#f6b8b9;stop-opacity:1;" />
      <stop
         id="stop3878"
         offset="0.84109592"
         style="stop-color:#d9262a;stop-opacity:1;" />
      <stop
         id="stop3783"
         offset="1"
         style="stop-color:#800002;stop-opacity:1;" />
    </linearGradient>
    <linearGradient
       gradientTransform="matrix(1,0,0,-1,1,47)"
       gradientUnits="userSpaceOnUse"
       y2="22"
       x2="11"
       y1="0"
       x1="11"
       id="linearGradient3802"
       xlink:href="#outerBackgroundGradient-0" />
    <linearGradient
       id="outerBackgroundGradient-0">
      <stop
         id="stop3864-8-6-3"
         offset="0"
         style="stop-color:#414141;stop-opacity:1;" />
      <stop
         id="stop3866-9-1-7"
         offset="1"
         style="stop-color:#9d9d9d;stop-opacity:1;" />
    </linearGradient>
    <radialGradient
       gradientUnits="userSpaceOnUse"
       r="3"
       fy="12"
       fx="12"
       cy="12"
       cx="12"
       id="radialGradient3787"
       xlink:href="#linearGradient3779" />
    <radialGradient
       r="9"
       fy="20"
       fx="11"
       cy="20"
       cx="11"
       gradientTransform="matrix(1,0,0,0.22222222,0,15.555556)"
       gradientUnits="userSpaceOnUse"
       id="radialGradient3993"
       xlink:href="#linearGradient3949" />
    <linearGradient
       id="linearGradient3949">
      <stop
         id="stop3951"
         offset="0"
         style="stop-color:#000000;stop-opacity:1;" />
      <stop
         id="stop3953"
         offset="1"
         style="stop-color:#000000;stop-opacity:0;" />
    </linearGradient>
    <radialGradient
       xlink:href="#linearGradient3949"
       id="radialGradient4535"
       gradientUnits="userSpaceOnUse"
       gradientTransform="matrix(1,0,0,0.22222222,0,15.555556)"
       cx="11"
       cy="20"
       fx="11"
       fy="20"
       r="9" />
  </defs>
  <metadata
     id="metadata3500">
    <rdf:RDF>
      <cc:Work
         rdf:about="">
        <dc:format>image/svg+xml</dc:format>
        <dc:type
           rdf:resource="http://purl.org/dc/dcmitype/StillImage" />
        <dc:title />
      </cc:Work>
    </rdf:RDF>
  </metadata>
  <g
     transform="translate(0,-24)"
     id="layer1">
    <g
       transform="translate(1,-1)"
       id="g4507">
      <path
         transform="matrix(1,0,0,1.5,0,15)"
         style="opacity:0.4;fill:url(#radialGradient3993);fill-opacity:1;stroke:none"
         id="path3163"
         d="m 20,20 c 0,1.104569 -4.029437,2 -9,2 -4.9705627,0 -9,-0.895431 -9,-2 0,-1.104569 4.0294373,-2 9,-2 4.970563,0 9,0.895431 9,2 z" />
      <path
         d="m 20,20 c 0,1.104569 -4.029437,2 -9,2 -4.9705627,0 -9,-0.895431 -9,-2 0,-1.104569 4.0294373,-2 9,-2 4.970563,0 9,0.895431 9,2 z"
         id="path3995"
         style="opacity:0.8;fill:url(#radialGradient4535);fill-opacity:1;stroke:none"
         transform="matrix(0.66666667,0,0,1,3.6666666,26)" />
    </g>
    <path
       id="path4791"
       d="m 12,45.5 c -5.2407828,0 -9.5,-4.259217 -9.5,-9.5 0,-5.240782 4.2592171,-9.5 9.5,-9.5 5.240783,0 9.5,4.259218 9.5,9.5 0,5.240783 -4.259217,9.5 -9.5,9.5 z"
       style="fill:url(#linearGradient3802);fill-opacity:1;fill-rule:evenodd;stroke:none" />
    <path
       style="opacity:0.61;fill:none;stroke:#000000;stroke-opacity:1"
       d="m 2.5,36 c 0,5.240783 4.259217,9.5 9.5,9.5 5.240782,0 9.5,-4.259217 9.5,-9.5 0,-5.240783 -4.259218,-9.5 -9.5,-9.5 -5.240783,0 -9.5,4.259217 -9.5,9.5 z"
       id="path3804" />
    <path
       id="path3022"
       d="m 12,27 c -4.9698809,0 -9,4.030119 -9,9 0,0.171541 0.021774,0.330826 0.03125,0.5 C 3.2963002,31.767849 7.2016597,28 12,28 c 4.798339,0 8.7037,3.767849 8.96875,8.5 C 20.978226,36.330826 21,36.171541 21,36 21,31.030119 16.96988,27 12,27 z"
       style="opacity:0.4;fill:#ffffff;fill-opacity:1;fill-rule:evenodd;stroke:none" />
  </g>
  <g
     transform="translate(0,2)"
     style="display:inline"
     id="layer2">
    <path
       transform="matrix(1.5,0,0,1.5,-6,-8)"
       d="m 15,12 c 0,1.656854 -1.343146,3 -3,3 -1.656854,0 -3,-1.343146 -3,-3 0,-1.656854 1.343146,-3 3,-3 1.656854,0 3,1.343146 3,3 z"
       id="path3777"
       style="opacity:0.8;fill:url(#radialGradient3787);fill-opacity:1;stroke:none" />
    <path
       style="opacity:0.4;fill:none;stroke:#860200;stroke-width:0.66666669;stroke-miterlimit:4;stroke-opacity:1;stroke-dasharray:none"
       id="path3795"
       d="m 15,12 c 0,1.656854 -1.343146,3 -3,3 -1.656854,0 -3,-1.343146 -3,-3 0,-1.656854 1.343146,-3 3,-3 1.656854,0 3,1.343146 3,3 z"
       transform="matrix(1.5,0,0,1.5,-6,-8)" />
    <path
       id="path3793"
       d="M 11.53125,3.0625 11.40625,5.75 12.0625,5.65625 11.53125,3.0625 z M 14.375,3.78125 13.21875,5.65625 13.90625,5.875 14.375,3.78125 z M 8.5625,4.71875 9.34375,6.59375 10.125,6.125 8.5625,4.71875 z m 9.53125,0.53125 -3.1875,1.59375 0.875,1.09375 2.3125,-2.6875 z m -12.125,2.09375 1.25,0.625 0.15625,-0.5 -1.40625,-0.125 z m 10.625,1.6875 0.125,0.84375 2.59375,-0.75 -2.71875,-0.09375 z m -9.21875,1.3125 -2.125,0.5 2.15625,0 -0.03125,-0.5 z m 9.1875,1.34375 -0.15625,0.75 1.875,0.34375 L 16.5625,11.6875 z M 8.25,12.375 6.28125,14.34375 9.03125,13.1875 8.25,12.375 z m 6.75,1.0625 -0.5,0.40625 1.625,1.9375 L 15,13.4375 z M 9.75,14.125 9.28125,16.25 10.625,14.5 9.75,14.125 z M 13,14.1875 11.625,14.28125 12.53125,17.6875 13,14.1875 z"
       style="opacity:0.3;fill:#000000;fill-opacity:1;stroke:none" />
    <path
       style="opacity:0.2;fill:#000000;fill-opacity:1;stroke:none"
       d="M 9.5239536,1.3571833 10.35604,6.3239691 11.502676,5.856607 9.5239536,1.3571833 z m 3.7881014,0.5366361 -1.357369,3.8347617 1.307148,0.1374829 0.05022,-3.9722446 z M 6.7092582,4.7988501 8.6733681,7.57618 9.7641894,6.5456152 6.7092582,4.7988501 z M 17.788726,3.1147474 13.800227,6.2947437 15.347774,7.5632096 17.788726,3.1147474 z M 4.2476341,8.5488469 7.1317172,9.341534 7.240552,8.2002158 4.2476341,8.5488469 z M 15.934306,7.9177604 16.471218,9.241302 20.514794,7.0719402 15.934306,7.9177605 z M 7.696538,10.946678 3.4852129,12.92806 7.9785787,11.972967 7.6965379,10.94668 z m 8.879816,-0.609538 -0.02629,1.379359 3.498825,-0.07279 -3.472534,-1.306571 z M 8.7477734,12.735964 6.3889258,16.36827 10.19978,13.705255 8.7477734,12.735964 z m 6.9151036,-0.383614 -0.761079,0.928529 3.675129,2.860915 -2.91405,-3.789444 z m -5.260942,1.853055 -0.02999,3.616514 1.566021,-3.304045 -1.536031,-0.312469 z m 3.663467,-0.650944 -1.923808,0.568659 2.334452,4.519656 -0.410648,-5.088314 z"
       id="path3880" />
  </g>
</svg>
