<?xml version="1.0" encoding="UTF-8" standalone="no"?>
<svg xmlns="http://www.w3.org/2000/svg" xmlns:xlink="http://www.w3.org/1999/xlink" xmlns:sodipodi="http://sodipodi.sourceforge.net/DTD/sodipodi-0.dtd" xmlns:inkscape="http://www.inkscape.org/namespaces/inkscape" width="24" height="24" version="1.1">
 <defs id="defs3497">
  <clipPath id="clipPath3669">
   <path d="M 0,96 96,96 96,0 0,0 0,96 z" id="path3671"/>
  </clipPath>
  <linearGradient inkscape:collect="always" xlink:href="#linearGradient3760" id="linearGradient3852" gradientUnits="userSpaceOnUse" gradientTransform="matrix(0.92857143,0,0,-0.92857143,-148,292.57143)" y1="280" x2="0" y2="264"/>
  <linearGradient id="linearGradient3760">
   <stop id="stop3762" stop-color="#e44343"/>
   <stop offset="1" id="stop3764" stop-color="#ac0808"/>
  </linearGradient>
  <clipPath id="clipPath4307">
   <path d="m 168,265 c -3.86599,0 -7,3.13401 -7,7 0,3.86599 3.13401,7 7,7 3.866,0 7,-3.13401 7,-7 0,-3.86599 -3.134,-7 -7,-7 z m 3.3125,3.0625 1.5625,1.40625 -5.25,6.9375 -4.0625,-3.5 1.34375,-1.78125 2.375,2.0625 4.03125,-5.125 z" id="path4309"/>
  </clipPath>
  <linearGradient y2="264" x2="0" y1="280" gradientTransform="matrix(0.92857143,0,0,-0.92857143,-123,277.94643)" gradientUnits="userSpaceOnUse" id="linearGradient3082" xlink:href="#linearGradient3760" inkscape:collect="always"/>
  <linearGradient inkscape:collect="always" xlink:href="#linearGradient3760" id="linearGradient3802" y1="0" x2="0" y2="22" gradientUnits="userSpaceOnUse" gradientTransform="translate(1,25)"/>
  <linearGradient inkscape:collect="always" xlink:href="#linearGradient3760" id="linearGradient3814" gradientUnits="userSpaceOnUse" y1="0" x2="0" y2="22"/>
  <radialGradient inkscape:collect="always" xlink:href="#linearGradient3949" id="radialGradient3993" gradientUnits="userSpaceOnUse" gradientTransform="matrix(1,0,0,0.22222222,0,15.555556)" cx="11" cy="20" r="9"/>
  <linearGradient inkscape:collect="always" id="linearGradient3949">
   <stop id="stop3951"/>
   <stop offset="1" id="stop3953" stop-opacity="0"/>
  </linearGradient>
 </defs>
 <metadata id="metadata3500"/>
 <g id="layer1" inkscape:label="Background" inkscape:groupmode="layer" transform="translate(0,-24)">
  <g id="g4507" transform="translate(1,-1)">
   <path d="m 20,20 c 0,1.104569 -4.029437,2 -9,2 -4.9705627,0 -9,-0.895431 -9,-2 0,-1.104569 4.0294373,-2 9,-2 4.970563,0 9,0.895431 9,2 z" sodipodi:ry="2" sodipodi:rx="9" sodipodi:cy="20" sodipodi:cx="11" id="path3163" sodipodi:type="arc" transform="matrix(1,0,0,1.5,0,15)" opacity="0.4" fill="url(#radialGradient3993)"/>
   <path transform="matrix(0.66666667,0,0,1,3.6666666,26)" sodipodi:type="arc" id="path3995" sodipodi:cx="11" sodipodi:cy="20" sodipodi:rx="9" sodipodi:ry="2" d="m 20,20 c 0,1.104569 -4.029437,2 -9,2 -4.9705627,0 -9,-0.895431 -9,-2 0,-1.104569 4.0294373,-2 9,-2 4.970563,0 9,0.895431 9,2 z" opacity="0.8" fill="url(#radialGradient3993)"/>
  </g>
  <path d="m 12,26.5 c -5.2407828,0 -9.5,4.259217 -9.5,9.5 0,5.240782 4.2592171,9.5 9.5,9.5 5.240783,0 9.5,-4.259218 9.5,-9.5 0,-5.240783 -4.259217,-9.5 -9.5,-9.5 z" id="path4791" inkscape:connector-curvature="0" fill="url(#linearGradient3802)" fill-rule="evenodd"/>
  <path id="path3804" d="m 12,26.5 c -5.2407828,0 -9.5,4.259217 -9.5,9.5 0,5.240782 4.2592171,9.5 9.5,9.5 5.240783,0 9.5,-4.259218 9.5,-9.5 0,-5.240783 -4.259217,-9.5 -9.5,-9.5 z" inkscape:connector-curvature="0" opacity="0.81" fill="none" stroke="#790000"/>
  <path d="m 12,27 c -4.9698807,0 -9,4.030119 -9,9 0,0.171541 0.021774,0.330826 0.03125,0.5 C 3.2963002,31.767849 7.2016599,28 12,28 c 4.79834,0 8.7037,3.767849 8.96875,8.5 C 20.978226,36.330826 21,36.171541 21,36 21,31.030119 16.969881,27 12,27 z" id="path3806" inkscape:connector-curvature="0" opacity="0.2" fill="#ffffff" fill-rule="evenodd"/>
  <path id="path3820" d="M 12,46 C 7.0301193,46 3,41.969881 3,37 3,36.828459 3.021774,36.669174 3.03125,36.5 3.2963002,41.232151 7.2016599,45 12,45 16.79834,45 20.7037,41.232151 20.96875,36.5 20.97825,36.669174 21,36.828459 21,37 c 0,4.969881 -4.030119,9 -9,9 z" inkscape:connector-curvature="0" opacity="0.2" fill-rule="evenodd"/>
 </g>
 <g inkscape:groupmode="layer" id="layer2" inkscape:label="Symbol" transform="translate(0,2)">
  <rect y="8" x="7" height="2" width="10" id="rect3854" opacity="0.3"/>
  <rect id="rect3084" width="10" height="2" x="7" y="9" fill="#ffffff"/>
 </g>
</svg>
