<?xml version="1.0" encoding="UTF-8" standalone="no"?>
<svg
   xmlns:dc="http://purl.org/dc/elements/1.1/"
   xmlns:cc="http://creativecommons.org/ns#"
   xmlns:rdf="http://www.w3.org/1999/02/22-rdf-syntax-ns#"
   xmlns:svg="http://www.w3.org/2000/svg"
   xmlns="http://www.w3.org/2000/svg"
   xmlns:xlink="http://www.w3.org/1999/xlink"
   width="24"
   height="24"
   id="svg3495"
   version="1.1">
  <defs
     id="defs3497">
    <linearGradient
       id="linearGradient3760">
      <stop
         style="stop-color:#e44343;stop-opacity:1;"
         offset="0"
         id="stop3762" />
      <stop
         style="stop-color:#ac0808;stop-opacity:1;"
         offset="1"
         id="stop3764" />
    </linearGradient>
    <linearGradient
       xlink:href="#linearGradient3760"
       id="linearGradient3802"
       x1="11"
       y1="0"
       x2="11"
       y2="22"
       gradientUnits="userSpaceOnUse"
       gradientTransform="translate(1,25)" />
    <linearGradient
       id="linearGradient3949">
      <stop
         style="stop-color:#000000;stop-opacity:1;"
         offset="0"
         id="stop3951" />
      <stop
         style="stop-color:#000000;stop-opacity:0;"
         offset="1"
         id="stop3953" />
    </linearGradient>
    <radialGradient
       xlink:href="#linearGradient3949"
       id="radialGradient4569"
       gradientUnits="userSpaceOnUse"
       gradientTransform="matrix(1,0,0,0.22222222,0,15.555556)"
       cx="11"
       cy="20"
       fx="11"
       fy="20"
       r="9" />
    <radialGradient
       xlink:href="#linearGradient3949"
       id="radialGradient4571"
       gradientUnits="userSpaceOnUse"
       gradientTransform="matrix(1,0,0,0.22222222,0,15.555556)"
       cx="11"
       cy="20"
       fx="11"
       fy="20"
       r="9" />
  </defs>
  <metadata
     id="metadata3500">
    <rdf:RDF>
      <cc:Work
         rdf:about="">
        <dc:format>image/svg+xml</dc:format>
        <dc:type
           rdf:resource="http://purl.org/dc/dcmitype/StillImage" />
        <dc:title />
      </cc:Work>
    </rdf:RDF>
  </metadata>
  <g
     id="layer1"
     transform="translate(0,-24)">
    <g
       id="g4507"
       transform="translate(1,-1)">
      <path
         d="m 20,20 c 0,1.104569 -4.029437,2 -9,2 -4.9705627,0 -9,-0.895431 -9,-2 0,-1.104569 4.0294373,-2 9,-2 4.970563,0 9,0.895431 9,2 z"
         id="path3163"
         style="opacity:0.4;fill:url(#radialGradient4569);fill-opacity:1;stroke:none"
         transform="matrix(1,0,0,1.5,0,15)" />
      <path
         transform="matrix(0.66666667,0,0,1,3.6666666,26)"
         style="opacity:0.8;fill:url(#radialGradient4571);fill-opacity:1;stroke:none"
         id="path3995"
         d="m 20,20 c 0,1.104569 -4.029437,2 -9,2 -4.9705627,0 -9,-0.895431 -9,-2 0,-1.104569 4.0294373,-2 9,-2 4.970563,0 9,0.895431 9,2 z" />
    </g>
    <path
       style="fill:url(#linearGradient3802);fill-opacity:1;fill-rule:evenodd;stroke:none"
       d="m 12,26.5 c -5.2407828,0 -9.5,4.259217 -9.5,9.5 0,5.240782 4.2592171,9.5 9.5,9.5 5.240783,0 9.5,-4.259218 9.5,-9.5 0,-5.240783 -4.259217,-9.5 -9.5,-9.5 z"
       id="path4791" />
    <path
       id="path3804"
       d="m 12,26.5 c -5.2407828,0 -9.5,4.259217 -9.5,9.5 0,5.240782 4.2592171,9.5 9.5,9.5 5.240783,0 9.5,-4.259218 9.5,-9.5 0,-5.240783 -4.259217,-9.5 -9.5,-9.5 z"
       style="opacity:0.81000001;fill:none;stroke:#790000;stroke-opacity:1" />
    <path
       style="opacity:0.2;fill:#ffffff;fill-opacity:1;fill-rule:evenodd;stroke:none"
       d="m 12,27 c -4.9698807,0 -9,4.030119 -9,9 0,0.171541 0.021774,0.330826 0.03125,0.5 C 3.2963002,31.767849 7.2016599,28 12,28 c 4.79834,0 8.7037,3.767849 8.96875,8.5 C 20.978226,36.330826 21,36.171541 21,36 21,31.030119 16.969881,27 12,27 z"
       id="path3806" />
    <path
       id="path3820"
       d="M 12,46 C 7.0301193,46 3,41.969881 3,37 3,36.828459 3.021774,36.669174 3.03125,36.5 3.2963002,41.232151 7.2016599,45 12,45 16.79834,45 20.7037,41.232151 20.96875,36.5 20.97825,36.669174 21,36.828459 21,37 c 0,4.969881 -4.030119,9 -9,9 z"
       style="opacity:0.2;fill:#000000;fill-opacity:1;fill-rule:evenodd;stroke:none" />
  </g>
  <g
     id="layer2"
     transform="translate(0,2)">
    <rect
       y="8"
       x="7"
       height="2"
       width="10"
       id="rect3854"
       style="opacity:0.3;fill:#000000;fill-opacity:1;stroke:none" />
    <rect
       style="fill:#ffffff;fill-opacity:1;stroke:none"
       id="rect3084"
       width="10"
       height="2"
       x="7"
       y="9" />
  </g>
</svg>
