<svg xmlns="http://www.w3.org/2000/svg" viewBox="0 0 24 24" xmlns:xlink="http://www.w3.org/1999/xlink"><defs><clipPath><path d="m0 96h96v-96h-96v96"/></clipPath></defs><g transform="translate(1-25)" color="#bebebe"><g transform="matrix(1.2884 0 0 1.2884 43.19-16.791)" fill="#555"><path d="m-26.5 35.5l-6.471 4.5 6.471 4.5v-1.043l-4.971-3.457 4.971-3.457z" id="0"/><path d="m-23.433 35.37l-6.471 4.5 6.471 4.5v-2.5h.499c1.365 0 2.572.873 2.938 2 .438 1.348-1.438 4-1.438 4 0 0 4-1.5 4-4.75 0-3.124-2-5.234-5-5.25h-.999z" id="1"/></g><g transform="matrix(1.2884 0 0 1.2884 43.19-17.791)" opacity=".1" fill="#fff"><use xlink:href="#0"/><use xlink:href="#1"/></g></g></svg>