<?xml version="1.0" encoding="UTF-8" standalone="no"?>
<svg xmlns="http://www.w3.org/2000/svg" xmlns:xlink="http://www.w3.org/1999/xlink" xmlns:sodipodi="http://sodipodi.sourceforge.net/DTD/sodipodi-0.dtd" xmlns:inkscape="http://www.inkscape.org/namespaces/inkscape" version="1.1" width="24" height="24">
 <defs id="defs3830">
  <linearGradient inkscape:collect="always" id="linearGradient3801">
   <stop id="stop3803" stop-color="#ffffff"/>
   <stop offset="1" id="stop3805" stop-color="#ffffff" stop-opacity="0"/>
  </linearGradient>
  <linearGradient id="linearGradient3977">
   <stop id="stop3979" stop-color="#ffffff"/>
   <stop id="stop3981" offset="0.036" stop-color="#ffffff" stop-opacity="0.235"/>
   <stop id="stop3983" offset="0.951" stop-color="#ffffff" stop-opacity="0.157"/>
   <stop id="stop3985" offset="1" stop-color="#ffffff" stop-opacity="0.392"/>
  </linearGradient>
  <linearGradient id="linearGradient3600-4">
   <stop id="stop3602-7" stop-color="#f4f4f4"/>
   <stop id="stop3604-6" offset="1" stop-color="#dbdbdb"/>
  </linearGradient>
  <linearGradient y1="5.564" x2="0" y2="43" id="linearGradient3000" xlink:href="#linearGradient3977" gradientUnits="userSpaceOnUse" gradientTransform="matrix(0.40540511,0,0,0.51351253,1.2696879,-1.32431)"/>
  <linearGradient y1="0.985" x2="0" y2="47.01" id="linearGradient3003" xlink:href="#linearGradient3988-5" gradientUnits="userSpaceOnUse" gradientTransform="matrix(0.48571543,0,0,-0.45629579,0.34282995,21.651132)"/>
  <linearGradient inkscape:collect="always" xlink:href="#linearGradient3988-5" id="linearGradient3158" gradientUnits="userSpaceOnUse" gradientTransform="matrix(0.175,0,0,0.175,-1.20002,-6.0000326)" y1="280" x2="0" y2="40"/>
  <linearGradient id="linearGradient3988-5">
   <stop id="stop3990-5" stop-color="#ededed"/>
   <stop offset="1" id="stop3992-0" stop-color="#fafafa"/>
  </linearGradient>
  <linearGradient inkscape:collect="always" xlink:href="#linearGradient3801" id="linearGradient3807" y1="0" x2="0" y2="22" gradientUnits="userSpaceOnUse" gradientTransform="translate(1,-1)"/>
  <radialGradient inkscape:collect="always" xlink:href="#linearGradient6557" id="radialGradient3981" gradientUnits="userSpaceOnUse" cx="311.47" cy="828.53" r="3.281"/>
  <linearGradient id="linearGradient6557">
   <stop id="stop6559" stop-color="#fce94f"/>
   <stop id="stop6565" offset="0.673" stop-color="#fce94f"/>
   <stop offset="1" id="stop6561" stop-color="#fce94f" stop-opacity="0"/>
  </linearGradient>
  <linearGradient id="linearGradient6620">
   <stop id="stop6622" stop-color="#ffffff"/>
   <stop offset="0.33" id="stop6624" stop-color="#ffffff"/>
   <stop id="stop6626" offset="1" stop-color="#fce94f"/>
  </linearGradient>
  <radialGradient r="3.281" cy="828.53" cx="311.47" gradientUnits="userSpaceOnUse" id="radialGradient4009" xlink:href="#linearGradient6557" inkscape:collect="always"/>
  <radialGradient inkscape:collect="always" xlink:href="#linearGradient6620" id="radialGradient3976" gradientUnits="userSpaceOnUse" gradientTransform="matrix(2.1730275,0,0,1.9594181,-672.25707,-1534.79)" cx="316.09" cy="785.16" r="5.5"/>
  <radialGradient inkscape:collect="always" xlink:href="#linearGradient6633" id="radialGradient3978" gradientUnits="userSpaceOnUse" gradientTransform="matrix(4.5697471,-0.00304895,0,4.2377637,-1400.2274,-3458.4132)" cx="309.37" cy="816.91" r="5.219"/>
  <linearGradient id="linearGradient6633" inkscape:collect="always">
   <stop id="stop6635" stop-color="#edd400"/>
   <stop id="stop6637" offset="1" stop-color="#c4a000"/>
  </linearGradient>
  <radialGradient inkscape:collect="always" xlink:href="#linearGradient3952" id="radialGradient3047" gradientUnits="userSpaceOnUse" gradientTransform="matrix(1,0,0,0.75,-21,12.875)" cx="40" cy="43.5" r="2"/>
  <linearGradient inkscape:collect="always" id="linearGradient3952">
   <stop id="stop3954"/>
   <stop offset="1" id="stop3956" stop-opacity="0"/>
  </linearGradient>
  <radialGradient inkscape:collect="always" xlink:href="#linearGradient3952" id="radialGradient3049" gradientUnits="userSpaceOnUse" gradientTransform="matrix(1,0,0,0.75,-6,12.875)" cx="9" cy="43.5" r="2"/>
  <linearGradient inkscape:collect="always" xlink:href="#linearGradient3960" id="linearGradient3051" gradientUnits="userSpaceOnUse" gradientTransform="matrix(1.1428571,0,0,1,-11.857143,2)" y1="45" x2="0" y2="42"/>
  <linearGradient id="linearGradient3960">
   <stop id="stop3962" stop-opacity="0"/>
   <stop id="stop3970" offset="0.5"/>
   <stop offset="1" id="stop3964" stop-opacity="0"/>
  </linearGradient>
  <linearGradient inkscape:collect="always" xlink:href="#linearGradient3960" id="linearGradient3194" gradientUnits="userSpaceOnUse" gradientTransform="translate(-9,-23)" y1="45" x2="0" y2="42"/>
  <radialGradient inkscape:collect="always" xlink:href="#linearGradient3952" id="radialGradient3197" gradientUnits="userSpaceOnUse" gradientTransform="matrix(1,0,0,0.75,-5,-12.125)" cx="9" cy="43.5" r="2"/>
  <radialGradient inkscape:collect="always" xlink:href="#linearGradient3952" id="radialGradient3200" gradientUnits="userSpaceOnUse" gradientTransform="matrix(1,0,0,0.75,-22,-12.125)" cx="40" cy="43.5" r="2"/>
  <linearGradient inkscape:collect="always" xlink:href="#linearGradient3960" id="linearGradient3059" gradientUnits="userSpaceOnUse" gradientTransform="translate(-11,-24.5)" y1="45" x2="0" y2="42"/>
  <radialGradient inkscape:collect="always" xlink:href="#linearGradient3952" id="radialGradient3062" gradientUnits="userSpaceOnUse" gradientTransform="matrix(1,0,0,0.75,-7,-13.625)" cx="9" cy="43.5" r="2"/>
  <radialGradient inkscape:collect="always" xlink:href="#linearGradient3952" id="radialGradient3065" gradientUnits="userSpaceOnUse" gradientTransform="matrix(1,0,0,0.75,-20,-13.625)" cx="40" cy="43.5" r="2"/>
 </defs>
 <metadata id="metadata3833"/>
 <g inkscape:groupmode="layer" id="layer1" inkscape:label="Background" transform="translate(0,2)">
  <g id="g3067" transform="translate(1,-1)">
   <path inkscape:connector-curvature="0" id="rect3940" d="m 20,17.5 0,3 0.5,0 c 0.831,0 1.5,-0.669 1.5,-1.5 0,-0.831 -0.669,-1.5 -1.5,-1.5 l -0.5,0 z" opacity="0.2" fill="url(#radialGradient3065)"/>
   <path inkscape:connector-curvature="0" id="rect3942" d="M 1.40625,17.5 C 0.6271875,17.5 0,18.127187 0,18.90625 l 0,0.1875 C 0,19.872813 0.6271875,20.5 1.40625,20.5 L 2,20.5 l 0,-3 -0.59375,0 z" opacity="0.2" fill="url(#radialGradient3062)"/>
   <path sodipodi:nodetypes="ccccc" inkscape:connector-curvature="0" id="rect3938" d="m 2,17.5 18,0 0,3 -18,0 z" opacity="0.2" fill="url(#linearGradient3059)"/>
  </g>
  <path d="m 2.499963,2.499961 c 0,3.8955809 0.0014,15.000059 0.0014,15.000059 l 18.998676,2.1e-5 c 0,0 0,-9.3333863 0,-15.00008 -7.000005,0 -12.000008,0 -19.000014,0 z" inkscape:connector-curvature="0" id="path4160-3" sodipodi:nodetypes="ccccsc" fill="url(#linearGradient3003)"/>
  <path d="m 21.500039,2.4999609 c 0,3.8955809 -0.0014,15.0000591 -0.0014,15.0000591 l -18.9986761,2.1e-5 c 0,0 0,-9.3333864 0,-15.0000801 7.000005,0 12.0000081,0 19.0000141,0 z" inkscape:connector-curvature="0" id="path4160-3-5" sodipodi:nodetypes="ccccsc" opacity="0.41" fill="none" stroke="#000000" stroke-linejoin="round"/>
  <path d="m 3,3 0,1 c 4.1579948,7.52e-5 17.292656,-7.52e-5 18,0 L 21,3 C 20.292656,2.9999248 7.1579948,3.0000752 3,3 z" id="path3780" inkscape:connector-curvature="0" sodipodi:nodetypes="ccccc" opacity="0.4" fill="#ffffff"/>
  <path d="M 3,3 3,17 21,17 21,3 z M 4,4 20,4 20,16 4,16 z" id="rect3796" inkscape:connector-curvature="0" sodipodi:nodetypes="cccccccccc" opacity="0.4" fill="url(#linearGradient3807)"/>
  <path d="m 4.6623614,5.0457523 a 0.2142589,0.2142589 0 0 0 -0.02678,0.02678 0.2142589,0.2142589 0 0 0 -0.053559,0.02678 0.2142589,0.2142589 0 0 0 -0.02678,0.02678 0.2142589,0.2142589 0 0 0 -0.02678,0.02678 0.2142589,0.2142589 0 0 0 -0.02678,0.053559 0.2142589,0.2142589 0 0 0 0,0.053559 0.2142589,0.2142589 0 0 0 0,0.053559 0.2142589,0.2142589 0 0 0 0.053559,0.080339 0.2142589,0.2142589 0 0 0 0.02678,0.02678 l 4.9274618,4.6596647 -4.579326,4.498987 a 0.2142589,0.2142589 0 0 0 -0.02678,0.02679 0.2142589,0.2142589 0 0 0 -0.02678,0.05356 0.2142589,0.2142589 0 0 0 0,0.05356 0.2142589,0.2142589 0 0 0 0,0.05356 0.2142589,0.2142589 0 0 0 0.02678,0.08034 0.2142589,0.2142589 0 0 0 0.080339,0.08034 0.2142589,0.2142589 0 0 0 0.053559,0.02678 0.2142589,0.2142589 0 0 0 0.053559,0 0.2142589,0.2142589 0 0 0 0.080339,-0.02678 0.2142589,0.2142589 0 0 0 0.053559,-0.02678 l 4.8739028,-4.311529 1.526442,1.312204 0.241017,0.187458 a 0.2142589,0.2142589 0 0 0 0.02678,0.02678 0.2142589,0.2142589 0 0 0 0.05356,0.02679 0.2142589,0.2142589 0 0 0 0.05356,0 0.2142589,0.2142589 0 0 0 0.05356,0 0.2142589,0.2142589 0 0 0 0.05356,-0.02679 0.2142589,0.2142589 0 0 0 0.02678,-0.02678 l 0.241017,-0.187458 1.526442,-1.312204 4.873902,4.311529 a 0.2142589,0.2142589 0 0 0 0.02678,0.02678 0.2142589,0.2142589 0 0 0 0.05356,0.02678 0.2142589,0.2142589 0 0 0 0.02678,0 0.2142589,0.2142589 0 0 0 0.05356,0 0.2142589,0.2142589 0 0 0 0.05356,-0.02678 0.2142589,0.2142589 0 0 0 0.05356,-0.02678 0.2142589,0.2142589 0 0 0 0.05356,-0.05356 0.2142589,0.2142589 0 0 0 0.02678,-0.107118 0.2142589,0.2142589 0 0 0 0,-0.05356 0.2142589,0.2142589 0 0 0 0,-0.02678 0.2142589,0.2142589 0 0 0 -0.05356,-0.05356 0.2142589,0.2142589 0 0 0 0,-0.02679 L 14.490508,10.080335 19.41797,5.4206707 a 0.2142589,0.2142589 0 0 0 0.02679,-0.02678 0.2142589,0.2142589 0 0 0 0.02678,-0.02678 0.2142589,0.2142589 0 0 0 0.02678,-0.080339 0.2142589,0.2142589 0 0 0 0,-0.02678 0.2142589,0.2142589 0 0 0 0,-0.053559 0.2142589,0.2142589 0 0 0 -0.02678,-0.053559 0.2142589,0.2142589 0 0 0 -0.02678,-0.02678 0.2142589,0.2142589 0 0 0 -0.02679,-0.02678 0.2142589,0.2142589 0 0 0 -0.02678,-0.02678 0.2142589,0.2142589 0 0 0 -0.08033,-0.02678 0.2142589,0.2142589 0 0 0 -0.05356,0 0.2142589,0.2142589 0 0 0 -0.05356,0.02678 0.2142589,0.2142589 0 0 0 -0.05356,0.02678 L 11.999995,10.696265 4.8498192,5.0993117 a 0.2142589,0.2142589 0 0 0 -0.02678,-0.02678 0.2142589,0.2142589 0 0 0 -0.080339,-0.02678 0.2142589,0.2142589 0 0 0 -0.053559,0 0.2142589,0.2142589 0 0 0 -0.02678,0 z" id="path3886" inkscape:connector-curvature="0" opacity="0.4" color="#000000"/>
 </g>
 <g inkscape:groupmode="layer" id="layer2" inkscape:label="Symbol" transform="translate(0,2)">
  <g transform="translate(3.0000003,-1.9999682)" id="g3064">
   <path sodipodi:type="arc" id="path5780" sodipodi:cx="311.46875" sodipodi:cy="828.53125" sodipodi:rx="3.28125" sodipodi:ry="3.28125" d="m 314.75,828.53125 c 0,1.81218 -1.46907,3.28125 -3.28125,3.28125 -1.81218,0 -3.28125,-1.46907 -3.28125,-3.28125 0,-1.81218 1.46907,-3.28125 3.28125,-3.28125 1.81218,0 3.28125,1.46907 3.28125,3.28125 z" transform="matrix(2.1333337,0,0,1.9809524,-648.46678,-1634.781)" fill="url(#radialGradient4009)" fill-rule="evenodd"/>
   <path inkscape:connector-curvature="0" sodipodi:nodetypes="ccccscccscccscccsccccc" id="path5784" d="m 16.545272,0.63453177 c -0.58763,-0.27486 -1.28757,-0.0285 -1.572258,0.55351003 l -0.920134,2.16764 -2.025459,0.26363 c -0.443965,0.0691 -0.810897,0.38217 -0.948243,0.80908 -0.137377,0.42691 -0.02168,0.89462 0.298959,1.20872 l 1.419375,1.41193 -0.367692,1.97449 c -0.09463,0.44908 0.07896,0.91233 0.445583,1.1893602 0.366618,0.277 0.860509,0.31805 1.268033,0.10538 l 1.850134,-0.9319202 1.756819,0.9524502 c 0.396721,0.21052 0.878528,0.17975 1.245107,-0.0795 0.366589,-0.25925 0.555259,-0.7027002 0.487601,-1.1459802 l -0.330966,-1.9869 1.461851,-1.42358 c 0.329231,-0.3166 0.447198,-0.79363 0.303416,-1.22673 -0.143783,-0.4331 -0.523856,-0.74547 -0.977393,-0.80331 l -1.991315,-0.29303 -0.832771,-2.16171 C 17.00077,0.96239177 16.798605,0.75566177 16.545272,0.63457177 l 0,0 0,-10e-6 z" fill="url(#radialGradient3976)" fill-rule="evenodd" stroke="url(#radialGradient3978)" stroke-linejoin="round" stroke-linecap="round" stroke-width="1.045" stroke-dashoffset="0.361"/>
  </g>
 </g>
</svg>
