<svg xmlns="http://www.w3.org/2000/svg" viewBox="0 0 24 24"><defs><clipPath><path d="m0 96h96v-96h-96v96"/></clipPath></defs><g transform="translate(1-25)" color="#bebebe"><g fill="#555"><path d="m12.951 28.948l8.337 5.798-8.337 5.798v-1.344l6.404-4.454-6.404-4.454z"/><path d="m9 28.779l8.337 5.798-8.337 5.798v-3.221h-.643c-1.759 0-3.313 1.125-3.785 2.577-.564 1.736 1.852 5.154 1.852 5.154 0 0-5.154-1.933-5.154-6.12 0-4.02 2.577-6.764 6.442-6.764h1.287z"/></g><g fill="#fff"><path d="m12.951 27.948l8.337 5.798-8.337 5.798v-1.344l6.404-4.454-6.404-4.454z" opacity=".1"/><path d="m9 27.779l8.337 5.798-8.337 5.798v-3.221h-.643c-1.759 0-3.313 1.125-3.785 2.577-.564 1.736 1.852 5.154 1.852 5.154 0 0-5.154-1.933-5.154-6.12 0-4.02 2.577-6.764 6.442-6.764h1.287z" opacity=".1"/></g></g></svg>