<svg xmlns="http://www.w3.org/2000/svg" viewBox="0 0 24 24"><defs><clipPath><path d="m0 96h96v-96h-96v96"/></clipPath></defs><g transform="translate(1-25)" color="#bebebe"><path d="m10 28.779l-8.337 5.798 8.337 5.798v-3.221h2.577c1.759 0 3.313 1.125 3.785 2.577.564 1.736-1.852 5.154-1.852 5.154 0 0 5.154-1.933 5.154-6.12 0-4.02-2.577-6.815-6.442-6.764h-3.221z" fill="#555"/><path d="m10 27.779l-8.337 5.798 8.337 5.798v-3.221h2.577c1.759 0 3.313 1.125 3.785 2.577.564 1.736-1.852 5.154-1.852 5.154 0 0 5.154-1.933 5.154-6.12 0-4.02-2.577-6.815-6.442-6.764h-3.221z" opacity=".1" fill="#fff"/></g></svg>