<?xml version="1.0" encoding="UTF-8" standalone="no"?>
<svg
   xmlns:dc="http://purl.org/dc/elements/1.1/"
   xmlns:cc="http://creativecommons.org/ns#"
   xmlns:rdf="http://www.w3.org/1999/02/22-rdf-syntax-ns#"
   xmlns:svg="http://www.w3.org/2000/svg"
   xmlns="http://www.w3.org/2000/svg"
   xmlns:xlink="http://www.w3.org/1999/xlink"
   id="svg3828"
   height="24"
   width="24"
   version="1.1">
  <defs
     id="defs3830">
    <linearGradient
       id="linearGradient3801">
      <stop
         id="stop3803"
         offset="0"
         style="stop-color:#ffffff;stop-opacity:1;" />
      <stop
         id="stop3805"
         offset="1"
         style="stop-color:#ffffff;stop-opacity:0;" />
    </linearGradient>
    <linearGradient
       gradientTransform="matrix(0.48571543,0,0,-0.45629579,0.34282995,21.651132)"
       gradientUnits="userSpaceOnUse"
       xlink:href="#linearGradient3988-5"
       id="linearGradient3003"
       y2="47.013336"
       x2="25.132275"
       y1="0.98520643"
       x1="25.132275" />
    <linearGradient
       id="linearGradient3988-5">
      <stop
         id="stop3990-5"
         offset="0"
         style="stop-color:#ededed;stop-opacity:1;" />
      <stop
         id="stop3992-0"
         offset="1"
         style="stop-color:#fafafa;stop-opacity:1;" />
    </linearGradient>
    <linearGradient
       gradientTransform="translate(1,-1)"
       gradientUnits="userSpaceOnUse"
       y2="22"
       x2="10"
       y1="0"
       x1="10"
       id="linearGradient3807"
       xlink:href="#linearGradient3801" />
    <radialGradient
       xlink:href="#linearGradient6557-4"
       id="radialGradient4009"
       gradientUnits="userSpaceOnUse"
       cx="311.46875"
       cy="828.53125"
       fx="311.46875"
       fy="828.53125"
       r="3.28125" />
    <linearGradient
       id="linearGradient6557-4">
      <stop
         id="stop6559-2"
         offset="0"
         style="stop-color:#fce94f;stop-opacity:1;" />
      <stop
         style="stop-color:#fce94f;stop-opacity:1"
         offset="0.67301035"
         id="stop6565-2" />
      <stop
         id="stop6561-7"
         offset="1"
         style="stop-color:#fce94f;stop-opacity:0;" />
    </linearGradient>
    <linearGradient
       id="linearGradient6620-1">
      <stop
         style="stop-color:#ffffff;stop-opacity:1"
         offset="0"
         id="stop6622-7" />
      <stop
         id="stop6624-4"
         offset="0.32992947"
         style="stop-color:#ffffff;stop-opacity:1" />
      <stop
         style="stop-color:#fce94f;stop-opacity:1"
         offset="1"
         id="stop6626-5" />
    </linearGradient>
    <linearGradient
       id="linearGradient6633">
      <stop
         style="stop-color:#edd400;stop-opacity:1"
         offset="0"
         id="stop6635" />
      <stop
         style="stop-color:#c4a000;stop-opacity:1"
         offset="1"
         id="stop6637" />
    </linearGradient>
    <radialGradient
       xlink:href="#linearGradient6620-1"
       id="radialGradient3095"
       gradientUnits="userSpaceOnUse"
       gradientTransform="matrix(2.1730275,0,0,1.9594181,-672.25707,-1534.79)"
       cx="316.08578"
       cy="785.15662"
       fx="316.08578"
       fy="785.15662"
       r="5.4999967" />
    <radialGradient
       xlink:href="#linearGradient6633"
       id="radialGradient3097"
       gradientUnits="userSpaceOnUse"
       gradientTransform="matrix(4.5697471,-0.00304895,0,4.2377637,-1400.2274,-3458.4132)"
       cx="309.36545"
       cy="816.90698"
       fx="309.36545"
       fy="816.90698"
       r="5.2188735" />
    <linearGradient
       id="linearGradient3952">
      <stop
         id="stop3954"
         offset="0"
         style="stop-color:#000000;stop-opacity:1;" />
      <stop
         id="stop3956"
         offset="1"
         style="stop-color:#000000;stop-opacity:0;" />
    </linearGradient>
    <linearGradient
       id="linearGradient3944">
      <stop
         id="stop3946"
         offset="0"
         style="stop-color:#000000;stop-opacity:1;" />
      <stop
         id="stop3948"
         offset="1"
         style="stop-color:#000000;stop-opacity:0;" />
    </linearGradient>
    <linearGradient
       id="linearGradient3960">
      <stop
         id="stop3962"
         offset="0"
         style="stop-color:#000000;stop-opacity:0;" />
      <stop
         style="stop-color:#000000;stop-opacity:1;"
         offset="0.5"
         id="stop3970" />
      <stop
         id="stop3964"
         offset="1"
         style="stop-color:#000000;stop-opacity:0;" />
    </linearGradient>
    <linearGradient
       y2="42"
       x2="25"
       y1="45"
       x1="25"
       gradientTransform="translate(-11,-24.5)"
       gradientUnits="userSpaceOnUse"
       id="linearGradient3059"
       xlink:href="#linearGradient3960" />
    <radialGradient
       r="2"
       fy="43.5"
       fx="9"
       cy="43.5"
       cx="9"
       gradientTransform="matrix(1,0,0,0.75,-7,-13.625)"
       gradientUnits="userSpaceOnUse"
       id="radialGradient3062"
       xlink:href="#linearGradient3944" />
    <radialGradient
       r="2"
       fy="43.5"
       fx="40"
       cy="43.5"
       cx="40"
       gradientTransform="matrix(1,0,0,0.75,-20,-13.625)"
       gradientUnits="userSpaceOnUse"
       id="radialGradient3065"
       xlink:href="#linearGradient3952" />
  </defs>
  <metadata
     id="metadata3833">
    <rdf:RDF>
      <cc:Work
         rdf:about="">
        <dc:format>image/svg+xml</dc:format>
        <dc:type
           rdf:resource="http://purl.org/dc/dcmitype/StillImage" />
        <dc:title />
      </cc:Work>
    </rdf:RDF>
  </metadata>
  <g
     transform="translate(0,2)"
     style="display:inline"
     id="layer1">
    <g
       transform="translate(1,-1)"
       id="g3067">
      <path
         style="opacity:0.2;fill:url(#radialGradient3065);fill-opacity:1;stroke:none"
         d="m 20,17.5 0,3 0.5,0 c 0.831,0 1.5,-0.669 1.5,-1.5 0,-0.831 -0.669,-1.5 -1.5,-1.5 l -0.5,0 z"
         id="rect3940" />
      <path
         style="opacity:0.2;fill:url(#radialGradient3062);fill-opacity:1;stroke:none"
         d="M 1.40625,17.5 C 0.6271875,17.5 0,18.127187 0,18.90625 l 0,0.1875 C 0,19.872813 0.6271875,20.5 1.40625,20.5 L 2,20.5 l 0,-3 -0.59375,0 z"
         id="rect3942" />
      <path
         style="opacity:0.2;fill:url(#linearGradient3059);fill-opacity:1;stroke:none"
         d="m 2,17.5 18,0 0,3 -18,0 z"
         id="rect3938" />
    </g>
    <path
       style="fill:url(#linearGradient3003);fill-opacity:1;stroke:none;display:inline"
       id="path4160-3"
       d="m 2.499963,2.499961 c 0,3.8955809 0.0014,15.000059 0.0014,15.000059 l 18.998676,2.1e-5 c 0,0 0,-9.3333863 0,-15.00008 -7.000005,0 -12.000008,0 -19.000014,0 z" />
    <path
       style="opacity:0.41000001;fill:none;stroke:#000000;stroke-width:0.99992186;stroke-linecap:butt;stroke-linejoin:round;stroke-miterlimit:4;stroke-opacity:1;stroke-dasharray:none;stroke-dashoffset:0;display:inline"
       id="path4160-3-5"
       d="m 21.500039,2.4999609 c 0,3.8955809 -0.0014,15.0000591 -0.0014,15.0000591 l -18.9986761,2.1e-5 c 0,0 0,-9.3333864 0,-15.0000801 7.000005,0 12.0000081,0 19.0000141,0 z" />
    <path
       id="path3780"
       d="m 3,3 0,1 c 4.1579948,7.52e-5 17.292656,-7.52e-5 18,0 L 21,3 C 20.292656,2.9999248 7.1579948,3.0000752 3,3 z"
       style="opacity:0.4;fill:#ffffff;fill-opacity:1;stroke:none;display:inline" />
    <path
       id="rect3796"
       d="M 3,3 3,17 21,17 21,3 z M 4,4 20,4 20,16 4,16 z"
       style="opacity:0.4;fill:url(#linearGradient3807);fill-opacity:1" />
    <path
       id="path3886"
       d="m 4.6623614,5.0457523 a 0.2142589,0.2142589 0 0 0 -0.02678,0.02678 0.2142589,0.2142589 0 0 0 -0.053559,0.02678 0.2142589,0.2142589 0 0 0 -0.02678,0.02678 0.2142589,0.2142589 0 0 0 -0.02678,0.02678 0.2142589,0.2142589 0 0 0 -0.02678,0.053559 0.2142589,0.2142589 0 0 0 0,0.053559 0.2142589,0.2142589 0 0 0 0,0.053559 0.2142589,0.2142589 0 0 0 0.053559,0.080339 0.2142589,0.2142589 0 0 0 0.02678,0.02678 l 4.9274618,4.6596647 -4.579326,4.498987 a 0.2142589,0.2142589 0 0 0 -0.02678,0.02679 0.2142589,0.2142589 0 0 0 -0.02678,0.05356 0.2142589,0.2142589 0 0 0 0,0.05356 0.2142589,0.2142589 0 0 0 0,0.05356 0.2142589,0.2142589 0 0 0 0.02678,0.08034 0.2142589,0.2142589 0 0 0 0.080339,0.08034 0.2142589,0.2142589 0 0 0 0.053559,0.02678 0.2142589,0.2142589 0 0 0 0.053559,0 0.2142589,0.2142589 0 0 0 0.080339,-0.02678 0.2142589,0.2142589 0 0 0 0.053559,-0.02678 l 4.8739028,-4.311529 1.526442,1.312204 0.241017,0.187458 a 0.2142589,0.2142589 0 0 0 0.02678,0.02678 0.2142589,0.2142589 0 0 0 0.05356,0.02679 0.2142589,0.2142589 0 0 0 0.05356,0 0.2142589,0.2142589 0 0 0 0.05356,0 0.2142589,0.2142589 0 0 0 0.05356,-0.02679 0.2142589,0.2142589 0 0 0 0.02678,-0.02678 l 0.241017,-0.187458 1.526442,-1.312204 4.873902,4.311529 a 0.2142589,0.2142589 0 0 0 0.02678,0.02678 0.2142589,0.2142589 0 0 0 0.05356,0.02678 0.2142589,0.2142589 0 0 0 0.02678,0 0.2142589,0.2142589 0 0 0 0.05356,0 0.2142589,0.2142589 0 0 0 0.05356,-0.02678 0.2142589,0.2142589 0 0 0 0.05356,-0.02678 0.2142589,0.2142589 0 0 0 0.05356,-0.05356 0.2142589,0.2142589 0 0 0 0.02678,-0.107118 0.2142589,0.2142589 0 0 0 0,-0.05356 0.2142589,0.2142589 0 0 0 0,-0.02678 0.2142589,0.2142589 0 0 0 -0.05356,-0.05356 0.2142589,0.2142589 0 0 0 0,-0.02679 L 14.490508,10.080335 19.41797,5.4206707 a 0.2142589,0.2142589 0 0 0 0.02679,-0.02678 0.2142589,0.2142589 0 0 0 0.02678,-0.02678 0.2142589,0.2142589 0 0 0 0.02678,-0.080339 0.2142589,0.2142589 0 0 0 0,-0.02678 0.2142589,0.2142589 0 0 0 0,-0.053559 0.2142589,0.2142589 0 0 0 -0.02678,-0.053559 0.2142589,0.2142589 0 0 0 -0.02678,-0.02678 0.2142589,0.2142589 0 0 0 -0.02679,-0.02678 0.2142589,0.2142589 0 0 0 -0.02678,-0.02678 0.2142589,0.2142589 0 0 0 -0.08033,-0.02678 0.2142589,0.2142589 0 0 0 -0.05356,0 0.2142589,0.2142589 0 0 0 -0.05356,0.02678 0.2142589,0.2142589 0 0 0 -0.05356,0.02678 L 11.999995,10.696265 4.8498192,5.0993117 a 0.2142589,0.2142589 0 0 0 -0.02678,-0.02678 0.2142589,0.2142589 0 0 0 -0.080339,-0.02678 0.2142589,0.2142589 0 0 0 -0.053559,0 0.2142589,0.2142589 0 0 0 -0.02678,0 z"
       style="font-size:medium;font-style:normal;font-variant:normal;font-weight:normal;font-stretch:normal;text-indent:0;text-align:start;text-decoration:none;line-height:normal;letter-spacing:normal;word-spacing:normal;text-transform:none;direction:ltr;block-progression:tb;writing-mode:lr-tb;text-anchor:start;baseline-shift:baseline;opacity:0.4;color:#000000;fill:#000000;fill-opacity:1;stroke:none;stroke-width:1px;marker:none;visibility:visible;display:inline;overflow:visible;enable-background:accumulate;font-family:Sans;-inkscape-font-specification:Sans" />
  </g>
  <g
     transform="translate(0,2)"
     id="layer2">
    <g
       id="g3064"
       transform="translate(3.0000003,-1.9999682)">
      <path
         transform="matrix(2.1333337,0,0,1.9809524,-648.46678,-1634.781)"
         d="m 314.75,828.53125 c 0,1.81218 -1.46907,3.28125 -3.28125,3.28125 -1.81218,0 -3.28125,-1.46907 -3.28125,-3.28125 0,-1.81218 1.46907,-3.28125 3.28125,-3.28125 1.81218,0 3.28125,1.46907 3.28125,3.28125 z"
         id="path5780"
         style="fill:url(#radialGradient4009);fill-opacity:1;fill-rule:evenodd;stroke:none" />
      <path
         style="fill:url(#radialGradient3095);fill-opacity:1;fill-rule:evenodd;stroke:url(#radialGradient3097);stroke-width:1.04452038;stroke-linecap:round;stroke-linejoin:round;stroke-miterlimit:4;stroke-opacity:1;stroke-dashoffset:0.3612;display:inline"
         d="m 16.545272,0.63453177 c -0.58763,-0.27486 -1.28757,-0.0285 -1.572258,0.55351003 l -0.920134,2.16764 -2.025459,0.26363 c -0.443965,0.0691 -0.810897,0.38217 -0.948243,0.80908 -0.137377,0.42691 -0.02168,0.89462 0.298959,1.20872 l 1.419375,1.41193 -0.367692,1.97449 c -0.09463,0.44908 0.07896,0.91233 0.445583,1.1893602 0.366618,0.277 0.860509,0.31805 1.268033,0.10538 l 1.850134,-0.9319202 1.756819,0.9524502 c 0.396721,0.21052 0.878528,0.17975 1.245107,-0.0795 0.366589,-0.25925 0.555259,-0.7027002 0.487601,-1.1459802 l -0.330966,-1.9869 1.461851,-1.42358 c 0.329231,-0.3166 0.447198,-0.79363 0.303416,-1.22673 -0.143783,-0.4331 -0.523856,-0.74547 -0.977393,-0.80331 l -1.991315,-0.29303 -0.832771,-2.16171 C 17.00077,0.96239177 16.798605,0.75566177 16.545272,0.63457177 l 0,0 0,-10e-6 z"
         id="path5784" />
    </g>
  </g>
</svg>
