<?xml version="1.0" encoding="UTF-8" standalone="no"?>
<svg
   xmlns:dc="http://purl.org/dc/elements/1.1/"
   xmlns:cc="http://creativecommons.org/ns#"
   xmlns:rdf="http://www.w3.org/1999/02/22-rdf-syntax-ns#"
   xmlns:svg="http://www.w3.org/2000/svg"
   xmlns="http://www.w3.org/2000/svg"
   xmlns:xlink="http://www.w3.org/1999/xlink"
   version="1.1"
   id="svg3495"
   height="24"
   width="24">
  <defs
     id="defs3497">
    <linearGradient
       id="linearGradient3774">
      <stop
         id="stop3776"
         offset="0"
         style="stop-color:#000000;stop-opacity:1;" />
      <stop
         id="stop3778"
         offset="1"
         style="stop-color:#000000;stop-opacity:0;" />
    </linearGradient>
    <linearGradient
       id="linearGradient3798">
      <stop
         id="stop3800"
         offset="0"
         style="stop-color:#ffffff;stop-opacity:1;" />
      <stop
         id="stop3802"
         offset="1"
         style="stop-color:#ffffff;stop-opacity:0;" />
    </linearGradient>
    <linearGradient
       id="linearGradient3767">
      <stop
         id="stop3769"
         offset="0"
         style="stop-color:#000000;stop-opacity:1;" />
      <stop
         id="stop3771"
         offset="1"
         style="stop-color:#000000;stop-opacity:0;" />
    </linearGradient>
    <linearGradient
       id="linearGradient3757">
      <stop
         id="stop3759"
         offset="0"
         style="stop-color:#dddddd;stop-opacity:1;" />
      <stop
         id="stop3761"
         offset="1"
         style="stop-color:#ebebeb;stop-opacity:1;" />
    </linearGradient>
    <linearGradient
       gradientTransform="translate(0.51386413,-1)"
       gradientUnits="userSpaceOnUse"
       y2="28"
       x2="12"
       y1="48"
       x1="12"
       id="linearGradient3763"
       xlink:href="#linearGradient3757" />
    <linearGradient
       gradientTransform="translate(0.51386413,-1)"
       gradientUnits="userSpaceOnUse"
       y2="42"
       x2="2"
       y1="33"
       x1="17"
       id="linearGradient3773"
       xlink:href="#linearGradient3767" />
    <linearGradient
       gradientTransform="translate(1,25)"
       gradientUnits="userSpaceOnUse"
       y2="7"
       x2="17"
       y1="14"
       x1="5"
       id="linearGradient3806"
       xlink:href="#linearGradient3798" />
    <radialGradient
       gradientUnits="userSpaceOnUse"
       gradientTransform="matrix(1,0,0,0.23529412,0,13.764706)"
       r="8.5"
       fy="18"
       fx="10.5"
       cy="18"
       cx="10.5"
       id="radialGradient3780"
       xlink:href="#linearGradient3774" />
  </defs>
  <metadata
     id="metadata3500">
    <rdf:RDF>
      <cc:Work
         rdf:about="">
        <dc:format>image/svg+xml</dc:format>
        <dc:type
           rdf:resource="http://purl.org/dc/dcmitype/StillImage" />
        <dc:title />
      </cc:Work>
    </rdf:RDF>
  </metadata>
  <g
     transform="translate(0,-24)"
     id="layer1">
    <path
       transform="translate(1,25)"
       d="M 19,18 A 8.5,2 0 1 1 2,18 8.5,2 0 1 1 19,18 z"
       id="path3003"
       style="opacity:0.2;fill:url(#radialGradient3780);fill-opacity:1;stroke:none" />
    <path
       id="path6400"
       d="m 21.763866,29.535156 -20.000002,4.179688 3.7499998,2.929688 0,5.820312 4.375,-2.5 0,0 -1.25,-1.367188 5.0390692,3.632812 z"
       style="fill:url(#linearGradient3763);fill-opacity:1;stroke:none;display:inline;enable-background:new" />
    <path
       style="opacity:0.61000001;fill:url(#linearGradient3773);fill-opacity:1;stroke:none;display:inline;enable-background:new"
       d="m 19.966988,30.746094 -11.0546909,7.03125 -1.0937444,1.640624 -2.0546889,1.539064 0,-4.429688 z"
       id="path3755" />
    <path
       style="opacity:0.41000001;fill:none;stroke:#000000;stroke-opacity:1;display:inline;enable-background:new"
       d="m 21.763866,29.535156 -20.000002,4.179688 3.7499998,2.929688 0,5.820312 3.125,-3.867188 0,0 0,0 5.0390692,3.632812 z"
       id="path3765" />
    <path
       style="opacity:0.41000001;fill:none;stroke:#ffffff;stroke-width:1px;stroke-linecap:round;stroke-linejoin:miter;stroke-opacity:1"
       d="M 6.5138638,35.71875 17.513866,32"
       id="path3781" />
    <path
       id="path3783"
       d="m 20.71875,30.28125 -0.75,0.15625 L 13.53125,40.5 8.9375,37.1875 8.5625,36.90625 8.25,37.28125 6,40.0625 l 0,1 2.25,-2.78125 0.3125,-0.375 0.375,0.28125 4.59375,3.3125 7.1875,-11.21875 z m -16.78125,3.5 -1,0.21875 2.875,2.25 0.1875,0.15625 0,-0.75 0,-0.25 L 5.8125,35.25 3.9375,33.78125 z m 5.03125,5.6875 -0.75,0.46875 -1.5,1.84375 3.03125,-1.75 -0.78125,-0.5625 z"
       style="fill:url(#linearGradient3806);fill-opacity:1;stroke:none;display:inline;enable-background:new" />
    <path
       id="path3808"
       d="M 5,43.875 8.7156746,39.267859 10.5625,40.625 z"
       style="opacity:0.3;fill:#000000;fill-opacity:1;stroke:none" />
  </g>
</svg>
