<?xml version="1.0" encoding="UTF-8" standalone="no"?>
<svg xmlns="http://www.w3.org/2000/svg" xmlns:xlink="http://www.w3.org/1999/xlink" xmlns:sodipodi="http://sodipodi.sourceforge.net/DTD/sodipodi-0.dtd" xmlns:inkscape="http://www.inkscape.org/namespaces/inkscape" width="24" height="24" version="1.1">
 <defs id="defs3497">
  <linearGradient id="linearGradient3865">
   <stop id="stop3867" stop-color="#555555"/>
   <stop offset="1" id="stop3869" stop-color="#666666"/>
  </linearGradient>
  <clipPath id="clipPath3669">
   <path d="M 0,96 96,96 96,0 0,0 0,96 z" id="path3671"/>
  </clipPath>
  <linearGradient inkscape:collect="always" xlink:href="#linearGradient3865" id="linearGradient3871" y1="48" x2="0" y2="26" gradientUnits="userSpaceOnUse" gradientTransform="matrix(-1,0,0,1,23,-1)"/>
 </defs>
 <metadata id="metadata3500"/>
 <g id="layer1" inkscape:label="Layer 1" inkscape:groupmode="layer" transform="translate(0,-24)">
  <path d="M 13.5,30.15625 12.75,30.5625 4.5,35.15625 4.5,31 l 0,-0.5 -0.5,0 -2,0 -0.5,0 0,0.5 0,10 0,0.5 0.5,0 2,0 0.5,0 0,-0.5 0,-4.15625 8.25,4.59375 0.75,0.40625 0,-0.84375 0,-4.15625 8.25,4.59375 0.75,0.40625 0,-0.84375 0,-10 0,-0.84375 -0.75,0.40625 -8.25,4.59375 0,-4.15625 0,-0.84375 z" id="path5181" inkscape:connector-curvature="0" fill="url(#linearGradient3871)"/>
  <path id="path3762" d="M 13.5,30.15625 12.75,30.5625 4.5,35.15625 4.5,31 l 0,-0.5 -0.5,0 -2,0 -0.5,0 0,0.5 0,10 0,0.5 0.5,0 2,0 0.5,0 0,-0.5 0,-4.15625 8.25,4.59375 0.75,0.40625 0,-0.84375 0,-4.15625 8.25,4.59375 0.75,0.40625 0,-0.84375 0,-10 0,-0.84375 -0.75,0.40625 -8.25,4.59375 0,-4.15625 0,-0.84375 z" inkscape:connector-curvature="0" opacity="0.61" fill="none" stroke="#000000"/>
  <path d="m 2,31 0,1 2,0 0,-1 -2,0 z M 13,31 4.75,35.59375 4,36 4.75,36.40625 4.90625,36.5 13,32 13,31 z m 9,0 -8.25,4.59375 L 13,36 13.75,36.40625 13.90625,36.5 22,32 22,31 z" id="path3764" inkscape:connector-curvature="0" opacity="0.2" fill="#ffffff"/>
 </g>
</svg>
