<?xml version="1.0" encoding="UTF-8" standalone="no"?>
<svg xmlns="http://www.w3.org/2000/svg" xmlns:xlink="http://www.w3.org/1999/xlink" xmlns:sodipodi="http://sodipodi.sourceforge.net/DTD/sodipodi-0.dtd" xmlns:inkscape="http://www.inkscape.org/namespaces/inkscape" width="24" height="24" version="1.1">
 <defs id="defs3497">
  <linearGradient id="linearGradient3865">
   <stop id="stop3867" stop-color="#555555"/>
   <stop offset="1" id="stop3869" stop-color="#666666"/>
  </linearGradient>
  <clipPath id="clipPath3669">
   <path d="M 0,96 96,96 96,0 0,0 0,96 z" id="path3671"/>
  </clipPath>
  <linearGradient inkscape:collect="always" xlink:href="#linearGradient3865" id="linearGradient3871" y1="48" x2="0" y2="26" gradientUnits="userSpaceOnUse" gradientTransform="translate(1,-1)"/>
 </defs>
 <metadata id="metadata3500"/>
 <g id="layer1" inkscape:label="Layer 1" inkscape:groupmode="layer" transform="translate(0,-24)">
  <path d="m 10.5,30.15625 0.75,0.40625 8.25,4.59375 0,-4.15625 0,-0.5 0.5,0 2,0 0.5,0 0,0.5 0,10 0,0.5 -0.5,0 -2,0 -0.5,0 0,-0.5 0,-4.15625 L 11.25,41.4375 10.5,41.84375 10.5,41 10.5,36.84375 2.25,41.4375 1.5,41.84375 1.5,41 l 0,-10 0,-0.84375 0.75,0.40625 8.25,4.59375 0,-4.15625 0,-0.84375 z" id="path5181" inkscape:connector-curvature="0" fill="url(#linearGradient3871)"/>
  <path id="path3762" d="m 10.5,30.15625 0.75,0.40625 8.25,4.59375 0,-4.15625 0,-0.5 0.5,0 2,0 0.5,0 0,0.5 0,10 0,0.5 -0.5,0 -2,0 -0.5,0 0,-0.5 0,-4.15625 L 11.25,41.4375 10.5,41.84375 10.5,41 10.5,36.84375 2.25,41.4375 1.5,41.84375 1.5,41 l 0,-10 0,-0.84375 0.75,0.40625 8.25,4.59375 0,-4.15625 0,-0.84375 z" inkscape:connector-curvature="0" opacity="0.61" fill="none" stroke="#000000"/>
  <path d="m 22,31 0,1 -2,0 0,-1 2,0 z M 11,31 19.25,35.59375 20,36 19.25,36.40625 19.09375,36.5 11,32 11,31 z M 2,31 10.25,35.59375 11,36 10.25,36.40625 10.09375,36.5 2,32 2,31 z" id="path3764" inkscape:connector-curvature="0" opacity="0.2" fill="#ffffff"/>
 </g>
</svg>
