<?xml version="1.0" encoding="UTF-8" standalone="no"?>
<svg
   xmlns:dc="http://purl.org/dc/elements/1.1/"
   xmlns:cc="http://creativecommons.org/ns#"
   xmlns:rdf="http://www.w3.org/1999/02/22-rdf-syntax-ns#"
   xmlns:svg="http://www.w3.org/2000/svg"
   xmlns="http://www.w3.org/2000/svg"
   xmlns:xlink="http://www.w3.org/1999/xlink"
   version="1.1"
   id="svg3495"
   height="24"
   width="24">
  <defs
     id="defs3497">
    <linearGradient
       id="linearGradient3792">
      <stop
         id="stop3794"
         offset="0"
         style="stop-color:#555555;stop-opacity:1;" />
      <stop
         id="stop3796"
         offset="1"
         style="stop-color:#666666;stop-opacity:1;" />
    </linearGradient>
    <linearGradient
       gradientTransform="translate(1,25)"
       gradientUnits="userSpaceOnUse"
       y2="0"
       x2="11"
       y1="22"
       x1="11"
       id="linearGradient3798"
       xlink:href="#linearGradient3792" />
    <linearGradient
       id="linearGradient3952">
      <stop
         id="stop3954"
         offset="0"
         style="stop-color:#000000;stop-opacity:1;" />
      <stop
         id="stop3956"
         offset="1"
         style="stop-color:#000000;stop-opacity:0;" />
    </linearGradient>
    <linearGradient
       id="linearGradient3944">
      <stop
         id="stop3946"
         offset="0"
         style="stop-color:#000000;stop-opacity:1;" />
      <stop
         id="stop3948"
         offset="1"
         style="stop-color:#000000;stop-opacity:0;" />
    </linearGradient>
    <linearGradient
       id="linearGradient3960">
      <stop
         id="stop3962"
         offset="0"
         style="stop-color:#000000;stop-opacity:0;" />
      <stop
         style="stop-color:#000000;stop-opacity:1;"
         offset="0.5"
         id="stop3970" />
      <stop
         id="stop3964"
         offset="1"
         style="stop-color:#000000;stop-opacity:0;" />
    </linearGradient>
    <radialGradient
       r="2"
       fy="43.5"
       fx="40"
       cy="43.5"
       cx="40"
       gradientTransform="matrix(1,0,0,0.75,-21,12.875)"
       gradientUnits="userSpaceOnUse"
       id="radialGradient3047"
       xlink:href="#linearGradient3952" />
    <radialGradient
       r="2"
       fy="43.5"
       fx="9"
       cy="43.5"
       cx="9"
       gradientTransform="matrix(1,0,0,0.75,-6,12.875)"
       gradientUnits="userSpaceOnUse"
       id="radialGradient3049"
       xlink:href="#linearGradient3944" />
    <linearGradient
       y2="42"
       x2="25"
       y1="45"
       x1="25"
       gradientTransform="matrix(1.1428571,0,0,1,-11.857143,2)"
       gradientUnits="userSpaceOnUse"
       id="linearGradient3051"
       xlink:href="#linearGradient3960" />
  </defs>
  <metadata
     id="metadata3500">
    <rdf:RDF>
      <cc:Work
         rdf:about="">
        <dc:format>image/svg+xml</dc:format>
        <dc:type
           rdf:resource="http://purl.org/dc/dcmitype/StillImage" />
        <dc:title />
      </cc:Work>
    </rdf:RDF>
  </metadata>
  <g
     transform="translate(0,-24)"
     id="layer1">
    <g
       transform="translate(1,-0.5)"
       id="g3042">
      <path
         style="opacity:0.2;fill:url(#radialGradient3047);fill-opacity:1;stroke:none"
         d="m 19,44 0,3 0.5,0 C 20.331,47 21,46.331 21,45.5 21,44.669 20.331,44 19.5,44 L 19,44 z"
         id="rect3940" />
      <path
         style="opacity:0.2;fill:url(#radialGradient3049);fill-opacity:1;stroke:none"
         d="M 2.40625,44 C 1.6271875,44 1,44.627187 1,45.40625 l 0,0.1875 C 1,46.372813 1.6271875,47 2.40625,47 L 3,47 3,44 2.40625,44 z"
         id="rect3942" />
      <path
         style="opacity:0.2;fill:url(#linearGradient3051);fill-opacity:1;stroke:none"
         d="m 3,44 16,0 0,3 -16,0 z"
         id="rect3938" />
    </g>
    <path
       id="rect2998"
       d="m 3.5,27.5 0,0.5 0,16 0,0.5 0.5,0 16,0 0.5,0 0,-0.5 0,-16 0,-0.5 -0.5,0 -16,0 -0.5,0 z"
       style="color:#000000;fill:url(#linearGradient3798);fill-opacity:1;fill-rule:nonzero;stroke:none;stroke-width:4;marker:none;visibility:visible;display:inline;overflow:visible;enable-background:accumulate" />
    <path
       style="opacity:0.61000001;color:#000000;fill:none;stroke:#000000;stroke-width:1;stroke-miterlimit:4;stroke-opacity:1;stroke-dasharray:none;marker:none;visibility:visible;display:inline;overflow:visible;enable-background:accumulate"
       d="m 3.5,27.5 0,0.5 0,16 0,0.5 0.5,0 16,0 0.5,0 0,-0.5 0,-16 0,-0.5 -0.5,0 -16,0 -0.5,0 z"
       id="path3770" />
    <path
       id="path3772"
       d="m 4,28 0,1 16,0 0,-1 -16,0 z"
       style="opacity:0.2;color:#000000;fill:#ffffff;fill-opacity:1;fill-rule:nonzero;stroke:none;stroke-width:4;marker:none;visibility:visible;display:inline;overflow:visible;enable-background:accumulate" />
  </g>
</svg>
