<?xml version="1.0" encoding="UTF-8" standalone="no"?>
<svg
   xmlns:dc="http://purl.org/dc/elements/1.1/"
   xmlns:cc="http://creativecommons.org/ns#"
   xmlns:rdf="http://www.w3.org/1999/02/22-rdf-syntax-ns#"
   xmlns:svg="http://www.w3.org/2000/svg"
   xmlns="http://www.w3.org/2000/svg"
   xmlns:xlink="http://www.w3.org/1999/xlink"
   version="1.1"
   id="svg3495"
   height="24"
   width="24">
  <defs
     id="defs3497">
    <linearGradient
       id="linearGradient3764">
      <stop
         id="stop3766"
         offset="0"
         style="stop-color:#555555;stop-opacity:1;" />
      <stop
         id="stop3768"
         offset="1"
         style="stop-color:#666666;stop-opacity:1;" />
    </linearGradient>
    <linearGradient
       gradientTransform="translate(1,25)"
       gradientUnits="userSpaceOnUse"
       y2="0"
       x2="11"
       y1="22"
       x1="11"
       id="linearGradient3770"
       xlink:href="#linearGradient3764" />
  </defs>
  <metadata
     id="metadata3500">
    <rdf:RDF>
      <cc:Work
         rdf:about="">
        <dc:format>image/svg+xml</dc:format>
        <dc:type
           rdf:resource="http://purl.org/dc/dcmitype/StillImage" />
        <dc:title />
      </cc:Work>
    </rdf:RDF>
  </metadata>
  <g
     transform="translate(0,-24)"
     id="layer1">
    <path
       id="rect2998"
       d="m 3.5,27.5 0,0.5 0,16 0,0.5 0.5,0 5,0 0.5,0 0,-0.5 0,-16 0,-0.5 -0.5,0 -5,0 z m 10,0 0,0.5 0,16 0,0.5 0.5,0 5,0 0.5,0 0,-0.5 0,-16 0,-0.5 -0.5,0 -5,0 z"
       style="color:#000000;fill:url(#linearGradient3770);fill-opacity:1;fill-rule:nonzero;stroke:none;stroke-width:4;marker:none;visibility:visible;display:inline;overflow:visible;enable-background:accumulate" />
    <path
       style="opacity:0.61000001;color:#000000;fill:none;stroke:#000000;stroke-width:1;stroke-miterlimit:4;stroke-opacity:1;stroke-dasharray:none;marker:none;visibility:visible;display:inline;overflow:visible;enable-background:accumulate"
       d="m 3.5,27.5 0,0.5 0,16 0,0.5 0.5,0 5,0 0.5,0 0,-0.5 0,-16 0,-0.5 -0.5,0 -5,0 z m 10,0 0,0.5 0,16 0,0.5 0.5,0 5,0 0.5,0 0,-0.5 0,-16 0,-0.5 -0.5,0 -5,0 z"
       id="path3762" />
    <path
       id="path3772"
       d="m 4,28 0,1 5,0 0,-1 z m 10,0 0,1 5,0 0,-1 z"
       style="opacity:0.2;color:#000000;fill:#ffffff;fill-opacity:1;fill-rule:nonzero;stroke:none;stroke-width:4;marker:none;visibility:visible;display:inline;overflow:visible;enable-background:accumulate" />
  </g>
</svg>
