<?xml version="1.0" encoding="UTF-8" standalone="no"?>
<svg
   xmlns:dc="http://purl.org/dc/elements/1.1/"
   xmlns:cc="http://creativecommons.org/ns#"
   xmlns:rdf="http://www.w3.org/1999/02/22-rdf-syntax-ns#"
   xmlns:svg="http://www.w3.org/2000/svg"
   xmlns="http://www.w3.org/2000/svg"
   xmlns:xlink="http://www.w3.org/1999/xlink"
   version="1.1"
   id="svg3495"
   height="24"
   width="24">
  <defs
     id="defs3497">
    <linearGradient
       id="linearGradient3764">
      <stop
         id="stop3766"
         offset="0"
         style="stop-color:#555555;stop-opacity:1;" />
      <stop
         id="stop3768"
         offset="1"
         style="stop-color:#666666;stop-opacity:1;" />
    </linearGradient>
    <linearGradient
       gradientTransform="translate(1,25)"
       gradientUnits="userSpaceOnUse"
       y2="0"
       x2="11"
       y1="22"
       x1="11"
       id="linearGradient3770"
       xlink:href="#linearGradient3764" />
  </defs>
  <metadata
     id="metadata3500">
    <rdf:RDF>
      <cc:Work
         rdf:about="">
        <dc:format>image/svg+xml</dc:format>
        <dc:type
           rdf:resource="http://purl.org/dc/dcmitype/StillImage" />
        <dc:title />
      </cc:Work>
    </rdf:RDF>
  </metadata>
  <g
     transform="translate(0,-24)"
     id="layer1">
    <path
       id="path5181"
       d="m 12.5,30.15625 -0.75,0.40625 -9,5 L 1.96875,36 2.75,36.4375 l 9,5 0.75,0.40625 0,-0.84375 0,-4.15625 8.25,4.59375 0.75,0.40625 0,-0.84375 0,-10 0,-0.84375 -0.75,0.40625 -8.25,4.59375 0,-4.15625 0,-0.84375 z"
       style="fill:url(#linearGradient3770);fill-opacity:1;stroke:none" />
    <path
       style="opacity:0.61000001;fill:none;stroke:#000000;stroke-opacity:1"
       d="m 12.5,30.15625 -0.75,0.40625 -9,5 L 1.96875,36 2.75,36.4375 l 9,5 0.75,0.40625 0,-0.84375 0,-4.15625 8.25,4.59375 0.75,0.40625 0,-0.84375 0,-10 0,-0.84375 -0.75,0.40625 -8.25,4.59375 0,-4.15625 0,-0.84375 z"
       id="path3762" />
    <path
       id="path3772"
       d="M 12,31 3,36 3.90625,36.5 12,32 12,31 z m 9,0 -8.25,4.59375 L 12,36 12.75,36.40625 12.90625,36.5 21,32 21,31 z"
       style="opacity:0.2;fill:#ffffff;fill-opacity:1;stroke:none" />
  </g>
</svg>
