<?xml version="1.0" encoding="UTF-8" standalone="no"?>
<svg xmlns="http://www.w3.org/2000/svg" xmlns:xlink="http://www.w3.org/1999/xlink" xmlns:sodipodi="http://sodipodi.sourceforge.net/DTD/sodipodi-0.dtd" xmlns:inkscape="http://www.inkscape.org/namespaces/inkscape" width="24" height="24" version="1.1">
 <defs id="defs3497">
  <linearGradient id="linearGradient3762">
   <stop id="stop3764" stop-color="#555555"/>
   <stop offset="1" id="stop3766" stop-color="#666666"/>
  </linearGradient>
  <clipPath id="clipPath3669">
   <path d="M 0,96 96,96 96,0 0,0 0,96 z" id="path3671"/>
  </clipPath>
  <linearGradient inkscape:collect="always" xlink:href="#linearGradient3762" id="linearGradient3768" y1="22" x2="0" y2="0" gradientUnits="userSpaceOnUse" gradientTransform="translate(1,25)"/>
  <linearGradient inkscape:collect="always" xlink:href="#linearGradient3762" id="linearGradient3780" gradientUnits="userSpaceOnUse" y1="22" x2="0" y2="0"/>
 </defs>
 <metadata id="metadata3500"/>
 <g id="layer1" inkscape:label="Layer 1" inkscape:groupmode="layer" transform="translate(0,-24)">
  <path d="m 12,27.78125 -0.34375,0.375 -7,7 -0.15625,0.125 0,0.21875 0,0.5 0,0.5 0.5,0 14,0 0.5,0 0,-0.5 0,-0.5 0,-0.21875 -0.15625,-0.125 -7,-7 z M 4.5,39.5 l 0,0.5 0,3 0,0.5 0.5,0 14,0 0.5,0 0,-0.5 0,-3 0,-0.5 -0.5,0 -14,0 z" id="path696" inkscape:connector-curvature="0" sodipodi:nodetypes="ccccccccccccccccccccccccccccc" fill="url(#linearGradient3768)" display="block" color="#000000"/>
  <path id="path3770" d="m 12,27.78125 -0.34375,0.375 -7,7 -0.15625,0.125 0,0.21875 0,0.5 0,0.5 0.5,0 14,0 0.5,0 0,-0.5 0,-0.5 0,-0.21875 -0.15625,-0.125 -7,-7 z M 4.5,39.5 l 0,0.5 0,3 0,0.5 0.5,0 14,0 0.5,0 0,-0.5 0,-3 0,-0.5 -0.5,0 -14,0 z" inkscape:connector-curvature="0" sodipodi:nodetypes="ccccccccccccccccccccccccccccc" opacity="0.61" fill="none" display="block" stroke="#000000" color="#000000"/>
  <path d="M 11.96875,28.5 5,35.5 5,35.53125 5,36.5 l 6.96875,-7 0.03125,0 0.03125,0 L 19,36.5 19,35.53125 19,35.5 12.03125,28.5 12,28.5 z M 5,40 l 0,1 14,0 0,-1 z" id="path3772" inkscape:connector-curvature="0" sodipodi:nodetypes="cccccccccccccccccc" opacity="0.2" fill="#ffffff" display="block" color="#000000"/>
 </g>
</svg>
