<?xml version="1.0" encoding="UTF-8" standalone="no"?>
<svg
   xmlns:dc="http://purl.org/dc/elements/1.1/"
   xmlns:cc="http://creativecommons.org/ns#"
   xmlns:rdf="http://www.w3.org/1999/02/22-rdf-syntax-ns#"
   xmlns:svg="http://www.w3.org/2000/svg"
   xmlns="http://www.w3.org/2000/svg"
   xmlns:xlink="http://www.w3.org/1999/xlink"
   version="1.1"
   id="svg3495"
   height="24"
   width="24">
  <defs
     id="defs3497">
    <linearGradient
       id="linearGradient3762">
      <stop
         id="stop3764"
         offset="0"
         style="stop-color:#555555;stop-opacity:1;" />
      <stop
         id="stop3766"
         offset="1"
         style="stop-color:#666666;stop-opacity:1;" />
    </linearGradient>
    <linearGradient
       gradientTransform="translate(1,25)"
       gradientUnits="userSpaceOnUse"
       y2="0"
       x2="12"
       y1="22"
       x1="12"
       id="linearGradient3768"
       xlink:href="#linearGradient3762" />
  </defs>
  <metadata
     id="metadata3500">
    <rdf:RDF>
      <cc:Work
         rdf:about="">
        <dc:format>image/svg+xml</dc:format>
        <dc:type
           rdf:resource="http://purl.org/dc/dcmitype/StillImage" />
        <dc:title />
      </cc:Work>
    </rdf:RDF>
  </metadata>
  <g
     transform="translate(0,-24)"
     id="layer1">
    <path
       id="path696"
       d="m 12,27.78125 -0.34375,0.375 -7,7 -0.15625,0.125 0,0.21875 0,0.5 0,0.5 0.5,0 14,0 0.5,0 0,-0.5 0,-0.5 0,-0.21875 -0.15625,-0.125 -7,-7 z M 4.5,39.5 l 0,0.5 0,3 0,0.5 0.5,0 14,0 0.5,0 0,-0.5 0,-3 0,-0.5 -0.5,0 -14,0 z"
       style="color:#000000;fill:url(#linearGradient3768);fill-opacity:1;fill-rule:nonzero;stroke:none;stroke-width:1;marker:none;visibility:visible;display:block;overflow:visible;enable-background:accumulate" />
    <path
       style="opacity:0.61000001;color:#000000;fill:none;stroke:#000000;stroke-width:1;stroke-opacity:1;marker:none;visibility:visible;display:block;overflow:visible;enable-background:accumulate"
       d="m 12,27.78125 -0.34375,0.375 -7,7 -0.15625,0.125 0,0.21875 0,0.5 0,0.5 0.5,0 14,0 0.5,0 0,-0.5 0,-0.5 0,-0.21875 -0.15625,-0.125 -7,-7 z M 4.5,39.5 l 0,0.5 0,3 0,0.5 0.5,0 14,0 0.5,0 0,-0.5 0,-3 0,-0.5 -0.5,0 -14,0 z"
       id="path3770" />
    <path
       id="path3772"
       d="M 11.96875,28.5 5,35.5 5,35.53125 5,36.5 l 6.96875,-7 0.03125,0 0.03125,0 L 19,36.5 19,35.53125 19,35.5 12.03125,28.5 12,28.5 z M 5,40 l 0,1 14,0 0,-1 z"
       style="opacity:0.2;color:#000000;fill:#ffffff;fill-opacity:1;fill-rule:nonzero;stroke:none;stroke-width:1;marker:none;visibility:visible;display:block;overflow:visible;enable-background:accumulate" />
  </g>
</svg>
