<?xml version="1.0" encoding="UTF-8" standalone="no"?>
<svg
   xmlns:dc="http://purl.org/dc/elements/1.1/"
   xmlns:cc="http://creativecommons.org/ns#"
   xmlns:rdf="http://www.w3.org/1999/02/22-rdf-syntax-ns#"
   xmlns:svg="http://www.w3.org/2000/svg"
   xmlns="http://www.w3.org/2000/svg"
   xmlns:xlink="http://www.w3.org/1999/xlink"
   version="1.1"
   id="svg3495"
   height="24"
   width="24">
  <defs
     id="defs3497">
    <linearGradient
       id="linearGradient3760">
      <stop
         id="stop3762"
         offset="0"
         style="stop-color:#e44343;stop-opacity:1;" />
      <stop
         id="stop3764"
         offset="1"
         style="stop-color:#ac0808;stop-opacity:1;" />
    </linearGradient>
    <linearGradient
       gradientTransform="translate(1,25)"
       gradientUnits="userSpaceOnUse"
       y2="22"
       x2="11"
       y1="0"
       x1="11"
       id="linearGradient3802"
       xlink:href="#linearGradient3760" />
    <linearGradient
       id="linearGradient3949">
      <stop
         id="stop3951"
         offset="0"
         style="stop-color:#000000;stop-opacity:1;" />
      <stop
         id="stop3953"
         offset="1"
         style="stop-color:#000000;stop-opacity:0;" />
    </linearGradient>
    <radialGradient
       r="9"
       fy="20"
       fx="11"
       cy="20"
       cx="11"
       gradientTransform="matrix(1,0,0,0.22222222,0,15.555556)"
       gradientUnits="userSpaceOnUse"
       id="radialGradient3993"
       xlink:href="#linearGradient3949" />
    <radialGradient
       r="9"
       fy="20"
       fx="11"
       cy="20"
       cx="11"
       gradientTransform="matrix(1,0,0,0.22222222,0,15.555556)"
       gradientUnits="userSpaceOnUse"
       id="radialGradient3997"
       xlink:href="#linearGradient3949" />
  </defs>
  <metadata
     id="metadata3500">
    <rdf:RDF>
      <cc:Work
         rdf:about="">
        <dc:format>image/svg+xml</dc:format>
        <dc:type
           rdf:resource="http://purl.org/dc/dcmitype/StillImage" />
        <dc:title />
      </cc:Work>
    </rdf:RDF>
  </metadata>
  <g
     transform="translate(0,-24)"
     id="layer1">
    <g
       transform="translate(1,-1)"
       id="g4507">
      <path
         transform="matrix(1,0,0,1.5,0,15)"
         style="opacity:0.4;fill:url(#radialGradient3993);fill-opacity:1;stroke:none"
         id="path3163"
         d="M 20,20 A 9,2 0 1 1 2,20 9,2 0 1 1 20,20 z" />
      <path
         d="M 20,20 A 9,2 0 1 1 2,20 9,2 0 1 1 20,20 z"
         id="path3995"
         style="opacity:0.8;fill:url(#radialGradient3997);fill-opacity:1;stroke:none"
         transform="matrix(0.66666667,0,0,1,3.6666666,26)" />
    </g>
    <path
       id="path4791"
       d="m 12,26.5 c -5.2407828,0 -9.5,4.259217 -9.5,9.5 0,5.240782 4.2592171,9.5 9.5,9.5 5.240783,0 9.5,-4.259218 9.5,-9.5 0,-5.240783 -4.259217,-9.5 -9.5,-9.5 z"
       style="fill:url(#linearGradient3802);fill-opacity:1;fill-rule:evenodd;stroke:none" />
    <path
       style="opacity:0.81000001;fill:none;stroke:#790000;stroke-opacity:1"
       d="m 12,26.5 c -5.2407828,0 -9.5,4.259217 -9.5,9.5 0,5.240782 4.2592171,9.5 9.5,9.5 5.240783,0 9.5,-4.259218 9.5,-9.5 0,-5.240783 -4.259217,-9.5 -9.5,-9.5 z"
       id="path3804" />
    <path
       id="path3806"
       d="m 12,27 c -4.9698807,0 -9,4.030119 -9,9 0,0.171541 0.021774,0.330826 0.03125,0.5 C 3.2963002,31.767849 7.2016599,28 12,28 c 4.79834,0 8.7037,3.767849 8.96875,8.5 C 20.978226,36.330826 21,36.171541 21,36 21,31.030119 16.969881,27 12,27 z"
       style="opacity:0.2;fill:#ffffff;fill-opacity:1;fill-rule:evenodd;stroke:none" />
    <path
       style="opacity:0.2;fill:#000000;fill-opacity:1;fill-rule:evenodd;stroke:none"
       d="M 12,46 C 7.0301193,46 3,41.969881 3,37 3,36.828459 3.021774,36.669174 3.03125,36.5 3.2963002,41.232151 7.2016599,45 12,45 16.79834,45 20.7037,41.232151 20.96875,36.5 20.97825,36.669174 21,36.828459 21,37 c 0,4.969881 -4.030119,9 -9,9 z"
       id="path3820" />
  </g>
  <g
     transform="translate(0,2)"
     id="layer2" />
</svg>
