<?xml version="1.0" encoding="UTF-8" standalone="no"?>
<svg
   xmlns:dc="http://purl.org/dc/elements/1.1/"
   xmlns:cc="http://creativecommons.org/ns#"
   xmlns:rdf="http://www.w3.org/1999/02/22-rdf-syntax-ns#"
   xmlns:svg="http://www.w3.org/2000/svg"
   xmlns="http://www.w3.org/2000/svg"
   xmlns:xlink="http://www.w3.org/1999/xlink"
   version="1.1"
   id="svg3495"
   height="24"
   width="24">
  <defs
     id="defs3497">
    <linearGradient
       id="linearGradient4368">
      <stop
         id="stop4370"
         offset="0"
         style="stop-color:#a0a0a0;stop-opacity:1;" />
      <stop
         id="stop4372"
         offset="1"
         style="stop-color:#ffffff;stop-opacity:1;" />
    </linearGradient>
    <linearGradient
       id="linearGradient4342">
      <stop
         id="stop4344"
         offset="0"
         style="stop-color:#000000;stop-opacity:0;" />
      <stop
         style="stop-color:#000000;stop-opacity:1;"
         offset="0.1"
         id="stop4352" />
      <stop
         style="stop-color:#000000;stop-opacity:1;"
         offset="0.89999998"
         id="stop4350" />
      <stop
         id="stop4346"
         offset="1"
         style="stop-color:#000000;stop-opacity:0;" />
    </linearGradient>
    <linearGradient
       id="linearGradient3821">
      <stop
         id="stop3823"
         offset="0"
         style="stop-color:#cccccc;stop-opacity:0;" />
      <stop
         style="stop-color:#cccccc;stop-opacity:1;"
         offset="0.1"
         id="stop4356" />
      <stop
         style="stop-color:#cccccc;stop-opacity:1;"
         offset="0.89999998"
         id="stop4354" />
      <stop
         id="stop3825"
         offset="1"
         style="stop-color:#cccccc;stop-opacity:0;" />
    </linearGradient>
    <linearGradient
       gradientTransform="translate(1,22)"
       y2="10"
       x2="0"
       y1="10"
       x1="22"
       gradientUnits="userSpaceOnUse"
       id="linearGradient3261"
       xlink:href="#linearGradient3821" />
    <linearGradient
       gradientTransform="translate(1,-5)"
       gradientUnits="userSpaceOnUse"
       y2="37.5"
       x2="21"
       y1="37.5"
       x1="1"
       id="linearGradient4348"
       xlink:href="#linearGradient4342" />
    <linearGradient
       gradientTransform="translate(22,-50)"
       gradientUnits="userSpaceOnUse"
       y2="37.5"
       x2="13.5"
       y1="37.5"
       x1="7.5"
       id="linearGradient4374"
       xlink:href="#linearGradient4368" />
    <linearGradient
       gradientTransform="matrix(1.49,0,0,1.49,0.1525,23.15)"
       gradientUnits="userSpaceOnUse"
       y2="8"
       x2="12"
       y1="16"
       x1="12"
       id="linearGradient3902"
       xlink:href="#linearGradient3904" />
    <linearGradient
       id="linearGradient3904">
      <stop
         style="stop-color:#104b88;stop-opacity:1;"
         offset="0"
         id="stop3906" />
      <stop
         style="stop-color:#0e7398;stop-opacity:1;"
         offset="1"
         id="stop3908" />
    </linearGradient>
    <linearGradient
       id="linearGradient3886">
      <stop
         id="stop3888"
         offset="0"
         style="stop-color:#5097e1;stop-opacity:1;" />
      <stop
         id="stop3890"
         offset="1"
         style="stop-color:#53d0ff;stop-opacity:1" />
    </linearGradient>
    <linearGradient
       xlink:href="#linearGradient3886"
       id="linearGradient3040"
       gradientUnits="userSpaceOnUse"
       gradientTransform="matrix(1.49,0,0,1.49,0.1525,23.15)"
       x1="12"
       y1="15"
       x2="12"
       y2="9" />
    <linearGradient
       id="linearGradient3911">
      <stop
         id="stop3913"
         offset="0"
         style="stop-color:#000000;stop-opacity:1;" />
      <stop
         id="stop3915"
         offset="1"
         style="stop-color:#000000;stop-opacity:0;" />
    </linearGradient>
    <radialGradient
       xlink:href="#linearGradient3911"
       id="radialGradient3934"
       gradientUnits="userSpaceOnUse"
       gradientTransform="matrix(1,0,0,0.25,0,7.875)"
       cx="11"
       cy="10.5"
       fx="11"
       fy="10.5"
       r="10" />
  </defs>
  <metadata
     id="metadata3500">
    <rdf:RDF>
      <cc:Work
         rdf:about="">
        <dc:format>image/svg+xml</dc:format>
        <dc:type
           rdf:resource="http://purl.org/dc/dcmitype/StillImage" />
        <dc:title />
      </cc:Work>
    </rdf:RDF>
  </metadata>
  <g
     transform="translate(0,-24)"
     id="layer1">
    <path
       d="M 21,10.5 C 21,11.880712 16.522847,13 11,13 5.4771525,13 1,11.880712 1,10.5 1,9.1192881 5.4771525,8 11,8 c 5.522847,0 10,1.1192881 10,2.5 z"
       id="path3141"
       style="opacity:0.3;fill:url(#radialGradient3934);fill-opacity:1;stroke:#ffffff;stroke-width:0;stroke-linecap:round;stroke-linejoin:round;stroke-miterlimit:4;stroke-opacity:1;stroke-dasharray:none"
       transform="translate(1,24)" />
    <path
       id="path3091"
       d="m 2.5,31.5 0,0.5 0,1 0,0.5 0.5,0 18,0 0.5,0 0,-0.5 0,-1 0,-0.5 -0.5,0 -18,0 z"
       style="fill:url(#linearGradient3261);fill-opacity:1;stroke:none" />
    <path
       style="opacity:0.61000001;fill:none;stroke:url(#linearGradient4348);stroke-width:1;stroke-miterlimit:4;stroke-opacity:1;stroke-dasharray:none"
       d="m 2.5,31.5 0,0.5 0,1 0,0.5 0.5,0 18,0 0.5,0 0,-0.5 0,-1 0,-0.5 -0.5,0 -18,0 z"
       id="path3093" />
    <rect
       transform="matrix(0,1,-1,0,0,0)"
       y="-15.5"
       x="29.5"
       height="6"
       width="6"
       id="rect4358"
       style="fill:url(#linearGradient4374);fill-opacity:1;stroke:none" />
    <rect
       style="opacity:0.41000001;fill:none;stroke:#000000;stroke-opacity:1"
       id="rect4360"
       width="6"
       height="6"
       x="9.5"
       y="29.5" />
    <path
       id="rect4366"
       d="m 10,30 0,1 0,0 1,0 0,0 4,0 0,-1 -4,0 z"
       style="opacity:0.4;fill:#ffffff;fill-opacity:1;stroke:none" />
    <path
       id="rect3881"
       d="m 16.5,36.5 0,3 -3,0 0,3 3,0 0,3 3,0 0,-3 3,0 0,-3 -3,0 0,-3 z"
       style="fill:url(#linearGradient3040);fill-opacity:1;stroke:none;display:inline" />
    <path
       style="opacity:0.81000001;fill:none;stroke:url(#linearGradient3902);stroke-width:1;stroke-linejoin:miter;stroke-miterlimit:4;stroke-opacity:1;stroke-dasharray:none;display:inline"
       d="m 16.5,36.5 0,3 -3,0 0,3 3,0 0,3 3,0 0,-3 3,0 0,-3 -3,0 0,-3 z"
       id="path3894" />
    <path
       id="path4487"
       d="m 17,37 0,1 2,0 0,-1 -2,0 z m -3,3 0,1 2.5,0 0.5,0 0,-0.5 0,-0.5 -0.5,0 -2.5,0 z m 5,0 0,0.5 0,0.5 0.5,0 2.5,0 0,-1 -2.5,0 -0.5,0 z"
       style="opacity:0.4;fill:#ffffff;fill-opacity:1;stroke:none;display:inline" />
  </g>
</svg>
