<?xml version="1.0" encoding="UTF-8" standalone="no"?>
<svg xmlns="http://www.w3.org/2000/svg" xmlns:xlink="http://www.w3.org/1999/xlink" xmlns:sodipodi="http://sodipodi.sourceforge.net/DTD/sodipodi-0.dtd" xmlns:inkscape="http://www.inkscape.org/namespaces/inkscape" width="24" height="24" version="1.1">
 <defs id="defs3497">
  <linearGradient id="linearGradient4368">
   <stop id="stop4370" stop-color="#a0a0a0"/>
   <stop offset="1" id="stop4372" stop-color="#ffffff"/>
  </linearGradient>
  <linearGradient id="linearGradient4342">
   <stop id="stop4344" stop-opacity="0"/>
   <stop id="stop4352" offset="0.1"/>
   <stop id="stop4350" offset="0.9"/>
   <stop offset="1" id="stop4346" stop-opacity="0"/>
  </linearGradient>
  <clipPath id="clipPath3669">
   <path d="M 0,96 96,96 96,0 0,0 0,96 z" id="path3671"/>
  </clipPath>
  <linearGradient inkscape:collect="always" xlink:href="#linearGradient3821" id="linearGradient3793" y1="22" x2="0" y2="-2" gradientUnits="userSpaceOnUse" gradientTransform="translate(0,26)"/>
  <linearGradient id="linearGradient3821">
   <stop id="stop3823" stop-color="#cccccc" stop-opacity="0"/>
   <stop id="stop4356" offset="0.1" stop-color="#cccccc"/>
   <stop id="stop4354" offset="0.9" stop-color="#cccccc"/>
   <stop offset="1" id="stop3825" stop-color="#cccccc" stop-opacity="0"/>
  </linearGradient>
  <linearGradient y2="-2" x2="0" y1="22" gradientTransform="translate(31.883514,24.756453)" gradientUnits="userSpaceOnUse" id="linearGradient3011" xlink:href="#linearGradient3821" inkscape:collect="always"/>
  <linearGradient inkscape:collect="always" xlink:href="#linearGradient3821" id="linearGradient3810" gradientUnits="userSpaceOnUse" y1="22" x2="0" y2="0"/>
  <radialGradient inkscape:collect="always" xlink:href="#linearGradient3952" id="radialGradient3960" gradientUnits="userSpaceOnUse" gradientTransform="matrix(1,0,0,0.75,-21,12.375)" cx="40" cy="43.5" r="2"/>
  <linearGradient inkscape:collect="always" id="linearGradient3952">
   <stop id="stop3954"/>
   <stop offset="1" id="stop3956" stop-opacity="0"/>
  </linearGradient>
  <radialGradient inkscape:collect="always" xlink:href="#linearGradient3952" id="radialGradient3957" gradientUnits="userSpaceOnUse" gradientTransform="matrix(1,0,0,0.75,-4,12.375)" cx="9" cy="43.5" r="2"/>
  <linearGradient inkscape:collect="always" xlink:href="#linearGradient3960" id="linearGradient3954" gradientUnits="userSpaceOnUse" gradientTransform="translate(-8,1.5)" y1="45" x2="0" y2="42"/>
  <linearGradient id="linearGradient3960">
   <stop id="stop3962" stop-opacity="0"/>
   <stop id="stop3970" offset="0.5"/>
   <stop offset="1" id="stop3964" stop-opacity="0"/>
  </linearGradient>
  <linearGradient inkscape:collect="always" xlink:href="#linearGradient3960" id="linearGradient4055" gradientUnits="userSpaceOnUse" gradientTransform="translate(-9,-1)" y1="45" x2="0" y2="42"/>
  <linearGradient inkscape:collect="always" xlink:href="#linearGradient3960" id="linearGradient4055-2" gradientUnits="userSpaceOnUse" gradientTransform="translate(-9,-1)" y1="45" x2="0" y2="42"/>
  <linearGradient inkscape:collect="always" xlink:href="#linearGradient3821" id="linearGradient3233" gradientUnits="userSpaceOnUse" y1="22" x2="0" y2="0" gradientTransform="translate(2,34)"/>
  <linearGradient inkscape:collect="always" xlink:href="#linearGradient3821" id="linearGradient3247" gradientUnits="userSpaceOnUse" y1="22" x2="0" y2="0" gradientTransform="translate(1,29)"/>
  <linearGradient inkscape:collect="always" xlink:href="#linearGradient3821" id="linearGradient3261" gradientUnits="userSpaceOnUse" x1="22" x2="0" gradientTransform="translate(1,29)"/>
  <linearGradient inkscape:collect="always" xlink:href="#linearGradient3821" id="linearGradient3275" gradientUnits="userSpaceOnUse" y1="22" x2="0" y2="0" gradientTransform="translate(3,19)"/>
  <linearGradient inkscape:collect="always" xlink:href="#linearGradient4342" id="linearGradient4348" x1="1" x2="21" gradientUnits="userSpaceOnUse" gradientTransform="translate(1,2)"/>
  <linearGradient id="outerBackgroundGradient-4">
   <stop id="stop3864-8-6-6" stop-color="#f0f0f0"/>
   <stop offset="1" id="stop3866-9-1-7" stop-color="#f9f9f9"/>
  </linearGradient>
  <radialGradient inkscape:collect="always" xlink:href="#linearGradient3952" id="radialGradient3872" cx="16.5" cy="20.5" r="5.5" gradientTransform="matrix(1,0,0,0.27272727,0,14.909091)" gradientUnits="userSpaceOnUse"/>
  <linearGradient inkscape:collect="always" xlink:href="#linearGradient3760" id="linearGradient3802" y1="0" x2="0" y2="22" gradientUnits="userSpaceOnUse"/>
  <linearGradient id="linearGradient3760">
   <stop id="stop3762" stop-color="#e44343"/>
   <stop offset="1" id="stop3764" stop-color="#ac0808"/>
  </linearGradient>
  <linearGradient gradientTransform="translate(17,30)" y2="22" x2="0" y1="0" gradientUnits="userSpaceOnUse" id="linearGradient3130" xlink:href="#linearGradient3760" inkscape:collect="always"/>
  <radialGradient inkscape:collect="always" xlink:href="#linearGradient6557-4" id="radialGradient4268" gradientUnits="userSpaceOnUse" cx="311.47" cy="828.53" r="3.281"/>
  <linearGradient id="linearGradient6557-4">
   <stop id="stop6559-2" stop-color="#fce94f"/>
   <stop id="stop6565-2" offset="0.673" stop-color="#fce94f"/>
   <stop offset="1" id="stop6561-7" stop-color="#fce94f" stop-opacity="0"/>
  </linearGradient>
  <radialGradient inkscape:collect="always" xlink:href="#linearGradient6620-1" id="radialGradient4270" gradientUnits="userSpaceOnUse" gradientTransform="matrix(2.1730275,0,0,1.9594181,-672.25707,-1534.79)" cx="316.09" cy="785.16" r="5.5"/>
  <linearGradient id="linearGradient6620-1">
   <stop id="stop6622-7" stop-color="#ffffff"/>
   <stop offset="0.33" id="stop6624-4" stop-color="#ffffff"/>
   <stop id="stop6626-5" offset="1" stop-color="#fce94f"/>
  </linearGradient>
  <radialGradient inkscape:collect="always" xlink:href="#linearGradient6633" id="radialGradient4272" gradientUnits="userSpaceOnUse" gradientTransform="matrix(4.5697471,-0.00304895,0,4.2377637,-1400.2274,-3458.4132)" cx="309.37" cy="816.91" r="5.219"/>
  <linearGradient id="linearGradient6633" inkscape:collect="always">
   <stop id="stop6635" stop-color="#edd400"/>
   <stop id="stop6637" offset="1" stop-color="#c4a000"/>
  </linearGradient>
  <linearGradient inkscape:collect="always" xlink:href="#linearGradient4368" id="linearGradient4637" gradientUnits="userSpaceOnUse" gradientTransform="translate(29,-50)" x1="7.5" x2="13.5"/>
  <radialGradient inkscape:collect="always" xlink:href="#linearGradient3952" id="radialGradient3917" cx="11" cy="10.5" r="10" gradientTransform="matrix(1,0,0,0.25,0,7.875)" gradientUnits="userSpaceOnUse"/>
 </defs>
 <metadata id="metadata3500"/>
 <g id="layer1" inkscape:label="Layer 1" inkscape:groupmode="layer" transform="translate(0,-24)">
  <path transform="translate(1,31)" sodipodi:type="arc" id="path3141" sodipodi:cx="11" sodipodi:cy="10.5" sodipodi:rx="10" sodipodi:ry="2.5" d="M 21,10.5 C 21,11.880712 16.522847,13 11,13 5.4771525,13 1,11.880712 1,10.5 1,9.1192881 5.4771525,8 11,8 c 5.522847,0 10,1.1192881 10,2.5 z" opacity="0.3" fill="url(#radialGradient3917)" stroke="#ffffff" stroke-linejoin="round" stroke-linecap="round" stroke-width="0"/>
  <path inkscape:connector-curvature="0" d="m 2.5,38.5 0,0.5 0,1 0,0.5 0.5,0 18,0 0.5,0 0,-0.5 0,-1 0,-0.5 -0.5,0 -18,0 z" id="path3091" sodipodi:nodetypes="ccccccccccccc" fill="url(#linearGradient3261)"/>
  <path inkscape:connector-curvature="0" id="path3093" d="m 2.5,38.5 0,0.5 0,1 0,0.5 0.5,0 18,0 0.5,0 0,-0.5 0,-1 0,-0.5 -0.5,0 -18,0 z" sodipodi:nodetypes="ccccccccccccc" opacity="0.61" fill="none" stroke="url(#linearGradient4348)"/>
  <rect id="rect4358" width="6" height="6" x="36.5" y="-15.5" transform="matrix(0,1,-1,0,0,0)" fill="url(#linearGradient4637)"/>
  <rect y="36.5" x="9.5" height="6" width="6" id="rect4360" opacity="0.41" fill="none" stroke="#000000"/>
  <path d="m 10,37 0,1 0,0 1,0 0,0 4,0 0,-1 -4,0 z" id="rect4366" inkscape:connector-curvature="0" sodipodi:nodetypes="ccccccccc" opacity="0.4" fill="#ffffff"/>
  <g transform="translate(1.0000003,24.000032)" id="g3064">
   <path sodipodi:type="arc" id="path5780" sodipodi:cx="311.46875" sodipodi:cy="828.53125" sodipodi:rx="3.28125" sodipodi:ry="3.28125" d="m 314.75,828.53125 c 0,1.81218 -1.46907,3.28125 -3.28125,3.28125 -1.81218,0 -3.28125,-1.46907 -3.28125,-3.28125 0,-1.81218 1.46907,-3.28125 3.28125,-3.28125 1.81218,0 3.28125,1.46907 3.28125,3.28125 z" transform="matrix(2.1333337,0,0,1.9809524,-648.46678,-1634.781)" fill="url(#radialGradient4268)" fill-rule="evenodd"/>
   <path inkscape:connector-curvature="0" sodipodi:nodetypes="ccccscccscccscccsccccc" id="path5784" d="m 16.545272,0.63453177 c -0.58763,-0.27486 -1.28757,-0.0285 -1.572258,0.55351003 l -0.920134,2.16764 -2.025459,0.26363 c -0.443965,0.0691 -0.810897,0.38217 -0.948243,0.80908 -0.137377,0.42691 -0.02168,0.89462 0.298959,1.20872 l 1.419375,1.41193 -0.367692,1.97449 c -0.09463,0.44908 0.07896,0.91233 0.445583,1.1893602 0.366618,0.277 0.860509,0.31805 1.268033,0.10538 l 1.850134,-0.9319202 1.756819,0.9524502 c 0.396721,0.21052 0.878528,0.17975 1.245107,-0.0795 0.366589,-0.25925 0.555259,-0.7027002 0.487601,-1.1459802 l -0.330966,-1.9869 1.461851,-1.42358 c 0.329231,-0.3166 0.447198,-0.79363 0.303416,-1.22673 -0.143783,-0.4331 -0.523856,-0.74547 -0.977393,-0.80331 l -1.991315,-0.29303 -0.832771,-2.16171 C 17.00077,0.96239177 16.798605,0.75566177 16.545272,0.63457177 l 0,0 0,-10e-6 z" fill="url(#radialGradient4270)" fill-rule="evenodd" stroke="url(#radialGradient4272)" stroke-linejoin="round" stroke-linecap="round" stroke-width="1.045" stroke-dashoffset="0.361"/>
  </g>
 </g>
</svg>
