<?xml version="1.0" encoding="UTF-8" standalone="no"?>
<svg xmlns="http://www.w3.org/2000/svg" xmlns:xlink="http://www.w3.org/1999/xlink" xmlns:sodipodi="http://sodipodi.sourceforge.net/DTD/sodipodi-0.dtd" xmlns:inkscape="http://www.inkscape.org/namespaces/inkscape" width="24" height="24" version="1.1">
 <defs id="defs3497">
  <linearGradient inkscape:collect="always" id="linearGradient3911">
   <stop id="stop3913"/>
   <stop offset="1" id="stop3915" stop-opacity="0"/>
  </linearGradient>
  <linearGradient id="linearGradient4368">
   <stop id="stop4370" stop-color="#a0a0a0"/>
   <stop offset="1" id="stop4372" stop-color="#ffffff"/>
  </linearGradient>
  <linearGradient id="linearGradient4342">
   <stop id="stop4344" stop-opacity="0"/>
   <stop id="stop4352" offset="0.1"/>
   <stop id="stop4350" offset="0.9"/>
   <stop offset="1" id="stop4346" stop-opacity="0"/>
  </linearGradient>
  <clipPath id="clipPath3669">
   <path d="M 0,96 96,96 96,0 0,0 0,96 z" id="path3671"/>
  </clipPath>
  <linearGradient inkscape:collect="always" xlink:href="#linearGradient3821" id="linearGradient3793" y1="22" x2="0" y2="-2" gradientUnits="userSpaceOnUse" gradientTransform="translate(0,26)"/>
  <linearGradient id="linearGradient3821">
   <stop id="stop3823" stop-color="#cccccc" stop-opacity="0"/>
   <stop id="stop4356" offset="0.1" stop-color="#cccccc"/>
   <stop id="stop4354" offset="0.9" stop-color="#cccccc"/>
   <stop offset="1" id="stop3825" stop-color="#cccccc" stop-opacity="0"/>
  </linearGradient>
  <linearGradient y2="-2" x2="0" y1="22" gradientTransform="translate(31.883514,24.756453)" gradientUnits="userSpaceOnUse" id="linearGradient3011" xlink:href="#linearGradient3821" inkscape:collect="always"/>
  <linearGradient inkscape:collect="always" xlink:href="#linearGradient3821" id="linearGradient3810" gradientUnits="userSpaceOnUse" y1="22" x2="0" y2="0"/>
  <radialGradient inkscape:collect="always" xlink:href="#linearGradient3911" id="radialGradient3960" gradientUnits="userSpaceOnUse" gradientTransform="matrix(1,0,0,0.75,-21,12.375)" cx="40" cy="43.5" r="2"/>
  <radialGradient inkscape:collect="always" xlink:href="#linearGradient3911" id="radialGradient3957" gradientUnits="userSpaceOnUse" gradientTransform="matrix(1,0,0,0.75,-4,12.375)" cx="9" cy="43.5" r="2"/>
  <linearGradient inkscape:collect="always" xlink:href="#linearGradient3960" id="linearGradient3954" gradientUnits="userSpaceOnUse" gradientTransform="translate(-8,1.5)" y1="45" x2="0" y2="42"/>
  <linearGradient id="linearGradient3960">
   <stop id="stop3962" stop-opacity="0"/>
   <stop id="stop3970" offset="0.5"/>
   <stop offset="1" id="stop3964" stop-opacity="0"/>
  </linearGradient>
  <linearGradient inkscape:collect="always" xlink:href="#linearGradient3960" id="linearGradient4055" gradientUnits="userSpaceOnUse" gradientTransform="translate(-9,-1)" y1="45" x2="0" y2="42"/>
  <linearGradient inkscape:collect="always" xlink:href="#linearGradient3960" id="linearGradient4055-2" gradientUnits="userSpaceOnUse" gradientTransform="translate(-9,-1)" y1="45" x2="0" y2="42"/>
  <linearGradient inkscape:collect="always" xlink:href="#linearGradient3821" id="linearGradient3233" gradientUnits="userSpaceOnUse" y1="22" x2="0" y2="0" gradientTransform="translate(2,34)"/>
  <linearGradient inkscape:collect="always" xlink:href="#linearGradient3821" id="linearGradient3247" gradientUnits="userSpaceOnUse" y1="22" x2="0" y2="0" gradientTransform="translate(1,29)"/>
  <linearGradient inkscape:collect="always" xlink:href="#linearGradient3821" id="linearGradient3261" gradientUnits="userSpaceOnUse" x1="22" x2="0" gradientTransform="translate(1,22)"/>
  <linearGradient inkscape:collect="always" xlink:href="#linearGradient3821" id="linearGradient3275" gradientUnits="userSpaceOnUse" y1="22" x2="0" y2="0" gradientTransform="translate(3,19)"/>
  <linearGradient inkscape:collect="always" xlink:href="#linearGradient4342" id="linearGradient4348" x1="1" x2="21" gradientUnits="userSpaceOnUse" gradientTransform="translate(1,-5)"/>
  <linearGradient inkscape:collect="always" xlink:href="#linearGradient4368" id="linearGradient4374" x1="7.5" x2="13.5" gradientUnits="userSpaceOnUse" gradientTransform="translate(22,-50)"/>
  <linearGradient x2="15" x1="11" gradientUnits="userSpaceOnUse" id="linearGradient3021" xlink:href="#linearGradient3760" inkscape:collect="always"/>
  <linearGradient id="outerBackgroundGradient-4">
   <stop id="stop3864-8-6-6" stop-color="#f0f0f0"/>
   <stop offset="1" id="stop3866-9-1-7" stop-color="#f9f9f9"/>
  </linearGradient>
  <radialGradient inkscape:collect="always" xlink:href="#linearGradient3911" id="radialGradient3872" cx="16.5" cy="20.5" r="5.5" gradientTransform="matrix(1,0,0,0.27272727,0,14.909091)" gradientUnits="userSpaceOnUse"/>
  <linearGradient inkscape:collect="always" xlink:href="#linearGradient3760" id="linearGradient3802" y1="0" x2="0" y2="22" gradientUnits="userSpaceOnUse"/>
  <linearGradient id="linearGradient3760">
   <stop id="stop3762" stop-color="#e44343"/>
   <stop offset="1" id="stop3764" stop-color="#ac0808"/>
  </linearGradient>
  <linearGradient gradientTransform="translate(17,30)" y2="22" x2="0" y1="0" gradientUnits="userSpaceOnUse" id="linearGradient3130" xlink:href="#linearGradient3760" inkscape:collect="always"/>
  <radialGradient inkscape:collect="always" xlink:href="#linearGradient3911" id="radialGradient3917" cx="11" cy="10.5" r="10" gradientTransform="matrix(1,0,0,0.25,0,7.875)" gradientUnits="userSpaceOnUse"/>
 </defs>
 <metadata id="metadata3500"/>
 <g id="layer1" inkscape:label="Layer 1" inkscape:groupmode="layer" transform="translate(0,-24)">
  <path sodipodi:type="arc" id="path3141" sodipodi:cx="11" sodipodi:cy="10.5" sodipodi:rx="10" sodipodi:ry="2.5" d="M 21,10.5 C 21,11.880712 16.522847,13 11,13 5.4771525,13 1,11.880712 1,10.5 1,9.1192881 5.4771525,8 11,8 c 5.522847,0 10,1.1192881 10,2.5 z" transform="translate(1,24)" opacity="0.3" fill="url(#radialGradient3917)" stroke="#ffffff" stroke-linejoin="round" stroke-linecap="round" stroke-width="0"/>
  <path inkscape:connector-curvature="0" d="m 2.5,31.5 0,0.5 0,1 0,0.5 0.5,0 18,0 0.5,0 0,-0.5 0,-1 0,-0.5 -0.5,0 -18,0 z" id="path3091" sodipodi:nodetypes="ccccccccccccc" fill="url(#linearGradient3261)"/>
  <path inkscape:connector-curvature="0" id="path3093" d="m 2.5,31.5 0,0.5 0,1 0,0.5 0.5,0 18,0 0.5,0 0,-0.5 0,-1 0,-0.5 -0.5,0 -18,0 z" sodipodi:nodetypes="ccccccccccccc" opacity="0.61" fill="none" stroke="url(#linearGradient4348)"/>
  <rect id="rect4358" width="6" height="6" x="29.5" y="-15.5" transform="matrix(0,1,-1,0,0,0)" fill="url(#linearGradient4374)"/>
  <rect y="29.5" x="9.5" height="6" width="6" id="rect4360" opacity="0.41" fill="none" stroke="#000000"/>
  <path d="m 10,30 0,1 0,0 1,0 0,0 4,0 0,-1 -4,0 z" id="rect4366" inkscape:connector-curvature="0" sodipodi:nodetypes="ccccccccc" opacity="0.4" fill="#ffffff"/>
  <g id="g4431" transform="translate(1,-1)">
   <path transform="matrix(0.81818182,0,0,1,3,26)" d="M 22,20.5 C 22,21.328427 19.537566,22 16.5,22 13.462434,22 11,21.328427 11,20.5 11,19.671573 13.462434,19 16.5,19 c 3.037566,0 5.5,0.671573 5.5,1.5 z" sodipodi:ry="1.5" sodipodi:rx="5.5" sodipodi:cy="20.5" sodipodi:cx="16.5" id="path3864" sodipodi:type="arc" opacity="0.4" fill="url(#radialGradient3872)"/>
   <path transform="matrix(0,2.4999844,2.4999844,0,-15.999797,10.000236)" d="m 15,13 c 0,1.104569 -0.895431,2 -2,2 -1.104569,0 -2,-0.895431 -2,-2 0,-1.104569 0.895431,-2 2,-2 1.104569,0 2,0.895431 2,2 z" sodipodi:ry="2" sodipodi:rx="2" sodipodi:cy="13" sodipodi:cx="13" id="path3042" sodipodi:type="arc" fill="url(#linearGradient3021)"/>
   <path sodipodi:type="arc" id="path3814" sodipodi:cx="13" sodipodi:cy="13" sodipodi:rx="2" sodipodi:ry="2" d="m 15,13 c 0,1.104569 -0.895431,2 -2,2 -1.104569,0 -2,-0.895431 -2,-2 0,-1.104569 0.895431,-2 2,-2 1.104569,0 2,0.895431 2,2 z" transform="matrix(2.4999844,0,0,2.4999844,-15.999797,10.000234)" opacity="0.81" fill="none" stroke="#790000" stroke-width="0.4"/>
   <path sodipodi:nodetypes="cscccscscccscscccscscccsc" inkscape:connector-curvature="0" id="path5757" d="m 14,40 0,1 c 0,0.27614 0.10029,0.53778 0.28125,0.71875 L 15.062875,42.500375 14.28125,43.282 C 14.10029,43.46297 14,43.724609 14,44.00075 l 0,1 1,0 c 0.27614,0 0.53779,-0.10028 0.71875,-0.28125 L 16.500375,43.937875 17.282,44.7195 c 0.18096,0.18097 0.442607,0.28125 0.71875,0.28125 l 1,0 0,-1 c 0,-0.27614 -0.10029,-0.53778 -0.28125,-0.71875 L 17.937875,42.500375 18.7195,41.71875 C 18.90046,41.53778 18.973273,41.27477 19.00075,41 l 0,-1 -1,0 c -0.27614,0 -0.53779,0.10028 -0.71875,0.28125 L 16.500375,41.062875 15.71875,40.28125 C 15.53779,40.10028 15.276144,40 15,40 z" fill="#ffffff" color="#000000" stroke-width="2"/>
  </g>
 </g>
</svg>
