<?xml version="1.0" encoding="UTF-8" standalone="no"?>
<svg
   xmlns:dc="http://purl.org/dc/elements/1.1/"
   xmlns:cc="http://creativecommons.org/ns#"
   xmlns:rdf="http://www.w3.org/1999/02/22-rdf-syntax-ns#"
   xmlns:svg="http://www.w3.org/2000/svg"
   xmlns="http://www.w3.org/2000/svg"
   xmlns:xlink="http://www.w3.org/1999/xlink"
   version="1.1"
   id="svg3495"
   height="24"
   width="24">
  <defs
     id="defs3497">
    <linearGradient
       id="linearGradient4368">
      <stop
         id="stop4370"
         offset="0"
         style="stop-color:#a0a0a0;stop-opacity:1;" />
      <stop
         id="stop4372"
         offset="1"
         style="stop-color:#ffffff;stop-opacity:1;" />
    </linearGradient>
    <linearGradient
       id="linearGradient4342">
      <stop
         id="stop4344"
         offset="0"
         style="stop-color:#000000;stop-opacity:0;" />
      <stop
         style="stop-color:#000000;stop-opacity:1;"
         offset="0.1"
         id="stop4352" />
      <stop
         style="stop-color:#000000;stop-opacity:1;"
         offset="0.89999998"
         id="stop4350" />
      <stop
         id="stop4346"
         offset="1"
         style="stop-color:#000000;stop-opacity:0;" />
    </linearGradient>
    <linearGradient
       id="linearGradient3821">
      <stop
         id="stop3823"
         offset="0"
         style="stop-color:#cccccc;stop-opacity:0;" />
      <stop
         style="stop-color:#cccccc;stop-opacity:1;"
         offset="0.1"
         id="stop4356" />
      <stop
         style="stop-color:#cccccc;stop-opacity:1;"
         offset="0.89999998"
         id="stop4354" />
      <stop
         id="stop3825"
         offset="1"
         style="stop-color:#cccccc;stop-opacity:0;" />
    </linearGradient>
    <linearGradient
       gradientTransform="translate(1,29)"
       y2="10"
       x2="0"
       y1="10"
       x1="22"
       gradientUnits="userSpaceOnUse"
       id="linearGradient3261"
       xlink:href="#linearGradient3821" />
    <linearGradient
       gradientTransform="translate(1,2)"
       gradientUnits="userSpaceOnUse"
       y2="37.5"
       x2="21"
       y1="37.5"
       x1="1"
       id="linearGradient4348"
       xlink:href="#linearGradient4342" />
    <radialGradient
       r="3.28125"
       fy="828.53125"
       fx="311.46875"
       cy="828.53125"
       cx="311.46875"
       gradientUnits="userSpaceOnUse"
       id="radialGradient4268"
       xlink:href="#linearGradient6557-4" />
    <linearGradient
       id="linearGradient6557-4">
      <stop
         id="stop6559-2"
         offset="0"
         style="stop-color:#fce94f;stop-opacity:1;" />
      <stop
         style="stop-color:#fce94f;stop-opacity:1"
         offset="0.67301035"
         id="stop6565-2" />
      <stop
         id="stop6561-7"
         offset="1"
         style="stop-color:#fce94f;stop-opacity:0;" />
    </linearGradient>
    <linearGradient
       id="linearGradient6620-1">
      <stop
         style="stop-color:#ffffff;stop-opacity:1"
         offset="0"
         id="stop6622-7" />
      <stop
         id="stop6624-4"
         offset="0.32992947"
         style="stop-color:#ffffff;stop-opacity:1" />
      <stop
         style="stop-color:#fce94f;stop-opacity:1"
         offset="1"
         id="stop6626-5" />
    </linearGradient>
    <linearGradient
       id="linearGradient6633">
      <stop
         style="stop-color:#edd400;stop-opacity:1"
         offset="0"
         id="stop6635" />
      <stop
         style="stop-color:#c4a000;stop-opacity:1"
         offset="1"
         id="stop6637" />
    </linearGradient>
    <radialGradient
       xlink:href="#linearGradient6620-1"
       id="radialGradient3193"
       gradientUnits="userSpaceOnUse"
       gradientTransform="matrix(2.1730275,0,0,1.9594181,-672.25707,-1534.79)"
       cx="316.08578"
       cy="785.15662"
       fx="316.08578"
       fy="785.15662"
       r="5.4999967" />
    <radialGradient
       xlink:href="#linearGradient6633"
       id="radialGradient3195"
       gradientUnits="userSpaceOnUse"
       gradientTransform="matrix(4.5697471,-0.00304895,0,4.2377637,-1400.2274,-3458.4132)"
       cx="309.36545"
       cy="816.90698"
       fx="309.36545"
       fy="816.90698"
       r="5.2188735" />
    <linearGradient
       y2="37.5"
       x2="13.5"
       y1="37.5"
       x1="7.5"
       gradientTransform="translate(29,-50)"
       gradientUnits="userSpaceOnUse"
       id="linearGradient4637"
       xlink:href="#linearGradient4368" />
    <linearGradient
       id="linearGradient3911">
      <stop
         id="stop3913"
         offset="0"
         style="stop-color:#000000;stop-opacity:1;" />
      <stop
         id="stop3915"
         offset="1"
         style="stop-color:#000000;stop-opacity:0;" />
    </linearGradient>
    <radialGradient
       xlink:href="#linearGradient3911"
       id="radialGradient3934"
       gradientUnits="userSpaceOnUse"
       gradientTransform="matrix(1,0,0,0.25,0,7.875)"
       cx="11"
       cy="10.5"
       fx="11"
       fy="10.5"
       r="10" />
  </defs>
  <metadata
     id="metadata3500">
    <rdf:RDF>
      <cc:Work
         rdf:about="">
        <dc:format>image/svg+xml</dc:format>
        <dc:type
           rdf:resource="http://purl.org/dc/dcmitype/StillImage" />
        <dc:title />
      </cc:Work>
    </rdf:RDF>
  </metadata>
  <g
     transform="translate(0,-24)"
     id="layer1">
    <path
       d="M 21,10.5 C 21,11.880712 16.522847,13 11,13 5.4771525,13 1,11.880712 1,10.5 1,9.1192881 5.4771525,8 11,8 c 5.522847,0 10,1.1192881 10,2.5 z"
       id="path3141"
       style="opacity:0.3;fill:url(#radialGradient3934);fill-opacity:1;stroke:#ffffff;stroke-width:0;stroke-linecap:round;stroke-linejoin:round;stroke-miterlimit:4;stroke-opacity:1;stroke-dasharray:none"
       transform="translate(1,31)" />
    <path
       id="path3091"
       d="m 2.5,38.5 0,0.5 0,1 0,0.5 0.5,0 18,0 0.5,0 0,-0.5 0,-1 0,-0.5 -0.5,0 -18,0 z"
       style="fill:url(#linearGradient3261);fill-opacity:1;stroke:none" />
    <path
       style="opacity:0.61000001;fill:none;stroke:url(#linearGradient4348);stroke-width:1;stroke-miterlimit:4;stroke-opacity:1;stroke-dasharray:none"
       d="m 2.5,38.5 0,0.5 0,1 0,0.5 0.5,0 18,0 0.5,0 0,-0.5 0,-1 0,-0.5 -0.5,0 -18,0 z"
       id="path3093" />
    <rect
       transform="matrix(0,1,-1,0,0,0)"
       y="-15.5"
       x="36.5"
       height="6"
       width="6"
       id="rect4358"
       style="fill:url(#linearGradient4637);fill-opacity:1;stroke:none" />
    <rect
       style="opacity:0.41000001;fill:none;stroke:#000000;stroke-opacity:1"
       id="rect4360"
       width="6"
       height="6"
       x="9.5"
       y="36.5" />
    <path
       id="rect4366"
       d="m 10,37 0,1 0,0 1,0 0,0 4,0 0,-1 -4,0 z"
       style="opacity:0.4;fill:#ffffff;fill-opacity:1;stroke:none" />
    <g
       id="g3064"
       transform="translate(1.0000003,24.000032)">
      <path
         transform="matrix(2.1333337,0,0,1.9809524,-648.46678,-1634.781)"
         d="m 314.75,828.53125 c 0,1.81218 -1.46907,3.28125 -3.28125,3.28125 -1.81218,0 -3.28125,-1.46907 -3.28125,-3.28125 0,-1.81218 1.46907,-3.28125 3.28125,-3.28125 1.81218,0 3.28125,1.46907 3.28125,3.28125 z"
         id="path5780"
         style="fill:url(#radialGradient4268);fill-opacity:1;fill-rule:evenodd;stroke:none" />
      <path
         style="fill:url(#radialGradient3193);fill-opacity:1;fill-rule:evenodd;stroke:url(#radialGradient3195);stroke-width:1.04452038;stroke-linecap:round;stroke-linejoin:round;stroke-miterlimit:4;stroke-opacity:1;stroke-dashoffset:0.3612;display:inline"
         d="m 16.545272,0.63453177 c -0.58763,-0.27486 -1.28757,-0.0285 -1.572258,0.55351003 l -0.920134,2.16764 -2.025459,0.26363 c -0.443965,0.0691 -0.810897,0.38217 -0.948243,0.80908 -0.137377,0.42691 -0.02168,0.89462 0.298959,1.20872 l 1.419375,1.41193 -0.367692,1.97449 c -0.09463,0.44908 0.07896,0.91233 0.445583,1.1893602 0.366618,0.277 0.860509,0.31805 1.268033,0.10538 l 1.850134,-0.9319202 1.756819,0.9524502 c 0.396721,0.21052 0.878528,0.17975 1.245107,-0.0795 0.366589,-0.25925 0.555259,-0.7027002 0.487601,-1.1459802 l -0.330966,-1.9869 1.461851,-1.42358 c 0.329231,-0.3166 0.447198,-0.79363 0.303416,-1.22673 -0.143783,-0.4331 -0.523856,-0.74547 -0.977393,-0.80331 l -1.991315,-0.29303 -0.832771,-2.16171 C 17.00077,0.96239177 16.798605,0.75566177 16.545272,0.63457177 l 0,0 0,-10e-6 z"
         id="path5784" />
    </g>
  </g>
</svg>
