<?xml version="1.0" encoding="UTF-8" standalone="no"?>
<svg
   xmlns:dc="http://purl.org/dc/elements/1.1/"
   xmlns:cc="http://creativecommons.org/ns#"
   xmlns:rdf="http://www.w3.org/1999/02/22-rdf-syntax-ns#"
   xmlns:svg="http://www.w3.org/2000/svg"
   xmlns="http://www.w3.org/2000/svg"
   xmlns:xlink="http://www.w3.org/1999/xlink"
   version="1.1"
   id="svg3495"
   height="24"
   width="24">
  <defs
     id="defs3497">
    <linearGradient
       id="linearGradient3881">
      <stop
         id="stop3883"
         offset="0"
         style="stop-color:#000000;stop-opacity:0;" />
      <stop
         style="stop-color:#000000;stop-opacity:1;"
         offset="0.07756161"
         id="stop3891" />
      <stop
         style="stop-color:#000000;stop-opacity:1;"
         offset="0.91666669"
         id="stop3889" />
      <stop
         id="stop3885"
         offset="1"
         style="stop-color:#000000;stop-opacity:0;" />
    </linearGradient>
    <linearGradient
       id="linearGradient3413">
      <stop
         id="stop3415"
         offset="0"
         style="stop-color:#dddddd;stop-opacity:1;" />
      <stop
         id="stop3417"
         offset="1"
         style="stop-color:#f2f2f2;stop-opacity:1;" />
    </linearGradient>
    <linearGradient
       y2="12.5"
       x2="23"
       y1="12.5"
       x1="1"
       gradientTransform="translate(0,-2)"
       gradientUnits="userSpaceOnUse"
       id="linearGradient4158"
       xlink:href="#linearGradient3881" />
    <linearGradient
       y2="14"
       x2="0"
       y1="14"
       x1="9"
       gradientTransform="translate(1,-2)"
       gradientUnits="userSpaceOnUse"
       id="linearGradient4160"
       xlink:href="#linearGradient3413" />
  </defs>
  <metadata
     id="metadata3500">
    <rdf:RDF>
      <cc:Work
         rdf:about="">
        <dc:format>image/svg+xml</dc:format>
        <dc:type
           rdf:resource="http://purl.org/dc/dcmitype/StillImage" />
        <dc:title />
      </cc:Work>
    </rdf:RDF>
  </metadata>
  <g
     transform="translate(0,-24)"
     id="layer1" />
  <g
     transform="translate(0,2)"
     id="layer2">
    <g
       transform="matrix(0,-1,1,0,2,22)"
       id="g4150">
      <path
         id="rect3859"
         d="m 0.5,9 0,0.5 0,1 0,0.5 L 1,11 2.5,11 3,11 3,10.5 3,9.5 3,9 2.5,9 1,9 0.5,9 z m 3.5,0 0,0.5 0,1 0,0.5 0.5,0 2,0 L 7,11 7,10.5 7,9.5 7,9 6.5,9 4.5,9 4,9 z m 4,0 0,0.5 0,1 0,0.5 0.5,0 2,0 0.5,0 0,-0.5 0,-1 L 11,9 10.5,9 8.5,9 8,9 z m 4,0 0,0.5 0,1 0,0.5 0.5,0 2,0 0.5,0 0,-0.5 0,-1 0,-0.5 -0.5,0 -2,0 -0.5,0 z m 4,0 0,0.5 0,1 0,0.5 0.5,0 2,0 0.5,0 0,-0.5 0,-1 0,-0.5 -0.5,0 -2,0 -0.5,0 z m 4,0 0,2 3,0 0,-2 -3,0 z"
         style="opacity:0.61000001;fill:url(#linearGradient4158);fill-opacity:1;stroke:none" />
      <g
         id="g3907"
         transform="matrix(0,1,-1,0,22,-2)">
        <path
           id="path3878"
           d="m 1.5,18.5 8,-18 0,18 z"
           style="fill:url(#linearGradient4160);fill-opacity:1;stroke:none" />
        <path
           style="opacity:0.41000001;fill:none;stroke:#000000;stroke-linejoin:round;stroke-opacity:1"
           d="m 1.5,18.5 8,-18 0,18 z"
           id="path3890" />
        <path
           id="path3892"
           transform="translate(0,-2)"
           d="M 9,4.875 2.28125,20 2.71875,20 9,5.875 l 0,-1 z"
           style="opacity:0.6;fill:#ffffff;fill-opacity:1;stroke:none" />
      </g>
      <path
         style="opacity:0.8;fill:none;stroke:#000000;stroke-width:1;stroke-linejoin:round;stroke-miterlimit:4;stroke-opacity:1;stroke-dasharray:1, 1;stroke-dashoffset:0.8"
         d="m 3.5,20.5 18,-8 -18,0 z"
         id="path3916" />
    </g>
  </g>
</svg>
