<?xml version="1.0" encoding="UTF-8" standalone="no"?>
<svg xmlns="http://www.w3.org/2000/svg" xmlns:xlink="http://www.w3.org/1999/xlink" xmlns:sodipodi="http://sodipodi.sourceforge.net/DTD/sodipodi-0.dtd" xmlns:inkscape="http://www.inkscape.org/namespaces/inkscape" width="24" height="24" version="1.1">
 <defs id="defs3497">
  <linearGradient id="linearGradient3893">
   <stop id="stop3895" stop-color="#555555" stop-opacity="0"/>
   <stop id="stop3903" offset="0.05" stop-color="#555555"/>
   <stop id="stop3901" offset="0.95" stop-color="#555555"/>
   <stop offset="1" id="stop3897" stop-color="#555555" stop-opacity="0"/>
  </linearGradient>
  <linearGradient id="linearGradient3881">
   <stop id="stop3883" stop-opacity="0"/>
   <stop id="stop3891" offset="0.078"/>
   <stop id="stop3889" offset="0.917"/>
   <stop offset="1" id="stop3885" stop-opacity="0"/>
  </linearGradient>
  <clipPath id="clipPath3669">
   <path d="M 0,96 96,96 96,0 0,0 0,96 z" id="path3671"/>
  </clipPath>
  <linearGradient inkscape:collect="always" xlink:href="#linearGradient3821" id="linearGradient3827" y1="16" x2="0" y2="0" gradientUnits="userSpaceOnUse"/>
  <linearGradient id="linearGradient3821">
   <stop id="stop3823" stop-color="#555555"/>
   <stop offset="1" id="stop3825" stop-color="#666666"/>
  </linearGradient>
  <linearGradient gradientTransform="translate(14.052433,27.326995)" y2="0" x2="0" y1="16" gradientUnits="userSpaceOnUse" id="linearGradient3056" xlink:href="#linearGradient3821" inkscape:collect="always"/>
  <linearGradient inkscape:collect="always" xlink:href="#linearGradient4134" id="linearGradient4140" x1="789" x2="827" gradientUnits="userSpaceOnUse"/>
  <linearGradient inkscape:collect="always" id="linearGradient4134">
   <stop id="stop4136" stop-color="#ffffff"/>
   <stop offset="1" id="stop4138" stop-color="#ffffff" stop-opacity="0"/>
  </linearGradient>
  <clipPath id="clipPath4130">
   <path id="path4132" d="M 790.4375,237 C 789.62555,237 789,237.62555 789,238.4375 l 0,35.09375 c 0,0.812 0.62555,1.46875 1.4375,1.46875 l 35.125,0 c 0.81195,0 1.4375,-0.65675 1.4375,-1.46875 l 0,-35.09375 C 827,237.62555 826.37445,237 825.5625,237 l -35.125,0 z"/>
  </clipPath>
  <linearGradient id="linearGradient3413">
   <stop id="stop3415" stop-color="#dddddd"/>
   <stop offset="1" id="stop3417" stop-color="#f2f2f2"/>
  </linearGradient>
  <linearGradient id="outerBackgroundGradient-6">
   <stop id="stop3864-8-6-0" stop-color="#c23021"/>
   <stop offset="1" id="stop3866-9-1-7" stop-color="#e74c3c"/>
  </linearGradient>
  <linearGradient inkscape:collect="always" xlink:href="#linearGradient4134" id="linearGradient3907" x1="2" x2="20" gradientUnits="userSpaceOnUse" gradientTransform="matrix(0,1,-1,0,22,26)"/>
  <linearGradient inkscape:collect="always" xlink:href="#linearGradient3413" id="linearGradient3796" gradientUnits="userSpaceOnUse" gradientTransform="matrix(0,-1,1,0,0,22)" x1="1.5" x2="20.5"/>
  <linearGradient id="linearGradient6557-4">
   <stop id="stop6559-2" stop-color="#fce94f"/>
   <stop id="stop6565-2" offset="0.673" stop-color="#fce94f"/>
   <stop offset="1" id="stop6561-7" stop-color="#fce94f" stop-opacity="0"/>
  </linearGradient>
  <radialGradient r="5.5" cy="785.16" cx="316.09" gradientTransform="matrix(2.1730275,0,0,1.9594181,-672.25707,-1534.79)" gradientUnits="userSpaceOnUse" id="radialGradient4371" xlink:href="#linearGradient6620-1" inkscape:collect="always"/>
  <linearGradient id="linearGradient6620-1">
   <stop id="stop6622-7" stop-color="#ffffff"/>
   <stop offset="0.33" id="stop6624-4" stop-color="#ffffff"/>
   <stop id="stop6626-5" offset="1" stop-color="#fce94f"/>
  </linearGradient>
  <radialGradient r="5.219" cy="816.91" cx="309.37" gradientTransform="matrix(4.5697471,-0.00304895,0,4.2377637,-1400.2274,-3458.4132)" gradientUnits="userSpaceOnUse" id="radialGradient4373" xlink:href="#linearGradient6633" inkscape:collect="always"/>
  <linearGradient id="linearGradient6633" inkscape:collect="always">
   <stop id="stop6635" stop-color="#edd400"/>
   <stop id="stop6637" offset="1" stop-color="#c4a000"/>
  </linearGradient>
  <radialGradient inkscape:collect="always" xlink:href="#linearGradient6557-4" id="radialGradient4133" gradientUnits="userSpaceOnUse" cx="311.47" cy="828.53" r="3.281"/>
  <linearGradient y2="10.349" x2="0" y1="27.801" gradientTransform="matrix(0.49219581,0,0,0.45839231,-4.4906943,7.2669423)" gradientUnits="userSpaceOnUse" id="linearGradient3093" xlink:href="#outerBackgroundGradient-6" inkscape:collect="always"/>
  <linearGradient inkscape:collect="always" id="linearGradient3952">
   <stop id="stop3954"/>
   <stop offset="1" id="stop3956" stop-opacity="0"/>
  </linearGradient>
  <linearGradient id="linearGradient3960">
   <stop id="stop3962" stop-opacity="0"/>
   <stop id="stop3970" offset="0.5"/>
   <stop offset="1" id="stop3964" stop-opacity="0"/>
  </linearGradient>
  <linearGradient y2="42" x2="0" y1="45" gradientTransform="translate(-4.0000003,0)" gradientUnits="userSpaceOnUse" id="linearGradient3196" xlink:href="#linearGradient3960" inkscape:collect="always"/>
  <linearGradient inkscape:collect="always" xlink:href="#linearGradient3960" id="linearGradient4474" gradientUnits="userSpaceOnUse" gradientTransform="translate(-8,2.999999)" y1="45" x2="0" y2="42"/>
  <radialGradient inkscape:collect="always" xlink:href="#linearGradient3952" id="radialGradient4477" gradientUnits="userSpaceOnUse" gradientTransform="matrix(1,0,0,0.75,-7,13.874999)" cx="9" cy="43.5" r="2"/>
  <radialGradient inkscape:collect="always" xlink:href="#linearGradient3952" id="radialGradient4480" gradientUnits="userSpaceOnUse" gradientTransform="matrix(1,0,0,0.75,-20,13.874999)" cx="40" cy="43.5" r="2"/>
  <radialGradient inkscape:collect="always" xlink:href="#linearGradient6557-4" id="radialGradient4268" gradientUnits="userSpaceOnUse" cx="311.47" cy="828.53" r="3.281"/>
  <radialGradient inkscape:collect="always" xlink:href="#linearGradient6620-1" id="radialGradient4270" gradientUnits="userSpaceOnUse" gradientTransform="matrix(2.1730275,0,0,1.9594181,-672.25707,-1534.79)" cx="316.09" cy="785.16" r="5.5"/>
  <radialGradient inkscape:collect="always" xlink:href="#linearGradient6633" id="radialGradient4272" gradientUnits="userSpaceOnUse" gradientTransform="matrix(4.5697471,-0.00304895,0,4.2377637,-1400.2274,-3458.4132)" cx="309.37" cy="816.91" r="5.219"/>
  <linearGradient inkscape:collect="always" xlink:href="#linearGradient3881" id="linearGradient4125" gradientUnits="userSpaceOnUse" x1="0.5" x2="23.5" gradientTransform="translate(0,-2)"/>
  <linearGradient inkscape:collect="always" xlink:href="#linearGradient3893" id="linearGradient4127" gradientUnits="userSpaceOnUse" x1="1" x2="23"/>
  <linearGradient inkscape:collect="always" xlink:href="#linearGradient3413" id="linearGradient3920" gradientUnits="userSpaceOnUse" gradientTransform="translate(1,-2)" y1="21" x2="0" y2="2"/>
  <linearGradient inkscape:collect="always" xlink:href="#linearGradient3893" id="linearGradient4071" gradientUnits="userSpaceOnUse" gradientTransform="matrix(0,-1,1,0,0,22)" x1="1" x2="23"/>
  <linearGradient inkscape:collect="always" xlink:href="#linearGradient3881" id="linearGradient4073" gradientUnits="userSpaceOnUse" gradientTransform="matrix(0,-1,1,0,0,22)" x1="0.5" x2="23.5"/>
  <linearGradient inkscape:collect="always" xlink:href="#linearGradient3413" id="linearGradient4075" gradientUnits="userSpaceOnUse" gradientTransform="translate(1,-2)" x1="9" x2="0"/>
  <linearGradient inkscape:collect="always" xlink:href="#linearGradient3881" id="linearGradient4138" gradientUnits="userSpaceOnUse" x1="1" x2="23"/>
 </defs>
 <metadata id="metadata3500"/>
 <g inkscape:groupmode="layer" id="layer2" inkscape:label="Symbol" transform="translate(0,2)">
  <g id="g4150" transform="matrix(0,-1,1,0,2,22)">
   <path d="m 0.5,9 0,0.5 0,1 0,0.5 L 1,11 2.5,11 3,11 3,10.5 3,9.5 3,9 2.5,9 1,9 0.5,9 z m 3.5,0 0,0.5 0,1 0,0.5 0.5,0 2,0 L 7,11 7,10.5 7,9.5 7,9 6.5,9 4.5,9 4,9 z m 4,0 0,0.5 0,1 0,0.5 0.5,0 2,0 0.5,0 0,-0.5 0,-1 L 11,9 10.5,9 8.5,9 8,9 z m 4,0 0,0.5 0,1 0,0.5 0.5,0 2,0 0.5,0 0,-0.5 0,-1 0,-0.5 -0.5,0 -2,0 -0.5,0 z m 4,0 0,0.5 0,1 0,0.5 0.5,0 2,0 0.5,0 0,-0.5 0,-1 0,-0.5 -0.5,0 -2,0 -0.5,0 z m 4,0 0,2 3,0 0,-2 -3,0 z" id="rect3859" inkscape:connector-curvature="0" opacity="0.61" fill="url(#linearGradient4138)"/>
   <g transform="matrix(0,1,-1,0,22,-2)" id="g3907">
    <path d="m 1.5,18.5 8,-18 0,18 z" id="path3878" inkscape:connector-curvature="0" sodipodi:nodetypes="cccc" fill="url(#linearGradient4075)"/>
    <path sodipodi:nodetypes="cccc" inkscape:connector-curvature="0" id="path3890" d="m 1.5,18.5 8,-18 0,18 z" opacity="0.41" fill="none" stroke="#000000" stroke-linejoin="round"/>
    <path d="M 9,4.875 2.28125,20 2.71875,20 9,5.875 l 0,-1 z" transform="translate(0,-2)" id="path3892" inkscape:connector-curvature="0" opacity="0.6" fill="#ffffff"/>
   </g>
   <path sodipodi:nodetypes="cccc" inkscape:connector-curvature="0" id="path3916" d="m 3.5,20.5 18,-8 -18,0 z" opacity="0.8" stroke-dasharray="1 1" fill="none" stroke="#000000" stroke-linejoin="round" stroke-dashoffset="0.8"/>
  </g>
 </g>
</svg>
