<?xml version="1.0" encoding="UTF-8" standalone="no"?>
<svg
   xmlns:dc="http://purl.org/dc/elements/1.1/"
   xmlns:cc="http://creativecommons.org/ns#"
   xmlns:rdf="http://www.w3.org/1999/02/22-rdf-syntax-ns#"
   xmlns:svg="http://www.w3.org/2000/svg"
   xmlns="http://www.w3.org/2000/svg"
   xmlns:xlink="http://www.w3.org/1999/xlink"
   version="1.1"
   id="svg3495"
   height="24"
   width="24">
  <defs
     id="defs3497">
    <linearGradient
       id="linearGradient3793">
      <stop
         style="stop-color:#956494;stop-opacity:1;"
         offset="0"
         id="stop3795" />
      <stop
         style="stop-color:#a367a2;stop-opacity:1;"
         offset="1"
         id="stop3797" />
    </linearGradient>
    <linearGradient
       id="linearGradient3821">
      <stop
         id="stop3823"
         offset="0"
         style="stop-color:#555555;stop-opacity:1;" />
      <stop
         id="stop3825"
         offset="1"
         style="stop-color:#666666;stop-opacity:1;" />
    </linearGradient>
    <linearGradient
       id="linearGradient3949">
      <stop
         id="stop3951"
         offset="0"
         style="stop-color:#000000;stop-opacity:1;" />
      <stop
         id="stop3953"
         offset="1"
         style="stop-color:#000000;stop-opacity:0;" />
    </linearGradient>
    <linearGradient
       y2="0"
       x2="11"
       y1="22"
       x1="11"
       gradientTransform="matrix(-1,0,0,1,23,47)"
       gradientUnits="userSpaceOnUse"
       id="linearGradient3799"
       xlink:href="#linearGradient3793" />
    <radialGradient
       r="9"
       fy="20"
       fx="11"
       cy="20"
       cx="11"
       gradientTransform="matrix(1,0,0,0.22222222,0,15.555556)"
       gradientUnits="userSpaceOnUse"
       id="radialGradient3801"
       xlink:href="#linearGradient3949" />
    <radialGradient
       r="9"
       fy="20"
       fx="11"
       cy="20"
       cx="11"
       gradientTransform="matrix(1,0,0,0.22222222,0,15.555556)"
       gradientUnits="userSpaceOnUse"
       id="radialGradient3803"
       xlink:href="#linearGradient3949" />
    <linearGradient
       y2="0"
       x2="11"
       y1="22"
       x1="11"
       gradientTransform="matrix(-1,0,0,1,23,47)"
       gradientUnits="userSpaceOnUse"
       id="linearGradient3805"
       xlink:href="#linearGradient3821" />
  </defs>
  <metadata
     id="metadata3500">
    <rdf:RDF>
      <cc:Work
         rdf:about="">
        <dc:format>image/svg+xml</dc:format>
        <dc:type
           rdf:resource="http://purl.org/dc/dcmitype/StillImage" />
        <dc:title />
      </cc:Work>
    </rdf:RDF>
  </metadata>
  <g
     transform="translate(0,-46)"
     id="layer1">
    <g
       id="g4507"
       transform="matrix(-1,0,0,1,23,20)">
      <path
         transform="matrix(1,0,0,1.5,0,15)"
         style="opacity:0.4;fill:url(#radialGradient3801);fill-opacity:1;stroke:none"
         id="path3163"
         d="m 20,20 c 0,1.104569 -4.029437,2 -9,2 -4.9705627,0 -9,-0.895431 -9,-2 0,-1.104569 4.0294373,-2 9,-2 4.970563,0 9,0.895431 9,2 z" />
      <path
         d="m 20,20 c 0,1.104569 -4.029437,2 -9,2 -4.9705627,0 -9,-0.895431 -9,-2 0,-1.104569 4.0294373,-2 9,-2 4.970563,0 9,0.895431 9,2 z"
         id="path3995"
         style="opacity:0.8;fill:url(#radialGradient3803);fill-opacity:1;stroke:none"
         transform="matrix(0.66666667,0,0,1,3.6666666,26)" />
    </g>
    <path
       id="path3010"
       d="m 12.1875,49.53125 c 0.810314,0.01735 1.622016,0.121237 2.40625,0.375 1.08523,0.349798 2.103101,0.907475 2.96875,1.65625 0.869013,0.747507 1.558191,1.635939 2.0625,2.65625 0.483501,0.984909 0.762757,2.055834 0.84375,3.15625 C 20.484331,57.584561 20.5,57.790841 20.5,58 c 0,0.886488 -0.135755,1.751862 -0.40625,2.59375 -0.348498,1.085256 -0.909224,2.101888 -1.65625,2.96875 -0.747069,0.867036 -1.635939,1.557018 -2.65625,2.0625 -0.986221,0.486878 -2.058678,0.762736 -3.15625,0.84375 C 12.427952,66.48349 12.232132,66.5 12.03125,66.5 L 12,66.5 c -0.87579,0 -1.765378,-0.140919 -2.59375,-0.40625 -0.0087,-0.0028 -0.02256,0.0028 -0.03125,0 C 8.301334,65.745426 7.299548,65.179156 6.4375,64.4375 5.569821,63.688885 4.87865,62.803363 4.375,61.78125 l -0.21875,-0.46875 0.4375,-0.21875 2.03125,-1 0.4375,-0.21875 0.21875,0.4375 c 0.310881,0.625119 0.746313,1.162642 1.28125,1.625 0.536608,0.461294 1.117629,0.815858 1.78125,1.03125 0.518449,0.167003 1.055441,0.25 1.59375,0.25 0.137851,-0.0014 0.285683,-0.0216 0.40625,-0.03125 0.684084,-0.0504 1.335368,-0.234207 1.9375,-0.53125 0.622875,-0.307089 1.160559,-0.712191 1.625,-1.25 0.461155,-0.533651 0.815827,-1.148784 1.03125,-1.8125 0.164626,-0.512616 0.25,-1.046249 0.25,-1.59375 0,-0.129575 -0.02117,-0.271792 -0.03125,-0.40625 -0.04963,-0.67467 -0.232588,-1.302215 -0.53125,-1.90625 -0.308697,-0.62543 -0.716092,-1.163714 -1.25,-1.625 -0.534884,-0.46164 -1.14949,-0.816727 -1.8125,-1.03125 -0.617117,-0.197743 -1.284961,-0.257068 -2,-0.21875 -0.658237,0.04868 -1.313713,0.2064 -1.90625,0.5 -0.287712,0.141993 -0.5664,0.377104 -0.84375,0.59375 l 0.96875,0.84375 0.75,0.65625 L 9.5625,55.625 4.53125,56.8125 3.875,56.96875 3.9375,56.28125 4.3125,51.125 4.375,50.15625 l 0.75,0.625 1.15625,1 c 0.58637,-0.542978 1.21423,-1.05022 1.9375,-1.40625 0.984061,-0.488912 2.049016,-0.76205 3.15625,-0.84375 0.266868,-0.01568 0.542395,-0.0058 0.8125,0 z"
       style="font-size:medium;font-style:normal;font-variant:normal;font-weight:normal;font-stretch:normal;text-indent:0;text-align:start;text-decoration:none;line-height:normal;letter-spacing:normal;word-spacing:normal;text-transform:none;direction:ltr;block-progression:tb;writing-mode:lr-tb;text-anchor:start;baseline-shift:baseline;color:#000000;fill:url(#linearGradient3799);fill-opacity:1;stroke:none;stroke-width:1;marker:none;visibility:visible;display:inline;overflow:visible;enable-background:accumulate;font-family:Sans;-inkscape-font-specification:Sans" />
    <g
       transform="matrix(-0.5,0,0,0.5,27.788834,44.000001)"
       style="opacity:0.1;fill:#ffffff;fill-opacity:1"
       id="g4776" />
    <path
       style="font-size:medium;font-style:normal;font-variant:normal;font-weight:normal;font-stretch:normal;text-indent:0;text-align:start;text-decoration:none;line-height:normal;letter-spacing:normal;word-spacing:normal;text-transform:none;direction:ltr;block-progression:tb;writing-mode:lr-tb;text-anchor:start;baseline-shift:baseline;opacity:0.61000001;color:#000000;fill:none;stroke:#430041;stroke-width:1;stroke-opacity:1;marker:none;visibility:visible;display:inline;overflow:visible;enable-background:accumulate;font-family:Sans;-inkscape-font-specification:Sans"
       d="m 12.1875,49.53125 c 0.810314,0.01735 1.622016,0.121237 2.40625,0.375 1.08523,0.349798 2.103101,0.907475 2.96875,1.65625 0.869013,0.747507 1.558191,1.635939 2.0625,2.65625 0.483501,0.984909 0.762757,2.055834 0.84375,3.15625 C 20.484331,57.584561 20.5,57.790841 20.5,58 c 0,0.886488 -0.135755,1.751862 -0.40625,2.59375 -0.348498,1.085256 -0.909224,2.101888 -1.65625,2.96875 -0.747069,0.867036 -1.635939,1.557018 -2.65625,2.0625 -0.986221,0.486878 -2.058678,0.762736 -3.15625,0.84375 C 12.427952,66.48349 12.232132,66.5 12.03125,66.5 L 12,66.5 c -0.87579,0 -1.765378,-0.140919 -2.59375,-0.40625 -0.0087,-0.0028 -0.02256,0.0028 -0.03125,0 C 8.301334,65.745426 7.299548,65.179156 6.4375,64.4375 5.569821,63.688885 4.87865,62.803363 4.375,61.78125 l -0.21875,-0.46875 0.4375,-0.21875 2.03125,-1 0.4375,-0.21875 0.21875,0.4375 c 0.310881,0.625119 0.746313,1.162642 1.28125,1.625 0.536608,0.461294 1.117629,0.815858 1.78125,1.03125 0.518449,0.167003 1.055441,0.25 1.59375,0.25 0.137851,-0.0014 0.285683,-0.0216 0.40625,-0.03125 0.684084,-0.0504 1.335368,-0.234207 1.9375,-0.53125 0.622875,-0.307089 1.160559,-0.712191 1.625,-1.25 0.461155,-0.533651 0.815827,-1.148784 1.03125,-1.8125 0.164626,-0.512616 0.25,-1.046249 0.25,-1.59375 0,-0.129575 -0.02117,-0.271792 -0.03125,-0.40625 -0.04963,-0.67467 -0.232588,-1.302215 -0.53125,-1.90625 -0.308697,-0.62543 -0.716092,-1.163714 -1.25,-1.625 -0.534884,-0.46164 -1.14949,-0.816727 -1.8125,-1.03125 -0.617117,-0.197743 -1.284961,-0.257068 -2,-0.21875 -0.658237,0.04868 -1.313713,0.2064 -1.90625,0.5 -0.287712,0.141993 -0.5664,0.377104 -0.84375,0.59375 l 0.96875,0.84375 0.75,0.65625 L 9.5625,55.625 4.53125,56.8125 3.875,56.96875 3.9375,56.28125 4.3125,51.125 4.375,50.15625 l 0.75,0.625 1.15625,1 c 0.58637,-0.542978 1.21423,-1.05022 1.9375,-1.40625 0.984061,-0.488912 2.049016,-0.76205 3.15625,-0.84375 0.266868,-0.01568 0.542395,-0.0058 0.8125,0 z"
       id="path3814" />
    <path
       id="path3816"
       d="m 12.1875,50.03125 c 0.774752,0.01659 1.523884,0.108793 2.25,0.34375 1.024428,0.3302 2.000621,0.860235 2.8125,1.5625 0.819606,0.705008 1.462282,1.538545 1.9375,2.5 0.45388,0.92457 0.70469,1.928558 0.78125,2.96875 C 19.98437,57.616336 20,57.815813 20,58 c 0,0.135779 -0.02484,0.271832 -0.03125,0.40625 -0.07656,-1.040192 -0.32737,-2.04418 -0.78125,-2.96875 -0.475218,-0.961455 -1.117894,-1.794992 -1.9375,-2.5 -0.811879,-0.702265 -1.788072,-1.2323 -2.8125,-1.5625 -0.726116,-0.234957 -1.475248,-0.32716 -2.25,-0.34375 -0.275032,-0.0059 -0.54679,-0.01377 -0.78125,0 -1.049137,0.07741 -2.046965,0.323279 -2.96875,0.78125 -0.657309,0.323561 -1.242782,0.816192 -1.8125,1.34375 l -0.34375,0.28125 -0.3125,-0.28125 -1.15625,-1 -0.3125,4.125 -0.0625,0.03125 0.375,-5.15625 1.15625,1 0.3125,0.28125 0.34375,-0.28125 c 0.569718,-0.527558 1.155191,-1.020189 1.8125,-1.34375 0.921785,-0.457971 1.919613,-0.70384 2.96875,-0.78125 0.23446,-0.01377 0.506218,-0.0059 0.78125,0 z M 8.625,54.40625 9.4375,55.125 8.53125,55.34375 8.46875,55.28125 8.03125,54.875 8.5,54.5 c 0.0388,-0.03031 0.08466,-0.0626 0.125,-0.09375 z m 9.03125,4.15625 c 0.0081,0.108645 0.03125,0.253475 0.03125,0.4375 0,0.599479 -0.101123,1.189117 -0.28125,1.75 -0.237167,0.73071 -0.622486,1.387237 -1.125,1.96875 -0.508029,0.588284 -1.104311,1.041257 -1.78125,1.375 -0.657028,0.324124 -1.375269,0.538513 -2.125,0.59375 -0.09765,0.0078 -0.254441,0.02939 -0.4375,0.03125 -0.589703,0 -1.181662,-0.09818 -1.75,-0.28125 C 9.452137,64.198823 8.825861,63.807538 8.25,63.3125 7.671572,62.812552 7.186633,62.220719 6.84375,61.53125 L 5.25,62.3125 C 5.092472,62.065955 4.943837,61.829036 4.8125,61.5625 l 0,-0.03125 2.03125,-1 c 0.342883,0.689469 0.827822,1.281302 1.40625,1.78125 0.575861,0.495038 1.202137,0.886323 1.9375,1.125 0.568338,0.18307 1.160297,0.28125 1.75,0.28125 0.183059,-0.0019 0.33985,-0.02345 0.4375,-0.03125 0.749731,-0.05524 1.467972,-0.269626 2.125,-0.59375 0.676939,-0.333743 1.273221,-0.786716 1.78125,-1.375 0.502514,-0.581513 0.887833,-1.23804 1.125,-1.96875 0.122294,-0.380803 0.207462,-0.786107 0.25,-1.1875 z"
       style="font-size:medium;font-style:normal;font-variant:normal;font-weight:normal;font-stretch:normal;text-indent:0;text-align:start;text-decoration:none;line-height:normal;letter-spacing:normal;word-spacing:normal;text-transform:none;direction:ltr;block-progression:tb;writing-mode:lr-tb;text-anchor:start;baseline-shift:baseline;opacity:0.4;color:#000000;fill:#ffffff;fill-opacity:1;stroke:none;stroke-width:1;marker:none;visibility:visible;display:inline;overflow:visible;enable-background:accumulate;font-family:Sans;-inkscape-font-specification:Sans" />
    <path
       style="font-size:medium;font-style:normal;font-variant:normal;font-weight:normal;font-stretch:normal;text-indent:0;text-align:start;text-decoration:none;line-height:normal;letter-spacing:normal;word-spacing:normal;text-transform:none;direction:ltr;block-progression:tb;writing-mode:lr-tb;text-anchor:start;baseline-shift:baseline;color:#000000;fill:url(#linearGradient3805);fill-opacity:1;stroke:none;stroke-width:1;marker:none;visibility:visible;display:inline;overflow:visible;enable-background:accumulate;font-family:Sans;-inkscape-font-specification:Sans"
       d="m 12,56.5 c 0.822505,0 1.5,0.677495 1.5,1.5 0,0.822505 -0.677495,1.5 -1.5,1.5 -0.822505,0 -1.5,-0.677495 -1.5,-1.5 0,-0.822505 0.677495,-1.5 1.5,-1.5 z"
       id="path3017" />
    <g
       id="g3019"
       style="opacity:0.1;fill:#ffffff;fill-opacity:1"
       transform="matrix(-0.5,0,0,0.5,27.788834,44.000001)" />
    <path
       id="path3021"
       d="m 12,56.5 c 0.822505,0 1.5,0.677495 1.5,1.5 0,0.822505 -0.677495,1.5 -1.5,1.5 -0.822505,0 -1.5,-0.677495 -1.5,-1.5 0,-0.822505 0.677495,-1.5 1.5,-1.5 z"
       style="font-size:medium;font-style:normal;font-variant:normal;font-weight:normal;font-stretch:normal;text-indent:0;text-align:start;text-decoration:none;line-height:normal;letter-spacing:normal;word-spacing:normal;text-transform:none;direction:ltr;block-progression:tb;writing-mode:lr-tb;text-anchor:start;baseline-shift:baseline;opacity:0.61000001;color:#000000;fill:none;stroke:#000000;stroke-width:1;stroke-opacity:1;marker:none;visibility:visible;display:inline;overflow:visible;enable-background:accumulate;font-family:Sans;-inkscape-font-specification:Sans" />
    <path
       style="font-size:medium;font-style:normal;font-variant:normal;font-weight:normal;font-stretch:normal;text-indent:0;text-align:start;text-decoration:none;line-height:normal;letter-spacing:normal;word-spacing:normal;text-transform:none;direction:ltr;block-progression:tb;writing-mode:lr-tb;text-anchor:start;baseline-shift:baseline;opacity:0.2;color:#000000;fill:#ffffff;fill-opacity:1;stroke:none;stroke-width:1;marker:none;visibility:visible;display:inline;overflow:visible;enable-background:accumulate;font-family:Sans;-inkscape-font-specification:Sans"
       d="m 12,57 c 0.547939,0 1,0.452061 1,1 0,0.185846 -0.06614,0.350111 -0.15625,0.5 C 12.668182,58.207963 12.362093,58 12,58 11.637907,58 11.331818,58.207963 11.15625,58.5 11.066139,58.350111 11,58.185846 11,58 c 0,-0.547939 0.452061,-1 1,-1 z"
       id="path3023" />
  </g>
</svg>
