<?xml version="1.0" encoding="UTF-8" standalone="no"?>
<!-- Created with Inkscape (http://www.inkscape.org/) -->

<svg
   xmlns:dc="http://purl.org/dc/elements/1.1/"
   xmlns:cc="http://creativecommons.org/ns#"
   xmlns:rdf="http://www.w3.org/1999/02/22-rdf-syntax-ns#"
   xmlns:svg="http://www.w3.org/2000/svg"
   xmlns="http://www.w3.org/2000/svg"
   xmlns:sodipodi="http://sodipodi.sourceforge.net/DTD/sodipodi-0.dtd"
   xmlns:inkscape="http://www.inkscape.org/namespaces/inkscape"
   width="24"
   height="24"
   id="svg3495"
   version="1.1"
   inkscape:version="0.48.4 r9939"
   sodipodi:docname="edit-delete.svg">
  <defs
     id="defs3497">
    <clipPath
       clipPathUnits="userSpaceOnUse"
       id="clipPath3669">
      <path
         inkscape:connector-curvature="0"
         d="M 0,96 96,96 96,0 0,0 0,96 z"
         id="path3671" />
    </clipPath>
  </defs>
  <sodipodi:namedview
     id="base"
     pagecolor="#ffffff"
     bordercolor="#666666"
     borderopacity="1.0"
     inkscape:pageopacity="0.0"
     inkscape:pageshadow="2"
     inkscape:zoom="1"
     inkscape:cx="-8.05911"
     inkscape:cy="13.533401"
     inkscape:current-layer="layer1"
     showgrid="false"
     inkscape:grid-bbox="true"
     inkscape:document-units="px"
     inkscape:window-width="1364"
     inkscape:window-height="701"
     inkscape:window-x="0"
     inkscape:window-y="27"
     inkscape:window-maximized="1"
     inkscape:snap-bbox="true"
     inkscape:bbox-paths="true"
     inkscape:bbox-nodes="true"
     inkscape:snap-bbox-edge-midpoints="false"
     showguides="true"
     inkscape:guide-bbox="true">
    <inkscape:grid
       type="xygrid"
       id="grid3512"
       empspacing="4"
       visible="true"
       enabled="true"
       snapvisiblegridlinesonly="true"
       dotted="false" />
  </sodipodi:namedview>
  <metadata
     id="metadata3500">
    <rdf:RDF>
      <cc:Work
         rdf:about="">
        <dc:format>image/svg+xml</dc:format>
        <dc:type
           rdf:resource="http://purl.org/dc/dcmitype/StillImage" />
        <dc:title></dc:title>
      </cc:Work>
    </rdf:RDF>
  </metadata>
  <g
     id="layer1"
     inkscape:label="Layer 1"
     inkscape:groupmode="layer"
     transform="translate(1,-25)">
    <path
       style="fill:#333333;fill-opacity:1;stroke:none;display:inline;enable-background:new"
       d="m 7.9582247,28.000443 c -0.08604,10e-4 -0.19497,0.0062 -0.290514,0.03631 0,0 -0.0857,0.172845 -0.181572,0.653658 -0.117298,0.588059 -0.355904,0.739499 -0.653658,0.907858 -0.0681,0.01766 -0.150649,0.0502 -0.217886,0.07263 -0.341494,0.02103 -0.634426,0.02982 -1.053115,-0.399458 -0.342191,-0.350953 -0.472086,-0.435772 -0.472086,-0.435772 -0.192728,0.05322 -0.399458,0.181572 -0.399458,0.181572 0,0 -0.198026,0.185336 -0.290515,0.363143 0,0 0.05461,0.13703 0.326829,0.544715 0.33286,0.498755 0.273072,0.796196 0.181572,1.125744 -0.03579,0.06089 -0.04102,0.118693 -0.07263,0.181572 l -0.03631,0 c -0.22645,0.256431 -0.417214,0.479535 -1.016801,0.472086 -0.490121,-0.0058 -0.653658,0.03631 -0.653658,0.03631 -0.09866,0.174588 -0.145257,0.399458 -0.145257,0.399458 0,0 -0.02458,0.244671 0.03631,0.435771 0,0 0.172845,0.08586 0.653658,0.181572 0.588013,0.117356 0.73936,0.355985 0.907858,0.653658 0.01778,0.06821 0.05032,0.150754 0.07263,0.217886 0.02126,0.341482 0.02983,0.634472 -0.399458,1.053115 -0.350941,0.342285 -0.472086,0.508401 -0.472086,0.508401 0.0538,0.193169 0.217886,0.363143 0.217886,0.363143 0,0 0.149069,0.198096 0.326829,0.290515 0,0 0.173321,-0.05451 0.581029,-0.326829 0.49879,-0.332814 0.796138,-0.272852 1.125744,-0.181572 0.06124,0.03591 0.118576,0.07757 0.181572,0.108943 0.256454,0.226485 0.479535,0.417237 0.472086,1.016801 -0.0058,0.490156 0.03631,0.689972 0.03631,0.689972 0.174611,0.09854 0.399458,0.108943 0.399458,0.108943 0,0 0.244776,0.02411 0.435772,-0.03631 0,0 0.08571,-0.172763 0.181571,-0.653658 0.117531,-0.588001 0.356148,-0.739371 0.653658,-0.907858 0.0681,-0.01766 0.150707,-0.014 0.217886,-0.03631 0.341471,-0.02115 0.634437,-0.02986 1.053115,0.399457 0.3422033,0.350942 0.5084013,0.435772 0.5084013,0.435772 0.193215,-0.0538 0.363143,-0.217886 0.363143,-0.217886 0,0 0.198085,-0.149045 0.290515,-0.326829 0,0 -0.05444,-0.173309 -0.326829,-0.581029 -0.332872,-0.498755 -0.272898,-0.759893 -0.181572,-1.08943 l 0,-0.03631 c 0.03579,-0.06112 0.07745,-0.118634 0.108943,-0.181572 0.226497,-0.256384 0.417214,-0.44322 1.016801,-0.435771 0.490203,0.0058 0.689972,-0.03631 0.689972,-0.03631 0.09854,-0.174611 0.108943,-0.435772 0.108943,-0.435772 0,0 0.02446,-0.244566 -0.03631,-0.435772 0,0 -0.172844,-0.08582 -0.653658,-0.181572 -0.588094,-0.117309 -0.739417,-0.355903 -0.907858,-0.653657 -0.01766,-0.0681 -0.04997,-0.114428 -0.07263,-0.181572 l 0.03631,-0.03631 c -0.02115,-0.341355 -0.02995,-0.598124 0.399457,-1.016801 0.350965,-0.342215 0.435772,-0.508401 0.435772,-0.508401 -0.05369,-0.193122 -0.217886,-0.399458 -0.217886,-0.399458 0,0 -0.149045,-0.198084 -0.326829,-0.290515 0,0 -0.173169,0.05457 -0.581029,0.326829 -0.4987673,0.332883 -0.7960563,0.273107 -1.1257443,0.181572 -0.06077,-0.03591 -0.118576,-0.04125 -0.181571,-0.07263 -0.256374,-0.226496 -0.443291,-0.453493 -0.435772,-1.053114 0.0058,-0.490145 -0.03632,-0.653658 -0.03632,-0.653658 -0.174518,-0.09866 -0.435771,-0.145258 -0.435771,-0.145258 0,0 -0.05922,-10e-4 -0.145258,0 z m -0.544715,2.469374 c 0.695269,-0.06031 1.416085,0.215721 1.888345,0.798915 0.7556173,0.933109 0.606234,2.294798 -0.326829,3.050403 -0.933098,0.755617 -2.294774,0.606269 -3.050403,-0.326829 -0.755617,-0.93311 -0.606234,-2.294775 0.326829,-3.050403 0.349907,-0.283348 0.744897,-0.435899 1.162058,-0.472086 z m 4.9387483,4.067204 c -0.107244,0.0082 -0.181571,0.03631 -0.181571,0.03631 0,0 -0.302019,0.03963 -0.508401,0.181572 0,0 -0.02516,0.225462 0.03631,0.835229 0.07472,0.745798 -0.177668,1.03357 -0.472087,1.34363 -0.07484,0.0459 -0.14571,0.09387 -0.217886,0.145258 -0.400491,0.149963 -0.722591,0.251213 -1.3799443,-0.108943 -0.537312,-0.294454 -0.762601,-0.326829 -0.762601,-0.326829 -0.210937,0.134066 -0.399457,0.363143 -0.399457,0.363143 0,0 -0.172322,0.262056 -0.217886,0.508401 0,0 0.142991,0.193168 0.617343,0.581029 0.580181,0.474538 0.606269,0.843631 0.617344,1.271001 -0.02057,0.08588 -0.02167,0.167522 -0.03631,0.2542 -0.17697,0.38929 -0.369988,0.697642 -1.08943,0.907858 -0.58813,0.171729 -0.762601,0.290515 -0.762601,0.290515 -0.05415,0.244741 0,0.544715 0,0.544715 0,0 0.03973,0.30203 0.181572,0.5084 0,0 0.225509,0.06136 0.835229,0 0.745774,-0.0746 1.033407,0.141539 1.34363,0.435772 0.04602,0.07495 0.09406,0.145792 0.1452573,0.217886 0.150278,0.400422 0.25111,0.758975 -0.1089433,1.416259 -0.294419,0.537417 -0.326829,0.762601 -0.326829,0.762601 0.134822,0.211273 0.3631443,0.363143 0.3631443,0.363143 0,0 0.26216,0.208694 0.5084,0.2542 0,0 0.193227,-0.142805 0.581029,-0.617343 0.474608,-0.580135 0.843666,-0.605991 1.271002,-0.617344 0.08622,0.02057 0.167464,0.02179 0.2542,0.03631 0.389336,0.177005 0.697665,0.370011 0.907858,1.08943 0.171752,0.588176 0.290515,0.762601 0.290515,0.762601 0.244729,0.05392 0.544715,0 0.544715,0 0,0 0.338472,-0.07587 0.544714,-0.217886 0,0 0.024,-0.225335 -0.03631,-0.835229 -0.07449,-0.745786 0.14169,-0.997174 0.435772,-1.307316 0.07495,-0.0459 0.145734,-0.09408 0.217886,-0.145257 l 0.03631,0 c 0.400411,-0.150138 0.722568,-0.251168 1.379945,0.108943 0.537324,0.29443 0.7626,0.326829 0.7626,0.326829 0.211297,-0.134963 0.399458,-0.399459 0.399458,-0.399459 0,0 0.172356,-0.262102 0.217886,-0.508401 0,0 -0.142701,-0.156889 -0.617344,-0.544714 -0.580192,-0.474539 -0.606106,-0.843701 -0.617343,-1.271002 0.02057,-0.08622 0.02191,-0.16751 0.03631,-0.2542 0.177028,-0.389243 0.369976,-0.733955 1.08943,-0.944172 0.588222,-0.171753 0.762601,-0.254201 0.762601,-0.254201 0.05392,-0.244729 0,-0.581029 0,-0.581029 0,0 -0.07594,-0.301926 -0.217886,-0.5084 0,0 -0.189149,-0.02493 -0.798915,0.03631 -0.745821,0.07472 -1.033465,-0.177714 -1.34363,-0.472086 -0.04602,-0.07495 -0.09359,-0.145897 -0.145258,-0.217886 -0.149905,-0.400329 -0.251237,-0.722557 0.108943,-1.379945 0.294443,-0.537312 0.326829,-0.7626 0.326829,-0.7626 -0.13481,-0.211216 -0.399457,-0.399458 -0.399457,-0.399458 0,0 -0.262103,-0.172356 -0.508401,-0.217886 0,0 -0.156692,0.142782 -0.544715,0.617344 -0.47455,0.580204 -0.843468,0.606269 -1.271001,0.617343 -0.08564,-0.02068 -0.167406,-0.02179 -0.2542,-0.03631 l 0,-0.03631 c -0.389243,-0.177051 -0.697723,-0.333592 -0.907858,-1.053115 -0.171869,-0.588129 -0.290515,-0.7626 -0.290515,-0.7626 -0.122342,-0.02708 -0.292214,-0.04454 -0.399458,-0.03631 z m 0.944173,3.014089 c 0.523403,-3.86e-4 1.058607,0.157363 1.525201,0.472086 1.24424,0.83925 1.565537,2.532474 0.726287,3.77669 -0.83925,1.244239 -2.532451,1.565536 -3.77669,0.726286 -1.244227,-0.839262 -1.565525,-2.532439 -0.726286,-3.776689 0.524524,-0.777635 1.379149,-1.19773 2.251488,-1.198373 z"
       id="path3-8-3"
       inkscape:connector-curvature="0" />
    <path
       inkscape:connector-curvature="0"
       id="path3772"
       d="m 7.9582247,27.000454 c -0.08604,10e-4 -0.19497,0.0062 -0.290514,0.03631 0,0 -0.0857,0.172845 -0.181572,0.653658 -0.117298,0.588059 -0.355904,0.739499 -0.653658,0.907858 -0.0681,0.01766 -0.150649,0.0502 -0.217886,0.07263 -0.341494,0.02103 -0.634426,0.02982 -1.053115,-0.399458 -0.342191,-0.350953 -0.472086,-0.435772 -0.472086,-0.435772 -0.192728,0.05322 -0.399458,0.181572 -0.399458,0.181572 0,0 -0.198026,0.185336 -0.290515,0.363143 0,0 0.05461,0.13703 0.326829,0.544715 0.33286,0.498755 0.273072,0.796196 0.181572,1.125744 -0.03579,0.06089 -0.04102,0.118693 -0.07263,0.181572 l -0.03631,0 c -0.22645,0.256431 -0.417214,0.479535 -1.016801,0.472086 -0.490121,-0.0058 -0.653658,0.03631 -0.653658,0.03631 -0.09866,0.174588 -0.145257,0.399458 -0.145257,0.399458 0,0 -0.02458,0.244671 0.03631,0.435771 0,0 0.172845,0.08586 0.653658,0.181572 0.588013,0.117356 0.73936,0.355985 0.907858,0.653658 0.01778,0.06821 0.05032,0.150754 0.07263,0.217886 0.02126,0.341482 0.02983,0.634472 -0.399458,1.053115 -0.350941,0.342285 -0.472086,0.508401 -0.472086,0.508401 0.0538,0.193169 0.217886,0.363143 0.217886,0.363143 0,0 0.149069,0.198096 0.326829,0.290515 0,0 0.173321,-0.05451 0.581029,-0.326829 0.49879,-0.332814 0.796138,-0.272852 1.125744,-0.181572 0.06124,0.03591 0.118576,0.07757 0.181572,0.108943 0.256454,0.226485 0.479535,0.417237 0.472086,1.016801 -0.0058,0.490156 0.03631,0.689972 0.03631,0.689972 0.174611,0.09854 0.399458,0.108943 0.399458,0.108943 0,0 0.244776,0.02411 0.435772,-0.03631 0,0 0.08571,-0.172763 0.181571,-0.653658 0.117531,-0.588001 0.356148,-0.739371 0.653658,-0.907858 0.0681,-0.01766 0.150707,-0.014 0.217886,-0.03631 0.341471,-0.02115 0.634437,-0.02986 1.053115,0.399457 0.3422033,0.350942 0.5084013,0.435772 0.5084013,0.435772 0.193215,-0.0538 0.363143,-0.217886 0.363143,-0.217886 0,0 0.198085,-0.149045 0.290515,-0.326829 0,0 -0.05444,-0.173309 -0.326829,-0.581029 -0.332872,-0.498755 -0.272898,-0.759893 -0.181572,-1.08943 l 0,-0.03631 c 0.03579,-0.06112 0.07745,-0.118634 0.108943,-0.181572 0.226497,-0.256384 0.417214,-0.44322 1.016801,-0.435771 0.490203,0.0058 0.689972,-0.03631 0.689972,-0.03631 0.09854,-0.174611 0.108943,-0.435772 0.108943,-0.435772 0,0 0.02446,-0.244566 -0.03631,-0.435772 0,0 -0.172844,-0.08582 -0.653658,-0.181572 -0.588094,-0.117309 -0.739417,-0.355903 -0.907858,-0.653657 -0.01766,-0.0681 -0.04997,-0.114428 -0.07263,-0.181572 l 0.03631,-0.03631 c -0.02115,-0.341355 -0.02995,-0.598124 0.399457,-1.016801 0.350965,-0.342215 0.435772,-0.508401 0.435772,-0.508401 -0.05369,-0.193122 -0.217886,-0.399458 -0.217886,-0.399458 0,0 -0.149045,-0.198084 -0.326829,-0.290515 0,0 -0.173169,0.05457 -0.581029,0.326829 -0.4987673,0.332883 -0.7960563,0.273107 -1.1257443,0.181572 -0.06077,-0.03591 -0.118576,-0.04125 -0.181571,-0.07263 -0.256374,-0.226496 -0.443291,-0.453493 -0.435772,-1.053114 0.0058,-0.490145 -0.03632,-0.653658 -0.03632,-0.653658 -0.174518,-0.09866 -0.435771,-0.145258 -0.435771,-0.145258 0,0 -0.05922,-10e-4 -0.145258,0 z m -0.544715,2.469374 c 0.695269,-0.06031 1.416085,0.215721 1.888345,0.798915 0.7556173,0.933109 0.606234,2.294798 -0.326829,3.050403 -0.933098,0.755617 -2.294774,0.606269 -3.050403,-0.326829 -0.755617,-0.93311 -0.606234,-2.294775 0.326829,-3.050403 0.349907,-0.283348 0.744897,-0.435899 1.162058,-0.472086 z m 4.9387483,4.067204 c -0.107244,0.0082 -0.181571,0.03631 -0.181571,0.03631 0,0 -0.302019,0.03963 -0.508401,0.181572 0,0 -0.02516,0.225462 0.03631,0.835229 0.07472,0.745798 -0.177668,1.03357 -0.472087,1.34363 -0.07484,0.0459 -0.14571,0.09387 -0.217886,0.145258 -0.400491,0.149963 -0.722591,0.251213 -1.3799443,-0.108943 -0.537312,-0.294454 -0.762601,-0.326829 -0.762601,-0.326829 -0.210937,0.134066 -0.399457,0.363143 -0.399457,0.363143 0,0 -0.172322,0.262056 -0.217886,0.508401 0,0 0.142991,0.193168 0.617343,0.581029 0.580181,0.474538 0.606269,0.843631 0.617344,1.271001 -0.02057,0.08588 -0.02167,0.167522 -0.03631,0.2542 -0.17697,0.38929 -0.369988,0.697642 -1.08943,0.907858 -0.58813,0.171729 -0.762601,0.290515 -0.762601,0.290515 -0.05415,0.244741 0,0.544715 0,0.544715 0,0 0.03973,0.30203 0.181572,0.5084 0,0 0.225509,0.06136 0.835229,0 0.745774,-0.0746 1.033407,0.141539 1.34363,0.435772 0.04602,0.07495 0.09406,0.145792 0.1452573,0.217886 0.150278,0.400422 0.25111,0.758975 -0.1089433,1.416259 -0.294419,0.537417 -0.326829,0.762601 -0.326829,0.762601 0.134822,0.211273 0.3631443,0.363143 0.3631443,0.363143 0,0 0.26216,0.208694 0.5084,0.2542 0,0 0.193227,-0.142805 0.581029,-0.617343 0.474608,-0.580135 0.843666,-0.605991 1.271002,-0.617344 0.08622,0.02057 0.167464,0.02179 0.2542,0.03631 0.389336,0.177005 0.697665,0.370011 0.907858,1.08943 0.171752,0.588176 0.290515,0.762601 0.290515,0.762601 0.244729,0.05392 0.544715,0 0.544715,0 0,0 0.338472,-0.07587 0.544714,-0.217886 0,0 0.024,-0.225335 -0.03631,-0.835229 -0.07449,-0.745786 0.14169,-0.997174 0.435772,-1.307316 0.07495,-0.0459 0.145734,-0.09408 0.217886,-0.145257 l 0.03631,0 c 0.400411,-0.150138 0.722568,-0.251168 1.379945,0.108943 0.537324,0.29443 0.7626,0.326829 0.7626,0.326829 0.211297,-0.134963 0.399458,-0.399459 0.399458,-0.399459 0,0 0.172356,-0.262102 0.217886,-0.508401 0,0 -0.142701,-0.156889 -0.617344,-0.544714 -0.580192,-0.474539 -0.606106,-0.843701 -0.617343,-1.271002 0.02057,-0.08622 0.02191,-0.16751 0.03631,-0.2542 0.177028,-0.389243 0.369976,-0.733955 1.08943,-0.944172 0.588222,-0.171753 0.762601,-0.254201 0.762601,-0.254201 0.05392,-0.244729 0,-0.581029 0,-0.581029 0,0 -0.07594,-0.301926 -0.217886,-0.5084 0,0 -0.189149,-0.02493 -0.798915,0.03631 -0.745821,0.07472 -1.033465,-0.177714 -1.34363,-0.472086 -0.04602,-0.07495 -0.09359,-0.145897 -0.145258,-0.217886 -0.149905,-0.400329 -0.251237,-0.722557 0.108943,-1.379945 0.294443,-0.537312 0.326829,-0.7626 0.326829,-0.7626 -0.13481,-0.211216 -0.399457,-0.399458 -0.399457,-0.399458 0,0 -0.262103,-0.172356 -0.508401,-0.217886 0,0 -0.156692,0.142782 -0.544715,0.617344 -0.47455,0.580204 -0.843468,0.606269 -1.271001,0.617343 -0.08564,-0.02068 -0.167406,-0.02179 -0.2542,-0.03631 l 0,-0.03631 c -0.389243,-0.177051 -0.697723,-0.333592 -0.907858,-1.053115 -0.171869,-0.588129 -0.290515,-0.7626 -0.290515,-0.7626 -0.122342,-0.02708 -0.292214,-0.04454 -0.399458,-0.03631 z m 0.944173,3.014089 c 0.523403,-3.86e-4 1.058607,0.157363 1.525201,0.472086 1.24424,0.83925 1.565537,2.532474 0.726287,3.77669 -0.83925,1.244239 -2.532451,1.565536 -3.77669,0.726286 -1.244227,-0.839262 -1.565525,-2.532439 -0.726286,-3.776689 0.524524,-0.777635 1.379149,-1.19773 2.251488,-1.198373 z"
       style="opacity:0.3;fill:#ffffff;fill-opacity:1;stroke:none;display:inline;enable-background:new" />
  </g>
</svg>
