<svg xmlns="http://www.w3.org/2000/svg" viewBox="0 0 24 24"><defs><clipPath><path d="m0 96h96v-96h-96v96"/></clipPath></defs><g transform="translate(1-25)" color="#000"><path d="m8.594 27c3.866 0 7 3.134 7 7 0 1.578-.525 3.02-1.406 4.188l.125.094 6 6 .688.719-1.406 1.406-.719-.688-6-6-.094-.125c-1.171.881-2.609 1.406-4.188 1.406-3.866 0-7-3.134-7-7 0-3.866 3.134-7 7-7m0 2c-2.761 0-5 2.239-5 5 0 2.761 2.239 5 5 5 2.761 0 5-2.239 5-5 0-2.761-2.239-5-5-5" fill="#555"/><path d="m8.594 26c3.866 0 7 3.134 7 7 0 1.578-.525 3.02-1.406 4.188l.125.094 6 6 .688.719-1.406 1.406-.719-.688-6-6-.094-.125c-1.171.881-2.609 1.406-4.188 1.406-3.866 0-7-3.134-7-7 0-3.866 3.134-7 7-7m0 2c-2.761 0-5 2.239-5 5 0 2.761 2.239 5 5 5 2.761 0 5-2.239 5-5 0-2.761-2.239-5-5-5" opacity=".1" fill="#fff"/></g></svg>