<?xml version="1.0" encoding="UTF-8" standalone="no"?>
<svg xmlns="http://www.w3.org/2000/svg" xmlns:xlink="http://www.w3.org/1999/xlink" xmlns:sodipodi="http://sodipodi.sourceforge.net/DTD/sodipodi-0.dtd" xmlns:inkscape="http://www.inkscape.org/namespaces/inkscape" width="24" height="24" version="1.1">
 <defs id="defs3497">
  <linearGradient id="linearGradient3817">
   <stop id="stop3819" stop-color="#555555"/>
   <stop offset="1" id="stop3821" stop-color="#666666"/>
  </linearGradient>
  <clipPath id="clipPath3669">
   <path d="M 0,96 96,96 96,0 0,0 0,96 z" id="path3671"/>
  </clipPath>
  <linearGradient inkscape:collect="always" xlink:href="#linearGradient3817" id="linearGradient3823" y1="22" x2="0" y2="0" gradientUnits="userSpaceOnUse" gradientTransform="translate(1,25)"/>
 </defs>
 <metadata id="metadata3500"/>
 <g id="layer1" inkscape:label="Layer 1" inkscape:groupmode="layer" transform="translate(0,-24)">
  <path d="M 4.9375,27 3,28.9375 6.3125,32.28125 4.6875,33.90625 10.875,34.875 9.9375,28.6875 8.28125,30.34375 4.9375,27 z m 14.125,0 -3.34375,3.34375 -1.625,-1.65625 L 13.125,34.875 19.3125,33.9375 17.6875,32.28125 21,28.9375 19.0625,27 z M 10.875,37.125 4.6875,38.0625 6.34375,39.71875 3,43.0625 4.9375,45 8.28125,41.65625 9.90625,43.3125 10.875,37.125 z m 2.25,0 0.9375,6.1875 1.65625,-1.625 L 19.0625,45 21,43.0625 17.6875,39.71875 19.3125,38.09375 13.125,37.125 z" id="path4197" inkscape:connector-curvature="0" fill="url(#linearGradient3823)"/>
  <path id="path3035" d="M 4.9375,27 3,28.9375 6.3125,32.28125 4.6875,33.90625 10.875,34.875 9.9375,28.6875 8.28125,30.34375 4.9375,27 z m 14.125,0 -3.34375,3.34375 -1.625,-1.65625 L 13.125,34.875 19.3125,33.9375 17.6875,32.28125 21,28.9375 19.0625,27 z M 10.875,37.125 4.6875,38.0625 6.34375,39.71875 3,43.0625 4.9375,45 8.28125,41.65625 9.90625,43.3125 10.875,37.125 z m 2.25,0 0.9375,6.1875 1.65625,-1.625 L 19.0625,45 21,43.0625 17.6875,39.71875 19.3125,38.09375 13.125,37.125 z" inkscape:connector-curvature="0" opacity="0.61" fill="none" stroke="#000000"/>
  <path d="m 4.9375,27.6875 -1.25,1.25 0.5,0.5 0.75,-0.75 3,3 0.34375,0.375 0.34375,-0.375 0.96875,-0.96875 0.53125,3.53125 0.15625,0.03125 -0.6875,-4.5625 -0.96875,0.96875 -0.34375,0.375 -0.34375,-0.375 -3,-3 z m 14.125,0 -3,3 -0.34375,0.375 -0.34375,-0.375 -0.9375,-0.96875 -0.71875,4.5625 0.15625,-0.03125 0.5625,-3.53125 0.9375,0.96875 0.34375,0.375 0.34375,-0.375 3,-3 0.75,0.75 0.5,-0.5 -1.25,-1.25 z M 6.5,32.78125 5.71875,33.5625 l 0.875,0.125 0.0625,-0.0625 0.375,-0.34375 L 6.65625,32.9375 6.5,32.78125 z m 11,0 L 17.34375,32.9375 17,33.28125 17.34375,33.625 17.4375,33.71875 18.28125,33.59375 17.5,32.78125 z m -7.21875,4.9375 -4.5625,0.6875 0.875,0.875 L 10.125,38.75 10.28125,37.71875 z m 3.4375,0 0.15625,1.03125 3.53125,0.5625 0.875,-0.875 -4.5625,-0.71875 z m -7.1875,2.5 -2.84375,2.84375 0.5,0.5 2.5,-2.5 0.375,-0.34375 L 6.6875,40.375 6.53125,40.21875 z m 10.96875,0 -0.15625,0.15625 -0.375,0.34375 0.375,0.34375 2.46875,2.5 0.5,-0.5 L 17.5,40.21875 z" id="path3805" inkscape:connector-curvature="0" opacity="0.2" fill="#ffffff"/>
 </g>
</svg>
