<?xml version="1.0" encoding="UTF-8" standalone="no"?>
<!-- Created with Inkscape (http://www.inkscape.org/) -->

<svg
   xmlns:dc="http://purl.org/dc/elements/1.1/"
   xmlns:cc="http://creativecommons.org/ns#"
   xmlns:rdf="http://www.w3.org/1999/02/22-rdf-syntax-ns#"
   xmlns:svg="http://www.w3.org/2000/svg"
   xmlns="http://www.w3.org/2000/svg"
   xmlns:xlink="http://www.w3.org/1999/xlink"
   xmlns:sodipodi="http://sodipodi.sourceforge.net/DTD/sodipodi-0.dtd"
   xmlns:inkscape="http://www.inkscape.org/namespaces/inkscape"
   width="24"
   height="24"
   id="svg3495"
   version="1.1"
   inkscape:version="0.48.4 r9939"
   sodipodi:docname="view-restore.svg">
  <defs
     id="defs3497">
    <linearGradient
       id="linearGradient3817">
      <stop
         style="stop-color:#555555;stop-opacity:1;"
         offset="0"
         id="stop3819" />
      <stop
         style="stop-color:#666666;stop-opacity:1;"
         offset="1"
         id="stop3821" />
    </linearGradient>
    <clipPath
       clipPathUnits="userSpaceOnUse"
       id="clipPath3669">
      <path
         inkscape:connector-curvature="0"
         d="M 0,96 96,96 96,0 0,0 0,96 z"
         id="path3671" />
    </clipPath>
    <linearGradient
       inkscape:collect="always"
       xlink:href="#linearGradient3817"
       id="linearGradient3823"
       x1="10"
       y1="22"
       x2="10"
       y2="0"
       gradientUnits="userSpaceOnUse"
       gradientTransform="translate(1,25)" />
  </defs>
  <sodipodi:namedview
     id="base"
     pagecolor="#ffffff"
     bordercolor="#666666"
     borderopacity="1.0"
     inkscape:pageopacity="0.0"
     inkscape:pageshadow="2"
     inkscape:zoom="1"
     inkscape:cx="16.116983"
     inkscape:cy="8.4845553"
     inkscape:current-layer="layer1"
     showgrid="false"
     showborder="false"
     inkscape:grid-bbox="true"
     inkscape:document-units="px"
     inkscape:window-width="1364"
     inkscape:window-height="700"
     inkscape:window-x="0"
     inkscape:window-y="28"
     inkscape:window-maximized="1"
     inkscape:snap-bbox="true"
     inkscape:bbox-paths="true"
     inkscape:bbox-nodes="true"
     inkscape:snap-bbox-edge-midpoints="false"
     showguides="true"
     inkscape:guide-bbox="true">
    <inkscape:grid
       type="xygrid"
       id="grid3512"
       empspacing="4"
       visible="true"
       enabled="true"
       snapvisiblegridlinesonly="true"
       dotted="false" />
  </sodipodi:namedview>
  <metadata
     id="metadata3500">
    <rdf:RDF>
      <cc:Work
         rdf:about="">
        <dc:format>image/svg+xml</dc:format>
        <dc:type
           rdf:resource="http://purl.org/dc/dcmitype/StillImage" />
        <dc:title />
      </cc:Work>
    </rdf:RDF>
  </metadata>
  <g
     id="layer1"
     inkscape:label="Layer 1"
     inkscape:groupmode="layer"
     transform="translate(0,-24)">
    <path
       style="fill:url(#linearGradient3823);fill-opacity:1;fill-rule:nonzero;stroke:none"
       d="M 4.9375,27 3,28.9375 6.3125,32.28125 4.6875,33.90625 10.875,34.875 9.9375,28.6875 8.28125,30.34375 4.9375,27 z m 14.125,0 -3.34375,3.34375 -1.625,-1.65625 L 13.125,34.875 19.3125,33.9375 17.6875,32.28125 21,28.9375 19.0625,27 z M 10.875,37.125 4.6875,38.0625 6.34375,39.71875 3,43.0625 4.9375,45 8.28125,41.65625 9.90625,43.3125 10.875,37.125 z m 2.25,0 0.9375,6.1875 1.65625,-1.625 L 19.0625,45 21,43.0625 17.6875,39.71875 19.3125,38.09375 13.125,37.125 z"
       id="path4197"
       inkscape:connector-curvature="0" />
    <path
       id="path3035"
       d="M 4.9375,27 3,28.9375 6.3125,32.28125 4.6875,33.90625 10.875,34.875 9.9375,28.6875 8.28125,30.34375 4.9375,27 z m 14.125,0 -3.34375,3.34375 -1.625,-1.65625 L 13.125,34.875 19.3125,33.9375 17.6875,32.28125 21,28.9375 19.0625,27 z M 10.875,37.125 4.6875,38.0625 6.34375,39.71875 3,43.0625 4.9375,45 8.28125,41.65625 9.90625,43.3125 10.875,37.125 z m 2.25,0 0.9375,6.1875 1.65625,-1.625 L 19.0625,45 21,43.0625 17.6875,39.71875 19.3125,38.09375 13.125,37.125 z"
       style="opacity:0.61000001;fill:none;stroke:#000000;stroke-opacity:1"
       inkscape:connector-curvature="0" />
    <path
       style="opacity:0.2;fill:#ffffff;fill-opacity:1;fill-rule:nonzero;stroke:none"
       d="m 4.9375,27.6875 -1.25,1.25 0.5,0.5 0.75,-0.75 3,3 0.34375,0.375 0.34375,-0.375 0.96875,-0.96875 0.53125,3.53125 0.15625,0.03125 -0.6875,-4.5625 -0.96875,0.96875 -0.34375,0.375 -0.34375,-0.375 -3,-3 z m 14.125,0 -3,3 -0.34375,0.375 -0.34375,-0.375 -0.9375,-0.96875 -0.71875,4.5625 0.15625,-0.03125 0.5625,-3.53125 0.9375,0.96875 0.34375,0.375 0.34375,-0.375 3,-3 0.75,0.75 0.5,-0.5 -1.25,-1.25 z M 6.5,32.78125 5.71875,33.5625 l 0.875,0.125 0.0625,-0.0625 0.375,-0.34375 L 6.65625,32.9375 6.5,32.78125 z m 11,0 L 17.34375,32.9375 17,33.28125 17.34375,33.625 17.4375,33.71875 18.28125,33.59375 17.5,32.78125 z m -7.21875,4.9375 -4.5625,0.6875 0.875,0.875 L 10.125,38.75 10.28125,37.71875 z m 3.4375,0 0.15625,1.03125 3.53125,0.5625 0.875,-0.875 -4.5625,-0.71875 z m -7.1875,2.5 -2.84375,2.84375 0.5,0.5 2.5,-2.5 0.375,-0.34375 L 6.6875,40.375 6.53125,40.21875 z m 10.96875,0 -0.15625,0.15625 -0.375,0.34375 0.375,0.34375 2.46875,2.5 0.5,-0.5 L 17.5,40.21875 z"
       id="path3805"
       inkscape:connector-curvature="0" />
  </g>
</svg>
