<?xml version="1.0" encoding="UTF-8" standalone="no"?>
<svg xmlns="http://www.w3.org/2000/svg" xmlns:xlink="http://www.w3.org/1999/xlink" xmlns:sodipodi="http://sodipodi.sourceforge.net/DTD/sodipodi-0.dtd" xmlns:inkscape="http://www.inkscape.org/namespaces/inkscape" width="24" height="24" version="1.1">
 <defs id="defs3497">
  <linearGradient id="linearGradient3783">
   <stop id="stop3785" stop-color="#555555"/>
   <stop offset="1" id="stop3787" stop-color="#666666"/>
  </linearGradient>
  <clipPath id="clipPath3669">
   <path d="M 0,96 96,96 96,0 0,0 0,96 z" id="path3671"/>
  </clipPath>
  <linearGradient inkscape:collect="always" xlink:href="#linearGradient3783" id="linearGradient3779" y1="19" x2="0" y2="-3" gradientUnits="userSpaceOnUse" gradientTransform="translate(4,28)"/>
 </defs>
 <metadata id="metadata3500"/>
 <g id="layer1" inkscape:label="Layer 1" inkscape:groupmode="layer" transform="translate(0,-24)">
  <path d="M 5,26.875 2.875,29 3.9375,30.0625 9.875,36 3.9375,41.9375 2.875,43 5,45.125 6.0625,44.0625 12,38.125 17.9375,44.0625 19,45.125 21.125,43 20.0625,41.9375 14.125,36 20.0625,30.0625 21.125,29 19,26.875 17.9375,27.9375 12,33.875 6.0625,27.9375 z" id="path2992" inkscape:connector-curvature="0" sodipodi:nodetypes="ccccccccccccccccccccc" color="#000000" stroke-width="3" fill="url(#linearGradient3779)"/>
  <path id="path3781" d="M 5,26.875 2.875,29 3.9375,30.0625 9.875,36 3.9375,41.9375 2.875,43 5,45.125 6.0625,44.0625 12,38.125 17.9375,44.0625 19,45.125 21.125,43 20.0625,41.9375 14.125,36 20.0625,30.0625 21.125,29 19,26.875 17.9375,27.9375 12,33.875 6.0625,27.9375 z" inkscape:connector-curvature="0" sodipodi:nodetypes="ccccccccccccccccccccc" opacity="0.61" color="#000000" fill="none" stroke="#000000"/>
  <path d="M 5,27.5625 3.5625,29 4.0625,29.5 5,28.5625 l 0.71875,0.71875 5.9375,5.9375 0.34375,0.375 0.34375,-0.375 5.9375,-5.9375 L 19,28.5625 19.9375,29.5 20.4375,29 19,27.5625 l -0.71875,0.71875 -5.9375,5.9375 -0.34375,0.375 -0.34375,-0.375 -5.9375,-5.9375 z M 10.0625,36.5 4.28125,42.28125 3.5625,43 l 0.5,0.5 0.21875,-0.21875 5.9375,-5.9375 0.375,-0.34375 -0.375,-0.34375 z m 3.875,0 -0.15625,0.15625 -0.375,0.34375 0.375,0.34375 5.9375,5.9375 0.21875,0.21875 0.5,-0.5 -0.71875,-0.71875 z" id="path3783" inkscape:connector-curvature="0" sodipodi:nodetypes="ccccccccccccccccccccccccccccccccccccc" opacity="0.2" color="#000000" stroke-width="3" fill="#ffffff"/>
 </g>
</svg>
