<?xml version="1.0" encoding="UTF-8" standalone="no"?>
<svg
   xmlns:dc="http://purl.org/dc/elements/1.1/"
   xmlns:cc="http://creativecommons.org/ns#"
   xmlns:rdf="http://www.w3.org/1999/02/22-rdf-syntax-ns#"
   xmlns:svg="http://www.w3.org/2000/svg"
   xmlns="http://www.w3.org/2000/svg"
   xmlns:xlink="http://www.w3.org/1999/xlink"
   width="24"
   height="24"
   id="svg3495"
   version="1.1">
  <defs
     id="defs3497">
    <linearGradient
       id="linearGradient3783">
      <stop
         style="stop-color:#555555;stop-opacity:1;"
         offset="0"
         id="stop3785" />
      <stop
         style="stop-color:#666666;stop-opacity:1;"
         offset="1"
         id="stop3787" />
    </linearGradient>
    <linearGradient
       xlink:href="#linearGradient3783"
       id="linearGradient3779"
       x1="8"
       y1="19"
       x2="8"
       y2="-3"
       gradientUnits="userSpaceOnUse"
       gradientTransform="translate(4,28)" />
  </defs>
  <metadata
     id="metadata3500">
    <rdf:RDF>
      <cc:Work
         rdf:about="">
        <dc:format>image/svg+xml</dc:format>
        <dc:type
           rdf:resource="http://purl.org/dc/dcmitype/StillImage" />
        <dc:title />
      </cc:Work>
    </rdf:RDF>
  </metadata>
  <g
     id="layer1"
     transform="translate(0,-24)">
    <path
       style="font-size:medium;font-style:normal;font-variant:normal;font-weight:normal;font-stretch:normal;text-indent:0;text-align:start;text-decoration:none;line-height:normal;letter-spacing:normal;word-spacing:normal;text-transform:none;direction:ltr;block-progression:tb;writing-mode:lr-tb;text-anchor:start;baseline-shift:baseline;color:#000000;fill:url(#linearGradient3779);fill-opacity:1;stroke:none;stroke-width:3;marker:none;visibility:visible;display:inline;overflow:visible;enable-background:accumulate;font-family:Sans;-inkscape-font-specification:Sans"
       d="M 5,26.875 2.875,29 3.9375,30.0625 9.875,36 3.9375,41.9375 2.875,43 5,45.125 6.0625,44.0625 12,38.125 17.9375,44.0625 19,45.125 21.125,43 20.0625,41.9375 14.125,36 20.0625,30.0625 21.125,29 19,26.875 17.9375,27.9375 12,33.875 6.0625,27.9375 z"
       id="path2992" />
    <path
       id="path3781"
       d="M 5,26.875 2.875,29 3.9375,30.0625 9.875,36 3.9375,41.9375 2.875,43 5,45.125 6.0625,44.0625 12,38.125 17.9375,44.0625 19,45.125 21.125,43 20.0625,41.9375 14.125,36 20.0625,30.0625 21.125,29 19,26.875 17.9375,27.9375 12,33.875 6.0625,27.9375 z"
       style="font-size:medium;font-style:normal;font-variant:normal;font-weight:normal;font-stretch:normal;text-indent:0;text-align:start;text-decoration:none;line-height:normal;letter-spacing:normal;word-spacing:normal;text-transform:none;direction:ltr;block-progression:tb;writing-mode:lr-tb;text-anchor:start;baseline-shift:baseline;opacity:0.61000001;color:#000000;fill:none;stroke:#000000;stroke-width:1;stroke-miterlimit:4;stroke-opacity:1;stroke-dasharray:none;marker:none;visibility:visible;display:inline;overflow:visible;enable-background:accumulate;font-family:Sans;-inkscape-font-specification:Sans" />
    <path
       style="font-size:medium;font-style:normal;font-variant:normal;font-weight:normal;font-stretch:normal;text-indent:0;text-align:start;text-decoration:none;line-height:normal;letter-spacing:normal;word-spacing:normal;text-transform:none;direction:ltr;block-progression:tb;writing-mode:lr-tb;text-anchor:start;baseline-shift:baseline;opacity:0.2;color:#000000;fill:#ffffff;fill-opacity:1;stroke:none;stroke-width:3;marker:none;visibility:visible;display:inline;overflow:visible;enable-background:accumulate;font-family:Sans;-inkscape-font-specification:Sans"
       d="M 5,27.5625 3.5625,29 4.0625,29.5 5,28.5625 l 0.71875,0.71875 5.9375,5.9375 0.34375,0.375 0.34375,-0.375 5.9375,-5.9375 L 19,28.5625 19.9375,29.5 20.4375,29 19,27.5625 l -0.71875,0.71875 -5.9375,5.9375 -0.34375,0.375 -0.34375,-0.375 -5.9375,-5.9375 z M 10.0625,36.5 4.28125,42.28125 3.5625,43 l 0.5,0.5 0.21875,-0.21875 5.9375,-5.9375 0.375,-0.34375 -0.375,-0.34375 z m 3.875,0 -0.15625,0.15625 -0.375,0.34375 0.375,0.34375 5.9375,5.9375 0.21875,0.21875 0.5,-0.5 -0.71875,-0.71875 z"
       id="path3783" />
  </g>
</svg>
