<?xml version="1.0" encoding="UTF-8" standalone="no"?>
<!-- Created with Inkscape (http://www.inkscape.org/) -->

<svg
   xmlns:dc="http://purl.org/dc/elements/1.1/"
   xmlns:cc="http://creativecommons.org/ns#"
   xmlns:rdf="http://www.w3.org/1999/02/22-rdf-syntax-ns#"
   xmlns:svg="http://www.w3.org/2000/svg"
   xmlns="http://www.w3.org/2000/svg"
   xmlns:xlink="http://www.w3.org/1999/xlink"
   xmlns:sodipodi="http://sodipodi.sourceforge.net/DTD/sodipodi-0.dtd"
   xmlns:inkscape="http://www.inkscape.org/namespaces/inkscape"
   version="1.1"
   width="32"
   height="32"
   id="svg4248"
   inkscape:version="0.48.4 r9939"
   sodipodi:docname="dialog-question.svg">
  <sodipodi:namedview
     pagecolor="#ffffff"
     bordercolor="#666666"
     borderopacity="1"
     objecttolerance="10"
     gridtolerance="10"
     guidetolerance="10"
     inkscape:pageopacity="0"
     inkscape:pageshadow="2"
     inkscape:window-width="1364"
     inkscape:window-height="700"
     id="namedview46"
     showgrid="false"
     showborder="false"
     inkscape:zoom="1"
     inkscape:cx="20.31522"
     inkscape:cy="18.9827"
     inkscape:window-x="0"
     inkscape:window-y="28"
     inkscape:window-maximized="1"
     inkscape:current-layer="layer2">
    <inkscape:grid
       type="xygrid"
       id="grid3847" />
  </sodipodi:namedview>
  <defs
     id="defs4250">
    <linearGradient
       id="linearGradient3904">
      <stop
         id="stop3906"
         offset="0"
         style="stop-color:#234683;stop-opacity:1;" />
      <stop
         id="stop3908"
         offset="1"
         style="stop-color:#30589e;stop-opacity:1;" />
    </linearGradient>
    <linearGradient
       inkscape:collect="always"
       id="linearGradient3812">
      <stop
         style="stop-color:#ffffff;stop-opacity:1;"
         offset="0"
         id="stop3814" />
      <stop
         style="stop-color:#ffffff;stop-opacity:0;"
         offset="1"
         id="stop3816" />
    </linearGradient>
    <radialGradient
       inkscape:collect="always"
       xlink:href="#outerBackgroundGradient"
       id="radialGradient3805"
       gradientUnits="userSpaceOnUse"
       gradientTransform="matrix(4.5367027e-8,-1.7632481,-1.8653063,0,31.761486,43.251051)"
       cx="6.1596723"
       cy="8.4497671"
       fx="6.1596723"
       fy="8.4497671"
       r="19.99999" />
    <linearGradient
       inkscape:collect="always"
       xlink:href="#linearGradient3812"
       id="linearGradient3818"
       x1="2"
       y1="16.000001"
       x2="30"
       y2="16.000001"
       gradientUnits="userSpaceOnUse"
       gradientTransform="matrix(0,1,-1,0,32.000001,8.5e-7)" />
    <radialGradient
       inkscape:collect="always"
       xlink:href="#linearGradient26113-9-3-1"
       id="radialGradient3755"
       gradientUnits="userSpaceOnUse"
       gradientTransform="matrix(1,0,0,0.37,0,24.5124)"
       cx="24.849752"
       cy="38.908627"
       fx="24.849752"
       fy="38.908627"
       r="20.203051" />
    <linearGradient
       inkscape:collect="always"
       id="linearGradient26113-9-3-1">
      <stop
         style="stop-color: rgb(0, 0, 0); stop-opacity: 1;"
         offset="0"
         id="stop26115-7-7-9" />
      <stop
         style="stop-color: rgb(0, 0, 0); stop-opacity: 0;"
         offset="1"
         id="stop26117-3-7-8" />
    </linearGradient>
    <linearGradient
       inkscape:collect="always"
       id="linearGradient26121-3-8-2">
      <stop
         style="stop-color: rgb(0, 0, 0); stop-opacity: 1;"
         offset="0"
         id="stop26123-4-7-8" />
      <stop
         style="stop-color: rgb(0, 0, 0); stop-opacity: 0;"
         offset="1"
         id="stop26125-3-9-9" />
    </linearGradient>
    <radialGradient
       r="20.203051"
       fy="38.908627"
       fx="24.849752"
       cy="38.908627"
       cx="24.849752"
       gradientTransform="matrix(1.00851,0,0,0.373148,-0.211403,24.39)"
       gradientUnits="userSpaceOnUse"
       id="radialGradient3972"
       xlink:href="#linearGradient26121-3-8-2"
       inkscape:collect="always" />
    <linearGradient
       id="outerBackgroundGradient">
      <stop
         style="stop-color:#1450b9;stop-opacity:1;"
         offset="0"
         id="stop3864-8-6" />
      <stop
         style="stop-color:#5187e6;stop-opacity:1;"
         offset="1"
         id="stop3866-9-1" />
    </linearGradient>
    <linearGradient
       inkscape:collect="always"
       xlink:href="#linearGradient3904"
       id="linearGradient3902"
       x1="1"
       y1="15.999999"
       x2="31"
       y2="15.999999"
       gradientUnits="userSpaceOnUse"
       gradientTransform="matrix(0,-1,1,0,5.0000306e-7,32)" />
    <linearGradient
       inkscape:collect="always"
       xlink:href="#linearGradient3904"
       id="linearGradient3109"
       gradientUnits="userSpaceOnUse"
       gradientTransform="matrix(0,-1,1,0,5.0000306e-7,32)"
       x1="1"
       y1="15.999999"
       x2="31"
       y2="15.999999" />
    <radialGradient
       inkscape:collect="always"
       xlink:href="#outerBackgroundGradient"
       id="radialGradient3111"
       gradientUnits="userSpaceOnUse"
       gradientTransform="matrix(4.5367027e-8,-1.7632481,-1.8653063,0,31.761486,43.251051)"
       cx="6.1596723"
       cy="8.4497671"
       fx="6.1596723"
       fy="8.4497671"
       r="19.99999" />
    <radialGradient
       inkscape:collect="always"
       xlink:href="#outerBackgroundGradient-5"
       id="radialGradient4373"
       cx="24"
       cy="12.000001"
       fx="24"
       fy="12.000001"
       r="19.5"
       gradientUnits="userSpaceOnUse"
       gradientTransform="matrix(-1.4358974,0,0,-1.823144,58.461538,33.877729)" />
    <linearGradient
       id="outerBackgroundGradient-5">
      <stop
         style="stop-color:#7fa3e4;stop-opacity:1;"
         offset="0"
         id="stop3864-8-6-1" />
      <stop
         id="stop4375"
         offset="0.75"
         style="stop-color:#3e6ec4;stop-opacity:1;" />
      <stop
         style="stop-color:#1450b9;stop-opacity:1;"
         offset="1"
         id="stop3866-9-1-1" />
    </linearGradient>
    <radialGradient
       r="19.5"
       fy="12.000001"
       fx="24"
       cy="12.000001"
       cx="24"
       gradientTransform="matrix(-1.0677186,0,0,-1.3556712,41.625244,23.344978)"
       gradientUnits="userSpaceOnUse"
       id="radialGradient4393"
       xlink:href="#outerBackgroundGradient-5"
       inkscape:collect="always" />
  </defs>
  <metadata
     id="metadata4253">
    <rdf:RDF>
      <cc:Work
         rdf:about="">
        <dc:format>image/svg+xml</dc:format>
        <dc:type
           rdf:resource="http://purl.org/dc/dcmitype/StillImage" />
        <dc:title></dc:title>
      </cc:Work>
    </rdf:RDF>
  </metadata>
  <g
     inkscape:groupmode="layer"
     id="layer1"
     inkscape:label="Background">
    <path
       sodipodi:type="arc"
       style="fill:url(#radialGradient3972);fill-opacity:1;stroke:none;display:inline;filter:url(#filter5927);enable-background:new"
       id="path8606"
       sodipodi:cx="24.849752"
       sodipodi:cy="38.908627"
       sodipodi:rx="20.203051"
       sodipodi:ry="7.4751287"
       d="m 45.052803,38.908627 a 20.203051,7.4751287 0 1 1 -40.4061012,0 20.203051,7.4751287 0 1 1 40.4061012,0 z"
       transform="matrix(0.51081599,0,0,0.46595786,3.1704533,10.023687)" />
    <path
       transform="matrix(0.69053217,0,0,0.62989172,-1.2951468,3.2832567)"
       d="m 45.052803,38.908627 a 20.203051,7.4751287 0 1 1 -40.4061012,0 20.203051,7.4751287 0 1 1 40.4061012,0 z"
       sodipodi:ry="7.4751287"
       sodipodi:rx="20.203051"
       sodipodi:cy="38.908627"
       sodipodi:cx="24.849752"
       id="path8608"
       style="opacity:0.51836697;fill:url(#radialGradient3755);fill-opacity:1;stroke:none;display:inline;filter:url(#filter5788);enable-background:new"
       sodipodi:type="arc" />
    <path
       style="fill:url(#radialGradient4393);fill-opacity:1;fill-rule:nonzero;stroke:none"
       id="path6495"
       inkscape:connector-curvature="0"
       d="M 1.5,15.999486 C 1.5,24.007873 7.99235,30.5 15.999818,30.5 24.008018,30.5 30.5,24.007799 30.5,15.999486 30.5,7.991467 24.008018,1.5 15.999818,1.5 7.99235,1.5 1.5,7.991467 1.5,15.999486 l 0,0 z" />
    <path
       d="m 30.500001,15.999999 c 0,8.000599 -6.499399,14.500001 -14.5,14.500001 -8.0006015,0 -14.5000035,-6.499402 -14.5000015,-14.500001 0,-8.0005975 6.4994,-14.5000065 14.5000015,-14.4999995 8.000601,0 14.5,6.499402 14.5,14.4999995 z"
       inkscape:connector-curvature="0"
       id="path3866"
       style="opacity:0.91;color:#000000;fill:none;stroke:url(#linearGradient3902);stroke-width:1;stroke-opacity:1;marker:none;visibility:visible;display:inline;overflow:visible;enable-background:accumulate" />
    <path
       style="color:#000000;fill:#ffffff;fill-opacity:1;fill-rule:nonzero;stroke:none;stroke-width:1;marker:none;visibility:visible;display:inline;overflow:visible;enable-background:accumulate;opacity:0.2"
       d="M 16 2 C 8.2701871 1.9999932 2 8.2701906 2 16 C 2 16.168178 2.0253633 16.333253 2.03125 16.5 C 2.295928 9.0027282 8.4383652 2.9999933 16 3 C 23.561635 3 29.704072 9.0027285 29.96875 16.5 C 29.974637 16.333253 30 16.168178 30 16 C 30 8.2701906 23.729813 2 16 2 z "
       id="path3101" />
  </g>
  <g
     inkscape:groupmode="layer"
     id="layer2"
     inkscape:label="Symbol">
    <g
       id="g3053"
       transform="translate(-19.548,5.5)">
      <path
         inkscape:connector-curvature="0"
         id="path3850"
         style="opacity:0.3;fill:#000000;fill-opacity:1;fill-rule:nonzero;stroke:none;display:inline;enable-background:new"
         d="m 33.033107,17.247557 c 0,-0.415122 0.05957,-0.765864 0.178736,-1.053185 0.11915,-0.286357 0.284429,-0.51795 0.4968,-0.694757 0.211407,-0.176815 0.46125,-0.304622 0.748572,-0.384372 0.286357,-0.0788 0.5929,-0.119158 0.919613,-0.119158 0.309429,0 0.603472,0.04035 0.881179,0.119158 0.277715,0.07975 0.522758,0.207557 0.735121,0.384372 0.211407,0.176807 0.378615,0.4084 0.502572,0.694757 0.123957,0.287321 0.185457,0.638063 0.185457,1.053185 0,0.397828 -0.0615,0.738 -0.185457,1.020515 -0.123957,0.281556 -0.291165,0.516985 -0.502572,0.70245 -0.212363,0.1845 -0.457406,0.319035 -0.735121,0.403593 C 35.9803,19.457715 35.686257,19.5 35.376828,19.5 c -0.326713,0 -0.633256,-0.04228 -0.919613,-0.125885 -0.287322,-0.08456 -0.537165,-0.219093 -0.748572,-0.403593 -0.212371,-0.185465 -0.37765,-0.420894 -0.4968,-0.70245 -0.119158,-0.282515 -0.178736,-0.622687 -0.178736,-1.020515 m 0.437221,-4.529857 0,-0.979193 c 0,-0.450685 0.04615,-0.859085 0.139337,-1.2252 0.09225,-0.367079 0.233507,-0.714935 0.423778,-1.046464 0.1893,-0.330558 0.434342,-0.653436 0.73415,-0.9667 0.300779,-0.313271 0.66305,-0.638064 1.086829,-0.973428 0.370921,-0.291165 0.684185,-0.55158 0.939793,-0.782208 0.256578,-0.2287 0.46317,-0.456442 0.622692,-0.682264 0.15855,-0.224858 0.273865,-0.460286 0.344015,-0.70725 0.07107,-0.247921 0.106663,-0.535243 0.106663,-0.861 0,-0.503536 -0.17105,-0.919621 -0.510257,-1.2453784 -0.340171,-0.3267215 -0.859085,-0.4900715 -1.556721,-0.4900715 -0.608279,0 -1.2646,0.1278 -1.967042,0.3834138 -0.700522,0.2565646 -1.42795,0.5698361 -2.178443,0.9407501 L 30.305,1.1556931 c 0.378607,-0.2210146 0.791815,-0.4305 1.237693,-0.62845 0.446835,-0.1989216 0.91,-0.3757285 1.390472,-0.5304362 0.481428,-0.15375 0.969592,-0.2757923 1.463507,-0.3642 C 34.891557,-0.4557931 35.376828,-0.5 35.854422,-0.5 c 0.900393,0 1.712385,0.1085854 2.435971,0.3247931 0.72455,0.2162138 1.338592,0.5314 1.841164,0.9465284 0.504489,0.4151216 0.88982,0.9196139 1.158889,1.5105931 C 41.560469,2.87385 41.695,3.548428 41.695,4.307572 c 0,0.556385 -0.06246,1.053185 -0.185454,1.490413 -0.123,0.43723 -0.3075,0.843708 -0.5487,1.218472 -0.244084,0.375722 -0.5487,0.738 -0.914811,1.085858 -0.36612,0.34882 -0.792778,0.71782 -1.27805,1.106042 -0.37092,0.291158 -0.67362,0.545808 -0.908085,0.762015 -0.233507,0.216221 -0.41705,0.421856 -0.548693,0.615 -0.132614,0.195071 -0.222942,0.395913 -0.27195,0.603471 -0.04807,0.206607 -0.07303,0.451642 -0.07303,0.734164 l 0,0.794693 -3.495893,0 z" />
      <path
         d="m 33.033107,18.247557 c 0,-0.415122 0.05957,-0.765864 0.178736,-1.053185 0.11915,-0.286357 0.284429,-0.51795 0.4968,-0.694757 0.211407,-0.176815 0.46125,-0.304622 0.748572,-0.384372 0.286357,-0.0788 0.5929,-0.119158 0.919613,-0.119158 0.309429,0 0.603472,0.04035 0.881179,0.119158 0.277715,0.07975 0.522758,0.207557 0.735121,0.384372 0.211407,0.176807 0.378615,0.4084 0.502572,0.694757 0.123957,0.287321 0.185457,0.638063 0.185457,1.053185 0,0.397828 -0.0615,0.738 -0.185457,1.020515 -0.123957,0.281556 -0.291165,0.516985 -0.502572,0.70245 -0.212363,0.1845 -0.457406,0.319035 -0.735121,0.403593 C 35.9803,20.457715 35.686257,20.5 35.376828,20.5 c -0.326713,0 -0.633256,-0.04228 -0.919613,-0.125885 -0.287322,-0.08456 -0.537165,-0.219093 -0.748572,-0.403593 -0.212371,-0.185465 -0.37765,-0.420894 -0.4968,-0.70245 -0.119158,-0.282515 -0.178736,-0.622687 -0.178736,-1.020515 m 0.437221,-4.529857 0,-0.979193 c 0,-0.450685 0.04615,-0.859085 0.139337,-1.2252 0.09225,-0.367079 0.233507,-0.714935 0.423778,-1.046464 0.1893,-0.330558 0.434342,-0.653436 0.73415,-0.9667 0.300779,-0.313271 0.66305,-0.638064 1.086829,-0.973428 0.370921,-0.291165 0.684185,-0.55158 0.939793,-0.782208 0.256578,-0.2287 0.46317,-0.456442 0.622692,-0.682264 0.15855,-0.224858 0.273865,-0.460286 0.344015,-0.70725 0.07107,-0.247921 0.106663,-0.535243 0.106663,-0.861 0,-0.503536 -0.17105,-0.919621 -0.510257,-1.2453784 -0.340171,-0.3267215 -0.859085,-0.4900715 -1.556721,-0.4900715 -0.608279,0 -1.2646,0.1278 -1.967042,0.3834138 -0.700522,0.2565646 -1.42795,0.5698361 -2.178443,0.9407501 L 30.305,2.1556931 c 0.378607,-0.2210146 0.791815,-0.4305 1.237693,-0.62845 0.446835,-0.1989216 0.91,-0.3757285 1.390472,-0.5304362 0.481428,-0.15375 0.969592,-0.2757923 1.463507,-0.3642 C 34.891557,0.5442069 35.376828,0.5 35.854422,0.5 c 0.900393,0 1.712385,0.1085854 2.435971,0.3247931 0.72455,0.2162138 1.338592,0.5314 1.841164,0.9465284 0.504489,0.4151216 0.88982,0.9196139 1.158889,1.5105931 C 41.560469,3.87385 41.695,4.548428 41.695,5.307572 c 0,0.556385 -0.06246,1.053185 -0.185454,1.490413 -0.123,0.43723 -0.3075,0.843708 -0.5487,1.218472 -0.244084,0.375722 -0.5487,0.738 -0.914811,1.085858 -0.36612,0.34882 -0.792778,0.71782 -1.27805,1.106042 -0.37092,0.291158 -0.67362,0.545808 -0.908085,0.762015 -0.233507,0.216221 -0.41705,0.421856 -0.548693,0.615 -0.132614,0.195071 -0.222942,0.395913 -0.27195,0.603471 -0.04807,0.206607 -0.07303,0.451642 -0.07303,0.734164 l 0,0.794693 -3.495893,0 z"
         style="fill:#ffffff;fill-opacity:1;fill-rule:nonzero;stroke:none;display:inline;enable-background:new"
         id="path4055"
         inkscape:connector-curvature="0" />
    </g>
  </g>
</svg>
