<?xml version="1.0" encoding="UTF-8" standalone="no"?>
<!-- Created with Inkscape (http://www.inkscape.org/) -->

<svg
   xmlns:dc="http://purl.org/dc/elements/1.1/"
   xmlns:cc="http://creativecommons.org/ns#"
   xmlns:rdf="http://www.w3.org/1999/02/22-rdf-syntax-ns#"
   xmlns:svg="http://www.w3.org/2000/svg"
   xmlns="http://www.w3.org/2000/svg"
   xmlns:xlink="http://www.w3.org/1999/xlink"
   xmlns:sodipodi="http://sodipodi.sourceforge.net/DTD/sodipodi-0.dtd"
   xmlns:inkscape="http://www.inkscape.org/namespaces/inkscape"
   width="32px"
   height="32px"
   id="svg5014"
   version="1.1"
   inkscape:version="0.48.4 r9939"
   sodipodi:docname="internet-mail.svg">
  <defs
     id="defs5016">
    <linearGradient
       id="linearGradient3988-5">
      <stop
         style="stop-color:#ededed;stop-opacity:1;"
         offset="0"
         id="stop3990-5" />
      <stop
         style="stop-color:#fafafa;stop-opacity:1;"
         offset="1"
         id="stop3992-0" />
    </linearGradient>
    <linearGradient
       id="linearGradient3960">
      <stop
         style="stop-color:#000000;stop-opacity:0;"
         offset="0"
         id="stop3962" />
      <stop
         id="stop3970"
         offset="0.5"
         style="stop-color:#000000;stop-opacity:1;" />
      <stop
         style="stop-color:#000000;stop-opacity:0;"
         offset="1"
         id="stop3964" />
    </linearGradient>
    <linearGradient
       inkscape:collect="always"
       id="linearGradient3952">
      <stop
         style="stop-color:#000000;stop-opacity:1;"
         offset="0"
         id="stop3954" />
      <stop
         style="stop-color:#000000;stop-opacity:0;"
         offset="1"
         id="stop3956" />
    </linearGradient>
    <linearGradient
       inkscape:collect="always"
       id="linearGradient3944">
      <stop
         style="stop-color:#000000;stop-opacity:1;"
         offset="0"
         id="stop3946" />
      <stop
         style="stop-color:#000000;stop-opacity:0;"
         offset="1"
         id="stop3948" />
    </linearGradient>
    <linearGradient
       id="linearGradient3154">
      <stop
         style="stop-color:#000000;stop-opacity:0;"
         offset="0"
         id="stop3156" />
      <stop
         id="stop3158"
         offset="0.5"
         style="stop-color:#000000;stop-opacity:1;" />
      <stop
         style="stop-color:#000000;stop-opacity:0;"
         offset="1"
         id="stop3160" />
    </linearGradient>
    <radialGradient
       inkscape:collect="always"
       xlink:href="#linearGradient3944"
       id="radialGradient4001"
       gradientUnits="userSpaceOnUse"
       gradientTransform="matrix(1,0,0,0.75,0,10.875)"
       cx="9"
       cy="43.5"
       fx="9"
       fy="43.5"
       r="2" />
    <linearGradient
       inkscape:collect="always"
       xlink:href="#linearGradient3988-5"
       id="linearGradient5128"
       gradientUnits="userSpaceOnUse"
       gradientTransform="matrix(0,0.12419355,-0.12564103,0,4.461562,-34.238722)"
       x1="146.85724"
       y1="290.20425"
       x2="146.85724"
       y2="35.510391" />
    <radialGradient
       inkscape:collect="always"
       xlink:href="#linearGradient3944"
       id="radialGradient5947"
       gradientUnits="userSpaceOnUse"
       gradientTransform="matrix(1,0,0,0.75,-7,-5.125)"
       cx="9"
       cy="43.5"
       fx="9"
       fy="43.5"
       r="2" />
    <radialGradient
       inkscape:collect="always"
       xlink:href="#linearGradient3952"
       id="radialGradient5950"
       gradientUnits="userSpaceOnUse"
       gradientTransform="matrix(1,0,0,0.75,-10,-5.125)"
       cx="40"
       cy="43.5"
       fx="40"
       fy="43.5"
       r="2" />
    <linearGradient
       inkscape:collect="always"
       xlink:href="#linearGradient3960"
       id="linearGradient5953"
       gradientUnits="userSpaceOnUse"
       gradientTransform="matrix(1.2727273,0,0,1,-9.4545455,-16)"
       x1="25"
       y1="45"
       x2="25"
       y2="42" />
    <linearGradient
       inkscape:collect="always"
       xlink:href="#linearGradient3960"
       id="linearGradient6006"
       gradientUnits="userSpaceOnUse"
       gradientTransform="matrix(1.2727273,0,0,1,-9.4545455,-16)"
       x1="25"
       y1="45"
       x2="25"
       y2="42" />
    <radialGradient
       inkscape:collect="always"
       xlink:href="#linearGradient3952"
       id="radialGradient6008"
       gradientUnits="userSpaceOnUse"
       gradientTransform="matrix(1,0,0,0.75,-10,-5.125)"
       cx="40"
       cy="43.5"
       fx="40"
       fy="43.5"
       r="2" />
    <radialGradient
       inkscape:collect="always"
       xlink:href="#linearGradient3944"
       id="radialGradient6010"
       gradientUnits="userSpaceOnUse"
       gradientTransform="matrix(1,0,0,0.75,-7,-5.125)"
       cx="9"
       cy="43.5"
       fx="9"
       fy="43.5"
       r="2" />
    <linearGradient
       inkscape:collect="always"
       xlink:href="#linearGradient3988-5"
       id="linearGradient6012"
       gradientUnits="userSpaceOnUse"
       gradientTransform="matrix(0,0.12419355,-0.12564103,0,4.461562,-34.238722)"
       x1="146.85724"
       y1="290.20425"
       x2="146.85724"
       y2="35.510391" />
    <linearGradient
       id="linearGradient7250">
      <stop
         id="stop7252"
         offset="0"
         style="stop-color:#ffffff;stop-opacity:1;" />
      <stop
         id="stop7254"
         offset="1"
         style="stop-color:#eeeeec;stop-opacity:1" />
    </linearGradient>
    <linearGradient
       id="linearGradient3702">
      <stop
         id="stop3704"
         offset="0"
         style="stop-color:black;stop-opacity:0;" />
      <stop
         id="stop3710"
         offset="0.5"
         style="stop-color:black;stop-opacity:1;" />
      <stop
         id="stop3706"
         offset="1"
         style="stop-color:black;stop-opacity:0;" />
    </linearGradient>
    <linearGradient
       id="outerBackgroundGradient-9">
      <stop
         style="stop-color:#8c166c;stop-opacity:1;"
         offset="0"
         id="stop3864-8-6-6" />
      <stop
         id="stop4409-9"
         offset="0.36206895"
         style="stop-color:#ca3561;stop-opacity:1;" />
      <stop
         style="stop-color:#f38f4e;stop-opacity:1;"
         offset="1"
         id="stop3866-9-1-1" />
    </linearGradient>
    <clipPath
       clipPathUnits="userSpaceOnUse"
       id="clipPath4552">
      <rect
         style="opacity:0.2;fill:#000000;fill-opacity:1;stroke:none"
         id="rect4554"
         width="21.097717"
         height="21.097717"
         x="42.891773"
         y="24.010498"
         rx="0" />
    </clipPath>
    <linearGradient
       id="linearGradient4094-8">
      <stop
         style="stop-color:#e28192;stop-opacity:1;"
         offset="0"
         id="stop4096-0" />
      <stop
         id="stop4317-3"
         offset="0.25862068"
         style="stop-color:#f7d6c7;stop-opacity:1;" />
      <stop
         style="stop-color:#fffee4;stop-opacity:1;"
         offset="1"
         id="stop4098-7" />
    </linearGradient>
    <linearGradient
       inkscape:collect="always"
       xlink:href="#outerBackgroundGradient-9"
       id="linearGradient6169"
       gradientUnits="userSpaceOnUse"
       gradientTransform="matrix(0.76923064,0,0,0.76923064,38.615385,14.514423)"
       x1="-21.478369"
       y1="-0.80551612"
       x2="-21.478369"
       y2="18.005089" />
    <linearGradient
       inkscape:collect="always"
       xlink:href="#linearGradient4094-8"
       id="linearGradient6176"
       gradientUnits="userSpaceOnUse"
       gradientTransform="matrix(0,-1,1,0,-209.13264,365.12502)"
       x1="324"
       y1="260"
       x2="332"
       y2="260" />
    <radialGradient
       inkscape:collect="always"
       xlink:href="#linearGradient7250"
       id="radialGradient6223"
       gradientUnits="userSpaceOnUse"
       gradientTransform="matrix(2.5334112,0,0,1.5232935,-0.33338,8.6991569)"
       cx="10.651658"
       cy="12.115259"
       fx="10.651658"
       fy="12.115259"
       r="8" />
    <linearGradient
       inkscape:collect="always"
       xlink:href="#linearGradient3960"
       id="linearGradient6278"
       gradientUnits="userSpaceOnUse"
       gradientTransform="matrix(1.2727273,0,0,1,-9.4545455,-16)"
       x1="25"
       y1="45"
       x2="25"
       y2="42" />
    <radialGradient
       inkscape:collect="always"
       xlink:href="#linearGradient3952"
       id="radialGradient6280"
       gradientUnits="userSpaceOnUse"
       gradientTransform="matrix(1,0,0,0.75,-10,-5.125)"
       cx="40"
       cy="43.5"
       fx="40"
       fy="43.5"
       r="2" />
    <radialGradient
       inkscape:collect="always"
       xlink:href="#linearGradient3944"
       id="radialGradient6282"
       gradientUnits="userSpaceOnUse"
       gradientTransform="matrix(1,0,0,0.75,-7,-5.125)"
       cx="9"
       cy="43.5"
       fx="9"
       fy="43.5"
       r="2" />
    <linearGradient
       inkscape:collect="always"
       xlink:href="#linearGradient3988-5"
       id="linearGradient6284"
       gradientUnits="userSpaceOnUse"
       gradientTransform="matrix(0,0.12419355,-0.12564103,0,4.461562,-34.238722)"
       x1="146.85724"
       y1="290.20425"
       x2="146.85724"
       y2="35.510391" />
    <linearGradient
       inkscape:collect="always"
       xlink:href="#linearGradient3960"
       id="linearGradient6290"
       gradientUnits="userSpaceOnUse"
       gradientTransform="matrix(1.2727273,0,0,1,-9.4545455,-16)"
       x1="25"
       y1="45"
       x2="25"
       y2="42" />
    <linearGradient
       inkscape:collect="always"
       xlink:href="#linearGradient3988-5"
       id="linearGradient6296"
       gradientUnits="userSpaceOnUse"
       gradientTransform="matrix(0,0.12419355,-0.12564103,0,4.461562,-34.238722)"
       x1="146.85724"
       y1="290.20425"
       x2="146.85724"
       y2="35.510391" />
    <linearGradient
       inkscape:collect="always"
       xlink:href="#linearGradient3960"
       id="linearGradient6315"
       gradientUnits="userSpaceOnUse"
       gradientTransform="matrix(1.2727273,0,0,1,-9.4545455,-16)"
       x1="25"
       y1="45"
       x2="25"
       y2="42" />
    <radialGradient
       inkscape:collect="always"
       xlink:href="#linearGradient3952"
       id="radialGradient6317"
       gradientUnits="userSpaceOnUse"
       gradientTransform="matrix(1,0,0,0.75,-10,-5.125)"
       cx="40"
       cy="43.5"
       fx="40"
       fy="43.5"
       r="2" />
    <radialGradient
       inkscape:collect="always"
       xlink:href="#linearGradient3944"
       id="radialGradient6319"
       gradientUnits="userSpaceOnUse"
       gradientTransform="matrix(1,0,0,0.75,-7,-5.125)"
       cx="9"
       cy="43.5"
       fx="9"
       fy="43.5"
       r="2" />
    <radialGradient
       inkscape:collect="always"
       xlink:href="#linearGradient3944"
       id="radialGradient6322"
       gradientUnits="userSpaceOnUse"
       gradientTransform="matrix(1,0,0,0.75,8,-2.125)"
       cx="9"
       cy="43.5"
       fx="9"
       fy="43.5"
       r="2" />
    <radialGradient
       inkscape:collect="always"
       xlink:href="#linearGradient3952"
       id="radialGradient6325"
       gradientUnits="userSpaceOnUse"
       gradientTransform="matrix(1,0,0,0.75,-10,-2.125)"
       cx="40"
       cy="43.5"
       fx="40"
       fy="43.5"
       r="2" />
    <linearGradient
       inkscape:collect="always"
       xlink:href="#linearGradient3960"
       id="linearGradient6328"
       gradientUnits="userSpaceOnUse"
       gradientTransform="matrix(0.59090911,0,0,1,11.681818,-13)"
       x1="25"
       y1="45"
       x2="25"
       y2="42" />
    <linearGradient
       inkscape:collect="always"
       xlink:href="#linearGradient3960"
       id="linearGradient6335"
       gradientUnits="userSpaceOnUse"
       gradientTransform="matrix(0.59090911,0,0,1,11.681818,-13)"
       x1="25"
       y1="45"
       x2="25"
       y2="42" />
    <radialGradient
       inkscape:collect="always"
       xlink:href="#linearGradient3952"
       id="radialGradient6337"
       gradientUnits="userSpaceOnUse"
       gradientTransform="matrix(1,0,0,0.75,-10,-2.125)"
       cx="40"
       cy="43.5"
       fx="40"
       fy="43.5"
       r="2" />
    <radialGradient
       inkscape:collect="always"
       xlink:href="#linearGradient3944"
       id="radialGradient6339"
       gradientUnits="userSpaceOnUse"
       gradientTransform="matrix(1,0,0,0.75,8,-2.125)"
       cx="9"
       cy="43.5"
       fx="9"
       fy="43.5"
       r="2" />
    <radialGradient
       inkscape:collect="always"
       xlink:href="#linearGradient3944"
       id="radialGradient6342"
       gradientUnits="userSpaceOnUse"
       gradientTransform="matrix(1,0,0,0.75,8,-2.125)"
       cx="9"
       cy="43.5"
       fx="9"
       fy="43.5"
       r="2" />
    <radialGradient
       inkscape:collect="always"
       xlink:href="#linearGradient3952"
       id="radialGradient6345"
       gradientUnits="userSpaceOnUse"
       gradientTransform="matrix(1,0,0,0.75,-10,-2.125)"
       cx="40"
       cy="43.5"
       fx="40"
       fy="43.5"
       r="2" />
    <linearGradient
       inkscape:collect="always"
       xlink:href="#linearGradient3960"
       id="linearGradient6348"
       gradientUnits="userSpaceOnUse"
       gradientTransform="matrix(0.59090911,0,0,1,11.681818,-13)"
       x1="25"
       y1="45"
       x2="25"
       y2="42" />
  </defs>
  <sodipodi:namedview
     id="base"
     pagecolor="#ffffff"
     bordercolor="#666666"
     borderopacity="1.0"
     inkscape:pageopacity="0.0"
     inkscape:pageshadow="2"
     inkscape:zoom="1"
     inkscape:cx="29.415206"
     inkscape:cy="-1.5979154"
     inkscape:current-layer="layer1"
     showgrid="false"
     showborder="false"
     inkscape:grid-bbox="true"
     inkscape:document-units="px"
     inkscape:snap-bbox="true"
     inkscape:bbox-paths="true"
     inkscape:snap-bbox-edge-midpoints="true"
     inkscape:bbox-nodes="true"
     inkscape:snap-bbox-midpoints="true"
     inkscape:window-width="1364"
     inkscape:window-height="700"
     inkscape:window-x="0"
     inkscape:window-y="28"
     inkscape:window-maximized="1">
    <inkscape:grid
       type="xygrid"
       id="grid5131"
       empspacing="4"
       visible="true"
       enabled="true"
       snapvisiblegridlinesonly="true" />
  </sodipodi:namedview>
  <metadata
     id="metadata5019">
    <rdf:RDF>
      <cc:Work
         rdf:about="">
        <dc:format>image/svg+xml</dc:format>
        <dc:type
           rdf:resource="http://purl.org/dc/dcmitype/StillImage" />
        <dc:title></dc:title>
      </cc:Work>
    </rdf:RDF>
  </metadata>
  <g
     id="layer1"
     inkscape:label="Background"
     inkscape:groupmode="layer">
    <g
       id="g6258"
       transform="matrix(0.92768907,0.16357662,-0.16357662,0.92768907,3.9361577,-1.9687764)">
      <g
         id="g6260">
        <rect
           y="26"
           x="2"
           height="3"
           width="28"
           id="rect6262"
           style="opacity:0.4;fill:url(#linearGradient6278);fill-opacity:1;stroke:none" />
        <path
           inkscape:connector-curvature="0"
           id="path6264"
           d="m 30,26 0,3 0.5,0 C 31.331,29 32,28.331 32,27.5 32,26.669 31.331,26 30.5,26 L 30,26 z"
           style="opacity:0.4;fill:url(#radialGradient6280);fill-opacity:1;stroke:none" />
        <path
           inkscape:connector-curvature="0"
           id="path6266"
           d="M 1.40625,26 C 0.6271875,26 0,26.627187 0,27.40625 l 0,0.1875 C 0,28.372813 0.6271875,29 1.40625,29 L 2,29 2,26 1.40625,26 z"
           style="opacity:0.4;fill:url(#radialGradient6282);fill-opacity:1;stroke:none" />
      </g>
      <rect
         ry="0"
         y="-30"
         x="-27"
         height="28"
         width="22"
         id="rect6268"
         style="opacity:0.41000001;color:#bebebe;fill:none;stroke:#000000;stroke-width:2;stroke-linejoin:round;stroke-miterlimit:4;stroke-opacity:1;stroke-dasharray:none;marker:none;visibility:visible;display:inline;overflow:visible;enable-background:accumulate"
         transform="matrix(0,-1,-1,0,0,0)" />
      <rect
         transform="matrix(0,-1,-1,0,0,0)"
         style="color:#bebebe;fill:url(#linearGradient6284);fill-opacity:1;fill-rule:nonzero;stroke:none;stroke-width:0;marker:none;visibility:visible;display:inline;overflow:visible;enable-background:accumulate"
         id="rect6270"
         width="22"
         height="28"
         x="-27"
         y="-30"
         ry="0" />
      <path
         style="opacity:0.4;color:#bebebe;fill:#ffffff;fill-opacity:1;fill-rule:nonzero;stroke:none;stroke-width:0;marker:none;visibility:visible;display:inline;overflow:visible;enable-background:accumulate"
         d="M 30,5 2,5 2,27 30,27 30,5 z M 29,6 29,26 3,26 3,6 29,6 z"
         id="path6272"
         inkscape:connector-curvature="0" />
      <path
         style="opacity:0.4;color:#bebebe;fill:#ffffff;fill-opacity:1;fill-rule:nonzero;stroke:none;stroke-width:0;marker:none;visibility:visible;display:inline;overflow:visible;enable-background:accumulate"
         d="M 2,5 2,6 3.2727273,6 28.727273,6 30,6 30,5 2,5 z"
         id="path6274"
         inkscape:connector-curvature="0" />
      <path
         sodipodi:nodetypes="ccccccccccccc"
         inkscape:connector-curvature="0"
         id="path6276"
         d="m 3.5,7.8749192 8.750089,8.2618308 -8.1250797,7.988331 8.6133297,-7.578196 2.851661,2.42189 0.41,0.351261 0.41,-0.351261 2.85166,-2.42189 8.613331,7.578196 L 19.749911,16.13675 28.5,7.8749192 15.999875,17.679766 z"
         style="font-size:medium;font-style:normal;font-variant:normal;font-weight:normal;font-stretch:normal;text-indent:0;text-align:start;text-decoration:none;line-height:normal;letter-spacing:normal;word-spacing:normal;text-transform:none;direction:ltr;block-progression:tb;writing-mode:lr-tb;text-anchor:start;baseline-shift:baseline;opacity:0.4;color:#000000;fill:#000000;fill-opacity:1;stroke:none;stroke-width:1px;marker:none;visibility:visible;display:inline;overflow:visible;enable-background:accumulate;font-family:Sans;-inkscape-font-specification:Sans" />
    </g>
    <g
       id="g5955">
      <rect
         y="26"
         x="2"
         height="3"
         width="28"
         id="rect3938"
         style="opacity:0.4;fill:url(#linearGradient6290);fill-opacity:1;stroke:none" />
      <path
         inkscape:connector-curvature="0"
         id="rect3940"
         d="m 30,26 0,3 0.5,0 C 31.331,29 32,28.331 32,27.5 32,26.669 31.331,26 30.5,26 L 30,26 z"
         style="opacity:0.4;fill:url(#radialGradient5950);fill-opacity:1;stroke:none" />
      <path
         inkscape:connector-curvature="0"
         id="rect3942"
         d="M 1.40625,26 C 0.6271875,26 0,26.627187 0,27.40625 l 0,0.1875 C 0,28.372813 0.6271875,29 1.40625,29 L 2,29 2,26 1.40625,26 z"
         style="opacity:0.4;fill:url(#radialGradient5947);fill-opacity:1;stroke:none" />
    </g>
    <rect
       ry="0"
       y="-30"
       x="-27"
       height="28"
       width="22"
       id="rect5133"
       style="opacity:0.41000001;color:#bebebe;fill:none;stroke:#000000;stroke-width:2;stroke-linejoin:round;stroke-miterlimit:4;stroke-opacity:1;stroke-dasharray:none;marker:none;visibility:visible;display:inline;overflow:visible;enable-background:accumulate"
       transform="matrix(0,-1,-1,0,0,0)" />
    <rect
       transform="matrix(0,-1,-1,0,0,0)"
       style="color:#bebebe;fill:url(#linearGradient6296);fill-opacity:1;fill-rule:nonzero;stroke:none;stroke-width:0;marker:none;visibility:visible;display:inline;overflow:visible;enable-background:accumulate"
       id="rect3882"
       width="22"
       height="28"
       x="-27"
       y="-30"
       ry="0" />
    <path
       style="opacity:0.4;color:#bebebe;fill:#ffffff;fill-opacity:1;fill-rule:nonzero;stroke:none;stroke-width:0;marker:none;visibility:visible;display:inline;overflow:visible;enable-background:accumulate"
       d="M 30,5 2,5 2,27 30,27 30,5 z M 29,6 29,26 3,26 3,6 29,6 z"
       id="rect5903"
       inkscape:connector-curvature="0" />
    <path
       style="opacity:0.4;color:#bebebe;fill:#ffffff;fill-opacity:1;fill-rule:nonzero;stroke:none;stroke-width:0;marker:none;visibility:visible;display:inline;overflow:visible;enable-background:accumulate"
       d="M 2,5 2,6 3.2727273,6 28.727273,6 30,6 30,5 2,5 z"
       id="path5908"
       inkscape:connector-curvature="0" />
    <path
       sodipodi:nodetypes="ccccccccccccc"
       inkscape:connector-curvature="0"
       id="path3886"
       d="m 3.5,7.8749192 8.750089,8.2618308 -8.1250797,7.988331 8.6133297,-7.578196 2.851661,2.42189 0.41,0.351261 0.41,-0.351261 2.85166,-2.42189 8.613331,7.578196 L 19.749911,16.13675 28.5,7.8749192 15.999875,17.679766 z"
       style="font-size:medium;font-style:normal;font-variant:normal;font-weight:normal;font-stretch:normal;text-indent:0;text-align:start;text-decoration:none;line-height:normal;letter-spacing:normal;word-spacing:normal;text-transform:none;direction:ltr;block-progression:tb;writing-mode:lr-tb;text-anchor:start;baseline-shift:baseline;opacity:0.4;color:#000000;fill:#000000;fill-opacity:1;stroke:none;stroke-width:1px;marker:none;visibility:visible;display:inline;overflow:visible;enable-background:accumulate;font-family:Sans;-inkscape-font-specification:Sans" />
  </g>
  <g
     inkscape:groupmode="layer"
     id="layer2"
     inkscape:label="Symbol">
    <g
       id="g6350">
      <rect
         style="opacity:0.2;fill:url(#linearGradient6348);fill-opacity:1;stroke:none"
         id="rect6305"
         width="13"
         height="3"
         x="17"
         y="29" />
      <path
         style="opacity:0.2;fill:url(#radialGradient6345);fill-opacity:1;stroke:none"
         d="m 30,29 0,3 0.5,0 C 31.331,32 32,31.331 32,30.5 32,29.669 31.331,29 30.5,29 L 30,29 z"
         id="path6307"
         inkscape:connector-curvature="0" />
      <path
         style="opacity:0.2;fill:url(#radialGradient6342);fill-opacity:1;stroke:none"
         d="M 16.40625,29 C 15.627188,29 15,29.627187 15,30.40625 l 0,0.1875 C 15,31.372813 15.627188,32 16.40625,32 L 17,32 l 0,-3 -0.59375,0 z"
         id="path6309"
         inkscape:connector-curvature="0" />
    </g>
    <path
       inkscape:connector-curvature="0"
       d="m 16.5,15.500001 0,3 0.5625,0 c 0.244836,0 0.4375,0.192664 0.4375,0.4375 l 0,1.125 c 0,0.244836 -0.192664,0.4375 -0.4375,0.4375 l -0.5625,0 0,2 0.5625,0 c 0.244836,0 0.4375,0.192664 0.4375,0.4375 l 0,1.125 c 0,0.244836 -0.192664,0.4375 -0.4375,0.4375 l -0.5625,0 0,2 0.5625,0 c 0.244836,0 0.4375,0.192664 0.4375,0.4375 l 0,1.124999 c 0,0.244836 -0.192664,0.4375 -0.4375,0.4375 l -0.5625,0 0,2 2,0 0,-0.5625 C 18.5,29.692664 18.692664,29.5 18.9375,29.5 l 1.125,0 c 0.244836,0 0.4375,0.192664 0.4375,0.4375 l 0,0.5625 2,0 0,-0.5625 C 22.5,29.692664 22.692664,29.5 22.9375,29.5 l 1.125,0 c 0.244836,0 0.4375,0.192664 0.4375,0.4375 l 0,0.5625 2,0 0,-0.5625 C 26.5,29.692664 26.692664,29.5 26.9375,29.5 l 1.125,0 c 0.244836,0 0.4375,0.192664 0.4375,0.4375 l 0,0.5625 3,0 0,-3 -0.5625,0 C 30.692664,27.5 30.5,27.307337 30.5,27.062501 l 0,-1.125 c 0,-0.244836 0.192664,-0.4375 0.4375,-0.4375 l 0.5625,0 0,-2 -0.5625,0 c -0.244836,0 -0.4375,-0.192664 -0.4375,-0.4375 l 0,-1.125 c 0,-0.244836 0.192664,-0.4375 0.4375,-0.4375 l 0.5625,0 0,-2 -0.5625,0 c -0.244836,0 -0.4375,-0.192664 -0.4375,-0.4375 l 0,-1.125 c 0,-0.244836 0.192664,-0.4375 0.4375,-0.4375 l 0.5625,0 0,-2 -2,0 0,0.5625 c 0,0.244836 -0.192664,0.4375 -0.4375,0.4375 l -1.125,0 c -0.244836,0 -0.4375,-0.192665 -0.4375,-0.4375 l 0,-0.5625 -2,0 0,0.5625 c 0,0.244836 -0.192664,0.4375 -0.4375,0.4375 l -1.125,0 c -0.244836,0 -0.4375,-0.192665 -0.4375,-0.4375 l 0,-0.5625 -2,0 0,0.5625 c 0,0.244836 -0.192664,0.4375 -0.4375,0.4375 l -1.125,0 c -0.244836,0 -0.4375,-0.192665 -0.4375,-0.4375 l 0,-0.5625 -3,0 z"
       id="path7059"
       sodipodi:nodetypes="ccccccccccccccccccccccccccccccccccccccccccccccccccccccccccccccccccccccccccccc"
       style="fill:url(#radialGradient6223);fill-opacity:1;stroke:none" />
    <rect
       height="9.9759598"
       id="rect6372"
       rx="0.71428573"
       ry="0.71428573"
       style="fill:url(#linearGradient6169);fill-opacity:1;stroke:none"
       width="10"
       x="19"
       y="18" />
    <path
       style="opacity:0.1;fill:#000000;fill-opacity:1;stroke:none"
       d="M 19.71875,18 C 19.323036,18 19,18.323036 19,18.71875 L 19,27.25 c 0,0.395714 0.323036,0.71875 0.71875,0.71875 l 8.5625,0 C 28.676964,27.96875 29,27.645714 29,27.25 l 0,-8.53125 C 29,18.323036 28.676964,18 28.28125,18 z m 0.3125,1.03125 0.5,0 6.96875,0 0.5,0 0,0.5 0,7 0,0.5 -0.5,0 -6.96875,0 -0.5,0 0,-0.5 0,-7 z"
       id="rect6227"
       inkscape:connector-curvature="0"
       sodipodi:nodetypes="sssssssssccccccccccccc" />
    <rect
       height="7.0072637"
       id="rect7218"
       style="opacity:0.2;fill:none;stroke:#ffffff;stroke-width:0.99999994;stroke-linecap:round;stroke-linejoin:miter;stroke-miterlimit:4;stroke-opacity:1;stroke-dasharray:none;stroke-dashoffset:0.7"
       width="6.9700212"
       x="20.518456"
       y="19.531731" />
    <g
       id="g4528"
       transform="matrix(0.37918794,0,0,0.37918794,3.7359569,9.895509)"
       clip-path="url(#clipPath4552)">
      <path
         sodipodi:nodetypes="ssssssssss"
         inkscape:connector-curvature="0"
         id="path4090"
         d="m 50.867438,30.125 c -3.83046,0 -7,3.16954 -7,7 0,3.83046 3.16954,7 7,7 3.83046,0 7,-3.16954 7,-7 0,-3.83046 -3.16954,-7 -7,-7 z m 0,6 c 0.58782,0 1,0.41218 1,1 0,0.58782 -0.41218,1 -1,1 -0.58782,0 -1,-0.41218 -1,-1 0,-0.58782 0.41218,-1 1,-1 z"
         style="font-size:medium;font-style:normal;font-variant:normal;font-weight:normal;font-stretch:normal;text-indent:0;text-align:start;text-decoration:none;line-height:normal;letter-spacing:normal;word-spacing:normal;text-transform:none;direction:ltr;block-progression:tb;writing-mode:lr-tb;text-anchor:start;baseline-shift:baseline;opacity:0.1;color:#000000;fill:#fed8cd;fill-opacity:1;stroke:none;stroke-width:6;marker:none;visibility:visible;display:inline;overflow:visible;enable-background:new;font-family:Sans;-inkscape-font-specification:Sans" />
      <path
         sodipodi:nodetypes="ssssssssss"
         inkscape:connector-curvature="0"
         id="path4088"
         d="m 50.867438,31.125 c -3.29002,0 -6,2.70998 -6,6 0,3.29002 2.70998,6 6,6 3.29002,0 6,-2.70998 6,-6 0,-3.29002 -2.70998,-6 -6,-6 z m 0,4 c 1.12826,0 2,0.87174 2,2 0,1.12826 -0.87174,2 -2,2 -1.12826,0 -2,-0.87174 -2,-2 0,-1.12826 0.87174,-2 2,-2 z"
         style="font-size:medium;font-style:normal;font-variant:normal;font-weight:normal;font-stretch:normal;text-indent:0;text-align:start;text-decoration:none;line-height:normal;letter-spacing:normal;word-spacing:normal;text-transform:none;direction:ltr;block-progression:tb;writing-mode:lr-tb;text-anchor:start;baseline-shift:baseline;opacity:0.1;color:#000000;fill:#fed8cd;fill-opacity:1;stroke:none;stroke-width:4;marker:none;visibility:visible;display:inline;overflow:visible;enable-background:new;font-family:Sans;-inkscape-font-specification:Sans" />
      <path
         sodipodi:nodetypes="ssssssssss"
         inkscape:connector-curvature="0"
         id="path4086"
         d="m 50.867438,32.125 c -2.74958,0 -5,2.25042 -5,5 0,2.74958 2.25042,5 5,5 2.74958,0 5,-2.25042 5,-5 0,-2.74958 -2.25042,-5 -5,-5 z m 0,2 c 1.6687,0 3,1.3313 3,3 0,1.6687 -1.3313,3 -3,3 -1.6687,0 -3,-1.3313 -3,-3 0,-1.6687 1.3313,-3 3,-3 z"
         style="font-size:medium;font-style:normal;font-variant:normal;font-weight:normal;font-stretch:normal;text-indent:0;text-align:start;text-decoration:none;line-height:normal;letter-spacing:normal;word-spacing:normal;text-transform:none;direction:ltr;block-progression:tb;writing-mode:lr-tb;text-anchor:start;baseline-shift:baseline;opacity:0.1;color:#000000;fill:#fed8cd;fill-opacity:1;stroke:none;stroke-width:2;marker:none;visibility:visible;display:inline;overflow:visible;enable-background:new;font-family:Sans;-inkscape-font-specification:Sans" />
      <path
         sodipodi:nodetypes="sssss"
         inkscape:connector-curvature="0"
         id="path4082"
         d="m 50.867438,33.12502 c 2.20914,0 4,1.79086 4,4 0,2.20914 -1.79086,4 -4,4 -2.20914,0 -4,-1.79086 -4,-4 0,-2.20914 1.79086,-4 4,-4 z"
         style="color:#000000;fill:url(#linearGradient6176);fill-opacity:1;fill-rule:evenodd;stroke:none;stroke-width:14;marker:none;visibility:visible;display:inline;overflow:visible;enable-background:new" />
      <path
         sodipodi:nodetypes="cczszszszszszszcccccccccc"
         inkscape:connector-curvature="0"
         id="path4084"
         d="m 42.625,42.125017 0,-1 c 0,0 2.52394,-1.6666 3.23353,-1.812 0.7096,-0.1454 1.54759,-0.027 2.40882,0.1355 0.86124,0.162 2.14701,0.3811 2.54829,0.3948 0.40129,0.014 1.12747,-0.035 1.97121,-0.086 0.84374,-0.05 2.24079,-0.096 2.67654,-0.091 0.43575,0 1.52358,0.06 2.68316,0.1308 1.15958,0.071 2.75227,0.1896 3.11363,0.2228 0.36137,0.033 0.78614,0.094 1.26819,0.1605 0.48204,0.066 1.31657,0.1657 1.6118,0.1931 0.29522,0.027 0.97966,0.1211 1.7738,0.1942 0.79414,0.073 2.06499,0.098 2.432,0.071 0.36701,-0.027 1.13629,-0.2988 1.99357,-0.5493 0.85728,-0.2504 1.80257,-0.4797 2.5216,-0.423 0.71903,0.057 4.76386,1.4585 4.76386,1.4585 l 0,1 -5.25,0 -4.25,0 -4.25,0 -4.25,0 -4.25,0 -4.25,0 -4.25,0 z"
         style="fill:#000000;fill-opacity:1;stroke:none;display:inline" />
      <path
         style="opacity:0.9;fill:#000000;fill-opacity:1;stroke:none;display:inline"
         d="m 42.625,42.125017 0,0.6525 c 0,0 2.52394,1.0873 3.23353,1.1822 0.7096,0.095 1.54759,0.018 2.40882,-0.088 0.86124,-0.1057 2.14701,-0.2487 2.54829,-0.2576 0.40129,-0.01 1.12747,0.023 1.97121,0.056 0.84374,0.033 2.24079,0.063 2.67654,0.059 0.43575,0 1.52358,-0.039 2.68316,-0.085 1.15958,-0.046 2.75227,-0.1237 3.11363,-0.1453 0.36137,-0.022 0.78614,-0.061 1.26819,-0.1048 0.48204,-0.043 1.31657,-0.108 1.6118,-0.1259 0.29522,-0.018 0.97966,-0.079 1.7738,-0.1268 0.79414,-0.048 2.06499,-0.064 2.432,-0.046 0.36701,0.018 1.13629,0.195 1.99357,0.3584 0.85728,0.1634 1.80257,0.313 2.5216,0.276 0.71903,-0.037 4.76386,-0.9516 4.76386,-0.9516 l 0,-0.6524 -5.25,0 -4.25,0 -4.25,0 -4.25,0 -4.25,0 -4.25,0 -4.25,0 z"
         id="path4092"
         inkscape:connector-curvature="0"
         sodipodi:nodetypes="cczszszszszszszcccccccccc" />
      <path
         sodipodi:nodetypes="ccccc"
         inkscape:connector-curvature="0"
         id="rect4102"
         d="m 42.625,42.125 35,0 0,3 -35,0 z"
         style="opacity:0.3;color:#000000;fill:#4d585e;fill-opacity:1;stroke:none;stroke-width:6;marker:none;visibility:visible;display:inline;overflow:visible;enable-background:new" />
    </g>
    <path
       style="font-size:5.53513527px;font-style:normal;font-variant:normal;font-weight:bold;font-stretch:normal;line-height:125%;letter-spacing:0px;word-spacing:0px;opacity:0.8;fill:#ffffff;fill-opacity:1;stroke:none;font-family:Clear Sans;-inkscape-font-specification:Clear Sans"
       d="m 24.609372,20.046875 c -0.156758,1e-6 -0.28522,0.02948 -0.390625,0.07813 -0.104504,0.04865 -0.204673,0.119962 -0.28125,0.234375 l 0.3125,0.21875 c 0.03514,-0.05315 0.08747,-0.101885 0.140625,-0.140625 0.05315,-0.03874 0.11934,-0.04688 0.203125,-0.04688 0.07748,2e-6 0.12773,0.01264 0.171875,0.04688 0.04414,0.03424 0.07812,0.08207 0.07813,0.140625 0,0.07478 -0.02557,0.150283 -0.0625,0.21875 -0.03604,0.06757 -0.09049,0.128352 -0.15625,0.203125 -0.06577,0.07387 -0.16053,0.168638 -0.28125,0.28125 -0.120721,0.112613 -0.243777,0.235952 -0.390625,0.359375 l 0,0.3125 1.34375,0 0,-0.34375 -0.84375,0 c 0.02792,-0.02072 0.09893,-0.0848 0.21875,-0.1875 0.12072,-0.102702 0.232319,-0.196564 0.3125,-0.28125 0.08108,-0.08559 0.144256,-0.175534 0.1875,-0.265625 0.04414,-0.09099 0.0625,-0.192679 0.0625,-0.3125 0,-0.163062 -0.06016,-0.284909 -0.171875,-0.375 -0.110812,-0.09009 -0.260333,-0.140624 -0.453125,-0.140625 z m 1.640625,0 c -0.206307,1e-6 -0.369059,0.03851 -0.484375,0.125 -0.115316,0.08649 -0.171875,0.225762 -0.171875,0.390625 0,0.08198 0.02858,0.14758 0.07813,0.21875 0.05045,0.07027 0.117849,0.13795 0.21875,0.1875 -0.105406,0.04775 -0.186937,0.104618 -0.25,0.1875 -0.06216,0.08288 -0.09375,0.186065 -0.09375,0.296875 0,0.181081 0.06498,0.314358 0.1875,0.40625 C 25.856899,21.950365 26.02838,22 26.250002,22 c 0.224323,0 0.395804,-0.04513 0.515625,-0.140625 0.12072,-0.09549 0.171873,-0.233276 0.171875,-0.40625 0,-0.07027 -0.0051,-0.130743 -0.03125,-0.1875 -0.02522,-0.05675 -0.05983,-0.112105 -0.109375,-0.15625 -0.04955,-0.04415 -0.130772,-0.09017 -0.234375,-0.140625 0.08648,-0.04774 0.145156,-0.08626 0.1875,-0.125 0.04234,-0.03874 0.08324,-0.09287 0.109375,-0.140625 0.02702,-0.04775 0.04688,-0.100393 0.04688,-0.15625 -3e-6,-0.168467 -0.07038,-0.291215 -0.1875,-0.375 -0.117123,-0.08378 -0.267855,-0.124999 -0.468756,-0.125 z m 0,0.296875 c 0.1,2e-6 0.175505,0.02196 0.21875,0.0625 0.04324,0.04054 0.0625,0.09679 0.0625,0.15625 0,0.04594 -0.02196,0.08085 -0.0625,0.125 -0.04054,0.04415 -0.113345,0.09468 -0.21875,0.140625 -0.06847,-0.02702 -0.129534,-0.06312 -0.171875,-0.09375 -0.04145,-0.03153 -0.07574,-0.0502 -0.09375,-0.07813 -0.01802,-0.02792 -0.01562,-0.06883 -0.01562,-0.109375 0,-0.05405 0.02196,-0.100085 0.0625,-0.140625 0.04054,-0.04054 0.111543,-0.0625 0.218751,-0.0625 z m 0,0.765625 c 0.107206,0.05045 0.183022,0.104899 0.234375,0.15625 0.05225,0.05135 0.07812,0.110023 0.07813,0.1875 0,0.06847 -0.02768,0.12503 -0.07813,0.171875 -0.04955,0.04684 -0.123565,0.0625 -0.234375,0.0625 -0.110811,0 -0.199551,-0.01745 -0.25,-0.0625 -0.05045,-0.04504 -0.07813,-0.101605 -0.07813,-0.171875 0,-0.07928 0.02948,-0.136148 0.07813,-0.1875 0.04865,-0.05135 0.135585,-0.105798 0.25,-0.15625 z"
       id="path4590"
       inkscape:connector-curvature="0" />
    <path
       style="opacity:0.41000001;fill:none;stroke:#000000;stroke-width:0.99999994;stroke-linecap:round;stroke-linejoin:miter;stroke-miterlimit:4;stroke-opacity:1;stroke-dasharray:none;stroke-dashoffset:0.7"
       sodipodi:nodetypes="ccccccccccccccccccccccccccccccccccccccccccccccccccccccccccccccccccccccccccccc"
       id="path6225"
       d="m 16.5,15.500001 0,3 0.5625,0 c 0.244836,0 0.4375,0.192664 0.4375,0.4375 l 0,1.125 c 0,0.244836 -0.192664,0.4375 -0.4375,0.4375 l -0.5625,0 0,2 0.5625,0 c 0.244836,0 0.4375,0.192664 0.4375,0.4375 l 0,1.125 c 0,0.244836 -0.192664,0.4375 -0.4375,0.4375 l -0.5625,0 0,2 0.5625,0 c 0.244836,0 0.4375,0.192664 0.4375,0.4375 l 0,1.124999 c 0,0.244836 -0.192664,0.4375 -0.4375,0.4375 l -0.5625,0 0,2 2,0 0,-0.5625 C 18.5,29.692664 18.692664,29.5 18.9375,29.5 l 1.125,0 c 0.244836,0 0.4375,0.192664 0.4375,0.4375 l 0,0.5625 2,0 0,-0.5625 C 22.5,29.692664 22.692664,29.5 22.9375,29.5 l 1.125,0 c 0.244836,0 0.4375,0.192664 0.4375,0.4375 l 0,0.5625 2,0 0,-0.5625 C 26.5,29.692664 26.692664,29.5 26.9375,29.5 l 1.125,0 c 0.244836,0 0.4375,0.192664 0.4375,0.4375 l 0,0.5625 3,0 0,-3 -0.5625,0 C 30.692664,27.5 30.5,27.307337 30.5,27.062501 l 0,-1.125 c 0,-0.244836 0.192664,-0.4375 0.4375,-0.4375 l 0.5625,0 0,-2 -0.5625,0 c -0.244836,0 -0.4375,-0.192664 -0.4375,-0.4375 l 0,-1.125 c 0,-0.244836 0.192664,-0.4375 0.4375,-0.4375 l 0.5625,0 0,-2 -0.5625,0 c -0.244836,0 -0.4375,-0.192664 -0.4375,-0.4375 l 0,-1.125 c 0,-0.244836 0.192664,-0.4375 0.4375,-0.4375 l 0.5625,0 0,-2 -2,0 0,0.5625 c 0,0.244836 -0.192664,0.4375 -0.4375,0.4375 l -1.125,0 c -0.244836,0 -0.4375,-0.192665 -0.4375,-0.4375 l 0,-0.5625 -2,0 0,0.5625 c 0,0.244836 -0.192664,0.4375 -0.4375,0.4375 l -1.125,0 c -0.244836,0 -0.4375,-0.192665 -0.4375,-0.4375 l 0,-0.5625 -2,0 0,0.5625 c 0,0.244836 -0.192664,0.4375 -0.4375,0.4375 l -1.125,0 c -0.244836,0 -0.4375,-0.192665 -0.4375,-0.4375 l 0,-0.5625 -3,0 z"
       inkscape:connector-curvature="0" />
    <path
       style="font-size:medium;font-style:normal;font-variant:normal;font-weight:normal;font-stretch:normal;text-indent:0;text-align:start;text-decoration:none;line-height:normal;letter-spacing:normal;word-spacing:normal;text-transform:none;direction:ltr;block-progression:tb;writing-mode:lr-tb;text-anchor:start;baseline-shift:baseline;opacity:0.1;color:#000000;fill:#ffffff;fill-opacity:1;stroke:none;stroke-width:0.99999994000000003;marker:none;visibility:visible;display:inline;overflow:visible;enable-background:accumulate;font-family:Sans;-inkscape-font-specification:Sans"
       d="m 20.015625,19 0,0.5 0,7 0,0.5 0.5,0 6.96875,0 0.5,0 0,-0.5 0,-7 0,-0.5 -0.5,0 -6.96875,0 -0.5,0 z m 1,1 5.96875,0 0,6 -5.96875,0 0,-6 z"
       id="rect6229"
       inkscape:connector-curvature="0" />
  </g>
</svg>
