<?xml version="1.0" encoding="UTF-8" standalone="no"?>
<!-- Created with Inkscape (http://www.inkscape.org/) -->

<svg
   xmlns:dc="http://purl.org/dc/elements/1.1/"
   xmlns:cc="http://creativecommons.org/ns#"
   xmlns:rdf="http://www.w3.org/1999/02/22-rdf-syntax-ns#"
   xmlns:svg="http://www.w3.org/2000/svg"
   xmlns="http://www.w3.org/2000/svg"
   xmlns:xlink="http://www.w3.org/1999/xlink"
   xmlns:sodipodi="http://sodipodi.sourceforge.net/DTD/sodipodi-0.dtd"
   xmlns:inkscape="http://www.inkscape.org/namespaces/inkscape"
   version="1.1"
   width="32"
   height="32"
   id="svg4248"
   inkscape:version="0.48.4 r9939"
   sodipodi:docname="system-error.svg">
  <sodipodi:namedview
     pagecolor="#ffffff"
     bordercolor="#666666"
     borderopacity="1"
     objecttolerance="10"
     gridtolerance="10"
     guidetolerance="10"
     inkscape:pageopacity="0"
     inkscape:pageshadow="2"
     inkscape:window-width="1364"
     inkscape:window-height="700"
     id="namedview46"
     showgrid="false"
     showborder="false"
     inkscape:zoom="1"
     inkscape:cx="27.655175"
     inkscape:cy="26.005029"
     inkscape:window-x="0"
     inkscape:window-y="28"
     inkscape:window-maximized="1"
     inkscape:current-layer="layer2"
     inkscape:snap-bbox="true"
     inkscape:bbox-paths="true"
     inkscape:bbox-nodes="true"
     inkscape:snap-bbox-edge-midpoints="true"
     inkscape:snap-bbox-midpoints="true"
     showguides="true"
     inkscape:guide-bbox="true">
    <inkscape:grid
       type="xygrid"
       id="grid3847"
       empspacing="5"
       visible="true"
       enabled="true"
       snapvisiblegridlinesonly="true" />
  </sodipodi:namedview>
  <defs
     id="defs4250">
    <linearGradient
       inkscape:collect="always"
       id="linearGradient3851">
      <stop
         style="stop-color:#ffffff;stop-opacity:1;"
         offset="0"
         id="stop3853" />
      <stop
         style="stop-color:#ffffff;stop-opacity:0;"
         offset="1"
         id="stop3855" />
    </linearGradient>
    <linearGradient
       id="linearGradient3904">
      <stop
         id="stop3906"
         offset="0"
         style="stop-color:#234683;stop-opacity:1;" />
      <stop
         id="stop3908"
         offset="1"
         style="stop-color:#30589e;stop-opacity:1;" />
    </linearGradient>
    <linearGradient
       inkscape:collect="always"
       id="linearGradient3812">
      <stop
         style="stop-color:#ffffff;stop-opacity:1;"
         offset="0"
         id="stop3814" />
      <stop
         style="stop-color:#ffffff;stop-opacity:0;"
         offset="1"
         id="stop3816" />
    </linearGradient>
    <radialGradient
       inkscape:collect="always"
       xlink:href="#outerBackgroundGradient"
       id="radialGradient3805"
       gradientUnits="userSpaceOnUse"
       gradientTransform="matrix(4.5367027e-8,-1.7632481,-1.8653063,0,31.761486,43.251051)"
       cx="6.1596723"
       cy="8.4497671"
       fx="6.1596723"
       fy="8.4497671"
       r="19.99999" />
    <linearGradient
       inkscape:collect="always"
       xlink:href="#linearGradient3812"
       id="linearGradient3818"
       x1="2"
       y1="16.000001"
       x2="30"
       y2="16.000001"
       gradientUnits="userSpaceOnUse"
       gradientTransform="matrix(0,1,-1,0,32.000001,8.5e-7)" />
    <linearGradient
       id="outerBackgroundGradient">
      <stop
         style="stop-color:#1450b9;stop-opacity:1;"
         offset="0"
         id="stop3864-8-6" />
      <stop
         style="stop-color:#5187e6;stop-opacity:1;"
         offset="1"
         id="stop3866-9-1" />
    </linearGradient>
    <linearGradient
       inkscape:collect="always"
       xlink:href="#linearGradient3904"
       id="linearGradient3109"
       gradientUnits="userSpaceOnUse"
       gradientTransform="matrix(0,-1,1,0,5.0000306e-7,32)"
       x1="1"
       y1="15.999999"
       x2="31"
       y2="15.999999" />
    <radialGradient
       inkscape:collect="always"
       xlink:href="#outerBackgroundGradient"
       id="radialGradient3111"
       gradientUnits="userSpaceOnUse"
       gradientTransform="matrix(4.5367027e-8,-1.7632481,-1.8653063,0,31.761486,43.251051)"
       cx="6.1596723"
       cy="8.4497671"
       fx="6.1596723"
       fy="8.4497671"
       r="19.99999" />
    <radialGradient
       inkscape:collect="always"
       xlink:href="#outerBackgroundGradient-5"
       id="radialGradient4373"
       cx="24"
       cy="12.000001"
       fx="24"
       fy="12.000001"
       r="19.5"
       gradientUnits="userSpaceOnUse"
       gradientTransform="matrix(-1.4358974,0,0,-1.823144,58.461538,33.877729)" />
    <linearGradient
       id="outerBackgroundGradient-5">
      <stop
         style="stop-color:#0097ff;stop-opacity:1;"
         offset="0"
         id="stop3864-8-6-1" />
      <stop
         id="stop4375"
         offset="0.75"
         style="stop-color:#006cd9;stop-opacity:1;" />
      <stop
         style="stop-color:#1148c1;stop-opacity:1;"
         offset="1"
         id="stop3866-9-1-1" />
    </linearGradient>
    <linearGradient
       id="outerBackgroundGradient-6">
      <stop
         style="stop-color:#c23021;stop-opacity:1;"
         offset="0"
         id="stop3864-8-6-0" />
      <stop
         style="stop-color:#e74c3c;stop-opacity:1;"
         offset="1"
         id="stop3866-9-1-7" />
    </linearGradient>
    <linearGradient
       id="linearGradient3413">
      <stop
         style="stop-color:#dddddd;stop-opacity:1;"
         offset="0"
         id="stop3415" />
      <stop
         id="stop3886"
         offset="0.12962963"
         style="stop-color:#e2e2e2;stop-opacity:1;" />
      <stop
         id="stop3884"
         offset="0.12962963"
         style="stop-color:#f0f0f0;stop-opacity:1;" />
      <stop
         style="stop-color:#e6e6e6;stop-opacity:1"
         offset="1"
         id="stop3417" />
    </linearGradient>
    <linearGradient
       inkscape:collect="always"
       id="linearGradient3952">
      <stop
         style="stop-color:#000000;stop-opacity:1;"
         offset="0"
         id="stop3954" />
      <stop
         style="stop-color:#000000;stop-opacity:0;"
         offset="1"
         id="stop3956" />
    </linearGradient>
    <linearGradient
       inkscape:collect="always"
       id="linearGradient3944">
      <stop
         style="stop-color:#000000;stop-opacity:1;"
         offset="0"
         id="stop3946" />
      <stop
         style="stop-color:#000000;stop-opacity:0;"
         offset="1"
         id="stop3948" />
    </linearGradient>
    <linearGradient
       inkscape:collect="always"
       xlink:href="#linearGradient3960"
       id="linearGradient4733"
       gradientUnits="userSpaceOnUse"
       gradientTransform="translate(-8,2.999999)"
       x1="25"
       y1="45"
       x2="25"
       y2="42" />
    <linearGradient
       id="linearGradient3960">
      <stop
         style="stop-color:#000000;stop-opacity:0;"
         offset="0"
         id="stop3962" />
      <stop
         id="stop3970"
         offset="0.5"
         style="stop-color:#000000;stop-opacity:1;" />
      <stop
         style="stop-color:#000000;stop-opacity:0;"
         offset="1"
         id="stop3964" />
    </linearGradient>
    <linearGradient
       inkscape:collect="always"
       xlink:href="#linearGradient3413"
       id="linearGradient3903"
       x1="2.5"
       y1="16"
       x2="29.5"
       y2="16"
       gradientUnits="userSpaceOnUse"
       gradientTransform="matrix(0,-1,1,0,0,32)" />
    <linearGradient
       inkscape:collect="always"
       xlink:href="#linearGradient3960"
       id="linearGradient3921"
       gradientUnits="userSpaceOnUse"
       gradientTransform="translate(-7,-14.000001)"
       x1="25"
       y1="45"
       x2="25"
       y2="42" />
    <radialGradient
       inkscape:collect="always"
       xlink:href="#linearGradient3944"
       id="radialGradient3924"
       gradientUnits="userSpaceOnUse"
       gradientTransform="matrix(1,0,0,0.75,-6,-3.125001)"
       cx="9"
       cy="43.5"
       fx="9"
       fy="43.5"
       r="2" />
    <radialGradient
       inkscape:collect="always"
       xlink:href="#linearGradient3952"
       id="radialGradient3927"
       gradientUnits="userSpaceOnUse"
       gradientTransform="matrix(1,0,0,0.75,-11,-3.125001)"
       cx="40"
       cy="43.5"
       fx="40"
       fy="43.5"
       r="2" />
    <linearGradient
       inkscape:collect="always"
       xlink:href="#outerBackgroundGradient-7"
       id="linearGradient4936"
       gradientUnits="userSpaceOnUse"
       gradientTransform="matrix(0.91666667,0,0,0.91666667,-274.91793,-218.1222)"
       x1="334.54547"
       y1="267.27274"
       x2="334.54547"
       y2="234.54546" />
    <linearGradient
       id="outerBackgroundGradient-7">
      <stop
         style="stop-color:#dddddd;stop-opacity:1;"
         offset="0"
         id="stop3864-8-6-3" />
      <stop
         style="stop-color:#f2f2f2;stop-opacity:1;"
         offset="1"
         id="stop3866-9-1-2" />
    </linearGradient>
    <linearGradient
       inkscape:collect="always"
       xlink:href="#outerBackgroundGradient-7"
       id="linearGradient4934"
       gradientUnits="userSpaceOnUse"
       gradientTransform="matrix(0.91666667,0,0,0.91666667,-274.91793,-220.1222)"
       x1="328"
       y1="269.45456"
       x2="328"
       y2="236.72726" />
    <linearGradient
       id="linearGradient3440">
      <stop
         style="stop-color:#dddddd;stop-opacity:1;"
         offset="0"
         id="stop3442" />
      <stop
         style="stop-color:#f2f2f2;stop-opacity:1;"
         offset="1"
         id="stop3444" />
    </linearGradient>
    <linearGradient
       inkscape:collect="always"
       xlink:href="#linearGradient4084"
       id="linearGradient4932"
       gradientUnits="userSpaceOnUse"
       gradientTransform="matrix(0.91666667,0,0,0.91666667,-274.91793,-218.1222)"
       x1="325.81818"
       y1="234.54546"
       x2="325.81818"
       y2="267.27274" />
    <linearGradient
       id="linearGradient4084">
      <stop
         style="stop-color:#cd5fc2;stop-opacity:1;"
         offset="0"
         id="stop4086" />
      <stop
         style="stop-color:#9a4993;stop-opacity:1;"
         offset="1"
         id="stop4088" />
    </linearGradient>
    <linearGradient
       inkscape:collect="always"
       xlink:href="#linearGradient4100"
       id="linearGradient4930"
       gradientUnits="userSpaceOnUse"
       gradientTransform="matrix(0.91666667,0,0,0.91666667,-274.91793,-223.78887)"
       x1="330.18182"
       y1="240.72728"
       x2="330.18182"
       y2="272.36365" />
    <linearGradient
       id="linearGradient4100">
      <stop
         id="stop4102"
         offset="0"
         style="stop-color:#aaaaaa;stop-opacity:1;" />
      <stop
         id="stop4104"
         offset="1"
         style="stop-color:#767676;stop-opacity:1;" />
    </linearGradient>
    <linearGradient
       inkscape:collect="always"
       xlink:href="#linearGradient5618"
       id="linearGradient4083"
       x1="-1023.8622"
       y1="-808"
       x2="-984.86218"
       y2="-808"
       gradientUnits="userSpaceOnUse"
       gradientTransform="translate(980.3622,784)" />
    <linearGradient
       id="linearGradient5618">
      <stop
         style="stop-color:#3e3e3e;stop-opacity:1;"
         offset="0"
         id="stop5620" />
      <stop
         style="stop-color:#595959;stop-opacity:1;"
         offset="1"
         id="stop5622" />
    </linearGradient>
    <linearGradient
       y2="-808"
       x2="-984.86218"
       y1="-808"
       x1="-1023.8622"
       gradientTransform="translate(998.52515,772.82144)"
       gradientUnits="userSpaceOnUse"
       id="linearGradient3075"
       xlink:href="#linearGradient5618"
       inkscape:collect="always" />
    <linearGradient
       inkscape:collect="always"
       xlink:href="#outerBackgroundGradient-2"
       id="linearGradient3849"
       gradientUnits="userSpaceOnUse"
       gradientTransform="matrix(0,-1,1,0,0,32)"
       x1="2.5"
       y1="16"
       x2="29.5"
       y2="16" />
    <linearGradient
       inkscape:collect="always"
       xlink:href="#linearGradient3851"
       id="linearGradient3857"
       x1="3"
       y1="16"
       x2="29"
       y2="16"
       gradientUnits="userSpaceOnUse"
       gradientTransform="matrix(0,1,-1,0,32,0)" />
    <linearGradient
       inkscape:collect="always"
       xlink:href="#outerBackgroundGradient-2"
       id="linearGradient4564"
       gradientUnits="userSpaceOnUse"
       gradientTransform="translate(980.3622,784)"
       x1="-1023.86"
       x2="-984.85999" />
    <linearGradient
       id="outerBackgroundGradient-2">
      <stop
         id="stop3864-8-6-8"
         stop-color="#bd251d" />
      <stop
         offset="1"
         id="stop3866-9-1-8"
         stop-color="#e22c1e" />
    </linearGradient>
    <linearGradient
       x2="-984.85999"
       x1="-1023.86"
       gradientTransform="translate(848.3622,724)"
       gradientUnits="userSpaceOnUse"
       id="linearGradient3078"
       xlink:href="#outerBackgroundGradient-2"
       inkscape:collect="always" />
  </defs>
  <metadata
     id="metadata4253">
    <rdf:RDF>
      <cc:Work
         rdf:about="">
        <dc:format>image/svg+xml</dc:format>
        <dc:type
           rdf:resource="http://purl.org/dc/dcmitype/StillImage" />
        <dc:title></dc:title>
      </cc:Work>
    </rdf:RDF>
  </metadata>
  <g
     inkscape:groupmode="layer"
     id="layer1"
     inkscape:label="Background">
    <g
       id="g3930">
      <path
         inkscape:connector-curvature="0"
         id="rect3940"
         d="m 29,27.999999 0,3 0.5,0 c 0.831,0 1.5,-0.669 1.5,-1.5 0,-0.831 -0.669,-1.5 -1.5,-1.5 l -0.5,0 z"
         style="opacity:0.3;fill:url(#radialGradient3927);fill-opacity:1;stroke:none" />
      <path
         inkscape:connector-curvature="0"
         id="rect3942"
         d="M 2.40625,27.999999 C 1.6271875,27.999999 1,28.627186 1,29.406249 l 0,0.1875 c 0,0.779063 0.6271875,1.40625 1.40625,1.40625 l 0.59375,0 0,-3 -0.59375,0 z"
         style="opacity:0.3;fill:url(#radialGradient3924);fill-opacity:1;stroke:none" />
      <path
         sodipodi:nodetypes="ccccc"
         inkscape:connector-curvature="0"
         id="rect3938"
         d="M 2.9998571,27.999999 29,28 l 0,3 -26.0001429,-1e-6 z"
         style="opacity:0.3;fill:url(#linearGradient3921);fill-opacity:1;stroke:none" />
    </g>
    <path
       style="fill:url(#linearGradient3849);fill-opacity:1.0;fill-rule:evenodd;stroke:none"
       d="M 4 2.5 C 3.1782486 2.5 2.5 3.1782486 2.5 4 L 2.5 28 C 2.5 28.821752 3.1782489 29.5 4 29.5 L 28 29.5 C 28.821751 29.5 29.5 28.821751 29.5 28 L 29.5 4 C 29.5 3.1782489 28.821752 2.5 28 2.5 L 4 2.5 z "
       id="rect3894" />
    <path
       style="opacity:0.1;fill:url(#linearGradient3857);fill-opacity:1;fill-rule:evenodd;stroke:none"
       d="M 29,4 C 29,3.4373514 28.562649,3 28,3 L 4,3 C 3.437351,3 3,3.4373514 3,4 l 0,24 c 0,0.562649 0.437351,1 1,1 l 24,0 c 0.562649,0 1,-0.437351 1,-1 L 29,4 z M 28,4 28,28 4,28 4,4 28,4 z"
       id="path3951"
       inkscape:connector-curvature="0" />
    <path
       id="path3906"
       d="m -28,2.5 24,0 c 0.831,0 1.5,0.669 1.5,1.5 l 0,24 c 0,0.831 -0.669,1.5 -1.5,1.5 l -24,0 c -0.831,0 -1.5,-0.669 -1.5,-1.5 l 0,-24 c 0,-0.831 0.669,-1.5 1.5,-1.5 z"
       style="fill:none;fill-opacity:1;fill-rule:evenodd;stroke:#800000;stroke-opacity:1;opacity:0.81000000000000005"
       transform="matrix(0,-1,1,0,0,0)" />
    <path
       style="fill:#ffffff;fill-opacity:1;fill-rule:evenodd;stroke:none;opacity:0.15"
       d="M 4 3 C 3.4373514 3 3 3.4373514 3 4 L 3 5 C 3 4.4373514 3.4373514 4 4 4 L 28 4 C 28.562649 4 29 4.4373514 29 5 L 29 4 C 29 3.4373514 28.562649 3 28 3 L 4 3 z "
       id="path3935" />
    <path
       id="path3949"
       d="M 4,29 C 3.4373514,29 3,28.562649 3,28 l 0,-1 c 0,0.562649 0.4373514,1 1,1 l 24,0 c 0.562649,0 1,-0.437351 1,-1 l 0,1 c 0,0.562649 -0.437351,1 -1,1 L 4,29 z"
       style="opacity:0.1;fill:#ffffff;fill-opacity:1;fill-rule:evenodd;stroke:none"
       inkscape:connector-curvature="0" />
  </g>
  <g
     inkscape:groupmode="layer"
     id="layer2"
     inkscape:label="Symbol">
    <path
       sodipodi:nodetypes="ccccccccccccccccccccccccccsssss"
       inkscape:connector-curvature="0"
       id="path3075"
       d="m 17.75,7.0935 -3.40625,4.875 -8.25,-3.78125 3.875,6.1875 -3.59375,0.4375 3.4375,2.0625 -4.8125,3.4375 5.71875,0.4375 -1.3125,6.15625 5.5,-3.3125 3.28125,3.3125 1.1875,-4.0625 6.53125,1.84375 -4.71875,-5.625 L 27,18.0935 21.5,15.906 25.90625,11.49975 19.3125,12.5935 z m -2.75,5.90625 2,0 0,4.968749 -0.5,2.031251 -1,0 -0.5,-2 z m 1,8 c 0.554,0 1,0.446 1,1 0,0.554 -0.446,1 -1,1 -0.554,0 -1,-0.446 -1,-1 0,-0.554 0.446,-1 1,-1 z"
       style="opacity:0.3;fill:#000000;fill-opacity:1;stroke:none;display:inline;enable-background:new" />
    <path
       style="fill:#ffffff;fill-opacity:1;stroke:none;display:inline;enable-background:new"
       d="m 17.75,6.09375 -3.40625,4.875 -8.25,-3.78125 3.875,6.1875 L 6.375,13.8125 9.8125,15.875 5,19.3125 l 5.71875,0.4375 -1.3125,6.15625 5.5,-3.3125 3.28125,3.3125 1.1875,-4.0625 6.53125,1.84375 L 21.1875,18.0625 27,17.09375 21.5,14.90625 25.90625,10.5 19.3125,11.59375 z M 15,12 17,12 17,16.968749 16.5,19 15.5,19 15,17 z m 1,8 c 0.554,0 1,0.446 1,1 0,0.554 -0.446,1 -1,1 -0.554,0 -1,-0.446 -1,-1 0,-0.554 0.446,-1 1,-1 z"
       id="path4359"
       inkscape:connector-curvature="0"
       sodipodi:nodetypes="ccccccccccccccccccccccccccsssss" />
  </g>
</svg>
