<?xml version="1.0" encoding="UTF-8" standalone="no"?>
<svg xmlns="http://www.w3.org/2000/svg" xmlns:sodipodi="http://sodipodi.sourceforge.net/DTD/sodipodi-0.dtd" xmlns:inkscape="http://www.inkscape.org/namespaces/inkscape" height="16" version="1.1" width="16" enable-background="new">
 <metadata id="metadata90"/>
 <defs id="defs7386">
  <linearGradient id="linearGradient5606" osb:paint="solid">
   <stop id="stop5608"/>
  </linearGradient>
  <filter inkscape:collect="always" color-interpolation-filters="sRGB" id="filter7554">
   <feBlend inkscape:collect="always" id="feBlend7556" in2="BackgroundImage" mode="darken"/>
  </filter>
 </defs>
 <g inkscape:groupmode="layer" id="layer9" inkscape:label="status" transform="translate(-260.00041,301.99997)">
  <path d="M 10.5 3 C 10.223 3 10 3.223 10 3.5 L 10 11 C 10.013156 9.7139823 10.847952 8.6074642 12 8.1875 L 12 3.5 C 12 3.223 11.777 3 11.5 3 L 10.5 3 z " transform="translate(260.00041,-301.99997)" id="rect5273" fill="#444444" color="#444444"/>
  <rect height="9" id="rect6043" width="2" x="267" y="-296" fill="#444444" color="#444444" rx="0.5"/>
  <rect height="6" id="rect6045" width="2" x="264" y="-293" fill="#444444" color="#444444" rx="0.5"/>
  <rect height="3" id="rect6047" width="2" x="261" y="-290" fill="#444444" color="#444444" rx="0.5"/>
  <path d="M 13.5 0 C 13.223 0 13 0.223 13 0.5 L 13 8 C 13.767637 8 14.46927 8.2987675 15 8.78125 L 15 0.5 C 15 0.223 14.777 0 14.5 0 L 13.5 0 z " transform="translate(260.00041,-301.99997)" id="rect6526" opacity="0.35" fill="#444444" color="#444444"/>
  <path inkscape:connector-curvature="0" d="m 273.0002,-293 c -1.108,0 -2,0.91081 -2,2.03125 l 0,0.96875 -1,0 0,1 0,2 0,1 1,0 4,0 1,0 0,-1 0,-2 0,-1 -1,0 0,-0.96875 c 0,-1.12 -0.892,-2.03125 -2,-2.03125 z m 0,1 c 0.554,0 1,0.44236 1,1 l 0,1 -2,0 0,-1 c 0,-0.55764 0.446,-1 1,-1 z" id="path5983" sodipodi:nodetypes="ssccccccccccccssssccss" fill="#444444"/>
 </g>
</svg>
