<?xml version='1.0' encoding='UTF-8' standalone='no'?>
<svg height="16" xmlns:inkscape="http://www.inkscape.org/namespaces/inkscape" xmlns:sodipodi="http://sodipodi.sourceforge.net/DTD/sodipodi-0.dtd" version="1.1" width="16" xmlns="http://www.w3.org/2000/svg" enable-background="new">
 <metadata id="metadata90"/>
 <defs id="defs7386">
  <linearGradient id="linearGradient5606" osb:paint="solid">
   <stop id="stop5608"/>
  </linearGradient>
  <filter inkscape:collect="always" color-interpolation-filters="sRGB" id="filter7554">
   <feBlend inkscape:collect="always" id="feBlend7556" in2="BackgroundImage" mode="darken"/>
  </filter>
 </defs>
 <g inkscape:groupmode="layer" id="layer9" inkscape:label="status" transform="translate(-360.00013,302.99997)">
  <path inkscape:connector-curvature="0" d="m 373.50014,-302.99997 c -0.277,0 -0.5,0.223 -0.5,0.5 l 0,8.5 0,5.5 c 0,0.277 0.223,0.5 0.5,0.5 l 1,0 c 0.277,0 0.5,-0.223 0.5,-0.5 l 0,-14 c 0,-0.277 -0.223,-0.5 -0.5,-0.5 l -1,0 z m -3,3 c -0.277,0 -0.5,0.223 -0.5,0.5 l 0,3.84375 c 0.28817,-0.20785 0.6131,-0.34375 1,-0.34375 0.36105,0 0.70548,0.10919 1,0.28125 l 0,-3.78125 c 0,-0.277 -0.223,-0.5 -0.5,-0.5 l -1,0 z m -3,3 c -0.277,0 -0.5,0.223 -0.5,0.5 l 0,0.84375 c 0.28817,-0.20785 0.6131,-0.34375 1,-0.34375 0.3869,0 0.71183,0.1359 1,0.34375 l 0,-0.84375 c 0,-0.277 -0.223,-0.5 -0.5,-0.5 l -1,0 z m -1.5,4.65625 c -0.28817,0.20785 -0.6131,0.34375 -1,0.34375 -0.36105,0 -0.70548,-0.10919 -1,-0.28125 l 0,3.78125 c 0,0.277 0.223,0.5 0.5,0.5 l 1,0 c 0.277,0 0.5,-0.223 0.5,-0.5 l 0,-3.84375 z m 1,0 0,3.84375 c 0,0.277 0.223,0.5 0.5,0.5 l 1,0 c 0.277,0 0.5,-0.223 0.5,-0.5 l 0,-3.84375 c -0.28817,0.20785 -0.6131,0.34375 -1,0.34375 -0.3869,0 -0.71183,-0.1359 -1,-0.34375 z m 3,0 0,3.84375 c 0,0.277 0.223,0.5 0.5,0.5 l 1,0 c 0.277,0 0.5,-0.223 0.5,-0.5 l 0,-3.78125 c -0.29452,0.17206 -0.63895,0.28125 -1,0.28125 -0.3869,0 -0.71183,-0.1359 -1,-0.34375 z m -8.5,1.34375 c -0.277,0 -0.5,0.223 -0.5,0.5 l 0,2 c 0,0.277 0.223,0.5 0.5,0.5 l 1,0 c 0.277,0 0.5,-0.223 0.5,-0.5 l 0,-2 c 0,-0.277 -0.223,-0.5 -0.5,-0.5 l -1,0 z" id="rect6691" opacity="0.35" fill="#444444" color="#444444"/>
  <path inkscape:connector-curvature="0" d="m 365.00014,-294.99997 c -0.55228,0 -1,0.44772 -1,1 0,0.55228 0.44772,1 1,1 0.55228,0 1,-0.44772 1,-1 0,-0.55228 -0.44772,-1 -1,-1 z m 3,0 c -0.55228,0 -1,0.44772 -1,1 0,0.55228 0.44772,1 1,1 0.55228,0 1,-0.44772 1,-1 0,-0.55228 -0.44772,-1 -1,-1 z m 3,0 c -0.55228,0 -1,0.44772 -1,1 0,0.55228 0.44772,1 1,1 0.55228,0 1,-0.44772 1,-1 0,-0.55228 -0.44772,-1 -1,-1 z" id="path5112" fill="#444444" color="#444444"/>
 </g>
</svg>
