<?xml version="1.0" encoding="UTF-8" standalone="no"?>
<svg xmlns="http://www.w3.org/2000/svg" xmlns:sodipodi="http://sodipodi.sourceforge.net/DTD/sodipodi-0.dtd" xmlns:inkscape="http://www.inkscape.org/namespaces/inkscape" height="16" version="1.1" width="16" enable-background="new">
 <metadata id="metadata90"/>
 <defs id="defs7386">
  <linearGradient id="linearGradient5606" osb:paint="solid">
   <stop id="stop5608"/>
  </linearGradient>
  <filter inkscape:collect="always" color-interpolation-filters="sRGB" id="filter7554">
   <feBlend inkscape:collect="always" id="feBlend7556" in2="BackgroundImage" mode="darken"/>
  </filter>
 </defs>
 <g inkscape:groupmode="layer" id="layer12" inkscape:label="actions" transform="translate(-443.00018,409)">
  <path d="m 453.00018,-408.53125 0,1.03125 0,1.5 -2.5,0 -0.5,0 0,1 0.5,0 3,0 0.5,0 0,-0.5 0,-0.96875 3.71875,2.96875 -3.71875,2.96875 0,-0.96875 0,-0.5 -0.5,0 -2.5,0 0,1 2,0 0,1.5 0,1.03125 0.8125,-0.65625 5,-4 0.5,-0.375 -0.5,-0.375 -5,-4 z" id="path3766" inkscape:connector-curvature="0" sodipodi:nodetypes="ccccccccccccccccccccccccccc" opacity="0.35" color="#000000" fill="#444444"/>
  <path id="path3783" d="m 449.00018,-404.53125 -0.8125,0.65625 -5,4 -0.5,0.375 0.5,0.375 5,4 0.8125,0.65625 0,-1.03125 0,-1.5 2.5,0 0.5,0 0,-1 -0.5,0 -3,0 -0.5,0 0,0.5 0,0.96875 -3.71875,-2.96875 3.71875,-2.96875 0,0.96875 0,0.5 0.5,0 2.50002,0 0,-1 -2.00002,0 0,-1.5 z" inkscape:connector-curvature="0" sodipodi:nodetypes="ccccccccccccccccccccccccccc" opacity="0.35" color="#000000" fill="#444444"/>
  <path inkscape:connector-curvature="0" d="m 454.0002,-398 0,1 c 0,0.27614 0.10029,0.53778 0.28125,0.71875 l 0.78125,0.78125 -0.78125,0.78125 c -0.18096,0.18096 -0.28125,0.44261 -0.28125,0.71875 l 0,1 1,0 c 0.27614,0 0.53779,-0.10029 0.71875,-0.28125 l 0.78125,-0.78125 0.78125,0.78125 c 0.18097,0.18096 0.44261,0.28125 0.71875,0.28125 l 1,0 0,-1 c 0,-0.27614 -0.10028,-0.53779 -0.28125,-0.71875 l -0.78125,-0.78125 0.78125,-0.78125 c 0.18097,-0.18097 0.28125,-0.44261 0.28125,-0.71875 l 0,-1 -1,0 c -0.27614,0 -0.53778,0.10028 -0.71875,0.28125 l -0.78125,0.78125 -0.78125,-0.78125 C 455.53799,-397.89972 455.27634,-398 455.0002,-398 l -1,0 z" id="path5898-0" fill="#444444"/>
 </g>
</svg>
