<?xml version="1.0" encoding="UTF-8" standalone="no"?>
<svg xmlns="http://www.w3.org/2000/svg" xmlns:xlink="http://www.w3.org/1999/xlink" xmlns:sodipodi="http://sodipodi.sourceforge.net/DTD/sodipodi-0.dtd" xmlns:inkscape="http://www.inkscape.org/namespaces/inkscape" version="1.1" width="32" height="32">
 <defs id="defs4250">
  <linearGradient id="linearGradient3904">
   <stop id="stop3906" stop-color="#234683"/>
   <stop id="stop3908" offset="1" stop-color="#30589e"/>
  </linearGradient>
  <linearGradient inkscape:collect="always" id="linearGradient3812">
   <stop id="stop3814" stop-color="#ffffff"/>
   <stop offset="1" id="stop3816" stop-color="#ffffff" stop-opacity="0"/>
  </linearGradient>
  <linearGradient y1="-15.79" x2="0" y2="33.987" id="linearGradient4161" xlink:href="#linearGradient4072" gradientUnits="userSpaceOnUse" gradientTransform="matrix(0.238878,0,0,0.22625678,24.576952,16.381774)"/>
  <linearGradient id="linearGradient4072">
   <stop id="stop4074"/>
   <stop id="stop4076" offset="1" stop-opacity="0"/>
  </linearGradient>
  <linearGradient id="linearGradient3707-319-631-407-324-3-8">
   <stop id="stop3760-7-3" stop-color="#185f9a"/>
   <stop id="stop3762-8-4" offset="1" stop-color="#599ec9"/>
  </linearGradient>
  <linearGradient y1="6.238" x2="0" y2="44.34" id="linearGradient3096" xlink:href="#linearGradient4011" gradientUnits="userSpaceOnUse" gradientTransform="matrix(0.72972967,0,0,0.72972967,-36.346078,-2.5039298)"/>
  <linearGradient id="linearGradient4011">
   <stop id="stop4013" stop-color="#ffffff"/>
   <stop id="stop4015" offset="0.508" stop-color="#ffffff" stop-opacity="0.235"/>
   <stop id="stop4017" offset="0.835" stop-color="#ffffff" stop-opacity="0.157"/>
   <stop id="stop4019" offset="1" stop-color="#ffffff" stop-opacity="0.392"/>
  </linearGradient>
  <radialGradient cx="6.16" cy="8.45" r="20" id="radialGradient3099" xlink:href="#linearGradient2867-449-88-871-390-598-476-591-434-148-57-177-3-8" gradientUnits="userSpaceOnUse" gradientTransform="matrix(4.5367027e-8,1.7632481,-1.8653063,0,31.761486,-11.251052)"/>
  <linearGradient id="linearGradient2867-449-88-871-390-598-476-591-434-148-57-177-3-8">
   <stop id="stop3750-8-9" stop-color="#90dbec"/>
   <stop id="stop3752-3-2" offset="0.262" stop-color="#55c1ec"/>
   <stop id="stop3754-7-2" offset="0.705" stop-color="#3689e6"/>
   <stop id="stop3756-9-3" offset="1" stop-color="#2b63a0"/>
  </linearGradient>
  <linearGradient y1="44" x2="0" y2="3.899" id="linearGradient3101" xlink:href="#linearGradient3707-319-631-407-324-3-8" gradientUnits="userSpaceOnUse" gradientTransform="matrix(0.74365873,0,0,0.74365873,-1.847808,-1.8478104)"/>
  <radialGradient cx="62.63" cy="4.625" r="10.625" id="radialGradient4246" xlink:href="#linearGradient4072" gradientUnits="userSpaceOnUse" gradientTransform="matrix(1.5058824,0,0,0.37647,-78.305888,26.258824)"/>
  <linearGradient y1="30.896" x2="0" y2="0.232" id="linearGradient4060-4" xlink:href="#linearGradient3707-319-631-407-324-3-8" gradientUnits="userSpaceOnUse" gradientTransform="translate(24,0)"/>
  <linearGradient x1="-40.587" y1="-35.403" x2="-39.831" y2="-15.913" id="linearGradient3897" xlink:href="#linearGradient4072" gradientUnits="userSpaceOnUse" gradientTransform="matrix(0.21412596,0,0,0.22795278,26.756506,15.018422)"/>
  <linearGradient y1="-14.804" x2="0" y2="48.05" id="linearGradient3899" xlink:href="#linearGradient4072" gradientUnits="userSpaceOnUse" gradientTransform="matrix(0.21412596,0,0,0.22795278,26.756506,15.018422)"/>
  <radialGradient inkscape:collect="always" xlink:href="#outerBackgroundGradient" id="radialGradient3805" gradientUnits="userSpaceOnUse" gradientTransform="matrix(4.5367027e-8,-1.7632481,-1.8653063,0,31.761486,43.251051)" cx="6.16" cy="8.45" r="20"/>
  <linearGradient inkscape:collect="always" xlink:href="#linearGradient3812" id="linearGradient3818" x1="2" x2="30" gradientUnits="userSpaceOnUse" gradientTransform="matrix(0,1,-1,0,32.000001,8.5e-7)"/>
  <radialGradient inkscape:collect="always" xlink:href="#linearGradient4072" id="radialGradient3755" gradientUnits="userSpaceOnUse" gradientTransform="matrix(1,0,0,0.37,0,24.5124)" cx="24.85" cy="38.909" r="20.2"/>
  <radialGradient inkscape:collect="always" xlink:href="#linearGradient4072" id="radialGradient3753" gradientUnits="userSpaceOnUse" gradientTransform="matrix(1.00851,0,0,0.373148,-0.211403,24.39)" cx="24.85" cy="38.909" r="20.2"/>
  <linearGradient inkscape:collect="always" xlink:href="#outerBackgroundGradient" id="linearGradient5576" gradientUnits="userSpaceOnUse" gradientTransform="matrix(0,-1,1,0,-12,300)" x1="35" x2="253"/>
  <linearGradient id="outerBackgroundGradient">
   <stop id="stop3864-8-6" stop-color="#1450b9"/>
   <stop offset="1" id="stop3866-9-1" stop-color="#5187e6"/>
  </linearGradient>
  <linearGradient inkscape:collect="always" xlink:href="#linearGradient3904" id="linearGradient3902" x1="1" x2="31" gradientUnits="userSpaceOnUse" gradientTransform="matrix(0,-1,1,0,5.0000306e-7,32)"/>
  <radialGradient inkscape:collect="always" xlink:href="#radialGradient4793-7" id="radialGradient5101" gradientUnits="userSpaceOnUse" gradientTransform="matrix(0,2.0431014,-2.6968576,0,27.488646,0.55990825)" cx="23.896" cy="3.99" r="20.397"/>
  <radialGradient gradientTransform="matrix(0,1.2316483,-1.625754,0,18.486966,-28.721977)" gradientUnits="userSpaceOnUse" id="radialGradient4793-7" r="20.397" cy="3.99" cx="23.896">
   <stop id="stop4795-6" stop-color="#232323"/>
   <stop offset="0.262" id="stop4797-5" stop-color="#212121"/>
   <stop offset="0.661" id="stop4799-7" stop-color="#1c1c1c"/>
   <stop offset="1" id="stop4801-8" stop-color="#121212"/>
  </radialGradient>
  <linearGradient inkscape:collect="always" xlink:href="#linearGradient3812" id="linearGradient5103" gradientUnits="userSpaceOnUse" gradientTransform="matrix(0,1.3809704,-1.3809704,0,66.443043,14.467997)" x1="26" x2="46"/>
  <linearGradient inkscape:collect="always" xlink:href="#linearGradient4803-8" id="linearGradient5105" gradientUnits="userSpaceOnUse" gradientTransform="matrix(0.517864,0,0,-0.51786159,-9.8459024,80.754309)" y1="8.114" x2="0" y2="56.11"/>
  <linearGradient id="linearGradient4803-8">
   <stop id="stop4805-4" stop-color="#5f5f5f"/>
   <stop offset="0.331" id="stop4807-0" stop-color="#505050"/>
   <stop offset="1" id="stop4809-0" stop-color="#1c1c1c"/>
  </linearGradient>
  <linearGradient inkscape:collect="always" xlink:href="#linearGradient4811-9" id="linearGradient5107" gradientUnits="userSpaceOnUse" gradientTransform="matrix(0.64617596,0,0,0.64617596,-42.775653,43.135864)" y1="16.543" x2="0" y2="48.631"/>
  <linearGradient id="linearGradient4811-9">
   <stop id="stop4813-8" stop-color="#3a3842"/>
   <stop offset="1" id="stop4815-1" stop-color="#303036"/>
  </linearGradient>
  <radialGradient inkscape:collect="always" xlink:href="#linearGradient6042-1-7-8-8-5-6" id="radialGradient5109" gradientUnits="userSpaceOnUse" gradientTransform="matrix(0,0.92988622,-2.1420378,0,62.223256,29.451901)" cx="32" cy="21.239" r="10.498"/>
  <linearGradient id="linearGradient6042-1-7-8-8-5-6">
   <stop id="stop6044-9-6-3-6-6-7" stop-color="#261b2b"/>
   <stop id="stop6046-9-5-1-2-5-2" offset="1" stop-color="#332f35"/>
  </linearGradient>
  <radialGradient inkscape:collect="always" xlink:href="#linearGradient2867-449-88-871-390-598-476-591-434-148-57-177-691-4-22-1-2-5-8" id="radialGradient5111" gradientUnits="userSpaceOnUse" gradientTransform="matrix(0,0.3237217,-0.42730885,0,18.432905,53.479436)" cx="23.896" cy="3.99" r="20.397"/>
  <linearGradient id="linearGradient2867-449-88-871-390-598-476-591-434-148-57-177-691-4-22-1-2-5-8">
   <stop id="stop7191-4-6-8-8-0-3" stop-color="#612f91"/>
   <stop id="stop7197-2-8-6-5-9-2" offset="1" stop-color="#1a4aa2"/>
  </linearGradient>
  <linearGradient inkscape:collect="always" xlink:href="#linearGradient3087-408-5-3-7-9-1-0" id="linearGradient5113" gradientUnits="userSpaceOnUse" gradientTransform="matrix(0.13563873,0,0,0.13563815,13.472584,60.927324)" y1="3.082" x2="0" y2="45.37"/>
  <linearGradient y1="3.082" x2="0" y2="45.37" id="linearGradient3087-408-5-3-7-9-1-0" gradientUnits="userSpaceOnUse" gradientTransform="matrix(0.22110724,0,0,0.22110728,6.6934256,6.693263)">
   <stop id="stop7201-5-71-3-5-2-6" stop-color="#170418"/>
   <stop id="stop7203-2-8-8-5-3-1" offset="1" stop-color="#50386b"/>
  </linearGradient>
  <radialGradient inkscape:collect="always" xlink:href="#linearGradient4278-3-5-5-9-2-5" id="radialGradient5115" gradientUnits="userSpaceOnUse" gradientTransform="matrix(0.27003341,-4.0265383e-8,3.7832551e-8,0.25371562,-9.1935044,39.881669)" cx="95.84" cy="95.39" r="9.498"/>
  <linearGradient id="linearGradient4278-3-5-5-9-2-5">
   <stop id="stop4280-6-90-6-3-6-0" stop-opacity="0"/>
   <stop id="stop4286-1-9-5-7-9-3" offset="0.5" stop-opacity="0"/>
   <stop id="stop4282-24-4-0-5-4-5" offset="1"/>
  </linearGradient>
  <radialGradient inkscape:collect="always" xlink:href="#linearGradient6088-74-4-8-8-8-6" id="radialGradient5117" gradientUnits="userSpaceOnUse" gradientTransform="matrix(-0.96458415,0,0,-0.96457967,47.958402,94.480092)" cx="32.373" cy="31.405" r="3.857"/>
  <linearGradient id="linearGradient6088-74-4-8-8-8-6">
   <stop id="stop6090-5-66-7-7-4-8" stop-color="#ff54d2" stop-opacity="0"/>
   <stop id="stop6257-5-4-6-4-1-0" offset="0.324" stop-color="#f62b68"/>
   <stop id="stop6255-6-7-9-7-1-8" offset="0.561" stop-color="#ff0105"/>
   <stop id="stop6092-0-22-2-1-1-8" offset="1" stop-color="#ff54d2" stop-opacity="0.478"/>
  </linearGradient>
  <linearGradient inkscape:collect="always" xlink:href="#linearGradient4316-4-6-6-4-5-1-8-2" id="linearGradient5119" gradientUnits="userSpaceOnUse" gradientTransform="matrix(0.15597308,0,0,0.15597308,2.3650245,59.102467)" y1="16.555" x2="0" y2="48.984"/>
  <linearGradient id="linearGradient4316-4-6-6-4-5-1-8-2">
   <stop id="stop4318-4-4-6-5-3-0-4-0" stop-color="#ffffff"/>
   <stop id="stop4320-2-2-6-59-35-1-3-3" offset="0.338" stop-color="#ffffff" stop-opacity="0.235"/>
   <stop id="stop4322-4-5-5-0-1-8-6-1" offset="0.62" stop-color="#ffffff" stop-opacity="0.157"/>
   <stop id="stop4324-4-1-5-5-42-0-0-9" offset="1" stop-color="#ffffff" stop-opacity="0.392"/>
  </linearGradient>
  <linearGradient inkscape:collect="always" xlink:href="#linearGradient3812" id="linearGradient5121" gradientUnits="userSpaceOnUse" gradientTransform="matrix(0.07463932,0,0,0.05597924,11.733362,59.941105)" y1="52.925" x2="0" y2="65.922"/>
  <radialGradient inkscape:collect="always" xlink:href="#linearGradient6191-9-9-5-0-4-6" id="radialGradient5123" gradientUnits="userSpaceOnUse" gradientTransform="matrix(0.96512258,0.25860262,-0.24965275,0.93171239,-6.6798455,26.546265)" cx="32.373" cy="31.405" r="3.857"/>
  <linearGradient id="linearGradient6191-9-9-5-0-4-6">
   <stop id="stop6193-8-1-3-2-6-5" stop-color="#ffffff" stop-opacity="0"/>
   <stop id="stop6197-8-8-7-1-9-0" offset="0.405" stop-color="#ffffff" stop-opacity="0"/>
   <stop id="stop6195-9-3-6-0-8-1" offset="1" stop-color="#ffffff" stop-opacity="0.478"/>
  </linearGradient>
  <radialGradient inkscape:collect="always" xlink:href="#linearGradient6191-9-9-5-0-4-6" id="radialGradient5125" gradientUnits="userSpaceOnUse" gradientTransform="matrix(0,0.99916378,-0.96458415,-4.0234314e-8,47.023815,31.831874)" cx="32.373" cy="31.405" r="3.857"/>
  <radialGradient inkscape:collect="always" xlink:href="#linearGradient6191-9-9-5-0-4-6" id="radialGradient5127" gradientUnits="userSpaceOnUse" gradientTransform="matrix(0.58389446,0.81080125,-0.78274057,0.56368145,22.407018,20.226368)" cx="32.373" cy="31.405" r="3.857"/>
  <radialGradient inkscape:collect="always" xlink:href="#linearGradient6088-6-1-0-06-8-8-5" id="radialGradient5129" gradientUnits="userSpaceOnUse" gradientTransform="matrix(-0.68206399,-0.68206081,0.68206399,-0.68206081,17.387712,106.78923)" cx="32.373" cy="31.405" r="3.857"/>
  <linearGradient id="linearGradient6088-6-1-0-06-8-8-5">
   <stop id="stop6090-2-0-4-9-4-0-9" stop-color="#ff54d2" stop-opacity="0"/>
   <stop id="stop6257-4-6-1-76-0-7-7" offset="0.324" stop-color="#ff54d2" stop-opacity="0"/>
   <stop id="stop6255-3-6-7-23-8-1-3" offset="0.561" stop-color="#ff54d2" stop-opacity="0.252"/>
   <stop id="stop6092-9-6-8-9-2-4-7" offset="1" stop-color="#ff54d2" stop-opacity="0.478"/>
  </linearGradient>
  <radialGradient inkscape:collect="always" xlink:href="#linearGradient3812" id="radialGradient5131" gradientUnits="userSpaceOnUse" gradientTransform="matrix(1.0665464,-0.61576799,0.35035238,0.60682534,-33.787938,65.609824)" cx="36.491" cy="39.709" r="3.159"/>
  <radialGradient inkscape:collect="always" xlink:href="#linearGradient3812" id="radialGradient5133" gradientUnits="userSpaceOnUse" gradientTransform="matrix(0.85824228,-0.49550411,0.28192606,0.48830798,-28.7651,59.553221)" cx="36.491" cy="39.709" r="3.159"/>
  <radialGradient inkscape:collect="always" xlink:href="#linearGradient3812" id="radialGradient5135" gradientUnits="userSpaceOnUse" gradientTransform="matrix(0.24482215,0,0,0.25611161,7.5154779,53.607191)" cx="36.491" cy="39.709" r="3.159"/>
  <linearGradient inkscape:collect="always" xlink:href="#linearGradient6413-0-0-0-9-7-9" id="linearGradient5137" gradientUnits="userSpaceOnUse" gradientTransform="matrix(0.24482215,0,0,0.25611161,5.4616573,52.364098)" x1="38.851" y1="41.608" x2="34.13" y2="37.81"/>
  <linearGradient id="linearGradient6413-0-0-0-9-7-9">
   <stop id="stop6415-1-7-3-8-5-5" stop-color="#feffff"/>
   <stop id="stop6417-4-9-2-3-3-0" offset="1" stop-color="#fe70ca"/>
  </linearGradient>
  <linearGradient inkscape:collect="always" xlink:href="#linearGradient6455-7-3-3-2-4-9" id="linearGradient5139" gradientUnits="userSpaceOnUse" gradientTransform="matrix(0.17122308,0,0,0.17911867,8.5865171,55.880804)" x1="38.851" y1="41.608" x2="34.13" y2="37.81"/>
  <linearGradient id="linearGradient6455-7-3-3-2-4-9">
   <stop id="stop6457-5-1-10-5-0-8" stop-color="#fbac9b"/>
   <stop id="stop6459-8-9-7-0-2-3" offset="1" stop-color="#fcfafc"/>
  </linearGradient>
  <linearGradient inkscape:collect="always" xlink:href="#linearGradient3812" id="linearGradient5141" gradientUnits="userSpaceOnUse" gradientTransform="matrix(0,1.3809704,-1.3809704,0,66.441351,14.467992)" x1="28.5" x2="43.5"/>
 </defs>
 <metadata id="metadata4253"/>
 <g inkscape:groupmode="layer" id="layer1" inkscape:label="Background">
  <path sodipodi:type="arc" id="path8606" sodipodi:cx="24.849752" sodipodi:cy="38.908627" sodipodi:rx="20.203051" sodipodi:ry="7.4751287" d="m 45.052803,38.908627 a 20.203051,7.4751287 0 1 1 -40.4061012,0 20.203051,7.4751287 0 1 1 40.4061012,0 z" transform="matrix(0.51081599,0,0,0.46595786,3.1704533,10.023687)" fill="url(#radialGradient3753)"/>
  <path transform="matrix(0.69053217,0,0,0.62989172,-1.2951468,3.2832567)" d="m 45.052803,38.908627 a 20.203051,7.4751287 0 1 1 -40.4061012,0 20.203051,7.4751287 0 1 1 40.4061012,0 z" sodipodi:ry="7.4751287" sodipodi:rx="20.203051" sodipodi:cy="38.908627" sodipodi:cx="24.849752" id="path8608" sodipodi:type="arc" opacity="0.518" fill="url(#radialGradient3755)"/>
  <g id="g5064" transform="translate(37.999942,-76.999999)">
   <g id="g4796" transform="translate(-38.72786,28.81726)">
    <path d="m 16.727918,49.682739 c -8.0005971,0 -14.4999962,6.499398 -14.4999962,14.5 0,8.000602 6.4993991,14.5 14.4999962,14.5 8.000596,0 14.500009,-6.499398 14.499996,-14.5 0,-8.000602 -6.4994,-14.5 -14.499996,-14.5 z" inkscape:connector-curvature="0" id="path3431" fill="url(#radialGradient5101)" color="#000000"/>
    <path d="m 16.727918,77.301955 c -7.2455488,0 -13.1192191,-5.873667 -13.1192191,-13.119231 0,-7.245539 5.8736703,-13.119204 13.1192191,-13.119204 7.245551,0 13.11922,5.873667 13.11922,13.119204 0,7.245564 -5.873669,13.119233 -13.11922,13.119233 z" inkscape:connector-curvature="0" id="path3433" opacity="0.6" fill="none" stroke="url(#linearGradient5103)" stroke-linejoin="round" stroke-linecap="round" color="#000000" stroke-width="1.381"/>
    <path d="m 16.727931,76.611416 c -6.8580919,0 -12.4287469,-5.571247 -12.4287469,-12.428677 0,-6.858022 5.5712765,-12.428678 12.4287469,-12.428678 6.858038,0 12.42872,5.571247 12.42872,12.428678 0,6.85803 -5.571276,12.428677 -12.42872,12.428677 z" inkscape:connector-curvature="0" id="path3435" fill="url(#linearGradient5105)" color="#000000"/>
    <path d="m 27.085203,64.182739 a 10.357279,10.357279 0 0 1 -20.7145578,0 10.357279,10.357279 0 1 1 20.7145578,0 z" id="path3437" inkscape:connector-curvature="0" fill="url(#linearGradient5107)" color="#000000" stroke-width="0.791"/>
    <path d="m 27.08525,64.182739 a 10.357327,10.35728 0 0 1 -20.7146531,0 10.357327,10.35728 0 1 1 20.7146531,0 z" id="path3439" inkscape:connector-curvature="0" opacity="0.3" fill="none" stroke="#000000" color="#000000" stroke-width="1.381"/>
    <path d="m 24.323294,64.182738 a 7.5953723,7.5953372 0 1 1 -15.1907425,0 7.5953723,7.5953372 0 1 1 15.1907425,0 z" id="path3441" inkscape:connector-curvature="0" opacity="0.1" fill="none" stroke="#000000" color="#000000" stroke-width="2.762"/>
    <path d="m 16.727918,59.329639 c -2.677702,0 -4.853103,2.175273 -4.853103,4.853091 0,2.677716 2.175401,4.8531 4.853103,4.8531 2.677715,0 4.853103,-2.175273 4.853103,-4.8531 0,-2.677709 -2.175277,-4.853091 -4.853103,-4.853091 z" inkscape:connector-curvature="0" id="path3445" fill="url(#radialGradient5109)"/>
    <path d="m 16.727904,59.351864 c -2.665453,0 -4.830869,2.165323 -4.830869,4.830868 0,2.665449 2.165416,4.830879 4.830869,4.830879 2.66548,0 4.830911,-2.165313 4.830911,-4.830879 0,-2.665448 -2.165334,-4.830868 -4.830911,-4.830868 z" inkscape:connector-curvature="0" id="path3447" opacity="0.3" fill="none" stroke="#000000" stroke-linejoin="round" stroke-linecap="round" stroke-width="1.386"/>
    <path d="m 16.727821,60.35757 c -2.110661,0 -3.825357,1.714598 -3.825357,3.825329 0,2.110631 1.714696,3.82532 3.825357,3.82532 2.110634,0 3.825343,-1.714598 3.825343,-3.82532 0,-2.110651 -1.714626,-3.825329 -3.825343,-3.825329 z" inkscape:connector-curvature="0" id="path3449" fill="#2a232b"/>
    <path d="m 16.727918,61.423321 c -1.522534,0 -2.759428,1.236835 -2.759428,2.759411 0,1.522523 1.236894,2.759424 2.759428,2.759424 1.52252,0 2.759441,-1.236835 2.759441,-2.759424 0,-1.52251 -1.236866,-2.759411 -2.759441,-2.759411 z" inkscape:connector-curvature="0" id="path3451" fill="url(#radialGradient5111)" stroke="url(#linearGradient5113)" stroke-linejoin="round" stroke-linecap="round" stroke-width="1.386"/>
    <path d="m 16.727931,62.182718 c -1.103547,0 -2.000031,0.89646 -2.000031,2.000012 0,1.103521 0.896484,2.00003 2.000031,2.00003 1.10352,0 2.000018,-0.89646 2.000018,-2.00003 0,-1.103502 -0.896456,-2.000012 -2.000018,-2.000012 z" inkscape:connector-curvature="0" id="path3453" opacity="0.5" fill="url(#radialGradient5115)"/>
    <path d="m 16.727918,60.684523 c -1.930155,0 -3.498219,1.567986 -3.498219,3.498205 0,1.93016 1.568064,3.498216 3.498219,3.498216 1.930154,0 3.498219,-1.567976 3.498219,-3.498216 0,-1.930149 -1.567996,-3.498205 -3.498219,-3.498205 z" inkscape:connector-curvature="0" id="path3455" opacity="0.3" fill="none" stroke="#000000" stroke-linejoin="round" stroke-linecap="round" stroke-width="1.386"/>
    <path d="m 13.192777,63.496315 a 3.6011013,3.6010846 0 0 1 2.603011,-2.791798 l 0.932033,3.47838 z" id="path3457" inkscape:connector-curvature="0" opacity="0.4" fill="url(#radialGradient5117)" color="#000000"/>
    <path d="m 19.227944,64.182734 a 2.500026,2.500026 0 0 1 -5.000052,0 2.500026,2.500026 0 1 1 5.000052,0 z" id="path3459" inkscape:connector-curvature="0" opacity="0.3" fill="none" stroke="url(#linearGradient5119)" color="#000000" stroke-width="1.381"/>
    <path d="m 17.580529,63.543362 a 0.852715,0.63953324 0 0 1 -1.70543,0 0.852715,0.63953324 0 1 1 1.70543,0 z" inkscape:connector-curvature="0" id="path3461" opacity="0.5" fill="url(#linearGradient5121)" color="#000000"/>
    <path d="m 20.328908,64.182892 a 3.6011013,3.6010846 0 0 1 -0.227375,1.25932 l -3.373726,-1.25932 z" id="path3463" inkscape:connector-curvature="0" opacity="0.4" fill="url(#radialGradient5123)" color="#000000"/>
    <path d="m 17.051487,67.769408 a 3.6011014,3.6010846 0.22315868 0 1 -1.151145,-0.08178 l 0.82746,-3.504729 z" id="path3465" inkscape:connector-curvature="0" opacity="0.4" fill="url(#radialGradient5125)" color="#000000"/>
    <path d="m 19.786299,66.083819 a 3.6011013,3.6010846 0.09114427 0 1 -1.681852,1.426635 l -1.376638,-3.327566 z" id="path3467" inkscape:connector-curvature="0" opacity="0.4" fill="url(#radialGradient5127)" color="#000000"/>
    <path d="m 14.181446,60.736272 a 3.6011013,3.6010844 0 0 1 5.092726,0 l -2.546363,2.546352 z" id="path3469" inkscape:connector-curvature="0" opacity="0.5" fill="url(#radialGradient5129)" color="#000000"/>
    <path d="m 22.412742,65.291008 a 2.2134687,3.8903478 60.000225 1 1 -6.738288,3.890334 2.2134687,3.8903478 60.000225 0 1 6.738288,-3.890334 z" id="path3471" inkscape:connector-curvature="0" opacity="0.2" fill="url(#radialGradient5131)" color="#000000"/>
    <path d="m 16.459186,59.29667 a 1.7811627,3.1305357 60.000226 0 1 -5.422253,3.130524 1.7811627,3.1305357 60.000226 1 1 5.422253,-3.130524 z" id="path3473" inkscape:connector-curvature="0" opacity="0.4" fill="url(#radialGradient5133)" color="#000000"/>
    <path d="m 17.222675,63.777108 a 0.77337568,0.80903828 0 1 1 -1.54675,0 0.77337568,0.80903828 0 1 1 1.54675,0 z" id="path3475" inkscape:connector-curvature="0" opacity="0.8" fill="url(#radialGradient5135)" color="#000000"/>
    <path d="m 15.168855,62.534015 a 0.77337568,0.80903828 0 1 1 -1.546751,0 0.77337568,0.80903828 0 1 1 1.546751,0 z" id="path3477" inkscape:connector-curvature="0" opacity="0.4" fill="url(#linearGradient5137)" color="#000000"/>
    <path d="m 15.375513,62.993414 a 0.540882,0.56582361 0 1 1 -1.081764,0 0.540882,0.56582361 0 1 1 1.081764,0 z" id="path3479" inkscape:connector-curvature="0" opacity="0.4" fill="url(#linearGradient5139)" color="#000000"/>
    <path inkscape:connector-curvature="0" id="path3481" d="m 16.726226,74.540064 a 10.357279,10.357326 0 0 1 0,-20.714653 10.357279,10.357326 0 1 1 0,20.714653 z" opacity="0.2" fill="url(#linearGradient5141)" color="#000000"/>
    <path inkscape:connector-curvature="0" id="path3483" d="m 24.323294,64.182738 a 7.5953723,7.5953372 0 1 1 -15.1907425,0 7.5953723,7.5953372 0 1 1 15.1907425,0 z" opacity="0.3" fill="none" stroke="#000000" color="#000000" stroke-width="1.381"/>
    <path id="path3954" inkscape:connector-curvature="0" d="m 16.727918,49.682739 c -8.0005971,0 -14.4999962,6.499398 -14.4999962,14.5 0,8.000602 6.4993991,14.5 14.4999962,14.5 8.000596,0 14.500009,-6.499398 14.499996,-14.5 0,-8.000602 -6.4994,-14.5 -14.499996,-14.5 z" opacity="0.41" fill="none" stroke="#000000" color="#000000"/>
   </g>
  </g>
 </g>
</svg>
