<?xml version="1.0" encoding="UTF-8" standalone="no"?>
<svg
   xmlns:dc="http://purl.org/dc/elements/1.1/"
   xmlns:cc="http://creativecommons.org/ns#"
   xmlns:rdf="http://www.w3.org/1999/02/22-rdf-syntax-ns#"
   xmlns:svg="http://www.w3.org/2000/svg"
   xmlns="http://www.w3.org/2000/svg"
   xmlns:xlink="http://www.w3.org/1999/xlink"
   version="1.1"
   width="32"
   height="32"
   id="svg2">
  <defs
     id="defs4250">
    <linearGradient
       id="linearGradient26113-9-3-1">
      <stop
         id="stop26115-7-7-9" />
      <stop
         offset="1"
         id="stop26117-3-7-8"
         stop-opacity="0" />
    </linearGradient>
    <linearGradient
       id="outerBackgroundGradient-6">
      <stop
         id="stop3864-8-6-0"
         stop-color="#c23021" />
      <stop
         offset="1"
         id="stop3866-9-1-7"
         stop-color="#e74c3c" />
    </linearGradient>
    <linearGradient
       id="linearGradient3413">
      <stop
         id="stop3415"
         stop-color="#dddddd" />
      <stop
         offset="1"
         id="stop3417"
         stop-color="#f2f2f2" />
    </linearGradient>
    <linearGradient
       id="linearGradient3960">
      <stop
         id="stop3962"
         stop-opacity="0" />
      <stop
         id="stop3970"
         offset="0.5" />
      <stop
         offset="1"
         id="stop3964"
         stop-opacity="0" />
    </linearGradient>
    <linearGradient
       xlink:href="#linearGradient3960"
       id="linearGradient3921"
       gradientUnits="userSpaceOnUse"
       gradientTransform="translate(-7,-14.000001)"
       y1="45"
       x2="0"
       y2="42" />
    <radialGradient
       xlink:href="#linearGradient26113-9-3-1"
       id="radialGradient3924"
       gradientUnits="userSpaceOnUse"
       gradientTransform="matrix(1,0,0,0.75,-6,-3.125001)"
       cx="9"
       cy="43.5"
       r="2" />
    <radialGradient
       xlink:href="#linearGradient26113-9-3-1"
       id="radialGradient3927"
       gradientUnits="userSpaceOnUse"
       gradientTransform="matrix(1,0,0,0.75,-11,-3.125001)"
       cx="40"
       cy="43.5"
       r="2" />
    <linearGradient
       xlink:href="#linearGradient3413"
       id="linearGradient3943"
       gradientUnits="userSpaceOnUse"
       gradientTransform="matrix(0,-1,1,0,0,32)"
       x1="2.5"
       x2="29.5" />
    <linearGradient
       xlink:href="#outerBackgroundGradient-6"
       id="linearGradient4286"
       gradientUnits="userSpaceOnUse"
       gradientTransform="matrix(0,-1,1,0,0,32)"
       x1="2.5"
       x2="29.5" />
  </defs>
  <metadata
     id="metadata4253">
    <rdf:RDF>
      <cc:Work
         rdf:about="">
        <dc:format>image/svg+xml</dc:format>
        <dc:type
           rdf:resource="http://purl.org/dc/dcmitype/StillImage" />
      </cc:Work>
    </rdf:RDF>
  </metadata>
  <g
     id="layer1">
    <g
       id="g3930">
      <path
         id="rect3940"
         d="m 29,27.999999 0,3 0.5,0 c 0.831,0 1.5,-0.669 1.5,-1.5 0,-0.831 -0.669,-1.5 -1.5,-1.5 l -0.5,0 z"
         opacity="0.3"
         fill="url(#radialGradient3927)" />
      <path
         id="rect3942"
         d="M 2.40625,27.999999 C 1.6271875,27.999999 1,28.627186 1,29.406249 l 0,0.1875 c 0,0.779063 0.6271875,1.40625 1.40625,1.40625 l 0.59375,0 0,-3 -0.59375,0 z"
         opacity="0.3"
         fill="url(#radialGradient3924)" />
      <path
         id="rect3938"
         d="M 2.9998571,27.999999 29,28 l 0,3 -26.0001429,-1e-6 z"
         opacity="0.3"
         fill="url(#linearGradient3921)" />
    </g>
    <path
       d="M 2.5 9 L 2.5 28 C 2.5 28.831 3.169 29.5 4 29.5 L 28 29.5 C 28.831 29.5 29.5 28.831 29.5 28 L 29.5 9 L 2.5 9 z "
       id="path4269"
       fill="url(#linearGradient3943)"
       fill-rule="evenodd" />
    <path
       d="M 4 3 C 3.4373514 3 3 3.4373514 3 4 L 3 28 C 3 28.562649 3.4373514 29 4 29 L 28 29 C 28.562649 29 29 28.562649 29 28 L 29 4 C 29 3.4373514 28.562649 3 28 3 L 4 3 z M 4 4 L 28 4 L 28 28 L 4 28 L 4 4 z "
       id="path3951"
       opacity="0.1"
       fill="#ffffff"
       fill-rule="evenodd" />
    <path
       id="path3949"
       d="M 4,29 C 3.4373514,29 3,28.562649 3,28 l 0,-1 c 0,0.562649 0.4373514,1 1,1 l 24,0 c 0.562649,0 1,-0.437351 1,-1 l 0,1 c 0,0.562649 -0.437351,1 -1,1 L 4,29 z"
       opacity="0.1"
       fill="#ffffff"
       fill-rule="evenodd" />
    <path
       d="M 2 9 L 2 28 C 2 29.099351 2.9006486 30 4 30 L 28 30 C 29.099351 30 30 29.099351 30 28 L 30 9 L 29 9 L 29 28 C 29 28.562649 28.562649 29 28 29 L 4 29 C 3.4373514 29 3 28.562649 3 28 L 3 9 L 2 9 z "
       id="path4275"
       opacity="0.41"
       color="#000000" />
    <path
       d="M 4 2.5 C 3.169 2.5 2.5 3.169 2.5 4 L 2.5 9 L 29.5 9 L 29.5 4 C 29.5 3.169 28.831 2.5 28 2.5 L 4 2.5 z "
       id="rect3894"
       fill="url(#linearGradient4286)"
       fill-rule="evenodd" />
    <path
       d="M 4 3 C 3.4373514 3 3 3.4373514 3 4 L 3 5 C 3 4.4373514 3.4373514 4 4 4 L 28 4 C 28.562649 4 29 4.4373514 29 5 L 29 4 C 29 3.4373514 28.562649 3 28 3 L 4 3 z "
       id="path3935"
       opacity="0.1"
       fill="#ffffff"
       fill-rule="evenodd" />
    <path
       d="M 4 2 C 2.9006486 2 2 2.9006486 2 4 L 2 9 L 3 9 L 3 4 C 3 3.4373514 3.4373514 3 4 3 L 28 3 C 28.562649 3 29 3.4373514 29 4 L 29 9 L 30 9 L 30 4 C 30 2.9006486 29.099351 2 28 2 L 4 2 z "
       id="path3906"
       opacity="0.61"
       color="#000000"
       fill="#8f0202" />
    <g
       id="g3925"
       transform="translate(3,-24)">
      <path
         d="M 10,9 C 10,9.5522847 9.5522847,10 9,10 8.4477153,10 8,9.5522847 8,9 8,8.4477153 8.4477153,8 9,8 c 0.5522847,0 1,0.4477153 1,1 z"
         id="path3863"
         transform="matrix(0.5,0,0,0.5,-1,26)"
         opacity="0.2"
         fill="#ffffff" />
      <path
         transform="matrix(0.5,0,0,0.5,-1,25)"
         id="path3859"
         d="M 10,9 C 10,9.5522847 9.5522847,10 9,10 8.4477153,10 8,9.5522847 8,9 8,8.4477153 8.4477153,8 9,8 c 0.5522847,0 1,0.4477153 1,1 z"
         fill="#ad3125" />
    </g>
    <rect
       id="rect3921"
       width="27"
       height="1"
       x="2.5"
       y="8"
       rx="0"
       ry="0.5"
       fill="#ad3125" />
    <rect
       ry="0.5"
       rx="0"
       y="9"
       x="2.5"
       height="1"
       width="27"
       id="rect3923"
       opacity="0.4"
       fill="#ffffff" />
    <g
       transform="translate(23,-24)"
       id="g3929">
      <path
         transform="matrix(0.5,0,0,0.5,-1,26)"
         id="path3931"
         d="M 10,9 C 10,9.5522847 9.5522847,10 9,10 8.4477153,10 8,9.5522847 8,9 8,8.4477153 8.4477153,8 9,8 c 0.5522847,0 1,0.4477153 1,1 z"
         opacity="0.2"
         fill="#ffffff" />
      <path
         d="M 10,9 C 10,9.5522847 9.5522847,10 9,10 8.4477153,10 8,9.5522847 8,9 8,8.4477153 8.4477153,8 9,8 c 0.5522847,0 1,0.4477153 1,1 z"
         id="path3933"
         transform="matrix(0.5,0,0,0.5,-1,25)"
         fill="#ad3125" />
    </g>
  </g>
  <g
     id="layer2">
    <path
       d="m 6,13 0,13 20,0 0,-1 0,-2 0,-1 0,-2 0,-1 0,-2 0,-1 0,-2 0,-1 z m 1,1 3,0 0,2 -3,0 z m 4,0 2,0 0,2 -2,0 z m 3,0 2,0 0,2 -2,0 z m 3,0 2,0 0,2 -2,0 z m 3,0 2,0 0,2 -2,0 z m 3,0 2,0 0,2 -2,0 z m -16,3 3,0 0,2 -3,0 z m 4,0 2,0 0,2 -2,0 z m 3,0 2,0 0,2 -2,0 z m 3,0 2,0 0,2 -2,0 z m 3,0 2,0 0,2 -2,0 z m 3,0 2,0 0,2 -2,0 z m -16,3 3,0 0,2 -3,0 z m 4,0 2,0 0,2 -2,0 z m 3,0 2,0 0,2 -2,0 z m 3,0 2,0 0,2 -2,0 z m 3,0 2,0 0,2 -2,0 z m 3,0 2,0 0,2 -2,0 z m -16,3 3,0 0,2 -3,0 z m 4,0 2,0 0,2 -2,0 z m 3,0 2,0 0,2 -2,0 z m 3,0 2,0 0,2 -2,0 z m 3,0 2,0 0,2 -2,0 z m 3,0 2,0 0,2 -2,0 z"
       id="path4340"
       opacity="0.2"
       fill="#ffffff" />
    <path
       d="m 6,12 0,13 20,0 0,-1 0,-2 0,-1 0,-2 0,-1 0,-2 0,-1 0,-2 0,-1 z m 1,1 3,0 0,2 -3,0 z m 4,0 2,0 0,2 -2,0 z m 3,0 2,0 0,2 -2,0 z m 3,0 2,0 0,2 -2,0 z m 3,0 2,0 0,2 -2,0 z m 3,0 2,0 0,2 -2,0 z m -16,3 3,0 0,2 -3,0 z m 4,0 2,0 0,2 -2,0 z m 3,0 2,0 0,2 -2,0 z m 3,0 2,0 0,2 -2,0 z m 3,0 2,0 0,2 -2,0 z m 3,0 2,0 0,2 -2,0 z m -16,3 3,0 0,2 -3,0 z m 4,0 2,0 0,2 -2,0 z m 3,0 2,0 0,2 -2,0 z m 3,0 2,0 0,2 -2,0 z m 3,0 2,0 0,2 -2,0 z m 3,0 2,0 0,2 -2,0 z m -16,3 3,0 0,2 -3,0 z m 4,0 2,0 0,2 -2,0 z m 3,0 2,0 0,2 -2,0 z m 3,0 2,0 0,2 -2,0 z m 3,0 2,0 0,2 -2,0 z m 3,0 2,0 0,2 -2,0 z"
       id="rect4307"
       fill="#bbbbbb" />
  </g>
</svg>
