<?xml version="1.0" encoding="UTF-8" standalone="no"?>
<!-- Created with Inkscape (http://www.inkscape.org/) -->

<svg
   xmlns:dc="http://purl.org/dc/elements/1.1/"
   xmlns:cc="http://creativecommons.org/ns#"
   xmlns:rdf="http://www.w3.org/1999/02/22-rdf-syntax-ns#"
   xmlns:svg="http://www.w3.org/2000/svg"
   xmlns="http://www.w3.org/2000/svg"
   xmlns:xlink="http://www.w3.org/1999/xlink"
   xmlns:sodipodi="http://sodipodi.sourceforge.net/DTD/sodipodi-0.dtd"
   xmlns:inkscape="http://www.inkscape.org/namespaces/inkscape"
   version="1.1"
   width="32"
   height="32"
   id="svg4248"
   inkscape:version="0.48.4 r9939"
   sodipodi:docname="system-users.svg">
  <sodipodi:namedview
     pagecolor="#ffffff"
     bordercolor="#666666"
     borderopacity="1"
     objecttolerance="10"
     gridtolerance="10"
     guidetolerance="10"
     inkscape:pageopacity="0"
     inkscape:pageshadow="2"
     inkscape:window-width="1364"
     inkscape:window-height="701"
     id="namedview46"
     showgrid="false"
     showborder="false"
     inkscape:zoom="1"
     inkscape:cx="32.160139"
     inkscape:cy="15.099029"
     inkscape:window-x="0"
     inkscape:window-y="28"
     inkscape:window-maximized="1"
     inkscape:current-layer="layer1">
    <inkscape:grid
       type="xygrid"
       id="grid3847" />
  </sodipodi:namedview>
  <defs
     id="defs4250">
    <linearGradient
       inkscape:collect="always"
       id="linearGradient5442">
      <stop
         style="stop-color:#46d6aa;stop-opacity:1;"
         offset="0"
         id="stop5444" />
      <stop
         style="stop-color:#27c393;stop-opacity:1"
         offset="1"
         id="stop5446" />
    </linearGradient>
    <linearGradient
       id="linearGradient3904">
      <stop
         id="stop3906"
         offset="0"
         style="stop-color:#238323;stop-opacity:1;" />
      <stop
         id="stop3908"
         offset="1"
         style="stop-color:#309e31;stop-opacity:1;" />
    </linearGradient>
    <linearGradient
       inkscape:collect="always"
       id="linearGradient3812">
      <stop
         style="stop-color:#ffffff;stop-opacity:1;"
         offset="0"
         id="stop3814" />
      <stop
         style="stop-color:#ffffff;stop-opacity:0;"
         offset="1"
         id="stop3816" />
    </linearGradient>
    <radialGradient
       inkscape:collect="always"
       xlink:href="#outerBackgroundGradient"
       id="radialGradient3805"
       gradientUnits="userSpaceOnUse"
       gradientTransform="matrix(4.5367027e-8,-1.7632481,-1.8653063,0,31.761486,43.251051)"
       cx="6.1596723"
       cy="8.4497671"
       fx="6.1596723"
       fy="8.4497671"
       r="19.99999" />
    <linearGradient
       inkscape:collect="always"
       xlink:href="#linearGradient3812"
       id="linearGradient3818"
       x1="2"
       y1="16.000001"
       x2="30"
       y2="16.000001"
       gradientUnits="userSpaceOnUse"
       gradientTransform="matrix(0,1,-1,0,32.000001,8.5e-7)" />
    <radialGradient
       inkscape:collect="always"
       xlink:href="#linearGradient26113-9-3-1"
       id="radialGradient3755"
       gradientUnits="userSpaceOnUse"
       gradientTransform="matrix(1,0,0,0.37,0,24.5124)"
       cx="24.849752"
       cy="38.908627"
       fx="24.849752"
       fy="38.908627"
       r="20.203051" />
    <linearGradient
       inkscape:collect="always"
       id="linearGradient26113-9-3-1">
      <stop
         style="stop-color: rgb(0, 0, 0); stop-opacity: 1;"
         offset="0"
         id="stop26115-7-7-9" />
      <stop
         style="stop-color: rgb(0, 0, 0); stop-opacity: 0;"
         offset="1"
         id="stop26117-3-7-8" />
    </linearGradient>
    <linearGradient
       inkscape:collect="always"
       id="linearGradient26121-3-8-2">
      <stop
         style="stop-color: rgb(0, 0, 0); stop-opacity: 1;"
         offset="0"
         id="stop26123-4-7-8" />
      <stop
         style="stop-color: rgb(0, 0, 0); stop-opacity: 0;"
         offset="1"
         id="stop26125-3-9-9" />
    </linearGradient>
    <radialGradient
       r="20.203051"
       fy="38.908627"
       fx="24.849752"
       cy="38.908627"
       cx="24.849752"
       gradientTransform="matrix(1.00851,0,0,0.373148,-0.211403,24.39)"
       gradientUnits="userSpaceOnUse"
       id="radialGradient3972"
       xlink:href="#linearGradient26121-3-8-2"
       inkscape:collect="always" />
    <linearGradient
       id="outerBackgroundGradient">
      <stop
         style="stop-color:#1450b9;stop-opacity:1;"
         offset="0"
         id="stop3864-8-6" />
      <stop
         style="stop-color:#5187e6;stop-opacity:1;"
         offset="1"
         id="stop3866-9-1" />
    </linearGradient>
    <linearGradient
       inkscape:collect="always"
       xlink:href="#linearGradient3904"
       id="linearGradient3109"
       gradientUnits="userSpaceOnUse"
       gradientTransform="matrix(0,-1,1,0,5.0000306e-7,32)"
       x1="1"
       y1="15.999999"
       x2="31"
       y2="15.999999" />
    <radialGradient
       inkscape:collect="always"
       xlink:href="#outerBackgroundGradient"
       id="radialGradient3111"
       gradientUnits="userSpaceOnUse"
       gradientTransform="matrix(4.5367027e-8,-1.7632481,-1.8653063,0,31.761486,43.251051)"
       cx="6.1596723"
       cy="8.4497671"
       fx="6.1596723"
       fy="8.4497671"
       r="19.99999" />
    <radialGradient
       inkscape:collect="always"
       xlink:href="#outerBackgroundGradient-5"
       id="radialGradient4373"
       cx="24"
       cy="12.000001"
       fx="24"
       fy="12.000001"
       r="19.5"
       gradientUnits="userSpaceOnUse"
       gradientTransform="matrix(-1.4358974,0,0,-1.823144,58.461538,33.877729)" />
    <linearGradient
       id="outerBackgroundGradient-5">
      <stop
         style="stop-color:#13ff00;stop-opacity:1;"
         offset="0"
         id="stop3864-8-6-1" />
      <stop
         id="stop4375"
         offset="0.75"
         style="stop-color:#33c039;stop-opacity:1;" />
      <stop
         style="stop-color:#469059;stop-opacity:1;"
         offset="1"
         id="stop3866-9-1-1" />
    </linearGradient>
    <linearGradient
       inkscape:collect="always"
       xlink:href="#linearGradient5442"
       id="linearGradient5448"
       x1="1.5"
       y1="16"
       x2="30.5"
       y2="16"
       gradientUnits="userSpaceOnUse"
       gradientTransform="matrix(0,1,-1,0,32,0)" />
  </defs>
  <metadata
     id="metadata4253">
    <rdf:RDF>
      <cc:Work
         rdf:about="">
        <dc:format>image/svg+xml</dc:format>
        <dc:type
           rdf:resource="http://purl.org/dc/dcmitype/StillImage" />
        <dc:title></dc:title>
      </cc:Work>
    </rdf:RDF>
  </metadata>
  <g
     inkscape:groupmode="layer"
     id="layer1"
     inkscape:label="Background">
    <path
       sodipodi:type="arc"
       style="fill:url(#radialGradient3972);fill-opacity:1;stroke:none;display:inline;filter:url(#filter5927);enable-background:new"
       id="path8606"
       sodipodi:cx="24.849752"
       sodipodi:cy="38.908627"
       sodipodi:rx="20.203051"
       sodipodi:ry="7.4751287"
       d="m 45.052803,38.908627 a 20.203051,7.4751287 0 1 1 -40.4061012,0 20.203051,7.4751287 0 1 1 40.4061012,0 z"
       transform="matrix(0.51081599,0,0,0.46595786,3.1704533,10.023687)" />
    <path
       transform="matrix(0.69053217,0,0,0.62989172,-1.2951468,3.2832567)"
       d="m 45.052803,38.908627 a 20.203051,7.4751287 0 1 1 -40.4061012,0 20.203051,7.4751287 0 1 1 40.4061012,0 z"
       sodipodi:ry="7.4751287"
       sodipodi:rx="20.203051"
       sodipodi:cy="38.908627"
       sodipodi:cx="24.849752"
       id="path8608"
       style="opacity:0.51836697;fill:url(#radialGradient3755);fill-opacity:1;stroke:none;display:inline;filter:url(#filter5788);enable-background:new"
       sodipodi:type="arc" />
    <path
       style="fill:url(#linearGradient5448);fill-opacity:1;fill-rule:nonzero;stroke:none"
       id="path6495"
       inkscape:connector-curvature="0"
       d="M 1.5,15.999486 C 1.5,24.007873 7.99235,30.5 15.999818,30.5 24.008018,30.5 30.5,24.007799 30.5,15.999486 30.5,7.991467 24.008018,1.5 15.999818,1.5 7.99235,1.5 1.5,7.991467 1.5,15.999486 l 0,0 z" />
    <path
       d="m 30.500001,15.999999 c 0,8.000599 -6.499399,14.500001 -14.5,14.500001 -8.0006015,0 -14.5000035,-6.499402 -14.5000015,-14.500001 0,-8.0005975 6.4994,-14.5000065 14.5000015,-14.4999995 8.000601,0 14.5,6.499402 14.5,14.4999995 z"
       inkscape:connector-curvature="0"
       id="path3866"
       style="opacity:0.91000000000000003;color:#000000;fill:none;stroke:#2f795f;stroke-width:1;stroke-opacity:1;marker:none;visibility:visible;display:inline;overflow:visible;enable-background:accumulate" />
    <path
       style="color:#000000;fill:#ffffff;fill-opacity:1;fill-rule:nonzero;stroke:none;stroke-width:1;marker:none;visibility:visible;display:inline;overflow:visible;enable-background:accumulate;opacity:0.2"
       d="M 16 2 C 8.2701871 1.9999932 2 8.2701906 2 16 C 2 16.168178 2.0253633 16.333253 2.03125 16.5 C 2.295928 9.0027282 8.4383652 2.9999933 16 3 C 23.561635 3 29.704072 9.0027285 29.96875 16.5 C 29.974637 16.333253 30 16.168178 30 16 C 30 8.2701906 23.729813 2 16 2 z "
       id="path3101" />
  </g>
  <g
     inkscape:groupmode="layer"
     id="layer2"
     inkscape:label="Symbol">
    <path
       id="path3810"
       d="m 16,9.5 c 2.485257,0 4.5,2.014758 4.5,4.5 0,2.485242 -2.014743,4.5 -4.5,4.5 -2.485257,0 -4.5,-2.014758 -4.5,-4.5 0,-2.485242 2.014743,-4.5 4.5,-4.5 z m -1.5,10.5 3,0 c 2.210461,0 4.069849,1.333009 5.09375,3.15625 C 20.950402,24.924052 18.604025,26 16,26 13.395975,26 11.018348,24.924052 9.375,23.15625 10.398901,21.333009 12.289539,20 14.5,20 z"
       style="opacity:0.2;color:#000000;fill:#000000;fill-opacity:1;fill-rule:nonzero;stroke:none;stroke-width:1.54645538;marker:none;visibility:visible;display:inline;overflow:visible;enable-background:accumulate"
       inkscape:connector-curvature="0"
       sodipodi:nodetypes="ssssssscscs" />
    <path
       style="color:#000000;fill:#ffffff;fill-opacity:1;fill-rule:nonzero;stroke:none;stroke-width:1.54645538;marker:none;visibility:visible;display:inline;overflow:visible;enable-background:accumulate"
       d="m 16,8.5 c 2.485257,0 4.5,2.014758 4.5,4.5 0,2.485242 -2.014743,4.5 -4.5,4.5 -2.485257,0 -4.5,-2.014758 -4.5,-4.5 0,-2.485242 2.014743,-4.5 4.5,-4.5 z m -1.5,10.5 3,0 c 2.210461,0 4.069849,1.333009 5.09375,3.15625 C 20.950402,23.924052 18.604025,25 16,25 13.395975,25 11.018348,23.924052 9.375,22.15625 10.398901,20.333009 12.289539,19 14.5,19 z"
       id="path3029"
       inkscape:connector-curvature="0"
       sodipodi:nodetypes="ssssssscscs" />
  </g>
</svg>
