<?xml version="1.0" encoding="UTF-8" standalone="no"?>
<!-- Created with Inkscape (http://www.inkscape.org/) -->

<svg
   xmlns:dc="http://purl.org/dc/elements/1.1/"
   xmlns:cc="http://creativecommons.org/ns#"
   xmlns:rdf="http://www.w3.org/1999/02/22-rdf-syntax-ns#"
   xmlns:svg="http://www.w3.org/2000/svg"
   xmlns="http://www.w3.org/2000/svg"
   xmlns:xlink="http://www.w3.org/1999/xlink"
   xmlns:sodipodi="http://sodipodi.sourceforge.net/DTD/sodipodi-0.dtd"
   xmlns:inkscape="http://www.inkscape.org/namespaces/inkscape"
   version="1.1"
   width="32"
   height="32"
   id="svg4248"
   inkscape:version="0.48.4 r9939"
   sodipodi:docname="preferences-desktop-keyboard.svg">
  <sodipodi:namedview
     pagecolor="#ffffff"
     bordercolor="#666666"
     borderopacity="1"
     objecttolerance="10"
     gridtolerance="10"
     guidetolerance="10"
     inkscape:pageopacity="0"
     inkscape:pageshadow="2"
     inkscape:window-width="1364"
     inkscape:window-height="700"
     id="namedview46"
     showgrid="false"
     showborder="true"
     inkscape:zoom="1"
     inkscape:cx="19.208614"
     inkscape:cy="23.233434"
     inkscape:window-x="0"
     inkscape:window-y="28"
     inkscape:window-maximized="1"
     inkscape:current-layer="layer2"
     inkscape:snap-bbox="true"
     inkscape:bbox-paths="true"
     inkscape:bbox-nodes="true"
     inkscape:snap-bbox-edge-midpoints="true"
     inkscape:snap-bbox-midpoints="true"
     showguides="true"
     inkscape:guide-bbox="true">
    <inkscape:grid
       type="xygrid"
       id="grid3847"
       empspacing="5"
       visible="true"
       enabled="true"
       snapvisiblegridlinesonly="true" />
  </sodipodi:namedview>
  <defs
     id="defs4250">
    <linearGradient
       inkscape:collect="always"
       id="linearGradient3851">
      <stop
         style="stop-color:#ffffff;stop-opacity:1;"
         offset="0"
         id="stop3853" />
      <stop
         style="stop-color:#ffffff;stop-opacity:0;"
         offset="1"
         id="stop3855" />
    </linearGradient>
    <linearGradient
       id="linearGradient3904">
      <stop
         id="stop3906"
         offset="0"
         style="stop-color:#234683;stop-opacity:1;" />
      <stop
         id="stop3908"
         offset="1"
         style="stop-color:#30589e;stop-opacity:1;" />
    </linearGradient>
    <linearGradient
       inkscape:collect="always"
       id="linearGradient3812">
      <stop
         style="stop-color:#ffffff;stop-opacity:1;"
         offset="0"
         id="stop3814" />
      <stop
         style="stop-color:#ffffff;stop-opacity:0;"
         offset="1"
         id="stop3816" />
    </linearGradient>
    <radialGradient
       inkscape:collect="always"
       xlink:href="#outerBackgroundGradient"
       id="radialGradient3805"
       gradientUnits="userSpaceOnUse"
       gradientTransform="matrix(4.5367027e-8,-1.7632481,-1.8653063,0,31.761486,43.251051)"
       cx="6.1596723"
       cy="8.4497671"
       fx="6.1596723"
       fy="8.4497671"
       r="19.99999" />
    <linearGradient
       inkscape:collect="always"
       xlink:href="#linearGradient3812"
       id="linearGradient3818"
       x1="2"
       y1="16.000001"
       x2="30"
       y2="16.000001"
       gradientUnits="userSpaceOnUse"
       gradientTransform="matrix(0,1,-1,0,32.000001,8.5e-7)" />
    <linearGradient
       id="outerBackgroundGradient">
      <stop
         style="stop-color:#1450b9;stop-opacity:1;"
         offset="0"
         id="stop3864-8-6" />
      <stop
         style="stop-color:#5187e6;stop-opacity:1;"
         offset="1"
         id="stop3866-9-1" />
    </linearGradient>
    <linearGradient
       inkscape:collect="always"
       xlink:href="#linearGradient3904"
       id="linearGradient3109"
       gradientUnits="userSpaceOnUse"
       gradientTransform="matrix(0,-1,1,0,5.0000306e-7,32)"
       x1="1"
       y1="15.999999"
       x2="31"
       y2="15.999999" />
    <radialGradient
       inkscape:collect="always"
       xlink:href="#outerBackgroundGradient"
       id="radialGradient3111"
       gradientUnits="userSpaceOnUse"
       gradientTransform="matrix(4.5367027e-8,-1.7632481,-1.8653063,0,31.761486,43.251051)"
       cx="6.1596723"
       cy="8.4497671"
       fx="6.1596723"
       fy="8.4497671"
       r="19.99999" />
    <radialGradient
       inkscape:collect="always"
       xlink:href="#outerBackgroundGradient-5"
       id="radialGradient4373"
       cx="24"
       cy="12.000001"
       fx="24"
       fy="12.000001"
       r="19.5"
       gradientUnits="userSpaceOnUse"
       gradientTransform="matrix(-1.4358974,0,0,-1.823144,58.461538,33.877729)" />
    <linearGradient
       id="outerBackgroundGradient-5">
      <stop
         style="stop-color:#0097ff;stop-opacity:1;"
         offset="0"
         id="stop3864-8-6-1" />
      <stop
         id="stop4375"
         offset="0.75"
         style="stop-color:#006cd9;stop-opacity:1;" />
      <stop
         style="stop-color:#1148c1;stop-opacity:1;"
         offset="1"
         id="stop3866-9-1-1" />
    </linearGradient>
    <linearGradient
       id="outerBackgroundGradient-6">
      <stop
         style="stop-color:#c23021;stop-opacity:1;"
         offset="0"
         id="stop3864-8-6-0" />
      <stop
         style="stop-color:#e74c3c;stop-opacity:1;"
         offset="1"
         id="stop3866-9-1-7" />
    </linearGradient>
    <linearGradient
       id="linearGradient3413">
      <stop
         style="stop-color:#dddddd;stop-opacity:1;"
         offset="0"
         id="stop3415" />
      <stop
         id="stop3886"
         offset="0.12962963"
         style="stop-color:#e2e2e2;stop-opacity:1;" />
      <stop
         id="stop3884"
         offset="0.12962963"
         style="stop-color:#f0f0f0;stop-opacity:1;" />
      <stop
         style="stop-color:#e6e6e6;stop-opacity:1"
         offset="1"
         id="stop3417" />
    </linearGradient>
    <linearGradient
       inkscape:collect="always"
       id="linearGradient3952">
      <stop
         style="stop-color:#000000;stop-opacity:1;"
         offset="0"
         id="stop3954" />
      <stop
         style="stop-color:#000000;stop-opacity:0;"
         offset="1"
         id="stop3956" />
    </linearGradient>
    <linearGradient
       inkscape:collect="always"
       id="linearGradient3944">
      <stop
         style="stop-color:#000000;stop-opacity:1;"
         offset="0"
         id="stop3946" />
      <stop
         style="stop-color:#000000;stop-opacity:0;"
         offset="1"
         id="stop3948" />
    </linearGradient>
    <linearGradient
       inkscape:collect="always"
       xlink:href="#linearGradient3960"
       id="linearGradient4733"
       gradientUnits="userSpaceOnUse"
       gradientTransform="translate(-8,2.999999)"
       x1="25"
       y1="45"
       x2="25"
       y2="42" />
    <linearGradient
       id="linearGradient3960">
      <stop
         style="stop-color:#000000;stop-opacity:0;"
         offset="0"
         id="stop3962" />
      <stop
         id="stop3970"
         offset="0.5"
         style="stop-color:#000000;stop-opacity:1;" />
      <stop
         style="stop-color:#000000;stop-opacity:0;"
         offset="1"
         id="stop3964" />
    </linearGradient>
    <linearGradient
       inkscape:collect="always"
       xlink:href="#linearGradient3413"
       id="linearGradient3903"
       x1="2.5"
       y1="16"
       x2="29.5"
       y2="16"
       gradientUnits="userSpaceOnUse"
       gradientTransform="matrix(0,-1,1,0,0,32)" />
    <linearGradient
       inkscape:collect="always"
       xlink:href="#linearGradient3960"
       id="linearGradient3921"
       gradientUnits="userSpaceOnUse"
       gradientTransform="translate(-7,-14.000001)"
       x1="25"
       y1="45"
       x2="25"
       y2="42" />
    <radialGradient
       inkscape:collect="always"
       xlink:href="#linearGradient3944"
       id="radialGradient3924"
       gradientUnits="userSpaceOnUse"
       gradientTransform="matrix(1,0,0,0.75,-6,-3.125001)"
       cx="9"
       cy="43.5"
       fx="9"
       fy="43.5"
       r="2" />
    <radialGradient
       inkscape:collect="always"
       xlink:href="#linearGradient3952"
       id="radialGradient3927"
       gradientUnits="userSpaceOnUse"
       gradientTransform="matrix(1,0,0,0.75,-11,-3.125001)"
       cx="40"
       cy="43.5"
       fx="40"
       fy="43.5"
       r="2" />
    <linearGradient
       inkscape:collect="always"
       xlink:href="#outerBackgroundGradient-7"
       id="linearGradient4936"
       gradientUnits="userSpaceOnUse"
       gradientTransform="matrix(0.91666667,0,0,0.91666667,-274.91793,-218.1222)"
       x1="334.54547"
       y1="267.27274"
       x2="334.54547"
       y2="234.54546" />
    <linearGradient
       id="outerBackgroundGradient-7">
      <stop
         style="stop-color:#dddddd;stop-opacity:1;"
         offset="0"
         id="stop3864-8-6-3" />
      <stop
         style="stop-color:#f2f2f2;stop-opacity:1;"
         offset="1"
         id="stop3866-9-1-2" />
    </linearGradient>
    <linearGradient
       inkscape:collect="always"
       xlink:href="#outerBackgroundGradient-7"
       id="linearGradient4934"
       gradientUnits="userSpaceOnUse"
       gradientTransform="matrix(0.91666667,0,0,0.91666667,-274.91793,-220.1222)"
       x1="328"
       y1="269.45456"
       x2="328"
       y2="236.72726" />
    <linearGradient
       id="linearGradient3440">
      <stop
         style="stop-color:#dddddd;stop-opacity:1;"
         offset="0"
         id="stop3442" />
      <stop
         style="stop-color:#f2f2f2;stop-opacity:1;"
         offset="1"
         id="stop3444" />
    </linearGradient>
    <linearGradient
       inkscape:collect="always"
       xlink:href="#linearGradient4084"
       id="linearGradient4932"
       gradientUnits="userSpaceOnUse"
       gradientTransform="matrix(0.91666667,0,0,0.91666667,-274.91793,-218.1222)"
       x1="325.81818"
       y1="234.54546"
       x2="325.81818"
       y2="267.27274" />
    <linearGradient
       id="linearGradient4084">
      <stop
         style="stop-color:#cd5fc2;stop-opacity:1;"
         offset="0"
         id="stop4086" />
      <stop
         style="stop-color:#9a4993;stop-opacity:1;"
         offset="1"
         id="stop4088" />
    </linearGradient>
    <linearGradient
       inkscape:collect="always"
       xlink:href="#linearGradient4100"
       id="linearGradient4930"
       gradientUnits="userSpaceOnUse"
       gradientTransform="matrix(0.91666667,0,0,0.91666667,-274.91793,-223.78887)"
       x1="330.18182"
       y1="240.72728"
       x2="330.18182"
       y2="272.36365" />
    <linearGradient
       id="linearGradient4100">
      <stop
         id="stop4102"
         offset="0"
         style="stop-color:#aaaaaa;stop-opacity:1;" />
      <stop
         id="stop4104"
         offset="1"
         style="stop-color:#767676;stop-opacity:1;" />
    </linearGradient>
    <linearGradient
       inkscape:collect="always"
       xlink:href="#linearGradient5618"
       id="linearGradient4083"
       x1="-1023.8622"
       y1="-808"
       x2="-984.86218"
       y2="-808"
       gradientUnits="userSpaceOnUse"
       gradientTransform="translate(980.3622,784)" />
    <linearGradient
       id="linearGradient5618">
      <stop
         style="stop-color:#3e3e3e;stop-opacity:1;"
         offset="0"
         id="stop5620" />
      <stop
         style="stop-color:#595959;stop-opacity:1;"
         offset="1"
         id="stop5622" />
    </linearGradient>
    <linearGradient
       y2="-808"
       x2="-984.86218"
       y1="-808"
       x1="-1023.8622"
       gradientTransform="translate(998.52515,772.82144)"
       gradientUnits="userSpaceOnUse"
       id="linearGradient3075"
       xlink:href="#linearGradient5618"
       inkscape:collect="always" />
    <linearGradient
       inkscape:collect="always"
       xlink:href="#linearGradient5618"
       id="linearGradient3849"
       gradientUnits="userSpaceOnUse"
       gradientTransform="matrix(0,-1,1,0,0,32)"
       x1="2.5"
       y1="16"
       x2="29.5"
       y2="16" />
    <linearGradient
       inkscape:collect="always"
       xlink:href="#linearGradient3851"
       id="linearGradient3857"
       x1="3"
       y1="16"
       x2="29"
       y2="16"
       gradientUnits="userSpaceOnUse"
       gradientTransform="matrix(0,1,-1,0,32,0)" />
  </defs>
  <metadata
     id="metadata4253">
    <rdf:RDF>
      <cc:Work
         rdf:about="">
        <dc:format>image/svg+xml</dc:format>
        <dc:type
           rdf:resource="http://purl.org/dc/dcmitype/StillImage" />
        <dc:title></dc:title>
      </cc:Work>
    </rdf:RDF>
  </metadata>
  <g
     inkscape:groupmode="layer"
     id="layer1"
     inkscape:label="Background">
    <g
       id="g3930">
      <path
         inkscape:connector-curvature="0"
         id="rect3940"
         d="m 29,27.999999 0,3 0.5,0 c 0.831,0 1.5,-0.669 1.5,-1.5 0,-0.831 -0.669,-1.5 -1.5,-1.5 l -0.5,0 z"
         style="opacity:0.3;fill:url(#radialGradient3927);fill-opacity:1;stroke:none" />
      <path
         inkscape:connector-curvature="0"
         id="rect3942"
         d="M 2.40625,27.999999 C 1.6271875,27.999999 1,28.627186 1,29.406249 l 0,0.1875 c 0,0.779063 0.6271875,1.40625 1.40625,1.40625 l 0.59375,0 0,-3 -0.59375,0 z"
         style="opacity:0.3;fill:url(#radialGradient3924);fill-opacity:1;stroke:none" />
      <path
         sodipodi:nodetypes="ccccc"
         inkscape:connector-curvature="0"
         id="rect3938"
         d="M 2.9998571,27.999999 29,28 l 0,3 -26.0001429,-1e-6 z"
         style="opacity:0.3;fill:url(#linearGradient3921);fill-opacity:1;stroke:none" />
    </g>
    <path
       style="fill:url(#linearGradient3849);fill-opacity:1;fill-rule:evenodd;stroke:none"
       d="M 4 2.5 C 3.1782486 2.5 2.5 3.1782486 2.5 4 L 2.5 28 C 2.5 28.821752 3.1782489 29.5 4 29.5 L 28 29.5 C 28.821751 29.5 29.5 28.821751 29.5 28 L 29.5 4 C 29.5 3.1782489 28.821752 2.5 28 2.5 L 4 2.5 z "
       id="rect3894" />
    <path
       style="opacity:0.1;fill:url(#linearGradient3857);fill-opacity:1;fill-rule:evenodd;stroke:none"
       d="M 29,4 C 29,3.4373514 28.562649,3 28,3 L 4,3 C 3.437351,3 3,3.4373514 3,4 l 0,24 c 0,0.562649 0.437351,1 1,1 l 24,0 c 0.562649,0 1,-0.437351 1,-1 L 29,4 z M 28,4 28,28 4,28 4,4 28,4 z"
       id="path3951"
       inkscape:connector-curvature="0" />
    <path
       id="path3906"
       d="m -28,2.5 24,0 c 0.831,0 1.5,0.669 1.5,1.5 l 0,24 c 0,0.831 -0.669,1.5 -1.5,1.5 l -24,0 c -0.831,0 -1.5,-0.669 -1.5,-1.5 l 0,-24 c 0,-0.831 0.669,-1.5 1.5,-1.5 z"
       style="fill:none;fill-opacity:1;fill-rule:evenodd;stroke:#000000;stroke-opacity:1;opacity:0.81"
       transform="matrix(0,-1,1,0,0,0)" />
    <path
       style="fill:#ffffff;fill-opacity:1;fill-rule:evenodd;stroke:none;opacity:0.15"
       d="M 4 3 C 3.4373514 3 3 3.4373514 3 4 L 3 5 C 3 4.4373514 3.4373514 4 4 4 L 28 4 C 28.562649 4 29 4.4373514 29 5 L 29 4 C 29 3.4373514 28.562649 3 28 3 L 4 3 z "
       id="path3935" />
    <path
       id="path3949"
       d="M 4,29 C 3.4373514,29 3,28.562649 3,28 l 0,-1 c 0,0.562649 0.4373514,1 1,1 l 24,0 c 0.562649,0 1,-0.437351 1,-1 l 0,1 c 0,0.562649 -0.437351,1 -1,1 L 4,29 z"
       style="opacity:0.1;fill:#ffffff;fill-opacity:1;fill-rule:evenodd;stroke:none"
       inkscape:connector-curvature="0" />
  </g>
  <g
     inkscape:groupmode="layer"
     id="layer2"
     inkscape:label="Symbol">
    <g
       style="opacity:0.2;fill:#000000;fill-opacity:1;display:inline;enable-background:new"
       id="g4091"
       transform="matrix(0.5,0,0,0.5,-142.50715,-107)">
      <rect
         y="242"
         x="307"
         height="2"
         width="12"
         id="rect4093"
         style="color:#bebebe;fill:#000000;fill-opacity:1;fill-rule:nonzero;stroke:none;stroke-width:2;marker:none;visibility:visible;display:inline;overflow:visible;enable-background:accumulate" />
      <g
         style="font-size:17.2705555px;font-style:normal;font-variant:normal;font-weight:normal;font-stretch:normal;text-align:center;line-height:125%;letter-spacing:0px;word-spacing:0px;text-anchor:middle;fill:#000000;fill-opacity:1;stroke:none;display:inline;enable-background:new;font-family:Roboto;-inkscape-font-specification:Roboto"
         id="g4095">
        <path
           d="m 299.08429,227.17685 2.01687,0 0,1.1413 c 0.55749,0.11153 1.07237,0.32794 1.54461,0.64933 0.47878,0.31483 0.91167,0.70508 1.29865,1.17075 l -1.19043,1.50526 c 0,0 -0.35663,-0.45079 -0.52144,-0.65913 -0.13119,-0.15085 -0.30828,-0.29842 -0.53127,-0.44272 -0.21645,-0.14428 -0.44929,-0.24595 -0.69852,-0.30499 l 0,2.96133 c 0.53126,0.17054 1.00022,0.36074 1.40688,0.57063 0.40664,0.20989 0.74442,0.45257 1.01335,0.72803 0.27546,0.27548 0.48206,0.58703 0.61981,0.93464 0.13772,0.34107 0.20659,0.73131 0.2066,1.17076 -10e-6,0.41321 -0.0721,0.81002 -0.21644,1.19043 -0.1443,0.37386 -0.35418,0.71492 -0.62966,1.02319 -0.26891,0.30827 -0.59686,0.5739 -0.98383,0.7969 -0.38698,0.223 -0.82641,0.3837 -1.31832,0.48208 l 0,1.08221 -2.01687,0 0,-1.02318 c -0.61653,-0.105 -1.2101,-0.31155 -1.78073,-0.61982 -0.57062,-0.30826 -1.07894,-0.70836 -1.52494,-1.20027 l 1.2298,-1.73154 0.57066,0.70836 c 0.22301,0.24268 0.45911,0.44928 0.70836,0.61981 0.25579,0.17053 0.55422,0.29188 0.89528,0.36402 l 0,-3.60082 c -0.47879,-0.17709 -0.9084,-0.37386 -1.28881,-0.5903 -0.37386,-0.21644 -0.69197,-0.45584 -0.95432,-0.71819 -0.25579,-0.26892 -0.45256,-0.56406 -0.5903,-0.88545 -0.13773,-0.32794 -0.2066,-0.6854 -0.2066,-1.07239 0,-0.36728 0.0688,-0.71818 0.2066,-1.0527 0.13774,-0.33449 0.33451,-0.6362 0.5903,-0.90511 0.2558,-0.26891 0.56407,-0.49847 0.92481,-0.68869 0.36729,-0.19675 0.77394,-0.34105 1.21994,-0.43288 l 0,-1.17077 m 1.91848,10.99924 c 0.35417,-0.12462 0.63948,-0.3017 0.85593,-0.53127 0.22299,-0.22956 0.33449,-0.53455 0.3345,-0.91496 -10e-6,-0.31482 -0.0984,-0.5903 -0.29515,-0.82643 -0.19021,-0.23611 -0.48864,-0.42632 -0.89528,-0.57061 l 0,2.84327 m -1.8201,-7.95919 c -0.27547,0.0721 -0.49848,0.20005 -0.66899,0.38369 -0.17055,0.18366 -0.25581,0.41978 -0.25581,0.70836 0,0.20989 0.0688,0.42633 0.20661,0.64933 0.13773,0.22301 0.37713,0.39354 0.71819,0.51159 l 0,-2.25297"
           style="font-weight:bold;fill:#000000;fill-opacity:1;font-family:Inconsolata;-inkscape-font-specification:Inconsolata Bold"
           id="path4097-7"
           inkscape:connector-curvature="0"
           sodipodi:nodetypes="ccccccccccccccccsccccscccccccccscccccccccccccsccc" />
      </g>
    </g>
    <g
       transform="matrix(0.5,0,0,0.5,-142.50715,-108)"
       id="g4030"
       style="fill:#ffffff;fill-opacity:1;display:inline;enable-background:new">
      <rect
         style="color:#bebebe;fill:#ffffff;fill-opacity:1;fill-rule:nonzero;stroke:none;stroke-width:2;marker:none;visibility:visible;display:inline;overflow:visible;enable-background:accumulate"
         id="rect4032"
         width="12"
         height="2"
         x="307"
         y="242" />
      <g
         id="g4034"
         style="font-size:17.2705555px;font-style:normal;font-variant:normal;font-weight:normal;font-stretch:normal;text-align:center;line-height:125%;letter-spacing:0px;word-spacing:0px;text-anchor:middle;fill:#ffffff;fill-opacity:1;stroke:none;display:inline;enable-background:new;font-family:Roboto;-inkscape-font-specification:Roboto">
        <path
           sodipodi:nodetypes="ccccccccccccccccsccccscccccccccscccccccccccccsccc"
           inkscape:connector-curvature="0"
           id="path4036"
           style="font-weight:bold;fill:#ffffff;fill-opacity:1;font-family:Inconsolata;-inkscape-font-specification:Inconsolata Bold"
           d="m 299.08429,227.17685 2.01687,0 0,1.1413 c 0.55749,0.11153 1.07237,0.32794 1.54461,0.64933 0.47878,0.31483 0.91167,0.70508 1.29865,1.17075 l -1.19043,1.50526 c 0,0 -0.35663,-0.45079 -0.52144,-0.65913 -0.13119,-0.15085 -0.30828,-0.29842 -0.53127,-0.44272 -0.21645,-0.14428 -0.44929,-0.24595 -0.69852,-0.30499 l 0,2.96133 c 0.53126,0.17054 1.00022,0.36074 1.40688,0.57063 0.40664,0.20989 0.74442,0.45257 1.01335,0.72803 0.27546,0.27548 0.48206,0.58703 0.61981,0.93464 0.13772,0.34107 0.20659,0.73131 0.2066,1.17076 -10e-6,0.41321 -0.0721,0.81002 -0.21644,1.19043 -0.1443,0.37386 -0.35418,0.71492 -0.62966,1.02319 -0.26891,0.30827 -0.59686,0.5739 -0.98383,0.7969 -0.38698,0.223 -0.82641,0.3837 -1.31832,0.48208 l 0,1.08221 -2.01687,0 0,-1.02318 c -0.61653,-0.105 -1.2101,-0.31155 -1.78073,-0.61982 -0.57062,-0.30826 -1.07894,-0.70836 -1.52494,-1.20027 l 1.2298,-1.73154 0.57066,0.70836 c 0.22301,0.24268 0.45911,0.44928 0.70836,0.61981 0.25579,0.17053 0.55422,0.29188 0.89528,0.36402 l 0,-3.60082 c -0.47879,-0.17709 -0.9084,-0.37386 -1.28881,-0.5903 -0.37386,-0.21644 -0.69197,-0.45584 -0.95432,-0.71819 -0.25579,-0.26892 -0.45256,-0.56406 -0.5903,-0.88545 -0.13773,-0.32794 -0.2066,-0.6854 -0.2066,-1.07239 0,-0.36728 0.0688,-0.71818 0.2066,-1.0527 0.13774,-0.33449 0.33451,-0.6362 0.5903,-0.90511 0.2558,-0.26891 0.56407,-0.49847 0.92481,-0.68869 0.36729,-0.19675 0.77394,-0.34105 1.21994,-0.43288 l 0,-1.17077 m 1.91848,10.99924 c 0.35417,-0.12462 0.63948,-0.3017 0.85593,-0.53127 0.22299,-0.22956 0.33449,-0.53455 0.3345,-0.91496 -10e-6,-0.31482 -0.0984,-0.5903 -0.29515,-0.82643 -0.19021,-0.23611 -0.48864,-0.42632 -0.89528,-0.57061 l 0,2.84327 m -1.8201,-7.95919 c -0.27547,0.0721 -0.49848,0.20005 -0.66899,0.38369 -0.17055,0.18366 -0.25581,0.41978 -0.25581,0.70836 0,0.20989 0.0688,0.42633 0.20661,0.64933 0.13773,0.22301 0.37713,0.39354 0.71819,0.51159 l 0,-2.25297" />
      </g>
    </g>
  </g>
</svg>
