<?xml version="1.0" encoding="UTF-8" standalone="no"?>
<svg xmlns="http://www.w3.org/2000/svg" xmlns:xlink="http://www.w3.org/1999/xlink" xmlns:sodipodi="http://sodipodi.sourceforge.net/DTD/sodipodi-0.dtd" xmlns:inkscape="http://www.inkscape.org/namespaces/inkscape" version="1.1" width="32" height="32">
 <defs id="defs4250">
  <linearGradient inkscape:collect="always" id="linearGradient3851">
   <stop id="stop3853" stop-color="#ffffff"/>
   <stop offset="1" id="stop3855" stop-color="#ffffff" stop-opacity="0"/>
  </linearGradient>
  <linearGradient id="linearGradient3904">
   <stop id="stop3906" stop-color="#234683"/>
   <stop id="stop3908" offset="1" stop-color="#30589e"/>
  </linearGradient>
  <radialGradient inkscape:collect="always" xlink:href="#outerBackgroundGradient" id="radialGradient3805" gradientUnits="userSpaceOnUse" gradientTransform="matrix(4.5367027e-8,-1.7632481,-1.8653063,0,31.761486,43.251051)" cx="6.16" cy="8.45" r="20"/>
  <linearGradient inkscape:collect="always" xlink:href="#linearGradient3851" id="linearGradient3818" x1="2" x2="30" gradientUnits="userSpaceOnUse" gradientTransform="matrix(0,1,-1,0,32.000001,8.5e-7)"/>
  <linearGradient id="outerBackgroundGradient">
   <stop id="stop3864-8-6" stop-color="#1450b9"/>
   <stop offset="1" id="stop3866-9-1" stop-color="#5187e6"/>
  </linearGradient>
  <linearGradient inkscape:collect="always" xlink:href="#linearGradient3904" id="linearGradient3109" gradientUnits="userSpaceOnUse" gradientTransform="matrix(0,-1,1,0,5.0000306e-7,32)" x1="1" x2="31"/>
  <radialGradient inkscape:collect="always" xlink:href="#outerBackgroundGradient-5" id="radialGradient4373" cx="24" cy="12" r="19.5" gradientUnits="userSpaceOnUse" gradientTransform="matrix(-1.4358974,0,0,-1.823144,58.461538,33.877729)"/>
  <linearGradient id="outerBackgroundGradient-5">
   <stop id="stop3864-8-6-1" stop-color="#0097ff"/>
   <stop id="stop4375" offset="0.75" stop-color="#006cd9"/>
   <stop offset="1" id="stop3866-9-1-1" stop-color="#1148c1"/>
  </linearGradient>
  <linearGradient id="outerBackgroundGradient-6">
   <stop id="stop3864-8-6-0" stop-color="#c23021"/>
   <stop offset="1" id="stop3866-9-1-7" stop-color="#e74c3c"/>
  </linearGradient>
  <linearGradient id="linearGradient3413">
   <stop id="stop3415" stop-color="#dddddd"/>
   <stop id="stop3886" offset="0.13" stop-color="#e2e2e2"/>
   <stop id="stop3884" offset="0.13" stop-color="#f0f0f0"/>
   <stop offset="1" id="stop3417" stop-color="#e6e6e6"/>
  </linearGradient>
  <linearGradient inkscape:collect="always" id="linearGradient3952">
   <stop id="stop3954"/>
   <stop offset="1" id="stop3956" stop-opacity="0"/>
  </linearGradient>
  <linearGradient inkscape:collect="always" xlink:href="#linearGradient3960" id="linearGradient4733" gradientUnits="userSpaceOnUse" gradientTransform="translate(-8,2.999999)" y1="45" x2="0" y2="42"/>
  <linearGradient id="linearGradient3960">
   <stop id="stop3962" stop-opacity="0"/>
   <stop id="stop3970" offset="0.5"/>
   <stop offset="1" id="stop3964" stop-opacity="0"/>
  </linearGradient>
  <linearGradient inkscape:collect="always" xlink:href="#linearGradient3413" id="linearGradient3903" x1="2.5" x2="29.5" gradientUnits="userSpaceOnUse" gradientTransform="matrix(0,-1,1,0,0,32)"/>
  <linearGradient inkscape:collect="always" xlink:href="#linearGradient3960" id="linearGradient3921" gradientUnits="userSpaceOnUse" gradientTransform="translate(-7,-14.000001)" y1="45" x2="0" y2="42"/>
  <radialGradient inkscape:collect="always" xlink:href="#linearGradient3952" id="radialGradient3924" gradientUnits="userSpaceOnUse" gradientTransform="matrix(1,0,0,0.75,-6,-3.125001)" cx="9" cy="43.5" r="2"/>
  <radialGradient inkscape:collect="always" xlink:href="#linearGradient3952" id="radialGradient3927" gradientUnits="userSpaceOnUse" gradientTransform="matrix(1,0,0,0.75,-11,-3.125001)" cx="40" cy="43.5" r="2"/>
  <linearGradient inkscape:collect="always" xlink:href="#outerBackgroundGradient-7" id="linearGradient4936" gradientUnits="userSpaceOnUse" gradientTransform="matrix(0.91666667,0,0,0.91666667,-274.91793,-218.1222)" y1="267.27" x2="0" y2="234.55"/>
  <linearGradient id="outerBackgroundGradient-7">
   <stop id="stop3864-8-6-3" stop-color="#dddddd"/>
   <stop offset="1" id="stop3866-9-1-2" stop-color="#f2f2f2"/>
  </linearGradient>
  <linearGradient inkscape:collect="always" xlink:href="#linearGradient4084" id="linearGradient4932" gradientUnits="userSpaceOnUse" gradientTransform="matrix(0.91666667,0,0,0.91666667,-274.91793,-218.1222)" y1="234.55" x2="0" y2="267.27"/>
  <linearGradient id="linearGradient4084">
   <stop id="stop4086" stop-color="#cd5fc2"/>
   <stop offset="1" id="stop4088" stop-color="#9a4993"/>
  </linearGradient>
  <linearGradient inkscape:collect="always" xlink:href="#linearGradient4100" id="linearGradient4930" gradientUnits="userSpaceOnUse" gradientTransform="matrix(0.91666667,0,0,0.91666667,-274.91793,-223.78887)" y1="240.73" x2="0" y2="272.36"/>
  <linearGradient id="linearGradient4100">
   <stop id="stop4102" stop-color="#aaaaaa"/>
   <stop id="stop4104" offset="1" stop-color="#767676"/>
  </linearGradient>
  <linearGradient inkscape:collect="always" xlink:href="#linearGradient5618" id="linearGradient4083" x1="-1023.86" x2="-984.86" gradientUnits="userSpaceOnUse" gradientTransform="translate(980.3622,784)"/>
  <linearGradient id="linearGradient5618">
   <stop id="stop5620" stop-color="#3e3e3e"/>
   <stop offset="1" id="stop5622" stop-color="#595959"/>
  </linearGradient>
  <linearGradient x2="-984.86" x1="-1023.86" gradientTransform="translate(998.52515,772.82144)" gradientUnits="userSpaceOnUse" id="linearGradient3075" xlink:href="#linearGradient5618" inkscape:collect="always"/>
  <linearGradient inkscape:collect="always" xlink:href="#linearGradient5618" id="linearGradient3849" gradientUnits="userSpaceOnUse" gradientTransform="matrix(0,-1,1,0,0,32)" x1="2.5" x2="29.5"/>
  <linearGradient inkscape:collect="always" xlink:href="#linearGradient3851" id="linearGradient3857" x1="3" x2="29" gradientUnits="userSpaceOnUse" gradientTransform="matrix(0,1,-1,0,32,0)"/>
 </defs>
 <metadata id="metadata4253"/>
 <g inkscape:groupmode="layer" id="layer1" inkscape:label="Background">
  <g id="g3930">
   <path inkscape:connector-curvature="0" id="rect3940" d="m 29,27.999999 0,3 0.5,0 c 0.831,0 1.5,-0.669 1.5,-1.5 0,-0.831 -0.669,-1.5 -1.5,-1.5 l -0.5,0 z" opacity="0.3" fill="url(#radialGradient3927)"/>
   <path inkscape:connector-curvature="0" id="rect3942" d="M 2.40625,27.999999 C 1.6271875,27.999999 1,28.627186 1,29.406249 l 0,0.1875 c 0,0.779063 0.6271875,1.40625 1.40625,1.40625 l 0.59375,0 0,-3 -0.59375,0 z" opacity="0.3" fill="url(#radialGradient3924)"/>
   <path sodipodi:nodetypes="ccccc" inkscape:connector-curvature="0" id="rect3938" d="M 2.9998571,27.999999 29,28 l 0,3 -26.0001429,-1e-6 z" opacity="0.3" fill="url(#linearGradient3921)"/>
  </g>
  <path d="M 4 2.5 C 3.1782486 2.5 2.5 3.1782486 2.5 4 L 2.5 28 C 2.5 28.821752 3.1782489 29.5 4 29.5 L 28 29.5 C 28.821751 29.5 29.5 28.821751 29.5 28 L 29.5 4 C 29.5 3.1782489 28.821752 2.5 28 2.5 L 4 2.5 z " id="rect3894" fill="url(#linearGradient3849)" fill-rule="evenodd"/>
  <path d="M 29,4 C 29,3.4373514 28.562649,3 28,3 L 4,3 C 3.437351,3 3,3.4373514 3,4 l 0,24 c 0,0.562649 0.437351,1 1,1 l 24,0 c 0.562649,0 1,-0.437351 1,-1 L 29,4 z M 28,4 28,28 4,28 4,4 28,4 z" id="path3951" inkscape:connector-curvature="0" opacity="0.1" fill="url(#linearGradient3857)" fill-rule="evenodd"/>
  <path id="path3906" d="m -28,2.5 24,0 c 0.831,0 1.5,0.669 1.5,1.5 l 0,24 c 0,0.831 -0.669,1.5 -1.5,1.5 l -24,0 c -0.831,0 -1.5,-0.669 -1.5,-1.5 l 0,-24 c 0,-0.831 0.669,-1.5 1.5,-1.5 z" transform="matrix(0,-1,1,0,0,0)" opacity="0.81" fill="none" fill-rule="evenodd" stroke="#000000"/>
  <path d="M 4 3 C 3.4373514 3 3 3.4373514 3 4 L 3 5 C 3 4.4373514 3.4373514 4 4 4 L 28 4 C 28.562649 4 29 4.4373514 29 5 L 29 4 C 29 3.4373514 28.562649 3 28 3 L 4 3 z " id="path3935" opacity="0.15" fill="#ffffff" fill-rule="evenodd"/>
  <path id="path3949" d="M 4,29 C 3.4373514,29 3,28.562649 3,28 l 0,-1 c 0,0.562649 0.4373514,1 1,1 l 24,0 c 0.562649,0 1,-0.437351 1,-1 l 0,1 c 0,0.562649 -0.437351,1 -1,1 L 4,29 z" inkscape:connector-curvature="0" opacity="0.1" fill="#ffffff" fill-rule="evenodd"/>
 </g>
 <g inkscape:groupmode="layer" id="layer2" inkscape:label="Symbol">
  <g id="g4091" transform="matrix(0.5,0,0,0.5,-142.50715,-107)" opacity="0.2" enable-background="new">
   <rect y="242" x="307" height="2" width="12" id="rect4093" color="#bebebe" stroke-width="2"/>
   <g id="g4095">
    <path d="m 299.08429,227.17685 2.01687,0 0,1.1413 c 0.55749,0.11153 1.07237,0.32794 1.54461,0.64933 0.47878,0.31483 0.91167,0.70508 1.29865,1.17075 l -1.19043,1.50526 c 0,0 -0.35663,-0.45079 -0.52144,-0.65913 -0.13119,-0.15085 -0.30828,-0.29842 -0.53127,-0.44272 -0.21645,-0.14428 -0.44929,-0.24595 -0.69852,-0.30499 l 0,2.96133 c 0.53126,0.17054 1.00022,0.36074 1.40688,0.57063 0.40664,0.20989 0.74442,0.45257 1.01335,0.72803 0.27546,0.27548 0.48206,0.58703 0.61981,0.93464 0.13772,0.34107 0.20659,0.73131 0.2066,1.17076 -10e-6,0.41321 -0.0721,0.81002 -0.21644,1.19043 -0.1443,0.37386 -0.35418,0.71492 -0.62966,1.02319 -0.26891,0.30827 -0.59686,0.5739 -0.98383,0.7969 -0.38698,0.223 -0.82641,0.3837 -1.31832,0.48208 l 0,1.08221 -2.01687,0 0,-1.02318 c -0.61653,-0.105 -1.2101,-0.31155 -1.78073,-0.61982 -0.57062,-0.30826 -1.07894,-0.70836 -1.52494,-1.20027 l 1.2298,-1.73154 0.57066,0.70836 c 0.22301,0.24268 0.45911,0.44928 0.70836,0.61981 0.25579,0.17053 0.55422,0.29188 0.89528,0.36402 l 0,-3.60082 c -0.47879,-0.17709 -0.9084,-0.37386 -1.28881,-0.5903 -0.37386,-0.21644 -0.69197,-0.45584 -0.95432,-0.71819 -0.25579,-0.26892 -0.45256,-0.56406 -0.5903,-0.88545 -0.13773,-0.32794 -0.2066,-0.6854 -0.2066,-1.07239 0,-0.36728 0.0688,-0.71818 0.2066,-1.0527 0.13774,-0.33449 0.33451,-0.6362 0.5903,-0.90511 0.2558,-0.26891 0.56407,-0.49847 0.92481,-0.68869 0.36729,-0.19675 0.77394,-0.34105 1.21994,-0.43288 l 0,-1.17077 m 1.91848,10.99924 c 0.35417,-0.12462 0.63948,-0.3017 0.85593,-0.53127 0.22299,-0.22956 0.33449,-0.53455 0.3345,-0.91496 -10e-6,-0.31482 -0.0984,-0.5903 -0.29515,-0.82643 -0.19021,-0.23611 -0.48864,-0.42632 -0.89528,-0.57061 l 0,2.84327 m -1.8201,-7.95919 c -0.27547,0.0721 -0.49848,0.20005 -0.66899,0.38369 -0.17055,0.18366 -0.25581,0.41978 -0.25581,0.70836 0,0.20989 0.0688,0.42633 0.20661,0.64933 0.13773,0.22301 0.37713,0.39354 0.71819,0.51159 l 0,-2.25297" id="path4097-7" inkscape:connector-curvature="0" sodipodi:nodetypes="ccccccccccccccccsccccscccccccccscccccccccccccsccc"/>
   </g>
  </g>
  <g transform="matrix(0.5,0,0,0.5,-142.50715,-108)" id="g4030" fill="#ffffff" enable-background="new">
   <rect id="rect4032" width="12" height="2" x="307" y="242" color="#bebebe" stroke-width="2"/>
   <g id="g4034">
    <path sodipodi:nodetypes="ccccccccccccccccsccccscccccccccscccccccccccccsccc" inkscape:connector-curvature="0" id="path4036" d="m 299.08429,227.17685 2.01687,0 0,1.1413 c 0.55749,0.11153 1.07237,0.32794 1.54461,0.64933 0.47878,0.31483 0.91167,0.70508 1.29865,1.17075 l -1.19043,1.50526 c 0,0 -0.35663,-0.45079 -0.52144,-0.65913 -0.13119,-0.15085 -0.30828,-0.29842 -0.53127,-0.44272 -0.21645,-0.14428 -0.44929,-0.24595 -0.69852,-0.30499 l 0,2.96133 c 0.53126,0.17054 1.00022,0.36074 1.40688,0.57063 0.40664,0.20989 0.74442,0.45257 1.01335,0.72803 0.27546,0.27548 0.48206,0.58703 0.61981,0.93464 0.13772,0.34107 0.20659,0.73131 0.2066,1.17076 -10e-6,0.41321 -0.0721,0.81002 -0.21644,1.19043 -0.1443,0.37386 -0.35418,0.71492 -0.62966,1.02319 -0.26891,0.30827 -0.59686,0.5739 -0.98383,0.7969 -0.38698,0.223 -0.82641,0.3837 -1.31832,0.48208 l 0,1.08221 -2.01687,0 0,-1.02318 c -0.61653,-0.105 -1.2101,-0.31155 -1.78073,-0.61982 -0.57062,-0.30826 -1.07894,-0.70836 -1.52494,-1.20027 l 1.2298,-1.73154 0.57066,0.70836 c 0.22301,0.24268 0.45911,0.44928 0.70836,0.61981 0.25579,0.17053 0.55422,0.29188 0.89528,0.36402 l 0,-3.60082 c -0.47879,-0.17709 -0.9084,-0.37386 -1.28881,-0.5903 -0.37386,-0.21644 -0.69197,-0.45584 -0.95432,-0.71819 -0.25579,-0.26892 -0.45256,-0.56406 -0.5903,-0.88545 -0.13773,-0.32794 -0.2066,-0.6854 -0.2066,-1.07239 0,-0.36728 0.0688,-0.71818 0.2066,-1.0527 0.13774,-0.33449 0.33451,-0.6362 0.5903,-0.90511 0.2558,-0.26891 0.56407,-0.49847 0.92481,-0.68869 0.36729,-0.19675 0.77394,-0.34105 1.21994,-0.43288 l 0,-1.17077 m 1.91848,10.99924 c 0.35417,-0.12462 0.63948,-0.3017 0.85593,-0.53127 0.22299,-0.22956 0.33449,-0.53455 0.3345,-0.91496 -10e-6,-0.31482 -0.0984,-0.5903 -0.29515,-0.82643 -0.19021,-0.23611 -0.48864,-0.42632 -0.89528,-0.57061 l 0,2.84327 m -1.8201,-7.95919 c -0.27547,0.0721 -0.49848,0.20005 -0.66899,0.38369 -0.17055,0.18366 -0.25581,0.41978 -0.25581,0.70836 0,0.20989 0.0688,0.42633 0.20661,0.64933 0.13773,0.22301 0.37713,0.39354 0.71819,0.51159 l 0,-2.25297"/>
   </g>
  </g>
 </g>
</svg>
