<?xml version="1.0" encoding="UTF-8" standalone="no"?>
<!-- Created with Inkscape (http://www.inkscape.org/) -->

<svg
   xmlns:dc="http://purl.org/dc/elements/1.1/"
   xmlns:cc="http://creativecommons.org/ns#"
   xmlns:rdf="http://www.w3.org/1999/02/22-rdf-syntax-ns#"
   xmlns:svg="http://www.w3.org/2000/svg"
   xmlns="http://www.w3.org/2000/svg"
   xmlns:xlink="http://www.w3.org/1999/xlink"
   xmlns:sodipodi="http://sodipodi.sourceforge.net/DTD/sodipodi-0.dtd"
   xmlns:inkscape="http://www.inkscape.org/namespaces/inkscape"
   version="1.1"
   width="16"
   height="16"
   id="svg4060"
   inkscape:version="0.48.4 r9939"
   sodipodi:docname="system-error.svg">
  <sodipodi:namedview
     pagecolor="#ffffff"
     bordercolor="#666666"
     borderopacity="1"
     objecttolerance="10"
     gridtolerance="10"
     guidetolerance="10"
     inkscape:pageopacity="0"
     inkscape:pageshadow="2"
     inkscape:window-width="1364"
     inkscape:window-height="700"
     id="namedview28"
     showgrid="false"
     showborder="false"
     inkscape:zoom="1"
     inkscape:cx="8.5910909"
     inkscape:cy="8.4687278"
     inkscape:window-x="0"
     inkscape:window-y="28"
     inkscape:window-maximized="1"
     inkscape:current-layer="layer1">
    <inkscape:grid
       type="xygrid"
       id="grid3838" />
  </sodipodi:namedview>
  <defs
     id="defs4062">
    <linearGradient
       id="linearGradient5618">
      <stop
         style="stop-color:#3e3e3e;stop-opacity:1;"
         offset="0"
         id="stop5620" />
      <stop
         style="stop-color:#595959;stop-opacity:1;"
         offset="1"
         id="stop5622" />
    </linearGradient>
    <linearGradient
       id="outerBackgroundGradient-10">
      <stop
         style="stop-color:#e35000;stop-opacity:1;"
         offset="0"
         id="stop3864-8-6-9" />
      <stop
         style="stop-color:#ff8721;stop-opacity:1;"
         offset="1"
         id="stop3866-9-1-81" />
    </linearGradient>
    <linearGradient
       inkscape:collect="always"
       xlink:href="#outerBackgroundGradient-0"
       id="linearGradient4041"
       gradientUnits="userSpaceOnUse"
       x1="8"
       y1="16"
       x2="8"
       y2="0" />
    <linearGradient
       id="outerBackgroundGradient">
      <stop
         style="stop-color:#bd251d;stop-opacity:1;"
         offset="0"
         id="stop3864-8-6" />
      <stop
         style="stop-color:#e22c1e;stop-opacity:1;"
         offset="1"
         id="stop3866-9-1" />
    </linearGradient>
    <linearGradient
       inkscape:collect="always"
       xlink:href="#outerBackgroundGradient-0"
       id="linearGradient4343"
       gradientUnits="userSpaceOnUse"
       gradientTransform="matrix(0,-1,-1,0,-784,-980.3622)"
       x1="-1023.8622"
       y1="-808"
       x2="-984.86218"
       y2="-808" />
    <linearGradient
       id="outerBackgroundGradient-0">
      <stop
         style="stop-color:#3f3f3f;stop-opacity:1;"
         offset="0"
         id="stop3864-8-6-9-4" />
      <stop
         id="stop4668"
         offset="0.5"
         style="stop-color:#595959;stop-opacity:1;" />
      <stop
         id="stop4666"
         offset="0.5"
         style="stop-color:#3f3f3f;stop-opacity:1;" />
      <stop
         style="stop-color:#595959;stop-opacity:1;"
         offset="1"
         id="stop3866-9-1-6" />
    </linearGradient>
    <linearGradient
       y2="-808"
       x2="-984.86218"
       y1="-808"
       x1="-1023.8622"
       gradientTransform="matrix(0,-1,-1,0,-791.83274,-970.78072)"
       gradientUnits="userSpaceOnUse"
       id="linearGradient3066"
       xlink:href="#outerBackgroundGradient-0"
       inkscape:collect="always" />
    <linearGradient
       inkscape:collect="always"
       xlink:href="#outerBackgroundGradient-0"
       id="linearGradient4115"
       gradientUnits="userSpaceOnUse"
       x1="8"
       y1="16"
       x2="8"
       y2="0" />
    <linearGradient
       inkscape:collect="always"
       xlink:href="#outerBackgroundGradient-0"
       id="linearGradient4121"
       gradientUnits="userSpaceOnUse"
       x1="8"
       y1="16"
       x2="8"
       y2="0" />
    <linearGradient
       inkscape:collect="always"
       xlink:href="#linearGradient4163"
       id="linearGradient4347"
       gradientUnits="userSpaceOnUse"
       gradientTransform="matrix(0,-1,-1,0,-784,-980.3622)"
       x1="-1023.8622"
       y1="-808"
       x2="-984.86218"
       y2="-808" />
    <linearGradient
       id="linearGradient4163">
      <stop
         id="stop4165"
         offset="0"
         style="stop-color:#f55c11;stop-opacity:1;" />
      <stop
         style="stop-color:#ff8431;stop-opacity:1;"
         offset="0.5"
         id="stop4672" />
      <stop
         style="stop-color:#ee7d1a;stop-opacity:1;"
         offset="1"
         id="stop4670" />
    </linearGradient>
    <linearGradient
       y2="-808"
       x2="-984.86218"
       y1="-808"
       x1="-1023.8622"
       gradientTransform="matrix(0,-1,-1,0,-770,-981.3622)"
       gradientUnits="userSpaceOnUse"
       id="linearGradient3084"
       xlink:href="#linearGradient4163"
       inkscape:collect="always" />
    <linearGradient
       inkscape:collect="always"
       xlink:href="#linearGradient4163"
       id="linearGradient4143"
       gradientUnits="userSpaceOnUse"
       x1="8"
       y1="16"
       x2="8"
       y2="0" />
    <linearGradient
       inkscape:collect="always"
       xlink:href="#linearGradient4163-7"
       id="linearGradient4377"
       gradientUnits="userSpaceOnUse"
       gradientTransform="matrix(0,-1,1,0,276,572)"
       x1="417"
       y1="148"
       x2="431"
       y2="148" />
    <linearGradient
       id="linearGradient4163-7">
      <stop
         id="stop4165-3"
         offset="0"
         style="stop-color:#f55c11;stop-opacity:1;" />
      <stop
         style="stop-color:#ff8431;stop-opacity:1;"
         offset="0.5"
         id="stop4672-3" />
      <stop
         style="stop-color:#ee7d1a;stop-opacity:1;"
         offset="1"
         id="stop4670-2" />
    </linearGradient>
    <linearGradient
       y2="148"
       x2="431"
       y1="148"
       x1="417"
       gradientTransform="matrix(0,-1,1,0,452.57812,624.75)"
       gradientUnits="userSpaceOnUse"
       id="linearGradient3217"
       xlink:href="#linearGradient4163-7"
       inkscape:collect="always" />
  </defs>
  <metadata
     id="metadata4065">
    <rdf:RDF>
      <cc:Work
         rdf:about="">
        <dc:format>image/svg+xml</dc:format>
        <dc:type
           rdf:resource="http://purl.org/dc/dcmitype/StillImage" />
        <dc:title></dc:title>
      </cc:Work>
    </rdf:RDF>
  </metadata>
  <g
     inkscape:groupmode="layer"
     id="layer1"
     inkscape:label="Background">
    <path
       style="color:#000000;fill:url(#linearGradient4115);fill-opacity:1;fill-rule:nonzero;stroke:none;stroke-width:0.99999994000000003;marker:none;visibility:visible;display:inline;overflow:visible;enable-background:accumulate"
       d="M 1.65625 0.5 C 1.0170192 0.5 0.5 1.0170192 0.5 1.65625 L 0.5 14.34375 C 0.5 14.982981 1.0170192 15.5 1.65625 15.5 L 8 15.5 L 8 8 L 15.5 8 L 15.5 1.65625 C 15.5 1.0170192 14.982981 0.5 14.34375 0.5 L 1.65625 0.5 z "
       id="rect4113" />
    <path
       style="color:#000000;fill:url(#linearGradient4143);fill-opacity:1;fill-rule:nonzero;stroke:none;stroke-width:0.99999994000000003;marker:none;visibility:visible;display:inline;overflow:visible;enable-background:accumulate"
       d="M 8 8 L 8 15.5 L 14.34375 15.5 C 14.982981 15.5 15.5 14.982981 15.5 14.34375 L 15.5 8 L 8 8 z "
       id="rect5505-21-7" />
    <rect
       width="15"
       height="15"
       rx="1.1538461"
       ry="1.1538461"
       x="0.50437498"
       y="0.5"
       id="rect3018"
       style="color:#000000;fill:none;fill-opacity:1;fill-rule:nonzero;stroke:#000000;stroke-width:0.99999994000000003;marker:none;visibility:visible;display:inline;overflow:visible;enable-background:accumulate;stroke-opacity:1;opacity:0.60999999999999999" />
    <path
       style="color:#000000;fill:#ffffff;fill-opacity:1;fill-rule:nonzero;stroke:none;stroke-width:0.99999994000000003;marker:none;visibility:visible;display:inline;overflow:visible;enable-background:accumulate;opacity:0.1"
       d="M 1.65625 1 C 1.2853706 1 1 1.2853706 1 1.65625 L 1 2.65625 C 1 2.2853706 1.2853706 2 1.65625 2 L 14.34375 2 C 14.714629 2 15 2.2853706 15 2.65625 L 15 1.65625 C 15 1.2853706 14.714629 1 14.34375 1 L 1.65625 1 z "
       id="rect3788" />
    <path
       style="color:#000000;fill:#ffffff;fill-opacity:1;fill-rule:nonzero;stroke:none;stroke-width:0.99999994000000003;marker:none;visibility:visible;display:inline;overflow:visible;enable-background:accumulate;opacity:0.1"
       d="M 1.625 0.96875 C 1.4304403 0.96875 1.3061436 1.0592879 1.1875 1.1875 C 1.0799793 1.3036922 0.96875 1.4486805 0.96875 1.625 L 0.96875 14.3125 C 0.96875 14.683379 1.2541206 14.9375 1.625 14.9375 L 2.625 14.9375 C 2.2541206 14.9375 2 14.683379 2 14.3125 L 2 9 L 7 9 L 7 8 L 2 8 L 2 2 L 8 2 L 8 7 L 9 7 L 9 2 L 14.34375 2 C 14.714629 2 15 2.2853706 15 2.65625 L 15 1.65625 C 15 1.2853706 14.714629 1 14.34375 1 L 9 1 L 8 1 L 2.375 1 C 2.4539084 0.96745149 2.5322802 0.96875 2.625 0.96875 L 1.625 0.96875 z M 8 8 L 8 9 L 8 15 L 9 15 L 9 9 L 15 9 L 15 8 L 9 8 L 8 8 z "
       id="path4224" />
    <path
       id="path3805"
       d="M 1.78125,16 C 1.4103706,16 1.125,15.714629 1.125,15.34375 l 0,-1 C 1.125,14.714629 1.4103706,15 1.78125,15 l 12.6875,0 c 0.370879,0 0.65625,-0.285371 0.65625,-0.65625 l 0,1 C 15.125,15.714629 14.839629,16 14.46875,16 l -12.6875,0 z"
       style="opacity:0.3;color:#000000;fill:#000000;fill-opacity:1;fill-rule:nonzero;stroke:none;stroke-width:0.99999994000000003;marker:none;visibility:visible;display:inline;overflow:visible;enable-background:accumulate"
       inkscape:connector-curvature="0" />
  </g>
  <g
     inkscape:groupmode="layer"
     id="layer2"
     inkscape:label="Symbol"
     style="display:inline">
    <path
       id="path4435"
       d="m 10,11.00025 0,1 3,0 0,-1 z m 0,2 0,1 3,0 0,-1 z"
       style="opacity:0.2;color:#000000;fill:#000000;fill-opacity:1;fill-rule:nonzero;stroke:none;stroke-width:2;marker:none;visibility:visible;display:inline;overflow:visible;enable-background:new"
       inkscape:connector-curvature="0"
       sodipodi:nodetypes="cccccccccc" />
    <path
       style="opacity:0.2;color:#000000;fill:#000000;fill-opacity:1;fill-rule:nonzero;stroke:none;stroke-width:2;marker:none;visibility:visible;display:inline;overflow:visible;enable-background:new"
       d="m 10.000005,5.000244 3,0 0,1 -3,0 z"
       id="rect4437"
       inkscape:connector-curvature="0"
       sodipodi:nodetypes="ccccc" />
    <path
       id="path4439"
       d="m 4,4.00025 0,1 -1,0 0,1 1,0 0,1 1,0 0,-1 1,0 0,-1 -1,0 0,-1 z"
       style="opacity:0.2;color:#000000;fill:#000000;fill-opacity:1;fill-rule:nonzero;stroke:none;stroke-width:2;marker:none;visibility:visible;display:inline;overflow:visible;enable-background:new"
       inkscape:connector-curvature="0"
       sodipodi:nodetypes="ccccccccccccc" />
    <path
       id="path4441"
       d="M 3.34375,10.6565 2.65625,11.344 3.8125,12.50025 2.65625,13.6565 3.34375,14.344 4.5,13.18775 5.65625,14.344 6.34375,13.6565 5.1875,12.50025 6.34375,11.344 5.65625,10.6565 4.5,11.81275 z"
       style="font-size:medium;font-style:normal;font-variant:normal;font-weight:normal;font-stretch:normal;text-indent:0;text-align:start;text-decoration:none;line-height:normal;letter-spacing:normal;word-spacing:normal;text-transform:none;direction:ltr;block-progression:tb;writing-mode:lr-tb;text-anchor:start;baseline-shift:baseline;opacity:0.2;color:#000000;fill:#000000;fill-opacity:1;stroke:none;stroke-width:1;marker:none;visibility:visible;display:inline;overflow:visible;enable-background:new;font-family:Sans;-inkscape-font-specification:Sans"
       inkscape:connector-curvature="0"
       sodipodi:nodetypes="ccccccccccccc" />
    <path
       inkscape:connector-curvature="0"
       style="color:#000000;fill:#ffffff;fill-opacity:1;fill-rule:nonzero;stroke:none;stroke-width:2;marker:none;visibility:visible;display:inline;overflow:visible;enable-background:new"
       d="m 10,10 0,1 3,0 0,-1 z m 0,2 0,1 3,0 0,-1 z"
       id="rect4434"
       sodipodi:nodetypes="cccccccccc" />
    <path
       style="color:#000000;fill:#ffffff;fill-opacity:1;fill-rule:nonzero;stroke:none;stroke-width:2;marker:none;visibility:visible;display:inline;overflow:visible;enable-background:new"
       d="m 10.000005,3.9999999 3,0 0,1 -3,0 z"
       id="rect4438"
       inkscape:connector-curvature="0"
       sodipodi:nodetypes="ccccc" />
    <path
       inkscape:connector-curvature="0"
       style="color:#000000;fill:#ffffff;fill-opacity:1;fill-rule:nonzero;stroke:none;stroke-width:2;marker:none;visibility:visible;display:inline;overflow:visible;enable-background:new"
       d="M 4,3 4,4 3,4 3,5 4,5 4,6 5,6 5,5 6,5 6,4 5,4 5,3 z"
       id="rect4442"
       sodipodi:nodetypes="ccccccccccccc" />
    <path
       inkscape:connector-curvature="0"
       style="font-size:medium;font-style:normal;font-variant:normal;font-weight:normal;font-stretch:normal;text-indent:0;text-align:start;text-decoration:none;line-height:normal;letter-spacing:normal;word-spacing:normal;text-transform:none;direction:ltr;block-progression:tb;writing-mode:lr-tb;text-anchor:start;baseline-shift:baseline;color:#000000;fill:#ffffff;fill-opacity:1;stroke:none;stroke-width:1;marker:none;visibility:visible;display:inline;overflow:visible;enable-background:new;font-family:Sans;-inkscape-font-specification:Sans"
       d="M 3.34375,9.65625 2.65625,10.34375 3.8125,11.5 2.65625,12.65625 3.34375,13.34375 4.5,12.1875 5.65625,13.34375 6.34375,12.65625 5.1875,11.5 6.34375,10.34375 5.65625,9.65625 4.5,10.8125 z"
       id="path4448"
       sodipodi:nodetypes="ccccccccccccc" />
    <path
       style="opacity:0.2;fill:#000000;fill-opacity:1;stroke:none"
       d="M 7 1 L 7 7 L 1 7 L 1 8 L 7 8 L 7 15 L 8 15 L 8 8 L 15 8 L 15 7 L 8 7 L 8 1 L 7 1 z "
       id="rect4209" />
  </g>
</svg>
