<?xml version="1.0" encoding="UTF-8" standalone="no"?>
<svg
   xmlns:dc="http://purl.org/dc/elements/1.1/"
   xmlns:cc="http://creativecommons.org/ns#"
   xmlns:rdf="http://www.w3.org/1999/02/22-rdf-syntax-ns#"
   xmlns:svg="http://www.w3.org/2000/svg"
   xmlns="http://www.w3.org/2000/svg"
   xmlns:xlink="http://www.w3.org/1999/xlink"
   id="svg4060"
   height="16"
   width="16"
   version="1.1">
  <defs
     id="defs4062">
    <linearGradient
       id="outerBackgroundGradient-0">
      <stop
         id="stop3864-8-6-9-4"
         offset="0"
         style="stop-color:#3f3f3f;stop-opacity:1;" />
      <stop
         style="stop-color:#595959;stop-opacity:1;"
         offset="0.5"
         id="stop4668" />
      <stop
         style="stop-color:#3f3f3f;stop-opacity:1;"
         offset="0.5"
         id="stop4666" />
      <stop
         id="stop3866-9-1-6"
         offset="1"
         style="stop-color:#595959;stop-opacity:1;" />
    </linearGradient>
    <linearGradient
       y2="0"
       x2="8"
       y1="16"
       x1="8"
       gradientUnits="userSpaceOnUse"
       id="linearGradient4115"
       xlink:href="#outerBackgroundGradient-0" />
    <linearGradient
       id="linearGradient4163">
      <stop
         style="stop-color:#f55c11;stop-opacity:1;"
         offset="0"
         id="stop4165" />
      <stop
         id="stop4672"
         offset="0.5"
         style="stop-color:#ff8431;stop-opacity:1;" />
      <stop
         id="stop4670"
         offset="1"
         style="stop-color:#ee7d1a;stop-opacity:1;" />
    </linearGradient>
    <linearGradient
       y2="0"
       x2="8"
       y1="16"
       x1="8"
       gradientUnits="userSpaceOnUse"
       id="linearGradient4143"
       xlink:href="#linearGradient4163" />
  </defs>
  <metadata
     id="metadata4065">
    <rdf:RDF>
      <cc:Work
         rdf:about="">
        <dc:format>image/svg+xml</dc:format>
        <dc:type
           rdf:resource="http://purl.org/dc/dcmitype/StillImage" />
        <dc:title />
      </cc:Work>
    </rdf:RDF>
  </metadata>
  <g
     id="layer1">
    <path
       id="rect4113"
       d="M 1.65625 0.5 C 1.0170192 0.5 0.5 1.0170192 0.5 1.65625 L 0.5 14.34375 C 0.5 14.982981 1.0170192 15.5 1.65625 15.5 L 8 15.5 L 8 8 L 15.5 8 L 15.5 1.65625 C 15.5 1.0170192 14.982981 0.5 14.34375 0.5 L 1.65625 0.5 z "
       style="color:#000000;fill:url(#linearGradient4115);fill-opacity:1;fill-rule:nonzero;stroke:none;stroke-width:0.99999994000000003;marker:none;visibility:visible;display:inline;overflow:visible;enable-background:accumulate" />
    <path
       id="rect5505-21-7"
       d="M 8 8 L 8 15.5 L 14.34375 15.5 C 14.982981 15.5 15.5 14.982981 15.5 14.34375 L 15.5 8 L 8 8 z "
       style="color:#000000;fill:url(#linearGradient4143);fill-opacity:1;fill-rule:nonzero;stroke:none;stroke-width:0.99999994000000003;marker:none;visibility:visible;display:inline;overflow:visible;enable-background:accumulate" />
    <rect
       style="color:#000000;fill:none;fill-opacity:1;fill-rule:nonzero;stroke:#000000;stroke-width:0.99999994000000003;marker:none;visibility:visible;display:inline;overflow:visible;enable-background:accumulate;stroke-opacity:1;opacity:0.60999999999999999"
       id="rect3018"
       y="0.5"
       x="0.50437498"
       ry="1.1538461"
       rx="1.1538461"
       height="15"
       width="15" />
    <path
       id="rect3788"
       d="M 1.65625 1 C 1.2853706 1 1 1.2853706 1 1.65625 L 1 2.65625 C 1 2.2853706 1.2853706 2 1.65625 2 L 14.34375 2 C 14.714629 2 15 2.2853706 15 2.65625 L 15 1.65625 C 15 1.2853706 14.714629 1 14.34375 1 L 1.65625 1 z "
       style="color:#000000;fill:#ffffff;fill-opacity:1;fill-rule:nonzero;stroke:none;stroke-width:0.99999994000000003;marker:none;visibility:visible;display:inline;overflow:visible;enable-background:accumulate;opacity:0.1" />
    <path
       id="path4224"
       d="M 1.625 0.96875 C 1.4304403 0.96875 1.3061436 1.0592879 1.1875 1.1875 C 1.0799793 1.3036922 0.96875 1.4486805 0.96875 1.625 L 0.96875 14.3125 C 0.96875 14.683379 1.2541206 14.9375 1.625 14.9375 L 2.625 14.9375 C 2.2541206 14.9375 2 14.683379 2 14.3125 L 2 9 L 7 9 L 7 8 L 2 8 L 2 2 L 8 2 L 8 7 L 9 7 L 9 2 L 14.34375 2 C 14.714629 2 15 2.2853706 15 2.65625 L 15 1.65625 C 15 1.2853706 14.714629 1 14.34375 1 L 9 1 L 8 1 L 2.375 1 C 2.4539084 0.96745149 2.5322802 0.96875 2.625 0.96875 L 1.625 0.96875 z M 8 8 L 8 9 L 8 15 L 9 15 L 9 9 L 15 9 L 15 8 L 9 8 L 8 8 z "
       style="color:#000000;fill:#ffffff;fill-opacity:1;fill-rule:nonzero;stroke:none;stroke-width:0.99999994000000003;marker:none;visibility:visible;display:inline;overflow:visible;enable-background:accumulate;opacity:0.1" />
    <path
       style="opacity:0.3;color:#000000;fill:#000000;fill-opacity:1;fill-rule:nonzero;stroke:none;stroke-width:0.99999994000000003;marker:none;visibility:visible;display:inline;overflow:visible;enable-background:accumulate"
       d="M 1.78125,16 C 1.4103706,16 1.125,15.714629 1.125,15.34375 l 0,-1 C 1.125,14.714629 1.4103706,15 1.78125,15 l 12.6875,0 c 0.370879,0 0.65625,-0.285371 0.65625,-0.65625 l 0,1 C 15.125,15.714629 14.839629,16 14.46875,16 l -12.6875,0 z"
       id="path3805" />
  </g>
  <g
     style="display:inline"
     id="layer2">
    <path
       style="opacity:0.2;color:#000000;fill:#000000;fill-opacity:1;fill-rule:nonzero;stroke:none;stroke-width:2;marker:none;visibility:visible;display:inline;overflow:visible;enable-background:new"
       d="m 10,11.00025 0,1 3,0 0,-1 z m 0,2 0,1 3,0 0,-1 z"
       id="path4435" />
    <path
       id="rect4437"
       d="m 10.000005,5.000244 3,0 0,1 -3,0 z"
       style="opacity:0.2;color:#000000;fill:#000000;fill-opacity:1;fill-rule:nonzero;stroke:none;stroke-width:2;marker:none;visibility:visible;display:inline;overflow:visible;enable-background:new" />
    <path
       style="opacity:0.2;color:#000000;fill:#000000;fill-opacity:1;fill-rule:nonzero;stroke:none;stroke-width:2;marker:none;visibility:visible;display:inline;overflow:visible;enable-background:new"
       d="m 4,4.00025 0,1 -1,0 0,1 1,0 0,1 1,0 0,-1 1,0 0,-1 -1,0 0,-1 z"
       id="path4439" />
    <path
       style="font-size:medium;font-style:normal;font-variant:normal;font-weight:normal;font-stretch:normal;text-indent:0;text-align:start;text-decoration:none;line-height:normal;letter-spacing:normal;word-spacing:normal;text-transform:none;direction:ltr;block-progression:tb;writing-mode:lr-tb;text-anchor:start;baseline-shift:baseline;opacity:0.2;color:#000000;fill:#000000;fill-opacity:1;stroke:none;stroke-width:1;marker:none;visibility:visible;display:inline;overflow:visible;enable-background:new;font-family:Sans;-inkscape-font-specification:Sans"
       d="M 3.34375,10.6565 2.65625,11.344 3.8125,12.50025 2.65625,13.6565 3.34375,14.344 4.5,13.18775 5.65625,14.344 6.34375,13.6565 5.1875,12.50025 6.34375,11.344 5.65625,10.6565 4.5,11.81275 z"
       id="path4441" />
    <path
       id="rect4434"
       d="m 10,10 0,1 3,0 0,-1 z m 0,2 0,1 3,0 0,-1 z"
       style="color:#000000;fill:#ffffff;fill-opacity:1;fill-rule:nonzero;stroke:none;stroke-width:2;marker:none;visibility:visible;display:inline;overflow:visible;enable-background:new" />
    <path
       id="rect4438"
       d="m 10.000005,3.9999999 3,0 0,1 -3,0 z"
       style="color:#000000;fill:#ffffff;fill-opacity:1;fill-rule:nonzero;stroke:none;stroke-width:2;marker:none;visibility:visible;display:inline;overflow:visible;enable-background:new" />
    <path
       id="rect4442"
       d="M 4,3 4,4 3,4 3,5 4,5 4,6 5,6 5,5 6,5 6,4 5,4 5,3 z"
       style="color:#000000;fill:#ffffff;fill-opacity:1;fill-rule:nonzero;stroke:none;stroke-width:2;marker:none;visibility:visible;display:inline;overflow:visible;enable-background:new" />
    <path
       id="path4448"
       d="M 3.34375,9.65625 2.65625,10.34375 3.8125,11.5 2.65625,12.65625 3.34375,13.34375 4.5,12.1875 5.65625,13.34375 6.34375,12.65625 5.1875,11.5 6.34375,10.34375 5.65625,9.65625 4.5,10.8125 z"
       style="font-size:medium;font-style:normal;font-variant:normal;font-weight:normal;font-stretch:normal;text-indent:0;text-align:start;text-decoration:none;line-height:normal;letter-spacing:normal;word-spacing:normal;text-transform:none;direction:ltr;block-progression:tb;writing-mode:lr-tb;text-anchor:start;baseline-shift:baseline;color:#000000;fill:#ffffff;fill-opacity:1;stroke:none;stroke-width:1;marker:none;visibility:visible;display:inline;overflow:visible;enable-background:new;font-family:Sans;-inkscape-font-specification:Sans" />
    <path
       id="rect4209"
       d="M 7 1 L 7 7 L 1 7 L 1 8 L 7 8 L 7 15 L 8 15 L 8 8 L 15 8 L 15 7 L 8 7 L 8 1 L 7 1 z "
       style="opacity:0.2;fill:#000000;fill-opacity:1;stroke:none" />
  </g>
</svg>
