<?xml version="1.0" encoding="UTF-8" standalone="no"?>
<svg xmlns="http://www.w3.org/2000/svg" xmlns:xlink="http://www.w3.org/1999/xlink" xmlns:sodipodi="http://sodipodi.sourceforge.net/DTD/sodipodi-0.dtd" xmlns:inkscape="http://www.inkscape.org/namespaces/inkscape" width="16" height="16" version="1.1">
 <defs id="defs5402">
  <linearGradient inkscape:collect="always" xlink:href="#linearGradient3813" id="linearGradient7546" gradientUnits="userSpaceOnUse" x1="1872" x2="1888" gradientTransform="matrix(0,1,-1,0,140,-1872)"/>
  <linearGradient id="linearGradient3813">
   <stop id="stop3815" stop-color="#3e8292"/>
   <stop offset="1" id="stop3817" stop-color="#133f8f"/>
  </linearGradient>
  <linearGradient inkscape:collect="always" xlink:href="#linearGradient6851" id="linearGradient7045" gradientUnits="userSpaceOnUse" gradientTransform="matrix(0.35135136,0,0,0.35135136,-17.2037,-0.9093)" y1="6.238" x2="0" y2="44.34"/>
  <linearGradient inkscape:collect="always" id="linearGradient6851">
   <stop id="stop6853" stop-color="#ffffff"/>
   <stop offset="1" id="stop6855" stop-color="#ffffff" stop-opacity="0"/>
  </linearGradient>
  <linearGradient inkscape:collect="always" xlink:href="#linearGradient3810" id="linearGradient7048" gradientUnits="userSpaceOnUse" y1="0" x2="0" y2="16"/>
  <linearGradient id="linearGradient6501">
   <stop id="stop6503" stop-color="#44d9ff"/>
   <stop offset="0.643" id="stop7407" stop-color="#4690d1"/>
   <stop id="stop6507" offset="1" stop-color="#4862b1"/>
  </linearGradient>
  <linearGradient inkscape:collect="always" xlink:href="#linearGradient3810" id="linearGradient3816" x1="4.5" x2="43.5" gradientUnits="userSpaceOnUse" gradientTransform="matrix(0,1,-1,0,48.000003,-3e-6)"/>
  <linearGradient id="linearGradient3810">
   <stop id="stop3812" stop-color="#4cc7e0"/>
   <stop offset="1" id="stop3814" stop-color="#2061be"/>
  </linearGradient>
  <linearGradient x2="43.5" x1="4.5" gradientTransform="matrix(0,1,-1,0,163,-7.0000031)" gradientUnits="userSpaceOnUse" id="linearGradient3065" xlink:href="#linearGradient3810" inkscape:collect="always"/>
  <linearGradient inkscape:collect="always" xlink:href="#linearGradient3988" id="linearGradient4203" gradientUnits="userSpaceOnUse" y1="116.26" x2="0" y2="31.773" gradientTransform="matrix(0.18641557,0,0,0.18641557,361.3645,133.82708)"/>
  <linearGradient id="linearGradient3988">
   <stop id="stop3990" stop-color="#eeeeec"/>
   <stop offset="1" id="stop3992" stop-color="#ffffff"/>
  </linearGradient>
 </defs>
 <metadata id="metadata5405"/>
 <g id="layer1" inkscape:label="Layer 1" inkscape:groupmode="layer">
  <path id="path2555-7" inkscape:connector-curvature="0" d="M 8,0.5 C 3.8618,0.5 0.5,3.86176 0.5,8 c 0,4.13824 3.3618,7.5 7.5,7.5 4.1382,0 7.5,-3.36176 7.5,-7.5 C 15.5,3.86176 12.1382,0.5 8,0.5 z" fill="url(#linearGradient7048)" color="#000000"/>
  <path id="path8655-6" inkscape:connector-curvature="0" d="M 14.5,7.99977 C 14.5,11.58974 11.5896,14.5 8.0001,14.5 4.4102,14.5 1.5,11.5897 1.5,7.99977 1.5,4.40997 4.4102,1.5 8.0001,1.5 11.5896,1.5 14.5,4.40997 14.5,7.99977 l 0,0 z" opacity="0.5" fill="none" stroke="url(#linearGradient7045)" stroke-linejoin="round" stroke-linecap="round" color="#000000"/>
  <path d="m 8,15.5 c 4.1382,0 7.5,-3.3618 7.5,-7.5 C 15.5,3.8618 12.1382,0.5 8,0.5 3.8618,0.5 0.5,3.8618 0.5,8 c 0,4.1382 3.3618,7.5 7.5,7.5 z" inkscape:connector-curvature="0" id="path7037" opacity="0.91" fill="none" stroke="url(#linearGradient7546)" stroke-linejoin="round" stroke-linecap="round" color="#000000"/>
  <g id="g4217" transform="translate(-416,-139)" opacity="0.2" enable-background="new">
   <path inkscape:connector-curvature="0" id="path4219" d="m 418,148 2.25,0.75 0,-1.5 z"/>
   <path d="m 430,148 -2.25,0.75 0,-1.5 z" id="path4221" inkscape:connector-curvature="0"/>
   <path d="m 424,142 -0.75,2.25 1.5,0 z" id="path4223" inkscape:connector-curvature="0"/>
   <path inkscape:connector-curvature="0" id="path4225" d="m 424,154 -0.75,-2.25 1.5,0 z"/>
   <path inkscape:connector-curvature="0" id="path4227" d="m 424,144 c -2.20914,0 -4,1.79086 -4,4 0,2.20914 1.79086,4 4,4 2.20913,0 4,-1.79086 4,-4 0,-2.20914 -1.79086,-4 -4,-4 z m 0,1 c 1.65685,0 3,1.34315 3,3 0,1.65685 -1.34315,3 -3,3 -1.65685,0 -3,-1.34315 -3,-3 0,-1.65685 1.34315,-3 3,-3 z" color="#000000" stroke-width="2"/>
   <path inkscape:connector-curvature="0" sodipodi:nodetypes="cccc" id="path4229" d="m 424.65238,148.65238 -1.30476,-1.30476 5.52738,-4.22262 -4.22262,5.52738 z" fill-rule="evenodd"/>
   <path inkscape:connector-curvature="0" d="m 424.65238,148.65238 -1.30476,-1.30476 -4.22262,5.52738 5.52738,-4.22262 z" id="path4231" sodipodi:nodetypes="cccc" fill-rule="evenodd"/>
  </g>
  <g transform="translate(-416,-140)" id="g4208" enable-background="new">
   <path d="m 418,148 2.25,0.75 0,-1.5 z" id="path4048" inkscape:connector-curvature="0" fill="#ffffff"/>
   <path inkscape:connector-curvature="0" id="path4050" d="m 430,148 -2.25,0.75 0,-1.5 z" fill="#ffffff"/>
   <path inkscape:connector-curvature="0" id="path4052" d="m 424,142 -0.75,2.25 1.5,0 z" fill="#ffffff"/>
   <path d="m 424,154 -0.75,-2.25 1.5,0 z" id="path4054" inkscape:connector-curvature="0" fill="#ffffff"/>
   <path d="m 424,144 c -2.20914,0 -4,1.79086 -4,4 0,2.20914 1.79086,4 4,4 2.20913,0 4,-1.79086 4,-4 0,-2.20914 -1.79086,-4 -4,-4 z m 0,1 c 1.65685,0 3,1.34315 3,3 0,1.65685 -1.34315,3 -3,3 -1.65685,0 -3,-1.34315 -3,-3 0,-1.65685 1.34315,-3 3,-3 z" id="path4056" inkscape:connector-curvature="0" fill="#ffffff" color="#000000" stroke-width="2"/>
   <path d="m 424.65238,148.65238 -1.30476,-1.30476 5.52738,-4.22262 -4.22262,5.52738 z" id="path4060" sodipodi:nodetypes="cccc" inkscape:connector-curvature="0" fill="#ef5a5a" fill-rule="evenodd"/>
   <path sodipodi:nodetypes="cccc" id="path4062" d="m 424.65238,148.65238 -1.30476,-1.30476 -4.22262,5.52738 5.52738,-4.22262 z" inkscape:connector-curvature="0" fill="url(#linearGradient4203)" fill-rule="evenodd"/>
  </g>
 </g>
</svg>
