<?xml version="1.0" encoding="UTF-8" standalone="no"?>
<svg
   xmlns:dc="http://purl.org/dc/elements/1.1/"
   xmlns:cc="http://creativecommons.org/ns#"
   xmlns:rdf="http://www.w3.org/1999/02/22-rdf-syntax-ns#"
   xmlns:svg="http://www.w3.org/2000/svg"
   xmlns="http://www.w3.org/2000/svg"
   xmlns:xlink="http://www.w3.org/1999/xlink"
   id="svg2"
   version="1.1"
   height="16"
   width="16">
  <defs
     id="defs5402">
    <linearGradient
       gradientTransform="matrix(0,1,-1,0,140,-1872)"
       x2="1888"
       x1="1872"
       gradientUnits="userSpaceOnUse"
       id="linearGradient7546"
       xlink:href="#linearGradient3813" />
    <linearGradient
       id="linearGradient3813">
      <stop
         stop-color="#3e8292"
         id="stop3815" />
      <stop
         stop-color="#133f8f"
         id="stop3817"
         offset="1" />
    </linearGradient>
    <linearGradient
       y2="44.34"
       x2="0"
       y1="6.238"
       gradientTransform="matrix(0.35135136,0,0,0.35135136,-17.2037,-0.9093)"
       gradientUnits="userSpaceOnUse"
       id="linearGradient7045"
       xlink:href="#linearGradient6851" />
    <linearGradient
       id="linearGradient6851">
      <stop
         stop-color="#ffffff"
         id="stop6853" />
      <stop
         stop-opacity="0"
         stop-color="#ffffff"
         id="stop6855"
         offset="1" />
    </linearGradient>
    <linearGradient
       y2="16"
       x2="0"
       y1="0"
       gradientUnits="userSpaceOnUse"
       id="linearGradient7048"
       xlink:href="#linearGradient3810" />
    <linearGradient
       id="linearGradient3810">
      <stop
         stop-color="#4cc7e0"
         id="stop3812" />
      <stop
         stop-color="#2061be"
         id="stop3814"
         offset="1" />
    </linearGradient>
    <linearGradient
       gradientTransform="matrix(0.18641557,0,0,0.18641557,361.3645,133.82708)"
       y2="31.773"
       x2="0"
       y1="116.26"
       gradientUnits="userSpaceOnUse"
       id="linearGradient4203"
       xlink:href="#linearGradient3988" />
    <linearGradient
       id="linearGradient3988">
      <stop
         stop-color="#eeeeec"
         id="stop3990" />
      <stop
         stop-color="#ffffff"
         id="stop3992"
         offset="1" />
    </linearGradient>
  </defs>
  <metadata
     id="metadata5405">
    <rdf:RDF>
      <cc:Work
         rdf:about="">
        <dc:format>image/svg+xml</dc:format>
        <dc:type
           rdf:resource="http://purl.org/dc/dcmitype/StillImage" />
      </cc:Work>
    </rdf:RDF>
  </metadata>
  <g
     id="layer1">
    <path
       color="#000000"
       fill="url(#linearGradient7048)"
       d="M 8,0.5 C 3.8618,0.5 0.5,3.86176 0.5,8 c 0,4.13824 3.3618,7.5 7.5,7.5 4.1382,0 7.5,-3.36176 7.5,-7.5 C 15.5,3.86176 12.1382,0.5 8,0.5 z"
       id="path2555-7" />
    <path
       color="#000000"
       stroke-linecap="round"
       stroke-linejoin="round"
       stroke="url(#linearGradient7045)"
       fill="none"
       opacity="0.5"
       d="M 14.5,7.99977 C 14.5,11.58974 11.5896,14.5 8.0001,14.5 4.4102,14.5 1.5,11.5897 1.5,7.99977 1.5,4.40997 4.4102,1.5 8.0001,1.5 11.5896,1.5 14.5,4.40997 14.5,7.99977 l 0,0 z"
       id="path8655-6" />
    <path
       color="#000000"
       stroke-linecap="round"
       stroke-linejoin="round"
       stroke="url(#linearGradient7546)"
       fill="none"
       opacity="0.91"
       id="path7037"
       d="m 8,15.5 c 4.1382,0 7.5,-3.3618 7.5,-7.5 C 15.5,3.8618 12.1382,0.5 8,0.5 3.8618,0.5 0.5,3.8618 0.5,8 c 0,4.1382 3.3618,7.5 7.5,7.5 z" />
    <g
       enable-background="new"
       opacity="0.2"
       transform="translate(-416,-139)"
       id="g4217">
      <path
         d="m 418,148 2.25,0.75 0,-1.5 z"
         id="path4219" />
      <path
         id="path4221"
         d="m 430,148 -2.25,0.75 0,-1.5 z" />
      <path
         id="path4223"
         d="m 424,142 -0.75,2.25 1.5,0 z" />
      <path
         d="m 424,154 -0.75,-2.25 1.5,0 z"
         id="path4225" />
      <path
         stroke-width="2"
         color="#000000"
         d="m 424,144 c -2.20914,0 -4,1.79086 -4,4 0,2.20914 1.79086,4 4,4 2.20913,0 4,-1.79086 4,-4 0,-2.20914 -1.79086,-4 -4,-4 z m 0,1 c 1.65685,0 3,1.34315 3,3 0,1.65685 -1.34315,3 -3,3 -1.65685,0 -3,-1.34315 -3,-3 0,-1.65685 1.34315,-3 3,-3 z"
         id="path4227" />
      <path
         fill-rule="evenodd"
         d="m 424.65238,148.65238 -1.30476,-1.30476 5.52738,-4.22262 -4.22262,5.52738 z"
         id="path4229" />
      <path
         fill-rule="evenodd"
         id="path4231"
         d="m 424.65238,148.65238 -1.30476,-1.30476 -4.22262,5.52738 5.52738,-4.22262 z" />
    </g>
    <g
       enable-background="new"
       id="g4208"
       transform="translate(-416,-140)">
      <path
         fill="#ffffff"
         id="path4048"
         d="m 418,148 2.25,0.75 0,-1.5 z" />
      <path
         fill="#ffffff"
         d="m 430,148 -2.25,0.75 0,-1.5 z"
         id="path4050" />
      <path
         fill="#ffffff"
         d="m 424,142 -0.75,2.25 1.5,0 z"
         id="path4052" />
      <path
         fill="#ffffff"
         id="path4054"
         d="m 424,154 -0.75,-2.25 1.5,0 z" />
      <path
         stroke-width="2"
         color="#000000"
         fill="#ffffff"
         id="path4056"
         d="m 424,144 c -2.20914,0 -4,1.79086 -4,4 0,2.20914 1.79086,4 4,4 2.20913,0 4,-1.79086 4,-4 0,-2.20914 -1.79086,-4 -4,-4 z m 0,1 c 1.65685,0 3,1.34315 3,3 0,1.65685 -1.34315,3 -3,3 -1.65685,0 -3,-1.34315 -3,-3 0,-1.65685 1.34315,-3 3,-3 z" />
      <path
         fill-rule="evenodd"
         fill="#ef5a5a"
         id="path4060"
         d="m 424.65238,148.65238 -1.30476,-1.30476 5.52738,-4.22262 -4.22262,5.52738 z" />
      <path
         fill-rule="evenodd"
         fill="url(#linearGradient4203)"
         d="m 424.65238,148.65238 -1.30476,-1.30476 -4.22262,5.52738 5.52738,-4.22262 z"
         id="path4062" />
    </g>
  </g>
</svg>
