<?xml version="1.0" encoding="UTF-8" standalone="no"?>
<svg xmlns="http://www.w3.org/2000/svg" xmlns:xlink="http://www.w3.org/1999/xlink" xmlns:sodipodi="http://sodipodi.sourceforge.net/DTD/sodipodi-0.dtd" xmlns:inkscape="http://www.inkscape.org/namespaces/inkscape" width="16" height="16" version="1.1">
 <defs id="defs5402">
  <linearGradient id="linearGradient3904">
   <stop id="stop3906" stop-color="#1b8810"/>
   <stop id="stop3908" offset="1" stop-color="#1d980e"/>
  </linearGradient>
  <linearGradient inkscape:collect="always" id="linearGradient3804">
   <stop id="stop3806" stop-color="#ffffff"/>
   <stop offset="1" id="stop3808" stop-color="#ffffff" stop-opacity="0"/>
  </linearGradient>
  <linearGradient inkscape:collect="always" xlink:href="#linearGradient3804" id="linearGradient6750" x1="443.5" y1="-178.5" x2="444" y2="-175.5" gradientUnits="userSpaceOnUse" gradientTransform="translate(-433,180.00027)"/>
  <linearGradient inkscape:collect="always" xlink:href="#linearGradient3804" id="linearGradient6736" x1="435" x2="438" gradientUnits="userSpaceOnUse"/>
  <linearGradient inkscape:collect="always" xlink:href="#linearGradient5621" id="linearGradient5956" y1="63.937" x2="0" y2="47.937" gradientUnits="userSpaceOnUse" gradientTransform="translate(-1400.9375,-47.937495)"/>
  <linearGradient id="linearGradient5621">
   <stop id="stop5623" stop-color="#0b0b0b"/>
   <stop offset="1" id="stop5625" stop-color="#585858"/>
  </linearGradient>
  <linearGradient id="linearGradient8589">
   <stop id="stop8591" stop-color="#fefefe"/>
   <stop id="stop8593" offset="1" stop-color="#cbcbcb"/>
  </linearGradient>
  <radialGradient cx="102" cy="112.3" r="139.56" id="XMLID_8_" gradientUnits="userSpaceOnUse">
   <stop id="stop41" stop-color="#b7b8b9"/>
   <stop id="stop47" offset="0.189" stop-color="#ececec"/>
   <stop id="stop49" offset="0.257" stop-color="#fafafa" stop-opacity="0"/>
   <stop id="stop51" offset="0.301" stop-color="#ffffff" stop-opacity="0"/>
   <stop id="stop53" offset="0.531" stop-color="#fafafa" stop-opacity="0"/>
   <stop id="stop55" offset="0.845" stop-color="#ebecec" stop-opacity="0"/>
   <stop id="stop57" offset="1" stop-color="#e1e2e3" stop-opacity="0"/>
  </radialGradient>
  <linearGradient inkscape:collect="always" xlink:href="#linearGradient3804" id="linearGradient6701" y1="-180" x2="0" y2="-164" gradientUnits="userSpaceOnUse"/>
  <clipPath id="clipPath6691">
   <path id="path6693" d="m 914,-179.00027 8,-1e-5 4,3 0,11 -12,0 z"/>
  </clipPath>
  <linearGradient id="outerBackgroundGradient-4">
   <stop id="stop3864-8-6-6" stop-color="#f0f0f0"/>
   <stop offset="1" id="stop3866-9-1-7" stop-color="#f9f9f9"/>
  </linearGradient>
  <linearGradient inkscape:collect="always" xlink:href="#outerBackgroundGradient-4" id="linearGradient3829" gradientUnits="userSpaceOnUse" gradientTransform="matrix(0,-0.05555556,0.05714289,0,-3.1428659,15)" y1="280" x2="0" y2="40"/>
  <linearGradient inkscape:collect="always" xlink:href="#linearGradient3804" id="linearGradient3831" gradientUnits="userSpaceOnUse" y1="1" x2="0" y2="14" gradientTransform="matrix(0,-1,1,0,-1,13)"/>
  <linearGradient inkscape:collect="always" xlink:href="#linearGradient3888" id="linearGradient3894" y1="0" x2="0" y2="11.5" gradientUnits="userSpaceOnUse"/>
  <linearGradient id="linearGradient3888">
   <stop id="stop3890-9" stop-color="#75ff70"/>
   <stop offset="1" id="stop3892" stop-color="#41c242"/>
  </linearGradient>
  <linearGradient inkscape:collect="always" xlink:href="#linearGradient3904" id="linearGradient3873" gradientUnits="userSpaceOnUse" y1="16" x2="0" y2="4" gradientTransform="translate(2,2)"/>
  <linearGradient inkscape:collect="always" xlink:href="#linearGradient3888" id="linearGradient3876" gradientUnits="userSpaceOnUse" gradientTransform="translate(3.9999999,7)" y1="0" x2="0" y2="11.5"/>
  <linearGradient inkscape:collect="always" xlink:href="#linearGradient3804" id="linearGradient3905" gradientUnits="userSpaceOnUse" gradientTransform="translate(2,1)" y1="1" x2="0" y2="14"/>
  <linearGradient inkscape:collect="always" xlink:href="#outerBackgroundGradient-4" id="linearGradient3908" gradientUnits="userSpaceOnUse" gradientTransform="matrix(0.05555556,0,0,0.05714289,0,-1.1428659)" y1="280" x2="0" y2="40"/>
  <linearGradient id="linearGradient3702">
   <stop id="stop3704" stop-opacity="0"/>
   <stop id="stop3710" offset="0.5"/>
   <stop id="stop3706" offset="1" stop-opacity="0"/>
  </linearGradient>
  <linearGradient id="outerBackgroundGradient-9">
   <stop id="stop3864-8-6-6-8" stop-color="#8c166c"/>
   <stop id="stop4409-9" offset="0.362" stop-color="#ca3561"/>
   <stop offset="1" id="stop3866-9-1-1" stop-color="#f38f4e"/>
  </linearGradient>
  <clipPath id="clipPath4552">
   <rect id="rect4554" width="21.1" height="21.1" x="42.892" y="24.01" rx="0" opacity="0.2"/>
  </clipPath>
  <linearGradient id="linearGradient4094-8">
   <stop id="stop4096-0" stop-color="#e28192"/>
   <stop id="stop4317-3" offset="0.259" stop-color="#f7d6c7"/>
   <stop offset="1" id="stop4098-7" stop-color="#fffee4"/>
  </linearGradient>
  <linearGradient inkscape:collect="always" xlink:href="#outerBackgroundGradient-9" id="linearGradient3175" gradientUnits="userSpaceOnUse" gradientTransform="matrix(1.0769229,0,0,1.0769229,55.461537,22.120194)" y1="-0.806" x2="0" y2="18.01"/>
  <linearGradient inkscape:collect="always" xlink:href="#linearGradient4094-8" id="linearGradient3177" gradientUnits="userSpaceOnUse" gradientTransform="matrix(0,-1,1,0,-208.375,365.12502)" x1="324" x2="332"/>
  <linearGradient inkscape:collect="always" xlink:href="#outerBackgroundGradient-9" id="linearGradient3962" gradientUnits="userSpaceOnUse" gradientTransform="matrix(0.39676104,0,0,0.39676104,19.53846,7.6232299)" y1="-0.806" x2="0" y2="18.01"/>
  <linearGradient inkscape:collect="always" xlink:href="#outerBackgroundGradient-9" id="linearGradient3968" gradientUnits="userSpaceOnUse" gradientTransform="matrix(0.39676104,0,0,0.39676104,33.748986,7.8337561)" y1="-0.806" x2="0" y2="18.01"/>
  <linearGradient inkscape:collect="always" xlink:href="#outerBackgroundGradient-9" id="linearGradient3998" x1="10" x2="13" gradientUnits="userSpaceOnUse" gradientTransform="matrix(1.3333333,0,0,1.3333333,-3.3333333,-27.333333)"/>
  <clipPath id="clipPath4043">
   <rect y="-14" x="10" height="4" width="4" id="rect4045" fill="url(#linearGradient3998)"/>
  </clipPath>
 </defs>
 <metadata id="metadata5405"/>
 <g id="layer1" inkscape:label="Layer 1" inkscape:groupmode="layer">
  <g id="g3917" transform="matrix(0.98480775,0.17364817,-0.17364817,0.98480775,1.5107235,-1.2676477)">
   <path sodipodi:nodetypes="ccccc" inkscape:connector-curvature="0" id="path3919" d="M 13.999996,3 14,13 C 10,13 5.999999,13 2,13 L 2,3 z" opacity="0.41" fill="none" stroke="#000000" stroke-linejoin="round" color="#bebebe" stroke-width="2"/>
   <path d="M 13.999996,3 14,13 C 10,13 5.999999,13 2,13 L 2,3 z" id="path3921" inkscape:connector-curvature="0" sodipodi:nodetypes="ccccc" fill="url(#linearGradient3908)" color="#bebebe" stroke-width="0"/>
   <path inkscape:connector-curvature="0" d="M 14,3 2,3 2,13 14,13 14,3 z m -1,1 0,8 -10,0 0,-8 10,0 z" id="path3923" fill="url(#linearGradient3905)" color="#bebebe" stroke-width="0"/>
   <path d="M 3.15625,4.5625 3,4.75 2.84375,4.9375 6.125,8.0625 l -3.03125,3 -0.03125,0 L 3.25,11.25 3.4375,11.4375 3.6875,11.21875 6.71875,8.5625 7.6875,9.375 7.84375,9.53125 8,9.65625 8.15625,9.53125 8.3125,9.375 9.28125,8.5625 12.3125,11.21875 12.59375,11.4375 12.75,11.25 l 0.1875,-0.1875 -0.03125,0 -3.03125,-3 3.28125,-3.125 L 13,4.75 12.84375,4.5625 8,8.34375 3.15625,4.5625 z" id="path3925" inkscape:connector-curvature="0" opacity="0.4" color="#000000" stroke-width="0.5"/>
  </g>
  <g id="g3911">
   <path d="M 13.999996,3 14,13 C 10,13 5.999999,13 2,13 L 2,3 z" id="path3029" inkscape:connector-curvature="0" sodipodi:nodetypes="ccccc" opacity="0.41" fill="none" stroke="#000000" stroke-linejoin="round" color="#bebebe" stroke-width="2"/>
   <path sodipodi:nodetypes="ccccc" inkscape:connector-curvature="0" id="rect3373-6" d="M 13.999996,3 14,13 C 10,13 5.999999,13 2,13 L 2,3 z" fill="url(#linearGradient3908)" color="#bebebe" stroke-width="0"/>
   <path id="path3799" d="M 14,3 2,3 2,13 14,13 14,3 z m -1,1 0,8 -10,0 0,-8 10,0 z" inkscape:connector-curvature="0" fill="url(#linearGradient3905)" color="#bebebe" stroke-width="0"/>
   <path inkscape:connector-curvature="0" id="path3886" d="M 3.15625,4.5625 3,4.75 2.84375,4.9375 6.125,8.0625 l -3.03125,3 -0.03125,0 L 3.25,11.25 3.4375,11.4375 3.6875,11.21875 6.71875,8.5625 7.6875,9.375 7.84375,9.53125 8,9.65625 8.15625,9.53125 8.3125,9.375 9.28125,8.5625 12.3125,11.21875 12.59375,11.4375 12.75,11.25 l 0.1875,-0.1875 -0.03125,0 -3.03125,-3 3.28125,-3.125 L 13,4.75 12.84375,4.5625 8,8.34375 3.15625,4.5625 z" opacity="0.4" color="#000000" stroke-width="0.5"/>
  </g>
  <g id="g4067">
   <rect id="rect4017" width="7" height="7" x="8.5" y="8.5" fill="#eeeeec"/>
   <rect transform="matrix(0,1,-1,0,0,0)" y="-14" x="10" height="4" width="4" id="rect3990" fill="url(#linearGradient3998)"/>
   <g id="g4049" transform="matrix(0.18959397,0,0,0.18959397,1.8679784,5.4477544)" clip-path="url(#clipPath4552)">
    <path sodipodi:nodetypes="ssssssssss" inkscape:connector-curvature="0" id="path4051" d="m 51.625,32.125 c -2.74958,0 -5,2.25042 -5,5 0,2.74958 2.25042,5 5,5 2.74958,0 5,-2.25042 5,-5 0,-2.74958 -2.25042,-5 -5,-5 z m 0,2 c 1.6687,0 3,1.3313 3,3 0,1.6687 -1.3313,3 -3,3 -1.6687,0 -3,-1.3313 -3,-3 0,-1.6687 1.3313,-3 3,-3 z" opacity="0.1" color="#000000" stroke-width="2" fill="#fed8cd"/>
    <path sodipodi:nodetypes="ssssssssss" inkscape:connector-curvature="0" id="path4053" d="m 51.625,31.125 c -3.29002,0 -6,2.70998 -6,6 0,3.29002 2.70998,6 6,6 3.29002,0 6,-2.70998 6,-6 0,-3.29002 -2.70998,-6 -6,-6 z m 0,4 c 1.12826,0 2,0.87174 2,2 0,1.12826 -0.87174,2 -2,2 -1.12826,0 -2,-0.87174 -2,-2 0,-1.12826 0.87174,-2 2,-2 z" opacity="0.1" color="#000000" stroke-width="4" fill="#fed8cd"/>
    <path sodipodi:nodetypes="ssssssssss" inkscape:connector-curvature="0" id="path4055" d="m 51.625,30.125 c -3.83046,0 -7,3.16954 -7,7 0,3.83046 3.16954,7 7,7 3.83046,0 7,-3.16954 7,-7 0,-3.83046 -3.16954,-7 -7,-7 z m 0,6 c 0.58782,0 1,0.41218 1,1 0,0.58782 -0.41218,1 -1,1 -0.58782,0 -1,-0.41218 -1,-1 0,-0.58782 0.41218,-1 1,-1 z" opacity="0.1" color="#000000" stroke-width="6" fill="#fed8cd"/>
    <path sodipodi:nodetypes="sssss" inkscape:connector-curvature="0" id="path4057" d="m 51.625,33.12502 c 2.20914,0 4,1.79086 4,4 0,2.20914 -1.79086,4 -4,4 -2.20914,0 -4,-1.79086 -4,-4 0,-2.20914 1.79086,-4 4,-4 z" fill="url(#linearGradient3177)" fill-rule="evenodd" color="#000000" stroke-width="14"/>
    <path sodipodi:nodetypes="cczszszszszszszcccccccccc" inkscape:connector-curvature="0" id="path4059" d="m 42.625,42.125017 0,-1 c 0,0 2.52394,-1.6666 3.23353,-1.812 0.7096,-0.1454 1.54759,-0.027 2.40882,0.1355 0.86124,0.162 2.14701,0.3811 2.54829,0.3948 0.40129,0.014 1.12747,-0.035 1.97121,-0.086 0.84374,-0.05 2.24079,-0.096 2.67654,-0.091 0.43575,0 1.52358,0.06 2.68316,0.1308 1.15958,0.071 2.75227,0.1896 3.11363,0.2228 0.36137,0.033 0.78614,0.094 1.26819,0.1605 0.48204,0.066 1.31657,0.1657 1.6118,0.1931 0.29522,0.027 0.97966,0.1211 1.7738,0.1942 0.79414,0.073 2.06499,0.098 2.432,0.071 0.36701,-0.027 1.13629,-0.2988 1.99357,-0.5493 0.85728,-0.2504 1.80257,-0.4797 2.5216,-0.423 0.71903,0.057 4.76386,1.4585 4.76386,1.4585 l 0,1 -5.25,0 -4.25,0 -4.25,0 -4.25,0 -4.25,0 -4.25,0 -4.25,0 z"/>
    <path d="m 42.625,42.125017 0,0.6525 c 0,0 2.52394,1.0873 3.23353,1.1822 0.7096,0.095 1.54759,0.018 2.40882,-0.088 0.86124,-0.1057 2.14701,-0.2487 2.54829,-0.2576 0.40129,-0.01 1.12747,0.023 1.97121,0.056 0.84374,0.033 2.24079,0.063 2.67654,0.059 0.43575,0 1.52358,-0.039 2.68316,-0.085 1.15958,-0.046 2.75227,-0.1237 3.11363,-0.1453 0.36137,-0.022 0.78614,-0.061 1.26819,-0.1048 0.48204,-0.043 1.31657,-0.108 1.6118,-0.1259 0.29522,-0.018 0.97966,-0.079 1.7738,-0.1268 0.79414,-0.048 2.06499,-0.064 2.432,-0.046 0.36701,0.018 1.13629,0.195 1.99357,0.3584 0.85728,0.1634 1.80257,0.313 2.5216,0.276 0.71903,-0.037 4.76386,-0.9516 4.76386,-0.9516 l 0,-0.6524 -5.25,0 -4.25,0 -4.25,0 -4.25,0 -4.25,0 -4.25,0 -4.25,0 z" id="path4061" inkscape:connector-curvature="0" sodipodi:nodetypes="cczszszszszszszcccccccccc" opacity="0.9"/>
    <path sodipodi:nodetypes="ccccc" inkscape:connector-curvature="0" id="path4063" d="m 42.625,42.125 35,0 0,3 -35,0 z" opacity="0.3" fill="#4d585e" color="#000000" stroke-width="6"/>
   </g>
   <rect y="8.5" x="8.5" height="7" width="7" id="rect4022" opacity="0.41" fill="none" stroke="#000000" stroke-linejoin="round"/>
   <path inkscape:connector-curvature="0" id="rect4024" d="m 9,9 0,1 1,0 4,0 1,0 0,-1 -6,0 z" opacity="0.6" fill="#ffffff"/>
   <rect clip-path="url(#clipPath4043)" id="rect4039" width="4" height="4" x="10" y="-14" transform="matrix(0,1,-1,0,0,0)" opacity="0.1" fill="none" stroke="#000000"/>
  </g>
 </g>
</svg>
