<?xml version="1.0" encoding="UTF-8" standalone="no"?>
<svg xmlns="http://www.w3.org/2000/svg" xmlns:xlink="http://www.w3.org/1999/xlink" xmlns:sodipodi="http://sodipodi.sourceforge.net/DTD/sodipodi-0.dtd" xmlns:inkscape="http://www.inkscape.org/namespaces/inkscape" version="1.1" width="16" height="16">
 <defs id="defs4062">
  <linearGradient id="linearGradient3785">
   <stop id="stop3787" stop-color="#505050"/>
   <stop offset="0.262" id="stop3789" stop-color="#2b2b2b"/>
   <stop offset="0.705" id="stop3791" stop-color="#0a0a0a"/>
   <stop offset="1" id="stop3793"/>
  </linearGradient>
  <linearGradient y1="26" x2="0" y2="13" id="linearGradient3965" xlink:href="#linearGradient3680-6-6-6-3-7-4" gradientUnits="userSpaceOnUse" gradientTransform="matrix(0.34453791,0,0,0.34453791,-0.032751,-0.124165)"/>
  <linearGradient id="linearGradient3680-6-6-6-3-7-4">
   <stop id="stop3682-4-6-1-3-7-5" stop-color="#dcdcdc"/>
   <stop id="stop3684-8-5-8-0-2-3" offset="1" stop-color="#ffffff"/>
  </linearGradient>
  <linearGradient y1="5" x2="0" y2="43" id="linearGradient3896" xlink:href="#linearGradient3924-4-8" gradientUnits="userSpaceOnUse" gradientTransform="matrix(0.2972973,0,0,0.2972973,0.86486973,0.8648672)"/>
  <linearGradient id="linearGradient3924-4-8">
   <stop id="stop3926-0-4" stop-color="#ffffff"/>
   <stop id="stop3928-6-8" offset="0.063" stop-color="#ffffff" stop-opacity="0.235"/>
   <stop id="stop3930-2-1" offset="0.951" stop-color="#ffffff" stop-opacity="0.157"/>
   <stop id="stop3932-9-0" offset="1" stop-color="#ffffff" stop-opacity="0.392"/>
  </linearGradient>
  <radialGradient cx="7.118" cy="9.957" r="12.672" id="radialGradient4058" xlink:href="#linearGradient3785" gradientUnits="userSpaceOnUse" gradientTransform="matrix(0,3.0467483,-3.7404337,0,45.520924,-26.295845)"/>
  <linearGradient inkscape:collect="always" xlink:href="#linearGradient5618" id="linearGradient4083" x1="-1023.86" x2="-984.86" gradientUnits="userSpaceOnUse" gradientTransform="translate(980.3622,784)"/>
  <linearGradient id="linearGradient5618">
   <stop id="stop5620" stop-color="#3e3e3e"/>
   <stop offset="1" id="stop5622" stop-color="#595959"/>
  </linearGradient>
  <linearGradient inkscape:collect="always" xlink:href="#linearGradient5618" id="linearGradient3867" y1="16" x2="0" y2="0" gradientUnits="userSpaceOnUse"/>
  <linearGradient inkscape:collect="always" xlink:href="#outerBackgroundGradient-10" id="linearGradient4256" x1="417" x2="431" gradientUnits="userSpaceOnUse" gradientTransform="matrix(0,-1,1,0,276,572)"/>
  <linearGradient id="outerBackgroundGradient-10">
   <stop id="stop3864-8-6-9" stop-color="#e35000"/>
   <stop offset="1" id="stop3866-9-1-81" stop-color="#ff8721"/>
  </linearGradient>
  <linearGradient x2="431" x1="417" gradientTransform="matrix(0,-1,1,0,-74.25,440.25)" gradientUnits="userSpaceOnUse" id="linearGradient3287" xlink:href="#outerBackgroundGradient-10" inkscape:collect="always"/>
  <linearGradient inkscape:collect="always" xlink:href="#outerBackgroundGradient-10" id="linearGradient4041" gradientUnits="userSpaceOnUse" y1="16" x2="0" y2="0"/>
 </defs>
 <metadata id="metadata4065"/>
 <g inkscape:groupmode="layer" id="layer1" inkscape:label="Background">
  <rect id="rect5505-21-7" y="0.5" x="0.504" rx="1.154" height="15" width="15" fill="url(#linearGradient4041)" color="#000000"/>
  <rect width="15" height="15" rx="1.154" x="0.504" y="0.5" id="rect3018" opacity="0.61" fill="none" stroke="#43120f" color="#000000"/>
  <path d="M 1.65625 1 C 1.2853706 1 1 1.2853706 1 1.65625 L 1 2.65625 C 1 2.2853706 1.2853706 2 1.65625 2 L 14.34375 2 C 14.714629 2 15 2.2853706 15 2.65625 L 15 1.65625 C 15 1.2853706 14.714629 1 14.34375 1 L 1.65625 1 z " id="rect3788" opacity="0.1" fill="#ffffff" color="#000000"/>
  <path id="path3805" d="M 1.78125,16 C 1.4103706,16 1.125,15.714629 1.125,15.34375 l 0,-1 C 1.125,14.714629 1.4103706,15 1.78125,15 l 12.6875,0 c 0.370879,0 0.65625,-0.285371 0.65625,-0.65625 l 0,1 C 15.125,15.714629 14.839629,16 14.46875,16 l -12.6875,0 z" inkscape:connector-curvature="0" opacity="0.3" color="#000000"/>
 </g>
 <g inkscape:groupmode="layer" id="layer2" inkscape:label="Symbol">
  <path inkscape:connector-curvature="0" d="m 3,4 0,0.83333 c 0,0.45847 0.37789,0.83334 0.83333,0.83334 4.14214,0 7.5,3.35786 7.5,7.5 0,0.45846 0.37789,0.83333 0.83334,0.83333 L 13,14 13,13.16667 C 13,8.10406 8.89594,4 3.83333,4 L 3,4 z M 3,7.33333 3,8.16667 C 3,8.62513 3.37789,9 3.83333,9 6.13452,9 8,10.86548 8,13.16667 8,13.62513 8.37789,14 8.83333,14 l 0.83334,0 0,-0.83333 C 9.66667,9.945 7.055,7.33333 3.83333,7.33333 L 3,7.33333 z m 1.66667,3.33334 C 3.74619,10.66667 3,11.41286 3,12.33333 3,13.25381 3.74619,14 4.66667,14 c 0.92047,0 1.66666,-0.74619 1.66666,-1.66667 0,-0.92047 -0.74619,-1.66666 -1.66666,-1.66666 z" id="path4043" opacity="0.3" color="#000000" stroke-width="1.696"/>
  <path id="path3871" d="m 3,3 0,0.83333 c 0,0.45847 0.37789,0.83334 0.83333,0.83334 4.14214,0 7.5,3.35786 7.5,7.5 0,0.45846 0.37789,0.83333 0.83334,0.83333 L 13,13 13,12.16667 C 13,7.10406 8.89594,3 3.83333,3 L 3,3 z M 3,6.33333 3,7.16667 C 3,7.62513 3.37789,8 3.83333,8 6.13452,8 8,9.86548 8,12.16667 8,12.62513 8.37789,13 8.83333,13 l 0.83334,0 0,-0.83333 C 9.66667,8.945 7.055,6.33333 3.83333,6.33333 L 3,6.33333 z M 4.66667,9.66667 C 3.74619,9.66667 3,10.41286 3,11.33333 3,12.25381 3.74619,13 4.66667,13 c 0.92047,0 1.66666,-0.74619 1.66666,-1.66667 0,-0.92047 -0.74619,-1.66666 -1.66666,-1.66666 z" inkscape:connector-curvature="0" fill="#ffffff" color="#000000" stroke-width="1.696"/>
 </g>
</svg>
