<?xml version="1.0" encoding="UTF-8" standalone="no"?>
<!-- Created with Inkscape (http://www.inkscape.org/) -->

<svg
   xmlns:dc="http://purl.org/dc/elements/1.1/"
   xmlns:cc="http://creativecommons.org/ns#"
   xmlns:rdf="http://www.w3.org/1999/02/22-rdf-syntax-ns#"
   xmlns:svg="http://www.w3.org/2000/svg"
   xmlns="http://www.w3.org/2000/svg"
   xmlns:xlink="http://www.w3.org/1999/xlink"
   xmlns:sodipodi="http://sodipodi.sourceforge.net/DTD/sodipodi-0.dtd"
   xmlns:inkscape="http://www.inkscape.org/namespaces/inkscape"
   width="16px"
   height="16px"
   id="svg5400"
   version="1.1"
   inkscape:version="0.48.4 r9939"
   sodipodi:docname="multimedia-photo-manager.svg">
  <defs
     id="defs5402">
    <linearGradient
       id="linearGradient4313">
      <stop
         offset="0"
         style="stop-color:#3e3e3e;stop-opacity:1"
         id="stop4315" />
      <stop
         offset="0.26238"
         style="stop-color:#343434;stop-opacity:1"
         id="stop4318" />
      <stop
         offset="0.704952"
         style="stop-color:#272727;stop-opacity:1"
         id="stop4320" />
      <stop
         offset="1"
         style="stop-color:#1d1d1d;stop-opacity:1"
         id="stop4322" />
    </linearGradient>
    <linearGradient
       inkscape:collect="always"
       xlink:href="#linearGradient3988"
       id="linearGradient6402"
       gradientUnits="userSpaceOnUse"
       gradientTransform="matrix(0,-0.05,0.05,0,-180.75031,-1391.8)"
       x1="144"
       y1="280.00003"
       x2="144"
       y2="40.00005" />
    <linearGradient
       id="linearGradient3988">
      <stop
         style="stop-color:#f1f1f1;stop-opacity:1;"
         offset="0"
         id="stop3990" />
      <stop
         style="stop-color:#f4f4f4;stop-opacity:1;"
         offset="1"
         id="stop3992" />
    </linearGradient>
    <linearGradient
       inkscape:collect="always"
       xlink:href="#outerBackgroundGradient"
       id="linearGradient6404"
       gradientUnits="userSpaceOnUse"
       gradientTransform="matrix(0,-0.04166667,0.04166667,0,-179.29196,-1393)"
       x1="144"
       y1="280.00003"
       x2="144"
       y2="40.00005" />
    <linearGradient
       id="outerBackgroundGradient">
      <stop
         style="stop-color:#8c166c;stop-opacity:1;"
         offset="0"
         id="stop3864-8-6" />
      <stop
         id="stop4409"
         offset="0.36206895"
         style="stop-color:#ca3561;stop-opacity:1;" />
      <stop
         style="stop-color:#f38f4e;stop-opacity:1;"
         offset="1"
         id="stop3866-9-1" />
    </linearGradient>
    <linearGradient
       inkscape:collect="always"
       xlink:href="#linearGradient4094"
       id="linearGradient6406"
       gradientUnits="userSpaceOnUse"
       x1="324"
       y1="260"
       x2="332"
       y2="260" />
    <linearGradient
       id="linearGradient4094">
      <stop
         style="stop-color:#e28192;stop-opacity:1;"
         offset="0"
         id="stop4096" />
      <stop
         id="stop4317"
         offset="0.25862068"
         style="stop-color:#f7d6c7;stop-opacity:1;" />
      <stop
         style="stop-color:#fffee4;stop-opacity:1;"
         offset="1"
         id="stop4098" />
    </linearGradient>
    <linearGradient
       inkscape:collect="always"
       xlink:href="#linearGradient3988"
       id="linearGradient6396"
       gradientUnits="userSpaceOnUse"
       gradientTransform="matrix(0,-0.05,0.05,0,-180.75031,-1391.8)"
       x1="144"
       y1="280.00003"
       x2="144"
       y2="40.00005" />
    <linearGradient
       inkscape:collect="always"
       xlink:href="#outerBackgroundGradient"
       id="linearGradient6398"
       gradientUnits="userSpaceOnUse"
       gradientTransform="matrix(0,-0.04166667,0.04166667,0,-179.29196,-1393)"
       x1="144"
       y1="280.00003"
       x2="144"
       y2="40.00005" />
    <linearGradient
       inkscape:collect="always"
       xlink:href="#linearGradient4094"
       id="linearGradient6400"
       gradientUnits="userSpaceOnUse"
       x1="324"
       y1="260"
       x2="332"
       y2="260" />
    <linearGradient
       inkscape:collect="always"
       xlink:href="#linearGradient3101-46"
       id="linearGradient3110"
       gradientUnits="userSpaceOnUse"
       gradientTransform="matrix(0.13513513,0,0,0.13513507,0.40003019,10.510808)"
       x1="71.204002"
       y1="6.2375998"
       x2="71.204002"
       y2="44.341" />
    <linearGradient
       x1="71.204002"
       y1="6.2375998"
       x2="71.204002"
       y2="44.341"
       id="linearGradient3101-46"
       gradientUnits="userSpaceOnUse"
       gradientTransform="matrix(0.5135135,0,0,0.5135135,-24.836132,-1.021284)">
      <stop
         id="stop4013-8-6"
         style="stop-color:#ffffff;stop-opacity:1"
         offset="0" />
      <stop
         id="stop4015-11-8"
         style="stop-color:#ffffff;stop-opacity:0.23529412"
         offset="0.50775999" />
      <stop
         id="stop4017-4-7"
         style="stop-color:#ffffff;stop-opacity:0.15686275"
         offset="0.83456999" />
      <stop
         id="stop4019-3-8"
         style="stop-color:#ffffff;stop-opacity:0.39215687"
         offset="1" />
    </linearGradient>
    <linearGradient
       inkscape:collect="always"
       xlink:href="#linearGradient4270-7-5-1"
       id="linearGradient3113"
       gradientUnits="userSpaceOnUse"
       gradientTransform="matrix(0.36363634,0,0,0.36363634,6.0891102,-0.98144121)"
       x1="19.758543"
       y1="24.734938"
       x2="19.758543"
       y2="46.702221" />
    <linearGradient
       id="linearGradient4270-7-5-1">
      <stop
         id="stop4272-8-7-3"
         style="stop-color:#000000;stop-opacity:0.32800001"
         offset="0" />
      <stop
         id="stop4274-6-3-6"
         style="stop-color:#000000;stop-opacity:0.68000001"
         offset="1" />
    </linearGradient>
    <linearGradient
       inkscape:collect="always"
       xlink:href="#linearGradient8265-821-176-38-919-66-249-7-7-1-5-7-842-3"
       id="linearGradient3116"
       gradientUnits="userSpaceOnUse"
       gradientTransform="matrix(0.1363452,0,0,0.18378386,8.71941,8.0022984)"
       x1="16.626165"
       y1="15.298182"
       x2="20.054544"
       y2="24.627615" />
    <linearGradient
       id="linearGradient8265-821-176-38-919-66-249-7-7-1-5-7-842-3">
      <stop
         id="stop5135-1"
         style="stop-color:#ffffff;stop-opacity:1"
         offset="0" />
      <stop
         id="stop5137-8"
         style="stop-color:#ffffff;stop-opacity:0"
         offset="1" />
    </linearGradient>
    <linearGradient
       inkscape:collect="always"
       xlink:href="#linearGradient4174-396-4"
       id="linearGradient3119"
       gradientUnits="userSpaceOnUse"
       gradientTransform="matrix(0,-0.0909091,0.0909091,0,9.09092,20.727269)"
       x1="79"
       y1="31.999891"
       x2="122.7144"
       y2="31.999891" />
    <linearGradient
       id="linearGradient4174-396-4">
      <stop
         id="stop5101-1"
         style="stop-color:#000000;stop-opacity:0.736"
         offset="0" />
      <stop
         id="stop5103-2"
         style="stop-color:#000000;stop-opacity:0.096"
         offset="1" />
    </linearGradient>
    <linearGradient
       inkscape:collect="always"
       xlink:href="#linearGradient3990-3-968-6"
       id="linearGradient3122"
       gradientUnits="userSpaceOnUse"
       gradientTransform="matrix(0.04376593,0,0,0.03282445,9.07143,9.457648)"
       x1="68.313301"
       y1="52.925316"
       x2="68.313301"
       y2="65.922028" />
    <linearGradient
       id="linearGradient3990-3-968-6">
      <stop
         id="stop5069-2"
         style="stop-color:#ffffff;stop-opacity:1"
         offset="0" />
      <stop
         id="stop5071-8"
         style="stop-color:#ffffff;stop-opacity:0"
         offset="1" />
    </linearGradient>
    <radialGradient
       inkscape:collect="always"
       xlink:href="#linearGradient4278-757-5"
       id="radialGradient3125"
       gradientUnits="userSpaceOnUse"
       gradientTransform="matrix(0.13501499,-2.0132531e-8,1.8916035e-8,0.12685679,-0.9605497,-0.15043121)"
       cx="95.838364"
       cy="95.388451"
       fx="95.838364"
       fy="95.388451"
       r="9.4981718" />
    <linearGradient
       id="linearGradient4278-757-5">
      <stop
         id="stop5107-6"
         style="stop-color:#000000;stop-opacity:0"
         offset="0" />
      <stop
         id="stop5109-76"
         style="stop-color:#000000;stop-opacity:0"
         offset="0.5" />
      <stop
         id="stop5111-8"
         style="stop-color:#000000;stop-opacity:1"
         offset="1" />
    </linearGradient>
    <radialGradient
       inkscape:collect="always"
       xlink:href="#linearGradient2867-449-88-871-390-598-476-591-434-148-57-177-691-923-3"
       id="radialGradient3128"
       gradientUnits="userSpaceOnUse"
       gradientTransform="matrix(0,0.11731521,-0.15485401,0,12.61787,8.1211784)"
       cx="23.896"
       cy="3.99"
       r="20.396999" />
    <linearGradient
       id="linearGradient2867-449-88-871-390-598-476-591-434-148-57-177-691-923-3">
      <stop
         id="stop5181-3"
         style="stop-color:#432f91;stop-opacity:1"
         offset="0" />
      <stop
         id="stop5183-3"
         style="stop-color:#1972a2;stop-opacity:1"
         offset="1" />
    </linearGradient>
    <linearGradient
       inkscape:collect="always"
       xlink:href="#linearGradient3087-408-4-672-8-5-2"
       id="linearGradient3131"
       gradientUnits="userSpaceOnUse"
       gradientTransform="matrix(0.09879011,0,0,0.09995268,28.49201,5.7924984)"
       x1="-166.57561"
       y1="49.331501"
       x2="-166.57561"
       y2="73.350845" />
    <linearGradient
       x1="7.0776"
       y1="3.0816"
       x2="7.0776"
       y2="45.368999"
       id="linearGradient3087-408-4-672-8-5-2"
       gradientUnits="userSpaceOnUse"
       gradientTransform="matrix(0.22110724,0,0,0.22110728,6.6934256,6.693263)">
      <stop
         id="stop5153-9-6-3"
         style="stop-color:#232323;stop-opacity:1"
         offset="0" />
      <stop
         id="stop5155-8-8-9"
         style="stop-color:#747474;stop-opacity:1"
         offset="1" />
    </linearGradient>
    <radialGradient
       inkscape:collect="always"
       xlink:href="#linearGradient3707-319-631-407-324-616-79-9"
       id="radialGradient3134"
       gradientUnits="userSpaceOnUse"
       gradientTransform="matrix(0,0.19508946,-0.25751464,0,13.02296,5.2222484)"
       cx="24.780325"
       cy="4.0774455"
       fx="24.780325"
       fy="4.0774455"
       r="20.396999" />
    <linearGradient
       id="linearGradient3707-319-631-407-324-616-79-9">
      <stop
         id="stop5194-0"
         style="stop-color:#787878;stop-opacity:1"
         offset="0" />
      <stop
         id="stop5196-7"
         style="stop-color:#474747;stop-opacity:1"
         offset="1" />
    </linearGradient>
    <linearGradient
       inkscape:collect="always"
       xlink:href="#linearGradient3101-4-766-6"
       id="linearGradient3137"
       gradientUnits="userSpaceOnUse"
       gradientTransform="matrix(0.13513513,0,0,0.13513726,2.3062802,8.5732484)"
       x1="71.204002"
       y1="6.2375998"
       x2="71.204002"
       y2="44.341" />
    <linearGradient
       x1="71.204002"
       y1="6.2375998"
       x2="71.204002"
       y2="44.341"
       id="linearGradient3101-4-766-6"
       gradientUnits="userSpaceOnUse"
       gradientTransform="matrix(0.5135135,0,0,0.5135135,-24.836132,-1.021284)">
      <stop
         id="stop5091-0"
         style="stop-color:#ffffff;stop-opacity:1"
         offset="0" />
      <stop
         id="stop5093-26"
         style="stop-color:#ffffff;stop-opacity:0.23529412"
         offset="0.50775999" />
      <stop
         id="stop5095-96"
         style="stop-color:#ffffff;stop-opacity:0.15686275"
         offset="0.83456999" />
      <stop
         id="stop5097-7"
         style="stop-color:#ffffff;stop-opacity:0.39215687"
         offset="1" />
    </linearGradient>
    <radialGradient
       inkscape:collect="always"
       xlink:href="#linearGradient4313"
       id="radialGradient3140"
       gradientUnits="userSpaceOnUse"
       gradientTransform="matrix(0,0.14982901,-0.17475775,0,16.02459,8.9813484)"
       cx="10.229324"
       cy="22.955328"
       fx="10.229324"
       fy="22.955328"
       r="19.99999" />
    <linearGradient
       inkscape:collect="always"
       xlink:href="#linearGradient4077-488-880-992-3"
       id="linearGradient3142"
       gradientUnits="userSpaceOnUse"
       gradientTransform="matrix(0.06666669,0,0,0.06666669,5.6000002,5.5999984)"
       x1="83.589935"
       y1="73.438828"
       x2="83.589935"
       y2="118.82703" />
    <linearGradient
       id="linearGradient4077-488-880-992-3">
      <stop
         id="stop5085-9"
         style="stop-color:#1b1b1b;stop-opacity:1"
         offset="0" />
      <stop
         id="stop5087-8"
         style="stop-color:#000000;stop-opacity:1"
         offset="1" />
    </linearGradient>
    <radialGradient
       inkscape:collect="always"
       xlink:href="#radialGradient3093-718-5"
       id="radialGradient3145"
       gradientUnits="userSpaceOnUse"
       gradientTransform="matrix(0,0.41062756,-0.54202111,0,14.162732,-1.5763731)"
       cx="23.896"
       cy="3.99"
       r="20.396999" />
    <radialGradient
       cx="23.896"
       cy="3.99"
       r="20.396999"
       id="radialGradient3093-718-5"
       gradientUnits="userSpaceOnUse"
       gradientTransform="matrix(0,1.2316483,-1.625754,0,18.486966,-28.721977)">
      <stop
         id="stop5115-1"
         style="stop-color:#898989;stop-opacity:1;"
         offset="0" />
      <stop
         id="stop5117-2"
         style="stop-color:#555555;stop-opacity:1;"
         offset="0.26238" />
      <stop
         id="stop5119-0"
         style="stop-color:#3e3e3e;stop-opacity:1;"
         offset="0.66093999" />
      <stop
         id="stop5121-3"
         style="stop-color:#000000;stop-opacity:1;"
         offset="1" />
    </radialGradient>
    <radialGradient
       cx="62.625"
       cy="4.625"
       r="10.625"
       id="radialGradient3109-1"
       gradientUnits="userSpaceOnUse"
       gradientTransform="matrix(1.1294118,0,0,0.2823525,-58.729414,19.694118)">
      <stop
         id="stop8840-3-5"
         style="stop-color:#000000;stop-opacity:1"
         offset="0" />
      <stop
         id="stop8842-5-9"
         style="stop-color:#000000;stop-opacity:0"
         offset="1" />
    </radialGradient>
    <radialGradient
       r="10.625"
       cy="4.625"
       cx="62.625"
       gradientTransform="matrix(0.30037568,0,0,0.0750938,-6.9812398,14.5144)"
       gradientUnits="userSpaceOnUse"
       id="radialGradient3260"
       xlink:href="#radialGradient3109-1"
       inkscape:collect="always" />
  </defs>
  <sodipodi:namedview
     id="base"
     pagecolor="#ffffff"
     bordercolor="#666666"
     borderopacity="1.0"
     inkscape:pageopacity="0.0"
     inkscape:pageshadow="2"
     inkscape:zoom="1"
     inkscape:cx="13.884819"
     inkscape:cy="9.3923373"
     inkscape:current-layer="layer1"
     showgrid="false"
     showborder="false"
     inkscape:grid-bbox="true"
     inkscape:document-units="px"
     inkscape:window-width="1364"
     inkscape:window-height="700"
     inkscape:window-x="0"
     inkscape:window-y="28"
     inkscape:window-maximized="1">
    <inkscape:grid
       type="xygrid"
       id="grid3311" />
  </sodipodi:namedview>
  <metadata
     id="metadata5405">
    <rdf:RDF>
      <cc:Work
         rdf:about="">
        <dc:format>image/svg+xml</dc:format>
        <dc:type
           rdf:resource="http://purl.org/dc/dcmitype/StillImage" />
        <dc:title />
      </cc:Work>
    </rdf:RDF>
  </metadata>
  <g
     id="layer1"
     inkscape:label="Layer 1"
     inkscape:groupmode="layer">
    <g
       style="display:inline;enable-background:new"
       id="g6374"
       transform="matrix(0.98480776,0.17364818,-0.17364818,0.98480776,-1399.7872,-64.561788)">
      <rect
         style="opacity:0.41000001;color:#bebebe;fill:#000000;fill-opacity:1;fill-rule:nonzero;stroke:#000000;stroke-width:2;stroke-linejoin:round;stroke-miterlimit:4;stroke-opacity:1;stroke-dasharray:none;marker:none;visibility:visible;display:inline;overflow:visible;enable-background:accumulate"
         id="rect6376"
         width="9.9999943"
         height="12"
         x="-178.00027"
         y="-1405"
         ry="0"
         transform="matrix(0,1,-1,0,0,0)" />
      <rect
         transform="matrix(0,1,-1,0,0,0)"
         ry="0"
         y="-1405"
         x="-178.00027"
         height="12"
         width="9.9999943"
         id="rect6378"
         style="color:#bebebe;fill:url(#linearGradient6396);fill-opacity:1;fill-rule:nonzero;stroke:#000000;stroke-width:0;stroke-opacity:1;marker:none;visibility:visible;display:inline;overflow:visible;enable-background:accumulate" />
      <rect
         style="color:#bebebe;fill:url(#linearGradient6398);fill-opacity:1;fill-rule:nonzero;stroke:#000000;stroke-width:0;stroke-opacity:1;marker:none;visibility:visible;display:inline;overflow:visible;enable-background:accumulate"
         id="rect6380"
         width="7.9999948"
         height="10"
         x="-177.00027"
         y="-1404"
         ry="0"
         transform="matrix(0,1,-1,0,0,0)" />
      <g
         id="g6382"
         transform="matrix(0.83333333,0,0,0.83333333,234.41667,-32.270878)">
        <rect
           y="-165.64813"
           x="1391.5"
           height="1.0588236"
           width="12"
           id="rect6384"
           style="opacity:0.3;color:#000000;fill:#000000;fill-opacity:1;stroke:none;stroke-width:6;marker:none;visibility:visible;display:inline;overflow:visible;enable-background:new" />
        <path
           transform="matrix(0.35294118,0,0,0.35294118,1279.3228,-259.40249)"
           d="m 332,260 c 0,2.20914 -1.79086,4 -4,4 -2.20914,0 -4,-1.79086 -4,-4 0,-2.20914 1.79086,-4 4,-4 2.20914,0 4,1.79086 4,4 z"
           sodipodi:ry="4"
           sodipodi:rx="4"
           sodipodi:cy="260"
           sodipodi:cx="328"
           id="path6386"
           style="opacity:0.1;color:#000000;fill:none;stroke:#fed8cd;stroke-width:13.59999943;stroke-miterlimit:4;stroke-opacity:1;stroke-dasharray:none;marker:none;visibility:visible;display:inline;overflow:visible;enable-background:new"
           sodipodi:type="arc" />
        <path
           sodipodi:type="arc"
           style="opacity:0.1;color:#000000;fill:none;stroke:#fed8cd;stroke-width:6.79999971;stroke-miterlimit:4;stroke-opacity:1;stroke-dasharray:none;marker:none;visibility:visible;display:inline;overflow:visible;enable-background:new"
           id="path6388"
           sodipodi:cx="328"
           sodipodi:cy="260"
           sodipodi:rx="4"
           sodipodi:ry="4"
           d="m 332,260 c 0,2.20914 -1.79086,4 -4,4 -2.20914,0 -4,-1.79086 -4,-4 0,-2.20914 1.79086,-4 4,-4 2.20914,0 4,1.79086 4,4 z"
           transform="matrix(0.35294118,0,0,0.35294118,1279.3228,-259.40249)" />
        <path
           transform="matrix(0,-0.35294118,0.35294118,0,1303.3228,-51.873061)"
           d="m 332,260 c 0,2.20914 -1.79086,4 -4,4 -2.20914,0 -4,-1.79086 -4,-4 0,-2.20914 1.79086,-4 4,-4 2.20914,0 4,1.79086 4,4 z"
           sodipodi:ry="4"
           sodipodi:rx="4"
           sodipodi:cy="260"
           sodipodi:cx="328"
           id="path6390"
           style="color:#000000;fill:url(#linearGradient6400);fill-opacity:1;fill-rule:evenodd;stroke:none;stroke-width:14;marker:none;visibility:visible;display:inline;overflow:visible;enable-background:new"
           sodipodi:type="arc" />
        <path
           sodipodi:nodetypes="cczszszszszszszcccccccccc"
           inkscape:connector-curvature="0"
           id="path6392"
           d="m 1391.5,-165.64808 0,-0.35294 c 0,0 0.8908,-0.5882 1.1412,-0.63951 0.2505,-0.0513 0.5463,-0.009 0.8502,0.0478 0.304,0.0572 0.7578,0.13451 0.8994,0.13936 0.1416,0.005 0.3979,-0.0125 0.6957,-0.0302 0.2978,-0.0177 0.7909,-0.034 0.9447,-0.0322 0.1538,0.002 0.5377,0.0213 0.947,0.0462 0.4093,0.0249 0.9714,0.0669 1.0989,0.0786 0.1276,0.0117 0.2775,0.0332 0.4476,0.0567 0.1702,0.0234 0.4647,0.0584 0.5689,0.0681 0.1042,0.01 0.3458,0.0427 0.626,0.0686 0.2803,0.0258 0.7289,0.0347 0.8584,0.025 0.1295,-0.01 0.401,-0.10548 0.7036,-0.19386 0.3026,-0.0884 0.6362,-0.16933 0.89,-0.1493 0.2538,0.0201 1.3284,0.51474 1.3284,0.51474 l 0,0.35294 -1.5,0 -1.5,0 -1.5,0 -1.5,0 -1.5,0 -1.5,0 -1.5,0 z"
           style="fill:#000000;fill-opacity:1;stroke:none;display:inline" />
        <path
           style="opacity:0.9;fill:#000000;fill-opacity:1;stroke:none;display:inline"
           d="m 1391.5,-165.64807 0,0.23029 c 0,0 0.8908,0.38376 1.1412,0.41725 0.2505,0.0335 0.5463,0.006 0.8502,-0.0311 0.304,-0.0373 0.7578,-0.0878 0.8994,-0.0909 0.1416,-0.004 0.3979,0.008 0.6957,0.0198 0.2978,0.0116 0.7909,0.0222 0.9447,0.0208 0.1538,0 0.5377,-0.0138 0.947,-0.03 0.4093,-0.0162 0.9714,-0.0437 1.0989,-0.0513 0.1276,-0.008 0.2775,-0.0215 0.4476,-0.037 0.1702,-0.0152 0.4647,-0.0381 0.5689,-0.0444 0.1042,-0.006 0.3458,-0.0279 0.626,-0.0448 0.2803,-0.0169 0.7289,-0.0226 0.8584,-0.0162 0.1295,0.006 0.401,0.0688 0.7036,0.12649 0.3026,0.0577 0.6362,0.11047 0.89,0.0974 0.2538,-0.013 1.3284,-0.33582 1.3284,-0.33582 l 0,-0.23026 -1.5,0 -1.5,0 -1.5,0 -1.5,0 -1.5,0 -1.5,0 -1.5,0 z"
           id="path6394"
           inkscape:connector-curvature="0"
           sodipodi:nodetypes="cczszszszszszszcccccccccc" />
      </g>
    </g>
    <g
       style="display:inline;enable-background:new"
       id="g6362"
       transform="translate(-1391,181.00027)">
      <rect
         transform="matrix(0,1,-1,0,0,0)"
         ry="0"
         y="-1405"
         x="-178.00027"
         height="12"
         width="9.9999943"
         id="rect6270"
         style="opacity:0.41000001;color:#bebebe;fill:#000000;fill-opacity:1;fill-rule:nonzero;stroke:#000000;stroke-width:2;stroke-linejoin:round;stroke-miterlimit:4;stroke-opacity:1;stroke-dasharray:none;marker:none;visibility:visible;display:inline;overflow:visible;enable-background:accumulate" />
      <rect
         style="color:#bebebe;fill:url(#linearGradient6402);fill-opacity:1;fill-rule:nonzero;stroke:#000000;stroke-width:0;stroke-opacity:1;marker:none;visibility:visible;display:inline;overflow:visible;enable-background:accumulate"
         id="rect5498"
         width="9.9999943"
         height="12"
         x="-178.00027"
         y="-1405"
         ry="0"
         transform="matrix(0,1,-1,0,0,0)" />
      <rect
         transform="matrix(0,1,-1,0,0,0)"
         ry="0"
         y="-1404"
         x="-177.00027"
         height="10"
         width="7.9999948"
         id="rect3373"
         style="color:#bebebe;fill:url(#linearGradient6404);fill-opacity:1;fill-rule:nonzero;stroke:none;stroke-width:0;marker:none;visibility:visible;display:inline;overflow:visible;enable-background:accumulate" />
      <g
         transform="matrix(0.83333333,0,0,0.83333333,234.41667,-32.270878)"
         id="g6352">
        <rect
           style="opacity:0.3;color:#000000;fill:#000000;fill-opacity:1;stroke:none;stroke-width:6;marker:none;visibility:visible;display:inline;overflow:visible;enable-background:new"
           id="rect4145"
           width="12"
           height="1.0588236"
           x="1391.5"
           y="-165.64813" />
        <path
           sodipodi:type="arc"
           style="opacity:0.1;color:#000000;fill:none;stroke:#fed8cd;stroke-width:13.59999943;stroke-miterlimit:4;stroke-opacity:1;stroke-dasharray:none;marker:none;visibility:visible;display:inline;overflow:visible;enable-background:new"
           id="path4135"
           sodipodi:cx="328"
           sodipodi:cy="260"
           sodipodi:rx="4"
           sodipodi:ry="4"
           d="m 332,260 c 0,2.20914 -1.79086,4 -4,4 -2.20914,0 -4,-1.79086 -4,-4 0,-2.20914 1.79086,-4 4,-4 2.20914,0 4,1.79086 4,4 z"
           transform="matrix(0.35294118,0,0,0.35294118,1279.3228,-259.40249)" />
        <path
           transform="matrix(0.35294118,0,0,0.35294118,1279.3228,-259.40249)"
           d="m 332,260 c 0,2.20914 -1.79086,4 -4,4 -2.20914,0 -4,-1.79086 -4,-4 0,-2.20914 1.79086,-4 4,-4 2.20914,0 4,1.79086 4,4 z"
           sodipodi:ry="4"
           sodipodi:rx="4"
           sodipodi:cy="260"
           sodipodi:cx="328"
           id="path4133"
           style="opacity:0.1;color:#000000;fill:none;stroke:#fed8cd;stroke-width:6.79999971;stroke-miterlimit:4;stroke-opacity:1;stroke-dasharray:none;marker:none;visibility:visible;display:inline;overflow:visible;enable-background:new"
           sodipodi:type="arc" />
        <path
           sodipodi:type="arc"
           style="color:#000000;fill:url(#linearGradient6406);fill-opacity:1;fill-rule:evenodd;stroke:none;stroke-width:14;marker:none;visibility:visible;display:inline;overflow:visible;enable-background:new"
           id="path4139"
           sodipodi:cx="328"
           sodipodi:cy="260"
           sodipodi:rx="4"
           sodipodi:ry="4"
           d="m 332,260 c 0,2.20914 -1.79086,4 -4,4 -2.20914,0 -4,-1.79086 -4,-4 0,-2.20914 1.79086,-4 4,-4 2.20914,0 4,1.79086 4,4 z"
           transform="matrix(0,-0.35294118,0.35294118,0,1303.3228,-51.873061)" />
        <path
           style="fill:#000000;fill-opacity:1;stroke:none;display:inline"
           d="m 1391.5,-165.64808 0,-0.35294 c 0,0 0.8908,-0.5882 1.1412,-0.63951 0.2505,-0.0513 0.5463,-0.009 0.8502,0.0478 0.304,0.0572 0.7578,0.13451 0.8994,0.13936 0.1416,0.005 0.3979,-0.0125 0.6957,-0.0302 0.2978,-0.0177 0.7909,-0.034 0.9447,-0.0322 0.1538,0.002 0.5377,0.0213 0.947,0.0462 0.4093,0.0249 0.9714,0.0669 1.0989,0.0786 0.1276,0.0117 0.2775,0.0332 0.4476,0.0567 0.1702,0.0234 0.4647,0.0584 0.5689,0.0681 0.1042,0.01 0.3458,0.0427 0.626,0.0686 0.2803,0.0258 0.7289,0.0347 0.8584,0.025 0.1295,-0.01 0.401,-0.10548 0.7036,-0.19386 0.3026,-0.0884 0.6362,-0.16933 0.89,-0.1493 0.2538,0.0201 1.3284,0.51474 1.3284,0.51474 l 0,0.35294 -1.5,0 -1.5,0 -1.5,0 -1.5,0 -1.5,0 -1.5,0 -1.5,0 z"
           id="path4141"
           inkscape:connector-curvature="0"
           sodipodi:nodetypes="cczszszszszszszcccccccccc" />
        <path
           sodipodi:nodetypes="cczszszszszszszcccccccccc"
           inkscape:connector-curvature="0"
           id="path4143"
           d="m 1391.5,-165.64807 0,0.23029 c 0,0 0.8908,0.38376 1.1412,0.41725 0.2505,0.0335 0.5463,0.006 0.8502,-0.0311 0.304,-0.0373 0.7578,-0.0878 0.8994,-0.0909 0.1416,-0.004 0.3979,0.008 0.6957,0.0198 0.2978,0.0116 0.7909,0.0222 0.9447,0.0208 0.1538,0 0.5377,-0.0138 0.947,-0.03 0.4093,-0.0162 0.9714,-0.0437 1.0989,-0.0513 0.1276,-0.008 0.2775,-0.0215 0.4476,-0.037 0.1702,-0.0152 0.4647,-0.0381 0.5689,-0.0444 0.1042,-0.006 0.3458,-0.0279 0.626,-0.0448 0.2803,-0.0169 0.7289,-0.0226 0.8584,-0.0162 0.1295,0.006 0.401,0.0688 0.7036,0.12649 0.3026,0.0577 0.6362,0.11047 0.89,0.0974 0.2538,-0.013 1.3284,-0.33582 1.3284,-0.33582 l 0,-0.23026 -1.5,0 -1.5,0 -1.5,0 -1.5,0 -1.5,0 -1.5,0 -1.5,0 z"
           style="opacity:0.9;fill:#000000;fill-opacity:1;stroke:none;display:inline" />
      </g>
      <path
         style="opacity:0.15;color:#bebebe;fill:#000000;fill-opacity:1;fill-rule:nonzero;stroke:none;stroke-width:0;marker:none;visibility:visible;display:inline;overflow:visible;enable-background:accumulate"
         d="m 1404,-177.00028 0,8 -10,0 0,-8 10,0 z m -1,1 -8,0 0,6 8,0 0,-6 z"
         id="rect7398"
         inkscape:connector-curvature="0" />
    </g>
    <rect
       style="opacity:0.15;fill:#ffffff;fill-opacity:1;stroke:none;display:inline;enable-background:new"
       id="rect7403"
       width="12"
       height="1"
       x="1"
       y="2.9999943" />
    <path
       style="opacity:0.4;fill:url(#radialGradient3260);fill-rule:evenodd"
       id="path8836-6"
       inkscape:connector-curvature="0"
       d="m 15.02128,14.86171 c 0,0.44066 -1.42888,0.79787 -3.19149,0.79787 -1.76261,0 -3.19149,-0.35718 -3.19149,-0.79787 0,-0.4407 1.42888,-0.79788 3.19149,-0.79788 1.76261,0 3.19149,0.35721 3.19149,0.79788 z" />
    <path
       style="fill:url(#radialGradient3145);stroke:none"
       id="path2555-36-9-2"
       inkscape:connector-curvature="0"
       d="m 12,8.4999981 c -1.931265,0 -3.5,1.5688999 -3.5,3.5000019 0,1.931265 1.568898,3.5 3.5,3.5 1.931265,0 3.5,-1.568898 3.5,-3.5 0,-1.931265 -1.568898,-3.5000019 -3.5,-3.5000019 z" />
    <path
       style="color:#000000;fill:url(#radialGradient3140);fill-opacity:1.0;fill-rule:nonzero;stroke:url(#linearGradient3142);stroke-width:0.99999976000000002;stroke-opacity:1;marker:none;visibility:visible;display:inline;overflow:visible;enable-background:accumulate"
       id="path2555-36-4-3-8"
       inkscape:connector-curvature="0"
       d="m 12,10.5 c -0.82769,0 -1.5,0.67239 -1.5,1.5 0,0.82769 0.67239,1.5 1.5,1.5 0.82769,0 1.5,-0.67238 1.5,-1.5 0,-0.82769 -0.67239,-1.5 -1.5,-1.5 z" />
    <path
       style="opacity:0.8;color:#000000;fill:url(#linearGradient3113);fill-opacity:1;stroke:none;stroke-width:1;marker:none;visibility:visible;display:inline;overflow:visible;enable-background:accumulate"
       id="path4681-1"
       inkscape:connector-curvature="0"
       d="M 12,7.9999984 C 9.79086,7.9999984 8,9.790858 8,12 c 0,2.20914 1.79086,4 4,4 2.20914,0 4,-1.79086 4,-4 0,-2.209142 -1.79086,-4.0000016 -4,-4.0000016 z" />
    <path
       style="opacity:0.3;color:#000000;fill:none;stroke:url(#linearGradient3137);stroke-width:0.99999988;stroke-linecap:round;stroke-linejoin:round;stroke-miterlimit:4;stroke-dasharray:none;stroke-dashoffset:0;enable-background:accumulate"
       id="path8655-6-38-42"
       inkscape:connector-curvature="0"
       d="M 14.5,11.99996 C 14.5,13.38077 13.38053,14.5 12,14.5 c -1.38068,0 -2.5,-1.11949 -2.5,-2.50004 0,-1.38071 1.11932,-2.499962 2.50003,-2.499962 1.3806,0 2.49997,1.119232 2.49997,2.499962 z" />
    <path
       style="fill:url(#radialGradient3134);fill-opacity:1;stroke:none"
       id="path2555-36-5-6"
       inkscape:connector-curvature="0"
       d="m 12,9.999998 c -1.10358,0 -2,0.896512 -2,2.000002 0,1.10358 0.89651,2 2,2 1.10358,0 2,-0.89651 2,-2 0,-1.10358 -0.89651,-2.000002 -2,-2.000002 z" />
    <path
       style="color:#000000;fill:url(#linearGradient3131);fill-opacity:1;fill-rule:nonzero;stroke:none;stroke-width:2.13625455;marker:none;visibility:visible;display:inline;overflow:visible;enable-background:accumulate"
       id="path3200-9"
       inkscape:connector-curvature="0"
       d="m 13.2766,12 a 1.2766,1.2766 0 0 1 -2.5532,0 1.2766,1.2766 0 1 1 2.5532,0 z" />
    <path
       style="fill:url(#radialGradient3128);fill-opacity:1;stroke:none"
       id="path2555-3-4-6"
       inkscape:connector-curvature="0"
       d="m 12,11 c -0.55175,0 -1,0.44822 -1,1 0,0.55175 0.44825,1 1,1 0.55175,0 1,-0.44822 1,-1 0,-0.55175 -0.44822,-1 -1,-1 z" />
    <path
       style="opacity:0.5;fill:url(#radialGradient3125);fill-opacity:1;stroke:none"
       id="path2555-3-3-5"
       inkscape:connector-curvature="0"
       d="m 12,11 c -0.55175,0 -1,0.44823 -1,1 0,0.55175 0.44825,1 1,1 0.55175,0 1,-0.44822 1,-1 0,-0.55175 -0.44822,-1 -1,-1 z" />
    <path
       style="opacity:0.5;color:#000000;fill:url(#linearGradient3122);fill-opacity:1;stroke:none;stroke-width:1;marker:none;visibility:visible;display:inline;overflow:visible;enable-background:accumulate"
       id="path3220-7-0"
       inkscape:connector-curvature="0"
       d="m 12.5,11.56989 a 0.5,0.37500011 0 0 1 -1,0 0.5,0.37500011 0 1 1 1,0 z" />
    <path
       style="opacity:0.9;color:#000000;fill:none;stroke:url(#linearGradient3119);stroke-width:0.99999982;stroke-linecap:round;stroke-linejoin:round;stroke-miterlimit:4;stroke-opacity:1;stroke-dasharray:none;stroke-dashoffset:0;enable-background:accumulate"
       id="path8655-6-38-7-6"
       inkscape:connector-curvature="0"
       d="m 11.99998,10.5 c 0.82848,0 1.50002,0.67168 1.50002,1.5 0,0.82841 -0.67169,1.5 -1.50002,1.5 C 11.17155,13.5 10.5,12.82841 10.5,11.99998 10.5,11.17162 11.17154,10.5 11.99998,10.5 z" />
  </g>
</svg>
