<?xml version="1.0" encoding="UTF-8" standalone="no"?>
<svg xmlns="http://www.w3.org/2000/svg" xmlns:xlink="http://www.w3.org/1999/xlink" xmlns:sodipodi="http://sodipodi.sourceforge.net/DTD/sodipodi-0.dtd" xmlns:inkscape="http://www.inkscape.org/namespaces/inkscape" version="1.1" width="16" height="16">
 <defs id="defs4062">
  <linearGradient inkscape:collect="always" xlink:href="#linearGradient3934" id="linearGradient3867" y1="16" x2="0" y2="0" gradientUnits="userSpaceOnUse"/>
  <linearGradient id="linearGradient3934">
   <stop id="stop3936" stop-color="#dd2f03"/>
   <stop offset="1" id="stop3938" stop-color="#e96300"/>
  </linearGradient>
 </defs>
 <metadata id="metadata4065"/>
 <g inkscape:groupmode="layer" id="layer1" inkscape:label="Background">
  <rect id="rect5505-21-7" y="0.5" x="0.504" rx="1.154" height="15" width="15" fill="url(#linearGradient3867)" color="#000000"/>
  <rect width="15" height="15" rx="1.154" x="0.504" y="0.5" id="rect3018" opacity="0.61" fill="none" stroke="#640000" color="#000000"/>
  <path d="M 1.65625 1 C 1.2853706 1 1 1.2853706 1 1.65625 L 1 2.65625 C 1 2.2853706 1.2853706 2 1.65625 2 L 14.34375 2 C 14.714629 2 15 2.2853706 15 2.65625 L 15 1.65625 C 15 1.2853706 14.714629 1 14.34375 1 L 1.65625 1 z " id="rect3788" opacity="0.1" fill="#ffffff" color="#000000"/>
  <path id="path3805" d="M 1.78125,16 C 1.4103706,16 1.125,15.714629 1.125,15.34375 l 0,-1 C 1.125,14.714629 1.4103706,15 1.78125,15 l 12.6875,0 c 0.370879,0 0.65625,-0.285371 0.65625,-0.65625 l 0,1 C 15.125,15.714629 14.839629,16 14.46875,16 l -12.6875,0 z" inkscape:connector-curvature="0" opacity="0.3" color="#000000"/>
 </g>
 <g inkscape:groupmode="layer" id="layer2" inkscape:label="Symbol">
  <g id="g4024" transform="translate(-800.50019,178.125)" opacity="0.2" enable-background="new">
   <path sodipodi:nodetypes="sssss" id="path4026" d="m 805.50019,-168.125 c -1.10457,0 -2,0.89543 -2,2 0,1.10457 0.89543,2 2,2 1.10457,0 2,-0.89543 2,-2 0,-1.10457 -0.89543,-2 -2,-2 z" inkscape:connector-curvature="0" color="#bebebe" stroke-width="4"/>
   <path sodipodi:nodetypes="cccccccccc" inkscape:connector-curvature="0" id="path4028" d="m 813.50019,-174.74987 c 0,0.125 -7,1.25 -7,1.25 l 0,7.37487 1,0 0,-5.34112 5,-0.9375 0,5.27862 1,0 0,-6.49987 z" color="#000000" stroke-width="2"/>
   <path sodipodi:nodetypes="sssss" id="path4030" d="m 811.50019,-169.125 c -1.10457,0 -2,0.89543 -2,2 0,1.10457 0.89543,2 2,2 1.10457,0 2,-0.89543 2,-2 0,-1.10457 -0.89543,-2 -2,-2 z" inkscape:connector-curvature="0" color="#bebebe" stroke-width="4"/>
  </g>
  <g transform="translate(-800.50019,177.12499)" id="g3943" fill="#ffffff" enable-background="new">
   <path inkscape:connector-curvature="0" d="m 805.50019,-168.125 c -1.10457,0 -2,0.89543 -2,2 0,1.10457 0.89543,2 2,2 1.10457,0 2,-0.89543 2,-2 0,-1.10457 -0.89543,-2 -2,-2 z" id="path3945" sodipodi:nodetypes="sssss" color="#bebebe" stroke-width="4"/>
   <path d="m 813.50019,-174.74987 c 0,0.125 -7,1.25 -7,1.25 l 0,7.37487 1,0 0,-5.34112 5,-0.9375 0,5.27862 1,0 0,-6.49987 z" id="path3947" inkscape:connector-curvature="0" sodipodi:nodetypes="cccccccccc" color="#000000" stroke-width="2"/>
   <path inkscape:connector-curvature="0" d="m 811.50019,-169.125 c -1.10457,0 -2,0.89543 -2,2 0,1.10457 0.89543,2 2,2 1.10457,0 2,-0.89543 2,-2 0,-1.10457 -0.89543,-2 -2,-2 z" id="path3949" sodipodi:nodetypes="sssss" color="#bebebe" stroke-width="4"/>
  </g>
 </g>
</svg>
