<?xml version="1.0" encoding="UTF-8" standalone="no"?>
<svg xmlns="http://www.w3.org/2000/svg" xmlns:xlink="http://www.w3.org/1999/xlink" xmlns:sodipodi="http://sodipodi.sourceforge.net/DTD/sodipodi-0.dtd" xmlns:inkscape="http://www.inkscape.org/namespaces/inkscape" width="16" height="16" version="1.1">
 <defs id="defs5402">
  <linearGradient id="linearGradient4313">
   <stop id="stop4315" stop-color="#3e3e3e"/>
   <stop offset="0.262" id="stop4318" stop-color="#343434"/>
   <stop offset="0.705" id="stop4320" stop-color="#272727"/>
   <stop offset="1" id="stop4322" stop-color="#1d1d1d"/>
  </linearGradient>
  <linearGradient inkscape:collect="always" xlink:href="#linearGradient3988" id="linearGradient6402" gradientUnits="userSpaceOnUse" gradientTransform="matrix(0,-0.05,0.05,0,-180.75031,-1391.8)" y1="280" x2="0" y2="40"/>
  <linearGradient id="linearGradient3988">
   <stop id="stop3990" stop-color="#f1f1f1"/>
   <stop offset="1" id="stop3992" stop-color="#f4f4f4"/>
  </linearGradient>
  <linearGradient inkscape:collect="always" xlink:href="#outerBackgroundGradient" id="linearGradient6404" gradientUnits="userSpaceOnUse" gradientTransform="matrix(0,-0.04166667,0.04166667,0,-179.29196,-1393)" y1="280" x2="0" y2="40"/>
  <linearGradient id="outerBackgroundGradient">
   <stop id="stop3864-8-6" stop-color="#8c166c"/>
   <stop id="stop4409" offset="0.362" stop-color="#ca3561"/>
   <stop offset="1" id="stop3866-9-1" stop-color="#f38f4e"/>
  </linearGradient>
  <linearGradient inkscape:collect="always" xlink:href="#linearGradient4094" id="linearGradient6406" gradientUnits="userSpaceOnUse" x1="324" x2="332"/>
  <linearGradient id="linearGradient4094">
   <stop id="stop4096" stop-color="#e28192"/>
   <stop id="stop4317" offset="0.259" stop-color="#f7d6c7"/>
   <stop offset="1" id="stop4098" stop-color="#fffee4"/>
  </linearGradient>
  <linearGradient inkscape:collect="always" xlink:href="#linearGradient3101-46" id="linearGradient3110" gradientUnits="userSpaceOnUse" gradientTransform="matrix(0.13513513,0,0,0.13513507,0.40003019,10.510808)" y1="6.238" x2="0" y2="44.34"/>
  <linearGradient y1="6.238" x2="0" y2="44.34" id="linearGradient3101-46" gradientUnits="userSpaceOnUse" gradientTransform="matrix(0.5135135,0,0,0.5135135,-24.836132,-1.021284)">
   <stop id="stop4013-8-6" stop-color="#ffffff"/>
   <stop id="stop4015-11-8" offset="0.508" stop-color="#ffffff" stop-opacity="0.235"/>
   <stop id="stop4017-4-7" offset="0.835" stop-color="#ffffff" stop-opacity="0.157"/>
   <stop id="stop4019-3-8" offset="1" stop-color="#ffffff" stop-opacity="0.392"/>
  </linearGradient>
  <linearGradient inkscape:collect="always" xlink:href="#linearGradient4270-7-5-1" id="linearGradient3113" gradientUnits="userSpaceOnUse" gradientTransform="matrix(0.36363634,0,0,0.36363634,6.0891102,-0.98144121)" y1="24.735" x2="0" y2="46.702"/>
  <linearGradient id="linearGradient4270-7-5-1">
   <stop id="stop4272-8-7-3" stop-opacity="0.328"/>
   <stop id="stop4274-6-3-6" offset="1" stop-opacity="0.68"/>
  </linearGradient>
  <linearGradient inkscape:collect="always" xlink:href="#linearGradient8265-821-176-38-919-66-249-7-7-1-5-7-842-3" id="linearGradient3116" gradientUnits="userSpaceOnUse" gradientTransform="matrix(0.1363452,0,0,0.18378386,8.71941,8.0022984)" x1="16.626" y1="15.298" x2="20.05" y2="24.628"/>
  <linearGradient id="linearGradient8265-821-176-38-919-66-249-7-7-1-5-7-842-3">
   <stop id="stop5135-1" stop-color="#ffffff"/>
   <stop id="stop5137-8" offset="1" stop-color="#ffffff" stop-opacity="0"/>
  </linearGradient>
  <linearGradient inkscape:collect="always" xlink:href="#linearGradient4174-396-4" id="linearGradient3119" gradientUnits="userSpaceOnUse" gradientTransform="matrix(0,-0.0909091,0.0909091,0,9.09092,20.727269)" x1="79" x2="122.71"/>
  <linearGradient id="linearGradient4174-396-4">
   <stop id="stop5101-1" stop-opacity="0.736"/>
   <stop id="stop5103-2" offset="1" stop-opacity="0.096"/>
  </linearGradient>
  <linearGradient inkscape:collect="always" xlink:href="#linearGradient8265-821-176-38-919-66-249-7-7-1-5-7-842-3" id="linearGradient3122" gradientUnits="userSpaceOnUse" gradientTransform="matrix(0.04376593,0,0,0.03282445,9.07143,9.457648)" y1="52.925" x2="0" y2="65.922"/>
  <radialGradient inkscape:collect="always" xlink:href="#linearGradient4278-757-5" id="radialGradient3125" gradientUnits="userSpaceOnUse" gradientTransform="matrix(0.13501499,-2.0132531e-8,1.8916035e-8,0.12685679,-0.9605497,-0.15043121)" cx="95.84" cy="95.39" r="9.498"/>
  <linearGradient id="linearGradient4278-757-5">
   <stop id="stop5107-6" stop-opacity="0"/>
   <stop id="stop5109-76" offset="0.5" stop-opacity="0"/>
   <stop id="stop5111-8" offset="1"/>
  </linearGradient>
  <radialGradient inkscape:collect="always" xlink:href="#linearGradient2867-449-88-871-390-598-476-591-434-148-57-177-691-923-3" id="radialGradient3128" gradientUnits="userSpaceOnUse" gradientTransform="matrix(0,0.11731521,-0.15485401,0,12.61787,8.1211784)" cx="23.896" cy="3.99" r="20.397"/>
  <linearGradient id="linearGradient2867-449-88-871-390-598-476-591-434-148-57-177-691-923-3">
   <stop id="stop5181-3" stop-color="#432f91"/>
   <stop id="stop5183-3" offset="1" stop-color="#1972a2"/>
  </linearGradient>
  <linearGradient inkscape:collect="always" xlink:href="#linearGradient3087-408-4-672-8-5-2" id="linearGradient3131" gradientUnits="userSpaceOnUse" gradientTransform="matrix(0.09879011,0,0,0.09995268,28.49201,5.7924984)" y1="49.33" x2="0" y2="73.35"/>
  <linearGradient y1="3.082" x2="0" y2="45.37" id="linearGradient3087-408-4-672-8-5-2" gradientUnits="userSpaceOnUse" gradientTransform="matrix(0.22110724,0,0,0.22110728,6.6934256,6.693263)">
   <stop id="stop5153-9-6-3" stop-color="#232323"/>
   <stop id="stop5155-8-8-9" offset="1" stop-color="#747474"/>
  </linearGradient>
  <radialGradient inkscape:collect="always" xlink:href="#linearGradient3707-319-631-407-324-616-79-9" id="radialGradient3134" gradientUnits="userSpaceOnUse" gradientTransform="matrix(0,0.19508946,-0.25751464,0,13.02296,5.2222484)" cx="24.78" cy="4.077" r="20.397"/>
  <linearGradient id="linearGradient3707-319-631-407-324-616-79-9">
   <stop id="stop5194-0" stop-color="#787878"/>
   <stop id="stop5196-7" offset="1" stop-color="#474747"/>
  </linearGradient>
  <linearGradient inkscape:collect="always" xlink:href="#linearGradient3101-46" id="linearGradient3137" gradientUnits="userSpaceOnUse" gradientTransform="matrix(0.13513513,0,0,0.13513726,2.3062802,8.5732484)" y1="6.238" x2="0" y2="44.34"/>
  <radialGradient inkscape:collect="always" xlink:href="#linearGradient4313" id="radialGradient3140" gradientUnits="userSpaceOnUse" gradientTransform="matrix(0,0.14982901,-0.17475775,0,16.02459,8.9813484)" cx="10.229" cy="22.955" r="20"/>
  <linearGradient inkscape:collect="always" xlink:href="#linearGradient4077-488-880-992-3" id="linearGradient3142" gradientUnits="userSpaceOnUse" gradientTransform="matrix(0.06666669,0,0,0.06666669,5.6000002,5.5999984)" y1="73.44" x2="0" y2="118.83"/>
  <linearGradient id="linearGradient4077-488-880-992-3">
   <stop id="stop5085-9" stop-color="#1b1b1b"/>
   <stop id="stop5087-8" offset="1"/>
  </linearGradient>
  <radialGradient inkscape:collect="always" xlink:href="#radialGradient3093-718-5" id="radialGradient3145" gradientUnits="userSpaceOnUse" gradientTransform="matrix(0,0.41062756,-0.54202111,0,14.162732,-1.5763731)" cx="23.896" cy="3.99" r="20.397"/>
  <radialGradient cx="23.896" cy="3.99" r="20.397" id="radialGradient3093-718-5" gradientUnits="userSpaceOnUse" gradientTransform="matrix(0,1.2316483,-1.625754,0,18.486966,-28.721977)">
   <stop id="stop5115-1" stop-color="#898989"/>
   <stop id="stop5117-2" offset="0.262" stop-color="#555555"/>
   <stop id="stop5119-0" offset="0.661" stop-color="#3e3e3e"/>
   <stop id="stop5121-3" offset="1"/>
  </radialGradient>
  <radialGradient cx="62.63" cy="4.625" r="10.625" id="radialGradient3109-1" gradientUnits="userSpaceOnUse" gradientTransform="matrix(1.1294118,0,0,0.2823525,-58.729414,19.694118)">
   <stop id="stop8840-3-5"/>
   <stop id="stop8842-5-9" offset="1" stop-opacity="0"/>
  </radialGradient>
  <radialGradient r="10.625" cy="4.625" cx="62.63" gradientTransform="matrix(0.30037568,0,0,0.0750938,-6.9812398,14.5144)" gradientUnits="userSpaceOnUse" id="radialGradient3260" xlink:href="#radialGradient3109-1" inkscape:collect="always"/>
 </defs>
 <metadata id="metadata5405"/>
 <g id="layer1" inkscape:label="Layer 1" inkscape:groupmode="layer">
  <g id="g6374" transform="matrix(0.98480776,0.17364818,-0.17364818,0.98480776,-1399.7872,-64.561788)" enable-background="new">
   <rect id="rect6376" width="10" height="12" x="-178" y="-1405" transform="matrix(0,1,-1,0,0,0)" opacity="0.41" stroke="#000000" stroke-linejoin="round" color="#bebebe" stroke-width="2" rx="0"/>
   <rect transform="matrix(0,1,-1,0,0,0)" y="-1405" x="-178" height="12" width="10" id="rect6378" fill="url(#linearGradient6402)" stroke="#000000" color="#bebebe" stroke-width="0" rx="0"/>
   <rect id="rect6380" width="8" height="10" x="-177" y="-1404" transform="matrix(0,1,-1,0,0,0)" fill="url(#linearGradient6404)" stroke="#000000" color="#bebebe" stroke-width="0" rx="0"/>
   <g id="g6382" transform="matrix(0.83333333,0,0,0.83333333,234.41667,-32.270878)">
    <rect y="-165.65" x="1391.5" height="1.059" width="12" id="rect6384" opacity="0.3" color="#000000" stroke-width="6"/>
    <path transform="matrix(0.35294118,0,0,0.35294118,1279.3228,-259.40249)" d="m 332,260 c 0,2.20914 -1.79086,4 -4,4 -2.20914,0 -4,-1.79086 -4,-4 0,-2.20914 1.79086,-4 4,-4 2.20914,0 4,1.79086 4,4 z" sodipodi:ry="4" sodipodi:rx="4" sodipodi:cy="260" sodipodi:cx="328" id="path6386" sodipodi:type="arc" opacity="0.1" fill="none" stroke="#fed8cd" color="#000000" stroke-width="13.6"/>
    <path sodipodi:type="arc" id="path6388" sodipodi:cx="328" sodipodi:cy="260" sodipodi:rx="4" sodipodi:ry="4" d="m 332,260 c 0,2.20914 -1.79086,4 -4,4 -2.20914,0 -4,-1.79086 -4,-4 0,-2.20914 1.79086,-4 4,-4 2.20914,0 4,1.79086 4,4 z" transform="matrix(0.35294118,0,0,0.35294118,1279.3228,-259.40249)" opacity="0.1" fill="none" stroke="#fed8cd" color="#000000" stroke-width="6.8"/>
    <path transform="matrix(0,-0.35294118,0.35294118,0,1303.3228,-51.873061)" d="m 332,260 c 0,2.20914 -1.79086,4 -4,4 -2.20914,0 -4,-1.79086 -4,-4 0,-2.20914 1.79086,-4 4,-4 2.20914,0 4,1.79086 4,4 z" sodipodi:ry="4" sodipodi:rx="4" sodipodi:cy="260" sodipodi:cx="328" id="path6390" sodipodi:type="arc" fill="url(#linearGradient6406)" fill-rule="evenodd" color="#000000" stroke-width="14"/>
    <path sodipodi:nodetypes="cczszszszszszszcccccccccc" inkscape:connector-curvature="0" id="path6392" d="m 1391.5,-165.64808 0,-0.35294 c 0,0 0.8908,-0.5882 1.1412,-0.63951 0.2505,-0.0513 0.5463,-0.009 0.8502,0.0478 0.304,0.0572 0.7578,0.13451 0.8994,0.13936 0.1416,0.005 0.3979,-0.0125 0.6957,-0.0302 0.2978,-0.0177 0.7909,-0.034 0.9447,-0.0322 0.1538,0.002 0.5377,0.0213 0.947,0.0462 0.4093,0.0249 0.9714,0.0669 1.0989,0.0786 0.1276,0.0117 0.2775,0.0332 0.4476,0.0567 0.1702,0.0234 0.4647,0.0584 0.5689,0.0681 0.1042,0.01 0.3458,0.0427 0.626,0.0686 0.2803,0.0258 0.7289,0.0347 0.8584,0.025 0.1295,-0.01 0.401,-0.10548 0.7036,-0.19386 0.3026,-0.0884 0.6362,-0.16933 0.89,-0.1493 0.2538,0.0201 1.3284,0.51474 1.3284,0.51474 l 0,0.35294 -1.5,0 -1.5,0 -1.5,0 -1.5,0 -1.5,0 -1.5,0 -1.5,0 z"/>
    <path d="m 1391.5,-165.64807 0,0.23029 c 0,0 0.8908,0.38376 1.1412,0.41725 0.2505,0.0335 0.5463,0.006 0.8502,-0.0311 0.304,-0.0373 0.7578,-0.0878 0.8994,-0.0909 0.1416,-0.004 0.3979,0.008 0.6957,0.0198 0.2978,0.0116 0.7909,0.0222 0.9447,0.0208 0.1538,0 0.5377,-0.0138 0.947,-0.03 0.4093,-0.0162 0.9714,-0.0437 1.0989,-0.0513 0.1276,-0.008 0.2775,-0.0215 0.4476,-0.037 0.1702,-0.0152 0.4647,-0.0381 0.5689,-0.0444 0.1042,-0.006 0.3458,-0.0279 0.626,-0.0448 0.2803,-0.0169 0.7289,-0.0226 0.8584,-0.0162 0.1295,0.006 0.401,0.0688 0.7036,0.12649 0.3026,0.0577 0.6362,0.11047 0.89,0.0974 0.2538,-0.013 1.3284,-0.33582 1.3284,-0.33582 l 0,-0.23026 -1.5,0 -1.5,0 -1.5,0 -1.5,0 -1.5,0 -1.5,0 -1.5,0 z" id="path6394" inkscape:connector-curvature="0" sodipodi:nodetypes="cczszszszszszszcccccccccc" opacity="0.9"/>
   </g>
  </g>
  <g id="g6362" transform="translate(-1391,181.00027)" enable-background="new">
   <rect transform="matrix(0,1,-1,0,0,0)" y="-1405" x="-178" height="12" width="10" id="rect6270" opacity="0.41" stroke="#000000" stroke-linejoin="round" color="#bebebe" stroke-width="2" rx="0"/>
   <rect id="rect5498" width="10" height="12" x="-178" y="-1405" transform="matrix(0,1,-1,0,0,0)" fill="url(#linearGradient6402)" stroke="#000000" color="#bebebe" stroke-width="0" rx="0"/>
   <rect transform="matrix(0,1,-1,0,0,0)" y="-1404" x="-177" height="10" width="8" id="rect3373" fill="url(#linearGradient6404)" color="#bebebe" stroke-width="0" rx="0"/>
   <g transform="matrix(0.83333333,0,0,0.83333333,234.41667,-32.270878)" id="g6352">
    <rect id="rect4145" width="12" height="1.059" x="1391.5" y="-165.65" opacity="0.3" color="#000000" stroke-width="6"/>
    <path sodipodi:type="arc" id="path4135" sodipodi:cx="328" sodipodi:cy="260" sodipodi:rx="4" sodipodi:ry="4" d="m 332,260 c 0,2.20914 -1.79086,4 -4,4 -2.20914,0 -4,-1.79086 -4,-4 0,-2.20914 1.79086,-4 4,-4 2.20914,0 4,1.79086 4,4 z" transform="matrix(0.35294118,0,0,0.35294118,1279.3228,-259.40249)" opacity="0.1" fill="none" stroke="#fed8cd" color="#000000" stroke-width="13.6"/>
    <path transform="matrix(0.35294118,0,0,0.35294118,1279.3228,-259.40249)" d="m 332,260 c 0,2.20914 -1.79086,4 -4,4 -2.20914,0 -4,-1.79086 -4,-4 0,-2.20914 1.79086,-4 4,-4 2.20914,0 4,1.79086 4,4 z" sodipodi:ry="4" sodipodi:rx="4" sodipodi:cy="260" sodipodi:cx="328" id="path4133" sodipodi:type="arc" opacity="0.1" fill="none" stroke="#fed8cd" color="#000000" stroke-width="6.8"/>
    <path sodipodi:type="arc" id="path4139" sodipodi:cx="328" sodipodi:cy="260" sodipodi:rx="4" sodipodi:ry="4" d="m 332,260 c 0,2.20914 -1.79086,4 -4,4 -2.20914,0 -4,-1.79086 -4,-4 0,-2.20914 1.79086,-4 4,-4 2.20914,0 4,1.79086 4,4 z" transform="matrix(0,-0.35294118,0.35294118,0,1303.3228,-51.873061)" fill="url(#linearGradient6406)" fill-rule="evenodd" color="#000000" stroke-width="14"/>
    <path d="m 1391.5,-165.64808 0,-0.35294 c 0,0 0.8908,-0.5882 1.1412,-0.63951 0.2505,-0.0513 0.5463,-0.009 0.8502,0.0478 0.304,0.0572 0.7578,0.13451 0.8994,0.13936 0.1416,0.005 0.3979,-0.0125 0.6957,-0.0302 0.2978,-0.0177 0.7909,-0.034 0.9447,-0.0322 0.1538,0.002 0.5377,0.0213 0.947,0.0462 0.4093,0.0249 0.9714,0.0669 1.0989,0.0786 0.1276,0.0117 0.2775,0.0332 0.4476,0.0567 0.1702,0.0234 0.4647,0.0584 0.5689,0.0681 0.1042,0.01 0.3458,0.0427 0.626,0.0686 0.2803,0.0258 0.7289,0.0347 0.8584,0.025 0.1295,-0.01 0.401,-0.10548 0.7036,-0.19386 0.3026,-0.0884 0.6362,-0.16933 0.89,-0.1493 0.2538,0.0201 1.3284,0.51474 1.3284,0.51474 l 0,0.35294 -1.5,0 -1.5,0 -1.5,0 -1.5,0 -1.5,0 -1.5,0 -1.5,0 z" id="path4141" inkscape:connector-curvature="0" sodipodi:nodetypes="cczszszszszszszcccccccccc"/>
    <path sodipodi:nodetypes="cczszszszszszszcccccccccc" inkscape:connector-curvature="0" id="path4143" d="m 1391.5,-165.64807 0,0.23029 c 0,0 0.8908,0.38376 1.1412,0.41725 0.2505,0.0335 0.5463,0.006 0.8502,-0.0311 0.304,-0.0373 0.7578,-0.0878 0.8994,-0.0909 0.1416,-0.004 0.3979,0.008 0.6957,0.0198 0.2978,0.0116 0.7909,0.0222 0.9447,0.0208 0.1538,0 0.5377,-0.0138 0.947,-0.03 0.4093,-0.0162 0.9714,-0.0437 1.0989,-0.0513 0.1276,-0.008 0.2775,-0.0215 0.4476,-0.037 0.1702,-0.0152 0.4647,-0.0381 0.5689,-0.0444 0.1042,-0.006 0.3458,-0.0279 0.626,-0.0448 0.2803,-0.0169 0.7289,-0.0226 0.8584,-0.0162 0.1295,0.006 0.401,0.0688 0.7036,0.12649 0.3026,0.0577 0.6362,0.11047 0.89,0.0974 0.2538,-0.013 1.3284,-0.33582 1.3284,-0.33582 l 0,-0.23026 -1.5,0 -1.5,0 -1.5,0 -1.5,0 -1.5,0 -1.5,0 -1.5,0 z" opacity="0.9"/>
   </g>
   <path d="m 1404,-177.00028 0,8 -10,0 0,-8 10,0 z m -1,1 -8,0 0,6 8,0 0,-6 z" id="rect7398" inkscape:connector-curvature="0" opacity="0.15" color="#bebebe" stroke-width="0"/>
  </g>
  <rect id="rect7403" width="12" height="1" x="1" y="3" opacity="0.15" fill="#ffffff"/>
  <path id="path8836-6" inkscape:connector-curvature="0" d="m 15.02128,14.86171 c 0,0.44066 -1.42888,0.79787 -3.19149,0.79787 -1.76261,0 -3.19149,-0.35718 -3.19149,-0.79787 0,-0.4407 1.42888,-0.79788 3.19149,-0.79788 1.76261,0 3.19149,0.35721 3.19149,0.79788 z" opacity="0.4" fill="url(#radialGradient3260)" fill-rule="evenodd"/>
  <path id="path2555-36-9-2" inkscape:connector-curvature="0" d="m 12,8.4999981 c -1.931265,0 -3.5,1.5688999 -3.5,3.5000019 0,1.931265 1.568898,3.5 3.5,3.5 1.931265,0 3.5,-1.568898 3.5,-3.5 0,-1.931265 -1.568898,-3.5000019 -3.5,-3.5000019 z" fill="url(#radialGradient3145)"/>
  <path id="path2555-36-4-3-8" inkscape:connector-curvature="0" d="m 12,10.5 c -0.82769,0 -1.5,0.67239 -1.5,1.5 0,0.82769 0.67239,1.5 1.5,1.5 0.82769,0 1.5,-0.67238 1.5,-1.5 0,-0.82769 -0.67239,-1.5 -1.5,-1.5 z" fill="url(#radialGradient3140)" stroke="url(#linearGradient3142)" color="#000000"/>
  <path id="path4681-1" inkscape:connector-curvature="0" d="M 12,7.9999984 C 9.79086,7.9999984 8,9.790858 8,12 c 0,2.20914 1.79086,4 4,4 2.20914,0 4,-1.79086 4,-4 0,-2.209142 -1.79086,-4.0000016 -4,-4.0000016 z" opacity="0.8" fill="url(#linearGradient3113)" color="#000000"/>
  <path id="path8655-6-38-42" inkscape:connector-curvature="0" d="M 14.5,11.99996 C 14.5,13.38077 13.38053,14.5 12,14.5 c -1.38068,0 -2.5,-1.11949 -2.5,-2.50004 0,-1.38071 1.11932,-2.499962 2.50003,-2.499962 1.3806,0 2.49997,1.119232 2.49997,2.499962 z" opacity="0.3" fill="none" stroke="url(#linearGradient3137)" stroke-linejoin="round" stroke-linecap="round" color="#000000"/>
  <path id="path2555-36-5-6" inkscape:connector-curvature="0" d="m 12,9.999998 c -1.10358,0 -2,0.896512 -2,2.000002 0,1.10358 0.89651,2 2,2 1.10358,0 2,-0.89651 2,-2 0,-1.10358 -0.89651,-2.000002 -2,-2.000002 z" fill="url(#radialGradient3134)"/>
  <path id="path3200-9" inkscape:connector-curvature="0" d="m 13.2766,12 a 1.2766,1.2766 0 0 1 -2.5532,0 1.2766,1.2766 0 1 1 2.5532,0 z" fill="url(#linearGradient3131)" color="#000000" stroke-width="2.136"/>
  <path id="path2555-3-4-6" inkscape:connector-curvature="0" d="m 12,11 c -0.55175,0 -1,0.44822 -1,1 0,0.55175 0.44825,1 1,1 0.55175,0 1,-0.44822 1,-1 0,-0.55175 -0.44822,-1 -1,-1 z" fill="url(#radialGradient3128)"/>
  <path id="path2555-3-3-5" inkscape:connector-curvature="0" d="m 12,11 c -0.55175,0 -1,0.44823 -1,1 0,0.55175 0.44825,1 1,1 0.55175,0 1,-0.44822 1,-1 0,-0.55175 -0.44822,-1 -1,-1 z" opacity="0.5" fill="url(#radialGradient3125)"/>
  <path id="path3220-7-0" inkscape:connector-curvature="0" d="m 12.5,11.56989 a 0.5,0.37500011 0 0 1 -1,0 0.5,0.37500011 0 1 1 1,0 z" opacity="0.5" fill="url(#linearGradient3122)" color="#000000"/>
  <path id="path8655-6-38-7-6" inkscape:connector-curvature="0" d="m 11.99998,10.5 c 0.82848,0 1.50002,0.67168 1.50002,1.5 0,0.82841 -0.67169,1.5 -1.50002,1.5 C 11.17155,13.5 10.5,12.82841 10.5,11.99998 10.5,11.17162 11.17154,10.5 11.99998,10.5 z" opacity="0.9" fill="none" stroke="url(#linearGradient3119)" stroke-linejoin="round" stroke-linecap="round" color="#000000"/>
 </g>
</svg>
