<?xml version='1.0' encoding='UTF-8' standalone='no'?>
<svg height="16" xmlns:inkscape="http://www.inkscape.org/namespaces/inkscape" xmlns:sodipodi="http://sodipodi.sourceforge.net/DTD/sodipodi-0.dtd" version="1.1" width="16" xmlns="http://www.w3.org/2000/svg" enable-background="new">
 <metadata id="metadata90"/>
 <defs id="defs7386">
  <linearGradient id="linearGradient5606" osb:paint="solid">
   <stop id="stop5608"/>
  </linearGradient>
  <filter inkscape:collect="always" color-interpolation-filters="sRGB" id="filter7554">
   <feBlend inkscape:collect="always" id="feBlend7556" in2="BackgroundImage" mode="darken"/>
  </filter>
 </defs>
 <g inkscape:groupmode="layer" id="g6058" inkscape:label="apps" transform="translate(-512,-508)">
  <path inkscape:connector-curvature="0" d="m 520,508 c -4.41828,0 -8,3.58172 -8,8 0,4.41828 3.58172,8 8,8 4.41828,0 8,-3.58172 8,-8 0,-4.41828 -3.58172,-8 -8,-8 z m 0,2 a 6,6 0 0 1 6,6 6,6 0 0 1 -6,6 6,6 0 0 1 -6,-6 6,6 0 0 1 6,-6 z" id="path6194" fill="#bebebe" color="#000000" stroke-width="2"/>
  <path inkscape:connector-curvature="0" d="m 519.9668,511 c -0.68883,0 -1.2461,0.55923 -1.2461,1.24805 0,0.68883 0.55727,1.24609 1.2461,1.24609 0.68882,0 1.24804,-0.55726 1.24804,-1.24609 0,-0.68882 -0.55922,-1.24805 -1.24804,-1.24805 z m -3.97852,3 c -0.27088,0 -0.48828,0.2174 -0.48828,0.48828 l 0,0.0234 c 0,0.27088 0.2174,0.48828 0.48828,0.48828 L 518.5,515.25 l 0,1.75 -1.43164,2.74801 c -0.36601,0.58317 0.53548,1.10937 0.86328,0.5039 L 519.53711,518 l 0.92578,0 1.60547,2.25195 c 0.3278,0.60547 1.22929,0.0793 0.86328,-0.5039 L 521.5,517 l 0,-1.75 2.51172,-0.25 c 0.27088,0 0.48828,-0.2174 0.48828,-0.48828 l 0,-0.0234 C 524.5,514.21732 524.2826,514 524.01172,514 z" id="path6327" sodipodi:nodetypes="ssssssssccccccccccccssss" fill="#bebebe" color="#000000" stroke-width="2"/>
 </g>
</svg>
