<?xml version="1.0" encoding="UTF-8" standalone="no"?>
<svg xmlns="http://www.w3.org/2000/svg" xmlns:xlink="http://www.w3.org/1999/xlink" xmlns:sodipodi="http://sodipodi.sourceforge.net/DTD/sodipodi-0.dtd" xmlns:inkscape="http://www.inkscape.org/namespaces/inkscape" version="1.1" width="16" height="16">
 <defs id="defs7541">
  <linearGradient id="linearGradient4929-9-0-03-2-2-2-3-9-7-3-7-7-2-6-3-4-7-3-2-9">
   <stop id="stop4931-7-3-3-9-6-4-6-1-9-5-2-4-0-3-4-8-9-6-1-9" stop-color="#ffffff"/>
   <stop id="stop4933-0-1-2-7-9-6-0-7-8-0-4-1-4-6-6-1-0-2-6-2" offset="1" stop-color="#ffffff" stop-opacity="0"/>
  </linearGradient>
  <linearGradient y2="481.07" x2="0" y1="490.55" gradientTransform="matrix(0.1948052,0,0,0.7142857,-120.79219,-334.99213)" gradientUnits="userSpaceOnUse" id="linearGradient3060" xlink:href="#linearGradient4929-9-0-03-2-2-2-3-9-7-3-7-7-2-6-3-4-7-3-2-9" inkscape:collect="always"/>
  <linearGradient y1="211.08" x2="0" y2="233.83" id="linearGradient3009-7-5" xlink:href="#linearGradient4695-1-4-3-5-0-3-4" gradientUnits="userSpaceOnUse" gradientTransform="matrix(0.04100307,0,0,0.44322346,-20.929242,-88.508712)"/>
  <linearGradient id="linearGradient4695-1-4-3-5-0-3-4">
   <stop id="stop4697-9-9-7-0-1-3-6"/>
   <stop id="stop4699-5-8-9-0-4-9-8" offset="1" stop-opacity="0"/>
  </linearGradient>
  <linearGradient id="linearGradient27416-1-34">
   <stop id="stop27420-2-24" stop-color="#a348b1"/>
   <stop offset="1" id="stop27422-3-0" stop-color="#c596cc"/>
  </linearGradient>
 </defs>
 <metadata id="metadata7544"/>
 <path sodipodi:type="arc" id="path3010-2" sodipodi:cx="7.8014183" sodipodi:cy="9.2765961" sodipodi:rx="5.7304964" sodipodi:ry="5.7304964" d="m 13.531915,9.2765961 a 5.7304964,5.7304964 0 1 1 -11.4609931,0 5.7304964,5.7304964 0 1 1 11.4609931,0 z" transform="matrix(1.1342822,0,0,1.1342822,-0.84900982,-2.5222777)" opacity="0.99" color="#000000" stroke-width="0.882" stroke-linecap="round" fill="#eeeeec" stroke-linejoin="round"/>
 <path sodipodi:type="arc" id="path3010-3" sodipodi:cx="7.8014183" sodipodi:cy="9.2765961" sodipodi:rx="5.7304964" sodipodi:ry="5.7304964" d="m 13.531915,9.2765961 a 5.7304964,5.7304964 0 1 1 -11.4609931,0 5.7304964,5.7304964 0 1 1 11.4609931,0 z" transform="matrix(1.3087872,0,0,1.3087872,-2.210396,-4.1410896)" opacity="0.2" fill="none" stroke="url(#linearGradient3060)" stroke-linejoin="round" stroke-linecap="round" color="#000000" stroke-width="0.764"/>
 <path sodipodi:type="arc" id="path3010" sodipodi:cx="7.8014183" sodipodi:cy="9.2765961" sodipodi:rx="5.7304964" sodipodi:ry="5.7304964" d="m 13.531915,9.2765961 a 5.7304964,5.7304964 0 1 1 -11.4609931,0 5.7304964,5.7304964 0 1 1 11.4609931,0 z" transform="matrix(1.1342822,0,0,1.1342822,-0.84900982,-2.5222779)" opacity="0.5" fill="none" stroke="#2e3436" stroke-linejoin="round" stroke-linecap="round" color="#000000" stroke-width="0.882"/>
 <path sodipodi:type="arc" id="path3010-28" sodipodi:cx="7.8014183" sodipodi:cy="9.2765961" sodipodi:rx="5.7304964" sodipodi:ry="5.7304964" d="m 13.531915,9.2765961 a 5.7304964,5.7304964 0 1 1 -11.4609931,0 5.7304964,5.7304964 0 1 1 11.4609931,0 z" transform="matrix(0.95977724,0,0,0.95977724,0.51237627,-0.90346577)" opacity="0.05" fill="none" stroke="url(#linearGradient3009-7-5)" stroke-linejoin="round" stroke-linecap="round" color="#000000" stroke-width="1.042"/>
</svg>
