<?xml version="1.0" encoding="UTF-8" standalone="no"?>
<svg xmlns="http://www.w3.org/2000/svg" xmlns:sodipodi="http://sodipodi.sourceforge.net/DTD/sodipodi-0.dtd" xmlns:inkscape="http://www.inkscape.org/namespaces/inkscape" height="16" version="1.1" width="16" enable-background="new">
 <metadata id="metadata90"/>
 <defs id="defs7386">
  <linearGradient id="linearGradient5606" osb:paint="solid">
   <stop id="stop5608"/>
  </linearGradient>
  <filter inkscape:collect="always" color-interpolation-filters="sRGB" id="filter7554">
   <feBlend inkscape:collect="always" id="feBlend7556" in2="BackgroundImage" mode="darken"/>
  </filter>
 </defs>
 <g inkscape:groupmode="layer" id="g6058" inkscape:label="apps" transform="translate(-524.00004,-483.99329)">
  <path inkscape:connector-curvature="0" id="path6147" d="m 526.84373,484.99329 c -0.28125,0.0469 -0.84375,0.25 -0.84375,1 l 0,13 c 0,1 1,1 1,1 l 10,0 c 1,0 1,-1 1,-1 0.0131,-0.0322 0.004,-2.84594 0,-5.59375 l -1,1 0,4.59375 -10,0 0,-13 7,0 0,3 3,0 0,0.53125 0.625,-0.625 0.15625,-0.125 -3.78125,-3.78125 -7,0 c 0,0 -0.0625,-0.0156 -0.15625,0 z m 12.34375,4.125 c -0.0741,0.0356 -0.13911,0.0898 -0.1875,0.15625 l -0.5,0.5 -0.15625,-0.15625 -5,5 0.15625,0.15625 -0.5,0.5 0,0.71875 0.6875,-0.0312 0.5,-0.5 0.15625,0.15625 5,-5 -0.15625,-0.15625 0.5,-0.5 c 0.29287,-0.29845 -0.0248,-0.91114 -0.4375,-0.84375 -0.0208,-10e-4 -0.0417,-10e-4 -0.0625,0 z" fill="#bebebe"/>
 </g>
</svg>
