<?xml version="1.0" encoding="UTF-8" standalone="no"?>
<!-- Created with Inkscape (http://www.inkscape.org/) -->

<svg
   xmlns:dc="http://purl.org/dc/elements/1.1/"
   xmlns:cc="http://creativecommons.org/ns#"
   xmlns:rdf="http://www.w3.org/1999/02/22-rdf-syntax-ns#"
   xmlns:svg="http://www.w3.org/2000/svg"
   xmlns="http://www.w3.org/2000/svg"
   xmlns:xlink="http://www.w3.org/1999/xlink"
   xmlns:sodipodi="http://sodipodi.sourceforge.net/DTD/sodipodi-0.dtd"
   xmlns:inkscape="http://www.inkscape.org/namespaces/inkscape"
   version="1.1"
   width="16"
   height="16"
   id="svg4060"
   inkscape:version="0.48.4 r9939"
   sodipodi:docname="utilities-terminal.svg">
  <sodipodi:namedview
     pagecolor="#ffffff"
     bordercolor="#666666"
     borderopacity="1"
     objecttolerance="10"
     gridtolerance="10"
     guidetolerance="10"
     inkscape:pageopacity="0"
     inkscape:pageshadow="2"
     inkscape:window-width="1364"
     inkscape:window-height="700"
     id="namedview28"
     showgrid="false"
     showborder="false"
     inkscape:zoom="1"
     inkscape:cx="3.1451396"
     inkscape:cy="7.2201247"
     inkscape:window-x="0"
     inkscape:window-y="28"
     inkscape:window-maximized="1"
     inkscape:current-layer="layer1">
    <inkscape:grid
       type="xygrid"
       id="grid3838" />
  </sodipodi:namedview>
  <defs
     id="defs4062">
    <linearGradient
       id="linearGradient3785">
      <stop
         offset="0"
         style="stop-color:#505050;stop-opacity:1"
         id="stop3787" />
      <stop
         offset="0.26238"
         style="stop-color:#2b2b2b;stop-opacity:1"
         id="stop3789" />
      <stop
         offset="0.704952"
         style="stop-color:#0a0a0a;stop-opacity:1"
         id="stop3791" />
      <stop
         offset="1"
         style="stop-color:#000000;stop-opacity:1"
         id="stop3793" />
    </linearGradient>
    <linearGradient
       x1="20"
       y1="26.000008"
       x2="20"
       y2="13.000008"
       id="linearGradient3965"
       xlink:href="#linearGradient3680-6-6-6-3-7-4"
       gradientUnits="userSpaceOnUse"
       gradientTransform="matrix(0.34453791,0,0,0.34453791,-0.032751,-0.124165)" />
    <linearGradient
       id="linearGradient3680-6-6-6-3-7-4">
      <stop
         id="stop3682-4-6-1-3-7-5"
         style="stop-color:#dcdcdc;stop-opacity:1"
         offset="0" />
      <stop
         id="stop3684-8-5-8-0-2-3"
         style="stop-color:#ffffff;stop-opacity:1"
         offset="1" />
    </linearGradient>
    <linearGradient
       x1="23.99999"
       y1="4.999989"
       x2="23.99999"
       y2="43"
       id="linearGradient3896"
       xlink:href="#linearGradient3924-4-8"
       gradientUnits="userSpaceOnUse"
       gradientTransform="matrix(0.2972973,0,0,0.2972973,0.86486973,0.8648672)" />
    <linearGradient
       id="linearGradient3924-4-8">
      <stop
         id="stop3926-0-4"
         style="stop-color:#ffffff;stop-opacity:1"
         offset="0" />
      <stop
         id="stop3928-6-8"
         style="stop-color:#ffffff;stop-opacity:0.23529412"
         offset="0.06316455" />
      <stop
         id="stop3930-2-1"
         style="stop-color:#ffffff;stop-opacity:0.15686275"
         offset="0.95056331" />
      <stop
         id="stop3932-9-0"
         style="stop-color:#ffffff;stop-opacity:0.39215687"
         offset="1" />
    </linearGradient>
    <linearGradient
       id="linearGradient2867-449-88-871-390-598-476-591-434-148-57-177-8-3-3-6-4-8-8-8-5-7">
      <stop
         id="stop3750-1-0-7-6-6-1-3-9-3-0"
         style="stop-color:#505050;stop-opacity:1"
         offset="0" />
      <stop
         id="stop3752-3-7-4-0-32-8-923-0-7-8"
         style="stop-color:#2b2b2b;stop-opacity:1"
         offset="0.26238" />
      <stop
         id="stop3754-1-8-5-2-7-6-7-1-9-4"
         style="stop-color:#0a0a0a;stop-opacity:1"
         offset="0.704952" />
      <stop
         id="stop3756-1-6-2-6-6-1-96-6-0-0"
         style="stop-color:#000000;stop-opacity:1"
         offset="1" />
    </linearGradient>
    <radialGradient
       cx="7.1183534"
       cy="9.9571075"
       r="12.671875"
       fx="7.1183534"
       fy="9.9571075"
       id="radialGradient4058"
       xlink:href="#linearGradient2867-449-88-871-390-598-476-591-434-148-57-177-8-3-3-6-4-8-8-8-5-7"
       gradientUnits="userSpaceOnUse"
       gradientTransform="matrix(0,3.0467483,-3.7404337,0,45.520924,-26.295845)" />
    <linearGradient
       inkscape:collect="always"
       xlink:href="#linearGradient5618"
       id="linearGradient4083"
       x1="-1023.8622"
       y1="-808"
       x2="-984.86218"
       y2="-808"
       gradientUnits="userSpaceOnUse"
       gradientTransform="translate(980.3622,784)" />
    <linearGradient
       id="linearGradient5618">
      <stop
         style="stop-color:#3e3e3e;stop-opacity:1;"
         offset="0"
         id="stop5620" />
      <stop
         style="stop-color:#595959;stop-opacity:1;"
         offset="1"
         id="stop5622" />
    </linearGradient>
    <linearGradient
       inkscape:collect="always"
       xlink:href="#linearGradient5618"
       id="linearGradient3867"
       x1="8"
       y1="16"
       x2="8"
       y2="0"
       gradientUnits="userSpaceOnUse" />
    <linearGradient
       inkscape:collect="always"
       xlink:href="#linearGradient5618"
       id="linearGradient3799"
       gradientUnits="userSpaceOnUse"
       x1="8"
       y1="16"
       x2="8"
       y2="0" />
  </defs>
  <metadata
     id="metadata4065">
    <rdf:RDF>
      <cc:Work
         rdf:about="">
        <dc:format>image/svg+xml</dc:format>
        <dc:type
           rdf:resource="http://purl.org/dc/dcmitype/StillImage" />
        <dc:title />
      </cc:Work>
    </rdf:RDF>
  </metadata>
  <g
     inkscape:groupmode="layer"
     id="layer1"
     inkscape:label="Background">
    <rect
       style="color:#000000;fill:url(#linearGradient3867);fill-opacity:1;fill-rule:nonzero;stroke:none;stroke-width:0.99999994;marker:none;visibility:visible;display:inline;overflow:visible;enable-background:accumulate"
       id="rect5505-21-7"
       y="0.5"
       x="0.50437498"
       ry="1.1538461"
       rx="1.1538461"
       height="15"
       width="15" />
    <rect
       width="15"
       height="15"
       rx="1.1538461"
       ry="1.1538461"
       x="0.50437498"
       y="0.5"
       id="rect3018"
       style="color:#000000;fill:none;fill-opacity:1;fill-rule:nonzero;stroke:#000000;stroke-width:0.99999994000000003;marker:none;visibility:visible;display:inline;overflow:visible;enable-background:accumulate;stroke-opacity:1;opacity:0.61" />
    <path
       style="color:#000000;fill:#ffffff;fill-opacity:1;fill-rule:nonzero;stroke:none;stroke-width:0.99999994000000003;marker:none;visibility:visible;display:inline;overflow:visible;enable-background:accumulate;opacity:0.1"
       d="M 1.65625 1 C 1.2853706 1 1 1.2853706 1 1.65625 L 1 2.65625 C 1 2.2853706 1.2853706 2 1.65625 2 L 14.34375 2 C 14.714629 2 15 2.2853706 15 2.65625 L 15 1.65625 C 15 1.2853706 14.714629 1 14.34375 1 L 1.65625 1 z "
       id="rect3788" />
    <path
       id="path3805"
       d="M 1.78125,16 C 1.4103706,16 1.125,15.714629 1.125,15.34375 l 0,-1 C 1.125,14.714629 1.4103706,15 1.78125,15 l 12.6875,0 c 0.370879,0 0.65625,-0.285371 0.65625,-0.65625 l 0,1 C 15.125,15.714629 14.839629,16 14.46875,16 l -12.6875,0 z"
       style="opacity:0.3;color:#000000;fill:#000000;fill-opacity:1;fill-rule:nonzero;stroke:none;stroke-width:0.99999994000000003;marker:none;visibility:visible;display:inline;overflow:visible;enable-background:accumulate"
       inkscape:connector-curvature="0" />
  </g>
  <g
     inkscape:groupmode="layer"
     id="layer2"
     inkscape:label="Symbol"
     style="display:inline">
    <path
       style="opacity:0.2;color:#bebebe;fill:#000000;fill-opacity:1;fill-rule:nonzero;stroke:none;stroke-width:2;marker:none;visibility:visible;display:inline;overflow:visible;enable-background:accumulate"
       d="M 6,7 9,7 9,8 6,8 z"
       id="rect4101"
       inkscape:connector-curvature="0"
       sodipodi:nodetypes="ccccc" />
    <path
       sodipodi:nodetypes="ccccccccccccccccsccccscccccccccscccccccccccccsccc"
       inkscape:connector-curvature="0"
       id="path4105"
       style="font-size:17.2705555px;font-style:normal;font-variant:normal;font-weight:bold;font-stretch:normal;text-align:center;line-height:125%;letter-spacing:0px;word-spacing:0px;text-anchor:middle;opacity:0.2;fill:#000000;fill-opacity:1;stroke:none;font-family:Inconsolata;-inkscape-font-specification:Inconsolata Bold"
       d="M 3.42375,3.673915 4,3.673915 4,4 C 4.15928,4.03185 4.30639,4.0937 4.441315,4.18552 4.57811,4.275475 4.701795,4.386975 4.81236,4.520025 L 4.472235,4.9501 c 0,0 -0.101895,-0.1288 -0.14898,-0.188325 C 4.285755,4.718675 4.235175,4.67651 4.17146,4.635285 4.109615,4.594085 4.043095,4.565015 3.971885,4.548145 l 0,0.846095 c 0.15179,0.04875 0.28578,0.10307 0.401965,0.163035 0.11618,0.05997 0.21269,0.129305 0.289525,0.20801 0.078705,0.078705 0.137735,0.16772 0.17709,0.26704 0.03935,0.097445 0.05903,0.208945 0.05903,0.3345 0,0.11806 -0.0206,0.231435 -0.06184,0.340125 C 4.796405,6.813765 4.73646,6.911215 4.657755,6.99929 4.58092,7.087365 4.48722,7.16326 4.37666,7.226975 4.266095,7.29069 4.14054,7.336605 3.999995,7.364715 l 0,0.3092 -0.576245,0 0,-0.29234 C 3.247595,7.351575 3.078005,7.292565 2.914965,7.20449 2.75193,7.11641 2.6067,7.0021 2.47927,6.861555 l 0.35137,-0.49473 0.163045,0.20239 c 0.06372,0.069335 0.13118,0.128365 0.20239,0.17709 0.073085,0.0487 0.15835,0.08339 0.255795,0.104005 l 0,-1.02881 C 3.31507,5.770905 3.192325,5.714685 3.08364,5.652845 2.97682,5.591005 2.885935,5.52261 2.810975,5.44765 2.73789,5.370815 2.68167,5.28649 2.64232,5.194665 2.60297,5.100965 2.58329,4.998835 2.58329,4.88827 2.58329,4.78333 2.60294,4.68307 2.64232,4.587495 2.68167,4.491925 2.73789,4.405725 2.810975,4.32889 2.88406,4.25206 2.972135,4.18647 3.075205,4.13212 3.180145,4.07591 3.29633,4.03468 3.42376,4.008445 l 0,-0.334505 M 3.9719,6.816575 C 4.07309,6.780975 4.154605,6.730375 4.21645,6.66479 4.280165,6.5992 4.31202,6.51206 4.312025,6.40337 4.31202,6.31342 4.283925,6.234715 4.227695,6.167245 4.173345,6.09979 4.08808,6.04544 3.9719,6.004215 l 0,0.81236 M 3.45187,4.542525 C 3.373165,4.563125 3.30945,4.59968 3.26073,4.65215 3.21198,4.70462 3.187645,4.772085 3.187645,4.85454 c 0,0.05997 0.01965,0.121805 0.059025,0.18552 0.03935,0.063715 0.107755,0.11244 0.2052,0.14617 l 0,-0.643705" />
    <path
       style="color:#bebebe;fill:#ffffff;fill-opacity:1;fill-rule:nonzero;stroke:none;stroke-width:2;marker:none;visibility:visible;display:inline;overflow:visible;enable-background:accumulate"
       d="M 6,6 9,6 9,7 6,7 z"
       id="rect4049"
       inkscape:connector-curvature="0"
       sodipodi:nodetypes="ccccc" />
    <path
       d="M 3.42375,2.673915 4,2.673915 4,3 C 4.15928,3.03185 4.30639,3.0937 4.441315,3.18552 4.57811,3.275475 4.701795,3.386975 4.81236,3.520025 L 4.472235,3.9501 c 0,0 -0.101895,-0.1288 -0.14898,-0.188325 C 4.285755,3.718675 4.235175,3.67651 4.17146,3.635285 4.109615,3.594085 4.043095,3.565015 3.971885,3.548145 l 0,0.846095 c 0.15179,0.04875 0.28578,0.10307 0.401965,0.163035 0.11618,0.05997 0.21269,0.129305 0.289525,0.20801 0.078705,0.078705 0.137735,0.16772 0.17709,0.26704 0.03935,0.097445 0.05903,0.208945 0.05903,0.3345 0,0.11806 -0.0206,0.231435 -0.06184,0.340125 C 4.796405,5.813765 4.73646,5.911215 4.657755,5.99929 4.58092,6.087365 4.48722,6.16326 4.37666,6.226975 4.266095,6.29069 4.14054,6.336605 3.999995,6.364715 l 0,0.3092 -0.576245,0 0,-0.29234 C 3.247595,6.351575 3.078005,6.292565 2.914965,6.20449 2.75193,6.11641 2.6067,6.0021 2.47927,5.861555 l 0.35137,-0.49473 0.163045,0.20239 c 0.06372,0.069335 0.13118,0.128365 0.20239,0.17709 0.073085,0.0487 0.15835,0.08339 0.255795,0.104005 l 0,-1.02881 C 3.31507,4.770905 3.192325,4.714685 3.08364,4.652845 2.97682,4.591005 2.885935,4.52261 2.810975,4.44765 2.73789,4.370815 2.68167,4.28649 2.64232,4.194665 2.60297,4.100965 2.58329,3.998835 2.58329,3.88827 2.58329,3.78333 2.60294,3.68307 2.64232,3.587495 2.68167,3.491925 2.73789,3.405725 2.810975,3.32889 2.88406,3.25206 2.972135,3.18647 3.075205,3.13212 3.180145,3.07591 3.29633,3.03468 3.42376,3.008445 l 0,-0.334505 M 3.9719,5.816575 C 4.07309,5.780975 4.154605,5.730375 4.21645,5.66479 4.280165,5.5992 4.31202,5.51206 4.312025,5.40337 4.31202,5.31342 4.283925,5.234715 4.227695,5.167245 4.173345,5.09979 4.08808,5.04544 3.9719,5.004215 l 0,0.81236 M 3.45187,3.542525 C 3.373165,3.563125 3.30945,3.59968 3.26073,3.65215 3.21198,3.70462 3.187645,3.772085 3.187645,3.85454 c 0,0.05997 0.01965,0.121805 0.059025,0.18552 0.03935,0.063715 0.107755,0.11244 0.2052,0.14617 l 0,-0.643705"
       style="font-size:17.27055550000000039px;font-style:normal;font-variant:normal;font-weight:bold;font-stretch:normal;text-align:center;line-height:125%;letter-spacing:0px;word-spacing:0px;text-anchor:middle;fill:#ffffff;fill-opacity:1;stroke:none;font-family:Inconsolata;-inkscape-font-specification:Inconsolata Bold"
       id="path4053"
       inkscape:connector-curvature="0"
       sodipodi:nodetypes="ccccccccccccccccsccccscccccccccscccccccccccccsccc" />
  </g>
</svg>
