<?xml version="1.0" encoding="UTF-8" standalone="no"?>
<svg
   xmlns:dc="http://purl.org/dc/elements/1.1/"
   xmlns:cc="http://creativecommons.org/ns#"
   xmlns:rdf="http://www.w3.org/1999/02/22-rdf-syntax-ns#"
   xmlns:svg="http://www.w3.org/2000/svg"
   xmlns="http://www.w3.org/2000/svg"
   xmlns:xlink="http://www.w3.org/1999/xlink"
   id="svg4060"
   height="16"
   width="16"
   version="1.1">
  <defs
     id="defs4062">
    <linearGradient
       id="linearGradient5618">
      <stop
         id="stop5620"
         offset="0"
         style="stop-color:#3e3e3e;stop-opacity:1;" />
      <stop
         id="stop5622"
         offset="1"
         style="stop-color:#595959;stop-opacity:1;" />
    </linearGradient>
    <linearGradient
       gradientUnits="userSpaceOnUse"
       y2="0"
       x2="8"
       y1="16"
       x1="8"
       id="linearGradient3867"
       xlink:href="#linearGradient5618" />
  </defs>
  <metadata
     id="metadata4065">
    <rdf:RDF>
      <cc:Work
         rdf:about="">
        <dc:format>image/svg+xml</dc:format>
        <dc:type
           rdf:resource="http://purl.org/dc/dcmitype/StillImage" />
        <dc:title />
      </cc:Work>
    </rdf:RDF>
  </metadata>
  <g
     id="layer1">
    <rect
       width="15"
       height="15"
       rx="1.1538461"
       ry="1.1538461"
       x="0.50437498"
       y="0.5"
       id="rect5505-21-7"
       style="color:#000000;fill:url(#linearGradient3867);fill-opacity:1;fill-rule:nonzero;stroke:none;stroke-width:0.99999994;marker:none;visibility:visible;display:inline;overflow:visible;enable-background:accumulate" />
    <rect
       style="color:#000000;fill:none;fill-opacity:1;fill-rule:nonzero;stroke:#000000;stroke-width:0.99999994000000003;marker:none;visibility:visible;display:inline;overflow:visible;enable-background:accumulate;stroke-opacity:1;opacity:0.61"
       id="rect3018"
       y="0.5"
       x="0.50437498"
       ry="1.1538461"
       rx="1.1538461"
       height="15"
       width="15" />
    <path
       id="rect3788"
       d="M 1.65625 1 C 1.2853706 1 1 1.2853706 1 1.65625 L 1 2.65625 C 1 2.2853706 1.2853706 2 1.65625 2 L 14.34375 2 C 14.714629 2 15 2.2853706 15 2.65625 L 15 1.65625 C 15 1.2853706 14.714629 1 14.34375 1 L 1.65625 1 z "
       style="color:#000000;fill:#ffffff;fill-opacity:1;fill-rule:nonzero;stroke:none;stroke-width:0.99999994000000003;marker:none;visibility:visible;display:inline;overflow:visible;enable-background:accumulate;opacity:0.1" />
    <path
       style="opacity:0.3;color:#000000;fill:#000000;fill-opacity:1;fill-rule:nonzero;stroke:none;stroke-width:0.99999994000000003;marker:none;visibility:visible;display:inline;overflow:visible;enable-background:accumulate"
       d="M 1.78125,16 C 1.4103706,16 1.125,15.714629 1.125,15.34375 l 0,-1 C 1.125,14.714629 1.4103706,15 1.78125,15 l 12.6875,0 c 0.370879,0 0.65625,-0.285371 0.65625,-0.65625 l 0,1 C 15.125,15.714629 14.839629,16 14.46875,16 l -12.6875,0 z"
       id="path3805" />
  </g>
  <g
     style="display:inline"
     id="layer2">
    <path
       id="rect4101"
       d="M 6,7 9,7 9,8 6,8 z"
       style="opacity:0.2;color:#bebebe;fill:#000000;fill-opacity:1;fill-rule:nonzero;stroke:none;stroke-width:2;marker:none;visibility:visible;display:inline;overflow:visible;enable-background:accumulate" />
    <path
       d="M 3.42375,3.673915 4,3.673915 4,4 C 4.15928,4.03185 4.30639,4.0937 4.441315,4.18552 4.57811,4.275475 4.701795,4.386975 4.81236,4.520025 L 4.472235,4.9501 c 0,0 -0.101895,-0.1288 -0.14898,-0.188325 C 4.285755,4.718675 4.235175,4.67651 4.17146,4.635285 4.109615,4.594085 4.043095,4.565015 3.971885,4.548145 l 0,0.846095 c 0.15179,0.04875 0.28578,0.10307 0.401965,0.163035 0.11618,0.05997 0.21269,0.129305 0.289525,0.20801 0.078705,0.078705 0.137735,0.16772 0.17709,0.26704 0.03935,0.097445 0.05903,0.208945 0.05903,0.3345 0,0.11806 -0.0206,0.231435 -0.06184,0.340125 C 4.796405,6.813765 4.73646,6.911215 4.657755,6.99929 4.58092,7.087365 4.48722,7.16326 4.37666,7.226975 4.266095,7.29069 4.14054,7.336605 3.999995,7.364715 l 0,0.3092 -0.576245,0 0,-0.29234 C 3.247595,7.351575 3.078005,7.292565 2.914965,7.20449 2.75193,7.11641 2.6067,7.0021 2.47927,6.861555 l 0.35137,-0.49473 0.163045,0.20239 c 0.06372,0.069335 0.13118,0.128365 0.20239,0.17709 0.073085,0.0487 0.15835,0.08339 0.255795,0.104005 l 0,-1.02881 C 3.31507,5.770905 3.192325,5.714685 3.08364,5.652845 2.97682,5.591005 2.885935,5.52261 2.810975,5.44765 2.73789,5.370815 2.68167,5.28649 2.64232,5.194665 2.60297,5.100965 2.58329,4.998835 2.58329,4.88827 2.58329,4.78333 2.60294,4.68307 2.64232,4.587495 2.68167,4.491925 2.73789,4.405725 2.810975,4.32889 2.88406,4.25206 2.972135,4.18647 3.075205,4.13212 3.180145,4.07591 3.29633,4.03468 3.42376,4.008445 l 0,-0.334505 M 3.9719,6.816575 C 4.07309,6.780975 4.154605,6.730375 4.21645,6.66479 4.280165,6.5992 4.31202,6.51206 4.312025,6.40337 4.31202,6.31342 4.283925,6.234715 4.227695,6.167245 4.173345,6.09979 4.08808,6.04544 3.9719,6.004215 l 0,0.81236 M 3.45187,4.542525 C 3.373165,4.563125 3.30945,4.59968 3.26073,4.65215 3.21198,4.70462 3.187645,4.772085 3.187645,4.85454 c 0,0.05997 0.01965,0.121805 0.059025,0.18552 0.03935,0.063715 0.107755,0.11244 0.2052,0.14617 l 0,-0.643705"
       style="font-size:17.2705555px;font-style:normal;font-variant:normal;font-weight:bold;font-stretch:normal;text-align:center;line-height:125%;letter-spacing:0px;word-spacing:0px;text-anchor:middle;opacity:0.2;fill:#000000;fill-opacity:1;stroke:none;font-family:Inconsolata;-inkscape-font-specification:Inconsolata Bold"
       id="path4105" />
    <path
       id="rect4049"
       d="M 6,6 9,6 9,7 6,7 z"
       style="color:#bebebe;fill:#ffffff;fill-opacity:1;fill-rule:nonzero;stroke:none;stroke-width:2;marker:none;visibility:visible;display:inline;overflow:visible;enable-background:accumulate" />
    <path
       id="path4053"
       style="font-size:17.27055550000000039px;font-style:normal;font-variant:normal;font-weight:bold;font-stretch:normal;text-align:center;line-height:125%;letter-spacing:0px;word-spacing:0px;text-anchor:middle;fill:#ffffff;fill-opacity:1;stroke:none;font-family:Inconsolata;-inkscape-font-specification:Inconsolata Bold"
       d="M 3.42375,2.673915 4,2.673915 4,3 C 4.15928,3.03185 4.30639,3.0937 4.441315,3.18552 4.57811,3.275475 4.701795,3.386975 4.81236,3.520025 L 4.472235,3.9501 c 0,0 -0.101895,-0.1288 -0.14898,-0.188325 C 4.285755,3.718675 4.235175,3.67651 4.17146,3.635285 4.109615,3.594085 4.043095,3.565015 3.971885,3.548145 l 0,0.846095 c 0.15179,0.04875 0.28578,0.10307 0.401965,0.163035 0.11618,0.05997 0.21269,0.129305 0.289525,0.20801 0.078705,0.078705 0.137735,0.16772 0.17709,0.26704 0.03935,0.097445 0.05903,0.208945 0.05903,0.3345 0,0.11806 -0.0206,0.231435 -0.06184,0.340125 C 4.796405,5.813765 4.73646,5.911215 4.657755,5.99929 4.58092,6.087365 4.48722,6.16326 4.37666,6.226975 4.266095,6.29069 4.14054,6.336605 3.999995,6.364715 l 0,0.3092 -0.576245,0 0,-0.29234 C 3.247595,6.351575 3.078005,6.292565 2.914965,6.20449 2.75193,6.11641 2.6067,6.0021 2.47927,5.861555 l 0.35137,-0.49473 0.163045,0.20239 c 0.06372,0.069335 0.13118,0.128365 0.20239,0.17709 0.073085,0.0487 0.15835,0.08339 0.255795,0.104005 l 0,-1.02881 C 3.31507,4.770905 3.192325,4.714685 3.08364,4.652845 2.97682,4.591005 2.885935,4.52261 2.810975,4.44765 2.73789,4.370815 2.68167,4.28649 2.64232,4.194665 2.60297,4.100965 2.58329,3.998835 2.58329,3.88827 2.58329,3.78333 2.60294,3.68307 2.64232,3.587495 2.68167,3.491925 2.73789,3.405725 2.810975,3.32889 2.88406,3.25206 2.972135,3.18647 3.075205,3.13212 3.180145,3.07591 3.29633,3.03468 3.42376,3.008445 l 0,-0.334505 M 3.9719,5.816575 C 4.07309,5.780975 4.154605,5.730375 4.21645,5.66479 4.280165,5.5992 4.31202,5.51206 4.312025,5.40337 4.31202,5.31342 4.283925,5.234715 4.227695,5.167245 4.173345,5.09979 4.08808,5.04544 3.9719,5.004215 l 0,0.81236 M 3.45187,3.542525 C 3.373165,3.563125 3.30945,3.59968 3.26073,3.65215 3.21198,3.70462 3.187645,3.772085 3.187645,3.85454 c 0,0.05997 0.01965,0.121805 0.059025,0.18552 0.03935,0.063715 0.107755,0.11244 0.2052,0.14617 l 0,-0.643705" />
  </g>
</svg>
