<?xml version="1.0" encoding="UTF-8" standalone="no"?>
<svg
   xmlns:osb="http://www.openswatchbook.org/uri/2009/osb"
   xmlns:dc="http://purl.org/dc/elements/1.1/"
   xmlns:cc="http://creativecommons.org/ns#"
   xmlns:rdf="http://www.w3.org/1999/02/22-rdf-syntax-ns#"
   xmlns:svg="http://www.w3.org/2000/svg"
   xmlns="http://www.w3.org/2000/svg"
   width="16"
   version="1.1"
   style="enable-background:new"
   id="svg7384"
   height="16">
  <metadata
     id="metadata90">
    <rdf:RDF>
      <cc:Work
         rdf:about="">
        <dc:format>image/svg+xml</dc:format>
        <dc:type
           rdf:resource="http://purl.org/dc/dcmitype/StillImage" />
        <dc:title>Moka Symbolic Icon Theme</dc:title>
      </cc:Work>
    </rdf:RDF>
  </metadata>
  <title
     id="title8473">Moka Symbolic Icon Theme</title>
  <defs
     id="defs7386">
    <linearGradient
       osb:paint="solid"
       id="linearGradient5606">
      <stop
         style="stop-color:#000000;stop-opacity:1;"
         offset="0"
         id="stop5608" />
    </linearGradient>
    <filter
       id="filter7554"
       color-interpolation-filters="sRGB">
      <feBlend
         mode="darken"
         in2="BackgroundImage"
         id="feBlend7556" />
    </filter>
  </defs>
  <g
     transform="translate(-685.0002,47)"
     style="display:inline"
     id="layer9" />
  <g
     transform="translate(-685.0002,47)"
     style="display:inline;filter:url(#filter7554)"
     id="layer10" />
  <g
     transform="translate(-444,-570)"
     style="display:inline"
     id="layer1" />
  <g
     transform="translate(-685.0002,47)"
     style="display:inline"
     id="layer14" />
  <g
     transform="translate(-685.0002,47)"
     style="display:inline"
     id="layer15" />
  <g
     transform="translate(-685.0002,47)"
     style="display:inline"
     id="g71291" />
  <g
     transform="translate(-444,-420)"
     style="display:inline"
     id="layer2">
    <path
       style="font-size:medium;font-style:normal;font-variant:normal;font-weight:normal;font-stretch:normal;text-indent:0;text-align:start;text-decoration:none;line-height:normal;letter-spacing:normal;word-spacing:normal;text-transform:none;direction:ltr;block-progression:tb;writing-mode:lr-tb;text-anchor:start;baseline-shift:baseline;color:#000000;fill:#bebebe;fill-opacity:1;stroke:none;stroke-width:0.99999881;marker:none;visibility:visible;display:inline;overflow:visible;enable-background:accumulate;font-family:Sans;-inkscape-font-specification:Sans"
       id="path1871-59-5"
       d="m 446.5,420 c -1.37479,0 -2.5,1.1252 -2.5,2.5 0,0.7527 0.34411,1.4156 0.875,1.875 -0.5552,1.0884 -0.875,2.3216 -0.875,3.625 0,1.3034 0.3198,2.5366 0.875,3.625 -0.53089,0.4594 -0.875,1.1223 -0.875,1.875 0,1.3748 1.12521,2.5 2.5,2.5 0.75271,0 1.41563,-0.3441 1.875,-0.875 1.08838,0.5552 2.32166,0.875 3.625,0.875 1.30334,0 2.53662,-0.3198 3.625,-0.875 0.45937,0.5309 1.12229,0.875 1.875,0.875 1.37479,0 2.5,-1.1252 2.5,-2.5 0,-0.7527 -0.34411,-1.4156 -0.875,-1.875 0.5552,-1.0884 0.875,-2.3216 0.875,-3.625 0,-1.3034 -0.3198,-2.5366 -0.875,-3.625 0.53089,-0.4594 0.875,-1.1223 0.875,-1.875 0,-1.3748 -1.12521,-2.5 -2.5,-2.5 -0.75271,0 -1.41563,0.3441 -1.875,0.875 C 454.53662,420.3198 453.30334,420 452,420 c -1.30334,0 -2.53662,0.3198 -3.625,0.875 C 447.91563,420.3441 447.25271,420 446.5,420 z m 0,1 c 0.39264,0 0.73387,0.1632 1,0.4063 -0.82433,0.5638 -1.5299,1.2694 -2.09375,2.0937 -0.24303,-0.2661 -0.40625,-0.6074 -0.40625,-1 0,-0.8343 0.66565,-1.5 1.5,-1.5 z m 5.5,0 c 0.96756,0 1.88108,0.2086 2.71875,0.5625 -0.54382,0.7472 -1.01964,1.5765 -1.21875,2.6563 -0.46807,-0.1897 -0.96656,-0.2813 -1.5,-0.2813 -0.55799,0 -1.07702,0.106 -1.5625,0.3125 -0.25114,-0.9858 -0.62321,-1.896 -1.15625,-2.6875 C 450.11892,421.2086 451.03244,421 452,421 z m 5.5,0 c 0.83435,0 1.5,0.6657 1.5,1.5 0,0.3926 -0.16322,0.7339 -0.40625,1 -0.56385,-0.8243 -1.26942,-1.5299 -2.09375,-2.0937 0.26613,-0.2431 0.60736,-0.4063 1,-0.4063 z m -5.5,3.9375 c 1.69087,0 3.0625,1.3715 3.0625,3.0625 0,1.691 -1.37163,3.0625 -3.0625,3.0625 -1.69087,0 -3.0625,-1.3715 -3.0625,-3.0625 0,-1.691 1.37163,-3.0625 3.0625,-3.0625 z m -6.3125,0.094 c 1.09166,0.1206 1.89315,0.6226 2.65625,1.2187 -0.25964,0.534 -0.40625,1.1199 -0.40625,1.75 0,0.5473 0.11345,1.0533 0.3125,1.5313 -0.90711,0.1975 -1.81164,0.3855 -2.71875,1.125 C 445.19451,429.8363 445,428.9428 445,428.0002 c 0,-1.0662 0.26245,-2.0649 0.6875,-2.9687 z m 12.625,0 c 0.42505,0.9038 0.6875,1.9025 0.6875,2.9687 0,0.9322 -0.20155,1.8122 -0.53125,2.625 -0.71492,-0.5788 -1.67436,-0.8964 -2.71875,-1.0937 0.19905,-0.478 0.3125,-0.984 0.3125,-1.5313 0,-0.6301 -0.14661,-1.216 -0.40625,-1.75 0.90783,-0.6693 1.8129,-1.1093 2.65625,-1.2187 z m -8.09375,6.625 c 0.54008,0.267 1.14159,0.4062 1.78125,0.4062 0.62059,0 1.19095,-0.1539 1.71875,-0.4062 0.53619,0.7606 0.89643,1.6915 1.15625,2.7187 -0.87801,0.396 -1.8481,0.625 -2.875,0.625 -1.04148,0 -2.01857,-0.2495 -2.90625,-0.6562 0.19873,-1.0039 0.52742,-1.9402 1.125,-2.6875 z m -4.8125,0.8437 c 0.56385,0.8243 1.26942,1.5299 2.09375,2.0938 -0.26613,0.243 -0.60736,0.4062 -1,0.4062 -0.83435,0 -1.5,-0.6657 -1.5,-1.5 0,-0.3926 0.16322,-0.7339 0.40625,-1 z m 13.1875,0 c 0.24303,0.2661 0.40625,0.6074 0.40625,1 0,0.8343 -0.66565,1.5 -1.5,1.5 -0.39264,0 -0.73387,-0.1632 -1,-0.4062 0.82433,-0.5639 1.5299,-1.2695 2.09375,-2.0938 z" />
  </g>
  <g
     transform="translate(-444,-420)"
     style="display:inline"
     id="g6058" />
  <g
     transform="translate(-685.0002,47)"
     style="display:inline"
     id="layer12" />
</svg>
