<?xml version="1.0" encoding="UTF-8" standalone="no"?>
<!-- Created with Inkscape (http://www.inkscape.org/) -->

<svg
   xmlns:dc="http://purl.org/dc/elements/1.1/"
   xmlns:cc="http://creativecommons.org/ns#"
   xmlns:rdf="http://www.w3.org/1999/02/22-rdf-syntax-ns#"
   xmlns:svg="http://www.w3.org/2000/svg"
   xmlns="http://www.w3.org/2000/svg"
   xmlns:xlink="http://www.w3.org/1999/xlink"
   xmlns:sodipodi="http://sodipodi.sourceforge.net/DTD/sodipodi-0.dtd"
   xmlns:inkscape="http://www.inkscape.org/namespaces/inkscape"
   version="1.1"
   width="48"
   height="48"
   id="svg3759"
   inkscape:version="0.48.4 r9939"
   sodipodi:docname="preferences-system-power.svg">
  <sodipodi:namedview
     pagecolor="#ffffff"
     bordercolor="#666666"
     borderopacity="1"
     objecttolerance="10"
     gridtolerance="10"
     guidetolerance="10"
     inkscape:pageopacity="0"
     inkscape:pageshadow="2"
     inkscape:window-width="1364"
     inkscape:window-height="700"
     id="namedview36"
     showgrid="false"
     inkscape:zoom="1"
     inkscape:cx="25.537556"
     inkscape:cy="30.691238"
     inkscape:window-x="0"
     inkscape:window-y="28"
     inkscape:window-maximized="1"
     inkscape:current-layer="layer2"
     inkscape:snap-bbox="true"
     inkscape:bbox-paths="true"
     inkscape:bbox-nodes="true"
     inkscape:snap-bbox-edge-midpoints="true"
     inkscape:snap-bbox-midpoints="true">
    <inkscape:grid
       type="xygrid"
       id="grid3818"
       empspacing="4"
       visible="true"
       enabled="true"
       snapvisiblegridlinesonly="true" />
  </sodipodi:namedview>
  <metadata
     id="metadata37">
    <rdf:RDF>
      <cc:Work
         rdf:about="">
        <dc:format>image/svg+xml</dc:format>
        <dc:type
           rdf:resource="http://purl.org/dc/dcmitype/StillImage" />
        <dc:title></dc:title>
      </cc:Work>
    </rdf:RDF>
  </metadata>
  <defs
     id="defs3761">
    <linearGradient
       id="linearGradient3810">
      <stop
         style="stop-color:#4cc7e0;stop-opacity:1;"
         offset="0"
         id="stop3812" />
      <stop
         style="stop-color:#2061be;stop-opacity:1;"
         offset="1"
         id="stop3814" />
    </linearGradient>
    <linearGradient
       id="linearGradient3988">
      <stop
         style="stop-color:#eeeeec;stop-opacity:1;"
         offset="0"
         id="stop3990" />
      <stop
         style="stop-color:#ffffff;stop-opacity:1;"
         offset="1"
         id="stop3992" />
    </linearGradient>
    <radialGradient
       inkscape:collect="always"
       xlink:href="#linearGradient26113-9-3-1"
       id="radialGradient3755"
       gradientUnits="userSpaceOnUse"
       gradientTransform="matrix(1,0,0,0.37,0,24.5124)"
       cx="24.849752"
       cy="38.908627"
       fx="24.849752"
       fy="38.908627"
       r="20.203051" />
    <linearGradient
       inkscape:collect="always"
       id="linearGradient26113-9-3-1">
      <stop
         style="stop-color: rgb(0, 0, 0); stop-opacity: 1;"
         offset="0"
         id="stop26115-7-7-9" />
      <stop
         style="stop-color: rgb(0, 0, 0); stop-opacity: 0;"
         offset="1"
         id="stop26117-3-7-8" />
    </linearGradient>
    <linearGradient
       inkscape:collect="always"
       id="linearGradient26121-3-8-2">
      <stop
         style="stop-color: rgb(0, 0, 0); stop-opacity: 1;"
         offset="0"
         id="stop26123-4-7-8" />
      <stop
         style="stop-color: rgb(0, 0, 0); stop-opacity: 0;"
         offset="1"
         id="stop26125-3-9-9" />
    </linearGradient>
    <radialGradient
       r="20.203051"
       fy="38.908627"
       fx="24.849752"
       cy="38.908627"
       cx="24.849752"
       gradientTransform="matrix(1.00851,0,0,0.373148,-0.211403,24.39)"
       gradientUnits="userSpaceOnUse"
       id="radialGradient4274"
       xlink:href="#linearGradient26121-3-8-2"
       inkscape:collect="always" />
    <linearGradient
       id="outerBackgroundGradient-4">
      <stop
         style="stop-color:#ffcb3d;stop-opacity:1;"
         offset="0"
         id="stop3864-8-6-31" />
      <stop
         style="stop-color:#ffee87;stop-opacity:1;"
         offset="1"
         id="stop3866-9-1-8" />
    </linearGradient>
    <linearGradient
       inkscape:collect="always"
       xlink:href="#linearGradient3901"
       id="linearGradient3874"
       gradientUnits="userSpaceOnUse"
       gradientTransform="matrix(0,-1,-1,0,48.000003,48.000003)"
       x1="4.5000033"
       y1="24"
       x2="43.500004"
       y2="24" />
    <linearGradient
       inkscape:collect="always"
       xlink:href="#linearGradient4073"
       id="linearGradient4070"
       gradientUnits="userSpaceOnUse"
       gradientTransform="matrix(0,-1,1,0,5.0000306e-7,32)"
       x1="1"
       y1="15.999999"
       x2="31"
       y2="15.999999" />
    <linearGradient
       id="linearGradient4073">
      <stop
         id="stop4075"
         offset="0"
         style="stop-color:#323232;stop-opacity:1;" />
      <stop
         id="stop4077"
         offset="1"
         style="stop-color:#5a5a5a;stop-opacity:1;" />
    </linearGradient>
    <linearGradient
       inkscape:collect="always"
       xlink:href="#linearGradient4073"
       id="linearGradient3899"
       x1="4.0000033"
       y1="24"
       x2="44.000004"
       y2="24"
       gradientUnits="userSpaceOnUse"
       gradientTransform="matrix(0,-1,1,0,3.1e-6,48.000003)" />
    <radialGradient
       inkscape:collect="always"
       xlink:href="#linearGradient3901"
       id="radialGradient3805"
       gradientUnits="userSpaceOnUse"
       gradientTransform="matrix(4.5367027e-8,-1.7632481,-1.8653063,0,31.761486,43.251051)"
       cx="6.1596723"
       cy="8.4497671"
       fx="6.1596723"
       fy="8.4497671"
       r="19.99999" />
    <linearGradient
       id="linearGradient3901">
      <stop
         style="stop-color:#d2d2d2;stop-opacity:1;"
         offset="0"
         id="stop3903" />
      <stop
         style="stop-color:#ffffff;stop-opacity:1;"
         offset="1"
         id="stop3905" />
    </linearGradient>
    <radialGradient
       r="19.99999"
       fy="8.4497671"
       fx="6.1596723"
       cy="8.4497671"
       cx="6.1596723"
       gradientTransform="matrix(4.5367027e-8,-1.7632481,-1.8653063,0,149.76149,62.251052)"
       gradientUnits="userSpaceOnUse"
       id="radialGradient3043"
       xlink:href="#linearGradient3901"
       inkscape:collect="always" />
  </defs>
  <g
     inkscape:groupmode="layer"
     id="layer1"
     inkscape:label="Background">
    <path
       transform="matrix(0.76992689,0,0,0.70231451,4.8675074,13.673907)"
       d="m 45.052803,38.908627 a 20.203051,7.4751287 0 1 1 -40.4061012,0 20.203051,7.4751287 0 1 1 40.4061012,0 z"
       sodipodi:ry="7.4751287"
       sodipodi:rx="20.203051"
       sodipodi:cy="38.908627"
       sodipodi:cx="24.849752"
       id="path9641"
       style="fill:url(#radialGradient4274);fill-opacity:1;stroke:none;display:inline;filter:url(#filter5927);enable-background:new"
       sodipodi:type="arc" />
    <path
       sodipodi:type="arc"
       style="opacity:0.51836696999999998;fill:url(#radialGradient3755);fill-opacity:1;stroke:none;display:inline;filter:url(#filter5788);enable-background:new"
       id="path9643"
       sodipodi:cx="24.849752"
       sodipodi:cy="38.908627"
       sodipodi:rx="20.203051"
       sodipodi:ry="7.4751287"
       d="m 45.052803,38.908627 a 20.203051,7.4751287 0 1 1 -40.4061012,0 20.203051,7.4751287 0 1 1 40.4061012,0 z"
       transform="matrix(1.0408039,0,0,0.94940366,-1.8632526,3.514402)" />
    <path
       style="fill:url(#linearGradient3874);fill-opacity:1.0;fill-rule:nonzero;stroke:none"
       id="path6495"
       inkscape:connector-curvature="0"
       d="M 4.5000031,23.999309 C 4.5000031,34.769208 13.231094,43.5 23.999758,43.5 c 10.769649,0 19.500245,-8.730891 19.500245,-19.500691 0,-10.769405 -8.730596,-19.4993089 -19.500245,-19.4993089 -10.768664,0 -19.4997549,8.7299039 -19.4997549,19.4993089 l 0,0 z" />
    <path
       d="m 23.999312,4.5000001 c 10.769899,0 19.500691,8.7310909 19.500691,19.4997549 C 43.500003,34.769404 34.769112,43.5 23.999312,43.5 13.229907,43.5 4.5000031,34.769404 4.5000031,23.999755 c 0,-10.768664 8.7299039,-19.4997549 19.4993089,-19.4997549 l 0,0 z"
       inkscape:connector-curvature="0"
       id="path3796"
       style="opacity:0.71;fill:none;stroke:url(#linearGradient3899);stroke-width:1;stroke-miterlimit:4;stroke-opacity:1;stroke-dasharray:none" />
    <path
       style="fill:#ffffff;fill-opacity:1;fill-rule:nonzero;stroke:none;opacity:0.40000000000000002"
       d="M 24 5 C 13.500552 5 5 13.500823 5 24 C 5 24.169463 5.0268485 24.331605 5.03125 24.5 C 5.299553 14.235412 13.670013 6 24 6 C 34.328993 6 42.700416 14.235427 42.96875 24.5 C 42.973152 24.331604 43 24.169465 43 24 C 43 13.500839 34.498438 5 24 5 z "
       id="path3872" />
  </g>
  <g
     inkscape:groupmode="layer"
     id="layer2"
     inkscape:label="Symbol">
    <path
       style="fill:none;stroke:#2d2d2d;stroke-width:1;stroke-linecap:round;stroke-linejoin:round;stroke-miterlimit:4;stroke-opacity:1;stroke-dasharray:none;display:inline;enable-background:new"
       d="M 13.343086,13.343086 24,24 33.990857,16.506857"
       id="path3953"
       inkscape:connector-curvature="0"
       sodipodi:nodetypes="ccc" />
    <path
       style="fill:none;stroke:#dc0000;stroke-width:0.5;stroke-linecap:butt;stroke-linejoin:miter;stroke-miterlimit:4;stroke-opacity:1;stroke-dasharray:none;display:inline;enable-background:new"
       d="M 24,24 34.656915,12.010971"
       id="path4005-8"
       inkscape:connector-curvature="0"
       sodipodi:nodetypes="cc" />
    <path
       style="opacity:0.6;fill:#000000;fill-opacity:1;stroke:none"
       d="M 24 6 C 23.447715 6 23 6.4477153 23 7 C 23 7.5522847 23.447715 8 24 8 C 24.552285 8 25 7.5522847 25 7 C 25 6.4477153 24.552285 6 24 6 z M 7 23 C 6.447715 23 6 23.447715 6 24 C 6 24.552285 6.447715 25 7 25 C 7.552285 25 8 24.552285 8 24 C 8 23.447715 7.552285 23 7 23 z M 41 23 C 40.447715 23 40 23.447715 40 24 C 40 24.552285 40.447715 25 41 25 C 41.552285 25 42 24.552285 42 24 C 42 23.447715 41.552285 23 41 23 z M 24 40 C 23.447715 40 23 40.447715 23 41 C 23 41.552285 23.447715 42 24 42 C 24.552285 42 25 41.552285 25 41 C 25 40.447715 24.552285 40 24 40 z "
       id="path3967" />
    <path
       id="path3975"
       d="m 24,7 c -0.552285,0 -1,0.4477153 -1,1 0,0.5522847 0.447715,1 1,1 0.552285,0 1,-0.4477153 1,-1 C 25,7.4477153 24.552285,7 24,7 z M 7,24 c -0.552285,0 -1,0.447715 -1,1 0,0.552285 0.447715,1 1,1 0.552285,0 1,-0.447715 1,-1 0,-0.552285 -0.447715,-1 -1,-1 z m 34,0 c -0.552285,0 -1,0.447715 -1,1 0,0.552285 0.447715,1 1,1 0.552285,0 1,-0.447715 1,-1 0,-0.552285 -0.447715,-1 -1,-1 z M 24,41 c -0.552285,0 -1,0.447715 -1,1 0,0.552285 0.447715,1 1,1 0.552285,0 1,-0.447715 1,-1 0,-0.552285 -0.447715,-1 -1,-1 z"
       style="opacity:0.3;fill:#ffffff;fill-opacity:1;stroke:none"
       inkscape:connector-curvature="0" />
  </g>
</svg>
