<?xml version="1.0" encoding="UTF-8" standalone="no"?>
<!-- Created with Inkscape (http://www.inkscape.org/) -->

<svg
   xmlns:dc="http://purl.org/dc/elements/1.1/"
   xmlns:cc="http://creativecommons.org/ns#"
   xmlns:rdf="http://www.w3.org/1999/02/22-rdf-syntax-ns#"
   xmlns:svg="http://www.w3.org/2000/svg"
   xmlns="http://www.w3.org/2000/svg"
   xmlns:xlink="http://www.w3.org/1999/xlink"
   xmlns:sodipodi="http://sodipodi.sourceforge.net/DTD/sodipodi-0.dtd"
   xmlns:inkscape="http://www.inkscape.org/namespaces/inkscape"
   version="1.1"
   width="22"
   height="22"
   id="svg3749"
   inkscape:version="0.48.4 r9939"
   sodipodi:docname="preferences-system-time.svg">
  <sodipodi:namedview
     pagecolor="#ffffff"
     bordercolor="#666666"
     borderopacity="1"
     objecttolerance="10"
     gridtolerance="10"
     guidetolerance="10"
     inkscape:pageopacity="0"
     inkscape:pageshadow="2"
     inkscape:window-width="1364"
     inkscape:window-height="700"
     id="namedview73"
     showgrid="false"
     inkscape:zoom="1"
     inkscape:cx="27.870265"
     inkscape:cy="3.1210047"
     inkscape:window-x="0"
     inkscape:window-y="28"
     inkscape:window-maximized="1"
     inkscape:current-layer="layer2">
    <inkscape:grid
       type="xygrid"
       id="grid3889"
       empspacing="4"
       visible="true"
       enabled="true"
       snapvisiblegridlinesonly="true" />
  </sodipodi:namedview>
  <metadata
     id="metadata148432">
    <rdf:RDF>
      <cc:Work
         rdf:about="">
        <dc:format>image/svg+xml</dc:format>
        <dc:type
           rdf:resource="http://purl.org/dc/dcmitype/StillImage" />
        <dc:title />
      </cc:Work>
    </rdf:RDF>
  </metadata>
  <defs
     id="defs3751">
    <linearGradient
       id="linearGradient4119">
      <stop
         id="stop4121"
         style="stop-color:#ffffff;stop-opacity:1"
         offset="0" />
      <stop
         id="stop4148"
         style="stop-color:#afaba5;stop-opacity:1"
         offset="0.53996283" />
      <stop
         id="stop4146"
         style="stop-color:#837874;stop-opacity:1"
         offset="0.61988848" />
      <stop
         id="stop4123"
         style="stop-color:#b4b2aa;stop-opacity:1"
         offset="1" />
    </linearGradient>
    <linearGradient
       x1="71.204407"
       y1="15.369057"
       x2="71.204407"
       y2="40.495617"
       id="linearGradient3097"
       xlink:href="#linearGradient3812"
       gradientUnits="userSpaceOnUse"
       gradientTransform="matrix(0.77562456,0,0,0.77562491,-44.981566,-10.614261)" />
    <radialGradient
       cx="16"
       cy="15.377224"
       r="0.62612247"
       fx="16"
       fy="15.377224"
       id="radialGradient3110"
       xlink:href="#linearGradient4119"
       gradientUnits="userSpaceOnUse"
       gradientTransform="matrix(0,1.9131623,-1.9131652,0,45.41917,-15.233372)" />
    <linearGradient
       inkscape:collect="always"
       id="linearGradient26121-3-8-2">
      <stop
         style="stop-color: rgb(0, 0, 0); stop-opacity: 1;"
         offset="0"
         id="stop26123-4-7-8" />
      <stop
         style="stop-color: rgb(0, 0, 0); stop-opacity: 0;"
         offset="1"
         id="stop26125-3-9-9" />
    </linearGradient>
    <radialGradient
       inkscape:collect="always"
       xlink:href="#linearGradient26113-9-3-1"
       id="radialGradient3755"
       gradientUnits="userSpaceOnUse"
       gradientTransform="matrix(1,0,0,0.37,0,24.5124)"
       cx="24.849752"
       cy="38.908627"
       fx="24.849752"
       fy="38.908627"
       r="20.203051" />
    <linearGradient
       inkscape:collect="always"
       id="linearGradient26113-9-3-1">
      <stop
         style="stop-color: rgb(0, 0, 0); stop-opacity: 1;"
         offset="0"
         id="stop26115-7-7-9" />
      <stop
         style="stop-color: rgb(0, 0, 0); stop-opacity: 0;"
         offset="1"
         id="stop26117-3-7-8" />
    </linearGradient>
    <radialGradient
       inkscape:collect="always"
       xlink:href="#linearGradient3901"
       id="radialGradient3805"
       gradientUnits="userSpaceOnUse"
       gradientTransform="matrix(4.5367027e-8,-1.7632481,-1.8653063,0,56.032672,39.551899)"
       cx="6.1596723"
       cy="8.4497671"
       fx="6.1596723"
       fy="8.4497671"
       r="19.99999" />
    <linearGradient
       id="linearGradient3901">
      <stop
         style="stop-color:#ffffff;stop-opacity:1;"
         offset="0"
         id="stop3903" />
      <stop
         style="stop-color:#d2d2d2;stop-opacity:1;"
         offset="1"
         id="stop3905" />
    </linearGradient>
    <linearGradient
       inkscape:collect="always"
       xlink:href="#linearGradient3812"
       id="linearGradient3818"
       x1="2"
       y1="16.000002"
       x2="30"
       y2="16.000002"
       gradientUnits="userSpaceOnUse"
       gradientTransform="matrix(0,1,-1,0,56.271187,-3.6991515)" />
    <linearGradient
       inkscape:collect="always"
       id="linearGradient3812">
      <stop
         style="stop-color:#ffffff;stop-opacity:1;"
         offset="0"
         id="stop3814" />
      <stop
         style="stop-color:#ffffff;stop-opacity:0;"
         offset="1"
         id="stop3816" />
    </linearGradient>
    <linearGradient
       inkscape:collect="always"
       xlink:href="#linearGradient3904"
       id="linearGradient3902"
       x1="1"
       y1="15.999999"
       x2="31"
       y2="15.999999"
       gradientUnits="userSpaceOnUse"
       gradientTransform="matrix(0,-1,1,0,24.271186,28.300848)" />
    <linearGradient
       id="linearGradient3904">
      <stop
         id="stop3906"
         offset="0"
         style="stop-color:#858585;stop-opacity:1;" />
      <stop
         id="stop3908"
         offset="1"
         style="stop-color:#8e8e8e;stop-opacity:1;" />
    </linearGradient>
    <radialGradient
       r="20.203051"
       fy="38.908627"
       fx="24.849752"
       cy="38.908627"
       cx="24.849752"
       gradientTransform="matrix(1.00851,0,0,0.373148,-0.211403,24.39)"
       gradientUnits="userSpaceOnUse"
       id="radialGradient3050"
       xlink:href="#linearGradient26121-3-8-2"
       inkscape:collect="always" />
    <linearGradient
       inkscape:collect="always"
       xlink:href="#linearGradient3901"
       id="linearGradient3879"
       x1="0.5"
       y1="11"
       x2="21.5"
       y2="11"
       gradientUnits="userSpaceOnUse"
       gradientTransform="matrix(0,1,-1,0,22,1.2499881e-7)" />
    <linearGradient
       inkscape:collect="always"
       xlink:href="#linearGradient3904"
       id="linearGradient3887"
       x1="5.9604645e-08"
       y1="11"
       x2="22"
       y2="11"
       gradientUnits="userSpaceOnUse"
       gradientTransform="matrix(0,1,-1,0,22,2.499641e-8)" />
  </defs>
  <path
     d="M 21.5,11 C 21.5,5.2064621 16.793538,0.50000012 11,0.50000012 5.2064621,0.50000012 0.49999913,5.2064621 0.50000013,11 0.50000013,16.793537 5.2064621,21.500004 11,21.5 16.793538,21.5 21.5,16.793537 21.5,11 z"
     inkscape:connector-curvature="0"
     id="path2555-7-65"
     style="color:#000000;fill:url(#linearGradient3879);fill-opacity:1;fill-rule:nonzero;stroke:none;stroke-width:1;marker:none;visibility:visible;display:inline;overflow:visible;enable-background:accumulate" />
  <path
     d="M 21.5,11 C 21.5,5.206462 16.793538,0.50000002 11.000001,0.50000002 5.206462,0.50000002 0.49999803,5.206462 0.50000003,11 c 0,5.793538 4.70646197,10.500007 10.50000097,10.5 C 16.793538,21.5 21.5,16.793538 21.5,11 z"
     inkscape:connector-curvature="0"
     id="path2555-7-1-7"
     style="opacity:0.91;color:#000000;fill:none;stroke:url(#linearGradient3887);stroke-width:0.99999987999999995;stroke-linecap:round;stroke-linejoin:round;stroke-miterlimit:4;stroke-opacity:1;stroke-dasharray:none;stroke-dashoffset:0;marker:none;visibility:visible;display:inline;overflow:visible;enable-background:accumulate" />
  <path
     d="m 20.500001,11 c 0,5.246706 -4.253305,9.5 -9.500001,9.5 -5.246695,0 -9.5,-4.253294 -9.5,-9.5 0,-5.2467043 4.253305,-9.5000004 9.5,-9.5000004 5.246696,0 9.500001,4.2532961 9.500001,9.5000004 z"
     inkscape:connector-curvature="0"
     id="path3421"
     style="color:#000000;fill:none;stroke:url(#linearGradient3097);stroke-width:1;stroke-linecap:round;stroke-linejoin:round;stroke-miterlimit:4;stroke-opacity:1;stroke-dasharray:none;stroke-dashoffset:0;marker:none;visibility:visible;display:inline;overflow:visible;enable-background:accumulate" />
  <g
     inkscape:groupmode="layer"
     id="layer1"
     inkscape:label="Background" />
  <g
     inkscape:groupmode="layer"
     id="layer2"
     inkscape:label="Symbol">
    <path
       style="fill:none;stroke:#2d2d2d;stroke-width:1;stroke-linecap:round;stroke-linejoin:round;stroke-miterlimit:4;stroke-opacity:1;stroke-dasharray:none;display:inline;enable-background:new"
       d="M 5.3880589,5.3880593 11,11 16.261193,7.0541043"
       id="path3953"
       inkscape:connector-curvature="0"
       sodipodi:nodetypes="ccc" />
    <path
       style="fill:none;stroke:#dc0000;stroke-width:0.5;stroke-linecap:butt;stroke-linejoin:miter;stroke-miterlimit:4;stroke-opacity:1;stroke-dasharray:none;display:inline;enable-background:new"
       d="M 11,11 16.611939,4.6865667"
       id="path4005-8"
       inkscape:connector-curvature="0"
       sodipodi:nodetypes="cc" />
    <path
       inkscape:connector-curvature="0"
       style="opacity:0.6;fill:#000000;fill-opacity:1;stroke:none"
       d="m 11,2.5 c -0.282065,0 -0.5,0.2179352 -0.5,0.5 0,0.2820648 0.217935,0.5 0.5,0.5 0.282065,0 0.5,-0.2179352 0.5,-0.5 0,-0.2820648 -0.217935,-0.5 -0.5,-0.5 z m -8,8 c -0.2820648,0 -0.5,0.217935 -0.5,0.5 0,0.282065 0.2179352,0.5 0.5,0.5 0.2820648,0 0.5,-0.217935 0.5,-0.5 0,-0.282065 -0.2179352,-0.5 -0.5,-0.5 z m 16,0 c -0.282065,0 -0.5,0.217935 -0.5,0.5 0,0.282065 0.217935,0.5 0.5,0.5 0.282065,0 0.5,-0.217935 0.5,-0.5 0,-0.282065 -0.217935,-0.5 -0.5,-0.5 z m -8,8 c -0.282065,0 -0.5,0.217935 -0.5,0.5 0,0.282065 0.217935,0.5 0.5,0.5 0.282065,0 0.5,-0.217935 0.5,-0.5 0,-0.282065 -0.217935,-0.5 -0.5,-0.5 z"
       id="path3940"
       sodipodi:nodetypes="ssssssssssssssssssss" />
    <path
       sodipodi:nodetypes="ssssssssssssssssssss"
       id="path3925"
       d="m 11,3.5 c -0.282065,0 -0.5,0.2179352 -0.5,0.5 0,0.2820648 0.217935,0.5 0.5,0.5 0.282065,0 0.5,-0.2179352 0.5,-0.5 0,-0.2820648 -0.217935,-0.5 -0.5,-0.5 z m -8,8 c -0.2820648,0 -0.5,0.217935 -0.5,0.5 0,0.282065 0.2179352,0.5 0.5,0.5 0.2820648,0 0.5,-0.217935 0.5,-0.5 0,-0.282065 -0.2179352,-0.5 -0.5,-0.5 z m 16,0 c -0.282065,0 -0.5,0.217935 -0.5,0.5 0,0.282065 0.217935,0.5 0.5,0.5 0.282065,0 0.5,-0.217935 0.5,-0.5 0,-0.282065 -0.217935,-0.5 -0.5,-0.5 z m -8,8 c -0.282065,0 -0.5,0.217935 -0.5,0.5 0,0.282065 0.217935,0.5 0.5,0.5 0.282065,0 0.5,-0.217935 0.5,-0.5 0,-0.282065 -0.217935,-0.5 -0.5,-0.5 z"
       style="opacity:0.3;fill:#ffffff;fill-opacity:1;stroke:none"
       inkscape:connector-curvature="0" />
  </g>
</svg>
