<?xml version="1.0" encoding="UTF-8" standalone="no"?>
<svg xmlns="http://www.w3.org/2000/svg" xmlns:xlink="http://www.w3.org/1999/xlink" xmlns:sodipodi="http://sodipodi.sourceforge.net/DTD/sodipodi-0.dtd" xmlns:inkscape="http://www.inkscape.org/namespaces/inkscape" version="1.1" width="22" height="22">
 <metadata id="metadata148432"/>
 <defs id="defs3751">
  <linearGradient id="linearGradient4119">
   <stop id="stop4121" stop-color="#ffffff"/>
   <stop id="stop4148" offset="0.54" stop-color="#afaba5"/>
   <stop id="stop4146" offset="0.62" stop-color="#837874"/>
   <stop id="stop4123" offset="1" stop-color="#b4b2aa"/>
  </linearGradient>
  <linearGradient y1="15.369" x2="0" y2="40.496" id="linearGradient3097" xlink:href="#linearGradient3812" gradientUnits="userSpaceOnUse" gradientTransform="matrix(0.77562456,0,0,0.77562491,-44.981566,-10.614261)"/>
  <radialGradient cx="16" cy="15.377" r="0.626" id="radialGradient3110" xlink:href="#linearGradient4119" gradientUnits="userSpaceOnUse" gradientTransform="matrix(0,1.9131623,-1.9131652,0,45.41917,-15.233372)"/>
  <linearGradient inkscape:collect="always" id="linearGradient26121-3-8-2">
   <stop id="stop26123-4-7-8" stop-color="#000000"/>
   <stop offset="1" id="stop26125-3-9-9" stop-color="#000000" stop-opacity="0"/>
  </linearGradient>
  <radialGradient inkscape:collect="always" xlink:href="#linearGradient26121-3-8-2" id="radialGradient3755" gradientUnits="userSpaceOnUse" gradientTransform="matrix(1,0,0,0.37,0,24.5124)" cx="24.85" cy="38.909" r="20.2"/>
  <radialGradient inkscape:collect="always" xlink:href="#linearGradient3901" id="radialGradient3805" gradientUnits="userSpaceOnUse" gradientTransform="matrix(4.5367027e-8,-1.7632481,-1.8653063,0,56.032672,39.551899)" cx="6.16" cy="8.45" r="20"/>
  <linearGradient id="linearGradient3901">
   <stop id="stop3903" stop-color="#ffffff"/>
   <stop offset="1" id="stop3905" stop-color="#d2d2d2"/>
  </linearGradient>
  <linearGradient inkscape:collect="always" xlink:href="#linearGradient3812" id="linearGradient3818" x1="2" x2="30" gradientUnits="userSpaceOnUse" gradientTransform="matrix(0,1,-1,0,56.271187,-3.6991515)"/>
  <linearGradient inkscape:collect="always" id="linearGradient3812">
   <stop id="stop3814" stop-color="#ffffff"/>
   <stop offset="1" id="stop3816" stop-color="#ffffff" stop-opacity="0"/>
  </linearGradient>
  <linearGradient inkscape:collect="always" xlink:href="#linearGradient3904" id="linearGradient3902" x1="1" x2="31" gradientUnits="userSpaceOnUse" gradientTransform="matrix(0,-1,1,0,24.271186,28.300848)"/>
  <linearGradient id="linearGradient3904">
   <stop id="stop3906" stop-color="#858585"/>
   <stop id="stop3908" offset="1" stop-color="#8e8e8e"/>
  </linearGradient>
  <radialGradient r="20.2" cy="38.909" cx="24.85" gradientTransform="matrix(1.00851,0,0,0.373148,-0.211403,24.39)" gradientUnits="userSpaceOnUse" id="radialGradient3050" xlink:href="#linearGradient26121-3-8-2" inkscape:collect="always"/>
  <linearGradient inkscape:collect="always" xlink:href="#linearGradient3901" id="linearGradient3879" x1="0.5" x2="21.5" gradientUnits="userSpaceOnUse" gradientTransform="matrix(0,0.90476191,-0.90476191,0,20.952381,1.047619)"/>
  <linearGradient inkscape:collect="always" xlink:href="#linearGradient3904" id="linearGradient3887" x1="0" x2="22" gradientUnits="userSpaceOnUse" gradientTransform="matrix(0,1,-1,0,22,2.499641e-8)"/>
  <radialGradient inkscape:collect="always" xlink:href="#linearGradient3949" id="radialGradient3993" gradientUnits="userSpaceOnUse" gradientTransform="matrix(1,0,0,0.22222222,0,15.555556)" cx="11" cy="20" r="9"/>
  <linearGradient inkscape:collect="always" id="linearGradient3949">
   <stop id="stop3951"/>
   <stop offset="1" id="stop3953" stop-opacity="0"/>
  </linearGradient>
 </defs>
 <path id="path3841" d="M 11,21 C 6.0290161,21 2,16.970985 2,12 1.9999999,11.828421 2.021777,11.669207 2.03125,11.5 2.2962305,16.233074 6.2005947,20 11,20 15.799406,20 19.70377,16.233074 19.96875,11.5 19.97825,11.669207 20,11.828421 20,12 c 0,4.970985 -4.029015,9 -9,9 z" inkscape:connector-curvature="0" opacity="0.2" color="#000000"/>
 <g transform="translate(0,-26)" id="g4507">
  <path d="m 20,20 c 0,1.104569 -4.029437,2 -9,2 -4.9705627,0 -9,-0.895431 -9,-2 0,-1.104569 4.0294373,-2 9,-2 4.970563,0 9,0.895431 9,2 z" sodipodi:ry="2" sodipodi:rx="9" sodipodi:cy="20" sodipodi:cx="11" id="path3163" sodipodi:type="arc" transform="matrix(1,0,0,1.5,0,15)" opacity="0.4" fill="url(#radialGradient3993)"/>
  <path transform="matrix(0.66666667,0,0,1,3.6666666,26)" sodipodi:type="arc" id="path3995" sodipodi:cx="11" sodipodi:cy="20" sodipodi:rx="9" sodipodi:ry="2" d="m 20,20 c 0,1.104569 -4.029437,2 -9,2 -4.9705627,0 -9,-0.895431 -9,-2 0,-1.104569 4.0294373,-2 9,-2 4.970563,0 9,0.895431 9,2 z" opacity="0.8" fill="url(#radialGradient3993)"/>
 </g>
 <path d="M 20.5,11 C 20.5,5.7582275 16.241773,1.5 11,1.5 5.7582276,1.5 1.4999992,5.7582275 1.5000001,11 c 0,5.241772 4.2582275,9.500004 9.4999999,9.5 5.241773,0 9.5,-4.258228 9.5,-9.5 z" inkscape:connector-curvature="0" id="path2555-7-65" fill="url(#linearGradient3879)" color="#000000"/>
 <g inkscape:groupmode="layer" id="layer2" inkscape:label="Symbol">
  <path d="M 6.3880589,6.3880593 11,11 15.261193,8.0541043" id="path3953" inkscape:connector-curvature="0" sodipodi:nodetypes="ccc" fill="none" stroke="#2d2d2d" stroke-linejoin="round" stroke-linecap="round"/>
  <path d="M 11,11 15.611939,5.6865667" id="path4005-8" inkscape:connector-curvature="0" sodipodi:nodetypes="cc" fill="none" stroke="#dc0000" stroke-width="0.5"/>
 </g>
 <path id="path3049" inkscape:connector-curvature="0" d="m 11,1.5000001 c 5.241773,0 9.5,4.258227 9.5,9.4999999 0,5.241772 -4.258227,9.500001 -9.5,9.5 C 5.7582281,20.5 1.4999961,16.241772 1.5000001,11 1.5000001,5.7582271 5.7582281,1.5000001 11,1.5000001 z" opacity="0.41" fill="none" stroke="#000000" color="#000000"/>
 <path d="M 11 2 C 6.0290161 2 2 6.0290151 2 11 C 1.9999999 11.171579 2.0217771 11.330793 2.03125 11.5 C 2.2962305 6.7669263 6.2005947 3 11 3 C 15.799406 3 19.70377 6.7669263 19.96875 11.5 C 19.978223 11.330793 20 11.171579 20 11 C 20 6.0290151 15.970985 2 11 2 z " id="path3827" opacity="0.2" fill="#ffffff" color="#000000"/>
</svg>
