<?xml version="1.0" encoding="UTF-8" standalone="no"?>
<svg xmlns="http://www.w3.org/2000/svg" xmlns:sodipodi="http://sodipodi.sourceforge.net/DTD/sodipodi-0.dtd" xmlns:inkscape="http://www.inkscape.org/namespaces/inkscape" version="1.0" width="20" height="22">
 <metadata id="metadata11"/>
 <path inkscape:connector-curvature="0" d="m 10,4 c -4.4159999,0 -8.0000002,3.5840001 -8,8 0,4.416 3.5840002,8 8,8 4.416,0 8,-3.584 8,-8 0,-4.4159999 -3.584,-7.9999998 -8,-8 z m 0,5 c 1.656,0 3,1.344 3,3 0,1.656 -1.344,3 -3,3 -1.656,0 -3,-1.344 -3,-3 1e-7,-1.656 1.344,-3 3,-3 z" id="path3170-4" opacity="0.2" fill-rule="evenodd"/>
 <path inkscape:connector-curvature="0" id="path3170" d="m 10,3 c -4.4159999,0 -8.0000002,3.5840001 -8,8 0,4.416 3.5840002,8 8,8 4.416,0 8,-3.584 8,-8 0,-4.4159999 -3.584,-7.9999998 -8,-8 z m 0,5 c 1.656,0 3,1.344 3,3 0,1.656 -1.344,3 -3,3 -1.656,0 -3,-1.344 -3,-3 1e-7,-1.656 1.344,-3 3,-3 z" opacity="0.35" fill="#ffffff" fill-rule="evenodd"/>
 <path d="m 10,3 0,5 c 0.987512,0 1.859473,0.481732 2.40625,1.21875 0.175704,0.237918 0.310835,0.48556 0.40625,0.75 L 17.59375,8.4375 C 17.33481,7.6710828 16.943544,6.9352266 16.4375,6.25 14.979935,4.2790486 12.637745,3.0000001 10,3 z" id="path2744" inkscape:connector-curvature="0" fill="#ffffff"/>
</svg>
