<?xml version="1.0" encoding="UTF-8" standalone="no"?>
<svg xmlns="http://www.w3.org/2000/svg" xmlns:xlink="http://www.w3.org/1999/xlink" xmlns:sodipodi="http://sodipodi.sourceforge.net/DTD/sodipodi-0.dtd" xmlns:inkscape="http://www.inkscape.org/namespaces/inkscape" width="24" height="24" version="1.1">
 <defs id="defs3497">
  <linearGradient inkscape:collect="always" id="linearGradient3922">
   <stop id="stop3924" stop-color="#a0a0a0"/>
   <stop offset="1" id="stop3926" stop-color="#cacaca"/>
  </linearGradient>
  <clipPath id="clipPath3669">
   <path d="M 0,96 96,96 96,0 0,0 0,96 z" id="path3671"/>
  </clipPath>
  <linearGradient inkscape:collect="always" xlink:href="#linearGradient3821" id="linearGradient4448" y1="16" x2="0" y2="0" gradientUnits="userSpaceOnUse" gradientTransform="matrix(1,0,0,-1,0,16)"/>
  <linearGradient id="linearGradient3821">
   <stop id="stop3823" stop-color="#f7f7f7"/>
   <stop offset="1" id="stop3825" stop-color="#dddddd"/>
  </linearGradient>
  <linearGradient inkscape:collect="always" xlink:href="#linearGradient3821" id="linearGradient3859" x1="2.5" x2="19.5" gradientUnits="userSpaceOnUse" gradientTransform="matrix(0,1,-1,0,23,25)"/>
  <linearGradient inkscape:collect="always" id="linearGradient3952">
   <stop id="stop3954"/>
   <stop offset="1" id="stop3956" stop-opacity="0"/>
  </linearGradient>
  <linearGradient inkscape:collect="always" xlink:href="#linearGradient3960" id="linearGradient3194" gradientUnits="userSpaceOnUse" gradientTransform="translate(-9,-23)" y1="45" x2="0" y2="42"/>
  <linearGradient id="linearGradient3960">
   <stop id="stop3962" stop-opacity="0"/>
   <stop id="stop3970" offset="0.5"/>
   <stop offset="1" id="stop3964" stop-opacity="0"/>
  </linearGradient>
  <linearGradient inkscape:collect="always" xlink:href="#linearGradient3960" id="linearGradient3870" gradientUnits="userSpaceOnUse" gradientTransform="translate(-8,1)" y1="45" x2="0" y2="42"/>
  <radialGradient inkscape:collect="always" xlink:href="#linearGradient3952" id="radialGradient3873" gradientUnits="userSpaceOnUse" gradientTransform="matrix(1,0,0,0.75,-4,11.875)" cx="9" cy="43.5" r="2"/>
  <radialGradient inkscape:collect="always" xlink:href="#linearGradient3952" id="radialGradient3876" gradientUnits="userSpaceOnUse" gradientTransform="matrix(1,0,0,0.75,-21,11.875)" cx="40" cy="43.5" r="2"/>
  <linearGradient inkscape:collect="always" xlink:href="#linearGradient3922" id="linearGradient3928" y1="-2" x2="0" y2="22" gradientUnits="userSpaceOnUse"/>
 </defs>
 <metadata id="metadata3500"/>
 <g id="layer1" inkscape:label="Background" inkscape:groupmode="layer" transform="translate(0,-24)">
  <g id="g3878" opacity="0.3">
   <path inkscape:connector-curvature="0" id="rect3940" d="m 19,43 0,3 0.5,0 C 20.331,46 21,45.331 21,44.5 21,43.669 20.331,43 19.5,43 L 19,43 z" opacity="1" fill="url(#radialGradient3876)"/>
   <path inkscape:connector-curvature="0" id="rect3942" d="M 4.40625,43 C 3.6271875,43 3,43.627187 3,44.40625 l 0,0.1875 C 3,45.372813 3.6271875,46 4.40625,46 L 5,46 5,43 4.40625,43 z" opacity="1" fill="url(#radialGradient3873)"/>
   <path sodipodi:nodetypes="ccccc" inkscape:connector-curvature="0" id="rect3938" d="m 5,43 14,0 0,3 -14,0 z" opacity="1" fill="url(#linearGradient3870)"/>
  </g>
  <path d="m 20.5,30 c 0,-1.376351 -1.123649,-2.5 -2.5,-2.5 l -12,0 c -1.376351,0 -2.5,1.123649 -2.5,2.5 l 0,12 c 0,1.376351 1.123649,2.5 2.5,2.5 l 12,0 c 1.376351,0 2.5,-1.123649 2.5,-2.5 l 0,-12 z" id="rect2998" inkscape:connector-curvature="0" fill="url(#linearGradient3859)" color="#000000" stroke-width="4"/>
  <path inkscape:connector-curvature="0" id="path3861" d="m 20.5,30 c 0,-1.376351 -1.123649,-2.5 -2.5,-2.5 l -12,0 c -1.376351,0 -2.5,1.123649 -2.5,2.5 l 0,12 c 0,1.376351 1.123649,2.5 2.5,2.5 l 12,0 c 1.376351,0 2.5,-1.123649 2.5,-2.5 l 0,-12 z" opacity="0.41" fill="none" stroke="#000000" color="#000000"/>
 </g>
 <g inkscape:groupmode="layer" id="layer2" inkscape:label="Symbol" transform="translate(0,2)">
  <path sodipodi:nodetypes="ccccsacsscc" inkscape:connector-curvature="0" id="path3950" d="m 12,5 -6,4 6,4 0,-2 0,0 c 0,0 2.571606,0.873353 2.9375,2 0.437631,1.347538 -1.4375,4 -1.4375,4 0,0 4,-1.5 4,-4.75 C 17.5,9.126479 15.5,7 12.5,7 L 12,7 z" opacity="0.4" color="#bebebe" stroke-width="0" fill="#ffffff"/>
  <path d="m 12,4 -6,4 6,4 0,-2 0,0 c 0,0 2.571606,0.873353 2.9375,2 0.437631,1.347538 -1.4375,4 -1.4375,4 0,0 4,-1.5 4,-4.75 C 17.5,8.126479 15.5,6 12.5,6 L 12,6 z" id="path4400-3-3" inkscape:connector-curvature="0" sodipodi:nodetypes="ccccsacsscc" color="#bebebe" stroke-width="0" fill="url(#linearGradient3928)"/>
  <path d="M 12,4 6,8 6.75,8.5 12,5 z m 0,2 0,1 0.5,0 c 2.864655,0 4.798375,1.949246 4.96875,4.84375 C 17.498047,11.654236 17.5,11.453125 17.5,11.25 17.5,8.126479 15.5,6 12.5,6 z m 2.9375,7 C 14.657179,14.357292 13.5,16 13.5,16 c 0,0 0.338472,-0.150365 0.8125,-0.40625 0.437301,-0.852565 0.853912,-1.888891 0.625,-2.59375 z" id="path3945" inkscape:connector-curvature="0" sodipodi:nodetypes="cccccccscssccccc" opacity="0.1" color="#bebebe" stroke-width="0"/>
 </g>
</svg>
