<?xml version="1.0" encoding="UTF-8" standalone="no"?>
<svg
   xmlns:dc="http://purl.org/dc/elements/1.1/"
   xmlns:cc="http://creativecommons.org/ns#"
   xmlns:rdf="http://www.w3.org/1999/02/22-rdf-syntax-ns#"
   xmlns:svg="http://www.w3.org/2000/svg"
   xmlns="http://www.w3.org/2000/svg"
   xmlns:xlink="http://www.w3.org/1999/xlink"
   version="1.1"
   id="svg3495"
   height="24"
   width="24">
  <defs
     id="defs3497">
    <linearGradient
       id="linearGradient3922">
      <stop
         id="stop3924"
         offset="0"
         style="stop-color:#a0a0a0;stop-opacity:1" />
      <stop
         id="stop3926"
         offset="1"
         style="stop-color:#cacaca;stop-opacity:1" />
    </linearGradient>
    <linearGradient
       id="linearGradient3821">
      <stop
         id="stop3823"
         offset="0"
         style="stop-color:#f7f7f7;stop-opacity:1;" />
      <stop
         id="stop3825"
         offset="1"
         style="stop-color:#dddddd;stop-opacity:1;" />
    </linearGradient>
    <linearGradient
       gradientTransform="matrix(0,1,-1,0,23,25)"
       gradientUnits="userSpaceOnUse"
       y2="11"
       x2="19.5"
       y1="11"
       x1="2.5"
       id="linearGradient3859"
       xlink:href="#linearGradient3821" />
    <linearGradient
       id="linearGradient3952">
      <stop
         id="stop3954"
         offset="0"
         style="stop-color:#000000;stop-opacity:1;" />
      <stop
         id="stop3956"
         offset="1"
         style="stop-color:#000000;stop-opacity:0;" />
    </linearGradient>
    <linearGradient
       id="linearGradient3944">
      <stop
         id="stop3946"
         offset="0"
         style="stop-color:#000000;stop-opacity:1;" />
      <stop
         id="stop3948"
         offset="1"
         style="stop-color:#000000;stop-opacity:0;" />
    </linearGradient>
    <linearGradient
       id="linearGradient3960">
      <stop
         id="stop3962"
         offset="0"
         style="stop-color:#000000;stop-opacity:0;" />
      <stop
         style="stop-color:#000000;stop-opacity:1;"
         offset="0.5"
         id="stop3970" />
      <stop
         id="stop3964"
         offset="1"
         style="stop-color:#000000;stop-opacity:0;" />
    </linearGradient>
    <linearGradient
       y2="42"
       x2="25"
       y1="45"
       x1="25"
       gradientTransform="translate(-8,1)"
       gradientUnits="userSpaceOnUse"
       id="linearGradient3870"
       xlink:href="#linearGradient3960" />
    <radialGradient
       r="2"
       fy="43.5"
       fx="9"
       cy="43.5"
       cx="9"
       gradientTransform="matrix(1,0,0,0.75,-4,11.875)"
       gradientUnits="userSpaceOnUse"
       id="radialGradient3873"
       xlink:href="#linearGradient3944" />
    <radialGradient
       r="2"
       fy="43.5"
       fx="40"
       cy="43.5"
       cx="40"
       gradientTransform="matrix(1,0,0,0.75,-21,11.875)"
       gradientUnits="userSpaceOnUse"
       id="radialGradient3876"
       xlink:href="#linearGradient3952" />
    <linearGradient
       gradientUnits="userSpaceOnUse"
       y2="22"
       x2="12"
       y1="-2"
       x1="12"
       id="linearGradient3928"
       xlink:href="#linearGradient3922" />
  </defs>
  <metadata
     id="metadata3500">
    <rdf:RDF>
      <cc:Work
         rdf:about="">
        <dc:format>image/svg+xml</dc:format>
        <dc:type
           rdf:resource="http://purl.org/dc/dcmitype/StillImage" />
        <dc:title />
      </cc:Work>
    </rdf:RDF>
  </metadata>
  <g
     transform="translate(0,-24)"
     id="layer1">
    <g
       style="opacity:0.3"
       id="g3878">
      <path
         style="opacity:1;fill:url(#radialGradient3876);fill-opacity:1;stroke:none"
         d="m 19,43 0,3 0.5,0 C 20.331,46 21,45.331 21,44.5 21,43.669 20.331,43 19.5,43 L 19,43 z"
         id="rect3940" />
      <path
         style="opacity:1;fill:url(#radialGradient3873);fill-opacity:1;stroke:none"
         d="M 4.40625,43 C 3.6271875,43 3,43.627187 3,44.40625 l 0,0.1875 C 3,45.372813 3.6271875,46 4.40625,46 L 5,46 5,43 4.40625,43 z"
         id="rect3942" />
      <path
         style="opacity:1;fill:url(#linearGradient3870);fill-opacity:1;stroke:none"
         d="m 5,43 14,0 0,3 -14,0 z"
         id="rect3938" />
    </g>
    <path
       id="rect2998"
       d="m 20.5,30 c 0,-1.376351 -1.123649,-2.5 -2.5,-2.5 l -12,0 c -1.376351,0 -2.5,1.123649 -2.5,2.5 l 0,12 c 0,1.376351 1.123649,2.5 2.5,2.5 l 12,0 c 1.376351,0 2.5,-1.123649 2.5,-2.5 l 0,-12 z"
       style="color:#000000;fill:url(#linearGradient3859);fill-opacity:1;fill-rule:nonzero;stroke:none;stroke-width:4;marker:none;visibility:visible;display:inline;overflow:visible;enable-background:accumulate" />
    <path
       style="color:#000000;fill:none;stroke:none;stroke-width:4;marker:none;visibility:visible;display:inline;overflow:visible;enable-background:accumulate"
       d="m 6,28 c -1.108,0 -2,0.892 -2,2 l 0,12 c 0,1.108 0.892,2 2,2 l 12,0 c 1.108,0 2,-0.892 2,-2 l 0,-12 c 0,-1.108 -0.892,-2 -2,-2 z"
       id="path3018" />
    <path
       style="opacity:0.41000001;color:#000000;fill:none;stroke:#000000;stroke-width:1;stroke-miterlimit:4;stroke-opacity:1;stroke-dasharray:none;marker:none;visibility:visible;display:inline;overflow:visible;enable-background:accumulate"
       d="m 20.5,30 c 0,-1.376351 -1.123649,-2.5 -2.5,-2.5 l -12,0 c -1.376351,0 -2.5,1.123649 -2.5,2.5 l 0,12 c 0,1.376351 1.123649,2.5 2.5,2.5 l 12,0 c 1.376351,0 2.5,-1.123649 2.5,-2.5 l 0,-12 z"
       id="path3861" />
  </g>
  <g
     transform="translate(0,2)"
     id="layer2">
    <path
       style="color:#000000;fill:#ffffff;fill-opacity:1;fill-rule:nonzero;stroke:none;stroke-width:1;marker:none;visibility:visible;display:inline;overflow:visible;enable-background:accumulate;opacity:0.4"
       d="M 12,4.9375 C 9.784,4.9375 8,6.75912 8,9 L 8,10.000001 7,10 7,12 7,13.999999 7,17 l 1,0 8,0 1,0 0,-3.000001 L 17,12 l 0,-2 -1,10e-7 L 16,9 C 16,6.76 14.216,4.9375 12,4.9375 z m 0,2 c 1.108,0 2,0.88472 2,2 l 0,1.062501 -4,0 0,-1.062501 c 0,-1.11528 0.892,-2 2,-2 z"
       id="path3896" />
    <path
       id="path5739"
       d="M 12,3.9375 C 9.784,3.9375 8,5.75912 8,8 L 8,9.000001 7,9 7,11 7,12.999999 7,16 l 1,0 8,0 1,0 0,-3.000001 L 17,11 17,9 16,9.000001 16,8 C 16,5.76 14.216,3.9375 12,3.9375 z m 0,2 c 1.108,0 2,0.88472 2,2 l 0,1.062501 -4,0 0,-1.062501 c 0,-1.11528 0.892,-2 2,-2 z"
       style="color:#000000;fill:url(#linearGradient3928);fill-opacity:1;fill-rule:nonzero;stroke:none;stroke-width:1;marker:none;visibility:visible;display:inline;overflow:visible;enable-background:accumulate" />
    <path
       id="path3900"
       transform="translate(0,-2)"
       d="M 12 5.9375 C 9.784 5.9375 8 7.75912 8 10 L 8 11 C 8 8.75912 9.784 6.9375 12 6.9375 C 14.216 6.9375 16 8.76 16 11 L 16 10 C 16 7.76 14.216 5.9375 12 5.9375 z M 16 11 L 16 12 L 17 12 L 17 11 L 16 11 z M 8 11 L 7 11 L 7 12 L 8 12 L 8 11 z M 10 11 L 10 12 L 14 12 L 14 11 L 10 11 z "
       style="color:#000000;fill:#000000;fill-opacity:1;fill-rule:nonzero;stroke:none;stroke-width:1;marker:none;visibility:visible;display:inline;overflow:visible;enable-background:accumulate;opacity:0.1" />
  </g>
</svg>
