<?xml version="1.0" encoding="UTF-8" standalone="no"?>
<svg
   xmlns:dc="http://purl.org/dc/elements/1.1/"
   xmlns:cc="http://creativecommons.org/ns#"
   xmlns:rdf="http://www.w3.org/1999/02/22-rdf-syntax-ns#"
   xmlns:svg="http://www.w3.org/2000/svg"
   xmlns="http://www.w3.org/2000/svg"
   xmlns:xlink="http://www.w3.org/1999/xlink"
   version="1.1"
   id="svg3495"
   height="24"
   width="24">
  <defs
     id="defs3497">
    <linearGradient
       id="linearGradient3821">
      <stop
         id="stop3823"
         offset="0"
         style="stop-color:#f7f7f7;stop-opacity:1;" />
      <stop
         id="stop3825"
         offset="1"
         style="stop-color:#dddddd;stop-opacity:1;" />
    </linearGradient>
    <linearGradient
       gradientTransform="matrix(0,1,-1,0,23,25)"
       gradientUnits="userSpaceOnUse"
       y2="11"
       x2="19.5"
       y1="11"
       x1="2.5"
       id="linearGradient3859"
       xlink:href="#linearGradient3821" />
    <linearGradient
       id="linearGradient3952">
      <stop
         id="stop3954"
         offset="0"
         style="stop-color:#000000;stop-opacity:1;" />
      <stop
         id="stop3956"
         offset="1"
         style="stop-color:#000000;stop-opacity:0;" />
    </linearGradient>
    <linearGradient
       id="linearGradient3944">
      <stop
         id="stop3946"
         offset="0"
         style="stop-color:#000000;stop-opacity:1;" />
      <stop
         id="stop3948"
         offset="1"
         style="stop-color:#000000;stop-opacity:0;" />
    </linearGradient>
    <linearGradient
       id="linearGradient3960">
      <stop
         id="stop3962"
         offset="0"
         style="stop-color:#000000;stop-opacity:0;" />
      <stop
         style="stop-color:#000000;stop-opacity:1;"
         offset="0.5"
         id="stop3970" />
      <stop
         id="stop3964"
         offset="1"
         style="stop-color:#000000;stop-opacity:0;" />
    </linearGradient>
    <linearGradient
       y2="42"
       x2="25"
       y1="45"
       x1="25"
       gradientTransform="translate(-8,1)"
       gradientUnits="userSpaceOnUse"
       id="linearGradient3870"
       xlink:href="#linearGradient3960" />
    <radialGradient
       r="2"
       fy="43.5"
       fx="9"
       cy="43.5"
       cx="9"
       gradientTransform="matrix(1,0,0,0.75,-4,11.875)"
       gradientUnits="userSpaceOnUse"
       id="radialGradient3873"
       xlink:href="#linearGradient3944" />
    <radialGradient
       r="2"
       fy="43.5"
       fx="40"
       cy="43.5"
       cx="40"
       gradientTransform="matrix(1,0,0,0.75,-21,11.875)"
       gradientUnits="userSpaceOnUse"
       id="radialGradient3876"
       xlink:href="#linearGradient3952" />
  </defs>
  <metadata
     id="metadata3500">
    <rdf:RDF>
      <cc:Work
         rdf:about="">
        <dc:format>image/svg+xml</dc:format>
        <dc:type
           rdf:resource="http://purl.org/dc/dcmitype/StillImage" />
        <dc:title />
      </cc:Work>
    </rdf:RDF>
  </metadata>
  <g
     transform="translate(0,-24)"
     id="layer1">
    <g
       style="opacity:0.3"
       id="g3878">
      <path
         style="opacity:1;fill:url(#radialGradient3876);fill-opacity:1;stroke:none"
         d="m 19,43 0,3 0.5,0 C 20.331,46 21,45.331 21,44.5 21,43.669 20.331,43 19.5,43 L 19,43 z"
         id="rect3940" />
      <path
         style="opacity:1;fill:url(#radialGradient3873);fill-opacity:1;stroke:none"
         d="M 4.40625,43 C 3.6271875,43 3,43.627187 3,44.40625 l 0,0.1875 C 3,45.372813 3.6271875,46 4.40625,46 L 5,46 5,43 4.40625,43 z"
         id="rect3942" />
      <path
         style="opacity:1;fill:url(#linearGradient3870);fill-opacity:1;stroke:none"
         d="m 5,43 14,0 0,3 -14,0 z"
         id="rect3938" />
    </g>
    <path
       id="rect2998"
       d="m 20.5,30 c 0,-1.376351 -1.123649,-2.5 -2.5,-2.5 l -12,0 c -1.376351,0 -2.5,1.123649 -2.5,2.5 l 0,12 c 0,1.376351 1.123649,2.5 2.5,2.5 l 12,0 c 1.376351,0 2.5,-1.123649 2.5,-2.5 l 0,-12 z"
       style="color:#000000;fill:url(#linearGradient3859);fill-opacity:1;fill-rule:nonzero;stroke:none;stroke-width:4;marker:none;visibility:visible;display:inline;overflow:visible;enable-background:accumulate" />
    <path
       style="color:#000000;fill:none;stroke:none;stroke-width:4;marker:none;visibility:visible;display:inline;overflow:visible;enable-background:accumulate"
       d="m 6,28 c -1.108,0 -2,0.892 -2,2 l 0,12 c 0,1.108 0.892,2 2,2 l 12,0 c 1.108,0 2,-0.892 2,-2 l 0,-12 c 0,-1.108 -0.892,-2 -2,-2 z"
       id="path3018" />
    <path
       style="opacity:0.41000001;color:#000000;fill:none;stroke:#000000;stroke-width:1;stroke-miterlimit:4;stroke-opacity:1;stroke-dasharray:none;marker:none;visibility:visible;display:inline;overflow:visible;enable-background:accumulate"
       d="m 20.5,30 c 0,-1.376351 -1.123649,-2.5 -2.5,-2.5 l -12,0 c -1.376351,0 -2.5,1.123649 -2.5,2.5 l 0,12 c 0,1.376351 1.123649,2.5 2.5,2.5 l 12,0 c 1.376351,0 2.5,-1.123649 2.5,-2.5 l 0,-12 z"
       id="path3861" />
  </g>
  <g
     transform="translate(0,2)"
     id="layer2">
    <path
       style="fill:#ffffff;fill-opacity:1;opacity:0.4"
       d="m 7,6 0,1 c 0,0.3017006 0.1337965,0.5669497 0.34375,0.75 l 3.25,3.25 -3.25,3.25 C 7.1337965,14.43305 7,14.698299 7,15 l 0,1 1,0 c 0.3017006,0 0.5669497,-0.133796 0.75,-0.34375 l 3.25,-3.25 3.25,3.25 C 15.43305,15.866204 15.699595,15.972065 16,16 l 1,0 0,-1 c 0,-0.301701 -0.133796,-0.56695 -0.34375,-0.75 l -3.25,-3.25 3.25,-3.25 C 16.866204,7.5669497 17,7.3017006 17,7 l 0,-1 -1,0 c -0.301701,0 -0.56695,0.1337965 -0.75,0.34375 l -3.25,3.25 -3.25,-3.25 C 8.5669497,6.1337965 8.3016207,6.0069434 8,6 z"
       id="path3827" />
    <path
       id="rect3783"
       transform="translate(0,-2)"
       d="m 7,7 0,1 c 0,0.3017006 0.1337965,0.5669497 0.34375,0.75 l 3.25,3.25 -3.25,3.25 C 7.1337965,15.43305 7,15.698299 7,16 l 0,1 1,0 c 0.3017006,0 0.5669497,-0.133796 0.75,-0.34375 l 3.25,-3.25 3.25,3.25 C 15.43305,16.866204 15.699595,16.972065 16,17 l 1,0 0,-1 c 0,-0.301701 -0.133796,-0.56695 -0.34375,-0.75 l -3.25,-3.25 3.25,-3.25 C 16.866204,8.5669497 17,8.3017006 17,8 l 0,-1 -1,0 c -0.301701,0 -0.56695,0.1337965 -0.75,0.34375 l -3.25,3.25 -3.25,-3.25 C 8.5669497,7.1337965 8.3016207,7.0069434 8,7 z"
       style="fill:#bbbbbb;fill-opacity:1" />
    <path
       id="path3823"
       transform="translate(0,-2)"
       d="M 7 7 L 7 8 L 8 8 C 8.3016207 8.0069434 8.5669497 8.1337965 8.75 8.34375 L 12 11.59375 L 15.25 8.34375 C 15.43305 8.1337965 15.698299 8 16 8 L 17 8 L 17 7 L 16 7 C 15.698299 7 15.43305 7.1337965 15.25 7.34375 L 12 10.59375 L 8.75 7.34375 C 8.5669497 7.1337965 8.3016207 7.0069434 8 7 L 7 7 z M 10.09375 12.5 L 7.34375 15.25 C 7.1337965 15.43305 7 15.698299 7 16 L 7 17 C 7 16.698299 7.1337965 16.43305 7.34375 16.25 L 10.59375 13 L 10.09375 12.5 z M 13.90625 12.5 L 13.40625 13 L 16.65625 16.25 C 16.866204 16.43305 17 16.698299 17 17 L 17 16 C 17 15.698299 16.866204 15.43305 16.65625 15.25 L 13.90625 12.5 z "
       style="fill:#000000;fill-opacity:1;opacity:0.1" />
  </g>
</svg>
