<?xml version="1.0" encoding="UTF-8" standalone="no"?>
<svg
   xmlns:dc="http://purl.org/dc/elements/1.1/"
   xmlns:cc="http://creativecommons.org/ns#"
   xmlns:rdf="http://www.w3.org/1999/02/22-rdf-syntax-ns#"
   xmlns:svg="http://www.w3.org/2000/svg"
   xmlns="http://www.w3.org/2000/svg"
   xmlns:xlink="http://www.w3.org/1999/xlink"
   version="1.1"
   id="svg3495"
   height="24"
   width="24">
  <defs
     id="defs3497">
    <linearGradient
       id="linearGradient3922">
      <stop
         id="stop3924"
         offset="0"
         style="stop-color:#a0a0a0;stop-opacity:1" />
      <stop
         id="stop3926"
         offset="1"
         style="stop-color:#cacaca;stop-opacity:1" />
    </linearGradient>
    <linearGradient
       id="linearGradient3821">
      <stop
         id="stop3823"
         offset="0"
         style="stop-color:#f7f7f7;stop-opacity:1;" />
      <stop
         id="stop3825"
         offset="1"
         style="stop-color:#dddddd;stop-opacity:1;" />
    </linearGradient>
    <linearGradient
       gradientTransform="matrix(0,1,-1,0,23,25)"
       gradientUnits="userSpaceOnUse"
       y2="11"
       x2="19.5"
       y1="11"
       x1="2.5"
       id="linearGradient3859"
       xlink:href="#linearGradient3821" />
    <linearGradient
       id="linearGradient3952">
      <stop
         id="stop3954"
         offset="0"
         style="stop-color:#000000;stop-opacity:1;" />
      <stop
         id="stop3956"
         offset="1"
         style="stop-color:#000000;stop-opacity:0;" />
    </linearGradient>
    <linearGradient
       id="linearGradient3944">
      <stop
         id="stop3946"
         offset="0"
         style="stop-color:#000000;stop-opacity:1;" />
      <stop
         id="stop3948"
         offset="1"
         style="stop-color:#000000;stop-opacity:0;" />
    </linearGradient>
    <linearGradient
       id="linearGradient3960">
      <stop
         id="stop3962"
         offset="0"
         style="stop-color:#000000;stop-opacity:0;" />
      <stop
         style="stop-color:#000000;stop-opacity:1;"
         offset="0.5"
         id="stop3970" />
      <stop
         id="stop3964"
         offset="1"
         style="stop-color:#000000;stop-opacity:0;" />
    </linearGradient>
    <linearGradient
       y2="42"
       x2="25"
       y1="45"
       x1="25"
       gradientTransform="translate(-8,1)"
       gradientUnits="userSpaceOnUse"
       id="linearGradient3870"
       xlink:href="#linearGradient3960" />
    <radialGradient
       r="2"
       fy="43.5"
       fx="9"
       cy="43.5"
       cx="9"
       gradientTransform="matrix(1,0,0,0.75,-4,11.875)"
       gradientUnits="userSpaceOnUse"
       id="radialGradient3873"
       xlink:href="#linearGradient3944" />
    <radialGradient
       r="2"
       fy="43.5"
       fx="40"
       cy="43.5"
       cx="40"
       gradientTransform="matrix(1,0,0,0.75,-21,11.875)"
       gradientUnits="userSpaceOnUse"
       id="radialGradient3876"
       xlink:href="#linearGradient3952" />
    <linearGradient
       gradientUnits="userSpaceOnUse"
       y2="22"
       x2="12"
       y1="-2"
       x1="12"
       id="linearGradient3987"
       xlink:href="#linearGradient3922" />
  </defs>
  <metadata
     id="metadata3500">
    <rdf:RDF>
      <cc:Work
         rdf:about="">
        <dc:format>image/svg+xml</dc:format>
        <dc:type
           rdf:resource="http://purl.org/dc/dcmitype/StillImage" />
        <dc:title />
      </cc:Work>
    </rdf:RDF>
  </metadata>
  <g
     transform="translate(0,-24)"
     id="layer1">
    <g
       style="opacity:0.3"
       id="g3878">
      <path
         style="opacity:1;fill:url(#radialGradient3876);fill-opacity:1;stroke:none"
         d="m 19,43 0,3 0.5,0 C 20.331,46 21,45.331 21,44.5 21,43.669 20.331,43 19.5,43 L 19,43 z"
         id="rect3940" />
      <path
         style="opacity:1;fill:url(#radialGradient3873);fill-opacity:1;stroke:none"
         d="M 4.40625,43 C 3.6271875,43 3,43.627187 3,44.40625 l 0,0.1875 C 3,45.372813 3.6271875,46 4.40625,46 L 5,46 5,43 4.40625,43 z"
         id="rect3942" />
      <path
         style="opacity:1;fill:url(#linearGradient3870);fill-opacity:1;stroke:none"
         d="m 5,43 14,0 0,3 -14,0 z"
         id="rect3938" />
    </g>
    <path
       id="rect2998"
       d="m 20.5,30 c 0,-1.376351 -1.123649,-2.5 -2.5,-2.5 l -12,0 c -1.376351,0 -2.5,1.123649 -2.5,2.5 l 0,12 c 0,1.376351 1.123649,2.5 2.5,2.5 l 12,0 c 1.376351,0 2.5,-1.123649 2.5,-2.5 l 0,-12 z"
       style="color:#000000;fill:url(#linearGradient3859);fill-opacity:1;fill-rule:nonzero;stroke:none;stroke-width:4;marker:none;visibility:visible;display:inline;overflow:visible;enable-background:accumulate" />
    <path
       style="color:#000000;fill:none;stroke:none;stroke-width:4;marker:none;visibility:visible;display:inline;overflow:visible;enable-background:accumulate"
       d="m 6,28 c -1.108,0 -2,0.892 -2,2 l 0,12 c 0,1.108 0.892,2 2,2 l 12,0 c 1.108,0 2,-0.892 2,-2 l 0,-12 c 0,-1.108 -0.892,-2 -2,-2 z"
       id="path3018" />
    <path
       style="opacity:0.41000001;color:#000000;fill:none;stroke:#000000;stroke-width:1;stroke-miterlimit:4;stroke-opacity:1;stroke-dasharray:none;marker:none;visibility:visible;display:inline;overflow:visible;enable-background:accumulate"
       d="m 20.5,30 c 0,-1.376351 -1.123649,-2.5 -2.5,-2.5 l -12,0 c -1.376351,0 -2.5,1.123649 -2.5,2.5 l 0,12 c 0,1.376351 1.123649,2.5 2.5,2.5 l 12,0 c 1.376351,0 2.5,-1.123649 2.5,-2.5 l 0,-12 z"
       id="path3861" />
  </g>
  <g
     transform="translate(0,2)"
     id="layer2">
    <path
       style="fill:#ffffff;fill-opacity:1;fill-rule:nonzero;stroke:none;display:inline;enable-background:new;opacity:0.4"
       d="m 12.01167,5.16635 c 1.1844,0 2.34546,0.35561 3.33666,1.05 0.31687,0.22167 0.385,0.65149 0.16333,0.96833 -0.2212,0.31689 -0.65193,0.39712 -0.96833,0.175 -0.7658,-0.53622 -1.66226,-0.80172 -2.57833,-0.79333 -0.1316,0 -0.25667,0 -0.385,0.0117 -0.0392,0.004 -0.0775,0.0184 -0.11667,0.0233 -0.10546,0.013 -0.21233,0.0265 -0.315,0.0467 -0.0457,0.009 -0.0957,0.013 -0.14,0.0233 -0.10126,0.0229 -0.20486,0.0518 -0.30333,0.0817 -0.0313,0.01 -0.0621,0.0247 -0.0933,0.035 -0.11247,0.0368 -0.21794,0.0714 -0.32667,0.11667 -0.0112,0.005 -0.0243,0.007 -0.035,0.0117 -0.6524,0.28044 -1.22173,0.71961 -1.66833,1.25999 -0.003,0.005 -0.009,0.008 -0.0117,0.0117 -0.62813,0.76484 -1.00286,1.73501 -1.00332,2.8 l 1.16666,0 -1.86666,2.8 -1.86667,-2.8 1.16667,0 C 6.16714,9.7645 6.54654,8.63706 7.19334,7.69812 c 0.009,-0.0161 0.0126,-0.0319 0.0233,-0.0467 0.0803,-0.11479 0.1694,-0.21934 0.25666,-0.32667 0.0103,-0.013 0.0243,-0.0337 0.035,-0.0467 0.59174,-0.71822 1.32766,-1.27077 2.17,-1.63333 0.0233,-0.0103 0.0467,-0.0251 0.07,-0.035 0.1344,-0.0555 0.26973,-0.10545 0.40833,-0.15167 0.0499,-0.0166 0.1008,-0.0314 0.15167,-0.0467 0.12086,-0.0368 0.24966,-0.0649 0.37333,-0.0933 0.0681,-0.0157 0.12926,-0.0332 0.19833,-0.0467 0.0341,-0.006 0.0714,-0.0175 0.105,-0.0233 0.0924,-0.0162 0.1876,-0.0229 0.28,-0.035 0.0639,-0.008 0.12226,-0.0171 0.18666,-0.0233 0.15494,-0.0143 0.31267,-0.0206 0.46667,-0.0233 0.028,0 0.0537,0 0.0817,0 l 0.0117,0 z m 5.12165,3.03333 1.86667,2.8 -1.16667,0 c 0,1.22733 -0.38826,2.36088 -1.03833,3.30166 -0.008,0.013 -0.0144,0.022 -0.0233,0.035 -0.0672,0.0961 -0.13767,0.189 -0.21,0.28 -0.0271,0.0345 -0.0537,0.0714 -0.0817,0.105 -0.1064,0.12923 -0.22213,0.24311 -0.33833,0.36166 -0.0112,0.0117 -0.0126,0.0242 -0.0233,0.035 -0.39013,0.39057 -0.8386,0.72845 -1.31833,0.99167 -0.0126,0.008 -0.0214,0.0161 -0.035,0.0233 -0.13813,0.0742 -0.2758,0.13488 -0.42,0.19833 -0.036,0.0153 -0.0803,0.0309 -0.11667,0.0467 -0.1232,0.0509 -0.24593,0.0975 -0.37333,0.14 -0.0602,0.0207 -0.11387,0.0395 -0.175,0.0583 -0.11153,0.0332 -0.2352,0.0663 -0.35,0.0933 -0.0761,0.0175 -0.1442,0.0318 -0.22167,0.0467 -0.0322,0.006 -0.0616,0.0179 -0.0933,0.0233 -0.10827,0.0188 -0.2184,0.0337 -0.32667,0.0467 -0.0392,0.004 -0.0775,0.008 -0.11666,0.0117 -0.1946,0.0188 -0.38967,0.035 -0.58334,0.035 -1.18579,0 -2.34405,-0.36633 -3.33665,-1.06167 -0.3164,-0.22211 -0.39667,-0.66316 -0.175,-0.98 0.22213,-0.31733 0.66406,-0.38544 0.98,-0.16333 0.77139,0.54039 1.66739,0.8059 2.58999,0.79333 0.1218,0 0.2422,0 0.36166,-0.0117 0.049,-0.005 0.10267,-0.0175 0.15167,-0.0233 0.0943,-0.0126 0.18807,-0.0287 0.28,-0.0467 0.0565,-0.0108 0.1078,-0.022 0.16333,-0.035 0.0901,-0.0211 0.1806,-0.044 0.26834,-0.07 0.0424,-0.013 0.0863,-0.0211 0.12833,-0.035 0.10127,-0.0341 0.20533,-0.0756 0.30333,-0.11666 0.0224,-0.009 0.0481,-0.0135 0.07,-0.0233 0.1148,-0.0504 0.217,-0.10411 0.32668,-0.16334 0.005,-0.005 0.0182,-0.009 0.0233,-0.0117 0.371,-0.2039 0.7056,-0.4611 1.00333,-0.75833 0.005,-0.005 0.006,-0.006 0.0117,-0.0117 0.0924,-0.0928 0.18435,-0.19039 0.26834,-0.29167 0.0177,-0.0215 0.0406,-0.0481 0.0583,-0.07 0.6062,-0.75833 0.96833,-1.70943 0.96833,-2.75333 l -1.16665,0 1.86665,-2.79999 z"
       id="path3994" />
    <path
       id="path3849"
       d="m 12.01167,4.166675 c 1.1844,0 2.34546,0.35561 3.33666,1.05 0.31687,0.22167 0.385,0.65149 0.16333,0.96833 -0.2212,0.31689 -0.65193,0.39712 -0.96833,0.175 -0.7658,-0.53622 -1.66226,-0.80172 -2.57833,-0.79333 -0.1316,0 -0.25667,0 -0.385,0.0117 -0.0392,0.004 -0.0775,0.0184 -0.11667,0.0233 -0.10546,0.013 -0.21233,0.0265 -0.315,0.0467 -0.0457,0.009 -0.0957,0.013 -0.14,0.0233 -0.10126,0.0229 -0.20486,0.0518 -0.30333,0.0817 -0.0313,0.01 -0.0621,0.0247 -0.0933,0.035 -0.11247,0.0368 -0.21794,0.0714 -0.32667,0.11667 -0.0112,0.005 -0.0243,0.007 -0.035,0.0117 -0.6524,0.28044 -1.22173,0.71961 -1.66833,1.25999 -0.003,0.005 -0.009,0.008 -0.0117,0.0117 -0.62813,0.76484 -1.00286,1.73501 -1.00332,2.8 l 1.16666,0 -1.86666,2.8 -1.86667,-2.8 1.16667,0 c 4.6e-4,-1.22361 0.37986,-2.35105 1.02666,-3.28999 0.009,-0.0161 0.0126,-0.0319 0.0233,-0.0467 0.0803,-0.11479 0.1694,-0.21934 0.25666,-0.32667 0.0103,-0.013 0.0243,-0.0337 0.035,-0.0467 0.59174,-0.71822 1.32766,-1.27077 2.17,-1.63333 0.0233,-0.0103 0.0467,-0.0251 0.07,-0.035 0.1344,-0.0555 0.26973,-0.10545 0.40833,-0.15167 0.0499,-0.0166 0.1008,-0.0314 0.15167,-0.0467 0.12086,-0.0368 0.24966,-0.0649 0.37333,-0.0933 0.0681,-0.0157 0.12926,-0.0332 0.19833,-0.0467 0.0341,-0.006 0.0714,-0.0175 0.105,-0.0233 0.0924,-0.0162 0.1876,-0.0229 0.28,-0.035 0.0639,-0.008 0.12226,-0.0171 0.18666,-0.0233 0.15494,-0.0143 0.31267,-0.0206 0.46667,-0.0233 0.028,0 0.0537,0 0.0817,0 l 0.0117,0 z m 5.12165,3.03333 1.86667,2.8 -1.16667,0 c 0,1.22733 -0.38826,2.36088 -1.03833,3.30166 -0.008,0.013 -0.0144,0.022 -0.0233,0.035 -0.0672,0.0961 -0.13767,0.189 -0.21,0.28 -0.0271,0.0345 -0.0537,0.0714 -0.0817,0.105 -0.1064,0.12923 -0.22213,0.24311 -0.33833,0.36166 -0.0112,0.0117 -0.0126,0.0242 -0.0233,0.035 -0.39013,0.39057 -0.8386,0.72845 -1.31833,0.99167 -0.0126,0.008 -0.0214,0.0161 -0.035,0.0233 -0.13813,0.0742 -0.2758,0.13488 -0.42,0.19833 -0.036,0.0153 -0.0803,0.0309 -0.11667,0.0467 -0.1232,0.0509 -0.24593,0.0975 -0.37333,0.14 -0.0602,0.0207 -0.11387,0.0395 -0.175,0.0583 -0.11153,0.0332 -0.2352,0.0663 -0.35,0.0933 -0.0761,0.0175 -0.1442,0.0318 -0.22167,0.0467 -0.0322,0.006 -0.0616,0.0179 -0.0933,0.0233 -0.10827,0.0188 -0.2184,0.0337 -0.32667,0.0467 -0.0392,0.004 -0.0775,0.008 -0.11666,0.0117 -0.1946,0.0188 -0.38967,0.035 -0.58334,0.035 -1.18579,0 -2.34405,-0.36633 -3.33665,-1.06167 -0.3164,-0.22211 -0.39667,-0.66316 -0.175,-0.98 0.22213,-0.31733 0.66406,-0.38544 0.98,-0.16333 0.77139,0.54039 1.66739,0.8059 2.58999,0.79333 0.1218,0 0.2422,0 0.36166,-0.0117 0.049,-0.005 0.10267,-0.0175 0.15167,-0.0233 0.0943,-0.0126 0.18807,-0.0287 0.28,-0.0467 0.0565,-0.0108 0.1078,-0.022 0.16333,-0.035 0.0901,-0.0211 0.1806,-0.044 0.26834,-0.07 0.0424,-0.013 0.0863,-0.0211 0.12833,-0.035 0.10127,-0.0341 0.20533,-0.0756 0.30333,-0.11666 0.0224,-0.009 0.0481,-0.0135 0.07,-0.0233 0.1148,-0.0504 0.217,-0.10411 0.32668,-0.16334 0.005,-0.005 0.0182,-0.009 0.0233,-0.0117 0.371,-0.2039 0.7056,-0.4611 1.00333,-0.75833 0.005,-0.005 0.006,-0.006 0.0117,-0.0117 0.0924,-0.0928 0.18435,-0.19039 0.26834,-0.29167 0.0177,-0.0215 0.0406,-0.0481 0.0583,-0.07 0.6062,-0.75833 0.96833,-1.70943 0.96833,-2.75333 l -1.16665,0 1.86665,-2.79999 z"
       style="fill:url(#linearGradient3987);fill-opacity:1;fill-rule:nonzero;stroke:none;display:inline;enable-background:new" />
    <path
       id="path3989"
       transform="translate(0,-2)"
       d="M 11.90625 6.15625 C 11.75225 6.15895 11.59244 6.1732 11.4375 6.1875 C 11.3731 6.1937 11.3139 6.21075 11.25 6.21875 C 11.1576 6.23085 11.0924 6.2338 11 6.25 C 10.9664 6.2558 10.9091 6.27525 10.875 6.28125 C 10.80593 6.29475 10.7556 6.2968 10.6875 6.3125 C 10.56383 6.3409 10.43336 6.36945 10.3125 6.40625 C 10.26163 6.42155 10.20615 6.45215 10.15625 6.46875 C 10.01765 6.51497 9.8844 6.5695 9.75 6.625 C 9.7267 6.6349 9.7108 6.64595 9.6875 6.65625 C 8.84516 7.01881 8.09174 7.56303 7.5 8.28125 C 7.4893 8.29425 7.47905 8.2995 7.46875 8.3125 C 7.38149 8.41983 7.29905 8.54146 7.21875 8.65625 C 7.20805 8.67105 7.1965 8.6714 7.1875 8.6875 C 6.5407 9.62644 6.15671 10.77639 6.15625 12 L 5 12 L 5.6875 13 L 6.15625 13 C 6.15671 11.77639 6.5407 10.62644 7.1875 9.6875 C 7.1965 9.6714 7.20805 9.67105 7.21875 9.65625 C 7.29905 9.54146 7.38149 9.41983 7.46875 9.3125 C 7.47905 9.2995 7.4893 9.29425 7.5 9.28125 C 8.09174 8.56303 8.84516 8.01881 9.6875 7.65625 C 9.7108 7.64595 9.7267 7.6349 9.75 7.625 C 9.8844 7.5695 10.01765 7.51497 10.15625 7.46875 C 10.20615 7.45215 10.26163 7.42155 10.3125 7.40625 C 10.43336 7.36945 10.56383 7.3409 10.6875 7.3125 C 10.7556 7.2968 10.80593 7.29475 10.875 7.28125 C 10.9091 7.27525 10.9664 7.2558 11 7.25 C 11.0924 7.2338 11.1576 7.23085 11.25 7.21875 C 11.3139 7.21075 11.3731 7.1937 11.4375 7.1875 C 11.59244 7.1732 11.75225 7.15895 11.90625 7.15625 L 12 7.15625 C 13.1844 7.15625 14.35255 7.52436 15.34375 8.21875 C 15.370156 8.2372225 15.383323 8.2600724 15.40625 8.28125 C 15.439815 8.2491627 15.47235 8.2271113 15.5 8.1875 C 15.72167 7.87066 15.66062 7.44042 15.34375 7.21875 C 14.35255 6.52436 13.1844 6.15625 12 6.15625 L 11.90625 6.15625 z M 17.125 9.1875 L 15.28125 12 L 15.9375 12 L 17.125 10.1875 L 18.34375 12 L 19 12 L 17.125 9.1875 z M 7.6875 12 C 7.6134193 12.320301 7.5626485 12.656221 7.5625 13 L 8.0625 13 L 8.71875 12 L 7.6875 12 z M 16.3125 13 C 16.159621 13.643422 15.870827 14.247019 15.46875 14.75 C 15.45105 14.7719 15.42395 14.791 15.40625 14.8125 C 15.32226 14.91378 15.2174 15.0322 15.125 15.125 C 14.82727 15.42223 14.496 15.6711 14.125 15.875 C 14.1199 15.8777 14.09875 15.90125 14.09375 15.90625 C 13.98407 15.96548 13.89605 16.0121 13.78125 16.0625 C 13.75935 16.0723 13.74115 16.08475 13.71875 16.09375 C 13.62075 16.13481 13.50752 16.1534 13.40625 16.1875 C 13.36422 16.2014 13.32365 16.237 13.28125 16.25 C 13.19351 16.276 13.0901 16.2914 13 16.3125 C 12.94447 16.3255 12.90025 16.33295 12.84375 16.34375 C 12.75182 16.36175 12.6568 16.3624 12.5625 16.375 C 12.5135 16.3808 12.45525 16.40125 12.40625 16.40625 C 12.28679 16.41795 12.15305 16.40625 12.03125 16.40625 C 11.10865 16.41882 10.24014 16.16539 9.46875 15.625 C 9.15281 15.40289 8.69088 15.46392 8.46875 15.78125 C 8.2725069 16.061747 8.3311168 16.450398 8.5625 16.6875 C 8.7997632 16.457663 9.1890502 16.428367 9.46875 16.625 C 10.24014 17.16539 11.10865 17.41882 12.03125 17.40625 C 12.15305 17.40625 12.28679 17.41795 12.40625 17.40625 C 12.45525 17.40125 12.5135 17.3808 12.5625 17.375 C 12.6568 17.3624 12.75182 17.36175 12.84375 17.34375 C 12.90025 17.33295 12.94447 17.3255 13 17.3125 C 13.0901 17.2914 13.19351 17.276 13.28125 17.25 C 13.32365 17.237 13.36422 17.2014 13.40625 17.1875 C 13.50752 17.1534 13.62075 17.13481 13.71875 17.09375 C 13.74115 17.08475 13.75935 17.0723 13.78125 17.0625 C 13.89605 17.0121 13.98407 16.96548 14.09375 16.90625 C 14.09875 16.90125 14.1199 16.8777 14.125 16.875 C 14.496 16.6711 14.82727 16.42223 15.125 16.125 C 15.2174 16.0322 15.32226 15.91378 15.40625 15.8125 C 15.42395 15.791 15.45105 15.7719 15.46875 15.75 C 16.07495 14.99167 16.4375 14.0439 16.4375 13 L 16.3125 13 z "
       style="fill:#000000;fill-opacity:1;fill-rule:nonzero;stroke:none;display:inline;enable-background:new;opacity:0.1" />
  </g>
</svg>
