<?xml version="1.0" encoding="UTF-8" standalone="no"?>
<!-- Created with Inkscape (http://www.inkscape.org/) -->

<svg
   xmlns:dc="http://purl.org/dc/elements/1.1/"
   xmlns:cc="http://creativecommons.org/ns#"
   xmlns:rdf="http://www.w3.org/1999/02/22-rdf-syntax-ns#"
   xmlns:svg="http://www.w3.org/2000/svg"
   xmlns="http://www.w3.org/2000/svg"
   xmlns:xlink="http://www.w3.org/1999/xlink"
   xmlns:sodipodi="http://sodipodi.sourceforge.net/DTD/sodipodi-0.dtd"
   xmlns:inkscape="http://www.inkscape.org/namespaces/inkscape"
   width="24"
   height="24"
   id="svg3495"
   version="1.1"
   inkscape:version="0.48.4 r9939"
   sodipodi:docname="folder-download.svg">
  <defs
     id="defs3497">
    <clipPath
       clipPathUnits="userSpaceOnUse"
       id="clipPath3669">
      <path
         inkscape:connector-curvature="0"
         d="M 0,96 96,96 96,0 0,0 0,96 z"
         id="path3671" />
    </clipPath>
    <linearGradient
       inkscape:collect="always"
       xlink:href="#linearGradient3760"
       id="linearGradient3852"
       gradientUnits="userSpaceOnUse"
       gradientTransform="matrix(0.92857143,0,0,-0.92857143,-148,292.57143)"
       x1="168"
       y1="280"
       x2="168"
       y2="264" />
    <linearGradient
       id="linearGradient3760">
      <stop
         style="stop-color:#e44343;stop-opacity:1;"
         offset="0"
         id="stop3762" />
      <stop
         style="stop-color:#ac0808;stop-opacity:1;"
         offset="1"
         id="stop3764" />
    </linearGradient>
    <clipPath
       clipPathUnits="userSpaceOnUse"
       id="clipPath4307">
      <path
         d="m 168,265 c -3.86599,0 -7,3.13401 -7,7 0,3.86599 3.13401,7 7,7 3.866,0 7,-3.13401 7,-7 0,-3.86599 -3.134,-7 -7,-7 z m 3.3125,3.0625 1.5625,1.40625 -5.25,6.9375 -4.0625,-3.5 1.34375,-1.78125 2.375,2.0625 4.03125,-5.125 z"
         inkscape:connector-curvature="0"
         id="path4309"
         style="color:#000000;fill:#36e12b;fill-opacity:1;fill-rule:nonzero;stroke:none;stroke-width:0.84323651;marker:none;visibility:visible;display:inline;overflow:visible;enable-background:accumulate" />
    </clipPath>
    <linearGradient
       y2="264"
       x2="168"
       y1="280"
       x1="168"
       gradientTransform="matrix(0.92857143,0,0,-0.92857143,-123,277.94643)"
       gradientUnits="userSpaceOnUse"
       id="linearGradient3082"
       xlink:href="#linearGradient3760"
       inkscape:collect="always" />
    <linearGradient
       inkscape:collect="always"
       xlink:href="#linearGradient6501"
       id="linearGradient3802"
       x1="11"
       y1="0"
       x2="11"
       y2="22"
       gradientUnits="userSpaceOnUse"
       gradientTransform="translate(1,25)" />
    <linearGradient
       inkscape:collect="always"
       xlink:href="#linearGradient3760"
       id="linearGradient3814"
       gradientUnits="userSpaceOnUse"
       x1="11"
       y1="0"
       x2="11"
       y2="22" />
    <linearGradient
       id="linearGradient3904">
      <stop
         id="stop3906"
         offset="0"
         style="stop-color:#234683;stop-opacity:1;" />
      <stop
         id="stop3908"
         offset="1"
         style="stop-color:#30589e;stop-opacity:1;" />
    </linearGradient>
    <linearGradient
       inkscape:collect="always"
       xlink:href="#outerBackgroundGradient-0"
       id="linearGradient3874"
       gradientUnits="userSpaceOnUse"
       gradientTransform="matrix(0,-1,-1,0,48.000003,48.000003)"
       x1="4.5000033"
       y1="24"
       x2="43.500004"
       y2="24" />
    <linearGradient
       id="outerBackgroundGradient-0">
      <stop
         style="stop-color:#1c6aba;stop-opacity:1"
         offset="0"
         id="stop3864-8-6-3" />
      <stop
         style="stop-color:#4195ec;stop-opacity:1"
         offset="1"
         id="stop3866-9-1-7" />
    </linearGradient>
    <linearGradient
       inkscape:collect="always"
       xlink:href="#linearGradient3813"
       id="linearGradient3839"
       x1="1"
       y1="11"
       x2="21"
       y2="11"
       gradientUnits="userSpaceOnUse"
       gradientTransform="matrix(0,1,1,0,1,25)" />
    <radialGradient
       inkscape:collect="always"
       xlink:href="#linearGradient3949"
       id="radialGradient3993"
       gradientUnits="userSpaceOnUse"
       gradientTransform="matrix(1,0,0,0.22222222,0,15.555556)"
       cx="11"
       cy="20"
       fx="11"
       fy="20"
       r="9" />
    <linearGradient
       inkscape:collect="always"
       id="linearGradient3949">
      <stop
         style="stop-color:#000000;stop-opacity:1;"
         offset="0"
         id="stop3951" />
      <stop
         style="stop-color:#000000;stop-opacity:0;"
         offset="1"
         id="stop3953" />
    </linearGradient>
    <radialGradient
       inkscape:collect="always"
       xlink:href="#linearGradient3949"
       id="radialGradient3997"
       gradientUnits="userSpaceOnUse"
       gradientTransform="matrix(1,0,0,0.22222222,0,15.555556)"
       cx="11"
       cy="20"
       fx="11"
       fy="20"
       r="9" />
    <radialGradient
       r="9"
       fy="20"
       fx="11"
       cy="20"
       cx="11"
       gradientTransform="matrix(1,0,0,0.22222222,0,15.555556)"
       gradientUnits="userSpaceOnUse"
       id="radialGradient4535"
       xlink:href="#linearGradient3949"
       inkscape:collect="always" />
    <linearGradient
       inkscape:collect="always"
       xlink:href="#linearGradient3813"
       id="linearGradient3836"
       x1="0"
       y1="11"
       x2="22"
       y2="11"
       gradientUnits="userSpaceOnUse"
       gradientTransform="matrix(0,1,-1,0,22,0)" />
    <linearGradient
       id="linearGradient3813">
      <stop
         style="stop-color:#3e8292;stop-opacity:1;"
         offset="0"
         id="stop3815" />
      <stop
         style="stop-color:#133f8f;stop-opacity:1;"
         offset="1"
         id="stop3817" />
    </linearGradient>
    <radialGradient
       inkscape:collect="always"
       xlink:href="#linearGradient6501"
       id="radialGradient3820"
       gradientUnits="userSpaceOnUse"
       gradientTransform="matrix(0,1.1468756,-1.2132576,-3.1216191e-8,21.2518,-7.94309)"
       cx="6.0693989"
       cy="8.4497671"
       fx="6.0693989"
       fy="8.4497671"
       r="19.99999" />
    <linearGradient
       id="linearGradient6501">
      <stop
         id="stop6503"
         offset="0"
         style="stop-color:#44d9ff;stop-opacity:1;" />
      <stop
         style="stop-color:#4690d1;stop-opacity:1;"
         offset="0.64285713"
         id="stop7407" />
      <stop
         id="stop6507"
         offset="1"
         style="stop-color:#4862b1;stop-opacity:1;" />
    </linearGradient>
    <radialGradient
       r="19.99999"
       fy="8.4497671"
       fx="6.0693989"
       cy="8.4497671"
       cx="6.0693989"
       gradientTransform="matrix(0,1.1468756,-1.2132576,-3.1216191e-8,21.2518,-7.9430902)"
       gradientUnits="userSpaceOnUse"
       id="radialGradient3044"
       xlink:href="#linearGradient6501"
       inkscape:collect="always" />
    <radialGradient
       inkscape:collect="always"
       xlink:href="#linearGradient6501"
       id="radialGradient3080"
       gradientUnits="userSpaceOnUse"
       gradientTransform="matrix(0,1.1468756,-1.2132576,-3.1216191e-8,41.187722,26.051706)"
       cx="6.0693989"
       cy="8.4497671"
       fx="6.0693989"
       fy="8.4497671"
       r="19.99999" />
    <linearGradient
       inkscape:collect="always"
       xlink:href="#linearGradient3813"
       id="linearGradient3083"
       gradientUnits="userSpaceOnUse"
       gradientTransform="matrix(0,1,-1,0,41.935922,33.994796)"
       x1="0"
       y1="11"
       x2="22"
       y2="11" />
  </defs>
  <sodipodi:namedview
     id="base"
     pagecolor="#ffffff"
     bordercolor="#666666"
     borderopacity="1.0"
     inkscape:pageopacity="0.0"
     inkscape:pageshadow="2"
     inkscape:zoom="1"
     inkscape:cx="14.290472"
     inkscape:cy="5.7520901"
     inkscape:current-layer="layer2"
     showgrid="false"
     showborder="false"
     inkscape:grid-bbox="true"
     inkscape:document-units="px"
     inkscape:window-width="1364"
     inkscape:window-height="700"
     inkscape:window-x="0"
     inkscape:window-y="28"
     inkscape:window-maximized="1"
     inkscape:snap-bbox="true"
     inkscape:bbox-paths="true"
     inkscape:bbox-nodes="true"
     inkscape:snap-bbox-edge-midpoints="false"
     showguides="true"
     inkscape:guide-bbox="true">
    <inkscape:grid
       type="xygrid"
       id="grid3512"
       empspacing="4"
       visible="true"
       enabled="true"
       snapvisiblegridlinesonly="true"
       dotted="false" />
  </sodipodi:namedview>
  <metadata
     id="metadata3500">
    <rdf:RDF>
      <cc:Work
         rdf:about="">
        <dc:format>image/svg+xml</dc:format>
        <dc:type
           rdf:resource="http://purl.org/dc/dcmitype/StillImage" />
        <dc:title />
      </cc:Work>
    </rdf:RDF>
  </metadata>
  <g
     id="layer1"
     inkscape:label="Background"
     inkscape:groupmode="layer"
     transform="translate(0,-24)">
    <g
       id="g4507"
       transform="translate(1,-1)">
      <path
         d="m 20,20 c 0,1.104569 -4.029437,2 -9,2 -4.9705627,0 -9,-0.895431 -9,-2 0,-1.104569 4.0294373,-2 9,-2 4.970563,0 9,0.895431 9,2 z"
         sodipodi:ry="2"
         sodipodi:rx="9"
         sodipodi:cy="20"
         sodipodi:cx="11"
         id="path3163"
         style="opacity:0.4;fill:url(#radialGradient3993);fill-opacity:1;stroke:none"
         sodipodi:type="arc"
         transform="matrix(1,0,0,1.5,0,15)" />
      <path
         transform="matrix(0.66666667,0,0,1,3.6666666,26)"
         sodipodi:type="arc"
         style="opacity:0.8;fill:url(#radialGradient4535);fill-opacity:1;stroke:none"
         id="path3995"
         sodipodi:cx="11"
         sodipodi:cy="20"
         sodipodi:rx="9"
         sodipodi:ry="2"
         d="m 20,20 c 0,1.104569 -4.029437,2 -9,2 -4.9705627,0 -9,-0.895431 -9,-2 0,-1.104569 4.0294373,-2 9,-2 4.970563,0 9,0.895431 9,2 z" />
    </g>
    <path
       style="fill:url(#linearGradient3802);fill-opacity:1;fill-rule:evenodd;stroke:none"
       d="m 12,26.5 c -5.2407828,0 -9.5,4.259217 -9.5,9.5 0,5.240782 4.2592171,9.5 9.5,9.5 5.240783,0 9.5,-4.259218 9.5,-9.5 0,-5.240783 -4.259217,-9.5 -9.5,-9.5 z"
       id="path4791"
       inkscape:connector-curvature="0" />
    <path
       id="path3804"
       d="m 2.5,36 c 0,-5.240783 4.259217,-9.5 9.5,-9.5 5.240782,0 9.5,4.259217 9.5,9.5 0,5.240783 -4.259218,9.5 -9.5,9.5 -5.240783,0 -9.5,-4.259217 -9.5,-9.5 z"
       style="opacity:0.81000001;fill:none;stroke:url(#linearGradient3839);stroke-opacity:1"
       inkscape:connector-curvature="0" />
    <path
       style="opacity:0.2;fill:#ffffff;fill-opacity:1;fill-rule:evenodd;stroke:none"
       d="m 12,27 c -4.9698807,0 -9,4.030119 -9,9 0,0.171541 0.021774,0.330826 0.03125,0.5 C 3.2963002,31.767849 7.2016599,28 12,28 c 4.79834,0 8.7037,3.767849 8.96875,8.5 C 20.978226,36.330826 21,36.171541 21,36 21,31.030119 16.969881,27 12,27 z"
       id="path3806"
       inkscape:connector-curvature="0" />
    <path
       id="path3820"
       d="M 12,46 C 7.0301193,46 3,41.969881 3,37 3,36.828459 3.021774,36.669174 3.03125,36.5 3.2963002,41.232151 7.2016599,45 12,45 16.79834,45 20.7037,41.232151 20.96875,36.5 20.97825,36.669174 21,36.828459 21,37 c 0,4.969881 -4.030119,9 -9,9 z"
       style="opacity:0.2;fill:#000000;fill-opacity:1;fill-rule:evenodd;stroke:none"
       inkscape:connector-curvature="0" />
  </g>
  <g
     inkscape:groupmode="layer"
     id="layer2"
     inkscape:label="Symbol"
     transform="translate(0,2)">
    <path
       d="M 10,5.00021 10,10.99979 7.5,11 12,17 16.5,11 14,10.99979 14,5.00021 z"
       inkscape:connector-curvature="0"
       id="path3854"
       style="opacity:0.3;color:#000000;fill:#000000;fill-opacity:1;fill-rule:nonzero;stroke:none;stroke-width:1;marker:none;visibility:visible;display:inline;overflow:visible;enable-background:accumulate"
       sodipodi:nodetypes="cccccccc" />
    <path
       sodipodi:nodetypes="cccccccc"
       style="color:#000000;fill:#ffffff;fill-opacity:1;fill-rule:nonzero;stroke:none;stroke-width:1;marker:none;visibility:visible;display:inline;overflow:visible;enable-background:accumulate"
       id="rect3005"
       inkscape:connector-curvature="0"
       d="m 10,4.000105 0,5.99958 -2.5,2.1e-4 4.5,6 4.5,-6 -2.5,-2.1e-4 0,-5.99958 z" />
  </g>
</svg>
