<?xml version="1.0" encoding="UTF-8" standalone="no"?>
<!-- Created with Inkscape (http://www.inkscape.org/) -->

<svg
   xmlns:dc="http://purl.org/dc/elements/1.1/"
   xmlns:cc="http://creativecommons.org/ns#"
   xmlns:rdf="http://www.w3.org/1999/02/22-rdf-syntax-ns#"
   xmlns:svg="http://www.w3.org/2000/svg"
   xmlns="http://www.w3.org/2000/svg"
   xmlns:xlink="http://www.w3.org/1999/xlink"
   xmlns:sodipodi="http://sodipodi.sourceforge.net/DTD/sodipodi-0.dtd"
   xmlns:inkscape="http://www.inkscape.org/namespaces/inkscape"
   version="1.1"
   width="32"
   height="32"
   id="svg4300"
   inkscape:version="0.48.4 r9939"
   sodipodi:docname="preferences-desktop-peripherals.svg">
  <sodipodi:namedview
     pagecolor="#ffffff"
     bordercolor="#666666"
     borderopacity="1"
     objecttolerance="10"
     gridtolerance="10"
     guidetolerance="10"
     inkscape:pageopacity="0"
     inkscape:pageshadow="2"
     inkscape:window-width="1364"
     inkscape:window-height="700"
     id="namedview68"
     showgrid="false"
     showborder="false"
     inkscape:zoom="1"
     inkscape:cx="16.100125"
     inkscape:cy="11.868581"
     inkscape:window-x="0"
     inkscape:window-y="28"
     inkscape:window-maximized="1"
     inkscape:current-layer="svg4300">
    <inkscape:grid
       type="xygrid"
       id="grid3848" />
  </sodipodi:namedview>
  <defs
     id="defs4302">
    <linearGradient
       inkscape:collect="always"
       id="linearGradient3957">
      <stop
         style="stop-color:#ffffff;stop-opacity:1;"
         offset="0"
         id="stop3959" />
      <stop
         style="stop-color:#ffffff;stop-opacity:0;"
         offset="1"
         id="stop3961" />
    </linearGradient>
    <linearGradient
       inkscape:collect="always"
       id="linearGradient3931">
      <stop
         style="stop-color:#ffffff;stop-opacity:1;"
         offset="0"
         id="stop3933" />
      <stop
         style="stop-color:#ffffff;stop-opacity:0;"
         offset="1"
         id="stop3935" />
    </linearGradient>
    <linearGradient
       inkscape:collect="always"
       id="linearGradient3880">
      <stop
         style="stop-color:#ffffff;stop-opacity:1;"
         offset="0"
         id="stop3882" />
      <stop
         style="stop-color:#ffffff;stop-opacity:0;"
         offset="1"
         id="stop3884" />
    </linearGradient>
    <linearGradient
       id="linearGradient3208-2">
      <stop
         id="stop3210-7"
         style="stop-color:#ffffff;stop-opacity:1"
         offset="0" />
      <stop
         id="stop3212-8"
         style="stop-color:#ffffff;stop-opacity:0"
         offset="1" />
    </linearGradient>
    <linearGradient
       id="linearGradient3600-8-3">
      <stop
         id="stop3602-2-5"
         style="stop-color:#f4f4f4;stop-opacity:1"
         offset="0" />
      <stop
         id="stop3604-5-9"
         style="stop-color:#dbdbdb;stop-opacity:1"
         offset="1" />
    </linearGradient>
    <linearGradient
       id="linearGradient23419-5-0">
      <stop
         id="stop23421-7-7"
         style="stop-color:#000000;stop-opacity:1"
         offset="0" />
      <stop
         id="stop23423-0-7"
         style="stop-color:#000000;stop-opacity:0"
         offset="1" />
    </linearGradient>
    <linearGradient
       id="linearGradient4099">
      <stop
         id="stop4101"
         style="stop-color:#a7a7a7;stop-opacity:1"
         offset="0" />
      <stop
         id="stop4103"
         style="stop-color:#d1d1d1;stop-opacity:1"
         offset="1" />
    </linearGradient>
    <radialGradient
       cx="4.9929786"
       cy="43.5"
       r="2.5"
       fx="4.9929786"
       fy="43.5"
       id="radialGradient3163"
       xlink:href="#linearGradient3688-166-749"
       gradientUnits="userSpaceOnUse"
       gradientTransform="matrix(2.003784,0,0,1.4,27.98813,-17.4)" />
    <linearGradient
       id="linearGradient3688-166-749">
      <stop
         id="stop2883"
         style="stop-color:#181818;stop-opacity:1"
         offset="0" />
      <stop
         id="stop2885"
         style="stop-color:#181818;stop-opacity:0"
         offset="1" />
    </linearGradient>
    <radialGradient
       cx="4.9929786"
       cy="43.5"
       r="2.5"
       fx="4.9929786"
       fy="43.5"
       id="radialGradient3165"
       xlink:href="#linearGradient3688-464-309"
       gradientUnits="userSpaceOnUse"
       gradientTransform="matrix(2.003784,0,0,1.4,-20.01187,-104.4)" />
    <linearGradient
       id="linearGradient3688-464-309">
      <stop
         id="stop2889"
         style="stop-color:#181818;stop-opacity:1"
         offset="0" />
      <stop
         id="stop2891"
         style="stop-color:#181818;stop-opacity:0"
         offset="1" />
    </linearGradient>
    <linearGradient
       x1="25.058096"
       y1="47.027729"
       x2="25.058096"
       y2="39.999443"
       id="linearGradient3167"
       xlink:href="#linearGradient3702-501-757"
       gradientUnits="userSpaceOnUse" />
    <linearGradient
       id="linearGradient3702-501-757">
      <stop
         id="stop2895"
         style="stop-color:#181818;stop-opacity:0"
         offset="0" />
      <stop
         id="stop2897"
         style="stop-color:#181818;stop-opacity:1"
         offset="0.5" />
      <stop
         id="stop2899"
         style="stop-color:#181818;stop-opacity:0"
         offset="1" />
    </linearGradient>
    <linearGradient
       inkscape:collect="always"
       xlink:href="#linearGradient3208-2"
       id="linearGradient3817"
       gradientUnits="userSpaceOnUse"
       gradientTransform="matrix(1.4307233,0,0,0.67711807,-21.489987,-2.3730576)"
       x1="14"
       y1="2"
       x2="32"
       y2="40" />
    <linearGradient
       inkscape:collect="always"
       xlink:href="#linearGradient3600-8-3"
       id="linearGradient3823"
       gradientUnits="userSpaceOnUse"
       gradientTransform="matrix(0.61092353,0,0,0.54242943,5.940347,2.219405)"
       x1="18.601307"
       y1="0.85446119"
       x2="18.601307"
       y2="49.956139" />
    <radialGradient
       inkscape:collect="always"
       xlink:href="#linearGradient23419-5-0"
       id="radialGradient3826"
       gradientUnits="userSpaceOnUse"
       gradientTransform="matrix(0.41984462,0,0,0.13257013,0.203125,22.480299)"
       cx="23.334524"
       cy="41.63604"
       fx="23.334524"
       fy="41.63604"
       r="22.627417" />
    <linearGradient
       inkscape:collect="always"
       xlink:href="#linearGradient4099"
       id="linearGradient3861"
       gradientUnits="userSpaceOnUse"
       x1="18.387106"
       y1="26.209101"
       x2="18.387106"
       y2="8.4976816"
       gradientTransform="translate(0.10563469,0)" />
    <linearGradient
       inkscape:collect="always"
       xlink:href="#linearGradient3880"
       id="linearGradient3886"
       x1="21"
       y1="9"
       x2="21"
       y2="27"
       gradientUnits="userSpaceOnUse" />
    <clipPath
       clipPathUnits="userSpaceOnUse"
       id="clipPath3925">
      <path
         sodipodi:nodetypes="ccccccccccccscccc"
         d="M 9.973523,3.0002484 C 8.320279,3.0391614 6.458226,3.1393485 4.8075902,4.6635946 3.1569544,6.1878408 3.4517739,8.68243 3.1960902,10.595779 c -0.00681,0.01239 -0.013174,0.02503 -0.019061,0.03788 -0.2936586,4.903463 -0.2774201,9.875468 0.4772841,14.774346 -1.034e-4,0.0063 -1.034e-4,0.01261 0,0.01891 0.2454814,1.297009 1.0594097,2.673676 2.9649917,3.198028 1.905582,0.524351 4.361324,0.524538 6.63796,0.0031 1.179151,-0.270484 2.400881,-0.995182 2.825522,-2.310859 0.0019,-0.0054 -0.0019,-0.01328 0,-0.01891 0.554242,-1.571852 0.543509,-3.189994 0.786221,-6.29134 C 17.11172,16.905587 17.090954,12.146307 16.483677,7.4325836 16.399603,6.764092 16.263232,6.028284 15.930028,5.3490214 15.600435,4.6771235 15.061374,4.0693598 13.963097,3.5862641 12.86482,3.1031684 11.3516,3.0531689 10.011729,3.0003086 c -0.012722,-4.117e-4 -0.025458,-4.117e-4 -0.03818,0 z"
         inkscape:connector-curvature="0"
         id="path3927"
         style="color:#000000;fill:url(#linearGradient3929);fill-opacity:1;fill-rule:nonzero;stroke:none;stroke-width:0.99992198;marker:none;visibility:visible;display:inline;overflow:visible;enable-background:accumulate" />
    </clipPath>
    <linearGradient
       inkscape:collect="always"
       xlink:href="#linearGradient3600-8-3"
       id="linearGradient3929"
       gradientUnits="userSpaceOnUse"
       gradientTransform="matrix(0.61092353,0,0,0.54242943,5.940347,2.219405)"
       x1="18.601307"
       y1="0.85446119"
       x2="18.601307"
       y2="49.956139" />
    <linearGradient
       inkscape:collect="always"
       xlink:href="#linearGradient3931"
       id="linearGradient3937"
       x1="10"
       y1="1"
       x2="10"
       y2="30"
       gradientUnits="userSpaceOnUse" />
    <linearGradient
       inkscape:collect="always"
       xlink:href="#linearGradient3600-8-3"
       id="linearGradient3954"
       gradientUnits="userSpaceOnUse"
       gradientTransform="matrix(0.61092353,0,0,0.54242943,5.940347,2.219405)"
       x1="18.601307"
       y1="0.85446119"
       x2="18.601307"
       y2="49.956139" />
    <linearGradient
       inkscape:collect="always"
       xlink:href="#linearGradient3957"
       id="linearGradient3963"
       x1="5"
       y1="0.7342205"
       x2="15"
       y2="15.234221"
       gradientUnits="userSpaceOnUse" />
    <linearGradient
       inkscape:collect="always"
       xlink:href="#linearGradient3600-8-3"
       id="linearGradient3965"
       gradientUnits="userSpaceOnUse"
       gradientTransform="matrix(0.61092353,0,0,0.54242943,-11.309653,2.406905)"
       x1="18.601307"
       y1="0.85446119"
       x2="18.601307"
       y2="49.956139" />
    <linearGradient
       inkscape:collect="always"
       xlink:href="#linearGradient3600-8-3"
       id="linearGradient3975"
       gradientUnits="userSpaceOnUse"
       gradientTransform="matrix(0.61092353,0,0,0.54242943,5.940347,2.219405)"
       x1="18.601307"
       y1="0.85446119"
       x2="18.601307"
       y2="49.956139" />
    <linearGradient
       inkscape:collect="always"
       xlink:href="#linearGradient3600-8-3"
       id="linearGradient3984"
       gradientUnits="userSpaceOnUse"
       gradientTransform="matrix(0.61092353,0,0,0.54242943,5.940347,2.219405)"
       x1="18.601307"
       y1="0.85446119"
       x2="18.601307"
       y2="49.956139" />
    <linearGradient
       inkscape:collect="always"
       xlink:href="#linearGradient3600-8-3"
       id="linearGradient3996"
       gradientUnits="userSpaceOnUse"
       gradientTransform="matrix(0.61092353,0,0,0.54242943,5.940347,2.219405)"
       x1="18.601307"
       y1="0.85446119"
       x2="18.601307"
       y2="49.956139" />
  </defs>
  <metadata
     id="metadata4305">
    <rdf:RDF>
      <cc:Work
         rdf:about="">
        <dc:format>image/svg+xml</dc:format>
        <dc:type
           rdf:resource="http://purl.org/dc/dcmitype/StillImage" />
        <dc:title />
      </cc:Work>
    </rdf:RDF>
  </metadata>
  <g
     style="opacity:0.5;display:inline"
     id="g2036"
     transform="matrix(0.68788788,0,0,0.44444486,1.3850493,8.1111042)">
    <g
       style="opacity:0.4"
       id="g3712"
       transform="matrix(1.052632,0,0,1.285713,-1.263158,-13.42854)">
      <rect
         style="fill:url(#radialGradient3163);fill-opacity:1;stroke:none"
         id="rect2801"
         y="40"
         x="38"
         height="7"
         width="5" />
      <rect
         style="fill:url(#radialGradient3165);fill-opacity:1;stroke:none"
         id="rect3696"
         transform="scale(-1,-1)"
         y="-47"
         x="-10"
         height="7"
         width="5" />
      <rect
         style="fill:url(#linearGradient3167);fill-opacity:1;stroke:none"
         id="rect3700"
         y="40"
         x="10"
         height="7.0000005"
         width="28" />
    </g>
  </g>
  <path
     style="color:#000000;fill:url(#linearGradient3861);fill-opacity:1;fill-rule:nonzero;stroke:none;stroke-width:1;marker:none;visibility:visible;display:inline;overflow:visible;enable-background:accumulate"
     d="M 7.90625 8.5 C 7.1107249 8.5 6.5 9.2059958 6.5 10 L 6.5 26 C 6.5 26.794004 7.1107249 27.5 7.90625 27.5 L 28.09375 27.5 C 28.889275 27.5 29.5 26.794004 29.5 26 L 29.5 10 C 29.5 9.2059958 28.889275 8.5 28.09375 8.5 L 7.90625 8.5 z "
     id="rect5505" />
  <path
     style="font-size:medium;font-style:normal;font-variant:normal;font-weight:normal;font-stretch:normal;text-indent:0;text-align:start;text-decoration:none;line-height:normal;letter-spacing:normal;word-spacing:normal;text-transform:none;direction:ltr;block-progression:tb;writing-mode:lr-tb;text-anchor:start;baseline-shift:baseline;opacity:0.31000001;color:#000000;fill:#000000;fill-opacity:1;stroke:none;stroke-width:2;marker:none;visibility:visible;display:inline;overflow:visible;enable-background:accumulate;font-family:Sans;-inkscape-font-specification:Sans"
     d="M 7.875,8 C 6.7794282,8 6,8.9659917 6,10 l 0,16 c 0,1.034008 0.7794282,2 1.875,2 l 20.21875,0 C 29.189322,28 30,27.034008 30,26 L 30,10 C 30,8.9659917 29.189322,8 28.09375,8 L 7.875,8 z m 0,1 20.21875,0 C 28.589228,9 29,9.446 29,10 l 0,16 c 0,0.554 -0.410772,1 -0.90625,1 L 7.875,27 C 7.3795216,27 7,26.554 7,26 L 7,10 C 7,9.446 7.3795216,9 7.875,9 z"
     id="rect3850"
     inkscape:connector-curvature="0" />
  <path
     style="color:#000000;fill:url(#linearGradient3886);fill-opacity:1;fill-rule:nonzero;stroke:none;stroke-width:1;marker:none;visibility:visible;display:inline;overflow:visible;enable-background:accumulate;opacity:0.1"
     d="M 7.90625 9 C 7.4107716 9 7 9.446 7 10 L 7 26 C 7 26.554 7.4107716 27 7.90625 27 L 28.09375 27 C 28.589228 27 29 26.554 29 26 L 29 10 C 29 9.446 28.589228 9 28.09375 9 L 7.90625 9 z M 8 10 L 28 10 L 28 26 L 8 26 L 8 10 z "
     id="rect3868" />
  <path
     style="color:#000000;fill:#ffffff;fill-opacity:1;fill-rule:nonzero;stroke:none;stroke-width:1;marker:none;visibility:visible;display:inline;overflow:visible;enable-background:accumulate;opacity:0.1"
     d="M 7.90625 9 C 7.4107716 9 7 9.446 7 10 L 7 11 C 7 10.446 7.4107716 10 7.90625 10 L 28.09375 10 C 28.589228 10 29 10.446 29 11 L 29 10 C 29 9.446 28.589228 9 28.09375 9 L 7.90625 9 z "
     id="rect3863" />
  <path
     id="path3888"
     d="M 7.90625,27 C 7.4107716,27 7,26.554 7,26 l 0,-1 c 0,0.554 0.4107716,1 0.90625,1 l 20.1875,0 C 28.589228,26 29,25.554 29,25 l 0,1 c 0,0.554 -0.410772,1 -0.90625,1 l -20.1875,0 z"
     style="opacity:0.15;color:#000000;fill:#ffffff;fill-opacity:1;fill-rule:nonzero;stroke:none;stroke-width:1;marker:none;visibility:visible;display:inline;overflow:visible;enable-background:accumulate"
     inkscape:connector-curvature="0" />
  <path
     style="opacity:0.3;fill:url(#radialGradient3826);fill-opacity:1;fill-rule:evenodd;stroke:none;stroke-width:2;marker:none;visibility:visible;display:inline;overflow:visible"
     id="path23417-6"
     inkscape:connector-curvature="0"
     d="M 19.5,27.999999 C 19.500427,29.65681 15.247054,31 10,31 4.752946,31 0.4995114,29.65681 0.5,27.999999 0.4995725,26.343197 4.752946,25 10,25 c 5.247054,0 9.500482,1.343197 9.5,2.999999 l 0,0 z" />
  <path
     style="color:#000000;fill:url(#linearGradient3975);fill-opacity:1;fill-rule:nonzero;stroke:none;stroke-width:0.99992197999999999;marker:none;visibility:visible;display:inline;overflow:visible;enable-background:accumulate"
     d="M 9.96875 2.5 C 8.3041529 2.53918 6.2490446 2.6372731 4.46875 4.28125 C 3.5326598 5.1456635 3.1732622 6.2973696 3 7.40625 C 2.8284533 8.5041514 2.8044989 9.6015069 2.6875 10.5 C 2.68633 10.509 2.6887 10.52231 2.6875 10.53125 L 2.6875 10.59375 C 2.3938005 15.497896 2.4033428 20.478279 3.15625 25.40625 C 3.1560567 25.41803 3.1560567 25.42572 3.15625 25.4375 C 3.15783 25.44782 3.15466 25.45843 3.15625 25.46875 L 3.15625 25.53125 C 3.4272623 26.963152 4.4137059 28.519672 6.5 29.09375 C 8.5114897 29.647243 11.022072 29.663912 13.375 29.125 C 14.67048 28.827831 16.068245 28.000114 16.5625 26.46875 C 16.562738 26.468075 16.59028 26.40659 16.59375 26.375 C 16.59495 26.36447 16.593269 26.35282 16.59375 26.34375 C 16.59535 26.32923 16.593453 26.32398 16.59375 26.3125 C 16.593765 26.3048 16.593989 26.28763 16.59375 26.28125 C 17.124148 24.663664 17.14181 23.010926 17.375 20.03125 C 17.620989 16.888027 17.581292 12.129589 16.96875 7.375 C 16.881991 6.685163 16.747321 5.8840066 16.375 5.125 C 16.00298 4.366612 15.340799 3.646044 14.15625 3.125 C 12.998326 2.6156676 11.584822 2.5797629 10.3125 2.53125 L 10.3125 2.5 L 10.03125 2.5 L 9.96875 2.5 z "
     id="path4487" />
  <path
     style="font-size:medium;font-style:normal;font-variant:normal;font-weight:normal;font-stretch:normal;text-indent:0;text-align:start;text-decoration:none;line-height:normal;letter-spacing:normal;word-spacing:normal;text-transform:none;direction:ltr;block-progression:tb;writing-mode:lr-tb;text-anchor:start;baseline-shift:baseline;color:#000000;fill:#000000;fill-opacity:1;stroke:none;stroke-width:2;marker:none;visibility:visible;display:inline;overflow:visible;enable-background:accumulate;font-family:Sans;-inkscape-font-specification:Sans;opacity:0.41"
     d="M 9.9375 2 C 8.2615481 2.0394475 6.0349737 2.1737736 4.125 3.9375 C 3.0781202 4.9042199 2.6819407 6.1793272 2.5 7.34375 C 2.3270833 8.4504195 2.3158264 9.4796952 2.21875 10.3125 L 2.1875 10.375 L 2.1875 10.5625 C 1.8943626 15.457261 1.9097759 20.459648 2.65625 25.40625 C 2.6559668 25.4235 2.6559668 25.42025 2.65625 25.4375 L 2.65625 25.53125 C 2.65784 25.54159 2.65466 25.55216 2.65625 25.5625 L 2.65625 25.625 C 2.9527971 27.191816 4.0767156 28.969938 6.34375 29.59375 C 8.461164 30.17639 11.039518 30.150138 13.46875 29.59375 C 14.868289 29.272711 16.423619 28.373659 17 26.65625 L 17.03125 26.65625 C 17.03415 26.64745 17.02845 26.63383 17.03125 26.625 C 17.03805 26.6058 17.02465 26.58168 17.03125 26.5625 C 17.04445 26.51028 17.05852 26.47372 17.0625 26.4375 C 17.0638 26.42549 17.061656 26.41728 17.0625 26.40625 C 17.0688 26.3474 17.09505 26.31663 17.09375 26.28125 C 17.609957 24.616535 17.649376 22.976742 17.875 20.09375 C 18.124267 16.908645 18.086557 12.107961 17.46875 7.3125 C 17.379306 6.6013142 17.223945 5.7450131 16.8125 4.90625 C 16.398047 4.0613584 15.645835 3.2152482 14.375 2.65625 C 13.183525 2.1321595 11.859363 2.076664 10.65625 2.03125 L 10.625 2 L 10.0625 2 L 9.9375 2 z M 9.96875 3 C 9.981472 2.9995883 9.987278 2.9995883 10 3 C 11.339871 3.0528603 12.870473 3.1106543 13.96875 3.59375 C 15.067027 4.0768457 15.607907 4.6718521 15.9375 5.34375 C 16.270704 6.0230126 16.384676 6.7690084 16.46875 7.4375 C 17.076027 12.151223 17.117712 16.898653 16.875 20 C 16.632288 23.101346 16.647992 24.740648 16.09375 26.3125 C 15.669109 27.628177 14.429151 28.354516 13.25 28.625 C 10.973364 29.146438 8.530582 29.149351 6.625 28.625 C 4.719418 28.100648 3.9017314 26.734509 3.65625 25.4375 C 3.6561466 25.4312 3.6561466 25.41255 3.65625 25.40625 C 2.9015458 20.507372 2.8938414 15.528463 3.1875 10.625 C 3.193387 10.61215 3.18069 10.60614 3.1875 10.59375 C 3.4431837 8.680401 3.1618642 6.1804962 4.8125 4.65625 C 6.4631358 3.1320039 8.315506 3.038913 9.96875 3 z "
     id="path3911" />
  <path
     sodipodi:nodetypes="ccccccccccccsccc"
     d="m 4.8075902,4.6635946 c -1.6506358,1.5242462 -1.3558163,4.0188354 -1.6115,5.9321844 -0.00681,0.01239 -0.013174,0.02503 -0.019061,0.03788 -0.2936586,4.903463 -0.2774201,9.875468 0.4772841,14.774346 -1.034e-4,0.0063 -1.034e-4,0.01261 0,0.01891 0.2454814,1.297009 1.0594097,2.673676 2.9649917,3.198028 1.905582,0.524351 4.361324,0.524538 6.63796,0.0031 1.179151,-0.270484 2.400881,-0.995182 2.825522,-2.310859 0.0019,-0.0054 -0.0019,-0.01328 0,-0.01891 0.554242,-1.571852 0.543509,-3.189994 0.706381,-4.659603 0.0065,-0.0062 0.01286,-0.01246 0.01907,-0.01891 C 17.11172,16.905587 17.090954,12.146307 16.483677,7.4325836 16.399603,6.764092 16.263232,6.028284 15.930028,5.3490214 15.600435,4.6771235 15.061374,4.0693598 13.963097,3.5862641 12.86482,3.1031684 11.3516,3.0531689 9.8359395,3.0461652 8.320279,3.0391614 6.458226,3.1393485 4.8075902,4.6635946 z"
     inkscape:connector-curvature="0"
     id="path3892"
     style="color:#000000;fill:none;stroke:none;stroke-width:0.99992198;marker:none;visibility:visible;display:inline;overflow:visible;enable-background:accumulate" />
  <path
     style="font-size:medium;font-style:normal;font-variant:normal;font-weight:normal;font-stretch:normal;text-indent:0;text-align:start;text-decoration:none;line-height:normal;letter-spacing:normal;word-spacing:normal;text-transform:none;direction:ltr;block-progression:tb;writing-mode:lr-tb;text-anchor:start;baseline-shift:baseline;color:#000000;fill:url(#linearGradient3937);fill-opacity:1;stroke:none;stroke-width:2;marker:none;visibility:visible;display:inline;overflow:visible;enable-background:accumulate;font-family:Sans;-inkscape-font-specification:Sans;opacity:0.05"
     d="M 9.9375,2 C 8.2615481,2.0394475 6.0349737,2.1737736 4.125,3.9375 3.0781202,4.9042199 2.6819407,6.1793272 2.5,7.34375 2.3270833,8.4504195 2.3158264,9.4796952 2.21875,10.3125 l -0.03125,0.0625 0,0.1875 c -0.2931374,4.894761 -0.2777241,9.897148 0.46875,14.84375 -2.832e-4,0.01725 -2.832e-4,0.014 0,0.03125 l 0,0.09375 c 0.00159,0.01034 -0.00159,0.02091 0,0.03125 l 0,0.0625 c 0.2965471,1.566816 1.4204656,3.344938 3.6875,3.96875 2.117414,0.58264 4.695768,0.556388 7.125,0 1.399539,-0.321039 2.954869,-1.220091 3.53125,-2.9375 l 0.03125,0 c 0.0029,-0.0088 -0.0028,-0.02242 0,-0.03125 0.0068,-0.0192 -0.0066,-0.04332 0,-0.0625 0.0132,-0.05222 0.02727,-0.08878 0.03125,-0.125 0.0013,-0.01201 -8.44e-4,-0.02022 0,-0.03125 0.0063,-0.05885 0.03255,-0.08962 0.03125,-0.125 0.516207,-1.664715 0.555626,-3.304508 0.78125,-6.1875 C 18.124267,16.908645 18.086557,12.107961 17.46875,7.3125 17.379306,6.6013142 17.223945,5.7450131 16.8125,4.90625 16.398047,4.0613584 15.645835,3.2152482 14.375,2.65625 13.183525,2.1321595 11.859363,2.076664 10.65625,2.03125 L 10.625,2 10.0625,2 9.9375,2 z m 0.03125,2 c 0.00884,2.861e-4 0.022408,2.861e-4 0.03125,0 1.334638,0.053273 2.757751,0.1460176 3.5625,0.5 0.925719,0.4071932 1.224017,0.7823458 1.46875,1.28125 0.254963,0.5197621 0.390046,1.1554526 0.46875,1.78125 0.596747,4.631986 0.611157,9.357411 0.375,12.375 -0.245002,3.130606 -0.268677,4.6662 -0.75,6.03125 -3.3e-5,9.9e-5 0.0014,0.02579 0,0.03125 -0.285402,0.88427 -1.147275,1.439139 -2.09375,1.65625 -2.12404,0.486488 -4.4625,0.466062 -6.15625,0 -1.4956454,-0.411551 -2.0106042,-1.32163 -2.21875,-2.3125 l 0,-0.03125 0,-0.0625 C 3.9182999,20.459875 3.8983299,15.569538 4.1875,10.71875 c 0.00142,-0.01065 -0.00139,-0.02059 0,-0.03125 C 4.3251766,9.6345006 4.3229955,8.5578307 4.46875,7.625 4.6159795,6.6827294 4.896244,5.9637763 5.5,5.40625 6.8821027,4.1299754 8.3508441,4.0386586 9.96875,4 z"
     id="path3905"
     inkscape:connector-curvature="0"
     clip-path="url(#clipPath3925)" />
  <path
     style="color:#000000;fill:url(#linearGradient3963);fill-opacity:1;fill-rule:nonzero;stroke:none;stroke-width:0.99992198000000021;marker:none;visibility:visible;display:inline;overflow:visible;enable-background:accumulate;opacity:0.4"
     d="M 9.96875 3 C 8.315506 3.038913 6.4631358 3.1320039 4.8125 4.65625 C 3.1618642 6.1804962 3.4431837 8.680401 3.1875 10.59375 C 3.18069 10.60614 3.193387 10.61215 3.1875 10.625 C 3.0912589 12.232017 3.0458344 13.851996 3.03125 15.46875 C 8.6435139 12.076241 11.877383 10.093619 16.4375 7.28125 C 16.351692 6.6549426 16.24528 5.9711838 15.9375 5.34375 C 15.607907 4.6718521 15.067027 4.0768457 13.96875 3.59375 C 12.870473 3.1106543 11.339871 3.0528603 10 3 C 9.987278 2.9995883 9.981472 2.9995883 9.96875 3 z "
     id="path3952" />
  <path
     style="color:#000000;fill:#ffffff;fill-opacity:1;fill-rule:nonzero;stroke:none;stroke-width:0.99992198000000021;marker:none;visibility:visible;display:inline;overflow:visible;enable-background:accumulate;opacity:0.1"
     d="M 9.96875 3 C 8.315506 3.038913 6.4631358 3.1320039 4.8125 4.65625 C 3.1618642 6.1804962 3.4431837 8.680401 3.1875 10.59375 C 3.18069 10.60614 3.193387 10.61215 3.1875 10.625 C 3.0943436 12.18051 3.0483533 13.747717 3.03125 15.3125 C 3.0592311 14.08028 3.1140853 12.850866 3.1875 11.625 C 3.193387 11.61215 3.18069 11.60614 3.1875 11.59375 C 3.4431837 9.6804012 3.1618642 7.1804962 4.8125 5.65625 C 6.4631358 4.1320039 8.315506 4.038913 9.96875 4 C 9.981472 3.9995883 9.987278 3.9995883 10 4 C 11.339871 4.0528603 12.870473 4.1106543 13.96875 4.59375 C 15.067027 5.0768457 15.607907 5.6718521 15.9375 6.34375 C 16.270704 7.0230126 16.384676 7.7690084 16.46875 8.4375 C 16.772389 10.794362 16.949238 13.145796 17 15.3125 C 16.979702 12.877758 16.821461 10.175269 16.46875 7.4375 C 16.384676 6.7690084 16.270704 6.0230126 15.9375 5.34375 C 15.607907 4.6718521 15.067027 4.0768457 13.96875 3.59375 C 12.870473 3.1106543 11.339871 3.0528603 10 3 C 9.987278 2.9995883 9.981472 2.9995883 9.96875 3 z "
     id="path3941" />
  <path
     style="color:#000000;fill:#ffffff;fill-opacity:1;fill-rule:nonzero;stroke:none;stroke-width:0.99992198000000021;marker:none;visibility:visible;display:inline;overflow:visible;enable-background:accumulate"
     d="M 9.96875 3 C 8.315506 3.038913 6.4631358 3.1320039 4.8125 4.65625 C 3.1618642 6.1804962 3.4431837 8.680401 3.1875 10.59375 C 3.18069 10.60614 3.193387 10.61215 3.1875 10.625 C 3.0943436 12.18051 3.0495261 13.746768 3.03125 15.3125 C 3.0600312 14.079633 3.1140853 12.850866 3.1875 11.625 C 3.19339 11.61215 3.18069 11.60614 3.1875 11.59375 C 3.4431837 9.6804014 3.1618642 7.1804962 4.8125 5.65625 C 6.4631358 4.1320039 8.315506 4.038913 9.96875 4 C 9.981472 3.9995883 9.987278 3.9995883 10 4 C 11.339871 4.0528603 12.870473 4.1106543 13.96875 4.59375 C 15.067027 5.0768457 15.607907 5.6718521 15.9375 6.34375 C 16.270704 7.0230126 16.384676 7.7690084 16.46875 8.4375 C 16.772389 10.794361 16.944008 13.148759 17 15.3125 C 16.973786 12.881109 16.821461 10.175268 16.46875 7.4375 C 16.384676 6.7690084 16.270704 6.0230126 15.9375 5.34375 C 15.607907 4.6718521 15.067027 4.0768457 13.96875 3.59375 C 12.870473 3.1106543 11.339871 3.0528603 10 3 C 9.987278 2.9995883 9.981472 2.9995883 9.96875 3 z "
     id="path3980" />
  <path
     style="color:#000000;fill:#ffffff;fill-opacity:1;fill-rule:nonzero;stroke:none;stroke-width:0.99992198000000021;marker:none;visibility:visible;display:inline;overflow:visible;enable-background:accumulate;opacity:0.6"
     d="M 17 16.40625 C 16.979265 17.3611 16.935678 18.224663 16.875 19 C 16.632288 22.101346 16.647992 23.740648 16.09375 25.3125 C 15.669109 26.628177 14.429151 27.354516 13.25 27.625 C 10.973364 28.146438 8.530582 28.149351 6.625 27.625 C 4.719418 27.100648 3.9017314 25.734509 3.65625 24.4375 C 3.6561466 24.4312 3.6561466 24.41255 3.65625 24.40625 C 3.2788979 21.956811 3.0908068 19.50127 3.03125 17.03125 C 3.0599797 19.83315 3.2281615 22.627475 3.65625 25.40625 C 3.6561466 25.41255 3.6561466 25.4312 3.65625 25.4375 C 3.9017314 26.734509 4.719418 28.100648 6.625 28.625 C 8.530582 29.149351 10.973364 29.146438 13.25 28.625 C 14.429151 28.354516 15.669109 27.628177 16.09375 26.3125 C 16.647992 24.740648 16.632288 23.101346 16.875 20 C 16.955291 18.974049 16.992134 17.731664 17 16.40625 z "
     id="path3992" />
</svg>
