<?xml version='1.0' encoding='UTF-8' standalone='no'?>
<svg height="16" xmlns:inkscape="http://www.inkscape.org/namespaces/inkscape" xmlns:sodipodi="http://sodipodi.sourceforge.net/DTD/sodipodi-0.dtd" version="1.1" width="16" xmlns="http://www.w3.org/2000/svg" enable-background="new">
 <metadata id="metadata90"/>
 <defs id="defs7386">
  <linearGradient id="linearGradient5606" osb:paint="solid">
   <stop id="stop5608"/>
  </linearGradient>
  <filter inkscape:collect="always" color-interpolation-filters="sRGB" id="filter7554">
   <feBlend inkscape:collect="always" id="feBlend7556" in2="BackgroundImage" mode="darken"/>
  </filter>
 </defs>
 <g inkscape:groupmode="layer" id="layer2" inkscape:label="categories" transform="translate(-438,-452)">
  <g id="g6647" transform="translate(-267.00019,630)">
   <path inkscape:connector-curvature="0" d="m 472,291 c -3.3137,0 -6,2.6863 -6,6 0,3.3137 2.6863,6 6,6 3.3137,0 6,-2.6863 6,-6 0,-3.3137 -2.6863,-6 -6,-6 z m 0,2 c 2.20914,0 4,1.79086 4,4 0,2.20914 -1.79086,4 -4,4 -2.20914,0 -4,-1.79086 -4,-4 0,-2.20914 1.79086,-4 4,-4 z" id="path6355" transform="translate(241.0002,-467)" fill="#bebebe" color="#000000" stroke-width="2"/>
   <g id="g6430">
    <rect height="4" id="rect6426" transform="translate(241.0002,-467)" width="2" x="471" y="289" fill="#bebebe" color="#000000" stroke-width="2" rx="1"/>
    <rect height="4" id="rect6428" width="2" x="712" y="-166" fill="#bebebe" color="#000000" stroke-width="2" rx="1"/>
   </g>
   <g id="g6457" transform="matrix(0,-1,1,0,883.00019,543.00019)">
    <rect height="4" id="rect6459" transform="translate(241.0002,-467)" width="2" x="471" y="289" fill="#bebebe" color="#000000" stroke-width="2" rx="1"/>
    <rect height="4" id="rect6461" width="2" x="712" y="-166" fill="#bebebe" color="#000000" stroke-width="2" rx="1"/>
   </g>
   <g id="g6469" transform="matrix(0.70710678,-0.70710678,0.70710678,0.70710678,329.04107,454.37542)">
    <rect height="4" id="rect6472" width="2" x="712" y="-178.07" fill="#bebebe" color="#000000" stroke-width="2" rx="1"/>
    <rect height="4" id="rect6474" width="2" x="712" y="-165.93" fill="#bebebe" color="#000000" stroke-width="2" rx="1"/>
   </g>
   <rect height="1" id="rect6482" width="1" x="707" y="-176" fill="#bebebe" color="#000000" stroke-width="2"/>
   <g id="g6490" transform="matrix(-0.70710678,-0.70710678,0.70710678,-0.70710678,1337.3756,213.95915)">
    <rect height="4" id="rect6492" width="2" x="712" y="-178.07" fill="#bebebe" color="#000000" stroke-width="2" rx="1"/>
    <rect height="4" id="rect6494" width="2" x="712" y="-165.93" fill="#bebebe" color="#000000" stroke-width="2" rx="1"/>
   </g>
   <rect height="1" id="rect6497" transform="translate(241.0002,-467)" width="1" x="466" y="302" fill="#bebebe" color="#000000" stroke-width="2" rx="0"/>
   <rect height="1" id="rect6499" transform="translate(241.0002,-467)" width="1" x="477" y="302" fill="#bebebe" color="#000000" stroke-width="2"/>
   <rect height="1" id="rect6501" transform="translate(241.0002,-467)" width="1" x="477" y="291" fill="#bebebe" color="#000000" stroke-width="2"/>
  </g>
 </g>
</svg>
