<?xml version="1.0" encoding="UTF-8" standalone="no"?>
<!-- Created with Inkscape (http://www.inkscape.org/) -->

<svg
   xmlns:dc="http://purl.org/dc/elements/1.1/"
   xmlns:cc="http://creativecommons.org/ns#"
   xmlns:rdf="http://www.w3.org/1999/02/22-rdf-syntax-ns#"
   xmlns:svg="http://www.w3.org/2000/svg"
   xmlns="http://www.w3.org/2000/svg"
   xmlns:xlink="http://www.w3.org/1999/xlink"
   xmlns:sodipodi="http://sodipodi.sourceforge.net/DTD/sodipodi-0.dtd"
   xmlns:inkscape="http://www.inkscape.org/namespaces/inkscape"
   width="480"
   height="304"
   id="svg6051"
   version="1.1"
   inkscape:version="0.48.4 r9939"
   sodipodi:docname="image-loading.svg"
   inkscape:export-filename="/home/sam/mimetypes-image.png"
   inkscape:export-xdpi="90"
   inkscape:export-ydpi="90">
  <defs
     id="defs6053">
    <linearGradient
       id="linearGradient5621">
      <stop
         style="stop-color:#f1fcff;stop-opacity:1"
         offset="0"
         id="stop5623" />
      <stop
         style="stop-color:#e7eeff;stop-opacity:1"
         offset="1"
         id="stop5625" />
    </linearGradient>
    <linearGradient
       id="linearGradient5488">
      <stop
         style="stop-color:#ffffff;stop-opacity:1;"
         offset="0"
         id="stop5490" />
      <stop
         style="stop-color:#f0f0f0;stop-opacity:1;"
         offset="1"
         id="stop5492" />
    </linearGradient>
    <linearGradient
       id="linearGradient5235">
      <stop
         id="stop5237"
         offset="0"
         style="stop-color:#e2e2e2;stop-opacity:1;" />
      <stop
         id="stop5239"
         offset="1"
         style="stop-color:#f5f5f5;stop-opacity:1;" />
    </linearGradient>
    <linearGradient
       inkscape:collect="always"
       id="linearGradient4134">
      <stop
         style="stop-color:#ffffff;stop-opacity:1;"
         offset="0"
         id="stop4136" />
      <stop
         style="stop-color:#ffffff;stop-opacity:0;"
         offset="1"
         id="stop4138" />
    </linearGradient>
    <linearGradient
       id="linearGradient4094">
      <stop
         style="stop-color:#e28192;stop-opacity:1;"
         offset="0"
         id="stop4096" />
      <stop
         id="stop4317"
         offset="0.25862068"
         style="stop-color:#f7d6c7;stop-opacity:1;" />
      <stop
         style="stop-color:#fffee4;stop-opacity:1;"
         offset="1"
         id="stop4098" />
    </linearGradient>
    <linearGradient
       id="linearGradient3988">
      <stop
         style="stop-color:#f1f1f1;stop-opacity:1;"
         offset="0"
         id="stop3990" />
      <stop
         style="stop-color:#f4f4f4;stop-opacity:1;"
         offset="1"
         id="stop3992" />
    </linearGradient>
    <linearGradient
       id="outerBackgroundGradient">
      <stop
         style="stop-color:#8c166c;stop-opacity:1;"
         offset="0"
         id="stop3864-8-6" />
      <stop
         id="stop4409"
         offset="0.36206895"
         style="stop-color:#ca3561;stop-opacity:1;" />
      <stop
         style="stop-color:#f38f4e;stop-opacity:1;"
         offset="1"
         id="stop3866-9-1" />
    </linearGradient>
    <clipPath
       clipPathUnits="userSpaceOnUse"
       id="clipPath4051">
      <rect
         ry="0"
         y="85"
         x="436"
         height="22"
         width="16"
         id="rect4053"
         style="color:#bebebe;fill:url(#linearGradient4055);fill-opacity:1;fill-rule:nonzero;stroke:none;stroke-width:0;marker:none;visibility:visible;display:inline;overflow:visible;enable-background:accumulate" />
    </clipPath>
    <clipPath
       clipPathUnits="userSpaceOnUse"
       id="clipPath4069">
      <rect
         style="color:#bebebe;fill:url(#linearGradient4073);fill-opacity:1;fill-rule:nonzero;stroke:none;stroke-width:0;marker:none;visibility:visible;display:inline;overflow:visible;enable-background:accumulate"
         id="rect4071"
         width="14"
         height="16"
         x="433"
         y="124"
         ry="0" />
    </clipPath>
    <clipPath
       clipPathUnits="userSpaceOnUse"
       id="clipPath4093">
      <rect
         style="color:#bebebe;fill:url(#linearGradient4098);fill-opacity:1;fill-rule:nonzero;stroke:none;stroke-width:0;marker:none;visibility:visible;display:inline;overflow:visible;enable-background:accumulate"
         id="rect4096"
         width="22"
         height="30"
         x="437"
         y="37"
         ry="0" />
    </clipPath>
    <clipPath
       clipPathUnits="userSpaceOnUse"
       id="clipPath14220">
      <rect
         style="color:#bebebe;fill:url(#linearGradient14224);fill-opacity:1;fill-rule:nonzero;stroke:none;stroke-width:0;marker:none;visibility:visible;display:inline;overflow:visible;enable-background:accumulate"
         id="rect14222"
         width="192"
         height="240"
         x="48"
         y="37"
         ry="0" />
    </clipPath>
    <clipPath
       clipPathUnits="userSpaceOnUse"
       id="clipPath14210">
      <rect
         ry="0"
         y="39"
         x="319"
         height="90"
         width="66"
         id="rect14212"
         style="color:#bebebe;fill:url(#linearGradient14214);fill-opacity:1;fill-rule:nonzero;stroke:none;stroke-width:0;marker:none;visibility:visible;display:inline;overflow:visible;enable-background:accumulate" />
    </clipPath>
    <clipPath
       clipPathUnits="userSpaceOnUse"
       id="clipPath14236">
      <rect
         style="color:#bebebe;fill:url(#linearGradient14240);fill-opacity:1;fill-rule:nonzero;stroke:none;stroke-width:0;marker:none;visibility:visible;display:inline;overflow:visible;enable-background:accumulate"
         id="rect14238"
         width="44"
         height="60"
         x="314"
         y="150"
         ry="0" />
    </clipPath>
    <clipPath
       clipPathUnits="userSpaceOnUse"
       id="clipPath14228">
      <rect
         style="color:#bebebe;fill:url(#linearGradient14232);fill-opacity:1;fill-rule:nonzero;stroke:none;stroke-width:0;marker:none;visibility:visible;display:inline;overflow:visible;enable-background:accumulate"
         id="rect14230"
         width="32"
         height="42"
         x="312"
         y="231"
         ry="0" />
    </clipPath>
    <linearGradient
       id="linearGradient5618">
      <stop
         style="stop-color:#1e1e1e;stop-opacity:1;"
         offset="0"
         id="stop5620" />
      <stop
         style="stop-color:#535353;stop-opacity:1;"
         offset="1"
         id="stop5622" />
    </linearGradient>
    <linearGradient
       inkscape:collect="always"
       xlink:href="#linearGradient3988"
       id="linearGradient3986"
       x1="448"
       y1="124"
       x2="432"
       y2="124"
       gradientUnits="userSpaceOnUse" />
    <linearGradient
       inkscape:collect="always"
       xlink:href="#linearGradient3988"
       id="linearGradient4002"
       x1="456"
       y1="84"
       x2="432"
       y2="84"
       gradientUnits="userSpaceOnUse" />
    <linearGradient
       inkscape:collect="always"
       xlink:href="#linearGradient3988"
       id="linearGradient4012"
       x1="432.00003"
       y1="36"
       x2="464.00003"
       y2="36"
       gradientUnits="userSpaceOnUse" />
    <linearGradient
       inkscape:collect="always"
       xlink:href="#linearGradient3988"
       id="linearGradient4030"
       x1="304.00003"
       y1="228"
       x2="352.00003"
       y2="228"
       gradientUnits="userSpaceOnUse" />
    <linearGradient
       inkscape:collect="always"
       xlink:href="#linearGradient3988"
       id="linearGradient4040"
       x1="314"
       y1="180"
       x2="358"
       y2="180"
       gradientUnits="userSpaceOnUse" />
    <linearGradient
       inkscape:collect="always"
       xlink:href="#linearGradient3988"
       id="linearGradient4050"
       x1="319"
       y1="84"
       x2="385"
       y2="84"
       gradientUnits="userSpaceOnUse" />
    <linearGradient
       inkscape:collect="always"
       xlink:href="#linearGradient3988"
       id="linearGradient4067"
       x1="319"
       y1="84"
       x2="385"
       y2="84"
       gradientUnits="userSpaceOnUse" />
    <linearGradient
       inkscape:collect="always"
       xlink:href="#linearGradient3988"
       id="linearGradient4080"
       x1="48"
       y1="157"
       x2="240"
       y2="157"
       gradientUnits="userSpaceOnUse" />
    <linearGradient
       inkscape:collect="always"
       xlink:href="#linearGradient3988"
       id="linearGradient4643"
       gradientUnits="userSpaceOnUse"
       x1="319"
       y1="84"
       x2="385"
       y2="84" />
    <linearGradient
       inkscape:collect="always"
       xlink:href="#linearGradient3988"
       id="linearGradient4645"
       gradientUnits="userSpaceOnUse"
       x1="432.00003"
       y1="36"
       x2="464.00003"
       y2="36" />
    <clipPath
       clipPathUnits="userSpaceOnUse"
       id="clipPath4130">
      <path
         id="path4132"
         d="M 790.4375,237 C 789.62555,237 789,237.62555 789,238.4375 l 0,35.09375 c 0,0.812 0.62555,1.46875 1.4375,1.46875 l 35.125,0 c 0.81195,0 1.4375,-0.65675 1.4375,-1.46875 l 0,-35.09375 C 827,237.62555 826.37445,237 825.5625,237 l -35.125,0 z"
         style="fill:#ba2222;fill-opacity:1;stroke:none"
         inkscape:connector-curvature="0" />
    </clipPath>
    <linearGradient
       inkscape:collect="always"
       xlink:href="#linearGradient4134"
       id="linearGradient4140"
       x1="789"
       y1="256"
       x2="827"
       y2="256"
       gradientUnits="userSpaceOnUse" />
    <filter
       inkscape:collect="always"
       id="filter4155">
      <feGaussianBlur
         inkscape:collect="always"
         stdDeviation="0.39"
         id="feGaussianBlur4157" />
    </filter>
    <clipPath
       clipPathUnits="userSpaceOnUse"
       id="clipPath4192">
      <path
         style="fill:#000000;fill-opacity:1;stroke:none"
         d="M 914.59375,129 C 913.70464,129 913,129.67339 913,130.5625 l 0,10.84375 c 0,0.88911 0.70464,1.59375 1.59375,1.59375 l 10.8125,0 C 926.29536,143 927,142.29536 927,141.40625 l 0,-10.84375 C 927,129.67339 926.29536,129 925.40625,129 l -10.8125,0 z"
         id="path4194"
         inkscape:connector-curvature="0" />
    </clipPath>
    <linearGradient
       inkscape:collect="always"
       xlink:href="#linearGradient4134"
       id="linearGradient4202"
       x1="913"
       y1="136"
       x2="927"
       y2="136"
       gradientUnits="userSpaceOnUse" />
    <clipPath
       clipPathUnits="userSpaceOnUse"
       id="clipPath4246">
      <path
         id="path4249"
         d="m 915.5,90 c -0.8365,0 -1.5,0.63225 -1.5,1.46875 L 914,108.5 c 0,0.8365 0.6635,1.5 1.5,1.5 l 17,0 c 0.8365,0 1.5,-0.6635 1.5,-1.5 l 0,-17.03125 C 934,90.63225 933.3365,90 932.5,90 l -17,0 z"
         style="fill:#c11717;fill-opacity:1;stroke:none"
         inkscape:connector-curvature="0" />
    </clipPath>
    <linearGradient
       inkscape:collect="always"
       xlink:href="#linearGradient4134"
       id="linearGradient4257"
       x1="914"
       y1="100"
       x2="934"
       y2="100"
       gradientUnits="userSpaceOnUse" />
    <linearGradient
       inkscape:collect="always"
       xlink:href="#linearGradient4134"
       id="linearGradient4696"
       gradientUnits="userSpaceOnUse"
       x1="914"
       y1="100"
       x2="934"
       y2="100" />
    <linearGradient
       inkscape:collect="always"
       xlink:href="#linearGradient4134"
       id="linearGradient4700"
       gradientUnits="userSpaceOnUse"
       x1="913"
       y1="136"
       x2="927"
       y2="136" />
    <linearGradient
       inkscape:collect="always"
       xlink:href="#linearGradient4134"
       id="linearGradient4704"
       gradientUnits="userSpaceOnUse"
       x1="789"
       y1="256"
       x2="827"
       y2="256" />
    <linearGradient
       id="linearGradient3813">
      <stop
         style="stop-color:#1bb3e5;stop-opacity:1;"
         offset="0"
         id="stop3815" />
      <stop
         id="stop5659"
         offset="0.5"
         style="stop-color:#1c89de;stop-opacity:1;" />
      <stop
         style="stop-color:#1e60d8;stop-opacity:1;"
         offset="1"
         id="stop3817" />
    </linearGradient>
    <linearGradient
       inkscape:collect="always"
       xlink:href="#linearGradient3863"
       id="linearGradient23996"
       gradientUnits="userSpaceOnUse"
       x1="442"
       y1="124.02536"
       x2="441.5625"
       y2="140" />
    <linearGradient
       id="linearGradient3863">
      <stop
         id="stop3865"
         offset="0"
         style="stop-color:#0ea1d1;stop-opacity:1;" />
      <stop
         id="stop3867"
         offset="1"
         style="stop-color:#1553c4;stop-opacity:1;" />
    </linearGradient>
    <clipPath
       clipPathUnits="userSpaceOnUse"
       id="clipPath3849">
      <path
         id="path3851"
         d="m 447,123.875 -1.125,0.125 -8,1 -0.875,0.125 0,0.875 0,7.1875 C 436.68353,133.07398 436.35553,133 436,133 c -1.65685,0 -3,1.34315 -3,3 0,1.65685 1.34315,3 3,3 1.65685,0 3,-1.34315 3,-3 l 0,-8.125 6,-0.75 0,5.0625 C 444.68353,132.07398 444.35553,132 444,132 c -1.65685,0 -3,1.34315 -3,3 0,1.65685 1.34315,3 3,3 1.65685,0 3,-1.34315 3,-3 l 0,-10 0,-1.125 z"
         style="color:#bebebe;fill:url(#linearGradient3853);fill-opacity:1;fill-rule:nonzero;stroke:none;stroke-width:4;marker:none;visibility:visible;display:inline;overflow:visible;enable-background:accumulate"
         inkscape:connector-curvature="0" />
    </clipPath>
    <linearGradient
       inkscape:collect="always"
       xlink:href="#linearGradient3863"
       id="linearGradient24068"
       gradientUnits="userSpaceOnUse"
       x1="442"
       y1="124.02536"
       x2="441.5625"
       y2="140" />
    <linearGradient
       inkscape:collect="always"
       xlink:href="#linearGradient3863"
       id="linearGradient24047"
       gradientUnits="userSpaceOnUse"
       x1="442"
       y1="124.02536"
       x2="441.5625"
       y2="140" />
    <linearGradient
       inkscape:collect="always"
       xlink:href="#linearGradient3863"
       id="linearGradient24107"
       gradientUnits="userSpaceOnUse"
       x1="442"
       y1="124.02536"
       x2="441.5625"
       y2="140" />
    <linearGradient
       inkscape:collect="always"
       xlink:href="#linearGradient3863"
       id="linearGradient24018"
       gradientUnits="userSpaceOnUse"
       x1="442"
       y1="124.02536"
       x2="441.5625"
       y2="140" />
    <linearGradient
       inkscape:collect="always"
       xlink:href="#linearGradient3863"
       id="linearGradient24026"
       gradientUnits="userSpaceOnUse"
       x1="442"
       y1="124.02536"
       x2="441.5625"
       y2="140" />
    <linearGradient
       inkscape:collect="always"
       xlink:href="#linearGradient3863"
       id="linearGradient24199"
       gradientUnits="userSpaceOnUse"
       x1="442"
       y1="124.02536"
       x2="441.5625"
       y2="140" />
    <linearGradient
       inkscape:collect="always"
       xlink:href="#linearGradient3863"
       id="linearGradient24207"
       gradientUnits="userSpaceOnUse"
       x1="442"
       y1="124.02536"
       x2="441.5625"
       y2="140" />
    <linearGradient
       inkscape:collect="always"
       xlink:href="#linearGradient3863"
       id="linearGradient24229"
       gradientUnits="userSpaceOnUse"
       x1="442"
       y1="124.02536"
       x2="441.5625"
       y2="140" />
    <linearGradient
       inkscape:collect="always"
       xlink:href="#linearGradient3863"
       id="linearGradient24237"
       gradientUnits="userSpaceOnUse"
       x1="442"
       y1="124.02536"
       x2="441.5625"
       y2="140" />
    <linearGradient
       y2="140"
       x2="441.5625"
       y1="124.02536"
       x1="442"
       gradientUnits="userSpaceOnUse"
       id="linearGradient6823"
       xlink:href="#linearGradient3863"
       inkscape:collect="always" />
    <linearGradient
       inkscape:collect="always"
       xlink:href="#linearGradient3863"
       id="linearGradient5375"
       gradientUnits="userSpaceOnUse"
       x1="442"
       y1="124.02536"
       x2="441.5625"
       y2="140" />
    <linearGradient
       inkscape:collect="always"
       xlink:href="#linearGradient3863"
       id="linearGradient5383"
       gradientUnits="userSpaceOnUse"
       x1="442"
       y1="124.02536"
       x2="441.5625"
       y2="140" />
    <linearGradient
       inkscape:collect="always"
       xlink:href="#linearGradient3863"
       id="linearGradient5466"
       gradientUnits="userSpaceOnUse"
       x1="442"
       y1="124.02536"
       x2="441.5625"
       y2="140" />
    <linearGradient
       inkscape:collect="always"
       xlink:href="#linearGradient3863"
       id="linearGradient5474"
       gradientUnits="userSpaceOnUse"
       x1="442"
       y1="124.02536"
       x2="441.5625"
       y2="140" />
    <clipPath
       clipPathUnits="userSpaceOnUse"
       id="clipPath5500">
      <path
         id="path5502"
         d="m 1298.015,993.69305 -1.6799,0.18666 -11.9457,1.49321 -1.3065,0.18665 0,1.30656 0,10.73247 c -0.4726,-0.1695 -0.9624,-0.28 -1.4933,-0.28 -2.474,0 -4.4796,2.0056 -4.4796,4.4797 0,2.474 2.0056,4.4796 4.4796,4.4796 2.4741,0 4.4797,-2.0056 4.4797,-4.4796 l 0,-12.13239 8.9593,-1.11991 0,7.5594 c -0.4726,-0.1695 -0.9624,-0.28 -1.4933,-0.28 -2.474,0 -4.4796,2.0056 -4.4796,4.4796 0,2.4741 2.0056,4.4797 4.4796,4.4797 2.4741,0 4.4797,-2.0056 4.4797,-4.4797 l 0,-14.93208 0,-1.67987 z"
         style="opacity:0.3;color:#bebebe;fill:url(#linearGradient5504);fill-opacity:1;fill-rule:nonzero;stroke:none;stroke-width:4;marker:none;visibility:visible;display:inline;overflow:visible;enable-background:accumulate"
         inkscape:connector-curvature="0" />
    </clipPath>
    <linearGradient
       inkscape:collect="always"
       xlink:href="#linearGradient5488"
       id="linearGradient5504"
       gradientUnits="userSpaceOnUse"
       x1="1288"
       y1="988.36218"
       x2="1288"
       y2="1020.3622" />
    <linearGradient
       inkscape:collect="always"
       xlink:href="#linearGradient5621"
       id="linearGradient5619"
       x1="1404"
       y1="836.36218"
       x2="1404"
       y2="860.36218"
       gradientUnits="userSpaceOnUse" />
    <linearGradient
       inkscape:collect="always"
       xlink:href="#linearGradient5621"
       id="linearGradient5649"
       gradientUnits="userSpaceOnUse"
       x1="1404"
       y1="836.36218"
       x2="1404"
       y2="860.36218" />
    <clipPath
       clipPathUnits="userSpaceOnUse"
       id="clipPath5742">
      <path
         style="fill:#983f3f;fill-opacity:1;stroke:none"
         d="m 1271.4375,157 c -1.364,0 -2.4375,1.07353 -2.4375,2.4375 l 0,49.09375 c 0,1.36397 1.0735,2.46875 2.4375,2.46875 l 49.125,0 c 1.364,0 2.4375,-1.10478 2.4375,-2.46875 l 0,-49.09375 c 0,-1.36397 -1.0735,-2.4375 -2.4375,-2.4375 l -49.125,0 z"
         id="path5744"
         inkscape:connector-curvature="0" />
    </clipPath>
    <linearGradient
       inkscape:collect="always"
       xlink:href="#linearGradient4134"
       id="linearGradient5752"
       x1="1269"
       y1="184"
       x2="1323"
       y2="184"
       gradientUnits="userSpaceOnUse" />
    <filter
       inkscape:collect="always"
       id="filter5758">
      <feGaussianBlur
         inkscape:collect="always"
         stdDeviation="0.55"
         id="feGaussianBlur5760" />
    </filter>
    <linearGradient
       inkscape:collect="always"
       xlink:href="#linearGradient4134"
       id="linearGradient5812"
       x1="1394"
       y1="56"
       x2="1422"
       y2="56"
       gradientUnits="userSpaceOnUse"
       gradientTransform="matrix(0,1,-1,0,1464,-603.63782)" />
    <clipPath
       clipPathUnits="userSpaceOnUse"
       id="clipPath5820">
      <path
         style="opacity:0.49122811;fill:#ae4747;fill-opacity:1;stroke:none"
         d="m 1396.4375,791.36218 c -0.8001,0 -1.4375,0.60617 -1.4375,1.40625 l 0,23.15625 c 0,0.80008 0.6374,1.4375 1.4375,1.4375 l 23.125,0 c 0.8001,0 1.4375,-0.63742 1.4375,-1.4375 l 0,-23.15625 c 0,-0.80008 -0.6374,-1.40625 -1.4375,-1.40625 l -23.125,0 z"
         id="path5822"
         inkscape:connector-curvature="0" />
    </clipPath>
    <filter
       inkscape:collect="always"
       id="filter5832">
      <feGaussianBlur
         inkscape:collect="always"
         stdDeviation="0.27"
         id="feGaussianBlur5834" />
    </filter>
    <linearGradient
       inkscape:collect="always"
       xlink:href="#linearGradient4134"
       id="linearGradient6021"
       gradientUnits="userSpaceOnUse"
       x1="1269"
       y1="184"
       x2="1323"
       y2="184" />
    <linearGradient
       inkscape:collect="always"
       xlink:href="#linearGradient4134"
       id="linearGradient6025"
       gradientUnits="userSpaceOnUse"
       gradientTransform="matrix(0,1,-1,0,1464,-603.63782)"
       x1="1394"
       y1="56"
       x2="1422"
       y2="56" />
    <linearGradient
       inkscape:collect="always"
       xlink:href="#linearGradient5621"
       id="linearGradient6149"
       gradientUnits="userSpaceOnUse"
       gradientTransform="matrix(2,0,0,2,-2481,821.36218)"
       x1="1408"
       y1="72"
       x2="1408"
       y2="40" />
    <linearGradient
       inkscape:collect="always"
       xlink:href="#linearGradient5621"
       id="linearGradient6151"
       gradientUnits="userSpaceOnUse"
       gradientTransform="translate(-961,748.36218)"
       x1="1408"
       y1="72"
       x2="1408"
       y2="40" />
    <linearGradient
       inkscape:collect="always"
       xlink:href="#linearGradient4134"
       id="linearGradient6153"
       gradientUnits="userSpaceOnUse"
       gradientTransform="matrix(0,1,-1,0,1464,-603.63782)"
       x1="1394"
       y1="56"
       x2="1422"
       y2="56" />
    <linearGradient
       inkscape:collect="always"
       xlink:href="#linearGradient3813"
       id="linearGradient6155"
       gradientUnits="userSpaceOnUse"
       gradientTransform="translate(-603.63782,-1252.3622)"
       x1="1394.5"
       y1="804.36218"
       x2="1421.5"
       y2="804.36218" />
    <linearGradient
       inkscape:collect="always"
       xlink:href="#linearGradient5621"
       id="linearGradient6157"
       gradientUnits="userSpaceOnUse"
       x1="1400"
       y1="876.36218"
       x2="1400"
       y2="891.36218"
       gradientTransform="translate(-960,0)" />
    <linearGradient
       inkscape:collect="always"
       xlink:href="#linearGradient4134"
       id="linearGradient6159"
       gradientUnits="userSpaceOnUse"
       x1="1269"
       y1="184"
       x2="1323"
       y2="184" />
    <linearGradient
       inkscape:collect="always"
       xlink:href="#linearGradient3813"
       id="linearGradient6161"
       gradientUnits="userSpaceOnUse"
       gradientTransform="matrix(0.98214286,0,0,0.98214286,-340.49497,155.2857)"
       x1="1268"
       y1="184"
       x2="1324"
       y2="184" />
    <linearGradient
       inkscape:collect="always"
       xlink:href="#linearGradient5621"
       id="linearGradient6163"
       gradientUnits="userSpaceOnUse"
       gradientTransform="matrix(2,0,0,2,-2480,-693.36222)"
       x1="1404"
       y1="836.36218"
       x2="1404"
       y2="860.36218" />
    <linearGradient
       inkscape:collect="always"
       xlink:href="#linearGradient5621"
       id="linearGradient6165"
       gradientUnits="userSpaceOnUse"
       gradientTransform="translate(-960,0)"
       x1="1404"
       y1="836.36218"
       x2="1404"
       y2="860.36218" />
    <linearGradient
       inkscape:collect="always"
       xlink:href="#linearGradient4134"
       id="linearGradient6167"
       gradientUnits="userSpaceOnUse"
       x1="914"
       y1="100"
       x2="934"
       y2="100" />
    <linearGradient
       inkscape:collect="always"
       xlink:href="#linearGradient3813"
       id="linearGradient6169"
       gradientUnits="userSpaceOnUse"
       gradientTransform="matrix(0.95454545,0,0,0.95454545,-33.637835,348.5454)"
       x1="913"
       y1="100"
       x2="935"
       y2="100" />
    <linearGradient
       inkscape:collect="always"
       xlink:href="#linearGradient4134"
       id="linearGradient6171"
       gradientUnits="userSpaceOnUse"
       x1="913"
       y1="136"
       x2="927"
       y2="136" />
    <linearGradient
       inkscape:collect="always"
       xlink:href="#linearGradient3813"
       id="linearGradient6173"
       gradientUnits="userSpaceOnUse"
       gradientTransform="translate(-35.637835,-1324.3622)"
       x1="912.5"
       y1="884.36218"
       x2="927.5"
       y2="884.36218" />
    <linearGradient
       inkscape:collect="always"
       xlink:href="#linearGradient4134"
       id="linearGradient6175"
       gradientUnits="userSpaceOnUse"
       x1="789"
       y1="256"
       x2="827"
       y2="256" />
    <linearGradient
       inkscape:collect="always"
       xlink:href="#linearGradient3813"
       id="linearGradient6177"
       gradientUnits="userSpaceOnUse"
       gradientTransform="translate(2008.7244,480)"
       x1="-1023.8622"
       y1="-808"
       x2="-984.86218"
       y2="-808" />
  </defs>
  <sodipodi:namedview
     id="base"
     pagecolor="#ffffff"
     bordercolor="#666666"
     borderopacity="1.0"
     inkscape:pageopacity="0.0"
     inkscape:pageshadow="2"
     inkscape:zoom="1"
     inkscape:cx="445.67934"
     inkscape:cy="246.63796"
     inkscape:document-units="px"
     inkscape:current-layer="g4584"
     showgrid="false"
     inkscape:snap-bbox="true"
     inkscape:bbox-paths="true"
     inkscape:bbox-nodes="true"
     inkscape:snap-bbox-midpoints="true"
     inkscape:snap-bbox-edge-midpoints="true"
     showguides="true"
     inkscape:guide-bbox="true"
     showborder="true"
     inkscape:showpageshadow="false"
     inkscape:window-width="1364"
     inkscape:window-height="700"
     inkscape:window-x="0"
     inkscape:window-y="28"
     inkscape:window-maximized="1"
     inkscape:snap-global="true">
    <inkscape:grid
       type="xygrid"
       id="grid6059"
       empspacing="4"
       visible="true"
       enabled="true"
       snapvisiblegridlinesonly="true" />
    <sodipodi:guide
       orientation="0,1"
       position="0,304"
       id="guide6116" />
    <sodipodi:guide
       orientation="1,0"
       position="480,304"
       id="guide6118" />
    <sodipodi:guide
       orientation="0,1"
       position="0,608"
       id="guide7238" />
    <sodipodi:guide
       orientation="1,0"
       position="960,608"
       id="guide7242" />
    <sodipodi:guide
       orientation="0,1"
       position="960,912"
       id="guide7246" />
    <sodipodi:guide
       orientation="1,0"
       position="1440,912"
       id="guide7250" />
    <sodipodi:guide
       orientation="1,0"
       position="1920,912"
       id="guide14608" />
    <sodipodi:guide
       orientation="0,1"
       position="0,1216"
       id="guide16211" />
  </sodipodi:namedview>
  <metadata
     id="metadata6056">
    <rdf:RDF>
      <cc:Work
         rdf:about="">
        <dc:format>image/svg+xml</dc:format>
        <dc:type
           rdf:resource="http://purl.org/dc/dcmitype/StillImage" />
        <dc:title />
      </cc:Work>
    </rdf:RDF>
  </metadata>
  <g
     inkscape:groupmode="layer"
     id="layer7"
     inkscape:label="rectangle"
     style="display:none">
    <rect
       style="opacity:0.60526315;color:#000000;fill:#000000;fill-opacity:1;fill-rule:evenodd;stroke:none;stroke-width:4;marker:none;visibility:visible;display:inline;overflow:visible;enable-background:new"
       id="rect7208"
       width="480"
       height="304"
       x="0"
       y="0" />
  </g>
  <g
     inkscape:label="Image Loading"
     inkscape:groupmode="layer"
     id="g4584"
     transform="translate(0,-748.36218)"
     style="display:inline">
    <g
       inkscape:groupmode="layer"
       id="g4586"
       inkscape:label="Baseplate"
       style="display:none">
      <text
         id="text4588"
         inkscape:label="context"
         style="font-size:18px;font-style:normal;font-variant:normal;font-weight:normal;font-stretch:normal;fill:#000000;fill-opacity:1;stroke:none;display:inline;enable-background:new;font-family:DejaVu Sans;-inkscape-font-specification:DejaVu Sans"
         x="15.006836"
         xml:space="preserve"
         y="772.1073"><tspan
           id="tspan4590"
           sodipodi:role="line"
           x="15.006836"
           y="772.1073"
           style="font-style:normal;font-variant:normal;font-weight:normal;font-stretch:normal;font-family:DejaVu Sans;-inkscape-font-specification:DejaVu Sans">mimetypes</tspan></text>
      <text
         id="text4592"
         inkscape:label="icon-name"
         sodipodi:linespacing="125%"
         style="font-size:18px;font-style:normal;font-variant:normal;font-weight:bold;font-stretch:normal;text-align:start;line-height:125%;writing-mode:lr-tb;text-anchor:start;fill:#000000;fill-opacity:1;stroke:none;display:inline;enable-background:new;font-family:DejaVu Sans;-inkscape-font-specification:DejaVu Sans Bold"
         x="122.48828"
         xml:space="preserve"
         y="772.1073"><tspan
           id="tspan4594"
           sodipodi:role="line"
           x="122.48828"
           y="772.1073"
           style="font-size:18px;font-style:normal;font-variant:normal;font-weight:bold;font-stretch:normal;font-family:DejaVu Sans;-inkscape-font-specification:DejaVu Sans Bold">image-loading</tspan></text>
      <rect
         inkscape:label="16x16"
         y="876.36218"
         x="432"
         height="16"
         width="16"
         id="rect4596"
         style="fill:#eeeeec;fill-opacity:1;fill-rule:nonzero;stroke:none;stroke-width:2;marker:none;visibility:visible;display:inline;overflow:visible;enable-background:accumulate" />
      <rect
         inkscape:label="24x24"
         y="836.36218"
         x="432"
         height="24"
         width="24"
         id="rect4598"
         style="fill:#d4d4d4;fill-opacity:1;fill-rule:nonzero;stroke:none;stroke-width:2;marker:none;visibility:visible;display:inline;overflow:visible;enable-background:accumulate" />
      <rect
         inkscape:label="32x32"
         y="788.36218"
         x="432"
         height="32"
         width="32"
         id="rect4600"
         style="fill:#eeeeec;fill-opacity:1;fill-rule:nonzero;stroke:none;stroke-width:2;marker:none;visibility:visible;display:inline;overflow:visible;enable-background:accumulate" />
      <rect
         style="fill:#eeeeec;fill-opacity:1;fill-rule:nonzero;stroke:none;stroke-width:2;marker:none;visibility:visible;display:inline;overflow:visible;enable-background:accumulate"
         id="rect4602"
         width="22"
         height="22"
         x="433"
         y="837.36218"
         inkscape:label="22x22" />
      <rect
         style="fill:#eeeeec;fill-opacity:1;fill-rule:nonzero;stroke:none;stroke-width:2;marker:none;visibility:visible;display:inline;overflow:visible;enable-background:accumulate"
         id="rect4604"
         width="48"
         height="48"
         x="304"
         y="980.36218"
         inkscape:label="48x48" />
      <rect
         inkscape:label="64x64"
         y="900.36218"
         x="304"
         height="64"
         width="64"
         id="rect4606"
         style="fill:#eeeeec;fill-opacity:1;fill-rule:nonzero;stroke:none;stroke-width:2;marker:none;visibility:visible;display:inline;overflow:visible;enable-background:accumulate" />
      <rect
         inkscape:label="96x96"
         y="788.36218"
         x="304"
         height="96"
         width="96"
         id="rect4608"
         style="fill:#eeeeec;fill-opacity:1;fill-rule:nonzero;stroke:none;stroke-width:2;marker:none;visibility:visible;display:inline;overflow:visible;enable-background:accumulate" />
      <rect
         inkscape:label="256x256"
         y="780.36218"
         x="16"
         height="256"
         width="256"
         id="rect4610"
         style="fill:#eeeeec;fill-opacity:1;fill-rule:nonzero;stroke:none;stroke-width:2;marker:none;visibility:visible;display:inline;overflow:visible;enable-background:accumulate" />
    </g>
    <g
       inkscape:groupmode="layer"
       id="g4612"
       inkscape:label="Background"
       style="display:inline">
      <g
         style="opacity:0.7;fill:#000000;fill-opacity:1;display:inline;enable-background:new"
         id="g3934"
         transform="matrix(1.5555556,0,0,1.5555556,310.88889,946.80663)">
        <path
           style="color:#000000;fill:#000000;fill-opacity:1;fill-rule:nonzero;stroke:none;stroke-width:4;marker:none;visibility:visible;display:inline;overflow:visible;enable-background:accumulate"
           d="m 11,2 c -4.9705627,0 -9,4.0294373 -9,9 0,4.970563 4.0294373,9 9,9 4.970563,0 9,-4.029437 9,-9 0,-4.9705627 -4.029437,-9 -9,-9 z m 0,2 c 3.865993,0 7,3.1340068 7,7 0,3.865993 -3.134007,7 -7,7 C 7.1340068,18 4,14.865993 4,11 4,7.1340068 7.1340068,4 11,4 z"
           id="path3936"
           transform="translate(0,26)"
           inkscape:connector-curvature="0" />
        <path
           inkscape:connector-curvature="0"
           id="path3938"
           style="fill:#000000;fill-opacity:1;fill-rule:nonzero;stroke:none"
           d="m 11.283578,31.115226 -0.95542,0 L 10,37.264778 l 0.0846,0.643498 3.599201,3.091321 0.726392,-0.745193 -2.804442,-3.075084 z"
           sodipodi:nodetypes="cccccccc" />
      </g>
      <g
         transform="matrix(3.3333333,0,0,3.3333333,315.33333,713.02885)"
         id="g3940"
         style="opacity:0.7;fill:#000000;fill-opacity:1;display:inline;enable-background:new">
        <path
           inkscape:connector-curvature="0"
           transform="translate(0,26)"
           id="path3942"
           d="m 11,2 c -4.9705627,0 -9,4.0294373 -9,9 0,4.970563 4.0294373,9 9,9 4.970563,0 9,-4.029437 9,-9 0,-4.9705627 -4.029437,-9 -9,-9 z m 0,2 c 3.865993,0 7,3.1340068 7,7 0,3.865993 -3.134007,7 -7,7 C 7.1340068,18 4,14.865993 4,11 4,7.1340068 7.1340068,4 11,4 z"
           style="color:#000000;fill:#000000;fill-opacity:1;fill-rule:nonzero;stroke:none;stroke-width:4;marker:none;visibility:visible;display:inline;overflow:visible;enable-background:accumulate" />
        <path
           sodipodi:nodetypes="cccccccc"
           d="m 11.283578,31.115226 -0.95542,0 L 10,37.264778 l 0.0846,0.643498 3.599201,3.091321 0.726392,-0.745193 -2.804442,-3.075084 z"
           style="fill:#000000;fill-opacity:1;fill-rule:nonzero;stroke:none"
           id="path3944"
           inkscape:connector-curvature="0" />
      </g>
      <g
         style="opacity:0.7;fill:#000000;fill-opacity:1;display:inline;enable-background:new"
         id="g3946"
         transform="matrix(2.2222222,0,0,2.2222222,311.55556,850.13996)">
        <path
           style="color:#000000;fill:#000000;fill-opacity:1;fill-rule:nonzero;stroke:none;stroke-width:4;marker:none;visibility:visible;display:inline;overflow:visible;enable-background:accumulate"
           d="m 11,2 c -4.9705627,0 -9,4.0294373 -9,9 0,4.970563 4.0294373,9 9,9 4.970563,0 9,-4.029437 9,-9 0,-4.9705627 -4.029437,-9 -9,-9 z m 0,2 c 3.865993,0 7,3.1340068 7,7 0,3.865993 -3.134007,7 -7,7 C 7.1340068,18 4,14.865993 4,11 4,7.1340068 7.1340068,4 11,4 z"
           id="path3948"
           transform="translate(0,26)"
           inkscape:connector-curvature="0" />
        <path
           inkscape:connector-curvature="0"
           id="path3950"
           style="fill:#000000;fill-opacity:1;fill-rule:nonzero;stroke:none"
           d="m 11.283578,31.115226 -0.95542,0 L 10,37.264778 l 0.0846,0.643498 3.599201,3.091321 0.726392,-0.745193 -2.804442,-3.075084 z"
           sodipodi:nodetypes="cccccccc" />
      </g>
      <g
         style="opacity:0.7;fill:#000000;fill-opacity:1;display:inline;enable-background:new"
         id="g3952"
         transform="matrix(8.3333333,0,0,8.3333333,52.333334,600.02885)">
        <path
           style="color:#000000;fill:#000000;fill-opacity:1;fill-rule:nonzero;stroke:none;stroke-width:4;marker:none;visibility:visible;display:inline;overflow:visible;enable-background:accumulate"
           d="m 11,2 c -4.9705627,0 -9,4.0294373 -9,9 0,4.970563 4.0294373,9 9,9 4.970563,0 9,-4.029437 9,-9 0,-4.9705627 -4.029437,-9 -9,-9 z m 0,2 c 3.865993,0 7,3.1340068 7,7 0,3.865993 -3.134007,7 -7,7 C 7.1340068,18 4,14.865993 4,11 4,7.1340068 7.1340068,4 11,4 z"
           id="path3954"
           transform="translate(0,26)"
           inkscape:connector-curvature="0" />
        <path
           inkscape:connector-curvature="0"
           id="path3956"
           style="fill:#000000;fill-opacity:1;fill-rule:nonzero;stroke:none"
           d="m 11.283578,31.115226 -0.95542,0 L 10,37.264778 l 0.0846,0.643498 3.599201,3.091321 0.726392,-0.745193 -2.804442,-3.075084 z"
           sodipodi:nodetypes="cccccccc" />
      </g>
      <g
         style="opacity:0.7;fill:#000000;fill-opacity:1;display:inline;enable-background:new"
         id="g3958"
         transform="matrix(1.1111111,0,0,1.1111111,435.77778,763.25107)">
        <path
           style="color:#000000;fill:#000000;fill-opacity:1;fill-rule:nonzero;stroke:none;stroke-width:4;marker:none;visibility:visible;display:inline;overflow:visible;enable-background:accumulate"
           d="m 11,2 c -4.9705627,0 -9,4.0294373 -9,9 0,4.970563 4.0294373,9 9,9 4.970563,0 9,-4.029437 9,-9 0,-4.9705627 -4.029437,-9 -9,-9 z m 0,2 c 3.865993,0 7,3.1340068 7,7 0,3.865993 -3.134007,7 -7,7 C 7.1340068,18 4,14.865993 4,11 4,7.1340068 7.1340068,4 11,4 z"
           id="path3960"
           transform="translate(0,26)"
           inkscape:connector-curvature="0" />
        <path
           inkscape:connector-curvature="0"
           id="path3962"
           style="fill:#000000;fill-opacity:1;fill-rule:nonzero;stroke:none"
           d="m 11.283578,31.115226 -0.95542,0 L 10,37.264778 l 0.0846,0.643498 3.599201,3.091321 0.726392,-0.745193 -2.804442,-3.075084 z"
           sodipodi:nodetypes="cccccccc" />
      </g>
      <g
         transform="matrix(0.77777778,0,0,0.77777778,435.44444,819.5844)"
         id="g3964"
         style="opacity:0.7;fill:#000000;fill-opacity:1;display:inline;enable-background:new">
        <path
           inkscape:connector-curvature="0"
           transform="translate(0,26)"
           id="path3966"
           d="m 11,2 c -4.9705627,0 -9,4.0294373 -9,9 0,4.970563 4.0294373,9 9,9 4.970563,0 9,-4.029437 9,-9 0,-4.9705627 -4.029437,-9 -9,-9 z m 0,2 c 3.865993,0 7,3.1340068 7,7 0,3.865993 -3.134007,7 -7,7 C 7.1340068,18 4,14.865993 4,11 4,7.1340068 7.1340068,4 11,4 z"
           style="color:#000000;fill:#000000;fill-opacity:1;fill-rule:nonzero;stroke:none;stroke-width:4;marker:none;visibility:visible;display:inline;overflow:visible;enable-background:accumulate" />
        <path
           sodipodi:nodetypes="cccccccc"
           d="m 11.283578,31.115226 -0.95542,0 L 10,37.264778 l 0.0846,0.643498 3.599201,3.091321 0.726392,-0.745193 -2.804442,-3.075084 z"
           style="fill:#000000;fill-opacity:1;fill-rule:nonzero;stroke:none"
           id="path3968"
           inkscape:connector-curvature="0" />
      </g>
      <g
         style="opacity:0.7;fill:#000000;fill-opacity:1;display:inline;enable-background:new"
         id="g3970"
         transform="matrix(0.55555556,0,0,0.55555556,433.88889,863.80662)">
        <path
           style="color:#000000;fill:#000000;fill-opacity:1;fill-rule:nonzero;stroke:none;stroke-width:4;marker:none;visibility:visible;display:inline;overflow:visible;enable-background:accumulate"
           d="m 11,2 c -4.9705627,0 -9,4.0294373 -9,9 0,4.970563 4.0294373,9 9,9 4.970563,0 9,-4.029437 9,-9 0,-4.9705627 -4.029437,-9 -9,-9 z m 0,2 c 3.865993,0 7,3.1340068 7,7 0,3.865993 -3.134007,7 -7,7 C 7.1340068,18 4,14.865993 4,11 4,7.1340068 7.1340068,4 11,4 z"
           id="path3972"
           transform="translate(0,26)"
           inkscape:connector-curvature="0" />
        <path
           inkscape:connector-curvature="0"
           id="path3974"
           style="fill:#000000;fill-opacity:1;fill-rule:nonzero;stroke:none"
           d="m 11.283578,31.115226 -0.95542,0 L 10,37.264778 l 0.0846,0.643498 3.599201,3.091321 0.726392,-0.745193 -2.804442,-3.075084 z"
           sodipodi:nodetypes="cccccccc" />
      </g>
    </g>
    <g
       inkscape:groupmode="layer"
       id="g4652"
       inkscape:label="Symbols"
       style="display:inline" />
  </g>
</svg>
