<?xml version="1.0" encoding="UTF-8" standalone="no"?>
<!-- Created with Inkscape (http://www.inkscape.org/) -->

<svg
   xmlns:dc="http://purl.org/dc/elements/1.1/"
   xmlns:cc="http://creativecommons.org/ns#"
   xmlns:rdf="http://www.w3.org/1999/02/22-rdf-syntax-ns#"
   xmlns:svg="http://www.w3.org/2000/svg"
   xmlns="http://www.w3.org/2000/svg"
   xmlns:xlink="http://www.w3.org/1999/xlink"
   xmlns:sodipodi="http://sodipodi.sourceforge.net/DTD/sodipodi-0.dtd"
   xmlns:inkscape="http://www.inkscape.org/namespaces/inkscape"
   width="480"
   height="304"
   id="svg6051"
   version="1.1"
   inkscape:version="0.48.4 r9939"
   sodipodi:docname="utilities-terminal.svg"
   inkscape:export-filename="/home/sam/mimetypes-image.png"
   inkscape:export-xdpi="90"
   inkscape:export-ydpi="90">
  <defs
     id="defs6053">
    <linearGradient
       id="linearGradient5621">
      <stop
         style="stop-color:#fadcff;stop-opacity:1;"
         offset="0"
         id="stop5623" />
      <stop
         style="stop-color:#fdf3ff;stop-opacity:1;"
         offset="1"
         id="stop5625" />
    </linearGradient>
    <linearGradient
       id="linearGradient5488">
      <stop
         style="stop-color:#ffffff;stop-opacity:1;"
         offset="0"
         id="stop5490" />
      <stop
         style="stop-color:#f0f0f0;stop-opacity:1;"
         offset="1"
         id="stop5492" />
    </linearGradient>
    <linearGradient
       id="linearGradient5235">
      <stop
         id="stop5237"
         offset="0"
         style="stop-color:#e2e2e2;stop-opacity:1;" />
      <stop
         id="stop5239"
         offset="1"
         style="stop-color:#f5f5f5;stop-opacity:1;" />
    </linearGradient>
    <linearGradient
       inkscape:collect="always"
       id="linearGradient4134">
      <stop
         style="stop-color:#ffffff;stop-opacity:1;"
         offset="0"
         id="stop4136" />
      <stop
         style="stop-color:#ffffff;stop-opacity:0;"
         offset="1"
         id="stop4138" />
    </linearGradient>
    <linearGradient
       id="linearGradient4094">
      <stop
         style="stop-color:#e28192;stop-opacity:1;"
         offset="0"
         id="stop4096" />
      <stop
         id="stop4317"
         offset="0.25862068"
         style="stop-color:#f7d6c7;stop-opacity:1;" />
      <stop
         style="stop-color:#fffee4;stop-opacity:1;"
         offset="1"
         id="stop4098" />
    </linearGradient>
    <linearGradient
       id="linearGradient3988">
      <stop
         style="stop-color:#f1f1f1;stop-opacity:1;"
         offset="0"
         id="stop3990" />
      <stop
         style="stop-color:#f4f4f4;stop-opacity:1;"
         offset="1"
         id="stop3992" />
    </linearGradient>
    <linearGradient
       id="outerBackgroundGradient">
      <stop
         style="stop-color:#8c166c;stop-opacity:1;"
         offset="0"
         id="stop3864-8-6" />
      <stop
         id="stop4409"
         offset="0.36206895"
         style="stop-color:#ca3561;stop-opacity:1;" />
      <stop
         style="stop-color:#f38f4e;stop-opacity:1;"
         offset="1"
         id="stop3866-9-1" />
    </linearGradient>
    <clipPath
       clipPathUnits="userSpaceOnUse"
       id="clipPath4051">
      <rect
         ry="0"
         y="85"
         x="436"
         height="22"
         width="16"
         id="rect4053"
         style="color:#bebebe;fill:url(#linearGradient4055);fill-opacity:1;fill-rule:nonzero;stroke:none;stroke-width:0;marker:none;visibility:visible;display:inline;overflow:visible;enable-background:accumulate" />
    </clipPath>
    <clipPath
       clipPathUnits="userSpaceOnUse"
       id="clipPath4069">
      <rect
         style="color:#bebebe;fill:url(#linearGradient4073);fill-opacity:1;fill-rule:nonzero;stroke:none;stroke-width:0;marker:none;visibility:visible;display:inline;overflow:visible;enable-background:accumulate"
         id="rect4071"
         width="14"
         height="16"
         x="433"
         y="124"
         ry="0" />
    </clipPath>
    <clipPath
       clipPathUnits="userSpaceOnUse"
       id="clipPath4093">
      <rect
         style="color:#bebebe;fill:url(#linearGradient4098);fill-opacity:1;fill-rule:nonzero;stroke:none;stroke-width:0;marker:none;visibility:visible;display:inline;overflow:visible;enable-background:accumulate"
         id="rect4096"
         width="22"
         height="30"
         x="437"
         y="37"
         ry="0" />
    </clipPath>
    <clipPath
       clipPathUnits="userSpaceOnUse"
       id="clipPath14220">
      <rect
         style="color:#bebebe;fill:url(#linearGradient14224);fill-opacity:1;fill-rule:nonzero;stroke:none;stroke-width:0;marker:none;visibility:visible;display:inline;overflow:visible;enable-background:accumulate"
         id="rect14222"
         width="192"
         height="240"
         x="48"
         y="37"
         ry="0" />
    </clipPath>
    <clipPath
       clipPathUnits="userSpaceOnUse"
       id="clipPath14210">
      <rect
         ry="0"
         y="39"
         x="319"
         height="90"
         width="66"
         id="rect14212"
         style="color:#bebebe;fill:url(#linearGradient14214);fill-opacity:1;fill-rule:nonzero;stroke:none;stroke-width:0;marker:none;visibility:visible;display:inline;overflow:visible;enable-background:accumulate" />
    </clipPath>
    <clipPath
       clipPathUnits="userSpaceOnUse"
       id="clipPath14236">
      <rect
         style="color:#bebebe;fill:url(#linearGradient14240);fill-opacity:1;fill-rule:nonzero;stroke:none;stroke-width:0;marker:none;visibility:visible;display:inline;overflow:visible;enable-background:accumulate"
         id="rect14238"
         width="44"
         height="60"
         x="314"
         y="150"
         ry="0" />
    </clipPath>
    <clipPath
       clipPathUnits="userSpaceOnUse"
       id="clipPath14228">
      <rect
         style="color:#bebebe;fill:url(#linearGradient14232);fill-opacity:1;fill-rule:nonzero;stroke:none;stroke-width:0;marker:none;visibility:visible;display:inline;overflow:visible;enable-background:accumulate"
         id="rect14230"
         width="32"
         height="42"
         x="312"
         y="231"
         ry="0" />
    </clipPath>
    <linearGradient
       id="linearGradient5618">
      <stop
         style="stop-color:#332a34;stop-opacity:1;"
         offset="0"
         id="stop5620" />
      <stop
         style="stop-color:#4e474c;stop-opacity:1;"
         offset="1"
         id="stop5622" />
    </linearGradient>
    <linearGradient
       inkscape:collect="always"
       xlink:href="#linearGradient3988"
       id="linearGradient3986"
       x1="448"
       y1="124"
       x2="432"
       y2="124"
       gradientUnits="userSpaceOnUse" />
    <linearGradient
       inkscape:collect="always"
       xlink:href="#linearGradient3988"
       id="linearGradient4002"
       x1="456"
       y1="84"
       x2="432"
       y2="84"
       gradientUnits="userSpaceOnUse" />
    <linearGradient
       inkscape:collect="always"
       xlink:href="#linearGradient3988"
       id="linearGradient4012"
       x1="432.00003"
       y1="36"
       x2="464.00003"
       y2="36"
       gradientUnits="userSpaceOnUse" />
    <linearGradient
       inkscape:collect="always"
       xlink:href="#linearGradient3988"
       id="linearGradient4030"
       x1="304.00003"
       y1="228"
       x2="352.00003"
       y2="228"
       gradientUnits="userSpaceOnUse" />
    <linearGradient
       inkscape:collect="always"
       xlink:href="#linearGradient3988"
       id="linearGradient4040"
       x1="314"
       y1="180"
       x2="358"
       y2="180"
       gradientUnits="userSpaceOnUse" />
    <linearGradient
       inkscape:collect="always"
       xlink:href="#linearGradient3988"
       id="linearGradient4050"
       x1="319"
       y1="84"
       x2="385"
       y2="84"
       gradientUnits="userSpaceOnUse" />
    <linearGradient
       inkscape:collect="always"
       xlink:href="#linearGradient3988"
       id="linearGradient4067"
       x1="319"
       y1="84"
       x2="385"
       y2="84"
       gradientUnits="userSpaceOnUse" />
    <linearGradient
       inkscape:collect="always"
       xlink:href="#linearGradient3988"
       id="linearGradient4080"
       x1="48"
       y1="157"
       x2="240"
       y2="157"
       gradientUnits="userSpaceOnUse" />
    <linearGradient
       inkscape:collect="always"
       xlink:href="#linearGradient3988"
       id="linearGradient4643"
       gradientUnits="userSpaceOnUse"
       x1="319"
       y1="84"
       x2="385"
       y2="84" />
    <linearGradient
       inkscape:collect="always"
       xlink:href="#linearGradient3988"
       id="linearGradient4645"
       gradientUnits="userSpaceOnUse"
       x1="432.00003"
       y1="36"
       x2="464.00003"
       y2="36" />
    <linearGradient
       inkscape:collect="always"
       xlink:href="#linearGradient5618"
       id="linearGradient4083"
       x1="-1023.8622"
       y1="-808"
       x2="-984.86218"
       y2="-808"
       gradientUnits="userSpaceOnUse"
       gradientTransform="translate(0,480)" />
    <clipPath
       clipPathUnits="userSpaceOnUse"
       id="clipPath4130">
      <path
         id="path4132"
         d="M 790.4375,237 C 789.62555,237 789,237.62555 789,238.4375 l 0,35.09375 c 0,0.812 0.62555,1.46875 1.4375,1.46875 l 35.125,0 c 0.81195,0 1.4375,-0.65675 1.4375,-1.46875 l 0,-35.09375 C 827,237.62555 826.37445,237 825.5625,237 l -35.125,0 z"
         style="fill:#ba2222;fill-opacity:1;stroke:none"
         inkscape:connector-curvature="0" />
    </clipPath>
    <linearGradient
       inkscape:collect="always"
       xlink:href="#linearGradient4134"
       id="linearGradient4140"
       x1="789"
       y1="256"
       x2="827"
       y2="256"
       gradientUnits="userSpaceOnUse" />
    <filter
       inkscape:collect="always"
       id="filter4155">
      <feGaussianBlur
         inkscape:collect="always"
         stdDeviation="0.39"
         id="feGaussianBlur4157" />
    </filter>
    <linearGradient
       inkscape:collect="always"
       xlink:href="#linearGradient5618"
       id="linearGradient4167"
       x1="912.5"
       y1="884.36218"
       x2="927.5"
       y2="884.36218"
       gradientUnits="userSpaceOnUse"
       gradientTransform="translate(-1804.3622,-1324.3622)" />
    <clipPath
       clipPathUnits="userSpaceOnUse"
       id="clipPath4192">
      <path
         style="fill:#000000;fill-opacity:1;stroke:none"
         d="M 914.59375,129 C 913.70464,129 913,129.67339 913,130.5625 l 0,10.84375 c 0,0.88911 0.70464,1.59375 1.59375,1.59375 l 10.8125,0 C 926.29536,143 927,142.29536 927,141.40625 l 0,-10.84375 C 927,129.67339 926.29536,129 925.40625,129 l -10.8125,0 z"
         id="path4194"
         inkscape:connector-curvature="0" />
    </clipPath>
    <linearGradient
       inkscape:collect="always"
       xlink:href="#linearGradient4134"
       id="linearGradient4202"
       x1="913"
       y1="136"
       x2="927"
       y2="136"
       gradientUnits="userSpaceOnUse" />
    <linearGradient
       inkscape:collect="always"
       xlink:href="#linearGradient5618"
       id="linearGradient4224"
       x1="913"
       y1="100"
       x2="935"
       y2="100"
       gradientUnits="userSpaceOnUse"
       gradientTransform="matrix(0.95454545,0,0,0.95454545,-1730.3622,348.54545)" />
    <clipPath
       clipPathUnits="userSpaceOnUse"
       id="clipPath4246">
      <path
         id="path4249"
         d="m 915.5,90 c -0.8365,0 -1.5,0.63225 -1.5,1.46875 L 914,108.5 c 0,0.8365 0.6635,1.5 1.5,1.5 l 17,0 c 0.8365,0 1.5,-0.6635 1.5,-1.5 l 0,-17.03125 C 934,90.63225 933.3365,90 932.5,90 l -17,0 z"
         style="fill:#c11717;fill-opacity:1;stroke:none"
         inkscape:connector-curvature="0" />
    </clipPath>
    <linearGradient
       inkscape:collect="always"
       xlink:href="#linearGradient4134"
       id="linearGradient4257"
       x1="914"
       y1="100"
       x2="934"
       y2="100"
       gradientUnits="userSpaceOnUse" />
    <linearGradient
       inkscape:collect="always"
       xlink:href="#linearGradient4134"
       id="linearGradient4696"
       gradientUnits="userSpaceOnUse"
       x1="914"
       y1="100"
       x2="934"
       y2="100" />
    <linearGradient
       inkscape:collect="always"
       xlink:href="#linearGradient4134"
       id="linearGradient4700"
       gradientUnits="userSpaceOnUse"
       x1="913"
       y1="136"
       x2="927"
       y2="136" />
    <linearGradient
       inkscape:collect="always"
       xlink:href="#linearGradient4134"
       id="linearGradient4704"
       gradientUnits="userSpaceOnUse"
       x1="789"
       y1="256"
       x2="827"
       y2="256" />
    <linearGradient
       id="linearGradient3813">
      <stop
         style="stop-color:#d27bdf;stop-opacity:1;"
         offset="0"
         id="stop3815" />
      <stop
         style="stop-color:#a348b1;stop-opacity:1;"
         offset="1"
         id="stop3817" />
    </linearGradient>
    <linearGradient
       inkscape:collect="always"
       xlink:href="#linearGradient3863"
       id="linearGradient23996"
       gradientUnits="userSpaceOnUse"
       x1="442"
       y1="124.02536"
       x2="441.5625"
       y2="140" />
    <linearGradient
       id="linearGradient3863">
      <stop
         id="stop3865"
         offset="0"
         style="stop-color:#0ea1d1;stop-opacity:1;" />
      <stop
         id="stop3867"
         offset="1"
         style="stop-color:#1553c4;stop-opacity:1;" />
    </linearGradient>
    <clipPath
       clipPathUnits="userSpaceOnUse"
       id="clipPath3849">
      <path
         id="path3851"
         d="m 447,123.875 -1.125,0.125 -8,1 -0.875,0.125 0,0.875 0,7.1875 C 436.68353,133.07398 436.35553,133 436,133 c -1.65685,0 -3,1.34315 -3,3 0,1.65685 1.34315,3 3,3 1.65685,0 3,-1.34315 3,-3 l 0,-8.125 6,-0.75 0,5.0625 C 444.68353,132.07398 444.35553,132 444,132 c -1.65685,0 -3,1.34315 -3,3 0,1.65685 1.34315,3 3,3 1.65685,0 3,-1.34315 3,-3 l 0,-10 0,-1.125 z"
         style="color:#bebebe;fill:url(#linearGradient3853);fill-opacity:1;fill-rule:nonzero;stroke:none;stroke-width:4;marker:none;visibility:visible;display:inline;overflow:visible;enable-background:accumulate"
         inkscape:connector-curvature="0" />
    </clipPath>
    <linearGradient
       inkscape:collect="always"
       xlink:href="#linearGradient3863"
       id="linearGradient24068"
       gradientUnits="userSpaceOnUse"
       x1="442"
       y1="124.02536"
       x2="441.5625"
       y2="140" />
    <linearGradient
       inkscape:collect="always"
       xlink:href="#linearGradient3863"
       id="linearGradient24047"
       gradientUnits="userSpaceOnUse"
       x1="442"
       y1="124.02536"
       x2="441.5625"
       y2="140" />
    <linearGradient
       inkscape:collect="always"
       xlink:href="#linearGradient3863"
       id="linearGradient24107"
       gradientUnits="userSpaceOnUse"
       x1="442"
       y1="124.02536"
       x2="441.5625"
       y2="140" />
    <linearGradient
       inkscape:collect="always"
       xlink:href="#linearGradient3863"
       id="linearGradient24018"
       gradientUnits="userSpaceOnUse"
       x1="442"
       y1="124.02536"
       x2="441.5625"
       y2="140" />
    <linearGradient
       inkscape:collect="always"
       xlink:href="#linearGradient3863"
       id="linearGradient24026"
       gradientUnits="userSpaceOnUse"
       x1="442"
       y1="124.02536"
       x2="441.5625"
       y2="140" />
    <linearGradient
       inkscape:collect="always"
       xlink:href="#linearGradient3863"
       id="linearGradient24199"
       gradientUnits="userSpaceOnUse"
       x1="442"
       y1="124.02536"
       x2="441.5625"
       y2="140" />
    <linearGradient
       inkscape:collect="always"
       xlink:href="#linearGradient3863"
       id="linearGradient24207"
       gradientUnits="userSpaceOnUse"
       x1="442"
       y1="124.02536"
       x2="441.5625"
       y2="140" />
    <linearGradient
       inkscape:collect="always"
       xlink:href="#linearGradient3863"
       id="linearGradient24229"
       gradientUnits="userSpaceOnUse"
       x1="442"
       y1="124.02536"
       x2="441.5625"
       y2="140" />
    <linearGradient
       inkscape:collect="always"
       xlink:href="#linearGradient3863"
       id="linearGradient24237"
       gradientUnits="userSpaceOnUse"
       x1="442"
       y1="124.02536"
       x2="441.5625"
       y2="140" />
    <linearGradient
       y2="140"
       x2="441.5625"
       y1="124.02536"
       x1="442"
       gradientUnits="userSpaceOnUse"
       id="linearGradient6823"
       xlink:href="#linearGradient3863"
       inkscape:collect="always" />
    <linearGradient
       inkscape:collect="always"
       xlink:href="#linearGradient3863"
       id="linearGradient5375"
       gradientUnits="userSpaceOnUse"
       x1="442"
       y1="124.02536"
       x2="441.5625"
       y2="140" />
    <linearGradient
       inkscape:collect="always"
       xlink:href="#linearGradient3863"
       id="linearGradient5383"
       gradientUnits="userSpaceOnUse"
       x1="442"
       y1="124.02536"
       x2="441.5625"
       y2="140" />
    <linearGradient
       inkscape:collect="always"
       xlink:href="#linearGradient3863"
       id="linearGradient5466"
       gradientUnits="userSpaceOnUse"
       x1="442"
       y1="124.02536"
       x2="441.5625"
       y2="140" />
    <linearGradient
       inkscape:collect="always"
       xlink:href="#linearGradient3863"
       id="linearGradient5474"
       gradientUnits="userSpaceOnUse"
       x1="442"
       y1="124.02536"
       x2="441.5625"
       y2="140" />
    <clipPath
       clipPathUnits="userSpaceOnUse"
       id="clipPath5500">
      <path
         id="path5502"
         d="m 1298.015,993.69305 -1.6799,0.18666 -11.9457,1.49321 -1.3065,0.18665 0,1.30656 0,10.73247 c -0.4726,-0.1695 -0.9624,-0.28 -1.4933,-0.28 -2.474,0 -4.4796,2.0056 -4.4796,4.4797 0,2.474 2.0056,4.4796 4.4796,4.4796 2.4741,0 4.4797,-2.0056 4.4797,-4.4796 l 0,-12.13239 8.9593,-1.11991 0,7.5594 c -0.4726,-0.1695 -0.9624,-0.28 -1.4933,-0.28 -2.474,0 -4.4796,2.0056 -4.4796,4.4796 0,2.4741 2.0056,4.4797 4.4796,4.4797 2.4741,0 4.4797,-2.0056 4.4797,-4.4797 l 0,-14.93208 0,-1.67987 z"
         style="opacity:0.3;color:#bebebe;fill:url(#linearGradient5504);fill-opacity:1;fill-rule:nonzero;stroke:none;stroke-width:4;marker:none;visibility:visible;display:inline;overflow:visible;enable-background:accumulate"
         inkscape:connector-curvature="0" />
    </clipPath>
    <linearGradient
       inkscape:collect="always"
       xlink:href="#linearGradient5488"
       id="linearGradient5504"
       gradientUnits="userSpaceOnUse"
       x1="1288"
       y1="988.36218"
       x2="1288"
       y2="1020.3622" />
    <linearGradient
       inkscape:collect="always"
       xlink:href="#linearGradient5621"
       id="linearGradient5619"
       x1="1404"
       y1="836.36218"
       x2="1404"
       y2="860.36218"
       gradientUnits="userSpaceOnUse" />
    <linearGradient
       inkscape:collect="always"
       xlink:href="#linearGradient5621"
       id="linearGradient5649"
       gradientUnits="userSpaceOnUse"
       x1="1404"
       y1="836.36218"
       x2="1404"
       y2="860.36218" />
    <clipPath
       clipPathUnits="userSpaceOnUse"
       id="clipPath5742">
      <path
         style="fill:#983f3f;fill-opacity:1;stroke:none"
         d="m 1271.4375,157 c -1.364,0 -2.4375,1.07353 -2.4375,2.4375 l 0,49.09375 c 0,1.36397 1.0735,2.46875 2.4375,2.46875 l 49.125,0 c 1.364,0 2.4375,-1.10478 2.4375,-2.46875 l 0,-49.09375 c 0,-1.36397 -1.0735,-2.4375 -2.4375,-2.4375 l -49.125,0 z"
         id="path5744"
         inkscape:connector-curvature="0" />
    </clipPath>
    <linearGradient
       inkscape:collect="always"
       xlink:href="#linearGradient4134"
       id="linearGradient5752"
       x1="1269"
       y1="184"
       x2="1323"
       y2="184"
       gradientUnits="userSpaceOnUse" />
    <filter
       inkscape:collect="always"
       id="filter5758">
      <feGaussianBlur
         inkscape:collect="always"
         stdDeviation="0.55"
         id="feGaussianBlur5760" />
    </filter>
    <linearGradient
       inkscape:collect="always"
       xlink:href="#linearGradient4134"
       id="linearGradient5812"
       x1="1394"
       y1="56"
       x2="1422"
       y2="56"
       gradientUnits="userSpaceOnUse"
       gradientTransform="matrix(0,1,-1,0,1464,-603.63782)" />
    <clipPath
       clipPathUnits="userSpaceOnUse"
       id="clipPath5820">
      <path
         style="opacity:0.49122811;fill:#ae4747;fill-opacity:1;stroke:none"
         d="m 1396.4375,791.36218 c -0.8001,0 -1.4375,0.60617 -1.4375,1.40625 l 0,23.15625 c 0,0.80008 0.6374,1.4375 1.4375,1.4375 l 23.125,0 c 0.8001,0 1.4375,-0.63742 1.4375,-1.4375 l 0,-23.15625 c 0,-0.80008 -0.6374,-1.40625 -1.4375,-1.40625 l -23.125,0 z"
         id="path5822"
         inkscape:connector-curvature="0" />
    </clipPath>
    <filter
       inkscape:collect="always"
       id="filter5832">
      <feGaussianBlur
         inkscape:collect="always"
         stdDeviation="0.27"
         id="feGaussianBlur5834" />
    </filter>
    <linearGradient
       inkscape:collect="always"
       xlink:href="#linearGradient3813"
       id="linearGradient6019"
       gradientUnits="userSpaceOnUse"
       gradientTransform="matrix(0.98214286,0,0,0.98214286,-340.49497,635.2857)"
       x1="1268"
       y1="184"
       x2="1324"
       y2="184" />
    <linearGradient
       inkscape:collect="always"
       xlink:href="#linearGradient4134"
       id="linearGradient6021"
       gradientUnits="userSpaceOnUse"
       x1="1269"
       y1="184"
       x2="1323"
       y2="184" />
    <linearGradient
       inkscape:collect="always"
       xlink:href="#linearGradient3813"
       id="linearGradient6023"
       gradientUnits="userSpaceOnUse"
       gradientTransform="translate(-603.63782,-1732.3622)"
       x1="1394.5"
       y1="804.36218"
       x2="1421.5"
       y2="804.36218" />
    <linearGradient
       inkscape:collect="always"
       xlink:href="#linearGradient4134"
       id="linearGradient6025"
       gradientUnits="userSpaceOnUse"
       gradientTransform="matrix(0,1,-1,0,1464,-603.63782)"
       x1="1394"
       y1="56"
       x2="1422"
       y2="56" />
    <linearGradient
       inkscape:collect="always"
       xlink:href="#linearGradient5621"
       id="linearGradient6027"
       gradientUnits="userSpaceOnUse"
       gradientTransform="translate(-481,748.36218)"
       x1="1408"
       y1="72"
       x2="1408"
       y2="40" />
    <linearGradient
       inkscape:collect="always"
       xlink:href="#linearGradient5621"
       id="linearGradient6029"
       gradientUnits="userSpaceOnUse"
       gradientTransform="matrix(2,0,0,2,-2001,821.36218)"
       x1="1408"
       y1="72"
       x2="1408"
       y2="40" />
    <linearGradient
       inkscape:collect="always"
       xlink:href="#linearGradient5618"
       id="linearGradient6115"
       gradientUnits="userSpaceOnUse"
       gradientTransform="translate(-2212.3622,-356.36222)"
       x1="1394.5"
       y1="804.36218"
       x2="1421.5"
       y2="804.36218" />
    <linearGradient
       inkscape:collect="always"
       xlink:href="#linearGradient5618"
       id="linearGradient6117"
       gradientUnits="userSpaceOnUse"
       gradientTransform="matrix(0.98214286,0,0,0.98214286,-2205.2194,-516.7143)"
       x1="1268"
       y1="184"
       x2="1324"
       y2="184" />
  </defs>
  <sodipodi:namedview
     id="base"
     pagecolor="#ffffff"
     bordercolor="#666666"
     borderopacity="1.0"
     inkscape:pageopacity="0.0"
     inkscape:pageshadow="2"
     inkscape:zoom="1"
     inkscape:cx="482.55986"
     inkscape:cy="165.32914"
     inkscape:document-units="px"
     inkscape:current-layer="g4413"
     showgrid="false"
     inkscape:snap-bbox="true"
     inkscape:bbox-paths="true"
     inkscape:bbox-nodes="true"
     inkscape:snap-bbox-midpoints="true"
     inkscape:snap-bbox-edge-midpoints="true"
     showguides="true"
     inkscape:guide-bbox="true"
     showborder="true"
     inkscape:showpageshadow="false"
     inkscape:window-width="1364"
     inkscape:window-height="700"
     inkscape:window-x="0"
     inkscape:window-y="28"
     inkscape:window-maximized="1"
     inkscape:snap-global="true">
    <inkscape:grid
       type="xygrid"
       id="grid6059"
       empspacing="4"
       visible="true"
       enabled="true"
       snapvisiblegridlinesonly="true" />
    <sodipodi:guide
       orientation="0,1"
       position="0,304"
       id="guide6116" />
    <sodipodi:guide
       orientation="1,0"
       position="480,304"
       id="guide6118" />
    <sodipodi:guide
       orientation="0,1"
       position="0,608"
       id="guide7238" />
    <sodipodi:guide
       orientation="1,0"
       position="960,608"
       id="guide7242" />
    <sodipodi:guide
       orientation="0,1"
       position="960,912"
       id="guide7246" />
    <sodipodi:guide
       orientation="1,0"
       position="1440,912"
       id="guide7250" />
    <sodipodi:guide
       orientation="1,0"
       position="1920,912"
       id="guide14608" />
    <sodipodi:guide
       orientation="0,1"
       position="0,1216"
       id="guide16211" />
  </sodipodi:namedview>
  <metadata
     id="metadata6056">
    <rdf:RDF>
      <cc:Work
         rdf:about="">
        <dc:format>image/svg+xml</dc:format>
        <dc:type
           rdf:resource="http://purl.org/dc/dcmitype/StillImage" />
        <dc:title></dc:title>
      </cc:Work>
    </rdf:RDF>
  </metadata>
  <g
     style="display:inline"
     transform="translate(0,-748.36218)"
     id="g4411"
     inkscape:groupmode="layer"
     inkscape:label="Generic Video">
    <g
       style="display:none"
       inkscape:label="Baseplate"
       id="g4413"
       inkscape:groupmode="layer">
      <text
         y="772.1073"
         xml:space="preserve"
         x="15.006836"
         style="font-size:18px;font-style:normal;font-variant:normal;font-weight:normal;font-stretch:normal;fill:#000000;fill-opacity:1;stroke:none;display:inline;enable-background:new;font-family:DejaVu Sans;-inkscape-font-specification:DejaVu Sans"
         inkscape:label="context"
         id="text4415"><tspan
           style="font-style:normal;font-variant:normal;font-weight:normal;font-stretch:normal;font-family:DejaVu Sans;-inkscape-font-specification:DejaVu Sans"
           y="772.1073"
           x="15.006836"
           sodipodi:role="line"
           id="tspan4417">apps</tspan></text>
      <text
         y="772.1073"
         xml:space="preserve"
         x="122.48828"
         style="font-size:18px;font-style:normal;font-variant:normal;font-weight:bold;font-stretch:normal;text-align:start;line-height:125%;writing-mode:lr-tb;text-anchor:start;fill:#000000;fill-opacity:1;stroke:none;display:inline;enable-background:new;font-family:DejaVu Sans;-inkscape-font-specification:DejaVu Sans Bold"
         sodipodi:linespacing="125%"
         inkscape:label="icon-name"
         id="text4419"><tspan
           style="font-size:18px;font-style:normal;font-variant:normal;font-weight:bold;font-stretch:normal;font-family:DejaVu Sans;-inkscape-font-specification:DejaVu Sans Bold"
           y="772.1073"
           x="122.48828"
           sodipodi:role="line"
           id="tspan4421">utilities-terminal</tspan></text>
      <rect
         style="fill:#eeeeec;fill-opacity:1;fill-rule:nonzero;stroke:none;stroke-width:2;marker:none;visibility:visible;display:inline;overflow:visible;enable-background:accumulate"
         id="rect4423"
         width="16"
         height="16"
         x="432"
         y="876.36218"
         inkscape:label="16x16" />
      <rect
         style="fill:#d4d4d4;fill-opacity:1;fill-rule:nonzero;stroke:none;stroke-width:2;marker:none;visibility:visible;display:inline;overflow:visible;enable-background:accumulate"
         id="rect4425"
         width="24"
         height="24"
         x="432"
         y="836.36218"
         inkscape:label="24x24" />
      <rect
         style="fill:#eeeeec;fill-opacity:1;fill-rule:nonzero;stroke:none;stroke-width:2;marker:none;visibility:visible;display:inline;overflow:visible;enable-background:accumulate"
         id="rect4427"
         width="32"
         height="32"
         x="432"
         y="788.36218"
         inkscape:label="32x32" />
      <rect
         inkscape:label="22x22"
         y="837.36218"
         x="433"
         height="22"
         width="22"
         id="rect4429"
         style="fill:#eeeeec;fill-opacity:1;fill-rule:nonzero;stroke:none;stroke-width:2;marker:none;visibility:visible;display:inline;overflow:visible;enable-background:accumulate" />
      <rect
         inkscape:label="48x48"
         y="980.36218"
         x="304"
         height="48"
         width="48"
         id="rect4431"
         style="fill:#eeeeec;fill-opacity:1;fill-rule:nonzero;stroke:none;stroke-width:2;marker:none;visibility:visible;display:inline;overflow:visible;enable-background:accumulate" />
      <rect
         style="fill:#eeeeec;fill-opacity:1;fill-rule:nonzero;stroke:none;stroke-width:2;marker:none;visibility:visible;display:inline;overflow:visible;enable-background:accumulate"
         id="rect4433"
         width="64"
         height="64"
         x="304"
         y="900.36218"
         inkscape:label="64x64" />
      <rect
         style="fill:#eeeeec;fill-opacity:1;fill-rule:nonzero;stroke:none;stroke-width:2;marker:none;visibility:visible;display:inline;overflow:visible;enable-background:accumulate"
         id="rect4435"
         width="96"
         height="96"
         x="304"
         y="788.36218"
         inkscape:label="96x96" />
      <rect
         style="fill:#eeeeec;fill-opacity:1;fill-rule:nonzero;stroke:none;stroke-width:2;marker:none;visibility:visible;display:inline;overflow:visible;enable-background:accumulate"
         id="rect4437"
         width="256"
         height="256"
         x="16"
         y="780.36218"
         inkscape:label="256x256" />
    </g>
    <g
       style="display:inline"
       inkscape:label="Background"
       id="g4439"
       inkscape:groupmode="layer">
      <rect
         rx="1.9499974"
         ry="1.95"
         transform="matrix(0,-1,-1,0,-480,0.99999742)"
         y="-827.5"
         x="-1023.8622"
         height="39"
         width="39"
         id="rect4149"
         style="opacity:0.41000001;fill:#000000;fill-opacity:1;stroke:none;display:inline;filter:url(#filter4155)" />
      <rect
         rx="1.9499974"
         ry="1.95"
         transform="matrix(0,-1,-1,0,0,0)"
         y="-347.5"
         x="-1023.8622"
         height="39"
         width="39"
         id="rect4073"
         style="fill:url(#linearGradient4083);fill-opacity:1;stroke:none;display:inline" />
      <rect
         style="opacity:0.41000001;fill:none;stroke:#000000;stroke-opacity:1;display:inline"
         id="rect4085"
         width="39"
         height="39"
         x="-1023.8622"
         y="-347.5"
         transform="matrix(0,-1,-1,0,0,0)"
         ry="1.95"
         rx="1.9499974" />
      <path
         inkscape:connector-curvature="0"
         style="opacity:0.15;fill:#ffffff;fill-opacity:1;stroke:none;display:inline"
         d="m 310.4375,985.3622 c -0.81195,0 -1.4375,0.62555 -1.4375,1.4375 l 0,1 c 0,-0.81195 0.62555,-1.4375 1.4375,-1.4375 l 35.125,0 c 0.81195,0 1.4375,0.62555 1.4375,1.4375 l 0,-1 c 0,-0.81195 -0.62555,-1.4375 -1.4375,-1.4375 l -35.125,0 z"
         id="rect4089-4" />
      <path
         id="path4105"
         d="m 310.4375,1023.3622 c -0.81195,0 -1.4375,-0.6256 -1.4375,-1.4375 l 0,-1 c 0,0.8119 0.62555,1.4375 1.4375,1.4375 l 35.125,0 c 0.81195,0 1.4375,-0.6256 1.4375,-1.4375 l 0,1 c 0,0.8119 -0.62555,1.4375 -1.4375,1.4375 l -35.125,0 z"
         style="opacity:0.1;fill:#ffffff;fill-opacity:1;stroke:none;display:inline"
         inkscape:connector-curvature="0" />
      <path
         transform="matrix(0,1,-1,0,584,196.36218)"
         style="opacity:0.1;fill:none;stroke:url(#linearGradient4140);stroke-width:2;stroke-miterlimit:4;stroke-opacity:1;stroke-dasharray:none;display:inline"
         d="M 790.4375,237 C 789.62555,237 789,237.62555 789,238.4375 l 0,35.09375 c 0,0.812 0.62555,1.46875 1.4375,1.46875 l 35.125,0 c 0.81195,0 1.4375,-0.65675 1.4375,-1.46875 l 0,-35.09375 C 827,237.62555 826.37445,237 825.5625,237 l -35.125,0 z"
         id="path4128"
         clip-path="url(#clipPath4130)"
         inkscape:connector-curvature="0" />
      <path
         inkscape:connector-curvature="0"
         style="opacity:0.5;fill:#000000;fill-opacity:1;stroke:none;display:inline"
         d="m 310.4375,1024.3622 c -0.81195,0 -1.4375,-0.6256 -1.4375,-1.4375 l 0,-1 c 0,0.8119 0.62555,1.4375 1.4375,1.4375 l 35.125,0 c 0.81195,0 1.4375,-0.6256 1.4375,-1.4375 l 0,1 c 0,0.8119 -0.62555,1.4375 -1.4375,1.4375 l -35.125,0 z"
         id="path4147" />
      <rect
         style="fill:url(#linearGradient4167);fill-opacity:1;stroke:none"
         id="rect4159"
         width="15"
         height="15"
         x="-891.86218"
         y="-447.5"
         rx="2.089283"
         ry="2.0892859"
         transform="matrix(0,-1,-1,0,0,0)" />
      <rect
         transform="matrix(0,-1,-1,0,0,0)"
         ry="2.0892859"
         rx="2.089283"
         y="-447.5"
         x="-891.86218"
         height="15"
         width="15"
         id="rect4169"
         style="opacity:0.41000001;fill:none;stroke:#000000;stroke-opacity:1" />
      <path
         id="path4182"
         d="M 914.59375,129 C 913.70464,129 913,129.67339 913,130.5625 l 0,10.84375 c 0,0.88911 0.70464,1.59375 1.59375,1.59375 l 10.8125,0 C 926.29536,143 927,142.29536 927,141.40625 l 0,-10.84375 C 927,129.67339 926.29536,129 925.40625,129 l -10.8125,0 z"
         style="opacity:0.1;fill:none;stroke:url(#linearGradient4202);stroke-width:2;stroke-miterlimit:4;stroke-opacity:1;stroke-dasharray:none"
         transform="matrix(0,1,-1,0,576,-35.63782)"
         clip-path="url(#clipPath4192)"
         inkscape:connector-curvature="0" />
      <path
         style="opacity:0.15;fill:#ffffff;fill-opacity:1;stroke:none"
         d="m 434.59375,877.36218 c -0.88911,0 -1.59375,0.70464 -1.59375,1.59375 l 0,1 c 0,-0.88911 0.70464,-1.59375 1.59375,-1.59375 l 10.84375,0 c 0.88911,0 1.5625,0.70464 1.5625,1.59375 l 0,-1 c 0,-0.88911 -0.67339,-1.59375 -1.5625,-1.59375 l -10.84375,0 z"
         id="path4206"
         inkscape:connector-curvature="0" />
      <path
         id="path4211"
         d="m 434.59375,891.36218 c -0.88911,0 -1.59375,-0.70464 -1.59375,-1.59375 l 0,-1 c 0,0.88911 0.70464,1.59375 1.59375,1.59375 l 10.84375,0 c 0.88911,0 1.5625,-0.70464 1.5625,-1.59375 l 0,1 c 0,0.88911 -0.67339,1.59375 -1.5625,1.59375 l -10.84375,0 z"
         style="opacity:0.1;fill:#ffffff;fill-opacity:1;stroke:none"
         inkscape:connector-curvature="0" />
      <path
         inkscape:connector-curvature="0"
         style="opacity:0.5;fill:#000000;fill-opacity:1;stroke:none"
         d="m 434.59375,892.36218 c -0.88911,0 -1.59375,-0.70464 -1.59375,-1.59375 l 0,-1 c 0,0.88911 0.70464,1.59375 1.59375,1.59375 l 10.84375,0 c 0.88911,0 1.5625,-0.70464 1.5625,-1.59375 l 0,1 c 0,0.88911 -0.67339,1.59375 -1.5625,1.59375 l -10.84375,0 z"
         id="path4213" />
      <rect
         style="fill:url(#linearGradient4224);fill-opacity:1;stroke:none"
         id="rect4215"
         width="21"
         height="21"
         x="-858.86218"
         y="433.5"
         transform="matrix(0,-1,1,0,0,0)"
         rx="1.9943156"
         ry="1.9943184" />
      <path
         transform="matrix(0,1,1,0,344,-75.6378)"
         id="path4242"
         d="m 915.5,90 c -0.8365,0 -1.5,0.63225 -1.5,1.46875 L 914,108.5 c 0,0.8365 0.6635,1.5 1.5,1.5 l 17,0 c 0.8365,0 1.5,-0.6635 1.5,-1.5 l 0,-17.03125 C 934,90.63225 933.3365,90 932.5,90 l -17,0 z"
         style="opacity:0.1;fill:none;stroke:url(#linearGradient4257);stroke-width:2;stroke-miterlimit:4;stroke-opacity:1;stroke-dasharray:none"
         clip-path="url(#clipPath4246)"
         inkscape:connector-curvature="0" />
      <rect
         ry="1.9943184"
         rx="1.9943156"
         transform="matrix(0,-1,1,0,0,0)"
         y="433.5"
         x="-858.86218"
         height="21"
         width="21"
         style="opacity:0.41000001;fill:none;stroke:#000000;stroke-opacity:1"
         id="rect4226" />
      <path
         style="opacity:0.15;fill:#ffffff;fill-opacity:1;stroke:none"
         d="m 435.5,838.36218 c -0.8365,0 -1.5,0.63225 -1.5,1.46875 l 0,1 c 0,-0.8365 0.6635,-1.46875 1.5,-1.46875 l 17,0 c 0.8365,0 1.5,0.63225 1.5,1.46875 l 0,-1 c 0,-0.8365 -0.6635,-1.46875 -1.5,-1.46875 l -17,0 z"
         id="rect4228"
         inkscape:connector-curvature="0" />
      <path
         id="path4262"
         d="m 435.5,858.3622 c -0.8365,0 -1.5,-0.63225 -1.5,-1.46875 l 0,-1 c 0,0.8365 0.6635,1.46875 1.5,1.46875 l 17,0 c 0.8365,0 1.5,-0.63225 1.5,-1.46875 l 0,1 c 0,0.8365 -0.6635,1.46875 -1.5,1.46875 l -17,0 z"
         style="opacity:0.1;fill:#ffffff;fill-opacity:1;stroke:none"
         inkscape:connector-curvature="0" />
      <path
         inkscape:connector-curvature="0"
         style="opacity:0.5;fill:#000000;fill-opacity:1;stroke:none"
         d="m 435.5,859.3622 c -0.8365,0 -1.5,-0.63225 -1.5,-1.46875 l 0,-1 c 0,0.8365 0.6635,1.46875 1.5,1.46875 l 17,0 c 0.8365,0 1.5,-0.63225 1.5,-1.46875 l 0,1 c 0,0.8365 -0.6635,1.46875 -1.5,1.46875 l -17,0 z"
         id="path4264" />
      <rect
         style="opacity:0.7;fill:#000000;fill-opacity:1;stroke:none;display:inline;filter:url(#filter5758)"
         id="rect5977"
         width="55"
         height="55"
         x="904.86218"
         y="1268.5"
         transform="matrix(0,1,1,0,-960,1)"
         ry="2.9464285" />
      <rect
         ry="2.9464285"
         transform="matrix(0,-1,-1,0,0,0)"
         y="-363.5"
         x="-959.86218"
         height="55"
         width="55"
         id="rect5979"
         style="fill:url(#linearGradient6117);fill-opacity:1;stroke:none;display:inline" />
      <rect
         style="opacity:0.7;fill:none;stroke:none;display:inline"
         id="rect5981"
         width="56"
         height="56"
         x="904.36218"
         y="308"
         transform="matrix(0,1,1,0,0,0)"
         ry="3" />
      <rect
         style="opacity:0.41000001;fill:none;stroke:#000000;stroke-opacity:1;display:inline"
         id="rect5983"
         width="55"
         height="55"
         x="904.86218"
         y="308.5"
         transform="matrix(0,1,1,0,0,0)"
         ry="2.9464285" />
      <path
         id="path5985"
         d="m 311.4375,905.36218 c -1.364,0 -2.4375,1.07353 -2.4375,2.4375 l 0,1 c 0,-1.36397 1.0735,-2.4375 2.4375,-2.4375 l 49.125,0 c 1.364,0 2.4375,1.07353 2.4375,2.4375 l 0,-1 c 0,-1.36397 -1.0735,-2.4375 -2.4375,-2.4375 l -49.125,0 z"
         style="opacity:0.15;fill:#ffffff;fill-opacity:1;stroke:none;display:inline"
         inkscape:connector-curvature="0" />
      <path
         inkscape:connector-curvature="0"
         style="opacity:0.1;fill:#ffffff;fill-opacity:1;stroke:none;display:inline"
         d="m 311.4375,959.36218 c -1.364,0 -2.4375,-1.07353 -2.4375,-2.4375 l 0,-1 c 0,1.36397 1.0735,2.4375 2.4375,2.4375 l 49.125,0 c 1.364,0 2.4375,-1.07353 2.4375,-2.4375 l 0,1 c 0,1.36397 -1.0735,2.4375 -2.4375,2.4375 l -49.125,0 z"
         id="path5987" />
      <path
         inkscape:connector-curvature="0"
         clip-path="url(#clipPath5742)"
         style="opacity:0.1;fill:none;stroke:url(#linearGradient6021);stroke-width:2;stroke-miterlimit:4;stroke-opacity:1;stroke-dasharray:none;display:inline"
         d="m 1271.4375,157 c -1.364,0 -2.4375,1.07353 -2.4375,2.4375 l 0,49.09375 c 0,1.36397 1.0735,2.46875 2.4375,2.46875 l 49.125,0 c 1.364,0 2.4375,-1.10478 2.4375,-2.46875 l 0,-49.09375 c 0,-1.36397 -1.0735,-2.4375 -2.4375,-2.4375 l -49.125,0 z"
         transform="matrix(0,1,-1,0,520,-363.63782)"
         id="path5989" />
      <path
         id="path5991"
         d="m 311.4375,960.36218 c -1.364,0 -2.4375,-1.07353 -2.4375,-2.4375 l 0,-1 c 0,1.36397 1.0735,2.4375 2.4375,2.4375 l 49.125,0 c 1.364,0 2.4375,-1.07353 2.4375,-2.4375 l 0,1 c 0,1.36397 -1.0735,2.4375 -2.4375,2.4375 l -49.125,0 z"
         style="opacity:0.5;fill:#000000;fill-opacity:1;stroke:none;display:inline"
         inkscape:connector-curvature="0" />
      <rect
         style="fill:#000000;fill-opacity:1;stroke:none;display:inline;filter:url(#filter5832)"
         id="rect5993"
         width="27"
         height="27"
         x="790.86218"
         y="-1421.5"
         ry="1.9285715"
         transform="matrix(0,1,-1,0,-960,0)" />
      <rect
         transform="matrix(0,-1,1,0,0,0)"
         ry="1.9285715"
         y="434.5"
         x="-817.86218"
         height="27"
         width="27"
         id="rect5995"
         style="fill:url(#linearGradient6115);fill-opacity:1;stroke:none;display:inline" />
      <rect
         style="opacity:0.41000001;fill:none;stroke:#000000;stroke-opacity:1;display:inline"
         id="rect5997"
         width="27"
         height="27"
         x="434.5"
         y="790.86218"
         ry="1.9285715" />
      <path
         inkscape:connector-curvature="0"
         id="path5999"
         d="m 436.4375,791.36218 c -0.8001,0 -1.4375,0.60617 -1.4375,1.40625 l 0,1 c 0,-0.80008 0.6374,-1.40625 1.4375,-1.40625 l 23.125,0 c 0.8001,0 1.4375,0.60617 1.4375,1.40625 l 0,-1 c 0,-0.80008 -0.6374,-1.40625 -1.4375,-1.40625 l -23.125,0 z"
         style="opacity:0.15;fill:#ffffff;fill-opacity:1;stroke:none;display:inline" />
      <path
         inkscape:connector-curvature="0"
         style="opacity:0.1;fill:#ffffff;fill-opacity:1;stroke:none;display:inline"
         d="m 436.4375,817.36218 c -0.8001,0 -1.4375,-0.60617 -1.4375,-1.40625 l 0,-1 c 0,0.80008 0.6374,1.40625 1.4375,1.40625 l 23.125,0 c 0.8001,0 1.4375,-0.60617 1.4375,-1.40625 l 0,1 c 0,0.80008 -0.6374,1.40625 -1.4375,1.40625 l -23.125,0 z"
         id="path6001" />
      <path
         clip-path="url(#clipPath5820)"
         inkscape:connector-curvature="0"
         style="opacity:0.1;fill:none;stroke:url(#linearGradient6025);stroke-width:2;stroke-miterlimit:4;stroke-opacity:1;stroke-dasharray:none;display:inline"
         d="m 1421,792.79968 c 0,-0.8001 -0.6062,-1.4375 -1.4062,-1.4375 l -23.1563,0 c -0.8001,0 -1.4375,0.6374 -1.4375,1.4375 l 0,23.125 c 0,0.8001 0.6374,1.4375 1.4375,1.4375 l 23.1563,0 c 0.8,0 1.4062,-0.6374 1.4062,-1.4375 l 0,-23.125 z"
         id="path6003"
         transform="translate(-960,0)" />
      <path
         id="path6005"
         d="m 436.4375,818.36218 c -0.8001,0 -1.4375,-0.60617 -1.4375,-1.40625 l 0,-1 c 0,0.80008 0.6374,1.40625 1.4375,1.40625 l 23.125,0 c 0.8001,0 1.4375,-0.60617 1.4375,-1.40625 l 0,1 c 0,0.80008 -0.6374,1.40625 -1.4375,1.40625 l -23.125,0 z"
         style="opacity:0.5;fill:#000000;fill-opacity:1;stroke:none;display:inline"
         inkscape:connector-curvature="0" />
    </g>
    <g
       style="display:inline"
       inkscape:label="Symbols"
       id="g4529"
       inkscape:groupmode="layer">
      <g
         style="opacity:0.2;fill:#000000;fill-opacity:1;display:inline;enable-background:new"
         id="g4055"
         transform="translate(16,762.36218)">
        <rect
           y="240"
           x="307"
           height="2.0000007"
           width="9"
           id="rect4057"
           style="color:#bebebe;fill:#000000;fill-opacity:1;fill-rule:nonzero;stroke:none;stroke-width:2;marker:none;visibility:visible;display:inline;overflow:visible;enable-background:accumulate" />
        <g
           style="font-size:17.2705555px;font-style:normal;font-variant:normal;font-weight:normal;font-stretch:normal;text-align:center;line-height:125%;letter-spacing:0px;word-spacing:0px;text-anchor:middle;fill:#000000;fill-opacity:1;stroke:none;display:inline;enable-background:new;font-family:Roboto;-inkscape-font-specification:Roboto"
           id="g4059">
          <path
             d="m 300.20309,229 1.72875,0 0,0.97826 c 0.47785,0.0956 0.91918,0.2811 1.32396,0.55657 0.41039,0.26986 0.78144,0.60436 1.11314,1.00351 l -1.02038,1.29023 c 0,0 -0.30568,-0.38639 -0.44695,-0.56497 -0.11245,-0.1293 -0.26424,-0.25579 -0.45538,-0.37948 -0.18553,-0.12367 -0.3851,-0.21081 -0.59873,-0.26142 l 0,2.5383 c 0.45537,0.14618 0.85734,0.30921 1.2059,0.48911 0.34855,0.17991 0.63808,0.38792 0.86859,0.62403 0.23611,0.23613 0.4132,0.50317 0.53127,0.80113 0.11805,0.29234 0.17708,0.62684 0.17709,1.00351 -1e-5,0.35418 -0.0618,0.69431 -0.18552,1.02038 -0.12369,0.32045 -0.30359,0.61279 -0.53971,0.87702 -0.2305,0.26423 -0.5116,0.49192 -0.84329,0.68306 -0.3317,0.19115 -0.70836,0.32889 -1.13,0.41322 l 0,0.92761 -1.72875,0 0,-0.87702 c -0.52846,-0.09 -1.03724,-0.26704 -1.52635,-0.53127 -0.48911,-0.26423 -0.92481,-0.60717 -1.3071,-1.02881 l 1.05412,-1.48419 0.48914,0.60717 c 0.19115,0.20801 0.39353,0.3851 0.60717,0.53127 0.21925,0.14617 0.47505,0.25018 0.76739,0.31202 l 0,-3.08644 c -0.4104,-0.15179 -0.77864,-0.32045 -1.1047,-0.50597 -0.32046,-0.18552 -0.59312,-0.39072 -0.818,-0.6156 -0.21925,-0.2305 -0.38791,-0.48348 -0.50597,-0.75896 -0.11806,-0.28109 -0.17709,-0.58749 -0.17709,-0.91919 0,-0.31482 0.059,-0.61559 0.17709,-0.90232 0.11806,-0.28671 0.28672,-0.54532 0.50597,-0.77582 0.21926,-0.23049 0.48349,-0.42726 0.7927,-0.59031 0.31482,-0.16864 0.66338,-0.29233 1.04567,-0.37104 l 0,-1.00352 m 1.64442,9.42797 c 0.30358,-0.10681 0.54813,-0.2586 0.73366,-0.45537 0.19114,-0.19677 0.28671,-0.45819 0.28672,-0.78426 -1e-5,-0.26985 -0.0843,-0.50597 -0.25299,-0.70837 -0.16304,-0.20238 -0.41884,-0.36542 -0.76739,-0.4891 l 0,2.4371 m -1.56009,-6.8222 c -0.23612,0.0618 -0.42727,0.17147 -0.57343,0.32888 -0.14618,0.15742 -0.21926,0.35981 -0.21926,0.60717 0,0.17991 0.059,0.36543 0.17709,0.55657 0.11806,0.19115 0.32326,0.33732 0.6156,0.43851 l 0,-1.93113"
             style="font-weight:bold;fill:#000000;fill-opacity:1;font-family:Inconsolata;-inkscape-font-specification:Inconsolata Bold"
             id="path4061"
             inkscape:connector-curvature="0"
             sodipodi:nodetypes="ccccccccccccccccsccccscccccccccscccccccccccccsccc" />
        </g>
      </g>
      <g
         style="opacity:0.2;fill:#000000;fill-opacity:1;display:inline;enable-background:new"
         transform="matrix(1.9999999,0,0,1.9999999,-274.99997,345.36221)"
         id="g4063">
        <rect
           style="color:#bebebe;fill:#000000;fill-opacity:1;fill-rule:nonzero;stroke:none;stroke-width:2;marker:none;visibility:visible;display:inline;overflow:visible;enable-background:accumulate"
           id="rect4065"
           width="9"
           height="1.499998"
           x="306.5"
           y="240.5" />
        <g
           id="g4067"
           style="font-size:17.2705555px;font-style:normal;font-variant:normal;font-weight:normal;font-stretch:normal;text-align:center;line-height:125%;letter-spacing:0px;word-spacing:0px;text-anchor:middle;fill:#000000;fill-opacity:1;stroke:none;display:inline;enable-background:new;font-family:Roboto;-inkscape-font-specification:Roboto">
          <path
             sodipodi:nodetypes="ccccccccccccccccsccccscccccccccscccccccccccccsccc"
             inkscape:connector-curvature="0"
             id="path4069"
             style="font-weight:bold;fill:#000000;fill-opacity:1;font-family:Inconsolata;-inkscape-font-specification:Inconsolata Bold"
             d="m 299.96695,230.00007 1.58468,0 0,0.89673 c 0.43803,0.0876 0.84258,0.25768 1.21362,0.51019 0.37619,0.24737 0.71632,0.55399 1.02038,0.91988 l -0.93535,1.1827 c 0,0 -0.2802,-0.35419 -0.4097,-0.51788 -0.10308,-0.11853 -0.24222,-0.23448 -0.41743,-0.34786 -0.17007,-0.11336 -0.353,-0.19324 -0.54883,-0.23963 l 0,2.32676 c 0.41742,0.134 0.78589,0.28344 1.1054,0.44835 0.3195,0.16491 0.58491,0.35559 0.79621,0.57202 0.21643,0.21645 0.37876,0.46124 0.48699,0.73437 0.10821,0.26797 0.16232,0.5746 0.16233,0.91987 -1e-5,0.32467 -0.0567,0.63645 -0.17006,0.93535 -0.11338,0.29374 -0.27829,0.56172 -0.49473,0.80393 -0.21129,0.24221 -0.46896,0.45092 -0.77301,0.62613 -0.30406,0.17522 -0.64933,0.30148 -1.03583,0.37879 l 0,0.8503 -1.58468,0 0,-0.80393 c -0.48441,-0.0825 -0.95079,-0.24479 -1.39914,-0.487 -0.44835,-0.2422 -0.84774,-0.55656 -1.19817,-0.94307 l 0.96627,-1.3605 0.44838,0.55657 c 0.17522,0.19068 0.36073,0.35301 0.55657,0.487 0.20097,0.13399 0.43546,0.22933 0.70343,0.28602 l 0,-2.82922 c -0.37619,-0.13914 -0.71375,-0.29375 -1.01263,-0.46381 -0.29376,-0.17006 -0.54369,-0.35816 -0.74983,-0.56429 -0.20098,-0.2113 -0.35558,-0.44319 -0.46381,-0.69571 -0.10822,-0.25767 -0.16233,-0.53853 -0.16233,-0.84259 0,-0.28858 0.0541,-0.56429 0.16233,-0.82712 0.10823,-0.26282 0.26283,-0.49988 0.46381,-0.71117 0.20099,-0.21128 0.44319,-0.39165 0.72664,-0.54111 0.28858,-0.15459 0.60809,-0.26797 0.95852,-0.34012 l 0,-0.91989 m 1.50738,8.64226 c 0.27828,-0.0979 0.50245,-0.23705 0.67251,-0.41742 0.17522,-0.18037 0.26282,-0.42001 0.26283,-0.7189 -10e-6,-0.24736 -0.0773,-0.4638 -0.23191,-0.64934 -0.14945,-0.18551 -0.38393,-0.33496 -0.70343,-0.44834 l 0,2.234 m -1.43008,-6.25365 c -0.21644,0.0566 -0.39166,0.15718 -0.52564,0.30147 -0.134,0.1443 -0.20099,0.32983 -0.20099,0.55657 0,0.16492 0.0541,0.33498 0.16234,0.51019 0.10822,0.17522 0.29632,0.30921 0.56429,0.40196 l 0,-1.77019" />
        </g>
      </g>
      <g
         style="opacity:0.2;fill:#000000;fill-opacity:1;display:inline;enable-background:new"
         id="g4071"
         transform="translate(16.781615,764.36218)">
        <rect
           y="163"
           x="310"
           height="1.9999981"
           width="12"
           id="rect4073-0"
           style="color:#bebebe;fill:#000000;fill-opacity:1;fill-rule:nonzero;stroke:none;stroke-width:2;marker:none;visibility:visible;display:inline;overflow:visible;enable-background:accumulate" />
        <path
           sodipodi:nodetypes="ccccccccccccccccsccccscccccccccscccccccccccccsccc"
           inkscape:connector-curvature="0"
           id="path4075"
           style="font-size:17.2705555px;font-style:normal;font-variant:normal;font-weight:bold;font-stretch:normal;text-align:center;line-height:125%;letter-spacing:0px;word-spacing:0px;text-anchor:middle;fill:#000000;fill-opacity:1;stroke:none;display:inline;enable-background:new;font-family:Inconsolata;-inkscape-font-specification:Inconsolata Bold"
           d="m 301.97857,148.94195 2.16093,0 0,1.22282 c 0.59731,0.1195 1.14897,0.35137 1.65494,0.69571 0.51298,0.33732 0.97679,0.75544 1.39142,1.25438 l -1.27547,1.61277 c 0,0 -0.3821,-0.48298 -0.55869,-0.7062 -0.14056,-0.16163 -0.33029,-0.31974 -0.56922,-0.47435 -0.23191,-0.15459 -0.48137,-0.26351 -0.74841,-0.32677 l 0,3.17285 c 0.56921,0.18273 1.07167,0.38651 1.50737,0.61139 0.43569,0.22488 0.7976,0.48489 1.08573,0.78003 0.29514,0.29516 0.5165,0.62896 0.66409,1.00141 0.14756,0.36542 0.22134,0.78354 0.22136,1.25438 -2e-5,0.44272 -0.0772,0.86788 -0.2319,1.27546 -0.15461,0.40056 -0.37949,0.76599 -0.67464,1.09627 -0.28812,0.33029 -0.63949,0.6149 -1.0541,0.85382 -0.41462,0.23894 -0.88545,0.41111 -1.41249,0.51652 l 0,1.15951 -2.16093,0 0,-1.09627 c -0.66057,-0.1125 -1.29654,-0.3338 -1.90792,-0.66408 -0.61139,-0.33029 -1.15601,-0.75896 -1.63387,-1.28601 l 1.31764,-1.85522 0.61142,0.75895 c 0.23894,0.26002 0.49191,0.48138 0.75896,0.66409 0.27406,0.18271 0.59381,0.31272 0.95923,0.39002 l 0,-3.85803 c -0.51299,-0.18973 -0.97329,-0.40056 -1.38086,-0.63246 -0.40058,-0.23189 -0.7414,-0.48839 -1.0225,-0.76949 -0.27406,-0.28812 -0.48488,-0.60435 -0.63246,-0.9487 -0.14757,-0.35136 -0.22136,-0.73435 -0.22136,-1.14898 0,-0.39352 0.0738,-0.76948 0.22136,-1.12789 0.14758,-0.35839 0.3584,-0.68165 0.63246,-0.96977 0.27408,-0.28811 0.60436,-0.53407 0.99087,-0.73788 0.39352,-0.2108 0.82922,-0.36541 1.30708,-0.4638 l 0,-1.25439 m 2.05551,11.78489 c 0.37948,-0.13351 0.68516,-0.32325 0.91707,-0.56921 0.23893,-0.24596 0.35839,-0.57273 0.3584,-0.98032 -1e-5,-0.33731 -0.10537,-0.63246 -0.31623,-0.88545 -0.2038,-0.25298 -0.52355,-0.45678 -0.95924,-0.61138 l 0,3.04636 m -1.9501,-8.5277 c -0.29514,0.0773 -0.53408,0.21434 -0.71678,0.4111 -0.18272,0.19677 -0.27407,0.44976 -0.27407,0.75896 0,0.22488 0.0737,0.45678 0.22136,0.69571 0.14757,0.23893 0.40407,0.42164 0.76949,0.54813 l 0,-2.4139" />
      </g>
      <g
         style="opacity:0.2;fill:#000000;fill-opacity:1;display:inline;enable-background:new"
         transform="matrix(4,0,0,4,-1112.0002,237.36218)"
         id="g4077">
        <rect
           style="color:#bebebe;fill:#000000;fill-opacity:1;fill-rule:nonzero;stroke:none;stroke-width:2;marker:none;visibility:visible;display:inline;overflow:visible;enable-background:accumulate"
           id="rect4079"
           width="12"
           height="1.9999981"
           x="310"
           y="163" />
        <path
           d="m 301.97857,148.94195 2.16093,0 0,1.22282 c 0.59731,0.1195 1.14897,0.35137 1.65494,0.69571 0.51298,0.33732 0.97679,0.75544 1.39142,1.25438 l -1.27547,1.61277 c 0,0 -0.3821,-0.48298 -0.55869,-0.7062 -0.14056,-0.16163 -0.33029,-0.31974 -0.56922,-0.47435 -0.23191,-0.15459 -0.48137,-0.26351 -0.74841,-0.32677 l 0,3.17285 c 0.56921,0.18273 1.07167,0.38651 1.50737,0.61139 0.43569,0.22488 0.7976,0.48489 1.08573,0.78003 0.29514,0.29516 0.5165,0.62896 0.66409,1.00141 0.14756,0.36542 0.22134,0.78354 0.22136,1.25438 -2e-5,0.44272 -0.0772,0.86788 -0.2319,1.27546 -0.15461,0.40056 -0.37949,0.76599 -0.67464,1.09627 -0.28812,0.33029 -0.63949,0.6149 -1.0541,0.85382 -0.41462,0.23894 -0.88545,0.41111 -1.41249,0.51652 l 0,1.15951 -2.16093,0 0,-1.09627 c -0.66057,-0.1125 -1.29654,-0.3338 -1.90792,-0.66408 -0.61139,-0.33029 -1.15601,-0.75896 -1.63387,-1.28601 l 1.31764,-1.85522 0.61142,0.75895 c 0.23894,0.26002 0.49191,0.48138 0.75896,0.66409 0.27406,0.18271 0.59381,0.31272 0.95923,0.39002 l 0,-3.85803 c -0.51299,-0.18973 -0.97329,-0.40056 -1.38086,-0.63246 -0.40058,-0.23189 -0.7414,-0.48839 -1.0225,-0.76949 -0.27406,-0.28812 -0.48488,-0.60435 -0.63246,-0.9487 -0.14757,-0.35136 -0.22136,-0.73435 -0.22136,-1.14898 0,-0.39352 0.0738,-0.76948 0.22136,-1.12789 0.14758,-0.35839 0.3584,-0.68165 0.63246,-0.96977 0.27408,-0.28811 0.60436,-0.53407 0.99087,-0.73788 0.39352,-0.2108 0.82922,-0.36541 1.30708,-0.4638 l 0,-1.25439 m 2.05551,11.78489 c 0.37948,-0.13351 0.68516,-0.32325 0.91707,-0.56921 0.23893,-0.24596 0.35839,-0.57273 0.3584,-0.98032 -1e-5,-0.33731 -0.10537,-0.63246 -0.31623,-0.88545 -0.2038,-0.25298 -0.52355,-0.45678 -0.95924,-0.61138 l 0,3.04636 m -1.9501,-8.5277 c -0.29514,0.0773 -0.53408,0.21434 -0.71678,0.4111 -0.18272,0.19677 -0.27407,0.44976 -0.27407,0.75896 0,0.22488 0.0737,0.45678 0.22136,0.69571 0.14757,0.23893 0.40407,0.42164 0.76949,0.54813 l 0,-2.4139"
           style="font-size:17.2705555px;font-style:normal;font-variant:normal;font-weight:bold;font-stretch:normal;text-align:center;line-height:125%;letter-spacing:0px;word-spacing:0px;text-anchor:middle;fill:#000000;fill-opacity:1;stroke:none;display:inline;enable-background:new;font-family:Inconsolata;-inkscape-font-specification:Inconsolata Bold"
           id="path4081"
           inkscape:connector-curvature="0"
           sodipodi:nodetypes="ccccccccccccccccsccccscccccccccscccccccccccccsccc" />
      </g>
      <g
         transform="matrix(0.5,0,0,0.5,287.5,728.36218)"
         id="g4083"
         style="opacity:0.2;fill:#000000;fill-opacity:1;display:inline;enable-background:new">
        <rect
           style="color:#bebebe;fill:#000000;fill-opacity:1;fill-rule:nonzero;stroke:none;stroke-width:2;marker:none;visibility:visible;display:inline;overflow:visible;enable-background:accumulate"
           id="rect4085-8"
           width="8"
           height="2"
           x="307"
           y="240" />
        <g
           id="g4087"
           style="font-size:17.2705555px;font-style:normal;font-variant:normal;font-weight:normal;font-stretch:normal;text-align:center;line-height:125%;letter-spacing:0px;word-spacing:0px;text-anchor:middle;fill:#000000;fill-opacity:1;stroke:none;display:inline;enable-background:new;font-family:Roboto;-inkscape-font-specification:Roboto">
          <path
             sodipodi:nodetypes="ccccccccccccccccsccccscccccccccscccccccccccccsccc"
             inkscape:connector-curvature="0"
             id="path4089-8"
             style="font-weight:bold;fill:#000000;fill-opacity:1;font-family:Inconsolata;-inkscape-font-specification:Inconsolata Bold"
             d="m 300.20309,229 1.72875,0 0,0.97826 c 0.47785,0.0956 0.91918,0.2811 1.32396,0.55657 0.41039,0.26986 0.78144,0.60436 1.11314,1.00351 l -1.02038,1.29023 c 0,0 -0.30568,-0.38639 -0.44695,-0.56497 -0.11245,-0.1293 -0.26424,-0.25579 -0.45538,-0.37948 -0.18553,-0.12367 -0.3851,-0.21081 -0.59873,-0.26142 l 0,2.5383 c 0.45537,0.14618 0.85734,0.30921 1.2059,0.48911 0.34855,0.17991 0.63808,0.38792 0.86859,0.62403 0.23611,0.23613 0.4132,0.50317 0.53127,0.80113 0.11805,0.29234 0.17708,0.62684 0.17709,1.00351 -1e-5,0.35418 -0.0618,0.69431 -0.18552,1.02038 -0.12369,0.32045 -0.30359,0.61279 -0.53971,0.87702 -0.2305,0.26423 -0.5116,0.49192 -0.84329,0.68306 -0.3317,0.19115 -0.70836,0.32889 -1.13,0.41322 l 0,0.92761 -1.72875,0 0,-0.87702 c -0.52846,-0.09 -1.03724,-0.26704 -1.52635,-0.53127 -0.48911,-0.26423 -0.92481,-0.60717 -1.3071,-1.02881 l 1.05412,-1.48419 0.48914,0.60717 c 0.19115,0.20801 0.39353,0.3851 0.60717,0.53127 0.21925,0.14617 0.47505,0.25018 0.76739,0.31202 l 0,-3.08644 c -0.4104,-0.15179 -0.77864,-0.32045 -1.1047,-0.50597 -0.32046,-0.18552 -0.59312,-0.39072 -0.818,-0.6156 -0.21925,-0.2305 -0.38791,-0.48348 -0.50597,-0.75896 -0.11806,-0.28109 -0.17709,-0.58749 -0.17709,-0.91919 0,-0.31482 0.059,-0.61559 0.17709,-0.90232 0.11806,-0.28671 0.28672,-0.54532 0.50597,-0.77582 0.21926,-0.23049 0.48349,-0.42726 0.7927,-0.59031 0.31482,-0.16864 0.66338,-0.29233 1.04567,-0.37104 l 0,-1.00352 m 1.64442,9.42797 c 0.30358,-0.10681 0.54813,-0.2586 0.73366,-0.45537 0.19114,-0.19677 0.28671,-0.45819 0.28672,-0.78426 -1e-5,-0.26985 -0.0843,-0.50597 -0.25299,-0.70837 -0.16304,-0.20238 -0.41884,-0.36542 -0.76739,-0.4891 l 0,2.4371 m -1.56009,-6.8222 c -0.23612,0.0618 -0.42727,0.17147 -0.57343,0.32888 -0.14618,0.15742 -0.21926,0.35981 -0.21926,0.60717 0,0.17991 0.059,0.36543 0.17709,0.55657 0.11806,0.19115 0.32326,0.33732 0.6156,0.43851 l 0,-1.93113" />
        </g>
      </g>
      <g
         style="opacity:0.2;fill:#000000;fill-opacity:1;display:inline;enable-background:new"
         id="g4091"
         transform="matrix(0.5,0,0,0.5,290.5,682.36218)">
        <rect
           y="242"
           x="307"
           height="2"
           width="12"
           id="rect4093"
           style="color:#bebebe;fill:#000000;fill-opacity:1;fill-rule:nonzero;stroke:none;stroke-width:2;marker:none;visibility:visible;display:inline;overflow:visible;enable-background:accumulate" />
        <g
           style="font-size:17.2705555px;font-style:normal;font-variant:normal;font-weight:normal;font-stretch:normal;text-align:center;line-height:125%;letter-spacing:0px;word-spacing:0px;text-anchor:middle;fill:#000000;fill-opacity:1;stroke:none;display:inline;enable-background:new;font-family:Roboto;-inkscape-font-specification:Roboto"
           id="g4095">
          <path
             d="m 299.08429,227.17685 2.01687,0 0,1.1413 c 0.55749,0.11153 1.07237,0.32794 1.54461,0.64933 0.47878,0.31483 0.91167,0.70508 1.29865,1.17075 l -1.19043,1.50526 c 0,0 -0.35663,-0.45079 -0.52144,-0.65913 -0.13119,-0.15085 -0.30828,-0.29842 -0.53127,-0.44272 -0.21645,-0.14428 -0.44929,-0.24595 -0.69852,-0.30499 l 0,2.96133 c 0.53126,0.17054 1.00022,0.36074 1.40688,0.57063 0.40664,0.20989 0.74442,0.45257 1.01335,0.72803 0.27546,0.27548 0.48206,0.58703 0.61981,0.93464 0.13772,0.34107 0.20659,0.73131 0.2066,1.17076 -10e-6,0.41321 -0.0721,0.81002 -0.21644,1.19043 -0.1443,0.37386 -0.35418,0.71492 -0.62966,1.02319 -0.26891,0.30827 -0.59686,0.5739 -0.98383,0.7969 -0.38698,0.223 -0.82641,0.3837 -1.31832,0.48208 l 0,1.08221 -2.01687,0 0,-1.02318 c -0.61653,-0.105 -1.2101,-0.31155 -1.78073,-0.61982 -0.57062,-0.30826 -1.07894,-0.70836 -1.52494,-1.20027 l 1.2298,-1.73154 0.57066,0.70836 c 0.22301,0.24268 0.45911,0.44928 0.70836,0.61981 0.25579,0.17053 0.55422,0.29188 0.89528,0.36402 l 0,-3.60082 c -0.47879,-0.17709 -0.9084,-0.37386 -1.28881,-0.5903 -0.37386,-0.21644 -0.69197,-0.45584 -0.95432,-0.71819 -0.25579,-0.26892 -0.45256,-0.56406 -0.5903,-0.88545 -0.13773,-0.32794 -0.2066,-0.6854 -0.2066,-1.07239 0,-0.36728 0.0688,-0.71818 0.2066,-1.0527 0.13774,-0.33449 0.33451,-0.6362 0.5903,-0.90511 0.2558,-0.26891 0.56407,-0.49847 0.92481,-0.68869 0.36729,-0.19675 0.77394,-0.34105 1.21994,-0.43288 l 0,-1.17077 m 1.91848,10.99924 c 0.35417,-0.12462 0.63948,-0.3017 0.85593,-0.53127 0.22299,-0.22956 0.33449,-0.53455 0.3345,-0.91496 -10e-6,-0.31482 -0.0984,-0.5903 -0.29515,-0.82643 -0.19021,-0.23611 -0.48864,-0.42632 -0.89528,-0.57061 l 0,2.84327 m -1.8201,-7.95919 c -0.27547,0.0721 -0.49848,0.20005 -0.66899,0.38369 -0.17055,0.18366 -0.25581,0.41978 -0.25581,0.70836 0,0.20989 0.0688,0.42633 0.20661,0.64933 0.13773,0.22301 0.37713,0.39354 0.71819,0.51159 l 0,-2.25297"
             style="font-weight:bold;fill:#000000;fill-opacity:1;font-family:Inconsolata;-inkscape-font-specification:Inconsolata Bold"
             id="path4097-7"
             inkscape:connector-curvature="0"
             sodipodi:nodetypes="ccccccccccccccccsccccscccccccccscccccccccccccsccc" />
        </g>
      </g>
      <g
         transform="matrix(0.5,0,0,0.5,285.5,765.52522)"
         id="g4099"
         style="opacity:0.2;fill:#000000;fill-opacity:1;display:inline;enable-background:new">
        <rect
           style="color:#bebebe;fill:#000000;fill-opacity:1;fill-rule:nonzero;stroke:none;stroke-width:2;marker:none;visibility:visible;display:inline;overflow:visible;enable-background:accumulate"
           id="rect4101"
           width="6"
           height="2"
           x="305"
           y="238" />
        <g
           id="g4103"
           style="font-size:17.2705555px;font-style:normal;font-variant:normal;font-weight:normal;font-stretch:normal;text-align:center;line-height:125%;letter-spacing:0px;word-spacing:0px;text-anchor:middle;fill:#000000;fill-opacity:1;stroke:none;display:inline;enable-background:new;font-family:Roboto;-inkscape-font-specification:Roboto">
          <path
             sodipodi:nodetypes="ccccccccccccccccsccccscccccccccscccccccccccccsccc"
             inkscape:connector-curvature="0"
             id="path4105-4"
             style="font-weight:bold;fill:#000000;fill-opacity:1;font-family:Inconsolata;-inkscape-font-specification:Inconsolata Bold"
             d="m 299.8475,231.34783 1.1525,0 0,0.65217 c 0.31856,0.0637 0.61278,0.1874 0.88263,0.37104 0.27359,0.17991 0.52096,0.40291 0.74209,0.66901 l -0.68025,0.86015 c 0,0 -0.20379,-0.2576 -0.29796,-0.37665 -0.075,-0.0862 -0.17616,-0.17053 -0.30359,-0.25298 -0.12369,-0.0824 -0.25673,-0.14054 -0.39915,-0.17428 l 0,1.69219 c 0.30358,0.0975 0.57156,0.20614 0.80393,0.32607 0.23236,0.11994 0.42538,0.25861 0.57905,0.41602 0.15741,0.15741 0.27547,0.33544 0.35418,0.53408 0.0787,0.19489 0.11806,0.41789 0.11806,0.669 0,0.23612 -0.0412,0.46287 -0.12368,0.68025 -0.0825,0.21363 -0.20239,0.40853 -0.3598,0.58468 -0.15367,0.17615 -0.34107,0.32794 -0.56219,0.45537 -0.22113,0.12743 -0.47224,0.21926 -0.75333,0.27548 l 0,0.6184 -1.15249,0 0,-0.58468 c -0.35231,-0.06 -0.69149,-0.17802 -1.01757,-0.35417 -0.32607,-0.17616 -0.61653,-0.40478 -0.87139,-0.68587 l 0.70274,-0.98946 0.32609,0.40478 c 0.12744,0.13867 0.26236,0.25673 0.40478,0.35418 0.14617,0.0974 0.3167,0.16678 0.51159,0.20801 l 0,-2.05762 c -0.2736,-0.10119 -0.51909,-0.21363 -0.73646,-0.33731 -0.21364,-0.12368 -0.39541,-0.26047 -0.54533,-0.41039 -0.14617,-0.15367 -0.25861,-0.32232 -0.33731,-0.50597 -0.0787,-0.1874 -0.11806,-0.39166 -0.11806,-0.61279 0,-0.20988 0.0393,-0.4104 0.11806,-0.60155 0.0787,-0.19114 0.19114,-0.36354 0.33731,-0.51721 0.14617,-0.15366 0.32232,-0.28484 0.52846,-0.39354 0.20988,-0.11242 0.44225,-0.19488 0.69711,-0.24735 l 0,-0.66901 m 1.09628,6.28527 c 0.20238,-0.0712 0.36541,-0.1724 0.4891,-0.30357 0.12743,-0.13118 0.19114,-0.30546 0.19115,-0.52284 -1e-5,-0.1799 -0.0562,-0.33731 -0.16866,-0.47225 -0.1087,-0.13491 -0.27923,-0.24361 -0.51159,-0.32606 l 0,1.62472 m -1.04006,-4.5481 c -0.15741,0.0412 -0.28484,0.11431 -0.38228,0.21925 -0.0975,0.10494 -0.14617,0.23987 -0.14617,0.40478 0,0.11994 0.0393,0.24361 0.11805,0.37104 0.0787,0.12743 0.21551,0.22488 0.4104,0.29234 l 0,-1.28741" />
        </g>
      </g>
      <g
         id="g3932"
         style="fill:#ebebeb;fill-opacity:1;display:inline;enable-background:new"
         transform="translate(16,761.36218)">
        <rect
           style="color:#bebebe;fill:#ebebeb;fill-opacity:1;fill-rule:nonzero;stroke:none;stroke-width:2;marker:none;visibility:visible;display:inline;overflow:visible;enable-background:accumulate"
           id="rect4100"
           width="9"
           height="2.0000007"
           x="307"
           y="240" />
        <g
           id="text3894"
           style="font-size:17.2705555px;font-style:normal;font-variant:normal;font-weight:normal;font-stretch:normal;text-align:center;line-height:125%;letter-spacing:0px;word-spacing:0px;text-anchor:middle;fill:#ebebeb;fill-opacity:1;stroke:none;display:inline;enable-background:new;font-family:Roboto;-inkscape-font-specification:Roboto">
          <path
             sodipodi:nodetypes="ccccccccccccccccsccccscccccccccscccccccccccccsccc"
             inkscape:connector-curvature="0"
             id="path3930"
             style="font-weight:bold;fill:#ebebeb;fill-opacity:1;font-family:Inconsolata;-inkscape-font-specification:Inconsolata Bold"
             d="m 300.20309,229 1.72875,0 0,0.97826 c 0.47785,0.0956 0.91918,0.2811 1.32396,0.55657 0.41039,0.26986 0.78144,0.60436 1.11314,1.00351 l -1.02038,1.29023 c 0,0 -0.30568,-0.38639 -0.44695,-0.56497 -0.11245,-0.1293 -0.26424,-0.25579 -0.45538,-0.37948 -0.18553,-0.12367 -0.3851,-0.21081 -0.59873,-0.26142 l 0,2.5383 c 0.45537,0.14618 0.85734,0.30921 1.2059,0.48911 0.34855,0.17991 0.63808,0.38792 0.86859,0.62403 0.23611,0.23613 0.4132,0.50317 0.53127,0.80113 0.11805,0.29234 0.17708,0.62684 0.17709,1.00351 -1e-5,0.35418 -0.0618,0.69431 -0.18552,1.02038 -0.12369,0.32045 -0.30359,0.61279 -0.53971,0.87702 -0.2305,0.26423 -0.5116,0.49192 -0.84329,0.68306 -0.3317,0.19115 -0.70836,0.32889 -1.13,0.41322 l 0,0.92761 -1.72875,0 0,-0.87702 c -0.52846,-0.09 -1.03724,-0.26704 -1.52635,-0.53127 -0.48911,-0.26423 -0.92481,-0.60717 -1.3071,-1.02881 l 1.05412,-1.48419 0.48914,0.60717 c 0.19115,0.20801 0.39353,0.3851 0.60717,0.53127 0.21925,0.14617 0.47505,0.25018 0.76739,0.31202 l 0,-3.08644 c -0.4104,-0.15179 -0.77864,-0.32045 -1.1047,-0.50597 -0.32046,-0.18552 -0.59312,-0.39072 -0.818,-0.6156 -0.21925,-0.2305 -0.38791,-0.48348 -0.50597,-0.75896 -0.11806,-0.28109 -0.17709,-0.58749 -0.17709,-0.91919 0,-0.31482 0.059,-0.61559 0.17709,-0.90232 0.11806,-0.28671 0.28672,-0.54532 0.50597,-0.77582 0.21926,-0.23049 0.48349,-0.42726 0.7927,-0.59031 0.31482,-0.16864 0.66338,-0.29233 1.04567,-0.37104 l 0,-1.00352 m 1.64442,9.42797 c 0.30358,-0.10681 0.54813,-0.2586 0.73366,-0.45537 0.19114,-0.19677 0.28671,-0.45819 0.28672,-0.78426 -1e-5,-0.26985 -0.0843,-0.50597 -0.25299,-0.70837 -0.16304,-0.20238 -0.41884,-0.36542 -0.76739,-0.4891 l 0,2.4371 m -1.56009,-6.8222 c -0.23612,0.0618 -0.42727,0.17147 -0.57343,0.32888 -0.14618,0.15742 -0.21926,0.35981 -0.21926,0.60717 0,0.17991 0.059,0.36543 0.17709,0.55657 0.11806,0.19115 0.32326,0.33732 0.6156,0.43851 l 0,-1.93113" />
        </g>
      </g>
      <g
         id="g3937"
         transform="matrix(1.9999999,0,0,1.9999999,-274.99997,344.36221)"
         style="fill:#ebebeb;fill-opacity:1;display:inline;enable-background:new">
        <rect
           y="240.5"
           x="306.5"
           height="1.499998"
           width="9"
           id="rect3939"
           style="color:#bebebe;fill:#ebebeb;fill-opacity:1;fill-rule:nonzero;stroke:none;stroke-width:2;marker:none;visibility:visible;display:inline;overflow:visible;enable-background:accumulate" />
        <g
           style="font-size:17.2705555px;font-style:normal;font-variant:normal;font-weight:normal;font-stretch:normal;text-align:center;line-height:125%;letter-spacing:0px;word-spacing:0px;text-anchor:middle;fill:#ebebeb;fill-opacity:1;stroke:none;display:inline;enable-background:new;font-family:Roboto;-inkscape-font-specification:Roboto"
           id="g3941">
          <path
             d="m 299.96695,230.00007 1.58468,0 0,0.89673 c 0.43803,0.0876 0.84258,0.25768 1.21362,0.51019 0.37619,0.24737 0.71632,0.55399 1.02038,0.91988 l -0.93535,1.1827 c 0,0 -0.2802,-0.35419 -0.4097,-0.51788 -0.10308,-0.11853 -0.24222,-0.23448 -0.41743,-0.34786 -0.17007,-0.11336 -0.353,-0.19324 -0.54883,-0.23963 l 0,2.32676 c 0.41742,0.134 0.78589,0.28344 1.1054,0.44835 0.3195,0.16491 0.58491,0.35559 0.79621,0.57202 0.21643,0.21645 0.37876,0.46124 0.48699,0.73437 0.10821,0.26797 0.16232,0.5746 0.16233,0.91987 -1e-5,0.32467 -0.0567,0.63645 -0.17006,0.93535 -0.11338,0.29374 -0.27829,0.56172 -0.49473,0.80393 -0.21129,0.24221 -0.46896,0.45092 -0.77301,0.62613 -0.30406,0.17522 -0.64933,0.30148 -1.03583,0.37879 l 0,0.8503 -1.58468,0 0,-0.80393 c -0.48441,-0.0825 -0.95079,-0.24479 -1.39914,-0.487 -0.44835,-0.2422 -0.84774,-0.55656 -1.19817,-0.94307 l 0.96627,-1.3605 0.44838,0.55657 c 0.17522,0.19068 0.36073,0.35301 0.55657,0.487 0.20097,0.13399 0.43546,0.22933 0.70343,0.28602 l 0,-2.82922 c -0.37619,-0.13914 -0.71375,-0.29375 -1.01263,-0.46381 -0.29376,-0.17006 -0.54369,-0.35816 -0.74983,-0.56429 -0.20098,-0.2113 -0.35558,-0.44319 -0.46381,-0.69571 -0.10822,-0.25767 -0.16233,-0.53853 -0.16233,-0.84259 0,-0.28858 0.0541,-0.56429 0.16233,-0.82712 0.10823,-0.26282 0.26283,-0.49988 0.46381,-0.71117 0.20099,-0.21128 0.44319,-0.39165 0.72664,-0.54111 0.28858,-0.15459 0.60809,-0.26797 0.95852,-0.34012 l 0,-0.91989 m 1.50738,8.64226 c 0.27828,-0.0979 0.50245,-0.23705 0.67251,-0.41742 0.17522,-0.18037 0.26282,-0.42001 0.26283,-0.7189 -10e-6,-0.24736 -0.0773,-0.4638 -0.23191,-0.64934 -0.14945,-0.18551 -0.38393,-0.33496 -0.70343,-0.44834 l 0,2.234 m -1.43008,-6.25365 c -0.21644,0.0566 -0.39166,0.15718 -0.52564,0.30147 -0.134,0.1443 -0.20099,0.32983 -0.20099,0.55657 0,0.16492 0.0541,0.33498 0.16234,0.51019 0.10822,0.17522 0.29632,0.30921 0.56429,0.40196 l 0,-1.77019"
             style="font-weight:bold;fill:#ebebeb;fill-opacity:1;font-family:Inconsolata;-inkscape-font-specification:Inconsolata Bold"
             id="path3943"
             inkscape:connector-curvature="0"
             sodipodi:nodetypes="ccccccccccccccccsccccscccccccccscccccccccccccsccc" />
        </g>
      </g>
      <g
         transform="translate(16.781615,763.36218)"
         id="g3971"
         style="fill:#ebebeb;fill-opacity:1;display:inline;enable-background:new">
        <rect
           style="color:#bebebe;fill:#ebebeb;fill-opacity:1;fill-rule:nonzero;stroke:none;stroke-width:2;marker:none;visibility:visible;display:inline;overflow:visible;enable-background:accumulate"
           id="rect4066"
           width="12"
           height="1.9999981"
           x="310"
           y="163" />
        <path
           d="m 301.97857,148.94195 2.16093,0 0,1.22282 c 0.59731,0.1195 1.14897,0.35137 1.65494,0.69571 0.51298,0.33732 0.97679,0.75544 1.39142,1.25438 l -1.27547,1.61277 c 0,0 -0.3821,-0.48298 -0.55869,-0.7062 -0.14056,-0.16163 -0.33029,-0.31974 -0.56922,-0.47435 -0.23191,-0.15459 -0.48137,-0.26351 -0.74841,-0.32677 l 0,3.17285 c 0.56921,0.18273 1.07167,0.38651 1.50737,0.61139 0.43569,0.22488 0.7976,0.48489 1.08573,0.78003 0.29514,0.29516 0.5165,0.62896 0.66409,1.00141 0.14756,0.36542 0.22134,0.78354 0.22136,1.25438 -2e-5,0.44272 -0.0772,0.86788 -0.2319,1.27546 -0.15461,0.40056 -0.37949,0.76599 -0.67464,1.09627 -0.28812,0.33029 -0.63949,0.6149 -1.0541,0.85382 -0.41462,0.23894 -0.88545,0.41111 -1.41249,0.51652 l 0,1.15951 -2.16093,0 0,-1.09627 c -0.66057,-0.1125 -1.29654,-0.3338 -1.90792,-0.66408 -0.61139,-0.33029 -1.15601,-0.75896 -1.63387,-1.28601 l 1.31764,-1.85522 0.61142,0.75895 c 0.23894,0.26002 0.49191,0.48138 0.75896,0.66409 0.27406,0.18271 0.59381,0.31272 0.95923,0.39002 l 0,-3.85803 c -0.51299,-0.18973 -0.97329,-0.40056 -1.38086,-0.63246 -0.40058,-0.23189 -0.7414,-0.48839 -1.0225,-0.76949 -0.27406,-0.28812 -0.48488,-0.60435 -0.63246,-0.9487 -0.14757,-0.35136 -0.22136,-0.73435 -0.22136,-1.14898 0,-0.39352 0.0738,-0.76948 0.22136,-1.12789 0.14758,-0.35839 0.3584,-0.68165 0.63246,-0.96977 0.27408,-0.28811 0.60436,-0.53407 0.99087,-0.73788 0.39352,-0.2108 0.82922,-0.36541 1.30708,-0.4638 l 0,-1.25439 m 2.05551,11.78489 c 0.37948,-0.13351 0.68516,-0.32325 0.91707,-0.56921 0.23893,-0.24596 0.35839,-0.57273 0.3584,-0.98032 -1e-5,-0.33731 -0.10537,-0.63246 -0.31623,-0.88545 -0.2038,-0.25298 -0.52355,-0.45678 -0.95924,-0.61138 l 0,3.04636 m -1.9501,-8.5277 c -0.29514,0.0773 -0.53408,0.21434 -0.71678,0.4111 -0.18272,0.19677 -0.27407,0.44976 -0.27407,0.75896 0,0.22488 0.0737,0.45678 0.22136,0.69571 0.14757,0.23893 0.40407,0.42164 0.76949,0.54813 l 0,-2.4139"
           style="font-size:17.2705555px;font-style:normal;font-variant:normal;font-weight:bold;font-stretch:normal;text-align:center;line-height:125%;letter-spacing:0px;word-spacing:0px;text-anchor:middle;fill:#ebebeb;fill-opacity:1;stroke:none;display:inline;enable-background:new;font-family:Inconsolata;-inkscape-font-specification:Inconsolata Bold"
           id="path3930-2"
           inkscape:connector-curvature="0"
           sodipodi:nodetypes="ccccccccccccccccsccccscccccccccscccccccccccccsccc" />
      </g>
      <g
         id="g3975"
         transform="matrix(4,0,0,4,-1112.0002,236.36218)"
         style="fill:#ebebeb;fill-opacity:1;display:inline;enable-background:new">
        <rect
           y="163"
           x="310"
           height="1.9999981"
           width="12"
           id="rect3977"
           style="color:#bebebe;fill:#ebebeb;fill-opacity:1;fill-rule:nonzero;stroke:none;stroke-width:2;marker:none;visibility:visible;display:inline;overflow:visible;enable-background:accumulate" />
        <path
           sodipodi:nodetypes="ccccccccccccccccsccccscccccccccscccccccccccccsccc"
           inkscape:connector-curvature="0"
           id="path3979"
           style="font-size:17.2705555px;font-style:normal;font-variant:normal;font-weight:bold;font-stretch:normal;text-align:center;line-height:125%;letter-spacing:0px;word-spacing:0px;text-anchor:middle;fill:#ebebeb;fill-opacity:1;stroke:none;display:inline;enable-background:new;font-family:Inconsolata;-inkscape-font-specification:Inconsolata Bold"
           d="m 301.97857,148.94195 2.16093,0 0,1.22282 c 0.59731,0.1195 1.14897,0.35137 1.65494,0.69571 0.51298,0.33732 0.97679,0.75544 1.39142,1.25438 l -1.27547,1.61277 c 0,0 -0.3821,-0.48298 -0.55869,-0.7062 -0.14056,-0.16163 -0.33029,-0.31974 -0.56922,-0.47435 -0.23191,-0.15459 -0.48137,-0.26351 -0.74841,-0.32677 l 0,3.17285 c 0.56921,0.18273 1.07167,0.38651 1.50737,0.61139 0.43569,0.22488 0.7976,0.48489 1.08573,0.78003 0.29514,0.29516 0.5165,0.62896 0.66409,1.00141 0.14756,0.36542 0.22134,0.78354 0.22136,1.25438 -2e-5,0.44272 -0.0772,0.86788 -0.2319,1.27546 -0.15461,0.40056 -0.37949,0.76599 -0.67464,1.09627 -0.28812,0.33029 -0.63949,0.6149 -1.0541,0.85382 -0.41462,0.23894 -0.88545,0.41111 -1.41249,0.51652 l 0,1.15951 -2.16093,0 0,-1.09627 c -0.66057,-0.1125 -1.29654,-0.3338 -1.90792,-0.66408 -0.61139,-0.33029 -1.15601,-0.75896 -1.63387,-1.28601 l 1.31764,-1.85522 0.61142,0.75895 c 0.23894,0.26002 0.49191,0.48138 0.75896,0.66409 0.27406,0.18271 0.59381,0.31272 0.95923,0.39002 l 0,-3.85803 c -0.51299,-0.18973 -0.97329,-0.40056 -1.38086,-0.63246 -0.40058,-0.23189 -0.7414,-0.48839 -1.0225,-0.76949 -0.27406,-0.28812 -0.48488,-0.60435 -0.63246,-0.9487 -0.14757,-0.35136 -0.22136,-0.73435 -0.22136,-1.14898 0,-0.39352 0.0738,-0.76948 0.22136,-1.12789 0.14758,-0.35839 0.3584,-0.68165 0.63246,-0.96977 0.27408,-0.28811 0.60436,-0.53407 0.99087,-0.73788 0.39352,-0.2108 0.82922,-0.36541 1.30708,-0.4638 l 0,-1.25439 m 2.05551,11.78489 c 0.37948,-0.13351 0.68516,-0.32325 0.91707,-0.56921 0.23893,-0.24596 0.35839,-0.57273 0.3584,-0.98032 -1e-5,-0.33731 -0.10537,-0.63246 -0.31623,-0.88545 -0.2038,-0.25298 -0.52355,-0.45678 -0.95924,-0.61138 l 0,3.04636 m -1.9501,-8.5277 c -0.29514,0.0773 -0.53408,0.21434 -0.71678,0.4111 -0.18272,0.19677 -0.27407,0.44976 -0.27407,0.75896 0,0.22488 0.0737,0.45678 0.22136,0.69571 0.14757,0.23893 0.40407,0.42164 0.76949,0.54813 l 0,-2.4139" />
      </g>
      <g
         style="fill:#ebebeb;fill-opacity:1;display:inline;enable-background:new"
         id="g3995"
         transform="matrix(0.5,0,0,0.5,287.5,727.36218)">
        <rect
           y="240"
           x="307"
           height="2"
           width="8"
           id="rect3997"
           style="color:#bebebe;fill:#ebebeb;fill-opacity:1;fill-rule:nonzero;stroke:none;stroke-width:2;marker:none;visibility:visible;display:inline;overflow:visible;enable-background:accumulate" />
        <g
           style="font-size:17.2705555px;font-style:normal;font-variant:normal;font-weight:normal;font-stretch:normal;text-align:center;line-height:125%;letter-spacing:0px;word-spacing:0px;text-anchor:middle;fill:#ebebeb;fill-opacity:1;stroke:none;display:inline;enable-background:new;font-family:Roboto;-inkscape-font-specification:Roboto"
           id="g3999">
          <path
             d="m 300.20309,229 1.72875,0 0,0.97826 c 0.47785,0.0956 0.91918,0.2811 1.32396,0.55657 0.41039,0.26986 0.78144,0.60436 1.11314,1.00351 l -1.02038,1.29023 c 0,0 -0.30568,-0.38639 -0.44695,-0.56497 -0.11245,-0.1293 -0.26424,-0.25579 -0.45538,-0.37948 -0.18553,-0.12367 -0.3851,-0.21081 -0.59873,-0.26142 l 0,2.5383 c 0.45537,0.14618 0.85734,0.30921 1.2059,0.48911 0.34855,0.17991 0.63808,0.38792 0.86859,0.62403 0.23611,0.23613 0.4132,0.50317 0.53127,0.80113 0.11805,0.29234 0.17708,0.62684 0.17709,1.00351 -1e-5,0.35418 -0.0618,0.69431 -0.18552,1.02038 -0.12369,0.32045 -0.30359,0.61279 -0.53971,0.87702 -0.2305,0.26423 -0.5116,0.49192 -0.84329,0.68306 -0.3317,0.19115 -0.70836,0.32889 -1.13,0.41322 l 0,0.92761 -1.72875,0 0,-0.87702 c -0.52846,-0.09 -1.03724,-0.26704 -1.52635,-0.53127 -0.48911,-0.26423 -0.92481,-0.60717 -1.3071,-1.02881 l 1.05412,-1.48419 0.48914,0.60717 c 0.19115,0.20801 0.39353,0.3851 0.60717,0.53127 0.21925,0.14617 0.47505,0.25018 0.76739,0.31202 l 0,-3.08644 c -0.4104,-0.15179 -0.77864,-0.32045 -1.1047,-0.50597 -0.32046,-0.18552 -0.59312,-0.39072 -0.818,-0.6156 -0.21925,-0.2305 -0.38791,-0.48348 -0.50597,-0.75896 -0.11806,-0.28109 -0.17709,-0.58749 -0.17709,-0.91919 0,-0.31482 0.059,-0.61559 0.17709,-0.90232 0.11806,-0.28671 0.28672,-0.54532 0.50597,-0.77582 0.21926,-0.23049 0.48349,-0.42726 0.7927,-0.59031 0.31482,-0.16864 0.66338,-0.29233 1.04567,-0.37104 l 0,-1.00352 m 1.64442,9.42797 c 0.30358,-0.10681 0.54813,-0.2586 0.73366,-0.45537 0.19114,-0.19677 0.28671,-0.45819 0.28672,-0.78426 -1e-5,-0.26985 -0.0843,-0.50597 -0.25299,-0.70837 -0.16304,-0.20238 -0.41884,-0.36542 -0.76739,-0.4891 l 0,2.4371 m -1.56009,-6.8222 c -0.23612,0.0618 -0.42727,0.17147 -0.57343,0.32888 -0.14618,0.15742 -0.21926,0.35981 -0.21926,0.60717 0,0.17991 0.059,0.36543 0.17709,0.55657 0.11806,0.19115 0.32326,0.33732 0.6156,0.43851 l 0,-1.93113"
             style="font-weight:bold;fill:#ebebeb;fill-opacity:1;font-family:Inconsolata;-inkscape-font-specification:Inconsolata Bold"
             id="path4001"
             inkscape:connector-curvature="0"
             sodipodi:nodetypes="ccccccccccccccccsccccscccccccccscccccccccccccsccc" />
        </g>
      </g>
      <g
         transform="matrix(0.5,0,0,0.5,290.5,681.36218)"
         id="g4030"
         style="fill:#ebebeb;fill-opacity:1;display:inline;enable-background:new">
        <rect
           style="color:#bebebe;fill:#ebebeb;fill-opacity:1;fill-rule:nonzero;stroke:none;stroke-width:2;marker:none;visibility:visible;display:inline;overflow:visible;enable-background:accumulate"
           id="rect4032"
           width="12"
           height="2"
           x="307"
           y="242" />
        <g
           id="g4034"
           style="font-size:17.2705555px;font-style:normal;font-variant:normal;font-weight:normal;font-stretch:normal;text-align:center;line-height:125%;letter-spacing:0px;word-spacing:0px;text-anchor:middle;fill:#ebebeb;fill-opacity:1;stroke:none;display:inline;enable-background:new;font-family:Roboto;-inkscape-font-specification:Roboto">
          <path
             sodipodi:nodetypes="ccccccccccccccccsccccscccccccccscccccccccccccsccc"
             inkscape:connector-curvature="0"
             id="path4036"
             style="font-weight:bold;fill:#ebebeb;fill-opacity:1;font-family:Inconsolata;-inkscape-font-specification:Inconsolata Bold"
             d="m 299.08429,227.17685 2.01687,0 0,1.1413 c 0.55749,0.11153 1.07237,0.32794 1.54461,0.64933 0.47878,0.31483 0.91167,0.70508 1.29865,1.17075 l -1.19043,1.50526 c 0,0 -0.35663,-0.45079 -0.52144,-0.65913 -0.13119,-0.15085 -0.30828,-0.29842 -0.53127,-0.44272 -0.21645,-0.14428 -0.44929,-0.24595 -0.69852,-0.30499 l 0,2.96133 c 0.53126,0.17054 1.00022,0.36074 1.40688,0.57063 0.40664,0.20989 0.74442,0.45257 1.01335,0.72803 0.27546,0.27548 0.48206,0.58703 0.61981,0.93464 0.13772,0.34107 0.20659,0.73131 0.2066,1.17076 -10e-6,0.41321 -0.0721,0.81002 -0.21644,1.19043 -0.1443,0.37386 -0.35418,0.71492 -0.62966,1.02319 -0.26891,0.30827 -0.59686,0.5739 -0.98383,0.7969 -0.38698,0.223 -0.82641,0.3837 -1.31832,0.48208 l 0,1.08221 -2.01687,0 0,-1.02318 c -0.61653,-0.105 -1.2101,-0.31155 -1.78073,-0.61982 -0.57062,-0.30826 -1.07894,-0.70836 -1.52494,-1.20027 l 1.2298,-1.73154 0.57066,0.70836 c 0.22301,0.24268 0.45911,0.44928 0.70836,0.61981 0.25579,0.17053 0.55422,0.29188 0.89528,0.36402 l 0,-3.60082 c -0.47879,-0.17709 -0.9084,-0.37386 -1.28881,-0.5903 -0.37386,-0.21644 -0.69197,-0.45584 -0.95432,-0.71819 -0.25579,-0.26892 -0.45256,-0.56406 -0.5903,-0.88545 -0.13773,-0.32794 -0.2066,-0.6854 -0.2066,-1.07239 0,-0.36728 0.0688,-0.71818 0.2066,-1.0527 0.13774,-0.33449 0.33451,-0.6362 0.5903,-0.90511 0.2558,-0.26891 0.56407,-0.49847 0.92481,-0.68869 0.36729,-0.19675 0.77394,-0.34105 1.21994,-0.43288 l 0,-1.17077 m 1.91848,10.99924 c 0.35417,-0.12462 0.63948,-0.3017 0.85593,-0.53127 0.22299,-0.22956 0.33449,-0.53455 0.3345,-0.91496 -10e-6,-0.31482 -0.0984,-0.5903 -0.29515,-0.82643 -0.19021,-0.23611 -0.48864,-0.42632 -0.89528,-0.57061 l 0,2.84327 m -1.8201,-7.95919 c -0.27547,0.0721 -0.49848,0.20005 -0.66899,0.38369 -0.17055,0.18366 -0.25581,0.41978 -0.25581,0.70836 0,0.20989 0.0688,0.42633 0.20661,0.64933 0.13773,0.22301 0.37713,0.39354 0.71819,0.51159 l 0,-2.25297" />
        </g>
      </g>
      <g
         style="fill:#ebebeb;fill-opacity:1;display:inline;enable-background:new"
         id="g4047"
         transform="matrix(0.5,0,0,0.5,285.5,764.52522)">
        <rect
           y="238"
           x="305"
           height="2"
           width="6"
           id="rect4049"
           style="color:#bebebe;fill:#ebebeb;fill-opacity:1;fill-rule:nonzero;stroke:none;stroke-width:2;marker:none;visibility:visible;display:inline;overflow:visible;enable-background:accumulate" />
        <g
           style="font-size:17.2705555px;font-style:normal;font-variant:normal;font-weight:normal;font-stretch:normal;text-align:center;line-height:125%;letter-spacing:0px;word-spacing:0px;text-anchor:middle;fill:#ebebeb;fill-opacity:1;stroke:none;display:inline;enable-background:new;font-family:Roboto;-inkscape-font-specification:Roboto"
           id="g4051">
          <path
             d="m 299.8475,231.34783 1.1525,0 0,0.65217 c 0.31856,0.0637 0.61278,0.1874 0.88263,0.37104 0.27359,0.17991 0.52096,0.40291 0.74209,0.66901 l -0.68025,0.86015 c 0,0 -0.20379,-0.2576 -0.29796,-0.37665 -0.075,-0.0862 -0.17616,-0.17053 -0.30359,-0.25298 -0.12369,-0.0824 -0.25673,-0.14054 -0.39915,-0.17428 l 0,1.69219 c 0.30358,0.0975 0.57156,0.20614 0.80393,0.32607 0.23236,0.11994 0.42538,0.25861 0.57905,0.41602 0.15741,0.15741 0.27547,0.33544 0.35418,0.53408 0.0787,0.19489 0.11806,0.41789 0.11806,0.669 0,0.23612 -0.0412,0.46287 -0.12368,0.68025 -0.0825,0.21363 -0.20239,0.40853 -0.3598,0.58468 -0.15367,0.17615 -0.34107,0.32794 -0.56219,0.45537 -0.22113,0.12743 -0.47224,0.21926 -0.75333,0.27548 l 0,0.6184 -1.15249,0 0,-0.58468 c -0.35231,-0.06 -0.69149,-0.17802 -1.01757,-0.35417 -0.32607,-0.17616 -0.61653,-0.40478 -0.87139,-0.68587 l 0.70274,-0.98946 0.32609,0.40478 c 0.12744,0.13867 0.26236,0.25673 0.40478,0.35418 0.14617,0.0974 0.3167,0.16678 0.51159,0.20801 l 0,-2.05762 c -0.2736,-0.10119 -0.51909,-0.21363 -0.73646,-0.33731 -0.21364,-0.12368 -0.39541,-0.26047 -0.54533,-0.41039 -0.14617,-0.15367 -0.25861,-0.32232 -0.33731,-0.50597 -0.0787,-0.1874 -0.11806,-0.39166 -0.11806,-0.61279 0,-0.20988 0.0393,-0.4104 0.11806,-0.60155 0.0787,-0.19114 0.19114,-0.36354 0.33731,-0.51721 0.14617,-0.15366 0.32232,-0.28484 0.52846,-0.39354 0.20988,-0.11242 0.44225,-0.19488 0.69711,-0.24735 l 0,-0.66901 m 1.09628,6.28527 c 0.20238,-0.0712 0.36541,-0.1724 0.4891,-0.30357 0.12743,-0.13118 0.19114,-0.30546 0.19115,-0.52284 -1e-5,-0.1799 -0.0562,-0.33731 -0.16866,-0.47225 -0.1087,-0.13491 -0.27923,-0.24361 -0.51159,-0.32606 l 0,1.62472 m -1.04006,-4.5481 c -0.15741,0.0412 -0.28484,0.11431 -0.38228,0.21925 -0.0975,0.10494 -0.14617,0.23987 -0.14617,0.40478 0,0.11994 0.0393,0.24361 0.11805,0.37104 0.0787,0.12743 0.21551,0.22488 0.4104,0.29234 l 0,-1.28741"
             style="font-weight:bold;fill:#ebebeb;fill-opacity:1;font-family:Inconsolata;-inkscape-font-specification:Inconsolata Bold"
             id="path4053"
             inkscape:connector-curvature="0"
             sodipodi:nodetypes="ccccccccccccccccsccccscccccccccscccccccccccccsccc" />
        </g>
      </g>
    </g>
  </g>
</svg>
