<?xml version="1.0" encoding="UTF-8" standalone="no"?>
<!-- Created with Inkscape (http://www.inkscape.org/) -->

<svg
   xmlns:osb="http://www.openswatchbook.org/uri/2009/osb"
   xmlns:dc="http://purl.org/dc/elements/1.1/"
   xmlns:cc="http://creativecommons.org/ns#"
   xmlns:rdf="http://www.w3.org/1999/02/22-rdf-syntax-ns#"
   xmlns:svg="http://www.w3.org/2000/svg"
   xmlns="http://www.w3.org/2000/svg"
   xmlns:xlink="http://www.w3.org/1999/xlink"
   xmlns:sodipodi="http://sodipodi.sourceforge.net/DTD/sodipodi-0.dtd"
   xmlns:inkscape="http://www.inkscape.org/namespaces/inkscape"
   id="svg3786"
   height="48"
   width="48"
   version="1.0"
   inkscape:version="0.91 r13725"
   sodipodi:docname="drive-harddisk-usb.svg">
  <metadata
     id="metadata39">
    <rdf:RDF>
      <cc:Work
         rdf:about="">
        <dc:format>image/svg+xml</dc:format>
        <dc:type
           rdf:resource="http://purl.org/dc/dcmitype/StillImage" />
        <dc:title></dc:title>
      </cc:Work>
    </rdf:RDF>
  </metadata>
  <sodipodi:namedview
     pagecolor="#ffffff"
     bordercolor="#666666"
     borderopacity="1"
     objecttolerance="10"
     gridtolerance="10"
     guidetolerance="10"
     inkscape:pageopacity="0"
     inkscape:pageshadow="2"
     inkscape:window-width="1301"
     inkscape:window-height="744"
     id="namedview37"
     showgrid="false"
     inkscape:zoom="1"
     inkscape:cx="38.912446"
     inkscape:cy="2.6191675"
     inkscape:window-x="65"
     inkscape:window-y="24"
     inkscape:window-maximized="1"
     inkscape:current-layer="layer1"
     showguides="true"
     inkscape:guide-bbox="true"
     inkscape:snap-global="true"
     inkscape:snap-bbox="true"
     inkscape:bbox-nodes="true"
     inkscape:snap-bbox-edge-midpoints="true"
     showborder="false"
     inkscape:object-paths="true"
     inkscape:snap-intersection-paths="true"
     inkscape:object-nodes="true"
     inkscape:snap-smooth-nodes="true"
     inkscape:snap-midpoints="true">
    <inkscape:grid
       type="xygrid"
       id="grid3248"
       empspacing="5"
       visible="true"
       enabled="true"
       snapvisiblegridlinesonly="true" />
  </sodipodi:namedview>
  <defs
     id="defs3788">
    <linearGradient
       inkscape:collect="always"
       id="linearGradient4109">
      <stop
         style="stop-color:#000000;stop-opacity:1;"
         offset="0"
         id="stop4111" />
      <stop
         style="stop-color:#000000;stop-opacity:0;"
         offset="1"
         id="stop4113" />
    </linearGradient>
    <linearGradient
       x1="17.741"
       y1="24.05"
       gradientTransform="matrix(0.99778,0,0,0.88551429,0.053179,4.2043715)"
       x2="11.218"
       gradientUnits="userSpaceOnUse"
       y2="12.883"
       id="linearGradient4097">
      <stop
         offset="0"
         style="stop-color:#acacac;stop-opacity:1;"
         id="stop4099" />
      <stop
         id="stop4101"
         style="stop-color:#b6b6b6;stop-opacity:1;"
         offset="0.25" />
      <stop
         id="stop4103"
         style="stop-color:#d9d9d9;stop-opacity:1;"
         offset="0.25" />
      <stop
         offset="1"
         style="stop-color:#d4d4d4;stop-opacity:1;"
         id="stop4105" />
    </linearGradient>
    <linearGradient
       id="linearGradient3861"
       y2="12.883"
       gradientUnits="userSpaceOnUse"
       x2="11.218"
       gradientTransform="matrix(0.99778,0,0,0.88551429,0.053179,4.2043715)"
       y1="24.05"
       x1="17.741">
      <stop
         id="stop3863"
         style="stop-color:#c5c5c5;stop-opacity:1;"
         offset="0" />
      <stop
         offset="0.08347408"
         style="stop-color:#cfcfcf;stop-opacity:1;"
         id="stop3865" />
      <stop
         offset="0.08347408"
         style="stop-color:#d9d9d9;stop-opacity:1;"
         id="stop3867" />
      <stop
         id="stop3869"
         style="stop-color:#d4d4d4;stop-opacity:1;"
         offset="1" />
    </linearGradient>
    <linearGradient
       x1="17.741"
       y1="24.05"
       gradientTransform="matrix(0.99778,0,0,0.88551429,0.053179,4.2043715)"
       x2="11.218"
       gradientUnits="userSpaceOnUse"
       y2="12.883"
       id="linearGradient3844">
      <stop
         offset="0"
         style="stop-color:#c5c5c5;stop-opacity:1;"
         id="stop3846" />
      <stop
         id="stop3848"
         style="stop-color:#cdcdcd;stop-opacity:1;"
         offset="0.11814719" />
      <stop
         id="stop3850"
         style="stop-color:#bebebe;stop-opacity:1;"
         offset="0.11814719" />
      <stop
         offset="1"
         style="stop-color:#e1e1e1;stop-opacity:1;"
         id="stop3852" />
    </linearGradient>
    <radialGradient
       r="23"
       gradientTransform="matrix(1.1924,0.53139429,-0.49419,0.81474,3.4847,3.6991715)"
       cx="14.237"
       cy="12.595"
       gradientUnits="userSpaceOnUse"
       id="radialGradient3841">
      <stop
         offset="0"
         style="stop-color:#f5f5f5;stop-opacity:1"
         id="stop3843" />
      <stop
         offset="1"
         style="stop-color:#e1e1e1;stop-opacity:1"
         id="stop3845" />
    </radialGradient>
    <linearGradient
       id="linearGradient4028">
      <stop
         style="stop-color:#888888;stop-opacity:1;"
         offset="0"
         id="stop4030" />
      <stop
         style="stop-color:#282828;stop-opacity:1;"
         offset="1"
         id="stop4032" />
    </linearGradient>
    <linearGradient
       id="linearGradient5060">
      <stop
         id="stop5062"
         offset="0" />
      <stop
         id="stop5064"
         style="stop-opacity:0"
         offset="1" />
    </linearGradient>
    <radialGradient
       id="radialGradient2857"
       gradientUnits="userSpaceOnUse"
       cy="42"
       cx="24"
       gradientTransform="matrix(.90476 1.019e-7 -2.6817e-8 .23810 2.2857 30)"
       r="21">
      <stop
         id="stop6312"
         style="stop-color:#fff"
         offset="0" />
      <stop
         id="stop6314"
         style="stop-color:#fff;stop-opacity:0"
         offset="1" />
    </radialGradient>
    <radialGradient
       id="radialGradient2862"
       gradientUnits="userSpaceOnUse"
       cy="12.595"
       cx="14.237"
       gradientTransform="matrix(1.1924,0.53139429,-0.49419,0.81474,3.4847,3.6991715)"
       r="23">
      <stop
         id="stop7064"
         style="stop-color:#e2e2e4;stop-opacity:1;"
         offset="0" />
      <stop
         id="stop7060"
         style="stop-color:#c9c9ca;stop-opacity:1;"
         offset="1" />
    </radialGradient>
    <linearGradient
       id="linearGradient2864"
       y2="12.883"
       gradientUnits="userSpaceOnUse"
       x2="11.218"
       gradientTransform="matrix(0.99778,0,0,0.88551429,0.053179,4.2043715)"
       y1="24.05"
       x1="17.741">
      <stop
         id="stop3486"
         style="stop-color:#9c9c9c;stop-opacity:1;"
         offset="0" />
      <stop
         offset="0.25"
         style="stop-color:#5d5d5d;stop-opacity:1;"
         id="stop3842" />
      <stop
         offset="0.5"
         style="stop-color:#717171;stop-opacity:1;"
         id="stop3840" />
      <stop
         id="stop3488"
         style="stop-color:#bebebe;stop-opacity:1;"
         offset="1" />
    </linearGradient>
    <linearGradient
       id="linearGradient2868"
       y2="40.703999"
       gradientUnits="userSpaceOnUse"
       x2="28.375"
       gradientTransform="matrix(1.0002,0,0,0.25022851,-5.0044,27.114611)"
       y1="50.296001"
       x1="28.438"
       xlink:href="#linearGradient2864">
      <stop
         id="stop2223"
         style="stop-color:#aaa"
         offset="0" />
      <stop
         id="stop2219"
         style="stop-color:#646464"
         offset="1" />
    </linearGradient>
    <radialGradient
       id="radialGradient2871"
       xlink:href="#linearGradient5060"
       gradientUnits="userSpaceOnUse"
       cy="486.65"
       cx="605.71"
       gradientTransform="matrix(-0.044847,0,0,0.020588,32.611,32.451)"
       r="117.14" />
    <radialGradient
       id="radialGradient2874"
       xlink:href="#linearGradient5060"
       gradientUnits="userSpaceOnUse"
       cy="486.65"
       cx="605.71"
       gradientTransform="matrix(0.044847,0,0,0.020588,15.389,32.451)"
       r="117.14" />
    <linearGradient
       id="linearGradient2877"
       y2="609.51"
       gradientUnits="userSpaceOnUse"
       x2="302.86"
       gradientTransform="matrix(0.076357,0,0,0.020588,-3.5974,32.451)"
       y1="366.65"
       x1="302.86">
      <stop
         id="stop5050"
         style="stop-opacity:0"
         offset="0" />
      <stop
         id="stop5056"
         offset=".5" />
      <stop
         id="stop5052"
         style="stop-opacity:0"
         offset="1" />
    </linearGradient>
    <linearGradient
       id="linearGradient3155-40-33">
      <stop
         id="stop2847"
         offset="0"
         style="stop-color:#1b1b1b;stop-opacity:1;" />
      <stop
         style="stop-color:#f3f3f3;stop-opacity:1;"
         offset="0.13482948"
         id="stop2849" />
      <stop
         id="stop2851"
         offset="0.20224422"
         style="stop-color:#b6b6b6;stop-opacity:1;" />
      <stop
         style="stop-color:#ffffff;stop-opacity:1;"
         offset="0.26965895"
         id="stop2853" />
      <stop
         id="stop2855"
         offset="0.44650277"
         style="stop-color:#9d9d9d;stop-opacity:1;" />
      <stop
         style="stop-color:#a6a6a6;stop-opacity:1;"
         offset="0.57114136"
         id="stop2857" />
      <stop
         id="stop2859"
         offset="0.72038066"
         style="stop-color:#e5e5e5;stop-opacity:1;" />
      <stop
         id="stop2861"
         offset="1"
         style="stop-color:#1b1b1b;stop-opacity:1;" />
    </linearGradient>
    <linearGradient
       id="linearGradient3191-577-747-672">
      <stop
         id="stop2865"
         offset="0"
         style="stop-color:#5e5e5e;stop-opacity:1;" />
      <stop
         id="stop2867"
         offset="1"
         style="stop-color:#5a5a5a;stop-opacity:1;" />
    </linearGradient>
    <linearGradient
       id="linearGradient3155-40">
      <stop
         id="stop2541"
         offset="0"
         style="stop-color:#181818;stop-opacity:1;" />
      <stop
         style="stop-color:#dbdbdb;stop-opacity:1;"
         offset="0.13482948"
         id="stop2543" />
      <stop
         id="stop2545"
         offset="0.20224422"
         style="stop-color:#a4a4a4;stop-opacity:1;" />
      <stop
         style="stop-color:#ffffff;stop-opacity:1;"
         offset="0.26965895"
         id="stop2547" />
      <stop
         id="stop2549"
         offset="0.44650277"
         style="stop-color:#8d8d8d;stop-opacity:1;" />
      <stop
         style="stop-color:#959595;stop-opacity:1;"
         offset="0.57114136"
         id="stop2551" />
      <stop
         id="stop2553"
         offset="0.72038066"
         style="stop-color:#cecece;stop-opacity:1;" />
      <stop
         id="stop2555"
         offset="1"
         style="stop-color:#181818;stop-opacity:1;" />
    </linearGradient>
    <linearGradient
       id="linearGradient3319">
      <stop
         style="stop-color:#7f96af;stop-opacity:1;"
         offset="0"
         id="stop3321" />
      <stop
         style="stop-color:#485c73;stop-opacity:1;"
         offset="1"
         id="stop3323" />
    </linearGradient>
    <linearGradient
       id="linearGradient4642">
      <stop
         id="stop4644"
         offset="0"
         style="stop-color:#4e535a;stop-opacity:1;" />
      <stop
         style="stop-color:#151c20;stop-opacity:1"
         offset="0.15977758"
         id="stop4646" />
      <stop
         id="stop4648"
         offset="0.1672256"
         style="stop-color:#4b5f76;stop-opacity:1;" />
      <stop
         style="stop-color:#4b5f76;stop-opacity:1;"
         offset="1"
         id="stop4650" />
    </linearGradient>
    <linearGradient
       id="linearGradient8967">
      <stop
         id="stop8969"
         offset="0"
         style="stop-color:#bdccdd;stop-opacity:1;" />
      <stop
         id="stop8971"
         offset="1"
         style="stop-color:#506985;stop-opacity:1;" />
    </linearGradient>
    <linearGradient
       id="linearGradient5048">
      <stop
         style="stop-color:black;stop-opacity:0;"
         offset="0"
         id="stop5050-3" />
      <stop
         id="stop5056-6"
         offset="0.5"
         style="stop-color:black;stop-opacity:1;" />
      <stop
         style="stop-color:black;stop-opacity:0;"
         offset="1"
         id="stop5052-5" />
    </linearGradient>
    <linearGradient
       inkscape:collect="always"
       xlink:href="#linearGradient3155-40"
       id="linearGradient3234"
       gradientUnits="userSpaceOnUse"
       gradientTransform="matrix(0.8239774,-0.8548421,0.7471754,0.7309632,-88.855277,1.674494)"
       spreadMethod="pad"
       x1="23.575972"
       y1="25.356892"
       x2="23.575972"
       y2="31.210939" />
    <linearGradient
       inkscape:collect="always"
       xlink:href="#linearGradient3155-40-33"
       id="linearGradient3236"
       gradientUnits="userSpaceOnUse"
       gradientTransform="matrix(0.8006848,-0.8306768,0.8744329,0.8554595,-91.49015,-1.532335)"
       x1="10.86941"
       y1="25.077497"
       x2="11.083416"
       y2="30.467169" />
    <linearGradient
       inkscape:collect="always"
       xlink:href="#linearGradient3191-577-747-672"
       id="linearGradient3238"
       gradientUnits="userSpaceOnUse"
       gradientTransform="matrix(0.6334257,-0.05500901,-0.03910351,0.6392777,-64.706197,-9.126561)"
       x1="5.7117834"
       y1="37.817223"
       x2="9.5220556"
       y2="41.391716" />
    <radialGradient
       inkscape:collect="always"
       xlink:href="#linearGradient4028"
       id="radialGradient4034"
       cx="18.466358"
       cy="30.272728"
       fx="18.466358"
       fy="30.272728"
       r="15.75"
       gradientTransform="matrix(1.3672154,0.1004445,-0.10595236,1.4421864,-3.5736635,-14.51376)"
       gradientUnits="userSpaceOnUse" />
    <linearGradient
       inkscape:collect="always"
       xlink:href="#linearGradient2864"
       id="linearGradient4044"
       x1="27.74963"
       y1="56.627556"
       x2="27.74963"
       y2="33.690407"
       gradientUnits="userSpaceOnUse"
       gradientTransform="translate(0,3)" />
    <linearGradient
       inkscape:collect="always"
       xlink:href="#linearGradient2864"
       id="linearGradient4046"
       gradientUnits="userSpaceOnUse"
       gradientTransform="matrix(0.99778,0,0,0.88551429,0.053179,7.2043715)"
       x1="17.740999"
       y1="24.049999"
       x2="11.218"
       y2="12.883" />
    <linearGradient
       inkscape:collect="always"
       xlink:href="#linearGradient3844"
       id="linearGradient3838"
       gradientUnits="userSpaceOnUse"
       gradientTransform="translate(-0.25,3)"
       x1="25.097979"
       y1="39.833771"
       x2="25.009592"
       y2="15.040465" />
    <linearGradient
       inkscape:collect="always"
       xlink:href="#linearGradient2877"
       id="linearGradient3883"
       gradientUnits="userSpaceOnUse"
       gradientTransform="matrix(0.076357,0,0,0.020588,-3.5974,32.451)"
       x1="302.86"
       y1="366.65"
       x2="302.86"
       y2="609.51" />
    <radialGradient
       inkscape:collect="always"
       xlink:href="#linearGradient5060"
       id="radialGradient3885"
       gradientUnits="userSpaceOnUse"
       gradientTransform="matrix(0.044847,0,0,0.020588,15.389,32.451)"
       cx="605.71"
       cy="486.65"
       r="117.14" />
    <radialGradient
       inkscape:collect="always"
       xlink:href="#linearGradient5060"
       id="radialGradient3887"
       gradientUnits="userSpaceOnUse"
       gradientTransform="matrix(-0.044847,0,0,0.020588,32.611,32.451)"
       cx="605.71"
       cy="486.65"
       r="117.14" />
    <linearGradient
       id="linearGradient3847">
      <stop
         style="stop-color:#f2f2f2;stop-opacity:1;"
         offset="0"
         id="stop3849" />
      <stop
         style="stop-color:#ebebeb;stop-opacity:0;"
         offset="1"
         id="stop3851" />
    </linearGradient>
    <linearGradient
       id="linearGradient6883">
      <stop
         id="stop6885"
         offset="0"
         style="stop-color:#000000;stop-opacity:1;" />
      <stop
         id="stop6887"
         offset="1"
         style="stop-color:#000000;stop-opacity:0;" />
    </linearGradient>
    <linearGradient
       inkscape:collect="always"
       xlink:href="#linearGradient3952-0"
       id="linearGradient3916"
       gradientUnits="userSpaceOnUse"
       gradientTransform="matrix(-1,0,0,1,352.87279,-65.715531)"
       x1="328.62787"
       y1="74.43293"
       x2="327.47882"
       y2="67.36187" />
    <linearGradient
       inkscape:collect="always"
       id="linearGradient3952-0">
      <stop
         style="stop-color:#000000;stop-opacity:1;"
         offset="0"
         id="stop3954-1" />
      <stop
         style="stop-color:#000000;stop-opacity:0;"
         offset="1"
         id="stop3956-6" />
    </linearGradient>
    <linearGradient
       inkscape:collect="always"
       xlink:href="#linearGradient4097"
       id="linearGradient4072"
       gradientUnits="userSpaceOnUse"
       gradientTransform="translate(-0.25,1)"
       x1="25.25"
       y1="39"
       x2="25.25"
       y2="15" />
    <radialGradient
       inkscape:collect="always"
       xlink:href="#linearGradient5060"
       id="radialGradient4075"
       gradientUnits="userSpaceOnUse"
       gradientTransform="matrix(-0.044847,0,0,0.020588,32.611,31.451)"
       cx="605.71"
       cy="486.65"
       r="117.14" />
    <radialGradient
       inkscape:collect="always"
       xlink:href="#linearGradient5060"
       id="radialGradient4078"
       gradientUnits="userSpaceOnUse"
       gradientTransform="matrix(0.044847,0,0,0.020588,14.389,31.451)"
       cx="605.71"
       cy="486.65"
       r="117.14" />
    <linearGradient
       inkscape:collect="always"
       xlink:href="#linearGradient2877"
       id="linearGradient4081"
       gradientUnits="userSpaceOnUse"
       gradientTransform="matrix(0.076357,0,0,0.020588,-3.5974,31.451)"
       x1="302.86"
       y1="366.65"
       x2="302.86"
       y2="609.51" />
    <linearGradient
       inkscape:collect="always"
       xlink:href="#linearGradient4109"
       id="linearGradient4115"
       x1="25"
       y1="35.625"
       x2="25"
       y2="46.125"
       gradientUnits="userSpaceOnUse" />
    <clipPath
       clipPathUnits="userSpaceOnUse"
       id="clipPath4121">
      <path
         sodipodi:nodetypes="ccccc"
         inkscape:connector-curvature="0"
         id="path4123"
         d="M 3.3977476,37 4,40 43.441942,40 44,37 z"
         style="opacity:0.5;fill:url(#linearGradient4125);fill-opacity:1;stroke:none" />
    </clipPath>
    <linearGradient
       inkscape:collect="always"
       xlink:href="#linearGradient4109"
       id="linearGradient4125"
       gradientUnits="userSpaceOnUse"
       x1="25"
       y1="35.625"
       x2="25"
       y2="46.125" />
    <linearGradient
       inkscape:collect="always"
       xlink:href="#linearGradient4097"
       id="linearGradient4169"
       gradientUnits="userSpaceOnUse"
       gradientTransform="translate(-0.25,3)"
       x1="25.25"
       y1="39"
       x2="25.25"
       y2="15" />
    <linearGradient
       osb:paint="solid"
       id="linearGradient5606">
      <stop
         style="stop-color:#000000;stop-opacity:1;"
         offset="0"
         id="stop5608" />
    </linearGradient>
  </defs>
  <g
     inkscape:groupmode="layer"
     id="layer1"
     inkscape:label="Background"
     style="display:inline">
    <g
       id="g4092"
       transform="translate(0,-2)">
      <rect
         x="5.5653"
         y="39"
         width="35.8517"
         height="4.9997001"
         style="opacity:0.3;fill:url(#linearGradient4081)"
         id="rect2723" />
      <path
         inkscape:connector-curvature="0"
         d="m 41.417,39 0,4.9997 c 2.309,0.009 5.583,-1.12 5.583,-2.5 0,-1.38 -2.577,-2.5 -5.583,-2.5 z"
         style="opacity:0.3;fill:url(#radialGradient4078)"
         id="path2725" />
      <path
         inkscape:connector-curvature="0"
         d="m 5.5833,39 v 4.9997 C 3.2738,44.0087 0,42.8797 0,41.4997 c 0,-1.38 2.5773,-2.5 5.5833,-2.5 z"
         style="opacity:0.3;fill:url(#radialGradient4075)"
         id="path2727" />
    </g>
    <path
       style="fill:url(#linearGradient4072);fill-opacity:1;fill-rule:evenodd;stroke:none;enable-background:new"
       d="m 9.75,12.5 c -0.8098,0 -2.03495,0.167807 -2.21875,0.84375 L 1.25,34 l 1,5.5 42.09375,0 0.90625,-5.53125 -6.78125,-20.625 C 38.30875,12.79595 37.409,12.5 36.75,12.5 Z"
       id="rect6431"
       inkscape:connector-curvature="0"
       sodipodi:nodetypes="sccccccss" />
    <path
       inkscape:connector-curvature="0"
       id="path3856"
       d="m 10,12.5 c -0.8098,0 -2.03495,0.167807 -2.21875,0.84375 L 1.5,34.46875 45.5,34.5 38.71875,13.34375 C 38.55875,12.79595 37.659,12.5 37,12.5 Z m 35.5,22 -44,0 1,6 42.09375,0 z"
       style="fill:none;stroke:none;enable-background:new"
       sodipodi:nodetypes="sccccssccccc" />
    <path
       sodipodi:nodetypes="sccccccss"
       inkscape:connector-curvature="0"
       id="path3873"
       d="m 9.75,12.5 c -0.8098,0 -2.03495,0.167807 -2.21875,0.84375 L 1.25,34 l 1,5.5 42.09375,0 0.90625,-5.53125 -6.78125,-20.625 C 38.30875,12.79595 37.409,12.5 36.75,12.5 Z"
       style="opacity:0.41000001;fill:none;stroke:#000000;stroke-opacity:1;enable-background:new" />
    <rect
       style="opacity:0.41000001;fill:#ffffff;fill-opacity:1;stroke:none"
       id="rect3875"
       width="44"
       height="1"
       x="2"
       y="33"
       ry="0.5" />
    <path
       style="opacity:0.5;fill:#ffffff;fill-opacity:1;fill-rule:evenodd;stroke:none;enable-background:new"
       d="M 9.75,13 C 9.3796367,13 8.8882313,13.051396 8.53125,13.15625 8.1742687,13.261104 8.0208424,13.3921 8,13.46875 L 8,13.5 1.78125,34 1.90625,34.625 8,14.5 8,14.46875 C 8.0208424,14.3921 8.1742687,14.261104 8.53125,14.15625 8.8882313,14.051396 9.3796367,14 9.75,14 l 27,0 c 0.254652,0 0.591508,0.07771 0.84375,0.1875 0.252242,0.109788 0.390172,0.226203 0.40625,0.28125 L 38,14.5 44.625,34.625 44.71875,33.96875 38,13.5 38,13.46875 C 37.983922,13.413703 37.845992,13.297288 37.59375,13.1875 37.341508,13.07771 37.004652,13 36.75,13 Z"
       id="path4161"
       inkscape:connector-curvature="0"
       sodipodi:nodetypes="ssccccccssssccccccsss" />
    <path
       id="path3912"
       d="m 9.5,14.375 c -0.3436975,0 -0.625,0.281303 -0.625,0.625 0,0.343697 0.2813025,0.625 0.625,0.625 0.3436975,0 0.625,-0.281303 0.625,-0.625 0,-0.343697 -0.2813025,-0.625 -0.625,-0.625 z m 27,0 c -0.343697,0 -0.625,0.281303 -0.625,0.625 0,0.343697 0.281303,0.625 0.625,0.625 0.343697,0 0.625,-0.281303 0.625,-0.625 0,-0.343697 -0.281303,-0.625 -0.625,-0.625 z m -32,17 c -0.3436975,0 -0.625,0.281303 -0.625,0.625 0,0.343697 0.2813025,0.625 0.625,0.625 0.3436975,0 0.625,-0.281303 0.625,-0.625 0,-0.343697 -0.2813025,-0.625 -0.625,-0.625 z m 37,0 c -0.343697,0 -0.625,0.281303 -0.625,0.625 0,0.343697 0.281303,0.625 0.625,0.625 0.343697,0 0.625,-0.281303 0.625,-0.625 0,-0.343697 -0.281303,-0.625 -0.625,-0.625 z"
       style="color:#000000;font-style:normal;font-variant:normal;font-weight:normal;font-stretch:normal;font-size:medium;line-height:normal;font-family:Sans;-inkscape-font-specification:Sans;text-indent:0;text-align:start;text-decoration:none;text-decoration-line:none;letter-spacing:normal;word-spacing:normal;text-transform:none;direction:ltr;block-progression:tb;writing-mode:lr-tb;baseline-shift:baseline;text-anchor:start;display:inline;overflow:visible;visibility:visible;opacity:0.4;fill:#ffffff;fill-opacity:1;stroke:none;stroke-width:0.25;marker:none;enable-background:accumulate"
       inkscape:connector-curvature="0"
       sodipodi:nodetypes="ssssssssssssssssssss" />
    <path
       style="color:#000000;font-style:normal;font-variant:normal;font-weight:normal;font-stretch:normal;font-size:medium;line-height:normal;font-family:Sans;-inkscape-font-specification:Sans;text-indent:0;text-align:start;text-decoration:none;text-decoration-line:none;letter-spacing:normal;word-spacing:normal;text-transform:none;direction:ltr;block-progression:tb;writing-mode:lr-tb;baseline-shift:baseline;text-anchor:start;display:inline;overflow:visible;visibility:visible;opacity:0.4;fill:#000000;fill-opacity:1;stroke:none;stroke-width:0.25;marker:none;enable-background:accumulate"
       d="m 9.5,13.875 c -0.3436975,0 -0.625,0.281303 -0.625,0.625 0,0.343697 0.2813025,0.625 0.625,0.625 0.3436975,0 0.625,-0.281303 0.625,-0.625 0,-0.343697 -0.2813025,-0.625 -0.625,-0.625 z m 27,0 c -0.343697,0 -0.625,0.281303 -0.625,0.625 0,0.343697 0.281303,0.625 0.625,0.625 0.343697,0 0.625,-0.281303 0.625,-0.625 0,-0.343697 -0.281303,-0.625 -0.625,-0.625 z m -32,17 c -0.3436975,0 -0.625,0.281303 -0.625,0.625 0,0.343697 0.2813025,0.625 0.625,0.625 0.3436975,0 0.625,-0.281303 0.625,-0.625 0,-0.343697 -0.2813025,-0.625 -0.625,-0.625 z m 37,0 c -0.343697,0 -0.625,0.281303 -0.625,0.625 0,0.343697 0.281303,0.625 0.625,0.625 0.343697,0 0.625,-0.281303 0.625,-0.625 0,-0.343697 -0.281303,-0.625 -0.625,-0.625 z"
       id="path3905"
       inkscape:connector-curvature="0"
       sodipodi:nodetypes="ssssssssssssssssssss" />
    <path
       inkscape:connector-curvature="0"
       d="m 23,15.9375 c 1.65686,0 3,0.7929 3,1.8125 0,0.8072 -0.82718,1.49912 -2,1.75 l 0,0.125 0,0.3125 0,0.0624 4.625,2.25 0.375,0.1874 0,0.3125 0,0.9377 c 0,0 1,0.189479 1,1.0625 0,0.67976 -0.89544,1.25 -2,1.25 -1.10456,0 -2,-0.57024 -2,-1.25 0,-0.4492 0.416,-0.8476 1,-1.0625 l 0,-0.7502 -3,-1.4375 0,6.5 2,0 -3,3.9377 L 20,28 l 2,0 0,-5.25 -3,1.4375 0,0.375 1,0 0,2.4375 -4,0 0,-2.4375 1,0 0,-0.6875 0,-0.25 L 17.375,23.5 22,21.25 22,20.625 22,20.25 22,19.5 c 0,0 -2.013866,-0.21783 -2,-1.75 0.0092,-1.019578 1.34314,-1.8125 3,-1.8125 z"
       id="path4407"
       sodipodi:nodetypes="ccccccccccssccccccccccccccccccccccccsc"
       style="color:#000000;font-style:normal;font-variant:normal;font-weight:normal;font-stretch:normal;font-size:medium;line-height:normal;font-family:Sans;-inkscape-font-specification:Sans;text-indent:0;text-align:start;text-decoration:none;text-decoration-line:none;letter-spacing:normal;word-spacing:normal;text-transform:none;direction:ltr;block-progression:tb;writing-mode:lr-tb;baseline-shift:baseline;text-anchor:start;display:inline;overflow:visible;visibility:visible;opacity:0.3;fill:#ffffff;fill-opacity:1;stroke:none;stroke-width:2;marker:none;enable-background:accumulate" />
    <path
       style="color:#000000;font-style:normal;font-variant:normal;font-weight:normal;font-stretch:normal;font-size:medium;line-height:normal;font-family:Sans;-inkscape-font-specification:Sans;text-indent:0;text-align:start;text-decoration:none;text-decoration-line:none;letter-spacing:normal;word-spacing:normal;text-transform:none;direction:ltr;block-progression:tb;writing-mode:lr-tb;baseline-shift:baseline;text-anchor:start;display:inline;overflow:visible;visibility:visible;opacity:0.3;fill:#000000;fill-opacity:1;stroke:none;stroke-width:2;marker:none;enable-background:accumulate"
       sodipodi:nodetypes="ccccccccccssccccccccccccccccccccccccsc"
       id="path7158"
       d="m 23,14.9375 c 1.65686,0 3,0.7929 3,1.8125 0,0.8072 -0.82718,1.49912 -2,1.75 l 0,0.125 0,0.3125 0,0.0624 4.625,2.25 0.375,0.1874 0,0.3125 0,0.9377 c 0,0 1,0.189479 1,1.0625 0,0.67976 -0.89544,1.25 -2,1.25 -1.10456,0 -2,-0.57024 -2,-1.25 0,-0.4492 0.416,-0.8476 1,-1.0625 l 0,-0.7502 -3,-1.4375 0,6.5 2,0 -3,3.9377 L 20,27 l 2,0 0,-5.25 -3,1.4375 0,0.375 1,0 0,2.4375 -4,0 0,-2.4375 1,0 0,-0.6875 0,-0.25 L 17.375,22.5 22,20.25 22,19.625 22,19.25 22,18.5 c 0,0 -2.013866,-0.21783 -2,-1.75 0.0092,-1.019578 1.34314,-1.8125 3,-1.8125 z"
       inkscape:connector-curvature="0" />
  </g>
</svg>
