<?xml version="1.0" encoding="UTF-8" standalone="no"?>
<svg
   xmlns:dc="http://purl.org/dc/elements/1.1/"
   xmlns:cc="http://creativecommons.org/ns#"
   xmlns:rdf="http://www.w3.org/1999/02/22-rdf-syntax-ns#"
   xmlns:svg="http://www.w3.org/2000/svg"
   xmlns="http://www.w3.org/2000/svg"
   xmlns:xlink="http://www.w3.org/1999/xlink"
   version="1.0"
   width="48"
   height="48"
   id="svg3786">
  <metadata
     id="metadata39">
    <rdf:RDF>
      <cc:Work
         rdf:about="">
        <dc:format>image/svg+xml</dc:format>
        <dc:type
           rdf:resource="http://purl.org/dc/dcmitype/StillImage" />
        <dc:title />
      </cc:Work>
    </rdf:RDF>
  </metadata>
  <defs
     id="defs3788">
    <linearGradient
       id="linearGradient4109">
      <stop
         id="stop4111"
         offset="0"
         style="stop-color:#000000;stop-opacity:1;" />
      <stop
         id="stop4113"
         offset="1"
         style="stop-color:#000000;stop-opacity:0;" />
    </linearGradient>
    <linearGradient
       id="linearGradient4097"
       y2="12.883"
       gradientUnits="userSpaceOnUse"
       x2="11.218"
       gradientTransform="matrix(0.99778,0,0,0.88551429,0.053179,4.2043715)"
       y1="24.05"
       x1="17.741">
      <stop
         id="stop4099"
         style="stop-color:#acacac;stop-opacity:1;"
         offset="0" />
      <stop
         offset="0.25"
         style="stop-color:#b6b6b6;stop-opacity:1;"
         id="stop4101" />
      <stop
         offset="0.25"
         style="stop-color:#d9d9d9;stop-opacity:1;"
         id="stop4103" />
      <stop
         id="stop4105"
         style="stop-color:#d4d4d4;stop-opacity:1;"
         offset="1" />
    </linearGradient>
    <linearGradient
       id="linearGradient5060">
      <stop
         offset="0"
         id="stop5062" />
      <stop
         offset="1"
         style="stop-opacity:0"
         id="stop5064" />
    </linearGradient>
    <linearGradient
       x1="302.86"
       y1="366.65"
       gradientTransform="matrix(0.076357,0,0,0.020588,-3.5974,32.451)"
       x2="302.86"
       gradientUnits="userSpaceOnUse"
       y2="609.51"
       id="linearGradient2877">
      <stop
         offset="0"
         style="stop-opacity:0"
         id="stop5050" />
      <stop
         offset=".5"
         id="stop5056" />
      <stop
         offset="1"
         style="stop-opacity:0"
         id="stop5052" />
    </linearGradient>
    <linearGradient
       y2="15"
       x2="25.25"
       y1="39"
       x1="25.25"
       gradientTransform="translate(-0.25,0.96847698)"
       gradientUnits="userSpaceOnUse"
       id="linearGradient4072"
       xlink:href="#linearGradient4097" />
    <radialGradient
       r="117.14"
       cy="486.65"
       cx="605.71"
       gradientTransform="matrix(-0.044847,0,0,0.020588,32.611,31.451)"
       gradientUnits="userSpaceOnUse"
       id="radialGradient4075"
       xlink:href="#linearGradient5060" />
    <radialGradient
       r="117.14"
       cy="486.65"
       cx="605.71"
       gradientTransform="matrix(0.044847,0,0,0.020588,15.389,31.451)"
       gradientUnits="userSpaceOnUse"
       id="radialGradient4078"
       xlink:href="#linearGradient5060" />
    <linearGradient
       y2="609.51"
       x2="302.86"
       y1="366.65"
       x1="302.86"
       gradientTransform="matrix(0.076357,0,0,0.020588,-3.5974,31.451)"
       gradientUnits="userSpaceOnUse"
       id="linearGradient4081"
       xlink:href="#linearGradient2877" />
    <linearGradient
       gradientTransform="translate(-1,-2.031523)"
       y2="46.125"
       x2="25"
       y1="35.625"
       x1="25"
       gradientUnits="userSpaceOnUse"
       id="linearGradient4176"
       xlink:href="#linearGradient4109" />
    <linearGradient
       y2="32.938416"
       x2="23.375"
       y1="28.433596"
       x1="23.375"
       gradientTransform="matrix(1.1887917,0,0,0.993629,471.22585,89.224731)"
       gradientUnits="userSpaceOnUse"
       id="linearGradient10345"
       xlink:href="#linearGradient2329" />
    <linearGradient
       id="linearGradient2329">
      <stop
         style="stop-color:#000000;stop-opacity:1;"
         offset="0"
         id="stop2331" />
      <stop
         style="stop-color:#000000;stop-opacity:0;"
         offset="1"
         id="stop2333" />
    </linearGradient>
    <linearGradient
       y2="32.938416"
       x2="23.375"
       y1="28.433596"
       x1="23.375"
       gradientTransform="matrix(1.1887917,0,0,0.993629,471.22585,89.224731)"
       gradientUnits="userSpaceOnUse"
       id="linearGradient10347"
       xlink:href="#linearGradient2329" />
    <linearGradient
       y2="21.987923"
       x2="26.193645"
       y1="34.172115"
       x1="26.332899"
       gradientTransform="matrix(0.203753,0,0,0.168196,495.02326,115.04392)"
       gradientUnits="userSpaceOnUse"
       id="linearGradient10349"
       xlink:href="#linearGradient2345" />
    <linearGradient
       id="linearGradient2345">
      <stop
         style="stop-color:#d9d9d9;stop-opacity:1.0000000;"
         offset="0.0000000"
         id="stop2347" />
      <stop
         style="stop-color:#eeeeee;stop-opacity:0;"
         offset="1"
         id="stop2349" />
    </linearGradient>
    <linearGradient
       y2="34.307499"
       x2="32.511002"
       y1="11.1885"
       x1="14.9966"
       gradientTransform="matrix(0.8893325,0,0,0.6131526,348.85507,67.415983)"
       gradientUnits="userSpaceOnUse"
       id="linearGradient10351"
       xlink:href="#aigrd1" />
    <linearGradient
       y2="34.307499"
       y1="11.1885"
       x2="32.511002"
       x1="14.9966"
       id="aigrd1"
       gradientUnits="userSpaceOnUse">
      <stop
         style="stop-color:#EBEBEB"
         offset="0"
         id="stop3034" />
      <stop
         style="stop-color:#FFFFFF"
         offset="0.5"
         id="stop3036" />
      <stop
         style="stop-color:#EBEBEB"
         offset="1"
         id="stop3038" />
    </linearGradient>
    <linearGradient
       y2="21.987923"
       x2="26.193645"
       y1="34.172115"
       x1="26.332899"
       gradientTransform="matrix(0.7470392,0,0,0.5150482,352.01088,68.703601)"
       gradientUnits="userSpaceOnUse"
       id="linearGradient10353"
       xlink:href="#linearGradient2345" />
  </defs>
  <g
     style="display:inline"
     id="layer1">
    <g
       transform="translate(0,-2.031523)"
       id="g4092">
      <rect
         id="rect2723"
         style="opacity:0.3;fill:url(#linearGradient4081)"
         height="5"
         width="36.868999"
         y="39"
         x="5.5653" />
      <path
         id="path2725"
         style="opacity:0.3;fill:url(#radialGradient4078)"
         d="m 42.417,39 v 4.9997 c 2.309,0.009 5.583,-1.12 5.583,-2.5 0,-1.38 -2.577,-2.5 -5.583,-2.5 z" />
      <path
         id="path2727"
         style="opacity:0.3;fill:url(#radialGradient4075)"
         d="m 5.5833,39 v 4.9997 C 3.2738,44.0087 0,42.8797 0,41.4997 c 0,-1.38 2.5773,-2.5 5.5833,-2.5 z" />
    </g>
    <path
       id="rect6431"
       d="m 9.75,12.468477 c -0.8098,0 -2.03495,0.167807 -2.21875,0.84375 L 1.25,33.968477 l 1,5.5 43.09375,0 0.90625,-5.53125 -6.78125,-20.625 c -0.16,-0.5478 -1.05975,-0.84375 -1.71875,-0.84375 z"
       style="fill:url(#linearGradient4072);fill-opacity:1;fill-rule:evenodd;stroke:none;enable-background:new" />
    <path
       style="fill:none;stroke:none;enable-background:new"
       d="m 10,12.468477 c -0.8098,0 -2.03495,0.167807 -2.21875,0.84375 l -6.28125,21.125 45,0.03125 -6.78125,-21.15625 C 39.55875,12.764427 38.659,12.468477 38,12.468477 z m 36.5,22 -45,0 1,6 43.09375,0 z"
       id="path3856" />
    <path
       style="opacity:0.41000001;fill:none;stroke:#000000;stroke-opacity:1;enable-background:new"
       d="m 9.75,12.468477 c -0.8098,0 -2.03495,0.167807 -2.21875,0.84375 L 1.25,33.968477 l 1,5.5 43.09375,0 0.90625,-5.53125 -6.78125,-20.625 c -0.16,-0.5478 -1.05975,-0.84375 -1.71875,-0.84375 z"
       id="path3873" />
    <rect
       ry="0.5"
       y="32.968475"
       x="2"
       height="1"
       width="44"
       id="rect3875"
       style="opacity:0.41000001;fill:#ffffff;fill-opacity:1;stroke:none" />
    <path
       id="path4107"
       d="m 4.3977476,34.968477 0.3522524,2 37.941942,0 0.308058,-2 z"
       style="opacity:0.8;fill:url(#linearGradient4176);fill-opacity:1;stroke:none" />
    <path
       id="rect4138"
       d="m 5.1174175,36.468477 36.7651655,0 c 0.203549,0 0.367417,0.163868 0.367417,0.367417 l 0,0.265166 c 0,0.203549 -0.163868,0.367417 -0.367417,0.367417 l -36.7651655,0 C 4.9138682,37.468477 4.75,37.304609 4.75,37.10106 l 0,-0.265166 c 0,-0.203549 0.1638682,-0.367417 0.3674175,-0.367417 z"
       style="opacity:0.4;fill:#ffffff;fill-opacity:1;stroke:none" />
    <path
       id="path4161"
       d="m 9.75,12.968477 c -0.3703633,0 -0.8617687,0.0514 -1.21875,0.15625 C 8.1742687,13.229581 8.0208424,13.360577 8,13.437227 l 0,0.03125 -6.21875,20.5 0.125,0.625 L 8,14.468477 8,14.437227 c 0.020842,-0.07665 0.1742687,-0.207646 0.53125,-0.3125 0.3569813,-0.104854 0.8483867,-0.15625 1.21875,-0.15625 l 28,0 c 0.254652,0 0.591508,0.07771 0.84375,0.1875 0.252242,0.109788 0.390172,0.226203 0.40625,0.28125 l 0,0.03125 6.625,20.125 0.09375,-0.65625 L 39,13.468477 l 0,-0.03125 c -0.01608,-0.05505 -0.154008,-0.171462 -0.40625,-0.28125 -0.252242,-0.10979 -0.589098,-0.1875 -0.84375,-0.1875 l -28,0 z"
       style="opacity:0.5;fill:#ffffff;fill-opacity:1;fill-rule:evenodd;stroke:none;enable-background:new" />
    <g
       transform="matrix(1,0,0,0.9324756,-476.30207,-75.063643)"
       id="g4042">
      <rect
         style="opacity:0.38297873;fill:#ffffff;fill-opacity:1;stroke:none;display:inline;enable-background:new"
         id="rect3920"
         width="38"
         height="1"
         x="481"
         y="119" />
      <path
         style="opacity:0.36000001;fill:url(#linearGradient10345);fill-opacity:1;fill-rule:evenodd;stroke:none"
         id="path2325"
         d="m 502.50593,119.28201 16.34589,0 c 0,0 0.64369,1.11385 -0.0743,3.3535 0,0 -15.82578,-0.49682 -15.82578,-0.49682 2.19969,-1.83857 -0.4458,-2.85668 -0.4458,-2.85668 z" />
      <path
         style="opacity:0.36000001;fill:url(#linearGradient10347);fill-opacity:1;fill-rule:evenodd;stroke:none"
         id="path2327"
         d="m 497.49595,119.28201 -16.34589,0 c 0,0 -0.64368,1.11385 0.0743,3.3535 0,0 15.82579,-0.49682 15.82579,-0.49682 -2.1997,-1.83857 0.4458,-2.85668 0.4458,-2.85668 z" />
      <path
         style="fill:url(#linearGradient10349);fill-rule:nonzero;stroke:#808080;stroke-width:0.96686608;stroke-miterlimit:4;stroke-opacity:1;display:inline;enable-background:new"
         id="path3922"
         d="m 495.81531,118.62409 c -0.0439,0.203 -0.0796,0.41504 -0.0796,0.62885 0,1.94226 1.89663,3.49678 4.24949,3.49678 2.35286,0 4.24154,-1.55452 4.24154,-3.49678 0,-0.21381 -0.0356,-0.42585 -0.0796,-0.62885 l -8.33187,0 z" />
      <g
         id="g3684"
         transform="matrix(1.1887917,0,0,1.0201309,59.903885,37.316245)">
        <path
           style="fill:url(#linearGradient10351);fill-rule:nonzero;stroke:none"
           id="path3040"
           d="m 355.06072,79.17074 c -0.25669,0.775886 -0.43765,1.590381 -0.43765,2.42166 0,5.947581 6.9538,10.707822 15.58032,10.707822 8.62652,0 15.55114,-4.760241 15.55114,-10.707822 0,-0.82776 -0.15388,-1.648784 -0.40847,-2.42166 l -14.52996,0 c 1.71775,0.228901 3.1219,1.1758 3.1219,2.42166 0,1.410252 -1.68914,2.567543 -3.73461,2.567543 -2.04546,0 -3.73461,-1.157291 -3.73461,-2.567543 0,-1.24586 1.40415,-2.192759 3.1219,-2.42166 l -14.52996,0 z" />
        <path
           style="fill:url(#linearGradient10353);fill-rule:nonzero;stroke:none"
           id="path3049"
           d="m 354.91484,79.666743 c -0.16111,0.621632 -0.29177,1.270968 -0.29177,1.925657 0,5.947581 6.9538,10.707826 15.58032,10.707826 8.62652,0 15.55114,-4.760245 15.55114,-10.707826 0,-0.654689 -0.13066,-1.304025 -0.29176,-1.925657 l -30.54793,0 z" />
        <path
           d="m 354.91484,79.666743 c -0.16111,0.621632 -0.29177,1.270968 -0.29177,1.925657 0,5.947581 6.9538,10.707826 15.58032,10.707826 8.62652,0 15.55114,-4.760245 15.55114,-10.707826 0,-0.654689 -0.13066,-1.304025 -0.29176,-1.925657 l -30.54793,0 z"
           id="path4132"
           style="opacity:0.41000001;fill:none;stroke:#000000;stroke-width:0.87798172;stroke-miterlimit:4;stroke-opacity:1" />
      </g>
      <rect
         style="fill:#000000;fill-opacity:1;stroke:none"
         id="rect3146"
         width="38"
         height="1.072414"
         x="481"
         y="118" />
    </g>
    <rect
       style="opacity:0.28155338;fill:#000000;fill-opacity:1;stroke:none;display:inline;enable-background:new"
       id="rect4145"
       width="38"
       height="1"
       x="4.6979299"
       y="35.968475" />
  </g>
</svg>
