<?xml version="1.0" encoding="UTF-8" standalone="no"?>
<svg xmlns="http://www.w3.org/2000/svg" xmlns:xlink="http://www.w3.org/1999/xlink" xmlns:sodipodi="http://sodipodi.sourceforge.net/DTD/sodipodi-0.dtd" xmlns:inkscape="http://www.inkscape.org/namespaces/inkscape" height="48" width="48" version="1.0">
 <metadata id="metadata39"/>
 <defs id="defs3788">
  <linearGradient inkscape:collect="always" id="linearGradient4109">
   <stop id="stop4111"/>
   <stop offset="1" id="stop4113" stop-opacity="0"/>
  </linearGradient>
  <linearGradient x1="17.741" y1="24.05" gradientTransform="matrix(0.99778,0,0,0.88551429,0.053179,4.2043715)" x2="11.218" gradientUnits="userSpaceOnUse" y2="12.883" id="linearGradient4097">
   <stop id="stop4099" stop-color="#acacac"/>
   <stop id="stop4101" offset="0.25" stop-color="#b6b6b6"/>
   <stop id="stop4103" offset="0.25" stop-color="#d9d9d9"/>
   <stop offset="1" id="stop4105" stop-color="#d4d4d4"/>
  </linearGradient>
  <linearGradient id="linearGradient3861" y2="12.883" gradientUnits="userSpaceOnUse" x2="11.218" gradientTransform="matrix(0.99778,0,0,0.88551429,0.053179,4.2043715)" y1="24.05" x1="17.741">
   <stop id="stop3863" stop-color="#c5c5c5"/>
   <stop offset="0.083" id="stop3865" stop-color="#cfcfcf"/>
   <stop offset="0.083" id="stop3867" stop-color="#d9d9d9"/>
   <stop id="stop3869" offset="1" stop-color="#d4d4d4"/>
  </linearGradient>
  <linearGradient x1="17.741" y1="24.05" gradientTransform="matrix(0.99778,0,0,0.88551429,0.053179,4.2043715)" x2="11.218" gradientUnits="userSpaceOnUse" y2="12.883" id="linearGradient3844">
   <stop id="stop3846" stop-color="#c5c5c5"/>
   <stop id="stop3848" offset="0.118" stop-color="#cdcdcd"/>
   <stop id="stop3850" offset="0.118" stop-color="#bebebe"/>
   <stop offset="1" id="stop3852" stop-color="#e1e1e1"/>
  </linearGradient>
  <radialGradient r="23" gradientTransform="matrix(1.1924,0.53139429,-0.49419,0.81474,3.4847,3.6991715)" cx="14.237" cy="12.595" gradientUnits="userSpaceOnUse" id="radialGradient3841">
   <stop id="stop3843" stop-color="#f5f5f5"/>
   <stop offset="1" id="stop3845" stop-color="#e1e1e1"/>
  </radialGradient>
  <linearGradient id="linearGradient4028">
   <stop id="stop4030" stop-color="#888888"/>
   <stop offset="1" id="stop4032" stop-color="#282828"/>
  </linearGradient>
  <linearGradient id="linearGradient5060">
   <stop id="stop5062"/>
   <stop id="stop5064" offset="1" stop-opacity="0"/>
  </linearGradient>
  <radialGradient id="radialGradient2857" gradientUnits="userSpaceOnUse" cy="42" cx="24" gradientTransform="matrix(.90476 1.019e-7 -2.6817e-8 .23810 2.2857 30)" r="21">
   <stop id="stop6312" stop-color="#fff"/>
   <stop id="stop6314" offset="1" stop-color="#fff" stop-opacity="0"/>
  </radialGradient>
  <radialGradient id="radialGradient2862" gradientUnits="userSpaceOnUse" cy="12.595" cx="14.237" gradientTransform="matrix(1.1924,0.53139429,-0.49419,0.81474,3.4847,3.6991715)" r="23">
   <stop id="stop7064" stop-color="#e2e2e4"/>
   <stop id="stop7060" offset="1" stop-color="#c9c9ca"/>
  </radialGradient>
  <linearGradient id="linearGradient2864" y2="12.883" gradientUnits="userSpaceOnUse" x2="11.218" gradientTransform="matrix(0.99778,0,0,0.88551429,0.053179,4.2043715)" y1="24.05" x1="17.741">
   <stop id="stop3486" stop-color="#9c9c9c"/>
   <stop offset="0.25" id="stop3842" stop-color="#5d5d5d"/>
   <stop offset="0.5" id="stop3840" stop-color="#717171"/>
   <stop id="stop3488" offset="1" stop-color="#bebebe"/>
  </linearGradient>
  <linearGradient id="linearGradient2868" y2="40.704" gradientUnits="userSpaceOnUse" x2="28.375" gradientTransform="matrix(1.0002,0,0,0.25022851,-5.0044,27.114611)" y1="50.3" x1="28.438">
   <stop id="stop2223" stop-color="#aaa"/>
   <stop id="stop2219" offset="1" stop-color="#646464"/>
  </linearGradient>
  <radialGradient id="radialGradient2871" xlink:href="#linearGradient5060" gradientUnits="userSpaceOnUse" cy="486.65" cx="605.71" gradientTransform="matrix(-0.044847,0,0,0.020588,32.611,32.451)" r="117.14"/>
  <radialGradient id="radialGradient2874" xlink:href="#linearGradient5060" gradientUnits="userSpaceOnUse" cy="486.65" cx="605.71" gradientTransform="matrix(0.044847,0,0,0.020588,15.389,32.451)" r="117.14"/>
  <linearGradient id="linearGradient2877" y2="609.51" gradientUnits="userSpaceOnUse" x2="0" gradientTransform="matrix(0.076357,0,0,0.020588,-3.5974,32.451)" y1="366.65">
   <stop id="stop5050" stop-opacity="0"/>
   <stop id="stop5056" offset="0.5"/>
   <stop id="stop5052" offset="1" stop-opacity="0"/>
  </linearGradient>
  <linearGradient id="linearGradient3155-40-33">
   <stop id="stop2847" stop-color="#1b1b1b"/>
   <stop offset="0.135" id="stop2849" stop-color="#f3f3f3"/>
   <stop id="stop2851" offset="0.202" stop-color="#b6b6b6"/>
   <stop offset="0.27" id="stop2853" stop-color="#ffffff"/>
   <stop id="stop2855" offset="0.447" stop-color="#9d9d9d"/>
   <stop offset="0.571" id="stop2857" stop-color="#a6a6a6"/>
   <stop id="stop2859" offset="0.72" stop-color="#e5e5e5"/>
   <stop id="stop2861" offset="1" stop-color="#1b1b1b"/>
  </linearGradient>
  <linearGradient id="linearGradient3191-577-747-672">
   <stop id="stop2865" stop-color="#5e5e5e"/>
   <stop id="stop2867" offset="1" stop-color="#5a5a5a"/>
  </linearGradient>
  <linearGradient id="linearGradient3155-40">
   <stop id="stop2541" stop-color="#181818"/>
   <stop offset="0.135" id="stop2543" stop-color="#dbdbdb"/>
   <stop id="stop2545" offset="0.202" stop-color="#a4a4a4"/>
   <stop offset="0.27" id="stop2547" stop-color="#ffffff"/>
   <stop id="stop2549" offset="0.447" stop-color="#8d8d8d"/>
   <stop offset="0.571" id="stop2551" stop-color="#959595"/>
   <stop id="stop2553" offset="0.72" stop-color="#cecece"/>
   <stop id="stop2555" offset="1" stop-color="#181818"/>
  </linearGradient>
  <linearGradient id="linearGradient3319">
   <stop id="stop3321" stop-color="#7f96af"/>
   <stop offset="1" id="stop3323" stop-color="#485c73"/>
  </linearGradient>
  <linearGradient id="linearGradient4642">
   <stop id="stop4644" stop-color="#4e535a"/>
   <stop offset="0.16" id="stop4646" stop-color="#151c20"/>
   <stop id="stop4648" offset="0.167" stop-color="#4b5f76"/>
   <stop offset="1" id="stop4650" stop-color="#4b5f76"/>
  </linearGradient>
  <linearGradient id="linearGradient8967">
   <stop id="stop8969" stop-color="#bdccdd"/>
   <stop id="stop8971" offset="1" stop-color="#506985"/>
  </linearGradient>
  <linearGradient id="linearGradient5048">
   <stop id="stop5050-3" stop-opacity="0"/>
   <stop id="stop5056-6" offset="0.5"/>
   <stop offset="1" id="stop5052-5" stop-opacity="0"/>
  </linearGradient>
  <linearGradient inkscape:collect="always" xlink:href="#linearGradient3155-40" id="linearGradient3234" gradientUnits="userSpaceOnUse" gradientTransform="matrix(0.8239774,-0.8548421,0.7471754,0.7309632,-88.855277,1.674494)" y1="25.357" x2="0" y2="31.21"/>
  <linearGradient inkscape:collect="always" xlink:href="#linearGradient3155-40-33" id="linearGradient3236" gradientUnits="userSpaceOnUse" gradientTransform="matrix(0.8006848,-0.8306768,0.8744329,0.8554595,-91.49015,-1.532335)" x1="10.869" y1="25.08" x2="11.08" y2="30.467"/>
  <linearGradient inkscape:collect="always" xlink:href="#linearGradient3191-577-747-672" id="linearGradient3238" gradientUnits="userSpaceOnUse" gradientTransform="matrix(0.6334257,-0.05500901,-0.03910351,0.6392777,-64.706197,-9.126561)" x1="5.712" y1="37.817" x2="9.522" y2="41.39"/>
  <radialGradient inkscape:collect="always" xlink:href="#linearGradient4028" id="radialGradient4034" cx="18.466" cy="30.27" r="15.75" gradientTransform="matrix(1.3672154,0.1004445,-0.10595236,1.4421864,-3.5736635,-14.51376)" gradientUnits="userSpaceOnUse"/>
  <linearGradient inkscape:collect="always" xlink:href="#linearGradient2864" id="linearGradient4044" y1="56.628" x2="0" y2="33.69" gradientUnits="userSpaceOnUse" gradientTransform="translate(0,3)"/>
  <linearGradient inkscape:collect="always" xlink:href="#linearGradient2864" id="linearGradient4046" gradientUnits="userSpaceOnUse" gradientTransform="matrix(0.99778,0,0,0.88551429,0.053179,7.2043715)" x1="17.741" y1="24.05" x2="11.218" y2="12.883"/>
  <linearGradient inkscape:collect="always" xlink:href="#linearGradient3844" id="linearGradient3838" gradientUnits="userSpaceOnUse" gradientTransform="translate(-0.25,3)" x1="25.1" y1="39.834" x2="25.01" y2="15.04"/>
  <linearGradient inkscape:collect="always" xlink:href="#linearGradient2877" id="linearGradient3883" gradientUnits="userSpaceOnUse" gradientTransform="matrix(0.076357,0,0,0.020588,-3.5974,32.451)" y1="366.65" x2="0" y2="609.51"/>
  <linearGradient id="linearGradient3847">
   <stop id="stop3849" stop-color="#f2f2f2"/>
   <stop offset="1" id="stop3851" stop-color="#ebebeb" stop-opacity="0"/>
  </linearGradient>
  <linearGradient inkscape:collect="always" xlink:href="#linearGradient4109" id="linearGradient3916" gradientUnits="userSpaceOnUse" gradientTransform="matrix(-1,0,0,1,352.87279,-65.715531)" x1="328.63" y1="74.43" x2="327.48" y2="67.36"/>
  <linearGradient inkscape:collect="always" xlink:href="#linearGradient4097" id="linearGradient4072" gradientUnits="userSpaceOnUse" gradientTransform="translate(-0.25,0.96847698)" y1="39" x2="0" y2="15"/>
  <radialGradient inkscape:collect="always" xlink:href="#linearGradient5060" id="radialGradient4075" gradientUnits="userSpaceOnUse" gradientTransform="matrix(-0.044847,0,0,0.020588,32.611,31.451)" cx="605.71" cy="486.65" r="117.14"/>
  <radialGradient inkscape:collect="always" xlink:href="#linearGradient5060" id="radialGradient4078" gradientUnits="userSpaceOnUse" gradientTransform="matrix(0.044847,0,0,0.020588,15.389,31.451)" cx="605.71" cy="486.65" r="117.14"/>
  <linearGradient inkscape:collect="always" xlink:href="#linearGradient2877" id="linearGradient4081" gradientUnits="userSpaceOnUse" gradientTransform="matrix(0.076357,0,0,0.020588,-3.5974,31.451)" y1="366.65" x2="0" y2="609.51"/>
  <linearGradient inkscape:collect="always" xlink:href="#linearGradient4109" id="linearGradient4115" y1="35.625" x2="0" y2="46.13" gradientUnits="userSpaceOnUse"/>
  <clipPath id="clipPath4121">
   <path id="path4123" d="M 3.3977476,37 4,40 43.441942,40 44,37 z"/>
  </clipPath>
  <linearGradient inkscape:collect="always" xlink:href="#linearGradient4097" id="linearGradient4169" gradientUnits="userSpaceOnUse" gradientTransform="translate(-0.25,3)" y1="39" x2="0" y2="15"/>
  <linearGradient inkscape:collect="always" xlink:href="#linearGradient4109" id="linearGradient4176" gradientUnits="userSpaceOnUse" y1="35.625" x2="0" y2="46.13" gradientTransform="translate(-1,-2.031523)"/>
  <linearGradient inkscape:collect="always" xlink:href="#linearGradient4109" id="linearGradient10345" gradientUnits="userSpaceOnUse" gradientTransform="matrix(1.1887917,0,0,0.993629,471.22585,89.224731)" y1="28.434" x2="0" y2="32.938"/>
  <linearGradient inkscape:collect="always" xlink:href="#linearGradient2345" id="linearGradient10349" gradientUnits="userSpaceOnUse" gradientTransform="matrix(0.203753,0,0,0.168196,495.02326,115.04392)" x1="26.333" y1="34.17" x2="26.19" y2="21.988"/>
  <linearGradient id="linearGradient2345">
   <stop id="stop2347" stop-color="#d9d9d9"/>
   <stop id="stop2349" offset="1" stop-color="#eeeeee" stop-opacity="0"/>
  </linearGradient>
  <linearGradient inkscape:collect="always" xlink:href="#aigrd1" id="linearGradient10351" gradientUnits="userSpaceOnUse" gradientTransform="matrix(0.8893325,0,0,0.6131526,348.85507,67.415983)" x1="14.997" y1="11.189" x2="32.511" y2="34.31"/>
  <linearGradient gradientUnits="userSpaceOnUse" id="aigrd1" x1="14.997" x2="32.511" y1="11.189" y2="34.31">
   <stop id="stop3034" stop-color="#ebebeb"/>
   <stop id="stop3036" offset="0.5" stop-color="#ffffff"/>
   <stop id="stop3038" offset="1" stop-color="#ebebeb"/>
  </linearGradient>
  <linearGradient inkscape:collect="always" xlink:href="#linearGradient2345" id="linearGradient10353" gradientUnits="userSpaceOnUse" gradientTransform="matrix(0.7470392,0,0,0.5150482,352.01088,68.703601)" x1="26.333" y1="34.17" x2="26.19" y2="21.988"/>
 </defs>
 <g inkscape:groupmode="layer" id="layer1" inkscape:label="Background">
  <g id="g4092" transform="translate(0,-2.031523)">
   <rect x="5.565" y="39" width="36.869" height="5" id="rect2723" opacity="0.3" fill="url(#linearGradient4081)"/>
   <path inkscape:connector-curvature="0" d="m 42.417,39 v 4.9997 c 2.309,0.009 5.583,-1.12 5.583,-2.5 0,-1.38 -2.577,-2.5 -5.583,-2.5 z" id="path2725" opacity="0.3" fill="url(#radialGradient4078)"/>
   <path inkscape:connector-curvature="0" d="m 5.5833,39 v 4.9997 C 3.2738,44.0087 0,42.8797 0,41.4997 c 0,-1.38 2.5773,-2.5 5.5833,-2.5 z" id="path2727" opacity="0.3" fill="url(#radialGradient4075)"/>
  </g>
  <path d="m 9.75,12.468477 c -0.8098,0 -2.03495,0.167807 -2.21875,0.84375 L 1.25,33.968477 l 1,5.5 43.09375,0 0.90625,-5.53125 -6.78125,-20.625 c -0.16,-0.5478 -1.05975,-0.84375 -1.71875,-0.84375 z" id="rect6431" inkscape:connector-curvature="0" sodipodi:nodetypes="sccccccss" fill="url(#linearGradient4072)" fill-rule="evenodd"/>
  <path sodipodi:nodetypes="sccccccss" inkscape:connector-curvature="0" id="path3873" d="m 9.75,12.468477 c -0.8098,0 -2.03495,0.167807 -2.21875,0.84375 L 1.25,33.968477 l 1,5.5 43.09375,0 0.90625,-5.53125 -6.78125,-20.625 c -0.16,-0.5478 -1.05975,-0.84375 -1.71875,-0.84375 z" opacity="0.41" fill="none" stroke="#000000"/>
  <rect id="rect3875" width="44" height="1" x="2" y="32.968" opacity="0.41" fill="#ffffff" rx="0.5"/>
  <path d="m 4.3977476,34.968477 0.3522524,2 37.941942,0 0.308058,-2 z" id="path4107" inkscape:connector-curvature="0" sodipodi:nodetypes="ccccc" opacity="0.8" fill="url(#linearGradient4176)"/>
  <path d="m 5.1174175,36.468477 36.7651655,0 c 0.203549,0 0.367417,0.163868 0.367417,0.367417 l 0,0.265166 c 0,0.203549 -0.163868,0.367417 -0.367417,0.367417 l -36.7651655,0 C 4.9138682,37.468477 4.75,37.304609 4.75,37.10106 l 0,-0.265166 c 0,-0.203549 0.1638682,-0.367417 0.3674175,-0.367417 z" id="rect4138" inkscape:connector-curvature="0" sodipodi:nodetypes="sssssssss" opacity="0.4" fill="#ffffff"/>
  <path d="m 9.75,12.968477 c -0.3703633,0 -0.8617687,0.0514 -1.21875,0.15625 C 8.1742687,13.229581 8.0208424,13.360577 8,13.437227 l 0,0.03125 -6.21875,20.5 0.125,0.625 L 8,14.468477 8,14.437227 c 0.020842,-0.07665 0.1742687,-0.207646 0.53125,-0.3125 0.3569813,-0.104854 0.8483867,-0.15625 1.21875,-0.15625 l 28,0 c 0.254652,0 0.591508,0.07771 0.84375,0.1875 0.252242,0.109788 0.390172,0.226203 0.40625,0.28125 l 0,0.03125 6.625,20.125 0.09375,-0.65625 L 39,13.468477 l 0,-0.03125 c -0.01608,-0.05505 -0.154008,-0.171462 -0.40625,-0.28125 -0.252242,-0.10979 -0.589098,-0.1875 -0.84375,-0.1875 l -28,0 z" id="path4161" inkscape:connector-curvature="0" opacity="0.5" fill="#ffffff" fill-rule="evenodd"/>
  <g id="g4042" transform="matrix(1,0,0,0.9324756,-476.30207,-75.063643)">
   <rect y="119" x="481" height="1" width="38" id="rect3920" opacity="0.383" fill="#ffffff"/>
   <path d="m 502.50593,119.28201 16.34589,0 c 0,0 0.64369,1.11385 -0.0743,3.3535 0,0 -15.82578,-0.49682 -15.82578,-0.49682 2.19969,-1.83857 -0.4458,-2.85668 -0.4458,-2.85668 z" id="path2325" sodipodi:nodetypes="ccccc" inkscape:connector-curvature="0" opacity="0.36" fill="url(#linearGradient10345)" fill-rule="evenodd"/>
   <path d="m 497.49595,119.28201 -16.34589,0 c 0,0 -0.64368,1.11385 0.0743,3.3535 0,0 15.82579,-0.49682 15.82579,-0.49682 -2.1997,-1.83857 0.4458,-2.85668 0.4458,-2.85668 z" id="path2327" sodipodi:nodetypes="ccccc" inkscape:connector-curvature="0" opacity="0.36" fill="url(#linearGradient10345)" fill-rule="evenodd"/>
   <path d="m 495.81531,118.62409 c -0.0439,0.203 -0.0796,0.41504 -0.0796,0.62885 0,1.94226 1.89663,3.49678 4.24949,3.49678 2.35286,0 4.24154,-1.55452 4.24154,-3.49678 0,-0.21381 -0.0356,-0.42585 -0.0796,-0.62885 l -8.33187,0 z" id="path3922" sodipodi:nodetypes="cccccc" inkscape:connector-curvature="0" fill="url(#linearGradient10349)" stroke="#808080" stroke-width="0.967"/>
   <g transform="matrix(1.1887917,0,0,1.0201309,59.903885,37.316245)" id="g3684">
    <path d="m 355.06072,79.17074 c -0.25669,0.775886 -0.43765,1.590381 -0.43765,2.42166 0,5.947581 6.9538,10.707822 15.58032,10.707822 8.62652,0 15.55114,-4.760241 15.55114,-10.707822 0,-0.82776 -0.15388,-1.648784 -0.40847,-2.42166 l -14.52996,0 c 1.71775,0.228901 3.1219,1.1758 3.1219,2.42166 0,1.410252 -1.68914,2.567543 -3.73461,2.567543 -2.04546,0 -3.73461,-1.157291 -3.73461,-2.567543 0,-1.24586 1.40415,-2.192759 3.1219,-2.42166 l -14.52996,0 z" id="path3040" inkscape:connector-curvature="0" fill="url(#linearGradient10351)"/>
    <path d="m 354.91484,79.666743 c -0.16111,0.621632 -0.29177,1.270968 -0.29177,1.925657 0,5.947581 6.9538,10.707826 15.58032,10.707826 8.62652,0 15.55114,-4.760245 15.55114,-10.707826 0,-0.654689 -0.13066,-1.304025 -0.29176,-1.925657 l -30.54793,0 z" id="path3049" sodipodi:nodetypes="cccccc" inkscape:connector-curvature="0" fill="url(#linearGradient10353)"/>
    <path inkscape:connector-curvature="0" sodipodi:nodetypes="cccccc" id="path4132" d="m 354.91484,79.666743 c -0.16111,0.621632 -0.29177,1.270968 -0.29177,1.925657 0,5.947581 6.9538,10.707826 15.58032,10.707826 8.62652,0 15.55114,-4.760245 15.55114,-10.707826 0,-0.654689 -0.13066,-1.304025 -0.29176,-1.925657 l -30.54793,0 z" opacity="0.41" fill="none" stroke="#000000" stroke-width="0.878"/>
   </g>
   <rect y="118" x="481" height="1.072" width="38" id="rect3146"/>
  </g>
  <rect y="35.968" x="4.698" height="1" width="38" id="rect4145" opacity="0.282"/>
 </g>
</svg>
