<?xml version="1.0" encoding="UTF-8" standalone="no"?>
<svg
   xmlns:dc="http://purl.org/dc/elements/1.1/"
   xmlns:cc="http://creativecommons.org/ns#"
   xmlns:rdf="http://www.w3.org/1999/02/22-rdf-syntax-ns#"
   xmlns:svg="http://www.w3.org/2000/svg"
   xmlns="http://www.w3.org/2000/svg"
   xmlns:xlink="http://www.w3.org/1999/xlink"
   version="1.0"
   width="48"
   height="48"
   id="svg3786">
  <metadata
     id="metadata39">
    <rdf:RDF>
      <cc:Work
         rdf:about="">
        <dc:format>image/svg+xml</dc:format>
        <dc:type
           rdf:resource="http://purl.org/dc/dcmitype/StillImage" />
        <dc:title />
      </cc:Work>
    </rdf:RDF>
  </metadata>
  <defs
     id="defs3788">
    <linearGradient
       x1="17.741"
       y1="24.05"
       gradientTransform="matrix(0.99778,0,0,0.88551429,0.053179,4.2043715)"
       x2="11.218"
       gradientUnits="userSpaceOnUse"
       y2="12.883"
       id="linearGradient3185">
      <stop
         offset="0"
         style="stop-color:#acacac;stop-opacity:1;"
         id="stop3187" />
      <stop
         id="stop3189"
         style="stop-color:#b6b6b6;stop-opacity:1;"
         offset="0.20833333" />
      <stop
         id="stop3191"
         style="stop-color:#d9d9d9;stop-opacity:1;"
         offset="0.20833333" />
      <stop
         offset="1"
         style="stop-color:#d4d4d4;stop-opacity:1;"
         id="stop3193" />
    </linearGradient>
    <linearGradient
       x1="17.741"
       y1="24.05"
       gradientTransform="matrix(0.99778,0,0,0.88551429,0.053179,4.2043715)"
       x2="11.218"
       gradientUnits="userSpaceOnUse"
       y2="12.883"
       id="linearGradient3175">
      <stop
         offset="0"
         style="stop-color:#acacac;stop-opacity:1;"
         id="stop3177" />
      <stop
         id="stop3179"
         style="stop-color:#b6b6b6;stop-opacity:1;"
         offset="0.16666667" />
      <stop
         id="stop3181"
         style="stop-color:#d9d9d9;stop-opacity:1;"
         offset="0.16666667" />
      <stop
         offset="1"
         style="stop-color:#d4d4d4;stop-opacity:1;"
         id="stop3183" />
    </linearGradient>
    <linearGradient
       x1="17.741"
       y1="24.05"
       gradientTransform="matrix(0.99778,0,0,0.88551429,0.053179,4.2043715)"
       x2="11.218"
       gradientUnits="userSpaceOnUse"
       y2="12.883"
       id="linearGradient3165">
      <stop
         offset="0"
         style="stop-color:#acacac;stop-opacity:1;"
         id="stop3167" />
      <stop
         id="stop3169"
         style="stop-color:#b6b6b6;stop-opacity:1;"
         offset="0.125" />
      <stop
         id="stop3171"
         style="stop-color:#d9d9d9;stop-opacity:1;"
         offset="0.125" />
      <stop
         offset="1"
         style="stop-color:#d4d4d4;stop-opacity:1;"
         id="stop3173" />
    </linearGradient>
    <linearGradient
       id="linearGradient5060">
      <stop
         offset="0"
         id="stop5062" />
      <stop
         offset="1"
         style="stop-opacity:0"
         id="stop5064" />
    </linearGradient>
    <linearGradient
       x1="302.86"
       y1="366.65"
       gradientTransform="matrix(0.076357,0,0,0.020588,-3.5974,32.451)"
       x2="302.86"
       gradientUnits="userSpaceOnUse"
       y2="609.51"
       id="linearGradient2877">
      <stop
         offset="0"
         style="stop-opacity:0"
         id="stop5050" />
      <stop
         offset=".5"
         id="stop5056" />
      <stop
         offset="1"
         style="stop-opacity:0"
         id="stop5052" />
    </linearGradient>
    <radialGradient
       r="117.14"
       cy="486.65"
       cx="605.71"
       gradientTransform="matrix(-0.044847,0,0,0.020588,32.611,31.451)"
       gradientUnits="userSpaceOnUse"
       id="radialGradient3126"
       xlink:href="#linearGradient5060" />
    <radialGradient
       r="117.14"
       cy="486.65"
       cx="605.71"
       gradientTransform="matrix(0.044847,0,0,0.020588,15.389,31.451)"
       gradientUnits="userSpaceOnUse"
       id="radialGradient3129"
       xlink:href="#linearGradient5060" />
    <linearGradient
       y2="15"
       x2="25.25"
       y1="39"
       x1="25.25"
       gradientTransform="translate(-0.25,3)"
       gradientUnits="userSpaceOnUse"
       id="linearGradient3141"
       xlink:href="#linearGradient3185" />
    <linearGradient
       y2="15"
       x2="25.25"
       y1="39"
       x1="25.25"
       gradientTransform="translate(-0.25,-4)"
       gradientUnits="userSpaceOnUse"
       id="linearGradient3150"
       xlink:href="#linearGradient3175" />
    <linearGradient
       y2="15"
       x2="25.25"
       y1="39"
       x1="25.25"
       gradientTransform="translate(-0.25,-11)"
       gradientUnits="userSpaceOnUse"
       id="linearGradient3159"
       xlink:href="#linearGradient3165" />
    <linearGradient
       y2="609.51"
       x2="302.86"
       y1="366.65"
       x1="302.86"
       gradientTransform="matrix(0.076357,0,0,0.020588,-3.5974,31.451)"
       gradientUnits="userSpaceOnUse"
       id="linearGradient3195"
       xlink:href="#linearGradient2877" />
  </defs>
  <g
     style="display:inline"
     id="layer1">
    <path
       id="rect2723"
       d="m 5.5653,40 36.868999,0 0,4 L 5.5653,44 z"
       style="opacity:0.3;fill:url(#linearGradient3195)" />
    <path
       d="m 42.417,40 0,3.9997 c 2.309,0.009 5.583,-1.12 5.583,-2.5 0,-1.38 -2.577,-1.5 -5.583,-1.5 z"
       style="opacity:0.3;fill:url(#radialGradient3129)"
       id="path2725" />
    <path
       d="m 5.5833,40 0,3.9997 C 3.2738,44.0087 0,42.8797 0,41.4997 c 0,-1.38 2.5773,-1.5 5.5833,-1.5 z"
       style="opacity:0.3;fill:url(#radialGradient3126)"
       id="path2727" />
    <path
       id="rect6431"
       d="m 9.75,17.5 c -0.8098,0 -2.03495,0.167807 -2.21875,0.84375 L 1.25,37 l 1,4.5 43.09375,0 0.90625,-4.53125 -6.78125,-18.625 C 39.30875,17.79595 38.409,17.5 37.75,17.5 z"
       style="fill:url(#linearGradient3141);fill-opacity:1;fill-rule:evenodd;stroke:none;enable-background:new" />
    <path
       style="fill:none;stroke:none;enable-background:new"
       d="m 10,17.5 c -0.8098,0 -2.03495,0.167807 -2.21875,0.84375 L 1.5,37.46875 46.5,37.5 39.71875,18.34375 C 39.55875,17.79595 38.659,17.5 38,17.5 z m 36.5,20 -45,0 1,5 43.09375,0 z"
       id="path3856" />
    <path
       style="opacity:0.41000001;fill:none;stroke:#000000;stroke-opacity:1;enable-background:new"
       d="m 9.75,17.5 c -0.8098,0 -2.03495,0.167807 -2.21875,0.84375 L 1.25,37 l 1,4.5 43.09375,0 0.90625,-4.53125 -6.78125,-18.625 C 39.30875,17.79595 38.409,17.5 37.75,17.5 z"
       id="path3873" />
    <path
       id="rect3875"
       d="m 2.5,36 43,0 c 0.277,0 0.5,0.223 0.5,0.5 0,0.277 -0.223,0.5 -0.5,0.5 l -43,0 C 2.223,37 2,36.777 2,36.5 2,36.223 2.223,36 2.5,36 z"
       style="opacity:0.41000001;fill:#ffffff;fill-opacity:1;stroke:none" />
    <path
       id="path4161"
       d="M 9.75,18 C 9.3796367,18 8.8882313,18.051396 8.53125,18.15625 8.1742687,18.261104 8.0208424,18.3921 8,18.46875 L 8,18.5 1.78125,37 1.90625,37.625 8,19.5 8,19.46875 C 8.0208424,19.3921 8.1742687,19.261104 8.53125,19.15625 8.8882313,19.051396 9.3796367,19 9.75,19 l 28,0 c 0.254652,0 0.591508,0.07771 0.84375,0.1875 0.252242,0.109788 0.390172,0.226203 0.40625,0.28125 L 39,19.5 45.625,37.625 45.71875,36.96875 39,18.5 39,18.46875 C 38.983922,18.413703 38.845992,18.297288 38.59375,18.1875 38.341508,18.07771 38.004652,18 37.75,18 z"
       style="opacity:0.5;fill:#ffffff;fill-opacity:1;fill-rule:evenodd;stroke:none;enable-background:new" />
    <path
       style="font-size:medium;font-style:normal;font-variant:normal;font-weight:normal;font-stretch:normal;text-indent:0;text-align:start;text-decoration:none;line-height:normal;letter-spacing:normal;word-spacing:normal;text-transform:none;direction:ltr;block-progression:tb;writing-mode:lr-tb;text-anchor:start;baseline-shift:baseline;opacity:0.4;color:#000000;fill:#ffffff;fill-opacity:1;stroke:none;stroke-width:0.25;marker:none;visibility:visible;display:inline;overflow:visible;enable-background:accumulate;font-family:Sans;-inkscape-font-specification:Sans"
       d="m 9.5,19.375 c -0.3436975,0 -0.625,0.281303 -0.625,0.625 0,0.343697 0.2813025,0.625 0.625,0.625 0.3436975,0 0.625,-0.281303 0.625,-0.625 0,-0.343697 -0.2813025,-0.625 -0.625,-0.625 z m 28,0 c -0.343697,0 -0.625,0.281303 -0.625,0.625 0,0.343697 0.281303,0.625 0.625,0.625 0.343697,0 0.625,-0.281303 0.625,-0.625 0,-0.343697 -0.281303,-0.625 -0.625,-0.625 z m -33,15 c -0.3436975,0 -0.625,0.281303 -0.625,0.625 0,0.343697 0.2813025,0.625 0.625,0.625 0.3436975,0 0.625,-0.281303 0.625,-0.625 0,-0.343697 -0.2813025,-0.625 -0.625,-0.625 z m 38,0 c -0.343697,0 -0.625,0.281303 -0.625,0.625 0,0.343697 0.281303,0.625 0.625,0.625 0.343697,0 0.625,-0.281303 0.625,-0.625 0,-0.343697 -0.281303,-0.625 -0.625,-0.625 z"
       id="path3912" />
    <path
       id="path3905"
       d="m 9.5,18.875 c -0.3436975,0 -0.625,0.281303 -0.625,0.625 0,0.343697 0.2813025,0.625 0.625,0.625 0.3436975,0 0.625,-0.281303 0.625,-0.625 0,-0.343697 -0.2813025,-0.625 -0.625,-0.625 z m 28,0 c -0.343697,0 -0.625,0.281303 -0.625,0.625 0,0.343697 0.281303,0.625 0.625,0.625 0.343697,0 0.625,-0.281303 0.625,-0.625 0,-0.343697 -0.281303,-0.625 -0.625,-0.625 z m -33,15 c -0.3436975,0 -0.625,0.281303 -0.625,0.625 0,0.343697 0.2813025,0.625 0.625,0.625 0.3436975,0 0.625,-0.281303 0.625,-0.625 0,-0.343697 -0.2813025,-0.625 -0.625,-0.625 z m 38,0 c -0.343697,0 -0.625,0.281303 -0.625,0.625 0,0.343697 0.281303,0.625 0.625,0.625 0.343697,0 0.625,-0.281303 0.625,-0.625 0,-0.343697 -0.281303,-0.625 -0.625,-0.625 z"
       style="font-size:medium;font-style:normal;font-variant:normal;font-weight:normal;font-stretch:normal;text-indent:0;text-align:start;text-decoration:none;line-height:normal;letter-spacing:normal;word-spacing:normal;text-transform:none;direction:ltr;block-progression:tb;writing-mode:lr-tb;text-anchor:start;baseline-shift:baseline;opacity:0.4;color:#000000;fill:#000000;fill-opacity:1;stroke:none;stroke-width:0.25;marker:none;visibility:visible;display:inline;overflow:visible;enable-background:accumulate;font-family:Sans;-inkscape-font-specification:Sans" />
    <path
       style="fill:url(#linearGradient3150);fill-opacity:1;fill-rule:evenodd;stroke:none;enable-background:new"
       d="m 9.75,10.5 c -0.8098,0 -2.03495,0.167807 -2.21875,0.84375 L 1.25,31 l 1,4.5 43.09375,0 0.90625,-4.53125 -6.78125,-19.625 C 39.30875,10.79595 38.409,10.5 37.75,10.5 z"
       id="path3117" />
    <path
       id="path3119"
       d="m 10,10.5 c -0.8098,0 -2.03495,0.167807 -2.21875,0.84375 L 1.5,31.46875 46.5,31.5 39.71875,11.34375 C 39.55875,10.79595 38.659,10.5 38,10.5 z m 36.5,21 -45,0 1,5 43.09375,0 z"
       style="fill:none;stroke:none;enable-background:new" />
    <path
       id="path3121"
       d="m 9.75,10.5 c -0.8098,0 -2.03495,0.167807 -2.21875,0.84375 L 1.25,31 l 1,4.5 43.09375,0 0.90625,-4.53125 -6.78125,-19.625 C 39.30875,10.79595 38.409,10.5 37.75,10.5 z"
       style="opacity:0.41000001;fill:none;stroke:#000000;stroke-opacity:1;enable-background:new" />
    <path
       id="rect3123"
       d="m 2.5,30 43,0 c 0.277,0 0.5,0.223 0.5,0.5 0,0.277 -0.223,0.5 -0.5,0.5 l -43,0 C 2.223,31 2,30.777 2,30.5 2,30.223 2.223,30 2.5,30 z"
       style="opacity:0.41000001;fill:#ffffff;fill-opacity:1;stroke:none" />
    <path
       style="opacity:0.5;fill:#ffffff;fill-opacity:1;fill-rule:evenodd;stroke:none;enable-background:new"
       d="M 9.75,11 C 9.3796367,11 8.8882313,11.051396 8.53125,11.15625 8.1742687,11.261104 8.0208424,11.3921 8,11.46875 L 8,11.5 1.78125,31 1.90625,31.625 8,12.5 8,12.46875 C 8.0208424,12.3921 8.1742687,12.261104 8.53125,12.15625 8.8882313,12.051396 9.3796367,12 9.75,12 l 28,0 c 0.254652,0 0.591508,0.07771 0.84375,0.1875 0.252242,0.109788 0.390172,0.226203 0.40625,0.28125 L 39,12.5 45.625,31.625 45.71875,30.96875 39,11.5 39,11.46875 C 38.983922,11.413703 38.845992,11.297288 38.59375,11.1875 38.341508,11.07771 38.004652,11 37.75,11 z"
       id="path3125" />
    <path
       id="path3127"
       d="m 9.5,12.375 c -0.3436975,0 -0.625,0.281303 -0.625,0.625 0,0.343697 0.2813025,0.625 0.625,0.625 0.3436975,0 0.625,-0.281303 0.625,-0.625 0,-0.343697 -0.2813025,-0.625 -0.625,-0.625 z m 28,0 c -0.343697,0 -0.625,0.281303 -0.625,0.625 0,0.343697 0.281303,0.625 0.625,0.625 0.343697,0 0.625,-0.281303 0.625,-0.625 0,-0.343697 -0.281303,-0.625 -0.625,-0.625 z m -33,16 c -0.3436975,0 -0.625,0.281303 -0.625,0.625 0,0.343697 0.2813025,0.625 0.625,0.625 0.3436975,0 0.625,-0.281303 0.625,-0.625 0,-0.343697 -0.2813025,-0.625 -0.625,-0.625 z m 38,0 c -0.343697,0 -0.625,0.281303 -0.625,0.625 0,0.343697 0.281303,0.625 0.625,0.625 0.343697,0 0.625,-0.281303 0.625,-0.625 0,-0.343697 -0.281303,-0.625 -0.625,-0.625 z"
       style="font-size:medium;font-style:normal;font-variant:normal;font-weight:normal;font-stretch:normal;text-indent:0;text-align:start;text-decoration:none;line-height:normal;letter-spacing:normal;word-spacing:normal;text-transform:none;direction:ltr;block-progression:tb;writing-mode:lr-tb;text-anchor:start;baseline-shift:baseline;opacity:0.4;color:#000000;fill:#ffffff;fill-opacity:1;stroke:none;stroke-width:0.25;marker:none;visibility:visible;display:inline;overflow:visible;enable-background:accumulate;font-family:Sans;-inkscape-font-specification:Sans" />
    <path
       style="font-size:medium;font-style:normal;font-variant:normal;font-weight:normal;font-stretch:normal;text-indent:0;text-align:start;text-decoration:none;line-height:normal;letter-spacing:normal;word-spacing:normal;text-transform:none;direction:ltr;block-progression:tb;writing-mode:lr-tb;text-anchor:start;baseline-shift:baseline;opacity:0.4;color:#000000;fill:#000000;fill-opacity:1;stroke:none;stroke-width:0.25;marker:none;visibility:visible;display:inline;overflow:visible;enable-background:accumulate;font-family:Sans;-inkscape-font-specification:Sans"
       d="m 9.5,11.875 c -0.3436975,0 -0.625,0.281303 -0.625,0.625 0,0.343697 0.2813025,0.625 0.625,0.625 0.3436975,0 0.625,-0.281303 0.625,-0.625 0,-0.343697 -0.2813025,-0.625 -0.625,-0.625 z m 28,0 c -0.343697,0 -0.625,0.281303 -0.625,0.625 0,0.343697 0.281303,0.625 0.625,0.625 0.343697,0 0.625,-0.281303 0.625,-0.625 0,-0.343697 -0.281303,-0.625 -0.625,-0.625 z m -33,16 c -0.3436975,0 -0.625,0.281303 -0.625,0.625 0,0.343697 0.2813025,0.625 0.625,0.625 0.3436975,0 0.625,-0.281303 0.625,-0.625 0,-0.343697 -0.2813025,-0.625 -0.625,-0.625 z m 38,0 c -0.343697,0 -0.625,0.281303 -0.625,0.625 0,0.343697 0.281303,0.625 0.625,0.625 0.343697,0 0.625,-0.281303 0.625,-0.625 0,-0.343697 -0.281303,-0.625 -0.625,-0.625 z"
       id="path3129" />
    <path
       id="path3135"
       d="M 9.75,3.5 C 8.9402,3.5 7.71505,3.667807 7.53125,4.34375 L 1.25,25 l 1,4.5 43.09375,0 L 46.25,24.96875 39.46875,4.34375 C 39.30875,3.79595 38.409,3.5 37.75,3.5 z"
       style="fill:url(#linearGradient3159);fill-opacity:1;fill-rule:evenodd;stroke:none;enable-background:new" />
    <path
       style="fill:none;stroke:none;enable-background:new"
       d="M 10,3.5 C 9.1902,3.5 7.96505,3.667807 7.78125,4.34375 L 1.5,25.46875 46.5,25.5 39.71875,4.34375 C 39.55875,3.79595 38.659,3.5 38,3.5 z m 36.5,22 -45,0 1,5 43.09375,0 z"
       id="path3137" />
    <path
       style="opacity:0.41000001;fill:none;stroke:#000000;stroke-opacity:1;enable-background:new"
       d="M 9.75,3.5 C 8.9402,3.5 7.71505,3.667807 7.53125,4.34375 L 1.25,25 l 1,4.5 43.09375,0 L 46.25,24.96875 39.46875,4.34375 C 39.30875,3.79595 38.409,3.5 37.75,3.5 z"
       id="path3139" />
    <path
       id="rect3141"
       d="m 2.5,24.125 43,0 c 0.277,0 0.5,0.223 0.5,0.5 0,0.277 -0.223,0.5 -0.5,0.5 l -43,0 c -0.277,0 -0.5,-0.223 -0.5,-0.5 0,-0.277 0.223,-0.5 0.5,-0.5 z"
       style="opacity:0.41000001;fill:#ffffff;fill-opacity:1;stroke:none" />
    <path
       id="path3143"
       d="M 9.75,4 C 9.3796367,4 8.8882313,4.051396 8.53125,4.15625 8.1742687,4.261104 8.0208424,4.3921 8,4.46875 L 8,4.5 1.78125,25 1.90625,25.625 8,5.5 8,5.46875 C 8.0208424,5.3921 8.1742687,5.261104 8.53125,5.15625 8.8882313,5.051396 9.3796367,5 9.75,5 l 28,0 c 0.254652,0 0.591508,0.07771 0.84375,0.1875 C 38.845992,5.297288 38.983922,5.413703 39,5.46875 L 39,5.5 45.625,25.625 45.71875,24.96875 39,4.5 39,4.46875 C 38.983922,4.413703 38.845992,4.297288 38.59375,4.1875 38.341508,4.07771 38.004652,4 37.75,4 z"
       style="opacity:0.5;fill:#ffffff;fill-opacity:1;fill-rule:evenodd;stroke:none;enable-background:new" />
    <path
       style="font-size:medium;font-style:normal;font-variant:normal;font-weight:normal;font-stretch:normal;text-indent:0;text-align:start;text-decoration:none;line-height:normal;letter-spacing:normal;word-spacing:normal;text-transform:none;direction:ltr;block-progression:tb;writing-mode:lr-tb;text-anchor:start;baseline-shift:baseline;opacity:0.4;color:#000000;fill:#ffffff;fill-opacity:1;stroke:none;stroke-width:0.25;marker:none;visibility:visible;display:inline;overflow:visible;enable-background:accumulate;font-family:Sans;-inkscape-font-specification:Sans"
       d="M 9.5,5.375 C 9.1563025,5.375 8.875,5.656303 8.875,6 8.875,6.343697 9.1563025,6.625 9.5,6.625 9.8436975,6.625 10.125,6.343697 10.125,6 10.125,5.656303 9.8436975,5.375 9.5,5.375 z m 28,0 c -0.343697,0 -0.625,0.281303 -0.625,0.625 0,0.343697 0.281303,0.625 0.625,0.625 0.343697,0 0.625,-0.281303 0.625,-0.625 0,-0.343697 -0.281303,-0.625 -0.625,-0.625 z m -33,17 c -0.3436975,0 -0.625,0.281303 -0.625,0.625 0,0.343697 0.2813025,0.625 0.625,0.625 0.3436975,0 0.625,-0.281303 0.625,-0.625 0,-0.343697 -0.2813025,-0.625 -0.625,-0.625 z m 38,0 c -0.343697,0 -0.625,0.281303 -0.625,0.625 0,0.343697 0.281303,0.625 0.625,0.625 0.343697,0 0.625,-0.281303 0.625,-0.625 0,-0.343697 -0.281303,-0.625 -0.625,-0.625 z"
       id="path3145" />
    <path
       id="path3147"
       d="m 9.5,4.875 c -0.3436975,0 -0.625,0.281303 -0.625,0.625 0,0.343697 0.2813025,0.625 0.625,0.625 0.3436975,0 0.625,-0.281303 0.625,-0.625 0,-0.343697 -0.2813025,-0.625 -0.625,-0.625 z m 28,0 c -0.343697,0 -0.625,0.281303 -0.625,0.625 0,0.343697 0.281303,0.625 0.625,0.625 0.343697,0 0.625,-0.281303 0.625,-0.625 0,-0.343697 -0.281303,-0.625 -0.625,-0.625 z m -33,17 c -0.3436975,0 -0.625,0.281303 -0.625,0.625 0,0.343697 0.2813025,0.625 0.625,0.625 0.3436975,0 0.625,-0.281303 0.625,-0.625 0,-0.343697 -0.2813025,-0.625 -0.625,-0.625 z m 38,0 c -0.343697,0 -0.625,0.281303 -0.625,0.625 0,0.343697 0.281303,0.625 0.625,0.625 0.343697,0 0.625,-0.281303 0.625,-0.625 0,-0.343697 -0.281303,-0.625 -0.625,-0.625 z"
       style="font-size:medium;font-style:normal;font-variant:normal;font-weight:normal;font-stretch:normal;text-indent:0;text-align:start;text-decoration:none;line-height:normal;letter-spacing:normal;word-spacing:normal;text-transform:none;direction:ltr;block-progression:tb;writing-mode:lr-tb;text-anchor:start;baseline-shift:baseline;opacity:0.4;color:#000000;fill:#000000;fill-opacity:1;stroke:none;stroke-width:0.25;marker:none;visibility:visible;display:inline;overflow:visible;enable-background:accumulate;font-family:Sans;-inkscape-font-specification:Sans" />
  </g>
</svg>
