<?xml version="1.0" encoding="UTF-8" standalone="no"?>
<svg xmlns="http://www.w3.org/2000/svg" xmlns:xlink="http://www.w3.org/1999/xlink" xmlns:sodipodi="http://sodipodi.sourceforge.net/DTD/sodipodi-0.dtd" xmlns:inkscape="http://www.inkscape.org/namespaces/inkscape" height="48" width="48" version="1.0">
 <metadata id="metadata39"/>
 <defs id="defs3788">
  <linearGradient inkscape:collect="always" id="linearGradient4109">
   <stop id="stop4111"/>
   <stop offset="1" id="stop4113" stop-opacity="0"/>
  </linearGradient>
  <linearGradient x1="17.741" y1="24.05" gradientTransform="matrix(0.99778,0,0,0.88551429,0.053179,4.2043715)" x2="11.218" gradientUnits="userSpaceOnUse" y2="12.883" id="linearGradient4097">
   <stop id="stop4099" stop-color="#acacac"/>
   <stop id="stop4101" offset="0.25" stop-color="#b6b6b6"/>
   <stop id="stop4103" offset="0.25" stop-color="#d9d9d9"/>
   <stop offset="1" id="stop4105" stop-color="#d4d4d4"/>
  </linearGradient>
  <linearGradient id="linearGradient3861" y2="12.883" gradientUnits="userSpaceOnUse" x2="11.218" gradientTransform="matrix(0.99778,0,0,0.88551429,0.053179,4.2043715)" y1="24.05" x1="17.741">
   <stop id="stop3863" stop-color="#c5c5c5"/>
   <stop offset="0.083" id="stop3865" stop-color="#cfcfcf"/>
   <stop offset="0.083" id="stop3867" stop-color="#d9d9d9"/>
   <stop id="stop3869" offset="1" stop-color="#d4d4d4"/>
  </linearGradient>
  <linearGradient x1="17.741" y1="24.05" gradientTransform="matrix(0.99778,0,0,0.88551429,0.053179,4.2043715)" x2="11.218" gradientUnits="userSpaceOnUse" y2="12.883" id="linearGradient3844">
   <stop id="stop3846" stop-color="#c5c5c5"/>
   <stop id="stop3848" offset="0.118" stop-color="#cdcdcd"/>
   <stop id="stop3850" offset="0.118" stop-color="#bebebe"/>
   <stop offset="1" id="stop3852" stop-color="#e1e1e1"/>
  </linearGradient>
  <radialGradient r="23" gradientTransform="matrix(1.1924,0.53139429,-0.49419,0.81474,3.4847,3.6991715)" cx="14.237" cy="12.595" gradientUnits="userSpaceOnUse" id="radialGradient3841">
   <stop id="stop3843" stop-color="#f5f5f5"/>
   <stop offset="1" id="stop3845" stop-color="#e1e1e1"/>
  </radialGradient>
  <linearGradient id="linearGradient4028">
   <stop id="stop4030" stop-color="#888888"/>
   <stop offset="1" id="stop4032" stop-color="#282828"/>
  </linearGradient>
  <linearGradient id="linearGradient5060">
   <stop id="stop5062"/>
   <stop id="stop5064" offset="1" stop-opacity="0"/>
  </linearGradient>
  <radialGradient id="radialGradient2857" gradientUnits="userSpaceOnUse" cy="42" cx="24" gradientTransform="matrix(.90476 1.019e-7 -2.6817e-8 .23810 2.2857 30)" r="21">
   <stop id="stop6312" stop-color="#fff"/>
   <stop id="stop6314" offset="1" stop-color="#fff" stop-opacity="0"/>
  </radialGradient>
  <radialGradient id="radialGradient2862" gradientUnits="userSpaceOnUse" cy="12.595" cx="14.237" gradientTransform="matrix(1.1924,0.53139429,-0.49419,0.81474,3.4847,3.6991715)" r="23">
   <stop id="stop7064" stop-color="#e2e2e4"/>
   <stop id="stop7060" offset="1" stop-color="#c9c9ca"/>
  </radialGradient>
  <linearGradient id="linearGradient2864" y2="12.883" gradientUnits="userSpaceOnUse" x2="11.218" gradientTransform="matrix(0.99778,0,0,0.88551429,0.053179,4.2043715)" y1="24.05" x1="17.741">
   <stop id="stop3486" stop-color="#9c9c9c"/>
   <stop offset="0.25" id="stop3842" stop-color="#5d5d5d"/>
   <stop offset="0.5" id="stop3840" stop-color="#717171"/>
   <stop id="stop3488" offset="1" stop-color="#bebebe"/>
  </linearGradient>
  <linearGradient id="linearGradient2868" y2="40.704" gradientUnits="userSpaceOnUse" x2="28.375" gradientTransform="matrix(1.0002,0,0,0.25022851,-5.0044,27.114611)" y1="50.3" x1="28.438">
   <stop id="stop2223" stop-color="#aaa"/>
   <stop id="stop2219" offset="1" stop-color="#646464"/>
  </linearGradient>
  <radialGradient id="radialGradient2871" xlink:href="#linearGradient5060" gradientUnits="userSpaceOnUse" cy="486.65" cx="605.71" gradientTransform="matrix(-0.044847,0,0,0.020588,32.611,32.451)" r="117.14"/>
  <radialGradient id="radialGradient2874" xlink:href="#linearGradient5060" gradientUnits="userSpaceOnUse" cy="486.65" cx="605.71" gradientTransform="matrix(0.044847,0,0,0.020588,15.389,32.451)" r="117.14"/>
  <linearGradient id="linearGradient2877" y2="609.51" gradientUnits="userSpaceOnUse" x2="0" gradientTransform="matrix(0.076357,0,0,0.020588,-3.5974,32.451)" y1="366.65">
   <stop id="stop5050" stop-opacity="0"/>
   <stop id="stop5056" offset="0.5"/>
   <stop id="stop5052" offset="1" stop-opacity="0"/>
  </linearGradient>
  <linearGradient id="linearGradient3155-40-33">
   <stop id="stop2847" stop-color="#1b1b1b"/>
   <stop offset="0.135" id="stop2849" stop-color="#f3f3f3"/>
   <stop id="stop2851" offset="0.202" stop-color="#b6b6b6"/>
   <stop offset="0.27" id="stop2853" stop-color="#ffffff"/>
   <stop id="stop2855" offset="0.447" stop-color="#9d9d9d"/>
   <stop offset="0.571" id="stop2857" stop-color="#a6a6a6"/>
   <stop id="stop2859" offset="0.72" stop-color="#e5e5e5"/>
   <stop id="stop2861" offset="1" stop-color="#1b1b1b"/>
  </linearGradient>
  <linearGradient id="linearGradient3191-577-747-672">
   <stop id="stop2865" stop-color="#5e5e5e"/>
   <stop id="stop2867" offset="1" stop-color="#5a5a5a"/>
  </linearGradient>
  <linearGradient id="linearGradient3155-40">
   <stop id="stop2541" stop-color="#181818"/>
   <stop offset="0.135" id="stop2543" stop-color="#dbdbdb"/>
   <stop id="stop2545" offset="0.202" stop-color="#a4a4a4"/>
   <stop offset="0.27" id="stop2547" stop-color="#ffffff"/>
   <stop id="stop2549" offset="0.447" stop-color="#8d8d8d"/>
   <stop offset="0.571" id="stop2551" stop-color="#959595"/>
   <stop id="stop2553" offset="0.72" stop-color="#cecece"/>
   <stop id="stop2555" offset="1" stop-color="#181818"/>
  </linearGradient>
  <linearGradient id="linearGradient3319">
   <stop id="stop3321" stop-color="#7f96af"/>
   <stop offset="1" id="stop3323" stop-color="#485c73"/>
  </linearGradient>
  <linearGradient id="linearGradient4642">
   <stop id="stop4644" stop-color="#4e535a"/>
   <stop offset="0.16" id="stop4646" stop-color="#151c20"/>
   <stop id="stop4648" offset="0.167" stop-color="#4b5f76"/>
   <stop offset="1" id="stop4650" stop-color="#4b5f76"/>
  </linearGradient>
  <linearGradient id="linearGradient8967">
   <stop id="stop8969" stop-color="#bdccdd"/>
   <stop id="stop8971" offset="1" stop-color="#506985"/>
  </linearGradient>
  <linearGradient id="linearGradient5048">
   <stop id="stop5050-3" stop-opacity="0"/>
   <stop id="stop5056-6" offset="0.5"/>
   <stop offset="1" id="stop5052-5" stop-opacity="0"/>
  </linearGradient>
  <linearGradient inkscape:collect="always" xlink:href="#linearGradient3155-40" id="linearGradient3234" gradientUnits="userSpaceOnUse" gradientTransform="matrix(0.8239774,-0.8548421,0.7471754,0.7309632,-88.855277,1.674494)" y1="25.357" x2="0" y2="31.21"/>
  <linearGradient inkscape:collect="always" xlink:href="#linearGradient3155-40-33" id="linearGradient3236" gradientUnits="userSpaceOnUse" gradientTransform="matrix(0.8006848,-0.8306768,0.8744329,0.8554595,-91.49015,-1.532335)" x1="10.869" y1="25.08" x2="11.08" y2="30.467"/>
  <linearGradient inkscape:collect="always" xlink:href="#linearGradient3191-577-747-672" id="linearGradient3238" gradientUnits="userSpaceOnUse" gradientTransform="matrix(0.6334257,-0.05500901,-0.03910351,0.6392777,-64.706197,-9.126561)" x1="5.712" y1="37.817" x2="9.522" y2="41.39"/>
  <radialGradient inkscape:collect="always" xlink:href="#linearGradient4028" id="radialGradient4034" cx="18.466" cy="30.27" r="15.75" gradientTransform="matrix(1.3672154,0.1004445,-0.10595236,1.4421864,-3.5736635,-14.51376)" gradientUnits="userSpaceOnUse"/>
  <linearGradient inkscape:collect="always" xlink:href="#linearGradient2864" id="linearGradient4044" y1="56.628" x2="0" y2="33.69" gradientUnits="userSpaceOnUse" gradientTransform="translate(0,3)"/>
  <linearGradient inkscape:collect="always" xlink:href="#linearGradient2864" id="linearGradient4046" gradientUnits="userSpaceOnUse" gradientTransform="matrix(0.99778,0,0,0.88551429,0.053179,7.2043715)" x1="17.741" y1="24.05" x2="11.218" y2="12.883"/>
  <linearGradient inkscape:collect="always" xlink:href="#linearGradient3844" id="linearGradient3838" gradientUnits="userSpaceOnUse" gradientTransform="translate(-0.25,3)" x1="25.1" y1="39.834" x2="25.01" y2="15.04"/>
  <linearGradient inkscape:collect="always" xlink:href="#linearGradient2877" id="linearGradient3883" gradientUnits="userSpaceOnUse" gradientTransform="matrix(0.076357,0,0,0.020588,-3.5974,32.451)" y1="366.65" x2="0" y2="609.51"/>
  <linearGradient id="linearGradient3847">
   <stop id="stop3849" stop-color="#f2f2f2"/>
   <stop offset="1" id="stop3851" stop-color="#ebebeb" stop-opacity="0"/>
  </linearGradient>
  <linearGradient inkscape:collect="always" xlink:href="#linearGradient4109" id="linearGradient3916" gradientUnits="userSpaceOnUse" gradientTransform="matrix(-1,0,0,1,352.87279,-65.715531)" x1="328.63" y1="74.43" x2="327.48" y2="67.36"/>
  <linearGradient inkscape:collect="always" xlink:href="#linearGradient4097" id="linearGradient4072" gradientUnits="userSpaceOnUse" gradientTransform="translate(-0.25,1)" y1="39" x2="0" y2="15"/>
  <radialGradient inkscape:collect="always" xlink:href="#linearGradient5060" id="radialGradient4075" gradientUnits="userSpaceOnUse" gradientTransform="matrix(-0.044847,0,0,0.020588,32.611,31.451)" cx="605.71" cy="486.65" r="117.14"/>
  <radialGradient inkscape:collect="always" xlink:href="#linearGradient5060" id="radialGradient4078" gradientUnits="userSpaceOnUse" gradientTransform="matrix(0.044847,0,0,0.020588,15.389,31.451)" cx="605.71" cy="486.65" r="117.14"/>
  <linearGradient inkscape:collect="always" xlink:href="#linearGradient2877" id="linearGradient4081" gradientUnits="userSpaceOnUse" gradientTransform="matrix(0.076357,0,0,0.020588,-3.5974,31.451)" y1="366.65" x2="0" y2="609.51"/>
  <linearGradient inkscape:collect="always" xlink:href="#linearGradient4109" id="linearGradient4115" y1="35.625" x2="0" y2="46.13" gradientUnits="userSpaceOnUse"/>
  <clipPath id="clipPath4121">
   <path id="path4123" d="M 3.3977476,37 4,40 43.441942,40 44,37 z"/>
  </clipPath>
  <linearGradient inkscape:collect="always" xlink:href="#linearGradient4097" id="linearGradient4169" gradientUnits="userSpaceOnUse" gradientTransform="translate(-0.25,3)" y1="39" x2="0" y2="15"/>
 </defs>
 <g inkscape:groupmode="layer" id="layer1" inkscape:label="Background">
  <g id="g4092" transform="translate(0,-2)">
   <rect x="5.565" y="39" width="36.869" height="5" id="rect2723" opacity="0.3" fill="url(#linearGradient4081)"/>
   <path inkscape:connector-curvature="0" d="m 42.417,39 v 4.9997 c 2.309,0.009 5.583,-1.12 5.583,-2.5 0,-1.38 -2.577,-2.5 -5.583,-2.5 z" id="path2725" opacity="0.3" fill="url(#radialGradient4078)"/>
   <path inkscape:connector-curvature="0" d="m 5.5833,39 v 4.9997 C 3.2738,44.0087 0,42.8797 0,41.4997 c 0,-1.38 2.5773,-2.5 5.5833,-2.5 z" id="path2727" opacity="0.3" fill="url(#radialGradient4075)"/>
  </g>
  <path d="m 9.75,12.5 c -0.8098,0 -2.03495,0.167807 -2.21875,0.84375 L 1.25,34 l 1,5.5 43.09375,0 0.90625,-5.53125 -6.78125,-20.625 C 39.30875,12.79595 38.409,12.5 37.75,12.5 z" id="rect6431" inkscape:connector-curvature="0" sodipodi:nodetypes="sccccccss" fill="url(#linearGradient4072)" fill-rule="evenodd"/>
  <path sodipodi:nodetypes="sccccccss" inkscape:connector-curvature="0" id="path3873" d="m 9.75,12.5 c -0.8098,0 -2.03495,0.167807 -2.21875,0.84375 L 1.25,34 l 1,5.5 43.09375,0 0.90625,-5.53125 -6.78125,-20.625 C 39.30875,12.79595 38.409,12.5 37.75,12.5 z" opacity="0.41" fill="none" stroke="#000000"/>
  <rect id="rect3875" width="44" height="1" x="2" y="33" opacity="0.41" fill="#ffffff" rx="0.5"/>
  <path d="M 9.75,13 C 9.3796367,13 8.8882313,13.051396 8.53125,13.15625 8.1742687,13.261104 8.0208424,13.3921 8,13.46875 L 8,13.5 1.78125,34 1.90625,34.625 8,14.5 8,14.46875 C 8.0208424,14.3921 8.1742687,14.261104 8.53125,14.15625 8.8882313,14.051396 9.3796367,14 9.75,14 l 28,0 c 0.254652,0 0.591508,0.07771 0.84375,0.1875 0.252242,0.109788 0.390172,0.226203 0.40625,0.28125 L 39,14.5 45.625,34.625 45.71875,33.96875 39,13.5 39,13.46875 C 38.983922,13.413703 38.845992,13.297288 38.59375,13.1875 38.341508,13.07771 38.004652,13 37.75,13 l -28,0 z" id="path4161" inkscape:connector-curvature="0" opacity="0.5" fill="#ffffff" fill-rule="evenodd"/>
  <path id="path3912" d="m 9.5,14.375 c -0.3436975,0 -0.625,0.281303 -0.625,0.625 0,0.343697 0.2813025,0.625 0.625,0.625 0.3436975,0 0.625,-0.281303 0.625,-0.625 0,-0.343697 -0.2813025,-0.625 -0.625,-0.625 z m 28,0 c -0.343697,0 -0.625,0.281303 -0.625,0.625 0,0.343697 0.281303,0.625 0.625,0.625 0.343697,0 0.625,-0.281303 0.625,-0.625 0,-0.343697 -0.281303,-0.625 -0.625,-0.625 z m -33,17 c -0.3436975,0 -0.625,0.281303 -0.625,0.625 0,0.343697 0.2813025,0.625 0.625,0.625 0.3436975,0 0.625,-0.281303 0.625,-0.625 0,-0.343697 -0.2813025,-0.625 -0.625,-0.625 z m 38,0 c -0.343697,0 -0.625,0.281303 -0.625,0.625 0,0.343697 0.281303,0.625 0.625,0.625 0.343697,0 0.625,-0.281303 0.625,-0.625 0,-0.343697 -0.281303,-0.625 -0.625,-0.625 z" inkscape:connector-curvature="0" opacity="0.4" color="#000000" stroke-width="0.25" fill="#ffffff"/>
  <path d="M 9.5 13.875 C 9.1563025 13.875 8.875 14.156303 8.875 14.5 C 8.875 14.843697 9.1563025 15.125 9.5 15.125 C 9.8436975 15.125 10.125 14.843697 10.125 14.5 C 10.125 14.156303 9.8436975 13.875 9.5 13.875 z M 37.5 13.875 C 37.156303 13.875 36.875 14.156303 36.875 14.5 C 36.875 14.843697 37.156303 15.125 37.5 15.125 C 37.843697 15.125 38.125 14.843697 38.125 14.5 C 38.125 14.156303 37.843697 13.875 37.5 13.875 z M 4.5 30.875 C 4.1563025 30.875 3.875 31.156303 3.875 31.5 C 3.875 31.843697 4.1563025 32.125 4.5 32.125 C 4.8436975 32.125 5.125 31.843697 5.125 31.5 C 5.125 31.156303 4.8436975 30.875 4.5 30.875 z M 42.5 30.875 C 42.156303 30.875 41.875 31.156303 41.875 31.5 C 41.875 31.843697 42.156303 32.125 42.5 32.125 C 42.843697 32.125 43.125 31.843697 43.125 31.5 C 43.125 31.156303 42.843697 30.875 42.5 30.875 z " id="path3905" opacity="0.4" color="#000000" stroke-width="0.25"/>
 </g>
</svg>
