<?xml version="1.0" encoding="UTF-8" standalone="no"?>
<svg
   xmlns:dc="http://purl.org/dc/elements/1.1/"
   xmlns:cc="http://creativecommons.org/ns#"
   xmlns:rdf="http://www.w3.org/1999/02/22-rdf-syntax-ns#"
   xmlns:svg="http://www.w3.org/2000/svg"
   xmlns="http://www.w3.org/2000/svg"
   xmlns:xlink="http://www.w3.org/1999/xlink"
   id="svg5572"
   height="48"
   width="48"
   version="1.1">
  <metadata
     id="metadata33">
    <rdf:RDF>
      <cc:Work
         rdf:about="">
        <dc:format>image/svg+xml</dc:format>
        <dc:type
           rdf:resource="http://purl.org/dc/dcmitype/StillImage" />
        <dc:title />
      </cc:Work>
    </rdf:RDF>
  </metadata>
  <defs
     id="defs5574">
    <linearGradient
       id="linearGradient4596">
      <stop
         id="stop4598"
         offset="0"
         style="stop-color:#000000;stop-opacity:1;" />
      <stop
         id="stop4600"
         offset="1"
         style="stop-color:#000000;stop-opacity:0;" />
    </linearGradient>
    <linearGradient
       id="linearGradient4576">
      <stop
         id="stop4578"
         offset="0"
         style="stop-color:#b22136;stop-opacity:1;" />
      <stop
         style="stop-color:#d33b51;stop-opacity:1;"
         offset="0.25"
         id="stop4586" />
      <stop
         style="stop-color:#b22136;stop-opacity:1;"
         offset="0.5"
         id="stop4584" />
      <stop
         id="stop4580"
         offset="1"
         style="stop-color:#981024;stop-opacity:1;" />
    </linearGradient>
    <linearGradient
       id="linearGradient4080">
      <stop
         id="stop4082"
         offset="0"
         style="stop-color:#ea3e56;stop-opacity:1;" />
      <stop
         id="stop4084"
         offset="1"
         style="stop-color:#d52d44;stop-opacity:1;" />
    </linearGradient>
    <radialGradient
       gradientUnits="userSpaceOnUse"
       gradientTransform="matrix(1,0,0,0.65693432,0,7.825095)"
       r="6.0546017"
       fy="20.73559"
       fx="24.262602"
       cy="20.73559"
       cx="24.262602"
       id="radialGradient4086"
       xlink:href="#linearGradient4080" />
    <linearGradient
       gradientTransform="translate(0.5,9.5000011)"
       gradientUnits="userSpaceOnUse"
       y2="26"
       x2="30"
       y1="26"
       x1="18"
       id="linearGradient4582"
       xlink:href="#linearGradient4576" />
    <radialGradient
       gradientUnits="userSpaceOnUse"
       gradientTransform="matrix(1,0,0,0.53195626,0,13.453613)"
       r="8"
       fy="28.74435"
       fx="24"
       cy="28.74435"
       cx="24"
       id="radialGradient4602"
       xlink:href="#linearGradient4596" />
  </defs>
  <path
     transform="matrix(1.0625,0,0,1.1174908,-1,7.1228031)"
     d="m 32,28.74435 a 8,4.25565 0 1 1 -16,0 8,4.25565 0 1 1 16,0 z"
     id="path4594"
     style="opacity:0.81000001;fill:url(#radialGradient4602);fill-opacity:1;stroke:none" />
  <path
     id="rect4088"
     d="m 18.5,33.500001 0,5 c 0,1 2.686292,3 6,3 3.313708,0 6,-2 6,-3 l 0,-5 z"
     style="fill:url(#linearGradient4582);fill-opacity:1;stroke:none" />
  <path
     style="opacity:0.4;fill:#000000;fill-opacity:1;stroke:none"
     id="path4095"
     d="m 30.317204,22.80932 a 6.0546017,3.9774756 0 1 1 -12.109204,0 6.0546017,3.9774756 0 1 1 12.109204,0 z"
     transform="matrix(1.1561454,0,0,1.005663,-3.5510957,9.5615113)" />
  <path
     style="opacity:0.61;fill:none;stroke:#6e000f;stroke-width:1;stroke-miterlimit:4;stroke-opacity:1;stroke-dasharray:none"
     d="m 18.5,33.500001 0,5 c 0,1 2.686292,3 6,3 3.313708,0 6,-2 6,-3 l 0,-5 z"
     id="path4588" />
  <path
     transform="matrix(1.1561454,0,0,1.005663,-3.5510957,8.561512)"
     d="m 30.317204,22.80932 a 6.0546017,3.9774756 0 1 1 -12.109204,0 6.0546017,3.9774756 0 1 1 12.109204,0 z"
     id="path4078"
     style="fill:url(#radialGradient4086);fill-opacity:1;stroke:none" />
  <g
     transform="translate(0,9.0000011)"
     id="g4446">
    <g
       id="g4403">
      <rect
         ry="0.28125"
         rx="0.28125"
         y="21"
         x="19"
         height="1"
         width="1"
         id="rect4582"
         style="opacity:0.4;fill:#000000;fill-opacity:1;stroke:none" />
      <rect
         ry="0.28125"
         rx="0.28125"
         y="23"
         x="19"
         height="1"
         width="1"
         id="rect4584"
         style="opacity:0.4;fill:#000000;fill-opacity:1;stroke:none;display:inline;enable-background:new" />
      <rect
         ry="0.28125"
         rx="0.28125"
         y="24"
         x="24"
         height="1"
         width="1"
         id="rect4586"
         style="opacity:0.4;fill:#000000;fill-opacity:1;stroke:none;display:inline;enable-background:new" />
      <rect
         ry="0.28125"
         rx="0.28125"
         y="22"
         x="18"
         height="1"
         width="1"
         id="rect4588"
         style="opacity:0.4;fill:#000000;fill-opacity:1;stroke:none;display:inline;enable-background:new" />
      <rect
         ry="0.28125"
         rx="0.28125"
         y="22"
         x="20"
         height="1"
         width="1"
         id="rect4590"
         style="opacity:0.4;fill:#000000;fill-opacity:1;stroke:none;display:inline;enable-background:new" />
      <rect
         ry="0.28125"
         rx="0.28125"
         y="24"
         x="20"
         height="1"
         width="1"
         id="rect4592"
         style="opacity:0.4;fill:#000000;fill-opacity:1;stroke:none;display:inline;enable-background:new" />
      <rect
         ry="0.28125"
         rx="0.28125"
         y="21"
         x="21"
         height="1"
         width="1"
         id="rect4594"
         style="opacity:0.4;fill:#000000;fill-opacity:1;stroke:none;display:inline;enable-background:new" />
      <rect
         ry="0.28125"
         rx="0.28125"
         y="21"
         x="23"
         height="1"
         width="1"
         id="rect4607"
         style="opacity:0.4;fill:#000000;fill-opacity:1;stroke:none" />
      <rect
         ry="0.28125"
         rx="0.28125"
         y="23"
         x="23"
         height="1"
         width="1"
         id="rect4609"
         style="opacity:0.4;fill:#000000;fill-opacity:1;stroke:none;display:inline;enable-background:new" />
      <rect
         ry="0.28125"
         rx="0.28125"
         y="24"
         x="22"
         height="1"
         width="1"
         id="rect4611"
         style="opacity:0.4;fill:#000000;fill-opacity:1;stroke:none;display:inline;enable-background:new" />
      <rect
         ry="0.28125"
         rx="0.28125"
         y="22"
         x="22"
         height="1"
         width="1"
         id="rect4613"
         style="opacity:0.4;fill:#000000;fill-opacity:1;stroke:none;display:inline;enable-background:new" />
      <rect
         ry="0.28125"
         rx="0.28125"
         y="22"
         x="24"
         height="1"
         width="1"
         id="rect4615"
         style="opacity:0.4;fill:#000000;fill-opacity:1;stroke:none;display:inline;enable-background:new" />
      <rect
         ry="0.28125"
         rx="0.28125"
         y="21"
         x="25"
         height="1"
         width="1"
         id="rect4619"
         style="opacity:0.4;fill:#000000;fill-opacity:1;stroke:none;display:inline;enable-background:new" />
      <rect
         ry="0.28125"
         rx="0.28125"
         y="23"
         x="25"
         height="1"
         width="1"
         id="rect4628"
         style="opacity:0.4;fill:#000000;fill-opacity:1;stroke:none;display:inline;enable-background:new" />
      <rect
         ry="0.28125"
         rx="0.28125"
         y="23"
         x="21"
         height="1"
         width="1"
         id="rect4630"
         style="opacity:0.4;fill:#000000;fill-opacity:1;stroke:none;display:inline;enable-background:new" />
      <rect
         ry="0.28125"
         rx="0.28125"
         y="21"
         x="27"
         height="1"
         width="1"
         id="rect4639"
         style="opacity:0.4;fill:#000000;fill-opacity:1;stroke:none;display:inline;enable-background:new" />
      <rect
         ry="0.28125"
         rx="0.28125"
         y="23"
         x="27"
         height="1"
         width="1"
         id="rect4641"
         style="opacity:0.4;fill:#000000;fill-opacity:1;stroke:none;display:inline;enable-background:new" />
      <rect
         ry="0.28125"
         rx="0.28125"
         y="22"
         x="26"
         height="1"
         width="1"
         id="rect4645"
         style="opacity:0.4;fill:#000000;fill-opacity:1;stroke:none;display:inline;enable-background:new" />
      <rect
         ry="0.28125"
         rx="0.28125"
         y="22"
         x="28"
         height="1"
         width="1"
         id="rect4647"
         style="opacity:0.4;fill:#000000;fill-opacity:1;stroke:none;display:inline;enable-background:new" />
      <rect
         ry="0.28125"
         rx="0.28125"
         y="21"
         x="29"
         height="1"
         width="1"
         id="rect4651"
         style="opacity:0.4;fill:#000000;fill-opacity:1;stroke:none;display:inline;enable-background:new" />
      <rect
         ry="0.28125"
         rx="0.28125"
         y="22"
         x="30"
         height="1"
         width="1"
         id="rect4659"
         style="opacity:0.4;fill:#000000;fill-opacity:1;stroke:none;display:inline;enable-background:new" />
      <rect
         ry="0.28125"
         rx="0.28125"
         y="23"
         x="29"
         height="1"
         width="1"
         id="rect4669"
         style="opacity:0.4;fill:#000000;fill-opacity:1;stroke:none;display:inline;enable-background:new" />
      <rect
         ry="0.28125"
         rx="0.28125"
         y="20"
         x="20"
         height="1"
         width="1"
         id="rect3477"
         style="opacity:0.4;fill:#000000;fill-opacity:1;stroke:none" />
      <rect
         ry="0.28125"
         rx="0.28125"
         y="19"
         x="21"
         height="1"
         width="1"
         id="rect3485"
         style="opacity:0.4;fill:#000000;fill-opacity:1;stroke:none;display:inline;enable-background:new" />
      <rect
         ry="0.28125"
         rx="0.28125"
         y="20"
         x="22"
         height="1"
         width="1"
         id="rect3489"
         style="opacity:0.4;fill:#000000;fill-opacity:1;stroke:none;display:inline;enable-background:new" />
      <rect
         ry="0.28125"
         rx="0.28125"
         y="20"
         x="24"
         height="1"
         width="1"
         id="rect3491"
         style="opacity:0.4;fill:#000000;fill-opacity:1;stroke:none" />
      <rect
         ry="0.28125"
         rx="0.28125"
         y="19"
         x="23"
         height="1"
         width="1"
         id="rect3497"
         style="opacity:0.4;fill:#000000;fill-opacity:1;stroke:none;display:inline;enable-background:new" />
      <rect
         ry="0.28125"
         rx="0.28125"
         y="19"
         x="25"
         height="1"
         width="1"
         id="rect3499"
         style="opacity:0.4;fill:#000000;fill-opacity:1;stroke:none;display:inline;enable-background:new" />
      <rect
         ry="0.28125"
         rx="0.28125"
         y="20"
         x="26"
         height="1"
         width="1"
         id="rect3501"
         style="opacity:0.4;fill:#000000;fill-opacity:1;stroke:none;display:inline;enable-background:new" />
      <rect
         ry="0.28125"
         rx="0.28125"
         y="20"
         x="28"
         height="1"
         width="1"
         id="rect3507"
         style="opacity:0.4;fill:#000000;fill-opacity:1;stroke:none;display:inline;enable-background:new" />
      <rect
         ry="0.28125"
         rx="0.28125"
         y="19"
         x="27"
         height="1"
         width="1"
         id="rect3511"
         style="opacity:0.4;fill:#000000;fill-opacity:1;stroke:none;display:inline;enable-background:new" />
      <rect
         ry="0.28125"
         rx="0.28125"
         y="24"
         x="28"
         height="1"
         width="1"
         id="rect3515"
         style="opacity:0.4;fill:#000000;fill-opacity:1;stroke:none;display:inline;enable-background:new" />
      <rect
         style="opacity:0.4;fill:#000000;fill-opacity:1;stroke:none;display:inline;enable-background:new"
         id="rect4393"
         width="1"
         height="1"
         x="26"
         y="24"
         rx="0.28125"
         ry="0.28125" />
      <rect
         style="opacity:0.4;fill:#000000;fill-opacity:1;stroke:none;display:inline;enable-background:new"
         id="rect4395"
         width="1"
         height="1"
         x="21"
         y="25"
         rx="0.28125"
         ry="0.28125" />
      <rect
         style="opacity:0.4;fill:#000000;fill-opacity:1;stroke:none;display:inline;enable-background:new"
         id="rect4397"
         width="1"
         height="1"
         x="25"
         y="25"
         rx="0.28125"
         ry="0.28125" />
      <rect
         ry="0.28125"
         rx="0.28125"
         y="25"
         x="23"
         height="1"
         width="1"
         id="rect4399"
         style="opacity:0.4;fill:#000000;fill-opacity:1;stroke:none;display:inline;enable-background:new" />
      <rect
         ry="0.28125"
         rx="0.28125"
         y="25"
         x="27"
         height="1"
         width="1"
         id="rect4401"
         style="opacity:0.4;fill:#000000;fill-opacity:1;stroke:none;display:inline;enable-background:new" />
    </g>
  </g>
  <g
     transform="translate(0,8.0000011)"
     style="opacity:0.2;fill:#ffffff;fill-opacity:1"
     id="g4490">
    <g
       style="fill:#ffffff;fill-opacity:1"
       id="g4492">
      <rect
         style="opacity:0.4;fill:#ffffff;fill-opacity:1;stroke:none"
         id="rect4494"
         width="1"
         height="1"
         x="19"
         y="21"
         rx="0.28125"
         ry="0.28125" />
      <rect
         style="opacity:0.4;fill:#ffffff;fill-opacity:1;stroke:none;display:inline;enable-background:new"
         id="rect4496"
         width="1"
         height="1"
         x="19"
         y="23"
         rx="0.28125"
         ry="0.28125" />
      <rect
         style="opacity:0.4;fill:#ffffff;fill-opacity:1;stroke:none;display:inline;enable-background:new"
         id="rect4498"
         width="1"
         height="1"
         x="24"
         y="24"
         rx="0.28125"
         ry="0.28125" />
      <rect
         style="opacity:0.4;fill:#ffffff;fill-opacity:1;stroke:none;display:inline;enable-background:new"
         id="rect4500"
         width="1"
         height="1"
         x="18"
         y="22"
         rx="0.28125"
         ry="0.28125" />
      <rect
         style="opacity:0.4;fill:#ffffff;fill-opacity:1;stroke:none;display:inline;enable-background:new"
         id="rect4502"
         width="1"
         height="1"
         x="20"
         y="22"
         rx="0.28125"
         ry="0.28125" />
      <rect
         style="opacity:0.4;fill:#ffffff;fill-opacity:1;stroke:none;display:inline;enable-background:new"
         id="rect4504"
         width="1"
         height="1"
         x="20"
         y="24"
         rx="0.28125"
         ry="0.28125" />
      <rect
         style="opacity:0.4;fill:#ffffff;fill-opacity:1;stroke:none;display:inline;enable-background:new"
         id="rect4506"
         width="1"
         height="1"
         x="21"
         y="21"
         rx="0.28125"
         ry="0.28125" />
      <rect
         style="opacity:0.4;fill:#ffffff;fill-opacity:1;stroke:none"
         id="rect4508"
         width="1"
         height="1"
         x="23"
         y="21"
         rx="0.28125"
         ry="0.28125" />
      <rect
         style="opacity:0.4;fill:#ffffff;fill-opacity:1;stroke:none;display:inline;enable-background:new"
         id="rect4510"
         width="1"
         height="1"
         x="23"
         y="23"
         rx="0.28125"
         ry="0.28125" />
      <rect
         style="opacity:0.4;fill:#ffffff;fill-opacity:1;stroke:none;display:inline;enable-background:new"
         id="rect4512"
         width="1"
         height="1"
         x="22"
         y="24"
         rx="0.28125"
         ry="0.28125" />
      <rect
         style="opacity:0.4;fill:#ffffff;fill-opacity:1;stroke:none;display:inline;enable-background:new"
         id="rect4514"
         width="1"
         height="1"
         x="22"
         y="22"
         rx="0.28125"
         ry="0.28125" />
      <rect
         style="opacity:0.4;fill:#ffffff;fill-opacity:1;stroke:none;display:inline;enable-background:new"
         id="rect4516"
         width="1"
         height="1"
         x="24"
         y="22"
         rx="0.28125"
         ry="0.28125" />
      <rect
         style="opacity:0.4;fill:#ffffff;fill-opacity:1;stroke:none;display:inline;enable-background:new"
         id="rect4518"
         width="1"
         height="1"
         x="25"
         y="21"
         rx="0.28125"
         ry="0.28125" />
      <rect
         style="opacity:0.4;fill:#ffffff;fill-opacity:1;stroke:none;display:inline;enable-background:new"
         id="rect4520"
         width="1"
         height="1"
         x="25"
         y="23"
         rx="0.28125"
         ry="0.28125" />
      <rect
         style="opacity:0.4;fill:#ffffff;fill-opacity:1;stroke:none;display:inline;enable-background:new"
         id="rect4522"
         width="1"
         height="1"
         x="21"
         y="23"
         rx="0.28125"
         ry="0.28125" />
      <rect
         style="opacity:0.4;fill:#ffffff;fill-opacity:1;stroke:none;display:inline;enable-background:new"
         id="rect4524"
         width="1"
         height="1"
         x="27"
         y="21"
         rx="0.28125"
         ry="0.28125" />
      <rect
         style="opacity:0.4;fill:#ffffff;fill-opacity:1;stroke:none;display:inline;enable-background:new"
         id="rect4526"
         width="1"
         height="1"
         x="27"
         y="23"
         rx="0.28125"
         ry="0.28125" />
      <rect
         style="opacity:0.4;fill:#ffffff;fill-opacity:1;stroke:none;display:inline;enable-background:new"
         id="rect4528"
         width="1"
         height="1"
         x="26"
         y="22"
         rx="0.28125"
         ry="0.28125" />
      <rect
         style="opacity:0.4;fill:#ffffff;fill-opacity:1;stroke:none;display:inline;enable-background:new"
         id="rect4530"
         width="1"
         height="1"
         x="28"
         y="22"
         rx="0.28125"
         ry="0.28125" />
      <rect
         style="opacity:0.4;fill:#ffffff;fill-opacity:1;stroke:none;display:inline;enable-background:new"
         id="rect4532"
         width="1"
         height="1"
         x="29"
         y="21"
         rx="0.28125"
         ry="0.28125" />
      <rect
         style="opacity:0.4;fill:#ffffff;fill-opacity:1;stroke:none;display:inline;enable-background:new"
         id="rect4534"
         width="1"
         height="1"
         x="30"
         y="22"
         rx="0.28125"
         ry="0.28125" />
      <rect
         style="opacity:0.4;fill:#ffffff;fill-opacity:1;stroke:none;display:inline;enable-background:new"
         id="rect4536"
         width="1"
         height="1"
         x="29"
         y="23"
         rx="0.28125"
         ry="0.28125" />
      <rect
         style="opacity:0.4;fill:#ffffff;fill-opacity:1;stroke:none"
         id="rect4538"
         width="1"
         height="1"
         x="20"
         y="20"
         rx="0.28125"
         ry="0.28125" />
      <rect
         style="opacity:0.4;fill:#ffffff;fill-opacity:1;stroke:none;display:inline;enable-background:new"
         id="rect4544"
         width="1"
         height="1"
         x="22"
         y="20"
         rx="0.28125"
         ry="0.28125" />
      <rect
         style="opacity:0.4;fill:#ffffff;fill-opacity:1;stroke:none"
         id="rect4546"
         width="1"
         height="1"
         x="24"
         y="20"
         rx="0.28125"
         ry="0.28125" />
      <rect
         style="opacity:0.4;fill:#ffffff;fill-opacity:1;stroke:none;display:inline;enable-background:new"
         id="rect4552"
         width="1"
         height="1"
         x="26"
         y="20"
         rx="0.28125"
         ry="0.28125" />
      <rect
         style="opacity:0.4;fill:#ffffff;fill-opacity:1;stroke:none;display:inline;enable-background:new"
         id="rect4554"
         width="1"
         height="1"
         x="28"
         y="20"
         rx="0.28125"
         ry="0.28125" />
      <rect
         style="opacity:0.4;fill:#ffffff;fill-opacity:1;stroke:none;display:inline;enable-background:new"
         id="rect4560"
         width="1"
         height="1"
         x="28"
         y="24"
         rx="0.28125"
         ry="0.28125" />
      <rect
         ry="0.28125"
         rx="0.28125"
         y="24"
         x="26"
         height="1"
         width="1"
         id="rect4566"
         style="opacity:0.4;fill:#ffffff;fill-opacity:1;stroke:none;display:inline;enable-background:new" />
      <rect
         ry="0.28125"
         rx="0.28125"
         y="25"
         x="21"
         height="1"
         width="1"
         id="rect4568"
         style="opacity:0.4;fill:#ffffff;fill-opacity:1;stroke:none;display:inline;enable-background:new" />
      <rect
         ry="0.28125"
         rx="0.28125"
         y="25"
         x="25"
         height="1"
         width="1"
         id="rect4570"
         style="opacity:0.4;fill:#ffffff;fill-opacity:1;stroke:none;display:inline;enable-background:new" />
      <rect
         style="opacity:0.4;fill:#ffffff;fill-opacity:1;stroke:none;display:inline;enable-background:new"
         id="rect4572"
         width="1"
         height="1"
         x="23"
         y="25"
         rx="0.28125"
         ry="0.28125" />
      <rect
         style="opacity:0.4;fill:#ffffff;fill-opacity:1;stroke:none;display:inline;enable-background:new"
         id="rect4574"
         width="1"
         height="1"
         x="27"
         y="25"
         rx="0.28125"
         ry="0.28125" />
    </g>
  </g>
  <path
     style="opacity:0.61;fill:none;stroke:#6e000f;stroke-width:0.92740095000000000;stroke-miterlimit:4;stroke-opacity:1;stroke-dasharray:none"
     id="path4590"
     d="m 30.317204,22.80932 a 6.0546017,3.9774756 0 1 1 -12.109204,0 6.0546017,3.9774756 0 1 1 12.109204,0 z"
     transform="matrix(1.1561454,0,0,1.005663,-3.5510957,8.561512)" />
</svg>
