<?xml version="1.0" encoding="UTF-8" standalone="no"?>
<svg
   xmlns:dc="http://purl.org/dc/elements/1.1/"
   xmlns:cc="http://creativecommons.org/ns#"
   xmlns:rdf="http://www.w3.org/1999/02/22-rdf-syntax-ns#"
   xmlns:svg="http://www.w3.org/2000/svg"
   xmlns="http://www.w3.org/2000/svg"
   xmlns:xlink="http://www.w3.org/1999/xlink"
   version="1.0"
   width="48"
   height="48"
   id="svg3786">
  <metadata
     id="metadata39">
    <rdf:RDF>
      <cc:Work
         rdf:about="">
        <dc:format>image/svg+xml</dc:format>
        <dc:type
           rdf:resource="http://purl.org/dc/dcmitype/StillImage" />
        <dc:title />
      </cc:Work>
    </rdf:RDF>
  </metadata>
  <defs
     id="defs3788">
    <linearGradient
       id="linearGradient4434">
      <stop
         id="stop4436"
         offset="0"
         style="stop-color:#000000;stop-opacity:1;" />
      <stop
         id="stop4438"
         offset="1"
         style="stop-color:#000000;stop-opacity:0;" />
    </linearGradient>
    <linearGradient
       id="linearGradient4403">
      <stop
         id="stop4405"
         offset="0"
         style="stop-color:#000000;stop-opacity:1;" />
      <stop
         id="stop4407"
         offset="1"
         style="stop-color:#000000;stop-opacity:0;" />
    </linearGradient>
    <linearGradient
       id="linearGradient4309">
      <stop
         id="stop4311"
         offset="0"
         style="stop-color:#ffffff;stop-opacity:0.49166667;" />
      <stop
         id="stop4313"
         offset="1"
         style="stop-color:#ffffff;stop-opacity:1;" />
    </linearGradient>
    <linearGradient
       id="linearGradient4248">
      <stop
         id="stop4250"
         offset="0"
         style="stop-color:#ffffff;stop-opacity:0.49152541;" />
      <stop
         id="stop4252"
         offset="1"
         style="stop-color:#ffffff;stop-opacity:1;" />
    </linearGradient>
    <linearGradient
       id="linearGradient4203">
      <stop
         id="stop4205"
         offset="0"
         style="stop-color:#3a3a3a;stop-opacity:1;" />
      <stop
         style="stop-color:#b4b4b4;stop-opacity:1;"
         offset="0.5"
         id="stop4236" />
      <stop
         id="stop4207"
         offset="1"
         style="stop-color:#2d2d2d;stop-opacity:1;" />
    </linearGradient>
    <linearGradient
       id="linearGradient5024">
      <stop
         style="stop-color:#555753"
         offset="0"
         id="stop5026" />
      <stop
         style="stop-color:#555753;stop-opacity:0;"
         offset="1"
         id="stop5028" />
    </linearGradient>
    <linearGradient
       id="linearGradient5739">
      <stop
         style="stop-color:#4b4b4b;stop-opacity:1;"
         offset="0"
         id="stop5741" />
      <stop
         style="stop-color:#353535;stop-opacity:1;"
         offset="0.5625"
         id="stop5747" />
      <stop
         style="stop-color:#262626;stop-opacity:1;"
         offset="1"
         id="stop5743" />
    </linearGradient>
    <linearGradient
       y2="1.7277995"
       x2="26.621315"
       y1="7.963562"
       x1="26.621315"
       gradientTransform="matrix(1,0,0,2.084749,1.3786849,-2.6020283)"
       gradientUnits="userSpaceOnUse"
       id="linearGradient4149"
       xlink:href="#linearGradient5024" />
    <radialGradient
       r="4"
       fy="31"
       fx="16"
       cy="31"
       cx="16"
       gradientUnits="userSpaceOnUse"
       id="radialGradient4213"
       xlink:href="#linearGradient4203" />
    <radialGradient
       gradientTransform="matrix(1.500322,-0.004547,0.00290298,1.2105708,-15.109877,-6.1989144)"
       gradientUnits="userSpaceOnUse"
       r="3"
       fy="30.086998"
       fx="30.025732"
       cy="30.086998"
       cx="30.025732"
       id="radialGradient4254"
       xlink:href="#linearGradient4248" />
    <radialGradient
       r="4"
       fy="31"
       fx="16"
       cy="31"
       cx="16"
       gradientUnits="userSpaceOnUse"
       id="radialGradient4277"
       xlink:href="#linearGradient4203" />
    <radialGradient
       r="3"
       fy="30.086998"
       fx="30.025732"
       cy="30.086998"
       cx="30.025732"
       gradientTransform="matrix(1.500322,-0.004547,0.00290298,1.2105708,-15.109877,-6.1989144)"
       gradientUnits="userSpaceOnUse"
       id="radialGradient4279"
       xlink:href="#linearGradient4248" />
    <radialGradient
       r="4"
       fy="31"
       fx="16"
       cy="31"
       cx="16"
       gradientUnits="userSpaceOnUse"
       id="radialGradient4293"
       xlink:href="#linearGradient4203" />
    <radialGradient
       gradientUnits="userSpaceOnUse"
       gradientTransform="matrix(1,0,0,0.95027624,0,1.5336671)"
       r="2.828125"
       fy="30.239164"
       fx="17.997318"
       cy="30.239164"
       cx="17.997318"
       id="radialGradient4315"
       xlink:href="#linearGradient4309" />
    <radialGradient
       gradientUnits="userSpaceOnUse"
       gradientTransform="matrix(1.4883721,-1.3149057e-8,1.1165517e-8,0.74418606,-11.703081,7.6937642)"
       r="21.5"
       fy="21.911505"
       fx="23.988008"
       cy="21.911505"
       cx="23.988008"
       id="radialGradient4331"
       xlink:href="#linearGradient5739" />
    <radialGradient
       gradientUnits="userSpaceOnUse"
       gradientTransform="matrix(1,0,0,0.3,0,26.6)"
       r="20"
       fy="38"
       fx="24"
       cy="38"
       cx="24"
       id="radialGradient4409"
       xlink:href="#linearGradient4403" />
    <linearGradient
       gradientUnits="userSpaceOnUse"
       y2="20"
       x2="25.375"
       y1="44.75"
       x1="26.75"
       id="linearGradient4440"
       xlink:href="#linearGradient4434" />
  </defs>
  <path
     d="M 23.818024,17.422077 C 27.811473,8.089561 10.297748,14.223042 13.699818,9.35289 17.043455,4.566386 35.505273,14.544165 39.351887,9.467957 43.263908,4.305433 29.254719,6.111418 35.240974,-3.0779219"
     id="path5014"
     style="fill:none;stroke:url(#linearGradient4149);stroke-width:0.99999994000000003;stroke-linecap:square;stroke-linejoin:miter;stroke-miterlimit:4;stroke-opacity:1;stroke-dasharray:none;display:inline" />
  <path
     id="path5553"
     d="M 11,14.5 C 9.2591595,14.5 7.8565541,15.760215 6.78125,17.53125 5.7059459,19.302285 4.8820432,21.638509 4.25,24.125 2.9859136,29.097982 2.5000001,34.598721 2.5,37 c 0,2.343053 0.07073,4.402899 0.8125,5.96875 C 4.0542702,44.534601 5.5657922,45.5 8,45.5 c 0.9384459,0 1.854381,-0.574077 2.875,-1.34375 1.020619,-0.769673 2.137914,-1.789129 3.34375,-2.78125 C 16.630422,39.390758 19.356195,37.5 22,37.5 l 4,0 c 0.833333,0 1.953701,0.458547 3.15625,1.1875 1.202549,0.728953 2.493404,1.720276 3.78125,2.71875 1.287846,0.998474 2.562189,1.980452 3.75,2.75 C 37.875311,44.925798 38.961023,45.5 40,45.5 c 2.434208,0 3.94573,-0.965399 4.6875,-2.53125 C 45.42927,41.402899 45.499999,39.343054 45.5,37 c 0,-2.240634 -0.363383,-7.737508 -1.5625,-12.75 -0.599559,-2.506246 -1.397401,-4.889603 -2.5,-6.6875 C 40.334901,15.764603 38.855154,14.5 37,14.5 c -1.428239,0 -2.574614,0.586636 -3.78125,1.09375 C 32.012114,16.100864 30.723475,16.550362 29,16.5 c -2.667156,-0.07794 -1.625677,0.02583 -5,0 -2.067724,-0.01582 -3.013752,-0.01453 -5,0 -2.324997,0.01701 -3.12564,-0.409275 -4,-0.90625 C 14.12564,15.096775 13.137416,14.5 11,14.5 z"
     style="color:#000000;fill:url(#radialGradient4331);fill-opacity:1;fill-rule:nonzero;stroke:none;stroke-width:0.99999994000000003;marker:none;visibility:visible;display:inline;overflow:visible;enable-background:accumulate" />
  <g
     transform="translate(1.0290364,0)"
     id="g4450">
    <path
       transform="matrix(-0.77142904,0,0,-1.0128939,64.91384,52.309453)"
       style="opacity:0.21000001;color:#000000;fill:none;stroke:#000000;stroke-width:2.26255965;stroke-linecap:butt;stroke-linejoin:miter;stroke-miterlimit:4;stroke-opacity:1;stroke-dasharray:none;stroke-dashoffset:0;marker:none;visibility:visible;display:inline;overflow:visible;enable-background:accumulate"
       id="path4442"
       d="m 35,28.5 c 0,0.828427 -0.895431,1.5 -2,1.5 -1.104569,0 -2,-0.671573 -2,-1.5 0,-0.828427 0.895431,-1.5 2,-1.5 1.104569,0 2,0.671573 2,1.5 z" />
    <path
       transform="matrix(-0.77142904,0,0,-1.0128939,57.97098,52.309453)"
       style="opacity:0.21000001;color:#000000;fill:none;stroke:#000000;stroke-width:2.26255965;stroke-linecap:butt;stroke-linejoin:miter;stroke-miterlimit:4;stroke-opacity:1;stroke-dasharray:none;stroke-dashoffset:0;marker:none;visibility:visible;display:inline;overflow:visible;enable-background:accumulate"
       id="path4444"
       d="m 35,28.5 c 0,0.828427 -0.895431,1.5 -2,1.5 -1.104569,0 -2,-0.671573 -2,-1.5 0,-0.828427 0.895431,-1.5 2,-1.5 1.104569,0 2,0.671573 2,1.5 z" />
    <path
       transform="matrix(-0.77142904,0,0,-1.0128939,61.44241,55.348135)"
       style="opacity:0.21000001;color:#000000;fill:none;stroke:#000000;stroke-width:2.26255965;stroke-linecap:butt;stroke-linejoin:miter;stroke-miterlimit:4;stroke-opacity:1;stroke-dasharray:none;stroke-dashoffset:0;marker:none;visibility:visible;display:inline;overflow:visible;enable-background:accumulate"
       id="path4446"
       d="m 35,28.5 c 0,0.828427 -0.895431,1.5 -2,1.5 -1.104569,0 -2,-0.671573 -2,-1.5 0,-0.828427 0.895431,-1.5 2,-1.5 1.104569,0 2,0.671573 2,1.5 z" />
    <path
       transform="matrix(-0.77142904,0,0,-1.0128939,61.44241,49.270771)"
       style="opacity:0.21000001;color:#000000;fill:none;stroke:#000000;stroke-width:2.26255965;stroke-linecap:butt;stroke-linejoin:miter;stroke-miterlimit:4;stroke-opacity:1;stroke-dasharray:none;stroke-dashoffset:0;marker:none;visibility:visible;display:inline;overflow:visible;enable-background:accumulate"
       id="path4448"
       d="m 35,28.5 c 0,0.828427 -0.895431,1.5 -2,1.5 -1.104569,0 -2,-0.671573 -2,-1.5 0,-0.828427 0.895431,-1.5 2,-1.5 1.104569,0 2,0.671573 2,1.5 z" />
  </g>
  <path
     id="path4423"
     d="M 11 15 C 9.5004634 15 8.2485588 16.085146 7.21875 17.78125 C 6.1858802 19.482395 5.3749065 21.791585 4.75 24.25 C 3.5000645 29.167312 3.0000001 34.666173 3 37 C 3 39.332991 3.0755947 41.326354 3.75 42.75 C 4.4133046 44.150213 5.6979911 45 8 45 C 8.7345354 45 9.5612717 44.50505 10.5625 43.75 C 11.553717 43.0025 12.687661 42.002614 13.90625 41 C 16.340321 38.997329 19.117807 37 22 37 L 26 37 C 27.016752 37 28.165463 37.497868 29.40625 38.25 C 30.645001 39.000897 31.960942 40.000587 33.25 41 C 34.537076 41.997877 35.806879 42.997258 36.96875 43.75 C 38.135128 44.505662 39.145243 45 40 45 C 42.302009 45 43.586696 44.150213 44.25 42.75 C 44.92441 41.326354 44.999999 39.332992 45 37 C 45 34.813426 44.622691 29.329278 43.4375 24.375 C 42.848323 21.912154 42.077176 19.562329 41.03125 17.84375 L 41 17.8125 C 39.947002 16.095482 38.627931 15 37 15 C 35.708675 15 34.63558 15.545849 33.40625 16.0625 C 32.179684 16.57799 30.817574 17.05311 29 17 C 26.341998 16.92233 27.383786 17.0259 24 17 C 21.933651 16.98419 20.985303 16.98548 19 17 C 16.641849 17.017253 15.654773 16.557145 14.78125 16.0625 L 14.75 16.03125 C 13.866852 15.52928 13.044348 15 11 15 z "
     style="color:#000000;fill:url(#linearGradient4440);fill-opacity:1;fill-rule:nonzero;stroke:none;stroke-width:0.99999994000000003;marker:none;visibility:visible;display:inline;overflow:visible;enable-background:accumulate;opacity:0.4" />
  <path
     d="m 35,28.5 a 2,1.5 0 1 1 -4,0 2,1.5 0 1 1 4,0 z"
     id="path5767"
     style="color:#000000;fill:#dc0f0f;fill-opacity:1;fill-rule:nonzero;stroke:none;stroke-width:1;marker:none;visibility:visible;display:inline;overflow:visible;enable-background:accumulate"
     transform="matrix(-0.77142904,0,0,-1.0128939,65.942876,51.867476)" />
  <path
     d="m 35,28.5 a 2,1.5 0 1 1 -4,0 2,1.5 0 1 1 4,0 z"
     id="path5769"
     style="color:#000000;fill:#1c6ed7;fill-opacity:1;fill-rule:nonzero;stroke:none;stroke-width:1;marker:none;visibility:visible;display:inline;overflow:visible;enable-background:accumulate"
     transform="matrix(-0.77142904,0,0,-1.0128939,59.000016,51.867476)" />
  <path
     d="m 35,28.5 a 2,1.5 0 1 1 -4,0 2,1.5 0 1 1 4,0 z"
     id="path5771"
     style="color:#000000;fill:#73d216;fill-opacity:1;fill-rule:nonzero;stroke:none;stroke-width:1;marker:none;visibility:visible;display:inline;overflow:visible;enable-background:accumulate"
     transform="matrix(-0.77142904,0,0,-1.0128939,62.471446,54.906158)" />
  <path
     d="m 35,28.5 a 2,1.5 0 1 1 -4,0 2,1.5 0 1 1 4,0 z"
     id="path5773"
     style="color:#000000;fill:#edbc00;fill-opacity:1;fill-rule:nonzero;stroke:none;stroke-width:1;marker:none;visibility:visible;display:inline;overflow:visible;enable-background:accumulate"
     transform="matrix(-0.77142904,0,0,-1.0128939,62.471446,48.828794)" />
  <path
     d="m 37.0625,25.640625 a 1.109375,0.484375 0 1 1 -2.21875,0 1.109375,0.484375 0 1 1 2.21875,0 z"
     id="path5817"
     style="color:#000000;fill:#ffffff;fill-opacity:0.64375;fill-rule:nonzero;stroke:none;stroke-width:1;marker:none;visibility:visible;display:inline;overflow:visible;enable-background:accumulate"
     transform="matrix(-0.77142904,0,0,-1.0128939,61.266088,48.449458)" />
  <path
     d="m 37.0625,25.640625 a 1.109375,0.484375 0 1 1 -2.21875,0 1.109375,0.484375 0 1 1 2.21875,0 z"
     id="path6200"
     style="color:#000000;fill:#ffffff;fill-opacity:0.64375;fill-rule:nonzero;stroke:none;stroke-width:1;marker:none;visibility:visible;display:inline;overflow:visible;enable-background:accumulate"
     transform="matrix(-0.77142904,0,0,-1.0128939,68.20895,48.480857)" />
  <path
     d="m 37.0625,25.640625 a 1.109375,0.484375 0 1 1 -2.21875,0 1.109375,0.484375 0 1 1 2.21875,0 z"
     id="path6202"
     style="color:#000000;fill:#ffffff;fill-opacity:0.64375;fill-rule:nonzero;stroke:none;stroke-width:1;marker:none;visibility:visible;display:inline;overflow:visible;enable-background:accumulate"
     transform="matrix(-0.77142904,0,0,-1.0128939,64.713411,51.455728)" />
  <path
     d="m 37.0625,25.640625 a 1.109375,0.484375 0 1 1 -2.21875,0 1.109375,0.484375 0 1 1 2.21875,0 z"
     id="path6204"
     style="color:#000000;fill:#ffffff;fill-opacity:0.64375;fill-rule:nonzero;stroke:none;stroke-width:1;marker:none;visibility:visible;display:inline;overflow:visible;enable-background:accumulate"
     transform="matrix(-0.77142904,0,0,-1.0128939,64.737519,45.410264)" />
  <g
     transform="matrix(-1,0,0,1.0486111,42.000001,-9.75)"
     id="g4265">
    <path
       style="fill:url(#radialGradient4277);fill-opacity:1;stroke:none"
       id="path4267"
       d="m 20,32 c 0,2.209139 -1.790861,4 -4,4 -2.209139,0 -4,-1.790861 -4,-4 0,-2.209139 1.790861,-4 4,-4 2.209139,0 4,1.790861 4,4 z"
       transform="matrix(1.1314329,0,0,1.0064329,11.897074,-0.70585195)" />
    <path
       transform="matrix(1.0057181,0,0,0.894607,-0.1715433,2.872576)"
       d="m 33,31 c 0,1.656854 -1.343146,3 -3,3 -1.656854,0 -3,-1.343146 -3,-3 0,-1.656854 1.343146,-3 3,-3 1.656854,0 3,1.343146 3,3 z"
       id="path4269"
       style="fill:#171717;fill-opacity:1;stroke:none" />
    <path
       transform="matrix(1.1314329,0,0,1.0064329,11.897074,-0.70585195)"
       d="m 20,32 c 0,2.209139 -1.790861,4 -4,4 -2.209139,0 -4,-1.790861 -4,-4 0,-2.209139 1.790861,-4 4,-4 2.209139,0 4,1.790861 4,4 z"
       id="path4271"
       style="opacity:0.21000001;fill:none;stroke:#000000;stroke-width:0.8888889;stroke-miterlimit:4;stroke-opacity:1;stroke-dasharray:none" />
    <path
       style="opacity:0.2;fill:url(#radialGradient4279);fill-opacity:1;stroke:none"
       id="path4273"
       d="m 33,31 c 0,1.656854 -1.343146,3 -3,3 -1.656854,0 -3,-1.343146 -3,-3 0,-1.656854 1.343146,-3 3,-3 1.656854,0 3,1.343146 3,3 z"
       transform="matrix(0.66666667,0,0,0.59301375,9.857845,11.939246)" />
    <path
       style="opacity:0.4;fill:none;stroke:#000000;stroke-width:1.05425513;stroke-miterlimit:4;stroke-opacity:1;stroke-dasharray:none"
       id="path4275"
       d="m 33,31 c 0,1.656854 -1.343146,3 -3,3 -1.656854,0 -3,-1.343146 -3,-3 0,-1.656854 1.343146,-3 3,-3 1.656854,0 3,1.343146 3,3 z"
       transform="matrix(1.0057181,0,0,0.894607,-0.1715433,2.872576)" />
  </g>
  <path
     style="color:#000000;fill:none;fill-opacity:1;fill-rule:nonzero;stroke:#000000;stroke-width:1;marker:none;visibility:visible;display:inline;overflow:visible;enable-background:accumulate;stroke-opacity:1;stroke-miterlimit:4;stroke-dasharray:none;opacity:0.81"
     d="M 11 14.5 C 9.2591595 14.5 7.8565541 15.760215 6.78125 17.53125 C 5.7059459 19.302285 4.8820432 21.638509 4.25 24.125 C 2.9859136 29.097982 2.5000001 34.598721 2.5 37 C 2.5 39.343053 2.57073 41.402899 3.3125 42.96875 C 4.0542702 44.534601 5.5657922 45.5 8 45.5 C 8.9384459 45.5 9.854381 44.925923 10.875 44.15625 C 11.895619 43.386577 13.012914 42.367121 14.21875 41.375 C 16.630422 39.390758 19.356195 37.5 22 37.5 L 26 37.5 C 26.833333 37.5 27.953701 37.958547 29.15625 38.6875 C 30.358799 39.416453 31.649654 40.407776 32.9375 41.40625 C 34.225346 42.404724 35.499689 43.386702 36.6875 44.15625 C 37.875311 44.925798 38.961023 45.5 40 45.5 C 42.434208 45.5 43.94573 44.534601 44.6875 42.96875 C 45.42927 41.402899 45.499999 39.343054 45.5 37 C 45.5 34.759366 45.136617 29.262492 43.9375 24.25 C 43.337941 21.743754 42.540099 19.360397 41.4375 17.5625 C 40.334901 15.764603 38.855154 14.5 37 14.5 C 35.571761 14.5 34.425386 15.086636 33.21875 15.59375 C 32.012114 16.100864 30.723475 16.550362 29 16.5 C 26.332844 16.42206 27.374323 16.52583 24 16.5 C 21.932276 16.48418 20.986248 16.48547 19 16.5 C 16.675003 16.51701 15.87436 16.090725 15 15.59375 C 14.12564 15.096775 13.137416 14.5 11 14.5 z "
     id="path4232" />
  <path
     transform="matrix(-0.77142904,0,0,-1.0128939,65.942876,51.867476)"
     style="opacity:0.61000001;color:#000000;fill:none;stroke:#3a181b;stroke-width:1;stroke-linecap:butt;stroke-linejoin:miter;stroke-miterlimit:4;stroke-opacity:1;stroke-dasharray:none;stroke-dashoffset:0;marker:none;visibility:visible;display:inline;overflow:visible;enable-background:accumulate"
     id="path4238"
     d="m 35,28.5 a 2,1.5 0 1 1 -4,0 2,1.5 0 1 1 4,0 z" />
  <path
     transform="matrix(-0.77142904,0,0,-1.0128939,59.000016,51.867476)"
     style="opacity:0.61000001;color:#000000;fill:none;stroke:#181c3a;stroke-width:1;stroke-linecap:butt;stroke-linejoin:miter;stroke-miterlimit:4;stroke-opacity:1;stroke-dasharray:none;stroke-dashoffset:0;marker:none;visibility:visible;display:inline;overflow:visible;enable-background:accumulate"
     id="path4240"
     d="m 35,28.5 a 2,1.5 0 1 1 -4,0 2,1.5 0 1 1 4,0 z" />
  <path
     transform="matrix(-0.77142904,0,0,-1.0128939,62.471446,54.906158)"
     style="opacity:0.61000001;color:#000000;fill:none;stroke:#283a18;stroke-width:1;stroke-linecap:butt;stroke-linejoin:miter;stroke-miterlimit:4;stroke-opacity:1;stroke-dasharray:none;stroke-dashoffset:0;marker:none;visibility:visible;display:inline;overflow:visible;enable-background:accumulate"
     id="path4242"
     d="m 35,28.5 a 2,1.5 0 1 1 -4,0 2,1.5 0 1 1 4,0 z" />
  <path
     transform="matrix(-0.77142904,0,0,-1.0128939,62.471446,48.828794)"
     style="opacity:0.61000001;color:#000000;fill:none;stroke:#3a2e18;stroke-width:1;stroke-linecap:butt;stroke-linejoin:miter;stroke-miterlimit:4;stroke-opacity:1;stroke-dasharray:none;stroke-dashoffset:0;marker:none;visibility:visible;display:inline;overflow:visible;enable-background:accumulate"
     id="path4244"
     d="m 35,28.5 a 2,1.5 0 1 1 -4,0 2,1.5 0 1 1 4,0 z" />
  <g
     id="g4258">
    <path
       transform="matrix(1.1314329,0,0,1.0064329,11.897074,-0.70585195)"
       d="m 20,32 a 4,4 0 1 1 -8,0 4,4 0 1 1 8,0 z"
       id="path4211"
       style="fill:url(#radialGradient4213);fill-opacity:1;stroke:none" />
    <path
       style="fill:#171717;fill-opacity:1;stroke:none"
       id="path4215"
       d="m 33,31 a 3,3 0 1 1 -6,0 3,3 0 1 1 6,0 z"
       transform="matrix(1.0057181,0,0,0.894607,-0.1715433,2.872576)" />
    <path
       style="opacity:0.21;fill:none;stroke:#000000;stroke-width:0.88888889999999998;stroke-miterlimit:4;stroke-opacity:1;stroke-dasharray:none"
       id="path4234"
       d="m 20,32 a 4,4 0 1 1 -8,0 4,4 0 1 1 8,0 z"
       transform="matrix(1.1314329,0,0,1.0064329,11.897074,-0.70585195)" />
    <path
       transform="matrix(0.66666667,0,0,0.59301375,9.857845,11.939246)"
       d="m 33,31 a 3,3 0 1 1 -6,0 3,3 0 1 1 6,0 z"
       id="path4246"
       style="fill:url(#radialGradient4254);fill-opacity:1;stroke:none;opacity:0.2" />
    <path
       transform="matrix(1.0057181,0,0,0.894607,-0.1715433,2.872576)"
       d="m 33,31 a 3,3 0 1 1 -6,0 3,3 0 1 1 6,0 z"
       id="path4256"
       style="fill:none;fill-opacity:1;stroke:#000000;stroke-opacity:1;stroke-width:1.05425512000000010;stroke-miterlimit:4;stroke-dasharray:none;opacity:0.4" />
  </g>
  <g
     transform="matrix(-1,0,0,1,48.000001,0)"
     id="g4281">
    <path
       style="fill:url(#radialGradient4293);fill-opacity:1;stroke:none"
       id="path4283"
       d="m 20,32 c 0,2.209139 -1.790861,4 -4,4 -2.209139,0 -4,-1.790861 -4,-4 0,-2.209139 1.790861,-4 4,-4 2.209139,0 4,1.790861 4,4 z"
       transform="matrix(1.1314329,0,0,1.0064329,11.897074,-0.70585195)" />
    <path
       transform="matrix(1.0004516,0,0,0.95704887,-0.01354932,1.1400031)"
       d="m 33,31 a 3,3 0 1 1 -6,0 3,3 0 1 1 6,0 z"
       id="path4285"
       style="fill:#171717;fill-opacity:1;stroke:none" />
    <path
       transform="matrix(1.1314329,0,0,1.0064329,11.897074,-0.70585195)"
       d="m 20,32 c 0,2.209139 -1.790861,4 -4,4 -2.209139,0 -4,-1.790861 -4,-4 0,-2.209139 1.790861,-4 4,-4 2.209139,0 4,1.790861 4,4 z"
       id="path4287"
       style="opacity:0.3;fill:none;stroke:#000000;stroke-width:0.88888889999999998;stroke-miterlimit:4;stroke-opacity:1;stroke-dasharray:none" />
    <path
       style="opacity:0.4;fill:none;stroke:#000000;stroke-width:1.05425513;stroke-miterlimit:4;stroke-opacity:1;stroke-dasharray:none"
       id="path4291"
       d="m 33,31 a 3,3 0 1 1 -6,0 3,3 0 1 1 6,0 z"
       transform="matrix(1.0004516,0,0,0.95704887,-0.01354932,1.1400031)" />
  </g>
  <path
     style="opacity:0.4;fill:none;fill-opacity:1;stroke:#000000;stroke-opacity:1"
     d="m 15.125,30 c 2.23155,0.130785 1.990598,0.293424 1.8125,-1.84375 L 19.03125,28.25 c -0.116472,1.996173 -0.150987,1.718925 1.71875,1.78125 L 20.78125,31.875 C 18.766697,31.828946 18.931375,31.60976 19,33.53125 L 17.0625,33.5 c 0.10841,-1.87509 -0.06037,-1.479231 -1.78125,-1.5625 z"
     id="path4317" />
  <path
     id="path4299"
     d="m 15.125,30 c 2.23155,0.130785 1.990598,0.293424 1.8125,-1.84375 L 19.03125,28.25 c -0.116472,1.996173 -0.150987,1.718925 1.71875,1.78125 L 20.78125,31.875 C 18.766697,31.828946 18.931375,31.60976 19,33.53125 L 17.0625,33.5 c 0.10841,-1.87509 -0.06037,-1.479231 -1.78125,-1.5625 z"
     style="opacity:0.20000000000000001;fill:url(#radialGradient4315);fill-opacity:1;stroke:none" />
  <path
     transform="matrix(-0.62972232,0,0,-0.82683158,41.234558,46.748206)"
     style="color:#000000;fill:#171717;fill-opacity:1;fill-rule:nonzero;stroke:none;stroke-width:1;marker:none;visibility:visible;display:inline;overflow:visible;enable-background:accumulate"
     id="path4319"
     d="m 35,28.5 a 2,1.5 0 1 1 -4,0 2,1.5 0 1 1 4,0 z" />
  <path
     transform="matrix(-0.62972232,0,0,-0.82683158,43.084367,43.958057)"
     style="color:#000000;fill:#ffffff;fill-opacity:0.64375;fill-rule:nonzero;stroke:none;stroke-width:1;marker:none;visibility:visible;display:inline;overflow:visible;enable-background:accumulate"
     id="path4321"
     d="m 37.0625,25.640625 a 1.109375,0.484375 0 1 1 -2.21875,0 1.109375,0.484375 0 1 1 2.21875,0 z" />
  <path
     d="m 35,28.5 a 2,1.5 0 1 1 -4,0 2,1.5 0 1 1 4,0 z"
     id="path4323"
     style="opacity:0.61000001;color:#000000;fill:none;stroke:#000000;stroke-width:1;stroke-linecap:butt;stroke-linejoin:miter;stroke-miterlimit:4;stroke-opacity:1;stroke-dasharray:none;stroke-dashoffset:0;marker:none;visibility:visible;display:inline;overflow:visible;enable-background:accumulate"
     transform="matrix(-0.62972232,0,0,-0.82683158,41.234558,46.748206)" />
  <path
     d="m 35,28.5 a 2,1.5 0 1 1 -4,0 2,1.5 0 1 1 4,0 z"
     id="path4325"
     style="color:#000000;fill:#171717;fill-opacity:1;fill-rule:nonzero;stroke:none;stroke-width:1;marker:none;visibility:visible;display:inline;overflow:visible;enable-background:accumulate"
     transform="matrix(-0.62972232,0,0,-0.82683158,48.30007,46.748206)" />
  <path
     d="m 37.0625,25.640625 a 1.109375,0.484375 0 1 1 -2.21875,0 1.109375,0.484375 0 1 1 2.21875,0 z"
     id="path4327"
     style="color:#000000;fill:#ffffff;fill-opacity:0.64375;fill-rule:nonzero;stroke:none;stroke-width:1;marker:none;visibility:visible;display:inline;overflow:visible;enable-background:accumulate"
     transform="matrix(-0.62972232,0,0,-0.82683158,50.149879,43.958057)" />
  <path
     transform="matrix(-0.62972232,0,0,-0.82683158,48.30007,46.748206)"
     style="opacity:0.61000001;color:#000000;fill:none;stroke:#000000;stroke-width:1;stroke-linecap:butt;stroke-linejoin:miter;stroke-miterlimit:4;stroke-opacity:1;stroke-dasharray:none;stroke-dashoffset:0;marker:none;visibility:visible;display:inline;overflow:visible;enable-background:accumulate"
     id="path4329"
     d="m 35,28.5 a 2,1.5 0 1 1 -4,0 2,1.5 0 1 1 4,0 z" />
  <path
     d="M 44,38 A 20,6 0 1 1 4,38 20,6 0 1 1 44,38 z"
     id="path4393"
     style="opacity:0.29999999999999999;fill:url(#radialGradient4409);fill-opacity:1;stroke:none;stroke-width:1;stroke-linecap:round;stroke-miterlimit:4;stroke-opacity:1;stroke-dasharray:none" />
  <path
     id="path4346"
     d="M 22 36 C 19.117807 36 16.340321 37.997329 13.90625 40 C 12.687661 41.002614 11.553717 42.0025 10.5625 42.75 C 9.5612717 43.50505 8.7345354 44 8 44 C 5.6979911 44 4.4133046 43.150213 3.75 41.75 C 3.1442606 40.471305 3.0186981 38.718692 3 36.6875 C 2.998821 36.77454 3 36.920209 3 37 C 3 39.332991 3.0755947 41.326354 3.75 42.75 C 4.4133046 44.150213 5.6979911 45 8 45 C 8.7345354 45 9.5612717 44.50505 10.5625 43.75 C 11.553717 43.0025 12.687661 42.002614 13.90625 41 C 16.340321 38.997329 19.117807 37 22 37 L 26 37 C 27.016752 37 28.165463 37.497868 29.40625 38.25 C 30.645001 39.000897 31.960942 40.000587 33.25 41 C 34.537076 41.997877 35.806879 42.997258 36.96875 43.75 C 38.135128 44.505662 39.145243 45 40 45 C 42.302009 45 43.586696 44.150213 44.25 42.75 C 44.92441 41.326354 44.999999 39.332992 45 37 C 45 36.898563 45.001667 36.708998 45 36.59375 C 44.984185 38.665496 44.865107 40.451539 44.25 41.75 C 43.586696 43.150213 42.302009 44 40 44 C 39.145243 44 38.135128 43.505662 36.96875 42.75 C 35.806879 41.997258 34.537076 40.997877 33.25 40 C 31.960942 39.000587 30.645001 38.000897 29.40625 37.25 C 28.165463 36.497868 27.016752 36 26 36 L 22 36 z "
     style="color:#000000;fill:#ffffff;fill-opacity:1;fill-rule:nonzero;stroke:none;stroke-width:0.99999994000000003;marker:none;visibility:visible;display:inline;overflow:visible;enable-background:accumulate;opacity:0.1" />
  <path
     id="path4360"
     d="M 11 15 C 9.5004634 15 8.2485588 16.085146 7.21875 17.78125 C 6.1858802 19.482395 5.3749065 21.791585 4.75 24.25 C 3.5000645 29.167312 3.0000001 34.666173 3 37 C 3 37.237538 2.9978804 37.457247 3 37.6875 C 3.0333063 35.228675 3.5427983 29.999195 4.75 25.25 C 5.3749065 22.791585 6.1858802 20.482395 7.21875 18.78125 C 8.2485588 17.085146 9.5004634 16 11 16 C 13.044348 16 13.866852 16.52928 14.75 17.03125 L 14.78125 17.0625 C 15.654773 17.557145 16.641849 18.01725 19 18 C 20.985303 17.98548 21.933651 17.98419 24 18 C 27.383786 18.0259 26.341998 17.92233 29 18 C 30.817574 18.05311 32.179684 17.57799 33.40625 17.0625 C 34.63558 16.545849 35.708675 16 37 16 C 38.627931 16 39.947002 17.095482 41 18.8125 L 41.03125 18.84375 C 42.077176 20.562329 42.848323 22.912154 43.4375 25.375 C 44.567709 30.099446 44.965733 35.224707 45 37.59375 C 45.001525 37.394012 45 37.205147 45 37 C 45 34.813426 44.622691 29.329278 43.4375 24.375 C 42.848323 21.912154 42.077176 19.562329 41.03125 17.84375 L 41 17.8125 C 39.947002 16.095482 38.627931 15 37 15 C 35.708675 15 34.63558 15.545849 33.40625 16.0625 C 32.179684 16.57799 30.817574 17.05311 29 17 C 26.341998 16.92233 27.383786 17.0259 24 17 C 21.933651 16.98419 20.985303 16.98548 19 17 C 16.641849 17.017253 15.654773 16.557145 14.78125 16.0625 L 14.75 16.03125 C 13.866852 15.52928 13.044348 15 11 15 z "
     style="color:#000000;fill:#ffffff;fill-opacity:1;fill-rule:nonzero;stroke:none;stroke-width:0.99999994000000003;marker:none;visibility:visible;display:inline;overflow:visible;enable-background:accumulate;opacity:0.1" />
</svg>
