<?xml version="1.0" encoding="UTF-8" standalone="no"?>
<!-- Created with Inkscape (http://www.inkscape.org/) -->

<svg
   xmlns:dc="http://purl.org/dc/elements/1.1/"
   xmlns:cc="http://creativecommons.org/ns#"
   xmlns:rdf="http://www.w3.org/1999/02/22-rdf-syntax-ns#"
   xmlns:svg="http://www.w3.org/2000/svg"
   xmlns="http://www.w3.org/2000/svg"
   xmlns:xlink="http://www.w3.org/1999/xlink"
   xmlns:sodipodi="http://sodipodi.sourceforge.net/DTD/sodipodi-0.dtd"
   xmlns:inkscape="http://www.inkscape.org/namespaces/inkscape"
   version="1.1"
   width="48"
   height="48"
   id="svg5572"
   inkscape:version="0.48.4 r9939"
   sodipodi:docname="input-mouse.svg">
  <sodipodi:namedview
     pagecolor="#000000"
     bordercolor="#666666"
     borderopacity="1"
     objecttolerance="10"
     gridtolerance="10"
     guidetolerance="10"
     inkscape:pageopacity="0"
     inkscape:pageshadow="2"
     inkscape:window-width="1364"
     inkscape:window-height="700"
     id="namedview30"
     showgrid="false"
     showguides="true"
     inkscape:guide-bbox="true"
     inkscape:zoom="1"
     inkscape:cx="35.66788"
     inkscape:cy="29.481263"
     inkscape:window-x="0"
     inkscape:window-y="28"
     inkscape:window-maximized="1"
     inkscape:current-layer="svg5572"
     showborder="false"
     inkscape:snap-bbox="true"
     inkscape:bbox-nodes="true"
     inkscape:snap-global="true">
    <inkscape:grid
       type="xygrid"
       id="grid3811"
       empspacing="4"
       visible="true"
       enabled="true"
       snapvisiblegridlinesonly="true" />
  </sodipodi:namedview>
  <metadata
     id="metadata33">
    <rdf:RDF>
      <cc:Work
         rdf:about="">
        <dc:format>image/svg+xml</dc:format>
        <dc:type
           rdf:resource="http://purl.org/dc/dcmitype/StillImage" />
        <dc:title />
      </cc:Work>
    </rdf:RDF>
  </metadata>
  <defs
     id="defs5574">
    <linearGradient
       inkscape:collect="always"
       id="linearGradient3862">
      <stop
         style="stop-color:#ffffff;stop-opacity:1;"
         offset="0"
         id="stop3864" />
      <stop
         style="stop-color:#ffffff;stop-opacity:0;"
         offset="1"
         id="stop3866" />
    </linearGradient>
    <linearGradient
       id="linearGradient4058">
      <stop
         style="stop-color:#000000;stop-opacity:1"
         offset="0"
         id="stop4060" />
      <stop
         style="stop-color:#ffffff;stop-opacity:1"
         offset="1"
         id="stop4062" />
    </linearGradient>
    <linearGradient
       id="linearGradient3825">
      <stop
         offset="0"
         style="stop-color:#ffffff;stop-opacity:1"
         id="stop3827" />
      <stop
         id="stop3831"
         style="stop-color:#ededed;stop-opacity:1;"
         offset="0.5" />
      <stop
         offset="1"
         style="stop-color:#c8c8c8;stop-opacity:1"
         id="stop3829" />
    </linearGradient>
    <linearGradient
       x1="14"
       y1="2"
       x2="32"
       y2="40"
       id="linearGradient5011"
       xlink:href="#linearGradient3208"
       gradientUnits="userSpaceOnUse"
       gradientTransform="matrix(2.1460849,0,0,1.0156771,-23.23498,-3.5595864)" />
    <linearGradient
       id="linearGradient3208">
      <stop
         id="stop3210"
         style="stop-color:#ffffff;stop-opacity:1"
         offset="0" />
      <stop
         id="stop3212"
         style="stop-color:#ffffff;stop-opacity:0"
         offset="1" />
    </linearGradient>
    <linearGradient
       x1="24.117819"
       y1="33.657772"
       x2="-32.011677"
       y2="33.657784"
       id="linearGradient4431"
       xlink:href="#linearGradient3775"
       gradientUnits="userSpaceOnUse"
       gradientTransform="matrix(1.6404588e-7,-0.71176883,0.77331967,3.5230759e-7,-2.0282201,21.190684)" />
    <linearGradient
       id="linearGradient3775">
      <stop
         id="stop3777"
         style="stop-color:#ffffff;stop-opacity:1"
         offset="0" />
      <stop
         id="stop3779"
         style="stop-color:#ffffff;stop-opacity:0"
         offset="1" />
    </linearGradient>
    <linearGradient
       x1="18.601307"
       y1="0.85446119"
       x2="18.601307"
       y2="49.956139"
       id="linearGradient5466-8"
       xlink:href="#linearGradient3600-8"
       gradientUnits="userSpaceOnUse"
       gradientTransform="matrix(1,0,0,0.89491027,221.92948,418.08675)" />
    <linearGradient
       id="linearGradient3600-8">
      <stop
         id="stop3602-2"
         style="stop-color:#f4f4f4;stop-opacity:1"
         offset="0" />
      <stop
         id="stop3604-5"
         style="stop-color:#dbdbdb;stop-opacity:1"
         offset="1" />
    </linearGradient>
    <linearGradient
       x1="-74.784531"
       y1="54.702854"
       x2="-74.784531"
       y2="2.103905"
       id="linearGradient5468-1"
       xlink:href="#linearGradient3104-5"
       gradientUnits="userSpaceOnUse"
       gradientTransform="matrix(0.8074968,0,0,0.83750269,281.33971,417.08939)" />
    <linearGradient
       id="linearGradient3104-5">
      <stop
         id="stop3106-2"
         style="stop-color:#d9d9d9;stop-opacity:1;"
         offset="0" />
      <stop
         id="stop3108-2"
         style="stop-color:#c8c8c8;stop-opacity:1"
         offset="1" />
    </linearGradient>
    <linearGradient
       id="linearGradient23419-5">
      <stop
         id="stop23421-7"
         style="stop-color:#000000;stop-opacity:1"
         offset="0" />
      <stop
         id="stop23423-0"
         style="stop-color:#000000;stop-opacity:0"
         offset="1" />
    </linearGradient>
    <radialGradient
       cx="23.334524"
       cy="41.63604"
       r="22.627417"
       fx="23.334524"
       fy="41.63604"
       id="radialGradient5570"
       xlink:href="#linearGradient23419-5"
       gradientUnits="userSpaceOnUse"
       gradientTransform="matrix(0.61871836,0,0,0.17676017,9.5625,35.640404)" />
    <linearGradient
       inkscape:collect="always"
       xlink:href="#linearGradient3600-8"
       id="linearGradient3793"
       gradientUnits="userSpaceOnUse"
       gradientTransform="matrix(1.0036581,0,0,0.85536638,17.33062,2.2691608)"
       x1="18.601307"
       y1="0.85446119"
       x2="18.601307"
       y2="49.956139" />
    <radialGradient
       inkscape:collect="always"
       xlink:href="#linearGradient3825"
       id="radialGradient3823"
       cx="24"
       cy="11.2"
       fx="24"
       fy="11.2"
       r="2"
       gradientUnits="userSpaceOnUse" />
    <linearGradient
       id="linearGradient4083-1">
      <stop
         style="stop-color:#676767;stop-opacity:1;"
         offset="0"
         id="stop4085-4" />
      <stop
         style="stop-color:#2d2d2d;stop-opacity:1;"
         offset="1"
         id="stop4087-9" />
    </linearGradient>
    <linearGradient
       id="linearGradient3914-8">
      <stop
         style="stop-color:#323232;stop-opacity:1;"
         offset="0"
         id="stop3916-4" />
      <stop
         style="stop-color:#000000;stop-opacity:1;"
         offset="1"
         id="stop3918-4" />
    </linearGradient>
    <linearGradient
       id="linearGradient4612-5">
      <stop
         style="stop-color:#3d3d3d;stop-opacity:1;"
         offset="0"
         id="stop4614-0" />
      <stop
         style="stop-color:#464646;stop-opacity:1;"
         offset="1"
         id="stop4616-1" />
    </linearGradient>
    <linearGradient
       id="linearGradient5582">
      <stop
         id="stop5584"
         offset="0"
         style="stop-color:#999ea0;stop-opacity:1" />
      <stop
         style="stop-color:#6b7373;stop-opacity:1"
         offset="0.32954615"
         id="stop5586" />
      <stop
         id="stop5588"
         offset="1"
         style="stop-color:#d8dadb;stop-opacity:1" />
    </linearGradient>
    <radialGradient
       inkscape:collect="always"
       xlink:href="#linearGradient5604"
       id="radialGradient5610"
       cx="143.03371"
       cy="139.73465"
       fx="143.03371"
       fy="139.73465"
       r="61.734539"
       gradientTransform="matrix(3.4841186,0.01003243,-0.00748765,2.6003545,-354.26641,-245.17765)"
       gradientUnits="userSpaceOnUse" />
    <linearGradient
       inkscape:collect="always"
       id="linearGradient5604">
      <stop
         style="stop-color:#ffffff;stop-opacity:1;"
         offset="0"
         id="stop5606" />
      <stop
         style="stop-color:#ffffff;stop-opacity:0;"
         offset="1"
         id="stop5608" />
    </linearGradient>
    <linearGradient
       inkscape:collect="always"
       xlink:href="#linearGradient5582"
       id="linearGradient3200"
       gradientUnits="userSpaceOnUse"
       gradientTransform="matrix(0.29101578,0,0,0.31054449,-18.196548,-21.455548)"
       x1="144.64235"
       y1="107.60029"
       x2="144.64235"
       y2="85.600197" />
    <radialGradient
       inkscape:collect="always"
       xlink:href="#linearGradient3600-8"
       id="radialGradient3206"
       gradientUnits="userSpaceOnUse"
       gradientTransform="matrix(0.49372526,0,0,0.29103913,-39.345239,-26.093392)"
       cx="117.07812"
       cy="127.93034"
       fx="117.07812"
       fy="127.93034"
       r="60.605656" />
    <radialGradient
       inkscape:collect="always"
       xlink:href="#linearGradient4083-1"
       id="radialGradient3209"
       gradientUnits="userSpaceOnUse"
       gradientTransform="matrix(-0.37380414,-0.03725059,-0.04102928,0.41172254,79.822683,-33.172531)"
       cx="108.33212"
       cy="180.69263"
       fx="108.33212"
       fy="180.69263"
       r="31.872307" />
    <radialGradient
       inkscape:collect="always"
       xlink:href="#linearGradient4612-5"
       id="radialGradient3215"
       gradientUnits="userSpaceOnUse"
       gradientTransform="matrix(0.4889519,0.0146336,-0.02419097,0.63790253,-43.715575,-74.982726)"
       cx="144.72844"
       cy="128.39641"
       fx="144.72844"
       fy="128.39641"
       r="12.858741" />
    <linearGradient
       inkscape:collect="always"
       xlink:href="#linearGradient4097"
       id="linearGradient4072"
       gradientUnits="userSpaceOnUse"
       gradientTransform="translate(-0.25,1)"
       x1="25.25"
       y1="39"
       x2="25.25"
       y2="15" />
    <linearGradient
       x1="17.740999"
       y1="24.049999"
       gradientTransform="matrix(0.99778,0,0,0.88551429,0.053179,4.2043715)"
       x2="11.218"
       gradientUnits="userSpaceOnUse"
       y2="12.883"
       id="linearGradient4097">
      <stop
         offset="0"
         style="stop-color:#acacac;stop-opacity:1;"
         id="stop4099" />
      <stop
         id="stop4101"
         style="stop-color:#b6b6b6;stop-opacity:1;"
         offset="0.25" />
      <stop
         id="stop4103"
         style="stop-color:#d9d9d9;stop-opacity:1;"
         offset="0.25" />
      <stop
         offset="1"
         style="stop-color:#d4d4d4;stop-opacity:1;"
         id="stop4105" />
    </linearGradient>
    <linearGradient
       inkscape:collect="always"
       xlink:href="#linearGradient4058"
       id="linearGradient3856"
       gradientUnits="userSpaceOnUse"
       x1="24.16704"
       y1="21.121538"
       x2="23.04467"
       y2="-3.8424616" />
    <radialGradient
       inkscape:collect="always"
       xlink:href="#linearGradient3862"
       id="radialGradient3870"
       cx="28"
       cy="29.598143"
       fx="28"
       fy="29.598143"
       r="11.548461"
       gradientTransform="matrix(1.0420741,0.1488678,-0.34636664,2.4245653,9.0737345,-39.93093)"
       gradientUnits="userSpaceOnUse" />
  </defs>
  <path
     sodipodi:nodetypes="csscssssszsssc"
     inkscape:connector-curvature="0"
     id="path4068"
     d="m 24.228344,1.0442868 c -2.13753,0.060625 -5.906192,1.0548272 -8.126699,2.629899 -1.75113,1.2421277 -3.601029,3.3864462 -4.28946,5.4200151 -0.820291,2.4230721 -0.526678,5.1915621 0,7.6744761 0,0 0.340899,3.104245 0.299265,4.661879 -0.102571,3.837419 -2.6861917,5.096117 -2.6088481,7.991273 0.1280854,4.794541 3.6879671,11.582047 6.9050241,13.527734 7.916864,4.788147 15.904874,3.034766 20.904874,-6.965234 1.295215,-2.590429 1.227571,-12.162581 1.125,-16 C 38.39587,18.426695 37,16.921829 37,15.421829 c 0,-1.5 0,-4 -0.302295,-6.3276281 -0.276506,-2.1290571 -2.53833,-4.1778874 -4.28946,-5.4200151 -2.220507,-1.5750718 -5.989169,-2.5692736 -8.126699,-2.629899 -0.01709,-4.256e-4 -0.03633,4.256e-4 -0.0532,0 z"
     style="opacity:0.1;color:#000000;fill:#000000;fill-opacity:1;stroke:#000000;stroke-width:0;stroke-miterlimit:4;stroke-opacity:1;stroke-dasharray:none;marker:none;visibility:visible;display:inline;overflow:visible;enable-background:accumulate" />
  <path
     sodipodi:nodetypes="csscssssszsssc"
     inkscape:connector-curvature="0"
     id="path4074"
     d="m 24.228344,1.5442868 c -2.13753,0.060625 -5.906192,1.0548272 -8.126699,2.629899 -1.75113,1.2421277 -3.601029,3.3864462 -4.28946,5.4200151 -0.820291,2.4230721 -0.526678,5.1915621 0,7.6744761 0,0 0.340899,3.104245 0.299265,4.661879 -0.102571,3.837419 -2.6861917,5.096117 -2.6088481,7.991273 0.1280854,4.794541 3.6879671,11.582047 6.9050241,13.527734 7.916864,4.788147 15.904874,3.034766 20.904874,-6.965234 1.295215,-2.590429 1.227571,-12.162581 1.125,-16 C 38.39587,18.926695 37,17.421829 37,15.921829 c 0,-1.5 0,-4 -0.302295,-6.3276281 -0.276506,-2.1290571 -2.53833,-4.1778874 -4.28946,-5.4200151 -2.220507,-1.5750718 -5.989169,-2.5692736 -8.126699,-2.629899 -0.01709,-4.256e-4 -0.03633,4.256e-4 -0.0532,0 z"
     style="opacity:0.05;color:#000000;fill:#000000;fill-opacity:1;stroke:#000000;stroke-width:3;stroke-miterlimit:4;stroke-opacity:1;stroke-dasharray:none;marker:none;visibility:visible;display:inline;overflow:visible;enable-background:accumulate" />
  <path
     sodipodi:nodetypes="csscssssszsssc"
     inkscape:connector-curvature="0"
     id="path4072"
     d="m 24.228344,1.5442868 c -2.13753,0.060625 -5.906192,1.0548272 -8.126699,2.629899 -1.75113,1.2421277 -3.601029,3.3864462 -4.28946,5.4200151 -0.820291,2.4230721 -0.526678,5.1915621 0,7.6744761 0,0 0.340899,3.104245 0.299265,4.661879 -0.102571,3.837419 -2.6861917,5.096117 -2.6088481,7.991273 0.1280854,4.794541 3.6879671,11.582047 6.9050241,13.527734 7.916864,4.788147 15.904874,3.034766 20.904874,-6.965234 1.295215,-2.590429 1.227571,-12.162581 1.125,-16 C 38.39587,18.926695 37,17.421829 37,15.921829 c 0,-1.5 0,-4 -0.302295,-6.3276281 -0.276506,-2.1290571 -2.53833,-4.1778874 -4.28946,-5.4200151 -2.220507,-1.5750718 -5.989169,-2.5692736 -8.126699,-2.629899 -0.01709,-4.256e-4 -0.03633,4.256e-4 -0.0532,0 z"
     style="opacity:0.2;color:#000000;fill:#000000;fill-opacity:1;stroke:#000000;stroke-width:1;stroke-miterlimit:4;stroke-opacity:1;stroke-dasharray:none;marker:none;visibility:visible;display:inline;overflow:visible;enable-background:accumulate" />
  <path
     style="opacity:0.1;color:#000000;fill:#000000;fill-opacity:1;stroke:#000000;stroke-width:2;stroke-miterlimit:4;stroke-opacity:1;stroke-dasharray:none;marker:none;visibility:visible;display:inline;overflow:visible;enable-background:accumulate"
     d="m 24.228344,1.5442868 c -2.13753,0.060625 -5.906192,1.0548272 -8.126699,2.629899 -1.75113,1.2421277 -3.601029,3.3864462 -4.28946,5.4200151 -0.820291,2.4230721 -0.526678,5.1915621 0,7.6744761 0,0 0.340899,3.104245 0.299265,4.661879 -0.102571,3.837419 -2.6861917,5.096117 -2.6088481,7.991273 0.1280854,4.794541 3.6879671,11.582047 6.9050241,13.527734 7.916864,4.788147 15.904874,3.034766 20.904874,-6.965234 1.295215,-2.590429 1.227571,-12.162581 1.125,-16 C 38.39587,18.926695 37,17.421829 37,15.921829 c 0,-1.5 0,-4 -0.302295,-6.3276281 -0.276506,-2.1290571 -2.53833,-4.1778874 -4.28946,-5.4200151 -2.220507,-1.5750718 -5.989169,-2.5692736 -8.126699,-2.629899 -0.01709,-4.256e-4 -0.03633,4.256e-4 -0.0532,0 z"
     id="path4066"
     inkscape:connector-curvature="0"
     sodipodi:nodetypes="csscssssszsssc" />
  <path
     style="color:#000000;fill:url(#radialGradient3209);fill-opacity:1;fill-rule:nonzero;stroke:none;stroke-width:2;marker:none;visibility:visible;display:inline;overflow:visible;enable-background:accumulate"
     d="m 24.228344,0.62245776 c -2.13753,0.060625 -5.906192,1.05482724 -8.126699,2.62989904 -1.75113,1.2421277 -3.601029,3.3864462 -4.28946,5.4200151 -0.820291,2.4230721 -0.526678,5.1915621 0,7.6744761 0,0 0.340899,3.104245 0.299265,4.661879 C 12.008879,24.846146 9.4252583,26.104844 9.5026019,29 9.6306873,33.794541 13.190569,40.582047 16.407626,42.527734 24.32449,47.315881 32.3125,45.5625 37.3125,35.5625 c 1.295215,-2.590429 1.227571,-12.162581 1.125,-16 C 38.39587,18.004866 37,16.5 37,15 37,13.5 37,11 36.697705,8.6723719 36.421199,6.5433148 34.159375,4.4944845 32.408245,3.2523568 30.187738,1.677285 26.419076,0.68308316 24.281546,0.62245776 c -0.01709,-4.256e-4 -0.03633,4.256e-4 -0.0532,0 z"
     id="use3906-1"
     inkscape:connector-curvature="0"
     sodipodi:nodetypes="csscssssszsssc" />
  <path
     style="opacity:0.1;color:#000000;fill:#ffffff;fill-opacity:1;fill-rule:nonzero;stroke:none;stroke-width:2;marker:none;visibility:visible;display:inline;overflow:visible;enable-background:accumulate"
     d="m 24.21875,1.1205583 c -2.072997,0.062519 -5.772739,1.0888285 -7.8125,2.5356917 -1.665179,1.1811603 -3.489572,3.3104963 -4.125,5.1875 -0.385789,1.139591 -0.508154,2.364087 -0.46875,3.625 0.03965,-0.911718 0.186028,-1.789862 0.46875,-2.625 0.635428,-1.8770037 2.459821,-4.0063397 4.125,-5.1875 2.039761,-1.4468632 5.739503,-2.4731727 7.8125,-2.5356917 0.02165,5.456e-4 0.02225,1.079e-4 0.03125,0 0.009,-1.079e-4 0.03565,1.1e-4 0.03125,0 2.068161,0.058658 5.796008,1.0831676 7.84375,2.5356917 1.705223,1.2095642 3.825569,3.2694113 4.0625,5.09375 0.148205,1.141141 0.240176,2.316535 0.28125,3.40625 C 36.442931,11.800413 36.387812,10.292374 36.1875,8.75 35.950569,6.9256613 33.830223,4.8658142 32.125,3.65625 30.077258,2.2037259 26.349411,1.1792163 24.28125,1.1205583 c 0.0044,1.1e-4 -0.02225,-1.079e-4 -0.03125,0 -0.009,1.079e-4 -0.0096,5.456e-4 -0.03125,0 z M 36.5,15 c 0.0024,0.317257 0,0.736296 0,1 0,0.967597 0.03657,1.6636 0.53125,2.28125 0.49468,0.61765 0.89096,1.709062 0.90625,2.28125 C 37.9631,21.520483 37.98605,22.277348 38,23.75 37.9945,21.887307 37.96864,20.727615 37.9375,19.5625 37.92221,18.990312 37.52593,17.8989 37.03125,17.28125 36.53657,16.6636 36.5,15.967597 36.5,15 z m -23.90625,6.21875 c -0.09457,1.921222 -0.773974,3.248651 -1.40625,4.375 C 10.53376,26.758336 9.965349,27.702929 10,29 c 0.0035,0.13237 0.0221,0.270366 0.03125,0.40625 0.122573,-1.005508 0.607746,-1.835384 1.15625,-2.8125 0.65374,-1.164586 1.38326,-2.533159 1.4375,-4.5625 0.0062,-0.232989 -0.02361,-0.534291 -0.03125,-0.8125 z"
     id="path4010"
     inkscape:connector-curvature="0"
     sodipodi:nodetypes="csscsscscsscssccccssscssccsscssc" />
  <g
     style="font-size:12.23028563999999996px;font-style:italic;font-variant:normal;font-weight:bold;font-stretch:normal;text-align:start;line-height:125%;letter-spacing:0px;word-spacing:0px;writing-mode:lr-tb;text-anchor:start;fill:#eeeeec;fill-opacity:1;stroke:none;font-family:Cantarell;-inkscape-font-specification:Cantarell Bold Italic;"
     id="text4017-1"
     transform="matrix(0,0.15367635,-0.15367635,0,53.090889,5.3471387)" />
  <path
     sodipodi:nodetypes="zsccsssz"
     inkscape:connector-curvature="0"
     id="path3860"
     d="m 13,9 c -1,4 -0.310666,9.890056 0.994325,12.469267 6.763116,13.366758 4.387485,21.736478 2.705849,20.712873 4.644107,2.684172 10.440327,3.077095 15.009787,0 C 30.119446,42.104674 29.468088,32.082141 34.125,21.344267 35.217619,18.824913 36.147031,10.971323 35.276142,8.5659666 34.205886,5.6099666 34,0.55805826 24,0.55805826 15.108956,0.55805826 14,5 13,9 z"
     style="opacity:0.2;color:#000000;fill:url(#radialGradient3870);fill-opacity:1;fill-rule:nonzero;stroke:none;stroke-width:2;marker:none;visibility:visible;display:inline;overflow:visible;enable-background:accumulate" />
  <path
     sodipodi:nodetypes="csscssssszsssc"
     inkscape:connector-curvature="0"
     id="path4008"
     d="m 24.228344,0.62245776 c -2.13753,0.060625 -5.906192,1.05482724 -8.126699,2.62989904 -1.75113,1.2421277 -3.601029,3.3864462 -4.28946,5.4200151 -0.820291,2.4230721 -0.526678,5.1915621 0,7.6744761 0,0 0.340899,3.104245 0.299265,4.661879 C 12.008879,24.846146 9.4252583,26.104844 9.5026019,29 9.6306873,33.794541 13.190569,40.582047 16.407626,42.527734 24.32449,47.315881 32.3125,45.5625 37.3125,35.5625 c 1.295215,-2.590429 1.227571,-12.162581 1.125,-16 C 38.39587,18.004866 37,16.5 37,15 37,13.5 37,11 36.697705,8.6723719 36.421199,6.5433148 34.159375,4.4944845 32.408245,3.2523568 30.187738,1.677285 26.419076,0.68308316 24.281546,0.62245776 c -0.01709,-4.256e-4 -0.03633,4.256e-4 -0.0532,0 z"
     style="opacity:0.61000001;color:#000000;fill:none;stroke:#000000;stroke-width:1;stroke-miterlimit:4;stroke-opacity:1;stroke-dasharray:none;marker:none;visibility:visible;display:inline;overflow:visible;enable-background:accumulate" />
  <g
     id="g3849" />
  <path
     style="color:#000000;fill:url(#radialGradient3206);fill-opacity:1;fill-rule:nonzero;stroke:none;stroke-width:2;marker:none;visibility:visible;display:inline;overflow:visible;enable-background:accumulate"
     d="m 13,9 c -1,4 -0.310666,9.890056 0.994325,12.469267 6.763116,13.366758 4.387485,21.736478 2.705849,20.712873 4.644107,2.684172 10.440327,3.077095 15.009787,0 C 30.119446,42.104674 29.468088,32.082141 34.125,21.344267 35.217619,18.824913 36.147031,10.971323 35.276142,8.5659666 34.205886,5.6099666 34,0.55805826 24,0.55805826 15.108956,0.55805826 14,5 13,9 z"
     id="path3896-4"
     inkscape:connector-curvature="0"
     sodipodi:nodetypes="zsccsssz" />
  <path
     sodipodi:nodetypes="zsccsssz"
     inkscape:connector-curvature="0"
     id="path3858"
     d="m 13,9 c -1,4 -0.310666,9.890056 0.994325,12.469267 6.763116,13.366758 4.387485,21.736478 2.705849,20.712873 4.644107,2.684172 10.440327,3.077095 15.009787,0 C 30,40.5 29.733253,31.86117 34.125,21.344267 35.183177,18.810254 36.147031,10.971323 35.276142,8.5659666 34.205886,5.6099666 34,0.55805826 24,0.55805826 15.108956,0.55805826 14,5 13,9 z"
     style="opacity:0.41000001;color:#000000;fill:none;stroke:#000000;stroke-width:1;stroke-miterlimit:4;stroke-opacity:1;stroke-dasharray:none;marker:none;visibility:visible;display:inline;overflow:visible;enable-background:accumulate" />
  <path
     style="color:#000000;fill:url(#radialGradient3215);fill-opacity:1;fill-rule:nonzero;stroke:none;stroke-width:2;marker:none;visibility:visible;display:inline;overflow:visible;enable-background:accumulate"
     d="M 24.065256,0.93305566 C 29.063828,2.3537619 27.098858,8.6458703 27,13 l -1,9 c -0.491554,4.454794 -3.90042,3.297454 -4,0 L 21,13 C 21.10232,9.7943177 19.483236,1.071398 24.065256,0.93305566 z"
     id="rect3898-2"
     inkscape:connector-curvature="0"
     sodipodi:nodetypes="cccccc" />
  <rect
     style="opacity:0.6;color:#000000;fill:url(#linearGradient3200);fill-opacity:1;fill-rule:nonzero;stroke:#000000;stroke-width:1.09910726999999997;stroke-miterlimit:4;stroke-opacity:1;stroke-dasharray:none;marker:none;visibility:visible;display:inline;overflow:visible;enable-background:accumulate"
     id="rect3900-7"
     width="2.7349725"
     height="8.0258961"
     x="22.715473"
     y="4.4245501"
     rx="1.3674862"
     ry="1.3674862" />
  <path
     style="font-size:medium;font-style:normal;font-variant:normal;font-weight:normal;font-stretch:normal;text-indent:0;text-align:start;text-decoration:none;line-height:normal;letter-spacing:normal;word-spacing:normal;text-transform:none;direction:ltr;block-progression:tb;writing-mode:lr-tb;text-anchor:start;baseline-shift:baseline;opacity:0.1;color:#000000;fill:url(#linearGradient3856);fill-opacity:1;stroke:none;stroke-width:4;marker:none;visibility:visible;display:inline;overflow:visible;enable-background:accumulate;font-family:Sans;-inkscape-font-specification:Sans"
     d="m 19.65625,2.9375 c -2.115589,0.9357452 -4.331349,1.4497509 -4.9375,3 -0.586662,2.5858052 -1.516805,5.923238 -1.09375,9.125 0.04599,1.281674 0.439727,2.456047 0.625,3.53125 0.185273,1.075203 1.095911,3.794997 1.84375,5.78125 0.747839,1.986253 6.281032,6.058978 4.9375,-0.78125 C 20.038109,17.507766 19.173851,8.9621609 19.65625,2.9375 z M 28.375,3 c 0.302218,8.168499 0.155656,15.240142 -1.96875,21.1875 -0.99653,4.754427 4.223096,3.318794 5.28125,1.1875 1.868525,-2.460428 2.539758,-7.203381 2.84375,-10.5 C 34.686765,7.901944 33.948866,4.7410602 28.375,3 z"
     id="path4041"
     inkscape:connector-curvature="0"
     sodipodi:nodetypes="cccssccccccc" />
  <path
     sodipodi:nodetypes="cccccc"
     inkscape:connector-curvature="0"
     id="path3993"
     d="M 24.065256,0.93305566 C 29,1.5580583 27.098858,8.6458703 27,13 l -1,9 c -0.491554,4.454794 -3.90042,3.297454 -4,0 L 21,13 C 21.10232,9.7943177 19.483236,1.071398 24.065256,0.93305566 z"
     style="opacity:0.41000001;color:#000000;fill:none;stroke:#000000;stroke-width:1;stroke-miterlimit:4;stroke-opacity:1;stroke-dasharray:none;marker:none;visibility:visible;display:inline;overflow:visible;enable-background:accumulate" />
  <path
     style="opacity:0.1;color:#000000;fill:#ffffff;fill-opacity:1;fill-rule:nonzero;stroke:none;stroke-width:2;marker:none;visibility:visible;display:inline;overflow:visible;enable-background:accumulate"
     d="m 11.8125,11.53125 c -0.05958,1.556888 0.175719,3.189993 0.5,4.71875 l 0,0.03125 c 0,0 0.234823,2.247561 0.28125,3.9375 0.0032,-0.06522 0.02947,-0.120871 0.03125,-0.1875 0.04406,-1.648245 -0.3125,-4.75 -0.3125,-4.75 l 0,-0.03125 c -0.255258,-1.203361 -0.456157,-2.477451 -0.5,-3.71875 z M 37.84375,27 c -0.05016,1.588907 -0.152981,3.139929 -0.3125,4.4375 -0.159519,1.297571 -0.389748,2.373247 -0.65625,2.90625 -2.455174,4.910348 -5.084309,7.31802 -8.71875,8.5 -3.634441,1.18198 -7.641317,0.583745 -11.5,-1.75 -1.458105,-0.881867 -3.125194,-3.01312 -4.40625,-5.5 -1.20668,-2.342496 -2.070227,-4.98291 -2.21875,-7.1875 C 10.007733,28.599167 9.994422,28.791203 10,29 c 0.06091,2.279952 0.968944,5.10687 2.25,7.59375 1.281056,2.48688 2.948145,4.618133 4.40625,5.5 3.858683,2.333745 7.865559,2.93198 11.5,1.75 3.634441,-1.18198 6.263576,-3.589652 8.71875,-8.5 0.266502,-0.533003 0.496731,-1.608679 0.65625,-2.90625 0.159519,-1.297571 0.26234,-2.848593 0.3125,-4.4375 0.01056,-0.334449 -0.0068,-0.663734 0,-1 z"
     id="path4023"
     inkscape:connector-curvature="0"
     sodipodi:nodetypes="ccccsccccssssscsssssssc" />
</svg>
