<?xml version="1.0" encoding="UTF-8" standalone="no"?>
<svg
   xmlns:dc="http://purl.org/dc/elements/1.1/"
   xmlns:cc="http://creativecommons.org/ns#"
   xmlns:rdf="http://www.w3.org/1999/02/22-rdf-syntax-ns#"
   xmlns:svg="http://www.w3.org/2000/svg"
   xmlns="http://www.w3.org/2000/svg"
   xmlns:xlink="http://www.w3.org/1999/xlink"
   width="48"
   height="48"
   id="svg5014"
   version="1.1">
  <defs
     id="defs5016">
    <linearGradient
       id="linearGradient3919">
      <stop
         id="stop3921"
         offset="0"
         style="stop-color:#ffffff;stop-opacity:1;" />
      <stop
         id="stop3923"
         offset="1"
         style="stop-color:#000000;stop-opacity:1;" />
    </linearGradient>
    <linearGradient
       id="linearGradient3977">
      <stop
         id="stop3979"
         offset="0"
         style="stop-color:#ffffff;stop-opacity:1;" />
      <stop
         id="stop3981"
         offset="1"
         style="stop-color:#004fff;stop-opacity:1;" />
    </linearGradient>
    <linearGradient
       id="linearGradient3930">
      <stop
         id="stop3932"
         offset="0"
         style="stop-color:#d7d7d7;stop-opacity:1;" />
      <stop
         style="stop-color:#c5c5c5;stop-opacity:1;"
         offset="0.75102818"
         id="stop3934" />
      <stop
         style="stop-color:#b6b6b6;stop-opacity:1;"
         offset="0.75259608"
         id="stop3936" />
      <stop
         id="stop3938"
         offset="1"
         style="stop-color:#9b9b9b;stop-opacity:1;" />
    </linearGradient>
    <linearGradient
       id="linearGradient4235">
      <stop
         style="stop-color:#ffffff;stop-opacity:1;"
         offset="0"
         id="stop4237" />
      <stop
         style="stop-color:#ffffff;stop-opacity:0;"
         offset="1"
         id="stop4239" />
    </linearGradient>
    <linearGradient
       id="linearGradient3591">
      <stop
         style="stop-color:#232323;stop-opacity:1;"
         offset="0"
         id="stop3593" />
      <stop
         id="stop3595"
         offset="0.75788009"
         style="stop-color:#535353;stop-opacity:1;" />
      <stop
         id="stop3597"
         offset="0.75788009"
         style="stop-color:#676767;stop-opacity:1;" />
      <stop
         style="stop-color:#676767;stop-opacity:1;"
         offset="1"
         id="stop3599" />
    </linearGradient>
    <linearGradient
       xlink:href="#linearGradient3591"
       id="linearGradient3129"
       gradientUnits="userSpaceOnUse"
       gradientTransform="matrix(1.5254237,0,0,1.5254237,1.1975675,-7.0029686)"
       x1="10.362622"
       y1="19"
       x2="10.420566"
       y2="5.2916179" />
    <radialGradient
       xlink:href="#linearGradient3977"
       id="radialGradient3161"
       gradientUnits="userSpaceOnUse"
       gradientTransform="matrix(-5.9999994e-7,-1.7924659,2.0966214,-7.0181121e-7,-29.820178,19.867301)"
       cx="4.6721554"
       cy="19"
       fx="4.6721554"
       fy="19"
       r="1" />
    <linearGradient
       id="linearGradient3988-5-57">
      <stop
         style="stop-color:#a7a7a7;stop-opacity:1;"
         offset="0"
         id="stop3990-5-0" />
      <stop
         id="stop4243"
         offset="0.5"
         style="stop-color:#e6e6e6;stop-opacity:1;" />
      <stop
         style="stop-color:#f2f2f2;stop-opacity:1"
         offset="1"
         id="stop3992-0-5" />
    </linearGradient>
    <linearGradient
       id="linearGradient3960-3">
      <stop
         style="stop-color:#000000;stop-opacity:0;"
         offset="0"
         id="stop3962-1" />
      <stop
         id="stop3970-3"
         offset="0.5"
         style="stop-color:#000000;stop-opacity:1;" />
      <stop
         style="stop-color:#000000;stop-opacity:0;"
         offset="1"
         id="stop3964-2" />
    </linearGradient>
    <linearGradient
       id="linearGradient3952-0">
      <stop
         style="stop-color:#000000;stop-opacity:1;"
         offset="0"
         id="stop3954-1" />
      <stop
         style="stop-color:#000000;stop-opacity:0;"
         offset="1"
         id="stop3956-6" />
    </linearGradient>
    <linearGradient
       id="linearGradient3944-3">
      <stop
         style="stop-color:#000000;stop-opacity:1;"
         offset="0"
         id="stop3946-5" />
      <stop
         style="stop-color:#000000;stop-opacity:0;"
         offset="1"
         id="stop3948-5" />
    </linearGradient>
    <linearGradient
       xlink:href="#linearGradient3930"
       id="linearGradient3940"
       gradientUnits="userSpaceOnUse"
       gradientTransform="matrix(1.5254237,0,0,1.5254237,1.1975675,-7.0029686)"
       x1="10.359372"
       y1="18.357502"
       x2="10.420566"
       y2="5.2916179" />
    <radialGradient
       xlink:href="#linearGradient3919"
       id="radialGradient3961"
       gradientUnits="userSpaceOnUse"
       gradientTransform="matrix(-5.9999994e-7,-1.7924659,2.0966214,-7.0181121e-7,-29.820178,19.867301)"
       cx="4.6721554"
       cy="19"
       fx="4.6721554"
       fy="19"
       r="1" />
    <radialGradient
       xlink:href="#linearGradient3919"
       id="radialGradient3969"
       gradientUnits="userSpaceOnUse"
       gradientTransform="matrix(-5.9999994e-7,-1.7924659,2.0966214,-7.0181121e-7,-29.820178,19.867301)"
       cx="4.6721554"
       cy="19"
       fx="4.6721554"
       fy="19"
       r="1" />
    <linearGradient
       xlink:href="#linearGradient3988-5-57"
       id="linearGradient3998"
       gradientUnits="userSpaceOnUse"
       gradientTransform="matrix(-0.175,0,0,0.175,52.20002,-19.000034)"
       x1="138.28583"
       y1="165.71448"
       x2="138.28583"
       y2="74.285912" />
    <radialGradient
       cx="1120.375"
       cy="394.78125"
       r="20.625"
       fx="1120.375"
       fy="394.78125"
       id="radialGradient3339"
       xlink:href="#linearGradient10997"
       gradientUnits="userSpaceOnUse"
       gradientTransform="matrix(1.0181815,0,0,0.14545458,-1116.4951,-12.422309)" />
    <linearGradient
       id="linearGradient10997">
      <stop
         id="stop10999"
         style="stop-color:#000000;stop-opacity:1"
         offset="0" />
      <stop
         id="stop11001"
         style="stop-color:#000000;stop-opacity:0"
         offset="1" />
    </linearGradient>
    <linearGradient
       x1="0.61210024"
       y1="372.57819"
       x2="5.0856376"
       y2="372.57819"
       id="linearGradient3480"
       xlink:href="#linearGradient272-6"
       gradientUnits="userSpaceOnUse"
       gradientTransform="matrix(9.3885424,0,0,0.2235366,29.130395,-51.784906)" />
    <linearGradient
       id="linearGradient272-6">
      <stop
         id="stop273-1"
         style="stop-color:#474747;stop-opacity:0"
         offset="0" />
      <stop
         id="stop275-8"
         style="stop-color:#474747;stop-opacity:1"
         offset="0.1" />
      <stop
         id="stop276-3"
         style="stop-color:#474747;stop-opacity:1"
         offset="0.89999998" />
      <stop
         id="stop274-5"
         style="stop-color:#474747;stop-opacity:0"
         offset="1" />
    </linearGradient>
    <linearGradient
       x1="0.61210024"
       y1="372.57819"
       x2="5.0856376"
       y2="372.57819"
       id="linearGradient3482"
       xlink:href="#linearGradient272-6"
       gradientUnits="userSpaceOnUse"
       gradientTransform="matrix(9.3885418,0,0,0.2235361,29.130383,-45.865211)" />
    <linearGradient
       x1="1.6422368"
       y1="117.8271"
       x2="15.343062"
       y2="117.8271"
       id="linearGradient3484"
       xlink:href="#linearGradient178-9"
       gradientUnits="userSpaceOnUse"
       gradientTransform="matrix(3.1119049,0,0,0.09123576,28.948795,19.750004)" />
    <linearGradient
       id="linearGradient178-9">
      <stop
         id="stop179-9"
         style="stop-color:#ffffff;stop-opacity:0"
         offset="0" />
      <stop
         id="stop180-2"
         style="stop-color:#d9d9d9;stop-opacity:1"
         offset="0.10827128" />
      <stop
         id="stop181-7"
         style="stop-color:#d9d9d9;stop-opacity:1"
         offset="0.92053902" />
      <stop
         id="stop182-0"
         style="stop-color:#ffffff;stop-opacity:0"
         offset="1" />
    </linearGradient>
    <linearGradient
       x1="23.100046"
       y1="38.296745"
       x2="23.143667"
       y2="46.03775"
       id="linearGradient3331"
       xlink:href="#linearGradient9347"
       gradientUnits="userSpaceOnUse"
       gradientTransform="matrix(0.7312763,0,0,0.6969978,7.1179686,14.1222)" />
    <linearGradient
       id="linearGradient9347">
      <stop
         id="stop9349"
         style="stop-color:#7a7a7a;stop-opacity:1"
         offset="0" />
      <stop
         id="stop9351"
         style="stop-color:#ebebeb;stop-opacity:1"
         offset="0.1980198" />
      <stop
         id="stop9353"
         style="stop-color:#b9b9b9;stop-opacity:1"
         offset="0.59900987" />
      <stop
         id="stop9355"
         style="stop-color:#878787;stop-opacity:1"
         offset="1" />
    </linearGradient>
    <linearGradient
       xlink:href="#linearGradient4235"
       id="linearGradient3247"
       gradientUnits="userSpaceOnUse"
       x1="24"
       y1="-12"
       x2="24"
       y2="8"
       gradientTransform="translate(0,2)" />
    <linearGradient
       xlink:href="#linearGradient3960-3"
       id="linearGradient3249"
       gradientUnits="userSpaceOnUse"
       gradientTransform="matrix(1.4084181,0,0,1.6666667,-9.561478,-53.000001)"
       x1="25"
       y1="45"
       x2="25"
       y2="42" />
    <radialGradient
       xlink:href="#linearGradient3952-0"
       id="radialGradient3251"
       gradientUnits="userSpaceOnUse"
       gradientTransform="matrix(1.0571429,0,0,1.25,4.5999997,-34.875001)"
       cx="40"
       cy="43.5"
       fx="40"
       fy="43.5"
       r="2" />
    <radialGradient
       xlink:href="#linearGradient3944-3"
       id="radialGradient3253"
       gradientUnits="userSpaceOnUse"
       gradientTransform="matrix(1.0571429,0,0,1.25,-6.4000003,-34.875001)"
       cx="9"
       cy="43.5"
       fx="9"
       fy="43.5"
       r="2" />
    <linearGradient
       xlink:href="#linearGradient3960-3"
       id="linearGradient3255"
       gradientUnits="userSpaceOnUse"
       gradientTransform="matrix(1.3457637,0,0,1,-7.817562,-24.000001)"
       x1="25"
       y1="45"
       x2="25"
       y2="42" />
    <radialGradient
       xlink:href="#linearGradient3952-0"
       id="radialGradient3257"
       gradientUnits="userSpaceOnUse"
       gradientTransform="matrix(1,0,0,0.75,5.9999997,-13.125001)"
       cx="40"
       cy="43.5"
       fx="40"
       fy="43.5"
       r="2" />
    <radialGradient
       xlink:href="#linearGradient3944-3"
       id="radialGradient3259"
       gradientUnits="userSpaceOnUse"
       gradientTransform="matrix(1,0,0,0.75,-5.0000003,-13.125001)"
       cx="9"
       cy="43.5"
       fx="9"
       fy="43.5"
       r="2" />
  </defs>
  <metadata
     id="metadata5019">
    <rdf:RDF>
      <cc:Work
         rdf:about="">
        <dc:format>image/svg+xml</dc:format>
        <dc:type
           rdf:resource="http://purl.org/dc/dcmitype/StillImage" />
        <dc:title />
      </cc:Work>
    </rdf:RDF>
  </metadata>
  <g
     id="layer1"
     transform="translate(0,16)">
    <g
       transform="translate(-0.1249999,-15.999907)"
       id="g3486">
      <rect
         width="2.9998589"
         height="4.9998589"
         x="22.749998"
         y="35.500599"
         id="rect8955"
         style="fill:#d9d9d9;fill-opacity:1;stroke:#828282;stroke-width:1;stroke-miterlimit:4;stroke-opacity:1;stroke-dasharray:none" />
      <path
         d="m 45.24996,45.000414 a 20.999994,3 0 0 1 -41.9999874,0 20.999994,3.0000005 0 1 1 41.9999874,0 z"
         id="path6774"
         style="opacity:0.3;fill:url(#radialGradient3339);fill-opacity:1;fill-rule:evenodd;stroke:none;display:inline;enable-background:new" />
      <g
         transform="translate(-31.627102,12.999991)"
         id="g7753"
         style="display:inline;enable-background:new">
        <rect
           width="41.999989"
           height="1"
           x="34.877113"
           y="31"
           id="rect8601"
           style="opacity:0.65;fill:url(#linearGradient3480);fill-opacity:1;fill-rule:nonzero;stroke:none;stroke-width:1;marker:none;visibility:visible;display:block;overflow:visible" />
        <rect
           width="41.999989"
           height="1"
           x="34.877102"
           y="29"
           id="rect8603"
           style="opacity:0.65;fill:url(#linearGradient3482);fill-opacity:1;fill-rule:nonzero;stroke:none;stroke-width:1;marker:none;visibility:visible;display:block;overflow:visible" />
        <rect
           width="41.5"
           height="1"
           x="34.627102"
           y="30"
           id="rect8605"
           style="fill:url(#linearGradient3484);fill-opacity:1;fill-rule:nonzero;stroke:none;stroke-width:1;marker:none;visibility:visible;display:block;overflow:visible" />
        <g
           transform="matrix(0.544365,0,0,0.9411763,42.076688,-8.6470511)"
           id="g8613"
           style="fill:#ffffff;fill-opacity:0.72023806" />
      </g>
      <path
         d="m 22.028715,40.500491 -3.233398,0 c -0.582372,0 -1.045288,0.42704 -1.045288,0.964275 l 0,4.071083 c 0,0.53723 0.462916,0.964574 1.045288,0.964574 l 10.909354,0 c 0.582367,0 1.04529,-0.427345 1.04529,-0.964574 l 0,-4.071083 c 0,-0.537235 -0.462923,-0.964275 -1.04529,-0.964275 l -2.821165,0 -4.854791,0 z"
         id="path8607"
         style="fill:url(#linearGradient3331);fill-opacity:1;fill-rule:nonzero;stroke:#5a5c58;stroke-width:1.00006688;stroke-linecap:butt;stroke-linejoin:miter;stroke-miterlimit:4;stroke-opacity:1;stroke-dasharray:none;stroke-dashoffset:0;marker:none;visibility:visible;display:block;overflow:visible;enable-background:new" />
      <rect
         width="8"
         height="1.5"
         rx="0.49999997"
         ry="0.5"
         x="21.249998"
         y="41.250454"
         id="rect8615"
         style="fill:#ffffff;fill-opacity:0.72023806;fill-rule:nonzero;stroke:none;stroke-width:1.13999999;marker:none;visibility:visible;display:block;overflow:visible;enable-background:new" />
      <path
         d="m 20.499998,42.000458 a 0.75,0.75 0 0 1 -1.5,0 0.75,0.75 0 1 1 1.5,0 z"
         id="path8617"
         style="fill:#ffffff;fill-opacity:0.72023806;fill-rule:nonzero;stroke:none;stroke-width:1.13999999;marker:none;visibility:visible;display:block;overflow:visible;enable-background:new" />
    </g>
    <path
       style="fill:url(#linearGradient3129);fill-opacity:1;stroke:none;display:inline"
       d="m 3.5,6 0,13 C 3.53125,21.53125 6,21.5 6,21.5 l 38,0 c 0,0 2.513864,-0.01386 2.5,-2.5 L 46.5,6 43,1.5 7,1.5 z"
       id="rect3145" />
    <path
       id="path3160"
       d="m 5.5,6 0,7.5 16.5,0 6.4375,-2 16.0625,0 0,-5.5 -3.4,-4.5 -32.2,0 z"
       style="fill:url(#linearGradient3940);fill-opacity:1;stroke:none;display:inline" />
    <path
       style="opacity:0.61000001;fill:none;stroke:#000000;stroke-opacity:1;display:inline"
       d="m 5.5,6 0,7.5 16.5,0 6.625,-2 15.875,0 0,-5.5 -3.4,-4.5 -32.2,0 z"
       id="path3942" />
    <path
       style="opacity:0.6;fill:#000000;fill-opacity:1;stroke:none;display:inline"
       d="M 8.9687533,4.03125 40,4 40,5 8.9687533,5.03125 z"
       id="rect3948" />
    <path
       style="opacity:0.40000000000000002;fill:#ffffff;fill-opacity:1;stroke:none;display:inline"
       d="m 5.9687524,7.031252 37.9999976,0 0,-0.999999 -37.9999976,0 z"
       id="rect4753" />
    <g
       id="g3948"
       transform="translate(0,-2)">
      <path
         id="path4031"
         d="m 10.015625,13.484375 c -0.828428,0 -1.5,-0.671573 -1.5,-1.5 0,-0.828427 0.671572,-1.5 1.5,-1.5 0.828427,0 1.5,0.671573 1.5,1.5 0,0.828427 -0.671573,1.5 -1.5,1.5 z"
         style="fill:url(#radialGradient3161);fill-opacity:1;stroke:none" />
      <path
         id="path4041"
         d="m 12.03125,11.984375 c 0,-1.098647 -0.916979,-2.015625 -2.015625,-2.015625 C 8.916978,9.96875 8,10.885728 8,11.984375 8,13.083022 8.916978,14 10.015625,14 c 1.098646,0 2.015625,-0.916978 2.015625,-2.015625 z m -1.03125,0 c 0,0.558207 -0.426168,0.984375 -0.984375,0.984375 -0.558207,0 -0.984375,-0.426168 -0.984375,-0.984375 C 9.03125,11.426168 9.457418,11 10.015625,11 10.573832,11 11,11.426168 11,11.984375 z"
         style="font-size:medium;font-style:normal;font-variant:normal;font-weight:normal;font-stretch:normal;text-indent:0;text-align:start;text-decoration:none;line-height:normal;letter-spacing:normal;word-spacing:normal;text-transform:none;direction:ltr;block-progression:tb;writing-mode:lr-tb;text-anchor:start;baseline-shift:baseline;opacity:0.61000001;color:#000000;fill:#000000;fill-opacity:1;stroke:none;stroke-width:0.66666669;marker:none;visibility:visible;display:inline;overflow:visible;enable-background:accumulate;font-family:Sans;-inkscape-font-specification:Sans" />
    </g>
    <g
       id="g3239"
       transform="translate(0,2)">
      <rect
         y="17"
         x="3.1142857"
         height="5"
         width="43.660965"
         id="rect3615"
         style="opacity:0.12000002;fill:url(#linearGradient3249);fill-opacity:1;stroke:none" />
      <path
         id="path3617"
         d="m 46.885716,17 0,5 0.528571,0 c 0.878486,0 1.585715,-1.115 1.585715,-2.5 0,-1.385 -0.707229,-2.5 -1.585715,-2.5 l -0.528571,0 z"
         style="opacity:0.12000002;fill:url(#radialGradient3251);fill-opacity:1;stroke:none" />
      <path
         id="path3619"
         d="M 2.4866072,17 C 1.6630268,17 1,18.045312 1,19.34375 l 0,0.3125 C 1,20.954689 1.6630268,22 2.4866072,22 l 0.6276786,0 0,-5 -0.6276786,0 z"
         style="opacity:0.12000002;fill:url(#radialGradient3253);fill-opacity:1;stroke:none" />
      <rect
         style="opacity:0.12000002;fill:url(#linearGradient3255);fill-opacity:1;stroke:none"
         id="rect3623"
         width="41.718674"
         height="3"
         x="4.2943115"
         y="17.999998" />
      <path
         style="opacity:0.12000002;fill:url(#radialGradient3257);fill-opacity:1;stroke:none"
         d="m 46,17.999999 0,3 0.5,0 c 0.831,0 1.5,-0.669 1.5,-1.5 0,-0.831 -0.669,-1.5 -1.5,-1.5 l -0.5,0 z"
         id="path3625" />
      <path
         style="opacity:0.12000002;fill:url(#radialGradient3259);fill-opacity:1;stroke:none"
         d="m 3.4062497,17.999999 c -0.7790625,0 -1.40625,0.627187 -1.40625,1.40625 l 0,0.1875 c 0,0.779063 0.6271875,1.40625 1.40625,1.40625 l 0.59375,0 0,-3 -0.59375,0 z"
         id="path3627" />
    </g>
    <path
       style="opacity:0.41000001;color:#bebebe;fill:#000000;fill-opacity:1;fill-rule:nonzero;stroke:none;stroke-width:0;marker:none;visibility:visible;display:inline;overflow:visible;enable-background:accumulate"
       d="m 11,-11 c -0.554,0 -1,0.446 -1,1 l 0,14 29,0 0,-14 c 0,-0.554 -0.446,-1 -1,-1 z"
       id="rect3886" />
    <path
       id="path4233"
       d="m 3.5,6 0,13 c 0,2.53125 2.5,2.5 2.5,2.5 l 38,0 c 0,0 2.544194,0.107456 2.5,-2.5 L 46.5,6 43,1.5 7,1.5 z"
       style="opacity:0.61000001;fill:none;stroke:#000000;stroke-linejoin:round;stroke-opacity:1;display:inline" />
    <path
       style="color:#bebebe;fill:url(#linearGradient3998);fill-opacity:1;fill-rule:nonzero;stroke:none;stroke-width:0;marker:none;visibility:visible;display:inline;overflow:visible;enable-background:accumulate"
       d="m 11,-10 0,14 27,0 0,-14 z"
       id="rect3882-6" />
    <path
       style="opacity:0.4;fill:url(#linearGradient3247);fill-opacity:1;stroke:none"
       d="m 11,-10 0,14 1,0 0,-13 25,0 0,13 1,0 0,-14 z"
       id="path3893" />
    <path
       style="opacity:0.5;fill:#000000;fill-opacity:1;stroke:none;display:inline"
       d="m 9.978796,15.985599 30.032928,0 0,0.999998 -30.032928,0 z"
       id="rect3952" />
    <path
       style="opacity:0.4;fill:#000000;fill-opacity:1;stroke:none;display:inline"
       d="m 9,17.000003 32.011723,-0.0144 0,0.999997 L 9,18 z"
       id="rect3954" />
    <rect
       style="opacity:0.2;fill:#ffffff;fill-opacity:1"
       id="rect3251"
       width="30"
       height="1"
       x="10"
       y="15" />
    <g
       id="g3952"
       transform="matrix(0.49612403,0,0,0.49612403,9.0310078,3.0542636)">
      <path
         style="fill:url(#radialGradient3961);fill-opacity:1;stroke:none"
         d="m 10.015625,13.484375 c -0.828428,0 -1.5,-0.671573 -1.5,-1.5 0,-0.828427 0.671572,-1.5 1.5,-1.5 0.828427,0 1.5,0.671573 1.5,1.5 0,0.828427 -0.671573,1.5 -1.5,1.5 z"
         id="path3954" />
      <path
         style="font-size:medium;font-style:normal;font-variant:normal;font-weight:normal;font-stretch:normal;text-indent:0;text-align:start;text-decoration:none;line-height:normal;letter-spacing:normal;word-spacing:normal;text-transform:none;direction:ltr;block-progression:tb;writing-mode:lr-tb;text-anchor:start;baseline-shift:baseline;opacity:0.61000001;color:#000000;fill:#000000;fill-opacity:1;stroke:none;stroke-width:0.66666669;marker:none;visibility:visible;display:inline;overflow:visible;enable-background:accumulate;font-family:Sans;-inkscape-font-specification:Sans"
         d="m 12.03125,11.984375 c 0,-1.098647 -0.916979,-2.015625 -2.015625,-2.015625 C 8.916978,9.96875 8,10.885728 8,11.984375 8,13.083022 8.916978,14 10.015625,14 c 1.098646,0 2.015625,-0.916978 2.015625,-2.015625 z m -1.03125,0 c 0,0.558207 -0.426168,0.984375 -0.984375,0.984375 -0.558207,0 -0.984375,-0.426168 -0.984375,-0.984375 C 9.03125,11.426168 9.457418,11 10.015625,11 10.573832,11 11,11.426168 11,11.984375 z"
         id="path3956" />
    </g>
    <g
       transform="matrix(0.49612403,0,0,0.49612403,12.031008,3.0542636)"
       id="g3963">
      <path
         id="path3965"
         d="m 10.015625,13.484375 c -0.828428,0 -1.5,-0.671573 -1.5,-1.5 0,-0.828427 0.671572,-1.5 1.5,-1.5 0.828427,0 1.5,0.671573 1.5,1.5 0,0.828427 -0.671573,1.5 -1.5,1.5 z"
         style="fill:url(#radialGradient3969);fill-opacity:1;stroke:none" />
      <path
         id="path3967"
         d="m 12.03125,11.984375 c 0,-1.098647 -0.916979,-2.015625 -2.015625,-2.015625 C 8.916978,9.96875 8,10.885728 8,11.984375 8,13.083022 8.916978,14 10.015625,14 c 1.098646,0 2.015625,-0.916978 2.015625,-2.015625 z m -1.03125,0 c 0,0.558207 -0.426168,0.984375 -0.984375,0.984375 -0.558207,0 -0.984375,-0.426168 -0.984375,-0.984375 C 9.03125,11.426168 9.457418,11 10.015625,11 10.573832,11 11,11.426168 11,11.984375 z"
         style="font-size:medium;font-style:normal;font-variant:normal;font-weight:normal;font-stretch:normal;text-indent:0;text-align:start;text-decoration:none;line-height:normal;letter-spacing:normal;word-spacing:normal;text-transform:none;direction:ltr;block-progression:tb;writing-mode:lr-tb;text-anchor:start;baseline-shift:baseline;opacity:0.61000001;color:#000000;fill:#000000;fill-opacity:1;stroke:none;stroke-width:0.66666669;marker:none;visibility:visible;display:inline;overflow:visible;enable-background:accumulate;font-family:Sans;-inkscape-font-specification:Sans" />
    </g>
  </g>
  <g
     id="layer2"
     transform="translate(0,16)" />
</svg>
