<?xml version="1.0" encoding="UTF-8" standalone="no"?>
<svg xmlns="http://www.w3.org/2000/svg" xmlns:xlink="http://www.w3.org/1999/xlink" xmlns:sodipodi="http://sodipodi.sourceforge.net/DTD/sodipodi-0.dtd" xmlns:inkscape="http://www.inkscape.org/namespaces/inkscape" width="48" height="48" version="1.1">
 <defs id="defs5016">
  <linearGradient id="linearGradient4133">
   <stop id="stop4135" stop-color="#ffffff"/>
   <stop id="stop4137" offset="1"/>
  </linearGradient>
  <linearGradient id="linearGradient4012">
   <stop id="stop4014" stop-color="#97caff"/>
   <stop id="stop4016" offset="1" stop-color="#45688a"/>
  </linearGradient>
  <linearGradient id="linearGradient3977">
   <stop id="stop3979" stop-color="#ffffff"/>
   <stop id="stop3981" offset="1" stop-color="#004fff"/>
  </linearGradient>
  <linearGradient id="linearGradient3971">
   <stop id="stop3973" stop-color="#ffffff"/>
   <stop id="stop3975" offset="1" stop-color="#ff0007"/>
  </linearGradient>
  <linearGradient id="linearGradient3930">
   <stop id="stop3932" stop-color="#d7d7d7"/>
   <stop offset="0.751" id="stop3934" stop-color="#c5c5c5"/>
   <stop offset="0.753" id="stop3936" stop-color="#b6b6b6"/>
   <stop id="stop3938" offset="1" stop-color="#9b9b9b"/>
  </linearGradient>
  <linearGradient inkscape:collect="always" id="linearGradient4235">
   <stop id="stop4237" stop-color="#ffffff"/>
   <stop offset="1" id="stop4239" stop-color="#ffffff" stop-opacity="0"/>
  </linearGradient>
  <linearGradient id="linearGradient3591">
   <stop id="stop3593" stop-color="#232323"/>
   <stop id="stop3595" offset="0.758" stop-color="#535353"/>
   <stop id="stop3597" offset="0.758" stop-color="#676767"/>
   <stop offset="1" id="stop3599" stop-color="#676767"/>
  </linearGradient>
  <linearGradient id="linearGradient4033">
   <stop id="stop4035" stop-color="#ffffff"/>
   <stop offset="1" id="stop4037" stop-color="#00ff4b"/>
  </linearGradient>
  <linearGradient id="linearGradient3107">
   <stop id="stop3109" stop-color="#232323"/>
   <stop offset="0.783" id="stop3111" stop-color="#535353"/>
   <stop offset="0.783" id="stop3113" stop-color="#676767"/>
   <stop id="stop3115" offset="1" stop-color="#676767"/>
  </linearGradient>
  <linearGradient id="linearGradient3988-5">
   <stop id="stop3990-5" stop-color="#ededed"/>
   <stop offset="1" id="stop3992-0" stop-color="#fafafa"/>
  </linearGradient>
  <linearGradient id="linearGradient3960">
   <stop id="stop3962" stop-opacity="0"/>
   <stop id="stop3970" offset="0.5"/>
   <stop offset="1" id="stop3964" stop-opacity="0"/>
  </linearGradient>
  <linearGradient inkscape:collect="always" id="linearGradient3952">
   <stop id="stop3954"/>
   <stop offset="1" id="stop3956" stop-opacity="0"/>
  </linearGradient>
  <radialGradient inkscape:collect="always" xlink:href="#linearGradient3952" id="radialGradient4001" gradientUnits="userSpaceOnUse" gradientTransform="matrix(1,0,0,0.75,0,10.875)" cx="9" cy="43.5" r="2"/>
  <linearGradient inkscape:collect="always" xlink:href="#linearGradient3988-5" id="linearGradient5128" gradientUnits="userSpaceOnUse" gradientTransform="matrix(0.12419355,0,0,0.12564103,-2.238722,-4.461562)" y1="290.2" x2="0" y2="35.51"/>
  <radialGradient inkscape:collect="always" xlink:href="#linearGradient3952" id="radialGradient5914" gradientUnits="userSpaceOnUse" gradientTransform="matrix(1,0,0,0.75,-4,-2.125)" cx="9" cy="43.5" r="2"/>
  <radialGradient inkscape:collect="always" xlink:href="#linearGradient3952" id="radialGradient5917" gradientUnits="userSpaceOnUse" gradientTransform="matrix(1,0,0,0.75,-13,-2.125)" cx="40" cy="43.5" r="2"/>
  <linearGradient inkscape:collect="always" xlink:href="#linearGradient3960" id="linearGradient5920" gradientUnits="userSpaceOnUse" y1="45" x2="0" y2="42" gradientTransform="translate(-4,-13)"/>
  <linearGradient id="linearGradient3988-5-5">
   <stop id="stop3990-5-2" stop-color="#ededed"/>
   <stop offset="1" id="stop3992-0-1" stop-color="#b9b9b9"/>
  </linearGradient>
  <linearGradient id="linearGradient3916">
   <stop id="stop3918" stop-color="#232323"/>
   <stop id="stop3926" offset="0.8" stop-color="#535353"/>
   <stop id="stop3924" offset="0.8" stop-color="#676767"/>
   <stop offset="1" id="stop3920" stop-color="#676767"/>
  </linearGradient>
  <linearGradient inkscape:collect="always" xlink:href="#linearGradient3107" id="linearGradient3101" gradientUnits="userSpaceOnUse" gradientTransform="translate(75,33.000996)" y1="19" x2="0" y2="9"/>
  <linearGradient inkscape:collect="always" xlink:href="#linearGradient3988-5-5" id="linearGradient3105" gradientUnits="userSpaceOnUse" gradientTransform="matrix(0.48571543,0,0,-0.26367377,73.342869,58.667687)" y1="0.985" x2="0" y2="47.01"/>
  <radialGradient inkscape:collect="always" xlink:href="#linearGradient3952" id="radialGradient3927" gradientUnits="userSpaceOnUse" gradientTransform="matrix(1,0,0,0.75,-7,-5.125)" cx="9" cy="43.5" r="2"/>
  <radialGradient inkscape:collect="always" xlink:href="#linearGradient3952" id="radialGradient3930" gradientUnits="userSpaceOnUse" gradientTransform="matrix(1,0,0,0.75,-10,-5.125)" cx="40" cy="43.5" r="2"/>
  <linearGradient inkscape:collect="always" xlink:href="#linearGradient3960" id="linearGradient3933" gradientUnits="userSpaceOnUse" gradientTransform="matrix(1.2727273,0,0,1,-9.4545455,-16)" y1="45" x2="0" y2="42"/>
  <radialGradient inkscape:collect="always" xlink:href="#linearGradient4033" id="radialGradient4043" cx="4.672" cy="19" r="1" gradientUnits="userSpaceOnUse" gradientTransform="matrix(-1.1949773,3.9999996e-7,-4.6787414e-7,-1.3977476,10.255284,45.557202)"/>
  <linearGradient inkscape:collect="always" xlink:href="#linearGradient3988-5-5" id="linearGradient3120" gradientUnits="userSpaceOnUse" gradientTransform="matrix(0.74092183,0,0,-0.40221422,0.71271507,34.103957)" y1="22.635" x2="0" y2="45.01"/>
  <linearGradient inkscape:collect="always" xlink:href="#linearGradient3591" id="linearGradient3129" gradientUnits="userSpaceOnUse" gradientTransform="matrix(1.5254237,0,0,1.5254237,1.1975675,-5.0029686)" x1="10.363" y1="19" x2="10.421" y2="5.292"/>
  <radialGradient inkscape:collect="always" xlink:href="#linearGradient3977" id="radialGradient3161" gradientUnits="userSpaceOnUse" gradientTransform="matrix(-5.9999994e-7,-1.7924659,2.0966214,-7.0181121e-7,-29.820178,19.867301)" cx="4.672" cy="19" r="1"/>
  <linearGradient id="linearGradient3988-5-57">
   <stop id="stop3990-5-0" stop-color="#a7a7a7"/>
   <stop id="stop4243" offset="0.5" stop-color="#e6e6e6"/>
   <stop offset="1" id="stop3992-0-5" stop-color="#f2f2f2"/>
  </linearGradient>
  <linearGradient inkscape:collect="always" xlink:href="#linearGradient3960" id="linearGradient3968" y1="45" x2="0" y2="42" gradientUnits="userSpaceOnUse"/>
  <radialGradient inkscape:collect="always" xlink:href="#linearGradient3952" id="radialGradient3958" cx="40" cy="43.5" r="2" gradientTransform="matrix(1,0,0,0.75,0,10.875)" gradientUnits="userSpaceOnUse"/>
  <radialGradient inkscape:collect="always" xlink:href="#linearGradient3952" id="radialGradient3950" cx="9" cy="43.5" r="2" gradientTransform="matrix(1,0,0,0.75,0,10.875)" gradientUnits="userSpaceOnUse"/>
  <radialGradient inkscape:collect="always" xlink:href="#linearGradient3952" id="radialGradient3656" gradientUnits="userSpaceOnUse" gradientTransform="matrix(1,0,0,0.75,-5.0000003,-9.125001)" cx="9" cy="43.5" r="2"/>
  <radialGradient inkscape:collect="always" xlink:href="#linearGradient3952" id="radialGradient3659" gradientUnits="userSpaceOnUse" gradientTransform="matrix(1,0,0,0.75,5.9999997,-9.125001)" cx="40" cy="43.5" r="2"/>
  <linearGradient inkscape:collect="always" xlink:href="#linearGradient3960" id="linearGradient3662" gradientUnits="userSpaceOnUse" y1="45" x2="0" y2="42" gradientTransform="matrix(1.3457637,0,0,1,-7.817562,-20.000001)"/>
  <radialGradient inkscape:collect="always" xlink:href="#linearGradient3952" id="radialGradient3671" gradientUnits="userSpaceOnUse" gradientTransform="matrix(1.0571429,0,0,1.25,-6.4000003,-30.875001)" cx="9" cy="43.5" r="2"/>
  <radialGradient inkscape:collect="always" xlink:href="#linearGradient3952" id="radialGradient3674" gradientUnits="userSpaceOnUse" gradientTransform="matrix(1.0571429,0,0,1.25,4.5999997,-30.875001)" cx="40" cy="43.5" r="2"/>
  <linearGradient inkscape:collect="always" xlink:href="#linearGradient3960" id="linearGradient3677" gradientUnits="userSpaceOnUse" y1="45" x2="0" y2="42" gradientTransform="matrix(1.4084181,0,0,1.6666667,-9.561478,-49.000001)"/>
  <linearGradient inkscape:collect="always" xlink:href="#linearGradient3988-5-57" id="linearGradient3725" gradientUnits="userSpaceOnUse" gradientTransform="matrix(-0.175,0,0,0.175,52.20002,-21.000034)" y1="165.71" x2="0" y2="97.14"/>
  <linearGradient id="linearGradient3760">
   <stop id="stop3762" stop-color="#e44343"/>
   <stop offset="1" id="stop3764" stop-color="#ac0808"/>
  </linearGradient>
  <linearGradient inkscape:collect="always" xlink:href="#linearGradient4235" id="linearGradient4241" y1="-12" x2="0" y2="8" gradientUnits="userSpaceOnUse"/>
  <linearGradient inkscape:collect="always" xlink:href="#linearGradient3930" id="linearGradient3940" gradientUnits="userSpaceOnUse" gradientTransform="matrix(1.5254237,0,0,1.5254237,1.1975675,-5.0029686)" x1="10.359" y1="18.358" x2="10.421" y2="5.292"/>
  <radialGradient inkscape:collect="always" xlink:href="#linearGradient4133" id="radialGradient3961" gradientUnits="userSpaceOnUse" gradientTransform="matrix(-5.9999994e-7,-1.7924659,2.0966214,-7.0181121e-7,-29.820178,19.867301)" cx="4.672" cy="19" r="1"/>
  <linearGradient inkscape:collect="always" xlink:href="#linearGradient3988-5-57" id="linearGradient3998" gradientUnits="userSpaceOnUse" gradientTransform="matrix(-0.175,0,0,0.175,52.20002,-21.000034)" y1="142.86" x2="0" y2="74.29"/>
  <linearGradient inkscape:collect="always" xlink:href="#linearGradient4012" id="linearGradient4010" y1="43" x2="0" y2="34" gradientUnits="userSpaceOnUse"/>
  <linearGradient id="linearGradient3760-9">
   <stop id="stop3762-2" stop-color="#e3e3e3"/>
   <stop offset="1" id="stop3764-2" stop-color="#bebebe"/>
  </linearGradient>
  <radialGradient inkscape:collect="always" xlink:href="#linearGradient3952" id="radialGradient3220" gradientUnits="userSpaceOnUse" gradientTransform="matrix(1,0,0,0.22222222,0,15.555556)" cx="11" cy="20" r="9"/>
  <linearGradient inkscape:collect="always" xlink:href="#linearGradient3760-9" id="linearGradient3224" gradientUnits="userSpaceOnUse" gradientTransform="translate(1,25)" y1="0" x2="0" y2="22"/>
 </defs>
 <metadata id="metadata5019"/>
 <g id="layer1" inkscape:label="Background" inkscape:groupmode="layer" transform="translate(0,16)">
  <g id="g3601">
   <g transform="matrix(1.0571429,0,0,1.6666667,-1.4000003,-45.000001)" id="g3983" opacity="0.2">
    <rect y="42" x="9" height="3" width="31" id="rect3985" opacity="0.6" fill="url(#linearGradient3968)"/>
    <path inkscape:connector-curvature="0" id="path3987" d="m 40,42 0,3 0.5,0 C 41.331,45 42,44.331 42,43.5 42,42.669 41.331,42 40.5,42 L 40,42 z" opacity="0.6" fill="url(#radialGradient3958)"/>
    <path inkscape:connector-curvature="0" id="path3989" d="M 8.40625,42 C 7.6271875,42 7,42.627187 7,43.40625 l 0,0.1875 C 7,44.372813 7.6271875,45 8.40625,45 L 9,45 9,42 8.40625,42 z" opacity="0.6" fill="url(#radialGradient3950)"/>
   </g>
   <g id="g3978" transform="translate(-3e-7,-16.000001)" opacity="0.2">
    <rect id="rect3938-1" width="31" height="3" x="9" y="42" opacity="0.6" fill="url(#linearGradient3968)"/>
    <path d="m 40,42 0,3 0.5,0 C 41.331,45 42,44.331 42,43.5 42,42.669 41.331,42 40.5,42 L 40,42 z" id="rect3940-00" inkscape:connector-curvature="0" opacity="0.6" fill="url(#radialGradient3958)"/>
    <path d="M 8.40625,42 C 7.6271875,42 7,42.627187 7,43.40625 l 0,0.1875 C 7,44.372813 7.6271875,45 8.40625,45 L 9,45 9,42 8.40625,42 z" id="rect3942-9" inkscape:connector-curvature="0" opacity="0.6" fill="url(#radialGradient3950)"/>
   </g>
  </g>
  <path d="m 3.5,8 0,13 C 3.53125,23.53125 6,23.5 6,23.5 l 38,0 c 0,0 2.513864,-0.01386 2.5,-2.5 L 46.5,8 43,3.5 7,3.5 z" id="rect3145" inkscape:connector-curvature="0" sodipodi:nodetypes="ccccccccc" fill="url(#linearGradient3129)"/>
  <path sodipodi:nodetypes="ccccccccc" inkscape:connector-curvature="0" id="path3160" d="m 5.5,8 0,7.5 16.5,0 6.4375,-2 16.0625,0 0,-5.5 -3.4,-4.5 -32.2,0 z" fill="url(#linearGradient3940)"/>
  <path d="m 5.5,8 0,7.5 16.5,0 6.625,-2 15.875,0 0,-5.5 -3.4,-4.5 -32.2,0 z" id="path3942" inkscape:connector-curvature="0" sodipodi:nodetypes="ccccccccc" opacity="0.61" fill="none" stroke="#000000"/>
  <path d="M 8.9687533,6.03125 40,6 40,7 8.9687533,7.03125 z" id="rect3948" inkscape:connector-curvature="0" sodipodi:nodetypes="ccccc" opacity="0.6"/>
  <path d="m 6,9 38,0 0,-0.999999 -38,0 z" id="rect4753" inkscape:connector-curvature="0" sodipodi:nodetypes="ccccc" opacity="0.4" fill="#ffffff"/>
  <g id="g3948">
   <path sodipodi:nodetypes="sssss" inkscape:connector-curvature="0" id="path4031" d="m 10.015625,13.484375 c -0.828428,0 -1.5,-0.671573 -1.5,-1.5 0,-0.828427 0.671572,-1.5 1.5,-1.5 0.828427,0 1.5,0.671573 1.5,1.5 0,0.828427 -0.671573,1.5 -1.5,1.5 z" fill="url(#radialGradient3161)"/>
   <path sodipodi:nodetypes="ssssssssss" inkscape:connector-curvature="0" id="path4041" d="m 12.03125,11.984375 c 0,-1.098647 -0.916979,-2.015625 -2.015625,-2.015625 C 8.916978,9.96875 8,10.885728 8,11.984375 8,13.083022 8.916978,14 10.015625,14 c 1.098646,0 2.015625,-0.916978 2.015625,-2.015625 z m -1.03125,0 c 0,0.558207 -0.426168,0.984375 -0.984375,0.984375 -0.558207,0 -0.984375,-0.426168 -0.984375,-0.984375 C 9.03125,11.426168 9.457418,11 10.015625,11 10.573832,11 11,11.426168 11,11.984375 z" opacity="0.61" color="#000000" stroke-width="0.667"/>
  </g>
  <rect id="rect3615" width="43.661" height="5" x="3.114" y="21" opacity="0.12" fill="url(#linearGradient3677)"/>
  <path d="m 46.885716,21 0,5 0.528571,0 c 0.878486,0 1.585715,-1.115 1.585715,-2.5 0,-1.385 -0.707229,-2.5 -1.585715,-2.5 l -0.528571,0 z" id="path3617" inkscape:connector-curvature="0" opacity="0.12" fill="url(#radialGradient3674)"/>
  <path d="M 2.4866072,21 C 1.6630268,21 1,22.045312 1,23.34375 l 0,0.3125 C 1,24.954689 1.6630268,26 2.4866072,26 l 0.6276786,0 0,-5 -0.6276786,0 z" id="path3619" inkscape:connector-curvature="0" opacity="0.12" fill="url(#radialGradient3671)"/>
  <rect y="22" x="4.294" height="3" width="41.719" id="rect3623" opacity="0.12" fill="url(#linearGradient3662)"/>
  <path inkscape:connector-curvature="0" id="path3625" d="m 46,21.999999 0,3 0.5,0 c 0.831,0 1.5,-0.669 1.5,-1.5 0,-0.831 -0.669,-1.5 -1.5,-1.5 l -0.5,0 z" opacity="0.12" fill="url(#radialGradient3659)"/>
  <path inkscape:connector-curvature="0" id="path3627" d="m 3.4062497,21.999999 c -0.7790625,0 -1.40625,0.627187 -1.40625,1.40625 l 0,0.1875 c 0,0.779063 0.6271875,1.40625 1.40625,1.40625 l 0.59375,0 0,-3 -0.59375,0 z" opacity="0.12" fill="url(#radialGradient3656)"/>
  <path d="m 11,-13 c -0.554,0 -1,0.446 -1,1 l 0,18 29,0 0,-18 c 0,-0.554 -0.446,-1 -1,-1 z" id="rect3886" inkscape:connector-curvature="0" sodipodi:nodetypes="ssccsss" opacity="0.41" color="#bebebe" stroke-width="0"/>
  <path sodipodi:nodetypes="ccccccccc" inkscape:connector-curvature="0" id="path4233" d="m 3.5,8 0,13 c 0,2.53125 2.5,2.5 2.5,2.5 l 38,0 c 0,0 2.544194,0.107456 2.5,-2.5 L 46.5,8 43,3.5 7,3.5 z" opacity="0.61" fill="none" stroke="#000000" stroke-linejoin="round"/>
  <path d="m 11,-12 0,18 27,0 0,-18 z" id="rect3882-6" inkscape:connector-curvature="0" sodipodi:nodetypes="ccccc" fill="url(#linearGradient3998)" color="#bebebe" stroke-width="0"/>
  <path d="m 11,-12 0,18 1,0 0,-17 25,0 0,17 1,0 0,-18 z" id="path3893" inkscape:connector-curvature="0" sodipodi:nodetypes="ccccccccc" opacity="0.4" fill="url(#linearGradient4241)"/>
  <path d="m 9.978796,17.985599 30.032928,0 0,0.999998 -30.032928,0 z" id="rect3952" inkscape:connector-curvature="0" sodipodi:nodetypes="ccccc" opacity="0.5"/>
  <path sodipodi:nodetypes="ccccc" id="path3983" inkscape:connector-curvature="0" d="m 40,27 c 0,0 -1,-2 -1,-8 0,0 -19.355891,0 -28,0 0,6 -1.013,8 -1.013,8 z" opacity="0.41" fill="none" stroke="#000000" stroke-width="2"/>
  <path d="m 9,19.000003 32.011723,-0.0144 0,0.999997 L 9,20 z" id="rect3954" inkscape:connector-curvature="0" sodipodi:nodetypes="ccccc" opacity="0.4"/>
  <path d="m 40,27 c 0,0 -1,-2 -1,-8 0,0 -19.355891,0 -28,0 0,6 -1.013,8 -1.013,8 z" inkscape:connector-curvature="0" id="path4030" sodipodi:nodetypes="ccccc" fill="url(#linearGradient3120)"/>
  <rect id="rect3251" width="30" height="1" x="10" y="17" opacity="0.2" fill="#ffffff"/>
  <g id="g3952" transform="matrix(0.49612403,0,0,0.49612403,9.0310078,5.0542636)">
   <path d="m 10.015625,13.484375 c -0.828428,0 -1.5,-0.671573 -1.5,-1.5 0,-0.828427 0.671572,-1.5 1.5,-1.5 0.828427,0 1.5,0.671573 1.5,1.5 0,0.828427 -0.671573,1.5 -1.5,1.5 z" id="path3954" inkscape:connector-curvature="0" sodipodi:nodetypes="sssss" fill="url(#radialGradient3961)"/>
   <path d="m 12.03125,11.984375 c 0,-1.098647 -0.916979,-2.015625 -2.015625,-2.015625 C 8.916978,9.96875 8,10.885728 8,11.984375 8,13.083022 8.916978,14 10.015625,14 c 1.098646,0 2.015625,-0.916978 2.015625,-2.015625 z m -1.03125,0 c 0,0.558207 -0.426168,0.984375 -0.984375,0.984375 -0.558207,0 -0.984375,-0.426168 -0.984375,-0.984375 C 9.03125,11.426168 9.457418,11 10.015625,11 10.573832,11 11,11.426168 11,11.984375 z" id="path3956" inkscape:connector-curvature="0" sodipodi:nodetypes="ssssssssss" opacity="0.61" color="#000000" stroke-width="0.667"/>
  </g>
  <g transform="matrix(0.49612403,0,0,0.49612403,12.031008,5.0542636)" id="g3963">
   <path sodipodi:nodetypes="sssss" inkscape:connector-curvature="0" id="path3965" d="m 10.015625,13.484375 c -0.828428,0 -1.5,-0.671573 -1.5,-1.5 0,-0.828427 0.671572,-1.5 1.5,-1.5 0.828427,0 1.5,0.671573 1.5,1.5 0,0.828427 -0.671573,1.5 -1.5,1.5 z" fill="url(#radialGradient3961)"/>
   <path sodipodi:nodetypes="ssssssssss" inkscape:connector-curvature="0" id="path3967" d="m 12.03125,11.984375 c 0,-1.098647 -0.916979,-2.015625 -2.015625,-2.015625 C 8.916978,9.96875 8,10.885728 8,11.984375 8,13.083022 8.916978,14 10.015625,14 c 1.098646,0 2.015625,-0.916978 2.015625,-2.015625 z m -1.03125,0 c 0,0.558207 -0.426168,0.984375 -0.984375,0.984375 -0.558207,0 -0.984375,-0.426168 -0.984375,-0.984375 C 9.03125,11.426168 9.457418,11 10.015625,11 10.573832,11 11,11.426168 11,11.984375 z" opacity="0.61" color="#000000" stroke-width="0.667"/>
  </g>
  <path sodipodi:nodetypes="ssccsss" inkscape:connector-curvature="0" id="path3990" d="m 11,1 c -0.554,0 -1,0.446 -1,1 l 0,4 29,0 0,-4 C 39,1.446 38.554,1 38,1 z" opacity="0.41" color="#bebebe" stroke-width="0"/>
  <path sodipodi:nodetypes="ccccc" inkscape:connector-curvature="0" id="path3992" d="m 11,2 0,4 27,0 0,-4 z" fill="url(#linearGradient3725)" color="#bebebe" stroke-width="0"/>
  <path sodipodi:nodetypes="ccccccccc" inkscape:connector-curvature="0" id="path3994" d="m 11,2 0,4 1,0 0,-3 25,0 0,3 1,0 0,-4 z" opacity="0.4" fill="url(#linearGradient4241)"/>
 </g>
</svg>
