<?xml version="1.0" encoding="UTF-8" standalone="no"?>
<svg
   xmlns:dc="http://purl.org/dc/elements/1.1/"
   xmlns:cc="http://creativecommons.org/ns#"
   xmlns:rdf="http://www.w3.org/1999/02/22-rdf-syntax-ns#"
   xmlns:svg="http://www.w3.org/2000/svg"
   xmlns="http://www.w3.org/2000/svg"
   xmlns:xlink="http://www.w3.org/1999/xlink"
   version="1.0"
   width="48"
   height="48"
   id="svg3786">
  <metadata
     id="metadata39">
    <rdf:RDF>
      <cc:Work
         rdf:about="">
        <dc:format>image/svg+xml</dc:format>
        <dc:type
           rdf:resource="http://purl.org/dc/dcmitype/StillImage" />
        <dc:title />
      </cc:Work>
    </rdf:RDF>
  </metadata>
  <defs
     id="defs3788">
    <linearGradient
       x1="17.741"
       y1="24.05"
       gradientTransform="matrix(0.99778,0,0,0.88551429,0.053179,4.2043715)"
       x2="11.218"
       gradientUnits="userSpaceOnUse"
       y2="12.883"
       id="linearGradient3233">
      <stop
         offset="0"
         style="stop-color:#acacac;stop-opacity:1;"
         id="stop3235" />
      <stop
         id="stop3237"
         style="stop-color:#c3c3c3;stop-opacity:1;"
         offset="0.08333334" />
      <stop
         id="stop3239"
         style="stop-color:#c3c3c3;stop-opacity:1;"
         offset="0.08333334" />
      <stop
         offset="1"
         style="stop-color:#787878;stop-opacity:1;"
         id="stop3241" />
    </linearGradient>
    <linearGradient
       id="linearGradient5060">
      <stop
         offset="0"
         id="stop5062" />
      <stop
         offset="1"
         style="stop-opacity:0"
         id="stop5064" />
    </linearGradient>
    <linearGradient
       x1="302.86"
       y1="366.65"
       gradientTransform="matrix(0.076357,0,0,0.020588,-3.5974,32.451)"
       x2="302.86"
       gradientUnits="userSpaceOnUse"
       y2="609.51"
       id="linearGradient2877">
      <stop
         offset="0"
         style="stop-opacity:0"
         id="stop5050" />
      <stop
         offset=".5"
         id="stop5056" />
      <stop
         offset="1"
         style="stop-opacity:0"
         id="stop5052" />
    </linearGradient>
    <linearGradient
       y2="15"
       x2="25.25"
       y1="39"
       x1="25.25"
       gradientTransform="translate(-0.25,5)"
       gradientUnits="userSpaceOnUse"
       id="linearGradient4072"
       xlink:href="#linearGradient3233" />
    <radialGradient
       r="117.14"
       cy="486.65"
       cx="605.71"
       gradientTransform="matrix(-0.044847,0,0,0.020588,32.611,31.451)"
       gradientUnits="userSpaceOnUse"
       id="radialGradient4075"
       xlink:href="#linearGradient5060" />
    <radialGradient
       r="117.14"
       cy="486.65"
       cx="605.71"
       gradientTransform="matrix(0.044847,0,0,0.020588,15.389,31.451)"
       gradientUnits="userSpaceOnUse"
       id="radialGradient4078"
       xlink:href="#linearGradient5060" />
    <linearGradient
       y2="609.51"
       x2="302.86"
       y1="366.65"
       x1="302.86"
       gradientTransform="matrix(0.076357,0,0,0.020588,-3.5974,31.451)"
       gradientUnits="userSpaceOnUse"
       id="linearGradient4081"
       xlink:href="#linearGradient2877" />
    <linearGradient
       xlink:href="#linearGradient5392-1"
       id="linearGradient5062"
       gradientUnits="userSpaceOnUse"
       gradientTransform="matrix(0.16597582,0,0,0.16300023,1.8520504,1.775263)"
       x1="177.74374"
       y1="194.87581"
       x2="159.34454"
       y2="115.47755" />
    <linearGradient
       id="linearGradient5392-1">
      <stop
         style="stop-color:#ffffff;stop-opacity:1;"
         offset="0"
         id="stop5394-99" />
      <stop
         style="stop-color:#ffffff;stop-opacity:0"
         offset="1"
         id="stop5396-60" />
    </linearGradient>
    <linearGradient
       y2="58.954578"
       x2="158.46062"
       y1="109.04541"
       x1="129.54066"
       gradientTransform="matrix(0.2044053,0,0,0.19444444,-5.6843896,-4.911105)"
       gradientUnits="userSpaceOnUse"
       id="linearGradient3534"
       xlink:href="#linearGradient5541-6-4" />
    <linearGradient
       id="linearGradient5541-6-4">
      <stop
         id="stop5543-3-9"
         offset="0"
         style="stop-color:#626262;stop-opacity:1" />
      <stop
         id="stop5545-1-1"
         offset="1"
         style="stop-color:#a7a7a7;stop-opacity:1;" />
    </linearGradient>
    <clipPath
       id="clipPath5232"
       clipPathUnits="userSpaceOnUse">
      <path
         id="path5234"
         d="M 308.44295,71 305,88 l 29,0 -3.44295,-17 -22.1141,0 z"
         clip-path="none"
         style="fill:#666666;fill-opacity:1;stroke:none;display:inline;enable-background:new" />
    </clipPath>
    <radialGradient
       gradientUnits="userSpaceOnUse"
       gradientTransform="matrix(2.4576013,0,0,0.23037596,-755.96899,-3.668478)"
       r="19.53125"
       fy="61.499531"
       fx="312.58893"
       cy="61.499531"
       cx="312.58893"
       id="radialGradient5106"
       xlink:href="#linearGradient5100" />
    <linearGradient
       id="linearGradient5100">
      <stop
         id="stop5102"
         offset="0"
         style="stop-color:#ffffff;stop-opacity:1;" />
      <stop
         id="stop5104"
         offset="1"
         style="stop-color:#ffffff;stop-opacity:0;" />
    </linearGradient>
    <linearGradient
       y2="104.84488"
       x2="96"
       y1="112.09918"
       x1="96"
       gradientTransform="matrix(0.18750015,0,0,0.28345061,-4.2500196,-13.746461)"
       gradientUnits="userSpaceOnUse"
       id="linearGradient3545"
       xlink:href="#linearGradient5869-4-0" />
    <linearGradient
       id="linearGradient5869-4-0">
      <stop
         id="stop5871-3-9"
         offset="0"
         style="stop-color:#afafaf;stop-opacity:1;" />
      <stop
         style="stop-color:#505050;stop-opacity:1;"
         offset="0.29322618"
         id="stop5877-3-1" />
      <stop
         id="stop5879-3-2"
         offset="0.53461057"
         style="stop-color:#cfcfcf;stop-opacity:1;" />
      <stop
         style="stop-color:#e4e4e4;stop-opacity:1;"
         offset="0.69838071"
         id="stop5881-8-6" />
      <stop
         id="stop5873-6-9"
         offset="1"
         style="stop-color:#5d5d5d;stop-opacity:1;" />
    </linearGradient>
    <linearGradient
       y2="58.954578"
       x2="158.46062"
       y1="109.04541"
       x1="129.54066"
       gradientTransform="matrix(0.19599374,0,0,0.19599374,-4.3261496,-4.539529)"
       gradientUnits="userSpaceOnUse"
       id="linearGradient3548"
       xlink:href="#linearGradient5398-0-2-0-5" />
    <linearGradient
       id="linearGradient5398-0-2-0-5">
      <stop
         id="stop5400-9-5-1-8"
         offset="0"
         style="stop-color:#555555;stop-opacity:1;" />
      <stop
         id="stop5402-2-4-3-4"
         offset="1"
         style="stop-color:#7c7c7c;stop-opacity:1;" />
    </linearGradient>
    <radialGradient
       r="14.5"
       fy="93.070213"
       fx="319.5"
       cy="93.070213"
       cx="319.5"
       gradientTransform="matrix(1.5731893,0,0,0.92221442,-478.884,-49.375734)"
       gradientUnits="userSpaceOnUse"
       id="radialGradient3551"
       xlink:href="#linearGradient5168" />
    <linearGradient
       id="linearGradient5168">
      <stop
         id="stop5170"
         offset="0"
         style="stop-color:#2e3436;stop-opacity:1" />
      <stop
         id="stop5172"
         offset="1"
         style="stop-color:#000000;stop-opacity:1" />
    </linearGradient>
    <linearGradient
       id="linearGradient4284">
      <stop
         style="stop-color:#e4e4e4;stop-opacity:1;"
         offset="0"
         id="stop4286" />
      <stop
         style="stop-color:#828282;stop-opacity:1;"
         offset="1"
         id="stop4288" />
    </linearGradient>
    <radialGradient
       xlink:href="#linearGradient4284"
       id="radialGradient3628"
       gradientUnits="userSpaceOnUse"
       gradientTransform="matrix(0.83314177,0.46663073,0.75270828,-0.43457633,-494.32767,-173.5879)"
       cx="503.49564"
       cy="130.83688"
       fx="503.49564"
       fy="130.83688"
       r="20.953316" />
  </defs>
  <g
     style="display:inline"
     id="layer1">
    <path
       id="rect6431"
       d="m 11.75,16.5 c -0.8098,0 -2.03495,0.167807 -2.21875,0.84375 L 3.25,40 l 1,1.5 39.09375,0 0.90625,-1.53125 -6.78125,-22.625 C 37.30875,16.79595 36.0965,16.5 35.4375,16.5 z"
       style="fill:url(#linearGradient4072);fill-opacity:1;fill-rule:evenodd;stroke:none;enable-background:new" />
    <g
       id="g4092">
      <path
         id="rect2723"
         d="m 5.5653,39 36.868999,0 0,5 L 5.5653,44 z"
         style="opacity:0.3;fill:url(#linearGradient4081)" />
      <path
         id="path2725"
         style="opacity:0.3;fill:url(#radialGradient4078)"
         d="m 42.417,39 v 4.9997 c 2.309,0.009 5.583,-1.12 5.583,-2.5 0,-1.38 -2.577,-2.5 -5.583,-2.5 z" />
      <path
         id="path2727"
         style="opacity:0.3;fill:url(#radialGradient4075)"
         d="m 5.5833,39 v 4.9997 C 3.2738,44.0087 0,42.8797 0,41.4997 c 0,-1.38 2.5773,-2.5 5.5833,-2.5 z" />
    </g>
    <path
       style="opacity:0.41000001;fill:none;stroke:#000000;stroke-opacity:1;enable-background:new"
       d="m 11.75,16.5 c -0.8098,0 -2.03495,0.167807 -2.21875,0.84375 L 3.25,40 l 1,1.5 39.09375,0 0.90625,-1.53125 -6.78125,-22.625 C 37.30875,16.79595 36.0965,16.5 35.4375,16.5 z"
       id="path3873" />
    <path
       style="fill:none;stroke:none;enable-background:new"
       d="m 10,16.5 c -0.8098,0 -0.03495,0.167807 -0.21875,0.84375 L 3.5,40.46875 44.5,40.5 37.71875,17.34375 C 37.55875,16.79595 38.3465,16.5 37.6875,16.5 z m 34.5,24 -41,0 1,2 39.09375,0 z"
       id="path3856" />
    <path
       id="rect3875"
       d="m 4.5,39 39,0 c 0.277,0 0.5,0.223 0.5,0.5 0,0.277 -0.223,0.5 -0.5,0.5 l -39,0 C 4.223,40 4,39.777 4,39.5 4,39.223 4.223,39 4.5,39 z"
       style="opacity:0.41000001;fill:#ffffff;fill-opacity:1;stroke:none" />
    <path
       id="path4161"
       d="m 7.75,17 c -0.3703633,0 3.138231,0.0514 2.78125,0.15625 C 10.174269,17.261104 10.020842,17.3921 10,17.46875 L 10,17.5 3.78125,40 3.90625,40.625 10,18.5 10,18.46875 c 0.02084,-0.07665 0.174269,-0.207646 0.53125,-0.3125 C 10.888231,18.051396 11.379637,18 11.75,18 l 24,0 c 0.254652,0 0.591508,0.07771 0.84375,0.1875 0.252242,0.109788 0.390172,0.226203 0.40625,0.28125 L 37,18.5 43.625,40.625 43.71875,39.96875 37,17.5 37,17.46875 C 36.983922,17.413703 36.845992,17.297288 36.59375,17.1875 36.341508,17.07771 36.004652,17 35.75,17 z"
       style="opacity:0.1;fill:#000000;fill-opacity:1;fill-rule:evenodd;stroke:none;enable-background:new" />
    <path
       id="path4127"
       d="m 4.564225,4.500005 c -0.1629,0 -0.27697,0.03411 -0.40625,0.0625 -0.12928,0.02839 -0.28862,0.0872 -0.375,0.15625 -0.0916,0.0732 -0.28356,0.220707 -0.28125,0.53125 l 0,0.96875 c 0.00775,0.065889 0.029166,0.1301395 0.0625,0.1875 l 0.0937,0.21875 c -3.348e-4,0.010413 -3.348e-4,0.020837 0,0.03125 l 4.654505,8.9375 c 0.01711,0.03353 0.038131,0.06506 0.0625,0.09375 0.24422,0.316206 0.5727,0.461082 0.9375,0.59375 0.3648,0.132668 0.75045,0.21875 1.125,0.21875 l 26.3125,0 c 0.37454,0 0.7602,-0.08608 1.125,-0.21875 0.3648,-0.132667 0.69327,-0.277577 0.9375,-0.59375 0.02437,-0.02869 0.04539,-0.06022 0.0625,-0.09375 l 4.46875,-8.9375 c 3.35e-4,-0.010413 3.35e-4,-0.020837 0,-0.03125 l 0.0937,-0.21875 c 0.03333,-0.05736 0.05475,-0.121611 0.0625,-0.1875 l 0,-0.96875 c 0.002,-0.309686 -0.18936,-0.457808 -0.28125,-0.53125 -0.0863,-0.06892 -0.24573,-0.127854 -0.375,-0.15625 -0.12917,-0.028396 -0.24325,-0.0625 -0.40615,-0.0625 z"
       style="fill:url(#radialGradient3628);fill-opacity:1;stroke:none;display:inline;enable-background:new" />
    <path
       id="path4877-6-8-2"
       d="M 12.69293,20.000005 8,37 39,37 34.807031,20.000005 z"
       clip-path="none"
       style="fill:url(#radialGradient3551);fill-opacity:1;stroke:none;display:inline;enable-background:new" />
    <path
       id="path5492-5-0"
       d="M 10.43684,16 C 9.85379,16 8.9973,15.713158 8.74529,15.386871 L 4.0802154,6.442027 c -0.1278,-0.165462 -0.0786,-0.279305 0,-0.342212 0.0787,-0.06291 0.17836,-0.09981 0.46986,-0.09981 l 37.9015556,0 c 0.29152,0 0.39116,0.03691 0.46987,0.09981 0.0787,0.0629 0.12779,0.176746 0,0.342212 l -4.47932,8.944844 C 38.190131,15.713167 37.333661,16 36.750631,16 z"
       style="color:#000000;fill:url(#linearGradient3548);fill-opacity:1;fill-rule:nonzero;stroke:none;marker:none;visibility:visible;display:inline;overflow:visible;enable-background:new" />
    <path
       id="path4127-2"
       d="m 4.470475,5.468755 0,0.625 0.0625,0.125 0,0.03125 4.623255,8.875 c 0.0388,0.03314 0.21736,0.158575 0.46875,0.25 0.27154,0.09875 0.60163,0.15625 0.8125,0.15625 l 26.3125,0 c 0.21086,0 0.54097,-0.0575 0.8125,-0.15625 0.25139,-0.09142 0.42993,-0.216827 0.46875,-0.25 l 4.4375,-8.875 0,-0.03125 0.0625,-0.125 0,-0.625 c -0.0335,-0.0021 -0.0395,0 -0.0937,0 l -37.873255,0 c -0.0542,0 -0.0602,-0.0021 -0.0937,0 z"
       style="opacity:0.21369862;fill:none;stroke:url(#radialGradient5106);display:inline;enable-background:new" />
    <g
       clip-path="url(#clipPath5232)"
       id="g5194"
       style="display:inline;enable-background:new"
       transform="translate(-295.75002,-50.999995)">
      <path
         style="fill:none;stroke:#4f99fc;stroke-width:1.70000005;stroke-linecap:butt;stroke-linejoin:miter;stroke-miterlimit:4;stroke-opacity:1;stroke-dasharray:none;display:inline;enable-background:new"
         d="m 305.51786,82.5 27.96428,0"
         id="path5166-8" />
      <path
         style="fill:none;stroke:#ffffff;stroke-width:1.01770043px;stroke-linecap:butt;stroke-linejoin:miter;stroke-opacity:1"
         d="m 305.51786,82.5 27.96428,0"
         id="path5166" />
    </g>
    <path
       style="opacity:0.2;color:#000000;fill:#000000;fill-opacity:1;fill-rule:nonzero;stroke:none;marker:none;visibility:visible;display:inline;overflow:visible;enable-background:new"
       clip-path="none"
       d="m 12.69294,14.000005 -3.44296,-7 29.000001,0 -3.44296,7 z"
       id="path4877-6-8-9-5-2-3-3-1-7" />
    <path
       style="color:#000000;fill:url(#linearGradient3534);fill-opacity:1;fill-rule:nonzero;stroke:none;marker:none;visibility:visible;display:inline;overflow:visible;enable-background:new"
       clip-path="none"
       d="m 12.69294,15.000005 -3.44296,-7 29.000001,0 -3.44296,7 z"
       id="path4877-6-8-9-5-2-3-3-1" />
    <path
       id="path5286-4-6"
       d="m 16.955851,21.783541 16.17979,2.537143 -8.35797,11.886687 12.26644,0.0091 -2.49482,-14.432914 z"
       clip-path="none"
       style="opacity:0.2107438;fill:url(#linearGradient5062);fill-opacity:1;stroke:none;display:inline;enable-background:new" />
    <path
       style="opacity:0.51;fill:none;stroke:#000000;stroke-opacity:1;display:inline;enable-background:new"
       d="m 4.564225,4.500005 c -0.1629,0 -0.27697,0.03411 -0.40625,0.0625 -0.12928,0.02839 -0.28862,0.0872 -0.375,0.15625 -0.0916,0.0732 -0.28356,0.220707 -0.28125,0.53125 l 0,0.96875 c 0.00775,0.065889 0.029166,0.1301395 0.0625,0.1875 l 0.0937,0.21875 c -3.348e-4,0.010413 -3.348e-4,0.020837 0,0.03125 l 4.654505,8.9375 c 0.01711,0.03353 0.038131,0.06506 0.0625,0.09375 0.24422,0.316206 0.5727,0.461082 0.9375,0.59375 0.3648,0.132668 0.75045,0.21875 1.125,0.21875 l 26.3125,0 c 0.37454,0 0.7602,-0.08608 1.125,-0.21875 0.3648,-0.132667 0.69327,-0.277577 0.9375,-0.59375 0.02437,-0.02869 0.04539,-0.06022 0.0625,-0.09375 l 4.46875,-8.9375 c 3.35e-4,-0.010413 3.35e-4,-0.020837 0,-0.03125 l 0.0937,-0.21875 c 0.03333,-0.05736 0.05475,-0.121611 0.0625,-0.1875 l 0,-0.96875 c 0.002,-0.309686 -0.18936,-0.457808 -0.28125,-0.53125 -0.0863,-0.06892 -0.24573,-0.127854 -0.375,-0.15625 -0.12917,-0.028396 -0.24325,-0.0625 -0.40615,-0.0625 z"
       id="path4011" />
    <path
       id="rect4328-7-4"
       d="m 12.25,16 0,2 3,0 0,-2 z m 20,0 0,2 3,0 0,-2 z"
       style="color:#000000;fill:url(#linearGradient3545);fill-opacity:1;fill-rule:nonzero;stroke:none;stroke-width:2.99999976;marker:none;visibility:visible;display:inline;overflow:visible;enable-background:new" />
  </g>
</svg>
