<?xml version="1.0" encoding="UTF-8" standalone="no"?>
<svg xmlns="http://www.w3.org/2000/svg" xmlns:sodipodi="http://sodipodi.sourceforge.net/DTD/sodipodi-0.dtd" xmlns:inkscape="http://www.inkscape.org/namespaces/inkscape" height="22" width="22" version="1.1">
 <metadata id="metadata7"/>
 <path d="m 10.99991,4 c 0,0 -3.2288213,4.055387 -4.2662183,6.4 -0.5932,1.340693 -1.067563,2.991061 -1.067563,4.266667 0,2.94552 2.387813,5.333333 5.3333333,5.333333 2.945524,0 5.264254,-2.388624 5.333334,-5.333333 C 16.360206,13.498576 15.859966,11.740651 15.267026,10.4 14.229906,8.055083 10.99991,4 10.99991,4 z" id="path3883" inkscape:connector-curvature="0" sodipodi:nodetypes="cacssac" opacity="0.2" color="#bebebe"/>
 <path sodipodi:nodetypes="cacssac" inkscape:connector-curvature="0" id="path3108" d="m 10.99991,3 c 0,0 -3.2288213,4.055387 -4.2662183,6.4 -0.5932,1.340693 -1.067563,2.991061 -1.067563,4.266667 0,2.94552 2.387813,5.333333 5.3333333,5.333333 2.945524,0 5.264254,-2.388624 5.333334,-5.333333 C 16.360206,12.498576 15.859966,10.740651 15.267026,9.4 14.229906,7.055083 10.99991,3 10.99991,3 z" fill="#ffffff" color="#bebebe"/>
</svg>
