<?xml version="1.0" encoding="UTF-8" standalone="no"?>
<svg xmlns="http://www.w3.org/2000/svg" xmlns:sodipodi="http://sodipodi.sourceforge.net/DTD/sodipodi-0.dtd" xmlns:inkscape="http://www.inkscape.org/namespaces/inkscape" height="24" width="24" version="1.1">
 <metadata id="metadata7"/>
 <path inkscape:connector-curvature="0" d="m 20.302424,5.1250002 c -0.0741,0.0356 -0.13911,0.0898 -0.1875,0.15625 l -0.5,0.5 -0.15625,-0.15625 -6,5.9999998 0.15625,0.15625 -0.5,0.5 -0.0312,0.71875 0.71875,-0.0312 0.5,-0.5 0.15625,0.15625 6,-5.9999998 -0.15625,-0.15625 0.5,-0.5 c 0.29288,-0.29845 -0.0248,-0.91114 -0.4375,-0.84375 -0.0208,-10e-4 -0.0417,-10e-4 -0.0625,0 z m -14.2187498,1.875 c -0.554,0 -1,0.446 -1,1 l 0,8.9999998 c 0,0.554 0.446,1 1,1 l 11.9999998,0 c 0.554,0 1,-0.446 1,-1 l 0,-7.5624998 -3.90625,3.9062498 -0.71875,0.6875 -0.15625,-0.15625 -0.0625,0.0625 -0.40625,0.0312 -0.71875,0.0312 -1.0625,0.0312 0.0312,-1.0625 0.0312,-0.71875 0.0312,-0.40625 0.0625,-0.0625 -0.15625,-0.15625 0.6875,-0.71875 3.90625,-3.9062498 -10.5624998,0 z m -1,10.9999998 0,1 c 0,0.554 0.446,1 1,1 l 11.9999998,0 c 0.554,0 1,-0.446 1,-1 l 0,-1 c 0,0.554 -0.446,1 -1,1 L 6.0836742,19 c -0.554,0 -1,-0.446 -1,-1 z" id="path3764" opacity="0.2" color="#000000"/>
 <path id="path4077" d="m 20.302424,4.1250002 c -0.0741,0.0356 -0.13911,0.0898 -0.1875,0.15625 l -0.5,0.5 -0.15625,-0.15625 -6,5.9999998 0.15625,0.15625 -0.5,0.5 -0.0312,0.71875 0.71875,-0.0312 0.5,-0.5 0.15625,0.15625 6,-5.9999998 -0.15625,-0.15625 0.5,-0.5 c 0.29288,-0.29845 -0.0248,-0.91114 -0.4375,-0.84375 -0.0208,-10e-4 -0.0417,-10e-4 -0.0625,0 z m -14.2187498,1.875 c -0.554,0 -1,0.446 -1,1 l 0,8.9999998 c 0,0.554 0.446,1 1,1 l 11.9999998,0 c 0.554,0 1,-0.446 1,-1 l 0,-7.5624998 -3.90625,3.9062498 -0.71875,0.6875 -0.15625,-0.15625 -0.0625,0.0625 -0.40625,0.0312 -0.71875,0.0312 -1.0625,0.0312 0.0312,-1.0625 0.0312,-0.71875 0.0312,-0.40625 0.0625,-0.0625 -0.15625,-0.15625 0.6875,-0.7187498 3.90625,-3.90625 -10.5624998,0 z m -1,10.9999998 0,1 c 0,0.554 0.446,1 1,1 l 11.9999998,0 c 0.554,0 1,-0.446 1,-1 l 0,-1 c 0,0.554 -0.446,1 -1,1 L 6.0836742,18 c -0.554,0 -1,-0.446 -1,-1 z" inkscape:connector-curvature="0" fill="#ffffff" color="#000000"/>
</svg>
