<?xml version="1.0" encoding="UTF-8" standalone="no"?>
<svg
   xmlns:dc="http://purl.org/dc/elements/1.1/"
   xmlns:cc="http://creativecommons.org/ns#"
   xmlns:rdf="http://www.w3.org/1999/02/22-rdf-syntax-ns#"
   xmlns:svg="http://www.w3.org/2000/svg"
   xmlns="http://www.w3.org/2000/svg"
   xmlns:sodipodi="http://sodipodi.sourceforge.net/DTD/sodipodi-0.dtd"
   xmlns:inkscape="http://www.inkscape.org/namespaces/inkscape"
   height="24"
   width="24"
   version="1.1"
   id="svg2"
   inkscape:version="0.48.4 r9939"
   sodipodi:docname="spotify-panel.svg">
  <defs
     id="defs9" />
  <sodipodi:namedview
     pagecolor="#ffffff"
     bordercolor="#666666"
     borderopacity="1"
     objecttolerance="10"
     gridtolerance="10"
     guidetolerance="10"
     inkscape:pageopacity="0"
     inkscape:pageshadow="2"
     inkscape:window-width="1364"
     inkscape:window-height="700"
     id="namedview7"
     showgrid="false"
     inkscape:zoom="1"
     inkscape:cx="9.9016906"
     inkscape:cy="17.294695"
     inkscape:window-x="0"
     inkscape:window-y="28"
     inkscape:window-maximized="1"
     inkscape:current-layer="svg2">
    <inkscape:grid
       type="xygrid"
       id="grid3761" />
  </sodipodi:namedview>
  <metadata
     id="metadata7">
    <rdf:RDF>
      <cc:Work
         rdf:about="">
        <dc:format>image/svg+xml</dc:format>
        <dc:type
           rdf:resource="http://purl.org/dc/dcmitype/StillImage" />
        <dc:title></dc:title>
      </cc:Work>
    </rdf:RDF>
  </metadata>
  <path
     id="path3759"
     d="m 12,5 c -4.41828,0 -8,3.58172 -8,8 0,4.41828 3.58172,8 8,8 4.41828,0 8,-3.58172 8,-8 C 20,8.58172 16.41828,5 12,5 z M 5.607144,8.767856 8.732144,12 C 9.16104,10.595764 10.455388,9.571428 12,9.571428 l 6.857144,0 L 14.5,10.660712 c 0.573624,0.612916 0.928572,1.433584 0.928572,2.339288 0,0.624508 -0.172556,1.209984 -0.464288,1.714284 l -0.03572,0.07143 c -0.02744,0.04491 -0.0599,0.0815 -0.08929,0.125 l -3.303568,5.750004 1.23214,-4.321432 c -0.245844,0.05599 -0.505052,0.08928 -0.767856,0.08928 -1.26904,0 -2.371464,-0.6895 -2.964284,-1.714284 l -0.053572,-0.07143 c -0.0214,-0.03936 -0.03376,-0.08473 -0.053572,-0.125 l -3.321428,-5.75 z M 12,10.142856 c -1.577956,0 -2.857144,1.279188 -2.857144,2.857144 0,1.577952 1.279188,2.857144 2.857144,2.857144 1.577956,0 2.857144,-1.279192 2.857144,-2.857144 0,-1.577956 -1.279188,-2.857144 -2.857144,-2.857144 z"
     style="opacity:0.2;color:#000000;fill:#000000;fill-opacity:1;fill-rule:nonzero;stroke:none;stroke-width:24;marker:none;visibility:visible;display:inline;overflow:visible;enable-background:accumulate"
     inkscape:connector-curvature="0" />
  <path
     inkscape:connector-curvature="0"
     style="color:#000000;fill:#ffffff;fill-opacity:1;fill-rule:nonzero;stroke:none;stroke-width:24;marker:none;visibility:visible;display:inline;overflow:visible;enable-background:accumulate"
     d="m 12,4 c -4.41828,0 -8,3.58172 -8,8 0,4.41828 3.58172,8 8,8 4.41828,0 8,-3.58172 8,-8 C 20,7.58172 16.41828,4 12,4 z M 5.607144,7.767856 8.732144,11 C 9.16104,9.595764 10.455388,8.571428 12,8.571428 l 6.857144,0 L 14.5,9.660712 c 0.573624,0.612916 0.928572,1.433584 0.928572,2.339288 0,0.624508 -0.172556,1.209984 -0.464288,1.714284 l -0.03572,0.07143 c -0.02744,0.04491 -0.0599,0.0815 -0.08929,0.125 l -3.303568,5.750004 1.23214,-4.321432 c -0.245844,0.05599 -0.505052,0.08928 -0.767856,0.08928 -1.26904,0 -2.371464,-0.6895 -2.964284,-1.714284 l -0.053572,-0.07143 c -0.0214,-0.03936 -0.03376,-0.08473 -0.053572,-0.125 l -3.321428,-5.75 z M 12,9.142856 c -1.577956,0 -2.857144,1.279188 -2.857144,2.857144 0,1.577952 1.279188,2.857144 2.857144,2.857144 1.577956,0 2.857144,-1.279192 2.857144,-2.857144 0,-1.577956 -1.279188,-2.857144 -2.857144,-2.857144 z"
     id="path4242" />
</svg>
