<?xml version="1.0" encoding="UTF-8" standalone="no"?>
<svg xmlns="http://www.w3.org/2000/svg" xmlns:sodipodi="http://sodipodi.sourceforge.net/DTD/sodipodi-0.dtd" xmlns:inkscape="http://www.inkscape.org/namespaces/inkscape" height="24" version="1.1" width="24" enable-background="new">
 <metadata id="metadata90"/>
 <defs id="defs7386">
  <linearGradient id="linearGradient5606" osb:paint="solid">
   <stop id="stop5608"/>
  </linearGradient>
  <filter inkscape:collect="always" color-interpolation-filters="sRGB" id="filter7554">
   <feBlend inkscape:collect="always" id="feBlend7556" in2="BackgroundImage" mode="darken"/>
  </filter>
 </defs>
 <g inkscape:groupmode="layer" id="layer9" inkscape:label="status" transform="translate(-417.00018,351)">
  <path id="path4933" d="m 426.00018,-339 0,1.09375 0.65625,-1.09375 -0.65625,0 z m 6,2.90625 -1.84375,3.09375 1.84375,0 0,-3.09375 z m -6,1.09375 0,2 2,0 0,-2 -2,0 z" inkscape:connector-curvature="0" opacity="0.2"/>
  <path sodipodi:nodetypes="ccccccc" id="path4937" d="m 429.00018,-341 0,3 3,0 -3,5 0,-3 -3,0 z" inkscape:connector-curvature="0" opacity="0.2"/>
  <path sodipodi:nodetypes="ccccccsscsccsccccccc" id="path4935" d="m 427.00018,-345 0,1 4,0 0,-1 z m -2.15625,2 c -0.28125,0.0469 -0.84375,0.25 -0.84375,1 l 0,10 c 0,1 1,1 1,1 l 8,0 c 1,0 1,-1 1,-1 l 0,-10 c 0,0 0,-1 -1,-1 l -8,0 c 0,0 -0.0625,-0.0156 -0.15625,0 z m 0.15625,1 8,0 0,10 -8,0 z" inkscape:connector-curvature="0" opacity="0.2"/>
  <path inkscape:connector-curvature="0" d="m 426.00018,-342 0,3.09375 1.84375,-3.09375 z m 4,0 0,2 2,0 0,-2 z m 2,4.90625 -1.84375,3.09375 1.84375,0 z m -6,1.09375 0,2 2,0 0,-2 z" id="path7890" sodipodi:nodetypes="cccccccccccccccccc" opacity="0.35" fill="#ffffff"/>
  <path inkscape:connector-curvature="0" d="m 426.00018,-340 0,1.09375 0.65625,-1.09375 -0.65625,0 z m 6,2.90625 -1.84375,3.09375 1.84375,0 0,-3.09375 z m -6,1.09375 0,2 2,0 0,-2 -2,0 z" id="path7880" fill="#ffffff"/>
  <path inkscape:connector-curvature="0" d="m 427.00018,-346 0,1 4,0 0,-1 z m -2.15625,2 c -0.28125,0.0469 -0.84375,0.25 -0.84375,1 l 0,10 c 0,1 1,1 1,1 l 8,0 c 1,0 1,-1 1,-1 l 0,-10 c 0,0 0,-1 -1,-1 l -8,0 c 0,0 -0.0625,-0.0156 -0.15625,0 z m 0.15625,1 8,0 0,10 -8,0 z" id="path7884" sodipodi:nodetypes="ccccccsscsccsccccccc" fill="#ffffff"/>
  <path inkscape:connector-curvature="0" d="m 429.00018,-342 0,3 3,0 -3,5 0,-3 -3,0 z" id="path7886" sodipodi:nodetypes="ccccccc" fill="#ffffff"/>
 </g>
</svg>
