<?xml version="1.0" encoding="UTF-8" standalone="no"?>
<!-- Created with Inkscape (http://www.inkscape.org/) -->

<svg
   xmlns:dc="http://purl.org/dc/elements/1.1/"
   xmlns:cc="http://creativecommons.org/ns#"
   xmlns:rdf="http://www.w3.org/1999/02/22-rdf-syntax-ns#"
   xmlns:svg="http://www.w3.org/2000/svg"
   xmlns="http://www.w3.org/2000/svg"
   xmlns:xlink="http://www.w3.org/1999/xlink"
   xmlns:sodipodi="http://sodipodi.sourceforge.net/DTD/sodipodi-0.dtd"
   xmlns:inkscape="http://www.inkscape.org/namespaces/inkscape"
   width="24"
   height="24"
   id="svg3603"
   version="1.1"
   inkscape:version="0.48.4 r9939"
   sodipodi:docname="dialog-error.svg">
  <defs
     id="defs3605">
    <linearGradient
       inkscape:collect="always"
       xlink:href="#linearGradient5048-2"
       id="linearGradient4047"
       gradientUnits="userSpaceOnUse"
       gradientTransform="matrix(0.04128206,0,0,0.00823529,24.079486,26.480562)"
       x1="302.85715"
       y1="366.64789"
       x2="302.85715"
       y2="609.50507" />
    <linearGradient
       id="linearGradient5048-2">
      <stop
         id="stop5050-6"
         style="stop-color:#000000;stop-opacity:0"
         offset="0" />
      <stop
         id="stop5056-4"
         style="stop-color:#000000;stop-opacity:1"
         offset="0.5" />
      <stop
         id="stop5052-5"
         style="stop-color:#000000;stop-opacity:0"
         offset="1" />
    </linearGradient>
    <radialGradient
       inkscape:collect="always"
       xlink:href="#linearGradient5060-6"
       id="radialGradient4049"
       gradientUnits="userSpaceOnUse"
       gradientTransform="matrix(-0.01231633,0,0,0.00823529,36.4559,26.480562)"
       cx="605.71429"
       cy="486.64789"
       fx="605.71429"
       fy="486.64789"
       r="117.14286" />
    <linearGradient
       id="linearGradient5060-6">
      <stop
         id="stop5062-0"
         style="stop-color:#000000;stop-opacity:1"
         offset="0" />
      <stop
         id="stop5064-0"
         style="stop-color:#000000;stop-opacity:0"
         offset="1" />
    </linearGradient>
    <radialGradient
       inkscape:collect="always"
       xlink:href="#linearGradient5060-6"
       id="radialGradient4051"
       gradientUnits="userSpaceOnUse"
       gradientTransform="matrix(0.01231633,0,0,0.00823529,41.544101,26.480562)"
       cx="605.71429"
       cy="486.64789"
       fx="605.71429"
       fy="486.64789"
       r="117.14286" />
    <linearGradient
       id="linearGradient3583">
      <stop
         id="stop3585"
         style="stop-color:#000000;stop-opacity:1"
         offset="0" />
      <stop
         id="stop3587"
         style="stop-color:#000000;stop-opacity:0"
         offset="1" />
    </linearGradient>
    <linearGradient
       inkscape:collect="always"
       xlink:href="#linearGradient3760-9-1"
       id="linearGradient4021"
       gradientUnits="userSpaceOnUse"
       gradientTransform="matrix(0.46765214,0,0,0.46716346,24.77635,9.7100489)"
       x1="24"
       y1="-14.603537"
       x2="24"
       y2="54.669891" />
    <linearGradient
       id="linearGradient3760-9-1">
      <stop
         style="stop-color:#e44343;stop-opacity:1;"
         offset="0"
         id="stop3762-6" />
      <stop
         style="stop-color:#ac0808;stop-opacity:1;"
         offset="1"
         id="stop3764-6" />
    </linearGradient>
  </defs>
  <sodipodi:namedview
     id="base"
     pagecolor="#ffffff"
     bordercolor="#666666"
     borderopacity="1.0"
     inkscape:pageopacity="0.0"
     inkscape:pageshadow="2"
     inkscape:zoom="1"
     inkscape:cx="38.585076"
     inkscape:cy="52.238224"
     inkscape:document-units="px"
     inkscape:current-layer="layer1"
     showgrid="false"
     inkscape:window-width="1364"
     inkscape:window-height="700"
     inkscape:window-x="0"
     inkscape:window-y="28"
     inkscape:window-maximized="1"
     showborder="false" />
  <metadata
     id="metadata3608">
    <rdf:RDF>
      <cc:Work
         rdf:about="">
        <dc:format>image/svg+xml</dc:format>
        <dc:type
           rdf:resource="http://purl.org/dc/dcmitype/StillImage" />
        <dc:title></dc:title>
      </cc:Work>
    </rdf:RDF>
  </metadata>
  <g
     inkscape:label="Layer 1"
     inkscape:groupmode="layer"
     id="layer1"
     transform="translate(0,-1028.3622)">
    <g
       transform="translate(-24,1020.3622)"
       id="g3355">
      <g
         transform="matrix(0.95652174,0,0,1,-1.3043478,0)"
         style="opacity:0.3"
         id="g4042">
        <rect
           style="fill:url(#linearGradient4047);fill-opacity:1;fill-rule:nonzero;stroke:none;stroke-width:1;marker:none;visibility:visible;display:inline;overflow:visible"
           id="rect2879-1"
           y="29.5"
           x="29.033325"
           height="2"
           width="19.933336" />
        <path
           style="fill:url(#radialGradient4049);fill-opacity:1;fill-rule:nonzero;stroke:none;stroke-width:1;marker:none;visibility:visible;display:inline;overflow:visible"
           id="path2881-5"
           inkscape:connector-curvature="0"
           d="m 29.033332,29.500079 c 0,0 0,1.999884 0,1.999884 C 28.399071,31.503697 27.5,31.05188 27.5,30.499883 c 0,-0.552003 0.707784,-0.999804 1.533332,-0.999804 z" />
        <path
           style="fill:url(#radialGradient4051);fill-opacity:1;fill-rule:nonzero;stroke:none;stroke-width:1;marker:none;visibility:visible;display:inline;overflow:visible"
           id="path2883-9"
           inkscape:connector-curvature="0"
           d="m 48.966669,29.500079 c 0,0 0,1.999884 0,1.999884 0.634255,0.0037 1.533331,-0.448083 1.533331,-1.00008 0,-0.552003 -0.707788,-0.999804 -1.533331,-0.999804 z" />
      </g>
      <path
         d="M 46.371984,28.396121 37.238642,11.178654 c -0.262523,-0.478261 -0.737541,-0.743964 -1.266574,-0.743964 -0.529028,0 -1.006485,0.318838 -1.272992,0.797103 l -9.065333,17.217472 c -0.213386,0.425121 -0.215825,1.009666 0.04692,1.434788 0.262737,0.425126 0.685075,0.637684 1.214108,0.637684 l 18.198672,0 c 0.529033,0 1.006266,-0.265703 1.219656,-0.690824 0.266281,-0.425121 0.2685,-0.956527 0.05888,-1.434792 z"
         inkscape:connector-curvature="0"
         id="path11155-5"
         style="fill:url(#linearGradient4021);fill-opacity:1;fill-rule:nonzero;stroke:none" />
      <path
         d="M 46.371984,28.396121 37.238642,11.178654 c -0.262523,-0.478261 -0.737541,-0.743964 -1.266574,-0.743964 -0.529028,0 -1.006485,0.318838 -1.272992,0.797103 l -9.065333,17.217472 c -0.213386,0.425121 -0.215825,1.009666 0.04692,1.434788 0.262737,0.425126 0.685075,0.637684 1.214108,0.637684 l 18.198672,0 c 0.529033,0 1.006266,-0.265703 1.219656,-0.690824 0.266281,-0.425121 0.2685,-0.956527 0.05888,-1.434792 z"
         inkscape:connector-curvature="0"
         id="path11155-8"
         style="opacity:0.81000001;fill:none;stroke:#5c0303;stroke-width:0.95652628;stroke-miterlimit:4;stroke-opacity:1;stroke-dasharray:none" />
      <path
         style="opacity:0.2;fill:#ffffff;fill-opacity:1;fill-rule:nonzero;stroke:none"
         d="m 35.970161,10.912955 c -0.333508,0 -0.673867,0.199178 -0.866852,0.538046 l 0,0.02989 -9.057108,17.187581 c -0.131111,0.261208 -0.115346,0.667366 0.02989,0.926635 l 9.027217,-17.157689 0,-0.02989 c 0.192985,-0.338867 0.533344,-0.538046 0.866852,-0.538046 0.368897,0 0.655584,0.177725 0.83696,0.508155 l 9.116891,17.127798 c 0.136313,-0.256614 0.161716,-0.575269 0.02989,-0.896744 l -0.02989,-0.02989 -9.116891,-17.15769 c -0.181376,-0.33043 -0.468063,-0.508154 -0.83696,-0.508154 z"
         id="path3229"
         inkscape:connector-curvature="0" />
      <path
         style="opacity:0.3;fill:#000000;fill-opacity:1"
         d="m 35,16 0,6 0.25,3 1.5,0 0.25,-3 0,-6 z m 0,11 0,2 2,0 0,-2 z"
         id="path4016"
         inkscape:connector-curvature="0"
         sodipodi:nodetypes="cccccccccccc" />
      <path
         sodipodi:nodetypes="cccccccccccc"
         inkscape:connector-curvature="0"
         id="rect4011"
         d="m 35,15 0,6 0.25,3 1.5,0 0.25,-3 0,-6 z m 0,11 0,2 2,0 0,-2 z"
         style="fill:#ffffff;fill-opacity:1" />
    </g>
  </g>
</svg>
