<?xml version="1.0" encoding="UTF-8" standalone="no"?>
<!-- Created with Inkscape (http://www.inkscape.org/) -->

<svg
   xmlns:dc="http://purl.org/dc/elements/1.1/"
   xmlns:cc="http://creativecommons.org/ns#"
   xmlns:rdf="http://www.w3.org/1999/02/22-rdf-syntax-ns#"
   xmlns:svg="http://www.w3.org/2000/svg"
   xmlns="http://www.w3.org/2000/svg"
   xmlns:xlink="http://www.w3.org/1999/xlink"
   xmlns:sodipodi="http://sodipodi.sourceforge.net/DTD/sodipodi-0.dtd"
   xmlns:inkscape="http://www.inkscape.org/namespaces/inkscape"
   width="256"
   height="256"
   id="svg5471"
   version="1.1"
   inkscape:version="0.48.4 r9939"
   sodipodi:docname="folder.svg">
  <defs
     id="defs5473">
    <clipPath
       clipPathUnits="userSpaceOnUse"
       id="clipPath12331">
      <path
         style="font-size:medium;font-style:normal;font-variant:normal;font-weight:normal;font-stretch:normal;text-indent:0;text-align:start;text-decoration:none;line-height:normal;letter-spacing:normal;word-spacing:normal;text-transform:none;direction:ltr;block-progression:tb;writing-mode:lr-tb;text-anchor:start;baseline-shift:baseline;color:#000000;fill:url(#linearGradient12335);fill-opacity:1;stroke:none;stroke-width:1;marker:none;visibility:visible;display:inline;overflow:visible;enable-background:accumulate;font-family:Sans;-inkscape-font-specification:Sans"
         d="m 29.999913,110.00027 c -2.435504,0 -3.04682,0.73256 -3.499977,1.49999 -0.421197,0.71348 -0.495997,1.40479 -0.499997,1.49999 l 0,0.1248 5.374965,141.49907 0,0.1248 c 0.121999,0.94844 0.590916,1.62583 1.249991,2.24999 0.740276,0.70119 1.110553,1.00399 2.249986,0.99999 l 218.248569,0 c 1.14215,0.003 1.38711,-0.3012 2.12498,-0.99999 0.65908,-0.62416 1.12839,-1.30263 1.24999,-2.24999 0.004,-0.0404 -0.004,-0.0828 0,-0.1248 l 5.49997,-141.74907 c 0,0 0.042,-0.63555 -0.3748,-1.37499 -0.41696,-0.73943 -0.99235,-1.50003 -3.12498,-1.49999 l -228.498497,0 z"
         id="path12333"
         inkscape:connector-curvature="0" />
    </clipPath>
    <linearGradient
       inkscape:collect="always"
       xlink:href="#linearGradient11342"
       id="linearGradient4000"
       gradientUnits="userSpaceOnUse"
       x1="136"
       y1="107.99972"
       x2="136"
       y2="195.99973" />
    <linearGradient
       id="linearGradient11342">
      <stop
         style="stop-color:#ffffff;stop-opacity:1;"
         offset="0"
         id="stop11344" />
      <stop
         style="stop-color:#ffffff;stop-opacity:0;"
         offset="1"
         id="stop11346" />
    </linearGradient>
    <clipPath
       clipPathUnits="userSpaceOnUse"
       id="clipPath5575">
      <path
         style="font-size:medium;font-style:normal;font-variant:normal;font-weight:normal;font-stretch:normal;text-indent:0;text-align:start;text-decoration:none;line-height:normal;letter-spacing:normal;word-spacing:normal;text-transform:none;direction:ltr;block-progression:tb;writing-mode:lr-tb;text-anchor:start;baseline-shift:baseline;color:#000000;fill:url(#linearGradient12335);fill-opacity:1;stroke:none;stroke-width:1;marker:none;visibility:visible;display:inline;overflow:visible;enable-background:accumulate;font-family:Sans;-inkscape-font-specification:Sans"
         d="m 29.999913,110.00027 c -2.435504,0 -3.04682,0.73256 -3.499977,1.49999 -0.421197,0.71348 -0.495997,1.40479 -0.499997,1.49999 l 0,0.1248 5.374965,141.49907 0,0.1248 c 0.121999,0.94844 0.590916,1.62583 1.249991,2.24999 0.740276,0.70119 1.110553,1.00399 2.249986,0.99999 l 218.248569,0 c 1.14215,0.003 1.38711,-0.3012 2.12498,-0.99999 0.65908,-0.62416 1.12839,-1.30263 1.24999,-2.24999 0.004,-0.0404 -0.004,-0.0828 0,-0.1248 l 5.49997,-141.74907 c 0,0 0.042,-0.63555 -0.3748,-1.37499 -0.41696,-0.73943 -0.99235,-1.50003 -3.12498,-1.49999 l -228.498497,0 z"
         id="path5577"
         inkscape:connector-curvature="0" />
    </clipPath>
    <linearGradient
       inkscape:collect="always"
       xlink:href="#linearGradient4968"
       id="linearGradient5236"
       gradientUnits="userSpaceOnUse"
       gradientTransform="matrix(3.9999737,0,0,3.9999737,-1215.992,-783.99418)"
       x1="368"
       y1="148"
       x2="368"
       y2="212" />
    <linearGradient
       id="linearGradient4968">
      <stop
         id="stop4970"
         offset="0"
         style="stop-color:#f1e6f4;stop-opacity:1;" />
      <stop
         style="stop-color:#c9bcce;stop-opacity:1;"
         offset="1"
         id="stop4972" />
    </linearGradient>
    <clipPath
       clipPathUnits="userSpaceOnUse"
       id="clipPath12349">
      <path
         id="path12351"
         d="m 42,57 c -1.299622,0 -2.276194,0.268046 -3,0.75 -0.723806,0.481954 -1.13028,1.115801 -1.40625,1.65625 C 36.963089,60.642296 37,61.875 37,61.875 l 0,80.125 0,1 1,0 212,0 1,0 0,-1 0,-60 c 0,0 0.0486,-1.275819 -0.59375,-2.5625 -0.28256,-0.566335 -0.7092,-1.240124 -1.4375,-1.71875 C 248.24045,77.240124 247.28821,76.995578 246,77 l -84.125,0.375 c -10.31819,0 -15.29494,-5.453102 -19.75,-10.53125 C 139.89747,64.304779 137.83551,61.839737 135.0625,60 132.28949,58.160263 128.81797,57 124,57 l -82,0 z"
         style="font-size:medium;font-style:normal;font-variant:normal;font-weight:normal;font-stretch:normal;text-indent:0;text-align:start;text-decoration:none;line-height:normal;letter-spacing:normal;word-spacing:normal;text-transform:none;direction:ltr;block-progression:tb;writing-mode:lr-tb;text-anchor:start;baseline-shift:baseline;color:#000000;fill:url(#linearGradient12353);fill-opacity:1;stroke:none;stroke-width:1;marker:none;visibility:visible;display:inline;overflow:visible;enable-background:accumulate;font-family:Sans;-inkscape-font-specification:Sans"
         inkscape:connector-curvature="0" />
    </clipPath>
    <linearGradient
       inkscape:collect="always"
       xlink:href="#linearGradient11359"
       id="linearGradient5240"
       gradientUnits="userSpaceOnUse"
       gradientTransform="matrix(3.9999737,0,0,3.9999737,-1215.992,-800.21614)"
       x1="336.00021"
       y1="164.05504"
       x2="336.00021"
       y2="196.05525" />
    <linearGradient
       id="linearGradient11359">
      <stop
         style="stop-color:#d5cbd7;stop-opacity:1;"
         offset="0"
         id="stop11361" />
      <stop
         style="stop-color:#d9bfdf;stop-opacity:1;"
         offset="1"
         id="stop11363" />
    </linearGradient>
    <filter
       color-interpolation-filters="sRGB"
       inkscape:collect="always"
       id="filter12394">
      <feGaussianBlur
         inkscape:collect="always"
         stdDeviation="1.102503"
         id="feGaussianBlur12396" />
    </filter>
    <filter
       color-interpolation-filters="sRGB"
       inkscape:collect="always"
       id="filter12370">
      <feGaussianBlur
         inkscape:collect="always"
         stdDeviation="2.205006"
         id="feGaussianBlur12372" />
    </filter>
  </defs>
  <sodipodi:namedview
     id="base"
     pagecolor="#ffffff"
     bordercolor="#666666"
     borderopacity="1.0"
     inkscape:pageopacity="0.0"
     inkscape:pageshadow="2"
     inkscape:zoom="1"
     inkscape:cx="34.129381"
     inkscape:cy="45.22974"
     inkscape:current-layer="layer1"
     showgrid="false"
     inkscape:document-units="px"
     inkscape:grid-bbox="true"
     inkscape:window-width="1364"
     inkscape:window-height="700"
     inkscape:window-x="0"
     inkscape:window-y="28"
     inkscape:window-maximized="1">
    <inkscape:grid
       type="xygrid"
       id="grid5554"
       empspacing="4"
       visible="true"
       enabled="true"
       snapvisiblegridlinesonly="true" />
  </sodipodi:namedview>
  <metadata
     id="metadata5476">
    <rdf:RDF>
      <cc:Work
         rdf:about="">
        <dc:format>image/svg+xml</dc:format>
        <dc:type
           rdf:resource="http://purl.org/dc/dcmitype/StillImage" />
        <dc:title></dc:title>
      </cc:Work>
    </rdf:RDF>
  </metadata>
  <g
     id="layer1"
     inkscape:label="Background"
     inkscape:groupmode="layer"
     transform="translate(0,192)"
     style="display:inline">
    <path
       inkscape:connector-curvature="0"
       id="path13874"
       d="m 14,-108.50023 c -1.167621,0 -1.837548,0.18218 -2.25,0.40625 -0.412452,0.22397 -0.600557,0.48482 -0.8125,0.84375 -0.181246,0.30702 -0.31236,0.60494 -0.375,0.84375 -0.0583,0.22209 -0.0613,0.40622 -0.0625,0.40625 l 0,0.0312 0,0.0625 0,0.0312 5.375,141.46875 0,0.0312 0,0.0625 c 0.105159,0.81752 0.479843,1.35612 1.09375,1.9375 0.366009,0.34668 0.59875,0.56569 0.84375,0.6875 0.245,0.1218 0.537264,0.1895 1.0625,0.1875 l 218.25,0 c 0.52659,10e-4 0.75993,-0.0726 0.96875,-0.1875 0.20882,-0.11492 0.43732,-0.33219 0.8125,-0.6875 0.61377,-0.58125 0.98899,-1.12137 1.09375,-1.9375 -0.004,0.0441 -0.003,-0.0263 0,-0.0937 0.001,-0.0222 -0.003,0.003 0,-0.0312 l 5.5,-141.71875 c 0,0 0.0371,-0.47359 -0.3125,-1.09375 -0.19617,-0.34789 -0.38752,-0.62231 -0.75,-0.84375 -0.36248,-0.22144 -0.93063,-0.40627 -1.9375,-0.40625 l -228.28125,0 -0.21875,0 z"
       style="font-size:medium;font-style:normal;font-variant:normal;font-weight:normal;font-stretch:normal;text-indent:0;text-align:start;text-decoration:none;line-height:normal;letter-spacing:normal;word-spacing:normal;text-transform:none;direction:ltr;block-progression:tb;writing-mode:lr-tb;text-anchor:start;baseline-shift:baseline;opacity:0.2;color:#000000;fill:#000000;fill-opacity:1;stroke:none;stroke-width:1;marker:none;visibility:visible;display:inline;overflow:visible;enable-background:accumulate;font-family:Sans;-inkscape-font-specification:Sans" />
    <path
       style="font-size:medium;font-style:normal;font-variant:normal;font-weight:normal;font-stretch:normal;text-indent:0;text-align:start;text-decoration:none;line-height:normal;letter-spacing:normal;word-spacing:normal;text-transform:none;direction:ltr;block-progression:tb;writing-mode:lr-tb;text-anchor:start;baseline-shift:baseline;opacity:0.2;color:#000000;fill:#000000;fill-opacity:1;stroke:none;stroke-width:1;marker:none;visibility:visible;display:inline;overflow:visible;filter:url(#filter12370);enable-background:accumulate;font-family:Sans;-inkscape-font-specification:Sans"
       d="m 26,-165.00033 c -1.299622,0 -2.276194,0.26804 -3,0.75 -0.723806,0.48195 -1.13028,1.1158 -1.40625,1.65625 C 20.963089,-161.35804 21,-160.12533 21,-160.12533 l 0,52.125 -7,0 c -2.435504,0 -3.046843,0.73257 -3.5,1.5 -0.421197,0.71348 -0.496,1.4048 -0.5,1.5 l 0,0.125 5.375,141.5 0,0.125 c 0.121999,0.94844 0.590925,1.62584 1.25,2.25 0.740276,0.70119 1.110567,1.004 2.25,1 l 218.25,0 c 1.14215,0.003 1.38713,-0.30121 2.125,-1 0.65908,-0.62416 1.1284,-1.30264 1.25,-2.25 0.004,-0.0404 -0.004,-0.083 0,-0.125 l 5.5,-141.75 c 0,0 0.0418,-0.63556 -0.375,-1.375 -0.41696,-0.73943 -0.99237,-1.50004 -3.125,-1.5 l -7.5,0 0,-32 c 0,0 0.0486,-1.27582 -0.59375,-2.5625 -0.28256,-0.56634 -0.7092,-1.24013 -1.4375,-1.71875 -0.7283,-0.47863 -1.68054,-0.72318 -2.96875,-0.71875 l -84.125,0.375 c -10.31819,0 -15.29494,-5.45311 -19.75,-10.53125 -2.22753,-2.53897 -4.28949,-5.00402 -7.0625,-6.84375 -2.77301,-1.83974 -6.24453,-3 -11.0625,-3 l -82,0 z"
       id="path12355"
       inkscape:connector-curvature="0" />
    <path
       inkscape:connector-curvature="0"
       id="path12384"
       d="m 26,-166.00032 c -1.299622,0 -2.276194,0.26804 -3,0.75 -0.723806,0.48195 -1.13028,1.1158 -1.40625,1.65625 C 20.963089,-162.35803 21,-161.12532 21,-161.12532 l 0,52.125 -7,0 c -2.435504,0 -3.046843,0.73257 -3.5,1.5 -0.421197,0.71348 -0.496,1.4048 -0.5,1.5 l 0,0.125 5.375,141.5 0,0.125 c 0.121999,0.94844 0.590925,1.62584 1.25,2.25 0.740276,0.70119 1.110567,1.004 2.25,1 l 218.25,0 c 1.14215,0.003 1.38713,-0.30121 2.125,-1 0.65908,-0.62416 1.1284,-1.30264 1.25,-2.25 0.004,-0.0404 -0.004,-0.083 0,-0.125 l 5.5,-141.75 c 0,0 0.0418,-0.63556 -0.375,-1.375 -0.41696,-0.73943 -0.99237,-1.50004 -3.125,-1.5 l -7.5,0 0,-32 c 0,0 0.0486,-1.27582 -0.59375,-2.5625 -0.28256,-0.56634 -0.7092,-1.24013 -1.4375,-1.71875 -0.7283,-0.47863 -1.68054,-0.72317 -2.96875,-0.71875 l -84.125,0.375 c -10.31819,0 -15.29494,-5.4531 -19.75,-10.53125 -2.22753,-2.53897 -4.28949,-5.00401 -7.0625,-6.84375 -2.77301,-1.83974 -6.24453,-3 -11.0625,-3 l -82,0 z"
       style="font-size:medium;font-style:normal;font-variant:normal;font-weight:normal;font-stretch:normal;text-indent:0;text-align:start;text-decoration:none;line-height:normal;letter-spacing:normal;word-spacing:normal;text-transform:none;direction:ltr;block-progression:tb;writing-mode:lr-tb;text-anchor:start;baseline-shift:baseline;opacity:0.1;color:#000000;fill:#000000;fill-opacity:1;stroke:none;stroke-width:1;marker:none;visibility:visible;display:inline;overflow:visible;filter:url(#filter12394);enable-background:accumulate;font-family:Sans;-inkscape-font-specification:Sans" />
    <path
       inkscape:connector-curvature="0"
       style="font-size:medium;font-style:normal;font-variant:normal;font-weight:normal;font-stretch:normal;text-indent:0;text-align:start;text-decoration:none;line-height:normal;letter-spacing:normal;word-spacing:normal;text-transform:none;direction:ltr;block-progression:tb;writing-mode:lr-tb;text-anchor:start;baseline-shift:baseline;color:#000000;fill:url(#linearGradient5240);fill-opacity:1;stroke:none;stroke-width:1;marker:none;visibility:visible;display:inline;overflow:visible;enable-background:accumulate;font-family:Sans;-inkscape-font-specification:Sans"
       d="m 26,-166.72125 c -1.230872,0 -2.096401,0.24189 -2.71875,0.65625 -0.627351,0.41773 -0.992454,0.96438 -1.25,1.46875 -0.56591,1.10913 -0.53125,2.25 -0.53125,2.25 l 0,80.12502 0,0.5 0.5,0 212,0 0.5,0 0,-0.5 0,-60.00002 0,-0.0312 c 0,0 0.0476,-1.15301 -0.53125,-2.3125 -0.25772,-0.51654 -0.65104,-1.09195 -1.25,-1.5 l -0.0312,-0.0312 c -0.62646,-0.4117 -1.46341,-0.6292 -2.6875,-0.625 l -84.125,0.375 c -10.49435,0 -15.66523,-5.60398 -20.125,-10.6875 -2.23246,-2.54459 -4.27204,-4.99213 -6.96875,-6.78125 -2.69357,-1.787 -6.0436,-2.90625 -10.7813,-2.90625 l -82,0 z"
       id="path12280" />
    <path
       inkscape:connector-curvature="0"
       id="path12345"
       transform="translate(-16,-224.17706)"
       d="m 42,57 c -1.299622,0 -2.276194,0.268046 -3,0.75 -0.723806,0.481954 -1.13028,1.115801 -1.40625,1.65625 C 36.963089,60.642296 37,61.875 37,61.875 l 0,80.125 0,1 1,0 212,0 1,0 0,-1 0,-60 c 0,0 0.0486,-1.275819 -0.59375,-2.5625 -0.28256,-0.566335 -0.7092,-1.240124 -1.4375,-1.71875 C 248.24045,77.240124 247.28821,76.995578 246,77 l -84.125,0.375 c -10.31819,0 -15.29494,-5.453102 -19.75,-10.53125 C 139.89747,64.304779 137.83551,61.839737 135.0625,60 132.28949,58.160263 128.81797,57 124,57 l -82,0 z"
       style="font-size:medium;font-style:normal;font-variant:normal;font-weight:normal;font-stretch:normal;text-indent:0;text-align:start;text-decoration:none;line-height:normal;letter-spacing:normal;word-spacing:normal;text-transform:none;direction:ltr;block-progression:tb;writing-mode:lr-tb;text-anchor:start;baseline-shift:baseline;opacity:0.41000001;color:#000000;fill:none;stroke:#000000;stroke-width:2;stroke-miterlimit:4;stroke-opacity:1;stroke-dasharray:none;marker:none;visibility:visible;display:inline;overflow:visible;enable-background:accumulate;font-family:Sans;-inkscape-font-specification:Sans"
       clip-path="url(#clipPath12349)" />
    <path
       inkscape:connector-curvature="0"
       style="font-size:medium;font-style:normal;font-variant:normal;font-weight:normal;font-stretch:normal;text-indent:0;text-align:start;text-decoration:none;line-height:normal;letter-spacing:normal;word-spacing:normal;text-transform:none;direction:ltr;block-progression:tb;writing-mode:lr-tb;text-anchor:start;baseline-shift:baseline;color:#000000;fill:url(#linearGradient5236);fill-opacity:1;stroke:none;stroke-width:1;marker:none;visibility:visible;display:inline;overflow:visible;enable-background:accumulate;font-family:Sans;-inkscape-font-specification:Sans"
       d="m 14,-109.50028 c -1.167621,0 -1.837548,0.18218 -2.25,0.40625 -0.412452,0.22397 -0.600557,0.48482 -0.8125,0.84375 -0.181246,0.30702 -0.31236,0.60494 -0.375,0.84375 -0.0583,0.22209 -0.0613,0.40622 -0.0625,0.40625 l 0,0.0312 0,0.0625 0,0.0312 5.375,141.46875 0,0.0312 0,0.0625 c 0.105159,0.81752 0.479843,1.35612 1.09375,1.9375 0.366009,0.34668 0.59875,0.56569 0.84375,0.6875 0.245,0.1218 0.537264,0.1895 1.0625,0.1875 l 218.25,0 c 0.52659,0.001 0.75993,-0.0726 0.96875,-0.1875 0.20882,-0.11492 0.43732,-0.33219 0.8125,-0.6875 0.61377,-0.58125 0.98899,-1.12137 1.09375,-1.9375 -0.004,0.0441 -0.003,-0.0263 0,-0.0937 0.001,-0.0222 -0.003,0.003 0,-0.0312 l 5.5,-141.71875 c 0,0 0.0371,-0.47359 -0.3125,-1.09375 -0.19617,-0.34789 -0.38752,-0.62231 -0.75,-0.84375 -0.36248,-0.22144 -0.93063,-0.40627 -1.9375,-0.40625 l -228.28125,0 -0.21875,0 z"
       id="path12282" />
    <path
       transform="translate(-16,-220)"
       clip-path="url(#clipPath12331)"
       inkscape:connector-curvature="0"
       id="path12374"
       d="m 29.999913,110.00027 c -2.435504,0 -3.04682,0.73256 -3.499977,1.49999 -0.421197,0.71348 -0.495997,1.40479 -0.499997,1.49999 l 0,0.1248 5.374965,141.49907 0,0.1248 c 0.121999,0.94844 0.590916,1.62583 1.249991,2.24999 0.740276,0.70119 1.110553,1.00399 2.249986,0.99999 l 218.248569,0 c 1.14215,0.003 1.38711,-0.3012 2.12498,-0.99999 0.65908,-0.62416 1.12839,-1.30263 1.24999,-2.24999 0.004,-0.0404 -0.004,-0.0828 0,-0.1248 l 5.49997,-141.74907 c 0,0 0.042,-0.63555 -0.3748,-1.37499 -0.41696,-0.73943 -0.99235,-1.50003 -3.12498,-1.49999 l -228.498497,0 z"
       style="font-size:medium;font-style:normal;font-variant:normal;font-weight:normal;font-stretch:normal;text-indent:0;text-align:start;text-decoration:none;line-height:normal;letter-spacing:normal;word-spacing:normal;text-transform:none;direction:ltr;block-progression:tb;writing-mode:lr-tb;text-anchor:start;baseline-shift:baseline;opacity:0.2;color:#000000;fill:none;stroke:url(#linearGradient4000);stroke-width:4;stroke-miterlimit:4;stroke-opacity:1;stroke-dasharray:none;marker:none;visibility:visible;display:inline;overflow:visible;enable-background:accumulate;font-family:Sans;-inkscape-font-specification:Sans" />
    <path
       transform="translate(-16,-220)"
       style="font-size:medium;font-style:normal;font-variant:normal;font-weight:normal;font-stretch:normal;text-indent:0;text-align:start;text-decoration:none;line-height:normal;letter-spacing:normal;word-spacing:normal;text-transform:none;direction:ltr;block-progression:tb;writing-mode:lr-tb;text-anchor:start;baseline-shift:baseline;opacity:0.41000001;color:#000000;fill:none;stroke:#000000;stroke-width:2;stroke-miterlimit:4;stroke-opacity:1;stroke-dasharray:none;marker:none;visibility:visible;display:inline;overflow:visible;enable-background:accumulate;font-family:Sans;-inkscape-font-specification:Sans"
       d="m 29.999913,110.00027 c -2.435504,0 -3.04682,0.73256 -3.499977,1.49999 -0.421197,0.71348 -0.495997,1.40479 -0.499997,1.49999 l 0,0.1248 5.374965,141.49907 0,0.1248 c 0.121999,0.94844 0.590916,1.62583 1.249991,2.24999 0.740276,0.70119 1.110553,1.00399 2.249986,0.99999 l 218.248569,0 c 1.14215,0.003 1.38711,-0.3012 2.12498,-0.99999 0.65908,-0.62416 1.12839,-1.30263 1.24999,-2.24999 0.004,-0.0404 -0.004,-0.0828 0,-0.1248 l 5.49997,-141.74907 c 0,0 0.042,-0.63555 -0.3748,-1.37499 -0.41696,-0.73943 -0.99235,-1.50003 -3.12498,-1.49999 l -228.498497,0 z"
       id="path12327"
       inkscape:connector-curvature="0"
       clip-path="url(#clipPath12331)" />
  </g>
  <g
     inkscape:groupmode="layer"
     id="layer4"
     inkscape:label="Symbol" />
</svg>
