<?xml version="1.0" encoding="UTF-8" standalone="no"?>
<svg
   xmlns:dc="http://purl.org/dc/elements/1.1/"
   xmlns:cc="http://creativecommons.org/ns#"
   xmlns:rdf="http://www.w3.org/1999/02/22-rdf-syntax-ns#"
   xmlns:svg="http://www.w3.org/2000/svg"
   xmlns="http://www.w3.org/2000/svg"
   xmlns:xlink="http://www.w3.org/1999/xlink"
   xmlns:sodipodi="http://sodipodi.sourceforge.net/DTD/sodipodi-0.dtd"
   xmlns:inkscape="http://www.inkscape.org/namespaces/inkscape"
   version="1.2"
   width="48"
   height="48"
   id="svg2"
   inkscape:version="0.48.4 r9939"
   sodipodi:docname="notification-audio-volume-high.svg">
  <sodipodi:namedview
     pagecolor="#373737"
     bordercolor="#666666"
     borderopacity="1"
     objecttolerance="10"
     gridtolerance="10"
     guidetolerance="10"
     inkscape:pageopacity="0.65098039"
     inkscape:pageshadow="2"
     inkscape:window-width="680"
     inkscape:window-height="480"
     id="namedview16"
     showgrid="false"
     inkscape:zoom="2.8284271"
     inkscape:cx="29.43072"
     inkscape:cy="26.791108"
     inkscape:window-x="0"
     inkscape:window-y="28"
     inkscape:window-maximized="0"
     inkscape:current-layer="svg2" />
  <defs
     id="defs4">
    <linearGradient
       y1="92.54"
       x2="0"
       y2="7.02"
       id="ButtonShadow-9"
       gradientUnits="userSpaceOnUse"
       gradientTransform="scale(1.0058652,0.994169)">
      <stop
         id="stop3750-3" />
      <stop
         id="stop3752-1"
         offset="1"
         stop-opacity="0.588" />
    </linearGradient>
    <filter
       color-interpolation-filters="sRGB"
       id="filter3174-4">
      <feGaussianBlur
         stdDeviation="1.71"
         id="feGaussianBlur3176-5" />
    </filter>
    <linearGradient
       y1="92.54"
       x2="0"
       y2="7.02"
       id="linearGradient6176"
       xlink:href="#ButtonShadow-9"
       gradientUnits="userSpaceOnUse"
       gradientTransform="scale(1.0058652,0.994169)" />
  </defs>
  <metadata
     id="metadata7">
    <rdf:RDF>
      <cc:Work
         rdf:about="">
        <dc:format>image/svg+xml</dc:format>
        <dc:type
           rdf:resource="http://purl.org/dc/dcmitype/StillImage" />
        <dc:title></dc:title>
      </cc:Work>
    </rdf:RDF>
  </metadata>
  <path
     d="M 20.9375 12 L 14.9375 18 L 12 18 L 10 18 L 10 30 L 14.9375 30 L 17.40625 32.46875 L 22 27.875 L 22 12 L 20.9375 12 z M 27.4375 14.25 C 26.680557 14.429774 26.471962 15.639626 27.125 16.0625 C 28.411622 17.121717 29.375697 18.440707 30 19.875 L 31.5 18.375 C 30.758511 16.918987 29.709632 15.598746 28.375 14.5 C 28.158371 14.303203 27.85229 14.209024 27.5625 14.25 C 27.52089 14.2474 27.47911 14.2474 27.4375 14.25 z M 24.625 18.6875 C 23.909599 18.871527 23.672821 19.976492 24.25 20.4375 C 25.279803 21.47585 25.738344 22.840021 25.6875 24.1875 L 27.53125 22.34375 C 27.242476 21.115928 26.632729 19.953086 25.6875 19 C 25.457152 18.74379 25.088004 18.620741 24.75 18.6875 C 24.70839 18.6849 24.66661 18.6849 24.625 18.6875 z M 32.59375 21.53125 L 30.8125 23.3125 C 30.978862 25.819218 30.258893 28.393769 28.5625 30.5 C 28.10842 31.06376 27.742 31.47522 27.1875 31.9375 C 26.657278 32.210886 26.493096 33.010465 26.875 33.46875 C 27.256904 33.927034 28.072982 33.909735 28.4375 33.4375 C 29.07824 32.9033 29.60084 32.40076 30.125 31.75 C 32.513455 28.784519 33.300364 25.014299 32.59375 21.53125 z M 27 27.125 L 24.6875 29.4375 C 25.050116 29.455515 25.434307 29.311766 25.625 29 C 25.641 28.984 25.6795 29.008 25.6875 29 C 26.238779 28.440997 26.671898 27.798038 27 27.125 z M 22 32.125 L 19.5625 34.5625 L 21.0625 36.0625 L 22 36 L 22 32.125 z "
     id="path5491"
     style="fill:#ffffff" />
  <path
     style="color:#000000;fill:#ffffff;stroke-width:1.5"
     inkscape:connector-curvature="0"
     d="m 33.9375,11.9375 -22,22 2.125,2.125 22,-22 -2.125,-2.125 z"
     id="path1023" />
</svg>
