<?xml version="1.0" encoding="UTF-8" standalone="no"?>
<svg
   xmlns:dc="http://purl.org/dc/elements/1.1/"
   xmlns:cc="http://creativecommons.org/ns#"
   xmlns:rdf="http://www.w3.org/1999/02/22-rdf-syntax-ns#"
   xmlns:svg="http://www.w3.org/2000/svg"
   xmlns="http://www.w3.org/2000/svg"
   xmlns:xlink="http://www.w3.org/1999/xlink"
   xmlns:sodipodi="http://sodipodi.sourceforge.net/DTD/sodipodi-0.dtd"
   xmlns:inkscape="http://www.inkscape.org/namespaces/inkscape"
   version="1.1"
   width="48"
   height="48"
   id="svg2"
   inkscape:version="0.48.4 r9939"
   sodipodi:docname="notification-power.svg">
  <sodipodi:namedview
     pagecolor="#ffffff"
     bordercolor="#666666"
     borderopacity="1"
     objecttolerance="10"
     gridtolerance="10"
     guidetolerance="10"
     inkscape:pageopacity="0"
     inkscape:pageshadow="2"
     inkscape:window-width="640"
     inkscape:window-height="480"
     id="namedview15"
     showgrid="false"
     inkscape:zoom="1"
     inkscape:cx="34.797574"
     inkscape:cy="15.233905"
     inkscape:window-x="0"
     inkscape:window-y="28"
     inkscape:window-maximized="0"
     inkscape:current-layer="svg2">
    <inkscape:grid
       type="xygrid"
       id="grid2992" />
  </sodipodi:namedview>
  <defs
     id="defs4">
    <linearGradient
       y1="92.54"
       x2="0"
       y2="7.02"
       id="ButtonShadow-9"
       gradientUnits="userSpaceOnUse"
       gradientTransform="scale(1.0058652,0.994169)">
      <stop
         id="stop3750-3" />
      <stop
         id="stop3752-1"
         offset="1"
         stop-opacity="0.588" />
    </linearGradient>
    <filter
       color-interpolation-filters="sRGB"
       id="filter3174-4">
      <feGaussianBlur
         stdDeviation="1.71"
         id="feGaussianBlur3176-5" />
    </filter>
    <linearGradient
       y1="92.54"
       x2="0"
       y2="7.02"
       id="linearGradient6176"
       xlink:href="#ButtonShadow-9"
       gradientUnits="userSpaceOnUse"
       gradientTransform="scale(1.0058652,0.994169)" />
  </defs>
  <metadata
     id="metadata7">
    <rdf:RDF>
      <cc:Work
         rdf:about="">
        <dc:format>image/svg+xml</dc:format>
        <dc:type
           rdf:resource="http://purl.org/dc/dcmitype/StillImage" />
      </cc:Work>
    </rdf:RDF>
  </metadata>
  <path
     sodipodi:nodetypes="ccccccssccccccscc"
     style="fill:#e13f2b;opacity:0.35"
     d="m 20,9 0,2 8,0 0,-2 z m -4.3125,4 C 15.125,13.0938 14,13.5 14,15 l 0,20 c 0,2 2,2 2,2 l 14,0 0,-2 0,-18 4,0 0,-2 c 0,0 0,-2 -2,-2 l -16,0 c 0,0 -0.125,-0.0312 -0.3125,0 z"
     id="rect2388-2-2-5"
     inkscape:connector-curvature="0" />
  <path
     style="fill:#e13f2b"
     d="m 32.00002,19 0,10 0.5,4 3,0 0.5,-4 0,-10 z m 0,16 0,4 4,0 0,-4 z"
     id="path7562"
     inkscape:connector-curvature="0"
     sodipodi:nodetypes="cccccccccccc" />
</svg>
