<?xml version="1.0" encoding="UTF-8" standalone="no"?>
<!-- Created with Inkscape (http://www.inkscape.org/) -->

<svg
   xmlns:dc="http://purl.org/dc/elements/1.1/"
   xmlns:cc="http://creativecommons.org/ns#"
   xmlns:rdf="http://www.w3.org/1999/02/22-rdf-syntax-ns#"
   xmlns:svg="http://www.w3.org/2000/svg"
   xmlns="http://www.w3.org/2000/svg"
   xmlns:xlink="http://www.w3.org/1999/xlink"
   xmlns:sodipodi="http://sodipodi.sourceforge.net/DTD/sodipodi-0.dtd"
   xmlns:inkscape="http://www.inkscape.org/namespaces/inkscape"
   width="22"
   height="22"
   id="svg3495"
   version="1.1"
   inkscape:version="0.48.4 r9939"
   sodipodi:docname="calendar-go-today.svg">
  <defs
     id="defs3497">
    <clipPath
       clipPathUnits="userSpaceOnUse"
       id="clipPath3669">
      <path
         inkscape:connector-curvature="0"
         d="M 0,96 96,96 96,0 0,0 0,96 z"
         id="path3671" />
    </clipPath>
    <linearGradient
       inkscape:collect="always"
       xlink:href="#linearGradient3821"
       id="linearGradient3827"
       x1="8"
       y1="16"
       x2="8"
       y2="0"
       gradientUnits="userSpaceOnUse" />
    <linearGradient
       id="linearGradient3821">
      <stop
         style="stop-color:#555555;stop-opacity:1;"
         offset="0"
         id="stop3823" />
      <stop
         style="stop-color:#666666;stop-opacity:1;"
         offset="1"
         id="stop3825" />
    </linearGradient>
    <linearGradient
       gradientTransform="translate(14.052433,27.326995)"
       y2="0"
       x2="8"
       y1="16"
       x1="8"
       gradientUnits="userSpaceOnUse"
       id="linearGradient3056"
       xlink:href="#linearGradient3821"
       inkscape:collect="always" />
    <linearGradient
       inkscape:collect="always"
       xlink:href="#linearGradient4134"
       id="linearGradient4140"
       x1="789"
       y1="256"
       x2="827"
       y2="256"
       gradientUnits="userSpaceOnUse" />
    <linearGradient
       inkscape:collect="always"
       id="linearGradient4134">
      <stop
         style="stop-color:#ffffff;stop-opacity:1;"
         offset="0"
         id="stop4136" />
      <stop
         style="stop-color:#ffffff;stop-opacity:0;"
         offset="1"
         id="stop4138" />
    </linearGradient>
    <clipPath
       clipPathUnits="userSpaceOnUse"
       id="clipPath4130">
      <path
         id="path4132"
         d="M 790.4375,237 C 789.62555,237 789,237.62555 789,238.4375 l 0,35.09375 c 0,0.812 0.62555,1.46875 1.4375,1.46875 l 35.125,0 c 0.81195,0 1.4375,-0.65675 1.4375,-1.46875 l 0,-35.09375 C 827,237.62555 826.37445,237 825.5625,237 l -35.125,0 z"
         style="fill:#ba2222;fill-opacity:1;stroke:none"
         inkscape:connector-curvature="0" />
    </clipPath>
    <linearGradient
       id="linearGradient3413">
      <stop
         style="stop-color:#dddddd;stop-opacity:1;"
         offset="0"
         id="stop3415" />
      <stop
         style="stop-color:#f2f2f2;stop-opacity:1;"
         offset="1"
         id="stop3417" />
    </linearGradient>
    <linearGradient
       id="outerBackgroundGradient-6">
      <stop
         style="stop-color:#c23021;stop-opacity:1;"
         offset="0"
         id="stop3864-8-6-0" />
      <stop
         style="stop-color:#e74c3c;stop-opacity:1;"
         offset="1"
         id="stop3866-9-1-7" />
    </linearGradient>
    <linearGradient
       inkscape:collect="always"
       xlink:href="#linearGradient3413"
       id="linearGradient3869"
       x1="1.5"
       y1="11"
       x2="20.5"
       y2="11"
       gradientUnits="userSpaceOnUse"
       gradientTransform="matrix(0,-1,1,0,0,22)" />
    <linearGradient
       inkscape:collect="always"
       xlink:href="#linearGradient4134"
       id="linearGradient3907"
       x1="2"
       y1="11"
       x2="20"
       y2="11"
       gradientUnits="userSpaceOnUse"
       gradientTransform="matrix(0,1,-1,0,22,26)" />
    <linearGradient
       inkscape:collect="always"
       xlink:href="#outerBackgroundGradient-6"
       id="linearGradient3911"
       gradientUnits="userSpaceOnUse"
       gradientTransform="matrix(0,-1,1,0,0,22)"
       x1="1.5"
       y1="11"
       x2="20.5"
       y2="11" />
    <linearGradient
       inkscape:collect="always"
       xlink:href="#linearGradient3413"
       id="linearGradient3796"
       gradientUnits="userSpaceOnUse"
       gradientTransform="matrix(0,-1,1,0,0,22)"
       x1="1.5"
       y1="11"
       x2="20.5"
       y2="11" />
    <linearGradient
       inkscape:collect="always"
       xlink:href="#linearGradient3413"
       id="linearGradient3803"
       gradientUnits="userSpaceOnUse"
       gradientTransform="matrix(0,-1,1,0,0,22)"
       x1="1.5"
       y1="11"
       x2="20.5"
       y2="11" />
    <linearGradient
       inkscape:collect="always"
       xlink:href="#linearGradient3413"
       id="linearGradient3812"
       gradientUnits="userSpaceOnUse"
       gradientTransform="matrix(0,-1,1,0,0,22)"
       x1="1.5"
       y1="11"
       x2="20.5"
       y2="11" />
    <linearGradient
       inkscape:collect="always"
       xlink:href="#linearGradient3413"
       id="linearGradient3822"
       gradientUnits="userSpaceOnUse"
       gradientTransform="matrix(0,-1,1,0,0,22)"
       x1="1.5"
       y1="11"
       x2="20.5"
       y2="11" />
    <linearGradient
       inkscape:collect="always"
       xlink:href="#linearGradient3413"
       id="linearGradient3831"
       gradientUnits="userSpaceOnUse"
       gradientTransform="matrix(0,-1,1,0,0,22)"
       x1="1.5"
       y1="11"
       x2="20.5"
       y2="11" />
    <linearGradient
       id="linearGradient6557-4">
      <stop
         style="stop-color:#fce94f;stop-opacity:1;"
         offset="0"
         id="stop6559-2" />
      <stop
         id="stop6565-2"
         offset="0.67301035"
         style="stop-color:#fce94f;stop-opacity:1" />
      <stop
         style="stop-color:#fce94f;stop-opacity:0;"
         offset="1"
         id="stop6561-7" />
    </linearGradient>
    <radialGradient
       r="5.4999967"
       fy="785.15662"
       fx="316.08578"
       cy="785.15662"
       cx="316.08578"
       gradientTransform="matrix(2.1730275,0,0,1.9594181,-672.25707,-1534.79)"
       gradientUnits="userSpaceOnUse"
       id="radialGradient4371"
       xlink:href="#linearGradient6620-1"
       inkscape:collect="always" />
    <linearGradient
       id="linearGradient6620-1">
      <stop
         id="stop6622-7"
         offset="0"
         style="stop-color:#ffffff;stop-opacity:1" />
      <stop
         style="stop-color:#ffffff;stop-opacity:1"
         offset="0.32992947"
         id="stop6624-4" />
      <stop
         id="stop6626-5"
         offset="1"
         style="stop-color:#fce94f;stop-opacity:1" />
    </linearGradient>
    <radialGradient
       r="5.2188735"
       fy="816.90698"
       fx="309.36545"
       cy="816.90698"
       cx="309.36545"
       gradientTransform="matrix(4.5697471,-0.00304895,0,4.2377637,-1400.2274,-3458.4132)"
       gradientUnits="userSpaceOnUse"
       id="radialGradient4373"
       xlink:href="#linearGradient6633"
       inkscape:collect="always" />
    <linearGradient
       id="linearGradient6633"
       inkscape:collect="always">
      <stop
         id="stop6635"
         offset="0"
         style="stop-color:#edd400;stop-opacity:1" />
      <stop
         id="stop6637"
         offset="1"
         style="stop-color:#c4a000;stop-opacity:1" />
    </linearGradient>
    <radialGradient
       inkscape:collect="always"
       xlink:href="#linearGradient6557-4"
       id="radialGradient4133"
       gradientUnits="userSpaceOnUse"
       cx="311.46875"
       cy="828.53125"
       fx="311.46875"
       fy="828.53125"
       r="3.28125" />
    <radialGradient
       inkscape:collect="always"
       xlink:href="#linearGradient6620-1"
       id="radialGradient4135"
       gradientUnits="userSpaceOnUse"
       gradientTransform="matrix(2.1730275,0,0,1.9594181,-672.25707,-1534.79)"
       cx="316.08578"
       cy="785.15662"
       fx="316.08578"
       fy="785.15662"
       r="5.4999967" />
    <radialGradient
       inkscape:collect="always"
       xlink:href="#linearGradient6633"
       id="radialGradient4137"
       gradientUnits="userSpaceOnUse"
       gradientTransform="matrix(4.5697471,-0.00304895,0,4.2377637,-1400.2274,-3458.4132)"
       cx="309.36545"
       cy="816.90698"
       fx="309.36545"
       fy="816.90698"
       r="5.2188735" />
    <linearGradient
       y2="10.349108"
       x2="29.440914"
       y1="27.801407"
       x1="29.440914"
       gradientTransform="matrix(0.49219581,0,0,0.45839231,-4.4906943,7.2669423)"
       gradientUnits="userSpaceOnUse"
       id="linearGradient3093"
       xlink:href="#outerBackgroundGradient-6-8"
       inkscape:collect="always" />
    <linearGradient
       id="outerBackgroundGradient-6-8">
      <stop
         style="stop-color:#c23021;stop-opacity:1;"
         offset="0"
         id="stop3864-8-6-0-5" />
      <stop
         style="stop-color:#e74c3c;stop-opacity:1;"
         offset="1"
         id="stop3866-9-1-7-0" />
    </linearGradient>
    <linearGradient
       inkscape:collect="always"
       id="linearGradient3952">
      <stop
         style="stop-color:#000000;stop-opacity:1;"
         offset="0"
         id="stop3954" />
      <stop
         style="stop-color:#000000;stop-opacity:0;"
         offset="1"
         id="stop3956" />
    </linearGradient>
    <linearGradient
       inkscape:collect="always"
       id="linearGradient3944">
      <stop
         style="stop-color:#000000;stop-opacity:1;"
         offset="0"
         id="stop3946" />
      <stop
         style="stop-color:#000000;stop-opacity:0;"
         offset="1"
         id="stop3948" />
    </linearGradient>
    <linearGradient
       id="linearGradient3960">
      <stop
         style="stop-color:#000000;stop-opacity:0;"
         offset="0"
         id="stop3962" />
      <stop
         id="stop3970"
         offset="0.5"
         style="stop-color:#000000;stop-opacity:1;" />
      <stop
         style="stop-color:#000000;stop-opacity:0;"
         offset="1"
         id="stop3964" />
    </linearGradient>
    <linearGradient
       y2="42"
       x2="25"
       y1="45"
       x1="25"
       gradientTransform="translate(-4.0000003,0)"
       gradientUnits="userSpaceOnUse"
       id="linearGradient3196"
       xlink:href="#linearGradient3960"
       inkscape:collect="always" />
    <linearGradient
       id="linearGradient3251">
      <stop
         style="stop-color:#000000;stop-opacity:0;"
         offset="0"
         id="stop3253" />
      <stop
         id="stop3255"
         offset="0.5"
         style="stop-color:#000000;stop-opacity:1;" />
      <stop
         style="stop-color:#000000;stop-opacity:0;"
         offset="1"
         id="stop3257" />
    </linearGradient>
    <linearGradient
       id="linearGradient6557-4-7">
      <stop
         style="stop-color:#fce94f;stop-opacity:1;"
         offset="0"
         id="stop6559-2-6" />
      <stop
         id="stop6565-2-5"
         offset="0.67301035"
         style="stop-color:#fce94f;stop-opacity:1" />
      <stop
         style="stop-color:#fce94f;stop-opacity:0;"
         offset="1"
         id="stop6561-7-6" />
    </linearGradient>
    <radialGradient
       inkscape:collect="always"
       xlink:href="#linearGradient6620-1-2"
       id="radialGradient4270"
       gradientUnits="userSpaceOnUse"
       gradientTransform="matrix(2.1730275,0,0,1.9594181,-672.25707,-1534.79)"
       cx="316.08578"
       cy="785.15662"
       fx="316.08578"
       fy="785.15662"
       r="5.4999967" />
    <linearGradient
       id="linearGradient6620-1-2">
      <stop
         id="stop6622-7-6"
         offset="0"
         style="stop-color:#ffffff;stop-opacity:1" />
      <stop
         style="stop-color:#ffffff;stop-opacity:1"
         offset="0.32992947"
         id="stop6624-4-2" />
      <stop
         id="stop6626-5-6"
         offset="1"
         style="stop-color:#fce94f;stop-opacity:1" />
    </linearGradient>
    <radialGradient
       inkscape:collect="always"
       xlink:href="#linearGradient6633-1"
       id="radialGradient4272"
       gradientUnits="userSpaceOnUse"
       gradientTransform="matrix(4.5697471,-0.00304895,0,4.2377637,-1400.2274,-3458.4132)"
       cx="309.36545"
       cy="816.90698"
       fx="309.36545"
       fy="816.90698"
       r="5.2188735" />
    <linearGradient
       id="linearGradient6633-1"
       inkscape:collect="always">
      <stop
         id="stop6635-2"
         offset="0"
         style="stop-color:#edd400;stop-opacity:1" />
      <stop
         id="stop6637-5"
         offset="1"
         style="stop-color:#c4a000;stop-opacity:1" />
    </linearGradient>
    <linearGradient
       inkscape:collect="always"
       xlink:href="#linearGradient3960"
       id="linearGradient4733"
       gradientUnits="userSpaceOnUse"
       gradientTransform="translate(-8,2.999999)"
       x1="25"
       y1="45"
       x2="25"
       y2="42" />
    <radialGradient
       inkscape:collect="always"
       xlink:href="#linearGradient3944"
       id="radialGradient4736"
       gradientUnits="userSpaceOnUse"
       gradientTransform="matrix(1,0,0,0.75,-7,13.874999)"
       cx="9"
       cy="43.5"
       fx="9"
       fy="43.5"
       r="2" />
    <radialGradient
       inkscape:collect="always"
       xlink:href="#linearGradient3952"
       id="radialGradient4739"
       gradientUnits="userSpaceOnUse"
       gradientTransform="matrix(1,0,0,0.75,-20,13.874999)"
       cx="40"
       cy="43.5"
       fx="40"
       fy="43.5"
       r="2" />
    <linearGradient
       y2="10.349108"
       x2="29.440914"
       y1="27.801407"
       x1="29.440914"
       gradientTransform="matrix(0.49219581,0,0,0.45839231,-4.4906943,7.2669423)"
       gradientUnits="userSpaceOnUse"
       id="linearGradient3093-7"
       xlink:href="#outerBackgroundGradient-6-8-4"
       inkscape:collect="always" />
    <linearGradient
       id="outerBackgroundGradient-6-8-4">
      <stop
         style="stop-color:#c23021;stop-opacity:1;"
         offset="0"
         id="stop3864-8-6-0-5-4" />
      <stop
         style="stop-color:#e74c3c;stop-opacity:1;"
         offset="1"
         id="stop3866-9-1-7-0-3" />
    </linearGradient>
    <linearGradient
       y2="10.349108"
       x2="29.440914"
       y1="27.801407"
       x1="29.440914"
       gradientTransform="matrix(0.49219581,0,0,0.45839231,-4.4906943,7.266674)"
       gradientUnits="userSpaceOnUse"
       id="linearGradient3067"
       xlink:href="#outerBackgroundGradient-6-8-4"
       inkscape:collect="always" />
  </defs>
  <sodipodi:namedview
     id="base"
     pagecolor="#ffffff"
     bordercolor="#666666"
     borderopacity="1.0"
     inkscape:pageopacity="0.0"
     inkscape:pageshadow="2"
     inkscape:zoom="1"
     inkscape:cx="15.504606"
     inkscape:cy="3.6609741"
     inkscape:current-layer="layer2"
     showgrid="false"
     showborder="false"
     inkscape:grid-bbox="true"
     inkscape:document-units="px"
     inkscape:window-width="1364"
     inkscape:window-height="700"
     inkscape:window-x="0"
     inkscape:window-y="28"
     inkscape:window-maximized="1"
     inkscape:snap-bbox="true"
     inkscape:bbox-paths="true"
     inkscape:bbox-nodes="true"
     inkscape:snap-bbox-edge-midpoints="false">
    <inkscape:grid
       type="xygrid"
       id="grid3512"
       empspacing="4"
       visible="true"
       enabled="true"
       snapvisiblegridlinesonly="true"
       dotted="false" />
    <inkscape:grid
       type="xygrid"
       id="grid3022"
       empspacing="5"
       visible="true"
       enabled="true"
       snapvisiblegridlinesonly="true"
       dotted="true"
       spacingx="0.5px"
       spacingy="0.5px" />
  </sodipodi:namedview>
  <metadata
     id="metadata3500">
    <rdf:RDF>
      <cc:Work
         rdf:about="">
        <dc:format>image/svg+xml</dc:format>
        <dc:type
           rdf:resource="http://purl.org/dc/dcmitype/StillImage" />
        <dc:title></dc:title>
      </cc:Work>
    </rdf:RDF>
  </metadata>
  <g
     id="layer1"
     inkscape:label="Background"
     inkscape:groupmode="layer"
     transform="translate(0,-26)">
    <g
       id="g4741">
      <path
         inkscape:connector-curvature="0"
         id="rect3940"
         d="m 20,44.999999 0,3 0.5,0 c 0.831,0 1.5,-0.669 1.5,-1.5 0,-0.831 -0.669,-1.5 -1.5,-1.5 l -0.5,0 z"
         style="opacity:0.3;fill:url(#radialGradient4739);fill-opacity:1;stroke:none" />
      <path
         inkscape:connector-curvature="0"
         id="rect3942"
         d="M 1.40625,44.999999 C 0.6271875,44.999999 0,45.627186 0,46.406249 l 0,0.1875 c 0,0.779063 0.6271875,1.40625 1.40625,1.40625 l 0.59375,0 0,-3 -0.59375,0 z"
         style="opacity:0.3;fill:url(#radialGradient4736);fill-opacity:1;stroke:none" />
      <path
         sodipodi:nodetypes="ccccc"
         inkscape:connector-curvature="0"
         id="rect3938"
         d="M 1.9998571,44.999999 20,45 l 0,3 -18.0001429,-10e-7 z"
         style="opacity:0.3;fill:url(#linearGradient4733);fill-opacity:1;stroke:none" />
    </g>
    <path
       style="fill:url(#linearGradient3869);fill-opacity:1;stroke:none"
       d="m 1.5,6 0,13.5 c 0,1 1,1 1,1 l 17,0 c 0,0 1,0 1,-1 L 20.5,6 z"
       transform="translate(0,26)"
       id="rect3847"
       inkscape:connector-curvature="0"
       sodipodi:nodetypes="csccscc" />
    <path
       style="fill:url(#linearGradient3911);fill-opacity:1;stroke:none"
       d="m 2.5,1.5 c -1,0 -1,1 -1,1 l 0,3.5 19,0 0,-3.5 c 0,0 0,-1 -1,-1 z"
       transform="translate(0,26)"
       id="path3909"
       inkscape:connector-curvature="0"
       sodipodi:nodetypes="sccccss" />
    <g
       id="g3925"
       transform="translate(1,0)">
      <path
         d="M 10,9 C 10,9.5522847 9.5522847,10 9,10 8.4477153,10 8,9.5522847 8,9 8,8.4477153 8.4477153,8 9,8 c 0.5522847,0 1,0.4477153 1,1 z"
         sodipodi:ry="1"
         sodipodi:rx="1"
         sodipodi:cy="9"
         sodipodi:cx="9"
         id="path3863"
         style="opacity:0.2;fill:#ffffff;fill-opacity:1;stroke:none"
         sodipodi:type="arc"
         transform="matrix(0.5,0,0,0.5,-1,26)" />
      <path
         transform="matrix(0.5,0,0,0.5,-1,25)"
         sodipodi:type="arc"
         style="fill:#ad3125;fill-opacity:1;stroke:none"
         id="path3859"
         sodipodi:cx="9"
         sodipodi:cy="9"
         sodipodi:rx="1"
         sodipodi:ry="1"
         d="M 10,9 C 10,9.5522847 9.5522847,10 9,10 8.4477153,10 8,9.5522847 8,9 8,8.4477153 8.4477153,8 9,8 c 0.5522847,0 1,0.4477153 1,1 z" />
    </g>
    <rect
       style="fill:#ad3125;fill-opacity:1;stroke:none"
       id="rect3921"
       width="19"
       height="1"
       x="1.5"
       y="31"
       rx="0"
       ry="1" />
    <rect
       ry="1"
       rx="0"
       y="32"
       x="1.5"
       height="1"
       width="19"
       id="rect3923"
       style="opacity:0.4;fill:#ffffff;fill-opacity:1;stroke:none" />
    <path
       style="fill:#ffffff;fill-opacity:1;stroke:none;opacity:0.1"
       d="M 2.5 2 C 2.1666667 2 2.1278715 2.088007 2.0625 2.21875 C 1.99713 2.349493 2 2.5 2 2.5 L 2 6 L 2 19.5 C 2 19.833333 2.088007 19.872128 2.21875 19.9375 C 2.349493 20.0029 2.5 20 2.5 20 L 19.5 20 C 19.5 20 19.650507 20.002872 19.78125 19.9375 C 19.91199 19.872128 20 19.833333 20 19.5 L 20 6 L 20 2.5 C 20 2.5 20.002872 2.349493 19.9375 2.21875 C 19.872128 2.08801 19.833333 2 19.5 2 L 2.5 2 z M 3 3 L 19 3 L 19 19 L 3 19 L 3 3 z "
       transform="translate(0,26)"
       id="path3818" />
    <g
       transform="translate(14,0)"
       id="g3929">
      <path
         transform="matrix(0.5,0,0,0.5,-1,26)"
         sodipodi:type="arc"
         style="opacity:0.2;fill:#ffffff;fill-opacity:1;stroke:none"
         id="path3931"
         sodipodi:cx="9"
         sodipodi:cy="9"
         sodipodi:rx="1"
         sodipodi:ry="1"
         d="M 10,9 C 10,9.5522847 9.5522847,10 9,10 8.4477153,10 8,9.5522847 8,9 8,8.4477153 8.4477153,8 9,8 c 0.5522847,0 1,0.4477153 1,1 z" />
      <path
         d="M 10,9 C 10,9.5522847 9.5522847,10 9,10 8.4477153,10 8,9.5522847 8,9 8,8.4477153 8.4477153,8 9,8 c 0.5522847,0 1,0.4477153 1,1 z"
         sodipodi:ry="1"
         sodipodi:rx="1"
         sodipodi:cy="9"
         sodipodi:cx="9"
         id="path3933"
         style="fill:#ad3125;fill-opacity:1;stroke:none"
         sodipodi:type="arc"
         transform="matrix(0.5,0,0,0.5,-1,25)" />
    </g>
    <path
       style="font-size:medium;font-style:normal;font-variant:normal;font-weight:normal;font-stretch:normal;text-indent:0;text-align:start;text-decoration:none;line-height:normal;letter-spacing:normal;word-spacing:normal;text-transform:none;direction:ltr;block-progression:tb;writing-mode:lr-tb;text-anchor:start;baseline-shift:baseline;opacity:0.61000001000000004;color:#000000;fill:#8f0202;fill-opacity:1;stroke:none;stroke-width:1;marker:none;visibility:visible;display:inline;overflow:visible;enable-background:accumulate;font-family:Sans;-inkscape-font-specification:Sans"
       d="M 2.5 1 C 1.8333333 1 1.3721285 1.411993 1.1875 1.78125 C 1.0028715 2.150507 1 2.5 1 2.5 L 1 6 L 2 6 L 2 2.5 C 2 2.5 1.99713 2.349493 2.0625 2.21875 C 2.1278715 2.088007 2.1666667 2 2.5 2 L 19.5 2 C 19.833333 2 19.872128 2.08801 19.9375 2.21875 C 20.002872 2.349493 20 2.5 20 2.5 L 20 6 L 21 6 L 21 2.5 C 21 2.5 20.9971 2.150507 20.8125 1.78125 C 20.627872 1.411993 20.166667 1 19.5 1 L 2.5 1 z "
       transform="translate(0,26)"
       id="path3024" />
    <path
       style="fill:#ffffff;fill-opacity:1;stroke:none;opacity:0.1"
       d="M 2.5 2 C 2.1666667 2 2.1278715 2.088007 2.0625 2.21875 C 1.99713 2.349493 2 2.5 2 2.5 L 2 3.40625 C 2.0074537 3.3522804 2.029815 3.2841215 2.0625 3.21875 C 2.1278715 3.08801 2.1666667 3 2.5 3 L 19.5 3 C 19.833333 3 19.87213 3.08801 19.9375 3.21875 C 19.9702 3.2841215 19.99255 3.3522804 20 3.40625 L 20 2.5 C 20 2.5 20.002872 2.349493 19.9375 2.21875 C 19.872128 2.08801 19.833333 2 19.5 2 L 2.5 2 z "
       transform="translate(0,26)"
       id="path3799" />
    <path
       style="font-size:medium;font-style:normal;font-variant:normal;font-weight:normal;font-stretch:normal;text-indent:0;text-align:start;text-decoration:none;line-height:normal;letter-spacing:normal;word-spacing:normal;text-transform:none;direction:ltr;block-progression:tb;writing-mode:lr-tb;text-anchor:start;baseline-shift:baseline;opacity:0.41;color:#000000;fill:#000000;fill-opacity:1;stroke:none;stroke-width:1;marker:none;visibility:visible;display:inline;overflow:visible;enable-background:accumulate;font-family:Sans;-inkscape-font-specification:Sans"
       d="M 1 6 L 1 19.5 C 1 20.166667 1.411993 20.627872 1.78125 20.8125 C 2.150507 20.997128 2.5 21 2.5 21 L 19.5 21 C 19.5 21 19.849493 20.9971 20.21875 20.8125 C 20.588007 20.627872 21 20.166667 21 19.5 L 21 6 L 20 6 L 20 19.5 C 20 19.833333 19.91199 19.872128 19.78125 19.9375 C 19.650507 20.002872 19.5 20 19.5 20 L 2.5 20 C 2.5 20 2.349493 20.0029 2.21875 19.9375 C 2.088007 19.872128 2 19.833333 2 19.5 L 2 6 L 1 6 z "
       transform="translate(0,26)"
       id="path3992" />
  </g>
  <g
     inkscape:groupmode="layer"
     id="layer2"
     inkscape:label="Symbol">
    <path
       sodipodi:nodetypes="ccccccccccccccccccccccccccccccccccccccccccccccccccccccccccccccccccccccccccccccccccccccccccccccccccccccccccccccccc"
       inkscape:connector-curvature="0"
       id="path3947"
       d="m 4,36 0,0.5 0,8 0,0.5 0.5,0 13,0 0.5,0 0,-0.5 0,-8 0,-0.5 -0.5,0 -13,0 z m 1,1 1.5,0 0,1 -1.5,0 z m 2.5,0 1.5,0 0,1 -1.5,0 z m 2.5,0 1.59375,0 0,1 L 10,38 z m 2.59375,0 1.390625,0 0,1 -1.390625,0 z M 15,37 l 2,0 0,1 -2,0 z m -10,2 1.5,0 0,1 -1.5,0 z m 2.5,0 1.5,0 0,1 -1.5,0 z m 2.5,0 1.59375,0 0,1 L 10,40 z m 2.59375,0 1.390625,0 0,1 -1.390625,0 z M 15,39 l 2,0 0,1 -2,0 z m -10,2 1.5,0 0,1 -1.5,0 z m 2.5,0 1.5,0 0,1 -1.5,0 z m 2.5,0 1.625,0 0,1 L 10,42 z m 2.625,0 1.390625,0 0,1 -1.390625,0 z m 2.40625,0 1.96875,0 0,1 -1.96875,0 z M 5,43 l 1.5,0 0,1 -1.5,0 z m 2.5,0 1.5,0 0,1 -1.5,0 z m 2.5,0 1.625,0 0,1 L 10,44 z m 2.625,0 1.390625,0 0,1 -1.390625,0 z m 2.40625,0 1.96875,0 0,1 -1.96875,0 z"
       style="font-size:medium;font-style:normal;font-variant:normal;font-weight:normal;font-stretch:normal;text-indent:0;text-align:start;text-decoration:none;line-height:normal;letter-spacing:normal;word-spacing:normal;text-transform:none;direction:ltr;block-progression:tb;writing-mode:lr-tb;text-anchor:start;baseline-shift:baseline;opacity:0.20000000000000001;color:#000000;fill:#ffffff;fill-opacity:1;stroke:none;stroke-width:0.99999994000000003;marker:none;visibility:visible;display:inline;overflow:visible;enable-background:accumulate;font-family:Sans;-inkscape-font-specification:Sans"
       transform="translate(0,-26)" />
    <rect
       style="fill:#969696;fill-opacity:1;stroke:none"
       id="rect4347"
       width="4"
       height="3"
       x="14"
       y="13" />
    <path
       style="font-size:medium;font-style:normal;font-variant:normal;font-weight:normal;font-stretch:normal;text-indent:0;text-align:start;text-decoration:none;line-height:normal;letter-spacing:normal;word-spacing:normal;text-transform:none;direction:ltr;block-progression:tb;writing-mode:lr-tb;text-anchor:start;baseline-shift:baseline;opacity:0.20000000000000001;color:#000000;fill:#000000;fill-opacity:1;stroke:none;stroke-width:0.99999994000000003;marker:none;visibility:visible;display:inline;overflow:visible;enable-background:accumulate;font-family:Sans;-inkscape-font-specification:Sans"
       d="m 4,35 0,0.5 0,8 0,0.5 0.5,0 13,0 0.5,0 0,-0.5 0,-8 0,-0.5 -0.5,0 -13,0 z m 1,1 1.5,0 0,1 -1.5,0 z m 2.5,0 1.5,0 0,1 -1.5,0 z m 2.5,0 1.59375,0 0,1 L 10,37 z m 2.59375,0 1.390625,0 0,1 -1.390625,0 z M 15,36 l 2,0 0,1 -2,0 z m -10,2 1.5,0 0,1 -1.5,0 z m 2.5,0 1.5,0 0,1 -1.5,0 z m 2.5,0 1.59375,0 0,1 L 10,39 z m 2.59375,0 1.390625,0 0,1 -1.390625,0 z M 15,38 l 2,0 0,1 -2,0 z m -10,2 1.5,0 0,1 -1.5,0 z m 2.5,0 1.5,0 0,1 -1.5,0 z m 2.5,0 1.625,0 0,1 L 10,41 z m 2.625,0 1.390625,0 0,1 -1.390625,0 z m 2.40625,0 1.96875,0 0,1 -1.96875,0 z M 5,42 l 1.5,0 0,1 -1.5,0 z m 2.5,0 1.5,0 0,1 -1.5,0 z m 2.5,0 1.625,0 0,1 L 10,43 z m 2.625,0 1.390625,0 0,1 -1.390625,0 z m 2.40625,0 1.96875,0 0,1 -1.96875,0 z"
       id="path3063"
       inkscape:connector-curvature="0"
       sodipodi:nodetypes="ccccccccccccccccccccccccccccccccccccccccccccccccccccccccccccccccccccccccccccccccccccccccccccccccccccccccccccccccc"
       transform="translate(0,-26)" />
    <path
       inkscape:connector-curvature="0"
       style="color:#000000;fill:url(#linearGradient3067);fill-opacity:1;fill-rule:nonzero;stroke:none;stroke-width:0.96392483;marker:none;visibility:visible;display:block;overflow:visible;enable-background:accumulate"
       id="path3288-2-2"
       d="m 6.5,20.282 7,-5.673017 -7,-5.696018 0,3.647424 -6,0 0,4 6,0 z" />
    <path
       inkscape:connector-curvature="0"
       style="opacity:0.81000001;color:#000000;fill:none;stroke:#ad3125;stroke-width:1;stroke-linecap:butt;stroke-linejoin:miter;stroke-miterlimit:7;stroke-opacity:1;stroke-dasharray:none;stroke-dashoffset:0;marker:none;visibility:visible;display:block;overflow:visible;enable-background:accumulate"
       id="path3288-2-2-80"
       d="m 6.5,20.282 7,-5.673017 -7,-5.696018 0,3.647424 -6,0 0,4 6,0 z" />
    <path
       style="opacity:0.4;color:#000000;fill:#ffffff;fill-opacity:1;fill-rule:nonzero;stroke:none;stroke-width:0.96392483;marker:none;visibility:visible;display:block;overflow:visible;enable-background:accumulate"
       d="m 7,9.968482 0,1 5.09375,4.15625 0.625,-0.5 z m -6,3.09375 0,0.9375 5.5,0 0.5,0 0,-0.4375 0,-0.5 -0.5,0 z"
       id="path3992-0"
       inkscape:connector-curvature="0"
       sodipodi:nodetypes="ccccccccccccc" />
  </g>
</svg>
