<?xml version="1.0" encoding="UTF-8" standalone="no"?>
<!-- Created with Inkscape (http://www.inkscape.org/) -->

<svg
   xmlns:dc="http://purl.org/dc/elements/1.1/"
   xmlns:cc="http://creativecommons.org/ns#"
   xmlns:rdf="http://www.w3.org/1999/02/22-rdf-syntax-ns#"
   xmlns:svg="http://www.w3.org/2000/svg"
   xmlns="http://www.w3.org/2000/svg"
   xmlns:xlink="http://www.w3.org/1999/xlink"
   xmlns:sodipodi="http://sodipodi.sourceforge.net/DTD/sodipodi-0.dtd"
   xmlns:inkscape="http://www.inkscape.org/namespaces/inkscape"
   width="22"
   height="22"
   id="svg3495"
   version="1.1"
   inkscape:version="0.48.4 r9939"
   sodipodi:docname="format-text-italic.svg">
  <defs
     id="defs3497">
    <clipPath
       clipPathUnits="userSpaceOnUse"
       id="clipPath3669">
      <path
         inkscape:connector-curvature="0"
         d="M 0,96 96,96 96,0 0,0 0,96 z"
         id="path3671" />
    </clipPath>
    <linearGradient
       inkscape:collect="always"
       xlink:href="#linearGradient3821"
       id="linearGradient3793"
       x1="12"
       y1="22"
       x2="12"
       y2="-2"
       gradientUnits="userSpaceOnUse"
       gradientTransform="translate(0,26)" />
    <linearGradient
       id="linearGradient3821">
      <stop
         style="stop-color:#555555;stop-opacity:1;"
         offset="0"
         id="stop3823" />
      <stop
         style="stop-color:#666666;stop-opacity:1;"
         offset="1"
         id="stop3825" />
    </linearGradient>
    <linearGradient
       y2="-2"
       x2="12"
       y1="22"
       x1="12"
       gradientTransform="translate(158.75,53.484375)"
       gradientUnits="userSpaceOnUse"
       id="linearGradient3011"
       xlink:href="#linearGradient3821"
       inkscape:collect="always" />
    <linearGradient
       inkscape:collect="always"
       xlink:href="#linearGradient3821"
       id="linearGradient3800"
       x1="12"
       y1="22"
       x2="12"
       y2="0"
       gradientUnits="userSpaceOnUse" />
  </defs>
  <sodipodi:namedview
     id="base"
     pagecolor="#ffffff"
     bordercolor="#666666"
     borderopacity="1.0"
     inkscape:pageopacity="0.0"
     inkscape:pageshadow="2"
     inkscape:zoom="1"
     inkscape:cx="23.007424"
     inkscape:cy="9.9038188"
     inkscape:current-layer="layer1"
     showgrid="false"
     inkscape:grid-bbox="true"
     inkscape:document-units="px"
     inkscape:window-width="1364"
     inkscape:window-height="700"
     inkscape:window-x="0"
     inkscape:window-y="28"
     inkscape:window-maximized="1"
     inkscape:snap-bbox="true"
     inkscape:bbox-paths="true"
     inkscape:bbox-nodes="true"
     inkscape:snap-bbox-edge-midpoints="false"
     showguides="true"
     inkscape:guide-bbox="true">
    <inkscape:grid
       type="xygrid"
       id="grid3512"
       empspacing="4"
       visible="true"
       enabled="true"
       snapvisiblegridlinesonly="true"
       dotted="false" />
  </sodipodi:namedview>
  <metadata
     id="metadata3500">
    <rdf:RDF>
      <cc:Work
         rdf:about="">
        <dc:format>image/svg+xml</dc:format>
        <dc:type
           rdf:resource="http://purl.org/dc/dcmitype/StillImage" />
        <dc:title />
      </cc:Work>
    </rdf:RDF>
  </metadata>
  <g
     id="layer1"
     inkscape:label="Layer 1"
     inkscape:groupmode="layer"
     transform="translate(0,-26)">
    <path
       style="font-style:normal;font-variant:normal;font-weight:normal;font-stretch:normal;text-indent:0;text-align:start;text-decoration:none;line-height:normal;letter-spacing:normal;word-spacing:normal;text-transform:none;direction:ltr;block-progression:tb;writing-mode:lr-tb;text-anchor:start;baseline-shift:baseline;color:#000000;fill:#555555;fill-opacity:1;stroke:none;stroke-width:2;marker:none;visibility:visible;display:inline;overflow:visible;enable-background:accumulate;font-family:Sans;-inkscape-font-specification:Sans"
       d="M 6.5 2.5 L 6.5 3 L 6.5 6 L 6.5 6.5 L 7 6.5 L 16 6.5 C 16.217058 6.5 16.240181 6.54724 16.25 6.5625 C 16.2598 6.57776 16.29061 6.678153 16.21875 6.9375 L 15.8125 8.5 L 8.3125 8.5 C 5.3095009 8.5 3.2092906 10.705015 2.59375 13 C 2.285578 14.148982 2.2978309 15.471009 3 16.625 C 3.7270099 17.819816 5.1722884 18.500002 6.6875 18.5 L 15.6875 18.5 C 17.09874 18.49998 17.59375 17.09375 17.59375 17.09375 L 17.59375 17.0625 L 20.09375 8.0625 C 20.831932 5.398368 18.860035 2.5 16 2.5 L 7 2.5 L 6.5 2.5 z M 8.3125 12.5 L 14.6875 12.5 L 14.125 14.5 L 6.6875 14.5 C 6.4716469 14.5 6.421816 14.47116 6.40625 14.46875 C 6.40087 14.45052 6.40844 14.48616 6.40625 14.4375 C 6.4018726 14.340179 6.389688 14.178224 6.4375 14 C 6.6287002 13.287162 7.30098 12.5 8.3125 12.5 z "
       transform="translate(0,26)"
       id="path11643-3-5" />
    <path
       id="path3791"
       transform="translate(0,26)"
       d="M 6.5 2.5 L 6.5 3 L 6.5 6 L 6.5 6.5 L 7 6.5 L 16 6.5 C 16.217058 6.5 16.240181 6.54724 16.25 6.5625 C 16.2598 6.57776 16.29061 6.678153 16.21875 6.9375 L 15.8125 8.5 L 8.3125 8.5 C 5.3095009 8.5 3.2092906 10.705015 2.59375 13 C 2.285578 14.148982 2.2978309 15.471009 3 16.625 C 3.7270099 17.819816 5.1722884 18.500002 6.6875 18.5 L 15.6875 18.5 C 17.09874 18.49998 17.59375 17.09375 17.59375 17.09375 L 17.59375 17.0625 L 20.09375 8.0625 C 20.831932 5.398368 18.860035 2.5 16 2.5 L 7 2.5 L 6.5 2.5 z M 8.3125 12.5 L 14.6875 12.5 L 14.125 14.5 L 6.6875 14.5 C 6.4716469 14.5 6.421816 14.47116 6.40625 14.46875 C 6.40087 14.45052 6.40844 14.48616 6.40625 14.4375 C 6.4018726 14.340179 6.389688 14.178224 6.4375 14 C 6.6287002 13.287162 7.30098 12.5 8.3125 12.5 z "
       style="font-style:normal;font-variant:normal;font-weight:normal;font-stretch:normal;text-indent:0;text-align:start;text-decoration:none;line-height:normal;letter-spacing:normal;word-spacing:normal;text-transform:none;direction:ltr;block-progression:tb;writing-mode:lr-tb;text-anchor:start;baseline-shift:baseline;color:#000000;fill:url(#linearGradient3800);fill-opacity:1;stroke:#000000;stroke-width:1;marker:none;visibility:visible;display:inline;overflow:visible;enable-background:accumulate;font-family:Sans;-inkscape-font-specification:Sans;stroke-opacity:1;stroke-miterlimit:4;stroke-dasharray:none;opacity:0.60999999999999999" />
    <path
       style="font-style:normal;font-variant:normal;font-weight:normal;font-stretch:normal;text-indent:0;text-align:start;text-decoration:none;line-height:normal;letter-spacing:normal;word-spacing:normal;text-transform:none;direction:ltr;block-progression:tb;writing-mode:lr-tb;text-anchor:start;baseline-shift:baseline;color:#000000;fill:#ffffff;fill-opacity:1;stroke:none;stroke-width:2;marker:none;visibility:visible;display:inline;overflow:visible;enable-background:accumulate;font-family:Sans;-inkscape-font-specification:Sans;opacity:0.2"
       d="M 7 3 L 7 4 L 16 4 C 17.988264 4 19.487343 5.6047761 19.71875 7.4375 C 20.012943 5.2348321 18.342189 3 16 3 L 7 3 z M 16.625 7.25 L 16.28125 8.625 L 16.1875 9 L 15.8125 9 L 8.3125 9 C 5.5542579 9 3.6250799 11.027474 3.0625 13.125 C 2.9155216 13.672991 2.8736725 14.267229 2.9375 14.84375 C 2.9655598 14.602062 3.0002477 14.3571 3.0625 14.125 C 3.6250799 12.027474 5.5542579 10 8.3125 10 L 15.8125 10 L 16.1875 10 L 16.28125 9.625 L 16.6875 8.0625 C 16.73277 7.899107 16.74989 7.772773 16.75 7.65625 C 16.750054 7.59799 16.76094 7.5543 16.75 7.5 C 16.73906 7.4457 16.72903 7.394578 16.65625 7.28125 C 16.66115 7.2888692 16.629758 7.2610822 16.625 7.25 z M 15.0625 13 L 14.59375 14.625 L 14.5 15 L 14.125 15 L 6.6875 15 C 6.5830707 15 6.5066609 14.980457 6.4375 14.96875 C 6.43494 14.97774 6.4399 14.991 6.4375 15 C 6.389688 15.178224 6.4018726 15.340179 6.40625 15.4375 L 6.40625 15.46875 L 5.90625 15.4375 C 5.9063398 15.443 5.9062945 15.46974 5.90625 15.46875 C 5.91011 15.50579 5.9062376 15.593701 5.90625 15.59375 C 5.906269 15.59382 5.93092 15.60525 5.9375 15.625 C 5.94014 15.6323 5.9375826 15.65643 5.9375 15.65625 C 5.937527 15.65632 5.96089 15.67261 5.96875 15.6875 C 5.97395 15.696 5.96255 15.70862 5.96875 15.71875 L 6 15.75 C 6.00396 15.7565 6.000005 15.78126 6 15.78125 L 6.03125 15.90625 L 6.28125 15.96875 C 6.29688 15.97335 6.319755 15.96335 6.34375 15.96875 C 6.355748 15.97145 6.361907 15.96635 6.375 15.96875 C 6.38106 15.97035 6.406243 15.96875 6.40625 15.96875 C 6.4803334 15.98054 6.5701958 16 6.6875 16 L 14.125 16 L 14.5 16 L 14.59375 15.625 L 15.15625 13.625 L 15.34375 13 L 15.0625 13 z M 6.40625 13.96875 C 6.2937405 14.118722 6.2016294 14.274868 6.125 14.4375 L 6.40625 14.46875 L 6.40625 14.4375 C 6.4018726 14.340179 6.389688 14.178224 6.4375 14 C 6.4399041 13.991037 6.434944 13.977735 6.4375 13.96875 C 6.4244951 13.969462 6.4062428 13.96875 6.40625 13.96875 z M 6 14.78125 C 5.9904553 14.811973 5.9769641 14.844376 5.96875 14.875 C 5.918976 15.060538 5.935012 15.166831 5.9375 15.28125 C 5.937439 15.2814 6.000062 15.18741 6 15.1875 C 5.9999378 15.187593 6.1250626 15.062458 6.125 15.0625 C 6.1249499 15.062536 6.2760553 14.992354 6.34375 14.96875 C 6.319755 14.96335 6.29688 14.97335 6.28125 14.96875 L 6.03125 14.90625 L 6 14.78125 z "
       transform="translate(0,26)"
       id="path3802" />
  </g>
</svg>
