<?xml version="1.0" encoding="UTF-8" standalone="no"?>
<!-- Created with Inkscape (http://www.inkscape.org/) -->

<svg
   xmlns:dc="http://purl.org/dc/elements/1.1/"
   xmlns:cc="http://creativecommons.org/ns#"
   xmlns:rdf="http://www.w3.org/1999/02/22-rdf-syntax-ns#"
   xmlns:svg="http://www.w3.org/2000/svg"
   xmlns="http://www.w3.org/2000/svg"
   xmlns:xlink="http://www.w3.org/1999/xlink"
   xmlns:sodipodi="http://sodipodi.sourceforge.net/DTD/sodipodi-0.dtd"
   xmlns:inkscape="http://www.inkscape.org/namespaces/inkscape"
   width="22"
   height="22"
   id="svg3495"
   version="1.1"
   inkscape:version="0.48.4 r9939"
   sodipodi:docname="go-last.svg">
  <defs
     id="defs3497">
    <linearGradient
       id="linearGradient3821">
      <stop
         style="stop-color:#555555;stop-opacity:1;"
         offset="0"
         id="stop3823" />
      <stop
         style="stop-color:#666666;stop-opacity:1;"
         offset="1"
         id="stop3825" />
    </linearGradient>
    <linearGradient
       inkscape:collect="always"
       xlink:href="#linearGradient3821"
       id="linearGradient3795"
       x1="22.000002"
       y1="46"
       x2="1e-06"
       y2="46"
       gradientUnits="userSpaceOnUse" />
    <linearGradient
       inkscape:collect="always"
       xlink:href="#linearGradient3821"
       id="linearGradient3809"
       gradientUnits="userSpaceOnUse"
       x1="22.000002"
       y1="46"
       x2="1e-06"
       y2="46" />
    <linearGradient
       inkscape:collect="always"
       xlink:href="#linearGradient3821"
       id="linearGradient3811"
       gradientUnits="userSpaceOnUse"
       x1="22.000002"
       y1="46"
       x2="1e-06"
       y2="46" />
    <linearGradient
       inkscape:collect="always"
       xlink:href="#linearGradient3821"
       id="linearGradient3822"
       gradientUnits="userSpaceOnUse"
       x1="22.000002"
       y1="46"
       x2="1e-06"
       y2="46" />
    <linearGradient
       inkscape:collect="always"
       xlink:href="#linearGradient3821"
       id="linearGradient3825"
       gradientUnits="userSpaceOnUse"
       x1="22.000002"
       y1="46"
       x2="1e-06"
       y2="46" />
    <linearGradient
       inkscape:collect="always"
       xlink:href="#linearGradient3821"
       id="linearGradient3831"
       gradientUnits="userSpaceOnUse"
       x1="22.000002"
       y1="46"
       x2="1e-06"
       y2="46" />
    <linearGradient
       inkscape:collect="always"
       xlink:href="#linearGradient3821"
       id="linearGradient3873"
       gradientUnits="userSpaceOnUse"
       gradientTransform="matrix(0,-0.7556794,0.7556794,0,3.021018,34.039623)"
       x1="-18.473942"
       y1="25.115124"
       x2="10.638933"
       y2="25.115124" />
  </defs>
  <sodipodi:namedview
     id="base"
     pagecolor="#ffffff"
     bordercolor="#666666"
     borderopacity="1.0"
     inkscape:pageopacity="0.0"
     inkscape:pageshadow="2"
     inkscape:zoom="1"
     inkscape:cx="11.197272"
     inkscape:cy="14.013439"
     inkscape:current-layer="layer1"
     showgrid="true"
     inkscape:grid-bbox="true"
     inkscape:document-units="px"
     inkscape:window-width="1364"
     inkscape:window-height="700"
     inkscape:window-x="0"
     inkscape:window-y="28"
     inkscape:window-maximized="1"
     inkscape:snap-bbox="true"
     inkscape:bbox-paths="true"
     inkscape:bbox-nodes="true"
     inkscape:snap-bbox-edge-midpoints="false">
    <inkscape:grid
       type="xygrid"
       id="grid3512"
       empspacing="4"
       visible="true"
       enabled="true"
       snapvisiblegridlinesonly="true"
       dotted="false" />
  </sodipodi:namedview>
  <metadata
     id="metadata3500">
    <rdf:RDF>
      <cc:Work
         rdf:about="">
        <dc:format>image/svg+xml</dc:format>
        <dc:type
           rdf:resource="http://purl.org/dc/dcmitype/StillImage" />
        <dc:title></dc:title>
      </cc:Work>
    </rdf:RDF>
  </metadata>
  <g
     id="layer1"
     inkscape:label="Layer 1"
     inkscape:groupmode="layer"
     transform="translate(0,-26)">
    <path
       style="fill:url(#linearGradient3873);fill-opacity:1;fill-rule:nonzero;stroke:none"
       d="m 0.5,37 c 0,1.37479 1.12521,2.5 2.5,2.5 1.37479,0 2.5,-1.12521 2.5,-2.5 0,-1.374789 -1.12521,-2.5 -2.5,-2.5 -1.37479,0 -2.5,1.125211 -2.5,2.5 z m 5.78125,0 0.375,0.34375 7,7 0.34375,0.375 0.34375,-0.375 1.375,-1.375 0.375,-0.34375 -0.375,-0.34375 L 11.9375,38.46875 21,38.5 l 0.5,0 0,-0.5 0,-2 0,-0.5 -0.5,0 -9.0625,-0.03125 3.78125,-3.75 0.375,-0.34375 -0.375,-0.34375 -1.375,-1.375 -0.34375,-0.375 -0.34375,0.375 -7,7 L 6.28125,37 z"
       id="path4769"
       inkscape:connector-curvature="0" />
    <path
       id="path3857"
       d="m 0.5,37 c 0,1.37479 1.12521,2.5 2.5,2.5 1.37479,0 2.5,-1.12521 2.5,-2.5 0,-1.374789 -1.12521,-2.5 -2.5,-2.5 -1.37479,0 -2.5,1.125211 -2.5,2.5 z m 5.78125,0 0.375,0.34375 7,7 0.34375,0.375 0.34375,-0.375 1.375,-1.375 0.375,-0.34375 -0.375,-0.34375 L 11.9375,38.46875 21,38.5 l 0.5,0 0,-0.5 0,-2 0,-0.5 -0.5,0 -9.0625,-0.03125 3.78125,-3.75 0.375,-0.34375 -0.375,-0.34375 -1.375,-1.375 -0.34375,-0.375 -0.34375,0.375 -7,7 L 6.28125,37 z"
       style="opacity:0.61000001;fill:none;stroke:#000000;stroke-opacity:1"
       inkscape:connector-curvature="0" />
    <path
       style="opacity:0.2;fill:#ffffff;fill-opacity:1;fill-rule:nonzero;stroke:none"
       d="m 14.03125,30 1.34375,1.34375 0,0.03125 -0.5,0.46875 L 14.03125,31 14,31 l -0.03125,0 -6.5,6.5 L 7,37.03125 7,37 7,36.96875 13.96875,30 14,30 14.03125,30 z M 3,35 c 1.10197,0 2,0.898031 2,2 0,0.172183 -0.021299,0.340423 -0.0625,0.5 C 4.715013,36.638284 3.929787,36 3,36 2.070213,36 1.284987,36.638284 1.0625,37.5 1.021299,37.340423 1,37.172183 1,37 1,35.898031 1.89803,35 3,35 z M 11.9375,35.96875 21,36 l 0,1 -9.0625,-0.03125 -1.21875,0 0.875,-0.84375 0.15625,-0.15625 0.1875,0 z m -0.1875,3 3.625,3.625 0,0.03125 0,0.03125 -0.46875,0.46875 -3.3125,-3.3125 -0.875,-0.84375 1.03125,0 z"
       id="path3924"
       inkscape:connector-curvature="0" />
  </g>
</svg>
