<?xml version="1.0" encoding="UTF-8" standalone="no"?>
<!-- Created with Inkscape (http://www.inkscape.org/) -->

<svg
   xmlns:dc="http://purl.org/dc/elements/1.1/"
   xmlns:cc="http://creativecommons.org/ns#"
   xmlns:rdf="http://www.w3.org/1999/02/22-rdf-syntax-ns#"
   xmlns:svg="http://www.w3.org/2000/svg"
   xmlns="http://www.w3.org/2000/svg"
   xmlns:xlink="http://www.w3.org/1999/xlink"
   xmlns:sodipodi="http://sodipodi.sourceforge.net/DTD/sodipodi-0.dtd"
   xmlns:inkscape="http://www.inkscape.org/namespaces/inkscape"
   width="22"
   height="22"
   id="svg3495"
   version="1.1"
   inkscape:version="0.48.4 r9939"
   sodipodi:docname="object-rotate-left.svg">
  <defs
     id="defs3497">
    <linearGradient
       inkscape:collect="always"
       xlink:href="#linearGradient3821"
       id="linearGradient2997"
       gradientUnits="userSpaceOnUse"
       x1="12"
       y1="22"
       x2="12"
       y2="-2"
       gradientTransform="translate(0,26)" />
    <linearGradient
       id="linearGradient3821">
      <stop
         style="stop-color:#555555;stop-opacity:1;"
         offset="0"
         id="stop3823" />
      <stop
         style="stop-color:#666666;stop-opacity:1;"
         offset="1"
         id="stop3825" />
    </linearGradient>
    <linearGradient
       inkscape:collect="always"
       xlink:href="#linearGradient3821"
       id="linearGradient3798"
       x1="11"
       y1="22"
       x2="11"
       y2="0"
       gradientUnits="userSpaceOnUse"
       gradientTransform="matrix(-1,0,0,1,22,26)" />
    <radialGradient
       inkscape:collect="always"
       xlink:href="#linearGradient3949"
       id="radialGradient3993"
       gradientUnits="userSpaceOnUse"
       gradientTransform="matrix(1,0,0,0.22222222,0,15.555556)"
       cx="11"
       cy="20"
       fx="11"
       fy="20"
       r="9" />
    <linearGradient
       inkscape:collect="always"
       id="linearGradient3949">
      <stop
         style="stop-color:#000000;stop-opacity:1;"
         offset="0"
         id="stop3951" />
      <stop
         style="stop-color:#000000;stop-opacity:0;"
         offset="1"
         id="stop3953" />
    </linearGradient>
    <radialGradient
       inkscape:collect="always"
       xlink:href="#linearGradient3949"
       id="radialGradient3997"
       gradientUnits="userSpaceOnUse"
       gradientTransform="matrix(1,0,0,0.22222222,0,15.555556)"
       cx="11"
       cy="20"
       fx="11"
       fy="20"
       r="9" />
    <radialGradient
       r="9"
       fy="20"
       fx="11"
       cy="20"
       cx="11"
       gradientTransform="matrix(1,0,0,0.22222222,0,15.555556)"
       gradientUnits="userSpaceOnUse"
       id="radialGradient4804"
       xlink:href="#linearGradient3949"
       inkscape:collect="always" />
  </defs>
  <sodipodi:namedview
     id="base"
     pagecolor="#ffffff"
     bordercolor="#666666"
     borderopacity="1.0"
     inkscape:pageopacity="0.0"
     inkscape:pageshadow="2"
     inkscape:zoom="1"
     inkscape:cx="10.793703"
     inkscape:cy="10.434868"
     inkscape:current-layer="layer1"
     showgrid="false"
     showborder="false"
     inkscape:grid-bbox="true"
     inkscape:document-units="px"
     inkscape:window-width="1364"
     inkscape:window-height="700"
     inkscape:window-x="0"
     inkscape:window-y="28"
     inkscape:window-maximized="1"
     inkscape:snap-bbox="true"
     inkscape:bbox-nodes="true">
    <inkscape:grid
       type="xygrid"
       id="grid3512"
       empspacing="4"
       visible="true"
       enabled="true"
       snapvisiblegridlinesonly="true"
       dotted="false" />
  </sodipodi:namedview>
  <metadata
     id="metadata3500">
    <rdf:RDF>
      <cc:Work
         rdf:about="">
        <dc:format>image/svg+xml</dc:format>
        <dc:type
           rdf:resource="http://purl.org/dc/dcmitype/StillImage" />
        <dc:title />
      </cc:Work>
    </rdf:RDF>
  </metadata>
  <g
     id="layer1"
     inkscape:label="Layer 1"
     inkscape:groupmode="layer"
     transform="translate(0,-26)">
    <g
       transform="translate(0,-1)"
       id="g4507">
      <path
         d="m 20,20 c 0,1.104569 -4.029437,2 -9,2 -4.9705627,0 -9,-0.895431 -9,-2 0,-1.104569 4.0294373,-2 9,-2 4.970563,0 9,0.895431 9,2 z"
         sodipodi:ry="2"
         sodipodi:rx="9"
         sodipodi:cy="20"
         sodipodi:cx="11"
         id="path3163"
         style="opacity:0.4;fill:url(#radialGradient3993);fill-opacity:1;stroke:none"
         sodipodi:type="arc"
         transform="matrix(1,0,0,1.5,0,15)" />
      <path
         transform="matrix(0.66666667,0,0,1,3.6666666,26)"
         sodipodi:type="arc"
         style="opacity:0.8;fill:url(#radialGradient4804);fill-opacity:1;stroke:none"
         id="path3995"
         sodipodi:cx="11"
         sodipodi:cy="20"
         sodipodi:rx="9"
         sodipodi:ry="2"
         d="m 20,20 c 0,1.104569 -4.029437,2 -9,2 -4.9705627,0 -9,-0.895431 -9,-2 0,-1.104569 4.0294373,-2 9,-2 4.970563,0 9,0.895431 9,2 z" />
    </g>
    <path
       style="font-size:medium;font-style:normal;font-variant:normal;font-weight:normal;font-stretch:normal;text-indent:0;text-align:start;text-decoration:none;line-height:normal;letter-spacing:normal;word-spacing:normal;text-transform:none;direction:ltr;block-progression:tb;writing-mode:lr-tb;text-anchor:start;baseline-shift:baseline;color:#000000;fill:url(#linearGradient3798);fill-opacity:1;stroke:none;stroke-width:1;marker:none;visibility:visible;display:inline;overflow:visible;enable-background:accumulate;font-family:Sans;-inkscape-font-specification:Sans"
       d="m 11.1875,28.53125 c 0.810314,0.01735 1.622016,0.121237 2.40625,0.375 1.08523,0.349798 2.103101,0.907475 2.96875,1.65625 0.869013,0.747507 1.558191,1.635939 2.0625,2.65625 0.483501,0.984909 0.762757,2.055834 0.84375,3.15625 C 19.48433,36.584561 19.5,36.790841 19.5,37 c 0,0.886488 -0.135755,1.751862 -0.40625,2.59375 -0.348498,1.085256 -0.909224,2.101888 -1.65625,2.96875 -0.747069,0.867036 -1.635939,1.557018 -2.65625,2.0625 -0.986221,0.486878 -2.058678,0.762736 -3.15625,0.84375 C 11.427952,45.48349 11.232132,45.5 11.03125,45.5 L 11,45.5 c -0.87579,0 -1.765378,-0.140919 -2.59375,-0.40625 -0.0087,-0.0028 -0.02256,0.0028 -0.03125,0 C 7.301334,44.745426 6.299548,44.179156 5.4375,43.4375 4.569821,42.688885 3.87865,41.803363 3.375,40.78125 l -0.21875,-0.46875 0.4375,-0.21875 2.03125,-1 0.4375,-0.21875 0.21875,0.4375 c 0.310881,0.625119 0.746313,1.162642 1.28125,1.625 0.536608,0.461294 1.117629,0.815858 1.78125,1.03125 0.518449,0.167003 1.055441,0.25 1.59375,0.25 0.137851,-0.0014 0.285683,-0.0216 0.40625,-0.03125 0.684084,-0.0504 1.335368,-0.234207 1.9375,-0.53125 0.622875,-0.307089 1.160559,-0.712191 1.625,-1.25 0.461155,-0.533651 0.815827,-1.148784 1.03125,-1.8125 0.164626,-0.512616 0.25,-1.046249 0.25,-1.59375 0,-0.129575 -0.02117,-0.271792 -0.03125,-0.40625 -0.04963,-0.67467 -0.232588,-1.302215 -0.53125,-1.90625 -0.308697,-0.62543 -0.716092,-1.163714 -1.25,-1.625 -0.534884,-0.46164 -1.14949,-0.816727 -1.8125,-1.03125 -0.617117,-0.197743 -1.284961,-0.257068 -2,-0.21875 -0.658237,0.04868 -1.313713,0.2064 -1.90625,0.5 -0.287712,0.141993 -0.5664,0.377104 -0.84375,0.59375 L 8.78125,33.75 9.53125,34.40625 8.5625,34.625 3.53125,35.8125 2.875,35.96875 2.9375,35.28125 3.3125,30.125 3.375,29.15625 l 0.75,0.625 1.15625,1 c 0.58637,-0.542978 1.21423,-1.05022 1.9375,-1.40625 0.984061,-0.488912 2.049016,-0.76205 3.15625,-0.84375 0.266868,-0.01568 0.542395,-0.0058 0.8125,0 z M 11,35.5 c 0.822505,0 1.5,0.677495 1.5,1.5 0,0.822505 -0.677495,1.5 -1.5,1.5 -0.822505,0 -1.5,-0.677495 -1.5,-1.5 0,-0.822505 0.677495,-1.5 1.5,-1.5 z"
       id="path3010"
       inkscape:connector-curvature="0" />
    <g
       id="g4776"
       style="opacity:0.1;fill:#ffffff;fill-opacity:1"
       transform="matrix(-0.5,0,0,0.5,26.788834,23.000001)" />
    <path
       id="path3814"
       d="m 11.1875,28.53125 c 0.810314,0.01735 1.622016,0.121237 2.40625,0.375 1.08523,0.349798 2.103101,0.907475 2.96875,1.65625 0.869013,0.747507 1.558191,1.635939 2.0625,2.65625 0.483501,0.984909 0.762757,2.055834 0.84375,3.15625 C 19.48433,36.584561 19.5,36.790841 19.5,37 c 0,0.886488 -0.135755,1.751862 -0.40625,2.59375 -0.348498,1.085256 -0.909224,2.101888 -1.65625,2.96875 -0.747069,0.867036 -1.635939,1.557018 -2.65625,2.0625 -0.986221,0.486878 -2.058678,0.762736 -3.15625,0.84375 C 11.427952,45.48349 11.232132,45.5 11.03125,45.5 L 11,45.5 c -0.87579,0 -1.765378,-0.140919 -2.59375,-0.40625 -0.0087,-0.0028 -0.02256,0.0028 -0.03125,0 C 7.301334,44.745426 6.299548,44.179156 5.4375,43.4375 4.569821,42.688885 3.87865,41.803363 3.375,40.78125 l -0.21875,-0.46875 0.4375,-0.21875 2.03125,-1 0.4375,-0.21875 0.21875,0.4375 c 0.310881,0.625119 0.746313,1.162642 1.28125,1.625 0.536608,0.461294 1.117629,0.815858 1.78125,1.03125 0.518449,0.167003 1.055441,0.25 1.59375,0.25 0.137851,-0.0014 0.285683,-0.0216 0.40625,-0.03125 0.684084,-0.0504 1.335368,-0.234207 1.9375,-0.53125 0.622875,-0.307089 1.160559,-0.712191 1.625,-1.25 0.461155,-0.533651 0.815827,-1.148784 1.03125,-1.8125 0.164626,-0.512616 0.25,-1.046249 0.25,-1.59375 0,-0.129575 -0.02117,-0.271792 -0.03125,-0.40625 -0.04963,-0.67467 -0.232588,-1.302215 -0.53125,-1.90625 -0.308697,-0.62543 -0.716092,-1.163714 -1.25,-1.625 -0.534884,-0.46164 -1.14949,-0.816727 -1.8125,-1.03125 -0.617117,-0.197743 -1.284961,-0.257068 -2,-0.21875 -0.658237,0.04868 -1.313713,0.2064 -1.90625,0.5 -0.287712,0.141993 -0.5664,0.377104 -0.84375,0.59375 L 8.78125,33.75 9.53125,34.40625 8.5625,34.625 3.53125,35.8125 2.875,35.96875 2.9375,35.28125 3.3125,30.125 3.375,29.15625 l 0.75,0.625 1.15625,1 c 0.58637,-0.542978 1.21423,-1.05022 1.9375,-1.40625 0.984061,-0.488912 2.049016,-0.76205 3.15625,-0.84375 0.266868,-0.01568 0.542395,-0.0058 0.8125,0 z M 11,35.5 c 0.822505,0 1.5,0.677495 1.5,1.5 0,0.822505 -0.677495,1.5 -1.5,1.5 -0.822505,0 -1.5,-0.677495 -1.5,-1.5 0,-0.822505 0.677495,-1.5 1.5,-1.5 z"
       style="font-size:medium;font-style:normal;font-variant:normal;font-weight:normal;font-stretch:normal;text-indent:0;text-align:start;text-decoration:none;line-height:normal;letter-spacing:normal;word-spacing:normal;text-transform:none;direction:ltr;block-progression:tb;writing-mode:lr-tb;text-anchor:start;baseline-shift:baseline;opacity:0.61000001;color:#000000;fill:none;stroke:#000000;stroke-width:1;stroke-opacity:1;marker:none;visibility:visible;display:inline;overflow:visible;enable-background:accumulate;font-family:Sans;-inkscape-font-specification:Sans"
       inkscape:connector-curvature="0" />
    <path
       style="font-size:medium;font-style:normal;font-variant:normal;font-weight:normal;font-stretch:normal;text-indent:0;text-align:start;text-decoration:none;line-height:normal;letter-spacing:normal;word-spacing:normal;text-transform:none;direction:ltr;block-progression:tb;writing-mode:lr-tb;text-anchor:start;baseline-shift:baseline;opacity:0.2;color:#000000;fill:#ffffff;fill-opacity:1;stroke:none;stroke-width:1;marker:none;visibility:visible;display:inline;overflow:visible;enable-background:accumulate;font-family:Sans;-inkscape-font-specification:Sans"
       d="m 11.1875,29.03125 c 0.774752,0.01659 1.523884,0.108793 2.25,0.34375 1.024428,0.3302 2.000621,0.860235 2.8125,1.5625 0.819606,0.705008 1.462282,1.538545 1.9375,2.5 0.45388,0.92457 0.70469,1.928558 0.78125,2.96875 C 18.98437,36.616336 19,36.815813 19,37 c 0,0.135779 -0.02484,0.271832 -0.03125,0.40625 -0.07656,-1.040192 -0.32737,-2.04418 -0.78125,-2.96875 -0.475218,-0.961455 -1.117894,-1.794992 -1.9375,-2.5 -0.811879,-0.702265 -1.788072,-1.2323 -2.8125,-1.5625 -0.726116,-0.234957 -1.475248,-0.32716 -2.25,-0.34375 -0.275032,-0.0059 -0.54679,-0.01377 -0.78125,0 C 9.357113,30.10866 8.359285,30.354529 7.4375,30.8125 6.780191,31.136061 6.194718,31.628692 5.625,32.15625 l -0.34375,0.28125 -0.3125,-0.28125 -1.15625,-1 -0.3125,4.125 -0.0625,0.03125 0.375,-5.15625 1.15625,1 0.3125,0.28125 0.34375,-0.28125 c 0.569718,-0.527558 1.155191,-1.020189 1.8125,-1.34375 0.921785,-0.457971 1.919613,-0.70384 2.96875,-0.78125 0.23446,-0.01377 0.506218,-0.0059 0.78125,0 z M 7.625,33.40625 8.4375,34.125 7.53125,34.34375 7.46875,34.28125 7.03125,33.875 7.5,33.5 C 7.538802,33.46969 7.584656,33.4374 7.625,33.40625 z M 11,36 c 0.547939,0 1,0.452061 1,1 0,0.185846 -0.06614,0.350111 -0.15625,0.5 C 11.668182,37.207963 11.362093,37 11,37 10.637907,37 10.331818,37.207963 10.15625,37.5 10.066139,37.350111 10,37.185846 10,37 c 0,-0.547939 0.452061,-1 1,-1 z m 5.65625,1.5625 c 0.0081,0.108645 0.03125,0.253475 0.03125,0.4375 0,0.599479 -0.101123,1.189117 -0.28125,1.75 -0.237167,0.73071 -0.622486,1.387237 -1.125,1.96875 -0.508029,0.588284 -1.104311,1.041257 -1.78125,1.375 -0.657028,0.324124 -1.375269,0.538513 -2.125,0.59375 -0.09765,0.0078 -0.254441,0.02939 -0.4375,0.03125 -0.589703,0 -1.181662,-0.09818 -1.75,-0.28125 C 8.452137,43.198823 7.825861,42.807538 7.25,42.3125 6.671572,41.812552 6.186633,41.220719 5.84375,40.53125 L 4.25,41.3125 C 4.092472,41.065955 3.943837,40.829036 3.8125,40.5625 l 0,-0.03125 2.03125,-1 c 0.342883,0.689469 0.827822,1.281302 1.40625,1.78125 0.575861,0.495038 1.202137,0.886323 1.9375,1.125 0.568338,0.18307 1.160297,0.28125 1.75,0.28125 0.183059,-0.0019 0.33985,-0.02345 0.4375,-0.03125 0.749731,-0.05524 1.467972,-0.269626 2.125,-0.59375 0.676939,-0.333743 1.273221,-0.786716 1.78125,-1.375 0.502514,-0.581513 0.887833,-1.23804 1.125,-1.96875 0.122294,-0.380803 0.207462,-0.786107 0.25,-1.1875 z"
       id="path3816"
       inkscape:connector-curvature="0" />
  </g>
</svg>
