<?xml version='1.0' encoding='UTF-8' standalone='no'?>
<svg height="16" xmlns:inkscape="http://www.inkscape.org/namespaces/inkscape" xmlns:sodipodi="http://sodipodi.sourceforge.net/DTD/sodipodi-0.dtd" version="1.1" width="16" xmlns="http://www.w3.org/2000/svg" enable-background="new">
 <metadata id="metadata90"/>
 <defs id="defs7386">
  <linearGradient id="linearGradient5606" osb:paint="solid">
   <stop id="stop5608"/>
  </linearGradient>
  <filter inkscape:collect="always" color-interpolation-filters="sRGB" id="filter7554">
   <feBlend inkscape:collect="always" id="feBlend7556" in2="BackgroundImage" mode="darken"/>
  </filter>
 </defs>
 <g inkscape:groupmode="layer" id="layer10" inkscape:label="devices" transform="translate(-281.00023,90.999969)" filter="url(#filter7554)">
  <path inkscape:connector-curvature="0" d="m 289.0002,-90 c -1.662,0 -3,1.338 -3,3 l 0,5 c 0,1.662 1.338,3 3,3 1.662,0 3,-1.338 3,-3 l 0,-5 c 0,-1.662 -1.338,-3 -3,-3 z m -4.5,4.5 c -0.27614,0 -0.5,0.22386 -0.5,0.5 l 0,2.90625 a 0.50030048,0.49979969 0 0 0 0,0.09375 c 0,2.40877 1.72585,4.4097 4,4.875 l 0,2.125 2,0 0,-2.125 c 2.27415,-0.4653 4,-2.46623 4,-4.875 a 0.50030048,0.49979969 0 0 0 0,-0.0312 l 0,-0.0625 a 0.50030048,0.49979969 0 0 0 0,-0.0937 l 0,-2.8126 c 0,-0.27614 -0.22386,-0.5 -0.5,-0.5 -0.27614,0 -0.5,0.22386 -0.5,0.5 l 0,2.8125 a 0.50030048,0.49979969 0 0 0 0,0.0937 l 0,0.0938 c 0,2.21271 -1.78508,4 -4,4 -2.21492,0 -4,-1.78729 -4,-4 a 0.50030048,0.49979969 0 0 0 0,-0.0312 l 0,-2.9688 c 0,-0.27614 -0.22386,-0.5 -0.5,-0.5 z" id="rect16707-6" fill="#bebebe" color="#bebebe" stroke-width="2"/>
 </g>
</svg>
