<?xml version='1.0' encoding='UTF-8' standalone='no'?>
<svg height="16" xmlns:inkscape="http://www.inkscape.org/namespaces/inkscape" xmlns:sodipodi="http://sodipodi.sourceforge.net/DTD/sodipodi-0.dtd" version="1.1" width="16" xmlns="http://www.w3.org/2000/svg" enable-background="new">
 <metadata id="metadata90"/>
 <defs id="defs7386">
  <linearGradient id="linearGradient5606" osb:paint="solid">
   <stop id="stop5608"/>
  </linearGradient>
  <filter inkscape:collect="always" color-interpolation-filters="sRGB" id="filter7554">
   <feBlend inkscape:collect="always" id="feBlend7556" in2="BackgroundImage" mode="darken"/>
  </filter>
 </defs>
 <g inkscape:groupmode="layer" id="layer10" inkscape:label="devices" transform="translate(-481.00023,70.98424)" filter="url(#filter7554)">
  <path inkscape:connector-curvature="0" d="m 492.75023,-70.96875 c -0.16573,0.0331 -0.32322,0.13572 -0.5,0.3125 l -3.25,3.25 0,1.40625 1.40625,0 3.25,-3.25 c 0.7071,-0.70711 0,-1.40625 0,-1.40625 0,0 -0.40906,-0.41194 -0.90625,-0.3125 z m -2.75,6.96875 -1,1 1,1 5,0.0158 c 1,0.003 1,-1 1,-1 0,0 0,-0.99685 -1,-1 z m -1,4 0,1.40625 3.25,3.25 c 0.70711,0.70711 1.40625,0 1.40625,0 0,0 0.7071,-0.69914 0,-1.40625 l -3.25,-3.25 z" id="path5882-0" sodipodi:nodetypes="cscccscccccscscccscscc" fill="#bebebe"/>
  <path inkscape:connector-curvature="0" d="m 482.00023,-65.98424 2.48437,0 2.96876,-3 0.54687,0.0156 0,12 -0.4753,8.3e-4 -3.04033,-3.01643 -2.48437,0 z" id="path5491-6" sodipodi:nodetypes="ccccccccc" fill="#bebebe" color="#bebebe"/>
 </g>
</svg>
