<?xml version="1.0" encoding="UTF-8" standalone="no"?>
<svg xmlns="http://www.w3.org/2000/svg" xmlns:xlink="http://www.w3.org/1999/xlink" xmlns:sodipodi="http://sodipodi.sourceforge.net/DTD/sodipodi-0.dtd" xmlns:inkscape="http://www.inkscape.org/namespaces/inkscape" width="16" height="16" version="1.1">
 <defs id="defs5016">
  <linearGradient id="linearGradient6374">
   <stop id="stop6376" stop-opacity="0"/>
   <stop id="stop6384" offset="0.5" stop-opacity="0.498"/>
   <stop offset="1" id="stop6378" stop-opacity="0"/>
  </linearGradient>
  <linearGradient inkscape:collect="always" id="linearGradient6280">
   <stop id="stop6282" stop-color="#ffffff"/>
   <stop offset="1" id="stop6284" stop-color="#ffffff" stop-opacity="0"/>
  </linearGradient>
  <linearGradient inkscape:collect="always" id="linearGradient6252">
   <stop id="stop6254"/>
   <stop offset="1" id="stop6256" stop-opacity="0"/>
  </linearGradient>
  <linearGradient id="linearGradient6149">
   <stop id="stop6151" stop-color="#ffffff"/>
   <stop offset="1" id="stop6153" stop-color="#585858"/>
  </linearGradient>
  <linearGradient id="linearGradient6085">
   <stop id="stop6087" stop-color="#ffffff"/>
   <stop id="stop6097" offset="0.188" stop-color="#ffffff" stop-opacity="0"/>
   <stop id="stop6095" offset="0.438" stop-color="#ffffff" stop-opacity="0"/>
   <stop id="stop6093" offset="0.75" stop-color="#ffffff" stop-opacity="0"/>
   <stop offset="1" id="stop6089" stop-color="#ffffff"/>
  </linearGradient>
  <linearGradient id="linearGradient6020">
   <stop id="stop6022"/>
   <stop offset="0.125" id="stop6024" stop-color="#262626" stop-opacity="0.364"/>
   <stop offset="0.667" id="stop6026" stop-color="#ffffff" stop-opacity="0.749"/>
   <stop offset="0.833" id="stop6028" stop-color="#3a3a3a"/>
   <stop id="stop6030" offset="1"/>
  </linearGradient>
  <linearGradient id="linearGradient6001">
   <stop id="stop6003"/>
   <stop id="stop6013" offset="0.125" stop-color="#262626" stop-opacity="0.364"/>
   <stop id="stop6011" offset="0.424" stop-color="#ffffff" stop-opacity="0.749"/>
   <stop id="stop6009" offset="0.788" stop-color="#ffffff" stop-opacity="0.498"/>
   <stop offset="1" id="stop6005" stop-color="#ffffff" stop-opacity="0"/>
  </linearGradient>
  <linearGradient id="linearGradient5979">
   <stop id="stop5981" stop-color="#ffffff" stop-opacity="0.438"/>
   <stop id="stop5989" offset="0.385" stop-color="#ffffff"/>
   <stop id="stop5987" offset="0.654" stop-color="#ffffff" stop-opacity="0.463"/>
   <stop offset="1" id="stop5983" stop-color="#ffffff" stop-opacity="0.438"/>
  </linearGradient>
  <linearGradient id="linearGradient5946">
   <stop id="stop5948" stop-color="#696969"/>
   <stop id="stop5958" offset="0.125" stop-color="#919191"/>
   <stop id="stop5956" offset="0.25" stop-color="#ffffff"/>
   <stop id="stop5954" offset="0.5" stop-color="#919191"/>
   <stop offset="1" id="stop5950" stop-color="#3c3c3c"/>
  </linearGradient>
  <linearGradient id="linearGradient5938">
   <stop id="stop5940" stop-color="#8e2626"/>
   <stop offset="1" id="stop5942" stop-color="#8e2626" stop-opacity="0"/>
  </linearGradient>
  <linearGradient id="linearGradient5928">
   <stop id="stop5930" stop-color="#ffffff"/>
   <stop id="stop5966" offset="0.5" stop-color="#e7e7e7"/>
   <stop offset="1" id="stop5932" stop-color="#b1b1b1"/>
  </linearGradient>
  <linearGradient id="linearGradient4470">
   <stop id="stop4472" stop-color="#ffffff"/>
   <stop id="stop6328" offset="0.5" stop-color="#e4e4e4"/>
   <stop offset="1" id="stop4474" stop-color="#d9d9d9"/>
  </linearGradient>
  <linearGradient id="linearGradient4418">
   <stop id="stop4420"/>
   <stop offset="1" id="stop4422" stop-color="#3a3a3a"/>
  </linearGradient>
  <linearGradient id="linearGradient4162">
   <stop id="stop4164" stop-color="#323232"/>
   <stop offset="1" id="stop4166" stop-color="#1c1c1c"/>
  </linearGradient>
  <linearGradient id="linearGradient4142">
   <stop id="stop4144" stop-color="#ffffff"/>
   <stop id="stop4152" offset="0.25" stop-color="#78de54" stop-opacity="0.749"/>
   <stop id="stop4150" offset="0.5" stop-color="#69ca46" stop-opacity="0.498"/>
   <stop offset="1" id="stop4146" stop-color="#080808" stop-opacity="0"/>
  </linearGradient>
  <linearGradient id="linearGradient4130">
   <stop id="stop4132" stop-color="#373737"/>
   <stop offset="1" id="stop4134" stop-color="#353535"/>
  </linearGradient>
  <linearGradient id="linearGradient4092">
   <stop id="stop4094" stop-color="#050505"/>
   <stop offset="1" id="stop4096" stop-color="#0f0f0f"/>
  </linearGradient>
  <linearGradient id="linearGradient4074">
   <stop id="stop4076" stop-color="#be87ce"/>
   <stop id="stop4112" offset="0.25" stop-color="#581969"/>
   <stop id="stop4110" offset="0.5" stop-color="#4b1658"/>
   <stop offset="1" id="stop4078"/>
  </linearGradient>
  <linearGradient id="linearGradient3591">
   <stop id="stop3593" stop-color="#232323"/>
   <stop id="stop3595" offset="0.758" stop-color="#535353"/>
   <stop id="stop3597" offset="0.758" stop-color="#676767"/>
   <stop offset="1" id="stop3599" stop-color="#676767"/>
  </linearGradient>
  <linearGradient id="linearGradient4033">
   <stop id="stop4035" stop-color="#ffffff"/>
   <stop offset="1" id="stop4037" stop-color="#0051ff"/>
  </linearGradient>
  <linearGradient id="linearGradient3107">
   <stop id="stop3109" stop-color="#232323"/>
   <stop offset="0.783" id="stop3111" stop-color="#535353"/>
   <stop offset="0.783" id="stop3113" stop-color="#676767"/>
   <stop id="stop3115" offset="1" stop-color="#676767"/>
  </linearGradient>
  <linearGradient id="linearGradient3988-5">
   <stop id="stop3990-5" stop-color="#ededed"/>
   <stop offset="1" id="stop3992-0" stop-color="#fafafa"/>
  </linearGradient>
  <linearGradient id="linearGradient3960">
   <stop id="stop3962" stop-opacity="0"/>
   <stop id="stop3970" offset="0.5"/>
   <stop offset="1" id="stop3964" stop-opacity="0"/>
  </linearGradient>
  <radialGradient inkscape:collect="always" xlink:href="#linearGradient6252" id="radialGradient4001" gradientUnits="userSpaceOnUse" gradientTransform="matrix(1,0,0,0.75,0,10.875)" cx="9" cy="43.5" r="2"/>
  <linearGradient inkscape:collect="always" xlink:href="#linearGradient3988-5" id="linearGradient5128" gradientUnits="userSpaceOnUse" gradientTransform="matrix(0.12419355,0,0,0.12564103,-2.238722,-4.461562)" y1="290.2" x2="0" y2="35.51"/>
  <radialGradient inkscape:collect="always" xlink:href="#linearGradient6252" id="radialGradient5914" gradientUnits="userSpaceOnUse" gradientTransform="matrix(1,0,0,0.75,-4,-2.125)" cx="9" cy="43.5" r="2"/>
  <radialGradient inkscape:collect="always" xlink:href="#linearGradient6252" id="radialGradient5917" gradientUnits="userSpaceOnUse" gradientTransform="matrix(1,0,0,0.75,-13,-2.125)" cx="40" cy="43.5" r="2"/>
  <linearGradient inkscape:collect="always" xlink:href="#linearGradient3960" id="linearGradient5920" gradientUnits="userSpaceOnUse" y1="45" x2="0" y2="42" gradientTransform="translate(-4,-13)"/>
  <linearGradient id="linearGradient3916">
   <stop id="stop3918" stop-color="#232323"/>
   <stop id="stop3926" offset="0.8" stop-color="#535353"/>
   <stop id="stop3924" offset="0.8" stop-color="#676767"/>
   <stop offset="1" id="stop3920" stop-color="#676767"/>
  </linearGradient>
  <linearGradient inkscape:collect="always" xlink:href="#linearGradient3107" id="linearGradient3101" gradientUnits="userSpaceOnUse" gradientTransform="translate(75,33.000996)" y1="19" x2="0" y2="9"/>
  <linearGradient inkscape:collect="always" xlink:href="#linearGradient3988-5" id="linearGradient3105" gradientUnits="userSpaceOnUse" gradientTransform="matrix(0.48571543,0,0,-0.26367377,73.342869,58.667687)" y1="0.985" x2="0" y2="47.01"/>
  <radialGradient inkscape:collect="always" xlink:href="#linearGradient6252" id="radialGradient3927" gradientUnits="userSpaceOnUse" gradientTransform="matrix(1,0,0,0.75,-7,-5.125)" cx="9" cy="43.5" r="2"/>
  <radialGradient inkscape:collect="always" xlink:href="#linearGradient6252" id="radialGradient3930" gradientUnits="userSpaceOnUse" gradientTransform="matrix(1,0,0,0.75,-10,-5.125)" cx="40" cy="43.5" r="2"/>
  <linearGradient inkscape:collect="always" xlink:href="#linearGradient3960" id="linearGradient3933" gradientUnits="userSpaceOnUse" gradientTransform="matrix(1.2727273,0,0,1,-9.4545455,-16)" y1="45" x2="0" y2="42"/>
  <radialGradient inkscape:collect="always" xlink:href="#linearGradient4033" id="radialGradient4043" cx="4.672" cy="19" r="1" gradientUnits="userSpaceOnUse" gradientTransform="matrix(-1.1949773,3.9999996e-7,-4.6787414e-7,-1.3977476,10.255284,45.557202)"/>
  <radialGradient inkscape:collect="always" xlink:href="#linearGradient6252" id="radialGradient4001-6" gradientUnits="userSpaceOnUse" gradientTransform="matrix(1,0,0,0.75,0,10.875)" cx="9" cy="43.5" r="2"/>
  <clipPath id="clipPath5972">
   <path id="path5974" d="m 25,5.5 c -3.341509,0 -4.419322,4.4661201 -5.4375,8 l -5.4375,0 c 0,0 -4.013889,-1 -7.125,-1 -2.0833333,0 -3.2258989,0.538399 -3.84375,1.15625 C 2.4439327,14.54273 2.1829502,15.641667 2,16.5625 1.7423825,18.237014 1.5,21.487179 1.5,28 l 0,10 c 0,0 0.00489,1.318376 0.40625,2.65625 0.2006811,0.668937 0.5042062,1.355368 1,1.90625 0.4834395,0.537155 1.1726875,0.918408 2.03125,0.9375 0.02194,4.88e-4 0.040351,0 0.0625,0 6.523386,0.631199 10.05656,-0.756207 14.71875,-1 l 0.03125,0 23.25,0 c 1.208632,0 2.30392,-0.35294 3.125,-0.96875 C 46.94608,40.91544 47.5,40.009901 47.5,39 l 0,-20 C 47.098358,16.642033 45.636106,13.257828 41,13.5 l -2.40625,0 C 37.35752,9.7572489 36.594181,5.4902535 32.5,5.5 z"/>
  </clipPath>
  <linearGradient inkscape:collect="always" xlink:href="#linearGradient4418" id="linearGradient5976" gradientUnits="userSpaceOnUse" y1="40" x2="0" y2="16"/>
  <linearGradient inkscape:collect="always" xlink:href="#linearGradient5979" id="linearGradient5985" x1="1.5" x2="14.5" gradientUnits="userSpaceOnUse"/>
  <linearGradient inkscape:collect="always" xlink:href="#linearGradient6001" id="linearGradient6007" x1="1.5" x2="9.75" gradientUnits="userSpaceOnUse"/>
  <radialGradient inkscape:collect="always" xlink:href="#linearGradient6020" id="radialGradient6018" cx="-3.1" cy="27.877" r="4.25" gradientTransform="matrix(-2.8235294,1.9428357e-8,-1.604587e-8,-16,5.2470588,474.02839)" gradientUnits="userSpaceOnUse"/>
  <clipPath id="clipPath6064">
   <path id="path6066" d="m 25,-10.5 c -3.341509,0 -4.419322,4.4661201 -5.4375,8 l -5.4375,0 c 0,0 -4.013889,-1 -7.125,-1 -2.0833333,0 -3.2258989,0.538399 -3.84375,1.15625 C 2.4439327,-1.45727 2.1829502,-0.358333 2,0.5625 1.7423825,2.237014 1.5,5.487179 1.5,12 l 0,10 c 0,0 0.00489,1.318376 0.40625,2.65625 0.2006811,0.668937 0.5042062,1.355368 1,1.90625 0.4834395,0.537155 1.1726875,0.918408 2.03125,0.9375 0.02194,4.88e-4 0.040351,0 0.0625,0 6.523386,0.631199 10.05656,-0.756207 14.71875,-1 l 0.03125,0 23.25,0 c 1.208632,0 2.30392,-0.35294 3.125,-0.96875 C 46.94608,24.91544 47.5,24.009901 47.5,23 l 0,-20 C 47.098358,0.642033 45.636106,-2.742172 41,-2.5 l -2.40625,0 c -1.23623,-3.7427511 -1.999569,-8.009747 -6.09375,-8 z"/>
  </clipPath>
  <linearGradient inkscape:collect="always" xlink:href="#linearGradient4418" id="linearGradient6068" gradientUnits="userSpaceOnUse" y1="40" x2="0" y2="16" gradientTransform="translate(0,-16)"/>
  <radialGradient inkscape:collect="always" xlink:href="#linearGradient6252" id="radialGradient3656" gradientUnits="userSpaceOnUse" gradientTransform="matrix(1,0,0,0.75,-5.0000003,-9.125001)" cx="9" cy="43.5" r="2"/>
  <linearGradient inkscape:collect="always" xlink:href="#linearGradient6280" id="linearGradient6286" x1="48" x2="42" gradientUnits="userSpaceOnUse"/>
  <radialGradient inkscape:collect="always" xlink:href="#linearGradient6252" id="radialGradient6492" gradientUnits="userSpaceOnUse" gradientTransform="matrix(1,0,0,0.29411765,0,30)" cx="9.5" cy="42.5" r="8.5"/>
  <linearGradient inkscape:collect="always" xlink:href="#linearGradient3960" id="linearGradient6494" gradientUnits="userSpaceOnUse" gradientTransform="matrix(1.4084181,0,0,1.6666667,-10.56148,-45.500001)" y1="45" x2="0" y2="42"/>
  <radialGradient inkscape:collect="always" xlink:href="#linearGradient6252" id="radialGradient6496" gradientUnits="userSpaceOnUse" gradientTransform="matrix(1.0571429,0,0,1.25,3.5999977,-27.375001)" cx="40" cy="43.5" r="2"/>
  <radialGradient inkscape:collect="always" xlink:href="#linearGradient6252" id="radialGradient6498" gradientUnits="userSpaceOnUse" gradientTransform="matrix(1.0571429,0,0,1.25,-7.4000023,-27.375001)" cx="9" cy="43.5" r="2"/>
  <linearGradient inkscape:collect="always" xlink:href="#linearGradient3960" id="linearGradient6500" gradientUnits="userSpaceOnUse" gradientTransform="matrix(1.3457637,0,0,1,-8.817564,-16.500001)" y1="45" x2="0" y2="42"/>
  <radialGradient inkscape:collect="always" xlink:href="#linearGradient6252" id="radialGradient6502" gradientUnits="userSpaceOnUse" gradientTransform="matrix(1,0,0,0.75,4.9999977,-5.625001)" cx="40" cy="43.5" r="2"/>
  <radialGradient inkscape:collect="always" xlink:href="#linearGradient6252" id="radialGradient6504" gradientUnits="userSpaceOnUse" gradientTransform="matrix(1,0,0,0.75,-6.0000023,-5.625001)" cx="9" cy="43.5" r="2"/>
  <linearGradient inkscape:collect="always" xlink:href="#linearGradient5946" id="linearGradient6506" gradientUnits="userSpaceOnUse" x1="13" x2="18.5"/>
  <radialGradient inkscape:collect="always" xlink:href="#linearGradient5928" id="radialGradient6508" gradientUnits="userSpaceOnUse" gradientTransform="matrix(1,0,0,0.27272727,0,8.5454545)" cx="15.06" cy="11.521" r="2.75"/>
  <linearGradient inkscape:collect="always" xlink:href="#linearGradient6252" id="linearGradient6516" gradientUnits="userSpaceOnUse" x1="16" y1="11" x2="24" y2="15"/>
  <linearGradient inkscape:collect="always" xlink:href="#linearGradient6252" id="linearGradient6518" gradientUnits="userSpaceOnUse" gradientTransform="matrix(-1,0,0,1,57.5,-16)" x1="16" y1="11" x2="24" y2="15"/>
  <linearGradient inkscape:collect="always" xlink:href="#linearGradient6280" id="linearGradient6520" gradientUnits="userSpaceOnUse" x1="29.27" y1="5.5" x2="29" y2="22"/>
  <linearGradient inkscape:collect="always" xlink:href="#linearGradient6085" id="linearGradient6522" gradientUnits="userSpaceOnUse" x1="21" x2="37"/>
  <radialGradient inkscape:collect="always" xlink:href="#linearGradient6149" id="radialGradient6524" gradientUnits="userSpaceOnUse" gradientTransform="matrix(1,0,0,0.61111111,0,5.5416667)" cx="7" cy="13.02" r="4.5"/>
  <radialGradient inkscape:collect="always" xlink:href="#linearGradient6149" id="radialGradient6526" gradientUnits="userSpaceOnUse" gradientTransform="matrix(1.5714285,1.4486152e-7,-7.9015376e-8,0.85714284,-4.2040804,2.2226337)" cx="7.357" cy="13.49" r="4.5"/>
  <linearGradient inkscape:collect="always" xlink:href="#linearGradient4162" id="linearGradient6530" gradientUnits="userSpaceOnUse" x1="14.672" x2="42.25"/>
  <linearGradient inkscape:collect="always" xlink:href="#linearGradient6252" id="linearGradient6532" gradientUnits="userSpaceOnUse" x1="19.468" y1="37.939" x2="41.05" y2="17.325"/>
  <linearGradient inkscape:collect="always" xlink:href="#linearGradient4092" id="linearGradient6534" gradientUnits="userSpaceOnUse" x1="21.5" x2="35.5"/>
  <radialGradient inkscape:collect="always" xlink:href="#linearGradient4074" id="radialGradient6536" gradientUnits="userSpaceOnUse" gradientTransform="matrix(1.2,0,0,1.2,-5.6,-5.8)" cx="28" cy="29" r="2.5"/>
  <linearGradient inkscape:collect="always" xlink:href="#linearGradient6280" id="linearGradient6538" gradientUnits="userSpaceOnUse" x1="23.501" y1="33.491" x2="33.501" y2="23.491"/>
  <linearGradient inkscape:collect="always" xlink:href="#linearGradient6280" id="linearGradient6540" gradientUnits="userSpaceOnUse" x1="26" y1="31.29" x2="31" y2="27"/>
  <linearGradient inkscape:collect="always" xlink:href="#linearGradient6280" id="linearGradient6542" gradientUnits="userSpaceOnUse" x1="26" y1="27.455" x2="30.545" y2="31.545"/>
  <linearGradient inkscape:collect="always" xlink:href="#linearGradient6252" id="linearGradient6544" gradientUnits="userSpaceOnUse" x1="26" y1="31.29" x2="31" y2="27"/>
  <linearGradient inkscape:collect="always" xlink:href="#linearGradient4130" id="linearGradient6546" gradientUnits="userSpaceOnUse" x1="22.75" y1="35.25" x2="34" y2="24"/>
  <radialGradient inkscape:collect="always" xlink:href="#linearGradient4142" id="radialGradient6548" gradientUnits="userSpaceOnUse" cx="23" cy="24" r="8.5"/>
  <linearGradient inkscape:collect="always" xlink:href="#linearGradient6280" id="linearGradient6550" gradientUnits="userSpaceOnUse" x1="14.172" x2="42.75"/>
  <linearGradient inkscape:collect="always" xlink:href="#linearGradient6280" id="linearGradient6552" gradientUnits="userSpaceOnUse" x1="34.21" y1="23.787" x2="24.06" y2="34.567"/>
  <linearGradient inkscape:collect="always" xlink:href="#linearGradient6280" id="linearGradient6554" gradientUnits="userSpaceOnUse" y1="42.999" x2="0" y2="41.05"/>
  <radialGradient inkscape:collect="always" xlink:href="#linearGradient4470" id="radialGradient6556" gradientUnits="userSpaceOnUse" gradientTransform="translate(0,-5.1922273e-6)" cx="15" cy="16.333" r="2"/>
  <linearGradient inkscape:collect="always" xlink:href="#linearGradient6280" id="linearGradient6560" gradientUnits="userSpaceOnUse" x1="14.373" y1="29.35" x2="16.216" y2="29.351"/>
 </defs>
 <metadata id="metadata5019"/>
 <g id="layer1" inkscape:label="Background" inkscape:groupmode="layer" transform="translate(0,-16)">
  <g inkscape:groupmode="layer" id="layer4" inkscape:label="lens">
   <g id="g6425" transform="matrix(0.32608706,0,0,0.32608869,0.01086695,21.21734)">
    <path transform="translate(0,-15)" d="M 18,42.5 C 18,43.880712 14.19442,45 9.5,45 4.8055796,45 1,43.880712 1,42.5 1,41.119288 4.8055796,40 9.5,40 c 4.69442,0 8.5,1.119288 8.5,2.5 z" sodipodi:ry="2.5" sodipodi:rx="8.5" sodipodi:cy="42.5" sodipodi:cx="9.5" id="path6250" sodipodi:type="arc" opacity="0.2" fill="url(#radialGradient6492)"/>
    <g transform="translate(0,-0.5)" id="g6352">
     <rect id="rect3615" width="43.661" height="5" x="2.114" y="24.5" opacity="0.3" fill="url(#linearGradient6494)"/>
     <path d="m 45.885714,24.5 0,5 0.528571,0 C 47.292771,29.5 48,28.385 48,27 48,25.615 47.292771,24.5 46.414285,24.5 l -0.528571,0 z" id="path3617" inkscape:connector-curvature="0" opacity="0.3" fill="url(#radialGradient6496)"/>
     <path d="M 1.4866052,24.5 C 0.6630248,24.5 -2e-6,25.545312 -2e-6,26.84375 l 0,0.3125 C -2e-6,28.454689 0.6630248,29.5 1.4866052,29.5 l 0.6276786,0 0,-5 -0.6276786,0 z" id="path3619" inkscape:connector-curvature="0" opacity="0.3" fill="url(#radialGradient6498)"/>
     <rect y="25.5" x="3.294" height="3" width="41.719" id="rect3623" opacity="0.3" fill="url(#linearGradient6500)"/>
     <path inkscape:connector-curvature="0" id="path3625" d="m 44.999998,25.499999 0,3 0.5,0 c 0.831,0 1.5,-0.669 1.5,-1.5 0,-0.831 -0.669,-1.5 -1.5,-1.5 l -0.5,0 z" opacity="0.3" fill="url(#radialGradient6502)"/>
     <path inkscape:connector-curvature="0" id="path3627" d="m 2.4062477,25.499999 c -0.7790625,0 -1.40625,0.627187 -1.40625,1.40625 l 0,0.1875 c 0,0.779063 0.6271875,1.40625 1.40625,1.40625 l 0.59375,0 0,-3 -0.59375,0 z" opacity="0.3" fill="url(#radialGradient6504)"/>
    </g>
    <g id="g5960">
     <rect id="rect5936" width="5.5" height="2.5" x="13" y="12" transform="translate(0,-16)" rx="0" ry="1.25" fill="url(#linearGradient6506)"/>
     <path sodipodi:type="arc" id="path5926" sodipodi:cx="15.75" sodipodi:cy="11.75" sodipodi:rx="2.75" sodipodi:ry="0.75" d="m 18.5,11.75 c 0,0.414214 -1.231217,0.75 -2.75,0.75 C 14.231217,12.5 13,12.164214 13,11.75 13,11.335786 14.231217,11 15.75,11 c 1.518783,0 2.75,0.335786 2.75,0.75 z" transform="translate(0,-16)" fill="url(#radialGradient6508)"/>
    </g>
    <path transform="translate(0,-16)" sodipodi:nodetypes="sccsccscssscccsssccccs" inkscape:connector-curvature="0" id="rect4348" d="m 25,5.5 c -3.341509,0 -4.419322,4.4661201 -5.4375,8 l -5.4375,0 c 0,0 -4.013889,-1 -7.125,-1 -2.0833333,0 -3.2258989,0.538399 -3.84375,1.15625 C 2.4439327,14.54273 2.1829502,15.641667 2,16.5625 1.7423825,18.237014 1.5,21.487179 1.5,28 l 0,10 c 0,0 0.00489,1.318376 0.40625,2.65625 0.2006811,0.668937 0.5042062,1.355368 1,1.90625 0.4834395,0.537155 1.1726875,0.918408 2.03125,0.9375 0.02194,4.88e-4 0.040351,0 0.0625,0 6.523386,0.631199 10.05656,-0.756207 14.71875,-1 l 0.03125,0 23.25,0 c 1.208632,0 2.30392,-0.35294 3.125,-0.96875 C 46.94608,40.91544 47.5,40.009901 47.5,39 l 0,-20 C 47.098358,16.642033 45.636106,13.257828 41,13.5 l -2.40625,0 C 37.35752,9.7572489 36.594181,5.4902535 32.5,5.5 z" fill="url(#linearGradient5976)"/>
    <path transform="translate(0,-16)" sodipodi:nodetypes="ccccc" inkscape:connector-curvature="0" id="rect5968" d="M 0.61871845,40.5 C 5.199,40.780874 9.8028641,40.920252 14.5,40.5 l 0,4.671573 -13.88128155,0 z" clip-path="url(#clipPath5972)" opacity="0.4" fill="url(#linearGradient5985)"/>
    <path transform="translate(0,-16)" sodipodi:nodetypes="ccccc" inkscape:connector-curvature="0" id="rect5991" d="m -4,12 14,0 C 8.3695164,24.518092 8.0474703,35.190402 9.75,49.375 l -12.5,0 z" clip-path="url(#clipPath5972)" opacity="0.4" fill="url(#radialGradient6018)"/>
    <g clip-path="url(#clipPath6064)" id="g6052">
     <path sodipodi:nodetypes="ccccc" d="M 16,26 22,4 23,9 17,26 z" id="path6034" inkscape:connector-curvature="0" transform="translate(0,-16)" fill="url(#linearGradient6516)"/>
     <path sodipodi:nodetypes="ccccc" inkscape:connector-curvature="0" id="path6044" d="M 41,8 C 39.805435,1.981401 38.578034,-4.0590882 36,-11 l -1.5,4 6,17 z" fill="url(#linearGradient6518)"/>
    </g>
    <path d="M 18.5,-2.5 15,10" id="path6266" inkscape:connector-curvature="0" opacity="0.1" fill="none" stroke="#ffffff" stroke-linecap="round" stroke-width="3.067"/>
    <path transform="translate(0,-16)" inkscape:connector-curvature="0" id="path6070" d="M 19,13.5 15.5,26" opacity="0.8" fill="none" stroke="#000000" stroke-linecap="round" stroke-width="3.067"/>
    <path inkscape:connector-curvature="0" id="path6268" d="m 39,-2 3.491001,12.249" sodipodi:nodetypes="cc" opacity="0.2" fill="none" stroke="#ffffff" stroke-linecap="round" stroke-width="3.067"/>
    <path sodipodi:nodetypes="cc" d="m 38.5,-2 3.491001,12.249" id="path6072" inkscape:connector-curvature="0" opacity="0.8" fill="none" stroke="#000000" stroke-linecap="round" stroke-width="3.067"/>
    <path transform="translate(-1.7666625,-15.5)" d="m 45.5,27.25 a 2.75,2.75 0 1 1 -5.5,0 2.75,2.75 0 1 1 5.5,0 z" sodipodi:ry="2.75" sodipodi:rx="2.75" sodipodi:cy="27.25" sodipodi:cx="42.75" id="path6296" sodipodi:type="arc" opacity="0.41" fill="none" stroke="#ffffff" stroke-width="3.067"/>
    <path transform="translate(0,-16)" sodipodi:nodetypes="cczccc" inkscape:connector-curvature="0" id="path4482" d="M 17.456699,22.897709 23,9 c 0,0 0.5,-1 5.5,-1 5,0 6,1 6,1 l 5.09798,14.030292 0,0" opacity="0.2" fill="none" stroke="url(#linearGradient6520)" stroke-width="1.533"/>
    <path transform="translate(0,-16)" d="M 17.456699,22.897709 23,9 c 0,0 0.5,-1 5.5,-1 5,0 6,1 6,1 l 5.09798,14.030292 0,0" id="path6075" inkscape:connector-curvature="0" sodipodi:nodetypes="cczccc" opacity="0.2" fill="url(#linearGradient6522)"/>
    <path sodipodi:nodetypes="cczccc" inkscape:connector-curvature="0" id="path6101" d="M 16.190036,6.897709 19.733337,-0.5 c 0,0 3,-1.5 8,-1.5 5,0 7,1.5 7,1.5 l 3.59798,7.530292 0,0"/>
    <path transform="translate(0,-16)" d="M 17.456699,22.897709 21,15.5 c 0,0 3,-1.5 8,-1.5 5,0 7,1.5 7,1.5 l 3.59798,7.530292 0,0" id="path6103" inkscape:connector-curvature="0" sodipodi:nodetypes="cczccc" opacity="0.3" fill="none" stroke="#ffffff" stroke-width="1.533"/>
    <path transform="translate(0,-16)" sodipodi:type="arc" id="path6161" sodipodi:cx="8" sodipodi:cy="14.25" sodipodi:rx="4.5" sodipodi:ry="1.75" d="M 12.5,14.25 C 12.5,15.216498 10.485281,16 8,16 5.5147186,16 3.5,15.216498 3.5,14.25 3.5,13.283502 5.5147186,12.5 8,12.5 c 2.485281,0 4.5,0.783502 4.5,1.75 z" opacity="0.41" fill="none" stroke="#000000" stroke-width="6.133"/>
    <path transform="translate(0,-16)" d="M 12.5,14.25 C 12.5,15.216498 10.485281,16 8,16 5.5147186,16 3.5,15.216498 3.5,14.25 3.5,13.283502 5.5147186,12.5 8,12.5 c 2.485281,0 4.5,0.783502 4.5,1.75 z" sodipodi:ry="1.75" sodipodi:rx="4.5" sodipodi:cy="14.25" sodipodi:cx="8" id="path6137" sodipodi:type="arc" fill="url(#radialGradient6524)"/>
    <path transform="matrix(0.77777778,0,0,0.77777778,1.7777778,-13.722222)" d="M 12.5,14.25 C 12.5,15.216498 10.485281,16 8,16 5.5147186,16 3.5,15.216498 3.5,14.25 3.5,13.283502 5.5147186,12.5 8,12.5 c 2.485281,0 4.5,0.783502 4.5,1.75 z" sodipodi:ry="1.75" sodipodi:rx="4.5" sodipodi:cy="14.25" sodipodi:cx="8" id="path6163" sodipodi:type="arc" opacity="0.41" fill="none" stroke="#000000" stroke-width="3.943"/>
    <path sodipodi:type="arc" id="path6157" sodipodi:cx="8" sodipodi:cy="14.25" sodipodi:rx="4.5" sodipodi:ry="1.75" d="M 12.5,14.25 C 12.5,15.216498 10.485281,16 8,16 5.5147186,16 3.5,15.216498 3.5,14.25 3.5,13.283502 5.5147186,12.5 8,12.5 c 2.485281,0 4.5,0.783502 4.5,1.75 z" transform="matrix(0.77777778,0,0,0.77777778,1.7777778,-13.722222)" fill="url(#radialGradient6526)"/>
    <path transform="translate(0,-16)" d="m 25,4.6375046 c -3.341509,0 -4.419322,5.3286155 -5.4375,8.8624954 -2.126738,0.546861 -4.271523,0.93129 -6.5625,0 0,0 -2.888889,-1 -6,-1 -2.0833333,0 -3.2258989,0.538399 -3.84375,1.15625 C 2.4439327,14.54273 2.1829502,15.641667 2,16.5625 1.7423825,18.237014 1.5,21.487179 1.5,28 l 0,10 c 0,0 0.00489,1.318376 0.40625,2.65625 0.2006811,0.668937 0.5042062,1.355368 1,1.90625 0.4834395,0.537155 1.1726875,0.918408 2.03125,0.9375 0.02194,4.88e-4 0.040351,0 0.0625,0 6.523386,0.631199 10.05656,-0.756207 14.71875,-1 l 0.03125,0 23.25,0 c 1.208632,0 2.30392,-0.35294 3.125,-0.96875 C 46.94608,40.91544 47.5,40.009901 47.5,39 l 0,-20 C 47.098358,16.642033 45.636106,13.257828 41,13.5 l -2.40625,0 C 37.35752,9.7572489 36.594181,4.6277581 32.5,4.6375046 z" id="path6173" inkscape:connector-curvature="0" sodipodi:nodetypes="sccsccscssscccsssccccs" opacity="0.81" fill="none" stroke="#000000" stroke-width="3.067"/>
    <rect transform="translate(0,-16)" clip-path="url(#clipPath5972)" y="4" x="42" height="44" width="12" id="rect6270" opacity="0.2" fill="url(#linearGradient6286)" rx="0"/>
    <path transform="translate(-1.7666625,-15)" d="m 45.5,27.25 a 2.75,2.75 0 1 1 -5.5,0 2.75,2.75 0 1 1 5.5,0 z" sodipodi:ry="2.75" sodipodi:rx="2.75" sodipodi:cy="27.25" sodipodi:cx="42.75" id="path6290" sodipodi:type="arc" fill="#585858"/>
    <path sodipodi:type="arc" id="path6292" sodipodi:cx="42.75" sodipodi:cy="27.25" sodipodi:rx="2.75" sodipodi:ry="2.75" d="m 45.5,27.25 a 2.75,2.75 0 1 1 -5.5,0 2.75,2.75 0 1 1 5.5,0 z" transform="translate(-1.7666625,-15)" fill="none" stroke="#171717" stroke-width="3.067"/>
    <path transform="matrix(0.36363636,0,0,0.36363636,25.687882,2.090909)" d="m 45.5,27.25 a 2.75,2.75 0 1 1 -5.5,0 2.75,2.75 0 1 1 5.5,0 z" sodipodi:ry="2.75" sodipodi:rx="2.75" sodipodi:cy="27.25" sodipodi:cx="42.75" id="path6294" sodipodi:type="arc" opacity="0.41" fill="none" stroke="#000000" stroke-width="8.433"/>
    <rect transform="translate(0,-16)" y="4.5" x="25" height="2" width="1" id="rect6300" fill="#6e6e6e"/>
    <rect id="rect6302" width="1" height="2" x="32" y="-11.5" fill="#6e6e6e"/>
    <rect id="rect6304" width="0.5" height="2" x="25" y="-11.5" opacity="0.3" fill="#ffffff"/>
    <rect y="-11.5" x="32.5" height="2" width="0.5" id="rect6306" opacity="0.3" fill="#ffffff"/>
    <path transform="matrix(0,0.97907096,-1.0250676,0,57.810133,-14.866386)" d="m 42.24963,29.35006 a 13.788582,13.169864 0 1 1 -27.577164,0 13.788582,13.169864 0 1 1 27.577164,0 z" sodipodi:ry="13.169864" sodipodi:rx="13.788582" sodipodi:cy="29.35006" sodipodi:cx="28.461048" id="path3284" sodipodi:type="arc" fill="url(#linearGradient6530)"/>
    <path sodipodi:type="arc" id="path4180" sodipodi:cx="28.461048" sodipodi:cy="29.35006" sodipodi:rx="13.788582" sodipodi:ry="13.169864" d="m 42.24963,29.35006 a 13.788582,13.169864 0 1 1 -27.577164,0 13.788582,13.169864 0 1 1 27.577164,0 z" transform="matrix(0,0.79776149,-0.83524023,0,52.247687,-9.7051286)" opacity="0.8" fill="url(#linearGradient6532)"/>
    <path inkscape:connector-curvature="0" id="path4170" d="m 27.724338,0.499 c -6.903559,0 -12.5,5.596441 -12.5,12.5 0,6.903559 5.596441,12.5 12.5,12.5 6.903559,0 12.5,-5.596441 12.5,-12.5 0,-6.903559 -5.596441,-12.5 -12.5,-12.5 z m 0,0.5 c 6.627417,0 12,5.372583 12,12 0,6.627417 -5.372583,12 -12,12 -6.627417,0 -12,-5.372583 -12,-12 0,-6.627417 5.372583,-12 12,-12 z" opacity="0.8"/>
    <path transform="translate(-0.7756613,-16.501)" d="m 37,29.5 a 8.5,8.5 0 1 1 -17,0 8.5,8.5 0 1 1 17,0 z" sodipodi:ry="8.5" sodipodi:rx="8.5" sodipodi:cy="29.5" sodipodi:cx="28.5" id="path4138" sodipodi:type="arc" fill="#080808"/>
    <path transform="matrix(0,1,-1,0,57.224338,-15.501)" d="m 35,29.5 a 6.5,6.5 0 1 1 -13,0 6.5,6.5 0 1 1 13,0 z" sodipodi:ry="6.5" sodipodi:rx="6.5" sodipodi:cy="29.5" sodipodi:cx="28.5" id="path4090" sodipodi:type="arc" fill="url(#linearGradient6534)"/>
    <path transform="matrix(0.6,0,0,0.6,10.624338,-4.701)" d="m 31,29.5 a 2.5,2.5 0 1 1 -5,0 2.5,2.5 0 1 1 5,0 z" sodipodi:ry="2.5" sodipodi:rx="2.5" sodipodi:cy="29.5" sodipodi:cx="28.5" id="path4072" sodipodi:type="arc" fill="url(#radialGradient6536)"/>
    <path sodipodi:type="arc" id="path4084" sodipodi:cx="28.5" sodipodi:cy="29.5" sodipodi:rx="2.5" sodipodi:ry="2.5" d="m 31,29.5 a 2.5,2.5 0 1 1 -5,0 2.5,2.5 0 1 1 5,0 z" transform="matrix(0.6,0,0,0.6,10.624338,-4.701)" opacity="0.61" fill="none" stroke="#000000" stroke-width="2.556"/>
    <path transform="matrix(0,1,-1,0,57.224338,-15.501)" d="m 35,29.5 a 6.5,6.5 0 1 1 -13,0 6.5,6.5 0 1 1 13,0 z" sodipodi:ry="6.5" sodipodi:rx="6.5" sodipodi:cy="29.5" sodipodi:cx="28.5" id="path4246" sodipodi:type="arc" opacity="0.1" fill="url(#linearGradient6538)"/>
    <path transform="matrix(0,1.4,-1.4,0,69.024338,-26.901)" d="m 31,29.5 a 2.5,2.5 0 1 1 -5,0 2.5,2.5 0 1 1 5,0 z" sodipodi:ry="2.5" sodipodi:rx="2.5" sodipodi:cy="29.5" sodipodi:cx="28.5" id="path4100" sodipodi:type="arc" opacity="0.1" fill="none" stroke="url(#linearGradient6540)" stroke-width="1.095"/>
    <path sodipodi:type="arc" id="path4114" sodipodi:cx="28.5" sodipodi:cy="29.5" sodipodi:rx="2.5" sodipodi:ry="2.5" d="m 31,29.5 a 2.5,2.5 0 1 1 -5,0 2.5,2.5 0 1 1 5,0 z" transform="matrix(-2.2,0,0,-2.2,90.424338,77.899)" opacity="0.1" fill="none" stroke="url(#linearGradient6542)" stroke-width="0.697"/>
    <path sodipodi:type="arc" id="path4118" sodipodi:cx="28.5" sodipodi:cy="29.5" sodipodi:rx="2.5" sodipodi:ry="2.5" d="m 31,29.5 a 2.5,2.5 0 1 1 -5,0 2.5,2.5 0 1 1 5,0 z" transform="matrix(0,1.2,-1.2,0,63.124338,-21.201)" opacity="0.2" fill="none" stroke="url(#linearGradient6544)" stroke-width="1.278"/>
    <path sodipodi:type="arc" id="path4128" sodipodi:cx="28.5" sodipodi:cy="29.5" sodipodi:rx="6.5" sodipodi:ry="6.5" d="m 35,29.5 a 6.5,6.5 0 1 1 -13,0 6.5,6.5 0 1 1 13,0 z" transform="matrix(0,1,-1,0,57.224338,-15.501)" fill="none" stroke="url(#linearGradient6546)" stroke-width="1.533"/>
    <path sodipodi:type="arc" id="path4140" sodipodi:cx="28.5" sodipodi:cy="29.5" sodipodi:rx="8.5" sodipodi:ry="8.5" d="m 37,29.5 a 8.5,8.5 0 1 1 -17,0 8.5,8.5 0 1 1 17,0 z" transform="translate(-0.7756613,-16.501)" opacity="0.6" fill="url(#radialGradient6548)"/>
    <path transform="translate(-0.7756613,-16.501)" d="m 37,29.5 a 8.5,8.5 0 1 1 -17,0 8.5,8.5 0 1 1 17,0 z" sodipodi:ry="8.5" sodipodi:rx="8.5" sodipodi:cy="29.5" sodipodi:cx="28.5" id="path4154" sodipodi:type="arc" fill="none" stroke="#000000" stroke-width="3.067"/>
    <path sodipodi:type="arc" id="path4200" sodipodi:cx="28.461048" sodipodi:cy="29.35006" sodipodi:rx="13.788582" sodipodi:ry="13.169864" d="m 42.24963,29.35006 a 13.788582,13.169864 0 1 1 -27.577164,0 13.788582,13.169864 0 1 1 27.577164,0 z" transform="matrix(0,0.97907096,-1.0250676,0,57.810133,-14.866386)" opacity="0.3" fill="none" stroke="url(#linearGradient6550)" stroke-width="3.067"/>
    <path transform="matrix(0,1.5769231,-1.5769231,0,74.243569,-31.943309)" d="m 35,29.5 a 6.5,6.5 0 1 1 -13,0 6.5,6.5 0 1 1 13,0 z" sodipodi:ry="6.5" sodipodi:rx="6.5" sodipodi:cy="29.5" sodipodi:cx="28.5" id="path4296" sodipodi:type="arc" opacity="0.4" fill="none" stroke="url(#linearGradient6552)" stroke-width="0.972"/>
    <path transform="matrix(0,0.81589243,-0.85422296,0,52.795833,-10.222154)" d="m 42.24963,29.35006 a 13.788582,13.169864 0 1 1 -27.577164,0 13.788582,13.169864 0 1 1 27.577164,0 z" sodipodi:ry="13.169864" sodipodi:rx="13.788582" sodipodi:cy="29.35006" sodipodi:cx="28.461048" id="path4310" sodipodi:type="arc" opacity="0.3" fill="none" stroke="#ffffff" stroke-width="1.837"/>
    <path transform="matrix(0,0.97907096,-1.0250676,0,57.810133,-14.866386)" d="m 42.24963,29.35006 a 13.788582,13.169864 0 1 1 -27.577164,0 13.788582,13.169864 0 1 1 27.577164,0 z" sodipodi:ry="13.169864" sodipodi:rx="13.788582" sodipodi:cy="29.35006" sodipodi:cx="28.461048" id="path4312" sodipodi:type="arc" opacity="0.3" fill="none" stroke="url(#linearGradient6554)" stroke-width="3.067"/>
    <path sodipodi:type="arc" id="path6032" sodipodi:cx="15" sodipodi:cy="17" sodipodi:rx="2" sodipodi:ry="2" d="m 17,17 a 2,2 0 1 1 -4,0 2,2 0 1 1 4,0 z" transform="matrix(0.75,0,0,0.75,2.4833375,-11.75)" fill="url(#radialGradient6556)"/>
    <path sodipodi:type="arc" id="path4330" sodipodi:cx="28.461048" sodipodi:cy="29.35006" sodipodi:rx="13.788582" sodipodi:ry="13.169864" d="m 42.24963,29.35006 a 13.788582,13.169864 0 1 1 -27.577164,0 13.788582,13.169864 0 1 1 27.577164,0 z" transform="matrix(0,1.0006004,1.0476085,0,-2.9141031,-15.344716)" fill="none" stroke="#000000" stroke-width="3"/>
    <path sodipodi:type="arc" id="path4334" sodipodi:cx="28.461048" sodipodi:cy="29.35006" sodipodi:rx="13.788582" sodipodi:ry="13.169864" d="m 42.24963,29.35006 a 13.788582,13.169864 0 1 1 -27.577164,0 13.788582,13.169864 0 1 1 27.577164,0 z" transform="matrix(0.81589243,0,0,0.85422296,4.5031851,-12.072495)" opacity="0.3" fill="none" stroke="url(#linearGradient6560)" stroke-width="1.837"/>
    <path transform="matrix(-0.81589243,0,0,0.85422296,50.945492,-12.072495)" d="m 42.24963,29.35006 a 13.788582,13.169864 0 1 1 -27.577164,0 13.788582,13.169864 0 1 1 27.577164,0 z" sodipodi:ry="13.169864" sodipodi:rx="13.788582" sodipodi:cy="29.35006" sodipodi:cx="28.461048" id="path4344" sodipodi:type="arc" opacity="0.3" fill="none" stroke="url(#linearGradient6560)" stroke-width="1.837"/>
    <path transform="matrix(0.75,0,0,0.75,3.75,-11.75)" d="m 17,17 c 0,1.104569 -0.895431,2 -2,2 -1.104569,0 -2,-0.895431 -2,-2 0,-1.104569 0.895431,-2 2,-2 1.104569,0 2,0.895431 2,2 z" sodipodi:ry="2" sodipodi:rx="2" sodipodi:cy="17" sodipodi:cx="15" id="path4468" sodipodi:type="arc" opacity="0.61" fill="none" stroke="#000000" stroke-width="4.089"/>
    <path inkscape:connector-curvature="0" id="path6264" d="m 13,0.8958204 5.5,0" opacity="0.2" stroke="#ffffff" stroke-linecap="round" stroke-width="3.067"/>
    <path sodipodi:nodetypes="csc" d="m 38.5,0.51248912 c 0,0 2.354384,-0.22062505 3.5,0 0.881333,0.16972904 2.5,0.99999998 2.5,0.99999998" id="path6288" inkscape:connector-curvature="0" opacity="0.2" stroke="#ffffff" stroke-linecap="round" stroke-width="3.067"/>
    <path sodipodi:nodetypes="cc" d="m 24,-7.4395948 9.5,0" id="path6308" inkscape:connector-curvature="0" opacity="0.2" stroke="#ffffff" stroke-linecap="round" stroke-width="3.067"/>
   </g>
  </g>
 </g>
</svg>
