<?xml version='1.0' encoding='UTF-8' standalone='no'?>
<svg height="16" xmlns:inkscape="http://www.inkscape.org/namespaces/inkscape" xmlns:sodipodi="http://sodipodi.sourceforge.net/DTD/sodipodi-0.dtd" version="1.1" width="16" xmlns="http://www.w3.org/2000/svg" enable-background="new">
 <metadata id="metadata90"/>
 <defs id="defs7386">
  <linearGradient id="linearGradient5606" osb:paint="solid">
   <stop id="stop5608"/>
  </linearGradient>
  <filter inkscape:collect="always" color-interpolation-filters="sRGB" id="filter7554">
   <feBlend inkscape:collect="always" id="feBlend7556" in2="BackgroundImage" mode="darken"/>
  </filter>
 </defs>
 <g inkscape:groupmode="layer" id="layer10" inkscape:label="devices" transform="translate(-383.00012,51.031197)" filter="url(#filter7554)">
  <path inkscape:connector-curvature="0" d="m 386.34395,-50 c -0.17828,0.0566 -0.31743,0.22106 -0.34375,0.40625 l -2,10.59375 c -5e-5,1 -5e-5,2 0,3 l 14,0 c -5e-5,-1 -5e-5,-2 0,-3 l -2,-10.59375 c -0.0437,-0.2292 -0.2667,-0.41036 -0.5,-0.40625 l -9,0 c -0.0311,-0.003 -0.0626,-0.003 -0.0937,0 -0.0208,-10e-4 -0.0417,-10e-4 -0.0625,0 z m 0.5625,1 8.1875,0 1.78125,10 -11.75,0 1.78125,-10 z m 4.09375,0.84375 c -0.82843,0 -1.5,0.43305 -1.5,0.96875 0,0.42409 0.41359,0.77444 1,0.90625 l 0,0.375 0,0.21875 0,0.3125 -2.3125,1.1875 -0.1875,0.0625 0,0.15625 0,0.34375 -0.5,0 0,1.28125 2,0 0,-1.28125 -0.5,0 0,-0.1875 1.5,-0.78125 0,2.90625 -1,0 1.5,1.9375 1.5,-1.9375 -1,0 0,-3.53125 1.5,0.75 0,0.28125 c -0.292,0.11291 -0.5,0.32649 -0.5,0.5625 0,0.35713 0.44772,0.65625 1,0.65625 0.55228,0 1,-0.29912 1,-0.65625 0,-0.236 -0.208,-0.44959 -0.5,-0.5625 l 0,-0.40625 0,-0.15625 -0.1875,-0.0937 -2.3125,-1.1875 0,-0.0312 0,-0.15625 0,-0.0625 c 0.58641,-0.13181 1,-0.48216 1,-0.90625 0,-0.5357 -0.67157,-0.96875 -1.5,-0.96875 z m -6,10.15625 12,0 0,1 -12,0 0,-1 z" id="path4018" fill="#bebebe" color="#bebebe" stroke-width="4"/>
 </g>
</svg>
