<?xml version='1.0' encoding='UTF-8' standalone='no'?>
<svg height="16" xmlns:inkscape="http://www.inkscape.org/namespaces/inkscape" xmlns:sodipodi="http://sodipodi.sourceforge.net/DTD/sodipodi-0.dtd" version="1.1" width="16" xmlns="http://www.w3.org/2000/svg" enable-background="new">
 <metadata id="metadata90"/>
 <defs id="defs7386">
  <linearGradient id="linearGradient5606" osb:paint="solid">
   <stop id="stop5608"/>
  </linearGradient>
  <filter inkscape:collect="always" color-interpolation-filters="sRGB" id="filter7554">
   <feBlend inkscape:collect="always" id="feBlend7556" in2="BackgroundImage" mode="darken"/>
  </filter>
 </defs>
 <g inkscape:groupmode="layer" id="layer10" inkscape:label="devices" transform="translate(-361.0002,70.999992)" filter="url(#filter7554)">
  <path inkscape:connector-curvature="0" d="m 362.5002,-70 c -0.831,0 -1.5,0.669 -1.5,1.5 l 0,9 c 0,0.831 0.669,1.5 1.5,1.5 l 0.5,0 0,-1 -0.5,0 c -0.277,0 -0.5,-0.223 -0.5,-0.5 0,-0.277 0.223,-0.5 0.5,-0.5 l 0.5,0 12,0 0.5,0 c 0.277,0 0.5,0.223 0.5,0.5 0,0.277 -0.223,0.5 -0.5,0.5 l -0.5,0 0,1 0.5,0 c 0.831,0 1.5,-0.669 1.5,-1.5 l 0,-9 c 0,-0.831 -0.669,-1.5 -1.5,-1.5 z" id="path5892" sodipodi:nodetypes="ssssccsssccsssccsssss" fill="#bebebe"/>
  <path inkscape:connector-curvature="0" d="m 364.09395,-59 c 0.46623,2.27841 2.49001,4 4.90625,4 2.41624,0 4.44002,-1.72159 4.90625,-4 l -2.09375,0 c -0.41551,1.15835 -1.51118,2 -2.8125,2 -1.30132,0 -2.39699,-0.84165 -2.8125,-2 z m 3.1875,0 c 0.34604,0.5969 0.97915,1 1.71875,1 0.7396,0 1.37271,-0.4031 1.71875,-1 z" id="rect6895-2" sodipodi:nodetypes="csccscccscc" fill="#bebebe" color="#000000"/>
 </g>
</svg>
