<?xml version='1.0' encoding='UTF-8' standalone='no'?>
<svg height="16" xmlns:inkscape="http://www.inkscape.org/namespaces/inkscape" xmlns:sodipodi="http://sodipodi.sourceforge.net/DTD/sodipodi-0.dtd" version="1.1" width="16" xmlns="http://www.w3.org/2000/svg" enable-background="new">
 <metadata id="metadata90"/>
 <defs id="defs7386">
  <linearGradient id="linearGradient5606" osb:paint="solid">
   <stop id="stop5608"/>
  </linearGradient>
  <filter inkscape:collect="always" color-interpolation-filters="sRGB" id="filter7554">
   <feBlend inkscape:collect="always" id="feBlend7556" in2="BackgroundImage" mode="darken"/>
  </filter>
 </defs>
 <g inkscape:groupmode="layer" id="layer10" inkscape:label="devices" transform="translate(-382.00015,51.031197)" filter="url(#filter7554)">
  <path inkscape:connector-curvature="0" d="m 389.5002,-50 c -0.82843,0 -1.5,0.67157 -1.5,1.5 0,0.65584 0.41359,1.20241 1,1.40625 l 0,0.59375 0,0.3125 0,0.46875 -2.3125,1.84375 -0.1875,0.125 0,0.25 0,0.5 -0.5,0 0,2 2,0 0,-2 -0.5,0 0,-0.28125 1.5,-1.1875 0,4.46875 -1,0 1.5,3 1.5,-3 -1,0 0,0 0,-5.46875 1.5,1.1875 0,0.4375 c -0.292,0.17461 -0.5,0.47878 -0.5,0.84375 0,0.55228 0.44772,1 1,1 0.55228,0 1,-0.44772 1,-1 0,-0.36497 -0.208,-0.66914 -0.5,-0.84375 l 0,-0.65625 0,-0.25 -0.1875,-0.125 -2.3125,-1.84375 0,-0.0312 0,-0.25 0,-0.0937 c 0.58641,-0.20384 1,-0.75041 1,-1.40625 0,-0.82843 -0.67157,-1.5 -1.5,-1.5 z" id="path4018" sodipodi:nodetypes="ssccccccccccccccccccccccccsssccccccccss" fill="#bebebe" color="#bebebe" stroke-width="4"/>
 </g>
</svg>
