<?xml version="1.0" encoding="UTF-8" standalone="no"?>
<svg
   xmlns:dc="http://purl.org/dc/elements/1.1/"
   xmlns:cc="http://creativecommons.org/ns#"
   xmlns:rdf="http://www.w3.org/1999/02/22-rdf-syntax-ns#"
   xmlns:svg="http://www.w3.org/2000/svg"
   xmlns="http://www.w3.org/2000/svg"
   xmlns:xlink="http://www.w3.org/1999/xlink"
   version="1.0"
   width="16"
   height="16"
   id="svg3786">
  <metadata
     id="metadata39">
    <rdf:RDF>
      <cc:Work
         rdf:about="">
        <dc:format>image/svg+xml</dc:format>
        <dc:type
           rdf:resource="http://purl.org/dc/dcmitype/StillImage" />
        <dc:title />
      </cc:Work>
    </rdf:RDF>
  </metadata>
  <defs
     id="defs3788">
    <linearGradient
       x1="17.740999"
       y1="24.049999"
       gradientTransform="matrix(0.99778,0,0,0.88551429,0.053179,4.2043715)"
       x2="11.218"
       gradientUnits="userSpaceOnUse"
       y2="12.883"
       id="linearGradient3106">
      <stop
         offset="0"
         style="stop-color:#acacac;stop-opacity:1;"
         id="stop3108" />
      <stop
         id="stop3110"
         style="stop-color:#b6b6b6;stop-opacity:1;"
         offset="0.08333334" />
      <stop
         id="stop3112"
         style="stop-color:#d9d9d9;stop-opacity:1;"
         offset="0.08333334" />
      <stop
         offset="1"
         style="stop-color:#d4d4d4;stop-opacity:1;"
         id="stop3114" />
    </linearGradient>
    <linearGradient
       y2="15"
       x2="25.25"
       y1="39"
       x1="25.25"
       gradientTransform="translate(-1,8)"
       gradientUnits="userSpaceOnUse"
       id="linearGradient4072"
       xlink:href="#linearGradient3106" />
  </defs>
  <g
     transform="translate(0,-32)"
     style="display:inline"
     id="layer1">
    <path
       id="rect6431"
       d="M 2,32.5 0.5,45 l 0,1.5 15,0 0,-1.53125 L 14,32.5 z"
       style="fill:url(#linearGradient4072);fill-opacity:1;fill-rule:evenodd;stroke:none;enable-background:new" />
    <rect
       ry="0"
       y="44"
       x="1"
       height="1"
       width="14"
       id="rect3875"
       style="opacity:0.41000001;fill:#ffffff;fill-opacity:1;stroke:none" />
    <path
       style="opacity:0.41000001;fill:none;stroke:#000000;stroke-linejoin:round;stroke-opacity:1;enable-background:new"
       d="M 2,32.5 0.5,45 l 0,1.5 15,0 0,-1.53125 L 14,32.5 z"
       id="path3116" />
    <path
       id="path3907"
       transform="translate(0,32)"
       d="M 2.4375,1 1,12.96875 1.09375,13.21875 2.4375,2 13.5625,2 14.90625,13.21875 15,12.9375 13.5625,1 z"
       style="opacity:0.2;fill:#ffffff;fill-opacity:1;fill-rule:evenodd;stroke:none;enable-background:new" />
    <path
       id="path3923"
       transform="translate(0,32)"
       d="M 3.5 1 C 3.2238576 1 3 1.2238576 3 1.5 C 3 1.7761424 3.2238576 2 3.5 2 C 3.7761424 2 4 1.7761424 4 1.5 C 4 1.2238576 3.7761424 1 3.5 1 z M 12.5 1 C 12.223858 1 12 1.2238576 12 1.5 C 12 1.7761424 12.223858 2 12.5 2 C 12.776142 2 13 1.7761424 13 1.5 C 13 1.2238576 12.776142 1 12.5 1 z M 2.5 11 C 2.2238576 11 2 11.223858 2 11.5 C 2 11.776142 2.2238576 12 2.5 12 C 2.7761424 12 3 11.776142 3 11.5 C 3 11.223858 2.7761424 11 2.5 11 z M 13.5 11 C 13.223858 11 13 11.223858 13 11.5 C 13 11.776142 13.223858 12 13.5 12 C 13.776142 12 14 11.776142 14 11.5 C 14 11.223858 13.776142 11 13.5 11 z "
       style="opacity:0.2;fill:#000000;fill-opacity:1;stroke:none" />
  </g>
</svg>
