<?xml version='1.0' encoding='UTF-8' standalone='no'?>
<svg height="16.03" xmlns:inkscape="http://www.inkscape.org/namespaces/inkscape" xmlns:sodipodi="http://sodipodi.sourceforge.net/DTD/sodipodi-0.dtd" version="1.1" width="16" xmlns="http://www.w3.org/2000/svg" enable-background="new">
 <metadata id="metadata90"/>
 <defs id="defs7386">
  <linearGradient id="linearGradient5606" osb:paint="solid">
   <stop id="stop5608"/>
  </linearGradient>
  <filter inkscape:collect="always" color-interpolation-filters="sRGB" id="filter7554">
   <feBlend inkscape:collect="always" id="feBlend7556" in2="BackgroundImage" mode="darken"/>
  </filter>
 </defs>
 <g inkscape:groupmode="layer" id="layer10" inkscape:label="devices" transform="translate(-301.00021,91.031197)" filter="url(#filter7554)">
  <path inkscape:connector-curvature="0" d="m 304.4377,-90 c -0.17828,0.0566 -0.31743,0.22106 -0.34375,0.40625 L 302.00014,-86 l 5e-5,0 c -5e-5,1 -5e-5,2 0,3 l 14.00001,0 c -5e-5,-1 -5e-5,-2 0,-3 l -5e-5,0 -1.9061,-3.59375 c -0.0437,-0.22921 -0.2667,-0.41037 -0.5,-0.40625 l -9,0 c -0.0311,-0.003 -0.0626,-0.003 -0.0937,0 -0.0208,-0.001 -0.0417,-0.001 -0.0625,0 z m 0.5625,1 8.18751,0 1.68744,3 -11.75001,0 z m -2.00006,4 12.00001,0 0,1 -12.00001,0 z" id="rect4970-7" sodipodi:nodetypes="cccccccccccccccccccccccc" fill="#bebebe"/>
  <path inkscape:connector-curvature="0" d="m 302.0002,-75 14,0 0,-3 -14,0 z m 1,-2 12,0 0,1 -12,0 z" id="path5012" sodipodi:nodetypes="cccccccccc" fill="#bebebe"/>
  <path inkscape:connector-curvature="0" d="m 302.0002,-79 14,0 0,-3 -14,0 z m 1,-2 12,0 0,1 -12,0 z" id="path5017" sodipodi:nodetypes="cccccccccc" fill="#bebebe"/>
 </g>
</svg>
