<?xml version='1.0' encoding='UTF-8' standalone='no'?>
<svg height="16" xmlns:inkscape="http://www.inkscape.org/namespaces/inkscape" xmlns:sodipodi="http://sodipodi.sourceforge.net/DTD/sodipodi-0.dtd" version="1.1" width="16" xmlns="http://www.w3.org/2000/svg" enable-background="new">
 <metadata id="metadata90"/>
 <defs id="defs7386">
  <linearGradient id="linearGradient5606" osb:paint="solid">
   <stop id="stop5608"/>
  </linearGradient>
  <filter inkscape:collect="always" color-interpolation-filters="sRGB" id="filter7554">
   <feBlend inkscape:collect="always" id="feBlend7556" in2="BackgroundImage" mode="darken"/>
  </filter>
 </defs>
 <g inkscape:groupmode="layer" id="layer10" inkscape:label="devices" transform="translate(-261.00021,51.031197)" filter="url(#filter7554)">
  <path inkscape:connector-curvature="0" d="m 264.34395,-50 c -0.17828,0.05661 -0.31743,0.22106 -0.34375,0.40625 l -2,10.59375 5e-5,0 c -5e-5,1 -5e-5,2 0,3 l 14,0 c -5e-5,-1 -5e-5,-2 0,-3 l -5e-5,0 -1.9999,-10.59375 c -0.0437,-0.229201 -0.2667,-0.410362 -0.5,-0.40625 l -9,0 c -0.0311,-0.0029 -0.0626,-0.0029 -0.0937,0 -0.0208,-0.0013 -0.0417,-0.0013 -0.0625,0 z m 0.5625,1 8.1875,0 1.78125,10 -11.75,0 z m -1.90625,11 12,0 0,1 -12,0 z" id="rect4970" sodipodi:nodetypes="cccccccccccccccccccccccc" fill="#bebebe"/>
 </g>
</svg>
