<?xml version='1.0' encoding='UTF-8' standalone='no'?>
<svg height="16" xmlns:inkscape="http://www.inkscape.org/namespaces/inkscape" xmlns:sodipodi="http://sodipodi.sourceforge.net/DTD/sodipodi-0.dtd" version="1.1" width="16" xmlns="http://www.w3.org/2000/svg" enable-background="new">
 <metadata id="metadata90"/>
 <defs id="defs7386">
  <linearGradient id="linearGradient5606" osb:paint="solid">
   <stop id="stop5608"/>
  </linearGradient>
  <filter inkscape:collect="always" color-interpolation-filters="sRGB" id="filter7554">
   <feBlend inkscape:collect="always" id="feBlend7556" in2="BackgroundImage" mode="darken"/>
  </filter>
 </defs>
 <g inkscape:groupmode="layer" id="layer10" inkscape:label="devices" transform="translate(-421.00021,71.00002)" filter="url(#filter7554)">
  <path inkscape:connector-curvature="0" d="m 423.00021,-70.00002 c -0.554,0 -1,0.446 -1,1 l 0,11 2,2 1,0 8,0 2,0 c 0.554,0 1,-0.446 1,-1 l 0,-12 c 0,-0.554 -0.446,-1 -1,-1 z m -10e-6,1.00002 12,0 0,12 -2,0 0,-6 -8,0 10e-6,5.99999 -0.25001,1e-5 -1.75,-1.75 z m 6,7 2,0 0,5 -2,0 z" id="rect2989-2" sodipodi:nodetypes="ssccccsssssccccccccccccccc" fill="#bebebe"/>
 </g>
</svg>
