<?xml version='1.0' encoding='UTF-8' standalone='no'?>
<svg height="16" xmlns:inkscape="http://www.inkscape.org/namespaces/inkscape" xmlns:sodipodi="http://sodipodi.sourceforge.net/DTD/sodipodi-0.dtd" version="1.1" width="16" xmlns="http://www.w3.org/2000/svg" enable-background="new">
 <metadata id="metadata90"/>
 <defs id="defs7386">
  <linearGradient id="linearGradient5606" osb:paint="solid">
   <stop id="stop5608"/>
  </linearGradient>
  <filter inkscape:collect="always" color-interpolation-filters="sRGB" id="filter7554">
   <feBlend inkscape:collect="always" id="feBlend7556" in2="BackgroundImage" mode="darken"/>
  </filter>
 </defs>
 <g inkscape:groupmode="layer" id="layer10" inkscape:label="devices" transform="translate(-421.00021,130.99998)" filter="url(#filter7554)">
  <path inkscape:connector-curvature="0" d="m 428.98908,-130.00444 c -3.84231,0 -6.99332,3.15102 -6.99332,6.99332 0,3.8423 3.15101,7.01559 6.99332,7.01559 3.8423,0 7.01559,-3.17329 7.01559,-7.01559 0,-3.8423 -3.17329,-6.99332 -7.01559,-6.99332 z m 0,4.00891 c 1.68054,0 3.00668,1.30387 3.00668,2.98441 0,1.68054 -1.32614,3.00668 -3.00668,3.00668 -1.68055,0 -2.98441,-1.32614 -2.98441,-3.00668 0,-1.68054 1.30386,-2.98441 2.98441,-2.98441 z" id="path39797" color="#bbbbbb" stroke-width="5.613" fill="#bbbbbb"/>
  <path inkscape:connector-curvature="0" d="m 429.00525,-124.99418 c -1.09865,0 -2.01317,0.89789 -2.01317,1.99654 0,1.09864 0.91452,1.99653 2.01317,1.99653 1.09865,0 1.99654,-0.89789 1.99654,-1.99653 0,-1.09865 -0.89789,-1.99654 -1.99654,-1.99654 z m 0,0.99827 c 0.55821,0 0.99827,0.44006 0.99827,0.99827 0,0.5582 -0.44006,0.99826 -0.99827,0.99826 -0.55821,0 -0.99827,-0.44006 -0.99827,-0.99826 0,-0.55821 0.44006,-0.99827 0.99827,-0.99827 z" id="path40342" color="#bbbbbb" stroke-width="1.878" fill="#bbbbbb"/>
 </g>
</svg>
