<?xml version='1.0' encoding='UTF-8' standalone='no'?>
<svg height="16" xmlns:inkscape="http://www.inkscape.org/namespaces/inkscape" xmlns:sodipodi="http://sodipodi.sourceforge.net/DTD/sodipodi-0.dtd" version="1.1" width="16" xmlns="http://www.w3.org/2000/svg" enable-background="new">
 <metadata id="metadata90"/>
 <defs id="defs7386">
  <linearGradient id="linearGradient5606" osb:paint="solid">
   <stop id="stop5608"/>
  </linearGradient>
  <filter inkscape:collect="always" color-interpolation-filters="sRGB" id="filter7554">
   <feBlend inkscape:collect="always" id="feBlend7556" in2="BackgroundImage" mode="darken"/>
  </filter>
 </defs>
 <g inkscape:groupmode="layer" id="layer10" inkscape:label="devices" transform="translate(-321.0002,51)" filter="url(#filter7554)">
  <path inkscape:connector-curvature="0" d="m 328.98907,-50.004457 c -3.84231,0 -6.99332,3.151017 -6.99332,6.993319 0,3.842301 3.15101,7.01559 6.99332,7.01559 3.8423,0 7.01559,-3.173289 7.01559,-7.01559 0,-3.842302 -3.17329,-6.993319 -7.01559,-6.993319 z m 0,4.008909 c 1.68054,0 3.00668,1.303868 3.00668,2.98441 0,1.680541 -1.32614,3.006681 -3.00668,3.006681 -1.68055,0 -2.98441,-1.32614 -2.98441,-3.006681 0,-1.680542 1.30386,-2.98441 2.98441,-2.98441 z" id="path39797" color="#bebebe" stroke-width="5.613" fill="#bebebe"/>
  <path inkscape:connector-curvature="0" d="m 329.00524,-44.994202 c -1.09865,0 -2.01317,0.897888 -2.01317,1.996537 0,1.098649 0.91452,1.996537 2.01317,1.996537 1.09865,0 1.99654,-0.897888 1.99654,-1.996537 0,-1.098649 -0.89789,-1.996537 -1.99654,-1.996537 z m 0,0.998269 c 0.55821,0 0.99827,0.440063 0.99827,0.998268 0,0.558205 -0.44006,0.998269 -0.99827,0.998269 -0.55821,0 -0.99827,-0.440064 -0.99827,-0.998269 0,-0.558205 0.44006,-0.998268 0.99827,-0.998268 z" id="path40342" color="#bebebe" stroke-width="1.878" fill="#bebebe"/>
 </g>
</svg>
