<?xml version='1.0' encoding='UTF-8' standalone='no'?>
<svg height="16" xmlns:inkscape="http://www.inkscape.org/namespaces/inkscape" xmlns:sodipodi="http://sodipodi.sourceforge.net/DTD/sodipodi-0.dtd" version="1.1" width="16" xmlns="http://www.w3.org/2000/svg" enable-background="new">
 <metadata id="metadata90"/>
 <defs id="defs7386">
  <linearGradient id="linearGradient5606" osb:paint="solid">
   <stop id="stop5608"/>
  </linearGradient>
  <filter inkscape:collect="always" color-interpolation-filters="sRGB" id="filter7554">
   <feBlend inkscape:collect="always" id="feBlend7556" in2="BackgroundImage" mode="darken"/>
  </filter>
 </defs>
 <g inkscape:groupmode="layer" id="layer10" inkscape:label="devices" transform="translate(-400.99878,91)" filter="url(#filter7554)">
  <path inkscape:connector-curvature="0" d="m 403.99876,-90 10e-4,5 -1,0 c -1,0 -1,1 -1,1 l -4.4e-4,3 14,0 4.4e-4,-3 c 0,0 0.108,-1 -1,-1 l -1,0 -10e-4,-5 z m 1,1 8,0 10e-4,4 -8,0 z m -0.99712,5 1,0 0,1 -1,0 z" id="path5113" sodipodi:nodetypes="ccsccccsccccccccccccc" fill="#bebebe" color="#000000" stroke-width="4"/>
  <path inkscape:connector-curvature="0" d="m 402.0002,-80 0,2 c 0,1 1,1 1,1 l 5,0 0,2 2,0 0,-2 5,0 c 0,0 1,0 1,-1 l 0,-2 z m 1,1 3,0 0,1 -3,0 z" id="path7472-5" sodipodi:nodetypes="csccccccsccccccc" fill="#bebebe" fill-rule="evenodd" color="#000000" stroke-width="2"/>
 </g>
</svg>
