<?xml version='1.0' encoding='UTF-8' standalone='no'?>
<svg height="16" xmlns:inkscape="http://www.inkscape.org/namespaces/inkscape" xmlns:sodipodi="http://sodipodi.sourceforge.net/DTD/sodipodi-0.dtd" version="1.1" width="16" xmlns="http://www.w3.org/2000/svg" enable-background="new">
 <metadata id="metadata90"/>
 <defs id="defs7386">
  <linearGradient id="linearGradient5606" osb:paint="solid">
   <stop id="stop5608"/>
  </linearGradient>
  <filter inkscape:collect="always" color-interpolation-filters="sRGB" id="filter7554">
   <feBlend inkscape:collect="always" id="feBlend7556" in2="BackgroundImage" mode="darken"/>
  </filter>
 </defs>
 <g inkscape:groupmode="layer" id="layer10" inkscape:label="devices" transform="translate(-261.0002,90)" filter="url(#filter7554)">
  <path inkscape:connector-curvature="0" d="m 262.0002,-90 c -0.99979,0 -1,1 -1,1 l 0,11 c 0,1 1,1 1,1 l 14,0 c 1.00021,0 1,-1 1,-1 l 0,-11 c 0,0 0,-1 -1,-1 z m 0,1 14,0 0,11 -14,0 z" id="path9367-9-8" sodipodi:nodetypes="scscsccssccccc" fill="#bebebe"/>
  <path inkscape:connector-curvature="0" d="m 265.0002,-74 -9e-5,-6e-5 8,0 0,0 c 0,-1.06066 -1,-1 -1,-1 l -0.99991,6e-5 0,-1 -4,0 0,1 -1,0 c 0,0 -0.99991,6e-5 -1,1 z" id="path9369-9-0" sodipodi:nodetypes="ccccccccccc" fill="#bebebe" color="#bebebe" stroke-width="1.2"/>
 </g>
</svg>
