<?xml version='1.0' encoding='UTF-8' standalone='no'?>
<svg height="48" xmlns:inkscape="http://www.inkscape.org/namespaces/inkscape" xmlns:sodipodi="http://sodipodi.sourceforge.net/DTD/sodipodi-0.dtd" version="1.1" width="48" xmlns="http://www.w3.org/2000/svg">
 <metadata id="metadata90"/>
 <g inkscape:groupmode="layer" id="layer9" inkscape:label="status" transform="translate(-337.0002,-137)">
  <path inkscape:connector-curvature="0" d="m 355.00019,155 0,16 12,0 0,-16 z" id="path3179" sodipodi:nodetypes="ccccc" opacity="0.35" fill="#ffffff"/>
  <path inkscape:connector-curvature="0" d="m 357.00019,147 0,2 8,0 0,-2 z m -4.3125,4 c -0.5625,0.0938 -1.6875,0.5 -1.6875,2 l 0,20 c 0,2 2,2 2,2 l 16,0 c 2,0 2,-2 2,-2 l 0,-20 c 0,0 0,-2 -2,-2 l -16,0 c 0,0 -0.125,-0.0312 -0.3125,0 z m 0.3125,2 16,0 0,20 -16,0 z m 2,10 0,8 12,0 0,-8 z" id="path3183" sodipodi:nodetypes="ccccccsscsccscccccccccccc" fill="#ffffff"/>
 </g>
</svg>
