<?xml version="1.0" encoding="UTF-8" standalone="no"?>
<svg
   xmlns:dc="http://purl.org/dc/elements/1.1/"
   xmlns:cc="http://creativecommons.org/ns#"
   xmlns:rdf="http://www.w3.org/1999/02/22-rdf-syntax-ns#"
   xmlns:svg="http://www.w3.org/2000/svg"
   xmlns="http://www.w3.org/2000/svg"
   xmlns:xlink="http://www.w3.org/1999/xlink"
   version="1.1"
   width="48"
   height="48"
   id="svg3759">
  <metadata
     id="metadata37">
    <rdf:RDF>
      <cc:Work
         rdf:about="">
        <dc:format>image/svg+xml</dc:format>
        <dc:type
           rdf:resource="http://purl.org/dc/dcmitype/StillImage" />
        <dc:title />
      </cc:Work>
    </rdf:RDF>
  </metadata>
  <defs
     id="defs3761">
    <linearGradient
       id="linearGradient3907">
      <stop
         style="stop-color:#ffffff;stop-opacity:1;"
         offset="0"
         id="stop3909" />
      <stop
         style="stop-color:#b6b6b6;stop-opacity:1"
         offset="1"
         id="stop3911" />
    </linearGradient>
    <linearGradient
       id="linearGradient3894">
      <stop
         style="stop-color:#ffffff;stop-opacity:1;"
         offset="0"
         id="stop3896" />
      <stop
         style="stop-color:#ffffff;stop-opacity:0;"
         offset="1"
         id="stop3898" />
    </linearGradient>
    <linearGradient
       id="linearGradient3881">
      <stop
         style="stop-color:#2d2d2d;stop-opacity:1"
         offset="0"
         id="stop3883" />
      <stop
         style="stop-color:#3f3f3f;stop-opacity:1"
         offset="1"
         id="stop3885" />
    </linearGradient>
    <linearGradient
       id="linearGradient3828">
      <stop
         id="stop3830"
         offset="0"
         style="stop-color:#676767;stop-opacity:1;" />
      <stop
         id="stop3832"
         offset="1"
         style="stop-color:#676767;stop-opacity:1;" />
    </linearGradient>
    <linearGradient
       xlink:href="#outerBackgroundGradient-0"
       id="linearGradient3874"
       gradientUnits="userSpaceOnUse"
       gradientTransform="matrix(0,-1,-1,0,48.000003,48.000003)"
       x1="4.5000033"
       y1="24"
       x2="43.500004"
       y2="24" />
    <linearGradient
       id="outerBackgroundGradient-0">
      <stop
         style="stop-color:#c3c3c3;stop-opacity:1;"
         offset="0"
         id="stop3864-8-6-3" />
      <stop
         style="stop-color:#ebebeb;stop-opacity:1;"
         offset="1"
         id="stop3866-9-1-7" />
    </linearGradient>
    <linearGradient
       xlink:href="#linearGradient3828"
       id="linearGradient3811"
       x1="9"
       y1="23"
       x2="37"
       y2="23"
       gradientUnits="userSpaceOnUse"
       gradientTransform="matrix(0,1.1428571,-1.1428571,0,50.285717,-2.2857144)" />
    <linearGradient
       xlink:href="#outerBackgroundGradient-0"
       id="linearGradient3826"
       gradientUnits="userSpaceOnUse"
       gradientTransform="matrix(0,0.99999997,-0.99999997,0,47,0.9999998)"
       x1="9"
       y1="23"
       x2="37"
       y2="23" />
    <clipPath
       clipPathUnits="userSpaceOnUse"
       id="clipPath3838">
      <path
         d="M 24.000496,10 C 16.268261,10 10,16.268476 10,23.999824 10,31.73188 16.268332,38 24.000496,38 31.732376,38 38,31.73188 38,23.999824 38,16.268476 31.732376,10 24.000496,10 l 0,0 z"
         id="path3840"
         style="fill:#000000;fill-opacity:1;fill-rule:nonzero;stroke:none" />
    </clipPath>
    <clipPath
       clipPathUnits="userSpaceOnUse"
       id="clipPath3851">
      <path
         id="path3853"
         d="M 24,8 C 15.16316,8 8,15.164174 8,24 8,32.836635 15.163241,40 24,40 32.836434,40 40,32.836635 40,24 40,15.164174 32.836434,8 24,8 z m 0,2 c 7.73188,0 14,6.268652 14,14 0,7.732056 -6.26812,14 -14,14 -7.732164,0 -14,-6.267944 -14,-14 0,-7.731348 6.267765,-14 14,-14 z"
         style="fill:#000000;fill-opacity:1;fill-rule:nonzero;stroke:none" />
    </clipPath>
    <clipPath
       clipPathUnits="userSpaceOnUse"
       id="clipPath3865">
      <path
         d="m 32,24 a 8,8 0 1 1 -16,0 8,8 0 1 1 16,0 z"
         id="path3867"
         style="opacity:0.2;fill:#000000;fill-opacity:1;stroke:none" />
    </clipPath>
    <clipPath
       clipPathUnits="userSpaceOnUse"
       id="clipPath3873">
      <path
         id="path3875"
         d="m 21,13 6,0 0,12.024233 L 25,27 l 2,2 0,6 -6,0 L 21,22.892505 23,21 21,19 z"
         style="fill:#555555;fill-opacity:1;stroke:none" />
    </clipPath>
    <linearGradient
       xlink:href="#linearGradient3881"
       id="linearGradient3887"
       x1="24"
       y1="14"
       x2="24"
       y2="33"
       gradientUnits="userSpaceOnUse" />
    <linearGradient
       xlink:href="#linearGradient3894"
       id="linearGradient3900"
       x1="15"
       y1="24"
       x2="33"
       y2="24"
       gradientUnits="userSpaceOnUse"
       gradientTransform="matrix(0,-1,1,0,0,48)" />
    <linearGradient
       xlink:href="#linearGradient3907"
       id="linearGradient3905"
       gradientUnits="userSpaceOnUse"
       gradientTransform="matrix(0,1.25,-1.25,0,52.75,-4.7500011)"
       x1="9"
       y1="23"
       x2="37"
       y2="23" />
  </defs>
  <g
     id="layer1">
    <path
       style="font-size:medium;font-style:normal;font-variant:normal;font-weight:normal;font-stretch:normal;text-indent:0;text-align:start;text-decoration:none;line-height:normal;letter-spacing:normal;word-spacing:normal;text-transform:none;direction:ltr;block-progression:tb;writing-mode:lr-tb;text-anchor:start;baseline-shift:baseline;opacity:0.05000000000000000;color:#000000;fill:#000000;fill-opacity:1;stroke:#000000;stroke-width:2;marker:none;visibility:visible;display:inline;overflow:visible;enable-background:accumulate;font-family:Sans;-inkscape-font-specification:Sans;stroke-opacity:1;stroke-miterlimit:4;stroke-dasharray:none"
       d="M 24,5 C 12.960351,5 4,13.96111 4,25 4,36.03985 12.960367,45 24,45 35.040018,45 44,36.03988 44,25 44,13.961083 35.04013,5 24,5 z"
       id="path4026" />
    <path
       id="path4024"
       d="M 24,5 C 12.960351,5 4,13.96111 4,25 4,36.03985 12.960367,45 24,45 35.040018,45 44,36.03988 44,25 44,13.961083 35.04013,5 24,5 z"
       style="font-size:medium;font-style:normal;font-variant:normal;font-weight:normal;font-stretch:normal;text-indent:0;text-align:start;text-decoration:none;line-height:normal;letter-spacing:normal;word-spacing:normal;text-transform:none;direction:ltr;block-progression:tb;writing-mode:lr-tb;text-anchor:start;baseline-shift:baseline;opacity:0.1;color:#000000;fill:#000000;fill-opacity:1;stroke:#000000;stroke-width:1;marker:none;visibility:visible;display:inline;overflow:visible;enable-background:accumulate;font-family:Sans;-inkscape-font-specification:Sans;stroke-opacity:1" />
    <path
       style="font-size:medium;font-style:normal;font-variant:normal;font-weight:normal;font-stretch:normal;text-indent:0;text-align:start;text-decoration:none;line-height:normal;letter-spacing:normal;word-spacing:normal;text-transform:none;direction:ltr;block-progression:tb;writing-mode:lr-tb;text-anchor:start;baseline-shift:baseline;opacity:0.2;color:#000000;fill:#000000;fill-opacity:1;stroke:none;stroke-width:1;marker:none;visibility:visible;display:inline;overflow:visible;enable-background:accumulate;font-family:Sans;-inkscape-font-specification:Sans"
       d="M 24,5 C 12.960351,5 4,13.96111 4,25 4,36.03985 12.960367,45 24,45 35.040018,45 44,36.03988 44,25 44,13.961083 35.04013,5 24,5 z"
       id="path4018" />
    <path
       style="fill:url(#linearGradient3874);fill-opacity:1.0;fill-rule:nonzero;stroke:none"
       id="path6495"
       d="M 4.5000031,23.999309 C 4.5000031,34.769208 13.231094,43.5 23.999758,43.5 c 10.769649,0 19.500245,-8.730891 19.500245,-19.500691 0,-10.769405 -8.730596,-19.4993089 -19.500245,-19.4993089 -10.768664,0 -19.4997549,8.7299039 -19.4997549,19.4993089 l 0,0 z" />
    <path
       style="fill:url(#linearGradient3905);fill-opacity:1;fill-rule:nonzero;stroke:none"
       id="path3902"
       d="M 24.00062,6.4999999 C 14.335326,6.4999999 6.5,14.335595 6.5,23.99978 6.5,33.66485 14.335415,41.5 24.00062,41.5 33.66547,41.5 41.5,33.66485 41.5,23.99978 41.5,14.335595 33.66547,6.4999999 24.00062,6.4999999 l 0,0 z" />
    <path
       d="m 4.5000031,24.000691 c 0,-10.769899 8.7310909,-19.5006909 19.4997549,-19.5006909 10.769649,0 19.500245,8.7308909 19.500245,19.5006909 C 43.500003,34.770096 34.769407,43.5 23.999758,43.5 13.231094,43.5 4.5000031,34.770096 4.5000031,24.000691 l 0,0 z"
       id="path3796"
       style="fill:none;stroke:#000000;stroke-width:1;stroke-miterlimit:4;stroke-opacity:1;stroke-dasharray:none;opacity:0.61" />
    <path
       style="fill:#ffffff;fill-opacity:1;fill-rule:nonzero;stroke:none;opacity:0.6"
       d="M 24 5 C 13.500552 5 5 13.500823 5 24 C 5 24.169463 5.0268485 24.331605 5.03125 24.5 C 5.299553 14.235412 13.670013 6 24 6 C 34.328993 6 42.700416 14.235427 42.96875 24.5 C 42.973152 24.331604 43 24.169465 43 24 C 43 13.500839 34.498438 5 24 5 z "
       id="path3872" />
    <path
       d="M 24.00057,8 C 15.16373,8 8.0000031,15.163973 8.0000031,23.999799 8.0000031,32.836434 15.163811,40 24.00057,40 32.837004,40 40.000003,32.836434 40.000003,23.999799 40.000003,15.163973 32.837004,8 24.00057,8 l 0,0 z"
       id="path3801"
       style="fill:url(#linearGradient3811);fill-opacity:1.0;fill-rule:nonzero;stroke:none;opacity:1" />
    <path
       style="fill:#000000;fill-opacity:1;fill-rule:nonzero;stroke:none;opacity:0.2"
       d="M 24 8 C 15.16316 8 8 15.164174 8 24 C 8 24.169982 8.0259875 24.331295 8.03125 24.5 C 8.29956 15.899216 15.333146 9 24 9 C 32.666456 9 39.700467 15.899216 39.96875 24.5 C 39.974012 24.331295 40 24.169982 40 24 C 40 15.164174 32.836434 8 24 8 z "
       id="path3817" />
    <path
       id="path3822"
       d="M 24,41 C 15.16316,41 8,33.835826 8,25 8,24.830018 8.0259875,24.668705 8.03125,24.5 8.29956,33.100784 15.333146,40 24,40 32.666456,40 39.700467,33.100784 39.96875,24.5 39.974012,24.668705 40,24.830018 40,25 40,33.835826 32.836434,41 24,41 z"
       style="opacity:1;fill:#ffffff;fill-opacity:1;fill-rule:nonzero;stroke:none" />
    <path
       style="fill:url(#linearGradient3826);fill-opacity:1;fill-rule:nonzero;stroke:none"
       id="path3824"
       d="M 24.000496,10 C 16.268261,10 10,16.268476 10,23.999824 10,31.73188 16.268332,38 24.000496,38 31.732376,38 38,31.73188 38,23.999824 38,16.268476 31.732376,10 24.000496,10 l 0,0 z" />
    <path
       d="M 24.000496,10 C 16.268261,10 10,16.268476 10,23.999824 10,31.73188 16.268332,38 24.000496,38 31.732376,38 38,31.73188 38,23.999824 38,16.268476 31.732376,10 24.000496,10 l 0,0 z"
       id="path3834"
       style="fill:none;fill-opacity:1;fill-rule:nonzero;stroke:#ffffff;stroke-opacity:1;opacity:0.4"
       clip-path="url(#clipPath3838)" />
    <path
       style="fill:none;fill-opacity:1;fill-rule:nonzero;stroke:#000000;opacity:0.2;stroke-opacity:1"
       d="M 24 8 C 15.16316 8 8 15.164174 8 24 C 8 32.836635 15.163241 40 24 40 C 32.836434 40 40 32.836635 40 24 C 40 15.164174 32.836434 8 24 8 z M 24 10 C 31.73188 10 38 16.268652 38 24 C 38 31.732056 31.73188 38 24 38 C 16.267836 38 10 31.732056 10 24 C 10 16.268652 16.267765 10 24 10 z "
       id="path3842"
       clip-path="url(#clipPath3851)" />
  </g>
  <g
     id="layer2">
    <path
       style="opacity:0.4;fill:url(#linearGradient3900);fill-opacity:1;stroke:none"
       d="m 15,24 c 0,4.970563 4.029437,9 9,9 4.970563,0 9,-4.029437 9,-9 0,-4.970563 -4.029437,-9 -9,-9 -4.970563,0 -9,4.029437 -9,9 z m 1,0 c 0,-4.418278 3.581722,-8 8,-8 4.418278,0 8,3.581722 8,8 0,4.418278 -3.581722,8 -8,8 -4.418278,0 -8,-3.581722 -8,-8 z"
       id="path3889" />
    <path
       style="opacity:0.1;fill:#000000;fill-opacity:1;stroke:none"
       id="path3857"
       d="m 32,24 a 8,8 0 1 1 -16,0 8,8 0 1 1 16,0 z" />
    <path
       d="m 32,24 a 8,8 0 1 1 -16,0 8,8 0 1 1 16,0 z"
       id="path3859"
       style="opacity:0.1;fill:none;fill-opacity:1;stroke:#000000;stroke-opacity:1;stroke-width:2;stroke-miterlimit:4;stroke-dasharray:none"
       clip-path="url(#clipPath3865)" />
    <path
       id="path3861"
       d="m 21,14 6,0 0,10.024233 L 25,26 l 2,2 0,6 -6,0 L 21,21.892505 23,20 21,18 z"
       style="opacity:0.6;fill:#ffffff;fill-opacity:1;stroke:none" />
    <path
       style="fill:url(#linearGradient3887);fill-opacity:1;stroke:none"
       d="m 21,13 6,0 0,12.024233 L 25,27 l 2,2 0,6 -6,0 L 21,22.892505 23,21 21,19 z"
       id="rect3030" />
    <path
       id="path3869"
       d="m 21,13 6,0 0,12.024233 L 25,27 l 2,2 0,6 -6,0 L 21,22.892505 23,21 21,19 z"
       style="fill:none;fill-opacity:1;stroke:#000000;stroke-opacity:1;opacity:0.2"
       clip-path="url(#clipPath3873)" />
    <path
       id="path3879"
       d="m 21,13 6,0 0,12.024233 L 25,27 l 2,2 0,6 -6,0 L 21,22.892505 23,21 21,19 z"
       style="fill:none;fill-opacity:1;stroke:#000000;stroke-opacity:1;opacity:0.05;stroke-width:3;stroke-miterlimit:4;stroke-dasharray:none"
       clip-path="url(#clipPath3873)" />
    <path
       clip-path="url(#clipPath3873)"
       style="fill:none;fill-opacity:1;stroke:#000000;stroke-opacity:1;opacity:0.1;stroke-width:2;stroke-miterlimit:4;stroke-dasharray:none"
       d="m 21,13 6,0 0,12.024233 L 25,27 l 2,2 0,6 -6,0 L 21,22.892505 23,21 21,19 z"
       id="path3877" />
  </g>
</svg>
