<?xml version="1.0" encoding="UTF-8" standalone="no"?>
<svg xmlns="http://www.w3.org/2000/svg" xmlns:xlink="http://www.w3.org/1999/xlink" xmlns:sodipodi="http://sodipodi.sourceforge.net/DTD/sodipodi-0.dtd" xmlns:inkscape="http://www.inkscape.org/namespaces/inkscape" version="1.1" width="48" height="48">
 <metadata id="metadata37"/>
 <defs id="defs3761">
  <linearGradient id="linearGradient4036">
   <stop id="stop4038" stop-color="#1c1c1c"/>
   <stop offset="1" id="stop4040" stop-color="#676767"/>
  </linearGradient>
  <linearGradient inkscape:collect="always" id="linearGradient4010">
   <stop id="stop4012"/>
   <stop offset="1" id="stop4014" stop-opacity="0"/>
  </linearGradient>
  <linearGradient id="linearGradient3907">
   <stop id="stop3909" stop-color="#ffffff"/>
   <stop offset="1" id="stop3911" stop-color="#b6b6b6"/>
  </linearGradient>
  <linearGradient inkscape:collect="always" id="linearGradient3894">
   <stop id="stop3896" stop-color="#ffffff"/>
   <stop offset="1" id="stop3898" stop-color="#ffffff" stop-opacity="0"/>
  </linearGradient>
  <linearGradient id="linearGradient3881">
   <stop id="stop3883" stop-color="#2d2d2d"/>
   <stop offset="1" id="stop3885" stop-color="#3f3f3f"/>
  </linearGradient>
  <linearGradient id="linearGradient3828">
   <stop id="stop3830" stop-color="#676767"/>
   <stop id="stop3832" offset="1" stop-color="#676767"/>
  </linearGradient>
  <linearGradient inkscape:collect="always" id="linearGradient3805">
   <stop id="stop3807" stop-color="#555555"/>
   <stop offset="1" id="stop3809" stop-color="#555555" stop-opacity="0"/>
  </linearGradient>
  <linearGradient id="linearGradient3810">
   <stop id="stop3812" stop-color="#4cc7e0"/>
   <stop offset="1" id="stop3814" stop-color="#2061be"/>
  </linearGradient>
  <linearGradient id="linearGradient3988">
   <stop id="stop3990" stop-color="#eeeeec"/>
   <stop offset="1" id="stop3992" stop-color="#ffffff"/>
  </linearGradient>
  <radialGradient inkscape:collect="always" xlink:href="#linearGradient26113-9-3-1" id="radialGradient3755" gradientUnits="userSpaceOnUse" gradientTransform="matrix(1,0,0,0.37,0,24.5124)" cx="24.85" cy="38.909" r="20.2"/>
  <linearGradient inkscape:collect="always" id="linearGradient26113-9-3-1">
   <stop id="stop26115-7-7-9" stop-color="#000000"/>
   <stop offset="1" id="stop26117-3-7-8" stop-color="#000000" stop-opacity="0"/>
  </linearGradient>
  <radialGradient r="20.2" cy="38.909" cx="24.85" gradientTransform="matrix(1.00851,0,0,0.373148,-0.211403,24.39)" gradientUnits="userSpaceOnUse" id="radialGradient4274" xlink:href="#linearGradient26113-9-3-1" inkscape:collect="always"/>
  <linearGradient id="outerBackgroundGradient-4">
   <stop id="stop3864-8-6-31" stop-color="#ffcb3d"/>
   <stop offset="1" id="stop3866-9-1-8" stop-color="#ffee87"/>
  </linearGradient>
  <linearGradient inkscape:collect="always" xlink:href="#outerBackgroundGradient-0-8" id="linearGradient3874" gradientUnits="userSpaceOnUse" gradientTransform="matrix(0,-1,-1,0,48.000003,48.000003)" x1="4.5" x2="43.5"/>
  <linearGradient inkscape:collect="always" xlink:href="#linearGradient4073" id="linearGradient4070" gradientUnits="userSpaceOnUse" gradientTransform="matrix(0,-1,1,0,5.0000306e-7,32)" x1="1" x2="31"/>
  <linearGradient id="linearGradient4073">
   <stop id="stop4075" stop-color="#323232"/>
   <stop id="stop4077" offset="1" stop-color="#5a5a5a"/>
  </linearGradient>
  <radialGradient inkscape:collect="always" xlink:href="#linearGradient3901" id="radialGradient3805" gradientUnits="userSpaceOnUse" gradientTransform="matrix(4.5367027e-8,-1.7632481,-1.8653063,0,31.761486,43.251051)" cx="6.16" cy="8.45" r="20"/>
  <linearGradient id="linearGradient3901">
   <stop id="stop3903" stop-color="#d2d2d2"/>
   <stop offset="1" id="stop3905" stop-color="#ffffff"/>
  </linearGradient>
  <linearGradient id="linearGradient3904">
   <stop id="stop3906" stop-color="#234683"/>
   <stop id="stop3908" offset="1" stop-color="#30589e"/>
  </linearGradient>
  <radialGradient inkscape:collect="always" xlink:href="#outerBackgroundGradient" id="radialGradient3805-1" gradientUnits="userSpaceOnUse" gradientTransform="matrix(4.5367027e-8,-1.7632481,-1.8653063,0,31.761486,43.251051)" cx="6.16" cy="8.45" r="20"/>
  <linearGradient id="outerBackgroundGradient">
   <stop id="stop3864-8-6" stop-color="#1450b9"/>
   <stop offset="1" id="stop3866-9-1" stop-color="#5187e6"/>
  </linearGradient>
  <linearGradient inkscape:collect="always" xlink:href="#outerBackgroundGradient-0" id="linearGradient4262" x1="292" x2="332" gradientUnits="userSpaceOnUse" gradientTransform="matrix(0,-1,1,0,68,556)"/>
  <linearGradient id="outerBackgroundGradient-0">
   <stop id="stop3864-8-6-3" stop-color="#c3c3c3"/>
   <stop offset="1" id="stop3866-9-1-7" stop-color="#ebebeb"/>
  </linearGradient>
  <linearGradient x2="332" x1="292" gradientTransform="matrix(0,-1,1,0,-149,343)" gradientUnits="userSpaceOnUse" id="linearGradient3088" xlink:href="#outerBackgroundGradient-0" inkscape:collect="always"/>
  <linearGradient inkscape:collect="always" xlink:href="#linearGradient3828" id="linearGradient3811" x1="9" x2="37" gradientUnits="userSpaceOnUse" gradientTransform="matrix(0,1.1428571,-1.1428571,0,50.285717,-2.2857144)"/>
  <linearGradient inkscape:collect="always" xlink:href="#linearGradient3805" id="linearGradient3815" gradientUnits="userSpaceOnUse" gradientTransform="matrix(0,0.99999997,-0.99999997,0,47,1.5)" x1="9" x2="37"/>
  <linearGradient inkscape:collect="always" xlink:href="#outerBackgroundGradient-0" id="linearGradient3826" gradientUnits="userSpaceOnUse" gradientTransform="matrix(0,0.99999997,-0.99999997,0,47,0.9999998)" x1="9" x2="37"/>
  <clipPath id="clipPath3838">
   <path d="M 24.000496,10 C 16.268261,10 10,16.268476 10,23.999824 10,31.73188 16.268332,38 24.000496,38 31.732376,38 38,31.73188 38,23.999824 38,16.268476 31.732376,10 24.000496,10 l 0,0 z" id="path3840"/>
  </clipPath>
  <clipPath id="clipPath3851">
   <path id="path3853" d="M 24,8 C 15.16316,8 8,15.164174 8,24 8,32.836635 15.163241,40 24,40 32.836434,40 40,32.836635 40,24 40,15.164174 32.836434,8 24,8 z m 0,2 c 7.73188,0 14,6.268652 14,14 0,7.732056 -6.26812,14 -14,14 -7.732164,0 -14,-6.267944 -14,-14 0,-7.731348 6.267765,-14 14,-14 z"/>
  </clipPath>
  <clipPath id="clipPath3865">
   <path d="m 32,24 a 8,8 0 1 1 -16,0 8,8 0 1 1 16,0 z" id="path3867"/>
  </clipPath>
  <clipPath id="clipPath3873">
   <path id="path3875" d="m 21,13 6,0 0,12.024233 L 25,27 l 2,2 0,6 -6,0 L 21,22.892505 23,21 21,19 z"/>
  </clipPath>
  <linearGradient inkscape:collect="always" xlink:href="#linearGradient3881" id="linearGradient3887" y1="14" x2="0" y2="33" gradientUnits="userSpaceOnUse"/>
  <linearGradient inkscape:collect="always" xlink:href="#linearGradient3894" id="linearGradient3900" x1="15" x2="33" gradientUnits="userSpaceOnUse" gradientTransform="matrix(0,-1,1,0,0,48)"/>
  <linearGradient inkscape:collect="always" xlink:href="#linearGradient3907" id="linearGradient3905" gradientUnits="userSpaceOnUse" gradientTransform="matrix(0,1.25,-1.25,0,52.75,-4.7500011)" x1="9" x2="37"/>
  <radialGradient inkscape:collect="always" xlink:href="#linearGradient4010" id="radialGradient4016" cx="24" cy="24" r="20" gradientUnits="userSpaceOnUse" gradientTransform="translate(0,4)"/>
  <linearGradient id="outerBackgroundGradient-0-8">
   <stop id="stop3864-8-6-3-9" stop-color="#1c6aba"/>
   <stop offset="1" id="stop3866-9-1-7-5" stop-color="#4195ec"/>
  </linearGradient>
  <linearGradient inkscape:collect="always" xlink:href="#linearGradient3904" id="linearGradient3899" x1="4" x2="44" gradientUnits="userSpaceOnUse" gradientTransform="matrix(0,-1,1,0,3.1e-6,48.000003)"/>
 </defs>
 <g inkscape:groupmode="layer" id="layer3" inkscape:label="Shadow">
  <path sodipodi:nodetypes="sssss" inkscape:connector-curvature="0" id="path4024" d="M 24,5 C 12.960351,5 4,13.96111 4,25 4,36.03985 12.960367,45 24,45 35.040018,45 44,36.03988 44,25 44,13.961083 35.04013,5 24,5 z" opacity="0.1" color="#000000" stroke="#000000"/>
  <path d="M 24,5 C 12.960351,5 4,13.96111 4,25 4,36.03985 12.960367,45 24,45 35.040018,45 44,36.03988 44,25 44,13.961083 35.04013,5 24,5 z" id="path4018" inkscape:connector-curvature="0" sodipodi:nodetypes="sssss" opacity="0.2" color="#000000"/>
  <path sodipodi:nodetypes="sssss" inkscape:connector-curvature="0" id="path3372" d="M 24,5.5 C 13.236342,5.5 4.5,14.237082 4.5,25 4.5,35.763854 13.236358,44.5 24,44.5 34.764018,44.5 43.5,35.763883 43.5,25 43.5,14.237056 34.764127,5.5 24,5.5 z" opacity="0.2" color="#000000"/>
 </g>
 <g inkscape:groupmode="layer" id="layer1" inkscape:label="Background">
  <path id="path6495" inkscape:connector-curvature="0" d="M 4.5000031,23.999309 C 4.5000031,34.769208 13.231094,43.5 23.999758,43.5 c 10.769649,0 19.500245,-8.730891 19.500245,-19.500691 0,-10.769405 -8.730596,-19.4993089 -19.500245,-19.4993089 -10.768664,0 -19.4997549,8.7299039 -19.4997549,19.4993089 l 0,0 z" fill="url(#linearGradient3874)"/>
  <path d="M 23.999309,4.5 C 34.769208,4.5 43.5,13.231091 43.5,23.999755 43.5,34.769404 34.769109,43.5 23.999309,43.5 13.229903,43.5 4.5,34.769404 4.5,23.999755 4.5,13.231091 13.229903,4.5 23.999309,4.5 l 0,0 z" inkscape:connector-curvature="0" id="path3796" opacity="0.91" fill="none" stroke="url(#linearGradient3899)"/>
  <g id="g4144">
   <path id="path3872" d="M 24 5 C 13.500552 5 5 13.500823 5 24 C 5 24.169463 5.0268485 24.331605 5.03125 24.5 C 5.299553 14.235412 13.670013 6 24 6 C 34.328993 6 42.700416 14.235427 42.96875 24.5 C 42.973152 24.331604 43 24.169465 43 24 C 43 13.500839 34.498438 5 24 5 z " opacity="0.15" fill="#ffffff"/>
   <path inkscape:connector-curvature="0" d="M 24,44 C 13.500552,44 5,35.499177 5,25 5,24.830537 5.0268485,24.668395 5.03125,24.5 5.299553,34.764588 13.670013,43 24,43 34.328993,43 42.700416,34.764573 42.96875,24.5 42.973152,24.668396 43,24.830535 43,25 43,35.499161 34.498438,44 24,44 z" id="path3366" opacity="0.3"/>
   <path id="path3374" d="M 24,43 C 13.500552,43 5,34.499177 5,24 5,23.830537 5.0268485,23.668395 5.03125,23.5 5.299553,33.764588 13.670013,42 24,42 34.328993,42 42.700416,33.764573 42.96875,23.5 42.973152,23.668396 43,23.830535 43,24 43,34.499161 34.498438,43 24,43 z" inkscape:connector-curvature="0" opacity="0.1" fill="#ffffff"/>
  </g>
 </g>
 <g inkscape:groupmode="layer" id="layer2" inkscape:label="Symbol">
  <g id="g4099" transform="translate(2e-6,1.000005)" opacity="0.3">
   <path inkscape:connector-curvature="0" d="m 25.599268,14.344035 c 1.06657,0 1.9312,0.86464 1.9312,1.93119 0,1.06656 -0.86464,1.9312 -1.9312,1.9312 -1.06655,0 -1.93118,-0.86464 -1.93118,-1.9312 0,-1.06655 0.86463,-1.93119 1.93118,-1.93119 z m -0.96558,5.79358 c 1.06988,0 1.93118,0.86131 1.93118,1.93119 0,1.93119 -1.93118,5.79358 -1.93118,7.72477 0,1.37011 0.73347,0.54047 1.32768,0.1207 l 0.90525,1.3277 c -1.1388,1.40757 -2.82618,2.39008 -4.16413,2.41399 -1.06986,0 -1.93119,-0.86132 -1.93119,-1.9312 0,-1.93119 1.93119,-5.79357 1.93119,-7.72477 0,-1.37011 -0.73344,-0.54047 -1.32769,-0.1207 l -0.90526,-1.32769 c 1.13884,-1.40758 2.82621,-2.39009 4.16415,-2.41399 z" id="path4101" sodipodi:nodetypes="ssssscsscccssccc"/>
   <path inkscape:connector-curvature="0" d="m 23.999998,8.9999951 c -8.28427,0 -15,6.7157299 -15,14.9999999 0,8.28427 6.71573,15 15,15 8.28427,0 15,-6.71573 15,-15 0,-8.28427 -6.71573,-14.9999999 -15,-14.9999999 z m 0,1 c 7.73199,0 14,6.2680099 14,13.9999999 0,7.73199 -6.26801,14 -14,14 -7.73199,0 -14,-6.26801 -14,-14 0,-7.73199 6.26801,-13.9999999 14,-13.9999999 z" id="path4103" color="#000000" stroke-width="4"/>
  </g>
  <g transform="translate(2e-6,-4.97e-6)" id="g4095">
   <path sodipodi:nodetypes="ssssscsscccssccc" id="path3861" d="m 25.599268,14.344035 c 1.06657,0 1.9312,0.86464 1.9312,1.93119 0,1.06656 -0.86464,1.9312 -1.9312,1.9312 -1.06655,0 -1.93118,-0.86464 -1.93118,-1.9312 0,-1.06655 0.86463,-1.93119 1.93118,-1.93119 z m -0.96558,5.79358 c 1.06988,0 1.93118,0.86131 1.93118,1.93119 0,1.93119 -1.93118,5.79358 -1.93118,7.72477 0,1.37011 0.73347,0.54047 1.32768,0.1207 l 0.90525,1.3277 c -1.1388,1.40757 -2.82618,2.39008 -4.16413,2.41399 -1.06986,0 -1.93119,-0.86132 -1.93119,-1.9312 0,-1.93119 1.93119,-5.79357 1.93119,-7.72477 0,-1.37011 -0.73344,-0.54047 -1.32769,-0.1207 l -0.90526,-1.32769 c 1.13884,-1.40758 2.82621,-2.39009 4.16415,-2.41399 z" inkscape:connector-curvature="0" fill="#ffffff"/>
   <path id="path4020" d="m 23.999998,8.9999951 c -8.28427,0 -15,6.7157299 -15,14.9999999 0,8.28427 6.71573,15 15,15 8.28427,0 15,-6.71573 15,-15 0,-8.28427 -6.71573,-14.9999999 -15,-14.9999999 z m 0,1 c 7.73199,0 14,6.2680099 14,13.9999999 0,7.73199 -6.26801,14 -14,14 -7.73199,0 -14,-6.26801 -14,-14 0,-7.73199 6.26801,-13.9999999 14,-13.9999999 z" inkscape:connector-curvature="0" fill="#ffffff" color="#000000" stroke-width="4"/>
  </g>
 </g>
</svg>
