<?xml version="1.0" encoding="UTF-8" standalone="no"?>
<svg
   xmlns:dc="http://purl.org/dc/elements/1.1/"
   xmlns:cc="http://creativecommons.org/ns#"
   xmlns:rdf="http://www.w3.org/1999/02/22-rdf-syntax-ns#"
   xmlns:svg="http://www.w3.org/2000/svg"
   xmlns="http://www.w3.org/2000/svg"
   xmlns:xlink="http://www.w3.org/1999/xlink"
   id="svg3759"
   height="48"
   width="48"
   version="1.1">
  <metadata
     id="metadata37">
    <rdf:RDF>
      <cc:Work
         rdf:about="">
        <dc:format>image/svg+xml</dc:format>
        <dc:type
           rdf:resource="http://purl.org/dc/dcmitype/StillImage" />
        <dc:title />
      </cc:Work>
    </rdf:RDF>
  </metadata>
  <defs
     id="defs3761">
    <linearGradient
       y2="24"
       x2="43.500004"
       y1="24"
       x1="4.5000033"
       gradientTransform="matrix(0,-1,-1,0,48.000003,48.000003)"
       gradientUnits="userSpaceOnUse"
       id="linearGradient3874"
       xlink:href="#outerBackgroundGradient-0-8" />
    <linearGradient
       id="outerBackgroundGradient-0-8">
      <stop
         id="stop3864-8-6-3-9"
         offset="0"
         style="stop-color:#1c6aba;stop-opacity:1" />
      <stop
         id="stop3866-9-1-7-5"
         offset="1"
         style="stop-color:#4195ec;stop-opacity:1" />
    </linearGradient>
    <linearGradient
       id="linearGradient3904-6">
      <stop
         style="stop-color:#234683;stop-opacity:1;"
         offset="0"
         id="stop3906-8" />
      <stop
         style="stop-color:#30589e;stop-opacity:1;"
         offset="1"
         id="stop3908-2" />
    </linearGradient>
    <linearGradient
       xlink:href="#linearGradient3904-6"
       id="linearGradient3946"
       gradientUnits="userSpaceOnUse"
       gradientTransform="matrix(0,-1,1,0,0,48.000003)"
       x1="4.0000033"
       y1="24"
       x2="44.000004"
       y2="24" />
  </defs>
  <g
     id="layer3">
    <path
       style="font-size:medium;font-style:normal;font-variant:normal;font-weight:normal;font-stretch:normal;text-indent:0;text-align:start;text-decoration:none;line-height:normal;letter-spacing:normal;word-spacing:normal;text-transform:none;direction:ltr;block-progression:tb;writing-mode:lr-tb;text-anchor:start;baseline-shift:baseline;opacity:0.10000000000000001;color:#000000;fill:#000000;fill-opacity:1;stroke:#000000;stroke-width:1;marker:none;visibility:visible;display:inline;overflow:visible;enable-background:accumulate;font-family:Sans;-inkscape-font-specification:Sans;stroke-opacity:1"
       d="M 24,5 C 12.960351,5 4,13.96111 4,25 4,36.03985 12.960367,45 24,45 35.040018,45 44,36.03988 44,25 44,13.961083 35.04013,5 24,5 z"
       id="path4024" />
    <path
       id="path4018"
       d="M 24,5 C 12.960351,5 4,13.96111 4,25 4,36.03985 12.960367,45 24,45 35.040018,45 44,36.03988 44,25 44,13.961083 35.04013,5 24,5 z"
       style="font-size:medium;font-style:normal;font-variant:normal;font-weight:normal;font-stretch:normal;text-indent:0;text-align:start;text-decoration:none;line-height:normal;letter-spacing:normal;word-spacing:normal;text-transform:none;direction:ltr;block-progression:tb;writing-mode:lr-tb;text-anchor:start;baseline-shift:baseline;opacity:0.20000000000000001;color:#000000;fill:#000000;fill-opacity:1;stroke:none;stroke-width:1;marker:none;visibility:visible;display:inline;overflow:visible;enable-background:accumulate;font-family:Sans;-inkscape-font-specification:Sans" />
    <path
       style="font-size:medium;font-style:normal;font-variant:normal;font-weight:normal;font-stretch:normal;text-indent:0;text-align:start;text-decoration:none;line-height:normal;letter-spacing:normal;word-spacing:normal;text-transform:none;direction:ltr;block-progression:tb;writing-mode:lr-tb;text-anchor:start;baseline-shift:baseline;opacity:0.2;color:#000000;fill:#000000;fill-opacity:1;stroke:none;stroke-width:1;marker:none;visibility:visible;display:inline;overflow:visible;enable-background:accumulate;font-family:Sans;-inkscape-font-specification:Sans"
       d="M 24,5.5 C 13.236342,5.5 4.5,14.237082 4.5,25 4.5,35.763854 13.236358,44.5 24,44.5 34.764018,44.5 43.5,35.763883 43.5,25 43.5,14.237056 34.764127,5.5 24,5.5 z"
       id="path3372" />
  </g>
  <g
     id="layer1">
    <path
       d="M 4.5000031,23.999309 C 4.5000031,34.769208 13.231094,43.5 23.999758,43.5 c 10.769649,0 19.500245,-8.730891 19.500245,-19.500691 0,-10.769405 -8.730596,-19.4993089 -19.500245,-19.4993089 -10.768664,0 -19.4997549,8.7299039 -19.4997549,19.4993089 l 0,0 z"
       id="path6495"
       style="fill:url(#linearGradient3874);fill-opacity:1.0;fill-rule:nonzero;stroke:none" />
    <path
       style="opacity:0.91000001;fill:none;stroke:url(#linearGradient3946);stroke-width:1;stroke-miterlimit:4;stroke-opacity:1;stroke-dasharray:none"
       id="path3796"
       d="M 23.999309,4.5 C 34.769208,4.5 43.5,13.231091 43.5,23.999755 43.5,34.769404 34.769109,43.5 23.999309,43.5 13.229903,43.5 4.5,34.769404 4.5,23.999755 4.5,13.231091 13.229903,4.5 23.999309,4.5 l 0,0 z" />
    <g
       id="g4144">
      <path
         style="fill:#ffffff;fill-opacity:1;fill-rule:nonzero;stroke:none;opacity:0.15"
         d="M 24 5 C 13.500552 5 5 13.500823 5 24 C 5 24.169463 5.0268485 24.331605 5.03125 24.5 C 5.299553 14.235412 13.670013 6 24 6 C 34.328993 6 42.700416 14.235427 42.96875 24.5 C 42.973152 24.331604 43 24.169465 43 24 C 43 13.500839 34.498438 5 24 5 z "
         id="path3872" />
      <path
         id="path3366"
         d="M 24,44 C 13.500552,44 5,35.499177 5,25 5,24.830537 5.0268485,24.668395 5.03125,24.5 5.299553,34.764588 13.670013,43 24,43 34.328993,43 42.700416,34.764573 42.96875,24.5 42.973152,24.668396 43,24.830535 43,25 43,35.499161 34.498438,44 24,44 z"
         style="opacity:0.3;fill:#000000;fill-opacity:1;fill-rule:nonzero;stroke:none" />
      <path
         style="opacity:0.1;fill:#ffffff;fill-opacity:1;fill-rule:nonzero;stroke:none"
         d="M 24,43 C 13.500552,43 5,34.499177 5,24 5,23.830537 5.0268485,23.668395 5.03125,23.5 5.299553,33.764588 13.670013,42 24,42 34.328993,42 42.700416,33.764573 42.96875,23.5 42.973152,23.668396 43,23.830535 43,24 43,34.499161 34.498438,43 24,43 z"
         id="path3374" />
    </g>
  </g>
  <g
     id="layer2">
    <g
       transform="translate(2e-6,1.000005)"
       style="opacity:0.3;fill:#000000;fill-opacity:1"
       id="g4099">
      <path
         style="fill:#000000;fill-opacity:1;stroke:none;display:inline;enable-background:new"
         id="path4101"
         d="m 25.599268,14.344035 c 1.06657,0 1.9312,0.86464 1.9312,1.93119 0,1.06656 -0.86464,1.9312 -1.9312,1.9312 -1.06655,0 -1.93118,-0.86464 -1.93118,-1.9312 0,-1.06655 0.86463,-1.93119 1.93118,-1.93119 z m -0.96558,5.79358 c 1.06988,0 1.93118,0.86131 1.93118,1.93119 0,1.93119 -1.93118,5.79358 -1.93118,7.72477 0,1.37011 0.73347,0.54047 1.32768,0.1207 l 0.90525,1.3277 c -1.1388,1.40757 -2.82618,2.39008 -4.16413,2.41399 -1.06986,0 -1.93119,-0.86132 -1.93119,-1.9312 0,-1.93119 1.93119,-5.79357 1.93119,-7.72477 0,-1.37011 -0.73344,-0.54047 -1.32769,-0.1207 l -0.90526,-1.32769 c 1.13884,-1.40758 2.82621,-2.39009 4.16415,-2.41399 z" />
      <path
         id="path4103"
         d="m 23.999998,8.9999951 c -8.28427,0 -15,6.7157299 -15,14.9999999 0,8.28427 6.71573,15 15,15 8.28427,0 15,-6.71573 15,-15 0,-8.28427 -6.71573,-14.9999999 -15,-14.9999999 z m 0,1 c 7.73199,0 14,6.2680099 14,13.9999999 0,7.73199 -6.26801,14 -14,14 -7.73199,0 -14,-6.26801 -14,-14 0,-7.73199 6.26801,-13.9999999 14,-13.9999999 z"
         style="color:#000000;fill:#000000;fill-opacity:1;fill-rule:nonzero;stroke:none;stroke-width:4;marker:none;visibility:visible;display:inline;overflow:visible;enable-background:accumulate" />
    </g>
    <g
       id="g4095"
       transform="translate(2e-6,-4.97e-6)">
      <path
         d="m 25.599268,14.344035 c 1.06657,0 1.9312,0.86464 1.9312,1.93119 0,1.06656 -0.86464,1.9312 -1.9312,1.9312 -1.06655,0 -1.93118,-0.86464 -1.93118,-1.9312 0,-1.06655 0.86463,-1.93119 1.93118,-1.93119 z m -0.96558,5.79358 c 1.06988,0 1.93118,0.86131 1.93118,1.93119 0,1.93119 -1.93118,5.79358 -1.93118,7.72477 0,1.37011 0.73347,0.54047 1.32768,0.1207 l 0.90525,1.3277 c -1.1388,1.40757 -2.82618,2.39008 -4.16413,2.41399 -1.06986,0 -1.93119,-0.86132 -1.93119,-1.9312 0,-1.93119 1.93119,-5.79357 1.93119,-7.72477 0,-1.37011 -0.73344,-0.54047 -1.32769,-0.1207 l -0.90526,-1.32769 c 1.13884,-1.40758 2.82621,-2.39009 4.16415,-2.41399 z"
         id="path3861"
         style="fill:#ffffff;fill-opacity:1;stroke:none;display:inline;enable-background:new" />
      <path
         style="color:#000000;fill:#ffffff;fill-opacity:1;fill-rule:nonzero;stroke:none;stroke-width:4;marker:none;visibility:visible;display:inline;overflow:visible;enable-background:accumulate"
         d="m 23.999998,8.9999951 c -8.28427,0 -15,6.7157299 -15,14.9999999 0,8.28427 6.71573,15 15,15 8.28427,0 15,-6.71573 15,-15 0,-8.28427 -6.71573,-14.9999999 -15,-14.9999999 z m 0,1 c 7.73199,0 14,6.2680099 14,13.9999999 0,7.73199 -6.26801,14 -14,14 -7.73199,0 -14,-6.26801 -14,-14 0,-7.73199 6.26801,-13.9999999 14,-13.9999999 z"
         id="path4020" />
    </g>
  </g>
</svg>
