<?xml version="1.0" encoding="UTF-8" standalone="no"?>
<svg
   xmlns:dc="http://purl.org/dc/elements/1.1/"
   xmlns:cc="http://creativecommons.org/ns#"
   xmlns:rdf="http://www.w3.org/1999/02/22-rdf-syntax-ns#"
   xmlns:svg="http://www.w3.org/2000/svg"
   xmlns="http://www.w3.org/2000/svg"
   xmlns:xlink="http://www.w3.org/1999/xlink"
   id="svg3759"
   height="48"
   width="48"
   version="1.1">
  <metadata
     id="metadata37">
    <rdf:RDF>
      <cc:Work
         rdf:about="">
        <dc:format>image/svg+xml</dc:format>
        <dc:type
           rdf:resource="http://purl.org/dc/dcmitype/StillImage" />
        <dc:title />
      </cc:Work>
    </rdf:RDF>
  </metadata>
  <defs
     id="defs3761">
    <linearGradient
       id="linearGradient3857">
      <stop
         id="stop3859"
         offset="0"
         style="stop-color:#ffffff;stop-opacity:1;" />
      <stop
         id="stop3861"
         offset="1"
         style="stop-color:#ffffff;stop-opacity:0;" />
    </linearGradient>
    <linearGradient
       id="linearGradient5048-2">
      <stop
         offset="0"
         style="stop-color:#000000;stop-opacity:0"
         id="stop5050-6" />
      <stop
         offset="0.5"
         style="stop-color:#000000;stop-opacity:1"
         id="stop5056-4" />
      <stop
         offset="1"
         style="stop-color:#000000;stop-opacity:0"
         id="stop5052-5" />
    </linearGradient>
    <linearGradient
       id="linearGradient5060-6">
      <stop
         offset="0"
         style="stop-color:#000000;stop-opacity:1"
         id="stop5062-0" />
      <stop
         offset="1"
         style="stop-color:#000000;stop-opacity:0"
         id="stop5064-0" />
    </linearGradient>
    <linearGradient
       y2="54.669891"
       x2="24"
       y1="-14.603537"
       x1="24"
       gradientTransform="matrix(0.97781815,0,0,0.97679637,0.53236,0.98473607)"
       gradientUnits="userSpaceOnUse"
       id="linearGradient4287"
       xlink:href="#linearGradient3760-9" />
    <radialGradient
       r="117.14286"
       fy="486.64789"
       fx="605.71429"
       cy="486.64789"
       cx="605.71429"
       gradientTransform="matrix(0.02409728,0,0,0.01544124,28.97761,36.588616)"
       gradientUnits="userSpaceOnUse"
       id="radialGradient4290"
       xlink:href="#linearGradient5060-6" />
    <radialGradient
       r="117.14286"
       fy="486.64789"
       fx="605.71429"
       cy="486.64789"
       cx="605.71429"
       gradientTransform="matrix(-0.02409728,0,0,0.01544124,19.02239,36.588616)"
       gradientUnits="userSpaceOnUse"
       id="radialGradient4293"
       xlink:href="#linearGradient5060-6" />
    <linearGradient
       y2="609.50507"
       x2="302.85715"
       y1="366.64789"
       x1="302.85715"
       gradientTransform="matrix(0.0807696,0,0,0.01544124,-5.19244,36.588616)"
       gradientUnits="userSpaceOnUse"
       id="linearGradient4296"
       xlink:href="#linearGradient5048-2" />
    <linearGradient
       gradientUnits="userSpaceOnUse"
       y2="44"
       x2="24"
       y1="0"
       x1="24"
       id="linearGradient3863"
       xlink:href="#linearGradient3857" />
    <linearGradient
       id="linearGradient3760-9">
      <stop
         id="stop3762-6"
         offset="0"
         style="stop-color:#e44343;stop-opacity:1;" />
      <stop
         id="stop3764-6"
         offset="1"
         style="stop-color:#ac0808;stop-opacity:1;" />
    </linearGradient>
  </defs>
  <g
     id="layer1">
    <g
       id="g3865">
      <rect
         style="opacity:0.5;fill:url(#linearGradient4296);fill-opacity:1;fill-rule:nonzero;stroke:none;stroke-width:1;marker:none;visibility:visible;display:inline;overflow:visible"
         id="rect2879-1"
         y="42.250088"
         x="4.4998989"
         height="3.7500169"
         width="39.000179" />
      <path
         style="opacity:0.5;fill:url(#radialGradient4293);fill-opacity:1;fill-rule:nonzero;stroke:none;stroke-width:1;marker:none;visibility:visible;display:inline;overflow:visible"
         id="path2881-5"
         d="m 4.49991,42.250236 c 0,0 0,3.7498 0,3.7498 -1.24095,0.007 -3.00001,-0.84016 -3.00001,-1.87516 0,-1.03501 1.3848,-1.87464 3.00001,-1.87464 z" />
      <path
         style="opacity:0.5;fill:url(#radialGradient4290);fill-opacity:1;fill-rule:nonzero;stroke:none;stroke-width:1;marker:none;visibility:visible;display:inline;overflow:visible"
         id="path2883-9"
         d="m 43.50009,42.250236 c 0,0 0,3.7498 0,3.7498 1.24094,0.007 3.00001,-0.84016 3.00001,-1.87516 0,-1.03501 -1.38481,-1.87464 -3.00001,-1.87464 z" />
    </g>
    <path
       d="M 45.68687,40.055616 26.58988,4.0554561 c -0.54891,-1 -1.54213,-1.55556 -2.64829,-1.55556 -1.10615,0 -2.10447,0.66666 -2.66171,1.66667 L 2.32509,40.166736 c -0.44617,0.88889 -0.45127,2.11112 0.0981,3.00001 0.54936,0.8889 1.43243,1.33334 2.53859,1.33334 l 38.05177,0 c 1.10616,0 2.10401,-0.55556 2.55019,-1.44445 0.55677,-0.88889 0.56141,-2.00001 0.12312,-3.00002 z"
       id="path11155-5"
       style="fill:url(#linearGradient4287);fill-opacity:1.0;fill-rule:nonzero;stroke:none" />
    <path
       d="M 45.68687,40.055616 26.58988,4.0554561 c -0.54891,-1 -1.54213,-1.55556 -2.64829,-1.55556 -1.10615,0 -2.10447,0.66666 -2.66171,1.66667 L 2.32509,40.166736 c -0.44617,0.88889 -0.45127,2.11112 0.0981,3.00001 0.54936,0.8889 1.43243,1.33334 2.53859,1.33334 l 38.05177,0 c 1.10616,0 2.10401,-0.55556 2.55019,-1.44445 0.55677,-0.88889 0.56141,-2.00001 0.12312,-3.00002 z"
       id="path11155-8"
       style="opacity:0.81000000000000005;fill:none;stroke:#5c0303;stroke-width:1;stroke-miterlimit:4;stroke-opacity:1;stroke-dasharray:none" />
    <path
       id="path3843"
       d="M 23.9375 3 C 23.032245 3 22.198382 3.5455128 21.71875 4.40625 L 2.78125 40.40625 C 2.5510577 40.864855 2.4867152 41.446239 2.5625 42 C 2.6081666 41.787323 2.6901449 41.587756 2.78125 41.40625 L 21.71875 5.40625 C 22.198382 4.5455128 23.032245 4 23.9375 4 C 24.876246 4 25.692174 4.4357999 26.15625 5.28125 L 45.125 41.0625 L 45.21875 41.25 C 45.314527 41.468526 45.392555 41.685088 45.4375 41.90625 C 45.529295 41.371093 45.462797 40.806821 45.21875 40.25 L 45.125 40.0625 L 26.15625 4.28125 C 25.692174 3.4357999 24.876246 3 23.9375 3 z "
       style="fill:url(#linearGradient3863);fill-opacity:1;fill-rule:nonzero;stroke:none;opacity:0.4" />
  </g>
  <g
     id="layer2">
    <path
       id="path3972"
       d="M 22 14 L 22 22 C 22.01583 25.20974 23 30 23 33 L 25 33 C 25 30 25.804 25.85555 26 22 L 26 14 L 22 14 z M 24 37 C 22.895431 37 22 37.89543 22 39 C 22 40.10457 22.895431 41 24 41 C 25.104569 41 26 40.10457 26 39 C 26 37.89543 25.104569 37 24 37 z "
       style="font-size:40px;font-style:normal;font-variant:normal;font-weight:300;font-stretch:normal;line-height:125%;letter-spacing:0px;word-spacing:0px;opacity:0.40000000000000002;fill:#000000;fill-opacity:1;stroke:none;font-family:Ubuntu;-inkscape-font-specification:Ubuntu Light" />
    <path
       id="path4064"
       d="M 22 13 L 22 21 C 22.01583 24.20974 23 29 23 32 L 25 32 C 25 29 25.804 24.85555 26 21 L 26 13 L 22 13 z M 24 36 C 22.895431 36 22 36.89543 22 38 C 22 39.10457 22.895431 40 24 40 C 25.104569 40 26 39.10457 26 38 C 26 36.89543 25.104569 36 24 36 z "
       style="font-size:40px;font-style:normal;font-variant:normal;font-weight:300;font-stretch:normal;line-height:125%;letter-spacing:0px;word-spacing:0px;fill:#ffffff;fill-opacity:1;stroke:none;font-family:Ubuntu;-inkscape-font-specification:Ubuntu Light" />
  </g>
</svg>
