<?xml version="1.0" encoding="UTF-8" standalone="no"?>
<svg xmlns="http://www.w3.org/2000/svg" xmlns:xlink="http://www.w3.org/1999/xlink" xmlns:sodipodi="http://sodipodi.sourceforge.net/DTD/sodipodi-0.dtd" xmlns:inkscape="http://www.inkscape.org/namespaces/inkscape" version="1.1" width="48" height="48">
 <defs id="defs2438">
  <linearGradient x1="46.81" y1="-3.761" x2="22.683" y2="36.569" id="linearGradient2399" xlink:href="#linearGradient4222" gradientUnits="userSpaceOnUse"/>
  <linearGradient id="linearGradient4222">
   <stop id="stop4224" stop-color="#ffffff"/>
   <stop id="stop4226" offset="1" stop-color="#ffffff" stop-opacity="0"/>
  </linearGradient>
  <linearGradient x1="54.57" y1="-14.909" x2="20.825" y2="40.39" id="linearGradient2397" xlink:href="#linearGradient4222" gradientUnits="userSpaceOnUse"/>
  <linearGradient y1="27.631" x2="0" y2="12.5" id="linearGradient2395" xlink:href="#linearGradient5106" gradientUnits="userSpaceOnUse"/>
  <linearGradient id="linearGradient5106">
   <stop id="stop5108" stop-color="#555555"/>
   <stop id="stop5110" offset="1" stop-color="#222222"/>
  </linearGradient>
  <linearGradient y1="27.19" x2="0" y2="12.5" id="linearGradient2393" xlink:href="#linearGradient5106" gradientUnits="userSpaceOnUse"/>
  <linearGradient inkscape:collect="always" xlink:href="#linearGradient5106" id="linearGradient3786" gradientUnits="userSpaceOnUse" y1="27.631" x2="0" y2="12.5" gradientTransform="matrix(1,0,0,-1,-0.98483573,48.000461)"/>
  <linearGradient inkscape:collect="always" xlink:href="#linearGradient5106" id="linearGradient3789" gradientUnits="userSpaceOnUse" y1="27.19" x2="0" y2="12.5" gradientTransform="matrix(1,0,0,-1,-0.99999973,48.000461)"/>
  <clipPath id="clipPath3985">
   <path id="path3987" d="m 309,232.99972 c -0.53578,0 -1,0.46422 -1,1 l -5e-5,8 -1,0 c -0.3277,0 -0.58618,0.18225 -0.75,0.375 -0.1489,0.17519 -0.22283,0.39373 -0.21875,0.65625 l -0.0312,0 0,0.0312 c 7.3e-4,0.0115 -10e-4,0.0195 0,0.0312 l 1.00005,26.96875 0,0.0312 c 0.0279,0.29662 0.18255,0.47236 0.34375,0.625 0.1612,0.15264 0.34482,0.28259 0.65625,0.28125 l 40,0 c 0.31123,10e-4 0.49504,-0.12858 0.65625,-0.28125 0.16121,-0.15267 0.31581,-0.32853 0.34375,-0.625 l 0,-0.0312 0.99995,-26.96875 0,-0.0312 c 10e-4,-0.013 -6.9e-4,-0.0186 0,-0.0312 0.0177,-0.32247 -0.12059,-0.51812 -0.28125,-0.6875 -0.16696,-0.17602 -0.38333,-0.34519 -0.71875,-0.34375 l -1,0 5e-5,-4 c 1e-5,-0.53578 -0.46422,-1 -1,-1 l -15,0 c -1.98879,0 -3.00245,-1.00245 -4,-2 -0.99755,-0.99755 -2.01326,-2 -4,-2 l -15,0 z"/>
  </clipPath>
  <linearGradient inkscape:collect="always" xlink:href="#linearGradient4222" id="linearGradient3991" gradientUnits="userSpaceOnUse" y1="243" x2="0" y2="255"/>
  <clipPath id="clipPath3995">
   <path d="m 306,242.09347 1,27 c 0.0463,0.49158 0.50624,0.90838 1,0.90625 l 40,0 c 0.49376,0.002 0.95367,-0.41467 1,-0.90625 l 1,-27 c 0.0521,-0.5539 -0.44366,-1.09614 -1,-1.09375 l -42,0 c -0.60937,0 -1.0514,0.56975 -1,1.09375 z" id="path3997"/>
  </clipPath>
  <linearGradient inkscape:collect="always" xlink:href="#linearGradient4968" id="linearGradient5271" gradientUnits="userSpaceOnUse" gradientTransform="translate(-304,-227.99973)" y1="228" x2="0" y2="276"/>
  <linearGradient id="linearGradient4968">
   <stop id="stop4970" stop-color="#f1e6f4"/>
   <stop offset="1" id="stop4972" stop-color="#c9bcce"/>
  </linearGradient>
  <linearGradient inkscape:collect="always" xlink:href="#linearGradient11359" id="linearGradient5274" gradientUnits="userSpaceOnUse" gradientTransform="translate(-304,-236.00001)" y1="240" x2="0" y2="260"/>
  <linearGradient id="linearGradient11359">
   <stop id="stop11361" stop-color="#d5cbd7"/>
   <stop offset="1" id="stop11363" stop-color="#d9bfdf"/>
  </linearGradient>
  <radialGradient inkscape:collect="always" xlink:href="#linearGradient3952" id="radialGradient4205" gradientUnits="userSpaceOnUse" gradientTransform="matrix(1.0571429,0,0,1.25,0.6,-10.875)" cx="40" cy="43.5" r="2"/>
  <linearGradient inkscape:collect="always" id="linearGradient3952">
   <stop id="stop3954"/>
   <stop offset="1" id="stop3956" stop-opacity="0"/>
  </linearGradient>
  <radialGradient inkscape:collect="always" xlink:href="#linearGradient3952" id="radialGradient4214" gradientUnits="userSpaceOnUse" gradientTransform="matrix(1,0,0,0.75,2,10.875)" cx="40" cy="43.5" r="2"/>
  <radialGradient inkscape:collect="always" xlink:href="#linearGradient3952" id="radialGradient4202" gradientUnits="userSpaceOnUse" gradientTransform="matrix(1.0571429,0,0,1.25,-4.4000003,-10.875)" cx="9" cy="43.5" r="2"/>
  <radialGradient inkscape:collect="always" xlink:href="#linearGradient3952" id="radialGradient4211" gradientUnits="userSpaceOnUse" gradientTransform="matrix(1,0,0,0.75,-3.0000003,10.875)" cx="9" cy="43.5" r="2"/>
  <linearGradient inkscape:collect="always" xlink:href="#linearGradient3960" id="linearGradient4208" gradientUnits="userSpaceOnUse" y1="45" x2="0" y2="42" gradientTransform="matrix(1.0571429,0,0,1.6666667,-5.4000003,-29)"/>
  <linearGradient id="linearGradient3960">
   <stop id="stop3962" stop-opacity="0"/>
   <stop id="stop3970" offset="0.5"/>
   <stop offset="1" id="stop3964" stop-opacity="0"/>
  </linearGradient>
  <linearGradient y2="42" x2="0" y1="45" gradientTransform="translate(-4.0000003,0)" gradientUnits="userSpaceOnUse" id="linearGradient3196" xlink:href="#linearGradient3960" inkscape:collect="always"/>
  <linearGradient inkscape:collect="always" xlink:href="#linearGradient3960" id="linearGradient3875" gradientUnits="userSpaceOnUse" gradientTransform="translate(-4.5013906,-26.000008)" y1="45" x2="0" y2="42"/>
  <linearGradient inkscape:collect="always" xlink:href="#linearGradient3960" id="linearGradient3878" gradientUnits="userSpaceOnUse" gradientTransform="matrix(1.0571429,0,0,1.6666667,-5.9013906,-55.000008)" y1="45" x2="0" y2="42"/>
  <radialGradient inkscape:collect="always" xlink:href="#linearGradient3952" id="radialGradient3881" gradientUnits="userSpaceOnUse" gradientTransform="matrix(1,0,0,0.75,-3.5013906,-15.125008)" cx="9" cy="43.5" r="2"/>
  <radialGradient inkscape:collect="always" xlink:href="#linearGradient3952" id="radialGradient3884" gradientUnits="userSpaceOnUse" gradientTransform="matrix(1.0571429,0,0,1.25,-4.9013906,-36.875008)" cx="9" cy="43.5" r="2"/>
  <radialGradient inkscape:collect="always" xlink:href="#linearGradient3952" id="radialGradient3887" gradientUnits="userSpaceOnUse" gradientTransform="matrix(1,0,0,0.75,1.4986097,-15.125008)" cx="40" cy="43.5" r="2"/>
  <radialGradient inkscape:collect="always" xlink:href="#linearGradient3952" id="radialGradient3890" gradientUnits="userSpaceOnUse" gradientTransform="matrix(1.0571429,0,0,1.25,0.0986097,-36.875008)" cx="40" cy="43.5" r="2"/>
 </defs>
 <metadata id="metadata2441"/>
 <path id="path13868" d="m 3,20.500045 c -0.29771,0 -0.52077,0.31947 -0.5,0.53125 l 0,0.0312 1,20.96875 c 0.0198,0.21007 0.28895,0.46966 0.5,0.46875 l 40,0 c 0.21122,8.6e-4 0.4802,-0.25864 0.5,-0.46875 l 1,-20.96875 0,-0.0312 c 0.0216,-0.22918 -0.26981,-0.53224 -0.5,-0.53125 z" inkscape:connector-curvature="0" sodipodi:nodetypes="scccccccccs" opacity="0.2" color="#000000" stroke-width="2"/>
 <path inkscape:connector-curvature="0" d="m 5,4.499995 c -0.28565,0 -0.5,0.21435 -0.5,0.5 l 0,18 c 0,0.28565 0.21435,0.5 0.5,0.5 l 38,0 c 0.28565,0 0.5,-0.21435 0.5,-0.5 l 0,-14 c 0,-0.28565 -0.21435,-0.5 -0.5,-0.5 l -15,0 c -2.16667,0 -3.34375,-1.15625 -4.34375,-2.15625 -1,-1 -1.82292,-1.84375 -3.65625,-1.84375 z" id="rect11352" sodipodi:nodetypes="ssssssssssss" fill="url(#linearGradient5274)" color="#000000" stroke-width="4"/>
 <g id="g3930" transform="translate(0,0.500007)" opacity="0.1">
  <path d="m 42.384326,14.999993 0,5 0.528571,0 c 0.878486,0 1.585715,-1.115 1.585715,-2.5 0,-1.385 -0.707229,-2.5 -1.585715,-2.5 l -0.528571,0 z" id="path3987-4" inkscape:connector-curvature="0" fill="url(#radialGradient3890)"/>
  <path inkscape:connector-curvature="0" id="rect3940" d="m 41.49861,15.999992 0,3 0.5,0 c 0.831,0 1.5,-0.669 1.5,-1.5 0,-0.831 -0.669,-1.5 -1.5,-1.5 l -0.5,0 z" fill="url(#radialGradient3887)"/>
  <path d="m 3.9852169,14.999993 c -0.8235804,0 -1.4866072,1.045312 -1.4866072,2.34375 l 0,0.3125 c 0,1.298439 0.6630268,2.34375 1.4866072,2.34375 l 0.6276786,0 0,-5 -0.6276786,0 z" id="path3989" inkscape:connector-curvature="0" fill="url(#radialGradient3884)"/>
  <path inkscape:connector-curvature="0" id="rect3942" d="m 4.9048594,15.999992 c -0.7790625,0 -1.40625,0.627187 -1.40625,1.40625 l 0,0.1875 c 0,0.779063 0.6271875,1.40625 1.40625,1.40625 l 0.59375,0 0,-3 -0.59375,0 z" fill="url(#radialGradient3881)"/>
  <path sodipodi:nodetypes="ccccc" inkscape:connector-curvature="0" id="rect3985" d="m 4.6127529,14.999992 37.7717151,0 0,5 -37.7717151,0 z" fill="url(#linearGradient3878)"/>
  <path sodipodi:nodetypes="ccccc" inkscape:connector-curvature="0" id="rect3938" d="m 5.4984665,15.999992 36.0002845,0 0,3 -36.0002845,0 z" fill="url(#linearGradient3875)"/>
 </g>
 <path id="path3787" d="m 5,4.499995 c -0.28565,0 -0.5,0.21435 -0.5,0.5 l 0,18 c 0,0.28565 0.21435,0.5 0.5,0.5 l 38,0 c 0.28565,0 0.5,-0.21435 0.5,-0.5 l 0,-14 c 0,-0.28565 -0.21435,-0.5 -0.5,-0.5 l -15,0 c -2.16667,0 -3.34375,-1.15625 -4.34375,-2.15625 -1,-1 -1.82292,-1.84375 -3.65625,-1.84375 z" inkscape:connector-curvature="0" sodipodi:nodetypes="ssssssssssss" opacity="0.41" fill="none" stroke="#000000" color="#000000"/>
 <path sodipodi:nodetypes="scccccccccs" inkscape:connector-curvature="0" d="m 2.99995,17.499995 c -0.29771,0 -0.52077,0.31947 -0.5,0.53125 l 0,0.0312 L 3.5,41.031195 c 0.0198,0.21007 0.28895,0.46966 0.5,0.46875 l 40,0 c 0.21122,8.6e-4 0.4802,-0.25864 0.5,-0.46875 l 0.99995,-22.96875 0,-0.0312 c 0.0216,-0.22918 -0.26981,-0.53224 -0.5,-0.53125 z" id="path10548" color="#000000" stroke-width="2" fill="url(#linearGradient5271)"/>
 <path id="path3789" d="m 2.99995,17.499995 c -0.29771,0 -0.52077,0.31947 -0.5,0.53125 l 0,0.0312 L 3.5,41.031195 c 0.0198,0.21007 0.28895,0.46966 0.5,0.46875 l 40,0 c 0.21122,8.6e-4 0.4802,-0.25864 0.5,-0.46875 l 0.99995,-22.96875 0,-0.0312 c 0.0216,-0.22918 -0.26981,-0.53224 -0.5,-0.53125 z" inkscape:connector-curvature="0" sodipodi:nodetypes="scccccccccs" opacity="0.41" color="#000000" fill="none" stroke="#000000"/>
 <path d="M 3 18 L 3 18.03125 L 3 18.0625 L 3.03125 19 L 44.96875 19 L 45 18.0625 L 45 18.03125 C 45.0054 18.0433 45.00053 18.0061 45 18 L 3 18 z " id="path3017" opacity="0.2" color="#000000" stroke-width="2" fill="#ffffff"/>
</svg>
