<?xml version="1.0" encoding="UTF-8" standalone="no"?>
<svg xmlns="http://www.w3.org/2000/svg" xmlns:xlink="http://www.w3.org/1999/xlink" xmlns:sodipodi="http://sodipodi.sourceforge.net/DTD/sodipodi-0.dtd" xmlns:inkscape="http://www.inkscape.org/namespaces/inkscape" version="1.1" width="48" height="48">
 <metadata id="metadata37"/>
 <defs id="defs3761">
  <linearGradient inkscape:collect="always" id="linearGradient4125">
   <stop id="stop4127"/>
   <stop offset="1" id="stop4129" stop-opacity="0"/>
  </linearGradient>
  <linearGradient id="linearGradient3810">
   <stop id="stop3812" stop-color="#4cc7e0"/>
   <stop offset="1" id="stop3814" stop-color="#2061be"/>
  </linearGradient>
  <linearGradient id="linearGradient4873">
   <stop id="stop4875" stop-color="#ffffff"/>
   <stop id="stop4877" offset="1" stop-color="#ffffff" stop-opacity="0"/>
  </linearGradient>
  <linearGradient inkscape:collect="always" xlink:href="#linearGradient4873" id="linearGradient3017" gradientUnits="userSpaceOnUse" gradientTransform="matrix(2.1153734,0,0,2.1153252,-107.57708,31.426557)" y1="-12.489" x2="0" y2="-1.462"/>
  <linearGradient inkscape:collect="always" xlink:href="#linearGradient3810" id="linearGradient3816" x1="4.5" x2="43.5" gradientUnits="userSpaceOnUse" gradientTransform="matrix(0,1,-1,0,48.000003,-3e-6)"/>
  <linearGradient inkscape:collect="always" xlink:href="#linearGradient3988" id="linearGradient3965" gradientUnits="userSpaceOnUse" y1="116.26" x2="0" y2="31.773"/>
  <linearGradient id="linearGradient3988">
   <stop id="stop3990" stop-color="#eeeeec"/>
   <stop offset="1" id="stop3992" stop-color="#ffffff"/>
  </linearGradient>
  <radialGradient inkscape:collect="always" xlink:href="#linearGradient26113-9-3-1" id="radialGradient3755" gradientUnits="userSpaceOnUse" gradientTransform="matrix(1,0,0,0.37,0,24.5124)" cx="24.85" cy="38.909" r="20.2"/>
  <linearGradient inkscape:collect="always" id="linearGradient26113-9-3-1">
   <stop id="stop26115-7-7-9"/>
   <stop offset="1" id="stop26117-3-7-8" stop-opacity="0"/>
  </linearGradient>
  <radialGradient r="20.2" cy="38.909" cx="24.85" gradientTransform="matrix(1.00851,0,0,0.373148,-0.211403,24.39)" gradientUnits="userSpaceOnUse" id="radialGradient4274" xlink:href="#linearGradient26113-9-3-1" inkscape:collect="always"/>
  <linearGradient inkscape:collect="always" xlink:href="#linearGradient4873" id="linearGradient4140" x1="789" x2="827" gradientUnits="userSpaceOnUse"/>
  <clipPath id="clipPath4130">
   <path id="path4132" d="M 790.4375,237 C 789.62555,237 789,237.62555 789,238.4375 l 0,35.09375 c 0,0.812 0.62555,1.46875 1.4375,1.46875 l 35.125,0 c 0.81195,0 1.4375,-0.65675 1.4375,-1.46875 l 0,-35.09375 C 827,237.62555 826.37445,237 825.5625,237 l -35.125,0 z"/>
  </clipPath>
  <linearGradient inkscape:collect="always" xlink:href="#linearGradient5618" id="linearGradient4083" x1="-1023.86" x2="-984.86" gradientUnits="userSpaceOnUse" gradientTransform="translate(980.3622,784)"/>
  <linearGradient id="linearGradient5618">
   <stop id="stop5620" stop-color="#3e3e3e"/>
   <stop offset="1" id="stop5622" stop-color="#595959"/>
  </linearGradient>
  <linearGradient id="linearGradient4094">
   <stop id="stop4096" stop-color="#e28192"/>
   <stop id="stop4317" offset="0.259" stop-color="#f7d6c7"/>
   <stop offset="1" id="stop4098" stop-color="#fffee4"/>
  </linearGradient>
  <clipPath id="clipPath14228">
   <rect id="rect14230" width="32" height="42" x="312" y="231" fill="none" color="#bebebe" stroke-width="0" rx="0"/>
  </clipPath>
  <clipPath id="clipPath3449">
   <rect id="rect3451" width="32" height="42" x="312" y="231" fill="none" color="#bebebe" stroke-width="0" rx="0"/>
  </clipPath>
  <linearGradient inkscape:collect="always" xlink:href="#linearGradient3988-5" id="linearGradient4030" x1="304" x2="352" gradientUnits="userSpaceOnUse"/>
  <linearGradient id="linearGradient3988-5">
   <stop id="stop3990-5" stop-color="#f1f1f1"/>
   <stop offset="1" id="stop3992-0" stop-color="#f4f4f4"/>
  </linearGradient>
  <clipPath id="clipPath3457">
   <rect id="rect3459" width="32" height="42" x="312" y="231" fill="none" color="#bebebe" stroke-width="0" rx="0"/>
  </clipPath>
  <clipPath id="clipPath3461">
   <rect id="rect3463" width="32" height="42" x="312" y="231" fill="none" color="#bebebe" stroke-width="0" rx="0"/>
  </clipPath>
  <linearGradient id="outerBackgroundGradient">
   <stop id="stop3864-8-6" stop-color="#8c166c"/>
   <stop id="stop4409" offset="0.362" stop-color="#ca3561"/>
   <stop offset="1" id="stop3866-9-1" stop-color="#f38f4e"/>
  </linearGradient>
  <linearGradient inkscape:collect="always" xlink:href="#linearGradient3988-5" id="linearGradient3947" gradientUnits="userSpaceOnUse" gradientTransform="matrix(0,-0.175,0.175,0,-4.0000326,48.20002)" y1="280" x2="0" y2="40"/>
  <linearGradient inkscape:collect="always" xlink:href="#outerBackgroundGradient" id="linearGradient3949" gradientUnits="userSpaceOnUse" gradientTransform="matrix(0,-0.175,0.175,0,-4.0000326,1.2000199)" y1="280" x2="0" y2="40"/>
  <linearGradient inkscape:collect="always" xlink:href="#linearGradient4094" id="linearGradient3951" gradientUnits="userSpaceOnUse" x1="324" x2="332"/>
  <radialGradient inkscape:collect="always" xlink:href="#linearGradient4125" id="radialGradient4131" cx="23.5" cy="40" r="20.5" gradientTransform="matrix(1,0,0,0.09756098,0,36.097561)" gradientUnits="userSpaceOnUse"/>
  <linearGradient inkscape:collect="always" xlink:href="#linearGradient3813" id="linearGradient3123" gradientUnits="userSpaceOnUse" gradientTransform="matrix(0,-0.175,0.175,0,-4.0000326,-0.7999801)" y1="280" x2="0" y2="40"/>
  <linearGradient inkscape:collect="always" xlink:href="#linearGradient3813" id="linearGradient3819" y1="12" x2="0" y2="4" gradientUnits="userSpaceOnUse"/>
  <linearGradient id="linearGradient3813">
   <stop id="stop3815" stop-color="#5a5a5a"/>
   <stop offset="1" id="stop3817" stop-color="#8c8c8c"/>
  </linearGradient>
  <linearGradient y1="15.369" x2="0" y2="40.496" id="linearGradient3097" xlink:href="#linearGradient4873" gradientUnits="userSpaceOnUse" gradientTransform="matrix(0.77562456,0,0,0.77562491,-19.981566,14.385739)"/>
  <linearGradient id="linearGradient3904">
   <stop id="stop3906" stop-color="#858585"/>
   <stop id="stop3908" offset="1" stop-color="#8e8e8e"/>
  </linearGradient>
  <linearGradient inkscape:collect="always" xlink:href="#linearGradient3901" id="linearGradient3879" x1="0.5" x2="21.5" gradientUnits="userSpaceOnUse" gradientTransform="matrix(0,1,-1,0,22,1.2499881e-7)"/>
  <linearGradient id="linearGradient3901">
   <stop id="stop3903" stop-color="#ffffff"/>
   <stop offset="1" id="stop3905" stop-color="#d2d2d2"/>
  </linearGradient>
  <linearGradient x2="15" x1="11" gradientUnits="userSpaceOnUse" id="linearGradient3087" xlink:href="#outerBackgroundGradient-4-3" inkscape:collect="always"/>
  <linearGradient id="outerBackgroundGradient-4-3">
   <stop id="stop3864-8-6-6-4" stop-color="#f0f0f0"/>
   <stop offset="1" id="stop3866-9-1-7-8" stop-color="#f9f9f9"/>
  </linearGradient>
  <linearGradient inkscape:collect="always" xlink:href="#linearGradient3960" id="linearGradient3149" gradientUnits="userSpaceOnUse" y1="45" x2="0" y2="42" gradientTransform="matrix(1.0571429,0,0,1.6666667,-4.9000011,-31.500001)"/>
  <linearGradient id="linearGradient3960">
   <stop id="stop3962" stop-opacity="0"/>
   <stop id="stop3970" offset="0.5"/>
   <stop offset="1" id="stop3964" stop-opacity="0"/>
  </linearGradient>
  <radialGradient inkscape:collect="always" xlink:href="#linearGradient4125" id="radialGradient3146" gradientUnits="userSpaceOnUse" gradientTransform="matrix(1.0571429,0,0,1.25,2.0999999,-13.375001)" cx="40" cy="43.5" r="2"/>
  <radialGradient inkscape:collect="always" xlink:href="#linearGradient4125" id="radialGradient3143" gradientUnits="userSpaceOnUse" gradientTransform="matrix(1.0571429,0,0,1.25,-4.9000011,-13.375001)" cx="9" cy="43.5" r="2"/>
  <linearGradient inkscape:collect="always" xlink:href="#linearGradient3960" id="linearGradient3158" gradientUnits="userSpaceOnUse" y1="45" x2="0" y2="42" gradientTransform="translate(-3.5000011,-2.5000014)"/>
  <radialGradient inkscape:collect="always" xlink:href="#linearGradient4125" id="radialGradient3155" gradientUnits="userSpaceOnUse" gradientTransform="matrix(1,0,0,0.75,3.4999999,8.3749986)" cx="40" cy="43.5" r="2"/>
  <radialGradient inkscape:collect="always" xlink:href="#linearGradient4125" id="radialGradient3152" gradientUnits="userSpaceOnUse" gradientTransform="matrix(1,0,0,0.75,-3.5000011,8.3749986)" cx="9" cy="43.5" r="2"/>
  <linearGradient inkscape:collect="always" xlink:href="#linearGradient3760" id="linearGradient3802" y1="0" x2="0" y2="22" gradientUnits="userSpaceOnUse"/>
  <linearGradient id="linearGradient3760">
   <stop id="stop3762" stop-color="#e44343"/>
   <stop offset="1" id="stop3764" stop-color="#ac0808"/>
  </linearGradient>
  <linearGradient gradientTransform="translate(25,25)" y2="22" x2="0" y1="0" gradientUnits="userSpaceOnUse" id="linearGradient3021" xlink:href="#linearGradient3760" inkscape:collect="always"/>
 </defs>
 <g inkscape:groupmode="layer" id="layer1" inkscape:label="Background">
  <g id="g3162">
   <path sodipodi:nodetypes="ccccc" inkscape:connector-curvature="0" id="rect3985" d="m 4.614285,38.5 39.771573,0 0,5 -39.771573,0 z" opacity="0.12" fill="url(#linearGradient3149)"/>
   <path d="m 44.385716,38.5 0,5 0.528571,0 c 0.878486,0 1.585715,-1.115 1.585715,-2.5 0,-1.385 -0.707229,-2.5 -1.585715,-2.5 l -0.528571,0 z" id="path3987" inkscape:connector-curvature="0" opacity="0.12" fill="url(#radialGradient3146)"/>
   <path d="m 3.9866064,38.5 c -0.8235804,0 -1.4866072,1.045312 -1.4866072,2.34375 l 0,0.3125 c 0,1.298439 0.6630268,2.34375 1.4866072,2.34375 l 0.6276786,0 0,-5 -0.6276786,0 z" id="path3989" inkscape:connector-curvature="0" opacity="0.12" fill="url(#radialGradient3143)"/>
   <path sodipodi:nodetypes="ccccc" inkscape:connector-curvature="0" id="rect3938" d="m 5.499999,39.5 38.000142,0 0,3 -38.000142,0 z" opacity="0.12" fill="url(#linearGradient3158)"/>
   <path inkscape:connector-curvature="0" id="rect3940" d="m 43.5,39.499999 0,3 0.5,0 c 0.831,0 1.5,-0.669 1.5,-1.5 0,-0.831 -0.669,-1.5 -1.5,-1.5 l -0.5,0 z" opacity="0.12" fill="url(#radialGradient3155)"/>
   <path inkscape:connector-curvature="0" id="rect3942" d="m 4.9062489,39.499999 c -0.7790625,0 -1.40625,0.627187 -1.40625,1.40625 l 0,0.1875 c 0,0.779063 0.6271875,1.40625 1.40625,1.40625 l 0.59375,0 0,-3 -0.59375,0 z" opacity="0.12" fill="url(#radialGradient3152)"/>
  </g>
  <g id="g3962" opacity="0.6">
   <rect transform="matrix(0,1,1,0,0,0)" id="rect3886" width="33" height="41" x="8" y="4" opacity="0.35" color="#bebebe" stroke-width="0" rx="1"/>
   <rect y="5" x="9" height="39" width="31" id="rect3882" transform="matrix(0,1,1,0,0,0)" fill="url(#linearGradient3947)" color="#bebebe" stroke-width="0" rx="0"/>
   <rect transform="matrix(0,1,-1,0,0,0)" id="rect3383" width="27" height="35" x="11" y="-42" fill="url(#linearGradient3123)" color="#bebebe" stroke-width="0" rx="0"/>
   <path id="rect3888" d="m 7,11 0,27 35,0 0,-27 z m 1,1 33,0 0,25 -33,0 z" inkscape:connector-curvature="0" sodipodi:nodetypes="cccccccccc" opacity="0.2"/>
   <path sodipodi:nodetypes="cccccccccc" inkscape:connector-curvature="0" d="m 5,9 0,31 39,0 0,-31 z m 1,1 37,0 0,29 -37,0 z" id="path3893" opacity="0.4" fill="#ffffff"/>
   <rect y="9" x="5" height="1" width="39" id="rect4018" opacity="0.4" fill="#ffffff"/>
  </g>
 </g>
 <g inkscape:groupmode="layer" id="layer2" inkscape:label="Symbol">
  <path inkscape:connector-curvature="0" d="m 36,26.5 c -5.240783,0 -9.5,4.259217 -9.5,9.5 0,5.240782 4.259217,9.5 9.5,9.5 5.240783,0 9.5,-4.259218 9.5,-9.5 0,-5.240783 -4.259217,-9.5 -9.5,-9.5 z" id="path4791" fill="url(#linearGradient3021)" fill-rule="evenodd"/>
  <path inkscape:connector-curvature="0" id="path3804" d="m 36,26.5 c -5.240783,0 -9.5,4.259217 -9.5,9.5 0,5.240782 4.259217,9.5 9.5,9.5 5.240783,0 9.5,-4.259218 9.5,-9.5 0,-5.240783 -4.259217,-9.5 -9.5,-9.5 z" opacity="0.61" fill="none" stroke="#790000"/>
  <path inkscape:connector-curvature="0" d="m 36,27 c -4.969881,0 -9,4.030119 -9,9 0,0.171541 0.02177,0.330826 0.03125,0.5 C 27.2963,31.767849 31.20166,28 36,28 c 4.79834,0 8.7037,3.767849 8.96875,8.5 C 44.97825,36.330826 45,36.171541 45,36 45,31.030119 40.969881,27 36,27 z" id="path3806" opacity="0.2" fill="#ffffff" fill-rule="evenodd"/>
  <path id="path3820" d="m 36,46 c -4.969881,0 -9,-4.030119 -9,-9 0,-0.171541 0.02177,-0.330826 0.03125,-0.5 C 27.2963,41.232151 31.20166,45 36,45 40.79834,45 44.7037,41.232151 44.96875,36.5 44.97825,36.669174 45,36.828459 45,37 c 0,4.969881 -4.030119,9 -9,9 z" inkscape:connector-curvature="0" opacity="0.2" fill-rule="evenodd"/>
  <path sodipodi:nodetypes="cscccscscccscscccscscccsc" inkscape:connector-curvature="0" id="path3830" d="m 32,39 0,-1 c 0,-0.27614 0.10029,-0.53778 0.28125,-0.71875 L 34.5625,35 32.28125,32.71875 C 32.10029,32.53778 32,32.276141 32,32 l 0,-1 1,0 c 0.27614,0 0.53779,0.10028 0.71875,0.28125 L 36,33.5625 38.28125,31.28125 C 38.46221,31.10028 38.727796,31.046474 39,31 l 1,0 0,1 c 0,0.27614 -0.10029,0.53778 -0.28125,0.71875 L 37.4375,35 39.71875,37.28125 C 39.89971,37.46222 40,37.72386 40,38 l 0,1 -1,0 c -0.27614,0 -0.53779,-0.10028 -0.71875,-0.28125 L 36,36.4375 33.71875,38.71875 C 33.53779,38.89972 33.276143,39 33,39 z" opacity="0.3" color="#000000" stroke-width="2"/>
  <path d="m 32,32 0,1 c 0,0.27614 0.10029,0.53778 0.28125,0.71875 L 34.5625,36 32.28125,38.28125 C 32.10029,38.46222 32,38.723859 32,39 l 0,1 1,0 c 0.27614,0 0.53779,-0.10028 0.71875,-0.28125 L 36,37.4375 38.28125,39.71875 C 38.46221,39.89972 38.727796,39.953526 39,40 l 1,0 0,-1 c 0,-0.27614 -0.10029,-0.53778 -0.28125,-0.71875 L 37.4375,36 39.71875,33.71875 C 39.89971,33.53778 40,33.27614 40,33 l 0,-1 -1,0 c -0.27614,0 -0.53779,0.10028 -0.71875,0.28125 L 36,34.5625 33.71875,32.28125 C 33.53779,32.10028 33.276143,32 33,32 z" id="path5757" inkscape:connector-curvature="0" sodipodi:nodetypes="cscccscscccscscccscscccsc" fill="#ffffff" color="#000000" stroke-width="2"/>
 </g>
</svg>
