<?xml version="1.0" encoding="UTF-8" standalone="no"?>
<svg
   xmlns:dc="http://purl.org/dc/elements/1.1/"
   xmlns:cc="http://creativecommons.org/ns#"
   xmlns:rdf="http://www.w3.org/1999/02/22-rdf-syntax-ns#"
   xmlns:svg="http://www.w3.org/2000/svg"
   xmlns="http://www.w3.org/2000/svg"
   xmlns:xlink="http://www.w3.org/1999/xlink"
   id="svg3759"
   height="48"
   width="48"
   version="1.1">
  <metadata
     id="metadata37">
    <rdf:RDF>
      <cc:Work
         rdf:about="">
        <dc:format>image/svg+xml</dc:format>
        <dc:type
           rdf:resource="http://purl.org/dc/dcmitype/StillImage" />
        <dc:title />
      </cc:Work>
    </rdf:RDF>
  </metadata>
  <defs
     id="defs3761">
    <linearGradient
       y2="24"
       x2="43.500004"
       y1="24"
       x1="4.5000033"
       gradientTransform="matrix(0,1,-1,0,48.000003,-2.9e-6)"
       gradientUnits="userSpaceOnUse"
       id="linearGradient3874"
       xlink:href="#linearGradient3760-9" />
    <linearGradient
       id="linearGradient3760-9">
      <stop
         id="stop3762-6"
         offset="0"
         style="stop-color:#e44343;stop-opacity:1;" />
      <stop
         id="stop3764-6"
         offset="1"
         style="stop-color:#ac0808;stop-opacity:1;" />
    </linearGradient>
  </defs>
  <g
     id="layer1">
    <path
       id="path4026"
       d="M 24,5 C 12.960351,5 4,13.96111 4,25 4,36.03985 12.960367,45 24,45 35.040018,45 44,36.03988 44,25 44,13.961083 35.04013,5 24,5 z"
       style="font-size:medium;font-style:normal;font-variant:normal;font-weight:normal;font-stretch:normal;text-indent:0;text-align:start;text-decoration:none;line-height:normal;letter-spacing:normal;word-spacing:normal;text-transform:none;direction:ltr;block-progression:tb;writing-mode:lr-tb;text-anchor:start;baseline-shift:baseline;opacity:0.05000000000000000;color:#000000;fill:#000000;fill-opacity:1;stroke:#000000;stroke-width:2;marker:none;visibility:visible;display:inline;overflow:visible;enable-background:accumulate;font-family:Sans;-inkscape-font-specification:Sans;stroke-opacity:1;stroke-miterlimit:4;stroke-dasharray:none" />
    <path
       style="font-size:medium;font-style:normal;font-variant:normal;font-weight:normal;font-stretch:normal;text-indent:0;text-align:start;text-decoration:none;line-height:normal;letter-spacing:normal;word-spacing:normal;text-transform:none;direction:ltr;block-progression:tb;writing-mode:lr-tb;text-anchor:start;baseline-shift:baseline;opacity:0.1;color:#000000;fill:#000000;fill-opacity:1;stroke:#000000;stroke-width:1;marker:none;visibility:visible;display:inline;overflow:visible;enable-background:accumulate;font-family:Sans;-inkscape-font-specification:Sans;stroke-opacity:1"
       d="M 24,5 C 12.960351,5 4,13.96111 4,25 4,36.03985 12.960367,45 24,45 35.040018,45 44,36.03988 44,25 44,13.961083 35.04013,5 24,5 z"
       id="path4024" />
    <path
       id="path4018"
       d="M 24,5 C 12.960351,5 4,13.96111 4,25 4,36.03985 12.960367,45 24,45 35.040018,45 44,36.03988 44,25 44,13.961083 35.04013,5 24,5 z"
       style="font-size:medium;font-style:normal;font-variant:normal;font-weight:normal;font-stretch:normal;text-indent:0;text-align:start;text-decoration:none;line-height:normal;letter-spacing:normal;word-spacing:normal;text-transform:none;direction:ltr;block-progression:tb;writing-mode:lr-tb;text-anchor:start;baseline-shift:baseline;opacity:0.2;color:#000000;fill:#000000;fill-opacity:1;stroke:none;stroke-width:1;marker:none;visibility:visible;display:inline;overflow:visible;enable-background:accumulate;font-family:Sans;-inkscape-font-specification:Sans" />
    <path
       d="m 4.5000031,24.000691 c 0,-10.769899 8.7310909,-19.5006909 19.4997549,-19.5006909 10.769649,0 19.500245,8.7308909 19.500245,19.5006909 C 43.500003,34.770096 34.769407,43.5 23.999758,43.5 13.231094,43.5 4.5000031,34.770096 4.5000031,24.000691 l 0,0 z"
       id="path6495"
       style="fill:url(#linearGradient3874);fill-opacity:1;fill-rule:nonzero;stroke:none" />
    <path
       id="path3872"
       d="M 24 5 C 13.500552 5 5 13.500823 5 24 C 5 24.169463 5.0268485 24.331605 5.03125 24.5 C 5.299553 14.235412 13.670013 6 24 6 C 34.328993 6 42.700416 14.235427 42.96875 24.5 C 42.973152 24.331604 43 24.169465 43 24 C 43 13.500839 34.498438 5 24 5 z "
       style="fill:#ffffff;fill-opacity:1;fill-rule:nonzero;stroke:none;opacity:0.4" />
    <path
       style="opacity:0.81;fill:none;stroke:#5c0303;stroke-width:1;stroke-miterlimit:4;stroke-opacity:1;stroke-dasharray:none"
       id="path3796"
       d="M 23.999309,4.5 C 34.769208,4.5 43.5,13.231091 43.5,23.999755 43.5,34.769404 34.769109,43.5 23.999309,43.5 13.229903,43.5 4.5,34.769404 4.5,23.999755 4.5,13.231091 13.229903,4.5 23.999309,4.5 l 0,0 z" />
    <path
       style="opacity:0.1;fill:#ffffff;fill-opacity:1;fill-rule:nonzero;stroke:none"
       d="M 24,43 C 13.500552,43 5,34.499177 5,24 5,23.830537 5.0268485,23.668395 5.03125,23.5 5.299553,33.764588 13.670013,42 24,42 34.328993,42 42.700416,33.764573 42.96875,23.5 42.973152,23.668396 43,23.830535 43,24 43,34.499161 34.498438,43 24,43 z"
       id="path3366" />
  </g>
  <g
     id="layer2">
    <path
       id="path3963"
       d="m 35.762237,28.195836 c -0.645145,1.103914 -2.254522,0.795882 -3.403299,0.627562 -1.116638,-0.162453 -2.449595,-0.32675 -3.183374,-1.365967 -0.412578,-0.582078 -0.286632,-1.3029 -0.284654,-1.928726 0.0016,-0.617698 0.189262,-1.398156 -0.1656,-1.935576 -0.574602,-0.873266 -1.77694,-1.100557 -2.48164,-1.206964 -1.595531,-0.236692 -2.828119,-0.248592 -4.532675,0.04474 -0.826113,0.141147 -1.951806,0.355622 -2.406411,1.156239 -0.67853,1.196263 0.342506,2.555536 -0.453068,3.808679 -0.756985,1.192895 -2.141433,1.241748 -3.171278,1.391972 -0.994239,0.142579 -2.433452,0.516211 -3.228051,-0.284858 -0.455761,-0.461006 -0.418116,-1.115151 -0.417706,-1.710616 -0.0011,-0.606427 -0.07592,-1.202529 -0.0016,-1.736739 0.178823,-1.294129 0.795118,-2.536215 1.841961,-3.667479 1.026253,-1.109164 2.202983,-1.680637 3.3585,-2.122979 2.260076,-0.864152 4.385882,-1.086605 6.775965,-1.115023 2.350233,-0.02857 4.675267,0.24488 6.932861,1.149503 2.818623,1.130274 4.697088,3.461087 5.026629,5.88398 0.05676,0.410698 0.01993,0.949682 0.01369,1.467316 -0.0046,0.517534 0.06376,1.059507 -0.220304,1.544946 z"
       clip-rule="evenodd"
       style="fill:#000000;fill-opacity:1;fill-rule:evenodd;stroke:none;display:inline;enable-background:new;opacity:0.3" />
    <path
       style="fill:#ffffff;fill-opacity:1;fill-rule:evenodd;stroke:none;display:inline;enable-background:new"
       clip-rule="evenodd"
       d="m 35.762237,27.195836 c -0.645145,1.103914 -2.254522,0.795882 -3.403299,0.627562 -1.116638,-0.162453 -2.449595,-0.32675 -3.183374,-1.365967 -0.412578,-0.582078 -0.286632,-1.3029 -0.284654,-1.928726 0.0016,-0.617698 0.189262,-1.398156 -0.1656,-1.935576 -0.574602,-0.873266 -1.77694,-1.100557 -2.48164,-1.206964 -1.595531,-0.236692 -2.828119,-0.248592 -4.532675,0.04474 -0.826113,0.141147 -1.951806,0.355622 -2.406411,1.156239 -0.67853,1.196263 0.342506,2.555536 -0.453068,3.808679 -0.756985,1.192895 -2.141433,1.241748 -3.171278,1.391972 -0.994239,0.142579 -2.433452,0.516211 -3.228051,-0.284858 -0.455761,-0.461006 -0.418116,-1.115151 -0.417706,-1.710616 -0.0011,-0.606427 -0.07592,-1.202529 -0.0016,-1.736739 0.178823,-1.294129 0.795118,-2.536215 1.841961,-3.667479 1.026253,-1.109164 2.202983,-1.680637 3.3585,-2.122979 2.260076,-0.864152 4.385882,-1.086605 6.775965,-1.115023 2.350233,-0.02857 4.675267,0.24488 6.932861,1.149503 2.818623,1.130274 4.697088,3.461087 5.026629,5.88398 0.05676,0.410698 0.01993,0.949682 0.01369,1.467316 -0.0046,0.517534 0.06376,1.059507 -0.220304,1.544946 z"
       id="path8317" />
  </g>
</svg>
