<?xml version="1.0" encoding="UTF-8" standalone="no"?>
<svg
   xmlns:dc="http://purl.org/dc/elements/1.1/"
   xmlns:cc="http://creativecommons.org/ns#"
   xmlns:rdf="http://www.w3.org/1999/02/22-rdf-syntax-ns#"
   xmlns:svg="http://www.w3.org/2000/svg"
   xmlns="http://www.w3.org/2000/svg"
   xmlns:xlink="http://www.w3.org/1999/xlink"
   id="svg3759"
   height="48"
   width="48"
   version="1.1">
  <metadata
     id="metadata37">
    <rdf:RDF>
      <cc:Work
         rdf:about="">
        <dc:format>image/svg+xml</dc:format>
        <dc:type
           rdf:resource="http://purl.org/dc/dcmitype/StillImage" />
        <dc:title />
      </cc:Work>
    </rdf:RDF>
  </metadata>
  <defs
     id="defs3761">
    <linearGradient
       y2="24"
       x2="43.500004"
       y1="24"
       x1="4.5000033"
       gradientTransform="matrix(0,-1,-1,0,48.000003,48.500003)"
       gradientUnits="userSpaceOnUse"
       id="linearGradient3874"
       xlink:href="#linearGradient3886" />
    <linearGradient
       id="linearGradient3886">
      <stop
         id="stop3888"
         offset="0"
         style="stop-color:#2ca42a;stop-opacity:1;" />
      <stop
         id="stop3890"
         offset="1"
         style="stop-color:#57d932;stop-opacity:1;" />
    </linearGradient>
    <linearGradient
       id="linearGradient3904-2">
      <stop
         style="stop-color:#1c521e;stop-opacity:1;"
         offset="0"
         id="stop3906-5" />
      <stop
         style="stop-color:#2f821a;stop-opacity:1;"
         offset="1"
         id="stop3908-1" />
    </linearGradient>
    <linearGradient
       gradientTransform="matrix(0,-1,1,0,0,48)"
       gradientUnits="userSpaceOnUse"
       y2="24"
       x2="44"
       y1="24"
       x1="4"
       id="linearGradient4266"
       xlink:href="#linearGradient3904-2" />
  </defs>
  <g
     id="layer1">
    <path
       id="path4026"
       d="M 24,5 C 12.960351,5 4,13.96111 4,25 4,36.03985 12.960367,45 24,45 35.040018,45 44,36.03988 44,25 44,13.961083 35.04013,5 24,5 z"
       style="font-size:medium;font-style:normal;font-variant:normal;font-weight:normal;font-stretch:normal;text-indent:0;text-align:start;text-decoration:none;line-height:normal;letter-spacing:normal;word-spacing:normal;text-transform:none;direction:ltr;block-progression:tb;writing-mode:lr-tb;text-anchor:start;baseline-shift:baseline;opacity:0.05000000000000000;color:#000000;fill:#000000;fill-opacity:1;stroke:#000000;stroke-width:2;marker:none;visibility:visible;display:inline;overflow:visible;enable-background:accumulate;font-family:Sans;-inkscape-font-specification:Sans;stroke-opacity:1;stroke-miterlimit:4;stroke-dasharray:none" />
    <path
       style="font-size:medium;font-style:normal;font-variant:normal;font-weight:normal;font-stretch:normal;text-indent:0;text-align:start;text-decoration:none;line-height:normal;letter-spacing:normal;word-spacing:normal;text-transform:none;direction:ltr;block-progression:tb;writing-mode:lr-tb;text-anchor:start;baseline-shift:baseline;opacity:0.1;color:#000000;fill:#000000;fill-opacity:1;stroke:#000000;stroke-width:1;marker:none;visibility:visible;display:inline;overflow:visible;enable-background:accumulate;font-family:Sans;-inkscape-font-specification:Sans;stroke-opacity:1"
       d="M 24,5 C 12.960351,5 4,13.96111 4,25 4,36.03985 12.960367,45 24,45 35.040018,45 44,36.03988 44,25 44,13.961083 35.04013,5 24,5 z"
       id="path4024" />
    <path
       id="path4018"
       d="M 24,5 C 12.960351,5 4,13.96111 4,25 4,36.03985 12.960367,45 24,45 35.040018,45 44,36.03988 44,25 44,13.961083 35.04013,5 24,5 z"
       style="font-size:medium;font-style:normal;font-variant:normal;font-weight:normal;font-stretch:normal;text-indent:0;text-align:start;text-decoration:none;line-height:normal;letter-spacing:normal;word-spacing:normal;text-transform:none;direction:ltr;block-progression:tb;writing-mode:lr-tb;text-anchor:start;baseline-shift:baseline;opacity:0.2;color:#000000;fill:#000000;fill-opacity:1;stroke:none;stroke-width:1;marker:none;visibility:visible;display:inline;overflow:visible;enable-background:accumulate;font-family:Sans;-inkscape-font-specification:Sans" />
    <path
       d="M 4.5000031,24.499309 C 4.5000031,35.269208 13.231094,44 23.999758,44 c 10.769649,0 19.500245,-8.730891 19.500245,-19.500691 0,-10.769405 -8.730596,-19.4993089 -19.500245,-19.4993089 -10.768664,0 -19.4997549,8.7299039 -19.4997549,19.4993089 l 0,0 z"
       id="path6495"
       style="fill:url(#linearGradient3874);fill-opacity:1;fill-rule:nonzero;stroke:none" />
    <path
       id="path3872"
       d="M 24 5 C 13.500552 5 5 13.500823 5 24 C 5 24.169463 5.0268485 24.331605 5.03125 24.5 C 5.299553 14.235412 13.670013 6 24 6 C 34.328993 6 42.700416 14.235427 42.96875 24.5 C 42.973152 24.331604 43 24.169465 43 24 C 43 13.500839 34.498438 5 24 5 z "
       style="fill:#ffffff;fill-opacity:1;fill-rule:nonzero;stroke:none;opacity:0.4" />
    <path
       style="opacity:0.81000001;fill:none;stroke:url(#linearGradient4266);stroke-width:1;stroke-miterlimit:4;stroke-opacity:1;stroke-dasharray:none"
       id="path3796"
       d="M 4.5,24.000691 C 4.5,13.230792 13.231091,4.5 23.999755,4.5 34.769404,4.5 43.5,13.230891 43.5,24.000691 43.5,34.770097 34.769404,43.5 23.999755,43.5 13.231091,43.5 4.5,34.770097 4.5,24.000691 l 0,0 z" />
    <path
       style="opacity:0.1;fill:#ffffff;fill-opacity:1;fill-rule:nonzero;stroke:none"
       d="M 24,43 C 13.500552,43 5,34.499177 5,24 5,23.830537 5.0268485,23.668395 5.03125,23.5 5.299553,33.764588 13.670013,42 24,42 34.328993,42 42.700416,33.764573 42.96875,23.5 42.973152,23.668396 43,23.830535 43,24 43,34.499161 34.498438,43 24,43 z"
       id="path3366" />
  </g>
  <g
     id="layer2">
    <path
       id="path3963"
       d="m 14.049063,31.169469 c -0.324398,-1.236772 1.031415,-2.156962 1.962743,-2.850249 0.904454,-0.674711 1.963172,-1.501078 3.21687,-1.285101 0.703328,0.119854 1.123969,0.71861 1.565096,1.162534 0.435647,0.43791 0.854817,1.122474 1.485755,1.251562 1.023798,0.211188 2.034698,-0.478275 2.608237,-0.901332 1.295578,-0.960844 2.175564,-1.824001 3.17345,-3.236721 0.484344,-0.683956 1.128672,-1.631598 0.884005,-2.519174 -0.366093,-1.325679 -2.049225,-1.564848 -2.372776,-3.01351 -0.308234,-1.378774 0.636174,-2.39227 1.25816,-3.226705 0.602214,-0.803852 1.355694,-2.085727 2.484002,-2.081152 0.648252,0.0037 1.084183,0.492878 1.504951,0.914226 0.429586,0.42803 0.903999,0.796632 1.229191,1.226928 0.78864,1.041534 1.231141,2.355608 1.290836,3.895762 0.05863,1.509968 -0.369354,2.746135 -0.873645,3.875991 -0.987068,2.209163 -2.332941,3.869633 -4.002891,5.579772 -1.641663,1.682067 -3.479069,3.132756 -5.715094,4.089451 -2.792292,1.193843 -5.768701,0.873985 -7.714966,-0.606238 -0.330543,-0.250272 -0.685619,-0.657434 -1.047229,-1.027869 -0.362699,-0.369205 -0.79427,-0.7041 -0.936664,-1.248221 z"
       clip-rule="evenodd"
       style="opacity:0.3;fill:#000000;fill-opacity:1;fill-rule:evenodd;stroke:none;display:inline;enable-background:new" />
    <path
       style="fill:#ffffff;fill-opacity:1;fill-rule:evenodd;stroke:none;display:inline;enable-background:new"
       clip-rule="evenodd"
       d="m 14.049063,30.169469 c -0.324398,-1.236772 1.031415,-2.156962 1.962743,-2.850249 0.904454,-0.674711 1.963172,-1.501078 3.21687,-1.285101 0.703328,0.119854 1.123969,0.71861 1.565096,1.162534 0.435647,0.43791 0.854817,1.122474 1.485755,1.251562 1.023798,0.211188 2.034698,-0.478275 2.608237,-0.901332 1.295578,-0.960844 2.175564,-1.824001 3.17345,-3.236721 0.484344,-0.683956 1.128672,-1.631598 0.884005,-2.519174 -0.366093,-1.325679 -2.049225,-1.564848 -2.372776,-3.01351 -0.308234,-1.378774 0.636174,-2.39227 1.25816,-3.226705 0.602214,-0.803852 1.355694,-2.085727 2.484002,-2.081152 0.648252,0.0037 1.084183,0.492878 1.504951,0.914226 0.429586,0.42803 0.903999,0.796632 1.229191,1.226928 0.78864,1.041534 1.231141,2.355608 1.290836,3.895762 0.05863,1.509968 -0.369354,2.746135 -0.873645,3.875991 -0.987068,2.209163 -2.332941,3.869633 -4.002891,5.579772 -1.641663,1.682067 -3.479069,3.132756 -5.715094,4.089451 -2.792292,1.193843 -5.768701,0.873985 -7.714966,-0.606238 -0.330543,-0.250272 -0.685619,-0.657434 -1.047229,-1.027869 -0.362699,-0.369205 -0.79427,-0.7041 -0.936664,-1.248221 z"
       id="path8317" />
  </g>
</svg>
