<?xml version="1.0" encoding="UTF-8" standalone="no"?>
<svg
   xmlns:dc="http://purl.org/dc/elements/1.1/"
   xmlns:cc="http://creativecommons.org/ns#"
   xmlns:rdf="http://www.w3.org/1999/02/22-rdf-syntax-ns#"
   xmlns:svg="http://www.w3.org/2000/svg"
   xmlns="http://www.w3.org/2000/svg"
   xmlns:xlink="http://www.w3.org/1999/xlink"
   id="svg3759"
   height="48"
   width="48"
   version="1.1">
  <metadata
     id="metadata37">
    <rdf:RDF>
      <cc:Work
         rdf:about="">
        <dc:format>image/svg+xml</dc:format>
        <dc:type
           rdf:resource="http://purl.org/dc/dcmitype/StillImage" />
        <dc:title />
      </cc:Work>
    </rdf:RDF>
  </metadata>
  <defs
     id="defs3761">
    <linearGradient
       id="linearGradient3960">
      <stop
         id="stop3962"
         offset="0"
         style="stop-color:#000000;stop-opacity:0;" />
      <stop
         style="stop-color:#000000;stop-opacity:1;"
         offset="0.5"
         id="stop3970" />
      <stop
         id="stop3964"
         offset="1"
         style="stop-color:#000000;stop-opacity:0;" />
    </linearGradient>
    <linearGradient
       id="linearGradient3952">
      <stop
         id="stop3954"
         offset="0"
         style="stop-color:#000000;stop-opacity:1;" />
      <stop
         id="stop3956"
         offset="1"
         style="stop-color:#000000;stop-opacity:0;" />
    </linearGradient>
    <linearGradient
       id="linearGradient3944">
      <stop
         id="stop3946"
         offset="0"
         style="stop-color:#000000;stop-opacity:1;" />
      <stop
         id="stop3948"
         offset="1"
         style="stop-color:#000000;stop-opacity:0;" />
    </linearGradient>
    <linearGradient
       id="linearGradient3988-5">
      <stop
         id="stop3990-5"
         offset="0"
         style="stop-color:#ededed;stop-opacity:1;" />
      <stop
         id="stop3992-0"
         offset="1"
         style="stop-color:#fafafa;stop-opacity:1;" />
    </linearGradient>
    <linearGradient
       y2="40.000172"
       x2="144.00006"
       y1="280.00018"
       x1="144.00006"
       gradientTransform="matrix(0.175,0,0,0.175,-1.20002,-6.0000326)"
       gradientUnits="userSpaceOnUse"
       id="linearGradient3158"
       xlink:href="#linearGradient3988-5" />
    <radialGradient
       gradientUnits="userSpaceOnUse"
       gradientTransform="matrix(1,0,0,0.75,0,10.875)"
       r="2"
       fy="43.5"
       fx="9"
       cy="43.5"
       cx="9"
       id="radialGradient3950"
       xlink:href="#linearGradient3944" />
    <radialGradient
       gradientUnits="userSpaceOnUse"
       gradientTransform="matrix(1,0,0,0.75,0,10.875)"
       r="2"
       fy="43.5"
       fx="40"
       cy="43.5"
       cx="40"
       id="radialGradient3958"
       xlink:href="#linearGradient3952" />
    <linearGradient
       gradientUnits="userSpaceOnUse"
       y2="42"
       x2="25"
       y1="45"
       x1="25"
       id="linearGradient3968"
       xlink:href="#linearGradient3960" />
    <linearGradient
       y2="42"
       x2="25"
       y1="45"
       x1="25"
       gradientUnits="userSpaceOnUse"
       id="linearGradient3997"
       xlink:href="#linearGradient3960" />
    <radialGradient
       r="2"
       fy="43.5"
       fx="40"
       cy="43.5"
       cx="40"
       gradientTransform="matrix(1,0,0,0.75,0,10.875)"
       gradientUnits="userSpaceOnUse"
       id="radialGradient3999"
       xlink:href="#linearGradient3952" />
    <radialGradient
       r="2"
       fy="43.5"
       fx="9"
       cy="43.5"
       cx="9"
       gradientTransform="matrix(1,0,0,0.75,0,10.875)"
       gradientUnits="userSpaceOnUse"
       id="radialGradient4001"
       xlink:href="#linearGradient3944" />
  </defs>
  <g
     id="layer1">
    <g
       style="opacity:0.20000000000000001"
       transform="matrix(1.0571429,0,0,1.6666667,-1.4,-29)"
       id="g3983">
      <rect
         y="42"
         x="9"
         height="3"
         width="31"
         id="rect3985"
         style="opacity:0.59999999999999998;fill:url(#linearGradient3997);fill-opacity:1;stroke:none" />
      <path
         id="path3987"
         d="m 40,42 0,3 0.5,0 C 41.331,45 42,44.331 42,43.5 42,42.669 41.331,42 40.5,42 L 40,42 z"
         style="opacity:0.59999999999999998;fill:url(#radialGradient3999);fill-opacity:1;stroke:none" />
      <path
         id="path3989"
         d="M 8.40625,42 C 7.6271875,42 7,42.627187 7,43.40625 l 0,0.1875 C 7,44.372813 7.6271875,45 8.40625,45 L 9,45 9,42 8.40625,42 z"
         style="opacity:0.59999999999999998;fill:url(#radialGradient4001);fill-opacity:1;stroke:none" />
    </g>
    <g
       style="opacity:0.20000000000000001"
       id="g3978">
      <rect
         style="opacity:0.59999999999999998;fill:url(#linearGradient3968);fill-opacity:1;stroke:none"
         id="rect3938"
         width="31"
         height="3"
         x="9"
         y="42" />
      <path
         style="opacity:0.59999999999999998;fill:url(#radialGradient3958);fill-opacity:1;stroke:none"
         d="M 40 42 L 40 45 L 40.5 45 C 41.331 45 42 44.331 42 43.5 C 42 42.669 41.331 42 40.5 42 L 40 42 z "
         id="rect3940" />
      <path
         style="opacity:0.59999999999999998;fill:url(#radialGradient3950);fill-opacity:1;stroke:none"
         d="M 8.40625 42 C 7.6271875 42 7 42.627187 7 43.40625 L 7 43.59375 C 7 44.372813 7.6271875 45 8.40625 45 L 9 45 L 9 42 L 8.40625 42 z "
         id="rect3942" />
    </g>
    <g
       transform="matrix(0,1,-1,0,48,-1)"
       id="g4204">
      <g
         id="g4020"
         transform="translate(2,-1)">
        <rect
           transform="matrix(0,1,1,0,0,0)"
           style="opacity:0.35;color:#bebebe;fill:#000000;fill-opacity:1;fill-rule:nonzero;stroke:none;stroke-width:0;marker:none;visibility:visible;display:inline;overflow:visible;enable-background:accumulate"
           id="rect3886"
           width="33"
           height="41"
           x="8"
           y="2"
           ry="1" />
        <rect
           ry="0"
           y="3"
           x="9"
           height="39"
           width="31"
           id="rect3882"
           style="color:#bebebe;fill:url(#linearGradient3158);fill-opacity:1;fill-rule:nonzero;stroke:none;stroke-width:0;marker:none;visibility:visible;display:inline;overflow:visible;enable-background:accumulate"
           transform="matrix(0,1,1,0,0,0)" />
        <path
           style="opacity:0.4;fill:#ffffff;fill-opacity:1;stroke:none"
           d="m 3,9 0,31 39,0 0,-31 z m 1,1 37,0 0,29 -37,0 z"
           id="path3893" />
        <rect
           y="9"
           x="3"
           height="1"
           width="39"
           id="rect4018"
           style="opacity:0.4;fill:#ffffff;fill-opacity:1;stroke:none" />
      </g>
    </g>
  </g>
  <g
     id="layer2">
    <path
       style="font-size:medium;font-style:normal;font-variant:normal;font-weight:normal;font-stretch:normal;text-indent:0;text-align:start;text-decoration:none;line-height:normal;letter-spacing:normal;word-spacing:normal;text-transform:none;direction:ltr;block-progression:tb;writing-mode:lr-tb;text-anchor:start;baseline-shift:baseline;color:#000000;fill:#ffffff;fill-opacity:1;stroke:none;stroke-width:1.99999975999999990;marker:none;visibility:visible;display:inline;overflow:visible;enable-background:accumulate;font-family:Sans;-inkscape-font-specification:Sans;opacity:0.4"
       d="m 22,34 0,-10.0005 c 0,0 -3.208333,0 -3.5625,0 2.67234,-3.854836 5.67492,-8.465447 6.0625,-9.0625 l 6.0625,9.0625 -3.5625,0 L 27,34 z"
       id="path3912" />
    <path
       id="path1299"
       d="m 22,33 0,-10.0005 c 0,0 -3.208333,0 -3.5625,0 2.67234,-3.854836 5.67492,-8.465447 6.0625,-9.0625 l 6.0625,9.0625 -3.5625,0 L 27,33 z"
       style="font-size:medium;font-style:normal;font-variant:normal;font-weight:normal;font-stretch:normal;text-indent:0;text-align:start;text-decoration:none;line-height:normal;letter-spacing:normal;word-spacing:normal;text-transform:none;direction:ltr;block-progression:tb;writing-mode:lr-tb;text-anchor:start;baseline-shift:baseline;color:#000000;fill:#bbbbbb;fill-opacity:1;stroke:none;stroke-width:1.99999976;marker:none;visibility:visible;display:inline;overflow:visible;enable-background:accumulate;font-family:Sans;-inkscape-font-specification:Sans" />
    <path
       id="path3139"
       d="M 24.5 13.9375 C 24.11242 14.534553 21.10984 19.145164 18.4375 23 L 19.125 23 C 21.595659 19.395108 24.146335 15.482308 24.5 14.9375 L 29.90625 23 L 30.5625 23 L 24.5 13.9375 z "
       style="font-size:medium;font-style:normal;font-variant:normal;font-weight:normal;font-stretch:normal;text-indent:0;text-align:start;text-decoration:none;line-height:normal;letter-spacing:normal;word-spacing:normal;text-transform:none;direction:ltr;block-progression:tb;writing-mode:lr-tb;text-anchor:start;baseline-shift:baseline;color:#000000;fill:#000000;fill-opacity:1;stroke:none;stroke-width:1.99999975999999990;marker:none;visibility:visible;display:inline;overflow:visible;enable-background:accumulate;font-family:Sans;-inkscape-font-specification:Sans;opacity:0.2" />
  </g>
</svg>
