<?xml version="1.0" encoding="UTF-8" standalone="no"?>
<svg xmlns="http://www.w3.org/2000/svg" xmlns:xlink="http://www.w3.org/1999/xlink" xmlns:sodipodi="http://sodipodi.sourceforge.net/DTD/sodipodi-0.dtd" xmlns:inkscape="http://www.inkscape.org/namespaces/inkscape" version="1.1" width="48" height="48">
 <metadata id="metadata37"/>
 <defs id="defs3761">
  <linearGradient id="linearGradient3920">
   <stop id="stop3922" stop-color="#f8f8f8"/>
   <stop id="stop3924" offset="1" stop-color="#e6e6e6"/>
  </linearGradient>
  <linearGradient id="linearGradient3960">
   <stop id="stop3962" stop-opacity="0"/>
   <stop id="stop3970" offset="0.5"/>
   <stop offset="1" id="stop3964" stop-opacity="0"/>
  </linearGradient>
  <linearGradient inkscape:collect="always" id="linearGradient3952">
   <stop id="stop3954"/>
   <stop offset="1" id="stop3956" stop-opacity="0"/>
  </linearGradient>
  <linearGradient id="linearGradient3988">
   <stop id="stop3990" stop-color="#eeeeec"/>
   <stop offset="1" id="stop3992" stop-color="#ffffff"/>
  </linearGradient>
  <linearGradient id="linearGradient3988-5">
   <stop id="stop3990-5" stop-color="#ededed"/>
   <stop offset="1" id="stop3992-0" stop-color="#fafafa"/>
  </linearGradient>
  <linearGradient inkscape:collect="always" xlink:href="#linearGradient3988-5" id="linearGradient3158" gradientUnits="userSpaceOnUse" gradientTransform="matrix(0.175,0,0,0.175,-1.20002,-6.0000326)" y1="280" x2="0" y2="40"/>
  <radialGradient inkscape:collect="always" xlink:href="#linearGradient3952" id="radialGradient3950" cx="9" cy="43.5" r="2" gradientTransform="matrix(1,0,0,0.75,0,10.875)" gradientUnits="userSpaceOnUse"/>
  <radialGradient inkscape:collect="always" xlink:href="#linearGradient3952" id="radialGradient3958" cx="40" cy="43.5" r="2" gradientTransform="matrix(1,0,0,0.75,0,10.875)" gradientUnits="userSpaceOnUse"/>
  <linearGradient inkscape:collect="always" xlink:href="#linearGradient3960" id="linearGradient3968" y1="45" x2="0" y2="42" gradientUnits="userSpaceOnUse"/>
  <linearGradient inkscape:collect="always" xlink:href="#linearGradient3920" id="linearGradient3915" y1="45" x2="0" y2="35" gradientUnits="userSpaceOnUse"/>
 </defs>
 <g inkscape:groupmode="layer" id="layer1" inkscape:label="Background">
  <g id="g3983" transform="matrix(1.0571429,0,0,1.6666667,-1.4,-29)" opacity="0.2">
   <rect id="rect3985" width="31" height="3" x="9" y="42" opacity="0.6" fill="url(#linearGradient3968)"/>
   <path d="m 40,42 0,3 0.5,0 C 41.331,45 42,44.331 42,43.5 42,42.669 41.331,42 40.5,42 L 40,42 z" id="path3987" inkscape:connector-curvature="0" opacity="0.6" fill="url(#radialGradient3958)"/>
   <path d="M 8.40625,42 C 7.6271875,42 7,42.627187 7,43.40625 l 0,0.1875 C 7,44.372813 7.6271875,45 8.40625,45 L 9,45 9,42 8.40625,42 z" id="path3989" inkscape:connector-curvature="0" opacity="0.6" fill="url(#radialGradient3950)"/>
  </g>
  <g id="g3978" opacity="0.2">
   <rect y="42" x="9" height="3" width="31" id="rect3938" opacity="0.6" fill="url(#linearGradient3968)"/>
   <path id="rect3940" d="M 40 42 L 40 45 L 40.5 45 C 41.331 45 42 44.331 42 43.5 C 42 42.669 41.331 42 40.5 42 L 40 42 z " opacity="0.6" fill="url(#radialGradient3958)"/>
   <path id="rect3942" d="M 8.40625 42 C 7.6271875 42 7 42.627187 7 43.40625 L 7 43.59375 C 7 44.372813 7.6271875 45 8.40625 45 L 9 45 L 9 42 L 8.40625 42 z " opacity="0.6" fill="url(#radialGradient3950)"/>
  </g>
  <g id="g4204" transform="matrix(0,1,-1,0,48,-1)">
   <g transform="translate(2,-1)" id="g4020">
    <rect y="2" x="8" height="41" width="33" id="rect3886" transform="matrix(0,1,1,0,0,0)" opacity="0.35" color="#bebebe" stroke-width="0" rx="1"/>
    <rect transform="matrix(0,1,1,0,0,0)" id="rect3882" width="31" height="39" x="9" y="3" fill="url(#linearGradient3158)" color="#bebebe" stroke-width="0" rx="0"/>
    <path id="path3893" d="m 3,9 0,31 39,0 0,-31 z m 1,1 37,0 0,29 -37,0 z" inkscape:connector-curvature="0" sodipodi:nodetypes="cccccccccc" opacity="0.4" fill="#ffffff"/>
    <rect id="rect4018" width="39" height="1" x="3" y="9" opacity="0.4" fill="#ffffff"/>
   </g>
  </g>
 </g>
 <g inkscape:groupmode="layer" id="layer2" inkscape:label="Symbol">
  <g id="g4009" transform="matrix(0.91428571,0,0,1,9.6,1)" opacity="0.2">
   <rect id="rect4011" width="31" height="3" x="9" y="42" opacity="0.6" fill="url(#linearGradient3968)"/>
   <path d="m 40,42 0,3 0.5,0 C 41.331,45 42,44.331 42,43.5 42,42.669 41.331,42 40.5,42 L 40,42 z" id="path4013" inkscape:connector-curvature="0" opacity="0.6" fill="url(#radialGradient3958)"/>
   <path d="M 8.40625,42 C 7.6271875,42 7,42.627187 7,43.40625 l 0,0.1875 C 7,44.372813 7.6271875,45 8.40625,45 L 9,45 9,42 8.40625,42 z" id="path4015" inkscape:connector-curvature="0" opacity="0.6" fill="url(#radialGradient3950)"/>
  </g>
  <path sodipodi:nodetypes="cccccccc" inkscape:connector-curvature="0" id="path5251" d="m 22,15.999 0,10.0005 c 0,0 -3.208333,0 -3.5625,0 2.67234,3.854836 5.67492,8.465447 6.0625,9.0625 l 6.0625,-9.0625 -3.5625,0 0,-10.0005 z" opacity="0.4" color="#000000" stroke-width="2" fill="#ffffff"/>
  <path d="M 22,14.9995 22,25 c 0,0 -3.208333,0 -3.5625,0 2.67234,3.854836 5.67492,8.465447 6.0625,9.0625 L 30.5625,25 27,25 27,14.9995 z" id="path1299" inkscape:connector-curvature="0" sodipodi:nodetypes="cccccccc" opacity="1" color="#000000" stroke-width="2" fill="#bbbbbb"/>
  <path d="m 22,14.9995 0,1 5,0 0,-1 z M 18.4375,25 c 0.233841,0.337314 0.450575,0.654308 0.6875,1 L 22,26 22,25 z M 27,25 l 0,1 2.90625,0 0.65625,-1 z" id="path3934" inkscape:connector-curvature="0" sodipodi:nodetypes="ccccccccccccccc" opacity="0.2" color="#000000" stroke-width="2"/>
  <path d="M 20 35.5 C 18.623649 35.5 17.5 36.623649 17.5 38 L 17.5 42 C 17.5 43.376351 18.623649 44.5 20 44.5 L 44 44.5 C 45.376351 44.5 46.5 43.376351 46.5 42 L 46.5 38 C 46.5 36.623649 45.376351 35.5 44 35.5 L 20 35.5 z " id="rect3139" fill="url(#linearGradient3915)" fill-rule="evenodd"/>
  <path id="path3933" d="M 20 35.5 C 18.623649 35.5 17.5 36.623649 17.5 38 L 17.5 42 C 17.5 43.376351 18.623649 44.5 20 44.5 L 44 44.5 C 45.376351 44.5 46.5 43.376351 46.5 42 L 46.5 38 C 46.5 36.623649 45.376351 35.5 44 35.5 L 20 35.5 z " opacity="0.31" fill="none" fill-rule="evenodd" stroke="#000000"/>
  <path d="M 20 36 C 18.895781 36 18 36.895781 18 38 L 18 39 C 18 37.895781 18.895781 37 20 37 L 44 37 C 45.104219 37 46 37.895781 46 39 L 46 38 C 46 36.895781 45.104219 36 44 36 L 20 36 z " id="path3935" opacity="0.05" fill-rule="evenodd"/>
  <path id="path3949" d="m 20.125,44 c -1.104219,0 -2,-0.895781 -2,-2 l 0,-1 c 0,1.104219 0.895781,2 2,2 l 24,0 c 1.104219,0 2,-0.895781 2,-2 l 0,1 c 0,1.104219 -0.895781,2 -2,2 l -24,0 z" inkscape:connector-curvature="0" opacity="0.4" fill="#ffffff" fill-rule="evenodd"/>
  <rect id="rect3951" width="20" height="6" x="19" y="37" opacity="0.1" rx="0"/>
  <rect id="rect3956" width="3" height="0.5" x="20" y="37.5" opacity="0.2"/>
  <rect y="42" x="20" height="0.5" width="3" id="rect3958" opacity="0.2"/>
  <rect id="rect3960" width="1" height="4" x="21" y="38" opacity="0.2"/>
 </g>
</svg>
