<?xml version="1.0" encoding="UTF-8" standalone="no"?>
<svg
   xmlns:dc="http://purl.org/dc/elements/1.1/"
   xmlns:cc="http://creativecommons.org/ns#"
   xmlns:rdf="http://www.w3.org/1999/02/22-rdf-syntax-ns#"
   xmlns:svg="http://www.w3.org/2000/svg"
   xmlns="http://www.w3.org/2000/svg"
   xmlns:xlink="http://www.w3.org/1999/xlink"
   id="svg3759"
   height="48"
   width="48"
   version="1.1">
  <metadata
     id="metadata37">
    <rdf:RDF>
      <cc:Work
         rdf:about="">
        <dc:format>image/svg+xml</dc:format>
        <dc:type
           rdf:resource="http://purl.org/dc/dcmitype/StillImage" />
        <dc:title />
      </cc:Work>
    </rdf:RDF>
  </metadata>
  <defs
     id="defs3761">
    <linearGradient
       y2="42"
       x2="25"
       y1="45"
       x1="25"
       gradientUnits="userSpaceOnUse"
       id="linearGradient3997"
       xlink:href="#linearGradient3960-7" />
    <linearGradient
       id="linearGradient3960-7">
      <stop
         id="stop3962-5"
         offset="0"
         style="stop-color:#000000;stop-opacity:0;" />
      <stop
         style="stop-color:#000000;stop-opacity:1;"
         offset="0.5"
         id="stop3970-2" />
      <stop
         id="stop3964-3"
         offset="1"
         style="stop-color:#000000;stop-opacity:0;" />
    </linearGradient>
    <radialGradient
       r="2"
       fy="43.5"
       fx="40"
       cy="43.5"
       cx="40"
       gradientTransform="matrix(1,0,0,0.75,0,10.875)"
       gradientUnits="userSpaceOnUse"
       id="radialGradient3999"
       xlink:href="#linearGradient3952-6" />
    <linearGradient
       id="linearGradient3952-6">
      <stop
         id="stop3954-4"
         offset="0"
         style="stop-color:#000000;stop-opacity:1;" />
      <stop
         id="stop3956-4"
         offset="1"
         style="stop-color:#000000;stop-opacity:0;" />
    </linearGradient>
    <linearGradient
       id="linearGradient3944-4">
      <stop
         id="stop3946-3"
         offset="0"
         style="stop-color:#000000;stop-opacity:1;" />
      <stop
         id="stop3948-1"
         offset="1"
         style="stop-color:#000000;stop-opacity:0;" />
    </linearGradient>
    <linearGradient
       gradientUnits="userSpaceOnUse"
       y2="42"
       x2="25"
       y1="45"
       x1="25"
       id="linearGradient3968"
       xlink:href="#linearGradient3960-7" />
    <radialGradient
       gradientUnits="userSpaceOnUse"
       gradientTransform="matrix(1,0,0,0.75,0,10.875)"
       r="2"
       fy="43.5"
       fx="40"
       cy="43.5"
       cx="40"
       id="radialGradient3958"
       xlink:href="#linearGradient3952-6" />
    <radialGradient
       gradientUnits="userSpaceOnUse"
       gradientTransform="matrix(1,0,0,0.75,0,10.875)"
       r="2"
       fy="43.5"
       fx="9"
       cy="43.5"
       cx="9"
       id="radialGradient3950"
       xlink:href="#linearGradient3944-4" />
    <linearGradient
       y2="40.000172"
       x2="144.00006"
       y1="280.00018"
       x1="144.00006"
       gradientTransform="matrix(0.175,0,0,0.175,-1.20002,-6.0000326)"
       gradientUnits="userSpaceOnUse"
       id="linearGradient3158-9"
       xlink:href="#linearGradient3988-5-2" />
    <linearGradient
       id="linearGradient3988-5-2">
      <stop
         id="stop3990-5-4"
         offset="0"
         style="stop-color:#ededed;stop-opacity:1;" />
      <stop
         id="stop3992-0-9"
         offset="1"
         style="stop-color:#fafafa;stop-opacity:1;" />
    </linearGradient>
    <radialGradient
       xlink:href="#linearGradient3944-4"
       id="radialGradient3272"
       gradientUnits="userSpaceOnUse"
       gradientTransform="matrix(1,0,0,0.75,0,10.875)"
       cx="9"
       cy="43.5"
       fx="9"
       fy="43.5"
       r="2" />
  </defs>
  <g
     id="layer1">
    <use
       height="48"
       width="48"
       transform="translate(-6,-4)"
       id="use5083"
       xlink:href="#g5067"
       y="0"
       x="0" />
    <g
       id="g5067">
      <g
         id="g3983"
         transform="matrix(1.0571429,0,0,1.6666667,0.5999997,-27.000001)"
         style="opacity:0.2">
        <rect
           style="opacity:0.6;fill:url(#linearGradient3997);fill-opacity:1;stroke:none"
           id="rect3985"
           width="31"
           height="3"
           x="9"
           y="42" />
        <path
           style="opacity:0.6;fill:url(#radialGradient3999);fill-opacity:1;stroke:none"
           d="m 40,42 0,3 0.5,0 C 41.331,45 42,44.331 42,43.5 42,42.669 41.331,42 40.5,42 L 40,42 z"
           id="path3987" />
        <path
           style="opacity:0.6;fill:url(#radialGradient3272);fill-opacity:1;stroke:none"
           d="M 8.40625,42 C 7.6271875,42 7,42.627187 7,43.40625 l 0,0.1875 C 7,44.372813 7.6271875,45 8.40625,45 L 9,45 9,42 8.40625,42 z"
           id="path3989" />
      </g>
      <g
         transform="translate(1.9999997,1.9999988)"
         id="g3978"
         style="opacity:0.2">
        <rect
           y="42"
           x="9"
           height="3"
           width="31"
           id="rect3938"
           style="opacity:0.6;fill:url(#linearGradient3968);fill-opacity:1;stroke:none" />
        <path
           id="rect3940"
           d="m 40,42 0,3 0.5,0 C 41.331,45 42,44.331 42,43.5 42,42.669 41.331,42 40.5,42 L 40,42 z"
           style="opacity:0.6;fill:url(#radialGradient3958);fill-opacity:1;stroke:none" />
        <path
           id="rect3942"
           d="M 8.40625,42 C 7.6271875,42 7,42.627187 7,43.40625 l 0,0.1875 C 7,44.372813 7.6271875,45 8.40625,45 L 9,45 9,42 8.40625,42 z"
           style="opacity:0.6;fill:url(#radialGradient3950);fill-opacity:1;stroke:none" />
      </g>
      <g
         id="g4204"
         transform="matrix(0,1,-1,0,50,0.9999985)">
        <g
           transform="translate(2,-1)"
           id="g4020">
          <rect
             ry="1"
             y="2"
             x="8"
             height="41"
             width="33"
             id="rect3886"
             style="opacity:0.35;color:#bebebe;fill:#000000;fill-opacity:1;fill-rule:nonzero;stroke:none;stroke-width:0;marker:none;visibility:visible;display:inline;overflow:visible;enable-background:accumulate"
             transform="matrix(0,1,1,0,0,0)" />
          <rect
             transform="matrix(0,1,1,0,0,0)"
             style="color:#bebebe;fill:url(#linearGradient3158-9);fill-opacity:1;fill-rule:nonzero;stroke:none;stroke-width:0;marker:none;visibility:visible;display:inline;overflow:visible;enable-background:accumulate"
             id="rect3882"
             width="31"
             height="39"
             x="9"
             y="3"
             ry="0" />
          <path
             id="path3893"
             d="m 3,9 0,31 39,0 0,-31 z m 1,1 37,0 0,29 -37,0 z"
             style="opacity:0.4;fill:#ffffff;fill-opacity:1;stroke:none" />
          <rect
             style="opacity:0.4;fill:#ffffff;fill-opacity:1;stroke:none"
             id="rect4018"
             width="39"
             height="1"
             x="3"
             y="9" />
        </g>
      </g>
    </g>
  </g>
  <g
     style="display:inline"
     id="layer2" />
  <path
     style="fill:none;fill-opacity:1;stroke:none;display:inline"
     d="m 33,27 0,6 -6,0 0,6 6,0 0,6 6,0 0,-6 6,0 0,-6 -6,0 0,-6 -6,0 z"
     id="path3204" />
</svg>
