<?xml version="1.0" encoding="UTF-8" standalone="no"?>
<svg xmlns="http://www.w3.org/2000/svg" xmlns:xlink="http://www.w3.org/1999/xlink" xmlns:sodipodi="http://sodipodi.sourceforge.net/DTD/sodipodi-0.dtd" xmlns:inkscape="http://www.inkscape.org/namespaces/inkscape" version="1.1" width="48" height="48">
 <metadata id="metadata37"/>
 <defs id="defs3761">
  <linearGradient id="linearGradient4520">
   <stop id="stop4522" stop-color="#571746"/>
   <stop offset="0.362" id="stop4524" stop-color="#8a2c48"/>
   <stop id="stop4526" offset="1" stop-color="#af5c25"/>
  </linearGradient>
  <linearGradient inkscape:collect="always" id="linearGradient4125">
   <stop id="stop4127"/>
   <stop offset="1" id="stop4129" stop-opacity="0"/>
  </linearGradient>
  <linearGradient id="linearGradient3810">
   <stop id="stop3812" stop-color="#4cc7e0"/>
   <stop offset="1" id="stop3814" stop-color="#2061be"/>
  </linearGradient>
  <linearGradient id="linearGradient4873">
   <stop id="stop4875" stop-color="#ffffff"/>
   <stop id="stop4877" offset="1" stop-color="#ffffff" stop-opacity="0"/>
  </linearGradient>
  <linearGradient inkscape:collect="always" xlink:href="#linearGradient4873" id="linearGradient3017" gradientUnits="userSpaceOnUse" gradientTransform="matrix(2.1153734,0,0,2.1153252,-107.57708,31.426557)" y1="-12.489" x2="0" y2="-1.462"/>
  <linearGradient inkscape:collect="always" xlink:href="#linearGradient3810" id="linearGradient3816" x1="4.5" x2="43.5" gradientUnits="userSpaceOnUse" gradientTransform="matrix(0,1,-1,0,48.000003,-3e-6)"/>
  <linearGradient inkscape:collect="always" xlink:href="#linearGradient3988" id="linearGradient3965" gradientUnits="userSpaceOnUse" y1="116.26" x2="0" y2="31.773"/>
  <linearGradient id="linearGradient3988">
   <stop id="stop3990" stop-color="#eeeeec"/>
   <stop offset="1" id="stop3992" stop-color="#ffffff"/>
  </linearGradient>
  <radialGradient inkscape:collect="always" xlink:href="#linearGradient4125" id="radialGradient3755" gradientUnits="userSpaceOnUse" gradientTransform="matrix(1,0,0,0.37,0,24.5124)" cx="24.85" cy="38.909" r="20.2"/>
  <radialGradient r="20.2" cy="38.909" cx="24.85" gradientTransform="matrix(1.00851,0,0,0.373148,-0.211403,24.39)" gradientUnits="userSpaceOnUse" id="radialGradient4274" xlink:href="#linearGradient4125" inkscape:collect="always"/>
  <linearGradient inkscape:collect="always" xlink:href="#linearGradient4873" id="linearGradient4140" x1="789" x2="827" gradientUnits="userSpaceOnUse"/>
  <clipPath id="clipPath4130">
   <path id="path4132" d="M 790.4375,237 C 789.62555,237 789,237.62555 789,238.4375 l 0,35.09375 c 0,0.812 0.62555,1.46875 1.4375,1.46875 l 35.125,0 c 0.81195,0 1.4375,-0.65675 1.4375,-1.46875 l 0,-35.09375 C 827,237.62555 826.37445,237 825.5625,237 l -35.125,0 z"/>
  </clipPath>
  <linearGradient inkscape:collect="always" xlink:href="#linearGradient5618" id="linearGradient4083" x1="-1023.86" x2="-984.86" gradientUnits="userSpaceOnUse" gradientTransform="translate(980.3622,784)"/>
  <linearGradient id="linearGradient5618">
   <stop id="stop5620" stop-color="#3e3e3e"/>
   <stop offset="1" id="stop5622" stop-color="#595959"/>
  </linearGradient>
  <linearGradient id="linearGradient4094">
   <stop id="stop4096" stop-color="#e28192"/>
   <stop id="stop4317" offset="0.259" stop-color="#f7d6c7"/>
   <stop offset="1" id="stop4098" stop-color="#fffee4"/>
  </linearGradient>
  <clipPath id="clipPath14228">
   <rect id="rect14230" width="32" height="42" x="312" y="231" fill="none" color="#bebebe" stroke-width="0" rx="0"/>
  </clipPath>
  <clipPath id="clipPath3449">
   <rect id="rect3451" width="32" height="42" x="312" y="231" fill="none" color="#bebebe" stroke-width="0" rx="0"/>
  </clipPath>
  <linearGradient inkscape:collect="always" xlink:href="#linearGradient3988-5" id="linearGradient4030" x1="304" x2="352" gradientUnits="userSpaceOnUse"/>
  <linearGradient id="linearGradient3988-5">
   <stop id="stop3990-5" stop-color="#ededed"/>
   <stop offset="1" id="stop3992-0" stop-color="#ffffff"/>
  </linearGradient>
  <clipPath id="clipPath3457">
   <rect id="rect3459" width="32" height="42" x="312" y="231" fill="none" color="#bebebe" stroke-width="0" rx="0"/>
  </clipPath>
  <clipPath id="clipPath3461">
   <rect id="rect3463" width="32" height="42" x="312" y="231" fill="none" color="#bebebe" stroke-width="0" rx="0"/>
  </clipPath>
  <linearGradient id="outerBackgroundGradient">
   <stop id="stop3864-8-6" stop-color="#8c166c"/>
   <stop id="stop4409" offset="0.362" stop-color="#ca3561"/>
   <stop offset="1" id="stop3866-9-1" stop-color="#f38f4e"/>
  </linearGradient>
  <linearGradient inkscape:collect="always" xlink:href="#linearGradient3988-5" id="linearGradient3947" gradientUnits="userSpaceOnUse" gradientTransform="matrix(0,-0.175,0.175,0,-4.0000326,48.20002)" y1="280" x2="0" y2="40"/>
  <linearGradient inkscape:collect="always" xlink:href="#outerBackgroundGradient" id="linearGradient3949" gradientUnits="userSpaceOnUse" gradientTransform="matrix(0,-0.175,0.175,0,-4.0000326,1.2000199)" y1="280" x2="0" y2="40"/>
  <linearGradient inkscape:collect="always" xlink:href="#linearGradient4094" id="linearGradient3951" gradientUnits="userSpaceOnUse" x1="324" x2="332"/>
  <radialGradient inkscape:collect="always" xlink:href="#linearGradient4125" id="radialGradient4131" cx="23.5" cy="40" r="20.5" gradientTransform="matrix(1,0,0,0.09756098,0,36.097561)" gradientUnits="userSpaceOnUse"/>
  <radialGradient cx="4.993" cy="43.5" gradientTransform="matrix(2.003784,0,0,1.4,27.98813,-17.4)" gradientUnits="userSpaceOnUse" id="radialGradient9116" inkscape:collect="always" r="2.5" xlink:href="#linearGradient4125"/>
  <radialGradient cx="4.993" cy="43.5" gradientTransform="matrix(2.003784,0,0,1.4,-20.01187,-104.4)" gradientUnits="userSpaceOnUse" id="radialGradient9118" inkscape:collect="always" r="2.5" xlink:href="#linearGradient4125"/>
  <linearGradient gradientUnits="userSpaceOnUse" id="linearGradient9120" inkscape:collect="always" x2="0" xlink:href="#linearGradient3702" y1="47.03" y2="39.999"/>
  <linearGradient id="linearGradient3702">
   <stop id="stop3704" stop-opacity="0"/>
   <stop id="stop3710" offset="0.5"/>
   <stop id="stop3706" offset="1" stop-opacity="0"/>
  </linearGradient>
  <linearGradient gradientTransform="translate(80.00001,-0.0389932)" gradientUnits="userSpaceOnUse" id="linearGradient9122" inkscape:collect="always" x2="0" xlink:href="#linearGradient6394" y1="-0.806" y2="18.01"/>
  <linearGradient id="linearGradient6394" inkscape:collect="always">
   <stop id="stop6396" stop-color="#729fcf"/>
   <stop id="stop6398" offset="1" stop-color="#ffffff"/>
  </linearGradient>
  <linearGradient gradientTransform="matrix(1,0,0,2,80.00001,-17.038994)" gradientUnits="userSpaceOnUse" id="linearGradient9124" inkscape:collect="always" x2="0" xlink:href="#linearGradient6754" y1="16.188" y2="14.14"/>
  <linearGradient id="linearGradient6754" inkscape:collect="always">
   <stop id="stop6756" stop-color="#729fcf"/>
   <stop id="stop6758" offset="1" stop-color="#729fcf" stop-opacity="0"/>
  </linearGradient>
  <radialGradient cx="-16.484" cy="16.06" gradientTransform="matrix(1.4386863,0,0,1.1876132,7.181008,-2.926052)" gradientUnits="userSpaceOnUse" id="radialGradient9126" inkscape:collect="always" r="9" xlink:href="#linearGradient4873"/>
  <linearGradient inkscape:collect="always" xlink:href="#linearGradient6754" id="linearGradient4458" gradientUnits="userSpaceOnUse" gradientTransform="matrix(1,0,0,2,47.965462,11.645619)" y1="16.188" x2="0" y2="14.14"/>
  <linearGradient inkscape:collect="always" xlink:href="#outerBackgroundGradient" id="linearGradient4462" gradientUnits="userSpaceOnUse" gradientTransform="matrix(1.0769229,0,0,1.0769229,55.461537,22.120194)" y1="-0.806" x2="0" y2="18.01"/>
  <linearGradient inkscape:collect="always" xlink:href="#outerBackgroundGradient" id="linearGradient3123" gradientUnits="userSpaceOnUse" gradientTransform="matrix(0,-0.175,0.175,0,-5.0000326,-0.7999801)" y1="280" x2="0" y2="40"/>
  <linearGradient inkscape:collect="always" xlink:href="#linearGradient4094" id="linearGradient3117" gradientUnits="userSpaceOnUse" x1="324" x2="332" gradientTransform="matrix(0,-1,1,0,-208.375,365.12502)"/>
  <linearGradient y2="40" x2="0" y1="280" gradientTransform="matrix(0,-0.175,0.175,0,5.124967,-36.42498)" gradientUnits="userSpaceOnUse" id="linearGradient3157" xlink:href="#outerBackgroundGradient" inkscape:collect="always"/>
  <clipPath id="clipPath4552">
   <rect id="rect4554" width="21.1" height="21.1" x="42.892" y="24.01" rx="0" opacity="0.2"/>
  </clipPath>
  <linearGradient inkscape:collect="always" xlink:href="#linearGradient3702" id="linearGradient3149" gradientUnits="userSpaceOnUse" y1="45" x2="0" y2="42" gradientTransform="matrix(1.0571429,0,0,1.6666667,-4.9000011,-31.500001)"/>
  <radialGradient inkscape:collect="always" xlink:href="#linearGradient4125" id="radialGradient3146" gradientUnits="userSpaceOnUse" gradientTransform="matrix(1.0571429,0,0,1.25,2.0999999,-13.375001)" cx="40" cy="43.5" r="2"/>
  <radialGradient inkscape:collect="always" xlink:href="#linearGradient4125" id="radialGradient3143" gradientUnits="userSpaceOnUse" gradientTransform="matrix(1.0571429,0,0,1.25,-4.9000011,-13.375001)" cx="9" cy="43.5" r="2"/>
  <linearGradient inkscape:collect="always" xlink:href="#linearGradient3702" id="linearGradient3158" gradientUnits="userSpaceOnUse" y1="45" x2="0" y2="42" gradientTransform="translate(-3.5000011,-2.5000014)"/>
  <radialGradient inkscape:collect="always" xlink:href="#linearGradient4125" id="radialGradient3155" gradientUnits="userSpaceOnUse" gradientTransform="matrix(1,0,0,0.75,3.4999999,8.3749986)" cx="40" cy="43.5" r="2"/>
  <radialGradient inkscape:collect="always" xlink:href="#linearGradient4125" id="radialGradient3152" gradientUnits="userSpaceOnUse" gradientTransform="matrix(1,0,0,0.75,-3.5000011,8.3749986)" cx="9" cy="43.5" r="2"/>
  <linearGradient id="linearGradient3904">
   <stop id="stop3906" stop-color="#104b88"/>
   <stop id="stop3908" offset="1" stop-color="#0e7398"/>
  </linearGradient>
  <linearGradient y2="9" x2="0" y1="15" gradientTransform="translate(0.5,0.5)" gradientUnits="userSpaceOnUse" id="linearGradient3059" xlink:href="#linearGradient3886" inkscape:collect="always"/>
  <linearGradient inkscape:collect="always" id="linearGradient3886">
   <stop id="stop3888" stop-color="#5097e1"/>
   <stop offset="1" id="stop3890" stop-color="#53d0ff"/>
  </linearGradient>
  <linearGradient inkscape:collect="always" xlink:href="#linearGradient3904" id="linearGradient4039" gradientUnits="userSpaceOnUse" gradientTransform="matrix(0,-1,1,0,0,73)" x1="26" x2="46"/>
  <radialGradient cx="24.837" cy="36.421" r="15.645" id="radialGradient3870" xlink:href="#linearGradient4125" gradientUnits="userSpaceOnUse" gradientTransform="matrix(0.52995454,0,0,-0.35307735,0.487385,37.835677)"/>
  <linearGradient id="linearGradient2378">
   <stop id="stop2380" stop-color="#ffffff"/>
   <stop id="stop4146" offset="0.25" stop-color="#fefede" stop-opacity="0.918"/>
   <stop id="stop2386" offset="0.5" stop-color="#f5f328"/>
   <stop id="stop2382" offset="1" stop-color="#f5f32d" stop-opacity="0.122"/>
  </linearGradient>
  <radialGradient inkscape:collect="always" xlink:href="#linearGradient2378" id="radialGradient5130" gradientUnits="userSpaceOnUse" cx="38.659" cy="9.341" r="8.342"/>
 </defs>
 <g inkscape:groupmode="layer" id="layer1" inkscape:label="Background">
  <g id="g3162" transform="translate(0,-1)">
   <path sodipodi:nodetypes="ccccc" inkscape:connector-curvature="0" id="rect3985" d="m 4.614285,38.5 39.771573,0 0,5 -39.771573,0 z" opacity="0.12" fill="url(#linearGradient3149)"/>
   <path d="m 44.385716,38.5 0,5 0.528571,0 c 0.878486,0 1.585715,-1.115 1.585715,-2.5 0,-1.385 -0.707229,-2.5 -1.585715,-2.5 l -0.528571,0 z" id="path3987" inkscape:connector-curvature="0" opacity="0.12" fill="url(#radialGradient3146)"/>
   <path d="m 3.9866064,38.5 c -0.8235804,0 -1.4866072,1.045312 -1.4866072,2.34375 l 0,0.3125 c 0,1.298439 0.6630268,2.34375 1.4866072,2.34375 l 0.6276786,0 0,-5 -0.6276786,0 z" id="path3989" inkscape:connector-curvature="0" opacity="0.12" fill="url(#radialGradient3143)"/>
   <path sodipodi:nodetypes="ccccc" inkscape:connector-curvature="0" id="rect3938" d="m 5.499999,39.5 38.000142,0 0,3 -38.000142,0 z" opacity="0.12" fill="url(#linearGradient3158)"/>
   <path inkscape:connector-curvature="0" id="rect3940" d="m 43.5,39.499999 0,3 0.5,0 c 0.831,0 1.5,-0.669 1.5,-1.5 0,-0.831 -0.669,-1.5 -1.5,-1.5 l -0.5,0 z" opacity="0.12" fill="url(#radialGradient3155)"/>
   <path inkscape:connector-curvature="0" id="rect3942" d="m 4.9062489,39.499999 c -0.7790625,0 -1.40625,0.627187 -1.40625,1.40625 l 0,0.1875 c 0,0.779063 0.6271875,1.40625 1.40625,1.40625 l 0.59375,0 0,-3 -0.59375,0 z" opacity="0.12" fill="url(#radialGradient3152)"/>
  </g>
  <g id="g4204">
   <g transform="translate(2,-1)" id="g4020">
    <rect y="2" x="8" height="41" width="33" id="rect3886" transform="matrix(0,1,1,0,0,0)" opacity="0.35" color="#bebebe" stroke-width="0" rx="1"/>
    <rect transform="matrix(0,1,1,0,0,0)" id="rect3882" width="31" height="39" x="9" y="3" fill="url(#linearGradient3947)" color="#bebebe" stroke-width="0" rx="0"/>
    <path id="path3893" d="m 3,9 0,31 39,0 0,-31 z m 1,1 37,0 0,29 -37,0 z" inkscape:connector-curvature="0" sodipodi:nodetypes="cccccccccc" opacity="0.4" fill="#ffffff"/>
    <rect id="rect4018" width="39" height="1" x="3" y="9" opacity="0.4" fill="#ffffff"/>
   </g>
   <path d="M 6,11.474881 18.950131,23.70239 6.9250127,35.52512 19.672741,24.30939 23.8932,27.893789 24.5,28.413654 25.1068,27.893789 29.327258,24.30939 42.074987,35.52512 30.049869,23.70239 43,11.474881 24.499815,25.986056 z" id="path3886" inkscape:connector-curvature="0" sodipodi:nodetypes="ccccccccccccc" opacity="0.4" color="#000000"/>
   <path inkscape:connector-curvature="0" d="m 6,11.46875 6.28125,5.9375 L 24.5,27 36.71875,17.40625 43,11.46875 24.5,26 6,11.46875 z M 18.40625,24.1875 6.9375,35.53125 l 9.34375,-8.21875 2.65625,-2.625 -0.53125,-0.5 z m 12.1875,0 -0.53125,0.5 2.65625,2.625 9.34375,8.21875 L 30.59375,24.1875 z" id="path4857" opacity="0.1" color="#000000"/>
  </g>
 </g>
 <g inkscape:groupmode="layer" id="layer2" inkscape:label="Symbol">
  <g id="g11016" transform="matrix(1.1989598,0,0,1.1989598,-10.013686,-1.5429708)" enable-background="new">
   <path d="m 47.000506,9.3411446 c 0,4.6069664 -3.734684,8.3416514 -8.341651,8.3416514 -4.606966,0 -8.341651,-3.734685 -8.341651,-8.3416514 0,-4.6069667 3.734685,-8.341651 8.341651,-8.341651 4.606967,0 8.341651,3.7346843 8.341651,8.341651 z" id="path11018" sodipodi:cx="38.658855" sodipodi:cy="9.3411446" sodipodi:rx="8.341651" sodipodi:ry="8.341651" sodipodi:type="arc" transform="matrix(1.14985,0,0,1.14985,-6.073881,0.554685)" fill="url(#radialGradient5130)" fill-rule="evenodd"/>
   <path d="m 44.520054,15.50279 c -0.507171,0.878446 -4.594703,-0.160823 -5.521351,0.251748 -0.926648,0.41257 -2.889414,4.145604 -3.88159,3.934711 -0.992177,-0.210894 -1.266891,-4.419519 -1.945618,-5.173323 -0.678728,-0.753803 -4.835582,-1.466933 -4.94161,-2.475719 -0.106028,-1.008786 3.811722,-2.5705906 4.318893,-3.4490369 0.507171,-0.8784463 -0.09914,-5.0522193 0.827507,-5.4647895 0.926648,-0.4125703 3.622664,2.8308064 4.614841,3.0417001 0.992176,0.2108936 4.77431,-1.6555099 5.453037,-0.9017066 0.678728,0.7538034 -1.572792,4.3201254 -1.466764,5.3289109 0.106027,1.008786 3.049826,4.029058 2.542655,4.907505 z" id="path11020" inkscape:flatsided="false" inkscape:randomized="0" inkscape:rounded="0.18352206" sodipodi:arg1="0.52359878" sodipodi:arg2="1.1519173" sodipodi:cx="36.9375" sodipodi:cy="11.125" sodipodi:r1="8.755579" sodipodi:r2="5.0676599" sodipodi:sides="5" sodipodi:type="star" transform="matrix(0.674116,0.299577,-0.299577,0.674116,16.98558,-7.128679)" fill="#ffffff" fill-rule="evenodd" color="#000000" stroke-width="0.5"/>
  </g>
 </g>
</svg>
