<?xml version="1.0" encoding="UTF-8" standalone="no"?>
<svg
   xmlns:dc="http://purl.org/dc/elements/1.1/"
   xmlns:cc="http://creativecommons.org/ns#"
   xmlns:rdf="http://www.w3.org/1999/02/22-rdf-syntax-ns#"
   xmlns:svg="http://www.w3.org/2000/svg"
   xmlns="http://www.w3.org/2000/svg"
   xmlns:xlink="http://www.w3.org/1999/xlink"
   id="svg3759"
   height="48"
   width="48"
   version="1.1">
  <metadata
     id="metadata37">
    <rdf:RDF>
      <cc:Work
         rdf:about="">
        <dc:format>image/svg+xml</dc:format>
        <dc:type
           rdf:resource="http://purl.org/dc/dcmitype/StillImage" />
        <dc:title />
      </cc:Work>
    </rdf:RDF>
  </metadata>
  <defs
     id="defs3761">
    <linearGradient
       id="linearGradient3760">
      <stop
         id="stop3762"
         offset="0"
         style="stop-color:#e44343;stop-opacity:1;" />
      <stop
         id="stop3764"
         offset="1"
         style="stop-color:#ac0808;stop-opacity:1;" />
    </linearGradient>
    <linearGradient
       id="linearGradient6462-6-8-548-9-2-7-9">
      <stop
         id="stop6464-5-9-94-5-4-4-0"
         offset="0"
         style="stop-color:#000000;stop-opacity:1;" />
      <stop
         id="stop6466-3-6-1-7-2-8-5"
         offset="1"
         style="stop-color:#000000;stop-opacity:0;" />
    </linearGradient>
    <linearGradient
       id="linearGradient6462-6-8-548-9-5-1">
      <stop
         id="stop6464-5-9-94-5-8-7"
         offset="0"
         style="stop-color:#000000;stop-opacity:1;" />
      <stop
         id="stop6466-3-6-1-7-5-8"
         offset="1"
         style="stop-color:#000000;stop-opacity:0;" />
    </linearGradient>
    <radialGradient
       r="4.84375"
       fy="197.29688"
       fx="33.875"
       cy="197.29688"
       cx="33.875"
       gradientTransform="matrix(1,0,0,0.33870968,0,130.47051)"
       gradientUnits="userSpaceOnUse"
       id="radialGradient3957"
       xlink:href="#linearGradient6462-6-8-548-9-5-1" />
    <radialGradient
       r="4.84375"
       fy="197.29688"
       fx="33.875"
       cy="197.29688"
       cx="33.875"
       gradientTransform="matrix(1,0,0,0.33870968,0,130.47051)"
       gradientUnits="userSpaceOnUse"
       id="radialGradient3959"
       xlink:href="#linearGradient6462-6-8-548-9-2-7-9" />
    <linearGradient
       y2="24"
       x2="43.499943"
       y1="24"
       x1="4.5000572"
       gradientTransform="matrix(0,1,-1,0,48,-1e-7)"
       gradientUnits="userSpaceOnUse"
       id="linearGradient3839"
       xlink:href="#linearGradient3760" />
  </defs>
  <g
     id="layer1">
    <g
       id="g3963">
      <path
         style="opacity:0.25;color:#000000;fill:url(#radialGradient3957);fill-opacity:1;fill-rule:nonzero;stroke:none;stroke-width:3;marker:none;visibility:visible;display:inline;overflow:visible;enable-background:new"
         id="path6460-6-4-4-4-2"
         d="m 38.71875,197.29687 c 0,0.9061 -2.168621,1.64063 -4.84375,1.64063 -2.675129,0 -4.84375,-0.73453 -4.84375,-1.64063 0,-0.90609 2.168621,-1.64062 4.84375,-1.64062 2.675129,0 4.84375,0.73453 4.84375,1.64062 z"
         transform="matrix(4.541935,0,0,1.9809503,-129.85805,-347.33536)" />
      <path
         style="opacity:0.25;color:#000000;fill:url(#radialGradient3959);fill-opacity:1;fill-rule:nonzero;stroke:none;stroke-width:3;marker:none;visibility:visible;display:inline;overflow:visible;enable-background:new"
         id="path6460-6-4-4-3-3-8"
         d="m 38.71875,197.29687 c 0,0.9061 -2.168621,1.64063 -4.84375,1.64063 -2.675129,0 -4.84375,-0.73453 -4.84375,-1.64063 0,-0.90609 2.168621,-1.64062 4.84375,-1.64062 2.675129,0 4.84375,0.73453 4.84375,1.64062 z"
         transform="matrix(3.3032251,0,0,1.6761866,-87.896742,-287.20644)" />
    </g>
    <path
       id="path3021-9"
       d="M 16,4.5 4.65625,15.8125 4.5,15.96875 4.53125,16.15625 4.5,32 16,43.5 32,43.5 43.5,32 43.5,15.90625 32.03125,4.5 z"
       style="font-size:medium;font-style:normal;font-variant:normal;font-weight:normal;font-stretch:normal;text-indent:0;text-align:start;text-decoration:none;line-height:normal;letter-spacing:normal;word-spacing:normal;text-transform:none;direction:ltr;block-progression:tb;writing-mode:lr-tb;text-anchor:start;baseline-shift:baseline;color:#000000;fill:url(#linearGradient3839);fill-opacity:1;fill-rule:nonzero;stroke:none;stroke-width:0.69152206;marker:none;visibility:visible;display:inline;overflow:visible;enable-background:new;font-family:Sans;-inkscape-font-specification:Sans" />
    <path
       style="font-size:medium;font-style:normal;font-variant:normal;font-weight:normal;font-stretch:normal;text-indent:0;text-align:start;text-decoration:none;line-height:normal;letter-spacing:normal;word-spacing:normal;text-transform:none;direction:ltr;block-progression:tb;writing-mode:lr-tb;text-anchor:start;baseline-shift:baseline;color:#000000;fill:none;fill-opacity:1;fill-rule:nonzero;stroke:#820000;stroke-width:1;marker:none;visibility:visible;display:inline;overflow:visible;enable-background:new;font-family:Sans;-inkscape-font-specification:Sans;stroke-opacity:1;stroke-miterlimit:4;stroke-dasharray:none;opacity:0.91000000000000003;stroke-linejoin:round"
       d="M 16,4.5 4.65625,15.8125 4.5,15.96875 4.53125,16.15625 4.5,32 16,43.5 32,43.5 43.5,32 43.5,15.90625 32.03125,4.5 z"
       id="path3842" />
    <path
       id="path3862"
       d="M 16.1875 5 L 5.03125 16.125 L 5.03125 16.15625 L 5.03125 17.125 L 16.1875 6 L 31.84375 6 L 43 17.09375 L 43 16.09375 L 31.84375 5 L 16.1875 5 z "
       style="font-size:medium;font-style:normal;font-variant:normal;font-weight:normal;font-stretch:normal;text-indent:0;text-align:start;text-decoration:none;line-height:normal;letter-spacing:normal;word-spacing:normal;text-transform:none;direction:ltr;block-progression:tb;writing-mode:lr-tb;text-anchor:start;baseline-shift:baseline;color:#000000;fill:#ffffff;fill-opacity:1;fill-rule:nonzero;stroke:none;stroke-width:0.69152206000000005;marker:none;visibility:visible;display:inline;overflow:visible;enable-background:new;font-family:Sans;-inkscape-font-specification:Sans;opacity:0.2" />
    <path
       style="font-size:medium;font-style:normal;font-variant:normal;font-weight:normal;font-stretch:normal;text-indent:0;text-align:start;text-decoration:none;line-height:normal;letter-spacing:normal;word-spacing:normal;text-transform:none;direction:ltr;block-progression:tb;writing-mode:lr-tb;text-anchor:start;baseline-shift:baseline;opacity:0.4;color:#000000;fill:#000000;fill-opacity:1;fill-rule:nonzero;stroke:none;stroke-width:0.69152206000000005;marker:none;visibility:visible;display:inline;overflow:visible;enable-background:new;font-family:Sans;-inkscape-font-specification:Sans"
       d="m 16.171875,44 -11.15625,-11.125 0,-0.03125 0,-0.96875 11.15625,11.125 15.65625,0 11.15625,-11.09375 0,1 L 31.828125,44 16.171875,44 z"
       id="path3880" />
  </g>
  <g
     id="layer2">
    <g
       style="fill:#000000;fill-opacity:1;opacity:0.3"
       id="g3901"
       transform="translate(0,1.9999953)">
      <path
         id="path3903"
         style="font-size:40px;font-style:normal;font-variant:normal;font-weight:300;font-stretch:normal;line-height:125%;letter-spacing:0px;word-spacing:0px;fill:#000000;fill-opacity:1;stroke:none;font-family:Ubuntu;-inkscape-font-specification:Ubuntu Light"
         d="m 25,29 -2,0 c 0,-3 -0.98417,-7.79026 -1,-11 l 0,-8 4,0 0,8 c -0.196,3.85555 -1,8 -1,11 z" />
      <path
         style="color:#bebebe;fill:#000000;fill-opacity:1;stroke:none;stroke-width:5;marker:none;visibility:visible;display:inline;overflow:visible;enable-background:accumulate"
         id="path3905"
         d="m 330,268.25 c 0,1.24264 -0.89543,2.25 -2,2.25 -1.10457,0 -2,-1.00736 -2,-2.25 0,-1.24264 0.89543,-2.25 2,-2.25 1.10457,0 2,1.00736 2,2.25 z"
         transform="matrix(1,0,0,0.88888889,-304,-203.44444)" />
    </g>
    <g
       transform="translate(0,0.99999525)"
       id="g3897">
      <path
         d="m 25,29 -2,0 c 0,-3 -0.98417,-7.79026 -1,-11 l 0,-8 4,0 0,8 c -0.196,3.85555 -1,8 -1,11 z"
         style="font-size:40px;font-style:normal;font-variant:normal;font-weight:300;font-stretch:normal;line-height:125%;letter-spacing:0px;word-spacing:0px;fill:#ffffff;fill-opacity:1;stroke:none;font-family:Ubuntu;-inkscape-font-specification:Ubuntu Light"
         id="path3972" />
      <path
         transform="matrix(1,0,0,0.88888889,-304,-203.44444)"
         d="m 330,268.25 c 0,1.24264 -0.89543,2.25 -2,2.25 -1.10457,0 -2,-1.00736 -2,-2.25 0,-1.24264 0.89543,-2.25 2,-2.25 1.10457,0 2,1.00736 2,2.25 z"
         id="path3974"
         style="color:#bebebe;fill:#ffffff;fill-opacity:1;stroke:none;stroke-width:5;marker:none;visibility:visible;display:inline;overflow:visible;enable-background:accumulate" />
    </g>
  </g>
</svg>
