<?xml version="1.0" encoding="UTF-8" standalone="no"?>
<svg xmlns="http://www.w3.org/2000/svg" xmlns:xlink="http://www.w3.org/1999/xlink" xmlns:sodipodi="http://sodipodi.sourceforge.net/DTD/sodipodi-0.dtd" xmlns:inkscape="http://www.inkscape.org/namespaces/inkscape" version="1.1" width="48" height="48">
 <defs id="defs2438">
  <linearGradient x1="46.81" y1="-3.761" x2="22.683" y2="36.569" id="linearGradient2399" xlink:href="#linearGradient4222" gradientUnits="userSpaceOnUse"/>
  <linearGradient id="linearGradient4222">
   <stop id="stop4224" stop-color="#ffffff"/>
   <stop id="stop4226" offset="1" stop-color="#ffffff" stop-opacity="0"/>
  </linearGradient>
  <linearGradient x1="54.57" y1="-14.909" x2="20.825" y2="40.39" id="linearGradient2397" xlink:href="#linearGradient4222" gradientUnits="userSpaceOnUse"/>
  <linearGradient y1="27.631" x2="0" y2="12.5" id="linearGradient2395" xlink:href="#linearGradient5106" gradientUnits="userSpaceOnUse"/>
  <linearGradient id="linearGradient5106">
   <stop id="stop5108" stop-color="#555555"/>
   <stop id="stop5110" offset="1" stop-color="#222222"/>
  </linearGradient>
  <linearGradient y1="27.19" x2="0" y2="12.5" id="linearGradient2393" xlink:href="#linearGradient5106" gradientUnits="userSpaceOnUse"/>
  <linearGradient inkscape:collect="always" xlink:href="#linearGradient5106" id="linearGradient3786" gradientUnits="userSpaceOnUse" y1="27.631" x2="0" y2="12.5" gradientTransform="matrix(-1,0,0,-1,48.997885,48.000461)"/>
  <linearGradient inkscape:collect="always" xlink:href="#linearGradient5106" id="linearGradient3789" gradientUnits="userSpaceOnUse" y1="27.19" x2="0" y2="12.5" gradientTransform="matrix(-1,0,0,-1,49.013049,48.000461)"/>
 </defs>
 <metadata id="metadata2441"/>
 <path id="path3791" inkscape:connector-curvature="0" d="M 42.513049,13.000461 42.513049,35 24.017279,23.990267 42.513049,13.000461 z" fill="url(#linearGradient3789)" fill-rule="evenodd"/>
 <path id="path3793" inkscape:connector-curvature="0" d="M 24.497885,13.000461 24.497885,35 6.002115,23.990267 24.497885,13.000461 z" fill="url(#linearGradient3786)" fill-rule="evenodd"/>
 <path d="M 42.513049,13.000461 42.513049,35 24.017279,23.990267 42.513049,13.000461 z" inkscape:connector-curvature="0" id="path8027" opacity="0.5" fill="none" stroke="#000000" stroke-linecap="square" stroke-dashoffset="0.7"/>
 <path d="M 24.497885,13.000461 24.497885,35 6.002115,23.990267 24.497885,13.000461 z" inkscape:connector-curvature="0" id="path8033" opacity="0.5" fill="none" stroke="#000000" stroke-linecap="square" stroke-dashoffset="0.7"/>
 <path d="M 24,13.90625 23.25,14.34375 7.71875,23.5625 7,24 l 0.71875,0.4375 0.25,0.15625 L 8.96875,24 23,15.65625 l 0.25,-0.125 0.75,-0.4375 0,-0.3125 z" id="path8035" inkscape:connector-curvature="0" sodipodi:nodetypes="cccccccccccc" opacity="0.3" color="#000000" fill="#ffffff"/>
 <path d="m 42.015164,13.90625 -0.75,0.4375 -15.53125,9.21875 -0.71875,0.4375 0.71875,0.4375 0.25,0.15625 1,-0.59375 14.03125,-8.34375 0.25,-0.125 0.75,-0.4375 0,-0.3125 z" id="path8029" inkscape:connector-curvature="0" sodipodi:nodetypes="cccccccccccc" opacity="0.3" color="#000000" fill="#ffffff"/>
 <path sodipodi:nodetypes="cccccccccccc" inkscape:connector-curvature="0" id="path3809" d="m 24,35.025415 -0.75,-0.4375 -15.5312503,-9.21875 -0.71875,-0.4375 0.71875,-0.4375 0.25,-0.15625 1,0.59375 L 23,33.275415 l 0.25,0.125 0.75,0.4375 0,0.3125 z" opacity="0.3" color="#000000"/>
 <path sodipodi:nodetypes="cccccccccccc" inkscape:connector-curvature="0" id="path3811" d="m 42.015164,35.025415 -0.75,-0.4375 -15.53125,-9.21875 -0.71875,-0.4375 0.71875,-0.4375 0.25,-0.15625 1,0.59375 14.03125,8.34375 0.25,0.125 0.75,0.4375 0,0.3125 z" opacity="0.3" color="#000000"/>
</svg>
