<?xml version="1.0" encoding="UTF-8" standalone="no"?>
<svg
   xmlns:dc="http://purl.org/dc/elements/1.1/"
   xmlns:cc="http://creativecommons.org/ns#"
   xmlns:rdf="http://www.w3.org/1999/02/22-rdf-syntax-ns#"
   xmlns:svg="http://www.w3.org/2000/svg"
   xmlns="http://www.w3.org/2000/svg"
   xmlns:xlink="http://www.w3.org/1999/xlink"
   id="svg3759"
   height="48"
   width="48"
   version="1.1">
  <metadata
     id="metadata37">
    <rdf:RDF>
      <cc:Work
         rdf:about="">
        <dc:format>image/svg+xml</dc:format>
        <dc:type
           rdf:resource="http://purl.org/dc/dcmitype/StillImage" />
        <dc:title />
      </cc:Work>
    </rdf:RDF>
  </metadata>
  <defs
     id="defs3761">
    <linearGradient
       id="linearGradient3810">
      <stop
         id="stop3812"
         offset="0"
         style="stop-color:#4cc7e0;stop-opacity:1;" />
      <stop
         id="stop3814"
         offset="1"
         style="stop-color:#2061be;stop-opacity:1;" />
    </linearGradient>
    <linearGradient
       id="linearGradient4215">
      <stop
         offset="0"
         style="stop-color:#dcdcdc;stop-opacity:1"
         id="stop4217" />
      <stop
         offset="1"
         style="stop-color:#f0f0f0;stop-opacity:1"
         id="stop4219" />
    </linearGradient>
    <clipPath
       id="clipPath4812"
       clipPathUnits="userSpaceOnUse">
      <path
         style="color:#bebebe;fill:#bf5454;fill-opacity:1;fill-rule:nonzero;stroke:none;stroke-width:2;marker:none;visibility:visible;display:inline;overflow:visible;enable-background:accumulate"
         d="m 547.65198,-156.00108 c -22.10302,0 -39.84375,17.74073 -39.84375,39.84375 l 0,112.5000018 c 0,22.1030162 17.74073,39.8437502 39.84375,39.8437502 l 112.5,0 c 22.10302,0 39.84375,-17.740734 39.84375,-39.8437502 l 0,-112.5000018 c 0,-22.10302 -17.74073,-39.84375 -39.84375,-39.84375 l -112.5,0 z"
         id="path4814" />
    </clipPath>
    <linearGradient
       y2="244"
       x2="332"
       y1="244"
       x1="292"
       gradientTransform="matrix(0,-1,1,0,-220,336)"
       gradientUnits="userSpaceOnUse"
       id="linearGradient3161"
       xlink:href="#linearGradient4215" />
    <clipPath
       id="clipPath3182"
       clipPathUnits="userSpaceOnUse">
      <path
         d="m 4.5000031,24.000691 c 0,-10.769899 8.7310909,-19.5006909 19.4997549,-19.5006909 10.769649,0 19.500245,8.7308909 19.500245,19.5006909 C 43.500003,34.770096 34.769407,43.5 23.999758,43.5 13.231094,43.5 4.5000031,34.770096 4.5000031,24.000691 l 0,0 z"
         id="path3184"
         style="fill:url(#linearGradient3186);fill-opacity:1;fill-rule:nonzero;stroke:none" />
    </clipPath>
    <linearGradient
       y2="24"
       x2="43.500003"
       y1="24"
       x1="4.5000031"
       gradientTransform="matrix(0,1,-1,0,48.000003,-3e-6)"
       gradientUnits="userSpaceOnUse"
       id="linearGradient3186"
       xlink:href="#linearGradient3810" />
  </defs>
  <g
     id="layer1">
    <path
       style="font-size:medium;font-style:normal;font-variant:normal;font-weight:normal;font-stretch:normal;text-indent:0;text-align:start;text-decoration:none;line-height:normal;letter-spacing:normal;word-spacing:normal;text-transform:none;direction:ltr;block-progression:tb;writing-mode:lr-tb;text-anchor:start;baseline-shift:baseline;opacity:0.1;color:#000000;fill:#000000;fill-opacity:1;stroke:#000000;stroke-width:1;stroke-opacity:1;marker:none;visibility:visible;display:inline;overflow:visible;enable-background:accumulate;font-family:Sans;-inkscape-font-specification:Sans"
       d="M 24,5 C 12.960351,5 4,13.96111 4,25 4,36.03985 12.960367,45 24,45 35.040018,45 44,36.03988 44,25 44,13.961083 35.04013,5 24,5 z"
       id="path4024" />
    <path
       id="path4018"
       d="M 24,5 C 12.960351,5 4,13.96111 4,25 4,36.03985 12.960367,45 24,45 35.040018,45 44,36.03988 44,25 44,13.961083 35.04013,5 24,5 z"
       style="font-size:medium;font-style:normal;font-variant:normal;font-weight:normal;font-stretch:normal;text-indent:0;text-align:start;text-decoration:none;line-height:normal;letter-spacing:normal;word-spacing:normal;text-transform:none;direction:ltr;block-progression:tb;writing-mode:lr-tb;text-anchor:start;baseline-shift:baseline;opacity:0.2;color:#000000;fill:#000000;fill-opacity:1;stroke:none;stroke-width:1;marker:none;visibility:visible;display:inline;overflow:visible;enable-background:accumulate;font-family:Sans;-inkscape-font-specification:Sans" />
    <path
       style="font-size:medium;font-style:normal;font-variant:normal;font-weight:normal;font-stretch:normal;text-indent:0;text-align:start;text-decoration:none;line-height:normal;letter-spacing:normal;word-spacing:normal;text-transform:none;direction:ltr;block-progression:tb;writing-mode:lr-tb;text-anchor:start;baseline-shift:baseline;opacity:0.2;color:#000000;fill:#000000;fill-opacity:1;stroke:none;stroke-width:1;marker:none;visibility:visible;display:inline;overflow:visible;enable-background:accumulate;font-family:Sans;-inkscape-font-specification:Sans"
       d="M 24,5.5 C 13.236342,5.5 4.5,14.237082 4.5,25 4.5,35.763854 13.236358,44.5 24,44.5 34.764018,44.5 43.5,35.763883 43.5,25 43.5,14.237056 34.764127,5.5 24,5.5 z"
       id="path3372" />
    <g
       clip-path="url(#clipPath3182)"
       id="g3163">
      <path
         style="color:#bebebe;fill:url(#linearGradient3161);fill-opacity:1;fill-rule:nonzero;stroke:none;stroke-width:2;marker:none;visibility:visible;display:inline;overflow:visible;enable-background:accumulate"
         d="M 12,3.5 C 7.28469,3.5 3.5,7.28469 3.5,12 l 0,24 c 0,4.71531 3.78469,8.5 8.5,8.5 l 24,0 c 4.71531,0 8.5,-3.78469 8.5,-8.5 l 0,-24 C 44.5,7.2846899 40.71531,3.5 36,3.5 l -24,0 z"
         id="path4208" />
      <g
         transform="matrix(0.21333333,0,0,0.21333333,-104.83242,36.78023)"
         id="g4746"
         style="display:inline;enable-background:new"
         clip-path="url(#clipPath4812)">
        <path
           style="fill:#000000;fill-opacity:0.04255317;stroke:none"
           id="path4748"
           d="m 603.90185,-209.91352 c -23.27763,0 -45.39201,5.32598 -65.06249,14.81248 l 56.24999,119.249907 -98.24995,-89.249927 c -26.60325,27.07604 -42.93744,64.28334 -42.93744,105.187417 0,10.815412 1.19415,21.330332 3.37503,31.499973 l 148.12485,-38.24997 -2.43747,-2.06249 95.62492,-107.43743 c -25.83003,-21.0591 -58.8077,-33.74996 -94.68744,-33.74996 z m 144.56235,109.87491 -147.37486,35.249973 0.56274,0.375036 -128.06239,78.749934 c 25.84675,45.240131 74.54027,75.749964 130.31238,75.749942 4.22698,0 8.42343,-0.218604 12.56249,-0.562518 -5.39164,-61.77094 -13.31525,-150.932179 -13.49997,-152.999887 l 119.06242,95.812428 c 19.9276,-25.464531 31.87495,-57.452194 31.87495,-92.249941 0,-13.883926 -1.8975,-27.359163 -5.43754,-40.124977 z"
           clip-path="none" />
        <path
           style="fill:#000000;fill-opacity:0.04787233;stroke:none"
           id="path4750"
           d="m 603.90185,-209.91352 c -18.04257,0 -35.34409,3.33269 -51.37497,9.18748 l 42.56247,124.874907 -109.31244,-76.499937 c -19.98156,25.48289 -31.87495,57.58751 -31.87495,92.437427 0,7.178247 0.52244,14.276605 1.5,21.187483 l 149.99988,-27.93748 -2.43747,-2.06249 83.4374,-116.24991 c -23.69117,-15.66725 -52.0069,-24.93748 -82.49992,-24.93748 z m 147.18738,121.312399 -149.99989,23.812484 0.56274,0.375036 -117.93738,94.124929 c 27.36891,36.583032 71.04583,60.374969 120.18737,60.374954 1.19788,0 2.37128,0.02836 3.56251,0 -1.78681,-62.287557 -4.31601,-151.503369 -4.49999,-153.562375 l 124.49989,88.312427 c 16.60071,-24.13784348 26.43748,-53.278201 26.43748,-84.749933 0,-9.820084 -1.00577,-19.391018 -2.81251,-28.687477 z"
           clip-path="none" />
        <path
           style="fill:#000000;fill-opacity:0.05851063;stroke:none"
           id="path4752"
           d="m 603.90185,-209.91352 c -13.61453,0 -26.83103,1.84148 -39.37501,5.24999 l 37.87501,137.624891 70.68744,-125.812401 c -20.71835,-10.81357 -44.22525,-17.06248 -69.18744,-17.06248 z m -127.68743,71.24994 c -14.14368,22.88309 -22.31246,49.905854 -22.31246,78.749937 0,3.469447 0.14255,6.901429 0.37466,10.312498 l 148.87486,-16.5 -126.93736,-72.562435 z m 276.74984,61.68745 -149.62493,8.99999 129.18743,85.312435 c 13.57624,-22.5551308 21.37498,-49.038246 21.37498,-77.249938 0,-5.753744 -0.30526,-11.476223 -0.93748,-17.062487 z M 604.08933,-66.851143 497.96443,46.398771 c 26.14365,26.051737 61.94682,42.325752 101.43743,43.49997 l 4.68747,-156.749884 z"
           clip-path="none" />
        <path
           style="fill:#000000;fill-opacity:0.06382979;stroke:none"
           id="path4754"
           d="m 603.90185,-209.91352 c -8.2205,0 -16.32412,0.59908 -24.18749,1.87499 l 22.68749,140.999891 55.87496,-132.562391 c -16.8732,-6.58233 -35.18848,-10.31249 -54.37496,-10.31249 z m -134.62489,83.81243 c -9.49473,19.26774 -15.0078,40.927607 -15.375,63.749942 l 149.24989,-3.749997 -133.87489,-59.999945 z m 134.06237,58.124958 134.24993,76.124933 c 10.42609,-20.424805 16.31248,-43.582531 16.31248,-68.062444 0,-2.082038 -0.103,-4.125944 -0.18734,-6.187502 l -150.37492,-1.874987 z m 0.75,1.124996 -86.81243,129.187397 c 21.10114,14.995951 46.10401,24.792451 73.31247,27.187482 l 13.49996,-156.374886 z"
           clip-path="none" />
        <path
           style="fill:#000000;fill-opacity:0.10106381;stroke:none"
           id="path4756"
           d="m 603.90185,-209.91352 c -3.7832,0 -7.53663,0.099 -11.24997,0.37496 l 9.74997,142.499884 37.87494,-138.374894 c -11.64688,-2.90693 -23.8353,-4.49995 -36.37494,-4.49995 z m -140.4374,97.49992 c -4.4258,11.82182 -7.5046,24.298414 -8.81249,37.312472 l 148.49989,8.999983 -139.6874,-46.312455 z m 139.87488,44.437468 138.9374,65.9999383 c 6.64169,-15.8112393 10.61222,-32.9938123 11.43753,-50.9999503 L 603.33933,-67.976132 z m 0.75,1.124996 -65.43745,141.937384 c 12.95125,6.273369 26.93275,10.79762 41.625,13.124994 l 23.81245,-155.062385 z"
           clip-path="none" />
        <path
           style="fill:#000000;fill-opacity:0.0851064;stroke:none"
           id="path4758"
           d="m 604.83933,-209.91352 -2.43748,142.874881 22.6875,-141.374891 c -6.60743,-0.93484 -13.39682,-1.45759 -20.25002,-1.49999 z m -144.93739,107.99991 c -1.6918,5.804054 -3.14,11.742128 -4.12502,17.812492 l 147.37493,17.999973 z m 143.43739,33.937478 142.87487,55.124953 c 2.72123,-8.22552 4.92249,-16.715893 6.18754,-25.499982 z m 0.75,1.124996 -55.49992,146.249884 c 3.36159,1.342704 6.83708,2.64692 10.31249,3.749997 3.07462,0.966997 6.21888,1.854493 9.37493,2.625008 0.81419,0.200243 1.61829,0.375857 2.43755,0.562517 z"
           clip-path="none" />
      </g>
    </g>
    <path
       style="fill:none;fill-opacity:1;fill-rule:nonzero;stroke:#2b2b2b;stroke-width:1;stroke-miterlimit:4;stroke-dasharray:none;stroke-opacity:1;opacity:0.69999999999999996"
       id="path3796"
       d="M 43.500003,23.999309 C 43.500003,34.769208 34.768912,43.5 24.000248,43.5 13.230599,43.5 4.5000032,34.769109 4.5000032,23.999309 4.5000032,13.229904 13.230599,4.5 24.000248,4.5 c 10.768664,0 19.499755,8.729904 19.499755,19.499309 l 0,0 z" />
    <g
       id="g4144">
      <path
         style="opacity:0.15;fill:#ffffff;fill-opacity:1;fill-rule:nonzero;stroke:none"
         d="M 24,5 C 13.500552,5 5,13.500823 5,24 5,24.169463 5.0268485,24.331605 5.03125,24.5 5.299553,14.235412 13.670013,6 24,6 34.328993,6 42.700416,14.235427 42.96875,24.5 42.973152,24.331604 43,24.169465 43,24 43,13.500839 34.498438,5 24,5 z"
         id="path3872" />
      <path
         id="path3366"
         d="M 24,44 C 13.500552,44 5,35.499177 5,25 5,24.830537 5.0268485,24.668395 5.03125,24.5 5.299553,34.764588 13.670013,43 24,43 34.328993,43 42.700416,34.764573 42.96875,24.5 42.973152,24.668396 43,24.830535 43,25 43,35.499161 34.498438,44 24,44 z"
         style="opacity:0.3;fill:#000000;fill-opacity:1;fill-rule:nonzero;stroke:none" />
      <path
         style="opacity:0.1;fill:#ffffff;fill-opacity:1;fill-rule:nonzero;stroke:none"
         d="M 24,43 C 13.500552,43 5,34.499177 5,24 5,23.830537 5.0268485,23.668395 5.03125,23.5 5.299553,33.764588 13.670013,42 24,42 34.328993,42 42.700416,33.764573 42.96875,23.5 42.973152,23.668396 43,23.830535 43,24 43,34.499161 34.498438,43 24,43 z"
         id="path3374" />
    </g>
  </g>
  <g
     id="layer2">
    <path
       style="opacity:0.6;color:#bebebe;fill:#ffffff;fill-opacity:1;fill-rule:nonzero;stroke:none;stroke-width:1;marker:none;visibility:visible;display:inline;overflow:visible;enable-background:accumulate"
       d="m 24.496808,10.999998 c -5.532519,0.20313 -10.630779,3.61371 -12.640909,9.13649 -2.6478196,7.27484 1.04812,15.37485 8.32298,18.02268 5.522759,2.01011 11.494779,0.29029 15.206619,-3.81731 -2.6589,0.85829 -5.61927,0.90445 -8.44812,-0.12515 -6.755219,-2.4587 -10.218459,-9.95333 -7.759759,-16.70852 1.02961,-2.82886 2.952589,-5.02304 5.319189,-6.50819 z"
       id="path5044" />
    <path
       id="path4244"
       d="m 24.496808,9.9999981 c -5.532519,0.2031299 -10.630779,3.6137099 -12.640909,9.1364899 -2.6478196,7.27484 1.04812,15.37485 8.32298,18.02268 5.522759,2.01011 11.494779,0.29029 15.206619,-3.81731 -2.6589,0.85829 -5.61927,0.90445 -8.44812,-0.12515 -6.755219,-2.4587 -10.218459,-9.95333 -7.759759,-16.70852 1.02961,-2.82886 2.952589,-5.02304 5.319189,-6.5081899 z"
       style="color:#bebebe;fill:#444444;fill-opacity:1;fill-rule:nonzero;stroke:none;stroke-width:1;marker:none;visibility:visible;display:inline;overflow:visible;enable-background:accumulate" />
  </g>
</svg>
