<?xml version="1.0" encoding="UTF-8" standalone="no"?>
<svg xmlns="http://www.w3.org/2000/svg" xmlns:sodipodi="http://sodipodi.sourceforge.net/DTD/sodipodi-0.dtd" xmlns:inkscape="http://www.inkscape.org/namespaces/inkscape" height="16" version="1.1" width="16" enable-background="new">
 <metadata id="metadata90"/>
 <defs id="defs7386">
  <linearGradient id="linearGradient5606" osb:paint="solid">
   <stop id="stop5608"/>
  </linearGradient>
  <filter inkscape:collect="always" color-interpolation-filters="sRGB" id="filter7554">
   <feBlend inkscape:collect="always" id="feBlend7556" in2="BackgroundImage" mode="darken"/>
  </filter>
 </defs>
 <g inkscape:groupmode="layer" id="layer9" inkscape:label="status" transform="translate(-261.0002,403)">
  <g id="g5963" transform="translate(-0.03127,0)">
   <path d="M 11,5 C 7.96565,5 5.23412,6.07815 2.96875,7.75 L 11,16.5 12,15.40625 12,15 l 0,-1 1,0 c 0.0084,-0.818685 0.332795,-1.579671 0.875,-2.125 L 11,15 4.5625,8.03125 C 6.47576,6.83638 8.60638,6 11,6 c 2.36964,0 4.47408,0.82136 6.375,2 l -3.5,3.875 C 14.417205,11.329671 15.177195,11 16,11 L 18.96875,7.71875 C 16.71214,6.06546 14.01105,5 11,5 z" transform="translate(258.03147,-406)" id="path3074" inkscape:connector-curvature="0" fill="#444444" color="#000000"/>
   <path id="path7407" d="m 269.03147,-399 c -1.72947,0 -3.28925,0.5728 -4.78125,1.34375 l 4.78125,5.15625 4.71875,-5.1875 c -1.4758,-0.75648 -3.01086,-1.3125 -4.71875,-1.3125 z" inkscape:connector-curvature="0" fill="#444444" color="#000000"/>
  </g>
  <path sodipodi:nodetypes="ssccccccccccccssssccss" id="path3949" d="m 274.0002,-394 c -1.108,0 -2,0.91081 -2,2.03125 l 0,0.96875 -1,0 0,1 0,2 0,1 1,0 4,0 1,0 0,-1 0,-2 0,-1 -1,0 0,-0.96875 c 0,-1.12 -0.892,-2.03125 -2,-2.03125 z m 0,1 c 0.554,0 1,0.44236 1,1 l 0,1 -2,0 0,-1 c 0,-0.55764 0.446,-1 1,-1 z" inkscape:connector-curvature="0" fill="#444444"/>
 </g>
</svg>
