<?xml version="1.0" encoding="UTF-8" standalone="no"?>
<svg xmlns="http://www.w3.org/2000/svg" xmlns:xlink="http://www.w3.org/1999/xlink" xmlns:sodipodi="http://sodipodi.sourceforge.net/DTD/sodipodi-0.dtd" xmlns:inkscape="http://www.inkscape.org/namespaces/inkscape" width="32" height="32" version="1.1">
 <defs id="defs5016">
  <linearGradient id="linearGradient3988-5">
   <stop id="stop3990-5" stop-color="#ededed"/>
   <stop offset="1" id="stop3992-0" stop-color="#fafafa"/>
  </linearGradient>
  <linearGradient id="linearGradient3960">
   <stop id="stop3962" stop-opacity="0"/>
   <stop id="stop3970" offset="0.5"/>
   <stop offset="1" id="stop3964" stop-opacity="0"/>
  </linearGradient>
  <linearGradient inkscape:collect="always" id="linearGradient3952">
   <stop id="stop3954"/>
   <stop offset="1" id="stop3956" stop-opacity="0"/>
  </linearGradient>
  <radialGradient inkscape:collect="always" xlink:href="#linearGradient3952" id="radialGradient4001" gradientUnits="userSpaceOnUse" gradientTransform="matrix(1,0,0,0.75,0,10.875)" cx="9" cy="43.5" r="2"/>
  <linearGradient inkscape:collect="always" xlink:href="#linearGradient3988-5" id="linearGradient5128" gradientUnits="userSpaceOnUse" gradientTransform="matrix(0.12419355,0,0,0.12564103,-34.238722,-4.461562)" y1="290.2" x2="0" y2="35.51"/>
  <radialGradient inkscape:collect="always" xlink:href="#linearGradient3952" id="radialGradient5914" gradientUnits="userSpaceOnUse" gradientTransform="matrix(1,0,0,0.75,-4,-2.125)" cx="9" cy="43.5" r="2"/>
  <radialGradient inkscape:collect="always" xlink:href="#linearGradient3952" id="radialGradient5917" gradientUnits="userSpaceOnUse" gradientTransform="matrix(1,0,0,0.75,-13,-2.125)" cx="40" cy="43.5" r="2"/>
  <linearGradient inkscape:collect="always" xlink:href="#linearGradient3960" id="linearGradient5920" gradientUnits="userSpaceOnUse" y1="45" x2="0" y2="42" gradientTransform="translate(-4,-13)"/>
 </defs>
 <metadata id="metadata5019"/>
 <g id="layer1" inkscape:label="Background" inkscape:groupmode="layer">
  <g id="g5922">
   <rect y="29" x="5" height="3" width="22" id="rect3938" opacity="0.4" fill="url(#linearGradient5920)"/>
   <path inkscape:connector-curvature="0" id="rect3940" d="m 27,29 0,3 0.5,0 C 28.331,32 29,31.331 29,30.5 29,29.669 28.331,29 27.5,29 L 27,29 z" opacity="0.4" fill="url(#radialGradient5917)"/>
   <path inkscape:connector-curvature="0" id="rect3942" d="M 4.40625,29 C 3.6271875,29 3,29.627187 3,30.40625 l 0,0.1875 C 3,31.372813 3.6271875,32 4.40625,32 L 5,32 5,29 4.40625,29 z" opacity="0.4" fill="url(#radialGradient5914)"/>
  </g>
  <rect y="2" x="-27" height="28" width="22" id="rect5133" transform="scale(-1,1)" opacity="0.41" fill="none" stroke="#000000" stroke-linejoin="round" color="#bebebe" stroke-width="2" rx="0"/>
  <rect transform="scale(-1,1)" id="rect3882" width="22" height="28" x="-27" y="2" fill="url(#linearGradient5128)" color="#bebebe" stroke-width="0" rx="0"/>
  <path d="M 5 2 L 5 30 L 27 30 L 27 2 L 5 2 z M 6 3 L 26 3 L 26 29 L 6 29 L 6 3 z " id="rect5903" opacity="0.4" fill="#ffffff" color="#bebebe" stroke-width="0"/>
  <path d="M 5 2 L 5 3 L 6 3 L 26 3 L 27 3 L 27 2 L 5 2 z " id="path5908" opacity="0.4" fill="#ffffff" color="#bebebe" stroke-width="0"/>
 </g>
</svg>
