<?xml version="1.0" encoding="UTF-8" standalone="no"?>
<!-- Created with Inkscape (http://www.inkscape.org/) -->

<svg
   xmlns:dc="http://purl.org/dc/elements/1.1/"
   xmlns:cc="http://creativecommons.org/ns#"
   xmlns:rdf="http://www.w3.org/1999/02/22-rdf-syntax-ns#"
   xmlns:svg="http://www.w3.org/2000/svg"
   xmlns="http://www.w3.org/2000/svg"
   xmlns:xlink="http://www.w3.org/1999/xlink"
   xmlns:sodipodi="http://sodipodi.sourceforge.net/DTD/sodipodi-0.dtd"
   xmlns:inkscape="http://www.inkscape.org/namespaces/inkscape"
   version="1.1"
   width="22"
   height="22"
   id="svg12707"
   inkscape:version="0.48.4 r9939"
   sodipodi:docname="folder-templates.svg">
  <sodipodi:namedview
     pagecolor="#ffffff"
     bordercolor="#666666"
     borderopacity="1"
     objecttolerance="10"
     gridtolerance="10"
     guidetolerance="10"
     inkscape:pageopacity="0"
     inkscape:pageshadow="2"
     inkscape:window-width="1364"
     inkscape:window-height="700"
     id="namedview41"
     showgrid="false"
     inkscape:snap-bbox="true"
     inkscape:bbox-paths="true"
     inkscape:bbox-nodes="true"
     inkscape:snap-bbox-midpoints="true"
     inkscape:zoom="1"
     inkscape:cx="12.863757"
     inkscape:cy="4.2862043"
     inkscape:window-x="0"
     inkscape:window-y="28"
     inkscape:window-maximized="1"
     inkscape:current-layer="svg12707">
    <inkscape:grid
       type="xygrid"
       id="grid4230" />
  </sodipodi:namedview>
  <defs
     id="defs12709">
    <linearGradient
       x1="633.30469"
       y1="225.31654"
       x2="633.30469"
       y2="229.72876"
       id="linearGradient6572-9-1"
       xlink:href="#linearGradient6092"
       gradientUnits="userSpaceOnUse"
       gradientTransform="matrix(1.3879448,0,0,1.3871043,-867.75826,-304.61462)" />
    <linearGradient
       id="linearGradient6092">
      <stop
         id="stop6094"
         style="stop-color:#ffffff;stop-opacity:1"
         offset="0" />
      <stop
         id="stop6096"
         style="stop-color:#ffffff;stop-opacity:0.23529412"
         offset="0.33202404" />
      <stop
         id="stop6098"
         style="stop-color:#ffffff;stop-opacity:0.15686275"
         offset="0.97230476" />
      <stop
         id="stop6100"
         style="stop-color:#ffffff;stop-opacity:0.39215687"
         offset="1" />
    </linearGradient>
    <linearGradient
       x1="8"
       y1="15"
       x2="8"
       y2="10"
       id="linearGradient5610-3-8"
       xlink:href="#linearGradient5604-7-6"
       gradientUnits="userSpaceOnUse"
       gradientTransform="matrix(1.6666724,0,0,1.6000028,-2.33337,-7.7000402)" />
    <linearGradient
       id="linearGradient5604-7-6">
      <stop
         id="stop5606-8-2"
         style="stop-color:#ae6a37;stop-opacity:1"
         offset="0" />
      <stop
         id="stop5608-5-0"
         style="stop-color:#d28e5b;stop-opacity:1"
         offset="1" />
    </linearGradient>
    <linearGradient
       x1="9"
       y1="10"
       x2="9"
       y2="15"
       id="linearGradient5618-5-7"
       xlink:href="#linearGradient5612-8-6"
       gradientUnits="userSpaceOnUse"
       gradientTransform="matrix(1.6666724,0,0,1.6000028,-2.33337,-7.7000402)" />
    <linearGradient
       id="linearGradient5612-8-6">
      <stop
         id="stop5614-2-5"
         style="stop-color:#793b19;stop-opacity:1"
         offset="0" />
      <stop
         id="stop5616-0-2"
         style="stop-color:#a76331;stop-opacity:1"
         offset="1" />
    </linearGradient>
    <linearGradient
       x1="633.30469"
       y1="218.84358"
       x2="633.30469"
       y2="230.17346"
       id="linearGradient6572-9"
       xlink:href="#linearGradient3977-3"
       gradientUnits="userSpaceOnUse"
       gradientTransform="matrix(1.3879448,0,0,1.3871043,-867.75826,-305.61463)" />
    <linearGradient
       id="linearGradient3977-3">
      <stop
         id="stop3979-9"
         style="stop-color:#ffffff;stop-opacity:1"
         offset="0" />
      <stop
         id="stop3981-8"
         style="stop-color:#ffffff;stop-opacity:0.23529412"
         offset="0.02929282" />
      <stop
         id="stop3983-01"
         style="stop-color:#ffffff;stop-opacity:0.15686275"
         offset="0.97230476" />
      <stop
         id="stop3985-2"
         style="stop-color:#ffffff;stop-opacity:0.39215687"
         offset="1" />
    </linearGradient>
    <linearGradient
       x1="8.6742573"
       y1="15.027722"
       x2="8.6742573"
       y2="3.1024117"
       id="linearGradient5936"
       xlink:href="#linearGradient5518-7-7"
       gradientUnits="userSpaceOnUse"
       gradientTransform="matrix(1.3879448,0,0,1.3871043,-0.29276,-6.0001202)" />
    <linearGradient
       id="linearGradient5518-7-7">
      <stop
         id="stop5520-3-3"
         style="stop-color:#fff2e5;stop-opacity:1"
         offset="0" />
      <stop
         id="stop5522-8-2"
         style="stop-color:#d8c7b6;stop-opacity:1"
         offset="1" />
    </linearGradient>
    <linearGradient
       x1="14.05722"
       y1="15.943487"
       x2="14.05722"
       y2="1.0485218"
       id="linearGradient5938-1"
       xlink:href="#linearGradient5917-8"
       gradientUnits="userSpaceOnUse"
       gradientTransform="matrix(1.3879448,0,0,1.3871043,-0.29276,-6.0001202)" />
    <linearGradient
       id="linearGradient5917-8">
      <stop
         id="stop5919-8"
         style="stop-color:#62421e;stop-opacity:0.49803922"
         offset="0" />
      <stop
         id="stop5921-4"
         style="stop-color:#9f764d;stop-opacity:0.41568837"
         offset="1" />
    </linearGradient>
    <linearGradient
       id="outerBackgroundGradient-4">
      <stop
         style="stop-color:#f0f0f0;stop-opacity:1;"
         offset="0"
         id="stop3864-8-6-6" />
      <stop
         style="stop-color:#f9f9f9;stop-opacity:1;"
         offset="1"
         id="stop3866-9-1-7" />
    </linearGradient>
    <linearGradient
       inkscape:collect="always"
       xlink:href="#linearGradient6582"
       id="linearGradient6701"
       x1="920"
       y1="-180.00027"
       x2="920"
       y2="-164.00027"
       gradientUnits="userSpaceOnUse" />
    <linearGradient
       inkscape:collect="always"
       id="linearGradient6582">
      <stop
         style="stop-color:#ffffff;stop-opacity:1;"
         offset="0"
         id="stop6584" />
      <stop
         style="stop-color:#ffffff;stop-opacity:0;"
         offset="1"
         id="stop6586" />
    </linearGradient>
    <clipPath
       clipPathUnits="userSpaceOnUse"
       id="clipPath6691">
      <path
         sodipodi:nodetypes="cccccc"
         inkscape:connector-curvature="0"
         id="path6693"
         d="m 914,-179.00027 8,-1e-5 4,3 0,11 -12,0 z"
         style="color:#bebebe;fill:#ffffff;fill-opacity:0.57671958;fill-rule:nonzero;stroke:none;stroke-width:0;marker:none;visibility:visible;display:inline;overflow:visible;enable-background:accumulate" />
    </clipPath>
    <radialGradient
       cx="102"
       cy="112.3047"
       r="139.55859"
       id="XMLID_8_"
       gradientUnits="userSpaceOnUse">
      <stop
         id="stop41"
         style="stop-color:#b7b8b9;stop-opacity:1"
         offset="0" />
      <stop
         id="stop47"
         style="stop-color:#ececec;stop-opacity:1"
         offset="0.18851049" />
      <stop
         id="stop49"
         style="stop-color:#fafafa;stop-opacity:0"
         offset="0.25718147" />
      <stop
         id="stop51"
         style="stop-color:#ffffff;stop-opacity:0"
         offset="0.30111277" />
      <stop
         id="stop53"
         style="stop-color:#fafafa;stop-opacity:0"
         offset="0.53130001" />
      <stop
         id="stop55"
         style="stop-color:#ebecec;stop-opacity:0"
         offset="0.84490001" />
      <stop
         id="stop57"
         style="stop-color:#e1e2e3;stop-opacity:0"
         offset="1" />
    </radialGradient>
    <linearGradient
       id="linearGradient8589">
      <stop
         id="stop8591"
         style="stop-color:#fefefe;stop-opacity:1"
         offset="0" />
      <stop
         id="stop8593"
         style="stop-color:#cbcbcb;stop-opacity:1"
         offset="1" />
    </linearGradient>
    <linearGradient
       inkscape:collect="always"
       xlink:href="#outerBackgroundGradient-4"
       id="linearGradient4239"
       gradientUnits="userSpaceOnUse"
       gradientTransform="matrix(0.06666667,0,0,0.06666667,3.4,-1.66667)"
       x1="144"
       y1="280.00003"
       x2="144"
       y2="40.00005" />
    <radialGradient
       inkscape:collect="always"
       xlink:href="#XMLID_8_"
       id="radialGradient4241"
       gradientUnits="userSpaceOnUse"
       gradientTransform="matrix(0.12846887,0,0,-0.14049355,4.74831,18.727619)"
       cx="102"
       cy="112.3047"
       r="139.55859" />
    <linearGradient
       inkscape:collect="always"
       xlink:href="#linearGradient8589"
       id="linearGradient4243"
       gradientUnits="userSpaceOnUse"
       gradientTransform="matrix(0.34972769,0,0,0.35610773,4.64314,1.30014)"
       x1="32.892288"
       y1="8.0590115"
       x2="36.358372"
       y2="5.4565363" />
    <radialGradient
       inkscape:collect="always"
       xlink:href="#XMLID_8_"
       id="radialGradient4282"
       gradientUnits="userSpaceOnUse"
       gradientTransform="matrix(0.12846887,0,0,-0.14049355,4.74831,18.727619)"
       cx="102"
       cy="112.3047"
       r="139.55859" />
    <linearGradient
       inkscape:collect="always"
       xlink:href="#linearGradient8589"
       id="linearGradient4284"
       gradientUnits="userSpaceOnUse"
       gradientTransform="matrix(0.34972769,0,0,0.35610773,4.64314,1.30014)"
       x1="32.892288"
       y1="8.0590115"
       x2="36.358372"
       y2="5.4565363" />
    <linearGradient
       inkscape:collect="always"
       xlink:href="#outerBackgroundGradient-4"
       id="linearGradient4296"
       gradientUnits="userSpaceOnUse"
       gradientTransform="matrix(0.06666667,0,0,0.06666667,3.4,-1.66667)"
       x1="144"
       y1="280.00003"
       x2="144"
       y2="40.00005" />
    <clipPath
       clipPathUnits="userSpaceOnUse"
       id="clipPath4303">
      <path
         id="path4305"
         d="m 4,2 0,18 15,0 0,-14.09375 0,-0.03125 -0.03125,0 0,-0.03125 L 15.0625,2.03125 15.03125,2 15,2 4,2 z"
         style="color:#bebebe;fill:#967362;fill-opacity:1;fill-rule:nonzero;stroke:none;stroke-width:2;marker:none;visibility:visible;display:inline;overflow:visible;enable-background:accumulate"
         inkscape:connector-curvature="0" />
    </clipPath>
    <linearGradient
       inkscape:collect="always"
       xlink:href="#linearGradient6582"
       id="linearGradient4313"
       x1="11"
       y1="0"
       x2="11"
       y2="22"
       gradientUnits="userSpaceOnUse" />
    <linearGradient
       y2="40.00005"
       x2="144"
       y1="280.00003"
       x1="144"
       gradientTransform="matrix(0.07222223,0,0,0.07142975,-2.39196,-3.435223)"
       gradientUnits="userSpaceOnUse"
       id="linearGradient6257-8"
       xlink:href="#linearGradient21877"
       inkscape:collect="always" />
    <linearGradient
       id="linearGradient21877">
      <stop
         style="stop-color:#3fafe0;stop-opacity:1;"
         offset="0"
         id="stop21879" />
      <stop
         style="stop-color:#84d5f9;stop-opacity:1;"
         offset="1"
         id="stop21881" />
    </linearGradient>
    <linearGradient
       gradientTransform="translate(-910,484.99999)"
       inkscape:collect="always"
       xlink:href="#linearGradient7570"
       id="linearGradient7554"
       x1="927"
       y1="-464"
       x2="927"
       y2="-480"
       gradientUnits="userSpaceOnUse" />
    <linearGradient
       id="linearGradient7570">
      <stop
         id="stop7572"
         offset="0"
         style="stop-color:#347fa0;stop-opacity:1;" />
      <stop
         id="stop7574"
         offset="1"
         style="stop-color:#489fc6;stop-opacity:1;" />
    </linearGradient>
    <linearGradient
       gradientTransform="translate(-910,483.99999)"
       inkscape:collect="always"
       xlink:href="#linearGradient6582-2"
       id="linearGradient7379"
       x1="920"
       y1="-479"
       x2="920"
       y2="-465"
       gradientUnits="userSpaceOnUse" />
    <linearGradient
       id="linearGradient6582-2">
      <stop
         style="stop-color:#ffffff;stop-opacity:1;"
         offset="0"
         id="stop6584-8" />
      <stop
         style="stop-color:#ffffff;stop-opacity:0;"
         offset="1"
         id="stop6586-4" />
    </linearGradient>
    <linearGradient
       y2="40.00005"
       x2="144"
       y1="280.00003"
       x1="144"
       gradientTransform="matrix(0.07222223,0,0,0.07142975,-0.39196015,1.564777)"
       gradientUnits="userSpaceOnUse"
       id="linearGradient3026"
       xlink:href="#linearGradient21877"
       inkscape:collect="always" />
    <linearGradient
       inkscape:collect="always"
       xlink:href="#linearGradient6582-2"
       id="linearGradient3092"
       gradientUnits="userSpaceOnUse"
       gradientTransform="translate(-910,484.99999)"
       x1="920"
       y1="-479"
       x2="920"
       y2="-465" />
  </defs>
  <metadata
     id="metadata12712">
    <rdf:RDF>
      <cc:Work
         rdf:about="">
        <dc:format>image/svg+xml</dc:format>
        <dc:type
           rdf:resource="http://purl.org/dc/dcmitype/StillImage" />
        <dc:title />
      </cc:Work>
    </rdf:RDF>
  </metadata>
  <path
     style="color:#bebebe;fill:url(#linearGradient3026);fill-opacity:1;fill-rule:nonzero;stroke:none;stroke-width:0;marker:none;visibility:visible;display:inline;overflow:visible;enable-background:accumulate"
     d="m 3.5080398,1.493427 15.9909592,0.006 0.009,3.2076598 0,15.7859102 -15.9999992,0 z"
     id="rect3373-6-0"
     inkscape:connector-curvature="0"
     sodipodi:nodetypes="cccccc" />
  <path
     inkscape:connector-curvature="0"
     style="font-size:medium;font-style:normal;font-variant:normal;font-weight:normal;font-stretch:normal;text-indent:0;text-align:start;text-decoration:none;line-height:normal;letter-spacing:normal;word-spacing:normal;text-transform:none;direction:ltr;block-progression:tb;writing-mode:lr-tb;text-anchor:start;baseline-shift:baseline;opacity:0.91000001;color:#bebebe;fill:url(#linearGradient7554);fill-opacity:1;stroke:none;stroke-width:2;marker:none;visibility:visible;display:inline;overflow:visible;enable-background:accumulate;font-family:Sans;-inkscape-font-specification:Sans"
     d="m 2.9999998,0.999997 0,1 0,18 0,1 1,0 14.9999992,0 1,0 0,-1 0,-14.0000002 0,-3.9999998 0,-1 -1,0 -4,0 -10.9999992,0 z m 1,1 0.5,0 13.9999992,0 0.5,0 0,0.5 0,17 0,0.5 -0.5,0 -13.9999992,0 -0.5,0 0,-0.5 0,-17 z"
     id="path6685-1"
     sodipodi:nodetypes="cccccccccccccccccccccccccccc" />
  <path
     style="font-size:medium;font-style:normal;font-variant:normal;font-weight:normal;font-stretch:normal;text-indent:0;text-align:start;text-decoration:none;line-height:normal;letter-spacing:normal;word-spacing:normal;text-transform:none;direction:ltr;block-progression:tb;writing-mode:lr-tb;text-anchor:start;baseline-shift:baseline;opacity:0.6;color:#000000;fill:url(#linearGradient3092);fill-opacity:1;stroke:none;stroke-width:1;marker:none;visibility:visible;display:inline;overflow:visible;enable-background:new;font-family:Sans;-inkscape-font-specification:Sans"
     d="m 4,2 0,0.5 0,17 0,0.5 0.5,0 14,0 0.5,0 0,-0.5 0,-17 0,-0.5 -0.5,0 -14,0 z m 1,1 13,0 0,16 -13,0 z"
     id="rect7371"
     inkscape:connector-curvature="0"
     sodipodi:nodetypes="cccccccccccccccccc" />
  <path
     style="fill:#ffffff;fill-opacity:1;stroke:none;display:inline;enable-background:new"
     d="M 6 3 L 6 4 L 7 4 L 7 3 L 6 3 z M 6 4 L 5 4 L 5 5 L 6 5 L 6 4 z M 8 3 L 8 4 L 9 4 L 9 3 L 8 3 z M 10 3 L 10 4 L 11 4 L 11 3 L 10 3 z M 12 3 L 12 4 L 13 4 L 13 3 L 12 3 z M 14 3 L 14 4 L 15 4 L 15 3 L 14 3 z M 16 3 L 16 4 L 17 4 L 17 3 L 16 3 z M 17 4 L 17 5 L 18 5 L 18 4 L 17 4 z M 5 6 L 5 7 L 6 7 L 6 6 L 5 6 z M 17 6 L 17 7 L 18 7 L 18 6 L 17 6 z M 5 8 L 5 9 L 6 9 L 6 8 L 5 8 z M 17 8 L 17 9 L 18 9 L 18 8 L 17 8 z M 5 10 L 5 11 L 6 11 L 6 10 L 5 10 z M 17 10 L 17 11 L 18 11 L 18 10 L 17 10 z M 5 12 L 5 13 L 6 13 L 6 12 L 5 12 z M 17 12 L 17 13 L 18 13 L 18 12 L 17 12 z M 5 14 L 5 15 L 6 15 L 6 14 L 5 14 z M 17 14 L 17 15 L 18 15 L 18 14 L 17 14 z M 5 16 L 5 17 L 6 17 L 6 16 L 5 16 z M 17 16 L 17 17 L 18 17 L 18 16 L 17 16 z M 5 18 L 5 19 L 6 19 L 6 18 L 5 18 z M 7 18 L 7 19 L 8 19 L 8 18 L 7 18 z M 9 18 L 9 19 L 10 19 L 10 18 L 9 18 z M 11 18 L 11 19 L 12 19 L 12 18 L 11 18 z M 13 18 L 13 19 L 14 19 L 14 18 L 13 18 z M 15 18 L 15 19 L 16 19 L 16 18 L 15 18 z M 17 18 L 17 19 L 18 19 L 18 18 L 17 18 z "
     id="rect7288" />
  <path
     id="path3902"
     d="M 6,4 6,5 7,5 7,4 6,4 z M 6,5 5,5 5,6 6,6 6,5 z M 8,4 8,5 9,5 9,4 8,4 z m 2,0 0,1 1,0 0,-1 -1,0 z m 2,0 0,1 1,0 0,-1 -1,0 z m 2,0 0,1 1,0 0,-1 -1,0 z m 2,0 0,1 1,0 0,-1 -1,0 z m 1,1 0,1 1,0 0,-1 -1,0 z M 5,7 5,8 6,8 6,7 5,7 z m 12,0 0,1 1,0 0,-1 -1,0 z M 5,9 5,10 6,10 6,9 5,9 z m 12,0 0,1 1,0 0,-1 -1,0 z m -12,2 0,1 1,0 0,-1 -1,0 z m 12,0 0,1 1,0 0,-1 -1,0 z m -12,2 0,1 1,0 0,-1 -1,0 z m 12,0 0,1 1,0 0,-1 -1,0 z m -12,2 0,1 1,0 0,-1 -1,0 z m 12,0 0,1 1,0 0,-1 -1,0 z m -12,2 0,1 1,0 0,-1 -1,0 z m 12,0 0,1 1,0 0,-1 -1,0 z m -12,2 0,1 1,0 0,-1 -1,0 z m 2,0 0,1 1,0 0,-1 -1,0 z m 2,0 0,1 1,0 0,-1 -1,0 z m 2,0 0,1 1,0 0,-1 -1,0 z m 2,0 0,1 1,0 0,-1 -1,0 z m 2,0 0,1 1,0 0,-1 -1,0 z m 2,0 0,1 1,0 0,-1 -1,0 z"
     style="opacity:0.1;fill:#000000;fill-opacity:1;stroke:none;display:inline;enable-background:new"
     inkscape:connector-curvature="0" />
</svg>
