<?xml version="1.0" encoding="UTF-8" standalone="no"?>
<svg xmlns="http://www.w3.org/2000/svg" xmlns:xlink="http://www.w3.org/1999/xlink" xmlns:sodipodi="http://sodipodi.sourceforge.net/DTD/sodipodi-0.dtd" xmlns:inkscape="http://www.inkscape.org/namespaces/inkscape" width="32" height="32" version="1.1">
 <defs id="defs5016">
  <linearGradient id="linearGradient4033">
   <stop id="stop4035" stop-color="#ffffff"/>
   <stop offset="1" id="stop4037" stop-color="#0051ff"/>
  </linearGradient>
  <linearGradient id="linearGradient3107">
   <stop id="stop3109" stop-color="#232323"/>
   <stop offset="0.783" id="stop3111" stop-color="#535353"/>
   <stop offset="0.783" id="stop3113" stop-color="#676767"/>
   <stop id="stop3115" offset="1" stop-color="#676767"/>
  </linearGradient>
  <linearGradient id="linearGradient3988-5">
   <stop id="stop3990-5" stop-color="#ededed"/>
   <stop offset="1" id="stop3992-0" stop-color="#fafafa"/>
  </linearGradient>
  <linearGradient id="linearGradient3960">
   <stop id="stop3962" stop-opacity="0"/>
   <stop id="stop3970" offset="0.5"/>
   <stop offset="1" id="stop3964" stop-opacity="0"/>
  </linearGradient>
  <linearGradient inkscape:collect="always" id="linearGradient3952">
   <stop id="stop3954"/>
   <stop offset="1" id="stop3956" stop-opacity="0"/>
  </linearGradient>
  <radialGradient inkscape:collect="always" xlink:href="#linearGradient3952" id="radialGradient4001" gradientUnits="userSpaceOnUse" gradientTransform="matrix(1,0,0,0.75,0,10.875)" cx="9" cy="43.5" r="2"/>
  <linearGradient inkscape:collect="always" xlink:href="#linearGradient3988-5" id="linearGradient5128" gradientUnits="userSpaceOnUse" gradientTransform="matrix(0.12419355,0,0,0.12564103,-2.238722,-4.461562)" y1="290.2" x2="0" y2="35.51"/>
  <radialGradient inkscape:collect="always" xlink:href="#linearGradient3952" id="radialGradient5914" gradientUnits="userSpaceOnUse" gradientTransform="matrix(1,0,0,0.75,-4,-2.125)" cx="9" cy="43.5" r="2"/>
  <radialGradient inkscape:collect="always" xlink:href="#linearGradient3952" id="radialGradient5917" gradientUnits="userSpaceOnUse" gradientTransform="matrix(1,0,0,0.75,-13,-2.125)" cx="40" cy="43.5" r="2"/>
  <linearGradient inkscape:collect="always" xlink:href="#linearGradient3960" id="linearGradient5920" gradientUnits="userSpaceOnUse" y1="45" x2="0" y2="42" gradientTransform="translate(-4,-13)"/>
  <linearGradient id="linearGradient3916">
   <stop id="stop3918" stop-color="#232323"/>
   <stop id="stop3926" offset="0.8" stop-color="#535353"/>
   <stop id="stop3924" offset="0.8" stop-color="#676767"/>
   <stop offset="1" id="stop3920" stop-color="#676767"/>
  </linearGradient>
  <linearGradient inkscape:collect="always" xlink:href="#linearGradient3107" id="linearGradient3101" gradientUnits="userSpaceOnUse" gradientTransform="translate(75,33.000996)" y1="19" x2="0" y2="9"/>
  <linearGradient inkscape:collect="always" xlink:href="#linearGradient3988-5" id="linearGradient3105" gradientUnits="userSpaceOnUse" gradientTransform="matrix(0.48571543,0,0,-0.26367377,73.342869,58.667687)" y1="0.985" x2="0" y2="47.01"/>
  <radialGradient inkscape:collect="always" xlink:href="#linearGradient3952" id="radialGradient3927" gradientUnits="userSpaceOnUse" gradientTransform="matrix(1,0,0,0.75,-7,-5.125)" cx="9" cy="43.5" r="2"/>
  <radialGradient inkscape:collect="always" xlink:href="#linearGradient3952" id="radialGradient3930" gradientUnits="userSpaceOnUse" gradientTransform="matrix(1,0,0,0.75,-10,-5.125)" cx="40" cy="43.5" r="2"/>
  <linearGradient inkscape:collect="always" xlink:href="#linearGradient3960" id="linearGradient3933" gradientUnits="userSpaceOnUse" gradientTransform="matrix(1.2727273,0,0,1,-9.4545455,-16)" y1="45" x2="0" y2="42"/>
  <radialGradient inkscape:collect="always" xlink:href="#linearGradient4033" id="radialGradient4043" cx="4.672" cy="19" r="1" gradientUnits="userSpaceOnUse" gradientTransform="matrix(-1.1949773,3.9999996e-7,-4.6787414e-7,-1.3977476,10.255284,45.557202)"/>
  <radialGradient inkscape:collect="always" xlink:href="#linearGradient3952" id="radialGradient3109" gradientUnits="userSpaceOnUse" gradientTransform="matrix(1,0,0,0.75,-3,-2.125)" cx="9" cy="43.5" r="2"/>
  <linearGradient inkscape:collect="always" xlink:href="#linearGradient3988-5" id="linearGradient3120" gradientUnits="userSpaceOnUse" gradientTransform="matrix(0.74092183,0,0,-0.40221422,-2.2990094,38.11836)" y1="0.985" x2="0" y2="47.01"/>
  <linearGradient inkscape:collect="always" xlink:href="#linearGradient3107" id="linearGradient3129" gradientUnits="userSpaceOnUse" gradientTransform="matrix(1.5254237,0,0,1.5254237,-0.7711825,-1.0342186)" y1="19" x2="0" y2="9"/>
  <radialGradient inkscape:collect="always" xlink:href="#linearGradient4033" id="radialGradient3161" gradientUnits="userSpaceOnUse" gradientTransform="matrix(-5.9999994e-7,-1.7924659,2.0966214,-7.0181121e-7,-33.835803,27.882926)" cx="4.672" cy="19" r="1"/>
  <linearGradient inkscape:collect="always" xlink:href="#linearGradient3988-5" id="linearGradient3163" gradientUnits="userSpaceOnUse" gradientTransform="matrix(0.12419355,0,0,0.12564103,-1.238722,-4.461562)" y1="290.2" x2="0" y2="35.51"/>
 </defs>
 <metadata id="metadata5019"/>
 <g id="layer1" inkscape:label="Background" inkscape:groupmode="layer">
  <path d="m 2,26 28,0 0,3 -28,0 z" id="rect3938-8" inkscape:connector-curvature="0" sodipodi:nodetypes="ccccc" opacity="0.4" fill="url(#linearGradient3933)"/>
  <path d="m 30,26 0,3 0.5,0 C 31.331,29 32,28.331 32,27.5 32,26.669 31.331,26 30.5,26 z" id="rect3940-0" inkscape:connector-curvature="0" sodipodi:nodetypes="ccsssc" opacity="0.4" fill="url(#radialGradient3930)"/>
  <path d="M 1.40625,26 C 0.6271875,26 0,26.627187 0,27.40625 l 0,0.1875 C 0,28.372813 0.6271875,29 1.40625,29 L 2,29 2,26 z" id="rect3942-3" inkscape:connector-curvature="0" sodipodi:nodetypes="ssssccs" opacity="0.4" fill="url(#radialGradient3927)"/>
  <path d="m 6,29 20,0 0,3 -20,0 z" id="rect3938" inkscape:connector-curvature="0" sodipodi:nodetypes="ccccc" opacity="0.2" fill="url(#linearGradient5920)"/>
  <path d="m 25,29 0,3 0.5,0 C 26.331,32 29,31.331 29,30.5 29,29.669 26.331,29 25.5,29 z" id="rect3940" inkscape:connector-curvature="0" sodipodi:nodetypes="ccsssc" opacity="0.2" fill="url(#radialGradient5917)"/>
  <path d="M 5.40625,29 C 4.6271875,29 4,29.627187 4,30.40625 l 0,0.1875 C 4,31.372813 4.6271875,32 5.40625,32 L 6,32 6,29 z" id="rect3942" inkscape:connector-curvature="0" sodipodi:nodetypes="ssssccs" opacity="0.2" fill="url(#radialGradient3109)"/>
  <path d="M 7,4 7,5 25,5 25,4 z" id="path5908" inkscape:connector-curvature="0" sodipodi:nodetypes="ccccc" opacity="0.4" fill="#ffffff" color="#bebebe" stroke-width="0"/>
  <path d="m 4.9968259,11.931883 -0.190678,0.238347 -3.0508474,3.050848 -0.2383475,0.190678 0,0.333686 0,10.973203 0,0.762711 0.7627119,0 27.4576261,0 0.762712,0 0,-0.762711 0,-10.973203 0,-0.333686 -0.238347,-0.190678 -3.050848,-3.050848 -0.190677,-0.238347 -0.333687,0 -21.3559317,0 z" id="rect3145" inkscape:connector-curvature="0" sodipodi:nodetypes="ccccccccccccccccccc" fill="url(#linearGradient3129)"/>
  <path d="m 4.75,11.4375 -0.15625,0.1875 -0.15625,0.1875 -0.03125,0.03125 -2.96875,3 -0.03125,0.03125 -0.1875,0.15625 -0.1875,0.125 0,0.25 0,0.34375 0,10.96875 0,0.75 0,0.5 0.5,0 0.75,0 27.46875,0 0.75,0 0.5,0 0,-0.5 0,-0.75 0,-10.96875 0,-0.34375 0,-0.25 -0.1875,-0.125 -0.1875,-0.15625 -0.0625,-0.03125 -2.96875,-3 L 27.5625,11.8125 27.40625,11.625 27.25,11.4375 l -0.21875,0 -0.34375,0 -21.34375,0 -0.34375,0 z m 0.46875,1 0.125,0 21.34375,0 0.09375,0 0.03125,0.03125 0.03125,0.03125 0,0.03125 3.0625,3.03125 0.03125,0.03125 0,0.03125 0.0625,0.0625 0,0.0625 0,10.96875 0,0.25 -0.25,0 -27.46875,0 -0.25,0 0,-0.25 0,-10.96875 0,-0.09375 0.03125,-0.03125 0.03125,-0.03125 0,-0.03125 3.0625,-3.03125 L 5.1875,12.5 l 0,-0.03125 z" id="path3935" inkscape:connector-curvature="0" sodipodi:nodetypes="cccccccccccccccccccccccccccccccccccccccccccccccccccccccccccccc" opacity="0.71" color="#000000"/>
  <path d="M 2.0000024,16 30,16 l 0,-0.999999 -27.9999976,0 z" id="rect3937" inkscape:connector-curvature="0" sodipodi:nodetypes="ccccc" opacity="0.1" fill="#ffffff"/>
  <path d="M 7.0000033,14 25,14 25,15 7.0000033,15 z" id="rect3948" inkscape:connector-curvature="0" sodipodi:nodetypes="ccccc" opacity="0.4"/>
  <path d="m 6.0000029,24.000002 19.9999961,0 0,-1.000003 -19.9999961,0 z" id="rect3950" inkscape:connector-curvature="0" sodipodi:nodetypes="ccccc" fill="#505050"/>
  <path d="M 7.0000033,22.000002 25,22.000002 25,23 7.0000033,23 z" id="rect3952" inkscape:connector-curvature="0" sodipodi:nodetypes="ccccc" opacity="0.2"/>
  <path d="m 6.0000029,24.000002 19.9999961,0 0,0.999997 -19.9999961,0 z" id="rect3954" inkscape:connector-curvature="0" sodipodi:nodetypes="ccccc" opacity="0.4"/>
  <path d="m 25.686444,30 -0.76259,-7 c 0,0 -9.186521,0 -17.8306299,0 l -0.7627118,7 z" inkscape:connector-curvature="0" id="path4030" sodipodi:nodetypes="ccccc" fill="url(#linearGradient3120)"/>
  <path inkscape:connector-curvature="0" id="path3897" d="m 6.09375,23 -0.75,6.90625 -0.125,1.09375 1.125,0 19.34375,0 1.09375,0 L 26.6875,29.90625 25.9375,23 l -1,0 0.75,7 -19.34375,0 0.75,-7 z" sodipodi:nodetypes="ccccccccccccc" opacity="0.41" color="#000000" stroke-width="1.311"/>
  <path d="m 2.0000024,17.000002 27.9999976,0 0,-0.999999 -27.9999976,0 z" id="rect4753" inkscape:connector-curvature="0" sodipodi:nodetypes="ccccc" opacity="0.4"/>
  <path d="M 7,4 25,4 25,14 7,14 z" id="rect3882" inkscape:connector-curvature="0" sodipodi:nodetypes="ccccc" fill="url(#linearGradient3163)" color="#bebebe" stroke-width="0"/>
  <path d="M 6,3 6,4 6,14 7,14 7,4 25,4 25,14 26,14 26,4 26,3 25,3 7,3 z" id="rect3899" inkscape:connector-curvature="0" sodipodi:nodetypes="ccccccccccccc" opacity="0.41" color="#bebebe" stroke-width="2"/>
  <path d="M 7,4 7,5 25,5 25,4 z" id="rect3921" inkscape:connector-curvature="0" sodipodi:nodetypes="ccccc" opacity="0.4" fill="#ffffff" color="#bebebe" stroke-width="0"/>
  <path d="m 6,21.5 c -0.8284275,0 -1.5,-0.671573 -1.5,-1.5 0,-0.828427 0.6715725,-1.5 1.5,-1.5 0.8284275,0 1.5,0.671573 1.5,1.5 0,0.828427 -0.6715725,1.5 -1.5,1.5 z" id="path4031" inkscape:connector-curvature="0" sodipodi:nodetypes="sssss" fill="url(#radialGradient3161)"/>
  <path d="m 8.015625,20 c 0,-1.098647 -0.9169785,-2.015625 -2.015625,-2.015625 -1.0986465,0 -2.015625,0.916978 -2.015625,2.015625 0,1.098647 0.9169785,2.015625 2.015625,2.015625 1.0986465,0 2.015625,-0.916978 2.015625,-2.015625 z m -1.03125,0 c 0,0.558207 -0.426168,0.984375 -0.984375,0.984375 -0.558207,0 -0.984375,-0.426168 -0.984375,-0.984375 0,-0.558207 0.426168,-0.984375 0.984375,-0.984375 0.558207,0 0.984375,0.426168 0.984375,0.984375 z" id="path4041" inkscape:connector-curvature="0" sodipodi:nodetypes="ssssssssss" opacity="0.61" color="#000000" stroke-width="0.667"/>
  <path id="path26173" d="M 9.78906,24.859375 9.78906,24 8.5,24 l 0,0.859375 1.28906,0" inkscape:connector-curvature="0" sodipodi:nodetypes="ccccc" opacity="0.2"/>
  <path id="path26175" d="M 11.03906,24.859375 11.03906,24 9.75,24 l 0,0.859375 1.28906,0" inkscape:connector-curvature="0" sodipodi:nodetypes="ccccc" opacity="0.2"/>
  <path id="path26177" d="M 12.28906,24.859375 12.28906,24 11,24 l 0,0.859375 1.28906,0" inkscape:connector-curvature="0" sodipodi:nodetypes="ccccc" opacity="0.2"/>
  <path id="path26179" d="m 13.53906,24.859375 0,-0.859375 -1.28906,0 0,0.859375 1.28906,0" inkscape:connector-curvature="0" sodipodi:nodetypes="ccccc" opacity="0.2"/>
  <path id="path26181" d="M 14.78906,24.859375 14.78906,24 13.5,24 l 0,0.859375 1.28906,0" inkscape:connector-curvature="0" sodipodi:nodetypes="ccccc" opacity="0.2"/>
  <path id="path26183" d="m 18.54687,24.859375 0,-0.859375 -1.28906,0 0,0.859375 1.28906,0" inkscape:connector-curvature="0" sodipodi:nodetypes="ccccc" opacity="0.2"/>
  <path id="path26185" d="m 19.79687,24.859375 0,-0.859375 -1.28906,0 0,0.859375 1.28906,0" inkscape:connector-curvature="0" sodipodi:nodetypes="ccccc" opacity="0.2"/>
  <path id="path26187" d="m 21.04687,24.859375 0,-0.859375 -1.28906,0 0,0.859375 1.28906,0" inkscape:connector-curvature="0" sodipodi:nodetypes="ccccc" opacity="0.2"/>
  <path id="path26189" d="m 22.29687,24.859375 0,-0.859375 -1.28906,0 0,0.859375 1.28906,0" inkscape:connector-curvature="0" sodipodi:nodetypes="ccccc" opacity="0.2"/>
  <path id="path26191" d="m 23.54687,24.859375 0,-0.859375 -1.28906,0 0,0.859375 1.28906,0" inkscape:connector-curvature="0" sodipodi:nodetypes="ccccc" opacity="0.2"/>
  <path id="path26203" d="M 9.53906,26.859375 9.53906,26 8.25,26 l 0,0.859375 1.28906,0" inkscape:connector-curvature="0" sodipodi:nodetypes="ccccc" opacity="0.2"/>
  <path id="path26205" d="M 10.78906,26.859375 10.78906,26 9.5,26 l 0,0.859375 1.28906,0" inkscape:connector-curvature="0" sodipodi:nodetypes="ccccc" opacity="0.2"/>
  <path id="path26207" d="m 12.03906,26.859375 0,-0.859375 -1.28906,0 0,0.859375 1.28906,0" inkscape:connector-curvature="0" sodipodi:nodetypes="ccccc" opacity="0.2"/>
  <path id="path26209" d="m 15.79687,26.859375 0,-0.859375 -1.28906,0 0,0.859375 1.28906,0" inkscape:connector-curvature="0" sodipodi:nodetypes="ccccc" opacity="0.2"/>
  <path id="path26211" d="m 17.04687,26.859375 0,-0.859375 -1.28906,0 0,0.859375 1.28906,0" inkscape:connector-curvature="0" sodipodi:nodetypes="ccccc" opacity="0.2"/>
  <path id="path26213" d="m 18.29687,26.859375 0,-0.859375 -1.28906,0 0,0.859375 1.28906,0" inkscape:connector-curvature="0" sodipodi:nodetypes="ccccc" opacity="0.2"/>
  <path id="path26215" d="m 19.54687,26.859375 0,-0.859375 -1.28906,0 0,0.859375 1.28906,0" inkscape:connector-curvature="0" sodipodi:nodetypes="ccccc" opacity="0.2"/>
  <path id="path26217" d="m 20.79687,26.859375 0,-0.859375 -1.28906,0 0,0.859375 1.28906,0" inkscape:connector-curvature="0" sodipodi:nodetypes="ccccc" opacity="0.2"/>
  <path id="path26219" d="M 9.28906,28.859375 9.28906,28 8,28 l 0,0.859375 1.28906,0" inkscape:connector-curvature="0" sodipodi:nodetypes="ccccc" opacity="0.2"/>
  <path id="path26221" d="M 10.53906,28.859375 10.53906,28 9.25,28 l 0,0.859375 1.28906,0" inkscape:connector-curvature="0" sodipodi:nodetypes="ccccc" opacity="0.2"/>
  <path id="path26223" d="M 11.78906,28.859375 11.78906,28 10.5,28 l 0,0.859375 1.28906,0" inkscape:connector-curvature="0" sodipodi:nodetypes="ccccc" opacity="0.2"/>
  <path id="path26225" d="m 13.03906,28.859375 0,-0.859375 -1.28906,0 0,0.859375 1.28906,0" inkscape:connector-curvature="0" sodipodi:nodetypes="ccccc" opacity="0.2"/>
  <path id="path26227" d="M 14.28906,28.859375 14.28906,28 13,28 l 0,0.859375 1.28906,0" inkscape:connector-curvature="0" sodipodi:nodetypes="ccccc" opacity="0.2"/>
  <path id="path26229" d="m 15.53906,28.859375 0,-0.859375 -1.28906,0 0,0.859375 1.28906,0" inkscape:connector-curvature="0" sodipodi:nodetypes="ccccc" opacity="0.2"/>
  <path id="path26231" d="M 16.78906,28.859375 16.78906,28 15.5,28 l 0,0.859375 1.28906,0" inkscape:connector-curvature="0" sodipodi:nodetypes="ccccc" opacity="0.2"/>
  <path id="path26233" d="m 18.03906,28.859375 0,-0.859375 -1.28906,0 0,0.859375 1.28906,0" inkscape:connector-curvature="0" sodipodi:nodetypes="ccccc" opacity="0.2"/>
  <path id="path26235" d="M 19.28906,28.859375 19.28906,28 18,28 l 0,0.859375 1.28906,0" inkscape:connector-curvature="0" sodipodi:nodetypes="ccccc" opacity="0.2"/>
  <path id="path26237" d="m 20.53906,28.859375 0,-0.859375 -1.28906,0 0,0.859375 1.28906,0" inkscape:connector-curvature="0" sodipodi:nodetypes="ccccc" opacity="0.2"/>
  <path id="path26239" d="M 21.78906,28.859375 21.78906,28 20.5,28 l 0,0.859375 1.28906,0" inkscape:connector-curvature="0" sodipodi:nodetypes="ccccc" opacity="0.2"/>
 </g>
</svg>
