<?xml version='1.0' encoding='UTF-8' standalone='no'?>
<svg height="32" xmlns:inkscape="http://www.inkscape.org/namespaces/inkscape" xmlns:sodipodi="http://sodipodi.sourceforge.net/DTD/sodipodi-0.dtd" version="1.1" width="32" xmlns="http://www.w3.org/2000/svg">
 <metadata id="metadata90"/>
 <g inkscape:groupmode="layer" id="layer12" inkscape:label="actions" transform="translate(-305.01797,-169)">
  <path inkscape:connector-curvature="0" d="m 325.59646,172.99196 c 0.51254,0.0678 0.99452,0.3431 1.3132,0.75 l 8.00418,9.33364 c 0.56284,0.70274 0.56284,1.79726 0,2.5 l -8.00418,8.63315 c -0.411,0.5184 -1.0919,0.81006 -1.75092,0.75 -0.02,0.002 -0.0424,-0.001 -0.0624,0 -0.0402,0.002 -0.0842,0 -0.125,0 l -16.57154,0 c -1.32608,0 -2.37624,-1.09788 -2.37624,-2.4375 l 0,-17.09179 c -2e-4,-1.33952 1.05006,-2.4375 2.37614,-2.4375 l 16.57154,0 c 0.0832,-0.006 0.1668,-0.006 0.25012,0 0.1246,-0.012 0.2505,-0.012 0.3752,0 z m -1.572,5.00804 -2.00108,0 c -0.55254,0 -1.07614,0.20058 -1.43822,0.5625 l -2.56384,2.5625 -2.56386,-2.5625 c -0.3621,-0.36193 -0.8863,-0.53624 -1.43826,-0.5625 l -2.00104,0 0,2 c 0,0.55228 0.24414,1.03682 0.56278,1.4375 l 2.56386,2.5625 -2.56386,2.5625 c -0.3621,0.36191 -0.38806,0.91356 -0.56278,1.4375 l 0,2 2.00104,0 c 0.55258,0 1.13878,-0.1474 1.43826,-0.5625 l 2.56386,-2.5625 2.56384,2.5625 c 0.3621,0.36192 0.88568,0.5625 1.43822,0.5625 l 2.00108,0 0,-2 c 0,-0.55228 -0.1714,-1.10758 -0.56282,-1.4375 L 320.8978,184 l 2.56384,-2.5625 c 0.36212,-0.36193 0.71872,-0.90766 0.56282,-1.4375 z" id="path3169" sodipodi:nodetypes="cccccccssscscccccscsscsscssccscsscsscsscc" fill="#bebebe" color="#bebebe"/>
 </g>
</svg>
