<?xml version='1.0' encoding='UTF-8' standalone='no'?>
<svg height="32" xmlns:inkscape="http://www.inkscape.org/namespaces/inkscape" xmlns:sodipodi="http://sodipodi.sourceforge.net/DTD/sodipodi-0.dtd" version="1.1" width="32" xmlns="http://www.w3.org/2000/svg">
 <metadata id="metadata90"/>
 <g inkscape:groupmode="layer" id="layer12" inkscape:label="actions" transform="translate(-337.01798,-169)">
  <path inkscape:connector-curvature="0" d="m 355.84394,172.5 c -5.34412,0 -9.75,4.35311 -9.75,9.6875 0,2.01938 0.66664,3.92867 1.75,5.5 l 0.25,0.3125 -0.3125,0.3125 -6.8125,6.8125 c -0.48102,0.47057 -0.53312,1.45642 -0.0625,1.9375 0.47062,0.48108 1.45646,0.53317 1.9375,0.0625 l 6.8125,-6.875 0.3125,-0.3125 0.375,0.25 c 1.56352,1.0765 3.46736,1.75 5.5,1.75 5.34414,0 9.6875,-4.41219 9.6875,-9.75 0,-5.33784 -4.34336,-9.6875 -9.6875,-9.6875 z m 0,2.75 c 3.87716,0 7,3.0645 7,6.9375 0,3.87298 -3.12284,7 -7,7 -3.87716,0 -7,-3.12702 -7,-7 0,-3.873 3.12284,-6.9375 7,-6.9375 z" id="path27918-2" fill="#bebebe" color="#000000"/>
 </g>
</svg>
