<?xml version="1.0" encoding="UTF-8" standalone="no"?>
<!-- Created with Inkscape (http://www.inkscape.org/) -->

<svg
   xmlns:dc="http://purl.org/dc/elements/1.1/"
   xmlns:cc="http://creativecommons.org/ns#"
   xmlns:rdf="http://www.w3.org/1999/02/22-rdf-syntax-ns#"
   xmlns:svg="http://www.w3.org/2000/svg"
   xmlns="http://www.w3.org/2000/svg"
   xmlns:xlink="http://www.w3.org/1999/xlink"
   xmlns:sodipodi="http://sodipodi.sourceforge.net/DTD/sodipodi-0.dtd"
   xmlns:inkscape="http://www.inkscape.org/namespaces/inkscape"
   version="1.1"
   width="32"
   height="32"
   id="svg4032"
   inkscape:version="0.48.4 r9939"
   sodipodi:docname="system-lock-screen.svg">
  <sodipodi:namedview
     pagecolor="#ffffff"
     bordercolor="#666666"
     borderopacity="1"
     objecttolerance="10"
     gridtolerance="10"
     guidetolerance="10"
     inkscape:pageopacity="0"
     inkscape:pageshadow="2"
     inkscape:window-width="1364"
     inkscape:window-height="700"
     id="namedview40"
     showgrid="false"
     showborder="false"
     inkscape:snap-bbox="true"
     inkscape:bbox-nodes="true"
     inkscape:zoom="1"
     inkscape:cx="21.352705"
     inkscape:cy="24.6812"
     inkscape:window-x="0"
     inkscape:window-y="28"
     inkscape:window-maximized="1"
     inkscape:current-layer="layer2"
     inkscape:snap-global="true">
    <inkscape:grid
       type="xygrid"
       id="grid3813"
       empspacing="4"
       visible="true"
       enabled="true"
       snapvisiblegridlinesonly="true" />
  </sodipodi:namedview>
  <metadata
     id="metadata41">
    <rdf:RDF>
      <cc:Work
         rdf:about="">
        <dc:format>image/svg+xml</dc:format>
        <dc:type
           rdf:resource="http://purl.org/dc/dcmitype/StillImage" />
        <dc:title></dc:title>
      </cc:Work>
    </rdf:RDF>
  </metadata>
  <defs
     id="defs4034">
    <linearGradient
       inkscape:collect="always"
       id="linearGradient3880">
      <stop
         style="stop-color:#ffffff;stop-opacity:1;"
         offset="0"
         id="stop3883" />
      <stop
         style="stop-color:#ffffff;stop-opacity:0;"
         offset="1"
         id="stop3885" />
    </linearGradient>
    <linearGradient
       id="linearGradient3835">
      <stop
         offset="0"
         style="stop-color:#f2f2f2;stop-opacity:1"
         id="stop3841" />
      <stop
         offset="1"
         style="stop-color:#d4d4d4;stop-opacity:1"
         id="stop3844" />
    </linearGradient>
    <linearGradient
       inkscape:collect="always"
       id="linearGradient3878">
      <stop
         style="stop-color:#ffffff;stop-opacity:1;"
         offset="0"
         id="stop3880" />
      <stop
         style="stop-color:#ffffff;stop-opacity:0;"
         offset="1"
         id="stop3882" />
    </linearGradient>
    <linearGradient
       id="linearGradient3841">
      <stop
         id="stop3843"
         offset="0"
         style="stop-color:#080808;stop-opacity:1" />
      <stop
         id="stop3845"
         offset="1"
         style="stop-color:#262626;stop-opacity:1" />
    </linearGradient>
    <linearGradient
       id="linearGradient3805">
      <stop
         style="stop-color:#1a1a1a;stop-opacity:1;"
         offset="0"
         id="stop3807" />
      <stop
         style="stop-color:#3f3f3f;stop-opacity:1;"
         offset="1"
         id="stop3809" />
    </linearGradient>
    <linearGradient
       x1="12.9375"
       y1="8.4375"
       x2="15.25"
       y2="19.8125"
       id="linearGradient2903-1"
       xlink:href="#linearGradient6592-2-7-1"
       gradientUnits="userSpaceOnUse"
       gradientTransform="matrix(0.7142858,0,0,0.86666598,-1.1428573,0.4000017)" />
    <linearGradient
       id="linearGradient6592-2-7-1">
      <stop
         id="stop6594-0-2-4"
         style="stop-color:#ffffff;stop-opacity:0.27450982"
         offset="0" />
      <stop
         id="stop6596-2-5-3"
         style="stop-color:#ffffff;stop-opacity:0"
         offset="1" />
    </linearGradient>
    <radialGradient
       cx="12.244348"
       cy="4.8630676"
       r="20.999998"
       fx="12.244348"
       fy="4.8630676"
       id="radialGradient2906-7"
       xlink:href="#linearGradient6712-2"
       gradientUnits="userSpaceOnUse"
       gradientTransform="matrix(0.94450895,0.01356539,-0.0087941,0.75830433,-3.5503801,4.4065437)" />
    <linearGradient
       id="linearGradient6712-2">
      <stop
         id="stop6714-7"
         style="stop-color:#3c3c3c;stop-opacity:1"
         offset="0" />
      <stop
         id="stop6716-3"
         style="stop-color:#1e1e1e;stop-opacity:1"
         offset="1" />
    </linearGradient>
    <linearGradient
       x1="15.573899"
       y1="46.971004"
       x2="23.578077"
       y2="46.971004"
       id="linearGradient3093"
       xlink:href="#linearGradient3342-3"
       gradientUnits="userSpaceOnUse"
       gradientTransform="matrix(0.72744588,0,0,0.65891862,-1.151775,-2.450068)"
       spreadMethod="reflect" />
    <linearGradient
       id="linearGradient3342-3">
      <stop
         id="stop3344-0"
         style="stop-color:#ffffff;stop-opacity:0"
         offset="0" />
      <stop
         id="stop3346-3"
         style="stop-color:#ffffff;stop-opacity:1"
         offset="1" />
    </linearGradient>
    <linearGradient
       x1="397.07306"
       y1="87.076035"
       x2="397.07306"
       y2="95.365944"
       id="linearGradient2913-5"
       xlink:href="#linearGradient3178"
       gradientUnits="userSpaceOnUse"
       gradientTransform="matrix(0.68184398,0,0,0.6063426,-254.2496,-27.797984)" />
    <linearGradient
       id="linearGradient3178">
      <stop
         id="stop3180"
         style="stop-color:#787878;stop-opacity:1"
         offset="0" />
      <stop
         id="stop3184"
         style="stop-color:#c8c8c8;stop-opacity:1"
         offset="0.24005625" />
      <stop
         id="stop3186"
         style="stop-color:#e6e6e6;stop-opacity:1"
         offset="0.33494958" />
      <stop
         id="stop3188"
         style="stop-color:#8c8c8c;stop-opacity:1"
         offset="1" />
    </linearGradient>
    <linearGradient
       x1="98.584404"
       y1="36.075962"
       x2="98.584404"
       y2="44.323311"
       id="linearGradient2915-7"
       xlink:href="#linearGradient3962"
       gradientUnits="userSpaceOnUse"
       gradientTransform="matrix(0.68430138,0,0,0.60625543,-52.461444,3.1287517)" />
    <linearGradient
       id="linearGradient3962">
      <stop
         id="stop3964"
         style="stop-color:#464646;stop-opacity:1"
         offset="0" />
      <stop
         id="stop3968"
         style="stop-color:#969696;stop-opacity:1"
         offset="0.23349524" />
      <stop
         id="stop3970"
         style="stop-color:#aaaaaa;stop-opacity:1"
         offset="0.34358323" />
      <stop
         id="stop3972"
         style="stop-color:#646464;stop-opacity:1"
         offset="1" />
    </linearGradient>
    <linearGradient
       id="linearGradient10691-1">
      <stop
         id="stop10693-3"
         style="stop-color:#000000;stop-opacity:1"
         offset="0" />
      <stop
         id="stop10695-1"
         style="stop-color:#000000;stop-opacity:0"
         offset="1" />
    </linearGradient>
    <radialGradient
       cx="6.702713"
       cy="73.615715"
       r="7.228416"
       fx="6.702713"
       fy="73.615715"
       id="radialGradient4020"
       xlink:href="#linearGradient10691-1"
       gradientUnits="userSpaceOnUse"
       gradientTransform="matrix(1.2450862,0,0,0.27668578,7.6545456,8.631578)" />
    <linearGradient
       inkscape:collect="always"
       xlink:href="#linearGradient3178"
       id="linearGradient3028"
       gradientUnits="userSpaceOnUse"
       gradientTransform="matrix(0.68184398,0,0,0.6063426,-255.2496,-27.797984)"
       x1="397.07306"
       y1="87.076035"
       x2="397.07306"
       y2="95.365944" />
    <radialGradient
       inkscape:collect="always"
       xlink:href="#linearGradient10691-1"
       id="radialGradient3033"
       gradientUnits="userSpaceOnUse"
       gradientTransform="matrix(1.2450862,0,0,0.27668578,6.6545456,8.631578)"
       cx="8.0737877"
       cy="73.296265"
       fx="8.0737877"
       fy="73.296265"
       r="7.228416" />
    <linearGradient
       inkscape:collect="always"
       xlink:href="#outerBackgroundGradient-5-0"
       id="linearGradient3811"
       x1="15"
       y1="24.618645"
       x2="15"
       y2="2"
       gradientUnits="userSpaceOnUse" />
    <clipPath
       clipPathUnits="userSpaceOnUse"
       id="clipPath3835">
      <rect
         width="31.000011"
         height="21.99976"
         rx="0.68889284"
         ry="0.6666643"
         x="0.49999428"
         y="2.5001197"
         id="rect3837"
         style="fill:url(#linearGradient3839);fill-opacity:1;stroke:none" />
    </clipPath>
    <linearGradient
       inkscape:collect="always"
       xlink:href="#linearGradient3805"
       id="linearGradient3839"
       gradientUnits="userSpaceOnUse"
       x1="15"
       y1="24.618645"
       x2="15"
       y2="2" />
    <clipPath
       clipPathUnits="userSpaceOnUse"
       id="clipPath3872">
      <path
         id="path3874"
         d="M 1.1875,3 C 1.0655458,3 1,3.064217 1,3.15625 l 0,20.6875 C 1,23.935783 1.0655458,24 1.1875,24 l 29.625,0 C 30.934454,24 31,23.935783 31,23.84375 L 31,3.15625 C 31,3.064217 30.934454,3 30.8125,3 L 1.1875,3 z"
         style="fill:url(#linearGradient3876);fill-opacity:1;stroke:none"
         inkscape:connector-curvature="0" />
    </clipPath>
    <linearGradient
       inkscape:collect="always"
       xlink:href="#linearGradient3841"
       id="linearGradient3876"
       gradientUnits="userSpaceOnUse"
       x1="15"
       y1="24.618645"
       x2="15"
       y2="2" />
    <linearGradient
       inkscape:collect="always"
       xlink:href="#linearGradient3878"
       id="linearGradient3884"
       x1="15"
       y1="2"
       x2="15"
       y2="24.636932"
       gradientUnits="userSpaceOnUse" />
    <radialGradient
       inkscape:collect="always"
       xlink:href="#linearGradient10691-1"
       id="radialGradient3888"
       gradientUnits="userSpaceOnUse"
       gradientTransform="matrix(2.2134866,0,0,0.27668578,1.1636366,4.631578)"
       cx="6.702713"
       cy="73.615715"
       fx="6.702713"
       fy="73.615715"
       r="7.228416" />
    <linearGradient
       inkscape:collect="always"
       xlink:href="#outerBackgroundGradient-5-0"
       id="linearGradient3934"
       gradientUnits="userSpaceOnUse"
       gradientTransform="matrix(0,-1,1,0,0,30)"
       x1="2.5"
       y1="16"
       x2="29.5"
       y2="16" />
    <linearGradient
       id="outerBackgroundGradient-5-0">
      <stop
         style="stop-color:#261e2b;stop-opacity:1;"
         offset="0"
         id="stop3864-8-6-4" />
      <stop
         style="stop-color:#352f39;stop-opacity:1;"
         offset="1"
         id="stop3866-9-1-86" />
    </linearGradient>
    <clipPath
       clipPathUnits="userSpaceOnUse"
       id="clipPath3821">
      <rect
         width="31.000011"
         height="21.99976"
         rx="0.68889284"
         ry="0.6666643"
         x="0.49999428"
         y="2.5001197"
         id="rect3823"
         style="fill:url(#linearGradient3825);fill-opacity:1;stroke:none" />
    </clipPath>
    <linearGradient
       inkscape:collect="always"
       xlink:href="#outerBackgroundGradient-5-0"
       id="linearGradient3825"
       gradientUnits="userSpaceOnUse"
       x1="15"
       y1="24.618645"
       x2="15"
       y2="2" />
    <linearGradient
       inkscape:collect="always"
       xlink:href="#linearGradient3835"
       id="linearGradient3833"
       x1="16"
       y1="3"
       x2="16"
       y2="25"
       gradientUnits="userSpaceOnUse" />
    <linearGradient
       inkscape:collect="always"
       xlink:href="#linearGradient3835"
       id="linearGradient3856"
       gradientUnits="userSpaceOnUse"
       x1="15"
       y1="24.618645"
       x2="15"
       y2="2"
       gradientTransform="translate(0,-26.999999)" />
    <clipPath
       clipPathUnits="userSpaceOnUse"
       id="clipPath3862">
      <rect
         width="28"
         height="17"
         rx="0"
         ry="0"
         x="2"
         y="4"
         id="rect3864"
         style="fill:url(#linearGradient3866);fill-opacity:1;stroke:none" />
    </clipPath>
    <linearGradient
       inkscape:collect="always"
       xlink:href="#outerBackgroundGradient-5-0"
       id="linearGradient3866"
       gradientUnits="userSpaceOnUse"
       x1="15"
       y1="24.618645"
       x2="15"
       y2="2" />
    <linearGradient
       inkscape:collect="always"
       xlink:href="#linearGradient3880"
       id="linearGradient3887"
       x1="10"
       y1="-3"
       x2="20"
       y2="12"
       gradientUnits="userSpaceOnUse" />
    <radialGradient
       inkscape:collect="always"
       xlink:href="#linearGradient10691-1"
       id="radialGradient4222"
       gradientUnits="userSpaceOnUse"
       gradientTransform="matrix(2.2134866,0,0,0.27668578,1.1636366,7.631578)"
       cx="6.702713"
       cy="73.615715"
       fx="6.702713"
       fy="73.615715"
       r="7.228416" />
    <linearGradient
       inkscape:collect="always"
       xlink:href="#outerBackgroundGradient-0"
       id="linearGradient3826"
       gradientUnits="userSpaceOnUse"
       gradientTransform="matrix(0,0.99999997,-0.99999997,0,47,0.9999998)"
       x1="9"
       y1="23"
       x2="37"
       y2="23" />
    <linearGradient
       id="outerBackgroundGradient-0">
      <stop
         style="stop-color:#c3c3c3;stop-opacity:1;"
         offset="0"
         id="stop3864-8-6-3" />
      <stop
         style="stop-color:#ebebeb;stop-opacity:1;"
         offset="1"
         id="stop3866-9-1-7" />
    </linearGradient>
    <clipPath
       clipPathUnits="userSpaceOnUse"
       id="clipPath3838">
      <path
         d="M 24.000496,10 C 16.268261,10 10,16.268476 10,23.999824 10,31.73188 16.268332,38 24.000496,38 31.732376,38 38,31.73188 38,23.999824 38,16.268476 31.732376,10 24.000496,10 l 0,0 z"
         inkscape:connector-curvature="0"
         id="path3840"
         style="fill:#000000;fill-opacity:1;fill-rule:nonzero;stroke:none" />
    </clipPath>
    <linearGradient
       inkscape:collect="always"
       xlink:href="#linearGradient3894"
       id="linearGradient3900"
       x1="15"
       y1="24"
       x2="33"
       y2="24"
       gradientUnits="userSpaceOnUse"
       gradientTransform="matrix(0,-1,1,0,0,48)" />
    <linearGradient
       inkscape:collect="always"
       id="linearGradient3894">
      <stop
         style="stop-color:#ffffff;stop-opacity:1;"
         offset="0"
         id="stop3896" />
      <stop
         style="stop-color:#ffffff;stop-opacity:0;"
         offset="1"
         id="stop3898" />
    </linearGradient>
    <clipPath
       clipPathUnits="userSpaceOnUse"
       id="clipPath3865">
      <path
         d="m 32,24 a 8,8 0 1 1 -16,0 8,8 0 1 1 16,0 z"
         sodipodi:ry="8"
         sodipodi:rx="8"
         sodipodi:cy="24"
         sodipodi:cx="24"
         id="path3867"
         style="opacity:0.2;fill:#000000;fill-opacity:1;stroke:none"
         sodipodi:type="arc" />
    </clipPath>
    <linearGradient
       inkscape:collect="always"
       xlink:href="#linearGradient3881"
       id="linearGradient3887-3"
       x1="24"
       y1="14"
       x2="24"
       y2="33"
       gradientUnits="userSpaceOnUse" />
    <linearGradient
       id="linearGradient3881">
      <stop
         style="stop-color:#2d2d2d;stop-opacity:1"
         offset="0"
         id="stop3883-9" />
      <stop
         style="stop-color:#3f3f3f;stop-opacity:1"
         offset="1"
         id="stop3885-1" />
    </linearGradient>
    <clipPath
       clipPathUnits="userSpaceOnUse"
       id="clipPath3873">
      <path
         sodipodi:nodetypes="ccccccccccc"
         inkscape:connector-curvature="0"
         id="path3875"
         d="m 21,13 6,0 0,12.024233 L 25,27 l 2,2 0,6 -6,0 L 21,22.892505 23,21 21,19 z"
         style="fill:#555555;fill-opacity:1;stroke:none" />
    </clipPath>
    <clipPath
       clipPathUnits="userSpaceOnUse"
       id="clipPath3122">
      <path
         sodipodi:nodetypes="ccccccccccc"
         inkscape:connector-curvature="0"
         id="path3124"
         d="m 21,13 6,0 0,12.024233 L 25,27 l 2,2 0,6 -6,0 L 21,22.892505 23,21 21,19 z"
         style="fill:#555555;fill-opacity:1;stroke:none" />
    </clipPath>
    <clipPath
       clipPathUnits="userSpaceOnUse"
       id="clipPath3126">
      <path
         sodipodi:nodetypes="ccccccccccc"
         inkscape:connector-curvature="0"
         id="path3128"
         d="m 21,13 6,0 0,12.024233 L 25,27 l 2,2 0,6 -6,0 L 21,22.892505 23,21 21,19 z"
         style="fill:#555555;fill-opacity:1;stroke:none" />
    </clipPath>
    <linearGradient
       inkscape:collect="always"
       xlink:href="#outerBackgroundGradient-5-0"
       id="linearGradient4971"
       gradientUnits="userSpaceOnUse"
       x1="15"
       y1="24.618645"
       x2="15"
       y2="2" />
    <linearGradient
       inkscape:collect="always"
       xlink:href="#linearGradient3881"
       id="linearGradient4977"
       gradientUnits="userSpaceOnUse"
       x1="24"
       y1="14"
       x2="24"
       y2="33"
       gradientTransform="matrix(0.33333328,0,0,0.42857143,8.0000011,2.2142857)" />
    <linearGradient
       inkscape:collect="always"
       xlink:href="#linearGradient3894"
       id="linearGradient4983"
       gradientUnits="userSpaceOnUse"
       gradientTransform="matrix(0,-0.42857143,0.42857143,0,5.7142859,22.785714)"
       x1="15"
       y1="24"
       x2="33"
       y2="24" />
    <linearGradient
       inkscape:collect="always"
       xlink:href="#outerBackgroundGradient-0"
       id="linearGradient4987"
       gradientUnits="userSpaceOnUse"
       gradientTransform="matrix(0,0.39285714,-0.39285714,0,25.035714,3.4642856)"
       x1="9"
       y1="23"
       x2="37"
       y2="23" />
    <linearGradient
       inkscape:collect="always"
       xlink:href="#linearGradient3894"
       id="linearGradient5006"
       gradientUnits="userSpaceOnUse"
       gradientTransform="matrix(0,-0.44444443,0.44444443,0,5.3333339,23.166666)"
       x1="15"
       y1="24"
       x2="33"
       y2="24" />
  </defs>
  <g
     inkscape:groupmode="layer"
     id="layer1"
     inkscape:label="Background">
    <path
       sodipodi:nodetypes="cssscc"
       style="opacity:0.1;fill:url(#radialGradient4222);fill-opacity:1;fill-rule:nonzero;stroke:none;stroke-width:0.80000000999999998;marker:none;visibility:visible;display:inline;overflow:visible"
       id="path4220"
       inkscape:connector-curvature="0"
       d="m 32,28 c 0,1.10457 -7.163445,2 -16.000002,2 C 7.163442,30 0,29.10457 0,28 0,26.895431 7.163442,26 15.999998,26 24.836555,26 32,26.895431 32,28 z" />
    <path
       style="opacity:0.29999999999999999;fill:url(#radialGradient3033);fill-opacity:1;fill-rule:nonzero;stroke:none;stroke-width:0.80000000999999998;marker:none;visibility:visible;display:inline;overflow:visible"
       id="path2589"
       inkscape:connector-curvature="0"
       d="m 24,29 c 0,1.10457 -2.529437,2 -7.5,2 C 11.529437,31 8,30.10457 8,29 c 0,-1.104569 3.529437,-2 8.5,-2 4.970563,0 7.5,0.895431 7.5,2 z"
       sodipodi:nodetypes="csssc" />
    <path
       style="color:#000000;fill:url(#linearGradient3028);fill-opacity:1;fill-rule:nonzero;stroke:none;stroke-width:0.99827468;marker:none;visibility:visible;display:inline;overflow:visible;enable-background:new"
       id="rect1789-8"
       inkscape:connector-curvature="0"
       d="m 13,22 c 0,0 -0.01619,4.398544 -0.5,5 -0.483816,0.601454 -1.5,1 -1.5,1 -0.617765,0.06319 -0.622875,1.5 0,1.5 l 10,0 c 0.622876,0 0.617894,-1.437619 0,-1.5 0,0 -1.01619,-0.39853 -1.5,-1 C 19.01619,26.398546 19,22 19,22 z"
       sodipodi:nodetypes="cscsscccc" />
    <path
       sodipodi:nodetypes="cscsscccc"
       d="m 13,22 c 0,0 -0.01619,4.398544 -0.5,5 -0.483816,0.601454 -1.5,1 -1.5,1 -0.617765,0.06319 -0.622875,1.5 0,1.5 l 10,0 c 0.622876,0 0.617894,-1.437619 0,-1.5 0,0 -1.01619,-0.39853 -1.5,-1 C 19.01619,26.398546 19,22 19,22 z"
       inkscape:connector-curvature="0"
       id="path3849"
       style="opacity:0.41000001;color:#000000;fill:none;stroke:#000000;stroke-width:1;stroke-miterlimit:4;stroke-opacity:1;stroke-dasharray:none;marker:none;visibility:visible;display:inline;overflow:visible;enable-background:new" />
    <path
       style="opacity:0.41000001;fill:#ffffff;fill-opacity:1;stroke:none"
       d="m 11,28 10,0 0,1 -10,0 z"
       id="rect3851"
       inkscape:connector-curvature="0"
       sodipodi:nodetypes="ccccc" />
    <path
       style="opacity:0.11000001;fill:#000000;fill-opacity:1;stroke:none"
       d="m 12,27 8,0 0,1 -8,0 z"
       id="rect3853"
       inkscape:connector-curvature="0"
       sodipodi:nodetypes="ccccc" />
    <path
       transform="scale(1,-1)"
       style="fill:url(#linearGradient3856);fill-opacity:1;stroke:none"
       d="m 1.1888871,-24.49988 29.6222259,0 c 0.381647,0 0.688893,0.297332 0.688893,0.666664 l 0,20.6664315 c 0,0.3693321 -0.307246,0.6666643 -0.688893,0.6666643 l -29.6222259,0 c -0.38164661,0 -0.68889282,-0.2973322 -0.68889282,-0.6666643 l 0,-20.6664315 c 0,-0.369332 0.30724621,-0.666664 0.68889282,-0.666664 z"
       id="rect3854"
       inkscape:connector-curvature="0"
       sodipodi:nodetypes="sssssssss" />
    <path
       style="fill:#2b2b2b;fill-opacity:1;stroke:none"
       d="m 24,23 5,0 0,1.5 -5,0 z"
       id="rect3889"
       inkscape:connector-curvature="0"
       sodipodi:nodetypes="ccccc" />
    <path
       style="fill:url(#linearGradient4971);fill-opacity:1;stroke:none"
       d="M 2.0000002,4 30,4 30,21 2.0000002,21 z"
       id="rect2722"
       inkscape:connector-curvature="0"
       sodipodi:nodetypes="ccccc" />
    <path
       style="opacity:0.2;fill:url(#linearGradient3887);fill-opacity:1;stroke:none"
       d="M 2,4 2,16 30,8.875 30,4 z"
       id="rect3872"
       inkscape:connector-curvature="0"
       sodipodi:nodetypes="ccccc" />
    <path
       id="path3868"
       d="M 1.1875,3 C 1.0655458,3 1,3.064217 1,3.15625 l 0,20.6875 C 1,23.935783 1.0655458,24 1.1875,24 l 29.625,0 C 30.934454,24 31,23.935783 31,23.84375 L 31,3.15625 C 31,3.064217 30.934454,3 30.8125,3 z"
       style="opacity:0.1;fill:none;stroke:url(#linearGradient3884);stroke-width:2;stroke-linecap:round;stroke-linejoin:round;stroke-miterlimit:4;stroke-opacity:1;stroke-dasharray:none;stroke-dashoffset:0.50000001"
       clip-path="url(#clipPath3872)"
       inkscape:connector-curvature="0"
       sodipodi:nodetypes="sssssssss" />
    <path
       id="path3829"
       d="M 1.1875,24 C 1.0655458,24 1,23.935783 1,23.84375 l 0,-1 C 1,22.93578 1.065546,23 1.1875,23 l 29.625,0 C 30.934454,23 31,22.93578 31,22.84375 l 0,1 C 31,23.93578 30.93445,24 30.8125,24 z"
       style="opacity:0.05;fill:#ffffff;fill-opacity:1;stroke:none"
       inkscape:connector-curvature="0"
       sodipodi:nodetypes="sscsscsss" />
    <path
       style="opacity:0.61000001;fill:none;stroke:#000000;stroke-width:1;stroke-linecap:round;stroke-linejoin:round;stroke-miterlimit:4;stroke-opacity:1;stroke-dashoffset:0.50000001"
       d="m 1.1888871,2.5001197 29.6222259,0 c 0.381647,0 0.688893,0.2973323 0.688893,0.6666643 l 0,20.666431 c 0,0.369332 -0.307246,0.666664 -0.688893,0.666664 l -29.6222259,0 c -0.38164661,0 -0.68889282,-0.297332 -0.68889282,-0.666664 l 0,-20.666431 c 0,-0.369332 0.30724621,-0.6666643 0.68889282,-0.6666643 z"
       id="rect3803"
       inkscape:connector-curvature="0"
       sodipodi:nodetypes="sssssssss" />
    <path
       style="opacity:0.2;fill:none;stroke:#000000;stroke-width:2;stroke-miterlimit:4;stroke-opacity:1"
       clip-path="url(#clipPath3862)"
       d="M 2,4 30,4 30,21 2,21 z"
       id="rect3858"
       inkscape:connector-curvature="0"
       sodipodi:nodetypes="ccccc" />
    <path
       style="opacity:0.1;fill:#ffffff;fill-opacity:1;stroke:none"
       d="M 1.1875,3 C 1.0655458,3 1,3.064217 1,3.15625 l 0,1 C 1,4.064217 1.0655458,4 1.1875,4 l 29.625,0 C 30.934454,4 31,4.064217 31,4.15625 l 0,-1 C 31,3.064217 30.934454,3 30.8125,3 z"
       id="rect3815"
       inkscape:connector-curvature="0"
       sodipodi:nodetypes="sscsscsss" />
    <path
       style="opacity:0.6;fill:#ffffff;fill-opacity:1;stroke:none"
       d="m 2,21 28,0 0,1 -28,0 z"
       id="rect3868"
       inkscape:connector-curvature="0"
       sodipodi:nodetypes="ccccc" />
    <path
       style="opacity:0.2;fill:#000000;fill-opacity:1;stroke:none"
       d="M 2,4 30,4 30,5 2,5 z"
       id="rect3870"
       inkscape:connector-curvature="0"
       sodipodi:nodetypes="ccccc" />
  </g>
  <g
     inkscape:groupmode="layer"
     id="layer2"
     inkscape:label="Symbol">
    <path
       d="M 16.000195,7 C 12.962532,7 10.5,9.4626156 10.5,12.499931 10.5,15.537524 12.962559,18 16.000195,18 19.03772,18 21.5,15.537524 21.5,12.499931 21.5,9.4626156 19.03772,7 16.000195,7 l 0,0 z"
       inkscape:connector-curvature="0"
       id="path4995"
       style="fill:none;fill-opacity:1;fill-rule:nonzero;stroke:#000000;stroke-opacity:1;stroke-width:3;stroke-miterlimit:4;stroke-dasharray:none;opacity:0.05000000000000000" />
    <path
       d="M 16.000195,7 C 12.962532,7 10.5,9.4626156 10.5,12.499931 10.5,15.537524 12.962559,18 16.000195,18 19.03772,18 21.5,15.537524 21.5,12.499931 21.5,9.4626156 19.03772,7 16.000195,7 l 0,0 z"
       inkscape:connector-curvature="0"
       id="path4991"
       style="fill:none;fill-opacity:1;fill-rule:nonzero;stroke:#000000;stroke-opacity:1;stroke-width:1;stroke-miterlimit:4;stroke-dasharray:none;opacity:0.59999999999999998" />
    <path
       style="fill:none;fill-opacity:1;fill-rule:nonzero;stroke:#000000;stroke-opacity:1;stroke-width:2;stroke-miterlimit:4;stroke-dasharray:none;opacity:0.10000000000000001"
       id="path4993"
       inkscape:connector-curvature="0"
       d="M 16.000195,7 C 12.962532,7 10.5,9.4626156 10.5,12.499931 10.5,15.537524 12.962559,18 16.000195,18 19.03772,18 21.5,15.537524 21.5,12.499931 21.5,9.4626156 19.03772,7 16.000195,7 l 0,0 z" />
    <path
       style="fill:url(#linearGradient4987);fill-opacity:1;fill-rule:nonzero;stroke:none"
       id="path3824"
       inkscape:connector-curvature="0"
       d="M 16.000195,7 C 12.962532,7 10.5,9.4626156 10.5,12.499931 10.5,15.537524 12.962559,18 16.000195,18 19.03772,18 21.5,15.537524 21.5,12.499931 21.5,9.4626156 19.03772,7 16.000195,7 l 0,0 z" />
    <path
       style="opacity:0.4;fill:url(#linearGradient5006);fill-opacity:1;stroke:none"
       d="m 12,12.5 c 0,2.209139 1.790861,4 4,4 2.20914,0 4,-1.790861 4,-4 0,-2.209139 -1.79086,-4 -4,-4 -2.209139,0 -4,1.790861 -4,4 z m 0.444445,0 c 0,-1.963679 1.591876,-3.5555554 3.555555,-3.5555554 1.963679,0 3.555556,1.5918764 3.555556,3.5555554 0,1.963679 -1.591877,3.555555 -3.555556,3.555555 -1.963679,0 -3.555555,-1.591876 -3.555555,-3.555555 z"
       id="path3889"
       inkscape:connector-curvature="0" />
    <path
       sodipodi:type="arc"
       style="opacity:0.1;fill:#000000;fill-opacity:1;stroke:none"
       id="path3857"
       sodipodi:cx="24"
       sodipodi:cy="24"
       sodipodi:rx="8"
       sodipodi:ry="8"
       d="m 32,24 a 8,8 0 1 1 -16,0 8,8 0 1 1 16,0 z"
       transform="matrix(0.4375,0,0,0.4375,5.5,2)" />
    <path
       d="m 32,24 a 8,8 0 1 1 -16,0 8,8 0 1 1 16,0 z"
       sodipodi:ry="8"
       sodipodi:rx="8"
       sodipodi:cy="24"
       sodipodi:cx="24"
       id="path3859"
       style="opacity:0.1;fill:none;stroke:#000000;stroke-width:2;stroke-miterlimit:4;stroke-opacity:1;stroke-dasharray:none"
       sodipodi:type="arc"
       clip-path="url(#clipPath3865)"
       transform="matrix(0.4375,0,0,0.4375,5.5,2)" />
    <path
       sodipodi:nodetypes="ccccccccccc"
       inkscape:connector-curvature="0"
       id="path4989"
       d="m 15,9 2,0 0,2.938957 -1,0.846757 1,0.857143 L 17,15 l -2,0 0,-3.974641 1,-0.811073 -1,-0.857143 z"
       style="opacity:0.20000000000000001;fill:#ffffff;fill-opacity:1;stroke:none" />
    <path
       style="fill:url(#linearGradient4977);fill-opacity:1;stroke:none"
       d="m 15,9 2,0 0,3.938957 -1,0.846757 1,0.857143 L 17,16 l -2,0 0,-3.974641 1,-0.811073 -1,-0.857143 z"
       id="rect3030"
       inkscape:connector-curvature="0"
       sodipodi:nodetypes="ccccccccccc" />
  </g>
</svg>
