<?xml version="1.0" encoding="UTF-8" standalone="no"?>
<svg xmlns="http://www.w3.org/2000/svg" xmlns:xlink="http://www.w3.org/1999/xlink" xmlns:sodipodi="http://sodipodi.sourceforge.net/DTD/sodipodi-0.dtd" xmlns:inkscape="http://www.inkscape.org/namespaces/inkscape" version="1.1" width="22" height="22">
 <defs id="defs12709">
  <linearGradient y1="225.32" x2="0" y2="229.73" id="linearGradient6572-9-1" xlink:href="#linearGradient6092" gradientUnits="userSpaceOnUse" gradientTransform="matrix(1.3879448,0,0,1.3871043,-867.75826,-304.61462)"/>
  <linearGradient id="linearGradient6092">
   <stop id="stop6094" stop-color="#ffffff"/>
   <stop id="stop6096" offset="0.332" stop-color="#ffffff" stop-opacity="0.235"/>
   <stop id="stop6098" offset="0.972" stop-color="#ffffff" stop-opacity="0.157"/>
   <stop id="stop6100" offset="1" stop-color="#ffffff" stop-opacity="0.392"/>
  </linearGradient>
  <linearGradient y1="15" x2="0" y2="10" id="linearGradient5610-3-8" xlink:href="#linearGradient5604-7-6" gradientUnits="userSpaceOnUse" gradientTransform="matrix(1.6666724,0,0,1.6000028,-2.33337,-7.7000402)"/>
  <linearGradient id="linearGradient5604-7-6">
   <stop id="stop5606-8-2" stop-color="#ae6a37"/>
   <stop id="stop5608-5-0" offset="1" stop-color="#d28e5b"/>
  </linearGradient>
  <linearGradient y1="10" x2="0" y2="15" id="linearGradient5618-5-7" xlink:href="#linearGradient5612-8-6" gradientUnits="userSpaceOnUse" gradientTransform="matrix(1.6666724,0,0,1.6000028,-2.33337,-7.7000402)"/>
  <linearGradient id="linearGradient5612-8-6">
   <stop id="stop5614-2-5" stop-color="#793b19"/>
   <stop id="stop5616-0-2" offset="1" stop-color="#a76331"/>
  </linearGradient>
  <linearGradient y1="218.84" x2="0" y2="230.17" id="linearGradient6572-9" xlink:href="#linearGradient3977-3" gradientUnits="userSpaceOnUse" gradientTransform="matrix(1.3879448,0,0,1.3871043,-867.75826,-305.61463)"/>
  <linearGradient id="linearGradient3977-3">
   <stop id="stop3979-9" stop-color="#ffffff"/>
   <stop id="stop3981-8" offset="0.029" stop-color="#ffffff" stop-opacity="0.235"/>
   <stop id="stop3983-01" offset="0.972" stop-color="#ffffff" stop-opacity="0.157"/>
   <stop id="stop3985-2" offset="1" stop-color="#ffffff" stop-opacity="0.392"/>
  </linearGradient>
  <linearGradient y1="15.03" x2="0" y2="3.102" id="linearGradient5936" xlink:href="#linearGradient5518-7-7" gradientUnits="userSpaceOnUse" gradientTransform="matrix(1.3879448,0,0,1.3871043,-0.29276,-6.0001202)"/>
  <linearGradient id="linearGradient5518-7-7">
   <stop id="stop5520-3-3" stop-color="#fff2e5"/>
   <stop id="stop5522-8-2" offset="1" stop-color="#d8c7b6"/>
  </linearGradient>
  <linearGradient y1="15.943" x2="0" y2="1.049" id="linearGradient5938-1" xlink:href="#linearGradient5917-8" gradientUnits="userSpaceOnUse" gradientTransform="matrix(1.3879448,0,0,1.3871043,-0.29276,-6.0001202)"/>
  <linearGradient id="linearGradient5917-8">
   <stop id="stop5919-8" stop-color="#62421e" stop-opacity="0.498"/>
   <stop id="stop5921-4" offset="1" stop-color="#9f764d" stop-opacity="0.416"/>
  </linearGradient>
  <linearGradient id="outerBackgroundGradient-4">
   <stop id="stop3864-8-6-6" stop-color="#f0f0f0"/>
   <stop offset="1" id="stop3866-9-1-7" stop-color="#f9f9f9"/>
  </linearGradient>
  <linearGradient inkscape:collect="always" xlink:href="#linearGradient6582" id="linearGradient6701" y1="-180" x2="0" y2="-164" gradientUnits="userSpaceOnUse"/>
  <linearGradient inkscape:collect="always" id="linearGradient6582">
   <stop id="stop6584" stop-color="#ffffff"/>
   <stop offset="1" id="stop6586" stop-color="#ffffff" stop-opacity="0"/>
  </linearGradient>
  <clipPath id="clipPath6691">
   <path id="path6693" d="m 914,-179.00027 8,-1e-5 4,3 0,11 -12,0 z"/>
  </clipPath>
  <radialGradient cx="102" cy="112.3" r="139.56" id="XMLID_8_" gradientUnits="userSpaceOnUse">
   <stop id="stop41" stop-color="#b7b8b9"/>
   <stop id="stop47" offset="0.189" stop-color="#ececec"/>
   <stop id="stop49" offset="0.257" stop-color="#fafafa" stop-opacity="0"/>
   <stop id="stop51" offset="0.301" stop-color="#ffffff" stop-opacity="0"/>
   <stop id="stop53" offset="0.531" stop-color="#fafafa" stop-opacity="0"/>
   <stop id="stop55" offset="0.845" stop-color="#ebecec" stop-opacity="0"/>
   <stop id="stop57" offset="1" stop-color="#e1e2e3" stop-opacity="0"/>
  </radialGradient>
  <linearGradient id="linearGradient8589">
   <stop id="stop8591" stop-color="#fefefe"/>
   <stop id="stop8593" offset="1" stop-color="#cbcbcb"/>
  </linearGradient>
  <linearGradient inkscape:collect="always" xlink:href="#outerBackgroundGradient-4" id="linearGradient4239" gradientUnits="userSpaceOnUse" gradientTransform="matrix(0.06666667,0,0,0.06666667,3.4,-1.66667)" y1="280" x2="0" y2="40"/>
  <radialGradient inkscape:collect="always" xlink:href="#XMLID_8_" id="radialGradient4241" gradientUnits="userSpaceOnUse" gradientTransform="matrix(0.12846887,0,0,-0.14049355,4.74831,18.727619)" cx="102" cy="112.3" r="139.56"/>
  <linearGradient inkscape:collect="always" xlink:href="#linearGradient8589" id="linearGradient4243" gradientUnits="userSpaceOnUse" gradientTransform="matrix(0.34972769,0,0,0.35610773,4.64314,1.30014)" x1="32.892" y1="8.06" x2="36.36" y2="5.457"/>
  <clipPath id="clipPath4303">
   <path id="path4305" d="m 4,2 0,18 15,0 0,-14.09375 0,-0.03125 -0.03125,0 0,-0.03125 L 15.0625,2.03125 15.03125,2 15,2 4,2 z"/>
  </clipPath>
  <linearGradient inkscape:collect="always" xlink:href="#linearGradient6582" id="linearGradient4313" y1="0" x2="0" y2="22" gradientUnits="userSpaceOnUse"/>
 </defs>
 <metadata id="metadata12712"/>
 <path d="m 3.5,1.5 0,0.5 0,18 0,0.5 0.5,0 15,0 0.5,0 0,-0.5 0,-14.099875 0,-0.25 -0.1875,-0.15625 -4,-3.900125 L 15.15625,1.5 15,1.5 4,1.5 z" id="rect3373-6" inkscape:connector-curvature="0" sodipodi:nodetypes="cccccccccccccccc" fill="url(#linearGradient4239)" color="#bebebe" stroke-width="0"/>
 <path d="M 4 2 L 4 20 L 19 20 L 19 5.90625 L 19 5.875 L 18.96875 5.875 L 18.96875 5.84375 L 15.0625 2.03125 L 15.03125 2 L 15 2 L 4 2 z " id="path4294" clip-path="url(#clipPath4303)" fill="url(#linearGradient4313)" stroke="#ffffff" color="#bebebe" stroke-width="2"/>
 <path sodipodi:nodetypes="cccccccccccccccc" inkscape:connector-curvature="0" id="path4286" d="m 3.5,1.5 0,0.5 0,18 0,0.5 0.5,0 15,0 0.5,0 0,-0.5 0,-14.099875 0,-0.25 -0.1875,-0.15625 C 18.447378,3.2887387 16.21921,2.0556801 14.693782,1.59375 L 14.537532,1.5 14.381282,1.5 4,1.5 z" opacity="0.4" fill="none" stroke="#000000" color="#bebebe"/>
 <g id="g4276" transform="matrix(1.1546577,0,0,1.1546577,-2.3449099,-0.79432183)">
  <path sodipodi:nodetypes="ccc" d="m 15.31854,2.01855 3.65217,3.18754 c 0,11.152198 -12.0567,-3.18754 -3.65217,-3.18754 z" inkscape:connector-curvature="0" id="path4191" fill="url(#radialGradient4241)"/>
  <path sodipodi:nodetypes="ccccccc" d="m 12.99166,1.99377 c 1.11697,0 1,4.0124595 1,4.0124595 0,0 5.01089,-0.5812695 5.01089,1 0,-0.38528 0.0301,-1.8062995 -0.0469,-1.9265195 -0.55326,-0.86374 -2.94292,-2.80197 -3.80586,-3.05599 -0.69408,-0.058 -2.15813,-0.0299 -2.15813,-0.0299 z" inkscape:connector-curvature="0" id="path4474-4" opacity="0.17" fill-rule="evenodd"/>
  <path sodipodi:nodetypes="cccccc" d="m 12.1637,2.01886 c 1.11697,0 0.82796,4.9873695 0.82796,4.9873695 0,0 6.1005,-0.69597 6.1005,0.8853 0,-0.38528 -0.0846,-2.0356895 -0.1616,-2.1559095 C 18.3773,4.87188 15.24212,2.36018 14.37918,2.10616 13.16334,1.97812 12.1637,2.01886 12.1637,2.01886 z" inkscape:connector-curvature="0" id="path4474-4-2" opacity="0.05" fill-rule="evenodd"/>
  <path sodipodi:nodetypes="ccccccc" d="m 13.99166,1.99377 c 1.11697,0 1,3.01246 1,3.01246 0,0 4.01089,-0.58127 4.01089,0.9999995 0,-0.3852795 0.0301,-0.8062995 -0.0469,-0.9265195 -0.55326,-0.86374 -2.94292,-2.80197 -3.80586,-3.05599 -0.17779,-0.005 -0.98055,-0.02 -1.15813,-0.0299 z" inkscape:connector-curvature="0" id="path4474" fill="url(#linearGradient4243)" fill-rule="evenodd"/>
 </g>
</svg>
