<?xml version="1.0" encoding="UTF-8" standalone="no"?>
<svg xmlns="http://www.w3.org/2000/svg" xmlns:xlink="http://www.w3.org/1999/xlink" xmlns:sodipodi="http://sodipodi.sourceforge.net/DTD/sodipodi-0.dtd" xmlns:inkscape="http://www.inkscape.org/namespaces/inkscape" version="1.1" width="22" height="22">
 <defs id="defs12709">
  <linearGradient inkscape:collect="always" id="linearGradient3850">
   <stop id="stop3852" stop-color="#ffffff"/>
   <stop offset="1" id="stop3854" stop-color="#ffffff" stop-opacity="0"/>
  </linearGradient>
  <linearGradient y1="15" x2="0" y2="10" id="linearGradient5610-3-8" xlink:href="#linearGradient5604-7" gradientUnits="userSpaceOnUse" gradientTransform="matrix(1.6666724,0,0,1.6000028,-2.33337,-7.7000402)"/>
  <linearGradient y1="10" x2="0" y2="15" id="linearGradient5618-5-7" xlink:href="#linearGradient5612-8" gradientUnits="userSpaceOnUse" gradientTransform="matrix(1.6666724,0,0,1.6000028,-2.33337,-7.7000402)"/>
  <linearGradient y1="218.84" x2="0" y2="230.17" id="linearGradient6572-9" xlink:href="#linearGradient3977-3" gradientUnits="userSpaceOnUse" gradientTransform="matrix(1.3879448,0,0,1.3871043,-867.75826,-305.61463)"/>
  <linearGradient id="linearGradient3977-3">
   <stop id="stop3979-9" stop-color="#ffffff"/>
   <stop id="stop3981-8" offset="0.029" stop-color="#ffffff" stop-opacity="0.235"/>
   <stop id="stop3983-01" offset="0.972" stop-color="#ffffff" stop-opacity="0.157"/>
   <stop id="stop3985-2" offset="1" stop-color="#ffffff" stop-opacity="0.392"/>
  </linearGradient>
  <linearGradient y1="15.03" x2="0" y2="3.102" id="linearGradient5936" xlink:href="#linearGradient5518-7" gradientUnits="userSpaceOnUse" gradientTransform="matrix(1.3879448,0,0,1.3871043,-0.29276,-6.0001202)"/>
  <linearGradient id="linearGradient5518-7">
   <stop id="stop5520-3" stop-color="#eae5ff"/>
   <stop id="stop5522-8" offset="1" stop-color="#d4d5da"/>
  </linearGradient>
  <linearGradient inkscape:collect="always" xlink:href="#linearGradient3977-3" id="linearGradient6954" gradientUnits="userSpaceOnUse" gradientTransform="translate(-602.23729,-208.24457)" y1="218.84" x2="0" y2="230.17"/>
  <linearGradient gradientTransform="translate(22.762712,7.7554366)" inkscape:collect="always" xlink:href="#linearGradient5604-7" id="linearGradient6948" gradientUnits="userSpaceOnUse" y1="15" x2="0" y2="10"/>
  <linearGradient id="linearGradient5604-7">
   <stop id="stop5606-8" stop-color="#6f6c7e"/>
   <stop id="stop5608-5" offset="1" stop-color="#aaaaaa"/>
  </linearGradient>
  <linearGradient gradientTransform="translate(22.762712,7.7554366)" inkscape:collect="always" xlink:href="#linearGradient5612-8" id="linearGradient6950" gradientUnits="userSpaceOnUse" y1="10" x2="0" y2="15"/>
  <linearGradient id="linearGradient5612-8">
   <stop id="stop5614-2" stop-color="#212121"/>
   <stop id="stop5616-0" offset="1" stop-color="#58575e"/>
  </linearGradient>
  <linearGradient y2="3.102" x2="0" y1="15.03" gradientTransform="translate(22.762712,7.7554266)" gradientUnits="userSpaceOnUse" id="linearGradient3046" xlink:href="#linearGradient5518-7" inkscape:collect="always"/>
  <linearGradient inkscape:collect="always" xlink:href="#linearGradient5604-7" id="linearGradient3912" gradientUnits="userSpaceOnUse" gradientTransform="matrix(1.6666724,0,0,1.6000028,-2.33337,-2.7000402)" y1="15" x2="0" y2="10"/>
  <linearGradient inkscape:collect="always" xlink:href="#linearGradient5612-8" id="linearGradient3914" gradientUnits="userSpaceOnUse" gradientTransform="matrix(1.6666724,0,0,1.6000028,-2.33337,-2.7000402)" y1="10" x2="0" y2="15"/>
  <linearGradient inkscape:collect="always" xlink:href="#linearGradient3977-3" id="linearGradient3918" gradientUnits="userSpaceOnUse" gradientTransform="matrix(1.3879448,0,0,1.3871043,-867.75826,-299.61463)" y1="218.84" x2="0" y2="230.17"/>
  <linearGradient inkscape:collect="always" xlink:href="#linearGradient5518-7" id="linearGradient3921" gradientUnits="userSpaceOnUse" gradientTransform="matrix(1.3879448,0,0,1.3871043,-0.29276,-1.202e-4)" y1="15.03" x2="0" y2="3.102"/>
  <linearGradient gradientTransform="translate(-12.000339,-16)" inkscape:collect="always" xlink:href="#linearGradient5621" id="linearGradient4509" y1="13" x2="0" y2="43" gradientUnits="userSpaceOnUse"/>
  <linearGradient id="linearGradient5621">
   <stop id="stop5623" stop-color="#0b0b0b"/>
   <stop offset="1" id="stop5625" stop-color="#585858"/>
  </linearGradient>
  <linearGradient inkscape:collect="always" xlink:href="#linearGradient3850" id="linearGradient6734" x1="435" x2="438" gradientUnits="userSpaceOnUse"/>
  <linearGradient inkscape:collect="always" xlink:href="#linearGradient3850" id="linearGradient6750" x1="443.5" y1="-178.5" x2="444" y2="-175.5" gradientUnits="userSpaceOnUse" gradientTransform="translate(-282.5625,194.00027)"/>
  <linearGradient y2="47.937" x2="0" y1="63.937" gradientTransform="translate(-1250.5,-33.9375)" gradientUnits="userSpaceOnUse" id="linearGradient3033" xlink:href="#linearGradient5621" inkscape:collect="always"/>
  <linearGradient inkscape:collect="always" xlink:href="#linearGradient3850" id="linearGradient4011" x1="4" x2="8" gradientUnits="userSpaceOnUse"/>
  <linearGradient inkscape:collect="always" xlink:href="#linearGradient3850" id="linearGradient4013" x1="14" x2="18" gradientUnits="userSpaceOnUse"/>
  <linearGradient inkscape:collect="always" xlink:href="#linearGradient3850" id="linearGradient4027" x1="13" y1="4" x2="13.438" y2="7" gradientUnits="userSpaceOnUse"/>
  <linearGradient gradientTransform="translate(-1872,176)" inkscape:collect="always" xlink:href="#linearGradient5621" id="linearGradient7465" y1="-160" x2="0" y2="-176" gradientUnits="userSpaceOnUse"/>
  <linearGradient y2="-176" x2="0" y1="-160" gradientTransform="translate(-1871.0002,180.00001)" gradientUnits="userSpaceOnUse" id="linearGradient3011" xlink:href="#linearGradient5621" inkscape:collect="always"/>
  <linearGradient inkscape:collect="always" xlink:href="#linearGradient5621" id="linearGradient3842" gradientUnits="userSpaceOnUse" gradientTransform="translate(-1870.0002,179.00001)" y1="-160" x2="0" y2="-176"/>
  <linearGradient inkscape:collect="always" xlink:href="#linearGradient3850" id="linearGradient3856" x1="13" x2="18" gradientUnits="userSpaceOnUse"/>
  <linearGradient inkscape:collect="always" xlink:href="#linearGradient3850" id="linearGradient3858" x1="3" x2="8" gradientUnits="userSpaceOnUse"/>
 </defs>
 <metadata id="metadata12712"/>
 <path d="M 15.5,0 C 13.567003,0 12,1.5670034 12,3.5 c 0,0.438376 0.102821,0.8632799 0.25,1.25 L 7.9375,8 C 7.3067893,7.3850602 6.4504613,7 5.5,7 3.5670034,7 2,8.5670034 2,10.5 2,12.432997 3.5670034,14 5.5,14 6.4504613,14 7.3067893,13.61494 7.9375,13 L 12.25,16.25 C 12.102821,16.63672 12,17.061624 12,17.5 12,19.432997 13.567003,21 15.5,21 17.432997,21 19,19.432997 19,17.5 19,15.567003 17.432997,14 15.5,14 c -0.950461,0 -1.806789,0.38506 -2.4375,1 L 8.75,11.75 C 8.8971789,11.36328 9,10.938376 9,10.5 9,10.061624 8.8971789,9.63672 8.75,9.25 L 13.0625,6 C 13.693211,6.6149398 14.549539,7 15.5,7 17.432997,7 19,5.4329966 19,3.5 19,1.5670034 17.432997,0 15.5,0 z" id="path8436-3-3" inkscape:connector-curvature="0" fill="url(#linearGradient3842)" color="#bebebe" stroke-width="4"/>
 <path sodipodi:type="arc" id="path3844" sodipodi:cx="5.5" sodipodi:cy="11.5" sodipodi:rx="2.5" sodipodi:ry="2.5" d="m 8,11.5 a 2.5,2.5 0 1 1 -5,0 2.5,2.5 0 1 1 5,0 z" transform="matrix(0,1,-1,0,17,5)" opacity="0.6" fill="url(#linearGradient3858)"/>
 <path sodipodi:type="arc" id="path3846" sodipodi:cx="15.5" sodipodi:cy="4.5" sodipodi:rx="2.5" sodipodi:ry="2.5" d="m 18,4.5 a 2.5,2.5 0 1 1 -5,0 2.5,2.5 0 1 1 5,0 z" transform="matrix(0,1,-1,0,20,-12)" opacity="0.6" fill="url(#linearGradient3856)"/>
 <path sodipodi:type="arc" id="path3848" sodipodi:cx="15.5" sodipodi:cy="18.5" sodipodi:rx="2.5" sodipodi:ry="2.5" d="m 18,18.5 a 2.5,2.5 0 1 1 -5,0 2.5,2.5 0 1 1 5,0 z" transform="matrix(0,1,-1,0,34,2)" opacity="0.6" fill="url(#linearGradient3856)"/>
</svg>
