<?xml version="1.0" encoding="UTF-8" standalone="no"?>
<svg xmlns="http://www.w3.org/2000/svg" xmlns:xlink="http://www.w3.org/1999/xlink" xmlns:sodipodi="http://sodipodi.sourceforge.net/DTD/sodipodi-0.dtd" xmlns:inkscape="http://www.inkscape.org/namespaces/inkscape" version="1.1" width="22" height="22">
 <defs id="defs3830">
  <linearGradient inkscape:collect="always" id="linearGradient3801">
   <stop id="stop3803" stop-color="#ffffff"/>
   <stop offset="1" id="stop3805" stop-color="#ffffff" stop-opacity="0"/>
  </linearGradient>
  <linearGradient id="linearGradient3977">
   <stop id="stop3979" stop-color="#ffffff"/>
   <stop id="stop3981" offset="0.036" stop-color="#ffffff" stop-opacity="0.235"/>
   <stop id="stop3983" offset="0.951" stop-color="#ffffff" stop-opacity="0.157"/>
   <stop id="stop3985" offset="1" stop-color="#ffffff" stop-opacity="0.392"/>
  </linearGradient>
  <linearGradient id="linearGradient3600-4">
   <stop id="stop3602-7" stop-color="#f4f4f4"/>
   <stop id="stop3604-6" offset="1" stop-color="#dbdbdb"/>
  </linearGradient>
  <linearGradient y1="5.564" x2="0" y2="43" id="linearGradient3000" xlink:href="#linearGradient3977" gradientUnits="userSpaceOnUse" gradientTransform="matrix(0.40540511,0,0,0.51351253,1.2696879,-1.32431)"/>
  <linearGradient y1="0.985" x2="0" y2="47.01" id="linearGradient3003" xlink:href="#linearGradient21877" gradientUnits="userSpaceOnUse" gradientTransform="matrix(0.48571543,0,0,-0.45629579,-0.6571703,22.651132)"/>
  <linearGradient inkscape:collect="always" xlink:href="#linearGradient3988-5" id="linearGradient3158" gradientUnits="userSpaceOnUse" gradientTransform="matrix(0.175,0,0,0.175,-1.20002,-6.0000326)" y1="280" x2="0" y2="40"/>
  <linearGradient id="linearGradient3988-5">
   <stop id="stop3990-5" stop-color="#ededed"/>
   <stop offset="1" id="stop3992-0" stop-color="#fafafa"/>
  </linearGradient>
  <linearGradient inkscape:collect="always" xlink:href="#linearGradient3801" id="linearGradient3807" y1="0" x2="0" y2="22" gradientUnits="userSpaceOnUse"/>
  <radialGradient inkscape:collect="always" xlink:href="#linearGradient6557" id="radialGradient3981" gradientUnits="userSpaceOnUse" cx="311.47" cy="828.53" r="3.281"/>
  <linearGradient id="linearGradient6557">
   <stop id="stop6559" stop-color="#fce94f"/>
   <stop id="stop6565" offset="0.673" stop-color="#fce94f"/>
   <stop offset="1" id="stop6561" stop-color="#fce94f" stop-opacity="0"/>
  </linearGradient>
  <linearGradient id="linearGradient6620">
   <stop id="stop6622" stop-color="#ffffff"/>
   <stop offset="0.33" id="stop6624" stop-color="#ffffff"/>
   <stop id="stop6626" offset="1" stop-color="#fce94f"/>
  </linearGradient>
  <linearGradient inkscape:collect="always" id="linearGradient3952">
   <stop id="stop3954"/>
   <stop offset="1" id="stop3956" stop-opacity="0"/>
  </linearGradient>
  <linearGradient inkscape:collect="always" xlink:href="#linearGradient3960" id="linearGradient3051" gradientUnits="userSpaceOnUse" gradientTransform="matrix(1.1428571,0,0,1,-11.857143,2)" y1="45" x2="0" y2="42"/>
  <linearGradient id="linearGradient3960">
   <stop id="stop3962" stop-opacity="0"/>
   <stop id="stop3970" offset="0.5"/>
   <stop offset="1" id="stop3964" stop-opacity="0"/>
  </linearGradient>
  <linearGradient inkscape:collect="always" xlink:href="#linearGradient3960" id="linearGradient3320" gradientUnits="userSpaceOnUse" gradientTransform="translate(-9,-23)" y1="45" x2="0" y2="42"/>
  <radialGradient inkscape:collect="always" xlink:href="#linearGradient3952" id="radialGradient3323" gradientUnits="userSpaceOnUse" gradientTransform="matrix(1,0,0,0.75,-5,-12.125)" cx="9" cy="43.5" r="2"/>
  <radialGradient inkscape:collect="always" xlink:href="#linearGradient3952" id="radialGradient3326" gradientUnits="userSpaceOnUse" gradientTransform="matrix(1,0,0,0.75,-22,-12.125)" cx="40" cy="43.5" r="2"/>
  <linearGradient id="linearGradient7570">
   <stop id="stop7572" stop-color="#347fa0"/>
   <stop id="stop7574" offset="1" stop-color="#489fc6"/>
  </linearGradient>
  <linearGradient y2="40" x2="0" y1="280" gradientTransform="matrix(0.07222223,0,0,0.07142975,-0.39196015,1.564777)" gradientUnits="userSpaceOnUse" id="linearGradient3026" xlink:href="#linearGradient21877" inkscape:collect="always"/>
  <linearGradient id="linearGradient21877">
   <stop id="stop21879" stop-color="#3fafe0"/>
   <stop offset="1" id="stop21881" stop-color="#84d5f9"/>
  </linearGradient>
  <linearGradient inkscape:collect="always" xlink:href="#linearGradient7570" id="linearGradient3836" y1="22" x2="0" y2="1" gradientUnits="userSpaceOnUse"/>
 </defs>
 <metadata id="metadata3833"/>
 <g inkscape:groupmode="layer" id="layer1" inkscape:label="Background">
  <path d="m 18,19 0,3 0.5,0 C 19.331,22 20,21.331 20,20.5 20,19.669 19.331,19 18.5,19 L 18,19 z" id="rect3940" inkscape:connector-curvature="0" opacity="0.2" fill="url(#radialGradient3326)"/>
  <path d="M 3.40625,19 C 2.6271875,19 2,19.627187 2,20.40625 l 0,0.1875 C 2,21.372813 2.6271875,22 3.40625,22 L 4,22 4,19 3.40625,19 z" id="rect3942" inkscape:connector-curvature="0" opacity="0.2" fill="url(#radialGradient3323)"/>
  <path d="m 4,19 14,0 0,3 -14,0 z" id="rect3938" inkscape:connector-curvature="0" sodipodi:nodetypes="ccccc" opacity="0.2" fill="url(#linearGradient3320)"/>
  <path d="m 3.4999609,20.500039 c 3.8955809,0 15.0000591,-0.0014 15.0000591,-0.0014 l 2.1e-5,-18.998676 c 0,0 -9.3333864,0 -15.0000801,0 0,7.000005 0,12.000008 0,19.000014 z" inkscape:connector-curvature="0" id="path4160-3" sodipodi:nodetypes="ccccsc" fill="url(#linearGradient3003)"/>
  <path d="m 3.4999609,1.4999629 c 3.8955809,0 15.0000591,0.0014 15.0000591,0.0014 l 2.1e-5,18.9986761 c 0,0 -9.3333864,0 -15.0000801,0 0,-7.000005 0,-12.0000081 0,-19.0000141 z" inkscape:connector-curvature="0" id="path4160-3-5" sodipodi:nodetypes="ccccsc" opacity="0.91" fill="none" stroke="url(#linearGradient3836)" stroke-linejoin="round"/>
  <path d="m 4,2 0,1 c 4.1579948,7.52e-5 13.292656,-7.52e-5 14,0 l 0,-1 c -0.707344,-7.52e-5 -9.8420052,7.52e-5 -14,0 z" id="path3780" inkscape:connector-curvature="0" sodipodi:nodetypes="ccccc" opacity="0.4" fill="#ffffff"/>
  <path d="M 4,2 4,20 18,20 18,2 z M 5,3 17,3 17,19 5,19 z" id="rect3796" inkscape:connector-curvature="0" sodipodi:nodetypes="cccccccccc" opacity="0.4" fill="url(#linearGradient3807)"/>
 </g>
 <g inkscape:groupmode="layer" id="layer2" inkscape:label="Symbol">
  <path id="path3848" d="M 6,4 6,5 7,5 7,4 6,4 z M 6,5 5,5 5,6 6,6 6,5 z M 8,4 8,5 9,5 9,4 8,4 z m 2,0 0,1 1,0 0,-1 -1,0 z m 2,0 0,1 1,0 0,-1 -1,0 z m 2,0 0,1 1,0 0,-1 -1,0 z m 2,0 0,1 1,0 0,-1 -1,0 z m 0,2 0,1 1,0 0,-1 -1,0 z M 5,7 5,8 6,8 6,7 5,7 z m 11,1 0,1 1,0 0,-1 -1,0 z M 5,9 5,10 6,10 6,9 5,9 z m 11,1 0,1 1,0 0,-1 -1,0 z m -11,1 0,1 1,0 0,-1 -1,0 z m 11,1 0,1 1,0 0,-1 -1,0 z m -11,1 0,1 1,0 0,-1 -1,0 z m 11,1 0,1 1,0 0,-1 -1,0 z m -11,1 0,1 1,0 0,-1 -1,0 z m 11,1 0,1 1,0 0,-1 -1,0 z m -11,1 0,1 1,0 0,-1 -1,0 z m 11,1 0,1 1,0 0,-1 -1,0 z m 0,1 -1,0 0,1 1,0 0,-1 z m -11,0 0,1 1,0 0,-1 -1,0 z m 2,0 0,1 1,0 0,-1 -1,0 z m 2,0 0,1 1,0 0,-1 -1,0 z m 2,0 0,1 1,0 0,-1 -1,0 z m 2,0 0,1 1,0 0,-1 -1,0 z" inkscape:connector-curvature="0" opacity="0.1"/>
  <path d="M 6 3 L 6 4 L 7 4 L 7 3 L 6 3 z M 6 4 L 5 4 L 5 5 L 6 5 L 6 4 z M 8 3 L 8 4 L 9 4 L 9 3 L 8 3 z M 10 3 L 10 4 L 11 4 L 11 3 L 10 3 z M 12 3 L 12 4 L 13 4 L 13 3 L 12 3 z M 14 3 L 14 4 L 15 4 L 15 3 L 14 3 z M 16 3 L 16 4 L 17 4 L 17 3 L 16 3 z M 16 5 L 16 6 L 17 6 L 17 5 L 16 5 z M 5 6 L 5 7 L 6 7 L 6 6 L 5 6 z M 16 7 L 16 8 L 17 8 L 17 7 L 16 7 z M 5 8 L 5 9 L 6 9 L 6 8 L 5 8 z M 16 9 L 16 10 L 17 10 L 17 9 L 16 9 z M 5 10 L 5 11 L 6 11 L 6 10 L 5 10 z M 16 11 L 16 12 L 17 12 L 17 11 L 16 11 z M 5 12 L 5 13 L 6 13 L 6 12 L 5 12 z M 16 13 L 16 14 L 17 14 L 17 13 L 16 13 z M 5 14 L 5 15 L 6 15 L 6 14 L 5 14 z M 16 15 L 16 16 L 17 16 L 17 15 L 16 15 z M 5 16 L 5 17 L 6 17 L 6 16 L 5 16 z M 16 17 L 16 18 L 17 18 L 17 17 L 16 17 z M 16 18 L 15 18 L 15 19 L 16 19 L 16 18 z M 5 18 L 5 19 L 6 19 L 6 18 L 5 18 z M 7 18 L 7 19 L 8 19 L 8 18 L 7 18 z M 9 18 L 9 19 L 10 19 L 10 18 L 9 18 z M 11 18 L 11 19 L 12 19 L 12 18 L 11 18 z M 13 18 L 13 19 L 14 19 L 14 18 L 13 18 z " id="rect7288" fill="#ffffff"/>
 </g>
</svg>
