<?xml version="1.0" encoding="UTF-8" standalone="no"?>
<!-- Created with Inkscape (http://www.inkscape.org/) -->

<svg
   xmlns:dc="http://purl.org/dc/elements/1.1/"
   xmlns:cc="http://creativecommons.org/ns#"
   xmlns:rdf="http://www.w3.org/1999/02/22-rdf-syntax-ns#"
   xmlns:svg="http://www.w3.org/2000/svg"
   xmlns="http://www.w3.org/2000/svg"
   xmlns:xlink="http://www.w3.org/1999/xlink"
   xmlns:sodipodi="http://sodipodi.sourceforge.net/DTD/sodipodi-0.dtd"
   xmlns:inkscape="http://www.inkscape.org/namespaces/inkscape"
   width="22"
   height="22"
   id="svg5318"
   version="1.1"
   inkscape:version="0.48.4 r9939"
   sodipodi:docname="folder-saved-search.svg">
  <defs
     id="defs5320">
    <clipPath
       clipPathUnits="userSpaceOnUse"
       id="clipPath11923">
      <path
         id="path11925"
         d="m 433,90 0,5 0,5 0,8 c 0,0 0,2 2,2 l 18,0 c 0,0 2,0 2,-2 l 0,-8 0,-5 0,-2 -8.25,0 C 444,93 444,90 441,90 l -8,0 z"
         style="font-size:medium;font-style:normal;font-variant:normal;font-weight:normal;font-stretch:normal;text-indent:0;text-align:start;text-decoration:none;line-height:normal;letter-spacing:normal;word-spacing:normal;text-transform:none;direction:ltr;block-progression:tb;writing-mode:lr-tb;text-anchor:start;baseline-shift:baseline;color:#000000;fill:#000000;fill-opacity:1;stroke:none;stroke-width:2;marker:none;visibility:visible;display:inline;overflow:visible;enable-background:accumulate;font-family:Sans;-inkscape-font-specification:Sans"
         inkscape:connector-curvature="0" />
    </clipPath>
    <linearGradient
       inkscape:collect="always"
       xlink:href="#linearGradient4968"
       id="linearGradient5281"
       gradientUnits="userSpaceOnUse"
       gradientTransform="matrix(0.38091417,0,0,0.38091417,-116.93905,-77.847007)"
       x1="364.75159"
       y1="230.62079"
       x2="364.75159"
       y2="288.37659" />
    <linearGradient
       id="linearGradient4968">
      <stop
         id="stop4970"
         offset="0"
         style="stop-color:#c198dc;stop-opacity:1;" />
      <stop
         style="stop-color:#9b75aa;stop-opacity:1;"
         offset="1"
         id="stop4972" />
    </linearGradient>
    <linearGradient
       inkscape:collect="always"
       xlink:href="#linearGradient11359"
       id="linearGradient5284"
       gradientUnits="userSpaceOnUse"
       gradientTransform="translate(-433,-76)"
       x1="437"
       y1="86.999718"
       x2="437"
       y2="96.999718" />
    <linearGradient
       id="linearGradient11359">
      <stop
         style="stop-color:#b59dc3;stop-opacity:1;"
         offset="0"
         id="stop11361" />
      <stop
         style="stop-color:#bd95ce;stop-opacity:1;"
         offset="1"
         id="stop11363" />
    </linearGradient>
    <linearGradient
       inkscape:collect="always"
       xlink:href="#linearGradient4511"
       id="linearGradient5610"
       x1="0"
       y1="0"
       x2="0"
       y2="48"
       gradientUnits="userSpaceOnUse" />
    <linearGradient
       id="linearGradient4511">
      <stop
         id="stop4513"
         offset="0"
         style="stop-color:#935d1d;stop-opacity:1;" />
      <stop
         id="stop4515"
         offset="1"
         style="stop-color:#b67841;stop-opacity:1;" />
    </linearGradient>
  </defs>
  <sodipodi:namedview
     id="base"
     pagecolor="#ffffff"
     bordercolor="#666666"
     borderopacity="1.0"
     inkscape:pageopacity="0.0"
     inkscape:pageshadow="2"
     inkscape:zoom="1"
     inkscape:cx="6.1643712"
     inkscape:cy="12.319247"
     inkscape:current-layer="layer1"
     showgrid="false"
     showborder="false"
     inkscape:grid-bbox="true"
     inkscape:document-units="px"
     inkscape:window-width="1364"
     inkscape:window-height="700"
     inkscape:window-x="0"
     inkscape:window-y="28"
     inkscape:window-maximized="1"
     inkscape:snap-bbox="true"
     inkscape:bbox-paths="true"
     inkscape:snap-bbox-edge-midpoints="false">
    <inkscape:grid
       type="xygrid"
       id="grid5326"
       empspacing="4"
       visible="true"
       enabled="true"
       snapvisiblegridlinesonly="true" />
  </sodipodi:namedview>
  <metadata
     id="metadata5323">
    <rdf:RDF>
      <cc:Work
         rdf:about="">
        <dc:format>image/svg+xml</dc:format>
        <dc:type
           rdf:resource="http://purl.org/dc/dcmitype/StillImage" />
        <dc:title></dc:title>
      </cc:Work>
    </rdf:RDF>
  </metadata>
  <g
     id="layer1"
     inkscape:label="Background"
     inkscape:groupmode="layer"
     transform="translate(0,-10)"
     style="display:inline">
    <path
       inkscape:connector-curvature="0"
       style="font-size:medium;font-style:normal;font-variant:normal;font-weight:normal;font-stretch:normal;text-indent:0;text-align:start;text-decoration:none;line-height:normal;letter-spacing:normal;word-spacing:normal;text-transform:none;direction:ltr;block-progression:tb;writing-mode:lr-tb;text-anchor:start;baseline-shift:baseline;color:#000000;fill:url(#linearGradient5284);fill-opacity:1;stroke:none;stroke-width:2;marker:none;visibility:visible;display:inline;overflow:visible;enable-background:accumulate;font-family:Sans;-inkscape-font-specification:Sans"
       d="m 0.5,11.49972 0,9 21,0 0,-6 -7.75,0 c -1.55682,0 -2.44251,-0.911477 -3.15625,-1.65625 C 9.88001,12.098697 9.33333,11.49972 8,11.49972 l -7.5,0 z"
       id="path11573" />
    <path
       inkscape:connector-curvature="0"
       style="font-size:medium;font-style:normal;font-variant:normal;font-weight:normal;font-stretch:normal;text-indent:0;text-align:start;text-decoration:none;line-height:normal;letter-spacing:normal;word-spacing:normal;text-transform:none;direction:ltr;block-progression:tb;writing-mode:lr-tb;text-anchor:start;baseline-shift:baseline;color:#000000;fill:url(#linearGradient5281);fill-opacity:1;fill-rule:nonzero;stroke:none;stroke-width:2;marker:none;visibility:visible;display:inline;overflow:visible;enable-background:accumulate;font-family:Sans;-inkscape-font-specification:Sans"
       d="m 0.5000016,16.49972 0,12.5 c 0,0 -0.003,0.40051 0.1875,0.78125 0.19037,0.38074 0.47917,0.71875 1.3125,0.71875 l 17.9999994,0 c 0,0 0.40051,0.003 0.78125,-0.1875 0.38074,-0.19037 0.71875,-0.47917 0.71875,-1.3125 l 0,-12.5 -20.9999994,0 z"
       id="path11602" />
    <path
       transform="translate(-433,-79.00028)"
       inkscape:connector-curvature="0"
       style="font-size:medium;font-style:normal;font-variant:normal;font-weight:normal;font-stretch:normal;text-indent:0;text-align:start;text-decoration:none;line-height:normal;letter-spacing:normal;word-spacing:normal;text-transform:none;direction:ltr;block-progression:tb;writing-mode:lr-tb;text-anchor:start;baseline-shift:baseline;opacity:0.81000000000000005;color:#000000;fill:none;stroke:#7b4f87;stroke-width:2;stroke-opacity:1;marker:none;visibility:visible;display:inline;overflow:visible;enable-background:accumulate;font-family:Sans;-inkscape-font-specification:Sans"
       d="m 433,90 0,5 0,5 0,8 c 0,0 0,2 2,2 l 18,0 c 0,0 2,0 2,-2 l 0,-8 0,-5 0,-2 -8.25,0 C 444,93 444,90 441,90 l -8,0 z"
       id="path11914"
       clip-path="url(#clipPath11923)" />
    <rect
       style="opacity:0.81000000000000005;color:#000000;fill:#7b4f87;fill-opacity:1;stroke:none;stroke-width:1;marker:none;visibility:visible;display:inline;overflow:visible;enable-background:accumulate"
       id="rect11946"
       width="20"
       height="1"
       x="1"
       y="15.999718" />
    <rect
       style="opacity:0.1;fill:#ffffff;fill-opacity:1;stroke:none;stroke-width:12;stroke-linecap:square;stroke-linejoin:round;stroke-miterlimit:4;stroke-opacity:1;stroke-dasharray:none"
       id="rect5385"
       width="20"
       height="1"
       x="1"
       y="7"
       transform="translate(0,10)" />
  </g>
  <g
     inkscape:groupmode="layer"
     id="layer2"
     inkscape:label="Symbol">
    <path
       id="path3857"
       d="m 10,9.00025 c -2.209139,0 -4,1.790861 -4,4 0,2.209139 1.790861,4 4,4 0.91749,0 1.762632,-0.324276 2.4375,-0.84375 l 0.21875,0.1875 3,3 0.34375,0.375 0.71875,-0.71875 -0.375,-0.34375 -3,-3 -0.1875,-0.21875 C 13.675724,14.762882 14,13.91774 14,13.00025 c 0,-2.209139 -1.790861,-4 -4,-4 z m 0,1 c 1.656854,0 3,1.343146 3,3 0,1.656854 -1.343146,3 -3,3 -1.6568542,0 -3,-1.343146 -3,-3 0,-1.656854 1.3431458,-3 3,-3 z"
       style="fill:#000000;fill-opacity:1;stroke:none;opacity:0.3"
       inkscape:connector-curvature="0" />
    <path
       style="opacity:1;fill:#ffffff;fill-opacity:1;stroke:none"
       d="M 10 8 C 7.790861 8 6 9.790861 6 12 C 6 14.209139 7.790861 16 10 16 C 10.91749 16 11.762632 15.675724 12.4375 15.15625 L 12.65625 15.34375 L 15.65625 18.34375 L 16 18.71875 L 16.71875 18 L 16.34375 17.65625 L 13.34375 14.65625 L 13.15625 14.4375 C 13.675724 13.762632 14 12.91749 14 12 C 14 9.790861 12.209139 8 10 8 z M 10 9 C 11.656854 9 13 10.343146 13 12 C 13 13.656854 11.656854 15 10 15 C 8.3431458 15 7 13.656854 7 12 C 7 10.343146 8.3431458 9 10 9 z "
       id="path3847" />
  </g>
</svg>
