<?xml version="1.0" encoding="UTF-8" standalone="no"?>
<!-- Created with Inkscape (http://www.inkscape.org/) -->

<svg
   xmlns:dc="http://purl.org/dc/elements/1.1/"
   xmlns:cc="http://creativecommons.org/ns#"
   xmlns:rdf="http://www.w3.org/1999/02/22-rdf-syntax-ns#"
   xmlns:svg="http://www.w3.org/2000/svg"
   xmlns="http://www.w3.org/2000/svg"
   xmlns:xlink="http://www.w3.org/1999/xlink"
   xmlns:sodipodi="http://sodipodi.sourceforge.net/DTD/sodipodi-0.dtd"
   xmlns:inkscape="http://www.inkscape.org/namespaces/inkscape"
   width="16px"
   height="16px"
   id="svg5400"
   version="1.1"
   inkscape:version="0.48.4 r9939"
   sodipodi:docname="folder-pictures.svg">
  <defs
     id="defs5402">
    <linearGradient
       inkscape:collect="always"
       xlink:href="#linearGradient6851"
       id="linearGradient7483"
       x1="1874"
       y1="-168.5"
       x2="1877"
       y2="-168.5"
       gradientUnits="userSpaceOnUse" />
    <linearGradient
       inkscape:collect="always"
       id="linearGradient6851">
      <stop
         style="stop-color:#ffffff;stop-opacity:1;"
         offset="0"
         id="stop6853" />
      <stop
         style="stop-color:#ffffff;stop-opacity:0;"
         offset="1"
         id="stop6855" />
    </linearGradient>
    <linearGradient
       inkscape:collect="always"
       xlink:href="#linearGradient6851"
       id="linearGradient7479"
       x1="1874"
       y1="-168.5"
       x2="1877"
       y2="-168.5"
       gradientUnits="userSpaceOnUse" />
    <linearGradient
       inkscape:collect="always"
       xlink:href="#linearGradient6851"
       id="linearGradient7481"
       x1="1874"
       y1="-168.5"
       x2="1877"
       y2="-168.5"
       gradientUnits="userSpaceOnUse" />
    <linearGradient
       gradientTransform="translate(-1872,176)"
       inkscape:collect="always"
       xlink:href="#linearGradient5621"
       id="linearGradient7465"
       x1="1888"
       y1="-160"
       x2="1888"
       y2="-176"
       gradientUnits="userSpaceOnUse" />
    <linearGradient
       id="linearGradient5621">
      <stop
         style="stop-color:#0b0b0b;stop-opacity:1"
         offset="0"
         id="stop5623" />
      <stop
         style="stop-color:#585858;stop-opacity:1"
         offset="1"
         id="stop5625" />
    </linearGradient>
  </defs>
  <sodipodi:namedview
     id="base"
     pagecolor="#ffffff"
     bordercolor="#666666"
     borderopacity="1.0"
     inkscape:pageopacity="0.0"
     inkscape:pageshadow="2"
     inkscape:zoom="1"
     inkscape:cx="8"
     inkscape:cy="8.0000028"
     inkscape:current-layer="layer1"
     showgrid="false"
     inkscape:grid-bbox="true"
     inkscape:document-units="px"
     inkscape:window-width="1364"
     inkscape:window-height="700"
     inkscape:window-x="0"
     inkscape:window-y="28"
     inkscape:window-maximized="1" />
  <metadata
     id="metadata5405">
    <rdf:RDF>
      <cc:Work
         rdf:about="">
        <dc:format>image/svg+xml</dc:format>
        <dc:type
           rdf:resource="http://purl.org/dc/dcmitype/StillImage" />
        <dc:title></dc:title>
      </cc:Work>
    </rdf:RDF>
  </metadata>
  <g
     id="layer1"
     inkscape:label="Layer 1"
     inkscape:groupmode="layer">
    <path
       inkscape:connector-curvature="0"
       style="color:#bebebe;fill:url(#linearGradient7465);fill-opacity:1;fill-rule:nonzero;stroke:none;stroke-width:4;marker:none;visibility:visible;display:inline;overflow:visible;enable-background:accumulate"
       d="M 11.5,-5.5610229e-6 C 10.1193,-5.5610229e-6 9,1.1192841 9,2.4999941 c 0,0.21842 0.041,0.42306 0.094,0.625 l -3.9688,2.46875 c -0.436,-0.37017 -1.0083,-0.59375 -1.625,-0.59375 -1.3807,0 -2.5,1.11929 -2.5,2.5 0,1.38071 1.1193,2.5 2.5,2.5 0.6167,0 1.189,-0.22358 1.625,-0.59375 L 9.094,11.874994 C 9.041,12.076934 9,12.281574 9,12.499994 c 0,1.38071 1.1193,2.5 2.5,2.5 1.3807,0 2.5,-1.11929 2.5,-2.5 0,-1.38071 -1.1193,-2.4999999 -2.5,-2.4999999 -0.6167,0 -1.189,0.2235799 -1.625,0.5937499 L 5.9062,8.1249941 c 0.053,-0.20194 0.094,-0.40658 0.094,-0.625 0,-0.21842 -0.041,-0.42306 -0.094,-0.625 l 3.9688,-2.46875 c 0.436,0.37017 1.0083,0.59375 1.625,0.59375 1.3807,0 2.5,-1.11929 2.5,-2.5 C 14,1.1192841 12.8807,-5.5610229e-6 11.5,-5.5610229e-6 z"
       id="path8436-3-3" />
    <path
       sodipodi:type="arc"
       style="opacity:0.6;fill:url(#linearGradient7481);fill-opacity:1;stroke:none;display:inline;enable-background:new"
       id="path7467"
       sodipodi:cx="1875.5"
       sodipodi:cy="-168.5"
       sodipodi:rx="1.5"
       sodipodi:ry="1.5"
       d="m 1877,-168.5 a 1.5,1.5 0 1 1 -3,0 1.5,1.5 0 1 1 3,0 z"
       transform="matrix(0,1,-1,0,-165,-1868)" />
    <path
       transform="matrix(0,1,-1,0,-157,-1873)"
       d="m 1877,-168.5 a 1.5,1.5 0 1 1 -3,0 1.5,1.5 0 1 1 3,0 z"
       sodipodi:ry="1.5"
       sodipodi:rx="1.5"
       sodipodi:cy="-168.5"
       sodipodi:cx="1875.5"
       id="path7469"
       style="opacity:0.6;fill:url(#linearGradient7479);fill-opacity:1;stroke:none;display:inline;enable-background:new"
       sodipodi:type="arc" />
    <path
       sodipodi:type="arc"
       style="opacity:0.6;fill:url(#linearGradient7483);fill-opacity:1;stroke:none;display:inline;enable-background:new"
       id="path7471"
       sodipodi:cx="1875.5"
       sodipodi:cy="-168.5"
       sodipodi:rx="1.5"
       sodipodi:ry="1.5"
       d="m 1877,-168.5 a 1.5,1.5 0 1 1 -3,0 1.5,1.5 0 1 1 3,0 z"
       transform="matrix(0,1,-1,0,-157,-1863)" />
  </g>
</svg>
