<?xml version="1.0" encoding="UTF-8" standalone="no"?>
<!-- Created with Inkscape (http://www.inkscape.org/) -->

<svg
   xmlns:dc="http://purl.org/dc/elements/1.1/"
   xmlns:cc="http://creativecommons.org/ns#"
   xmlns:rdf="http://www.w3.org/1999/02/22-rdf-syntax-ns#"
   xmlns:svg="http://www.w3.org/2000/svg"
   xmlns="http://www.w3.org/2000/svg"
   xmlns:xlink="http://www.w3.org/1999/xlink"
   xmlns:sodipodi="http://sodipodi.sourceforge.net/DTD/sodipodi-0.dtd"
   xmlns:inkscape="http://www.inkscape.org/namespaces/inkscape"
   width="16px"
   height="16px"
   id="svg5400"
   version="1.1"
   inkscape:version="0.48.4 r9939"
   sodipodi:docname="folder-open.svg">
  <defs
     id="defs5402">
    <clipPath
       clipPathUnits="userSpaceOnUse"
       id="clipPath11908-0">
      <path
         id="path11910-2"
         d="m 432,129 0,1 0,3 0,2 0,7.5 c 0,0 0,1.5 1.5,1.5 l 13,0 c 0,0 1.5,0 1.5,-1.5 l 0,-7.5 0,-2 0,-1 0,-1 -1,0 -5,0 c -0.66667,0 -0.78125,-0.21875 -1.28125,-0.71875 C 440.21875,129.78125 439.33333,129 438,129 l -5,0 -1,0 z"
         style="font-size:medium;font-style:normal;font-variant:normal;font-weight:normal;font-stretch:normal;text-indent:0;text-align:start;text-decoration:none;line-height:normal;letter-spacing:normal;word-spacing:normal;text-transform:none;direction:ltr;block-progression:tb;writing-mode:lr-tb;text-anchor:start;baseline-shift:baseline;color:#000000;fill:#4e9a06;fill-opacity:1;stroke:none;stroke-width:2;marker:none;visibility:visible;display:inline;overflow:visible;enable-background:accumulate;font-family:Sans;-inkscape-font-specification:Sans"
         inkscape:connector-curvature="0" />
    </clipPath>
    <linearGradient
       id="linearGradient11342-5">
      <stop
         style="stop-color:#ffffff;stop-opacity:1;"
         offset="0"
         id="stop11344-0" />
      <stop
         style="stop-color:#ffffff;stop-opacity:0;"
         offset="1"
         id="stop11346-0" />
    </linearGradient>
    <clipPath
       clipPathUnits="userSpaceOnUse"
       id="clipPath11561-9">
      <path
         style="font-size:medium;font-style:normal;font-variant:normal;font-weight:normal;font-stretch:normal;text-indent:0;text-align:start;text-decoration:none;line-height:normal;letter-spacing:normal;word-spacing:normal;text-transform:none;direction:ltr;block-progression:tb;writing-mode:lr-tb;text-anchor:start;baseline-shift:baseline;color:#000000;fill:url(#linearGradient11565);fill-opacity:1;fill-rule:nonzero;stroke:none;stroke-width:2;marker:none;visibility:visible;display:inline;overflow:visible;enable-background:accumulate;font-family:Sans;-inkscape-font-specification:Sans"
         d="m 432,128.99972 16,0 0,9.5 c 0,1.5 -1.5,1.5 -1.5,1.5 l -13,0 c -1.5,0 -1.5002,-1.5 -1.5002,-1.5 z"
         id="path11563-7"
         inkscape:connector-curvature="0"
         sodipodi:nodetypes="ccccccc" />
    </clipPath>
    <linearGradient
       id="linearGradient4968">
      <stop
         id="stop4970"
         offset="0"
         style="stop-color:#f1e6f4;stop-opacity:1;" />
      <stop
         style="stop-color:#c9bcce;stop-opacity:1;"
         offset="1"
         id="stop4972" />
    </linearGradient>
    <linearGradient
       id="linearGradient11359">
      <stop
         style="stop-color:#d5cbd7;stop-opacity:1;"
         offset="0"
         id="stop11361" />
      <stop
         style="stop-color:#d9bfdf;stop-opacity:1;"
         offset="1"
         id="stop11363" />
    </linearGradient>
    <linearGradient
       inkscape:collect="always"
       xlink:href="#linearGradient11359"
       id="linearGradient7396"
       gradientUnits="userSpaceOnUse"
       gradientTransform="translate(-432,-124)"
       x1="440"
       y1="126.99972"
       x2="440"
       y2="134" />
    <linearGradient
       inkscape:collect="always"
       xlink:href="#linearGradient4968"
       id="linearGradient7398"
       gradientUnits="userSpaceOnUse"
       gradientTransform="matrix(0.38091417,0,0,0.38091417,-116.93905,-87.84701)"
       x1="352"
       y1="227.99973"
       x2="352"
       y2="275.99973" />
    <linearGradient
       inkscape:collect="always"
       xlink:href="#linearGradient11342-5"
       id="linearGradient7400"
       gradientUnits="userSpaceOnUse"
       x1="440"
       y1="128.99973"
       x2="440"
       y2="135.99973" />
    <linearGradient
       inkscape:collect="always"
       xlink:href="#linearGradient11342-5"
       id="linearGradient7425"
       gradientUnits="userSpaceOnUse"
       x1="440"
       y1="128.99973"
       x2="440"
       y2="135.99973" />
  </defs>
  <sodipodi:namedview
     id="base"
     pagecolor="#ffffff"
     bordercolor="#666666"
     borderopacity="1.0"
     inkscape:pageopacity="0.0"
     inkscape:pageshadow="2"
     inkscape:zoom="1"
     inkscape:cx="29.009125"
     inkscape:cy="6.9361284"
     inkscape:current-layer="layer1"
     showgrid="false"
     showborder="false"
     inkscape:grid-bbox="true"
     inkscape:document-units="px"
     inkscape:window-width="1364"
     inkscape:window-height="700"
     inkscape:window-x="0"
     inkscape:window-y="28"
     inkscape:window-maximized="1">
    <inkscape:grid
       type="xygrid"
       id="grid7432"
       empspacing="5"
       visible="true"
       enabled="true"
       snapvisiblegridlinesonly="true" />
  </sodipodi:namedview>
  <metadata
     id="metadata5405">
    <rdf:RDF>
      <cc:Work
         rdf:about="">
        <dc:format>image/svg+xml</dc:format>
        <dc:type
           rdf:resource="http://purl.org/dc/dcmitype/StillImage" />
        <dc:title />
      </cc:Work>
    </rdf:RDF>
  </metadata>
  <g
     id="layer1"
     inkscape:label="Layer 1"
     inkscape:groupmode="layer">
    <path
       inkscape:connector-curvature="0"
       id="path4938-1"
       d="m 0.50000014,1.49972 0,0.5 0,6.5 14.99999986,0 0,-4.5 0,-0.5 -0.5,0 -5,0 c -0.3880199,0 -0.7106699,-0.0767 -0.9687499,-0.25 -0.25808,-0.17334 -0.41853,-0.38728 -0.65625,-0.625 -0.47545,-0.47545 -1.23698,-1.125 -2.375,-1.125 l -5,0 z"
       style="font-size:medium;font-style:normal;font-variant:normal;font-weight:normal;font-stretch:normal;text-indent:0;text-align:start;text-decoration:none;line-height:normal;letter-spacing:normal;word-spacing:normal;text-transform:none;direction:ltr;block-progression:tb;writing-mode:lr-tb;text-anchor:start;baseline-shift:baseline;color:#000000;fill:url(#linearGradient7396);fill-opacity:1;stroke:none;stroke-width:2;marker:none;visibility:visible;display:inline;overflow:visible;enable-background:accumulate;font-family:Sans;-inkscape-font-specification:Sans"
       sodipodi:nodetypes="cccccccscsscc" />
    <path
       inkscape:connector-curvature="0"
       id="path11441"
       d="m 0.50000014,7.49972 0,7 c 0,0 -0.003,0.27549 0.125,0.53125 0.12792,0.25576 0.29167,0.46875 0.87499996,0.46875 l 12.9999999,0 c 0,0 0.27551,0.003 0.53125,-0.125 C 15.28699,15.24685 15.5,15.08305 15.5,14.49972 l 0,-7 z"
       style="font-size:medium;font-style:normal;font-variant:normal;font-weight:normal;font-stretch:normal;text-indent:0;text-align:start;text-decoration:none;line-height:normal;letter-spacing:normal;word-spacing:normal;text-transform:none;direction:ltr;block-progression:tb;writing-mode:lr-tb;text-anchor:start;baseline-shift:baseline;color:#000000;fill:url(#linearGradient7398);fill-opacity:1;fill-rule:nonzero;stroke:none;stroke-width:2;marker:none;visibility:visible;display:inline;overflow:visible;enable-background:accumulate;font-family:Sans;-inkscape-font-specification:Sans"
       sodipodi:nodetypes="cccsccscc" />
    <path
       style="opacity:0.41000001;color:#000000;fill:#000000;fill-opacity:1;stroke:none;stroke-width:1;marker:none;visibility:visible;display:inline;overflow:visible;enable-background:accumulate"
       d="m 1,6.9997253 14,0 0,1 -14,0 z"
       id="rect11912"
       inkscape:connector-curvature="0"
       sodipodi:nodetypes="ccccc" />
    <path
       style="font-size:medium;font-style:normal;font-variant:normal;font-weight:normal;font-stretch:normal;text-indent:0;text-align:start;text-decoration:none;line-height:normal;letter-spacing:normal;word-spacing:normal;text-transform:none;direction:ltr;block-progression:tb;writing-mode:lr-tb;text-anchor:start;baseline-shift:baseline;opacity:0.41000001;color:#000000;fill:#000000;fill-opacity:1;stroke:none;stroke-width:2;marker:none;visibility:visible;display:inline;overflow:visible;enable-background:accumulate;font-family:Sans;-inkscape-font-specification:Sans"
       d="m 431,128 0,1 0,1 0,5 0,2 0,5.5 c 0,0 -0.0255,0.57399 0.28125,1.1875 0.30676,0.61351 1.13542,1.3125 2.21875,1.3125 l 13,0 c 0,0 0.57399,0.0255 1.1875,-0.28125 C 448.30101,144.41199 449,143.58333 449,142.5 l 0,-5.5 0,-2 0,-3 0,-1 0,-1 -1,0 -1,0 -5,0 c -0.22396,0 -0.14897,0.005 -0.15625,0 -0.007,-0.005 -0.1317,-0.16295 -0.40625,-0.4375 C 440.88839,129.01339 439.72396,128 438,128 l -5,0 -1,0 z m 2,2 5,0 c 0.9427,0 1.54911,0.54911 2,1 0.22545,0.22545 0.40832,0.42676 0.75,0.65625 C 441.09168,131.88574 441.55729,132 442,132 l 5,0 0,3 0,2 0,5.5 c 0,0.41667 -0.051,0.33801 -0.1875,0.40625 C 446.67601,142.97449 446.5,143 446.5,143 l -13,0 c -0.41667,0 -0.33801,-0.051 -0.40625,-0.1875 C 433.02551,142.67601 433,142.5 433,142.5 l 0,-5.5 0,-2 z"
       clip-path="url(#clipPath11908-0)"
       id="path11904"
       inkscape:connector-curvature="0"
       transform="translate(-432,-128.00028)"
       sodipodi:nodetypes="cccccccsccscccccccscssccccsssscccsccsccccc" />
    <path
       style="font-size:medium;font-style:normal;font-variant:normal;font-weight:normal;font-stretch:normal;text-indent:0;text-align:start;text-decoration:none;line-height:normal;letter-spacing:normal;word-spacing:normal;text-transform:none;direction:ltr;block-progression:tb;writing-mode:lr-tb;text-anchor:start;baseline-shift:baseline;color:#000000;fill:#ffffff;fill-opacity:1;fill-rule:nonzero;stroke:none;stroke-width:2;marker:none;visibility:visible;display:inline;overflow:visible;enable-background:accumulate;font-family:Sans;-inkscape-font-specification:Sans;stroke-opacity:1;opacity:0.1"
       d="M 1 8 L 1 9 L 15 9 L 15 8 L 1 8 z "
       id="path7434" />
  </g>
</svg>
