<?xml version="1.0" encoding="UTF-8" standalone="no"?>
<svg
   xmlns:osb="http://www.openswatchbook.org/uri/2009/osb"
   xmlns:dc="http://purl.org/dc/elements/1.1/"
   xmlns:cc="http://creativecommons.org/ns#"
   xmlns:rdf="http://www.w3.org/1999/02/22-rdf-syntax-ns#"
   xmlns:svg="http://www.w3.org/2000/svg"
   xmlns="http://www.w3.org/2000/svg"
   xmlns:sodipodi="http://sodipodi.sourceforge.net/DTD/sodipodi-0.dtd"
   xmlns:inkscape="http://www.inkscape.org/namespaces/inkscape"
   width="15.999999"
   version="1.1"
   style="enable-background:new"
   id="svg7384"
   height="16"
   inkscape:version="0.91 r"
   sodipodi:docname="application-certificate-symbolic.svg">
  <sodipodi:namedview
     pagecolor="#ffffff"
     bordercolor="#666666"
     borderopacity="1"
     objecttolerance="10"
     gridtolerance="10"
     guidetolerance="10"
     inkscape:pageopacity="0"
     inkscape:pageshadow="2"
     inkscape:window-width="739"
     inkscape:window-height="480"
     id="namedview23"
     showgrid="false"
     inkscape:zoom="14.75"
     inkscape:cx="4.7118639"
     inkscape:cy="8"
     inkscape:window-x="0"
     inkscape:window-y="27"
     inkscape:window-maximized="0"
     inkscape:current-layer="svg7384" />
  <metadata
     id="metadata90">
    <rdf:RDF>
      <cc:Work
         rdf:about="">
        <dc:format>image/svg+xml</dc:format>
        <dc:type
           rdf:resource="http://purl.org/dc/dcmitype/StillImage" />
        <dc:title>Moka Symbolic Icon Theme</dc:title>
      </cc:Work>
    </rdf:RDF>
  </metadata>
  <title
     id="title8473">Moka Symbolic Icon Theme</title>
  <defs
     id="defs7386">
    <linearGradient
       osb:paint="solid"
       id="linearGradient5606">
      <stop
         style="stop-color:#000000;stop-opacity:1;"
         offset="0"
         id="stop5608" />
    </linearGradient>
    <filter
       id="filter7554"
       color-interpolation-filters="sRGB">
      <feBlend
         mode="darken"
         in2="BackgroundImage"
         id="feBlend7556" />
    </filter>
  </defs>
  <path
     inkscape:connector-curvature="0"
     d="m 2,2 c -0.52358,5e-5 -0.99995,0.47642 -1,1 l 0,10 c 5e-5,0.52358 0.47642,0.99995 1,1 l 4,0 -2e-4,-1.99664 -3,0 0,-8 11,0 0,8 -2,0 L 12,14 l 3,0 c 0.51929,0 1,-0.43513 1,-1 L 16,3 C 16.00075,2.53337 15.56291,1.99978 15,2 Z"
     id="path1234-2"
     style="fill:#bebebe;fill-opacity:1;stroke:none" />
  <path
     inkscape:connector-curvature="0"
     d="m 8.71759,6.01328 a 3,3 0 0 0 -2.71875,3.0625 3.0000004,3.0000004 0 0 0 6,0 3,3 0 0 0 -3.28125,-3.0625 z m 0.28125,1 c 1.10457,0 2.00001,0.89543 2.00001,2 0,1.10457 -0.89544,2 -2.00001,2 -1.10457,0 -2,-0.89543 -2,-2 0,-1.10457 0.89543,-2 2,-2 z"
     id="path4136-5"
     style="fill:#bebebe;fill-opacity:1;fill-rule:nonzero;stroke:none" />
  <path
     inkscape:connector-curvature="0"
     d="m 6.9998,10.99998 0,5 1.2e-4,2e-5 2.00018,-2 1.99983,2 -1.3e-4,-2e-5 0,-5"
     id="path3655-4-1"
     style="fill:#bebebe;fill-opacity:1;fill-rule:evenodd;stroke:none" />
</svg>
