<?xml version="1.0" encoding="UTF-8" standalone="no"?>
<svg
   xmlns:osb="http://www.openswatchbook.org/uri/2009/osb"
   xmlns:dc="http://purl.org/dc/elements/1.1/"
   xmlns:cc="http://creativecommons.org/ns#"
   xmlns:rdf="http://www.w3.org/1999/02/22-rdf-syntax-ns#"
   xmlns:svg="http://www.w3.org/2000/svg"
   xmlns="http://www.w3.org/2000/svg"
   width="16.013054"
   version="1.1"
   style="enable-background:new"
   id="svg7384"
   height="16">
  <metadata
     id="metadata90">
    <rdf:RDF>
      <cc:Work
         rdf:about="">
        <dc:format>image/svg+xml</dc:format>
        <dc:type
           rdf:resource="http://purl.org/dc/dcmitype/StillImage" />
        <dc:title>Moka Symbolic Icon Theme</dc:title>
      </cc:Work>
    </rdf:RDF>
  </metadata>
  <title
     id="title8473">Moka Symbolic Icon Theme</title>
  <defs
     id="defs7386">
    <linearGradient
       osb:paint="solid"
       id="linearGradient5606">
      <stop
         style="stop-color:#000000;stop-opacity:1;"
         offset="0"
         id="stop5608" />
    </linearGradient>
    <filter
       id="filter7554"
       color-interpolation-filters="sRGB">
      <feBlend
         mode="darken"
         in2="BackgroundImage"
         id="feBlend7556" />
    </filter>
  </defs>
  <g
     transform="translate(-705.00035,307.00336)"
     style="display:inline"
     id="layer9" />
  <g
     transform="translate(-705.00035,307.00336)"
     style="display:inline;filter:url(#filter7554)"
     id="layer10" />
  <g
     transform="translate(-464.00015,-309.99664)"
     style="display:inline"
     id="layer1" />
  <g
     transform="translate(-705.00035,307.00336)"
     style="display:inline"
     id="layer14">
    <path
       style="font-size:medium;font-style:normal;font-variant:normal;font-weight:normal;font-stretch:normal;text-indent:0;text-align:start;text-decoration:none;line-height:normal;letter-spacing:normal;word-spacing:normal;text-transform:none;direction:ltr;block-progression:tb;writing-mode:lr-tb;text-anchor:start;baseline-shift:baseline;color:#000000;fill:#bebebe;fill-opacity:1;stroke:none;stroke-width:2;marker:none;visibility:visible;display:inline;overflow:visible;enable-background:accumulate;font-family:Sans;-inkscape-font-specification:Sans"
       id="path5856"
       d="m 706.00012,-305.99329 0,11 c 2e-5,0.83333 0.57399,1.50574 1.0625,1.75 0.48851,0.24436 0.9375,0.25 0.9375,0.25 l 11,0 c 0,0 0.44899,-0.006 0.9375,-0.25 0.48851,-0.24426 1.18035,-0.92505 1.0625,-1.75 l 0,-7 -12.03125,0 0.0313,6.49329 c -0.0164,0.2618 -0.26945,0.48511 -0.53125,0.46875 -0.2618,-0.0164 -0.48511,-0.26945 -0.46875,-0.53125 l -5e-5,-6.96204 c 0.01,-0.22281 0.18713,-0.42714 0.40625,-0.46875 0.0312,-0.003 0.0626,-0.003 0.0937,0 l 11.5,0 0,-1 -5.5,0 c -0.26389,-10e-5 -0.42709,-0.0542 -0.59375,-0.1875 -0.16666,-0.13333 -0.3125,-0.375 -0.5,-0.625 -0.1875,-0.25 -0.41666,-0.50833 -0.71875,-0.75 -0.30214,-0.24135 -0.70918,-0.3508 -1.1875,-0.4375 z" />
  </g>
  <g
     transform="translate(-705.00035,307.00336)"
     style="display:inline"
     id="layer15" />
  <g
     transform="translate(-705.00035,307.00336)"
     style="display:inline"
     id="g71291" />
  <g
     transform="translate(-464.00015,-159.99664)"
     style="display:inline"
     id="layer2" />
  <g
     transform="translate(-464.00015,-159.99664)"
     style="display:inline"
     id="g6058" />
  <g
     transform="translate(-705.00035,307.00336)"
     style="display:inline"
     id="layer12" />
</svg>
