<?xml version="1.0" encoding="UTF-8" standalone="no"?>
<svg xmlns="http://www.w3.org/2000/svg" xmlns:sodipodi="http://sodipodi.sourceforge.net/DTD/sodipodi-0.dtd" xmlns:inkscape="http://www.inkscape.org/namespaces/inkscape" version="1.0" width="24" height="24">
 <metadata id="metadata11"/>
 <path d="m 11,5 c -4.4159999,0 -8.0000002,3.5840001 -8,8 0,4.416 3.5840002,8 8,8 4.416,0 8,-3.584 8,-8 0,-4.4159999 -3.584,-7.9999998 -8,-8 z m 0,5 c 1.656,0 3,1.344 3,3 0,1.656 -1.344,3 -3,3 -1.656,0 -3,-1.344 -3,-3 10e-8,-1.656 1.344,-3 3,-3 z" id="path3170-4" inkscape:connector-curvature="0" opacity="0.2" fill-rule="evenodd"/>
 <path d="m 11,4 c -4.4159999,0 -8.0000002,3.5840001 -8,8 0,4.416 3.5840002,8 8,8 4.416,0 8,-3.584 8,-8 0,-4.4159999 -3.584,-7.9999998 -8,-8 z m 0,5 c 1.656,10e-8 3,1.344 3,3 0,1.656 -1.344,3 -3,3 -1.656,0 -3,-1.344 -3,-3 10e-8,-1.656 1.344,-3 3,-3 z" id="path3170" inkscape:connector-curvature="0" opacity="0.35" fill="#ffffff" fill-rule="evenodd"/>
 <path d="m 11,4 0,5 c 1.656,10e-8 3,1.344 3,3 0,1.656 -1.344,3 -3,3 -0.295765,0 -0.574348,-0.07591 -0.84375,-0.15625 L 8.5625,19.625 C 9.332845,19.872009 10.148169,20 11,20 c 4.416,0 8,-3.584 8,-8 0,-4.4159999 -3.584,-7.9999998 -8,-8 z" id="path3288" inkscape:connector-curvature="0" fill="#ffffff"/>
</svg>
