<?xml version="1.0" encoding="UTF-8" standalone="no"?>
<svg xmlns="http://www.w3.org/2000/svg" xmlns:xlink="http://www.w3.org/1999/xlink" xmlns:sodipodi="http://sodipodi.sourceforge.net/DTD/sodipodi-0.dtd" xmlns:inkscape="http://www.inkscape.org/namespaces/inkscape" version="1.1" width="48" height="48">
 <metadata id="metadata37"/>
 <defs id="defs3761">
  <linearGradient id="linearGradient4275">
   <stop id="stop4277" stop-color="#2b1a2c"/>
   <stop id="stop4279" offset="1" stop-color="#2f1c31"/>
  </linearGradient>
  <linearGradient id="linearGradient4157">
   <stop id="stop4159" stop-color="#ffeeea"/>
   <stop id="stop4161" offset="1" stop-color="#fff5ee"/>
  </linearGradient>
  <linearGradient id="linearGradient4127">
   <stop id="stop4129" stop-color="#8f2b12"/>
   <stop id="stop4131" offset="1" stop-color="#82461a"/>
  </linearGradient>
  <linearGradient inkscape:collect="always" xlink:href="#linearGradient4134" id="linearGradient4140" x1="789" x2="827" gradientUnits="userSpaceOnUse"/>
  <linearGradient inkscape:collect="always" id="linearGradient4134">
   <stop id="stop4136" stop-color="#ffffff"/>
   <stop offset="1" id="stop4138" stop-color="#ffffff" stop-opacity="0"/>
  </linearGradient>
  <clipPath id="clipPath4130">
   <path id="path4132" d="M 790.4375,237 C 789.62555,237 789,237.62555 789,238.4375 l 0,35.09375 c 0,0.812 0.62555,1.46875 1.4375,1.46875 l 35.125,0 c 0.81195,0 1.4375,-0.65675 1.4375,-1.46875 l 0,-35.09375 C 827,237.62555 826.37445,237 825.5625,237 l -35.125,0 z"/>
  </clipPath>
  <linearGradient id="linearGradient5618">
   <stop id="stop5620" stop-color="#3e3e3e"/>
   <stop offset="1" id="stop5622" stop-color="#595959"/>
  </linearGradient>
  <filter color-interpolation-filters="sRGB" inkscape:collect="always" id="filter4155">
   <feGaussianBlur inkscape:collect="always" stdDeviation="0.39" id="feGaussianBlur4157"/>
  </filter>
  <filter inkscape:collect="always" id="filter4023" x="-0.064" width="1.128" y="-0.995" height="2.991">
   <feGaussianBlur inkscape:collect="always" stdDeviation="1.0109" id="feGaussianBlur4025"/>
  </filter>
  <filter inkscape:collect="always" id="filter4033" x="-0.128" width="1.255" y="-1.991" height="4.982">
   <feGaussianBlur inkscape:collect="always" stdDeviation="2.0219" id="feGaussianBlur4035"/>
  </filter>
  <linearGradient inkscape:collect="always" xlink:href="#linearGradient3934" id="linearGradient3998" gradientUnits="userSpaceOnUse" gradientTransform="matrix(0,-1,1,0,68,556)" x1="292" x2="332"/>
  <linearGradient id="linearGradient3934">
   <stop id="stop3936" stop-color="#dd2f03"/>
   <stop offset="1" id="stop3938" stop-color="#e96300"/>
  </linearGradient>
  <linearGradient inkscape:collect="always" xlink:href="#outerBackgroundGradient-5-8" id="linearGradient3998-1" gradientUnits="userSpaceOnUse" gradientTransform="matrix(0,-1,1,0,68,556)" x1="292" x2="332"/>
  <linearGradient id="outerBackgroundGradient-5-8">
   <stop id="stop3864-8-6-7" stop-color="#4b384c"/>
   <stop offset="1" id="stop3866-9-1-1" stop-color="#615962"/>
  </linearGradient>
  <linearGradient inkscape:collect="always" xlink:href="#outerBackgroundGradient-0" id="linearGradient4343" gradientUnits="userSpaceOnUse" gradientTransform="matrix(0,-1,-1,0,-784,-980.3622)" x1="-1023.86" x2="-984.86"/>
  <linearGradient inkscape:collect="always" xlink:href="#linearGradient4163" id="linearGradient4347" gradientUnits="userSpaceOnUse" gradientTransform="matrix(0,-1,-1,0,-784,-980.3622)" x1="-1023.86" x2="-984.86"/>
  <linearGradient id="linearGradient4163">
   <stop id="stop4165" stop-color="#f55c11"/>
   <stop offset="0.5" id="stop4672" stop-color="#ff8431"/>
   <stop offset="1" id="stop4670" stop-color="#ee7d1a"/>
  </linearGradient>
  <linearGradient inkscape:collect="always" xlink:href="#outerBackgroundGradient-0" id="linearGradient4116" gradientUnits="userSpaceOnUse" gradientTransform="matrix(0,-1,1,0,68,556)" x1="292" x2="332"/>
  <linearGradient id="outerBackgroundGradient-0">
   <stop id="stop3864-8-6-9" stop-color="#3f3f3f"/>
   <stop id="stop4668" offset="0.5" stop-color="#595959"/>
   <stop id="stop4666" offset="0.5" stop-color="#3f3f3f"/>
   <stop offset="1" id="stop3866-9-1-6" stop-color="#595959"/>
  </linearGradient>
  <radialGradient inkscape:collect="always" xlink:href="#linearGradient3952" id="radialGradient4205" gradientUnits="userSpaceOnUse" gradientTransform="matrix(1.0571429,0,0,1.25,0.6,-10.875)" cx="40" cy="43.5" r="2"/>
  <linearGradient inkscape:collect="always" id="linearGradient3952">
   <stop id="stop3954"/>
   <stop offset="1" id="stop3956" stop-opacity="0"/>
  </linearGradient>
  <radialGradient inkscape:collect="always" xlink:href="#linearGradient3952" id="radialGradient4214" gradientUnits="userSpaceOnUse" gradientTransform="matrix(1,0,0,0.75,2,10.875)" cx="40" cy="43.5" r="2"/>
  <radialGradient inkscape:collect="always" xlink:href="#linearGradient3952" id="radialGradient4202" gradientUnits="userSpaceOnUse" gradientTransform="matrix(1.0571429,0,0,1.25,-4.4000003,-10.875)" cx="9" cy="43.5" r="2"/>
  <radialGradient inkscape:collect="always" xlink:href="#linearGradient3952" id="radialGradient4211" gradientUnits="userSpaceOnUse" gradientTransform="matrix(1,0,0,0.75,-3.0000003,10.875)" cx="9" cy="43.5" r="2"/>
  <linearGradient inkscape:collect="always" xlink:href="#linearGradient3960" id="linearGradient4208" gradientUnits="userSpaceOnUse" y1="45" x2="0" y2="42" gradientTransform="matrix(1.0571429,0,0,1.6666667,-5.4000003,-29)"/>
  <linearGradient id="linearGradient3960">
   <stop id="stop3962" stop-opacity="0"/>
   <stop id="stop3970" offset="0.5"/>
   <stop offset="1" id="stop3964" stop-opacity="0"/>
  </linearGradient>
  <linearGradient inkscape:collect="always" xlink:href="#linearGradient3960" id="linearGradient4217" gradientUnits="userSpaceOnUse" y1="45" x2="0" y2="42" gradientTransform="translate(-4.0000003,0)"/>
 </defs>
 <g inkscape:groupmode="layer" id="layer1" inkscape:label="Background">
  <path d="M 6.4375 4.5 C 5.3572 4.5 4.5 5.3572014 4.5 6.4375 L 4.5 24 L 4.5 41.5625 C 4.5 42.642799 5.3572 43.5 6.4375 43.5 L 24 43.5 L 24 24 L 43.5 24 L 43.5 6.4375 C 43.5 5.3572014 42.6428 4.5 41.5625 4.5 L 24 4.5 L 6.4375 4.5 z " id="path4341" fill="url(#linearGradient4343)"/>
  <path transform="matrix(0,1,-1,0,280,-784)" d="M 790.4375,237 C 789.62555,237 789,237.62555 789,238.4375 l 0,35.09375 c 0,0.812 0.62555,1.46875 1.4375,1.46875 l 35.125,0 c 0.81195,0 1.4375,-0.65675 1.4375,-1.46875 l 0,-35.09375 C 827,237.62555 826.37445,237 825.5625,237 l -35.125,0 z" id="path4128" clip-path="url(#clipPath4130)" inkscape:connector-curvature="0" opacity="0.1" fill="none" stroke="url(#linearGradient4140)" stroke-width="2"/>
  <path inkscape:connector-curvature="0" d="M 41.5625,43.5 C 42.6428,43.5 43.5,42.642799 43.5,41.5625 L 43.5,24 24,24 l 0,19.5 17.5625,0 z" id="path4345" fill="url(#linearGradient4347)"/>
  <path inkscape:connector-curvature="0" d="M 6.4375,5.00002 C 5.62555,5.00002 5,5.62557 5,6.43752 l 0,1 C 5,6.62557 5.62555,6.00002 6.4375,6.00002 l 35.125,0 c 0.81195,0 1.4375,0.62555 1.4375,1.4375 l 0,-1 c 0,-0.81195 -0.62555,-1.4375 -1.4375,-1.4375 l -35.125,0 z" id="rect4089-4" opacity="0.15" fill="#ffffff"/>
  <path id="path4105" d="M 6.4375,43.000017 C 5.62555,43.000017 5,42.374417 5,41.562517 L 5,40.56252 c 0,0.811897 0.62555,1.437497 1.4375,1.437497 l 35.125,0 c 0.81195,0 1.4375,-0.6256 1.4375,-1.437497 l 0,0.999997 c 0,0.8119 -0.62555,1.4375 -1.4375,1.4375 l -35.125,0 z" inkscape:connector-curvature="0" opacity="0.1" fill="#ffffff"/>
  <rect id="rect4085" width="39" height="39" x="-43.5" y="-43.5" transform="matrix(0,-1,-1,0,0,0)" rx="1.95" opacity="0.61" fill="none" stroke="#000000"/>
  <path d="M 23 5 L 23 23 L 5 23 L 5 24 L 23 24 L 23 43 L 24 43 L 24 24 L 43 24 L 43 23 L 24 23 L 24 5 L 23 5 z " id="rect4399" opacity="0.2"/>
  <path d="M 6.4375 5 C 5.62555 5 5 5.62555 5 6.4375 L 5 7.4375 L 5 23 L 6 23 L 6 6.4375 C 6 6.302175 6.0297803 6.1854363 6.0625 6.0625 C 6.1854363 6.0297803 6.302175 6 6.4375 6 L 23 6 L 23 5 L 7.4375 5 L 6.4375 5 z M 24 5 L 24 6 L 24 23 L 25 23 L 25 6 L 41.5625 6 C 42.37445 6 43 6.62555 43 7.4375 L 43 6.4375 C 43 5.62555 42.37445 5 41.5625 5 L 25 5 L 24 5 z M 5 24 L 5 25 L 5 41.5625 C 5 42.37445 5.62555 43 6.4375 43 L 7.4375 43 C 6.62555 43 6 42.37445 6 41.5625 L 6 25 L 23 25 L 23 24 L 6 24 L 5 24 z M 24 24 L 24 43 L 25 43 L 25 25 L 43 25 L 43 24 L 24 24 z " id="path4404" opacity="0.2" fill="#ffffff"/>
  <g id="g3111">
   <path d="m 42.885716,41.000001 0,5 0.528571,0 c 0.878486,0 1.585715,-1.115 1.585715,-2.5 0,-1.385 -0.707229,-2.5 -1.585715,-2.5 l -0.528571,0 z" id="path3987" inkscape:connector-curvature="0" opacity="0.12" fill="url(#radialGradient4205)"/>
   <path inkscape:connector-curvature="0" id="rect3940" d="m 42,42 0,3 0.5,0 C 43.331,45 44,44.331 44,43.5 44,42.669 43.331,42 42.5,42 L 42,42 z" opacity="0.12" fill="url(#radialGradient4214)"/>
   <path d="M 4.4866072,41.000001 C 3.6630268,41.000001 3,42.045313 3,43.343751 l 0,0.3125 c 0,1.298439 0.6630268,2.34375 1.4866072,2.34375 l 0.6276786,0 0,-5 -0.6276786,0 z" id="path3989" inkscape:connector-curvature="0" opacity="0.12" fill="url(#radialGradient4202)"/>
   <path inkscape:connector-curvature="0" id="rect3942" d="m 5.4062497,42 c -0.7790625,0 -1.40625,0.627187 -1.40625,1.40625 l 0,0.1875 c 0,0.779063 0.6271875,1.40625 1.40625,1.40625 l 0.59375,0 0,-3 -0.59375,0 z" opacity="0.12" fill="url(#radialGradient4211)"/>
   <path sodipodi:nodetypes="ccccc" inkscape:connector-curvature="0" id="rect3985" d="m 5.1141432,41 37.7717148,0 0,5 -37.7717148,0 z" opacity="0.12" fill="url(#linearGradient4208)"/>
   <path sodipodi:nodetypes="ccccc" inkscape:connector-curvature="0" id="rect3938" d="m 5.9998568,42 36.0002842,0 0,3 -36.0002842,0 z" opacity="0.12" fill="url(#linearGradient4217)"/>
  </g>
 </g>
 <g inkscape:groupmode="layer" id="layer2" inkscape:label="Symbol">
  <path sodipodi:nodetypes="ccccccccccccc" d="m 30,35 0,2 1,0 2,0 2,0 1,0 2,0 0,-2 -2,0 -1,0 -2,0 -1,0 z" id="path4266" inkscape:connector-curvature="0" opacity="0.2"/>
  <path inkscape:connector-curvature="0" id="path4269" d="m 30,31 0,2 1,0 2,0 2,0 1,0 2,0 0,-2 -2,0 -1,0 -2,0 -1,0 z" sodipodi:nodetypes="ccccccccccccc" opacity="0.2"/>
  <path inkscape:connector-curvature="0" id="path4271" d="m 38,14 0,2 -8,0 0,-2 z" sodipodi:nodetypes="ccccc" opacity="0.2"/>
  <path d="m 13,14 0,-3 2,0 0,3 3,0 0,2 -3,0 0,3 -2,0 0,-3 -3,0 0,-2 z" id="path4273" inkscape:connector-curvature="0" sodipodi:nodetypes="ccccccccccccc" opacity="0.2"/>
  <path inkscape:connector-curvature="0" id="path4275" d="m 10,30 0,1 c 0,0.27614 0.10028,0.53778 0.28125,0.71875 L 12.5625,34 10.28125,36.28125 C 10.10028,36.46222 10,36.72386 10,37 l 0,1 1,0 c 0.27614,0 0.53778,-0.10028 0.71875,-0.28125 L 14,35.4375 16.28125,37.71875 C 16.46222,37.89972 16.72386,38 17,38 l 1,0 0,-1 c 0,-0.27614 -0.10028,-0.53778 -0.28125,-0.71875 L 15.4375,34 17.71875,31.71875 C 17.89972,31.53778 18,31.27614 18,31 l 0,-1 -1,0 c -0.27614,0 -0.53778,0.10028 -0.71875,0.28125 L 14,32.5625 11.71875,30.28125 C 11.53778,30.10028 11.27614,30 11,30 l -1,0 z" opacity="0.2" color="#000000" stroke-width="2"/>
  <path inkscape:connector-curvature="0" id="path4086" d="m 30,34 0,2 1,0 2,0 2,0 1,0 2,0 0,-2 -2,0 -1,0 -2,0 -1,0 z" sodipodi:nodetypes="ccccccccccccc" fill="#ffffff"/>
  <path sodipodi:nodetypes="ccccccccccccc" d="m 30,30 0,2 1,0 2,0 2,0 1,0 2,0 0,-2 -2,0 -1,0 -2,0 -1,0 z" id="path4118" inkscape:connector-curvature="0" fill="#ffffff"/>
  <path sodipodi:nodetypes="ccccc" d="m 38,13 0,2 -8,0 0,-2 z" id="path4074" inkscape:connector-curvature="0" fill="#ffffff"/>
  <path sodipodi:nodetypes="ccccccccccccc" inkscape:connector-curvature="0" id="path1080" d="m 13,13 0,-3 2,0 0,3 3,0 0,2 -3,0 0,3 -2,0 0,-3 -3,0 0,-2 z" fill="#ffffff"/>
  <path d="m 10,29 0,1 c 0,0.27614 0.10028,0.53778 0.28125,0.71875 L 12.5625,33 10.28125,35.28125 C 10.10028,35.46222 10,35.72386 10,36 l 0,1 1,0 c 0.27614,0 0.53778,-0.10028 0.71875,-0.28125 L 14,34.4375 16.28125,36.71875 C 16.46222,36.89972 16.72386,37 17,37 l 1,0 0,-1 c 0,-0.27614 -0.10028,-0.53778 -0.28125,-0.71875 L 15.4375,33 17.71875,30.71875 C 17.89972,30.53778 18,30.27614 18,30 l 0,-1 -1,0 c -0.27614,0 -0.53778,0.10028 -0.71875,0.28125 L 14,31.5625 11.71875,29.28125 C 11.53778,29.10028 11.27614,29 11,29 l -1,0 z" id="path3346" inkscape:connector-curvature="0" color="#000000" stroke-width="2" fill="#ffffff"/>
 </g>
</svg>
