<?xml version="1.0" encoding="UTF-8" standalone="no"?>
<svg
   xmlns:dc="http://purl.org/dc/elements/1.1/"
   xmlns:cc="http://creativecommons.org/ns#"
   xmlns:rdf="http://www.w3.org/1999/02/22-rdf-syntax-ns#"
   xmlns:svg="http://www.w3.org/2000/svg"
   xmlns="http://www.w3.org/2000/svg"
   xmlns:xlink="http://www.w3.org/1999/xlink"
   id="svg3759"
   height="48"
   width="48"
   version="1.1">
  <metadata
     id="metadata37">
    <rdf:RDF>
      <cc:Work
         rdf:about="">
        <dc:format>image/svg+xml</dc:format>
        <dc:type
           rdf:resource="http://purl.org/dc/dcmitype/StillImage" />
        <dc:title />
      </cc:Work>
    </rdf:RDF>
  </metadata>
  <defs
     id="defs3761">
    <linearGradient
       id="linearGradient4118">
      <stop
         style="stop-color:#dddddd;stop-opacity:1;"
         offset="0"
         id="stop4120" />
      <stop
         id="stop4122"
         offset="0.1410252"
         style="stop-color:#e2e2e2;stop-opacity:1;" />
      <stop
         id="stop4124"
         offset="0.1410252"
         style="stop-color:#f0f0f0;stop-opacity:1;" />
      <stop
         style="stop-color:#e6e6e6;stop-opacity:1"
         offset="1"
         id="stop4126" />
    </linearGradient>
    <linearGradient
       gradientUnits="userSpaceOnUse"
       y2="256"
       x2="827"
       y1="256"
       x1="789"
       id="linearGradient4140"
       xlink:href="#linearGradient4134" />
    <linearGradient
       id="linearGradient4134">
      <stop
         id="stop4136"
         offset="0"
         style="stop-color:#ffffff;stop-opacity:1;" />
      <stop
         id="stop4138"
         offset="1"
         style="stop-color:#ffffff;stop-opacity:0;" />
    </linearGradient>
    <clipPath
       id="clipPath4130"
       clipPathUnits="userSpaceOnUse">
      <path
         style="fill:#ba2222;fill-opacity:1;stroke:none"
         d="M 790.4375,237 C 789.62555,237 789,237.62555 789,238.4375 l 0,35.09375 c 0,0.812 0.62555,1.46875 1.4375,1.46875 l 35.125,0 c 0.81195,0 1.4375,-0.65675 1.4375,-1.46875 l 0,-35.09375 C 827,237.62555 826.37445,237 825.5625,237 l -35.125,0 z"
         id="path4132" />
    </clipPath>
    <linearGradient
       y2="-808"
       x2="-984.86218"
       y1="-808"
       x1="-1023.8622"
       gradientTransform="matrix(0,-1,-1,0,-784,-980.3622)"
       gradientUnits="userSpaceOnUse"
       id="linearGradient3877"
       xlink:href="#linearGradient4118" />
    <radialGradient
       r="2"
       fy="43.5"
       fx="40"
       cy="43.5"
       cx="40"
       gradientTransform="matrix(1.0571429,0,0,1.25,0.6,-10.875)"
       gradientUnits="userSpaceOnUse"
       id="radialGradient4205"
       xlink:href="#linearGradient3952" />
    <linearGradient
       id="linearGradient3952">
      <stop
         id="stop3954"
         offset="0"
         style="stop-color:#000000;stop-opacity:1;" />
      <stop
         id="stop3956"
         offset="1"
         style="stop-color:#000000;stop-opacity:0;" />
    </linearGradient>
    <radialGradient
       r="2"
       fy="43.5"
       fx="40"
       cy="43.5"
       cx="40"
       gradientTransform="matrix(1,0,0,0.75,2,10.875)"
       gradientUnits="userSpaceOnUse"
       id="radialGradient4214"
       xlink:href="#linearGradient3952" />
    <radialGradient
       r="2"
       fy="43.5"
       fx="9"
       cy="43.5"
       cx="9"
       gradientTransform="matrix(1.0571429,0,0,1.25,-4.4000003,-10.875)"
       gradientUnits="userSpaceOnUse"
       id="radialGradient4202"
       xlink:href="#linearGradient3944" />
    <linearGradient
       id="linearGradient3944">
      <stop
         id="stop3946"
         offset="0"
         style="stop-color:#000000;stop-opacity:1;" />
      <stop
         id="stop3948"
         offset="1"
         style="stop-color:#000000;stop-opacity:0;" />
    </linearGradient>
    <radialGradient
       r="2"
       fy="43.5"
       fx="9"
       cy="43.5"
       cx="9"
       gradientTransform="matrix(1,0,0,0.75,-3.0000003,10.875)"
       gradientUnits="userSpaceOnUse"
       id="radialGradient4211"
       xlink:href="#linearGradient3944" />
    <linearGradient
       gradientTransform="matrix(1.0571429,0,0,1.6666667,-5.4000003,-29)"
       y2="42"
       x2="25"
       y1="45"
       x1="25"
       gradientUnits="userSpaceOnUse"
       id="linearGradient4208"
       xlink:href="#linearGradient3960" />
    <linearGradient
       id="linearGradient3960">
      <stop
         id="stop3962"
         offset="0"
         style="stop-color:#000000;stop-opacity:0;" />
      <stop
         style="stop-color:#000000;stop-opacity:1;"
         offset="0.5"
         id="stop3970" />
      <stop
         id="stop3964"
         offset="1"
         style="stop-color:#000000;stop-opacity:0;" />
    </linearGradient>
    <linearGradient
       xlink:href="#linearGradient3960"
       id="linearGradient3172"
       gradientUnits="userSpaceOnUse"
       gradientTransform="translate(-4.0000003,0)"
       x1="25"
       y1="45"
       x2="25"
       y2="42" />
  </defs>
  <g
     id="layer1">
    <g
       id="g3111">
      <path
         id="path3987"
         d="m 42.885716,41.000001 0,5 0.528571,0 c 0.878486,0 1.585715,-1.115 1.585715,-2.5 0,-1.385 -0.707229,-2.5 -1.585715,-2.5 l -0.528571,0 z"
         style="opacity:0.12000002;fill:url(#radialGradient4205);fill-opacity:1;stroke:none" />
      <path
         style="opacity:0.12000002;fill:url(#radialGradient4214);fill-opacity:1;stroke:none"
         d="m 42,42 0,3 0.5,0 C 43.331,45 44,44.331 44,43.5 44,42.669 43.331,42 42.5,42 L 42,42 z"
         id="rect3940" />
      <path
         id="path3989"
         d="M 4.4866072,41.000001 C 3.6630268,41.000001 3,42.045313 3,43.343751 l 0,0.3125 c 0,1.298439 0.6630268,2.34375 1.4866072,2.34375 l 0.6276786,0 0,-5 -0.6276786,0 z"
         style="opacity:0.12000002;fill:url(#radialGradient4202);fill-opacity:1;stroke:none" />
      <path
         style="opacity:0.12000002;fill:url(#radialGradient4211);fill-opacity:1;stroke:none"
         d="m 5.4062497,42 c -0.7790625,0 -1.40625,0.627187 -1.40625,1.40625 l 0,0.1875 c 0,0.779063 0.6271875,1.40625 1.40625,1.40625 l 0.59375,0 0,-3 -0.59375,0 z"
         id="rect3942" />
      <path
         style="opacity:0.12000002;fill:url(#linearGradient4208);fill-opacity:1;stroke:none"
         d="m 5.1141432,41 37.7717148,0 0,5 -37.7717148,0 z"
         id="rect3985" />
      <path
         style="opacity:0.12000002;fill:url(#linearGradient3172);fill-opacity:1;stroke:none"
         d="m 5.9998568,42 36.0002842,0 0,3 -36.0002842,0 z"
         id="rect3938" />
    </g>
    <path
       id="rect4073"
       d="m 6.437499,5 c -0.811949,0 -1.4375,0.6255532 -1.4375,1.4375 l 0,35.125 c 0,0.811947 0.625551,1.4375 1.4375,1.4375 l 35.125,0 c 0.811949,0 1.4375,-0.625553 1.4375,-1.4375 l 0,-35.125 C 42.999999,5.6255532 42.374448,5 41.562499,5 l -35.125,0 z"
       style="fill:url(#linearGradient3877);fill-opacity:1;stroke:none;display:inline" />
    <rect
       rx="1.9499974"
       ry="1.95"
       transform="matrix(0,-1,-1,0,0,0)"
       y="-43.5"
       x="-43.5"
       height="39"
       width="39"
       id="rect4085"
       style="opacity:0.41;fill:none;stroke:#000000;stroke-opacity:1;display:inline" />
    <path
       id="rect4089-4"
       d="M 6.4375,5.00002 C 5.62555,5.00002 5,5.62557 5,6.43752 l 0,1 C 5,6.62557 5.62555,6.00002 6.4375,6.00002 l 35.125,0 c 0.81195,0 1.4375,0.62555 1.4375,1.4375 l 0,-1 c 0,-0.81195 -0.62555,-1.4375 -1.4375,-1.4375 l -35.125,0 z"
       style="opacity:0.14999999999999999;fill:#ffffff;fill-opacity:1;stroke:none;display:inline" />
    <path
       clip-path="url(#clipPath4130)"
       id="path4128"
       d="M 790.4375,237 C 789.62555,237 789,237.62555 789,238.4375 l 0,35.09375 c 0,0.812 0.62555,1.46875 1.4375,1.46875 l 35.125,0 c 0.81195,0 1.4375,-0.65675 1.4375,-1.46875 l 0,-35.09375 C 827,237.62555 826.37445,237 825.5625,237 l -35.125,0 z"
       style="opacity:0.10000000000000001;fill:none;stroke:url(#linearGradient4140);stroke-width:2;stroke-miterlimit:4;stroke-opacity:1;stroke-dasharray:none;display:inline"
       transform="matrix(0,1,-1,0,280,-784)" />
    <path
       style="opacity:0.10000000000000001;fill:#ffffff;fill-opacity:1;stroke:none;display:inline"
       d="M 6.4375,43.000017 C 5.62555,43.000017 5,42.374417 5,41.562517 L 5,40.56252 c 0,0.811897 0.62555,1.437497 1.4375,1.437497 l 35.125,0 c 0.81195,0 1.4375,-0.6256 1.4375,-1.437497 l 0,0.999997 c 0,0.8119 -0.62555,1.4375 -1.4375,1.4375 l -35.125,0 z"
       id="path4105" />
    <rect
       ry="1"
       rx="0"
       y="38"
       x="5"
       height="1"
       width="38"
       id="rect4128"
       style="opacity:0.5;fill:#ffffff;fill-opacity:1;stroke:none" />
  </g>
  <g
     id="layer2">
    <g
       transform="translate(0,0.999999)"
       style="font-size:20.47999954000000145px;font-style:normal;font-variant:normal;font-weight:normal;font-stretch:normal;line-height:125%;letter-spacing:0px;word-spacing:0px;fill:#ffffff;fill-opacity:1;stroke:none;font-family:Clear Sans;-inkscape-font-specification:Clear Sans;opacity:0.3"
       id="g4139">
      <path
         d="m 17.28,25.065001 0,-1.31 c -0.533341,0.466667 -1.070007,0.853333 -1.61,1.16 -0.540006,0.306666 -1.150005,0.459999 -1.83,0.46 -1.000003,-1e-6 -1.773336,-0.303334 -2.32,-0.91 -0.540002,-0.613333 -0.810001,-1.396665 -0.81,-2.35 -1e-6,-0.719997 0.139999,-1.316663 0.42,-1.79 0.286665,-0.479995 0.696664,-0.856661 1.23,-1.13 0.539997,-0.279994 1.319996,-0.479994 2.34,-0.6 l 2.58,-0.23 0,-0.51 c -8e-6,-0.806659 -0.226674,-1.356658 -0.68,-1.65 -0.446673,-0.293324 -1.066673,-0.439991 -1.86,-0.44 -0.706671,9e-6 -1.253337,0.123342 -1.64,0.37 -0.380003,0.246675 -0.653336,0.513341 -0.82,0.8 l -1.41,-0.86 c 0.319998,-0.579991 0.806664,-1.023324 1.46,-1.33 0.659996,-0.313323 1.476662,-0.469989 2.45,-0.47 1.50666,1.1e-5 2.586659,0.273344 3.24,0.82 0.653324,0.546676 0.97999,1.493342 0.98,2.84 l 0,7.13 -1.72,0 m 0,-5.32 -1.68,0.16 c -1.140005,0.100005 -1.943338,0.323338 -2.41,0.67 -0.46667,0.340004 -0.700003,0.840003 -0.7,1.5 -3e-6,0.626669 0.156663,1.076668 0.47,1.35 0.313329,0.273334 0.783329,0.410001 1.41,0.41 0.259995,1e-6 0.516661,-0.04667 0.77,-0.14 0.253327,-0.1 0.503327,-0.219999 0.75,-0.36 0.24666,-0.146665 0.483326,-0.309998 0.71,-0.49 0.233326,-0.186665 0.459992,-0.366664 0.68,-0.54 l 0,-2.56 m -2.31,-6.76 -2.73,-3.6100001 2.36,0 1.78,3.6100001 -1.41,0"
         style="fill:#ffffff;fill-opacity:1"
         id="path4141" />
    </g>
    <g
       id="text4130"
       style="font-size:20.47999954px;font-style:normal;font-variant:normal;font-weight:normal;font-stretch:normal;line-height:125%;letter-spacing:0px;word-spacing:0px;fill:#666666;fill-opacity:1;stroke:none;font-family:Clear Sans;-inkscape-font-specification:Clear Sans">
      <path
         id="path4137"
         style=""
         d="m 17.28,25.065001 0,-1.31 c -0.533341,0.466667 -1.070007,0.853333 -1.61,1.16 -0.540006,0.306666 -1.150005,0.459999 -1.83,0.46 -1.000003,-1e-6 -1.773336,-0.303334 -2.32,-0.91 -0.540002,-0.613333 -0.810001,-1.396665 -0.81,-2.35 -1e-6,-0.719997 0.139999,-1.316663 0.42,-1.79 0.286665,-0.479995 0.696664,-0.856661 1.23,-1.13 0.539997,-0.279994 1.319996,-0.479994 2.34,-0.6 l 2.58,-0.23 0,-0.51 c -8e-6,-0.806659 -0.226674,-1.356658 -0.68,-1.65 -0.446673,-0.293324 -1.066673,-0.439991 -1.86,-0.44 -0.706671,9e-6 -1.253337,0.123342 -1.64,0.37 -0.380003,0.246675 -0.653336,0.513341 -0.82,0.8 l -1.41,-0.86 c 0.319998,-0.579991 0.806664,-1.023324 1.46,-1.33 0.659996,-0.313323 1.476662,-0.469989 2.45,-0.47 1.50666,1.1e-5 2.586659,0.273344 3.24,0.82 0.653324,0.546676 0.97999,1.493342 0.98,2.84 l 0,7.13 -1.72,0 m 0,-5.32 -1.68,0.16 c -1.140005,0.100005 -1.943338,0.323338 -2.41,0.67 -0.46667,0.340004 -0.700003,0.840003 -0.7,1.5 -3e-6,0.626669 0.156663,1.076668 0.47,1.35 0.313329,0.273334 0.783329,0.410001 1.41,0.41 0.259995,1e-6 0.516661,-0.04667 0.77,-0.14 0.253327,-0.1 0.503327,-0.219999 0.75,-0.36 0.24666,-0.146665 0.483326,-0.309998 0.71,-0.49 0.233326,-0.186665 0.459992,-0.366664 0.68,-0.54 l 0,-2.56 m -2.31,-6.76 -2.73,-3.6100001 2.36,0 1.78,3.6100001 -1.41,0" />
    </g>
  </g>
</svg>
