<?xml version="1.0" encoding="UTF-8" standalone="no"?>
<svg xmlns="http://www.w3.org/2000/svg" xmlns:xlink="http://www.w3.org/1999/xlink" xmlns:sodipodi="http://sodipodi.sourceforge.net/DTD/sodipodi-0.dtd" xmlns:inkscape="http://www.inkscape.org/namespaces/inkscape" version="1.1" width="48" height="48">
 <metadata id="metadata37"/>
 <defs id="defs3761">
  <linearGradient id="linearGradient3810">
   <stop id="stop3812" stop-color="#4cc7e0"/>
   <stop offset="1" id="stop3814" stop-color="#2061be"/>
  </linearGradient>
  <linearGradient id="linearGradient3988">
   <stop id="stop3990" stop-color="#eeeeec"/>
   <stop offset="1" id="stop3992" stop-color="#ffffff"/>
  </linearGradient>
  <radialGradient inkscape:collect="always" xlink:href="#linearGradient26113-9-3-1" id="radialGradient3755" gradientUnits="userSpaceOnUse" gradientTransform="matrix(1,0,0,0.37,0,24.5124)" cx="24.85" cy="38.909" r="20.2"/>
  <linearGradient inkscape:collect="always" id="linearGradient26113-9-3-1">
   <stop id="stop26115-7-7-9" stop-color="#000000"/>
   <stop offset="1" id="stop26117-3-7-8" stop-color="#000000" stop-opacity="0"/>
  </linearGradient>
  <radialGradient r="20.2" cy="38.909" cx="24.85" gradientTransform="matrix(1.00851,0,0,0.373148,-0.211403,24.39)" gradientUnits="userSpaceOnUse" id="radialGradient4274" xlink:href="#linearGradient26113-9-3-1" inkscape:collect="always"/>
  <linearGradient id="outerBackgroundGradient-4">
   <stop id="stop3864-8-6-31" stop-color="#ffcb3d"/>
   <stop offset="1" id="stop3866-9-1-8" stop-color="#ffee87"/>
  </linearGradient>
  <linearGradient inkscape:collect="always" xlink:href="#outerBackgroundGradient-0" id="linearGradient3874" gradientUnits="userSpaceOnUse" gradientTransform="matrix(0,-1,-1,0,48.000003,48.000003)" x1="4.5" x2="43.5"/>
  <linearGradient inkscape:collect="always" xlink:href="#linearGradient4073" id="linearGradient4070" gradientUnits="userSpaceOnUse" gradientTransform="matrix(0,-1,1,0,5.0000306e-7,32)" x1="1" x2="31"/>
  <linearGradient id="linearGradient4073">
   <stop id="stop4075" stop-color="#323232"/>
   <stop id="stop4077" offset="1" stop-color="#5a5a5a"/>
  </linearGradient>
  <linearGradient inkscape:collect="always" xlink:href="#linearGradient3904" id="linearGradient3899" x1="4" x2="44" gradientUnits="userSpaceOnUse" gradientTransform="matrix(0,-1,1,0,3.1e-6,48.000003)"/>
  <radialGradient inkscape:collect="always" xlink:href="#linearGradient3901" id="radialGradient3805" gradientUnits="userSpaceOnUse" gradientTransform="matrix(4.5367027e-8,-1.7632481,-1.8653063,0,31.761486,43.251051)" cx="6.16" cy="8.45" r="20"/>
  <linearGradient id="linearGradient3901">
   <stop id="stop3903" stop-color="#d2d2d2"/>
   <stop offset="1" id="stop3905" stop-color="#ffffff"/>
  </linearGradient>
  <linearGradient id="linearGradient3904">
   <stop id="stop3906" stop-color="#234683"/>
   <stop id="stop3908" offset="1" stop-color="#30589e"/>
  </linearGradient>
  <radialGradient inkscape:collect="always" xlink:href="#outerBackgroundGradient" id="radialGradient3805-1" gradientUnits="userSpaceOnUse" gradientTransform="matrix(4.5367027e-8,-1.7632481,-1.8653063,0,31.761486,43.251051)" cx="6.16" cy="8.45" r="20"/>
  <linearGradient id="outerBackgroundGradient">
   <stop id="stop3864-8-6" stop-color="#1450b9"/>
   <stop offset="1" id="stop3866-9-1" stop-color="#5187e6"/>
  </linearGradient>
  <linearGradient inkscape:collect="always" xlink:href="#outerBackgroundGradient-0" id="linearGradient4262" x1="292" x2="332" gradientUnits="userSpaceOnUse" gradientTransform="matrix(0,-1,1,0,68,556)"/>
  <linearGradient id="outerBackgroundGradient-0">
   <stop id="stop3864-8-6-3" stop-color="#1c6aba"/>
   <stop offset="1" id="stop3866-9-1-7" stop-color="#4195ec"/>
  </linearGradient>
  <linearGradient x2="332" x1="292" gradientTransform="matrix(0,-1,1,0,-149,343)" gradientUnits="userSpaceOnUse" id="linearGradient3088" xlink:href="#outerBackgroundGradient-0" inkscape:collect="always"/>
  <radialGradient inkscape:collect="always" xlink:href="#radialGradient4793" id="radialGradient3518" gradientUnits="userSpaceOnUse" gradientTransform="matrix(0,1.4794679,-1.9528714,0,42.79201,-12.070966)" cx="23.896" cy="3.99" r="20.397"/>
  <radialGradient gradientTransform="matrix(0,1.2316483,-1.625754,0,18.486966,-28.721977)" gradientUnits="userSpaceOnUse" id="radialGradient4793" r="20.397" cy="3.99" cx="23.896">
   <stop id="stop4795" stop-color="#232323"/>
   <stop offset="0.262" id="stop4797" stop-color="#212121"/>
   <stop offset="0.661" id="stop4799" stop-color="#1c1c1c"/>
   <stop offset="1" id="stop4801" stop-color="#121212"/>
  </radialGradient>
  <linearGradient inkscape:collect="always" xlink:href="#linearGradient4847" id="linearGradient3520" gradientUnits="userSpaceOnUse" gradientTransform="matrix(0,1,-1,0,70.999998,-1.999723)" x1="26" x2="46"/>
  <linearGradient inkscape:collect="always" id="linearGradient4847">
   <stop id="stop4849" stop-color="#ffffff"/>
   <stop offset="1" id="stop4851" stop-color="#ffffff" stop-opacity="0"/>
  </linearGradient>
  <linearGradient inkscape:collect="always" xlink:href="#linearGradient4803" id="linearGradient3522" gradientUnits="userSpaceOnUse" gradientTransform="matrix(0.37500007,0,0,-0.37499833,15.757,46.000084)" y1="8.114" x2="0" y2="56.11"/>
  <linearGradient id="linearGradient4803">
   <stop id="stop4805" stop-color="#5f5f5f"/>
   <stop offset="0.331" id="stop4807" stop-color="#505050"/>
   <stop offset="1" id="stop4809" stop-color="#1c1c1c"/>
  </linearGradient>
  <linearGradient inkscape:collect="always" xlink:href="#linearGradient4811" id="linearGradient3524" gradientUnits="userSpaceOnUse" gradientTransform="matrix(0.46791442,0,0,0.46791442,-8.0883702,18.759496)" y1="16.543" x2="0" y2="48.631"/>
  <linearGradient id="linearGradient4811">
   <stop id="stop4813" stop-color="#3a3842"/>
   <stop offset="1" id="stop4815" stop-color="#303036"/>
  </linearGradient>
  <radialGradient inkscape:collect="always" xlink:href="#linearGradient6042-1-7-8-8-5" id="radialGradient3526" gradientUnits="userSpaceOnUse" gradientTransform="matrix(0,0.6733571,-1.5511106,0,67.94433,8.850549)" cx="32" cy="21.239" r="10.498"/>
  <linearGradient id="linearGradient6042-1-7-8-8-5">
   <stop id="stop6044-9-6-3-6-6" stop-color="#261b2b"/>
   <stop id="stop6046-9-5-1-2-5" offset="1" stop-color="#332f35"/>
  </linearGradient>
  <radialGradient inkscape:collect="always" xlink:href="#linearGradient2867-449-88-871-390-598-476-591-434-148-57-177-691-4-22-1-2-5" id="radialGradient3528" gradientUnits="userSpaceOnUse" gradientTransform="matrix(0,0.2344161,-0.30942651,0,36.23449,26.249571)" cx="23.896" cy="3.99" r="20.397"/>
  <linearGradient id="linearGradient2867-449-88-871-390-598-476-591-434-148-57-177-691-4-22-1-2-5">
   <stop id="stop7191-4-6-8-8-0" stop-color="#612f91"/>
   <stop id="stop7197-2-8-6-5-9" offset="1" stop-color="#1a4aa2"/>
  </linearGradient>
  <linearGradient inkscape:collect="always" xlink:href="#linearGradient3087-408-5-3-7-9-1" id="linearGradient3530" gradientUnits="userSpaceOnUse" gradientTransform="matrix(0.09821987,0,0,0.09821945,32.64258,31.642799)" y1="3.082" x2="0" y2="45.37"/>
  <linearGradient y1="3.082" x2="0" y2="45.37" id="linearGradient3087-408-5-3-7-9-1" gradientUnits="userSpaceOnUse" gradientTransform="matrix(0.22110724,0,0,0.22110728,6.6934256,6.693263)">
   <stop id="stop7201-5-71-3-5-2" stop-color="#170418"/>
   <stop id="stop7203-2-8-8-5-3" offset="1" stop-color="#50386b"/>
  </linearGradient>
  <radialGradient inkscape:collect="always" xlink:href="#linearGradient4278-3-5-5-9-2" id="radialGradient3532" gradientUnits="userSpaceOnUse" gradientTransform="matrix(0.19553888,-2.9157311e-8,2.7395628e-8,0.18372271,16.22942,16.403041)" cx="95.84" cy="95.39" r="9.498"/>
  <linearGradient id="linearGradient4278-3-5-5-9-2">
   <stop id="stop4280-6-90-6-3-6" stop-opacity="0"/>
   <stop id="stop4286-1-9-5-7-9" offset="0.5" stop-opacity="0"/>
   <stop id="stop4282-24-4-0-5-4" offset="1"/>
  </linearGradient>
  <radialGradient inkscape:collect="always" xlink:href="#linearGradient6088-74-4-8-8-8" id="radialGradient3534" gradientUnits="userSpaceOnUse" gradientTransform="matrix(-0.69848286,0,0,-0.69847961,57.614743,55.939314)" cx="32.373" cy="31.405" r="3.857"/>
  <linearGradient id="linearGradient6088-74-4-8-8-8">
   <stop id="stop6090-5-66-7-7-4" stop-color="#ff54d2" stop-opacity="0"/>
   <stop id="stop6257-5-4-6-4-1" offset="0.324" stop-color="#f62b68"/>
   <stop id="stop6255-6-7-9-7-1" offset="0.561" stop-color="#ff0105"/>
   <stop id="stop6092-0-22-2-1-1" offset="1" stop-color="#ff54d2" stop-opacity="0.478"/>
  </linearGradient>
  <linearGradient inkscape:collect="always" xlink:href="#linearGradient4316-4-6-6-4-5-1-8" id="linearGradient3536" gradientUnits="userSpaceOnUse" gradientTransform="matrix(0.11294455,0,0,0.11294455,24.59928,30.321368)" y1="16.555" x2="0" y2="48.984"/>
  <linearGradient id="linearGradient4316-4-6-6-4-5-1-8">
   <stop id="stop4318-4-4-6-5-3-0-4" stop-color="#ffffff"/>
   <stop id="stop4320-2-2-6-59-35-1-3" offset="0.338" stop-color="#ffffff" stop-opacity="0.235"/>
   <stop id="stop4322-4-5-5-0-1-8-6" offset="0.62" stop-color="#ffffff" stop-opacity="0.157"/>
   <stop id="stop4324-4-1-5-5-42-0-0" offset="1" stop-color="#ffffff" stop-opacity="0.392"/>
  </linearGradient>
  <linearGradient inkscape:collect="always" xlink:href="#linearGradient4847" id="linearGradient3538" gradientUnits="userSpaceOnUse" gradientTransform="matrix(0.05404846,0,0,0.04053616,31.38316,30.92865)" y1="52.925" x2="0" y2="65.922"/>
  <radialGradient inkscape:collect="always" xlink:href="#linearGradient6191-9-9-5-0-4" id="radialGradient3540" gradientUnits="userSpaceOnUse" gradientTransform="matrix(0.69887275,0.18726152,-0.18078067,0.67467948,18.049632,6.746495)" cx="32.373" cy="31.405" r="3.857"/>
  <linearGradient id="linearGradient6191-9-9-5-0-4">
   <stop id="stop6193-8-1-3-2-6" stop-color="#ffffff" stop-opacity="0"/>
   <stop id="stop6197-8-8-7-1-9" offset="0.405" stop-color="#ffffff" stop-opacity="0"/>
   <stop id="stop6195-9-3-6-0-8" offset="1" stop-color="#ffffff" stop-opacity="0.478"/>
  </linearGradient>
  <radialGradient inkscape:collect="always" xlink:href="#linearGradient6191-9-9-5-0-4" id="radialGradient3542" gradientUnits="userSpaceOnUse" gradientTransform="matrix(0,0.72352295,-0.69848286,-2.9134813e-8,56.937982,10.573955)" cx="32.373" cy="31.405" r="3.857"/>
  <radialGradient inkscape:collect="always" xlink:href="#linearGradient6191-9-9-5-0-4" id="radialGradient3544" gradientUnits="userSpaceOnUse" gradientTransform="matrix(0.42281461,0.58712428,-0.56680474,0.40817779,39.112258,2.170078)" cx="32.373" cy="31.405" r="3.857"/>
  <radialGradient inkscape:collect="always" xlink:href="#linearGradient6088-6-1-0-06-8-8" id="radialGradient3546" gradientUnits="userSpaceOnUse" gradientTransform="matrix(-0.49390196,-0.49389966,0.49390196,-0.49389966,35.477636,64.85271)" cx="32.373" cy="31.405" r="3.857"/>
  <linearGradient id="linearGradient6088-6-1-0-06-8-8">
   <stop id="stop6090-2-0-4-9-4-0" stop-color="#ff54d2" stop-opacity="0"/>
   <stop id="stop6257-4-6-1-76-0-7" offset="0.324" stop-color="#ff54d2" stop-opacity="0"/>
   <stop id="stop6255-3-6-7-23-8-1" offset="0.561" stop-color="#ff54d2" stop-opacity="0.252"/>
   <stop id="stop6092-9-6-8-9-2-4" offset="1" stop-color="#ff54d2" stop-opacity="0.478"/>
  </linearGradient>
  <radialGradient inkscape:collect="always" xlink:href="#linearGradient4847" id="radialGradient3548" gradientUnits="userSpaceOnUse" gradientTransform="matrix(0.77231662,-0.44589514,0.25370014,0.43941951,-1.5801101,35.033531)" cx="36.491" cy="39.709" r="3.159"/>
  <radialGradient inkscape:collect="always" xlink:href="#linearGradient4847" id="radialGradient3550" gradientUnits="userSpaceOnUse" gradientTransform="matrix(0.62147768,-0.35880864,0.20415069,0.35359772,2.0570698,30.647772)" cx="36.491" cy="39.709" r="3.159"/>
  <radialGradient inkscape:collect="always" xlink:href="#linearGradient4847" id="radialGradient3552" gradientUnits="userSpaceOnUse" gradientTransform="matrix(0.17728269,0,0,0.18545771,28.32887,26.342082)" cx="36.491" cy="39.709" r="3.159"/>
  <linearGradient inkscape:collect="always" xlink:href="#linearGradient6413-0-0-0-9-7" id="linearGradient3554" gradientUnits="userSpaceOnUse" gradientTransform="matrix(0.17728269,0,0,0.18545771,26.84164,25.441923)" x1="38.851" y1="41.608" x2="34.13" y2="37.81"/>
  <linearGradient id="linearGradient6413-0-0-0-9-7">
   <stop id="stop6415-1-7-3-8-5" stop-color="#feffff"/>
   <stop id="stop6417-4-9-2-3-3" offset="1" stop-color="#fe70ca"/>
  </linearGradient>
  <linearGradient inkscape:collect="always" xlink:href="#linearGradient6455-7-3-3-2-4" id="linearGradient3556" gradientUnits="userSpaceOnUse" gradientTransform="matrix(0.12398751,0,0,0.12970493,29.10444,27.98847)" x1="38.851" y1="41.608" x2="34.13" y2="37.81"/>
  <linearGradient id="linearGradient6455-7-3-3-2-4">
   <stop id="stop6457-5-1-10-5-0" stop-color="#fbac9b"/>
   <stop id="stop6459-8-9-7-0-2" offset="1" stop-color="#fcfafc"/>
  </linearGradient>
  <linearGradient inkscape:collect="always" xlink:href="#linearGradient4847" id="linearGradient3558" gradientUnits="userSpaceOnUse" gradientTransform="matrix(0,1,-1,0,70.998773,-1.9997262)" x1="28.5" x2="43.5"/>
  <radialGradient inkscape:collect="always" xlink:href="#radialGradient4793-6" id="radialGradient3876" gradientUnits="userSpaceOnUse" gradientTransform="matrix(0,2.6899753,-3.5507198,0,58.16772,-58.766691)" cx="23.896" cy="3.99" r="20.397"/>
  <radialGradient gradientTransform="matrix(0,1.2316483,-1.625754,0,18.486966,-28.721977)" gradientUnits="userSpaceOnUse" id="radialGradient4793-6" r="20.397" cy="3.99" cx="23.896">
   <stop id="stop4795-0" stop-color="#7b7b7b"/>
   <stop offset="0.262" id="stop4797-8" stop-color="#535353"/>
   <stop offset="0.661" id="stop4799-0" stop-color="#1c1c1c"/>
   <stop offset="1" id="stop4801-7" stop-color="#121212"/>
  </radialGradient>
  <linearGradient inkscape:collect="always" xlink:href="#linearGradient4847" id="linearGradient3878" gradientUnits="userSpaceOnUse" gradientTransform="matrix(0,1.8182046,-1.8182046,0,109.45561,-40.455111)" x1="26" x2="46"/>
  <linearGradient inkscape:collect="always" xlink:href="#linearGradient4803" id="linearGradient3880" gradientUnits="userSpaceOnUse" gradientTransform="matrix(0.68182685,0,0,-0.68182369,9.0125409,46.818359)" y1="8.114" x2="0" y2="56.11"/>
  <linearGradient inkscape:collect="always" xlink:href="#linearGradient4811" id="linearGradient3883" gradientUnits="userSpaceOnUse" gradientTransform="matrix(0.85076415,0,0,0.85076415,-34.343221,-2.7106031)" y1="16.543" x2="0" y2="48.631"/>
  <radialGradient inkscape:collect="always" xlink:href="#linearGradient6042-1-7-8-8-5" id="radialGradient3885" gradientUnits="userSpaceOnUse" gradientTransform="matrix(0,1.224301,-2.8202364,0,103.89978,-20.727096)" cx="32" cy="21.239" r="10.498"/>
  <radialGradient inkscape:collect="always" xlink:href="#linearGradient2867-449-88-871-390-598-476-591-434-148-57-177-691-4-22-1-2-5" id="radialGradient3887" gradientUnits="userSpaceOnUse" gradientTransform="matrix(0,0.42621643,-0.5626007,0,46.244807,10.907886)" cx="23.896" cy="3.99" r="20.397"/>
  <linearGradient inkscape:collect="always" xlink:href="#linearGradient3087-408-5-3-7-9-1" id="linearGradient3889" gradientUnits="userSpaceOnUse" gradientTransform="matrix(0.17858382,0,0,0.17858306,39.71398,20.713878)" y1="3.082" x2="0" y2="45.37"/>
  <radialGradient inkscape:collect="always" xlink:href="#linearGradient4278-3-5-5-9-2" id="radialGradient3891" gradientUnits="userSpaceOnUse" gradientTransform="matrix(0.35552969,-5.3013957e-8,4.9810857e-8,0.33404548,9.8714971,-6.9951204)" cx="95.84" cy="95.39" r="9.498"/>
  <radialGradient inkscape:collect="always" xlink:href="#linearGradient6088-74-4-8-8-8" id="radialGradient3893" gradientUnits="userSpaceOnUse" gradientTransform="matrix(-1.2699847,0,0,-1.2699788,85.118482,64.889913)" cx="32.373" cy="31.405" r="3.857"/>
  <linearGradient inkscape:collect="always" xlink:href="#linearGradient4316-4-6-6-4-5-1-8" id="linearGradient3895" gradientUnits="userSpaceOnUse" gradientTransform="matrix(0.2053563,0,0,0.2053563,25.089615,18.311246)" y1="16.555" x2="0" y2="48.984"/>
  <linearGradient inkscape:collect="always" xlink:href="#linearGradient4847" id="linearGradient3897" gradientUnits="userSpaceOnUse" gradientTransform="matrix(0.09827116,0,0,0.07370303,37.424097,19.415409)" y1="52.925" x2="0" y2="65.922"/>
  <radialGradient inkscape:collect="always" xlink:href="#linearGradient6191-9-9-5-0-4" id="radialGradient3899" gradientUnits="userSpaceOnUse" gradientTransform="matrix(1.2706936,0.34047976,-0.32869625,1.2267053,13.181015,-24.552697)" cx="32.373" cy="31.405" r="3.857"/>
  <radialGradient inkscape:collect="always" xlink:href="#linearGradient6191-9-9-5-0-4" id="radialGradient3901" gradientUnits="userSpaceOnUse" gradientTransform="matrix(0,1.3155128,-1.2699847,-5.2973051e-8,83.887992,-17.593591)" cx="32.373" cy="31.405" r="3.857"/>
  <radialGradient inkscape:collect="always" xlink:href="#linearGradient6191-9-9-5-0-4" id="radialGradient3903" gradientUnits="userSpaceOnUse" gradientTransform="matrix(0.76876347,1.0675121,-1.030567,0.74215074,51.477178,-32.873559)" cx="32.373" cy="31.405" r="3.857"/>
  <radialGradient inkscape:collect="always" xlink:href="#linearGradient6088-6-1-0-06-8-8" id="radialGradient3905" gradientUnits="userSpaceOnUse" gradientTransform="matrix(-0.89801482,-0.89801063,0.89801482,-0.89801063,44.868692,81.096291)" cx="32.373" cy="31.405" r="3.857"/>
  <radialGradient inkscape:collect="always" xlink:href="#linearGradient4847" id="radialGradient3907" gradientUnits="userSpaceOnUse" gradientTransform="matrix(1.4042296,-0.81072859,0.46127876,0.79895457,-22.509872,26.878922)" cx="36.491" cy="39.709" r="3.159"/>
  <radialGradient inkscape:collect="always" xlink:href="#linearGradient4847" id="radialGradient3909" gradientUnits="userSpaceOnUse" gradientTransform="matrix(1.1299736,-0.65238752,0.37118772,0.642913,-15.896735,18.904715)" cx="36.491" cy="39.709" r="3.159"/>
  <radialGradient inkscape:collect="always" xlink:href="#linearGradient4847" id="radialGradient3911" gradientUnits="userSpaceOnUse" gradientTransform="matrix(0.3223362,0,0,0.33720006,31.870773,11.07609)" cx="36.491" cy="39.709" r="3.159"/>
  <linearGradient inkscape:collect="always" xlink:href="#linearGradient6413-0-0-0-9-7" id="linearGradient3913" gradientUnits="userSpaceOnUse" gradientTransform="matrix(0.3223362,0,0,0.33720006,29.166684,9.4394164)" x1="38.851" y1="41.608" x2="34.13" y2="37.81"/>
  <linearGradient inkscape:collect="always" xlink:href="#linearGradient6455-7-3-3-2-4" id="linearGradient3915" gradientUnits="userSpaceOnUse" gradientTransform="matrix(0.22543466,0,0,0.2358301,33.280918,14.06956)" x1="38.851" y1="41.608" x2="34.13" y2="37.81"/>
  <linearGradient inkscape:collect="always" xlink:href="#linearGradient4847" id="linearGradient3917" gradientUnits="userSpaceOnUse" gradientTransform="matrix(0,1.8182046,-1.8182046,0,109.45339,-40.455116)" x1="28.5" x2="43.5"/>
  <linearGradient inkscape:collect="always" xlink:href="#linearGradient4847" id="linearGradient4699" gradientUnits="userSpaceOnUse" gradientTransform="matrix(0,1.8571676,-1.8571676,0,90.856019,-42.857782)" x1="28.5" x2="43.5"/>
  <linearGradient inkscape:collect="always" xlink:href="#linearGradient6455-7-3-3-2-4" id="linearGradient4702" gradientUnits="userSpaceOnUse" gradientTransform="matrix(0.23026559,0,0,0.2408838,13.051217,12.835325)" x1="38.851" y1="41.608" x2="34.13" y2="37.81"/>
  <linearGradient inkscape:collect="always" xlink:href="#linearGradient6413-0-0-0-9-7" id="linearGradient4705" gradientUnits="userSpaceOnUse" gradientTransform="matrix(0.32924367,0,0,0.34442605,8.8488175,8.1059598)" x1="38.851" y1="41.608" x2="34.13" y2="37.81"/>
  <radialGradient inkscape:collect="always" xlink:href="#linearGradient4847" id="radialGradient4708" gradientUnits="userSpaceOnUse" gradientTransform="matrix(0.32924367,0,0,0.34442605,11.610854,9.7777064)" cx="36.491" cy="39.709" r="3.159"/>
  <radialGradient inkscape:collect="always" xlink:href="#linearGradient4847" id="radialGradient4711" gradientUnits="userSpaceOnUse" gradientTransform="matrix(1.1541883,-0.66636779,0.37914205,0.65669024,-37.180283,17.774094)" cx="36.491" cy="39.709" r="3.159"/>
  <radialGradient inkscape:collect="always" xlink:href="#linearGradient4847" id="radialGradient4714" gradientUnits="userSpaceOnUse" gradientTransform="matrix(1.4343214,-0.82810202,0.47116369,0.81607569,-43.935136,25.919184)" cx="36.491" cy="39.709" r="3.159"/>
  <radialGradient inkscape:collect="always" xlink:href="#linearGradient6088-6-1-0-06-8-8" id="radialGradient4717" gradientUnits="userSpaceOnUse" gradientTransform="matrix(-0.91725874,-0.91725446,0.91725874,-0.91725446,24.88731,81.298398)" cx="32.373" cy="31.405" r="3.857"/>
  <radialGradient inkscape:collect="always" xlink:href="#linearGradient6191-9-9-5-0-4" id="radialGradient4720" gradientUnits="userSpaceOnUse" gradientTransform="matrix(0.78523761,1.0903882,-1.0526514,0.75805459,31.637412,-35.113757)" cx="32.373" cy="31.405" r="3.857"/>
  <radialGradient inkscape:collect="always" xlink:href="#linearGradient6191-9-9-5-0-4" id="radialGradient4723" gradientUnits="userSpaceOnUse" gradientTransform="matrix(0,1.3437034,-1.2971997,-5.4108232e-8,64.74277,-19.506349)" cx="32.373" cy="31.405" r="3.857"/>
  <radialGradient inkscape:collect="always" xlink:href="#linearGradient6191-9-9-5-0-4" id="radialGradient4726" gradientUnits="userSpaceOnUse" gradientTransform="matrix(1.2979238,0.34777604,-0.33574001,1.2529929,-7.4794148,-26.614584)" cx="32.373" cy="31.405" r="3.857"/>
  <linearGradient inkscape:collect="always" xlink:href="#linearGradient4847" id="linearGradient4729" gradientUnits="userSpaceOnUse" gradientTransform="matrix(0.10037705,0,0,0.07528244,17.283182,18.295732)" y1="52.925" x2="0" y2="65.922"/>
  <linearGradient inkscape:collect="always" xlink:href="#linearGradient4316-4-6-6-4-5-1-8" id="linearGradient4732" gradientUnits="userSpaceOnUse" gradientTransform="matrix(0.20975696,0,0,0.20975696,4.6843794,17.167907)" y1="16.555" x2="0" y2="48.984"/>
  <radialGradient inkscape:collect="always" xlink:href="#linearGradient6088-74-4-8-8-8" id="radialGradient4735" gradientUnits="userSpaceOnUse" gradientTransform="matrix(-1.2971997,0,0,-1.2971937,65.999629,64.744727)" cx="32.373" cy="31.405" r="3.857"/>
  <radialGradient inkscape:collect="always" xlink:href="#linearGradient4278-3-5-5-9-2" id="radialGradient4739" gradientUnits="userSpaceOnUse" gradientTransform="matrix(0.36314848,-5.4150014e-8,5.0878274e-8,0.34120387,-10.859854,-8.6807592)" cx="95.84" cy="95.39" r="9.498"/>
  <radialGradient inkscape:collect="always" xlink:href="#linearGradient2867-449-88-871-390-598-476-591-434-148-57-177-691-4-22-1-2-5" id="radialGradient4742" gradientUnits="userSpaceOnUse" gradientTransform="matrix(0,0.43534999,-0.5746569,0,26.292914,9.6058979)" cx="23.896" cy="3.99" r="20.397"/>
  <linearGradient inkscape:collect="always" xlink:href="#linearGradient3087-408-5-3-7-9-1" id="linearGradient4744" gradientUnits="userSpaceOnUse" gradientTransform="matrix(0.18241076,0,0,0.18240999,19.622136,19.622026)" y1="3.082" x2="0" y2="45.37"/>
  <radialGradient inkscape:collect="always" xlink:href="#linearGradient6042-1-7-8-8-5" id="radialGradient4749" gradientUnits="userSpaceOnUse" gradientTransform="matrix(0,1.250537,-2.8806724,0,85.183399,-22.707003)" cx="32" cy="21.239" r="10.498"/>
  <linearGradient inkscape:collect="always" xlink:href="#linearGradient4811" id="linearGradient4754" gradientUnits="userSpaceOnUse" gradientTransform="matrix(0.86899552,0,0,0.86899552,-56.022067,-4.3044273)" y1="16.543" x2="0" y2="48.631"/>
  <linearGradient inkscape:collect="always" xlink:href="#linearGradient4803" id="linearGradient4757" gradientUnits="userSpaceOnUse" gradientTransform="matrix(0.69643799,0,0,-0.69643476,-11.737217,46.285911)" y1="8.114" x2="0" y2="56.11"/>
  <linearGradient inkscape:collect="always" xlink:href="#linearGradient4847" id="linearGradient4760" gradientUnits="userSpaceOnUse" gradientTransform="matrix(0,1.8571676,-1.8571676,0,90.858287,-42.857777)" x1="26" x2="46"/>
  <radialGradient inkscape:collect="always" xlink:href="#radialGradient4793-6" id="radialGradient4763" gradientUnits="userSpaceOnUse" gradientTransform="matrix(0,2.7476199,-3.6268096,0,38.471328,-61.561764)" cx="23.896" cy="3.99" r="20.397"/>
 </defs>
 <g inkscape:groupmode="layer" id="layer1" inkscape:label="Background">
  <path transform="matrix(0.76992689,0,0,0.70231451,4.8675074,13.673907)" d="m 45.052803,38.908627 a 20.203051,7.4751287 0 1 1 -40.4061012,0 20.203051,7.4751287 0 1 1 40.4061012,0 z" sodipodi:ry="7.4751287" sodipodi:rx="20.203051" sodipodi:cy="38.908627" sodipodi:cx="24.849752" id="path9641" sodipodi:type="arc" fill="url(#radialGradient4274)"/>
  <path sodipodi:type="arc" id="path9643" sodipodi:cx="24.849752" sodipodi:cy="38.908627" sodipodi:rx="20.203051" sodipodi:ry="7.4751287" d="m 45.052803,38.908627 a 20.203051,7.4751287 0 1 1 -40.4061012,0 20.203051,7.4751287 0 1 1 40.4061012,0 z" transform="matrix(1.0408039,0,0,0.94940366,-1.8632526,3.514402)" opacity="0.518" fill="url(#radialGradient3755)"/>
  <path d="M 24 5 C 13.500552 5 5 13.500823 5 24 C 5 24.169463 5.0268485 24.331605 5.03125 24.5 C 5.299553 14.235412 13.670013 6 24 6 C 34.328993 6 42.700416 14.235427 42.96875 24.5 C 42.973152 24.331604 43 24.169465 43 24 C 43 13.500839 34.498438 5 24 5 z " id="path3872" opacity="0.4" fill="#ffffff"/>
  <path id="path2555-7-2-5" inkscape:connector-curvature="0" d="m 24,4.499994 c -10.759426,0 -19.4999998,8.740572 -19.4999998,19.500005 0,10.759434 8.7405738,19.500007 19.4999998,19.500007 10.759426,0 19.500018,-8.740573 19.5,-19.500007 C 43.5,13.240566 34.759426,4.499994 24,4.499994 z" fill="url(#radialGradient4763)" color="#000000"/>
  <path id="path4176-3" inkscape:connector-curvature="0" d="m 24,41.643088 c -9.744016,0 -17.6430923,-7.899072 -17.6430923,-17.643109 0,-9.744003 7.8990763,-17.6430718 17.6430923,-17.6430718 9.74402,0 17.643094,7.8990708 17.643094,17.6430718 0,9.744037 -7.899074,17.643111 -17.643094,17.643111 z" opacity="0.4" fill="none" stroke="url(#linearGradient4760)" stroke-linejoin="round" stroke-linecap="round" color="#000000" stroke-width="2.7"/>
  <path id="path2555-36-4-4-8" inkscape:connector-curvature="0" d="m 24.000019,40.714432 c -9.222955,0 -16.7145278,-7.492369 -16.7145278,-16.714433 0,-9.222859 7.4924088,-16.7144337 16.7145278,-16.7144337 9.222879,0 16.71449,7.4923697 16.71449,16.7144337 0,9.222872 -7.492408,16.714433 -16.71449,16.714433 z" fill="url(#linearGradient4757)" color="#000000"/>
  <path inkscape:connector-curvature="0" id="path4218-6-9" d="m 37.928766,23.999999 a 13.928758,13.928758 0 0 1 -27.857516,0 13.928758,13.928758 0 1 1 27.857516,0 z" fill="url(#linearGradient4754)" color="#000000" stroke-width="0.791"/>
  <path inkscape:connector-curvature="0" id="path4218-4-3-7" d="m 37.92883,23.999999 a 13.928822,13.928758 0 0 1 -27.857644,0 13.928822,13.928758 0 1 1 27.857644,0 z" opacity="0.3" fill="none" stroke="#000000" color="#000000" stroke-width="1.857"/>
  <path inkscape:connector-curvature="0" id="path4326-5-9-8" d="m 34.214474,23.999997 a 10.214469,10.214422 0 1 1 -20.428935,0 10.214469,10.214422 0 1 1 20.428935,0 z" opacity="0.1" fill="none" stroke="#000000" color="#000000" stroke-width="3.714"/>
  <path id="path2555-3-5-2-2-0" inkscape:connector-curvature="0" d="m 24,17.473415 c -3.601048,0 -6.526588,2.925368 -6.526588,6.526572 0,3.601068 2.92554,6.526585 6.526588,6.526585 3.601066,0 6.526588,-2.925368 6.526588,-6.526585 0,-3.601057 -2.925373,-6.526572 -6.526588,-6.526572 z" fill="url(#radialGradient4749)"/>
  <path id="path2555-3-5-0-6" inkscape:connector-curvature="0" d="m 23.999981,17.503304 c -3.584575,0 -6.496688,2.911987 -6.496688,6.496686 0,3.58457 2.912113,6.496702 6.496688,6.496702 3.584613,0 6.496745,-2.911974 6.496745,-6.496702 0,-3.584569 -2.912003,-6.496686 -6.496745,-6.496686 z" opacity="0.3" fill="none" stroke="#000000" stroke-linejoin="round" stroke-linecap="round" stroke-width="1.864"/>
  <path id="path2555-3-5-3-3-8-7" inkscape:connector-curvature="0" d="m 23.99987,18.855805 c -2.838477,0 -5.144447,2.305839 -5.144447,5.14441 0,2.838436 2.30597,5.144397 5.144447,5.144397 2.83844,0 5.144429,-2.305839 5.144429,-5.144397 0,-2.838463 -2.305878,-5.14441 -5.144429,-5.14441 z" fill="#2a232b"/>
  <path id="path2555-3-9-2-0" inkscape:connector-curvature="0" d="m 24,20.289058 c -2.047546,0 -3.710956,1.663329 -3.710956,3.710932 0,2.047531 1.66341,3.71095 3.710956,3.71095 2.047527,0 3.710974,-1.663329 3.710974,-3.71095 0,-2.047514 -1.663372,-3.710932 -3.710974,-3.710932 z" fill="url(#radialGradient4742)" stroke="url(#linearGradient4744)" stroke-linejoin="round" stroke-linecap="round" stroke-width="1.864"/>
  <path id="path2555-3-3-5-8-7" inkscape:connector-curvature="0" d="m 24.000019,21.310315 c -1.484082,0 -2.689699,1.205585 -2.689699,2.689672 0,1.484046 1.205617,2.689697 2.689699,2.689697 1.484044,0 2.68968,-1.205584 2.68968,-2.689697 0,-1.48402 -1.205581,-2.689672 -2.68968,-2.689672 z" opacity="0.5" fill="url(#radialGradient4739)"/>
  <path id="path2555-3-5-3-7-7" inkscape:connector-curvature="0" d="m 24,19.295501 c -2.595726,0 -4.704503,2.10867 -4.704503,4.704484 0,2.595733 2.108777,4.704499 4.704503,4.704499 2.595726,0 4.704503,-2.108658 4.704503,-4.704499 0,-2.595719 -2.108684,-4.704484 -4.704503,-4.704484 z" opacity="0.3" fill="none" stroke="#000000" stroke-linejoin="round" stroke-linecap="round" stroke-width="1.864"/>
  <path inkscape:connector-curvature="0" id="path6086-15-3" d="m 19.245844,23.076878 a 4.8428617,4.8428393 0 0 1 3.500601,-3.754489 l 1.253425,4.677823 z" opacity="0.4" fill="url(#radialGradient4735)" color="#000000"/>
  <path inkscape:connector-curvature="0" id="path4218-4-9-8-2-7-9" d="m 27.362105,23.999992 a 3.362105,3.362105 0 0 1 -6.72421,0 3.362105,3.362105 0 1 1 6.72421,0 z" opacity="0.3" fill="none" stroke="url(#linearGradient4732)" color="#000000" stroke-width="1.857"/>
  <path id="path3220-6-3" inkscape:connector-curvature="0" d="m 25.146615,23.140148 a 1.1467549,0.86006213 0 0 1 -2.293509,0 1.1467549,0.86006213 0 1 1 2.293509,0 z" opacity="0.5" fill="url(#linearGradient4729)" color="#000000"/>
  <path inkscape:connector-curvature="0" id="path6086-1-8-7" d="m 28.842713,24.000206 a 4.8428617,4.8428393 0 0 1 -0.30578,1.693568 l -4.537082,-1.693568 z" opacity="0.4" fill="url(#radialGradient4726)" color="#000000"/>
  <path inkscape:connector-curvature="0" id="path6086-1-5-6-8" d="m 24.435146,28.823453 a 4.8428619,4.8428393 0.22315868 0 1 -1.548093,-0.109982 l 1.112791,-4.713258 z" opacity="0.4" fill="url(#radialGradient4723)" color="#000000"/>
  <path inkscape:connector-curvature="0" id="path6086-1-50-1-9" d="m 28.112996,26.556625 a 4.8428617,4.8428393 0.09114427 0 1 -2.261801,1.918578 l -1.851342,-4.475002 z" opacity="0.4" fill="url(#radialGradient4720)" color="#000000"/>
  <path inkscape:connector-curvature="0" id="path6086-3-3-9" d="m 20.575433,19.365094 a 4.8428617,4.8428391 0 0 1 6.84884,0 l -3.42442,3.424405 z" opacity="0.5" fill="url(#radialGradient4717)" color="#000000"/>
  <path inkscape:connector-curvature="0" id="path6301-3-2" d="m 31.645111,25.49043 a 2.9767347,5.2318485 60.000225 1 1 -9.061838,5.231831 2.9767347,5.2318485 60.000225 0 1 9.061838,-5.231831 z" opacity="0.2" fill="url(#radialGradient4714)" color="#000000"/>
  <path inkscape:connector-curvature="0" id="path6301-5-8-5" d="m 23.638602,17.429077 a 2.3953574,4.210032 60.000226 0 1 -7.291997,4.210017 2.3953574,4.210032 60.000226 1 1 7.291997,-4.210017 z" opacity="0.4" fill="url(#radialGradient4711)" color="#000000"/>
  <path inkscape:connector-curvature="0" id="path6301-1-9-7" d="m 24.665364,23.454496 a 1.0400572,1.0880173 0 1 1 -2.080114,0 1.0400572,1.0880173 0 1 1 2.080114,0 z" opacity="0.8" fill="url(#radialGradient4708)" color="#000000"/>
  <path inkscape:connector-curvature="0" id="path6301-1-8-21-5" d="m 21.903329,21.78275 a 1.0400572,1.0880173 0 1 1 -2.080114,0 1.0400572,1.0880173 0 1 1 2.080114,0 z" opacity="0.4" fill="url(#linearGradient4705)" color="#000000"/>
  <path inkscape:connector-curvature="0" id="path6301-1-8-2-6-5" d="m 22.181247,22.400563 a 0.72739313,0.76093531 0 1 1 -1.454786,0 0.72739313,0.76093531 0 1 1 1.454786,0 z" opacity="0.4" fill="url(#linearGradient4702)" color="#000000"/>
  <path d="m 23.997725,37.928821 a 13.928758,13.928823 0 0 1 0,-27.857646 13.928758,13.928823 0 1 1 0,27.857646 z" id="path4821" inkscape:connector-curvature="0" opacity="0.3" fill="url(#linearGradient4699)" color="#000000"/>
  <path d="m 34.214474,23.999997 a 10.214469,10.214422 0 1 1 -20.428935,0 10.214469,10.214422 0 1 1 20.428935,0 z" id="path4837" inkscape:connector-curvature="0" opacity="0.3" fill="none" stroke="#000000" color="#000000" stroke-width="1.857"/>
  <path d="m 24,4.499994 c -10.759426,0 -19.4999998,8.740572 -19.4999998,19.500005 0,10.759434 8.7405738,19.500007 19.4999998,19.500007 10.759426,0 19.500018,-8.740573 19.5,-19.500007 C 43.5,13.240566 34.759426,4.499994 24,4.499994 z" inkscape:connector-curvature="0" id="path3907" opacity="0.41" fill="none" stroke="#000000" color="#000000"/>
  <path d="M 24 5 C 13.506584 5 5 13.506598 5 24 C 5 24.169364 5.0268455 24.331698 5.03125 24.5 C 5.2997399 14.240732 13.675948 6 24 6 C 34.324055 6 42.70026 14.240735 42.96875 24.5 C 42.973155 24.331698 43 24.169364 43 24 C 43 13.506601 34.493419 5 24 5 z " id="path4078" opacity="0.6" fill="#ffffff" color="#000000" stroke-width="2.7"/>
 </g>
</svg>
