<?xml version="1.0" encoding="UTF-8" standalone="no"?>
<svg xmlns="http://www.w3.org/2000/svg" xmlns:xlink="http://www.w3.org/1999/xlink" xmlns:sodipodi="http://sodipodi.sourceforge.net/DTD/sodipodi-0.dtd" xmlns:inkscape="http://www.inkscape.org/namespaces/inkscape" version="1.1" width="48" height="48">
 <metadata id="metadata37"/>
 <defs id="defs3761">
  <linearGradient id="linearGradient4118">
   <stop id="stop4120" stop-color="#dddddd"/>
   <stop offset="0.141" id="stop4122" stop-color="#e2e2e2"/>
   <stop offset="0.141" id="stop4124" stop-color="#f0f0f0"/>
   <stop id="stop4126" offset="1" stop-color="#e6e6e6"/>
  </linearGradient>
  <linearGradient id="linearGradient4566">
   <stop id="stop4568" stop-color="#3f3f3f"/>
   <stop id="stop4570" offset="1" stop-color="#625c5c"/>
  </linearGradient>
  <linearGradient inkscape:collect="always" id="linearGradient4149">
   <stop id="stop4151" stop-color="#ffffff"/>
   <stop offset="1" id="stop4153" stop-color="#ffffff" stop-opacity="0"/>
  </linearGradient>
  <linearGradient id="linearGradient4127">
   <stop id="stop4129" stop-color="#8f2b12"/>
   <stop id="stop4131" offset="1" stop-color="#82461a"/>
  </linearGradient>
  <linearGradient inkscape:collect="always" xlink:href="#linearGradient4149" id="linearGradient4140" x1="789" x2="827" gradientUnits="userSpaceOnUse"/>
  <clipPath id="clipPath4130">
   <path id="path4132" d="M 790.4375,237 C 789.62555,237 789,237.62555 789,238.4375 l 0,35.09375 c 0,0.812 0.62555,1.46875 1.4375,1.46875 l 35.125,0 c 0.81195,0 1.4375,-0.65675 1.4375,-1.46875 l 0,-35.09375 C 827,237.62555 826.37445,237 825.5625,237 l -35.125,0 z"/>
  </clipPath>
  <linearGradient inkscape:collect="always" xlink:href="#linearGradient5618" id="linearGradient4083" x1="-1023.86" x2="-984.86" gradientUnits="userSpaceOnUse" gradientTransform="translate(980.3622,784)"/>
  <linearGradient id="linearGradient5618">
   <stop id="stop5620" stop-color="#3e3e3e"/>
   <stop offset="1" id="stop5622" stop-color="#595959"/>
  </linearGradient>
  <linearGradient inkscape:collect="always" xlink:href="#linearGradient3934" id="linearGradient3998" gradientUnits="userSpaceOnUse" gradientTransform="matrix(0,-1,1,0,68,556)" x1="292" x2="332"/>
  <linearGradient id="linearGradient3934">
   <stop id="stop3936" stop-color="#dd2f03"/>
   <stop offset="1" id="stop3938" stop-color="#e96300"/>
  </linearGradient>
  <linearGradient x2="332" x1="292" gradientTransform="matrix(0,-1,1,0,65,302)" gradientUnits="userSpaceOnUse" id="linearGradient3177" xlink:href="#linearGradient3934" inkscape:collect="always"/>
  <linearGradient inkscape:collect="always" xlink:href="#linearGradient3934" id="linearGradient4117" gradientUnits="userSpaceOnUse" gradientTransform="translate(980.3622,784)" x1="-1023.86" x2="-984.86"/>
  <linearGradient inkscape:collect="always" xlink:href="#linearGradient4149" id="linearGradient4155" x1="24" y1="43.5" x2="37" y2="23.375" gradientUnits="userSpaceOnUse"/>
  <linearGradient inkscape:collect="always" xlink:href="#outerBackgroundGradient-0" id="linearGradient3998-0" gradientUnits="userSpaceOnUse" gradientTransform="matrix(0,-1,1,0,68,556)" x1="292" x2="332"/>
  <linearGradient id="outerBackgroundGradient-0">
   <stop id="stop3864-8-6-9" stop-color="#dddddd"/>
   <stop offset="1" id="stop3866-9-1-5" stop-color="#f2f2f2"/>
  </linearGradient>
  <linearGradient inkscape:collect="always" xlink:href="#linearGradient4100" id="linearGradient4898" gradientUnits="userSpaceOnUse" y1="235" x2="0" y2="277" gradientTransform="translate(-3.5,-3.5)"/>
  <linearGradient id="linearGradient4100">
   <stop id="stop4102" stop-color="#aaaaaa"/>
   <stop id="stop4104" offset="1" stop-color="#767676"/>
  </linearGradient>
  <linearGradient inkscape:collect="always" xlink:href="#linearGradient4084" id="linearGradient4900" gradientUnits="userSpaceOnUse" y1="231" x2="0" y2="273" gradientTransform="translate(-3.5,-3.5)"/>
  <linearGradient id="linearGradient4084">
   <stop id="stop4086" stop-color="#cd5fc2"/>
   <stop offset="1" id="stop4088" stop-color="#9a4993"/>
  </linearGradient>
  <linearGradient inkscape:collect="always" xlink:href="#outerBackgroundGradient-0" id="linearGradient4902" gradientUnits="userSpaceOnUse" y1="273" x2="0" y2="231" gradientTransform="translate(-3.5,-3.5)"/>
  <linearGradient id="outerBackgroundGradient-7">
   <stop id="stop3864-8-6-3" stop-color="#717171"/>
   <stop offset="1" id="stop3866-9-1-2" stop-color="#848484"/>
  </linearGradient>
  <clipPath id="clipPath4068">
   <rect y="259" x="316" height="9" width="24" id="rect4070" fill="#525252" color="#bebebe" rx="4.5"/>
  </clipPath>
  <clipPath id="clipPath4060">
   <rect id="rect4062" width="24" height="9" x="316" y="240" fill="#525252" color="#bebebe" rx="4.5"/>
  </clipPath>
  <clipPath id="clipPath3423">
   <rect id="rect3425" width="24" height="9" x="316" y="240" fill="#525252" color="#bebebe" rx="4.5"/>
  </clipPath>
  <clipPath id="clipPath3427">
   <rect y="259" x="316" height="9" width="24" id="rect3429" fill="#525252" color="#bebebe" rx="4.5"/>
  </clipPath>
  <clipPath id="clipPath3431">
   <rect y="259" x="316" height="9" width="24" id="rect3433" fill="#525252" color="#bebebe" rx="4.5"/>
  </clipPath>
  <clipPath id="clipPath3435">
   <rect id="rect3437" width="24" height="9" x="316" y="240" fill="#525252" color="#bebebe" rx="4.5"/>
  </clipPath>
  <clipPath id="clipPath3439">
   <rect id="rect3441" width="24" height="9" x="316" y="240" fill="#525252" color="#bebebe" rx="4.5"/>
  </clipPath>
  <clipPath id="clipPath3443">
   <rect y="259" x="316" height="9" width="24" id="rect3445" fill="#525252" color="#bebebe" rx="4.5"/>
  </clipPath>
  <linearGradient x2="332" x1="292" gradientTransform="matrix(0,-1,1,0,-223.5,332.5)" gradientUnits="userSpaceOnUse" id="linearGradient3470" xlink:href="#outerBackgroundGradient-0" inkscape:collect="always"/>
  <linearGradient inkscape:collect="always" xlink:href="#outerBackgroundGradient-0" id="linearGradient4564" gradientUnits="userSpaceOnUse" gradientTransform="translate(980.3622,784)" x1="-1023.86" x2="-984.86"/>
  <linearGradient inkscape:collect="always" xlink:href="#outerBackgroundGradient-0" id="linearGradient4642" gradientUnits="userSpaceOnUse" gradientTransform="translate(-307.5,-231.5)" y1="273" x2="0" y2="231"/>
  <linearGradient inkscape:collect="always" xlink:href="#linearGradient4084" id="linearGradient4650" gradientUnits="userSpaceOnUse" gradientTransform="translate(-307.5,-231.5)" y1="231" x2="0" y2="273"/>
  <linearGradient inkscape:collect="always" xlink:href="#linearGradient4100" id="linearGradient4653" gradientUnits="userSpaceOnUse" gradientTransform="translate(-307.5,-235.5)" y1="235" x2="0" y2="277"/>
  <linearGradient inkscape:collect="always" xlink:href="#linearGradient4118" id="linearGradient3877" gradientUnits="userSpaceOnUse" gradientTransform="matrix(0,-1,-1,0,-784,-980.3622)" x1="-1023.86" x2="-984.86"/>
  <radialGradient inkscape:collect="always" xlink:href="#linearGradient3952" id="radialGradient4205" gradientUnits="userSpaceOnUse" gradientTransform="matrix(1.0571429,0,0,1.25,0.6,-10.875)" cx="40" cy="43.5" r="2"/>
  <linearGradient inkscape:collect="always" id="linearGradient3952">
   <stop id="stop3954"/>
   <stop offset="1" id="stop3956" stop-opacity="0"/>
  </linearGradient>
  <radialGradient inkscape:collect="always" xlink:href="#linearGradient3952" id="radialGradient4214" gradientUnits="userSpaceOnUse" gradientTransform="matrix(1,0,0,0.75,2,10.875)" cx="40" cy="43.5" r="2"/>
  <radialGradient inkscape:collect="always" xlink:href="#linearGradient3952" id="radialGradient4202" gradientUnits="userSpaceOnUse" gradientTransform="matrix(1.0571429,0,0,1.25,-4.4000003,-10.875)" cx="9" cy="43.5" r="2"/>
  <radialGradient inkscape:collect="always" xlink:href="#linearGradient3952" id="radialGradient4211" gradientUnits="userSpaceOnUse" gradientTransform="matrix(1,0,0,0.75,-3.0000003,10.875)" cx="9" cy="43.5" r="2"/>
  <linearGradient inkscape:collect="always" xlink:href="#linearGradient3960" id="linearGradient4208" gradientUnits="userSpaceOnUse" y1="45" x2="0" y2="42" gradientTransform="matrix(1.0571429,0,0,1.6666667,-5.4000003,-29)"/>
  <linearGradient id="linearGradient3960">
   <stop id="stop3962" stop-opacity="0"/>
   <stop id="stop3970" offset="0.5"/>
   <stop offset="1" id="stop3964" stop-opacity="0"/>
  </linearGradient>
  <linearGradient inkscape:collect="always" xlink:href="#linearGradient3960" id="linearGradient4217" gradientUnits="userSpaceOnUse" y1="45" x2="0" y2="42" gradientTransform="translate(-4.0000003,0)"/>
  <linearGradient inkscape:collect="always" xlink:href="#linearGradient3413-7" id="linearGradient3903" x1="2.5" x2="29.5" gradientUnits="userSpaceOnUse" gradientTransform="matrix(0,-1,1,0,0,32)"/>
  <linearGradient id="linearGradient3413-7">
   <stop id="stop3415-6" stop-color="#dddddd"/>
   <stop id="stop3886" offset="0.13" stop-color="#e2e2e2"/>
   <stop id="stop3884" offset="0.13" stop-color="#f0f0f0"/>
   <stop offset="1" id="stop3417-1" stop-color="#e6e6e6"/>
  </linearGradient>
 </defs>
 <g inkscape:groupmode="layer" id="layer1" inkscape:label="Background">
  <g id="g3111">
   <path d="m 42.885716,41.000001 0,5 0.528571,0 c 0.878486,0 1.585715,-1.115 1.585715,-2.5 0,-1.385 -0.707229,-2.5 -1.585715,-2.5 l -0.528571,0 z" id="path3987" inkscape:connector-curvature="0" opacity="0.12" fill="url(#radialGradient4205)"/>
   <path inkscape:connector-curvature="0" id="rect3940" d="m 42,42 0,3 0.5,0 C 43.331,45 44,44.331 44,43.5 44,42.669 43.331,42 42.5,42 L 42,42 z" opacity="0.12" fill="url(#radialGradient4214)"/>
   <path d="M 4.4866072,41.000001 C 3.6630268,41.000001 3,42.045313 3,43.343751 l 0,0.3125 c 0,1.298439 0.6630268,2.34375 1.4866072,2.34375 l 0.6276786,0 0,-5 -0.6276786,0 z" id="path3989" inkscape:connector-curvature="0" opacity="0.12" fill="url(#radialGradient4202)"/>
   <path inkscape:connector-curvature="0" id="rect3942" d="m 5.4062497,42 c -0.7790625,0 -1.40625,0.627187 -1.40625,1.40625 l 0,0.1875 c 0,0.779063 0.6271875,1.40625 1.40625,1.40625 l 0.59375,0 0,-3 -0.59375,0 z" opacity="0.12" fill="url(#radialGradient4211)"/>
   <path sodipodi:nodetypes="ccccc" inkscape:connector-curvature="0" id="rect3985" d="m 5.1141432,41 37.7717148,0 0,5 -37.7717148,0 z" opacity="0.12" fill="url(#linearGradient4208)"/>
   <path sodipodi:nodetypes="ccccc" inkscape:connector-curvature="0" id="rect3938" d="m 5.9998568,42 36.0002842,0 0,3 -36.0002842,0 z" opacity="0.12" fill="url(#linearGradient4217)"/>
  </g>
  <path d="m 6.437499,5 c -0.811949,0 -1.4375,0.6255532 -1.4375,1.4375 l 0,35.125 c 0,0.811947 0.625551,1.4375 1.4375,1.4375 l 35.125,0 c 0.811949,0 1.4375,-0.625553 1.4375,-1.4375 l 0,-35.125 C 42.999999,5.6255532 42.374448,5 41.562499,5 l -35.125,0 z" id="rect4073" inkscape:connector-curvature="0" fill="url(#linearGradient3877)"/>
  <rect id="rect4085" width="39" height="39" x="-43.5" y="-43.5" transform="matrix(0,-1,-1,0,0,0)" rx="1.95" opacity="0.41" fill="none" stroke="#000000"/>
  <path inkscape:connector-curvature="0" d="M 6.4375,5.00002 C 5.62555,5.00002 5,5.62557 5,6.43752 l 0,1 C 5,6.62557 5.62555,6.00002 6.4375,6.00002 l 35.125,0 c 0.81195,0 1.4375,0.62555 1.4375,1.4375 l 0,-1 c 0,-0.81195 -0.62555,-1.4375 -1.4375,-1.4375 l -35.125,0 z" id="rect4089-4" opacity="0.15" fill="#ffffff"/>
  <path transform="matrix(0,1,-1,0,280,-784)" d="M 790.4375,237 C 789.62555,237 789,237.62555 789,238.4375 l 0,35.09375 c 0,0.812 0.62555,1.46875 1.4375,1.46875 l 35.125,0 c 0.81195,0 1.4375,-0.65675 1.4375,-1.46875 l 0,-35.09375 C 827,237.62555 826.37445,237 825.5625,237 l -35.125,0 z" id="path4128" clip-path="url(#clipPath4130)" inkscape:connector-curvature="0" opacity="0.1" fill="none" stroke="url(#linearGradient4140)" stroke-width="2"/>
  <path id="path4105" d="M 6.4375,43.000017 C 5.62555,43.000017 5,42.374417 5,41.562517 L 5,40.56252 c 0,0.811897 0.62555,1.437497 1.4375,1.437497 l 35.125,0 c 0.81195,0 1.4375,-0.6256 1.4375,-1.437497 l 0,0.999997 c 0,0.8119 -0.62555,1.4375 -1.4375,1.4375 l -35.125,0 z" inkscape:connector-curvature="0" opacity="0.1" fill="#ffffff"/>
  <rect id="rect4128" width="38" height="1" x="5" y="37" rx="0" ry="0.5" opacity="0.5" fill="#ffffff" stroke-linejoin="round" stroke-linecap="round"/>
 </g>
 <g inkscape:groupmode="layer" id="layer2" inkscape:label="Symbol">
  <g id="g4139" transform="translate(0,0.999999)" opacity="0.3" fill="#ffffff">
   <path id="path4141" d="m 17.28,25.065001 0,-1.31 c -0.533341,0.466667 -1.070007,0.853333 -1.61,1.16 -0.540006,0.306666 -1.150005,0.459999 -1.83,0.46 -1.000003,-1e-6 -1.773336,-0.303334 -2.32,-0.91 -0.540002,-0.613333 -0.810001,-1.396665 -0.81,-2.35 -1e-6,-0.719997 0.139999,-1.316663 0.42,-1.79 0.286665,-0.479995 0.696664,-0.856661 1.23,-1.13 0.539997,-0.279994 1.319996,-0.479994 2.34,-0.6 l 2.58,-0.23 0,-0.51 c -8e-6,-0.806659 -0.226674,-1.356658 -0.68,-1.65 -0.446673,-0.293324 -1.066673,-0.439991 -1.86,-0.44 -0.706671,9e-6 -1.253337,0.123342 -1.64,0.37 -0.380003,0.246675 -0.653336,0.513341 -0.82,0.8 l -1.41,-0.86 c 0.319998,-0.579991 0.806664,-1.023324 1.46,-1.33 0.659996,-0.313323 1.476662,-0.469989 2.45,-0.47 1.50666,1.1e-5 2.586659,0.273344 3.24,0.82 0.653324,0.546676 0.97999,1.493342 0.98,2.84 l 0,7.13 -1.72,0 m 0,-5.32 -1.68,0.16 c -1.140005,0.100005 -1.943338,0.323338 -2.41,0.67 -0.46667,0.340004 -0.700003,0.840003 -0.7,1.5 -3e-6,0.626669 0.156663,1.076668 0.47,1.35 0.313329,0.273334 0.783329,0.410001 1.41,0.41 0.259995,1e-6 0.516661,-0.04667 0.77,-0.14 0.253327,-0.1 0.503327,-0.219999 0.75,-0.36 0.24666,-0.146665 0.483326,-0.309998 0.71,-0.49 0.233326,-0.186665 0.459992,-0.366664 0.68,-0.54 l 0,-2.56 m -2.31,-6.76 -2.73,-3.6100001 2.36,0 1.78,3.6100001 -1.41,0" inkscape:connector-curvature="0"/>
  </g>
  <g id="text4130" fill="#666666">
   <path d="m 17.28,25.065001 0,-1.31 c -0.533341,0.466667 -1.070007,0.853333 -1.61,1.16 -0.540006,0.306666 -1.150005,0.459999 -1.83,0.46 -1.000003,-1e-6 -1.773336,-0.303334 -2.32,-0.91 -0.540002,-0.613333 -0.810001,-1.396665 -0.81,-2.35 -1e-6,-0.719997 0.139999,-1.316663 0.42,-1.79 0.286665,-0.479995 0.696664,-0.856661 1.23,-1.13 0.539997,-0.279994 1.319996,-0.479994 2.34,-0.6 l 2.58,-0.23 0,-0.51 c -8e-6,-0.806659 -0.226674,-1.356658 -0.68,-1.65 -0.446673,-0.293324 -1.066673,-0.439991 -1.86,-0.44 -0.706671,9e-6 -1.253337,0.123342 -1.64,0.37 -0.380003,0.246675 -0.653336,0.513341 -0.82,0.8 l -1.41,-0.86 c 0.319998,-0.579991 0.806664,-1.023324 1.46,-1.33 0.659996,-0.313323 1.476662,-0.469989 2.45,-0.47 1.50666,1.1e-5 2.586659,0.273344 3.24,0.82 0.653324,0.546676 0.97999,1.493342 0.98,2.84 l 0,7.13 -1.72,0 m 0,-5.32 -1.68,0.16 c -1.140005,0.100005 -1.943338,0.323338 -2.41,0.67 -0.46667,0.340004 -0.700003,0.840003 -0.7,1.5 -3e-6,0.626669 0.156663,1.076668 0.47,1.35 0.313329,0.273334 0.783329,0.410001 1.41,0.41 0.259995,1e-6 0.516661,-0.04667 0.77,-0.14 0.253327,-0.1 0.503327,-0.219999 0.75,-0.36 0.24666,-0.146665 0.483326,-0.309998 0.71,-0.49 0.233326,-0.186665 0.459992,-0.366664 0.68,-0.54 l 0,-2.56 m -2.31,-6.76 -2.73,-3.6100001 2.36,0 1.78,3.6100001 -1.41,0" id="path4137"/>
  </g>
 </g>
</svg>
