<?xml version="1.0" encoding="UTF-8" standalone="no"?>
<!-- Created with Inkscape (http://www.inkscape.org/) -->

<svg
   xmlns:dc="http://purl.org/dc/elements/1.1/"
   xmlns:cc="http://creativecommons.org/ns#"
   xmlns:rdf="http://www.w3.org/1999/02/22-rdf-syntax-ns#"
   xmlns:svg="http://www.w3.org/2000/svg"
   xmlns="http://www.w3.org/2000/svg"
   xmlns:xlink="http://www.w3.org/1999/xlink"
   xmlns:sodipodi="http://sodipodi.sourceforge.net/DTD/sodipodi-0.dtd"
   xmlns:inkscape="http://www.inkscape.org/namespaces/inkscape"
   id="svg3786"
   height="48"
   width="48"
   version="1.0"
   inkscape:version="0.48.4 r9939"
   sodipodi:docname="drive-harddisk.svg">
  <metadata
     id="metadata39">
    <rdf:RDF>
      <cc:Work
         rdf:about="">
        <dc:format>image/svg+xml</dc:format>
        <dc:type
           rdf:resource="http://purl.org/dc/dcmitype/StillImage" />
        <dc:title></dc:title>
      </cc:Work>
    </rdf:RDF>
  </metadata>
  <sodipodi:namedview
     pagecolor="#ffffff"
     bordercolor="#666666"
     borderopacity="1"
     objecttolerance="10"
     gridtolerance="10"
     guidetolerance="10"
     inkscape:pageopacity="0"
     inkscape:pageshadow="2"
     inkscape:window-width="1364"
     inkscape:window-height="701"
     id="namedview37"
     showgrid="false"
     inkscape:zoom="1"
     inkscape:cx="-117.8745"
     inkscape:cy="21.518886"
     inkscape:window-x="0"
     inkscape:window-y="28"
     inkscape:window-maximized="1"
     inkscape:current-layer="layer1"
     showguides="true"
     inkscape:guide-bbox="true"
     inkscape:snap-global="true"
     inkscape:snap-bbox="true"
     inkscape:bbox-nodes="true"
     inkscape:snap-bbox-edge-midpoints="true"
     showborder="false">
    <inkscape:grid
       type="xygrid"
       id="grid3248"
       empspacing="5"
       visible="true"
       enabled="true"
       snapvisiblegridlinesonly="true" />
  </sodipodi:namedview>
  <defs
     id="defs3788">
    <linearGradient
       inkscape:collect="always"
       id="linearGradient4109">
      <stop
         style="stop-color:#000000;stop-opacity:1;"
         offset="0"
         id="stop4111" />
      <stop
         style="stop-color:#000000;stop-opacity:0;"
         offset="1"
         id="stop4113" />
    </linearGradient>
    <linearGradient
       x1="17.741"
       y1="24.05"
       gradientTransform="matrix(0.99778,0,0,0.88551429,0.053179,4.2043715)"
       x2="11.218"
       gradientUnits="userSpaceOnUse"
       y2="12.883"
       id="linearGradient4097">
      <stop
         offset="0"
         style="stop-color:#acacac;stop-opacity:1;"
         id="stop4099" />
      <stop
         id="stop4101"
         style="stop-color:#b6b6b6;stop-opacity:1;"
         offset="0.25" />
      <stop
         id="stop4103"
         style="stop-color:#d9d9d9;stop-opacity:1;"
         offset="0.25" />
      <stop
         offset="1"
         style="stop-color:#d4d4d4;stop-opacity:1;"
         id="stop4105" />
    </linearGradient>
    <linearGradient
       id="linearGradient3861"
       y2="12.883"
       gradientUnits="userSpaceOnUse"
       x2="11.218"
       gradientTransform="matrix(0.99778,0,0,0.88551429,0.053179,4.2043715)"
       y1="24.05"
       x1="17.741">
      <stop
         id="stop3863"
         style="stop-color:#c5c5c5;stop-opacity:1;"
         offset="0" />
      <stop
         offset="0.08347408"
         style="stop-color:#cfcfcf;stop-opacity:1;"
         id="stop3865" />
      <stop
         offset="0.08347408"
         style="stop-color:#d9d9d9;stop-opacity:1;"
         id="stop3867" />
      <stop
         id="stop3869"
         style="stop-color:#d4d4d4;stop-opacity:1;"
         offset="1" />
    </linearGradient>
    <linearGradient
       x1="17.741"
       y1="24.05"
       gradientTransform="matrix(0.99778,0,0,0.88551429,0.053179,4.2043715)"
       x2="11.218"
       gradientUnits="userSpaceOnUse"
       y2="12.883"
       id="linearGradient3844">
      <stop
         offset="0"
         style="stop-color:#c5c5c5;stop-opacity:1;"
         id="stop3846" />
      <stop
         id="stop3848"
         style="stop-color:#cdcdcd;stop-opacity:1;"
         offset="0.11814719" />
      <stop
         id="stop3850"
         style="stop-color:#bebebe;stop-opacity:1;"
         offset="0.11814719" />
      <stop
         offset="1"
         style="stop-color:#e1e1e1;stop-opacity:1;"
         id="stop3852" />
    </linearGradient>
    <radialGradient
       r="23"
       gradientTransform="matrix(1.1924,0.53139429,-0.49419,0.81474,3.4847,3.6991715)"
       cx="14.237"
       cy="12.595"
       gradientUnits="userSpaceOnUse"
       id="radialGradient3841">
      <stop
         offset="0"
         style="stop-color:#f5f5f5;stop-opacity:1"
         id="stop3843" />
      <stop
         offset="1"
         style="stop-color:#e1e1e1;stop-opacity:1"
         id="stop3845" />
    </radialGradient>
    <linearGradient
       id="linearGradient4028">
      <stop
         style="stop-color:#888888;stop-opacity:1;"
         offset="0"
         id="stop4030" />
      <stop
         style="stop-color:#282828;stop-opacity:1;"
         offset="1"
         id="stop4032" />
    </linearGradient>
    <linearGradient
       id="linearGradient5060">
      <stop
         id="stop5062"
         offset="0" />
      <stop
         id="stop5064"
         style="stop-opacity:0"
         offset="1" />
    </linearGradient>
    <radialGradient
       id="radialGradient2857"
       gradientUnits="userSpaceOnUse"
       cy="42"
       cx="24"
       gradientTransform="matrix(.90476 1.019e-7 -2.6817e-8 .23810 2.2857 30)"
       r="21">
      <stop
         id="stop6312"
         style="stop-color:#fff"
         offset="0" />
      <stop
         id="stop6314"
         style="stop-color:#fff;stop-opacity:0"
         offset="1" />
    </radialGradient>
    <radialGradient
       id="radialGradient2862"
       gradientUnits="userSpaceOnUse"
       cy="12.595"
       cx="14.237"
       gradientTransform="matrix(1.1924,0.53139429,-0.49419,0.81474,3.4847,3.6991715)"
       r="23">
      <stop
         id="stop7064"
         style="stop-color:#e2e2e4;stop-opacity:1;"
         offset="0" />
      <stop
         id="stop7060"
         style="stop-color:#c9c9ca;stop-opacity:1;"
         offset="1" />
    </radialGradient>
    <linearGradient
       id="linearGradient2864"
       y2="12.883"
       gradientUnits="userSpaceOnUse"
       x2="11.218"
       gradientTransform="matrix(0.99778,0,0,0.88551429,0.053179,4.2043715)"
       y1="24.05"
       x1="17.741">
      <stop
         id="stop3486"
         style="stop-color:#9c9c9c;stop-opacity:1;"
         offset="0" />
      <stop
         offset="0.25"
         style="stop-color:#5d5d5d;stop-opacity:1;"
         id="stop3842" />
      <stop
         offset="0.5"
         style="stop-color:#717171;stop-opacity:1;"
         id="stop3840" />
      <stop
         id="stop3488"
         style="stop-color:#bebebe;stop-opacity:1;"
         offset="1" />
    </linearGradient>
    <linearGradient
       id="linearGradient2868"
       y2="40.703999"
       gradientUnits="userSpaceOnUse"
       x2="28.375"
       gradientTransform="matrix(1.0002,0,0,0.25022851,-5.0044,27.114611)"
       y1="50.296001"
       x1="28.438"
       xlink:href="#linearGradient2864">
      <stop
         id="stop2223"
         style="stop-color:#aaa"
         offset="0" />
      <stop
         id="stop2219"
         style="stop-color:#646464"
         offset="1" />
    </linearGradient>
    <radialGradient
       id="radialGradient2871"
       xlink:href="#linearGradient5060"
       gradientUnits="userSpaceOnUse"
       cy="486.65"
       cx="605.71"
       gradientTransform="matrix(-0.044847,0,0,0.020588,32.611,32.451)"
       r="117.14" />
    <radialGradient
       id="radialGradient2874"
       xlink:href="#linearGradient5060"
       gradientUnits="userSpaceOnUse"
       cy="486.65"
       cx="605.71"
       gradientTransform="matrix(0.044847,0,0,0.020588,15.389,32.451)"
       r="117.14" />
    <linearGradient
       id="linearGradient2877"
       y2="609.51"
       gradientUnits="userSpaceOnUse"
       x2="302.86"
       gradientTransform="matrix(0.076357,0,0,0.020588,-3.5974,32.451)"
       y1="366.65"
       x1="302.86">
      <stop
         id="stop5050"
         style="stop-opacity:0"
         offset="0" />
      <stop
         id="stop5056"
         offset=".5" />
      <stop
         id="stop5052"
         style="stop-opacity:0"
         offset="1" />
    </linearGradient>
    <linearGradient
       id="linearGradient3155-40-33">
      <stop
         id="stop2847"
         offset="0"
         style="stop-color:#1b1b1b;stop-opacity:1;" />
      <stop
         style="stop-color:#f3f3f3;stop-opacity:1;"
         offset="0.13482948"
         id="stop2849" />
      <stop
         id="stop2851"
         offset="0.20224422"
         style="stop-color:#b6b6b6;stop-opacity:1;" />
      <stop
         style="stop-color:#ffffff;stop-opacity:1;"
         offset="0.26965895"
         id="stop2853" />
      <stop
         id="stop2855"
         offset="0.44650277"
         style="stop-color:#9d9d9d;stop-opacity:1;" />
      <stop
         style="stop-color:#a6a6a6;stop-opacity:1;"
         offset="0.57114136"
         id="stop2857" />
      <stop
         id="stop2859"
         offset="0.72038066"
         style="stop-color:#e5e5e5;stop-opacity:1;" />
      <stop
         id="stop2861"
         offset="1"
         style="stop-color:#1b1b1b;stop-opacity:1;" />
    </linearGradient>
    <linearGradient
       id="linearGradient3191-577-747-672">
      <stop
         id="stop2865"
         offset="0"
         style="stop-color:#5e5e5e;stop-opacity:1;" />
      <stop
         id="stop2867"
         offset="1"
         style="stop-color:#5a5a5a;stop-opacity:1;" />
    </linearGradient>
    <linearGradient
       id="linearGradient3155-40">
      <stop
         id="stop2541"
         offset="0"
         style="stop-color:#181818;stop-opacity:1;" />
      <stop
         style="stop-color:#dbdbdb;stop-opacity:1;"
         offset="0.13482948"
         id="stop2543" />
      <stop
         id="stop2545"
         offset="0.20224422"
         style="stop-color:#a4a4a4;stop-opacity:1;" />
      <stop
         style="stop-color:#ffffff;stop-opacity:1;"
         offset="0.26965895"
         id="stop2547" />
      <stop
         id="stop2549"
         offset="0.44650277"
         style="stop-color:#8d8d8d;stop-opacity:1;" />
      <stop
         style="stop-color:#959595;stop-opacity:1;"
         offset="0.57114136"
         id="stop2551" />
      <stop
         id="stop2553"
         offset="0.72038066"
         style="stop-color:#cecece;stop-opacity:1;" />
      <stop
         id="stop2555"
         offset="1"
         style="stop-color:#181818;stop-opacity:1;" />
    </linearGradient>
    <linearGradient
       id="linearGradient3319">
      <stop
         style="stop-color:#7f96af;stop-opacity:1;"
         offset="0"
         id="stop3321" />
      <stop
         style="stop-color:#485c73;stop-opacity:1;"
         offset="1"
         id="stop3323" />
    </linearGradient>
    <linearGradient
       id="linearGradient4642">
      <stop
         id="stop4644"
         offset="0"
         style="stop-color:#4e535a;stop-opacity:1;" />
      <stop
         style="stop-color:#151c20;stop-opacity:1"
         offset="0.15977758"
         id="stop4646" />
      <stop
         id="stop4648"
         offset="0.1672256"
         style="stop-color:#4b5f76;stop-opacity:1;" />
      <stop
         style="stop-color:#4b5f76;stop-opacity:1;"
         offset="1"
         id="stop4650" />
    </linearGradient>
    <linearGradient
       id="linearGradient8967">
      <stop
         id="stop8969"
         offset="0"
         style="stop-color:#bdccdd;stop-opacity:1;" />
      <stop
         id="stop8971"
         offset="1"
         style="stop-color:#506985;stop-opacity:1;" />
    </linearGradient>
    <linearGradient
       id="linearGradient5048">
      <stop
         style="stop-color:black;stop-opacity:0;"
         offset="0"
         id="stop5050-3" />
      <stop
         id="stop5056-6"
         offset="0.5"
         style="stop-color:black;stop-opacity:1;" />
      <stop
         style="stop-color:black;stop-opacity:0;"
         offset="1"
         id="stop5052-5" />
    </linearGradient>
    <linearGradient
       inkscape:collect="always"
       xlink:href="#linearGradient3155-40"
       id="linearGradient3234"
       gradientUnits="userSpaceOnUse"
       gradientTransform="matrix(0.8239774,-0.8548421,0.7471754,0.7309632,-88.855277,1.674494)"
       spreadMethod="pad"
       x1="23.575972"
       y1="25.356892"
       x2="23.575972"
       y2="31.210939" />
    <linearGradient
       inkscape:collect="always"
       xlink:href="#linearGradient3155-40-33"
       id="linearGradient3236"
       gradientUnits="userSpaceOnUse"
       gradientTransform="matrix(0.8006848,-0.8306768,0.8744329,0.8554595,-91.49015,-1.532335)"
       x1="10.86941"
       y1="25.077497"
       x2="11.083416"
       y2="30.467169" />
    <linearGradient
       inkscape:collect="always"
       xlink:href="#linearGradient3191-577-747-672"
       id="linearGradient3238"
       gradientUnits="userSpaceOnUse"
       gradientTransform="matrix(0.6334257,-0.05500901,-0.03910351,0.6392777,-64.706197,-9.126561)"
       x1="5.7117834"
       y1="37.817223"
       x2="9.5220556"
       y2="41.391716" />
    <radialGradient
       inkscape:collect="always"
       xlink:href="#linearGradient4028"
       id="radialGradient4034"
       cx="18.466358"
       cy="30.272728"
       fx="18.466358"
       fy="30.272728"
       r="15.75"
       gradientTransform="matrix(1.3672154,0.1004445,-0.10595236,1.4421864,-3.5736635,-14.51376)"
       gradientUnits="userSpaceOnUse" />
    <linearGradient
       inkscape:collect="always"
       xlink:href="#linearGradient2864"
       id="linearGradient4044"
       x1="27.74963"
       y1="56.627556"
       x2="27.74963"
       y2="33.690407"
       gradientUnits="userSpaceOnUse"
       gradientTransform="translate(0,3)" />
    <linearGradient
       inkscape:collect="always"
       xlink:href="#linearGradient2864"
       id="linearGradient4046"
       gradientUnits="userSpaceOnUse"
       gradientTransform="matrix(0.99778,0,0,0.88551429,0.053179,7.2043715)"
       x1="17.740999"
       y1="24.049999"
       x2="11.218"
       y2="12.883" />
    <linearGradient
       inkscape:collect="always"
       xlink:href="#linearGradient3844"
       id="linearGradient3838"
       gradientUnits="userSpaceOnUse"
       gradientTransform="translate(-0.25,3)"
       x1="25.097979"
       y1="39.833771"
       x2="25.009592"
       y2="15.040465" />
    <linearGradient
       inkscape:collect="always"
       xlink:href="#linearGradient2877"
       id="linearGradient3883"
       gradientUnits="userSpaceOnUse"
       gradientTransform="matrix(0.076357,0,0,0.020588,-3.5974,32.451)"
       x1="302.86"
       y1="366.65"
       x2="302.86"
       y2="609.51" />
    <radialGradient
       inkscape:collect="always"
       xlink:href="#linearGradient5060"
       id="radialGradient3885"
       gradientUnits="userSpaceOnUse"
       gradientTransform="matrix(0.044847,0,0,0.020588,15.389,32.451)"
       cx="605.71"
       cy="486.65"
       r="117.14" />
    <radialGradient
       inkscape:collect="always"
       xlink:href="#linearGradient5060"
       id="radialGradient3887"
       gradientUnits="userSpaceOnUse"
       gradientTransform="matrix(-0.044847,0,0,0.020588,32.611,32.451)"
       cx="605.71"
       cy="486.65"
       r="117.14" />
    <linearGradient
       id="linearGradient3847">
      <stop
         style="stop-color:#f2f2f2;stop-opacity:1;"
         offset="0"
         id="stop3849" />
      <stop
         style="stop-color:#ebebeb;stop-opacity:0;"
         offset="1"
         id="stop3851" />
    </linearGradient>
    <linearGradient
       id="linearGradient6883">
      <stop
         id="stop6885"
         offset="0"
         style="stop-color:#000000;stop-opacity:1;" />
      <stop
         id="stop6887"
         offset="1"
         style="stop-color:#000000;stop-opacity:0;" />
    </linearGradient>
    <linearGradient
       inkscape:collect="always"
       xlink:href="#linearGradient3952-0"
       id="linearGradient3916"
       gradientUnits="userSpaceOnUse"
       gradientTransform="matrix(-1,0,0,1,352.87279,-65.715531)"
       x1="328.62787"
       y1="74.43293"
       x2="327.47882"
       y2="67.36187" />
    <linearGradient
       inkscape:collect="always"
       id="linearGradient3952-0">
      <stop
         style="stop-color:#000000;stop-opacity:1;"
         offset="0"
         id="stop3954-1" />
      <stop
         style="stop-color:#000000;stop-opacity:0;"
         offset="1"
         id="stop3956-6" />
    </linearGradient>
    <linearGradient
       inkscape:collect="always"
       xlink:href="#linearGradient4097"
       id="linearGradient4072"
       gradientUnits="userSpaceOnUse"
       gradientTransform="translate(-0.25,1)"
       x1="25.25"
       y1="39"
       x2="25.25"
       y2="15" />
    <radialGradient
       inkscape:collect="always"
       xlink:href="#linearGradient5060"
       id="radialGradient4075"
       gradientUnits="userSpaceOnUse"
       gradientTransform="matrix(-0.044847,0,0,0.020588,32.611,31.451)"
       cx="605.71"
       cy="486.65"
       r="117.14" />
    <radialGradient
       inkscape:collect="always"
       xlink:href="#linearGradient5060"
       id="radialGradient4078"
       gradientUnits="userSpaceOnUse"
       gradientTransform="matrix(0.044847,0,0,0.020588,15.389,31.451)"
       cx="605.71"
       cy="486.65"
       r="117.14" />
    <linearGradient
       inkscape:collect="always"
       xlink:href="#linearGradient2877"
       id="linearGradient4081"
       gradientUnits="userSpaceOnUse"
       gradientTransform="matrix(0.076357,0,0,0.020588,-3.5974,31.451)"
       x1="302.86"
       y1="366.65"
       x2="302.86"
       y2="609.51" />
    <linearGradient
       inkscape:collect="always"
       xlink:href="#linearGradient4109"
       id="linearGradient4115"
       x1="25"
       y1="35.625"
       x2="25"
       y2="46.125"
       gradientUnits="userSpaceOnUse" />
    <clipPath
       clipPathUnits="userSpaceOnUse"
       id="clipPath4121">
      <path
         sodipodi:nodetypes="ccccc"
         inkscape:connector-curvature="0"
         id="path4123"
         d="M 3.3977476,37 4,40 43.441942,40 44,37 z"
         style="opacity:0.5;fill:url(#linearGradient4125);fill-opacity:1;stroke:none" />
    </clipPath>
    <linearGradient
       inkscape:collect="always"
       xlink:href="#linearGradient4109"
       id="linearGradient4125"
       gradientUnits="userSpaceOnUse"
       x1="25"
       y1="35.625"
       x2="25"
       y2="46.125" />
    <linearGradient
       inkscape:collect="always"
       xlink:href="#linearGradient4097"
       id="linearGradient4169"
       gradientUnits="userSpaceOnUse"
       gradientTransform="translate(-0.25,3)"
       x1="25.25"
       y1="39"
       x2="25.25"
       y2="15" />
    <linearGradient
       inkscape:collect="always"
       xlink:href="#linearGradient7772"
       id="linearGradient7778"
       x1="12"
       y1="24"
       x2="12"
       y2="3"
       gradientUnits="userSpaceOnUse" />
    <linearGradient
       inkscape:collect="always"
       id="linearGradient7772">
      <stop
         style="stop-color:#979797;stop-opacity:1;"
         offset="0"
         id="stop7774" />
      <stop
         style="stop-color:#e3e3e3;stop-opacity:1"
         offset="1"
         id="stop7776" />
    </linearGradient>
    <linearGradient
       inkscape:collect="always"
       xlink:href="#linearGradient7772"
       id="linearGradient7786"
       gradientUnits="userSpaceOnUse"
       x1="12"
       y1="24"
       x2="12"
       y2="3" />
    <linearGradient
       inkscape:collect="always"
       xlink:href="#linearGradient7799"
       id="linearGradient7805"
       x1="12"
       y1="0"
       x2="12"
       y2="24"
       gradientUnits="userSpaceOnUse" />
    <linearGradient
       inkscape:collect="always"
       id="linearGradient7799">
      <stop
         style="stop-color:#ffffff;stop-opacity:1;"
         offset="0"
         id="stop7801" />
      <stop
         style="stop-color:#ffffff;stop-opacity:0;"
         offset="1"
         id="stop7803" />
    </linearGradient>
    <clipPath
       clipPathUnits="userSpaceOnUse"
       id="clipPath7793">
      <path
         id="path7795"
         d="m 11,2 0,1.2871094 0,0.6328125 A 0.50005,0.50005 0 0 1 10.98633,4.0351562 C 10.95871,4.1527902 10.88851,4.3563441 10.732424,4.4863281 10.576333,4.6163171 10.464145,4.6365869 10.33008,4.6855469 9.9753975,4.8150859 9.5736197,4.884376 9.1328125,5.078125 8.7769999,5.234515 8.4986498,5.3806056 8.2851562,5.4941406 8.0716629,5.6076746 8.0048246,5.68867 7.7304688,5.75 7.7079389,5.75504 7.6140951,5.786455 7.4726562,5.765625 7.3312174,5.744795 7.276523,5.7053313 7.21875,5.6757812 7.011639,5.5698552 6.8250211,5.4109584 6.5449219,5.1308594 L 5.6367188,4.2226562 4.9296875,4.9296875 4.2226562,5.6367188 5.1328125,6.546875 5.578125,6.9921875 a 0.50005,0.50005 0 0 1 0.070312,0.089844 C 5.712542,7.1848746 5.8080911,7.3771014 5.7910151,7.5800784 5.7739391,7.7830554 5.7085851,7.8798829 5.648437,8.0097659 5.4885297,8.3550669 5.253834,8.6849108 5.0800776,9.1328128 4.939463,9.4952848 4.8454371,9.7940749 4.7753901,10.025391 c -0.070047,0.231316 -0.05894,0.334338 -0.2109375,0.574218 -0.012432,0.01962 -0.056333,0.110613 -0.171875,0.195313 -0.1155421,0.0847 -0.1793023,0.09364 -0.2402343,0.113281 C 3.9334737,10.978763 3.6863687,11 3.2890625,11 L 2,11 l 0,1 0,1 1.2890625,0 0.6308594,0 a 0.50005,0.50005 0 0 1 0.1152343,0.01367 c 0.1176336,0.02762 0.321188,0.09782 0.4511719,0.253906 0.1299839,0.156091 0.1502563,0.268279 0.1992188,0.402344 0.1295321,0.354673 0.1988291,0.756456 0.3925781,1.197266 0.1564236,0.355888 0.3024834,0.634106 0.4160156,0.847656 0.1135323,0.213549 0.1943537,0.279927 0.2558594,0.554687 0.00482,0.02152 0.037071,0.114924 0.015625,0.257813 -0.021446,0.142889 -0.060718,0.195063 -0.089844,0.251953 -0.1057945,0.206644 -0.264715,0.393622 -0.5449218,0.673828 l -0.9082032,0.910156 0.7070313,0.707031 0.7070313,0.707032 0.9101562,-0.910156 0.4453125,-0.445313 a 0.50005,0.50005 0 0 1 0.089844,-0.07031 c 0.1028433,-0.0641 0.2950694,-0.159654 0.4980469,-0.142578 0.2029776,0.01708 0.2998051,0.08243 0.4296875,0.142578 0.3453023,0.159909 0.6751443,0.394603 1.1230469,0.56836 0.3624714,0.140615 0.6612618,0.23464 0.8925784,0.304687 0.231316,0.07005 0.33434,0.05894 0.574218,0.210938 0.01961,0.01243 0.110603,0.05633 0.195313,0.171875 0.08471,0.115541 0.09364,0.179294 0.113281,0.240234 C 10.978763,20.066518 11,20.313629 11,20.710938 L 11,22 l 1,0 1,0 0,-1.289062 0,-0.63086 a 0.50005,0.50005 0 0 1 0.01367,-0.115234 c 0.02762,-0.117634 0.09782,-0.321188 0.253906,-0.451172 0.156091,-0.129989 0.268279,-0.150259 0.402344,-0.199219 0.35468,-0.129539 0.756457,-0.198829 1.197266,-0.392578 0.355887,-0.156424 0.634106,-0.302483 0.847656,-0.416016 0.213549,-0.113532 0.279927,-0.194349 0.554687,-0.255859 0.02154,-0.0048 0.11493,-0.03708 0.257813,-0.01563 0.142882,0.02145 0.195073,0.06072 0.251953,0.08984 0.206673,0.105801 0.393626,0.264716 0.673828,0.544922 l 0.910156,0.908203 0.707031,-0.707032 0.707032,-0.707031 -0.910156,-0.910156 -0.445313,-0.445313 a 0.50005,0.50005 0 0 1 -0.07031,-0.08984 c -0.06411,-0.102844 -0.159658,-0.29507 -0.142578,-0.498047 0.01708,-0.202977 0.08243,-0.299806 0.142578,-0.429688 0.159909,-0.345301 0.394603,-0.675145 0.56836,-1.123046 0.140615,-0.362472 0.234637,-0.661263 0.304687,-0.892579 0.07005,-0.231316 0.05894,-0.334337 0.210938,-0.574218 0.01243,-0.01961 0.05633,-0.110603 0.171875,-0.195313 0.115541,-0.08471 0.179294,-0.09364 0.240234,-0.113281 C 20.066518,13.021237 20.31363,13 20.710938,13 L 22,13 l 0,-2 -1.289062,0 -0.63086,0 A 0.50005,0.50005 0 0 1 19.964844,10.98633 C 19.84721,10.95871 19.643656,10.888513 19.513672,10.732422 19.383683,10.576331 19.363413,10.464143 19.314453,10.330078 19.184915,9.9753981 19.115624,9.5736205 18.921875,9.1328125 18.765399,8.7768045 18.619341,8.4986392 18.505859,8.2851562 18.392378,8.0716743 18.3116,8.0038818 18.25,7.7304688 18.2459,7.7123328 18.21175,7.6275739 18.23047,7.4824219 18.24919,7.3372699 18.29227,7.2813663 18.32227,7.2226562 18.428295,7.0151432 18.587035,6.827031 18.867192,6.546875 L 19.777344,5.6367188 19.070312,4.9296875 18.363281,4.2226562 17.453125,5.1328125 17.007812,5.578125 a 0.50005,0.50005 0 0 1 -0.08984,0.070312 C 16.815125,5.7125465 16.622899,5.8080956 16.419922,5.7910156 16.216945,5.7739386 16.120116,5.7085875 15.990234,5.6484375 15.644933,5.4885305 15.31509,5.2538351 14.867188,5.0800781 14.504508,4.9393831 14.206168,4.8440075 13.974609,4.7734375 13.743051,4.7028665 13.638996,4.714091 13.400391,4.5625 13.381285,4.55036 13.290198,4.506523 13.205078,4.390625 13.119957,4.274727 13.111467,4.2094875 13.091797,4.1484375 13.021347,3.9297465 13,3.6843524 13,3.2871094 L 13,2 12,2 11,2 z m 1,5 c 2.759989,0 5,2.240011 5,5 0,2.759989 -2.240011,5 -5,5 C 9.2400111,17 7,14.759989 7,12 7,9.240011 9.2400111,7 12,7 z"
         style="fill:url(#linearGradient7797);fill-opacity:1;stroke:none"
         inkscape:connector-curvature="0" />
    </clipPath>
    <linearGradient
       y2="17"
       x2="12"
       y1="7"
       x1="12"
       gradientUnits="userSpaceOnUse"
       id="linearGradient3065"
       xlink:href="#linearGradient7799"
       inkscape:collect="always" />
    <clipPath
       clipPathUnits="userSpaceOnUse"
       id="clipPath3314">
      <path
         id="path3316"
         d="m 11,2 0,1.2871094 0,0.6328125 A 0.50005,0.50005 0 0 1 10.98633,4.0351562 C 10.95871,4.1527902 10.88851,4.3563441 10.732424,4.4863281 10.576333,4.6163171 10.464145,4.6365869 10.33008,4.6855469 9.9753975,4.8150859 9.5736197,4.884376 9.1328125,5.078125 8.7769999,5.234515 8.4986498,5.3806056 8.2851562,5.4941406 8.0716629,5.6076746 8.0048246,5.68867 7.7304688,5.75 7.7079389,5.75504 7.6140951,5.786455 7.4726562,5.765625 7.3312174,5.744795 7.276523,5.7053313 7.21875,5.6757812 7.011639,5.5698552 6.8250211,5.4109584 6.5449219,5.1308594 L 5.6367188,4.2226562 4.9296875,4.9296875 4.2226562,5.6367188 5.1328125,6.546875 5.578125,6.9921875 a 0.50005,0.50005 0 0 1 0.070312,0.089844 C 5.712542,7.1848746 5.8080911,7.3771014 5.7910151,7.5800784 5.7739391,7.7830554 5.7085851,7.8798829 5.648437,8.0097659 5.4885297,8.3550669 5.253834,8.6849108 5.0800776,9.1328128 4.939463,9.4952848 4.8454371,9.7940749 4.7753901,10.025391 c -0.070047,0.231316 -0.05894,0.334338 -0.2109375,0.574218 -0.012432,0.01962 -0.056333,0.110613 -0.171875,0.195313 -0.1155421,0.0847 -0.1793023,0.09364 -0.2402343,0.113281 C 3.9334737,10.978763 3.6863687,11 3.2890625,11 L 2,11 l 0,1 0,1 1.2890625,0 0.6308594,0 a 0.50005,0.50005 0 0 1 0.1152343,0.01367 c 0.1176336,0.02762 0.321188,0.09782 0.4511719,0.253906 0.1299839,0.156091 0.1502563,0.268279 0.1992188,0.402344 0.1295321,0.354673 0.1988291,0.756456 0.3925781,1.197266 0.1564236,0.355888 0.3024834,0.634106 0.4160156,0.847656 0.1135323,0.213549 0.1943537,0.279927 0.2558594,0.554687 0.00482,0.02152 0.037071,0.114924 0.015625,0.257813 -0.021446,0.142889 -0.060718,0.195063 -0.089844,0.251953 -0.1057945,0.206644 -0.264715,0.393622 -0.5449218,0.673828 l -0.9082032,0.910156 0.7070313,0.707031 0.7070313,0.707032 0.9101562,-0.910156 0.4453125,-0.445313 a 0.50005,0.50005 0 0 1 0.089844,-0.07031 c 0.1028433,-0.0641 0.2950694,-0.159654 0.4980469,-0.142578 0.2029776,0.01708 0.2998051,0.08243 0.4296875,0.142578 0.3453023,0.159909 0.6751443,0.394603 1.1230469,0.56836 0.3624714,0.140615 0.6612618,0.23464 0.8925784,0.304687 0.231316,0.07005 0.33434,0.05894 0.574218,0.210938 0.01961,0.01243 0.110603,0.05633 0.195313,0.171875 0.08471,0.115541 0.09364,0.179294 0.113281,0.240234 C 10.978763,20.066518 11,20.313629 11,20.710938 L 11,22 l 1,0 1,0 0,-1.289062 0,-0.63086 a 0.50005,0.50005 0 0 1 0.01367,-0.115234 c 0.02762,-0.117634 0.09782,-0.321188 0.253906,-0.451172 0.156091,-0.129989 0.268279,-0.150259 0.402344,-0.199219 0.35468,-0.129539 0.756457,-0.198829 1.197266,-0.392578 0.355887,-0.156424 0.634106,-0.302483 0.847656,-0.416016 0.213549,-0.113532 0.279927,-0.194349 0.554687,-0.255859 0.02154,-0.0048 0.11493,-0.03708 0.257813,-0.01563 0.142882,0.02145 0.195073,0.06072 0.251953,0.08984 0.206673,0.105801 0.393626,0.264716 0.673828,0.544922 l 0.910156,0.908203 0.707031,-0.707032 0.707032,-0.707031 -0.910156,-0.910156 -0.445313,-0.445313 a 0.50005,0.50005 0 0 1 -0.07031,-0.08984 c -0.06411,-0.102844 -0.159658,-0.29507 -0.142578,-0.498047 0.01708,-0.202977 0.08243,-0.299806 0.142578,-0.429688 0.159909,-0.345301 0.394603,-0.675145 0.56836,-1.123046 0.140615,-0.362472 0.234637,-0.661263 0.304687,-0.892579 0.07005,-0.231316 0.05894,-0.334337 0.210938,-0.574218 0.01243,-0.01961 0.05633,-0.110603 0.171875,-0.195313 0.115541,-0.08471 0.179294,-0.09364 0.240234,-0.113281 C 20.066518,13.021237 20.31363,13 20.710938,13 L 22,13 l 0,-2 -1.289062,0 -0.63086,0 A 0.50005,0.50005 0 0 1 19.964844,10.98633 C 19.84721,10.95871 19.643656,10.888513 19.513672,10.732422 19.383683,10.576331 19.363413,10.464143 19.314453,10.330078 19.184915,9.9753981 19.115624,9.5736205 18.921875,9.1328125 18.765399,8.7768045 18.619341,8.4986392 18.505859,8.2851562 18.392378,8.0716743 18.3116,8.0038818 18.25,7.7304688 18.2459,7.7123328 18.21175,7.6275739 18.23047,7.4824219 18.24919,7.3372699 18.29227,7.2813663 18.32227,7.2226562 18.428295,7.0151432 18.587035,6.827031 18.867192,6.546875 L 19.777344,5.6367188 19.070312,4.9296875 18.363281,4.2226562 17.453125,5.1328125 17.007812,5.578125 a 0.50005,0.50005 0 0 1 -0.08984,0.070312 C 16.815125,5.7125465 16.622899,5.8080956 16.419922,5.7910156 16.216945,5.7739386 16.120116,5.7085875 15.990234,5.6484375 15.644933,5.4885305 15.31509,5.2538351 14.867188,5.0800781 14.504508,4.9393831 14.206168,4.8440075 13.974609,4.7734375 13.743051,4.7028665 13.638996,4.714091 13.400391,4.5625 13.381285,4.55036 13.290198,4.506523 13.205078,4.390625 13.119957,4.274727 13.111467,4.2094875 13.091797,4.1484375 13.021347,3.9297465 13,3.6843524 13,3.2871094 L 13,2 12,2 11,2 z m 1,5 c 2.759989,0 5,2.240011 5,5 0,2.759989 -2.240011,5 -5,5 C 9.2400111,17 7,14.759989 7,12 7,9.240011 9.2400111,7 12,7 z"
         style="fill:url(#linearGradient7797);fill-opacity:1;stroke:none"
         inkscape:connector-curvature="0" />
    </clipPath>
    <linearGradient
       y2="17"
       x2="12"
       y1="7"
       x1="12"
       gradientUnits="userSpaceOnUse"
       id="linearGradient3326"
       xlink:href="#linearGradient7799"
       inkscape:collect="always" />
  </defs>
  <g
     inkscape:groupmode="layer"
     id="layer1"
     inkscape:label="Background"
     style="display:inline">
    <g
       id="g4092"
       transform="translate(0,-2)">
      <rect
         x="5.5653"
         y="39"
         width="36.868999"
         height="5"
         style="opacity:0.3;fill:url(#linearGradient4081)"
         id="rect2723" />
      <path
         inkscape:connector-curvature="0"
         d="m 42.417,39 v 4.9997 c 2.309,0.009 5.583,-1.12 5.583,-2.5 0,-1.38 -2.577,-2.5 -5.583,-2.5 z"
         style="opacity:0.3;fill:url(#radialGradient4078)"
         id="path2725" />
      <path
         inkscape:connector-curvature="0"
         d="m 5.5833,39 v 4.9997 C 3.2738,44.0087 0,42.8797 0,41.4997 c 0,-1.38 2.5773,-2.5 5.5833,-2.5 z"
         style="opacity:0.3;fill:url(#radialGradient4075)"
         id="path2727" />
    </g>
    <path
       style="fill:url(#linearGradient4072);fill-opacity:1;fill-rule:evenodd;stroke:none;enable-background:new"
       d="m 9.75,12.5 c -0.8098,0 -2.03495,0.167807 -2.21875,0.84375 L 1.25,34 l 1,5.5 43.09375,0 0.90625,-5.53125 -6.78125,-20.625 C 39.30875,12.79595 38.409,12.5 37.75,12.5 z"
       id="rect6431"
       inkscape:connector-curvature="0"
       sodipodi:nodetypes="sccccccss" />
    <path
       inkscape:connector-curvature="0"
       id="path3856"
       d="m 10,12.5 c -0.8098,0 -2.03495,0.167807 -2.21875,0.84375 L 1.5,34.46875 46.5,34.5 39.71875,13.34375 C 39.55875,12.79595 38.659,12.5 38,12.5 z m 36.5,22 -45,0 1,6 43.09375,0 z"
       style="fill:none;stroke:none;enable-background:new"
       sodipodi:nodetypes="sccccssccccc" />
    <path
       sodipodi:nodetypes="sccccccss"
       inkscape:connector-curvature="0"
       id="path3873"
       d="m 9.75,12.5 c -0.8098,0 -2.03495,0.167807 -2.21875,0.84375 L 1.25,34 l 1,5.5 43.09375,0 0.90625,-5.53125 -6.78125,-20.625 C 39.30875,12.79595 38.409,12.5 37.75,12.5 z"
       style="opacity:0.41000001;fill:none;stroke:#000000;stroke-opacity:1;enable-background:new" />
    <rect
       style="opacity:0.41000001;fill:#ffffff;fill-opacity:1;stroke:none"
       id="rect3875"
       width="44"
       height="1"
       x="2"
       y="33"
       ry="0.5" />
    <path
       style="opacity:0.5;fill:#ffffff;fill-opacity:1;fill-rule:evenodd;stroke:none;enable-background:new"
       d="M 9.75,13 C 9.3796367,13 8.8882313,13.051396 8.53125,13.15625 8.1742687,13.261104 8.0208424,13.3921 8,13.46875 L 8,13.5 1.78125,34 1.90625,34.625 8,14.5 8,14.46875 C 8.0208424,14.3921 8.1742687,14.261104 8.53125,14.15625 8.8882313,14.051396 9.3796367,14 9.75,14 l 28,0 c 0.254652,0 0.591508,0.07771 0.84375,0.1875 0.252242,0.109788 0.390172,0.226203 0.40625,0.28125 L 39,14.5 45.625,34.625 45.71875,33.96875 39,13.5 39,13.46875 C 38.983922,13.413703 38.845992,13.297288 38.59375,13.1875 38.341508,13.07771 38.004652,13 37.75,13 l -28,0 z"
       id="path4161"
       inkscape:connector-curvature="0" />
    <path
       id="path3912"
       d="m 9.5,14.375 c -0.3436975,0 -0.625,0.281303 -0.625,0.625 0,0.343697 0.2813025,0.625 0.625,0.625 0.3436975,0 0.625,-0.281303 0.625,-0.625 0,-0.343697 -0.2813025,-0.625 -0.625,-0.625 z m 28,0 c -0.343697,0 -0.625,0.281303 -0.625,0.625 0,0.343697 0.281303,0.625 0.625,0.625 0.343697,0 0.625,-0.281303 0.625,-0.625 0,-0.343697 -0.281303,-0.625 -0.625,-0.625 z m -33,17 c -0.3436975,0 -0.625,0.281303 -0.625,0.625 0,0.343697 0.2813025,0.625 0.625,0.625 0.3436975,0 0.625,-0.281303 0.625,-0.625 0,-0.343697 -0.2813025,-0.625 -0.625,-0.625 z m 38,0 c -0.343697,0 -0.625,0.281303 -0.625,0.625 0,0.343697 0.281303,0.625 0.625,0.625 0.343697,0 0.625,-0.281303 0.625,-0.625 0,-0.343697 -0.281303,-0.625 -0.625,-0.625 z"
       style="font-size:medium;font-style:normal;font-variant:normal;font-weight:normal;font-stretch:normal;text-indent:0;text-align:start;text-decoration:none;line-height:normal;letter-spacing:normal;word-spacing:normal;text-transform:none;direction:ltr;block-progression:tb;writing-mode:lr-tb;text-anchor:start;baseline-shift:baseline;opacity:0.40000000000000002;color:#000000;fill:#ffffff;fill-opacity:1;stroke:none;stroke-width:0.25000000000000000;marker:none;visibility:visible;display:inline;overflow:visible;enable-background:accumulate;font-family:Sans;-inkscape-font-specification:Sans"
       inkscape:connector-curvature="0" />
    <path
       style="font-size:medium;font-style:normal;font-variant:normal;font-weight:normal;font-stretch:normal;text-indent:0;text-align:start;text-decoration:none;line-height:normal;letter-spacing:normal;word-spacing:normal;text-transform:none;direction:ltr;block-progression:tb;writing-mode:lr-tb;text-anchor:start;baseline-shift:baseline;color:#000000;fill:#000000;fill-opacity:1;stroke:none;stroke-width:0.25000000000000000;marker:none;visibility:visible;display:inline;overflow:visible;enable-background:accumulate;font-family:Sans;-inkscape-font-specification:Sans;opacity:0.4"
       d="M 9.5 13.875 C 9.1563025 13.875 8.875 14.156303 8.875 14.5 C 8.875 14.843697 9.1563025 15.125 9.5 15.125 C 9.8436975 15.125 10.125 14.843697 10.125 14.5 C 10.125 14.156303 9.8436975 13.875 9.5 13.875 z M 37.5 13.875 C 37.156303 13.875 36.875 14.156303 36.875 14.5 C 36.875 14.843697 37.156303 15.125 37.5 15.125 C 37.843697 15.125 38.125 14.843697 38.125 14.5 C 38.125 14.156303 37.843697 13.875 37.5 13.875 z M 4.5 30.875 C 4.1563025 30.875 3.875 31.156303 3.875 31.5 C 3.875 31.843697 4.1563025 32.125 4.5 32.125 C 4.8436975 32.125 5.125 31.843697 5.125 31.5 C 5.125 31.156303 4.8436975 30.875 4.5 30.875 z M 42.5 30.875 C 42.156303 30.875 41.875 31.156303 41.875 31.5 C 41.875 31.843697 42.156303 32.125 42.5 32.125 C 42.843697 32.125 43.125 31.843697 43.125 31.5 C 43.125 31.156303 42.843697 30.875 42.5 30.875 z "
       id="path3905" />
    <g
       style="display:inline"
       transform="translate(24,-1.000003)"
       id="g3010">
      <path
         style="opacity:0.1;fill:#000000;fill-opacity:1;stroke:#000000;stroke-width:3;stroke-linecap:round;stroke-linejoin:round;stroke-miterlimit:4;stroke-opacity:1;stroke-dasharray:none"
         d="m 10.5,26.5 0,0.5 0,1.287109 0,0.632813 c -0.04317,0.183872 -0.07779,0.200456 -0.341797,0.296875 -0.2728994,0.09967 -0.7271054,0.18477 -1.2265624,0.404297 -0.7444001,0.327186 -1.1679765,0.608757 -1.3105468,0.640625 -0.071285,0.01593 -0.070239,0.02173 -0.1738282,-0.03125 -0.1035892,-0.05298 -0.2891975,-0.193495 -0.5488281,-0.453125 l -1.2617187,-1.261719 -1.0605469,1.060547 -1.0605469,1.060547 1.2636719,1.263672 0.4453125,0.445312 c 0.1005644,0.161334 0.088614,0.19851 -0.029297,0.453125 -0.1219603,0.263359 -0.3845595,0.643309 -0.5820313,1.152344 -0.2943588,0.758788 -0.3930903,1.258371 -0.4707031,1.380859 -0.038806,0.06124 -0.033791,0.06391 -0.1445312,0.09961 C 3.8873073,35.467342 3.6567631,35.5 3.2890625,35.5 L 1.5,35.5 l 0,1.5 0,1.5 1.7890625,0 0.6308594,0 c 0.183872,0.04317 0.2004559,0.07779 0.296875,0.341797 0.099667,0.272899 0.1847704,0.727105 0.4042969,1.226562 0.3272208,0.744479 0.6088709,1.168694 0.640625,1.310547 0.015877,0.07093 0.021704,0.06844 -0.03125,0.171875 -0.052954,0.103433 -0.1934425,0.289146 -0.453125,0.548828 l -1.2617188,1.263672 1.0605469,1.060547 1.0605469,1.060547 1.2636718,-1.263672 0.4453125,-0.445312 c 0.1613344,-0.100565 0.1985101,-0.08861 0.453125,0.0293 0.2633594,0.12196 0.6433087,0.384559 1.1523438,0.582031 0.7587878,0.294359 1.2583711,0.39309 1.3808591,0.470703 0.06124,0.03881 0.06391,0.03379 0.09961,0.144531 0.0357,0.11074 0.06836,0.341284 0.06836,0.708985 l 0,1.789062 1.5,0 1.5,0 0,-1.789062 0,-0.63086 c 0.04317,-0.183872 0.07779,-0.200456 0.341797,-0.296875 0.272899,-0.09967 0.727104,-0.18477 1.226562,-0.404297 0.744479,-0.327221 1.168694,-0.608871 1.310547,-0.640625 0.07093,-0.01588 0.06844,-0.0217 0.171875,0.03125 0.103433,0.05295 0.289146,0.193442 0.548828,0.453125 l 1.263672,1.261719 1.060547,-1.060547 1.060547,-1.060547 -1.263672,-1.263672 -0.445312,-0.445312 c -0.100565,-0.161335 -0.08861,-0.19851 0.0293,-0.453125 0.12196,-0.263359 0.384559,-0.643309 0.582031,-1.152344 0.294359,-0.758788 0.39309,-1.258371 0.470703,-1.380859 0.03881,-0.06124 0.03379,-0.06391 0.144531,-0.09961 0.11074,-0.0357 0.341284,-0.06836 0.708985,-0.06836 l 1.789062,0 0,-3 -1.789062,0 -0.63086,0 c -0.183872,-0.04317 -0.200456,-0.07779 -0.296875,-0.341797 -0.09967,-0.2729 -0.18477,-0.727105 -0.404297,-1.226562 -0.327299,-0.744658 -0.608612,-1.168465 -0.640625,-1.310547 -0.01601,-0.07104 -0.02345,-0.06865 0.0293,-0.171875 0.05274,-0.103223 0.193495,-0.289198 0.453125,-0.548828 l 1.263672,-1.263672 -1.060547,-1.060547 -1.060547,-1.060547 -1.263672,1.263672 -0.445312,0.445312 c -0.161335,0.100565 -0.19851,0.08861 -0.453125,-0.0293 -0.263359,-0.12196 -0.643309,-0.384559 -1.152344,-0.582031 -0.758603,-0.294287 -1.258198,-0.394727 -1.380859,-0.472656 -0.06133,-0.03897 -0.06384,-0.03349 -0.09961,-0.144531 C 13.532587,28.885053 13.5,28.65481 13.5,28.287109 l 0,-1.787109 -1.5,0 -1.5,0 z m 1.5,6 c 2.491204,0 4.5,2.008796 4.5,4.5 0,2.491204 -2.008796,4.5 -4.5,4.5 -2.4912037,0 -4.5,-2.008796 -4.5,-4.5 0,-2.491204 2.0087963,-4.5 4.5,-4.5 z"
         id="path7924"
         inkscape:connector-curvature="0" />
      <path
         inkscape:connector-curvature="0"
         id="path7807"
         d="m 10.5,26.5 0,0.5 0,1.287109 0,0.632813 c -0.04317,0.183872 -0.07779,0.200456 -0.341797,0.296875 -0.2728994,0.09967 -0.7271054,0.18477 -1.2265624,0.404297 -0.7444001,0.327186 -1.1679765,0.608757 -1.3105468,0.640625 -0.071285,0.01593 -0.070239,0.02173 -0.1738282,-0.03125 -0.1035892,-0.05298 -0.2891975,-0.193495 -0.5488281,-0.453125 l -1.2617187,-1.261719 -1.0605469,1.060547 -1.0605469,1.060547 1.2636719,1.263672 0.4453125,0.445312 c 0.1005644,0.161334 0.088614,0.19851 -0.029297,0.453125 -0.1219603,0.263359 -0.3845595,0.643309 -0.5820313,1.152344 -0.2943588,0.758788 -0.3930903,1.258371 -0.4707031,1.380859 -0.038806,0.06124 -0.033791,0.06391 -0.1445312,0.09961 C 3.8873073,35.467342 3.6567631,35.5 3.2890625,35.5 L 1.5,35.5 l 0,1.5 0,1.5 1.7890625,0 0.6308594,0 c 0.183872,0.04317 0.2004559,0.07779 0.296875,0.341797 0.099667,0.272899 0.1847704,0.727105 0.4042969,1.226562 0.3272208,0.744479 0.6088709,1.168694 0.640625,1.310547 0.015877,0.07093 0.021704,0.06844 -0.03125,0.171875 -0.052954,0.103433 -0.1934425,0.289146 -0.453125,0.548828 l -1.2617188,1.263672 1.0605469,1.060547 1.0605469,1.060547 1.2636718,-1.263672 0.4453125,-0.445312 c 0.1613344,-0.100565 0.1985101,-0.08861 0.453125,0.0293 0.2633594,0.12196 0.6433087,0.384559 1.1523438,0.582031 0.7587878,0.294359 1.2583711,0.39309 1.3808591,0.470703 0.06124,0.03881 0.06391,0.03379 0.09961,0.144531 0.0357,0.11074 0.06836,0.341284 0.06836,0.708985 l 0,1.789062 1.5,0 1.5,0 0,-1.789062 0,-0.63086 c 0.04317,-0.183872 0.07779,-0.200456 0.341797,-0.296875 0.272899,-0.09967 0.727104,-0.18477 1.226562,-0.404297 0.744479,-0.327221 1.168694,-0.608871 1.310547,-0.640625 0.07093,-0.01588 0.06844,-0.0217 0.171875,0.03125 0.103433,0.05295 0.289146,0.193442 0.548828,0.453125 l 1.263672,1.261719 1.060547,-1.060547 1.060547,-1.060547 -1.263672,-1.263672 -0.445312,-0.445312 c -0.100565,-0.161335 -0.08861,-0.19851 0.0293,-0.453125 0.12196,-0.263359 0.384559,-0.643309 0.582031,-1.152344 0.294359,-0.758788 0.39309,-1.258371 0.470703,-1.380859 0.03881,-0.06124 0.03379,-0.06391 0.144531,-0.09961 0.11074,-0.0357 0.341284,-0.06836 0.708985,-0.06836 l 1.789062,0 0,-3 -1.789062,0 -0.63086,0 c -0.183872,-0.04317 -0.200456,-0.07779 -0.296875,-0.341797 -0.09967,-0.2729 -0.18477,-0.727105 -0.404297,-1.226562 -0.327299,-0.744658 -0.608612,-1.168465 -0.640625,-1.310547 -0.01601,-0.07104 -0.02345,-0.06865 0.0293,-0.171875 0.05274,-0.103223 0.193495,-0.289198 0.453125,-0.548828 l 1.263672,-1.263672 -1.060547,-1.060547 -1.060547,-1.060547 -1.263672,1.263672 -0.445312,0.445312 c -0.161335,0.100565 -0.19851,0.08861 -0.453125,-0.0293 -0.263359,-0.12196 -0.643309,-0.384559 -1.152344,-0.582031 -0.758603,-0.294287 -1.258198,-0.394727 -1.380859,-0.472656 -0.06133,-0.03897 -0.06384,-0.03349 -0.09961,-0.144531 C 13.532587,28.885053 13.5,28.65481 13.5,28.287109 l 0,-1.787109 -1.5,0 -1.5,0 z m 1.5,6 c 2.491204,0 4.5,2.008796 4.5,4.5 0,2.491204 -2.008796,4.5 -4.5,4.5 -2.4912037,0 -4.5,-2.008796 -4.5,-4.5 0,-2.491204 2.0087963,-4.5 4.5,-4.5 z"
         style="opacity:0.2;fill:#000000;fill-opacity:1;stroke:#000000;stroke-width:1;stroke-linecap:round;stroke-linejoin:round;stroke-miterlimit:4;stroke-opacity:1;stroke-dasharray:none" />
      <path
         inkscape:connector-curvature="0"
         id="circle7735"
         transform="translate(0,24)"
         d="m 10.5,1.5 0,0.5 0,1.2871094 0,0.6328125 c -0.04317,0.183872 -0.07779,0.200456 -0.341797,0.296875 -0.2728994,0.09967 -0.7271054,0.1847699 -1.2265624,0.4042969 -0.7444001,0.327186 -1.1679765,0.608757 -1.3105468,0.640625 -0.071285,0.01593 -0.070239,0.02173 -0.1738282,-0.03125 C 7.3436764,5.1774887 7.1580681,5.0369738 6.8984375,4.7773438 L 5.6367188,3.515625 4.5761719,4.5761719 3.515625,5.6367188 4.7792969,6.9003906 5.2246094,7.3457031 c 0.1005644,0.161334 0.088614,0.19851 -0.029297,0.453125 C 5.0733522,8.0621871 4.810753,8.4421369 4.6132812,8.9511719 4.3189224,9.7099599 4.2201909,10.209543 4.1425781,10.332031 c -0.038806,0.06124 -0.033791,0.06391 -0.1445312,0.09961 C 3.8873073,10.467342 3.6567631,10.5 3.2890625,10.5 L 1.5,10.5 l 0,1.5 0,1.5 1.7890625,0 0.6308594,0 c 0.183872,0.04317 0.2004559,0.07779 0.296875,0.341797 0.099667,0.272899 0.1847704,0.727105 0.4042969,1.226562 0.3272208,0.744479 0.6088709,1.168694 0.640625,1.310547 0.015877,0.07093 0.021704,0.06844 -0.03125,0.171875 -0.052954,0.103433 -0.1934425,0.289146 -0.453125,0.548828 l -1.2617188,1.263672 1.0605469,1.060547 1.0605469,1.060547 1.2636718,-1.263672 0.4453125,-0.445312 c 0.1613344,-0.100565 0.1985101,-0.08861 0.453125,0.0293 0.2633594,0.12196 0.6433087,0.384559 1.1523438,0.582031 0.7587878,0.294359 1.2583711,0.39309 1.3808591,0.470703 0.06124,0.03881 0.06391,0.03379 0.09961,0.144531 0.0357,0.11074 0.06836,0.341284 0.06836,0.708985 l 0,1.789062 1.5,0 1.5,0 0,-1.789062 0,-0.63086 c 0.04317,-0.183872 0.07779,-0.200456 0.341797,-0.296875 0.272899,-0.09967 0.727104,-0.18477 1.226562,-0.404297 0.744479,-0.327221 1.168694,-0.608871 1.310547,-0.640625 0.07093,-0.01588 0.06844,-0.0217 0.171875,0.03125 0.103433,0.05295 0.289146,0.193442 0.548828,0.453125 l 1.263672,1.261719 1.060547,-1.060547 1.060547,-1.060547 -1.263672,-1.263672 -0.445312,-0.445312 c -0.100565,-0.161335 -0.08861,-0.19851 0.0293,-0.453125 0.12196,-0.263359 0.384559,-0.643309 0.582031,-1.152344 0.294359,-0.758788 0.39309,-1.258371 0.470703,-1.380859 0.03881,-0.06124 0.03379,-0.06391 0.144531,-0.09961 0.11074,-0.0357 0.341284,-0.06836 0.708985,-0.06836 l 1.789062,0 0,-3 -1.789062,0 -0.63086,0 c -0.183876,-0.04317 -0.20046,-0.07779 -0.296879,-0.341799 -0.09967,-0.2728999 -0.18477,-0.7271054 -0.404297,-1.2265624 -0.327299,-0.744658 -0.608612,-1.1684649 -0.640625,-1.3105468 -0.01601,-0.07104 -0.02345,-0.06865 0.0293,-0.171875 0.05274,-0.103223 0.193495,-0.2891982 0.453125,-0.5488282 L 20.484375,5.6367188 19.423828,4.5761719 18.363281,3.515625 17.099609,4.7792969 16.654297,5.2246094 c -0.161335,0.100565 -0.19851,0.088613 -0.453125,-0.029297 C 15.937813,5.0733525 15.557863,4.8107533 15.048828,4.6132812 14.290225,4.3189942 13.79063,4.218554 13.667969,4.140625 13.606639,4.101655 13.604129,4.1071348 13.568359,3.9960938 13.532587,3.8850527 13.5,3.6548104 13.5,3.2871094 L 13.5,1.5 l -1.5,0 -1.5,0 z m 1.5,6 c 2.491204,0 4.5,2.008796 4.5,4.5 0,2.491204 -2.008796,4.5 -4.5,4.5 C 9.5087963,16.5 7.5,14.491204 7.5,12 7.5,9.508796 9.5087963,7.5 12,7.5 z"
         style="fill:url(#linearGradient7778);fill-opacity:1;stroke:none" />
      <path
         inkscape:connector-curvature="0"
         transform="translate(0,24)"
         style="opacity:0.4;fill:none;stroke:#000000;stroke-width:1;stroke-linecap:round;stroke-linejoin:round;stroke-miterlimit:4;stroke-opacity:1;stroke-dasharray:none"
         d="m 10.5,1.5 0,0.5 0,1.2871094 0,0.6328125 c -0.04317,0.183872 -0.07779,0.200456 -0.341797,0.296875 -0.2728994,0.09967 -0.7271054,0.1847699 -1.2265624,0.4042969 -0.7444001,0.327186 -1.1679765,0.608757 -1.3105468,0.640625 -0.071285,0.01593 -0.070239,0.02173 -0.1738282,-0.03125 C 7.3436764,5.1774887 7.1580681,5.0369738 6.8984375,4.7773438 L 5.6367188,3.515625 4.5761719,4.5761719 3.515625,5.6367188 4.7792969,6.9003906 5.2246094,7.3457031 c 0.1005644,0.161334 0.088614,0.19851 -0.029297,0.453125 C 5.0733522,8.0621871 4.810753,8.4421369 4.6132812,8.9511719 4.3189224,9.7099599 4.2201909,10.209543 4.1425781,10.332031 c -0.038806,0.06124 -0.033791,0.06391 -0.1445312,0.09961 C 3.8873073,10.467342 3.6567631,10.5 3.2890625,10.5 L 1.5,10.5 l 0,1.5 0,1.5 1.7890625,0 0.6308594,0 c 0.183872,0.04317 0.2004559,0.07779 0.296875,0.341797 0.099667,0.272899 0.1847704,0.727105 0.4042969,1.226562 0.3272208,0.744479 0.6088709,1.168694 0.640625,1.310547 0.015877,0.07093 0.021704,0.06844 -0.03125,0.171875 -0.052954,0.103433 -0.1934425,0.289146 -0.453125,0.548828 l -1.2617188,1.263672 1.0605469,1.060547 1.0605469,1.060547 1.2636718,-1.263672 0.4453125,-0.445312 c 0.1613344,-0.100565 0.1985101,-0.08861 0.453125,0.0293 0.2633594,0.12196 0.6433087,0.384559 1.1523438,0.582031 0.7587878,0.294359 1.2583711,0.39309 1.3808591,0.470703 0.06124,0.03881 0.06391,0.03379 0.09961,0.144531 0.0357,0.11074 0.06836,0.341284 0.06836,0.708985 l 0,1.789062 1.5,0 1.5,0 0,-1.789062 0,-0.63086 c 0.04317,-0.183872 0.07779,-0.200456 0.341797,-0.296875 0.272899,-0.09967 0.727104,-0.18477 1.226562,-0.404297 0.744479,-0.327221 1.168694,-0.608871 1.310547,-0.640625 0.07093,-0.01588 0.06844,-0.0217 0.171875,0.03125 0.103433,0.05295 0.289146,0.193442 0.548828,0.453125 l 1.263672,1.261719 1.060547,-1.060547 1.060547,-1.060547 -1.263672,-1.263672 -0.445312,-0.445312 c -0.100565,-0.161335 -0.08861,-0.19851 0.0293,-0.453125 0.12196,-0.263359 0.384559,-0.643309 0.582031,-1.152344 0.294359,-0.758788 0.39309,-1.258371 0.470703,-1.380859 0.03881,-0.06124 0.03379,-0.06391 0.144531,-0.09961 0.11074,-0.0357 0.341284,-0.06836 0.708985,-0.06836 l 1.789062,0 0,-3 -1.789062,0 -0.63086,0 c -0.183876,-0.04317 -0.20046,-0.07779 -0.296879,-0.341799 -0.09967,-0.2728999 -0.18477,-0.7271054 -0.404297,-1.2265624 -0.327299,-0.744658 -0.608612,-1.1684649 -0.640625,-1.3105468 -0.01601,-0.07104 -0.02345,-0.06865 0.0293,-0.171875 0.05274,-0.103223 0.193495,-0.2891982 0.453125,-0.5488282 L 20.484375,5.6367188 19.423828,4.5761719 18.363281,3.515625 17.099609,4.7792969 16.654297,5.2246094 c -0.161335,0.100565 -0.19851,0.088613 -0.453125,-0.029297 C 15.937813,5.0733525 15.557863,4.8107533 15.048828,4.6132812 14.290225,4.3189942 13.79063,4.218554 13.667969,4.140625 13.606639,4.101655 13.604129,4.1071348 13.568359,3.9960938 13.532587,3.8850527 13.5,3.6548104 13.5,3.2871094 L 13.5,1.5 l -1.5,0 -1.5,0 z m 1.5,6 c 2.491204,0 4.5,2.008796 4.5,4.5 0,2.491204 -2.008796,4.5 -4.5,4.5 C 9.5087963,16.5 7.5,14.491204 7.5,12 7.5,9.508796 9.5087963,7.5 12,7.5 z"
         id="path7770" />
      <path
         inkscape:connector-curvature="0"
         id="path7780"
         transform="translate(0,24)"
         d="m 11,2 0,1.2871094 0,0.6328125 A 0.50005,0.50005 0 0 1 10.98633,4.0351562 C 10.95871,4.1527902 10.88851,4.3563441 10.732424,4.4863281 10.576333,4.6163171 10.464145,4.6365869 10.33008,4.6855469 9.9753975,4.8150859 9.5736197,4.884376 9.1328125,5.078125 8.7769999,5.234515 8.4986498,5.3806056 8.2851562,5.4941406 8.0716629,5.6076746 8.0048246,5.68867 7.7304688,5.75 7.7079389,5.75504 7.6140951,5.786455 7.4726562,5.765625 7.3312174,5.744795 7.276523,5.7053313 7.21875,5.6757812 7.011639,5.5698552 6.8250211,5.4109584 6.5449219,5.1308594 L 5.6367188,4.2226562 4.9296875,4.9296875 4.2226562,5.6367188 5.1328125,6.546875 5.578125,6.9921875 a 0.50005,0.50005 0 0 1 0.070312,0.089844 C 5.712542,7.1848746 5.8080911,7.3771014 5.7910151,7.5800784 5.7739391,7.7830554 5.7085851,7.8798829 5.648437,8.0097659 5.4885297,8.3550669 5.253834,8.6849108 5.0800776,9.1328128 4.939463,9.4952848 4.8454371,9.7940749 4.7753901,10.025391 c -0.070047,0.231316 -0.05894,0.334338 -0.2109375,0.574218 -0.012432,0.01962 -0.056333,0.110613 -0.171875,0.195313 -0.1155421,0.0847 -0.1793023,0.09364 -0.2402343,0.113281 C 3.9334737,10.978763 3.6863687,11 3.2890625,11 L 2,11 l 0,1 0,1 1.2890625,0 0.6308594,0 a 0.50005,0.50005 0 0 1 0.1152343,0.01367 c 0.1176336,0.02762 0.321188,0.09782 0.4511719,0.253906 0.1299839,0.156091 0.1502563,0.268279 0.1992188,0.402344 0.1295321,0.354673 0.1988291,0.756456 0.3925781,1.197266 0.1564236,0.355888 0.3024834,0.634106 0.4160156,0.847656 0.1135323,0.213549 0.1943537,0.279927 0.2558594,0.554687 0.00482,0.02152 0.037071,0.114924 0.015625,0.257813 -0.021446,0.142889 -0.060718,0.195063 -0.089844,0.251953 -0.1057945,0.206644 -0.264715,0.393622 -0.5449218,0.673828 l -0.9082032,0.910156 0.7070313,0.707031 0.7070313,0.707032 0.9101562,-0.910156 0.4453125,-0.445313 a 0.50005,0.50005 0 0 1 0.089844,-0.07031 c 0.1028433,-0.0641 0.2950694,-0.159654 0.4980469,-0.142578 0.2029776,0.01708 0.2998051,0.08243 0.4296875,0.142578 0.3453023,0.159909 0.6751443,0.394603 1.1230469,0.56836 0.3624714,0.140615 0.6612618,0.23464 0.8925784,0.304687 0.231316,0.07005 0.33434,0.05894 0.574218,0.210938 0.01961,0.01243 0.110603,0.05633 0.195313,0.171875 0.08471,0.115541 0.09364,0.179294 0.113281,0.240234 C 10.978763,20.066518 11,20.313629 11,20.710938 L 11,22 l 1,0 1,0 0,-1.289062 0,-0.63086 a 0.50005,0.50005 0 0 1 0.01367,-0.115234 c 0.02762,-0.117634 0.09782,-0.321188 0.253906,-0.451172 0.156091,-0.129989 0.268279,-0.150259 0.402344,-0.199219 0.35468,-0.129539 0.756457,-0.198829 1.197266,-0.392578 0.355887,-0.156424 0.634106,-0.302483 0.847656,-0.416016 0.213549,-0.113532 0.279927,-0.194349 0.554687,-0.255859 0.02154,-0.0048 0.11493,-0.03708 0.257813,-0.01563 0.142882,0.02145 0.195073,0.06072 0.251953,0.08984 0.206673,0.105801 0.393626,0.264716 0.673828,0.544922 l 0.910156,0.908203 0.707031,-0.707032 0.707032,-0.707031 -0.910156,-0.910156 -0.445313,-0.445313 a 0.50005,0.50005 0 0 1 -0.07031,-0.08984 c -0.06411,-0.102844 -0.159658,-0.29507 -0.142578,-0.498047 0.01708,-0.202977 0.08243,-0.299806 0.142578,-0.429688 0.159909,-0.345301 0.394603,-0.675145 0.56836,-1.123046 0.140615,-0.362472 0.234637,-0.661263 0.304687,-0.892579 0.07005,-0.231316 0.05894,-0.334337 0.210938,-0.574218 0.01243,-0.01961 0.05633,-0.110603 0.171875,-0.195313 0.115541,-0.08471 0.179294,-0.09364 0.240234,-0.113281 C 20.066518,13.021237 20.31363,13 20.710938,13 L 22,13 l 0,-2 -1.289062,0 -0.63086,0 A 0.50005,0.50005 0 0 1 19.964844,10.98633 C 19.84721,10.95871 19.643656,10.888513 19.513672,10.732422 19.383683,10.576331 19.363413,10.464143 19.314453,10.330078 19.184915,9.9753981 19.115624,9.5736205 18.921875,9.1328125 18.765399,8.7768045 18.619341,8.4986392 18.505859,8.2851562 18.392378,8.0716743 18.3116,8.0038818 18.25,7.7304688 18.2459,7.7123328 18.21175,7.6275739 18.23047,7.4824219 18.24919,7.3372699 18.29227,7.2813663 18.32227,7.2226562 18.428295,7.0151432 18.587035,6.827031 18.867192,6.546875 L 19.777344,5.6367188 19.070312,4.9296875 18.363281,4.2226562 17.453125,5.1328125 17.007812,5.578125 a 0.50005,0.50005 0 0 1 -0.08984,0.070312 C 16.815125,5.7125465 16.622899,5.8080956 16.419922,5.7910156 16.216945,5.7739386 16.120116,5.7085875 15.990234,5.6484375 15.644933,5.4885305 15.31509,5.2538351 14.867188,5.0800781 14.504508,4.9393831 14.206168,4.8440075 13.974609,4.7734375 13.743051,4.7028665 13.638996,4.714091 13.400391,4.5625 13.381285,4.55036 13.290198,4.506523 13.205078,4.390625 13.119957,4.274727 13.111467,4.2094875 13.091797,4.1484375 13.021347,3.9297465 13,3.6843524 13,3.2871094 L 13,2 12,2 11,2 z m 1,5 c 2.759989,0 5,2.240011 5,5 0,2.759989 -2.240011,5 -5,5 C 9.2400111,17 7,14.759989 7,12 7,9.240011 9.2400111,7 12,7 z"
         style="fill:url(#linearGradient7786);fill-opacity:1;stroke:none" />
      <path
         sodipodi:nodetypes="ccccccsscscsccccccsssscscsccccccssssssscccccccsssscscsccccccccsscscccccccccssccscscccccccsscscsccccccccsscscsccc"
         inkscape:connector-curvature="0"
         clip-path="url(#clipPath7793)"
         style="opacity:0.4;fill:none;stroke:url(#linearGradient7805);stroke-width:2;stroke-linecap:round;stroke-linejoin:round;stroke-miterlimit:4;stroke-opacity:1;stroke-dasharray:none"
         d="m 11,2 0,1.2871094 0,0.6328125 c -7e-5,0.038812 -0.0047,0.077484 -0.01367,0.1152343 -0.02762,0.117634 -0.09782,0.3211879 -0.253906,0.4511719 C 10.576333,4.6163171 10.464145,4.6365869 10.33008,4.6855469 9.9753975,4.8150859 9.5736197,4.884376 9.1328125,5.078125 8.7769999,5.234515 8.4986498,5.3806056 8.2851562,5.4941406 8.0716629,5.6076746 8.0048246,5.68867 7.7304688,5.75 7.7079389,5.75504 7.6140951,5.786455 7.4726562,5.765625 7.3312174,5.744795 7.276523,5.7053313 7.21875,5.6757812 7.011639,5.5698552 6.8250211,5.4109584 6.5449219,5.1308594 L 5.6367188,4.2226562 4.9296875,4.9296875 4.2226562,5.6367188 5.1328125,6.546875 5.578125,6.9921875 c 0.026788,0.027167 0.050379,0.057311 0.070312,0.089844 C 5.712542,7.1848746 5.8080911,7.3771014 5.7910151,7.5800784 5.7739391,7.7830554 5.7085851,7.8798829 5.648437,8.0097659 5.4885297,8.3550669 5.253834,8.6849108 5.0800776,9.1328128 4.939463,9.4952848 4.8454371,9.7940749 4.7753901,10.025391 c -0.070047,0.231316 -0.05894,0.334338 -0.2109375,0.574218 -0.012432,0.01962 -0.056333,0.110613 -0.171875,0.195313 -0.1155421,0.0847 -0.1793023,0.09364 -0.2402343,0.113281 C 3.9334737,10.978763 3.6863687,11 3.2890625,11 L 2,11 l 0,1 0,1 1.2890625,0 0.6308594,0 c 0.038812,7e-5 0.077484,0.0047 0.1152343,0.01367 0.1176336,0.02762 0.321188,0.09782 0.4511719,0.253906 0.1299839,0.156091 0.1502563,0.268279 0.1992188,0.402344 0.1295321,0.354673 0.1988291,0.756456 0.3925781,1.197266 0.1564236,0.355888 0.3024834,0.634106 0.4160156,0.847656 0.1135323,0.213549 0.1943537,0.279927 0.2558594,0.554687 0.00482,0.02152 0.037071,0.114924 0.015625,0.257813 -0.021446,0.142889 -0.060718,0.195063 -0.089844,0.251953 -0.1057945,0.206644 -0.264715,0.393622 -0.5449218,0.673828 l -0.9082032,0.910156 0.7070313,0.707031 0.7070313,0.707032 0.9101562,-0.910156 0.4453125,-0.445313 c 0.027167,-0.02679 0.057311,-0.05038 0.089844,-0.07031 0.1028433,-0.0641 0.2950694,-0.159654 0.4980469,-0.142578 0.2029776,0.01708 0.2998051,0.08243 0.4296875,0.142578 0.3453023,0.159909 0.6751443,0.394603 1.1230469,0.56836 0.3624714,0.140615 0.6612618,0.23464 0.8925784,0.304687 0.231316,0.07005 0.33434,0.05894 0.574218,0.210938 0.01961,0.01243 0.110603,0.05633 0.195313,0.171875 0.08471,0.115541 0.09364,0.179294 0.113281,0.240234 C 10.978763,20.066518 11,20.313629 11,20.710938 L 11,22 l 1,0 1,0 0,-1.289062 0,-0.63086 c 7e-5,-0.03881 0.0047,-0.07748 0.01367,-0.115234 0.02762,-0.117634 0.09782,-0.321188 0.253906,-0.451172 0.156091,-0.129989 0.268279,-0.150259 0.402344,-0.199219 0.35468,-0.129539 0.756457,-0.198829 1.197266,-0.392578 0.355887,-0.156424 0.634106,-0.302483 0.847656,-0.416016 0.213549,-0.113532 0.279927,-0.194349 0.554687,-0.255859 0.02154,-0.0048 0.11493,-0.03708 0.257813,-0.01563 0.142882,0.02145 0.195073,0.06072 0.251953,0.08984 0.206673,0.105801 0.393626,0.264716 0.673828,0.544922 l 0.910156,0.908203 0.707031,-0.707032 0.707032,-0.707031 -0.910156,-0.910156 -0.445313,-0.445313 c -0.02679,-0.02717 -0.05038,-0.05731 -0.07031,-0.08984 -0.06411,-0.102844 -0.159658,-0.29507 -0.142578,-0.498047 0.01708,-0.202977 0.08243,-0.299806 0.142578,-0.429688 0.159909,-0.345301 0.394603,-0.675145 0.56836,-1.123046 0.140615,-0.362472 0.234637,-0.661263 0.304687,-0.892579 0.07005,-0.231316 0.05894,-0.334337 0.210938,-0.574218 0.01243,-0.01961 0.05633,-0.110603 0.171875,-0.195313 0.115541,-0.08471 0.179294,-0.09364 0.240234,-0.113281 C 20.066518,13.021237 20.31363,13 20.710938,13 L 22,13 l 0,-2 -1.289062,0 -0.63086,0 c -0.03881,-7e-5 -0.07748,-0.0047 -0.115234,-0.01367 C 19.84721,10.95871 19.643656,10.888513 19.513672,10.732422 19.383683,10.576331 19.363413,10.464143 19.314453,10.330078 19.184915,9.9753981 19.115624,9.5736205 18.921875,9.1328125 18.765399,8.7768045 18.619341,8.4986392 18.505859,8.2851562 18.392378,8.0716743 18.3116,8.0038818 18.25,7.7304688 18.2459,7.7123328 18.21175,7.6275739 18.23047,7.4824219 18.24919,7.3372699 18.29227,7.2813663 18.32227,7.2226562 18.428295,7.0151432 18.587035,6.827031 18.867192,6.546875 L 19.777344,5.6367188 19.070312,4.9296875 18.363281,4.2226562 17.453125,5.1328125 17.007812,5.578125 c -0.02717,0.026788 -0.05731,0.050379 -0.08984,0.070312 -0.102844,0.064109 -0.29507,0.1596581 -0.498047,0.1425781 C 16.216945,5.7739386 16.120116,5.7085875 15.990234,5.6484375 15.644933,5.4885305 15.31509,5.2538351 14.867188,5.0800781 14.504508,4.9393831 14.206168,4.8440075 13.974609,4.7734375 13.743051,4.7028665 13.638996,4.714091 13.400391,4.5625 13.381285,4.55036 13.290198,4.506523 13.205078,4.390625 13.119957,4.274727 13.111467,4.2094875 13.091797,4.1484375 13.021347,3.9297465 13,3.6843524 13,3.2871094 L 13,2 12,2 z"
         transform="translate(0,24)"
         id="path7789" />
      <path
         sodipodi:nodetypes="sssss"
         inkscape:connector-curvature="0"
         id="path7819"
         transform="matrix(1,0,0,-1,0,48)"
         d="m 12,7 c 2.759989,0 5,2.240011 5,5 0,2.759989 -2.240011,5 -5,5 C 9.2400111,17 7,14.759989 7,12 7,9.240011 9.2400111,7 12,7 z"
         style="opacity:0.4;fill:none;stroke:url(#linearGradient3326);stroke-width:2;stroke-linecap:round;stroke-linejoin:round;stroke-miterlimit:4;stroke-opacity:1;stroke-dasharray:none"
         clip-path="url(#clipPath7793)" />
    </g>
  </g>
</svg>
