<?xml version="1.0" encoding="UTF-8" standalone="no"?>
<svg
   xmlns:dc="http://purl.org/dc/elements/1.1/"
   xmlns:cc="http://creativecommons.org/ns#"
   xmlns:rdf="http://www.w3.org/1999/02/22-rdf-syntax-ns#"
   xmlns:svg="http://www.w3.org/2000/svg"
   xmlns="http://www.w3.org/2000/svg"
   xmlns:xlink="http://www.w3.org/1999/xlink"
   id="svg3759"
   height="48"
   width="48"
   version="1.1">
  <metadata
     id="metadata37">
    <rdf:RDF>
      <cc:Work
         rdf:about="">
        <dc:format>image/svg+xml</dc:format>
        <dc:type
           rdf:resource="http://purl.org/dc/dcmitype/StillImage" />
        <dc:title />
      </cc:Work>
    </rdf:RDF>
  </metadata>
  <defs
     id="defs3761">
    <linearGradient
       y2="24"
       x2="43.500004"
       y1="24"
       x1="4.5000033"
       gradientTransform="matrix(0,-1,-1,0,48.000003,48.000003)"
       gradientUnits="userSpaceOnUse"
       id="linearGradient3874"
       xlink:href="#outerBackgroundGradient-0-8" />
    <linearGradient
       id="outerBackgroundGradient-0-8">
      <stop
         id="stop3864-8-6-3-9"
         offset="0"
         style="stop-color:#1c6aba;stop-opacity:1" />
      <stop
         id="stop3866-9-1-7-5"
         offset="1"
         style="stop-color:#4195ec;stop-opacity:1" />
    </linearGradient>
    <linearGradient
       id="linearGradient3904-6">
      <stop
         style="stop-color:#234683;stop-opacity:1;"
         offset="0"
         id="stop3906-8" />
      <stop
         style="stop-color:#30589e;stop-opacity:1;"
         offset="1"
         id="stop3908-2" />
    </linearGradient>
    <linearGradient
       xlink:href="#linearGradient3904-6"
       id="linearGradient3946"
       gradientUnits="userSpaceOnUse"
       gradientTransform="matrix(0,-1,1,0,0,48.000003)"
       x1="4.0000033"
       y1="24"
       x2="44.000004"
       y2="24" />
  </defs>
  <g
     id="layer1">
    <path
       id="path4026"
       d="M 24,5 C 12.960351,5 4,13.96111 4,25 4,36.03985 12.960367,45 24,45 35.040018,45 44,36.03988 44,25 44,13.961083 35.04013,5 24,5 z"
       style="font-size:medium;font-style:normal;font-variant:normal;font-weight:normal;font-stretch:normal;text-indent:0;text-align:start;text-decoration:none;line-height:normal;letter-spacing:normal;word-spacing:normal;text-transform:none;direction:ltr;block-progression:tb;writing-mode:lr-tb;text-anchor:start;baseline-shift:baseline;opacity:0.05000000000000000;color:#000000;fill:#000000;fill-opacity:1;stroke:#000000;stroke-width:2;marker:none;visibility:visible;display:inline;overflow:visible;enable-background:accumulate;font-family:Sans;-inkscape-font-specification:Sans;stroke-opacity:1;stroke-miterlimit:4;stroke-dasharray:none" />
    <path
       style="font-size:medium;font-style:normal;font-variant:normal;font-weight:normal;font-stretch:normal;text-indent:0;text-align:start;text-decoration:none;line-height:normal;letter-spacing:normal;word-spacing:normal;text-transform:none;direction:ltr;block-progression:tb;writing-mode:lr-tb;text-anchor:start;baseline-shift:baseline;opacity:0.1;color:#000000;fill:#000000;fill-opacity:1;stroke:#000000;stroke-width:1;marker:none;visibility:visible;display:inline;overflow:visible;enable-background:accumulate;font-family:Sans;-inkscape-font-specification:Sans;stroke-opacity:1"
       d="M 24,5 C 12.960351,5 4,13.96111 4,25 4,36.03985 12.960367,45 24,45 35.040018,45 44,36.03988 44,25 44,13.961083 35.04013,5 24,5 z"
       id="path4024" />
    <path
       id="path4018"
       d="M 24,5 C 12.960351,5 4,13.96111 4,25 4,36.03985 12.960367,45 24,45 35.040018,45 44,36.03988 44,25 44,13.961083 35.04013,5 24,5 z"
       style="font-size:medium;font-style:normal;font-variant:normal;font-weight:normal;font-stretch:normal;text-indent:0;text-align:start;text-decoration:none;line-height:normal;letter-spacing:normal;word-spacing:normal;text-transform:none;direction:ltr;block-progression:tb;writing-mode:lr-tb;text-anchor:start;baseline-shift:baseline;opacity:0.2;color:#000000;fill:#000000;fill-opacity:1;stroke:none;stroke-width:1;marker:none;visibility:visible;display:inline;overflow:visible;enable-background:accumulate;font-family:Sans;-inkscape-font-specification:Sans" />
    <path
       d="M 4.5000031,23.999309 C 4.5000031,34.769208 13.231094,43.5 23.999758,43.5 c 10.769649,0 19.500245,-8.730891 19.500245,-19.500691 0,-10.769405 -8.730596,-19.4993089 -19.500245,-19.4993089 -10.768664,0 -19.4997549,8.7299039 -19.4997549,19.4993089 l 0,0 z"
       id="path6495"
       style="fill:url(#linearGradient3874);fill-opacity:1.0;fill-rule:nonzero;stroke:none" />
    <path
       id="path3872"
       d="M 24 5 C 13.500552 5 5 13.500823 5 24 C 5 24.169463 5.0268485 24.331605 5.03125 24.5 C 5.299553 14.235412 13.670013 6 24 6 C 34.328993 6 42.700416 14.235427 42.96875 24.5 C 42.973152 24.331604 43 24.169465 43 24 C 43 13.500839 34.498438 5 24 5 z "
       style="fill:#ffffff;fill-opacity:1;fill-rule:nonzero;stroke:none;opacity:0.4" />
    <path
       style="opacity:0.91000001;fill:none;stroke:url(#linearGradient3946);stroke-width:1;stroke-miterlimit:4;stroke-opacity:1;stroke-dasharray:none"
       id="path3796"
       d="M 23.999309,4.5 C 34.769208,4.5 43.5,13.231091 43.5,23.999755 43.5,34.769404 34.769109,43.5 23.999309,43.5 13.229903,43.5 4.5,34.769404 4.5,23.999755 4.5,13.231091 13.229903,4.5 23.999309,4.5 l 0,0 z" />
    <path
       style="opacity:0.1;fill:#ffffff;fill-opacity:1;fill-rule:nonzero;stroke:none"
       d="M 24,43 C 13.500552,43 5,34.499177 5,24 5,23.830537 5.0268485,23.668395 5.03125,23.5 5.299553,33.764588 13.670013,42 24,42 34.328993,42 42.700416,33.764573 42.96875,23.5 42.973152,23.668396 43,23.830535 43,24 43,34.499161 34.498438,43 24,43 z"
       id="path3366" />
  </g>
  <g
     id="layer2">
    <path
       id="path4065"
       style="opacity:0.3;fill:#000000;fill-opacity:1;fill-rule:nonzero;stroke:none;display:inline;enable-background:new"
       d="m 20.565372,35.071824 c 0,-0.539658 0.07744,-0.995623 0.232357,-1.369141 0.154895,-0.372264 0.369757,-0.673335 0.64584,-0.903184 0.274829,-0.229859 0.599625,-0.396008 0.973143,-0.499683 0.372264,-0.10244 0.77077,-0.154905 1.195498,-0.154905 0.402257,0 0.784513,0.05246 1.145532,0.154905 0.361029,0.103675 0.679585,0.269824 0.955658,0.499683 0.274829,0.229849 0.492199,0.53092 0.653343,0.903184 0.161144,0.373518 0.241094,0.829483 0.241094,1.369141 0,0.517177 -0.07995,0.9594 -0.241094,1.326669 -0.161144,0.366024 -0.378514,0.672081 -0.653343,0.913185 -0.276073,0.23985 -0.594629,0.414746 -0.955658,0.524671 C 24.396723,37.945029 24.014467,38 23.61221,38 c -0.424728,0 -0.823234,-0.05497 -1.195498,-0.163651 -0.373518,-0.109925 -0.698314,-0.284821 -0.973143,-0.524671 -0.276083,-0.241104 -0.490945,-0.547161 -0.64584,-0.913185 -0.154905,-0.367269 -0.232357,-0.809492 -0.232357,-1.326669 m 0.568388,-5.888814 0,-1.272951 c 0,-0.585891 0.05999,-1.116811 0.181137,-1.59276 0.119925,-0.477202 0.303559,-0.929416 0.550912,-1.360403 0.24609,-0.429725 0.564645,-0.849467 0.954395,-1.25671 0.391012,-0.407253 0.861965,-0.829484 1.412877,-1.265457 0.482198,-0.378514 0.889441,-0.717053 1.221731,-1.01687 0.333552,-0.29731 0.602122,-0.593375 0.8095,-0.886943 0.206115,-0.292315 0.356024,-0.598372 0.447219,-0.919425 0.09239,-0.322298 0.138663,-0.695816 0.138663,-1.1193 0,-0.654597 -0.222365,-1.195508 -0.663334,-1.618992 -0.442223,-0.424739 -1.116811,-0.637094 -2.023738,-0.637094 -0.790762,0 -1.64398,0.16614 -2.557155,0.498439 -0.910678,0.333534 -1.856335,0.740787 -2.831976,1.222975 L 17.018833,14.1524 c 0.492189,-0.287319 1.029359,-0.55965 1.609001,-0.816985 0.580886,-0.258598 1.183,-0.488447 1.807613,-0.689567 0.625857,-0.199875 1.26047,-0.35853 1.902559,-0.47346 0.643351,-0.11492 1.274204,-0.172389 1.895075,-0.172389 1.170511,0 2.226101,0.141161 3.166763,0.422231 0.941915,0.281078 1.74017,0.69082 2.393513,1.230487 0.655836,0.539658 1.156766,1.195498 1.506556,1.963771 0.35103,0.769516 0.52592,1.646469 0.52592,2.633355 0,0.723301 -0.0812,1.369141 -0.24109,1.937538 -0.1599,0.568398 -0.39975,1.09682 -0.71331,1.584013 -0.31731,0.488438 -0.71331,0.9594 -1.189254,1.411615 -0.475957,0.453467 -1.030612,0.933167 -1.661465,1.437855 -0.482197,0.378505 -0.875707,0.70955 -1.180511,0.990619 -0.303559,0.281088 -0.542165,0.548414 -0.713301,0.7995 -0.172398,0.253593 -0.289825,0.514688 -0.353535,0.784513 -0.06249,0.268589 -0.09494,0.587135 -0.09494,0.954413 l 0,1.033101 -4.544661,0 z" />
    <path
       d="m 20.565372,34.071824 c 0,-0.539658 0.07744,-0.995623 0.232357,-1.369141 0.154895,-0.372264 0.369757,-0.673335 0.64584,-0.903184 0.274829,-0.229859 0.599625,-0.396008 0.973143,-0.499683 0.372264,-0.10244 0.77077,-0.154905 1.195498,-0.154905 0.402257,0 0.784513,0.05246 1.145532,0.154905 0.361029,0.103675 0.679585,0.269824 0.955658,0.499683 0.274829,0.229849 0.492199,0.53092 0.653343,0.903184 0.161144,0.373518 0.241094,0.829483 0.241094,1.369141 0,0.517177 -0.07995,0.9594 -0.241094,1.326669 -0.161144,0.366024 -0.378514,0.672081 -0.653343,0.913185 -0.276073,0.23985 -0.594629,0.414746 -0.955658,0.524671 C 24.396723,36.945029 24.014467,37 23.61221,37 c -0.424728,0 -0.823234,-0.05497 -1.195498,-0.163651 -0.373518,-0.109925 -0.698314,-0.284821 -0.973143,-0.524671 -0.276083,-0.241104 -0.490945,-0.547161 -0.64584,-0.913185 -0.154905,-0.367269 -0.232357,-0.809492 -0.232357,-1.326669 m 0.568388,-5.888814 0,-1.272951 c 0,-0.585891 0.05999,-1.116811 0.181137,-1.59276 0.119925,-0.477202 0.303559,-0.929416 0.550912,-1.360403 0.24609,-0.429725 0.564645,-0.849467 0.954395,-1.25671 0.391012,-0.407253 0.861965,-0.829484 1.412877,-1.265457 0.482198,-0.378514 0.889441,-0.717053 1.221731,-1.01687 0.333552,-0.29731 0.602122,-0.593375 0.8095,-0.886943 0.206115,-0.292315 0.356024,-0.598372 0.447219,-0.919425 0.09239,-0.322298 0.138663,-0.695816 0.138663,-1.1193 0,-0.654597 -0.222365,-1.195508 -0.663334,-1.618992 -0.442223,-0.424738 -1.116811,-0.637093 -2.023738,-0.637093 -0.790762,0 -1.64398,0.16614 -2.557155,0.498438 -0.910678,0.333534 -1.856335,0.740787 -2.831976,1.222975 L 17.018833,13.1524 c 0.492189,-0.287319 1.029359,-0.55965 1.609001,-0.816985 0.580886,-0.258598 1.183,-0.488447 1.807613,-0.689567 0.625857,-0.199875 1.26047,-0.35853 1.902559,-0.47346 0.643351,-0.11492 1.274204,-0.172389 1.895075,-0.172389 1.170511,0 2.226101,0.141161 3.166763,0.422231 0.941915,0.281078 1.74017,0.69082 2.393513,1.230487 0.655836,0.539658 1.156766,1.195498 1.506556,1.963772 0.35103,0.769516 0.52592,1.646468 0.52592,2.633354 0,0.723301 -0.0812,1.369141 -0.24109,1.937538 -0.1599,0.568398 -0.39975,1.09682 -0.71331,1.584013 -0.31731,0.488438 -0.71331,0.9594 -1.189254,1.411615 -0.475957,0.453467 -1.030612,0.933167 -1.661465,1.437855 -0.482197,0.378505 -0.875707,0.70955 -1.180511,0.990619 -0.303559,0.281088 -0.542165,0.548414 -0.713301,0.7995 -0.172398,0.253593 -0.289825,0.514688 -0.353535,0.784513 -0.06249,0.268589 -0.09494,0.587135 -0.09494,0.954413 l 0,1.033101 -4.544661,0 z"
       style="fill:#ffffff;fill-opacity:1;fill-rule:nonzero;stroke:none;display:inline;enable-background:new"
       id="path4055" />
  </g>
</svg>
