<?xml version="1.0" encoding="UTF-8" standalone="no"?>
<svg xmlns="http://www.w3.org/2000/svg" xmlns:xlink="http://www.w3.org/1999/xlink" xmlns:sodipodi="http://sodipodi.sourceforge.net/DTD/sodipodi-0.dtd" xmlns:inkscape="http://www.inkscape.org/namespaces/inkscape" version="1.1" width="48" height="48">
 <metadata id="metadata37"/>
 <defs id="defs3761">
  <linearGradient inkscape:collect="always" id="linearGradient4060">
   <stop id="stop4062"/>
   <stop offset="1" id="stop4064" stop-opacity="0"/>
  </linearGradient>
  <linearGradient id="linearGradient4520">
   <stop id="stop4522" stop-color="#571746"/>
   <stop offset="0.362" id="stop4524" stop-color="#8a2c48"/>
   <stop id="stop4526" offset="1" stop-color="#af5c25"/>
  </linearGradient>
  <linearGradient id="linearGradient3810">
   <stop id="stop3812" stop-color="#4cc7e0"/>
   <stop offset="1" id="stop3814" stop-color="#2061be"/>
  </linearGradient>
  <linearGradient id="linearGradient4873">
   <stop id="stop4875" stop-color="#ffffff"/>
   <stop id="stop4877" offset="1" stop-color="#ffffff" stop-opacity="0"/>
  </linearGradient>
  <linearGradient inkscape:collect="always" xlink:href="#linearGradient4873" id="linearGradient3017" gradientUnits="userSpaceOnUse" gradientTransform="matrix(2.1153734,0,0,2.1153252,-107.57708,31.426557)" y1="-12.489" x2="0" y2="-1.462"/>
  <linearGradient inkscape:collect="always" xlink:href="#linearGradient3810" id="linearGradient3816" x1="4.5" x2="43.5" gradientUnits="userSpaceOnUse" gradientTransform="matrix(0,1,-1,0,48.000003,-3e-6)"/>
  <linearGradient inkscape:collect="always" xlink:href="#linearGradient3988" id="linearGradient3965" gradientUnits="userSpaceOnUse" y1="116.26" x2="0" y2="31.773"/>
  <linearGradient id="linearGradient3988">
   <stop id="stop3990" stop-color="#eeeeec"/>
   <stop offset="1" id="stop3992" stop-color="#ffffff"/>
  </linearGradient>
  <radialGradient inkscape:collect="always" xlink:href="#linearGradient4060" id="radialGradient3755" gradientUnits="userSpaceOnUse" gradientTransform="matrix(1,0,0,0.37,0,24.5124)" cx="24.85" cy="38.909" r="20.2"/>
  <radialGradient r="20.2" cy="38.909" cx="24.85" gradientTransform="matrix(1.00851,0,0,0.373148,-0.211403,24.39)" gradientUnits="userSpaceOnUse" id="radialGradient4274" xlink:href="#linearGradient4060" inkscape:collect="always"/>
  <linearGradient inkscape:collect="always" xlink:href="#linearGradient4873" id="linearGradient4140" x1="789" x2="827" gradientUnits="userSpaceOnUse"/>
  <clipPath id="clipPath4130">
   <path id="path4132" d="M 790.4375,237 C 789.62555,237 789,237.62555 789,238.4375 l 0,35.09375 c 0,0.812 0.62555,1.46875 1.4375,1.46875 l 35.125,0 c 0.81195,0 1.4375,-0.65675 1.4375,-1.46875 l 0,-35.09375 C 827,237.62555 826.37445,237 825.5625,237 l -35.125,0 z"/>
  </clipPath>
  <linearGradient inkscape:collect="always" xlink:href="#linearGradient5618" id="linearGradient4083" x1="-1023.86" x2="-984.86" gradientUnits="userSpaceOnUse" gradientTransform="translate(980.3622,784)"/>
  <linearGradient id="linearGradient5618">
   <stop id="stop5620" stop-color="#3e3e3e"/>
   <stop offset="1" id="stop5622" stop-color="#595959"/>
  </linearGradient>
  <linearGradient id="linearGradient4094">
   <stop id="stop4096" stop-color="#e28192"/>
   <stop id="stop4317" offset="0.259" stop-color="#f7d6c7"/>
   <stop offset="1" id="stop4098" stop-color="#fffee4"/>
  </linearGradient>
  <clipPath id="clipPath14228">
   <rect id="rect14230" width="32" height="42" x="312" y="231" fill="none" color="#bebebe" stroke-width="0" rx="0"/>
  </clipPath>
  <clipPath id="clipPath3449">
   <rect id="rect3451" width="32" height="42" x="312" y="231" fill="none" color="#bebebe" stroke-width="0" rx="0"/>
  </clipPath>
  <linearGradient inkscape:collect="always" xlink:href="#linearGradient3988-5" id="linearGradient4030" x1="304" x2="352" gradientUnits="userSpaceOnUse"/>
  <linearGradient id="linearGradient3988-5">
   <stop id="stop3990-5" stop-color="#ededed"/>
   <stop offset="1" id="stop3992-0" stop-color="#ffffff"/>
  </linearGradient>
  <clipPath id="clipPath3457">
   <rect id="rect3459" width="32" height="42" x="312" y="231" fill="none" color="#bebebe" stroke-width="0" rx="0"/>
  </clipPath>
  <clipPath id="clipPath3461">
   <rect id="rect3463" width="32" height="42" x="312" y="231" fill="none" color="#bebebe" stroke-width="0" rx="0"/>
  </clipPath>
  <linearGradient id="outerBackgroundGradient">
   <stop id="stop3864-8-6" stop-color="#8c166c"/>
   <stop id="stop4409" offset="0.362" stop-color="#ca3561"/>
   <stop offset="1" id="stop3866-9-1" stop-color="#f38f4e"/>
  </linearGradient>
  <linearGradient inkscape:collect="always" xlink:href="#linearGradient3988-5" id="linearGradient3947" gradientUnits="userSpaceOnUse" gradientTransform="matrix(0,-0.175,0.175,0,-4.0000326,48.20002)" y1="280" x2="0" y2="40"/>
  <linearGradient inkscape:collect="always" xlink:href="#outerBackgroundGradient" id="linearGradient3949" gradientUnits="userSpaceOnUse" gradientTransform="matrix(0,-0.175,0.175,0,-4.0000326,1.2000199)" y1="280" x2="0" y2="40"/>
  <linearGradient inkscape:collect="always" xlink:href="#linearGradient4094" id="linearGradient3951" gradientUnits="userSpaceOnUse" x1="324" x2="332"/>
  <linearGradient inkscape:collect="always" xlink:href="#linearGradient2919" id="linearGradient4117" gradientUnits="userSpaceOnUse" gradientTransform="matrix(0,-0.175,0.175,0,-53.000033,48.20002)" y1="280" x2="0" y2="40"/>
  <radialGradient inkscape:collect="always" xlink:href="#linearGradient4060" id="radialGradient4131" cx="23.5" cy="40" r="20.5" gradientTransform="matrix(1,0,0,0.09756098,0,36.097561)" gradientUnits="userSpaceOnUse"/>
  <radialGradient cx="4.993" cy="43.5" gradientTransform="matrix(2.003784,0,0,1.4,27.98813,-17.4)" gradientUnits="userSpaceOnUse" id="radialGradient9116" inkscape:collect="always" r="2.5" xlink:href="#linearGradient4060"/>
  <radialGradient cx="4.993" cy="43.5" gradientTransform="matrix(2.003784,0,0,1.4,-20.01187,-104.4)" gradientUnits="userSpaceOnUse" id="radialGradient9118" inkscape:collect="always" r="2.5" xlink:href="#linearGradient4060"/>
  <linearGradient gradientUnits="userSpaceOnUse" id="linearGradient9120" inkscape:collect="always" x2="0" xlink:href="#linearGradient3702" y1="47.03" y2="39.999"/>
  <linearGradient id="linearGradient3702">
   <stop id="stop3704" stop-opacity="0"/>
   <stop id="stop3710" offset="0.5"/>
   <stop id="stop3706" offset="1" stop-opacity="0"/>
  </linearGradient>
  <linearGradient gradientTransform="translate(80.00001,-0.0389932)" gradientUnits="userSpaceOnUse" id="linearGradient9122" inkscape:collect="always" x2="0" xlink:href="#linearGradient6394" y1="-0.806" y2="18.01"/>
  <linearGradient id="linearGradient6394" inkscape:collect="always">
   <stop id="stop6396" stop-color="#729fcf"/>
   <stop id="stop6398" offset="1" stop-color="#ffffff"/>
  </linearGradient>
  <linearGradient gradientTransform="matrix(1,0,0,2,80.00001,-17.038994)" gradientUnits="userSpaceOnUse" id="linearGradient9124" inkscape:collect="always" x2="0" xlink:href="#linearGradient6754" y1="16.188" y2="14.14"/>
  <linearGradient id="linearGradient6754" inkscape:collect="always">
   <stop id="stop6756" stop-color="#729fcf"/>
   <stop id="stop6758" offset="1" stop-color="#729fcf" stop-opacity="0"/>
  </linearGradient>
  <radialGradient cx="-16.484" cy="16.06" gradientTransform="matrix(1.4386863,0,0,1.1876132,7.181008,-2.926052)" gradientUnits="userSpaceOnUse" id="radialGradient9126" inkscape:collect="always" r="9" xlink:href="#linearGradient4873"/>
  <linearGradient inkscape:collect="always" xlink:href="#linearGradient6754" id="linearGradient4458" gradientUnits="userSpaceOnUse" gradientTransform="matrix(1,0,0,2,47.965462,11.645619)" y1="16.188" x2="0" y2="14.14"/>
  <linearGradient inkscape:collect="always" xlink:href="#outerBackgroundGradient" id="linearGradient4462" gradientUnits="userSpaceOnUse" gradientTransform="matrix(1.0769229,0,0,1.0769229,55.461537,22.120194)" y1="-0.806" x2="0" y2="18.01"/>
  <linearGradient inkscape:collect="always" xlink:href="#outerBackgroundGradient" id="linearGradient3123" gradientUnits="userSpaceOnUse" gradientTransform="matrix(0,-0.175,0.175,0,-5.0000326,-0.7999801)" y1="280" x2="0" y2="40"/>
  <linearGradient inkscape:collect="always" xlink:href="#linearGradient4094" id="linearGradient3117" gradientUnits="userSpaceOnUse" x1="324" x2="332" gradientTransform="matrix(0,-1,1,0,-208.375,365.12502)"/>
  <linearGradient y2="40" x2="0" y1="280" gradientTransform="matrix(0,-0.175,0.175,0,5.124967,-36.42498)" gradientUnits="userSpaceOnUse" id="linearGradient3157" xlink:href="#outerBackgroundGradient" inkscape:collect="always"/>
  <clipPath id="clipPath4552">
   <rect id="rect4554" width="21.1" height="21.1" x="42.892" y="24.01" rx="0" opacity="0.2"/>
  </clipPath>
  <linearGradient inkscape:collect="always" xlink:href="#linearGradient3702" id="linearGradient3149" gradientUnits="userSpaceOnUse" y1="45" x2="0" y2="42" gradientTransform="matrix(1.0571429,0,0,1.6666667,-4.9000011,-31.500001)"/>
  <radialGradient inkscape:collect="always" xlink:href="#linearGradient4060" id="radialGradient3146" gradientUnits="userSpaceOnUse" gradientTransform="matrix(1.0571429,0,0,1.25,2.0999999,-13.375001)" cx="40" cy="43.5" r="2"/>
  <radialGradient inkscape:collect="always" xlink:href="#linearGradient4060" id="radialGradient3143" gradientUnits="userSpaceOnUse" gradientTransform="matrix(1.0571429,0,0,1.25,-4.9000011,-13.375001)" cx="9" cy="43.5" r="2"/>
  <linearGradient inkscape:collect="always" xlink:href="#linearGradient3702" id="linearGradient3158" gradientUnits="userSpaceOnUse" y1="45" x2="0" y2="42" gradientTransform="translate(-3.5000011,-2.5000014)"/>
  <radialGradient inkscape:collect="always" xlink:href="#linearGradient4060" id="radialGradient3155" gradientUnits="userSpaceOnUse" gradientTransform="matrix(1,0,0,0.75,3.4999999,8.3749986)" cx="40" cy="43.5" r="2"/>
  <radialGradient inkscape:collect="always" xlink:href="#linearGradient4060" id="radialGradient3152" gradientUnits="userSpaceOnUse" gradientTransform="matrix(1,0,0,0.75,-3.5000011,8.3749986)" cx="9" cy="43.5" r="2"/>
  <linearGradient y1="366.65" x2="0" y2="609.51" id="linearGradient3021" gradientUnits="userSpaceOnUse" gradientTransform="matrix(0.065534,0,0,0.024706,-69.188,10.577)">
   <stop id="stop5050-5-3" stop-opacity="0"/>
   <stop id="stop5056-9-0" offset="0.5"/>
   <stop id="stop5052-6-4" offset="1" stop-opacity="0"/>
  </linearGradient>
  <radialGradient cx="605.71" cy="486.65" r="117.14" id="radialGradient3023" xlink:href="#linearGradient4060" gradientUnits="userSpaceOnUse" gradientTransform="matrix(0.065534,0,0,0.024706,-69.175,10.577)"/>
  <radialGradient cx="605.71" cy="486.65" r="117.14" id="radialGradient4553" xlink:href="#linearGradient4060" gradientUnits="userSpaceOnUse" gradientTransform="matrix(-0.065534,0,0,0.024706,-21.829,10.577)"/>
  <linearGradient y1="8.163" x2="0" y2="48.07" id="linearGradient2919" gradientUnits="userSpaceOnUse" gradientTransform="translate(103.9994,8.9997458)">
   <stop id="stop4498" stop-color="#ffffff"/>
   <stop id="stop4502" offset="1" stop-color="#d7d7d7"/>
  </linearGradient>
  <linearGradient y1="45" x2="0" y2="14.04" id="linearGradient2921" gradientUnits="userSpaceOnUse" gradientTransform="matrix(1,0,0,1.1014,103.9994,4.4869458)">
   <stop id="stop4108" stop-color="#787878"/>
   <stop id="stop4110" offset="1" stop-color="#b4b4b4"/>
  </linearGradient>
  <linearGradient y1="15" x2="0" y2="44" id="linearGradient2911" xlink:href="#linearGradient4873" gradientUnits="userSpaceOnUse" gradientTransform="matrix(1,0,0,1.1071,103.9994,4.3390458)"/>
  <linearGradient y1="30.19" x2="0" y2="15.738" id="linearGradient2903" gradientUnits="userSpaceOnUse" gradientTransform="translate(103.9994,7.3672458)" spreadMethod="reflect">
   <stop id="stop3868" stop-color="#828282"/>
   <stop id="stop3872" offset="0.5" stop-color="#8f8f8f" stop-opacity="0.635"/>
   <stop id="stop3870" offset="1" stop-color="#9d9d9d" stop-opacity="0"/>
  </linearGradient>
  <linearGradient y1="30.19" x2="0" y2="15.738" id="linearGradient2900" xlink:href="#linearGradient4873" gradientUnits="userSpaceOnUse" gradientTransform="translate(103.9994,8.6672458)" spreadMethod="reflect"/>
  <linearGradient y1="35.75" x2="0" y2="20.443" id="linearGradient2897" gradientUnits="userSpaceOnUse" gradientTransform="matrix(0.99801,0,0,1.0672,104.14316,6.9664458)">
   <stop id="stop3497"/>
   <stop id="stop3874" offset="0.5" stop-opacity="0.498"/>
   <stop id="stop3499" offset="1" stop-opacity="0"/>
  </linearGradient>
  <linearGradient y1="30.19" x2="0" y2="15.738" id="linearGradient2894" gradientUnits="userSpaceOnUse" gradientTransform="translate(103.9994,5.9531458)" spreadMethod="reflect">
   <stop id="stop3335-4-6" stop-color="#ffffff"/>
   <stop id="stop3337-7-2" offset="1" stop-color="#ffffff" stop-opacity="0"/>
  </linearGradient>
  <linearGradient x1="16.626" y1="15.298" x2="20.05" y2="24.628" id="linearGradient2891" gradientUnits="userSpaceOnUse" gradientTransform="matrix(0.9986,0,0,1.0844,66.686397,4.8056463)">
   <stop id="stop2687-1-9" stop-color="#ffffff"/>
   <stop id="stop2689-5-4" offset="1" stop-color="#ffffff" stop-opacity="0"/>
  </linearGradient>
  <linearGradient inkscape:collect="always" xlink:href="#linearGradient2919" id="linearGradient4098" gradientUnits="userSpaceOnUse" gradientTransform="matrix(0,-0.175,0.175,0,-52.000033,50.20002)" y1="280" x2="0" y2="40"/>
  <linearGradient inkscape:collect="always" xlink:href="#linearGradient3988-5" id="linearGradient4104" gradientUnits="userSpaceOnUse" gradientTransform="matrix(-0.175,0,0,0.175,50.20002,-4.000033)" y1="280" x2="0" y2="40"/>
  <linearGradient inkscape:collect="always" xlink:href="#linearGradient4873" id="linearGradient4135" gradientUnits="userSpaceOnUse" gradientTransform="matrix(1,0,0,1.1071,104.7361,5.0300454)" y1="15" x2="0" y2="44"/>
  <linearGradient y2="15.738" x2="0" y1="30.19" spreadMethod="reflect" gradientTransform="translate(103.9994,5.9531458)" gradientUnits="userSpaceOnUse" id="linearGradient4182" xlink:href="#linearGradient2894" inkscape:collect="always"/>
  <linearGradient inkscape:collect="always" xlink:href="#linearGradient3988-5" id="linearGradient4974" gradientUnits="userSpaceOnUse" gradientTransform="matrix(-0.175,0,0,-0.175,50.20002,51.000033)" y1="280" x2="0" y2="40"/>
  <linearGradient inkscape:collect="always" xlink:href="#outerBackgroundGradient" id="linearGradient4052" gradientUnits="userSpaceOnUse" gradientTransform="matrix(1.0769229,0,0,1.0769229,48.93135,27.760571)" y1="-0.806" x2="0" y2="18.01"/>
  <linearGradient inkscape:collect="always" xlink:href="#linearGradient4060" id="linearGradient4066" x1="24" y1="20" x2="39.36" y2="37.22" gradientUnits="userSpaceOnUse"/>
  <linearGradient y2="59.784" x2="0" y1="-8.715" gradientTransform="matrix(1.5428538,0,0,-0.93431845,-5.028491,55.357)" gradientUnits="userSpaceOnUse" id="linearGradient3343" xlink:href="#linearGradient3988-5" inkscape:collect="always"/>
  <linearGradient y2="59.784" x2="0" y1="-8.715" gradientTransform="matrix(1.5428538,0,0,-0.93431845,113.97151,89.857)" gradientUnits="userSpaceOnUse" id="linearGradient3331" xlink:href="#linearGradient3988-5" inkscape:collect="always"/>
 </defs>
 <g inkscape:groupmode="layer" id="layer1" inkscape:label="Background">
  <use xlink:href="#g4919" id="use4085" transform="matrix(0.98480775,0.17364818,-0.17364818,0.98480775,4.8436506,-3.8631801)" width="48" height="48"/>
  <g id="g4919" transform="translate(0,1)">
   <g transform="translate(0,-2)" id="g3162">
    <path d="m 4.614285,38.5 39.771573,0 0,5 -39.771573,0 z" id="rect3985" inkscape:connector-curvature="0" sodipodi:nodetypes="ccccc" opacity="0.12" fill="url(#linearGradient3149)"/>
    <path inkscape:connector-curvature="0" id="path3987" d="m 44.385716,38.5 0,5 0.528571,0 c 0.878486,0 1.585715,-1.115 1.585715,-2.5 0,-1.385 -0.707229,-2.5 -1.585715,-2.5 l -0.528571,0 z" opacity="0.12" fill="url(#radialGradient3146)"/>
    <path inkscape:connector-curvature="0" id="path3989" d="m 3.9866064,38.5 c -0.8235804,0 -1.4866072,1.045312 -1.4866072,2.34375 l 0,0.3125 c 0,1.298439 0.6630268,2.34375 1.4866072,2.34375 l 0.6276786,0 0,-5 -0.6276786,0 z" opacity="0.12" fill="url(#radialGradient3143)"/>
    <path d="m 5.499999,39.5 38.000142,0 0,3 -38.000142,0 z" id="rect3938" inkscape:connector-curvature="0" sodipodi:nodetypes="ccccc" opacity="0.12" fill="url(#linearGradient3158)"/>
    <path d="m 43.5,39.499999 0,3 0.5,0 c 0.831,0 1.5,-0.669 1.5,-1.5 0,-0.831 -0.669,-1.5 -1.5,-1.5 l -0.5,0 z" id="rect3940" inkscape:connector-curvature="0" opacity="0.12" fill="url(#radialGradient3155)"/>
    <path d="m 4.9062489,39.499999 c -0.7790625,0 -1.40625,0.627187 -1.40625,1.40625 l 0,0.1875 c 0,0.779063 0.6271875,1.40625 1.40625,1.40625 l 0.59375,0 0,-3 -0.59375,0 z" id="rect3942" inkscape:connector-curvature="0" opacity="0.12" fill="url(#radialGradient3152)"/>
   </g>
   <path sodipodi:nodetypes="sssssssss" inkscape:connector-curvature="0" id="rect3886" d="m 4,9 0,29 c 0,0.554 0.446,1 1,1 l 39,0 c 0.554,0 1,-0.446 1,-1 L 45,9 C 45,8.446 44.554,8 44,8 L 5,8 C 4.446,8 4,8.446 4,9 z" opacity="0.35" color="#bebebe" stroke-width="0"/>
   <path sodipodi:nodetypes="ccccc" inkscape:connector-curvature="0" id="rect3882" d="M 5,9 5,38 44,38 44,9 z" fill="url(#linearGradient4104)" color="#bebebe" stroke-width="0"/>
   <path sodipodi:nodetypes="ccccccccccccc" inkscape:connector-curvature="0" id="path4917" d="M 6.4999998,10.799768 19.100127,22.696803 7.4000121,34.2 19.803207,23.287398 23.9096,26.774921 24.5,27.280736 25.0904,26.774921 29.196791,23.287398 41.599987,34.2 29.899872,22.696803 42.5,10.799768 24.49982,24.918749 z" color="#000000" fill="#ffffff"/>
   <path sodipodi:nodetypes="cccccccccc" inkscape:connector-curvature="0" d="m 5,9 0,29 39,0 0,-29 z m 1,1 37,0 0,27 -37,0 z" id="path3893" opacity="0.4" fill="#ffffff"/>
   <path sodipodi:nodetypes="ccccc" inkscape:connector-curvature="0" id="rect4018" d="m 5,9 39,0 0,1 -39,0 z" opacity="0.4" fill="#ffffff"/>
   <path d="M 6.4999998,11.799884 19.100127,23.696919 7.4000121,35.200116 19.803207,24.287514 23.9096,27.775037 24.5,28.280852 25.0904,27.775037 29.196791,24.287514 41.599987,35.200116 29.899872,23.696919 42.5,11.799884 24.49982,25.918865 z" id="path3886" inkscape:connector-curvature="0" sodipodi:nodetypes="ccccccccccccc" color="#000000" fill="#999999"/>
   <path d="m 18.46875,24.171875 -11.15625,-11 9.53125,8.375 2.15625,2.125 z m 11.875,0 -0.53125,-0.5 2.15625,-2.125 9.53125,-8.375 z" id="path4091" inkscape:connector-curvature="0" sodipodi:nodetypes="cccccccccc" color="#000000" fill="#ffffff"/>
  </g>
 </g>
 <g inkscape:groupmode="layer" id="layer2" inkscape:label="Symbol">
  <path inkscape:connector-curvature="0" id="path4033" d="m 23.336213,25.982824 0.08682,0.492403 0.520944,2.954424 0.08682,0.492404 0.492403,-0.08683 0.492404,-0.08682 0.173649,0.984808 -0.492404,0.08682 -0.492404,0.08682 0.08682,0.492404 0.347296,1.969616 0.08682,0.492403 0.492404,-0.08682 0.492404,-0.08682 0.173648,0.984808 -0.492404,0.08682 -0.492404,0.08682 0.08683,0.492404 0.347296,1.969616 0.08682,0.492403 0.492404,-0.08682 0.492404,-0.08682 0.173648,0.984808 -0.492404,0.08682 -0.492404,0.08682 0.08682,0.492404 0.347297,1.969616 0.08682,0.492404 0.492404,-0.08682 0.492403,-0.08682 0.173649,0.984808 -0.492404,0.08682 -0.492404,0.08682 0.08682,0.492404 0.347296,1.969616 0.08682,0.492403 0.492404,-0.08682 1.969616,-0.347296 0.492404,-0.08682 -0.08682,-0.492404 -0.08682,-0.492404 0.984807,-0.173648 0.08682,0.492404 0.08682,0.492404 0.492404,-0.08682 1.969616,-0.347297 0.492404,-0.08682 -0.08682,-0.492404 -0.08682,-0.492404 0.984807,-0.173648 0.08682,0.492404 0.08682,0.492404 0.492404,-0.08682 1.969616,-0.347296 0.492404,-0.08682 -0.08682,-0.492404 -0.08682,-0.492404 0.984807,-0.173648 0.08682,0.492403 0.08682,0.492404 0.492404,-0.08682 1.969616,-0.347296 0.492404,-0.08682 -0.08682,-0.492404 -0.08682,-0.492404 0.984807,-0.173648 0.08682,0.492404 0.08682,0.492404 0.492404,-0.08682 2.954424,-0.520945 0.492403,-0.08682 -0.08682,-0.492404 -0.520944,-2.954423 -0.08682,-0.492404 -0.492404,0.08682 -0.492404,0.08682 -0.173648,-0.984808 0.492404,-0.08682 0.492404,-0.08682 -0.08682,-0.492404 -0.347296,-1.969615 -0.08682,-0.492404 -0.492404,0.08682 -0.492404,0.08682 -0.173648,-0.984808 0.492404,-0.08682 0.492404,-0.08682 -0.08682,-0.492404 -0.347297,-1.969615 -0.08682,-0.492404 -0.492404,0.08682 -0.492403,0.08682 -0.173649,-0.984808 0.492404,-0.08682 0.492404,-0.08682 -0.08682,-0.492404 -0.347296,-1.969615 -0.08682,-0.492404 -0.492404,0.08682 -0.492404,0.08682 -0.173648,-0.984808 0.492404,-0.08682 0.492403,-0.08682 -0.08682,-0.492404 -0.347296,-1.969615 -0.08682,-0.492404 -0.492404,0.08682 -1.969616,0.347296 -0.492403,0.08682 0.08682,0.492404 0.08682,0.492404 -0.984808,0.173648 -0.08682,-0.492404 -0.08682,-0.492403 -0.492404,0.08682 -1.969616,0.347296 -0.492403,0.08682 0.08682,0.492404 0.08682,0.492404 -0.984808,0.173648 -0.08682,-0.492404 -0.08682,-0.492404 -0.492404,0.08682 -1.969616,0.347297 -0.492403,0.08682 0.08682,0.492404 0.08682,0.492404 -0.984808,0.173648 -0.08682,-0.492404 -0.08682,-0.492404 -0.492404,0.08682 -1.969616,0.347297 -0.492403,0.08682 0.08682,0.492403 0.08682,0.492404 -0.984808,0.173649 -0.08682,-0.492404 -0.08682,-0.492404 -0.492404,0.08682 -2.954423,0.520944 -0.492404,0.08683 z m 1.158456,0.811159 1.969615,-0.347296 0.01085,0.06155 c 0.08806,0.499435 0.58661,0.848536 1.086053,0.760462 l 1.107908,-0.195354 c 0.499434,-0.08806 0.848538,-0.586607 0.760463,-1.086052 l -0.01085,-0.06155 0.984807,-0.173648 0.01085,0.06155 c 0.08806,0.499437 0.586606,0.848539 1.086053,0.760463 l 1.107908,-0.195355 c 0.499435,-0.08806 0.848538,-0.586607 0.760463,-1.086052 l -0.01085,-0.06155 0.984807,-0.173648 0.01085,0.06155 c 0.08806,0.499434 0.586607,0.848538 1.086053,0.760462 L 36.54756,25.68416 c 0.499433,-0.08807 0.848538,-0.586607 0.760463,-1.086053 l -0.01085,-0.06155 0.984807,-0.173648 0.01085,0.06155 c 0.08806,0.499436 0.586628,0.848514 1.086053,0.760462 l 1.107908,-0.195354 c 0.499435,-0.08806 0.848538,-0.586607 0.760463,-1.086053 l -0.01085,-0.06155 0.984807,-0.173648 0.173648,0.984808 -0.06155,0.01085 c -0.499434,0.08806 -0.848512,0.586629 -0.760462,1.086052 l 0.195354,1.107909 c 0.08807,0.499431 0.586608,0.848538 1.086053,0.760462 l 0.06155,-0.01085 0.173648,0.984808 -0.06155,0.01085 c -0.499432,0.08807 -0.848538,0.586607 -0.760462,1.086052 l 0.195354,1.107909 c 0.08806,0.499436 0.586607,0.848538 1.086052,0.760462 l 0.06155,-0.01085 0.173648,0.984808 -0.06155,0.01085 c -0.499436,0.08806 -0.848535,0.586609 -0.760462,1.086052 l 0.195355,1.107909 c 0.08806,0.499433 0.586608,0.848537 1.086052,0.760462 l 0.06155,-0.01085 0.173649,0.984808 -0.06155,0.01085 c -0.499435,0.08806 -0.848538,0.586607 -0.760462,1.086052 l 0.195354,1.107909 c 0.08806,0.499433 0.586607,0.848538 1.086053,0.760462 l 0.06155,-0.01085 0.347297,1.969615 -1.969616,0.347297 -0.01085,-0.06155 c -0.08806,-0.499437 -0.586608,-0.848536 -1.086052,-0.760462 l -1.107909,0.195354 c -0.499433,0.08807 -0.848514,0.586628 -0.760462,1.086053 l 0.01085,0.06155 -0.984808,0.173648 -0.01085,-0.06155 c -0.08806,-0.499437 -0.586607,-0.848538 -1.086052,-0.760462 l -1.107909,0.195354 c -0.499438,0.08806 -0.848514,0.586628 -0.760462,1.086052 l 0.01085,0.06155 -0.984808,0.173648 -0.01085,-0.06155 C 35.399892,42.570351 34.901343,42.221249 34.4019,42.309325 l -1.107909,0.195354 c -0.499434,0.08806 -0.848538,0.586607 -0.760462,1.086052 l 0.01085,0.06155 -0.984808,0.173648 -0.01085,-0.06155 c -0.08806,-0.499435 -0.58661,-0.848535 -1.086052,-0.760462 l -1.107909,0.195354 c -0.499435,0.08807 -0.848514,0.586629 -0.760462,1.086053 l 0.01085,0.06155 -0.984808,0.173649 -0.173648,-0.984808 0.06155,-0.01085 c 0.499434,-0.08806 0.848538,-0.586607 0.760462,-1.086053 L 28.07335,41.330904 c -0.08807,-0.499433 -0.586609,-0.848538 -1.086052,-0.760462 l -0.06155,0.01085 -0.173648,-0.984808 0.06155,-0.01085 c 0.499433,-0.08806 0.848538,-0.586607 0.760462,-1.086053 L 27.378754,37.39167 c -0.08806,-0.499437 -0.586609,-0.848538 -1.086053,-0.760462 l -0.06155,0.01085 -0.173649,-0.984808 0.06155,-0.01085 c 0.499437,-0.08806 0.848536,-0.586608 0.760462,-1.086053 L 26.68416,33.452439 C 26.5961,32.953005 26.097553,32.603901 25.598107,32.691977 l -0.06155,0.01085 -0.173648,-0.984808 0.06155,-0.01085 c 0.499437,-0.08806 0.848514,-0.586628 0.760462,-1.086053 L 25.989567,29.513208 C 25.901507,29.013776 25.40296,28.66467 24.903515,28.752746 l -0.06155,0.01085 -0.347296,-1.969616 z" opacity="0.1" color="#000000" fill="none" stroke="url(#linearGradient4066)"/>
  <g id="g6378" transform="matrix(0.59606758,-0.1051028,0.12403439,0.70343398,17.188063,14.301551)" opacity="0.3">
   <rect height="7" id="rect6380" width="5" x="38" y="40" fill="url(#radialGradient9116)"/>
   <rect height="7" id="rect6382" transform="scale(-1,-1)" width="5" x="-10" y="-47" fill="url(#radialGradient9118)"/>
   <rect height="7" id="rect6384" width="28" x="10" y="40" fill="url(#linearGradient9120)"/>
  </g>
  <path inkscape:connector-curvature="0" d="m 23.915442,26.388403 0.520944,2.954423 0.553954,-0.09768 c 0.241117,-0.04252 0.464309,0.113766 0.506826,0.354883 l 0.195354,1.107908 c 0.04251,0.241117 -0.113766,0.464309 -0.354883,0.506825 l -0.553954,0.09768 0.347295,1.969616 0.553956,-0.09768 c 0.241115,-0.04252 0.464308,0.113766 0.506823,0.354883 l 0.195356,1.107909 c 0.04252,0.241116 -0.113766,0.464309 -0.354884,0.506824 l -0.553954,0.09768 0.347297,1.969616 0.553955,-0.09768 c 0.241115,-0.04252 0.464309,0.113765 0.506823,0.354882 l 0.195354,1.107908 c 0.04252,0.241116 -0.113766,0.464309 -0.354881,0.506824 l -0.553956,0.09768 0.347298,1.969616 0.553953,-0.09768 c 0.241117,-0.04252 0.464309,0.113765 0.506826,0.354881 l 0.195353,1.10791 c 0.04252,0.241116 -0.113766,0.464309 -0.354882,0.506824 l -0.553954,0.09768 0.347295,1.969616 1.969617,-0.347297 -0.09768,-0.553954 c -0.04251,-0.241116 0.113765,-0.464309 0.354882,-0.506825 l 1.107908,-0.195354 c 0.241116,-0.04252 0.46431,0.113765 0.506824,0.354883 l 0.09768,0.553954 1.969617,-0.347296 -0.09768,-0.553956 c -0.04252,-0.241115 0.113766,-0.464308 0.354883,-0.506823 l 1.107909,-0.195354 c 0.241115,-0.04252 0.464309,0.113765 0.506823,0.354882 l 0.09768,0.553954 1.969617,-0.347296 -0.09768,-0.553955 c -0.04251,-0.241117 0.113766,-0.464309 0.354883,-0.506824 l 1.107909,-0.195354 c 0.241115,-0.04252 0.464309,0.113766 0.506823,0.354882 l 0.09768,0.553954 1.969617,-0.347296 -0.09768,-0.553954 c -0.04251,-0.241117 0.113765,-0.464309 0.354882,-0.506825 l 1.107909,-0.195354 c 0.241115,-0.04252 0.464309,0.113766 0.506824,0.354882 l 0.09768,0.553955 2.954424,-0.520945 -0.520944,-2.954423 -0.553955,0.09768 c -0.241117,0.04252 -0.464308,-0.113766 -0.506825,-0.354882 L 44.149026,37.4809 c -0.04252,-0.241116 0.113766,-0.464309 0.354883,-0.506825 l 0.553955,-0.09768 -0.347298,-1.969615 -0.553954,0.09768 c -0.241115,0.04252 -0.464309,-0.113765 -0.506824,-0.354881 l -0.195354,-1.107909 c -0.04252,-0.241116 0.113766,-0.464309 0.354882,-0.506824 l 0.553954,-0.09768 -0.347296,-1.969615 -0.553954,0.09768 c -0.241116,0.04252 -0.46431,-0.113766 -0.506824,-0.354882 l -0.195355,-1.107909 c -0.04252,-0.241117 0.113766,-0.464309 0.354883,-0.506825 l 0.553954,-0.09768 -0.347297,-1.969615 -0.553954,0.09768 c -0.241116,0.04252 -0.464309,-0.113766 -0.506825,-0.354882 l -0.195353,-1.107914 c -0.04251,-0.241117 0.113766,-0.464309 0.354881,-0.506825 l 0.553955,-0.09768 -0.347296,-1.969615 -1.969616,0.347296 0.09768,0.553954 c 0.04252,0.241116 -0.113766,0.46431 -0.354882,0.506825 l -1.107909,0.195354 c -0.241115,0.04251 -0.464309,-0.113766 -0.506823,-0.354882 l -0.09768,-0.553955 -1.969616,0.347297 0.09768,0.553954 c 0.04252,0.241116 -0.113766,0.464309 -0.354882,0.506825 l -1.107909,0.195354 c -0.241115,0.04252 -0.464309,-0.113766 -0.506823,-0.354882 l -0.09768,-0.553955 -1.969616,0.347297 0.09768,0.553954 c 0.04252,0.241116 -0.113766,0.464309 -0.354881,0.506824 l -1.10791,0.195355 c -0.241115,0.04252 -0.464309,-0.113767 -0.506823,-0.354883 l -0.09768,-0.553954 -1.969616,0.347296 0.09768,0.553955 c 0.04252,0.241116 -0.113766,0.464309 -0.354882,0.506824 l -1.107909,0.195354 c -0.241115,0.04252 -0.464309,-0.113766 -0.506823,-0.354882 l -0.09768,-0.553954 -2.954424,0.520944 z" id="rect6352" fill="#eeeeec"/>
  <rect height="13.966" id="rect6372" rx="1" width="14" x="21.47" y="32.64" transform="matrix(0.98480775,-0.17364818,0.17364818,0.98480775,0,0)" fill="url(#linearGradient4052)"/>
  <rect height="11.03" id="rect6392" width="11" x="22.97" y="34.14" transform="matrix(0.98480775,-0.17364818,0.17364818,0.98480775,0,0)" opacity="0.2" fill="none" stroke="#ffffff" stroke-linecap="round" stroke-dashoffset="0.7"/>
  <path id="path4418" d="m 23.915441,26.388403 0.520945,2.954423 0.553954,-0.09768 c 0.241117,-0.04252 0.464309,0.113766 0.506826,0.354882 l 0.195353,1.107909 c 0.04251,0.241117 -0.113766,0.464309 -0.354882,0.506825 l -0.553954,0.09768 0.347295,1.969615 0.553955,-0.09768 c 0.241116,-0.04252 0.464309,0.113766 0.506824,0.354883 l 0.195356,1.107909 c 0.04252,0.241116 -0.113767,0.464309 -0.354884,0.506824 l -0.553954,0.09768 0.347296,1.969616 0.553955,-0.09768 c 0.241116,-0.04252 0.46431,0.113765 0.506824,0.354882 l 0.195354,1.107908 c 0.04252,0.241116 -0.113766,0.464308 -0.354882,0.506824 l -0.553955,0.09768 0.347297,1.969615 0.553954,-0.09768 c 0.241116,-0.04252 0.464309,0.113765 0.506826,0.354881 l 0.195353,1.10791 c 0.04252,0.241116 -0.113766,0.464308 -0.354882,0.506824 l -0.553954,0.09768 0.347295,1.969616 1.969617,-0.347297 -0.09768,-0.553954 c -0.04251,-0.241116 0.113765,-0.464309 0.354882,-0.506825 l 1.107908,-0.195354 c 0.241116,-0.04252 0.46431,0.113765 0.506824,0.354883 l 0.09768,0.553954 1.969617,-0.347296 -0.09768,-0.553956 c -0.04252,-0.241115 0.113766,-0.464308 0.354882,-0.506823 l 1.10791,-0.195354 c 0.241115,-0.04252 0.464309,0.113765 0.506823,0.354882 l 0.09768,0.553954 1.969617,-0.347296 -0.09768,-0.553955 c -0.04251,-0.241117 0.113766,-0.464309 0.354882,-0.506824 l 1.10791,-0.195354 c 0.241115,-0.04252 0.464309,0.113766 0.506823,0.354882 l 0.09768,0.553954 1.969617,-0.347296 -0.09768,-0.553954 c -0.04251,-0.241117 0.113765,-0.464309 0.354881,-0.506825 l 1.107909,-0.195355 c 0.241116,-0.04252 0.46431,0.113767 0.506824,0.354883 l 0.09768,0.553955 2.954424,-0.520945 -0.520945,-2.954423 -0.553954,0.09768 C 44.61009,38.98621 44.386898,38.829924 44.344382,38.588808 L 44.149026,37.4809 c -0.04252,-0.241116 0.113766,-0.464309 0.354882,-0.506824 l 0.553956,-0.09768 -0.347298,-1.969615 -0.553954,0.09768 c -0.241116,0.04252 -0.464309,-0.113765 -0.506824,-0.354881 l -0.195354,-1.107909 c -0.04252,-0.241116 0.113766,-0.464309 0.354882,-0.506824 l 0.553954,-0.09768 -0.347296,-1.969615 -0.553954,0.09768 c -0.241116,0.04252 -0.46431,-0.113766 -0.506824,-0.354882 l -0.195355,-1.107909 c -0.04252,-0.241117 0.113766,-0.464309 0.354883,-0.506826 l 0.553954,-0.09768 -0.347297,-1.969615 -0.553954,0.09768 c -0.241117,0.04252 -0.464309,-0.113766 -0.506825,-0.354882 l -0.195354,-1.107914 c -0.04251,-0.241117 0.113766,-0.464309 0.354882,-0.506825 l 0.553955,-0.09768 -0.347296,-1.969615 -1.969616,0.347296 0.09768,0.553954 c 0.04252,0.241116 -0.113766,0.46431 -0.354882,0.506825 l -1.107909,0.195354 c -0.241116,0.04251 -0.464309,-0.113766 -0.506824,-0.354882 l -0.09768,-0.553955 -1.969616,0.347297 0.09768,0.553954 c 0.04252,0.241116 -0.113766,0.464309 -0.354882,0.506825 l -1.107909,0.195354 c -0.241115,0.04252 -0.464309,-0.113766 -0.506824,-0.354882 l -0.09768,-0.553955 -1.969616,0.347297 0.09768,0.553954 c 0.04252,0.241116 -0.113766,0.464309 -0.354882,0.506824 L 31.413602,26.0817 c -0.241115,0.04252 -0.464309,-0.113767 -0.506823,-0.354883 l -0.09768,-0.553954 -1.969616,0.347296 0.09768,0.553955 c 0.04252,0.241116 -0.113766,0.464309 -0.354882,0.506824 l -1.107909,0.195354 c -0.241115,0.04252 -0.464309,-0.113766 -0.506824,-0.354882 l -0.09768,-0.553954 -2.954424,0.520944 z" inkscape:connector-curvature="0" fill="none" stroke="#888888" stroke-linecap="round" stroke-dashoffset="0.7"/>
  <g id="g4528" transform="matrix(0.56014085,-0.09876795,0.09876795,0.56014085,1.5731356,20.014534)" clip-path="url(#clipPath4552)">
   <path sodipodi:nodetypes="ssssssssss" inkscape:connector-curvature="0" id="path4086" d="m 51.625,32.125 c -2.74958,0 -5,2.25042 -5,5 0,2.74958 2.25042,5 5,5 2.74958,0 5,-2.25042 5,-5 0,-2.74958 -2.25042,-5 -5,-5 z m 0,2 c 1.6687,0 3,1.3313 3,3 0,1.6687 -1.3313,3 -3,3 -1.6687,0 -3,-1.3313 -3,-3 0,-1.6687 1.3313,-3 3,-3 z" opacity="0.1" color="#000000" stroke-width="2" fill="#fed8cd"/>
   <path sodipodi:nodetypes="ssssssssss" inkscape:connector-curvature="0" id="path4088" d="m 51.625,31.125 c -3.29002,0 -6,2.70998 -6,6 0,3.29002 2.70998,6 6,6 3.29002,0 6,-2.70998 6,-6 0,-3.29002 -2.70998,-6 -6,-6 z m 0,4 c 1.12826,0 2,0.87174 2,2 0,1.12826 -0.87174,2 -2,2 -1.12826,0 -2,-0.87174 -2,-2 0,-1.12826 0.87174,-2 2,-2 z" opacity="0.1" color="#000000" stroke-width="4" fill="#fed8cd"/>
   <path sodipodi:nodetypes="ssssssssss" inkscape:connector-curvature="0" id="path4090" d="m 51.625,30.125 c -3.83046,0 -7,3.16954 -7,7 0,3.83046 3.16954,7 7,7 3.83046,0 7,-3.16954 7,-7 0,-3.83046 -3.16954,-7 -7,-7 z m 0,6 c 0.58782,0 1,0.41218 1,1 0,0.58782 -0.41218,1 -1,1 -0.58782,0 -1,-0.41218 -1,-1 0,-0.58782 0.41218,-1 1,-1 z" opacity="0.1" color="#000000" stroke-width="6" fill="#fed8cd"/>
   <path sodipodi:nodetypes="sssss" inkscape:connector-curvature="0" id="path4082" d="m 51.625,33.12502 c 2.20914,0 4,1.79086 4,4 0,2.20914 -1.79086,4 -4,4 -2.20914,0 -4,-1.79086 -4,-4 0,-2.20914 1.79086,-4 4,-4 z" fill="url(#linearGradient3117)" fill-rule="evenodd" color="#000000" stroke-width="14"/>
   <path sodipodi:nodetypes="cczszszszszszszcccccccccc" inkscape:connector-curvature="0" id="path4084" d="m 42.625,42.125017 0,-1 c 0,0 2.52394,-1.6666 3.23353,-1.812 0.7096,-0.1454 1.54759,-0.027 2.40882,0.1355 0.86124,0.162 2.14701,0.3811 2.54829,0.3948 0.40129,0.014 1.12747,-0.035 1.97121,-0.086 0.84374,-0.05 2.24079,-0.096 2.67654,-0.091 0.43575,0 1.52358,0.06 2.68316,0.1308 1.15958,0.071 2.75227,0.1896 3.11363,0.2228 0.36137,0.033 0.78614,0.094 1.26819,0.1605 0.48204,0.066 1.31657,0.1657 1.6118,0.1931 0.29522,0.027 0.97966,0.1211 1.7738,0.1942 0.79414,0.073 2.06499,0.098 2.432,0.071 0.36701,-0.027 1.13629,-0.2988 1.99357,-0.5493 0.85728,-0.2504 1.80257,-0.4797 2.5216,-0.423 0.71903,0.057 4.76386,1.4585 4.76386,1.4585 l 0,1 -5.25,0 -4.25,0 -4.25,0 -4.25,0 -4.25,0 -4.25,0 -4.25,0 z"/>
   <path d="m 42.625,42.125017 0,0.6525 c 0,0 2.52394,1.0873 3.23353,1.1822 0.7096,0.095 1.54759,0.018 2.40882,-0.088 0.86124,-0.1057 2.14701,-0.2487 2.54829,-0.2576 0.40129,-0.01 1.12747,0.023 1.97121,0.056 0.84374,0.033 2.24079,0.063 2.67654,0.059 0.43575,0 1.52358,-0.039 2.68316,-0.085 1.15958,-0.046 2.75227,-0.1237 3.11363,-0.1453 0.36137,-0.022 0.78614,-0.061 1.26819,-0.1048 0.48204,-0.043 1.31657,-0.108 1.6118,-0.1259 0.29522,-0.018 0.97966,-0.079 1.7738,-0.1268 0.79414,-0.048 2.06499,-0.064 2.432,-0.046 0.36701,0.018 1.13629,0.195 1.99357,0.3584 0.85728,0.1634 1.80257,0.313 2.5216,0.276 0.71903,-0.037 4.76386,-0.9516 4.76386,-0.9516 l 0,-0.6524 -5.25,0 -4.25,0 -4.25,0 -4.25,0 -4.25,0 -4.25,0 -4.25,0 z" id="path4092" inkscape:connector-curvature="0" sodipodi:nodetypes="cczszszszszszszcccccccccc" opacity="0.9"/>
   <path sodipodi:nodetypes="ccccc" inkscape:connector-curvature="0" id="rect4102" d="m 42.625,42.125 35,0 0,3 -35,0 z" opacity="0.3" fill="#4d585e" color="#000000" stroke-width="6"/>
  </g>
  <path inkscape:connector-curvature="0" d="m 27.796388,28.242654 c -0.545583,0.0962 -0.90736,0.612872 -0.811159,1.158456 l 2.078351,11.786918 c 0.0962,0.545583 0.612873,0.90736 1.158456,0.811159 l 11.817693,-2.083778 c 0.545584,-0.0962 0.907361,-0.612872 0.81116,-1.158456 L 40.772537,26.970035 c -0.0962,-0.545583 -0.612872,-0.90736 -1.158456,-0.811159 l -11.817693,2.083778 z m 0.173649,0.984808 11.817693,-2.083778 2.083778,11.817693 -11.817693,2.083778 -2.083778,-11.817693 z" id="rect4545" opacity="0.2"/>
  <path d="m 35.15712,28.986189 c -0.257293,0.04537 -0.459614,0.130931 -0.618541,0.241282 -0.157448,0.110094 -0.301221,0.256135 -0.393797,0.466089 l 0.576229,0.268602 c 0.04229,-0.09741 0.114085,-0.192544 0.190116,-0.271513 0.07603,-0.07897 0.182312,-0.111482 0.319832,-0.13573 0.127165,-0.02242 0.213307,-0.01622 0.295673,0.0272 0.08236,0.04342 0.15198,0.112092 0.168929,0.208204 0.02164,0.122735 0.0015,0.254065 -0.03927,0.377133 -0.03959,0.121334 -0.11137,0.236857 -0.197673,0.378619 -0.08657,0.140288 -0.214678,0.323253 -0.380231,0.543026 -0.165553,0.219776 -0.331837,0.457832 -0.537142,0.702912 l 0.09044,0.51292 2.205559,-0.3889 -0.09949,-0.564213 -1.384886,0.244193 c 0.03984,-0.04209 0.137836,-0.167812 0.304779,-0.371061 0.168419,-0.203508 0.324428,-0.389867 0.431524,-0.552071 0.108311,-0.16394 0.18597,-0.329861 0.230877,-0.490247 0.04612,-0.162122 0.04682,-0.33434 0.01214,-0.531009 -0.04719,-0.267641 -0.181208,-0.450221 -0.390637,-0.565762 -0.207954,-0.115798 -0.467995,-0.155468 -0.784433,-0.09967 z m 2.692834,-0.474819 c -0.338621,0.05971 -0.594609,0.170026 -0.758851,0.345353 -0.164242,0.175331 -0.216769,0.420297 -0.169054,0.690894 0.02373,0.134563 0.08962,0.233958 0.191539,0.336434 0.10314,0.100738 0.233356,0.192317 0.413309,0.244443 -0.159188,0.108877 -0.27655,0.225816 -0.35607,0.380106 -0.07805,0.154031 -0.100027,0.332529 -0.06796,0.514407 0.05241,0.297217 0.197629,0.497165 0.425327,0.612532 0.227434,0.113888 0.523259,0.145726 0.887018,0.08158 0.368192,-0.06492 0.636589,-0.188628 0.80562,-0.380043 0.170504,-0.191679 0.21459,-0.43263 0.164532,-0.71654 -0.02034,-0.115336 -0.04621,-0.213118 -0.105554,-0.298708 -0.05783,-0.08585 -0.13064,-0.166689 -0.224744,-0.224806 -0.0941,-0.05812 -0.24074,-0.11016 -0.425389,-0.162983 0.128135,-0.103392 0.213285,-0.183593 0.271576,-0.259433 0.05829,-0.07583 0.109755,-0.176533 0.138824,-0.262469 0.03054,-0.08619 0.04789,-0.178348 0.03172,-0.270028 -0.04876,-0.276512 -0.199807,-0.457614 -0.416283,-0.56124 -0.216486,-0.103616 -0.475819,-0.127645 -0.805565,-0.0695 z m 0.08592,0.487274 c 0.164134,-0.02894 0.29442,-0.01475 0.377133,0.03927 0.08271,0.05403 0.130595,0.140782 0.147805,0.238373 0.01329,0.07541 -0.01264,0.139066 -0.06641,0.223256 -0.05377,0.0842 -0.158637,0.188206 -0.318345,0.294124 -0.120202,-0.02454 -0.23088,-0.06611 -0.30924,-0.104134 -0.07715,-0.03976 -0.138834,-0.06047 -0.176486,-0.101097 -0.03765,-0.04062 -0.04557,-0.10846 -0.0573,-0.175001 -0.01565,-0.08872 0.0071,-0.170629 0.06188,-0.248902 0.05481,-0.07828 0.164992,-0.134864 0.340957,-0.165894 z m 0.221583,1.256656 c 0.190564,0.05179 0.330762,0.119207 0.429911,0.18863 0.10063,0.06917 0.16007,0.157975 0.182495,0.285142 0.01981,0.112381 -0.0092,0.213227 -0.07849,0.304716 -0.06777,0.09122 -0.184725,0.138346 -0.366602,0.170416 -0.18188,0.03207 -0.332584,0.0291 -0.428425,-0.03023 -0.09585,-0.05933 -0.157637,-0.144158 -0.177973,-0.259496 -0.02295,-0.130124 0.009,-0.231998 0.07397,-0.330363 0.06499,-0.09837 0.191922,-0.212892 0.365116,-0.328814 z" id="path4590" inkscape:connector-curvature="0" opacity="0.8" fill="#ffffff"/>
 </g>
</svg>
