<?xml version="1.0" encoding="UTF-8" standalone="no"?>
<svg xmlns="http://www.w3.org/2000/svg" xmlns:xlink="http://www.w3.org/1999/xlink" xmlns:sodipodi="http://sodipodi.sourceforge.net/DTD/sodipodi-0.dtd" xmlns:inkscape="http://www.inkscape.org/namespaces/inkscape" version="1.1" width="48" height="48">
 <metadata id="metadata37"/>
 <defs id="defs3761">
  <linearGradient id="linearGradient4179">
   <stop id="stop4181" stop-color="#d2d2d2"/>
   <stop id="stop4191" offset="0.339" stop-color="#ebebeb"/>
   <stop id="stop4189" offset="0.621" stop-color="#d2d2d2"/>
   <stop id="stop4187" offset="0.833" stop-color="#f5f5f5"/>
   <stop offset="1" id="stop4183" stop-color="#ededed"/>
  </linearGradient>
  <linearGradient id="linearGradient4113" inkscape:collect="always">
   <stop id="stop4115" stop-color="#78a5d5"/>
   <stop id="stop4117" offset="1" stop-color="#7cc4e4"/>
  </linearGradient>
  <linearGradient inkscape:collect="always" id="linearGradient4192">
   <stop id="stop4194"/>
   <stop offset="1" id="stop4196" stop-opacity="0"/>
  </linearGradient>
  <linearGradient inkscape:collect="always" id="linearGradient4154">
   <stop id="stop4156" stop-color="#ffffff"/>
   <stop offset="1" id="stop4158" stop-color="#ffffff" stop-opacity="0"/>
  </linearGradient>
  <linearGradient inkscape:collect="always" id="linearGradient4109">
   <stop id="stop4111" stop-color="#2b73bf"/>
   <stop offset="1" id="stop4113" stop-color="#3fbcf3"/>
  </linearGradient>
  <linearGradient id="linearGradient4520">
   <stop id="stop4522" stop-color="#571746"/>
   <stop offset="0.362" id="stop4524" stop-color="#8a2c48"/>
   <stop id="stop4526" offset="1" stop-color="#af5c25"/>
  </linearGradient>
  <linearGradient id="linearGradient3810">
   <stop id="stop3812" stop-color="#4cc7e0"/>
   <stop offset="1" id="stop3814" stop-color="#2061be"/>
  </linearGradient>
  <linearGradient inkscape:collect="always" xlink:href="#linearGradient4154" id="linearGradient3017" gradientUnits="userSpaceOnUse" gradientTransform="matrix(2.1153734,0,0,2.1153252,-107.57708,31.426557)" y1="-12.489" x2="0" y2="-1.462"/>
  <linearGradient inkscape:collect="always" xlink:href="#linearGradient3810" id="linearGradient3816" x1="4.5" x2="43.5" gradientUnits="userSpaceOnUse" gradientTransform="matrix(0,1,-1,0,48.000003,-3e-6)"/>
  <linearGradient inkscape:collect="always" xlink:href="#linearGradient3988" id="linearGradient3965" gradientUnits="userSpaceOnUse" y1="116.26" x2="0" y2="31.773"/>
  <linearGradient id="linearGradient3988">
   <stop id="stop3990" stop-color="#eeeeec"/>
   <stop offset="1" id="stop3992" stop-color="#ffffff"/>
  </linearGradient>
  <radialGradient inkscape:collect="always" xlink:href="#linearGradient26113-9-3-1" id="radialGradient3755" gradientUnits="userSpaceOnUse" gradientTransform="matrix(1,0,0,0.37,0,24.5124)" cx="24.85" cy="38.909" r="20.2"/>
  <linearGradient inkscape:collect="always" id="linearGradient26113-9-3-1">
   <stop id="stop26115-7-7-9" stop-color="#000000"/>
   <stop offset="1" id="stop26117-3-7-8" stop-color="#000000" stop-opacity="0"/>
  </linearGradient>
  <radialGradient r="20.2" cy="38.909" cx="24.85" gradientTransform="matrix(1.00851,0,0,0.373148,-0.211403,24.39)" gradientUnits="userSpaceOnUse" id="radialGradient4274" xlink:href="#linearGradient26113-9-3-1" inkscape:collect="always"/>
  <linearGradient inkscape:collect="always" xlink:href="#linearGradient4154" id="linearGradient4140" x1="789" x2="827" gradientUnits="userSpaceOnUse"/>
  <clipPath id="clipPath4130">
   <path id="path4132" d="M 790.4375,237 C 789.62555,237 789,237.62555 789,238.4375 l 0,35.09375 c 0,0.812 0.62555,1.46875 1.4375,1.46875 l 35.125,0 c 0.81195,0 1.4375,-0.65675 1.4375,-1.46875 l 0,-35.09375 C 827,237.62555 826.37445,237 825.5625,237 l -35.125,0 z"/>
  </clipPath>
  <linearGradient inkscape:collect="always" xlink:href="#linearGradient5618" id="linearGradient4083" x1="-1023.86" x2="-984.86" gradientUnits="userSpaceOnUse" gradientTransform="translate(980.3622,784)"/>
  <linearGradient id="linearGradient5618">
   <stop id="stop5620" stop-color="#3e3e3e"/>
   <stop offset="1" id="stop5622" stop-color="#595959"/>
  </linearGradient>
  <linearGradient id="linearGradient4094">
   <stop id="stop4096" stop-color="#e28192"/>
   <stop id="stop4317" offset="0.259" stop-color="#f7d6c7"/>
   <stop offset="1" id="stop4098" stop-color="#fffee4"/>
  </linearGradient>
  <clipPath id="clipPath14228">
   <rect id="rect14230" width="32" height="42" x="312" y="231" fill="none" color="#bebebe" stroke-width="0" rx="0"/>
  </clipPath>
  <clipPath id="clipPath3449">
   <rect id="rect3451" width="32" height="42" x="312" y="231" fill="none" color="#bebebe" stroke-width="0" rx="0"/>
  </clipPath>
  <linearGradient inkscape:collect="always" xlink:href="#linearGradient3988-5" id="linearGradient4030" x1="304" x2="352" gradientUnits="userSpaceOnUse"/>
  <linearGradient id="linearGradient3988-5">
   <stop id="stop3990-5" stop-color="#ededed"/>
   <stop offset="1" id="stop3992-0" stop-color="#ffffff"/>
  </linearGradient>
  <clipPath id="clipPath3457">
   <rect id="rect3459" width="32" height="42" x="312" y="231" fill="none" color="#bebebe" stroke-width="0" rx="0"/>
  </clipPath>
  <clipPath id="clipPath3461">
   <rect id="rect3463" width="32" height="42" x="312" y="231" fill="none" color="#bebebe" stroke-width="0" rx="0"/>
  </clipPath>
  <linearGradient id="outerBackgroundGradient">
   <stop id="stop3864-8-6" stop-color="#8c166c"/>
   <stop id="stop4409" offset="0.362" stop-color="#ca3561"/>
   <stop offset="1" id="stop3866-9-1" stop-color="#f38f4e"/>
  </linearGradient>
  <linearGradient inkscape:collect="always" xlink:href="#linearGradient3988-5" id="linearGradient3947" gradientUnits="userSpaceOnUse" gradientTransform="matrix(0,-0.175,0.175,0,-4.0000326,48.20002)" y1="280" x2="0" y2="40"/>
  <linearGradient inkscape:collect="always" xlink:href="#outerBackgroundGradient" id="linearGradient3949" gradientUnits="userSpaceOnUse" gradientTransform="matrix(0,-0.175,0.175,0,-4.0000326,1.2000199)" y1="280" x2="0" y2="40"/>
  <linearGradient inkscape:collect="always" xlink:href="#linearGradient4094" id="linearGradient3951" gradientUnits="userSpaceOnUse" x1="324" x2="332"/>
  <linearGradient inkscape:collect="always" xlink:href="#linearGradient2919" id="linearGradient4117" gradientUnits="userSpaceOnUse" gradientTransform="matrix(0,-0.175,0.175,0,-53.000033,48.20002)" y1="280" x2="0" y2="40"/>
  <radialGradient inkscape:collect="always" xlink:href="#linearGradient4192" id="radialGradient4131" cx="23.5" cy="40" r="20.5" gradientTransform="matrix(1,0,0,0.09756098,0,36.097561)" gradientUnits="userSpaceOnUse"/>
  <radialGradient cx="4.993" cy="43.5" gradientTransform="matrix(2.003784,0,0,1.4,27.98813,-17.4)" gradientUnits="userSpaceOnUse" id="radialGradient9116" inkscape:collect="always" r="2.5" xlink:href="#linearGradient3688"/>
  <linearGradient id="linearGradient3688" inkscape:collect="always">
   <stop id="stop3690"/>
   <stop id="stop3692" offset="1" stop-opacity="0"/>
  </linearGradient>
  <radialGradient cx="4.993" cy="43.5" gradientTransform="matrix(2.003784,0,0,1.4,-20.01187,-104.4)" gradientUnits="userSpaceOnUse" id="radialGradient9118" inkscape:collect="always" r="2.5" xlink:href="#linearGradient3688"/>
  <linearGradient gradientUnits="userSpaceOnUse" id="linearGradient9120" inkscape:collect="always" x2="0" xlink:href="#linearGradient3702" y1="47.03" y2="39.999"/>
  <linearGradient id="linearGradient3702">
   <stop id="stop3704" stop-opacity="0"/>
   <stop id="stop3710" offset="0.5"/>
   <stop id="stop3706" offset="1" stop-opacity="0"/>
  </linearGradient>
  <linearGradient gradientTransform="translate(80.00001,-0.0389932)" gradientUnits="userSpaceOnUse" id="linearGradient9122" inkscape:collect="always" x2="0" xlink:href="#linearGradient6394" y1="-0.806" y2="18.01"/>
  <linearGradient id="linearGradient6394" inkscape:collect="always">
   <stop id="stop6396" stop-color="#729fcf"/>
   <stop id="stop6398" offset="1" stop-color="#ffffff"/>
  </linearGradient>
  <linearGradient gradientTransform="matrix(1,0,0,2,80.00001,-17.038994)" gradientUnits="userSpaceOnUse" id="linearGradient9124" inkscape:collect="always" x2="0" xlink:href="#linearGradient6754" y1="16.188" y2="14.14"/>
  <linearGradient id="linearGradient6754" inkscape:collect="always">
   <stop id="stop6756" stop-color="#729fcf"/>
   <stop id="stop6758" offset="1" stop-color="#729fcf" stop-opacity="0"/>
  </linearGradient>
  <radialGradient cx="-16.484" cy="16.06" gradientTransform="matrix(1.4386863,0,0,1.1876132,7.181008,-2.926052)" gradientUnits="userSpaceOnUse" id="radialGradient9126" inkscape:collect="always" r="9" xlink:href="#linearGradient4154"/>
  <linearGradient inkscape:collect="always" xlink:href="#linearGradient6754" id="linearGradient4458" gradientUnits="userSpaceOnUse" gradientTransform="matrix(1,0,0,2,47.965462,11.645619)" y1="16.188" x2="0" y2="14.14"/>
  <linearGradient inkscape:collect="always" xlink:href="#outerBackgroundGradient" id="linearGradient4462" gradientUnits="userSpaceOnUse" gradientTransform="matrix(1.0769229,0,0,1.0769229,55.461537,22.120194)" y1="-0.806" x2="0" y2="18.01"/>
  <linearGradient inkscape:collect="always" xlink:href="#outerBackgroundGradient" id="linearGradient3123" gradientUnits="userSpaceOnUse" gradientTransform="matrix(0,-0.175,0.175,0,-5.0000326,-0.7999801)" y1="280" x2="0" y2="40"/>
  <linearGradient inkscape:collect="always" xlink:href="#linearGradient4094" id="linearGradient3117" gradientUnits="userSpaceOnUse" x1="324" x2="332" gradientTransform="matrix(0,-1,1,0,-208.375,365.12502)"/>
  <linearGradient y2="40" x2="0" y1="280" gradientTransform="matrix(0,-0.175,0.175,0,5.124967,-36.42498)" gradientUnits="userSpaceOnUse" id="linearGradient3157" xlink:href="#outerBackgroundGradient" inkscape:collect="always"/>
  <clipPath id="clipPath4552">
   <rect id="rect4554" width="21.1" height="21.1" x="42.892" y="24.01" rx="0" opacity="0.2"/>
  </clipPath>
  <radialGradient inkscape:collect="always" xlink:href="#linearGradient4192" id="radialGradient4131-2" cx="23.5" cy="40" r="20.5" gradientTransform="matrix(1,0,0,0.09756098,0,36.097561)" gradientUnits="userSpaceOnUse"/>
  <linearGradient inkscape:collect="always" xlink:href="#linearGradient3960" id="linearGradient3149" gradientUnits="userSpaceOnUse" y1="45" x2="0" y2="42" gradientTransform="matrix(1.0571429,0,0,1.6666667,-4.9000011,-31.500001)"/>
  <linearGradient id="linearGradient3960">
   <stop id="stop3962" stop-opacity="0"/>
   <stop id="stop3970" offset="0.5"/>
   <stop offset="1" id="stop3964" stop-opacity="0"/>
  </linearGradient>
  <radialGradient inkscape:collect="always" xlink:href="#linearGradient4192" id="radialGradient3146" gradientUnits="userSpaceOnUse" gradientTransform="matrix(1.0571429,0,0,1.25,2.0999999,-13.375001)" cx="40" cy="43.5" r="2"/>
  <radialGradient inkscape:collect="always" xlink:href="#linearGradient4192" id="radialGradient3143" gradientUnits="userSpaceOnUse" gradientTransform="matrix(1.0571429,0,0,1.25,-4.9000011,-13.375001)" cx="9" cy="43.5" r="2"/>
  <linearGradient inkscape:collect="always" xlink:href="#linearGradient3960" id="linearGradient3158" gradientUnits="userSpaceOnUse" y1="45" x2="0" y2="42" gradientTransform="translate(-3.5000011,-2.5000014)"/>
  <radialGradient inkscape:collect="always" xlink:href="#linearGradient4192" id="radialGradient3155" gradientUnits="userSpaceOnUse" gradientTransform="matrix(1,0,0,0.75,3.4999999,8.3749986)" cx="40" cy="43.5" r="2"/>
  <radialGradient inkscape:collect="always" xlink:href="#linearGradient4192" id="radialGradient3152" gradientUnits="userSpaceOnUse" gradientTransform="matrix(1,0,0,0.75,-3.5000011,8.3749986)" cx="9" cy="43.5" r="2"/>
  <linearGradient y1="366.65" x2="0" y2="609.51" id="linearGradient3021" gradientUnits="userSpaceOnUse" gradientTransform="matrix(0.065534,0,0,0.024706,-69.188,10.577)">
   <stop id="stop5050-5-3" stop-opacity="0"/>
   <stop id="stop5056-9-0" offset="0.5"/>
   <stop id="stop5052-6-4" offset="1" stop-opacity="0"/>
  </linearGradient>
  <radialGradient cx="605.71" cy="486.65" r="117.14" id="radialGradient3023" xlink:href="#linearGradient4192" gradientUnits="userSpaceOnUse" gradientTransform="matrix(0.065534,0,0,0.024706,-69.175,10.577)"/>
  <radialGradient cx="605.71" cy="486.65" r="117.14" id="radialGradient4553" xlink:href="#linearGradient4192" gradientUnits="userSpaceOnUse" gradientTransform="matrix(-0.065534,0,0,0.024706,-21.829,10.577)"/>
  <linearGradient y1="8.163" x2="0" y2="48.07" id="linearGradient2919" gradientUnits="userSpaceOnUse" gradientTransform="translate(103.9994,8.9997458)">
   <stop id="stop4498" stop-color="#ffffff"/>
   <stop id="stop4502" offset="1" stop-color="#d7d7d7"/>
  </linearGradient>
  <linearGradient y1="45" x2="0" y2="14.04" id="linearGradient2921" gradientUnits="userSpaceOnUse" gradientTransform="matrix(1,0,0,1.1014,103.9994,4.4869458)">
   <stop id="stop4108" stop-color="#787878"/>
   <stop id="stop4110" offset="1" stop-color="#b4b4b4"/>
  </linearGradient>
  <linearGradient y1="15" x2="0" y2="44" id="linearGradient2911" xlink:href="#linearGradient4154" gradientUnits="userSpaceOnUse" gradientTransform="matrix(1,0,0,1.1071,103.9994,4.3390458)"/>
  <linearGradient y1="30.19" x2="0" y2="15.738" id="linearGradient2903" gradientUnits="userSpaceOnUse" gradientTransform="translate(103.9994,7.3672458)" spreadMethod="reflect">
   <stop id="stop3868" stop-color="#828282"/>
   <stop id="stop3872" offset="0.5" stop-color="#8f8f8f" stop-opacity="0.635"/>
   <stop id="stop3870" offset="1" stop-color="#9d9d9d" stop-opacity="0"/>
  </linearGradient>
  <linearGradient y1="30.19" x2="0" y2="15.738" id="linearGradient2900" xlink:href="#linearGradient4154" gradientUnits="userSpaceOnUse" gradientTransform="translate(103.9994,8.6672458)" spreadMethod="reflect"/>
  <linearGradient y1="35.75" x2="0" y2="20.443" id="linearGradient2897" gradientUnits="userSpaceOnUse" gradientTransform="matrix(0.99801,0,0,1.0672,104.14316,6.9664458)">
   <stop id="stop3497"/>
   <stop id="stop3874" offset="0.5" stop-opacity="0.498"/>
   <stop id="stop3499" offset="1" stop-opacity="0"/>
  </linearGradient>
  <linearGradient y1="30.19" x2="0" y2="15.738" id="linearGradient2894" gradientUnits="userSpaceOnUse" gradientTransform="translate(103.9994,5.9531458)" spreadMethod="reflect">
   <stop id="stop3335-4-6" stop-color="#ffffff"/>
   <stop id="stop3337-7-2" offset="1" stop-color="#ffffff" stop-opacity="0"/>
  </linearGradient>
  <linearGradient x1="16.626" y1="15.298" x2="20.05" y2="24.628" id="linearGradient2891" gradientUnits="userSpaceOnUse" gradientTransform="matrix(0.9986,0,0,1.0844,66.686397,4.8056463)">
   <stop id="stop2687-1-9" stop-color="#ffffff"/>
   <stop id="stop2689-5-4" offset="1" stop-color="#ffffff" stop-opacity="0"/>
  </linearGradient>
  <linearGradient inkscape:collect="always" xlink:href="#linearGradient2919" id="linearGradient4098" gradientUnits="userSpaceOnUse" gradientTransform="matrix(0,-0.175,0.175,0,-52.000033,50.20002)" y1="280" x2="0" y2="40"/>
  <linearGradient inkscape:collect="always" xlink:href="#linearGradient4154" id="linearGradient4135" gradientUnits="userSpaceOnUse" gradientTransform="matrix(1,0,0,1.1071,104.7361,5.0300454)" y1="15" x2="0" y2="44"/>
  <linearGradient inkscape:collect="always" xlink:href="#linearGradient4154" id="linearGradient4135-0" gradientUnits="userSpaceOnUse" gradientTransform="matrix(1,0,0,1.1071,104.7361,5.0300454)" y1="15" x2="0" y2="44"/>
  <linearGradient y1="30.19" x2="0" y2="15.738" id="linearGradient2900-7" xlink:href="#linearGradient4154" gradientUnits="userSpaceOnUse" gradientTransform="translate(103.9994,8.6672458)" spreadMethod="reflect"/>
  <linearGradient y2="15.738" x2="0" y1="30.19" spreadMethod="reflect" gradientTransform="translate(103.9994,5.9531458)" gradientUnits="userSpaceOnUse" id="linearGradient4182" xlink:href="#linearGradient2894" inkscape:collect="always"/>
  <linearGradient inkscape:collect="always" xlink:href="#linearGradient3988-5-1" id="linearGradient4974" gradientUnits="userSpaceOnUse" gradientTransform="matrix(-0.175,0,0,-0.175,50.20002,51.000033)" y1="280" x2="0" y2="40"/>
  <linearGradient inkscape:collect="always" xlink:href="#outerBackgroundGradient" id="linearGradient4052" gradientUnits="userSpaceOnUse" gradientTransform="matrix(1.0769229,0,0,1.0769229,48.93135,27.760571)" y1="-0.806" x2="0" y2="18.01"/>
  <linearGradient inkscape:collect="always" xlink:href="#linearGradient4192" id="linearGradient4066" x1="24" y1="20" x2="39.36" y2="37.22" gradientUnits="userSpaceOnUse"/>
  <linearGradient y2="59.784" x2="0" y1="-8.715" gradientTransform="matrix(1.5428538,0,0,-0.93431845,-5.028491,55.357)" gradientUnits="userSpaceOnUse" id="linearGradient3343" xlink:href="#linearGradient3988-5-1" inkscape:collect="always"/>
  <linearGradient id="linearGradient3988-5-1">
   <stop id="stop3990-5-6" stop-color="#e6e6e6"/>
   <stop offset="1" id="stop3992-0-6" stop-color="#f0f0f0"/>
  </linearGradient>
  <linearGradient y2="59.784" x2="0" y1="-8.715" gradientTransform="matrix(1.5428538,0,0,-0.93431845,113.97151,89.857)" gradientUnits="userSpaceOnUse" id="linearGradient3331" xlink:href="#linearGradient3988-5-1" inkscape:collect="always"/>
  <linearGradient inkscape:collect="always" xlink:href="#linearGradient4109" id="linearGradient4099" gradientUnits="userSpaceOnUse" gradientTransform="matrix(1.0769229,0,0,1.0769229,48.93135,-51.486529)" y1="-0.806" x2="0" y2="18.01"/>
  <linearGradient inkscape:collect="always" xlink:href="#linearGradient4109" id="linearGradient4358" gradientUnits="userSpaceOnUse" gradientTransform="matrix(1.0769229,0,0,1.0769229,55.461545,-45.837815)" y1="-0.806" x2="0" y2="18.01"/>
  <linearGradient inkscape:collect="always" xlink:href="#linearGradient3702" id="linearGradient4373" gradientUnits="userSpaceOnUse" y1="47.03" x2="0" y2="39.999" gradientTransform="matrix(0.60526288,0,0,0.71428558,20.973694,11.42024)"/>
  <radialGradient inkscape:collect="always" xlink:href="#linearGradient3688" id="radialGradient4376" gradientUnits="userSpaceOnUse" gradientTransform="matrix(1.2128161,0,0,0.99999981,-33.086136,-85.991655)" cx="4.993" cy="43.5" r="2.5"/>
  <radialGradient inkscape:collect="always" xlink:href="#linearGradient3688" id="radialGradient4379" gradientUnits="userSpaceOnUse" gradientTransform="matrix(1.2128161,0,0,0.99999981,37.91387,-1.0083291)" cx="4.993" cy="43.5" r="2.5"/>
  <linearGradient inkscape:collect="always" xlink:href="#linearGradient3988-5-1" id="linearGradient4297" gradientUnits="userSpaceOnUse" gradientTransform="matrix(-0.175,0,0,0.175,49.200021,-3.000033)" y1="280" x2="0" y2="40"/>
  <linearGradient inkscape:collect="always" xlink:href="#linearGradient4154" id="linearGradient4299" gradientUnits="userSpaceOnUse" gradientTransform="translate(-0.9999992,1)" y1="10" x2="0" y2="36.5"/>
  <radialGradient inkscape:collect="always" xlink:href="#linearGradient4192" id="radialGradient4301" gradientUnits="userSpaceOnUse" gradientTransform="matrix(1,0,0,0.78390198,0,-4.3222175)" cx="24" cy="38.681" r="17.859"/>
  <linearGradient inkscape:collect="always" xlink:href="#linearGradient4113" id="linearGradient3321" gradientUnits="userSpaceOnUse" gradientTransform="matrix(1.0769229,0,0,1.0769229,48.932806,-51.47832)" x1="-15.956" y1="17.14" x2="-20.04" y2="4.665"/>
  <linearGradient inkscape:collect="always" xlink:href="#linearGradient3702" id="linearGradient3325" gradientUnits="userSpaceOnUse" gradientTransform="matrix(0.60526288,0,0,0.71428558,14.444955,17.060745)" y1="47.03" x2="0" y2="39.999"/>
  <radialGradient inkscape:collect="always" xlink:href="#linearGradient3688" id="radialGradient3328" gradientUnits="userSpaceOnUse" gradientTransform="matrix(1.2128161,0,0,0.99999981,-26.557397,-91.63216)" cx="4.993" cy="43.5" r="2.5"/>
  <radialGradient inkscape:collect="always" xlink:href="#linearGradient3688" id="radialGradient3331" gradientUnits="userSpaceOnUse" gradientTransform="matrix(1.2128161,0,0,0.99999981,31.385131,4.6321758)" cx="4.993" cy="43.5" r="2.5"/>
  <linearGradient inkscape:collect="always" xlink:href="#linearGradient4179" id="linearGradient4185" x1="8" x2="15.03" gradientUnits="userSpaceOnUse"/>
 </defs>
 <g inkscape:groupmode="layer" id="layer1" inkscape:label="Background">
  <use xlink:href="#g4208" id="use4119" transform="matrix(0.98480775,0.17364818,-0.17364818,0.98480775,4.8284331,-3.6895343)" width="48" height="48"/>
  <g id="g4206" transform="matrix(0.70710678,-0.70710678,0.70710678,0.70710678,-26.4365,16.833496)">
   <path sodipodi:nodetypes="sccccccccccccccccccccccccccccccscccccsssccccccccsscccccs" d="m 12.500078,28 c -1.337538,0 -2.400468,1.04491 -2.46875,2.34375 -0.0022,0.04256 -0.03125,0.08192 -0.03125,0.125 -3.255e-4,0.01041 -3.255e-4,0.02084 0,0.03125 -3.368e-4,0.01041 -3.368e-4,0.02084 0,0.03125 l 0,9.375 c 0.0099,0.01087 0.02038,0.0213 0.03125,0.03125 -3.26e-4,0.01041 -3.26e-4,0.02084 0,0.03125 -0.0013,0.02081 -0.0013,0.04169 0,0.0625 0.03061,0.794606 0.666813,1.4668 1.46875,1.46875 l 0,-0.03125 c 0.752698,9.07e-4 1.366544,-0.554402 1.46875,-1.28125 0.01348,-0.03012 0.02396,-0.06157 0.03125,-0.09375 0.0016,-0.02219 -5.61e-4,-0.04006 0,-0.0625 3.26e-4,-0.01041 3.26e-4,-0.02084 0,-0.03125 3.26e-4,-0.01041 3.26e-4,-0.02084 0,-0.03125 0.01041,3.26e-4 0.02084,3.26e-4 0.03125,0 l 0,-5.46875 c 0.0098,-0.309146 -0.32555,-0.577443 -0.625,-0.5 -0.217918,0.05617 -0.382099,0.275072 -0.375,0.5 l 0,5.34375 c -3.26e-4,0.01041 -3.26e-4,0.02084 0,0.03125 l 0,0.0625 c -0.01186,0.02007 -0.02231,0.04097 -0.03125,0.0625 -7.3e-4,0.28206 -0.21793,0.50073 -0.5,0.5 -0.28207,-7.2e-4 -0.46948,-0.24919 -0.46875,-0.53125 -0.01041,-3.26e-4 -0.02084,-3.26e-4 -0.03125,0 0.01186,-0.02007 0.02231,-0.04097 0.03125,-0.0625 l 0,-9.375 0,-0.03125 c 3.26e-4,-0.01041 3.26e-4,-0.02084 0,-0.03125 0,-0.82998 0.64098,-1.5 1.46875,-1.5 0.82777,0 1.5,0.67002 1.5,1.5 0.0072,0.03216 0.01768,0.06362 0.03125,0.09375 -0.0013,0.02081 -0.0013,0.04169 0,0.0625 l 0,10.6875 c -0.0052,0.04145 -0.0052,0.08355 0,0.125 l 0,0.0625 c 0,1.38663 -1.11337,2.5 -2.5,2.5 -1.38663,0 -2.5000004,-1.11337 -2.5000004,-2.5 0,-0.008 -8e-5,-0.02305 0,-0.03125 l 0,-0.5 -0.03125,0 0,-9.46875 c 0.00523,-0.296166 -0.3027936,-0.555551 -0.59375,-0.5 -0.2292012,0.04373 -0.4103617,0.2667 -0.40625,0.5 l 0,10 c 0.00373,0.07641 0.0253,0.151899 0.0625,0.21875 C 8.1813917,43.539777 9.6812613,45 11.531328,45 c 1.92707,0 3.5,-1.57293 3.5,-3.5 l 0,-0.5 0,-10.4375 0,-0.0625 c 3.26e-4,-0.01041 3.26e-4,-0.02084 0,-0.03125 0,-0.04308 -0.02901,-0.08244 -0.03125,-0.125 C 14.931798,29.04491 13.837616,28 12.500078,28 z" id="path4193" inkscape:connector-curvature="0" opacity="0.41" fill="none" stroke="#000000" stroke-linejoin="round" color="#000000" stroke-width="2"/>
   <path sodipodi:nodetypes="sccccccccccccccccccccccccccccccscccccsssccccccccsscccccs" inkscape:connector-curvature="0" id="path35480" d="m 12.500078,28 c -1.337538,0 -2.400468,1.04491 -2.46875,2.34375 -0.0022,0.04256 -0.03125,0.08192 -0.03125,0.125 -3.255e-4,0.01041 -3.255e-4,0.02084 0,0.03125 -3.368e-4,0.01041 -3.368e-4,0.02084 0,0.03125 l 0,9.375 c 0.0099,0.01087 0.02038,0.0213 0.03125,0.03125 -3.26e-4,0.01041 -3.26e-4,0.02084 0,0.03125 -0.0013,0.02081 -0.0013,0.04169 0,0.0625 0.03061,0.794606 0.666813,1.4668 1.46875,1.46875 l 0,-0.03125 c 0.752698,9.07e-4 1.366544,-0.554402 1.46875,-1.28125 0.01348,-0.03012 0.02396,-0.06157 0.03125,-0.09375 0.0016,-0.02219 -5.61e-4,-0.04006 0,-0.0625 3.26e-4,-0.01041 3.26e-4,-0.02084 0,-0.03125 3.26e-4,-0.01041 3.26e-4,-0.02084 0,-0.03125 0.01041,3.26e-4 0.02084,3.26e-4 0.03125,0 l 0,-5.46875 c 0.0098,-0.309146 -0.32555,-0.577443 -0.625,-0.5 -0.217918,0.05617 -0.382099,0.275072 -0.375,0.5 l 0,5.34375 c -3.26e-4,0.01041 -3.26e-4,0.02084 0,0.03125 l 0,0.0625 c -0.01186,0.02007 -0.02231,0.04097 -0.03125,0.0625 -7.3e-4,0.28206 -0.21793,0.50073 -0.5,0.5 -0.28207,-7.2e-4 -0.46948,-0.24919 -0.46875,-0.53125 -0.01041,-3.26e-4 -0.02084,-3.26e-4 -0.03125,0 0.01186,-0.02007 0.02231,-0.04097 0.03125,-0.0625 l 0,-9.375 0,-0.03125 c 3.26e-4,-0.01041 3.26e-4,-0.02084 0,-0.03125 0,-0.82998 0.64098,-1.5 1.46875,-1.5 0.82777,0 1.5,0.67002 1.5,1.5 0.0072,0.03216 0.01768,0.06362 0.03125,0.09375 -0.0013,0.02081 -0.0013,0.04169 0,0.0625 l 0,10.6875 c -0.0052,0.04145 -0.0052,0.08355 0,0.125 l 0,0.0625 c 0,1.38663 -1.11337,2.5 -2.5,2.5 -1.38663,0 -2.5000004,-1.11337 -2.5000004,-2.5 0,-0.008 -8e-5,-0.02305 0,-0.03125 l 0,-0.5 -0.03125,0 0,-9.46875 c 0.00523,-0.296166 -0.3027936,-0.555551 -0.59375,-0.5 -0.2292012,0.04373 -0.4103617,0.2667 -0.40625,0.5 l 0,10 c 0.00373,0.07641 0.0253,0.151899 0.0625,0.21875 C 8.1813917,43.539777 9.6812613,45 11.531328,45 c 1.92707,0 3.5,-1.57293 3.5,-3.5 l 0,-0.5 0,-10.4375 0,-0.0625 c 3.26e-4,-0.01041 3.26e-4,-0.02084 0,-0.03125 0,-0.04308 -0.02901,-0.08244 -0.03125,-0.125 C 14.931798,29.04491 13.837616,28 12.500078,28 z" fill="url(#linearGradient4185)" color="#000000" stroke-width="7.755"/>
   <path id="path4195" d="m 12.5,28 c -1.337538,0 -2.400468,1.04491 -2.46875,2.34375 C 10.02905,30.38631 10,30.42567 10,30.46875 c -3.255e-4,0.01041 -3.255e-4,0.02084 0,0.03125 -3.368e-4,0.01041 -3.368e-4,0.02084 0,0.03125 l 0,0.9375 c 0,-0.04308 0.02905,-0.08244 0.03125,-0.125 0.0579,-1.101257 0.825898,-1.995972 1.875,-2.25 0.02942,-0.01263 0.06332,-0.02054 0.09375,-0.03125 0.152131,-0.05355 0.327548,-0.09375 0.5,-0.09375 0.172452,0 0.345722,0.0402 0.5,0.09375 0.03086,0.01071 0.06385,0.01862 0.09375,0.03125 1.055937,0.254028 1.848357,1.148743 1.90625,2.25 0.0022,0.04256 0.03125,0.08192 0.03125,0.125 l 0,-0.90625 0,-0.0625 c 3.26e-4,-0.01041 3.26e-4,-0.02084 0,-0.03125 0,-0.04308 -0.02901,-0.08244 -0.03125,-0.125 C 14.93172,29.04491 13.837538,28 12.5,28 z M 8.40625,31 C 8.1770488,31.04373 7.9958883,31.2667 8,31.5 l 0,1 C 7.9958883,32.2667 8.1770488,32.04373 8.40625,32 8.6972064,31.944449 9.00523,32.203834 9,32.5 l 0,-1 C 9.00523,31.203834 8.6972064,30.944449 8.40625,31 z m 4,3 c -0.217918,0.05617 -0.382099,0.275072 -0.375,0.5 l 0,1 c -0.0071,-0.224928 0.157082,-0.44383 0.375,-0.5 0.29945,-0.07744 0.6348,0.190854 0.625,0.5 l 0,-1 c 0.0098,-0.309146 -0.32555,-0.577443 -0.625,-0.5 z m -0.375,5.9375 C 12.01939,39.95757 12.00894,39.97847 12,40 c -7.3e-4,0.28206 -0.21793,0.50073 -0.5,0.5 -0.28207,-7.2e-4 -0.46948,-0.24919 -0.46875,-0.53125 l 0,0.9375 c -0.0089,0.02153 -0.01939,0.04243 -0.03125,0.0625 0.01041,-3.26e-4 0.02084,-3.26e-4 0.03125,0 -5.47e-4,0.211545 0.109577,0.416593 0.28125,0.5 0.05722,0.0278 0.116983,0.03107 0.1875,0.03125 l 0,-0.03125 c 0.07343,8.8e-5 0.148305,-0.02111 0.21875,-0.03125 C 11.877532,41.355094 11.999493,41.196066 12,41 c 0.0089,-0.02153 0.01939,-0.04243 0.03125,-0.0625 l 0,-0.0625 c -3.26e-4,-0.01041 -3.26e-4,-0.02084 0,-0.03125 l 0,-0.90625 z M 9,40.96875 l 0,1 0.03125,0 0,0.5 c -8e-5,0.0082 0,0.02325 0,0.03125 0,1.213301 0.8579602,2.205436 2,2.4375 0.163149,0.03315 0.326671,0.0625 0.5,0.0625 1.38663,0 2.5,-1.11337 2.5,-2.5 l 0,-0.0625 c -0.0052,-0.04145 -0.0052,-0.08355 0,-0.125 l 0,-0.8125 c 0,1.38663 -1.11337,2.5 -2.5,2.5 -1.38663,0 -2.5,-1.11337 -2.5,-2.5 0,-0.008 -8e-5,-0.02305 0,-0.03125 l 0,-0.5 -0.03125,0 z" inkscape:connector-curvature="0" fill="#ffffff" color="#000000" stroke-width="7.755"/>
   <path inkscape:connector-curvature="0" id="path4201" d="m 12.5,29 c -0.167192,0 -0.342796,0.03139 -0.5,0.0625 -0.03043,0.01071 -0.06433,0.01862 -0.09375,0.03125 -0.529491,0.227348 -0.875,0.752515 -0.875,1.375 3.26e-4,0.01041 3.26e-4,0.02084 0,0.03125 l 0,0.03125 0,0.9375 c 0,-0.82998 0.64098,-1.5 1.46875,-1.5 0.82777,0 1.5,0.67002 1.5,1.5 0.0072,0.03216 0.01768,0.06362 0.03125,0.09375 l 0,-0.9375 c -0.0013,-0.02081 -0.0013,-0.04169 0,-0.0625 C 14.01768,30.53237 14.0072,30.50091 14,30.46875 14,29.846265 13.63203,29.321098 13.09375,29.09375 13.063846,29.08112 13.030856,29.07321 13,29.0625 12.841941,29.031391 12.667192,29 12.5,29 z m -2.5,10.90625 0,1 c 0.0099,0.01087 0.02038,0.0213 0.03125,0.03125 -3.26e-4,0.01041 -3.26e-4,0.02084 0,0.03125 -0.0013,0.02081 -0.0013,0.04169 0,0.0625 0.03061,0.794606 0.666813,1.4668 1.46875,1.46875 l 0,-0.03125 c 0.752698,9.07e-4 1.366544,-0.554402 1.46875,-1.28125 0.01348,-0.03012 0.02396,-0.06157 0.03125,-0.09375 0.0016,-0.02219 -5.61e-4,-0.04006 0,-0.0625 3.26e-4,-0.01041 3.26e-4,-0.02084 0,-0.03125 3.26e-4,-0.01041 3.26e-4,-0.02084 0,-0.03125 0.01041,3.26e-4 0.02084,3.26e-4 0.03125,0 l 0,-1 c -0.01041,3.26e-4 -0.02084,3.26e-4 -0.03125,0 3.26e-4,0.01041 3.26e-4,0.02084 0,0.03125 3.26e-4,0.01041 3.26e-4,0.02084 0,0.03125 -5.61e-4,0.02244 0.0016,0.04031 0,0.0625 -0.0073,0.03218 -0.01777,0.06363 -0.03125,0.09375 -0.09224,0.655936 -0.598388,1.156181 -1.25,1.25 -0.06964,0.03614 -0.132753,0.06272 -0.21875,0.0625 -0.07052,-1.8e-4 -0.130276,-0.0034 -0.1875,-0.03125 -0.706408,-0.101224 -1.253206,-0.709515 -1.28125,-1.4375 -0.0013,-0.02081 -0.0013,-0.04169 0,-0.0625 -3.26e-4,-0.01041 -3.26e-4,-0.02084 0,-0.03125 C 10.02038,39.92755 10.0099,39.91712 10,39.90625 z m 1.03125,0 c -0.0089,0.02153 -0.01939,0.04243 -0.03125,0.0625 0.01041,-3.26e-4 0.02084,-3.26e-4 0.03125,0 l 0,-0.0625 z M 8,41.5 l 0,1 c 0.00373,0.07641 0.0253,0.151899 0.0625,0.21875 C 8.1813141,44.539777 9.6811833,46 11.53125,46 c 1.92707,0 3.5,-1.57293 3.5,-3.5 l 0,-0.5 0,-0.5 c 0,1.92707 -1.57293,3.5 -3.5,3.5 -0.168705,0 -0.337901,-0.03905 -0.5,-0.0625 C 9.4157223,44.703782 8.1704796,43.37372 8.0625,41.71875 8.0253,41.651899 8.00373,41.57641 8,41.5 z" opacity="0.2" color="#000000" stroke-width="7.755"/>
  </g>
  <path d="m 3.0000009,9.999855 0,29 c 0,0.554 0.446,1 1,1 l 40.0000001,0 c 0.554,0 1,-0.446 1,-1 l 0,-29 c 0,-0.554 -0.446,-1 -1,-1 l -40.0000001,0 c -0.554,0 -1,0.446 -1,1 z" id="path4121" inkscape:connector-curvature="0" sodipodi:nodetypes="sssssssss" opacity="0.05" stroke="#000000" color="#bebebe" stroke-width="2"/>
  <g id="g4208" transform="translate(0,-1.453389e-4)">
   <g transform="translate(-0.9999992,-1)" id="g3162">
    <path d="m 4.614285,38.5 39.771573,0 0,5 -39.771573,0 z" id="rect3985" inkscape:connector-curvature="0" sodipodi:nodetypes="ccccc" opacity="0.12" fill="url(#linearGradient3149)"/>
    <path inkscape:connector-curvature="0" id="path3987" d="m 44.385716,38.5 0,5 0.528571,0 c 0.878486,0 1.585715,-1.115 1.585715,-2.5 0,-1.385 -0.707229,-2.5 -1.585715,-2.5 l -0.528571,0 z" opacity="0.12" fill="url(#radialGradient3146)"/>
    <path inkscape:connector-curvature="0" id="path3989" d="m 3.9866064,38.5 c -0.8235804,0 -1.4866072,1.045312 -1.4866072,2.34375 l 0,0.3125 c 0,1.298439 0.6630268,2.34375 1.4866072,2.34375 l 0.6276786,0 0,-5 -0.6276786,0 z" opacity="0.12" fill="url(#radialGradient3143)"/>
    <path d="m 5.499999,39.5 38.000142,0 0,3 -38.000142,0 z" id="rect3938" inkscape:connector-curvature="0" sodipodi:nodetypes="ccccc" opacity="0.12" fill="url(#linearGradient3158)"/>
    <path d="m 43.5,39.499999 0,3 0.5,0 c 0.831,0 1.5,-0.669 1.5,-1.5 0,-0.831 -0.669,-1.5 -1.5,-1.5 l -0.5,0 z" id="rect3940" inkscape:connector-curvature="0" opacity="0.12" fill="url(#radialGradient3155)"/>
    <path d="m 4.9062489,39.499999 c -0.7790625,0 -1.40625,0.627187 -1.40625,1.40625 l 0,0.1875 c 0,0.779063 0.6271875,1.40625 1.40625,1.40625 l 0.59375,0 0,-3 -0.59375,0 z" id="rect3942" inkscape:connector-curvature="0" opacity="0.12" fill="url(#radialGradient3152)"/>
   </g>
   <path sodipodi:nodetypes="sssssssss" inkscape:connector-curvature="0" id="rect3886" d="m 3.0000008,10 0,29 c 0,0.554 0.446,1 1,1 l 40.0000002,0 c 0.554,0 1,-0.446 1,-1 l 0,-29 c 0,-0.554 -0.446,-1 -1,-1 L 4.0000008,9 c -0.554,0 -1,0.446 -1,1 z" opacity="0.41" color="#bebebe" stroke-width="0"/>
   <path sodipodi:nodetypes="ccccc" inkscape:connector-curvature="0" id="rect3882" d="m 4.0000008,10 0,29 40.0000002,0 0,-29 z" fill="url(#linearGradient4297)" color="#bebebe" stroke-width="0"/>
   <path sodipodi:nodetypes="cccccccccc" inkscape:connector-curvature="0" d="m 4.0000008,10 0,29 40.0000002,0 0,-29 z m 1,1 38.0000002,0 0,27 -38.0000002,0 z" id="path3893" opacity="0.6" fill="url(#linearGradient4299)"/>
   <path sodipodi:nodetypes="cccccccc" inkscape:connector-curvature="0" id="path4184" d="M 6.09375,13.625 16,25.50065 16.78125,24.53125 z M 41.8125,13.78125 30.75,25.03125 31.741498,26 z" opacity="0.2" color="#000000" fill="url(#radialGradient4301)"/>
   <path sodipodi:nodetypes="ssssscssssscs" inkscape:connector-curvature="0" id="path3386" d="m 18.65625,26.84375 c 0.883883,0.883883 1.419773,1.453714 2.1875,1.78125 C 21.611477,28.952536 22.487098,29 24,29 c 1.512902,0 2.388523,-0.04746 3.15625,-0.375 0.767727,-0.327536 1.303617,-0.897367 2.1875,-1.78125 L 42,13.5 28.65625,26.15625 c -0.883883,0.883883 -1.334669,1.300728 -1.875,1.53125 C 26.240919,27.918022 25.487098,28 24,28 c -1.487098,0 -2.240919,-0.08198 -2.78125,-0.3125 -0.540331,-0.230522 -0.991116,-0.647367 -1.875,-1.53125 L 6,13.5 z" color="#000000" fill="#999999"/>
   <path sodipodi:nodetypes="cccc" inkscape:connector-curvature="0" id="path4172" d="M 16.65625,24.65625 6,36 17.34375,25.34375 z" color="#000000" fill="#999999"/>
   <path sodipodi:nodetypes="cccc" inkscape:connector-curvature="0" id="path4174" d="m 30.34375,24.625 -0.6875,0.75 L 42,36 z" color="#000000" fill="#999999"/>
   <path d="m 18.9375,25.84375 c 0.901822,0.865572 1.419773,1.453714 2.1875,1.78125 C 21.892727,27.952536 22.487098,28 24,28 c 1.512902,0 2.107273,-0.04746 2.875,-0.375 0.767727,-0.327536 1.284341,-0.917072 2.1875,-1.78125 L 42.176777,13.295495 28.375,25.15625 C 27.426971,25.970952 27.040331,26.456978 26.5,26.6875 25.959669,26.918022 25.487098,27 24,27 22.512902,27 22.040331,26.91802 21.5,26.6875 20.959669,26.456978 20.572154,25.97197 19.625,25.15625 L 5.9558058,13.383883 z" id="path4200" inkscape:connector-curvature="0" sodipodi:nodetypes="ssssscssssscs" opacity="0.6" color="#000000" fill="#ffffff"/>
   <path d="M 17.28125,25.421875 6,36 17.96875,26.109375 z" id="path4202" inkscape:connector-curvature="0" sodipodi:nodetypes="cccc" opacity="0.6" color="#000000" fill="#ffffff"/>
   <path d="m 30.234375,25.875 -0.6875,0.75 L 42,36 z" id="path4204" inkscape:connector-curvature="0" sodipodi:nodetypes="cccc" opacity="0.6" color="#000000" fill="#ffffff"/>
   <rect y="38" x="4" height="1" width="40" id="rect4206" opacity="0.4" fill="#ffffff" stroke-linejoin="round" stroke-linecap="square"/>
  </g>
 </g>
 <g inkscape:groupmode="layer" id="layer2" inkscape:label="Symbol">
  <g id="g4216" transform="matrix(0.93969262,0.34202014,-0.34202014,0.93969262,14.042777,-9.2307141)">
   <rect transform="matrix(0.98480775,-0.17364818,0.17364818,0.98480775,0,0)" height="5" id="rect6380" width="3.03" x="37.445" y="45.632" opacity="0.3" fill="url(#radialGradient3331)"/>
   <rect height="5" id="rect6382" transform="matrix(-0.98480775,0.17364818,-0.17364818,-0.98480775,0,0)" width="3.03" x="-20.498" y="-50.632" opacity="0.3" fill="url(#radialGradient3328)"/>
   <rect transform="matrix(0.98480775,-0.17364818,0.17364818,0.98480775,0,0)" height="5" id="rect6384" width="16.947" x="20.498" y="45.632" opacity="0.3" fill="url(#linearGradient3325)"/>
   <path id="rect6352" d="m 23.91545,26.380066 0.520944,2.954423 0.553954,-0.09768 c 0.241118,-0.04252 0.464309,0.113766 0.506827,0.354883 l 0.195353,1.107908 c 0.04251,0.241116 -0.113766,0.464309 -0.354882,0.506825 l -0.553954,0.09768 0.347294,1.969615 0.553956,-0.09768 c 0.241116,-0.04252 0.464308,0.113766 0.506824,0.354882 l 0.195355,1.10791 c 0.04252,0.241116 -0.113766,0.464309 -0.354884,0.506824 l -0.553953,0.09768 0.347296,1.969616 0.553955,-0.09768 c 0.241115,-0.04252 0.464309,0.113765 0.506823,0.354881 l 0.195354,1.107908 c 0.04252,0.241117 -0.113766,0.464309 -0.354881,0.506825 l -0.553956,0.09768 0.347299,1.969616 0.553952,-0.09768 c 0.241117,-0.04252 0.464309,0.113766 0.506827,0.354881 l 0.195352,1.107911 c 0.04252,0.241116 -0.113766,0.464308 -0.354881,0.506824 l -0.553955,0.09768 0.347295,1.969615 1.969618,-0.347296 -0.09768,-0.553954 c -0.04251,-0.241116 0.113765,-0.464309 0.354881,-0.506825 l 1.107909,-0.195355 c 0.241115,-0.04252 0.464309,0.113765 0.506823,0.354884 l 0.09768,0.553954 1.969617,-0.347296 -0.09768,-0.553957 c -0.04252,-0.241114 0.113767,-0.464307 0.354883,-0.506822 l 1.107909,-0.195355 c 0.241115,-0.04252 0.464309,0.113765 0.506823,0.354883 l 0.09768,0.553954 1.969617,-0.347297 -0.09768,-0.553955 c -0.04251,-0.241116 0.113767,-0.464308 0.354883,-0.506823 l 1.107909,-0.195354 c 0.241115,-0.04252 0.464309,0.113765 0.506823,0.354882 l 0.09768,0.553954 1.969617,-0.347297 -0.09768,-0.553953 c -0.04251,-0.241117 0.113766,-0.46431 0.354882,-0.506825 l 1.10791,-0.195354 c 0.241114,-0.04252 0.464308,0.113766 0.506823,0.354882 l 0.09768,0.553955 2.954424,-0.520946 -0.520944,-2.954422 -0.553955,0.09768 C 44.6101,38.977875 44.386908,38.82159 44.344391,38.580474 l -0.195357,-1.10791 c -0.04252,-0.241117 0.113766,-0.464309 0.354884,-0.506825 l 0.553954,-0.09768 -0.347298,-1.969615 -0.553954,0.09768 c -0.241115,0.04252 -0.464309,-0.113765 -0.506824,-0.354882 l -0.195354,-1.107908 c -0.04252,-0.241116 0.113766,-0.464309 0.354882,-0.506825 l 0.553954,-0.09768 -0.347296,-1.969615 -0.553954,0.09768 c -0.241116,0.04252 -0.46431,-0.113766 -0.506824,-0.354883 l -0.195355,-1.107908 c -0.04252,-0.241117 0.113766,-0.464309 0.354883,-0.506825 l 0.553954,-0.09768 -0.347297,-1.969615 -0.553954,0.09768 c -0.241115,0.04252 -0.464309,-0.113766 -0.506825,-0.354882 l -0.195352,-1.107915 c -0.04251,-0.241116 0.113765,-0.464309 0.35488,-0.506825 l 0.553955,-0.09768 -0.347296,-1.969616 -1.969616,0.347297 0.09768,0.553954 c 0.04252,0.241115 -0.113766,0.46431 -0.354882,0.506825 l -1.107909,0.195353 c -0.241114,0.04251 -0.464309,-0.113765 -0.506822,-0.354881 l -0.09768,-0.553955 -1.969616,0.347297 0.09768,0.553953 c 0.04252,0.241117 -0.113766,0.46431 -0.354882,0.506826 l -1.107909,0.195354 c -0.241115,0.04252 -0.464309,-0.113766 -0.506822,-0.354883 l -0.09768,-0.553954 -1.969616,0.347297 0.09768,0.553954 c 0.04252,0.241115 -0.113766,0.464309 -0.35488,0.506824 l -1.107911,0.195355 c -0.241115,0.04252 -0.464309,-0.113767 -0.506822,-0.354883 l -0.09768,-0.553954 -1.969616,0.347296 0.09768,0.553954 c 0.04252,0.241117 -0.113766,0.46431 -0.354881,0.506825 l -1.10791,0.195354 c -0.241115,0.04252 -0.464309,-0.113766 -0.506822,-0.354883 l -0.09768,-0.553953 -2.954424,0.520943 z" inkscape:connector-curvature="0" fill="#eeeeec"/>
   <rect transform="matrix(0.98480775,-0.17364818,-0.17364818,-0.98480775,0,0)" y="-46.599" x="21.471" width="14" rx="1" id="rect6372" height="13.966" fill="url(#linearGradient3321)"/>
   <rect transform="matrix(0.98480775,-0.17364818,0.17364818,0.98480775,0,0)" y="34.13" x="22.971" width="11" id="rect6392" height="11.03" opacity="0.2" fill="none" stroke="#ffffff" stroke-linecap="round" stroke-dashoffset="0.7"/>
   <path inkscape:connector-curvature="0" d="m 23.915449,26.380066 0.520945,2.954423 0.553954,-0.09768 c 0.241118,-0.04252 0.464309,0.113766 0.506827,0.354882 l 0.195352,1.107909 c 0.04251,0.241116 -0.113766,0.464308 -0.354881,0.506825 l -0.553954,0.09768 0.347294,1.969614 0.553955,-0.09768 c 0.241116,-0.04252 0.464309,0.113766 0.506824,0.354882 l 0.195357,1.10791 c 0.04252,0.241116 -0.113767,0.464308 -0.354885,0.506824 l -0.553954,0.09768 0.347296,1.969615 0.553956,-0.09768 c 0.241115,-0.04252 0.46431,0.113765 0.506823,0.354881 l 0.195354,1.107908 c 0.04252,0.241117 -0.113766,0.464308 -0.354882,0.506825 l -0.553955,0.09768 0.347297,1.969614 0.553954,-0.09768 c 0.241117,-0.04252 0.464309,0.113765 0.506826,0.35488 l 0.195353,1.107911 c 0.04252,0.241116 -0.113765,0.464307 -0.354882,0.506824 l -0.553954,0.09768 0.347295,1.969615 1.969617,-0.347296 -0.09768,-0.553954 c -0.04251,-0.241116 0.113765,-0.464309 0.354882,-0.506826 l 1.107908,-0.195354 c 0.241116,-0.04252 0.46431,0.113766 0.506824,0.354884 l 0.09768,0.553954 1.969618,-0.347296 -0.09768,-0.553956 c -0.04252,-0.241115 0.113766,-0.464308 0.354883,-0.506823 l 1.107909,-0.195355 c 0.241115,-0.04252 0.464309,0.113765 0.506823,0.354883 l 0.09768,0.553954 1.969618,-0.347296 -0.09768,-0.553956 c -0.04251,-0.241116 0.113766,-0.464308 0.354883,-0.506823 l 1.107909,-0.195355 c 0.241115,-0.04252 0.464309,0.113766 0.506823,0.354883 l 0.09768,0.553954 1.969617,-0.347297 -0.09768,-0.553954 c -0.04251,-0.241116 0.113765,-0.464309 0.354882,-0.506824 L 42.367188,41.4042 c 0.241116,-0.04252 0.46431,0.113767 0.506824,0.354882 l 0.09768,0.553956 2.954424,-0.520946 -0.520944,-2.954423 -0.553955,0.09768 C 44.6101,38.977869 44.386909,38.821583 44.344392,38.580468 L 44.149036,37.47256 c -0.04252,-0.241117 0.113766,-0.464309 0.354882,-0.506825 l 0.553957,-0.09768 -0.347299,-1.969615 -0.553954,0.09768 c -0.241116,0.04252 -0.464309,-0.113765 -0.506824,-0.354882 L 43.454444,33.53333 c -0.04252,-0.241116 0.113766,-0.464309 0.354882,-0.506825 l 0.553954,-0.09768 -0.347296,-1.969615 -0.553954,0.09768 c -0.241116,0.04252 -0.46431,-0.113766 -0.506823,-0.354883 l -0.195356,-1.107908 c -0.04252,-0.241117 0.113766,-0.464309 0.354883,-0.506826 l 0.553954,-0.09768 -0.347297,-1.969615 -0.553954,0.09768 c -0.241117,0.04252 -0.464309,-0.113766 -0.506825,-0.354882 l -0.195353,-1.107914 c -0.04251,-0.241118 0.113765,-0.464309 0.354881,-0.506826 l 0.553955,-0.09768 -0.347296,-1.969616 -1.969616,0.347297 0.09768,0.553954 c 0.04252,0.241115 -0.113766,0.46431 -0.354882,0.506825 l -1.107909,0.195353 c -0.241115,0.04251 -0.464309,-0.113765 -0.506823,-0.354881 l -0.09768,-0.553955 -1.969616,0.347297 0.09768,0.553954 c 0.04252,0.241116 -0.113766,0.464309 -0.354882,0.506825 l -1.107909,0.195354 c -0.241115,0.04252 -0.464309,-0.113766 -0.506823,-0.354882 l -0.09768,-0.553955 -1.969616,0.347296 0.09768,0.553955 c 0.04252,0.241116 -0.113766,0.464308 -0.354881,0.506824 l -1.107908,0.195356 C 31.1725,26.115877 30.949305,25.95959 30.906792,25.718474 l -0.09768,-0.553954 -1.969617,0.347296 0.09768,0.553954 c 0.04252,0.241117 -0.113766,0.46431 -0.354882,0.506825 l -1.107909,0.195354 c -0.241114,0.04252 -0.464309,-0.113766 -0.506823,-0.354882 l -0.09768,-0.553954 -2.954425,0.520944 z" id="path4418" opacity="0.51" fill="none" stroke="#000000" stroke-linecap="round" stroke-dashoffset="0.7"/>
   <path id="rect4545" d="m 27.796396,28.234317 c -0.545582,0.0962 -0.907359,0.612872 -0.811159,1.158456 l 2.078351,11.786918 c 0.0962,0.545582 0.612873,0.907359 1.158456,0.811158 l 11.817693,-2.083777 c 0.545584,-0.0962 0.907361,-0.612872 0.81116,-1.158456 L 40.772545,26.961697 c -0.0962,-0.545582 -0.612872,-0.907359 -1.158456,-0.811158 l -11.817693,2.083778 z m 0.17365,0.984807 11.817693,-2.083778 2.083777,11.817693 -11.817693,2.083779 -2.083777,-11.817694 z" inkscape:connector-curvature="0" opacity="0.2"/>
   <path d="m 39.244831,33.204608 c 0.09715,0.55104 0.107734,1.040017 0.03173,1.466935 -0.07602,0.426925 -0.242544,0.779033 -0.499577,1.056328 -0.253789,0.276724 -0.599136,0.453605 -1.036044,0.530644 -0.322804,0.05692 -0.599562,0.06033 -0.830276,0.01024 -0.227465,-0.05066 -0.407252,-0.183697 -0.539362,-0.399101 -0.403403,0.400601 -0.836601,0.641721 -1.299596,0.723359 -0.414096,0.07302 -0.781567,0.03864 -1.102413,-0.103147 -0.320854,-0.141778 -0.58703,-0.373885 -0.79853,-0.69632 -0.212081,-0.325693 -0.35894,-0.72004 -0.440577,-1.183043 -0.13281,-0.753186 -0.05409,-1.383983 0.23617,-1.892391 0.289676,-0.511658 0.763832,-0.825558 1.422469,-0.941699 0.36844,-0.06496 0.765158,-0.01724 1.190153,0.143148 l -0.03536,-0.200525 1.051533,-0.185413 0.600222,3.40403 c 0.03794,0.215201 0.09709,0.340929 0.177453,0.377186 0.08361,0.03568 0.172697,0.0452 0.267259,0.02851 0.208669,-0.03679 0.368255,-0.142258 0.47876,-0.316392 0.110489,-0.17413 0.178033,-0.401203 0.202629,-0.681222 0.02784,-0.280586 0.01187,-0.59043 -0.04791,-0.929532 -0.188584,-1.06946 -0.607544,-1.834389 -1.256886,-2.29479 -0.646093,-0.460962 -1.485935,-0.600321 -2.51953,-0.418077 -0.635813,0.112117 -1.186006,0.357056 -1.650579,0.734818 -0.464577,0.377774 -0.795198,0.847908 -0.991863,1.410405 -0.193982,0.558671 -0.236067,1.149389 -0.126255,1.772153 0.119008,0.67494 0.359725,1.239324 0.722153,1.693155 0.365685,0.45326 0.821246,0.76796 1.366684,0.944101 0.549266,0.178828 1.15974,0.209025 1.831421,0.09059 0.401044,-0.07071 0.770161,-0.15093 1.107351,-0.240646 0.340439,-0.09029 0.690383,-0.212502 1.049831,-0.366658 l 0.345973,0.84672 c -0.592492,0.262482 -1.377819,0.479961 -2.355983,0.65244 -0.847752,0.149479 -1.627864,0.110533 -2.340341,-0.116841 -0.711908,-0.224114 -1.305452,-0.625428 -1.780633,-1.203942 -0.472498,-0.582349 -0.782912,-1.294137 -0.931242,-2.135365 -0.137408,-0.779271 -0.07689,-1.522845 0.181555,-2.230722 0.257869,-0.711127 0.688527,-1.309845 1.291978,-1.796155 0.603447,-0.486297 1.307851,-0.800452 2.113213,-0.942466 1.310743,-0.231112 2.400294,-0.04837 3.268657,0.548216 0.868348,0.596605 1.416937,1.543756 1.645765,2.841455 m -3.508331,-0.334496 c -0.411379,-0.159433 -0.75401,-0.215004 -1.027893,-0.166716 -0.38149,0.06727 -0.650695,0.23745 -0.807616,0.510537 -0.154243,0.269261 -0.184794,0.667994 -0.09165,1.196202 0.08221,0.466264 0.232249,0.792811 0.450098,0.979647 0.217273,0.183578 0.49383,0.245758 0.829672,0.186539 0.290186,-0.05117 0.627292,-0.265256 1.01132,-0.642271 l -0.363928,-2.063938" id="path4152" inkscape:connector-curvature="0" opacity="0.5" fill="#ffffff"/>
   <path id="path3333" d="M 42.21875,23.65625 41.25,23.8125 l 0,0.09375 c 0.08808,0.499445 -0.250563,0.97444 -0.75,1.0625 l -1.125,0.21875 c -0.499424,0.08805 -1.00569,-0.28181 -1.09375,-0.78125 l 0,-0.03125 -0.96875,0.15625 0,0.0625 c 0.08808,0.499444 -0.250567,1.00568 -0.75,1.09375 l -1.125,0.1875 c -0.499445,0.08808 -1.00569,-0.250563 -1.09375,-0.75 l 0,-0.0625 -0.96875,0.15625 0,0.0625 c 0.08808,0.499444 -0.281818,1.00568 -0.78125,1.09375 L 31.5,26.5625 c -0.499447,0.08808 -1.00569,-0.25056 -1.09375,-0.75 l 0,-0.0625 -0.96875,0.15625 0,0.0625 c 0.08807,0.499444 -0.281816,1.00569 -0.78125,1.09375 L 27.5625,27.25 c -0.499445,0.08808 -1.00569,-0.250561 -1.09375,-0.75 l 0,-0.0625 -1.96875,0.34375 0.15625,0.96875 1.8125,-0.3125 0,0.0625 c 0.08806,0.499439 0.594305,0.83808 1.09375,0.75 l 1.09375,-0.1875 c 0.499434,-0.08806 0.86932,-0.594306 0.78125,-1.09375 l 0,-0.0625 0.96875,-0.15625 0,0.0625 c 0.08806,0.49944 0.594303,0.83808 1.09375,0.75 l 1.09375,-0.1875 c 0.499432,-0.08807 0.86933,-0.594306 0.78125,-1.09375 l 0,-0.0625 0.96875,-0.15625 0,0.0625 c 0.08806,0.499437 0.594305,0.83808 1.09375,0.75 l 1.125,-0.1875 c 0.499433,-0.08807 0.83808,-0.594306 0.75,-1.09375 l 0,-0.0625 0.96875,-0.15625 0,0.03125 c 0.08806,0.49944 0.594326,0.8693 1.09375,0.78125 L 40.5,25.96875 c 0.499437,-0.08806 0.83808,-0.563055 0.75,-1.0625 l 0,-0.09375 0.96875,-0.15625 0,0.03125 c 0.04154,-0.01384 0.08125,-0.02354 0.125,-0.03125 l 0.03125,0 -0.15625,-1 z m -0.5625,2.53125 c -0.0903,0.174755 -0.12897,0.362731 -0.09375,0.5625 l 0.21875,1.09375 c 0.08807,0.499432 0.563056,0.86932 1.0625,0.78125 l 0.09375,-0.03125 0,0.03125 c 0.03217,-0.0096 0.06003,-0.0253 0.09375,-0.03125 l 0.0625,0 -0.15625,-1 -0.09375,0.03125 c -0.499444,0.08807 -0.97443,-0.281818 -1.0625,-0.78125 l -0.125,-0.65625 z m 0.71875,3.96875 c -0.07518,0.168432 -0.12722,0.341461 -0.09375,0.53125 l 0.1875,1.09375 c 0.08806,0.499439 0.594305,0.86933 1.09375,0.78125 l 0.0625,0 c 0.03217,-0.0096 0.06003,-0.0253 0.09375,-0.03125 l 0.0625,0 -0.15625,-0.96875 -0.0625,0 c -0.499445,0.08807 -1.00569,-0.281811 -1.09375,-0.78125 l -0.09375,-0.625 z m -16.25,1 c -0.120512,0.271987 -0.372858,0.475766 -0.6875,0.53125 l -0.0625,0 0.15625,0.96875 C 25.975582,32.526945 26.269605,32.090704 26.1875,31.625 L 26.125,31.15625 z m 16.9375,2.9375 c -0.07518,0.168432 -0.12722,0.341461 -0.09375,0.53125 l 0.1875,1.09375 C 43.24431,36.218185 43.750557,36.58808 44.25,36.5 l 0.0625,0 c 0.03217,-0.0096 0.06003,-0.0253 0.09375,-0.03125 l 0.0625,0 L 44.3125,35.5 44.25,35.5 c -0.499443,0.08808 -1.00569,-0.281815 -1.09375,-0.78125 l -0.09375,-0.625 z m -16.25,1 c -0.120513,0.271988 -0.372858,0.475772 -0.6875,0.53125 l -0.0625,0.03125 0.15625,0.9375 c 0.444335,-0.129296 0.738383,-0.565526 0.65625,-1.03125 l -0.0625,-0.46875 z m 16.9375,2.9375 c -0.07518,0.168432 -0.12722,0.341461 -0.09375,0.53125 l 0.1875,1.09375 c 0.08807,0.499429 0.594306,0.86933 1.09375,0.78125 l 0.0625,0 0.1875,1 0.15625,-0.03125 L 45,39.4375 l -0.0625,0 c -0.499444,0.08808 -1.00568,-0.281821 -1.09375,-0.78125 L 43.75,38.03125 z m -16.25,1 c -0.120514,0.271986 -0.37286,0.475766 -0.6875,0.53125 l -0.0625,0.03125 0.15625,0.9375 C 27.350582,40.401947 27.644624,39.965722 27.5625,39.5 L 27.5,39.03125 z M 28.1875,43 c -0.135451,0.262131 -0.387843,0.478408 -0.6875,0.53125 l -0.03125,0 L 27.625,44.5 c 0.432679,-0.14422 0.736606,-0.606804 0.65625,-1.0625 L 28.1875,43 z" inkscape:connector-curvature="0" fill="#ffffff"/>
  </g>
 </g>
</svg>
