<?xml version="1.0" encoding="UTF-8" standalone="no"?>
<!-- Created with Inkscape (http://www.inkscape.org/) -->

<svg
   xmlns:dc="http://purl.org/dc/elements/1.1/"
   xmlns:cc="http://creativecommons.org/ns#"
   xmlns:rdf="http://www.w3.org/1999/02/22-rdf-syntax-ns#"
   xmlns:svg="http://www.w3.org/2000/svg"
   xmlns="http://www.w3.org/2000/svg"
   xmlns:xlink="http://www.w3.org/1999/xlink"
   xmlns:sodipodi="http://sodipodi.sourceforge.net/DTD/sodipodi-0.dtd"
   xmlns:inkscape="http://www.inkscape.org/namespaces/inkscape"
   version="1.1"
   width="48"
   height="48"
   id="svg3759"
   inkscape:version="0.48.4 r9939"
   sodipodi:docname="multitasking-view.svg">
  <sodipodi:namedview
     pagecolor="#ffffff"
     bordercolor="#666666"
     borderopacity="1"
     objecttolerance="10"
     gridtolerance="10"
     guidetolerance="10"
     inkscape:pageopacity="0"
     inkscape:pageshadow="2"
     inkscape:window-width="1364"
     inkscape:window-height="700"
     id="namedview36"
     showgrid="false"
     showborder="false"
     inkscape:zoom="1"
     inkscape:cx="46.107496"
     inkscape:cy="21.436494"
     inkscape:window-x="0"
     inkscape:window-y="28"
     inkscape:window-maximized="1"
     inkscape:current-layer="layer2"
     inkscape:snap-bbox="true"
     inkscape:bbox-paths="true"
     inkscape:bbox-nodes="true"
     inkscape:snap-bbox-edge-midpoints="true"
     inkscape:snap-bbox-midpoints="true">
    <inkscape:grid
       type="xygrid"
       id="grid3818"
       empspacing="4"
       visible="true"
       enabled="true"
       snapvisiblegridlinesonly="true" />
  </sodipodi:namedview>
  <metadata
     id="metadata37">
    <rdf:RDF>
      <cc:Work
         rdf:about="">
        <dc:format>image/svg+xml</dc:format>
        <dc:type
           rdf:resource="http://purl.org/dc/dcmitype/StillImage" />
        <dc:title></dc:title>
      </cc:Work>
    </rdf:RDF>
  </metadata>
  <defs
     id="defs3761">
    <linearGradient
       inkscape:collect="always"
       id="linearGradient3978">
      <stop
         style="stop-color:#ffffff;stop-opacity:1;"
         offset="0"
         id="stop3980" />
      <stop
         style="stop-color:#ffffff;stop-opacity:0;"
         offset="1"
         id="stop3982" />
    </linearGradient>
    <linearGradient
       id="linearGradient3931">
      <stop
         offset="0"
         style="stop-color:#828282;stop-opacity:1"
         id="stop3933" />
      <stop
         offset="1"
         style="stop-color:#373737;stop-opacity:1;"
         id="stop3935" />
    </linearGradient>
    <linearGradient
       id="linearGradient4157">
      <stop
         id="stop4159"
         offset="0"
         style="stop-color:#ffeeea;stop-opacity:1;" />
      <stop
         id="stop4161"
         offset="1"
         style="stop-color:#fff5ee;stop-opacity:1;" />
    </linearGradient>
    <linearGradient
       id="linearGradient4127">
      <stop
         id="stop4129"
         offset="0"
         style="stop-color:#8f2b12;stop-opacity:1;" />
      <stop
         id="stop4131"
         offset="1"
         style="stop-color:#82461a;stop-opacity:1;" />
    </linearGradient>
    <linearGradient
       inkscape:collect="always"
       xlink:href="#linearGradient4134"
       id="linearGradient4140"
       x1="789"
       y1="256"
       x2="827"
       y2="256"
       gradientUnits="userSpaceOnUse" />
    <linearGradient
       inkscape:collect="always"
       id="linearGradient4134">
      <stop
         style="stop-color:#ffffff;stop-opacity:1;"
         offset="0"
         id="stop4136" />
      <stop
         style="stop-color:#ffffff;stop-opacity:0;"
         offset="1"
         id="stop4138" />
    </linearGradient>
    <clipPath
       clipPathUnits="userSpaceOnUse"
       id="clipPath4130">
      <path
         id="path4132"
         d="M 790.4375,237 C 789.62555,237 789,237.62555 789,238.4375 l 0,35.09375 c 0,0.812 0.62555,1.46875 1.4375,1.46875 l 35.125,0 c 0.81195,0 1.4375,-0.65675 1.4375,-1.46875 l 0,-35.09375 C 827,237.62555 826.37445,237 825.5625,237 l -35.125,0 z"
         style="fill:#ba2222;fill-opacity:1;stroke:none"
         inkscape:connector-curvature="0" />
    </clipPath>
    <linearGradient
       id="linearGradient5618">
      <stop
         style="stop-color:#3e3e3e;stop-opacity:1;"
         offset="0"
         id="stop5620" />
      <stop
         style="stop-color:#595959;stop-opacity:1;"
         offset="1"
         id="stop5622" />
    </linearGradient>
    <linearGradient
       inkscape:collect="always"
       xlink:href="#linearGradient3934"
       id="linearGradient3998"
       gradientUnits="userSpaceOnUse"
       gradientTransform="matrix(0,-1,1,0,68,556)"
       x1="292"
       y1="244"
       x2="332"
       y2="244" />
    <linearGradient
       id="linearGradient3934">
      <stop
         style="stop-color:#dd2f03;stop-opacity:1;"
         offset="0"
         id="stop3936" />
      <stop
         style="stop-color:#e96300;stop-opacity:1;"
         offset="1"
         id="stop3938" />
    </linearGradient>
    <linearGradient
       inkscape:collect="always"
       xlink:href="#linearGradient3931"
       id="linearGradient4117"
       gradientUnits="userSpaceOnUse"
       gradientTransform="translate(1028.3622,784)"
       x1="-1023.8622"
       y1="-808"
       x2="-984.86218"
       y2="-808" />
    <radialGradient
       inkscape:collect="always"
       xlink:href="#linearGradient3952"
       id="radialGradient4205"
       gradientUnits="userSpaceOnUse"
       gradientTransform="matrix(1.0571429,0,0,1.25,0.6,-10.875)"
       cx="40"
       cy="43.5"
       fx="40"
       fy="43.5"
       r="2" />
    <linearGradient
       inkscape:collect="always"
       id="linearGradient3952">
      <stop
         style="stop-color:#000000;stop-opacity:1;"
         offset="0"
         id="stop3954" />
      <stop
         style="stop-color:#000000;stop-opacity:0;"
         offset="1"
         id="stop3956" />
    </linearGradient>
    <radialGradient
       inkscape:collect="always"
       xlink:href="#linearGradient3952"
       id="radialGradient4214"
       gradientUnits="userSpaceOnUse"
       gradientTransform="matrix(1,0,0,0.75,2,10.875)"
       cx="40"
       cy="43.5"
       fx="40"
       fy="43.5"
       r="2" />
    <radialGradient
       inkscape:collect="always"
       xlink:href="#linearGradient3944"
       id="radialGradient4202"
       gradientUnits="userSpaceOnUse"
       gradientTransform="matrix(1.0571429,0,0,1.25,-4.4000003,-10.875)"
       cx="9"
       cy="43.5"
       fx="9"
       fy="43.5"
       r="2" />
    <linearGradient
       inkscape:collect="always"
       id="linearGradient3944">
      <stop
         style="stop-color:#000000;stop-opacity:1;"
         offset="0"
         id="stop3946" />
      <stop
         style="stop-color:#000000;stop-opacity:0;"
         offset="1"
         id="stop3948" />
    </linearGradient>
    <radialGradient
       inkscape:collect="always"
       xlink:href="#linearGradient3944"
       id="radialGradient4211"
       gradientUnits="userSpaceOnUse"
       gradientTransform="matrix(1,0,0,0.75,-3.0000003,10.875)"
       cx="9"
       cy="43.5"
       fx="9"
       fy="43.5"
       r="2" />
    <linearGradient
       inkscape:collect="always"
       xlink:href="#linearGradient3960"
       id="linearGradient4208"
       gradientUnits="userSpaceOnUse"
       x1="25"
       y1="45"
       x2="25"
       y2="42"
       gradientTransform="matrix(1.0571429,0,0,1.6666667,-5.4000003,-29)" />
    <linearGradient
       id="linearGradient3960">
      <stop
         style="stop-color:#000000;stop-opacity:0;"
         offset="0"
         id="stop3962" />
      <stop
         id="stop3970"
         offset="0.5"
         style="stop-color:#000000;stop-opacity:1;" />
      <stop
         style="stop-color:#000000;stop-opacity:0;"
         offset="1"
         id="stop3964" />
    </linearGradient>
    <linearGradient
       inkscape:collect="always"
       xlink:href="#linearGradient3960"
       id="linearGradient4217"
       gradientUnits="userSpaceOnUse"
       x1="25"
       y1="45"
       x2="25"
       y2="42"
       gradientTransform="translate(-4.0000003,0)" />
    <linearGradient
       id="linearGradient3157">
      <stop
         style="stop-color:#000000;stop-opacity:0;"
         offset="0"
         id="stop3159" />
      <stop
         id="stop3161"
         offset="0.5"
         style="stop-color:#000000;stop-opacity:1;" />
      <stop
         style="stop-color:#000000;stop-opacity:0;"
         offset="1"
         id="stop3163" />
    </linearGradient>
    <linearGradient
       y2="42"
       x2="25"
       y1="45"
       x1="25"
       gradientTransform="translate(-4.0000003,0)"
       gradientUnits="userSpaceOnUse"
       id="linearGradient3172"
       xlink:href="#linearGradient3960"
       inkscape:collect="always" />
    <radialGradient
       inkscape:collect="always"
       xlink:href="#linearGradient3952"
       id="radialGradient5537"
       gradientUnits="userSpaceOnUse"
       gradientTransform="matrix(1.0571429,0,0,1.25,0.6,-10.875)"
       cx="40"
       cy="43.5"
       fx="40"
       fy="43.5"
       r="2" />
    <radialGradient
       inkscape:collect="always"
       xlink:href="#linearGradient3952"
       id="radialGradient5539"
       gradientUnits="userSpaceOnUse"
       gradientTransform="matrix(1,0,0,0.75,2,10.875)"
       cx="40"
       cy="43.5"
       fx="40"
       fy="43.5"
       r="2" />
    <radialGradient
       inkscape:collect="always"
       xlink:href="#linearGradient3944"
       id="radialGradient5541"
       gradientUnits="userSpaceOnUse"
       gradientTransform="matrix(1.0571429,0,0,1.25,-4.4000003,-10.875)"
       cx="9"
       cy="43.5"
       fx="9"
       fy="43.5"
       r="2" />
    <radialGradient
       inkscape:collect="always"
       xlink:href="#linearGradient3944"
       id="radialGradient5543"
       gradientUnits="userSpaceOnUse"
       gradientTransform="matrix(1,0,0,0.75,-3.0000003,10.875)"
       cx="9"
       cy="43.5"
       fx="9"
       fy="43.5"
       r="2" />
    <linearGradient
       inkscape:collect="always"
       xlink:href="#linearGradient3960"
       id="linearGradient5545"
       gradientUnits="userSpaceOnUse"
       gradientTransform="matrix(1.0571429,0,0,1.6666667,-5.4000003,-29)"
       x1="25"
       y1="45"
       x2="25"
       y2="42" />
    <linearGradient
       inkscape:collect="always"
       xlink:href="#linearGradient3960"
       id="linearGradient5547"
       gradientUnits="userSpaceOnUse"
       gradientTransform="translate(-4.0000003,0)"
       x1="25"
       y1="45"
       x2="25"
       y2="42" />
    <linearGradient
       inkscape:collect="always"
       xlink:href="#linearGradient3924-2-2-5-8"
       id="linearGradient5051"
       x1="30"
       y1="10.5"
       x2="30"
       y2="49"
       gradientUnits="userSpaceOnUse" />
    <linearGradient
       id="linearGradient3924-2-2-5-8">
      <stop
         id="stop3926-9-4-9-6"
         style="stop-color:#ffffff;stop-opacity:1"
         offset="0" />
      <stop
         id="stop3928-9-8-6-5"
         style="stop-color:#ffffff;stop-opacity:0.23529412"
         offset="0.06316455" />
      <stop
         id="stop3930-3-5-1-7"
         style="stop-color:#ffffff;stop-opacity:0.15686275"
         offset="0.95056331" />
      <stop
         id="stop3932-8-0-4-8"
         style="stop-color:#ffffff;stop-opacity:0.39215687"
         offset="1" />
    </linearGradient>
    <clipPath
       clipPathUnits="userSpaceOnUse"
       id="clipPath5039">
      <rect
         style="color:#000000;fill:url(#radialGradient5043);fill-opacity:1;fill-rule:nonzero;stroke:none;stroke-width:0.99999994;marker:none;visibility:visible;display:inline;overflow:visible;enable-background:accumulate"
         id="rect5041"
         y="10"
         x="8"
         ry="0"
         rx="1.1"
         height="38"
         width="47" />
    </clipPath>
    <linearGradient
       id="linearGradient5803-6">
      <stop
         offset="0"
         style="stop-color:#ffffff;stop-opacity:1;"
         id="stop5805-7" />
      <stop
         offset="1"
         style="stop-color:#dedede;stop-opacity:1"
         id="stop5807-8" />
    </linearGradient>
    <linearGradient
       id="linearGradient4950">
      <stop
         id="stop4952"
         style="stop-color:#90dbec;stop-opacity:1"
         offset="0" />
      <stop
         id="stop4954"
         style="stop-color:#55c1ec;stop-opacity:1"
         offset="0.26238" />
      <stop
         id="stop4956"
         style="stop-color:#3689e6;stop-opacity:1"
         offset="0.704952" />
      <stop
         id="stop4958"
         style="stop-color:#2b63a0;stop-opacity:1"
         offset="1" />
    </linearGradient>
    <linearGradient
       inkscape:collect="always"
       xlink:href="#linearGradient3924-2-2-5-8"
       id="linearGradient3121"
       gradientUnits="userSpaceOnUse"
       x1="30"
       y1="10.5"
       x2="30"
       y2="49" />
    <radialGradient
       inkscape:collect="always"
       xlink:href="#linearGradient4962"
       id="radialGradient3422-5"
       gradientUnits="userSpaceOnUse"
       gradientTransform="matrix(0,8.4616298,-16.443533,0,196.90204,-80.463829)"
       cx="7.7392125"
       cy="9.9571075"
       fx="7.2089825"
       fy="9.9571075"
       r="12.671875" />
    <linearGradient
       id="linearGradient4962">
      <stop
         id="stop4964"
         style="stop-color:#959595;stop-opacity:1;"
         offset="0" />
      <stop
         id="stop4970"
         style="stop-color:#373737;stop-opacity:1;"
         offset="1" />
    </linearGradient>
    <linearGradient
       inkscape:collect="always"
       xlink:href="#linearGradient3924-2-2-5-8"
       id="linearGradient3916"
       gradientUnits="userSpaceOnUse"
       x1="30"
       y1="10.5"
       x2="30"
       y2="49" />
    <linearGradient
       inkscape:collect="always"
       xlink:href="#linearGradient5803-6"
       id="linearGradient3920"
       gradientUnits="userSpaceOnUse"
       gradientTransform="matrix(0.9981902,0,0,0.9981902,-6.943897,-7.9710428)"
       x1="33.625"
       y1="12.000002"
       x2="33.75"
       y2="52" />
    <linearGradient
       inkscape:collect="always"
       xlink:href="#linearGradient3924-2-2-5-8"
       id="linearGradient3929"
       gradientUnits="userSpaceOnUse"
       x1="30"
       y1="10.5"
       x2="30"
       y2="49" />
    <linearGradient
       inkscape:collect="always"
       xlink:href="#linearGradient4950"
       id="linearGradient3937"
       x1="20"
       y1="8"
       x2="20"
       y2="40"
       gradientUnits="userSpaceOnUse"
       gradientTransform="translate(-1,-1)" />
    <linearGradient
       inkscape:collect="always"
       xlink:href="#linearGradient4950"
       id="linearGradient3971"
       gradientUnits="userSpaceOnUse"
       gradientTransform="matrix(0.93333333,0,0,0.90909091,0.66666667,1.2727273)"
       x1="20"
       y1="8"
       x2="20"
       y2="40" />
    <linearGradient
       inkscape:collect="always"
       xlink:href="#linearGradient4950"
       id="linearGradient3975"
       gradientUnits="userSpaceOnUse"
       gradientTransform="translate(-1,-1)"
       x1="20"
       y1="8"
       x2="20"
       y2="40" />
    <linearGradient
       inkscape:collect="always"
       xlink:href="#linearGradient3978"
       id="linearGradient3984"
       x1="25"
       y1="13"
       x2="25"
       y2="36"
       gradientUnits="userSpaceOnUse" />
  </defs>
  <g
     inkscape:groupmode="layer"
     id="layer1"
     inkscape:label="Background">
    <g
       id="g3111">
      <path
         style="opacity:0.12000002;fill:url(#radialGradient5537);fill-opacity:1;stroke:none"
         d="m 42.885716,41.000001 0,5 0.528571,0 c 0.878486,0 1.585715,-1.115 1.585715,-2.5 0,-1.385 -0.707229,-2.5 -1.585715,-2.5 l -0.528571,0 z"
         id="path3987"
         inkscape:connector-curvature="0" />
      <path
         inkscape:connector-curvature="0"
         id="rect3940"
         d="m 42,42 0,3 0.5,0 C 43.331,45 44,44.331 44,43.5 44,42.669 43.331,42 42.5,42 L 42,42 z"
         style="opacity:0.12000002;fill:url(#radialGradient5539);fill-opacity:1;stroke:none" />
      <path
         style="opacity:0.12000002;fill:url(#radialGradient5541);fill-opacity:1;stroke:none"
         d="M 4.4866072,41.000001 C 3.6630268,41.000001 3,42.045313 3,43.343751 l 0,0.3125 c 0,1.298439 0.6630268,2.34375 1.4866072,2.34375 l 0.6276786,0 0,-5 -0.6276786,0 z"
         id="path3989"
         inkscape:connector-curvature="0" />
      <path
         inkscape:connector-curvature="0"
         id="rect3942"
         d="m 5.4062497,42 c -0.7790625,0 -1.40625,0.627187 -1.40625,1.40625 l 0,0.1875 c 0,0.779063 0.6271875,1.40625 1.40625,1.40625 l 0.59375,0 0,-3 -0.59375,0 z"
         style="opacity:0.12000002;fill:url(#radialGradient5543);fill-opacity:1;stroke:none" />
      <path
         sodipodi:nodetypes="ccccc"
         inkscape:connector-curvature="0"
         id="rect3985"
         d="m 5.1141432,41 37.7717148,0 0,5 -37.7717148,0 z"
         style="opacity:0.12000002;fill:url(#linearGradient5545);fill-opacity:1;stroke:none" />
      <path
         sodipodi:nodetypes="ccccc"
         inkscape:connector-curvature="0"
         id="rect3938"
         d="m 5.9998568,42 36.0002842,0 0,3 -36.0002842,0 z"
         style="opacity:0.12000002;fill:url(#linearGradient5547);fill-opacity:1;stroke:none" />
    </g>
    <rect
       rx="1.9499974"
       ry="1.95"
       transform="matrix(0,1,-1,0,0,0)"
       y="-43.5"
       x="4.5"
       height="39"
       width="39"
       id="rect4073"
       style="fill:url(#linearGradient4117);fill-opacity:1;stroke:none;display:inline" />
    <rect
       style="opacity:0.60999999999999999;fill:none;stroke:#000000;stroke-opacity:1;display:inline"
       id="rect4085"
       width="39"
       height="39"
       x="-43.5"
       y="-43.5"
       transform="matrix(0,-1,-1,0,0,0)"
       ry="1.95"
       rx="1.9499974" />
    <path
       inkscape:connector-curvature="0"
       style="opacity:0.14999999999999999;fill:#ffffff;fill-opacity:1;stroke:none;display:inline"
       d="M 6.4375,5.00002 C 5.62555,5.00002 5,5.62557 5,6.43752 l 0,1 C 5,6.62557 5.62555,6.00002 6.4375,6.00002 l 35.125,0 c 0.81195,0 1.4375,0.62555 1.4375,1.4375 l 0,-1 c 0,-0.81195 -0.62555,-1.4375 -1.4375,-1.4375 l -35.125,0 z"
       id="rect4089-4" />
    <path
       transform="matrix(0,1,-1,0,280,-784)"
       style="opacity:0.10000000000000001;fill:none;stroke:url(#linearGradient4140);stroke-width:2;stroke-miterlimit:4;stroke-opacity:1;stroke-dasharray:none;display:inline"
       d="M 790.4375,237 C 789.62555,237 789,237.62555 789,238.4375 l 0,35.09375 c 0,0.812 0.62555,1.46875 1.4375,1.46875 l 35.125,0 c 0.81195,0 1.4375,-0.65675 1.4375,-1.46875 l 0,-35.09375 C 827,237.62555 826.37445,237 825.5625,237 l -35.125,0 z"
       id="path4128"
       clip-path="url(#clipPath4130)"
       inkscape:connector-curvature="0" />
    <path
       id="path4105"
       d="M 6.4375,43.000017 C 5.62555,43.000017 5,42.374417 5,41.562517 L 5,40.56252 c 0,0.811897 0.62555,1.437497 1.4375,1.437497 l 35.125,0 c 0.81195,0 1.4375,-0.6256 1.4375,-1.437497 l 0,0.999997 c 0,0.8119 -0.62555,1.4375 -1.4375,1.4375 l -35.125,0 z"
       style="opacity:0.10000000000000001;fill:#ffffff;fill-opacity:1;stroke:none;display:inline"
       inkscape:connector-curvature="0" />
  </g>
  <g
     inkscape:groupmode="layer"
     id="layer2"
     inkscape:label="Symbol">
    <path
       style="opacity:0.1;color:#000000;fill:#000000;fill-opacity:1;fill-rule:nonzero;stroke:#000000;stroke-width:2;stroke-miterlimit:4;stroke-opacity:1;stroke-dasharray:none;marker:none;visibility:visible;display:inline;overflow:visible;enable-background:accumulate"
       d="M 9,14.032577 39,14 39,35.967423 9,36 z"
       id="path3941"
       inkscape:connector-curvature="0"
       sodipodi:nodetypes="ccccc" />
    <path
       sodipodi:nodetypes="ccccc"
       inkscape:connector-curvature="0"
       id="path3939"
       d="M 9,14.032577 39,14 39,35.967423 9,36 z"
       style="opacity:0.2;color:#000000;fill:#000000;fill-opacity:1;fill-rule:nonzero;stroke:none;stroke-width:0.99999994;marker:none;visibility:visible;display:inline;overflow:visible;enable-background:accumulate" />
    <path
       style="color:#000000;fill:url(#linearGradient3937);fill-opacity:1;fill-rule:nonzero;stroke:none;stroke-width:0.99999994;marker:none;visibility:visible;display:inline;overflow:visible;enable-background:accumulate"
       d="M 9,13.032577 39,13 39,34.967423 9,35 z"
       id="rect4948"
       inkscape:connector-curvature="0"
       sodipodi:nodetypes="ccccc" />
    <path
       style="opacity:0.1;fill:#000000;fill-opacity:1;stroke:#000000;stroke-width:2;stroke-miterlimit:4;stroke-opacity:1;stroke-dasharray:none"
       d="m 8.032576,10.998191 c -0.552997,0 -0.99819,0.445192 -0.99819,0.99819 l 0,8.980092 c 0,0.552997 0.445193,0.99819 0.99819,0.99819 l 13.971044,0 c 0.552997,0 0.99819,-0.445193 0.99819,-0.99819 l 0,-8.980092 c 0,-0.552998 -0.445193,-0.99819 -0.99819,-0.99819 z m 20.958375,-0.0018 c -0.552997,0 -0.99819,0.445193 -0.99819,0.99819 l 0,8.980092 c 0,0.552998 0.445193,0.99819 0.99819,0.99819 l 10.976473,0 c 0.552997,0 0.99819,-0.445192 0.99819,-0.99819 l 0,-8.980092 c 0,-0.552997 -0.445193,-0.99819 -0.99819,-0.99819 z M 17.018098,26.965614 c -0.552997,0 -0.99819,0.445193 -0.99819,0.99819 l 0,8.981902 c 0,0.552998 0.445193,0.998191 0.99819,0.998191 l 12.967424,0 c 0.552997,0 0.99819,-0.445193 0.99819,-0.998191 l 0,-8.981902 c 0,-0.552997 -0.445193,-0.99819 -0.99819,-0.99819 z"
       id="path5057"
       inkscape:connector-curvature="0"
       sodipodi:nodetypes="sssssssssssssssssssssssssss" />
    <path
       style="opacity:0.2;color:#000000;fill:url(#linearGradient3984);fill-opacity:1;fill-rule:nonzero;stroke:none;stroke-width:0.99999994;marker:none;visibility:visible;display:inline;overflow:visible;enable-background:accumulate"
       d="M 39,13 9,13.03125 9,35 39,34.96875 z M 38,14 38,33.96875 10,34 10,14.03125 z"
       id="path3973"
       inkscape:connector-curvature="0"
       sodipodi:nodetypes="cccccccccc" />
    <path
       sodipodi:nodetypes="sssssssssssssssssssssssssss"
       inkscape:connector-curvature="0"
       id="path5053"
       d="m 8.032576,10.998191 c -0.552997,0 -0.99819,0.445192 -0.99819,0.99819 l 0,8.980092 c 0,0.552997 0.445193,0.99819 0.99819,0.99819 l 13.971044,0 c 0.552997,0 0.99819,-0.445193 0.99819,-0.99819 l 0,-8.980092 c 0,-0.552998 -0.445193,-0.99819 -0.99819,-0.99819 z m 20.958375,-0.0018 c -0.552997,0 -0.99819,0.445193 -0.99819,0.99819 l 0,8.980092 c 0,0.552998 0.445193,0.99819 0.99819,0.99819 l 10.976473,0 c 0.552997,0 0.99819,-0.445192 0.99819,-0.99819 l 0,-8.980092 c 0,-0.552997 -0.445193,-0.99819 -0.99819,-0.99819 z M 17.018098,26.965614 c -0.552997,0 -0.99819,0.445193 -0.99819,0.99819 l 0,8.981902 c 0,0.552998 0.445193,0.998191 0.99819,0.998191 l 12.967424,0 c 0.552997,0 0.99819,-0.445193 0.99819,-0.998191 l 0,-8.981902 c 0,-0.552997 -0.445193,-0.99819 -0.99819,-0.99819 z"
       style="opacity:0.2;fill:#000000;fill-opacity:1;stroke:none" />
    <path
       style="fill:url(#linearGradient3920);fill-opacity:1;stroke:none"
       d="m 8.032576,10 c -0.552997,0 -0.99819,0.445193 -0.99819,0.998191 l 0,8.980092 c 0,0.552997 0.445193,0.99819 0.99819,0.99819 l 13.971044,0 c 0.552997,0 0.99819,-0.445193 0.99819,-0.99819 l 0,-8.980092 C 23.00181,10.445193 22.556617,10 22.00362,10 z M 28.990951,9.99819 c -0.552997,0 -0.99819,0.445192 -0.99819,0.99819 l 0,8.980092 c 0,0.552997 0.445193,0.99819 0.99819,0.99819 l 10.976473,0 c 0.552997,0 0.99819,-0.445193 0.99819,-0.99819 l 0,-8.980092 c 0,-0.552998 -0.445193,-0.99819 -0.99819,-0.99819 z M 17.018098,25.967424 c -0.552997,0 -0.99819,0.445193 -0.99819,0.99819 l 0,8.981902 c 0,0.552998 0.445193,0.99819 0.99819,0.99819 l 12.967424,0 c 0.552997,0 0.99819,-0.445192 0.99819,-0.99819 l 0,-8.981902 c 0,-0.552997 -0.445193,-0.99819 -0.99819,-0.99819 z"
       id="rect4981"
       inkscape:connector-curvature="0"
       sodipodi:nodetypes="sssssssssssssssssssssssssss" />
    <path
       style="fill:#ffffff;fill-opacity:1;stroke:none"
       d="m 8.03125,10 c -0.552997,0 -1,0.447002 -1,1 l 0,1 c 0,-0.552998 0.447003,-1 1,-1 L 22,11 c 0.552997,0 1,0.447002 1,1 l 0,-1 c 0,-0.552998 -0.447003,-1 -1,-1 z M 29,10 c -0.552997,0 -1,1 -1,1 l 0,1 c 0,-0.552998 0.447003,-1 1,-1 l 10.96875,0 c 0.552997,0 1,0.447002 1,1 l 0,-1 c 0,0 -0.447003,-1 -1,-1 z M 17.03125,25.96875 c -0.552997,0 -1,0.447003 -1,1 l 0,1 c 0,-0.552997 0.447003,-1 1,-1 l 12.96875,0 c 0.552997,0 0.96875,0.447003 0.96875,1 l 0,-1 c 0,-0.552997 -0.415753,-1 -0.96875,-1 z"
       id="path3962"
       inkscape:connector-curvature="0"
       sodipodi:nodetypes="sscsscssssscsscssssscsscsss" />
  </g>
</svg>
