<?xml version="1.0" encoding="UTF-8" standalone="no"?>
<svg xmlns="http://www.w3.org/2000/svg" xmlns:xlink="http://www.w3.org/1999/xlink" xmlns:sodipodi="http://sodipodi.sourceforge.net/DTD/sodipodi-0.dtd" xmlns:inkscape="http://www.inkscape.org/namespaces/inkscape" version="1.1" width="48" height="48">
 <metadata id="metadata37"/>
 <defs id="defs3761">
  <linearGradient id="linearGradient4157">
   <stop id="stop4159" stop-color="#ffeeea"/>
   <stop id="stop4161" offset="1" stop-color="#fff5ee"/>
  </linearGradient>
  <linearGradient id="linearGradient4127">
   <stop id="stop4129" stop-color="#8f2b12"/>
   <stop id="stop4131" offset="1" stop-color="#82461a"/>
  </linearGradient>
  <linearGradient inkscape:collect="always" xlink:href="#linearGradient4134" id="linearGradient4140" x1="789" x2="827" gradientUnits="userSpaceOnUse"/>
  <linearGradient inkscape:collect="always" id="linearGradient4134">
   <stop id="stop4136" stop-color="#ffffff"/>
   <stop offset="1" id="stop4138" stop-color="#ffffff" stop-opacity="0"/>
  </linearGradient>
  <clipPath id="clipPath4130">
   <path id="path4132" d="M 790.4375,237 C 789.62555,237 789,237.62555 789,238.4375 l 0,35.09375 c 0,0.812 0.62555,1.46875 1.4375,1.46875 l 35.125,0 c 0.81195,0 1.4375,-0.65675 1.4375,-1.46875 l 0,-35.09375 C 827,237.62555 826.37445,237 825.5625,237 l -35.125,0 z"/>
  </clipPath>
  <linearGradient id="linearGradient5618">
   <stop id="stop5620" stop-color="#3e3e3e"/>
   <stop offset="1" id="stop5622" stop-color="#595959"/>
  </linearGradient>
  <filter color-interpolation-filters="sRGB" inkscape:collect="always" id="filter4155">
   <feGaussianBlur inkscape:collect="always" stdDeviation="0.39" id="feGaussianBlur4157"/>
  </filter>
  <filter inkscape:collect="always" id="filter4023" x="-0.064" width="1.128" y="-0.995" height="2.991">
   <feGaussianBlur inkscape:collect="always" stdDeviation="1.0109" id="feGaussianBlur4025"/>
  </filter>
  <filter inkscape:collect="always" id="filter4033" x="-0.128" width="1.255" y="-1.991" height="4.982">
   <feGaussianBlur inkscape:collect="always" stdDeviation="2.0219" id="feGaussianBlur4035"/>
  </filter>
  <linearGradient inkscape:collect="always" xlink:href="#linearGradient3934" id="linearGradient3998" gradientUnits="userSpaceOnUse" gradientTransform="matrix(0,-1,1,0,68,556)" x1="292" x2="332"/>
  <linearGradient id="linearGradient3934">
   <stop id="stop3936" stop-color="#dd2f03"/>
   <stop offset="1" id="stop3938" stop-color="#e96300"/>
  </linearGradient>
  <linearGradient inkscape:collect="always" xlink:href="#linearGradient3934" id="linearGradient4117" gradientUnits="userSpaceOnUse" gradientTransform="translate(980.3622,784)" x1="-1023.86" x2="-984.86"/>
  <linearGradient inkscape:collect="always" xlink:href="#linearGradient4157" id="linearGradient4155" y1="43.5" x2="0" y2="4" gradientUnits="userSpaceOnUse" gradientTransform="translate(-1,1)"/>
  <radialGradient inkscape:collect="always" xlink:href="#linearGradient3952" id="radialGradient4205" gradientUnits="userSpaceOnUse" gradientTransform="matrix(1.0571429,0,0,1.25,0.6,-10.875)" cx="40" cy="43.5" r="2"/>
  <linearGradient inkscape:collect="always" id="linearGradient3952">
   <stop id="stop3954"/>
   <stop offset="1" id="stop3956" stop-opacity="0"/>
  </linearGradient>
  <radialGradient inkscape:collect="always" xlink:href="#linearGradient3952" id="radialGradient4214" gradientUnits="userSpaceOnUse" gradientTransform="matrix(1,0,0,0.75,2,10.875)" cx="40" cy="43.5" r="2"/>
  <radialGradient inkscape:collect="always" xlink:href="#linearGradient3952" id="radialGradient4202" gradientUnits="userSpaceOnUse" gradientTransform="matrix(1.0571429,0,0,1.25,-4.4000003,-10.875)" cx="9" cy="43.5" r="2"/>
  <radialGradient inkscape:collect="always" xlink:href="#linearGradient3952" id="radialGradient4211" gradientUnits="userSpaceOnUse" gradientTransform="matrix(1,0,0,0.75,-3.0000003,10.875)" cx="9" cy="43.5" r="2"/>
  <linearGradient inkscape:collect="always" xlink:href="#linearGradient3960" id="linearGradient4208" gradientUnits="userSpaceOnUse" y1="45" x2="0" y2="42" gradientTransform="matrix(1.0571429,0,0,1.6666667,-5.4000003,-29)"/>
  <linearGradient id="linearGradient3960">
   <stop id="stop3962" stop-opacity="0"/>
   <stop id="stop3970" offset="0.5"/>
   <stop offset="1" id="stop3964" stop-opacity="0"/>
  </linearGradient>
  <linearGradient inkscape:collect="always" xlink:href="#linearGradient3960" id="linearGradient4217" gradientUnits="userSpaceOnUse" y1="45" x2="0" y2="42" gradientTransform="translate(-4.0000003,0)"/>
 </defs>
 <g inkscape:groupmode="layer" id="layer1" inkscape:label="Background">
  <g id="g3111">
   <path d="m 42.885716,41.000001 0,5 0.528571,0 c 0.878486,0 1.585715,-1.115 1.585715,-2.5 0,-1.385 -0.707229,-2.5 -1.585715,-2.5 l -0.528571,0 z" id="path3987" inkscape:connector-curvature="0" opacity="0.12" fill="url(#radialGradient4205)"/>
   <path inkscape:connector-curvature="0" id="rect3940" d="m 42,42 0,3 0.5,0 C 43.331,45 44,44.331 44,43.5 44,42.669 43.331,42 42.5,42 L 42,42 z" opacity="0.12" fill="url(#radialGradient4214)"/>
   <path d="M 4.4866072,41.000001 C 3.6630268,41.000001 3,42.045313 3,43.343751 l 0,0.3125 c 0,1.298439 0.6630268,2.34375 1.4866072,2.34375 l 0.6276786,0 0,-5 -0.6276786,0 z" id="path3989" inkscape:connector-curvature="0" opacity="0.12" fill="url(#radialGradient4202)"/>
   <path inkscape:connector-curvature="0" id="rect3942" d="m 5.4062497,42 c -0.7790625,0 -1.40625,0.627187 -1.40625,1.40625 l 0,0.1875 c 0,0.779063 0.6271875,1.40625 1.40625,1.40625 l 0.59375,0 0,-3 -0.59375,0 z" opacity="0.12" fill="url(#radialGradient4211)"/>
   <path sodipodi:nodetypes="ccccc" inkscape:connector-curvature="0" id="rect3985" d="m 5.1141432,41 37.7717148,0 0,5 -37.7717148,0 z" opacity="0.12" fill="url(#linearGradient4208)"/>
   <path sodipodi:nodetypes="ccccc" inkscape:connector-curvature="0" id="rect3938" d="m 5.9998568,42 36.0002842,0 0,3 -36.0002842,0 z" opacity="0.12" fill="url(#linearGradient4217)"/>
  </g>
  <rect rx="1.95" transform="matrix(0,-1,-1,0,0,0)" y="-43.5" x="-43.5" height="39" width="39" id="rect4073" fill="url(#linearGradient4117)"/>
  <rect id="rect4085" width="39" height="39" x="-43.5" y="-43.5" transform="matrix(0,-1,-1,0,0,0)" rx="1.95" opacity="0.61" fill="none" stroke="#640000"/>
  <path inkscape:connector-curvature="0" d="M 6.4375,5.00002 C 5.62555,5.00002 5,5.62557 5,6.43752 l 0,1 C 5,6.62557 5.62555,6.00002 6.4375,6.00002 l 35.125,0 c 0.81195,0 1.4375,0.62555 1.4375,1.4375 l 0,-1 c 0,-0.81195 -0.62555,-1.4375 -1.4375,-1.4375 l -35.125,0 z" id="rect4089-4" opacity="0.15" fill="#ffffff"/>
  <path transform="matrix(0,1,-1,0,280,-784)" d="M 790.4375,237 C 789.62555,237 789,237.62555 789,238.4375 l 0,35.09375 c 0,0.812 0.62555,1.46875 1.4375,1.46875 l 35.125,0 c 0.81195,0 1.4375,-0.65675 1.4375,-1.46875 l 0,-35.09375 C 827,237.62555 826.37445,237 825.5625,237 l -35.125,0 z" id="path4128" clip-path="url(#clipPath4130)" inkscape:connector-curvature="0" opacity="0.1" fill="none" stroke="url(#linearGradient4140)" stroke-width="2"/>
  <path id="path4105" d="M 6.4375,43.000017 C 5.62555,43.000017 5,42.374417 5,41.562517 L 5,40.56252 c 0,0.811897 0.62555,1.437497 1.4375,1.437497 l 35.125,0 c 0.81195,0 1.4375,-0.6256 1.4375,-1.437497 l 0,0.999997 c 0,0.8119 -0.62555,1.4375 -1.4375,1.4375 l -35.125,0 z" inkscape:connector-curvature="0" opacity="0.1" fill="#ffffff"/>
 </g>
 <g inkscape:groupmode="layer" id="layer2" inkscape:label="Symbol">
  <path d="m 36,11.75 -18,2.5 0,15.78125 C 17.1599,29.391591 16.137388,29 15,29 c -2.76142,0 -5,2.23858 -5,5 0,2.76142 2.23858,5 5,5 2.76142,0 5,-2.23858 5,-5 l 0,-15.6875 14,-1.875 0,11.59375 C 33.1599,27.391591 32.137388,27 31,27 c -2.76142,0 -5,2.23858 -5,5 0,2.76142 2.23858,5 5,5 2.76142,0 5,-2.23858 5,-5 l 0,-18 0,-2.25 z" id="path4002" inkscape:connector-curvature="0" opacity="0.3" color="#bebebe" stroke-width="4"/>
  <path d="m 36,10.75 -18,2.5 0,15.78125 C 17.1599,28.391591 16.137388,28 15,28 c -2.76142,0 -5,2.23858 -5,5 0,2.76142 2.23858,5 5,5 2.76142,0 5,-2.23858 5,-5 l 0,-15.6875 14,-1.875 0,11.59375 C 33.1599,26.391591 32.137388,26 31,26 c -2.76142,0 -5,2.23858 -5,5 0,2.76142 2.23858,5 5,5 2.76142,0 5,-2.23858 5,-5 l 0,-18 0,-2.25 z" id="path3909" inkscape:connector-curvature="0" fill="url(#linearGradient4155)" color="#bebebe" stroke-width="4"/>
  <path d="m 36,10.75 -18,2.5 0,1 18,-2.5 0,-1 z M 31,26 c -2.76142,0 -5,2.23858 -5,5 0,0.172589 0.01418,0.331915 0.03125,0.5 C 26.2873,28.978722 28.411169,27 31,27 c 1.137388,0 2.1599,0.391591 3,1.03125 l 0,-1 C 33.1599,26.391591 32.137388,26 31,26 z m -16,2 c -2.76142,0 -5,2.23858 -5,5 0,0.172589 0.01418,0.331915 0.03125,0.5 C 10.2873,30.978722 12.411169,29 15,29 c 1.137388,0 2.1599,0.391591 3,1.03125 l 0,-1 C 17.1599,28.391591 16.137388,28 15,28 z" id="path4163" inkscape:connector-curvature="0" fill="#ffffff" color="#bebebe" stroke-width="4"/>
 </g>
</svg>
