<?xml version="1.0" encoding="UTF-8" standalone="no"?>
<svg
   xmlns:dc="http://purl.org/dc/elements/1.1/"
   xmlns:cc="http://creativecommons.org/ns#"
   xmlns:rdf="http://www.w3.org/1999/02/22-rdf-syntax-ns#"
   xmlns:svg="http://www.w3.org/2000/svg"
   xmlns="http://www.w3.org/2000/svg"
   xmlns:xlink="http://www.w3.org/1999/xlink"
   id="svg3759"
   height="48"
   width="48"
   version="1.1">
  <metadata
     id="metadata37">
    <rdf:RDF>
      <cc:Work
         rdf:about="">
        <dc:format>image/svg+xml</dc:format>
        <dc:type
           rdf:resource="http://purl.org/dc/dcmitype/StillImage" />
        <dc:title />
      </cc:Work>
    </rdf:RDF>
  </metadata>
  <defs
     id="defs3761">
    <linearGradient
       y2="24"
       x2="43.500004"
       y1="24"
       x1="4.5000033"
       gradientTransform="matrix(0,-1,-1,0,48.000003,48.000003)"
       gradientUnits="userSpaceOnUse"
       id="linearGradient3874"
       xlink:href="#linearGradient3413" />
    <linearGradient
       id="linearGradient3413">
      <stop
         id="stop3415"
         offset="0"
         style="stop-color:#dddddd;stop-opacity:1;" />
      <stop
         id="stop3417"
         offset="1"
         style="stop-color:#f2f2f2;stop-opacity:1;" />
    </linearGradient>
    <linearGradient
       y2="36"
       x2="24"
       y1="12"
       x1="24"
       gradientUnits="userSpaceOnUse"
       id="linearGradient3937"
       xlink:href="#linearGradient3912"
       gradientTransform="translate(-0.00275081,-1.0129998)" />
    <linearGradient
       id="linearGradient3912">
      <stop
         id="stop3914"
         offset="0"
         style="stop-color:#5d5d5d;stop-opacity:1;" />
      <stop
         id="stop3916"
         offset="1"
         style="stop-color:#989898;stop-opacity:1;" />
    </linearGradient>
  </defs>
  <g
     id="layer1">
    <path
       id="path4026"
       d="M 24,5 C 12.960351,5 4,13.96111 4,25 4,36.03985 12.960367,45 24,45 35.040018,45 44,36.03988 44,25 44,13.961083 35.04013,5 24,5 z"
       style="font-size:medium;font-style:normal;font-variant:normal;font-weight:normal;font-stretch:normal;text-indent:0;text-align:start;text-decoration:none;line-height:normal;letter-spacing:normal;word-spacing:normal;text-transform:none;direction:ltr;block-progression:tb;writing-mode:lr-tb;text-anchor:start;baseline-shift:baseline;opacity:0.05000000000000000;color:#000000;fill:#000000;fill-opacity:1;stroke:#000000;stroke-width:2;marker:none;visibility:visible;display:inline;overflow:visible;enable-background:accumulate;font-family:Sans;-inkscape-font-specification:Sans;stroke-opacity:1;stroke-miterlimit:4;stroke-dasharray:none" />
    <path
       style="font-size:medium;font-style:normal;font-variant:normal;font-weight:normal;font-stretch:normal;text-indent:0;text-align:start;text-decoration:none;line-height:normal;letter-spacing:normal;word-spacing:normal;text-transform:none;direction:ltr;block-progression:tb;writing-mode:lr-tb;text-anchor:start;baseline-shift:baseline;opacity:0.1;color:#000000;fill:#000000;fill-opacity:1;stroke:#000000;stroke-width:1;marker:none;visibility:visible;display:inline;overflow:visible;enable-background:accumulate;font-family:Sans;-inkscape-font-specification:Sans;stroke-opacity:1"
       d="M 24,5 C 12.960351,5 4,13.96111 4,25 4,36.03985 12.960367,45 24,45 35.040018,45 44,36.03988 44,25 44,13.961083 35.04013,5 24,5 z"
       id="path4024" />
    <path
       id="path4018"
       d="M 24,5 C 12.960351,5 4,13.96111 4,25 4,36.03985 12.960367,45 24,45 35.040018,45 44,36.03988 44,25 44,13.961083 35.04013,5 24,5 z"
       style="font-size:medium;font-style:normal;font-variant:normal;font-weight:normal;font-stretch:normal;text-indent:0;text-align:start;text-decoration:none;line-height:normal;letter-spacing:normal;word-spacing:normal;text-transform:none;direction:ltr;block-progression:tb;writing-mode:lr-tb;text-anchor:start;baseline-shift:baseline;opacity:0.2;color:#000000;fill:#000000;fill-opacity:1;stroke:none;stroke-width:1;marker:none;visibility:visible;display:inline;overflow:visible;enable-background:accumulate;font-family:Sans;-inkscape-font-specification:Sans" />
    <path
       d="M 4.5000031,23.999309 C 4.5000031,34.769208 13.231094,43.5 23.999758,43.5 c 10.769649,0 19.500245,-8.730891 19.500245,-19.500691 0,-10.769405 -8.730596,-19.4993089 -19.500245,-19.4993089 -10.768664,0 -19.4997549,8.7299039 -19.4997549,19.4993089 l 0,0 z"
       id="path6495"
       style="fill:url(#linearGradient3874);fill-opacity:1.0;fill-rule:nonzero;stroke:none" />
    <path
       id="path3872"
       d="M 24 5 C 13.500552 5 5 13.500823 5 24 C 5 24.169463 5.0268485 24.331605 5.03125 24.5 C 5.299553 14.235412 13.670013 6 24 6 C 34.328993 6 42.700416 14.235427 42.96875 24.5 C 42.973152 24.331604 43 24.169465 43 24 C 43 13.500839 34.498438 5 24 5 z "
       style="fill:#ffffff;fill-opacity:1;fill-rule:nonzero;stroke:none;opacity:0.4" />
    <path
       style="opacity:0.41;fill:none;stroke:#000000;stroke-width:1;stroke-miterlimit:4;stroke-opacity:1;stroke-dasharray:none"
       id="path3796"
       d="M 23.999309,4.5 C 34.769208,4.5 43.5,13.231091 43.5,23.999755 43.5,34.769404 34.769109,43.5 23.999309,43.5 13.229903,43.5 4.5,34.769404 4.5,23.999755 4.5,13.231091 13.229903,4.5 23.999309,4.5 l 0,0 z" />
    <path
       style="opacity:0.1;fill:#ffffff;fill-opacity:1;fill-rule:nonzero;stroke:none"
       d="M 24,43 C 13.500552,43 5,34.499177 5,24 5,23.830537 5.0268485,23.668395 5.03125,23.5 5.299553,33.764588 13.670013,42 24,42 34.328993,42 42.700416,33.764573 42.96875,23.5 42.973152,23.668396 43,23.830535 43,24 43,34.499161 34.498438,43 24,43 z"
       id="path3366" />
  </g>
  <g
     id="layer2">
    <path
       style="font-size:medium;font-style:normal;font-variant:normal;font-weight:normal;font-stretch:normal;text-indent:0;text-align:start;text-decoration:none;line-height:normal;letter-spacing:normal;word-spacing:normal;text-transform:none;direction:ltr;block-progression:tb;writing-mode:lr-tb;text-anchor:start;baseline-shift:baseline;opacity:0.5;color:#000000;fill:#ffffff;fill-opacity:1;stroke:none;stroke-width:1.55467153;marker:none;visibility:visible;display:inline;overflow:visible;enable-background:new;font-family:Sans;-inkscape-font-specification:Sans"
       d="m 25.997249,13.987325 c -4.418278,0 -8,3.581722 -8,8 0,1.656854 0.512405,3.191942 1.375,4.46875 0.0048,0.0071 -0.0048,0.02413 0,0.03125 l -4.9375,4.9375 c -0.564765,0.552172 -0.583589,1.591643 -0.03125,2.15625 0.552333,0.564608 1.5918,0.552492 2.15625,0 l 4.96875,-4.96875 c 1.276808,0.862595 2.811896,1.375 4.46875,1.375 4.418278,0 8,-3.581722 8,-8 0,-4.418278 -3.581722,-8 -8,-8 z m 0,3 c 2.761424,0 5,2.238576 5,5 0,2.761424 -2.238576,5 -5,5 -2.761424,0 -5,-2.238576 -5,-5 0,-2.761424 2.238576,-5 5,-5 z"
       id="path3945" />
    <path
       id="path27918-2"
       d="m 25.997249,12.987 c -4.418278,0 -8,3.581722 -8,8 0,1.656854 0.512405,3.191942 1.375,4.46875 0.0048,0.0071 -0.0048,0.02413 0,0.03125 l -4.9375,4.9375 c -0.564765,0.552172 -0.583589,1.591643 -0.03125,2.15625 0.552333,0.564608 1.5918,0.552492 2.15625,0 l 4.96875,-4.96875 c 1.276808,0.862595 2.811896,1.375 4.46875,1.375 4.418278,0 8,-3.581722 8,-8 0,-4.418278 -3.581722,-8 -8,-8 z m 0,3 c 2.761424,0 5,2.238576 5,5 0,2.761424 -2.238576,5 -5,5 -2.761424,0 -5,-2.238576 -5,-5 0,-2.761424 2.238576,-5 5,-5 z"
       style="font-size:medium;font-style:normal;font-variant:normal;font-weight:normal;font-stretch:normal;text-indent:0;text-align:start;text-decoration:none;line-height:normal;letter-spacing:normal;word-spacing:normal;text-transform:none;direction:ltr;block-progression:tb;writing-mode:lr-tb;text-anchor:start;baseline-shift:baseline;color:#000000;fill:url(#linearGradient3937);fill-opacity:1;stroke:none;stroke-width:1.55467153;marker:none;visibility:visible;display:inline;overflow:visible;enable-background:new;font-family:Sans;-inkscape-font-specification:Sans" />
    <path
       id="path3940"
       d="m 25.997249,12.987 c -4.418278,0 -8,3.581722 -8,8 0,0.06416 0.02972,0.123711 0.03125,0.1875 0.40968,-4.034049 3.826614,-7.1875 7.96875,-7.1875 4.248187,0 7.707507,3.317655 7.96875,7.5 0.01046,-0.167454 0.03125,-0.329909 0.03125,-0.5 0,-4.418278 -3.581722,-8 -8,-8 z m -4.96875,8.5 c -0.01707,0.168085 -0.03125,0.327411 -0.03125,0.5 0,2.761424 2.238576,5 5,5 2.761424,0 5,-2.238576 5,-5 0,-0.172589 -0.01418,-0.331915 -0.03125,-0.5 -0.25605,2.521281 -2.379915,4.5 -4.96875,4.5 -2.588835,0 -4.7127,-1.978719 -4.96875,-4.5 z m -2.03125,4.375 -4.5625,4.5625 c -0.416099,0.406821 -0.530436,1.073946 -0.34375,1.625 0.07005,-0.231044 0.171967,-0.457048 0.34375,-0.625 l 4.9375,-4.9375 c -0.0048,-0.0071 0.0048,-0.02415 0,-0.03125 -0.130168,-0.192674 -0.261338,-0.389783 -0.375,-0.59375 z"
       style="font-size:medium;font-style:normal;font-variant:normal;font-weight:normal;font-stretch:normal;text-indent:0;text-align:start;text-decoration:none;line-height:normal;letter-spacing:normal;word-spacing:normal;text-transform:none;direction:ltr;block-progression:tb;writing-mode:lr-tb;text-anchor:start;baseline-shift:baseline;opacity:0.2;color:#000000;fill:#000000;fill-opacity:1;stroke:none;stroke-width:1.55467153;marker:none;visibility:visible;display:inline;overflow:visible;enable-background:new;font-family:Sans;-inkscape-font-specification:Sans" />
  </g>
</svg>
