<?xml version="1.0" encoding="UTF-8" standalone="no"?>
<!-- Created with Inkscape (http://www.inkscape.org/) -->

<svg
   xmlns:dc="http://purl.org/dc/elements/1.1/"
   xmlns:cc="http://creativecommons.org/ns#"
   xmlns:rdf="http://www.w3.org/1999/02/22-rdf-syntax-ns#"
   xmlns:svg="http://www.w3.org/2000/svg"
   xmlns="http://www.w3.org/2000/svg"
   xmlns:xlink="http://www.w3.org/1999/xlink"
   xmlns:sodipodi="http://sodipodi.sourceforge.net/DTD/sodipodi-0.dtd"
   xmlns:inkscape="http://www.inkscape.org/namespaces/inkscape"
   version="1.1"
   width="48"
   height="48"
   id="svg4032"
   inkscape:version="0.48.4 r9939"
   sodipodi:docname="preferences-desktop-wallpaper.svg">
  <sodipodi:namedview
     pagecolor="#ffffff"
     bordercolor="#666666"
     borderopacity="1"
     objecttolerance="10"
     gridtolerance="10"
     guidetolerance="10"
     inkscape:pageopacity="0"
     inkscape:pageshadow="2"
     inkscape:window-width="1364"
     inkscape:window-height="700"
     id="namedview40"
     showgrid="false"
     showborder="false"
     inkscape:snap-bbox="true"
     inkscape:bbox-nodes="true"
     inkscape:zoom="1"
     inkscape:cx="28.412755"
     inkscape:cy="35.284897"
     inkscape:window-x="0"
     inkscape:window-y="28"
     inkscape:window-maximized="1"
     inkscape:current-layer="layer1"
     inkscape:snap-global="true">
    <inkscape:grid
       type="xygrid"
       id="grid3813"
       empspacing="4"
       visible="true"
       enabled="true"
       snapvisiblegridlinesonly="true" />
  </sodipodi:namedview>
  <metadata
     id="metadata41">
    <rdf:RDF>
      <cc:Work
         rdf:about="">
        <dc:format>image/svg+xml</dc:format>
        <dc:type
           rdf:resource="http://purl.org/dc/dcmitype/StillImage" />
        <dc:title />
      </cc:Work>
    </rdf:RDF>
  </metadata>
  <defs
     id="defs4034">
    <linearGradient
       id="linearGradient3947">
      <stop
         id="stop3949"
         offset="0"
         style="stop-color:#4e4e4e;stop-opacity:1;" />
      <stop
         style="stop-color:#aeaead;stop-opacity:1;"
         offset="0.51385432"
         id="stop3951" />
      <stop
         id="stop3953"
         offset="0.62802827"
         style="stop-color:#dfdfdf;stop-opacity:1;" />
      <stop
         style="stop-color:#ffffff;stop-opacity:1"
         offset="0.77232659"
         id="stop3955" />
      <stop
         id="stop3957"
         offset="1"
         style="stop-color:#a2a2a2;stop-opacity:1" />
    </linearGradient>
    <linearGradient
       id="linearGradient4073">
      <stop
         style="stop-color:#ffffff;stop-opacity:1;"
         offset="0"
         id="stop4075" />
      <stop
         style="stop-color:#e3e3e3;stop-opacity:1"
         offset="1"
         id="stop4077" />
    </linearGradient>
    <linearGradient
       inkscape:collect="always"
       id="linearGradient3880">
      <stop
         style="stop-color:#ffffff;stop-opacity:1;"
         offset="0"
         id="stop3883" />
      <stop
         style="stop-color:#ffffff;stop-opacity:0;"
         offset="1"
         id="stop3885" />
    </linearGradient>
    <linearGradient
       id="linearGradient3835">
      <stop
         offset="0"
         style="stop-color:#f2f2f2;stop-opacity:1"
         id="stop3841" />
      <stop
         offset="1"
         style="stop-color:#d4d4d4;stop-opacity:1"
         id="stop3844" />
    </linearGradient>
    <linearGradient
       inkscape:collect="always"
       id="linearGradient3878">
      <stop
         style="stop-color:#ffffff;stop-opacity:1;"
         offset="0"
         id="stop3880" />
      <stop
         style="stop-color:#ffffff;stop-opacity:0;"
         offset="1"
         id="stop3882" />
    </linearGradient>
    <linearGradient
       id="linearGradient3841">
      <stop
         id="stop3843"
         offset="0"
         style="stop-color:#080808;stop-opacity:1" />
      <stop
         id="stop3845"
         offset="1"
         style="stop-color:#262626;stop-opacity:1" />
    </linearGradient>
    <linearGradient
       id="linearGradient3805">
      <stop
         style="stop-color:#1a1a1a;stop-opacity:1;"
         offset="0"
         id="stop3807" />
      <stop
         style="stop-color:#3f3f3f;stop-opacity:1;"
         offset="1"
         id="stop3809" />
    </linearGradient>
    <linearGradient
       x1="12.9375"
       y1="8.4375"
       x2="15.25"
       y2="19.8125"
       id="linearGradient2903-1"
       xlink:href="#linearGradient6592-2-7-1"
       gradientUnits="userSpaceOnUse"
       gradientTransform="matrix(0.7142858,0,0,0.86666598,-1.1428573,0.4000017)" />
    <linearGradient
       id="linearGradient6592-2-7-1">
      <stop
         id="stop6594-0-2-4"
         style="stop-color:#ffffff;stop-opacity:0.27450982"
         offset="0" />
      <stop
         id="stop6596-2-5-3"
         style="stop-color:#ffffff;stop-opacity:0"
         offset="1" />
    </linearGradient>
    <radialGradient
       cx="12.244348"
       cy="4.8630676"
       r="20.999998"
       fx="12.244348"
       fy="4.8630676"
       id="radialGradient2906-7"
       xlink:href="#linearGradient6712-2"
       gradientUnits="userSpaceOnUse"
       gradientTransform="matrix(0.94450895,0.01356539,-0.0087941,0.75830433,-3.5503801,4.4065437)" />
    <linearGradient
       id="linearGradient6712-2">
      <stop
         id="stop6714-7"
         style="stop-color:#3c3c3c;stop-opacity:1"
         offset="0" />
      <stop
         id="stop6716-3"
         style="stop-color:#1e1e1e;stop-opacity:1"
         offset="1" />
    </linearGradient>
    <linearGradient
       x1="15.573899"
       y1="46.971004"
       x2="23.578077"
       y2="46.971004"
       id="linearGradient3093"
       xlink:href="#linearGradient3342-3"
       gradientUnits="userSpaceOnUse"
       gradientTransform="matrix(0.72744588,0,0,0.65891862,-1.151775,-2.450068)"
       spreadMethod="reflect" />
    <linearGradient
       id="linearGradient3342-3">
      <stop
         id="stop3344-0"
         style="stop-color:#ffffff;stop-opacity:0"
         offset="0" />
      <stop
         id="stop3346-3"
         style="stop-color:#ffffff;stop-opacity:1"
         offset="1" />
    </linearGradient>
    <linearGradient
       x1="397.07306"
       y1="87.076035"
       x2="397.07306"
       y2="95.365944"
       id="linearGradient2913-5"
       xlink:href="#linearGradient3178"
       gradientUnits="userSpaceOnUse"
       gradientTransform="matrix(0.68184398,0,0,0.6063426,-254.2496,-27.797984)" />
    <linearGradient
       id="linearGradient3178">
      <stop
         id="stop3180"
         style="stop-color:#787878;stop-opacity:1"
         offset="0" />
      <stop
         id="stop3184"
         style="stop-color:#c8c8c8;stop-opacity:1"
         offset="0.24005625" />
      <stop
         id="stop3186"
         style="stop-color:#e6e6e6;stop-opacity:1"
         offset="0.33494958" />
      <stop
         id="stop3188"
         style="stop-color:#8c8c8c;stop-opacity:1"
         offset="1" />
    </linearGradient>
    <linearGradient
       x1="98.584404"
       y1="36.075962"
       x2="98.584404"
       y2="44.323311"
       id="linearGradient2915-7"
       xlink:href="#linearGradient3962"
       gradientUnits="userSpaceOnUse"
       gradientTransform="matrix(0.68430138,0,0,0.60625543,-52.461444,3.1287517)" />
    <linearGradient
       id="linearGradient3962">
      <stop
         id="stop3964"
         style="stop-color:#464646;stop-opacity:1"
         offset="0" />
      <stop
         id="stop3968"
         style="stop-color:#969696;stop-opacity:1"
         offset="0.23349524" />
      <stop
         id="stop3970"
         style="stop-color:#aaaaaa;stop-opacity:1"
         offset="0.34358323" />
      <stop
         id="stop3972"
         style="stop-color:#646464;stop-opacity:1"
         offset="1" />
    </linearGradient>
    <linearGradient
       id="linearGradient10691-1">
      <stop
         id="stop10693-3"
         style="stop-color:#000000;stop-opacity:1"
         offset="0" />
      <stop
         id="stop10695-1"
         style="stop-color:#000000;stop-opacity:0"
         offset="1" />
    </linearGradient>
    <radialGradient
       cx="6.702713"
       cy="73.615715"
       r="7.228416"
       fx="6.702713"
       fy="73.615715"
       id="radialGradient4020"
       xlink:href="#linearGradient10691-1"
       gradientUnits="userSpaceOnUse"
       gradientTransform="matrix(1.2450862,0,0,0.27668578,7.6545456,8.631578)" />
    <linearGradient
       inkscape:collect="always"
       xlink:href="#outerBackgroundGradient-0-1"
       id="linearGradient3811"
       x1="15"
       y1="24.618645"
       x2="15"
       y2="2"
       gradientUnits="userSpaceOnUse"
       gradientTransform="translate(3,0)" />
    <clipPath
       clipPathUnits="userSpaceOnUse"
       id="clipPath3835">
      <rect
         width="31.000011"
         height="21.99976"
         rx="0.68889284"
         ry="0.6666643"
         x="0.49999428"
         y="2.5001197"
         id="rect3837"
         style="fill:url(#linearGradient3839);fill-opacity:1;stroke:none" />
    </clipPath>
    <linearGradient
       inkscape:collect="always"
       xlink:href="#linearGradient3805"
       id="linearGradient3839"
       gradientUnits="userSpaceOnUse"
       x1="15"
       y1="24.618645"
       x2="15"
       y2="2" />
    <clipPath
       clipPathUnits="userSpaceOnUse"
       id="clipPath3872">
      <path
         id="path3874"
         d="M 1.1875,3 C 1.0655458,3 1,3.064217 1,3.15625 l 0,20.6875 C 1,23.935783 1.0655458,24 1.1875,24 l 29.625,0 C 30.934454,24 31,23.935783 31,23.84375 L 31,3.15625 C 31,3.064217 30.934454,3 30.8125,3 L 1.1875,3 z"
         style="fill:url(#linearGradient3876);fill-opacity:1;stroke:none"
         inkscape:connector-curvature="0" />
    </clipPath>
    <linearGradient
       inkscape:collect="always"
       xlink:href="#linearGradient3841"
       id="linearGradient3876"
       gradientUnits="userSpaceOnUse"
       x1="15"
       y1="24.618645"
       x2="15"
       y2="2" />
    <linearGradient
       inkscape:collect="always"
       xlink:href="#linearGradient3878"
       id="linearGradient3884"
       x1="15"
       y1="2"
       x2="15"
       y2="24.636932"
       gradientUnits="userSpaceOnUse" />
    <radialGradient
       inkscape:collect="always"
       xlink:href="#linearGradient10691-1"
       id="radialGradient3888"
       gradientUnits="userSpaceOnUse"
       gradientTransform="matrix(2.2134866,0,0,0.27668578,1.1636366,4.631578)"
       cx="6.702713"
       cy="73.615715"
       fx="6.702713"
       fy="73.615715"
       r="7.228416" />
    <linearGradient
       inkscape:collect="always"
       xlink:href="#outerBackgroundGradient-5-0"
       id="linearGradient3934"
       gradientUnits="userSpaceOnUse"
       gradientTransform="matrix(0,-1,1,0,0,30)"
       x1="2.5"
       y1="16"
       x2="29.5"
       y2="16" />
    <linearGradient
       id="outerBackgroundGradient-5-0">
      <stop
         style="stop-color:#261e2b;stop-opacity:1;"
         offset="0"
         id="stop3864-8-6-4" />
      <stop
         style="stop-color:#352f39;stop-opacity:1;"
         offset="1"
         id="stop3866-9-1-86" />
    </linearGradient>
    <clipPath
       clipPathUnits="userSpaceOnUse"
       id="clipPath3821">
      <rect
         width="31.000011"
         height="21.99976"
         rx="0.68889284"
         ry="0.6666643"
         x="0.49999428"
         y="2.5001197"
         id="rect3823"
         style="fill:url(#linearGradient3825);fill-opacity:1;stroke:none" />
    </clipPath>
    <linearGradient
       inkscape:collect="always"
       xlink:href="#outerBackgroundGradient-5-0"
       id="linearGradient3825"
       gradientUnits="userSpaceOnUse"
       x1="15"
       y1="24.618645"
       x2="15"
       y2="2" />
    <linearGradient
       inkscape:collect="always"
       xlink:href="#linearGradient3835"
       id="linearGradient3833"
       x1="16"
       y1="3"
       x2="16"
       y2="25"
       gradientUnits="userSpaceOnUse" />
    <linearGradient
       inkscape:collect="always"
       xlink:href="#linearGradient3835"
       id="linearGradient3856"
       gradientUnits="userSpaceOnUse"
       x1="15"
       y1="24.618645"
       x2="15"
       y2="2"
       gradientTransform="matrix(1,0,0,-1,2.9999998,26.999999)" />
    <clipPath
       clipPathUnits="userSpaceOnUse"
       id="clipPath3862">
      <rect
         width="28"
         height="17"
         rx="0"
         ry="0"
         x="2"
         y="4"
         id="rect3864"
         style="fill:url(#linearGradient3866);fill-opacity:1;stroke:none" />
    </clipPath>
    <linearGradient
       inkscape:collect="always"
       xlink:href="#outerBackgroundGradient-5-0"
       id="linearGradient3866"
       gradientUnits="userSpaceOnUse"
       x1="15"
       y1="24.618645"
       x2="15"
       y2="2" />
    <linearGradient
       inkscape:collect="always"
       xlink:href="#linearGradient3880"
       id="linearGradient3887"
       x1="10"
       y1="-3"
       x2="20"
       y2="12"
       gradientUnits="userSpaceOnUse"
       gradientTransform="translate(3,0)" />
    <linearGradient
       id="linearGradient2715-8">
      <stop
         id="stop2717-1"
         offset="0"
         style="stop-color:#ffffff;stop-opacity:1;" />
      <stop
         style="stop-color:#d3d7cf;stop-opacity:1"
         offset="0.16168238"
         id="stop2719-0" />
      <stop
         id="stop2721-2"
         offset="0.85551679"
         style="stop-color:#d3d7cf;stop-opacity:1" />
      <stop
         id="stop2723-8"
         offset="1"
         style="stop-color:#ffffff;stop-opacity:1" />
    </linearGradient>
    <linearGradient
       inkscape:collect="always"
       xlink:href="#linearGradient10826"
       id="linearGradient5601"
       gradientUnits="userSpaceOnUse"
       gradientTransform="matrix(1.2915983,0,0,0.7041466,-93.158919,-272.04186)"
       x1="320.28125"
       y1="83.457413"
       x2="320.28125"
       y2="93.069283" />
    <linearGradient
       id="linearGradient10826">
      <stop
         style="stop-color:#4e4e4e;stop-opacity:1;"
         offset="0"
         id="stop10828" />
      <stop
         id="stop10830"
         offset="0.51385432"
         style="stop-color:#aeaead;stop-opacity:1;" />
      <stop
         style="stop-color:#dfdfdf;stop-opacity:1;"
         offset="0.62802827"
         id="stop10832" />
      <stop
         id="stop10834"
         offset="0.77232659"
         style="stop-color:#ffffff;stop-opacity:1" />
      <stop
         style="stop-color:#4b4b4b;stop-opacity:1;"
         offset="1"
         id="stop10836" />
    </linearGradient>
    <linearGradient
       inkscape:collect="always"
       xlink:href="#linearGradient2712-5"
       id="linearGradient5603"
       gradientUnits="userSpaceOnUse"
       gradientTransform="matrix(1.2915983,0,0,0.7041466,-93.158919,-272.04186)"
       x1="325.8125"
       y1="86.909012"
       x2="325.8125"
       y2="93.876022" />
    <linearGradient
       id="linearGradient2712-5">
      <stop
         id="stop2714-0"
         offset="0"
         style="stop-color:#555753;stop-opacity:1" />
      <stop
         style="stop-color:#babdb6;stop-opacity:1"
         offset="0.52028042"
         id="stop2716-3" />
      <stop
         id="stop2718-2"
         offset="0.81725585"
         style="stop-color:#888a85;stop-opacity:1" />
      <stop
         id="stop2720-7"
         offset="1"
         style="stop-color:#555753;stop-opacity:1" />
    </linearGradient>
    <linearGradient
       y2="93.069283"
       x2="320.28125"
       y1="83.457413"
       x1="320.28125"
       gradientTransform="matrix(1.2915983,0,0,0.7041466,-389.23032,-39.047924)"
       gradientUnits="userSpaceOnUse"
       id="linearGradient6429"
       xlink:href="#linearGradient3947"
       inkscape:collect="always" />
    <clipPath
       clipPathUnits="userSpaceOnUse"
       id="clipPath3909">
      <path
         sodipodi:nodetypes="ccccc"
         inkscape:connector-curvature="0"
         id="path3911"
         d="m 5,-8 38,0 0,25 -38,0 z"
         style="fill:url(#linearGradient3913);fill-opacity:1;stroke:none" />
    </clipPath>
    <linearGradient
       inkscape:collect="always"
       xlink:href="#outerBackgroundGradient-5-0"
       id="linearGradient3913"
       gradientUnits="userSpaceOnUse"
       gradientTransform="translate(3,0)"
       x1="15"
       y1="24.618645"
       x2="15"
       y2="2" />
    <radialGradient
       inkscape:collect="always"
       xlink:href="#linearGradient10691-1"
       id="radialGradient3919"
       gradientUnits="userSpaceOnUse"
       gradientTransform="matrix(3.0435441,0,0,0.38044295,3.600001,-1.1315802)"
       cx="6.702713"
       cy="73.615715"
       fx="6.702713"
       fy="73.615715"
       r="7.228416" />
    <radialGradient
       inkscape:collect="always"
       xlink:href="#linearGradient10691-1"
       id="radialGradient3921"
       gradientUnits="userSpaceOnUse"
       gradientTransform="matrix(1.7119935,0,0,0.38044295,11.150001,0.24341975)"
       cx="8.0737877"
       cy="73.296265"
       fx="8.0737877"
       fy="73.296265"
       r="7.228416" />
    <clipPath
       clipPathUnits="userSpaceOnUse"
       id="clipPath3862-0">
      <rect
         width="28"
         height="17"
         rx="0"
         ry="0"
         x="2"
         y="4"
         id="rect3864-5"
         style="fill:url(#linearGradient3866);fill-opacity:1;stroke:none" />
    </clipPath>
    <clipPath
       clipPathUnits="userSpaceOnUse"
       id="clipPath4298">
      <path
         sodipodi:nodetypes="ccccc"
         inkscape:connector-curvature="0"
         id="path4300"
         d="m 412.56306,54.066997 32.49568,0 0,20.893998 -32.49568,0 z"
         style="fill:url(#linearGradient4302);fill-opacity:1;stroke:none" />
    </clipPath>
    <linearGradient
       id="linearGradient4094-1-8">
      <stop
         id="stop4096-0-9"
         offset="0"
         style="stop-color:#676767;stop-opacity:1;" />
      <stop
         id="stop4098-37-6"
         offset="1"
         style="stop-color:#8a8a8a;stop-opacity:1;" />
    </linearGradient>
    <clipPath
       clipPathUnits="userSpaceOnUse"
       id="clipPath4172-0-6">
      <rect
         style="color:#bebebe;fill:url(#linearGradient4176);fill-opacity:1;fill-rule:nonzero;stroke:none;stroke-width:0;marker:none;visibility:visible;display:inline;overflow:visible;enable-background:accumulate"
         id="rect4174-3-1"
         width="90"
         height="90"
         x="307"
         y="43"
         ry="18.75" />
    </clipPath>
    <linearGradient
       id="linearGradient4121-4-8">
      <stop
         id="stop4123-0-37"
         offset="0"
         style="stop-color:#c3b7a4;stop-opacity:1;" />
      <stop
         id="stop4125-76-2"
         offset="1"
         style="stop-color:#ffffff;stop-opacity:1;" />
    </linearGradient>
    <linearGradient
       inkscape:collect="always"
       id="linearGradient4762">
      <stop
         style="stop-color:#e3e3e3;stop-opacity:1;"
         offset="0"
         id="stop4764" />
      <stop
         style="stop-color:#e3e3e3;stop-opacity:0;"
         offset="1"
         id="stop4766" />
    </linearGradient>
    <linearGradient
       id="linearGradient4892">
      <stop
         id="stop4894"
         offset="0"
         style="stop-color:#000000;stop-opacity:1;" />
      <stop
         id="stop4896"
         offset="1"
         style="stop-color:#000000;stop-opacity:0;" />
    </linearGradient>
    <linearGradient
       id="linearGradient3553">
      <stop
         id="stop3555"
         offset="0"
         style="stop-color:#000000;stop-opacity:1;" />
      <stop
         id="stop3557"
         offset="1"
         style="stop-color:#000000;stop-opacity:0;" />
    </linearGradient>
    <linearGradient
       id="linearGradient3560">
      <stop
         id="stop3562"
         offset="0"
         style="stop-color:#000000;stop-opacity:1;" />
      <stop
         id="stop3564"
         offset="1"
         style="stop-color:#000000;stop-opacity:0;" />
    </linearGradient>
    <linearGradient
       id="linearGradient3567">
      <stop
         id="stop3569"
         offset="0"
         style="stop-color:#000000;stop-opacity:1;" />
      <stop
         id="stop3571"
         offset="1"
         style="stop-color:#000000;stop-opacity:0;" />
    </linearGradient>
    <linearGradient
       id="linearGradient3574">
      <stop
         id="stop3576"
         offset="0"
         style="stop-color:#000000;stop-opacity:1;" />
      <stop
         id="stop3578"
         offset="1"
         style="stop-color:#000000;stop-opacity:0;" />
    </linearGradient>
    <linearGradient
       id="linearGradient3581">
      <stop
         id="stop3583"
         offset="0"
         style="stop-color:#000000;stop-opacity:1;" />
      <stop
         id="stop3585"
         offset="1"
         style="stop-color:#000000;stop-opacity:0;" />
    </linearGradient>
    <linearGradient
       id="linearGradient3588">
      <stop
         id="stop3590"
         offset="0"
         style="stop-color:#000000;stop-opacity:1;" />
      <stop
         id="stop3592"
         offset="1"
         style="stop-color:#000000;stop-opacity:0;" />
    </linearGradient>
    <linearGradient
       id="linearGradient3595">
      <stop
         id="stop3597"
         offset="0"
         style="stop-color:#000000;stop-opacity:1;" />
      <stop
         id="stop3599"
         offset="1"
         style="stop-color:#000000;stop-opacity:0;" />
    </linearGradient>
    <linearGradient
       id="linearGradient3602">
      <stop
         id="stop3604"
         offset="0"
         style="stop-color:#000000;stop-opacity:1;" />
      <stop
         id="stop3606"
         offset="1"
         style="stop-color:#000000;stop-opacity:0;" />
    </linearGradient>
    <linearGradient
       id="linearGradient3609">
      <stop
         id="stop3611"
         offset="0"
         style="stop-color:#000000;stop-opacity:1;" />
      <stop
         id="stop3613"
         offset="1"
         style="stop-color:#000000;stop-opacity:0;" />
    </linearGradient>
    <linearGradient
       id="linearGradient3623">
      <stop
         id="stop3625"
         offset="0"
         style="stop-color:#000000;stop-opacity:1;" />
      <stop
         id="stop3627"
         offset="1"
         style="stop-color:#000000;stop-opacity:0;" />
    </linearGradient>
    <linearGradient
       id="linearGradient3630">
      <stop
         id="stop3632"
         offset="0"
         style="stop-color:#000000;stop-opacity:1;" />
      <stop
         id="stop3634"
         offset="1"
         style="stop-color:#000000;stop-opacity:0;" />
    </linearGradient>
    <linearGradient
       id="linearGradient3637">
      <stop
         id="stop3639"
         offset="0"
         style="stop-color:#000000;stop-opacity:1;" />
      <stop
         id="stop3641"
         offset="1"
         style="stop-color:#000000;stop-opacity:0;" />
    </linearGradient>
    <linearGradient
       inkscape:collect="always"
       xlink:href="#outerBackgroundGradient-0-1"
       id="linearGradient4304"
       gradientUnits="userSpaceOnUse"
       x1="15.353554"
       y1="20.11084"
       x2="15.088388"
       y2="4.6516504" />
    <linearGradient
       id="outerBackgroundGradient-0-1">
      <stop
         style="stop-color:#a348b1;stop-opacity:1;"
         offset="0"
         id="stop3864-8-6-3-6" />
      <stop
         style="stop-color:#b1488f;stop-opacity:1;"
         offset="1"
         id="stop3866-9-1-7-3" />
    </linearGradient>
    <linearGradient
       inkscape:collect="always"
       xlink:href="#linearGradient4094-1-8"
       id="linearGradient3534"
       gradientUnits="userSpaceOnUse"
       gradientTransform="matrix(0.375,0,0,0.375,298,27.999997)"
       x1="186.66667"
       y1="170.66667"
       x2="186.66667"
       y2="42.666676" />
    <linearGradient
       inkscape:collect="always"
       xlink:href="#linearGradient4121-4-8"
       id="linearGradient3536"
       gradientUnits="userSpaceOnUse"
       x1="392"
       y1="128"
       x2="368"
       y2="48" />
    <linearGradient
       inkscape:collect="always"
       xlink:href="#linearGradient4762"
       id="linearGradient4404"
       gradientUnits="userSpaceOnUse"
       x1="6"
       y1="0"
       x2="6"
       y2="20"
       gradientTransform="matrix(1,0,0,1.4705882,1.0000001,1.117647)" />
    <linearGradient
       inkscape:collect="always"
       xlink:href="#linearGradient4892"
       id="linearGradient4451"
       gradientUnits="userSpaceOnUse"
       gradientTransform="matrix(1,0,0,-1.4705882,2.0000001,22.882353)"
       x1="6"
       y1="0"
       x2="6"
       y2="20" />
    <linearGradient
       inkscape:collect="always"
       xlink:href="#linearGradient4094-1-8"
       id="linearGradient4683"
       gradientUnits="userSpaceOnUse"
       gradientTransform="matrix(0.375,0,0,0.375,298,27.999997)"
       x1="186.66667"
       y1="170.66667"
       x2="186.66667"
       y2="42.666676" />
    <linearGradient
       inkscape:collect="always"
       xlink:href="#linearGradient4121-4-8"
       id="linearGradient4685"
       gradientUnits="userSpaceOnUse"
       x1="392"
       y1="128"
       x2="368"
       y2="48" />
  </defs>
  <g
     inkscape:groupmode="layer"
     id="layer1"
     inkscape:label="Background"
     transform="translate(0,16)">
    <g
       id="g3915"
       transform="translate(0,-1)">
      <path
         d="m 46,26.875 c 0,1.518784 -9.849737,2.75 -22.000003,2.75 C 11.849733,29.625 2,28.393784 2,26.875 2,25.356218 11.849733,24.125 23.999997,24.125 36.150263,24.125 46,25.356218 46,26.875 z"
         inkscape:connector-curvature="0"
         id="path4220"
         style="opacity:0.1;fill:url(#radialGradient3919);fill-opacity:1;fill-rule:nonzero;stroke:none;stroke-width:0.80000001;marker:none;visibility:visible;display:inline;overflow:visible"
         sodipodi:nodetypes="csssc" />
      <path
         sodipodi:nodetypes="csssc"
         d="M 35,28.25 C 35,29.768784 31.522024,31 24.6875,31 17.852976,31 13,29.768784 13,28.25 13,26.731218 17.852976,25.5 24.6875,25.5 31.522024,25.5 35,26.731218 35,28.25 z"
         inkscape:connector-curvature="0"
         id="path2589"
         style="opacity:0.3;fill:url(#radialGradient3921);fill-opacity:1;fill-rule:nonzero;stroke:none;stroke-width:0.80000001;marker:none;visibility:visible;display:inline;overflow:visible" />
    </g>
    <path
       inkscape:connector-curvature="0"
       style="fill:url(#linearGradient6429);fill-opacity:1;stroke:none;display:inline;enable-background:new"
       d="m 17.505733,19.044176 0,4.92902 c -0.0286,1.26886 -4.61672,1.54994 -4.61672,1.54994 -2.07922,-0.0678 -1.75634,2.05487 0.125,1.97079 l 21.96499,0 c 2.16857,0.1353 1.98793,-2.03522 0,-1.97079 0,0 -4.3306,-0.28108 -4.35914,-1.54994 l 0,-4.92902 z"
       id="path2682-8"
       sodipodi:nodetypes="ccccccccc" />
    <path
       sodipodi:nodetypes="ccccccccc"
       id="path3903"
       d="m 17.505733,19.044176 0,4.92902 c -0.0286,1.26886 -4.61672,1.54994 -4.61672,1.54994 -2.07922,-0.0678 -1.75634,2.05487 0.125,1.97079 l 21.96499,0 c 2.16857,0.1353 1.98793,-2.03522 0,-1.97079 0,0 -4.3306,-0.28108 -4.35914,-1.54994 l 0,-4.92902 z"
       style="opacity:0.61;fill:none;stroke:#000000;stroke-width:1;stroke-linecap:round;stroke-linejoin:round;stroke-miterlimit:4;stroke-opacity:1;stroke-dasharray:none;stroke-dashoffset:0.50000001000000005;display:inline;enable-background:new"
       inkscape:connector-curvature="0" />
    <path
       style="fill:url(#linearGradient3856);fill-opacity:1;stroke:none"
       d="m 2.1888869,20.49988 43.6222261,0 c 0.381647,0 0.688893,-0.297332 0.688893,-0.666664 l 0,-30.666432 c 0,-0.369332 -0.307246,-0.666664 -0.688893,-0.666664 l -43.622226,0 c -0.3816466,0 -0.6888928,0.297332 -0.6888928,0.666664 l 0,30.666432 c 0,0.369332 0.3072462,0.666664 0.6888927,0.666664 z"
       id="rect3854"
       inkscape:connector-curvature="0"
       sodipodi:nodetypes="sssssssss" />
    <path
       style="fill:#2b2b2b;fill-opacity:1;stroke:none"
       d="m 39,19 5,0 0,1.5 -5,0 z"
       id="rect3889"
       inkscape:connector-curvature="0"
       sodipodi:nodetypes="ccccc" />
    <path
       style="fill:url(#linearGradient3811);fill-opacity:1.0;stroke:none"
       d="m 3,-10 42,0 0,27 -42,0 z"
       id="rect2722"
       inkscape:connector-curvature="0"
       sodipodi:nodetypes="ccccc" />
    <path
       style="opacity:0.2;fill:url(#linearGradient3887);fill-opacity:1;stroke:none"
       d="M 3,-10 3,12 45,-5.125 45,-10 z"
       id="rect3872"
       inkscape:connector-curvature="0"
       sodipodi:nodetypes="ccccc" />
    <path
       style="opacity:0.61000001;fill:none;stroke:#000000;stroke-width:1;stroke-linecap:round;stroke-linejoin:round;stroke-miterlimit:4;stroke-opacity:1;stroke-dashoffset:0.50000001"
       d="m 2.1888869,-11.49988 43.6222261,0 c 0.381647,0 0.688893,0.297332 0.688893,0.666664 l 0,30.666431 c 0,0.369332 -0.307246,0.666664 -0.688893,0.666664 l -43.622226,0 c -0.3816466,0 -0.6888928,-0.297332 -0.6888928,-0.666664 l 0,-30.666431 c 0,-0.369332 0.3072462,-0.666664 0.6888927,-0.666664 z"
       id="rect3803"
       inkscape:connector-curvature="0"
       sodipodi:nodetypes="sssssssss" />
    <path
       style="opacity:0.6;fill:#ffffff;fill-opacity:1;stroke:none"
       d="m 3,17 42,0 0,1 -42,0 z"
       id="rect3868"
       inkscape:connector-curvature="0"
       sodipodi:nodetypes="ccccc" />
    <path
       id="path4449"
       d="m 5,17 0,-23.53125 1,0 L 6,17 5,17 z m 2,0 0,-23.53125 1,0 L 8,17 7,17 z m 2,0 0,-23.53125 1,0 L 10,17 9,17 z m 2,0 0,-23.53125 1,0 L 12,17 11,17 z m 2,0 0,-23.53125 1,0 L 14,17 13,17 z m 2,0 0,-23.53125 1,0 L 16,17 15,17 z m 2,0 0,-23.53125 1,0 L 18,17 17,17 z m 2,0 0,-23.53125 1,0 L 20,17 19,17 z m 2,0 0,-23.53125 1,0 L 22,17 21,17 z m 2,0 0,-23.53125 1,0 L 24,17 23,17 z m 2,0 0,-23.53125 1,0 L 26,17 25,17 z m 2,0 0,-23.53125 1,0 L 28,17 27,17 z m 2,0 0,-23.53125 1,0 L 30,17 29,17 z m 2,0 0,-23.53125 1,0 L 32,17 31,17 z m 2,0 0,-23.53125 1,0 L 34,17 33,17 z m 2,0 0,-23.53125 1,0 L 36,17 35,17 z m 2,0 0,-23.53125 1,0 L 38,17 37,17 z m 2,0 0,-23.53125 1,0 L 40,17 39,17 z m 2,0 0,-23.53125 1,0 L 42,17 41,17 z m 2,0 0,-23.53125 1,0 L 44,17 43,17 z"
       style="opacity:0.4;fill:url(#linearGradient4451);fill-opacity:1;stroke:none"
       inkscape:connector-curvature="0" />
    <path
       style="opacity:0.40000000000000002;fill:url(#linearGradient4404);fill-opacity:1;stroke:none"
       d="M 4 7 L 4 30.53125 L 5 30.53125 L 5 7 L 4 7 z M 6 7 L 6 30.53125 L 7 30.53125 L 7 7 L 6 7 z M 8 7 L 8 30.53125 L 9 30.53125 L 9 7 L 8 7 z M 10 7 L 10 30.53125 L 11 30.53125 L 11 7 L 10 7 z M 12 7 L 12 30.53125 L 13 30.53125 L 13 7 L 12 7 z M 14 7 L 14 30.53125 L 15 30.53125 L 15 7 L 14 7 z M 16 7 L 16 30.53125 L 17 30.53125 L 17 7 L 16 7 z M 18 7 L 18 30.53125 L 19 30.53125 L 19 7 L 18 7 z M 20 7 L 20 30.53125 L 21 30.53125 L 21 7 L 20 7 z M 22 7 L 22 30.53125 L 23 30.53125 L 23 7 L 22 7 z M 24 7 L 24 30.53125 L 25 30.53125 L 25 7 L 24 7 z M 26 7 L 26 30.53125 L 27 30.53125 L 27 7 L 26 7 z M 28 7 L 28 30.53125 L 29 30.53125 L 29 7 L 28 7 z M 30 7 L 30 30.53125 L 31 30.53125 L 31 7 L 30 7 z M 32 7 L 32 30.53125 L 33 30.53125 L 33 7 L 32 7 z M 34 7 L 34 30.53125 L 35 30.53125 L 35 7 L 34 7 z M 36 7 L 36 30.53125 L 37 30.53125 L 37 7 L 36 7 z M 38 7 L 38 30.53125 L 39 30.53125 L 39 7 L 38 7 z M 40 7 L 40 30.53125 L 41 30.53125 L 41 7 L 40 7 z M 42 7 L 42 30.53125 L 43 30.53125 L 43 7 L 42 7 z "
       transform="translate(0,-16)"
       id="rect4760" />
    <g
       clip-path="url(#clipPath4298)"
       transform="matrix(1.2924795,0,0,1.2204462,-530.2293,-75.98629)"
       id="g4669"
       style="display:inline;enable-background:new">
      <g
         style="display:inline;enable-background:new"
         id="g4671"
         transform="matrix(0.375,0,0,0.375,297.135,38.375)">
        <path
           transform="translate(0,-4)"
           clip-path="none"
           style="color:#bebebe;fill:url(#linearGradient4683);fill-opacity:1;fill-rule:nonzero;stroke:none;stroke-width:0;marker:none;visibility:visible;display:inline;overflow:visible;enable-background:accumulate"
           d="m 351,43 9,4 37,39 0,-24.333333 C 397.8723,57.444033 402.38518,38.937067 378.33333,43 z"
           id="path4673"
           inkscape:connector-curvature="0"
           sodipodi:nodetypes="cccccc" />
        <path
           transform="translate(0,-4)"
           sodipodi:nodetypes="casscc"
           inkscape:connector-curvature="0"
           id="path4679"
           d="m 351,43 c 0,0 4.92422,1.850473 6,4 2.7267,5.448227 -1,12 -1,18.25 C 356,75.6375 364.3625,84 374.75,84 386,84 388,78 397,86 397,86 367,43 351,43 z"
           style="opacity:0;color:#bebebe;fill:none;stroke:#000000;stroke-width:5.33333349;stroke-linecap:round;stroke-linejoin:round;stroke-miterlimit:4;stroke-opacity:1;stroke-dasharray:none;marker:none;visibility:visible;display:inline;overflow:visible;enable-background:accumulate"
           clip-path="url(#clipPath4172-0-6)" />
      </g>
    </g>
    <g
       style="display:inline;enable-background:new"
       id="g4127"
       transform="matrix(1.2924795,0,0,1.2204462,-530.2293,-74.98629)"
       clip-path="url(#clipPath4298)">
      <g
         transform="matrix(0.375,0,0,0.375,297.135,38.375)"
         id="g4343"
         style="display:inline;enable-background:new">
        <path
           sodipodi:nodetypes="cccccc"
           inkscape:connector-curvature="0"
           id="path4347"
           d="m 351,43 9,4 37,39 0,-24.333333 C 397.8723,57.444033 402.38518,38.937067 378.33333,43 z"
           style="color:#bebebe;fill:url(#linearGradient3534);fill-opacity:1;fill-rule:nonzero;stroke:none;stroke-width:0;marker:none;visibility:visible;display:inline;overflow:visible;enable-background:accumulate"
           clip-path="none"
           transform="translate(0,-4)" />
        <path
           style="opacity:0.10000000000000001;color:#bebebe;fill:none;stroke:#000000;stroke-width:4.24646527;stroke-miterlimit:4;stroke-opacity:1;stroke-dasharray:none;marker:none;visibility:visible;display:inline;overflow:visible;enable-background:accumulate"
           d="m 351,43 c 0,0 4.76696,1.936657 6,4 6.04018,10.107486 3.33333,35.166667 3.33333,35.166667 0,0 27.66667,-7.37868 36.66667,0.62132 C 397,82.787987 367,43 351,43 z"
           id="path4240"
           inkscape:connector-curvature="0"
           sodipodi:nodetypes="caccc"
           transform="translate(0,-4)" />
        <path
           style="opacity:0.2;color:#bebebe;fill:#000000;fill-opacity:1;fill-rule:nonzero;stroke:none;stroke-width:0;marker:none;visibility:visible;display:inline;overflow:visible;enable-background:accumulate"
           d="m 349.84688,42.37378 c 0,0 4.75568,1.872234 6,4 5.8573,10.015876 3.33333,35.166666 3.33333,35.166666 0,0 28.76086,-7.378679 37.76086,0.621321 0,0 -31.09419,-39.787987 -47.09419,-39.787987 z"
           id="path4345"
           inkscape:connector-curvature="0"
           sodipodi:nodetypes="caccc" />
        <path
           clip-path="url(#clipPath4172-0-6)"
           style="opacity:0;color:#bebebe;fill:none;stroke:#000000;stroke-width:5.33333349;stroke-linecap:round;stroke-linejoin:round;stroke-miterlimit:4;stroke-opacity:1;stroke-dasharray:none;marker:none;visibility:visible;display:inline;overflow:visible;enable-background:accumulate"
           d="m 351,43 c 0,0 4.92422,1.850473 6,4 2.7267,5.448227 -1,12 -1,18.25 C 356,75.6375 364.3625,84 374.75,84 386,84 388,78 397,86 397,86 367,43 351,43 z"
           id="path4349"
           inkscape:connector-curvature="0"
           sodipodi:nodetypes="casscc"
           transform="translate(0,-4)" />
        <path
           transform="translate(0,-4)"
           sodipodi:nodetypes="caccc"
           inkscape:connector-curvature="0"
           id="path4351"
           d="m 349.90581,43 c 0,0 4.75568,1.872234 6,4 5.8573,10.015876 3.33333,35.166667 3.33333,35.166667 0,0 28.76086,-7.37868 37.76086,0.62132 C 397,82.787987 365.90581,43 349.90581,43 z"
           style="color:#bebebe;fill:url(#linearGradient3536);fill-opacity:1;fill-rule:nonzero;stroke:none;stroke-width:0;marker:none;visibility:visible;display:inline;overflow:visible;enable-background:accumulate" />
      </g>
    </g>
    <rect
       style="opacity:0.8;fill:#ffffff;fill-opacity:1;stroke:none;display:inline;enable-background:new"
       id="rect2694-8"
       width="23.694887"
       height="0.95649737"
       x="12.152556"
       y="26.043503"
       rx="0.47824869"
       ry="0.47824869" />
    <path
       style="fill:#000000;fill-opacity:1;stroke:none;opacity:0.4"
       d="M 3 6 L 3 33 L 45 33 L 45 6 L 3 6 z M 4 7 L 44 7 L 44 32 L 4 32 L 4 7 z "
       id="path3942"
       transform="translate(0,-16)" />
    <path
       style="opacity:0.1;fill:#ffffff;fill-opacity:1;stroke:none"
       d="M 2.1875,-11 C 2.0655458,-11 2,-10.935783 2,-10.84375 l 0,1 C 2,-9.935783 2.0655458,-10 2.1875,-10 l 43.625,0 C 45.934454,-10 46,-9.935783 46,-9.84375 l 0,-1 C 46,-10.935783 45.934454,-11 45.8125,-11 z"
       id="rect3815"
       inkscape:connector-curvature="0"
       sodipodi:nodetypes="sscsscsss" />
    <path
       style="opacity:0.2;fill:#000000;fill-opacity:1;stroke:none"
       d="m 3,-10 42,0 0,1 -42,0 z"
       id="rect3870"
       inkscape:connector-curvature="0"
       sodipodi:nodetypes="ccccc" />
  </g>
  <g
     inkscape:groupmode="layer"
     id="layer2"
     inkscape:label="Symbol"
     transform="translate(0,16)" />
</svg>
