<?xml version="1.0" encoding="UTF-8" standalone="no"?>
<svg
   xmlns:dc="http://purl.org/dc/elements/1.1/"
   xmlns:cc="http://creativecommons.org/ns#"
   xmlns:rdf="http://www.w3.org/1999/02/22-rdf-syntax-ns#"
   xmlns:svg="http://www.w3.org/2000/svg"
   xmlns="http://www.w3.org/2000/svg"
   xmlns:xlink="http://www.w3.org/1999/xlink"
   id="svg3759"
   height="48"
   width="48"
   version="1.1">
  <metadata
     id="metadata37">
    <rdf:RDF>
      <cc:Work
         rdf:about="">
        <dc:format>image/svg+xml</dc:format>
        <dc:type
           rdf:resource="http://purl.org/dc/dcmitype/StillImage" />
        <dc:title />
      </cc:Work>
    </rdf:RDF>
  </metadata>
  <defs
     id="defs3761">
    <linearGradient
       y2="24"
       x2="43.500004"
       y1="24"
       x1="4.5000033"
       gradientTransform="matrix(0,-1,-1,0,48.000003,48.000003)"
       gradientUnits="userSpaceOnUse"
       id="linearGradient3874"
       xlink:href="#outerBackgroundGradient-0-8" />
    <linearGradient
       id="outerBackgroundGradient-0-8">
      <stop
         id="stop3864-8-6-3-9"
         offset="0"
         style="stop-color:#1c6aba;stop-opacity:1" />
      <stop
         id="stop3866-9-1-7-5"
         offset="1"
         style="stop-color:#4195ec;stop-opacity:1" />
    </linearGradient>
    <linearGradient
       id="linearGradient3904-6">
      <stop
         style="stop-color:#234683;stop-opacity:1;"
         offset="0"
         id="stop3906-8" />
      <stop
         style="stop-color:#30589e;stop-opacity:1;"
         offset="1"
         id="stop3908-2" />
    </linearGradient>
    <linearGradient
       xlink:href="#linearGradient3904-6"
       id="linearGradient3946"
       gradientUnits="userSpaceOnUse"
       gradientTransform="matrix(0,-1,1,0,0,48.000003)"
       x1="4.0000033"
       y1="24"
       x2="44.000004"
       y2="24" />
  </defs>
  <g
     id="layer1">
    <path
       id="path4026"
       d="M 24,5 C 12.960351,5 4,13.96111 4,25 4,36.03985 12.960367,45 24,45 35.040018,45 44,36.03988 44,25 44,13.961083 35.04013,5 24,5 z"
       style="font-size:medium;font-style:normal;font-variant:normal;font-weight:normal;font-stretch:normal;text-indent:0;text-align:start;text-decoration:none;line-height:normal;letter-spacing:normal;word-spacing:normal;text-transform:none;direction:ltr;block-progression:tb;writing-mode:lr-tb;text-anchor:start;baseline-shift:baseline;opacity:0.05000000000000000;color:#000000;fill:#000000;fill-opacity:1;stroke:#000000;stroke-width:2;marker:none;visibility:visible;display:inline;overflow:visible;enable-background:accumulate;font-family:Sans;-inkscape-font-specification:Sans;stroke-opacity:1;stroke-miterlimit:4;stroke-dasharray:none" />
    <path
       style="font-size:medium;font-style:normal;font-variant:normal;font-weight:normal;font-stretch:normal;text-indent:0;text-align:start;text-decoration:none;line-height:normal;letter-spacing:normal;word-spacing:normal;text-transform:none;direction:ltr;block-progression:tb;writing-mode:lr-tb;text-anchor:start;baseline-shift:baseline;opacity:0.1;color:#000000;fill:#000000;fill-opacity:1;stroke:#000000;stroke-width:1;marker:none;visibility:visible;display:inline;overflow:visible;enable-background:accumulate;font-family:Sans;-inkscape-font-specification:Sans;stroke-opacity:1"
       d="M 24,5 C 12.960351,5 4,13.96111 4,25 4,36.03985 12.960367,45 24,45 35.040018,45 44,36.03988 44,25 44,13.961083 35.04013,5 24,5 z"
       id="path4024" />
    <path
       id="path4018"
       d="M 24,5 C 12.960351,5 4,13.96111 4,25 4,36.03985 12.960367,45 24,45 35.040018,45 44,36.03988 44,25 44,13.961083 35.04013,5 24,5 z"
       style="font-size:medium;font-style:normal;font-variant:normal;font-weight:normal;font-stretch:normal;text-indent:0;text-align:start;text-decoration:none;line-height:normal;letter-spacing:normal;word-spacing:normal;text-transform:none;direction:ltr;block-progression:tb;writing-mode:lr-tb;text-anchor:start;baseline-shift:baseline;opacity:0.2;color:#000000;fill:#000000;fill-opacity:1;stroke:none;stroke-width:1;marker:none;visibility:visible;display:inline;overflow:visible;enable-background:accumulate;font-family:Sans;-inkscape-font-specification:Sans" />
    <path
       d="M 4.5000031,23.999309 C 4.5000031,34.769208 13.231094,43.5 23.999758,43.5 c 10.769649,0 19.500245,-8.730891 19.500245,-19.500691 0,-10.769405 -8.730596,-19.4993089 -19.500245,-19.4993089 -10.768664,0 -19.4997549,8.7299039 -19.4997549,19.4993089 l 0,0 z"
       id="path6495"
       style="fill:url(#linearGradient3874);fill-opacity:1.0;fill-rule:nonzero;stroke:none" />
    <path
       id="path3872"
       d="M 24 5 C 13.500552 5 5 13.500823 5 24 C 5 24.169463 5.0268485 24.331605 5.03125 24.5 C 5.299553 14.235412 13.670013 6 24 6 C 34.328993 6 42.700416 14.235427 42.96875 24.5 C 42.973152 24.331604 43 24.169465 43 24 C 43 13.500839 34.498438 5 24 5 z "
       style="fill:#ffffff;fill-opacity:1;fill-rule:nonzero;stroke:none;opacity:0.4" />
    <path
       style="opacity:0.91000001;fill:none;stroke:url(#linearGradient3946);stroke-width:1;stroke-miterlimit:4;stroke-opacity:1;stroke-dasharray:none"
       id="path3796"
       d="M 23.999309,4.5 C 34.769208,4.5 43.5,13.231091 43.5,23.999755 43.5,34.769404 34.769109,43.5 23.999309,43.5 13.229903,43.5 4.5,34.769404 4.5,23.999755 4.5,13.231091 13.229903,4.5 23.999309,4.5 l 0,0 z" />
    <path
       style="opacity:0.1;fill:#ffffff;fill-opacity:1;fill-rule:nonzero;stroke:none"
       d="M 24,43 C 13.500552,43 5,34.499177 5,24 5,23.830537 5.0268485,23.668395 5.03125,23.5 5.299553,33.764588 13.670013,42 24,42 34.328993,42 42.700416,33.764573 42.96875,23.5 42.973152,23.668396 43,23.830535 43,24 43,34.499161 34.498438,43 24,43 z"
       id="path3366" />
  </g>
  <g
     id="layer2">
    <path
       style="opacity:0.3;color:#bebebe;fill:#000000;fill-opacity:1;fill-rule:nonzero;stroke:none;stroke-width:0.5;marker:none;visibility:visible;display:inline;overflow:visible;enable-background:accumulate"
       d="m 24.037483,12 c -1.63115,0 -2.95347,1.322313 -2.95347,2.953468 0,1.631155 1.32232,2.953467 2.95347,2.953467 1.63116,0 2.95346,-1.322312 2.95346,-2.953467 C 26.990943,13.322313 25.668643,12 24.037483,12 z m -10.81708,6.608385 c -0.64156,0.141336 -0.66808,1.257495 -0.0369,1.439816 l 0.0738,0.07384 0.14767,0 c 0,0 5.26445,0.686572 7.08832,2.510447 1.18139,1.181386 0.38843,3.875327 0,5.906935 -0.55697,2.913185 -2.84271,8.417383 -2.84271,8.417383 l -0.0368,0.147673 c -0.21571,0.689059 0.95817,1.247106 1.32906,0.627612 l 0.0738,-0.147674 c 0,0 3.83951,-9.044994 5.0209,-9.044994 1.18138,0 5.02089,9.044994 5.02089,9.044994 l 0.0738,0.147674 c 0.37089,0.619494 1.54477,0.0614 1.32906,-0.627612 l -0.0368,-0.147673 c 0,0 -2.28574,-5.5042 -2.84271,-8.417383 -0.38843,-2.031608 -1.18139,-4.725549 0,-5.906935 1.82387,-1.823875 7.08833,-2.510447 7.08833,-2.510447 l 0.14766,0 0.0738,-0.07384 c 0.68068,-0.240868 0.38587,-1.514808 -0.33226,-1.439816 0,0 -6.97758,1.64765 -10.52172,1.624407 -3.54419,0.02324 -10.48482,-1.624407 -10.48482,-1.624407 -0.10686,-0.02401 -0.22531,-0.02401 -0.33226,0 z"
       id="path4025" />
    <path
       id="path7088"
       d="m 24.037486,11 c -1.63115,0 -2.95347,1.322312 -2.95347,2.953467 0,1.631155 1.32232,2.953467 2.95347,2.953467 1.63116,0 2.95346,-1.322312 2.95346,-2.953467 C 26.990946,12.322312 25.668646,11 24.037486,11 z m -10.81708,6.608384 c -0.64156,0.141336 -0.66808,1.257495 -0.0369,1.439816 l 0.0738,0.07384 0.14767,0 c 0,0 5.26445,0.686572 7.08832,2.510447 1.18139,1.181386 0.38843,3.875327 0,5.906935 -0.55697,2.913185 -2.84271,8.417383 -2.84271,8.417383 l -0.0368,0.147673 c -0.21571,0.689059 0.95817,1.247106 1.32906,0.627612 l 0.0738,-0.147674 c 0,0 3.83951,-9.044994 5.0209,-9.044994 1.18138,0 5.02089,9.044994 5.02089,9.044994 l 0.0738,0.147674 c 0.37089,0.619494 1.54477,0.0614 1.32906,-0.627612 l -0.0368,-0.147673 c 0,0 -2.28574,-5.5042 -2.84271,-8.417383 -0.38843,-2.031608 -1.18139,-4.725549 0,-5.906935 1.82387,-1.823875 7.08833,-2.510447 7.08833,-2.510447 l 0.14766,0 0.0738,-0.07384 c 0.68068,-0.240868 0.38587,-1.514808 -0.33226,-1.439816 0,0 -6.97758,1.64765 -10.52172,1.624407 -3.54419,0.02324 -10.48482,-1.624407 -10.48482,-1.624407 -0.10686,-0.02401 -0.22531,-0.02401 -0.33226,0 z"
       style="color:#bebebe;fill:#ffffff;fill-opacity:1;fill-rule:nonzero;stroke:none;stroke-width:0.5;marker:none;visibility:visible;display:inline;overflow:visible;enable-background:accumulate" />
  </g>
</svg>
