<?xml version="1.0" encoding="UTF-8" standalone="no"?>
<!-- Created with Inkscape (http://www.inkscape.org/) -->

<svg
   xmlns:dc="http://purl.org/dc/elements/1.1/"
   xmlns:cc="http://creativecommons.org/ns#"
   xmlns:rdf="http://www.w3.org/1999/02/22-rdf-syntax-ns#"
   xmlns:svg="http://www.w3.org/2000/svg"
   xmlns="http://www.w3.org/2000/svg"
   xmlns:xlink="http://www.w3.org/1999/xlink"
   xmlns:sodipodi="http://sodipodi.sourceforge.net/DTD/sodipodi-0.dtd"
   xmlns:inkscape="http://www.inkscape.org/namespaces/inkscape"
   version="1.1"
   width="48"
   height="48"
   id="svg3759"
   inkscape:version="0.48.4 r9939"
   sodipodi:docname="preferences-desktop.svg">
  <sodipodi:namedview
     pagecolor="#ffffff"
     bordercolor="#666666"
     borderopacity="1"
     objecttolerance="10"
     gridtolerance="10"
     guidetolerance="10"
     inkscape:pageopacity="0"
     inkscape:pageshadow="2"
     inkscape:window-width="1364"
     inkscape:window-height="700"
     id="namedview36"
     showgrid="false"
     showborder="false"
     inkscape:zoom="1"
     inkscape:cx="16.69712"
     inkscape:cy="19.89691"
     inkscape:window-x="0"
     inkscape:window-y="28"
     inkscape:window-maximized="1"
     inkscape:current-layer="layer2"
     inkscape:snap-bbox="true"
     inkscape:bbox-paths="true"
     inkscape:bbox-nodes="true"
     inkscape:snap-bbox-edge-midpoints="true"
     inkscape:snap-bbox-midpoints="true">
    <inkscape:grid
       type="xygrid"
       id="grid3818"
       empspacing="4"
       visible="true"
       enabled="true"
       snapvisiblegridlinesonly="true" />
  </sodipodi:namedview>
  <metadata
     id="metadata37">
    <rdf:RDF>
      <cc:Work
         rdf:about="">
        <dc:format>image/svg+xml</dc:format>
        <dc:type
           rdf:resource="http://purl.org/dc/dcmitype/StillImage" />
        <dc:title />
      </cc:Work>
    </rdf:RDF>
  </metadata>
  <defs
     id="defs3761">
    <linearGradient
       id="linearGradient4055">
      <stop
         id="stop4057"
         offset="0"
         style="stop-color:#000000;stop-opacity:0.49803922;" />
      <stop
         style="stop-color:#000000;stop-opacity:1;"
         offset="0.5"
         id="stop4059" />
      <stop
         id="stop4061"
         offset="0.5"
         style="stop-color:#000000;stop-opacity:0.49803922;" />
      <stop
         id="stop4063"
         offset="1"
         style="stop-color:#000000;stop-opacity:1;" />
    </linearGradient>
    <linearGradient
       id="linearGradient4037">
      <stop
         id="stop4039"
         offset="0"
         style="stop-color:#dddddd;stop-opacity:1;" />
      <stop
         style="stop-color:#f2f2f2;stop-opacity:1;"
         offset="0.5"
         id="stop4041" />
      <stop
         id="stop4043"
         offset="0.5"
         style="stop-color:#f2f2f2;stop-opacity:1" />
      <stop
         id="stop4045"
         offset="1"
         style="stop-color:#f2f2f2;stop-opacity:1" />
    </linearGradient>
    <linearGradient
       id="linearGradient4012">
      <stop
         id="stop4014"
         style="stop-color:#acacac;stop-opacity:1"
         offset="0" />
      <stop
         id="stop4016"
         style="stop-color:#bbbbbb;stop-opacity:1"
         offset="1" />
    </linearGradient>
    <linearGradient
       id="linearGradient4566">
      <stop
         id="stop4568"
         offset="0"
         style="stop-color:#3f3f3f;stop-opacity:1;" />
      <stop
         id="stop4570"
         offset="1"
         style="stop-color:#625c5c;stop-opacity:1;" />
    </linearGradient>
    <linearGradient
       inkscape:collect="always"
       id="linearGradient4149">
      <stop
         style="stop-color:#ffffff;stop-opacity:1;"
         offset="0"
         id="stop4151" />
      <stop
         style="stop-color:#ffffff;stop-opacity:0;"
         offset="1"
         id="stop4153" />
    </linearGradient>
    <linearGradient
       id="linearGradient4127">
      <stop
         id="stop4129"
         offset="0"
         style="stop-color:#8f2b12;stop-opacity:1;" />
      <stop
         id="stop4131"
         offset="1"
         style="stop-color:#82461a;stop-opacity:1;" />
    </linearGradient>
    <linearGradient
       inkscape:collect="always"
       xlink:href="#linearGradient4134"
       id="linearGradient4140"
       x1="789"
       y1="256"
       x2="827"
       y2="256"
       gradientUnits="userSpaceOnUse" />
    <linearGradient
       inkscape:collect="always"
       id="linearGradient4134">
      <stop
         style="stop-color:#ffffff;stop-opacity:1;"
         offset="0"
         id="stop4136" />
      <stop
         style="stop-color:#ffffff;stop-opacity:0;"
         offset="1"
         id="stop4138" />
    </linearGradient>
    <clipPath
       clipPathUnits="userSpaceOnUse"
       id="clipPath4130">
      <path
         id="path4132"
         d="M 790.4375,237 C 789.62555,237 789,237.62555 789,238.4375 l 0,35.09375 c 0,0.812 0.62555,1.46875 1.4375,1.46875 l 35.125,0 c 0.81195,0 1.4375,-0.65675 1.4375,-1.46875 l 0,-35.09375 C 827,237.62555 826.37445,237 825.5625,237 l -35.125,0 z"
         style="fill:#ba2222;fill-opacity:1;stroke:none"
         inkscape:connector-curvature="0" />
    </clipPath>
    <linearGradient
       inkscape:collect="always"
       xlink:href="#linearGradient5618"
       id="linearGradient4083"
       x1="-1023.8622"
       y1="-808"
       x2="-984.86218"
       y2="-808"
       gradientUnits="userSpaceOnUse"
       gradientTransform="translate(980.3622,784)" />
    <linearGradient
       id="linearGradient5618">
      <stop
         style="stop-color:#3e3e3e;stop-opacity:1;"
         offset="0"
         id="stop5620" />
      <stop
         style="stop-color:#595959;stop-opacity:1;"
         offset="1"
         id="stop5622" />
    </linearGradient>
    <linearGradient
       inkscape:collect="always"
       xlink:href="#linearGradient3934"
       id="linearGradient3998"
       gradientUnits="userSpaceOnUse"
       gradientTransform="matrix(0,-1,1,0,68,556)"
       x1="292"
       y1="244"
       x2="332"
       y2="244" />
    <linearGradient
       id="linearGradient3934">
      <stop
         style="stop-color:#dd2f03;stop-opacity:1;"
         offset="0"
         id="stop3936" />
      <stop
         style="stop-color:#e96300;stop-opacity:1;"
         offset="1"
         id="stop3938" />
    </linearGradient>
    <linearGradient
       y2="244"
       x2="332"
       y1="244"
       x1="292"
       gradientTransform="matrix(0,-1,1,0,65,302)"
       gradientUnits="userSpaceOnUse"
       id="linearGradient3177"
       xlink:href="#linearGradient3934"
       inkscape:collect="always" />
    <linearGradient
       inkscape:collect="always"
       xlink:href="#linearGradient3934"
       id="linearGradient4117"
       gradientUnits="userSpaceOnUse"
       gradientTransform="translate(980.3622,784)"
       x1="-1023.8622"
       y1="-808"
       x2="-984.86218"
       y2="-808" />
    <linearGradient
       inkscape:collect="always"
       xlink:href="#linearGradient4149"
       id="linearGradient4155"
       x1="24"
       y1="43.5"
       x2="37"
       y2="23.375"
       gradientUnits="userSpaceOnUse" />
    <linearGradient
       inkscape:collect="always"
       xlink:href="#outerBackgroundGradient-0"
       id="linearGradient3998-0"
       gradientUnits="userSpaceOnUse"
       gradientTransform="matrix(0,-1,1,0,68,556)"
       x1="292"
       y1="244"
       x2="332"
       y2="244" />
    <linearGradient
       id="outerBackgroundGradient-0">
      <stop
         style="stop-color:#dddddd;stop-opacity:1;"
         offset="0"
         id="stop3864-8-6-9" />
      <stop
         id="stop4033"
         offset="0.5"
         style="stop-color:#f2f2f2;stop-opacity:1;" />
      <stop
         style="stop-color:#dddddd;stop-opacity:1;"
         offset="0.5"
         id="stop4035" />
      <stop
         style="stop-color:#f2f2f2;stop-opacity:1;"
         offset="1"
         id="stop3866-9-1-5" />
    </linearGradient>
    <linearGradient
       inkscape:collect="always"
       xlink:href="#linearGradient4100"
       id="linearGradient4898"
       gradientUnits="userSpaceOnUse"
       x1="328"
       y1="235"
       x2="328"
       y2="277"
       gradientTransform="translate(-3.5,-3.5)" />
    <linearGradient
       id="linearGradient4100">
      <stop
         id="stop4102"
         offset="0"
         style="stop-color:#aaaaaa;stop-opacity:1;" />
      <stop
         id="stop4104"
         offset="1"
         style="stop-color:#767676;stop-opacity:1;" />
    </linearGradient>
    <linearGradient
       inkscape:collect="always"
       xlink:href="#linearGradient4084"
       id="linearGradient4900"
       gradientUnits="userSpaceOnUse"
       x1="324"
       y1="231"
       x2="324"
       y2="273"
       gradientTransform="translate(-3.5,-3.5)" />
    <linearGradient
       id="linearGradient4084">
      <stop
         style="stop-color:#cd5fc2;stop-opacity:1;"
         offset="0"
         id="stop4086" />
      <stop
         style="stop-color:#9a4993;stop-opacity:1;"
         offset="1"
         id="stop4088" />
    </linearGradient>
    <linearGradient
       inkscape:collect="always"
       xlink:href="#linearGradient3413"
       id="linearGradient4902"
       gradientUnits="userSpaceOnUse"
       x1="328"
       y1="273"
       x2="328"
       y2="231"
       gradientTransform="translate(-3.5,-3.5)" />
    <linearGradient
       id="outerBackgroundGradient-7">
      <stop
         style="stop-color:#717171;stop-opacity:1;"
         offset="0"
         id="stop3864-8-6-3" />
      <stop
         style="stop-color:#848484;stop-opacity:1;"
         offset="1"
         id="stop3866-9-1-2" />
    </linearGradient>
    <linearGradient
       inkscape:collect="always"
       xlink:href="#linearGradient3413"
       id="linearGradient4904"
       gradientUnits="userSpaceOnUse"
       x1="336"
       y1="273"
       x2="336"
       y2="231"
       gradientTransform="translate(-3.5,-3.5)" />
    <linearGradient
       id="linearGradient3413">
      <stop
         style="stop-color:#dddddd;stop-opacity:1;"
         offset="0"
         id="stop3415" />
      <stop
         style="stop-color:#f2f2f2;stop-opacity:1;"
         offset="1"
         id="stop3417" />
    </linearGradient>
    <clipPath
       clipPathUnits="userSpaceOnUse"
       id="clipPath4068">
      <rect
         ry="4.5"
         y="259"
         x="316"
         height="9"
         width="24"
         id="rect4070"
         style="color:#bebebe;fill:#525252;fill-opacity:1;fill-rule:nonzero;stroke:none;stroke-width:1;marker:none;visibility:visible;display:inline;overflow:visible;enable-background:accumulate" />
    </clipPath>
    <clipPath
       clipPathUnits="userSpaceOnUse"
       id="clipPath4060">
      <rect
         style="color:#bebebe;fill:#525252;fill-opacity:1;fill-rule:nonzero;stroke:none;stroke-width:1;marker:none;visibility:visible;display:inline;overflow:visible;enable-background:accumulate"
         id="rect4062"
         width="24"
         height="9"
         x="316"
         y="240"
         ry="4.5" />
    </clipPath>
    <clipPath
       clipPathUnits="userSpaceOnUse"
       id="clipPath3423">
      <rect
         style="color:#bebebe;fill:#525252;fill-opacity:1;fill-rule:nonzero;stroke:none;stroke-width:1;marker:none;visibility:visible;display:inline;overflow:visible;enable-background:accumulate"
         id="rect3425"
         width="24"
         height="9"
         x="316"
         y="240"
         ry="4.5" />
    </clipPath>
    <clipPath
       clipPathUnits="userSpaceOnUse"
       id="clipPath3427">
      <rect
         ry="4.5"
         y="259"
         x="316"
         height="9"
         width="24"
         id="rect3429"
         style="color:#bebebe;fill:#525252;fill-opacity:1;fill-rule:nonzero;stroke:none;stroke-width:1;marker:none;visibility:visible;display:inline;overflow:visible;enable-background:accumulate" />
    </clipPath>
    <clipPath
       clipPathUnits="userSpaceOnUse"
       id="clipPath3431">
      <rect
         ry="4.5"
         y="259"
         x="316"
         height="9"
         width="24"
         id="rect3433"
         style="color:#bebebe;fill:#525252;fill-opacity:1;fill-rule:nonzero;stroke:none;stroke-width:1;marker:none;visibility:visible;display:inline;overflow:visible;enable-background:accumulate" />
    </clipPath>
    <clipPath
       clipPathUnits="userSpaceOnUse"
       id="clipPath3435">
      <rect
         style="color:#bebebe;fill:#525252;fill-opacity:1;fill-rule:nonzero;stroke:none;stroke-width:1;marker:none;visibility:visible;display:inline;overflow:visible;enable-background:accumulate"
         id="rect3437"
         width="24"
         height="9"
         x="316"
         y="240"
         ry="4.5" />
    </clipPath>
    <clipPath
       clipPathUnits="userSpaceOnUse"
       id="clipPath3439">
      <rect
         style="color:#bebebe;fill:#525252;fill-opacity:1;fill-rule:nonzero;stroke:none;stroke-width:1;marker:none;visibility:visible;display:inline;overflow:visible;enable-background:accumulate"
         id="rect3441"
         width="24"
         height="9"
         x="316"
         y="240"
         ry="4.5" />
    </clipPath>
    <clipPath
       clipPathUnits="userSpaceOnUse"
       id="clipPath3443">
      <rect
         ry="4.5"
         y="259"
         x="316"
         height="9"
         width="24"
         id="rect3445"
         style="color:#bebebe;fill:#525252;fill-opacity:1;fill-rule:nonzero;stroke:none;stroke-width:1;marker:none;visibility:visible;display:inline;overflow:visible;enable-background:accumulate" />
    </clipPath>
    <linearGradient
       y2="244"
       x2="332"
       y1="244"
       x1="292"
       gradientTransform="matrix(0,-1,1,0,-223.5,332.5)"
       gradientUnits="userSpaceOnUse"
       id="linearGradient3470"
       xlink:href="#outerBackgroundGradient-0"
       inkscape:collect="always" />
    <linearGradient
       inkscape:collect="always"
       xlink:href="#linearGradient3413"
       id="linearGradient4564"
       gradientUnits="userSpaceOnUse"
       gradientTransform="translate(980.3622,784)"
       x1="-1023.8622"
       y1="-808"
       x2="-984.86218"
       y2="-808" />
    <linearGradient
       inkscape:collect="always"
       xlink:href="#linearGradient4100"
       id="linearGradient4629"
       gradientUnits="userSpaceOnUse"
       gradientTransform="translate(-3.5,-3.5)"
       x1="328"
       y1="235"
       x2="328"
       y2="277" />
    <linearGradient
       inkscape:collect="always"
       xlink:href="#linearGradient4084"
       id="linearGradient4631"
       gradientUnits="userSpaceOnUse"
       gradientTransform="translate(-3.5,-3.5)"
       x1="324"
       y1="231"
       x2="324"
       y2="273" />
    <linearGradient
       inkscape:collect="always"
       xlink:href="#linearGradient3413"
       id="linearGradient4633"
       gradientUnits="userSpaceOnUse"
       gradientTransform="translate(-3.5,-3.5)"
       x1="328"
       y1="273"
       x2="328"
       y2="231" />
    <linearGradient
       inkscape:collect="always"
       xlink:href="#linearGradient3413"
       id="linearGradient4635"
       gradientUnits="userSpaceOnUse"
       gradientTransform="translate(-3.5,-3.5)"
       x1="336"
       y1="273"
       x2="336"
       y2="231" />
    <linearGradient
       inkscape:collect="always"
       xlink:href="#linearGradient3413"
       id="linearGradient4642"
       gradientUnits="userSpaceOnUse"
       gradientTransform="translate(-307.5,-231.5)"
       x1="336"
       y1="273"
       x2="336"
       y2="231" />
    <linearGradient
       inkscape:collect="always"
       xlink:href="#linearGradient4100"
       id="linearGradient4669"
       gradientUnits="userSpaceOnUse"
       gradientTransform="translate(-307.5,-235.5)"
       x1="328"
       y1="235"
       x2="328"
       y2="277" />
    <linearGradient
       inkscape:collect="always"
       xlink:href="#linearGradient3413"
       id="linearGradient3877"
       gradientUnits="userSpaceOnUse"
       gradientTransform="matrix(0,-1,-1,0,-784,-980.3622)"
       x1="-1023.8622"
       y1="-808"
       x2="-984.86218"
       y2="-808" />
    <radialGradient
       inkscape:collect="always"
       xlink:href="#linearGradient3952"
       id="radialGradient4205"
       gradientUnits="userSpaceOnUse"
       gradientTransform="matrix(1.0571429,0,0,1.25,0.6,-10.875)"
       cx="40"
       cy="43.5"
       fx="40"
       fy="43.5"
       r="2" />
    <linearGradient
       inkscape:collect="always"
       id="linearGradient3952">
      <stop
         style="stop-color:#000000;stop-opacity:1;"
         offset="0"
         id="stop3954" />
      <stop
         style="stop-color:#000000;stop-opacity:0;"
         offset="1"
         id="stop3956" />
    </linearGradient>
    <radialGradient
       inkscape:collect="always"
       xlink:href="#linearGradient3952"
       id="radialGradient4214"
       gradientUnits="userSpaceOnUse"
       gradientTransform="matrix(1,0,0,0.75,2,10.875)"
       cx="40"
       cy="43.5"
       fx="40"
       fy="43.5"
       r="2" />
    <radialGradient
       inkscape:collect="always"
       xlink:href="#linearGradient3944"
       id="radialGradient4202"
       gradientUnits="userSpaceOnUse"
       gradientTransform="matrix(1.0571429,0,0,1.25,-4.4000003,-10.875)"
       cx="9"
       cy="43.5"
       fx="9"
       fy="43.5"
       r="2" />
    <linearGradient
       inkscape:collect="always"
       id="linearGradient3944">
      <stop
         style="stop-color:#000000;stop-opacity:1;"
         offset="0"
         id="stop3946" />
      <stop
         style="stop-color:#000000;stop-opacity:0;"
         offset="1"
         id="stop3948" />
    </linearGradient>
    <radialGradient
       inkscape:collect="always"
       xlink:href="#linearGradient3944"
       id="radialGradient4211"
       gradientUnits="userSpaceOnUse"
       gradientTransform="matrix(1,0,0,0.75,-3.0000003,10.875)"
       cx="9"
       cy="43.5"
       fx="9"
       fy="43.5"
       r="2" />
    <linearGradient
       inkscape:collect="always"
       xlink:href="#linearGradient3960"
       id="linearGradient4208"
       gradientUnits="userSpaceOnUse"
       x1="25"
       y1="45"
       x2="25"
       y2="42"
       gradientTransform="matrix(1.0571429,0,0,1.6666667,-5.4000003,-29)" />
    <linearGradient
       id="linearGradient3960">
      <stop
         style="stop-color:#000000;stop-opacity:0;"
         offset="0"
         id="stop3962" />
      <stop
         id="stop3970"
         offset="0.5"
         style="stop-color:#000000;stop-opacity:1;" />
      <stop
         style="stop-color:#000000;stop-opacity:0;"
         offset="1"
         id="stop3964" />
    </linearGradient>
    <linearGradient
       inkscape:collect="always"
       xlink:href="#linearGradient3960"
       id="linearGradient4217"
       gradientUnits="userSpaceOnUse"
       x1="25"
       y1="45"
       x2="25"
       y2="42"
       gradientTransform="translate(-4.0000003,0)" />
    <linearGradient
       id="linearGradient3157">
      <stop
         style="stop-color:#000000;stop-opacity:0;"
         offset="0"
         id="stop3159" />
      <stop
         id="stop3161"
         offset="0.5"
         style="stop-color:#000000;stop-opacity:1;" />
      <stop
         style="stop-color:#000000;stop-opacity:0;"
         offset="1"
         id="stop3163" />
    </linearGradient>
    <linearGradient
       y2="42"
       x2="25"
       y1="45"
       x1="25"
       gradientTransform="translate(-4.0000003,0)"
       gradientUnits="userSpaceOnUse"
       id="linearGradient3172"
       xlink:href="#linearGradient3960"
       inkscape:collect="always" />
    <radialGradient
       inkscape:collect="always"
       xlink:href="#linearGradient3952"
       id="radialGradient5379"
       gradientUnits="userSpaceOnUse"
       gradientTransform="matrix(1.0571429,0,0,1.25,0.6,-10.875)"
       cx="40"
       cy="43.5"
       fx="40"
       fy="43.5"
       r="2" />
    <radialGradient
       inkscape:collect="always"
       xlink:href="#linearGradient3952"
       id="radialGradient5381"
       gradientUnits="userSpaceOnUse"
       gradientTransform="matrix(1,0,0,0.75,2,10.875)"
       cx="40"
       cy="43.5"
       fx="40"
       fy="43.5"
       r="2" />
    <radialGradient
       inkscape:collect="always"
       xlink:href="#linearGradient3944"
       id="radialGradient5383"
       gradientUnits="userSpaceOnUse"
       gradientTransform="matrix(1.0571429,0,0,1.25,-4.4000003,-10.875)"
       cx="9"
       cy="43.5"
       fx="9"
       fy="43.5"
       r="2" />
    <radialGradient
       inkscape:collect="always"
       xlink:href="#linearGradient3944"
       id="radialGradient5385"
       gradientUnits="userSpaceOnUse"
       gradientTransform="matrix(1,0,0,0.75,-3.0000003,10.875)"
       cx="9"
       cy="43.5"
       fx="9"
       fy="43.5"
       r="2" />
    <linearGradient
       inkscape:collect="always"
       xlink:href="#linearGradient3960"
       id="linearGradient5387"
       gradientUnits="userSpaceOnUse"
       gradientTransform="matrix(1.0571429,0,0,1.6666667,-5.4000003,-29)"
       x1="25"
       y1="45"
       x2="25"
       y2="42" />
    <linearGradient
       inkscape:collect="always"
       xlink:href="#linearGradient3960"
       id="linearGradient5389"
       gradientUnits="userSpaceOnUse"
       gradientTransform="translate(-4.0000003,0)"
       x1="25"
       y1="45"
       x2="25"
       y2="42" />
    <linearGradient
       y2="656.00787"
       x2="634.26544"
       y1="631.87756"
       x1="634.26544"
       gradientTransform="matrix(3.5286917,0,0,0.97190815,-2084.9724,-706.89903)"
       gradientUnits="userSpaceOnUse"
       id="linearGradient4290"
       xlink:href="#linearGradient27416-1-72-0"
       inkscape:collect="always" />
    <linearGradient
       id="linearGradient27416-1-72-0">
      <stop
         offset="0"
         style="stop-color:#cfcfcf;stop-opacity:1;"
         id="stop27420-2-84-8" />
      <stop
         offset="1"
         style="stop-color:#e1e1e1;stop-opacity:1;"
         id="stop27422-3-5-1" />
    </linearGradient>
    <linearGradient
       inkscape:collect="always"
       xlink:href="#linearGradient4012"
       id="linearGradient3991"
       gradientUnits="userSpaceOnUse"
       gradientTransform="translate(-307.5,-235.5)"
       x1="327.5"
       y1="262.5"
       x2="327.5"
       y2="271.5" />
    <linearGradient
       y2="656.00787"
       x2="634.26544"
       y1="631.87756"
       x1="634.26544"
       gradientTransform="matrix(3.5286917,0,0,0.97190815,-2260.9725,-614.89924)"
       gradientUnits="userSpaceOnUse"
       id="linearGradient4364"
       xlink:href="#linearGradient27416-1-72"
       inkscape:collect="always" />
    <linearGradient
       id="linearGradient27416-1-72">
      <stop
         offset="0"
         style="stop-color:#c881d3;stop-opacity:1;"
         id="stop27420-2-84" />
      <stop
         offset="1"
         style="stop-color:#a348b1;stop-opacity:1;"
         id="stop27422-3-5" />
    </linearGradient>
    <clipPath
       clipPathUnits="userSpaceOnUse"
       id="clipPath4027">
      <path
         id="path4029"
         d="m 16.5,12 c -2.493,0 -4.5,2.007 -4.5,4.5 0,2.493 2.007,4.5 4.5,4.5 l 15,0 C 33.993,21 36,18.993 36,16.5 36,14.007 33.993,12 31.5,12 l -15,0 z m 0,15 c -2.493,0 -4.5,2.007 -4.5,4.5 0,2.493 2.007,4.5 4.5,4.5 l 15,0 C 33.993,36 36,33.993 36,31.5 36,29.007 33.993,27 31.5,27 l -15,0 z"
         style="color:#bebebe;fill:#bbbbbb;fill-opacity:1;fill-rule:nonzero;stroke:none;stroke-width:2;marker:none;visibility:visible;display:inline;overflow:visible;enable-background:accumulate"
         inkscape:connector-curvature="0" />
    </clipPath>
    <linearGradient
       inkscape:collect="always"
       xlink:href="#linearGradient4055"
       id="linearGradient4053"
       x1="25"
       y1="39"
       x2="25"
       y2="9"
       gradientUnits="userSpaceOnUse" />
    <linearGradient
       inkscape:collect="always"
       xlink:href="#outerBackgroundGradient-0"
       id="linearGradient4646-8"
       gradientUnits="userSpaceOnUse"
       gradientTransform="translate(-307.5,-231.5)"
       x1="327.5"
       y1="268.5"
       x2="327.5"
       y2="241.5" />
    <linearGradient
       id="linearGradient3413-6">
      <stop
         style="stop-color:#dddddd;stop-opacity:1;"
         offset="0"
         id="stop3415-9" />
      <stop
         style="stop-color:#f2f2f2;stop-opacity:1;"
         offset="1"
         id="stop3417-9" />
    </linearGradient>
    <linearGradient
       inkscape:collect="always"
       xlink:href="#linearGradient27416-1-72"
       id="linearGradient4104"
       gradientUnits="userSpaceOnUse"
       gradientTransform="translate(-307.5,-231.5)"
       x1="327.5"
       y1="243.5"
       x2="327.5"
       y2="253.125" />
  </defs>
  <g
     inkscape:groupmode="layer"
     id="layer1"
     inkscape:label="Background">
    <g
       id="g3111">
      <path
         style="opacity:0.12000002;fill:url(#radialGradient5379);fill-opacity:1;stroke:none"
         d="m 42.885716,41.000001 0,5 0.528571,0 c 0.878486,0 1.585715,-1.115 1.585715,-2.5 0,-1.385 -0.707229,-2.5 -1.585715,-2.5 l -0.528571,0 z"
         id="path3987"
         inkscape:connector-curvature="0" />
      <path
         inkscape:connector-curvature="0"
         id="rect3940"
         d="m 42,42 0,3 0.5,0 C 43.331,45 44,44.331 44,43.5 44,42.669 43.331,42 42.5,42 L 42,42 z"
         style="opacity:0.12000002;fill:url(#radialGradient5381);fill-opacity:1;stroke:none" />
      <path
         style="opacity:0.12000002;fill:url(#radialGradient5383);fill-opacity:1;stroke:none"
         d="M 4.4866072,41.000001 C 3.6630268,41.000001 3,42.045313 3,43.343751 l 0,0.3125 c 0,1.298439 0.6630268,2.34375 1.4866072,2.34375 l 0.6276786,0 0,-5 -0.6276786,0 z"
         id="path3989"
         inkscape:connector-curvature="0" />
      <path
         inkscape:connector-curvature="0"
         id="rect3942"
         d="m 5.4062497,42 c -0.7790625,0 -1.40625,0.627187 -1.40625,1.40625 l 0,0.1875 c 0,0.779063 0.6271875,1.40625 1.40625,1.40625 l 0.59375,0 0,-3 -0.59375,0 z"
         style="opacity:0.12000002;fill:url(#radialGradient5385);fill-opacity:1;stroke:none" />
      <path
         sodipodi:nodetypes="ccccc"
         inkscape:connector-curvature="0"
         id="rect3985"
         d="m 5.1141432,41 37.7717148,0 0,5 -37.7717148,0 z"
         style="opacity:0.12000002;fill:url(#linearGradient5387);fill-opacity:1;stroke:none" />
      <path
         sodipodi:nodetypes="ccccc"
         inkscape:connector-curvature="0"
         id="rect3938"
         d="m 5.9998568,42 36.0002842,0 0,3 -36.0002842,0 z"
         style="opacity:0.12000002;fill:url(#linearGradient5389);fill-opacity:1;stroke:none" />
    </g>
    <path
       style="fill:url(#linearGradient3877);fill-opacity:1;stroke:none;display:inline"
       d="M 6.4375 5 C 5.625551 5 5 5.6255532 5 6.4375 L 5 41.5625 C 5 42.374447 5.625551 43 6.4375 43 L 41.5625 43 C 42.374449 43 43 42.374447 43 41.5625 L 43 6.4375 C 43 5.6255532 42.374449 5 41.5625 5 L 6.4375 5 z "
       id="rect4073" />
    <rect
       style="opacity:0.41;fill:none;stroke:#000000;stroke-opacity:1;display:inline"
       id="rect4085"
       width="39"
       height="39"
       x="-43.5"
       y="-43.5"
       transform="matrix(0,-1,-1,0,0,0)"
       ry="1.95"
       rx="1.9499974" />
    <path
       inkscape:connector-curvature="0"
       style="opacity:0.14999999999999999;fill:#ffffff;fill-opacity:1;stroke:none;display:inline"
       d="M 6.4375,5.00002 C 5.62555,5.00002 5,5.62557 5,6.43752 l 0,1 C 5,6.62557 5.62555,6.00002 6.4375,6.00002 l 35.125,0 c 0.81195,0 1.4375,0.62555 1.4375,1.4375 l 0,-1 c 0,-0.81195 -0.62555,-1.4375 -1.4375,-1.4375 l -35.125,0 z"
       id="rect4089-4" />
    <path
       transform="matrix(0,1,-1,0,280,-784)"
       style="opacity:0.1;fill:none;stroke:url(#linearGradient4140);stroke-width:2;stroke-miterlimit:4;stroke-opacity:1;stroke-dasharray:none;display:inline"
       d="M 790.4375,237 C 789.62555,237 789,237.62555 789,238.4375 l 0,35.09375 c 0,0.812 0.62555,1.46875 1.4375,1.46875 l 35.125,0 c 0.81195,0 1.4375,-0.65675 1.4375,-1.46875 l 0,-35.09375 C 827,237.62555 826.37445,237 825.5625,237 l -35.125,0 z"
       id="path4128"
       clip-path="url(#clipPath4130)"
       inkscape:connector-curvature="0" />
    <path
       id="path4105"
       d="M 6.4375,43.000017 C 5.62555,43.000017 5,42.374417 5,41.562517 L 5,40.56252 c 0,0.811897 0.62555,1.437497 1.4375,1.437497 l 35.125,0 c 0.81195,0 1.4375,-0.6256 1.4375,-1.437497 l 0,0.999997 c 0,0.8119 -0.62555,1.4375 -1.4375,1.4375 l -35.125,0 z"
       style="opacity:0.10000000000000001;fill:#ffffff;fill-opacity:1;stroke:none;display:inline"
       inkscape:connector-curvature="0" />
  </g>
  <g
     inkscape:groupmode="layer"
     id="layer2"
     inkscape:label="Symbol">
    <path
       style="opacity:0.4;color:#bebebe;fill:#ffffff;fill-opacity:1;fill-rule:nonzero;stroke:none;stroke-width:1;marker:none;visibility:visible;display:inline;overflow:visible;enable-background:accumulate"
       d="m 16.5,27 15,0 c 2.493,0 4.5,2.007 4.5,4.5 0,2.493 -2.007,4.5 -4.5,4.5 l -15,0 C 14.007,36 12,33.993 12,31.5 12,29.007 14.007,27 16.5,27 z"
       id="rect4956" />
    <path
       style="opacity:0.4;color:#bebebe;fill:#ffffff;fill-opacity:1;fill-rule:nonzero;stroke:none;stroke-width:1;marker:none;visibility:visible;display:inline;overflow:visible;enable-background:accumulate"
       d="m 16.5,12 15,0 c 2.493,0 4.5,2.007 4.5,4.5 0,2.493 -2.007,4.5 -4.5,4.5 l -15,0 C 14.007,21 12,18.993 12,16.5 12,14.007 14.007,12 16.5,12 z"
       id="rect4958" />
    <path
       transform="translate(-304,-232)"
       style="opacity:0;color:#bebebe;fill:#ffffff;fill-opacity:1;stroke:#000000;stroke-width:1;stroke-opacity:1;marker:none;visibility:visible;display:inline;overflow:visible;enable-background:accumulate"
       clip-path="url(#clipPath4068)"
       d="m 320.5,259 15,0 c 2.493,0 4.5,2.007 4.5,4.5 0,2.493 -2.007,4.5 -4.5,4.5 l -15,0 c -2.493,0 -4.5,-2.007 -4.5,-4.5 0,-2.493 2.007,-4.5 4.5,-4.5 z"
       id="rect4968" />
    <path
       transform="translate(-304,-228)"
       style="opacity:0;color:#bebebe;fill:#ffffff;fill-opacity:1;stroke:#000000;stroke-width:1;stroke-opacity:1;marker:none;visibility:visible;display:inline;overflow:visible;enable-background:accumulate"
       clip-path="url(#clipPath4060)"
       d="m 320.5,240 15,0 c 2.493,0 4.5,2.007 4.5,4.5 0,2.493 -2.007,4.5 -4.5,4.5 l -15,0 c -2.493,0 -4.5,-2.007 -4.5,-4.5 0,-2.493 2.007,-4.5 4.5,-4.5 z"
       id="rect4970" />
    <path
       transform="translate(-304,-228)"
       style="opacity:0;color:#bebebe;fill:#ffffff;fill-opacity:1;stroke:#000000;stroke-width:2;stroke-miterlimit:4;stroke-opacity:1;marker:none;visibility:visible;display:inline;overflow:visible;enable-background:accumulate"
       clip-path="url(#clipPath4060)"
       d="m 320.5,240 15,0 c 2.493,0 4.5,2.007 4.5,4.5 0,2.493 -2.007,4.5 -4.5,4.5 l -15,0 c -2.493,0 -4.5,-2.007 -4.5,-4.5 0,-2.493 2.007,-4.5 4.5,-4.5 z"
       id="rect4972" />
    <path
       transform="translate(-304,-232)"
       style="opacity:0;color:#bebebe;fill:#ffffff;fill-opacity:1;stroke:#000000;stroke-width:2;stroke-miterlimit:4;stroke-opacity:1;marker:none;visibility:visible;display:inline;overflow:visible;enable-background:accumulate"
       clip-path="url(#clipPath4068)"
       d="m 320.5,259 15,0 c 2.493,0 4.5,2.007 4.5,4.5 0,2.493 -2.007,4.5 -4.5,4.5 l -15,0 c -2.493,0 -4.5,-2.007 -4.5,-4.5 0,-2.493 2.007,-4.5 4.5,-4.5 z"
       id="rect4974" />
    <path
       style="color:#bebebe;fill:url(#linearGradient3991);fill-opacity:1;fill-rule:nonzero;stroke:none;stroke-width:1;marker:none;visibility:visible;display:inline;overflow:visible;enable-background:accumulate"
       d="m 16.5,27 15,0 c 2.493,0 4.5,2.007 4.5,4.5 0,2.493 -2.007,4.5 -4.5,4.5 l -15,0 C 14.007,36 12,33.993 12,31.5 12,29.007 14.007,27 16.5,27 z"
       id="rect4041" />
    <path
       style="color:#bebebe;fill:url(#linearGradient4104);fill-opacity:1;fill-rule:nonzero;stroke:none;stroke-width:1;marker:none;visibility:visible;display:inline;overflow:visible;enable-background:accumulate"
       d="m 16.5,12 15,0 c 2.493,0 4.5,2.007 4.5,4.5 0,2.493 -2.007,4.5 -4.5,4.5 l -15,0 C 14.007,21 12,18.993 12,16.5 12,14.007 14.007,12 16.5,12 z"
       id="rect4043"
       inkscape:connector-curvature="0" />
    <path
       transform="translate(-304,-232)"
       style="opacity:0;color:#bebebe;fill:none;stroke:#000000;stroke-width:1;stroke-opacity:1;marker:none;visibility:visible;display:inline;overflow:visible;enable-background:accumulate"
       clip-path="url(#clipPath4068)"
       d="m 320.5,259 15,0 c 2.493,0 4.5,2.007 4.5,4.5 0,2.493 -2.007,4.5 -4.5,4.5 l -15,0 c -2.493,0 -4.5,-2.007 -4.5,-4.5 0,-2.493 2.007,-4.5 4.5,-4.5 z"
       id="rect4054" />
    <path
       transform="translate(-304,-228)"
       style="opacity:0;color:#bebebe;fill:none;stroke:#000000;stroke-width:1;stroke-opacity:1;marker:none;visibility:visible;display:inline;overflow:visible;enable-background:accumulate"
       clip-path="url(#clipPath4060)"
       d="m 320.5,240 15,0 c 2.493,0 4.5,2.007 4.5,4.5 0,2.493 -2.007,4.5 -4.5,4.5 l -15,0 c -2.493,0 -4.5,-2.007 -4.5,-4.5 0,-2.493 2.007,-4.5 4.5,-4.5 z"
       id="rect4056" />
    <path
       transform="translate(-304,-228)"
       style="opacity:0;color:#bebebe;fill:none;stroke:#000000;stroke-width:2;stroke-miterlimit:4;stroke-opacity:1;marker:none;visibility:visible;display:inline;overflow:visible;enable-background:accumulate"
       clip-path="url(#clipPath4060)"
       d="m 320.5,240 15,0 c 2.493,0 4.5,2.007 4.5,4.5 0,2.493 -2.007,4.5 -4.5,4.5 l -15,0 c -2.493,0 -4.5,-2.007 -4.5,-4.5 0,-2.493 2.007,-4.5 4.5,-4.5 z"
       id="rect4064" />
    <path
       transform="translate(-304,-232)"
       style="opacity:0;color:#bebebe;fill:none;stroke:#000000;stroke-width:2;stroke-miterlimit:4;stroke-opacity:1;marker:none;visibility:visible;display:inline;overflow:visible;enable-background:accumulate"
       clip-path="url(#clipPath4068)"
       d="m 320.5,259 15,0 c 2.493,0 4.5,2.007 4.5,4.5 0,2.493 -2.007,4.5 -4.5,4.5 l -15,0 c -2.493,0 -4.5,-2.007 -4.5,-4.5 0,-2.493 2.007,-4.5 4.5,-4.5 z"
       id="rect4072" />
    <path
       style="color:#bebebe;fill:none;fill-opacity:1;fill-rule:nonzero;stroke:url(#linearGradient4053);stroke-width:2;marker:none;visibility:visible;display:inline;overflow:visible;enable-background:accumulate;stroke-opacity:1;stroke-miterlimit:4;stroke-dasharray:none;opacity:0.10000000000000001"
       d="M 16.5 12 C 14.007 12 12 14.007 12 16.5 C 12 18.993 14.007 21 16.5 21 L 31.5 21 C 33.993 21 36 18.993 36 16.5 C 36 14.007 33.993 12 31.5 12 L 16.5 12 z M 16.5 27 C 14.007 27 12 29.007 12 31.5 C 12 33.993 14.007 36 16.5 36 L 31.5 36 C 33.993 36 36 33.993 36 31.5 C 36 29.007 33.993 27 31.5 27 L 16.5 27 z "
       id="path4020"
       clip-path="url(#clipPath4027)" />
    <path
       style="color:#bebebe;fill:#000000;fill-opacity:1;fill-rule:nonzero;stroke:none;stroke-width:1;marker:none;visibility:visible;display:inline;overflow:visible;enable-background:accumulate;opacity:0.1"
       d="M 16.5 12 C 14.007 12 12 14.007 12 16.5 C 12 16.67231 12.043826 16.832835 12.0625 17 C 12.313998 14.748613 14.17931 13 16.5 13 L 31.5 13 C 33.82069 13 35.686002 14.748613 35.9375 17 C 35.956174 16.832835 36 16.67231 36 16.5 C 36 14.007 33.993 12 31.5 12 L 16.5 12 z M 16.5 27 C 14.007 27 12 29.007 12 31.5 C 12 31.67231 12.043826 31.832835 12.0625 32 C 12.313998 29.748613 14.17931 28 16.5 28 L 31.5 28 C 33.82069 28 35.686002 29.748613 35.9375 32 C 35.956174 31.832835 36 31.67231 36 31.5 C 36 29.007 33.993 27 31.5 27 L 16.5 27 z "
       id="rect4665" />
    <path
       id="path4675"
       d="M 16.5,37 C 14.007,37 12,34.993 12,32.5 c 0,-0.17231 0.04383,-0.332835 0.0625,-0.5 0.251498,2.251387 2.11681,4 4.4375,4 l 15,0 c 2.32069,0 4.186002,-1.748613 4.4375,-4 C 35.95617,32.167165 36,32.32769 36,32.5 36,34.993 33.993,37 31.5,37 l -15,0 z m 0,-15 C 14.007,22 12,19.993 12,17.5 c 0,-0.17231 0.04383,-0.332835 0.0625,-0.5 0.251498,2.251387 2.11681,4 4.4375,4 l 15,0 c 2.32069,0 4.186002,-1.748613 4.4375,-4 C 35.95617,17.167165 36,17.32769 36,17.5 36,19.993 33.993,22 31.5,22 l -15,0 z"
       style="opacity:0.5;color:#bebebe;fill:#ffffff;fill-opacity:1;fill-rule:nonzero;stroke:none;stroke-width:1;marker:none;visibility:visible;display:inline;overflow:visible;enable-background:accumulate"
       inkscape:connector-curvature="0" />
    <path
       style="opacity:0.15;color:#bebebe;fill:#000000;fill-opacity:1;fill-rule:nonzero;stroke:none;stroke-width:1;marker:none;visibility:visible;display:inline;overflow:visible;enable-background:accumulate"
       d="M 25.5 14 C 23.561 14 22 15.561 22 17.5 C 22 19.439 23.561 21 25.5 21 L 31.5 21 C 33.439 21 35 19.439 35 17.5 C 35 15.561 33.439 14 31.5 14 L 25.5 14 z M 16.5 29 C 14.561 29 13 30.561 13 32.5 C 13 34.439 14.561 36 16.5 36 L 22.5 36 C 24.439 36 26 34.439 26 32.5 C 26 30.561 24.439 29 22.5 29 L 16.5 29 z "
       id="rect4106" />
    <path
       id="path4106"
       d="m 25.5,13 c -1.939,0 -3.5,1.561 -3.5,3.5 0,1.939 1.561,3.5 3.5,3.5 l 6,0 C 33.439,20 35,18.439 35,16.5 35,14.561 33.439,13 31.5,13 l -6,0 z m -9,15 c -1.939,0 -3.5,1.561 -3.5,3.5 0,1.939 1.561,3.5 3.5,3.5 l 6,0 C 24.439,35 26,33.439 26,31.5 26,29.561 24.439,28 22.5,28 l -6,0 z"
       style="color:#bebebe;fill:none;fill-opacity:1;fill-rule:nonzero;stroke:#000000;stroke-width:2;marker:none;visibility:visible;display:inline;overflow:visible;enable-background:accumulate;stroke-opacity:1;stroke-miterlimit:4;stroke-dasharray:none;opacity:0.1"
       inkscape:connector-curvature="0" />
    <path
       inkscape:connector-curvature="0"
       style="color:#bebebe;fill:url(#linearGradient4646-8);fill-opacity:1;fill-rule:nonzero;stroke:none;stroke-width:1;marker:none;visibility:visible;display:inline;overflow:visible;enable-background:accumulate"
       d="m 25.5,13 c -1.939,0 -3.5,1.561 -3.5,3.5 0,1.939 1.561,3.5 3.5,3.5 l 6,0 C 33.439,20 35,18.439 35,16.5 35,14.561 33.439,13 31.5,13 l -6,0 z m -9,15 c -1.939,0 -3.5,1.561 -3.5,3.5 0,1.939 1.561,3.5 3.5,3.5 l 6,0 C 24.439,35 26,33.439 26,31.5 26,29.561 24.439,28 22.5,28 l -6,0 z"
       id="rect4047" />
    <path
       inkscape:connector-curvature="0"
       style="opacity:0.5;color:#bebebe;fill:#ffffff;fill-opacity:1;fill-rule:nonzero;stroke:none;stroke-width:1;marker:none;visibility:visible;display:inline;overflow:visible;enable-background:accumulate"
       d="m 25.5,13 c -1.939,0 -3.5,1.561 -3.5,3.5 0,0.168253 0.0085,0.338212 0.03125,0.5 0.239263,-1.702705 1.698003,-3 3.46875,-3 l 6,0 c 1.770747,0 3.229487,1.297295 3.46875,3 C 34.99148,16.838212 35,16.668253 35,16.5 35,14.561 33.439,13 31.5,13 l -6,0 z m -9,15 c -1.939,0 -3.5,1.561 -3.5,3.5 0,0.168253 0.0085,0.338212 0.03125,0.5 0.239263,-1.702705 1.698003,-3 3.46875,-3 l 6,0 c 1.770747,0 3.229487,1.297295 3.46875,3 C 25.99148,31.838212 26,31.668253 26,31.5 26,29.561 24.439,28 22.5,28 l -6,0 z"
       id="path4680" />
  </g>
</svg>
