<?xml version="1.0" encoding="UTF-8" standalone="no"?>
<svg
   xmlns:dc="http://purl.org/dc/elements/1.1/"
   xmlns:cc="http://creativecommons.org/ns#"
   xmlns:rdf="http://www.w3.org/1999/02/22-rdf-syntax-ns#"
   xmlns:svg="http://www.w3.org/2000/svg"
   xmlns="http://www.w3.org/2000/svg"
   xmlns:xlink="http://www.w3.org/1999/xlink"
   id="svg3759"
   height="48"
   width="48"
   version="1.1">
  <metadata
     id="metadata37">
    <rdf:RDF>
      <cc:Work
         rdf:about="">
        <dc:format>image/svg+xml</dc:format>
        <dc:type
           rdf:resource="http://purl.org/dc/dcmitype/StillImage" />
        <dc:title />
      </cc:Work>
    </rdf:RDF>
  </metadata>
  <defs
     id="defs3761">
    <linearGradient
       y2="24"
       x2="43.500004"
       y1="24"
       x1="4.5000033"
       gradientTransform="matrix(0,1,-1,0,48.000003,-2.9e-6)"
       gradientUnits="userSpaceOnUse"
       id="linearGradient3874"
       xlink:href="#linearGradient5442" />
    <linearGradient
       id="linearGradient5442">
      <stop
         id="stop5444"
         offset="0"
         style="stop-color:#46d6aa;stop-opacity:1;" />
      <stop
         id="stop5446"
         offset="1"
         style="stop-color:#27c393;stop-opacity:1" />
    </linearGradient>
  </defs>
  <g
     id="layer1">
    <path
       id="path4026"
       d="M 24,5 C 12.960351,5 4,13.96111 4,25 4,36.03985 12.960367,45 24,45 35.040018,45 44,36.03988 44,25 44,13.961083 35.04013,5 24,5 z"
       style="font-size:medium;font-style:normal;font-variant:normal;font-weight:normal;font-stretch:normal;text-indent:0;text-align:start;text-decoration:none;line-height:normal;letter-spacing:normal;word-spacing:normal;text-transform:none;direction:ltr;block-progression:tb;writing-mode:lr-tb;text-anchor:start;baseline-shift:baseline;opacity:0.05000000000000000;color:#000000;fill:#000000;fill-opacity:1;stroke:#000000;stroke-width:2;marker:none;visibility:visible;display:inline;overflow:visible;enable-background:accumulate;font-family:Sans;-inkscape-font-specification:Sans;stroke-opacity:1;stroke-miterlimit:4;stroke-dasharray:none" />
    <path
       style="font-size:medium;font-style:normal;font-variant:normal;font-weight:normal;font-stretch:normal;text-indent:0;text-align:start;text-decoration:none;line-height:normal;letter-spacing:normal;word-spacing:normal;text-transform:none;direction:ltr;block-progression:tb;writing-mode:lr-tb;text-anchor:start;baseline-shift:baseline;opacity:0.1;color:#000000;fill:#000000;fill-opacity:1;stroke:#000000;stroke-width:1;marker:none;visibility:visible;display:inline;overflow:visible;enable-background:accumulate;font-family:Sans;-inkscape-font-specification:Sans;stroke-opacity:1"
       d="M 24,5 C 12.960351,5 4,13.96111 4,25 4,36.03985 12.960367,45 24,45 35.040018,45 44,36.03988 44,25 44,13.961083 35.04013,5 24,5 z"
       id="path4024" />
    <path
       id="path4018"
       d="M 24,5 C 12.960351,5 4,13.96111 4,25 4,36.03985 12.960367,45 24,45 35.040018,45 44,36.03988 44,25 44,13.961083 35.04013,5 24,5 z"
       style="font-size:medium;font-style:normal;font-variant:normal;font-weight:normal;font-stretch:normal;text-indent:0;text-align:start;text-decoration:none;line-height:normal;letter-spacing:normal;word-spacing:normal;text-transform:none;direction:ltr;block-progression:tb;writing-mode:lr-tb;text-anchor:start;baseline-shift:baseline;opacity:0.2;color:#000000;fill:#000000;fill-opacity:1;stroke:none;stroke-width:1;marker:none;visibility:visible;display:inline;overflow:visible;enable-background:accumulate;font-family:Sans;-inkscape-font-specification:Sans" />
    <path
       d="m 4.5000031,24.000691 c 0,-10.769899 8.7310909,-19.5006909 19.4997549,-19.5006909 10.769649,0 19.500245,8.7308909 19.500245,19.5006909 C 43.500003,34.770096 34.769407,43.5 23.999758,43.5 13.231094,43.5 4.5000031,34.770096 4.5000031,24.000691 l 0,0 z"
       id="path6495"
       style="fill:url(#linearGradient3874);fill-opacity:1;fill-rule:nonzero;stroke:none" />
    <path
       id="path3872"
       d="M 24 5 C 13.500552 5 5 13.500823 5 24 C 5 24.169463 5.0268485 24.331605 5.03125 24.5 C 5.299553 14.235412 13.670013 6 24 6 C 34.328993 6 42.700416 14.235427 42.96875 24.5 C 42.973152 24.331604 43 24.169465 43 24 C 43 13.500839 34.498438 5 24 5 z "
       style="fill:#ffffff;fill-opacity:1;fill-rule:nonzero;stroke:none;opacity:0.4" />
    <path
       style="opacity:0.91;fill:none;stroke:#2f795f;stroke-width:1;stroke-miterlimit:4;stroke-opacity:1;stroke-dasharray:none"
       id="path3796"
       d="M 23.999309,4.5 C 34.769208,4.5 43.5,13.231091 43.5,23.999755 43.5,34.769404 34.769109,43.5 23.999309,43.5 13.229903,43.5 4.5,34.769404 4.5,23.999755 4.5,13.231091 13.229903,4.5 23.999309,4.5 l 0,0 z" />
    <path
       style="opacity:0.1;fill:#ffffff;fill-opacity:1;fill-rule:nonzero;stroke:none"
       d="M 24,43 C 13.500552,43 5,34.499177 5,24 5,23.830537 5.0268485,23.668395 5.03125,23.5 5.299553,33.764588 13.670013,42 24,42 34.328993,42 42.700416,33.764573 42.96875,23.5 42.973152,23.668396 43,23.830535 43,24 43,34.499161 34.498438,43 24,43 z"
       id="path3366" />
  </g>
  <g
     id="layer2">
    <path
       id="path3913"
       d="m 23.999788,15.003496 c 3.313675,0 5.999919,2.686265 5.999919,5.99992 0,3.313656 -2.686244,5.99992 -5.999919,5.99992 -3.313676,0 -5.99992,-2.686264 -5.99992,-5.99992 0,-3.313655 2.686244,-5.99992 5.99992,-5.99992 z m -1.999974,13.999814 3.999947,0 c 2.947281,0 5.447207,1.756456 6.812409,4.187444 -2.191131,2.357068 -5.340349,3.812449 -8.812382,3.812449 -3.472034,0 -6.621252,-1.455381 -8.812383,-3.812449 1.365202,-2.430988 3.865129,-4.187444 6.812409,-4.187444 z"
       style="color:#000000;fill:#000000;fill-opacity:1;fill-rule:nonzero;stroke:none;stroke-width:1.54645538000000005;marker:none;visibility:visible;display:inline;overflow:visible;enable-background:accumulate;opacity:0.20000000000000001" />
    <path
       style="color:#000000;fill:#ffffff;fill-opacity:1;fill-rule:nonzero;stroke:none;stroke-width:1.54645538000000005;marker:none;visibility:visible;display:inline;overflow:visible;enable-background:accumulate"
       d="m 23.999788,14.003496 c 3.313675,0 5.999919,2.686265 5.999919,5.99992 0,3.313656 -2.686244,5.99992 -5.999919,5.99992 -3.313676,0 -5.99992,-2.686264 -5.99992,-5.99992 0,-3.313655 2.686244,-5.99992 5.99992,-5.99992 z m -1.999974,13.999814 3.999947,0 c 2.947281,0 5.447207,1.756456 6.812409,4.187444 -2.191131,2.357068 -5.340349,3.812449 -8.812382,3.812449 -3.472034,0 -6.621252,-1.455381 -8.812383,-3.812449 1.365202,-2.430988 3.865129,-4.187444 6.812409,-4.187444 z"
       id="path3029" />
  </g>
</svg>
