<?xml version="1.0" encoding="UTF-8" standalone="no"?>
<!-- Created with Inkscape (http://www.inkscape.org/) -->

<svg
   xmlns:dc="http://purl.org/dc/elements/1.1/"
   xmlns:cc="http://creativecommons.org/ns#"
   xmlns:rdf="http://www.w3.org/1999/02/22-rdf-syntax-ns#"
   xmlns:svg="http://www.w3.org/2000/svg"
   xmlns="http://www.w3.org/2000/svg"
   xmlns:xlink="http://www.w3.org/1999/xlink"
   xmlns:sodipodi="http://sodipodi.sourceforge.net/DTD/sodipodi-0.dtd"
   xmlns:inkscape="http://www.inkscape.org/namespaces/inkscape"
   version="1.1"
   width="48"
   height="48"
   id="svg3759"
   inkscape:version="0.48.4 r9939"
   sodipodi:docname="utilities-terminal.svg">
  <sodipodi:namedview
     pagecolor="#ffffff"
     bordercolor="#666666"
     borderopacity="1"
     objecttolerance="10"
     gridtolerance="10"
     guidetolerance="10"
     inkscape:pageopacity="0"
     inkscape:pageshadow="2"
     inkscape:window-width="1364"
     inkscape:window-height="700"
     id="namedview36"
     showgrid="false"
     showborder="false"
     inkscape:zoom="1"
     inkscape:cx="60.121853"
     inkscape:cy="18.932948"
     inkscape:window-x="0"
     inkscape:window-y="28"
     inkscape:window-maximized="1"
     inkscape:current-layer="svg3759"
     inkscape:snap-bbox="true"
     inkscape:bbox-paths="true"
     inkscape:bbox-nodes="true"
     inkscape:snap-bbox-edge-midpoints="true"
     inkscape:snap-bbox-midpoints="true">
    <inkscape:grid
       type="xygrid"
       id="grid3818"
       empspacing="4"
       visible="true"
       enabled="true"
       snapvisiblegridlinesonly="true" />
  </sodipodi:namedview>
  <metadata
     id="metadata37">
    <rdf:RDF>
      <cc:Work
         rdf:about="">
        <dc:format>image/svg+xml</dc:format>
        <dc:type
           rdf:resource="http://purl.org/dc/dcmitype/StillImage" />
        <dc:title />
      </cc:Work>
    </rdf:RDF>
  </metadata>
  <defs
     id="defs3761">
    <linearGradient
       id="linearGradient3810">
      <stop
         style="stop-color:#4cc7e0;stop-opacity:1;"
         offset="0"
         id="stop3812" />
      <stop
         style="stop-color:#2061be;stop-opacity:1;"
         offset="1"
         id="stop3814" />
    </linearGradient>
    <linearGradient
       id="linearGradient4873">
      <stop
         id="stop4875"
         style="stop-color:#ffffff;stop-opacity:1"
         offset="0" />
      <stop
         id="stop4877"
         style="stop-color:#ffffff;stop-opacity:0"
         offset="1" />
    </linearGradient>
    <linearGradient
       inkscape:collect="always"
       xlink:href="#linearGradient4873"
       id="linearGradient3017"
       gradientUnits="userSpaceOnUse"
       gradientTransform="matrix(2.1153734,0,0,2.1153252,-107.57708,31.426557)"
       x1="62.200409"
       y1="-12.489107"
       x2="62.200409"
       y2="-1.4615115" />
    <linearGradient
       inkscape:collect="always"
       xlink:href="#linearGradient3810"
       id="linearGradient3816"
       x1="4.5000031"
       y1="24"
       x2="43.500003"
       y2="24"
       gradientUnits="userSpaceOnUse"
       gradientTransform="matrix(0,1,-1,0,48.000003,-3e-6)" />
    <linearGradient
       inkscape:collect="always"
       xlink:href="#linearGradient3988"
       id="linearGradient3965"
       gradientUnits="userSpaceOnUse"
       x1="287.72006"
       y1="116.2613"
       x2="287.72006"
       y2="31.772648" />
    <linearGradient
       id="linearGradient3988">
      <stop
         style="stop-color:#eeeeec;stop-opacity:1;"
         offset="0"
         id="stop3990" />
      <stop
         style="stop-color:#ffffff;stop-opacity:1;"
         offset="1"
         id="stop3992" />
    </linearGradient>
    <linearGradient
       inkscape:collect="always"
       xlink:href="#linearGradient3810"
       id="linearGradient3882"
       gradientUnits="userSpaceOnUse"
       gradientTransform="matrix(0,1,-1,0,48.000003,-3e-6)"
       x1="4.5000031"
       y1="24"
       x2="43.500003"
       y2="24" />
    <radialGradient
       inkscape:collect="always"
       xlink:href="#linearGradient26113-9-3-1"
       id="radialGradient3755"
       gradientUnits="userSpaceOnUse"
       gradientTransform="matrix(1,0,0,0.37,0,24.5124)"
       cx="24.849752"
       cy="38.908627"
       fx="24.849752"
       fy="38.908627"
       r="20.203051" />
    <linearGradient
       inkscape:collect="always"
       id="linearGradient26113-9-3-1">
      <stop
         style="stop-color: rgb(0, 0, 0); stop-opacity: 1;"
         offset="0"
         id="stop26115-7-7-9" />
      <stop
         style="stop-color: rgb(0, 0, 0); stop-opacity: 0;"
         offset="1"
         id="stop26117-3-7-8" />
    </linearGradient>
    <linearGradient
       inkscape:collect="always"
       id="linearGradient26121-3-8-2">
      <stop
         style="stop-color: rgb(0, 0, 0); stop-opacity: 1;"
         offset="0"
         id="stop26123-4-7-8" />
      <stop
         style="stop-color: rgb(0, 0, 0); stop-opacity: 0;"
         offset="1"
         id="stop26125-3-9-9" />
    </linearGradient>
    <radialGradient
       r="20.203051"
       fy="38.908627"
       fx="24.849752"
       cy="38.908627"
       cx="24.849752"
       gradientTransform="matrix(1.00851,0,0,0.373148,-0.211403,24.39)"
       gradientUnits="userSpaceOnUse"
       id="radialGradient4274"
       xlink:href="#linearGradient26121-3-8-2"
       inkscape:collect="always" />
    <linearGradient
       inkscape:collect="always"
       xlink:href="#linearGradient4134"
       id="linearGradient4140"
       x1="789"
       y1="256"
       x2="827"
       y2="256"
       gradientUnits="userSpaceOnUse" />
    <linearGradient
       inkscape:collect="always"
       id="linearGradient4134">
      <stop
         style="stop-color:#ffffff;stop-opacity:1;"
         offset="0"
         id="stop4136" />
      <stop
         style="stop-color:#ffffff;stop-opacity:0;"
         offset="1"
         id="stop4138" />
    </linearGradient>
    <clipPath
       clipPathUnits="userSpaceOnUse"
       id="clipPath4130">
      <path
         id="path4132"
         d="M 790.4375,237 C 789.62555,237 789,237.62555 789,238.4375 l 0,35.09375 c 0,0.812 0.62555,1.46875 1.4375,1.46875 l 35.125,0 c 0.81195,0 1.4375,-0.65675 1.4375,-1.46875 l 0,-35.09375 C 827,237.62555 826.37445,237 825.5625,237 l -35.125,0 z"
         style="fill:#ba2222;fill-opacity:1;stroke:none"
         inkscape:connector-curvature="0" />
    </clipPath>
    <linearGradient
       inkscape:collect="always"
       xlink:href="#linearGradient5618"
       id="linearGradient4083"
       x1="-1023.8622"
       y1="-808"
       x2="-984.86218"
       y2="-808"
       gradientUnits="userSpaceOnUse"
       gradientTransform="translate(980.3622,784)" />
    <linearGradient
       id="linearGradient5618">
      <stop
         style="stop-color:#2b2b2b;stop-opacity:1"
         offset="0"
         id="stop5620" />
      <stop
         style="stop-color:#353535;stop-opacity:1"
         offset="1"
         id="stop5622" />
    </linearGradient>
    <radialGradient
       inkscape:collect="always"
       xlink:href="#linearGradient3952"
       id="radialGradient4205"
       gradientUnits="userSpaceOnUse"
       gradientTransform="matrix(1.0571429,0,0,1.25,0.6,-10.875)"
       cx="40"
       cy="43.5"
       fx="40"
       fy="43.5"
       r="2" />
    <linearGradient
       inkscape:collect="always"
       id="linearGradient3952">
      <stop
         style="stop-color:#000000;stop-opacity:1;"
         offset="0"
         id="stop3954" />
      <stop
         style="stop-color:#000000;stop-opacity:0;"
         offset="1"
         id="stop3956" />
    </linearGradient>
    <radialGradient
       inkscape:collect="always"
       xlink:href="#linearGradient3952"
       id="radialGradient4214"
       gradientUnits="userSpaceOnUse"
       gradientTransform="matrix(1,0,0,0.75,2,10.875)"
       cx="40"
       cy="43.5"
       fx="40"
       fy="43.5"
       r="2" />
    <radialGradient
       inkscape:collect="always"
       xlink:href="#linearGradient3944"
       id="radialGradient4202"
       gradientUnits="userSpaceOnUse"
       gradientTransform="matrix(1.0571429,0,0,1.25,-4.4000003,-10.875)"
       cx="9"
       cy="43.5"
       fx="9"
       fy="43.5"
       r="2" />
    <linearGradient
       inkscape:collect="always"
       id="linearGradient3944">
      <stop
         style="stop-color:#000000;stop-opacity:1;"
         offset="0"
         id="stop3946" />
      <stop
         style="stop-color:#000000;stop-opacity:0;"
         offset="1"
         id="stop3948" />
    </linearGradient>
    <radialGradient
       inkscape:collect="always"
       xlink:href="#linearGradient3944"
       id="radialGradient4211"
       gradientUnits="userSpaceOnUse"
       gradientTransform="matrix(1,0,0,0.75,-3.0000003,10.875)"
       cx="9"
       cy="43.5"
       fx="9"
       fy="43.5"
       r="2" />
    <linearGradient
       inkscape:collect="always"
       xlink:href="#linearGradient3960"
       id="linearGradient4208"
       gradientUnits="userSpaceOnUse"
       x1="25"
       y1="45"
       x2="25"
       y2="42"
       gradientTransform="matrix(1.0571429,0,0,1.6666667,-5.4000003,-29)" />
    <linearGradient
       id="linearGradient3960">
      <stop
         style="stop-color:#000000;stop-opacity:0;"
         offset="0"
         id="stop3962" />
      <stop
         id="stop3970"
         offset="0.5"
         style="stop-color:#000000;stop-opacity:1;" />
      <stop
         style="stop-color:#000000;stop-opacity:0;"
         offset="1"
         id="stop3964" />
    </linearGradient>
    <linearGradient
       inkscape:collect="always"
       xlink:href="#linearGradient3960"
       id="linearGradient4217"
       gradientUnits="userSpaceOnUse"
       x1="25"
       y1="45"
       x2="25"
       y2="42"
       gradientTransform="translate(-4.0000003,0)" />
    <linearGradient
       id="linearGradient3157">
      <stop
         style="stop-color:#000000;stop-opacity:0;"
         offset="0"
         id="stop3159" />
      <stop
         id="stop3161"
         offset="0.5"
         style="stop-color:#000000;stop-opacity:1;" />
      <stop
         style="stop-color:#000000;stop-opacity:0;"
         offset="1"
         id="stop3163" />
    </linearGradient>
    <linearGradient
       y2="42"
       x2="25"
       y1="45"
       x1="25"
       gradientTransform="translate(-4.0000003,0)"
       gradientUnits="userSpaceOnUse"
       id="linearGradient3172"
       xlink:href="#linearGradient3960"
       inkscape:collect="always" />
  </defs>
  <g
     id="g3111">
    <path
       style="opacity:0.12000002;fill:url(#radialGradient4205);fill-opacity:1;stroke:none"
       d="m 42.885716,41.000001 0,5 0.528571,0 c 0.878486,0 1.585715,-1.115 1.585715,-2.5 0,-1.385 -0.707229,-2.5 -1.585715,-2.5 l -0.528571,0 z"
       id="path3987"
       inkscape:connector-curvature="0" />
    <path
       inkscape:connector-curvature="0"
       id="rect3940"
       d="m 42,42 0,3 0.5,0 C 43.331,45 44,44.331 44,43.5 44,42.669 43.331,42 42.5,42 L 42,42 z"
       style="opacity:0.12000002;fill:url(#radialGradient4214);fill-opacity:1;stroke:none" />
    <path
       style="opacity:0.12000002;fill:url(#radialGradient4202);fill-opacity:1;stroke:none"
       d="M 4.4866072,41.000001 C 3.6630268,41.000001 3,42.045313 3,43.343751 l 0,0.3125 c 0,1.298439 0.6630268,2.34375 1.4866072,2.34375 l 0.6276786,0 0,-5 -0.6276786,0 z"
       id="path3989"
       inkscape:connector-curvature="0" />
    <path
       inkscape:connector-curvature="0"
       id="rect3942"
       d="m 5.4062497,42 c -0.7790625,0 -1.40625,0.627187 -1.40625,1.40625 l 0,0.1875 c 0,0.779063 0.6271875,1.40625 1.40625,1.40625 l 0.59375,0 0,-3 -0.59375,0 z"
       style="opacity:0.12000002;fill:url(#radialGradient4211);fill-opacity:1;stroke:none" />
    <path
       sodipodi:nodetypes="ccccc"
       inkscape:connector-curvature="0"
       id="rect3985"
       d="m 5.1141432,41 37.7717148,0 0,5 -37.7717148,0 z"
       style="opacity:0.12000002;fill:url(#linearGradient4208);fill-opacity:1;stroke:none" />
    <path
       sodipodi:nodetypes="ccccc"
       inkscape:connector-curvature="0"
       id="rect3938"
       d="m 5.9998568,42 36.0002842,0 0,3 -36.0002842,0 z"
       style="opacity:0.12000002;fill:url(#linearGradient3172);fill-opacity:1;stroke:none" />
  </g>
  <rect
     rx="1.9499974"
     ry="1.95"
     transform="matrix(0,-1,-1,0,0,0)"
     y="-43.5"
     x="-43.5"
     height="39"
     width="39"
     id="rect4073"
     style="fill:url(#linearGradient4083);fill-opacity:1;stroke:none;display:inline;opacity:0.9" />
  <rect
     style="opacity:0.61000001;fill:none;stroke:#000000;stroke-opacity:1;display:inline"
     id="rect4085"
     width="39"
     height="39"
     x="-43.5"
     y="-43.5"
     transform="matrix(0,-1,-1,0,0,0)"
     ry="1.95"
     rx="1.9499974" />
  <path
     inkscape:connector-curvature="0"
     style="opacity:0.15;fill:#ffffff;fill-opacity:1;stroke:none;display:inline"
     d="M 6.4375,5.00002 C 5.62555,5.00002 5,5.62557 5,6.43752 l 0,1 C 5,6.62557 5.62555,6.00002 6.4375,6.00002 l 35.125,0 c 0.81195,0 1.4375,0.62555 1.4375,1.4375 l 0,-1 c 0,-0.81195 -0.62555,-1.4375 -1.4375,-1.4375 l -35.125,0 z"
     id="rect4089-4" />
  <path
     transform="matrix(0,1,-1,0,280,-784)"
     style="opacity:0.1;fill:none;stroke:url(#linearGradient4140);stroke-width:2;stroke-miterlimit:4;stroke-opacity:1;stroke-dasharray:none;display:inline"
     d="M 790.4375,237 C 789.62555,237 789,237.62555 789,238.4375 l 0,35.09375 c 0,0.812 0.62555,1.46875 1.4375,1.46875 l 35.125,0 c 0.81195,0 1.4375,-0.65675 1.4375,-1.46875 l 0,-35.09375 C 827,237.62555 826.37445,237 825.5625,237 l -35.125,0 z"
     id="path4128"
     clip-path="url(#clipPath4130)"
     inkscape:connector-curvature="0" />
  <path
     id="path4105"
     d="M 6.4375,43.000017 C 5.62555,43.000017 5,42.374417 5,41.562517 L 5,40.56252 c 0,0.811897 0.62555,1.437497 1.4375,1.437497 l 35.125,0 c 0.81195,0 1.4375,-0.6256 1.4375,-1.437497 l 0,0.999997 c 0,0.8119 -0.62555,1.4375 -1.4375,1.4375 l -35.125,0 z"
     style="opacity:0.1;fill:#ffffff;fill-opacity:1;stroke:none;display:inline"
     inkscape:connector-curvature="0" />
  <g
     style="opacity:0.2;fill:#000000;fill-opacity:1;display:inline;enable-background:new"
     id="g4055"
     transform="translate(-288,-218)">
    <rect
       y="240"
       x="307"
       height="2.0000007"
       width="9"
       id="rect4057"
       style="color:#bebebe;fill:#000000;fill-opacity:1;fill-rule:nonzero;stroke:none;stroke-width:2;marker:none;visibility:visible;display:inline;overflow:visible;enable-background:accumulate" />
    <g
       style="font-size:17.2705555px;font-style:normal;font-variant:normal;font-weight:normal;font-stretch:normal;text-align:center;line-height:125%;letter-spacing:0px;word-spacing:0px;text-anchor:middle;fill:#000000;fill-opacity:1;stroke:none;display:inline;enable-background:new;font-family:Roboto;-inkscape-font-specification:Roboto"
       id="g4059">
      <path
         d="m 300.20309,229 1.72875,0 0,0.97826 c 0.47785,0.0956 0.91918,0.2811 1.32396,0.55657 0.41039,0.26986 0.78144,0.60436 1.11314,1.00351 l -1.02038,1.29023 c 0,0 -0.30568,-0.38639 -0.44695,-0.56497 -0.11245,-0.1293 -0.26424,-0.25579 -0.45538,-0.37948 -0.18553,-0.12367 -0.3851,-0.21081 -0.59873,-0.26142 l 0,2.5383 c 0.45537,0.14618 0.85734,0.30921 1.2059,0.48911 0.34855,0.17991 0.63808,0.38792 0.86859,0.62403 0.23611,0.23613 0.4132,0.50317 0.53127,0.80113 0.11805,0.29234 0.17708,0.62684 0.17709,1.00351 -1e-5,0.35418 -0.0618,0.69431 -0.18552,1.02038 -0.12369,0.32045 -0.30359,0.61279 -0.53971,0.87702 -0.2305,0.26423 -0.5116,0.49192 -0.84329,0.68306 -0.3317,0.19115 -0.70836,0.32889 -1.13,0.41322 l 0,0.92761 -1.72875,0 0,-0.87702 c -0.52846,-0.09 -1.03724,-0.26704 -1.52635,-0.53127 -0.48911,-0.26423 -0.92481,-0.60717 -1.3071,-1.02881 l 1.05412,-1.48419 0.48914,0.60717 c 0.19115,0.20801 0.39353,0.3851 0.60717,0.53127 0.21925,0.14617 0.47505,0.25018 0.76739,0.31202 l 0,-3.08644 c -0.4104,-0.15179 -0.77864,-0.32045 -1.1047,-0.50597 -0.32046,-0.18552 -0.59312,-0.39072 -0.818,-0.6156 -0.21925,-0.2305 -0.38791,-0.48348 -0.50597,-0.75896 -0.11806,-0.28109 -0.17709,-0.58749 -0.17709,-0.91919 0,-0.31482 0.059,-0.61559 0.17709,-0.90232 0.11806,-0.28671 0.28672,-0.54532 0.50597,-0.77582 0.21926,-0.23049 0.48349,-0.42726 0.7927,-0.59031 0.31482,-0.16864 0.66338,-0.29233 1.04567,-0.37104 l 0,-1.00352 m 1.64442,9.42797 c 0.30358,-0.10681 0.54813,-0.2586 0.73366,-0.45537 0.19114,-0.19677 0.28671,-0.45819 0.28672,-0.78426 -1e-5,-0.26985 -0.0843,-0.50597 -0.25299,-0.70837 -0.16304,-0.20238 -0.41884,-0.36542 -0.76739,-0.4891 l 0,2.4371 m -1.56009,-6.8222 c -0.23612,0.0618 -0.42727,0.17147 -0.57343,0.32888 -0.14618,0.15742 -0.21926,0.35981 -0.21926,0.60717 0,0.17991 0.059,0.36543 0.17709,0.55657 0.11806,0.19115 0.32326,0.33732 0.6156,0.43851 l 0,-1.93113"
         style="font-weight:bold;fill:#000000;fill-opacity:1;font-family:Inconsolata;-inkscape-font-specification:Inconsolata Bold"
         id="path4061"
         inkscape:connector-curvature="0"
         sodipodi:nodetypes="ccccccccccccccccsccccscccccccccscccccccccccccsccc" />
    </g>
  </g>
  <g
     id="g3932"
     style="fill:#ffffff;fill-opacity:1;display:inline;enable-background:new"
     transform="translate(-288,-219)">
    <rect
       style="color:#bebebe;fill:#ffffff;fill-opacity:1;fill-rule:nonzero;stroke:none;stroke-width:2;marker:none;visibility:visible;display:inline;overflow:visible;enable-background:accumulate"
       id="rect4100"
       width="9"
       height="2.0000007"
       x="307"
       y="240" />
    <g
       id="text3894"
       style="font-size:17.27055550000000039px;font-style:normal;font-variant:normal;font-weight:normal;font-stretch:normal;text-align:center;line-height:125%;letter-spacing:0px;word-spacing:0px;text-anchor:middle;fill:#ffffff;fill-opacity:1;stroke:none;display:inline;enable-background:new;font-family:Roboto;-inkscape-font-specification:Roboto">
      <path
         sodipodi:nodetypes="ccccccccccccccccsccccscccccccccscccccccccccccsccc"
         inkscape:connector-curvature="0"
         id="path3930"
         style="font-weight:bold;fill:#ffffff;fill-opacity:1;font-family:Inconsolata;-inkscape-font-specification:Inconsolata Bold"
         d="m 300.20309,229 1.72875,0 0,0.97826 c 0.47785,0.0956 0.91918,0.2811 1.32396,0.55657 0.41039,0.26986 0.78144,0.60436 1.11314,1.00351 l -1.02038,1.29023 c 0,0 -0.30568,-0.38639 -0.44695,-0.56497 -0.11245,-0.1293 -0.26424,-0.25579 -0.45538,-0.37948 -0.18553,-0.12367 -0.3851,-0.21081 -0.59873,-0.26142 l 0,2.5383 c 0.45537,0.14618 0.85734,0.30921 1.2059,0.48911 0.34855,0.17991 0.63808,0.38792 0.86859,0.62403 0.23611,0.23613 0.4132,0.50317 0.53127,0.80113 0.11805,0.29234 0.17708,0.62684 0.17709,1.00351 -1e-5,0.35418 -0.0618,0.69431 -0.18552,1.02038 -0.12369,0.32045 -0.30359,0.61279 -0.53971,0.87702 -0.2305,0.26423 -0.5116,0.49192 -0.84329,0.68306 -0.3317,0.19115 -0.70836,0.32889 -1.13,0.41322 l 0,0.92761 -1.72875,0 0,-0.87702 c -0.52846,-0.09 -1.03724,-0.26704 -1.52635,-0.53127 -0.48911,-0.26423 -0.92481,-0.60717 -1.3071,-1.02881 l 1.05412,-1.48419 0.48914,0.60717 c 0.19115,0.20801 0.39353,0.3851 0.60717,0.53127 0.21925,0.14617 0.47505,0.25018 0.76739,0.31202 l 0,-3.08644 c -0.4104,-0.15179 -0.77864,-0.32045 -1.1047,-0.50597 -0.32046,-0.18552 -0.59312,-0.39072 -0.818,-0.6156 -0.21925,-0.2305 -0.38791,-0.48348 -0.50597,-0.75896 -0.11806,-0.28109 -0.17709,-0.58749 -0.17709,-0.91919 0,-0.31482 0.059,-0.61559 0.17709,-0.90232 0.11806,-0.28671 0.28672,-0.54532 0.50597,-0.77582 0.21926,-0.23049 0.48349,-0.42726 0.7927,-0.59031 0.31482,-0.16864 0.66338,-0.29233 1.04567,-0.37104 l 0,-1.00352 m 1.64442,9.42797 c 0.30358,-0.10681 0.54813,-0.2586 0.73366,-0.45537 0.19114,-0.19677 0.28671,-0.45819 0.28672,-0.78426 -1e-5,-0.26985 -0.0843,-0.50597 -0.25299,-0.70837 -0.16304,-0.20238 -0.41884,-0.36542 -0.76739,-0.4891 l 0,2.4371 m -1.56009,-6.8222 c -0.23612,0.0618 -0.42727,0.17147 -0.57343,0.32888 -0.14618,0.15742 -0.21926,0.35981 -0.21926,0.60717 0,0.17991 0.059,0.36543 0.17709,0.55657 0.11806,0.19115 0.32326,0.33732 0.6156,0.43851 l 0,-1.93113" />
    </g>
  </g>
</svg>
