<?xml version="1.0" encoding="UTF-8" standalone="no"?>
<svg xmlns="http://www.w3.org/2000/svg" xmlns:xlink="http://www.w3.org/1999/xlink" xmlns:sodipodi="http://sodipodi.sourceforge.net/DTD/sodipodi-0.dtd" xmlns:inkscape="http://www.inkscape.org/namespaces/inkscape" version="1.1" width="48" height="48">
 <metadata id="metadata37"/>
 <defs id="defs3761">
  <linearGradient id="linearGradient3810">
   <stop id="stop3812" stop-color="#4cc7e0"/>
   <stop offset="1" id="stop3814" stop-color="#2061be"/>
  </linearGradient>
  <linearGradient id="linearGradient4873">
   <stop id="stop4875" stop-color="#ffffff"/>
   <stop id="stop4877" offset="1" stop-color="#ffffff" stop-opacity="0"/>
  </linearGradient>
  <linearGradient inkscape:collect="always" xlink:href="#linearGradient4873" id="linearGradient3017" gradientUnits="userSpaceOnUse" gradientTransform="matrix(2.1153734,0,0,2.1153252,-107.57708,31.426557)" y1="-12.489" x2="0" y2="-1.462"/>
  <linearGradient inkscape:collect="always" xlink:href="#linearGradient3810" id="linearGradient3816" x1="4.5" x2="43.5" gradientUnits="userSpaceOnUse" gradientTransform="matrix(0,1,-1,0,48.000003,-3e-6)"/>
  <linearGradient inkscape:collect="always" xlink:href="#linearGradient3988" id="linearGradient3965" gradientUnits="userSpaceOnUse" y1="116.26" x2="0" y2="31.773"/>
  <linearGradient id="linearGradient3988">
   <stop id="stop3990" stop-color="#eeeeec"/>
   <stop offset="1" id="stop3992" stop-color="#ffffff"/>
  </linearGradient>
  <radialGradient inkscape:collect="always" xlink:href="#linearGradient26113-9-3-1" id="radialGradient3755" gradientUnits="userSpaceOnUse" gradientTransform="matrix(1,0,0,0.37,0,24.5124)" cx="24.85" cy="38.909" r="20.2"/>
  <linearGradient inkscape:collect="always" id="linearGradient26113-9-3-1">
   <stop id="stop26115-7-7-9"/>
   <stop offset="1" id="stop26117-3-7-8" stop-opacity="0"/>
  </linearGradient>
  <radialGradient r="20.2" cy="38.909" cx="24.85" gradientTransform="matrix(1.00851,0,0,0.373148,-0.211403,24.39)" gradientUnits="userSpaceOnUse" id="radialGradient4274" xlink:href="#linearGradient26113-9-3-1" inkscape:collect="always"/>
  <linearGradient inkscape:collect="always" xlink:href="#linearGradient4873" id="linearGradient4140" x1="789" x2="827" gradientUnits="userSpaceOnUse"/>
  <clipPath id="clipPath4130">
   <path id="path4132" d="M 790.4375,237 C 789.62555,237 789,237.62555 789,238.4375 l 0,35.09375 c 0,0.812 0.62555,1.46875 1.4375,1.46875 l 35.125,0 c 0.81195,0 1.4375,-0.65675 1.4375,-1.46875 l 0,-35.09375 C 827,237.62555 826.37445,237 825.5625,237 l -35.125,0 z"/>
  </clipPath>
  <linearGradient inkscape:collect="always" xlink:href="#outerBackgroundGradient-0" id="linearGradient4083" x1="-1023.86" x2="-984.86" gradientUnits="userSpaceOnUse" gradientTransform="translate(980.3622,784)"/>
  <linearGradient id="linearGradient5618">
   <stop id="stop5620" stop-color="#3e3e3e"/>
   <stop offset="1" id="stop5622" stop-color="#595959"/>
  </linearGradient>
  <filter color-interpolation-filters="sRGB" inkscape:collect="always" id="filter4155">
   <feGaussianBlur inkscape:collect="always" stdDeviation="0.39" id="feGaussianBlur4157"/>
  </filter>
  <filter inkscape:collect="always" id="filter4023" x="-0.064" width="1.128" y="-0.995" height="2.991">
   <feGaussianBlur inkscape:collect="always" stdDeviation="1.0109" id="feGaussianBlur4025"/>
  </filter>
  <filter inkscape:collect="always" id="filter4033" x="-0.128" width="1.255" y="-1.991" height="4.982">
   <feGaussianBlur inkscape:collect="always" stdDeviation="2.0219" id="feGaussianBlur4035"/>
  </filter>
  <linearGradient x2="333" x1="291" gradientTransform="translate(-288,-220.00001)" gradientUnits="userSpaceOnUse" id="linearGradient4707" xlink:href="#linearGradient3721" inkscape:collect="always"/>
  <linearGradient id="linearGradient3721">
   <stop id="stop3723" stop-color="#26ee2d" stop-opacity="0"/>
   <stop id="stop3725" offset="0.195" stop-color="#26ee2d"/>
   <stop id="stop3727" offset="0.5" stop-color="#26ee2d"/>
   <stop id="stop3729" offset="0.805" stop-color="#26ee2d"/>
   <stop offset="1" id="stop3731" stop-color="#26ee2d" stop-opacity="0"/>
  </linearGradient>
  <linearGradient inkscape:collect="always" xlink:href="#outerBackgroundGradient-0" id="linearGradient4262" x1="292" x2="332" gradientUnits="userSpaceOnUse" gradientTransform="matrix(0,-1,1,0,68,556)"/>
  <linearGradient id="outerBackgroundGradient-0">
   <stop id="stop3864-8-6-2" stop-color="#232d1e"/>
   <stop offset="1" id="stop3866-9-1-6" stop-color="#36432f"/>
  </linearGradient>
  <linearGradient x2="332" x1="292" gradientTransform="matrix(0,-1,1,0,42,180)" gradientUnits="userSpaceOnUse" id="linearGradient3179" xlink:href="#outerBackgroundGradient-0" inkscape:collect="always"/>
  <linearGradient inkscape:collect="always" xlink:href="#linearGradient3721" id="linearGradient3854" x1="2.5" x2="45.5" gradientUnits="userSpaceOnUse"/>
  <radialGradient inkscape:collect="always" xlink:href="#linearGradient26113-9-3-1" id="radialGradient4205" gradientUnits="userSpaceOnUse" gradientTransform="matrix(1.0571429,0,0,1.25,0.6,-10.875)" cx="40" cy="43.5" r="2"/>
  <radialGradient inkscape:collect="always" xlink:href="#linearGradient26113-9-3-1" id="radialGradient4214" gradientUnits="userSpaceOnUse" gradientTransform="matrix(1,0,0,0.75,2,10.875)" cx="40" cy="43.5" r="2"/>
  <radialGradient inkscape:collect="always" xlink:href="#linearGradient26113-9-3-1" id="radialGradient4202" gradientUnits="userSpaceOnUse" gradientTransform="matrix(1.0571429,0,0,1.25,-4.4000003,-10.875)" cx="9" cy="43.5" r="2"/>
  <radialGradient inkscape:collect="always" xlink:href="#linearGradient26113-9-3-1" id="radialGradient4211" gradientUnits="userSpaceOnUse" gradientTransform="matrix(1,0,0,0.75,-3.0000003,10.875)" cx="9" cy="43.5" r="2"/>
  <linearGradient inkscape:collect="always" xlink:href="#linearGradient3960" id="linearGradient4208" gradientUnits="userSpaceOnUse" y1="45" x2="0" y2="42" gradientTransform="matrix(1.0571429,0,0,1.6666667,-5.4000003,-29)"/>
  <linearGradient id="linearGradient3960">
   <stop id="stop3962" stop-opacity="0"/>
   <stop id="stop3970" offset="0.5"/>
   <stop offset="1" id="stop3964" stop-opacity="0"/>
  </linearGradient>
  <linearGradient inkscape:collect="always" xlink:href="#linearGradient3960" id="linearGradient4217" gradientUnits="userSpaceOnUse" y1="45" x2="0" y2="42" gradientTransform="translate(-4.0000003,0)"/>
 </defs>
 <g id="g3111">
  <path d="m 42.885716,41.000001 0,5 0.528571,0 c 0.878486,0 1.585715,-1.115 1.585715,-2.5 0,-1.385 -0.707229,-2.5 -1.585715,-2.5 l -0.528571,0 z" id="path3987" inkscape:connector-curvature="0" opacity="0.12" fill="url(#radialGradient4205)"/>
  <path inkscape:connector-curvature="0" id="rect3940" d="m 42,42 0,3 0.5,0 C 43.331,45 44,44.331 44,43.5 44,42.669 43.331,42 42.5,42 L 42,42 z" opacity="0.12" fill="url(#radialGradient4214)"/>
  <path d="M 4.4866072,41.000001 C 3.6630268,41.000001 3,42.045313 3,43.343751 l 0,0.3125 c 0,1.298439 0.6630268,2.34375 1.4866072,2.34375 l 0.6276786,0 0,-5 -0.6276786,0 z" id="path3989" inkscape:connector-curvature="0" opacity="0.12" fill="url(#radialGradient4202)"/>
  <path inkscape:connector-curvature="0" id="rect3942" d="m 5.4062497,42 c -0.7790625,0 -1.40625,0.627187 -1.40625,1.40625 l 0,0.1875 c 0,0.779063 0.6271875,1.40625 1.40625,1.40625 l 0.59375,0 0,-3 -0.59375,0 z" opacity="0.12" fill="url(#radialGradient4211)"/>
  <path sodipodi:nodetypes="ccccc" inkscape:connector-curvature="0" id="rect3985" d="m 5.1141432,41 37.7717148,0 0,5 -37.7717148,0 z" opacity="0.12" fill="url(#linearGradient4208)"/>
  <path sodipodi:nodetypes="ccccc" inkscape:connector-curvature="0" id="rect3938" d="m 5.9998568,42 36.0002842,0 0,3 -36.0002842,0 z" opacity="0.12" fill="url(#linearGradient4217)"/>
 </g>
 <rect rx="1.95" transform="matrix(0,-1,-1,0,0,0)" y="-43.5" x="-43.5" height="39" width="39" id="rect4073" fill="url(#linearGradient4083)"/>
 <rect id="rect4085" width="39" height="39" x="-43.5" y="-43.5" transform="matrix(0,-1,-1,0,0,0)" rx="1.95" opacity="0.61" fill="none" stroke="#000000"/>
 <path inkscape:connector-curvature="0" d="M 6.4375,5.00002 C 5.62555,5.00002 5,5.62557 5,6.43752 l 0,1 C 5,6.62557 5.62555,6.00002 6.4375,6.00002 l 35.125,0 c 0.81195,0 1.4375,0.62555 1.4375,1.4375 l 0,-1 c 0,-0.81195 -0.62555,-1.4375 -1.4375,-1.4375 l -35.125,0 z" id="rect4089-4" opacity="0.15" fill="#ffffff"/>
 <path transform="matrix(0,1,-1,0,280,-784)" d="M 790.4375,237 C 789.62555,237 789,237.62555 789,238.4375 l 0,35.09375 c 0,0.812 0.62555,1.46875 1.4375,1.46875 l 35.125,0 c 0.81195,0 1.4375,-0.65675 1.4375,-1.46875 l 0,-35.09375 C 827,237.62555 826.37445,237 825.5625,237 l -35.125,0 z" id="path4128" clip-path="url(#clipPath4130)" inkscape:connector-curvature="0" opacity="0.1" fill="none" stroke="url(#linearGradient4140)" stroke-width="2"/>
 <path id="path4105" d="M 6.4375,43.000017 C 5.62555,43.000017 5,42.374417 5,41.562517 L 5,40.56252 c 0,0.811897 0.62555,1.437497 1.4375,1.437497 l 35.125,0 c 0.81195,0 1.4375,-0.6256 1.4375,-1.437497 l 0,0.999997 c 0,0.8119 -0.62555,1.4375 -1.4375,1.4375 l -35.125,0 z" inkscape:connector-curvature="0" opacity="0.1" fill="#ffffff"/>
 <g inkscape:groupmode="layer" id="layer2" inkscape:label="Symbol">
  <path inkscape:connector-curvature="0" d="m 13.539,13.38361 -2.40941,13.72844 -6.12959,0 0,1.10936 7.06562,0 1.9934,-11.42302 2.86009,17.61122 0.54602,3.02105 0.54601,-3.02105 1.23071,-8.37226 4.22947,0 0.62402,-1.9414 1.97606,7.14157 1.45605,-3.0681 15.47255,0 0,-1.10938 -16.16591,0 -0.48535,1.00538 -2.18407,-7.86958 -1.50805,4.73215 -4.36813,0 -0.84936,5.73751 -2.80809,-17.26455 -0.53735,-2.83161 z" id="path3267" sodipodi:nodetypes="ccccccccccccccccccccccccc" fill="url(#linearGradient4707)" fill-rule="evenodd"/>
  <path sodipodi:nodetypes="ccccccccccccccccccccccccc" id="path3846" d="m 13.539,13.38361 -2.40941,13.72844 -6.12959,0 0,1.10936 7.06562,0 1.9934,-11.42302 2.86009,17.61122 0.54602,3.02105 0.54601,-3.02105 1.23071,-8.37226 4.22947,0 0.62402,-1.9414 1.97606,7.14157 1.45605,-3.0681 15.47255,0 0,-1.10938 -16.16591,0 -0.48535,1.00538 -2.18407,-7.86958 -1.50805,4.73215 -4.36813,0 -0.84936,5.73751 -2.80809,-17.26455 -0.53735,-2.83161 z" inkscape:connector-curvature="0" opacity="0.1" fill="none" stroke="url(#linearGradient3854)" stroke-width="2"/>
 </g>
</svg>
