<?xml version="1.0" encoding="UTF-8" standalone="no"?>
<svg
   xmlns:dc="http://purl.org/dc/elements/1.1/"
   xmlns:cc="http://creativecommons.org/ns#"
   xmlns:rdf="http://www.w3.org/1999/02/22-rdf-syntax-ns#"
   xmlns:svg="http://www.w3.org/2000/svg"
   xmlns="http://www.w3.org/2000/svg"
   xmlns:xlink="http://www.w3.org/1999/xlink"
   id="svg3759"
   height="48"
   width="48"
   version="1.1">
  <metadata
     id="metadata37">
    <rdf:RDF>
      <cc:Work
         rdf:about="">
        <dc:format>image/svg+xml</dc:format>
        <dc:type
           rdf:resource="http://purl.org/dc/dcmitype/StillImage" />
        <dc:title />
      </cc:Work>
    </rdf:RDF>
  </metadata>
  <defs
     id="defs3761">
    <linearGradient
       id="linearGradient4428">
      <stop
         style="stop-color:#0d1808;stop-opacity:1"
         offset="0"
         id="stop4430" />
      <stop
         style="stop-color:#132906;stop-opacity:1"
         offset="1"
         id="stop4432" />
    </linearGradient>
    <linearGradient
       gradientUnits="userSpaceOnUse"
       y2="256"
       x2="827"
       y1="256"
       x1="789"
       id="linearGradient4140"
       xlink:href="#linearGradient4134" />
    <linearGradient
       id="linearGradient4134">
      <stop
         id="stop4136"
         offset="0"
         style="stop-color:#ffffff;stop-opacity:1;" />
      <stop
         id="stop4138"
         offset="1"
         style="stop-color:#ffffff;stop-opacity:0;" />
    </linearGradient>
    <clipPath
       id="clipPath4130"
       clipPathUnits="userSpaceOnUse">
      <path
         style="fill:#ba2222;fill-opacity:1;stroke:none"
         d="M 790.4375,237 C 789.62555,237 789,237.62555 789,238.4375 l 0,35.09375 c 0,0.812 0.62555,1.46875 1.4375,1.46875 l 35.125,0 c 0.81195,0 1.4375,-0.65675 1.4375,-1.46875 l 0,-35.09375 C 827,237.62555 826.37445,237 825.5625,237 l -35.125,0 z"
         id="path4132" />
    </clipPath>
    <linearGradient
       gradientTransform="translate(980.3622,784)"
       gradientUnits="userSpaceOnUse"
       y2="-808"
       x2="-984.86218"
       y1="-808"
       x1="-1023.8622"
       id="linearGradient4083"
       xlink:href="#linearGradient4428" />
    <linearGradient
       xlink:href="#linearGradient3721"
       id="linearGradient4707"
       gradientUnits="userSpaceOnUse"
       gradientTransform="translate(-288,-220.00001)"
       x1="291"
       y1="244"
       x2="333"
       y2="244" />
    <linearGradient
       id="linearGradient3721">
      <stop
         id="stop3723"
         offset="0"
         style="stop-color:#26ee2d;stop-opacity:0;" />
      <stop
         style="stop-color:#26ee2d;stop-opacity:1;"
         offset="0.1952381"
         id="stop3725" />
      <stop
         style="stop-color:#26ee2d;stop-opacity:1;"
         offset="0.5"
         id="stop3727" />
      <stop
         style="stop-color:#26ee2d;stop-opacity:1;"
         offset="0.80476189"
         id="stop3729" />
      <stop
         id="stop3731"
         offset="1"
         style="stop-color:#26ee2d;stop-opacity:0;" />
    </linearGradient>
    <linearGradient
       gradientUnits="userSpaceOnUse"
       y2="24"
       x2="45.5"
       y1="24"
       x1="2.5"
       id="linearGradient3854"
       xlink:href="#linearGradient3721" />
    <radialGradient
       r="2"
       fy="43.5"
       fx="40"
       cy="43.5"
       cx="40"
       gradientTransform="matrix(1.0571429,0,0,1.25,0.6,-10.875)"
       gradientUnits="userSpaceOnUse"
       id="radialGradient4205"
       xlink:href="#linearGradient3952" />
    <linearGradient
       id="linearGradient3952">
      <stop
         id="stop3954"
         offset="0"
         style="stop-color:#000000;stop-opacity:1;" />
      <stop
         id="stop3956"
         offset="1"
         style="stop-color:#000000;stop-opacity:0;" />
    </linearGradient>
    <radialGradient
       r="2"
       fy="43.5"
       fx="40"
       cy="43.5"
       cx="40"
       gradientTransform="matrix(1,0,0,0.75,2,10.875)"
       gradientUnits="userSpaceOnUse"
       id="radialGradient4214"
       xlink:href="#linearGradient3952" />
    <radialGradient
       r="2"
       fy="43.5"
       fx="9"
       cy="43.5"
       cx="9"
       gradientTransform="matrix(1.0571429,0,0,1.25,-4.4000003,-10.875)"
       gradientUnits="userSpaceOnUse"
       id="radialGradient4202"
       xlink:href="#linearGradient3944" />
    <linearGradient
       id="linearGradient3944">
      <stop
         id="stop3946"
         offset="0"
         style="stop-color:#000000;stop-opacity:1;" />
      <stop
         id="stop3948"
         offset="1"
         style="stop-color:#000000;stop-opacity:0;" />
    </linearGradient>
    <radialGradient
       r="2"
       fy="43.5"
       fx="9"
       cy="43.5"
       cx="9"
       gradientTransform="matrix(1,0,0,0.75,-3.0000003,10.875)"
       gradientUnits="userSpaceOnUse"
       id="radialGradient4211"
       xlink:href="#linearGradient3944" />
    <linearGradient
       gradientTransform="matrix(1.0571429,0,0,1.6666667,-5.4000003,-29)"
       y2="42"
       x2="25"
       y1="45"
       x1="25"
       gradientUnits="userSpaceOnUse"
       id="linearGradient4208"
       xlink:href="#linearGradient3960" />
    <linearGradient
       id="linearGradient3960">
      <stop
         id="stop3962"
         offset="0"
         style="stop-color:#000000;stop-opacity:0;" />
      <stop
         style="stop-color:#000000;stop-opacity:1;"
         offset="0.5"
         id="stop3970" />
      <stop
         id="stop3964"
         offset="1"
         style="stop-color:#000000;stop-opacity:0;" />
    </linearGradient>
    <linearGradient
       xlink:href="#linearGradient3960"
       id="linearGradient3172"
       gradientUnits="userSpaceOnUse"
       gradientTransform="translate(-4.0000003,0)"
       x1="25"
       y1="45"
       x2="25"
       y2="42" />
  </defs>
  <g
     id="g3111">
    <path
       id="path3987"
       d="m 42.885716,41.000001 0,5 0.528571,0 c 0.878486,0 1.585715,-1.115 1.585715,-2.5 0,-1.385 -0.707229,-2.5 -1.585715,-2.5 l -0.528571,0 z"
       style="opacity:0.12000002;fill:url(#radialGradient4205);fill-opacity:1;stroke:none" />
    <path
       style="opacity:0.12000002;fill:url(#radialGradient4214);fill-opacity:1;stroke:none"
       d="m 42,42 0,3 0.5,0 C 43.331,45 44,44.331 44,43.5 44,42.669 43.331,42 42.5,42 L 42,42 z"
       id="rect3940" />
    <path
       id="path3989"
       d="M 4.4866072,41.000001 C 3.6630268,41.000001 3,42.045313 3,43.343751 l 0,0.3125 c 0,1.298439 0.6630268,2.34375 1.4866072,2.34375 l 0.6276786,0 0,-5 -0.6276786,0 z"
       style="opacity:0.12000002;fill:url(#radialGradient4202);fill-opacity:1;stroke:none" />
    <path
       style="opacity:0.12000002;fill:url(#radialGradient4211);fill-opacity:1;stroke:none"
       d="m 5.4062497,42 c -0.7790625,0 -1.40625,0.627187 -1.40625,1.40625 l 0,0.1875 c 0,0.779063 0.6271875,1.40625 1.40625,1.40625 l 0.59375,0 0,-3 -0.59375,0 z"
       id="rect3942" />
    <path
       style="opacity:0.12000002;fill:url(#linearGradient4208);fill-opacity:1;stroke:none"
       d="m 5.1141432,41 37.7717148,0 0,5 -37.7717148,0 z"
       id="rect3985" />
    <path
       style="opacity:0.12000002;fill:url(#linearGradient3172);fill-opacity:1;stroke:none"
       d="m 5.9998568,42 36.0002842,0 0,3 -36.0002842,0 z"
       id="rect3938" />
  </g>
  <rect
     style="fill:url(#linearGradient4083);fill-opacity:1;stroke:none;display:inline;opacity:0.9"
     id="rect4073"
     width="39"
     height="39"
     x="-43.5"
     y="-43.5"
     transform="matrix(0,-1,-1,0,0,0)"
     ry="1.95"
     rx="1.9499974" />
  <rect
     rx="1.9499974"
     ry="1.95"
     transform="matrix(0,-1,-1,0,0,0)"
     y="-43.5"
     x="-43.5"
     height="39"
     width="39"
     id="rect4085"
     style="opacity:0.61000001;fill:none;stroke:#000000;stroke-opacity:1;display:inline" />
  <path
     id="rect4089-4"
     d="M 6.4375,5.00002 C 5.62555,5.00002 5,5.62557 5,6.43752 l 0,1 C 5,6.62557 5.62555,6.00002 6.4375,6.00002 l 35.125,0 c 0.81195,0 1.4375,0.62555 1.4375,1.4375 l 0,-1 c 0,-0.81195 -0.62555,-1.4375 -1.4375,-1.4375 l -35.125,0 z"
     style="opacity:0.15;fill:#ffffff;fill-opacity:1;stroke:none;display:inline" />
  <path
     clip-path="url(#clipPath4130)"
     id="path4128"
     d="M 790.4375,237 C 789.62555,237 789,237.62555 789,238.4375 l 0,35.09375 c 0,0.812 0.62555,1.46875 1.4375,1.46875 l 35.125,0 c 0.81195,0 1.4375,-0.65675 1.4375,-1.46875 l 0,-35.09375 C 827,237.62555 826.37445,237 825.5625,237 l -35.125,0 z"
     style="opacity:0.1;fill:none;stroke:url(#linearGradient4140);stroke-width:2;stroke-miterlimit:4;stroke-opacity:1;stroke-dasharray:none;display:inline"
     transform="matrix(0,1,-1,0,280,-784)" />
  <path
     style="opacity:0.1;fill:#ffffff;fill-opacity:1;stroke:none;display:inline"
     d="M 6.4375,43.000017 C 5.62555,43.000017 5,42.374417 5,41.562517 L 5,40.56252 c 0,0.811897 0.62555,1.437497 1.4375,1.437497 l 35.125,0 c 0.81195,0 1.4375,-0.6256 1.4375,-1.437497 l 0,0.999997 c 0,0.8119 -0.62555,1.4375 -1.4375,1.4375 l -35.125,0 z"
     id="path4105" />
  <g
     id="layer1" />
  <g
     style="display:inline"
     id="layer2">
    <path
       id="path3267"
       d="m 13.539,13.38361 -2.40941,13.72844 -6.12959,0 0,1.10936 7.06562,0 1.9934,-11.42302 2.86009,17.61122 0.54602,3.02105 0.54601,-3.02105 1.23071,-8.37226 4.22947,0 0.62402,-1.9414 1.97606,7.14157 1.45605,-3.0681 15.47255,0 0,-1.10938 -16.16591,0 -0.48535,1.00538 -2.18407,-7.86958 -1.50805,4.73215 -4.36813,0 -0.84936,5.73751 -2.80809,-17.26455 -0.53735,-2.83161 z"
       style="fill:url(#linearGradient4707);fill-opacity:1;fill-rule:evenodd;stroke:none;display:inline;enable-background:new" />
    <path
       style="opacity:0.1;fill:none;stroke:url(#linearGradient3854);stroke-width:2;stroke-miterlimit:4;stroke-opacity:1;stroke-dasharray:none;display:inline;enable-background:new"
       d="m 13.539,13.38361 -2.40941,13.72844 -6.12959,0 0,1.10936 7.06562,0 1.9934,-11.42302 2.86009,17.61122 0.54602,3.02105 0.54601,-3.02105 1.23071,-8.37226 4.22947,0 0.62402,-1.9414 1.97606,7.14157 1.45605,-3.0681 15.47255,0 0,-1.10938 -16.16591,0 -0.48535,1.00538 -2.18407,-7.86958 -1.50805,4.73215 -4.36813,0 -0.84936,5.73751 -2.80809,-17.26455 -0.53735,-2.83161 z"
       id="path3846" />
  </g>
</svg>
