<?xml version='1.0' encoding='UTF-8' standalone='no'?>
<svg height="16.01" xmlns:inkscape="http://www.inkscape.org/namespaces/inkscape" xmlns:sodipodi="http://sodipodi.sourceforge.net/DTD/sodipodi-0.dtd" version="1.1" width="16" xmlns="http://www.w3.org/2000/svg" enable-background="new">
 <metadata id="metadata90"/>
 <defs id="defs7386">
  <linearGradient id="linearGradient5606" osb:paint="solid">
   <stop id="stop5608"/>
  </linearGradient>
  <filter inkscape:collect="always" color-interpolation-filters="sRGB" id="filter7554">
   <feBlend inkscape:collect="always" id="feBlend7556" in2="BackgroundImage" mode="darken"/>
  </filter>
 </defs>
 <g inkscape:groupmode="layer" id="g6058" inkscape:label="apps" transform="translate(-508.00004,-483.99329)">
  <path inkscape:connector-curvature="0" d="M 510.84375,485 C 510.5625,485.04688 510,485.25 510,486 l 0,13 c 0,1 1,1 1,1 l 10,0 c 1,0 1,-1 1,-1 0.0235,-0.0576 0,-13 0,-13 0,0 0,-1 -1,-1 l -10,0 c 0,0 -0.0625,-0.0156 -0.15625,0 z m 0.15625,1 10,0 0,3 0,10 -10,0 0,-13 z m 1,1 0,1 8,0 0,-1 -8,0 z m 0,2 0,1 8,0 0,-1 -8,0 z m 0,2 0,1 8,0 0,-1 -8,0 z m 0,2 0,1 5,0 0,-1 -5,0 z" id="path6072" fill="#bebebe"/>
 </g>
</svg>
