<?xml version='1.0' encoding='UTF-8' standalone='no'?>
<svg height="16" xmlns:inkscape="http://www.inkscape.org/namespaces/inkscape" xmlns:sodipodi="http://sodipodi.sourceforge.net/DTD/sodipodi-0.dtd" version="1.1" width="16" xmlns="http://www.w3.org/2000/svg" enable-background="new">
 <metadata id="metadata90"/>
 <defs id="defs7386">
  <linearGradient id="linearGradient5606" osb:paint="solid">
   <stop id="stop5608"/>
  </linearGradient>
  <filter inkscape:collect="always" color-interpolation-filters="sRGB" id="filter7554">
   <feBlend inkscape:collect="always" id="feBlend7556" in2="BackgroundImage" mode="darken"/>
  </filter>
 </defs>
 <g inkscape:groupmode="layer" id="g6058" inkscape:label="apps" transform="translate(-443.00002,-549)">
  <rect height="0.75" id="rect8730-0" width="0.75" x="447" y="554.02" fill="#bebebe" color="#bebebe" stroke-width="2"/>
  <rect height="0.75" id="rect8732-5" transform="scale(-1,1)" width="0.75" x="-447.75" y="559.27" fill="#bebebe" color="#bebebe" stroke-width="2"/>
  <rect height="0.5" id="rect8734-8" width="0.75" x="450" y="550.02" fill="#bebebe" color="#bebebe" stroke-width="2"/>
  <rect height="0.5" id="rect8736-4" width="0.75" x="450" y="563.52" fill="#bebebe" color="#bebebe" stroke-width="2"/>
  <path inkscape:connector-curvature="0" d="m 450,550.53125 0,13 1,0 0,-13 -1,0 z" id="path5783-7" color="#000000" fill="#bebebe"/>
  <path inkscape:connector-curvature="0" d="m 450.71875,550 a 0.750075,0.750075 0 0 0 -0.46875,1.3125 l 2.875,2.65625 -3.09375,2.46875 a 0.750075,0.750075 0 0 0 0,1.15625 l 3.09375,2.46875 -2.875,2.65625 a 0.750075,0.750075 0 1 0 1,1.09375 l 3.5,-3.25 a 0.750075,0.750075 0 0 0 -0.0312,-1.125 L 451.6875,557 l 3.03125,-2.40625 a 0.750075,0.750075 0 0 0 0.0312,-1.125 l -3.5,-3.25 A 0.750075,0.750075 0 0 0 450.71875,550 z" id="path5005-6" color="#000000" stroke-width="1.5" fill="#bebebe"/>
  <path inkscape:connector-curvature="0" d="m 447.65625,554 a 0.750075,0.750075 0 0 0 -0.375,1.34375 L 449.3125,557 l -2.03125,1.6875 a 0.750075,0.750075 0 1 0 0.9375,1.15625 l 2.75,-2.25 0.71875,-0.5625 -0.71875,-0.59375 -2.75,-2.25 A 0.750075,0.750075 0 0 0 447.65625,554 z" id="path5781-7" color="#000000" stroke-width="1.5" fill="#bebebe"/>
 </g>
</svg>
