<?xml version='1.0' encoding='UTF-8' standalone='no'?>
<svg height="16" xmlns:inkscape="http://www.inkscape.org/namespaces/inkscape" xmlns:sodipodi="http://sodipodi.sourceforge.net/DTD/sodipodi-0.dtd" version="1.1" width="16" xmlns="http://www.w3.org/2000/svg" enable-background="new">
 <metadata id="metadata90"/>
 <defs id="defs7386">
  <linearGradient id="linearGradient5606" osb:paint="solid">
   <stop id="stop5608"/>
  </linearGradient>
  <filter inkscape:collect="always" color-interpolation-filters="sRGB" id="filter7554">
   <feBlend inkscape:collect="always" id="feBlend7556" in2="BackgroundImage" mode="darken"/>
  </filter>
 </defs>
 <g inkscape:groupmode="layer" id="layer9" inkscape:label="status" transform="translate(-417.00018,345)">
  <path inkscape:connector-curvature="0" d="m 422.00019,-340 0,3.09375 1.84375,-3.09375 z m 4,0 0,2 2,0 0,-2 z m 2,4.90625 -1.84375,3.09375 1.84375,0 z m -6,1.09375 0,2 2,0 0,-2 z" id="path7890" sodipodi:nodetypes="cccccccccccccccccc" opacity="0.35" fill="#444444"/>
  <path inkscape:connector-curvature="0" d="m 422.00019,-338 0,1.09375 0.65625,-1.09375 -0.65625,0 z m 6,2.90625 -1.84375,3.09375 1.84375,0 0,-3.09375 z m -6,1.09375 0,2 2,0 0,-2 -2,0 z" id="path7880" fill="#444444"/>
  <path inkscape:connector-curvature="0" d="m 423.00019,-344 0,1 4,0 0,-1 z m -2.15625,2 c -0.28125,0.0469 -0.84375,0.25 -0.84375,1 l 0,10 c 0,1 1,1 1,1 l 8,0 c 1,0 1,-1 1,-1 l 0,-10 c 0,0 0,-1 -1,-1 l -8,0 c 0,0 -0.0625,-0.0156 -0.15625,0 z m 0.15625,1 8,0 0,10 -8,0 z" id="path7884" sodipodi:nodetypes="ccccccsscsccsccccccc" fill="#444444"/>
  <path inkscape:connector-curvature="0" d="m 425.00019,-340 0,3 3,0 -3,5 0,-3 -3,0 z" id="path7886" sodipodi:nodetypes="ccccccc" fill="#444444"/>
  <path inkscape:connector-curvature="0" d="m 420.84394,-342 c -0.28125,0.0469 -0.84375,0.25 -0.84375,1 l 0,10 c 0,1 1,1 1,1 l 8,0 c 1,0 1,-1 1,-1 l 0,-10 c 0,0 0,-1 -1,-1 0,0 -5.33333,0 -8,0 -0.0521,0 -0.0625,-0.0156 -0.15625,0 z m 0.15625,1 8,0 0,10 -8,0 z" id="path7888" sodipodi:nodetypes="csscsccsscccccc" fill="#444444"/>
 </g>
</svg>
