<?xml version="1.0" encoding="UTF-8" standalone="no"?>
<svg xmlns="http://www.w3.org/2000/svg" xmlns:sodipodi="http://sodipodi.sourceforge.net/DTD/sodipodi-0.dtd" xmlns:inkscape="http://www.inkscape.org/namespaces/inkscape" height="16" version="1.1" width="16" enable-background="new">
 <metadata id="metadata90"/>
 <defs id="defs7386">
  <linearGradient id="linearGradient5606" osb:paint="solid">
   <stop id="stop5608"/>
  </linearGradient>
  <filter inkscape:collect="always" color-interpolation-filters="sRGB" id="filter7554">
   <feBlend inkscape:collect="always" id="feBlend7556" in2="BackgroundImage" mode="darken"/>
  </filter>
 </defs>
 <g inkscape:groupmode="layer" id="layer9" inkscape:label="status" transform="translate(-299.99742,397)">
  <g id="g3131" transform="translate(-3.028469,2.75)" fill="#444444">
   <path d="M 11,5 C 7.96565,5 5.23412,6.07815 2.96875,7.75 L 11,16.5 12,15.40625 12,15 l 0,-1 1,0 c 0.01675,-1.63737 1.35439,-3 3,-3 L 18.96875,7.71875 C 16.71214,6.06546 14.01105,5 11,5 z m -0.0625,1 c 2.39362,0 4.52424,0.83638 6.4375,2.03125 l -6.4375,7 L 4.5625,8 C 6.46342,6.82136 8.56786,6 10.9375,6 z" transform="translate(300.02589,-402.75)" id="path7350" inkscape:connector-curvature="0" color="#000000"/>
   <path id="path7352" d="m 310.96617,-393.34375 c -1.11918,0 -2.14739,0.25729 -3.09375,0.71875 l 3.09375,3.40625 3.09375,-3.375 c -0.94819,-0.46162 -1.97284,-0.75 -3.09375,-0.75 z" inkscape:connector-curvature="0" color="#000000"/>
  </g>
  <path inkscape:connector-curvature="0" d="m 313.0002,-388 c -1.108,0 -2,0.91081 -2,2.03125 l 0,0.96875 -1,0 0,1 0,2 0,1 1,0 4,0 1,0 0,-1 0,-2 0,-1 -1,0 0,-0.96875 c 0,-1.12 -0.892,-2.03125 -2,-2.03125 z m 0,1 c 0.554,0 1,0.44236 1,1 l 0,1 -2,0 0,-1 c 0,-0.55764 0.446,-1 1,-1 z" id="path5983" sodipodi:nodetypes="ssccccccccccccssssccss" fill="#444444"/>
 </g>
</svg>
