<?xml version="1.0" encoding="UTF-8" standalone="no"?>
<svg
   xmlns:osb="http://www.openswatchbook.org/uri/2009/osb"
   xmlns:dc="http://purl.org/dc/elements/1.1/"
   xmlns:cc="http://creativecommons.org/ns#"
   xmlns:rdf="http://www.w3.org/1999/02/22-rdf-syntax-ns#"
   xmlns:svg="http://www.w3.org/2000/svg"
   xmlns="http://www.w3.org/2000/svg"
   height="16"
   id="svg7384"
   style="enable-background:new"
   version="1.1"
   width="16.000017">
  <metadata
     id="metadata90">
    <rdf:RDF>
      <cc:Work
         rdf:about="">
        <dc:format>image/svg+xml</dc:format>
        <dc:type
           rdf:resource="http://purl.org/dc/dcmitype/StillImage" />
        <dc:title>Moka Symbolic Icon Theme</dc:title>
      </cc:Work>
    </rdf:RDF>
  </metadata>
  <title
     id="title8473">Moka Symbolic Icon Theme</title>
  <defs
     id="defs7386">
    <linearGradient
       id="linearGradient5606"
       osb:paint="solid">
      <stop
         id="stop5608"
         offset="0"
         style="stop-color:#000000;stop-opacity:1;" />
    </linearGradient>
    <filter
       color-interpolation-filters="sRGB"
       id="filter7554">
      <feBlend
         id="feBlend7556"
         in2="BackgroundImage"
         mode="darken" />
    </filter>
  </defs>
  <g
     id="layer9"
     style="display:inline"
     transform="translate(-281.0002,428.00336)">
    <path
       style="opacity:1;color:#000000;fill:#444444;fill-opacity:1;fill-rule:nonzero;stroke:none;stroke-width:1;marker:none;visibility:visible;display:inline;overflow:visible;enable-background:accumulate"
       d="M 8.03125 2 C 4.9969 2 2.26537 3.07815 0 4.75 L 8.03125 13.5 L 9 12.4375 L 9 12 L 9 11 L 10 11 C 10.01675 9.36263 11.35439 8 13 8 L 13.03125 8 L 16 4.71875 C 13.74339 3.06546 11.0423 2 8.03125 2 z "
       transform="translate(281.0002,-428.00336)"
       id="path5907" />
    <path
       style="fill:#444444"
       id="path3767"
       d="m 294.0004,-419.00336 c -1.108,0 -2,0.91081 -2,2.03125 l 0,0.96875 -1,0 0,1 0,2 0,1 1,0 4,0 1,0 0,-1 0,-2 0,-1 -1,0 0,-0.96875 c 0,-1.12 -0.892,-2.03125 -2,-2.03125 z m 0,1 c 0.554,0 1,0.44236 1,1 l 0,1 -2,0 0,-1 c 0,-0.55764 0.446,-1 1,-1 z" />
  </g>
  <g
     id="layer10"
     style="display:inline;filter:url(#filter7554)"
     transform="translate(-281.0002,428.00336)" />
  <g
     id="layer1"
     style="display:inline"
     transform="translate(-40,-188.99664)" />
  <g
     id="layer14"
     style="display:inline"
     transform="translate(-281.0002,428.00336)" />
  <g
     id="layer15"
     style="display:inline"
     transform="translate(-281.0002,428.00336)" />
  <g
     id="g71291"
     style="display:inline"
     transform="translate(-281.0002,428.00336)" />
  <g
     id="layer2"
     style="display:inline"
     transform="translate(-40,-38.996641)" />
  <g
     id="g6058"
     style="display:inline"
     transform="translate(-40,-38.996641)" />
  <g
     id="layer12"
     style="display:inline"
     transform="translate(-281.0002,428.00336)" />
</svg>
