<?xml version="1.0" encoding="UTF-8" standalone="no"?>
<svg
   xmlns:dc="http://purl.org/dc/elements/1.1/"
   xmlns:cc="http://creativecommons.org/ns#"
   xmlns:rdf="http://www.w3.org/1999/02/22-rdf-syntax-ns#"
   xmlns:svg="http://www.w3.org/2000/svg"
   xmlns="http://www.w3.org/2000/svg"
   version="1.0"
   width="16"
   height="16"
   id="svg2">
  <defs
     id="defs8" />
  <metadata
     id="metadata12">
    <rdf:RDF>
      <cc:Work
         rdf:about="">
        <dc:format>image/svg+xml</dc:format>
        <dc:type
           rdf:resource="http://purl.org/dc/dcmitype/StillImage" />
      </cc:Work>
    </rdf:RDF>
  </metadata>
  <path
     id="path3767"
     d="m 13,9 c -1.108,0 -2,0.91081 -2,2.03125 L 11,12 l -1,0 0,1 0,2 0,1 1,0 4,0 1,0 0,-1 0,-2 0,-1 -1,0 0,-0.96875 C 15,9.91125 14.108,9 13,9 z m 0,1 c 0.554,0 1,0.44236 1,1 l 0,1 -2,0 0,-1 c 0,-0.55764 0.446,-1 1,-1 z"
     fill="#444444" />
</svg>
