<?xml version='1.0' encoding='UTF-8' standalone='no'?>
<svg height="24" xmlns:inkscape="http://www.inkscape.org/namespaces/inkscape" xmlns:sodipodi="http://sodipodi.sourceforge.net/DTD/sodipodi-0.dtd" version="1.1" width="24" xmlns="http://www.w3.org/2000/svg">
 <metadata id="metadata90"/>
 <g inkscape:groupmode="layer" id="layer9" inkscape:label="status" transform="translate(-433.00022,-89)">
  <path inkscape:connector-curvature="0" d="m 442.00022,98 0,3.09375 L 443.84397,98 z m 4,0 0,2 2,0 0,-2 z m 2,4.90625 -1.84375,3.09375 1.84375,0 z m -6,1.09375 0,2 2,0 0,-2 z" id="path7440-8" sodipodi:nodetypes="cccccccccccccccccc" fill="#bebebe"/>
  <path inkscape:connector-curvature="0" d="m 443.00022,94 0,1 4,0 0,-1 z m -2.15625,2 c -0.28125,0.0469 -0.84375,0.25 -0.84375,1 l 0,10 c 0,1 1,1 1,1 l 8,0 c 1,0 1,-1 1,-1 l 0,-10 c 0,0 0,-1 -1,-1 l -8,0 c 0,0 -0.0625,-0.0156 -0.15625,0 z m 0.15625,1 8,0 0,10 -8,0 z" id="path7444-2" sodipodi:nodetypes="ccccccsscsccsccccccc" fill="#bebebe"/>
  <path inkscape:connector-curvature="0" d="m 445.00022,98 0,3 3,0 -3,5 0,-3 -3,0 z" id="path7832" sodipodi:nodetypes="ccccccc" fill="#bebebe"/>
 </g>
</svg>
