<?xml version='1.0' encoding='UTF-8' standalone='no'?>
<svg height="24" xmlns:inkscape="http://www.inkscape.org/namespaces/inkscape" xmlns:sodipodi="http://sodipodi.sourceforge.net/DTD/sodipodi-0.dtd" version="1.1" width="24" xmlns="http://www.w3.org/2000/svg">
 <metadata id="metadata90"/>
 <g inkscape:groupmode="layer" id="layer9" inkscape:label="status" transform="translate(-385.0002,-89)">
  <path inkscape:connector-curvature="0" d="m 394.0002,98 0,8 6,0 0,-8 z" id="path7556" sodipodi:nodetypes="ccccc" opacity="0.35" fill="#e13f2b"/>
  <path inkscape:connector-curvature="0" d="m 395.0002,94 0,1 4,0 0,-1 z m -2.15625,2 c -0.28125,0.0469 -0.84375,0.25 -0.84375,1 l 0,10 c 0,1 1,1 1,1 l 7,0 0,-1 -7,0 0,-10 8,0 0,1 1,0 0,-1 c 0,0 0,-1 -1,-1 l -8,0 c 0,0 -0.0625,-0.0156 -0.15625,0 z" id="path7560" sodipodi:nodetypes="ccccccsscccccccccscc" fill="#bebebe"/>
  <path inkscape:connector-curvature="0" d="m 401.0002,99 0,5 0.25,2 1.5,0 0.25,-2 0,-5 z m 0,8 0,2 2,0 0,-2 z" id="path7562" sodipodi:nodetypes="cccccccccccc" fill="#e13f2b"/>
 </g>
</svg>
