<?xml version="1.0" encoding="UTF-8" standalone="no"?>
<svg
   xmlns:dc="http://purl.org/dc/elements/1.1/"
   xmlns:cc="http://creativecommons.org/ns#"
   xmlns:rdf="http://www.w3.org/1999/02/22-rdf-syntax-ns#"
   xmlns:svg="http://www.w3.org/2000/svg"
   xmlns="http://www.w3.org/2000/svg"
   width="24"
   version="1.1"
   id="svg2"
   height="24">
  <defs
     id="defs186" />
  <metadata
     id="metadata90">
    <rdf:RDF>
      <cc:Work
         rdf:about="">
        <dc:format>image/svg+xml</dc:format>
        <dc:type
           rdf:resource="http://purl.org/dc/dcmitype/StillImage" />
      </cc:Work>
    </rdf:RDF>
  </metadata>
  <title
     id="title8473">Faba Symbolic Icon Theme</title>
  <g
     transform="translate(-601.0002,-89)"
     id="layer9">
    <path
       style="color:#bebebe;fill:#bebebe;stroke:none"
       id="path3570"
       d="m 624.0002,93.999995 0,1.40625 0,1.59375 -5.55806,0 c -0.85695,0 -1.5,0.64305 -1.5,1.5 l 0,6.000005 c 0,2.46704 -2.03295,4.5 -4.5,4.5 l -7.94194,0 0,-3 7.94194,0 c 0.85695,0 1.5,-0.64306 1.5,-1.5 l 0,-6.000005 c 0,-2.46705 2.03295,-4.5 4.5,-4.5 z" />
    <path
       style="color:#bebebe;fill:#bebebe;stroke:none"
       id="path3572"
       d="m 612.44214,93.999995 c 0.34436,0 0.66128,0.0657 0.98438,0.14055 -0.72195,0.82665 -1.29188,1.7664 -1.5468,2.8593 l -7.37944,0 0,-3 7.94194,0 z M 624.0002,109 l -5.55806,0 c -0.34435,0 -0.66127,-0.0657 -0.98437,-0.14056 0.72195,-0.82672 1.29187,-1.76655 1.5468,-2.85944 l 4.99563,0 z" />
    <path
       style="fill:#bebebe;stroke:none"
       id="path3574"
       d="m 607.99982,90.999995 0,9 -6,-4.5 z" />
    <path
       style="fill:#bebebe;stroke:none"
       id="path3576"
       d="m 607.99982,103 0,9 -6,-4.5 z" />
  </g>
  <g
     transform="translate(-360,-72)"
     id="layer1" />
  <g
     transform="translate(-601.0002,-89)"
     id="layer12" />
</svg>
