<?xml version="1.0" encoding="UTF-8" standalone="no"?>
<svg xmlns="http://www.w3.org/2000/svg" xmlns:sodipodi="http://sodipodi.sourceforge.net/DTD/sodipodi-0.dtd" xmlns:inkscape="http://www.inkscape.org/namespaces/inkscape" width="24" height="24" version="1.1">
 <metadata id="metadata3401"/>
 <g id="layer1" inkscape:label="Layer 1" inkscape:groupmode="layer" transform="translate(0,8)">
  <g id="g3771" transform="translate(1,0)" opacity="0.2">
   <path inkscape:connector-curvature="0" d="m 15,-3 c -2.76999,0 -5,2.676 -5,6 l 0,4 c 0,3.324 2.23001,6 5,6 l 1,0 c 2.76999,0 5,-2.676 5,-6 l 0,-4 c 0,-3.324 -2.23001,-6 -5,-6 l 0,2 c 0.554,0 1,0.446 1,1 l 0,2 c 0,0.554 -0.446,1 -1,1 l 0,1 C 16,4.27614 15.77614,4.5 15.5,4.5 15.22386,4.5 15,4.27614 15,4 L 15,3 C 14.446,3 14,2.554 14,2 l 0,-2 c 0,-0.554 0.446,-1 1,-1 z m 0.5,3 C 15.223,0 15,0.223 15,0.5 l 0,1 C 15,1.777 15.223,2 15.5,2 15.777,2 16,1.777 16,1.5 l 0,-1 C 16,0.223 15.777,0 15.5,0 z" id="path3773" sodipodi:nodetypes="cssssssccsscssscssccsssssss" stroke="#333333" stroke-linejoin="round" stroke-linecap="round" color="#bebebe" stroke-width="0"/>
   <path id="path3775" d="M 3.5,-3 C 3.223,-3 3,-2.777 3,-2.5 L 3,-2 1.5,-2 C 1.223,-2 1,-1.777 1,-1.5 l 0,14 C 1,12.777 1.223,13 1.5,13 l 6,0 C 7.777,13 8,12.777 8,12.5 l 0,-14 C 8,-1.777 7.777,-2 7.5,-2 L 6,-2 6,-2.5 C 6,-2.777 5.777,-3 5.5,-3 z m -1.5,2 1.5,0 2,0 1.5,0 0,13 -5,0 z" inkscape:connector-curvature="0" sodipodi:nodetypes="sscsssssssscsssccccccc" stroke="#333333" stroke-linejoin="round" stroke-linecap="round" color="#bebebe" stroke-width="0"/>
   <path sodipodi:nodetypes="ccccc" inkscape:connector-curvature="0" d="m 3,6 0,5 3,0 0,-5 z" id="path3777" stroke="#333333" stroke-linejoin="round" stroke-linecap="round" color="#bebebe" stroke-width="0"/>
  </g>
  <g id="g2998" transform="translate(1,-1)" fill="#ffffff">
   <path sodipodi:nodetypes="cssssssccsscssscssccsssssss" id="path4289" d="m 15,-3 c -2.76999,0 -5,2.676 -5,6 l 0,4 c 0,3.324 2.23001,6 5,6 l 1,0 c 2.76999,0 5,-2.676 5,-6 l 0,-4 c 0,-3.324 -2.23001,-6 -5,-6 l 0,2 c 0.554,0 1,0.446 1,1 l 0,2 c 0,0.554 -0.446,1 -1,1 l 0,1 C 16,4.27614 15.77614,4.5 15.5,4.5 15.22386,4.5 15,4.27614 15,4 L 15,3 C 14.446,3 14,2.554 14,2 l 0,-2 c 0,-0.554 0.446,-1 1,-1 z m 0.5,3 C 15.223,0 15,0.223 15,0.5 l 0,1 C 15,1.777 15.223,2 15.5,2 15.777,2 16,1.777 16,1.5 l 0,-1 C 16,0.223 15.777,0 15.5,0 z" inkscape:connector-curvature="0" stroke="#333333" stroke-linejoin="round" stroke-linecap="round" color="#bebebe" stroke-width="0"/>
   <path sodipodi:nodetypes="sscsssssssscsssccccccc" inkscape:connector-curvature="0" d="M 3.5,-3 C 3.223,-3 3,-2.777 3,-2.5 L 3,-2 1.5,-2 C 1.223,-2 1,-1.777 1,-1.5 l 0,14 C 1,12.777 1.223,13 1.5,13 l 6,0 C 7.777,13 8,12.777 8,12.5 l 0,-14 C 8,-1.777 7.777,-2 7.5,-2 L 6,-2 6,-2.5 C 6,-2.777 5.777,-3 5.5,-3 z m -1.5,2 1.5,0 2,0 1.5,0 0,13 -5,0 z" id="path2994" stroke="#333333" stroke-linejoin="round" stroke-linecap="round" color="#bebebe" stroke-width="0"/>
   <path id="path2996" d="m 3,6 0,5 3,0 0,-5 z" inkscape:connector-curvature="0" sodipodi:nodetypes="ccccc" stroke="#333333" stroke-linejoin="round" stroke-linecap="round" color="#bebebe" stroke-width="0"/>
  </g>
 </g>
</svg>
