<?xml version="1.0" encoding="UTF-8" standalone="no"?>
<svg xmlns="http://www.w3.org/2000/svg" xmlns:sodipodi="http://sodipodi.sourceforge.net/DTD/sodipodi-0.dtd" xmlns:inkscape="http://www.inkscape.org/namespaces/inkscape" height="24" version="1.1" width="24" enable-background="new">
 <metadata id="metadata90"/>
 <defs id="defs7386">
  <linearGradient id="linearGradient5606" osb:paint="solid">
   <stop id="stop5608"/>
  </linearGradient>
  <filter inkscape:collect="always" color-interpolation-filters="sRGB" id="filter7554">
   <feBlend inkscape:collect="always" id="feBlend7556" in2="BackgroundImage" mode="darken"/>
  </filter>
 </defs>
 <g inkscape:groupmode="layer" id="layer12" inkscape:label="actions" transform="translate(-443.00018,411)">
  <path sodipodi:nodetypes="cccccsccccccsccccsssss" id="path4013" d="m 454.81502,-402.998 c 1.64243,-0.092 3.0955,1.17008 3.1875,2.8125 -1e-4,1.40136 -0.37771,1.92177 -1.59375,2.84375 -0.19093,0.14364 -0.3256,0.2506 -0.375,0.3125 -0.0494,0.0621 -0.0312,0.0332 -0.0312,0.0312 0.007,0.52831 -0.47163,1 -1,1 -0.52837,0 -1.007,-0.47169 -1,-1 0,-0.50239 0.22424,-0.94342 0.46875,-1.25 0.24451,-0.30663 0.4913,-0.51638 0.71875,-0.6875 0.20405,-0.16056 0.46083,-0.38454 0.6875,-0.65625 0.0935,-0.1121 0.129,-0.30766 0.125,-0.4375 l 0,-0.0312 c -0.0316,-0.56324 -0.49926,-0.9691 -1.0625,-0.9375 -0.56324,0.0316 -0.9691,0.43676 -0.9375,1 l -2,0 c -0.092,-1.64243 1.17007,-2.9079 2.8125,-3 z m 0.1875,8 c 0.55228,0 1,0.44772 1,1 0,0.55228 -0.44772,1 -1,1 -0.55228,0 -1,-0.44772 -1,-1 0,-0.55228 0.44772,-1 1,-1 z" inkscape:connector-curvature="0" opacity="0.2" color="#ffffff" stroke-width="2"/>
  <path d="M 14 4.46875 L 14 5.5 L 14 6.53125 C 14.387839 6.7542716 14.705617 7.0716477 15 7.40625 L 15 6.53125 L 18.71875 9.5 L 16.75 11.0625 C 16.899596 11.34311 17 11.658602 17 12 C 17 12.042365 17.00257 12.083305 17 12.125 L 19.8125 9.875 L 20.3125 9.5 L 19.8125 9.125 L 14.8125 5.125 L 14 4.46875 z M 14 14 L 14 14.53125 L 14.65625 14 L 14 14 z " transform="translate(443.00018,-411)" id="path3766" opacity="0.35" color="#000000" fill="#ffffff"/>
  <path d="M 8 10.0625 L 4.1875 13.125 L 3.6875 13.5 L 4.1875 13.875 L 9.1875 17.875 L 10 18.53125 L 10 17.5 L 10 16 C 10 15.609859 10.132458 15.288035 10.34375 15 L 9.5 15 L 9 15 L 9 15.5 L 9 16.46875 L 5.28125 13.5 L 8.40625 11 L 8.0625 11 L 8 10.0625 z M 9 11 L 9 11.5 L 9 12 L 9.5 12 L 10.1875 12 C 10.317707 11.659152 10.500888 11.358988 10.6875 11.125 C 10.7318 11.0695 10.7678 11.051 10.8125 11 L 10 11 L 9 11 z " transform="translate(443.00018,-411)" id="path3783" opacity="0.35" color="#000000" fill="#ffffff"/>
  <path inkscape:connector-curvature="0" d="m 454.81502,-403.99764 c 1.64243,-0.092 3.0955,1.17008 3.1875,2.8125 -1e-4,1.40136 -0.37771,1.92177 -1.59375,2.84375 -0.19093,0.14364 -0.3256,0.2506 -0.375,0.3125 -0.0494,0.0621 -0.0312,0.0332 -0.0312,0.0312 0.007,0.52831 -0.47163,1 -1,1 -0.52837,0 -1.007,-0.47169 -1,-1 0,-0.50239 0.22424,-0.94342 0.46875,-1.25 0.24451,-0.30663 0.4913,-0.51638 0.71875,-0.6875 0.20405,-0.16056 0.46083,-0.38454 0.6875,-0.65625 0.0935,-0.1121 0.129,-0.30766 0.125,-0.4375 l 0,-0.0312 c -0.0316,-0.56324 -0.49926,-0.9691 -1.0625,-0.9375 -0.56324,0.0316 -0.9691,0.43676 -0.9375,1 l -2,0 c -0.092,-1.64243 1.17007,-2.9079 2.8125,-3 z m 0.1875,8 c 0.55228,0 1,0.44772 1,1 0,0.55228 -0.44772,1 -1,1 -0.55228,0 -1,-0.44772 -1,-1 0,-0.55228 0.44772,-1 1,-1 z" id="path19592-2-2-0" sodipodi:nodetypes="cccccsccccccsccccsssss" fill="#ffffff" color="#ffffff" stroke-width="2"/>
 </g>
</svg>
