<?xml version="1.0" encoding="UTF-8" standalone="no"?>
<svg xmlns="http://www.w3.org/2000/svg" xmlns:sodipodi="http://sodipodi.sourceforge.net/DTD/sodipodi-0.dtd" xmlns:inkscape="http://www.inkscape.org/namespaces/inkscape" height="24" version="1.1" width="24" enable-background="new">
 <metadata id="metadata90"/>
 <defs id="defs7386">
  <linearGradient id="linearGradient5606" osb:paint="solid">
   <stop id="stop5608"/>
  </linearGradient>
  <filter inkscape:collect="always" color-interpolation-filters="sRGB" id="filter7554">
   <feBlend inkscape:collect="always" id="feBlend7556" in2="BackgroundImage" mode="darken"/>
  </filter>
 </defs>
 <g inkscape:groupmode="layer" id="layer9" inkscape:label="status" transform="translate(-340.96897,405)">
  <path d="m 353.00022,-398 c -3.03435,0 -5.76588,1.07815 -8.03125,2.75 l 8.03125,8.75 1,-1.09375 0,-0.40625 0,-1 1,0 c 0.0168,-1.63737 1.35439,-3 3,-3 l 2.96875,-3.28125 C 358.71236,-396.93454 356.01127,-398 353.00022,-398 z m -0.0625,1 c 2.39362,0 4.52424,0.83638 6.4375,2.03125 l -6.4375,7 -6.375,-7.03125 c 1.90092,-1.17864 4.00536,-2 6.375,-2 z" id="path3909" inkscape:connector-curvature="0" opacity="0.2" color="#000000"/>
  <path d="m 353.00022,-399 c -3.03435,0 -5.76588,1.07815 -8.03125,2.75 l 8.03125,8.75 1,-1.09375 0,-0.40625 0,-1 1,0 c 0.0168,-1.63737 1.35439,-3 3,-3 l 2.96875,-3.28125 C 358.71236,-397.93454 356.01127,-399 353.00022,-399 z m -0.0625,1 c 2.39362,0 4.52424,0.83638 6.4375,2.03125 l -6.4375,7 -6.375,-7.03125 c 1.90092,-1.17864 4.00536,-2 6.375,-2 z" id="path7616" inkscape:connector-curvature="0" fill="#ffffff" color="#000000"/>
  <path inkscape:connector-curvature="0" d="m 358.0002,-390.99999 c -1.108,0 -2,0.91081 -2,2.03125 l 0,0.96875 -1,0 0,1 0,2 0,1 1,0 4,0 1,0 0,-1 0,-2 0,-1 -1,0 0,-0.96875 c 0,-1.12 -0.892,-2.03125 -2,-2.03125 z m 0,1 c 0.554,0 1,0.44236 1,1 l 0,1 -2,0 0,-1 c 0,-0.55764 0.446,-1 1,-1 z" id="path3947" sodipodi:nodetypes="ssccccccccccccssssccss" opacity="0.2"/>
  <path sodipodi:nodetypes="ssccccccccccccssssccss" id="path3949" d="m 358.0002,-392 c -1.108,0 -2,0.91081 -2,2.03125 l 0,0.96875 -1,0 0,1 0,2 0,1 1,0 4,0 1,0 0,-1 0,-2 0,-1 -1,0 0,-0.96875 c 0,-1.12 -0.892,-2.03125 -2,-2.03125 z m 0,1 c 0.554,0 1,0.44236 1,1 l 0,1 -2,0 0,-1 c 0,-0.55764 0.446,-1 1,-1 z" inkscape:connector-curvature="0" fill="#ffffff"/>
 </g>
</svg>
