<?xml version="1.0" encoding="UTF-8" standalone="no"?>
<svg xmlns="http://www.w3.org/2000/svg" xmlns:sodipodi="http://sodipodi.sourceforge.net/DTD/sodipodi-0.dtd" xmlns:inkscape="http://www.inkscape.org/namespaces/inkscape" height="24" version="1.1" width="24" enable-background="new">
 <metadata id="metadata90"/>
 <defs id="defs7386">
  <linearGradient id="linearGradient5606" osb:paint="solid">
   <stop id="stop5608"/>
  </linearGradient>
  <filter inkscape:collect="always" color-interpolation-filters="sRGB" id="filter7554">
   <feBlend inkscape:collect="always" id="feBlend7556" in2="BackgroundImage" mode="darken"/>
  </filter>
 </defs>
 <g inkscape:groupmode="layer" id="layer9" inkscape:label="status" transform="translate(-280.99742,405)">
  <g transform="translate(3.968731,3)" id="g4941" opacity="0.2">
   <path d="M 11,6 C 7.96565,6 5.23412,7.07815 2.96875,8.75 L 11,17.5 12,16.40625 12,16 l 0,-1 1,0 c 0.01675,-1.63737 1.35439,-3 3,-3 L 18.96875,8.71875 C 16.71214,7.06546 14.01105,6 11,6 z m -0.0625,1 c 2.39362,0 4.52424,0.83638 6.4375,2.03125 l -6.4375,7 L 4.5625,9 C 6.46342,7.82136 8.56786,7 10.9375,7 z" transform="translate(278.02869,-407)" id="path4943" inkscape:connector-curvature="0" color="#000000"/>
   <path inkscape:connector-curvature="0" d="m 288.96897,-398.03125 c -1.48743,0 -2.84903,0.42163 -4.09375,1.0625 l 4.09375,4.5 4.125,-4.46875 c -1.25406,-0.64891 -2.62459,-1.09375 -4.125,-1.09375 z" id="path4945" color="#000000"/>
  </g>
  <g id="g4937" transform="translate(3.968731,2)">
   <path d="M 11,5 C 7.96565,5 5.23412,6.07815 2.96875,7.75 L 11,16.5 12,15.40625 12,15 l 0,-1 1,0 c 0.01675,-1.63737 1.35439,-3 3,-3 L 18.96875,7.71875 C 16.71214,6.06546 14.01105,5 11,5 z m -0.0625,1 c 2.39362,0 4.52424,0.83638 6.4375,2.03125 l -6.4375,7 L 4.5625,8 C 6.46342,6.82136 8.56786,6 10.9375,6 z" transform="translate(278.02869,-406)" id="path7329" inkscape:connector-curvature="0" fill="#ffffff" color="#000000"/>
   <path id="path7337" d="m 288.96897,-398.03125 c -1.48743,0 -2.84903,0.42163 -4.09375,1.0625 l 4.09375,4.5 4.125,-4.46875 c -1.25406,-0.64891 -2.62459,-1.09375 -4.125,-1.09375 z" inkscape:connector-curvature="0" fill="#ffffff" color="#000000"/>
  </g>
  <path inkscape:connector-curvature="0" d="m 298.0002,-390.99999 c -1.108,0 -2,0.91081 -2,2.03125 l 0,0.96875 -1,0 0,1 0,2 0,1 1,0 4,0 1,0 0,-1 0,-2 0,-1 -1,0 0,-0.96875 c 0,-1.12 -0.892,-2.03125 -2,-2.03125 z m 0,1 c 0.554,0 1,0.44236 1,1 l 0,1 -2,0 0,-1 c 0,-0.55764 0.446,-1 1,-1 z" id="path3947" sodipodi:nodetypes="ssccccccccccccssssccss" opacity="0.2"/>
  <path sodipodi:nodetypes="ssccccccccccccssssccss" id="path3949" d="m 298.0002,-392 c -1.108,0 -2,0.91081 -2,2.03125 l 0,0.96875 -1,0 0,1 0,2 0,1 1,0 4,0 1,0 0,-1 0,-2 0,-1 -1,0 0,-0.96875 c 0,-1.12 -0.892,-2.03125 -2,-2.03125 z m 0,1 c 0.554,0 1,0.44236 1,1 l 0,1 -2,0 0,-1 c 0,-0.55764 0.446,-1 1,-1 z" inkscape:connector-curvature="0" fill="#ffffff"/>
 </g>
</svg>
