<?xml version="1.0" encoding="UTF-8" standalone="no"?>
<svg xmlns="http://www.w3.org/2000/svg" xmlns:sodipodi="http://sodipodi.sourceforge.net/DTD/sodipodi-0.dtd" xmlns:inkscape="http://www.inkscape.org/namespaces/inkscape" height="24" version="1.1" width="24" enable-background="new">
 <metadata id="metadata90"/>
 <defs id="defs7386">
  <linearGradient id="linearGradient5606" osb:paint="solid">
   <stop id="stop5608"/>
  </linearGradient>
  <filter inkscape:collect="always" color-interpolation-filters="sRGB" id="filter7554">
   <feBlend inkscape:collect="always" id="feBlend7556" in2="BackgroundImage" mode="darken"/>
  </filter>
 </defs>
 <g inkscape:groupmode="layer" id="layer12" inkscape:label="actions" transform="translate(-443.00018,411)">
  <path d="M 14 4.46875 L 14 5.5 L 14 7 L 11.5 7 L 11 7 L 11 8 L 11.5 8 L 14.5 8 L 15 8 L 15 7.5 L 15 6.53125 L 18.71875 9.5 L 18 10.0625 L 18 11.3125 L 19.8125 9.875 L 20.3125 9.5 L 19.8125 9.125 L 14.8125 5.125 L 14 4.46875 z M 12 11 L 12 12 L 14 12 L 14 11 L 12 11 z " transform="translate(443.00018,-411)" id="path3766" opacity="0.35" color="#000000" fill="#ffffff"/>
  <path id="path3783" d="M 10,8.46875 9.1875,9.125 l -5,4 -0.5,0.375 0.5,0.375 5,4 L 10,18.53125 10,17.5 10,16 l 2.5,0 0.5,0 0,-1 -0.5,0 -3,0 L 9,15 9,15.5 9,16.46875 5.28125,13.5 9,10.53125 9,11.5 9,12 l 0.5,0 2.50002,0 0,-1 L 10,11 10,9.5 z" inkscape:connector-curvature="0" sodipodi:nodetypes="ccccccccccccccccccccccccccc" transform="translate(443.00018,-411)" opacity="0.35" color="#000000" fill="#ffffff"/>
  <path sodipodi:nodetypes="cccccccccccc" id="path7859" d="m 458.0002,-400 -1e-5,4 0.25,2 1.5,0 0.25,-2 1e-5,-4 z m 0,7 0,2 2,0 0,-2 z" inkscape:connector-curvature="0" opacity="0.2" color="#ffffff" stroke-width="2"/>
  <path inkscape:connector-curvature="0" d="m 458.0002,-401 -1e-5,4 0.25,2 1.5,0 0.25,-2 1e-5,-4 z m 0,7 0,2 2,0 0,-2 z" id="path6053" sodipodi:nodetypes="cccccccccccc" fill="#ef2929" color="#ffffff" stroke-width="2"/>
 </g>
</svg>
