<?xml version="1.0" encoding="UTF-8" standalone="no"?>
<!-- Created with Inkscape (http://www.inkscape.org/) -->

<svg
   xmlns:dc="http://purl.org/dc/elements/1.1/"
   xmlns:cc="http://creativecommons.org/ns#"
   xmlns:rdf="http://www.w3.org/1999/02/22-rdf-syntax-ns#"
   xmlns:svg="http://www.w3.org/2000/svg"
   xmlns="http://www.w3.org/2000/svg"
   xmlns:xlink="http://www.w3.org/1999/xlink"
   xmlns:sodipodi="http://sodipodi.sourceforge.net/DTD/sodipodi-0.dtd"
   xmlns:inkscape="http://www.inkscape.org/namespaces/inkscape"
   version="1.1"
   width="48"
   height="48"
   id="svg4103"
   inkscape:version="0.48.4 r9939"
   sodipodi:docname="bluetooth.svg">
  <sodipodi:namedview
     pagecolor="#ffffff"
     bordercolor="#666666"
     borderopacity="1"
     objecttolerance="10"
     gridtolerance="10"
     guidetolerance="10"
     inkscape:pageopacity="0"
     inkscape:pageshadow="2"
     inkscape:window-width="1364"
     inkscape:window-height="700"
     id="namedview35"
     showgrid="false"
     showborder="true"
     inkscape:zoom="1"
     inkscape:cx="24.04401"
     inkscape:cy="51.681516"
     inkscape:window-x="0"
     inkscape:window-y="28"
     inkscape:window-maximized="1"
     inkscape:current-layer="layer1"
     inkscape:snap-bbox="true"
     inkscape:bbox-paths="true"
     inkscape:bbox-nodes="true"
     inkscape:snap-bbox-edge-midpoints="true"
     inkscape:snap-bbox-midpoints="true">
    <inkscape:grid
       type="xygrid"
       id="grid3854"
       empspacing="5"
       visible="true"
       enabled="true"
       snapvisiblegridlinesonly="true" />
  </sodipodi:namedview>
  <defs
     id="defs4105">
    <linearGradient
       id="linearGradient3849">
      <stop
         id="stop3851"
         offset="0"
         style="stop-color:#5054ba;stop-opacity:1" />
      <stop
         id="stop3853"
         offset="1"
         style="stop-color:#1b229e;stop-opacity:1" />
    </linearGradient>
    <linearGradient
       x1="-21.666521"
       y1="29.19919"
       x2="-21.666521"
       y2="-5.7992778"
       id="linearGradient3054-2"
       xlink:href="#linearGradient3707-319-631-407-324-3-8-9-5-7-5-1"
       gradientUnits="userSpaceOnUse"
       gradientTransform="matrix(0.66665918,0,0,0.66669583,22.712231,0.1996879)" />
    <linearGradient
       id="linearGradient3707-319-631-407-324-3-8-9-5-7-5-1">
      <stop
         id="stop3760-7-3-2-1-3-9-1"
         style="stop-color:#185f9a;stop-opacity:1"
         offset="0" />
      <stop
         id="stop3762-8-4-4-7-5-5-8"
         style="stop-color:#599ec9;stop-opacity:1"
         offset="1" />
    </linearGradient>
    <linearGradient
       x1="71.204407"
       y1="6.2375584"
       x2="71.204407"
       y2="44.340794"
       id="linearGradient3050"
       xlink:href="#linearGradient4010"
       gradientUnits="userSpaceOnUse"
       gradientTransform="matrix(0.64224154,0,0,0.73432599,-29.943595,-2.6858196)" />
    <linearGradient
       id="linearGradient4010">
      <stop
         id="stop4012"
         style="stop-color:#ffffff;stop-opacity:1"
         offset="0" />
      <stop
         id="stop4014"
         style="stop-color:#ffffff;stop-opacity:0.23529412"
         offset="0.32362887" />
      <stop
         id="stop4016"
         style="stop-color:#ffffff;stop-opacity:0.15686275"
         offset="0.76134068" />
      <stop
         id="stop4018"
         style="stop-color:#ffffff;stop-opacity:0.39215687"
         offset="1" />
    </linearGradient>
    <radialGradient
       cx="3.9722471"
       cy="8.4497671"
       r="19.99999"
       fx="3.9722471"
       fy="8.4497671"
       id="radialGradient3057"
       xlink:href="#linearGradient2867-449-88-871-390-598-476-591-434-148-57-177-3-8-3"
       gradientUnits="userSpaceOnUse"
       gradientTransform="matrix(0,1.7715455,-1.6761799,-4.8218737e-8,30.163407,-9.650088)" />
    <linearGradient
       id="linearGradient2867-449-88-871-390-598-476-591-434-148-57-177-3-8-3">
      <stop
         id="stop3750-8-9-1"
         style="stop-color:#90dbec;stop-opacity:1"
         offset="0" />
      <stop
         id="stop3752-3-2-8"
         style="stop-color:#42baea;stop-opacity:1"
         offset="0.26238" />
      <stop
         id="stop3754-7-2-1"
         style="stop-color:#3689e6;stop-opacity:1"
         offset="0.704952" />
      <stop
         id="stop3756-9-3-3"
         style="stop-color:#2b63a0;stop-opacity:1"
         offset="1" />
    </linearGradient>
    <radialGradient
       cx="27"
       cy="45.047001"
       r="17.625"
       id="radialGradient3904"
       gradientUnits="userSpaceOnUse"
       gradientTransform="matrix(0.91545,0,6.5816e-6,0.20922,-0.71745,35.213)">
      <stop
         id="stop8694"
         style="stop-color:#000000;stop-opacity:1"
         offset="0" />
      <stop
         id="stop8696"
         style="stop-color:#000000;stop-opacity:0"
         offset="1" />
    </radialGradient>
    <radialGradient
       cx="27"
       cy="45.047001"
       r="17.625"
       id="radialGradient4099"
       xlink:href="#radialGradient3904"
       gradientUnits="userSpaceOnUse"
       gradientTransform="matrix(0.50858335,0,3.6564445e-6,0.17021288,2.2680833,21.394403)" />
    <linearGradient
       x1="-21.666521"
       y1="29.19919"
       x2="-21.666521"
       y2="-5.7992778"
       id="linearGradient4101"
       xlink:href="#linearGradient3707-319-631-407-324-3-8-9-5-7-5-1"
       gradientUnits="userSpaceOnUse"
       gradientTransform="matrix(0.66665918,0,0,0.66669583,22.712231,0.1996879)" />
    <linearGradient
       inkscape:collect="always"
       xlink:href="#outerBackgroundGradient-1"
       id="linearGradient5576"
       gradientUnits="userSpaceOnUse"
       gradientTransform="matrix(0,-1,1,0,-12,300)"
       x1="35"
       y1="156"
       x2="253"
       y2="156" />
    <linearGradient
       id="outerBackgroundGradient-1">
      <stop
         style="stop-color:#32369a;stop-opacity:1;"
         offset="0"
         id="stop3864-8-6-43" />
      <stop
         style="stop-color:#3c41be;stop-opacity:1;"
         offset="1"
         id="stop3866-9-1-4" />
    </linearGradient>
    <radialGradient
       inkscape:collect="always"
       xlink:href="#outerBackgroundGradient-1"
       id="radialGradient3843"
       gradientUnits="userSpaceOnUse"
       gradientTransform="matrix(0,1.7715455,-1.6761799,-4.8218737e-8,30.163407,-41.650091)"
       cx="3.9722471"
       cy="8.4497671"
       fx="3.9722471"
       fy="8.4497671"
       r="19.99999" />
    <radialGradient
       inkscape:collect="always"
       xlink:href="#linearGradient26113-9-3-1"
       id="radialGradient3755"
       gradientUnits="userSpaceOnUse"
       gradientTransform="matrix(1,0,0,0.37,0,24.5124)"
       cx="24.849752"
       cy="38.908627"
       fx="24.849752"
       fy="38.908627"
       r="20.203051" />
    <linearGradient
       inkscape:collect="always"
       id="linearGradient26113-9-3-1">
      <stop
         style="stop-color: rgb(0, 0, 0); stop-opacity: 1;"
         offset="0"
         id="stop26115-7-7-9" />
      <stop
         style="stop-color: rgb(0, 0, 0); stop-opacity: 0;"
         offset="1"
         id="stop26117-3-7-8" />
    </linearGradient>
    <radialGradient
       r="20.203051"
       fy="38.908627"
       fx="24.849752"
       cy="38.908627"
       cx="24.849752"
       gradientTransform="matrix(1.00851,0,0,0.373148,-0.211403,24.39)"
       gradientUnits="userSpaceOnUse"
       id="radialGradient3972"
       xlink:href="#linearGradient26121-3-8-2"
       inkscape:collect="always" />
    <linearGradient
       inkscape:collect="always"
       id="linearGradient26121-3-8-2">
      <stop
         style="stop-color: rgb(0, 0, 0); stop-opacity: 1;"
         offset="0"
         id="stop26123-4-7-8" />
      <stop
         style="stop-color: rgb(0, 0, 0); stop-opacity: 0;"
         offset="1"
         id="stop26125-3-9-9" />
    </linearGradient>
    <radialGradient
       r="20.203051"
       fy="38.908627"
       fx="24.849752"
       cy="38.908627"
       cx="24.849752"
       gradientTransform="matrix(1.00851,0,0,0.373148,-0.211403,24.39)"
       gradientUnits="userSpaceOnUse"
       id="radialGradient3988"
       xlink:href="#linearGradient26121-3-8-2"
       inkscape:collect="always" />
    <radialGradient
       inkscape:collect="always"
       xlink:href="#linearGradient26121-3-8-2"
       id="radialGradient3952"
       gradientUnits="userSpaceOnUse"
       gradientTransform="matrix(1.00851,0,0,0.373148,-0.211403,24.39)"
       cx="24.849752"
       cy="38.908627"
       fx="24.849752"
       fy="38.908627"
       r="20.203051" />
    <radialGradient
       inkscape:collect="always"
       xlink:href="#linearGradient26113-9-3-1"
       id="radialGradient3954"
       gradientUnits="userSpaceOnUse"
       gradientTransform="matrix(1,0,0,0.37,0,24.5124)"
       cx="24.849752"
       cy="38.908627"
       fx="24.849752"
       fy="38.908627"
       r="20.203051" />
    <radialGradient
       inkscape:collect="always"
       xlink:href="#linearGradient26121-3-8-2"
       id="radialGradient3959"
       gradientUnits="userSpaceOnUse"
       gradientTransform="matrix(1.00851,0,0,0.373148,-0.211403,24.39)"
       cx="24.849752"
       cy="38.908627"
       fx="24.849752"
       fy="38.908627"
       r="20.203051" />
    <radialGradient
       inkscape:collect="always"
       xlink:href="#linearGradient26113-9-3-1"
       id="radialGradient3961"
       gradientUnits="userSpaceOnUse"
       gradientTransform="matrix(1,0,0,0.37,0,24.5124)"
       cx="24.849752"
       cy="38.908627"
       fx="24.849752"
       fy="38.908627"
       r="20.203051" />
    <radialGradient
       inkscape:collect="always"
       xlink:href="#linearGradient26121-3-8-2"
       id="radialGradient3041"
       gradientUnits="userSpaceOnUse"
       gradientTransform="matrix(1.00851,0,0,0.373148,-0.211403,24.39)"
       cx="24.849752"
       cy="38.908627"
       fx="24.849752"
       fy="38.908627"
       r="20.203051" />
    <radialGradient
       inkscape:collect="always"
       xlink:href="#linearGradient26113-9-3-1"
       id="radialGradient3043"
       gradientUnits="userSpaceOnUse"
       gradientTransform="matrix(1,0,0,0.37,0,24.5124)"
       cx="24.849752"
       cy="38.908627"
       fx="24.849752"
       fy="38.908627"
       r="20.203051" />
    <radialGradient
       inkscape:collect="always"
       xlink:href="#outerBackgroundGradient-1"
       id="radialGradient3045"
       gradientUnits="userSpaceOnUse"
       gradientTransform="matrix(0,1.7715455,-1.6761799,-4.8218737e-8,30.163407,-41.650091)"
       cx="3.9722471"
       cy="8.4497671"
       fx="3.9722471"
       fy="8.4497671"
       r="19.99999" />
    <radialGradient
       inkscape:collect="always"
       xlink:href="#linearGradient3849"
       id="radialGradient3051"
       gradientUnits="userSpaceOnUse"
       gradientTransform="matrix(0,2.6225359,-2.3760784,-7.1381381e-8,44.077417,-29.971522)"
       cx="3.9722471"
       cy="8.4497671"
       fx="3.9722471"
       fy="8.4497671"
       r="19.99999" />
    <radialGradient
       inkscape:collect="always"
       xlink:href="#outerBackgroundGradient-1"
       id="radialGradient3836"
       gradientUnits="userSpaceOnUse"
       gradientTransform="matrix(0,-2.6225359,-2.3760784,7.1381381e-8,44.077417,61.971522)"
       cx="3.9722471"
       cy="8.4497671"
       fx="3.9722471"
       fy="8.4497671"
       r="19.99999" />
  </defs>
  <metadata
     id="metadata4108">
    <rdf:RDF>
      <cc:Work
         rdf:about="">
        <dc:format>image/svg+xml</dc:format>
        <dc:type
           rdf:resource="http://purl.org/dc/dcmitype/StillImage" />
        <dc:title></dc:title>
      </cc:Work>
    </rdf:RDF>
  </metadata>
  <g
     inkscape:groupmode="layer"
     id="layer1"
     inkscape:label="Background"
     transform="translate(0,16)">
    <g
       id="g3948"
       transform="matrix(1.2,0,0,1.5,-209.05898,-188.06278)">
      <path
         transform="matrix(0.51081599,0,0,0.46595786,181.30605,124.23221)"
         d="m 45.052803,38.908627 c 0,4.128399 -9.045214,7.475128 -20.203051,7.475128 -11.157836,0 -20.2030502,-3.346729 -20.2030502,-7.475128 0,-4.1284 9.0452142,-7.475129 20.2030502,-7.475129 11.157837,0 20.203051,3.346729 20.203051,7.475129 z"
         sodipodi:ry="7.4751287"
         sodipodi:rx="20.203051"
         sodipodi:cy="38.908627"
         sodipodi:cx="24.849752"
         id="path8606"
         style="fill:url(#radialGradient3041);fill-opacity:1;stroke:none;display:inline;filter:url(#filter5927);enable-background:new"
         sodipodi:type="arc" />
      <path
         sodipodi:type="arc"
         style="opacity:0.51836697;fill:url(#radialGradient3043);fill-opacity:1;stroke:none;display:inline;filter:url(#filter5788);enable-background:new"
         id="path8608"
         sodipodi:cx="24.849752"
         sodipodi:cy="38.908627"
         sodipodi:rx="20.203051"
         sodipodi:ry="7.4751287"
         d="m 45.052803,38.908627 c 0,4.128399 -9.045214,7.475128 -20.203051,7.475128 -11.157836,0 -20.2030502,-3.346729 -20.2030502,-7.475128 0,-4.1284 9.0452142,-7.475129 20.2030502,-7.475129 11.157837,0 20.203051,3.346729 20.203051,7.475129 z"
         transform="matrix(0.69053217,0,0,0.62989172,176.84045,117.49178)" />
    </g>
    <rect
       style="color:#000000;fill:url(#radialGradient3051);fill-opacity:1;fill-rule:nonzero;stroke:none;stroke-width:0.95313144;marker:none;visibility:visible;display:inline;overflow:visible;enable-background:accumulate"
       id="rect3363"
       y="-13.5"
       x="10.5"
       ry="13.5"
       rx="13.5"
       height="43"
       width="27" />
    <rect
       transform="scale(1,-1)"
       width="27"
       height="43"
       rx="13.5"
       ry="13.5"
       x="10.5"
       y="-29.5"
       id="rect3826"
       style="color:#000000;fill:none;fill-opacity:1;fill-rule:nonzero;stroke:#11007a;stroke-width:0.95313144000000005;marker:none;visibility:visible;display:inline;overflow:visible;enable-background:accumulate;stroke-opacity:1;opacity:0.81" />
    <path
       style="color:#000000;fill:#ffffff;fill-opacity:1;fill-rule:nonzero;stroke:none;stroke-width:0.95313144000000005;marker:none;visibility:visible;display:inline;overflow:visible;enable-background:accumulate;opacity:0.2"
       d="M 24 2.96875 C 16.776774 2.96875 10.96875 8.7767741 10.96875 16 L 10.96875 17 C 10.96875 9.7767741 16.776774 3.96875 24 3.96875 C 31.223226 3.96875 37.03125 9.7767741 37.03125 17 L 37.03125 16 C 37.03125 8.7767741 31.223226 2.96875 24 2.96875 z "
       transform="translate(0,-16)"
       id="rect3828" />
    <path
       id="path3842"
       d="M 24,29 C 16.776774,29 10.96875,23.191976 10.96875,15.96875 l 0,-1 C 10.96875,22.191976 16.776774,28 24,28 31.223226,28 37.03125,22.191976 37.03125,14.96875 l 0,1 C 37.03125,23.191976 31.223226,29 24,29 z"
       style="color:#000000;fill:#ffffff;fill-opacity:1;fill-rule:nonzero;stroke:none;stroke-width:0.95313144000000005;marker:none;visibility:visible;display:inline;overflow:visible;enable-background:accumulate;opacity:0.1"
       inkscape:connector-curvature="0" />
  </g>
  <g
     inkscape:groupmode="layer"
     id="layer2"
     inkscape:label="Symbol"
     transform="translate(0,16)">
    <path
       sodipodi:nodetypes="cccccccccccccccccccccccccccccccccccccccccc"
       inkscape:connector-curvature="0"
       id="path3847"
       d="m 23,-5 c 0,0 0,10.100999 0,10.166667 L 19.625,2.2083333 C 19.523888,2.1181933 19.420146,2.0428253 19.291667,2 l -0.625,0 L 18,2 18,2.7083333 C 17.98577,2.8048663 17.98577,2.9034733 18,3 c 0.0089,0.2882813 0.14975,0.5698653 0.375,0.75 L 22.083333,6.958333 18.375,10.208334 C 18.210162,10.305304 18.082614,10.453547 18,10.625 L 18,11.541667 18,12 l 0.625,0 0.541667,0 C 19.341639,11.95625 19.497504,11.877734 19.625,11.75 L 23,8.791667 l 0,4.375 0,4.458333 0,0.958333 L 23,19 l 0.458333,0 0.439799,0 c 0.180228,-0.06137 0.340851,-0.141335 0.458333,-0.291667 l 6,-5.666666 c 0.413823,-0.385624 0.392894,-1.137906 -0.04167,-1.5 l -5.375,-4.583334 5.375,-4.5416663 c 0.434561,-0.3620947 0.45549,-1.114376 0.04167,-1.5 l -6,-5.6666667 c -0.134326,-0.1338008 -0.315035,-0.2089371 -0.5,-0.25 l -0.416666,0 z m 1.023132,2.625 4.166667,3.9583333 -4.166667,3.5833337 z m 0,11.166667 4.166667,3.583333 -4.166667,3.958333 z"
       style="color:#bebebe;fill:#000000;fill-opacity:1;stroke-width:2;opacity:0.3" />
    <path
       style="color:#bebebe;fill:#ffffff;stroke-width:2"
       d="m 23,-4 c 0,0 0,10.100999 0,10.166667 L 19.625,3.2083333 C 19.523888,3.1181933 19.420146,3.0428253 19.291667,3 l -0.625,0 L 18,3 18,3.7083333 C 17.98577,3.8048663 17.98577,3.9034733 18,4 c 0.0089,0.2882813 0.14975,0.5698653 0.375,0.75 L 22.083333,7.958333 18.375,11.208334 C 18.210162,11.305304 18.082614,11.453547 18,11.625 L 18,12.541667 18,13 l 0.625,0 0.541667,0 C 19.341639,12.95625 19.497504,12.877734 19.625,12.75 L 23,9.791667 l 0,4.375 0,4.458333 0,0.958333 L 23,20 l 0.458333,0 0.439799,0 c 0.180228,-0.06137 0.340851,-0.141335 0.458333,-0.291667 l 6,-5.666666 c 0.413823,-0.385624 0.392894,-1.137906 -0.04167,-1.5 l -5.375,-4.583334 5.375,-4.5416663 c 0.434561,-0.3620947 0.45549,-1.114376 0.04167,-1.5 l -6,-5.6666667 c -0.134326,-0.1338008 -0.315035,-0.2089371 -0.5,-0.25 l -0.416666,0 z m 1.023132,2.625 4.166667,3.9583333 -4.166667,3.5833337 z m 0,11.166667 4.166667,3.583333 -4.166667,3.958333 z"
       id="rect8730"
       inkscape:connector-curvature="0"
       sodipodi:nodetypes="cccccccccccccccccccccccccccccccccccccccccc" />
  </g>
</svg>
