<?xml version="1.0" encoding="UTF-8" standalone="no"?>
<svg xmlns="http://www.w3.org/2000/svg" xmlns:xlink="http://www.w3.org/1999/xlink" xmlns:sodipodi="http://sodipodi.sourceforge.net/DTD/sodipodi-0.dtd" xmlns:inkscape="http://www.inkscape.org/namespaces/inkscape" version="1.1" width="48" height="48">
 <metadata id="metadata37"/>
 <defs id="defs3761">
  <linearGradient id="linearGradient4036">
   <stop id="stop4038" stop-color="#1c1c1c"/>
   <stop offset="1" id="stop4040" stop-color="#676767"/>
  </linearGradient>
  <linearGradient inkscape:collect="always" id="linearGradient4010">
   <stop id="stop4012"/>
   <stop offset="1" id="stop4014" stop-opacity="0"/>
  </linearGradient>
  <linearGradient id="linearGradient3907">
   <stop id="stop3909" stop-color="#ffffff"/>
   <stop offset="1" id="stop3911" stop-color="#b6b6b6"/>
  </linearGradient>
  <linearGradient inkscape:collect="always" id="linearGradient3894">
   <stop id="stop3896" stop-color="#ffffff"/>
   <stop offset="1" id="stop3898" stop-color="#ffffff" stop-opacity="0"/>
  </linearGradient>
  <linearGradient id="linearGradient3881">
   <stop id="stop3883" stop-color="#2d2d2d"/>
   <stop offset="1" id="stop3885" stop-color="#3f3f3f"/>
  </linearGradient>
  <linearGradient id="linearGradient3828">
   <stop id="stop3830" stop-color="#676767"/>
   <stop id="stop3832" offset="1" stop-color="#676767"/>
  </linearGradient>
  <linearGradient inkscape:collect="always" id="linearGradient3805">
   <stop id="stop3807" stop-color="#555555"/>
   <stop offset="1" id="stop3809" stop-color="#555555" stop-opacity="0"/>
  </linearGradient>
  <linearGradient id="linearGradient3810">
   <stop id="stop3812" stop-color="#4cc7e0"/>
   <stop offset="1" id="stop3814" stop-color="#2061be"/>
  </linearGradient>
  <linearGradient id="linearGradient3988">
   <stop id="stop3990" stop-color="#eeeeec"/>
   <stop offset="1" id="stop3992" stop-color="#ffffff"/>
  </linearGradient>
  <radialGradient inkscape:collect="always" xlink:href="#linearGradient26113-9-3-1" id="radialGradient3755" gradientUnits="userSpaceOnUse" gradientTransform="matrix(1,0,0,0.37,0,24.5124)" cx="24.85" cy="38.909" r="20.2"/>
  <linearGradient inkscape:collect="always" id="linearGradient26113-9-3-1">
   <stop id="stop26115-7-7-9" stop-color="#000000"/>
   <stop offset="1" id="stop26117-3-7-8" stop-color="#000000" stop-opacity="0"/>
  </linearGradient>
  <radialGradient r="20.2" cy="38.909" cx="24.85" gradientTransform="matrix(1.00851,0,0,0.373148,-0.211403,24.39)" gradientUnits="userSpaceOnUse" id="radialGradient4274" xlink:href="#linearGradient26113-9-3-1" inkscape:collect="always"/>
  <linearGradient id="outerBackgroundGradient-4">
   <stop id="stop3864-8-6-31" stop-color="#ffcb3d"/>
   <stop offset="1" id="stop3866-9-1-8" stop-color="#ffee87"/>
  </linearGradient>
  <linearGradient inkscape:collect="always" xlink:href="#linearGradient3844" id="linearGradient3874" gradientUnits="userSpaceOnUse" gradientTransform="matrix(0,1,-1,0,48.000003,-2.9e-6)" x1="4.5" x2="43.5"/>
  <linearGradient inkscape:collect="always" xlink:href="#linearGradient4073" id="linearGradient4070" gradientUnits="userSpaceOnUse" gradientTransform="matrix(0,-1,1,0,5.0000306e-7,32)" x1="1" x2="31"/>
  <linearGradient id="linearGradient4073">
   <stop id="stop4075" stop-color="#323232"/>
   <stop id="stop4077" offset="1" stop-color="#5a5a5a"/>
  </linearGradient>
  <radialGradient inkscape:collect="always" xlink:href="#linearGradient3901" id="radialGradient3805" gradientUnits="userSpaceOnUse" gradientTransform="matrix(4.5367027e-8,-1.7632481,-1.8653063,0,31.761486,43.251051)" cx="6.16" cy="8.45" r="20"/>
  <linearGradient id="linearGradient3901">
   <stop id="stop3903" stop-color="#d2d2d2"/>
   <stop offset="1" id="stop3905" stop-color="#ffffff"/>
  </linearGradient>
  <linearGradient id="linearGradient3904">
   <stop id="stop3906" stop-color="#234683"/>
   <stop id="stop3908" offset="1" stop-color="#30589e"/>
  </linearGradient>
  <radialGradient inkscape:collect="always" xlink:href="#outerBackgroundGradient" id="radialGradient3805-1" gradientUnits="userSpaceOnUse" gradientTransform="matrix(4.5367027e-8,-1.7632481,-1.8653063,0,31.761486,43.251051)" cx="6.16" cy="8.45" r="20"/>
  <linearGradient id="outerBackgroundGradient">
   <stop id="stop3864-8-6" stop-color="#1450b9"/>
   <stop offset="1" id="stop3866-9-1" stop-color="#5187e6"/>
  </linearGradient>
  <linearGradient inkscape:collect="always" xlink:href="#outerBackgroundGradient-0" id="linearGradient4262" x1="292" x2="332" gradientUnits="userSpaceOnUse" gradientTransform="matrix(0,-1,1,0,68,556)"/>
  <linearGradient id="outerBackgroundGradient-0">
   <stop id="stop3864-8-6-3" stop-color="#c3c3c3"/>
   <stop offset="1" id="stop3866-9-1-7" stop-color="#ebebeb"/>
  </linearGradient>
  <linearGradient x2="332" x1="292" gradientTransform="matrix(0,-1,1,0,-149,343)" gradientUnits="userSpaceOnUse" id="linearGradient3088" xlink:href="#outerBackgroundGradient-0" inkscape:collect="always"/>
  <linearGradient inkscape:collect="always" xlink:href="#linearGradient3828" id="linearGradient3811" x1="9" x2="37" gradientUnits="userSpaceOnUse" gradientTransform="matrix(0,1.1428571,-1.1428571,0,50.285717,-2.2857144)"/>
  <linearGradient inkscape:collect="always" xlink:href="#linearGradient3805" id="linearGradient3815" gradientUnits="userSpaceOnUse" gradientTransform="matrix(0,0.99999997,-0.99999997,0,47,1.5)" x1="9" x2="37"/>
  <linearGradient inkscape:collect="always" xlink:href="#outerBackgroundGradient-0" id="linearGradient3826" gradientUnits="userSpaceOnUse" gradientTransform="matrix(0,0.99999997,-0.99999997,0,47,0.9999998)" x1="9" x2="37"/>
  <clipPath id="clipPath3838">
   <path d="M 24.000496,10 C 16.268261,10 10,16.268476 10,23.999824 10,31.73188 16.268332,38 24.000496,38 31.732376,38 38,31.73188 38,23.999824 38,16.268476 31.732376,10 24.000496,10 l 0,0 z" id="path3840"/>
  </clipPath>
  <clipPath id="clipPath3851">
   <path id="path3853" d="M 24,8 C 15.16316,8 8,15.164174 8,24 8,32.836635 15.163241,40 24,40 32.836434,40 40,32.836635 40,24 40,15.164174 32.836434,8 24,8 z m 0,2 c 7.73188,0 14,6.268652 14,14 0,7.732056 -6.26812,14 -14,14 -7.732164,0 -14,-6.267944 -14,-14 0,-7.731348 6.267765,-14 14,-14 z"/>
  </clipPath>
  <clipPath id="clipPath3865">
   <path d="m 32,24 a 8,8 0 1 1 -16,0 8,8 0 1 1 16,0 z" id="path3867"/>
  </clipPath>
  <clipPath id="clipPath3873">
   <path id="path3875" d="m 21,13 6,0 0,12.024233 L 25,27 l 2,2 0,6 -6,0 L 21,22.892505 23,21 21,19 z"/>
  </clipPath>
  <linearGradient inkscape:collect="always" xlink:href="#linearGradient3881" id="linearGradient3887" y1="14" x2="0" y2="33" gradientUnits="userSpaceOnUse"/>
  <linearGradient inkscape:collect="always" xlink:href="#linearGradient3894" id="linearGradient3900" x1="15" x2="33" gradientUnits="userSpaceOnUse" gradientTransform="matrix(0,-1,1,0,0,48)"/>
  <linearGradient inkscape:collect="always" xlink:href="#linearGradient3907" id="linearGradient3905" gradientUnits="userSpaceOnUse" gradientTransform="matrix(0,1.25,-1.25,0,52.75,-4.7500011)" x1="9" x2="37"/>
  <radialGradient inkscape:collect="always" xlink:href="#linearGradient4010" id="radialGradient4016" cx="24" cy="24" r="20" gradientUnits="userSpaceOnUse" gradientTransform="translate(0,4)"/>
  <linearGradient inkscape:collect="always" xlink:href="#outerBackgroundGradient-0-8" id="linearGradient3874-2" gradientUnits="userSpaceOnUse" gradientTransform="matrix(0,-1,-1,0,48.000003,48.000003)" x1="4.5" x2="43.5"/>
  <linearGradient id="outerBackgroundGradient-0-8">
   <stop id="stop3864-8-6-3-9" stop-color="#1c6aba"/>
   <stop offset="1" id="stop3866-9-1-7-5" stop-color="#4195ec"/>
  </linearGradient>
  <linearGradient inkscape:collect="always" xlink:href="#linearGradient3904" id="linearGradient3899" x1="4" x2="44" gradientUnits="userSpaceOnUse" gradientTransform="matrix(0,-1,1,0,3.1e-6,48.000003)"/>
  <linearGradient x2="44" x1="4" gradientTransform="matrix(0,-1,1,0,0,48.000003)" gradientUnits="userSpaceOnUse" id="linearGradient3946" xlink:href="#linearGradient4073-1" inkscape:collect="always"/>
  <linearGradient inkscape:collect="always" xlink:href="#linearGradient4073-1" id="linearGradient3899-9" x1="4" x2="44" gradientUnits="userSpaceOnUse" gradientTransform="matrix(0,-1,1,0,31.065941,18.259888)"/>
  <linearGradient id="linearGradient4073-1">
   <stop id="stop4075-1" stop-color="#7f6a2b"/>
   <stop id="stop4077-2" offset="1" stop-color="#9b8b27"/>
  </linearGradient>
  <radialGradient inkscape:collect="always" xlink:href="#linearGradient3844" id="radialGradient3840" cx="24" cy="12" r="19.5" gradientUnits="userSpaceOnUse" gradientTransform="matrix(-1.6410256,-6.048652e-8,6.8047335e-8,-1.8461538,63.384614,34.153847)"/>
  <linearGradient id="linearGradient3844">
   <stop id="stop3846" stop-color="#fae794"/>
   <stop offset="0.444" id="stop3848" stop-color="#ffe18e"/>
   <stop id="stop3850" offset="1" stop-color="#ffcb3d"/>
  </linearGradient>
  <radialGradient r="19.5" cy="12" cx="24" gradientTransform="matrix(-1.6410256,-6.048652e-8,6.8047335e-8,-1.8461538,94.450552,4.4137315)" gradientUnits="userSpaceOnUse" id="radialGradient3056" xlink:href="#linearGradient3844" inkscape:collect="always"/>
 </defs>
 <g inkscape:groupmode="layer" id="layer1" inkscape:label="Background">
  <path d="M 24,5 C 12.960351,5 4,13.96111 4,25 4,36.03985 12.960367,45 24,45 35.040018,45 44,36.03988 44,25 44,13.961083 35.04013,5 24,5 z" id="path4026" inkscape:connector-curvature="0" sodipodi:nodetypes="sssss" opacity="0.05" color="#000000" stroke-width="2" stroke="#000000"/>
  <path sodipodi:nodetypes="sssss" inkscape:connector-curvature="0" id="path4024" d="M 24,5 C 12.960351,5 4,13.96111 4,25 4,36.03985 12.960367,45 24,45 35.040018,45 44,36.03988 44,25 44,13.961083 35.04013,5 24,5 z" opacity="0.1" color="#000000" stroke="#000000"/>
  <path d="M 24,5 C 12.960351,5 4,13.96111 4,25 4,36.03985 12.960367,45 24,45 35.040018,45 44,36.03988 44,25 44,13.961083 35.04013,5 24,5 z" id="path4018" inkscape:connector-curvature="0" sodipodi:nodetypes="sssss" opacity="0.2" color="#000000"/>
  <path id="path6495" inkscape:connector-curvature="0" d="m 4.5000031,24.000691 c 0,-10.769899 8.7310909,-19.5006909 19.4997549,-19.5006909 10.769649,0 19.500245,8.7308909 19.500245,19.5006909 C 43.500003,34.770096 34.769407,43.5 23.999758,43.5 13.231094,43.5 4.5000031,34.770096 4.5000031,24.000691 l 0,0 z" fill="url(#linearGradient3874)"/>
  <path d="M 24 5 C 13.500552 5 5 13.500823 5 24 C 5 24.169463 5.0268485 24.331605 5.03125 24.5 C 5.299553 14.235412 13.670013 6 24 6 C 34.328993 6 42.700416 14.235427 42.96875 24.5 C 42.973152 24.331604 43 24.169465 43 24 C 43 13.500839 34.498438 5 24 5 z " id="path3872" opacity="0.4" fill="#ffffff"/>
  <path d="M 23.999309,4.5 C 34.769208,4.5 43.5,13.231091 43.5,23.999755 43.5,34.769404 34.769109,43.5 23.999309,43.5 13.229903,43.5 4.5,34.769404 4.5,23.999755 4.5,13.231091 13.229903,4.5 23.999309,4.5 l 0,0 z" inkscape:connector-curvature="0" id="path3796" opacity="0.91" fill="none" stroke="url(#linearGradient3946)"/>
  <path id="path3366" d="M 24,43 C 13.500552,43 5,34.499177 5,24 5,23.830537 5.0268485,23.668395 5.03125,23.5 5.299553,33.764588 13.670013,42 24,42 34.328993,42 42.700416,33.764573 42.96875,23.5 42.973152,23.668396 43,23.830535 43,24 43,34.499161 34.498438,43 24,43 z" inkscape:connector-curvature="0" opacity="0.1" fill="#ffffff"/>
 </g>
 <g inkscape:groupmode="layer" id="layer2" inkscape:label="Symbol">
  <path inkscape:connector-curvature="0" d="m 23.346689,11.028312 c -1.375362,0.06541 -2.763053,0.316792 -4.125,0.8125 -7.263717,2.643777 -11.0187763,10.673784 -8.375,17.9375 2.643777,7.263717 10.673783,11.018777 17.9375,8.375 7.263716,-2.643776 11.018777,-10.673784 8.375,-17.9375 -2.148068,-5.90177 -7.852599,-9.470921 -13.8125,-9.1875 z m 0.09375,1.96875 c 5.108486,-0.242932 10.002549,2.84759 11.84375,7.90625 2.266095,6.226043 -0.961457,13.108906 -7.1875,15.375 -6.226042,2.266095 -13.108906,-0.961457 -15.375,-7.1875 -2.266094,-6.226043 0.961457,-13.108906 7.1875,-15.375 1.167383,-0.424893 2.352369,-0.662689 3.53125,-0.71875 z m 1.46875,3 -5.90625,11 5,0 -0.90625,7 5.90625,-11 -5,0 0.90625,-7 z" id="path3903" opacity="0.3" fill="#ffffff" color="#bebebe"/>
  <path inkscape:connector-curvature="0" id="path6640" d="m 23.346688,10.028313 c -1.375362,0.06541 -2.763053,0.316792 -4.125,0.8125 -7.263717,2.643777 -11.0187763,10.673783 -8.375,17.9375 2.643777,7.263717 10.673783,11.018777 17.9375,8.375 7.263717,-2.643777 11.018777,-10.673783 8.375,-17.9375 -2.148068,-5.90177 -7.8526,-9.4709201 -13.8125,-9.1875 z m 0.09375,1.96875 c 5.108486,-0.242932 10.002548,2.84759 11.84375,7.90625 2.266094,6.226043 -0.961457,13.108906 -7.1875,15.375 -6.226043,2.266094 -13.108906,-0.961457 -15.375,-7.1875 -2.266094,-6.226043 0.961457,-13.108906 7.1875,-15.375 1.167383,-0.424893 2.352369,-0.662689 3.53125,-0.71875 z m 1.46875,3 -5.90625,11 5,0 -0.90625,7 5.90625,-11 -5,0 0.90625,-7 z" fill="#333333" color="#bebebe"/>
 </g>
</svg>
