<?xml version="1.0" encoding="UTF-8" standalone="no"?>
<!-- Created with Inkscape (http://www.inkscape.org/) -->

<svg
   xmlns:dc="http://purl.org/dc/elements/1.1/"
   xmlns:cc="http://creativecommons.org/ns#"
   xmlns:rdf="http://www.w3.org/1999/02/22-rdf-syntax-ns#"
   xmlns:svg="http://www.w3.org/2000/svg"
   xmlns="http://www.w3.org/2000/svg"
   xmlns:xlink="http://www.w3.org/1999/xlink"
   xmlns:sodipodi="http://sodipodi.sourceforge.net/DTD/sodipodi-0.dtd"
   xmlns:inkscape="http://www.inkscape.org/namespaces/inkscape"
   version="1.1"
   width="48"
   height="48"
   id="svg3759"
   inkscape:version="0.48.4 r9939"
   sodipodi:docname="preferences-system-time.svg">
  <sodipodi:namedview
     pagecolor="#ffffff"
     bordercolor="#666666"
     borderopacity="1"
     objecttolerance="10"
     gridtolerance="10"
     guidetolerance="10"
     inkscape:pageopacity="0"
     inkscape:pageshadow="2"
     inkscape:window-width="1364"
     inkscape:window-height="700"
     id="namedview36"
     showgrid="false"
     showborder="false"
     inkscape:zoom="1"
     inkscape:cx="25.275722"
     inkscape:cy="35.013555"
     inkscape:window-x="0"
     inkscape:window-y="28"
     inkscape:window-maximized="1"
     inkscape:current-layer="layer1"
     inkscape:snap-bbox="true"
     inkscape:bbox-paths="true"
     inkscape:bbox-nodes="true"
     inkscape:snap-bbox-edge-midpoints="true"
     inkscape:snap-bbox-midpoints="true">
    <inkscape:grid
       type="xygrid"
       id="grid3818"
       empspacing="4"
       visible="true"
       enabled="true"
       snapvisiblegridlinesonly="true" />
  </sodipodi:namedview>
  <metadata
     id="metadata37">
    <rdf:RDF>
      <cc:Work
         rdf:about="">
        <dc:format>image/svg+xml</dc:format>
        <dc:type
           rdf:resource="http://purl.org/dc/dcmitype/StillImage" />
        <dc:title />
      </cc:Work>
    </rdf:RDF>
  </metadata>
  <defs
     id="defs3761">
    <linearGradient
       id="linearGradient3801">
      <stop
         style="stop-color:#b4b4b4;stop-opacity:1;"
         offset="0"
         id="stop3803" />
      <stop
         id="stop3811"
         offset="0.5"
         style="stop-color:#ffffff;stop-opacity:1;" />
      <stop
         id="stop3809"
         offset="0.84084111"
         style="stop-color:#d2d2d2;stop-opacity:1;" />
      <stop
         style="stop-color:#d7d7d7;stop-opacity:1;"
         offset="1"
         id="stop3805" />
    </linearGradient>
    <linearGradient
       id="linearGradient3793">
      <stop
         id="stop3795"
         offset="0"
         style="stop-color:#ffffff;stop-opacity:1;" />
      <stop
         style="stop-color:#e7e7e7;stop-opacity:1;"
         offset="0.50711048"
         id="stop3797" />
      <stop
         id="stop3799"
         offset="1"
         style="stop-color:#e1e1e1;stop-opacity:1;" />
    </linearGradient>
    <linearGradient
       id="linearGradient3810">
      <stop
         style="stop-color:#4cc7e0;stop-opacity:1;"
         offset="0"
         id="stop3812" />
      <stop
         style="stop-color:#2061be;stop-opacity:1;"
         offset="1"
         id="stop3814" />
    </linearGradient>
    <linearGradient
       id="linearGradient3988">
      <stop
         style="stop-color:#eeeeec;stop-opacity:1;"
         offset="0"
         id="stop3990" />
      <stop
         style="stop-color:#ffffff;stop-opacity:1;"
         offset="1"
         id="stop3992" />
    </linearGradient>
    <radialGradient
       inkscape:collect="always"
       xlink:href="#linearGradient26113-9-3-1"
       id="radialGradient3755"
       gradientUnits="userSpaceOnUse"
       gradientTransform="matrix(1,0,0,0.37,0,24.5124)"
       cx="24.849752"
       cy="38.908627"
       fx="24.849752"
       fy="38.908627"
       r="20.203051" />
    <linearGradient
       inkscape:collect="always"
       id="linearGradient26113-9-3-1">
      <stop
         style="stop-color: rgb(0, 0, 0); stop-opacity: 1;"
         offset="0"
         id="stop26115-7-7-9" />
      <stop
         style="stop-color: rgb(0, 0, 0); stop-opacity: 0;"
         offset="1"
         id="stop26117-3-7-8" />
    </linearGradient>
    <linearGradient
       inkscape:collect="always"
       id="linearGradient26121-3-8-2">
      <stop
         style="stop-color: rgb(0, 0, 0); stop-opacity: 1;"
         offset="0"
         id="stop26123-4-7-8" />
      <stop
         style="stop-color: rgb(0, 0, 0); stop-opacity: 0;"
         offset="1"
         id="stop26125-3-9-9" />
    </linearGradient>
    <radialGradient
       r="20.203051"
       fy="38.908627"
       fx="24.849752"
       cy="38.908627"
       cx="24.849752"
       gradientTransform="matrix(1.00851,0,0,0.373148,-0.211403,24.39)"
       gradientUnits="userSpaceOnUse"
       id="radialGradient4274"
       xlink:href="#linearGradient26121-3-8-2"
       inkscape:collect="always" />
    <linearGradient
       id="outerBackgroundGradient-4">
      <stop
         style="stop-color:#ffcb3d;stop-opacity:1;"
         offset="0"
         id="stop3864-8-6-31" />
      <stop
         style="stop-color:#ffee87;stop-opacity:1;"
         offset="1"
         id="stop3866-9-1-8" />
    </linearGradient>
    <linearGradient
       inkscape:collect="always"
       xlink:href="#linearGradient4073"
       id="linearGradient4070"
       gradientUnits="userSpaceOnUse"
       gradientTransform="matrix(0,-1,1,0,5.0000306e-7,32)"
       x1="1"
       y1="15.999999"
       x2="31"
       y2="15.999999" />
    <linearGradient
       id="linearGradient4073">
      <stop
         id="stop4075"
         offset="0"
         style="stop-color:#323232;stop-opacity:1;" />
      <stop
         id="stop4077"
         offset="1"
         style="stop-color:#5a5a5a;stop-opacity:1;" />
    </linearGradient>
    <radialGradient
       inkscape:collect="always"
       xlink:href="#linearGradient3901"
       id="radialGradient3805"
       gradientUnits="userSpaceOnUse"
       gradientTransform="matrix(4.5367027e-8,-1.7632481,-1.8653063,0,31.761486,43.251051)"
       cx="6.1596723"
       cy="8.4497671"
       fx="6.1596723"
       fy="8.4497671"
       r="19.99999" />
    <linearGradient
       id="linearGradient3901">
      <stop
         style="stop-color:#f5f5f5;stop-opacity:1;"
         offset="0"
         id="stop3903" />
      <stop
         id="stop3791"
         offset="0.5"
         style="stop-color:#e8e8e8;stop-opacity:1;" />
      <stop
         style="stop-color:#c3c3c3;stop-opacity:1;"
         offset="1"
         id="stop3905" />
    </linearGradient>
    <radialGradient
       r="19.99999"
       fy="8.4497671"
       fx="6.1596723"
       cy="8.4497671"
       cx="6.1596723"
       gradientTransform="matrix(4.5367027e-8,-1.7632481,-1.8653063,0,149.76149,62.251052)"
       gradientUnits="userSpaceOnUse"
       id="radialGradient3043"
       xlink:href="#linearGradient3901"
       inkscape:collect="always" />
    <radialGradient
       inkscape:collect="always"
       xlink:href="#linearGradient3901"
       id="radialGradient3789"
       cx="24.000002"
       cy="18.472164"
       fx="24.000002"
       fy="18.472164"
       r="19.5"
       gradientUnits="userSpaceOnUse"
       gradientTransform="matrix(-1.846154,-5.2072031e-8,4.5634652e-8,-1.6180158,68.307698,41.888255)" />
    <clipPath
       clipPathUnits="userSpaceOnUse"
       id="clipPath3795">
      <path
         d="M 4.5000031,23.999309 C 4.5000031,34.769208 13.231094,43.5 23.999758,43.5 c 10.769649,0 19.500245,-8.730891 19.500245,-19.500691 0,-10.769405 -8.730596,-19.4993089 -19.500245,-19.4993089 -10.768664,0 -19.4997549,8.7299039 -19.4997549,19.4993089 l 0,0 z"
         inkscape:connector-curvature="0"
         id="path3797"
         style="fill:url(#radialGradient3799);fill-opacity:1;fill-rule:nonzero;stroke:none" />
    </clipPath>
    <radialGradient
       inkscape:collect="always"
       xlink:href="#linearGradient3901"
       id="radialGradient3799"
       gradientUnits="userSpaceOnUse"
       gradientTransform="matrix(-1.846154,-5.2072031e-8,4.5634652e-8,-1.6180158,68.307698,41.888255)"
       cx="24.000002"
       cy="18.472164"
       fx="24.000002"
       fy="18.472164"
       r="19.5" />
    <linearGradient
       inkscape:collect="always"
       xlink:href="#linearGradient3801"
       id="linearGradient3807"
       x1="8"
       y1="40"
       x2="40"
       y2="8"
       gradientUnits="userSpaceOnUse" />
    <radialGradient
       inkscape:collect="always"
       xlink:href="#linearGradient4271"
       id="radialGradient4379"
       gradientUnits="userSpaceOnUse"
       cx="23"
       cy="20"
       fx="23"
       fy="20"
       r="10" />
    <linearGradient
       inkscape:collect="always"
       id="linearGradient4271">
      <stop
         style="stop-color:#ffffff;stop-opacity:1;"
         offset="0"
         id="stop4273" />
      <stop
         style="stop-color:#ffffff;stop-opacity:0;"
         offset="1"
         id="stop4275" />
    </linearGradient>
    <radialGradient
       inkscape:collect="always"
       xlink:href="#linearGradient4271"
       id="radialGradient4381"
       gradientUnits="userSpaceOnUse"
       gradientTransform="matrix(0.50000002,6.2017721e-8,-6.1533745e-8,0.50000004,10.753172,9.6942657)"
       cx="20.493656"
       cy="18.611465"
       fx="20.493656"
       fy="18.611465"
       r="10" />
  </defs>
  <g
     inkscape:groupmode="layer"
     id="layer1"
     inkscape:label="Background">
    <path
       transform="matrix(0.76992689,0,0,0.70231451,4.8675074,13.673907)"
       d="m 45.052803,38.908627 a 20.203051,7.4751287 0 1 1 -40.4061012,0 20.203051,7.4751287 0 1 1 40.4061012,0 z"
       sodipodi:ry="7.4751287"
       sodipodi:rx="20.203051"
       sodipodi:cy="38.908627"
       sodipodi:cx="24.849752"
       id="path9641"
       style="fill:url(#radialGradient4274);fill-opacity:1;stroke:none;display:inline;filter:url(#filter5927);enable-background:new"
       sodipodi:type="arc" />
    <path
       sodipodi:type="arc"
       style="opacity:0.51836696999999998;fill:url(#radialGradient3755);fill-opacity:1;stroke:none;display:inline;filter:url(#filter5788);enable-background:new"
       id="path9643"
       sodipodi:cx="24.849752"
       sodipodi:cy="38.908627"
       sodipodi:rx="20.203051"
       sodipodi:ry="7.4751287"
       d="m 45.052803,38.908627 a 20.203051,7.4751287 0 1 1 -40.4061012,0 20.203051,7.4751287 0 1 1 40.4061012,0 z"
       transform="matrix(1.0408039,0,0,0.94940366,-1.8632526,3.514402)" />
    <path
       style="fill:url(#radialGradient3789);fill-opacity:1;fill-rule:nonzero;stroke:none"
       id="path6495"
       inkscape:connector-curvature="0"
       d="M 4.5000031,23.999309 C 4.5000031,34.769208 13.231094,43.5 23.999758,43.5 c 10.769649,0 19.500245,-8.730891 19.500245,-19.500691 0,-10.769405 -8.730596,-19.4993089 -19.500245,-19.4993089 -10.768664,0 -19.4997549,8.7299039 -19.4997549,19.4993089 l 0,0 z" />
    <path
       style="fill:#ffffff;fill-opacity:1;fill-rule:nonzero;stroke:none;opacity:0.40000000000000002"
       d="M 24 5 C 13.500552 5 5 13.500823 5 24 C 5 24.169463 5.0268485 24.331605 5.03125 24.5 C 5.299553 14.235412 13.670013 6 24 6 C 34.328993 6 42.700416 14.235427 42.96875 24.5 C 42.973152 24.331604 43 24.169465 43 24 C 43 13.500839 34.498438 5 24 5 z "
       id="path3872" />
    <path
       clip-path="url(#clipPath3795)"
       style="fill:none;fill-opacity:1;fill-rule:nonzero;stroke:#000000;stroke-opacity:1;stroke-width:6;stroke-miterlimit:4;stroke-dasharray:none;opacity:0.4"
       id="path3813"
       inkscape:connector-curvature="0"
       d="M 4.5000031,23.999309 C 4.5000031,34.769208 13.231094,43.5 23.999758,43.5 c 10.769649,0 19.500245,-8.730891 19.500245,-19.500691 0,-10.769405 -8.730596,-19.4993089 -19.500245,-19.4993089 -10.768664,0 -19.4997549,8.7299039 -19.4997549,19.4993089 l 0,0 z" />
    <path
       d="M 4.5000031,23.999309 C 4.5000031,34.769208 13.231094,43.5 23.999758,43.5 c 10.769649,0 19.500245,-8.730891 19.500245,-19.500691 0,-10.769405 -8.730596,-19.4993089 -19.500245,-19.4993089 -10.768664,0 -19.4997549,8.7299039 -19.4997549,19.4993089 l 0,0 z"
       inkscape:connector-curvature="0"
       id="path3023"
       style="fill:none;fill-opacity:1;fill-rule:nonzero;stroke:url(#linearGradient3807);stroke-opacity:1;stroke-width:4;stroke-miterlimit:4;stroke-dasharray:none"
       clip-path="url(#clipPath3795)" />
    <path
       d="m 23.999312,4.5000001 c 10.769899,0 19.500691,8.7310909 19.500691,19.4997549 C 43.500003,34.769404 34.769112,43.5 23.999312,43.5 13.229907,43.5 4.5000031,34.769404 4.5000031,23.999755 c 0,-10.768664 8.7299039,-19.4997549 19.4993089,-19.4997549 l 0,0 z"
       inkscape:connector-curvature="0"
       id="path3796"
       style="opacity:0.41;fill:none;stroke:#000000;stroke-width:1;stroke-miterlimit:4;stroke-opacity:1;stroke-dasharray:none" />
    <g
       transform="matrix(1.3995423,0,0,1.3995423,-9.5890121,-9.4641988)"
       id="g4395">
      <path
         transform="matrix(1.1789569,0,0,1.1789569,-4.2949656,-4.3841493)"
         d="m 34,24 c 0,5.522847 -4.477153,10 -10,10 -5.522847,0 -10,-4.477153 -10,-10 0,-5.522847 4.477153,-10 10,-10 5.522847,0 10,4.477153 10,10 z"
         sodipodi:ry="10"
         sodipodi:rx="10"
         sodipodi:cy="24"
         sodipodi:cx="24"
         id="path4269"
         style="fill:url(#radialGradient4379);fill-opacity:1;stroke:none"
         sodipodi:type="arc" />
      <path
         transform="matrix(1.1789569,0,0,1.1789569,-4.2949656,-4.3841493)"
         sodipodi:type="arc"
         style="opacity:0.8;fill:url(#radialGradient4381);fill-opacity:1;stroke:none"
         id="path4279"
         sodipodi:cx="24"
         sodipodi:cy="24"
         sodipodi:rx="10"
         sodipodi:ry="10"
         d="m 34,24 c 0,5.522847 -4.477153,10 -10,10 -5.522847,0 -10,-4.477153 -10,-10 0,-5.522847 4.477153,-10 10,-10 5.522847,0 10,4.477153 10,10 z" />
      <path
         transform="matrix(1.1789569,0,0,1.1789569,-4.2949656,-4.3841493)"
         d="M 22,18.5 C 22,19.328427 21.328427,20 20.5,20 19.671573,20 19,19.328427 19,18.5 19,17.671573 19.671573,17 20.5,17 c 0.828427,0 1.5,0.671573 1.5,1.5 z"
         sodipodi:ry="1.5"
         sodipodi:rx="1.5"
         sodipodi:cy="18.5"
         sodipodi:cx="20.5"
         id="path4290"
         style="opacity:0.8;fill:#ffffff;fill-opacity:1;stroke:none"
         sodipodi:type="arc" />
      <path
         style="opacity:0.2;fill:#000000;fill-opacity:1;stroke:none"
         d="m 23.999998,36.414904 c -6.5112,0 -11.789569,-5.278369 -11.789569,-11.789569 0,-0.120624 0.01873,-0.237507 0.02233,-0.357259 0.190584,6.34438 5.376665,11.432309 11.76724,11.432309 6.390575,0 11.576655,-5.087929 11.76724,-11.432309 0.0036,0.119752 0.02233,0.236635 0.02233,0.357259 0,6.5112 -5.278369,11.789569 -11.789568,11.789569 z"
         id="path3848"
         inkscape:connector-curvature="0" />
      <path
         inkscape:connector-curvature="0"
         id="path3853"
         d="m 23.999998,11.763988 c -6.5112,0 -11.789569,5.278369 -11.789569,11.789569 0,0.120624 0.01873,0.237507 0.02233,0.357259 0.190584,-6.34438 5.376665,-11.432309 11.76724,-11.432309 6.390575,0 11.576655,5.087929 11.76724,11.432309 0.0036,-0.119752 0.02233,-0.236635 0.02233,-0.357259 0,-6.5112 -5.278369,-11.789569 -11.789568,-11.789569 z"
         style="opacity:0.2;fill:#000000;fill-opacity:1;stroke:none" />
    </g>
  </g>
  <g
     inkscape:groupmode="layer"
     id="layer2"
     inkscape:label="Symbol">
    <g
       id="g3815"
       transform="matrix(0.81581488,0,0,0.81581488,4.5454425,4.4204429)">
      <path
         sodipodi:nodetypes="ccc"
         inkscape:connector-curvature="0"
         id="path3953"
         d="M 13.343086,13.343086 24,24 33.990857,16.506857"
         style="opacity:0.5;fill:none;stroke:#000000;stroke-width:1.22576833;stroke-linecap:round;stroke-linejoin:round;stroke-miterlimit:4;stroke-opacity:1;stroke-dasharray:none;display:inline;enable-background:new" />
      <path
         sodipodi:nodetypes="cc"
         inkscape:connector-curvature="0"
         id="path4005-8"
         d="M 24,24 34.656915,12.010971"
         style="fill:none;stroke:#dc0000;stroke-width:0.61288416;stroke-linecap:butt;stroke-linejoin:miter;stroke-miterlimit:4;stroke-opacity:1;stroke-dasharray:none;display:inline;enable-background:new" />
    </g>
  </g>
</svg>
