<?xml version="1.0" encoding="UTF-8" standalone="no"?>
<svg
   xmlns:dc="http://purl.org/dc/elements/1.1/"
   xmlns:cc="http://creativecommons.org/ns#"
   xmlns:rdf="http://www.w3.org/1999/02/22-rdf-syntax-ns#"
   xmlns:svg="http://www.w3.org/2000/svg"
   xmlns="http://www.w3.org/2000/svg"
   xmlns:xlink="http://www.w3.org/1999/xlink"
   id="svg3759"
   height="48"
   width="48"
   version="1.1">
  <metadata
     id="metadata37">
    <rdf:RDF>
      <cc:Work
         rdf:about="">
        <dc:format>image/svg+xml</dc:format>
        <dc:type
           rdf:resource="http://purl.org/dc/dcmitype/StillImage" />
        <dc:title />
      </cc:Work>
    </rdf:RDF>
  </metadata>
  <defs
     id="defs3761">
    <linearGradient
       id="linearGradient3850">
      <stop
         style="stop-color:#32a5dc;stop-opacity:1"
         offset="0"
         id="stop3852" />
      <stop
         id="stop3854"
         offset="0.5"
         style="stop-color:#248ec3;stop-opacity:1;" />
      <stop
         style="stop-color:#1f5271;stop-opacity:1;"
         offset="0.75"
         id="stop3856" />
      <stop
         style="stop-color:#020509;stop-opacity:1;"
         offset="1"
         id="stop3858" />
    </linearGradient>
    <linearGradient
       id="linearGradient3840">
      <stop
         style="stop-color:#1e7488;stop-opacity:1;"
         offset="0"
         id="stop3842" />
      <stop
         id="stop3844"
         offset="0.5"
         style="stop-color:#1e5976;stop-opacity:1;" />
      <stop
         style="stop-color:#122937;stop-opacity:1;"
         offset="0.75"
         id="stop3846" />
      <stop
         style="stop-color:#020509;stop-opacity:1;"
         offset="1"
         id="stop3848" />
    </linearGradient>
    <radialGradient
       r="20.203051"
       fy="38.908627"
       fx="24.849752"
       cy="38.908627"
       cx="24.849752"
       gradientTransform="matrix(1,0,0,0.37,0,24.5124)"
       gradientUnits="userSpaceOnUse"
       id="radialGradient3755"
       xlink:href="#linearGradient26113-9-3-1" />
    <linearGradient
       id="linearGradient26113-9-3-1">
      <stop
         id="stop26115-7-7-9"
         offset="0"
         style="stop-color: rgb(0, 0, 0); stop-opacity: 1;" />
      <stop
         id="stop26117-3-7-8"
         offset="1"
         style="stop-color: rgb(0, 0, 0); stop-opacity: 0;" />
    </linearGradient>
    <linearGradient
       id="linearGradient26121-3-8-2">
      <stop
         id="stop26123-4-7-8"
         offset="0"
         style="stop-color: rgb(0, 0, 0); stop-opacity: 1;" />
      <stop
         id="stop26125-3-9-9"
         offset="1"
         style="stop-color: rgb(0, 0, 0); stop-opacity: 0;" />
    </linearGradient>
    <radialGradient
       xlink:href="#linearGradient26121-3-8-2"
       id="radialGradient4274"
       gradientUnits="userSpaceOnUse"
       gradientTransform="matrix(1.00851,0,0,0.373148,-0.211403,24.39)"
       cx="24.849752"
       cy="38.908627"
       fx="24.849752"
       fy="38.908627"
       r="20.203051" />
    <linearGradient
       gradientTransform="matrix(0,1,1,0,3.1e-6,-2.9e-6)"
       gradientUnits="userSpaceOnUse"
       y2="24"
       x2="44.000004"
       y1="24"
       x1="4.0000033"
       id="linearGradient3899"
       xlink:href="#linearGradient3840" />
    <radialGradient
       gradientTransform="matrix(-1.6410256,4.1570429e-8,-4.6184956e-8,-1.8231441,63.384614,33.877729)"
       gradientUnits="userSpaceOnUse"
       r="19.5"
       fy="12.000001"
       fx="24"
       cy="12.000001"
       cx="24"
       id="radialGradient3811"
       xlink:href="#linearGradient3850" />
    <linearGradient
       id="linearGradient3678">
      <stop
         offset="0"
         style="stop-color:#ffffff;stop-opacity:0.13368984"
         id="stop3680" />
      <stop
         offset="1"
         style="stop-color:#ffffff;stop-opacity:0"
         id="stop3682" />
    </linearGradient>
    <linearGradient
       id="linearGradient3672">
      <stop
         offset="0"
         style="stop-color:#ffffff;stop-opacity:0.49197862"
         id="stop3674" />
      <stop
         offset="1"
         style="stop-color:#ffffff;stop-opacity:1"
         id="stop3676" />
    </linearGradient>
    <linearGradient
       y2="21.91367"
       x2="48.262592"
       y1="22"
       x1="35.5"
       gradientTransform="matrix(0,0.91421579,-0.91421579,0,45.010572,0.89400788)"
       gradientUnits="userSpaceOnUse"
       id="linearGradient4090"
       xlink:href="#linearGradient3678" />
    <linearGradient
       y2="23"
       x2="47.5"
       y1="23"
       x1="3.5"
       gradientTransform="matrix(0,0.91421579,-0.91421579,0,45.010572,0.89400788)"
       gradientUnits="userSpaceOnUse"
       id="linearGradient4092"
       xlink:href="#linearGradient3672" />
    <linearGradient
       y2="21.829967"
       x2="4.0629644"
       y1="22.292894"
       x1="14.893399"
       gradientTransform="matrix(-0.64644818,0.64644818,0.64644818,0.64644818,25.599726,-7.1462269)"
       gradientUnits="userSpaceOnUse"
       id="linearGradient4094"
       xlink:href="#linearGradient3678" />
    <linearGradient
       y2="27.242641"
       x2="4.2867966"
       y1="23.707108"
       x1="46.006096"
       gradientTransform="matrix(-0.64644818,0.64644818,0.64644818,0.64644818,25.599726,-7.1462269)"
       gradientUnits="userSpaceOnUse"
       id="linearGradient4096"
       xlink:href="#linearGradient3672" />
    <linearGradient
       y2="24.414213"
       x2="2.8725832"
       y1="25.828426"
       x1="48.127419"
       gradientTransform="matrix(-0.64644818,-0.64644818,0.64644818,-0.64644818,25.768993,55.642795)"
       gradientUnits="userSpaceOnUse"
       id="linearGradient4098"
       xlink:href="#linearGradient3672" />
    <linearGradient
       y2="24.108988"
       x2="2.8318863"
       y1="23.707106"
       x1="14.893399"
       gradientTransform="matrix(-0.64644818,-0.64644818,0.64644818,-0.64644818,25.768993,55.642795)"
       gradientUnits="userSpaceOnUse"
       id="linearGradient4100"
       xlink:href="#linearGradient3678" />
    <linearGradient
       y2="23"
       x2="47.500416"
       y1="23"
       x1="4.4897356"
       gradientTransform="matrix(-0.91421579,0,0,-0.91421579,47.296108,45.233478)"
       gradientUnits="userSpaceOnUse"
       id="linearGradient4102"
       xlink:href="#linearGradient3672" />
    <linearGradient
       y2="23.172663"
       x2="49.089928"
       y1="23"
       x1="37.5"
       gradientTransform="matrix(-0.91421579,0,0,-0.91421579,47.296108,45.233478)"
       gradientUnits="userSpaceOnUse"
       id="linearGradient4104"
       xlink:href="#linearGradient3678" />
  </defs>
  <g
     id="layer1">
    <path
       style="fill:url(#radialGradient4274);fill-opacity:1;stroke:none;display:inline;filter:url(#filter5927);enable-background:new"
       id="path9641"
       d="m 45.052803,38.908627 a 20.203051,7.4751287 0 1 1 -40.4061012,0 20.203051,7.4751287 0 1 1 40.4061012,0 z"
       transform="matrix(0.76992689,0,0,0.70231451,4.8675074,13.673907)" />
    <path
       transform="matrix(1.0408039,0,0,0.94940366,-1.8632526,3.514402)"
       d="m 45.052803,38.908627 a 20.203051,7.4751287 0 1 1 -40.4061012,0 20.203051,7.4751287 0 1 1 40.4061012,0 z"
       id="path9643"
       style="opacity:0.51836696999999998;fill:url(#radialGradient3755);fill-opacity:1;stroke:none;display:inline;filter:url(#filter5788);enable-background:new" />
    <path
       d="M 4.5000031,23.999309 C 4.5000031,34.769208 13.231094,43.5 23.999758,43.5 c 10.769649,0 19.500245,-8.730891 19.500245,-19.500691 0,-10.769405 -8.730596,-19.4993089 -19.500245,-19.4993089 -10.768664,0 -19.4997549,8.7299039 -19.4997549,19.4993089 l 0,0 z"
       id="path6495"
       style="fill:url(#radialGradient3811);fill-opacity:1;fill-rule:nonzero;stroke:none" />
    <path
       style="opacity:0.91000001;fill:none;stroke:url(#linearGradient3899);stroke-width:1;stroke-miterlimit:4;stroke-opacity:1;stroke-dasharray:none"
       id="path3796"
       d="m 23.999312,43.5 c 10.769899,0 19.500691,-8.731091 19.500691,-19.499755 0,-10.769649 -8.730891,-19.5002449 -19.500691,-19.5002449 -10.769405,0 -19.4993089,8.7305959 -19.4993089,19.5002449 C 4.5000031,34.768909 13.229907,43.5 23.999312,43.5 l 0,0 z" />
    <path
       id="path3872"
       d="M 24 5 C 13.500552 5 5 13.500823 5 24 C 5 24.169463 5.0268485 24.331605 5.03125 24.5 C 5.299553 14.235412 13.670013 6 24 6 C 34.328993 6 42.700416 14.235427 42.96875 24.5 C 42.973152 24.331604 43 24.169465 43 24 C 43 13.500839 34.498438 5 24 5 z "
       style="fill:#ffffff;fill-opacity:1;fill-rule:nonzero;stroke:none;opacity:0.40000000000000002" />
    <path
       style="opacity:0.4;fill:#000000;fill-opacity:1;fill-rule:nonzero;stroke:none"
       d="M 24,44 C 13.500552,44 5,35.499177 5,25 5,24.830537 5.026848,24.668395 5.03125,24.5 5.299553,34.764588 13.670013,43 24,43 34.328993,43 42.700416,34.764573 42.96875,24.5 42.97315,24.668396 43,24.830535 43,25 43,35.499161 34.498438,44 24,44 z"
       id="path3879" />
  </g>
  <g
     id="layer2">
    <g
       transform="matrix(1,0,0,-1,0,47.999999)"
       id="g4076">
      <path
         style="fill:none;stroke:url(#linearGradient4090);stroke-width:1;stroke-linecap:round;stroke-linejoin:round;stroke-miterlimit:4;stroke-opacity:1;stroke-dasharray:none;stroke-dashoffset:0"
         id="path3805"
         d="M 24.014256,4.5509935 A 8.68505,19.655639 0 0 1 25.754685,43.449128" />
      <path
         style="fill:none;stroke:url(#linearGradient4092);stroke-width:1;stroke-linecap:round;stroke-linejoin:round;stroke-miterlimit:4;stroke-opacity:1;stroke-dasharray:none;stroke-dashoffset:0"
         id="path3609"
         d="M 20.304697,42.011638 A 8.68505,19.655639 0 0 1 24.004465,4.5509277" />
      <path
         style="color:#000000;fill:#ffffff;fill-opacity:1;fill-rule:nonzero;stroke:#ffffff;stroke-width:1.00042665;stroke-linecap:round;stroke-linejoin:round;stroke-miterlimit:4;stroke-opacity:0.52127662;stroke-dasharray:none;stroke-dashoffset:0;marker:none;visibility:visible;display:inline;overflow:visible;enable-background:accumulate"
         id="path3775"
         d="m 21.92638,41.43372 a 1.8282365,1.8282365 0 0 1 -3.656473,0 1.8282365,1.8282365 0 1 1 3.656473,0 z" />
      <path
         style="fill:none;stroke:url(#linearGradient4094);stroke-width:1;stroke-linecap:round;stroke-linejoin:round;stroke-miterlimit:4;stroke-opacity:1;stroke-dasharray:none;stroke-dashoffset:0"
         id="path3801"
         d="M 35.436764,9.1120411 A 8.68505,19.655639 45 0 0 10.470041,38.442141" />
      <path
         style="fill:none;stroke:url(#linearGradient4096);stroke-width:1;stroke-linecap:round;stroke-linejoin:round;stroke-miterlimit:4;stroke-opacity:1;stroke-dasharray:none;stroke-dashoffset:0"
         id="path3611"
         d="M 10.084969,38.105147 A 8.68505,19.655639 45 0 0 39.159055,13.419542" />
      <path
         style="color:#000000;fill:#ffffff;fill-opacity:1;fill-rule:nonzero;stroke:#ffffff;stroke-width:1.00042665;stroke-linecap:round;stroke-linejoin:round;stroke-miterlimit:4;stroke-opacity:0.52127662;stroke-dasharray:none;stroke-dashoffset:0;marker:none;visibility:visible;display:inline;overflow:visible;enable-background:accumulate"
         id="path3781"
         d="m 37.239929,14.064527 a 1.8282366,1.8282366 0 0 0 3.656473,0 1.8282366,1.8282366 0 1 0 -3.656473,0 z" />
      <path
         style="fill:none;stroke:url(#linearGradient4098);stroke-width:1;stroke-linecap:round;stroke-linejoin:round;stroke-miterlimit:4;stroke-opacity:1;stroke-dasharray:none;stroke-dashoffset:0"
         id="path3613"
         d="m 9.909018,10.787286 a 19.655639,8.68505 45 0 1 29.05954,20.98374" />
      <path
         style="fill:#ffffff;fill-opacity:1;stroke:#ffffff;stroke-width:1.00042665;stroke-linecap:round;stroke-linejoin:round;stroke-miterlimit:4;stroke-opacity:0.52127662;stroke-dasharray:none;stroke-dashoffset:0"
         id="path3615"
         d="m 39.237432,34.831989 a 1.8282365,1.8282365 0 0 1 0,-3.656473 1.8282365,1.8282365 0 1 1 0,3.656473 z" />
      <path
         style="fill:none;stroke:url(#linearGradient4100);stroke-width:1;stroke-linecap:round;stroke-linejoin:round;stroke-miterlimit:4;stroke-opacity:1;stroke-dasharray:none;stroke-dashoffset:0"
         id="path3787"
         d="M 38.016171,38.223577 A 19.655639,8.68505 45 0 1 9.654341,11.165887" />
      <path
         style="fill:none;stroke:url(#linearGradient4102);stroke-width:1;stroke-linecap:round;stroke-linejoin:round;stroke-miterlimit:4;stroke-opacity:1;stroke-dasharray:none;stroke-dashoffset:0"
         id="path2835"
         d="m 7.242316,19.655705 a 19.655639,8.68505 0 0 1 36.375428,4.956924" />
      <path
         style="color:#000000;fill:#ffffff;fill-opacity:1;fill-rule:nonzero;stroke:#ffffff;stroke-width:1.00042665;stroke-linecap:round;stroke-linejoin:round;stroke-miterlimit:4;stroke-opacity:0.52127662;stroke-dasharray:none;stroke-dashoffset:0;marker:none;visibility:visible;display:inline;overflow:visible;enable-background:accumulate"
         id="path3722"
         d="m 5.070953,20.00683 a 1.8282365,1.8282365 0 0 1 3.656468,0 1.8282365,1.8282365 0 1 1 -3.656468,0 z" />
      <path
         style="fill:none;stroke:url(#linearGradient4104);stroke-width:1;stroke-linecap:round;stroke-linejoin:round;stroke-miterlimit:4;stroke-opacity:1;stroke-dasharray:none;stroke-dashoffset:0"
         id="path3797"
         d="M 43.520951,25.157933 A 19.655639,8.68505 0 0 1 4.360754,24.707947" />
    </g>
  </g>
</svg>
