<?xml version="1.0" encoding="UTF-8" standalone="no"?>
<svg xmlns="http://www.w3.org/2000/svg" xmlns:xlink="http://www.w3.org/1999/xlink" xmlns:sodipodi="http://sodipodi.sourceforge.net/DTD/sodipodi-0.dtd" xmlns:inkscape="http://www.inkscape.org/namespaces/inkscape" version="1.1" width="48" height="48">
 <metadata id="metadata37"/>
 <defs id="defs3761">
  <linearGradient id="linearGradient3810">
   <stop id="stop3812" stop-color="#4cc7e0"/>
   <stop offset="1" id="stop3814" stop-color="#2061be"/>
  </linearGradient>
  <linearGradient id="linearGradient3988">
   <stop id="stop3990" stop-color="#eeeeec"/>
   <stop offset="1" id="stop3992" stop-color="#ffffff"/>
  </linearGradient>
  <radialGradient inkscape:collect="always" xlink:href="#linearGradient26113-9-3-1" id="radialGradient3755" gradientUnits="userSpaceOnUse" gradientTransform="matrix(1,0,0,0.37,0,24.5124)" cx="24.85" cy="38.909" r="20.2"/>
  <linearGradient inkscape:collect="always" id="linearGradient26113-9-3-1">
   <stop id="stop26115-7-7-9" stop-color="#000000"/>
   <stop offset="1" id="stop26117-3-7-8" stop-color="#000000" stop-opacity="0"/>
  </linearGradient>
  <radialGradient r="20.2" cy="38.909" cx="24.85" gradientTransform="matrix(1.00851,0,0,0.373148,-0.211403,24.39)" gradientUnits="userSpaceOnUse" id="radialGradient4274" xlink:href="#linearGradient26113-9-3-1" inkscape:collect="always"/>
  <linearGradient id="outerBackgroundGradient-4">
   <stop id="stop3864-8-6-31" stop-color="#ffcb3d"/>
   <stop offset="1" id="stop3866-9-1-8" stop-color="#ffee87"/>
  </linearGradient>
  <linearGradient inkscape:collect="always" xlink:href="#linearGradient4073" id="linearGradient4070" gradientUnits="userSpaceOnUse" gradientTransform="matrix(0,-1,1,0,5.0000306e-7,32)" x1="1" x2="31"/>
  <linearGradient id="linearGradient4073">
   <stop id="stop4075" stop-color="#323232"/>
   <stop id="stop4077" offset="1" stop-color="#5a5a5a"/>
  </linearGradient>
  <linearGradient inkscape:collect="always" xlink:href="#linearGradient3904" id="linearGradient3899" x1="4" x2="44" gradientUnits="userSpaceOnUse" gradientTransform="matrix(0,-1,1,0,3.1e-6,48.000003)"/>
  <radialGradient inkscape:collect="always" xlink:href="#linearGradient3901" id="radialGradient3805" gradientUnits="userSpaceOnUse" gradientTransform="matrix(4.5367027e-8,-1.7632481,-1.8653063,0,31.761486,43.251051)" cx="6.16" cy="8.45" r="20"/>
  <linearGradient id="linearGradient3901">
   <stop id="stop3903" stop-color="#d2d2d2"/>
   <stop offset="1" id="stop3905" stop-color="#ffffff"/>
  </linearGradient>
  <linearGradient inkscape:collect="always" xlink:href="#linearGradient3904" id="linearGradient3902" x1="1" x2="31" gradientUnits="userSpaceOnUse" gradientTransform="matrix(0,-1,1,0,144,83.000001)"/>
  <linearGradient id="linearGradient3904">
   <stop id="stop3906" stop-color="#234683"/>
   <stop id="stop3908" offset="1" stop-color="#30589e"/>
  </linearGradient>
  <radialGradient inkscape:collect="always" xlink:href="#outerBackgroundGradient" id="radialGradient3805-1" gradientUnits="userSpaceOnUse" gradientTransform="matrix(4.5367027e-8,-1.7632481,-1.8653063,0,31.761486,43.251051)" cx="6.16" cy="8.45" r="20"/>
  <linearGradient id="outerBackgroundGradient">
   <stop id="stop3864-8-6" stop-color="#7fa3e4"/>
   <stop id="stop4375" offset="0.75" stop-color="#3e6ec4"/>
   <stop offset="1" id="stop3866-9-1" stop-color="#1450b9"/>
  </linearGradient>
  <radialGradient r="20" cy="8.45" cx="6.16" gradientTransform="matrix(4.5367027e-8,-1.7632481,-1.8653063,0,175.76149,94.251052)" gradientUnits="userSpaceOnUse" id="radialGradient3067" xlink:href="#outerBackgroundGradient" inkscape:collect="always"/>
  <radialGradient inkscape:collect="always" xlink:href="#outerBackgroundGradient" id="radialGradient4373" cx="24" cy="12" r="19.5" gradientUnits="userSpaceOnUse" gradientTransform="matrix(-1.4358974,0,0,-1.823144,58.461538,33.877729)"/>
 </defs>
 <g inkscape:groupmode="layer" id="layer1" inkscape:label="Background">
  <path transform="matrix(0.76992689,0,0,0.70231451,4.8675074,13.673907)" d="m 45.052803,38.908627 a 20.203051,7.4751287 0 1 1 -40.4061012,0 20.203051,7.4751287 0 1 1 40.4061012,0 z" sodipodi:ry="7.4751287" sodipodi:rx="20.203051" sodipodi:cy="38.908627" sodipodi:cx="24.849752" id="path9641" sodipodi:type="arc" fill="url(#radialGradient4274)"/>
  <path sodipodi:type="arc" id="path9643" sodipodi:cx="24.849752" sodipodi:cy="38.908627" sodipodi:rx="20.203051" sodipodi:ry="7.4751287" d="m 45.052803,38.908627 a 20.203051,7.4751287 0 1 1 -40.4061012,0 20.203051,7.4751287 0 1 1 40.4061012,0 z" transform="matrix(1.0408039,0,0,0.94940366,-1.8632526,3.514402)" opacity="0.518" fill="url(#radialGradient3755)"/>
  <path id="path6495" inkscape:connector-curvature="0" d="M 4.5000031,23.999309 C 4.5000031,34.769208 13.231094,43.5 23.999758,43.5 c 10.769649,0 19.500245,-8.730891 19.500245,-19.500691 0,-10.769405 -8.730596,-19.4993089 -19.500245,-19.4993089 -10.768664,0 -19.4997549,8.7299039 -19.4997549,19.4993089 l 0,0 z" fill="url(#radialGradient4373)"/>
  <path d="m 23.999312,4.5000001 c 10.769899,0 19.500691,8.7310909 19.500691,19.4997549 C 43.500003,34.769404 34.769112,43.5 23.999312,43.5 13.229907,43.5 4.5000031,34.769404 4.5000031,23.999755 c 0,-10.768664 8.7299039,-19.4997549 19.4993089,-19.4997549 l 0,0 z" inkscape:connector-curvature="0" id="path3796" opacity="0.91" fill="none" stroke="url(#linearGradient3899)"/>
  <path d="M 24 5 C 13.500552 5 5 13.500823 5 24 C 5 24.169463 5.0268485 24.331605 5.03125 24.5 C 5.299553 14.235412 13.670013 6 24 6 C 34.328993 6 42.700416 14.235427 42.96875 24.5 C 42.973152 24.331604 43 24.169465 43 24 C 43 13.500839 34.498438 5 24 5 z " id="path3872" opacity="0.4" fill="#ffffff"/>
 </g>
 <g inkscape:groupmode="layer" id="layer2" inkscape:label="Symbol">
  <path id="path4025" d="m 24.037483,9.9999996 c -1.63115,0 -2.95347,1.3223124 -2.95347,2.9534674 0,1.631155 1.32232,2.953467 2.95347,2.953467 1.63116,0 2.95346,-1.322312 2.95346,-2.953467 0,-1.631155 -1.3223,-2.9534674 -2.95346,-2.9534674 z m -10.81708,6.6083844 c -0.64156,0.141336 -0.66808,1.257495 -0.0369,1.439816 l 0.0738,0.07384 0.14767,0 c 0,0 5.26445,0.686572 7.08832,2.510448 1.18139,1.181386 0.38843,3.875327 0,5.906935 -0.55697,2.913185 -2.84271,8.417383 -2.84271,8.417383 l -0.0368,0.147673 c -0.21571,0.689059 0.95817,1.247106 1.32906,0.627612 l 0.0738,-0.147674 c 0,0 3.83951,-9.044994 5.0209,-9.044994 1.18138,0 5.02089,9.044994 5.02089,9.044994 l 0.0738,0.147674 c 0.37089,0.619494 1.54477,0.0614 1.32906,-0.627612 l -0.0368,-0.147673 c 0,0 -2.28574,-5.5042 -2.84271,-8.417383 -0.38843,-2.031608 -1.18139,-4.725549 0,-5.906935 1.82387,-1.823876 7.08833,-2.510448 7.08833,-2.510448 l 0.14766,0 0.0738,-0.07384 c 0.68068,-0.240868 0.38587,-1.514808 -0.33226,-1.439816 0,0 -6.97758,1.64765 -10.52172,1.624407 -3.54419,0.02324 -10.48482,-1.624407 -10.48482,-1.624407 -0.10686,-0.02401 -0.22531,-0.02401 -0.33226,0 z" inkscape:connector-curvature="0" opacity="0.3" color="#bebebe" stroke-width="0.5"/>
  <path inkscape:connector-curvature="0" d="m 24.037483,11 c -1.63115,0 -2.95347,1.322312 -2.95347,2.953467 0,1.631155 1.32232,2.953467 2.95347,2.953467 1.63116,0 2.95346,-1.322312 2.95346,-2.953467 C 26.990943,12.322312 25.668643,11 24.037483,11 z m -10.81708,6.608384 c -0.64156,0.141336 -0.66808,1.257495 -0.0369,1.439816 l 0.0738,0.07384 0.14767,0 c 0,0 5.26445,0.686572 7.08832,2.510448 1.18139,1.181386 0.38843,3.875327 0,5.906935 -0.55697,2.913185 -2.84271,8.417383 -2.84271,8.417383 l -0.0368,0.147673 c -0.21571,0.689059 0.95817,1.247106 1.32906,0.627612 l 0.0738,-0.147674 c 0,0 3.83951,-9.044994 5.0209,-9.044994 1.18138,0 5.02089,9.044994 5.02089,9.044994 l 0.0738,0.147674 c 0.37089,0.619494 1.54477,0.0614 1.32906,-0.627612 l -0.0368,-0.147673 c 0,0 -2.28574,-5.5042 -2.84271,-8.417383 -0.38843,-2.031608 -1.18139,-4.725549 0,-5.906935 1.82387,-1.823876 7.08833,-2.510448 7.08833,-2.510448 l 0.14766,0 0.0738,-0.07384 c 0.68068,-0.240868 0.38587,-1.514808 -0.33226,-1.439816 0,0 -6.97758,1.64765 -10.52172,1.624407 -3.54419,0.02324 -10.48482,-1.624407 -10.48482,-1.624407 -0.10686,-0.02401 -0.22531,-0.02401 -0.33226,0 z" id="path7088" fill="#ffffff" color="#bebebe" stroke-width="0.5"/>
 </g>
</svg>
