<?xml version="1.0" encoding="UTF-8" standalone="no"?>
<!-- Created with Inkscape (http://www.inkscape.org/) -->

<svg
   xmlns:dc="http://purl.org/dc/elements/1.1/"
   xmlns:cc="http://creativecommons.org/ns#"
   xmlns:rdf="http://www.w3.org/1999/02/22-rdf-syntax-ns#"
   xmlns:svg="http://www.w3.org/2000/svg"
   xmlns="http://www.w3.org/2000/svg"
   xmlns:xlink="http://www.w3.org/1999/xlink"
   xmlns:sodipodi="http://sodipodi.sourceforge.net/DTD/sodipodi-0.dtd"
   xmlns:inkscape="http://www.inkscape.org/namespaces/inkscape"
   width="48px"
   height="48px"
   id="svg3923"
   version="1.1"
   inkscape:version="0.48.4 r9939"
   sodipodi:docname="New document 3">
  <defs
     id="defs3925">
    <linearGradient
       inkscape:collect="always"
       id="linearGradient4533">
      <stop
         style="stop-color:#ffffff;stop-opacity:1;"
         offset="0"
         id="stop4535" />
      <stop
         style="stop-color:#ffffff;stop-opacity:0;"
         offset="1"
         id="stop4537" />
    </linearGradient>
    <linearGradient
       inkscape:collect="always"
       xlink:href="#linearGradient3847"
       id="linearGradient3853"
       x1="296"
       y1="243"
       x2="328"
       y2="243"
       gradientUnits="userSpaceOnUse"
       gradientTransform="matrix(0,1,-1,0,555,-69)" />
    <linearGradient
       id="linearGradient3847">
      <stop
         style="stop-color:#ffffff;stop-opacity:1;"
         offset="0"
         id="stop3849" />
      <stop
         style="stop-color:#e8e8e8;stop-opacity:1;"
         offset="1"
         id="stop3851" />
    </linearGradient>
    <linearGradient
       y2="243"
       x2="328"
       y1="243"
       x1="296"
       gradientTransform="matrix(0,1.125,-1.125,0,297.375,-327.50001)"
       gradientUnits="userSpaceOnUse"
       id="linearGradient3128"
       xlink:href="#linearGradient3847"
       inkscape:collect="always" />
    <linearGradient
       inkscape:collect="always"
       xlink:href="#linearGradient3847-9"
       id="linearGradient3864"
       x1="296"
       y1="172"
       x2="344"
       y2="172"
       gradientUnits="userSpaceOnUse"
       gradientTransform="matrix(0,1,-1,0,492,-148)" />
    <linearGradient
       id="linearGradient3847-9">
      <stop
         style="stop-color:#ffffff;stop-opacity:1;"
         offset="0"
         id="stop3849-0" />
      <stop
         style="stop-color:#e8e8e8;stop-opacity:1;"
         offset="1"
         id="stop3851-1" />
    </linearGradient>
    <linearGradient
       y2="172"
       x2="344"
       y1="172"
       x1="296"
       gradientTransform="matrix(0,1,-1,0,196,-296)"
       gradientUnits="userSpaceOnUse"
       id="linearGradient3145"
       xlink:href="#linearGradient3847-9"
       inkscape:collect="always" />
    <linearGradient
       inkscape:collect="always"
       xlink:href="#linearGradient3847-9"
       id="linearGradient4520"
       gradientUnits="userSpaceOnUse"
       gradientTransform="matrix(0,1,-1,0,196,-296)"
       x1="296"
       y1="172"
       x2="344"
       y2="172" />
    <linearGradient
       inkscape:collect="always"
       xlink:href="#linearGradient4533"
       id="linearGradient4539"
       x1="25"
       y1="-2"
       x2="25"
       y2="48"
       gradientUnits="userSpaceOnUse" />
  </defs>
  <sodipodi:namedview
     id="base"
     pagecolor="#ffffff"
     bordercolor="#666666"
     borderopacity="1.0"
     inkscape:pageopacity="0.0"
     inkscape:pageshadow="2"
     inkscape:zoom="1"
     inkscape:cx="24.665156"
     inkscape:cy="4.6246166"
     inkscape:current-layer="layer1"
     showgrid="false"
     showborder="false"
     inkscape:grid-bbox="true"
     inkscape:document-units="px"
     inkscape:window-width="1364"
     inkscape:window-height="700"
     inkscape:window-x="0"
     inkscape:window-y="28"
     inkscape:window-maximized="1">
    <inkscape:grid
       type="xygrid"
       id="grid4484" />
  </sodipodi:namedview>
  <metadata
     id="metadata3928">
    <rdf:RDF>
      <cc:Work
         rdf:about="">
        <dc:format>image/svg+xml</dc:format>
        <dc:type
           rdf:resource="http://purl.org/dc/dcmitype/StillImage" />
        <dc:title></dc:title>
      </cc:Work>
    </rdf:RDF>
  </metadata>
  <g
     id="layer1"
     inkscape:label="Layer 1"
     inkscape:groupmode="layer">
    <path
       inkscape:connector-curvature="0"
       style="opacity:0.2;color:#000000;fill:#000000;fill-opacity:1;fill-rule:nonzero;stroke:none;stroke-width:4;marker:none;visibility:visible;display:inline;overflow:visible;enable-background:accumulate"
       d="m 27,7.5 c -3.360145,0 -6.408993,1.2812249 -8.71875,3.375 L 18.0625,11.09375 17.78125,11 C 16.901121,10.694067 15.973167,10.5 15,10.5 c -4.70034,0 -8.5,3.79965 -8.5,8.5 0,0.488031 0.043245,0.992619 0.125,1.46875 L 6.6875,20.8125 6.375,20.96875 C 2.8670096,22.93914 0.5,26.68804 0.5,31 0.5,37.3572 5.6427998,42.5 12,42.5 l 25.5,0 c 5.52877,0 10,-4.47123 10,-10 0,-4.585405 -3.079735,-8.409124 -7.28125,-9.59375 l -0.40625,-0.125 0.0625,-0.4375 C 39.96309,21.731304 40,21.133563 40,20.5 40,13.31438 34.18562,7.5 27,7.5 z"
       id="path4545" />
    <path
       id="path4543"
       d="m 27,7 c -3.360145,0 -6.408993,1.2812249 -8.71875,3.375 L 18.0625,10.59375 17.78125,10.5 C 16.901121,10.194067 15.973167,10 15,10 c -4.70034,0 -8.5,3.79965 -8.5,8.5 0,0.488031 0.043245,0.992619 0.125,1.46875 L 6.6875,20.3125 6.375,20.46875 C 2.8670096,22.43914 0.5,26.18804 0.5,30.5 0.5,36.8572 5.6427998,42 12,42 l 25.5,0 c 5.52877,0 10,-4.47123 10,-10 0,-4.585405 -3.079735,-8.409124 -7.28125,-9.59375 l -0.40625,-0.125 0.0625,-0.4375 C 39.96309,21.231304 40,20.633563 40,20 40,12.81438 34.18562,7 27,7 z"
       style="opacity:0.4;color:#000000;fill:#000000;fill-opacity:1;fill-rule:nonzero;stroke:none;stroke-width:4;marker:none;visibility:visible;display:inline;overflow:visible;enable-background:accumulate"
       inkscape:connector-curvature="0" />
    <path
       style="color:#000000;fill:url(#linearGradient3145);fill-opacity:1;fill-rule:nonzero;stroke:none;stroke-width:4;marker:none;visibility:visible;display:inline;overflow:visible;enable-background:accumulate"
       d="M 27 6.5 C 23.639855 6.5 20.591007 7.7812249 18.28125 9.875 L 18.0625 10.09375 L 17.78125 10 C 16.901121 9.6940669 15.973167 9.5 15 9.5 C 10.29966 9.5 6.5 13.29965 6.5 18 C 6.5 18.488031 6.543245 18.992619 6.625 19.46875 L 6.6875 19.8125 L 6.375 19.96875 C 2.8670096 21.93914 0.5 25.68804 0.5 30 C 0.5 36.3572 5.6427998 41.5 12 41.5 L 37.5 41.5 C 43.02877 41.5 47.5 37.02877 47.5 31.5 C 47.5 26.914595 44.420265 23.090876 40.21875 21.90625 L 39.8125 21.78125 L 39.875 21.34375 C 39.96309 20.731304 40 20.133563 40 19.5 C 40 12.31438 34.18562 6.5 27 6.5 z "
       id="path3866" />
    <path
       id="path4510"
       d="M 27 6.5 C 23.639855 6.5 20.591007 7.7812249 18.28125 9.875 L 18.0625 10.09375 L 17.78125 10 C 16.901121 9.6940669 15.973167 9.5 15 9.5 C 10.29966 9.5 6.5 13.29965 6.5 18 C 6.5 18.488031 6.543245 18.992619 6.625 19.46875 L 6.6875 19.8125 L 6.375 19.96875 C 2.8670096 21.93914 0.5 25.68804 0.5 30 C 0.5 36.3572 5.6427998 41.5 12 41.5 L 37.5 41.5 C 43.02877 41.5 47.5 37.02877 47.5 31.5 C 47.5 26.914595 44.420265 23.090876 40.21875 21.90625 L 39.8125 21.78125 L 39.875 21.34375 C 39.96309 20.731304 40 20.133563 40 19.5 C 40 12.31438 34.18562 6.5 27 6.5 z "
       style="color:#000000;fill:none;fill-opacity:1;fill-rule:nonzero;stroke:#000000;stroke-width:1;marker:none;visibility:visible;display:inline;overflow:visible;enable-background:accumulate;stroke-opacity:1;stroke-miterlimit:4;stroke-dasharray:none;opacity:0.41" />
    <path
       style="color:#000000;fill:url(#linearGradient4539);fill-opacity:1;fill-rule:nonzero;stroke:none;stroke-width:4;marker:none;visibility:visible;display:inline;overflow:visible;enable-background:accumulate"
       d="M 27 7 C 23.766955 7 20.847743 8.2351027 18.625 10.25 L 18.40625 10.4375 L 18.1875 10.65625 L 17.90625 10.5625 L 17.625 10.46875 C 16.785882 10.177072 15.906694 10 15 10 C 10.569119 10 7 13.569109 7 18 C 7 18.458494 7.0482392 18.927954 7.125 19.375 L 7.1875 19.71875 L 7.25 20.09375 L 6.90625 20.25 L 6.625 20.40625 L 6.59375 20.40625 C 3.2501753 22.294319 1 25.880006 1 30 C 1 36.087543 5.9124573 41 12 41 L 37.5 41 C 42.759196 41 47 36.759196 47 31.5 C 47 27.138475 44.086213 23.500683 40.09375 22.375 L 40.0625 22.375 L 39.65625 22.25 L 39.25 22.125 L 39.3125 21.71875 L 39.375 21.28125 C 39.45936 20.694701 39.5 20.114144 39.5 19.5 C 39.5 12.584103 33.915897 7 27 7 z M 27 8 C 33.37761 8 38.5 13.12239 38.5 19.5 C 38.5 20.070028 38.45257 20.58569 38.375 21.125 L 38.3125 21.5625 L 38.25 21.96875 L 38.125 22.8125 L 38.96875 23.09375 L 39.375 23.21875 L 39.78125 23.34375 L 39.8125 23.34375 L 39.90625 23.375 C 43.429854 24.413083 46 27.619103 46 31.5 C 46 36.221623 42.221623 40 37.5 40 L 12 40 C 6.4504365 40 2 35.549564 2 30 C 2 26.27555 4.0344123 23.070776 7.03125 21.34375 C 7.056546 21.32917 7.068314 21.29561 7.09375 21.28125 L 7.125 21.28125 L 7.3125 21.15625 L 7.40625 21.125 L 7.65625 21 L 8.375 20.6875 L 8.25 19.9375 L 8.1875 19.5625 L 8.15625 19.53125 L 8.09375 19.21875 L 8.125 19.21875 C 8.0561745 18.817918 8 18.388352 8 18 C 8 14.106114 11.106124 11 15 11 C 15.776498 11 16.528191 11.144486 17.28125 11.40625 L 17.3125 11.40625 L 17.59375 11.5 L 17.875 11.59375 L 18.46875 11.8125 L 18.90625 11.375 L 19.0625 11.1875 L 19.125 11.15625 L 19.28125 11 C 21.33186 9.1411398 24.021638 8 27 8 z "
       id="path4512" />
    <path
       id="path4541"
       d="M 27 7 C 23.766955 7 20.847743 8.2351027 18.625 10.25 L 18.40625 10.4375 L 18.1875 10.65625 L 17.90625 10.5625 L 17.625 10.46875 C 16.785882 10.177072 15.906694 10 15 10 C 10.569119 10 7 13.569109 7 18 C 7 18.458494 7.0482392 18.927954 7.125 19.375 L 7.1875 19.71875 L 7.25 20.09375 L 6.90625 20.25 L 6.625 20.40625 L 6.59375 20.40625 C 3.2501753 22.294319 1 25.880006 1 30 C 1 36.087543 5.9124573 41 12 41 L 37.5 41 C 42.759196 41 47 36.759196 47 31.5 C 47 27.138475 44.086213 23.500683 40.09375 22.375 L 40.0625 22.375 L 39.65625 22.25 L 39.25 22.125 L 39.3125 21.71875 L 39.375 21.28125 C 39.45936 20.694701 39.5 20.114144 39.5 19.5 C 39.5 12.584103 33.915897 7 27 7 z M 27 8 C 33.37761 8 38.5 13.12239 38.5 19.5 C 38.5 20.070028 38.45257 20.58569 38.375 21.125 L 38.3125 21.5625 L 38.25 21.96875 L 38.125 22.8125 L 38.96875 23.09375 L 39.375 23.21875 L 39.78125 23.34375 L 39.8125 23.34375 L 39.90625 23.375 C 43.429854 24.413083 46 27.619103 46 31.5 C 46 36.221623 42.221623 40 37.5 40 L 12 40 C 6.4504365 40 2 35.549564 2 30 C 2 26.27555 4.0344123 23.070776 7.03125 21.34375 C 7.056546 21.32917 7.068314 21.29561 7.09375 21.28125 L 7.125 21.28125 L 7.3125 21.15625 L 7.40625 21.125 L 7.65625 21 L 8.375 20.6875 L 8.25 19.9375 L 8.1875 19.5625 L 8.15625 19.53125 L 8.09375 19.21875 L 8.125 19.21875 C 8.0561745 18.817918 8 18.388352 8 18 C 8 14.106114 11.106124 11 15 11 C 15.776498 11 16.528191 11.144486 17.28125 11.40625 L 17.3125 11.40625 L 17.59375 11.5 L 17.875 11.59375 L 18.46875 11.8125 L 18.90625 11.375 L 19.0625 11.1875 L 19.125 11.15625 L 19.28125 11 C 21.33186 9.1411398 24.021638 8 27 8 z "
       style="color:#000000;fill:url(#linearGradient4539);fill-opacity:1;fill-rule:nonzero;stroke:none;stroke-width:4;marker:none;visibility:visible;display:inline;overflow:visible;enable-background:accumulate" />
  </g>
</svg>
