<?xml version="1.0" encoding="UTF-8" standalone="no"?>
<svg xmlns="http://www.w3.org/2000/svg" xmlns:xlink="http://www.w3.org/1999/xlink" xmlns:sodipodi="http://sodipodi.sourceforge.net/DTD/sodipodi-0.dtd" xmlns:inkscape="http://www.inkscape.org/namespaces/inkscape" version="1.1" width="48" height="48">
 <metadata id="metadata41"/>
 <defs id="defs4034">
  <linearGradient id="linearGradient3947">
   <stop id="stop3949" stop-color="#4e4e4e"/>
   <stop offset="0.514" id="stop3951" stop-color="#aeaead"/>
   <stop id="stop3953" offset="0.628" stop-color="#dfdfdf"/>
   <stop offset="0.772" id="stop3955" stop-color="#ffffff"/>
   <stop id="stop3957" offset="1" stop-color="#a2a2a2"/>
  </linearGradient>
  <linearGradient id="linearGradient4073">
   <stop id="stop4075" stop-color="#ffffff"/>
   <stop offset="1" id="stop4077" stop-color="#e3e3e3"/>
  </linearGradient>
  <linearGradient inkscape:collect="always" id="linearGradient3880">
   <stop id="stop3883" stop-color="#ffffff"/>
   <stop offset="1" id="stop3885" stop-color="#ffffff" stop-opacity="0"/>
  </linearGradient>
  <linearGradient id="linearGradient3835">
   <stop id="stop3841" stop-color="#f2f2f2"/>
   <stop offset="1" id="stop3844" stop-color="#d4d4d4"/>
  </linearGradient>
  <linearGradient id="linearGradient3841">
   <stop id="stop3843" stop-color="#080808"/>
   <stop id="stop3845" offset="1" stop-color="#262626"/>
  </linearGradient>
  <linearGradient id="linearGradient3805">
   <stop id="stop3807" stop-color="#1a1a1a"/>
   <stop offset="1" id="stop3809" stop-color="#3f3f3f"/>
  </linearGradient>
  <linearGradient x1="12.938" y1="8.438" x2="15.25" y2="19.813" id="linearGradient2903-1" xlink:href="#linearGradient6592-2-7-1" gradientUnits="userSpaceOnUse" gradientTransform="matrix(0.7142858,0,0,0.86666598,-1.1428573,0.4000017)"/>
  <linearGradient id="linearGradient6592-2-7-1">
   <stop id="stop6594-0-2-4" stop-color="#ffffff" stop-opacity="0.275"/>
   <stop id="stop6596-2-5-3" offset="1" stop-color="#ffffff" stop-opacity="0"/>
  </linearGradient>
  <radialGradient cx="12.244" cy="4.863" r="21" id="radialGradient2906-7" xlink:href="#linearGradient6712-2" gradientUnits="userSpaceOnUse" gradientTransform="matrix(0.94450895,0.01356539,-0.0087941,0.75830433,-3.5503801,4.4065437)"/>
  <linearGradient id="linearGradient6712-2">
   <stop id="stop6714-7" stop-color="#3c3c3c"/>
   <stop id="stop6716-3" offset="1" stop-color="#1e1e1e"/>
  </linearGradient>
  <linearGradient x1="15.574" x2="23.578" id="linearGradient3093" xlink:href="#linearGradient3342-3" gradientUnits="userSpaceOnUse" gradientTransform="matrix(0.72744588,0,0,0.65891862,-1.151775,-2.450068)" spreadMethod="reflect"/>
  <linearGradient id="linearGradient3342-3">
   <stop id="stop3344-0" stop-color="#ffffff" stop-opacity="0"/>
   <stop id="stop3346-3" offset="1" stop-color="#ffffff"/>
  </linearGradient>
  <linearGradient y1="87.08" x2="0" y2="95.37" id="linearGradient2913-5" xlink:href="#linearGradient3178" gradientUnits="userSpaceOnUse" gradientTransform="matrix(0.68184398,0,0,0.6063426,-254.2496,-27.797984)"/>
  <linearGradient id="linearGradient3178">
   <stop id="stop3180" stop-color="#787878"/>
   <stop id="stop3184" offset="0.24" stop-color="#c8c8c8"/>
   <stop id="stop3186" offset="0.335" stop-color="#e6e6e6"/>
   <stop id="stop3188" offset="1" stop-color="#8c8c8c"/>
  </linearGradient>
  <linearGradient y1="36.08" x2="0" y2="44.32" id="linearGradient2915-7" xlink:href="#linearGradient3962" gradientUnits="userSpaceOnUse" gradientTransform="matrix(0.68430138,0,0,0.60625543,-52.461444,3.1287517)"/>
  <linearGradient id="linearGradient3962">
   <stop id="stop3964" stop-color="#464646"/>
   <stop id="stop3968" offset="0.233" stop-color="#969696"/>
   <stop id="stop3970" offset="0.344" stop-color="#aaaaaa"/>
   <stop id="stop3972" offset="1" stop-color="#646464"/>
  </linearGradient>
  <linearGradient id="linearGradient10691-1">
   <stop id="stop10693-3"/>
   <stop id="stop10695-1" offset="1" stop-opacity="0"/>
  </linearGradient>
  <radialGradient cx="6.703" cy="73.62" r="7.228" id="radialGradient4020" xlink:href="#linearGradient10691-1" gradientUnits="userSpaceOnUse" gradientTransform="matrix(1.2450862,0,0,0.27668578,7.6545456,8.631578)"/>
  <linearGradient inkscape:collect="always" xlink:href="#outerBackgroundGradient-0-1" id="linearGradient3811" y1="24.619" x2="0" y2="2" gradientUnits="userSpaceOnUse" gradientTransform="translate(3,0)"/>
  <clipPath id="clipPath3835">
   <rect width="31" height="22" rx="0.689" ry="0.667" x="0.5" y="2.5" id="rect3837" fill="url(#linearGradient3839)"/>
  </clipPath>
  <linearGradient inkscape:collect="always" xlink:href="#linearGradient3805" id="linearGradient3839" gradientUnits="userSpaceOnUse" y1="24.619" x2="0" y2="2"/>
  <clipPath id="clipPath3872">
   <path id="path3874" d="M 1.1875,3 C 1.0655458,3 1,3.064217 1,3.15625 l 0,20.6875 C 1,23.935783 1.0655458,24 1.1875,24 l 29.625,0 C 30.934454,24 31,23.935783 31,23.84375 L 31,3.15625 C 31,3.064217 30.934454,3 30.8125,3 L 1.1875,3 z"/>
  </clipPath>
  <linearGradient inkscape:collect="always" xlink:href="#linearGradient3841" id="linearGradient3876" gradientUnits="userSpaceOnUse" y1="24.619" x2="0" y2="2"/>
  <linearGradient inkscape:collect="always" xlink:href="#linearGradient3880" id="linearGradient3884" y1="2" x2="0" y2="24.637" gradientUnits="userSpaceOnUse"/>
  <radialGradient inkscape:collect="always" xlink:href="#linearGradient10691-1" id="radialGradient3888" gradientUnits="userSpaceOnUse" gradientTransform="matrix(2.2134866,0,0,0.27668578,1.1636366,4.631578)" cx="6.703" cy="73.62" r="7.228"/>
  <linearGradient inkscape:collect="always" xlink:href="#outerBackgroundGradient-5-0" id="linearGradient3934" gradientUnits="userSpaceOnUse" gradientTransform="matrix(0,-1,1,0,0,30)" x1="2.5" x2="29.5"/>
  <linearGradient id="outerBackgroundGradient-5-0">
   <stop id="stop3864-8-6-4" stop-color="#261e2b"/>
   <stop offset="1" id="stop3866-9-1-86" stop-color="#352f39"/>
  </linearGradient>
  <clipPath id="clipPath3821">
   <rect width="31" height="22" rx="0.689" ry="0.667" x="0.5" y="2.5" id="rect3823" fill="url(#linearGradient3825)"/>
  </clipPath>
  <linearGradient inkscape:collect="always" xlink:href="#outerBackgroundGradient-5-0" id="linearGradient3825" gradientUnits="userSpaceOnUse" y1="24.619" x2="0" y2="2"/>
  <linearGradient inkscape:collect="always" xlink:href="#linearGradient3835" id="linearGradient3833" y1="3" x2="0" y2="25" gradientUnits="userSpaceOnUse"/>
  <linearGradient inkscape:collect="always" xlink:href="#linearGradient3835" id="linearGradient3856" gradientUnits="userSpaceOnUse" y1="24.619" x2="0" y2="2" gradientTransform="matrix(1,0,0,-1,2.9999998,26.999999)"/>
  <clipPath id="clipPath3862">
   <rect width="28" height="17" rx="0" x="2" y="4" id="rect3864" fill="url(#linearGradient3825)"/>
  </clipPath>
  <linearGradient inkscape:collect="always" xlink:href="#linearGradient3880" id="linearGradient3887" x1="10" y1="-3" x2="20" y2="12" gradientUnits="userSpaceOnUse" gradientTransform="translate(3,0)"/>
  <linearGradient id="linearGradient2715-8">
   <stop id="stop2717-1" stop-color="#ffffff"/>
   <stop offset="0.162" id="stop2719-0" stop-color="#d3d7cf"/>
   <stop id="stop2721-2" offset="0.856" stop-color="#d3d7cf"/>
   <stop id="stop2723-8" offset="1" stop-color="#ffffff"/>
  </linearGradient>
  <linearGradient inkscape:collect="always" xlink:href="#linearGradient10826" id="linearGradient5601" gradientUnits="userSpaceOnUse" gradientTransform="matrix(1.2915983,0,0,0.7041466,-93.158919,-272.04186)" y1="83.46" x2="0" y2="93.07"/>
  <linearGradient id="linearGradient10826">
   <stop id="stop10828" stop-color="#4e4e4e"/>
   <stop id="stop10830" offset="0.514" stop-color="#aeaead"/>
   <stop offset="0.628" id="stop10832" stop-color="#dfdfdf"/>
   <stop id="stop10834" offset="0.772" stop-color="#ffffff"/>
   <stop offset="1" id="stop10836" stop-color="#4b4b4b"/>
  </linearGradient>
  <linearGradient inkscape:collect="always" xlink:href="#linearGradient2712-5" id="linearGradient5603" gradientUnits="userSpaceOnUse" gradientTransform="matrix(1.2915983,0,0,0.7041466,-93.158919,-272.04186)" y1="86.91" x2="0" y2="93.88"/>
  <linearGradient id="linearGradient2712-5">
   <stop id="stop2714-0" stop-color="#555753"/>
   <stop offset="0.52" id="stop2716-3" stop-color="#babdb6"/>
   <stop id="stop2718-2" offset="0.817" stop-color="#888a85"/>
   <stop id="stop2720-7" offset="1" stop-color="#555753"/>
  </linearGradient>
  <linearGradient y2="93.07" x2="0" y1="83.46" gradientTransform="matrix(1.2915983,0,0,0.7041466,-389.23032,-39.047924)" gradientUnits="userSpaceOnUse" id="linearGradient6429" xlink:href="#linearGradient3947" inkscape:collect="always"/>
  <clipPath id="clipPath3909">
   <path id="path3911" d="m 5,-8 38,0 0,25 -38,0 z"/>
  </clipPath>
  <linearGradient inkscape:collect="always" xlink:href="#outerBackgroundGradient-5-0" id="linearGradient3913" gradientUnits="userSpaceOnUse" gradientTransform="translate(3,0)" y1="24.619" x2="0" y2="2"/>
  <radialGradient inkscape:collect="always" xlink:href="#linearGradient10691-1" id="radialGradient3919" gradientUnits="userSpaceOnUse" gradientTransform="matrix(3.0435441,0,0,0.38044295,3.600001,-1.1315802)" cx="6.703" cy="73.62" r="7.228"/>
  <radialGradient inkscape:collect="always" xlink:href="#linearGradient10691-1" id="radialGradient3921" gradientUnits="userSpaceOnUse" gradientTransform="matrix(1.7119935,0,0,0.38044295,11.150001,0.24341975)" cx="8.07" cy="73.3" r="7.228"/>
  <clipPath id="clipPath3862-0">
   <rect width="28" height="17" rx="0" x="2" y="4" id="rect3864-5" fill="url(#linearGradient3825)"/>
  </clipPath>
  <clipPath id="clipPath4298">
   <path id="path4300" d="m 412.56306,54.066997 32.49568,0 0,20.893998 -32.49568,0 z"/>
  </clipPath>
  <linearGradient id="linearGradient4094-1-8">
   <stop id="stop4096-0-9" stop-color="#676767"/>
   <stop id="stop4098-37-6" offset="1" stop-color="#8a8a8a"/>
  </linearGradient>
  <clipPath id="clipPath4172-0-6">
   <rect id="rect4174-3-1" width="90" height="90" x="307" y="43" fill="none" color="#bebebe" stroke-width="0" rx="18.75"/>
  </clipPath>
  <linearGradient id="linearGradient4121-4-8">
   <stop id="stop4123-0-37" stop-color="#c3b7a4"/>
   <stop id="stop4125-76-2" offset="1" stop-color="#ffffff"/>
  </linearGradient>
  <linearGradient inkscape:collect="always" id="linearGradient4762">
   <stop id="stop4764" stop-color="#e3e3e3"/>
   <stop offset="1" id="stop4766" stop-color="#e3e3e3" stop-opacity="0"/>
  </linearGradient>
  <linearGradient inkscape:collect="always" xlink:href="#outerBackgroundGradient-0-1" id="linearGradient4304" gradientUnits="userSpaceOnUse" x1="15.354" y1="20.11" x2="15.09" y2="4.652"/>
  <linearGradient id="outerBackgroundGradient-0-1">
   <stop id="stop3864-8-6-3-6" stop-color="#a348b1"/>
   <stop offset="1" id="stop3866-9-1-7-3" stop-color="#b1488f"/>
  </linearGradient>
  <linearGradient inkscape:collect="always" xlink:href="#linearGradient4094-1-8" id="linearGradient3534" gradientUnits="userSpaceOnUse" gradientTransform="matrix(0.375,0,0,0.375,298,27.999997)" y1="170.67" x2="0" y2="42.667"/>
  <linearGradient inkscape:collect="always" xlink:href="#linearGradient4121-4-8" id="linearGradient3536" gradientUnits="userSpaceOnUse" x1="392" y1="128" x2="368" y2="48"/>
  <linearGradient inkscape:collect="always" xlink:href="#linearGradient4762" id="linearGradient4404" gradientUnits="userSpaceOnUse" y1="0" x2="0" y2="20" gradientTransform="matrix(1,0,0,1.4705882,1.0000001,1.117647)"/>
  <linearGradient inkscape:collect="always" xlink:href="#linearGradient10691-1" id="linearGradient4451" gradientUnits="userSpaceOnUse" gradientTransform="matrix(1,0,0,-1.4705882,2.0000001,22.882353)" y1="0" x2="0" y2="20"/>
 </defs>
 <g inkscape:groupmode="layer" id="layer1" inkscape:label="Background" transform="translate(0,16)">
  <g id="g3915" transform="translate(0,-1)">
   <path d="m 46,26.875 c 0,1.518784 -9.849737,2.75 -22.000003,2.75 C 11.849733,29.625 2,28.393784 2,26.875 2,25.356218 11.849733,24.125 23.999997,24.125 36.150263,24.125 46,25.356218 46,26.875 z" inkscape:connector-curvature="0" id="path4220" sodipodi:nodetypes="csssc" opacity="0.1" fill="url(#radialGradient3919)" stroke-width="0.8"/>
   <path sodipodi:nodetypes="csssc" d="M 35,28.25 C 35,29.768784 31.522024,31 24.6875,31 17.852976,31 13,29.768784 13,28.25 13,26.731218 17.852976,25.5 24.6875,25.5 31.522024,25.5 35,26.731218 35,28.25 z" inkscape:connector-curvature="0" id="path2589" opacity="0.3" fill="url(#radialGradient3921)" stroke-width="0.8"/>
  </g>
  <path inkscape:connector-curvature="0" d="m 17.505733,19.044176 0,4.92902 c -0.0286,1.26886 -4.61672,1.54994 -4.61672,1.54994 -2.07922,-0.0678 -1.75634,2.05487 0.125,1.97079 l 21.96499,0 c 2.16857,0.1353 1.98793,-2.03522 0,-1.97079 0,0 -4.3306,-0.28108 -4.35914,-1.54994 l 0,-4.92902 z" id="path2682-8" sodipodi:nodetypes="ccccccccc" fill="url(#linearGradient6429)"/>
  <path sodipodi:nodetypes="ccccccccc" id="path3903" d="m 17.505733,19.044176 0,4.92902 c -0.0286,1.26886 -4.61672,1.54994 -4.61672,1.54994 -2.07922,-0.0678 -1.75634,2.05487 0.125,1.97079 l 21.96499,0 c 2.16857,0.1353 1.98793,-2.03522 0,-1.97079 0,0 -4.3306,-0.28108 -4.35914,-1.54994 l 0,-4.92902 z" inkscape:connector-curvature="0" opacity="0.61" fill="none" stroke="#000000" stroke-linejoin="round" stroke-linecap="round" stroke-dashoffset="0.5"/>
  <path d="m 2.1888869,20.49988 43.6222261,0 c 0.381647,0 0.688893,-0.297332 0.688893,-0.666664 l 0,-30.666432 c 0,-0.369332 -0.307246,-0.666664 -0.688893,-0.666664 l -43.622226,0 c -0.3816466,0 -0.6888928,0.297332 -0.6888928,0.666664 l 0,30.666432 c 0,0.369332 0.3072462,0.666664 0.6888927,0.666664 z" id="rect3854" inkscape:connector-curvature="0" sodipodi:nodetypes="sssssssss" fill="url(#linearGradient3856)"/>
  <path d="m 39,19 5,0 0,1.5 -5,0 z" id="rect3889" inkscape:connector-curvature="0" sodipodi:nodetypes="ccccc" fill="#2b2b2b"/>
  <path d="m 3,-10 42,0 0,27 -42,0 z" id="rect2722" inkscape:connector-curvature="0" sodipodi:nodetypes="ccccc" fill="url(#linearGradient3811)"/>
  <path d="M 3,-10 3,12 45,-5.125 45,-10 z" id="rect3872" inkscape:connector-curvature="0" sodipodi:nodetypes="ccccc" opacity="0.2" fill="url(#linearGradient3887)"/>
  <path d="m 2.1888869,-11.49988 43.6222261,0 c 0.381647,0 0.688893,0.297332 0.688893,0.666664 l 0,30.666431 c 0,0.369332 -0.307246,0.666664 -0.688893,0.666664 l -43.622226,0 c -0.3816466,0 -0.6888928,-0.297332 -0.6888928,-0.666664 l 0,-30.666431 c 0,-0.369332 0.3072462,-0.666664 0.6888927,-0.666664 z" id="rect3803" inkscape:connector-curvature="0" sodipodi:nodetypes="sssssssss" opacity="0.61" fill="none" stroke="#000000" stroke-linejoin="round" stroke-linecap="round" stroke-dashoffset="0.5"/>
  <path d="m 3,17 42,0 0,1 -42,0 z" id="rect3868" inkscape:connector-curvature="0" sodipodi:nodetypes="ccccc" opacity="0.6" fill="#ffffff"/>
  <path id="path4449" d="m 5,17 0,-23.53125 1,0 L 6,17 5,17 z m 2,0 0,-23.53125 1,0 L 8,17 7,17 z m 2,0 0,-23.53125 1,0 L 10,17 9,17 z m 2,0 0,-23.53125 1,0 L 12,17 11,17 z m 2,0 0,-23.53125 1,0 L 14,17 13,17 z m 2,0 0,-23.53125 1,0 L 16,17 15,17 z m 2,0 0,-23.53125 1,0 L 18,17 17,17 z m 2,0 0,-23.53125 1,0 L 20,17 19,17 z m 2,0 0,-23.53125 1,0 L 22,17 21,17 z m 2,0 0,-23.53125 1,0 L 24,17 23,17 z m 2,0 0,-23.53125 1,0 L 26,17 25,17 z m 2,0 0,-23.53125 1,0 L 28,17 27,17 z m 2,0 0,-23.53125 1,0 L 30,17 29,17 z m 2,0 0,-23.53125 1,0 L 32,17 31,17 z m 2,0 0,-23.53125 1,0 L 34,17 33,17 z m 2,0 0,-23.53125 1,0 L 36,17 35,17 z m 2,0 0,-23.53125 1,0 L 38,17 37,17 z m 2,0 0,-23.53125 1,0 L 40,17 39,17 z m 2,0 0,-23.53125 1,0 L 42,17 41,17 z m 2,0 0,-23.53125 1,0 L 44,17 43,17 z" inkscape:connector-curvature="0" opacity="0.4" fill="url(#linearGradient4451)"/>
  <path d="M 4 7 L 4 30.53125 L 5 30.53125 L 5 7 L 4 7 z M 6 7 L 6 30.53125 L 7 30.53125 L 7 7 L 6 7 z M 8 7 L 8 30.53125 L 9 30.53125 L 9 7 L 8 7 z M 10 7 L 10 30.53125 L 11 30.53125 L 11 7 L 10 7 z M 12 7 L 12 30.53125 L 13 30.53125 L 13 7 L 12 7 z M 14 7 L 14 30.53125 L 15 30.53125 L 15 7 L 14 7 z M 16 7 L 16 30.53125 L 17 30.53125 L 17 7 L 16 7 z M 18 7 L 18 30.53125 L 19 30.53125 L 19 7 L 18 7 z M 20 7 L 20 30.53125 L 21 30.53125 L 21 7 L 20 7 z M 22 7 L 22 30.53125 L 23 30.53125 L 23 7 L 22 7 z M 24 7 L 24 30.53125 L 25 30.53125 L 25 7 L 24 7 z M 26 7 L 26 30.53125 L 27 30.53125 L 27 7 L 26 7 z M 28 7 L 28 30.53125 L 29 30.53125 L 29 7 L 28 7 z M 30 7 L 30 30.53125 L 31 30.53125 L 31 7 L 30 7 z M 32 7 L 32 30.53125 L 33 30.53125 L 33 7 L 32 7 z M 34 7 L 34 30.53125 L 35 30.53125 L 35 7 L 34 7 z M 36 7 L 36 30.53125 L 37 30.53125 L 37 7 L 36 7 z M 38 7 L 38 30.53125 L 39 30.53125 L 39 7 L 38 7 z M 40 7 L 40 30.53125 L 41 30.53125 L 41 7 L 40 7 z M 42 7 L 42 30.53125 L 43 30.53125 L 43 7 L 42 7 z " transform="translate(0,-16)" id="rect4760" opacity="0.4" fill="url(#linearGradient4404)"/>
  <g clip-path="url(#clipPath4298)" transform="matrix(1.2924795,0,0,1.2204462,-530.2293,-75.98629)" id="g4669" enable-background="new">
   <g id="g4671" transform="matrix(0.375,0,0,0.375,297.135,38.375)">
    <path transform="translate(0,-4)" clip-path="none" d="m 351,43 9,4 37,39 0,-24.333333 C 397.8723,57.444033 402.38518,38.937067 378.33333,43 z" id="path4673" inkscape:connector-curvature="0" sodipodi:nodetypes="cccccc" fill="url(#linearGradient3534)" color="#bebebe" stroke-width="0"/>
   </g>
  </g>
  <g id="g4127" transform="matrix(1.2924795,0,0,1.2204462,-530.2293,-74.98629)" clip-path="url(#clipPath4298)" enable-background="new">
   <g transform="matrix(0.375,0,0,0.375,297.135,38.375)" id="g4343">
    <path sodipodi:nodetypes="cccccc" inkscape:connector-curvature="0" id="path4347" d="m 351,43 9,4 37,39 0,-24.333333 C 397.8723,57.444033 402.38518,38.937067 378.33333,43 z" clip-path="none" transform="translate(0,-4)" fill="url(#linearGradient3534)" color="#bebebe" stroke-width="0"/>
    <path d="m 351,43 c 0,0 4.76696,1.936657 6,4 6.04018,10.107486 3.33333,35.166667 3.33333,35.166667 0,0 27.66667,-7.37868 36.66667,0.62132 C 397,82.787987 367,43 351,43 z" id="path4240" inkscape:connector-curvature="0" sodipodi:nodetypes="caccc" transform="translate(0,-4)" opacity="0.1" fill="none" stroke="#000000" color="#bebebe" stroke-width="4.246"/>
    <path d="m 349.84688,42.37378 c 0,0 4.75568,1.872234 6,4 5.8573,10.015876 3.33333,35.166666 3.33333,35.166666 0,0 28.76086,-7.378679 37.76086,0.621321 0,0 -31.09419,-39.787987 -47.09419,-39.787987 z" id="path4345" inkscape:connector-curvature="0" sodipodi:nodetypes="caccc" opacity="0.2" color="#bebebe" stroke-width="0"/>
    <path transform="translate(0,-4)" sodipodi:nodetypes="caccc" inkscape:connector-curvature="0" id="path4351" d="m 349.90581,43 c 0,0 4.75568,1.872234 6,4 5.8573,10.015876 3.33333,35.166667 3.33333,35.166667 0,0 28.76086,-7.37868 37.76086,0.62132 C 397,82.787987 365.90581,43 349.90581,43 z" fill="url(#linearGradient3536)" color="#bebebe" stroke-width="0"/>
   </g>
  </g>
  <rect id="rect2694-8" width="23.695" height="0.956" x="12.153" y="26.04" rx="0.478" opacity="0.8" fill="#ffffff"/>
  <path d="M 3 6 L 3 33 L 45 33 L 45 6 L 3 6 z M 4 7 L 44 7 L 44 32 L 4 32 L 4 7 z " id="path3942" transform="translate(0,-16)" opacity="0.4"/>
  <path d="M 2.1875,-11 C 2.0655458,-11 2,-10.935783 2,-10.84375 l 0,1 C 2,-9.935783 2.0655458,-10 2.1875,-10 l 43.625,0 C 45.934454,-10 46,-9.935783 46,-9.84375 l 0,-1 C 46,-10.935783 45.934454,-11 45.8125,-11 z" id="rect3815" inkscape:connector-curvature="0" sodipodi:nodetypes="sscsscsss" opacity="0.1" fill="#ffffff"/>
  <path d="m 3,-10 42,0 0,1 -42,0 z" id="rect3870" inkscape:connector-curvature="0" sodipodi:nodetypes="ccccc" opacity="0.2"/>
 </g>
</svg>
