<?xml version="1.0" encoding="UTF-8" standalone="no"?>
<svg xmlns="http://www.w3.org/2000/svg" xmlns:xlink="http://www.w3.org/1999/xlink" xmlns:sodipodi="http://sodipodi.sourceforge.net/DTD/sodipodi-0.dtd" xmlns:inkscape="http://www.inkscape.org/namespaces/inkscape" version="1.1" width="22" height="22">
 <metadata id="metadata148432"/>
 <defs id="defs3751">
  <linearGradient id="linearGradient4119">
   <stop id="stop4121" stop-color="#ffffff"/>
   <stop id="stop4148" offset="0.54" stop-color="#afaba5"/>
   <stop id="stop4146" offset="0.62" stop-color="#837874"/>
   <stop id="stop4123" offset="1" stop-color="#b4b2aa"/>
  </linearGradient>
  <linearGradient y1="15.369" x2="0" y2="40.496" id="linearGradient3097" xlink:href="#linearGradient3812" gradientUnits="userSpaceOnUse" gradientTransform="matrix(0.77562456,0,0,0.77562491,-44.981566,-10.614261)"/>
  <radialGradient cx="16" cy="15.377" r="0.626" id="radialGradient3110" xlink:href="#linearGradient4119" gradientUnits="userSpaceOnUse" gradientTransform="matrix(0,1.9131623,-1.9131652,0,45.41917,-15.233372)"/>
  <linearGradient inkscape:collect="always" id="linearGradient26121-3-8-2">
   <stop id="stop26123-4-7-8" stop-color="#000000"/>
   <stop offset="1" id="stop26125-3-9-9" stop-color="#000000" stop-opacity="0"/>
  </linearGradient>
  <radialGradient inkscape:collect="always" xlink:href="#linearGradient26121-3-8-2" id="radialGradient3755" gradientUnits="userSpaceOnUse" gradientTransform="matrix(1,0,0,0.37,0,24.5124)" cx="24.85" cy="38.909" r="20.2"/>
  <radialGradient inkscape:collect="always" xlink:href="#linearGradient3901" id="radialGradient3805" gradientUnits="userSpaceOnUse" gradientTransform="matrix(4.5367027e-8,-1.7632481,-1.8653063,0,56.032672,39.551899)" cx="6.16" cy="8.45" r="20"/>
  <linearGradient id="linearGradient3901">
   <stop id="stop3903" stop-color="#ffffff"/>
   <stop offset="1" id="stop3905" stop-color="#d2d2d2"/>
  </linearGradient>
  <linearGradient inkscape:collect="always" xlink:href="#linearGradient3812" id="linearGradient3818" x1="2" x2="30" gradientUnits="userSpaceOnUse" gradientTransform="matrix(0,1,-1,0,56.271187,-3.6991515)"/>
  <linearGradient inkscape:collect="always" id="linearGradient3812">
   <stop id="stop3814" stop-color="#ffffff"/>
   <stop offset="1" id="stop3816" stop-color="#ffffff" stop-opacity="0"/>
  </linearGradient>
  <linearGradient inkscape:collect="always" xlink:href="#linearGradient3904" id="linearGradient3902" x1="1" x2="31" gradientUnits="userSpaceOnUse" gradientTransform="matrix(0,-1,1,0,24.271186,28.300848)"/>
  <linearGradient id="linearGradient3904">
   <stop id="stop3906" stop-color="#858585"/>
   <stop id="stop3908" offset="1" stop-color="#8e8e8e"/>
  </linearGradient>
  <radialGradient r="20.2" cy="38.909" cx="24.85" gradientTransform="matrix(1.00851,0,0,0.373148,-0.211403,24.39)" gradientUnits="userSpaceOnUse" id="radialGradient3050" xlink:href="#linearGradient26121-3-8-2" inkscape:collect="always"/>
  <linearGradient inkscape:collect="always" xlink:href="#linearGradient3901" id="linearGradient3879" x1="0.5" x2="21.5" gradientUnits="userSpaceOnUse" gradientTransform="matrix(0,1,-1,0,22,1.2499881e-7)"/>
  <linearGradient inkscape:collect="always" xlink:href="#linearGradient3904" id="linearGradient3887" x1="0" x2="22" gradientUnits="userSpaceOnUse" gradientTransform="matrix(0,1,-1,0,22,2.499641e-8)"/>
  <radialGradient inkscape:collect="always" xlink:href="#radialGradient4793" id="radialGradient4129" gradientUnits="userSpaceOnUse" gradientTransform="matrix(0,1.4794679,-1.9528714,0,42.79201,-12.070966)" cx="23.896" cy="3.99" r="20.397"/>
  <radialGradient gradientTransform="matrix(0,1.2316483,-1.625754,0,18.486966,-28.721977)" gradientUnits="userSpaceOnUse" id="radialGradient4793" r="20.397" cy="3.99" cx="23.896">
   <stop id="stop4795" stop-color="#232323"/>
   <stop offset="0.262" id="stop4797" stop-color="#212121"/>
   <stop offset="0.661" id="stop4799" stop-color="#1c1c1c"/>
   <stop offset="1" id="stop4801" stop-color="#121212"/>
  </radialGradient>
  <linearGradient inkscape:collect="always" xlink:href="#linearGradient3812" id="linearGradient4126" gradientUnits="userSpaceOnUse" gradientTransform="matrix(0,1,-1,0,70.999998,-1.999723)" x1="26" x2="46"/>
  <linearGradient inkscape:collect="always" xlink:href="#linearGradient4803" id="linearGradient4122" gradientUnits="userSpaceOnUse" gradientTransform="matrix(0.37500007,0,0,-0.37499833,15.757,46.000084)" y1="8.114" x2="0" y2="56.11"/>
  <linearGradient id="linearGradient4803">
   <stop id="stop4805" stop-color="#5f5f5f"/>
   <stop offset="0.331" id="stop4807" stop-color="#505050"/>
   <stop offset="1" id="stop4809" stop-color="#1c1c1c"/>
  </linearGradient>
  <linearGradient inkscape:collect="always" xlink:href="#linearGradient4811" id="linearGradient4119-8" gradientUnits="userSpaceOnUse" gradientTransform="matrix(0.46791442,0,0,0.46791442,-8.0883702,18.759496)" y1="16.543" x2="0" y2="48.631"/>
  <linearGradient id="linearGradient4811">
   <stop id="stop4813" stop-color="#3a3842"/>
   <stop offset="1" id="stop4815" stop-color="#303036"/>
  </linearGradient>
  <radialGradient inkscape:collect="always" xlink:href="#linearGradient6042-1-7-8-8-5" id="radialGradient4113" gradientUnits="userSpaceOnUse" gradientTransform="matrix(0,0.6733571,-1.5511106,0,67.94433,8.850549)" cx="32" cy="21.239" r="10.498"/>
  <linearGradient id="linearGradient6042-1-7-8-8-5">
   <stop id="stop6044-9-6-3-6-6" stop-color="#261b2b"/>
   <stop id="stop6046-9-5-1-2-5" offset="1" stop-color="#332f35"/>
  </linearGradient>
  <radialGradient inkscape:collect="always" xlink:href="#linearGradient2867-449-88-871-390-598-476-591-434-148-57-177-691-4-22-1-2-5" id="radialGradient4106" gradientUnits="userSpaceOnUse" gradientTransform="matrix(0,0.2344161,-0.30942651,0,36.23449,26.249571)" cx="23.896" cy="3.99" r="20.397"/>
  <linearGradient id="linearGradient2867-449-88-871-390-598-476-591-434-148-57-177-691-4-22-1-2-5">
   <stop id="stop7191-4-6-8-8-0" stop-color="#612f91"/>
   <stop id="stop7197-2-8-6-5-9" offset="1" stop-color="#1a4aa2"/>
  </linearGradient>
  <linearGradient inkscape:collect="always" xlink:href="#linearGradient3087-408-5-3-7-9-1" id="linearGradient4108" gradientUnits="userSpaceOnUse" gradientTransform="matrix(0.09821987,0,0,0.09821945,32.64258,31.642799)" y1="3.082" x2="0" y2="45.37"/>
  <linearGradient y1="3.082" x2="0" y2="45.37" id="linearGradient3087-408-5-3-7-9-1" gradientUnits="userSpaceOnUse" gradientTransform="matrix(0.22110724,0,0,0.22110728,6.6934256,6.693263)">
   <stop id="stop7201-5-71-3-5-2" stop-color="#170418"/>
   <stop id="stop7203-2-8-8-5-3" offset="1" stop-color="#50386b"/>
  </linearGradient>
  <radialGradient inkscape:collect="always" xlink:href="#linearGradient4278-3-5-5-9-2" id="radialGradient4103" gradientUnits="userSpaceOnUse" gradientTransform="matrix(0.19553888,-2.9157311e-8,2.7395628e-8,0.18372271,16.22942,16.403041)" cx="95.84" cy="95.39" r="9.498"/>
  <linearGradient id="linearGradient4278-3-5-5-9-2">
   <stop id="stop4280-6-90-6-3-6" stop-opacity="0"/>
   <stop id="stop4286-1-9-5-7-9" offset="0.5" stop-opacity="0"/>
   <stop id="stop4282-24-4-0-5-4" offset="1"/>
  </linearGradient>
  <radialGradient inkscape:collect="always" xlink:href="#linearGradient6088-74-4-8-8-8" id="radialGradient4099" gradientUnits="userSpaceOnUse" gradientTransform="matrix(-0.69848286,0,0,-0.69847961,57.614743,55.939314)" cx="32.373" cy="31.405" r="3.857"/>
  <linearGradient id="linearGradient6088-74-4-8-8-8">
   <stop id="stop6090-5-66-7-7-4" stop-color="#ff54d2" stop-opacity="0"/>
   <stop id="stop6257-5-4-6-4-1" offset="0.324" stop-color="#f62b68"/>
   <stop id="stop6255-6-7-9-7-1" offset="0.561" stop-color="#ff0105"/>
   <stop id="stop6092-0-22-2-1-1" offset="1" stop-color="#ff54d2" stop-opacity="0.478"/>
  </linearGradient>
  <linearGradient inkscape:collect="always" xlink:href="#linearGradient4316-4-6-6-4-5-1-8" id="linearGradient4096" gradientUnits="userSpaceOnUse" gradientTransform="matrix(0.11294455,0,0,0.11294455,24.59928,30.321368)" y1="16.555" x2="0" y2="48.984"/>
  <linearGradient id="linearGradient4316-4-6-6-4-5-1-8">
   <stop id="stop4318-4-4-6-5-3-0-4" stop-color="#ffffff"/>
   <stop id="stop4320-2-2-6-59-35-1-3" offset="0.338" stop-color="#ffffff" stop-opacity="0.235"/>
   <stop id="stop4322-4-5-5-0-1-8-6" offset="0.62" stop-color="#ffffff" stop-opacity="0.157"/>
   <stop id="stop4324-4-1-5-5-42-0-0" offset="1" stop-color="#ffffff" stop-opacity="0.392"/>
  </linearGradient>
  <linearGradient inkscape:collect="always" xlink:href="#linearGradient3812" id="linearGradient4093" gradientUnits="userSpaceOnUse" gradientTransform="matrix(0.05404846,0,0,0.04053616,31.38316,30.92865)" y1="52.925" x2="0" y2="65.922"/>
  <radialGradient inkscape:collect="always" xlink:href="#linearGradient6191-9-9-5-0-4" id="radialGradient4090" gradientUnits="userSpaceOnUse" gradientTransform="matrix(0.69887275,0.18726152,-0.18078067,0.67467948,18.049632,6.746495)" cx="32.373" cy="31.405" r="3.857"/>
  <linearGradient id="linearGradient6191-9-9-5-0-4">
   <stop id="stop6193-8-1-3-2-6" stop-color="#ffffff" stop-opacity="0"/>
   <stop id="stop6197-8-8-7-1-9" offset="0.405" stop-color="#ffffff" stop-opacity="0"/>
   <stop id="stop6195-9-3-6-0-8" offset="1" stop-color="#ffffff" stop-opacity="0.478"/>
  </linearGradient>
  <radialGradient inkscape:collect="always" xlink:href="#linearGradient6191-9-9-5-0-4" id="radialGradient4087" gradientUnits="userSpaceOnUse" gradientTransform="matrix(0,0.72352295,-0.69848286,-2.9134813e-8,56.937982,10.573955)" cx="32.373" cy="31.405" r="3.857"/>
  <radialGradient inkscape:collect="always" xlink:href="#linearGradient6191-9-9-5-0-4" id="radialGradient4084" gradientUnits="userSpaceOnUse" gradientTransform="matrix(0.42281461,0.58712428,-0.56680474,0.40817779,39.112258,2.170078)" cx="32.373" cy="31.405" r="3.857"/>
  <radialGradient inkscape:collect="always" xlink:href="#linearGradient6088-6-1-0-06-8-8" id="radialGradient4081" gradientUnits="userSpaceOnUse" gradientTransform="matrix(-0.49390196,-0.49389966,0.49390196,-0.49389966,35.477636,64.85271)" cx="32.373" cy="31.405" r="3.857"/>
  <linearGradient id="linearGradient6088-6-1-0-06-8-8">
   <stop id="stop6090-2-0-4-9-4-0" stop-color="#ff54d2" stop-opacity="0"/>
   <stop id="stop6257-4-6-1-76-0-7" offset="0.324" stop-color="#ff54d2" stop-opacity="0"/>
   <stop id="stop6255-3-6-7-23-8-1" offset="0.561" stop-color="#ff54d2" stop-opacity="0.252"/>
   <stop id="stop6092-9-6-8-9-2-4" offset="1" stop-color="#ff54d2" stop-opacity="0.478"/>
  </linearGradient>
  <radialGradient inkscape:collect="always" xlink:href="#linearGradient3812" id="radialGradient4078" gradientUnits="userSpaceOnUse" gradientTransform="matrix(0.77231662,-0.44589514,0.25370014,0.43941951,-1.5801101,35.033531)" cx="36.491" cy="39.709" r="3.159"/>
  <radialGradient inkscape:collect="always" xlink:href="#linearGradient3812" id="radialGradient4075" gradientUnits="userSpaceOnUse" gradientTransform="matrix(0.62147768,-0.35880864,0.20415069,0.35359772,2.0570698,30.647772)" cx="36.491" cy="39.709" r="3.159"/>
  <radialGradient inkscape:collect="always" xlink:href="#linearGradient3812" id="radialGradient4072" gradientUnits="userSpaceOnUse" gradientTransform="matrix(0.17728269,0,0,0.18545771,28.32887,26.342082)" cx="36.491" cy="39.709" r="3.159"/>
  <linearGradient inkscape:collect="always" xlink:href="#linearGradient6413-0-0-0-9-7" id="linearGradient4069" gradientUnits="userSpaceOnUse" gradientTransform="matrix(0.17728269,0,0,0.18545771,26.84164,25.441923)" x1="38.851" y1="41.608" x2="34.13" y2="37.81"/>
  <linearGradient id="linearGradient6413-0-0-0-9-7">
   <stop id="stop6415-1-7-3-8-5" stop-color="#feffff"/>
   <stop id="stop6417-4-9-2-3-3" offset="1" stop-color="#fe70ca"/>
  </linearGradient>
  <linearGradient inkscape:collect="always" xlink:href="#linearGradient6455-7-3-3-2-4" id="linearGradient4066" gradientUnits="userSpaceOnUse" gradientTransform="matrix(0.12398751,0,0,0.12970493,29.10444,27.98847)" x1="38.851" y1="41.608" x2="34.13" y2="37.81"/>
  <linearGradient id="linearGradient6455-7-3-3-2-4">
   <stop id="stop6457-5-1-10-5-0" stop-color="#fbac9b"/>
   <stop id="stop6459-8-9-7-0-2" offset="1" stop-color="#fcfafc"/>
  </linearGradient>
  <linearGradient inkscape:collect="always" xlink:href="#linearGradient3812" id="linearGradient4063" gradientUnits="userSpaceOnUse" gradientTransform="matrix(0,1,-1,0,70.998773,-1.9997262)" x1="28.5" x2="43.5"/>
  <linearGradient inkscape:collect="always" xlink:href="#linearGradient3812" id="linearGradient3202" gradientUnits="userSpaceOnUse" gradientTransform="matrix(0,1,-1,0,46.998773,-24.999726)" x1="28.5" x2="43.5"/>
  <linearGradient inkscape:collect="always" xlink:href="#linearGradient6455-7-3-3-2-4" id="linearGradient3205" gradientUnits="userSpaceOnUse" gradientTransform="matrix(0.12398751,0,0,0.12970493,5.10444,4.98847)" x1="38.851" y1="41.608" x2="34.13" y2="37.81"/>
  <linearGradient inkscape:collect="always" xlink:href="#linearGradient6413-0-0-0-9-7" id="linearGradient3208" gradientUnits="userSpaceOnUse" gradientTransform="matrix(0.17728269,0,0,0.18545771,2.84164,2.441923)" x1="38.851" y1="41.608" x2="34.13" y2="37.81"/>
  <radialGradient inkscape:collect="always" xlink:href="#linearGradient3812" id="radialGradient3211" gradientUnits="userSpaceOnUse" gradientTransform="matrix(0.17728269,0,0,0.18545771,4.32887,3.342082)" cx="36.491" cy="39.709" r="3.159"/>
  <radialGradient inkscape:collect="always" xlink:href="#linearGradient3812" id="radialGradient3214" gradientUnits="userSpaceOnUse" gradientTransform="matrix(0.62147768,-0.35880864,0.20415069,0.35359772,-21.94293,7.647772)" cx="36.491" cy="39.709" r="3.159"/>
  <radialGradient inkscape:collect="always" xlink:href="#linearGradient3812" id="radialGradient3217" gradientUnits="userSpaceOnUse" gradientTransform="matrix(0.77231662,-0.44589514,0.25370014,0.43941951,-25.58011,12.033531)" cx="36.491" cy="39.709" r="3.159"/>
  <radialGradient inkscape:collect="always" xlink:href="#linearGradient6088-6-1-0-06-8-8" id="radialGradient3220" gradientUnits="userSpaceOnUse" gradientTransform="matrix(-0.49390196,-0.49389966,0.49390196,-0.49389966,11.477636,41.85271)" cx="32.373" cy="31.405" r="3.857"/>
  <radialGradient inkscape:collect="always" xlink:href="#linearGradient6191-9-9-5-0-4" id="radialGradient3223" gradientUnits="userSpaceOnUse" gradientTransform="matrix(0.42281461,0.58712428,-0.56680474,0.40817779,15.112258,-20.829922)" cx="32.373" cy="31.405" r="3.857"/>
  <radialGradient inkscape:collect="always" xlink:href="#linearGradient6191-9-9-5-0-4" id="radialGradient3226" gradientUnits="userSpaceOnUse" gradientTransform="matrix(0,0.72352295,-0.69848286,-2.9134813e-8,32.937982,-12.426045)" cx="32.373" cy="31.405" r="3.857"/>
  <radialGradient inkscape:collect="always" xlink:href="#linearGradient6191-9-9-5-0-4" id="radialGradient3229" gradientUnits="userSpaceOnUse" gradientTransform="matrix(0.69887275,0.18726152,-0.18078067,0.67467948,-5.950368,-16.253505)" cx="32.373" cy="31.405" r="3.857"/>
  <linearGradient inkscape:collect="always" xlink:href="#linearGradient3812" id="linearGradient3232" gradientUnits="userSpaceOnUse" gradientTransform="matrix(0.05404846,0,0,0.04053616,7.38316,7.92865)" y1="52.925" x2="0" y2="65.922"/>
  <linearGradient inkscape:collect="always" xlink:href="#linearGradient4316-4-6-6-4-5-1-8" id="linearGradient3235" gradientUnits="userSpaceOnUse" gradientTransform="matrix(0.11294455,0,0,0.11294455,0.59928,7.321368)" y1="16.555" x2="0" y2="48.984"/>
  <radialGradient inkscape:collect="always" xlink:href="#linearGradient6088-74-4-8-8-8" id="radialGradient3238" gradientUnits="userSpaceOnUse" gradientTransform="matrix(-0.69848286,0,0,-0.69847961,33.614743,32.939314)" cx="32.373" cy="31.405" r="3.857"/>
  <radialGradient inkscape:collect="always" xlink:href="#linearGradient4278-3-5-5-9-2" id="radialGradient3242" gradientUnits="userSpaceOnUse" gradientTransform="matrix(0.19553888,-2.9157311e-8,2.7395628e-8,0.18372271,-7.77058,-6.596959)" cx="95.84" cy="95.39" r="9.498"/>
  <radialGradient inkscape:collect="always" xlink:href="#linearGradient2867-449-88-871-390-598-476-591-434-148-57-177-691-4-22-1-2-5" id="radialGradient3245" gradientUnits="userSpaceOnUse" gradientTransform="matrix(0,0.2344161,-0.30942651,0,12.23449,3.249571)" cx="23.896" cy="3.99" r="20.397"/>
  <linearGradient inkscape:collect="always" xlink:href="#linearGradient3087-408-5-3-7-9-1" id="linearGradient3247" gradientUnits="userSpaceOnUse" gradientTransform="matrix(0.09821987,0,0,0.09821945,8.64258,8.642799)" y1="3.082" x2="0" y2="45.37"/>
  <radialGradient inkscape:collect="always" xlink:href="#linearGradient6042-1-7-8-8-5" id="radialGradient3252" gradientUnits="userSpaceOnUse" gradientTransform="matrix(0,0.6733571,-1.5511106,0,43.94433,-14.149451)" cx="32" cy="21.239" r="10.498"/>
  <linearGradient inkscape:collect="always" xlink:href="#linearGradient4811" id="linearGradient3258" gradientUnits="userSpaceOnUse" gradientTransform="matrix(0.46791442,0,0,0.46791442,-32.08837,-4.240504)" y1="16.543" x2="0" y2="48.631"/>
  <linearGradient inkscape:collect="always" xlink:href="#linearGradient4803" id="linearGradient3261" gradientUnits="userSpaceOnUse" gradientTransform="matrix(0.37500007,0,0,-0.37499833,-8.243,23.000084)" y1="8.114" x2="0" y2="56.11"/>
  <linearGradient inkscape:collect="always" xlink:href="#linearGradient3812" id="linearGradient3264" gradientUnits="userSpaceOnUse" gradientTransform="matrix(0,1,-1,0,46.999998,-24.999723)" x1="26" x2="46"/>
  <radialGradient inkscape:collect="always" xlink:href="#radialGradient4793" id="radialGradient3267" gradientUnits="userSpaceOnUse" gradientTransform="matrix(0,1.4794679,-1.9528714,0,18.79201,-35.070966)" cx="23.896" cy="3.99" r="20.397"/>
  <radialGradient inkscape:collect="always" xlink:href="#linearGradient3949" id="radialGradient3993" gradientUnits="userSpaceOnUse" gradientTransform="matrix(1,0,0,0.22222222,0,15.555556)" cx="11" cy="20" r="9"/>
  <linearGradient inkscape:collect="always" id="linearGradient3949">
   <stop id="stop3951"/>
   <stop offset="1" id="stop3953" stop-opacity="0"/>
  </linearGradient>
 </defs>
 <g inkscape:groupmode="layer" id="layer1" inkscape:label="Background">
  <g transform="translate(0,-26)" id="g4507">
   <path d="m 20,20 c 0,1.104569 -4.029437,2 -9,2 -4.9705627,0 -9,-0.895431 -9,-2 0,-1.104569 4.0294373,-2 9,-2 4.970563,0 9,0.895431 9,2 z" sodipodi:ry="2" sodipodi:rx="9" sodipodi:cy="20" sodipodi:cx="11" id="path3163" sodipodi:type="arc" transform="matrix(1,0,0,1.5,0,15)" opacity="0.4" fill="url(#radialGradient3993)"/>
   <path transform="matrix(0.66666667,0,0,1,3.6666666,26)" sodipodi:type="arc" id="path3995" sodipodi:cx="11" sodipodi:cy="20" sodipodi:rx="9" sodipodi:ry="2" d="m 20,20 c 0,1.104569 -4.029437,2 -9,2 -4.9705627,0 -9,-0.895431 -9,-2 0,-1.104569 4.0294373,-2 9,-2 4.970563,0 9,0.895431 9,2 z" opacity="0.8" fill="url(#radialGradient3993)"/>
  </g>
  <g id="g3269" transform="matrix(0.90477397,0,0,0.90477397,1.047613,1.0473615)">
   <path d="M 10.99986,0.500275 C 5.2064,0.500275 0.5,5.206674 0.5,11.000138 c 0,5.793464 4.7064,10.499863 10.49986,10.499863 5.79346,0 10.49987,-4.706399 10.49986,-10.499863 0,-5.793464 -4.7064,-10.499863 -10.49986,-10.499863 z" inkscape:connector-curvature="0" id="path2555-7-2-5" fill="url(#radialGradient3267)" color="#000000"/>
   <path d="m 10.99986,20.500136 c -5.246708,0 -9.5,-4.25329 -9.5,-9.500009 0,-5.246701 4.253292,-9.499989 9.5,-9.499989 5.24671,0 9.500001,4.253289 9.500001,9.499989 0,5.246719 -4.253291,9.50001 -9.500001,9.50001 z" inkscape:connector-curvature="0" id="path4176-3" opacity="0.6" fill="none" stroke="url(#linearGradient3264)" stroke-linejoin="round" stroke-linecap="round" color="#000000"/>
   <path d="m 10.99987,20.000097 c -4.96614,0 -9.00001,-4.034299 -9.00001,-8.999959 0,-4.966089 4.03432,-8.99996 9.00001,-8.99996 4.9661,0 8.99999,4.034299 8.99999,8.99996 0,4.966095 -4.03432,8.999959 -8.99999,8.999959 z" inkscape:connector-curvature="0" id="path2555-36-4-4-8" fill="url(#linearGradient3261)" color="#000000"/>
   <path d="m 18.499865,11.000138 a 7.5000005,7.5000005 0 0 1 -15.000001,0 7.5000005,7.5000005 0 1 1 15.000001,0 z" id="path4218-6-9" inkscape:connector-curvature="0" fill="url(#linearGradient3258)" color="#000000" stroke-width="0.791"/>
   <path d="m 18.499899,11.000138 a 7.5000351,7.5000004 0 0 1 -15.00007,0 7.5000351,7.5000004 0 1 1 15.00007,0 z" id="path4218-4-3-7" inkscape:connector-curvature="0" opacity="0.3" fill="none" stroke="#000000" color="#000000"/>
   <path d="m 16.499888,11.000137 a 5.5000254,5.5 0 1 1 -11.000049,0 5.5000254,5.5 0 1 1 11.000049,0 z" id="path4326-5-9-8" inkscape:connector-curvature="0" opacity="0.1" fill="none" stroke="#000000" color="#000000" stroke-width="2"/>
   <path d="m 10.99986,7.48587 c -1.939,0 -3.51427,1.575177 -3.51427,3.514261 0,1.939011 1.57527,3.514268 3.51427,3.514268 1.93901,0 3.51427,-1.575177 3.51427,-3.514268 0,-1.939005 -1.57518,-3.514261 -3.51427,-3.514261 z" inkscape:connector-curvature="0" id="path2555-3-5-2-2-0" fill="url(#radialGradient3252)"/>
   <path d="m 10.99985,7.501964 c -1.93013,0 -3.49817,1.567972 -3.49817,3.498169 0,1.930127 1.56804,3.498177 3.49817,3.498177 1.93015,0 3.4982,-1.567965 3.4982,-3.498177 0,-1.930127 -1.56798,-3.498169 -3.4982,-3.498169 z" inkscape:connector-curvature="0" id="path2555-3-5-0-6" opacity="0.3" fill="none" stroke="#000000" stroke-linejoin="round" stroke-linecap="round"/>
   <path d="m 10.99979,8.230224 c -1.52839,0 -2.77005,1.241589 -2.77005,2.77003 0,1.528368 1.24166,2.770023 2.77005,2.770023 1.52837,0 2.77004,-1.241589 2.77004,-2.770023 0,-1.528383 -1.24161,-2.77003 -2.77004,-2.77003 z" inkscape:connector-curvature="0" id="path2555-3-5-3-3-8-7" fill="#2a232b"/>
   <path d="m 10.99986,9.001965 c -1.10251,0 -1.99818,0.895627 -1.99818,1.998168 0,1.102502 0.89567,1.998177 1.99818,1.998177 1.1025,0 1.99819,-0.895627 1.99819,-1.998177 0,-1.102493 -0.89565,-1.998168 -1.99819,-1.998168 z" inkscape:connector-curvature="0" id="path2555-3-9-2-0" fill="url(#radialGradient3245)" stroke="url(#linearGradient3247)" stroke-linejoin="round" stroke-linecap="round"/>
   <path d="m 10.99987,9.551866 c -0.79911,0 -1.44828,0.649152 -1.44828,1.448265 0,0.799091 0.64917,1.448279 1.44828,1.448279 0.79909,0 1.44827,-0.649152 1.44827,-1.448279 0,-0.799077 -0.64915,-1.448265 -1.44827,-1.448265 z" inkscape:connector-curvature="0" id="path2555-3-3-5-8-7" opacity="0.5" fill="url(#radialGradient3242)"/>
   <path d="m 10.99986,8.46698 c -1.39768,0 -2.53316,1.135423 -2.53316,2.53315 0,1.397684 1.13548,2.533158 2.53316,2.533158 1.39768,0 2.53316,-1.135416 2.53316,-2.533158 0,-1.397676 -1.13543,-2.53315 -2.53316,-2.53315 z" inkscape:connector-curvature="0" id="path2555-3-5-3-7-7" opacity="0.3" fill="none" stroke="#000000" stroke-linejoin="round" stroke-linecap="round"/>
   <path d="m 8.439964,10.503079 a 2.60766,2.6076479 0 0 1 1.884914,-2.021621 l 0.674912,2.518794 z" id="path6086-15-3" inkscape:connector-curvature="0" opacity="0.4" fill="url(#radialGradient3238)" color="#000000"/>
   <path d="m 12.8102,11.000134 a 1.81034,1.81034 0 0 1 -3.62068,0 1.81034,1.81034 0 1 1 3.62068,0 z" id="path4218-4-9-8-2-7-9" inkscape:connector-curvature="0" opacity="0.3" fill="none" stroke="url(#linearGradient3235)" color="#000000"/>
   <path d="m 11.61726,10.537147 a 0.61747517,0.4631042 0 0 1 -1.23495,0 0.61747517,0.4631042 0 1 1 1.23495,0 z" inkscape:connector-curvature="0" id="path3220-6-3" opacity="0.5" fill="url(#linearGradient3232)" color="#000000"/>
   <path d="m 13.60744,11.000249 a 2.60766,2.6076479 0 0 1 -0.164649,0.911909 L 10.99978,11.000249 z" id="path6086-1-8-7" inkscape:connector-curvature="0" opacity="0.4" fill="url(#radialGradient3229)" color="#000000"/>
   <path d="m 11.234166,13.597347 a 2.6076601,2.6076479 0.22315868 0 1 -0.833577,-0.05922 l 0.599187,-2.537874 z" id="path6086-1-5-6-8" inkscape:connector-curvature="0" opacity="0.4" fill="url(#radialGradient3226)" color="#000000"/>
   <path d="m 13.214521,12.376764 a 2.60766,2.6076479 0.09114427 0 1 -1.217877,1.033067 l -0.996863,-2.409585 z" id="path6086-1-50-1-9" inkscape:connector-curvature="0" opacity="0.4" fill="url(#radialGradient3223)" color="#000000"/>
   <path d="m 9.155887,8.504453 a 2.60766,2.6076478 0 0 1 3.687788,0 l -1.843894,1.843886 z" id="path6086-3-3-9" inkscape:connector-curvature="0" opacity="0.5" fill="url(#radialGradient3220)" color="#000000"/>
   <path d="m 15.116403,11.802667 a 1.6028357,2.8171116 60.000225 1 1 -4.879386,2.817102 1.6028357,2.8171116 60.000225 0 1 4.879386,-2.817102 z" id="path6301-3-2" inkscape:connector-curvature="0" opacity="0.2" fill="url(#radialGradient3217)" color="#000000"/>
   <path d="M 10.805264,7.461996 A 1.2897906,2.26691 60.000226 1 1 6.878856,9.728898 1.2897906,2.26691 60.000226 0 1 10.805264,7.461996 z" id="path6301-5-8-5" inkscape:connector-curvature="0" opacity="0.4" fill="url(#radialGradient3214)" color="#000000"/>
   <path d="m 11.358128,10.706409 a 0.56002336,0.58584766 0 1 1 -1.120046,0 0.56002336,0.58584766 0 1 1 1.120046,0 z" id="path6301-1-9-7" inkscape:connector-curvature="0" opacity="0.8" fill="url(#radialGradient3211)" color="#000000"/>
   <path d="m 9.870898,9.80625 a 0.56002336,0.58584766 0 1 1 -1.120046,0 0.56002336,0.58584766 0 1 1 1.120046,0 z" id="path6301-1-8-21-5" inkscape:connector-curvature="0" opacity="0.4" fill="url(#linearGradient3208)" color="#000000"/>
   <path d="m 10.020545,10.138914 a 0.391668,0.40972893 0 1 1 -0.783336,0 0.391668,0.40972893 0 1 1 0.783336,0 z" id="path6301-1-8-2-6-5" inkscape:connector-curvature="0" opacity="0.4" fill="url(#linearGradient3205)" color="#000000"/>
   <path inkscape:connector-curvature="0" id="path4821" d="m 10.998635,18.500172 a 7.5000004,7.5000351 0 0 1 0,-15.00007 7.5000004,7.5000351 0 1 1 0,15.00007 z" opacity="0.2" fill="url(#linearGradient3202)" color="#000000"/>
   <path inkscape:connector-curvature="0" id="path4837" d="m 16.499888,11.000137 a 5.5000254,5.5 0 1 1 -11.000049,0 5.5000254,5.5 0 1 1 11.000049,0 z" opacity="0.3" fill="none" stroke="#000000" color="#000000"/>
   <path id="path3339" inkscape:connector-curvature="0" d="M 10.99986,0.500275 C 5.2064,0.500275 0.5,5.206674 0.5,11.000138 c 0,5.793464 4.7064,10.499863 10.49986,10.499863 5.79346,0 10.49987,-4.706399 10.49986,-10.499863 0,-5.793464 -4.7064,-10.499863 -10.49986,-10.499863 z" opacity="0.61" fill="none" stroke="#000000" color="#000000"/>
  </g>
 </g>
</svg>
