<svg xmlns="http://www.w3.org/2000/svg" viewBox="0 0 22 22"><g color="#000" stroke-width="4"><path d="m11 4c.966 0 1.782.682 1.969 1.594.027.13.031.268.031.406h4v13h-10.344-1.656v-3-10h4c0-1.105.895-2 2-2m0 1c-.552 0-1 .448-1 1 0 .552.448 1 1 1 .552 0 1-.448 1-1 0-.138-.043-.255-.094-.375-.152-.359-.492-.625-.906-.625m4 3h-2.125c.07.263.125.577.125 1 0 0 1 0 1 1h-6c0-1 1-1 1-1 0-.423.055-.737.125-1h-2.125v8 1h8z" opacity=".2"/><path d="m11 3c.966 0 1.782.682 1.969 1.594.027.13.031.268.031.406h4v13h-10.344-1.656v-3-10h4c0-1.105.895-2 2-2m0 1c-.552 0-1 .448-1 1 0 .552.448 1 1 1 .552 0 1-.448 1-1 0-.138-.043-.255-.094-.375-.152-.359-.492-.625-.906-.625m4 3h-2.125c.07.263.125.577.125 1 0 0 1 0 1 1h-6c0-1 1-1 1-1 0-.423.055-.737.125-1h-2.125v8 1h8z" fill="#fff"/></g></svg>