<?xml version="1.0" encoding="UTF-8" standalone="no"?>
<svg
   xmlns:dc="http://purl.org/dc/elements/1.1/"
   xmlns:cc="http://creativecommons.org/ns#"
   xmlns:rdf="http://www.w3.org/1999/02/22-rdf-syntax-ns#"
   xmlns:svg="http://www.w3.org/2000/svg"
   xmlns="http://www.w3.org/2000/svg"
   xmlns:xlink="http://www.w3.org/1999/xlink"
   version="1.1"
   width="24"
   height="24"
   id="svg3759">
  <metadata
     id="metadata37">
    <rdf:RDF>
      <cc:Work
         rdf:about="">
        <dc:format>image/svg+xml</dc:format>
        <dc:type
           rdf:resource="http://purl.org/dc/dcmitype/StillImage" />
        <dc:title />
      </cc:Work>
    </rdf:RDF>
  </metadata>
  <defs
     id="defs3761">
    <linearGradient
       id="linearGradient4012">
      <stop
         style="stop-color:#000000;stop-opacity:1;"
         offset="0"
         id="stop4014" />
      <stop
         style="stop-color:#000000;stop-opacity:0;"
         offset="1"
         id="stop4016" />
    </linearGradient>
    <linearGradient
       id="linearGradient4365">
      <stop
         id="stop4367"
         offset="0"
         style="stop-color:#f0d0b1;stop-opacity:1" />
      <stop
         style="stop-color:#dfbe93;stop-opacity:1"
         offset="0.3392283"
         id="stop4369" />
      <stop
         id="stop4371"
         offset="1"
         style="stop-color:#805d27;stop-opacity:1;" />
    </linearGradient>
    <linearGradient
       id="linearGradient4277">
      <stop
         id="stop4279"
         offset="0"
         style="stop-color:#5c2f00;stop-opacity:1;" />
      <stop
         id="stop4281"
         offset="1"
         style="stop-color:#794a18;stop-opacity:1;" />
    </linearGradient>
    <linearGradient
       id="linearGradient4226">
      <stop
         style="stop-color:#95724c;stop-opacity:1"
         offset="0"
         id="stop4228" />
      <stop
         style="stop-color:#c4975c;stop-opacity:1"
         offset="1"
         id="stop4231" />
    </linearGradient>
    <linearGradient
       id="linearGradient4149">
      <stop
         id="stop4151"
         offset="0"
         style="stop-color:#fae4ba;stop-opacity:1" />
      <stop
         id="stop4153"
         offset="1"
         style="stop-color:#dcb98b;stop-opacity:1;" />
    </linearGradient>
    <linearGradient
       id="linearGradient4017">
      <stop
         id="stop4019"
         offset="0"
         style="stop-color:#dcb98b;stop-opacity:1" />
      <stop
         id="stop4021"
         offset="1"
         style="stop-color:#be9d72;stop-opacity:1;" />
    </linearGradient>
    <radialGradient
       xlink:href="#linearGradient4149"
       id="radialGradient4013"
       cx="27.552082"
       cy="6"
       fx="27.552082"
       fy="6"
       r="20"
       gradientTransform="matrix(1.1999999,0,0,0.6,-6.9999967,9.5687474)"
       gradientUnits="userSpaceOnUse" />
    <linearGradient
       xlink:href="#linearGradient4226"
       id="linearGradient4143"
       gradientUnits="userSpaceOnUse"
       gradientTransform="matrix(-1,0,0,1,48,3.6687478)"
       x1="5.3933983"
       y1="42.585785"
       x2="16"
       y2="20" />
    <linearGradient
       xlink:href="#linearGradient4017"
       id="linearGradient4145"
       x1="16.500126"
       y1="20.25"
       x2="10.4995"
       y2="45.75"
       gradientUnits="userSpaceOnUse"
       gradientTransform="translate(0,2.6687478)" />
    <linearGradient
       xlink:href="#linearGradient4277"
       id="linearGradient4329"
       gradientUnits="userSpaceOnUse"
       x1="40"
       y1="37"
       x2="9"
       y2="4"
       gradientTransform="translate(0,2.6687478)" />
    <radialGradient
       xlink:href="#linearGradient4365"
       id="radialGradient4363"
       gradientUnits="userSpaceOnUse"
       gradientTransform="matrix(1,0,0,1.1575563,0,4.1044373)"
       cx="26.724112"
       cy="15.370205"
       fx="26.724112"
       fy="15.370205"
       r="19.4375" />
    <radialGradient
       xlink:href="#linearGradient4012"
       id="radialGradient4018"
       cx="12.5"
       cy="19.5"
       fx="12.5"
       fy="19.5"
       r="11.5"
       gradientTransform="matrix(1,0,0,0.39130435,0,11.869565)"
       gradientUnits="userSpaceOnUse" />
  </defs>
  <g
     id="layer3"
     style="display:inline"
     transform="translate(0,-24)" />
  <g
     id="layer1"
     transform="translate(0,-24)">
    <path
       style="opacity:0.29999999999999999;fill:url(#radialGradient4018);fill-opacity:1;stroke:none"
       id="path3242"
       d="m 24,19.5 a 11.5,4.5 0 1 1 -23,0 11.5,4.5 0 1 1 23,0 z"
       transform="translate(0,24)" />
    <path
       style="fill:url(#radialGradient4013);fill-opacity:1;stroke:none"
       d="m 12.4995,38.66875 -9.999375,-4 0,-4 9.999375,-4.500003 10.0005,4.500003 0,4 z"
       id="path3965" />
    <path
       style="fill:url(#linearGradient4145);fill-opacity:1;stroke:none"
       d="m 2.500125,30.66875 0,11 9.999375,4.5 0,-10.5 z"
       id="path3173" />
    <path
       id="path3955"
       d="m 22.5,30.66875 0,11 -10.0005,4.5 0,-10.5 z"
       style="fill:url(#linearGradient4143);fill-opacity:1;stroke:none" />
    <path
       style="font-size:medium;font-style:normal;font-variant:normal;font-weight:normal;font-stretch:normal;text-indent:0;text-align:start;text-decoration:none;line-height:normal;letter-spacing:normal;word-spacing:normal;text-transform:none;direction:ltr;block-progression:tb;writing-mode:lr-tb;text-anchor:start;baseline-shift:baseline;opacity:0.61000001;color:#000000;fill:url(#linearGradient4329);fill-opacity:1;stroke:none;stroke-width:1;marker:none;visibility:visible;display:inline;overflow:visible;enable-background:accumulate;font-family:Sans;-inkscape-font-specification:Sans"
       d="m 12.5,25.637497 -0.1875,0.0625 L 2.3125,30.2 2,30.325 l 0,0.34375 0,4 0,7 0,0.34375 0.3125,0.125 10,4.5 0.1875,0.0625 0.1875,-0.0625 10,-4.5 0.3125,-0.125 0,-0.34375 0,-7 0,-4 0,-0.34375 -0.3125,-0.125 -10,-4.500003 z m 0,1.0625 9.5,4.406253 0,3.5625 0,6.65625 -9.4375,4.09375 L 3,41.325 3,34.66875 3.09375,31.028125 z"
       id="path4035" />
    <path
       style="fill:url(#radialGradient4363);fill-opacity:1;stroke:none"
       d="m 12.089689,35.999556 -9.1250861,-5.000795 9.5139501,4.221766 9.376678,-4.210887 -8.761481,5.12786 0.0625,9.65625 -1.1164,-0.553407 z"
       id="path4317" />
    <path
       style="opacity:0.3;fill:#ffffff;fill-opacity:1;stroke:none"
       d="M 12.5,26.656 3,31 4.2375531,31.452705 12.5,27.656 l 8.138325,3.708788 1.24239,-0.471984 z"
       id="path3225" />
    <path
       id="path4033"
       d="m 21.011481,31.417676 1,-0.445227 0,10.3125 -1,0.445227 z"
       style="opacity:0.1;fill:#ffffff;fill-opacity:1;stroke:none" />
    <path
       id="path4036"
       d="m 21.011481,40.726312 0,1 -7.875,3.375 0,-1 z"
       style="opacity:0.1;fill:#ffffff;fill-opacity:1;stroke:none" />
    <path
       style="opacity:0.1;fill:#ffffff;fill-opacity:1;stroke:none"
       d="m 12,36.083502 -1,-0.445227 0,9.3125 1,0.445227 z"
       id="path4014" />
    <g
       id="g4027"
       transform="translate(0,4)">
      <path
         style="opacity:0.1;fill:#ffffff;fill-opacity:1;stroke:none"
         d="m 3,27.969 0,9.3125 1,0.4375 0,-0.0625 7,3.18725 0,-1 -7,-3.18725 0,-8.25 z"
         id="rect4005" />
    </g>
    <g
       style="display:inline;enable-background:new"
       id="g5963"
       transform="matrix(0.25,-0.11130669,0,0.25,-47.782097,55.36185)">
      <path
         style="opacity:0.5;fill:#502d16;fill-opacity:1;fill-rule:nonzero;stroke:none"
         d="m 265.99995,31.46875 -2.46875,3.5625 0.46875,0 1,0 0,1 0,4.96875 2,0 0,-4.96875 0,-1 1,0 0.4375,0 -2.4375,-3.5625 z"
         id="path2987" />
      <rect
         width="16"
         height="16"
         x="29.000042"
         y="261.00021"
         id="rect6034"
         style="color:#bebebe;fill:none;stroke:none;stroke-width:1;marker:none;visibility:visible;display:inline;overflow:visible;enable-background:new"
         transform="matrix(0,1,1,0,0,0)" />
      <path
         d="m 263.00021,43.015762 0,1.96856 12,0 -0.005,-1.96856 z"
         style="opacity:0.5;fill:#502d16;fill-opacity:1;fill-rule:nonzero;stroke:none"
         id="path4177" />
      <path
         id="path5714"
         d="m 272.0002,31.46875 -2.46875,3.5625 0.46875,0 1,0 0,1 0,4.96875 2,0 0,-4.96875 0,-1 1,0 0.4375,0 -2.4375,-3.5625 z"
         style="opacity:0.5;fill:#502d16;fill-opacity:1;fill-rule:nonzero;stroke:none" />
    </g>
  </g>
  <g
     id="layer2"
     transform="translate(0,-24)" />
</svg>
