<?xml version="1.0" encoding="UTF-8" standalone="no"?>
<!-- Created with Inkscape (http://www.inkscape.org/) -->

<svg
   xmlns:dc="http://purl.org/dc/elements/1.1/"
   xmlns:cc="http://creativecommons.org/ns#"
   xmlns:rdf="http://www.w3.org/1999/02/22-rdf-syntax-ns#"
   xmlns:svg="http://www.w3.org/2000/svg"
   xmlns="http://www.w3.org/2000/svg"
   xmlns:xlink="http://www.w3.org/1999/xlink"
   xmlns:sodipodi="http://sodipodi.sourceforge.net/DTD/sodipodi-0.dtd"
   xmlns:inkscape="http://www.inkscape.org/namespaces/inkscape"
   version="1.1"
   width="48"
   height="48"
   id="svg2436"
   inkscape:version="0.48.4 r9939"
   sodipodi:docname="folder.svg">
  <sodipodi:namedview
     pagecolor="#ffffff"
     bordercolor="#666666"
     borderopacity="1"
     objecttolerance="10"
     gridtolerance="10"
     guidetolerance="10"
     inkscape:pageopacity="0"
     inkscape:pageshadow="2"
     inkscape:window-width="1364"
     inkscape:window-height="700"
     id="namedview21"
     showgrid="false"
     showborder="true"
     inkscape:snap-bbox="true"
     inkscape:bbox-paths="true"
     inkscape:bbox-nodes="true"
     inkscape:snap-bbox-midpoints="true"
     inkscape:snap-bbox-edge-midpoints="true"
     inkscape:zoom="1"
     inkscape:cx="31.351779"
     inkscape:cy="34.705234"
     inkscape:window-x="0"
     inkscape:window-y="28"
     inkscape:window-maximized="1"
     inkscape:current-layer="svg2436">
    <inkscape:grid
       type="xygrid"
       id="grid3813"
       empspacing="4"
       visible="true"
       enabled="true"
       snapvisiblegridlinesonly="true" />
  </sodipodi:namedview>
  <defs
     id="defs2438">
    <linearGradient
       x1="46.810242"
       y1="-3.7612398"
       x2="22.683298"
       y2="36.569065"
       id="linearGradient2399"
       xlink:href="#linearGradient4222"
       gradientUnits="userSpaceOnUse" />
    <linearGradient
       id="linearGradient4222">
      <stop
         id="stop4224"
         style="stop-color:#ffffff;stop-opacity:1"
         offset="0" />
      <stop
         id="stop4226"
         style="stop-color:#ffffff;stop-opacity:0"
         offset="1" />
    </linearGradient>
    <linearGradient
       x1="54.570274"
       y1="-14.909454"
       x2="20.825262"
       y2="40.394432"
       id="linearGradient2397"
       xlink:href="#linearGradient4222"
       gradientUnits="userSpaceOnUse" />
    <linearGradient
       x1="33.747887"
       y1="27.630672"
       x2="33.747887"
       y2="12.500461"
       id="linearGradient2395"
       xlink:href="#linearGradient5106"
       gradientUnits="userSpaceOnUse" />
    <linearGradient
       id="linearGradient5106">
      <stop
         id="stop5108"
         style="stop-color:#555555;stop-opacity:1;"
         offset="0" />
      <stop
         id="stop5110"
         style="stop-color:#222222;stop-opacity:1;"
         offset="1" />
    </linearGradient>
    <linearGradient
       x1="15.747885"
       y1="27.193487"
       x2="15.747885"
       y2="12.500461"
       id="linearGradient2393"
       xlink:href="#linearGradient5106"
       gradientUnits="userSpaceOnUse" />
    <linearGradient
       inkscape:collect="always"
       xlink:href="#linearGradient5106"
       id="linearGradient3786"
       gradientUnits="userSpaceOnUse"
       x1="33.747887"
       y1="27.630672"
       x2="33.747887"
       y2="12.500461"
       gradientTransform="matrix(1,0,0,-1,-0.98483573,48.000461)" />
    <linearGradient
       inkscape:collect="always"
       xlink:href="#linearGradient5106"
       id="linearGradient3789"
       gradientUnits="userSpaceOnUse"
       x1="15.747885"
       y1="27.193487"
       x2="15.747885"
       y2="12.500461"
       gradientTransform="matrix(1,0,0,-1,-0.99999973,48.000461)" />
    <clipPath
       clipPathUnits="userSpaceOnUse"
       id="clipPath3985">
      <path
         sodipodi:nodetypes="sscscccccccsccscccccsccssssscs"
         inkscape:connector-curvature="0"
         id="path3987"
         d="m 309,232.99972 c -0.53578,0 -1,0.46422 -1,1 l -5e-5,8 -1,0 c -0.3277,0 -0.58618,0.18225 -0.75,0.375 -0.1489,0.17519 -0.22283,0.39373 -0.21875,0.65625 l -0.0312,0 0,0.0312 c 7.3e-4,0.0115 -10e-4,0.0195 0,0.0312 l 1.00005,26.96875 0,0.0312 c 0.0279,0.29662 0.18255,0.47236 0.34375,0.625 0.1612,0.15264 0.34482,0.28259 0.65625,0.28125 l 40,0 c 0.31123,10e-4 0.49504,-0.12858 0.65625,-0.28125 0.16121,-0.15267 0.31581,-0.32853 0.34375,-0.625 l 0,-0.0312 0.99995,-26.96875 0,-0.0312 c 10e-4,-0.013 -6.9e-4,-0.0186 0,-0.0312 0.0177,-0.32247 -0.12059,-0.51812 -0.28125,-0.6875 -0.16696,-0.17602 -0.38333,-0.34519 -0.71875,-0.34375 l -1,0 5e-5,-4 c 1e-5,-0.53578 -0.46422,-1 -1,-1 l -15,0 c -1.98879,0 -3.00245,-1.00245 -4,-2 -0.99755,-0.99755 -2.01326,-2 -4,-2 l -15,0 z"
         style="font-size:medium;font-style:normal;font-variant:normal;font-weight:normal;font-stretch:normal;text-indent:0;text-align:start;text-decoration:none;line-height:normal;letter-spacing:normal;word-spacing:normal;text-transform:none;direction:ltr;block-progression:tb;writing-mode:lr-tb;text-anchor:start;baseline-shift:baseline;color:#000000;fill:#3465a4;fill-opacity:1;fill-rule:nonzero;stroke:none;stroke-width:1;marker:none;visibility:visible;display:inline;overflow:visible;enable-background:accumulate;font-family:Sans;-inkscape-font-specification:Sans" />
    </clipPath>
    <linearGradient
       inkscape:collect="always"
       xlink:href="#linearGradient11342"
       id="linearGradient3991"
       gradientUnits="userSpaceOnUse"
       x1="328"
       y1="242.99973"
       x2="328"
       y2="254.99973" />
    <linearGradient
       id="linearGradient11342">
      <stop
         style="stop-color:#ffffff;stop-opacity:1;"
         offset="0"
         id="stop11344" />
      <stop
         style="stop-color:#ffffff;stop-opacity:0;"
         offset="1"
         id="stop11346" />
    </linearGradient>
    <clipPath
       clipPathUnits="userSpaceOnUse"
       id="clipPath3995">
      <path
         style="font-size:medium;font-style:normal;font-variant:normal;font-weight:normal;font-stretch:normal;text-indent:0;text-align:start;text-decoration:none;line-height:normal;letter-spacing:normal;word-spacing:normal;text-transform:none;direction:ltr;block-progression:tb;writing-mode:lr-tb;text-anchor:start;baseline-shift:baseline;color:#000000;fill:url(#linearGradient3999);fill-opacity:1;fill-rule:nonzero;stroke:none;stroke-width:2;marker:none;visibility:visible;display:inline;overflow:visible;enable-background:accumulate;font-family:Sans;-inkscape-font-specification:Sans"
         d="m 306,242.09347 1,27 c 0.0463,0.49158 0.50624,0.90838 1,0.90625 l 40,0 c 0.49376,0.002 0.95367,-0.41467 1,-0.90625 l 1,-27 c 0.0521,-0.5539 -0.44366,-1.09614 -1,-1.09375 l -42,0 c -0.60937,0 -1.0514,0.56975 -1,1.09375 z"
         id="path3997"
         inkscape:connector-curvature="0"
         sodipodi:nodetypes="ccccccccc" />
    </clipPath>
    <linearGradient
       inkscape:collect="always"
       xlink:href="#linearGradient4968"
       id="linearGradient5271"
       gradientUnits="userSpaceOnUse"
       gradientTransform="translate(-304,-227.99973)"
       x1="352"
       y1="227.99973"
       x2="352"
       y2="275.99973" />
    <linearGradient
       id="linearGradient4968">
      <stop
         id="stop4970"
         offset="0"
         style="stop-color:#f1e6f4;stop-opacity:1;" />
      <stop
         style="stop-color:#c9bcce;stop-opacity:1;"
         offset="1"
         id="stop4972" />
    </linearGradient>
    <linearGradient
       inkscape:collect="always"
       xlink:href="#linearGradient11359"
       id="linearGradient5274"
       gradientUnits="userSpaceOnUse"
       gradientTransform="translate(-304,-236.00001)"
       x1="328"
       y1="240"
       x2="328"
       y2="260" />
    <linearGradient
       id="linearGradient11359">
      <stop
         style="stop-color:#d5cbd7;stop-opacity:1;"
         offset="0"
         id="stop11361" />
      <stop
         style="stop-color:#d9bfdf;stop-opacity:1;"
         offset="1"
         id="stop11363" />
    </linearGradient>
  </defs>
  <metadata
     id="metadata2441">
    <rdf:RDF>
      <cc:Work
         rdf:about="">
        <dc:format>image/svg+xml</dc:format>
        <dc:type
           rdf:resource="http://purl.org/dc/dcmitype/StillImage" />
        <dc:title />
      </cc:Work>
    </rdf:RDF>
  </metadata>
  <path
     id="path13868"
     d="m 3,16.500045 c -0.29771,0 -0.52077,0.31947 -0.5,0.53125 l 0,0.0312 1,24.96875 c 0.0198,0.21007 0.28895,0.46966 0.5,0.46875 l 40,0 c 0.21122,8.6e-4 0.4802,-0.25864 0.5,-0.46875 l 1,-24.96875 0,-0.0312 c 0.0216,-0.22918 -0.26981,-0.53224 -0.5,-0.53125 l -42,0 z"
     style="font-size:medium;font-style:normal;font-variant:normal;font-weight:normal;font-stretch:normal;text-indent:0;text-align:start;text-decoration:none;line-height:normal;letter-spacing:normal;word-spacing:normal;text-transform:none;direction:ltr;block-progression:tb;writing-mode:lr-tb;text-anchor:start;baseline-shift:baseline;opacity:0.2;color:#000000;fill:#000000;fill-opacity:1;fill-rule:nonzero;stroke:none;stroke-width:2;marker:none;visibility:visible;display:inline;overflow:visible;enable-background:accumulate;font-family:Sans;-inkscape-font-specification:Sans"
     inkscape:connector-curvature="0" />
  <path
     inkscape:connector-curvature="0"
     style="color:#000000;fill:url(#linearGradient5274);fill-opacity:1;stroke:none;stroke-width:4;marker:none;visibility:visible;display:inline;overflow:visible;enable-background:accumulate"
     d="m 5,4.499995 c -0.28565,0 -0.5,0.21435 -0.5,0.5 l 0,18 c 0,0.28565 0.21435,0.5 0.5,0.5 l 38,0 c 0.28565,0 0.5,-0.21435 0.5,-0.5 l 0,-14 c 0,-0.28565 -0.21435,-0.5 -0.5,-0.5 l -15,0 c -2.16667,0 -3.34375,-1.15625 -4.34375,-2.15625 -1,-1 -1.82292,-1.84375 -3.65625,-1.84375 l -15,0 z"
     id="rect11352" />
  <path
     id="path3787"
     d="m 5,4.499995 c -0.28565,0 -0.5,0.21435 -0.5,0.5 l 0,18 c 0,0.28565 0.21435,0.5 0.5,0.5 l 38,0 c 0.28565,0 0.5,-0.21435 0.5,-0.5 l 0,-14 c 0,-0.28565 -0.21435,-0.5 -0.5,-0.5 l -15,0 c -2.16667,0 -3.34375,-1.15625 -4.34375,-2.15625 -1,-1 -1.82292,-1.84375 -3.65625,-1.84375 l -15,0 z"
     style="color:#000000;fill:none;fill-opacity:1;stroke:#000000;stroke-width:1;marker:none;visibility:visible;display:inline;overflow:visible;enable-background:accumulate;stroke-opacity:1;stroke-miterlimit:4;stroke-dasharray:none;opacity:0.41"
     inkscape:connector-curvature="0" />
  <path
     sodipodi:nodetypes="scccccccccs"
     inkscape:connector-curvature="0"
     style="font-size:medium;font-style:normal;font-variant:normal;font-weight:normal;font-stretch:normal;text-indent:0;text-align:start;text-decoration:none;line-height:normal;letter-spacing:normal;word-spacing:normal;text-transform:none;direction:ltr;block-progression:tb;writing-mode:lr-tb;text-anchor:start;baseline-shift:baseline;color:#000000;fill:url(#linearGradient5271);fill-opacity:1;fill-rule:nonzero;stroke:none;stroke-width:2;marker:none;visibility:visible;display:inline;overflow:visible;enable-background:accumulate;font-family:Sans;-inkscape-font-specification:Sans"
     d="m 2.99995,13.499995 c -0.29771,0 -0.52077,0.31947 -0.5,0.53125 l 0,0.0312 L 3.5,41.031195 c 0.0198,0.21007 0.28895,0.46966 0.5,0.46875 l 40,0 c 0.21122,8.6e-4 0.4802,-0.25864 0.5,-0.46875 l 0.99995,-26.96875 0,-0.0312 c 0.0216,-0.22918 -0.26981,-0.53224 -0.5,-0.53125 z"
     id="path10548" />
  <path
     sodipodi:nodetypes="ccccccccccc"
     inkscape:connector-curvature="0"
     id="path11392"
     d="M 2.90625,14.999995 C 2.38183,15.046895 1.9486,15.569745 2,16.093745 l 1,23.90625 c 0.0463,0.49158 0.50624,0.90838 1,0.90625 l 40,0 c 0.49376,0.002 0.95367,-0.41467 1,-0.90625 l 1,-23.90625 c 0.0521,-0.5539 -0.44366,-1.09614 -1,-1.09375 l -42,0 c -0.0312,-10e-4 -0.0625,-10e-4 -0.0937,0 z"
     style="font-size:medium;font-style:normal;font-variant:normal;font-weight:normal;font-stretch:normal;text-indent:0;text-align:start;text-decoration:none;line-height:normal;letter-spacing:normal;word-spacing:normal;text-transform:none;direction:ltr;block-progression:tb;writing-mode:lr-tb;text-anchor:start;baseline-shift:baseline;color:#000000;fill:none;stroke:none;stroke-width:2;marker:none;visibility:visible;display:inline;overflow:visible;enable-background:accumulate;font-family:Sans;-inkscape-font-specification:Sans" />
  <path
     transform="translate(-304,-227.99973)"
     clip-path="url(#clipPath3995)"
     style="font-size:medium;font-style:normal;font-variant:normal;font-weight:normal;font-stretch:normal;text-indent:0;text-align:start;text-decoration:none;line-height:normal;letter-spacing:normal;word-spacing:normal;text-transform:none;direction:ltr;block-progression:tb;writing-mode:lr-tb;text-anchor:start;baseline-shift:baseline;opacity:0.2;color:#000000;fill:none;stroke:url(#linearGradient3991);stroke-width:4;stroke-miterlimit:4;stroke-opacity:1;stroke-dasharray:none;marker:none;visibility:visible;display:inline;overflow:visible;enable-background:accumulate;font-family:Sans;-inkscape-font-specification:Sans"
     d="m 306,242.09347 1,27 c 0.0463,0.49158 0.50624,0.90838 1,0.90625 l 40,0 c 0.49376,0.002 0.95367,-0.41467 1,-0.90625 l 1,-27 c 0.0521,-0.5539 -0.44366,-1.09614 -1,-1.09375 l -42,0 c -0.60937,0 -1.0514,0.56975 -1,1.09375 z"
     id="path11814"
     inkscape:connector-curvature="0"
     sodipodi:nodetypes="ccccccccc" />
  <path
     id="path3789"
     d="m 2.99995,13.499995 c -0.29771,0 -0.52077,0.31947 -0.5,0.53125 l 0,0.0312 L 3.5,41.031195 c 0.0198,0.21007 0.28895,0.46966 0.5,0.46875 l 40,0 c 0.21122,8.6e-4 0.4802,-0.25864 0.5,-0.46875 l 0.99995,-26.96875 0,-0.0312 c 0.0216,-0.22918 -0.26981,-0.53224 -0.5,-0.53125 z"
     style="font-size:medium;font-style:normal;font-variant:normal;font-weight:normal;font-stretch:normal;text-indent:0;text-align:start;text-decoration:none;line-height:normal;letter-spacing:normal;word-spacing:normal;text-transform:none;direction:ltr;block-progression:tb;writing-mode:lr-tb;text-anchor:start;baseline-shift:baseline;color:#000000;fill:none;fill-opacity:1;fill-rule:nonzero;stroke:#000000;stroke-width:1;marker:none;visibility:visible;display:inline;overflow:visible;enable-background:accumulate;font-family:Sans;-inkscape-font-specification:Sans;stroke-opacity:1;stroke-miterlimit:4;stroke-dasharray:none;opacity:0.41"
     inkscape:connector-curvature="0"
     sodipodi:nodetypes="scccccccccs" />
</svg>
