<?xml version="1.0" encoding="UTF-8" standalone="no"?>
<svg xmlns="http://www.w3.org/2000/svg" xmlns:xlink="http://www.w3.org/1999/xlink" xmlns:sodipodi="http://sodipodi.sourceforge.net/DTD/sodipodi-0.dtd" xmlns:inkscape="http://www.inkscape.org/namespaces/inkscape" version="1.1" width="48" height="48">
 <defs id="defs2438">
  <linearGradient x1="46.81" y1="-3.761" x2="22.683" y2="36.569" id="linearGradient2399" xlink:href="#linearGradient4222" gradientUnits="userSpaceOnUse"/>
  <linearGradient id="linearGradient4222">
   <stop id="stop4224" stop-color="#ffffff"/>
   <stop id="stop4226" offset="1" stop-color="#ffffff" stop-opacity="0"/>
  </linearGradient>
  <linearGradient x1="54.57" y1="-14.909" x2="20.825" y2="40.39" id="linearGradient2397" xlink:href="#linearGradient4222" gradientUnits="userSpaceOnUse"/>
  <linearGradient y1="27.631" x2="0" y2="12.5" id="linearGradient2395" xlink:href="#linearGradient5106" gradientUnits="userSpaceOnUse"/>
  <linearGradient id="linearGradient5106">
   <stop id="stop5108" stop-color="#555555"/>
   <stop id="stop5110" offset="1" stop-color="#222222"/>
  </linearGradient>
  <linearGradient y1="27.19" x2="0" y2="12.5" id="linearGradient2393" xlink:href="#linearGradient5106" gradientUnits="userSpaceOnUse"/>
  <linearGradient inkscape:collect="always" xlink:href="#linearGradient5106" id="linearGradient3786" gradientUnits="userSpaceOnUse" y1="27.631" x2="0" y2="12.5" gradientTransform="matrix(1,0,0,-1,-0.98483573,48.000461)"/>
  <linearGradient inkscape:collect="always" xlink:href="#linearGradient5106" id="linearGradient3789" gradientUnits="userSpaceOnUse" y1="27.19" x2="0" y2="12.5" gradientTransform="matrix(1,0,0,-1,-0.99999973,48.000461)"/>
  <clipPath id="clipPath3985">
   <path id="path3987" d="m 309,232.99972 c -0.53578,0 -1,0.46422 -1,1 l -5e-5,8 -1,0 c -0.3277,0 -0.58618,0.18225 -0.75,0.375 -0.1489,0.17519 -0.22283,0.39373 -0.21875,0.65625 l -0.0312,0 0,0.0312 c 7.3e-4,0.0115 -10e-4,0.0195 0,0.0312 l 1.00005,26.96875 0,0.0312 c 0.0279,0.29662 0.18255,0.47236 0.34375,0.625 0.1612,0.15264 0.34482,0.28259 0.65625,0.28125 l 40,0 c 0.31123,10e-4 0.49504,-0.12858 0.65625,-0.28125 0.16121,-0.15267 0.31581,-0.32853 0.34375,-0.625 l 0,-0.0312 0.99995,-26.96875 0,-0.0312 c 10e-4,-0.013 -6.9e-4,-0.0186 0,-0.0312 0.0177,-0.32247 -0.12059,-0.51812 -0.28125,-0.6875 -0.16696,-0.17602 -0.38333,-0.34519 -0.71875,-0.34375 l -1,0 5e-5,-4 c 1e-5,-0.53578 -0.46422,-1 -1,-1 l -15,0 c -1.98879,0 -3.00245,-1.00245 -4,-2 -0.99755,-0.99755 -2.01326,-2 -4,-2 l -15,0 z"/>
  </clipPath>
  <linearGradient inkscape:collect="always" xlink:href="#linearGradient4222" id="linearGradient3991" gradientUnits="userSpaceOnUse" y1="243" x2="0" y2="255"/>
  <clipPath id="clipPath3995">
   <path d="m 306,242.09347 1,27 c 0.0463,0.49158 0.50624,0.90838 1,0.90625 l 40,0 c 0.49376,0.002 0.95367,-0.41467 1,-0.90625 l 1,-27 c 0.0521,-0.5539 -0.44366,-1.09614 -1,-1.09375 l -42,0 c -0.60937,0 -1.0514,0.56975 -1,1.09375 z" id="path3997"/>
  </clipPath>
  <linearGradient inkscape:collect="always" xlink:href="#linearGradient4968" id="linearGradient5271" gradientUnits="userSpaceOnUse" gradientTransform="translate(-304,-227.99973)" y1="228" x2="0" y2="276"/>
  <linearGradient id="linearGradient4968">
   <stop id="stop4970" stop-color="#f1e6f4"/>
   <stop offset="1" id="stop4972" stop-color="#c9bcce"/>
  </linearGradient>
  <linearGradient inkscape:collect="always" xlink:href="#linearGradient11359" id="linearGradient5274" gradientUnits="userSpaceOnUse" gradientTransform="translate(-304,-236.00001)" y1="240" x2="0" y2="260"/>
  <linearGradient id="linearGradient11359">
   <stop id="stop11361" stop-color="#d5cbd7"/>
   <stop offset="1" id="stop11363" stop-color="#d9bfdf"/>
  </linearGradient>
  <linearGradient gradientTransform="translate(0.99947164,-0.70350094)" inkscape:collect="always" xlink:href="#linearGradient4511" id="linearGradient4509" y1="0" x2="0" y2="48" gradientUnits="userSpaceOnUse"/>
  <linearGradient id="linearGradient4511">
   <stop id="stop4513" stop-color="#8b858e"/>
   <stop id="stop4515" offset="1" stop-color="#8b699b"/>
  </linearGradient>
  <linearGradient inkscape:collect="always" xlink:href="#linearGradient4511" id="linearGradient5610" y1="0" x2="0" y2="48" gradientUnits="userSpaceOnUse"/>
  <linearGradient inkscape:collect="always" xlink:href="#linearGradient5621-4" id="linearGradient3842" gradientUnits="userSpaceOnUse" gradientTransform="translate(-1870.0002,179.00001)" y1="-160" x2="0" y2="-176"/>
  <linearGradient id="linearGradient5621-4">
   <stop id="stop5623-4" stop-color="#0b0b0b"/>
   <stop offset="1" id="stop5625-9" stop-color="#585858"/>
  </linearGradient>
 </defs>
 <metadata id="metadata2441"/>
 <g inkscape:groupmode="layer" id="layer1" inkscape:label="Background" sodipodi:insensitive="true">
  <path id="path13868" d="m 3,16.500045 c -0.29771,0 -0.52077,0.31947 -0.5,0.53125 l 0,0.0312 1,24.96875 c 0.0198,0.21007 0.28895,0.46966 0.5,0.46875 l 40,0 c 0.21122,8.6e-4 0.4802,-0.25864 0.5,-0.46875 l 1,-24.96875 0,-0.0312 c 0.0216,-0.22918 -0.26981,-0.53224 -0.5,-0.53125 l -42,0 z" inkscape:connector-curvature="0" opacity="0.2" color="#000000" stroke-width="2"/>
  <path inkscape:connector-curvature="0" d="m 5,4.499995 c -0.28565,0 -0.5,0.21435 -0.5,0.5 l 0,18 c 0,0.28565 0.21435,0.5 0.5,0.5 l 38,0 c 0.28565,0 0.5,-0.21435 0.5,-0.5 l 0,-14 c 0,-0.28565 -0.21435,-0.5 -0.5,-0.5 l -15,0 c -2.16667,0 -3.34375,-1.15625 -4.34375,-2.15625 -1,-1 -1.82292,-1.84375 -3.65625,-1.84375 l -15,0 z" id="rect11352" fill="url(#linearGradient5274)" color="#000000" stroke-width="4"/>
  <path sodipodi:nodetypes="scccccccccs" inkscape:connector-curvature="0" d="m 2.99995,13.499995 c -0.29771,0 -0.52077,0.31947 -0.5,0.53125 l 0,0.0312 L 3.5,41.031195 c 0.0198,0.21007 0.28895,0.46966 0.5,0.46875 l 40,0 c 0.21122,8.6e-4 0.4802,-0.25864 0.5,-0.46875 l 0.99995,-26.96875 0,-0.0312 c 0.0216,-0.22918 -0.26981,-0.53224 -0.5,-0.53125 z" id="path10548" color="#000000" stroke-width="2" fill="url(#linearGradient5271)"/>
  <path transform="translate(-304,-227.99973)" clip-path="url(#clipPath3995)" d="m 306,242.09347 1,27 c 0.0463,0.49158 0.50624,0.90838 1,0.90625 l 40,0 c 0.49376,0.002 0.95367,-0.41467 1,-0.90625 l 1,-27 c 0.0521,-0.5539 -0.44366,-1.09614 -1,-1.09375 l -42,0 c -0.60937,0 -1.0514,0.56975 -1,1.09375 z" id="path11814" inkscape:connector-curvature="0" sodipodi:nodetypes="ccccccccc" opacity="0.2" color="#000000" stroke-width="4" fill="none" stroke="url(#linearGradient3991)"/>
  <path transform="translate(-304,-228.99973)" sodipodi:nodetypes="sscscccccccsccscccccsccssssscs" inkscape:connector-curvature="0" id="path12028" d="m 309,232.99972 c -0.53578,0 -1,0.46422 -1,1 l -5e-5,8 -1,0 c -0.3277,0 -0.58618,0.18225 -0.75,0.375 -0.1489,0.17519 -0.22283,0.39373 -0.21875,0.65625 l -0.0312,0 0,0.0312 c 7.3e-4,0.0115 -10e-4,0.0195 0,0.0312 l 1.00005,26.96875 0,0.0312 c 0.0279,0.29662 0.18255,0.47236 0.34375,0.625 0.1612,0.15264 0.34482,0.28259 0.65625,0.28125 l 40,0 c 0.31123,10e-4 0.49504,-0.12858 0.65625,-0.28125 0.16121,-0.15267 0.31581,-0.32853 0.34375,-0.625 l 0,-0.0312 0.99995,-26.96875 0,-0.0312 c 10e-4,-0.013 -6.9e-4,-0.0186 0,-0.0312 0.0177,-0.32247 -0.12059,-0.51812 -0.28125,-0.6875 -0.16696,-0.17602 -0.38333,-0.34519 -0.71875,-0.34375 l -1,0 5e-5,-4 c 1e-5,-0.53578 -0.46422,-1 -1,-1 l -15,0 c -1.98879,0 -3.00245,-1.00245 -4,-2 -0.99755,-0.99755 -2.01326,-2 -4,-2 l -15,0 z" clip-path="url(#clipPath3985)" opacity="0.41" color="#000000" stroke-width="2" fill="none" stroke="#141414"/>
  <rect id="rect12034" width="38" height="1" x="5" y="13" opacity="0.41" color="#000000" stroke-width="2"/>
 </g>
 <g inkscape:groupmode="layer" id="layer2" inkscape:label="Symbol">
  <path sodipodi:nodetypes="ccccccccccccccccccccccccccccc" inkscape:connector-curvature="0" id="path4060" d="m 15,22 0,11 14,0 0,-11 z m 1,1 12,0 0,9 -12,0 z m 14,2 0,1 2,0 0,9 -12,0 0,-1 -1,0 0,2 14,0 0,-11 z M 19,25.65625 17,28 17,31 27,31 27,29.65625 24.34375,27 22,29 z" opacity="0.3" color="#000000" stroke-width="2" fill="#ffffff"/>
  <path d="m 15,21 0,11 14,0 0,-11 z m 1,1 12,0 0,9 -12,0 z m 14,2 0,1 2,0 0,9 -12,0 0,-1 -1,0 0,2 14,0 0,-11 z M 19,24.65625 17,27 17,30 27,30 27,28.65625 24.34375,26 22,28 z" id="rect6307-1" inkscape:connector-curvature="0" sodipodi:nodetypes="ccccccccccccccccccccccccccccc" opacity="0.4" color="#000000" stroke-width="2"/>
 </g>
</svg>
