<?xml version="1.0" encoding="UTF-8" standalone="no"?>
<svg xmlns="http://www.w3.org/2000/svg" xmlns:xlink="http://www.w3.org/1999/xlink" xmlns:sodipodi="http://sodipodi.sourceforge.net/DTD/sodipodi-0.dtd" xmlns:inkscape="http://www.inkscape.org/namespaces/inkscape" version="1.1" width="48" height="48">
 <metadata id="metadata37"/>
 <defs id="defs3761">
  <linearGradient id="linearGradient4724">
   <stop id="stop4726" stop-color="#f2fff6"/>
   <stop id="stop4728" offset="1" stop-color="#f4fff5"/>
  </linearGradient>
  <linearGradient id="linearGradient4706">
   <stop id="stop4708" stop-color="#2b5b3b"/>
   <stop id="stop4710" offset="1" stop-color="#41694e"/>
  </linearGradient>
  <linearGradient inkscape:collect="always" id="linearGradient4149">
   <stop id="stop4151" stop-color="#ffffff"/>
   <stop offset="1" id="stop4153" stop-color="#ffffff" stop-opacity="0"/>
  </linearGradient>
  <linearGradient id="linearGradient4127">
   <stop id="stop4129" stop-color="#8f2b12"/>
   <stop id="stop4131" offset="1" stop-color="#82461a"/>
  </linearGradient>
  <linearGradient inkscape:collect="always" xlink:href="#linearGradient4149" id="linearGradient4140" x1="789" x2="827" gradientUnits="userSpaceOnUse"/>
  <clipPath id="clipPath4130">
   <path id="path4132" d="M 790.4375,237 C 789.62555,237 789,237.62555 789,238.4375 l 0,35.09375 c 0,0.812 0.62555,1.46875 1.4375,1.46875 l 35.125,0 c 0.81195,0 1.4375,-0.65675 1.4375,-1.46875 l 0,-35.09375 C 827,237.62555 826.37445,237 825.5625,237 l -35.125,0 z"/>
  </clipPath>
  <linearGradient inkscape:collect="always" xlink:href="#linearGradient5618" id="linearGradient4083" x1="-1023.86" x2="-984.86" gradientUnits="userSpaceOnUse" gradientTransform="translate(980.3622,784)"/>
  <linearGradient id="linearGradient5618">
   <stop id="stop5620" stop-color="#3e3e3e"/>
   <stop offset="1" id="stop5622" stop-color="#595959"/>
  </linearGradient>
  <linearGradient inkscape:collect="always" xlink:href="#linearGradient3934" id="linearGradient3998" gradientUnits="userSpaceOnUse" gradientTransform="matrix(0,-1,1,0,68,556)" x1="292" x2="332"/>
  <linearGradient id="linearGradient3934">
   <stop id="stop3936" stop-color="#dd2f03"/>
   <stop offset="1" id="stop3938" stop-color="#e96300"/>
  </linearGradient>
  <linearGradient x2="332" x1="292" gradientTransform="matrix(0,-1,1,0,65,302)" gradientUnits="userSpaceOnUse" id="linearGradient3177" xlink:href="#linearGradient3934" inkscape:collect="always"/>
  <linearGradient inkscape:collect="always" xlink:href="#linearGradient4149" id="linearGradient4155" x1="24" y1="43.5" x2="37" y2="23.375" gradientUnits="userSpaceOnUse"/>
  <linearGradient inkscape:collect="always" xlink:href="#outerBackgroundGradient-0" id="linearGradient3998-0" gradientUnits="userSpaceOnUse" gradientTransform="matrix(0,-1,1,0,68,556)" x1="292" x2="332"/>
  <linearGradient id="outerBackgroundGradient-0">
   <stop id="stop3864-8-6-9" stop-color="#dddddd"/>
   <stop offset="1" id="stop3866-9-1-5" stop-color="#f2f2f2"/>
  </linearGradient>
  <linearGradient inkscape:collect="always" xlink:href="#linearGradient4100" id="linearGradient4898" gradientUnits="userSpaceOnUse" y1="235" x2="0" y2="277" gradientTransform="translate(-3.5,-3.5)"/>
  <linearGradient id="linearGradient4100">
   <stop id="stop4102" stop-color="#aaaaaa"/>
   <stop id="stop4104" offset="1" stop-color="#767676"/>
  </linearGradient>
  <linearGradient inkscape:collect="always" xlink:href="#linearGradient4084" id="linearGradient4900" gradientUnits="userSpaceOnUse" y1="231" x2="0" y2="273" gradientTransform="translate(-3.5,-3.5)"/>
  <linearGradient id="linearGradient4084">
   <stop id="stop4086" stop-color="#cd5fc2"/>
   <stop offset="1" id="stop4088" stop-color="#9a4993"/>
  </linearGradient>
  <linearGradient inkscape:collect="always" xlink:href="#outerBackgroundGradient-0" id="linearGradient4902" gradientUnits="userSpaceOnUse" y1="273" x2="0" y2="231" gradientTransform="translate(-3.5,-3.5)"/>
  <clipPath id="clipPath4068">
   <rect y="259" x="316" height="9" width="24" id="rect4070" fill="#525252" color="#bebebe" rx="4.5"/>
  </clipPath>
  <clipPath id="clipPath4060">
   <rect id="rect4062" width="24" height="9" x="316" y="240" fill="#525252" color="#bebebe" rx="4.5"/>
  </clipPath>
  <clipPath id="clipPath3423">
   <rect id="rect3425" width="24" height="9" x="316" y="240" fill="#525252" color="#bebebe" rx="4.5"/>
  </clipPath>
  <clipPath id="clipPath3427">
   <rect y="259" x="316" height="9" width="24" id="rect3429" fill="#525252" color="#bebebe" rx="4.5"/>
  </clipPath>
  <clipPath id="clipPath3431">
   <rect y="259" x="316" height="9" width="24" id="rect3433" fill="#525252" color="#bebebe" rx="4.5"/>
  </clipPath>
  <clipPath id="clipPath3435">
   <rect id="rect3437" width="24" height="9" x="316" y="240" fill="#525252" color="#bebebe" rx="4.5"/>
  </clipPath>
  <clipPath id="clipPath3439">
   <rect id="rect3441" width="24" height="9" x="316" y="240" fill="#525252" color="#bebebe" rx="4.5"/>
  </clipPath>
  <clipPath id="clipPath3443">
   <rect y="259" x="316" height="9" width="24" id="rect3445" fill="#525252" color="#bebebe" rx="4.5"/>
  </clipPath>
  <linearGradient x2="332" x1="292" gradientTransform="matrix(0,-1,1,0,-223.5,332.5)" gradientUnits="userSpaceOnUse" id="linearGradient3470" xlink:href="#outerBackgroundGradient-0" inkscape:collect="always"/>
  <linearGradient inkscape:collect="always" xlink:href="#outerBackgroundGradient-6" id="linearGradient5320" gradientUnits="userSpaceOnUse" gradientTransform="matrix(0,-1,1,0,68,556)" x1="292" x2="332"/>
  <linearGradient id="outerBackgroundGradient-6">
   <stop id="stop3864-8-6-0" stop-color="#111111"/>
   <stop offset="1" id="stop3866-9-1-7" stop-color="#222222"/>
  </linearGradient>
  <linearGradient x2="332" x1="292" gradientTransform="matrix(0,-1,1,0,-223.5,332.5)" gradientUnits="userSpaceOnUse" id="linearGradient3133" xlink:href="#outerBackgroundGradient-6" inkscape:collect="always"/>
  <linearGradient inkscape:collect="always" xlink:href="#outerBackgroundGradient-6" id="linearGradient3077" gradientUnits="userSpaceOnUse" gradientTransform="matrix(0,-1,1,0,832,-978.3622)" x1="-1023.86" x2="-984.86"/>
  <linearGradient inkscape:collect="always" xlink:href="#outerBackgroundGradient-0-1" id="linearGradient3851" gradientUnits="userSpaceOnUse" gradientTransform="matrix(0,-1,-1,0,-784,-978.3622)" x1="-1023.86" x2="-984.86"/>
  <radialGradient inkscape:collect="always" xlink:href="#linearGradient3952" id="radialGradient4205" gradientUnits="userSpaceOnUse" gradientTransform="matrix(1.0571429,0,0,1.25,0.6,-10.875)" cx="40" cy="43.5" r="2"/>
  <linearGradient inkscape:collect="always" id="linearGradient3952">
   <stop id="stop3954"/>
   <stop offset="1" id="stop3956" stop-opacity="0"/>
  </linearGradient>
  <radialGradient inkscape:collect="always" xlink:href="#linearGradient3952" id="radialGradient4214" gradientUnits="userSpaceOnUse" gradientTransform="matrix(1,0,0,0.75,2,10.875)" cx="40" cy="43.5" r="2"/>
  <radialGradient inkscape:collect="always" xlink:href="#linearGradient3952" id="radialGradient4202" gradientUnits="userSpaceOnUse" gradientTransform="matrix(1.0571429,0,0,1.25,-4.4000003,-10.875)" cx="9" cy="43.5" r="2"/>
  <radialGradient inkscape:collect="always" xlink:href="#linearGradient3952" id="radialGradient4211" gradientUnits="userSpaceOnUse" gradientTransform="matrix(1,0,0,0.75,-3.0000003,10.875)" cx="9" cy="43.5" r="2"/>
  <linearGradient inkscape:collect="always" xlink:href="#linearGradient3960" id="linearGradient4208" gradientUnits="userSpaceOnUse" y1="45" x2="0" y2="42" gradientTransform="matrix(1.0571429,0,0,1.6666667,-5.4000003,-29)"/>
  <linearGradient id="linearGradient3960">
   <stop id="stop3962" stop-opacity="0"/>
   <stop id="stop3970" offset="0.5"/>
   <stop offset="1" id="stop3964" stop-opacity="0"/>
  </linearGradient>
  <linearGradient inkscape:collect="always" xlink:href="#linearGradient3960" id="linearGradient4217" gradientUnits="userSpaceOnUse" y1="45" x2="0" y2="42" gradientTransform="translate(-4.0000003,0)"/>
  <linearGradient inkscape:collect="always" xlink:href="#outerBackgroundGradient-0-1" id="linearGradient4262" x1="292" x2="332" gradientUnits="userSpaceOnUse" gradientTransform="matrix(0,-1,1,0,68,556)"/>
  <linearGradient id="outerBackgroundGradient-0-1">
   <stop id="stop3864-8-6-3-6" stop-color="#3689e6"/>
   <stop offset="1" id="stop3866-9-1-7-3" stop-color="#90dbec"/>
  </linearGradient>
 </defs>
 <g inkscape:groupmode="layer" id="layer1" inkscape:label="Background">
  <g id="g3135" transform="translate(0,-2)">
   <path d="m 42.885716,41.000001 0,5 0.528571,0 c 0.878486,0 1.585715,-1.115 1.585715,-2.5 0,-1.385 -0.707229,-2.5 -1.585715,-2.5 l -0.528571,0 z" id="path3987" inkscape:connector-curvature="0" opacity="0.12" fill="url(#radialGradient4205)"/>
   <path inkscape:connector-curvature="0" id="rect3940" d="m 42,42 0,3 0.5,0 C 43.331,45 44,44.331 44,43.5 44,42.669 43.331,42 42.5,42 L 42,42 z" opacity="0.12" fill="url(#radialGradient4214)"/>
   <path d="M 4.4866072,41.000001 C 3.6630268,41.000001 3,42.045313 3,43.343751 l 0,0.3125 c 0,1.298439 0.6630268,2.34375 1.4866072,2.34375 l 0.6276786,0 0,-5 -0.6276786,0 z" id="path3989" inkscape:connector-curvature="0" opacity="0.12" fill="url(#radialGradient4202)"/>
   <path inkscape:connector-curvature="0" id="rect3942" d="m 5.4062497,42 c -0.7790625,0 -1.40625,0.627187 -1.40625,1.40625 l 0,0.1875 c 0,0.779063 0.6271875,1.40625 1.40625,1.40625 l 0.59375,0 0,-3 -0.59375,0 z" opacity="0.12" fill="url(#radialGradient4211)"/>
   <path sodipodi:nodetypes="ccccc" inkscape:connector-curvature="0" id="rect3985" d="m 5.1141432,41 37.7717148,0 0,5 -37.7717148,0 z" opacity="0.12" fill="url(#linearGradient4208)"/>
   <path sodipodi:nodetypes="ccccc" inkscape:connector-curvature="0" id="rect3938" d="m 5.9998568,42 36.0002842,0 0,3 -36.0002842,0 z" opacity="0.12" fill="url(#linearGradient4217)"/>
  </g>
  <path d="M 41.5625,6.5 C 42.6428,6.5 43.5,7.3572014 43.5,8.4375 l 0,2.5625 -39,0 0,-2.5625 C 4.5,7.3572014 5.3572,6.5 6.4375,6.5 z" id="rect3075" inkscape:connector-curvature="0" sodipodi:nodetypes="ssccsss" fill="url(#linearGradient3077)"/>
  <path d="m 4.5,11 0,28.5625 C 4.5,40.642799 5.3572,41.5 6.4375,41.5 l 35.125,0 C 42.6428,41.5 43.5,40.642799 43.5,39.5625 L 43.5,11 z" id="rect4073" inkscape:connector-curvature="0" sodipodi:nodetypes="csssscc" fill="url(#linearGradient3851)"/>
  <path d="m 4.5,11 39,0 0,1 -39,0 z" id="rect3853" inkscape:connector-curvature="0" sodipodi:nodetypes="ccccc"/>
  <path d="m 4.5,12 39,0 0,1 -39,0 z" id="rect3855" inkscape:connector-curvature="0" sodipodi:nodetypes="ccccc" opacity="0.4" fill="#ffffff"/>
  <path d="M 6.4375,6 C 5.088849,6 4,7.0888497 4,8.4375 L 4,12 5,12 5,8.4375 C 5,7.6255532 5.625551,7 6.4375,7 l 35.125,0 C 42.374449,7 43,7.6255532 43,8.4375 L 43,12 44,12 44,8.4375 C 44,7.0888497 42.911151,6 41.5625,6 z" id="rect4085" inkscape:connector-curvature="0" sodipodi:nodetypes="ssccssssccsss" opacity="0.61" color="#000000"/>
  <path transform="matrix(0,1,-1,0,280,-782)" d="M 790.4375,237 C 789.62555,237 789,237.62555 789,238.4375 l 0,35.09375 c 0,0.812 0.62555,1.46875 1.4375,1.46875 l 31.125,0 c 0.81195,0 1.4375,-0.65675 1.4375,-1.46875 l 0,-35.09375 C 823,237.62555 822.37445,237 821.5625,237 z" clip-path="url(#clipPath4130)" inkscape:connector-curvature="0" sodipodi:nodetypes="sssssssss" opacity="0.1" fill="none" stroke="url(#linearGradient4140)" stroke-width="2"/>
  <path inkscape:connector-curvature="0" d="M 6.4375,7.00002 C 5.62555,7.00002 5,7.62557 5,8.43752 l 0,1 C 5,8.62557 5.62555,8.00002 6.4375,8.00002 l 35.125,0 c 0.81195,0 1.4375,0.62555 1.4375,1.4375 l 0,-1 c 0,-0.81195 -0.62555,-1.4375 -1.4375,-1.4375 z" id="rect4089-4" sodipodi:nodetypes="sscsscsss" opacity="0.05" fill="#ffffff"/>
  <path id="path4105" d="M 6.4375,41.000017 C 5.62555,41.000017 5,40.374417 5,39.562517 L 5,38.56252 c 0,0.811897 0.62555,1.437497 1.4375,1.437497 l 35.125,0 c 0.81195,0 1.4375,-0.6256 1.4375,-1.437497 l 0,0.999997 c 0,0.8119 -0.62555,1.4375 -1.4375,1.4375 z" inkscape:connector-curvature="0" sodipodi:nodetypes="sscsscsss" opacity="0.1" fill="#ffffff"/>
  <path d="M 4,12 4,39.5625 C 4,40.91115 5.088849,42 6.4375,42 l 35.125,0 C 42.911151,42 44,40.91115 44,39.5625 L 44,12 43,12 43,39.5625 C 43,40.374447 42.374449,41 41.5625,41 L 6.4375,41 C 5.625551,41 5,40.374447 5,39.5625 L 5,12 z" id="path3134" inkscape:connector-curvature="0" sodipodi:nodetypes="cssssccsssscc" opacity="0.81" color="#000000" fill="#004c6f"/>
 </g>
</svg>
