<?xml version="1.0" encoding="UTF-8" standalone="no"?>
<svg
   xmlns:dc="http://purl.org/dc/elements/1.1/"
   xmlns:cc="http://creativecommons.org/ns#"
   xmlns:rdf="http://www.w3.org/1999/02/22-rdf-syntax-ns#"
   xmlns:svg="http://www.w3.org/2000/svg"
   xmlns="http://www.w3.org/2000/svg"
   xmlns:xlink="http://www.w3.org/1999/xlink"
   id="svg3759"
   height="48"
   width="48"
   version="1.1">
  <metadata
     id="metadata37">
    <rdf:RDF>
      <cc:Work
         rdf:about="">
        <dc:format>image/svg+xml</dc:format>
        <dc:type
           rdf:resource="http://purl.org/dc/dcmitype/StillImage" />
        <dc:title />
      </cc:Work>
    </rdf:RDF>
  </metadata>
  <defs
     id="defs3761">
    <linearGradient
       gradientUnits="userSpaceOnUse"
       y2="256"
       x2="827"
       y1="256"
       x1="789"
       id="linearGradient4140"
       xlink:href="#linearGradient4134" />
    <linearGradient
       id="linearGradient4134">
      <stop
         id="stop4136"
         offset="0"
         style="stop-color:#ffffff;stop-opacity:1;" />
      <stop
         id="stop4138"
         offset="1"
         style="stop-color:#ffffff;stop-opacity:0;" />
    </linearGradient>
    <clipPath
       id="clipPath4130"
       clipPathUnits="userSpaceOnUse">
      <path
         style="fill:#ba2222;fill-opacity:1;stroke:none"
         d="M 790.4375,237 C 789.62555,237 789,237.62555 789,238.4375 l 0,35.09375 c 0,0.812 0.62555,1.46875 1.4375,1.46875 l 35.125,0 c 0.81195,0 1.4375,-0.65675 1.4375,-1.46875 l 0,-35.09375 C 827,237.62555 826.37445,237 825.5625,237 l -35.125,0 z"
         id="path4132" />
    </clipPath>
    <linearGradient
       y2="-808"
       x2="-984.86218"
       y1="-808"
       x1="-1023.8622"
       gradientTransform="matrix(0,-1,-1,0,-784,-980.3622)"
       gradientUnits="userSpaceOnUse"
       id="linearGradient3877"
       xlink:href="#linearGradient3988-5" />
    <linearGradient
       id="linearGradient3988-5">
      <stop
         id="stop3990-5"
         offset="0"
         style="stop-color:#ededed;stop-opacity:1;" />
      <stop
         id="stop3992-0"
         offset="1"
         style="stop-color:#fafafa;stop-opacity:1;" />
    </linearGradient>
    <linearGradient
       id="linearGradient3960">
      <stop
         id="stop3962"
         offset="0"
         style="stop-color:#000000;stop-opacity:0;" />
      <stop
         style="stop-color:#000000;stop-opacity:1;"
         offset="0.5"
         id="stop3970" />
      <stop
         id="stop3964"
         offset="1"
         style="stop-color:#000000;stop-opacity:0;" />
    </linearGradient>
    <linearGradient
       id="linearGradient3952">
      <stop
         id="stop3954"
         offset="0"
         style="stop-color:#000000;stop-opacity:1;" />
      <stop
         id="stop3956"
         offset="1"
         style="stop-color:#000000;stop-opacity:0;" />
    </linearGradient>
    <linearGradient
       id="linearGradient3944">
      <stop
         id="stop3946"
         offset="0"
         style="stop-color:#000000;stop-opacity:1;" />
      <stop
         id="stop3948"
         offset="1"
         style="stop-color:#000000;stop-opacity:0;" />
    </linearGradient>
    <radialGradient
       r="2"
       fy="43.5"
       fx="9"
       cy="43.5"
       cx="9"
       gradientTransform="matrix(1.0571429,0,0,1.25,-4.4000003,-10.875)"
       gradientUnits="userSpaceOnUse"
       id="radialGradient4202"
       xlink:href="#linearGradient3944" />
    <radialGradient
       r="2"
       fy="43.5"
       fx="40"
       cy="43.5"
       cx="40"
       gradientTransform="matrix(1.0571429,0,0,1.25,0.6,-10.875)"
       gradientUnits="userSpaceOnUse"
       id="radialGradient4205"
       xlink:href="#linearGradient3952" />
    <linearGradient
       gradientTransform="matrix(1.0571429,0,0,1.6666667,-5.4000003,-29)"
       y2="42"
       x2="25"
       y1="45"
       x1="25"
       gradientUnits="userSpaceOnUse"
       id="linearGradient4208"
       xlink:href="#linearGradient3960" />
    <radialGradient
       r="2"
       fy="43.5"
       fx="9"
       cy="43.5"
       cx="9"
       gradientTransform="matrix(1,0,0,0.75,-3.0000003,10.875)"
       gradientUnits="userSpaceOnUse"
       id="radialGradient4211"
       xlink:href="#linearGradient3944" />
    <radialGradient
       r="2"
       fy="43.5"
       fx="40"
       cy="43.5"
       cx="40"
       gradientTransform="matrix(1,0,0,0.75,2,10.875)"
       gradientUnits="userSpaceOnUse"
       id="radialGradient4214"
       xlink:href="#linearGradient3952" />
    <linearGradient
       gradientTransform="translate(-4.0000003,0)"
       y2="42"
       x2="25"
       y1="45"
       x1="25"
       gradientUnits="userSpaceOnUse"
       id="linearGradient4217"
       xlink:href="#linearGradient3960" />
  </defs>
  <g
     id="layer1">
    <path
       style="opacity:0.12000002;fill:url(#radialGradient4205);fill-opacity:1;stroke:none"
       d="m 42.885716,41.000001 0,5 0.528571,0 c 0.878486,0 1.585715,-1.115 1.585715,-2.5 0,-1.385 -0.707229,-2.5 -1.585715,-2.5 l -0.528571,0 z"
       id="path3987" />
    <path
       id="rect3940"
       d="m 42,42 0,3 0.5,0 C 43.331,45 44,44.331 44,43.5 44,42.669 43.331,42 42.5,42 L 42,42 z"
       style="opacity:0.12000002;fill:url(#radialGradient4214);fill-opacity:1;stroke:none" />
    <path
       style="opacity:0.12000002;fill:url(#radialGradient4202);fill-opacity:1;stroke:none"
       d="M 4.4866072,41.000001 C 3.6630268,41.000001 3,42.045313 3,43.343751 l 0,0.3125 c 0,1.298439 0.6630268,2.34375 1.4866072,2.34375 l 0.6276786,0 0,-5 -0.6276786,0 z"
       id="path3989" />
    <path
       id="rect3942"
       d="m 5.4062497,42 c -0.7790625,0 -1.40625,0.627187 -1.40625,1.40625 l 0,0.1875 c 0,0.779063 0.6271875,1.40625 1.40625,1.40625 l 0.59375,0 0,-3 -0.59375,0 z"
       style="opacity:0.12000002;fill:url(#radialGradient4211);fill-opacity:1;stroke:none" />
    <path
       id="rect3985"
       d="m 5.1141432,41 37.7717148,0 0,5 -37.7717148,0 z"
       style="opacity:0.12000002;fill:url(#linearGradient4208);fill-opacity:1;stroke:none" />
    <path
       id="rect3938"
       d="m 5.9998568,42 36.0002842,0 0,3 -36.0002842,0 z"
       style="opacity:0.12000002;fill:url(#linearGradient4217);fill-opacity:1;stroke:none" />
    <path
       id="rect4073"
       d="M 6.4375 5 C 5.625551 5 5 5.6255532 5 6.4375 L 5 41.5625 C 5 42.374447 5.625551 43 6.4375 43 L 41.5625 43 C 42.374449 43 43 42.374447 43 41.5625 L 43 6.4375 C 43 5.6255532 42.374449 5 41.5625 5 L 6.4375 5 z "
       style="fill:url(#linearGradient3877);fill-opacity:1.0;stroke:none;display:inline" />
    <rect
       rx="1.9499974"
       ry="1.95"
       transform="matrix(0,-1,-1,0,0,0)"
       y="-43.5"
       x="-43.5"
       height="39"
       width="39"
       id="rect4085"
       style="opacity:0.41;fill:none;stroke:#000000;stroke-opacity:1;display:inline" />
    <path
       id="rect4089-4"
       d="M 6.4375,5.00002 C 5.62555,5.00002 5,5.62557 5,6.43752 l 0,1 C 5,6.62557 5.62555,6.00002 6.4375,6.00002 l 35.125,0 c 0.81195,0 1.4375,0.62555 1.4375,1.4375 l 0,-1 c 0,-0.81195 -0.62555,-1.4375 -1.4375,-1.4375 l -35.125,0 z"
       style="opacity:0.14999999999999999;fill:#ffffff;fill-opacity:1;stroke:none;display:inline" />
    <path
       clip-path="url(#clipPath4130)"
       id="path4128"
       d="M 790.4375,237 C 789.62555,237 789,237.62555 789,238.4375 l 0,35.09375 c 0,0.812 0.62555,1.46875 1.4375,1.46875 l 35.125,0 c 0.81195,0 1.4375,-0.65675 1.4375,-1.46875 l 0,-35.09375 C 827,237.62555 826.37445,237 825.5625,237 l -35.125,0 z"
       style="opacity:0.10000000000000001;fill:none;stroke:url(#linearGradient4140);stroke-width:2;stroke-miterlimit:4;stroke-opacity:1;stroke-dasharray:none;display:inline"
       transform="matrix(0,1,-1,0,280,-784)" />
    <path
       style="opacity:0.10000000000000001;fill:#ffffff;fill-opacity:1;stroke:none;display:inline"
       d="M 6.4375,43.000017 C 5.62555,43.000017 5,42.374417 5,41.562517 L 5,40.56252 c 0,0.811897 0.62555,1.437497 1.4375,1.437497 l 35.125,0 c 0.81195,0 1.4375,-0.6256 1.4375,-1.437497 l 0,0.999997 c 0,0.8119 -0.62555,1.4375 -1.4375,1.4375 l -35.125,0 z"
       id="path4105" />
  </g>
  <g
     id="layer2">
    <text
       id="context"
       style="font-size:18px;font-style:normal;font-variant:normal;font-weight:normal;font-stretch:normal;fill:#000000;fill-opacity:1;stroke:none;display:none;enable-background:new;font-family:DejaVu Sans;-inkscape-font-specification:DejaVu Sans"
       x="-758.49316"
       xml:space="preserve"
       y="-144.75488"><tspan
         id="tspan3933"
         x="-758.49316"
         y="-144.75488"
         style="font-style:normal;font-variant:normal;font-weight:normal;font-stretch:normal;font-family:DejaVu Sans;-inkscape-font-specification:DejaVu Sans">apps</tspan></text>
    <text
       id="icon-name"
       style="font-size:18px;font-style:normal;font-variant:normal;font-weight:bold;font-stretch:normal;text-align:start;line-height:125%;writing-mode:lr-tb;text-anchor:start;fill:#000000;fill-opacity:1;stroke:none;display:none;enable-background:new;font-family:DejaVu Sans;-inkscape-font-specification:DejaVu Sans Bold"
       x="-651.01172"
       xml:space="preserve"
       y="-144.75488"><tspan
         id="tspan3937"
         x="-651.01172"
         y="-144.75488"
         style="font-size:18px;font-style:normal;font-variant:normal;font-weight:bold;font-stretch:normal;font-family:DejaVu Sans;-inkscape-font-specification:DejaVu Sans Bold">zsnes</tspan></text>
    <rect
       y="-24.5"
       x="-357.5"
       height="16"
       width="16"
       id="rect16x16"
       style="fill:#eeeeec;fill-opacity:1;fill-rule:nonzero;stroke:none;stroke-width:2;marker:none;visibility:visible;display:none;overflow:visible;enable-background:accumulate" />
    <rect
       y="-64.5"
       x="-357.5"
       height="24"
       width="24"
       id="rect24x24"
       style="fill:#d4d4d4;fill-opacity:1;fill-rule:nonzero;stroke:none;stroke-width:2;marker:none;visibility:visible;display:none;overflow:visible;enable-background:accumulate" />
    <rect
       y="-112.5"
       x="-357.5"
       height="32"
       width="32"
       id="rect32x32"
       style="fill:#eeeeec;fill-opacity:1;fill-rule:nonzero;stroke:none;stroke-width:2;marker:none;visibility:visible;display:none;overflow:visible;enable-background:accumulate" />
    <rect
       style="fill:#eeeeec;fill-opacity:1;fill-rule:nonzero;stroke:none;stroke-width:2;marker:none;visibility:visible;display:none;overflow:visible;enable-background:accumulate"
       id="rect22x22"
       width="22"
       height="22"
       x="-356.5"
       y="-63.5" />
    <rect
       style="fill:#eeeeec;fill-opacity:1;fill-rule:nonzero;stroke:none;stroke-width:2;marker:none;visibility:visible;display:none;overflow:visible;enable-background:accumulate"
       id="rect48x48"
       width="48"
       height="48"
       x="-485.5"
       y="55.5" />
    <rect
       y="-136.5"
       x="-757.5"
       height="256"
       width="256"
       id="rect256x256"
       style="fill:#eeeeec;fill-opacity:1;fill-rule:nonzero;stroke:none;stroke-width:2;marker:none;visibility:visible;display:none;overflow:visible;enable-background:accumulate" />
    <rect
       y="-24.5"
       x="-485.5"
       height="64"
       width="64"
       id="rect64x64"
       style="fill:#eeeeec;fill-opacity:1;fill-rule:nonzero;stroke:none;stroke-width:2;marker:none;visibility:visible;display:none;overflow:visible;enable-background:accumulate" />
    <rect
       y="-136.5"
       x="-485.5"
       height="96"
       width="96"
       id="rect96x96"
       style="fill:#eeeeec;fill-opacity:1;fill-rule:nonzero;stroke:none;stroke-width:2;marker:none;visibility:visible;display:none;overflow:visible;enable-background:accumulate" />
    <g
       transform="translate(54.5,0)"
       id="g4996">
      <path
         id="path4221"
         d="m -32.375,15.375 c -2.465475,0.248118 -4.407632,2.317051 -4.4375,4.84375 0.06361,-0.0037 0.150305,0 0.21875,0 2.717154,0 4.90625,2.214636 4.90625,4.9375 l 0,0.0625 0.25,-0.03125 0.25,-0.03125 0.21875,-0.03125 0.25,-0.0625 L -30.5,25 l 0.21875,-0.0625 0.21875,-0.09375 0.21875,-0.0625 0.21875,-0.125 0.21875,-0.09375 0.1875,-0.125 0.1875,-0.125 0.1875,-0.15625 0.1875,-0.125 0.15625,-0.15625 0.15625,-0.15625 0.15625,-0.1875 0.15625,-0.1875 0.15625,-0.1875 0.125,-0.1875 0.125,-0.1875 0.09375,-0.1875 0.125,-0.21875 0.09375,-0.21875 0.0625,-0.21875 0.09375,-0.21875 0.0625,-0.21875 0.03125,-0.25 0.0625,-0.21875 0.03125,-0.25 0,-0.25 0.03125,-0.25 c 0,-2.717674 -2.219641,-4.90625 -4.9375,-4.90625 -0.168728,0 -0.335635,-0.01654 -0.5,0 z m 10.09375,5.09375 c -2.625875,0 -4.781328,2.127608 -4.8125,4.75 0.0624,-0.0037 0.123345,0 0.1875,0 2.643202,0 4.8125,2.132867 4.8125,4.78125 l 0,0.0625 0.21875,0 0.25,-0.03125 0.21875,-0.03125 0.25,-0.0625 0.21875,-0.0625 0.21875,-0.0625 0.21875,-0.09375 0.1875,-0.0625 0.21875,-0.125 0.1875,-0.09375 0.1875,-0.125 0.1875,-0.125 0.1875,-0.125 0.1875,-0.15625 L -19,28.75 l 0.15625,-0.15625 0.15625,-0.15625 0.15625,-0.15625 0.125,-0.1875 0.125,-0.1875 0.125,-0.1875 0.09375,-0.1875 0.125,-0.21875 0.09375,-0.21875 0.0625,-0.21875 0.0625,-0.1875 0.0625,-0.25 0.0625,-0.21875 L -17.5625,26 l 0.03125,-0.25 0.03125,-0.21875 0,-0.25 c 0,-2.648393 -2.13113,-4.8125 -4.78125,-4.8125 z M -38.3125,23.75 l -0.28125,0.03125 -0.25,0 -0.25,0 -0.28125,0.03125 -0.25,0.03125 -0.21875,0.03125 -0.25,0.0625 -0.25,0.03125 -0.21875,0.0625 -0.21875,0.0625 -0.21875,0.0625 -0.21875,0.0625 -0.1875,0.0625 -0.21875,0.09375 -0.1875,0.0625 -0.15625,0.09375 -0.1875,0.09375 -0.15625,0.09375 -0.15625,0.09375 -0.15625,0.125 -0.125,0.09375 -0.125,0.09375 -0.125,0.125 -0.09375,0.125 -0.09375,0.125 -0.09375,0.09375 -0.0625,0.125 -0.0625,0.15625 -0.03125,0.125 -0.03125,0.125 -0.03125,0.125 0,0.125 c 0,1.454963 2.324162,2.625 5.1875,2.625 2.867499,0 5.1875,-1.170037 5.1875,-2.625 0,-1.449772 -2.319304,-2.625 -5.1875,-2.625 z m 9.28125,4.75 -0.25,0.03125 -0.28125,0.03125 -0.28125,0.03125 -0.25,0.03125 -0.25,0.03125 -0.25,0.0625 -0.25,0.03125 -0.21875,0.0625 -0.21875,0.09375 -0.21875,0.0625 -0.21875,0.0625 -0.21875,0.09375 -0.1875,0.09375 -0.1875,0.09375 -0.1875,0.09375 -0.15625,0.09375 -0.1875,0.09375 -0.125,0.125 -0.15625,0.09375 -0.125,0.125 -0.125,0.125 -0.125,0.125 -0.09375,0.125 -0.0625,0.125 -0.09375,0.125 -0.0625,0.125 -0.03125,0.15625 -0.03125,0.125 -0.03125,0.15625 0,0.125 c 0,1.523045 2.42727,2.75 5.4375,2.75 C -25.46008,34 -23,32.772349 -23,31.25 c 0,-1.5239 -2.46008,-2.75 -5.46875,-2.75 l -0.28125,0 -0.28125,0 z"
         style="font-style:normal;font-variant:normal;font-weight:normal;font-stretch:normal;letter-spacing:normal;word-spacing:normal;text-anchor:start;opacity:0.4;fill:#ffffff;fill-opacity:1;fill-rule:nonzero;stroke:none;display:inline;enable-background:new" />
      <path
         style="font-style:normal;font-variant:normal;font-weight:normal;font-stretch:normal;letter-spacing:normal;word-spacing:normal;text-anchor:start;fill:#bbbbbb;fill-opacity:1;fill-rule:nonzero;stroke:none;display:inline;enable-background:new"
         d="m -32.375,14.375 c -2.465475,0.248118 -4.407632,2.317051 -4.4375,4.84375 0.06361,-0.0037 0.150305,0 0.21875,0 2.717154,0 4.90625,2.214636 4.90625,4.9375 l 0,0.0625 0.25,-0.03125 0.25,-0.03125 0.21875,-0.03125 0.25,-0.0625 L -30.5,24 l 0.21875,-0.0625 0.21875,-0.09375 0.21875,-0.0625 0.21875,-0.125 0.21875,-0.09375 0.1875,-0.125 0.1875,-0.125 0.1875,-0.15625 0.1875,-0.125 0.15625,-0.15625 0.15625,-0.15625 0.15625,-0.1875 0.15625,-0.1875 0.15625,-0.1875 0.125,-0.1875 0.125,-0.1875 0.09375,-0.1875 0.125,-0.21875 0.09375,-0.21875 0.0625,-0.21875 0.09375,-0.21875 0.0625,-0.21875 0.03125,-0.25 0.0625,-0.21875 0.03125,-0.25 0,-0.25 0.03125,-0.25 c 0,-2.717674 -2.219641,-4.90625 -4.9375,-4.90625 -0.168728,0 -0.335635,-0.01654 -0.5,0 z m 10.09375,5.09375 c -2.625875,0 -4.781328,2.127608 -4.8125,4.75 0.0624,-0.0037 0.123345,0 0.1875,0 2.643202,0 4.8125,2.132867 4.8125,4.78125 l 0,0.0625 0.21875,0 0.25,-0.03125 0.21875,-0.03125 0.25,-0.0625 0.21875,-0.0625 0.21875,-0.0625 0.21875,-0.09375 0.1875,-0.0625 0.21875,-0.125 0.1875,-0.09375 0.1875,-0.125 0.1875,-0.125 0.1875,-0.125 0.1875,-0.15625 L -19,27.75 l 0.15625,-0.15625 0.15625,-0.15625 0.15625,-0.15625 0.125,-0.1875 0.125,-0.1875 0.125,-0.1875 0.09375,-0.1875 0.125,-0.21875 0.09375,-0.21875 0.0625,-0.21875 0.0625,-0.1875 0.0625,-0.25 0.0625,-0.21875 L -17.5625,25 l 0.03125,-0.25 0.03125,-0.21875 0,-0.25 c 0,-2.648393 -2.13113,-4.8125 -4.78125,-4.8125 z M -38.3125,22.75 l -0.28125,0.03125 -0.25,0 -0.25,0 -0.28125,0.03125 -0.25,0.03125 -0.21875,0.03125 -0.25,0.0625 -0.25,0.03125 -0.21875,0.0625 -0.21875,0.0625 -0.21875,0.0625 -0.21875,0.0625 -0.1875,0.0625 -0.21875,0.09375 -0.1875,0.0625 -0.15625,0.09375 -0.1875,0.09375 -0.15625,0.09375 -0.15625,0.09375 -0.15625,0.125 -0.125,0.09375 -0.125,0.09375 -0.125,0.125 -0.09375,0.125 -0.09375,0.125 -0.09375,0.09375 -0.0625,0.125 -0.0625,0.15625 -0.03125,0.125 -0.03125,0.125 -0.03125,0.125 0,0.125 c 0,1.454963 2.324162,2.625 5.1875,2.625 2.867499,0 5.1875,-1.170037 5.1875,-2.625 0,-1.449772 -2.319304,-2.625 -5.1875,-2.625 z m 9.28125,4.75 -0.25,0.03125 -0.28125,0.03125 -0.28125,0.03125 -0.25,0.03125 -0.25,0.03125 -0.25,0.0625 -0.25,0.03125 -0.21875,0.0625 -0.21875,0.09375 -0.21875,0.0625 -0.21875,0.0625 -0.21875,0.09375 -0.1875,0.09375 -0.1875,0.09375 -0.1875,0.09375 -0.15625,0.09375 -0.1875,0.09375 -0.125,0.125 -0.15625,0.09375 -0.125,0.125 -0.125,0.125 -0.125,0.125 -0.09375,0.125 -0.0625,0.125 -0.09375,0.125 -0.0625,0.125 -0.03125,0.15625 -0.03125,0.125 -0.03125,0.15625 0,0.125 c 0,1.523045 2.42727,2.75 5.4375,2.75 C -25.46008,33 -23,31.772349 -23,30.25 c 0,-1.5239 -2.46008,-2.75 -5.46875,-2.75 l -0.28125,0 -0.28125,0 z"
         id="path4212" />
      <path
         style="font-style:normal;font-variant:normal;font-weight:normal;font-stretch:normal;letter-spacing:normal;word-spacing:normal;text-anchor:start;opacity:0.1;fill:#000000;fill-opacity:1;fill-rule:nonzero;stroke:none;display:inline;enable-background:new"
         d="m -32.375,14.375 c -2.465475,0.248118 -4.407632,2.317051 -4.4375,4.84375 0.03635,-0.0021 0.08129,-6.47e-4 0.125,0 0.449995,-2.057987 2.179304,-3.629072 4.3125,-3.84375 0.164365,-0.01654 0.331272,0 0.5,0 2.547993,0 4.65244,1.926511 4.90625,4.40625 l 0,-0.25 0.03125,-0.25 c 0,-2.717674 -2.219641,-4.90625 -4.9375,-4.90625 -0.168728,0 -0.335635,-0.01654 -0.5,0 z m 10.09375,5.09375 c -2.625875,0 -4.781328,2.127608 -4.8125,4.75 0.0312,-0.0019 0.06269,-4.63e-4 0.09375,0 0.48043,-2.1494 2.431506,-3.75 4.71875,-3.75 2.50088,0 4.528315,1.93225 4.75,4.375 l 0,-0.09375 0.03125,-0.21875 0,-0.25 c 0,-2.648393 -2.13113,-4.8125 -4.78125,-4.8125 z M -38.3125,22.75 l -0.28125,0.03125 -0.25,0 -0.25,0 -0.28125,0.03125 -0.25,0.03125 -0.21875,0.03125 -0.25,0.0625 -0.25,0.03125 -0.21875,0.0625 -0.21875,0.0625 -0.21875,0.0625 -0.21875,0.0625 -0.1875,0.0625 -0.21875,0.09375 -0.1875,0.0625 -0.15625,0.09375 -0.1875,0.09375 -0.15625,0.09375 -0.15625,0.09375 -0.15625,0.125 -0.125,0.09375 -0.125,0.09375 -0.125,0.125 -0.09375,0.125 -0.09375,0.125 -0.09375,0.09375 -0.0625,0.125 -0.0625,0.15625 -0.03125,0.125 -0.03125,0.125 -0.03125,0.125 0,0.125 c 0,0.171172 0.03232,0.338156 0.09375,0.5 l 0.0625,-0.15625 0.0625,-0.125 L -43.1875,25.5 -43.09375,25.375 -43,25.25 l 0.125,-0.125 0.125,-0.09375 0.125,-0.09375 0.15625,-0.125 0.15625,-0.09375 0.15625,-0.09375 0.1875,-0.09375 0.15625,-0.09375 0.1875,-0.0625 0.21875,-0.09375 0.1875,-0.0625 0.21875,-0.0625 0.21875,-0.0625 0.21875,-0.0625 0.21875,-0.0625 0.25,-0.03125 0.25,-0.0625 0.21875,-0.03125 0.25,-0.03125 0.28125,-0.03125 0.25,0 0.25,0 0.28125,-0.03125 c 2.509671,0 4.610607,0.89757 5.09375,2.09375 0.05407,-0.152354 0.09375,-0.308276 0.09375,-0.46875 0,-1.449772 -2.319304,-2.625 -5.1875,-2.625 z m 9.28125,4.75 -0.25,0.03125 -0.28125,0.03125 -0.28125,0.03125 -0.25,0.03125 -0.25,0.03125 -0.25,0.0625 -0.25,0.03125 -0.21875,0.0625 -0.21875,0.09375 -0.21875,0.0625 -0.21875,0.0625 -0.21875,0.09375 -0.1875,0.09375 -0.1875,0.09375 -0.1875,0.09375 -0.15625,0.09375 -0.1875,0.09375 -0.125,0.125 -0.15625,0.09375 -0.125,0.125 -0.125,0.125 -0.125,0.125 -0.09375,0.125 -0.0625,0.125 -0.09375,0.125 -0.0625,0.125 -0.03125,0.15625 -0.03125,0.125 -0.03125,0.15625 0,0.125 c 0,0.149131 0.04894,0.29492 0.09375,0.4375 l 0.0625,-0.125 0.09375,-0.125 0.0625,-0.125 0.09375,-0.125 0.125,-0.125 0.125,-0.125 0.125,-0.125 0.15625,-0.09375 0.125,-0.125 0.1875,-0.09375 0.15625,-0.09375 0.1875,-0.09375 0.1875,-0.09375 0.1875,-0.09375 0.21875,-0.09375 0.21875,-0.0625 0.21875,-0.0625 0.21875,-0.09375 0.21875,-0.0625 0.25,-0.03125 0.25,-0.0625 0.25,-0.03125 0.25,-0.03125 0.28125,-0.03125 0.28125,-0.03125 0.25,-0.03125 0.28125,0 0.28125,0 c 2.676463,0 4.91245,0.962935 5.375,2.25 C -23.03634,30.590349 -23,30.418093 -23,30.25 c 0,-1.5239 -2.46008,-2.75 -5.46875,-2.75 l -0.28125,0 -0.28125,0 z"
         id="path4223" />
    </g>
  </g>
</svg>
