<?xml version="1.0" encoding="UTF-8" standalone="no"?>
<!-- Created with Inkscape (http://www.inkscape.org/) -->

<svg
   xmlns:dc="http://purl.org/dc/elements/1.1/"
   xmlns:cc="http://creativecommons.org/ns#"
   xmlns:rdf="http://www.w3.org/1999/02/22-rdf-syntax-ns#"
   xmlns:svg="http://www.w3.org/2000/svg"
   xmlns="http://www.w3.org/2000/svg"
   xmlns:xlink="http://www.w3.org/1999/xlink"
   xmlns:sodipodi="http://sodipodi.sourceforge.net/DTD/sodipodi-0.dtd"
   xmlns:inkscape="http://www.inkscape.org/namespaces/inkscape"
   version="1.1"
   width="48"
   height="48"
   id="svg3759"
   inkscape:version="0.48.4 r9939"
   sodipodi:docname="application-x-bittorent.svg"
   inkscape:export-filename="/home/sam/faba-internet-mail.png"
   inkscape:export-xdpi="90"
   inkscape:export-ydpi="90">
  <sodipodi:namedview
     pagecolor="#ffffff"
     bordercolor="#666666"
     borderopacity="1"
     objecttolerance="10"
     gridtolerance="10"
     guidetolerance="10"
     inkscape:pageopacity="0"
     inkscape:pageshadow="2"
     inkscape:window-width="1364"
     inkscape:window-height="700"
     id="namedview36"
     showgrid="false"
     showborder="false"
     inkscape:zoom="1"
     inkscape:cx="25.560909"
     inkscape:cy="23.129827"
     inkscape:window-x="0"
     inkscape:window-y="28"
     inkscape:window-maximized="1"
     inkscape:current-layer="layer2"
     inkscape:snap-bbox="true"
     inkscape:bbox-paths="true"
     inkscape:bbox-nodes="true"
     inkscape:snap-bbox-edge-midpoints="true"
     inkscape:snap-bbox-midpoints="true"
     showguides="true"
     inkscape:guide-bbox="true"
     inkscape:showpageshadow="true">
    <inkscape:grid
       type="xygrid"
       id="grid3818"
       empspacing="4"
       visible="true"
       enabled="true"
       snapvisiblegridlinesonly="true" />
  </sodipodi:namedview>
  <metadata
     id="metadata37">
    <rdf:RDF>
      <cc:Work
         rdf:about="">
        <dc:format>image/svg+xml</dc:format>
        <dc:type
           rdf:resource="http://purl.org/dc/dcmitype/StillImage" />
        <dc:title></dc:title>
      </cc:Work>
    </rdf:RDF>
  </metadata>
  <defs
     id="defs3761">
    <linearGradient
       id="linearGradient4880">
      <stop
         id="stop4882"
         offset="0"
         style="stop-color:#729fcf;stop-opacity:1;" />
      <stop
         id="stop4884"
         offset="1"
         style="stop-color:#3a77b9;stop-opacity:0.61" />
    </linearGradient>
    <linearGradient
       inkscape:collect="always"
       id="linearGradient3914">
      <stop
         style="stop-color:#ffffff;stop-opacity:1;"
         offset="0"
         id="stop3916" />
      <stop
         style="stop-color:#ffffff;stop-opacity:0;"
         offset="1"
         id="stop3918" />
    </linearGradient>
    <linearGradient
       id="linearGradient3960">
      <stop
         style="stop-color:#000000;stop-opacity:0;"
         offset="0"
         id="stop3962" />
      <stop
         id="stop3970"
         offset="0.5"
         style="stop-color:#000000;stop-opacity:1;" />
      <stop
         style="stop-color:#000000;stop-opacity:0;"
         offset="1"
         id="stop3964" />
    </linearGradient>
    <linearGradient
       inkscape:collect="always"
       id="linearGradient3952">
      <stop
         style="stop-color:#000000;stop-opacity:1;"
         offset="0"
         id="stop3954" />
      <stop
         style="stop-color:#000000;stop-opacity:0;"
         offset="1"
         id="stop3956" />
    </linearGradient>
    <linearGradient
       inkscape:collect="always"
       id="linearGradient3944">
      <stop
         style="stop-color:#000000;stop-opacity:1;"
         offset="0"
         id="stop3946" />
      <stop
         style="stop-color:#000000;stop-opacity:0;"
         offset="1"
         id="stop3948" />
    </linearGradient>
    <linearGradient
       id="linearGradient3988-5">
      <stop
         style="stop-color:#e8e8e8;stop-opacity:1;"
         offset="0"
         id="stop3990-5" />
      <stop
         style="stop-color:#f0f0f0;stop-opacity:1;"
         offset="1"
         id="stop3992-0" />
    </linearGradient>
    <linearGradient
       inkscape:collect="always"
       xlink:href="#linearGradient7742-6"
       id="linearGradient3142"
       gradientUnits="userSpaceOnUse"
       gradientTransform="matrix(-0.18046875,0,0,0.17948718,49.987521,-5.7308027)"
       x1="144.00006"
       y1="280.00018"
       x2="144.00006"
       y2="40.000172" />
    <linearGradient
       inkscape:collect="always"
       xlink:href="#linearGradient3914"
       id="linearGradient3920"
       x1="24"
       y1="0"
       x2="24"
       y2="48"
       gradientUnits="userSpaceOnUse" />
    <radialGradient
       inkscape:collect="always"
       xlink:href="#linearGradient3944"
       id="radialGradient3925"
       gradientUnits="userSpaceOnUse"
       gradientTransform="matrix(1,0,0,0.75,-1.0000003,10.875)"
       cx="9"
       cy="43.5"
       fx="9"
       fy="43.5"
       r="2" />
    <radialGradient
       inkscape:collect="always"
       xlink:href="#linearGradient3952"
       id="radialGradient3928"
       gradientUnits="userSpaceOnUse"
       gradientTransform="matrix(1,0,0,0.75,-3e-7,10.875)"
       cx="40"
       cy="43.5"
       fx="40"
       fy="43.5"
       r="2" />
    <linearGradient
       inkscape:collect="always"
       xlink:href="#linearGradient3960"
       id="linearGradient3931"
       gradientUnits="userSpaceOnUse"
       x1="25"
       y1="45"
       x2="25"
       y2="42"
       gradientTransform="matrix(1.0305144,0,0,1,-1.2476025,0)" />
    <radialGradient
       inkscape:collect="always"
       xlink:href="#linearGradient3944"
       id="radialGradient3934"
       gradientUnits="userSpaceOnUse"
       gradientTransform="matrix(1.0571429,0,0,1.25,-2.4000003,-10.875)"
       cx="9"
       cy="43.5"
       fx="9"
       fy="43.5"
       r="2" />
    <radialGradient
       inkscape:collect="always"
       xlink:href="#linearGradient3952"
       id="radialGradient3937"
       gradientUnits="userSpaceOnUse"
       gradientTransform="matrix(1.0571429,0,0,1.25,-1.4000003,-10.875)"
       cx="40"
       cy="43.5"
       fx="40"
       fy="43.5"
       r="2" />
    <linearGradient
       inkscape:collect="always"
       xlink:href="#linearGradient3960"
       id="linearGradient3940"
       gradientUnits="userSpaceOnUse"
       x1="25"
       y1="45"
       x2="25"
       y2="42"
       gradientTransform="matrix(1.0894009,0,0,1.6666667,-2.6903226,-29)" />
    <linearGradient
       id="linearGradient4689">
      <stop
         style="stop-color:#5a9fd4;stop-opacity:1"
         offset="0"
         id="stop4691" />
      <stop
         style="stop-color:#306998;stop-opacity:1"
         offset="1"
         id="stop4693" />
    </linearGradient>
    <linearGradient
       id="linearGradient4671">
      <stop
         style="stop-color:#ffec3b;stop-opacity:1;"
         offset="0"
         id="stop4673" />
      <stop
         style="stop-color:#ffe62e;stop-opacity:1;"
         offset="1"
         id="stop4675" />
    </linearGradient>
    <linearGradient
       id="linearGradient8085">
      <stop
         id="stop8087"
         offset="0"
         style="stop-color:#37a12e;stop-opacity:1;" />
      <stop
         id="stop8089"
         offset="1"
         style="stop-color:#54bc43;stop-opacity:1;" />
    </linearGradient>
    <linearGradient
       y2="-52"
       x2="816"
       y1="-92"
       x1="816"
       gradientTransform="translate(-784.11538,94.500053)"
       gradientUnits="userSpaceOnUse"
       id="linearGradient7127"
       xlink:href="#linearGradient5928"
       inkscape:collect="always" />
    <linearGradient
       id="linearGradient5928">
      <stop
         style="stop-color:#729fcf;stop-opacity:1;"
         offset="0"
         id="stop5930" />
      <stop
         style="stop-color:#3a77b9;stop-opacity:1;"
         offset="1"
         id="stop5932" />
    </linearGradient>
    <linearGradient
       inkscape:collect="always"
       xlink:href="#outerBackgroundGradient-3"
       id="linearGradient4688"
       gradientUnits="userSpaceOnUse"
       gradientTransform="matrix(0.18064516,0,0,0.17948718,-51.029053,-5.7308027)"
       x1="144.00006"
       y1="280.00018"
       x2="144.00006"
       y2="40.000172" />
    <linearGradient
       id="outerBackgroundGradient-3">
      <stop
         style="stop-color:#24ade7;stop-opacity:1;"
         offset="0"
         id="stop3864-8-6-9" />
      <stop
         style="stop-color:#52cbfe;stop-opacity:1;"
         offset="1"
         id="stop3866-9-1-9" />
    </linearGradient>
    <linearGradient
       inkscape:collect="always"
       xlink:href="#linearGradient7742"
       id="linearGradient4684"
       gradientUnits="userSpaceOnUse"
       gradientTransform="matrix(0.18064516,0,0,0.17948718,-51.029053,-5.7308027)"
       x1="144.00006"
       y1="280.00018"
       x2="144.00006"
       y2="40.000172" />
    <linearGradient
       id="linearGradient7742">
      <stop
         id="stop7744"
         offset="0"
         style="stop-color:#ffa622;stop-opacity:1;" />
      <stop
         id="stop7746"
         offset="1"
         style="stop-color:#ffbd52;stop-opacity:1;" />
    </linearGradient>
    <linearGradient
       inkscape:collect="always"
       xlink:href="#linearGradient3039"
       id="linearGradient4688-5"
       gradientUnits="userSpaceOnUse"
       gradientTransform="matrix(0.18064516,0,0,0.17948718,-51.029053,-5.7308027)"
       x1="144.00006"
       y1="280.00018"
       x2="144.00006"
       y2="40.000172" />
    <linearGradient
       id="linearGradient3039">
      <stop
         id="stop3041"
         offset="0"
         style="stop-color:#7767ad;stop-opacity:1" />
      <stop
         id="stop3043"
         offset="1"
         style="stop-color:#a594df;stop-opacity:1" />
    </linearGradient>
    <linearGradient
       inkscape:collect="always"
       xlink:href="#linearGradient3810"
       id="linearGradient3816"
       x1="24.5"
       y1="42"
       x2="24"
       y2="4"
       gradientUnits="userSpaceOnUse" />
    <linearGradient
       id="linearGradient3810">
      <stop
         style="stop-color:#ffe8e8;stop-opacity:1;"
         offset="0"
         id="stop3812" />
      <stop
         style="stop-color:#ffffff;stop-opacity:1;"
         offset="1"
         id="stop3814" />
    </linearGradient>
    <linearGradient
       inkscape:collect="always"
       xlink:href="#linearGradient4636"
       id="linearGradient4681"
       gradientUnits="userSpaceOnUse"
       gradientTransform="matrix(0,1,-1,0,89.907377,-11.623106)"
       x1="3"
       y1="25"
       x2="42"
       y2="24.5" />
    <linearGradient
       id="linearGradient4636"
       inkscape:collect="always">
      <stop
         id="stop4638"
         offset="0"
         style="stop-color:#ffffff;stop-opacity:1;" />
      <stop
         id="stop4640"
         offset="1"
         style="stop-color:#ffffff;stop-opacity:0.49803922" />
    </linearGradient>
    <linearGradient
       inkscape:collect="always"
       xlink:href="#linearGradient7742-6"
       id="linearGradient4684-4"
       gradientUnits="userSpaceOnUse"
       gradientTransform="matrix(0.18064516,0,0,0.17948718,-51.029053,-5.7308028)"
       x1="144.00006"
       y1="280.00018"
       x2="144.00006"
       y2="40.000172" />
    <linearGradient
       id="linearGradient7742-6">
      <stop
         id="stop7744-1"
         offset="0"
         style="stop-color:#ba1818;stop-opacity:1;" />
      <stop
         id="stop7746-9"
         offset="1"
         style="stop-color:#cc0000;stop-opacity:1;" />
    </linearGradient>
    <linearGradient
       y2="40.000172"
       x2="144.00006"
       y1="280.00018"
       x1="144.00006"
       gradientTransform="matrix(0.18064516,0,0,0.17948718,-88.22412,-37.799345)"
       gradientUnits="userSpaceOnUse"
       id="linearGradient4400"
       xlink:href="#linearGradient7742-6"
       inkscape:collect="always" />
    <clipPath
       clipPathUnits="userSpaceOnUse"
       id="clipPath5394">
      <path
         sodipodi:nodetypes="ccccc"
         inkscape:connector-curvature="0"
         id="path5396"
         d="m 41,3.5 -33,0 0,40 33,0 z"
         style="color:#bebebe;fill:url(#linearGradient5398);fill-opacity:1;fill-rule:nonzero;stroke:none;stroke-width:0;marker:none;visibility:visible;display:inline;overflow:visible;enable-background:accumulate" />
    </clipPath>
    <linearGradient
       inkscape:collect="always"
       xlink:href="#linearGradient7742-6"
       id="linearGradient5398"
       gradientUnits="userSpaceOnUse"
       gradientTransform="matrix(-0.18046875,0,0,0.17948718,50.487521,-5.7308027)"
       x1="144.00006"
       y1="280.00018"
       x2="144.00006"
       y2="40.000172" />
  </defs>
  <g
     inkscape:groupmode="layer"
     id="layer1"
     inkscape:label="Background">
    <g
       id="g3942">
      <rect
         style="opacity:0.12000002;fill:url(#linearGradient3940);fill-opacity:1;stroke:none"
         id="rect3985"
         width="33.771431"
         height="5"
         x="7.1142859"
         y="41" />
      <path
         style="opacity:0.12000002;fill:url(#radialGradient3937);fill-opacity:1;stroke:none"
         d="m 40.885716,41.000001 0,5 0.528571,0 c 0.878486,0 1.585715,-1.115 1.585715,-2.5 0,-1.385 -0.707229,-2.5 -1.585715,-2.5 l -0.528571,0 z"
         id="path3987"
         inkscape:connector-curvature="0" />
      <path
         style="opacity:0.12000002;fill:url(#radialGradient3934);fill-opacity:1;stroke:none"
         d="M 6.4866072,41.000001 C 5.6630268,41.000001 5,42.045313 5,43.343751 l 0,0.3125 c 0,1.298439 0.6630268,2.34375 1.4866072,2.34375 l 0.6276786,0 0,-5 -0.6276786,0 z"
         id="path3989"
         inkscape:connector-curvature="0" />
      <rect
         y="42"
         x="8.0270262"
         height="3"
         width="31.945946"
         id="rect3938"
         style="opacity:0.12000002;fill:url(#linearGradient3931);fill-opacity:1;stroke:none" />
      <path
         id="rect3940"
         d="m 40,42 0,3 0.5,0 C 41.331,45 42,44.331 42,43.5 42,42.669 41.331,42 40.5,42 L 40,42 z"
         style="opacity:0.12000002;fill:url(#radialGradient3928);fill-opacity:1;stroke:none"
         inkscape:connector-curvature="0" />
      <path
         id="rect3942"
         d="m 7.4062497,42 c -0.7790625,0 -1.40625,0.627187 -1.40625,1.40625 l 0,0.1875 c 0,0.779063 0.6271875,1.40625 1.40625,1.40625 l 0.59375,0 0,-3 -0.59375,0 z"
         style="opacity:0.12000002;fill:url(#radialGradient3925);fill-opacity:1;stroke:none"
         inkscape:connector-curvature="0" />
    </g>
    <path
       style="color:#bebebe;fill:url(#linearGradient3142);fill-opacity:1.0;fill-rule:nonzero;stroke:none;stroke-width:0;marker:none;visibility:visible;display:inline;overflow:visible;enable-background:accumulate"
       d="m 40.5,3.5 -33,0 0,40 33,0 z"
       id="rect3882"
       inkscape:connector-curvature="0"
       sodipodi:nodetypes="ccccc" />
    <path
       id="path3893"
       d="M 40,4 8,4 8,43 40,43 z M 39,5 39,42 9,42 9,5 z"
       style="opacity:0.2;fill:url(#linearGradient3920);fill-opacity:1;stroke:none"
       inkscape:connector-curvature="0"
       sodipodi:nodetypes="cccccccccc" />
    <rect
       style="opacity:0.2;fill:#ffffff;fill-opacity:1;stroke:none;stroke-width:1;stroke-linecap:square;stroke-miterlimit:4;stroke-opacity:1;stroke-dasharray:none"
       id="rect3144"
       width="32"
       height="1"
       x="8"
       y="4" />
    <rect
       y="42"
       x="8"
       height="1"
       width="32"
       id="rect3922"
       style="opacity:0.1;fill:#ffffff;fill-opacity:1;stroke:none" />
    <path
       sodipodi:nodetypes="ccccc"
       inkscape:connector-curvature="0"
       id="path4870"
       d="m 40.5,3.5 -33,0 0,40 33,0 z"
       style="color:#bebebe;fill:none;fill-opacity:1;fill-rule:nonzero;stroke:#450000;stroke-width:1;marker:none;visibility:visible;display:inline;overflow:visible;enable-background:accumulate;stroke-opacity:1;stroke-miterlimit:4;stroke-dasharray:none;opacity:0.60999999999999999" />
  </g>
  <g
     inkscape:groupmode="layer"
     id="layer2"
     inkscape:label="Symbol">
    <g
       transform="translate(-0.5,0)"
       id="g3830"
       clip-path="url(#clipPath5394)">
      <path
         transform="translate(0,1)"
         inkscape:connector-curvature="0"
         style="opacity:0.3;color:#bebebe;fill:#000000;fill-opacity:1;fill-rule:nonzero;stroke:none;stroke-width:1;marker:none;visibility:visible;display:inline;overflow:visible;enable-background:accumulate"
         d="m 21.194649,1.5172052 c -1.060938,0 -2.053033,0.5192773 -2.293007,1.3763306 -0.891344,3.2856863 0.106355,8.3671192 1.769945,14.6985082 l -0.501923,1.225754 C 18.895809,21.923049 17.303456,25.015619 15.903299,27.76 10.122228,39.071339 5.6248281,45.174515 2.6260355,45.602148 l -0.010559,-0.124169 c -0.064923,-1.410977 2.5387612,-5.048657 6.068028,-7.940991 0.3680839,-0.297714 1.9390155,-1.817502 1.9390155,-1.817502 0,0 -2.1204646,1.119347 -2.5968051,1.408029 -4.4224092,2.639741 -6.6229867,5.284574 -6.9820586,7.040175 -0.10644824,0.521452 -0.037427,1.1631 0.4226773,1.426533 l 1.1306593,0.567964 c 3.0781844,1.540896 6.8633685,-2.510753 11.8956331,-11.330313 5.120699,-1.679826 11.50986,-3.26138 17.32701,-4.118433 5.207295,2.975343 11.18028,4.391955 13.475398,3.780291 0.436645,-0.115481 0.896091,-0.458265 1.130649,-0.774013 0.184042,-0.2905 0.441172,-1.452952 0.441172,-1.452952 0,0 -0.431784,0.587598 -0.787238,0.760809 -1.452482,0.685651 -6.03817,-0.458265 -10.743856,-2.760586 4.068764,-0.433038 7.458232,-0.449744 9.269775,0.129448 2.300523,0.734359 2.302551,1.487128 2.271878,1.640496 0.03063,-0.126291 0.134152,-0.630628 0.121523,-0.845344 -0.05227,-0.552125 -0.222493,-1.045162 -0.639295,-1.452941 -0.851638,-0.83902 -2.954424,-1.261833 -5.819701,-1.29972 -2.159784,-0.02352 -4.749449,0.1656 -7.560582,0.567964 -1.288304,-0.739774 -2.647635,-1.553012 -3.724819,-2.559827 -2.731753,-2.551307 -5.02133,-6.09361 -6.443148,-10.064927 0.09744,-0.380713 0.189938,-0.752717 0.274735,-1.128014 0.395151,-1.777263 0.678918,-7.6530427 0.678918,-7.6530427 0,0 -1.125536,4.4142137 -1.302364,5.0800117 -0.113662,0.422207 -0.254997,0.872871 -0.417388,1.341987 -0.862458,-3.031264 -1.299719,-5.9688882 -1.299719,-8.197233 0,-0.6297192 0.05384,-1.8550757 0.232467,-2.8240031 0.08667,-0.691056 0.337201,-1.0498874 0.597028,-1.2231088 0.514227,0.1244928 1.089865,0.9132778 1.690699,2.2322444 0.516036,1.1403401 0.483428,2.4610107 0.483428,3.2783681 0,0 0.553433,-2.0239793 0.425323,-3.2202409 -0.07768,-0.7181332 -0.761269,-2.5656189 -2.213761,-2.543978 l -0.118868,0 -0.64722,-0.00732 z m 0.493998,18.3519958 c 1.503008,3.022253 3.576093,5.892277 6.295205,8.194598 0.606249,0.512429 1.251253,0.999935 1.915252,1.458221 -4.938445,0.918411 -10.124831,2.210352 -14.944178,4.229387 0.87148,-1.548109 1.813759,-3.234836 2.779079,-5.053603 1.869284,-3.534671 3.001961,-6.261039 3.954642,-8.828603 z"
         id="path3820"
         clip-path="none" />
      <path
         clip-path="none"
         id="rect3037"
         d="m 21.194649,1.5172052 c -1.060938,0 -2.053033,0.5192773 -2.293007,1.3763306 -0.891344,3.2856863 0.106355,8.3671192 1.769945,14.6985082 l -0.501923,1.225754 C 18.895809,21.923049 17.303456,25.015619 15.903299,27.76 10.122228,39.071339 5.6248281,45.174515 2.6260355,45.602148 l -0.010559,-0.124169 c -0.064923,-1.410977 2.5387612,-5.048657 6.068028,-7.940991 0.3680839,-0.297714 1.9390155,-1.817502 1.9390155,-1.817502 0,0 -2.1204646,1.119347 -2.5968051,1.408029 -4.4224092,2.639741 -6.6229867,5.284574 -6.9820586,7.040175 -0.10644824,0.521452 -0.037427,1.1631 0.4226773,1.426533 l 1.1306593,0.567964 c 3.0781844,1.540896 6.8633685,-2.510753 11.8956331,-11.330313 5.120699,-1.679826 11.50986,-3.26138 17.32701,-4.118433 5.207295,2.975343 11.18028,4.391955 13.475398,3.780291 0.436645,-0.115481 0.896091,-0.458265 1.130649,-0.774013 0.184042,-0.2905 0.441172,-1.452952 0.441172,-1.452952 0,0 -0.431784,0.587598 -0.787238,0.760809 -1.452482,0.685651 -6.03817,-0.458265 -10.743856,-2.760586 4.068764,-0.433038 7.458232,-0.449744 9.269775,0.129448 2.300523,0.734359 2.302551,1.487128 2.271878,1.640496 0.03063,-0.126291 0.134152,-0.630628 0.121523,-0.845344 -0.05227,-0.552125 -0.222493,-1.045162 -0.639295,-1.452941 -0.851638,-0.83902 -2.954424,-1.261833 -5.819701,-1.29972 -2.159784,-0.02352 -4.749449,0.1656 -7.560582,0.567964 -1.288304,-0.739774 -2.647635,-1.553012 -3.724819,-2.559827 -2.731753,-2.551307 -5.02133,-6.09361 -6.443148,-10.064927 0.09744,-0.380713 0.189938,-0.752717 0.274735,-1.128014 0.395151,-1.777263 0.678918,-7.6530427 0.678918,-7.6530427 0,0 -1.125536,4.4142137 -1.302364,5.0800117 -0.113662,0.422207 -0.254997,0.872871 -0.417388,1.341987 -0.862458,-3.031264 -1.299719,-5.9688882 -1.299719,-8.197233 0,-0.6297192 0.05384,-1.8550757 0.232467,-2.8240031 0.08667,-0.691056 0.337201,-1.0498874 0.597028,-1.2231088 0.514227,0.1244928 1.089865,0.9132778 1.690699,2.2322444 0.516036,1.1403401 0.483428,2.4610107 0.483428,3.2783681 0,0 0.553433,-2.0239793 0.425323,-3.2202409 -0.07768,-0.7181332 -0.761269,-2.5656189 -2.213761,-2.543978 l -0.118868,0 -0.64722,-0.00732 z m 0.493998,18.3519958 c 1.503008,3.022253 3.576093,5.892277 6.295205,8.194598 0.606249,0.512429 1.251253,0.999935 1.915252,1.458221 -4.938445,0.918411 -10.124831,2.210352 -14.944178,4.229387 0.87148,-1.548109 1.813759,-3.234836 2.779079,-5.053603 1.869284,-3.534671 3.001961,-6.261039 3.954642,-8.828603 z"
         style="color:#bebebe;fill:url(#linearGradient3816);fill-opacity:1;fill-rule:nonzero;stroke:none;stroke-width:1;marker:none;visibility:visible;display:inline;overflow:visible;enable-background:accumulate"
         inkscape:connector-curvature="0" />
      <path
         inkscape:connector-curvature="0"
         id="path3825"
         d="m 21.1875,1.53125 c -1.060938,0 -2.041276,0.5179467 -2.28125,1.375 -0.265708,0.9794573 -0.350121,2.1221013 -0.3125,3.40625 0.02741,-0.8815246 0.118146,-1.6898208 0.3125,-2.40625 0.229821,-0.8207934 1.146948,-1.3019812 2.15625,-1.34375 0.0025,-0.00871 -0.0025,-0.022691 0,-0.03125 0.119205,-0.4005803 0.30513,-0.6200839 0.5,-0.75 0.28585,0.069203 0.588668,0.3557934 0.90625,0.8125 1.061249,0.3351366 1.586803,1.708805 1.6875,2.375 C 24.182858,4.6457741 24.216537,4.3336371 24.1875,4.0625 24.10982,3.3443668 23.421242,1.5096091 21.96875,1.53125 l -0.125,0 -0.65625,0 z M 20.75,6.21875 c -0.0067,0.1991245 0,0.4479262 0,0.59375 0,2.2283448 0.418792,5.187486 1.28125,8.21875 0.162391,-0.469116 0.323838,-0.921543 0.4375,-1.34375 0.166112,-0.625449 1.097754,-4.3068159 1.21875,-4.78125 0.02295,-0.4178558 0.0625,-1.3125 0.0625,-1.3125 0,0 -1.104422,4.427952 -1.28125,5.09375 -0.113662,0.422207 -0.275109,0.874634 -0.4375,1.34375 C 21.217062,11.16964 20.79617,8.3955087 20.75,6.21875 z m 2.21875,10.5625 c -0.04841,0.198453 -0.104664,0.392196 -0.15625,0.59375 1.421818,3.971317 3.705747,7.511193 6.4375,10.0625 1.077184,1.006815 2.430446,1.822726 3.71875,2.5625 2.811133,-0.402364 5.402716,-0.58602 7.5625,-0.5625 2.865277,0.03789 4.992112,0.47348 5.84375,1.3125 0.312601,0.305834 0.473036,0.640541 0.5625,1.03125 C 46.976313,31.578492 47.008419,31.330644 47,31.1875 46.94773,30.635375 46.791802,30.157779 46.375,29.75 45.523362,28.91098 43.396527,28.475387 40.53125,28.4375 38.371466,28.41398 35.779883,28.597636 32.96875,29 31.680446,28.260226 30.327184,27.444315 29.25,26.4375 26.612748,23.974451 24.398851,20.585881 22.96875,16.78125 z M 20.5,17.96875 20.15625,18.8125 c -1.273855,3.105251 -2.849843,6.193119 -4.25,8.9375 C 10.25648,38.804434 5.8408523,44.892862 2.84375,45.5625 2.761913,45.777001 2.654725,45.981399 2.625,46.15625 c -0.00153,0.009 0.00138,0.02238 0,0.03125 0.2414616,0.117182 0.4995838,0.169707 0.75,0.21875 2.9789894,-1.212327 7.203869,-7.232608 12.53125,-17.65625 1.400157,-2.744381 2.976145,-5.832249 4.25,-8.9375 l 0.5,-1.21875 C 20.598394,18.37356 20.556193,18.185894 20.5,17.96875 z M 28.8125,29.75 C 24.440382,30.607272 19.924216,31.753271 15.65625,33.46875 15.439012,33.857411 15.209794,34.314742 15,34.6875 15.182506,34.628751 15.377087,34.558431 15.5625,34.5 20.210901,32.621324 25.171724,31.411738 29.90625,30.53125 29.54321,30.280683 29.160954,30.017334 28.8125,29.75 z m 8.40625,1.375 c -0.617007,0.04742 -1.218898,0.08642 -1.875,0.15625 4.705686,2.302321 9.297518,3.435651 10.75,2.75 0.07642,-0.03724 0.140321,-0.09066 0.21875,-0.15625 0.05267,-0.04405 0.07523,-0.106925 0.125,-0.15625 0.126112,-0.19906 0.255249,-0.699164 0.34375,-1.0625 -0.02639,-0.04358 -0.0534,-0.107792 -0.09375,-0.15625 -0.155284,0.187366 -0.360054,0.417371 -0.59375,0.53125 -1.257114,0.593426 -4.877381,-0.193826 -8.875,-1.90625 z M 10.625,35.71875 c 0,0 -2.1174095,1.117568 -2.59375,1.40625 -4.4224092,2.639741 -6.6409281,5.275649 -7,7.03125 -0.0596803,0.292353 -0.0573775,0.62617 0.03125,0.90625 0.4125518,-1.744825 2.6105235,-4.295779 6.90625,-6.875 0.02191,-0.01929 0.040503,-0.04325 0.0625,-0.0625 0.2206855,-0.193095 0.4272982,-0.406117 0.65625,-0.59375 0.3680839,-0.297714 1.9375,-1.8125 1.9375,-1.8125 z"
         clip-path="none"
         style="color:#bebebe;fill:#ffffff;fill-opacity:1;fill-rule:nonzero;stroke:none;stroke-width:1;marker:none;visibility:visible;display:inline;overflow:visible;enable-background:accumulate" />
    </g>
  </g>
</svg>
