<?xml version="1.0" encoding="UTF-8" standalone="no"?>
<!-- Created with Inkscape (http://www.inkscape.org/) -->

<svg
   xmlns:dc="http://purl.org/dc/elements/1.1/"
   xmlns:cc="http://creativecommons.org/ns#"
   xmlns:rdf="http://www.w3.org/1999/02/22-rdf-syntax-ns#"
   xmlns:svg="http://www.w3.org/2000/svg"
   xmlns="http://www.w3.org/2000/svg"
   xmlns:xlink="http://www.w3.org/1999/xlink"
   xmlns:sodipodi="http://sodipodi.sourceforge.net/DTD/sodipodi-0.dtd"
   xmlns:inkscape="http://www.inkscape.org/namespaces/inkscape"
   version="1.1"
   width="48"
   height="48"
   id="svg3759"
   inkscape:version="0.48.4 r9939"
   sodipodi:docname="application-x-desktop.svg">
  <sodipodi:namedview
     pagecolor="#ffffff"
     bordercolor="#666666"
     borderopacity="1"
     objecttolerance="10"
     gridtolerance="10"
     guidetolerance="10"
     inkscape:pageopacity="0"
     inkscape:pageshadow="2"
     inkscape:window-width="1364"
     inkscape:window-height="700"
     id="namedview36"
     showgrid="false"
     showborder="false"
     inkscape:zoom="1"
     inkscape:cx="31.352369"
     inkscape:cy="15.790647"
     inkscape:window-x="0"
     inkscape:window-y="28"
     inkscape:window-maximized="1"
     inkscape:current-layer="layer2"
     inkscape:snap-bbox="true"
     inkscape:bbox-paths="true"
     inkscape:bbox-nodes="true"
     inkscape:snap-bbox-edge-midpoints="true"
     inkscape:snap-bbox-midpoints="true">
    <inkscape:grid
       type="xygrid"
       id="grid3818"
       empspacing="4"
       visible="true"
       enabled="true"
       snapvisiblegridlinesonly="true" />
  </sodipodi:namedview>
  <metadata
     id="metadata37">
    <rdf:RDF>
      <cc:Work
         rdf:about="">
        <dc:format>image/svg+xml</dc:format>
        <dc:type
           rdf:resource="http://purl.org/dc/dcmitype/StillImage" />
        <dc:title></dc:title>
      </cc:Work>
    </rdf:RDF>
  </metadata>
  <defs
     id="defs3761">
    <linearGradient
       id="linearGradient4566">
      <stop
         id="stop4568"
         offset="0"
         style="stop-color:#3f3f3f;stop-opacity:1;" />
      <stop
         id="stop4570"
         offset="1"
         style="stop-color:#625c5c;stop-opacity:1;" />
    </linearGradient>
    <linearGradient
       inkscape:collect="always"
       id="linearGradient4149">
      <stop
         style="stop-color:#ffffff;stop-opacity:1;"
         offset="0"
         id="stop4151" />
      <stop
         style="stop-color:#ffffff;stop-opacity:0;"
         offset="1"
         id="stop4153" />
    </linearGradient>
    <linearGradient
       id="linearGradient4127">
      <stop
         id="stop4129"
         offset="0"
         style="stop-color:#8f2b12;stop-opacity:1;" />
      <stop
         id="stop4131"
         offset="1"
         style="stop-color:#82461a;stop-opacity:1;" />
    </linearGradient>
    <linearGradient
       inkscape:collect="always"
       xlink:href="#linearGradient4134"
       id="linearGradient4140"
       x1="789"
       y1="256"
       x2="827"
       y2="256"
       gradientUnits="userSpaceOnUse" />
    <linearGradient
       inkscape:collect="always"
       id="linearGradient4134">
      <stop
         style="stop-color:#ffffff;stop-opacity:1;"
         offset="0"
         id="stop4136" />
      <stop
         style="stop-color:#ffffff;stop-opacity:0;"
         offset="1"
         id="stop4138" />
    </linearGradient>
    <clipPath
       clipPathUnits="userSpaceOnUse"
       id="clipPath4130">
      <path
         id="path4132"
         d="M 790.4375,237 C 789.62555,237 789,237.62555 789,238.4375 l 0,35.09375 c 0,0.812 0.62555,1.46875 1.4375,1.46875 l 35.125,0 c 0.81195,0 1.4375,-0.65675 1.4375,-1.46875 l 0,-35.09375 C 827,237.62555 826.37445,237 825.5625,237 l -35.125,0 z"
         style="fill:#ba2222;fill-opacity:1;stroke:none"
         inkscape:connector-curvature="0" />
    </clipPath>
    <linearGradient
       inkscape:collect="always"
       xlink:href="#linearGradient5618"
       id="linearGradient4083"
       x1="-1023.8622"
       y1="-808"
       x2="-984.86218"
       y2="-808"
       gradientUnits="userSpaceOnUse"
       gradientTransform="translate(980.3622,784)" />
    <linearGradient
       id="linearGradient5618">
      <stop
         style="stop-color:#3e3e3e;stop-opacity:1;"
         offset="0"
         id="stop5620" />
      <stop
         style="stop-color:#595959;stop-opacity:1;"
         offset="1"
         id="stop5622" />
    </linearGradient>
    <linearGradient
       inkscape:collect="always"
       xlink:href="#linearGradient3934"
       id="linearGradient3998"
       gradientUnits="userSpaceOnUse"
       gradientTransform="matrix(0,-1,1,0,68,556)"
       x1="292"
       y1="244"
       x2="332"
       y2="244" />
    <linearGradient
       id="linearGradient3934">
      <stop
         style="stop-color:#dd2f03;stop-opacity:1;"
         offset="0"
         id="stop3936" />
      <stop
         style="stop-color:#e96300;stop-opacity:1;"
         offset="1"
         id="stop3938" />
    </linearGradient>
    <linearGradient
       y2="244"
       x2="332"
       y1="244"
       x1="292"
       gradientTransform="matrix(0,-1,1,0,65,302)"
       gradientUnits="userSpaceOnUse"
       id="linearGradient3177"
       xlink:href="#linearGradient3934"
       inkscape:collect="always" />
    <linearGradient
       inkscape:collect="always"
       xlink:href="#linearGradient3934"
       id="linearGradient4117"
       gradientUnits="userSpaceOnUse"
       gradientTransform="translate(980.3622,784)"
       x1="-1023.8622"
       y1="-808"
       x2="-984.86218"
       y2="-808" />
    <linearGradient
       inkscape:collect="always"
       xlink:href="#linearGradient4149"
       id="linearGradient4155"
       x1="24"
       y1="43.5"
       x2="37"
       y2="23.375"
       gradientUnits="userSpaceOnUse" />
    <linearGradient
       inkscape:collect="always"
       xlink:href="#outerBackgroundGradient-0"
       id="linearGradient3998-0"
       gradientUnits="userSpaceOnUse"
       gradientTransform="matrix(0,-1,1,0,68,556)"
       x1="292"
       y1="244"
       x2="332"
       y2="244" />
    <linearGradient
       id="outerBackgroundGradient-0">
      <stop
         style="stop-color:#dddddd;stop-opacity:1;"
         offset="0"
         id="stop3864-8-6-9" />
      <stop
         style="stop-color:#f2f2f2;stop-opacity:1;"
         offset="1"
         id="stop3866-9-1-5" />
    </linearGradient>
    <linearGradient
       inkscape:collect="always"
       xlink:href="#linearGradient4100"
       id="linearGradient4898"
       gradientUnits="userSpaceOnUse"
       x1="328"
       y1="235"
       x2="328"
       y2="277"
       gradientTransform="translate(-3.5,-3.5)" />
    <linearGradient
       id="linearGradient4100">
      <stop
         id="stop4102"
         offset="0"
         style="stop-color:#aaaaaa;stop-opacity:1;" />
      <stop
         id="stop4104"
         offset="1"
         style="stop-color:#767676;stop-opacity:1;" />
    </linearGradient>
    <linearGradient
       inkscape:collect="always"
       xlink:href="#linearGradient4084"
       id="linearGradient4900"
       gradientUnits="userSpaceOnUse"
       x1="324"
       y1="231"
       x2="324"
       y2="273"
       gradientTransform="translate(-3.5,-3.5)" />
    <linearGradient
       id="linearGradient4084">
      <stop
         style="stop-color:#cd5fc2;stop-opacity:1;"
         offset="0"
         id="stop4086" />
      <stop
         style="stop-color:#9a4993;stop-opacity:1;"
         offset="1"
         id="stop4088" />
    </linearGradient>
    <linearGradient
       inkscape:collect="always"
       xlink:href="#linearGradient3413"
       id="linearGradient4902"
       gradientUnits="userSpaceOnUse"
       x1="328"
       y1="273"
       x2="328"
       y2="231"
       gradientTransform="translate(-3.5,-3.5)" />
    <linearGradient
       id="outerBackgroundGradient-7">
      <stop
         style="stop-color:#717171;stop-opacity:1;"
         offset="0"
         id="stop3864-8-6-3" />
      <stop
         style="stop-color:#848484;stop-opacity:1;"
         offset="1"
         id="stop3866-9-1-2" />
    </linearGradient>
    <linearGradient
       inkscape:collect="always"
       xlink:href="#linearGradient3413"
       id="linearGradient4904"
       gradientUnits="userSpaceOnUse"
       x1="336"
       y1="273"
       x2="336"
       y2="231"
       gradientTransform="translate(-3.5,-3.5)" />
    <linearGradient
       id="linearGradient3413">
      <stop
         style="stop-color:#dddddd;stop-opacity:1;"
         offset="0"
         id="stop3415" />
      <stop
         style="stop-color:#f2f2f2;stop-opacity:1;"
         offset="1"
         id="stop3417" />
    </linearGradient>
    <clipPath
       clipPathUnits="userSpaceOnUse"
       id="clipPath4068">
      <rect
         ry="4.5"
         y="259"
         x="316"
         height="9"
         width="24"
         id="rect4070"
         style="color:#bebebe;fill:#525252;fill-opacity:1;fill-rule:nonzero;stroke:none;stroke-width:1;marker:none;visibility:visible;display:inline;overflow:visible;enable-background:accumulate" />
    </clipPath>
    <clipPath
       clipPathUnits="userSpaceOnUse"
       id="clipPath4060">
      <rect
         style="color:#bebebe;fill:#525252;fill-opacity:1;fill-rule:nonzero;stroke:none;stroke-width:1;marker:none;visibility:visible;display:inline;overflow:visible;enable-background:accumulate"
         id="rect4062"
         width="24"
         height="9"
         x="316"
         y="240"
         ry="4.5" />
    </clipPath>
    <clipPath
       clipPathUnits="userSpaceOnUse"
       id="clipPath3423">
      <rect
         style="color:#bebebe;fill:#525252;fill-opacity:1;fill-rule:nonzero;stroke:none;stroke-width:1;marker:none;visibility:visible;display:inline;overflow:visible;enable-background:accumulate"
         id="rect3425"
         width="24"
         height="9"
         x="316"
         y="240"
         ry="4.5" />
    </clipPath>
    <clipPath
       clipPathUnits="userSpaceOnUse"
       id="clipPath3427">
      <rect
         ry="4.5"
         y="259"
         x="316"
         height="9"
         width="24"
         id="rect3429"
         style="color:#bebebe;fill:#525252;fill-opacity:1;fill-rule:nonzero;stroke:none;stroke-width:1;marker:none;visibility:visible;display:inline;overflow:visible;enable-background:accumulate" />
    </clipPath>
    <clipPath
       clipPathUnits="userSpaceOnUse"
       id="clipPath3431">
      <rect
         ry="4.5"
         y="259"
         x="316"
         height="9"
         width="24"
         id="rect3433"
         style="color:#bebebe;fill:#525252;fill-opacity:1;fill-rule:nonzero;stroke:none;stroke-width:1;marker:none;visibility:visible;display:inline;overflow:visible;enable-background:accumulate" />
    </clipPath>
    <clipPath
       clipPathUnits="userSpaceOnUse"
       id="clipPath3435">
      <rect
         style="color:#bebebe;fill:#525252;fill-opacity:1;fill-rule:nonzero;stroke:none;stroke-width:1;marker:none;visibility:visible;display:inline;overflow:visible;enable-background:accumulate"
         id="rect3437"
         width="24"
         height="9"
         x="316"
         y="240"
         ry="4.5" />
    </clipPath>
    <clipPath
       clipPathUnits="userSpaceOnUse"
       id="clipPath3439">
      <rect
         style="color:#bebebe;fill:#525252;fill-opacity:1;fill-rule:nonzero;stroke:none;stroke-width:1;marker:none;visibility:visible;display:inline;overflow:visible;enable-background:accumulate"
         id="rect3441"
         width="24"
         height="9"
         x="316"
         y="240"
         ry="4.5" />
    </clipPath>
    <clipPath
       clipPathUnits="userSpaceOnUse"
       id="clipPath3443">
      <rect
         ry="4.5"
         y="259"
         x="316"
         height="9"
         width="24"
         id="rect3445"
         style="color:#bebebe;fill:#525252;fill-opacity:1;fill-rule:nonzero;stroke:none;stroke-width:1;marker:none;visibility:visible;display:inline;overflow:visible;enable-background:accumulate" />
    </clipPath>
    <linearGradient
       y2="244"
       x2="332"
       y1="244"
       x1="292"
       gradientTransform="matrix(0,-1,1,0,-223.5,332.5)"
       gradientUnits="userSpaceOnUse"
       id="linearGradient3470"
       xlink:href="#outerBackgroundGradient-0"
       inkscape:collect="always" />
    <linearGradient
       inkscape:collect="always"
       xlink:href="#linearGradient3413"
       id="linearGradient4564"
       gradientUnits="userSpaceOnUse"
       gradientTransform="translate(980.3622,784)"
       x1="-1023.8622"
       y1="-808"
       x2="-984.86218"
       y2="-808" />
    <linearGradient
       inkscape:collect="always"
       xlink:href="#linearGradient4100"
       id="linearGradient4629"
       gradientUnits="userSpaceOnUse"
       gradientTransform="translate(-3.5,-3.5)"
       x1="328"
       y1="235"
       x2="328"
       y2="277" />
    <linearGradient
       inkscape:collect="always"
       xlink:href="#linearGradient4084"
       id="linearGradient4631"
       gradientUnits="userSpaceOnUse"
       gradientTransform="translate(-3.5,-3.5)"
       x1="324"
       y1="231"
       x2="324"
       y2="273" />
    <linearGradient
       inkscape:collect="always"
       xlink:href="#linearGradient3413"
       id="linearGradient4633"
       gradientUnits="userSpaceOnUse"
       gradientTransform="translate(-3.5,-3.5)"
       x1="328"
       y1="273"
       x2="328"
       y2="231" />
    <linearGradient
       inkscape:collect="always"
       xlink:href="#linearGradient3413"
       id="linearGradient4635"
       gradientUnits="userSpaceOnUse"
       gradientTransform="translate(-3.5,-3.5)"
       x1="336"
       y1="273"
       x2="336"
       y2="231" />
    <linearGradient
       inkscape:collect="always"
       xlink:href="#linearGradient3413"
       id="linearGradient4642"
       gradientUnits="userSpaceOnUse"
       gradientTransform="translate(-307.5,-231.5)"
       x1="336"
       y1="273"
       x2="336"
       y2="231" />
    <linearGradient
       inkscape:collect="always"
       xlink:href="#linearGradient4100"
       id="linearGradient4669"
       gradientUnits="userSpaceOnUse"
       gradientTransform="translate(-307.5,-235.5)"
       x1="328"
       y1="235"
       x2="328"
       y2="277" />
    <linearGradient
       inkscape:collect="always"
       xlink:href="#linearGradient3988-5"
       id="linearGradient3877"
       gradientUnits="userSpaceOnUse"
       gradientTransform="matrix(0,-1,-1,0,-784,-980.3622)"
       x1="-1023.8622"
       y1="-808"
       x2="-984.86218"
       y2="-808" />
    <linearGradient
       inkscape:collect="always"
       xlink:href="#linearGradient3988-5"
       id="linearGradient3158"
       gradientUnits="userSpaceOnUse"
       gradientTransform="matrix(0.175,0,0,0.175,-1.20002,-6.0000326)"
       x1="144.00006"
       y1="280.00018"
       x2="144.00006"
       y2="40.000172" />
    <linearGradient
       id="linearGradient3988-5">
      <stop
         style="stop-color:#ededed;stop-opacity:1;"
         offset="0"
         id="stop3990-5" />
      <stop
         style="stop-color:#fafafa;stop-opacity:1;"
         offset="1"
         id="stop3992-0" />
    </linearGradient>
    <linearGradient
       inkscape:collect="always"
       xlink:href="#linearGradient3960"
       id="linearGradient3968"
       x1="25"
       y1="45"
       x2="25"
       y2="42"
       gradientUnits="userSpaceOnUse" />
    <linearGradient
       id="linearGradient3960">
      <stop
         style="stop-color:#000000;stop-opacity:0;"
         offset="0"
         id="stop3962" />
      <stop
         id="stop3970"
         offset="0.5"
         style="stop-color:#000000;stop-opacity:1;" />
      <stop
         style="stop-color:#000000;stop-opacity:0;"
         offset="1"
         id="stop3964" />
    </linearGradient>
    <radialGradient
       inkscape:collect="always"
       xlink:href="#linearGradient3952"
       id="radialGradient3958"
       cx="40"
       cy="43.5"
       fx="40"
       fy="43.5"
       r="2"
       gradientTransform="matrix(1,0,0,0.75,0,10.875)"
       gradientUnits="userSpaceOnUse" />
    <linearGradient
       inkscape:collect="always"
       id="linearGradient3952">
      <stop
         style="stop-color:#000000;stop-opacity:1;"
         offset="0"
         id="stop3954" />
      <stop
         style="stop-color:#000000;stop-opacity:0;"
         offset="1"
         id="stop3956" />
    </linearGradient>
    <radialGradient
       inkscape:collect="always"
       xlink:href="#linearGradient3944"
       id="radialGradient3950"
       cx="9"
       cy="43.5"
       fx="9"
       fy="43.5"
       r="2"
       gradientTransform="matrix(1,0,0,0.75,0,10.875)"
       gradientUnits="userSpaceOnUse" />
    <linearGradient
       inkscape:collect="always"
       id="linearGradient3944">
      <stop
         style="stop-color:#000000;stop-opacity:1;"
         offset="0"
         id="stop3946" />
      <stop
         style="stop-color:#000000;stop-opacity:0;"
         offset="1"
         id="stop3948" />
    </linearGradient>
    <linearGradient
       inkscape:collect="always"
       xlink:href="#linearGradient3960"
       id="linearGradient3997"
       gradientUnits="userSpaceOnUse"
       x1="25"
       y1="45"
       x2="25"
       y2="42" />
    <linearGradient
       id="linearGradient5142">
      <stop
         style="stop-color:#000000;stop-opacity:0;"
         offset="0"
         id="stop5144" />
      <stop
         id="stop5146"
         offset="0.5"
         style="stop-color:#000000;stop-opacity:1;" />
      <stop
         style="stop-color:#000000;stop-opacity:0;"
         offset="1"
         id="stop5148" />
    </linearGradient>
    <radialGradient
       inkscape:collect="always"
       xlink:href="#linearGradient3952"
       id="radialGradient3999"
       gradientUnits="userSpaceOnUse"
       gradientTransform="matrix(1,0,0,0.75,0,10.875)"
       cx="40"
       cy="43.5"
       fx="40"
       fy="43.5"
       r="2" />
    <radialGradient
       inkscape:collect="always"
       xlink:href="#linearGradient3944"
       id="radialGradient4001"
       gradientUnits="userSpaceOnUse"
       gradientTransform="matrix(1,0,0,0.75,0,10.875)"
       cx="9"
       cy="43.5"
       fx="9"
       fy="43.5"
       r="2" />
    <radialGradient
       r="2"
       fy="43.5"
       fx="9"
       cy="43.5"
       cx="9"
       gradientTransform="matrix(1,0,0,0.75,0,10.875)"
       gradientUnits="userSpaceOnUse"
       id="radialGradient5172"
       xlink:href="#linearGradient3944"
       inkscape:collect="always" />
    <radialGradient
       inkscape:collect="always"
       xlink:href="#linearGradient3944"
       id="radialGradient4202"
       gradientUnits="userSpaceOnUse"
       gradientTransform="matrix(1.0571429,0,0,1.25,-4.4000003,-10.875)"
       cx="9"
       cy="43.5"
       fx="9"
       fy="43.5"
       r="2" />
    <radialGradient
       inkscape:collect="always"
       xlink:href="#linearGradient3952"
       id="radialGradient4205"
       gradientUnits="userSpaceOnUse"
       gradientTransform="matrix(1.0571429,0,0,1.25,0.6,-10.875)"
       cx="40"
       cy="43.5"
       fx="40"
       fy="43.5"
       r="2" />
    <linearGradient
       inkscape:collect="always"
       xlink:href="#linearGradient3960"
       id="linearGradient4208"
       gradientUnits="userSpaceOnUse"
       x1="25"
       y1="45"
       x2="25"
       y2="42"
       gradientTransform="matrix(1.0571429,0,0,1.6666667,-5.4000003,-29)" />
    <radialGradient
       inkscape:collect="always"
       xlink:href="#linearGradient3944"
       id="radialGradient4211"
       gradientUnits="userSpaceOnUse"
       gradientTransform="matrix(1,0,0,0.75,-3.0000003,10.875)"
       cx="9"
       cy="43.5"
       fx="9"
       fy="43.5"
       r="2" />
    <radialGradient
       inkscape:collect="always"
       xlink:href="#linearGradient3952"
       id="radialGradient4214"
       gradientUnits="userSpaceOnUse"
       gradientTransform="matrix(1,0,0,0.75,2,10.875)"
       cx="40"
       cy="43.5"
       fx="40"
       fy="43.5"
       r="2" />
    <linearGradient
       inkscape:collect="always"
       xlink:href="#linearGradient3960"
       id="linearGradient4217"
       gradientUnits="userSpaceOnUse"
       x1="25"
       y1="45"
       x2="25"
       y2="42"
       gradientTransform="translate(-4.0000003,0)" />
    <clipPath
       clipPathUnits="userSpaceOnUse"
       id="clipPath3928">
      <path
         style="fill:#000000;fill-opacity:1;stroke:none;display:inline;enable-background:new"
         d="m 23.59375,11 c -0.24042,0.02284 -0.55561,0.07591 -0.8125,0.1875 0,0 -0.155265,0.541084 -0.28125,1.90625 -0.154301,1.669684 -0.799704,2.127709 -1.28125,2.46875 -0.481527,0.341022 -0.632092,0.417929 -0.8125,0.5 -0.943522,0.158386 -1.803896,0.258993 -3.09375,-0.8125 -1.054262,-0.875952 -1.5,-1.15625 -1.5,-1.15625 -0.520428,0.204398 -0.96875,0.75 -0.96875,0.75 0,0 -0.576035,0.447208 -0.78125,0.96875 0,0 0.311567,0.477007 1.1875,1.53125 1.071549,1.28978 0.970571,2.119258 0.8125,3.0625 -0.0817,0.179926 -0.190246,0.330768 -0.53125,0.8125 -0.340985,0.481713 -0.767853,1.126726 -2.4375,1.28125 -1.364962,0.126263 -1.875,0.28125 -1.875,0.28125 C 10.995319,23.29581 11,24 11,24 c 0,0 -0.0041,0.705025 0.21875,1.21875 0,0 0.509852,0.155822 1.875,0.28125 1.66961,0.154487 2.096199,0.79976 2.4375,1.28125 0.341301,0.481472 0.44955,0.632334 0.53125,0.8125 0.158757,0.943503 0.258937,1.804026 -0.8125,3.09375 -0.875934,1.054485 -1.1875,1.5 -1.1875,1.5 0.205958,0.521505 0.78125,1 0.78125,1 0,0 0.447375,0.544952 0.96875,0.75 0,0 0.445757,-0.279723 1.5,-1.15625 1.289854,-1.0714 2.150414,-0.969977 3.09375,-0.8125 0.180482,0.08189 0.330638,0.159052 0.8125,0.5 0.48188,0.340892 1.126726,0.767908 1.28125,2.4375 0.126078,1.36498 0.28125,1.875 0.28125,1.875 C 23.295736,37.004161 24,37 24,37 c 0,0 0.70523,0.0041 1.21875,-0.21875 0,0 0.155637,-0.509592 0.28125,-1.875 0.154487,-1.669592 0.784328,-2.100729 1.5625,-2.65625 l 0,-0.0625 c 0.184196,-0.06889 0.350972,-0.13705 0.53125,-0.21875 0.943447,-0.158757 1.772627,-0.258992 3.0625,0.8125 1.054261,0.875952 1.53125,1.15625 1.53125,1.15625 0.521597,-0.206162 0.96875,-0.75 0.96875,-0.75 0,0 0.544896,-0.478569 0.75,-1 0,0 -0.279537,-0.44572 -1.15625,-1.5 -1.071549,-1.28978 -0.970199,-2.150581 -0.8125,-3.09375 0.08189,-0.180482 0.181112,-0.315785 0.25,-0.5 l 0.0625,0 C 32.804909,26.31452 33.236585,25.654524 34.90625,25.5 36.271324,25.373922 36.8125,25.21875 36.8125,25.21875 37.035615,24.704245 37,24 37,24 c 0,0 0.03569,-0.704747 -0.1875,-1.21875 0,0 -0.541009,-0.155451 -1.90625,-0.28125 -1.669759,-0.154302 -2.100747,-0.783659 -2.65625,-1.5625 -0.06889,-0.184196 -0.230206,-0.35112 -0.3125,-0.53125 -0.158386,-0.94315 -0.259012,-1.772645 0.8125,-3.0625 0.875952,-1.054298 1.15625,-1.53125 1.15625,-1.53125 -0.20581,-0.521375 -0.75,-0.96875 -0.75,-0.96875 0,0 -0.447338,-0.544896 -0.96875,-0.75 0,0 -0.476598,0.279741 -1.53125,1.15625 -1.289817,1.071567 -2.067265,0.970349 -3.21875,0.46875 C 26.286034,15.217169 25.654357,14.763545 25.5,13.09375 25.373737,11.72875 25.21875,11.1875 25.21875,11.1875 24.704375,10.963902 23.999982,11 24,11 c 0,0 -0.165885,-0.02284 -0.40625,0 z M 24,18 c 3.313708,0 6,2.686292 6,6 0,3.313708 -2.686292,6 -6,6 -3.313708,0 -6,-2.686292 -6,-6 0,-3.313708 2.686292,-6 6,-6 z"
         id="path3930"
         inkscape:connector-curvature="0" />
    </clipPath>
  </defs>
  <g
     inkscape:groupmode="layer"
     id="layer1"
     inkscape:label="Background">
    <path
       inkscape:connector-curvature="0"
       id="path3987"
       d="m 42.885716,41.000001 0,5 0.528571,0 c 0.878486,0 1.585715,-1.115 1.585715,-2.5 0,-1.385 -0.707229,-2.5 -1.585715,-2.5 l -0.528571,0 z"
       style="opacity:0.12000002;fill:url(#radialGradient4205);fill-opacity:1;stroke:none" />
    <path
       style="opacity:0.12000002;fill:url(#radialGradient4214);fill-opacity:1;stroke:none"
       d="m 42,42 0,3 0.5,0 C 43.331,45 44,44.331 44,43.5 44,42.669 43.331,42 42.5,42 L 42,42 z"
       id="rect3940"
       inkscape:connector-curvature="0" />
    <path
       inkscape:connector-curvature="0"
       id="path3989"
       d="M 4.4866072,41.000001 C 3.6630268,41.000001 3,42.045313 3,43.343751 l 0,0.3125 c 0,1.298439 0.6630268,2.34375 1.4866072,2.34375 l 0.6276786,0 0,-5 -0.6276786,0 z"
       style="opacity:0.12000002;fill:url(#radialGradient4202);fill-opacity:1;stroke:none" />
    <path
       style="opacity:0.12000002;fill:url(#radialGradient4211);fill-opacity:1;stroke:none"
       d="m 5.4062497,42 c -0.7790625,0 -1.40625,0.627187 -1.40625,1.40625 l 0,0.1875 c 0,0.779063 0.6271875,1.40625 1.40625,1.40625 l 0.59375,0 0,-3 -0.59375,0 z"
       id="rect3942"
       inkscape:connector-curvature="0" />
    <path
       style="opacity:0.12000002;fill:url(#linearGradient4208);fill-opacity:1;stroke:none"
       d="m 5.1141432,41 37.7717148,0 0,5 -37.7717148,0 z"
       id="rect3985"
       inkscape:connector-curvature="0"
       sodipodi:nodetypes="ccccc" />
    <path
       style="opacity:0.12000002;fill:url(#linearGradient4217);fill-opacity:1;stroke:none"
       d="m 5.9998568,42 36.0002842,0 0,3 -36.0002842,0 z"
       id="rect3938"
       inkscape:connector-curvature="0"
       sodipodi:nodetypes="ccccc" />
    <path
       style="fill:url(#linearGradient3877);fill-opacity:1.0;stroke:none;display:inline"
       d="M 6.4375 5 C 5.625551 5 5 5.6255532 5 6.4375 L 5 41.5625 C 5 42.374447 5.625551 43 6.4375 43 L 41.5625 43 C 42.374449 43 43 42.374447 43 41.5625 L 43 6.4375 C 43 5.6255532 42.374449 5 41.5625 5 L 6.4375 5 z "
       id="rect4073" />
    <rect
       style="opacity:0.41;fill:none;stroke:#000000;stroke-opacity:1;display:inline"
       id="rect4085"
       width="39"
       height="39"
       x="-43.5"
       y="-43.5"
       transform="matrix(0,-1,-1,0,0,0)"
       ry="1.95"
       rx="1.9499974" />
    <path
       inkscape:connector-curvature="0"
       style="opacity:0.14999999999999999;fill:#ffffff;fill-opacity:1;stroke:none;display:inline"
       d="M 6.4375,5.00002 C 5.62555,5.00002 5,5.62557 5,6.43752 l 0,1 C 5,6.62557 5.62555,6.00002 6.4375,6.00002 l 35.125,0 c 0.81195,0 1.4375,0.62555 1.4375,1.4375 l 0,-1 c 0,-0.81195 -0.62555,-1.4375 -1.4375,-1.4375 l -35.125,0 z"
       id="rect4089-4" />
    <path
       transform="matrix(0,1,-1,0,280,-784)"
       style="opacity:0.10000000000000001;fill:none;stroke:url(#linearGradient4140);stroke-width:2;stroke-miterlimit:4;stroke-opacity:1;stroke-dasharray:none;display:inline"
       d="M 790.4375,237 C 789.62555,237 789,237.62555 789,238.4375 l 0,35.09375 c 0,0.812 0.62555,1.46875 1.4375,1.46875 l 35.125,0 c 0.81195,0 1.4375,-0.65675 1.4375,-1.46875 l 0,-35.09375 C 827,237.62555 826.37445,237 825.5625,237 l -35.125,0 z"
       id="path4128"
       clip-path="url(#clipPath4130)"
       inkscape:connector-curvature="0" />
    <path
       id="path4105"
       d="M 6.4375,43.000017 C 5.62555,43.000017 5,42.374417 5,41.562517 L 5,40.56252 c 0,0.811897 0.62555,1.437497 1.4375,1.437497 l 35.125,0 c 0.81195,0 1.4375,-0.6256 1.4375,-1.437497 l 0,0.999997 c 0,0.8119 -0.62555,1.4375 -1.4375,1.4375 l -35.125,0 z"
       style="opacity:0.10000000000000001;fill:#ffffff;fill-opacity:1;stroke:none;display:inline"
       inkscape:connector-curvature="0" />
  </g>
  <g
     inkscape:groupmode="layer"
     id="layer2"
     inkscape:label="Symbol">
    <path
       id="path3898"
       d="m 23.59375,11.999995 c -0.24042,0.02284 -0.55561,0.07591 -0.8125,0.1875 0,0 -0.155265,0.541084 -0.28125,1.90625 -0.154301,1.669684 -0.799704,2.127709 -1.28125,2.46875 -0.481527,0.341022 -0.632092,0.417929 -0.8125,0.5 -0.943522,0.158386 -1.803896,0.258993 -3.09375,-0.8125 -1.054262,-0.875952 -1.5,-1.15625 -1.5,-1.15625 -0.520428,0.204398 -0.96875,0.75 -0.96875,0.75 0,0 -0.576035,0.447208 -0.78125,0.96875 0,0 0.311567,0.477007 1.1875,1.53125 1.071549,1.28978 0.970571,2.119258 0.8125,3.0625 -0.0817,0.179926 -0.190246,0.330768 -0.53125,0.8125 -0.340985,0.481713 -0.767853,1.126726 -2.4375,1.28125 -1.364962,0.126263 -1.875,0.28125 -1.875,0.28125 C 10.995319,24.295805 11,24.999995 11,24.999995 c 0,0 -0.0041,0.705025 0.21875,1.21875 0,0 0.509852,0.155822 1.875,0.28125 1.66961,0.154487 2.096199,0.79976 2.4375,1.28125 0.341301,0.481472 0.44955,0.632334 0.53125,0.8125 0.158757,0.943503 0.258937,1.804026 -0.8125,3.09375 -0.875934,1.054485 -1.1875,1.5 -1.1875,1.5 0.205958,0.521505 0.78125,1 0.78125,1 0,0 0.447375,0.544952 0.96875,0.75 0,0 0.445757,-0.279723 1.5,-1.15625 1.289854,-1.0714 2.150414,-0.969977 3.09375,-0.8125 0.180482,0.08189 0.330638,0.159052 0.8125,0.5 0.48188,0.340892 1.126726,0.767908 1.28125,2.4375 0.126078,1.36498 0.28125,1.875 0.28125,1.875 0.514486,0.222911 1.21875,0.21875 1.21875,0.21875 0,0 0.70523,0.0041 1.21875,-0.21875 0,0 0.155637,-0.509592 0.28125,-1.875 0.154487,-1.669592 0.784328,-2.100729 1.5625,-2.65625 l 0,-0.0625 c 0.184196,-0.06889 0.350972,-0.13705 0.53125,-0.21875 0.943447,-0.158757 1.772627,-0.258992 3.0625,0.8125 1.054261,0.875952 1.53125,1.15625 1.53125,1.15625 0.521597,-0.206162 0.96875,-0.75 0.96875,-0.75 0,0 0.544896,-0.478569 0.75,-1 0,0 -0.279537,-0.44572 -1.15625,-1.5 -1.071549,-1.28978 -0.970199,-2.150581 -0.8125,-3.09375 0.08189,-0.180482 0.181112,-0.315785 0.25,-0.5 l 0.0625,0 c 0.554909,-0.77923 0.986585,-1.439226 2.65625,-1.59375 1.365074,-0.126078 1.90625,-0.28125 1.90625,-0.28125 C 37.035615,25.70424 37,24.999995 37,24.999995 c 0,0 0.03569,-0.704747 -0.1875,-1.21875 0,0 -0.541009,-0.155451 -1.90625,-0.28125 -1.669759,-0.154302 -2.100747,-0.783659 -2.65625,-1.5625 -0.06889,-0.184196 -0.230206,-0.35112 -0.3125,-0.53125 -0.158386,-0.94315 -0.259012,-1.772645 0.8125,-3.0625 0.875952,-1.054298 1.15625,-1.53125 1.15625,-1.53125 -0.20581,-0.521375 -0.75,-0.96875 -0.75,-0.96875 0,0 -0.447338,-0.544896 -0.96875,-0.75 0,0 -0.476598,0.279741 -1.53125,1.15625 -1.289817,1.071567 -2.067265,0.970349 -3.21875,0.46875 -1.151466,-0.501581 -1.783143,-0.955205 -1.9375,-2.625 -0.126263,-1.365 -0.28125,-1.90625 -0.28125,-1.90625 -0.514375,-0.223598 -1.218768,-0.1875 -1.21875,-0.1875 0,0 -0.165885,-0.02284 -0.40625,0 z m 0.40625,7 c 3.313708,0 6,2.686292 6,6 0,3.313708 -2.686292,6 -6,6 -3.313708,0 -6,-2.686292 -6,-6 0,-3.313708 2.686292,-6 6,-6 z"
       style="fill:#ffffff;fill-opacity:1;stroke:none;display:inline;enable-background:new;opacity:0.4"
       inkscape:connector-curvature="0" />
    <path
       style="fill:#bbbbbb;fill-opacity:1;stroke:none;display:inline;enable-background:new"
       d="M 23.59375 11 C 23.35333 11.02284 23.03814 11.075907 22.78125 11.1875 C 22.78125 11.1875 22.625985 11.728584 22.5 13.09375 C 22.345699 14.763434 21.700296 15.221459 21.21875 15.5625 C 20.737223 15.903522 20.586658 15.980429 20.40625 16.0625 C 19.462728 16.220886 18.602354 16.321493 17.3125 15.25 C 16.258238 14.374048 15.8125 14.09375 15.8125 14.09375 C 15.292072 14.298148 14.84375 14.84375 14.84375 14.84375 C 14.84375 14.84375 14.267715 15.290958 14.0625 15.8125 C 14.0625 15.8125 14.374067 16.289507 15.25 17.34375 C 16.321549 18.63353 16.220571 19.463008 16.0625 20.40625 C 15.9808 20.586176 15.872254 20.737018 15.53125 21.21875 C 15.190265 21.700463 14.763397 22.345476 13.09375 22.5 C 11.728788 22.626263 11.21875 22.78125 11.21875 22.78125 C 10.995319 23.29581 11 24 11 24 C 11 24 10.995948 24.705025 11.21875 25.21875 C 11.21875 25.21875 11.728602 25.374572 13.09375 25.5 C 14.76336 25.654487 15.189949 26.29976 15.53125 26.78125 C 15.872551 27.262722 15.9808 27.413584 16.0625 27.59375 C 16.221257 28.537253 16.321437 29.397776 15.25 30.6875 C 14.374066 31.741985 14.0625 32.1875 14.0625 32.1875 C 14.268458 32.709005 14.84375 33.1875 14.84375 33.1875 C 14.84375 33.1875 15.291125 33.732452 15.8125 33.9375 C 15.8125 33.9375 16.258257 33.657777 17.3125 32.78125 C 18.602354 31.70985 19.462914 31.811273 20.40625 31.96875 C 20.586732 32.05064 20.736888 32.127802 21.21875 32.46875 C 21.70063 32.809642 22.345476 33.236658 22.5 34.90625 C 22.626078 36.27123 22.78125 36.78125 22.78125 36.78125 C 23.295736 37.004161 24 37 24 37 C 24 37 24.70523 37.004052 25.21875 36.78125 C 25.21875 36.78125 25.374387 36.271658 25.5 34.90625 C 25.654487 33.236658 26.284328 32.805521 27.0625 32.25 L 27.0625 32.1875 C 27.246696 32.11861 27.413472 32.05045 27.59375 31.96875 C 28.537197 31.809993 29.366377 31.709758 30.65625 32.78125 C 31.710511 33.657202 32.1875 33.9375 32.1875 33.9375 C 32.709097 33.731338 33.15625 33.1875 33.15625 33.1875 C 33.15625 33.1875 33.701146 32.708931 33.90625 32.1875 C 33.90625 32.1875 33.626713 31.74178 32.75 30.6875 C 31.678451 29.39772 31.779801 28.536919 31.9375 27.59375 C 32.01939 27.413268 32.118612 27.277965 32.1875 27.09375 L 32.25 27.09375 C 32.804909 26.31452 33.236585 25.654524 34.90625 25.5 C 36.271324 25.373922 36.8125 25.21875 36.8125 25.21875 C 37.035615 24.704245 37 24 37 24 C 37 24 37.035693 23.295253 36.8125 22.78125 C 36.8125 22.78125 36.271491 22.625799 34.90625 22.5 C 33.236491 22.345698 32.805503 21.716341 32.25 20.9375 C 32.18111 20.753304 32.019794 20.58638 31.9375 20.40625 C 31.779114 19.4631 31.678488 18.633605 32.75 17.34375 C 33.625952 16.289452 33.90625 15.8125 33.90625 15.8125 C 33.70044 15.291125 33.15625 14.84375 33.15625 14.84375 C 33.15625 14.84375 32.708912 14.298854 32.1875 14.09375 C 32.1875 14.09375 31.710902 14.373491 30.65625 15.25 C 29.366433 16.321567 28.588985 16.220349 27.4375 15.71875 C 26.286034 15.217169 25.654357 14.763545 25.5 13.09375 C 25.373737 11.72875 25.21875 11.1875 25.21875 11.1875 C 24.704375 10.963902 23.999982 11 24 11 C 24 11 23.834115 10.97716 23.59375 11 z M 24 18 C 27.313708 18 30 20.686292 30 24 C 30 27.313708 27.313708 30 24 30 C 20.686292 30 18 27.313708 18 24 C 18 20.686292 20.686292 18 24 18 z "
       id="path3-8-5-9" />
    <path
       style="fill:#000000;fill-opacity:1;stroke:none;display:inline;enable-background:new;opacity:0.1"
       d="M 23.59375 11 C 23.35333 11.02284 23.03814 11.075907 22.78125 11.1875 C 22.78125 11.1875 22.625985 11.728584 22.5 13.09375 C 22.345699 14.763434 21.700296 15.221459 21.21875 15.5625 C 20.737223 15.903522 20.586658 15.980429 20.40625 16.0625 C 19.462728 16.220886 18.602354 16.321493 17.3125 15.25 C 16.258238 14.374048 15.8125 14.09375 15.8125 14.09375 C 15.292072 14.298148 14.84375 14.84375 14.84375 14.84375 C 14.84375 14.84375 14.267715 15.290958 14.0625 15.8125 C 14.0625 15.8125 14.18088 15.982457 14.40625 16.28125 C 14.625112 16.022902 14.84375 15.84375 14.84375 15.84375 C 14.84375 15.84375 15.292072 15.298148 15.8125 15.09375 C 15.8125 15.09375 16.258238 15.374048 17.3125 16.25 C 18.602354 17.321493 19.462728 17.220886 20.40625 17.0625 C 20.586658 16.980429 20.737223 16.903522 21.21875 16.5625 C 21.700296 16.221459 22.345699 15.763434 22.5 14.09375 C 22.625985 12.728584 22.78125 12.1875 22.78125 12.1875 C 23.03814 12.07591 23.35333 12.02284 23.59375 12 C 23.834115 11.97716 24 12 24 12 C 23.999982 12 24.704375 11.963902 25.21875 12.1875 C 25.21875 12.1875 25.373737 12.72875 25.5 14.09375 C 25.654357 15.763545 26.286034 16.217169 27.4375 16.71875 C 28.588985 17.220349 29.366433 17.321567 30.65625 16.25 C 31.710902 15.373491 32.1875 15.09375 32.1875 15.09375 C 32.708912 15.298854 33.15625 15.84375 33.15625 15.84375 C 33.15625 15.84375 33.382177 16.018889 33.59375 16.28125 C 33.805325 15.989253 33.90625 15.8125 33.90625 15.8125 C 33.70044 15.291125 33.15625 14.84375 33.15625 14.84375 C 33.15625 14.84375 32.708912 14.298854 32.1875 14.09375 C 32.1875 14.09375 31.710902 14.373491 30.65625 15.25 C 29.366433 16.321567 28.588985 16.220349 27.4375 15.71875 C 26.286034 15.217169 25.654357 14.763545 25.5 13.09375 C 25.373737 11.72875 25.21875 11.1875 25.21875 11.1875 C 24.704375 10.963902 23.999982 11 24 11 C 24 11 23.834115 10.97716 23.59375 11 z M 16.125 20 C 16.107719 20.136544 16.085906 20.266581 16.0625 20.40625 C 15.9808 20.586176 15.872254 20.737018 15.53125 21.21875 C 15.190265 21.700463 14.763397 22.345476 13.09375 22.5 C 11.728788 22.626263 11.21875 22.78125 11.21875 22.78125 C 10.995319 23.29581 11 24 11 24 C 11 24 10.993994 24.217899 11.03125 24.5 C 11.060907 24.27512 11.119627 24.00953 11.21875 23.78125 C 11.21875 23.78125 11.728788 23.626263 13.09375 23.5 C 14.763397 23.345476 15.190265 22.700463 15.53125 22.21875 C 15.872254 21.737018 15.9808 21.586176 16.0625 21.40625 C 16.141535 20.934629 16.21394 20.486497 16.125 20 z M 31.875 20 C 31.786016 20.486499 31.858307 20.934675 31.9375 21.40625 C 32.019794 21.58638 32.18111 21.753304 32.25 21.9375 C 32.805503 22.716341 33.236491 23.345698 34.90625 23.5 C 36.271491 23.625799 36.8125 23.78125 36.8125 23.78125 C 36.911516 24.009283 36.977167 24.275074 37 24.5 C 37.028642 24.217979 37 24 37 24 C 37 24 37.035693 23.295253 36.8125 22.78125 C 36.8125 22.78125 36.271491 22.625799 34.90625 22.5 C 33.236491 22.345698 32.805503 21.716341 32.25 20.9375 C 32.18111 20.753304 32.019794 20.58638 31.9375 20.40625 C 31.914047 20.266595 31.892302 20.136535 31.875 20 z M 18.03125 24.625 C 18.023779 24.747591 18 24.875529 18 25 C 18 28.313708 20.686292 31 24 31 C 27.313708 31 30 28.313708 30 25 C 30 24.875529 29.976221 24.747591 29.96875 24.625 C 29.66149 27.650536 27.106601 30 24 30 C 20.893399 30 18.33851 27.650536 18.03125 24.625 z M 16.125 29.03125 C 16.031741 29.51753 15.775214 30.055282 15.25 30.6875 C 14.374066 31.741985 14.0625 32.1875 14.0625 32.1875 C 14.142874 32.391014 14.269524 32.585467 14.40625 32.75 C 14.549931 32.556426 14.628807 32.435318 15.25 31.6875 C 16.150833 30.603138 16.219068 29.81322 16.125 29.03125 z M 31.875 29.03125 C 31.7813 29.813085 31.849073 30.603091 32.75 31.6875 C 33.141744 32.158587 33.380882 32.476145 33.5625 32.71875 C 33.690322 32.55666 33.828132 32.386099 33.90625 32.1875 C 33.90625 32.1875 33.626713 31.74178 32.75 30.6875 C 32.224731 30.055255 31.968111 29.517566 31.875 29.03125 z "
       id="path3900" />
  </g>
</svg>
