<?xml version="1.0" encoding="UTF-8" standalone="no"?>
<svg
   xmlns:dc="http://purl.org/dc/elements/1.1/"
   xmlns:cc="http://creativecommons.org/ns#"
   xmlns:rdf="http://www.w3.org/1999/02/22-rdf-syntax-ns#"
   xmlns:svg="http://www.w3.org/2000/svg"
   xmlns="http://www.w3.org/2000/svg"
   xmlns:xlink="http://www.w3.org/1999/xlink"
   id="svg3759"
   height="48"
   width="48"
   version="1.1">
  <metadata
     id="metadata37">
    <rdf:RDF>
      <cc:Work
         rdf:about="">
        <dc:format>image/svg+xml</dc:format>
        <dc:type
           rdf:resource="http://purl.org/dc/dcmitype/StillImage" />
        <dc:title />
      </cc:Work>
    </rdf:RDF>
  </metadata>
  <defs
     id="defs3761">
    <linearGradient
       id="linearGradient3914">
      <stop
         id="stop3916"
         offset="0"
         style="stop-color:#ffffff;stop-opacity:1;" />
      <stop
         id="stop3918"
         offset="1"
         style="stop-color:#ffffff;stop-opacity:0;" />
    </linearGradient>
    <linearGradient
       id="linearGradient3960">
      <stop
         id="stop3962"
         offset="0"
         style="stop-color:#000000;stop-opacity:0;" />
      <stop
         style="stop-color:#000000;stop-opacity:1;"
         offset="0.5"
         id="stop3970" />
      <stop
         id="stop3964"
         offset="1"
         style="stop-color:#000000;stop-opacity:0;" />
    </linearGradient>
    <linearGradient
       id="linearGradient3952">
      <stop
         id="stop3954"
         offset="0"
         style="stop-color:#000000;stop-opacity:1;" />
      <stop
         id="stop3956"
         offset="1"
         style="stop-color:#000000;stop-opacity:0;" />
    </linearGradient>
    <linearGradient
       id="linearGradient3944">
      <stop
         id="stop3946"
         offset="0"
         style="stop-color:#000000;stop-opacity:1;" />
      <stop
         id="stop3948"
         offset="1"
         style="stop-color:#000000;stop-opacity:0;" />
    </linearGradient>
    <linearGradient
       y2="40.000172"
       x2="144.00006"
       y1="280.00018"
       x1="144.00006"
       gradientTransform="matrix(-0.18046875,0,0,0.17948718,49.987521,-5.7308027)"
       gradientUnits="userSpaceOnUse"
       id="linearGradient3142"
       xlink:href="#linearGradient3039" />
    <linearGradient
       gradientUnits="userSpaceOnUse"
       y2="48"
       x2="24"
       y1="0"
       x1="24"
       id="linearGradient3920"
       xlink:href="#linearGradient3914" />
    <radialGradient
       r="2"
       fy="43.5"
       fx="9"
       cy="43.5"
       cx="9"
       gradientTransform="matrix(1,0,0,0.75,-1.0000003,10.875)"
       gradientUnits="userSpaceOnUse"
       id="radialGradient3925"
       xlink:href="#linearGradient3944" />
    <radialGradient
       r="2"
       fy="43.5"
       fx="40"
       cy="43.5"
       cx="40"
       gradientTransform="matrix(1,0,0,0.75,-3e-7,10.875)"
       gradientUnits="userSpaceOnUse"
       id="radialGradient3928"
       xlink:href="#linearGradient3952" />
    <linearGradient
       gradientTransform="matrix(1.0305144,0,0,1,-1.2476025,0)"
       y2="42"
       x2="25"
       y1="45"
       x1="25"
       gradientUnits="userSpaceOnUse"
       id="linearGradient3931"
       xlink:href="#linearGradient3960" />
    <radialGradient
       r="2"
       fy="43.5"
       fx="9"
       cy="43.5"
       cx="9"
       gradientTransform="matrix(1.0571429,0,0,1.25,-2.4000003,-10.875)"
       gradientUnits="userSpaceOnUse"
       id="radialGradient3934"
       xlink:href="#linearGradient3944" />
    <radialGradient
       r="2"
       fy="43.5"
       fx="40"
       cy="43.5"
       cx="40"
       gradientTransform="matrix(1.0571429,0,0,1.25,-1.4000003,-10.875)"
       gradientUnits="userSpaceOnUse"
       id="radialGradient3937"
       xlink:href="#linearGradient3952" />
    <linearGradient
       gradientTransform="matrix(1.0894009,0,0,1.6666667,-2.6903226,-29)"
       y2="42"
       x2="25"
       y1="45"
       x1="25"
       gradientUnits="userSpaceOnUse"
       id="linearGradient3940"
       xlink:href="#linearGradient3960" />
    <linearGradient
       id="linearGradient3039">
      <stop
         style="stop-color:#7767ad;stop-opacity:1"
         offset="0"
         id="stop3041" />
      <stop
         style="stop-color:#a594df;stop-opacity:1"
         offset="1"
         id="stop3043" />
    </linearGradient>
  </defs>
  <g
     id="layer1">
    <g
       id="g3942">
      <rect
         y="41"
         x="7.1142859"
         height="5"
         width="33.771431"
         id="rect3985"
         style="opacity:0.12000002;fill:url(#linearGradient3940);fill-opacity:1;stroke:none" />
      <path
         id="path3987"
         d="m 40.885716,41.000001 0,5 0.528571,0 c 0.878486,0 1.585715,-1.115 1.585715,-2.5 0,-1.385 -0.707229,-2.5 -1.585715,-2.5 l -0.528571,0 z"
         style="opacity:0.12000002;fill:url(#radialGradient3937);fill-opacity:1;stroke:none" />
      <path
         id="path3989"
         d="M 6.4866072,41.000001 C 5.6630268,41.000001 5,42.045313 5,43.343751 l 0,0.3125 c 0,1.298439 0.6630268,2.34375 1.4866072,2.34375 l 0.6276786,0 0,-5 -0.6276786,0 z"
         style="opacity:0.12000002;fill:url(#radialGradient3934);fill-opacity:1;stroke:none" />
      <rect
         style="opacity:0.12000002;fill:url(#linearGradient3931);fill-opacity:1;stroke:none"
         id="rect3938"
         width="31.945946"
         height="3"
         x="8.0270262"
         y="42" />
      <path
         style="opacity:0.12000002;fill:url(#radialGradient3928);fill-opacity:1;stroke:none"
         d="m 40,42 0,3 0.5,0 C 41.331,45 42,44.331 42,43.5 42,42.669 41.331,42 40.5,42 L 40,42 z"
         id="rect3940" />
      <path
         style="opacity:0.12000002;fill:url(#radialGradient3925);fill-opacity:1;stroke:none"
         d="m 7.4062497,42 c -0.7790625,0 -1.40625,0.627187 -1.40625,1.40625 l 0,0.1875 c 0,0.779063 0.6271875,1.40625 1.40625,1.40625 l 0.59375,0 0,-3 -0.59375,0 z"
         id="rect3942" />
    </g>
    <path
       id="rect3882"
       d="m 40.5,3.5 -33,0 0,40 33,0 z"
       style="color:#bebebe;fill:url(#linearGradient3142);fill-opacity:1.0;fill-rule:nonzero;stroke:none;stroke-width:0;marker:none;visibility:visible;display:inline;overflow:visible;enable-background:accumulate" />
    <path
       style="opacity:0.2;fill:url(#linearGradient3920);fill-opacity:1;stroke:none"
       d="M 40,4 8,4 8,43 40,43 z M 39,5 39,42 9,42 9,5 z"
       id="path3893" />
    <rect
       y="4"
       x="8"
       height="1"
       width="32"
       id="rect3144"
       style="opacity:0.2;fill:#ffffff;fill-opacity:1;stroke:none;stroke-width:1;stroke-linecap:square;stroke-miterlimit:4;stroke-opacity:1;stroke-dasharray:none" />
    <rect
       style="opacity:0.1;fill:#ffffff;fill-opacity:1;stroke:none"
       id="rect3922"
       width="32"
       height="1"
       x="8"
       y="42" />
    <path
       style="color:#bebebe;fill:none;fill-opacity:1;fill-rule:nonzero;stroke:#2d1e65;stroke-width:1;marker:none;visibility:visible;display:inline;overflow:visible;enable-background:accumulate;stroke-opacity:1;stroke-miterlimit:4;stroke-dasharray:none;opacity:0.60999999999999999"
       d="m 40.5,3.5 -33,0 0,40 33,0 z"
       id="path4870" />
  </g>
  <g
     id="layer2">
    <path
       style="font-size:medium;font-style:normal;font-variant:normal;font-weight:normal;font-stretch:normal;text-indent:0;text-align:start;text-decoration:none;line-height:normal;letter-spacing:normal;word-spacing:normal;text-transform:none;direction:ltr;block-progression:tb;writing-mode:lr-tb;text-anchor:start;baseline-shift:baseline;color:#000000;fill:#ffffff;fill-opacity:1;stroke:none;stroke-width:1.99999976;marker:none;visibility:visible;display:inline;overflow:visible;enable-background:accumulate;font-family:Sans;-inkscape-font-specification:Sans"
       d="m 22,15.015645 0,7 -1.34375,0 -1.3125,0 C 21.29942,24.791284 24,28.984395 24,28.984395 l 4.65625,-6.96875 -1.3125,0 -1.34375,0 c -6.4e-4,-7.684397 0,-7 0,-7 l -4,0 z m -1,2.59375 c -2.9335,1.185989 -5,4.047668 -5,7.40625 0,4.418278 3.58172,8 8,8 4.41828,0 8,-3.581722 8,-8 0,-3.358582 -2.0665,-6.220261 -5,-7.40625 l 0,1.09375 c 2.36302,1.124194 4,3.52151 4,6.3125 0,3.865993 -3.13401,7 -7,7 -3.86599,0 -7,-3.134007 -7,-7 0,-2.79099 1.63698,-5.188306 4,-6.3125 l 0,-1.09375 z"
       id="path3026" />
  </g>
</svg>
