<?xml version="1.0" encoding="UTF-8" standalone="no"?>
<svg
   xmlns:dc="http://purl.org/dc/elements/1.1/"
   xmlns:cc="http://creativecommons.org/ns#"
   xmlns:rdf="http://www.w3.org/1999/02/22-rdf-syntax-ns#"
   xmlns:svg="http://www.w3.org/2000/svg"
   xmlns="http://www.w3.org/2000/svg"
   xmlns:xlink="http://www.w3.org/1999/xlink"
   id="svg3759"
   height="48"
   width="48"
   version="1.1">
  <metadata
     id="metadata37">
    <rdf:RDF>
      <cc:Work
         rdf:about="">
        <dc:format>image/svg+xml</dc:format>
        <dc:type
           rdf:resource="http://purl.org/dc/dcmitype/StillImage" />
        <dc:title />
      </cc:Work>
    </rdf:RDF>
  </metadata>
  <defs
     id="defs3761">
    <linearGradient
       id="linearGradient3914">
      <stop
         id="stop3916"
         offset="0"
         style="stop-color:#ffffff;stop-opacity:1;" />
      <stop
         id="stop3918"
         offset="1"
         style="stop-color:#ffffff;stop-opacity:0;" />
    </linearGradient>
    <linearGradient
       id="linearGradient3960">
      <stop
         id="stop3962"
         offset="0"
         style="stop-color:#000000;stop-opacity:0;" />
      <stop
         style="stop-color:#000000;stop-opacity:1;"
         offset="0.5"
         id="stop3970" />
      <stop
         id="stop3964"
         offset="1"
         style="stop-color:#000000;stop-opacity:0;" />
    </linearGradient>
    <linearGradient
       id="linearGradient3952">
      <stop
         id="stop3954"
         offset="0"
         style="stop-color:#000000;stop-opacity:1;" />
      <stop
         id="stop3956"
         offset="1"
         style="stop-color:#000000;stop-opacity:0;" />
    </linearGradient>
    <linearGradient
       id="linearGradient3944">
      <stop
         id="stop3946"
         offset="0"
         style="stop-color:#000000;stop-opacity:1;" />
      <stop
         id="stop3948"
         offset="1"
         style="stop-color:#000000;stop-opacity:0;" />
    </linearGradient>
    <linearGradient
       id="linearGradient3988-5">
      <stop
         id="stop3990-5"
         offset="0"
         style="stop-color:#e8e8e8;stop-opacity:1;" />
      <stop
         id="stop3992-0"
         offset="1"
         style="stop-color:#f0f0f0;stop-opacity:1;" />
    </linearGradient>
    <linearGradient
       y2="40.000172"
       x2="144.00006"
       y1="280.00018"
       x1="144.00006"
       gradientTransform="matrix(-0.175,0,0,0.175,49.20002,-5.0000326)"
       gradientUnits="userSpaceOnUse"
       id="linearGradient3142"
       xlink:href="#linearGradient3988-5" />
    <linearGradient
       gradientUnits="userSpaceOnUse"
       y2="48"
       x2="24"
       y1="0"
       x1="24"
       id="linearGradient3920"
       xlink:href="#linearGradient3914" />
    <radialGradient
       r="2"
       fy="43.5"
       fx="9"
       cy="43.5"
       cx="9"
       gradientTransform="matrix(1,0,0,0.75,-1.0000003,10.875)"
       gradientUnits="userSpaceOnUse"
       id="radialGradient3925"
       xlink:href="#linearGradient3944" />
    <radialGradient
       r="2"
       fy="43.5"
       fx="40"
       cy="43.5"
       cx="40"
       gradientTransform="matrix(1,0,0,0.75,-3e-7,10.875)"
       gradientUnits="userSpaceOnUse"
       id="radialGradient3928"
       xlink:href="#linearGradient3952" />
    <linearGradient
       gradientTransform="matrix(1.0305144,0,0,1,-1.2476025,0)"
       y2="42"
       x2="25"
       y1="45"
       x1="25"
       gradientUnits="userSpaceOnUse"
       id="linearGradient3931"
       xlink:href="#linearGradient3960" />
    <radialGradient
       r="2"
       fy="43.5"
       fx="9"
       cy="43.5"
       cx="9"
       gradientTransform="matrix(1.0571429,0,0,1.25,-2.4000003,-10.875)"
       gradientUnits="userSpaceOnUse"
       id="radialGradient3934"
       xlink:href="#linearGradient3944" />
    <radialGradient
       r="2"
       fy="43.5"
       fx="40"
       cy="43.5"
       cx="40"
       gradientTransform="matrix(1.0571429,0,0,1.25,-1.4000003,-10.875)"
       gradientUnits="userSpaceOnUse"
       id="radialGradient3937"
       xlink:href="#linearGradient3952" />
    <linearGradient
       gradientTransform="matrix(1.0894009,0,0,1.6666667,-2.6903226,-29)"
       y2="42"
       x2="25"
       y1="45"
       x1="25"
       gradientUnits="userSpaceOnUse"
       id="linearGradient3940"
       xlink:href="#linearGradient3960" />
    <linearGradient
       gradientUnits="userSpaceOnUse"
       y2="4"
       x2="24"
       y1="44"
       x1="24"
       id="linearGradient3996"
       xlink:href="#outerBackgroundGradient-8" />
    <linearGradient
       id="outerBackgroundGradient-8">
      <stop
         id="stop3864-8-6-49"
         offset="0"
         style="stop-color:#36d4af;stop-opacity:1;" />
      <stop
         id="stop3866-9-1-36"
         offset="1"
         style="stop-color:#1da5fd;stop-opacity:1;" />
    </linearGradient>
  </defs>
  <g
     id="layer1">
    <g
       id="g3942">
      <rect
         y="41"
         x="7.1142859"
         height="5"
         width="33.771431"
         id="rect3985"
         style="opacity:0.12000002;fill:url(#linearGradient3940);fill-opacity:1;stroke:none" />
      <path
         id="path3987"
         d="m 40.885716,41.000001 0,5 0.528571,0 c 0.878486,0 1.585715,-1.115 1.585715,-2.5 0,-1.385 -0.707229,-2.5 -1.585715,-2.5 l -0.528571,0 z"
         style="opacity:0.12000002;fill:url(#radialGradient3937);fill-opacity:1;stroke:none" />
      <path
         id="path3989"
         d="M 6.4866072,41.000001 C 5.6630268,41.000001 5,42.045313 5,43.343751 l 0,0.3125 c 0,1.298439 0.6630268,2.34375 1.4866072,2.34375 l 0.6276786,0 0,-5 -0.6276786,0 z"
         style="opacity:0.12000002;fill:url(#radialGradient3934);fill-opacity:1;stroke:none" />
      <rect
         style="opacity:0.12000002;fill:url(#linearGradient3931);fill-opacity:1;stroke:none"
         id="rect3938"
         width="31.945946"
         height="3"
         x="8.0270262"
         y="42" />
      <path
         style="opacity:0.12000002;fill:url(#radialGradient3928);fill-opacity:1;stroke:none"
         d="m 40,42 0,3 0.5,0 C 41.331,45 42,44.331 42,43.5 42,42.669 41.331,42 40.5,42 L 40,42 z"
         id="rect3940" />
      <path
         style="opacity:0.12000002;fill:url(#radialGradient3925);fill-opacity:1;stroke:none"
         d="m 7.4062497,42 c -0.7790625,0 -1.40625,0.627187 -1.40625,1.40625 l 0,0.1875 c 0,0.779063 0.6271875,1.40625 1.40625,1.40625 l 0.59375,0 0,-3 -0.59375,0 z"
         id="rect3942" />
    </g>
    <path
       id="rect3882"
       d="M 7.5 3.5 L 7.5 4 L 7.5 43 L 7.5 43.5 L 8 43.5 L 40 43.5 L 40.5 43.5 L 40.5 43 L 40.5 4 L 40.5 3.5 L 40 3.5 L 8 3.5 L 7.5 3.5 z "
       style="color:#bebebe;fill:url(#linearGradient3142);fill-opacity:1;fill-rule:nonzero;stroke:none;stroke-width:0;marker:none;visibility:visible;display:inline;overflow:visible;enable-background:accumulate" />
    <path
       id="rect3955"
       d="m 7.5,3.5 0,4 0,36 5.5,0 0,-35.5 27.5,0 0,-4.5 -28,0 z"
       style="opacity:1;fill:url(#linearGradient3996);fill-opacity:1.0;stroke:none" />
    <path
       style="opacity:0.1;fill:url(#linearGradient3920);fill-opacity:1;stroke:none"
       d="M 40,4 8,4 8,43 40,43 z M 39,5 39,42 9,42 9,5 z"
       id="path3893" />
    <rect
       y="4"
       x="8"
       height="1"
       width="32"
       id="rect3144"
       style="opacity:0.1;fill:#ffffff;fill-opacity:1;stroke:none;stroke-width:1;stroke-linecap:square;stroke-miterlimit:4;stroke-opacity:1;stroke-dasharray:none" />
    <rect
       style="opacity:0.1;fill:#ffffff;fill-opacity:1;stroke:none"
       id="rect3922"
       width="32"
       height="1"
       x="8"
       y="42" />
    <path
       style="color:#bebebe;fill:none;fill-opacity:1;fill-rule:nonzero;stroke:#000000;stroke-width:1;marker:none;visibility:visible;display:inline;overflow:visible;enable-background:accumulate;stroke-opacity:1;stroke-miterlimit:4;stroke-dasharray:none;opacity:0.41"
       d="M 7.5 3.5 L 7.5 4 L 7.5 43 L 7.5 43.5 L 8 43.5 L 40 43.5 L 40.5 43.5 L 40.5 43 L 40.5 4 L 40.5 3.5 L 40 3.5 L 8 3.5 L 7.5 3.5 z "
       id="path3968" />
    <rect
       y="3.5009198"
       x="7.5"
       height="4.4990802"
       width="5.5"
       id="rect4003"
       style="opacity:0.2;fill:#000000;fill-opacity:1;stroke:none" />
  </g>
  <g
     id="layer2">
    <path
       id="rect3209"
       d="M 12 4 L 12 7 L 8 7 L 8 8 L 12 8 L 12 12 L 8 12 L 8 13 L 12 13 L 12 17 L 8 17 L 8 18 L 12 18 L 12 22 L 8 22 L 8 23 L 12 23 L 12 27 L 8 27 L 8 28 L 12 28 L 12 32 L 8 32 L 8 33 L 12 33 L 12 37 L 8 37 L 8 38 L 12 38 L 12 43 L 13 43 L 13 38 L 20 38 L 20 43 L 21 43 L 21 38 L 28 38 L 28 43 L 29 43 L 29 38 L 36 38 L 36 43 L 37 43 L 37 38 L 40 38 L 40 37 L 37 37 L 37 33 L 40 33 L 40 32 L 37 32 L 37 28 L 40 28 L 40 27 L 37 27 L 37 23 L 40 23 L 40 22 L 37 22 L 37 18 L 40 18 L 40 17 L 37 17 L 37 13 L 40 13 L 40 12 L 37 12 L 37 8 L 40 8 L 40 7 L 37 7 L 37 4 L 36 4 L 36 7 L 29 7 L 29 4 L 28 4 L 28 7 L 21 7 L 21 4 L 20 4 L 20 7 L 13 7 L 13 4 L 12 4 z M 13 8 L 20 8 L 20 12 L 13 12 L 13 8 z M 21 8 L 28 8 L 28 12 L 21 12 L 21 8 z M 29 8 L 36 8 L 36 12 L 29 12 L 29 8 z M 13 13 L 20 13 L 20 17 L 13 17 L 13 13 z M 21 13 L 28 13 L 28 17 L 21 17 L 21 13 z M 29 13 L 36 13 L 36 17 L 29 17 L 29 13 z M 13 18 L 20 18 L 20 22 L 13 22 L 13 18 z M 21 18 L 28 18 L 28 22 L 21 22 L 21 18 z M 29 18 L 36 18 L 36 22 L 29 22 L 29 18 z M 13 23 L 20 23 L 20 27 L 13 27 L 13 23 z M 21 23 L 28 23 L 28 27 L 21 27 L 21 23 z M 29 23 L 36 23 L 36 27 L 29 27 L 29 23 z M 13 28 L 20 28 L 20 32 L 13 32 L 13 28 z M 21 28 L 28 28 L 28 32 L 21 32 L 21 28 z M 29 28 L 36 28 L 36 32 L 29 32 L 29 28 z M 13 33 L 20 33 L 20 37 L 13 37 L 13 33 z M 21 33 L 28 33 L 28 37 L 21 37 L 21 33 z M 29 33 L 36 33 L 36 37 L 29 37 L 29 33 z "
       style="opacity:0.2;fill:#000000;fill-opacity:1;stroke:none" />
  </g>
</svg>
