<?xml version="1.0" encoding="UTF-8" standalone="no"?>
<svg
   xmlns:dc="http://purl.org/dc/elements/1.1/"
   xmlns:cc="http://creativecommons.org/ns#"
   xmlns:rdf="http://www.w3.org/1999/02/22-rdf-syntax-ns#"
   xmlns:svg="http://www.w3.org/2000/svg"
   xmlns="http://www.w3.org/2000/svg"
   xmlns:xlink="http://www.w3.org/1999/xlink"
   id="svg3759"
   height="48"
   width="48"
   version="1.1">
  <metadata
     id="metadata37">
    <rdf:RDF>
      <cc:Work
         rdf:about="">
        <dc:format>image/svg+xml</dc:format>
        <dc:type
           rdf:resource="http://purl.org/dc/dcmitype/StillImage" />
        <dc:title />
      </cc:Work>
    </rdf:RDF>
  </metadata>
  <defs
     id="defs3761">
    <linearGradient
       gradientUnits="userSpaceOnUse"
       y2="256"
       x2="827"
       y1="256"
       x1="789"
       id="linearGradient4140"
       xlink:href="#linearGradient4134" />
    <linearGradient
       id="linearGradient4134">
      <stop
         id="stop4136"
         offset="0"
         style="stop-color:#ffffff;stop-opacity:1;" />
      <stop
         id="stop4138"
         offset="1"
         style="stop-color:#ffffff;stop-opacity:0;" />
    </linearGradient>
    <clipPath
       id="clipPath4130"
       clipPathUnits="userSpaceOnUse">
      <path
         style="fill:#ba2222;fill-opacity:1;stroke:none"
         d="M 790.4375,237 C 789.62555,237 789,237.62555 789,238.4375 l 0,35.09375 c 0,0.812 0.62555,1.46875 1.4375,1.46875 l 35.125,0 c 0.81195,0 1.4375,-0.65675 1.4375,-1.46875 l 0,-35.09375 C 827,237.62555 826.37445,237 825.5625,237 l -35.125,0 z"
         id="path4132" />
    </clipPath>
    <linearGradient
       y2="-808"
       x2="-984.86218"
       y1="-808"
       x1="-1023.8622"
       gradientTransform="matrix(0,-1,-1,0,-784,-980.3622)"
       gradientUnits="userSpaceOnUse"
       id="linearGradient3877"
       xlink:href="#linearGradient3988-5" />
    <linearGradient
       id="linearGradient3988-5">
      <stop
         id="stop3990-5"
         offset="0"
         style="stop-color:#ededed;stop-opacity:1;" />
      <stop
         id="stop3992-0"
         offset="1"
         style="stop-color:#fafafa;stop-opacity:1;" />
    </linearGradient>
    <linearGradient
       id="linearGradient3960">
      <stop
         id="stop3962"
         offset="0"
         style="stop-color:#000000;stop-opacity:0;" />
      <stop
         style="stop-color:#000000;stop-opacity:1;"
         offset="0.5"
         id="stop3970" />
      <stop
         id="stop3964"
         offset="1"
         style="stop-color:#000000;stop-opacity:0;" />
    </linearGradient>
    <linearGradient
       id="linearGradient3952">
      <stop
         id="stop3954"
         offset="0"
         style="stop-color:#000000;stop-opacity:1;" />
      <stop
         id="stop3956"
         offset="1"
         style="stop-color:#000000;stop-opacity:0;" />
    </linearGradient>
    <linearGradient
       id="linearGradient3944">
      <stop
         id="stop3946"
         offset="0"
         style="stop-color:#000000;stop-opacity:1;" />
      <stop
         id="stop3948"
         offset="1"
         style="stop-color:#000000;stop-opacity:0;" />
    </linearGradient>
    <radialGradient
       r="2"
       fy="43.5"
       fx="9"
       cy="43.5"
       cx="9"
       gradientTransform="matrix(1.0571429,0,0,1.25,-4.4000003,-10.875)"
       gradientUnits="userSpaceOnUse"
       id="radialGradient4202"
       xlink:href="#linearGradient3944" />
    <radialGradient
       r="2"
       fy="43.5"
       fx="40"
       cy="43.5"
       cx="40"
       gradientTransform="matrix(1.0571429,0,0,1.25,0.6,-10.875)"
       gradientUnits="userSpaceOnUse"
       id="radialGradient4205"
       xlink:href="#linearGradient3952" />
    <linearGradient
       gradientTransform="matrix(1.0571429,0,0,1.6666667,-5.4000003,-29)"
       y2="42"
       x2="25"
       y1="45"
       x1="25"
       gradientUnits="userSpaceOnUse"
       id="linearGradient4208"
       xlink:href="#linearGradient3960" />
    <radialGradient
       r="2"
       fy="43.5"
       fx="9"
       cy="43.5"
       cx="9"
       gradientTransform="matrix(1,0,0,0.75,-3.0000003,10.875)"
       gradientUnits="userSpaceOnUse"
       id="radialGradient4211"
       xlink:href="#linearGradient3944" />
    <radialGradient
       r="2"
       fy="43.5"
       fx="40"
       cy="43.5"
       cx="40"
       gradientTransform="matrix(1,0,0,0.75,2,10.875)"
       gradientUnits="userSpaceOnUse"
       id="radialGradient4214"
       xlink:href="#linearGradient3952" />
    <linearGradient
       gradientTransform="translate(-4.0000003,0)"
       y2="42"
       x2="25"
       y1="45"
       x1="25"
       gradientUnits="userSpaceOnUse"
       id="linearGradient4217"
       xlink:href="#linearGradient3960" />
  </defs>
  <g
     id="layer1">
    <path
       style="opacity:0.12000002;fill:url(#radialGradient4205);fill-opacity:1;stroke:none"
       d="m 42.885716,41.000001 0,5 0.528571,0 c 0.878486,0 1.585715,-1.115 1.585715,-2.5 0,-1.385 -0.707229,-2.5 -1.585715,-2.5 l -0.528571,0 z"
       id="path3987" />
    <path
       id="rect3940"
       d="m 42,42 0,3 0.5,0 C 43.331,45 44,44.331 44,43.5 44,42.669 43.331,42 42.5,42 L 42,42 z"
       style="opacity:0.12000002;fill:url(#radialGradient4214);fill-opacity:1;stroke:none" />
    <path
       style="opacity:0.12000002;fill:url(#radialGradient4202);fill-opacity:1;stroke:none"
       d="M 4.4866072,41.000001 C 3.6630268,41.000001 3,42.045313 3,43.343751 l 0,0.3125 c 0,1.298439 0.6630268,2.34375 1.4866072,2.34375 l 0.6276786,0 0,-5 -0.6276786,0 z"
       id="path3989" />
    <path
       id="rect3942"
       d="m 5.4062497,42 c -0.7790625,0 -1.40625,0.627187 -1.40625,1.40625 l 0,0.1875 c 0,0.779063 0.6271875,1.40625 1.40625,1.40625 l 0.59375,0 0,-3 -0.59375,0 z"
       style="opacity:0.12000002;fill:url(#radialGradient4211);fill-opacity:1;stroke:none" />
    <path
       id="rect3985"
       d="m 5.1141432,41 37.7717148,0 0,5 -37.7717148,0 z"
       style="opacity:0.12000002;fill:url(#linearGradient4208);fill-opacity:1;stroke:none" />
    <path
       id="rect3938"
       d="m 5.9998568,42 36.0002842,0 0,3 -36.0002842,0 z"
       style="opacity:0.12000002;fill:url(#linearGradient4217);fill-opacity:1;stroke:none" />
    <path
       id="rect4073"
       d="M 6.4375 5 C 5.625551 5 5 5.6255532 5 6.4375 L 5 41.5625 C 5 42.374447 5.625551 43 6.4375 43 L 41.5625 43 C 42.374449 43 43 42.374447 43 41.5625 L 43 6.4375 C 43 5.6255532 42.374449 5 41.5625 5 L 6.4375 5 z "
       style="fill:url(#linearGradient3877);fill-opacity:1.0;stroke:none;display:inline" />
    <rect
       rx="1.9499974"
       ry="1.95"
       transform="matrix(0,-1,-1,0,0,0)"
       y="-43.5"
       x="-43.5"
       height="39"
       width="39"
       id="rect4085"
       style="opacity:0.41;fill:none;stroke:#000000;stroke-opacity:1;display:inline" />
    <path
       id="rect4089-4"
       d="M 6.4375,5.00002 C 5.62555,5.00002 5,5.62557 5,6.43752 l 0,1 C 5,6.62557 5.62555,6.00002 6.4375,6.00002 l 35.125,0 c 0.81195,0 1.4375,0.62555 1.4375,1.4375 l 0,-1 c 0,-0.81195 -0.62555,-1.4375 -1.4375,-1.4375 l -35.125,0 z"
       style="opacity:0.14999999999999999;fill:#ffffff;fill-opacity:1;stroke:none;display:inline" />
    <path
       clip-path="url(#clipPath4130)"
       id="path4128"
       d="M 790.4375,237 C 789.62555,237 789,237.62555 789,238.4375 l 0,35.09375 c 0,0.812 0.62555,1.46875 1.4375,1.46875 l 35.125,0 c 0.81195,0 1.4375,-0.65675 1.4375,-1.46875 l 0,-35.09375 C 827,237.62555 826.37445,237 825.5625,237 l -35.125,0 z"
       style="opacity:0.10000000000000001;fill:none;stroke:url(#linearGradient4140);stroke-width:2;stroke-miterlimit:4;stroke-opacity:1;stroke-dasharray:none;display:inline"
       transform="matrix(0,1,-1,0,280,-784)" />
    <path
       style="opacity:0.10000000000000001;fill:#ffffff;fill-opacity:1;stroke:none;display:inline"
       d="M 6.4375,43.000017 C 5.62555,43.000017 5,42.374417 5,41.562517 L 5,40.56252 c 0,0.811897 0.62555,1.437497 1.4375,1.437497 l 35.125,0 c 0.81195,0 1.4375,-0.6256 1.4375,-1.437497 l 0,0.999997 c 0,0.8119 -0.62555,1.4375 -1.4375,1.4375 l -35.125,0 z"
       id="path4105" />
  </g>
  <g
     id="layer2">
    <path
       id="path12530"
       d="m 21.71835,16.750274 -2.21875,10.75 2.625,0 1.25,-5.96875 2.0625,0 c 0.9675,0 0.98205,0.4005 0.84375,1.0625 l -0.96875,4.90625 2.75,0 0.96875,-5.4375 c 0.2765,-1.323999 -0.5385,-2.39885 -2.75,-2.53125 l -2.5,0 0.5625,-2.78125 -2.625,0 z m -9.8125,2.78125 -2.21875,10.75 2.625,0 0.5625,-2.78125 2.5,0 c 2.3496,0.132402 4.96875,-1.72875 4.96875,-4.90625 0,-1.8536 -1.101,-2.9301 -3.3125,-3.0625 l -5.125,0 z m 18.15625,0 -2.21875,10.75 2.625,0 0.5625,-2.78125 2.5,0 c 2.3497,0.132402 4.96875,-1.72875 4.96875,-4.90625 0,-1.8536 -1.1011,-2.9301 -3.3125,-3.0625 l -5.125,0 z m -15.9375,2 1.78125,0 c 0.9675,0 1.65625,0.3931 1.65625,1.1875 -0.1382,2.250701 -1.22475,2.64885 -2.46875,2.78125 l -1.65625,0 0.6875,-3.96875 z m 18.15625,0 1.78125,0 c 0.9675,0 1.6875,0.3931 1.6875,1.1875 -0.1382,2.250701 -1.2561,2.64885 -2.5,2.78125 l -1.65625,0 0.6875,-3.96875 z"
       style="fill:#8596cc;fill-opacity:1;fill-rule:evenodd;stroke:none;display:inline" />
    <g
       style="opacity:0.61000001;fill:none;stroke:#2c3d72;stroke-opacity:1"
       id="g4208"
       transform="translate(26.0973,5.016584)">
      <path
         style="fill:none;stroke:#2c3d72;stroke-opacity:1;display:inline"
         id="path4210"
         d="m -16.4023,25.252416 2.2115,-10.7242 5.1139,0 c 2.2115,0.1324 3.3172,1.1916 3.3172,3.0452 0,3.1775 -2.6261,5.0311 -4.9757,4.8987 l -2.4879,0 -0.5529,2.7803 -2.6261,0 z m 3.7318,-4.7663 0.6911,-3.9719 1.7968,0 c 0.9675,0 1.6586,0.3972 1.6586,1.1916 -0.1382,2.2507 -1.2439,2.6479 -2.4879,2.7803 l -1.6586,0 z" />
      <path
         style="fill:none;stroke:#2c3d72;stroke-opacity:1;display:inline"
         d="m -6.589,22.472116 2.2115,-10.72422 2.626,0 -0.5528,2.78032 2.4878,0 c 2.2115,0.1324 3.0408,1.1916 2.7643,2.5156 l -0.9675,5.4283 -2.7643,0 0.9675,-4.8987 c 0.1383,-0.662 0.1383,-1.0592 -0.8292,-1.0592 l -2.0733,0 -1.2439,5.9579 -2.6261,0 z"
         id="path4212" />
      <path
         d="m 1.7597,25.252416 2.2114,-10.7242 5.114,0 c 2.2114,0.1324 3.3172,1.1916 3.3172,3.0452 0,3.1775 -2.6261,5.0311 -4.9758,4.8987 l -2.4878,0 -0.5529,2.7803 -2.6261,0 z m 3.7318,-4.7663 0.6911,-3.9719 1.7968,0 c 0.9675,0 1.6586,0.3972 1.6586,1.1916 -0.1382,2.2507 -1.244,2.6479 -2.4879,2.7803 l -1.6586,0 z"
         id="path4214"
         style="fill:none;stroke:#2c3d72;stroke-opacity:1;display:inline" />
    </g>
  </g>
</svg>
