<?xml version="1.0" encoding="UTF-8" standalone="no"?>
<!-- Created with Inkscape (http://www.inkscape.org/) -->

<svg
   xmlns:dc="http://purl.org/dc/elements/1.1/"
   xmlns:cc="http://creativecommons.org/ns#"
   xmlns:rdf="http://www.w3.org/1999/02/22-rdf-syntax-ns#"
   xmlns:svg="http://www.w3.org/2000/svg"
   xmlns="http://www.w3.org/2000/svg"
   xmlns:xlink="http://www.w3.org/1999/xlink"
   xmlns:sodipodi="http://sodipodi.sourceforge.net/DTD/sodipodi-0.dtd"
   xmlns:inkscape="http://www.inkscape.org/namespaces/inkscape"
   version="1.1"
   width="48"
   height="48"
   id="svg3759"
   inkscape:version="0.48.5 r10040"
   sodipodi:docname="application-x-gba-rom.svg">
  <sodipodi:namedview
     pagecolor="#ffffff"
     bordercolor="#666666"
     borderopacity="1"
     objecttolerance="10"
     gridtolerance="10"
     guidetolerance="10"
     inkscape:pageopacity="0"
     inkscape:pageshadow="2"
     inkscape:window-width="1920"
     inkscape:window-height="1014"
     id="namedview36"
     showgrid="false"
     showborder="false"
     inkscape:zoom="16.541667"
     inkscape:cx="13.057935"
     inkscape:cy="24"
     inkscape:window-x="0"
     inkscape:window-y="28"
     inkscape:window-maximized="1"
     inkscape:current-layer="layer2"
     inkscape:snap-bbox="true"
     inkscape:bbox-paths="true"
     inkscape:bbox-nodes="true"
     inkscape:snap-bbox-edge-midpoints="true"
     inkscape:snap-bbox-midpoints="true">
    <inkscape:grid
       type="xygrid"
       id="grid3818"
       empspacing="4"
       visible="true"
       enabled="true"
       snapvisiblegridlinesonly="true" />
  </sodipodi:namedview>
  <metadata
     id="metadata37">
    <rdf:RDF>
      <cc:Work
         rdf:about="">
        <dc:format>image/svg+xml</dc:format>
        <dc:type
           rdf:resource="http://purl.org/dc/dcmitype/StillImage" />
        <dc:title />
      </cc:Work>
    </rdf:RDF>
  </metadata>
  <defs
     id="defs3761">
    <linearGradient
       id="linearGradient4566">
      <stop
         id="stop4568"
         offset="0"
         style="stop-color:#3f3f3f;stop-opacity:1;" />
      <stop
         id="stop4570"
         offset="1"
         style="stop-color:#625c5c;stop-opacity:1;" />
    </linearGradient>
    <linearGradient
       inkscape:collect="always"
       id="linearGradient4149">
      <stop
         style="stop-color:#ffffff;stop-opacity:1;"
         offset="0"
         id="stop4151" />
      <stop
         style="stop-color:#ffffff;stop-opacity:0;"
         offset="1"
         id="stop4153" />
    </linearGradient>
    <linearGradient
       id="linearGradient4127">
      <stop
         id="stop4129"
         offset="0"
         style="stop-color:#8f2b12;stop-opacity:1;" />
      <stop
         id="stop4131"
         offset="1"
         style="stop-color:#82461a;stop-opacity:1;" />
    </linearGradient>
    <linearGradient
       inkscape:collect="always"
       xlink:href="#linearGradient4134"
       id="linearGradient4140"
       x1="789"
       y1="256"
       x2="827"
       y2="256"
       gradientUnits="userSpaceOnUse" />
    <linearGradient
       inkscape:collect="always"
       id="linearGradient4134">
      <stop
         style="stop-color:#ffffff;stop-opacity:1;"
         offset="0"
         id="stop4136" />
      <stop
         style="stop-color:#ffffff;stop-opacity:0;"
         offset="1"
         id="stop4138" />
    </linearGradient>
    <clipPath
       clipPathUnits="userSpaceOnUse"
       id="clipPath4130">
      <path
         id="path4132"
         d="M 790.4375,237 C 789.62555,237 789,237.62555 789,238.4375 l 0,35.09375 c 0,0.812 0.62555,1.46875 1.4375,1.46875 l 35.125,0 c 0.81195,0 1.4375,-0.65675 1.4375,-1.46875 l 0,-35.09375 C 827,237.62555 826.37445,237 825.5625,237 l -35.125,0 z"
         style="fill:#ba2222;fill-opacity:1;stroke:none"
         inkscape:connector-curvature="0" />
    </clipPath>
    <linearGradient
       inkscape:collect="always"
       xlink:href="#linearGradient5618"
       id="linearGradient4083"
       x1="-1023.8622"
       y1="-808"
       x2="-984.86218"
       y2="-808"
       gradientUnits="userSpaceOnUse"
       gradientTransform="translate(980.3622,784)" />
    <linearGradient
       id="linearGradient5618">
      <stop
         style="stop-color:#3e3e3e;stop-opacity:1;"
         offset="0"
         id="stop5620" />
      <stop
         style="stop-color:#595959;stop-opacity:1;"
         offset="1"
         id="stop5622" />
    </linearGradient>
    <linearGradient
       inkscape:collect="always"
       xlink:href="#linearGradient3934"
       id="linearGradient3998"
       gradientUnits="userSpaceOnUse"
       gradientTransform="matrix(0,-1,1,0,68,556)"
       x1="292"
       y1="244"
       x2="332"
       y2="244" />
    <linearGradient
       id="linearGradient3934">
      <stop
         style="stop-color:#dd2f03;stop-opacity:1;"
         offset="0"
         id="stop3936" />
      <stop
         style="stop-color:#e96300;stop-opacity:1;"
         offset="1"
         id="stop3938" />
    </linearGradient>
    <linearGradient
       y2="244"
       x2="332"
       y1="244"
       x1="292"
       gradientTransform="matrix(0,-1,1,0,65,302)"
       gradientUnits="userSpaceOnUse"
       id="linearGradient3177"
       xlink:href="#linearGradient3934"
       inkscape:collect="always" />
    <linearGradient
       inkscape:collect="always"
       xlink:href="#linearGradient3934"
       id="linearGradient4117"
       gradientUnits="userSpaceOnUse"
       gradientTransform="translate(980.3622,784)"
       x1="-1023.8622"
       y1="-808"
       x2="-984.86218"
       y2="-808" />
    <linearGradient
       inkscape:collect="always"
       xlink:href="#linearGradient4149"
       id="linearGradient4155"
       x1="24"
       y1="43.5"
       x2="37"
       y2="23.375"
       gradientUnits="userSpaceOnUse" />
    <linearGradient
       inkscape:collect="always"
       xlink:href="#outerBackgroundGradient-0"
       id="linearGradient3998-0"
       gradientUnits="userSpaceOnUse"
       gradientTransform="matrix(0,-1,1,0,68,556)"
       x1="292"
       y1="244"
       x2="332"
       y2="244" />
    <linearGradient
       id="outerBackgroundGradient-0">
      <stop
         style="stop-color:#dddddd;stop-opacity:1;"
         offset="0"
         id="stop3864-8-6-9" />
      <stop
         style="stop-color:#f2f2f2;stop-opacity:1;"
         offset="1"
         id="stop3866-9-1-5" />
    </linearGradient>
    <linearGradient
       inkscape:collect="always"
       xlink:href="#linearGradient4100"
       id="linearGradient4898"
       gradientUnits="userSpaceOnUse"
       x1="328"
       y1="235"
       x2="328"
       y2="277"
       gradientTransform="translate(-3.5,-3.5)" />
    <linearGradient
       id="linearGradient4100">
      <stop
         id="stop4102"
         offset="0"
         style="stop-color:#aaaaaa;stop-opacity:1;" />
      <stop
         id="stop4104"
         offset="1"
         style="stop-color:#767676;stop-opacity:1;" />
    </linearGradient>
    <linearGradient
       inkscape:collect="always"
       xlink:href="#linearGradient4084"
       id="linearGradient4900"
       gradientUnits="userSpaceOnUse"
       x1="324"
       y1="231"
       x2="324"
       y2="273"
       gradientTransform="translate(-3.5,-3.5)" />
    <linearGradient
       id="linearGradient4084">
      <stop
         style="stop-color:#cd5fc2;stop-opacity:1;"
         offset="0"
         id="stop4086" />
      <stop
         style="stop-color:#9a4993;stop-opacity:1;"
         offset="1"
         id="stop4088" />
    </linearGradient>
    <linearGradient
       inkscape:collect="always"
       xlink:href="#linearGradient3413"
       id="linearGradient4902"
       gradientUnits="userSpaceOnUse"
       x1="328"
       y1="273"
       x2="328"
       y2="231"
       gradientTransform="translate(-3.5,-3.5)" />
    <linearGradient
       id="outerBackgroundGradient-7">
      <stop
         style="stop-color:#717171;stop-opacity:1;"
         offset="0"
         id="stop3864-8-6-3" />
      <stop
         style="stop-color:#848484;stop-opacity:1;"
         offset="1"
         id="stop3866-9-1-2" />
    </linearGradient>
    <linearGradient
       inkscape:collect="always"
       xlink:href="#linearGradient3413"
       id="linearGradient4904"
       gradientUnits="userSpaceOnUse"
       x1="336"
       y1="273"
       x2="336"
       y2="231"
       gradientTransform="translate(-3.5,-3.5)" />
    <linearGradient
       id="linearGradient3413">
      <stop
         style="stop-color:#dddddd;stop-opacity:1;"
         offset="0"
         id="stop3415" />
      <stop
         style="stop-color:#f2f2f2;stop-opacity:1;"
         offset="1"
         id="stop3417" />
    </linearGradient>
    <clipPath
       clipPathUnits="userSpaceOnUse"
       id="clipPath4068">
      <rect
         ry="4.5"
         y="259"
         x="316"
         height="9"
         width="24"
         id="rect4070"
         style="color:#bebebe;fill:#525252;fill-opacity:1;fill-rule:nonzero;stroke:none;stroke-width:1;marker:none;visibility:visible;display:inline;overflow:visible;enable-background:accumulate" />
    </clipPath>
    <clipPath
       clipPathUnits="userSpaceOnUse"
       id="clipPath4060">
      <rect
         style="color:#bebebe;fill:#525252;fill-opacity:1;fill-rule:nonzero;stroke:none;stroke-width:1;marker:none;visibility:visible;display:inline;overflow:visible;enable-background:accumulate"
         id="rect4062"
         width="24"
         height="9"
         x="316"
         y="240"
         ry="4.5" />
    </clipPath>
    <clipPath
       clipPathUnits="userSpaceOnUse"
       id="clipPath3423">
      <rect
         style="color:#bebebe;fill:#525252;fill-opacity:1;fill-rule:nonzero;stroke:none;stroke-width:1;marker:none;visibility:visible;display:inline;overflow:visible;enable-background:accumulate"
         id="rect3425"
         width="24"
         height="9"
         x="316"
         y="240"
         ry="4.5" />
    </clipPath>
    <clipPath
       clipPathUnits="userSpaceOnUse"
       id="clipPath3427">
      <rect
         ry="4.5"
         y="259"
         x="316"
         height="9"
         width="24"
         id="rect3429"
         style="color:#bebebe;fill:#525252;fill-opacity:1;fill-rule:nonzero;stroke:none;stroke-width:1;marker:none;visibility:visible;display:inline;overflow:visible;enable-background:accumulate" />
    </clipPath>
    <clipPath
       clipPathUnits="userSpaceOnUse"
       id="clipPath3431">
      <rect
         ry="4.5"
         y="259"
         x="316"
         height="9"
         width="24"
         id="rect3433"
         style="color:#bebebe;fill:#525252;fill-opacity:1;fill-rule:nonzero;stroke:none;stroke-width:1;marker:none;visibility:visible;display:inline;overflow:visible;enable-background:accumulate" />
    </clipPath>
    <clipPath
       clipPathUnits="userSpaceOnUse"
       id="clipPath3435">
      <rect
         style="color:#bebebe;fill:#525252;fill-opacity:1;fill-rule:nonzero;stroke:none;stroke-width:1;marker:none;visibility:visible;display:inline;overflow:visible;enable-background:accumulate"
         id="rect3437"
         width="24"
         height="9"
         x="316"
         y="240"
         ry="4.5" />
    </clipPath>
    <clipPath
       clipPathUnits="userSpaceOnUse"
       id="clipPath3439">
      <rect
         style="color:#bebebe;fill:#525252;fill-opacity:1;fill-rule:nonzero;stroke:none;stroke-width:1;marker:none;visibility:visible;display:inline;overflow:visible;enable-background:accumulate"
         id="rect3441"
         width="24"
         height="9"
         x="316"
         y="240"
         ry="4.5" />
    </clipPath>
    <clipPath
       clipPathUnits="userSpaceOnUse"
       id="clipPath3443">
      <rect
         ry="4.5"
         y="259"
         x="316"
         height="9"
         width="24"
         id="rect3445"
         style="color:#bebebe;fill:#525252;fill-opacity:1;fill-rule:nonzero;stroke:none;stroke-width:1;marker:none;visibility:visible;display:inline;overflow:visible;enable-background:accumulate" />
    </clipPath>
    <linearGradient
       y2="244"
       x2="332"
       y1="244"
       x1="292"
       gradientTransform="matrix(0,-1,1,0,-223.5,332.5)"
       gradientUnits="userSpaceOnUse"
       id="linearGradient3470"
       xlink:href="#outerBackgroundGradient-0"
       inkscape:collect="always" />
    <linearGradient
       inkscape:collect="always"
       xlink:href="#linearGradient3413"
       id="linearGradient4564"
       gradientUnits="userSpaceOnUse"
       gradientTransform="translate(980.3622,784)"
       x1="-1023.8622"
       y1="-808"
       x2="-984.86218"
       y2="-808" />
    <linearGradient
       inkscape:collect="always"
       xlink:href="#linearGradient4100"
       id="linearGradient4629"
       gradientUnits="userSpaceOnUse"
       gradientTransform="translate(-3.5,-3.5)"
       x1="328"
       y1="235"
       x2="328"
       y2="277" />
    <linearGradient
       inkscape:collect="always"
       xlink:href="#linearGradient4084"
       id="linearGradient4631"
       gradientUnits="userSpaceOnUse"
       gradientTransform="translate(-3.5,-3.5)"
       x1="324"
       y1="231"
       x2="324"
       y2="273" />
    <linearGradient
       inkscape:collect="always"
       xlink:href="#linearGradient3413"
       id="linearGradient4633"
       gradientUnits="userSpaceOnUse"
       gradientTransform="translate(-3.5,-3.5)"
       x1="328"
       y1="273"
       x2="328"
       y2="231" />
    <linearGradient
       inkscape:collect="always"
       xlink:href="#linearGradient3413"
       id="linearGradient4635"
       gradientUnits="userSpaceOnUse"
       gradientTransform="translate(-3.5,-3.5)"
       x1="336"
       y1="273"
       x2="336"
       y2="231" />
    <linearGradient
       inkscape:collect="always"
       xlink:href="#linearGradient3413"
       id="linearGradient4642"
       gradientUnits="userSpaceOnUse"
       gradientTransform="translate(-307.5,-231.5)"
       x1="336"
       y1="273"
       x2="336"
       y2="231" />
    <linearGradient
       inkscape:collect="always"
       xlink:href="#linearGradient4100"
       id="linearGradient4669"
       gradientUnits="userSpaceOnUse"
       gradientTransform="translate(-307.5,-235.5)"
       x1="328"
       y1="235"
       x2="328"
       y2="277" />
    <linearGradient
       inkscape:collect="always"
       xlink:href="#linearGradient3988-5"
       id="linearGradient3877"
       gradientUnits="userSpaceOnUse"
       gradientTransform="matrix(0,-1,-1,0,-784,-980.3622)"
       x1="-1023.8622"
       y1="-808"
       x2="-984.86218"
       y2="-808" />
    <linearGradient
       inkscape:collect="always"
       xlink:href="#linearGradient3988-5"
       id="linearGradient3158"
       gradientUnits="userSpaceOnUse"
       gradientTransform="matrix(0.175,0,0,0.175,-1.20002,-6.0000326)"
       x1="144.00006"
       y1="280.00018"
       x2="144.00006"
       y2="40.000172" />
    <linearGradient
       id="linearGradient3988-5">
      <stop
         style="stop-color:#ededed;stop-opacity:1;"
         offset="0"
         id="stop3990-5" />
      <stop
         style="stop-color:#fafafa;stop-opacity:1;"
         offset="1"
         id="stop3992-0" />
    </linearGradient>
    <linearGradient
       inkscape:collect="always"
       xlink:href="#linearGradient3960"
       id="linearGradient3968"
       x1="25"
       y1="45"
       x2="25"
       y2="42"
       gradientUnits="userSpaceOnUse" />
    <linearGradient
       id="linearGradient3960">
      <stop
         style="stop-color:#000000;stop-opacity:0;"
         offset="0"
         id="stop3962" />
      <stop
         id="stop3970"
         offset="0.5"
         style="stop-color:#000000;stop-opacity:1;" />
      <stop
         style="stop-color:#000000;stop-opacity:0;"
         offset="1"
         id="stop3964" />
    </linearGradient>
    <radialGradient
       inkscape:collect="always"
       xlink:href="#linearGradient3952"
       id="radialGradient3958"
       cx="40"
       cy="43.5"
       fx="40"
       fy="43.5"
       r="2"
       gradientTransform="matrix(1,0,0,0.75,0,10.875)"
       gradientUnits="userSpaceOnUse" />
    <linearGradient
       inkscape:collect="always"
       id="linearGradient3952">
      <stop
         style="stop-color:#000000;stop-opacity:1;"
         offset="0"
         id="stop3954" />
      <stop
         style="stop-color:#000000;stop-opacity:0;"
         offset="1"
         id="stop3956" />
    </linearGradient>
    <radialGradient
       inkscape:collect="always"
       xlink:href="#linearGradient3944"
       id="radialGradient3950"
       cx="9"
       cy="43.5"
       fx="9"
       fy="43.5"
       r="2"
       gradientTransform="matrix(1,0,0,0.75,0,10.875)"
       gradientUnits="userSpaceOnUse" />
    <linearGradient
       inkscape:collect="always"
       id="linearGradient3944">
      <stop
         style="stop-color:#000000;stop-opacity:1;"
         offset="0"
         id="stop3946" />
      <stop
         style="stop-color:#000000;stop-opacity:0;"
         offset="1"
         id="stop3948" />
    </linearGradient>
    <linearGradient
       inkscape:collect="always"
       xlink:href="#linearGradient3960"
       id="linearGradient3997"
       gradientUnits="userSpaceOnUse"
       x1="25"
       y1="45"
       x2="25"
       y2="42" />
    <linearGradient
       id="linearGradient5142">
      <stop
         style="stop-color:#000000;stop-opacity:0;"
         offset="0"
         id="stop5144" />
      <stop
         id="stop5146"
         offset="0.5"
         style="stop-color:#000000;stop-opacity:1;" />
      <stop
         style="stop-color:#000000;stop-opacity:0;"
         offset="1"
         id="stop5148" />
    </linearGradient>
    <radialGradient
       inkscape:collect="always"
       xlink:href="#linearGradient3952"
       id="radialGradient3999"
       gradientUnits="userSpaceOnUse"
       gradientTransform="matrix(1,0,0,0.75,0,10.875)"
       cx="40"
       cy="43.5"
       fx="40"
       fy="43.5"
       r="2" />
    <radialGradient
       inkscape:collect="always"
       xlink:href="#linearGradient3944"
       id="radialGradient4001"
       gradientUnits="userSpaceOnUse"
       gradientTransform="matrix(1,0,0,0.75,0,10.875)"
       cx="9"
       cy="43.5"
       fx="9"
       fy="43.5"
       r="2" />
    <radialGradient
       r="2"
       fy="43.5"
       fx="9"
       cy="43.5"
       cx="9"
       gradientTransform="matrix(1,0,0,0.75,0,10.875)"
       gradientUnits="userSpaceOnUse"
       id="radialGradient5172"
       xlink:href="#linearGradient3944"
       inkscape:collect="always" />
    <radialGradient
       inkscape:collect="always"
       xlink:href="#linearGradient3944"
       id="radialGradient4202"
       gradientUnits="userSpaceOnUse"
       gradientTransform="matrix(1.0571429,0,0,1.25,-4.4000003,-10.875)"
       cx="9"
       cy="43.5"
       fx="9"
       fy="43.5"
       r="2" />
    <radialGradient
       inkscape:collect="always"
       xlink:href="#linearGradient3952"
       id="radialGradient4205"
       gradientUnits="userSpaceOnUse"
       gradientTransform="matrix(1.0571429,0,0,1.25,0.6,-10.875)"
       cx="40"
       cy="43.5"
       fx="40"
       fy="43.5"
       r="2" />
    <linearGradient
       inkscape:collect="always"
       xlink:href="#linearGradient3960"
       id="linearGradient4208"
       gradientUnits="userSpaceOnUse"
       x1="25"
       y1="45"
       x2="25"
       y2="42"
       gradientTransform="matrix(1.0571429,0,0,1.6666667,-5.4000003,-29)" />
    <radialGradient
       inkscape:collect="always"
       xlink:href="#linearGradient3944"
       id="radialGradient4211"
       gradientUnits="userSpaceOnUse"
       gradientTransform="matrix(1,0,0,0.75,-3.0000003,10.875)"
       cx="9"
       cy="43.5"
       fx="9"
       fy="43.5"
       r="2" />
    <radialGradient
       inkscape:collect="always"
       xlink:href="#linearGradient3952"
       id="radialGradient4214"
       gradientUnits="userSpaceOnUse"
       gradientTransform="matrix(1,0,0,0.75,2,10.875)"
       cx="40"
       cy="43.5"
       fx="40"
       fy="43.5"
       r="2" />
    <linearGradient
       inkscape:collect="always"
       xlink:href="#linearGradient3960"
       id="linearGradient4217"
       gradientUnits="userSpaceOnUse"
       x1="25"
       y1="45"
       x2="25"
       y2="42"
       gradientTransform="translate(-4.0000003,0)" />
    <clipPath
       clipPathUnits="userSpaceOnUse"
       id="clipPath3928">
      <path
         style="fill:#000000;fill-opacity:1;stroke:none;display:inline;enable-background:new"
         d="m 23.59375,11 c -0.24042,0.02284 -0.55561,0.07591 -0.8125,0.1875 0,0 -0.155265,0.541084 -0.28125,1.90625 -0.154301,1.669684 -0.799704,2.127709 -1.28125,2.46875 -0.481527,0.341022 -0.632092,0.417929 -0.8125,0.5 -0.943522,0.158386 -1.803896,0.258993 -3.09375,-0.8125 -1.054262,-0.875952 -1.5,-1.15625 -1.5,-1.15625 -0.520428,0.204398 -0.96875,0.75 -0.96875,0.75 0,0 -0.576035,0.447208 -0.78125,0.96875 0,0 0.311567,0.477007 1.1875,1.53125 1.071549,1.28978 0.970571,2.119258 0.8125,3.0625 -0.0817,0.179926 -0.190246,0.330768 -0.53125,0.8125 -0.340985,0.481713 -0.767853,1.126726 -2.4375,1.28125 -1.364962,0.126263 -1.875,0.28125 -1.875,0.28125 C 10.995319,23.29581 11,24 11,24 c 0,0 -0.0041,0.705025 0.21875,1.21875 0,0 0.509852,0.155822 1.875,0.28125 1.66961,0.154487 2.096199,0.79976 2.4375,1.28125 0.341301,0.481472 0.44955,0.632334 0.53125,0.8125 0.158757,0.943503 0.258937,1.804026 -0.8125,3.09375 -0.875934,1.054485 -1.1875,1.5 -1.1875,1.5 0.205958,0.521505 0.78125,1 0.78125,1 0,0 0.447375,0.544952 0.96875,0.75 0,0 0.445757,-0.279723 1.5,-1.15625 1.289854,-1.0714 2.150414,-0.969977 3.09375,-0.8125 0.180482,0.08189 0.330638,0.159052 0.8125,0.5 0.48188,0.340892 1.126726,0.767908 1.28125,2.4375 0.126078,1.36498 0.28125,1.875 0.28125,1.875 C 23.295736,37.004161 24,37 24,37 c 0,0 0.70523,0.0041 1.21875,-0.21875 0,0 0.155637,-0.509592 0.28125,-1.875 0.154487,-1.669592 0.784328,-2.100729 1.5625,-2.65625 l 0,-0.0625 c 0.184196,-0.06889 0.350972,-0.13705 0.53125,-0.21875 0.943447,-0.158757 1.772627,-0.258992 3.0625,0.8125 1.054261,0.875952 1.53125,1.15625 1.53125,1.15625 0.521597,-0.206162 0.96875,-0.75 0.96875,-0.75 0,0 0.544896,-0.478569 0.75,-1 0,0 -0.279537,-0.44572 -1.15625,-1.5 -1.071549,-1.28978 -0.970199,-2.150581 -0.8125,-3.09375 0.08189,-0.180482 0.181112,-0.315785 0.25,-0.5 l 0.0625,0 C 32.804909,26.31452 33.236585,25.654524 34.90625,25.5 36.271324,25.373922 36.8125,25.21875 36.8125,25.21875 37.035615,24.704245 37,24 37,24 c 0,0 0.03569,-0.704747 -0.1875,-1.21875 0,0 -0.541009,-0.155451 -1.90625,-0.28125 -1.669759,-0.154302 -2.100747,-0.783659 -2.65625,-1.5625 -0.06889,-0.184196 -0.230206,-0.35112 -0.3125,-0.53125 -0.158386,-0.94315 -0.259012,-1.772645 0.8125,-3.0625 0.875952,-1.054298 1.15625,-1.53125 1.15625,-1.53125 -0.20581,-0.521375 -0.75,-0.96875 -0.75,-0.96875 0,0 -0.447338,-0.544896 -0.96875,-0.75 0,0 -0.476598,0.279741 -1.53125,1.15625 -1.289817,1.071567 -2.067265,0.970349 -3.21875,0.46875 C 26.286034,15.217169 25.654357,14.763545 25.5,13.09375 25.373737,11.72875 25.21875,11.1875 25.21875,11.1875 24.704375,10.963902 23.999982,11 24,11 c 0,0 -0.165885,-0.02284 -0.40625,0 z M 24,18 c 3.313708,0 6,2.686292 6,6 0,3.313708 -2.686292,6 -6,6 -3.313708,0 -6,-2.686292 -6,-6 0,-3.313708 2.686292,-6 6,-6 z"
         id="path3930"
         inkscape:connector-curvature="0" />
    </clipPath>
    <linearGradient
       inkscape:collect="always"
       xlink:href="#outerBackgroundGradient-09"
       id="linearGradient5057"
       gradientUnits="userSpaceOnUse"
       gradientTransform="translate(0,-4)"
       x1="272"
       y1="288"
       x2="272"
       y2="32" />
    <linearGradient
       id="linearGradient4868">
      <stop
         offset="0"
         style="stop-color:#efedf5;stop-opacity:1;"
         id="stop4870" />
      <stop
         offset="1"
         style="stop-color:#c4c0d6;stop-opacity:1;"
         id="stop4872" />
    </linearGradient>
    <linearGradient
       id="linearGradient4861">
      <stop
         offset="0"
         style="stop-color:#efedf5;stop-opacity:1;"
         id="stop4863" />
      <stop
         offset="1"
         style="stop-color:#c4c0d6;stop-opacity:1;"
         id="stop4865" />
    </linearGradient>
    <linearGradient
       id="linearGradient4854">
      <stop
         offset="0"
         style="stop-color:#efedf5;stop-opacity:1;"
         id="stop4856" />
      <stop
         offset="1"
         style="stop-color:#c4c0d6;stop-opacity:1;"
         id="stop4858" />
    </linearGradient>
    <linearGradient
       id="linearGradient4847">
      <stop
         offset="0"
         style="stop-color:#efedf5;stop-opacity:1;"
         id="stop4849" />
      <stop
         offset="1"
         style="stop-color:#c4c0d6;stop-opacity:1;"
         id="stop4851" />
    </linearGradient>
    <linearGradient
       id="linearGradient4840">
      <stop
         offset="0"
         style="stop-color:#efedf5;stop-opacity:1;"
         id="stop4842" />
      <stop
         offset="1"
         style="stop-color:#c4c0d6;stop-opacity:1;"
         id="stop4844" />
    </linearGradient>
    <linearGradient
       id="linearGradient4833">
      <stop
         offset="0"
         style="stop-color:#efedf5;stop-opacity:1;"
         id="stop4835" />
      <stop
         offset="1"
         style="stop-color:#c4c0d6;stop-opacity:1;"
         id="stop4837" />
    </linearGradient>
    <linearGradient
       id="linearGradient3911">
      <stop
         offset="0"
         style="stop-color:#efedf5;stop-opacity:1;"
         id="stop3913" />
      <stop
         offset="1"
         style="stop-color:#c4c0d6;stop-opacity:1;"
         id="stop3915" />
    </linearGradient>
    <linearGradient
       id="outerBackgroundGradient-09">
      <stop
         id="stop3864-8-6-4"
         offset="0"
         style="stop-color:#493479;stop-opacity:1;" />
      <stop
         id="stop3866-9-1-16"
         offset="1"
         style="stop-color:#6b559e;stop-opacity:1;" />
    </linearGradient>
    <linearGradient
       y2="32"
       x2="272"
       y1="288"
       x1="272"
       gradientTransform="translate(0,-4)"
       gradientUnits="userSpaceOnUse"
       id="linearGradient3876-5"
       xlink:href="#outerBackgroundGradient-09"
       inkscape:collect="always" />
    <linearGradient
       id="outerBackgroundGradient-0-5">
      <stop
         id="stop3864-8-6-1"
         offset="0"
         style="stop-color:#4c4c4c;stop-opacity:1;" />
      <stop
         id="stop3866-9-1-7"
         offset="1"
         style="stop-color:#737373;stop-opacity:1;" />
    </linearGradient>
    <linearGradient
       y2="32"
       x2="272"
       y1="288"
       x1="272"
       gradientTransform="translate(0,-4)"
       gradientUnits="userSpaceOnUse"
       id="linearGradient3876-4"
       xlink:href="#outerBackgroundGradient-0-5"
       inkscape:collect="always" />
    <clipPath
       id="clipPath4708"
       clipPathUnits="userSpaceOnUse">
      <path
         inkscape:connector-curvature="0"
         id="path4710"
         style="font-size:12px;font-style:normal;font-variant:normal;font-weight:normal;font-stretch:normal;text-align:center;line-height:125%;letter-spacing:0px;word-spacing:0px;text-anchor:middle;fill:#73a6e5;fill-opacity:1;stroke:none;font-family:Comic Sans MS;-inkscape-font-specification:Comic Sans MS"
         d="m 324.53906,66.455078 c -0.24219,1.199221 -0.75196,2.158205 -1.52929,2.876953 -0.77345,0.714844 -1.68751,1.072265 -2.74219,1.072266 -0.96094,-10e-7 -1.68164,-0.267578 -2.16211,-0.802735 -0.48047,-0.539061 -0.7207,-1.345701 -0.7207,-2.419921 0,-1.011715 0.23828,-2.05273 0.71484,-3.123047 0.48047,-1.074212 1.0957,-1.941399 1.8457,-2.601563 0.5,-0.441397 1.0293,-0.6621 1.58789,-0.662109 0.35547,9e-6 0.82422,0.117196 1.40625,0.351562 0.71093,0.281259 1.0664,0.591806 1.06641,0.931641 -10e-6,0.160164 -0.0586,0.302742 -0.17578,0.427734 -0.1172,0.125008 -0.25782,0.187508 -0.42188,0.1875 -0.0859,8e-6 -0.20703,-0.04882 -0.36328,-0.146484 -0.59766,-0.363273 -1.10157,-0.544914 -1.51172,-0.544922 -0.29297,8e-6 -0.59961,0.152352 -0.91992,0.457031 -0.16016,0.152352 -0.39063,0.429695 -0.69141,0.832032 -0.90234,1.195318 -1.35351,2.492191 -1.35351,3.890625 0,0.734377 0.11328,1.248048 0.33984,1.541015 0.24609,0.320314 0.69922,0.48047 1.35938,0.480469 0.69921,10e-7 1.30663,-0.220702 1.82226,-0.662109 0.54297,-0.468748 0.92187,-1.13867 1.13672,-2.009766 -1.08203,0.05469 -2.00977,0.263675 -2.7832,0.626953 -0.0898,0.04297 -0.17774,0.06446 -0.26367,0.06445 -0.17188,3e-6 -0.31446,-0.0664 -0.42774,-0.199219 -0.10547,-0.12109 -0.1582,-0.261715 -0.1582,-0.421875 0,-0.21484 0.10351,-0.386714 0.31055,-0.515625 0.84374,-0.51562 2.29882,-0.773432 4.36523,-0.773437 0.16796,5e-6 0.30859,0.05665 0.42188,0.169922 0.11327,0.113286 0.16991,0.255864 0.16992,0.427734 -1e-5,0.25391 -0.10743,0.435551 -0.32227,0.544922" />
    </clipPath>
    <clipPath
       id="clipPath4704"
       clipPathUnits="userSpaceOnUse">
      <path
         inkscape:connector-curvature="0"
         id="path4706"
         style="font-size:12px;font-style:normal;font-variant:normal;font-weight:normal;font-stretch:normal;text-align:center;line-height:125%;letter-spacing:0px;word-spacing:0px;text-anchor:middle;fill:#73a6e5;fill-opacity:1;stroke:none;font-family:Comic Sans MS;-inkscape-font-specification:Comic Sans MS"
         d="m 324.53906,66.455078 c -0.24219,1.199221 -0.75196,2.158205 -1.52929,2.876953 -0.77345,0.714844 -1.68751,1.072265 -2.74219,1.072266 -0.96094,-10e-7 -1.68164,-0.267578 -2.16211,-0.802735 -0.48047,-0.539061 -0.7207,-1.345701 -0.7207,-2.419921 0,-1.011715 0.23828,-2.05273 0.71484,-3.123047 0.48047,-1.074212 1.0957,-1.941399 1.8457,-2.601563 0.5,-0.441397 1.0293,-0.6621 1.58789,-0.662109 0.35547,9e-6 0.82422,0.117196 1.40625,0.351562 0.71093,0.281259 1.0664,0.591806 1.06641,0.931641 -10e-6,0.160164 -0.0586,0.302742 -0.17578,0.427734 -0.1172,0.125008 -0.25782,0.187508 -0.42188,0.1875 -0.0859,8e-6 -0.20703,-0.04882 -0.36328,-0.146484 -0.59766,-0.363273 -1.10157,-0.544914 -1.51172,-0.544922 -0.29297,8e-6 -0.59961,0.152352 -0.91992,0.457031 -0.16016,0.152352 -0.39063,0.429695 -0.69141,0.832032 -0.90234,1.195318 -1.35351,2.492191 -1.35351,3.890625 0,0.734377 0.11328,1.248048 0.33984,1.541015 0.24609,0.320314 0.69922,0.48047 1.35938,0.480469 0.69921,10e-7 1.30663,-0.220702 1.82226,-0.662109 0.54297,-0.468748 0.92187,-1.13867 1.13672,-2.009766 -1.08203,0.05469 -2.00977,0.263675 -2.7832,0.626953 -0.0898,0.04297 -0.17774,0.06446 -0.26367,0.06445 -0.17188,3e-6 -0.31446,-0.0664 -0.42774,-0.199219 -0.10547,-0.12109 -0.1582,-0.261715 -0.1582,-0.421875 0,-0.21484 0.10351,-0.386714 0.31055,-0.515625 0.84374,-0.51562 2.29882,-0.773432 4.36523,-0.773437 0.16796,5e-6 0.30859,0.05665 0.42188,0.169922 0.11327,0.113286 0.16991,0.255864 0.16992,0.427734 -1e-5,0.25391 -0.10743,0.435551 -0.32227,0.544922" />
    </clipPath>
    <clipPath
       id="clipPath4700"
       clipPathUnits="userSpaceOnUse">
      <path
         inkscape:connector-curvature="0"
         id="path4702"
         style="font-size:12px;font-style:normal;font-variant:normal;font-weight:normal;font-stretch:normal;text-align:center;line-height:125%;letter-spacing:0px;word-spacing:0px;text-anchor:middle;fill:#73a6e5;fill-opacity:1;stroke:none;font-family:Comic Sans MS;-inkscape-font-specification:Comic Sans MS"
         d="m 324.53906,66.455078 c -0.24219,1.199221 -0.75196,2.158205 -1.52929,2.876953 -0.77345,0.714844 -1.68751,1.072265 -2.74219,1.072266 -0.96094,-10e-7 -1.68164,-0.267578 -2.16211,-0.802735 -0.48047,-0.539061 -0.7207,-1.345701 -0.7207,-2.419921 0,-1.011715 0.23828,-2.05273 0.71484,-3.123047 0.48047,-1.074212 1.0957,-1.941399 1.8457,-2.601563 0.5,-0.441397 1.0293,-0.6621 1.58789,-0.662109 0.35547,9e-6 0.82422,0.117196 1.40625,0.351562 0.71093,0.281259 1.0664,0.591806 1.06641,0.931641 -10e-6,0.160164 -0.0586,0.302742 -0.17578,0.427734 -0.1172,0.125008 -0.25782,0.187508 -0.42188,0.1875 -0.0859,8e-6 -0.20703,-0.04882 -0.36328,-0.146484 -0.59766,-0.363273 -1.10157,-0.544914 -1.51172,-0.544922 -0.29297,8e-6 -0.59961,0.152352 -0.91992,0.457031 -0.16016,0.152352 -0.39063,0.429695 -0.69141,0.832032 -0.90234,1.195318 -1.35351,2.492191 -1.35351,3.890625 0,0.734377 0.11328,1.248048 0.33984,1.541015 0.24609,0.320314 0.69922,0.48047 1.35938,0.480469 0.69921,10e-7 1.30663,-0.220702 1.82226,-0.662109 0.54297,-0.468748 0.92187,-1.13867 1.13672,-2.009766 -1.08203,0.05469 -2.00977,0.263675 -2.7832,0.626953 -0.0898,0.04297 -0.17774,0.06446 -0.26367,0.06445 -0.17188,3e-6 -0.31446,-0.0664 -0.42774,-0.199219 -0.10547,-0.12109 -0.1582,-0.261715 -0.1582,-0.421875 0,-0.21484 0.10351,-0.386714 0.31055,-0.515625 0.84374,-0.51562 2.29882,-0.773432 4.36523,-0.773437 0.16796,5e-6 0.30859,0.05665 0.42188,0.169922 0.11327,0.113286 0.16991,0.255864 0.16992,0.427734 -1e-5,0.25391 -0.10743,0.435551 -0.32227,0.544922" />
    </clipPath>
    <clipPath
       id="clipPath4696"
       clipPathUnits="userSpaceOnUse">
      <path
         inkscape:connector-curvature="0"
         id="path4698"
         style="font-size:12px;font-style:normal;font-variant:normal;font-weight:normal;font-stretch:normal;text-align:center;line-height:125%;letter-spacing:0px;word-spacing:0px;text-anchor:middle;fill:#73a6e5;fill-opacity:1;stroke:none;font-family:Comic Sans MS;-inkscape-font-specification:Comic Sans MS"
         d="m 324.53906,66.455078 c -0.24219,1.199221 -0.75196,2.158205 -1.52929,2.876953 -0.77345,0.714844 -1.68751,1.072265 -2.74219,1.072266 -0.96094,-10e-7 -1.68164,-0.267578 -2.16211,-0.802735 -0.48047,-0.539061 -0.7207,-1.345701 -0.7207,-2.419921 0,-1.011715 0.23828,-2.05273 0.71484,-3.123047 0.48047,-1.074212 1.0957,-1.941399 1.8457,-2.601563 0.5,-0.441397 1.0293,-0.6621 1.58789,-0.662109 0.35547,9e-6 0.82422,0.117196 1.40625,0.351562 0.71093,0.281259 1.0664,0.591806 1.06641,0.931641 -10e-6,0.160164 -0.0586,0.302742 -0.17578,0.427734 -0.1172,0.125008 -0.25782,0.187508 -0.42188,0.1875 -0.0859,8e-6 -0.20703,-0.04882 -0.36328,-0.146484 -0.59766,-0.363273 -1.10157,-0.544914 -1.51172,-0.544922 -0.29297,8e-6 -0.59961,0.152352 -0.91992,0.457031 -0.16016,0.152352 -0.39063,0.429695 -0.69141,0.832032 -0.90234,1.195318 -1.35351,2.492191 -1.35351,3.890625 0,0.734377 0.11328,1.248048 0.33984,1.541015 0.24609,0.320314 0.69922,0.48047 1.35938,0.480469 0.69921,10e-7 1.30663,-0.220702 1.82226,-0.662109 0.54297,-0.468748 0.92187,-1.13867 1.13672,-2.009766 -1.08203,0.05469 -2.00977,0.263675 -2.7832,0.626953 -0.0898,0.04297 -0.17774,0.06446 -0.26367,0.06445 -0.17188,3e-6 -0.31446,-0.0664 -0.42774,-0.199219 -0.10547,-0.12109 -0.1582,-0.261715 -0.1582,-0.421875 0,-0.21484 0.10351,-0.386714 0.31055,-0.515625 0.84374,-0.51562 2.29882,-0.773432 4.36523,-0.773437 0.16796,5e-6 0.30859,0.05665 0.42188,0.169922 0.11327,0.113286 0.16991,0.255864 0.16992,0.427734 -1e-5,0.25391 -0.10743,0.435551 -0.32227,0.544922" />
    </clipPath>
    <clipPath
       id="clipPath4692"
       clipPathUnits="userSpaceOnUse">
      <path
         inkscape:connector-curvature="0"
         id="path4694"
         style="font-size:12px;font-style:normal;font-variant:normal;font-weight:normal;font-stretch:normal;text-align:center;line-height:125%;letter-spacing:0px;word-spacing:0px;text-anchor:middle;fill:#73a6e5;fill-opacity:1;stroke:none;font-family:Comic Sans MS;-inkscape-font-specification:Comic Sans MS"
         d="m 324.53906,66.455078 c -0.24219,1.199221 -0.75196,2.158205 -1.52929,2.876953 -0.77345,0.714844 -1.68751,1.072265 -2.74219,1.072266 -0.96094,-10e-7 -1.68164,-0.267578 -2.16211,-0.802735 -0.48047,-0.539061 -0.7207,-1.345701 -0.7207,-2.419921 0,-1.011715 0.23828,-2.05273 0.71484,-3.123047 0.48047,-1.074212 1.0957,-1.941399 1.8457,-2.601563 0.5,-0.441397 1.0293,-0.6621 1.58789,-0.662109 0.35547,9e-6 0.82422,0.117196 1.40625,0.351562 0.71093,0.281259 1.0664,0.591806 1.06641,0.931641 -10e-6,0.160164 -0.0586,0.302742 -0.17578,0.427734 -0.1172,0.125008 -0.25782,0.187508 -0.42188,0.1875 -0.0859,8e-6 -0.20703,-0.04882 -0.36328,-0.146484 -0.59766,-0.363273 -1.10157,-0.544914 -1.51172,-0.544922 -0.29297,8e-6 -0.59961,0.152352 -0.91992,0.457031 -0.16016,0.152352 -0.39063,0.429695 -0.69141,0.832032 -0.90234,1.195318 -1.35351,2.492191 -1.35351,3.890625 0,0.734377 0.11328,1.248048 0.33984,1.541015 0.24609,0.320314 0.69922,0.48047 1.35938,0.480469 0.69921,10e-7 1.30663,-0.220702 1.82226,-0.662109 0.54297,-0.468748 0.92187,-1.13867 1.13672,-2.009766 -1.08203,0.05469 -2.00977,0.263675 -2.7832,0.626953 -0.0898,0.04297 -0.17774,0.06446 -0.26367,0.06445 -0.17188,3e-6 -0.31446,-0.0664 -0.42774,-0.199219 -0.10547,-0.12109 -0.1582,-0.261715 -0.1582,-0.421875 0,-0.21484 0.10351,-0.386714 0.31055,-0.515625 0.84374,-0.51562 2.29882,-0.773432 4.36523,-0.773437 0.16796,5e-6 0.30859,0.05665 0.42188,0.169922 0.11327,0.113286 0.16991,0.255864 0.16992,0.427734 -1e-5,0.25391 -0.10743,0.435551 -0.32227,0.544922" />
    </clipPath>
    <clipPath
       id="clipPath4688"
       clipPathUnits="userSpaceOnUse">
      <path
         inkscape:connector-curvature="0"
         id="path4690"
         style="font-size:12px;font-style:normal;font-variant:normal;font-weight:normal;font-stretch:normal;text-align:center;line-height:125%;letter-spacing:0px;word-spacing:0px;text-anchor:middle;fill:#73a6e5;fill-opacity:1;stroke:none;font-family:Comic Sans MS;-inkscape-font-specification:Comic Sans MS"
         d="m 324.53906,66.455078 c -0.24219,1.199221 -0.75196,2.158205 -1.52929,2.876953 -0.77345,0.714844 -1.68751,1.072265 -2.74219,1.072266 -0.96094,-10e-7 -1.68164,-0.267578 -2.16211,-0.802735 -0.48047,-0.539061 -0.7207,-1.345701 -0.7207,-2.419921 0,-1.011715 0.23828,-2.05273 0.71484,-3.123047 0.48047,-1.074212 1.0957,-1.941399 1.8457,-2.601563 0.5,-0.441397 1.0293,-0.6621 1.58789,-0.662109 0.35547,9e-6 0.82422,0.117196 1.40625,0.351562 0.71093,0.281259 1.0664,0.591806 1.06641,0.931641 -10e-6,0.160164 -0.0586,0.302742 -0.17578,0.427734 -0.1172,0.125008 -0.25782,0.187508 -0.42188,0.1875 -0.0859,8e-6 -0.20703,-0.04882 -0.36328,-0.146484 -0.59766,-0.363273 -1.10157,-0.544914 -1.51172,-0.544922 -0.29297,8e-6 -0.59961,0.152352 -0.91992,0.457031 -0.16016,0.152352 -0.39063,0.429695 -0.69141,0.832032 -0.90234,1.195318 -1.35351,2.492191 -1.35351,3.890625 0,0.734377 0.11328,1.248048 0.33984,1.541015 0.24609,0.320314 0.69922,0.48047 1.35938,0.480469 0.69921,10e-7 1.30663,-0.220702 1.82226,-0.662109 0.54297,-0.468748 0.92187,-1.13867 1.13672,-2.009766 -1.08203,0.05469 -2.00977,0.263675 -2.7832,0.626953 -0.0898,0.04297 -0.17774,0.06446 -0.26367,0.06445 -0.17188,3e-6 -0.31446,-0.0664 -0.42774,-0.199219 -0.10547,-0.12109 -0.1582,-0.261715 -0.1582,-0.421875 0,-0.21484 0.10351,-0.386714 0.31055,-0.515625 0.84374,-0.51562 2.29882,-0.773432 4.36523,-0.773437 0.16796,5e-6 0.30859,0.05665 0.42188,0.169922 0.11327,0.113286 0.16991,0.255864 0.16992,0.427734 -1e-5,0.25391 -0.10743,0.435551 -0.32227,0.544922" />
    </clipPath>
    <clipPath
       id="clipPath4684"
       clipPathUnits="userSpaceOnUse">
      <path
         inkscape:connector-curvature="0"
         id="path4686"
         style="font-size:12px;font-style:normal;font-variant:normal;font-weight:normal;font-stretch:normal;text-align:center;line-height:125%;letter-spacing:0px;word-spacing:0px;text-anchor:middle;fill:#73a6e5;fill-opacity:1;stroke:none;font-family:Comic Sans MS;-inkscape-font-specification:Comic Sans MS"
         d="m 324.53906,66.455078 c -0.24219,1.199221 -0.75196,2.158205 -1.52929,2.876953 -0.77345,0.714844 -1.68751,1.072265 -2.74219,1.072266 -0.96094,-10e-7 -1.68164,-0.267578 -2.16211,-0.802735 -0.48047,-0.539061 -0.7207,-1.345701 -0.7207,-2.419921 0,-1.011715 0.23828,-2.05273 0.71484,-3.123047 0.48047,-1.074212 1.0957,-1.941399 1.8457,-2.601563 0.5,-0.441397 1.0293,-0.6621 1.58789,-0.662109 0.35547,9e-6 0.82422,0.117196 1.40625,0.351562 0.71093,0.281259 1.0664,0.591806 1.06641,0.931641 -10e-6,0.160164 -0.0586,0.302742 -0.17578,0.427734 -0.1172,0.125008 -0.25782,0.187508 -0.42188,0.1875 -0.0859,8e-6 -0.20703,-0.04882 -0.36328,-0.146484 -0.59766,-0.363273 -1.10157,-0.544914 -1.51172,-0.544922 -0.29297,8e-6 -0.59961,0.152352 -0.91992,0.457031 -0.16016,0.152352 -0.39063,0.429695 -0.69141,0.832032 -0.90234,1.195318 -1.35351,2.492191 -1.35351,3.890625 0,0.734377 0.11328,1.248048 0.33984,1.541015 0.24609,0.320314 0.69922,0.48047 1.35938,0.480469 0.69921,10e-7 1.30663,-0.220702 1.82226,-0.662109 0.54297,-0.468748 0.92187,-1.13867 1.13672,-2.009766 -1.08203,0.05469 -2.00977,0.263675 -2.7832,0.626953 -0.0898,0.04297 -0.17774,0.06446 -0.26367,0.06445 -0.17188,3e-6 -0.31446,-0.0664 -0.42774,-0.199219 -0.10547,-0.12109 -0.1582,-0.261715 -0.1582,-0.421875 0,-0.21484 0.10351,-0.386714 0.31055,-0.515625 0.84374,-0.51562 2.29882,-0.773432 4.36523,-0.773437 0.16796,5e-6 0.30859,0.05665 0.42188,0.169922 0.11327,0.113286 0.16991,0.255864 0.16992,0.427734 -1e-5,0.25391 -0.10743,0.435551 -0.32227,0.544922" />
    </clipPath>
    <clipPath
       id="clipPath4680"
       clipPathUnits="userSpaceOnUse">
      <path
         inkscape:connector-curvature="0"
         id="path4682"
         style="font-size:12px;font-style:normal;font-variant:normal;font-weight:normal;font-stretch:normal;text-align:center;line-height:125%;letter-spacing:0px;word-spacing:0px;text-anchor:middle;fill:#73a6e5;fill-opacity:1;stroke:none;font-family:Comic Sans MS;-inkscape-font-specification:Comic Sans MS"
         d="m 324.53906,66.455078 c -0.24219,1.199221 -0.75196,2.158205 -1.52929,2.876953 -0.77345,0.714844 -1.68751,1.072265 -2.74219,1.072266 -0.96094,-10e-7 -1.68164,-0.267578 -2.16211,-0.802735 -0.48047,-0.539061 -0.7207,-1.345701 -0.7207,-2.419921 0,-1.011715 0.23828,-2.05273 0.71484,-3.123047 0.48047,-1.074212 1.0957,-1.941399 1.8457,-2.601563 0.5,-0.441397 1.0293,-0.6621 1.58789,-0.662109 0.35547,9e-6 0.82422,0.117196 1.40625,0.351562 0.71093,0.281259 1.0664,0.591806 1.06641,0.931641 -10e-6,0.160164 -0.0586,0.302742 -0.17578,0.427734 -0.1172,0.125008 -0.25782,0.187508 -0.42188,0.1875 -0.0859,8e-6 -0.20703,-0.04882 -0.36328,-0.146484 -0.59766,-0.363273 -1.10157,-0.544914 -1.51172,-0.544922 -0.29297,8e-6 -0.59961,0.152352 -0.91992,0.457031 -0.16016,0.152352 -0.39063,0.429695 -0.69141,0.832032 -0.90234,1.195318 -1.35351,2.492191 -1.35351,3.890625 0,0.734377 0.11328,1.248048 0.33984,1.541015 0.24609,0.320314 0.69922,0.48047 1.35938,0.480469 0.69921,10e-7 1.30663,-0.220702 1.82226,-0.662109 0.54297,-0.468748 0.92187,-1.13867 1.13672,-2.009766 -1.08203,0.05469 -2.00977,0.263675 -2.7832,0.626953 -0.0898,0.04297 -0.17774,0.06446 -0.26367,0.06445 -0.17188,3e-6 -0.31446,-0.0664 -0.42774,-0.199219 -0.10547,-0.12109 -0.1582,-0.261715 -0.1582,-0.421875 0,-0.21484 0.10351,-0.386714 0.31055,-0.515625 0.84374,-0.51562 2.29882,-0.773432 4.36523,-0.773437 0.16796,5e-6 0.30859,0.05665 0.42188,0.169922 0.11327,0.113286 0.16991,0.255864 0.16992,0.427734 -1e-5,0.25391 -0.10743,0.435551 -0.32227,0.544922" />
    </clipPath>
    <clipPath
       id="clipPath4676"
       clipPathUnits="userSpaceOnUse">
      <path
         inkscape:connector-curvature="0"
         id="path4678"
         style="font-size:12px;font-style:normal;font-variant:normal;font-weight:normal;font-stretch:normal;text-align:center;line-height:125%;letter-spacing:0px;word-spacing:0px;text-anchor:middle;fill:#73a6e5;fill-opacity:1;stroke:none;font-family:Comic Sans MS;-inkscape-font-specification:Comic Sans MS"
         d="m 324.53906,66.455078 c -0.24219,1.199221 -0.75196,2.158205 -1.52929,2.876953 -0.77345,0.714844 -1.68751,1.072265 -2.74219,1.072266 -0.96094,-10e-7 -1.68164,-0.267578 -2.16211,-0.802735 -0.48047,-0.539061 -0.7207,-1.345701 -0.7207,-2.419921 0,-1.011715 0.23828,-2.05273 0.71484,-3.123047 0.48047,-1.074212 1.0957,-1.941399 1.8457,-2.601563 0.5,-0.441397 1.0293,-0.6621 1.58789,-0.662109 0.35547,9e-6 0.82422,0.117196 1.40625,0.351562 0.71093,0.281259 1.0664,0.591806 1.06641,0.931641 -10e-6,0.160164 -0.0586,0.302742 -0.17578,0.427734 -0.1172,0.125008 -0.25782,0.187508 -0.42188,0.1875 -0.0859,8e-6 -0.20703,-0.04882 -0.36328,-0.146484 -0.59766,-0.363273 -1.10157,-0.544914 -1.51172,-0.544922 -0.29297,8e-6 -0.59961,0.152352 -0.91992,0.457031 -0.16016,0.152352 -0.39063,0.429695 -0.69141,0.832032 -0.90234,1.195318 -1.35351,2.492191 -1.35351,3.890625 0,0.734377 0.11328,1.248048 0.33984,1.541015 0.24609,0.320314 0.69922,0.48047 1.35938,0.480469 0.69921,10e-7 1.30663,-0.220702 1.82226,-0.662109 0.54297,-0.468748 0.92187,-1.13867 1.13672,-2.009766 -1.08203,0.05469 -2.00977,0.263675 -2.7832,0.626953 -0.0898,0.04297 -0.17774,0.06446 -0.26367,0.06445 -0.17188,3e-6 -0.31446,-0.0664 -0.42774,-0.199219 -0.10547,-0.12109 -0.1582,-0.261715 -0.1582,-0.421875 0,-0.21484 0.10351,-0.386714 0.31055,-0.515625 0.84374,-0.51562 2.29882,-0.773432 4.36523,-0.773437 0.16796,5e-6 0.30859,0.05665 0.42188,0.169922 0.11327,0.113286 0.16991,0.255864 0.16992,0.427734 -1e-5,0.25391 -0.10743,0.435551 -0.32227,0.544922" />
    </clipPath>
    <clipPath
       id="clipPath3246-2"
       clipPathUnits="userSpaceOnUse">
      <path
         inkscape:connector-curvature="0"
         id="path3248-9"
         style="font-size:12px;font-style:normal;font-variant:normal;font-weight:normal;font-stretch:normal;text-align:center;line-height:125%;letter-spacing:0px;word-spacing:0px;text-anchor:middle;fill:#73a6e5;fill-opacity:1;stroke:none;font-family:Comic Sans MS;-inkscape-font-specification:Comic Sans MS"
         d="m 324.53906,66.455078 c -0.24219,1.199221 -0.75196,2.158205 -1.52929,2.876953 -0.77345,0.714844 -1.68751,1.072265 -2.74219,1.072266 -0.96094,-10e-7 -1.68164,-0.267578 -2.16211,-0.802735 -0.48047,-0.539061 -0.7207,-1.345701 -0.7207,-2.419921 0,-1.011715 0.23828,-2.05273 0.71484,-3.123047 0.48047,-1.074212 1.0957,-1.941399 1.8457,-2.601563 0.5,-0.441397 1.0293,-0.6621 1.58789,-0.662109 0.35547,9e-6 0.82422,0.117196 1.40625,0.351562 0.71093,0.281259 1.0664,0.591806 1.06641,0.931641 -10e-6,0.160164 -0.0586,0.302742 -0.17578,0.427734 -0.1172,0.125008 -0.25782,0.187508 -0.42188,0.1875 -0.0859,8e-6 -0.20703,-0.04882 -0.36328,-0.146484 -0.59766,-0.363273 -1.10157,-0.544914 -1.51172,-0.544922 -0.29297,8e-6 -0.59961,0.152352 -0.91992,0.457031 -0.16016,0.152352 -0.39063,0.429695 -0.69141,0.832032 -0.90234,1.195318 -1.35351,2.492191 -1.35351,3.890625 0,0.734377 0.11328,1.248048 0.33984,1.541015 0.24609,0.320314 0.69922,0.48047 1.35938,0.480469 0.69921,10e-7 1.30663,-0.220702 1.82226,-0.662109 0.54297,-0.468748 0.92187,-1.13867 1.13672,-2.009766 -1.08203,0.05469 -2.00977,0.263675 -2.7832,0.626953 -0.0898,0.04297 -0.17774,0.06446 -0.26367,0.06445 -0.17188,3e-6 -0.31446,-0.0664 -0.42774,-0.199219 -0.10547,-0.12109 -0.1582,-0.261715 -0.1582,-0.421875 0,-0.21484 0.10351,-0.386714 0.31055,-0.515625 0.84374,-0.51562 2.29882,-0.773432 4.36523,-0.773437 0.16796,5e-6 0.30859,0.05665 0.42188,0.169922 0.11327,0.113286 0.16991,0.255864 0.16992,0.427734 -1e-5,0.25391 -0.10743,0.435551 -0.32227,0.544922" />
    </clipPath>
    <clipPath
       id="clipPath4670"
       clipPathUnits="userSpaceOnUse">
      <path
         inkscape:connector-curvature="0"
         id="path4672"
         style="font-size:12px;font-style:normal;font-variant:normal;font-weight:normal;font-stretch:normal;text-align:center;line-height:125%;letter-spacing:0px;word-spacing:0px;text-anchor:middle;fill:#73a6e5;fill-opacity:1;stroke:none;font-family:Comic Sans MS;-inkscape-font-specification:Comic Sans MS"
         d="m 324.53906,66.455078 c -0.24219,1.199221 -0.75196,2.158205 -1.52929,2.876953 -0.77345,0.714844 -1.68751,1.072265 -2.74219,1.072266 -0.96094,-10e-7 -1.68164,-0.267578 -2.16211,-0.802735 -0.48047,-0.539061 -0.7207,-1.345701 -0.7207,-2.419921 0,-1.011715 0.23828,-2.05273 0.71484,-3.123047 0.48047,-1.074212 1.0957,-1.941399 1.8457,-2.601563 0.5,-0.441397 1.0293,-0.6621 1.58789,-0.662109 0.35547,9e-6 0.82422,0.117196 1.40625,0.351562 0.71093,0.281259 1.0664,0.591806 1.06641,0.931641 -10e-6,0.160164 -0.0586,0.302742 -0.17578,0.427734 -0.1172,0.125008 -0.25782,0.187508 -0.42188,0.1875 -0.0859,8e-6 -0.20703,-0.04882 -0.36328,-0.146484 -0.59766,-0.363273 -1.10157,-0.544914 -1.51172,-0.544922 -0.29297,8e-6 -0.59961,0.152352 -0.91992,0.457031 -0.16016,0.152352 -0.39063,0.429695 -0.69141,0.832032 -0.90234,1.195318 -1.35351,2.492191 -1.35351,3.890625 0,0.734377 0.11328,1.248048 0.33984,1.541015 0.24609,0.320314 0.69922,0.48047 1.35938,0.480469 0.69921,10e-7 1.30663,-0.220702 1.82226,-0.662109 0.54297,-0.468748 0.92187,-1.13867 1.13672,-2.009766 -1.08203,0.05469 -2.00977,0.263675 -2.7832,0.626953 -0.0898,0.04297 -0.17774,0.06446 -0.26367,0.06445 -0.17188,3e-6 -0.31446,-0.0664 -0.42774,-0.199219 -0.10547,-0.12109 -0.1582,-0.261715 -0.1582,-0.421875 0,-0.21484 0.10351,-0.386714 0.31055,-0.515625 0.84374,-0.51562 2.29882,-0.773432 4.36523,-0.773437 0.16796,5e-6 0.30859,0.05665 0.42188,0.169922 0.11327,0.113286 0.16991,0.255864 0.16992,0.427734 -1e-5,0.25391 -0.10743,0.435551 -0.32227,0.544922" />
    </clipPath>
    <clipPath
       id="clipPath4666"
       clipPathUnits="userSpaceOnUse">
      <path
         inkscape:connector-curvature="0"
         id="path4668"
         style="font-size:12px;font-style:normal;font-variant:normal;font-weight:normal;font-stretch:normal;text-align:center;line-height:125%;letter-spacing:0px;word-spacing:0px;text-anchor:middle;fill:#73a6e5;fill-opacity:1;stroke:none;font-family:Comic Sans MS;-inkscape-font-specification:Comic Sans MS"
         d="m 324.53906,66.455078 c -0.24219,1.199221 -0.75196,2.158205 -1.52929,2.876953 -0.77345,0.714844 -1.68751,1.072265 -2.74219,1.072266 -0.96094,-10e-7 -1.68164,-0.267578 -2.16211,-0.802735 -0.48047,-0.539061 -0.7207,-1.345701 -0.7207,-2.419921 0,-1.011715 0.23828,-2.05273 0.71484,-3.123047 0.48047,-1.074212 1.0957,-1.941399 1.8457,-2.601563 0.5,-0.441397 1.0293,-0.6621 1.58789,-0.662109 0.35547,9e-6 0.82422,0.117196 1.40625,0.351562 0.71093,0.281259 1.0664,0.591806 1.06641,0.931641 -10e-6,0.160164 -0.0586,0.302742 -0.17578,0.427734 -0.1172,0.125008 -0.25782,0.187508 -0.42188,0.1875 -0.0859,8e-6 -0.20703,-0.04882 -0.36328,-0.146484 -0.59766,-0.363273 -1.10157,-0.544914 -1.51172,-0.544922 -0.29297,8e-6 -0.59961,0.152352 -0.91992,0.457031 -0.16016,0.152352 -0.39063,0.429695 -0.69141,0.832032 -0.90234,1.195318 -1.35351,2.492191 -1.35351,3.890625 0,0.734377 0.11328,1.248048 0.33984,1.541015 0.24609,0.320314 0.69922,0.48047 1.35938,0.480469 0.69921,10e-7 1.30663,-0.220702 1.82226,-0.662109 0.54297,-0.468748 0.92187,-1.13867 1.13672,-2.009766 -1.08203,0.05469 -2.00977,0.263675 -2.7832,0.626953 -0.0898,0.04297 -0.17774,0.06446 -0.26367,0.06445 -0.17188,3e-6 -0.31446,-0.0664 -0.42774,-0.199219 -0.10547,-0.12109 -0.1582,-0.261715 -0.1582,-0.421875 0,-0.21484 0.10351,-0.386714 0.31055,-0.515625 0.84374,-0.51562 2.29882,-0.773432 4.36523,-0.773437 0.16796,5e-6 0.30859,0.05665 0.42188,0.169922 0.11327,0.113286 0.16991,0.255864 0.16992,0.427734 -1e-5,0.25391 -0.10743,0.435551 -0.32227,0.544922" />
    </clipPath>
    <clipPath
       id="clipPath4662"
       clipPathUnits="userSpaceOnUse">
      <path
         inkscape:connector-curvature="0"
         id="path4664"
         style="font-size:12px;font-style:normal;font-variant:normal;font-weight:normal;font-stretch:normal;text-align:center;line-height:125%;letter-spacing:0px;word-spacing:0px;text-anchor:middle;fill:#73a6e5;fill-opacity:1;stroke:none;font-family:Comic Sans MS;-inkscape-font-specification:Comic Sans MS"
         d="m 324.53906,66.455078 c -0.24219,1.199221 -0.75196,2.158205 -1.52929,2.876953 -0.77345,0.714844 -1.68751,1.072265 -2.74219,1.072266 -0.96094,-10e-7 -1.68164,-0.267578 -2.16211,-0.802735 -0.48047,-0.539061 -0.7207,-1.345701 -0.7207,-2.419921 0,-1.011715 0.23828,-2.05273 0.71484,-3.123047 0.48047,-1.074212 1.0957,-1.941399 1.8457,-2.601563 0.5,-0.441397 1.0293,-0.6621 1.58789,-0.662109 0.35547,9e-6 0.82422,0.117196 1.40625,0.351562 0.71093,0.281259 1.0664,0.591806 1.06641,0.931641 -10e-6,0.160164 -0.0586,0.302742 -0.17578,0.427734 -0.1172,0.125008 -0.25782,0.187508 -0.42188,0.1875 -0.0859,8e-6 -0.20703,-0.04882 -0.36328,-0.146484 -0.59766,-0.363273 -1.10157,-0.544914 -1.51172,-0.544922 -0.29297,8e-6 -0.59961,0.152352 -0.91992,0.457031 -0.16016,0.152352 -0.39063,0.429695 -0.69141,0.832032 -0.90234,1.195318 -1.35351,2.492191 -1.35351,3.890625 0,0.734377 0.11328,1.248048 0.33984,1.541015 0.24609,0.320314 0.69922,0.48047 1.35938,0.480469 0.69921,10e-7 1.30663,-0.220702 1.82226,-0.662109 0.54297,-0.468748 0.92187,-1.13867 1.13672,-2.009766 -1.08203,0.05469 -2.00977,0.263675 -2.7832,0.626953 -0.0898,0.04297 -0.17774,0.06446 -0.26367,0.06445 -0.17188,3e-6 -0.31446,-0.0664 -0.42774,-0.199219 -0.10547,-0.12109 -0.1582,-0.261715 -0.1582,-0.421875 0,-0.21484 0.10351,-0.386714 0.31055,-0.515625 0.84374,-0.51562 2.29882,-0.773432 4.36523,-0.773437 0.16796,5e-6 0.30859,0.05665 0.42188,0.169922 0.11327,0.113286 0.16991,0.255864 0.16992,0.427734 -1e-5,0.25391 -0.10743,0.435551 -0.32227,0.544922" />
    </clipPath>
    <clipPath
       id="clipPath3246"
       clipPathUnits="userSpaceOnUse">
      <path
         inkscape:connector-curvature="0"
         id="path3248"
         style="font-size:12px;font-style:normal;font-variant:normal;font-weight:normal;font-stretch:normal;text-align:center;line-height:125%;letter-spacing:0px;word-spacing:0px;text-anchor:middle;fill:#73a6e5;fill-opacity:1;stroke:none;font-family:Comic Sans MS;-inkscape-font-specification:Comic Sans MS"
         d="m 324.53906,66.455078 c -0.24219,1.199221 -0.75196,2.158205 -1.52929,2.876953 -0.77345,0.714844 -1.68751,1.072265 -2.74219,1.072266 -0.96094,-10e-7 -1.68164,-0.267578 -2.16211,-0.802735 -0.48047,-0.539061 -0.7207,-1.345701 -0.7207,-2.419921 0,-1.011715 0.23828,-2.05273 0.71484,-3.123047 0.48047,-1.074212 1.0957,-1.941399 1.8457,-2.601563 0.5,-0.441397 1.0293,-0.6621 1.58789,-0.662109 0.35547,9e-6 0.82422,0.117196 1.40625,0.351562 0.71093,0.281259 1.0664,0.591806 1.06641,0.931641 -10e-6,0.160164 -0.0586,0.302742 -0.17578,0.427734 -0.1172,0.125008 -0.25782,0.187508 -0.42188,0.1875 -0.0859,8e-6 -0.20703,-0.04882 -0.36328,-0.146484 -0.59766,-0.363273 -1.10157,-0.544914 -1.51172,-0.544922 -0.29297,8e-6 -0.59961,0.152352 -0.91992,0.457031 -0.16016,0.152352 -0.39063,0.429695 -0.69141,0.832032 -0.90234,1.195318 -1.35351,2.492191 -1.35351,3.890625 0,0.734377 0.11328,1.248048 0.33984,1.541015 0.24609,0.320314 0.69922,0.48047 1.35938,0.480469 0.69921,10e-7 1.30663,-0.220702 1.82226,-0.662109 0.54297,-0.468748 0.92187,-1.13867 1.13672,-2.009766 -1.08203,0.05469 -2.00977,0.263675 -2.7832,0.626953 -0.0898,0.04297 -0.17774,0.06446 -0.26367,0.06445 -0.17188,3e-6 -0.31446,-0.0664 -0.42774,-0.199219 -0.10547,-0.12109 -0.1582,-0.261715 -0.1582,-0.421875 0,-0.21484 0.10351,-0.386714 0.31055,-0.515625 0.84374,-0.51562 2.29882,-0.773432 4.36523,-0.773437 0.16796,5e-6 0.30859,0.05665 0.42188,0.169922 0.11327,0.113286 0.16991,0.255864 0.16992,0.427734 -1e-5,0.25391 -0.10743,0.435551 -0.32227,0.544922" />
    </clipPath>
    <linearGradient
       id="outerBackgroundGradient-9">
      <stop
         id="stop3864-8-6-5"
         offset="0"
         style="stop-color:#313131;stop-opacity:1" />
      <stop
         id="stop3866-9-1-1"
         offset="1"
         style="stop-color:#535353;stop-opacity:1" />
    </linearGradient>
    <linearGradient
       y2="32"
       x2="272"
       y1="288"
       x1="272"
       gradientTransform="translate(0,-4)"
       gradientUnits="userSpaceOnUse"
       id="linearGradient3876-7"
       xlink:href="#outerBackgroundGradient-9"
       inkscape:collect="always" />
    <linearGradient
       id="outerBackgroundGradient">
      <stop
         id="stop3864-8-6"
         offset="0"
         style="stop-color:#4e9a06;stop-opacity:1;" />
      <stop
         id="stop3866-9-1"
         offset="1"
         style="stop-color:#73d216;stop-opacity:1;" />
    </linearGradient>
    <linearGradient
       y2="32"
       x2="272"
       y1="288"
       x1="272"
       gradientTransform="translate(0,-4)"
       gradientUnits="userSpaceOnUse"
       id="linearGradient3876"
       xlink:href="#outerBackgroundGradient"
       inkscape:collect="always" />
    <linearGradient
       id="outerBackgroundGradient-3">
      <stop
         id="stop3864-8-6-7"
         offset="0"
         style="stop-color:#6da563;stop-opacity:1" />
      <stop
         id="stop3866-9-1-5-9"
         offset="1"
         style="stop-color:#84cc76;stop-opacity:1" />
    </linearGradient>
    <linearGradient
       inkscape:collect="always"
       xlink:href="#linearGradient3911"
       id="linearGradient4121"
       gradientUnits="userSpaceOnUse"
       gradientTransform="matrix(0.66668359,0,0,0.66668359,-263.83842,-85.169899)"
       x1="320"
       y1="156"
       x2="320"
       y2="188" />
  </defs>
  <g
     inkscape:groupmode="layer"
     id="layer1"
     inkscape:label="Background">
    <path
       inkscape:connector-curvature="0"
       id="path3987"
       d="m 42.885716,41.000001 0,5 0.528571,0 c 0.878486,0 1.585715,-1.115 1.585715,-2.5 0,-1.385 -0.707229,-2.5 -1.585715,-2.5 l -0.528571,0 z"
       style="opacity:0.12000002;fill:url(#radialGradient4205);fill-opacity:1;stroke:none" />
    <path
       style="opacity:0.12000002;fill:url(#radialGradient4214);fill-opacity:1;stroke:none"
       d="m 42,42 0,3 0.5,0 C 43.331,45 44,44.331 44,43.5 44,42.669 43.331,42 42.5,42 L 42,42 z"
       id="rect3940"
       inkscape:connector-curvature="0" />
    <path
       inkscape:connector-curvature="0"
       id="path3989"
       d="M 4.4866072,41.000001 C 3.6630268,41.000001 3,42.045313 3,43.343751 l 0,0.3125 c 0,1.298439 0.6630268,2.34375 1.4866072,2.34375 l 0.6276786,0 0,-5 -0.6276786,0 z"
       style="opacity:0.12000002;fill:url(#radialGradient4202);fill-opacity:1;stroke:none" />
    <path
       style="opacity:0.12000002;fill:url(#radialGradient4211);fill-opacity:1;stroke:none"
       d="m 5.4062497,42 c -0.7790625,0 -1.40625,0.627187 -1.40625,1.40625 l 0,0.1875 c 0,0.779063 0.6271875,1.40625 1.40625,1.40625 l 0.59375,0 0,-3 -0.59375,0 z"
       id="rect3942"
       inkscape:connector-curvature="0" />
    <path
       style="opacity:0.12000002;fill:url(#linearGradient4208);fill-opacity:1;stroke:none"
       d="m 5.1141432,41 37.7717148,0 0,5 -37.7717148,0 z"
       id="rect3985"
       inkscape:connector-curvature="0"
       sodipodi:nodetypes="ccccc" />
    <path
       style="opacity:0.12000002;fill:url(#linearGradient4217);fill-opacity:1;stroke:none"
       d="m 5.9998568,42 36.0002842,0 0,3 -36.0002842,0 z"
       id="rect3938"
       inkscape:connector-curvature="0"
       sodipodi:nodetypes="ccccc" />
    <path
       style="fill:url(#linearGradient3877);fill-opacity:1.0;stroke:none;display:inline"
       d="M 6.4375 5 C 5.625551 5 5 5.6255532 5 6.4375 L 5 41.5625 C 5 42.374447 5.625551 43 6.4375 43 L 41.5625 43 C 42.374449 43 43 42.374447 43 41.5625 L 43 6.4375 C 43 5.6255532 42.374449 5 41.5625 5 L 6.4375 5 z "
       id="rect4073" />
    <rect
       style="opacity:0.41;fill:none;stroke:#000000;stroke-opacity:1;display:inline"
       id="rect4085"
       width="39"
       height="39"
       x="-43.5"
       y="-43.5"
       transform="matrix(0,-1,-1,0,0,0)"
       ry="1.95"
       rx="1.9499974" />
    <path
       inkscape:connector-curvature="0"
       style="opacity:0.14999999999999999;fill:#ffffff;fill-opacity:1;stroke:none;display:inline"
       d="M 6.4375,5.00002 C 5.62555,5.00002 5,5.62557 5,6.43752 l 0,1 C 5,6.62557 5.62555,6.00002 6.4375,6.00002 l 35.125,0 c 0.81195,0 1.4375,0.62555 1.4375,1.4375 l 0,-1 c 0,-0.81195 -0.62555,-1.4375 -1.4375,-1.4375 l -35.125,0 z"
       id="rect4089-4" />
    <path
       transform="matrix(0,1,-1,0,280,-784)"
       style="opacity:0.10000000000000001;fill:none;stroke:url(#linearGradient4140);stroke-width:2;stroke-miterlimit:4;stroke-opacity:1;stroke-dasharray:none;display:inline"
       d="M 790.4375,237 C 789.62555,237 789,237.62555 789,238.4375 l 0,35.09375 c 0,0.812 0.62555,1.46875 1.4375,1.46875 l 35.125,0 c 0.81195,0 1.4375,-0.65675 1.4375,-1.46875 l 0,-35.09375 C 827,237.62555 826.37445,237 825.5625,237 l -35.125,0 z"
       id="path4128"
       clip-path="url(#clipPath4130)"
       inkscape:connector-curvature="0" />
    <path
       id="path4105"
       d="M 6.4375,43.000017 C 5.62555,43.000017 5,42.374417 5,41.562517 L 5,40.56252 c 0,0.811897 0.62555,1.437497 1.4375,1.437497 l 35.125,0 c 0.81195,0 1.4375,-0.6256 1.4375,-1.437497 l 0,0.999997 c 0,0.8119 -0.62555,1.4375 -1.4375,1.4375 l -35.125,0 z"
       style="opacity:0.10000000000000001;fill:#ffffff;fill-opacity:1;stroke:none;display:inline"
       inkscape:connector-curvature="0" />
  </g>
  <g
     inkscape:groupmode="layer"
     id="layer2"
     inkscape:label="Symbol">
    <text
       y="-85.754883"
       xml:space="preserve"
       x="-756.49316"
       style="font-size:18px;font-style:normal;font-variant:normal;font-weight:normal;font-stretch:normal;fill:#000000;fill-opacity:1;stroke:none;display:none;enable-background:new;font-family:DejaVu Sans;-inkscape-font-specification:DejaVu Sans"
       inkscape:label="context"
       id="context"><tspan
         style="font-style:normal;font-variant:normal;font-weight:normal;font-stretch:normal;font-family:DejaVu Sans;-inkscape-font-specification:DejaVu Sans"
         y="-85.754883"
         x="-756.49316"
         sodipodi:role="line"
         id="tspan3933">apps</tspan></text>
    <text
       y="-85.754883"
       xml:space="preserve"
       x="-649.01172"
       style="font-size:18px;font-style:normal;font-variant:normal;font-weight:bold;font-stretch:normal;text-align:start;line-height:125%;writing-mode:lr-tb;text-anchor:start;fill:#000000;fill-opacity:1;stroke:none;display:none;enable-background:new;font-family:DejaVu Sans;-inkscape-font-specification:DejaVu Sans Bold"
       sodipodi:linespacing="125%"
       inkscape:label="icon-name"
       id="icon-name"><tspan
         style="font-size:18px;font-style:normal;font-variant:normal;font-weight:bold;font-stretch:normal;font-family:DejaVu Sans;-inkscape-font-specification:DejaVu Sans Bold"
         y="-85.754883"
         x="-649.01172"
         sodipodi:role="line"
         id="tspan3937">gba</tspan></text>
    <rect
       style="fill:#eeeeec;fill-opacity:1;fill-rule:nonzero;stroke:none;stroke-width:2;marker:none;visibility:visible;display:none;overflow:visible;enable-background:accumulate"
       id="rect16x16"
       width="16"
       height="16"
       x="-355.5"
       y="34.5"
       inkscape:label="16x16" />
    <rect
       style="fill:#d4d4d4;fill-opacity:1;fill-rule:nonzero;stroke:none;stroke-width:2;marker:none;visibility:visible;display:none;overflow:visible;enable-background:accumulate"
       id="rect24x24"
       width="24"
       height="24"
       x="-355.5"
       y="-5.5"
       inkscape:label="24x24" />
    <rect
       style="fill:#eeeeec;fill-opacity:1;fill-rule:nonzero;stroke:none;stroke-width:2;marker:none;visibility:visible;display:none;overflow:visible;enable-background:accumulate"
       id="rect32x32"
       width="32"
       height="32"
       x="-355.5"
       y="-53.5"
       inkscape:label="32x32" />
    <rect
       inkscape:label="22x22"
       y="-4.5"
       x="-354.5"
       height="22"
       width="22"
       id="rect22x22"
       style="fill:#eeeeec;fill-opacity:1;fill-rule:nonzero;stroke:none;stroke-width:2;marker:none;visibility:visible;display:none;overflow:visible;enable-background:accumulate" />
    <rect
       inkscape:label="48x48"
       y="114.5"
       x="-483.5"
       height="48"
       width="48"
       id="rect48x48"
       style="fill:#eeeeec;fill-opacity:1;fill-rule:nonzero;stroke:none;stroke-width:2;marker:none;visibility:visible;display:none;overflow:visible;enable-background:accumulate" />
    <rect
       style="fill:#eeeeec;fill-opacity:1;fill-rule:nonzero;stroke:none;stroke-width:2;marker:none;visibility:visible;display:none;overflow:visible;enable-background:accumulate"
       id="rect256x256"
       width="256"
       height="256"
       x="-755.5"
       y="-77.5"
       inkscape:label="256x256" />
    <rect
       style="fill:#eeeeec;fill-opacity:1;fill-rule:nonzero;stroke:none;stroke-width:2;marker:none;visibility:visible;display:none;overflow:visible;enable-background:accumulate"
       id="rect64x64"
       width="64"
       height="64"
       x="-483.5"
       y="34.5"
       inkscape:label="64x64" />
    <rect
       style="fill:#eeeeec;fill-opacity:1;fill-rule:nonzero;stroke:none;stroke-width:2;marker:none;visibility:visible;display:none;overflow:visible;enable-background:accumulate"
       id="rect96x96"
       width="96"
       height="96"
       x="-483.5"
       y="-77.5"
       inkscape:label="96x96" />
    <g
       id="g5011"
       transform="translate(41,-6)">
      <path
         inkscape:connector-curvature="0"
         id="path4240"
         d="M -19.65625,18 C -20.394928,18 -21,18.605051 -21,19.34375 L -21,27 -28.65625,27 C -29.394949,27 -30,27.605072 -30,28.34375 l 0,5.3125 C -30,34.394928 -29.394949,35 -28.65625,35 L -21,35 l 0,7.65625 C -21,43.394949 -20.394928,44 -19.65625,44 l 5.34375,0 C -13.573822,44 -13,43.394949 -13,42.65625 L -13,35 l 7.6874997,0 c 0.738699,0 1.3125,-0.605072 1.3125,-1.34375 l 0,-5.3125 c 0,-0.738678 -0.573801,-1.34375 -1.3125,-1.34375 L -13,27 -13,19.34375 C -13,18.605051 -13.573822,18 -14.3125,18 l -5.34375,0 z M -19,21 l 4,0 -2,4 -2,-4 z m -8,8 4,2 -4,2 0,-4 z m 10,0 c 1.104598,0 2,0.895402 2,2 0,1.104598 -0.895402,2 -2,2 -1.104598,0 -2,-0.895402 -2,-2 0,-1.104598 0.895402,-2 2,-2 z m 9.9999997,0 0,4 L -11,31 -7.0000003,29 z M -17,37 l 2,4 -4,0 2,-4 z"
         style="opacity:0.4;color:#000000;fill:#ffffff;fill-opacity:1;fill-rule:nonzero;stroke:none;stroke-width:1;marker:none;visibility:visible;display:inline;overflow:visible;enable-background:accumulate" />
      <path
         style="color:#000000;fill:#bbbbbb;fill-opacity:1;fill-rule:nonzero;stroke:none;stroke-width:1;marker:none;visibility:visible;display:inline;overflow:visible;enable-background:accumulate"
         d="M -19.65625,17 C -20.394928,17 -21,17.605051 -21,18.34375 L -21,26 -28.65625,26 C -29.394949,26 -30,26.605072 -30,27.34375 l 0,5.3125 C -30,33.394928 -29.394949,34 -28.65625,34 L -21,34 l 0,7.65625 C -21,42.394949 -20.394928,43 -19.65625,43 l 5.34375,0 C -13.573822,43 -13,42.394949 -13,41.65625 L -13,34 l 7.6874997,0 c 0.738699,0 1.3125,-0.605072 1.3125,-1.34375 l 0,-5.3125 c 0,-0.738678 -0.573801,-1.34375 -1.3125,-1.34375 L -13,26 -13,18.34375 C -13,17.605051 -13.573822,17 -14.3125,17 l -5.34375,0 z M -19,20 l 4,0 -2,4 -2,-4 z m -8,8 4,2 -4,2 0,-4 z m 10,0 c 1.104598,0 2,0.895402 2,2 0,1.104598 -0.895402,2 -2,2 -1.104598,0 -2,-0.895402 -2,-2 0,-1.104598 0.895402,-2 2,-2 z m 9.9999997,0 0,4 L -11,30 -7.0000003,28 z M -17,36 l 2,4 -4,0 2,-4 z"
         id="path4238"
         inkscape:connector-curvature="0" />
      <path
         inkscape:connector-curvature="0"
         id="path4227"
         d="M -19.65625,17 C -20.394928,17 -21,17.605051 -21,18.34375 l 0,1 C -21,18.605051 -20.394928,18 -19.65625,18 l 5.34375,0 C -13.573822,18 -13,18.605051 -13,19.34375 l 0,-1 C -13,17.605051 -13.573822,17 -14.3125,17 l -5.34375,0 z M -19,21 l 2,4 2,-4 -0.5,0 -1.5,3 -1.5,-3 -0.5,0 z m -9.65625,5 C -29.394949,26 -30,26.605072 -30,27.34375 l 0,1 C -30,27.605072 -29.394949,27 -28.65625,27 L -21,27 l 0,-1 -7.65625,0 z M -13,26 l 0,1 7.6875,0 C -4.573801,27 -4,27.605072 -4,28.34375 l 0,-1 C -4,26.605072 -4.573801,26 -5.3125,26 L -13,26 z m -11,4.5 -3,1.5 0,1 4,-2 -1,-0.5 z m 5.0625,0 C -18.978603,30.659761 -19,30.827407 -19,31 c 0,1.104598 0.895402,2 2,2 1.104598,0 2,-0.895402 2,-2 0,-0.172593 -0.0214,-0.340239 -0.0625,-0.5 -0.221957,0.86271 -1.005495,1.5 -1.9375,1.5 -0.932005,0 -1.715543,-0.63729 -1.9375,-1.5 z m 8.9375,0 -1,0.5 4,2 0,-1 -3,-1.5 z m -8.5,9.5 -0.5,1 4,0 -0.5,-1 -3,0 z"
         style="opacity:0.1;color:#000000;fill:#000000;fill-opacity:1;fill-rule:nonzero;stroke:none;stroke-width:1;marker:none;visibility:visible;display:inline;overflow:visible;enable-background:accumulate" />
    </g>
  </g>
</svg>
