<?xml version="1.0" encoding="UTF-8" standalone="no"?>
<svg
   xmlns:dc="http://purl.org/dc/elements/1.1/"
   xmlns:cc="http://creativecommons.org/ns#"
   xmlns:rdf="http://www.w3.org/1999/02/22-rdf-syntax-ns#"
   xmlns:svg="http://www.w3.org/2000/svg"
   xmlns="http://www.w3.org/2000/svg"
   xmlns:xlink="http://www.w3.org/1999/xlink"
   id="svg3759"
   height="48"
   width="48"
   version="1.1">
  <metadata
     id="metadata37">
    <rdf:RDF>
      <cc:Work
         rdf:about="">
        <dc:format>image/svg+xml</dc:format>
        <dc:type
           rdf:resource="http://purl.org/dc/dcmitype/StillImage" />
        <dc:title />
      </cc:Work>
    </rdf:RDF>
  </metadata>
  <defs
     id="defs3761">
    <linearGradient
       id="linearGradient3914">
      <stop
         id="stop3916"
         offset="0"
         style="stop-color:#ffffff;stop-opacity:1;" />
      <stop
         id="stop3918"
         offset="1"
         style="stop-color:#ffffff;stop-opacity:0;" />
    </linearGradient>
    <linearGradient
       id="linearGradient3960">
      <stop
         id="stop3962"
         offset="0"
         style="stop-color:#000000;stop-opacity:0;" />
      <stop
         style="stop-color:#000000;stop-opacity:1;"
         offset="0.5"
         id="stop3970" />
      <stop
         id="stop3964"
         offset="1"
         style="stop-color:#000000;stop-opacity:0;" />
    </linearGradient>
    <linearGradient
       id="linearGradient3952">
      <stop
         id="stop3954"
         offset="0"
         style="stop-color:#000000;stop-opacity:1;" />
      <stop
         id="stop3956"
         offset="1"
         style="stop-color:#000000;stop-opacity:0;" />
    </linearGradient>
    <linearGradient
       id="linearGradient3944">
      <stop
         id="stop3946"
         offset="0"
         style="stop-color:#000000;stop-opacity:1;" />
      <stop
         id="stop3948"
         offset="1"
         style="stop-color:#000000;stop-opacity:0;" />
    </linearGradient>
    <linearGradient
       id="linearGradient3988-5">
      <stop
         id="stop3990-5"
         offset="0"
         style="stop-color:#e8e8e8;stop-opacity:1;" />
      <stop
         id="stop3992-0"
         offset="1"
         style="stop-color:#f0f0f0;stop-opacity:1;" />
    </linearGradient>
    <linearGradient
       y2="40.000172"
       x2="144.00006"
       y1="280.00018"
       x1="144.00006"
       gradientTransform="matrix(-0.175,0,0,0.175,49.20002,-5.0000326)"
       gradientUnits="userSpaceOnUse"
       id="linearGradient3142"
       xlink:href="#linearGradient3988-5" />
    <linearGradient
       gradientUnits="userSpaceOnUse"
       y2="48"
       x2="24"
       y1="0"
       x1="24"
       id="linearGradient3920"
       xlink:href="#linearGradient3914" />
    <radialGradient
       r="2"
       fy="43.5"
       fx="9"
       cy="43.5"
       cx="9"
       gradientTransform="matrix(1,0,0,0.75,-1.0000003,10.875)"
       gradientUnits="userSpaceOnUse"
       id="radialGradient3925"
       xlink:href="#linearGradient3944" />
    <radialGradient
       r="2"
       fy="43.5"
       fx="40"
       cy="43.5"
       cx="40"
       gradientTransform="matrix(1,0,0,0.75,-3e-7,10.875)"
       gradientUnits="userSpaceOnUse"
       id="radialGradient3928"
       xlink:href="#linearGradient3952" />
    <linearGradient
       gradientTransform="matrix(1.0305144,0,0,1,-1.2476025,0)"
       y2="42"
       x2="25"
       y1="45"
       x1="25"
       gradientUnits="userSpaceOnUse"
       id="linearGradient3931"
       xlink:href="#linearGradient3960" />
    <radialGradient
       r="2"
       fy="43.5"
       fx="9"
       cy="43.5"
       cx="9"
       gradientTransform="matrix(1.0571429,0,0,1.25,-2.4000003,-10.875)"
       gradientUnits="userSpaceOnUse"
       id="radialGradient3934"
       xlink:href="#linearGradient3944" />
    <radialGradient
       r="2"
       fy="43.5"
       fx="40"
       cy="43.5"
       cx="40"
       gradientTransform="matrix(1.0571429,0,0,1.25,-1.4000003,-10.875)"
       gradientUnits="userSpaceOnUse"
       id="radialGradient3937"
       xlink:href="#linearGradient3952" />
    <linearGradient
       gradientTransform="matrix(1.0894009,0,0,1.6666667,-2.6903226,-29)"
       y2="42"
       x2="25"
       y1="45"
       x1="25"
       gradientUnits="userSpaceOnUse"
       id="linearGradient3940"
       xlink:href="#linearGradient3960" />
  </defs>
  <g
     id="layer1">
    <g
       id="g3942">
      <rect
         y="41"
         x="7.1142859"
         height="5"
         width="33.771431"
         id="rect3985"
         style="opacity:0.12000002;fill:url(#linearGradient3940);fill-opacity:1;stroke:none" />
      <path
         id="path3987"
         d="m 40.885716,41.000001 0,5 0.528571,0 c 0.878486,0 1.585715,-1.115 1.585715,-2.5 0,-1.385 -0.707229,-2.5 -1.585715,-2.5 l -0.528571,0 z"
         style="opacity:0.12000002;fill:url(#radialGradient3937);fill-opacity:1;stroke:none" />
      <path
         id="path3989"
         d="M 6.4866072,41.000001 C 5.6630268,41.000001 5,42.045313 5,43.343751 l 0,0.3125 c 0,1.298439 0.6630268,2.34375 1.4866072,2.34375 l 0.6276786,0 0,-5 -0.6276786,0 z"
         style="opacity:0.12000002;fill:url(#radialGradient3934);fill-opacity:1;stroke:none" />
      <rect
         style="opacity:0.12000002;fill:url(#linearGradient3931);fill-opacity:1;stroke:none"
         id="rect3938"
         width="31.945946"
         height="3"
         x="8.0270262"
         y="42" />
      <path
         style="opacity:0.12000002;fill:url(#radialGradient3928);fill-opacity:1;stroke:none"
         d="m 40,42 0,3 0.5,0 C 41.331,45 42,44.331 42,43.5 42,42.669 41.331,42 40.5,42 L 40,42 z"
         id="rect3940" />
      <path
         style="opacity:0.12000002;fill:url(#radialGradient3925);fill-opacity:1;stroke:none"
         d="m 7.4062497,42 c -0.7790625,0 -1.40625,0.627187 -1.40625,1.40625 l 0,0.1875 c 0,0.779063 0.6271875,1.40625 1.40625,1.40625 l 0.59375,0 0,-3 -0.59375,0 z"
         id="rect3942" />
    </g>
    <path
       id="rect3886"
       d="M 40,3 8,3 C 7.446,3 7,3.446 7,4 l 0,39 c 0,0.554 0.446,1 1,1 l 32,0 c 0.554,0 1,-0.446 1,-1 L 41,4 C 41,3.446 40.554,3 40,3 z"
       style="opacity:0.35;color:#bebebe;fill:#000000;fill-opacity:1;fill-rule:nonzero;stroke:none;stroke-width:0;marker:none;visibility:visible;display:inline;overflow:visible;enable-background:accumulate" />
    <path
       id="rect3882"
       d="M 40,4 8,4 8,43 40,43 z"
       style="color:#bebebe;fill:url(#linearGradient3142);fill-opacity:1;fill-rule:nonzero;stroke:none;stroke-width:0;marker:none;visibility:visible;display:inline;overflow:visible;enable-background:accumulate" />
    <path
       style="opacity:0.40000000000000002;fill:url(#linearGradient3920);fill-opacity:1;stroke:none"
       d="M 40,4 8,4 8,43 40,43 z M 39,5 39,42 9,42 9,5 z"
       id="path3893" />
    <rect
       y="4"
       x="8"
       height="1"
       width="32"
       id="rect3144"
       style="opacity:0.40000000000000002;fill:#ffffff;fill-opacity:1;stroke:none;stroke-width:1;stroke-linecap:square;stroke-miterlimit:4;stroke-opacity:1;stroke-dasharray:none" />
    <rect
       style="opacity:0.2;fill:#ffffff;fill-opacity:1;stroke:none"
       id="rect3922"
       width="32"
       height="1"
       x="8"
       y="42" />
  </g>
  <g
     id="layer2">
    <g
       transform="translate(-304,696)"
       style="font-size:3.1129353px;font-style:normal;font-variant:normal;font-weight:normal;font-stretch:normal;line-height:125%;letter-spacing:0px;word-spacing:0px;opacity:0.4;fill:#ffffff;fill-opacity:1;stroke:none;display:inline;enable-background:new;font-family:Open Sans;-inkscape-font-specification:Open Sans"
       id="g4311">
      <path
         d="m 336.45417,-661 -4.829,0 -2.70862,-10.50616 c -0.10033,-0.3739 -0.27361,-1.14454 -0.51983,-2.3119 -0.23713,-1.17645 -0.37393,-1.96533 -0.4104,-2.36662 -0.0547,0.49249 -0.19153,1.28592 -0.4104,2.3803 -0.21889,1.08529 -0.38761,1.86048 -0.50615,2.32558 l -2.69494,10.4788 -4.81532,0 -5.1026,-20 4.17237,0 2.55814,10.91655 c 0.44686,2.01551 0.77062,3.76198 0.97127,5.2394 0.0547,-0.51983 0.17783,-1.32238 0.36935,-2.40766 0.20063,-1.09438 0.38759,-1.94254 0.56088,-2.54446 L 326.00274,-681 l 4.00821,0 2.91381,11.20383 c 0.12766,0.5016 0.28726,1.26768 0.4788,2.29822 0.1915,1.03056 0.33742,1.91519 0.43775,2.6539 0.0912,-0.71135 0.2371,-1.59598 0.43776,-2.6539 0.20062,-1.06702 0.38302,-1.92885 0.5472,-2.5855 L 337.37073,-681 l 4.17236,0 -5.08892,20"
         style="font-size:28.01641655px;font-weight:bold;fill:#ffffff;fill-opacity:1;-inkscape-font-specification:Open Sans Bold"
         id="path4313" />
    </g>
    <g
       id="text6621"
       style="font-size:3.1129353px;font-style:normal;font-variant:normal;font-weight:normal;font-stretch:normal;line-height:125%;letter-spacing:0px;word-spacing:0px;fill:#2a5699;fill-opacity:1;stroke:none;display:inline;enable-background:new;font-family:Open Sans;-inkscape-font-specification:Open Sans"
       transform="translate(-304,695)">
      <path
         id="path7729"
         style="font-size:28.01641655px;font-weight:bold;fill:#2a5699;-inkscape-font-specification:Open Sans Bold"
         d="m 336.45417,-661 -4.829,0 -2.70862,-10.50616 c -0.10033,-0.3739 -0.27361,-1.14454 -0.51983,-2.3119 -0.23713,-1.17645 -0.37393,-1.96533 -0.4104,-2.36662 -0.0547,0.49249 -0.19153,1.28592 -0.4104,2.3803 -0.21889,1.08529 -0.38761,1.86048 -0.50615,2.32558 l -2.69494,10.4788 -4.81532,0 -5.1026,-20 4.17237,0 2.55814,10.91655 c 0.44686,2.01551 0.77062,3.76198 0.97127,5.2394 0.0547,-0.51983 0.17783,-1.32238 0.36935,-2.40766 0.20063,-1.09438 0.38759,-1.94254 0.56088,-2.54446 L 326.00274,-681 l 4.00821,0 2.91381,11.20383 c 0.12766,0.5016 0.28726,1.26768 0.4788,2.29822 0.1915,1.03056 0.33742,1.91519 0.43775,2.6539 0.0912,-0.71135 0.2371,-1.59598 0.43776,-2.6539 0.20062,-1.06702 0.38302,-1.92885 0.5472,-2.5855 L 337.37073,-681 l 4.17236,0 -5.08892,20" />
    </g>
  </g>
</svg>
