<?xml version="1.0" encoding="UTF-8" standalone="no"?>
<!-- Created with Inkscape (http://www.inkscape.org/) -->

<svg
   xmlns:dc="http://purl.org/dc/elements/1.1/"
   xmlns:cc="http://creativecommons.org/ns#"
   xmlns:rdf="http://www.w3.org/1999/02/22-rdf-syntax-ns#"
   xmlns:svg="http://www.w3.org/2000/svg"
   xmlns="http://www.w3.org/2000/svg"
   xmlns:xlink="http://www.w3.org/1999/xlink"
   xmlns:sodipodi="http://sodipodi.sourceforge.net/DTD/sodipodi-0.dtd"
   xmlns:inkscape="http://www.inkscape.org/namespaces/inkscape"
   version="1.1"
   width="48"
   height="48"
   id="svg3759"
   inkscape:version="0.48.4 r9939"
   sodipodi:docname="document-word.svg"
   inkscape:export-filename="/home/sam/faba-internet-mail.png"
   inkscape:export-xdpi="90"
   inkscape:export-ydpi="90">
  <sodipodi:namedview
     pagecolor="#ffffff"
     bordercolor="#666666"
     borderopacity="1"
     objecttolerance="10"
     gridtolerance="10"
     guidetolerance="10"
     inkscape:pageopacity="0"
     inkscape:pageshadow="2"
     inkscape:window-width="1364"
     inkscape:window-height="700"
     id="namedview36"
     showgrid="false"
     showborder="false"
     inkscape:zoom="1"
     inkscape:cx="15.809347"
     inkscape:cy="25.496325"
     inkscape:window-x="0"
     inkscape:window-y="28"
     inkscape:window-maximized="1"
     inkscape:current-layer="layer2"
     inkscape:snap-bbox="true"
     inkscape:bbox-paths="true"
     inkscape:bbox-nodes="true"
     inkscape:snap-bbox-edge-midpoints="true"
     inkscape:snap-bbox-midpoints="true"
     showguides="true"
     inkscape:guide-bbox="true"
     inkscape:showpageshadow="true">
    <inkscape:grid
       type="xygrid"
       id="grid3818"
       empspacing="4"
       visible="true"
       enabled="true"
       snapvisiblegridlinesonly="true" />
  </sodipodi:namedview>
  <metadata
     id="metadata37">
    <rdf:RDF>
      <cc:Work
         rdf:about="">
        <dc:format>image/svg+xml</dc:format>
        <dc:type
           rdf:resource="http://purl.org/dc/dcmitype/StillImage" />
        <dc:title />
      </cc:Work>
    </rdf:RDF>
  </metadata>
  <defs
     id="defs3761">
    <linearGradient
       inkscape:collect="always"
       id="linearGradient3914">
      <stop
         style="stop-color:#ffffff;stop-opacity:1;"
         offset="0"
         id="stop3916" />
      <stop
         style="stop-color:#ffffff;stop-opacity:0;"
         offset="1"
         id="stop3918" />
    </linearGradient>
    <linearGradient
       id="linearGradient3960">
      <stop
         style="stop-color:#000000;stop-opacity:0;"
         offset="0"
         id="stop3962" />
      <stop
         id="stop3970"
         offset="0.5"
         style="stop-color:#000000;stop-opacity:1;" />
      <stop
         style="stop-color:#000000;stop-opacity:0;"
         offset="1"
         id="stop3964" />
    </linearGradient>
    <linearGradient
       inkscape:collect="always"
       id="linearGradient3952">
      <stop
         style="stop-color:#000000;stop-opacity:1;"
         offset="0"
         id="stop3954" />
      <stop
         style="stop-color:#000000;stop-opacity:0;"
         offset="1"
         id="stop3956" />
    </linearGradient>
    <linearGradient
       inkscape:collect="always"
       id="linearGradient3944">
      <stop
         style="stop-color:#000000;stop-opacity:1;"
         offset="0"
         id="stop3946" />
      <stop
         style="stop-color:#000000;stop-opacity:0;"
         offset="1"
         id="stop3948" />
    </linearGradient>
    <linearGradient
       id="linearGradient3988-5">
      <stop
         style="stop-color:#e8e8e8;stop-opacity:1;"
         offset="0"
         id="stop3990-5" />
      <stop
         style="stop-color:#f0f0f0;stop-opacity:1;"
         offset="1"
         id="stop3992-0" />
    </linearGradient>
    <linearGradient
       inkscape:collect="always"
       xlink:href="#linearGradient3988-5"
       id="linearGradient3142"
       gradientUnits="userSpaceOnUse"
       gradientTransform="matrix(-0.175,0,0,0.175,49.20002,-5.0000326)"
       x1="144.00006"
       y1="280.00018"
       x2="144.00006"
       y2="40.000172" />
    <linearGradient
       inkscape:collect="always"
       xlink:href="#linearGradient3914"
       id="linearGradient3920"
       x1="24"
       y1="0"
       x2="24"
       y2="48"
       gradientUnits="userSpaceOnUse" />
    <radialGradient
       inkscape:collect="always"
       xlink:href="#linearGradient3944"
       id="radialGradient3925"
       gradientUnits="userSpaceOnUse"
       gradientTransform="matrix(1,0,0,0.75,-1.0000003,10.875)"
       cx="9"
       cy="43.5"
       fx="9"
       fy="43.5"
       r="2" />
    <radialGradient
       inkscape:collect="always"
       xlink:href="#linearGradient3952"
       id="radialGradient3928"
       gradientUnits="userSpaceOnUse"
       gradientTransform="matrix(1,0,0,0.75,-3e-7,10.875)"
       cx="40"
       cy="43.5"
       fx="40"
       fy="43.5"
       r="2" />
    <linearGradient
       inkscape:collect="always"
       xlink:href="#linearGradient3960"
       id="linearGradient3931"
       gradientUnits="userSpaceOnUse"
       x1="25"
       y1="45"
       x2="25"
       y2="42"
       gradientTransform="matrix(1.0305144,0,0,1,-1.2476025,0)" />
    <radialGradient
       inkscape:collect="always"
       xlink:href="#linearGradient3944"
       id="radialGradient3934"
       gradientUnits="userSpaceOnUse"
       gradientTransform="matrix(1.0571429,0,0,1.25,-2.4000003,-10.875)"
       cx="9"
       cy="43.5"
       fx="9"
       fy="43.5"
       r="2" />
    <radialGradient
       inkscape:collect="always"
       xlink:href="#linearGradient3952"
       id="radialGradient3937"
       gradientUnits="userSpaceOnUse"
       gradientTransform="matrix(1.0571429,0,0,1.25,-1.4000003,-10.875)"
       cx="40"
       cy="43.5"
       fx="40"
       fy="43.5"
       r="2" />
    <linearGradient
       inkscape:collect="always"
       xlink:href="#linearGradient3960"
       id="linearGradient3940"
       gradientUnits="userSpaceOnUse"
       x1="25"
       y1="45"
       x2="25"
       y2="42"
       gradientTransform="matrix(1.0894009,0,0,1.6666667,-2.6903226,-29)" />
    <linearGradient
       id="linearGradient4689">
      <stop
         style="stop-color:#5a9fd4;stop-opacity:1"
         offset="0"
         id="stop4691" />
      <stop
         style="stop-color:#306998;stop-opacity:1"
         offset="1"
         id="stop4693" />
    </linearGradient>
    <linearGradient
       id="linearGradient4671">
      <stop
         style="stop-color:#ffec3b;stop-opacity:1;"
         offset="0"
         id="stop4673" />
      <stop
         style="stop-color:#ffe62e;stop-opacity:1;"
         offset="1"
         id="stop4675" />
    </linearGradient>
    <linearGradient
       id="linearGradient8085">
      <stop
         id="stop8087"
         offset="0"
         style="stop-color:#37a12e;stop-opacity:1;" />
      <stop
         id="stop8089"
         offset="1"
         style="stop-color:#54bc43;stop-opacity:1;" />
    </linearGradient>
    <linearGradient
       y2="-52"
       x2="816"
       y1="-92"
       x1="816"
       gradientTransform="translate(-784.11538,94.500053)"
       gradientUnits="userSpaceOnUse"
       id="linearGradient7127"
       xlink:href="#linearGradient5928"
       inkscape:collect="always" />
    <linearGradient
       id="linearGradient5928">
      <stop
         style="stop-color:#729fcf;stop-opacity:1;"
         offset="0"
         id="stop5930" />
      <stop
         style="stop-color:#3a77b9;stop-opacity:1;"
         offset="1"
         id="stop5932" />
    </linearGradient>
  </defs>
  <g
     inkscape:groupmode="layer"
     id="layer1"
     inkscape:label="Background">
    <g
       id="g3942">
      <rect
         style="opacity:0.12000002;fill:url(#linearGradient3940);fill-opacity:1;stroke:none"
         id="rect3985"
         width="33.771431"
         height="5"
         x="7.1142859"
         y="41" />
      <path
         style="opacity:0.12000002;fill:url(#radialGradient3937);fill-opacity:1;stroke:none"
         d="m 40.885716,41.000001 0,5 0.528571,0 c 0.878486,0 1.585715,-1.115 1.585715,-2.5 0,-1.385 -0.707229,-2.5 -1.585715,-2.5 l -0.528571,0 z"
         id="path3987"
         inkscape:connector-curvature="0" />
      <path
         style="opacity:0.12000002;fill:url(#radialGradient3934);fill-opacity:1;stroke:none"
         d="M 6.4866072,41.000001 C 5.6630268,41.000001 5,42.045313 5,43.343751 l 0,0.3125 c 0,1.298439 0.6630268,2.34375 1.4866072,2.34375 l 0.6276786,0 0,-5 -0.6276786,0 z"
         id="path3989"
         inkscape:connector-curvature="0" />
      <rect
         y="42"
         x="8.0270262"
         height="3"
         width="31.945946"
         id="rect3938"
         style="opacity:0.12000002;fill:url(#linearGradient3931);fill-opacity:1;stroke:none" />
      <path
         id="rect3940"
         d="m 40,42 0,3 0.5,0 C 41.331,45 42,44.331 42,43.5 42,42.669 41.331,42 40.5,42 L 40,42 z"
         style="opacity:0.12000002;fill:url(#radialGradient3928);fill-opacity:1;stroke:none"
         inkscape:connector-curvature="0" />
      <path
         id="rect3942"
         d="m 7.4062497,42 c -0.7790625,0 -1.40625,0.627187 -1.40625,1.40625 l 0,0.1875 c 0,0.779063 0.6271875,1.40625 1.40625,1.40625 l 0.59375,0 0,-3 -0.59375,0 z"
         style="opacity:0.12000002;fill:url(#radialGradient3925);fill-opacity:1;stroke:none"
         inkscape:connector-curvature="0" />
    </g>
    <path
       style="opacity:0.35;color:#bebebe;fill:#000000;fill-opacity:1;fill-rule:nonzero;stroke:none;stroke-width:0;marker:none;visibility:visible;display:inline;overflow:visible;enable-background:accumulate"
       d="M 40,3 8,3 C 7.446,3 7,3.446 7,4 l 0,39 c 0,0.554 0.446,1 1,1 l 32,0 c 0.554,0 1,-0.446 1,-1 L 41,4 C 41,3.446 40.554,3 40,3 z"
       id="rect3886"
       inkscape:connector-curvature="0"
       sodipodi:nodetypes="sssssssss" />
    <path
       style="color:#bebebe;fill:url(#linearGradient3142);fill-opacity:1;fill-rule:nonzero;stroke:none;stroke-width:0;marker:none;visibility:visible;display:inline;overflow:visible;enable-background:accumulate"
       d="M 40,4 8,4 8,43 40,43 z"
       id="rect3882"
       inkscape:connector-curvature="0"
       sodipodi:nodetypes="ccccc" />
    <path
       id="path3893"
       d="M 40,4 8,4 8,43 40,43 z M 39,5 39,42 9,42 9,5 z"
       style="opacity:0.40000000000000002;fill:url(#linearGradient3920);fill-opacity:1;stroke:none"
       inkscape:connector-curvature="0"
       sodipodi:nodetypes="cccccccccc" />
    <rect
       style="opacity:0.40000000000000002;fill:#ffffff;fill-opacity:1;stroke:none;stroke-width:1;stroke-linecap:square;stroke-miterlimit:4;stroke-opacity:1;stroke-dasharray:none"
       id="rect3144"
       width="32"
       height="1"
       x="8"
       y="4" />
    <rect
       y="42"
       x="8"
       height="1"
       width="32"
       id="rect3922"
       style="opacity:0.2;fill:#ffffff;fill-opacity:1;stroke:none" />
  </g>
  <g
     inkscape:groupmode="layer"
     id="layer2"
     inkscape:label="Symbol">
    <g
       id="g4311"
       style="font-size:3.1129353px;font-style:normal;font-variant:normal;font-weight:normal;font-stretch:normal;line-height:125%;letter-spacing:0px;word-spacing:0px;opacity:0.4;fill:#ffffff;fill-opacity:1;stroke:none;display:inline;enable-background:new;font-family:Open Sans;-inkscape-font-specification:Open Sans"
       transform="translate(-304,696)">
      <path
         inkscape:connector-curvature="0"
         id="path4313"
         style="font-size:28.01641655px;font-weight:bold;fill:#ffffff;fill-opacity:1;-inkscape-font-specification:Open Sans Bold"
         d="m 336.45417,-661 -4.829,0 -2.70862,-10.50616 c -0.10033,-0.3739 -0.27361,-1.14454 -0.51983,-2.3119 -0.23713,-1.17645 -0.37393,-1.96533 -0.4104,-2.36662 -0.0547,0.49249 -0.19153,1.28592 -0.4104,2.3803 -0.21889,1.08529 -0.38761,1.86048 -0.50615,2.32558 l -2.69494,10.4788 -4.81532,0 -5.1026,-20 4.17237,0 2.55814,10.91655 c 0.44686,2.01551 0.77062,3.76198 0.97127,5.2394 0.0547,-0.51983 0.17783,-1.32238 0.36935,-2.40766 0.20063,-1.09438 0.38759,-1.94254 0.56088,-2.54446 L 326.00274,-681 l 4.00821,0 2.91381,11.20383 c 0.12766,0.5016 0.28726,1.26768 0.4788,2.29822 0.1915,1.03056 0.33742,1.91519 0.43775,2.6539 0.0912,-0.71135 0.2371,-1.59598 0.43776,-2.6539 0.20062,-1.06702 0.38302,-1.92885 0.5472,-2.5855 L 337.37073,-681 l 4.17236,0 -5.08892,20" />
    </g>
    <g
       transform="translate(-304,695)"
       style="font-size:3.1129353px;font-style:normal;font-variant:normal;font-weight:normal;font-stretch:normal;line-height:125%;letter-spacing:0px;word-spacing:0px;fill:#2a5699;fill-opacity:1;stroke:none;display:inline;enable-background:new;font-family:Open Sans;-inkscape-font-specification:Open Sans"
       id="text6621">
      <path
         d="m 336.45417,-661 -4.829,0 -2.70862,-10.50616 c -0.10033,-0.3739 -0.27361,-1.14454 -0.51983,-2.3119 -0.23713,-1.17645 -0.37393,-1.96533 -0.4104,-2.36662 -0.0547,0.49249 -0.19153,1.28592 -0.4104,2.3803 -0.21889,1.08529 -0.38761,1.86048 -0.50615,2.32558 l -2.69494,10.4788 -4.81532,0 -5.1026,-20 4.17237,0 2.55814,10.91655 c 0.44686,2.01551 0.77062,3.76198 0.97127,5.2394 0.0547,-0.51983 0.17783,-1.32238 0.36935,-2.40766 0.20063,-1.09438 0.38759,-1.94254 0.56088,-2.54446 L 326.00274,-681 l 4.00821,0 2.91381,11.20383 c 0.12766,0.5016 0.28726,1.26768 0.4788,2.29822 0.1915,1.03056 0.33742,1.91519 0.43775,2.6539 0.0912,-0.71135 0.2371,-1.59598 0.43776,-2.6539 0.20062,-1.06702 0.38302,-1.92885 0.5472,-2.5855 L 337.37073,-681 l 4.17236,0 -5.08892,20"
         style="font-size:28.01641655px;font-weight:bold;fill:#2a5699;-inkscape-font-specification:Open Sans Bold"
         id="path7729"
         inkscape:connector-curvature="0" />
    </g>
  </g>
</svg>
