<?xml version="1.0" encoding="UTF-8" standalone="no"?>
<!-- Created with Inkscape (http://www.inkscape.org/) -->

<svg
   xmlns:dc="http://purl.org/dc/elements/1.1/"
   xmlns:cc="http://creativecommons.org/ns#"
   xmlns:rdf="http://www.w3.org/1999/02/22-rdf-syntax-ns#"
   xmlns:svg="http://www.w3.org/2000/svg"
   xmlns="http://www.w3.org/2000/svg"
   xmlns:xlink="http://www.w3.org/1999/xlink"
   xmlns:sodipodi="http://sodipodi.sourceforge.net/DTD/sodipodi-0.dtd"
   xmlns:inkscape="http://www.inkscape.org/namespaces/inkscape"
   version="1.1"
   width="48"
   height="48"
   id="svg3759"
   inkscape:version="0.48.4 r9939"
   sodipodi:docname="document-illustrator.svg"
   inkscape:export-filename="/home/sam/faba-internet-mail.png"
   inkscape:export-xdpi="90"
   inkscape:export-ydpi="90">
  <sodipodi:namedview
     pagecolor="#ffffff"
     bordercolor="#666666"
     borderopacity="1"
     objecttolerance="10"
     gridtolerance="10"
     guidetolerance="10"
     inkscape:pageopacity="0"
     inkscape:pageshadow="2"
     inkscape:window-width="1364"
     inkscape:window-height="700"
     id="namedview36"
     showgrid="false"
     inkscape:zoom="1"
     inkscape:cx="26.610173"
     inkscape:cy="10.865144"
     inkscape:window-x="0"
     inkscape:window-y="28"
     inkscape:window-maximized="1"
     inkscape:current-layer="layer1"
     inkscape:snap-bbox="true"
     inkscape:bbox-paths="true"
     inkscape:bbox-nodes="true"
     inkscape:snap-bbox-edge-midpoints="true"
     inkscape:snap-bbox-midpoints="true"
     showguides="true"
     inkscape:guide-bbox="true"
     inkscape:showpageshadow="true"
     showborder="true">
    <inkscape:grid
       type="xygrid"
       id="grid3818"
       empspacing="4"
       visible="true"
       enabled="true"
       snapvisiblegridlinesonly="true" />
  </sodipodi:namedview>
  <metadata
     id="metadata37">
    <rdf:RDF>
      <cc:Work
         rdf:about="">
        <dc:format>image/svg+xml</dc:format>
        <dc:type
           rdf:resource="http://purl.org/dc/dcmitype/StillImage" />
        <dc:title />
      </cc:Work>
    </rdf:RDF>
  </metadata>
  <defs
     id="defs3761">
    <linearGradient
       id="linearGradient4636"
       inkscape:collect="always">
      <stop
         id="stop4638"
         offset="0"
         style="stop-color:#ffffff;stop-opacity:1;" />
      <stop
         id="stop4640"
         offset="1"
         style="stop-color:#ffffff;stop-opacity:0.49803922" />
    </linearGradient>
    <linearGradient
       id="linearGradient3960">
      <stop
         style="stop-color:#000000;stop-opacity:0;"
         offset="0"
         id="stop3962" />
      <stop
         id="stop3970"
         offset="0.5"
         style="stop-color:#000000;stop-opacity:1;" />
      <stop
         style="stop-color:#000000;stop-opacity:0;"
         offset="1"
         id="stop3964" />
    </linearGradient>
    <linearGradient
       inkscape:collect="always"
       id="linearGradient3952">
      <stop
         style="stop-color:#000000;stop-opacity:1;"
         offset="0"
         id="stop3954" />
      <stop
         style="stop-color:#000000;stop-opacity:0;"
         offset="1"
         id="stop3956" />
    </linearGradient>
    <linearGradient
       inkscape:collect="always"
       id="linearGradient3944">
      <stop
         style="stop-color:#000000;stop-opacity:1;"
         offset="0"
         id="stop3946" />
      <stop
         style="stop-color:#000000;stop-opacity:0;"
         offset="1"
         id="stop3948" />
    </linearGradient>
    <linearGradient
       id="outerBackgroundGradient-3">
      <stop
         style="stop-color:#24ade7;stop-opacity:1;"
         offset="0"
         id="stop3864-8-6-9" />
      <stop
         style="stop-color:#52cbfe;stop-opacity:1;"
         offset="1"
         id="stop3866-9-1-9" />
    </linearGradient>
    <radialGradient
       inkscape:collect="always"
       xlink:href="#linearGradient3944"
       id="radialGradient4657"
       gradientUnits="userSpaceOnUse"
       gradientTransform="matrix(1.0571429,0,0,1.25,-1.4,-10.875)"
       cx="9"
       cy="43.5"
       fx="9"
       fy="43.5"
       r="2" />
    <radialGradient
       inkscape:collect="always"
       xlink:href="#linearGradient3952"
       id="radialGradient4660"
       gradientUnits="userSpaceOnUse"
       gradientTransform="matrix(1.0571429,0,0,1.25,-1.4,-10.875)"
       cx="40"
       cy="43.5"
       fx="40"
       fy="43.5"
       r="2" />
    <linearGradient
       inkscape:collect="always"
       xlink:href="#linearGradient3960"
       id="linearGradient4663"
       gradientUnits="userSpaceOnUse"
       x1="25"
       y1="45"
       x2="25"
       y2="42"
       gradientTransform="matrix(1.0571429,0,0,1.6666667,-1.4,-29)" />
    <radialGradient
       inkscape:collect="always"
       xlink:href="#linearGradient3944"
       id="radialGradient4666"
       gradientUnits="userSpaceOnUse"
       gradientTransform="matrix(1,0,0,0.75,0,10.875)"
       cx="9"
       cy="43.5"
       fx="9"
       fy="43.5"
       r="2" />
    <radialGradient
       inkscape:collect="always"
       xlink:href="#linearGradient3952"
       id="radialGradient4669"
       gradientUnits="userSpaceOnUse"
       gradientTransform="matrix(1,0,0,0.75,0,10.875)"
       cx="40"
       cy="43.5"
       fx="40"
       fy="43.5"
       r="2" />
    <linearGradient
       inkscape:collect="always"
       xlink:href="#linearGradient3960"
       id="linearGradient4672"
       gradientUnits="userSpaceOnUse"
       x1="25"
       y1="45"
       x2="25"
       y2="42" />
    <linearGradient
       inkscape:collect="always"
       xlink:href="#linearGradient4636"
       id="linearGradient4681"
       gradientUnits="userSpaceOnUse"
       gradientTransform="matrix(0,1,-1,0,49,1)"
       x1="3"
       y1="25"
       x2="42"
       y2="24.5" />
    <linearGradient
       inkscape:collect="always"
       xlink:href="#linearGradient7742"
       id="linearGradient4684"
       gradientUnits="userSpaceOnUse"
       gradientTransform="matrix(0.18064516,0,0,0.17948718,-51.029053,-5.7308027)"
       x1="144.00006"
       y1="280.00018"
       x2="144.00006"
       y2="40.000172" />
    <linearGradient
       inkscape:collect="always"
       xlink:href="#outerBackgroundGradient-3"
       id="linearGradient4688"
       gradientUnits="userSpaceOnUse"
       gradientTransform="matrix(0.18064516,0,0,0.17948718,-51.029053,-5.7308027)"
       x1="144.00006"
       y1="280.00018"
       x2="144.00006"
       y2="40.000172" />
    <linearGradient
       inkscape:collect="always"
       xlink:href="#linearGradient7742"
       id="linearGradient7672"
       gradientUnits="userSpaceOnUse"
       gradientTransform="translate(480,749.36218)"
       x1="144"
       y1="280"
       x2="144"
       y2="40" />
    <linearGradient
       id="linearGradient7742">
      <stop
         id="stop7744"
         offset="0"
         style="stop-color:#ffa622;stop-opacity:1;" />
      <stop
         id="stop7746"
         offset="1"
         style="stop-color:#ffbd52;stop-opacity:1;" />
    </linearGradient>
    <linearGradient
       y2="40"
       x2="144"
       y1="280"
       x1="144"
       gradientTransform="translate(-105,-368)"
       gradientUnits="userSpaceOnUse"
       id="linearGradient3307"
       xlink:href="#linearGradient7742"
       inkscape:collect="always" />
  </defs>
  <g
     inkscape:groupmode="layer"
     id="layer1"
     inkscape:label="Background">
    <g
       id="g4690">
      <rect
         style="opacity:0.12000002;fill:url(#linearGradient4663);fill-opacity:1;stroke:none"
         id="rect3985"
         width="32.771431"
         height="5"
         x="8.1142864"
         y="41" />
      <path
         style="opacity:0.12000002;fill:url(#radialGradient4660);fill-opacity:1;stroke:none"
         d="m 40.885716,41.000001 0,5 0.528571,0 c 0.878486,0 1.585715,-1.115 1.585715,-2.5 0,-1.385 -0.707229,-2.5 -1.585715,-2.5 l -0.528571,0 z"
         id="path3987"
         inkscape:connector-curvature="0" />
      <path
         style="opacity:0.12000002;fill:url(#radialGradient4657);fill-opacity:1;stroke:none"
         d="m 7.4866075,41.000001 c -0.8235804,0 -1.4866072,1.045312 -1.4866072,2.34375 l 0,0.3125 c 0,1.298439 0.6630268,2.34375 1.4866072,2.34375 l 0.6276786,0 0,-5 -0.6276786,0 z"
         id="path3989"
         inkscape:connector-curvature="0" />
      <rect
         y="42"
         x="9"
         height="3"
         width="31"
         id="rect3938"
         style="opacity:0.12000002;fill:url(#linearGradient4672);fill-opacity:1;stroke:none" />
      <path
         id="rect3940"
         d="m 40,42 0,3 0.5,0 C 41.331,45 42,44.331 42,43.5 42,42.669 41.331,42 40.5,42 L 40,42 z"
         style="opacity:0.12000002;fill:url(#radialGradient4669);fill-opacity:1;stroke:none"
         inkscape:connector-curvature="0" />
      <path
         id="rect3942"
         d="M 8.40625,42 C 7.6271875,42 7,42.627187 7,43.40625 l 0,0.1875 C 7,44.372813 7.6271875,45 8.40625,45 L 9,45 9,42 8.40625,42 z"
         style="opacity:0.12000002;fill:url(#radialGradient4666);fill-opacity:1;stroke:none"
         inkscape:connector-curvature="0" />
    </g>
    <rect
       transform="scale(-1,1)"
       style="color:#bebebe;fill:url(#linearGradient4684);fill-opacity:1;fill-rule:nonzero;stroke:none;stroke-width:0;marker:none;visibility:visible;display:inline;overflow:visible;enable-background:accumulate"
       id="rect3882"
       width="32"
       height="40"
       x="-40.5"
       y="3.5"
       ry="0" />
    <path
       style="opacity:0.60999999999999999;color:#bebebe;fill:#a55608;fill-opacity:1;fill-rule:nonzero;stroke:none;stroke-width:0;marker:none;visibility:visible;display:inline;overflow:visible;enable-background:accumulate"
       d="M 9,3 C 8.446,3 8,3.446 8,4 l 0,39 c 0,0.554 0.446,1 1,1 l 31,0 c 0.554,0 1,-0.446 1,-1 L 41,4 C 41,3.446 40.554,3 40,3 L 9,3 z M 9,4 40,4 40,43 9,43 9,4 z"
       id="rect3886"
       inkscape:connector-curvature="0" />
    <path
       style="opacity:0.40000000000000002;fill:url(#linearGradient4681);fill-opacity:1;stroke:none"
       d="m 9,4 0,39 30,0 1,0 L 40,4 39,4 9,4 z m 1,1 29,0 0,37 -29,0 0,-37 z"
       id="path3893"
       inkscape:connector-curvature="0" />
  </g>
  <g
     inkscape:groupmode="layer"
     id="layer2"
     inkscape:label="Symbol">
    <path
       style="fill:#000000;fill-opacity:1;display:inline;opacity:0.2"
       d="m 17.29791,33.882657 c 0.05,-0.06 0.28798,-0.8429 0.53296,-1.7417 0.24397,-0.8989 0.52095,-1.8953 0.61394,-2.2147 l 0.16998,-0.5809 2.47608,0 2.47617,0 0.66794,2.2147 c 0.36797,1.218 0.70794,2.2631 0.75593,2.3222 0.06,0.08 0.54195,0.108 1.84014,0.108 1.61185,0 1.75264,-0.01 1.75254,-0.15 -10e-5,-0.08 -0.23398,-0.9209 -0.51996,-1.8617 -0.28597,-0.9409 -1.25048,-4.1729 -2.1441,-7.1816 -0.89392,-3.0089 -1.85173,-6.20597 -2.12931,-7.10468 l -0.50495,-1.63416 -2.27509,0 -2.2751,0 -0.05,0.85993 c -0.05,0.93291 0.08,0.41796 -2.2304,8.34281 -0.60794,2.0814 -1.28488,4.4036 -1.50416,5.1605 -0.21898,0.7569 -0.53395,1.8315 -0.69894,2.3881 -0.16498,0.557 -0.27597,1.0501 -0.24698,1.0966 0.08,0.133 3.18161,0.111 3.2915,-0.02 z m 2.08311,-7.6303 c 0,-0.05 0.28598,-1.2358 0.63695,-2.6447 0.34997,-1.409 0.71993,-2.9671 0.82192,-3.4626 0.10199,-0.496 0.19798,-0.91293 0.21198,-0.92792 0.01,-0.01 0.11399,0.35196 0.22098,0.81492 0.10699,0.463 0.46096,1.842 0.78793,3.0647 0.32697,1.2228 0.64794,2.4516 0.71294,2.7308 l 0.11799,0.5079 -1.75554,0 c -1.07211,0 -1.75554,-0.03 -1.75554,-0.08 z m 14.43939,7.6208 c 0.07,-0.09 0.09,-1.9496 0.07,-6.859 l -0.02,-6.7422 -1.76313,0 -1.76314,0 -0.02,6.7516 c -0.01,3.7133 -0.004,6.8 0.02,6.8591 0.06,0.162 3.34149,0.154 3.47668,-0.01 z M 32.807,18.410807 c 0.72794,-0.24398 1.19029,-0.87292 1.19299,-1.62225 0.004,-1.24859 -0.84292,-1.99772 -2.1111,-1.86673 -1.23459,0.12699 -1.92943,1.19879 -1.56536,2.41378 0.12699,0.42596 0.64394,0.96491 1.0308,1.076 0.39897,0.11499 1.1078,0.11499 1.45267,-7e-4 z"
       id="path4746"
       inkscape:connector-curvature="0"
       sodipodi:nodetypes="ssscccssssssscccssssssssscssscsssscccscscsssscc" />
    <path
       sodipodi:nodetypes="ssscccssssssscccssssssssscssscsssscccscscsssscc"
       inkscape:connector-curvature="0"
       id="path7752"
       d="m 17.29791,32.882657 c 0.05,-0.06 0.28798,-0.8429 0.53296,-1.7417 0.24397,-0.8989 0.52095,-1.8953 0.61394,-2.2147 l 0.16998,-0.5809 2.47608,0 2.47617,0 0.66794,2.2147 c 0.36797,1.218 0.70794,2.2631 0.75593,2.3222 0.06,0.08 0.54195,0.108 1.84014,0.108 1.61185,0 1.75264,-0.01 1.75254,-0.15 -10e-5,-0.08 -0.23398,-0.9209 -0.51996,-1.8617 -0.28597,-0.9409 -1.25048,-4.1729 -2.1441,-7.1816 -0.89392,-3.0089 -1.85173,-6.20597 -2.12931,-7.10468 l -0.50495,-1.63416 -2.27509,0 -2.2751,0 -0.05,0.85993 c -0.05,0.93291 0.08,0.41796 -2.2304,8.34281 -0.60794,2.0814 -1.28488,4.4036 -1.50416,5.1605 -0.21898,0.7569 -0.53395,1.8315 -0.69894,2.3881 -0.16498,0.557 -0.27597,1.0501 -0.24698,1.0966 0.08,0.133 3.18161,0.111 3.2915,-0.02 z m 2.08311,-7.6303 c 0,-0.05 0.28598,-1.2358 0.63695,-2.6447 0.34997,-1.409 0.71993,-2.9671 0.82192,-3.4626 0.10199,-0.496 0.19798,-0.91293 0.21198,-0.92792 0.01,-0.01 0.11399,0.35196 0.22098,0.81492 0.10699,0.463 0.46096,1.842 0.78793,3.0647 0.32697,1.2228 0.64794,2.4516 0.71294,2.7308 l 0.11799,0.5079 -1.75554,0 c -1.07211,0 -1.75554,-0.03 -1.75554,-0.08 z m 14.43939,7.6208 c 0.07,-0.09 0.09,-1.9496 0.07,-6.859 l -0.02,-6.7422 -1.76313,0 -1.76314,0 -0.02,6.7516 c -0.01,3.7133 -0.004,6.8 0.02,6.8591 0.06,0.162 3.34149,0.154 3.47668,-0.01 z M 32.807,17.410807 c 0.72794,-0.24398 1.19029,-0.87292 1.19299,-1.62225 0.004,-1.24859 -0.84292,-1.99772 -2.1111,-1.86673 -1.23459,0.12699 -1.92943,1.19879 -1.56536,2.41378 0.12699,0.42596 0.64394,0.96491 1.0308,1.076 0.39897,0.11499 1.1078,0.11499 1.45267,-7e-4 z"
       style="fill:#ffffff;fill-opacity:1;display:inline" />
  </g>
</svg>
