<?xml version="1.0" encoding="UTF-8" standalone="no"?>
<svg xmlns="http://www.w3.org/2000/svg" xmlns:xlink="http://www.w3.org/1999/xlink" xmlns:sodipodi="http://sodipodi.sourceforge.net/DTD/sodipodi-0.dtd" xmlns:inkscape="http://www.inkscape.org/namespaces/inkscape" version="1.1" width="48" height="48">
 <metadata id="metadata37"/>
 <defs id="defs3761">
  <linearGradient inkscape:collect="always" id="linearGradient3914">
   <stop id="stop3916" stop-color="#ffffff"/>
   <stop offset="1" id="stop3918" stop-color="#ffffff" stop-opacity="0"/>
  </linearGradient>
  <linearGradient id="linearGradient3960">
   <stop id="stop3962" stop-opacity="0"/>
   <stop id="stop3970" offset="0.5"/>
   <stop offset="1" id="stop3964" stop-opacity="0"/>
  </linearGradient>
  <linearGradient inkscape:collect="always" id="linearGradient3952">
   <stop id="stop3954"/>
   <stop offset="1" id="stop3956" stop-opacity="0"/>
  </linearGradient>
  <linearGradient id="linearGradient3988-5">
   <stop id="stop3990-5" stop-color="#e8e8e8"/>
   <stop offset="1" id="stop3992-0" stop-color="#f0f0f0"/>
  </linearGradient>
  <linearGradient inkscape:collect="always" xlink:href="#linearGradient3988-5" id="linearGradient3142" gradientUnits="userSpaceOnUse" gradientTransform="matrix(-0.175,0,0,0.175,49.20002,-5.0000326)" y1="280" x2="0" y2="40"/>
  <linearGradient inkscape:collect="always" xlink:href="#linearGradient3914" id="linearGradient3920" y1="0" x2="0" y2="48" gradientUnits="userSpaceOnUse"/>
  <radialGradient inkscape:collect="always" xlink:href="#linearGradient3952" id="radialGradient3925" gradientUnits="userSpaceOnUse" gradientTransform="matrix(1,0,0,0.75,-1.0000003,10.875)" cx="9" cy="43.5" r="2"/>
  <radialGradient inkscape:collect="always" xlink:href="#linearGradient3952" id="radialGradient3928" gradientUnits="userSpaceOnUse" gradientTransform="matrix(1,0,0,0.75,-3e-7,10.875)" cx="40" cy="43.5" r="2"/>
  <linearGradient inkscape:collect="always" xlink:href="#linearGradient3960" id="linearGradient3931" gradientUnits="userSpaceOnUse" y1="45" x2="0" y2="42" gradientTransform="matrix(1.0305144,0,0,1,-1.2476025,0)"/>
  <radialGradient inkscape:collect="always" xlink:href="#linearGradient3952" id="radialGradient3934" gradientUnits="userSpaceOnUse" gradientTransform="matrix(1.0571429,0,0,1.25,-2.4000003,-10.875)" cx="9" cy="43.5" r="2"/>
  <radialGradient inkscape:collect="always" xlink:href="#linearGradient3952" id="radialGradient3937" gradientUnits="userSpaceOnUse" gradientTransform="matrix(1.0571429,0,0,1.25,-1.4000003,-10.875)" cx="40" cy="43.5" r="2"/>
  <linearGradient inkscape:collect="always" xlink:href="#linearGradient3960" id="linearGradient3940" gradientUnits="userSpaceOnUse" y1="45" x2="0" y2="42" gradientTransform="matrix(1.0894009,0,0,1.6666667,-2.6903226,-29)"/>
  <linearGradient id="linearGradient4689">
   <stop id="stop4691" stop-color="#5a9fd4"/>
   <stop offset="1" id="stop4693" stop-color="#306998"/>
  </linearGradient>
  <linearGradient id="linearGradient4671">
   <stop id="stop4673" stop-color="#ffec3b"/>
   <stop offset="1" id="stop4675" stop-color="#ffe62e"/>
  </linearGradient>
  <linearGradient id="linearGradient8085">
   <stop id="stop8087" stop-color="#37a12e"/>
   <stop id="stop8089" offset="1" stop-color="#54bc43"/>
  </linearGradient>
  <linearGradient y2="-52" x2="0" y1="-92" gradientTransform="translate(-784.11538,94.500053)" gradientUnits="userSpaceOnUse" id="linearGradient7127" xlink:href="#linearGradient5928" inkscape:collect="always"/>
  <linearGradient id="linearGradient5928">
   <stop id="stop5930" stop-color="#729fcf"/>
   <stop offset="1" id="stop5932" stop-color="#3a77b9"/>
  </linearGradient>
 </defs>
 <g inkscape:groupmode="layer" id="layer1" inkscape:label="Background">
  <g id="g3942">
   <rect id="rect3985" width="33.771" height="5" x="7.114" y="41" opacity="0.12" fill="url(#linearGradient3940)"/>
   <path d="m 40.885716,41.000001 0,5 0.528571,0 c 0.878486,0 1.585715,-1.115 1.585715,-2.5 0,-1.385 -0.707229,-2.5 -1.585715,-2.5 l -0.528571,0 z" id="path3987" inkscape:connector-curvature="0" opacity="0.12" fill="url(#radialGradient3937)"/>
   <path d="M 6.4866072,41.000001 C 5.6630268,41.000001 5,42.045313 5,43.343751 l 0,0.3125 c 0,1.298439 0.6630268,2.34375 1.4866072,2.34375 l 0.6276786,0 0,-5 -0.6276786,0 z" id="path3989" inkscape:connector-curvature="0" opacity="0.12" fill="url(#radialGradient3934)"/>
   <rect y="42" x="8.03" height="3" width="31.946" id="rect3938" opacity="0.12" fill="url(#linearGradient3931)"/>
   <path id="rect3940" d="m 40,42 0,3 0.5,0 C 41.331,45 42,44.331 42,43.5 42,42.669 41.331,42 40.5,42 L 40,42 z" inkscape:connector-curvature="0" opacity="0.12" fill="url(#radialGradient3928)"/>
   <path id="rect3942" d="m 7.4062497,42 c -0.7790625,0 -1.40625,0.627187 -1.40625,1.40625 l 0,0.1875 c 0,0.779063 0.6271875,1.40625 1.40625,1.40625 l 0.59375,0 0,-3 -0.59375,0 z" inkscape:connector-curvature="0" opacity="0.12" fill="url(#radialGradient3925)"/>
  </g>
  <path d="M 40,3 8,3 C 7.446,3 7,3.446 7,4 l 0,39 c 0,0.554 0.446,1 1,1 l 32,0 c 0.554,0 1,-0.446 1,-1 L 41,4 C 41,3.446 40.554,3 40,3 z" id="rect3886" inkscape:connector-curvature="0" sodipodi:nodetypes="sssssssss" opacity="0.35" color="#bebebe" stroke-width="0"/>
  <path d="M 40,4 8,4 8,43 40,43 z" id="rect3882" inkscape:connector-curvature="0" sodipodi:nodetypes="ccccc" fill="url(#linearGradient3142)" color="#bebebe" stroke-width="0"/>
  <path id="path3893" d="M 40,4 8,4 8,43 40,43 z M 39,5 39,42 9,42 9,5 z" inkscape:connector-curvature="0" sodipodi:nodetypes="cccccccccc" opacity="0.4" fill="url(#linearGradient3920)"/>
  <rect id="rect3144" width="32" height="1" x="8" y="4" opacity="0.4" fill="#ffffff" stroke-linecap="square"/>
  <rect y="42" x="8" height="1" width="32" id="rect3922" opacity="0.2" fill="#ffffff"/>
 </g>
 <g inkscape:groupmode="layer" id="layer2" inkscape:label="Symbol">
  <g id="g3530" transform="translate(-1265,697)" opacity="0.4" enable-background="new" fill="#ffffff">
   <path inkscape:connector-curvature="0" id="path3532" d="m 1286.2407,-672.58824 1.3954,0 c 1.3041,2e-5 2.28,-0.25534 2.9275,-0.76607 0.6475,-0.51982 0.9712,-1.27222 0.9713,-2.25718 -1e-4,-0.99406 -0.2737,-1.72821 -0.8208,-2.20246 -0.5381,-0.47422 -1.3863,-0.71134 -2.5445,-0.71136 l -1.9289,0 0,5.93707 m 9.576,-3.17373 c -10e-5,2.15231 -0.6749,3.79846 -2.0247,4.93844 -1.3406,1.14 -3.2512,1.70999 -5.7318,1.70999 l -1.8195,0 0,7.11354 -4.2407,0 0,-20 6.3885,0 c 2.4259,2e-5 4.2681,0.52441 5.5267,1.57319 1.2676,1.03969 1.9014,2.59463 1.9015,4.66484"/>
  </g>
  <g transform="translate(-1265,696)" id="text7822" fill="#d24625" enable-background="new">
   <path d="m 1286.2407,-672.58824 1.3954,0 c 1.3041,2e-5 2.28,-0.25534 2.9275,-0.76607 0.6475,-0.51982 0.9712,-1.27222 0.9713,-2.25718 -1e-4,-0.99406 -0.2737,-1.72821 -0.8208,-2.20246 -0.5381,-0.47422 -1.3863,-0.71134 -2.5445,-0.71136 l -1.9289,0 0,5.93707 m 9.576,-3.17373 c -10e-5,2.15231 -0.6749,3.79846 -2.0247,4.93844 -1.3406,1.14 -3.2512,1.70999 -5.7318,1.70999 l -1.8195,0 0,7.11354 -4.2407,0 0,-20 6.3885,0 c 2.4259,2e-5 4.2681,0.52441 5.5267,1.57319 1.2676,1.03969 1.9014,2.59463 1.9015,4.66484" id="path8633" inkscape:connector-curvature="0"/>
  </g>
 </g>
</svg>
