<?xml version="1.0" encoding="UTF-8" standalone="no"?>
<svg
   xmlns:dc="http://purl.org/dc/elements/1.1/"
   xmlns:cc="http://creativecommons.org/ns#"
   xmlns:rdf="http://www.w3.org/1999/02/22-rdf-syntax-ns#"
   xmlns:svg="http://www.w3.org/2000/svg"
   xmlns="http://www.w3.org/2000/svg"
   xmlns:xlink="http://www.w3.org/1999/xlink"
   id="svg3759"
   height="48"
   width="48"
   version="1.1">
  <metadata
     id="metadata37">
    <rdf:RDF>
      <cc:Work
         rdf:about="">
        <dc:format>image/svg+xml</dc:format>
        <dc:type
           rdf:resource="http://purl.org/dc/dcmitype/StillImage" />
        <dc:title />
      </cc:Work>
    </rdf:RDF>
  </metadata>
  <defs
     id="defs3761">
    <linearGradient
       id="linearGradient3914">
      <stop
         id="stop3916"
         offset="0"
         style="stop-color:#ffffff;stop-opacity:1;" />
      <stop
         id="stop3918"
         offset="1"
         style="stop-color:#ffffff;stop-opacity:0;" />
    </linearGradient>
    <linearGradient
       id="linearGradient3960">
      <stop
         id="stop3962"
         offset="0"
         style="stop-color:#000000;stop-opacity:0;" />
      <stop
         style="stop-color:#000000;stop-opacity:1;"
         offset="0.5"
         id="stop3970" />
      <stop
         id="stop3964"
         offset="1"
         style="stop-color:#000000;stop-opacity:0;" />
    </linearGradient>
    <linearGradient
       id="linearGradient3952">
      <stop
         id="stop3954"
         offset="0"
         style="stop-color:#000000;stop-opacity:1;" />
      <stop
         id="stop3956"
         offset="1"
         style="stop-color:#000000;stop-opacity:0;" />
    </linearGradient>
    <linearGradient
       id="linearGradient3944">
      <stop
         id="stop3946"
         offset="0"
         style="stop-color:#000000;stop-opacity:1;" />
      <stop
         id="stop3948"
         offset="1"
         style="stop-color:#000000;stop-opacity:0;" />
    </linearGradient>
    <linearGradient
       id="linearGradient3988-5">
      <stop
         id="stop3990-5"
         offset="0"
         style="stop-color:#e8e8e8;stop-opacity:1;" />
      <stop
         id="stop3992-0"
         offset="1"
         style="stop-color:#f0f0f0;stop-opacity:1;" />
    </linearGradient>
    <linearGradient
       y2="40.000172"
       x2="144.00006"
       y1="280.00018"
       x1="144.00006"
       gradientTransform="matrix(-0.175,0,0,0.175,49.20002,-5.0000326)"
       gradientUnits="userSpaceOnUse"
       id="linearGradient3142"
       xlink:href="#linearGradient3988-5" />
    <linearGradient
       gradientUnits="userSpaceOnUse"
       y2="48"
       x2="24"
       y1="0"
       x1="24"
       id="linearGradient3920"
       xlink:href="#linearGradient3914" />
    <radialGradient
       r="2"
       fy="43.5"
       fx="9"
       cy="43.5"
       cx="9"
       gradientTransform="matrix(1,0,0,0.75,-1.0000003,10.875)"
       gradientUnits="userSpaceOnUse"
       id="radialGradient3925"
       xlink:href="#linearGradient3944" />
    <radialGradient
       r="2"
       fy="43.5"
       fx="40"
       cy="43.5"
       cx="40"
       gradientTransform="matrix(1,0,0,0.75,-3e-7,10.875)"
       gradientUnits="userSpaceOnUse"
       id="radialGradient3928"
       xlink:href="#linearGradient3952" />
    <linearGradient
       gradientTransform="matrix(1.0305144,0,0,1,-1.2476025,0)"
       y2="42"
       x2="25"
       y1="45"
       x1="25"
       gradientUnits="userSpaceOnUse"
       id="linearGradient3931"
       xlink:href="#linearGradient3960" />
    <radialGradient
       r="2"
       fy="43.5"
       fx="9"
       cy="43.5"
       cx="9"
       gradientTransform="matrix(1.0571429,0,0,1.25,-2.4000003,-10.875)"
       gradientUnits="userSpaceOnUse"
       id="radialGradient3934"
       xlink:href="#linearGradient3944" />
    <radialGradient
       r="2"
       fy="43.5"
       fx="40"
       cy="43.5"
       cx="40"
       gradientTransform="matrix(1.0571429,0,0,1.25,-1.4000003,-10.875)"
       gradientUnits="userSpaceOnUse"
       id="radialGradient3937"
       xlink:href="#linearGradient3952" />
    <linearGradient
       gradientTransform="matrix(1.0894009,0,0,1.6666667,-2.6903226,-29)"
       y2="42"
       x2="25"
       y1="45"
       x1="25"
       gradientUnits="userSpaceOnUse"
       id="linearGradient3940"
       xlink:href="#linearGradient3960" />
  </defs>
  <g
     id="layer1">
    <g
       id="g3942">
      <rect
         y="41"
         x="7.1142859"
         height="5"
         width="33.771431"
         id="rect3985"
         style="opacity:0.12000002;fill:url(#linearGradient3940);fill-opacity:1;stroke:none" />
      <path
         id="path3987"
         d="m 40.885716,41.000001 0,5 0.528571,0 c 0.878486,0 1.585715,-1.115 1.585715,-2.5 0,-1.385 -0.707229,-2.5 -1.585715,-2.5 l -0.528571,0 z"
         style="opacity:0.12000002;fill:url(#radialGradient3937);fill-opacity:1;stroke:none" />
      <path
         id="path3989"
         d="M 6.4866072,41.000001 C 5.6630268,41.000001 5,42.045313 5,43.343751 l 0,0.3125 c 0,1.298439 0.6630268,2.34375 1.4866072,2.34375 l 0.6276786,0 0,-5 -0.6276786,0 z"
         style="opacity:0.12000002;fill:url(#radialGradient3934);fill-opacity:1;stroke:none" />
      <rect
         style="opacity:0.12000002;fill:url(#linearGradient3931);fill-opacity:1;stroke:none"
         id="rect3938"
         width="31.945946"
         height="3"
         x="8.0270262"
         y="42" />
      <path
         style="opacity:0.12000002;fill:url(#radialGradient3928);fill-opacity:1;stroke:none"
         d="m 40,42 0,3 0.5,0 C 41.331,45 42,44.331 42,43.5 42,42.669 41.331,42 40.5,42 L 40,42 z"
         id="rect3940" />
      <path
         style="opacity:0.12000002;fill:url(#radialGradient3925);fill-opacity:1;stroke:none"
         d="m 7.4062497,42 c -0.7790625,0 -1.40625,0.627187 -1.40625,1.40625 l 0,0.1875 c 0,0.779063 0.6271875,1.40625 1.40625,1.40625 l 0.59375,0 0,-3 -0.59375,0 z"
         id="rect3942" />
    </g>
    <path
       id="rect3886"
       d="M 40,3 8,3 C 7.446,3 7,3.446 7,4 l 0,39 c 0,0.554 0.446,1 1,1 l 32,0 c 0.554,0 1,-0.446 1,-1 L 41,4 C 41,3.446 40.554,3 40,3 z"
       style="opacity:0.35;color:#bebebe;fill:#000000;fill-opacity:1;fill-rule:nonzero;stroke:none;stroke-width:0;marker:none;visibility:visible;display:inline;overflow:visible;enable-background:accumulate" />
    <path
       id="rect3882"
       d="M 40,4 8,4 8,43 40,43 z"
       style="color:#bebebe;fill:url(#linearGradient3142);fill-opacity:1;fill-rule:nonzero;stroke:none;stroke-width:0;marker:none;visibility:visible;display:inline;overflow:visible;enable-background:accumulate" />
    <path
       style="opacity:0.40000000000000002;fill:url(#linearGradient3920);fill-opacity:1;stroke:none"
       d="M 40,4 8,4 8,43 40,43 z M 39,5 39,42 9,42 9,5 z"
       id="path3893" />
    <rect
       y="4"
       x="8"
       height="1"
       width="32"
       id="rect3144"
       style="opacity:0.40000000000000002;fill:#ffffff;fill-opacity:1;stroke:none;stroke-width:1;stroke-linecap:square;stroke-miterlimit:4;stroke-opacity:1;stroke-dasharray:none" />
    <rect
       style="opacity:0.2;fill:#ffffff;fill-opacity:1;stroke:none"
       id="rect3922"
       width="32"
       height="1"
       x="8"
       y="42" />
  </g>
  <g
     id="layer2">
    <g
       transform="translate(-1265,697)"
       style="font-size:3.11293530000000018px;font-style:normal;font-variant:normal;font-weight:normal;font-stretch:normal;text-align:center;line-height:125%;letter-spacing:0px;word-spacing:0px;text-anchor:middle;fill:#ffffff;fill-opacity:1;stroke:none;display:inline;enable-background:new;font-family:Open Sans;-inkscape-font-specification:Open Sans;opacity:0.4"
       id="g3530">
      <path
         d="m 1286.2407,-672.58824 1.3954,0 c 1.3041,2e-5 2.28,-0.25534 2.9275,-0.76607 0.6475,-0.51982 0.9712,-1.27222 0.9713,-2.25718 -1e-4,-0.99406 -0.2737,-1.72821 -0.8208,-2.20246 -0.5381,-0.47422 -1.3863,-0.71134 -2.5445,-0.71136 l -1.9289,0 0,5.93707 m 9.576,-3.17373 c -10e-5,2.15231 -0.6749,3.79846 -2.0247,4.93844 -1.3406,1.14 -3.2512,1.70999 -5.7318,1.70999 l -1.8195,0 0,7.11354 -4.2407,0 0,-20 6.3885,0 c 2.4259,2e-5 4.2681,0.52441 5.5267,1.57319 1.2676,1.03969 1.9014,2.59463 1.9015,4.66484"
         style="font-size:28.01641654999999886px;font-weight:bold;fill:#ffffff;fill-opacity:1;-inkscape-font-specification:Open Sans Bold"
         id="path3532" />
    </g>
    <g
       id="text7822"
       style="font-size:3.1129353px;font-style:normal;font-variant:normal;font-weight:normal;font-stretch:normal;text-align:center;line-height:125%;letter-spacing:0px;word-spacing:0px;text-anchor:middle;fill:#d24625;fill-opacity:1;stroke:none;display:inline;enable-background:new;font-family:Open Sans;-inkscape-font-specification:Open Sans"
       transform="translate(-1265,696)">
      <path
         id="path8633"
         style="font-size:28.01641655px;font-weight:bold;fill:#d24625;-inkscape-font-specification:Open Sans Bold"
         d="m 1286.2407,-672.58824 1.3954,0 c 1.3041,2e-5 2.28,-0.25534 2.9275,-0.76607 0.6475,-0.51982 0.9712,-1.27222 0.9713,-2.25718 -1e-4,-0.99406 -0.2737,-1.72821 -0.8208,-2.20246 -0.5381,-0.47422 -1.3863,-0.71134 -2.5445,-0.71136 l -1.9289,0 0,5.93707 m 9.576,-3.17373 c -10e-5,2.15231 -0.6749,3.79846 -2.0247,4.93844 -1.3406,1.14 -3.2512,1.70999 -5.7318,1.70999 l -1.8195,0 0,7.11354 -4.2407,0 0,-20 6.3885,0 c 2.4259,2e-5 4.2681,0.52441 5.5267,1.57319 1.2676,1.03969 1.9014,2.59463 1.9015,4.66484" />
    </g>
  </g>
</svg>
