<?xml version="1.0" encoding="UTF-8" standalone="no"?>
<svg
   xmlns:dc="http://purl.org/dc/elements/1.1/"
   xmlns:cc="http://creativecommons.org/ns#"
   xmlns:rdf="http://www.w3.org/1999/02/22-rdf-syntax-ns#"
   xmlns:svg="http://www.w3.org/2000/svg"
   xmlns="http://www.w3.org/2000/svg"
   xmlns:xlink="http://www.w3.org/1999/xlink"
   version="1.1"
   width="48"
   height="48"
   id="svg3759">
  <metadata
     id="metadata37">
    <rdf:RDF>
      <cc:Work
         rdf:about="">
        <dc:format>image/svg+xml</dc:format>
        <dc:type
           rdf:resource="http://purl.org/dc/dcmitype/StillImage" />
        <dc:title />
      </cc:Work>
    </rdf:RDF>
  </metadata>
  <defs
     id="defs3761">
    <linearGradient
       id="linearGradient3914">
      <stop
         style="stop-color:#ffffff;stop-opacity:1;"
         offset="0"
         id="stop3916" />
      <stop
         style="stop-color:#ffffff;stop-opacity:0;"
         offset="1"
         id="stop3918" />
    </linearGradient>
    <linearGradient
       id="linearGradient3960">
      <stop
         style="stop-color:#000000;stop-opacity:0;"
         offset="0"
         id="stop3962" />
      <stop
         id="stop3970"
         offset="0.5"
         style="stop-color:#000000;stop-opacity:1;" />
      <stop
         style="stop-color:#000000;stop-opacity:0;"
         offset="1"
         id="stop3964" />
    </linearGradient>
    <linearGradient
       id="linearGradient3952">
      <stop
         style="stop-color:#000000;stop-opacity:1;"
         offset="0"
         id="stop3954" />
      <stop
         style="stop-color:#000000;stop-opacity:0;"
         offset="1"
         id="stop3956" />
    </linearGradient>
    <linearGradient
       id="linearGradient3944">
      <stop
         style="stop-color:#000000;stop-opacity:1;"
         offset="0"
         id="stop3946" />
      <stop
         style="stop-color:#000000;stop-opacity:0;"
         offset="1"
         id="stop3948" />
    </linearGradient>
    <linearGradient
       id="linearGradient3988-5">
      <stop
         style="stop-color:#e8e8e8;stop-opacity:1;"
         offset="0"
         id="stop3990-5" />
      <stop
         style="stop-color:#f0f0f0;stop-opacity:1;"
         offset="1"
         id="stop3992-0" />
    </linearGradient>
    <linearGradient
       xlink:href="#linearGradient3988-5"
       id="linearGradient3142"
       gradientUnits="userSpaceOnUse"
       gradientTransform="matrix(-0.175,0,0,0.175,49.20002,-5.0000326)"
       x1="144.00006"
       y1="280.00018"
       x2="144.00006"
       y2="40.000172" />
    <linearGradient
       xlink:href="#linearGradient3914"
       id="linearGradient3920"
       x1="24"
       y1="0"
       x2="24"
       y2="48"
       gradientUnits="userSpaceOnUse" />
    <radialGradient
       xlink:href="#linearGradient3944"
       id="radialGradient3925"
       gradientUnits="userSpaceOnUse"
       gradientTransform="matrix(1,0,0,0.75,-1.0000003,10.875)"
       cx="9"
       cy="43.5"
       fx="9"
       fy="43.5"
       r="2" />
    <radialGradient
       xlink:href="#linearGradient3952"
       id="radialGradient3928"
       gradientUnits="userSpaceOnUse"
       gradientTransform="matrix(1,0,0,0.75,-3e-7,10.875)"
       cx="40"
       cy="43.5"
       fx="40"
       fy="43.5"
       r="2" />
    <linearGradient
       xlink:href="#linearGradient3960"
       id="linearGradient3931"
       gradientUnits="userSpaceOnUse"
       x1="25"
       y1="45"
       x2="25"
       y2="42"
       gradientTransform="matrix(1.0305144,0,0,1,-1.2476025,0)" />
    <radialGradient
       xlink:href="#linearGradient3944"
       id="radialGradient3934"
       gradientUnits="userSpaceOnUse"
       gradientTransform="matrix(1.0571429,0,0,1.25,-2.4000003,-10.875)"
       cx="9"
       cy="43.5"
       fx="9"
       fy="43.5"
       r="2" />
    <radialGradient
       xlink:href="#linearGradient3952"
       id="radialGradient3937"
       gradientUnits="userSpaceOnUse"
       gradientTransform="matrix(1.0571429,0,0,1.25,-1.4000003,-10.875)"
       cx="40"
       cy="43.5"
       fx="40"
       fy="43.5"
       r="2" />
    <linearGradient
       xlink:href="#linearGradient3960"
       id="linearGradient3940"
       gradientUnits="userSpaceOnUse"
       x1="25"
       y1="45"
       x2="25"
       y2="42"
       gradientTransform="matrix(1.0894009,0,0,1.6666667,-2.6903226,-29)" />
  </defs>
  <g
     id="layer1">
    <g
       id="g3942">
      <rect
         style="opacity:0.12000002;fill:url(#linearGradient3940);fill-opacity:1;stroke:none"
         id="rect3985"
         width="33.771431"
         height="5"
         x="7.1142859"
         y="41" />
      <path
         style="opacity:0.12000002;fill:url(#radialGradient3937);fill-opacity:1;stroke:none"
         d="m 40.885716,41.000001 0,5 0.528571,0 c 0.878486,0 1.585715,-1.115 1.585715,-2.5 0,-1.385 -0.707229,-2.5 -1.585715,-2.5 l -0.528571,0 z"
         id="path3987" />
      <path
         style="opacity:0.12000002;fill:url(#radialGradient3934);fill-opacity:1;stroke:none"
         d="M 6.4866072,41.000001 C 5.6630268,41.000001 5,42.045313 5,43.343751 l 0,0.3125 c 0,1.298439 0.6630268,2.34375 1.4866072,2.34375 l 0.6276786,0 0,-5 -0.6276786,0 z"
         id="path3989" />
      <rect
         y="42"
         x="8.0270262"
         height="3"
         width="31.945946"
         id="rect3938"
         style="opacity:0.12000002;fill:url(#linearGradient3931);fill-opacity:1;stroke:none" />
      <path
         id="rect3940"
         d="m 40,42 0,3 0.5,0 C 41.331,45 42,44.331 42,43.5 42,42.669 41.331,42 40.5,42 L 40,42 z"
         style="opacity:0.12000002;fill:url(#radialGradient3928);fill-opacity:1;stroke:none" />
      <path
         id="rect3942"
         d="m 7.4062497,42 c -0.7790625,0 -1.40625,0.627187 -1.40625,1.40625 l 0,0.1875 c 0,0.779063 0.6271875,1.40625 1.40625,1.40625 l 0.59375,0 0,-3 -0.59375,0 z"
         style="opacity:0.12000002;fill:url(#radialGradient3925);fill-opacity:1;stroke:none" />
    </g>
    <path
       style="opacity:0.35;color:#bebebe;fill:#000000;fill-opacity:1;fill-rule:nonzero;stroke:none;stroke-width:0;marker:none;visibility:visible;display:inline;overflow:visible;enable-background:accumulate"
       d="M 40,3 8,3 C 7.446,3 7,3.446 7,4 l 0,39 c 0,0.554 0.446,1 1,1 l 32,0 c 0.554,0 1,-0.446 1,-1 L 41,4 C 41,3.446 40.554,3 40,3 z"
       id="rect3886" />
    <path
       style="color:#bebebe;fill:url(#linearGradient3142);fill-opacity:1;fill-rule:nonzero;stroke:none;stroke-width:0;marker:none;visibility:visible;display:inline;overflow:visible;enable-background:accumulate"
       d="M 40,4 8,4 8,43 40,43 z"
       id="rect3882" />
    <path
       id="path3893"
       d="M 40,4 8,4 8,43 40,43 z M 39,5 39,42 9,42 9,5 z"
       style="opacity:0.40000000000000002;fill:url(#linearGradient3920);fill-opacity:1;stroke:none" />
    <rect
       style="opacity:0.40000000000000002;fill:#ffffff;fill-opacity:1;stroke:none;stroke-width:1;stroke-linecap:square;stroke-miterlimit:4;stroke-opacity:1;stroke-dasharray:none"
       id="rect3144"
       width="32"
       height="1"
       x="8"
       y="4" />
    <rect
       y="42"
       x="8"
       height="1"
       width="32"
       id="rect3922"
       style="opacity:0.2;fill:#ffffff;fill-opacity:1;stroke:none" />
  </g>
  <g
     id="layer2">
    <g
       id="g4721"
       style="font-size:3.1129353px;font-style:normal;font-variant:normal;font-weight:normal;font-stretch:normal;text-align:center;line-height:125%;letter-spacing:0px;word-spacing:0px;text-anchor:middle;opacity:0.4;fill:#ffffff;fill-opacity:1;stroke:none;display:inline;enable-background:new;font-family:Open Sans;-inkscape-font-specification:Open Sans"
       transform="translate(-1768.1648,697)">
      <path
         id="path4723"
         style="font-size:28.01641655px;font-weight:bold;fill:#ffffff;fill-opacity:1;-inkscape-font-specification:Open Sans Bold"
         d="m 1797.2606,-662 -1.4501,-4.7606 -7.2914,0 -1.4501,4.7606 -4.569,0 7.0588,-20.08208 5.1847,0 7.0861,20.08208 -4.569,0 m -2.4624,-8.31737 c -1.3407,-4.31372 -2.0976,-6.75329 -2.2709,-7.31875 -0.1642,-0.56541 -0.2827,-1.01229 -0.3557,-1.34062 -0.3009,1.16736 -1.1628,4.05382 -2.5855,8.65937 l 5.2121,0" />
    </g>
    <g
       transform="translate(-1768.1648,696)"
       style="font-size:3.1129353px;font-style:normal;font-variant:normal;font-weight:normal;font-stretch:normal;text-align:center;line-height:125%;letter-spacing:0px;word-spacing:0px;text-anchor:middle;fill:#a33639;fill-opacity:1;stroke:none;display:inline;enable-background:new;font-family:Open Sans;-inkscape-font-specification:Open Sans"
       id="text7980">
      <path
         d="m 1797.2606,-662 -1.4501,-4.7606 -7.2914,0 -1.4501,4.7606 -4.569,0 7.0588,-20.08208 5.1847,0 7.0861,20.08208 -4.569,0 m -2.4624,-8.31737 c -1.3407,-4.31372 -2.0976,-6.75329 -2.2709,-7.31875 -0.1642,-0.56541 -0.2827,-1.01229 -0.3557,-1.34062 -0.3009,1.16736 -1.1628,4.05382 -2.5855,8.65937 l 5.2121,0"
         style="font-size:28.01641655px;font-weight:bold;fill:#a33639;-inkscape-font-specification:Open Sans Bold"
         id="path8655" />
    </g>
  </g>
</svg>
