<?xml version="1.0" encoding="UTF-8" standalone="no"?>
<svg xmlns="http://www.w3.org/2000/svg" xmlns:xlink="http://www.w3.org/1999/xlink" xmlns:sodipodi="http://sodipodi.sourceforge.net/DTD/sodipodi-0.dtd" xmlns:inkscape="http://www.inkscape.org/namespaces/inkscape" version="1.1" width="48" height="48">
 <metadata id="metadata37"/>
 <defs id="defs3761">
  <linearGradient inkscape:collect="always" id="linearGradient4623">
   <stop id="stop4625" stop-color="#ffffff"/>
   <stop offset="1" id="stop4627" stop-color="#ffffff" stop-opacity="0"/>
  </linearGradient>
  <linearGradient id="linearGradient3960">
   <stop id="stop3962" stop-opacity="0"/>
   <stop id="stop3970" offset="0.5"/>
   <stop offset="1" id="stop3964" stop-opacity="0"/>
  </linearGradient>
  <linearGradient inkscape:collect="always" id="linearGradient3952">
   <stop id="stop3954"/>
   <stop offset="1" id="stop3956" stop-opacity="0"/>
  </linearGradient>
  <linearGradient id="linearGradient4520">
   <stop id="stop4522" stop-color="#571746"/>
   <stop offset="0.362" id="stop4524" stop-color="#8a2c48"/>
   <stop id="stop4526" offset="1" stop-color="#af5c25"/>
  </linearGradient>
  <linearGradient id="linearGradient3810">
   <stop id="stop3812" stop-color="#4cc7e0"/>
   <stop offset="1" id="stop3814" stop-color="#2061be"/>
  </linearGradient>
  <linearGradient inkscape:collect="always" xlink:href="#linearGradient4623" id="linearGradient3017" gradientUnits="userSpaceOnUse" gradientTransform="matrix(2.1153734,0,0,2.1153252,-107.57708,31.426557)" y1="-12.489" x2="0" y2="-1.462"/>
  <linearGradient inkscape:collect="always" xlink:href="#linearGradient3810" id="linearGradient3816" x1="4.5" x2="43.5" gradientUnits="userSpaceOnUse" gradientTransform="matrix(0,1,-1,0,48.000003,-3e-6)"/>
  <linearGradient inkscape:collect="always" xlink:href="#linearGradient3988" id="linearGradient3965" gradientUnits="userSpaceOnUse" y1="116.26" x2="0" y2="31.773"/>
  <linearGradient id="linearGradient3988">
   <stop id="stop3990" stop-color="#eeeeec"/>
   <stop offset="1" id="stop3992" stop-color="#ffffff"/>
  </linearGradient>
  <radialGradient inkscape:collect="always" xlink:href="#linearGradient3952" id="radialGradient3755" gradientUnits="userSpaceOnUse" gradientTransform="matrix(1,0,0,0.37,0,24.5124)" cx="24.85" cy="38.909" r="20.2"/>
  <radialGradient r="20.2" cy="38.909" cx="24.85" gradientTransform="matrix(1.00851,0,0,0.373148,-0.211403,24.39)" gradientUnits="userSpaceOnUse" id="radialGradient4274" xlink:href="#linearGradient3952" inkscape:collect="always"/>
  <linearGradient inkscape:collect="always" xlink:href="#linearGradient4623" id="linearGradient4140" x1="789" x2="827" gradientUnits="userSpaceOnUse"/>
  <clipPath id="clipPath4130">
   <path id="path4132" d="M 790.4375,237 C 789.62555,237 789,237.62555 789,238.4375 l 0,35.09375 c 0,0.812 0.62555,1.46875 1.4375,1.46875 l 35.125,0 c 0.81195,0 1.4375,-0.65675 1.4375,-1.46875 l 0,-35.09375 C 827,237.62555 826.37445,237 825.5625,237 l -35.125,0 z"/>
  </clipPath>
  <linearGradient inkscape:collect="always" xlink:href="#linearGradient5618" id="linearGradient4083" x1="-1023.86" x2="-984.86" gradientUnits="userSpaceOnUse" gradientTransform="translate(980.3622,784)"/>
  <linearGradient id="linearGradient5618">
   <stop id="stop5620" stop-color="#3e3e3e"/>
   <stop offset="1" id="stop5622" stop-color="#595959"/>
  </linearGradient>
  <linearGradient id="linearGradient4094">
   <stop id="stop4096" stop-color="#e28192"/>
   <stop id="stop4317" offset="0.259" stop-color="#f7d6c7"/>
   <stop offset="1" id="stop4098" stop-color="#fffee4"/>
  </linearGradient>
  <clipPath id="clipPath14228">
   <rect id="rect14230" width="32" height="42" x="312" y="231" fill="none" color="#bebebe" stroke-width="0" rx="0"/>
  </clipPath>
  <clipPath id="clipPath3449">
   <rect id="rect3451" width="32" height="42" x="312" y="231" fill="none" color="#bebebe" stroke-width="0" rx="0"/>
  </clipPath>
  <linearGradient inkscape:collect="always" xlink:href="#linearGradient3988-5" id="linearGradient4030" x1="304" x2="352" gradientUnits="userSpaceOnUse"/>
  <linearGradient id="linearGradient3988-5">
   <stop id="stop3990-5" stop-color="#ededed"/>
   <stop offset="1" id="stop3992-0" stop-color="#fafafa"/>
  </linearGradient>
  <clipPath id="clipPath3457">
   <rect id="rect3459" width="32" height="42" x="312" y="231" fill="none" color="#bebebe" stroke-width="0" rx="0"/>
  </clipPath>
  <clipPath id="clipPath3461">
   <rect id="rect3463" width="32" height="42" x="312" y="231" fill="none" color="#bebebe" stroke-width="0" rx="0"/>
  </clipPath>
  <linearGradient id="outerBackgroundGradient">
   <stop id="stop3864-8-6" stop-color="#8c166c"/>
   <stop id="stop4409" offset="0.362" stop-color="#ca3561"/>
   <stop offset="1" id="stop3866-9-1" stop-color="#f38f4e"/>
  </linearGradient>
  <linearGradient inkscape:collect="always" xlink:href="#linearGradient3988-5" id="linearGradient3947" gradientUnits="userSpaceOnUse" gradientTransform="matrix(0,-0.175,0.175,0,-4.0000326,48.20002)" y1="280" x2="0" y2="40"/>
  <linearGradient inkscape:collect="always" xlink:href="#outerBackgroundGradient" id="linearGradient3949" gradientUnits="userSpaceOnUse" gradientTransform="matrix(0,-0.175,0.175,0,-4.0000326,1.2000199)" y1="280" x2="0" y2="40"/>
  <linearGradient inkscape:collect="always" xlink:href="#linearGradient4094" id="linearGradient3951" gradientUnits="userSpaceOnUse" x1="324" x2="332"/>
  <radialGradient cx="4.993" cy="43.5" gradientTransform="matrix(2.003784,0,0,1.4,27.98813,-17.4)" gradientUnits="userSpaceOnUse" id="radialGradient9116" inkscape:collect="always" r="2.5" xlink:href="#linearGradient3952"/>
  <radialGradient cx="4.993" cy="43.5" gradientTransform="matrix(2.003784,0,0,1.4,-20.01187,-104.4)" gradientUnits="userSpaceOnUse" id="radialGradient9118" inkscape:collect="always" r="2.5" xlink:href="#linearGradient3952"/>
  <linearGradient gradientUnits="userSpaceOnUse" id="linearGradient9120" inkscape:collect="always" x2="0" xlink:href="#linearGradient3960" y1="47.03" y2="39.999"/>
  <linearGradient gradientTransform="translate(80.00001,-0.0389932)" gradientUnits="userSpaceOnUse" id="linearGradient9122" inkscape:collect="always" x2="0" xlink:href="#linearGradient6394" y1="-0.806" y2="18.01"/>
  <linearGradient id="linearGradient6394" inkscape:collect="always">
   <stop id="stop6396" stop-color="#729fcf"/>
   <stop id="stop6398" offset="1" stop-color="#ffffff"/>
  </linearGradient>
  <linearGradient gradientTransform="matrix(1,0,0,2,80.00001,-17.038994)" gradientUnits="userSpaceOnUse" id="linearGradient9124" inkscape:collect="always" x2="0" xlink:href="#linearGradient6754" y1="16.188" y2="14.14"/>
  <linearGradient id="linearGradient6754" inkscape:collect="always">
   <stop id="stop6756" stop-color="#729fcf"/>
   <stop id="stop6758" offset="1" stop-color="#729fcf" stop-opacity="0"/>
  </linearGradient>
  <radialGradient cx="-16.484" cy="16.06" gradientTransform="matrix(1.4386863,0,0,1.1876132,7.181008,-2.926052)" gradientUnits="userSpaceOnUse" id="radialGradient9126" inkscape:collect="always" r="9" xlink:href="#linearGradient4623"/>
  <linearGradient inkscape:collect="always" xlink:href="#linearGradient6754" id="linearGradient4458" gradientUnits="userSpaceOnUse" gradientTransform="matrix(1,0,0,2,47.965462,11.645619)" y1="16.188" x2="0" y2="14.14"/>
  <linearGradient inkscape:collect="always" xlink:href="#outerBackgroundGradient" id="linearGradient4462" gradientUnits="userSpaceOnUse" gradientTransform="matrix(1.0769229,0,0,1.0769229,55.461537,22.120194)" y1="-0.806" x2="0" y2="18.01"/>
  <linearGradient inkscape:collect="always" xlink:href="#outerBackgroundGradient" id="linearGradient3123" gradientUnits="userSpaceOnUse" gradientTransform="matrix(0,-0.175,0.175,0,-5.0000326,-0.7999801)" y1="280" x2="0" y2="40"/>
  <linearGradient inkscape:collect="always" xlink:href="#linearGradient4094" id="linearGradient3117" gradientUnits="userSpaceOnUse" x1="324" x2="332" gradientTransform="matrix(0,-1,1,0,-208.375,365.12502)"/>
  <linearGradient y2="40" x2="0" y1="280" gradientTransform="matrix(0,-0.175,0.175,0,5.124967,-36.42498)" gradientUnits="userSpaceOnUse" id="linearGradient3157" xlink:href="#outerBackgroundGradient" inkscape:collect="always"/>
  <clipPath id="clipPath4552">
   <rect id="rect4554" width="21.1" height="21.1" x="42.892" y="24.01" rx="0" opacity="0.2"/>
  </clipPath>
  <radialGradient inkscape:collect="always" xlink:href="#linearGradient3952" id="radialGradient3950" cx="9" cy="43.5" r="2" gradientTransform="matrix(1,0,0,0.75,0,10.875)" gradientUnits="userSpaceOnUse"/>
  <radialGradient inkscape:collect="always" xlink:href="#linearGradient3952" id="radialGradient3958" cx="40" cy="43.5" r="2" gradientTransform="matrix(1,0,0,0.75,0,10.875)" gradientUnits="userSpaceOnUse"/>
  <linearGradient inkscape:collect="always" xlink:href="#linearGradient3960" id="linearGradient3968" y1="45" x2="0" y2="42" gradientUnits="userSpaceOnUse"/>
  <linearGradient inkscape:collect="always" xlink:href="#linearGradient20553" id="linearGradient20572" gradientUnits="userSpaceOnUse" gradientTransform="matrix(5.3333333,0,0,5.3333333,-1616,4821.3622)" y1="-939" x2="0" y2="-984"/>
  <linearGradient id="linearGradient20553">
   <stop id="stop20555" stop-color="#a348b1"/>
   <stop offset="1" id="stop20557" stop-color="#bf7bca"/>
  </linearGradient>
  <linearGradient inkscape:collect="always" xlink:href="#linearGradient20553" id="linearGradient4608" gradientUnits="userSpaceOnUse" gradientTransform="matrix(1.0833333,0,0,0.88888892,-329.50001,878.16672)" y1="-939" x2="0" y2="-984"/>
  <linearGradient inkscape:collect="always" xlink:href="#linearGradient3988-5" id="linearGradient4617" gradientUnits="userSpaceOnUse" gradientTransform="matrix(0.175,0,0,0.175,-50.20002,-5.0000326)" y1="280" x2="0" y2="40"/>
  <linearGradient inkscape:collect="always" xlink:href="#linearGradient4623" id="linearGradient4629" y1="4" x2="0" y2="44" gradientUnits="userSpaceOnUse"/>
  <clipPath id="clipPath4320">
   <path id="path4322" d="m 312,235.3125 c -4.52475,0 -8.1875,3.69401 -8.1875,8.21875 0,4.52474 3.66275,8.1875 8.1875,8.1875 4.52474,0 8.1875,-3.66276 8.1875,-8.1875 0,-4.52474 -3.66276,-8.21875 -8.1875,-8.21875 z m 0,5.21875 c 1.65685,0 3,1.34315 3,3 0,1.65685 -1.34315,3 -3,3 -1.65685,0 -3,-1.34315 -3,-3 0,-1.65685 1.34315,-3 3,-3 z"/>
  </clipPath>
  <clipPath id="clipPath4045">
   <path d="m 377.5,75.999997 c 0,-23.003065 -18.49694,-41.499998 -41.5,-41.499998 -23.00307,0 -41.5,18.496935 -41.5,41.499998 0,23.003064 18.49693,41.500003 41.5,41.500003 23.00306,-1e-5 41.5,-18.496936 41.5,-41.500003 z m -24.95648,0 c 0,8.356947 -8.01936,15.845456 -16.54352,15.845456 -8.69138,0 -16.54352,-7.657431 -16.54352,-15.845456 0,-8.355272 6.12158,-17.328843 16.54352,-17.328843 10.77097,0 16.54352,9.139112 16.54352,17.328843 z" id="path4047"/>
  </clipPath>
  <clipPath id="clipPath4078">
   <path id="path4080" d="m 336,58 c -9.38884,0 -17,7.61116 -17,17 0,9.38884 7.61116,17 17,17 9.38884,0 17,-7.61116 17,-17 0,-9.38884 -7.61116,-17 -17,-17 z m 0,8 c 4.97056,0 9,4.029437 9,9 0,4.970563 -4.02944,9 -9,9 -4.97056,0 -9,-4.029437 -9,-9 0,-4.970563 4.02944,-9 9,-9 z"/>
  </clipPath>
  <linearGradient id="linearGradient3487">
   <stop id="stop3489" stop-color="#e6cde2"/>
   <stop id="stop3491" offset="1" stop-color="#e6cde2" stop-opacity="0"/>
  </linearGradient>
  <linearGradient id="linearGradient3503">
   <stop id="stop3505" stop-color="#c4ebdd"/>
   <stop id="stop3507" offset="1" stop-color="#c4ebdd" stop-opacity="0"/>
  </linearGradient>
  <linearGradient id="linearGradient3495">
   <stop id="stop3497" stop-color="#c1cbe4"/>
   <stop id="stop3499" offset="1" stop-color="#c1cbe4" stop-opacity="0"/>
  </linearGradient>
  <linearGradient id="linearGradient3519">
   <stop id="stop3521" stop-color="#fcd9cd"/>
   <stop id="stop3523" offset="1" stop-color="#fcd9cd" stop-opacity="0"/>
  </linearGradient>
  <linearGradient id="linearGradient3511">
   <stop id="stop3513" stop-color="#ebeec7"/>
   <stop id="stop3515" offset="1" stop-color="#ebeec7" stop-opacity="0"/>
  </linearGradient>
  <linearGradient inkscape:collect="always" xlink:href="#linearGradient3487" id="linearGradient4771" gradientUnits="userSpaceOnUse" gradientTransform="matrix(-0.96931015,-0.0273871,0.0273871,-0.96931015,46.60129,47.95717)" spreadMethod="reflect" x1="20.58" y1="10.775" x2="24.274" y2="9.862"/>
  <linearGradient inkscape:collect="always" xlink:href="#linearGradient3263-6" id="linearGradient4596" gradientUnits="userSpaceOnUse" gradientTransform="matrix(0,1.1428672,-1.1428672,0,50.40023,-3.42882)" x1="12.274" y1="32.417" x2="35.391" y2="14.203"/>
  <linearGradient x1="12.274" y1="32.417" x2="35.391" y2="14.203" id="linearGradient3263-6" gradientUnits="userSpaceOnUse">
   <stop id="stop3265-8" stop-color="#eeeeee"/>
   <stop id="stop3267-9" offset="0.5" stop-color="#f4f4f4"/>
   <stop id="stop3269-2" offset="1" stop-color="#d8d8d8"/>
  </linearGradient>
  <clipPath id="clipPath3271">
   <rect id="rect3273" width="118" height="59" x="5" y="160" fill="#ffffff" fill-rule="evenodd"/>
  </clipPath>
  <linearGradient inkscape:collect="always" xlink:href="#linearGradient3236" id="linearGradient3917" gradientUnits="userSpaceOnUse" gradientTransform="matrix(-0.9850397,0.171492,-0.171492,-0.9850397,138.01803,271.06706)" x1="5" x2="123"/>
  <linearGradient id="linearGradient3236">
   <stop id="stop3238" stop-color="#ffffff" stop-opacity="0"/>
   <stop offset="0.35" id="stop3240" stop-color="#fffc2b" stop-opacity="0.234"/>
   <stop offset="0.5" id="stop3242" stop-color="#46d15d" stop-opacity="0.219"/>
   <stop id="stop3244" offset="0.65" stop-color="#46d1aa" stop-opacity="0"/>
   <stop id="stop3246" offset="1" stop-color="#ffffff" stop-opacity="0"/>
  </linearGradient>
  <linearGradient inkscape:collect="always" xlink:href="#linearGradient3265" id="linearGradient3919" gradientUnits="userSpaceOnUse" gradientTransform="matrix(-0.8529965,0.5216416,-0.5216416,-0.8529964,151.97682,240.20671)" x1="5" x2="123"/>
  <linearGradient id="linearGradient3265">
   <stop id="stop3267" stop-color="#ffffff" stop-opacity="0"/>
   <stop id="stop3252" offset="0.2" stop-color="#afcff3" stop-opacity="0"/>
   <stop id="stop3269" offset="0.35" stop-color="#60a0e7" stop-opacity="0.148"/>
   <stop id="stop3271" offset="0.5" stop-color="#db8ef1" stop-opacity="0.211"/>
   <stop offset="0.65" id="stop3273" stop-color="#ffffff" stop-opacity="0"/>
   <stop offset="1" id="stop3275" stop-color="#ffffff" stop-opacity="0"/>
  </linearGradient>
  <linearGradient inkscape:collect="always" xlink:href="#linearGradient3247" id="linearGradient3921" gradientUnits="userSpaceOnUse" gradientTransform="matrix(-0.881451,-0.4719713,0.4719713,-0.881451,90.206697,305.61903)" x1="5" x2="123"/>
  <linearGradient id="linearGradient3247">
   <stop id="stop3249" stop-color="#ffffff" stop-opacity="0"/>
   <stop id="stop3293" offset="0.3" stop-color="#d5d5d5" stop-opacity="0"/>
   <stop offset="0.5" id="stop3251" stop-color="#eb8888" stop-opacity="0.258"/>
   <stop id="stop3295" offset="0.7" stop-color="#e28f25" stop-opacity="0"/>
   <stop id="stop3253" offset="1" stop-color="#ffffff" stop-opacity="0"/>
  </linearGradient>
  <clipPath id="clipPath3282">
   <rect id="rect3284" width="118" height="59" x="5" y="160" fill="#ffffff" fill-rule="evenodd"/>
  </clipPath>
  <linearGradient inkscape:collect="always" xlink:href="#linearGradient3247" id="linearGradient4114" gradientUnits="userSpaceOnUse" gradientTransform="matrix(-0.881451,-0.4719713,0.4719713,-0.881451,158.19096,176.40672)" x1="5" x2="123"/>
  <linearGradient inkscape:collect="always" xlink:href="#linearGradient3263-6" id="linearGradient4254" x1="4.501" x2="43.497" gradientUnits="userSpaceOnUse" gradientTransform="translate(-0.500694,-0.25034952)"/>
  <linearGradient inkscape:collect="always" xlink:href="#linearGradient3247" id="linearGradient4280" gradientUnits="userSpaceOnUse" gradientTransform="matrix(-0.881451,-0.4719713,0.4719713,-0.881451,120.53803,246.87135)" x1="5" x2="123"/>
  <linearGradient inkscape:collect="always" xlink:href="#linearGradient3263-6" id="linearGradient4291" gradientUnits="userSpaceOnUse" gradientTransform="translate(8.0538e-4,7.0827e-4)" x1="4.501" x2="43.497"/>
 </defs>
 <g inkscape:groupmode="layer" id="layer1" inkscape:label="Background">
  <g id="g4329">
   <path inkscape:connector-curvature="0" d="M 24.3125,5.4877301 C 17.410532,5.3792267 10.684257,9.0379834 7.21875,15.550231 c -4.9287227,9.261864 -1.4177275,20.789834 7.84375,25.71875 9.261473,4.928912 20.790023,1.418112 25.71875,-7.84375 4.928724,-9.261866 1.417724,-20.789839 -7.84375,-25.7187509 -2.315369,-1.2322289 -4.792163,-1.9371335 -7.25,-2.15625 -0.460844,-0.041084 -0.914869,-0.055266 -1.375,-0.0625 z m -0.75,11.5625009 c 0.358089,-0.02041 0.732809,-6.69e-4 1.09375,0.03125 0.96251,0.08512 1.938679,0.362076 2.84375,0.84375 3.620279,1.926698 4.989113,6.442087 3.0625,10.0625 -1.926613,3.620412 -6.442217,4.989198 -10.0625,3.0625 -3.620283,-1.926694 -4.989113,-6.442088 -3.0625,-10.0625 1.264339,-2.375896 3.618377,-3.794614 6.125,-3.9375 z" id="path4327" opacity="0.05" fill-rule="evenodd" stroke="#000000" stroke-width="2"/>
   <path inkscape:connector-curvature="0" d="M 24.3125,5.4877301 C 17.410532,5.3792267 10.684257,9.0379834 7.21875,15.550231 c -4.9287227,9.261864 -1.4177275,20.789834 7.84375,25.71875 9.261473,4.928912 20.790023,1.418112 25.71875,-7.84375 4.928724,-9.261866 1.417724,-20.789839 -7.84375,-25.7187509 -2.315369,-1.2322289 -4.792163,-1.9371335 -7.25,-2.15625 -0.460844,-0.041084 -0.914869,-0.055266 -1.375,-0.0625 z m -0.75,11.5625009 c 0.358089,-0.02041 0.732809,-6.69e-4 1.09375,0.03125 0.96251,0.08512 1.938679,0.362076 2.84375,0.84375 3.620279,1.926698 4.989113,6.442087 3.0625,10.0625 -1.926613,3.620412 -6.442217,4.989198 -10.0625,3.0625 -3.620283,-1.926694 -4.989113,-6.442088 -3.0625,-10.0625 1.264339,-2.375896 3.618377,-3.794614 6.125,-3.9375 z" id="path4323" opacity="0.1" fill-rule="evenodd"/>
   <path id="path4325" d="M 24.3125,5.4877301 C 17.410532,5.3792267 10.684257,9.0379834 7.21875,15.550231 c -4.9287227,9.261864 -1.4177275,20.789834 7.84375,25.71875 9.261473,4.928912 20.790023,1.418112 25.71875,-7.84375 4.928724,-9.261866 1.417724,-20.789839 -7.84375,-25.7187509 -2.315369,-1.2322289 -4.792163,-1.9371335 -7.25,-2.15625 -0.460844,-0.041084 -0.914869,-0.055266 -1.375,-0.0625 z m -0.75,11.5625009 c 0.358089,-0.02041 0.732809,-6.69e-4 1.09375,0.03125 0.96251,0.08512 1.938679,0.362076 2.84375,0.84375 3.620279,1.926698 4.989113,6.442087 3.0625,10.0625 -1.926613,3.620412 -6.442217,4.989198 -10.0625,3.0625 -3.620283,-1.926694 -4.989113,-6.442088 -3.0625,-10.0625 1.264339,-2.375896 3.618377,-3.794614 6.125,-3.9375 z" inkscape:connector-curvature="0" opacity="0.1" fill-rule="evenodd" stroke="#000000"/>
  </g>
  <path transform="matrix(0.4819277,0,0,0.4819277,-137.92771,-12.26287)" id="path4398" d="m 336,66 c 4.97056,0 9,4.029437 9,9 0,4.970563 -4.02944,9 -9,9 -4.97056,0 -9,-4.029437 -9,-9 0,-4.970563 4.02944,-9 9,-9 z" inkscape:connector-curvature="0" sodipodi:nodetypes="sssss" clip-path="url(#clipPath4078)" opacity="0.01" color="#000000" stroke-width="1.509"/>
  <path transform="matrix(0.4819277,0,0,0.4819277,-137.92771,-12.26287)" clip-path="url(#clipPath4078)" sodipodi:nodetypes="sssss" inkscape:connector-curvature="0" d="m 336,66 c 4.97056,0 9,4.029437 9,9 0,4.970563 -4.02944,9 -9,9 -4.97056,0 -9,-4.029437 -9,-9 0,-4.970563 4.02944,-9 9,-9 z" id="path4400" opacity="0.01" color="#000000" stroke-width="0.755"/>
  <g transform="translate(-288,-219.51562)" id="g4324" enable-background="new">
   <path inkscape:connector-curvature="0" id="path4408" d="m 312,235.3125 c -4.52475,0 -8.1875,3.69401 -8.1875,8.21875 0,4.52474 3.66275,8.1875 8.1875,8.1875 4.52474,0 8.1875,-3.66276 8.1875,-8.1875 0,-4.52474 -3.66276,-8.21875 -8.1875,-8.21875 z m 0,5.21875 c 1.65685,0 3,1.34315 3,3 0,1.65685 -1.34315,3 -3,3 -1.65685,0 -3,-1.34315 -3,-3 0,-1.65685 1.34315,-3 3,-3 z" opacity="0.2" fill="#ffffff" color="#000000" stroke-width="3.218"/>
   <path clip-path="url(#clipPath4320)" sodipodi:nodetypes="sssss" inkscape:connector-curvature="0" d="m 312,240.53125 c 1.65685,0 3,1.34315 3,3 0,1.65685 -1.34315,3 -3,3 -1.65685,0 -3,-1.34315 -3,-3 0,-1.65685 1.34315,-3 3,-3 z" id="path4316" opacity="0.2" fill="none" stroke="#000000" color="#000000" stroke-width="2"/>
  </g>
  <path d="M 24.3125 5 C 17.410532 4.8914966 10.684257 8.5502533 7.21875 15.0625 C 2.2900273 24.324364 5.8010225 35.852334 15.0625 40.78125 C 24.323973 45.710162 35.852523 42.199362 40.78125 32.9375 C 45.709974 23.675634 42.198974 12.147661 32.9375 7.21875 C 30.622131 5.9865211 28.145337 5.2816165 25.6875 5.0625 C 25.226656 5.0214157 24.772631 5.0072336 24.3125 5 z M 23.5625 16.5625 C 23.920589 16.542088 24.295309 16.561831 24.65625 16.59375 C 25.61876 16.678868 26.594929 16.955826 27.5 17.4375 C 31.120279 19.364198 32.489113 23.879587 30.5625 27.5 C 28.635887 31.120412 24.120283 32.489198 20.5 30.5625 C 16.879717 28.635806 15.510887 24.120412 17.4375 20.5 C 18.701839 18.124104 21.055877 16.705386 23.5625 16.5625 z " id="path4218" fill="url(#linearGradient4291)" fill-rule="evenodd"/>
  <g transform="matrix(0.19779464,-0.2541184,0.25410817,0.19780259,-44.309332,-3.0558809)" id="g4143">
   <g id="g4145" clip-path="url(#clipPath3271)">
    <path inkscape:connector-curvature="0" d="M 74.118027,277.11735 C 106.19881,271.5322 127.70249,240.96275 122.11734,208.88198 116.5322,176.8012 85.962749,155.29751 53.881978,160.88266 21.801203,166.46781 0.29750806,197.03725 5.8826547,229.11804 11.4678,261.19881 42.037246,282.70249 74.118027,277.11735 z m -6.516698,-37.43151 c -11.41858,1.98793 -22.299227,-5.66593 -24.287158,-17.08451 -1.987941,-11.41857 5.665921,-22.29923 17.084499,-24.28716 11.41858,-1.98793 22.299233,5.66593 24.28717,17.08451 1.987924,11.41857 -5.665932,22.29923 -17.084511,24.28716 z" id="path4147" fill="url(#linearGradient3917)" fill-rule="evenodd"/>
    <path inkscape:connector-curvature="0" id="path4149" d="M 94.776853,269.3268 C 122.55724,252.33798 131.31561,216.00355 114.32679,188.22315 97.337964,160.44278 61.003543,151.6844 33.223145,168.67322 5.4427579,185.66204 -3.3156068,221.99648 13.673211,249.77686 30.662035,277.55725 66.996455,286.31562 94.776853,269.3268 z M 74.954469,236.91293 c -9.88793,6.04687 -22.820523,2.92947 -28.867393,-6.95846 -6.046863,-9.88793 -2.929476,-22.82053 6.958454,-28.86739 9.887938,-6.04686 22.820537,-2.92949 28.867401,6.95845 6.046855,9.88793 2.929476,22.82053 -6.958462,28.8674 z" fill="url(#linearGradient3919)" fill-rule="evenodd"/>
    <path inkscape:connector-curvature="0" id="path4151" d="m 36.153689,271.00561 c 28.707102,15.37117 64.480751,4.54779 79.851921,-24.1593 15.37116,-28.70708 4.5478,-64.48074 -24.159308,-79.85191 -28.707087,-15.37116 -64.480736,-4.5478 -79.851909,24.15931 -15.371173,28.70708 -4.5478122,64.48073 24.159296,79.8519 z m 17.934913,-33.49512 c -10.217773,-5.4711 -14.070163,-18.2041 -8.599064,-28.42189 5.471077,-10.21777 18.204079,-14.07015 28.421859,-8.59906 10.217787,5.47108 14.07017,18.2041 8.599071,28.42186 -5.471084,10.21778 -18.204093,14.07016 -28.421866,8.59909 z" fill="url(#linearGradient3921)" fill-rule="evenodd"/>
   </g>
   <g clip-path="url(#clipPath3271)" id="g4153" transform="matrix(1,0,0,-1,0,438.00336)">
    <path inkscape:connector-curvature="0" id="path4155" d="M 74.118027,277.11735 C 106.19881,271.5322 127.70249,240.96275 122.11734,208.88198 116.5322,176.8012 85.962749,155.29751 53.881978,160.88266 21.801203,166.46781 0.29750806,197.03725 5.8826547,229.11804 11.4678,261.19881 42.037246,282.70249 74.118027,277.11735 z m -6.516698,-37.43151 c -11.41858,1.98793 -22.299227,-5.66593 -24.287158,-17.08451 -1.987941,-11.41857 5.665921,-22.29923 17.084499,-24.28716 11.41858,-1.98793 22.299233,5.66593 24.28717,17.08451 1.987924,11.41857 -5.665932,22.29923 -17.084511,24.28716 z" fill="url(#linearGradient3917)" fill-rule="evenodd"/>
    <path inkscape:connector-curvature="0" d="M 94.776853,269.3268 C 122.55724,252.33798 131.31561,216.00355 114.32679,188.22315 97.337964,160.44278 61.003543,151.6844 33.223145,168.67322 5.4427579,185.66204 -3.3156068,221.99648 13.673211,249.77686 30.662035,277.55725 66.996455,286.31562 94.776853,269.3268 z M 74.954469,236.91293 c -9.88793,6.04687 -22.820523,2.92947 -28.867393,-6.95846 -6.046863,-9.88793 -2.929476,-22.82053 6.958454,-28.86739 9.887938,-6.04686 22.820537,-2.92949 28.867401,6.95845 6.046855,9.88793 2.929476,22.82053 -6.958462,28.8674 z" id="path4157" fill="url(#linearGradient3919)" fill-rule="evenodd"/>
   </g>
  </g>
  <path inkscape:connector-curvature="0" d="M 41.210683,33.159442 C 46.266493,23.65876 42.659369,11.844637 33.159073,6.7886259 23.658776,1.7326099 11.845125,5.3398782 6.7893173,14.840556 1.7335082,24.341236 5.3406274,36.155361 14.840927,41.211377 24.341222,46.267389 36.15487,42.66012 41.210683,33.159442 z M 30.125835,27.260141 c -1.799526,3.381596 -6.004385,4.665537 -9.385846,2.865939 -3.38146,-1.799594 -4.665352,-6.004625 -2.865826,-9.386221 1.799526,-3.381597 6.004387,-4.665539 9.385848,-2.865942 3.381457,1.799598 4.66535,6.004627 2.865824,9.386224 z" id="path4303" opacity="0.41" fill="none" fill-rule="evenodd" stroke="#000000"/>
 </g>
</svg>
