<?xml version="1.0" encoding="UTF-8" standalone="no"?>
<svg xmlns="http://www.w3.org/2000/svg" xmlns:xlink="http://www.w3.org/1999/xlink" xmlns:sodipodi="http://sodipodi.sourceforge.net/DTD/sodipodi-0.dtd" xmlns:inkscape="http://www.inkscape.org/namespaces/inkscape" version="1.1" width="48" height="48">
 <metadata id="metadata37"/>
 <defs id="defs3761">
  <linearGradient id="linearGradient4301">
   <stop id="stop4303"/>
   <stop id="stop4309" offset="0.438" stop-opacity="0.275"/>
   <stop offset="1" id="stop4305" stop-opacity="0"/>
  </linearGradient>
  <linearGradient id="linearGradient4091">
   <stop id="stop4093" stop-color="#c84f4e"/>
   <stop offset="0.5" id="stop4095" stop-color="#933b3b"/>
   <stop id="stop4097" offset="1" stop-color="#c84f4e"/>
  </linearGradient>
  <linearGradient id="linearGradient4057">
   <stop id="stop4059" stop-color="#c84f4e"/>
   <stop id="stop4065" offset="0.5" stop-color="#ff8886"/>
   <stop offset="1" id="stop4061" stop-color="#c84f4e"/>
  </linearGradient>
  <linearGradient id="linearGradient4365">
   <stop id="stop4367" stop-color="#ffc5c4"/>
   <stop offset="0.339" id="stop4369" stop-color="#e97574"/>
   <stop id="stop4371" offset="1" stop-color="#c84f4e"/>
  </linearGradient>
  <linearGradient id="linearGradient4319">
   <stop id="stop4321" stop-color="#efd4b9"/>
   <stop id="stop4361" offset="0.5" stop-color="#f3eadc"/>
   <stop offset="1" id="stop4323" stop-color="#6d490f"/>
  </linearGradient>
  <linearGradient id="linearGradient4311">
   <stop id="stop4313" stop-color="#ffffff"/>
   <stop offset="1" id="stop4315" stop-color="#562e04"/>
  </linearGradient>
  <linearGradient id="linearGradient4277">
   <stop id="stop4279" stop-color="#ad2f2e"/>
   <stop id="stop4281" offset="1" stop-color="#c14240"/>
  </linearGradient>
  <linearGradient id="linearGradient4269">
   <stop id="stop4271" stop-color="#ffffff"/>
   <stop offset="1" id="stop4273" stop-color="#ffffff" stop-opacity="0.575"/>
  </linearGradient>
  <linearGradient id="linearGradient4226">
   <stop id="stop4228" stop-color="#df7575"/>
   <stop offset="1" id="stop4231" stop-color="#e4a0a0"/>
  </linearGradient>
  <linearGradient id="linearGradient4149">
   <stop id="stop4151" stop-color="#fbd6d6"/>
   <stop id="stop4153" offset="1" stop-color="#f2c6c7"/>
  </linearGradient>
  <linearGradient inkscape:collect="always" id="linearGradient4125">
   <stop id="stop4127" stop-color="#ffffff"/>
   <stop offset="1" id="stop4129" stop-color="#ffffff" stop-opacity="0"/>
  </linearGradient>
  <linearGradient id="linearGradient4044">
   <stop id="stop4046" stop-color="#7b592e"/>
   <stop offset="1" id="stop4048" stop-color="#b18348"/>
  </linearGradient>
  <linearGradient id="linearGradient4025">
   <stop id="stop4027" stop-color="#b18348"/>
   <stop offset="1" id="stop4029" stop-color="#603910"/>
  </linearGradient>
  <linearGradient id="linearGradient4017">
   <stop id="stop4019" stop-color="#f8d2d9"/>
   <stop id="stop4021" offset="1" stop-color="#f3b1b3"/>
  </linearGradient>
  <linearGradient id="linearGradient3969">
   <stop id="stop3971" stop-color="#fff3db"/>
   <stop offset="1" id="stop3973" stop-color="#f0d2ab"/>
  </linearGradient>
  <linearGradient id="linearGradient3959">
   <stop id="stop3961" stop-color="#a78867"/>
   <stop id="stop3963" offset="1" stop-color="#d7b282"/>
  </linearGradient>
  <linearGradient id="linearGradient4780">
   <stop id="stop4782"/>
   <stop offset="1" id="stop4784" stop-opacity="0.498"/>
  </linearGradient>
  <linearGradient id="linearGradient3960">
   <stop id="stop3962" stop-opacity="0"/>
   <stop id="stop3970" offset="0.5"/>
   <stop offset="1" id="stop3964" stop-opacity="0"/>
  </linearGradient>
  <linearGradient inkscape:collect="always" id="linearGradient3952">
   <stop id="stop3954"/>
   <stop offset="1" id="stop3956" stop-opacity="0"/>
  </linearGradient>
  <linearGradient id="linearGradient4520">
   <stop id="stop4522" stop-color="#571746"/>
   <stop offset="0.362" id="stop4524" stop-color="#8a2c48"/>
   <stop id="stop4526" offset="1" stop-color="#af5c25"/>
  </linearGradient>
  <linearGradient id="linearGradient3810">
   <stop id="stop3812" stop-color="#4cc7e0"/>
   <stop offset="1" id="stop3814" stop-color="#2061be"/>
  </linearGradient>
  <linearGradient inkscape:collect="always" xlink:href="#linearGradient4125" id="linearGradient3017" gradientUnits="userSpaceOnUse" gradientTransform="matrix(2.1153734,0,0,2.1153252,-107.57708,31.426557)" y1="-12.489" x2="0" y2="-1.462"/>
  <linearGradient inkscape:collect="always" xlink:href="#linearGradient3810" id="linearGradient3816" x1="4.5" x2="43.5" gradientUnits="userSpaceOnUse" gradientTransform="matrix(0,1,-1,0,48.000003,-3e-6)"/>
  <linearGradient inkscape:collect="always" xlink:href="#linearGradient3988" id="linearGradient3965" gradientUnits="userSpaceOnUse" y1="116.26" x2="0" y2="31.773"/>
  <linearGradient id="linearGradient3988">
   <stop id="stop3990" stop-color="#eeeeec"/>
   <stop offset="1" id="stop3992" stop-color="#ffffff"/>
  </linearGradient>
  <radialGradient inkscape:collect="always" xlink:href="#linearGradient26113-9-3-1" id="radialGradient3755" gradientUnits="userSpaceOnUse" gradientTransform="matrix(1,0,0,0.37,0,24.5124)" cx="24.85" cy="38.909" r="20.2"/>
  <linearGradient inkscape:collect="always" id="linearGradient26113-9-3-1">
   <stop id="stop26115-7-7-9" stop-color="#000000"/>
   <stop offset="1" id="stop26117-3-7-8" stop-color="#000000" stop-opacity="0"/>
  </linearGradient>
  <radialGradient r="20.2" cy="38.909" cx="24.85" gradientTransform="matrix(1.00851,0,0,0.373148,-0.211403,24.39)" gradientUnits="userSpaceOnUse" id="radialGradient4274" xlink:href="#linearGradient26113-9-3-1" inkscape:collect="always"/>
  <linearGradient inkscape:collect="always" xlink:href="#linearGradient4125" id="linearGradient4140" x1="789" x2="827" gradientUnits="userSpaceOnUse"/>
  <clipPath id="clipPath4130">
   <path id="path4132" d="M 790.4375,237 C 789.62555,237 789,237.62555 789,238.4375 l 0,35.09375 c 0,0.812 0.62555,1.46875 1.4375,1.46875 l 35.125,0 c 0.81195,0 1.4375,-0.65675 1.4375,-1.46875 l 0,-35.09375 C 827,237.62555 826.37445,237 825.5625,237 l -35.125,0 z"/>
  </clipPath>
  <linearGradient inkscape:collect="always" xlink:href="#linearGradient5618" id="linearGradient4083" x1="-1023.86" x2="-984.86" gradientUnits="userSpaceOnUse" gradientTransform="translate(980.3622,784)"/>
  <linearGradient id="linearGradient5618">
   <stop id="stop5620" stop-color="#3e3e3e"/>
   <stop offset="1" id="stop5622" stop-color="#595959"/>
  </linearGradient>
  <linearGradient id="linearGradient4094">
   <stop id="stop4096" stop-color="#e28192"/>
   <stop id="stop4317" offset="0.259" stop-color="#f7d6c7"/>
   <stop offset="1" id="stop4098" stop-color="#fffee4"/>
  </linearGradient>
  <clipPath id="clipPath14228">
   <rect id="rect14230" width="32" height="42" x="312" y="231" fill="none" color="#bebebe" stroke-width="0" rx="0"/>
  </clipPath>
  <clipPath id="clipPath3449">
   <rect id="rect3451" width="32" height="42" x="312" y="231" fill="none" color="#bebebe" stroke-width="0" rx="0"/>
  </clipPath>
  <linearGradient inkscape:collect="always" xlink:href="#linearGradient3988-5" id="linearGradient4030" x1="304" x2="352" gradientUnits="userSpaceOnUse"/>
  <linearGradient id="linearGradient3988-5">
   <stop id="stop3990-5" stop-color="#ededed"/>
   <stop offset="1" id="stop3992-0" stop-color="#fafafa"/>
  </linearGradient>
  <clipPath id="clipPath3457">
   <rect id="rect3459" width="32" height="42" x="312" y="231" fill="none" color="#bebebe" stroke-width="0" rx="0"/>
  </clipPath>
  <clipPath id="clipPath3461">
   <rect id="rect3463" width="32" height="42" x="312" y="231" fill="none" color="#bebebe" stroke-width="0" rx="0"/>
  </clipPath>
  <linearGradient id="outerBackgroundGradient">
   <stop id="stop3864-8-6" stop-color="#8c166c"/>
   <stop id="stop4409" offset="0.362" stop-color="#ca3561"/>
   <stop offset="1" id="stop3866-9-1" stop-color="#f38f4e"/>
  </linearGradient>
  <linearGradient inkscape:collect="always" xlink:href="#linearGradient3988-5" id="linearGradient3947" gradientUnits="userSpaceOnUse" gradientTransform="matrix(0,-0.175,0.175,0,-4.0000326,48.20002)" y1="280" x2="0" y2="40"/>
  <linearGradient inkscape:collect="always" xlink:href="#outerBackgroundGradient" id="linearGradient3949" gradientUnits="userSpaceOnUse" gradientTransform="matrix(0,-0.175,0.175,0,-4.0000326,1.2000199)" y1="280" x2="0" y2="40"/>
  <linearGradient inkscape:collect="always" xlink:href="#linearGradient4094" id="linearGradient3951" gradientUnits="userSpaceOnUse" x1="324" x2="332"/>
  <radialGradient cx="4.993" cy="43.5" gradientTransform="matrix(2.003784,0,0,1.4,27.98813,-17.4)" gradientUnits="userSpaceOnUse" id="radialGradient9116" inkscape:collect="always" r="2.5" xlink:href="#linearGradient3688"/>
  <linearGradient id="linearGradient3688" inkscape:collect="always">
   <stop id="stop3690"/>
   <stop id="stop3692" offset="1" stop-opacity="0"/>
  </linearGradient>
  <radialGradient cx="4.993" cy="43.5" gradientTransform="matrix(2.003784,0,0,1.4,-20.01187,-104.4)" gradientUnits="userSpaceOnUse" id="radialGradient9118" inkscape:collect="always" r="2.5" xlink:href="#linearGradient3688"/>
  <linearGradient gradientUnits="userSpaceOnUse" id="linearGradient9120" inkscape:collect="always" x2="0" xlink:href="#linearGradient3702" y1="47.03" y2="39.999"/>
  <linearGradient id="linearGradient3702">
   <stop id="stop3704" stop-opacity="0"/>
   <stop id="stop3710" offset="0.5"/>
   <stop id="stop3706" offset="1" stop-opacity="0"/>
  </linearGradient>
  <linearGradient gradientTransform="translate(80.00001,-0.0389932)" gradientUnits="userSpaceOnUse" id="linearGradient9122" inkscape:collect="always" x2="0" xlink:href="#linearGradient6394" y1="-0.806" y2="18.01"/>
  <linearGradient id="linearGradient6394" inkscape:collect="always">
   <stop id="stop6396" stop-color="#729fcf"/>
   <stop id="stop6398" offset="1" stop-color="#ffffff"/>
  </linearGradient>
  <linearGradient gradientTransform="matrix(1,0,0,2,80.00001,-17.038994)" gradientUnits="userSpaceOnUse" id="linearGradient9124" inkscape:collect="always" x2="0" xlink:href="#linearGradient6754" y1="16.188" y2="14.14"/>
  <linearGradient id="linearGradient6754" inkscape:collect="always">
   <stop id="stop6756" stop-color="#729fcf"/>
   <stop id="stop6758" offset="1" stop-color="#729fcf" stop-opacity="0"/>
  </linearGradient>
  <radialGradient cx="-16.484" cy="16.06" gradientTransform="matrix(1.4386863,0,0,1.1876132,7.181008,-2.926052)" gradientUnits="userSpaceOnUse" id="radialGradient9126" inkscape:collect="always" r="9" xlink:href="#linearGradient4125"/>
  <linearGradient inkscape:collect="always" xlink:href="#linearGradient6754" id="linearGradient4458" gradientUnits="userSpaceOnUse" gradientTransform="matrix(1,0,0,2,47.965462,11.645619)" y1="16.188" x2="0" y2="14.14"/>
  <linearGradient inkscape:collect="always" xlink:href="#outerBackgroundGradient" id="linearGradient4462" gradientUnits="userSpaceOnUse" gradientTransform="matrix(1.0769229,0,0,1.0769229,55.461537,22.120194)" y1="-0.806" x2="0" y2="18.01"/>
  <linearGradient inkscape:collect="always" xlink:href="#outerBackgroundGradient" id="linearGradient3123" gradientUnits="userSpaceOnUse" gradientTransform="matrix(0,-0.175,0.175,0,-5.0000326,-0.7999801)" y1="280" x2="0" y2="40"/>
  <linearGradient inkscape:collect="always" xlink:href="#linearGradient4094" id="linearGradient3117" gradientUnits="userSpaceOnUse" x1="324" x2="332" gradientTransform="matrix(0,-1,1,0,-208.375,365.12502)"/>
  <linearGradient y2="40" x2="0" y1="280" gradientTransform="matrix(0,-0.175,0.175,0,5.124967,-36.42498)" gradientUnits="userSpaceOnUse" id="linearGradient3157" xlink:href="#outerBackgroundGradient" inkscape:collect="always"/>
  <clipPath id="clipPath4552">
   <rect id="rect4554" width="21.1" height="21.1" x="42.892" y="24.01" rx="0" opacity="0.2"/>
  </clipPath>
  <linearGradient inkscape:collect="always" xlink:href="#linearGradient3988-5" id="linearGradient3158" gradientUnits="userSpaceOnUse" gradientTransform="matrix(0.175,0,0,0.175,-1.20002,-6.0000326)" y1="280" x2="0" y2="40"/>
  <radialGradient inkscape:collect="always" xlink:href="#linearGradient3952" id="radialGradient3950" cx="9" cy="43.5" r="2" gradientTransform="matrix(1,0,0,0.75,0,10.875)" gradientUnits="userSpaceOnUse"/>
  <radialGradient inkscape:collect="always" xlink:href="#linearGradient3952" id="radialGradient3958" cx="40" cy="43.5" r="2" gradientTransform="matrix(1,0,0,0.75,0,10.875)" gradientUnits="userSpaceOnUse"/>
  <linearGradient inkscape:collect="always" xlink:href="#linearGradient3960" id="linearGradient3968" y1="45" x2="0" y2="42" gradientUnits="userSpaceOnUse"/>
  <linearGradient inkscape:collect="always" xlink:href="#linearGradient4780" id="linearGradient4835" gradientUnits="userSpaceOnUse" y1="-81.72" x2="0" y2="-62.28"/>
  <linearGradient inkscape:collect="always" xlink:href="#linearGradient4780" id="linearGradient4844" gradientUnits="userSpaceOnUse" y1="-81.72" x2="0" y2="-62.28" gradientTransform="matrix(0.82325582,0,0,0.82325582,-1444.1884,83.274422)"/>
  <linearGradient inkscape:collect="always" xlink:href="#linearGradient4228" id="linearGradient4532" gradientUnits="userSpaceOnUse" gradientTransform="matrix(1.4999996,0,0,1.5,-461.59425,-1478.2387)" y1="995.63" x2="0" y2="1012.1"/>
  <linearGradient id="linearGradient4228">
   <stop id="stop4230" stop-color="#ffffff"/>
   <stop id="stop4262" offset="0.224" stop-color="#ffffff" stop-opacity="0.851"/>
   <stop offset="1" id="stop4232" stop-color="#ffffff" stop-opacity="0.703"/>
  </linearGradient>
  <clipPath id="clipPath14228-6">
   <rect id="rect14230-9" width="32" height="42" x="312" y="231" fill="none" color="#bebebe" stroke-width="0" rx="0"/>
  </clipPath>
  <clipPath id="clipPath3186">
   <rect id="rect3188" width="32" height="42" x="312" y="231" fill="none" color="#bebebe" stroke-width="0" rx="0"/>
  </clipPath>
  <linearGradient inkscape:collect="always" xlink:href="#outerBackgroundGradient-2" id="linearGradient4869" gradientUnits="userSpaceOnUse" gradientTransform="matrix(0,-0.19687494,0.175,0,976.36215,-299.64997)" y1="280" x2="0" y2="40"/>
  <linearGradient id="outerBackgroundGradient-2">
   <stop id="stop3864-8-6-3" stop-color="#e7d0b8"/>
   <stop offset="1" id="stop3866-9-1-0" stop-color="#d0b99a"/>
  </linearGradient>
  <linearGradient y2="40" x2="0" y1="280" gradientTransform="matrix(0,-0.19687494,0.175,0,0.5545294,-2.0555616)" gradientUnits="userSpaceOnUse" id="linearGradient3201" xlink:href="#outerBackgroundGradient-2" inkscape:collect="always"/>
  <linearGradient inkscape:collect="always" xlink:href="#outerBackgroundGradient-2" id="linearGradient4106" gradientUnits="userSpaceOnUse" gradientTransform="matrix(0,-0.19687494,0.175,0,-4.0610025,4.3500284)" y1="280" x2="0" y2="40"/>
  <linearGradient inkscape:collect="always" xlink:href="#outerBackgroundGradient-2" id="linearGradient4122" gradientUnits="userSpaceOnUse" gradientTransform="matrix(0.19218744,0,0,0.17013896,-3.6750262,-3.2222576)" y1="280" x2="0" y2="40"/>
  <linearGradient inkscape:collect="always" xlink:href="#outerBackgroundGradient-2" id="linearGradient3953" y1="44" x2="0" y2="20" gradientUnits="userSpaceOnUse" gradientTransform="translate(0.5,0.5)"/>
  <linearGradient inkscape:collect="always" xlink:href="#linearGradient3959" id="linearGradient3957" gradientUnits="userSpaceOnUse" y1="44" x2="0" y2="20" gradientTransform="matrix(-1,0,0,1,48.5,0.5)"/>
  <linearGradient inkscape:collect="always" xlink:href="#linearGradient3969" id="linearGradient4010" gradientUnits="userSpaceOnUse" gradientTransform="matrix(1,0,0,-1,16.940233,51.657747)" y1="51.16" x2="0" y2="31.16"/>
  <radialGradient inkscape:collect="always" xlink:href="#linearGradient4149" id="radialGradient4013" cx="27.552" cy="6" r="20" gradientTransform="matrix(1.1999999,0,0,0.6,-6.9999967,6.5687474)" gradientUnits="userSpaceOnUse"/>
  <linearGradient inkscape:collect="always" xlink:href="#linearGradient3959" id="linearGradient4033" gradientUnits="userSpaceOnUse" gradientTransform="matrix(-1,0,0,1,48,1)" y1="44" x2="0" y2="20"/>
  <radialGradient inkscape:collect="always" xlink:href="#linearGradient3969" id="radialGradient4041" gradientUnits="userSpaceOnUse" gradientTransform="matrix(1,0,0,0.5,-0.5,7.75)" cx="28" cy="5.75" r="20"/>
  <clipPath id="clipPath4105">
   <path d="M 44,13.75 24.5,21.34375 24.5,44.75 44,36.65625 44,13.75 z" id="path4107"/>
  </clipPath>
  <clipPath id="clipPath4121">
   <path d="m 24,5.03125 -20,8.3125 0,0.312 20,7.8125 20,-7.8125 0,-0.312 z" id="path4123"/>
  </clipPath>
  <linearGradient inkscape:collect="always" xlink:href="#linearGradient4125" id="linearGradient4131" x1="14.675" y1="20.05" x2="16.177" y2="33.3" gradientUnits="userSpaceOnUse"/>
  <clipPath id="clipPath4136">
   <path id="path4138" d="M 4,13.75 4,36.65625 24,44.75 24,21.34375 z"/>
  </clipPath>
  <linearGradient inkscape:collect="always" xlink:href="#linearGradient4226" id="linearGradient4143" gradientUnits="userSpaceOnUse" gradientTransform="matrix(-1,0,0,1,48,0.66874779)" x1="5.393" y1="42.586" x2="16" y2="20"/>
  <linearGradient inkscape:collect="always" xlink:href="#linearGradient4017" id="linearGradient4145" x1="16.5" y1="20.25" x2="10.5" y2="45.75" gradientUnits="userSpaceOnUse" gradientTransform="translate(0,-0.3312522)"/>
  <linearGradient inkscape:collect="always" xlink:href="#linearGradient4277" id="linearGradient4329" gradientUnits="userSpaceOnUse" x1="40" y1="37" x2="9" y2="4" gradientTransform="translate(0,-0.3312522)"/>
  <radialGradient inkscape:collect="always" xlink:href="#linearGradient4365" id="radialGradient4363" gradientUnits="userSpaceOnUse" gradientTransform="matrix(1,0,0,1.1575563,0,1.1044373)" cx="23.277" cy="13.919" r="19.438"/>
  <linearGradient inkscape:collect="always" xlink:href="#linearGradient4226" id="linearGradient4015" gradientUnits="userSpaceOnUse" gradientTransform="matrix(-1,0,0,1,48,-0.33125221)" x1="5.393" y1="42.586" x2="16" y2="20"/>
  <linearGradient inkscape:collect="always" xlink:href="#linearGradient4057" id="linearGradient4075" gradientUnits="userSpaceOnUse" x1="8" x2="23" gradientTransform="matrix(1,0,0,-1,0,19)"/>
  <linearGradient inkscape:collect="always" xlink:href="#linearGradient4057" id="linearGradient4077" gradientUnits="userSpaceOnUse" gradientTransform="matrix(-1,0,0,-1,48,19)" x1="8" x2="23"/>
  <linearGradient inkscape:collect="always" xlink:href="#linearGradient4091" id="linearGradient4233" gradientUnits="userSpaceOnUse" x1="8" x2="24" gradientTransform="matrix(-0.89782151,0,0,0.89782151,46.047716,1.5907354)"/>
  <linearGradient inkscape:collect="always" xlink:href="#linearGradient4057" id="linearGradient4247" gradientUnits="userSpaceOnUse" gradientTransform="matrix(-0.89782151,0,0,0.89782151,46.047716,1.1418246)" x1="8" x2="23"/>
  <linearGradient inkscape:collect="always" xlink:href="#linearGradient4091" id="linearGradient4249" gradientUnits="userSpaceOnUse" x1="8" x2="24" gradientTransform="translate(0.5,0)"/>
  <linearGradient inkscape:collect="always" xlink:href="#linearGradient4057" id="linearGradient4251" gradientUnits="userSpaceOnUse" x1="8" x2="23" gradientTransform="translate(0.5,0)"/>
  <radialGradient inkscape:collect="always" xlink:href="#linearGradient4301" id="radialGradient4307" cx="24" cy="38" r="24" gradientTransform="matrix(1,0,0,0.41666667,0,22.166667)" gradientUnits="userSpaceOnUse"/>
 </defs>
 <g inkscape:groupmode="layer" id="layer1" inkscape:label="Background">
  <path sodipodi:type="arc" id="path4299" sodipodi:cx="24" sodipodi:cy="38" sodipodi:rx="24" sodipodi:ry="10" d="M 48,38 A 24,10 0 1 1 0,38 24,10 0 1 1 48,38 z" transform="matrix(-1.1666667,0,0,1.2,52.000002,-9.6)" opacity="0.3" fill="url(#radialGradient4307)"/>
  <path d="m 24.4995,26.66875 -20.999375,-8 0,-4 L 24.4995,6.1687474 44.5,14.66875 l 0,4 z" id="path3965" inkscape:connector-curvature="0" sodipodi:nodetypes="ccccccc" fill="url(#radialGradient4013)"/>
  <path d="m 3.500125,14.66875 0,5.95625 L 4.5,21.25 l 0,15.41875 19.9995,8.5 0,-22.5 z" id="path3173" inkscape:connector-curvature="0" sodipodi:nodetypes="ccccccc" fill="url(#linearGradient4145)"/>
  <path inkscape:connector-curvature="0" id="path3955" d="m 44.5,14.66875 0,4.046979 -1,1.292893 0,16.660128 -19.0005,8.5 0,-22.5 z" sodipodi:nodetypes="ccccccc" fill="url(#linearGradient4143)"/>
  <path d="M 24.5,6.656 4,15 5.2375531,15.452705 24.5,7.656 l 18.138325,7.708788 1.24239,-0.471984 z" id="path3225" inkscape:connector-curvature="0" sodipodi:nodetypes="ccccccc" opacity="0.3" fill="#ffffff"/>
  <path sodipodi:nodetypes="ccccc" inkscape:connector-curvature="0" id="path4033" d="m 43.011481,15.417676 1,-0.445227 0,21.3125 -1,0.445227 z" opacity="0.1" fill="#ffffff"/>
  <g id="g4018" transform="translate(0,1)">
   <path id="path4004" d="m 3.5,13.65625 0,5.6875 21,8 0,-5.6875 -21,-8 z" inkscape:connector-curvature="0" fill="#f8d2d9"/>
   <path id="path4013" d="m 44.5,13.65625 -20,8 0,5.6875 20,-8 0,-5.6875 z" inkscape:connector-curvature="0" fill="url(#linearGradient4015)"/>
  </g>
  <path d="m 24.5,5.6374974 -0.1875,0.0625 L 3.3125,14.2 3,14.325 l 0,0.34375 0,6 L 4,22 l 0,14.66875 0,0.34375 0.3125,0.125 20,8.5 0.1875,0.0625 0.1875,-0.0625 19,-8.5 0.3125,-0.125 0,-0.34375 0,-15.669125 1,-1.33125 0,-4.999625 0,-0.34375 -0.3125,-0.125 -20,-8.5000026 z m 0,1.0625 19.5,8.4062526 0,4.562125 -1,1.33125 L 43,36.325 24.5625,44.41875 5,36.325 5,22 4,20.66875 4.09375,15.028125 z" id="path4035" inkscape:connector-curvature="0" sodipodi:nodetypes="cccccccccccccccccccccccccccccccccc" opacity="0.91" color="#000000" fill="url(#linearGradient4329)"/>
  <path d="M 24.089689,22.999556 3.9646029,14.998761 24.478553,22.220527 43.855231,15.00964 25.09375,23.1375 25.03125,44.207812 24.528317,44.482479 24.03985,44.240343 z" id="path4317" inkscape:connector-curvature="0" sodipodi:nodetypes="ccccccccc" fill="url(#radialGradient4363)"/>
  <path sodipodi:nodetypes="ccccc" inkscape:connector-curvature="0" id="path4242" d="M 30.875,9.5437474 11.07525,17.5 15,19 34.79975,11.043747 z" color="#000000" fill="#c84f4e"/>
  <path d="M 16.618583,9.4401942 37,18 33.07525,19.5 12.693833,10.940195 z" id="path4000" inkscape:connector-curvature="0" sodipodi:nodetypes="ccccc" color="#000000" fill="#df5c5b"/>
  <path inkscape:connector-curvature="0" id="path4036" d="m 43.011481,35.28437 0,1 -18,7.894607 0,-1 z" sodipodi:nodetypes="ccccc" opacity="0.1" fill="#ffffff"/>
  <path sodipodi:nodetypes="ccccccccc" inkscape:connector-curvature="0" id="path4034" d="m 35.974417,39.459448 -3.847993,1.751276 -0.08795,-15.147839 0.99297,-1.236599 -0.03144,-5.257354 3.980349,-1.531613 -0.0015,5.772008 -1.000621,0.972272 z" opacity="0.8" fill="#b62b2b"/>
  <path d="m 24,23.083502 -1,-0.445227 0,21.3125 1,0.445227 z" id="path4014" inkscape:connector-curvature="0" sodipodi:nodetypes="ccccc" opacity="0.1" fill="#ffffff"/>
  <g id="g4027" transform="translate(0,1)">
   <path sodipodi:nodetypes="ccccc" inkscape:connector-curvature="0" id="rect4005" d="m -5.4731774,12.18398 1.0946355,0 0,21.3125 -1.0946355,0 z" transform="matrix(-0.91354611,-0.40673517,0,1,0,0)" opacity="0.1" fill="#ffffff"/>
   <path id="rect4016" d="m 5,34.65625 0,1 18,7.1875 0,-1 -18,-7.1875 z" inkscape:connector-curvature="0" opacity="0.1" fill="#ffffff"/>
  </g>
  <path d="m 12.005936,39.388444 3.847993,1.397723 0.08795,-15.147839 -0.99297,-1.236599 0.03144,-5.257354 L 11,17.612762 l 0.0015,5.772008 1.000621,0.972272 z" id="path4059" inkscape:connector-curvature="0" sodipodi:nodetypes="ccccccccc" opacity="0.8" fill="#b62b2b"/>
  <g id="g4269" transform="translate(0,0.44194)">
   <path d="m 7.5,8 0,4 c 0,0 1.5,3 9,3 7.5,0 8,-3 8,-3 l 0,-2 c 0,0 -0.5,1 -8,1 -7.5,0 -9,-3 -9,-3 z" id="path4079" inkscape:connector-curvature="0" sodipodi:nodetypes="ccsccsc" fill="url(#linearGradient4249)"/>
   <path sodipodi:nodetypes="ccsccsc" inkscape:connector-curvature="0" id="path4055" d="m 7.5,12 0,-4 c 0,0 0.5,-5 8,-5 7.5,0 9,7 9,7 l 0,2 c 0,0 -1,-4 -8.5,-4 -7.5,0 -8.5,4 -8.5,4 z" fill="url(#linearGradient4251)"/>
   <path d="m 39.5,11.915685 0,-3.5912883 c 0,0 -0.185945,-4.4891075 -6.919606,-4.4891075 -6.733662,0 -8.080394,6.2847528 -8.080394,6.2847528 l 0,1.795643 c 0,0 0.897822,-4.226144 7.631483,-4.226144 6.733661,0 7.368517,4.226144 7.368517,4.226144 z" id="path4067" inkscape:connector-curvature="0" sodipodi:nodetypes="ccsccsc" fill="url(#linearGradient4247)"/>
   <path sodipodi:nodetypes="ccsccsc" inkscape:connector-curvature="0" id="path4231" d="m 39.5,8.7733074 0,2.6934666 c 0,0 -1.083767,3.591286 -7.817428,3.591286 C 24.948911,15.05806 24.5,12.364595 24.5,12.364595 l 0,-1.795643 c 0,0 0.448911,1.612034 7.182572,1.612034 6.733661,0 7.817428,-3.4076786 7.817428,-3.4076786 z" fill="url(#linearGradient4233)"/>
   <path sodipodi:nodetypes="ccsccsc" inkscape:connector-curvature="0" id="path4253" d="m 7.5,8 0,4 c 0,0 1.5,3 9,3 7.5,0 8,-3 8,-3 l 0,-2 c 0,0 -0.5,1 -8,1 -7.5,0 -9,-3 -9,-3 z" opacity="0.81" fill="none" stroke="#b72f2c" stroke-linejoin="round"/>
   <path d="m 7.5,12 0,-4 c 0,0 0.5,-5 8,-5 7.5,0 9,7 9,7 l 0,2 c 0,0 -1,-4 -8.5,-4 -7.5,0 -8.5,4 -8.5,4 z" id="path4255" inkscape:connector-curvature="0" sodipodi:nodetypes="ccsccsc" opacity="0.81" fill="none" stroke="#b72f2c" stroke-linejoin="round"/>
   <path sodipodi:nodetypes="ccsccsc" inkscape:connector-curvature="0" id="path4257" d="m 39.5,11.915685 0,-3.5912883 c 0,0 -0.185945,-4.4891075 -6.919606,-4.4891075 -6.733662,0 -8.080394,6.2847528 -8.080394,6.2847528 l 0,1.795643 c 0,0 0.897822,-4.226144 7.631483,-4.226144 6.733661,0 7.368517,4.226144 7.368517,4.226144 z" opacity="0.81" fill="none" stroke="#b72f2c" stroke-linejoin="round"/>
   <path d="m 39.5,8.7733074 0,2.6934666 c 0,0 -1.083767,3.591286 -7.817428,3.591286 C 24.948911,15.05806 24.5,12.364595 24.5,12.364595 l 0,-1.795643 c 0,0 0.448911,1.612034 7.182572,1.612034 6.733661,0 7.817428,-3.4076786 7.817428,-3.4076786 z" id="path4259" inkscape:connector-curvature="0" sodipodi:nodetypes="ccsccsc" opacity="0.81" fill="none" stroke="#b72f2c" stroke-linejoin="round"/>
   <path d="m 25,11.5 c 0,0.276142 -0.447715,0.5 -1,0.5 -0.552285,0 -1,-0.223858 -1,-0.5 0,-0.276142 0.447715,-0.5 1,-0.5 0.552285,0 1,0.223858 1,0.5 z" sodipodi:ry="0.5" sodipodi:rx="1" sodipodi:cy="11.5" sodipodi:cx="24" id="path4265" sodipodi:type="arc" opacity="0.81" fill="#f8d2d9" stroke="#b72f2c" stroke-linejoin="round" stroke-width="2"/>
   <path d="m 25,11 c 0,0.552285 -0.447715,1 -1,1 -0.552285,0 -1,-0.447715 -1,-1 0,-0.552285 0.447715,-1 1,-1 0.552285,0 1,0.447715 1,1 z" sodipodi:ry="1" sodipodi:rx="1" sodipodi:cy="11" sodipodi:cx="24" id="path4267" sodipodi:type="arc" opacity="0.2" fill="#f8d2d9"/>
  </g>
  <path d="m 3.5,20.78125 0.8125,1.125 20.1875,7.875 19,-7.59375 0,-1 -19,7.59375 z" id="path4024" inkscape:connector-curvature="0" sodipodi:nodetypes="ccccccc" opacity="0.5" fill="#aa0000"/>
 </g>
</svg>
