<?xml version="1.0" encoding="UTF-8" standalone="no"?>
<svg
   xmlns:dc="http://purl.org/dc/elements/1.1/"
   xmlns:cc="http://creativecommons.org/ns#"
   xmlns:rdf="http://www.w3.org/1999/02/22-rdf-syntax-ns#"
   xmlns:svg="http://www.w3.org/2000/svg"
   xmlns="http://www.w3.org/2000/svg"
   xmlns:xlink="http://www.w3.org/1999/xlink"
   version="1.1"
   width="48"
   height="48"
   id="svg3759">
  <metadata
     id="metadata37">
    <rdf:RDF>
      <cc:Work
         rdf:about="">
        <dc:format>image/svg+xml</dc:format>
        <dc:type
           rdf:resource="http://purl.org/dc/dcmitype/StillImage" />
        <dc:title />
      </cc:Work>
    </rdf:RDF>
  </metadata>
  <defs
     id="defs3761">
    <linearGradient
       id="linearGradient4365">
      <stop
         id="stop4367"
         offset="0"
         style="stop-color:#f0d0b1;stop-opacity:1" />
      <stop
         style="stop-color:#dfbe93;stop-opacity:1"
         offset="0.3392283"
         id="stop4369" />
      <stop
         id="stop4371"
         offset="1"
         style="stop-color:#805d27;stop-opacity:1;" />
    </linearGradient>
    <linearGradient
       id="linearGradient4277">
      <stop
         id="stop4279"
         offset="0"
         style="stop-color:#5c2f00;stop-opacity:1;" />
      <stop
         id="stop4281"
         offset="1"
         style="stop-color:#794a18;stop-opacity:1;" />
    </linearGradient>
    <linearGradient
       id="linearGradient4269">
      <stop
         style="stop-color:#ffffff;stop-opacity:1;"
         offset="0"
         id="stop4271" />
      <stop
         style="stop-color:#ffffff;stop-opacity:0.57499999;"
         offset="1"
         id="stop4273" />
    </linearGradient>
    <linearGradient
       id="linearGradient4253">
      <stop
         style="stop-color:#ffffff;stop-opacity:1;"
         offset="0"
         id="stop4255" />
      <stop
         style="stop-color:#ffffff;stop-opacity:0.52910054"
         offset="1"
         id="stop4257" />
    </linearGradient>
    <linearGradient
       id="linearGradient4226">
      <stop
         style="stop-color:#95724c;stop-opacity:1"
         offset="0"
         id="stop4228" />
      <stop
         style="stop-color:#c4975c;stop-opacity:1"
         offset="1"
         id="stop4231" />
    </linearGradient>
    <linearGradient
       id="linearGradient4149">
      <stop
         id="stop4151"
         offset="0"
         style="stop-color:#fae4ba;stop-opacity:1" />
      <stop
         id="stop4153"
         offset="1"
         style="stop-color:#dcb98b;stop-opacity:1;" />
    </linearGradient>
    <linearGradient
       id="linearGradient4017">
      <stop
         id="stop4019"
         offset="0"
         style="stop-color:#dcb98b;stop-opacity:1" />
      <stop
         id="stop4021"
         offset="1"
         style="stop-color:#be9d72;stop-opacity:1;" />
    </linearGradient>
    <radialGradient
       xlink:href="#linearGradient4149"
       id="radialGradient4013"
       cx="27.552082"
       cy="6"
       fx="27.552082"
       fy="6"
       r="20"
       gradientTransform="matrix(1.1999999,0,0,0.6,-6.9999967,5.5687474)"
       gradientUnits="userSpaceOnUse" />
    <linearGradient
       xlink:href="#linearGradient4226"
       id="linearGradient4143"
       gradientUnits="userSpaceOnUse"
       gradientTransform="matrix(-1,0,0,1,48,-0.33125221)"
       x1="5.3933983"
       y1="42.585785"
       x2="16"
       y2="20" />
    <linearGradient
       xlink:href="#linearGradient4017"
       id="linearGradient4145"
       x1="16.500126"
       y1="20.25"
       x2="10.4995"
       y2="45.75"
       gradientUnits="userSpaceOnUse"
       gradientTransform="translate(0,-1.3312522)" />
    <linearGradient
       xlink:href="#linearGradient4253"
       id="linearGradient4259"
       x1="13"
       y1="23"
       x2="13"
       y2="17"
       gradientUnits="userSpaceOnUse"
       gradientTransform="translate(0,-1.3312522)" />
    <linearGradient
       xlink:href="#linearGradient4269"
       id="linearGradient4275"
       x1="36.18198"
       y1="3.6967001"
       x2="16.276815"
       y2="16.74472"
       gradientUnits="userSpaceOnUse"
       gradientTransform="translate(0,-1.3312522)" />
    <linearGradient
       xlink:href="#linearGradient4277"
       id="linearGradient4329"
       gradientUnits="userSpaceOnUse"
       x1="40"
       y1="37"
       x2="9"
       y2="4"
       gradientTransform="translate(0,-1.3312522)" />
    <radialGradient
       xlink:href="#linearGradient4365"
       id="radialGradient4363"
       gradientUnits="userSpaceOnUse"
       gradientTransform="matrix(1,0,0,1.1575563,0,0.1044373)"
       cx="23.276966"
       cy="13.919409"
       fx="23.276966"
       fy="13.919409"
       r="19.4375" />
    <linearGradient
       id="linearGradient4301">
      <stop
         style="stop-color:#000000;stop-opacity:1;"
         offset="0"
         id="stop4303" />
      <stop
         id="stop4309"
         offset="0.43835616"
         style="stop-color:#000000;stop-opacity:0.27500001;" />
      <stop
         style="stop-color:#000000;stop-opacity:0;"
         offset="1"
         id="stop4305" />
    </linearGradient>
    <radialGradient
       r="24"
       fy="38"
       fx="24"
       cy="38"
       cx="24"
       gradientTransform="matrix(1,0,0,0.41666667,0,22.166667)"
       gradientUnits="userSpaceOnUse"
       id="radialGradient4327"
       xlink:href="#linearGradient4301" />
  </defs>
  <g
     id="layer3"
     style="display:inline" />
  <g
     id="layer1">
    <path
       style="fill:url(#radialGradient4327);fill-opacity:1;stroke:none"
       id="path4299"
       d="M 48,38 A 24,10 0 1 1 0,38 24,10 0 1 1 48,38 z"
       transform="matrix(-0.83333333,0,0,1,44,-3)" />
    <path
       style="fill:url(#radialGradient4013);fill-opacity:1;stroke:none"
       d="m 24.4995,25.66875 -20.999375,-8 0,-4 L 24.4995,5.1687474 44.5,13.66875 l 0,4 z"
       id="path3965" />
    <path
       style="fill:url(#linearGradient4145);fill-opacity:1;stroke:none"
       d="m 3.500125,13.66875 0,22 20.999375,8.5 0,-22.5 z"
       id="path3173" />
    <path
       id="path3955"
       d="m 44.5,13.66875 0,22 -20.0005,8.5 0,-22.5 z"
       style="fill:url(#linearGradient4143);fill-opacity:1;stroke:none" />
    <path
       style="font-size:medium;font-style:normal;font-variant:normal;font-weight:normal;font-stretch:normal;text-indent:0;text-align:start;text-decoration:none;line-height:normal;letter-spacing:normal;word-spacing:normal;text-transform:none;direction:ltr;block-progression:tb;writing-mode:lr-tb;text-anchor:start;baseline-shift:baseline;opacity:0.8;color:#000000;fill:#b19065;fill-opacity:1;stroke:none;stroke-width:1px;marker:none;visibility:visible;display:inline;overflow:visible;enable-background:accumulate;font-family:Sans;-inkscape-font-specification:Sans"
       d="m 32.448874,9.305121 -18.8995,8.181003 0.578128,0.109835 18.8995,-8.181003 z"
       id="path4052" />
    <path
       style="font-size:medium;font-style:normal;font-variant:normal;font-weight:normal;font-stretch:normal;text-indent:0;text-align:start;text-decoration:none;line-height:normal;letter-spacing:normal;word-spacing:normal;text-transform:none;direction:ltr;block-progression:tb;writing-mode:lr-tb;text-anchor:start;baseline-shift:baseline;opacity:0.61000001;color:#000000;fill:url(#linearGradient4329);fill-opacity:1;stroke:none;stroke-width:1;marker:none;visibility:visible;display:inline;overflow:visible;enable-background:accumulate;font-family:Sans;-inkscape-font-specification:Sans"
       d="m 24.5,4.6374974 -0.1875,0.0625 L 3.3125,13.2 3,13.325 l 0,0.34375 0,4 0,18 0,0.34375 0.3125,0.125 21,8.5 0.1875,0.0625 0.1875,-0.0625 20,-8.5 0.3125,-0.125 0,-0.34375 0,-18 0,-4 0,-0.34375 -0.3125,-0.125 -20,-8.5000026 z m 0,1.0625 L 44,14.10625 44,17.66875 44,35.325 24.5625,43.41875 4,35.325 4,17.66875 4.09375,14.028125 z"
       id="path4035" />
    <path
       style="opacity:0.4;fill:url(#linearGradient4259);fill-opacity:1;stroke:none"
       d="m 11.41815,22.393656 0.680268,-0.652505 0.588569,1.003872 0.911931,-0.845558 0.332345,1.181395 0.776485,-0.309715 0.558396,1.020234 0.12679,-5.19985 -3.980353,-1.531613 z"
       id="path4059" />
    <path
       id="path4242"
       d="m 30.875,8.5437474 -19.440047,8.5284966 3.92475,1.5 19.440047,-8.528497 z"
       style="font-size:medium;font-style:normal;font-variant:normal;font-weight:normal;font-stretch:normal;text-indent:0;text-align:start;text-decoration:none;line-height:normal;letter-spacing:normal;word-spacing:normal;text-transform:none;direction:ltr;block-progression:tb;writing-mode:lr-tb;text-anchor:start;baseline-shift:baseline;opacity:0.4;color:#000000;fill:url(#linearGradient4275);fill-opacity:1;stroke:none;stroke-width:1px;marker:none;visibility:visible;display:inline;overflow:visible;enable-background:accumulate;font-family:Sans;-inkscape-font-specification:Sans" />
    <path
       style="fill:url(#radialGradient4363);fill-opacity:1;stroke:none"
       d="M 24.089689,21.999556 3.9646029,13.998761 24.478553,21.220527 43.855231,14.00964 25.09375,22.1375 l 0.0625,21.65625 -1.1164,-0.553407 z"
       id="path4317" />
    <g
       style="display:inline;enable-background:new"
       id="g5963"
       transform="matrix(0.5,-0.22261338,0,0.5,-94.500107,61.383026)">
      <path
         style="opacity:0.50000000000000000;fill:#502d16;fill-opacity:1;fill-rule:nonzero;stroke:none"
         d="m 265.99995,31.46875 -2.46875,3.5625 0.46875,0 1,0 0,1 0,4.96875 2,0 0,-4.96875 0,-1 1,0 0.4375,0 -2.4375,-3.5625 z"
         id="path2987" />
      <rect
         width="16"
         height="16"
         x="29.000042"
         y="261.00021"
         id="rect6034"
         style="color:#bebebe;fill:none;stroke:none;stroke-width:1;marker:none;visibility:visible;display:inline;overflow:visible;enable-background:new"
         transform="matrix(0,1,1,0,0,0)" />
      <path
         d="m 263.00021,43.015762 0,1.96856 12,0 -0.005,-1.96856 z"
         style="opacity:0.50000000000000000;fill:#502d16;fill-opacity:1;fill-rule:nonzero;stroke:none"
         id="path4177" />
      <path
         id="path5714"
         d="m 272.0002,31.46875 -2.46875,3.5625 0.46875,0 1,0 0,1 0,4.96875 2,0 0,-4.96875 0,-1 1,0 0.4375,0 -2.4375,-3.5625 z"
         style="opacity:0.50000000000000000;fill:#502d16;fill-opacity:1;fill-rule:nonzero;stroke:none" />
    </g>
    <path
       style="opacity:0.3;fill:#ffffff;fill-opacity:1;stroke:none"
       d="M 24.5,5.656 4,14 5.2375531,14.452705 24.5,6.656 l 18.138325,7.708788 1.24239,-0.471984 z"
       id="path3225" />
    <path
       id="path4033"
       d="m 43.011481,14.417676 1,-0.445227 0,21.3125 -1,0.445227 z"
       style="opacity:0.1;fill:#ffffff;fill-opacity:1;stroke:none" />
    <path
       id="path4036"
       d="m 43.011481,34.726312 0,1 -18,7.1875 0,-1 18,-7.1875 z"
       style="opacity:0.1;fill:#ffffff;fill-opacity:1;stroke:none" />
    <path
       style="opacity:0.1;fill:#ffffff;fill-opacity:1;stroke:none"
       d="m 24,22.083502 -1,-0.445227 0,21.3125 1,0.445227 z"
       id="path4014" />
    <g
       id="g4027">
      <path
         id="rect4005"
         d="m -5.4731774,12.18398 1.0946355,0 0,21.3125 -1.0946355,0 z"
         style="opacity:0.1;fill:#ffffff;fill-opacity:1;stroke:none"
         transform="matrix(-0.91354611,-0.40673517,0,1,0,0)" />
      <path
         id="rect4016"
         d="M 5 34.65625 L 5 35.65625 L 23 42.84375 L 23 41.84375 L 5 34.65625 z "
         style="opacity:0.1;fill:#ffffff;fill-opacity:1;stroke:none" />
    </g>
  </g>
  <g
     id="layer2" />
</svg>
