<?xml version="1.0" encoding="UTF-8" standalone="no"?>
<svg
   xmlns:dc="http://purl.org/dc/elements/1.1/"
   xmlns:cc="http://creativecommons.org/ns#"
   xmlns:rdf="http://www.w3.org/1999/02/22-rdf-syntax-ns#"
   xmlns:svg="http://www.w3.org/2000/svg"
   xmlns="http://www.w3.org/2000/svg"
   xmlns:xlink="http://www.w3.org/1999/xlink"
   id="svg3759"
   height="48"
   width="48"
   version="1.1">
  <metadata
     id="metadata37">
    <rdf:RDF>
      <cc:Work
         rdf:about="">
        <dc:format>image/svg+xml</dc:format>
        <dc:type
           rdf:resource="http://purl.org/dc/dcmitype/StillImage" />
        <dc:title />
      </cc:Work>
    </rdf:RDF>
  </metadata>
  <defs
     id="defs3761">
    <linearGradient
       id="linearGradient3914">
      <stop
         id="stop3916"
         offset="0"
         style="stop-color:#ffffff;stop-opacity:1;" />
      <stop
         id="stop3918"
         offset="1"
         style="stop-color:#ffffff;stop-opacity:0;" />
    </linearGradient>
    <linearGradient
       id="linearGradient3960">
      <stop
         id="stop3962"
         offset="0"
         style="stop-color:#000000;stop-opacity:0;" />
      <stop
         style="stop-color:#000000;stop-opacity:1;"
         offset="0.5"
         id="stop3970" />
      <stop
         id="stop3964"
         offset="1"
         style="stop-color:#000000;stop-opacity:0;" />
    </linearGradient>
    <linearGradient
       id="linearGradient3952">
      <stop
         id="stop3954"
         offset="0"
         style="stop-color:#000000;stop-opacity:1;" />
      <stop
         id="stop3956"
         offset="1"
         style="stop-color:#000000;stop-opacity:0;" />
    </linearGradient>
    <linearGradient
       id="linearGradient3944">
      <stop
         id="stop3946"
         offset="0"
         style="stop-color:#000000;stop-opacity:1;" />
      <stop
         id="stop3948"
         offset="1"
         style="stop-color:#000000;stop-opacity:0;" />
    </linearGradient>
    <linearGradient
       id="linearGradient3988-5">
      <stop
         id="stop3990-5"
         offset="0"
         style="stop-color:#e8e8e8;stop-opacity:1;" />
      <stop
         id="stop3992-0"
         offset="1"
         style="stop-color:#f0f0f0;stop-opacity:1;" />
    </linearGradient>
    <linearGradient
       y2="40.000172"
       x2="144.00006"
       y1="280.00018"
       x1="144.00006"
       gradientTransform="matrix(-0.175,0,0,0.175,49.20002,-5.0000326)"
       gradientUnits="userSpaceOnUse"
       id="linearGradient3142"
       xlink:href="#linearGradient3988-5" />
    <linearGradient
       gradientUnits="userSpaceOnUse"
       y2="48"
       x2="24"
       y1="0"
       x1="24"
       id="linearGradient3920"
       xlink:href="#linearGradient3914" />
    <radialGradient
       r="2"
       fy="43.5"
       fx="9"
       cy="43.5"
       cx="9"
       gradientTransform="matrix(1,0,0,0.75,-1.0000003,10.875)"
       gradientUnits="userSpaceOnUse"
       id="radialGradient3925"
       xlink:href="#linearGradient3944" />
    <radialGradient
       r="2"
       fy="43.5"
       fx="40"
       cy="43.5"
       cx="40"
       gradientTransform="matrix(1,0,0,0.75,-3e-7,10.875)"
       gradientUnits="userSpaceOnUse"
       id="radialGradient3928"
       xlink:href="#linearGradient3952" />
    <linearGradient
       gradientTransform="matrix(1.0305144,0,0,1,-1.2476025,0)"
       y2="42"
       x2="25"
       y1="45"
       x1="25"
       gradientUnits="userSpaceOnUse"
       id="linearGradient3931"
       xlink:href="#linearGradient3960" />
    <radialGradient
       r="2"
       fy="43.5"
       fx="9"
       cy="43.5"
       cx="9"
       gradientTransform="matrix(1.0571429,0,0,1.25,-2.4000003,-10.875)"
       gradientUnits="userSpaceOnUse"
       id="radialGradient3934"
       xlink:href="#linearGradient3944" />
    <radialGradient
       r="2"
       fy="43.5"
       fx="40"
       cy="43.5"
       cx="40"
       gradientTransform="matrix(1.0571429,0,0,1.25,-1.4000003,-10.875)"
       gradientUnits="userSpaceOnUse"
       id="radialGradient3937"
       xlink:href="#linearGradient3952" />
    <linearGradient
       gradientTransform="matrix(1.0894009,0,0,1.6666667,-2.6903226,-29)"
       y2="42"
       x2="25"
       y1="45"
       x1="25"
       gradientUnits="userSpaceOnUse"
       id="linearGradient3940"
       xlink:href="#linearGradient3960" />
  </defs>
  <g
     id="layer1">
    <g
       id="g3942">
      <rect
         y="41"
         x="7.1142859"
         height="5"
         width="33.771431"
         id="rect3985"
         style="opacity:0.12000002;fill:url(#linearGradient3940);fill-opacity:1;stroke:none" />
      <path
         id="path3987"
         d="m 40.885716,41.000001 0,5 0.528571,0 c 0.878486,0 1.585715,-1.115 1.585715,-2.5 0,-1.385 -0.707229,-2.5 -1.585715,-2.5 l -0.528571,0 z"
         style="opacity:0.12000002;fill:url(#radialGradient3937);fill-opacity:1;stroke:none" />
      <path
         id="path3989"
         d="M 6.4866072,41.000001 C 5.6630268,41.000001 5,42.045313 5,43.343751 l 0,0.3125 c 0,1.298439 0.6630268,2.34375 1.4866072,2.34375 l 0.6276786,0 0,-5 -0.6276786,0 z"
         style="opacity:0.12000002;fill:url(#radialGradient3934);fill-opacity:1;stroke:none" />
      <rect
         style="opacity:0.12000002;fill:url(#linearGradient3931);fill-opacity:1;stroke:none"
         id="rect3938"
         width="31.945946"
         height="3"
         x="8.0270262"
         y="42" />
      <path
         style="opacity:0.12000002;fill:url(#radialGradient3928);fill-opacity:1;stroke:none"
         d="m 40,42 0,3 0.5,0 C 41.331,45 42,44.331 42,43.5 42,42.669 41.331,42 40.5,42 L 40,42 z"
         id="rect3940" />
      <path
         style="opacity:0.12000002;fill:url(#radialGradient3925);fill-opacity:1;stroke:none"
         d="m 7.4062497,42 c -0.7790625,0 -1.40625,0.627187 -1.40625,1.40625 l 0,0.1875 c 0,0.779063 0.6271875,1.40625 1.40625,1.40625 l 0.59375,0 0,-3 -0.59375,0 z"
         id="rect3942" />
    </g>
    <path
       id="rect3886"
       d="M 40,3 8,3 C 7.446,3 7,3.446 7,4 l 0,39 c 0,0.554 0.446,1 1,1 l 32,0 c 0.554,0 1,-0.446 1,-1 L 41,4 C 41,3.446 40.554,3 40,3 z"
       style="opacity:0.35;color:#bebebe;fill:#000000;fill-opacity:1;fill-rule:nonzero;stroke:none;stroke-width:0;marker:none;visibility:visible;display:inline;overflow:visible;enable-background:accumulate" />
    <path
       id="rect3882"
       d="M 40,4 8,4 8,43 40,43 z"
       style="color:#bebebe;fill:url(#linearGradient3142);fill-opacity:1;fill-rule:nonzero;stroke:none;stroke-width:0;marker:none;visibility:visible;display:inline;overflow:visible;enable-background:accumulate" />
    <path
       style="opacity:0.40000000000000002;fill:url(#linearGradient3920);fill-opacity:1;stroke:none"
       d="M 40,4 8,4 8,43 40,43 z M 39,5 39,42 9,42 9,5 z"
       id="path3893" />
    <rect
       y="4"
       x="8"
       height="1"
       width="32"
       id="rect3144"
       style="opacity:0.40000000000000002;fill:#ffffff;fill-opacity:1;stroke:none;stroke-width:1;stroke-linecap:square;stroke-miterlimit:4;stroke-opacity:1;stroke-dasharray:none" />
    <rect
       style="opacity:0.2;fill:#ffffff;fill-opacity:1;stroke:none"
       id="rect3922"
       width="32"
       height="1"
       x="8"
       y="42" />
  </g>
  <g
     id="layer2">
    <g
       transform="translate(-40,0)"
       id="g4662">
      <path
         id="path4508"
         d="m 67.0625,17.43725 0,0.46875 0.3125,0 c 0.832064,0 1.11881,0.107654 1.40625,0.53125 l 2.78125,4.21875 -2.5,3.65625 c -0.211798,0.302569 -0.659528,1 -2.1875,1 l 0,0.46875 1.6875,-0.0625 c 0.559752,0 1.392876,0.01711 1.9375,0.0625 l 0,-0.46875 c -0.695908,-0.01513 -0.96875,-0.446438 -0.96875,-0.71875 0,-0.136156 0.05036,-0.177337 0.15625,-0.34375 l 2.15625,-3.1875 2.375,3.625 c 0.03026,0.06051 0.09375,0.110865 0.09375,0.15625 0,0.181541 -0.349477,0.453621 -1,0.46875 l 0,0.46875 c 0.529496,-0.04539 1.643869,-0.0625 2.21875,-0.0625 L 77.5,27.781 l 0,-0.46875 -0.28125,0 c -0.786679,0 -1.119803,-0.09352 -1.4375,-0.5625 l -3.1875,-4.8125 2.0625,-3.03125 c 0.332826,-0.48411 0.87232,-0.984871 2.21875,-1 l 0,-0.46875 -1.6875,0.0625 c -0.605138,0 -1.332362,-0.01711 -1.9375,-0.0625 l 0,0.46875 c 0.605138,0.01513 0.9375,0.339546 0.9375,0.6875 0,0.151284 -0.0191,0.208587 -0.125,0.375 l -1.75,2.53125 -1.9375,-2.90625 c -0.03026,-0.04539 -0.09375,-0.158237 -0.09375,-0.21875 0,-0.181542 0.318227,-0.453621 0.96875,-0.46875 l 0,-0.46875 c -0.529495,0.04539 -1.64387,0.0625 -2.21875,0.0625 L 67.0625,17.43725 z M 50.78125,17.531 50.5,20.93725 l 0.375,0 c 0.211798,-2.435678 0.434356,-2.9375 2.71875,-2.9375 0.272312,0 0.661216,9.9e-4 0.8125,0.03125 0.317697,0.06051 0.34375,0.214546 0.34375,0.5625 l 0,7.96875 c 0,0.514367 -0.0053,0.75 -1.59375,0.75 l -0.625,0 0,0.46875 c 0.620266,-0.04539 2.179092,-0.0625 2.875,-0.0625 0.695908,0 2.254735,0.01711 2.875,0.0625 l 0,-0.46875 -0.625,0 c -1.588485,0 -1.5625,-0.235633 -1.5625,-0.75 l 0,-7.96875 c 0,-0.302569 -0.02231,-0.501986 0.25,-0.5625 0.166413,-0.03026 0.58756,-0.03125 0.875,-0.03125 2.284393,0 2.506952,0.501822 2.71875,2.9375 l 0.375,0 -0.28125,-3.40625 -9.25,0 z m 8.1875,3.96875 0,0.46875 0.375,0 c 1.164889,0 1.1875,0.142876 1.1875,0.6875 l 0,7.9375 c 0,0.544623 -0.02261,0.71875 -1.1875,0.71875 l -0.375,0 0,0.46875 8.71875,0 0.65625,-3.90625 -0.40625,0 c -0.378211,2.329779 -0.71041,3.4375 -3.3125,3.4375 l -2,0 c -0.711036,0 -0.75,-0.125762 -0.75,-0.625 l 0,-4.03125 1.34375,0 c 1.467458,0 1.65625,0.495333 1.65625,1.78125 l 0.375,0 0,-4.03125 -0.375,0 c 0,1.301045 -0.188792,1.78125 -1.65625,1.78125 l -1.34375,0 0,-3.625 c 0,-0.499238 0.03897,-0.59375 0.75,-0.59375 l 1.9375,0 c 2.31465,0 2.726695,0.803397 2.96875,2.90625 l 0.375,0 -0.4375,-3.375 -8.5,0 z"
         style="font-size:15.12844849px;font-style:normal;font-variant:normal;font-weight:normal;font-stretch:normal;text-align:start;line-height:125%;letter-spacing:0px;word-spacing:0px;writing-mode:lr-tb;text-anchor:start;opacity:0.4;fill:#ffffff;fill-opacity:1;stroke:none;font-family:Latin Modern Roman;-inkscape-font-specification:Latin Modern Roman" />
      <path
         style="font-size:15.12844849px;font-style:normal;font-variant:normal;font-weight:normal;font-stretch:normal;text-align:start;line-height:125%;letter-spacing:0px;word-spacing:0px;writing-mode:lr-tb;text-anchor:start;fill:#cccccc;fill-opacity:1;stroke:none;font-family:Latin Modern Roman;-inkscape-font-specification:Latin Modern Roman"
         d="m 67.0625,16.4375 0,0.46875 0.3125,0 c 0.832064,0 1.11881,0.107654 1.40625,0.53125 l 2.78125,4.21875 -2.5,3.65625 c -0.211798,0.302569 -0.659528,1 -2.1875,1 l 0,0.46875 1.6875,-0.0625 c 0.559752,0 1.392876,0.01711 1.9375,0.0625 l 0,-0.46875 c -0.695908,-0.01513 -0.96875,-0.446438 -0.96875,-0.71875 0,-0.136156 0.05036,-0.177337 0.15625,-0.34375 l 2.15625,-3.1875 2.375,3.625 c 0.03026,0.06051 0.09375,0.110865 0.09375,0.15625 0,0.181541 -0.349477,0.453621 -1,0.46875 l 0,0.46875 c 0.529496,-0.04539 1.643869,-0.0625 2.21875,-0.0625 l 1.96875,0.0625 0,-0.46875 -0.28125,0 c -0.786679,0 -1.119803,-0.09352 -1.4375,-0.5625 l -3.1875,-4.8125 2.0625,-3.03125 c 0.332826,-0.48411 0.87232,-0.984871 2.21875,-1 l 0,-0.46875 -1.6875,0.0625 c -0.605138,0 -1.332362,-0.01711 -1.9375,-0.0625 l 0,0.46875 c 0.605138,0.01513 0.9375,0.339546 0.9375,0.6875 0,0.151284 -0.0191,0.208587 -0.125,0.375 L 72.3125,20.5 70.375,17.59375 c -0.03026,-0.04539 -0.09375,-0.158237 -0.09375,-0.21875 0,-0.181542 0.318227,-0.453621 0.96875,-0.46875 l 0,-0.46875 C 70.720505,16.48289 69.60613,16.5 69.03125,16.5 L 67.0625,16.4375 z M 50.78125,16.53125 50.5,19.9375 l 0.375,0 C 51.086798,17.501822 51.309356,17 53.59375,17 c 0.272312,0 0.661216,9.9e-4 0.8125,0.03125 0.317697,0.06051 0.34375,0.214546 0.34375,0.5625 l 0,7.96875 c 0,0.514367 -0.0053,0.75 -1.59375,0.75 l -0.625,0 0,0.46875 c 0.620266,-0.04539 2.179092,-0.0625 2.875,-0.0625 0.695908,0 2.254735,0.01711 2.875,0.0625 l 0,-0.46875 -0.625,0 c -1.588485,0 -1.5625,-0.235633 -1.5625,-0.75 l 0,-7.96875 c 0,-0.302569 -0.02231,-0.501986 0.25,-0.5625 C 56.510163,17.00099 56.93131,17 57.21875,17 c 2.284393,0 2.506952,0.501822 2.71875,2.9375 l 0.375,0 -0.28125,-3.40625 -9.25,0 z m 8.1875,3.96875 0,0.46875 0.375,0 c 1.164889,0 1.1875,0.142876 1.1875,0.6875 l 0,7.9375 c 0,0.544623 -0.02261,0.71875 -1.1875,0.71875 l -0.375,0 0,0.46875 8.71875,0 0.65625,-3.90625 -0.40625,0 c -0.378211,2.329779 -0.71041,3.4375 -3.3125,3.4375 l -2,0 c -0.711036,0 -0.75,-0.125762 -0.75,-0.625 l 0,-4.03125 1.34375,0 c 1.467458,0 1.65625,0.495333 1.65625,1.78125 l 0.375,0 0,-4.03125 -0.375,0 c 0,1.301045 -0.188792,1.78125 -1.65625,1.78125 l -1.34375,0 0,-3.625 c 0,-0.499238 0.03897,-0.59375 0.75,-0.59375 l 1.9375,0 c 2.31465,0 2.726695,0.803397 2.96875,2.90625 l 0.375,0 -0.4375,-3.375 -8.5,0 z"
         id="path4447" />
      <path
         style="font-size:15.12844849px;font-style:normal;font-variant:normal;font-weight:normal;font-stretch:normal;text-align:start;line-height:125%;letter-spacing:0px;word-spacing:0px;writing-mode:lr-tb;text-anchor:start;opacity:0.1;fill:#000000;fill-opacity:1;stroke:none;font-family:Latin Modern Roman;-inkscape-font-specification:Latin Modern Roman"
         d="m 67.0625,16.4375 0,0.46875 0.3125,0 c 0.832064,0 1.11881,0.107654 1.40625,0.53125 l 0.03125,0.0625 0.21875,0 c 0.331938,0 0.806029,-0.01769 1.28125,-0.03125 -0.01489,-0.03447 -0.03125,-0.06871 -0.03125,-0.09375 0,-0.181542 0.318227,-0.453621 0.96875,-0.46875 l 0,-0.46875 C 70.720505,16.48289 69.60613,16.5 69.03125,16.5 L 67.0625,16.4375 z m 6.1875,0 0,0.46875 c 0.529496,0.01324 0.83436,0.267096 0.90625,0.5625 0.311505,0.01 0.616294,0.0302 0.90625,0.03125 0.357672,-0.31258 0.873481,-0.583199 1.8125,-0.59375 l 0,-0.46875 -1.6875,0.0625 c -0.605138,0 -1.332362,-0.01711 -1.9375,-0.0625 z M 50.78125,16.53125 50.5,19.9375 l 0.09375,0 0.1875,-2.40625 0.71875,0 C 51.871428,17.128058 52.481528,17 53.59375,17 c 0.272312,0 0.661216,9.9e-4 0.8125,0.03125 0.295004,0.05619 0.339036,0.202148 0.34375,0.5 l 1.34375,0 c -0.0014,-0.261644 2.26e-4,-0.444494 0.25,-0.5 C 56.510163,17.00099 56.93131,17 57.21875,17 c 1.112222,0 1.722322,0.128058 2.09375,0.53125 l 0.71875,0 0.1875,2.40625 0.09375,0 -0.28125,-3.40625 -9.25,0 z m 19.875,1.5 c -0.238699,0.09922 -0.375,0.233312 -0.375,0.34375 0,0.06051 0.06349,0.17336 0.09375,0.21875 L 72.3125,21.5 72.65625,21.03125 72.59375,20.9375 74.1875,18.59375 c 0,-0.173977 -0.09127,-0.342261 -0.25,-0.46875 L 72.3125,20.5 70.65625,18.03125 z M 58.96875,20.5 l 0,0.46875 0.375,0 c 1.0336,0 1.170358,0.125442 1.1875,0.53125 l 1.34375,0 c 0.0051,-0.437158 0.07417,-0.53125 0.75,-0.53125 l 1.9375,0 c 1.026983,0 1.664524,0.17161 2.09375,0.53125 l 0.8125,0 0.3125,2.375 0.125,0 -0.4375,-3.375 -7.1875,0 0.03125,0.4375 -0.375,0 C 59.9232,20.773047 59.89003,20.647262 59.875,20.5 l -0.90625,0 z m 13.96875,0.9375 -0.34375,0.5 3.15625,4.78125 1.75,0.0625 0,-0.46875 -0.28125,0 c -0.786679,0 -1.119803,-0.09352 -1.4375,-0.5625 L 72.9375,21.4375 z m -1.71875,0.71875 -2.15625,3.15625 c -0.211798,0.302569 -0.659528,1 -2.1875,1 l 0,0.46875 1.6875,-0.0625 c 0.03607,0 0.0868,-1.45e-4 0.125,0 0.166529,-0.15495 0.30127,-0.300922 0.375,-0.40625 l 0.46875,-0.6875 c -6e-4,-0.0093 0,-0.02226 0,-0.03125 0,-0.136156 0.05036,-0.177337 0.15625,-0.34375 L 71.5,22.5625 71.21875,22.15625 z m -6.34375,1.25 c 0,1.301045 -0.188792,1.78125 -1.65625,1.78125 l -1.34375,0 0,0.46875 1.34375,0 c 0.606405,0 0.972136,0.09125 1.21875,0.28125 0.364197,-0.264508 0.4375,-0.756363 0.4375,-1.53125 l 0.375,0 0,-1 -0.375,0 z M 54.75,25.5625 c 0,0.514367 -0.0053,0.75 -1.59375,0.75 l -0.625,0 0,0.46875 c 0.47875,-0.03503 1.450076,-0.05603 2.21875,-0.0625 0.0024,-0.05095 0,-0.09828 0,-0.15625 l 0,-1 z m 1.34375,0 0,1 c 0,0.05797 -0.0017,0.105298 0,0.15625 0.765165,0.0067 1.715489,0.02796 2.1875,0.0625 l 0,-0.46875 -0.625,0 c -1.588485,0 -1.5625,-0.235633 -1.5625,-0.75 z M 69.8125,26.09375 69.6875,26.25 c -0.10589,0.166413 -0.15625,0.207594 -0.15625,0.34375 0,0.04753 0.01383,0.102095 0.03125,0.15625 0.334979,0.01 0.673963,0.0093 0.9375,0.03125 l 0,-0.46875 c -0.313159,-0.0068 -0.531994,-0.0958 -0.6875,-0.21875 z m 4.09375,0.09375 c -0.156723,0.05962 -0.349804,0.119327 -0.59375,0.125 l 0,0.46875 C 73.536263,26.76207 73.90219,26.75992 74.25,26.75 74.23412,26.72954 74.23032,26.71064 74.21875,26.6875 l -0.3125,-0.5 z M 67.9375,26.875 c -0.01821,0.112168 -0.04425,0.205984 -0.0625,0.3125 0.175657,-0.04959 0.308299,-0.119075 0.4375,-0.1875 l 0.03125,-0.125 -0.40625,0 z m 0.25,0.84375 -0.40625,0.03125 c -0.352936,1.7301 -0.906429,2.5625 -3.15625,2.5625 l -2,0 c -0.711036,0 -0.75,-0.125762 -0.75,-0.625 l 0,1 c 0,0.03707 -6.89e-4,0.06069 0,0.09375 l 4.90625,0 c 0.70807,-0.540212 0.92742,-1.496659 1.15625,-2.90625 l 0.25,0 0,-0.15625 z m -7.65625,1.875 c 0,0.544623 -0.02261,0.71875 -1.1875,0.71875 l -0.375,0 0,0.46875 1.53125,0 c 0.0037,-0.06132 0.03125,-0.112726 0.03125,-0.1875 l 0,-1 z"
         id="path4558" />
    </g>
    <text
       id="context"
       style="font-size:18px;font-style:normal;font-variant:normal;font-weight:normal;font-stretch:normal;fill:#000000;fill-opacity:1;stroke:none;display:none;enable-background:new;font-family:DejaVu Sans;-inkscape-font-specification:DejaVu Sans"
       x="-775.49316"
       xml:space="preserve"
       y="-182.75488"><tspan
         id="tspan3933"
         x="-775.49316"
         y="-182.75488"
         style="font-style:normal;font-variant:normal;font-weight:normal;font-stretch:normal;font-family:DejaVu Sans;-inkscape-font-specification:DejaVu Sans">apps</tspan></text>
    <text
       id="icon-name"
       style="font-size:18px;font-style:normal;font-variant:normal;font-weight:bold;font-stretch:normal;text-align:start;line-height:125%;writing-mode:lr-tb;text-anchor:start;fill:#000000;fill-opacity:1;stroke:none;display:none;enable-background:new;font-family:DejaVu Sans;-inkscape-font-specification:DejaVu Sans Bold"
       x="-668.01172"
       xml:space="preserve"
       y="-182.75488"><tspan
         id="tspan3937"
         x="-668.01172"
         y="-182.75488"
         style="font-size:18px;font-style:normal;font-variant:normal;font-weight:bold;font-stretch:normal;font-family:DejaVu Sans;-inkscape-font-specification:DejaVu Sans Bold">texstudio</tspan></text>
    <rect
       y="-62.5"
       x="-374.5"
       height="16"
       width="16"
       id="rect16x16"
       style="fill:#eeeeec;fill-opacity:1;fill-rule:nonzero;stroke:none;stroke-width:2;marker:none;visibility:visible;display:none;overflow:visible;enable-background:accumulate" />
    <rect
       y="-102.5"
       x="-374.5"
       height="24"
       width="24"
       id="rect24x24"
       style="fill:#d4d4d4;fill-opacity:1;fill-rule:nonzero;stroke:none;stroke-width:2;marker:none;visibility:visible;display:none;overflow:visible;enable-background:accumulate" />
    <rect
       y="-150.5"
       x="-374.5"
       height="32"
       width="32"
       id="rect32x32"
       style="fill:#eeeeec;fill-opacity:1;fill-rule:nonzero;stroke:none;stroke-width:2;marker:none;visibility:visible;display:none;overflow:visible;enable-background:accumulate" />
    <rect
       style="fill:#eeeeec;fill-opacity:1;fill-rule:nonzero;stroke:none;stroke-width:2;marker:none;visibility:visible;display:none;overflow:visible;enable-background:accumulate"
       id="rect22x22"
       width="22"
       height="22"
       x="-373.5"
       y="-101.5" />
    <rect
       style="fill:#eeeeec;fill-opacity:1;fill-rule:nonzero;stroke:none;stroke-width:2;marker:none;visibility:visible;display:none;overflow:visible;enable-background:accumulate"
       id="rect48x48"
       width="48"
       height="48"
       x="-502.5"
       y="17.5" />
    <rect
       y="-174.5"
       x="-774.5"
       height="256"
       width="256"
       id="rect256x256"
       style="fill:#eeeeec;fill-opacity:1;fill-rule:nonzero;stroke:none;stroke-width:2;marker:none;visibility:visible;display:none;overflow:visible;enable-background:accumulate" />
    <rect
       y="-62.5"
       x="-502.5"
       height="64"
       width="64"
       id="rect64x64"
       style="fill:#eeeeec;fill-opacity:1;fill-rule:nonzero;stroke:none;stroke-width:2;marker:none;visibility:visible;display:none;overflow:visible;enable-background:accumulate" />
    <rect
       y="-174.5"
       x="-502.5"
       height="96"
       width="96"
       id="rect96x96"
       style="fill:#eeeeec;fill-opacity:1;fill-rule:nonzero;stroke:none;stroke-width:2;marker:none;visibility:visible;display:none;overflow:visible;enable-background:accumulate" />
  </g>
</svg>
