<?xml version="1.0" encoding="UTF-8" standalone="no"?>
<svg xmlns="http://www.w3.org/2000/svg" xmlns:xlink="http://www.w3.org/1999/xlink" xmlns:sodipodi="http://sodipodi.sourceforge.net/DTD/sodipodi-0.dtd" xmlns:inkscape="http://www.inkscape.org/namespaces/inkscape" version="1.1" width="48" height="48">
 <metadata id="metadata37"/>
 <defs id="defs3761">
  <linearGradient inkscape:collect="always" id="linearGradient3914">
   <stop id="stop3916" stop-color="#ffffff"/>
   <stop offset="1" id="stop3918" stop-color="#ffffff" stop-opacity="0"/>
  </linearGradient>
  <linearGradient id="linearGradient3960">
   <stop id="stop3962" stop-opacity="0"/>
   <stop id="stop3970" offset="0.5"/>
   <stop offset="1" id="stop3964" stop-opacity="0"/>
  </linearGradient>
  <linearGradient inkscape:collect="always" id="linearGradient3952">
   <stop id="stop3954"/>
   <stop offset="1" id="stop3956" stop-opacity="0"/>
  </linearGradient>
  <linearGradient id="linearGradient3988-5">
   <stop id="stop3990-5" stop-color="#e8e8e8"/>
   <stop offset="1" id="stop3992-0" stop-color="#f0f0f0"/>
  </linearGradient>
  <linearGradient inkscape:collect="always" xlink:href="#linearGradient3988-5" id="linearGradient3142" gradientUnits="userSpaceOnUse" gradientTransform="matrix(-0.175,0,0,0.175,49.20002,-5.0000326)" y1="280" x2="0" y2="40"/>
  <linearGradient inkscape:collect="always" xlink:href="#linearGradient3914" id="linearGradient3920" y1="0" x2="0" y2="48" gradientUnits="userSpaceOnUse"/>
  <radialGradient inkscape:collect="always" xlink:href="#linearGradient3952" id="radialGradient3925" gradientUnits="userSpaceOnUse" gradientTransform="matrix(1,0,0,0.75,-1.0000003,10.875)" cx="9" cy="43.5" r="2"/>
  <radialGradient inkscape:collect="always" xlink:href="#linearGradient3952" id="radialGradient3928" gradientUnits="userSpaceOnUse" gradientTransform="matrix(1,0,0,0.75,-3e-7,10.875)" cx="40" cy="43.5" r="2"/>
  <linearGradient inkscape:collect="always" xlink:href="#linearGradient3960" id="linearGradient3931" gradientUnits="userSpaceOnUse" y1="45" x2="0" y2="42" gradientTransform="matrix(1.0305144,0,0,1,-1.2476025,0)"/>
  <radialGradient inkscape:collect="always" xlink:href="#linearGradient3952" id="radialGradient3934" gradientUnits="userSpaceOnUse" gradientTransform="matrix(1.0571429,0,0,1.25,-2.4000003,-10.875)" cx="9" cy="43.5" r="2"/>
  <radialGradient inkscape:collect="always" xlink:href="#linearGradient3952" id="radialGradient3937" gradientUnits="userSpaceOnUse" gradientTransform="matrix(1.0571429,0,0,1.25,-1.4000003,-10.875)" cx="40" cy="43.5" r="2"/>
  <linearGradient inkscape:collect="always" xlink:href="#linearGradient3960" id="linearGradient3940" gradientUnits="userSpaceOnUse" y1="45" x2="0" y2="42" gradientTransform="matrix(1.0894009,0,0,1.6666667,-2.6903226,-29)"/>
 </defs>
 <g inkscape:groupmode="layer" id="layer1" inkscape:label="Background">
  <g id="g3942">
   <rect id="rect3985" width="33.771" height="5" x="7.114" y="41" opacity="0.12" fill="url(#linearGradient3940)"/>
   <path d="m 40.885716,41.000001 0,5 0.528571,0 c 0.878486,0 1.585715,-1.115 1.585715,-2.5 0,-1.385 -0.707229,-2.5 -1.585715,-2.5 l -0.528571,0 z" id="path3987" inkscape:connector-curvature="0" opacity="0.12" fill="url(#radialGradient3937)"/>
   <path d="M 6.4866072,41.000001 C 5.6630268,41.000001 5,42.045313 5,43.343751 l 0,0.3125 c 0,1.298439 0.6630268,2.34375 1.4866072,2.34375 l 0.6276786,0 0,-5 -0.6276786,0 z" id="path3989" inkscape:connector-curvature="0" opacity="0.12" fill="url(#radialGradient3934)"/>
   <rect y="42" x="8.03" height="3" width="31.946" id="rect3938" opacity="0.12" fill="url(#linearGradient3931)"/>
   <path id="rect3940" d="m 40,42 0,3 0.5,0 C 41.331,45 42,44.331 42,43.5 42,42.669 41.331,42 40.5,42 L 40,42 z" inkscape:connector-curvature="0" opacity="0.12" fill="url(#radialGradient3928)"/>
   <path id="rect3942" d="m 7.4062497,42 c -0.7790625,0 -1.40625,0.627187 -1.40625,1.40625 l 0,0.1875 c 0,0.779063 0.6271875,1.40625 1.40625,1.40625 l 0.59375,0 0,-3 -0.59375,0 z" inkscape:connector-curvature="0" opacity="0.12" fill="url(#radialGradient3925)"/>
  </g>
  <path d="M 40,3 8,3 C 7.446,3 7,3.446 7,4 l 0,39 c 0,0.554 0.446,1 1,1 l 32,0 c 0.554,0 1,-0.446 1,-1 L 41,4 C 41,3.446 40.554,3 40,3 z" id="rect3886" inkscape:connector-curvature="0" sodipodi:nodetypes="sssssssss" opacity="0.35" color="#bebebe" stroke-width="0"/>
  <path d="M 40,4 8,4 8,43 40,43 z" id="rect3882" inkscape:connector-curvature="0" sodipodi:nodetypes="ccccc" fill="url(#linearGradient3142)" color="#bebebe" stroke-width="0"/>
  <path id="path3893" d="M 40,4 8,4 8,43 40,43 z M 39,5 39,42 9,42 9,5 z" inkscape:connector-curvature="0" sodipodi:nodetypes="cccccccccc" opacity="0.4" fill="url(#linearGradient3920)"/>
  <rect id="rect3144" width="32" height="1" x="8" y="4" opacity="0.4" fill="#ffffff" stroke-linecap="square"/>
  <rect y="42" x="8" height="1" width="32" id="rect3922" opacity="0.2" fill="#ffffff"/>
 </g>
</svg>
