<?xml version="1.0" encoding="UTF-8" standalone="no"?>
<svg xmlns="http://www.w3.org/2000/svg" xmlns:xlink="http://www.w3.org/1999/xlink" xmlns:sodipodi="http://sodipodi.sourceforge.net/DTD/sodipodi-0.dtd" xmlns:inkscape="http://www.inkscape.org/namespaces/inkscape" version="1.1" width="48" height="48">
 <metadata id="metadata37"/>
 <defs id="defs3761">
  <linearGradient inkscape:collect="always" id="linearGradient3914">
   <stop id="stop3916" stop-color="#ffffff"/>
   <stop offset="1" id="stop3918" stop-color="#ffffff" stop-opacity="0"/>
  </linearGradient>
  <linearGradient id="linearGradient3960">
   <stop id="stop3962" stop-opacity="0"/>
   <stop id="stop3970" offset="0.5"/>
   <stop offset="1" id="stop3964" stop-opacity="0"/>
  </linearGradient>
  <linearGradient inkscape:collect="always" id="linearGradient3952">
   <stop id="stop3954"/>
   <stop offset="1" id="stop3956" stop-opacity="0"/>
  </linearGradient>
  <linearGradient id="linearGradient3988-5">
   <stop id="stop3990-5" stop-color="#e8e8e8"/>
   <stop offset="1" id="stop3992-0" stop-color="#f0f0f0"/>
  </linearGradient>
  <linearGradient inkscape:collect="always" xlink:href="#linearGradient3988-5" id="linearGradient3142" gradientUnits="userSpaceOnUse" gradientTransform="matrix(-0.175,0,0,0.175,49.20002,-5.0000326)" y1="280" x2="0" y2="40"/>
  <linearGradient inkscape:collect="always" xlink:href="#linearGradient3914" id="linearGradient3920" y1="0" x2="0" y2="48" gradientUnits="userSpaceOnUse"/>
  <radialGradient inkscape:collect="always" xlink:href="#linearGradient3952" id="radialGradient3925" gradientUnits="userSpaceOnUse" gradientTransform="matrix(1,0,0,0.75,-1.0000003,10.875)" cx="9" cy="43.5" r="2"/>
  <radialGradient inkscape:collect="always" xlink:href="#linearGradient3952" id="radialGradient3928" gradientUnits="userSpaceOnUse" gradientTransform="matrix(1,0,0,0.75,-3e-7,10.875)" cx="40" cy="43.5" r="2"/>
  <linearGradient inkscape:collect="always" xlink:href="#linearGradient3960" id="linearGradient3931" gradientUnits="userSpaceOnUse" y1="45" x2="0" y2="42" gradientTransform="matrix(1.0305144,0,0,1,-1.2476025,0)"/>
  <radialGradient inkscape:collect="always" xlink:href="#linearGradient3952" id="radialGradient3934" gradientUnits="userSpaceOnUse" gradientTransform="matrix(1.0571429,0,0,1.25,-2.4000003,-10.875)" cx="9" cy="43.5" r="2"/>
  <radialGradient inkscape:collect="always" xlink:href="#linearGradient3952" id="radialGradient3937" gradientUnits="userSpaceOnUse" gradientTransform="matrix(1.0571429,0,0,1.25,-1.4000003,-10.875)" cx="40" cy="43.5" r="2"/>
  <linearGradient inkscape:collect="always" xlink:href="#linearGradient3960" id="linearGradient3940" gradientUnits="userSpaceOnUse" y1="45" x2="0" y2="42" gradientTransform="matrix(1.0894009,0,0,1.6666667,-2.6903226,-29)"/>
  <linearGradient id="linearGradient4689">
   <stop id="stop4691" stop-color="#5a9fd4"/>
   <stop offset="1" id="stop4693" stop-color="#306998"/>
  </linearGradient>
  <linearGradient id="linearGradient4671">
   <stop id="stop4673" stop-color="#ffec3b"/>
   <stop offset="1" id="stop4675" stop-color="#ffe62e"/>
  </linearGradient>
 </defs>
 <g inkscape:groupmode="layer" id="layer1" inkscape:label="Background">
  <g id="g3942">
   <rect id="rect3985" width="33.771" height="5" x="7.114" y="41" opacity="0.12" fill="url(#linearGradient3940)"/>
   <path d="m 40.885716,41.000001 0,5 0.528571,0 c 0.878486,0 1.585715,-1.115 1.585715,-2.5 0,-1.385 -0.707229,-2.5 -1.585715,-2.5 l -0.528571,0 z" id="path3987" inkscape:connector-curvature="0" opacity="0.12" fill="url(#radialGradient3937)"/>
   <path d="M 6.4866072,41.000001 C 5.6630268,41.000001 5,42.045313 5,43.343751 l 0,0.3125 c 0,1.298439 0.6630268,2.34375 1.4866072,2.34375 l 0.6276786,0 0,-5 -0.6276786,0 z" id="path3989" inkscape:connector-curvature="0" opacity="0.12" fill="url(#radialGradient3934)"/>
   <rect y="42" x="8.03" height="3" width="31.946" id="rect3938" opacity="0.12" fill="url(#linearGradient3931)"/>
   <path id="rect3940" d="m 40,42 0,3 0.5,0 C 41.331,45 42,44.331 42,43.5 42,42.669 41.331,42 40.5,42 L 40,42 z" inkscape:connector-curvature="0" opacity="0.12" fill="url(#radialGradient3928)"/>
   <path id="rect3942" d="m 7.4062497,42 c -0.7790625,0 -1.40625,0.627187 -1.40625,1.40625 l 0,0.1875 c 0,0.779063 0.6271875,1.40625 1.40625,1.40625 l 0.59375,0 0,-3 -0.59375,0 z" inkscape:connector-curvature="0" opacity="0.12" fill="url(#radialGradient3925)"/>
  </g>
  <path d="M 40,3 8,3 C 7.446,3 7,3.446 7,4 l 0,39 c 0,0.554 0.446,1 1,1 l 32,0 c 0.554,0 1,-0.446 1,-1 L 41,4 C 41,3.446 40.554,3 40,3 z" id="rect3886" inkscape:connector-curvature="0" sodipodi:nodetypes="sssssssss" opacity="0.35" color="#bebebe" stroke-width="0"/>
  <path d="M 40,4 8,4 8,43 40,43 z" id="rect3882" inkscape:connector-curvature="0" sodipodi:nodetypes="ccccc" fill="url(#linearGradient3142)" color="#bebebe" stroke-width="0"/>
  <path id="path3893" d="M 40,4 8,4 8,43 40,43 z M 39,5 39,42 9,42 9,5 z" inkscape:connector-curvature="0" sodipodi:nodetypes="cccccccccc" opacity="0.4" fill="url(#linearGradient3920)"/>
  <rect id="rect3144" width="32" height="1" x="8" y="4" opacity="0.4" fill="#ffffff" stroke-linecap="square"/>
  <rect y="42" x="8" height="1" width="32" id="rect3922" opacity="0.2" fill="#ffffff"/>
 </g>
 <g inkscape:groupmode="layer" id="layer2" inkscape:label="Symbol">
  <g transform="translate(-1.0004,0)" id="g3792">
   <path inkscape:connector-curvature="0" d="m 13.28906,8 0,-0.859375 -1.28906,0 L 12,8 13.28906,8" id="path26173" fill="#c0c0c0"/>
   <path inkscape:connector-curvature="0" d="m 14.53906,8 0,-0.859375 -1.28906,0 0,0.859375 1.28906,0" id="path26175" fill="#c0c0c0"/>
   <path inkscape:connector-curvature="0" d="m 15.78906,8 0,-0.859375 -1.28906,0 L 14.5,8 15.78906,8" id="path26177" fill="#c0c0c0"/>
   <path inkscape:connector-curvature="0" d="m 17.03906,8 0,-0.859375 -1.28906,0 0,0.859375 1.28906,0" id="path26179" fill="#c0c0c0"/>
   <path inkscape:connector-curvature="0" d="m 18.28906,8 0,-0.859375 -1.28906,0 L 17,8 18.28906,8" id="path26181" fill="#c0c0c0"/>
   <path inkscape:connector-curvature="0" d="m 19.54687,8 0,-0.859375 -1.28906,0 0,0.859375 1.28906,0" id="path26183" fill="#c0c0c0"/>
   <path inkscape:connector-curvature="0" d="m 20.79687,8 0,-0.859375 -1.28906,0 0,0.859375 1.28906,0" id="path26185" fill="#c0c0c0"/>
   <path inkscape:connector-curvature="0" d="m 13.28906,10 0,-0.859375 -1.28906,0 L 12,10 l 1.28906,0" id="path26203" fill="#c0c0c0"/>
   <path inkscape:connector-curvature="0" d="m 14.53906,10 0,-0.859375 -1.28906,0 0,0.859375 1.28906,0" id="path26205" fill="#c0c0c0"/>
   <path inkscape:connector-curvature="0" d="m 15.78906,10 0,-0.859375 -1.28906,0 0,0.859375 1.28906,0" id="path26207" fill="#c0c0c0"/>
   <path inkscape:connector-curvature="0" d="m 19.54687,10 0,-0.859375 -1.28906,0 0,0.859375 1.28906,0" id="path26209" fill="#c0c0c0"/>
   <path inkscape:connector-curvature="0" d="m 20.79687,10 0,-0.859375 -1.28906,0 0,0.859375 1.28906,0" id="path26211" fill="#c0c0c0"/>
   <path inkscape:connector-curvature="0" d="m 22.04687,10 0,-0.859375 -1.28906,0 0,0.859375 1.28906,0" id="path26213" fill="#c0c0c0"/>
   <path inkscape:connector-curvature="0" d="m 23.29687,10 0,-0.859375 -1.28906,0 0,0.859375 1.28906,0" id="path26215" fill="#c0c0c0"/>
   <path inkscape:connector-curvature="0" d="m 13.28906,12 0,-0.859375 -1.28906,0 L 12,12 l 1.28906,0" id="path26219" fill="#c0c0c0"/>
   <path inkscape:connector-curvature="0" d="m 14.53906,12 0,-0.859375 -1.28906,0 0,0.859375 1.28906,0" id="path26221" fill="#c0c0c0"/>
   <path inkscape:connector-curvature="0" d="m 15.78906,12 0,-0.859375 -1.28906,0 0,0.859375 1.28906,0" id="path26223" fill="#c0c0c0"/>
   <path inkscape:connector-curvature="0" d="m 17.03906,12 0,-0.859375 -1.28906,0 0,0.859375 1.28906,0" id="path26225" fill="#c0c0c0"/>
   <path inkscape:connector-curvature="0" d="m 18.28906,12 0,-0.859375 -1.28906,0 L 17,12 l 1.28906,0" id="path26227" fill="#c0c0c0"/>
   <path inkscape:connector-curvature="0" d="m 19.53906,12 0,-0.859375 -1.28906,0 0,0.859375 1.28906,0" id="path26229" fill="#c0c0c0"/>
   <path inkscape:connector-curvature="0" d="m 20.78906,12 0,-0.859375 -1.28906,0 0,0.859375 1.28906,0" id="path26231" fill="#c0c0c0"/>
   <path inkscape:connector-curvature="0" d="m 22.03906,12 0,-0.859375 -1.28906,0 0,0.859375 1.28906,0" id="path26233" fill="#c0c0c0"/>
   <path inkscape:connector-curvature="0" d="m 23.28906,12 0,-0.859375 -1.28906,0 L 22,12 l 1.28906,0" id="path26235" fill="#c0c0c0"/>
   <path inkscape:connector-curvature="0" d="m 24.53906,12 0,-0.859375 -1.28906,0 0,0.859375 1.28906,0" id="path26237" fill="#c0c0c0"/>
   <path inkscape:connector-curvature="0" d="m 25.78906,12 0,-0.859375 -1.28906,0 0,0.859375 1.28906,0" id="path26239" fill="#c0c0c0"/>
   <path inkscape:connector-curvature="0" d="m 13.28906,16 0,-0.859375 -1.28906,0 L 12,16 l 1.28906,0" id="path26271" fill="#c0c0c0"/>
   <path inkscape:connector-curvature="0" d="m 14.53906,16 0,-0.859375 -1.28906,0 0,0.859375 1.28906,0" id="path26273" fill="#c0c0c0"/>
   <path inkscape:connector-curvature="0" d="m 15.78906,16 0,-0.859375 -1.28906,0 0,0.859375 1.28906,0" id="path26275" fill="#c0c0c0"/>
   <path inkscape:connector-curvature="0" d="m 19.54687,16 0,-0.859375 -1.28906,0 0,0.859375 1.28906,0" id="path26277" fill="#c0c0c0"/>
   <path inkscape:connector-curvature="0" d="m 20.79687,16 0,-0.859375 -1.28906,0 0,0.859375 1.28906,0" id="path26279" fill="#c0c0c0"/>
   <path inkscape:connector-curvature="0" d="m 22.04687,16 0,-0.859375 -1.28906,0 0,0.859375 1.28906,0" id="path26281" fill="#c0c0c0"/>
   <path inkscape:connector-curvature="0" d="m 23.29687,16 0,-0.859375 -1.28906,0 0,0.859375 1.28906,0" id="path26283" fill="#c0c0c0"/>
   <path inkscape:connector-curvature="0" d="m 24.54687,16 0,-0.859375 -1.28906,0 0,0.859375 1.28906,0" id="path26285" fill="#c0c0c0"/>
   <path inkscape:connector-curvature="0" d="m 25.79687,16 0,-0.859375 -1.28906,0 0,0.859375 1.28906,0" id="path26287" fill="#c0c0c0"/>
   <path inkscape:connector-curvature="0" d="m 27.04687,16 0,-0.859375 -1.28906,0 0,0.859375 1.28906,0" id="path26289" fill="#c0c0c0"/>
   <path inkscape:connector-curvature="0" d="m 28.29687,16 0,-0.859375 -1.28906,0 0,0.859375 1.28906,0" id="path26291" fill="#c0c0c0"/>
   <path inkscape:connector-curvature="0" d="m 13.28906,18 0,-0.859375 -1.28906,0 L 12,18 l 1.28906,0" id="path26303" fill="#c0c0c0"/>
   <path inkscape:connector-curvature="0" d="m 14.53906,18 0,-0.859375 -1.28906,0 0,0.859375 1.28906,0" id="path26305" fill="#c0c0c0"/>
   <path inkscape:connector-curvature="0" d="m 15.78906,18 0,-0.859375 -1.28906,0 0,0.859375 1.28906,0" id="path26307" fill="#c0c0c0"/>
   <path inkscape:connector-curvature="0" d="m 20.79687,18 0,-0.859375 -1.28906,0 0,0.859375 1.28906,0" id="path26311" fill="#c0c0c0"/>
   <path inkscape:connector-curvature="0" d="m 22.04687,18 0,-0.859375 -1.28906,0 0,0.859375 1.28906,0" id="path26313" fill="#c0c0c0"/>
   <path inkscape:connector-curvature="0" d="m 23.29687,18 0,-0.859375 -1.28906,0 0,0.859375 1.28906,0" id="path26315" fill="#c0c0c0"/>
   <path inkscape:connector-curvature="0" d="m 24.524362,18 0,-0.859375 -1.28907,0 0,0.859375 1.28907,0" id="path26317" fill="#c0c0c0"/>
   <path inkscape:connector-curvature="0" d="m 25.774362,18 0,-0.859375 -1.28907,0 0,0.859375 1.28907,0" id="path26319" fill="#c0c0c0"/>
   <path inkscape:connector-curvature="0" d="m 29.55469,18 0,-0.859375 -1.28907,0 0,0.859375 1.28907,0" id="path26321" fill="#c0c0c0"/>
   <path inkscape:connector-curvature="0" d="m 30.80469,18 0,-0.859375 -1.28907,0 0,0.859375 1.28907,0" id="path26323" fill="#c0c0c0"/>
   <path inkscape:connector-curvature="0" d="m 32.05469,18 0,-0.859375 -1.28907,0 0,0.859375 1.28907,0" id="path26325" fill="#c0c0c0"/>
   <path inkscape:connector-curvature="0" d="m 34.55469,18 0,-0.859375 -1.28907,0 0,0.859375 1.28907,0" id="path26329" fill="#c0c0c0"/>
   <path inkscape:connector-curvature="0" d="m 35.80469,18 0,-0.859375 -1.28907,0 0,0.859375 1.28907,0" id="path26331" fill="#c0c0c0"/>
   <path inkscape:connector-curvature="0" d="m 13.28906,22 0,-0.859375 -1.28906,0 L 12,22 l 1.28906,0" id="path26365" fill="#c0c0c0"/>
   <path inkscape:connector-curvature="0" d="m 14.53906,22 0,-0.859375 -1.28906,0 0,0.859375 1.28906,0" id="path26367" fill="#c0c0c0"/>
   <path inkscape:connector-curvature="0" d="m 15.78906,22 0,-0.859375 -1.28906,0 0,0.859375 1.28906,0" id="path26369" fill="#c0c0c0"/>
   <path inkscape:connector-curvature="0" d="m 19.54687,22 0,-0.859375 -1.28906,0 0,0.859375 1.28906,0" id="path26371" fill="#c0c0c0"/>
   <path inkscape:connector-curvature="0" d="m 20.79687,22 0,-0.859375 -1.28906,0 0,0.859375 1.28906,0" id="path26373" fill="#c0c0c0"/>
   <path inkscape:connector-curvature="0" d="m 18.29687,22 0,-0.859375 -1.28906,0 0,0.859375 1.28906,0" id="path26383" fill="#c0c0c0"/>
   <path inkscape:connector-curvature="0" d="m 13.28906,24 0,-0.859375 -1.28906,0 L 12,24 l 1.28906,0" id="path26393" fill="#c0c0c0"/>
   <path inkscape:connector-curvature="0" d="m 14.53906,24 0,-0.859375 -1.28906,0 0,0.859375 1.28906,0" id="path26395" fill="#c0c0c0"/>
   <path inkscape:connector-curvature="0" d="m 15.78906,24 0,-0.859375 -1.28906,0 0,0.859375 1.28906,0" id="path26397" fill="#c0c0c0"/>
   <path inkscape:connector-curvature="0" d="m 22.04687,24 0,-0.859375 -1.28906,0 0,0.859375 1.28906,0" id="path26403" fill="#c0c0c0"/>
   <path inkscape:connector-curvature="0" d="m 20.79687,24 0,-0.859375 -1.28906,0 0,0.859375 1.28906,0" id="path26405" fill="#c0c0c0"/>
   <path inkscape:connector-curvature="0" d="m 13.28906,26 0,-0.859375 -1.28906,0 L 12,26 l 1.28906,0" id="path26421" fill="#c0c0c0"/>
   <path inkscape:connector-curvature="0" d="m 13.28906,28 0,-0.859375 -1.28906,0 L 12,28 l 1.28906,0" id="path26443" fill="#c0c0c0"/>
   <path inkscape:connector-curvature="0" d="m 14.53906,28 0,-0.859375 -1.28906,0 0,0.859375 1.28906,0" id="path26445" fill="#c0c0c0"/>
   <path inkscape:connector-curvature="0" d="m 17.03906,28 0,-0.859375 -1.28906,0 0,0.859375 1.28906,0" id="path26449" fill="#c0c0c0"/>
   <path inkscape:connector-curvature="0" d="m 18.28906,28 0,-0.859375 -1.28906,0 L 17,28 l 1.28906,0" id="path26451" fill="#c0c0c0"/>
   <path inkscape:connector-curvature="0" d="m 19.53906,28 0,-0.859375 -1.28906,0 0,0.859375 1.28906,0" id="path26453" fill="#c0c0c0"/>
   <path inkscape:connector-curvature="0" d="m 22.03906,28 0,-0.859375 -1.28906,0 0,0.859375 1.28906,0" id="path26457" fill="#c0c0c0"/>
   <path inkscape:connector-curvature="0" d="m 23.28906,28 0,-0.859375 -1.28906,0 L 22,28 l 1.28906,0" id="path26459" fill="#c0c0c0"/>
   <path inkscape:connector-curvature="0" d="m 24.53906,28 0,-0.859375 -1.28906,0 0,0.859375 1.28906,0" id="path26461" fill="#c0c0c0"/>
   <path inkscape:connector-curvature="0" d="m 25.78906,28 0,-0.859375 -1.28906,0 0,0.859375 1.28906,0" id="path26463" fill="#c0c0c0"/>
   <path inkscape:connector-curvature="0" d="m 29.54687,28 0,-0.859375 -1.28906,0 0,0.859375 1.28906,0" id="path26465" fill="#c0c0c0"/>
   <path inkscape:connector-curvature="0" d="m 30.79687,28 0,-0.859375 -1.28906,0 0,0.859375 1.28906,0" id="path26467" fill="#c0c0c0"/>
   <path inkscape:connector-curvature="0" d="m 13.28906,30 0,-0.859375 -1.28906,0 L 12,30 l 1.28906,0" id="path26469" fill="#c0c0c0"/>
   <path inkscape:connector-curvature="0" d="m 14.53906,30 0,-0.859375 -1.28906,0 0,0.859375 1.28906,0" id="path26471" fill="#c0c0c0"/>
   <path inkscape:connector-curvature="0" d="m 15.78906,30 0,-0.859375 -1.28906,0 0,0.859375 1.28906,0" id="path26473" fill="#c0c0c0"/>
   <path inkscape:connector-curvature="0" d="m 18.28906,30 0,-0.859375 -1.28906,0 L 17,30 l 1.28906,0" id="path26477" fill="#c0c0c0"/>
   <path inkscape:connector-curvature="0" d="m 22.04687,30 0,-0.859375 -1.28906,0 0,0.859375 1.28906,0" id="path26479" fill="#c0c0c0"/>
   <path inkscape:connector-curvature="0" d="m 23.29687,30 0,-0.859375 -1.28906,0 0,0.859375 1.28906,0" id="path26481" fill="#c0c0c0"/>
   <path inkscape:connector-curvature="0" d="m 24.54687,30 0,-0.859375 -1.28906,0 0,0.859375 1.28906,0" id="path26483" fill="#c0c0c0"/>
   <path inkscape:connector-curvature="0" d="m 25.79687,30 0,-0.859375 -1.28906,0 0,0.859375 1.28906,0" id="path26485" fill="#c0c0c0"/>
   <path inkscape:connector-curvature="0" d="m 27.04687,30 0,-0.859375 -1.28906,0 0,0.859375 1.28906,0" id="path26487" fill="#c0c0c0"/>
   <path inkscape:connector-curvature="0" d="m 28.29687,30 0,-0.859375 -1.28906,0 0,0.859375 1.28906,0" id="path26489" fill="#c0c0c0"/>
   <path inkscape:connector-curvature="0" d="m 29.54687,30 0,-0.859375 -1.28906,0 0,0.859375 1.28906,0" id="path26491" fill="#c0c0c0"/>
   <path inkscape:connector-curvature="0" d="m 30.79687,30 0,-0.859375 -1.28906,0 0,0.859375 1.28906,0" id="path26493" fill="#c0c0c0"/>
   <path inkscape:connector-curvature="0" d="m 32.04687,30 0,-0.859375 -1.28906,0 0,0.859375 1.28906,0" id="path26495" fill="#c0c0c0"/>
   <path inkscape:connector-curvature="0" d="m 13.28906,32 0,-0.859375 -1.28906,0 L 12,32 l 1.28906,0" id="path26501" fill="#c0c0c0"/>
   <path inkscape:connector-curvature="0" d="m 14.53906,32 0,-0.859375 -1.28906,0 0,0.859375 1.28906,0" id="path26503" fill="#c0c0c0"/>
   <path inkscape:connector-curvature="0" d="m 15.037762,32 0,-0.859375 -1.28906,0 0,0.859375 1.28906,0" id="path26505" fill="#c0c0c0"/>
   <path inkscape:connector-curvature="0" d="m 18.28906,32 0,-0.859375 -1.28906,0 L 17,32 l 1.28906,0" id="path26509" fill="#c0c0c0"/>
   <path inkscape:connector-curvature="0" d="m 19.53906,32 0,-0.859375 -1.28906,0 0,0.859375 1.28906,0" id="path26511" fill="#c0c0c0"/>
   <path inkscape:connector-curvature="0" d="m 23.29687,32 0,-0.859375 -1.28906,0 0,0.859375 1.28906,0" id="path26513" fill="#c0c0c0"/>
   <path inkscape:connector-curvature="0" d="m 27.05469,32 0,-0.859375 -1.28907,0 0,0.859375 1.28907,0" id="path26515" fill="#c0c0c0"/>
   <path inkscape:connector-curvature="0" d="m 28.30469,32 0,-0.859375 -1.28907,0 0,0.859375 1.28907,0" id="path26517" fill="#c0c0c0"/>
   <path inkscape:connector-curvature="0" d="m 29.55469,32 0,-0.859375 -1.28907,0 0,0.859375 1.28907,0" id="path26519" fill="#c0c0c0"/>
   <path inkscape:connector-curvature="0" d="m 30.80469,32 0,-0.859375 -1.28907,0 0,0.859375 1.28907,0" id="path26521" fill="#c0c0c0"/>
   <path inkscape:connector-curvature="0" d="m 13.28906,34 0,-0.859375 -1.28906,0 L 12,34 l 1.28906,0" id="path26527" fill="#c0c0c0"/>
   <path inkscape:connector-curvature="0" d="m 14.53906,34 0,-0.859375 -1.28906,0 0,0.859375 1.28906,0" id="path26529" fill="#c0c0c0"/>
   <path inkscape:connector-curvature="0" d="m 17.03906,34 0,-0.859375 -1.28906,0 0,0.859375 1.28906,0" id="path26533" fill="#c0c0c0"/>
   <path inkscape:connector-curvature="0" d="m 18.28906,34 0,-0.859375 -1.28906,0 L 17,34 l 1.28906,0" id="path26535" fill="#c0c0c0"/>
   <path inkscape:connector-curvature="0" d="m 19.53906,34 0,-0.859375 -1.28906,0 0,0.859375 1.28906,0" id="path26537" fill="#c0c0c0"/>
   <path inkscape:connector-curvature="0" d="m 22.03906,34 0,-0.859375 -1.28906,0 0,0.859375 1.28906,0" id="path26541" fill="#c0c0c0"/>
   <path inkscape:connector-curvature="0" d="m 25.79687,34 0,-0.859375 -1.28906,0 0,0.859375 1.28906,0" id="path26543" fill="#c0c0c0"/>
   <path inkscape:connector-curvature="0" d="m 27.04687,34 0,-0.859375 -1.28906,0 0,0.859375 1.28906,0" id="path26545" fill="#c0c0c0"/>
   <path inkscape:connector-curvature="0" d="m 28.29687,34 0,-0.859375 -1.28906,0 0,0.859375 1.28906,0" id="path26547" fill="#c0c0c0"/>
   <path inkscape:connector-curvature="0" d="m 29.54687,34 0,-0.859375 -1.28906,0 0,0.859375 1.28906,0" id="path26549" fill="#c0c0c0"/>
   <path inkscape:connector-curvature="0" d="m 32.04687,34 0,-0.859375 -1.28906,0 0,0.859375 1.28906,0" id="path26553" fill="#c0c0c0"/>
   <path inkscape:connector-curvature="0" d="m 33.29687,34 0,-0.859375 -1.28906,0 0,0.859375 1.28906,0" id="path26555" fill="#c0c0c0"/>
   <path id="path3513" d="m 19.54687,18 0,-0.859375 -1.28906,0 0,0.859375 1.28906,0" inkscape:connector-curvature="0" fill="#c0c0c0"/>
   <path id="path3515" d="m 19.54687,24 0,-0.859375 -1.28906,0 0,0.859375 1.28906,0" inkscape:connector-curvature="0" fill="#c0c0c0"/>
   <path inkscape:connector-curvature="0" d="m 18.29687,24 0,-0.859375 -1.28906,0 0,0.859375 1.28906,0" id="path3517" fill="#c0c0c0"/>
   <path id="path4287" d="m 22.04687,32 0,-0.85938 -1.28906,0 0,0.85938 1.28906,0" inkscape:connector-curvature="0" fill="#c0c0c0"/>
   <path id="path4289" d="m 25.817258,32 0,-0.859375 -1.28907,0 0,0.859375 1.28907,0" inkscape:connector-curvature="0" fill="#c0c0c0"/>
   <path id="path4291" d="m 24.559438,34 0,-0.859375 -1.28906,0 0,0.859375 1.28906,0" inkscape:connector-curvature="0" fill="#c0c0c0"/>
   <path id="path4323" d="m 13.28906,38 0,-0.859375 -1.28906,0 L 12,38 l 1.28906,0" inkscape:connector-curvature="0" fill="#c0c0c0"/>
   <path id="path4325" d="m 14.53906,38 0,-0.859375 -1.28906,0 0,0.859375 1.28906,0" inkscape:connector-curvature="0" fill="#c0c0c0"/>
   <path id="path4327" d="m 15.037762,38 0,-0.859375 -1.28906,0 0,0.859375 1.28906,0" inkscape:connector-curvature="0" fill="#c0c0c0"/>
   <path id="path4329" d="m 32.01563,38 0,-0.859375 1.28906,0 0,0.859375 -1.28906,0" inkscape:connector-curvature="0" fill="#c0c0c0"/>
   <path id="path4331" d="m 30.76563,38 0,-0.859375 1.28906,0 0,0.859375 -1.28906,0" inkscape:connector-curvature="0" fill="#c0c0c0"/>
   <path id="path4333" d="m 27.00782,38 0,-0.859375 1.28906,0 0,0.859375 -1.28906,0" inkscape:connector-curvature="0" fill="#c0c0c0"/>
   <path id="path4335" d="m 23.25,38 0,-0.859375 1.28907,0 0,0.859375 -1.28907,0" inkscape:connector-curvature="0" fill="#c0c0c0"/>
   <path id="path4337" d="m 22,38 0,-0.859375 1.28907,0 0,0.859375 L 22,38" inkscape:connector-curvature="0" fill="#c0c0c0"/>
   <path id="path4339" d="m 20.75,38 0,-0.859375 1.28907,0 0,0.859375 -1.28907,0" inkscape:connector-curvature="0" fill="#c0c0c0"/>
   <path id="path4341" d="m 19.5,38 0,-0.859375 1.28907,0 0,0.859375 L 19.5,38" inkscape:connector-curvature="0" fill="#c0c0c0"/>
   <path id="path4343" d="m 18.25,38 0,-0.859375 1.28907,0 0,0.859375 -1.28907,0" inkscape:connector-curvature="0" fill="#c0c0c0"/>
   <path id="path4345" d="m 17,38 0,-0.859375 1.28907,0 0,0.859375 L 17,38" inkscape:connector-curvature="0" fill="#c0c0c0"/>
   <path id="path4347" d="m 13.28906,40 0,-0.859375 -1.28906,0 L 12,40 l 1.28906,0" inkscape:connector-curvature="0" fill="#c0c0c0"/>
   <path id="path4349" d="m 14.53906,40 0,-0.859375 -1.28906,0 0,0.859375 1.28906,0" inkscape:connector-curvature="0" fill="#c0c0c0"/>
   <path id="path4351" d="m 17.03906,40 0,-0.859375 -1.28906,0 0,0.859375 1.28906,0" inkscape:connector-curvature="0" fill="#c0c0c0"/>
   <path id="path4353" d="m 18.28906,40 0,-0.859375 -1.28906,0 L 17,40 l 1.28906,0" inkscape:connector-curvature="0" fill="#c0c0c0"/>
   <path id="path4355" d="m 19.53906,40 0,-0.859375 -1.28906,0 0,0.859375 1.28906,0" inkscape:connector-curvature="0" fill="#c0c0c0"/>
   <path id="path4357" d="m 22.03906,40 0,-0.859375 -1.28906,0 0,0.859375 1.28906,0" inkscape:connector-curvature="0" fill="#c0c0c0"/>
   <path id="path4359" d="m 24.283004,40 0,-0.859375 -1.28906,0 0,0.859375 1.28906,0" inkscape:connector-curvature="0" fill="#c0c0c0"/>
   <path id="path4361" d="m 27.04687,40 0,-0.859375 -1.28906,0 0,0.859375 1.28906,0" inkscape:connector-curvature="0" fill="#c0c0c0"/>
   <path id="path4363" d="m 28.29687,40 0,-0.859375 -1.28906,0 0,0.859375 1.28906,0" inkscape:connector-curvature="0" fill="#c0c0c0"/>
   <path id="path4365" d="m 29.54687,40 0,-0.859375 -1.28906,0 0,0.859375 1.28906,0" inkscape:connector-curvature="0" fill="#c0c0c0"/>
   <path id="path4367" d="m 30.79687,40 0,-0.859375 -1.28906,0 0,0.859375 1.28906,0" inkscape:connector-curvature="0" fill="#c0c0c0"/>
   <path id="path4369" d="m 32.04687,40 0,-0.859375 -1.28906,0 0,0.859375 1.28906,0" inkscape:connector-curvature="0" fill="#c0c0c0"/>
   <path inkscape:connector-curvature="0" d="m 28.25782,38 0,-0.85938 1.28906,0 0,0.85938 -1.28906,0" id="path4375" fill="#c0c0c0"/>
   <path inkscape:connector-curvature="0" d="m 24.487432,38 0,-0.859375 1.28907,0 0,0.859375 -1.28907,0" id="path4377" fill="#c0c0c0"/>
   <path inkscape:connector-curvature="0" d="m 23.266542,40 0,-0.859375 -1.28906,0 0,0.859375 1.28906,0" id="path4379" fill="#c0c0c0"/>
   <path id="path4400" d="m 18.265244,10 0,-0.859375 -1.28906,0 0,0.859375 1.28906,0" inkscape:connector-curvature="0" fill="#c0c0c0"/>
  </g>
  <path d="m 21.71835,16.75 -2.21875,10.75 2.625,0 1.25,-5.96875 2.0625,0 c 0.9675,0 0.98205,0.4005 0.84375,1.0625 L 25.3121,27.5 l 2.75,0 0.96875,-5.4375 c 0.2765,-1.324 -0.5385,-2.39885 -2.75,-2.53125 l -2.5,0 0.5625,-2.78125 -2.625,0 z m -9.8125,2.78125 -2.21875,10.75 2.625,0 0.5625,-2.78125 2.5,0 c 2.3496,0.132401 4.96875,-1.72875 4.96875,-4.90625 0,-1.853601 -1.101,-2.9301 -3.3125,-3.0625 l -5.125,0 z m 18.15625,0 -2.21875,10.75 2.625,0 0.5625,-2.78125 2.5,0 c 2.3497,0.132401 4.96875,-1.72875 4.96875,-4.90625 0,-1.853601 -1.1011,-2.9301 -3.3125,-3.0625 l -5.125,0 z m -15.9375,2 1.78125,0 c 0.9675,0 1.65625,0.3931 1.65625,1.1875 -0.1382,2.2507 -1.22475,2.64885 -2.46875,2.78125 l -1.65625,0 0.6875,-3.96875 z m 18.15625,0 1.78125,0 c 0.9675,0 1.6875,0.3931 1.6875,1.1875 -0.1382,2.2507 -1.2561,2.64885 -2.5,2.78125 l -1.65625,0 0.6875,-3.96875 z" id="path12530" inkscape:connector-curvature="0" fill="#8596cc" fill-rule="evenodd"/>
  <g transform="translate(26.0973,5.0163095)" id="g4208" opacity="0.61" fill="none" stroke="#2c3d72">
   <path inkscape:connector-curvature="0" d="m -16.4023,25.252416 2.2115,-10.7242 5.1139,0 c 2.2115,0.1324 3.3172,1.1916 3.3172,3.0452 0,3.1775 -2.6261,5.0311 -4.9757,4.8987 l -2.4879,0 -0.5529,2.7803 -2.6261,0 z m 3.7318,-4.7663 0.6911,-3.9719 1.7968,0 c 0.9675,0 1.6586,0.3972 1.6586,1.1916 -0.1382,2.2507 -1.2439,2.6479 -2.4879,2.7803 l -1.6586,0 z" id="path4210"/>
   <path inkscape:connector-curvature="0" id="path4212" d="m -6.589,22.472116 2.2115,-10.72422 2.626,0 -0.5528,2.78032 2.4878,0 c 2.2115,0.1324 3.0408,1.1916 2.7643,2.5156 l -0.9675,5.4283 -2.7643,0 0.9675,-4.8987 c 0.1383,-0.662 0.1383,-1.0592 -0.8292,-1.0592 l -2.0733,0 -1.2439,5.9579 -2.6261,0 z"/>
   <path inkscape:connector-curvature="0" id="path4214" d="m 1.7597,25.252416 2.2114,-10.7242 5.114,0 c 2.2114,0.1324 3.3172,1.1916 3.3172,3.0452 0,3.1775 -2.6261,5.0311 -4.9758,4.8987 l -2.4878,0 -0.5529,2.7803 -2.6261,0 z m 3.7318,-4.7663 0.6911,-3.9719 1.7968,0 c 0.9675,0 1.6586,0.3972 1.6586,1.1916 -0.1382,2.2507 -1.244,2.6479 -2.4879,2.7803 l -1.6586,0 z"/>
  </g>
 </g>
</svg>
