<?xml version="1.0" encoding="UTF-8" standalone="no"?>
<svg
   xmlns:dc="http://purl.org/dc/elements/1.1/"
   xmlns:cc="http://creativecommons.org/ns#"
   xmlns:rdf="http://www.w3.org/1999/02/22-rdf-syntax-ns#"
   xmlns:svg="http://www.w3.org/2000/svg"
   xmlns="http://www.w3.org/2000/svg"
   xmlns:xlink="http://www.w3.org/1999/xlink"
   id="svg3759"
   height="48"
   width="48"
   version="1.1">
  <metadata
     id="metadata37">
    <rdf:RDF>
      <cc:Work
         rdf:about="">
        <dc:format>image/svg+xml</dc:format>
        <dc:type
           rdf:resource="http://purl.org/dc/dcmitype/StillImage" />
        <dc:title />
      </cc:Work>
    </rdf:RDF>
  </metadata>
  <defs
     id="defs3761">
    <linearGradient
       id="linearGradient3914">
      <stop
         id="stop3916"
         offset="0"
         style="stop-color:#ffffff;stop-opacity:1;" />
      <stop
         id="stop3918"
         offset="1"
         style="stop-color:#ffffff;stop-opacity:0;" />
    </linearGradient>
    <linearGradient
       id="linearGradient3960">
      <stop
         id="stop3962"
         offset="0"
         style="stop-color:#000000;stop-opacity:0;" />
      <stop
         style="stop-color:#000000;stop-opacity:1;"
         offset="0.5"
         id="stop3970" />
      <stop
         id="stop3964"
         offset="1"
         style="stop-color:#000000;stop-opacity:0;" />
    </linearGradient>
    <linearGradient
       id="linearGradient3952">
      <stop
         id="stop3954"
         offset="0"
         style="stop-color:#000000;stop-opacity:1;" />
      <stop
         id="stop3956"
         offset="1"
         style="stop-color:#000000;stop-opacity:0;" />
    </linearGradient>
    <linearGradient
       id="linearGradient3944">
      <stop
         id="stop3946"
         offset="0"
         style="stop-color:#000000;stop-opacity:1;" />
      <stop
         id="stop3948"
         offset="1"
         style="stop-color:#000000;stop-opacity:0;" />
    </linearGradient>
    <linearGradient
       id="linearGradient3988-5">
      <stop
         id="stop3990-5"
         offset="0"
         style="stop-color:#e8e8e8;stop-opacity:1;" />
      <stop
         id="stop3992-0"
         offset="1"
         style="stop-color:#f0f0f0;stop-opacity:1;" />
    </linearGradient>
    <linearGradient
       y2="40.000172"
       x2="144.00006"
       y1="280.00018"
       x1="144.00006"
       gradientTransform="matrix(-0.175,0,0,0.175,49.20002,-5.0000326)"
       gradientUnits="userSpaceOnUse"
       id="linearGradient3142"
       xlink:href="#linearGradient3988-5" />
    <linearGradient
       gradientUnits="userSpaceOnUse"
       y2="48"
       x2="24"
       y1="0"
       x1="24"
       id="linearGradient3920"
       xlink:href="#linearGradient3914" />
    <radialGradient
       r="2"
       fy="43.5"
       fx="9"
       cy="43.5"
       cx="9"
       gradientTransform="matrix(1,0,0,0.75,-1.0000003,10.875)"
       gradientUnits="userSpaceOnUse"
       id="radialGradient3925"
       xlink:href="#linearGradient3944" />
    <radialGradient
       r="2"
       fy="43.5"
       fx="40"
       cy="43.5"
       cx="40"
       gradientTransform="matrix(1,0,0,0.75,-3e-7,10.875)"
       gradientUnits="userSpaceOnUse"
       id="radialGradient3928"
       xlink:href="#linearGradient3952" />
    <linearGradient
       gradientTransform="matrix(1.0305144,0,0,1,-1.2476025,0)"
       y2="42"
       x2="25"
       y1="45"
       x1="25"
       gradientUnits="userSpaceOnUse"
       id="linearGradient3931"
       xlink:href="#linearGradient3960" />
    <radialGradient
       r="2"
       fy="43.5"
       fx="9"
       cy="43.5"
       cx="9"
       gradientTransform="matrix(1.0571429,0,0,1.25,-2.4000003,-10.875)"
       gradientUnits="userSpaceOnUse"
       id="radialGradient3934"
       xlink:href="#linearGradient3944" />
    <radialGradient
       r="2"
       fy="43.5"
       fx="40"
       cy="43.5"
       cx="40"
       gradientTransform="matrix(1.0571429,0,0,1.25,-1.4000003,-10.875)"
       gradientUnits="userSpaceOnUse"
       id="radialGradient3937"
       xlink:href="#linearGradient3952" />
    <linearGradient
       gradientTransform="matrix(1.0894009,0,0,1.6666667,-2.6903226,-29)"
       y2="42"
       x2="25"
       y1="45"
       x1="25"
       gradientUnits="userSpaceOnUse"
       id="linearGradient3940"
       xlink:href="#linearGradient3960" />
  </defs>
  <g
     style="display:inline"
     id="layer1">
    <g
       id="g3942">
      <rect
         y="41"
         x="7.1142859"
         height="5"
         width="33.771431"
         id="rect3985"
         style="opacity:0.12000002;fill:url(#linearGradient3940);fill-opacity:1;stroke:none" />
      <path
         id="path3987"
         d="m 40.885716,41.000001 0,5 0.528571,0 c 0.878486,0 1.585715,-1.115 1.585715,-2.5 0,-1.385 -0.707229,-2.5 -1.585715,-2.5 l -0.528571,0 z"
         style="opacity:0.12000002;fill:url(#radialGradient3937);fill-opacity:1;stroke:none" />
      <path
         id="path3989"
         d="M 6.4866072,41.000001 C 5.6630268,41.000001 5,42.045313 5,43.343751 l 0,0.3125 c 0,1.298439 0.6630268,2.34375 1.4866072,2.34375 l 0.6276786,0 0,-5 -0.6276786,0 z"
         style="opacity:0.12000002;fill:url(#radialGradient3934);fill-opacity:1;stroke:none" />
      <rect
         style="opacity:0.12000002;fill:url(#linearGradient3931);fill-opacity:1;stroke:none"
         id="rect3938"
         width="31.945946"
         height="3"
         x="8.0270262"
         y="42" />
      <path
         style="opacity:0.12000002;fill:url(#radialGradient3928);fill-opacity:1;stroke:none"
         d="m 40,42 0,3 0.5,0 C 41.331,45 42,44.331 42,43.5 42,42.669 41.331,42 40.5,42 L 40,42 z"
         id="rect3940" />
      <path
         style="opacity:0.12000002;fill:url(#radialGradient3925);fill-opacity:1;stroke:none"
         d="m 7.4062497,42 c -0.7790625,0 -1.40625,0.627187 -1.40625,1.40625 l 0,0.1875 c 0,0.779063 0.6271875,1.40625 1.40625,1.40625 l 0.59375,0 0,-3 -0.59375,0 z"
         id="rect3942" />
    </g>
    <path
       id="rect3886"
       d="M 40,3 8,3 C 7.446,3 7,3.446 7,4 l 0,39 c 0,0.554 0.446,1 1,1 l 32,0 c 0.554,0 1,-0.446 1,-1 L 41,4 C 41,3.446 40.554,3 40,3 z"
       style="opacity:0.35;color:#bebebe;fill:#000000;fill-opacity:1;fill-rule:nonzero;stroke:none;stroke-width:0;marker:none;visibility:visible;display:inline;overflow:visible;enable-background:accumulate" />
    <path
       id="rect3882"
       d="M 40,4 8,4 8,43 40,43 z"
       style="color:#bebebe;fill:url(#linearGradient3142);fill-opacity:1;fill-rule:nonzero;stroke:none;stroke-width:0;marker:none;visibility:visible;display:inline;overflow:visible;enable-background:accumulate" />
    <path
       style="opacity:0.4;fill:url(#linearGradient3920);fill-opacity:1;stroke:none"
       d="M 40,4 8,4 8,43 40,43 z M 39,5 39,42 9,42 9,5 z"
       id="path3893" />
    <rect
       y="4"
       x="8"
       height="1"
       width="32"
       id="rect3144"
       style="opacity:0.4;fill:#ffffff;fill-opacity:1;stroke:none" />
    <rect
       style="opacity:0.2;fill:#ffffff;fill-opacity:1;stroke:none"
       id="rect3922"
       width="32"
       height="1"
       x="8"
       y="42" />
  </g>
  <g
     style="display:inline"
     id="layer2">
    <text
       id="context"
       style="font-size:18px;font-style:normal;font-variant:normal;font-weight:normal;font-stretch:normal;fill:#000000;fill-opacity:1;stroke:none;display:none;enable-background:new;font-family:DejaVu Sans;-inkscape-font-specification:DejaVu Sans"
       x="-775.49316"
       xml:space="preserve"
       y="-182.75488"><tspan
         id="tspan3933"
         x="-775.49316"
         y="-182.75488"
         style="font-style:normal;font-variant:normal;font-weight:normal;font-stretch:normal;font-family:DejaVu Sans;-inkscape-font-specification:DejaVu Sans">apps</tspan></text>
    <text
       id="icon-name"
       style="font-size:18px;font-style:normal;font-variant:normal;font-weight:bold;font-stretch:normal;text-align:start;line-height:125%;writing-mode:lr-tb;text-anchor:start;fill:#000000;fill-opacity:1;stroke:none;display:none;enable-background:new;font-family:DejaVu Sans;-inkscape-font-specification:DejaVu Sans Bold"
       x="-668.01172"
       xml:space="preserve"
       y="-182.75488"><tspan
         id="tspan3937"
         x="-668.01172"
         y="-182.75488"
         style="font-size:18px;font-style:normal;font-variant:normal;font-weight:bold;font-stretch:normal;font-family:DejaVu Sans;-inkscape-font-specification:DejaVu Sans Bold">texstudio</tspan></text>
    <rect
       y="-62.5"
       x="-374.5"
       height="16"
       width="16"
       id="rect16x16"
       style="fill:#eeeeec;fill-opacity:1;fill-rule:nonzero;stroke:none;stroke-width:2;marker:none;visibility:visible;display:none;overflow:visible;enable-background:accumulate" />
    <rect
       y="-102.5"
       x="-374.5"
       height="24"
       width="24"
       id="rect24x24"
       style="fill:#d4d4d4;fill-opacity:1;fill-rule:nonzero;stroke:none;stroke-width:2;marker:none;visibility:visible;display:none;overflow:visible;enable-background:accumulate" />
    <rect
       y="-150.5"
       x="-374.5"
       height="32"
       width="32"
       id="rect32x32"
       style="fill:#eeeeec;fill-opacity:1;fill-rule:nonzero;stroke:none;stroke-width:2;marker:none;visibility:visible;display:none;overflow:visible;enable-background:accumulate" />
    <rect
       style="fill:#eeeeec;fill-opacity:1;fill-rule:nonzero;stroke:none;stroke-width:2;marker:none;visibility:visible;display:none;overflow:visible;enable-background:accumulate"
       id="rect22x22"
       width="22"
       height="22"
       x="-373.5"
       y="-101.5" />
    <rect
       style="fill:#eeeeec;fill-opacity:1;fill-rule:nonzero;stroke:none;stroke-width:2;marker:none;visibility:visible;display:none;overflow:visible;enable-background:accumulate"
       id="rect48x48"
       width="48"
       height="48"
       x="-502.5"
       y="17.5" />
    <rect
       y="-174.5"
       x="-774.5"
       height="256"
       width="256"
       id="rect256x256"
       style="fill:#eeeeec;fill-opacity:1;fill-rule:nonzero;stroke:none;stroke-width:2;marker:none;visibility:visible;display:none;overflow:visible;enable-background:accumulate" />
    <rect
       y="-62.5"
       x="-502.5"
       height="64"
       width="64"
       id="rect64x64"
       style="fill:#eeeeec;fill-opacity:1;fill-rule:nonzero;stroke:none;stroke-width:2;marker:none;visibility:visible;display:none;overflow:visible;enable-background:accumulate" />
    <rect
       y="-174.5"
       x="-502.5"
       height="96"
       width="96"
       id="rect96x96"
       style="fill:#eeeeec;fill-opacity:1;fill-rule:nonzero;stroke:none;stroke-width:2;marker:none;visibility:visible;display:none;overflow:visible;enable-background:accumulate" />
    <g
       transform="translate(-80,-2)"
       id="g5011">
      <path
         style="opacity:0.4;color:#000000;fill:#ffffff;fill-opacity:1;fill-rule:nonzero;stroke:none;stroke-width:1;marker:none;visibility:visible;display:inline;overflow:visible;enable-background:accumulate"
         d="M 112,14.75 107.75,19 112,23.25 116.25,19 112,14.75 z M 94,17 l 0,6 6,0 0,-6 -6,0 z m 7,0 0,6 6,0 0,-6 -6,0 z m -7,7 0,6 6,0 0,-6 -6,0 z m 7,0 0,6 6,0 0,-6 -6,0 z m 7,0 0,6 6,0 0,-6 -6,0 z m -14,7 0,6 6,0 0,-6 -6,0 z m 7,0 0,6 6,0 0,-6 -6,0 z m 7,0 0,6 6,0 0,-6 -6,0 z"
         id="rect4926" />
      <path
         style="color:#000000;fill:#cccccc;fill-opacity:1;fill-rule:nonzero;stroke:none;stroke-width:1;marker:none;visibility:visible;display:inline;overflow:visible;enable-background:accumulate"
         d="M 112,13.75 107.75,18 112,22.25 116.25,18 112,13.75 z M 94,16 l 0,6 6,0 0,-6 -6,0 z m 7,0 0,6 6,0 0,-6 -6,0 z m -7,7 0,6 6,0 0,-6 -6,0 z m 7,0 0,6 6,0 0,-6 -6,0 z m 7,0 0,6 6,0 0,-6 -6,0 z m -14,7 0,6 6,0 0,-6 -6,0 z m 7,0 0,6 6,0 0,-6 -6,0 z m 7,0 0,6 6,0 0,-6 -6,0 z"
         id="rect4680" />
      <path
         style="opacity:0.1;color:#000000;fill:#000000;fill-opacity:1;fill-rule:nonzero;stroke:none;stroke-width:1;marker:none;visibility:visible;display:inline;overflow:visible;enable-background:accumulate"
         d="m 112,13.75 -4.25,4.25 0.5,0.5 3.75,-3.75 3.75,3.75 0.5,-0.5 L 112,13.75 z M 94,16 l 0,1 6,0 0,-1 -6,0 z m 7,0 0,1 6,0 0,-1 -6,0 z m -7,7 0,1 6,0 0,-1 -6,0 z m 7,0 0,1 6,0 0,-1 -6,0 z m 7,0 0,1 6,0 0,-1 -1.75,0 L 112,23.25 111.75,23 108,23 z m -14,7 0,1 6,0 0,-1 -6,0 z m 7,0 0,1 6,0 0,-1 -6,0 z m 7,0 0,1 6,0 0,-1 -6,0 z"
         id="path5004" />
    </g>
  </g>
</svg>
