<?xml version="1.0" encoding="UTF-8" standalone="no"?>
<svg xmlns="http://www.w3.org/2000/svg" xmlns:xlink="http://www.w3.org/1999/xlink" xmlns:sodipodi="http://sodipodi.sourceforge.net/DTD/sodipodi-0.dtd" xmlns:inkscape="http://www.inkscape.org/namespaces/inkscape" version="1.1" width="48" height="48">
 <metadata id="metadata37"/>
 <defs id="defs3761">
  <linearGradient id="linearGradient4780">
   <stop id="stop4782"/>
   <stop offset="1" id="stop4784" stop-opacity="0.498"/>
  </linearGradient>
  <linearGradient id="linearGradient3960">
   <stop id="stop3962" stop-opacity="0"/>
   <stop id="stop3970" offset="0.5"/>
   <stop offset="1" id="stop3964" stop-opacity="0"/>
  </linearGradient>
  <linearGradient inkscape:collect="always" id="linearGradient3952">
   <stop id="stop3954"/>
   <stop offset="1" id="stop3956" stop-opacity="0"/>
  </linearGradient>
  <linearGradient id="linearGradient4520">
   <stop id="stop4522" stop-color="#571746"/>
   <stop offset="0.362" id="stop4524" stop-color="#8a2c48"/>
   <stop id="stop4526" offset="1" stop-color="#af5c25"/>
  </linearGradient>
  <linearGradient id="linearGradient3810">
   <stop id="stop3812" stop-color="#4cc7e0"/>
   <stop offset="1" id="stop3814" stop-color="#2061be"/>
  </linearGradient>
  <linearGradient id="linearGradient4873">
   <stop id="stop4875" stop-color="#ffffff"/>
   <stop id="stop4877" offset="1" stop-color="#ffffff" stop-opacity="0"/>
  </linearGradient>
  <linearGradient inkscape:collect="always" xlink:href="#linearGradient4873" id="linearGradient3017" gradientUnits="userSpaceOnUse" gradientTransform="matrix(2.1153734,0,0,2.1153252,-107.57708,31.426557)" y1="-12.489" x2="0" y2="-1.462"/>
  <linearGradient inkscape:collect="always" xlink:href="#linearGradient3810" id="linearGradient3816" x1="4.5" x2="43.5" gradientUnits="userSpaceOnUse" gradientTransform="matrix(0,1,-1,0,48.000003,-3e-6)"/>
  <linearGradient inkscape:collect="always" xlink:href="#linearGradient3988" id="linearGradient3965" gradientUnits="userSpaceOnUse" y1="116.26" x2="0" y2="31.773"/>
  <linearGradient id="linearGradient3988">
   <stop id="stop3990" stop-color="#eeeeec"/>
   <stop offset="1" id="stop3992" stop-color="#ffffff"/>
  </linearGradient>
  <radialGradient inkscape:collect="always" xlink:href="#linearGradient26113-9-3-1" id="radialGradient3755" gradientUnits="userSpaceOnUse" gradientTransform="matrix(1,0,0,0.37,0,24.5124)" cx="24.85" cy="38.909" r="20.2"/>
  <linearGradient inkscape:collect="always" id="linearGradient26113-9-3-1">
   <stop id="stop26115-7-7-9"/>
   <stop offset="1" id="stop26117-3-7-8" stop-opacity="0"/>
  </linearGradient>
  <radialGradient r="20.2" cy="38.909" cx="24.85" gradientTransform="matrix(1.00851,0,0,0.373148,-0.211403,24.39)" gradientUnits="userSpaceOnUse" id="radialGradient4274" xlink:href="#linearGradient26113-9-3-1" inkscape:collect="always"/>
  <linearGradient inkscape:collect="always" xlink:href="#linearGradient4873" id="linearGradient4140" x1="789" x2="827" gradientUnits="userSpaceOnUse"/>
  <clipPath id="clipPath4130">
   <path id="path4132" d="M 790.4375,237 C 789.62555,237 789,237.62555 789,238.4375 l 0,35.09375 c 0,0.812 0.62555,1.46875 1.4375,1.46875 l 35.125,0 c 0.81195,0 1.4375,-0.65675 1.4375,-1.46875 l 0,-35.09375 C 827,237.62555 826.37445,237 825.5625,237 l -35.125,0 z"/>
  </clipPath>
  <linearGradient inkscape:collect="always" xlink:href="#linearGradient5618" id="linearGradient4083" x1="-1023.86" x2="-984.86" gradientUnits="userSpaceOnUse" gradientTransform="translate(980.3622,784)"/>
  <linearGradient id="linearGradient5618">
   <stop id="stop5620" stop-color="#3e3e3e"/>
   <stop offset="1" id="stop5622" stop-color="#595959"/>
  </linearGradient>
  <linearGradient id="linearGradient4094">
   <stop id="stop4096" stop-color="#e28192"/>
   <stop id="stop4317" offset="0.259" stop-color="#f7d6c7"/>
   <stop offset="1" id="stop4098" stop-color="#fffee4"/>
  </linearGradient>
  <clipPath id="clipPath14228">
   <rect id="rect14230" width="32" height="42" x="312" y="231" fill="none" color="#bebebe" stroke-width="0" rx="0"/>
  </clipPath>
  <clipPath id="clipPath3449">
   <rect id="rect3451" width="32" height="42" x="312" y="231" fill="none" color="#bebebe" stroke-width="0" rx="0"/>
  </clipPath>
  <linearGradient inkscape:collect="always" xlink:href="#linearGradient3988-5" id="linearGradient4030" x1="304" x2="352" gradientUnits="userSpaceOnUse"/>
  <linearGradient id="linearGradient3988-5">
   <stop id="stop3990-5" stop-color="#ededed"/>
   <stop offset="1" id="stop3992-0" stop-color="#fafafa"/>
  </linearGradient>
  <clipPath id="clipPath3457">
   <rect id="rect3459" width="32" height="42" x="312" y="231" fill="none" color="#bebebe" stroke-width="0" rx="0"/>
  </clipPath>
  <clipPath id="clipPath3461">
   <rect id="rect3463" width="32" height="42" x="312" y="231" fill="none" color="#bebebe" stroke-width="0" rx="0"/>
  </clipPath>
  <linearGradient id="outerBackgroundGradient">
   <stop id="stop3864-8-6" stop-color="#8c166c"/>
   <stop id="stop4409" offset="0.362" stop-color="#ca3561"/>
   <stop offset="1" id="stop3866-9-1" stop-color="#f38f4e"/>
  </linearGradient>
  <linearGradient inkscape:collect="always" xlink:href="#linearGradient3988-5" id="linearGradient3947" gradientUnits="userSpaceOnUse" gradientTransform="matrix(0,-0.175,0.175,0,-4.0000326,48.20002)" y1="280" x2="0" y2="40"/>
  <linearGradient inkscape:collect="always" xlink:href="#outerBackgroundGradient" id="linearGradient3949" gradientUnits="userSpaceOnUse" gradientTransform="matrix(0,-0.175,0.175,0,-4.0000326,1.2000199)" y1="280" x2="0" y2="40"/>
  <linearGradient inkscape:collect="always" xlink:href="#linearGradient4094" id="linearGradient3951" gradientUnits="userSpaceOnUse" x1="324" x2="332"/>
  <radialGradient cx="4.993" cy="43.5" gradientTransform="matrix(2.003784,0,0,1.4,27.98813,-17.4)" gradientUnits="userSpaceOnUse" id="radialGradient9116" inkscape:collect="always" r="2.5" xlink:href="#linearGradient3952"/>
  <radialGradient cx="4.993" cy="43.5" gradientTransform="matrix(2.003784,0,0,1.4,-20.01187,-104.4)" gradientUnits="userSpaceOnUse" id="radialGradient9118" inkscape:collect="always" r="2.5" xlink:href="#linearGradient3952"/>
  <linearGradient gradientUnits="userSpaceOnUse" id="linearGradient9120" inkscape:collect="always" x2="0" xlink:href="#linearGradient3960" y1="47.03" y2="39.999"/>
  <linearGradient gradientTransform="translate(80.00001,-0.0389932)" gradientUnits="userSpaceOnUse" id="linearGradient9122" inkscape:collect="always" x2="0" xlink:href="#linearGradient6394" y1="-0.806" y2="18.01"/>
  <linearGradient id="linearGradient6394" inkscape:collect="always">
   <stop id="stop6396" stop-color="#729fcf"/>
   <stop id="stop6398" offset="1" stop-color="#ffffff"/>
  </linearGradient>
  <linearGradient gradientTransform="matrix(1,0,0,2,80.00001,-17.038994)" gradientUnits="userSpaceOnUse" id="linearGradient9124" inkscape:collect="always" x2="0" xlink:href="#linearGradient6754" y1="16.188" y2="14.14"/>
  <linearGradient id="linearGradient6754" inkscape:collect="always">
   <stop id="stop6756" stop-color="#729fcf"/>
   <stop id="stop6758" offset="1" stop-color="#729fcf" stop-opacity="0"/>
  </linearGradient>
  <radialGradient cx="-16.484" cy="16.06" gradientTransform="matrix(1.4386863,0,0,1.1876132,7.181008,-2.926052)" gradientUnits="userSpaceOnUse" id="radialGradient9126" inkscape:collect="always" r="9" xlink:href="#linearGradient4873"/>
  <linearGradient inkscape:collect="always" xlink:href="#linearGradient6754" id="linearGradient4458" gradientUnits="userSpaceOnUse" gradientTransform="matrix(1,0,0,2,47.965462,11.645619)" y1="16.188" x2="0" y2="14.14"/>
  <linearGradient inkscape:collect="always" xlink:href="#outerBackgroundGradient" id="linearGradient4462" gradientUnits="userSpaceOnUse" gradientTransform="matrix(1.0769229,0,0,1.0769229,55.461537,22.120194)" y1="-0.806" x2="0" y2="18.01"/>
  <linearGradient inkscape:collect="always" xlink:href="#outerBackgroundGradient" id="linearGradient3123" gradientUnits="userSpaceOnUse" gradientTransform="matrix(0,-0.175,0.175,0,-5.0000326,-0.7999801)" y1="280" x2="0" y2="40"/>
  <linearGradient inkscape:collect="always" xlink:href="#linearGradient4094" id="linearGradient3117" gradientUnits="userSpaceOnUse" x1="324" x2="332" gradientTransform="matrix(0,-1,1,0,-208.375,365.12502)"/>
  <linearGradient y2="40" x2="0" y1="280" gradientTransform="matrix(0,-0.175,0.175,0,5.124967,-36.42498)" gradientUnits="userSpaceOnUse" id="linearGradient3157" xlink:href="#outerBackgroundGradient" inkscape:collect="always"/>
  <clipPath id="clipPath4552">
   <rect id="rect4554" width="21.1" height="21.1" x="42.892" y="24.01" rx="0" opacity="0.2"/>
  </clipPath>
  <linearGradient inkscape:collect="always" xlink:href="#linearGradient3988-5" id="linearGradient3158" gradientUnits="userSpaceOnUse" gradientTransform="matrix(0.175,0,0,0.175,-1.20002,-6.0000326)" y1="280" x2="0" y2="40"/>
  <radialGradient inkscape:collect="always" xlink:href="#linearGradient3952" id="radialGradient3950" cx="9" cy="43.5" r="2" gradientTransform="matrix(1,0,0,0.75,0,10.875)" gradientUnits="userSpaceOnUse"/>
  <radialGradient inkscape:collect="always" xlink:href="#linearGradient3952" id="radialGradient3958" cx="40" cy="43.5" r="2" gradientTransform="matrix(1,0,0,0.75,0,10.875)" gradientUnits="userSpaceOnUse"/>
  <linearGradient inkscape:collect="always" xlink:href="#linearGradient3960" id="linearGradient3968" y1="45" x2="0" y2="42" gradientUnits="userSpaceOnUse"/>
  <linearGradient inkscape:collect="always" xlink:href="#linearGradient4780" id="linearGradient4835" gradientUnits="userSpaceOnUse" y1="-81.72" x2="0" y2="-62.28"/>
  <linearGradient inkscape:collect="always" xlink:href="#linearGradient4780" id="linearGradient4844" gradientUnits="userSpaceOnUse" y1="-81.72" x2="0" y2="-62.28" gradientTransform="matrix(0.82325582,0,0,0.82325582,-1444.1884,83.274422)"/>
 </defs>
 <g inkscape:groupmode="layer" id="layer1" inkscape:label="Background">
  <g id="g3983" transform="matrix(1.0571429,0,0,1.6666667,-1.4,-29)" opacity="0.2">
   <rect id="rect3985" width="31" height="3" x="9" y="42" opacity="0.6" fill="url(#linearGradient3968)"/>
   <path d="m 40,42 0,3 0.5,0 C 41.331,45 42,44.331 42,43.5 42,42.669 41.331,42 40.5,42 L 40,42 z" id="path3987" inkscape:connector-curvature="0" opacity="0.6" fill="url(#radialGradient3958)"/>
   <path d="M 8.40625,42 C 7.6271875,42 7,42.627187 7,43.40625 l 0,0.1875 C 7,44.372813 7.6271875,45 8.40625,45 L 9,45 9,42 8.40625,42 z" id="path3989" inkscape:connector-curvature="0" opacity="0.6" fill="url(#radialGradient3950)"/>
  </g>
  <g id="g3978" opacity="0.2">
   <rect y="42" x="9" height="3" width="31" id="rect3938" opacity="0.6" fill="url(#linearGradient3968)"/>
   <path id="rect3940" d="M 40 42 L 40 45 L 40.5 45 C 41.331 45 42 44.331 42 43.5 C 42 42.669 41.331 42 40.5 42 L 40 42 z " opacity="0.6" fill="url(#radialGradient3958)"/>
   <path id="rect3942" d="M 8.40625 42 C 7.6271875 42 7 42.627187 7 43.40625 L 7 43.59375 C 7 44.372813 7.6271875 45 8.40625 45 L 9 45 L 9 42 L 8.40625 42 z " opacity="0.6" fill="url(#radialGradient3950)"/>
  </g>
  <g id="g4204" transform="matrix(0,1,-1,0,48,-1)">
   <g transform="translate(2,-1)" id="g4020">
    <rect y="2" x="8" height="41" width="33" id="rect3886" transform="matrix(0,1,1,0,0,0)" opacity="0.35" color="#bebebe" stroke-width="0" rx="1"/>
    <rect transform="matrix(0,1,1,0,0,0)" id="rect3882" width="31" height="39" x="9" y="3" fill="url(#linearGradient3158)" color="#bebebe" stroke-width="0" rx="0"/>
    <path id="path3893" d="m 3,9 0,31 39,0 0,-31 z m 1,1 37,0 0,29 -37,0 z" inkscape:connector-curvature="0" sodipodi:nodetypes="cccccccccc" opacity="0.4" fill="#ffffff"/>
    <rect id="rect4018" width="39" height="1" x="3" y="9" opacity="0.4" fill="#ffffff"/>
   </g>
  </g>
 </g>
 <g inkscape:groupmode="layer" id="layer2" inkscape:label="Symbol">
  <g transform="translate(-303.5,71.75)" id="flowRoot25580" opacity="0.2">
   <path inkscape:connector-curvature="0" d="m 315.78906,-63.75 0,-0.859375 -1.28906,0 0,0.859375 1.28906,0" id="path26173"/>
   <path inkscape:connector-curvature="0" d="m 317.03906,-63.75 0,-0.859375 -1.28906,0 0,0.859375 1.28906,0" id="path26175"/>
   <path inkscape:connector-curvature="0" d="m 318.28906,-63.75 0,-0.859375 -1.28906,0 0,0.859375 1.28906,0" id="path26177"/>
   <path inkscape:connector-curvature="0" d="m 319.53906,-63.75 0,-0.859375 -1.28906,0 0,0.859375 1.28906,0" id="path26179"/>
   <path inkscape:connector-curvature="0" d="m 320.78906,-63.75 0,-0.859375 -1.28906,0 0,0.859375 1.28906,0" id="path26181"/>
   <path inkscape:connector-curvature="0" d="m 324.54687,-63.75 0,-0.859375 -1.28906,0 0,0.859375 1.28906,0" id="path26183"/>
   <path inkscape:connector-curvature="0" d="m 325.79687,-63.75 0,-0.859375 -1.28906,0 0,0.859375 1.28906,0" id="path26185"/>
   <path inkscape:connector-curvature="0" d="m 327.04687,-63.75 0,-0.859375 -1.28906,0 0,0.859375 1.28906,0" id="path26187"/>
   <path inkscape:connector-curvature="0" d="m 328.29687,-63.75 0,-0.859375 -1.28906,0 0,0.859375 1.28906,0" id="path26189"/>
   <path inkscape:connector-curvature="0" d="m 329.54687,-63.75 0,-0.859375 -1.28906,0 0,0.859375 1.28906,0" id="path26191"/>
   <path inkscape:connector-curvature="0" d="m 333.30469,-63.75 0,-0.859375 -1.28907,0 0,0.859375 1.28907,0" id="path26193"/>
   <path inkscape:connector-curvature="0" d="m 334.55469,-63.75 0,-0.859375 -1.28907,0 0,0.859375 1.28907,0" id="path26195"/>
   <path inkscape:connector-curvature="0" d="m 335.80469,-63.75 0,-0.859375 -1.28907,0 0,0.859375 1.28907,0" id="path26197"/>
   <path inkscape:connector-curvature="0" d="m 337.05469,-63.75 0,-0.859375 -1.28907,0 0,0.859375 1.28907,0" id="path26199"/>
   <path inkscape:connector-curvature="0" d="m 338.30469,-63.75 0,-0.859375 -1.28907,0 0,0.859375 1.28907,0" id="path26201"/>
   <path inkscape:connector-curvature="0" d="m 315.78906,-61.75 0,-0.859375 -1.28906,0 0,0.859375 1.28906,0" id="path26203"/>
   <path inkscape:connector-curvature="0" d="m 317.03906,-61.75 0,-0.859375 -1.28906,0 0,0.859375 1.28906,0" id="path26205"/>
   <path inkscape:connector-curvature="0" d="m 318.28906,-61.75 0,-0.859375 -1.28906,0 0,0.859375 1.28906,0" id="path26207"/>
   <path inkscape:connector-curvature="0" d="m 322.04687,-61.75 0,-0.859375 -1.28906,0 0,0.859375 1.28906,0" id="path26209"/>
   <path inkscape:connector-curvature="0" d="m 323.29687,-61.75 0,-0.859375 -1.28906,0 0,0.859375 1.28906,0" id="path26211"/>
   <path inkscape:connector-curvature="0" d="m 324.54687,-61.75 0,-0.859375 -1.28906,0 0,0.859375 1.28906,0" id="path26213"/>
   <path inkscape:connector-curvature="0" d="m 325.79687,-61.75 0,-0.859375 -1.28906,0 0,0.859375 1.28906,0" id="path26215"/>
   <path inkscape:connector-curvature="0" d="m 327.04687,-61.75 0,-0.859375 -1.28906,0 0,0.859375 1.28906,0" id="path26217"/>
   <path inkscape:connector-curvature="0" d="m 315.78906,-59.75 0,-0.859375 -1.28906,0 0,0.859375 1.28906,0" id="path26219"/>
   <path inkscape:connector-curvature="0" d="m 317.03906,-59.75 0,-0.859375 -1.28906,0 0,0.859375 1.28906,0" id="path26221"/>
   <path inkscape:connector-curvature="0" d="m 318.28906,-59.75 0,-0.859375 -1.28906,0 0,0.859375 1.28906,0" id="path26223"/>
   <path inkscape:connector-curvature="0" d="m 319.53906,-59.75 0,-0.859375 -1.28906,0 0,0.859375 1.28906,0" id="path26225"/>
   <path inkscape:connector-curvature="0" d="m 320.78906,-59.75 0,-0.859375 -1.28906,0 0,0.859375 1.28906,0" id="path26227"/>
   <path inkscape:connector-curvature="0" d="m 322.03906,-59.75 0,-0.859375 -1.28906,0 0,0.859375 1.28906,0" id="path26229"/>
   <path inkscape:connector-curvature="0" d="m 323.28906,-59.75 0,-0.859375 -1.28906,0 0,0.859375 1.28906,0" id="path26231"/>
   <path inkscape:connector-curvature="0" d="m 324.53906,-59.75 0,-0.859375 -1.28906,0 0,0.859375 1.28906,0" id="path26233"/>
   <path inkscape:connector-curvature="0" d="m 325.78906,-59.75 0,-0.859375 -1.28906,0 0,0.859375 1.28906,0" id="path26235"/>
   <path inkscape:connector-curvature="0" d="m 327.03906,-59.75 0,-0.859375 -1.28906,0 0,0.859375 1.28906,0" id="path26237"/>
   <path inkscape:connector-curvature="0" d="m 328.28906,-59.75 0,-0.859375 -1.28906,0 0,0.859375 1.28906,0" id="path26239"/>
   <path inkscape:connector-curvature="0" d="m 315.78906,-57.75 0,-0.859375 -1.28906,0 0,0.859375 1.28906,0" id="path26241"/>
   <path inkscape:connector-curvature="0" d="m 317.03906,-57.75 0,-0.859375 -1.28906,0 0,0.859375 1.28906,0" id="path26243"/>
   <path inkscape:connector-curvature="0" d="m 318.28906,-57.75 0,-0.859375 -1.28906,0 0,0.859375 1.28906,0" id="path26245"/>
   <path inkscape:connector-curvature="0" d="m 319.53906,-57.75 0,-0.859375 -1.28906,0 0,0.859375 1.28906,0" id="path26247"/>
   <path inkscape:connector-curvature="0" d="m 320.78906,-57.75 0,-0.859375 -1.28906,0 0,0.859375 1.28906,0" id="path26249"/>
   <path inkscape:connector-curvature="0" d="m 322.03906,-57.75 0,-0.859375 -1.28906,0 0,0.859375 1.28906,0" id="path26251"/>
   <path inkscape:connector-curvature="0" d="m 323.28906,-57.75 0,-0.859375 -1.28906,0 0,0.859375 1.28906,0" id="path26253"/>
   <path inkscape:connector-curvature="0" d="m 324.53906,-57.75 0,-0.859375 -1.28906,0 0,0.859375 1.28906,0" id="path26255"/>
   <path inkscape:connector-curvature="0" d="m 325.78906,-57.75 0,-0.859375 -1.28906,0 0,0.859375 1.28906,0" id="path26257"/>
   <path inkscape:connector-curvature="0" d="m 327.03906,-57.75 0,-0.859375 -1.28906,0 0,0.859375 1.28906,0" id="path26259"/>
   <path inkscape:connector-curvature="0" d="m 330.79687,-57.75 0,-0.859375 -1.28906,0 0,0.859375 1.28906,0" id="path26261"/>
   <path inkscape:connector-curvature="0" d="m 332.04687,-57.75 0,-0.859375 -1.28906,0 0,0.859375 1.28906,0" id="path26263"/>
   <path inkscape:connector-curvature="0" d="m 333.29687,-57.75 0,-0.859375 -1.28906,0 0,0.859375 1.28906,0" id="path26265"/>
   <path inkscape:connector-curvature="0" d="m 334.54687,-57.75 0,-0.859375 -1.28906,0 0,0.859375 1.28906,0" id="path26267"/>
   <path inkscape:connector-curvature="0" d="m 335.79687,-57.75 0,-0.859375 -1.28906,0 0,0.859375 1.28906,0" id="path26269"/>
   <path inkscape:connector-curvature="0" d="m 315.78906,-55.75 0,-0.859375 -1.28906,0 0,0.859375 1.28906,0" id="path26271"/>
   <path inkscape:connector-curvature="0" d="m 317.03906,-55.75 0,-0.859375 -1.28906,0 0,0.859375 1.28906,0" id="path26273"/>
   <path inkscape:connector-curvature="0" d="m 318.28906,-55.75 0,-0.859375 -1.28906,0 0,0.859375 1.28906,0" id="path26275"/>
   <path inkscape:connector-curvature="0" d="m 322.04687,-55.75 0,-0.859375 -1.28906,0 0,0.859375 1.28906,0" id="path26277"/>
   <path inkscape:connector-curvature="0" d="m 323.29687,-55.75 0,-0.859375 -1.28906,0 0,0.859375 1.28906,0" id="path26279"/>
   <path inkscape:connector-curvature="0" d="m 324.54687,-55.75 0,-0.859375 -1.28906,0 0,0.859375 1.28906,0" id="path26281"/>
   <path inkscape:connector-curvature="0" d="m 325.79687,-55.75 0,-0.859375 -1.28906,0 0,0.859375 1.28906,0" id="path26283"/>
   <path inkscape:connector-curvature="0" d="m 327.04687,-55.75 0,-0.859375 -1.28906,0 0,0.859375 1.28906,0" id="path26285"/>
   <path inkscape:connector-curvature="0" d="m 328.29687,-55.75 0,-0.859375 -1.28906,0 0,0.859375 1.28906,0" id="path26287"/>
   <path inkscape:connector-curvature="0" d="m 329.54687,-55.75 0,-0.859375 -1.28906,0 0,0.859375 1.28906,0" id="path26289"/>
   <path inkscape:connector-curvature="0" d="m 330.79687,-55.75 0,-0.859375 -1.28906,0 0,0.859375 1.28906,0" id="path26291"/>
   <path inkscape:connector-curvature="0" d="m 334.55469,-55.75 0,-0.859375 -1.28907,0 0,0.859375 1.28907,0" id="path26293"/>
   <path inkscape:connector-curvature="0" d="m 335.80469,-55.75 0,-0.859375 -1.28907,0 0,0.859375 1.28907,0" id="path26295"/>
   <path inkscape:connector-curvature="0" d="m 337.05469,-55.75 0,-0.859375 -1.28907,0 0,0.859375 1.28907,0" id="path26297"/>
   <path inkscape:connector-curvature="0" d="m 338.30469,-55.75 0,-0.859375 -1.28907,0 0,0.859375 1.28907,0" id="path26299"/>
   <path inkscape:connector-curvature="0" d="m 339.55469,-55.75 0,-0.859375 -1.28907,0 0,0.859375 1.28907,0" id="path26301"/>
   <path inkscape:connector-curvature="0" d="m 315.78906,-53.75 0,-0.859375 -1.28906,0 0,0.859375 1.28906,0" id="path26303"/>
   <path inkscape:connector-curvature="0" d="m 317.03906,-53.75 0,-0.859375 -1.28906,0 0,0.859375 1.28906,0" id="path26305"/>
   <path inkscape:connector-curvature="0" d="m 318.28906,-53.75 0,-0.859375 -1.28906,0 0,0.859375 1.28906,0" id="path26307"/>
   <path inkscape:connector-curvature="0" d="m 319.53906,-53.75 0,-0.859375 -1.28906,0 0,0.859375 1.28906,0" id="path26309"/>
   <path inkscape:connector-curvature="0" d="m 323.29687,-53.75 0,-0.859375 -1.28906,0 0,0.859375 1.28906,0" id="path26311"/>
   <path inkscape:connector-curvature="0" d="m 324.54687,-53.75 0,-0.859375 -1.28906,0 0,0.859375 1.28906,0" id="path26313"/>
   <path inkscape:connector-curvature="0" d="m 325.79687,-53.75 0,-0.859375 -1.28906,0 0,0.859375 1.28906,0" id="path26315"/>
   <path inkscape:connector-curvature="0" d="m 329.55469,-53.75 0,-0.859375 -1.28907,0 0,0.859375 1.28907,0" id="path26317"/>
   <path inkscape:connector-curvature="0" d="m 330.80469,-53.75 0,-0.859375 -1.28907,0 0,0.859375 1.28907,0" id="path26319"/>
   <path inkscape:connector-curvature="0" d="m 332.05469,-53.75 0,-0.859375 -1.28907,0 0,0.859375 1.28907,0" id="path26321"/>
   <path inkscape:connector-curvature="0" d="m 333.30469,-53.75 0,-0.859375 -1.28907,0 0,0.859375 1.28907,0" id="path26323"/>
   <path inkscape:connector-curvature="0" d="m 334.55469,-53.75 0,-0.859375 -1.28907,0 0,0.859375 1.28907,0" id="path26325"/>
   <path inkscape:connector-curvature="0" d="m 335.80469,-53.75 0,-0.859375 -1.28907,0 0,0.859375 1.28907,0" id="path26327"/>
   <path inkscape:connector-curvature="0" d="m 337.05469,-53.75 0,-0.859375 -1.28907,0 0,0.859375 1.28907,0" id="path26329"/>
   <path inkscape:connector-curvature="0" d="m 338.30469,-53.75 0,-0.859375 -1.28907,0 0,0.859375 1.28907,0" id="path26331"/>
   <path inkscape:connector-curvature="0" d="m 339.55469,-53.75 0,-0.859375 -1.28907,0 0,0.859375 1.28907,0" id="path26333"/>
   <path inkscape:connector-curvature="0" d="m 315.78906,-51.75 0,-0.859375 -1.28906,0 0,0.859375 1.28906,0" id="path26335"/>
   <path inkscape:connector-curvature="0" d="m 317.03906,-51.75 0,-0.859375 -1.28906,0 0,0.859375 1.28906,0" id="path26337"/>
   <path inkscape:connector-curvature="0" d="m 318.28906,-51.75 0,-0.859375 -1.28906,0 0,0.859375 1.28906,0" id="path26339"/>
   <path inkscape:connector-curvature="0" d="m 319.53906,-51.75 0,-0.859375 -1.28906,0 0,0.859375 1.28906,0" id="path26341"/>
   <path inkscape:connector-curvature="0" d="m 323.29687,-51.75 0,-0.859375 -1.28906,0 0,0.859375 1.28906,0" id="path26343"/>
   <path inkscape:connector-curvature="0" d="m 324.54687,-51.75 0,-0.859375 -1.28906,0 0,0.859375 1.28906,0" id="path26345"/>
   <path inkscape:connector-curvature="0" d="m 325.79687,-51.75 0,-0.859375 -1.28906,0 0,0.859375 1.28906,0" id="path26347"/>
   <path inkscape:connector-curvature="0" d="m 327.04687,-51.75 0,-0.859375 -1.28906,0 0,0.859375 1.28906,0" id="path26349"/>
   <path inkscape:connector-curvature="0" d="m 328.29687,-51.75 0,-0.859375 -1.28906,0 0,0.859375 1.28906,0" id="path26351"/>
   <path inkscape:connector-curvature="0" d="m 329.54687,-51.75 0,-0.859375 -1.28906,0 0,0.859375 1.28906,0" id="path26353"/>
   <path inkscape:connector-curvature="0" d="m 330.79687,-51.75 0,-0.859375 -1.28906,0 0,0.859375 1.28906,0" id="path26355"/>
   <path inkscape:connector-curvature="0" d="m 332.04687,-51.75 0,-0.859375 -1.28906,0 0,0.859375 1.28906,0" id="path26357"/>
   <path inkscape:connector-curvature="0" d="m 333.29687,-51.75 0,-0.859375 -1.28906,0 0,0.859375 1.28906,0" id="path26359"/>
   <path inkscape:connector-curvature="0" d="m 334.54687,-51.75 0,-0.859375 -1.28906,0 0,0.859375 1.28906,0" id="path26361"/>
   <path inkscape:connector-curvature="0" d="m 335.79687,-51.75 0,-0.859375 -1.28906,0 0,0.859375 1.28906,0" id="path26363"/>
   <path inkscape:connector-curvature="0" d="m 315.78906,-49.75 0,-0.859375 -1.28906,0 0,0.859375 1.28906,0" id="path26365"/>
   <path inkscape:connector-curvature="0" d="m 317.03906,-49.75 0,-0.859375 -1.28906,0 0,0.859375 1.28906,0" id="path26367"/>
   <path inkscape:connector-curvature="0" d="m 318.28906,-49.75 0,-0.859375 -1.28906,0 0,0.859375 1.28906,0" id="path26369"/>
   <path inkscape:connector-curvature="0" d="m 322.04687,-49.75 0,-0.859375 -1.28906,0 0,0.859375 1.28906,0" id="path26371"/>
   <path inkscape:connector-curvature="0" d="m 323.29687,-49.75 0,-0.859375 -1.28906,0 0,0.859375 1.28906,0" id="path26373"/>
   <path inkscape:connector-curvature="0" d="m 324.54687,-49.75 0,-0.859375 -1.28906,0 0,0.859375 1.28906,0" id="path26375"/>
   <path inkscape:connector-curvature="0" d="m 325.79687,-49.75 0,-0.859375 -1.28906,0 0,0.859375 1.28906,0" id="path26377"/>
   <path inkscape:connector-curvature="0" d="m 327.04687,-49.75 0,-0.859375 -1.28906,0 0,0.859375 1.28906,0" id="path26379"/>
   <path inkscape:connector-curvature="0" d="m 328.29687,-49.75 0,-0.859375 -1.28906,0 0,0.859375 1.28906,0" id="path26381"/>
   <path inkscape:connector-curvature="0" d="m 329.54687,-49.75 0,-0.859375 -1.28906,0 0,0.859375 1.28906,0" id="path26383"/>
   <path inkscape:connector-curvature="0" d="m 333.30469,-49.75 0,-0.859375 -1.28907,0 0,0.859375 1.28907,0" id="path26385"/>
   <path inkscape:connector-curvature="0" d="m 334.55469,-49.75 0,-0.859375 -1.28907,0 0,0.859375 1.28907,0" id="path26387"/>
   <path inkscape:connector-curvature="0" d="m 335.80469,-49.75 0,-0.859375 -1.28907,0 0,0.859375 1.28907,0" id="path26389"/>
   <path inkscape:connector-curvature="0" d="m 337.05469,-49.75 0,-0.859375 -1.28907,0 0,0.859375 1.28907,0" id="path26391"/>
   <path inkscape:connector-curvature="0" d="m 315.78906,-47.75 0,-0.859375 -1.28906,0 0,0.859375 1.28906,0" id="path26393"/>
   <path inkscape:connector-curvature="0" d="m 317.03906,-47.75 0,-0.859375 -1.28906,0 0,0.859375 1.28906,0" id="path26395"/>
   <path inkscape:connector-curvature="0" d="m 318.28906,-47.75 0,-0.859375 -1.28906,0 0,0.859375 1.28906,0" id="path26397"/>
   <path inkscape:connector-curvature="0" d="m 319.53906,-47.75 0,-0.859375 -1.28906,0 0,0.859375 1.28906,0" id="path26399"/>
   <path inkscape:connector-curvature="0" d="m 320.78906,-47.75 0,-0.859375 -1.28906,0 0,0.859375 1.28906,0" id="path26401"/>
   <path inkscape:connector-curvature="0" d="m 324.54687,-47.75 0,-0.859375 -1.28906,0 0,0.859375 1.28906,0" id="path26403"/>
   <path inkscape:connector-curvature="0" d="m 325.79687,-47.75 0,-0.859375 -1.28906,0 0,0.859375 1.28906,0" id="path26405"/>
   <path inkscape:connector-curvature="0" d="m 327.04687,-47.75 0,-0.859375 -1.28906,0 0,0.859375 1.28906,0" id="path26407"/>
   <path inkscape:connector-curvature="0" d="m 328.29687,-47.75 0,-0.859375 -1.28906,0 0,0.859375 1.28906,0" id="path26409"/>
   <path inkscape:connector-curvature="0" d="m 329.54687,-47.75 0,-0.859375 -1.28906,0 0,0.859375 1.28906,0" id="path26411"/>
   <path inkscape:connector-curvature="0" d="m 330.79687,-47.75 0,-0.859375 -1.28906,0 0,0.859375 1.28906,0" id="path26413"/>
   <path inkscape:connector-curvature="0" d="m 332.04687,-47.75 0,-0.859375 -1.28906,0 0,0.859375 1.28906,0" id="path26415"/>
   <path inkscape:connector-curvature="0" d="m 335.80469,-47.75 0,-0.859375 -1.28907,0 0,0.859375 1.28907,0" id="path26417"/>
   <path inkscape:connector-curvature="0" d="m 337.05469,-47.75 0,-0.859375 -1.28907,0 0,0.859375 1.28907,0" id="path26419"/>
   <path inkscape:connector-curvature="0" d="m 315.78906,-45.75 0,-0.859375 -1.28906,0 0,0.859375 1.28906,0" id="path26421"/>
   <path inkscape:connector-curvature="0" d="m 317.03906,-45.75 0,-0.859375 -1.28906,0 0,0.859375 1.28906,0" id="path26423"/>
   <path inkscape:connector-curvature="0" d="m 318.28906,-45.75 0,-0.859375 -1.28906,0 0,0.859375 1.28906,0" id="path26425"/>
   <path inkscape:connector-curvature="0" d="m 319.53906,-45.75 0,-0.859375 -1.28906,0 0,0.859375 1.28906,0" id="path26427"/>
   <path inkscape:connector-curvature="0" d="m 320.78906,-45.75 0,-0.859375 -1.28906,0 0,0.859375 1.28906,0" id="path26429"/>
   <path inkscape:connector-curvature="0" d="m 322.03906,-45.75 0,-0.859375 -1.28906,0 0,0.859375 1.28906,0" id="path26431"/>
   <path inkscape:connector-curvature="0" d="m 323.28906,-45.75 0,-0.859375 -1.28906,0 0,0.859375 1.28906,0" id="path26433"/>
   <path inkscape:connector-curvature="0" d="m 324.53906,-45.75 0,-0.859375 -1.28906,0 0,0.859375 1.28906,0" id="path26435"/>
   <path inkscape:connector-curvature="0" d="m 325.78906,-45.75 0,-0.859375 -1.28906,0 0,0.859375 1.28906,0" id="path26437"/>
   <path inkscape:connector-curvature="0" d="m 329.54687,-45.75 0,-0.859375 -1.28906,0 0,0.859375 1.28906,0" id="path26439"/>
   <path inkscape:connector-curvature="0" d="m 330.79687,-45.75 0,-0.859375 -1.28906,0 0,0.859375 1.28906,0" id="path26441"/>
   <path inkscape:connector-curvature="0" d="m 315.78906,-43.75 0,-0.859375 -1.28906,0 0,0.859375 1.28906,0" id="path26443"/>
   <path inkscape:connector-curvature="0" d="m 317.03906,-43.75 0,-0.859375 -1.28906,0 0,0.859375 1.28906,0" id="path26445"/>
   <path inkscape:connector-curvature="0" d="m 318.28906,-43.75 0,-0.859375 -1.28906,0 0,0.859375 1.28906,0" id="path26447"/>
   <path inkscape:connector-curvature="0" d="m 319.53906,-43.75 0,-0.859375 -1.28906,0 0,0.859375 1.28906,0" id="path26449"/>
   <path inkscape:connector-curvature="0" d="m 320.78906,-43.75 0,-0.859375 -1.28906,0 0,0.859375 1.28906,0" id="path26451"/>
   <path inkscape:connector-curvature="0" d="m 322.03906,-43.75 0,-0.859375 -1.28906,0 0,0.859375 1.28906,0" id="path26453"/>
   <path inkscape:connector-curvature="0" d="m 323.28906,-43.75 0,-0.859375 -1.28906,0 0,0.859375 1.28906,0" id="path26455"/>
   <path inkscape:connector-curvature="0" d="m 324.53906,-43.75 0,-0.859375 -1.28906,0 0,0.859375 1.28906,0" id="path26457"/>
   <path inkscape:connector-curvature="0" d="m 325.78906,-43.75 0,-0.859375 -1.28906,0 0,0.859375 1.28906,0" id="path26459"/>
   <path inkscape:connector-curvature="0" d="m 327.03906,-43.75 0,-0.859375 -1.28906,0 0,0.859375 1.28906,0" id="path26461"/>
   <path inkscape:connector-curvature="0" d="m 328.28906,-43.75 0,-0.859375 -1.28906,0 0,0.859375 1.28906,0" id="path26463"/>
   <path inkscape:connector-curvature="0" d="m 332.04687,-43.75 0,-0.859375 -1.28906,0 0,0.859375 1.28906,0" id="path26465"/>
   <path inkscape:connector-curvature="0" d="m 333.29687,-43.75 0,-0.859375 -1.28906,0 0,0.859375 1.28906,0" id="path26467"/>
   <path inkscape:connector-curvature="0" d="m 315.78906,-41.75 0,-0.859375 -1.28906,0 0,0.859375 1.28906,0" id="path26469"/>
   <path inkscape:connector-curvature="0" d="m 317.03906,-41.75 0,-0.859375 -1.28906,0 0,0.859375 1.28906,0" id="path26471"/>
   <path inkscape:connector-curvature="0" d="m 318.28906,-41.75 0,-0.859375 -1.28906,0 0,0.859375 1.28906,0" id="path26473"/>
   <path inkscape:connector-curvature="0" d="m 319.53906,-41.75 0,-0.859375 -1.28906,0 0,0.859375 1.28906,0" id="path26475"/>
   <path inkscape:connector-curvature="0" d="m 320.78906,-41.75 0,-0.859375 -1.28906,0 0,0.859375 1.28906,0" id="path26477"/>
   <path inkscape:connector-curvature="0" d="m 324.54687,-41.75 0,-0.859375 -1.28906,0 0,0.859375 1.28906,0" id="path26479"/>
   <path inkscape:connector-curvature="0" d="m 325.79687,-41.75 0,-0.859375 -1.28906,0 0,0.859375 1.28906,0" id="path26481"/>
   <path inkscape:connector-curvature="0" d="m 327.04687,-41.75 0,-0.859375 -1.28906,0 0,0.859375 1.28906,0" id="path26483"/>
   <path inkscape:connector-curvature="0" d="m 328.29687,-41.75 0,-0.859375 -1.28906,0 0,0.859375 1.28906,0" id="path26485"/>
   <path inkscape:connector-curvature="0" d="m 329.54687,-41.75 0,-0.859375 -1.28906,0 0,0.859375 1.28906,0" id="path26487"/>
   <path inkscape:connector-curvature="0" d="m 330.79687,-41.75 0,-0.859375 -1.28906,0 0,0.859375 1.28906,0" id="path26489"/>
   <path inkscape:connector-curvature="0" d="m 332.04687,-41.75 0,-0.859375 -1.28906,0 0,0.859375 1.28906,0" id="path26491"/>
   <path inkscape:connector-curvature="0" d="m 333.29687,-41.75 0,-0.859375 -1.28906,0 0,0.859375 1.28906,0" id="path26493"/>
   <path inkscape:connector-curvature="0" d="m 334.54687,-41.75 0,-0.859375 -1.28906,0 0,0.859375 1.28906,0" id="path26495"/>
   <path inkscape:connector-curvature="0" d="m 338.30469,-41.75 0,-0.859375 -1.28907,0 0,0.859375 1.28907,0" id="path26497"/>
   <path inkscape:connector-curvature="0" d="m 339.55469,-41.75 0,-0.859375 -1.28907,0 0,0.859375 1.28907,0" id="path26499"/>
   <path inkscape:connector-curvature="0" d="m 315.78906,-39.75 0,-0.859375 -1.28906,0 0,0.859375 1.28906,0" id="path26501"/>
   <path inkscape:connector-curvature="0" d="m 317.03906,-39.75 0,-0.859375 -1.28906,0 0,0.859375 1.28906,0" id="path26503"/>
   <path inkscape:connector-curvature="0" d="m 318.28906,-39.75 0,-0.859375 -1.28906,0 0,0.859375 1.28906,0" id="path26505"/>
   <path inkscape:connector-curvature="0" d="m 319.53906,-39.75 0,-0.859375 -1.28906,0 0,0.859375 1.28906,0" id="path26507"/>
   <path inkscape:connector-curvature="0" d="m 320.78906,-39.75 0,-0.859375 -1.28906,0 0,0.859375 1.28906,0" id="path26509"/>
   <path inkscape:connector-curvature="0" d="m 322.03906,-39.75 0,-0.859375 -1.28906,0 0,0.859375 1.28906,0" id="path26511"/>
   <path inkscape:connector-curvature="0" d="m 325.79687,-39.75 0,-0.859375 -1.28906,0 0,0.859375 1.28906,0" id="path26513"/>
   <path inkscape:connector-curvature="0" d="m 329.55469,-39.75 0,-0.859375 -1.28907,0 0,0.859375 1.28907,0" id="path26515"/>
   <path inkscape:connector-curvature="0" d="m 330.80469,-39.75 0,-0.859375 -1.28907,0 0,0.859375 1.28907,0" id="path26517"/>
   <path inkscape:connector-curvature="0" d="m 332.05469,-39.75 0,-0.859375 -1.28907,0 0,0.859375 1.28907,0" id="path26519"/>
   <path inkscape:connector-curvature="0" d="m 333.30469,-39.75 0,-0.859375 -1.28907,0 0,0.859375 1.28907,0" id="path26521"/>
   <path inkscape:connector-curvature="0" d="m 334.55469,-39.75 0,-0.859375 -1.28907,0 0,0.859375 1.28907,0" id="path26523"/>
   <path inkscape:connector-curvature="0" d="m 335.80469,-39.75 0,-0.859375 -1.28907,0 0,0.859375 1.28907,0" id="path26525"/>
   <path inkscape:connector-curvature="0" d="m 315.78906,-37.75 0,-0.859375 -1.28906,0 0,0.859375 1.28906,0" id="path26527"/>
   <path inkscape:connector-curvature="0" d="m 317.03906,-37.75 0,-0.859375 -1.28906,0 0,0.859375 1.28906,0" id="path26529"/>
   <path inkscape:connector-curvature="0" d="m 318.28906,-37.75 0,-0.859375 -1.28906,0 0,0.859375 1.28906,0" id="path26531"/>
   <path inkscape:connector-curvature="0" d="m 319.53906,-37.75 0,-0.859375 -1.28906,0 0,0.859375 1.28906,0" id="path26533"/>
   <path inkscape:connector-curvature="0" d="m 320.78906,-37.75 0,-0.859375 -1.28906,0 0,0.859375 1.28906,0" id="path26535"/>
   <path inkscape:connector-curvature="0" d="m 322.03906,-37.75 0,-0.859375 -1.28906,0 0,0.859375 1.28906,0" id="path26537"/>
   <path inkscape:connector-curvature="0" d="m 323.28906,-37.75 0,-0.859375 -1.28906,0 0,0.859375 1.28906,0" id="path26539"/>
   <path inkscape:connector-curvature="0" d="m 324.53906,-37.75 0,-0.859375 -1.28906,0 0,0.859375 1.28906,0" id="path26541"/>
   <path inkscape:connector-curvature="0" d="m 328.29687,-37.75 0,-0.859375 -1.28906,0 0,0.859375 1.28906,0" id="path26543"/>
   <path inkscape:connector-curvature="0" d="m 329.54687,-37.75 0,-0.859375 -1.28906,0 0,0.859375 1.28906,0" id="path26545"/>
   <path inkscape:connector-curvature="0" d="m 330.79687,-37.75 0,-0.859375 -1.28906,0 0,0.859375 1.28906,0" id="path26547"/>
   <path inkscape:connector-curvature="0" d="m 332.04687,-37.75 0,-0.859375 -1.28906,0 0,0.859375 1.28906,0" id="path26549"/>
   <path inkscape:connector-curvature="0" d="m 333.29687,-37.75 0,-0.859375 -1.28906,0 0,0.859375 1.28906,0" id="path26551"/>
   <path inkscape:connector-curvature="0" d="m 334.54687,-37.75 0,-0.859375 -1.28906,0 0,0.859375 1.28906,0" id="path26553"/>
   <path inkscape:connector-curvature="0" d="m 335.79687,-37.75 0,-0.859375 -1.28906,0 0,0.859375 1.28906,0" id="path26555"/>
   <path inkscape:connector-curvature="0" d="m 337.04687,-37.75 0,-0.859375 -1.28906,0 0,0.859375 1.28906,0" id="path26557"/>
  </g>
 </g>
</svg>
