<?xml version="1.0" encoding="UTF-8" standalone="no"?>
<svg xmlns="http://www.w3.org/2000/svg" xmlns:xlink="http://www.w3.org/1999/xlink" xmlns:sodipodi="http://sodipodi.sourceforge.net/DTD/sodipodi-0.dtd" xmlns:inkscape="http://www.inkscape.org/namespaces/inkscape" version="1.1" width="48" height="48">
 <metadata id="metadata37"/>
 <defs id="defs3761">
  <linearGradient inkscape:collect="always" id="linearGradient3914">
   <stop id="stop3916" stop-color="#ffffff"/>
   <stop offset="1" id="stop3918" stop-color="#ffffff" stop-opacity="0"/>
  </linearGradient>
  <linearGradient id="linearGradient3960">
   <stop id="stop3962" stop-opacity="0"/>
   <stop id="stop3970" offset="0.5"/>
   <stop offset="1" id="stop3964" stop-opacity="0"/>
  </linearGradient>
  <linearGradient inkscape:collect="always" id="linearGradient3952">
   <stop id="stop3954"/>
   <stop offset="1" id="stop3956" stop-opacity="0"/>
  </linearGradient>
  <linearGradient id="linearGradient3988-5">
   <stop id="stop3990-5" stop-color="#e8e8e8"/>
   <stop offset="1" id="stop3992-0" stop-color="#f0f0f0"/>
  </linearGradient>
  <linearGradient inkscape:collect="always" xlink:href="#linearGradient3988-5" id="linearGradient3142" gradientUnits="userSpaceOnUse" gradientTransform="matrix(-0.175,0,0,0.175,49.20002,-5.0000326)" y1="280" x2="0" y2="40"/>
  <linearGradient inkscape:collect="always" xlink:href="#linearGradient3914" id="linearGradient3920" y1="0" x2="0" y2="48" gradientUnits="userSpaceOnUse"/>
  <radialGradient inkscape:collect="always" xlink:href="#linearGradient3952" id="radialGradient3925" gradientUnits="userSpaceOnUse" gradientTransform="matrix(1,0,0,0.75,-1.0000003,10.875)" cx="9" cy="43.5" r="2"/>
  <radialGradient inkscape:collect="always" xlink:href="#linearGradient3952" id="radialGradient3928" gradientUnits="userSpaceOnUse" gradientTransform="matrix(1,0,0,0.75,-3e-7,10.875)" cx="40" cy="43.5" r="2"/>
  <linearGradient inkscape:collect="always" xlink:href="#linearGradient3960" id="linearGradient3931" gradientUnits="userSpaceOnUse" y1="45" x2="0" y2="42" gradientTransform="matrix(1.0305144,0,0,1,-1.2476025,0)"/>
  <radialGradient inkscape:collect="always" xlink:href="#linearGradient3952" id="radialGradient3934" gradientUnits="userSpaceOnUse" gradientTransform="matrix(1.0571429,0,0,1.25,-2.4000003,-10.875)" cx="9" cy="43.5" r="2"/>
  <radialGradient inkscape:collect="always" xlink:href="#linearGradient3952" id="radialGradient3937" gradientUnits="userSpaceOnUse" gradientTransform="matrix(1.0571429,0,0,1.25,-1.4000003,-10.875)" cx="40" cy="43.5" r="2"/>
  <linearGradient inkscape:collect="always" xlink:href="#linearGradient3960" id="linearGradient3940" gradientUnits="userSpaceOnUse" y1="45" x2="0" y2="42" gradientTransform="matrix(1.0894009,0,0,1.6666667,-2.6903226,-29)"/>
  <linearGradient id="linearGradient4689">
   <stop id="stop4691" stop-color="#5a9fd4"/>
   <stop offset="1" id="stop4693" stop-color="#306998"/>
  </linearGradient>
  <linearGradient id="linearGradient4671">
   <stop id="stop4673" stop-color="#ffec3b"/>
   <stop offset="1" id="stop4675" stop-color="#ffe62e"/>
  </linearGradient>
  <linearGradient inkscape:collect="always" xlink:href="#linearGradient4689" id="linearGradient6828" gradientUnits="userSpaceOnUse" gradientTransform="matrix(0.875,0,0,0.875,-263,-196.5)" y1="231" x2="0" y2="273"/>
  <linearGradient inkscape:collect="always" xlink:href="#linearGradient4671" id="linearGradient6830" gradientUnits="userSpaceOnUse" gradientTransform="matrix(0.875,0,0,0.875,-262,-196.5)" y1="232" x2="0" y2="273"/>
 </defs>
 <g inkscape:groupmode="layer" id="layer1" inkscape:label="Background">
  <g id="g3942">
   <rect id="rect3985" width="33.771" height="5" x="7.114" y="41" opacity="0.12" fill="url(#linearGradient3940)"/>
   <path d="m 40.885716,41.000001 0,5 0.528571,0 c 0.878486,0 1.585715,-1.115 1.585715,-2.5 0,-1.385 -0.707229,-2.5 -1.585715,-2.5 l -0.528571,0 z" id="path3987" inkscape:connector-curvature="0" opacity="0.12" fill="url(#radialGradient3937)"/>
   <path d="M 6.4866072,41.000001 C 5.6630268,41.000001 5,42.045313 5,43.343751 l 0,0.3125 c 0,1.298439 0.6630268,2.34375 1.4866072,2.34375 l 0.6276786,0 0,-5 -0.6276786,0 z" id="path3989" inkscape:connector-curvature="0" opacity="0.12" fill="url(#radialGradient3934)"/>
   <rect y="42" x="8.03" height="3" width="31.946" id="rect3938" opacity="0.12" fill="url(#linearGradient3931)"/>
   <path id="rect3940" d="m 40,42 0,3 0.5,0 C 41.331,45 42,44.331 42,43.5 42,42.669 41.331,42 40.5,42 L 40,42 z" inkscape:connector-curvature="0" opacity="0.12" fill="url(#radialGradient3928)"/>
   <path id="rect3942" d="m 7.4062497,42 c -0.7790625,0 -1.40625,0.627187 -1.40625,1.40625 l 0,0.1875 c 0,0.779063 0.6271875,1.40625 1.40625,1.40625 l 0.59375,0 0,-3 -0.59375,0 z" inkscape:connector-curvature="0" opacity="0.12" fill="url(#radialGradient3925)"/>
  </g>
  <path d="M 40,3 8,3 C 7.446,3 7,3.446 7,4 l 0,39 c 0,0.554 0.446,1 1,1 l 32,0 c 0.554,0 1,-0.446 1,-1 L 41,4 C 41,3.446 40.554,3 40,3 z" id="rect3886" inkscape:connector-curvature="0" sodipodi:nodetypes="sssssssss" opacity="0.35" color="#bebebe" stroke-width="0"/>
  <path d="M 40,4 8,4 8,43 40,43 z" id="rect3882" inkscape:connector-curvature="0" sodipodi:nodetypes="ccccc" fill="url(#linearGradient3142)" color="#bebebe" stroke-width="0"/>
  <path id="path3893" d="M 40,4 8,4 8,43 40,43 z M 39,5 39,42 9,42 9,5 z" inkscape:connector-curvature="0" sodipodi:nodetypes="cccccccccc" opacity="0.4" fill="url(#linearGradient3920)"/>
  <rect id="rect3144" width="32" height="1" x="8" y="4" opacity="0.4" fill="#ffffff" stroke-linecap="square"/>
  <rect y="42" x="8" height="1" width="32" id="rect3922" opacity="0.2" fill="#ffffff"/>
 </g>
 <g inkscape:groupmode="layer" id="layer2" inkscape:label="Symbol">
  <path id="path26173" d="m 12.28906,8 0,-0.85938 L 11,7.14062 11,8 12.28906,8" inkscape:connector-curvature="0" fill="#89adc2"/>
  <path id="path26175" d="m 13.53906,8 0,-0.85938 -1.28906,0 0,0.85938 1.28906,0" inkscape:connector-curvature="0" fill="#89adc2"/>
  <path id="path26177" d="m 14.78906,8 0,-0.85938 -1.28906,0 0,0.85938 1.28906,0" inkscape:connector-curvature="0" fill="#89adc2"/>
  <path id="path26179" d="m 16.03906,8 0,-0.85938 -1.28906,0 0,0.85938 1.28906,0" inkscape:connector-curvature="0" fill="#89adc2"/>
  <path id="path26181" d="m 17.28906,8 0,-0.85938 L 16,7.14062 16,8 17.28906,8" inkscape:connector-curvature="0" fill="#89adc2"/>
  <path id="path26183" d="m 18.54687,8 0,-0.85938 -1.28906,0 0,0.85938 1.28906,0" inkscape:connector-curvature="0" fill="#89adc2"/>
  <path id="path26185" d="m 19.79687,8 0,-0.85938 -1.28906,0 0,0.85938 1.28906,0" inkscape:connector-curvature="0" fill="#89adc2"/>
  <path id="path26203" d="m 12.28906,10 0,-0.85938 -1.28906,0 0,0.85938 1.28906,0" inkscape:connector-curvature="0" fill="#89adc2"/>
  <path id="path26205" d="m 13.53906,10 0,-0.85938 -1.28906,0 0,0.85938 1.28906,0" inkscape:connector-curvature="0" fill="#89adc2"/>
  <path id="path26207" d="m 14.78906,10 0,-0.85938 -1.28906,0 0,0.85938 1.28906,0" inkscape:connector-curvature="0" fill="#89adc2"/>
  <path id="path26209" d="m 18.54687,10 0,-0.85938 -1.28906,0 0,0.85938 1.28906,0" inkscape:connector-curvature="0" fill="#89adc2"/>
  <path id="path26211" d="m 19.79687,10 0,-0.85938 -1.28906,0 0,0.85938 1.28906,0" inkscape:connector-curvature="0" fill="#89adc2"/>
  <path id="path26213" d="m 21.04687,10 0,-0.85938 -1.28906,0 0,0.85938 1.28906,0" inkscape:connector-curvature="0" fill="#89adc2"/>
  <path id="path26215" d="m 22.29687,10 0,-0.85938 -1.28906,0 0,0.85938 1.28906,0" inkscape:connector-curvature="0" fill="#89adc2"/>
  <path id="path26219" d="m 12.28906,12 0,-0.85938 -1.28906,0 0,0.85938 1.28906,0" inkscape:connector-curvature="0" fill="#89adc2"/>
  <path id="path26221" d="m 13.53906,12 0,-0.85938 -1.28906,0 0,0.85938 1.28906,0" inkscape:connector-curvature="0" fill="#89adc2"/>
  <path id="path26223" d="m 14.78906,12 0,-0.85938 -1.28906,0 0,0.85938 1.28906,0" inkscape:connector-curvature="0" fill="#89adc2"/>
  <path id="path26225" d="m 16.03906,12 0,-0.85938 -1.28906,0 0,0.85938 1.28906,0" inkscape:connector-curvature="0" fill="#89adc2"/>
  <path id="path26227" d="m 17.28906,12 0,-0.85938 -1.28906,0 0,0.85938 1.28906,0" inkscape:connector-curvature="0" fill="#89adc2"/>
  <path id="path26229" d="m 18.53906,12 0,-0.85938 -1.28906,0 0,0.85938 1.28906,0" inkscape:connector-curvature="0" fill="#89adc2"/>
  <path id="path26231" d="m 19.78906,12 0,-0.85938 -1.28906,0 0,0.85938 1.28906,0" inkscape:connector-curvature="0" fill="#89adc2"/>
  <path id="path26233" d="m 21.03906,12 0,-0.85938 -1.28906,0 0,0.85938 1.28906,0" inkscape:connector-curvature="0" fill="#89adc2"/>
  <path id="path26235" d="m 22.28906,12 0,-0.85938 -1.28906,0 0,0.85938 1.28906,0" inkscape:connector-curvature="0" fill="#89adc2"/>
  <path id="path26237" d="m 23.53906,12 0,-0.85938 -1.28906,0 0,0.85938 1.28906,0" inkscape:connector-curvature="0" fill="#89adc2"/>
  <path id="path26239" d="m 24.78906,12 0,-0.85938 -1.28906,0 0,0.85938 1.28906,0" inkscape:connector-curvature="0" fill="#89adc2"/>
  <path id="path26271" d="m 12.28906,16 0,-0.85938 -1.28906,0 0,0.85938 1.28906,0" inkscape:connector-curvature="0" fill="#b78ed4"/>
  <path id="path26273" d="m 13.53906,16 0,-0.85938 -1.28906,0 0,0.85938 1.28906,0" inkscape:connector-curvature="0" fill="#b78ed4"/>
  <path id="path26275" d="m 14.78906,16 0,-0.85938 -1.28906,0 0,0.85938 1.28906,0" inkscape:connector-curvature="0" fill="#b78ed4"/>
  <path id="path26277" d="m 18.54687,16 0,-0.85938 -1.28906,0 0,0.85938 1.28906,0" inkscape:connector-curvature="0" fill="#d48eb3"/>
  <path id="path26279" d="m 19.79687,16 0,-0.85938 -1.28906,0 0,0.85938 1.28906,0" inkscape:connector-curvature="0" fill="#d48eb3"/>
  <path id="path26281" d="m 21.04687,16 0,-0.85938 -1.28906,0 0,0.85938 1.28906,0" inkscape:connector-curvature="0" fill="#d48eb3"/>
  <path id="path26283" d="m 22.29687,16 0,-0.85938 -1.28906,0 0,0.85938 1.28906,0" inkscape:connector-curvature="0" fill="#d48eb3"/>
  <path id="path26285" d="m 23.54687,16 0,-0.85938 -1.28906,0 0,0.85938 1.28906,0" inkscape:connector-curvature="0" fill="#d48eb3"/>
  <path id="path26287" d="m 24.79687,16 0,-0.85938 -1.28906,0 0,0.85938 1.28906,0" inkscape:connector-curvature="0" fill="#d48eb3"/>
  <path id="path26289" d="m 26.046875,16 0,-0.85938 -1.289065,0 0,0.85938 1.289065,0" inkscape:connector-curvature="0" fill="#d48eb3"/>
  <path id="path26291" d="m 27.296875,16 0,-0.85938 -1.28906,0 0,0.85938 1.28906,0" inkscape:connector-curvature="0" fill="#d48eb3"/>
  <path id="path26303" d="m 12.28906,18 0,-0.85938 -1.28906,0 0,0.85938 1.28906,0" inkscape:connector-curvature="0" fill="#b78ed4"/>
  <path id="path26305" d="m 13.53906,18 0,-0.85938 -1.28906,0 0,0.85938 1.28906,0" inkscape:connector-curvature="0" fill="#b78ed4"/>
  <path id="path26307" d="m 14.78906,18 0,-0.85938 -1.28906,0 0,0.85938 1.28906,0" inkscape:connector-curvature="0" fill="#b78ed4"/>
  <path id="path26311" d="m 19.79687,18 0,-0.85938 -1.28906,0 0,0.85938 1.28906,0" inkscape:connector-curvature="0" fill="#d48eb3"/>
  <path id="path26313" d="m 21.04687,18 0,-0.85938 -1.28906,0 0,0.85938 1.28906,0" inkscape:connector-curvature="0" fill="#d48eb3"/>
  <path id="path26315" d="m 22.29687,18 0,-0.85938 -1.28906,0 0,0.85938 1.28906,0" inkscape:connector-curvature="0" fill="#d48eb3"/>
  <path id="path26317" d="m 23.524362,18 0,-0.85938 -1.28907,0 0,0.85938 1.28907,0" inkscape:connector-curvature="0" fill="#d48eb3"/>
  <path id="path26319" d="m 24.774362,18 0,-0.85938 -1.28907,0 0,0.85938 1.28907,0" inkscape:connector-curvature="0" fill="#d48eb3"/>
  <path id="path26321" d="m 28.554685,18 0,-0.85938 -1.28906,0 0,0.85938 1.28906,0" inkscape:connector-curvature="0" fill="#89adc2"/>
  <path id="path26323" d="m 29.804685,18 0,-0.85938 -1.28906,0 0,0.85938 1.28906,0" inkscape:connector-curvature="0" fill="#89adc2"/>
  <path id="path26325" d="m 31.054685,18 0,-0.85938 -1.28906,0 0,0.85938 1.28906,0" inkscape:connector-curvature="0" fill="#89adc2"/>
  <path id="path26329" d="m 33.554685,18 0,-0.85938 -1.28906,0 0,0.85938 1.28906,0" inkscape:connector-curvature="0" fill="#89adc2"/>
  <path id="path26331" d="m 34.804685,18 0,-0.85938 -1.28906,0 0,0.85938 1.28906,0" inkscape:connector-curvature="0" fill="#89adc2"/>
  <path id="path26365" d="m 12.28906,22 0,-0.85938 -1.28906,0 0,0.85938 1.28906,0" inkscape:connector-curvature="0" fill="#94d48e"/>
  <path id="path26367" d="m 13.53906,22 0,-0.85938 -1.28906,0 0,0.85938 1.28906,0" inkscape:connector-curvature="0" fill="#94d48e"/>
  <path id="path26369" d="m 14.78906,22 0,-0.85938 -1.28906,0 0,0.85938 1.28906,0" inkscape:connector-curvature="0" fill="#94d48e"/>
  <path id="path26371" d="m 18.54687,22 0,-0.85938 -1.28906,0 0,0.85938 1.28906,0" inkscape:connector-curvature="0" fill="#c0c0c0"/>
  <path id="path26373" d="m 19.79687,22 0,-0.85938 -1.28906,0 0,0.85938 1.28906,0" inkscape:connector-curvature="0" fill="#c0c0c0"/>
  <path id="path26383" d="m 17.29687,22 0,-0.85938 -1.28906,0 0,0.85938 1.28906,0" inkscape:connector-curvature="0" fill="#c0c0c0"/>
  <path id="path26393" d="m 12.28906,24 0,-0.85938 -1.28906,0 0,0.85938 1.28906,0" inkscape:connector-curvature="0" fill="#94d48e"/>
  <path id="path26395" d="m 13.53906,24 0,-0.85938 -1.28906,0 0,0.85938 1.28906,0" inkscape:connector-curvature="0" fill="#94d48e"/>
  <path id="path26397" d="m 14.78906,24 0,-0.85938 -1.28906,0 0,0.85938 1.28906,0" inkscape:connector-curvature="0" fill="#94d48e"/>
  <path id="path26403" d="m 21.04687,24 0,-0.85938 -1.28906,0 0,0.85938 1.28906,0" inkscape:connector-curvature="0" fill="#c0c0c0"/>
  <path id="path26405" d="m 19.79687,24 0,-0.85938 -1.28906,0 0,0.85938 1.28906,0" inkscape:connector-curvature="0" fill="#c0c0c0"/>
  <path id="path26421" d="m 12.28906,26 0,-0.85938 -1.28906,0 0,0.85938 1.28906,0" inkscape:connector-curvature="0" fill="#c0c0c0"/>
  <path id="path26443" d="m 12.28906,28 0,-0.85938 -1.28906,0 0,0.85938 1.28906,0" inkscape:connector-curvature="0" fill="#94d48e"/>
  <path id="path26445" d="m 13.53906,28 0,-0.85938 -1.28906,0 0,0.85938 1.28906,0" inkscape:connector-curvature="0" fill="#94d48e"/>
  <path id="path26449" d="m 16.03906,28 0,-0.85938 -1.28906,0 0,0.85938 1.28906,0" inkscape:connector-curvature="0" fill="#c0c0c0"/>
  <path id="path26451" d="m 17.28906,28 0,-0.85938 -1.28906,0 0,0.85938 1.28906,0" inkscape:connector-curvature="0" fill="#c0c0c0"/>
  <path id="path26453" d="m 18.53906,28 0,-0.85938 -1.28906,0 0,0.85938 1.28906,0" inkscape:connector-curvature="0" fill="#c0c0c0"/>
  <path id="path26457" d="m 21.03906,28 0,-0.85938 -1.28906,0 0,0.85938 1.28906,0" inkscape:connector-curvature="0" fill="#89adc2"/>
  <path id="path26459" d="m 22.28906,28 0,-0.85938 -1.28906,0 0,0.85938 1.28906,0" inkscape:connector-curvature="0" fill="#89adc2"/>
  <path id="path26461" d="m 23.53906,28 0,-0.85938 -1.28906,0 0,0.85938 1.28906,0" inkscape:connector-curvature="0" fill="#89adc2"/>
  <path id="path26463" d="m 24.78906,28 0,-0.85938 -1.28906,0 0,0.85938 1.28906,0" inkscape:connector-curvature="0" fill="#89adc2"/>
  <path id="path26465" d="m 28.546875,28 0,-0.85938 -1.28906,0 0,0.85938 1.28906,0" inkscape:connector-curvature="0" fill="#89adc2"/>
  <path id="path26467" d="m 29.796875,28 0,-0.85938 -1.28906,0 0,0.85938 1.28906,0" inkscape:connector-curvature="0" fill="#89adc2"/>
  <path id="path26469" d="m 12.28906,30 0,-0.85938 -1.28906,0 0,0.85938 1.28906,0" inkscape:connector-curvature="0" fill="#94d48e"/>
  <path id="path26471" d="m 13.53906,30 0,-0.85938 -1.28906,0 0,0.85938 1.28906,0" inkscape:connector-curvature="0" fill="#94d48e"/>
  <path id="path26473" d="m 14.78906,30 0,-0.85938 -1.28906,0 0,0.85938 1.28906,0" inkscape:connector-curvature="0" fill="#94d48e"/>
  <path id="path26477" d="m 17.28906,30 0,-0.85938 -1.28906,0 0,0.85938 1.28906,0" inkscape:connector-curvature="0" fill="#c0c0c0"/>
  <path id="path26479" d="m 21.04687,30 0,-0.85938 -1.28906,0 0,0.85938 1.28906,0" inkscape:connector-curvature="0" fill="#89adc2"/>
  <path id="path26481" d="m 22.29687,30 0,-0.85938 -1.28906,0 0,0.85938 1.28906,0" inkscape:connector-curvature="0" fill="#89adc2"/>
  <path id="path26483" d="m 23.54687,30 0,-0.85938 -1.28906,0 0,0.85938 1.28906,0" inkscape:connector-curvature="0" fill="#89adc2"/>
  <path id="path26485" d="m 24.79687,30 0,-0.85938 -1.28906,0 0,0.85938 1.28906,0" inkscape:connector-curvature="0" fill="#89adc2"/>
  <path id="path26487" d="m 26.046875,30 0,-0.85938 -1.289065,0 0,0.85938 1.289065,0" inkscape:connector-curvature="0" fill="#89adc2"/>
  <path id="path26489" d="m 27.296875,30 0,-0.85938 -1.28906,0 0,0.85938 1.28906,0" inkscape:connector-curvature="0" fill="#89adc2"/>
  <path id="path26491" d="m 28.546875,30 0,-0.85938 -1.28906,0 0,0.85938 1.28906,0" inkscape:connector-curvature="0" fill="#89adc2"/>
  <path id="path26493" d="m 29.796875,30 0,-0.85938 -1.28906,0 0,0.85938 1.28906,0" inkscape:connector-curvature="0" fill="#89adc2"/>
  <path id="path26495" d="m 31.046875,30 0,-0.85938 -1.28906,0 0,0.85938 1.28906,0" inkscape:connector-curvature="0" fill="#89adc2"/>
  <path id="path26501" d="m 12.28906,32 0,-0.85938 -1.28906,0 0,0.85938 1.28906,0" inkscape:connector-curvature="0" fill="#94d48e"/>
  <path id="path26503" d="m 13.53906,32 0,-0.85938 -1.28906,0 0,0.85938 1.28906,0" inkscape:connector-curvature="0" fill="#94d48e"/>
  <path id="path26505" d="m 14.037762,32 0,-0.85938 -1.28906,0 0,0.85938 1.28906,0" inkscape:connector-curvature="0" fill="#94d48e"/>
  <path id="path26509" d="m 17.28906,32 0,-0.85938 -1.28906,0 0,0.85938 1.28906,0" inkscape:connector-curvature="0" fill="#c0c0c0"/>
  <path id="path26511" d="m 18.53906,32 0,-0.85938 -1.28906,0 0,0.85938 1.28906,0" inkscape:connector-curvature="0" fill="#c0c0c0"/>
  <path id="path26513" d="m 22.29687,32 0,-0.85938 -1.28906,0 0,0.85938 1.28906,0" inkscape:connector-curvature="0" fill="#89adc2"/>
  <path id="path26515" d="m 26.054685,32 0,-0.85938 -1.289065,0 0,0.85938 1.289065,0" inkscape:connector-curvature="0" fill="#89adc2"/>
  <path id="path26517" d="m 27.304685,32 0,-0.85938 -1.28906,0 0,0.85938 1.28906,0" inkscape:connector-curvature="0" fill="#89adc2"/>
  <path id="path26519" d="m 28.554685,32 0,-0.85938 -1.28906,0 0,0.85938 1.28906,0" inkscape:connector-curvature="0" fill="#89adc2"/>
  <path id="path26521" d="m 29.804685,32 0,-0.85938 -1.28906,0 0,0.85938 1.28906,0" inkscape:connector-curvature="0" fill="#89adc2"/>
  <path id="path26527" d="m 12.28906,34 0,-0.85938 -1.28906,0 0,0.85938 1.28906,0" inkscape:connector-curvature="0" fill="#94d48e"/>
  <path id="path26529" d="m 13.53906,34 0,-0.85938 -1.28906,0 0,0.85938 1.28906,0" inkscape:connector-curvature="0" fill="#94d48e"/>
  <path id="path26533" d="m 16.03906,34 0,-0.85938 -1.28906,0 0,0.85938 1.28906,0" inkscape:connector-curvature="0" fill="#c0c0c0"/>
  <path id="path26535" d="m 17.28906,34 0,-0.85938 -1.28906,0 0,0.85938 1.28906,0" inkscape:connector-curvature="0" fill="#c0c0c0"/>
  <path id="path26537" d="m 18.53906,34 0,-0.85938 -1.28906,0 0,0.85938 1.28906,0" inkscape:connector-curvature="0" fill="#c0c0c0"/>
  <path id="path26541" d="m 21.03906,34 0,-0.85938 -1.28906,0 0,0.85938 1.28906,0" inkscape:connector-curvature="0" fill="#89adc2"/>
  <path id="path26543" d="m 24.79687,34 0,-0.85938 -1.28906,0 0,0.85938 1.28906,0" inkscape:connector-curvature="0" fill="#89adc2"/>
  <path id="path26545" d="m 26.046875,34 0,-0.85938 -1.289065,0 0,0.85938 1.289065,0" inkscape:connector-curvature="0" fill="#89adc2"/>
  <path id="path26547" d="m 27.296875,34 0,-0.85938 -1.28906,0 0,0.85938 1.28906,0" inkscape:connector-curvature="0" fill="#89adc2"/>
  <path id="path26549" d="m 28.546875,34 0,-0.85938 -1.28906,0 0,0.85938 1.28906,0" inkscape:connector-curvature="0" fill="#89adc2"/>
  <path id="path26553" d="m 31.046875,34 0,-0.85938 -1.28906,0 0,0.85938 1.28906,0" inkscape:connector-curvature="0" fill="#89adc2"/>
  <path id="path26555" d="m 32.296875,34 0,-0.85938 -1.28906,0 0,0.85938 1.28906,0" inkscape:connector-curvature="0" fill="#89adc2"/>
  <path inkscape:connector-curvature="0" d="m 18.54687,18 0,-0.85938 -1.28906,0 0,0.85938 1.28906,0" id="path3513" fill="#d48eb3"/>
  <path inkscape:connector-curvature="0" d="m 18.54687,24 0,-0.85938 -1.28906,0 0,0.85938 1.28906,0" id="path3515" fill="#c0c0c0"/>
  <path id="path3517" d="m 17.29687,24 0,-0.85938 -1.28906,0 0,0.85938 1.28906,0" inkscape:connector-curvature="0" fill="#c0c0c0"/>
  <path inkscape:connector-curvature="0" d="m 21.04687,32 0,-0.85938 -1.28906,0 0,0.85938 1.28906,0" id="path4287" fill="#89adc2"/>
  <path inkscape:connector-curvature="0" d="m 24.817258,32 0,-0.85938 -1.28907,0 0,0.85938 1.28907,0" id="path4289" fill="#89adc2"/>
  <path inkscape:connector-curvature="0" d="m 23.559438,34 0,-0.85938 -1.28906,0 0,0.85938 1.28906,0" id="path4291" fill="#89adc2"/>
  <path inkscape:connector-curvature="0" d="m 12.28906,38 0,-0.85938 -1.28906,0 0,0.85938 1.28906,0" id="path4323" fill="#c0c0c0"/>
  <path inkscape:connector-curvature="0" d="m 13.53906,38 0,-0.85938 -1.28906,0 0,0.85938 1.28906,0" id="path4325" fill="#c0c0c0"/>
  <path inkscape:connector-curvature="0" d="m 14.037762,38 0,-0.85938 -1.28906,0 0,0.85938 1.28906,0" id="path4327" fill="#c0c0c0"/>
  <path inkscape:connector-curvature="0" d="m 31.015635,38 0,-0.85938 1.28905,0 0,0.85938 -1.28905,0" id="path4329" fill="#d48eb3"/>
  <path inkscape:connector-curvature="0" d="m 29.765635,38 0,-0.85938 1.28905,0 0,0.85938 -1.28905,0" id="path4331" fill="#d48eb3"/>
  <path inkscape:connector-curvature="0" d="m 26.007825,38 0,-0.85938 1.28906,0 0,0.85938 -1.28906,0" id="path4333" fill="#d48eb3"/>
  <path inkscape:connector-curvature="0" d="m 22.25,38 0,-0.85938 1.28907,0 0,0.85938 -1.28907,0" id="path4335" fill="#d48eb3"/>
  <path inkscape:connector-curvature="0" d="m 21,38 0,-0.85938 1.28907,0 0,0.85938 L 21,38" id="path4337" fill="#d48eb3"/>
  <path inkscape:connector-curvature="0" d="m 19.75,38 0,-0.85938 1.28907,0 0,0.85938 -1.28907,0" id="path4339" fill="#d48eb3"/>
  <path inkscape:connector-curvature="0" d="m 18.5,38 0,-0.85938 1.28907,0 0,0.85938 L 18.5,38" id="path4341" fill="#d48eb3"/>
  <path inkscape:connector-curvature="0" d="m 17.25,38 0,-0.85938 1.28907,0 0,0.85938 -1.28907,0" id="path4343" fill="#d48eb3"/>
  <path inkscape:connector-curvature="0" d="m 16,38 0,-0.85938 1.28907,0 0,0.85938 L 16,38" id="path4345" fill="#d48eb3"/>
  <path inkscape:connector-curvature="0" d="m 12.28906,40 0,-0.85938 -1.28906,0 0,0.85938 1.28906,0" id="path4347" fill="#de6161"/>
  <path inkscape:connector-curvature="0" d="m 13.53906,40 0,-0.85938 -1.28906,0 0,0.85938 1.28906,0" id="path4349" fill="#de6161"/>
  <path inkscape:connector-curvature="0" d="m 16.03906,40 0,-0.85938 -1.28906,0 0,0.85938 1.28906,0" id="path4351" fill="#c0c0c0"/>
  <path inkscape:connector-curvature="0" d="m 17.28906,40 0,-0.85938 -1.28906,0 0,0.85938 1.28906,0" id="path4353" fill="#c0c0c0"/>
  <path inkscape:connector-curvature="0" d="m 18.53906,40 0,-0.85938 -1.28906,0 0,0.85938 1.28906,0" id="path4355" fill="#c0c0c0"/>
  <path inkscape:connector-curvature="0" d="m 21.03906,40 0,-0.85938 -1.28906,0 0,0.85938 1.28906,0" id="path4357" fill="#89adc2"/>
  <path inkscape:connector-curvature="0" d="m 23.283004,40 0,-0.85938 -1.28906,0 0,0.85938 1.28906,0" id="path4359" fill="#89adc2"/>
  <path inkscape:connector-curvature="0" d="m 26.046875,40 0,-0.85938 -1.289065,0 0,0.85938 1.289065,0" id="path4361" fill="#89adc2"/>
  <path inkscape:connector-curvature="0" d="m 27.296875,40 0,-0.85938 -1.28906,0 0,0.85938 1.28906,0" id="path4363" fill="#89adc2"/>
  <path inkscape:connector-curvature="0" d="m 28.546875,40 0,-0.85938 -1.28906,0 0,0.85938 1.28906,0" id="path4365" fill="#89adc2"/>
  <path inkscape:connector-curvature="0" d="m 29.796875,40 0,-0.85938 -1.28906,0 0,0.85938 1.28906,0" id="path4367" fill="#89adc2"/>
  <path inkscape:connector-curvature="0" d="m 31.046875,40 0,-0.85938 -1.28906,0 0,0.85938 1.28906,0" id="path4369" fill="#89adc2"/>
  <path id="path4375" d="m 27.257825,38 0,-0.85938 1.28906,0 0,0.85938 -1.28906,0" inkscape:connector-curvature="0" fill="#d48eb3"/>
  <path id="path4377" d="m 23.487432,38 0,-0.85938 1.28907,0 0,0.85938 -1.28907,0" inkscape:connector-curvature="0" fill="#d48eb3"/>
  <path id="path4379" d="m 22.266542,40 0,-0.85938 -1.28906,0 0,0.85938 1.28906,0" inkscape:connector-curvature="0" fill="#89adc2"/>
  <path inkscape:connector-curvature="0" d="m 17.265244,10 0,-0.85938 -1.28906,0 0,0.85938 1.28906,0" id="path4400" fill="#89adc2"/>
 </g>
</svg>
