<?xml version="1.0" encoding="UTF-8" standalone="no"?>
<!-- Created with Inkscape (http://www.inkscape.org/) -->

<svg
   xmlns:dc="http://purl.org/dc/elements/1.1/"
   xmlns:cc="http://creativecommons.org/ns#"
   xmlns:rdf="http://www.w3.org/1999/02/22-rdf-syntax-ns#"
   xmlns:svg="http://www.w3.org/2000/svg"
   xmlns="http://www.w3.org/2000/svg"
   xmlns:xlink="http://www.w3.org/1999/xlink"
   xmlns:sodipodi="http://sodipodi.sourceforge.net/DTD/sodipodi-0.dtd"
   xmlns:inkscape="http://www.inkscape.org/namespaces/inkscape"
   version="1.1"
   width="48"
   height="48"
   id="svg3759"
   inkscape:version="0.48.4 r9939"
   sodipodi:docname="text-x-python.svg"
   inkscape:export-filename="/home/sam/faba-internet-mail.png"
   inkscape:export-xdpi="90"
   inkscape:export-ydpi="90">
  <sodipodi:namedview
     pagecolor="#ffffff"
     bordercolor="#666666"
     borderopacity="1"
     objecttolerance="10"
     gridtolerance="10"
     guidetolerance="10"
     inkscape:pageopacity="0"
     inkscape:pageshadow="2"
     inkscape:window-width="1364"
     inkscape:window-height="700"
     id="namedview36"
     showgrid="false"
     inkscape:zoom="1"
     inkscape:cx="24.5"
     inkscape:cy="23.50025"
     inkscape:window-x="0"
     inkscape:window-y="28"
     inkscape:window-maximized="1"
     inkscape:current-layer="layer1"
     inkscape:snap-bbox="true"
     inkscape:bbox-paths="true"
     inkscape:bbox-nodes="true"
     inkscape:snap-bbox-edge-midpoints="true"
     inkscape:snap-bbox-midpoints="true"
     showguides="true"
     inkscape:guide-bbox="true"
     inkscape:showpageshadow="true"
     showborder="true">
    <inkscape:grid
       type="xygrid"
       id="grid3818"
       empspacing="4"
       visible="true"
       enabled="true"
       snapvisiblegridlinesonly="true" />
  </sodipodi:namedview>
  <metadata
     id="metadata37">
    <rdf:RDF>
      <cc:Work
         rdf:about="">
        <dc:format>image/svg+xml</dc:format>
        <dc:type
           rdf:resource="http://purl.org/dc/dcmitype/StillImage" />
        <dc:title></dc:title>
      </cc:Work>
    </rdf:RDF>
  </metadata>
  <defs
     id="defs3761">
    <linearGradient
       id="linearGradient3960">
      <stop
         style="stop-color:#000000;stop-opacity:0;"
         offset="0"
         id="stop3962" />
      <stop
         id="stop3970"
         offset="0.5"
         style="stop-color:#000000;stop-opacity:1;" />
      <stop
         style="stop-color:#000000;stop-opacity:0;"
         offset="1"
         id="stop3964" />
    </linearGradient>
    <linearGradient
       inkscape:collect="always"
       id="linearGradient3952">
      <stop
         style="stop-color:#000000;stop-opacity:1;"
         offset="0"
         id="stop3954" />
      <stop
         style="stop-color:#000000;stop-opacity:0;"
         offset="1"
         id="stop3956" />
    </linearGradient>
    <linearGradient
       inkscape:collect="always"
       id="linearGradient3944">
      <stop
         style="stop-color:#000000;stop-opacity:1;"
         offset="0"
         id="stop3946" />
      <stop
         style="stop-color:#000000;stop-opacity:0;"
         offset="1"
         id="stop3948" />
    </linearGradient>
    <linearGradient
       id="linearGradient4520">
      <stop
         id="stop4522"
         offset="0"
         style="stop-color:#571746;stop-opacity:1;" />
      <stop
         style="stop-color:#8a2c48;stop-opacity:1;"
         offset="0.36206895"
         id="stop4524" />
      <stop
         id="stop4526"
         offset="1"
         style="stop-color:#af5c25;stop-opacity:1;" />
    </linearGradient>
    <linearGradient
       id="linearGradient3810">
      <stop
         style="stop-color:#4cc7e0;stop-opacity:1;"
         offset="0"
         id="stop3812" />
      <stop
         style="stop-color:#2061be;stop-opacity:1;"
         offset="1"
         id="stop3814" />
    </linearGradient>
    <linearGradient
       id="linearGradient4873">
      <stop
         id="stop4875"
         style="stop-color:#ffffff;stop-opacity:1"
         offset="0" />
      <stop
         id="stop4877"
         style="stop-color:#ffffff;stop-opacity:0"
         offset="1" />
    </linearGradient>
    <linearGradient
       inkscape:collect="always"
       xlink:href="#linearGradient4873"
       id="linearGradient3017"
       gradientUnits="userSpaceOnUse"
       gradientTransform="matrix(2.1153734,0,0,2.1153252,-107.57708,31.426557)"
       x1="62.200409"
       y1="-12.489107"
       x2="62.200409"
       y2="-1.4615115" />
    <linearGradient
       inkscape:collect="always"
       xlink:href="#linearGradient3810"
       id="linearGradient3816"
       x1="4.5000031"
       y1="24"
       x2="43.500003"
       y2="24"
       gradientUnits="userSpaceOnUse"
       gradientTransform="matrix(0,1,-1,0,48.000003,-3e-6)" />
    <linearGradient
       inkscape:collect="always"
       xlink:href="#linearGradient3988"
       id="linearGradient3965"
       gradientUnits="userSpaceOnUse"
       x1="287.72006"
       y1="116.2613"
       x2="287.72006"
       y2="31.772648" />
    <linearGradient
       id="linearGradient3988">
      <stop
         style="stop-color:#eeeeec;stop-opacity:1;"
         offset="0"
         id="stop3990" />
      <stop
         style="stop-color:#ffffff;stop-opacity:1;"
         offset="1"
         id="stop3992" />
    </linearGradient>
    <linearGradient
       inkscape:collect="always"
       xlink:href="#linearGradient3810"
       id="linearGradient3882"
       gradientUnits="userSpaceOnUse"
       gradientTransform="matrix(0,1,-1,0,48.000003,-3e-6)"
       x1="4.5000031"
       y1="24"
       x2="43.500003"
       y2="24" />
    <radialGradient
       inkscape:collect="always"
       xlink:href="#linearGradient26113-9-3-1"
       id="radialGradient3755"
       gradientUnits="userSpaceOnUse"
       gradientTransform="matrix(1,0,0,0.37,0,24.5124)"
       cx="24.849752"
       cy="38.908627"
       fx="24.849752"
       fy="38.908627"
       r="20.203051" />
    <linearGradient
       inkscape:collect="always"
       id="linearGradient26113-9-3-1">
      <stop
         style="stop-color: rgb(0, 0, 0); stop-opacity: 1;"
         offset="0"
         id="stop26115-7-7-9" />
      <stop
         style="stop-color: rgb(0, 0, 0); stop-opacity: 0;"
         offset="1"
         id="stop26117-3-7-8" />
    </linearGradient>
    <linearGradient
       inkscape:collect="always"
       id="linearGradient26121-3-8-2">
      <stop
         style="stop-color: rgb(0, 0, 0); stop-opacity: 1;"
         offset="0"
         id="stop26123-4-7-8" />
      <stop
         style="stop-color: rgb(0, 0, 0); stop-opacity: 0;"
         offset="1"
         id="stop26125-3-9-9" />
    </linearGradient>
    <radialGradient
       r="20.203051"
       fy="38.908627"
       fx="24.849752"
       cy="38.908627"
       cx="24.849752"
       gradientTransform="matrix(1.00851,0,0,0.373148,-0.211403,24.39)"
       gradientUnits="userSpaceOnUse"
       id="radialGradient4274"
       xlink:href="#linearGradient26121-3-8-2"
       inkscape:collect="always" />
    <linearGradient
       inkscape:collect="always"
       xlink:href="#linearGradient4134"
       id="linearGradient4140"
       x1="789"
       y1="256"
       x2="827"
       y2="256"
       gradientUnits="userSpaceOnUse" />
    <linearGradient
       inkscape:collect="always"
       id="linearGradient4134">
      <stop
         style="stop-color:#ffffff;stop-opacity:1;"
         offset="0"
         id="stop4136" />
      <stop
         style="stop-color:#ffffff;stop-opacity:0;"
         offset="1"
         id="stop4138" />
    </linearGradient>
    <clipPath
       clipPathUnits="userSpaceOnUse"
       id="clipPath4130">
      <path
         id="path4132"
         d="M 790.4375,237 C 789.62555,237 789,237.62555 789,238.4375 l 0,35.09375 c 0,0.812 0.62555,1.46875 1.4375,1.46875 l 35.125,0 c 0.81195,0 1.4375,-0.65675 1.4375,-1.46875 l 0,-35.09375 C 827,237.62555 826.37445,237 825.5625,237 l -35.125,0 z"
         style="fill:#ba2222;fill-opacity:1;stroke:none"
         inkscape:connector-curvature="0" />
    </clipPath>
    <linearGradient
       inkscape:collect="always"
       xlink:href="#linearGradient5618"
       id="linearGradient4083"
       x1="-1023.8622"
       y1="-808"
       x2="-984.86218"
       y2="-808"
       gradientUnits="userSpaceOnUse"
       gradientTransform="translate(980.3622,784)" />
    <linearGradient
       id="linearGradient5618">
      <stop
         style="stop-color:#3e3e3e;stop-opacity:1;"
         offset="0"
         id="stop5620" />
      <stop
         style="stop-color:#595959;stop-opacity:1;"
         offset="1"
         id="stop5622" />
    </linearGradient>
    <linearGradient
       id="linearGradient4094">
      <stop
         style="stop-color:#e28192;stop-opacity:1;"
         offset="0"
         id="stop4096" />
      <stop
         id="stop4317"
         offset="0.25862068"
         style="stop-color:#f7d6c7;stop-opacity:1;" />
      <stop
         style="stop-color:#fffee4;stop-opacity:1;"
         offset="1"
         id="stop4098" />
    </linearGradient>
    <clipPath
       clipPathUnits="userSpaceOnUse"
       id="clipPath14228">
      <rect
         style="color:#bebebe;fill:url(#linearGradient14232);fill-opacity:1;fill-rule:nonzero;stroke:none;stroke-width:0;marker:none;visibility:visible;display:inline;overflow:visible;enable-background:accumulate"
         id="rect14230"
         width="32"
         height="42"
         x="312"
         y="231"
         ry="0" />
    </clipPath>
    <clipPath
       clipPathUnits="userSpaceOnUse"
       id="clipPath3449">
      <rect
         style="color:#bebebe;fill:url(#linearGradient14232);fill-opacity:1;fill-rule:nonzero;stroke:none;stroke-width:0;marker:none;visibility:visible;display:inline;overflow:visible;enable-background:accumulate"
         id="rect3451"
         width="32"
         height="42"
         x="312"
         y="231"
         ry="0" />
    </clipPath>
    <linearGradient
       inkscape:collect="always"
       xlink:href="#linearGradient3988-5"
       id="linearGradient4030"
       x1="304.00003"
       y1="228"
       x2="352.00003"
       y2="228"
       gradientUnits="userSpaceOnUse" />
    <linearGradient
       id="linearGradient3988-5">
      <stop
         style="stop-color:#ededed;stop-opacity:1;"
         offset="0"
         id="stop3990-5" />
      <stop
         style="stop-color:#fafafa;stop-opacity:1;"
         offset="1"
         id="stop3992-0" />
    </linearGradient>
    <clipPath
       clipPathUnits="userSpaceOnUse"
       id="clipPath3457">
      <rect
         style="color:#bebebe;fill:url(#linearGradient14232);fill-opacity:1;fill-rule:nonzero;stroke:none;stroke-width:0;marker:none;visibility:visible;display:inline;overflow:visible;enable-background:accumulate"
         id="rect3459"
         width="32"
         height="42"
         x="312"
         y="231"
         ry="0" />
    </clipPath>
    <clipPath
       clipPathUnits="userSpaceOnUse"
       id="clipPath3461">
      <rect
         style="color:#bebebe;fill:url(#linearGradient14232);fill-opacity:1;fill-rule:nonzero;stroke:none;stroke-width:0;marker:none;visibility:visible;display:inline;overflow:visible;enable-background:accumulate"
         id="rect3463"
         width="32"
         height="42"
         x="312"
         y="231"
         ry="0" />
    </clipPath>
    <linearGradient
       id="outerBackgroundGradient">
      <stop
         style="stop-color:#8c166c;stop-opacity:1;"
         offset="0"
         id="stop3864-8-6" />
      <stop
         id="stop4409"
         offset="0.36206895"
         style="stop-color:#ca3561;stop-opacity:1;" />
      <stop
         style="stop-color:#f38f4e;stop-opacity:1;"
         offset="1"
         id="stop3866-9-1" />
    </linearGradient>
    <linearGradient
       inkscape:collect="always"
       xlink:href="#linearGradient3988-5"
       id="linearGradient3947"
       gradientUnits="userSpaceOnUse"
       gradientTransform="matrix(0,-0.175,0.175,0,-4.0000326,48.20002)"
       x1="144.00006"
       y1="280.00018"
       x2="144.00006"
       y2="40.000172" />
    <linearGradient
       inkscape:collect="always"
       xlink:href="#outerBackgroundGradient"
       id="linearGradient3949"
       gradientUnits="userSpaceOnUse"
       gradientTransform="matrix(0,-0.175,0.175,0,-4.0000326,1.2000199)"
       x1="144.00006"
       y1="280.00018"
       x2="144.00006"
       y2="40.000172" />
    <linearGradient
       inkscape:collect="always"
       xlink:href="#linearGradient4094"
       id="linearGradient3951"
       gradientUnits="userSpaceOnUse"
       x1="324"
       y1="260"
       x2="332"
       y2="260" />
    <radialGradient
       cx="4.9929786"
       cy="43.5"
       fx="4.9929786"
       fy="43.5"
       gradientTransform="matrix(2.003784,0,0,1.4,27.98813,-17.4)"
       gradientUnits="userSpaceOnUse"
       id="radialGradient9116"
       inkscape:collect="always"
       r="2.5"
       xlink:href="#linearGradient3688" />
    <linearGradient
       id="linearGradient3688"
       inkscape:collect="always">
      <stop
         id="stop3690"
         offset="0"
         style="stop-color:black;stop-opacity:1;" />
      <stop
         id="stop3692"
         offset="1"
         style="stop-color:black;stop-opacity:0;" />
    </linearGradient>
    <radialGradient
       cx="4.9929786"
       cy="43.5"
       fx="4.9929786"
       fy="43.5"
       gradientTransform="matrix(2.003784,0,0,1.4,-20.01187,-104.4)"
       gradientUnits="userSpaceOnUse"
       id="radialGradient9118"
       inkscape:collect="always"
       r="2.5"
       xlink:href="#linearGradient3688" />
    <linearGradient
       gradientUnits="userSpaceOnUse"
       id="linearGradient9120"
       inkscape:collect="always"
       x1="25.058096"
       x2="25.058096"
       xlink:href="#linearGradient3702"
       y1="47.027729"
       y2="39.999443" />
    <linearGradient
       id="linearGradient3702">
      <stop
         id="stop3704"
         offset="0"
         style="stop-color:black;stop-opacity:0;" />
      <stop
         id="stop3710"
         offset="0.5"
         style="stop-color:black;stop-opacity:1;" />
      <stop
         id="stop3706"
         offset="1"
         style="stop-color:black;stop-opacity:0;" />
    </linearGradient>
    <linearGradient
       gradientTransform="translate(80.00001,-0.0389932)"
       gradientUnits="userSpaceOnUse"
       id="linearGradient9122"
       inkscape:collect="always"
       x1="-21.478369"
       x2="-21.478369"
       xlink:href="#linearGradient6394"
       y1="-0.80551612"
       y2="18.005089" />
    <linearGradient
       id="linearGradient6394"
       inkscape:collect="always">
      <stop
         id="stop6396"
         offset="0"
         style="stop-color:#729fcf;stop-opacity:1" />
      <stop
         id="stop6398"
         offset="1"
         style="stop-color:#ffffff;stop-opacity:1" />
    </linearGradient>
    <linearGradient
       gradientTransform="matrix(1,0,0,2,80.00001,-17.038994)"
       gradientUnits="userSpaceOnUse"
       id="linearGradient9124"
       inkscape:collect="always"
       x1="-21.03125"
       x2="-21.03125"
       xlink:href="#linearGradient6754"
       y1="16.187811"
       y2="14.13769" />
    <linearGradient
       id="linearGradient6754"
       inkscape:collect="always">
      <stop
         id="stop6756"
         offset="0"
         style="stop-color:#729fcf;stop-opacity:1" />
      <stop
         id="stop6758"
         offset="1"
         style="stop-color:#729fcf;stop-opacity:0" />
    </linearGradient>
    <radialGradient
       cx="-16.48411"
       cy="16.06098"
       fx="-16.48411"
       fy="16.06098"
       gradientTransform="matrix(1.4386863,0,0,1.1876132,7.181008,-2.926052)"
       gradientUnits="userSpaceOnUse"
       id="radialGradient9126"
       inkscape:collect="always"
       r="9"
       xlink:href="#linearGradient6794" />
    <linearGradient
       id="linearGradient6794"
       inkscape:collect="always">
      <stop
         id="stop6796"
         offset="0"
         style="stop-color:#ffffff;stop-opacity:1;" />
      <stop
         id="stop6798"
         offset="1"
         style="stop-color:#ffffff;stop-opacity:0;" />
    </linearGradient>
    <radialGradient
       inkscape:collect="always"
       xlink:href="#linearGradient6794"
       id="radialGradient4420"
       gradientUnits="userSpaceOnUse"
       gradientTransform="matrix(1.4386863,0,0,1.1876132,7.181008,-2.926052)"
       cx="-16.48411"
       cy="16.06098"
       fx="-16.48411"
       fy="16.06098"
       r="9" />
    <radialGradient
       inkscape:collect="always"
       xlink:href="#linearGradient3688"
       id="radialGradient4438"
       gradientUnits="userSpaceOnUse"
       gradientTransform="matrix(2.003784,0,0,1.4,27.98813,-17.4)"
       cx="4.9929786"
       cy="43.5"
       fx="4.9929786"
       fy="43.5"
       r="2.5" />
    <radialGradient
       inkscape:collect="always"
       xlink:href="#linearGradient3688"
       id="radialGradient4440"
       gradientUnits="userSpaceOnUse"
       gradientTransform="matrix(2.003784,0,0,1.4,-20.01187,-104.4)"
       cx="4.9929786"
       cy="43.5"
       fx="4.9929786"
       fy="43.5"
       r="2.5" />
    <linearGradient
       inkscape:collect="always"
       xlink:href="#linearGradient3702"
       id="linearGradient4442"
       gradientUnits="userSpaceOnUse"
       x1="25.058096"
       y1="47.027729"
       x2="25.058096"
       y2="39.999443" />
    <linearGradient
       inkscape:collect="always"
       xlink:href="#linearGradient6394"
       id="linearGradient4444"
       gradientUnits="userSpaceOnUse"
       gradientTransform="translate(80.00001,-0.0389932)"
       x1="-21.478369"
       y1="-0.80551612"
       x2="-21.478369"
       y2="18.005089" />
    <linearGradient
       inkscape:collect="always"
       xlink:href="#linearGradient6754"
       id="linearGradient4446"
       gradientUnits="userSpaceOnUse"
       gradientTransform="matrix(1,0,0,2,80.00001,-17.038994)"
       x1="-21.03125"
       y1="16.187811"
       x2="-21.03125"
       y2="14.13769" />
    <linearGradient
       inkscape:collect="always"
       xlink:href="#linearGradient6754"
       id="linearGradient4458"
       gradientUnits="userSpaceOnUse"
       gradientTransform="matrix(1,0,0,2,47.965462,11.645619)"
       x1="-21.03125"
       y1="16.187811"
       x2="-21.03125"
       y2="14.13769" />
    <linearGradient
       inkscape:collect="always"
       xlink:href="#outerBackgroundGradient-9"
       id="linearGradient4462"
       gradientUnits="userSpaceOnUse"
       gradientTransform="matrix(1.0769229,0,0,1.0769229,55.461537,22.120194)"
       x1="-21.478369"
       y1="-0.80551612"
       x2="-21.478369"
       y2="18.005089" />
    <linearGradient
       inkscape:collect="always"
       xlink:href="#outerBackgroundGradient-9"
       id="linearGradient3123"
       gradientUnits="userSpaceOnUse"
       gradientTransform="matrix(0,-0.175,0.175,0,-5.0000326,-0.7999801)"
       x1="144.00006"
       y1="280.00018"
       x2="144.00006"
       y2="40.000172" />
    <linearGradient
       id="outerBackgroundGradient-9">
      <stop
         style="stop-color:#8c166c;stop-opacity:1;"
         offset="0"
         id="stop3864-8-6-6" />
      <stop
         id="stop4409-9"
         offset="0.36206895"
         style="stop-color:#ca3561;stop-opacity:1;" />
      <stop
         style="stop-color:#f38f4e;stop-opacity:1;"
         offset="1"
         id="stop3866-9-1-1" />
    </linearGradient>
    <linearGradient
       inkscape:collect="always"
       xlink:href="#linearGradient4094-8"
       id="linearGradient3117"
       gradientUnits="userSpaceOnUse"
       x1="324"
       y1="260"
       x2="332"
       y2="260"
       gradientTransform="matrix(0,-1,1,0,-208.375,365.12502)" />
    <linearGradient
       id="linearGradient4094-8">
      <stop
         style="stop-color:#e28192;stop-opacity:1;"
         offset="0"
         id="stop4096-0" />
      <stop
         id="stop4317-3"
         offset="0.25862068"
         style="stop-color:#f7d6c7;stop-opacity:1;" />
      <stop
         style="stop-color:#fffee4;stop-opacity:1;"
         offset="1"
         id="stop4098-7" />
    </linearGradient>
    <linearGradient
       y2="40.000172"
       x2="144.00006"
       y1="280.00018"
       x1="144.00006"
       gradientTransform="matrix(0,-0.175,0.175,0,5.124967,-36.42498)"
       gradientUnits="userSpaceOnUse"
       id="linearGradient3157"
       xlink:href="#outerBackgroundGradient-9"
       inkscape:collect="always" />
    <linearGradient
       inkscape:collect="always"
       xlink:href="#linearGradient4094-8"
       id="linearGradient4537"
       gradientUnits="userSpaceOnUse"
       gradientTransform="matrix(0,-1,1,0,-208.375,365.12502)"
       x1="324"
       y1="260"
       x2="332"
       y2="260" />
    <radialGradient
       inkscape:collect="always"
       xlink:href="#linearGradient3688"
       id="radialGradient4539"
       gradientUnits="userSpaceOnUse"
       gradientTransform="matrix(2.003784,0,0,1.4,27.98813,-17.4)"
       cx="4.9929786"
       cy="43.5"
       fx="4.9929786"
       fy="43.5"
       r="2.5" />
    <radialGradient
       inkscape:collect="always"
       xlink:href="#linearGradient3688"
       id="radialGradient4541"
       gradientUnits="userSpaceOnUse"
       gradientTransform="matrix(2.003784,0,0,1.4,-20.01187,-104.4)"
       cx="4.9929786"
       cy="43.5"
       fx="4.9929786"
       fy="43.5"
       r="2.5" />
    <linearGradient
       inkscape:collect="always"
       xlink:href="#linearGradient3702"
       id="linearGradient4543"
       gradientUnits="userSpaceOnUse"
       x1="25.058096"
       y1="47.027729"
       x2="25.058096"
       y2="39.999443" />
    <clipPath
       clipPathUnits="userSpaceOnUse"
       id="clipPath4552">
      <rect
         style="opacity:0.2;fill:#000000;fill-opacity:1;stroke:none"
         id="rect4554"
         width="21.097717"
         height="21.097717"
         x="42.891773"
         y="24.010498"
         rx="0" />
    </clipPath>
    <radialGradient
       inkscape:collect="always"
       xlink:href="#linearGradient3688"
       id="radialGradient4798"
       gradientUnits="userSpaceOnUse"
       gradientTransform="matrix(2.003784,0,0,1.4,27.98813,-17.4)"
       cx="4.9929786"
       cy="43.5"
       fx="4.9929786"
       fy="43.5"
       r="2.5" />
    <radialGradient
       inkscape:collect="always"
       xlink:href="#linearGradient3688"
       id="radialGradient4800"
       gradientUnits="userSpaceOnUse"
       gradientTransform="matrix(2.003784,0,0,1.4,-20.01187,-104.4)"
       cx="4.9929786"
       cy="43.5"
       fx="4.9929786"
       fy="43.5"
       r="2.5" />
    <linearGradient
       inkscape:collect="always"
       xlink:href="#linearGradient3702"
       id="linearGradient4802"
       gradientUnits="userSpaceOnUse"
       x1="25.058096"
       y1="47.027729"
       x2="25.058096"
       y2="39.999443" />
    <linearGradient
       inkscape:collect="always"
       xlink:href="#outerBackgroundGradient-9"
       id="linearGradient4804"
       gradientUnits="userSpaceOnUse"
       gradientTransform="matrix(1.0769229,0,0,1.0769229,55.461537,22.120194)"
       x1="-21.478369"
       y1="-0.80551612"
       x2="-21.478369"
       y2="18.005089" />
    <linearGradient
       inkscape:collect="always"
       xlink:href="#linearGradient4094-8"
       id="linearGradient4806"
       gradientUnits="userSpaceOnUse"
       gradientTransform="matrix(0,-1,1,0,-208.375,365.12502)"
       x1="324"
       y1="260"
       x2="332"
       y2="260" />
    <linearGradient
       inkscape:collect="always"
       xlink:href="#outerBackgroundGradient-9"
       id="linearGradient4820"
       gradientUnits="userSpaceOnUse"
       gradientTransform="matrix(1.0769229,0,0,1.0769229,55.461537,22.120194)"
       x1="-21.478369"
       y1="-0.80551612"
       x2="-21.478369"
       y2="18.005089" />
    <linearGradient
       inkscape:collect="always"
       xlink:href="#linearGradient3988-5"
       id="linearGradient3158"
       gradientUnits="userSpaceOnUse"
       gradientTransform="matrix(0.175,0,0,0.175,-1.20002,-6.0000326)"
       x1="144.00006"
       y1="280.00018"
       x2="144.00006"
       y2="40.000172" />
    <radialGradient
       inkscape:collect="always"
       xlink:href="#linearGradient3944"
       id="radialGradient3950"
       cx="9"
       cy="43.5"
       fx="9"
       fy="43.5"
       r="2"
       gradientTransform="matrix(1,0,0,0.75,0,10.875)"
       gradientUnits="userSpaceOnUse" />
    <radialGradient
       inkscape:collect="always"
       xlink:href="#linearGradient3952"
       id="radialGradient3958"
       cx="40"
       cy="43.5"
       fx="40"
       fy="43.5"
       r="2"
       gradientTransform="matrix(1,0,0,0.75,0,10.875)"
       gradientUnits="userSpaceOnUse" />
    <linearGradient
       inkscape:collect="always"
       xlink:href="#linearGradient3960"
       id="linearGradient3968"
       x1="25"
       y1="45"
       x2="25"
       y2="42"
       gradientUnits="userSpaceOnUse" />
    <linearGradient
       inkscape:collect="always"
       xlink:href="#linearGradient3960"
       id="linearGradient3997"
       gradientUnits="userSpaceOnUse"
       x1="25"
       y1="45"
       x2="25"
       y2="42" />
    <radialGradient
       inkscape:collect="always"
       xlink:href="#linearGradient3952"
       id="radialGradient3999"
       gradientUnits="userSpaceOnUse"
       gradientTransform="matrix(1,0,0,0.75,0,10.875)"
       cx="40"
       cy="43.5"
       fx="40"
       fy="43.5"
       r="2" />
    <radialGradient
       inkscape:collect="always"
       xlink:href="#linearGradient3944"
       id="radialGradient4001"
       gradientUnits="userSpaceOnUse"
       gradientTransform="matrix(1,0,0,0.75,0,10.875)"
       cx="9"
       cy="43.5"
       fx="9"
       fy="43.5"
       r="2" />
    <linearGradient
       id="linearGradient4689">
      <stop
         style="stop-color:#5a9fd4;stop-opacity:1"
         offset="0"
         id="stop4691" />
      <stop
         style="stop-color:#306998;stop-opacity:1"
         offset="1"
         id="stop4693" />
    </linearGradient>
    <linearGradient
       id="linearGradient4671">
      <stop
         style="stop-color:#ffec3b;stop-opacity:1;"
         offset="0"
         id="stop4673" />
      <stop
         style="stop-color:#ffe62e;stop-opacity:1;"
         offset="1"
         id="stop4675" />
    </linearGradient>
    <linearGradient
       inkscape:collect="always"
       xlink:href="#linearGradient4689"
       id="linearGradient3187"
       gradientUnits="userSpaceOnUse"
       gradientTransform="matrix(0.875,0,0,0.875,-263,-197.5)"
       x1="307"
       y1="231"
       x2="307"
       y2="273" />
    <linearGradient
       inkscape:collect="always"
       xlink:href="#linearGradient4671"
       id="linearGradient3189"
       gradientUnits="userSpaceOnUse"
       gradientTransform="matrix(0.875,0,0,0.875,-263,-197.5)"
       x1="349"
       y1="232"
       x2="349"
       y2="273" />
    <linearGradient
       inkscape:collect="always"
       xlink:href="#linearGradient4689"
       id="linearGradient3242"
       gradientUnits="userSpaceOnUse"
       gradientTransform="matrix(0.875,0,0,0.875,-263,-197.5)"
       x1="307"
       y1="231"
       x2="307"
       y2="273" />
    <linearGradient
       inkscape:collect="always"
       xlink:href="#linearGradient4671"
       id="linearGradient3244"
       gradientUnits="userSpaceOnUse"
       gradientTransform="matrix(0.875,0,0,0.875,-263,-197.5)"
       x1="349"
       y1="232"
       x2="349"
       y2="273" />
    <linearGradient
       inkscape:collect="always"
       xlink:href="#linearGradient4689"
       id="linearGradient3253"
       gradientUnits="userSpaceOnUse"
       gradientTransform="matrix(0.875,0,0,0.875,-262,-196.5)"
       x1="307"
       y1="231"
       x2="307"
       y2="273" />
    <linearGradient
       inkscape:collect="always"
       xlink:href="#linearGradient4671"
       id="linearGradient3255"
       gradientUnits="userSpaceOnUse"
       gradientTransform="matrix(0.875,0,0,0.875,-263,-197.5)"
       x1="349"
       y1="232"
       x2="349"
       y2="273" />
    <linearGradient
       inkscape:collect="always"
       xlink:href="#linearGradient4671"
       id="linearGradient3260"
       gradientUnits="userSpaceOnUse"
       gradientTransform="matrix(0.875,0,0,0.875,-263,-197.5)"
       x1="349"
       y1="232"
       x2="349"
       y2="273" />
    <linearGradient
       inkscape:collect="always"
       xlink:href="#linearGradient8085"
       id="linearGradient8097"
       x1="1304"
       y1="-50"
       x2="1304"
       y2="-92"
       gradientUnits="userSpaceOnUse" />
    <linearGradient
       id="linearGradient8085">
      <stop
         id="stop8087"
         offset="0"
         style="stop-color:#37a12e;stop-opacity:1;" />
      <stop
         id="stop8089"
         offset="1"
         style="stop-color:#54bc43;stop-opacity:1;" />
    </linearGradient>
    <linearGradient
       inkscape:collect="always"
       xlink:href="#linearGradient8085"
       id="linearGradient11225"
       gradientUnits="userSpaceOnUse"
       x1="1304"
       y1="-50"
       x2="1304"
       y2="-92" />
    <linearGradient
       id="linearGradient7086">
      <stop
         id="stop7088"
         offset="0"
         style="stop-color:#37a12e;stop-opacity:1;" />
      <stop
         id="stop7090"
         offset="1"
         style="stop-color:#54bc43;stop-opacity:1;" />
    </linearGradient>
    <linearGradient
       inkscape:collect="always"
       xlink:href="#linearGradient8085"
       id="linearGradient11227"
       gradientUnits="userSpaceOnUse"
       x1="1304"
       y1="-50"
       x2="1304"
       y2="-92" />
    <linearGradient
       id="linearGradient7093">
      <stop
         id="stop7095"
         offset="0"
         style="stop-color:#37a12e;stop-opacity:1;" />
      <stop
         id="stop7097"
         offset="1"
         style="stop-color:#54bc43;stop-opacity:1;" />
    </linearGradient>
    <linearGradient
       inkscape:collect="always"
       xlink:href="#linearGradient8085"
       id="linearGradient11229"
       gradientUnits="userSpaceOnUse"
       x1="1304"
       y1="-50"
       x2="1304"
       y2="-92" />
    <linearGradient
       id="linearGradient7100">
      <stop
         id="stop7102"
         offset="0"
         style="stop-color:#37a12e;stop-opacity:1;" />
      <stop
         id="stop7104"
         offset="1"
         style="stop-color:#54bc43;stop-opacity:1;" />
    </linearGradient>
    <linearGradient
       y2="-92"
       x2="1304"
       y1="-50"
       x1="1304"
       gradientUnits="userSpaceOnUse"
       id="linearGradient7110"
       xlink:href="#linearGradient8085"
       inkscape:collect="always" />
    <linearGradient
       inkscape:collect="always"
       xlink:href="#linearGradient8085"
       id="linearGradient4087"
       gradientUnits="userSpaceOnUse"
       x1="1304"
       y1="-50"
       x2="1304"
       y2="-92"
       gradientTransform="matrix(0.96428571,0,0,0.96428571,-1217.5,92.928572)" />
    <linearGradient
       inkscape:collect="always"
       xlink:href="#linearGradient8085"
       id="linearGradient4090"
       gradientUnits="userSpaceOnUse"
       x1="1304"
       y1="-50"
       x2="1304"
       y2="-92"
       gradientTransform="matrix(0.96428571,0,0,0.96428571,-1217.5,92.928572)" />
    <linearGradient
       inkscape:collect="always"
       xlink:href="#linearGradient8085"
       id="linearGradient4093"
       gradientUnits="userSpaceOnUse"
       x1="1304"
       y1="-50"
       x2="1304"
       y2="-92"
       gradientTransform="matrix(0.96428571,0,0,0.96428571,-1217.5,92.928572)" />
  </defs>
  <g
     inkscape:groupmode="layer"
     id="layer1"
     inkscape:label="Background">
    <g
       id="g3983"
       transform="matrix(1.0571429,0,0,1.6666667,-1.4,-29)"
       style="opacity:0.20000000000000001">
      <rect
         style="opacity:0.59999999999999998;fill:url(#linearGradient3997);fill-opacity:1;stroke:none"
         id="rect3985"
         width="31"
         height="3"
         x="9"
         y="42" />
      <path
         style="opacity:0.59999999999999998;fill:url(#radialGradient3999);fill-opacity:1;stroke:none"
         d="m 40,42 0,3 0.5,0 C 41.331,45 42,44.331 42,43.5 42,42.669 41.331,42 40.5,42 L 40,42 z"
         id="path3987"
         inkscape:connector-curvature="0" />
      <path
         style="opacity:0.59999999999999998;fill:url(#radialGradient4001);fill-opacity:1;stroke:none"
         d="M 8.40625,42 C 7.6271875,42 7,42.627187 7,43.40625 l 0,0.1875 C 7,44.372813 7.6271875,45 8.40625,45 L 9,45 9,42 8.40625,42 z"
         id="path3989"
         inkscape:connector-curvature="0" />
    </g>
    <g
       id="g3978"
       style="opacity:0.20000000000000001">
      <rect
         y="42"
         x="9"
         height="3"
         width="31"
         id="rect3938"
         style="opacity:0.59999999999999998;fill:url(#linearGradient3968);fill-opacity:1;stroke:none" />
      <path
         id="rect3940"
         d="M 40 42 L 40 45 L 40.5 45 C 41.331 45 42 44.331 42 43.5 C 42 42.669 41.331 42 40.5 42 L 40 42 z "
         style="opacity:0.59999999999999998;fill:url(#radialGradient3958);fill-opacity:1;stroke:none" />
      <path
         id="rect3942"
         d="M 8.40625 42 C 7.6271875 42 7 42.627187 7 43.40625 L 7 43.59375 C 7 44.372813 7.6271875 45 8.40625 45 L 9 45 L 9 42 L 8.40625 42 z "
         style="opacity:0.59999999999999998;fill:url(#radialGradient3950);fill-opacity:1;stroke:none" />
    </g>
    <g
       id="g4204"
       transform="matrix(0,1,-1,0,48,-1)">
      <g
         transform="translate(2,-1)"
         id="g4020">
        <rect
           ry="1"
           y="2"
           x="8"
           height="41"
           width="33"
           id="rect3886"
           style="opacity:0.35;color:#bebebe;fill:#000000;fill-opacity:1;fill-rule:nonzero;stroke:none;stroke-width:0;marker:none;visibility:visible;display:inline;overflow:visible;enable-background:accumulate"
           transform="matrix(0,1,1,0,0,0)" />
        <rect
           transform="matrix(0,1,1,0,0,0)"
           style="color:#bebebe;fill:url(#linearGradient3158);fill-opacity:1;fill-rule:nonzero;stroke:none;stroke-width:0;marker:none;visibility:visible;display:inline;overflow:visible;enable-background:accumulate"
           id="rect3882"
           width="31"
           height="39"
           x="9"
           y="3"
           ry="0" />
        <path
           id="path3893"
           d="m 3,9 0,31 39,0 0,-31 z m 1,1 37,0 0,29 -37,0 z"
           style="opacity:0.4;fill:#ffffff;fill-opacity:1;stroke:none"
           inkscape:connector-curvature="0"
           sodipodi:nodetypes="cccccccccc" />
        <rect
           style="opacity:0.4;fill:#ffffff;fill-opacity:1;stroke:none"
           id="rect4018"
           width="39"
           height="1"
           x="3"
           y="9" />
      </g>
    </g>
  </g>
  <g
     inkscape:groupmode="layer"
     id="layer2"
     inkscape:label="Symbol">
    <path
       style="font-size:17.06666755999999907px;font-style:normal;font-variant:normal;font-weight:bold;font-stretch:normal;line-height:125%;letter-spacing:0px;word-spacing:0px;opacity:0.41;fill:#ffffff;stroke:#ffffff;stroke-opacity:1;font-family:Open Sans;-inkscape-font-specification:Open Sans Bold;fill-opacity:1"
       d="m 16.5,18.4685 c -1.119632,1.1e-5 -2.0706,0.225904 -2.90625,0.71875 -0.830347,0.48751 -1.492868,1.203582 -1.9375,2.125 C 11.211617,22.22833 11,23.309578 11,24.531 c 0,1.939289 0.438382,3.429467 1.34375,4.46875 0.905368,1.033929 2.228496,1.531249 3.9375,1.53125 1.189253,-10e-7 2.254464,-0.191964 3.21875,-0.59375 l 0,-2.09375 c -1.173246,0.412502 -2.174957,0.625002 -3,0.625 -1.966082,2e-6 -2.9375,-1.317854 -2.9375,-3.9375 0,-1.258922 0.266996,-2.235706 0.78125,-2.9375 0.514253,-0.707134 1.218772,-1.06249 2.15625,-1.0625 0.428625,10e-6 0.867771,0.09465 1.3125,0.25 0.444632,0.155367 0.904421,0.322331 1.34375,0.53125 L 19.9375,19.281 C 18.785661,18.729226 17.641136,18.468511 16.5,18.4685 z m 8.90625,0 c -1.242868,1.1e-5 -2.230292,0.280368 -2.9375,0.875 -0.70171,0.594653 -1.0625,1.429474 -1.0625,2.46875 0,0.551793 0.129485,1.025007 0.34375,1.4375 0.214264,0.412507 0.484747,0.783042 0.84375,1.09375 0.358907,0.31072 0.907089,0.631256 1.625,0.96875 0.766028,0.364291 1.253528,0.615184 1.5,0.78125 0.251775,0.166076 0.465211,0.349111 0.59375,0.53125 0.128247,0.176789 0.1875,0.394646 0.1875,0.625 0,0.412503 -0.142814,0.697324 -0.4375,0.90625 -0.289286,0.208931 -0.70354,0.312502 -1.25,0.3125 -0.455336,2e-6 -0.979389,-0.0741 -1.53125,-0.21875 -0.546364,-0.144641 -1.207164,-0.365176 -2,-0.71875 l 0,2.3125 c 0.964286,0.471428 2.058928,0.687499 3.3125,0.6875 1.360703,-10e-7 2.426775,-0.295535 3.1875,-0.90625 0.766029,-0.610712 1.15625,-1.439283 1.15625,-2.5 0,-0.766067 -0.217878,-1.412496 -0.625,-1.9375 -0.407121,-0.530351 -1.151872,-1.068744 -2.25,-1.59375 C 25.232153,23.197078 24.693718,22.931007 24.46875,22.781 24.249086,22.625651 24.101829,22.472972 24,22.31225 23.898464,22.146187 23.84375,21.938152 23.84375,21.7185 c 0,-0.353562 0.123225,-0.624099 0.375,-0.84375 0.251775,-0.219634 0.622311,-0.34374 1.09375,-0.34375 0.396418,10e-6 0.811629,0.05448 1.21875,0.15625 0.412522,0.101796 0.904464,0.274116 1.53125,0.53125 L 28.875,19.281 c -0.605378,-0.262488 -1.192836,-0.449096 -1.75,-0.59375 -0.551765,-0.144634 -1.108068,-0.218739 -1.71875,-0.21875 z m 9.0625,0 c -1.242867,1.1e-5 -2.230293,0.280368 -2.9375,0.875 -0.701711,0.594653 -1.0625,1.429474 -1.0625,2.46875 0,0.551793 0.129486,1.025007 0.34375,1.4375 0.214265,0.412507 0.484746,0.783042 0.84375,1.09375 0.358907,0.31072 0.90709,0.631256 1.625,0.96875 0.766029,0.364291 1.253529,0.615184 1.5,0.78125 0.251775,0.166076 0.465211,0.349111 0.59375,0.53125 0.128247,0.176789 0.1875,0.394646 0.1875,0.625 0,0.412503 -0.142814,0.697324 -0.4375,0.90625 -0.289286,0.208931 -0.703539,0.312502 -1.25,0.3125 -0.455335,2e-6 -0.979389,-0.0741 -1.53125,-0.21875 -0.546364,-0.144641 -1.207165,-0.365176 -2,-0.71875 l 0,2.3125 c 0.964285,0.471428 2.058929,0.687499 3.3125,0.6875 1.360704,-10e-7 2.426775,-0.295535 3.1875,-0.90625 C 37.609779,29.014038 38,28.185467 38,27.12475 c 0,-0.766067 -0.217879,-1.412496 -0.625,-1.9375 -0.407122,-0.530351 -1.151871,-1.068744 -2.25,-1.59375 -0.830346,-0.396422 -1.337533,-0.662493 -1.5625,-0.8125 -0.219665,-0.155349 -0.398172,-0.308028 -0.5,-0.46875 -0.101537,-0.166063 -0.15625,-0.374098 -0.15625,-0.59375 0,-0.353562 0.123225,-0.624099 0.375,-0.84375 0.251775,-0.219634 0.622311,-0.34374 1.09375,-0.34375 0.396418,10e-6 0.811629,0.05448 1.21875,0.15625 0.412522,0.101796 0.904464,0.274116 1.53125,0.53125 l 0.8125,-1.9375 c -0.605378,-0.262488 -1.192835,-0.449096 -1.75,-0.59375 -0.551764,-0.144634 -1.108067,-0.218739 -1.71875,-0.21875 z"
       id="path4109"
       inkscape:connector-curvature="0" />
    <path
       style="font-size:17.06666755999999907px;font-style:normal;font-variant:normal;font-weight:bold;font-stretch:normal;line-height:125%;letter-spacing:0px;word-spacing:0px;fill:url(#linearGradient4093);fill-opacity:1;stroke:none;font-family:Open Sans;-inkscape-font-specification:Open Sans Bold"
       d="M 16.5 17.46875 C 15.380368 17.468761 14.4294 17.694654 13.59375 18.1875 C 12.763403 18.67501 12.100882 19.391082 11.65625 20.3125 C 11.211617 21.22858 11 22.309828 11 23.53125 C 11 25.470539 11.438382 26.960717 12.34375 28 C 13.249118 29.033929 14.572246 29.531249 16.28125 29.53125 C 17.470503 29.531249 18.535714 29.339286 19.5 28.9375 L 19.5 26.84375 C 18.326754 27.256252 17.325043 27.468752 16.5 27.46875 C 14.533918 27.468752 13.5625 26.150896 13.5625 23.53125 C 13.5625 22.272328 13.829496 21.295544 14.34375 20.59375 C 14.858003 19.886616 15.562522 19.53126 16.5 19.53125 C 16.928625 19.53126 17.367771 19.625903 17.8125 19.78125 C 18.257132 19.936617 18.716921 20.103581 19.15625 20.3125 L 19.9375 18.28125 C 18.785661 17.729476 17.641136 17.468761 16.5 17.46875 z M 25.40625 17.46875 C 24.163382 17.468761 23.175958 17.749118 22.46875 18.34375 C 21.76704 18.938403 21.40625 19.773224 21.40625 20.8125 C 21.40625 21.364293 21.535735 21.837507 21.75 22.25 C 21.964264 22.662507 22.234747 23.033042 22.59375 23.34375 C 22.952657 23.65447 23.500839 23.975006 24.21875 24.3125 C 24.984778 24.676791 25.472278 24.927684 25.71875 25.09375 C 25.970525 25.259826 26.183961 25.442861 26.3125 25.625 C 26.440747 25.801789 26.5 26.019646 26.5 26.25 C 26.5 26.662503 26.357186 26.947324 26.0625 27.15625 C 25.773214 27.365181 25.35896 27.468752 24.8125 27.46875 C 24.357164 27.468752 23.833111 27.394645 23.28125 27.25 C 22.734886 27.105359 22.074086 26.884824 21.28125 26.53125 L 21.28125 28.84375 C 22.245536 29.315178 23.340178 29.531249 24.59375 29.53125 C 25.954453 29.531249 27.020525 29.235715 27.78125 28.625 C 28.547279 28.014288 28.9375 27.185717 28.9375 26.125 C 28.9375 25.358933 28.719622 24.712504 28.3125 24.1875 C 27.905379 23.657149 27.160628 23.118756 26.0625 22.59375 C 25.232153 22.197328 24.693718 21.931257 24.46875 21.78125 C 24.249086 21.625901 24.101829 21.473222 24 21.3125 C 23.898464 21.146437 23.84375 20.938402 23.84375 20.71875 C 23.84375 20.365188 23.966975 20.094651 24.21875 19.875 C 24.470525 19.655366 24.841061 19.53126 25.3125 19.53125 C 25.708918 19.53126 26.124129 19.585725 26.53125 19.6875 C 26.943772 19.789296 27.435714 19.961616 28.0625 20.21875 L 28.875 18.28125 C 28.269622 18.018762 27.682164 17.832154 27.125 17.6875 C 26.573235 17.542866 26.016932 17.468761 25.40625 17.46875 z M 34.46875 17.46875 C 33.225883 17.468761 32.238457 17.749118 31.53125 18.34375 C 30.829539 18.938403 30.46875 19.773224 30.46875 20.8125 C 30.46875 21.364293 30.598236 21.837507 30.8125 22.25 C 31.026765 22.662507 31.297246 23.033042 31.65625 23.34375 C 32.015157 23.65447 32.56334 23.975006 33.28125 24.3125 C 34.047279 24.676791 34.534779 24.927684 34.78125 25.09375 C 35.033025 25.259826 35.246461 25.442861 35.375 25.625 C 35.503247 25.801789 35.5625 26.019646 35.5625 26.25 C 35.5625 26.662503 35.419686 26.947324 35.125 27.15625 C 34.835714 27.365181 34.421461 27.468752 33.875 27.46875 C 33.419665 27.468752 32.895611 27.394645 32.34375 27.25 C 31.797386 27.105359 31.136585 26.884824 30.34375 26.53125 L 30.34375 28.84375 C 31.308035 29.315178 32.402679 29.531249 33.65625 29.53125 C 35.016954 29.531249 36.083025 29.235715 36.84375 28.625 C 37.609779 28.014288 38 27.185717 38 26.125 C 38 25.358933 37.782121 24.712504 37.375 24.1875 C 36.967878 23.657149 36.223129 23.118756 35.125 22.59375 C 34.294654 22.197328 33.787467 21.931257 33.5625 21.78125 C 33.342835 21.625901 33.164328 21.473222 33.0625 21.3125 C 32.960963 21.146437 32.90625 20.938402 32.90625 20.71875 C 32.90625 20.365188 33.029475 20.094651 33.28125 19.875 C 33.533025 19.655366 33.903561 19.53126 34.375 19.53125 C 34.771418 19.53126 35.186629 19.585725 35.59375 19.6875 C 36.006272 19.789296 36.498214 19.961616 37.125 20.21875 L 37.9375 18.28125 C 37.332122 18.018762 36.744665 17.832154 36.1875 17.6875 C 35.635736 17.542866 35.079433 17.468761 34.46875 17.46875 z "
       id="path9908" />
    <path
       id="path4107"
       d="M 16.5 17.46875 C 15.380368 17.468761 14.4294 17.694654 13.59375 18.1875 C 12.763403 18.67501 12.100882 19.391082 11.65625 20.3125 C 11.211617 21.22858 11 22.309828 11 23.53125 C 11 25.470539 11.438382 26.960717 12.34375 28 C 13.249118 29.033929 14.572246 29.531249 16.28125 29.53125 C 17.470503 29.531249 18.535714 29.339286 19.5 28.9375 L 19.5 26.84375 C 18.326754 27.256252 17.325043 27.468752 16.5 27.46875 C 14.533918 27.468752 13.5625 26.150896 13.5625 23.53125 C 13.5625 22.272328 13.829496 21.295544 14.34375 20.59375 C 14.858003 19.886616 15.562522 19.53126 16.5 19.53125 C 16.928625 19.53126 17.367771 19.625903 17.8125 19.78125 C 18.257132 19.936617 18.716921 20.103581 19.15625 20.3125 L 19.9375 18.28125 C 18.785661 17.729476 17.641136 17.468761 16.5 17.46875 z M 25.40625 17.46875 C 24.163382 17.468761 23.175958 17.749118 22.46875 18.34375 C 21.76704 18.938403 21.40625 19.773224 21.40625 20.8125 C 21.40625 21.364293 21.535735 21.837507 21.75 22.25 C 21.964264 22.662507 22.234747 23.033042 22.59375 23.34375 C 22.952657 23.65447 23.500839 23.975006 24.21875 24.3125 C 24.984778 24.676791 25.472278 24.927684 25.71875 25.09375 C 25.970525 25.259826 26.183961 25.442861 26.3125 25.625 C 26.440747 25.801789 26.5 26.019646 26.5 26.25 C 26.5 26.662503 26.357186 26.947324 26.0625 27.15625 C 25.773214 27.365181 25.35896 27.468752 24.8125 27.46875 C 24.357164 27.468752 23.833111 27.394645 23.28125 27.25 C 22.734886 27.105359 22.074086 26.884824 21.28125 26.53125 L 21.28125 28.84375 C 22.245536 29.315178 23.340178 29.531249 24.59375 29.53125 C 25.954453 29.531249 27.020525 29.235715 27.78125 28.625 C 28.547279 28.014288 28.9375 27.185717 28.9375 26.125 C 28.9375 25.358933 28.719622 24.712504 28.3125 24.1875 C 27.905379 23.657149 27.160628 23.118756 26.0625 22.59375 C 25.232153 22.197328 24.693718 21.931257 24.46875 21.78125 C 24.249086 21.625901 24.101829 21.473222 24 21.3125 C 23.898464 21.146437 23.84375 20.938402 23.84375 20.71875 C 23.84375 20.365188 23.966975 20.094651 24.21875 19.875 C 24.470525 19.655366 24.841061 19.53126 25.3125 19.53125 C 25.708918 19.53126 26.124129 19.585725 26.53125 19.6875 C 26.943772 19.789296 27.435714 19.961616 28.0625 20.21875 L 28.875 18.28125 C 28.269622 18.018762 27.682164 17.832154 27.125 17.6875 C 26.573235 17.542866 26.016932 17.468761 25.40625 17.46875 z M 34.46875 17.46875 C 33.225883 17.468761 32.238457 17.749118 31.53125 18.34375 C 30.829539 18.938403 30.46875 19.773224 30.46875 20.8125 C 30.46875 21.364293 30.598236 21.837507 30.8125 22.25 C 31.026765 22.662507 31.297246 23.033042 31.65625 23.34375 C 32.015157 23.65447 32.56334 23.975006 33.28125 24.3125 C 34.047279 24.676791 34.534779 24.927684 34.78125 25.09375 C 35.033025 25.259826 35.246461 25.442861 35.375 25.625 C 35.503247 25.801789 35.5625 26.019646 35.5625 26.25 C 35.5625 26.662503 35.419686 26.947324 35.125 27.15625 C 34.835714 27.365181 34.421461 27.468752 33.875 27.46875 C 33.419665 27.468752 32.895611 27.394645 32.34375 27.25 C 31.797386 27.105359 31.136585 26.884824 30.34375 26.53125 L 30.34375 28.84375 C 31.308035 29.315178 32.402679 29.531249 33.65625 29.53125 C 35.016954 29.531249 36.083025 29.235715 36.84375 28.625 C 37.609779 28.014288 38 27.185717 38 26.125 C 38 25.358933 37.782121 24.712504 37.375 24.1875 C 36.967878 23.657149 36.223129 23.118756 35.125 22.59375 C 34.294654 22.197328 33.787467 21.931257 33.5625 21.78125 C 33.342835 21.625901 33.164328 21.473222 33.0625 21.3125 C 32.960963 21.146437 32.90625 20.938402 32.90625 20.71875 C 32.90625 20.365188 33.029475 20.094651 33.28125 19.875 C 33.533025 19.655366 33.903561 19.53126 34.375 19.53125 C 34.771418 19.53126 35.186629 19.585725 35.59375 19.6875 C 36.006272 19.789296 36.498214 19.961616 37.125 20.21875 L 37.9375 18.28125 C 37.332122 18.018762 36.744665 17.832154 36.1875 17.6875 C 35.635736 17.542866 35.079433 17.468761 34.46875 17.46875 z "
       style="font-size:17.06666755999999907px;font-style:normal;font-variant:normal;font-weight:bold;font-stretch:normal;line-height:125%;letter-spacing:0px;word-spacing:0px;fill:none;fill-opacity:1;stroke:#007700;font-family:Open Sans;-inkscape-font-specification:Open Sans Bold;stroke-opacity:1;opacity:0.61" />
  </g>
</svg>
