<?xml version="1.0" encoding="UTF-8" standalone="no"?>
<svg
   xmlns:dc="http://purl.org/dc/elements/1.1/"
   xmlns:cc="http://creativecommons.org/ns#"
   xmlns:rdf="http://www.w3.org/1999/02/22-rdf-syntax-ns#"
   xmlns:svg="http://www.w3.org/2000/svg"
   xmlns="http://www.w3.org/2000/svg"
   xmlns:xlink="http://www.w3.org/1999/xlink"
   id="svg3759"
   height="48"
   width="48"
   version="1.1">
  <metadata
     id="metadata37">
    <rdf:RDF>
      <cc:Work
         rdf:about="">
        <dc:format>image/svg+xml</dc:format>
        <dc:type
           rdf:resource="http://purl.org/dc/dcmitype/StillImage" />
        <dc:title />
      </cc:Work>
    </rdf:RDF>
  </metadata>
  <defs
     id="defs3761">
    <linearGradient
       gradientUnits="userSpaceOnUse"
       y2="256"
       x2="827"
       y1="256"
       x1="789"
       id="linearGradient4140"
       xlink:href="#linearGradient4134" />
    <linearGradient
       id="linearGradient4134">
      <stop
         id="stop4136"
         offset="0"
         style="stop-color:#ffffff;stop-opacity:1;" />
      <stop
         id="stop4138"
         offset="1"
         style="stop-color:#ffffff;stop-opacity:0;" />
    </linearGradient>
    <clipPath
       id="clipPath4130"
       clipPathUnits="userSpaceOnUse">
      <path
         style="fill:#ba2222;fill-opacity:1;stroke:none"
         d="M 790.4375,237 C 789.62555,237 789,237.62555 789,238.4375 l 0,35.09375 c 0,0.812 0.62555,1.46875 1.4375,1.46875 l 35.125,0 c 0.81195,0 1.4375,-0.65675 1.4375,-1.46875 l 0,-35.09375 C 827,237.62555 826.37445,237 825.5625,237 l -35.125,0 z"
         id="path4132" />
    </clipPath>
    <linearGradient
       id="linearGradient3960">
      <stop
         id="stop3962"
         offset="0"
         style="stop-color:#000000;stop-opacity:0;" />
      <stop
         style="stop-color:#000000;stop-opacity:1;"
         offset="0.5"
         id="stop3970" />
      <stop
         id="stop3964"
         offset="1"
         style="stop-color:#000000;stop-opacity:0;" />
    </linearGradient>
    <linearGradient
       id="linearGradient3952">
      <stop
         id="stop3954"
         offset="0"
         style="stop-color:#000000;stop-opacity:1;" />
      <stop
         id="stop3956"
         offset="1"
         style="stop-color:#000000;stop-opacity:0;" />
    </linearGradient>
    <linearGradient
       id="linearGradient3944">
      <stop
         id="stop3946"
         offset="0"
         style="stop-color:#000000;stop-opacity:1;" />
      <stop
         id="stop3948"
         offset="1"
         style="stop-color:#000000;stop-opacity:0;" />
    </linearGradient>
    <linearGradient
       id="outerBackgroundGradient-5-8">
      <stop
         id="stop3864-8-6-7"
         offset="0"
         style="stop-color:#4b384c;stop-opacity:1;" />
      <stop
         id="stop3866-9-1-1"
         offset="1"
         style="stop-color:#615962;stop-opacity:1;" />
    </linearGradient>
    <linearGradient
       xlink:href="#outerBackgroundGradient-5-8"
       id="linearGradient3048"
       gradientUnits="userSpaceOnUse"
       gradientTransform="translate(980.3622,784)"
       x1="-1023.8622"
       y1="-808"
       x2="-984.86218"
       y2="-808" />
    <radialGradient
       r="2"
       fy="43.5"
       fx="40"
       cy="43.5"
       cx="40"
       gradientTransform="matrix(1.0571429,0,0,1.25,0.6,-10.875)"
       gradientUnits="userSpaceOnUse"
       id="radialGradient3167"
       xlink:href="#linearGradient3952" />
    <radialGradient
       r="2"
       fy="43.5"
       fx="40"
       cy="43.5"
       cx="40"
       gradientTransform="matrix(1,0,0,0.75,2,10.875)"
       gradientUnits="userSpaceOnUse"
       id="radialGradient3169"
       xlink:href="#linearGradient3952" />
    <radialGradient
       r="2"
       fy="43.5"
       fx="9"
       cy="43.5"
       cx="9"
       gradientTransform="matrix(1.0571429,0,0,1.25,-4.4000003,-10.875)"
       gradientUnits="userSpaceOnUse"
       id="radialGradient3171"
       xlink:href="#linearGradient3944" />
    <radialGradient
       r="2"
       fy="43.5"
       fx="9"
       cy="43.5"
       cx="9"
       gradientTransform="matrix(1,0,0,0.75,-3.0000003,10.875)"
       gradientUnits="userSpaceOnUse"
       id="radialGradient3173"
       xlink:href="#linearGradient3944" />
    <linearGradient
       y2="42"
       x2="25"
       y1="45"
       x1="25"
       gradientTransform="matrix(1.0571429,0,0,1.6666667,-5.4000003,-29)"
       gradientUnits="userSpaceOnUse"
       id="linearGradient3175"
       xlink:href="#linearGradient3960" />
    <linearGradient
       y2="42"
       x2="25"
       y1="45"
       x1="25"
       gradientTransform="translate(-4.0000003,0)"
       gradientUnits="userSpaceOnUse"
       id="linearGradient3178"
       xlink:href="#linearGradient3960" />
  </defs>
  <g
     id="layer1">
    <g
       transform="translate(0,-2)"
       id="g3145">
      <path
         id="path3987"
         d="m 42.885716,41.000001 0,5 0.528571,0 c 0.878486,0 1.585715,-1.115 1.585715,-2.5 0,-1.385 -0.707229,-2.5 -1.585715,-2.5 l -0.528571,0 z"
         style="opacity:0.12000002;fill:url(#radialGradient3167);fill-opacity:1;stroke:none" />
      <path
         style="opacity:0.12000002;fill:url(#radialGradient3169);fill-opacity:1;stroke:none"
         d="m 42,42 0,3 0.5,0 C 43.331,45 44,44.331 44,43.5 44,42.669 43.331,42 42.5,42 L 42,42 z"
         id="rect3940" />
      <path
         id="path3989"
         d="M 4.4866072,41.000001 C 3.6630268,41.000001 3,42.045313 3,43.343751 l 0,0.3125 c 0,1.298439 0.6630268,2.34375 1.4866072,2.34375 l 0.6276786,0 0,-5 -0.6276786,0 z"
         style="opacity:0.12000002;fill:url(#radialGradient3171);fill-opacity:1;stroke:none" />
      <path
         style="opacity:0.12000002;fill:url(#radialGradient3173);fill-opacity:1;stroke:none"
         d="m 5.4062497,42 c -0.7790625,0 -1.40625,0.627187 -1.40625,1.40625 l 0,0.1875 c 0,0.779063 0.6271875,1.40625 1.40625,1.40625 l 0.59375,0 0,-3 -0.59375,0 z"
         id="rect3942" />
      <path
         style="opacity:0.12000002;fill:url(#linearGradient3175);fill-opacity:1;stroke:none"
         d="m 5.1141432,41 37.7717148,0 0,5 -37.7717148,0 z"
         id="rect3985" />
      <path
         style="opacity:0.12000002;fill:url(#linearGradient3178);fill-opacity:1;stroke:none"
         d="m 5.9998568,42 36.0002842,0 0,3 -36.0002842,0 z"
         id="rect3938" />
    </g>
    <path
       id="rect4073-3"
       d="m -39.550003,-43.5 31.1000056,0 C -7.3696989,-43.5 -6.5,-42.6303 -6.5,-41.55 l 0,35.1 c 0,1.0803 -0.8696989,1.95 -1.9499974,1.95 l -31.1000056,0 C -40.630301,-4.5 -41.5,-5.3697 -41.5,-6.45 l 0,-35.1 c 0,-1.0803 0.869699,-1.95 1.949997,-1.95 z"
       style="fill:url(#linearGradient3048);fill-opacity:1;stroke:none;display:inline"
       transform="matrix(0,-1,-1,0,0,0)" />
    <path
       id="rect4085"
       d="m -39.550003,-43.5 31.1000056,0 C -7.3696989,-43.5 -6.5,-42.6303 -6.5,-41.55 l 0,35.1 c 0,1.0803 -0.8696989,1.95 -1.9499974,1.95 l -31.1000056,0 C -40.630301,-4.5 -41.5,-5.3697 -41.5,-6.45 l 0,-35.1 c 0,-1.0803 0.869699,-1.95 1.949997,-1.95 z"
       style="opacity:0.61000001;fill:none;stroke:#000000;stroke-opacity:1;display:inline"
       transform="matrix(0,-1,-1,0,0,0)" />
    <path
       id="rect4089-4"
       d="M 6.4375,7.00002 C 5.62555,7.00002 5,7.62557 5,8.43752 l 0,1 C 5,8.62557 5.62555,8.00002 6.4375,8.00002 l 35.125,0 c 0.81195,0 1.4375,0.62555 1.4375,1.4375 l 0,-1 c 0,-0.81195 -0.62555,-1.4375 -1.4375,-1.4375 z"
       style="opacity:0.15;fill:#ffffff;fill-opacity:1;stroke:none;display:inline" />
    <path
       clip-path="url(#clipPath4130)"
       id="path4128"
       d="M 792.4375,237 C 791.62555,237 791,237.62555 791,238.4375 l 0,35.09375 c 0,0.812 0.62555,1.46875 1.4375,1.46875 l 31.125,0 c 0.81195,0 1.4375,-0.65675 1.4375,-1.46875 l 0,-35.09375 C 825,237.62555 824.37445,237 823.5625,237 z"
       style="opacity:0.1;fill:none;stroke:url(#linearGradient4140);stroke-width:2;stroke-miterlimit:4;stroke-opacity:1;stroke-dasharray:none;display:inline"
       transform="matrix(0,1,-1,0,280,-784)" />
    <path
       style="opacity:0.1;fill:#ffffff;fill-opacity:1;stroke:none;display:inline"
       d="M 6.4375,41.000017 C 5.62555,41.000017 5,40.374417 5,39.562517 L 5,38.56252 c 0,0.811897 0.62555,1.437497 1.4375,1.437497 l 35.125,0 c 0.81195,0 1.4375,-0.6256 1.4375,-1.437497 l 0,0.999997 c 0,0.8119 -0.62555,1.4375 -1.4375,1.4375 z"
       id="path4105" />
  </g>
  <g
     id="layer2">
    <path
       style="opacity:0.05;fill:none;stroke:#ffffff;stroke-width:4;stroke-linecap:butt;stroke-linejoin:round;stroke-miterlimit:4;stroke-opacity:1;stroke-dasharray:none;display:inline"
       d="m 16,32 0,-16 16,8 z"
       id="path4775" />
    <path
       id="path4789"
       d="m 16,32 0,-16 16,8 z"
       style="opacity:0.1;fill:none;stroke:#ffffff;stroke-width:2;stroke-linecap:butt;stroke-linejoin:round;stroke-miterlimit:4;stroke-opacity:1;stroke-dasharray:none;display:inline" />
    <path
       id="path4733"
       d="m 16,32 0,-16 16,8 z"
       style="fill:#ffffff;fill-opacity:1;stroke:none;display:inline" />
  </g>
</svg>
