<?xml version="1.0" encoding="UTF-8" standalone="no"?>
<svg xmlns="http://www.w3.org/2000/svg" xmlns:xlink="http://www.w3.org/1999/xlink" xmlns:sodipodi="http://sodipodi.sourceforge.net/DTD/sodipodi-0.dtd" xmlns:inkscape="http://www.inkscape.org/namespaces/inkscape" version="1.1" width="48" height="48">
 <metadata id="metadata37"/>
 <defs id="defs3761">
  <linearGradient inkscape:collect="always" id="linearGradient3914">
   <stop id="stop3916" stop-color="#ffffff"/>
   <stop offset="1" id="stop3918" stop-color="#ffffff" stop-opacity="0"/>
  </linearGradient>
  <linearGradient id="linearGradient3960">
   <stop id="stop3962" stop-opacity="0"/>
   <stop id="stop3970" offset="0.5"/>
   <stop offset="1" id="stop3964" stop-opacity="0"/>
  </linearGradient>
  <linearGradient inkscape:collect="always" id="linearGradient3952">
   <stop id="stop3954"/>
   <stop offset="1" id="stop3956" stop-opacity="0"/>
  </linearGradient>
  <linearGradient id="linearGradient3988-5">
   <stop id="stop3990-5" stop-color="#e8e8e8"/>
   <stop offset="1" id="stop3992-0" stop-color="#f0f0f0"/>
  </linearGradient>
  <linearGradient inkscape:collect="always" xlink:href="#linearGradient3988-5" id="linearGradient3142" gradientUnits="userSpaceOnUse" gradientTransform="matrix(-0.175,0,0,0.175,49.20002,-5.0000326)" y1="280" x2="0" y2="40"/>
  <linearGradient inkscape:collect="always" xlink:href="#linearGradient3914" id="linearGradient3920" y1="0" x2="0" y2="48" gradientUnits="userSpaceOnUse"/>
  <radialGradient inkscape:collect="always" xlink:href="#linearGradient3952" id="radialGradient3925" gradientUnits="userSpaceOnUse" gradientTransform="matrix(1,0,0,0.75,-1.0000003,10.875)" cx="9" cy="43.5" r="2"/>
  <radialGradient inkscape:collect="always" xlink:href="#linearGradient3952" id="radialGradient3928" gradientUnits="userSpaceOnUse" gradientTransform="matrix(1,0,0,0.75,-3e-7,10.875)" cx="40" cy="43.5" r="2"/>
  <linearGradient inkscape:collect="always" xlink:href="#linearGradient3960" id="linearGradient3931" gradientUnits="userSpaceOnUse" y1="45" x2="0" y2="42" gradientTransform="matrix(1.0305144,0,0,1,-1.2476025,0)"/>
  <radialGradient inkscape:collect="always" xlink:href="#linearGradient3952" id="radialGradient3934" gradientUnits="userSpaceOnUse" gradientTransform="matrix(1.0571429,0,0,1.25,-2.4000003,-10.875)" cx="9" cy="43.5" r="2"/>
  <radialGradient inkscape:collect="always" xlink:href="#linearGradient3952" id="radialGradient3937" gradientUnits="userSpaceOnUse" gradientTransform="matrix(1.0571429,0,0,1.25,-1.4000003,-10.875)" cx="40" cy="43.5" r="2"/>
  <linearGradient inkscape:collect="always" xlink:href="#linearGradient3960" id="linearGradient3940" gradientUnits="userSpaceOnUse" y1="45" x2="0" y2="42" gradientTransform="matrix(1.0894009,0,0,1.6666667,-2.6903226,-29)"/>
  <linearGradient y2="-984" x2="0" y1="-939" gradientTransform="matrix(1.0833333,0,0,0.88888892,-330.50001,878.16672)" gradientUnits="userSpaceOnUse" id="linearGradient3886" xlink:href="#linearGradient20553" inkscape:collect="always"/>
  <linearGradient id="linearGradient20553">
   <stop id="stop20555" stop-color="#a348b1"/>
   <stop offset="1" id="stop20557" stop-color="#bf7bca"/>
  </linearGradient>
  <linearGradient y2="-984" x2="0" y1="-939" gradientTransform="matrix(1.0833333,0,0,0.88888892,-269.25001,808.66672)" gradientUnits="userSpaceOnUse" id="linearGradient4136" xlink:href="#linearGradient20553" inkscape:collect="always"/>
  <linearGradient inkscape:collect="always" xlink:href="#linearGradient20553" id="linearGradient3996" y1="44" x2="0" y2="4" gradientUnits="userSpaceOnUse"/>
 </defs>
 <g inkscape:groupmode="layer" id="layer1" inkscape:label="Background">
  <g id="g3942">
   <rect id="rect3985" width="33.771" height="5" x="7.114" y="41" opacity="0.12" fill="url(#linearGradient3940)"/>
   <path d="m 40.885716,41.000001 0,5 0.528571,0 c 0.878486,0 1.585715,-1.115 1.585715,-2.5 0,-1.385 -0.707229,-2.5 -1.585715,-2.5 l -0.528571,0 z" id="path3987" inkscape:connector-curvature="0" opacity="0.12" fill="url(#radialGradient3937)"/>
   <path d="M 6.4866072,41.000001 C 5.6630268,41.000001 5,42.045313 5,43.343751 l 0,0.3125 c 0,1.298439 0.6630268,2.34375 1.4866072,2.34375 l 0.6276786,0 0,-5 -0.6276786,0 z" id="path3989" inkscape:connector-curvature="0" opacity="0.12" fill="url(#radialGradient3934)"/>
   <rect y="42" x="8.03" height="3" width="31.946" id="rect3938" opacity="0.12" fill="url(#linearGradient3931)"/>
   <path id="rect3940" d="m 40,42 0,3 0.5,0 C 41.331,45 42,44.331 42,43.5 42,42.669 41.331,42 40.5,42 L 40,42 z" inkscape:connector-curvature="0" opacity="0.12" fill="url(#radialGradient3928)"/>
   <path id="rect3942" d="m 7.4062497,42 c -0.7790625,0 -1.40625,0.627187 -1.40625,1.40625 l 0,0.1875 c 0,0.779063 0.6271875,1.40625 1.40625,1.40625 l 0.59375,0 0,-3 -0.59375,0 z" inkscape:connector-curvature="0" opacity="0.12" fill="url(#radialGradient3925)"/>
  </g>
  <path d="M 7.5 3.5 L 7.5 4 L 7.5 43 L 7.5 43.5 L 8 43.5 L 40 43.5 L 40.5 43.5 L 40.5 43 L 40.5 4 L 40.5 3.5 L 40 3.5 L 8 3.5 L 7.5 3.5 z " id="rect3882" fill="url(#linearGradient3142)" color="#bebebe" stroke-width="0"/>
  <path d="m 7.5,3.5 0,4 0,36 5.5,0 0,-35.5 27.5,0 0,-4.5 -28,0 z" id="rect3955" inkscape:connector-curvature="0" sodipodi:nodetypes="ccccccccc" fill="url(#linearGradient3996)"/>
  <path id="path3893" d="M 40,4 8,4 8,43 40,43 z M 39,5 39,42 9,42 9,5 z" inkscape:connector-curvature="0" sodipodi:nodetypes="cccccccccc" opacity="0.1" fill="url(#linearGradient3920)"/>
  <rect id="rect3144" width="32" height="1" x="8" y="4" opacity="0.1" fill="#ffffff" stroke-linecap="square"/>
  <rect y="42" x="8" height="1" width="32" id="rect3922" opacity="0.1" fill="#ffffff"/>
  <path id="path3968" d="M 7.5 3.5 L 7.5 4 L 7.5 43 L 7.5 43.5 L 8 43.5 L 40 43.5 L 40.5 43.5 L 40.5 43 L 40.5 4 L 40.5 3.5 L 40 3.5 L 8 3.5 L 7.5 3.5 z " opacity="0.41" fill="none" stroke="#000000" color="#bebebe"/>
  <rect id="rect4003" width="5.5" height="4.499" x="7.5" y="3.501" opacity="0.2"/>
 </g>
 <g inkscape:groupmode="layer" id="layer2" inkscape:label="Symbol">
  <path d="M 12 4 L 12 7 L 8 7 L 8 8 L 12 8 L 12 12 L 8 12 L 8 13 L 12 13 L 12 17 L 8 17 L 8 18 L 12 18 L 12 22 L 8 22 L 8 23 L 12 23 L 12 27 L 8 27 L 8 28 L 12 28 L 12 32 L 8 32 L 8 33 L 12 33 L 12 37 L 8 37 L 8 38 L 12 38 L 12 43 L 13 43 L 13 38 L 20 38 L 20 43 L 21 43 L 21 38 L 28 38 L 28 43 L 29 43 L 29 38 L 36 38 L 36 43 L 37 43 L 37 38 L 40 38 L 40 37 L 37 37 L 37 33 L 40 33 L 40 32 L 37 32 L 37 28 L 40 28 L 40 27 L 37 27 L 37 23 L 40 23 L 40 22 L 37 22 L 37 18 L 40 18 L 40 17 L 37 17 L 37 13 L 40 13 L 40 12 L 37 12 L 37 8 L 40 8 L 40 7 L 37 7 L 37 4 L 36 4 L 36 7 L 29 7 L 29 4 L 28 4 L 28 7 L 21 7 L 21 4 L 20 4 L 20 7 L 13 7 L 13 4 L 12 4 z M 13 8 L 20 8 L 20 12 L 13 12 L 13 8 z M 21 8 L 28 8 L 28 12 L 21 12 L 21 8 z M 29 8 L 36 8 L 36 12 L 29 12 L 29 8 z M 13 13 L 20 13 L 20 17 L 13 17 L 13 13 z M 21 13 L 28 13 L 28 17 L 21 17 L 21 13 z M 29 13 L 36 13 L 36 17 L 29 17 L 29 13 z M 13 18 L 20 18 L 20 22 L 13 22 L 13 18 z M 21 18 L 28 18 L 28 22 L 21 22 L 21 18 z M 29 18 L 36 18 L 36 22 L 29 22 L 29 18 z M 13 23 L 20 23 L 20 27 L 13 27 L 13 23 z M 21 23 L 28 23 L 28 27 L 21 27 L 21 23 z M 29 23 L 36 23 L 36 27 L 29 27 L 29 23 z M 13 28 L 20 28 L 20 32 L 13 32 L 13 28 z M 21 28 L 28 28 L 28 32 L 21 32 L 21 28 z M 29 28 L 36 28 L 36 32 L 29 32 L 29 28 z M 13 33 L 20 33 L 20 37 L 13 37 L 13 33 z M 21 33 L 28 33 L 28 37 L 21 37 L 21 33 z M 29 33 L 36 33 L 36 37 L 29 37 L 29 33 z " id="rect3209" opacity="0.2"/>
 </g>
</svg>
