<?xml version="1.0" encoding="UTF-8" standalone="no"?>
<svg xmlns="http://www.w3.org/2000/svg" xmlns:sodipodi="http://sodipodi.sourceforge.net/DTD/sodipodi-0.dtd" xmlns:inkscape="http://www.inkscape.org/namespaces/inkscape" width="24" height="24" version="1.1">
 <metadata id="metadata3401"/>
 <g id="layer1" inkscape:label="Layer 1" inkscape:groupmode="layer" transform="translate(0,8)">
  <path sodipodi:nodetypes="scsccsscscccccccccccccccscccccsccccccccccccscccscccc" inkscape:connector-curvature="0" d="m 6,-3 c -2,0 -2,2 -2,2 l 0,12 c 0,2 2,2 2,2 l 12,0 c 0,0 2,0 2,-2 l 0,-12 c 0,-2 -2,-2 -2,-2 z m 6.125,3.03125 c 0.39681,1e-5 0.76991,0.0287 1.09375,0.0625 0.32839,0.0338 0.62346,0.0671 0.90625,0.125 0.28278,0.058 0.56164,0.14149 0.8125,0.21875 C 15.18836,0.51 15.74457,0.76649 16,0.84375 L 16,3 15,3 14.9063,1.625 C 14.74665,1.50911 14.56661,1.41392 14.37505,1.3125 14.18348,1.2111 13.96898,1.1037 13.75005,1.03125 13.53568,0.95395 13.33097,0.91364 13.0938,0.875 12.86118,0.8315 12.61678,0.8125 12.37505,0.8125 11.90981,0.81251 11.49905,0.8599 11.12505,1 10.75104,1.13522 10.4254,1.38555 10.1563,1.71875 9.89175,2.04713 9.67725,2.47592 9.5313,3.03125 9.3899,3.58177 9.31255,4.26799 9.31255,5.09375 c 0,0.56017 0.0428,1.04862 0.125,1.46875 0.0821,0.42013 0.20235,0.78469 0.34375,1.09375 0.14139,0.30906 0.30843,0.5736 0.5,0.78125 0.19612,0.20282 0.40606,0.37927 0.625,0.5 0.22349,0.12073 0.44575,0.19688 0.6875,0.25 0.24173,0.0483 0.48157,0.0625 0.71875,0.0625 0.25997,0 0.5167,-0.019 0.78125,-0.0625 C 13.35833,9.1392 13.78111,9.07727 14.00005,9 l 0,-2.8125 -1,-0.1875 0,-1 4,0 0,1 -1,0.1875 0,3.15625 C 15.7355,9.43545 15.4222,9.5429 15.0938,9.625 c -0.32384,0.0773 -0.6488,0.12955 -1,0.1875 -0.35121,0.058 -0.70674,0.12245 -1.0625,0.15625 C 12.67548,10.00255 12.32839,10 12,10 11.27478,10 10.60662,9.89515 10,9.6875 9.39337,9.47502 8.87536,9.16047 8.4375,8.75 8.00419,8.3347 7.65255,7.82721 7.40625,7.21875 7.16451,6.61029 7,5.79679 7,5 7,4.15009 7.16907,3.53886 7.40625,2.90625 7.64342,2.26882 7.96839,1.73263 8.40625,1.3125 8.84868,0.88755 9.40637,0.58265 10.03125,0.375 10.66067,0.16253 11.34961,0.03126 12.125,0.03125 z" id="path4110" opacity="0.2" color="#000000" stroke-width="2"/>
  <path id="path3918" d="m 6,-4 c -2,0 -2,2 -2,2 l 0,12 c 0,2 2,2 2,2 l 12,0 c 0,0 2,0 2,-2 l 0,-12 c 0,-2 -2,-2 -2,-2 z m 6.125,3.03125 c 0.39681,10e-6 0.76991,0.0287 1.09375,0.0625 0.32839,0.0338 0.62346,0.0671 0.90625,0.125 0.28278,0.058 0.56164,0.14149 0.8125,0.21875 0.25086,0.0725 0.80707,0.32899 1.0625,0.40625 L 16,2 15,2 14.9063,0.625 C 14.74665,0.50911 14.56661,0.41392 14.37505,0.3125 14.18348,0.2111 13.96898,0.1037 13.75005,0.03125 13.53568,-0.04605 13.33097,-0.08636 13.0938,-0.125 c -0.23262,-0.0435 -0.47702,-0.0625 -0.71875,-0.0625 -0.46524,1e-5 -0.876,0.0474 -1.25,0.1875 C 10.75104,0.13522 10.4254,0.38555 10.1563,0.71875 9.89175,1.04713 9.67725,1.47592 9.5313,2.03125 9.3899,2.58177 9.31255,3.26799 9.31255,4.09375 c 0,0.56017 0.0428,1.04862 0.125,1.46875 0.0821,0.42013 0.20235,0.78469 0.34375,1.09375 0.14139,0.30906 0.30843,0.5736 0.5,0.78125 0.19612,0.20282 0.40606,0.37927 0.625,0.5 0.22349,0.12073 0.44575,0.19688 0.6875,0.25 0.24173,0.0483 0.48157,0.0625 0.71875,0.0625 0.25997,0 0.5167,-0.019 0.78125,-0.0625 C 13.35833,8.1392 13.78111,8.07727 14.00005,8 l 0,-2.8125 -1,-0.1875 0,-1 4,0 0,1 -1,0.1875 0,3.15625 C 15.7355,8.43545 15.4222,8.5429 15.0938,8.625 c -0.32384,0.0773 -0.6488,0.12955 -1,0.1875 -0.35121,0.058 -0.70674,0.12245 -1.0625,0.15625 C 12.67548,9.00255 12.32839,9 12,9 11.27478,9 10.60662,8.89515 10,8.6875 9.39337,8.47502 8.87536,8.16047 8.4375,7.75 8.00419,7.3347 7.65255,6.82721 7.40625,6.21875 7.16451,5.61029 7,4.79679 7,4 7,3.15009 7.16907,2.53886 7.40625,1.90625 c 0.23717,-0.63743 0.56214,-1.17362 1,-1.59375 0.44243,-0.42495 1.00012,-0.72985 1.625,-0.9375 0.62942,-0.21247 1.31836,-0.34374 2.09375,-0.34375 z" inkscape:connector-curvature="0" sodipodi:nodetypes="scsccsscscccccccccccccccscccccsccccccccccccscccscccc" fill="#ffffff" color="#000000" stroke-width="2"/>
 </g>
</svg>
