<?xml version="1.0" encoding="UTF-8" standalone="no"?>
<svg xmlns="http://www.w3.org/2000/svg" xmlns:sodipodi="http://sodipodi.sourceforge.net/DTD/sodipodi-0.dtd" xmlns:inkscape="http://www.inkscape.org/namespaces/inkscape" height="24" version="1.1" width="24" enable-background="new">
 <metadata id="metadata90"/>
 <defs id="defs7386">
  <linearGradient id="linearGradient5606" osb:paint="solid">
   <stop id="stop5608"/>
  </linearGradient>
  <filter inkscape:collect="always" color-interpolation-filters="sRGB" id="filter7554">
   <feBlend inkscape:collect="always" id="feBlend7556" in2="BackgroundImage" mode="darken"/>
  </filter>
 </defs>
 <g inkscape:groupmode="layer" id="layer12" inkscape:label="actions" transform="translate(-443.00018,411)">
  <path id="path4146" d="m 457.00018,-405.53125 0,1.03125 0,1.5 -2.5,0 -0.5,0 0,1 0.5,0 3,0 0.5,0 0,-0.5 0,-0.96875 3.71875,2.96875 -3.71875,2.96875 0,-0.96875 0,-0.5 -0.5,0 -2.5,0 -2,0 0,-1.5 0,-1.03125 -0.8125,0.65625 -5,4 -0.5,0.375 0.5,0.375 5,4 0.8125,0.65625 0,-1.03125 0,-1.5 2.5,0 0.5,0 0,-1 -0.5,0 -3,0 -0.5,0 0,0.5 0,0.96875 -3.71875,-2.96875 3.71875,-2.96875 0,0.96875 0,0.5 0.5,0 2.5,0 2,0 0,1.5 0,1.03125 0.0625,-0.0312 c 0.25416,-1.40198 1.46548,-2.5 2.9375,-2.5 0.0428,0 0.0826,-0.002 0.125,0 l 2.6875,-2.125 0.5,-0.375 -0.5,-0.375 -5,-4 -0.8125,-0.65625 z m 3,8.53125 c -1.108,0 -2,0.91085 -2,2.03125 l 0,0.96875 -1,0 0,1 0,2 0,1 1,0 4,0 1,0 0,-1 0,-2 0,-1 -1,0 0,-0.96875 c 0,-1.1199 -0.892,-2.03125 -2,-2.03125 z m 0,1 c 0.554,0 1,0.4424 1,1 l 0,1 -2,0 0,-1 c 0,-0.5576 0.446,-1 1,-1 z" inkscape:connector-curvature="0" opacity="0.2"/>
  <path d="M 14 4.46875 L 14 5.5 L 14 7 L 11.5 7 L 11 7 L 11 8 L 11.5 8 L 14.5 8 L 15 8 L 15 7.5 L 15 6.53125 L 18.71875 9.5 L 15 12.46875 L 15 11.5 L 15 11 L 14.5 11 L 12 11 L 10 11 L 10 9.5 L 10 8.46875 L 9.1875 9.125 L 4.1875 13.125 L 3.6875 13.5 L 4.1875 13.875 L 9.1875 17.875 L 10 18.53125 L 10 17.5 L 10 16 L 12.5 16 L 13 16 L 13 15 L 12.5 15 L 9.5 15 L 9 15 L 9 15.5 L 9 16.46875 L 5.28125 13.5 L 9 10.53125 L 9 11.5 L 9 12 L 9.5 12 L 12 12 L 14 12 L 14 13.5 L 14 14.53125 L 14.0625 14.5 C 14.316665 13.098022 15.527977 12 17 12 C 17.042838 12 17.082597 11.998173 17.125 12 L 19.8125 9.875 L 20.3125 9.5 L 19.8125 9.125 L 14.8125 5.125 L 14 4.46875 z M 17 13 C 15.892 13 15 13.91085 15 15.03125 L 15 16 L 14 16 L 14 17 L 14 19 L 14 20 L 15 20 L 19 20 L 20 20 L 20 19 L 20 17 L 20 16 L 19 16 L 19 15.03125 C 19 13.91135 18.108 13 17 13 z M 17 14 C 17.554 14 18 14.4424 18 15 L 18 16 L 16 16 L 16 15 C 16 14.4424 16.446 14 17 14 z " transform="translate(443.00018,-411)" id="path5983" fill="#ffffff"/>
 </g>
</svg>
