<?xml version="1.0" encoding="UTF-8" standalone="no"?>
<svg xmlns="http://www.w3.org/2000/svg" xmlns:sodipodi="http://sodipodi.sourceforge.net/DTD/sodipodi-0.dtd" xmlns:inkscape="http://www.inkscape.org/namespaces/inkscape" height="24" version="1.1" width="24" enable-background="new">
 <metadata id="metadata90"/>
 <defs id="defs7386">
  <linearGradient id="linearGradient5606" osb:paint="solid">
   <stop id="stop5608"/>
  </linearGradient>
  <filter inkscape:collect="always" color-interpolation-filters="sRGB" id="filter7554">
   <feBlend inkscape:collect="always" id="feBlend7556" in2="BackgroundImage" mode="darken"/>
  </filter>
 </defs>
 <g inkscape:groupmode="layer" id="layer9" inkscape:label="status" transform="translate(-260.00041,309.99997)">
  <path id="path3791" d="m 277.50044,-304.99994 c -0.277,0 -0.5,0.223 -0.5,0.5 l 0,7.5 c 0.76764,0 1.46927,0.29877 2,0.78125 l 0,-8.28125 c 0,-0.277 -0.223,-0.5 -0.5,-0.5 l -1,0 z" inkscape:connector-curvature="0" opacity="0.2" color="#444444"/>
  <path id="path3793" d="m 274.50044,-301.99994 c -0.277,0 -0.5,0.223 -0.5,0.5 l 0,7.5 c 0.0132,-1.28602 0.84795,-2.39254 2,-2.8125 l 0,-4.6875 c 0,-0.277 -0.223,-0.5 -0.5,-0.5 l -1,0 z" inkscape:connector-curvature="0" opacity="0.2" color="#444444"/>
  <path sodipodi:nodetypes="ssccccccccccccssssccss" id="path3795" d="m 277.00023,-295.99997 c -1.108,0 -2,0.91081 -2,2.03125 l 0,0.96875 -1,0 0,1 0,2 0,1 1,0 4,0 1,0 0,-1 0,-2 0,-1 -1,0 0,-0.96875 c 0,-1.12 -0.892,-2.03125 -2,-2.03125 z m 0,1 c 0.554,0 1,0.44236 1,1 l 0,1 -2,0 0,-1 c 0,-0.55764 0.446,-1 1,-1 z" inkscape:connector-curvature="0" opacity="0.2"/>
  <path inkscape:connector-curvature="0" d="m 277.50044,-305.99995 c -0.277,0 -0.5,0.223 -0.5,0.5 l 0,7.5 c 0.76764,0 1.46927,0.29877 2,0.78125 l 0,-8.28125 c 0,-0.277 -0.223,-0.5 -0.5,-0.5 l -1,0 z" id="rect6526-0" fill="#ffffff" color="#444444"/>
  <path inkscape:connector-curvature="0" d="m 274.50044,-302.99995 c -0.277,0 -0.5,0.223 -0.5,0.5 l 0,7.5 c 0.0132,-1.28602 0.84795,-2.39254 2,-2.8125 l 0,-4.6875 c 0,-0.277 -0.223,-0.5 -0.5,-0.5 l -1,0 z" id="rect5273-0" fill="#ffffff" color="#444444"/>
  <rect y="-299" x="271" width="2" id="rect6044" height="9" opacity="0.2" color="#444444" rx="0.5"/>
  <rect y="-296" x="268" width="2" id="rect6046" height="6" opacity="0.2" color="#444444" rx="0.5"/>
  <rect y="-293" x="265" width="2" id="rect6048" height="3" opacity="0.2" color="#444444" rx="0.5"/>
  <rect height="9" id="rect6043" width="2" x="271" y="-300" fill="#ffffff" color="#444444" rx="0.5"/>
  <rect height="6" id="rect6045" width="2" x="268" y="-297" fill="#ffffff" color="#444444" rx="0.5"/>
  <rect height="3" id="rect6047" width="2" x="265" y="-294" fill="#ffffff" color="#444444" rx="0.5"/>
  <path inkscape:connector-curvature="0" d="m 277.00023,-296.99998 c -1.108,0 -2,0.91081 -2,2.03125 l 0,0.96875 -1,0 0,1 0,2 0,1 1,0 4,0 1,0 0,-1 0,-2 0,-1 -1,0 0,-0.96875 c 0,-1.12 -0.892,-2.03125 -2,-2.03125 z m 0,1 c 0.554,0 1,0.44236 1,1 l 0,1 -2,0 0,-1 c 0,-0.55764 0.446,-1 1,-1 z" id="path5983" sodipodi:nodetypes="ssccccccccccccssssccss" fill="#ffffff"/>
 </g>
</svg>
