<?xml version="1.0" encoding="UTF-8" standalone="no"?>
<!-- Created with Inkscape (http://www.inkscape.org/) -->

<svg
   xmlns:osb="http://www.openswatchbook.org/uri/2009/osb"
   xmlns:dc="http://purl.org/dc/elements/1.1/"
   xmlns:cc="http://creativecommons.org/ns#"
   xmlns:rdf="http://www.w3.org/1999/02/22-rdf-syntax-ns#"
   xmlns:svg="http://www.w3.org/2000/svg"
   xmlns="http://www.w3.org/2000/svg"
   xmlns:sodipodi="http://sodipodi.sourceforge.net/DTD/sodipodi-0.dtd"
   xmlns:inkscape="http://www.inkscape.org/namespaces/inkscape"
   sodipodi:docname="network-cellular-secure-signal-ok.svg"
   inkscape:export-filename="/home/sam/img/source-symbolic.png"
   inkscape:export-xdpi="270"
   inkscape:export-ydpi="270"
   height="24"
   id="svg7384"
   style="enable-background:new"
   version="1.1"
   inkscape:version="0.48.4 r9939"
   width="24">
  <sodipodi:namedview
     inkscape:bbox-nodes="true"
     inkscape:bbox-paths="true"
     bordercolor="#666666"
     borderlayer="false"
     borderopacity="1"
     inkscape:current-layer="layer9"
     inkscape:cx="12.5"
     inkscape:cy="11.498335"
     gridtolerance="10"
     inkscape:guide-bbox="true"
     guidetolerance="10"
     id="namedview88"
     inkscape:object-nodes="true"
     inkscape:object-paths="true"
     objecttolerance="10"
     pagecolor="#333333"
     inkscape:pageopacity="1"
     inkscape:pageshadow="2"
     showborder="true"
     showgrid="false"
     showguides="true"
     inkscape:showpageshadow="true"
     inkscape:snap-bbox="true"
     inkscape:snap-bbox-edge-midpoints="false"
     inkscape:snap-bbox-midpoints="false"
     inkscape:snap-center="false"
     inkscape:snap-global="true"
     inkscape:snap-grids="true"
     inkscape:snap-intersection-paths="true"
     inkscape:snap-midpoints="true"
     inkscape:snap-nodes="true"
     inkscape:snap-object-midpoints="true"
     inkscape:snap-others="true"
     inkscape:snap-page="false"
     inkscape:snap-smooth-nodes="true"
     inkscape:snap-to-guides="true"
     inkscape:window-height="701"
     inkscape:window-maximized="1"
     inkscape:window-width="1364"
     inkscape:window-x="0"
     inkscape:window-y="28"
     inkscape:zoom="1">
    <inkscape:grid
       color="#000000"
       dotted="false"
       empcolor="#0800ff"
       empopacity="0.4627451"
       empspacing="4"
       enabled="true"
       id="grid4866"
       opacity="0.16470588"
       originx="-60px"
       originy="-544.00333px"
       snapvisiblegridlinesonly="true"
       spacingx="0.25px"
       spacingy="0.25px"
       type="xygrid"
       visible="true" />
  </sodipodi:namedview>
  <metadata
     id="metadata90">
    <rdf:RDF>
      <cc:Work
         rdf:about="">
        <dc:format>image/svg+xml</dc:format>
        <dc:type
           rdf:resource="http://purl.org/dc/dcmitype/StillImage" />
        <dc:title>Moka Symbolic Icon Theme</dc:title>
      </cc:Work>
    </rdf:RDF>
  </metadata>
  <title
     id="title8473">Moka Symbolic Icon Theme</title>
  <defs
     id="defs7386">
    <linearGradient
       id="linearGradient5606"
       osb:paint="solid">
      <stop
         id="stop5608"
         offset="0"
         style="stop-color:#000000;stop-opacity:1;" />
    </linearGradient>
    <filter
       inkscape:collect="always"
       color-interpolation-filters="sRGB"
       id="filter7554">
      <feBlend
         inkscape:collect="always"
         id="feBlend7556"
         in2="BackgroundImage"
         mode="darken" />
    </filter>
  </defs>
  <g
     inkscape:groupmode="layer"
     id="layer9"
     inkscape:label="status"
     style="display:inline"
     transform="translate(-301.0002,327.00333)">
    <path
       style="fill:#000000;fill-opacity:1;stroke:none;opacity:0.35"
       id="path6575"
       d="m 314.0002,-315 -8,8 8,0 0,-8 z"
       inkscape:connector-curvature="0" />
    <path
       sodipodi:nodetypes="ssccccccccccccssssccss"
       id="path6577"
       d="m 318.0002,-313 c -1.108,0 -2,0.91081 -2,2.03125 l 0,0.96875 -1,0 0,1 0,2 0,1 1,0 4,0 1,0 0,-1 0,-2 0,-1 -1,0 0,-0.96875 c 0,-1.12 -0.892,-2.03125 -2,-2.03125 z m 0,1 c 0.554,0 1,0.44236 1,1 l 0,1 -2,0 0,-1 c 0,-0.55764 0.446,-1 1,-1 z"
       inkscape:connector-curvature="0"
       style="fill:#000000;opacity:0.35" />
    <path
       style="opacity:0.35;fill:#ffffff;fill-opacity:1;stroke:none"
       d="m 320.0002,-322.00333 -14,14 8,0 0,-2 0,-1 0,-1 1,0 c 0.0168,-1.63737 1.35439,-3 3,-3 0.76764,0 1.46927,0.29877 2,0.78125 l 0,-7.78125 z m -4,12 0,2 4,0 0,-2 -1,0 -2,0 -1,0 z"
       id="path6565"
       inkscape:connector-curvature="0" />
    <path
       inkscape:connector-curvature="0"
       d="m 314.0002,-316 -8,8 8,0 0,-8 z"
       id="path6567"
       style="fill:#ffffff;fill-opacity:1;stroke:none" />
    <path
       style="fill:#ffffff"
       inkscape:connector-curvature="0"
       d="m 318.0002,-314 c -1.108,0 -2,0.91081 -2,2.03125 l 0,0.96875 -1,0 0,1 0,2 0,1 1,0 4,0 1,0 0,-1 0,-2 0,-1 -1,0 0,-0.96875 c 0,-1.12 -0.892,-2.03125 -2,-2.03125 z m 0,1 c 0.554,0 1,0.44236 1,1 l 0,1 -2,0 0,-1 c 0,-0.55764 0.446,-1 1,-1 z"
       id="path5983"
       sodipodi:nodetypes="ssccccccccccccssssccss" />
  </g>
  <g
     inkscape:groupmode="layer"
     id="layer10"
     inkscape:label="devices"
     style="display:inline;filter:url(#filter7554)"
     transform="translate(-301.0002,327.00333)" />
  <g
     inkscape:groupmode="layer"
     id="layer1"
     inkscape:label="places"
     style="display:inline"
     transform="translate(-60,-289.99667)" />
  <g
     inkscape:groupmode="layer"
     id="layer14"
     inkscape:label="mimetypes"
     style="display:inline"
     transform="translate(-301.0002,327.00333)" />
  <g
     inkscape:groupmode="layer"
     id="layer15"
     inkscape:label="emblems"
     style="display:inline"
     transform="translate(-301.0002,327.00333)" />
  <g
     inkscape:groupmode="layer"
     id="g71291"
     inkscape:label="emotes"
     style="display:inline"
     transform="translate(-301.0002,327.00333)" />
  <g
     inkscape:groupmode="layer"
     id="layer2"
     inkscape:label="categories"
     style="display:inline"
     transform="translate(-60,-139.99667)" />
  <g
     inkscape:groupmode="layer"
     id="g6058"
     inkscape:label="apps"
     style="display:inline"
     transform="translate(-60,-139.99667)" />
  <g
     inkscape:groupmode="layer"
     id="layer12"
     inkscape:label="actions"
     style="display:inline"
     transform="translate(-301.0002,327.00333)" />
</svg>
