<?xml version="1.0" encoding="UTF-8" standalone="no"?>
<svg xmlns="http://www.w3.org/2000/svg" xmlns:sodipodi="http://sodipodi.sourceforge.net/DTD/sodipodi-0.dtd" xmlns:inkscape="http://www.inkscape.org/namespaces/inkscape" width="24" height="24" version="1.1">
 <metadata id="metadata3401"/>
 <g id="layer1" inkscape:label="Layer 1" inkscape:groupmode="layer" transform="translate(0,8)">
  <path d="m 5,-1.99995 c -1,0 -1,1 -1,1 l 0,8.9375 0,2.71875 c 0.21549,0.23277 0.54729,0.35699 0.875,0.3125 C 4.9195,10.9748 4.9538,11 5,11 l 14,0 c 0.554,0 1,-0.446 1,-1 l 0,-11 c 0,-0.554 -0.446,-1 -1,-1 l -2.90625,0 -1.0625,0 z m 0,1 10.40625,0 1.0625,0 2.53125,0 0,7 0,1.09375 0,1.90625 -4.5625,0 -9.4375,0 0,-0.15625 z m 8,1 c -0.55228,0 -1,0.44772 -1,1 0,0.55228 0.44772,1 1,1 0.55228,0 1,-0.44772 1,-1 0,-0.55228 -0.44772,-1 -1,-1 z m -4,3 c -1.5,0 -3,2 -3,4.53125 l 0,0.46875 12,0 0,0 c 0,0 -1,-4 -2.5,-4 -1.5,0 -1.5,2 -2.5,2 -1,0 -2.5,-3 -4,-3 z" id="path4082" inkscape:connector-curvature="0" sodipodi:nodetypes="sccccsssssccscccccccccccsssssssccssss" opacity="0.2" color="#bebebe"/>
  <path sodipodi:nodetypes="sccccsssssccscccccccccccsssssssccssss" inkscape:connector-curvature="0" id="path3133" d="m 5,-2.99995 c -1,0 -1,1 -1,1 L 4,6.93755 4,9.6563 C 4.21549,9.88907 4.54729,10.01329 4.875,9.9688 4.9195,9.9748 4.9538,10 5,10 l 14,0 c 0.554,0 1,-0.446 1,-1 l 0,-11 c 0,-0.554 -0.446,-1 -1,-1 l -2.90625,0 -1.0625,0 z m 0,1 10.40625,0 1.0625,0 2.53125,0 0,7 0,1.09375 0,1.90625 -4.5625,0 -9.4375,0 0,-0.15625 z m 8,1 c -0.55228,0 -1,0.44772 -1,1 0,0.55228 0.44772,1 1,1 0.55228,0 1,-0.44772 1,-1 0,-0.55228 -0.44772,-1 -1,-1 z m -4,3 c -1.5,0 -3,2 -3,4.53125 l 0,0.46875 12,0 0,0 c 0,0 -1,-4 -2.5,-4 -1.5,0 -1.5,2 -2.5,2 -1,0 -2.5,-3 -4,-3 z" fill="#ffffff" color="#bebebe"/>
 </g>
</svg>
