<?xml version='1.0' encoding='UTF-8' standalone='no'?>
<svg height="16" xmlns:inkscape="http://www.inkscape.org/namespaces/inkscape" xmlns:sodipodi="http://sodipodi.sourceforge.net/DTD/sodipodi-0.dtd" version="1.1" width="16" xmlns="http://www.w3.org/2000/svg" enable-background="new">
 <metadata id="metadata90"/>
 <defs id="defs7386">
  <linearGradient id="linearGradient5606" osb:paint="solid">
   <stop id="stop5608"/>
  </linearGradient>
  <filter inkscape:collect="always" color-interpolation-filters="sRGB" id="filter7554">
   <feBlend inkscape:collect="always" id="feBlend7556" in2="BackgroundImage" mode="darken"/>
  </filter>
 </defs>
 <g inkscape:groupmode="layer" id="layer9" inkscape:label="status" transform="translate(-259.00018,281)">
  <g id="g6278" transform="matrix(0.70710678,-0.70710678,0.70710678,0.70710678,256.73194,123.32403)">
   <path inkscape:connector-curvature="0" d="m 47,192 c 0,5 -0.447715,7 -1,7 -0.552285,0 -1,-2 -1,-7 0,-3.86599 0.447715,-7 1,-7 0.552285,0 1,3.13401 1,7 z" id="path6271" sodipodi:nodetypes="sssss" transform="matrix(1.5,0,0,1,218.5002,-467)" fill="#bbbbbb" fill-rule="evenodd"/>
   <path inkscape:connector-curvature="0" d="m 287.0002,-270 -2.75634,1.83756 C 284.0002,-268 284.0002,-268 284.0002,-267.74209 l 0,0.24307 c 0,0.49902 0.515,0.35188 0.515,0.35188 l 2.985,-0.35286 2.97655,0.35044 c 0,0 0.52345,0.14956 0.52345,-0.30527 l 0,-0.29831 c 0,-0.24686 0,-0.24686 -0.24416,-0.40964 L 288.0002,-270 z" id="path6273" sodipodi:nodetypes="cccccccccccc" fill="#bbbbbb"/>
   <path inkscape:connector-curvature="0" d="m 286.5002,-277 -6.44306,3.17512 c -0.55694,0.32488 -0.55694,0.32488 -0.55694,0.8407 l 0,-0.1042 c 0,0.99804 0,0.99804 1.17714,0.70376 l 6.82286,-1.11538 6.80354,1.11054 c 1.19646,0.29912 1.19646,0.29912 1.19646,-0.61054 l 0,-0.006 c 0,-0.49372 0,-0.49372 -0.55808,-0.81928 L 288.5002,-277 z" id="path6275" sodipodi:nodetypes="cccccccccccc" fill="#bbbbbb"/>
  </g>
 </g>
</svg>
