<?xml version='1.0' encoding='UTF-8' standalone='no'?>
<svg height="16" xmlns:inkscape="http://www.inkscape.org/namespaces/inkscape" xmlns:sodipodi="http://sodipodi.sourceforge.net/DTD/sodipodi-0.dtd" version="1.1" width="16" xmlns="http://www.w3.org/2000/svg" enable-background="new">
 <metadata id="metadata90"/>
 <defs id="defs7386">
  <linearGradient id="linearGradient5606" osb:paint="solid">
   <stop id="stop5608"/>
  </linearGradient>
  <filter inkscape:collect="always" color-interpolation-filters="sRGB" id="filter7554">
   <feBlend inkscape:collect="always" id="feBlend7556" in2="BackgroundImage" mode="darken"/>
  </filter>
 </defs>
 <g inkscape:groupmode="layer" id="layer9" inkscape:label="status" transform="translate(-301.00021,363.0156)">
  <path inkscape:connector-curvature="0" d="m 310.46895,-361 -2.96875,3 -1.5,0 -1,0 0,6 2.5,0 3.03125,3.03125 0.46875,-0.0312 0,-12 -0.53125,0 z m 1.90625,3.34375 a 0.50004988,0.50004988 0 0 0 -0.0312,0.0312 0.50004988,0.50004988 0 0 0 -0.21875,0.84375 c 0.98197,0.99012 0.97907,2.60096 0,3.59375 a 0.50004988,0.50004988 0 1 0 0.6875,0.71875 l 0.0312,-0.0312 c 1.35895,-1.37799 1.36295,-3.62572 0,-5 a 0.50004988,0.50004988 0 0 0 -0.46875,-0.15625 z" id="path5799" fill="#bebebe" color="#bebebe"/>
 </g>
</svg>
