<?xml version='1.0' encoding='UTF-8' standalone='no'?>
<svg height="16" xmlns:inkscape="http://www.inkscape.org/namespaces/inkscape" xmlns:sodipodi="http://sodipodi.sourceforge.net/DTD/sodipodi-0.dtd" version="1.1" width="16" xmlns="http://www.w3.org/2000/svg" enable-background="new">
 <metadata id="metadata90"/>
 <defs id="defs7386">
  <linearGradient id="linearGradient5606" osb:paint="solid">
   <stop id="stop5608"/>
  </linearGradient>
  <filter inkscape:collect="always" color-interpolation-filters="sRGB" id="filter7554">
   <feBlend inkscape:collect="always" id="feBlend7556" in2="BackgroundImage" mode="darken"/>
  </filter>
 </defs>
 <g inkscape:groupmode="layer" id="layer9" inkscape:label="status" transform="translate(-281.00021,323.0156)">
  <path inkscape:connector-curvature="0" d="m 289.46895,-321 -3,3 -1.46875,0 -1,0 0,6 2.46875,0 3.0625,3.03125 0.46875,-0.0312 0,-12 -0.53125,0 z m 3.28125,1.125 a 0.50004988,0.50004988 0 0 0 -0.0312,0.0312 0.50004988,0.50004988 0 0 0 -0.15625,0.875 c 2.17533,1.79085 2.49123,5.01805 0.71875,7.21875 -0.22704,0.28188 -0.41025,0.48761 -0.6875,0.71875 a 0.50024408,0.50024408 0 1 0 0.625,0.78125 c 0.32037,-0.2671 0.58167,-0.54962 0.84375,-0.875 2.1111,-2.62112 1.71895,-6.48951 -0.875,-8.625 a 0.50004988,0.50004988 0 0 0 -0.4375,-0.12495 z m -1.375,2.21875 a 0.50004988,0.50004988 0 0 0 -0.0312,0.0312 0.50004988,0.50004988 0 0 0 -0.21875,0.84375 c 0.98197,0.99012 0.97907,2.60096 0,3.59375 a 0.50004988,0.50004988 0 1 0 0.6875,0.71875 l 0.0312,-0.0312 c 1.35895,-1.37799 1.36295,-3.62572 0,-5 a 0.50004988,0.50004988 0 0 0 -0.46875,-0.15625 z" id="path5786" fill="#bebebe" color="#bebebe"/>
 </g>
</svg>
