<?xml version="1.0" encoding="UTF-8" standalone="no"?>
<svg xmlns="http://www.w3.org/2000/svg" xmlns:sodipodi="http://sodipodi.sourceforge.net/DTD/sodipodi-0.dtd" xmlns:inkscape="http://www.inkscape.org/namespaces/inkscape" height="16" version="1.1" width="16" enable-background="new">
 <metadata id="metadata90"/>
 <defs id="defs7386">
  <linearGradient id="linearGradient5606" osb:paint="solid">
   <stop id="stop5608"/>
  </linearGradient>
  <filter inkscape:collect="always" color-interpolation-filters="sRGB" id="filter7554">
   <feBlend inkscape:collect="always" id="feBlend7556" in2="BackgroundImage" mode="darken"/>
  </filter>
 </defs>
 <g inkscape:groupmode="layer" id="layer9" inkscape:label="status" transform="translate(-257.00019,345)">
  <rect id="rect3807" width="6" height="8" x="262" y="-340" opacity="0.35" fill="#e13f2b" color="#000000" rx="0"/>
  <path d="m 263.00019,-344 0,1 4,0 0,-1 -4,0 z m -2.15625,2 c -0.28125,0.0469 -0.84375,0.25 -0.84375,1 l 0,10 c 0,1 1,1 1,1 l 7,0 0,-1 -7,0 0,-10 8,0 0,1 1,0 0,-1 c 0,0 0,-1 -1,-1 l -8,0 c 0,0 -0.0625,-0.0156 -0.15625,0 z" id="rect2388-2-2-5" inkscape:connector-curvature="0" fill="#e13f2b"/>
  <path d="m 269.0002,-339 0,5 0.25,2 1.5,0 0.25,-2 0,-5 z m 0,8 0,2 2,0 0,-2 z" id="path7562" inkscape:connector-curvature="0" sodipodi:nodetypes="cccccccccccc" fill="#e13f2b"/>
 </g>
</svg>
