<?xml version='1.0' encoding='UTF-8' standalone='no'?>
<svg height="16" xmlns:inkscape="http://www.inkscape.org/namespaces/inkscape" xmlns:sodipodi="http://sodipodi.sourceforge.net/DTD/sodipodi-0.dtd" version="1.1" width="16" xmlns="http://www.w3.org/2000/svg" enable-background="new">
 <metadata id="metadata90"/>
 <defs id="defs7386">
  <linearGradient id="linearGradient5606" osb:paint="solid">
   <stop id="stop5608"/>
  </linearGradient>
  <filter inkscape:collect="always" color-interpolation-filters="sRGB" id="filter7554">
   <feBlend inkscape:collect="always" id="feBlend7556" in2="BackgroundImage" mode="darken"/>
  </filter>
 </defs>
 <g inkscape:groupmode="layer" id="layer9" inkscape:label="status" transform="translate(-261.00018,243.01663)">
  <rect height="0.75" id="rect8730" width="0.75" x="265" y="-238" fill="#bebebe" color="#bebebe" stroke-width="2"/>
  <rect height="0.75" id="rect8732" transform="scale(-1,1)" width="0.75" x="-265.75" y="-232.75" fill="#bebebe" color="#bebebe" stroke-width="2"/>
  <rect height="0.5" id="rect8734" width="0.75" x="268" y="-242" fill="#bebebe" color="#bebebe" stroke-width="2"/>
  <rect height="0.5" id="rect8736" width="0.75" x="268" y="-228.5" fill="#bebebe" color="#bebebe" stroke-width="2"/>
  <path inkscape:connector-curvature="0" d="m 268,-241.5 0,13 1,0 0,-13 -1,0 z" id="path5783" color="#000000" fill="#bebebe"/>
  <path inkscape:connector-curvature="0" d="m 268.5625,-242 a 0.750075,0.750075 0 0 0 -0.3125,1.3125 l 2.84375,2.65625 -3.0625,2.4375 a 0.750075,0.750075 0 0 0 0,1.1875 l 3.0625,2.4375 -2.84375,2.65625 a 0.75259966,0.75259966 0 1 0 1,1.125 l 3.5,-3.25 a 0.750075,0.750075 0 0 0 -0.0312,-1.15625 l -3,-2.40625 3,-2.40625 a 0.750075,0.750075 0 0 0 0.0312,-1.15625 l -3.5,-3.25 A 0.750075,0.750075 0 0 0 268.5625,-242 z" id="path5005" color="#000000" stroke-width="1.5" fill="#bebebe"/>
  <path inkscape:connector-curvature="0" d="m 265.59375,-238 a 0.750075,0.750075 0 0 0 -0.3125,1.34375 l 2.03125,1.65625 -2.03125,1.65625 a 0.7564824,0.7564824 0 1 0 0.9375,1.1875 l 2.75,-2.25 0.71875,-0.59375 -0.71875,-0.59375 -2.75,-2.25 A 0.750075,0.750075 0 0 0 265.59375,-238 z" id="path5781" color="#000000" stroke-width="1.5" fill="#bebebe"/>
 </g>
</svg>
