<?xml version='1.0' encoding='UTF-8' standalone='no'?>
<svg height="16" xmlns:inkscape="http://www.inkscape.org/namespaces/inkscape" xmlns:sodipodi="http://sodipodi.sourceforge.net/DTD/sodipodi-0.dtd" version="1.1" width="16" xmlns="http://www.w3.org/2000/svg" enable-background="new">
 <metadata id="metadata90"/>
 <defs id="defs7386">
  <linearGradient id="linearGradient5606" osb:paint="solid">
   <stop id="stop5608"/>
  </linearGradient>
  <filter inkscape:collect="always" color-interpolation-filters="sRGB" id="filter7554">
   <feBlend inkscape:collect="always" id="feBlend7556" in2="BackgroundImage" mode="darken"/>
  </filter>
 </defs>
 <g inkscape:groupmode="layer" id="layer9" inkscape:label="status" transform="translate(-361.0002,143)">
  <path inkscape:connector-curvature="0" d="m 365.00019,-137 c -0.554,0 -1,0.446 -1,1 l 0,6 c 0,1 1,1 1,1 l 3,0 0,-6 c 0,-0.554 0.446,-1 1,-1 l 5,0 c 0,-0.554 -0.446,-1 -1,-1 l -8,0 z" id="path7623" fill="#bebebe" fill-rule="evenodd"/>
  <path inkscape:connector-curvature="0" d="m 369.00019,-143 c 0,0 -4,0 -4,4 l 0,3 c 0,1.30536 0.84052,2.39817 2,2.8125 l 0,-5.8125 c 0,-2 2,-2 2,-2 0,0 2,0 2,2 l 0,3 2,0 0,-3 c 0,-4 -4,-4 -4,-4 z" id="path7626" fill="#bebebe" fill-rule="evenodd"/>
  <path inkscape:connector-curvature="0" d="m 369.87519,-135 c -0.49245,0 -0.875,0.38256 -0.875,0.875 l 0,6.25 c 0,0.49244 0.38255,0.875 0.875,0.875 l 6.25,0 c 0.49245,0 0.875,-0.38256 0.875,-0.875 l 0,-6.25 c 0,-0.49244 -0.38255,-0.875 -0.875,-0.875 l -6.25,0 z m 2.125,1 2,0 0,4 -2,0 0,-4 z m 0,5 2,0 0,1 -2,0 0,-1 z" id="path10898-3-1" sodipodi:nodetypes="ccccccccccccccccccc" fill="#f57900" color="#bebebe" stroke-width="2"/>
 </g>
</svg>
