<?xml version='1.0' encoding='UTF-8' standalone='no'?>
<svg height="16" xmlns:inkscape="http://www.inkscape.org/namespaces/inkscape" xmlns:sodipodi="http://sodipodi.sourceforge.net/DTD/sodipodi-0.dtd" version="1.1" width="16" xmlns="http://www.w3.org/2000/svg" enable-background="new">
 <metadata id="metadata90"/>
 <defs id="defs7386">
  <linearGradient id="linearGradient5606" osb:paint="solid">
   <stop id="stop5608"/>
  </linearGradient>
  <filter inkscape:collect="always" color-interpolation-filters="sRGB" id="filter7554">
   <feBlend inkscape:collect="always" id="feBlend7556" in2="BackgroundImage" mode="darken"/>
  </filter>
 </defs>
 <g inkscape:groupmode="layer" id="layer9" inkscape:label="status" transform="translate(-580.0002,201)">
  <path inkscape:connector-curvature="0" d="m 583.0002,-200 c -1.09935,0 -2,0.90065 -2,2 l 0,10 c 0,1.09935 0.90065,2 2,2 l 10,0 c 1.09935,0 2,-0.90065 2,-2 l 0,-10 c 0,-1.09935 -0.90065,-2 -2,-2 l -10,0 z m 0,1 10,0 c 0.56265,0 1,0.43735 1,1 l 0,0.3125 -1.125,1.21875 -5.59375,5.59375 -2.8125,-2.84375 -1.40625,1.4375 2.8125,2.8125 1.40625,1.40625 1.4375,-1.40625 5.0625,-5.03125 0.21875,-0.3125 0,6.8125 c 0,0.56265 -0.43735,1 -1,1 l -10,0 c -0.56265,0 -1,-0.43735 -1,-1 l 0,-10 c 0,-0.56265 0.43735,-1 1,-1 z" id="rect9618-8" color="#000000" fill="#bebebe"/>
 </g>
</svg>
