<?xml version='1.0' encoding='UTF-8' standalone='no'?>
<svg height="16" xmlns:inkscape="http://www.inkscape.org/namespaces/inkscape" xmlns:sodipodi="http://sodipodi.sourceforge.net/DTD/sodipodi-0.dtd" version="1.1" width="16" xmlns="http://www.w3.org/2000/svg">
 <metadata id="metadata90"/>
 <g inkscape:groupmode="layer" id="layer12" inkscape:label="actions" transform="translate(-201.0004,-867)">
  <path sodipodi:cx="28" sodipodi:cy="209" d="m 29,209 a 1,1 0 1 1 -2,0 1,1 0 1 1 2,0 z" id="path4955-1-2" sodipodi:rx="1" sodipodi:ry="1" transform="matrix(2.000025,0,0,2.000025,147.99952,456.9948)" sodipodi:type="arc" fill="#bebebe"/>
  <path sodipodi:cx="28" sodipodi:cy="209" d="m 29,209 a 1,1 0 1 1 -2,0 1,1 0 1 1 2,0 z" id="path4957-2-4" sodipodi:rx="1" sodipodi:ry="1" transform="matrix(2,0,0,2,153.00025,457)" sodipodi:type="arc" fill="#bebebe"/>
  <path sodipodi:cx="28" sodipodi:cy="209" d="m 29,209 a 1,1 0 1 1 -2,0 1,1 0 1 1 2,0 z" id="path4959-4-6" sodipodi:rx="1" sodipodi:ry="1" transform="matrix(2,0,0,2,158.0002,457)" sodipodi:type="arc" fill="#bebebe"/>
 </g>
</svg>
