<?xml version="1.0" encoding="UTF-8" standalone="no"?>
<!-- Created with Inkscape (http://www.inkscape.org/) -->

<svg
   xmlns:dc="http://purl.org/dc/elements/1.1/"
   xmlns:cc="http://creativecommons.org/ns#"
   xmlns:rdf="http://www.w3.org/1999/02/22-rdf-syntax-ns#"
   xmlns:svg="http://www.w3.org/2000/svg"
   xmlns="http://www.w3.org/2000/svg"
   xmlns:xlink="http://www.w3.org/1999/xlink"
   xmlns:sodipodi="http://sodipodi.sourceforge.net/DTD/sodipodi-0.dtd"
   xmlns:inkscape="http://www.inkscape.org/namespaces/inkscape"
   width="16px"
   height="16px"
   id="svg5400"
   version="1.1"
   inkscape:version="0.48.4 r9939"
   sodipodi:docname="dialog-question.svg">
  <defs
     id="defs5402">
    <linearGradient
       inkscape:collect="always"
       xlink:href="#linearGradient3904"
       id="linearGradient7546"
       gradientUnits="userSpaceOnUse"
       x1="1872"
       y1="132"
       x2="1888"
       y2="132"
       gradientTransform="matrix(0,1,-1,0,140,-1872)" />
    <linearGradient
       id="linearGradient3813">
      <stop
         style="stop-color:#3e8292;stop-opacity:1;"
         offset="0"
         id="stop3815" />
      <stop
         style="stop-color:#133f8f;stop-opacity:1;"
         offset="1"
         id="stop3817" />
    </linearGradient>
    <linearGradient
       inkscape:collect="always"
       xlink:href="#linearGradient6851"
       id="linearGradient7045"
       gradientUnits="userSpaceOnUse"
       gradientTransform="matrix(0.35135136,0,0,0.35135136,-17.2037,-0.9093)"
       x1="71.204407"
       y1="6.2375584"
       x2="71.204407"
       y2="44.340794" />
    <linearGradient
       inkscape:collect="always"
       id="linearGradient6851">
      <stop
         style="stop-color:#ffffff;stop-opacity:1;"
         offset="0"
         id="stop6853" />
      <stop
         style="stop-color:#ffffff;stop-opacity:0;"
         offset="1"
         id="stop6855" />
    </linearGradient>
    <linearGradient
       inkscape:collect="always"
       xlink:href="#outerBackgroundGradient-0"
       id="linearGradient7048"
       gradientUnits="userSpaceOnUse"
       x1="16"
       y1="-2.8421709e-14"
       x2="16"
       y2="15.99972"
       gradientTransform="matrix(1,0,0,-1,0,16)" />
    <linearGradient
       id="linearGradient6501">
      <stop
         id="stop6503"
         offset="0"
         style="stop-color:#44d9ff;stop-opacity:1;" />
      <stop
         style="stop-color:#4690d1;stop-opacity:1;"
         offset="0.64285713"
         id="stop7407" />
      <stop
         id="stop6507"
         offset="1"
         style="stop-color:#4862b1;stop-opacity:1;" />
    </linearGradient>
    <linearGradient
       inkscape:collect="always"
       xlink:href="#linearGradient3810"
       id="linearGradient3816"
       x1="4.5000033"
       y1="24"
       x2="43.500004"
       y2="24"
       gradientUnits="userSpaceOnUse"
       gradientTransform="matrix(0,1,-1,0,48.000003,-3e-6)" />
    <linearGradient
       id="linearGradient3810">
      <stop
         style="stop-color:#4cc7e0;stop-opacity:1;"
         offset="0"
         id="stop3812" />
      <stop
         style="stop-color:#2061be;stop-opacity:1;"
         offset="1"
         id="stop3814" />
    </linearGradient>
    <linearGradient
       y2="24"
       x2="43.500004"
       y1="24"
       x1="4.5000033"
       gradientTransform="matrix(0,1,-1,0,163,-7.0000031)"
       gradientUnits="userSpaceOnUse"
       id="linearGradient3065"
       xlink:href="#linearGradient3810"
       inkscape:collect="always" />
    <linearGradient
       inkscape:collect="always"
       xlink:href="#linearGradient3988"
       id="linearGradient4203"
       gradientUnits="userSpaceOnUse"
       x1="287.72006"
       y1="116.2613"
       x2="287.72006"
       y2="31.772648"
       gradientTransform="matrix(0.18641557,0,0,0.18641557,361.3645,133.82708)" />
    <linearGradient
       id="linearGradient3988">
      <stop
         style="stop-color:#eeeeec;stop-opacity:1;"
         offset="0"
         id="stop3990" />
      <stop
         style="stop-color:#ffffff;stop-opacity:1;"
         offset="1"
         id="stop3992" />
    </linearGradient>
    <linearGradient
       inkscape:collect="always"
       xlink:href="#outerBackgroundGradient-0"
       id="linearGradient3874"
       gradientUnits="userSpaceOnUse"
       gradientTransform="matrix(0,-1,-1,0,48.000003,48.000003)"
       x1="4.5000033"
       y1="24"
       x2="43.500004"
       y2="24" />
    <linearGradient
       id="outerBackgroundGradient-0">
      <stop
         style="stop-color:#1c6aba;stop-opacity:1"
         offset="0"
         id="stop3864-8-6-3" />
      <stop
         style="stop-color:#4195ec;stop-opacity:1"
         offset="1"
         id="stop3866-9-1-7" />
    </linearGradient>
    <linearGradient
       y2="24"
       x2="43.500004"
       y1="24"
       x1="4.5000033"
       gradientTransform="matrix(0,-1,-1,0,48.000003,48.000003)"
       gradientUnits="userSpaceOnUse"
       id="linearGradient3057"
       xlink:href="#outerBackgroundGradient-0"
       inkscape:collect="always" />
    <linearGradient
       inkscape:collect="always"
       xlink:href="#linearGradient3904"
       id="linearGradient3899"
       x1="4.0000033"
       y1="24"
       x2="44.000004"
       y2="24"
       gradientUnits="userSpaceOnUse"
       gradientTransform="matrix(0,-1,1,0,3.1e-6,48.000003)" />
    <linearGradient
       id="linearGradient3904">
      <stop
         id="stop3906"
         offset="0"
         style="stop-color:#234683;stop-opacity:1;" />
      <stop
         id="stop3908"
         offset="1"
         style="stop-color:#30589e;stop-opacity:1;" />
    </linearGradient>
    <linearGradient
       y2="24"
       x2="44.000004"
       y1="24"
       x1="4.0000033"
       gradientTransform="matrix(0,-1,1,0,-2.0571623,49.391692)"
       gradientUnits="userSpaceOnUse"
       id="linearGradient3074"
       xlink:href="#linearGradient3904"
       inkscape:collect="always" />
    <linearGradient
       inkscape:collect="always"
       xlink:href="#linearGradient3904"
       id="linearGradient3029"
       gradientUnits="userSpaceOnUse"
       gradientTransform="matrix(0,1,-1,0,140,-1872)"
       x1="1872"
       y1="132"
       x2="1888"
       y2="132" />
    <linearGradient
       inkscape:collect="always"
       xlink:href="#outerBackgroundGradient-0"
       id="linearGradient3031"
       gradientUnits="userSpaceOnUse"
       gradientTransform="matrix(1,0,0,-1,0,16)"
       x1="16"
       y1="-2.8421709e-14"
       x2="16"
       y2="15.99972" />
  </defs>
  <sodipodi:namedview
     id="base"
     pagecolor="#ffffff"
     bordercolor="#666666"
     borderopacity="1.0"
     inkscape:pageopacity="0.0"
     inkscape:pageshadow="2"
     inkscape:zoom="1"
     inkscape:cx="32.986746"
     inkscape:cy="8.5092734"
     inkscape:current-layer="layer2"
     showgrid="false"
     showborder="false"
     inkscape:grid-bbox="true"
     inkscape:document-units="px"
     inkscape:window-width="1364"
     inkscape:window-height="700"
     inkscape:window-x="0"
     inkscape:window-y="28"
     inkscape:window-maximized="1">
    <inkscape:grid
       type="xygrid"
       id="grid3830" />
  </sodipodi:namedview>
  <metadata
     id="metadata5405">
    <rdf:RDF>
      <cc:Work
         rdf:about="">
        <dc:format>image/svg+xml</dc:format>
        <dc:type
           rdf:resource="http://purl.org/dc/dcmitype/StillImage" />
        <dc:title></dc:title>
      </cc:Work>
    </rdf:RDF>
  </metadata>
  <g
     id="layer1"
     inkscape:label="Background"
     inkscape:groupmode="layer">
    <path
       style="color:#000000;fill:url(#linearGradient7048);fill-opacity:1;fill-rule:nonzero;stroke:none;stroke-width:0.99999994;marker:none;visibility:visible;display:inline;overflow:visible;enable-background:accumulate"
       id="path2555-7"
       inkscape:connector-curvature="0"
       d="M 8,15.5 C 3.8618,15.5 0.5,12.13824 0.5,8 0.5,3.86176 3.8618,0.5 8,0.5 c 4.1382,0 7.5,3.36176 7.5,7.5 0,4.13824 -3.3618,7.5 -7.5,7.5 z" />
    <path
       d="m 8,15.5 c 4.1382,0 7.5,-3.3618 7.5,-7.5 C 15.5,3.8618 12.1382,0.5 8,0.5 3.8618,0.5 0.5,3.8618 0.5,8 c 0,4.1382 3.3618,7.5 7.5,7.5 z"
       inkscape:connector-curvature="0"
       id="path7037"
       style="opacity:0.81;color:#000000;fill:none;stroke:url(#linearGradient7546);stroke-width:0.99999994000000003;stroke-linecap:round;stroke-linejoin:round;stroke-miterlimit:4;stroke-opacity:1;stroke-dasharray:none;stroke-dashoffset:0;marker:none;visibility:visible;display:inline;overflow:visible;enable-background:accumulate" />
    <path
       id="path3805"
       d="M 8,16 C 4.132594,16 1,12.867406 1,9 1,8.8317131 1.0195845,8.6653066 1.03125,8.5 1.2876687,12.13361 4.3008809,15 8,15 11.699119,15 14.712331,12.13361 14.96875,8.5 14.980415,8.6653066 15,8.8317131 15,9 c 0,3.867406 -3.132594,7 -7,7 z"
       style="opacity:0.2;color:#000000;fill:#000000;fill-opacity:1;fill-rule:nonzero;stroke:none;stroke-width:0.99999994;marker:none;visibility:visible;display:inline;overflow:visible;enable-background:accumulate"
       inkscape:connector-curvature="0" />
    <path
       style="color:#000000;fill:#ffffff;fill-opacity:1;fill-rule:nonzero;stroke:none;stroke-width:0.99999994000000003;marker:none;visibility:visible;display:inline;overflow:visible;enable-background:accumulate;opacity:0.2"
       d="M 8 1 C 4.132594 1 1 4.132594 1 8 C 1 8.1682869 1.0195845 8.3346934 1.03125 8.5 C 1.2876687 4.8663902 4.3008809 2 8 2 C 11.699119 2 14.712331 4.8663902 14.96875 8.5 C 14.980415 8.3346934 15 8.1682869 15 8 C 15 4.132594 11.867406 1 8 1 z "
       id="path3021" />
  </g>
  <g
     inkscape:groupmode="layer"
     id="layer2"
     inkscape:label="Symbol"
     style="display:inline">
    <path
       inkscape:connector-curvature="0"
       d="m 8.8281229,4 c 0.5522855,0 1.0000035,0.4477232 1.0000035,0.9999984 0,0.5522804 -0.4477233,1.0000037 -1.0000035,1.0000037 -0.5522753,0 -0.9999934,-0.4477233 -0.9999934,-1.0000037 C 7.8281296,4.4477232 8.2758476,4 8.8281229,4 z M 8.3281314,7.0000005 c 0.5539995,0 0.9999933,0.4459989 0.9999933,0.9999985 0,0.9999984 -0.9999933,3 -0.9999933,3.999999 0,0.709463 0.3798015,0.279863 0.6874922,0.0625 l 0.4687517,0.687503 C 8.8946879,13.478861 8.0209378,13.987619 7.3281277,14 6.7741385,14 6.3281292,13.553996 6.3281292,12.999996 c 0,-0.999998 0.9999985,-2.999995 0.9999985,-3.9999986 0,-0.709463 -0.379786,-0.2798633 -0.6874973,-0.0625 L 6.1718735,8.2499999 C 6.7615816,7.5211343 7.6353264,7.0123763 8.3281314,7.0000005 z"
       id="path3814"
       sodipodi:nodetypes="ssssscsscccssccc"
       style="fill:#000000;fill-opacity:1;stroke:none;display:inline;enable-background:new;opacity:0.3" />
    <path
       style="fill:#ffffff;fill-opacity:1;stroke:none;display:inline;enable-background:new"
       sodipodi:nodetypes="ssssscsscccssccc"
       id="path3861"
       d="m 8.8281229,3 c 0.5522855,0 1.0000035,0.4477232 1.0000035,0.9999984 0,0.5522804 -0.4477233,1.0000037 -1.0000035,1.0000037 -0.5522753,0 -0.9999934,-0.4477233 -0.9999934,-1.0000037 C 7.8281296,3.4477232 8.2758476,3 8.8281229,3 z M 8.3281314,6.0000005 c 0.5539995,0 0.9999933,0.4459989 0.9999933,0.9999985 0,0.9999984 -0.9999933,3 -0.9999933,3.999999 0,0.709463 0.3798015,0.279863 0.6874922,0.0625 l 0.4687517,0.687503 C 8.8946879,12.478861 8.0209378,12.987619 7.3281277,13 6.7741385,13 6.3281292,12.553996 6.3281292,11.999996 c 0,-0.999998 0.9999985,-2.999995 0.9999985,-3.9999986 0,-0.709463 -0.379786,-0.2798633 -0.6874973,-0.0625 L 6.1718735,7.2499999 C 6.7615816,6.5211343 7.6353264,6.0123763 8.3281314,6.0000005 z"
       inkscape:connector-curvature="0" />
  </g>
</svg>
