<?xml version="1.0" encoding="UTF-8" standalone="no"?>
<svg
   xmlns:dc="http://purl.org/dc/elements/1.1/"
   xmlns:cc="http://creativecommons.org/ns#"
   xmlns:rdf="http://www.w3.org/1999/02/22-rdf-syntax-ns#"
   xmlns:svg="http://www.w3.org/2000/svg"
   xmlns="http://www.w3.org/2000/svg"
   xmlns:xlink="http://www.w3.org/1999/xlink"
   id="svg3759"
   height="16"
   width="16"
   version="1.1">
  <metadata
     id="metadata37">
    <rdf:RDF>
      <cc:Work
         rdf:about="">
        <dc:format>image/svg+xml</dc:format>
        <dc:type
           rdf:resource="http://purl.org/dc/dcmitype/StillImage" />
        <dc:title />
      </cc:Work>
    </rdf:RDF>
  </metadata>
  <defs
     id="defs3761">
    <linearGradient
       id="linearGradient3846-7">
      <stop
         offset="0"
         style="stop-color:#fff3cb;stop-opacity:1"
         id="stop3848-7" />
      <stop
         offset="0.26238"
         style="stop-color:#fdde76;stop-opacity:1"
         id="stop3850-5" />
      <stop
         offset="0.66093999"
         style="stop-color:#f9c440;stop-opacity:1"
         id="stop3852-9" />
      <stop
         offset="1"
         style="stop-color:#e48b20;stop-opacity:1"
         id="stop3854-2" />
    </linearGradient>
    <linearGradient
       y2="54.669891"
       x2="24"
       y1="-14.603537"
       x1="24"
       gradientTransform="matrix(0.33334715,0,0,0.33231762,-3.3072074e-4,32.695566)"
       gradientUnits="userSpaceOnUse"
       id="linearGradient4287"
       xlink:href="#linearGradient3846-7" />
  </defs>
  <g
     transform="translate(0,-32)"
     id="layer1">
    <path
       d="M 15.393254,45.987939 8.8829165,33.740261 c -0.187129,-0.340212 -0.5257264,-0.52922 -0.9028265,-0.52922 -0.3770966,0 -0.717433,0.226806 -0.9074013,0.567021 L 0.61082738,46.025743 c -0.1521034,0.302411 -0.1538421,0.718228 0.033443,1.020639 C 0.83155218,47.348796 1.1325989,47.5 1.5096989,47.5 l 12.9721961,0 c 0.3771,0 0.717276,-0.189008 0.869383,-0.491419 0.189808,-0.302411 0.19139,-0.680427 0.04197,-1.020642 z"
       id="path11155-5"
       style="fill:url(#linearGradient4287);fill-opacity:1;fill-rule:nonzero;stroke:none" />
    <path
       d="M 15.393254,45.987939 8.8829165,33.740261 c -0.187129,-0.340212 -0.5257264,-0.52922 -0.9028265,-0.52922 -0.3770967,0 -0.7174331,0.226806 -0.9074013,0.567021 L 0.61082738,46.025743 c -0.1521035,0.302411 -0.1538421,0.718228 0.033443,1.020639 C 0.83155228,47.348796 1.1325989,47.5 1.509699,47.5 l 12.972196,0 c 0.3771,0 0.717276,-0.189008 0.869383,-0.491419 0.189808,-0.302411 0.19139,-0.680427 0.04197,-1.020642 z"
       id="path11155-8"
       style="opacity:0.81000001;fill:none;stroke:#744000;stroke-width:1;stroke-miterlimit:4;stroke-opacity:1;stroke-dasharray:none" />
  </g>
  <g
     transform="translate(0,-32)"
     id="layer2">
    <path
       style="opacity:0.3;fill:#ffffff;fill-opacity:1;stroke:none"
       d="m 7,37 0,4 0.5,3 1,0 0.5,-3 0,-4 z m 0,8 0,2 2,0 0,-2 z"
       id="path3884" />
    <path
       transform="translate(0,32)"
       id="rect3870"
       d="m 7,4 0,4 0.5,3 1,0 L 9,8 9,4 z m 0,8 0,2 2,0 0,-2 z"
       style="fill:#1a1a1a;fill-opacity:1;stroke:none" />
  </g>
</svg>
