<?xml version='1.0' encoding='UTF-8' standalone='no'?>
<svg height="16" xmlns:inkscape="http://www.inkscape.org/namespaces/inkscape" xmlns:sodipodi="http://sodipodi.sourceforge.net/DTD/sodipodi-0.dtd" version="1.1" width="16" xmlns="http://www.w3.org/2000/svg" enable-background="new">
 <metadata id="metadata90"/>
 <defs id="defs7386">
  <linearGradient id="linearGradient5606" osb:paint="solid">
   <stop id="stop5608"/>
  </linearGradient>
  <filter inkscape:collect="always" color-interpolation-filters="sRGB" id="filter7554">
   <feBlend inkscape:collect="always" id="feBlend7556" in2="BackgroundImage" mode="darken"/>
  </filter>
 </defs>
 <g inkscape:groupmode="layer" id="layer9" inkscape:label="status" transform="translate(-361.00018,242)">
  <path inkscape:connector-curvature="0" d="m 368.99821,-239 c -2.61818,1.6e-4 -4.99805,2.38222 -4.99805,5 0,2.61778 2.37987,4.99984 4.99805,5 2.61817,1.6e-4 5.00195,-2.38193 5.00195,-5 0,-2.61807 -2.38378,-5.00016 -5.00195,-5 z" id="path6210" inkscape:label="display-brightness" sodipodi:nodetypes="sssss" fill="#bbbbbb"/>
  <rect height="2" id="rect6214" width="2" x="368" y="-242" fill="#bbbbbb" fill-rule="evenodd" rx="0.5"/>
  <rect height="2" id="rect6217" width="2" x="368" y="-228" fill="#bbbbbb" fill-rule="evenodd" rx="0.5"/>
  <rect height="2" id="rect6225" transform="matrix(0.70710678,-0.70710678,0.70710678,0.70710678,0,0)" width="2" x="425.39" y="87.46" fill="#bbbbbb" fill-rule="evenodd" rx="0.5"/>
  <rect height="2" id="rect6227" transform="matrix(0.70710678,-0.70710678,0.70710678,0.70710678,0,0)" width="2" x="425.39" y="101.46" fill="#bbbbbb" fill-rule="evenodd" rx="0.5"/>
  <rect height="2" id="rect6237" transform="matrix(0,-1,1,0,0,0)" width="2" x="233" y="361" fill="#bbbbbb" fill-rule="evenodd" rx="0.5"/>
  <rect height="2" id="rect6239" transform="matrix(0,-1,1,0,0,0)" width="2" x="233" y="375" fill="#bbbbbb" fill-rule="evenodd" rx="0.5"/>
  <rect height="2" id="rect6243" transform="matrix(-0.70710678,-0.70710678,0.70710678,-0.70710678,0,0)" width="2" x="-96.46" y="418.39" fill="#bbbbbb" fill-rule="evenodd" rx="0.5"/>
  <rect height="2" id="rect6245" transform="matrix(-0.70710678,-0.70710678,0.70710678,-0.70710678,0,0)" width="2" x="-96.46" y="432.39" fill="#bbbbbb" fill-rule="evenodd" rx="0.5"/>
 </g>
</svg>
