<?xml version="1.0" encoding="UTF-8" standalone="no"?>
<svg xmlns="http://www.w3.org/2000/svg" xmlns:xlink="http://www.w3.org/1999/xlink" xmlns:sodipodi="http://sodipodi.sourceforge.net/DTD/sodipodi-0.dtd" xmlns:inkscape="http://www.inkscape.org/namespaces/inkscape" width="16" height="16" version="1.1">
 <defs id="defs5402">
  <linearGradient id="linearGradient3813">
   <stop id="stop3815" stop-color="#5a5a5a"/>
   <stop offset="1" id="stop3817" stop-color="#8c8c8c"/>
  </linearGradient>
  <linearGradient id="linearGradient3904">
   <stop id="stop3906" stop-color="#104b88"/>
   <stop id="stop3908" offset="1" stop-color="#0e7398"/>
  </linearGradient>
  <linearGradient inkscape:collect="always" id="linearGradient3886">
   <stop id="stop3888" stop-color="#5097e1"/>
   <stop offset="1" id="stop3890" stop-color="#53d0ff"/>
  </linearGradient>
  <linearGradient inkscape:collect="always" id="linearGradient3804">
   <stop id="stop3806" stop-color="#ffffff"/>
   <stop offset="1" id="stop3808" stop-color="#ffffff" stop-opacity="0"/>
  </linearGradient>
  <linearGradient inkscape:collect="always" xlink:href="#linearGradient3804" id="linearGradient6750" x1="443.5" y1="-178.5" x2="444" y2="-175.5" gradientUnits="userSpaceOnUse" gradientTransform="translate(-433,180.00027)"/>
  <linearGradient inkscape:collect="always" xlink:href="#linearGradient3804" id="linearGradient6736" x1="435" x2="438" gradientUnits="userSpaceOnUse"/>
  <linearGradient inkscape:collect="always" xlink:href="#linearGradient5621" id="linearGradient5956" y1="63.937" x2="0" y2="47.937" gradientUnits="userSpaceOnUse" gradientTransform="translate(-1400.9375,-47.937495)"/>
  <linearGradient id="linearGradient5621">
   <stop id="stop5623" stop-color="#0b0b0b"/>
   <stop offset="1" id="stop5625" stop-color="#585858"/>
  </linearGradient>
  <linearGradient id="linearGradient8589">
   <stop id="stop8591" stop-color="#fefefe"/>
   <stop id="stop8593" offset="1" stop-color="#cbcbcb"/>
  </linearGradient>
  <radialGradient cx="102" cy="112.3" r="139.56" id="XMLID_8_" gradientUnits="userSpaceOnUse">
   <stop id="stop41" stop-color="#b7b8b9"/>
   <stop id="stop47" offset="0.189" stop-color="#ececec"/>
   <stop id="stop49" offset="0.257" stop-color="#fafafa" stop-opacity="0"/>
   <stop id="stop51" offset="0.301" stop-color="#ffffff" stop-opacity="0"/>
   <stop id="stop53" offset="0.531" stop-color="#fafafa" stop-opacity="0"/>
   <stop id="stop55" offset="0.845" stop-color="#ebecec" stop-opacity="0"/>
   <stop id="stop57" offset="1" stop-color="#e1e2e3" stop-opacity="0"/>
  </radialGradient>
  <linearGradient inkscape:collect="always" xlink:href="#linearGradient3804" id="linearGradient6701" y1="-180" x2="0" y2="-164" gradientUnits="userSpaceOnUse"/>
  <clipPath id="clipPath6691">
   <path id="path6693" d="m 914,-179.00027 8,-1e-5 4,3 0,11 -12,0 z"/>
  </clipPath>
  <linearGradient id="outerBackgroundGradient-4">
   <stop id="stop3864-8-6-6" stop-color="#f0f0f0"/>
   <stop offset="1" id="stop3866-9-1-7" stop-color="#f9f9f9"/>
  </linearGradient>
  <linearGradient inkscape:collect="always" xlink:href="#outerBackgroundGradient-4" id="linearGradient3829" gradientUnits="userSpaceOnUse" gradientTransform="matrix(0,-0.05555556,0.05714289,0,-3.1428659,15)" y1="280" x2="0" y2="40"/>
  <linearGradient inkscape:collect="always" xlink:href="#linearGradient3804" id="linearGradient3831" gradientUnits="userSpaceOnUse" y1="1" x2="0" y2="14" gradientTransform="matrix(0,-1,1,0,-1,13)"/>
  <linearGradient inkscape:collect="always" xlink:href="#linearGradient3886" id="linearGradient3892" y1="15" x2="0" y2="9" gradientUnits="userSpaceOnUse" gradientTransform="translate(0.5,0.5)"/>
  <linearGradient inkscape:collect="always" xlink:href="#linearGradient3904" id="linearGradient3902" y1="16" x2="0" y2="8" gradientUnits="userSpaceOnUse" gradientTransform="translate(0.5,0.5)"/>
  <linearGradient inkscape:collect="always" xlink:href="#linearGradient3813" id="linearGradient3819" y1="12" x2="0" y2="4" gradientUnits="userSpaceOnUse"/>
  <clipPath id="clipPath4307">
   <path d="m 168,265 c -3.86599,0 -7,3.13401 -7,7 0,3.86599 3.13401,7 7,7 3.866,0 7,-3.13401 7,-7 0,-3.86599 -3.134,-7 -7,-7 z m 3.3125,3.0625 1.5625,1.40625 -5.25,6.9375 -4.0625,-3.5 1.34375,-1.78125 2.375,2.0625 4.03125,-5.125 z" id="path4309"/>
  </clipPath>
  <linearGradient inkscape:collect="always" xlink:href="#linearGradient3760" id="linearGradient3852" gradientUnits="userSpaceOnUse" gradientTransform="matrix(0.92857143,0,0,-0.92857143,-148,292.57143)" y1="280" x2="0" y2="264"/>
  <linearGradient id="linearGradient3760">
   <stop id="stop3762" stop-color="#e44343"/>
   <stop offset="1" id="stop3764" stop-color="#ac0808"/>
  </linearGradient>
  <linearGradient y2="264" x2="0" y1="280" gradientTransform="matrix(0.92857143,0,0,-0.92857143,-135.625,264.07143)" gradientUnits="userSpaceOnUse" id="linearGradient3039" xlink:href="#linearGradient3760" inkscape:collect="always"/>
  <linearGradient y2="264" x2="0" y1="280" gradientTransform="matrix(0.42857143,0,0,-0.42857143,-59.5,129.07143)" gradientUnits="userSpaceOnUse" id="linearGradient3097" xlink:href="#linearGradient3760" inkscape:collect="always"/>
  <linearGradient inkscape:collect="always" xlink:href="#linearGradient3804" id="linearGradient3914" gradientUnits="userSpaceOnUse" gradientTransform="translate(2,1)" y1="1" x2="0" y2="14"/>
  <linearGradient inkscape:collect="always" xlink:href="#outerBackgroundGradient-4" id="linearGradient3917" gradientUnits="userSpaceOnUse" gradientTransform="matrix(0.05555556,0,0,0.05714289,0,-1.1428659)" y1="280" x2="0" y2="40"/>
 </defs>
 <metadata id="metadata5405"/>
 <g id="layer1" inkscape:label="Background" inkscape:groupmode="layer">
  <g id="g3920" opacity="0.5">
   <path d="M 13.999996,3 14,13 C 10,13 5.999999,13 2,13 L 2,3 z" id="path3029" inkscape:connector-curvature="0" sodipodi:nodetypes="ccccc" opacity="0.41" fill="none" stroke="#000000" stroke-linejoin="round" color="#bebebe" stroke-width="2"/>
   <path sodipodi:nodetypes="ccccc" inkscape:connector-curvature="0" id="rect3373-6" d="M 13.999996,3 14,13 C 10,13 5.999999,13 2,13 L 2,3 z" fill="url(#linearGradient3917)" color="#bebebe" stroke-width="0"/>
   <path id="path3799" d="M 14,3 2,3 2,13 14,13 14,3 z m -1,1 0,8 -10,0 0,-8 10,0 z" inkscape:connector-curvature="0" fill="url(#linearGradient3914)" color="#bebebe" stroke-width="0"/>
   <rect y="4" x="3" height="8" width="10" id="rect3811" opacity="1" fill="url(#linearGradient3819)"/>
   <path id="rect3038" d="M 3 4 L 3 12 L 13 12 L 13 4 L 3 4 z M 4 5 L 12 5 L 12 11 L 4 11 L 4 5 z " opacity="0.2" stroke-linejoin="round" stroke-linecap="square" stroke-width="12"/>
  </g>
 </g>
 <g inkscape:groupmode="layer" id="layer2" inkscape:label="Symbol">
  <path id="path2922-6-6-0" inkscape:connector-curvature="0" d="m 12.5,15.5 c -1.656853,0 -3,-1.343147 -3,-3 0,-1.656853 1.343147,-3 3,-3 1.656857,0 3,1.343147 3,3 0,1.656853 -1.343143,3 -3,3 z" sodipodi:nodetypes="sssss" fill="url(#linearGradient3097)" color="#000000" stroke-width="0.843"/>
  <path sodipodi:nodetypes="sssss" d="m 12.5,15.5 c -1.656853,0 -3,-1.343147 -3,-3 0,-1.656853 1.343147,-3 3,-3 1.656857,0 3,1.343147 3,3 0,1.656853 -1.343143,3 -3,3 z" inkscape:connector-curvature="0" id="path3907" opacity="0.81" fill="none" stroke="#790000" color="#000000"/>
  <path d="m 11,11 3,3" id="path3909" inkscape:connector-curvature="0" fill="none" stroke="#ffffff"/>
  <path d="m 11,14 3,-3" id="path3911" inkscape:connector-curvature="0" fill="none" stroke="#ffffff"/>
 </g>
</svg>
