<?xml version="1.0" encoding="UTF-8" standalone="no"?>
<svg xmlns="http://www.w3.org/2000/svg" xmlns:xlink="http://www.w3.org/1999/xlink" xmlns:sodipodi="http://sodipodi.sourceforge.net/DTD/sodipodi-0.dtd" xmlns:inkscape="http://www.inkscape.org/namespaces/inkscape" width="16" height="16" version="1.1">
 <defs id="defs5402">
  <linearGradient id="linearGradient3813">
   <stop id="stop3815" stop-color="#5a5a5a"/>
   <stop offset="1" id="stop3817" stop-color="#8c8c8c"/>
  </linearGradient>
  <linearGradient id="linearGradient3904">
   <stop id="stop3906" stop-color="#104b88"/>
   <stop id="stop3908" offset="1" stop-color="#0e7398"/>
  </linearGradient>
  <linearGradient inkscape:collect="always" id="linearGradient3886">
   <stop id="stop3888" stop-color="#5097e1"/>
   <stop offset="1" id="stop3890" stop-color="#53d0ff"/>
  </linearGradient>
  <linearGradient inkscape:collect="always" id="linearGradient3804">
   <stop id="stop3806" stop-color="#ffffff"/>
   <stop offset="1" id="stop3808" stop-color="#ffffff" stop-opacity="0"/>
  </linearGradient>
  <linearGradient inkscape:collect="always" xlink:href="#linearGradient3804" id="linearGradient6750" x1="443.5" y1="-178.5" x2="444" y2="-175.5" gradientUnits="userSpaceOnUse" gradientTransform="translate(-433,180.00027)"/>
  <linearGradient inkscape:collect="always" xlink:href="#linearGradient3804" id="linearGradient6736" x1="435" x2="438" gradientUnits="userSpaceOnUse"/>
  <linearGradient inkscape:collect="always" xlink:href="#linearGradient5621" id="linearGradient5956" y1="63.937" x2="0" y2="47.937" gradientUnits="userSpaceOnUse" gradientTransform="translate(-1400.9375,-47.937495)"/>
  <linearGradient id="linearGradient5621">
   <stop id="stop5623" stop-color="#0b0b0b"/>
   <stop offset="1" id="stop5625" stop-color="#585858"/>
  </linearGradient>
  <linearGradient id="linearGradient8589">
   <stop id="stop8591" stop-color="#fefefe"/>
   <stop id="stop8593" offset="1" stop-color="#cbcbcb"/>
  </linearGradient>
  <radialGradient cx="102" cy="112.3" r="139.56" id="XMLID_8_" gradientUnits="userSpaceOnUse">
   <stop id="stop41" stop-color="#b7b8b9"/>
   <stop id="stop47" offset="0.189" stop-color="#ececec"/>
   <stop id="stop49" offset="0.257" stop-color="#fafafa" stop-opacity="0"/>
   <stop id="stop51" offset="0.301" stop-color="#ffffff" stop-opacity="0"/>
   <stop id="stop53" offset="0.531" stop-color="#fafafa" stop-opacity="0"/>
   <stop id="stop55" offset="0.845" stop-color="#ebecec" stop-opacity="0"/>
   <stop id="stop57" offset="1" stop-color="#e1e2e3" stop-opacity="0"/>
  </radialGradient>
  <linearGradient inkscape:collect="always" xlink:href="#linearGradient3804" id="linearGradient6701" y1="-180" x2="0" y2="-164" gradientUnits="userSpaceOnUse"/>
  <clipPath id="clipPath6691">
   <path id="path6693" d="m 914,-179.00027 8,-1e-5 4,3 0,11 -12,0 z"/>
  </clipPath>
  <linearGradient id="outerBackgroundGradient-4">
   <stop id="stop3864-8-6-6" stop-color="#f0f0f0"/>
   <stop offset="1" id="stop3866-9-1-7" stop-color="#f9f9f9"/>
  </linearGradient>
  <linearGradient inkscape:collect="always" xlink:href="#outerBackgroundGradient-4" id="linearGradient3829" gradientUnits="userSpaceOnUse" gradientTransform="matrix(0,-0.05555556,0.05714289,0,-3.1428659,15)" y1="280" x2="0" y2="40"/>
  <linearGradient inkscape:collect="always" xlink:href="#linearGradient3804" id="linearGradient3831" gradientUnits="userSpaceOnUse" y1="1" x2="0" y2="14" gradientTransform="matrix(0,-1,1,0,-1,13)"/>
  <linearGradient inkscape:collect="always" xlink:href="#linearGradient3886" id="linearGradient3892" y1="15" x2="0" y2="9" gradientUnits="userSpaceOnUse" gradientTransform="translate(0.5,0.5)"/>
  <linearGradient inkscape:collect="always" xlink:href="#linearGradient3904" id="linearGradient3902" y1="16" x2="0" y2="8" gradientUnits="userSpaceOnUse" gradientTransform="translate(0.5,0.5)"/>
  <linearGradient inkscape:collect="always" xlink:href="#linearGradient3813" id="linearGradient3819" y1="12" x2="0" y2="4" gradientUnits="userSpaceOnUse"/>
  <linearGradient inkscape:collect="always" xlink:href="#outerBackgroundGradient-4" id="linearGradient3823" x1="11" x2="15" gradientUnits="userSpaceOnUse"/>
 </defs>
 <metadata id="metadata5405"/>
 <g id="layer1" inkscape:label="Background" inkscape:groupmode="layer">
  <g id="g3812" transform="matrix(0,1,-1,0,15,2)">
   <path d="M 1,1.000004 11,1 c 0,4 0,8.000001 0,12 L 1,13 z" id="path3029" inkscape:connector-curvature="0" sodipodi:nodetypes="ccccc" opacity="0.41" fill="none" stroke="#000000" stroke-linejoin="round" color="#bebebe" stroke-width="2"/>
   <path sodipodi:nodetypes="ccccc" inkscape:connector-curvature="0" id="rect3373-6" d="M 1,1.000004 11,1 c 0,4 0,8.000001 0,12 L 1,13 z" fill="url(#linearGradient3829)" color="#bebebe" stroke-width="0"/>
   <path id="path3799" d="M 1,1 1,13 11,13 11,1 1,1 z m 1,1 8,0 0,10 -8,0 0,-10 z" inkscape:connector-curvature="0" fill="url(#linearGradient3831)" color="#bebebe" stroke-width="0"/>
  </g>
  <rect id="rect3811" width="10" height="8" x="3" y="4" fill="url(#linearGradient3819)"/>
  <path d="m 3,4 0,8 10,0 0,-8 -10,0 z m 1,1 8,0 0,6 -8,0 0,-6 z" id="rect3038" inkscape:connector-curvature="0" opacity="0.2"/>
 </g>
 <g inkscape:groupmode="layer" id="layer2" inkscape:label="Symbol">
  <path sodipodi:type="arc" id="path3042" sodipodi:cx="13" sodipodi:cy="13" sodipodi:rx="2" sodipodi:ry="2" d="m 15,13 a 2,2 0 1 1 -4,0 2,2 0 1 1 4,0 z" transform="matrix(0,-1.75,1.75,0,-10.75,34.75)" fill="url(#linearGradient3823)"/>
  <path transform="matrix(1.75,0,0,1.75,-10.75,-10.75)" d="m 15,13 a 2,2 0 1 1 -4,0 2,2 0 1 1 4,0 z" sodipodi:ry="2" sodipodi:rx="2" sodipodi:cy="13" sodipodi:cx="13" id="path3814" sodipodi:type="arc" opacity="0.41" fill="none" stroke="#000000" stroke-width="0.571"/>
  <path d="m 11.75,10.35 0,2 1.5,0" id="path3825" inkscape:connector-curvature="0" sodipodi:nodetypes="ccc" opacity="0.8" fill="none" stroke="#000000" stroke-linecap="round" stroke-width="0.5"/>
 </g>
</svg>
