<?xml version='1.0' encoding='UTF-8' standalone='no'?>
<svg height="16" xmlns:inkscape="http://www.inkscape.org/namespaces/inkscape" xmlns:sodipodi="http://sodipodi.sourceforge.net/DTD/sodipodi-0.dtd" version="1.1" width="16" xmlns="http://www.w3.org/2000/svg" enable-background="new">
 <metadata id="metadata90"/>
 <defs id="defs7386">
  <linearGradient id="linearGradient5606" osb:paint="solid">
   <stop id="stop5608"/>
  </linearGradient>
  <filter inkscape:collect="always" color-interpolation-filters="sRGB" id="filter7554">
   <feBlend inkscape:collect="always" id="feBlend7556" in2="BackgroundImage" mode="darken"/>
  </filter>
 </defs>
 <g inkscape:groupmode="layer" id="layer9" inkscape:label="status" transform="translate(-321.00021,261.99997)">
  <path inkscape:connector-curvature="0" d="m 327.49884,-257.9974 a 0.5057293,0.49443445 0 0 1 -0.50535,-0.49805 c -8e-5,-0.008 0,-0.0158 0,-0.0239 0,-1.35757 1.125,-2.4743 2.50637,-2.4743 1.38137,0 2.50637,1.11673 2.50637,2.4743 a 0.5057293,0.49443445 0 1 1 -1.0107,0 c 0,-0.82998 -0.6679,-1.48617 -1.49567,-1.48617 -0.82777,0 -1.49567,0.65619 -1.49567,1.48617 0,0.005 -5e-5,0.011 0,0.0159 a 0.5057293,0.49443445 0 0 1 -0.50535,0.50602 z" id="path35480" color="#000000" stroke-width="7.755" fill="#bbbbbb"/>
  <path inkscape:connector-curvature="0" d="m 328.49598,-251.50071 c -0.8225,-0.002 -1.49724,-0.68078 -1.49512,-1.50328 a 0.50005019,0.5000498 0 1 1 0.99947,0.002 c -7.3e-4,0.28206 0.21562,0.50105 0.49769,0.50177 0.28207,7.3e-4 0.50105,-0.21563 0.50178,-0.49769 0,-4.3e-4 0,-0.002 0,-0.002 a 0.50005019,0.5000498 0 1 1 0.99946,0 c 0,6.5e-4 1e-5,0.001 0,0.002 l 0,0.002 c -0.002,0.82181 -0.67966,1.49611 -1.50124,1.49512 l -0.002,0 z" id="path35482" color="#000000" stroke-width="15.321" fill="#bbbbbb"/>
  <path inkscape:connector-curvature="0" d="M 329.40625,-257 A 0.50005,0.50005 0 0 0 329,-256.5 l 0,3.46875 a 0.50005,0.50005 0 1 0 1,0 l 0,-3.46875 a 0.50005,0.50005 0 0 0 -0.59375,-0.5 z" id="path35484" color="#000000" fill="#bbbbbb"/>
  <path inkscape:connector-curvature="0" d="M 331.40625,-259 A 0.50005,0.50005 0 0 0 331,-258.5 l 0,6.8125 a 0.50005,0.50005 0 1 0 1,0 l 0,-6.8125 a 0.50005,0.50005 0 0 0 -0.59375,-0.5 z" id="path35486" color="#000000" fill="#bbbbbb"/>
  <path inkscape:connector-curvature="0" d="M 327.40625,-259 A 0.50005,0.50005 0 0 0 327,-258.5 l 0,5.40625 a 0.50005,0.50005 0 1 0 1,0 l 0,-5.40625 a 0.50005,0.50005 0 0 0 -0.59375,-0.5 z" id="path35488" color="#000000" fill="#bbbbbb"/>
  <path inkscape:connector-curvature="0" d="M 325.40625,-258 A 0.50005,0.50005 0 0 0 325,-257.5 l 0,6 a 0.50005,0.50005 0 1 0 1,0 l 0,-6 a 0.50005,0.50005 0 0 0 -0.59375,-0.5 z" id="path35490" color="#000000" fill="#bbbbbb"/>
  <path inkscape:connector-curvature="0" d="m 325.00026,-252.03125 0,0.5 c -1.1e-4,0.0115 0,0.0197 0,0.0312 0,1.92707 1.57293,3.5 3.5,3.5 1.92707,0 3.5,-1.57293 3.5,-3.5 l 0,-0.5 -1,0 0,0.5 c 0,1.38663 -1.11337,2.5 -2.5,2.5 -1.38663,0 -2.5,-1.11337 -2.5,-2.5 0,-0.008 -8e-5,-0.023 0,-0.0312 l 0,-0.5 -1,0 z" id="path6715" color="#000000" fill="#bbbbbb"/>
 </g>
</svg>
