<?xml version='1.0' encoding='UTF-8' standalone='no'?>
<svg height="16" xmlns:inkscape="http://www.inkscape.org/namespaces/inkscape" xmlns:sodipodi="http://sodipodi.sourceforge.net/DTD/sodipodi-0.dtd" version="1.1" width="16.03" xmlns="http://www.w3.org/2000/svg" enable-background="new">
 <metadata id="metadata90"/>
 <defs id="defs7386">
  <linearGradient id="linearGradient5606" osb:paint="solid">
   <stop id="stop5608"/>
  </linearGradient>
  <filter inkscape:collect="always" color-interpolation-filters="sRGB" id="filter7554">
   <feBlend inkscape:collect="always" id="feBlend7556" in2="BackgroundImage" mode="darken"/>
  </filter>
 </defs>
 <g inkscape:groupmode="layer" id="layer9" inkscape:label="status" transform="translate(-360.96895,387)">
  <path inkscape:connector-curvature="0" d="m 369.0002,-385 c 1.00429,0 1.89288,0.5137 2.4375,1.28125 1.41264,0.346 2.71443,0.98617 3.9375,1.75 l -2.375,2.59375 0,1.375 0,0.0937 3.96875,-4.375 C 374.71234,-383.93454 372.01125,-385 369.0002,-385 z m 0,0 c -3.03435,0 -5.76588,1.07815 -8.03125,2.75 l 4.03125,4.40625 0,-0.15625 0,-1.3125 -2.4375,-2.6875 c 1.24921,-0.77456 2.58875,-1.38449 4.03125,-1.71875 0.54558,-0.75916 1.40866,-1.28125 2.40625,-1.28125 z m 0,1 c -1.108,0 -2,0.91081 -2,2.03125 l 0,0.96875 -1,0 0,1 0,2 0,1 1,0 4,0 1,0 0,-1 0,-2 0,-1 -1,0 0,-0.96875 c 0,-1.12 -0.892,-2.03125 -2,-2.03125 z m 0,1 c 0.554,0 1,0.44236 1,1 l 0,1 -2,0 0,-1 c 0,-0.55764 0.446,-1 1,-1 z m -2.28125,7 2.28125,2.5 2.28125,-2.5 -0.28125,0 -1.125,0 -0.9375,1.03125 -0.9375,-1.03125 -1,0 -0.28125,0 z" id="path5739" fill="#bebebe" color="#000000"/>
 </g>
</svg>
