<?xml version='1.0' encoding='UTF-8' standalone='no'?>
<svg height="16" xmlns:inkscape="http://www.inkscape.org/namespaces/inkscape" xmlns:sodipodi="http://sodipodi.sourceforge.net/DTD/sodipodi-0.dtd" version="1.1" width="16" xmlns="http://www.w3.org/2000/svg" enable-background="new">
 <metadata id="metadata90"/>
 <defs id="defs7386">
  <linearGradient id="linearGradient5606" osb:paint="solid">
   <stop id="stop5608"/>
  </linearGradient>
  <filter inkscape:collect="always" color-interpolation-filters="sRGB" id="filter7554">
   <feBlend inkscape:collect="always" id="feBlend7556" in2="BackgroundImage" mode="darken"/>
  </filter>
 </defs>
 <g inkscape:groupmode="layer" id="layer9" inkscape:label="status" transform="translate(-441.0002,343)">
  <path inkscape:connector-curvature="0" d="m 451.0002,-342.53125 0,1.03125 0,1.5 -2.5,0 -0.5,0 0,1 0.5,0 3,0 0.5,0 0,-0.5 0,-0.96875 3.40627,2.9687 -3.40627,2.9688 0,-0.96875 0,-0.5 -0.5,0 -2.5,0 -2,0 0,-1.5 0,-1.03125 -0.8125,0.65625 -5.18748,4.375 0,0 0,0 5.18748,4.375 0.8125,0.65625 0,-1.03125 0,-1.5 2.5,0 0.5,0 0,-1 -0.5,0 -3,0 -0.5,0 0,0.5 0,0.96875 -3.40623,-2.96875 3.40623,-2.96875 0,0.96875 0,0.5 0.5,0 2.5,0 2,0 0,1.5 0,1.03125 0.0625,-0.0312 c 0.25416,-1.40198 1.46548,-2.5 2.9375,-2.5 0.0428,0 0.0826,-0.002 0.125,0 l 2.875,-2.50006 2e-5,10e-6 0,0 -5.18752,-4.37495 -0.8125,-0.65625 z m 3,8.53125 c -1.108,0 -2,0.91085 -2,2.03125 l 0,0.96875 -1,0 0,1 0,2 0,1 1,0 4,0 1,0 0,-1 0,-2 0,-1 -1,0 0,-0.96875 c 0,-1.1199 -0.892,-2.03125 -2,-2.03125 z m 0,1 c 0.554,0 1,0.4424 1,1 l 0,1 -2,0 0,-1 c 0,-0.5576 0.446,-1 1,-1 z" id="path5983-3" sodipodi:nodetypes="ccccccccccccccccccccccccccccccccccccccccccccccscccccccssccccccccccccssssccss" fill="#bebebe"/>
 </g>
</svg>
