<?xml version='1.0' encoding='UTF-8' standalone='no'?>
<svg height="16" xmlns:inkscape="http://www.inkscape.org/namespaces/inkscape" xmlns:sodipodi="http://sodipodi.sourceforge.net/DTD/sodipodi-0.dtd" version="1.1" width="16" xmlns="http://www.w3.org/2000/svg" enable-background="new">
 <metadata id="metadata90"/>
 <defs id="defs7386">
  <linearGradient id="linearGradient5606" osb:paint="solid">
   <stop id="stop5608"/>
  </linearGradient>
  <filter inkscape:collect="always" color-interpolation-filters="sRGB" id="filter7554">
   <feBlend inkscape:collect="always" id="feBlend7556" in2="BackgroundImage" mode="darken"/>
  </filter>
 </defs>
 <g inkscape:groupmode="layer" id="layer9" inkscape:label="status" transform="translate(-481.0002,403)">
  <path inkscape:connector-curvature="0" d="m 491.0002,-402.53125 0,1.03125 0,1.5 -2.5,0 -0.5,0 0,1 0.5,0 3,0 0.5,0 0,-0.5 0,-0.96875 3.40627,2.96875 -1.65627,1.5625 c 0.1496,0.28061 0.25,0.5961 0.25,0.9375 0,0.0424 0.003,0.0833 0,0.125 l 3.00002,-2.625 0,0 0,0 -5.18752,-4.375 z m 0,9.53125 0,0.53125 0.65625,-0.53125 z" id="path3766-7" sodipodi:nodetypes="cccccccccccccscccccccccc" opacity="0.35" fill="#bebebe" color="#000000"/>
  <path inkscape:connector-curvature="0" d="m 487.0002,-398.53125 -0.8125,0.65625 -5.18748,4.375 0,0 0,0 5.18748,4.375 0.8125,0.65625 0,-1.03125 0,-1.5 2.5,0 0.5,0 0,-1 -0.5,0 -3,0 -0.5,0 0,0.5 0,0.96875 -3.40623,-2.96875 1.40623,-1.375 c -0.003,-0.0417 0,-0.0826 0,-0.125 0,-1.108 0.892,-2 2,-2 l 1,0 0,-0.5 z" id="path3783-95" sodipodi:nodetypes="cccccccccccccccccccssccc" opacity="0.35" fill="#bebebe" color="#000000"/>
  <path inkscape:connector-curvature="0" d="m 486.0002,-396 c -0.55228,0 -1,0.44772 -1,1 0,0.55228 0.44772,1 1,1 0.55228,0 1,-0.44772 1,-1 0,-0.55228 -0.44772,-1 -1,-1 z m 3,0 c -0.55228,0 -1,0.44772 -1,1 0,0.55228 0.44772,1 1,1 0.55228,0 1,-0.44772 1,-1 0,-0.55228 -0.44772,-1 -1,-1 z m 3,0 c -0.55228,0 -1,0.44772 -1,1 0,0.55228 0.44772,1 1,1 0.55228,0 1,-0.44772 1,-1 0,-0.55228 -0.44772,-1 -1,-1 z" id="path5858-0" fill="#bebebe"/>
 </g>
</svg>
