<?xml version='1.0' encoding='UTF-8' standalone='no'?>
<svg height="16" xmlns:inkscape="http://www.inkscape.org/namespaces/inkscape" xmlns:sodipodi="http://sodipodi.sourceforge.net/DTD/sodipodi-0.dtd" version="1.1" width="16" xmlns="http://www.w3.org/2000/svg" enable-background="new">
 <metadata id="metadata90"/>
 <defs id="defs7386">
  <linearGradient id="linearGradient5606" osb:paint="solid">
   <stop id="stop5608"/>
  </linearGradient>
  <filter inkscape:collect="always" color-interpolation-filters="sRGB" id="filter7554">
   <feBlend inkscape:collect="always" id="feBlend7556" in2="BackgroundImage" mode="darken"/>
  </filter>
 </defs>
 <g inkscape:groupmode="layer" id="layer9" inkscape:label="status" transform="translate(-501.0002,343)">
  <path inkscape:connector-curvature="0" d="m 511.00021,-342.53125 0,1.03125 0,1.5 -2.5,0 -0.5,0 0,1 0.5,0 3,0 0.5,0 0,-0.5 0,-0.96875 3.56407,2.96875 -0.56407,0.5625 0,1.25 2.00001,-1.8125 0,0 -2e-5,-10e-6 -5.18749,-4.37499 z m -2,6.53125 0,1 2,0 0,-1 z" id="path3766" sodipodi:nodetypes="cccccccccccccccccccccccc" opacity="0.35" fill="#bebebe" color="#000000"/>
  <path inkscape:connector-curvature="0" d="m 507.00021,-338.53125 -0.8125,0.65625 -5.18749,4.375 0,0 0,0 5.18749,4.375 0.8125,0.65625 0,-1.03125 0,-1.5 2.5,0 0.5,0 0,-1 -0.5,0 -3,0 -0.5,0 0,0.5 0,0.96875 -3.40624,-2.96875 3.40624,-2.96875 0,0.96875 0,0.5 0.5,0 2.50002,0 0,-1 -2.00002,0 0,-1.5 z" id="path3783" sodipodi:nodetypes="ccccccccccccccccccccccccccc" opacity="0.35" fill="#bebebe" color="#000000"/>
  <path inkscape:connector-curvature="0" d="m 512.00023,-337 -10e-6,4 0.25,2 1.5,0 0.25,-2 10e-6,-4 z m 0,7 0,2 2,0 0,-2 z" id="path6053-9" sodipodi:nodetypes="cccccccccccc" fill="#ef2929" color="#444444"/>
 </g>
</svg>
