<?xml version='1.0' encoding='UTF-8' standalone='no'?>
<svg height="16" xmlns:inkscape="http://www.inkscape.org/namespaces/inkscape" xmlns:sodipodi="http://sodipodi.sourceforge.net/DTD/sodipodi-0.dtd" version="1.1" width="16" xmlns="http://www.w3.org/2000/svg" enable-background="new">
 <metadata id="metadata90"/>
 <defs id="defs7386">
  <linearGradient id="linearGradient5606" osb:paint="solid">
   <stop id="stop5608"/>
  </linearGradient>
  <filter inkscape:collect="always" color-interpolation-filters="sRGB" id="filter7554">
   <feBlend inkscape:collect="always" id="feBlend7556" in2="BackgroundImage" mode="darken"/>
  </filter>
 </defs>
 <g inkscape:groupmode="layer" id="layer9" inkscape:label="status" transform="translate(-360.00013,303)">
  <path inkscape:connector-curvature="0" d="m 373.5002,-303 c -0.277,0 -0.5,0.223 -0.5,0.5 l 0,8.5 0,5.5 c 0,0.277 0.223,0.5 0.5,0.5 l 1,0 c 0.277,0 0.5,-0.223 0.5,-0.5 l 0,-14 c 0,-0.277 -0.223,-0.5 -0.5,-0.5 l -1,0 z m -3,3 c -0.277,0 -0.5,0.223 -0.5,0.5 l 0,3.5 1,0 c 0.1385,0 0.27582,0.005 0.40625,0.0312 0.041,0.009 0.0848,0.0196 0.125,0.0312 0.16774,0.0456 0.32185,0.13378 0.46875,0.21875 l 0,-3.78115 c 0,-0.277 -0.223,-0.5 -0.5,-0.5 l -1,0 z m -3,3 c -0.277,0 -0.5,0.223 -0.5,0.5 l 0,0.5 1,0 1,0 0,-0.5 c 0,-0.277 -0.223,-0.5 -0.5,-0.5 l -1,0 z m -3.5,4.71875 0,3.78125 c 0,0.277 0.223,0.5 0.5,0.5 l 1,0 c 0.277,0 0.5,-0.223 0.5,-0.5 l 0,-3.5 -1,0 c -0.18351,0 -0.36266,-0.0166 -0.53125,-0.0625 -0.0319,-0.009 -0.0625,-0.0205 -0.0937,-0.0312 -0.1331,-0.0434 -0.25596,-0.11864 -0.375,-0.1875 z m 8,0 c -0.0717,0.0415 -0.14173,0.0925 -0.21875,0.125 -0.0815,0.0357 -0.16352,0.0686 -0.25,0.0937 -0.16859,0.0459 -0.34774,0.0625 -0.53125,0.0625 l -1,0 0,3.5 c 0,0.277 0.223,0.5 0.5,0.5 l 1,0 c 0.277,0 0.5,-0.223 0.5,-0.5 l 0,-3.78125 z m -5,0.28125 0,3.5 c 0,0.277 0.223,0.5 0.5,0.5 l 1,0 c 0.277,0 0.5,-0.223 0.5,-0.5 l 0,-3.5 -1,0 -1,0 z m -5.5,1 c -0.277,0 -0.5,0.223 -0.5,0.5 l 0,2 c 0,0.277 0.223,0.5 0.5,0.5 l 1,0 c 0.277,0 0.5,-0.223 0.5,-0.5 l 0,-2 c 0,-0.277 -0.223,-0.5 -0.5,-0.5 l -1,0 z" id="rect6691" opacity="0.35" fill="#bebebe" color="#bebebe"/>
  <path inkscape:connector-curvature="0" d="m 365.00014,-294.99997 c -0.55228,0 -1,0.44772 -1,1 0,0.55228 0.44772,1 1,1 0.55228,0 1,-0.44772 1,-1 0,-0.55228 -0.44772,-1 -1,-1 z m 3,0 c -0.55228,0 -1,0.44772 -1,1 0,0.55228 0.44772,1 1,1 0.55228,0 1,-0.44772 1,-1 0,-0.55228 -0.44772,-1 -1,-1 z m 3,0 c -0.55228,0 -1,0.44772 -1,1 0,0.55228 0.44772,1 1,1 0.55228,0 1,-0.44772 1,-1 0,-0.55228 -0.44772,-1 -1,-1 z" id="path5112" fill="#bebebe" color="#bebebe"/>
 </g>
</svg>
