<?xml version='1.0' encoding='UTF-8' standalone='no'?>
<svg height="16" xmlns:inkscape="http://www.inkscape.org/namespaces/inkscape" xmlns:sodipodi="http://sodipodi.sourceforge.net/DTD/sodipodi-0.dtd" version="1.1" width="16" xmlns="http://www.w3.org/2000/svg" enable-background="new">
 <metadata id="metadata90"/>
 <defs id="defs7386">
  <linearGradient id="linearGradient5606" osb:paint="solid">
   <stop id="stop5608"/>
  </linearGradient>
  <filter inkscape:collect="always" color-interpolation-filters="sRGB" id="filter7554">
   <feBlend inkscape:collect="always" id="feBlend7556" in2="BackgroundImage" mode="darken"/>
  </filter>
 </defs>
 <g inkscape:groupmode="layer" id="layer9" inkscape:label="status" transform="translate(-460.00021,183)">
  <path inkscape:connector-curvature="0" d="m 473.0002,-174 c -1.108,0 -2,0.91085 -2,2.03125 l 0,0.96875 -1,0 0,1 0,2 0,1 1,0 4,0 1,0 0,-1 0,-2 0,-1 -1,0 0,-0.96875 c 0,-1.1199 -0.892,-2.03125 -2,-2.03125 z m 0,1 c 0.554,0 1,0.4424 1,1 l 0,1 -2,0 0,-1 c 0,-0.5576 0.446,-1 1,-1 z" id="path5215" sodipodi:nodetypes="ssccccccccccccssssccss" fill="#bebebe"/>
  <path inkscape:connector-curvature="0" d="m 468.0002,-182 c -3.86599,0 -7,3.13401 -7,7 0,3.86599 3.13401,7 7,7 0.33536,0 0.67757,-0.0168 1,-0.0625 l 0,-2.0625 c -0.32378,0.068 -0.65495,0.125 -1,0.125 -2.76142,0 -5,-2.23858 -5,-5 0,-2.76142 2.23858,-5 5,-5 1.63862,0 3.0664,0.80776 3.96875,2.03125 L 470.0002,-176 l 5,0 0,-5 -1.59375,1.59375 C 472.12491,-180.97892 470.19069,-182 468.0002,-182 z" id="path5261" fill="#bebebe" color="#bebebe"/>
 </g>
</svg>
