<?xml version='1.0' encoding='UTF-8' standalone='no'?>
<svg height="16" xmlns:inkscape="http://www.inkscape.org/namespaces/inkscape" xmlns:sodipodi="http://sodipodi.sourceforge.net/DTD/sodipodi-0.dtd" version="1.1" width="16" xmlns="http://www.w3.org/2000/svg" enable-background="new">
 <metadata id="metadata90"/>
 <defs id="defs7386">
  <linearGradient id="linearGradient5606" osb:paint="solid">
   <stop id="stop5608"/>
  </linearGradient>
  <filter inkscape:collect="always" color-interpolation-filters="sRGB" id="filter7554">
   <feBlend inkscape:collect="always" id="feBlend7556" in2="BackgroundImage" mode="darken"/>
  </filter>
 </defs>
 <g inkscape:groupmode="layer" id="layer9" inkscape:label="status" transform="translate(-499.00021,303.00698)">
  <path inkscape:connector-curvature="0" d="m 501.0002,-302.007 0,1 0,7 c 0,2.07164 1.57494,3.52182 2.9375,4.46875 1.36256,0.94693 2.6875,1.46875 2.6875,1.46875 l 0.375,0.125 0.375,-0.125 c 0,0 1.32934,-0.54445 2.6875,-1.5 1.35816,-0.95555 2.9375,-2.39317 2.9375,-4.4375 l 0,-7 0,-1 -1,0 -5.25,0 -4.75,0 -1,0 z m 1,1 4.75,0 5.25,0 0,7 c 0,2.96398 -5,5 -5,5 0,0 -5,-1.94932 -5,-5 l 0,-7 z" id="path339" color="#bebebe" stroke-width="2" fill="#bebebe"/>
 </g>
</svg>
