<?xml version='1.0' encoding='UTF-8' standalone='no'?>
<svg height="16" xmlns:inkscape="http://www.inkscape.org/namespaces/inkscape" xmlns:sodipodi="http://sodipodi.sourceforge.net/DTD/sodipodi-0.dtd" version="1.1" width="16" xmlns="http://www.w3.org/2000/svg" enable-background="new">
 <metadata id="metadata90"/>
 <defs id="defs7386">
  <linearGradient id="linearGradient5606" osb:paint="solid">
   <stop id="stop5608"/>
  </linearGradient>
  <filter inkscape:collect="always" color-interpolation-filters="sRGB" id="filter7554">
   <feBlend inkscape:collect="always" id="feBlend7556" in2="BackgroundImage" mode="darken"/>
  </filter>
 </defs>
 <g inkscape:groupmode="layer" id="layer9" inkscape:label="status" transform="translate(-501.00021,341.99998)">
  <path inkscape:connector-curvature="0" d="m 503,-341 0,1 0,7 c 0,2.07164 1.57494,3.52182 2.9375,4.46875 1.36256,0.94693 2.6875,1.46875 2.6875,1.46875 l 0.375,0.125 0.375,-0.125 c 0,0 1.32934,-0.54445 2.6875,-1.5 C 513.42066,-329.51805 515,-330.95567 515,-333 l 0,-7 0,-1 -1,0 -5.25,0 -4.75,0 -1,0 z m 2,2 3.75,0 4.25,0 0,6 c 0,0.91965 -0.92053,1.9778 -2.0625,2.78125 -0.95449,0.67155 -1.64572,0.93504 -1.9375,1.0625 -0.29171,-0.12271 -0.98792,-0.37132 -1.9375,-1.03125 C 505.92518,-330.9779 505,-332.02096 505,-333 l 0,-6 z" id="path339" color="#bbbbbb" stroke-width="2" fill="#bbbbbb"/>
 </g>
</svg>
