<?xml version='1.0' encoding='UTF-8' standalone='no'?>
<svg height="16" xmlns:inkscape="http://www.inkscape.org/namespaces/inkscape" xmlns:sodipodi="http://sodipodi.sourceforge.net/DTD/sodipodi-0.dtd" version="1.1" width="16" xmlns="http://www.w3.org/2000/svg" enable-background="new">
 <metadata id="metadata90"/>
 <defs id="defs7386">
  <linearGradient id="linearGradient5606" osb:paint="solid">
   <stop id="stop5608"/>
  </linearGradient>
  <filter inkscape:collect="always" color-interpolation-filters="sRGB" id="filter7554">
   <feBlend inkscape:collect="always" id="feBlend7556" in2="BackgroundImage" mode="darken"/>
  </filter>
 </defs>
 <g inkscape:groupmode="layer" id="layer9" inkscape:label="status" transform="translate(-541.00021,342)">
  <path inkscape:connector-curvature="0" d="m 543,-341 0,1 0,7 c 0,2.04433 1.57934,3.48195 2.9375,4.4375 1.35816,0.95555 2.6875,1.5 2.6875,1.5 l 0.375,0.125 0.375,-0.125 c 0,0 1.32494,-0.52182 2.6875,-1.46875 C 553.42506,-329.47818 555,-330.92836 555,-333 l 0,-7 0,-1 -1,0 -10,0 -1,0 z m 2,2 8,0 0,6 c 0,0.97904 -0.92518,2.0221 -2.0625,2.8125 -0.94958,0.65993 -1.64579,0.90854 -1.9375,1.03125 -0.29178,-0.12746 -0.98301,-0.39095 -1.9375,-1.0625 C 545.92053,-331.0222 545,-332.08035 545,-333 l 0,-6 z" id="path6438" color="#bbbbbb" stroke-width="2" fill="#bbbbbb"/>
  <path inkscape:connector-curvature="0" d="m 546.00023,-338.00003 0,5 c 0,1.32813 3,2.78125 3,2.78125 0,0 3,-1.35937 3,-2.78125 l 0,-5 z" id="path6440" sodipodi:nodetypes="cscscc" fill="#bbbbbb" color="#bebebe" stroke-width="2"/>
 </g>
</svg>
