<?xml version="1.0" encoding="UTF-8" standalone="no"?>
<svg
   xmlns:dc="http://purl.org/dc/elements/1.1/"
   xmlns:cc="http://creativecommons.org/ns#"
   xmlns:rdf="http://www.w3.org/1999/02/22-rdf-syntax-ns#"
   xmlns:svg="http://www.w3.org/2000/svg"
   xmlns="http://www.w3.org/2000/svg"
   xmlns:xlink="http://www.w3.org/1999/xlink"
   id="svg5808"
   height="16"
   width="16"
   version="1.1">
  <defs
     id="defs5810">
    <linearGradient
       id="linearGradient3838">
      <stop
         id="stop3840"
         offset="0"
         style="stop-color:#ffe880;stop-opacity:1;" />
      <stop
         id="stop3842"
         offset="1"
         style="stop-color:#fff69c;stop-opacity:1;" />
    </linearGradient>
    <linearGradient
       gradientTransform="translate(0,1.7382813e-5)"
       gradientUnits="userSpaceOnUse"
       y2="0"
       x2="16"
       y1="16"
       x1="16"
       id="linearGradient3844"
       xlink:href="#linearGradient3838" />
  </defs>
  <metadata
     id="metadata5813">
    <rdf:RDF>
      <cc:Work
         rdf:about="">
        <dc:format>image/svg+xml</dc:format>
        <dc:type
           rdf:resource="http://purl.org/dc/dcmitype/StillImage" />
        <dc:title />
      </cc:Work>
    </rdf:RDF>
  </metadata>
  <path
     id="path3813"
     d="m 8,1.8125174 -0.46875,1.1875 -1.1875,3.0625 -0.09375,0.3125 -0.34375,0 -3.34375,0.1875 -1.28125,0.062 1,0.8125 2.59375,2.0938 0,0.031 0.28125,0.2188 -0.09375,0.2499996 0,0.031 -0.84375,3.1875 -0.34375,1.25 1.09375,-0.7187 2.78125,-1.8125 0.25,-0.1563 0.25,0.1563 2.78125,1.8125 1.09375,0.7187 -0.34375,-1.25 -0.84375,-3.1875 0,-0.031 -0.09375,-0.2499996 0.28125,-0.2188 0,-0.031 2.59375,-2.0938 1,-0.8125 -1.28125,-0.062 -3.34375,-0.1875 -0.34375,0 -0.09375,-0.3125 -1.1875,-3.0625 L 8,1.8125174 z"
     style="font-style:normal;font-variant:normal;font-weight:normal;font-stretch:normal;text-indent:0;text-align:start;text-decoration:none;line-height:normal;letter-spacing:normal;word-spacing:normal;text-transform:none;direction:ltr;block-progression:tb;writing-mode:lr-tb;text-anchor:start;baseline-shift:baseline;color:#000000;fill:url(#linearGradient3844);fill-opacity:1;stroke:none;stroke-width:5.35943031;marker:none;visibility:visible;display:inline;overflow:visible;enable-background:accumulate;font-family:sans-serif;-inkscape-font-specification:sans-serif" />
  <path
     id="polygon5122-0"
     d="M 8,0.40631738 5.875,5.8750174 0,6.2188174 l 4.5625,3.6875 -1.5,5.6874996 4.9375,-3.1875 4.9375,3.1875 -1.5,-5.6874996 L 16,6.2188174 10.125,5.8750174 8,0.40631738 z m 0,2.78120002 1.1875,3.0625 0.21875,0.5938 0.65625,0.031 3.34375,0.1875 -2.59375,2.0938 -0.53125,0.4062 0.1875,0.6249996 0.84375,3.1875 -2.78125,-1.8125 L 8,11.218817 l -0.53125,0.3437 -2.78125,1.8125 0.84375,-3.1875 0.1875,-0.6249996 -0.53125,-0.4062 -2.59375,-2.0938 3.34375,-0.1875 0.65625,-0.031 0.21875,-0.5938 L 8,3.1875174 z"
     style="font-style:normal;font-variant:normal;font-weight:normal;font-stretch:normal;text-indent:0;text-align:start;text-decoration:none;line-height:normal;letter-spacing:normal;word-spacing:normal;text-transform:none;direction:ltr;block-progression:tb;writing-mode:lr-tb;text-anchor:start;baseline-shift:baseline;color:#000000;fill:#ad9300;fill-opacity:1;stroke:none;stroke-width:5.35943030999999959;marker:none;visibility:visible;display:inline;overflow:visible;enable-background:accumulate;font-family:sans-serif;-inkscape-font-specification:sans-serif;opacity:0.8" />
  <path
     id="path3832"
     d="m 8,3.1875174 -1.1875,3.0313 0,0.031 -0.09375,0.2813 -0.09375,0.3437 -0.375,0 -0.3125,0 -0.03125,0 -3.3125,0.1875 1.15625,0.9375 2.15625,-0.125 0.03125,0 0.3125,0 0.375,0 0.09375,-0.3437 0.09375,-0.2813 0,-0.031 1.1875,-3.0313 1.1875,3.0313 0,0.031 0.09375,0.2813 0.09375,0.3437 0.375,0 0.3125,0 0.03125,0 2.15625,0.125 1.15625,-0.9375 -3.3125,-0.1875 -0.03125,0 -0.3125,0 -0.375,0 -0.09375,-0.3437 -0.09375,-0.2813 0,-0.031 L 8,3.1875174 z m -2.5,7.1874996 -0.8125,3 0.3125,-0.2187 0.53125,-1.9375 0,-0.031 0.03125,-0.062 0.0625,-0.1562 0.125,-0.3438 -0.25,-0.25 z m 5,0 -0.25,0.25 0.125,0.3438 0.0625,0.1562 0.03125,0.062 0,0.031 0.53125,1.9375 0.3125,0.2187 -0.8125,-3 z"
     style="font-style:normal;font-variant:normal;font-weight:normal;font-stretch:normal;text-indent:0;text-align:start;text-decoration:none;line-height:normal;letter-spacing:normal;word-spacing:normal;text-transform:none;direction:ltr;block-progression:tb;writing-mode:lr-tb;text-anchor:start;baseline-shift:baseline;opacity:0.6;color:#000000;fill:#ffffff;fill-opacity:1;stroke:none;stroke-width:5.35943031;marker:none;visibility:visible;display:inline;overflow:visible;enable-background:accumulate;font-family:sans-serif;-inkscape-font-specification:sans-serif" />
  <path
     id="path3005"
     d="m 3.75,8.0000174 -1.15625,0.062 2.59375,2.0937996 0.28125,0.2187 0.0625,-0.1875 0.1875,-0.6249996 -0.53125,-0.4062 -1.4375,-1.1563 z m 8.5,0 -1.4375,1.1563 -0.53125,0.4062 0.1875,0.6249996 0.0625,0.1875 0.28125,-0.2187 2.59375,-2.0937996 -1.15625,-0.062 z M 8,11.218817 7.46875,11.562517 5,13.156317 l -0.3125,1.2187 2.78125,-1.8125 0.53125,-0.3437 0.53125,0.3437 2.78125,1.8125 L 11,13.156317 8.53125,11.562517 8,11.218817 z"
     style="font-style:normal;font-variant:normal;font-weight:normal;font-stretch:normal;text-indent:0;text-align:start;text-decoration:none;line-height:normal;letter-spacing:normal;word-spacing:normal;text-transform:none;direction:ltr;block-progression:tb;writing-mode:lr-tb;text-anchor:start;baseline-shift:baseline;opacity:0.2;color:#000000;fill:#000000;fill-opacity:1;stroke:none;stroke-width:5.35943031;marker:none;visibility:visible;display:inline;overflow:visible;enable-background:accumulate;font-family:sans-serif;-inkscape-font-specification:sans-serif" />
</svg>
