<?xml version='1.0' encoding='UTF-8' standalone='no'?>
<svg height="16" xmlns:inkscape="http://www.inkscape.org/namespaces/inkscape" xmlns:sodipodi="http://sodipodi.sourceforge.net/DTD/sodipodi-0.dtd" version="1.1" width="16" xmlns="http://www.w3.org/2000/svg" enable-background="new">
 <metadata id="metadata90"/>
 <defs id="defs7386">
  <linearGradient id="linearGradient5606" osb:paint="solid">
   <stop id="stop5608"/>
  </linearGradient>
  <filter inkscape:collect="always" color-interpolation-filters="sRGB" id="filter7554">
   <feBlend inkscape:collect="always" id="feBlend7556" in2="BackgroundImage" mode="darken"/>
  </filter>
 </defs>
 <g inkscape:groupmode="layer" id="layer9" inkscape:label="status" transform="translate(-401.0002,143)">
  <path inkscape:connector-curvature="0" d="m 402.84395,-142 c -0.28125,0.0469 -0.84375,0.25 -0.84375,1 l 0,13 c 0,1 1,1 1,1 l 7,0 0,-1 c 0,-0.34248 0.0864,-0.69129 0.25,-1 l -0.25,0 -6,0 0,-11 1,0 0,-1 0,-1 -2,0 c 0,0 -0.0625,-0.0156 -0.15625,0 z m 9.15625,0 0,1 0,1 1,0 0,5 0,1.25 0,1 c 0.15845,0.084 0.30484,0.17984 0.4375,0.3125 l 0.0625,0.0625 0.0625,-0.0625 c 0.39113,-0.39113 0.91924,-0.5625 1.4375,-0.5625 l 0,-0.75 0,-1.25 0,-6 c 0,0 0,-1 -1,-1 l -2,0 z m -1,10 0,1 c 0,0.27614 0.10029,0.53779 0.28125,0.71875 l 0.78125,0.78125 -0.78125,0.78125 c -0.18096,0.18096 -0.28125,0.44261 -0.28125,0.71875 l 0,1 1,0 c 0.27614,0 0.53779,-0.10029 0.71875,-0.28125 l 0.78125,-0.78125 0.78125,0.78125 c 0.18096,0.18096 0.44261,0.28125 0.71875,0.28125 l 1,0 0,-1 c 0,-0.27614 -0.10029,-0.53779 -0.28125,-0.71875 l -0.78125,-0.78125 0.78125,-0.78125 c 0.18096,-0.18096 0.28125,-0.44261 0.28125,-0.71875 l 0,-1 -1,0 c -0.27614,0 -0.53779,0.10029 -0.71875,0.28125 l -0.78125,0.78125 -0.78125,-0.78125 C 412.53799,-131.89971 412.27634,-132 412.0002,-132 l -1,0 z" id="path5658" fill="#bebebe"/>
  <path inkscape:connector-curvature="0" d="m 407.00041,-143 c -0.55401,0 -1,0.446 -1,1 l 0,2 c 0,0 0,1 1,1 l 3,0 c 1,0 1,-1 1,-1 l 0,-2 c 0,-0.554 -0.44599,-1 -1,-1 z" id="rect5660" sodipodi:nodetypes="ssccccsss" fill="#bebebe"/>
  <path inkscape:connector-curvature="0" d="m 405.0004,-139 0,9 5.25,0 c -0.16364,-0.30871 -0.25,-0.65752 -0.25,-1 l 0,-1 0,-1 1,0 1,0 0,-6 -0.28125,0 c -0.34528,0.59691 -0.97685,1 -1.71875,1 l -3,0 c -0.7419,0 -1.37347,-0.40309 -1.71875,-1 l -0.28125,0 z" id="rect5696" opacity="0.35" fill="#bebebe" color="#bebebe" stroke-width="2"/>
 </g>
</svg>
