<?xml version='1.0' encoding='UTF-8' standalone='no'?>
<svg height="16" xmlns:inkscape="http://www.inkscape.org/namespaces/inkscape" xmlns:sodipodi="http://sodipodi.sourceforge.net/DTD/sodipodi-0.dtd" version="1.1" width="16.03" xmlns="http://www.w3.org/2000/svg" enable-background="new">
 <metadata id="metadata90"/>
 <defs id="defs7386">
  <linearGradient id="linearGradient5606" osb:paint="solid">
   <stop id="stop5608"/>
  </linearGradient>
  <filter inkscape:collect="always" color-interpolation-filters="sRGB" id="filter7554">
   <feBlend inkscape:collect="always" id="feBlend7556" in2="BackgroundImage" mode="darken"/>
  </filter>
 </defs>
 <g inkscape:groupmode="layer" id="layer9" inkscape:label="status" transform="translate(-381.00023,181)">
  <path inkscape:connector-curvature="0" d="m 382.84395,-180 c -0.28125,0.0469 -0.84375,0.25 -0.84375,1 l 0,13 c 0,1 1,1 1,1 l 5.28125,0 c -0.17038,-0.29455 -0.28125,-0.6339 -0.28125,-1 l 0,-1 -4,0 0,-11 1,0 0,-1 0,-1 -2,0 c 0,0 -0.0625,-0.0156 -0.15625,0 z m 9.15625,0 0,1 0,1 1,0 0,4 1,0 1,0 0,-5 c 0,0 0,-1 -1,-1 l -2,0 z" id="path5745" fill="#bbbbbb"/>
  <path inkscape:connector-curvature="0" d="m 387.00041,-181 c -0.55401,0 -1,0.446 -1,1 l 0,2 c 0,0 0,1 1,1 l 3,0 c 1,0 1,-1 1,-1 l 0,-2 c 0,-0.554 -0.44599,-1 -1,-1 z" id="path5747" sodipodi:nodetypes="ssccccsss" fill="#bbbbbb"/>
  <path inkscape:connector-curvature="0" d="m 385.0002,-177 0,9 3,0 0,-4 c 0,-1.108 0.892,-2 2,-2 l 2,0 0,-3 -0.28125,0 c -0.34528,0.59691 -0.97685,1 -1.71875,1 l -3,0 c -0.7419,0 -1.37347,-0.40309 -1.71875,-1 l -0.28125,0 z" id="path5749" opacity="0.35" fill="#bbbbbb" color="#bebebe" stroke-width="2"/>
  <path inkscape:connector-curvature="0" d="m 389.90666,-172.99993 c -0.49245,0 -0.875,0.38256 -0.875,0.875 l 0,6.25 c 0,0.49244 0.38255,0.875 0.875,0.875 l 6.25,0 c 0.49245,0 0.875,-0.38256 0.875,-0.875 l 0,-6.25 c 0,-0.49244 -0.38255,-0.875 -0.875,-0.875 l -6.25,0 z m 2.125,1 2,0 0,4 -2,0 0,-4 z m 0,5 2,0 0,1 -2,0 0,-1 z" id="path10898-3-1-1-6" sodipodi:nodetypes="ccccccccccccccccccc" fill="#f57900" color="#bbbbbb" stroke-width="2"/>
 </g>
</svg>
