<?xml version="1.0" encoding="UTF-8" standalone="no"?>
<svg xmlns="http://www.w3.org/2000/svg" xmlns:sodipodi="http://sodipodi.sourceforge.net/DTD/sodipodi-0.dtd" xmlns:inkscape="http://www.inkscape.org/namespaces/inkscape" height="16" version="1.1" width="16" enable-background="new">
 <metadata id="metadata90"/>
 <defs id="defs7386">
  <linearGradient id="linearGradient5606" osb:paint="solid">
   <stop id="stop5608"/>
  </linearGradient>
  <filter inkscape:collect="always" color-interpolation-filters="sRGB" id="filter7554">
   <feBlend inkscape:collect="always" id="feBlend7556" in2="BackgroundImage" mode="darken"/>
  </filter>
 </defs>
 <g inkscape:groupmode="layer" id="layer9" inkscape:label="status" transform="translate(-341.0002,243)">
  <path inkscape:connector-curvature="0" d="m 342.5002,-241 c -1.5,0 -1.5,1.5 -1.5,1.5 l 0,9 c 0,0 0,1.5 1.5,1.5 l 8.75,0 c 0.084,-0.15845 0.17984,-0.30484 0.3125,-0.4375 l 0.0625,-0.0625 -0.0625,-0.0625 c -0.39113,-0.39113 -0.5625,-0.91924 -0.5625,-1.4375 l -2,0 0,-2 2,0 2,0 1,0 0,0.25 c 0.15845,0.084 0.30484,0.17984 0.4375,0.3125 l 0.0625,0.0625 0.0625,-0.0625 c 0.39113,-0.39113 0.91924,-0.5625 1.4375,-0.5625 l 0,-6.5 c 0,-1.5 -1.5,-1.5 -1.5,-1.5 l -12,0 z m 0.5,2 11,0 0,5 -11,0 0,-5 z m 0,6 5,0 0,2 -5,0 0,-2 z" id="path23849-6-5" opacity="0.35" fill="#bebebe"/>
  <path inkscape:connector-curvature="0" d="m 352.00019,-232 0,1 c 0,0.27614 0.10029,0.53779 0.28125,0.71875 l 0.78125,0.78125 -0.78125,0.78125 c -0.18096,0.18096 -0.28125,0.44261 -0.28125,0.71875 l 0,1 1,0 c 0.27614,0 0.53779,-0.10029 0.71875,-0.28125 l 0.78125,-0.78125 0.78125,0.78125 c 0.18096,0.18096 0.44261,0.28125 0.71875,0.28125 l 1,0 0,-1 c 0,-0.27614 -0.10029,-0.53779 -0.28125,-0.71875 l -0.78125,-0.78125 0.78125,-0.78125 c 0.18096,-0.18096 0.28125,-0.44261 0.28125,-0.71875 l 0,-1 -1,0 c -0.27614,0 -0.53779,0.10029 -0.71875,0.28125 l -0.78125,0.78125 -0.78125,-0.78125 C 353.53798,-231.89971 353.27633,-232 353.00019,-232 l -1,0 z" id="path2987-7-9-8-5-1-5" fill="#bebebe"/>
 </g>
</svg>
