<?xml version="1.0" encoding="UTF-8" standalone="no"?>
<svg xmlns="http://www.w3.org/2000/svg" xmlns:xlink="http://www.w3.org/1999/xlink" xmlns:inkscape="http://www.inkscape.org/namespaces/inkscape" version="1.1" width="16" height="16">
 <metadata id="metadata21"/>
 <defs id="defs3965">
  <linearGradient y1="-12.489" x2="0" y2="5.468" id="linearGradient2832-300-858-303" xlink:href="#linearGradient4873-275-174-730" gradientUnits="userSpaceOnUse" gradientTransform="matrix(0.51455032,0,0,0.51453856,-24.005236,9.8064595)"/>
  <linearGradient id="linearGradient4873-275-174-730">
   <stop id="stop3091" stop-color="#ffffff"/>
   <stop id="stop3093" offset="1" stop-color="#ffffff" stop-opacity="0"/>
  </linearGradient>
  <linearGradient id="linearGradient3242-141-111-307">
   <stop id="stop3075" stop-color="#ffffff"/>
   <stop id="stop3079" offset="1" stop-color="#858585"/>
  </linearGradient>
  <linearGradient id="linearGradient2490-322-551-880">
   <stop id="stop3085" stop-color="#646464"/>
   <stop id="stop3087" offset="1" stop-color="#a0a0a0"/>
  </linearGradient>
  <radialGradient cx="23.896" cy="3.99" r="20.397" id="radialGradient3959" xlink:href="#linearGradient3242-141-111-307" gradientUnits="userSpaceOnUse" gradientTransform="matrix(0,0.64524082,-0.85170617,0,11.39831,-13.333564)"/>
  <linearGradient y1="44.98" x2="0" y2="3.082" id="linearGradient3961" xlink:href="#linearGradient2490-322-551-880" gradientUnits="userSpaceOnUse" gradientTransform="matrix(0.2703533,0,0,0.27035337,1.5115215,1.5115197)"/>
 </defs>
 <g id="layer1">
  <path d="M 8.0000007,2.5 C 4.9652912,2.5 2.5,4.9652892 2.5,8.0000002 2.5,11.034712 4.9652912,13.500003 8.0000007,13.5 11.034709,13.5 13.500003,11.034712 13.5,8.0000002 13.5,4.9652892 11.034709,2.5 8.0000007,2.5 z" inkscape:connector-curvature="0" id="path2555" fill="url(#radialGradient3959)" stroke="url(#linearGradient3961)" stroke-linejoin="round" stroke-linecap="round"/>
  <path d="M 12.5,7.9998378 C 12.5,10.485198 10.485132,12.5 8.0000561,12.5 5.5147526,12.5 3.5,10.48518 3.5,7.9998378 3.5,5.5145945 5.5147526,3.5000005 8.0000561,3.5000005 10.485132,3.5000005 12.5,5.5145945 12.5,7.9998378 l 0,0 z" inkscape:connector-curvature="0" id="path2463" opacity="0.4" fill="none" stroke="url(#linearGradient2832-300-858-303)"/>
 </g>
</svg>
