<?xml version='1.0' encoding='UTF-8' standalone='no'?>
<svg height="16" xmlns:inkscape="http://www.inkscape.org/namespaces/inkscape" xmlns:sodipodi="http://sodipodi.sourceforge.net/DTD/sodipodi-0.dtd" version="1.1" width="16" xmlns="http://www.w3.org/2000/svg" enable-background="new">
 <metadata id="metadata90"/>
 <defs id="defs7386">
  <linearGradient id="linearGradient5606" osb:paint="solid">
   <stop id="stop5608"/>
  </linearGradient>
  <filter inkscape:collect="always" color-interpolation-filters="sRGB" id="filter7554">
   <feBlend inkscape:collect="always" id="feBlend7556" in2="BackgroundImage" mode="darken"/>
  </filter>
 </defs>
 <g inkscape:groupmode="layer" id="layer9" inkscape:label="status" transform="translate(-522.0002,282)">
  <path inkscape:connector-curvature="0" d="m 528.50021,-282 c -1.92707,0 -3.5,1.57293 -3.5,3.5 0,0.17852 0.0365,0.35978 0.0625,0.53125 -1.72441,0.21437 -3.0625,1.68811 -3.0625,3.46875 0,1.92707 1.57293,3.5 3.5,3.5 l 0.5,0 c 0,-1.10457 0.89543,-2 2,-2 1.10457,0 2,0.89543 2,2 l 1.28125,0 c -0.17076,-0.29454 -0.28125,-0.63503 -0.28125,-1 0,-1.10457 0.89543,-2 2,-2 1.10457,0 2,0.89543 2,2 0,0.36497 -0.11049,0.70546 -0.28125,1 l 0.28125,0 c 1.65093,0 3,-1.34907 3,-3 0,-1.65093 -1.34907,-3 -3,-3 -0.17414,0 -0.33381,0.0337 -0.5,0.0625 -0.10013,-1.14613 -1.0792,-2.0625 -2.25,-2.0625 -0.0997,0 -0.18491,0.0186 -0.28125,0.0312 -0.22776,-1.70978 -1.6985,-3.0312 -3.46875,-3.0312 z" id="path6093-2" color="#000000" fill="#bebebe"/>
  <circle cx="5" cy="14" id="path3854" r="1" transform="matrix(1.371967,0,0,1.371967,519.14037,-287.20753)" opacity="0.35" fill="#bebebe" color="#000000"/>
  <circle cx="5" cy="14" id="path3856" r="1" transform="matrix(1.371967,0,0,1.371967,524.14037,-288.20753)" opacity="0.35" fill="#bebebe" color="#000000"/>
  <circle cx="5" cy="14" id="path3859" r="1" transform="matrix(1.371967,0,0,1.371967,521.14037,-290.20753)" opacity="0.35" fill="#bebebe" color="#000000"/>
  <circle cx="5" cy="14" id="path3855" r="1" transform="translate(523.00021,-284.99998)" fill="#bebebe" color="#000000"/>
  <circle cx="5" cy="14" id="path3862" r="1" transform="translate(521.00021,-282)" fill="#bebebe" color="#000000"/>
  <circle cx="5" cy="14" id="path3864" r="1" transform="translate(526.00021,-283)" fill="#bebebe" color="#000000"/>
  <circle cx="5" cy="14" id="path6320" r="1" transform="matrix(1.371967,0,0,1.371967,526.14037,-291.20753)" opacity="0.35" fill="#bebebe" color="#000000"/>
  <circle cx="5" cy="14" id="path6322" r="1" transform="translate(528.00021,-286)" fill="#bebebe" color="#000000"/>
 </g>
</svg>
