<?xml version='1.0' encoding='UTF-8' standalone='no'?>
<svg height="16" xmlns:inkscape="http://www.inkscape.org/namespaces/inkscape" xmlns:sodipodi="http://sodipodi.sourceforge.net/DTD/sodipodi-0.dtd" version="1.1" width="16" xmlns="http://www.w3.org/2000/svg" enable-background="new">
 <metadata id="metadata90"/>
 <defs id="defs7386">
  <linearGradient id="linearGradient5606" osb:paint="solid">
   <stop id="stop5608"/>
  </linearGradient>
  <filter inkscape:collect="always" color-interpolation-filters="sRGB" id="filter7554">
   <feBlend inkscape:collect="always" id="feBlend7556" in2="BackgroundImage" mode="darken"/>
  </filter>
 </defs>
 <g inkscape:groupmode="layer" id="layer9" inkscape:label="status" transform="translate(-561.00012,282.00003)">
  <path inkscape:connector-curvature="0" d="m 561.00026,-279 13,0 c 2.99997,-10e-6 2.99999,3 2.99999,3 l -13,0 c 0,0 -3.00002,-10e-6 -2.99999,-3 z" id="rect6343" sodipodi:nodetypes="ccccc" opacity="0.35" fill="#bbbbbb" color="#bebebe" stroke-width="2"/>
  <path inkscape:connector-curvature="0" d="m 574.00028,-275 -13,0 c -2e-5,3 2.99998,3 2.99998,3 l 13,0 c 0,0 0,-3 -2.99998,-3 z" id="rect6345" sodipodi:nodetypes="ccccc" opacity="0.35" fill="#bbbbbb" color="#bebebe" stroke-width="2"/>
  <path inkscape:connector-curvature="0" d="m 561.00025,-271 13,0 c 3,-2e-5 2.99998,3 2.99998,3 l -13,0 c 0,0 -2.99998,-2e-5 -2.99998,-3 z" id="rect6347" sodipodi:nodetypes="ccccc" opacity="0.35" fill="#bbbbbb" color="#bebebe" stroke-width="2"/>
 </g>
</svg>
