<?xml version='1.0' encoding='UTF-8' standalone='no'?>
<svg height="16" xmlns:inkscape="http://www.inkscape.org/namespaces/inkscape" xmlns:sodipodi="http://sodipodi.sourceforge.net/DTD/sodipodi-0.dtd" version="1.1" width="16" xmlns="http://www.w3.org/2000/svg" enable-background="new">
 <metadata id="metadata90"/>
 <defs id="defs7386">
  <linearGradient id="linearGradient5606" osb:paint="solid">
   <stop id="stop5608"/>
  </linearGradient>
  <filter inkscape:collect="always" color-interpolation-filters="sRGB" id="filter7554">
   <feBlend inkscape:collect="always" id="feBlend7556" in2="BackgroundImage" mode="darken"/>
  </filter>
 </defs>
 <g inkscape:groupmode="layer" id="layer9" inkscape:label="status" transform="translate(-461.0002,243)">
  <path inkscape:connector-curvature="0" d="m 467.5002,-243 c -1.92707,0 -3.5,1.57293 -3.5,3.5 0,0.17852 0.0365,0.35978 0.0625,0.53125 -1.72441,0.21437 -3.0625,1.68811 -3.0625,3.46875 0,1.92707 1.57293,3.5 3.5,3.5 l 2.5,0 0,-4.96875 0,-1.03125 4.01562,0 -0.0156,1.03125 0,4.96875 3,0 c 1.65093,0 3,-1.34907 3,-3 0,-1.65093 -1.34907,-3 -3,-3 -0.17414,0 -0.33381,0.0337 -0.5,0.0625 -0.10013,-1.14613 -1.0792,-2.0625 -2.25,-2.0625 -0.0997,0 -0.18491,0.0187 -0.28125,0.0312 -0.22778,-1.70973 -1.69852,-3.0312 -3.46877,-3.0312 z" id="path6093-5" sodipodi:nodetypes="sscssccccccssscscs" color="#000000" fill="#bebebe"/>
  <path inkscape:connector-curvature="0" d="m 468.0002,-237 0,4 0.25,2 1.5,0 0.25,-2 0,-4 z m 0,7 0,2 2,0 0,-2 z" id="rect7811" sodipodi:nodetypes="cccccccccccc" fill="#ef2929" color="#bebebe" stroke-width="2"/>
 </g>
</svg>
