<?xml version='1.0' encoding='UTF-8' standalone='no'?>
<svg height="16" xmlns:inkscape="http://www.inkscape.org/namespaces/inkscape" xmlns:sodipodi="http://sodipodi.sourceforge.net/DTD/sodipodi-0.dtd" version="1.1" width="16" xmlns="http://www.w3.org/2000/svg" enable-background="new">
 <metadata id="metadata90"/>
 <defs id="defs7386">
  <linearGradient id="linearGradient5606" osb:paint="solid">
   <stop id="stop5608"/>
  </linearGradient>
  <filter inkscape:collect="always" color-interpolation-filters="sRGB" id="filter7554">
   <feBlend inkscape:collect="always" id="feBlend7556" in2="BackgroundImage" mode="darken"/>
  </filter>
 </defs>
 <g inkscape:groupmode="layer" id="layer9" inkscape:label="status" transform="translate(-401.0002,243)">
  <path inkscape:connector-curvature="0" d="m 408.0002,-243 -0.5,1.03125 c 0.16191,-0.0132 0.3348,-0.0312 0.5,-0.0312 l 0.5,0 -0.5,-1 z m 0,2 c -2.76142,0 -5,2.23858 -5,5 0,1.45145 0.63724,2.74284 1.625,3.65625 0.37328,-0.47435 0.90196,-0.85142 1.46875,-1.125 6e-5,-0.007 0,-0.0242 0,-0.0312 0,-1.92043 1.57957,-3.5 3.5,-3.5 0.92961,0 1.71393,0.42878 2.34375,1.03125 0.10471,-0.0117 0.20297,-0.0312 0.3125,-0.0312 0.265,0 0.5174,0.0529 0.75,0.125 10e-4,-0.0427 0,-0.082 0,-0.125 0,-2.76142 -2.23858,-5 -5,-5 z m -4.9375,0.0625 0.34375,1.0625 c 0.21905,-0.25922 0.45953,-0.4997 0.71875,-0.71875 l -1.0625,-0.34375 z m 9.875,0 -1.15625,0.375 c 0.27835,0.2219 0.54723,0.45225 0.78125,0.71875 l 0.375,-1.09375 z m -10.90625,4.4375 -1.03125,0.5 1.03125,0.5 c -0.0135,-0.16237 -0.0312,-0.33377 -0.0312,-0.5 0,-0.1652 0.018,-0.33809 0.0312,-0.5 z m 11.9375,0 c 0.0148,0.16931 0.0312,0.3264 0.0312,0.5 0,0.0275 0.002,0.0836 0,0.15625 l 0,0.34375 1,-0.5 -1.03125,-0.5 z m -4.375,1.5 c -0.82915,0 -1.5,0.67085 -1.5,1.5 0,0.20412 -0.002,0.3035 0,0.3125 l 0.21875,1.03125 -1.03125,0.1875 c -0.41122,0.063 -0.76665,0.29996 -1,0.625 0.54119,0.20058 1.10778,0.34375 1.71875,0.34375 2.02032,0 3.74257,-1.21292 4.53125,-2.9375 -0.0934,-0.0289 -0.17848,-0.0625 -0.28125,-0.0625 -0.0927,0 -0.17939,0.0306 -0.28125,0.0625 l -0.71875,0.21875 -0.40625,-0.625 c -0.27219,-0.40199 -0.72319,-0.65625 -1.25,-0.65625 z m -6.15625,2.8125 -0.375,1.125 1.09375,-0.375 -0.21875,-0.1875 c -0.18383,-0.16999 -0.33772,-0.37112 -0.5,-0.5625 z" id="path6096" fill="#bebebe" color="#bebebe" stroke-width="2"/>
  <path inkscape:connector-curvature="0" d="m 409.594,-236 c -1.37479,0 -2.5,1.12521 -2.5,2.5 0,0.18216 -0.006,0.35989 0.0312,0.53125 -1.19744,0.18341 -2.125,1.22219 -2.125,2.46875 0,1.37479 1.12521,2.5 2.5,2.5 l 7,0 c 1.37479,0 2.5,-1.12521 2.5,-2.5 0,-1.37479 -1.12521,-2.5 -2.5,-2.5 -0.0859,0 -0.16624,0.0227 -0.25,0.0312 1.6e-4,-0.0105 0,-0.0207 0,-0.0312 0,-1.09865 -0.90135,-2 -2,-2 -0.206,0 -0.40627,0.035 -0.59375,0.0937 C 411.20602,-235.57154 410.45324,-236 409.594,-236 z" id="path9684" sodipodi:nodetypes="sscssssscsscs" color="#bebebe" fill="#bebebe"/>
 </g>
</svg>
