<?xml version='1.0' encoding='UTF-8' standalone='no'?>
<svg height="16.03" xmlns:inkscape="http://www.inkscape.org/namespaces/inkscape" xmlns:sodipodi="http://sodipodi.sourceforge.net/DTD/sodipodi-0.dtd" version="1.1" width="16" xmlns="http://www.w3.org/2000/svg" enable-background="new">
 <metadata id="metadata90"/>
 <defs id="defs7386">
  <linearGradient id="linearGradient5606" osb:paint="solid">
   <stop id="stop5608"/>
  </linearGradient>
  <filter inkscape:collect="always" color-interpolation-filters="sRGB" id="filter7554">
   <feBlend inkscape:collect="always" id="feBlend7556" in2="BackgroundImage" mode="darken"/>
  </filter>
 </defs>
 <g inkscape:groupmode="layer" id="layer9" inkscape:label="status" transform="translate(-501.0002,243.0313)">
  <path inkscape:connector-curvature="0" d="m 507.5002,-243.03125 c -1.92707,0 -3.5,1.57293 -3.5,3.5 0,0.17852 0.0365,0.35978 0.0625,0.53125 -1.72441,0.21437 -3.0625,1.68811 -3.0625,3.46875 0,1.80143 1.37158,3.28186 3.125,3.46875 l 1.3125,-1.3125 0.34375,-0.34375 0.71875,-0.6875 0.71875,0.6875 0.34375,0.34375 0.6875,0.6875 c 0.18435,-0.48507 0.43171,-0.93171 0.78125,-1.28125 l 1.40625,-1.40625 0.34375,-0.34375 0.71875,-0.6875 0.71875,0.6875 0.34375,0.34375 1.40625,1.40625 c 0.46181,0.46181 0.82303,1.06283 0.96875,1.75 1.18583,-0.40094 2.0625,-1.4952 2.0625,-2.8125 0,-1.65093 -1.34907,-3 -3,-3 -0.17414,0 -0.33381,0.0337 -0.5,0.0625 -0.10013,-1.14613 -1.0792,-2.0625 -2.25,-2.0625 -0.0997,0 -0.18491,0.0186 -0.28125,0.0312 -0.22776,-1.70983 -1.6985,-3.03125 -3.46875,-3.03125 z m 4,9.46875 -1.03125,1.03125 c -0.15254,0.15254 -0.26267,0.31843 -0.34375,0.5 l 2.75,0 c -0.0811,-0.18157 -0.19121,-0.34746 -0.34375,-0.5 l -1.03125,-1.03125 z" id="path6093-9" color="#000000" fill="#bebebe"/>
  <path inkscape:connector-curvature="0" d="m 511.5002,-235 -0.34375,0.34375 -1.40625,1.40625 c -0.45315,0.45315 -0.75,1.0626 -0.75,1.75 0,1.37479 1.12521,2.5 2.5,2.5 1.37479,0 2.5,-1.12521 2.5,-2.5 0,-0.6874 -0.29685,-1.29685 -0.75,-1.75 l -1.40625,-1.40625 z m -5,2 -0.34375,0.34375 -1.40625,1.40625 c -0.45315,0.45315 -0.75,1.0626 -0.75,1.75 0,1.37479 1.12521,2.5 2.5,2.5 1.37479,0 2.5,-1.12521 2.5,-2.5 0,-0.6874 -0.29685,-1.29685 -0.75,-1.75 l -1.40625,-1.40625 z" id="path7625" sodipodi:nodetypes="ccsssssccccssssscc" color="#000000" fill="#bebebe"/>
 </g>
</svg>
