<?xml version='1.0' encoding='UTF-8' standalone='no'?>
<svg height="16" xmlns:inkscape="http://www.inkscape.org/namespaces/inkscape" xmlns:sodipodi="http://sodipodi.sourceforge.net/DTD/sodipodi-0.dtd" version="1.1" width="16" xmlns="http://www.w3.org/2000/svg" enable-background="new">
 <metadata id="metadata90"/>
 <defs id="defs7386">
  <linearGradient id="linearGradient5606" osb:paint="solid">
   <stop id="stop5608"/>
  </linearGradient>
  <filter inkscape:collect="always" color-interpolation-filters="sRGB" id="filter7554">
   <feBlend inkscape:collect="always" id="feBlend7556" in2="BackgroundImage" mode="darken"/>
  </filter>
 </defs>
 <g inkscape:groupmode="layer" id="layer9" inkscape:label="status" transform="translate(-420.99818,243.00194)">
  <path inkscape:connector-curvature="0" d="m 428.74818,-241.97069 c -2.76278,0.10144 -5.3087,1.80458 -6.3125,4.5625 -0.96414,2.64895 -0.24422,5.50316 1.625,7.375 0.17709,-1.17309 0.90919,-2.1662 1.9375,-2.65625 0.0213,-0.40504 0.13375,-0.79919 0.28125,-1.15625 -0.66459,-1.49186 -0.78917,-3.22193 -0.1875,-4.875 0.51416,-1.41265 1.47444,-2.50836 2.65625,-3.25 z m 0.84375,6.96875 c -1.37479,0 -2.5,1.12521 -2.5,2.5 0,0.18216 -0.006,0.35989 0.0312,0.53125 -1.19744,0.18341 -2.125,1.22219 -2.125,2.46875 0,1.37479 1.12521,2.5 2.5,2.5 l 7,0 c 1.37479,0 2.5,-1.12521 2.5,-2.5 0,-1.37479 -1.12521,-2.5 -2.5,-2.5 -0.0859,0 -0.16624,0.0228 -0.25,0.0312 1.6e-4,-0.0105 0,-0.0207 0,-0.0312 0,-1.09865 -0.90135,-2 -2,-2 -0.206,0 -0.40627,0.0351 -0.59375,0.0937 -0.45038,-0.66519 -1.20321,-1.0937 -2.06245,-1.0937 z" id="path6319" fill="#bebebe" color="#bebebe"/>
 </g>
</svg>
