<?xml version="1.0" encoding="UTF-8" standalone="no"?>
<!-- Created with Inkscape (http://www.inkscape.org/) -->

<svg
   xmlns:dc="http://purl.org/dc/elements/1.1/"
   xmlns:cc="http://creativecommons.org/ns#"
   xmlns:rdf="http://www.w3.org/1999/02/22-rdf-syntax-ns#"
   xmlns:svg="http://www.w3.org/2000/svg"
   xmlns="http://www.w3.org/2000/svg"
   xmlns:xlink="http://www.w3.org/1999/xlink"
   xmlns:sodipodi="http://sodipodi.sourceforge.net/DTD/sodipodi-0.dtd"
   xmlns:inkscape="http://www.inkscape.org/namespaces/inkscape"
   version="1.1"
   width="32"
   height="32"
   id="svg4248"
   inkscape:version="0.48.4 r9939"
   sodipodi:docname="preferences-desktop-accessibility.svg">
  <sodipodi:namedview
     pagecolor="#ffffff"
     bordercolor="#666666"
     borderopacity="1"
     objecttolerance="10"
     gridtolerance="10"
     guidetolerance="10"
     inkscape:pageopacity="0"
     inkscape:pageshadow="2"
     inkscape:window-width="1364"
     inkscape:window-height="700"
     id="namedview46"
     showgrid="false"
     showborder="false"
     inkscape:zoom="1"
     inkscape:cx="19.899664"
     inkscape:cy="3.8745158"
     inkscape:window-x="0"
     inkscape:window-y="28"
     inkscape:window-maximized="1"
     inkscape:current-layer="layer1">
    <inkscape:grid
       type="xygrid"
       id="grid3847" />
  </sodipodi:namedview>
  <defs
     id="defs4250">
    <linearGradient
       id="linearGradient3838">
      <stop
         style="stop-color:#32a5dc;stop-opacity:1"
         offset="0"
         id="stop3840" />
      <stop
         id="stop3843"
         offset="0.35665825"
         style="stop-color:#248ec3;stop-opacity:1;" />
      <stop
         style="stop-color:#1f5271;stop-opacity:1;"
         offset="0.73999941"
         id="stop3845" />
      <stop
         style="stop-color:#020509;stop-opacity:1;"
         offset="1"
         id="stop3847" />
    </linearGradient>
    <linearGradient
       id="linearGradient3904">
      <stop
         id="stop3906"
         offset="0"
         style="stop-color:#234683;stop-opacity:1;" />
      <stop
         id="stop3908"
         offset="1"
         style="stop-color:#30589e;stop-opacity:1;" />
    </linearGradient>
    <linearGradient
       inkscape:collect="always"
       id="linearGradient3812">
      <stop
         style="stop-color:#ffffff;stop-opacity:1;"
         offset="0"
         id="stop3814" />
      <stop
         style="stop-color:#ffffff;stop-opacity:0;"
         offset="1"
         id="stop3816" />
    </linearGradient>
    <radialGradient
       inkscape:collect="always"
       xlink:href="#linearGradient3838"
       id="radialGradient3805"
       gradientUnits="userSpaceOnUse"
       gradientTransform="matrix(0,1.3257479,-1.2500006,-1.4754776e-8,26.56227,-6.7225691)"
       cx="11.105104"
       cy="8.4498129"
       fx="11.105104"
       fy="8.4498129"
       r="19.99999" />
    <linearGradient
       inkscape:collect="always"
       xlink:href="#linearGradient3812"
       id="linearGradient3818"
       x1="2"
       y1="16.000001"
       x2="30"
       y2="16.000001"
       gradientUnits="userSpaceOnUse"
       gradientTransform="matrix(0,1,-1,0,32.000001,8.5e-7)" />
    <radialGradient
       inkscape:collect="always"
       xlink:href="#linearGradient26113-9-3-1"
       id="radialGradient3755"
       gradientUnits="userSpaceOnUse"
       gradientTransform="matrix(1,0,0,0.37,0,24.5124)"
       cx="24.849752"
       cy="38.908627"
       fx="24.849752"
       fy="38.908627"
       r="20.203051" />
    <linearGradient
       inkscape:collect="always"
       id="linearGradient26113-9-3-1">
      <stop
         style="stop-color: rgb(0, 0, 0); stop-opacity: 1;"
         offset="0"
         id="stop26115-7-7-9" />
      <stop
         style="stop-color: rgb(0, 0, 0); stop-opacity: 0;"
         offset="1"
         id="stop26117-3-7-8" />
    </linearGradient>
    <linearGradient
       inkscape:collect="always"
       id="linearGradient26121-3-8-2">
      <stop
         style="stop-color: rgb(0, 0, 0); stop-opacity: 1;"
         offset="0"
         id="stop26123-4-7-8" />
      <stop
         style="stop-color: rgb(0, 0, 0); stop-opacity: 0;"
         offset="1"
         id="stop26125-3-9-9" />
    </linearGradient>
    <radialGradient
       r="20.203051"
       fy="38.908627"
       fx="24.849752"
       cy="38.908627"
       cx="24.849752"
       gradientTransform="matrix(1.00851,0,0,0.373148,-0.211403,24.39)"
       gradientUnits="userSpaceOnUse"
       id="radialGradient3972"
       xlink:href="#linearGradient26121-3-8-2"
       inkscape:collect="always" />
    <linearGradient
       id="outerBackgroundGradient">
      <stop
         style="stop-color:#1450b9;stop-opacity:1;"
         offset="0"
         id="stop3864-8-6" />
      <stop
         style="stop-color:#5187e6;stop-opacity:1;"
         offset="1"
         id="stop3866-9-1" />
    </linearGradient>
    <linearGradient
       inkscape:collect="always"
       xlink:href="#linearGradient3840"
       id="linearGradient3902"
       x1="1"
       y1="15.999999"
       x2="31"
       y2="15.999999"
       gradientUnits="userSpaceOnUse"
       gradientTransform="matrix(0,1,1,0,5.0000306e-7,-5.0000565e-7)" />
    <linearGradient
       inkscape:collect="always"
       xlink:href="#linearGradient3904"
       id="linearGradient3109"
       gradientUnits="userSpaceOnUse"
       gradientTransform="matrix(0,-1,1,0,5.0000306e-7,32)"
       x1="1"
       y1="15.999999"
       x2="31"
       y2="15.999999" />
    <radialGradient
       inkscape:collect="always"
       xlink:href="#outerBackgroundGradient"
       id="radialGradient3111"
       gradientUnits="userSpaceOnUse"
       gradientTransform="matrix(4.5367027e-8,-1.7632481,-1.8653063,0,31.761486,43.251051)"
       cx="6.1596723"
       cy="8.4497671"
       fx="6.1596723"
       fy="8.4497671"
       r="19.99999" />
    <linearGradient
       inkscape:collect="always"
       xlink:href="#linearGradient3840"
       id="linearGradient3899"
       x1="4.0000033"
       y1="24"
       x2="44.000004"
       y2="24"
       gradientUnits="userSpaceOnUse"
       gradientTransform="matrix(0,1,1,0,39,-15.750003)" />
    <linearGradient
       id="linearGradient3840">
      <stop
         id="stop3842"
         offset="0"
         style="stop-color:#1e7488;stop-opacity:1;" />
      <stop
         style="stop-color:#1e5976;stop-opacity:1;"
         offset="0.5"
         id="stop3844" />
      <stop
         id="stop3846"
         offset="0.75"
         style="stop-color:#122937;stop-opacity:1;" />
      <stop
         id="stop3848"
         offset="1"
         style="stop-color:#020509;stop-opacity:1;" />
    </linearGradient>
    <radialGradient
       inkscape:collect="always"
       xlink:href="#linearGradient3814"
       id="radialGradient3820"
       cx="24"
       cy="13.947699"
       fx="24"
       fy="13.947699"
       r="19.325897"
       gradientTransform="matrix(-1.2312427,-6.9584993e-8,7.7306876e-8,-1.3678841,45.517461,26.155761)"
       gradientUnits="userSpaceOnUse" />
    <linearGradient
       id="linearGradient3814">
      <stop
         style="stop-color:#ffffff;stop-opacity:1"
         offset="0"
         id="stop3816-8" />
      <stop
         id="stop3833"
         offset="0.25"
         style="stop-color:#f7f7f7;stop-opacity:1;" />
      <stop
         id="stop3831"
         offset="0.5"
         style="stop-color:#e8e8e8;stop-opacity:1;" />
      <stop
         style="stop-color:#7d7d7d;stop-opacity:1;"
         offset="1"
         id="stop3818" />
    </linearGradient>
    <radialGradient
       inkscape:collect="always"
       xlink:href="#linearGradient3850"
       id="radialGradient3811"
       cx="24"
       cy="12.000001"
       fx="24"
       fy="12.000001"
       r="19.5"
       gradientUnits="userSpaceOnUse"
       gradientTransform="matrix(-1.6410256,4.1570429e-8,-4.6184956e-8,-1.8231441,63.384614,33.877729)" />
    <linearGradient
       id="linearGradient3850">
      <stop
         id="stop3852"
         offset="0"
         style="stop-color:#32a5dc;stop-opacity:1" />
      <stop
         style="stop-color:#248ec3;stop-opacity:1;"
         offset="0.5"
         id="stop3854" />
      <stop
         id="stop3856"
         offset="0.75"
         style="stop-color:#1f5271;stop-opacity:1;" />
      <stop
         id="stop3858"
         offset="1"
         style="stop-color:#020509;stop-opacity:1;" />
    </linearGradient>
    <radialGradient
       r="19.5"
       fy="12.000001"
       fx="24"
       cy="12.000001"
       cx="24"
       gradientTransform="matrix(-1.6410256,4.1570429e-8,-4.6184956e-8,-1.8231441,102.38461,18.127729)"
       gradientUnits="userSpaceOnUse"
       id="radialGradient4205"
       xlink:href="#linearGradient3850"
       inkscape:collect="always" />
  </defs>
  <metadata
     id="metadata4253">
    <rdf:RDF>
      <cc:Work
         rdf:about="">
        <dc:format>image/svg+xml</dc:format>
        <dc:type
           rdf:resource="http://purl.org/dc/dcmitype/StillImage" />
        <dc:title></dc:title>
      </cc:Work>
    </rdf:RDF>
  </metadata>
  <g
     inkscape:groupmode="layer"
     id="layer1"
     inkscape:label="Background">
    <path
       sodipodi:type="arc"
       style="fill:url(#radialGradient3972);fill-opacity:1;stroke:none;display:inline;filter:url(#filter5927);enable-background:new"
       id="path8606"
       sodipodi:cx="24.849752"
       sodipodi:cy="38.908627"
       sodipodi:rx="20.203051"
       sodipodi:ry="7.4751287"
       d="m 45.052803,38.908627 a 20.203051,7.4751287 0 1 1 -40.4061012,0 20.203051,7.4751287 0 1 1 40.4061012,0 z"
       transform="matrix(0.51081599,0,0,0.46595786,3.1704533,10.023687)" />
    <path
       transform="matrix(0.69053217,0,0,0.62989172,-1.2951468,3.2832567)"
       d="m 45.052803,38.908627 a 20.203051,7.4751287 0 1 1 -40.4061012,0 20.203051,7.4751287 0 1 1 40.4061012,0 z"
       sodipodi:ry="7.4751287"
       sodipodi:rx="20.203051"
       sodipodi:cy="38.908627"
       sodipodi:cx="24.849752"
       id="path8608"
       style="opacity:0.51836697;fill:url(#radialGradient3755);fill-opacity:1;stroke:none;display:inline;filter:url(#filter5788);enable-background:new"
       sodipodi:type="arc" />
    <path
       style="color:#000000;fill:url(#radialGradient3805);fill-opacity:1;fill-rule:nonzero;stroke:none;stroke-width:1;marker:none;visibility:visible;display:inline;overflow:visible;enable-background:accumulate"
       id="path2555-7"
       inkscape:connector-curvature="0"
       d="M 16.000001,1.499999 C 7.999402,1.499999 1.5,7.999398 1.5,15.999999 1.5,24.0006 7.999402,30.500002 16.000001,30.5 24.000598,30.5 30.500007,24.0006 30.5,15.999999 c 0,-8.000601 -6.499402,-14.5 -14.499999,-14.5 z" />
    <path
       style="color:#bebebe;fill:url(#radialGradient3820);fill-opacity:1;fill-rule:nonzero;stroke:none;stroke-width:1;marker:none;visibility:visible;display:inline;overflow:visible;enable-background:accumulate"
       d="m 15.935268,1.4999998 c -1.318628,0 -2.605004,0.1880382 -3.819196,0.5178567 0.03459,-0.00828 0.04174,0.030762 0.06473,0.064729 0.102536,0.1516291 -0.403493,0.2059 -0.388392,0.3883933 0.04598,0.5549564 1.104568,0.4758486 1.359375,0.9709821 0.08886,0.1727572 0.06898,0.40107 0,0.5825893 -0.09239,0.242875 -0.483783,0.3250072 -0.517858,0.5825893 -0.0696,0.5261429 0.208552,1.25628 0.712054,1.4241075 0.183114,0.061108 0.376254,-0.1278075 0.517857,-0.2589291 0.27695,-0.2564634 0.293604,-0.7281691 0.582589,-0.970982 0.690304,-0.58 1.825985,-1.5409771 2.524554,-0.9709821 0.101707,0.083064 -0.116932,0.26796 -0.06473,0.3883928 0.06193,0.1427214 0.232828,0.2620979 0.388392,0.2589286 0.293419,-0.00622 0.675866,-0.2266143 0.712054,-0.5178572 0.02072,-0.1671642 -0.158671,-0.3538828 -0.32366,-0.3883928 -0.188915,-0.039564 -0.327349,0.2898343 -0.517858,0.2589286 -0.03003,-0.00414 -0.05831,-0.035111 -0.06473,-0.064733 C 16.951927,3.0923245 18.103227,2.4488352 17.812502,1.8236572 17.706028,1.594661 17.014752,1.8023241 17.100447,1.5647285 16.716385,1.5342198 16.327176,1.4999998 15.935268,1.4999998 z m 1.165179,0.06473 c 0.416661,0.033105 0.825524,0.1269969 1.22991,0.1941967 -0.409478,-0.068485 -0.809572,-0.1608014 -1.22991,-0.1941967 z m -5.11384,0.5178567 c -0.535176,0.1508937 -1.045431,0.3089846 -1.553571,0.5178575 0.134642,0.021958 0.255572,0.1607428 0.388392,0.1294643 0.148522,-0.035007 0.18995,-0.2502493 0.323661,-0.3236609 0.174414,-0.0957 0.39324,-0.068358 0.582589,-0.1294642 0.07809,-0.025275 0.176694,-0.1349534 0.258929,-0.1941967 z m -1.683035,0.5825897 c -0.38951,0.164749 -0.793944,0.320916 -1.165179,0.5178571 0.05676,0.031072 0.02713,0.135575 0,0.1941964 C 9.055323,3.5578583 8.802221,3.6046933 8.685268,3.7656225 8.520382,3.9925268 8.206002,4.3090204 8.361607,4.5424083 c 0.119729,0.1795928 0.469966,0.1228357 0.647321,0 0.151422,-0.1050215 0.120661,-0.34887 0.194197,-0.5178572 -0.01243,0.2456922 0.349885,0.3732922 0.582589,0.453125 0.163229,0.055928 0.395788,0.1220072 0.517858,0 0.122006,-0.1220071 0.09404,-0.3731264 0,-0.5178571 -0.115794,-0.1781429 -0.3706,-0.2738222 -0.58259,-0.2589286 -0.1015,0.00622 -0.220876,0.010461 -0.32366,0.064732 0.183528,-0.2054857 0.386135,-0.4066628 0.647321,-0.4531249 0.221788,-0.039357 0.445315,0.094561 0.647321,0.1941964 0.429614,0.2120314 0.686783,0.8672243 1.165179,0.8415178 C 12.147018,4.33164 12.559875,4.0505888 12.504464,3.7656223 12.456198,3.5177138 11.973806,3.682351 11.792411,3.5066938 11.625453,3.3449152 11.718461,3.0001052 11.533482,2.8593724 11.222498,2.6227324 10.628931,3.021151 10.368303,2.7299081 c -0.0145,-0.016572 0,-0.043189 0,-0.064732 -0.01873,0.00783 -0.04603,-0.00791 -0.06473,0 z m 12.234375,0.453125 c 0.50038,0.259898 1.022251,0.5257865 1.488839,0.8415178 C 23.546461,3.6353188 23.056902,3.3844067 22.537947,3.1183007 z m 0.32366,0.5825892 c -0.355374,-0.018644 -0.711929,0.1112349 -1.035714,0.2589278 -0.239644,0.1093714 -0.525687,0.2195093 -0.647321,0.453125 -0.05987,0.1147571 0.06193,0.2746714 0,0.3883928 -0.2088,0.3837943 -0.940119,0.3056186 -1.100447,0.7120536 -0.1305,0.3310347 -0.07747,0.9195897 0.258928,1.0357146 0.23256,0.080164 0.337809,-0.4778166 0.58259,-0.453125 0.198029,0.020716 0.235045,0.326395 0.388393,0.453125 0.134021,0.1108209 0.290621,0.3210092 0.453125,0.2589284 0.254951,-0.097358 0.253004,-0.5039167 0.258928,-0.7767858 0.0042,-0.1570142 -0.137542,-0.296235 -0.129464,-0.453125 0.0062,-0.116 0.06298,-0.228375 0.129464,-0.3236608 0.166129,-0.2380692 0.376296,-0.4785828 0.647322,-0.5825892 0.08058,-0.030864 0.21054,-0.071464 0.258928,0 0.130293,0.1924357 -0.214972,0.4191121 -0.258928,0.6473214 -0.03667,0.1907786 -0.148108,0.457061 0,0.5825894 0.200307,0.16965 0.675306,-0.3715523 0.776786,-0.1294642 0.113514,0.2706525 -0.553755,0.270715 -0.712054,0.5178567 -0.05924,0.092593 -0.0084,0.2288933 -0.06473,0.3236608 -0.186636,0.3164934 -0.484403,0.62553 -0.841518,0.7120534 -0.279788,0.067734 -0.662298,0.030971 -0.841518,-0.1941959 -0.107507,-0.1350575 0.15225,-0.4364091 0,-0.5178575 -0.137128,-0.073325 -0.344064,0.1097859 -0.388392,0.2589284 -0.04682,0.1574291 0.284759,0.3159349 0.194196,0.453125 -0.118693,0.1802149 -0.461349,-0.1093709 -0.647321,0 -0.1914,0.1126858 -0.196786,0.4002208 -0.323661,0.5825899 -0.113722,0.1632284 -0.215139,0.3553742 -0.388393,0.453125 -0.228624,0.12905 -0.696684,-0.1205574 -0.776786,0.1294642 -0.06525,0.2034142 0.34481,0.269016 0.453125,0.4531251 0.07975,0.1354709 0.224066,0.3277208 0.129465,0.4531249 -0.117036,0.1549426 -0.394421,-0.048058 -0.58259,0 -0.261974,0.0667 -0.574034,0.1559784 -0.712054,0.3883926 -0.198235,0.333977 -0.27463,0.890548 0,1.165178 0.07623,0.07623 0.223984,-0.04122 0.323661,0 0.140858,0.05842 0.173586,0.296443 0.323661,0.323661 0.256547,0.04661 0.535008,-0.132364 0.712053,-0.323661 0.171515,-0.185392 0.10005,-0.515744 0.258929,-0.712053 0.128015,-0.158257 0.39817,-0.159086 0.517857,-0.323661 0.0522,-0.07188 0.0013,-0.1965782 0.06473,-0.2589282 0.205485,-0.2017575 0.567591,-0.2828325 0.841517,-0.1941966 0.218267,0.070425 0.271606,0.3776218 0.453125,0.5178578 0.152664,0.118071 0.46081,0.07457 0.517858,0.258928 0.06567,0.212238 -0.461784,0.408589 -0.323661,0.582589 0.09756,0.123044 0.334556,-0.02652 0.453125,-0.129464 0.160329,-0.139407 0.292217,-0.372692 0.258929,-0.582589 -0.04557,-0.286707 -0.700702,-0.3821377 -0.582589,-0.6473218 0.03501,-0.078921 0.178142,-0.03045 0.258928,0 0.214704,0.080579 0.402955,0.2545991 0.517858,0.4531248 0.1102,0.190364 0.03791,0.447243 0.129464,0.647322 0.102328,0.223693 0.215014,0.644462 0.453125,0.582589 0.274692,-0.07126 -0.0377,-0.612169 0.129464,-0.841518 0.05676,-0.07789 0.165093,-0.152043 0.258928,-0.129464 0.390134,0.09425 0.36074,0.77691 0.712054,0.970982 0.265101,0.14645 0.621325,-0.0378 0.90625,0.06473 0.174621,0.06297 0.415321,0.141893 0.453125,0.323661 0.02568,0.12325 -0.113618,0.227132 -0.194196,0.32366 -0.147072,0.176072 -0.303154,0.372443 -0.517858,0.453125 -0.222181,0.08348 -0.477775,0.03791 -0.712053,0 -0.336773,-0.05468 -0.631185,-0.293024 -0.970982,-0.32366 -0.152043,-0.0145 -0.31666,-0.004 -0.453125,0.06473 -0.16385,0.08182 -0.205279,0.388393 -0.388393,0.388393 -0.488236,0 -0.613433,-0.790644 -1.035714,-1.035715 -0.212778,-0.123457 -0.466652,-0.176796 -0.712054,-0.194196 -0.347047,-0.02465 -0.694219,0.06297 -1.035714,0.129464 -0.328777,0.06401 -0.688978,0.07809 -0.970982,0.258929 -0.68382,0.438335 -1.14144,1.177317 -1.553572,1.877232 -0.270404,0.459215 -0.691712,0.967212 -0.582589,1.48884 0.02507,0.119521 0.246893,0.137542 0.258928,0.258928 0.03066,0.309678 -0.489395,0.4669 -0.517856,0.776786 -0.04516,0.490928 0.319351,0.942541 0.582589,1.359375 0.383691,0.60755 0.707952,1.559661 1.424107,1.618303 0.305639,0.02507 0.407077,-0.614779 0.712054,-0.582589 0.137335,0.0145 0.123042,0.298389 0.258928,0.323661 0.294702,0.05489 0.479494,-0.491592 0.776786,-0.453125 0.120971,0.01657 0.146242,0.212217 0.258928,0.258928 0.219282,0.09094 0.495921,-0.09798 0.712054,0 0.208862,0.09487 0.403017,0.294019 0.453125,0.517858 0.06857,0.306571 -0.328777,0.599947 -0.258929,0.90625 0.05779,0.253335 0.433136,0.336959 0.517858,0.582589 0.112892,0.327016 -0.14469,0.699127 -0.06473,1.035714 0.06918,0.291678 0.443473,0.477174 0.453125,0.776786 0.0083,0.241114 -0.262926,0.413851 -0.323661,0.647321 -0.119728,0.459878 -0.139925,0.954866 -0.06473,1.424107 0.105642,0.660848 0.550731,1.227715 0.712053,1.877233 0.08389,0.337663 0.107922,0.68846 0.129464,1.035714 0.01036,0.172342 -0.122006,0.395787 0,0.517857 0.09156,0.09156 0.263631,0.03459 0.388394,0 0.242501,-0.06712 0.404819,-0.321216 0.647321,-0.388393 0.228748,-0.06338 0.496853,0.10005 0.712054,0 0.485956,-0.226076 0.923566,-0.705798 1.035714,-1.229911 0.03293,-0.1537 -0.175658,-0.303008 -0.129464,-0.453125 0.09922,-0.322107 0.761519,-0.310611 0.776785,-0.647321 0.01243,-0.274361 -0.597773,-0.308374 -0.582589,-0.58259 0.0145,-0.275893 0.420459,-0.360117 0.647321,-0.517856 0.206522,-0.14355 0.457848,-0.222804 0.647322,-0.388394 0.103986,-0.09093 0.230902,-0.188292 0.258928,-0.32366 0.04992,-0.240907 -0.161675,-0.468205 -0.194196,-0.712054 -0.08017,-0.598829 -0.131743,-1.222888 0,-1.8125 0.08845,-0.395642 0.293542,-0.762762 0.517857,-1.100446 0.160536,-0.241819 0.426777,-0.402375 0.582589,-0.647321 0.326934,-0.513984 0.590958,-1.08603 0.712054,-1.683036 0.03003,-0.148108 0.113721,-0.353634 0,-0.453125 -0.245671,-0.215098 -0.819395,0.418677 -0.970982,0.129464 -0.148936,-0.284117 0.407574,-0.498945 0.647321,-0.712053 0.277468,-0.246625 0.63017,-0.399144 0.90625,-0.647322 0.193265,-0.173586 0.425513,-0.339714 0.517857,-0.582589 0.06898,-0.181458 0.04102,-0.392784 0,-0.582589 -0.05531,-0.254804 -0.06462,-0.68156 -0.323661,-0.712051 -0.244325,-0.02879 -0.207163,0.587602 -0.453125,0.582589 -0.1856,-0.0042 -0.193885,-0.320367 -0.32366,-0.453125 -0.1508,-0.154321 -0.42137,-0.195335 -0.517857,-0.388393 -0.115793,-0.231586 -0.241736,-0.684027 0,-0.776786 0.271026,-0.103985 0.311853,0.54257 0.582589,0.647322 0.202172,0.0783 0.44167,-0.133711 0.647322,-0.06473 0.362023,0.121179 0.461348,0.811461 0.841517,0.776786 0.08596,-0.0083 0.141997,-0.137646 0.194197,-0.194196 -0.525032,-3.652556 -2.396847,-6.8849642 -5.113845,-9.12723 0.01864,0.2590943 -0.258038,0.5806007 -0.517857,0.5825893 -0.351252,0.00207 -0.853491,-0.4552586 -0.712053,-0.7767857 0.09549,-0.2172515 0.492771,0.090936 0.712053,0 0.05634,-0.023407 0.06857,-0.1267715 0.129464,-0.1294643 C 24.553018,4.3349175 24.349029,4.2230894 24.15625,4.0892855 24.100942,4.2804783 23.764647,4.0155429 23.573661,3.9598211 23.3312,3.8891853 23.113824,3.713984 22.861607,3.7008929 z M 7.714286,4.0892825 C 7.560731,4.1958616 7.410322,4.3006614 7.261161,4.4129432 7.353341,4.4835792 7.222221,4.6637518 7.131697,4.7366039 7.029368,4.8188399 6.794944,4.9221003 6.743303,4.8013359 3.770012,7.2551132 1.788326,10.881551 1.5,14.964282 c 0.311191,-0.06815 0.232145,0.612024 0.453125,0.841517 0.295178,0.306552 0.708698,0.481069 1.100447,0.647323 0.371075,0.157428 0.836049,0.09094 1.165178,0.323661 0.215056,0.152042 0.269969,0.458055 0.453125,0.647321 0.225082,0.23258 0.457309,0.530741 0.776786,0.582589 0.134642,0.02196 0.252735,-0.144379 0.388392,-0.129464 0.125115,0.0145 0.261664,0.08482 0.323661,0.194196 0.01036,0.01864 0.0042,0.0436 0,0.06473 -0.06546,0.424911 -0.196371,0.845266 -0.388392,1.22991 -0.08286,0.166129 -0.289027,0.270777 -0.323661,0.453125 -0.01658,0.08742 0.06556,0.169857 0.06473,0.258929 -0.0021,0.33495 -0.300108,0.638559 -0.258928,0.970982 0.08182,0.661407 0.560528,1.222702 0.970982,1.747768 0.272662,0.348807 0.672303,0.579441 0.970982,0.90625 0.165922,0.181663 0.378844,0.348062 0.453125,0.582588 0.136922,0.432474 -0.150282,0.913853 -0.06473,1.359375 0.04909,0.256049 0.297229,0.452669 0.32366,0.712054 0.0493,0.4843 -0.269369,0.940345 -0.32366,1.424108 -0.0021,0.02154 0.02092,0.05976 0,0.06473 0.584084,0.413981 1.168898,0.775177 1.8125,1.100446 -0.02196,-0.105642 0.234133,-0.08938 0.258928,-0.194196 0.02217,-0.09384 -0.145,-0.163643 -0.129464,-0.258929 0.03417,-0.210851 0.34481,-0.269016 0.453125,-0.453125 0.07975,-0.135471 0.01864,-0.342717 0.129464,-0.453125 0.175036,-0.172964 0.531073,-0.02765 0.712053,-0.194196 0.371594,-0.342138 0.525874,-0.919051 0.517858,-1.424107 -0.0019,-0.116208 -0.136922,-0.207702 -0.129464,-0.323661 0.0145,-0.221705 0.146242,-0.448982 0.32366,-0.582589 0.229991,-0.173172 0.62292,-0.0063 0.841518,-0.194197 0.264687,-0.226842 0.331035,-0.627146 0.388393,-0.970982 0.07105,-0.426196 -0.186325,-0.880005 -0.06473,-1.294643 0.1044,-0.356244 0.521503,-0.556986 0.647322,-0.90625 0.102535,-0.284925 0.212155,-0.641646 0.06473,-0.90625 -0.474191,-0.851709 -1.906853,-0.663292 -2.589286,-1.359375 -0.236432,-0.241176 -0.189742,-0.694922 -0.453125,-0.90625 C 10.160105,18.357588 9.791743,18.505795 9.591519,18.330349 9.278899,18.054811 9.496229,17.378634 9.138394,17.165173 8.839569,16.987031 8.439432,17.382135 8.102679,17.294637 7.714224,17.193759 7.532353,16.558887 7.131698,16.582584 c -0.44196,0.0261 -0.794539,0.500208 -0.970983,0.90625 -0.01657,0.03957 0.03438,0.103572 0,0.129464 C 5.909907,17.80742 5.478076,17.579978 5.254465,17.35937 5.094137,17.201112 5.09279,16.934933 5.060269,16.712047 c -0.03128,-0.21348 0.159914,-0.502528 0,-0.64732 -0.160743,-0.145415 -0.497267,0.221373 -0.647321,0.06473 -0.316764,-0.330413 0.494201,-1.013592 0.194196,-1.359375 -0.08493,-0.09777 -0.2726,-0.05779 -0.388393,0 -0.193057,0.09653 -0.222741,0.37961 -0.388393,0.517857 -0.111235,0.0928 -0.243807,0.20124 -0.388393,0.194196 -0.203414,-0.01036 -0.410432,-0.1508 -0.517857,-0.32366 -0.11455,-0.18415 -0.06307,-0.430485 -0.06473,-0.647321 -0.0021,-0.25982 -0.06515,-0.55185 0.06473,-0.776786 0.170686,-0.295365 0.515869,-0.480862 0.841518,-0.582589 0.2059,-0.06442 0.472286,0.12615 0.647322,0 0.110614,-0.07975 0.01036,-0.322729 0.129464,-0.388394 0.233967,-0.128428 0.551372,0.05147 0.776786,0.194197 0.259011,0.164265 0.288756,0.799882 0.582589,0.712053 0.39498,-0.11807 -0.06691,-0.867493 0.129464,-1.229909 C 6.24322,12.048641 6.813919,11.964042 7.066965,11.598207 7.261058,11.317612 7.158315,10.877123 7.390626,10.627226 7.581612,10.42174 7.944484,10.47394 8.167412,10.303565 8.362954,10.154215 8.41126,9.850316 8.620537,9.7209756 8.901319,9.5473897 9.322896,9.7188156 9.591519,9.5267789 9.83547,9.3525781 10.193952,9.0099432 10.044643,8.7499998 c -0.236433,-0.4116343 -1.328656,0.465015 -1.424107,0 -0.06608,-0.3219417 0.584308,-0.3223143 0.90625,-0.3883926 0.211368,-0.043292 0.435166,0.039358 0.647321,0 0.29549,-0.054892 0.581533,-0.4744199 0.841518,-0.3236608 0.245506,0.1423067 -0.147693,0.7802242 0.129464,0.8415176 0.227878,0.050334 0.430464,-0.3530126 0.388393,-0.5825893 C 11.499924,8.1143822 11.132557,8.1512531 11.080357,7.9732139 11.047625,7.8617714 11.233228,7.7633781 11.209822,7.6495531 11.179163,7.4999964 11.021736,7.3956997 10.886161,7.3258923 10.769539,7.2658173 10.565462,7.3734303 10.497768,7.2611623 10.427338,7.1443339 10.639868,7.0086548 10.627232,6.872769 10.606512,6.6515615 10.512889,6.3646065 10.303572,6.2901798 10.084601,6.2122938 9.831327,6.7019389 9.65625,6.5491089 9.522228,6.4320731 9.8549,6.1952256 9.785714,6.0312515 9.6693,5.7550265 9.297188,5.4958907 9.008928,5.5781265 8.609806,5.6920548 8.486203,6.2678706 8.426339,6.6785731 8.409769,6.7875298 8.541822,6.904524 8.491069,7.0022339 8.393299,7.1909406 8.059818,7.112019 7.908479,7.2611623 7.688473,7.4780615 7.826239,8.143839 7.520086,8.1026798 7.259935,8.0676721 7.55737,7.5285844 7.390622,7.3258945 7.156323,7.0411978 6.61075,7.2030594 6.354908,6.937502 6.212808,6.7900161 6.087549,6.5461261 6.160711,6.3549128 6.346933,5.867402 7.105345,5.8949103 7.520086,5.578127 7.738332,5.411377 7.986179,5.2442541 8.102675,4.9955377 8.203761,4.7797155 8.275329,4.495992 8.167405,4.2834841 8.110438,4.1712127 7.965027,4.1228448 7.843744,4.0892877 7.802114,4.0768597 7.726294,4.1307157 7.714286,4.0892855 z M 18.654018,5.254464 c -0.07229,-0.00207 -0.148625,0.018747 -0.194196,0.064732 -0.09156,0.091557 -0.04288,0.26622 0,0.3883932 0.04578,0.1302926 0.213191,0.1932642 0.258928,0.3236601 0.06422,0.1833217 0.0145,0.3889525 0,0.5825899 -0.02175,0.2829776 -0.334577,0.6453742 -0.129464,0.8415176 0.159086,0.1520425 0.449956,-0.032108 0.647321,-0.1294642 0.205693,-0.1015 0.510235,-0.22388 0.517857,-0.453125 C 19.760664,6.659286 19.419825,6.597371 19.301339,6.4196426 19.081292,6.089581 19.177882,5.5399275 18.848214,5.319196 18.794354,5.283153 18.726103,5.256743 18.654018,5.254464 z m -0.970982,0.9062499 c -0.07208,0.025066 -0.156704,0.0725 -0.194197,0.1294642 -0.143136,0.21692 -0.164367,0.6544474 0.06473,0.7767858 0.195956,0.1046075 0.51214,-0.1128925 0.582589,-0.3236608 0.06732,-0.20155 -0.06442,-0.4968317 -0.258929,-0.5825892 -0.06235,-0.02755 -0.12211,-0.025066 -0.194193,0 z m 7.767857,6.9263391 c 0.303299,0.04537 0.417973,0.453312 0.582589,0.712054 0.321196,0.504849 0.447284,1.118841 0.776786,1.618304 0.126357,0.1914 0.41878,0.291077 0.453125,0.517857 0.0319,0.210125 -0.290746,0.372464 -0.258929,0.582589 0.03438,0.22678 0.547914,0.308975 0.453125,0.517857 -0.08016,0.1769 -0.422302,0.109579 -0.582589,0 -0.687901,-0.470566 -0.474274,-1.617578 -0.90625,-2.330357 -0.1189,-0.196164 -0.345245,-0.315437 -0.453125,-0.517857 -0.157636,-0.295593 -0.377269,-0.657617 -0.258928,-0.970982 0.02755,-0.07271 0.117346,-0.141065 0.194196,-0.129465 z M 14.1875,30.370536 C 14.761478,30.439616 15.342667,30.5 15.935268,30.5 15.347873,30.5 14.757219,30.43868 14.1875,30.370536 z"
       id="path6534"
       inkscape:connector-curvature="0"
       sodipodi:nodetypes="scccccsccscccccccccscccccccccccccccccccccccccccccccccccccccccccccccccccccccccccccccccscccccccccccccccccccccccccccsccccscccccccccccccccccccccccccccccccccccccccccccccccccccccccccccccccscccccccccccccccccccccccccccccccccccccccccccccccccccccccccccccccccccccccccccccccccccccccccccccccccccccsccccscscccccccccccc" />
    <path
       style="color:#bebebe;fill:#ffffff;fill-opacity:1;fill-rule:nonzero;stroke:none;stroke-width:1;marker:none;visibility:visible;display:inline;overflow:visible;enable-background:accumulate"
       d="M 15.9375 1.5 C 14.618872 1.5 13.339192 1.7014315 12.125 2.03125 C 12.15959 2.02297 12.16451 2.059783 12.1875 2.09375 C 12.290036 2.2453791 11.766149 2.2862567 11.78125 2.46875 C 11.80424 2.7462282 12.104005 2.8572657 12.40625 2.96875 C 13.53672 2.684876 14.720732 2.5 15.9375 2.5 C 16.329408 2.5 16.709688 2.5319913 17.09375 2.5625 C 17.038884 2.7146191 17.306525 2.7002109 17.53125 2.71875 C 17.747334 2.4152955 17.949288 2.1066498 17.8125 1.8125 C 17.706026 1.5835038 17.008055 1.8000956 17.09375 1.5625 C 16.709688 1.5319913 16.329408 1.5 15.9375 1.5 z M 12 2.09375 C 11.464824 2.2446437 10.94564 2.3848771 10.4375 2.59375 C 10.572142 2.615708 10.67968 2.7500285 10.8125 2.71875 C 10.961022 2.683743 11.022539 2.4796616 11.15625 2.40625 C 11.330664 2.31055 11.529401 2.3423562 11.71875 2.28125 C 11.79684 2.255975 11.917765 2.1529933 12 2.09375 z M 10.3125 2.65625 C 9.92299 2.820999 9.496235 2.9905589 9.125 3.1875 C 9.18176 3.218572 9.15213 3.3163786 9.125 3.375 C 9.04193 3.5556286 8.804453 3.5890708 8.6875 3.75 C 8.522614 3.9769043 8.219395 4.2978621 8.375 4.53125 C 8.494729 4.7108428 8.822645 4.6540857 9 4.53125 C 9.0189277 4.5181223 9.0487059 4.5170487 9.0625 4.5 C 9.0811187 4.4838469 9.0786508 4.4563817 9.09375 4.4375 C 9.1041047 4.4161807 9.1178546 4.398816 9.125 4.375 C 9.133139 4.3574136 9.118811 4.3351237 9.125 4.3125 C 9.1298069 4.2900969 9.1520546 4.2729405 9.15625 4.25 C 9.1537384 4.2262497 9.144866 4.1983752 9.125 4.1875 C 9.1331402 4.1831816 9.1480784 4.1917797 9.15625 4.1875 C 9.1666904 4.1338515 9.1671695 4.07797 9.1875 4.03125 C 9.1856784 4.0672566 9.206062 4.0938447 9.21875 4.125 C 9.4860102 3.9899081 9.7831382 3.8659054 10.0625 3.75 C 9.9578255 3.705674 9.824745 3.6800532 9.71875 3.6875 C 9.61725 3.69372 9.509034 3.695729 9.40625 3.75 C 9.589778 3.5445143 9.770064 3.3589621 10.03125 3.3125 C 10.253038 3.273143 10.485494 3.4003646 10.6875 3.5 C 11.004197 3.3799323 11.329504 3.2844058 11.65625 3.1875 C 11.63551 3.0634836 11.62374 2.9141164 11.53125 2.84375 C 11.220266 2.60711 10.635628 3.0099929 10.375 2.71875 C 10.3605 2.702178 10.375 2.677793 10.375 2.65625 C 10.35627 2.66408 10.3312 2.64834 10.3125 2.65625 z M 11.6875 3.28125 C 11.505416 3.3308132 11.32143 3.3156165 11.15625 3.40625 C 11.067109 3.4551911 11.003686 3.5766642 10.9375 3.65625 C 10.985535 3.6996401 11.016776 3.7641032 11.0625 3.8125 C 11.23839 3.7885775 11.406548 3.7488597 11.53125 3.84375 C 11.669984 3.9492996 11.665802 4.171925 11.71875 4.34375 C 11.762559 4.3536733 11.79591 4.3463207 11.84375 4.34375 C 12.048088 4.3320683 12.318043 4.1832559 12.4375 4 C 12.131722 3.8882571 11.823141 3.7672913 11.78125 3.5 C 11.774054 3.4930268 11.787524 3.4763723 11.78125 3.46875 C 11.73608 3.4138693 11.703139 3.3566027 11.6875 3.28125 z M 17.625 3.5625 C 17.438315 3.8479708 17.21404 4.1419686 17.125 4.4375 C 17.177751 4.4620369 17.226949 4.4698563 17.28125 4.46875 C 17.574669 4.46253 17.963812 4.2599929 18 3.96875 C 18.02072 3.8015858 17.852489 3.59701 17.6875 3.5625 C 17.665275 3.5578454 17.645995 3.5581286 17.625 3.5625 z M 22.875 3.6875 C 22.519626 3.668856 22.136285 3.8210571 21.8125 3.96875 C 21.572856 4.0781214 21.309134 4.1726343 21.1875 4.40625 C 21.12763 4.5210071 21.24943 4.6987786 21.1875 4.8125 C 20.9787 5.1962943 20.222828 5.093565 20.0625 5.5 C 19.961938 5.7550914 19.993165 6.148085 20.15625 6.375 C 20.406491 6.1124364 21.0048 6.14832 21.1875 5.8125 C 21.24943 5.6987786 21.12763 5.5210071 21.1875 5.40625 C 21.309134 5.1726343 21.572856 5.0781214 21.8125 4.96875 C 22.031435 4.8688838 22.292845 4.7931673 22.53125 4.75 C 22.577053 4.7225264 22.60644 4.6753647 22.65625 4.65625 C 22.73683 4.625386 22.889112 4.584786 22.9375 4.65625 C 22.950529 4.6754936 22.933205 4.6988543 22.9375 4.71875 C 23.160288 4.7562716 23.343046 4.9048169 23.5625 4.96875 C 23.724104 5.0158992 23.982332 5.1813483 24.09375 5.125 C 23.931359 4.9681479 23.832811 4.7606968 23.90625 4.59375 C 24.00174 4.3764985 24.374468 4.684686 24.59375 4.59375 C 24.65009 4.570343 24.689106 4.4714428 24.75 4.46875 C 24.56418 4.3259882 24.349029 4.2275539 24.15625 4.09375 C 24.100942 4.2849428 23.753486 4.0244718 23.5625 3.96875 C 23.320039 3.8981142 23.127217 3.7005911 22.875 3.6875 z M 7.71875 4.09375 C 7.565195 4.2003291 7.399161 4.2939682 7.25 4.40625 C 7.34218 4.476886 7.215524 4.6771479 7.125 4.75 C 7.022671 4.832236 6.801641 4.9332644 6.75 4.8125 C 3.776709 7.2662773 1.788326 10.886019 1.5 14.96875 C 1.5583483 14.955972 1.5895402 14.968065 1.625 15 C 2.0986804 11.596424 3.7486538 8.5645343 6.15625 6.34375 C 6.2200247 6.1767942 6.3700451 6.0806645 6.53125 6 C 6.6044336 5.9371099 6.6755624 5.8739314 6.75 5.8125 C 6.7758205 5.8728822 6.8283977 5.8647491 6.90625 5.84375 C 6.9841023 5.8227509 7.0738355 5.791118 7.125 5.75 C 7.215524 5.6771479 7.34218 5.476886 7.25 5.40625 C 7.399161 5.2939682 7.565195 5.2003291 7.71875 5.09375 C 7.730758 5.1351802 7.80212 5.081322 7.84375 5.09375 C 7.883167 5.1046561 7.9281004 5.1092799 7.96875 5.125 C 8.0052783 5.0774079 8.0681777 5.0545963 8.09375 5 C 8.194836 4.7841778 8.264174 4.4937579 8.15625 4.28125 C 8.099283 4.1689786 7.965033 4.1273071 7.84375 4.09375 C 7.80212 4.081322 7.730758 4.1351802 7.71875 4.09375 z M 12.96875 4.25 C 12.826243 4.3593089 12.646816 4.4288346 12.625 4.59375 C 12.592826 4.836967 12.645644 5.1515465 12.75 5.40625 C 12.882731 5.2798422 13.092028 5.2000777 13.15625 5.03125 C 13.22523 4.8497307 13.24511 4.6102572 13.15625 4.4375 C 13.114599 4.3565647 13.045421 4.3055256 12.96875 4.25 z M 10.03125 4.3125 C 9.9160209 4.332998 9.8145677 4.3696909 9.71875 4.4375 C 9.7403054 4.4450972 9.7612843 4.4619004 9.78125 4.46875 C 9.944479 4.524678 10.19043 4.5907572 10.3125 4.46875 C 10.349102 4.4321479 10.363128 4.3972338 10.375 4.34375 C 10.266144 4.3027357 10.142144 4.2928215 10.03125 4.3125 z M 25.125 4.8125 C 25.14364 5.0715943 24.853569 5.3730114 24.59375 5.375 C 24.643885 5.4087937 24.701797 5.4317167 24.75 5.46875 C 24.689106 5.4714428 24.65009 5.570343 24.59375 5.59375 C 24.374468 5.684686 24.00174 5.3764985 23.90625 5.59375 C 23.764812 5.9152771 24.242498 6.37707 24.59375 6.375 C 24.853569 6.3730114 25.14364 6.0715943 25.125 5.8125 C 27.63576 7.8845627 29.391052 10.811675 30.0625 14.125 C 30.14846 14.1167 30.1978 13.99405 30.25 13.9375 C 29.724968 10.284944 27.841998 7.0547658 25.125 4.8125 z M 18.65625 5.25 C 18.58396 5.24793 18.514321 5.266515 18.46875 5.3125 C 18.37719 5.404057 18.42587 5.5965768 18.46875 5.71875 C 18.51453 5.8490426 18.673013 5.9008541 18.71875 6.03125 C 18.747336 6.1128505 18.75341 6.1938344 18.75 6.28125 C 18.782806 6.2926428 18.81682 6.2944785 18.84375 6.3125 C 19.14368 6.5133202 19.096275 6.9802293 19.25 7.3125 C 19.251742 7.3162651 19.279454 7.3087717 19.28125 7.3125 C 19.485699 7.2133243 19.742683 7.0950752 19.75 6.875 C 19.7562 6.6615184 19.430986 6.5839784 19.3125 6.40625 C 19.092453 6.0761884 19.173418 5.5332315 18.84375 5.3125 C 18.78989 5.276457 18.728335 5.252279 18.65625 5.25 z M 9.25 5.5625 C 9.172759 5.5454544 9.072065 5.5731911 9 5.59375 C 8.600878 5.7076783 8.497364 6.2767975 8.4375 6.6875 C 8.42093 6.7964567 8.550753 6.9022901 8.5 7 C 8.40223 7.1887067 8.057589 7.1008567 7.90625 7.25 C 7.686244 7.4668992 7.837403 8.1349092 7.53125 8.09375 C 7.271099 8.0587423 7.541748 7.5151899 7.375 7.3125 C 7.1787746 7.0740665 6.7798375 7.1566444 6.5 7.03125 C 6.3563715 7.1094753 6.2149227 7.1901507 6.15625 7.34375 C 6.083088 7.5349633 6.20165 7.7900141 6.34375 7.9375 C 6.599592 8.2030574 7.140701 8.0278033 7.375 8.3125 C 7.541748 8.5151899 7.271099 9.0587423 7.53125 9.09375 C 7.837403 9.1349092 7.686244 8.4668992 7.90625 8.25 C 8.057589 8.1008567 8.40223 8.1887067 8.5 8 C 8.550753 7.9022901 8.42093 7.7964567 8.4375 7.6875 C 8.497364 7.2767975 8.600878 6.7076783 9 6.59375 C 9.28826 6.5115142 9.664836 6.755025 9.78125 7.03125 C 9.850436 7.1952241 9.522228 7.4454642 9.65625 7.5625 C 9.831327 7.71533 10.093529 7.203364 10.3125 7.28125 C 10.521817 7.3556767 10.60428 7.6537925 10.625 7.875 C 10.63553 7.9882382 10.508146 8.0853383 10.5 8.1875 C 10.675663 8.0663412 10.871423 7.9385702 11.03125 8.03125 C 11.14053 8.0945938 11.090867 8.2723262 11.0625 8.4375 C 11.136763 8.4959533 11.200935 8.5693454 11.21875 8.65625 C 11.234054 8.730674 11.16895 8.8058093 11.125 8.875 C 11.133577 8.8788637 11.145857 8.8727015 11.15625 8.875 C 11.384128 8.925334 11.573321 8.5108267 11.53125 8.28125 C 11.497692 8.0987575 11.14595 8.1467892 11.09375 7.96875 C 11.061018 7.8573075 11.242156 7.770075 11.21875 7.65625 C 11.188091 7.5066933 11.010575 7.3823074 10.875 7.3125 C 10.758378 7.252425 10.567694 7.362268 10.5 7.25 C 10.42957 7.1331716 10.637636 7.0108858 10.625 6.875 C 10.60428 6.6537925 10.521817 6.3556767 10.3125 6.28125 C 10.093529 6.203364 9.831327 6.71533 9.65625 6.5625 C 9.522228 6.4454642 9.850436 6.1952241 9.78125 6.03125 C 9.6939395 5.8240812 9.4817231 5.6136368 9.25 5.5625 z M 22.8125 5.625 C 22.763889 5.630075 22.69654 5.640818 22.65625 5.65625 C 22.634275 5.664683 22.614934 5.6773463 22.59375 5.6875 C 22.591335 5.7689121 22.597007 5.8560386 22.65625 5.90625 C 22.71936 5.9597014 22.808877 5.9159474 22.90625 5.875 C 22.944715 5.7998731 22.983552 5.7242661 22.9375 5.65625 C 22.913306 5.620518 22.861111 5.619925 22.8125 5.625 z M 17.6875 6.15625 C 17.61542 6.181316 17.537493 6.2242858 17.5 6.28125 C 17.356864 6.49817 17.333403 6.9401616 17.5625 7.0625 C 17.758456 7.1671075 18.054551 6.9607683 18.125 6.75 C 18.19232 6.54845 18.069509 6.2420075 17.875 6.15625 C 17.81265 6.1287 17.759583 6.131184 17.6875 6.15625 z M 22 6.3125 C 21.950436 6.3944563 21.911265 6.4686765 21.90625 6.5625 C 21.905181 6.5832649 21.934006 6.604772 21.9375 6.625 C 21.97809 6.5321143 21.99095 6.4263162 22 6.3125 z M 22.59375 6.71875 C 22.441014 6.9478381 22.246004 7.1366846 22 7.25 C 21.987203 7.4884672 21.945388 7.7378872 21.75 7.8125 C 21.587496 7.8745808 21.446521 7.6733209 21.3125 7.5625 C 21.235826 7.499135 21.178176 7.3761005 21.125 7.28125 C 21.090436 7.2195972 21.048805 7.1595299 21 7.125 C 20.973721 7.106407 20.940905 7.0973753 20.90625 7.09375 C 20.845055 7.0875771 20.797923 7.1086641 20.75 7.15625 C 20.79255 7.2125105 20.815211 7.2610537 20.78125 7.3125 C 20.740164 7.3748821 20.67272 7.3891698 20.59375 7.375 C 20.517148 7.4845247 20.447268 7.5981828 20.34375 7.5625 C 20.25965 7.5334688 20.175238 7.4516795 20.125 7.375 C 19.980702 7.5046019 19.92748 7.740978 19.8125 7.90625 C 19.698778 8.0694784 19.610754 8.2772492 19.4375 8.375 C 19.347194 8.4259747 19.220106 8.3880566 19.09375 8.375 C 18.946789 8.4492044 18.778824 8.5454497 18.65625 8.5 C 18.591 8.7034142 18.985435 8.7533909 19.09375 8.9375 C 19.1735 9.0729709 19.344601 9.2808459 19.25 9.40625 C 19.315055 9.4047824 19.388346 9.4027457 19.4375 9.375 C 19.610754 9.2772492 19.698778 9.0694784 19.8125 8.90625 C 19.939375 8.7238809 19.96485 8.4251858 20.15625 8.3125 C 20.342222 8.2031291 20.662557 8.4927149 20.78125 8.3125 C 20.871813 8.1753099 20.54693 8.0324291 20.59375 7.875 C 20.638078 7.7258575 20.862872 7.551675 21 7.625 C 21.15225 7.7064484 20.892493 7.9899425 21 8.125 C 21.17922 8.3501669 21.532712 8.380234 21.8125 8.3125 C 22.169615 8.2259766 22.469614 7.9414934 22.65625 7.625 C 22.71258 7.5302325 22.65951 7.373843 22.71875 7.28125 C 22.877049 7.0341083 23.551014 7.0519025 23.4375 6.78125 C 23.33602 6.5391619 22.856557 7.0759 22.65625 6.90625 C 22.604412 6.8623151 22.596333 6.7878976 22.59375 6.71875 z M 18.625 6.90625 C 18.54014 7.115122 18.454945 7.336015 18.59375 7.46875 C 18.633522 7.5067606 18.666026 7.4974043 18.71875 7.5 C 18.736874 7.3419761 18.770253 7.1782704 18.71875 7.03125 C 18.700901 6.9803638 18.665448 6.944608 18.625 6.90625 z M 9.53125 9.375 C 9.2227223 9.438325 8.6171528 9.4352591 8.625 9.71875 C 8.905782 9.5451641 9.325127 9.7232867 9.59375 9.53125 C 9.6445731 9.4949582 9.6948621 9.4236421 9.75 9.375 C 9.674008 9.3699273 9.6052288 9.3598478 9.53125 9.375 z M 18.65625 9.40625 C 18.394276 9.47295 18.07552 9.5488358 17.9375 9.78125 C 17.751655 10.094353 17.689081 10.586342 17.90625 10.875 C 17.920416 10.845732 17.921662 10.807934 17.9375 10.78125 C 18.07552 10.548836 18.394276 10.47295 18.65625 10.40625 C 18.844419 10.35819 19.132964 10.561193 19.25 10.40625 C 19.344601 10.280846 19.1735 10.072971 19.09375 9.9375 C 18.985435 9.7533909 18.591 9.7034142 18.65625 9.5 C 18.666263 9.4687473 18.666589 9.4236047 18.6875 9.40625 C 18.677677 9.4074737 18.665658 9.4038471 18.65625 9.40625 z M 21.875 10.40625 C 21.829743 10.46075 21.805365 10.510683 21.75 10.5625 C 21.767924 10.638886 21.868238 10.687988 21.96875 10.75 C 22.006526 10.724712 22.065773 10.71179 22.09375 10.6875 C 22.133832 10.652648 22.153109 10.607254 22.1875 10.5625 C 22.134445 10.528605 22.089055 10.490445 22.03125 10.46875 C 21.997821 10.45615 21.948951 10.414718 21.90625 10.40625 C 21.897354 10.404486 21.883665 10.407295 21.875 10.40625 z M 20.59375 11.21875 C 20.246703 11.1941 19.903995 11.277256 19.5625 11.34375 C 19.542649 11.347615 19.520056 11.340202 19.5 11.34375 C 19.416262 11.539125 19.457531 11.780735 19.3125 11.9375 C 19.135455 12.128797 18.850297 12.32786 18.59375 12.28125 C 18.443675 12.254032 18.422108 11.99592 18.28125 11.9375 C 18.239493 11.920232 18.174838 11.956231 18.125 11.96875 C 17.688489 12.39432 17.340349 12.943814 17.03125 13.46875 C 16.760846 13.927965 16.359627 14.447122 16.46875 14.96875 C 16.484419 15.043451 16.554871 15.07958 16.625 15.125 C 16.746769 14.897264 16.907237 14.679355 17.03125 14.46875 C 17.443382 13.768835 17.90993 13.032085 18.59375 12.59375 C 18.875754 12.412911 19.233723 12.40776 19.5625 12.34375 C 19.903995 12.277256 20.246703 12.1941 20.59375 12.21875 C 20.839152 12.23615 21.099722 12.282793 21.3125 12.40625 C 21.734781 12.651321 21.855514 13.4375 22.34375 13.4375 C 22.526864 13.4375 22.5549 13.14432 22.71875 13.0625 C 22.855215 12.99377 23.035457 12.9855 23.1875 13 C 23.527297 13.030636 23.819477 13.25782 24.15625 13.3125 C 24.390528 13.35041 24.652819 13.39598 24.875 13.3125 C 25.089704 13.231818 25.227928 13.019822 25.375 12.84375 C 25.455578 12.747222 25.61943 12.6545 25.59375 12.53125 C 25.555946 12.349482 25.299621 12.28172 25.125 12.21875 C 25.095083 12.207984 25.062551 12.223907 25.03125 12.21875 C 24.980975 12.25459 24.932805 12.290778 24.875 12.3125 C 24.652819 12.39598 24.390528 12.35041 24.15625 12.3125 C 23.829839 12.259502 23.545465 12.041723 23.21875 12 C 23.210642 12.076962 23.202257 12.136208 23.125 12.15625 C 23.026271 12.181905 22.938805 12.123095 22.875 12.03125 C 22.822238 12.042464 22.766384 12.038509 22.71875 12.0625 C 22.5549 12.14432 22.526864 12.4375 22.34375 12.4375 C 22.052962 12.4375 21.891444 12.15362 21.71875 11.875 C 21.68096 11.873327 21.64939 11.843261 21.625 11.8125 C 21.590469 11.769 21.596001 11.733693 21.625 11.6875 C 21.539718 11.56458 21.429248 11.474005 21.3125 11.40625 C 21.099722 11.282793 20.839152 11.23615 20.59375 11.21875 z M 6.0625 13.40625 C 6.0547002 13.418575 6.0382844 13.424522 6.03125 13.4375 C 6.0067033 13.482802 6.0069352 13.538343 6 13.59375 C 6.0356752 13.548379 6.0594254 13.476908 6.0625 13.40625 z M 27.96875 13.75 C 27.727014 13.842759 27.852957 14.299664 27.96875 14.53125 C 28.065237 14.724308 28.3492 14.783179 28.5 14.9375 C 28.629775 15.070258 28.6269 15.3708 28.8125 15.375 C 29.058462 15.380013 29.036925 14.78371 29.28125 14.8125 C 29.448047 14.832133 29.492584 14.990972 29.53125 15.1875 C 29.550409 15.154715 29.580115 15.129611 29.59375 15.09375 C 29.62824 15.003021 29.628495 14.911739 29.625 14.8125 C 29.624654 14.802674 29.625605 14.79109 29.625 14.78125 C 29.507395 14.597866 29.399762 14.404339 29.21875 14.34375 C 29.115924 14.30926 28.985852 14.340407 28.875 14.375 C 28.764148 14.409593 28.663586 14.4454 28.5625 14.40625 C 28.291764 14.301498 28.239776 13.646015 27.96875 13.75 z M 25.4375 14.09375 C 25.36065 14.08215 25.27755 14.14604 25.25 14.21875 C 25.131659 14.532115 25.373614 14.891907 25.53125 15.1875 C 25.63913 15.38992 25.84985 15.522586 25.96875 15.71875 C 26.400726 16.431529 26.187099 17.560684 26.875 18.03125 C 27.035287 18.140829 27.38859 18.20815 27.46875 18.03125 C 27.563539 17.822368 27.03438 17.75803 27 17.53125 C 26.979637 17.39677 27.103349 17.276637 27.1875 17.15625 C 27.071909 17.147835 26.955143 17.08604 26.875 17.03125 C 26.218125 16.581908 26.391137 15.528377 26.03125 14.8125 C 26.012889 14.78364 25.986199 14.750612 25.96875 14.71875 C 25.84985 14.522586 25.63913 14.38992 25.53125 14.1875 C 25.520886 14.168067 25.510786 14.144975 25.5 14.125 C 25.479707 14.117983 25.459724 14.097075 25.4375 14.09375 z M 4.4375 14.71875 C 4.3654921 14.723747 4.2766465 14.752355 4.21875 14.78125 C 4.025693 14.87778 4.009402 15.143003 3.84375 15.28125 C 3.732515 15.37405 3.582086 15.475794 3.4375 15.46875 C 3.234086 15.45839 3.044925 15.32911 2.9375 15.15625 C 2.8912394 15.081882 2.8502897 14.994863 2.84375 14.90625 C 2.8067881 15.095457 2.873425 15.305135 2.875 15.5 C 2.87666 15.716836 2.82295 15.9721 2.9375 16.15625 C 3.044925 16.32911 3.234086 16.45839 3.4375 16.46875 C 3.582086 16.475794 3.732515 16.37405 3.84375 16.28125 C 4.009402 16.143003 4.025693 15.87778 4.21875 15.78125 C 4.2591683 15.761078 4.324493 15.760731 4.375 15.75 C 4.4840292 15.413001 4.8048837 15.024601 4.59375 14.78125 C 4.551285 14.732365 4.5095079 14.713753 4.4375 14.71875 z M 16.46875 15.625 C 16.339011 15.741751 16.20173 15.845057 16.1875 16 C 16.16492 16.245464 16.256612 16.492376 16.375 16.71875 C 16.5328 16.566856 16.738227 16.415472 16.71875 16.21875 C 16.706715 16.097364 16.49382 16.088271 16.46875 15.96875 C 16.445666 15.858406 16.450811 15.733792 16.46875 15.625 z M 4.90625 16.03125 C 4.8263732 16.047494 4.7414236 16.091198 4.65625 16.125 C 4.5830203 16.384835 4.3586925 16.667412 4.34375 16.90625 C 4.3950529 16.977368 4.4576233 17.075934 4.5 17.15625 C 4.6682623 17.173257 4.9264867 16.939457 5.0625 17.0625 C 5.222414 17.207292 5.03122 17.50527 5.0625 17.71875 C 5.0670529 17.749954 5.0898973 17.780014 5.09375 17.8125 C 5.2052991 17.901183 5.3000201 17.977688 5.4375 18 C 5.572142 18.02196 5.708093 17.860085 5.84375 17.875 C 5.968865 17.8895 6.094253 17.953124 6.15625 18.0625 C 6.16661 18.08114 6.16045 18.10387 6.15625 18.125 C 6.129771 18.296879 6.0788606 18.487924 6.03125 18.65625 C 6.0728886 18.644971 6.1207583 18.651763 6.15625 18.625 C 6.19063 18.599108 6.13968 18.53957 6.15625 18.5 C 6.332694 18.093958 6.68304 17.61985 7.125 17.59375 C 7.525655 17.570053 7.705295 18.180372 8.09375 18.28125 C 8.430503 18.368748 8.826175 17.978108 9.125 18.15625 C 9.482835 18.369711 9.28113 19.068212 9.59375 19.34375 C 9.793974 19.519196 10.166801 19.364293 10.375 19.53125 C 10.638383 19.742578 10.576068 20.196324 10.8125 20.4375 C 11.466247 21.104323 12.815192 20.952104 13.34375 21.6875 C 13.446285 21.402575 13.553675 21.045854 13.40625 20.78125 C 12.932059 19.929541 11.494933 20.133583 10.8125 19.4375 C 10.576068 19.196324 10.638383 18.742578 10.375 18.53125 C 10.166801 18.364293 9.793974 18.519196 9.59375 18.34375 C 9.28113 18.068212 9.482835 17.369711 9.125 17.15625 C 8.826175 16.978108 8.430503 17.368748 8.09375 17.28125 C 7.705295 17.180372 7.525655 16.570053 7.125 16.59375 C 6.68304 16.61985 6.332694 17.093958 6.15625 17.5 C 6.13968 17.53957 6.19063 17.599108 6.15625 17.625 C 5.905442 17.814122 5.473611 17.564358 5.25 17.34375 C 5.089672 17.185492 5.095021 16.941636 5.0625 16.71875 C 5.03122 16.50527 5.222414 16.207292 5.0625 16.0625 C 5.0223142 16.026146 4.9627482 16.01976 4.90625 16.03125 z M 28.53125 17.0625 C 28.405907 17.143181 28.267237 17.21385 28.15625 17.3125 C 27.916503 17.525608 27.382314 17.747133 27.53125 18.03125 C 27.659152 18.275273 28.06542 17.880836 28.34375 17.875 C 28.403959 17.70064 28.463531 17.523542 28.5 17.34375 C 28.51899 17.250093 28.532832 17.160745 28.53125 17.0625 z M 5.9375 18.90625 C 5.8814359 19.06538 5.856185 19.224895 5.78125 19.375 C 5.69839 19.541129 5.472134 19.630152 5.4375 19.8125 C 5.42092 19.89992 5.50083 19.973428 5.5 20.0625 C 5.4979 20.39745 5.20882 20.730077 5.25 21.0625 C 5.270455 21.227852 5.3122018 21.377414 5.375 21.53125 C 5.4411375 21.380602 5.4990075 21.220798 5.5 21.0625 C 5.50083 20.973428 5.42092 20.89992 5.4375 20.8125 C 5.472134 20.630152 5.69839 20.541129 5.78125 20.375 C 5.973271 19.990356 6.09079 19.549911 6.15625 19.125 C 6.16045 19.10387 6.16661 19.08114 6.15625 19.0625 C 6.1097523 18.980468 6.0315934 18.937272 5.9375 18.90625 z M 21.125 19.6875 C 21.092503 19.770894 21.105657 19.852678 21.125 19.9375 C 21.150724 20.050265 21.245827 20.143981 21.34375 20.21875 C 21.357678 20.161736 21.387923 20.089027 21.375 20.03125 C 21.342548 19.88628 21.243158 19.790136 21.125 19.6875 z M 21.5625 21.4375 C 21.56333 21.480526 21.552505 21.520427 21.5625 21.5625 C 21.579795 21.63542 21.611281 21.718161 21.65625 21.78125 C 21.663273 21.695119 21.653223 21.613004 21.625 21.53125 C 21.611918 21.493322 21.587202 21.468924 21.5625 21.4375 z M 26.625 22.125 C 26.569615 22.604299 26.624304 23.083696 26.6875 23.5625 C 26.771935 23.488139 26.853126 23.418153 26.875 23.3125 C 26.92492 23.071593 26.720021 22.837599 26.6875 22.59375 C 26.666703 22.438407 26.639247 22.282697 26.625 22.125 z M 21.75 22.875 C 21.728558 22.913507 21.698332 22.958362 21.6875 23 C 21.567772 23.459878 21.549805 23.937009 21.625 24.40625 C 21.643106 24.265481 21.652043 24.136191 21.6875 24 C 21.748235 23.76653 22.03955 23.584864 22.03125 23.34375 C 22.025459 23.163983 21.873666 23.020188 21.75 22.875 z M 12.75 23.46875 C 12.725158 23.512921 12.701955 23.544424 12.6875 23.59375 C 12.634728 23.773703 12.686587 23.967 12.71875 24.15625 C 12.735507 24.072834 12.736623 23.98644 12.75 23.90625 C 12.773228 23.766917 12.772258 23.611652 12.75 23.46875 z M 25.875 25.0625 C 25.64395 25.192361 25.32547 25.284465 25.3125 25.53125 C 25.311931 25.541533 25.311376 25.552867 25.3125 25.5625 C 25.542659 25.427977 25.895312 25.366251 25.90625 25.125 C 25.907338 25.100993 25.88261 25.083148 25.875 25.0625 z M 7.59375 25.15625 C 7.564546 25.323834 7.5626091 25.49408 7.59375 25.65625 C 7.6028283 25.703602 7.636218 25.737191 7.65625 25.78125 C 7.6803679 25.614958 7.7060896 25.438671 7.65625 25.28125 C 7.6420492 25.236414 7.6167879 25.196689 7.59375 25.15625 z M 11.3125 26.34375 C 11.263605 26.438042 11.225387 26.554777 11.21875 26.65625 C 11.218107 26.666246 11.217452 26.677836 11.21875 26.6875 C 11.251679 26.579521 11.296153 26.45515 11.3125 26.34375 z M 7.78125 27.0625 C 7.7009589 27.297519 7.6208955 27.539369 7.59375 27.78125 C 7.59165 27.80279 7.61467 27.83878 7.59375 27.84375 C 7.667972 27.896356 7.7381353 27.949064 7.8125 28 C 7.8821596 27.787509 7.9285298 27.562616 7.90625 27.34375 C 7.8952371 27.235673 7.8388082 27.157623 7.78125 27.0625 z "
       id="path3849" />
    <path
       d="m 30.500001,16 c 0,-8.0005985 -6.499399,-14.5000005 -14.5,-14.5000005 -8.0006015,0 -14.5000035,6.499402 -14.5000015,14.5000005 0,8.000598 6.4994,14.500007 14.5000015,14.5 8.000601,0 14.5,-6.499402 14.5,-14.5 z"
       inkscape:connector-curvature="0"
       id="path3866"
       style="opacity:0.91000001;color:#000000;fill:none;stroke:url(#linearGradient3902);stroke-width:1;stroke-opacity:1;marker:none;visibility:visible;display:inline;overflow:visible;enable-background:accumulate" />
    <path
       style="color:#000000;fill:#ffffff;fill-opacity:1;fill-rule:nonzero;stroke:none;stroke-width:1;marker:none;visibility:visible;display:inline;overflow:visible;enable-background:accumulate;opacity:0.2"
       d="M 16 2 C 8.2701871 1.9999932 2 8.2701906 2 16 C 2 16.168178 2.0253633 16.333253 2.03125 16.5 C 2.295928 9.0027282 8.4383652 2.9999933 16 3 C 23.561635 3 29.704072 9.0027285 29.96875 16.5 C 29.974637 16.333253 30 16.168178 30 16 C 30 8.2701906 23.729813 2 16 2 z "
       id="path3101" />
    <path
       style="color:#bebebe;fill:#000000;fill-opacity:1;fill-rule:nonzero;stroke:none;stroke-width:1;marker:none;visibility:visible;display:inline;overflow:visible;enable-background:accumulate;opacity:0.2"
       d="M 17.53125 2.71875 C 17.288075 3.0602495 17.015108 3.3934934 17.09375 3.75 C 17.10017 3.779622 17.12622 3.83961 17.15625 3.84375 C 17.324346 3.8710197 17.467538 3.5952856 17.625 3.5625 C 17.78994 3.3102806 17.92683 3.0583565 17.8125 2.8125 C 17.774195 2.7301172 17.657524 2.7291672 17.53125 2.71875 z M 12.40625 2.96875 C 12.311614 2.9925142 12.218793 3.0057724 12.125 3.03125 C 12.15959 3.02297 12.16451 3.059783 12.1875 3.09375 C 12.290036 3.2453791 11.766149 3.2862567 11.78125 3.46875 C 11.787524 3.4763723 11.774054 3.4930268 11.78125 3.5 C 11.962645 3.6756572 12.451734 3.5020915 12.5 3.75 C 12.516351 3.8340885 12.487505 3.9232882 12.4375 4 C 12.629058 4.0700028 12.821006 4.1430033 12.96875 4.25 C 13.048825 4.1885788 13.123012 4.1186258 13.15625 4.03125 C 13.22523 3.8497307 13.24511 3.6102572 13.15625 3.4375 C 13.028847 3.1899333 12.708495 3.0802343 12.40625 2.96875 z M 12 3.09375 C 11.88669 3.1256978 11.767542 3.1544932 11.65625 3.1875 C 11.662329 3.2238496 11.680115 3.2456668 11.6875 3.28125 C 11.697679 3.2784794 11.708726 3.284485 11.71875 3.28125 C 11.79684 3.255975 11.917765 3.1529933 12 3.09375 z M 10.6875 3.5 C 10.602587 3.5321927 10.52219 3.5589378 10.4375 3.59375 C 10.572142 3.615708 10.67968 3.7500285 10.8125 3.71875 C 10.862007 3.707081 10.904407 3.6960429 10.9375 3.65625 C 10.864617 3.5904144 10.770395 3.5409121 10.6875 3.5 z M 10.3125 3.65625 C 10.23271 3.6899984 10.143129 3.7165476 10.0625 3.75 C 10.167174 3.794326 10.254603 3.8796785 10.3125 3.96875 C 10.378328 4.0700615 10.402702 4.2189545 10.375 4.34375 C 10.483856 4.3847643 10.586497 4.4501823 10.6875 4.5 C 11.117114 4.7120314 11.365354 5.3694565 11.84375 5.34375 C 12.133625 5.3271783 12.555411 5.0349665 12.5 4.75 C 12.451734 4.5020915 11.962645 4.6756572 11.78125 4.5 C 11.73951 4.4595554 11.736399 4.401025 11.71875 4.34375 C 11.464713 4.2862071 11.270995 4.0331849 11.0625 3.8125 C 10.799751 3.8482361 10.531119 3.8932074 10.375 3.71875 C 10.3605 3.702178 10.375 3.677793 10.375 3.65625 C 10.35627 3.66408 10.3312 3.64834 10.3125 3.65625 z M 16.375 3.65625 C 15.728523 3.7132457 14.955228 4.3775 14.4375 4.8125 C 14.148515 5.0553129 14.15195 5.5247866 13.875 5.78125 C 13.733397 5.9123716 13.526864 6.092358 13.34375 6.03125 C 13.072999 5.9410031 12.871394 5.7025378 12.75 5.40625 C 12.691785 5.461692 12.635389 5.5152189 12.625 5.59375 C 12.5554 6.1198929 12.840248 6.8634225 13.34375 7.03125 C 13.526864 7.092358 13.733397 6.9123716 13.875 6.78125 C 14.15195 6.5247866 14.148515 6.0553129 14.4375 5.8125 C 15.127804 5.2325 16.270181 4.273755 16.96875 4.84375 C 17.070457 4.926814 16.854048 5.0983172 16.90625 5.21875 C 16.96818 5.3614714 17.125686 5.4719193 17.28125 5.46875 C 17.574669 5.46253 17.963812 5.2599929 18 4.96875 C 18.02072 4.8015858 17.852489 4.59701 17.6875 4.5625 C 17.498585 4.522936 17.346759 4.8746557 17.15625 4.84375 C 17.12622 4.83961 17.10017 4.779622 17.09375 4.75 C 17.069743 4.6411698 17.092665 4.5448212 17.125 4.4375 C 17.026627 4.391742 16.946563 4.3116536 16.90625 4.21875 C 16.854048 4.0983172 17.070457 3.926814 16.96875 3.84375 C 16.794108 3.7012512 16.590492 3.6372514 16.375 3.65625 z M 9.21875 4.125 C 9.1948487 4.1370814 9.1799046 4.1751114 9.15625 4.1875 C 9.1522515 4.2080462 9.1600259 4.2293536 9.15625 4.25 C 9.1587616 4.2737503 9.1322205 4.2861057 9.125 4.3125 C 9.118811 4.3351237 9.133139 4.3574136 9.125 4.375 C 9.1178546 4.398816 9.1041047 4.4161807 9.09375 4.4375 C 9.0786508 4.4563817 9.0811187 4.4838469 9.0625 4.5 C 9.0487059 4.5170487 9.0189277 4.5181223 9 4.53125 C 8.8938803 4.605761 8.7623499 4.6470053 8.6875 4.75 C 8.522614 4.9769043 8.219395 5.2978621 8.375 5.53125 C 8.494729 5.7108428 8.822645 5.6540857 9 5.53125 C 9.151422 5.4262285 9.113964 5.2002372 9.1875 5.03125 C 9.17507 5.2769422 9.548546 5.3889172 9.78125 5.46875 C 9.944479 5.524678 10.19043 5.5907572 10.3125 5.46875 C 10.434506 5.3467429 10.40654 5.1134807 10.3125 4.96875 C 10.196706 4.7906071 9.93074 4.6726064 9.71875 4.6875 C 9.61725 4.69372 9.509034 4.695729 9.40625 4.75 C 9.5088098 4.6351698 9.5973809 4.5233916 9.71875 4.4375 C 9.5258918 4.3695268 9.2852106 4.2881941 9.21875 4.125 z M 22.875 4.6875 C 22.759921 4.6814626 22.645424 4.7293268 22.53125 4.75 C 22.327829 4.8720151 22.166847 5.0556841 22.03125 5.25 C 21.964766 5.3452858 21.91245 5.4465 21.90625 5.5625 C 21.898172 5.71939 22.03545 5.8742358 22.03125 6.03125 C 22.029478 6.1128724 22.00745 6.2188073 22 6.3125 C 22.011715 6.2931285 22.01854 6.2682164 22.03125 6.25 C 22.183909 6.0312337 22.353666 5.8025755 22.59375 5.6875 C 22.597373 5.5653818 22.634248 5.4269672 22.65625 5.3125 C 22.69581 5.1071116 22.976155 4.8978111 22.9375 4.71875 C 22.914143 4.7148163 22.898933 4.6887422 22.875 4.6875 z M 24.15625 5.09375 C 24.147741 5.1231643 24.114008 5.1147549 24.09375 5.125 C 24.244112 5.2702334 24.424879 5.3759952 24.59375 5.375 C 24.450616 5.2785203 24.299021 5.1928444 24.15625 5.09375 z M 7.96875 5.125 C 7.8388716 5.2942164 7.7015883 5.4636037 7.53125 5.59375 C 7.4206168 5.6782528 7.2671582 5.6981839 7.125 5.75 C 7.0738355 5.791118 6.9841023 5.8227509 6.90625 5.84375 C 6.7682339 5.8892096 6.6508989 5.9401295 6.53125 6 C 6.4019705 6.111096 6.2815211 6.228199 6.15625 6.34375 C 6.083088 6.5349633 6.20165 6.7900141 6.34375 6.9375 C 6.3853243 6.9806531 6.4457032 7.0069197 6.5 7.03125 C 6.8122358 6.8611949 7.2471808 6.8107249 7.53125 6.59375 C 7.749496 6.427 7.977254 6.2487164 8.09375 6 C 8.194836 5.7841778 8.264174 5.4937579 8.15625 5.28125 C 8.1177973 5.2054668 8.0531762 5.1576494 7.96875 5.125 z M 23.3125 5.71875 C 23.204756 5.7431815 23.040667 5.8184748 22.90625 5.875 C 22.835888 6.0124273 22.68467 6.1649509 22.65625 6.3125 C 22.632414 6.4365061 22.588953 6.590333 22.59375 6.71875 C 22.614802 6.6871743 22.63741 6.6569489 22.65625 6.625 C 22.71258 6.5302325 22.65951 6.373843 22.71875 6.28125 C 22.877049 6.0341083 23.551014 6.0519025 23.4375 5.78125 C 23.41213 5.720728 23.374432 5.7047067 23.3125 5.71875 z M 20.90625 6.09375 C 20.661469 6.0690584 20.57631 6.642664 20.34375 6.5625 C 20.272513 6.5379088 20.20302 6.4662808 20.15625 6.40625 C 20.128091 6.4393358 20.079334 6.4573243 20.0625 6.5 C 19.9682 6.7392066 19.989968 7.1110304 20.125 7.34375 C 20.135584 7.3354095 20.144288 7.3195429 20.15625 7.3125 C 20.277847 7.2409883 20.444585 7.3482348 20.59375 7.375 C 20.646217 7.2999831 20.691557 7.2142815 20.75 7.15625 C 20.679083 7.0624825 20.564487 6.9733932 20.59375 6.875 C 20.638078 6.7258575 20.862872 6.551675 21 6.625 C 21.15225 6.7064484 20.892493 6.9899425 21 7.125 C 21.048805 7.1595299 21.090436 7.2195972 21.125 7.28125 C 21.322787 7.3933405 21.595664 7.3649938 21.8125 7.3125 C 21.872019 7.2980794 21.944018 7.2757868 22 7.25 C 22.003901 7.1773049 22.029866 7.0949989 22.03125 7.03125 C 22.034894 6.8950171 21.960405 6.757606 21.9375 6.625 C 21.8998 6.7112719 21.836046 6.7796417 21.75 6.8125 C 21.587496 6.8745808 21.446521 6.6733209 21.3125 6.5625 C 21.159152 6.43577 21.104279 6.114466 20.90625 6.09375 z M 18.65625 6.25 C 18.58396 6.24793 18.514321 6.266515 18.46875 6.3125 C 18.37719 6.404057 18.42587 6.5965768 18.46875 6.71875 C 18.496665 6.7981967 18.561799 6.8463156 18.625 6.90625 C 18.665538 6.8064704 18.711719 6.7164798 18.71875 6.625 C 18.726796 6.5175549 18.745749 6.3902201 18.75 6.28125 C 18.717194 6.2698572 18.692292 6.2511395 18.65625 6.25 z M 17.6875 7.15625 C 17.61542 7.181316 17.537493 7.2242858 17.5 7.28125 C 17.356864 7.49817 17.333403 7.9401616 17.5625 8.0625 C 17.758456 8.1671075 18.054551 7.9607683 18.125 7.75 C 18.19232 7.54845 18.069509 7.2420075 17.875 7.15625 C 17.81265 7.1287 17.759583 7.131184 17.6875 7.15625 z M 19.25 7.3125 C 19.101976 7.3855172 18.876923 7.507787 18.71875 7.5 C 18.714275 7.5390183 18.721621 7.586656 18.71875 7.625 C 18.697 7.9079776 18.388637 8.2726066 18.59375 8.46875 C 18.614805 8.4888733 18.6311 8.4906744 18.65625 8.5 C 18.704712 8.3487369 18.900217 8.3550019 19.09375 8.375 C 19.144466 8.3493923 19.206066 8.3341718 19.25 8.3125 C 19.455693 8.211 19.742378 8.104245 19.75 7.875 C 19.7562 7.6615184 19.430986 7.5839784 19.3125 7.40625 C 19.294919 7.3798791 19.295167 7.3413947 19.28125 7.3125 C 19.279454 7.3087717 19.251742 7.3162651 19.25 7.3125 z M 10.5 8.1875 C 10.389918 8.2634262 10.301336 8.3538531 10.1875 8.375 C 9.975345 8.414358 9.742618 8.331708 9.53125 8.375 C 9.209308 8.4410783 8.55892 8.4280583 8.625 8.75 C 8.720451 9.215015 9.794817 8.3383657 10.03125 8.75 C 10.149453 8.9557885 9.9595239 9.19016 9.75 9.375 C 9.891128 9.3844208 10.049599 9.4005827 10.1875 9.375 C 10.48299 9.320108 10.740015 8.8804909 11 9.03125 C 11.245506 9.1735567 10.879093 9.8137066 11.15625 9.875 C 11.384128 9.925334 11.573321 9.5108267 11.53125 9.28125 C 11.497692 9.0987575 11.14595 9.1467892 11.09375 8.96875 C 11.08242 8.9301737 11.101732 8.9116304 11.125 8.875 C 11.006665 8.8216933 11.029528 8.6294863 11.0625 8.4375 C 11.008961 8.3953593 10.931795 8.3417436 10.875 8.3125 C 10.758378 8.252425 10.567694 8.362268 10.5 8.25 C 10.488262 8.2305286 10.498371 8.2079323 10.5 8.1875 z M 18.78125 9.375 C 18.751891 9.3818875 18.708411 9.3888953 18.6875 9.40625 C 18.86432 9.3842228 19.099548 9.5148537 19.21875 9.40625 C 19.064185 9.4035571 18.898684 9.34745 18.78125 9.375 z M 21.875 9.40625 C 21.824742 9.4001911 21.767505 9.4292895 21.75 9.46875 C 21.631887 9.7339341 22.29818 9.807043 22.34375 10.09375 C 22.368716 10.251173 22.290672 10.428237 22.1875 10.5625 C 22.331506 10.654501 22.447282 10.761173 22.53125 10.90625 C 22.64145 11.096614 22.564696 11.362421 22.65625 11.5625 C 22.716149 11.693442 22.784922 11.901586 22.875 12.03125 C 22.973394 12.010337 23.088529 11.990561 23.1875 12 C 23.197955 12.000943 23.208378 11.998675 23.21875 12 C 23.239472 11.803319 23.129851 11.477345 23.25 11.3125 C 23.30676 11.23461 23.406165 11.164921 23.5 11.1875 C 23.890134 11.28175 23.867436 11.962178 24.21875 12.15625 C 24.456015 12.287323 24.764444 12.174793 25.03125 12.21875 C 25.16771 12.121471 25.267524 11.972418 25.375 11.84375 C 25.455578 11.747222 25.61943 11.6545 25.59375 11.53125 C 25.555946 11.349482 25.299621 11.28172 25.125 11.21875 C 24.840075 11.11622 24.483851 11.3027 24.21875 11.15625 C 23.867436 10.962178 23.890134 10.28175 23.5 10.1875 C 23.406165 10.164921 23.30676 10.23461 23.25 10.3125 C 23.082836 10.541849 23.399692 11.08499 23.125 11.15625 C 22.886889 11.218123 22.758578 10.786193 22.65625 10.5625 C 22.564696 10.362421 22.64145 10.096614 22.53125 9.90625 C 22.416347 9.7077243 22.245954 9.549329 22.03125 9.46875 C 21.990857 9.453525 21.925258 9.4123089 21.875 9.40625 z M 20.53125 9.4375 C 20.380797 9.4719089 20.258992 9.5553713 20.15625 9.65625 C 20.09282 9.7186 20.14595 9.83437 20.09375 9.90625 C 19.974063 10.070825 19.690515 10.091743 19.5625 10.25 C 19.403621 10.446309 19.484015 10.752108 19.3125 10.9375 C 19.135455 11.128797 18.850297 11.32786 18.59375 11.28125 C 18.443675 11.254032 18.422108 10.99592 18.28125 10.9375 C 18.181573 10.89628 18.01373 11.01373 17.9375 10.9375 C 17.920336 10.920336 17.920728 10.894244 17.90625 10.875 C 17.743113 11.212057 17.684812 11.684812 17.9375 11.9375 C 17.981796 11.981796 18.05587 11.986115 18.125 11.96875 C 18.270504 11.826893 18.422795 11.703334 18.59375 11.59375 C 18.858727 11.42383 19.187884 11.398972 19.5 11.34375 C 19.515291 11.308073 19.537967 11.280312 19.5625 11.25 C 19.690515 11.091743 19.974063 11.070825 20.09375 10.90625 C 20.14595 10.83437 20.09282 10.7186 20.15625 10.65625 C 20.361735 10.454492 20.694824 10.380114 20.96875 10.46875 C 21.187017 10.53918 21.255981 10.828514 21.4375 10.96875 C 21.590164 11.086821 21.911702 11.065642 21.96875 11.25 C 22.018003 11.409178 21.711998 11.548921 21.625 11.6875 C 21.664466 11.744383 21.681653 11.815148 21.71875 11.875 C 21.832121 11.880019 22.004823 11.764708 22.09375 11.6875 C 22.254079 11.548093 22.377038 11.303647 22.34375 11.09375 C 22.319118 10.938773 22.131194 10.850221 21.96875 10.75 C 21.846427 10.831884 21.69954 10.906511 21.625 10.8125 C 21.562845 10.7342 21.657296 10.649263 21.75 10.5625 C 21.743301 10.533952 21.735236 10.501898 21.75 10.46875 C 21.767505 10.42929 21.824742 10.400191 21.875 10.40625 C 21.883665 10.407295 21.897354 10.404486 21.90625 10.40625 C 21.944306 10.355277 21.985167 10.303059 21.96875 10.25 C 21.911702 10.065642 21.590164 10.086821 21.4375 9.96875 C 21.255981 9.828514 21.187017 9.539175 20.96875 9.46875 C 20.831787 9.4244321 20.681703 9.4030911 20.53125 9.4375 z M 9.75 9.65625 C 9.3385928 9.7073519 8.6965882 10.098761 8.625 9.75 C 8.4317176 9.8855561 8.3456813 10.167817 8.15625 10.3125 C 7.933322 10.482875 7.597236 10.419514 7.40625 10.625 C 7.173939 10.874897 7.256593 11.313155 7.0625 11.59375 C 6.809454 11.959585 6.243219 12.046415 6.03125 12.4375 C 5.893691 12.691371 6.0748419 13.122615 6.0625 13.40625 C 6.2897338 13.047185 6.8178515 12.947444 7.0625 12.59375 C 7.256593 12.313155 7.173939 11.874897 7.40625 11.625 C 7.597236 11.419514 7.933322 11.482875 8.15625 11.3125 C 8.351792 11.16315 8.415723 10.84809 8.625 10.71875 C 8.905782 10.545164 9.325127 10.723247 9.59375 10.53125 C 9.837701 10.357049 10.180559 10.009943 10.03125 9.75 C 9.9721418 9.6470914 9.8871357 9.639216 9.75 9.65625 z M 4.71875 12.71875 C 4.6525696 12.717715 4.5897417 12.717893 4.53125 12.75 C 4.412146 12.815665 4.516864 13.0765 4.40625 13.15625 C 4.231214 13.2824 3.98715 13.09183 3.78125 13.15625 C 3.455601 13.257977 3.108186 13.423385 2.9375 13.71875 C 2.80762 13.943686 2.8729 14.24018 2.875 14.5 C 2.8759098 14.618843 2.8386822 14.753529 2.84375 14.875 C 2.856359 14.820975 2.9093593 14.767486 2.9375 14.71875 C 3.108186 14.423385 3.455601 14.257977 3.78125 14.15625 C 3.98715 14.09183 4.231214 14.2824 4.40625 14.15625 C 4.516864 14.0765 4.412146 13.815665 4.53125 13.75 C 4.765217 13.621572 5.087086 13.826023 5.3125 13.96875 C 5.571511 14.133015 5.612417 14.744079 5.90625 14.65625 C 6.2518575 14.552939 5.9514533 13.981599 6 13.59375 C 5.9744454 13.62625 5.9556225 13.641491 5.90625 13.65625 C 5.612417 13.744079 5.571511 13.133015 5.3125 12.96875 C 5.1434395 12.861705 4.9172913 12.721856 4.71875 12.71875 z M 27.96875 12.75 C 27.727014 12.842759 27.852957 13.299664 27.96875 13.53125 C 28.065237 13.724308 28.3492 13.783179 28.5 13.9375 C 28.629775 14.070258 28.6269 14.3708 28.8125 14.375 C 28.830947 14.375376 28.8595 14.38108 28.875 14.375 C 29.066169 14.300007 29.055249 13.785869 29.28125 13.8125 C 29.540291 13.842991 29.53844 14.245196 29.59375 14.5 C 29.612229 14.585506 29.61949 14.691707 29.625 14.78125 C 29.625605 14.79109 29.624654 14.802674 29.625 14.8125 C 29.73818 14.986804 29.880019 15.141644 30.0625 15.125 C 30.14846 15.1167 30.1978 14.99405 30.25 14.9375 C 30.210147 14.660246 30.117654 14.397163 30.0625 14.125 C 29.682331 14.159675 29.580773 13.464929 29.21875 13.34375 C 29.013098 13.274769 28.764672 13.48455 28.5625 13.40625 C 28.291764 13.301498 28.239776 12.646015 27.96875 12.75 z M 25.4375 13.09375 C 25.36065 13.08215 25.27755 13.14604 25.25 13.21875 C 25.139439 13.511513 25.346727 13.841145 25.5 14.125 C 25.725755 14.20306 25.84122 14.485886 25.96875 14.71875 C 25.986199 14.750612 26.012889 14.78364 26.03125 14.8125 C 26.352446 15.317349 26.482998 15.906787 26.8125 16.40625 C 26.879627 16.507931 26.996479 16.573533 27.09375 16.65625 C 27.042253 16.61339 27.008595 16.587945 27 16.53125 C 26.968183 16.321125 27.2819 16.147625 27.25 15.9375 C 27.215655 15.71072 26.938857 15.59765 26.8125 15.40625 C 26.482998 14.906787 26.352446 14.317349 26.03125 13.8125 C 25.866634 13.553758 25.740799 13.13912 25.4375 13.09375 z M 27.09375 16.65625 C 27.179577 16.729236 27.233901 16.831197 27.25 16.9375 C 27.261484 17.013145 27.234835 17.088532 27.1875 17.15625 C 27.303091 17.164665 27.42867 17.1197 27.46875 17.03125 C 27.539842 16.874589 27.248242 16.784831 27.09375 16.65625 z M 1.625 15 C 1.5799881 15.323428 1.5232879 15.638991 1.5 15.96875 C 1.811191 15.9006 1.71652 16.583007 1.9375 16.8125 C 2.232678 17.119052 2.670751 17.271246 3.0625 17.4375 C 3.433575 17.594928 3.889621 17.548529 4.21875 17.78125 C 4.433806 17.933292 4.504344 18.248234 4.6875 18.4375 C 4.912582 18.67008 5.118023 18.948152 5.4375 19 C 5.572142 19.02196 5.708093 18.860085 5.84375 18.875 C 5.8750288 18.878625 5.9061355 18.895909 5.9375 18.90625 C 5.966987 18.822555 6.007092 18.74166 6.03125 18.65625 C 5.7786423 18.724676 5.4419679 18.53314 5.25 18.34375 C 5.1121179 18.207648 5.1174166 18.012058 5.09375 17.8125 C 4.9460803 17.695101 4.8157229 17.569994 4.6875 17.4375 C 4.6115441 17.35901 4.5524133 17.255588 4.5 17.15625 C 4.4694069 17.153158 4.4293352 17.149099 4.40625 17.125 C 4.3468567 17.063048 4.3386069 16.988457 4.34375 16.90625 C 4.3054978 16.853223 4.272514 16.81926 4.21875 16.78125 C 3.889621 16.548529 3.433575 16.594928 3.0625 16.4375 C 2.670751 16.271246 2.232678 16.119052 1.9375 15.8125 C 1.7579537 15.626037 1.7786593 15.138384 1.625 15 z M 16.625 15.125 C 16.537423 15.288788 16.496721 15.455367 16.46875 15.625 C 16.598489 15.508249 16.73408 15.373589 16.71875 15.21875 C 16.714237 15.17323 16.667077 15.152252 16.625 15.125 z M 29.53125 15.1875 C 29.420651 15.376762 29.227229 15.539544 29.0625 15.6875 C 28.78642 15.935678 28.433718 16.065875 28.15625 16.3125 C 27.916503 16.525608 27.382314 16.747133 27.53125 17.03125 C 27.682837 17.320463 28.254329 16.691152 28.5 16.90625 C 28.541809 16.942828 28.53033 17.005381 28.53125 17.0625 C 28.719265 16.941478 28.896852 16.836407 29.0625 16.6875 C 29.255765 16.513914 29.501406 16.336625 29.59375 16.09375 C 29.66273 15.912292 29.63477 15.689805 29.59375 15.5 C 29.574054 15.409265 29.552633 15.296186 29.53125 15.1875 z M 4.4375 15.71875 C 4.4157618 15.720259 4.3968409 15.74536 4.375 15.75 C 4.3291069 15.891851 4.3124141 16.027121 4.40625 16.125 C 4.4657542 16.187117 4.5606894 16.162924 4.65625 16.125 C 4.6922434 15.997288 4.6740768 15.873834 4.59375 15.78125 C 4.551285 15.732365 4.5095079 15.713753 4.4375 15.71875 z M 16.375 16.71875 C 16.284392 16.805967 16.197881 16.886968 16.1875 17 C 16.14234 17.490928 16.518012 17.926916 16.78125 18.34375 C 17.164941 18.9513 17.471345 19.910108 18.1875 19.96875 C 18.493139 19.99382 18.601273 19.37406 18.90625 19.40625 C 19.043585 19.42075 19.051614 19.693478 19.1875 19.71875 C 19.482202 19.77364 19.640208 19.211533 19.9375 19.25 C 20.058471 19.26657 20.106064 19.484539 20.21875 19.53125 C 20.438032 19.62219 20.690117 19.43327 20.90625 19.53125 C 20.979842 19.564677 21.060717 19.631662 21.125 19.6875 C 21.209852 19.469748 21.424581 19.252924 21.375 19.03125 C 21.324892 18.807411 21.115112 18.62612 20.90625 18.53125 C 20.690117 18.43327 20.438032 18.62219 20.21875 18.53125 C 20.106064 18.484539 20.058471 18.26657 19.9375 18.25 C 19.640208 18.211533 19.482202 18.77364 19.1875 18.71875 C 19.051614 18.693478 19.043585 18.42075 18.90625 18.40625 C 18.601273 18.37406 18.493139 18.99382 18.1875 18.96875 C 17.471345 18.910108 17.164941 17.9513 16.78125 17.34375 C 16.649631 17.135333 16.493388 16.945124 16.375 16.71875 z M 28.34375 17.875 C 28.204033 18.27961 28.009726 18.672055 27.78125 19.03125 C 27.625438 19.276196 27.348036 19.445681 27.1875 19.6875 C 26.963185 20.025184 26.77595 20.385608 26.6875 20.78125 C 26.589933 21.21791 26.584326 21.674794 26.625 22.125 C 26.637798 22.014248 26.663194 21.890032 26.6875 21.78125 C 26.77595 21.385608 26.963185 21.025184 27.1875 20.6875 C 27.348036 20.445681 27.625438 20.276196 27.78125 20.03125 C 28.108184 19.517266 28.378904 18.940756 28.5 18.34375 C 28.53003 18.195642 28.613721 18.005741 28.5 17.90625 C 28.461614 17.872641 28.395293 17.873919 28.34375 17.875 z M 21.34375 20.21875 C 21.283775 20.464261 21.068316 20.688923 21.125 20.9375 C 21.173867 21.151717 21.427229 21.265416 21.5625 21.4375 C 21.556692 21.136318 21.723781 20.817389 21.625 20.53125 C 21.57799 20.394955 21.465818 20.311956 21.34375 20.21875 z M 5.375 21.5625 C 5.305383 21.721824 5.22941 21.896289 5.25 22.0625 C 5.33182 22.723907 5.808296 23.256184 6.21875 23.78125 C 6.491412 24.130057 6.888821 24.360691 7.1875 24.6875 C 7.3217016 24.834433 7.496282 24.985163 7.59375 25.15625 C 7.6447767 24.863439 7.7433324 24.556303 7.65625 24.28125 C 7.581969 24.046724 7.353422 23.869163 7.1875 23.6875 C 6.888821 23.360691 6.491412 23.130057 6.21875 22.78125 C 5.9164348 22.394519 5.5655153 22.014064 5.375 21.5625 z M 13.34375 21.6875 C 13.217931 22.036764 12.7919 22.237506 12.6875 22.59375 C 12.605657 22.872833 12.704174 23.174539 12.75 23.46875 C 12.904573 23.19391 13.235352 22.988404 13.34375 22.6875 C 13.446285 22.402575 13.553675 22.045854 13.40625 21.78125 C 13.386317 21.745448 13.366943 21.719769 13.34375 21.6875 z M 21.65625 21.78125 C 21.635179 22.039644 21.50253 22.31006 21.5625 22.5625 C 21.590172 22.679171 21.667556 22.778208 21.75 22.875 C 21.848787 22.697593 22.03807 22.541863 22.03125 22.34375 C 22.024011 22.119041 21.791158 21.970517 21.65625 21.78125 z M 26.6875 23.59375 C 26.669016 23.609807 26.642754 23.609475 26.625 23.625 C 26.435526 23.79059 26.175272 23.8877 25.96875 24.03125 C 25.741888 24.188989 25.327 24.255357 25.3125 24.53125 C 25.298645 24.781472 25.795635 24.847169 25.875 25.0625 C 25.902252 25.047183 25.944815 25.047892 25.96875 25.03125 C 26.175272 24.8877 26.435526 24.79059 26.625 24.625 C 26.728986 24.53407 26.846974 24.447868 26.875 24.3125 C 26.92492 24.071593 26.720021 23.837599 26.6875 23.59375 z M 12.71875 24.15625 C 12.663657 24.430503 12.577956 24.701062 12.375 24.875 C 12.156402 25.062897 11.761241 24.889328 11.53125 25.0625 C 11.353832 25.196107 11.23325 25.434545 11.21875 25.65625 C 11.211292 25.772209 11.34185 25.852542 11.34375 25.96875 C 11.345588 26.084565 11.328393 26.192826 11.3125 26.3125 C 11.369425 26.211267 11.442541 26.129303 11.53125 26.0625 C 11.761241 25.889328 12.156402 26.062897 12.375 25.875 C 12.639687 25.648158 12.692642 25.250086 12.75 24.90625 C 12.790214 24.665023 12.760696 24.40306 12.71875 24.15625 z M 21.625 24.4375 C 21.586319 24.76196 21.573751 25.086443 21.625 25.40625 C 21.730642 26.067098 22.182428 26.631732 22.34375 27.28125 C 22.380909 27.430819 22.418844 27.596727 22.4375 27.75 C 22.422771 27.627579 22.47652 27.441757 22.46875 27.3125 C 22.447208 26.965246 22.42764 26.618913 22.34375 26.28125 C 22.1848 25.641284 21.738793 25.085944 21.625 24.4375 z M 25.3125 25.5625 C 25.22143 25.615728 25.153129 25.689931 25.125 25.78125 C 25.078806 25.931367 25.28293 26.06505 25.25 26.21875 C 25.137852 26.742863 24.704706 27.242674 24.21875 27.46875 C 24.003549 27.5688 23.728748 27.40537 23.5 27.46875 C 23.257498 27.535927 23.117501 27.77663 22.875 27.84375 C 22.750237 27.87834 22.56031 27.93531 22.46875 27.84375 C 22.456549 27.831543 22.44501 27.826582 22.4375 27.8125 C 22.456687 27.985814 22.457979 28.138873 22.46875 28.3125 C 22.47911 28.484842 22.346744 28.72168 22.46875 28.84375 C 22.56031 28.93531 22.750237 28.87834 22.875 28.84375 C 23.117501 28.77663 23.257498 28.535927 23.5 28.46875 C 23.728748 28.40537 24.003549 28.5688 24.21875 28.46875 C 24.704706 28.242674 25.137852 27.742863 25.25 27.21875 C 25.28293 27.06505 25.078806 26.931367 25.125 26.78125 C 25.22422 26.459143 25.890984 26.46171 25.90625 26.125 C 25.918214 25.860928 25.341341 25.809744 25.3125 25.5625 z M 7.65625 25.78125 C 7.6141099 26.071804 7.5393389 26.372898 7.59375 26.65625 C 7.6223858 26.805612 7.7006686 26.929328 7.78125 27.0625 C 7.8615411 26.827481 7.9309 26.5859 7.90625 26.34375 C 7.8847069 26.132333 7.7445391 25.975438 7.65625 25.78125 z M 11.21875 26.6875 C 11.135995 26.958868 11.011866 27.222687 10.8125 27.40625 C 10.63152 27.572796 10.268786 27.420786 10.09375 27.59375 C 9.982926 27.704158 10.0485 27.895779 9.96875 28.03125 C 9.860435 28.215359 9.56542 28.289149 9.53125 28.5 C 9.515714 28.595286 9.67842 28.65616 9.65625 28.75 C 9.631455 28.854816 9.38429 28.831858 9.40625 28.9375 C 8.8444332 28.653564 8.3233423 28.349902 7.8125 28 C 7.7280193 28.257702 7.6235056 28.516111 7.59375 28.78125 C 7.59165 28.80279 7.61467 28.83878 7.59375 28.84375 C 8.177834 29.257731 8.762648 29.612231 9.40625 29.9375 C 9.38429 29.831858 9.631455 29.854816 9.65625 29.75 C 9.67842 29.65616 9.515714 29.595286 9.53125 29.5 C 9.56542 29.289149 9.860435 29.215359 9.96875 29.03125 C 10.0485 28.895779 9.982926 28.704158 10.09375 28.59375 C 10.268786 28.420786 10.63152 28.572796 10.8125 28.40625 C 11.184094 28.064112 11.351766 27.473806 11.34375 26.96875 C 11.342014 26.86256 11.232511 26.789942 11.21875 26.6875 z "
       id="path3856" />
  </g>
  <g
     inkscape:groupmode="layer"
     id="layer2"
     inkscape:label="Symbol" />
</svg>
