<?xml version="1.0" encoding="UTF-8" standalone="no"?>
<svg
   xmlns:dc="http://purl.org/dc/elements/1.1/"
   xmlns:cc="http://creativecommons.org/ns#"
   xmlns:rdf="http://www.w3.org/1999/02/22-rdf-syntax-ns#"
   xmlns:svg="http://www.w3.org/2000/svg"
   xmlns="http://www.w3.org/2000/svg"
   xmlns:xlink="http://www.w3.org/1999/xlink"
   id="svg4103"
   height="32"
   width="32"
   version="1.1">
  <defs
     id="defs4105">
    <linearGradient
       id="outerBackgroundGradient-1">
      <stop
         id="stop3864-8-6-43"
         offset="0"
         style="stop-color:#32369a;stop-opacity:1;" />
      <stop
         id="stop3866-9-1-4"
         offset="1"
         style="stop-color:#3c41be;stop-opacity:1;" />
    </linearGradient>
    <linearGradient
       id="linearGradient26113-9-3-1">
      <stop
         id="stop26115-7-7-9"
         offset="0"
         style="stop-color: rgb(0, 0, 0); stop-opacity: 1;" />
      <stop
         id="stop26117-3-7-8"
         offset="1"
         style="stop-color: rgb(0, 0, 0); stop-opacity: 0;" />
    </linearGradient>
    <linearGradient
       id="linearGradient26121-3-8-2">
      <stop
         id="stop26123-4-7-8"
         offset="0"
         style="stop-color: rgb(0, 0, 0); stop-opacity: 1;" />
      <stop
         id="stop26125-3-9-9"
         offset="1"
         style="stop-color: rgb(0, 0, 0); stop-opacity: 0;" />
    </linearGradient>
    <radialGradient
       r="20.203051"
       fy="38.908627"
       fx="24.849752"
       cy="38.908627"
       cx="24.849752"
       gradientTransform="matrix(1.00851,0,0,0.373148,-0.211403,24.39)"
       gradientUnits="userSpaceOnUse"
       id="radialGradient3959"
       xlink:href="#linearGradient26121-3-8-2" />
    <radialGradient
       r="20.203051"
       fy="38.908627"
       fx="24.849752"
       cy="38.908627"
       cx="24.849752"
       gradientTransform="matrix(1,0,0,0.37,0,24.5124)"
       gradientUnits="userSpaceOnUse"
       id="radialGradient3961"
       xlink:href="#linearGradient26113-9-3-1" />
    <linearGradient
       id="linearGradient3852">
      <stop
         style="stop-color:#212466;stop-opacity:1;"
         offset="0"
         id="stop3854" />
      <stop
         style="stop-color:#1a1e82;stop-opacity:1;"
         offset="1"
         id="stop3856" />
    </linearGradient>
    <linearGradient
       gradientUnits="userSpaceOnUse"
       y2="2"
       x2="15"
       y1="32"
       x1="15"
       id="linearGradient3861"
       xlink:href="#outerBackgroundGradient-1" />
    <linearGradient
       gradientUnits="userSpaceOnUse"
       y2="2"
       x2="20"
       y1="32"
       x1="20"
       id="linearGradient3871"
       xlink:href="#linearGradient3852" />
  </defs>
  <metadata
     id="metadata4108">
    <rdf:RDF>
      <cc:Work
         rdf:about="">
        <dc:format>image/svg+xml</dc:format>
        <dc:type
           rdf:resource="http://purl.org/dc/dcmitype/StillImage" />
        <dc:title />
      </cc:Work>
    </rdf:RDF>
  </metadata>
  <g
     id="layer1">
    <g
       transform="matrix(0.8,0,0,1,-139.2,-114.20852)"
       id="g3948">
      <path
         style="fill:url(#radialGradient3959);fill-opacity:1;stroke:none;display:inline;filter:url(#filter5927);enable-background:new"
         id="path8606"
         d="m 45.052803,38.908627 c 0,4.128399 -9.045214,7.475128 -20.203051,7.475128 -11.157836,0 -20.2030502,-3.346729 -20.2030502,-7.475128 0,-4.1284 9.0452142,-7.475129 20.2030502,-7.475129 11.157837,0 20.203051,3.346729 20.203051,7.475129 z"
         transform="matrix(0.51081599,0,0,0.46595786,181.30605,124.23221)" />
      <path
         transform="matrix(0.69053217,0,0,0.62989172,176.84045,117.49178)"
         d="m 45.052803,38.908627 c 0,4.128399 -9.045214,7.475128 -20.203051,7.475128 -11.157836,0 -20.2030502,-3.346729 -20.2030502,-7.475128 0,-4.1284 9.0452142,-7.475129 20.2030502,-7.475129 11.157837,0 20.203051,3.346729 20.203051,7.475129 z"
         id="path8608"
         style="opacity:0.51836697;fill:url(#radialGradient3961);fill-opacity:1;stroke:none;display:inline;filter:url(#filter5788);enable-background:new" />
    </g>
    <path
       id="rect5886"
       d="M 16 1.53125 C 10.784615 1.53125 6.5 6.1184307 6.5 12.03125 L 6.5 20.03125 C 6.5 25.944069 10.784615 30.53125 16 30.53125 C 21.215385 30.53125 25.5 25.944069 25.5 20.03125 L 25.5 12.03125 C 25.5 6.1184307 21.215385 1.53125 16 1.53125 z "
       style="fill:url(#linearGradient3861);fill-opacity:1;stroke:none" />
    <path
       id="path3875"
       d="M 16 1.53125 C 10.784615 1.53125 6.5 6.1184307 6.5 12.03125 L 6.5 20.03125 C 6.5 25.944069 10.784615 30.53125 16 30.53125 C 21.215385 30.53125 25.5 25.944069 25.5 20.03125 L 25.5 12.03125 C 25.5 6.1184307 21.215385 1.53125 16 1.53125 z "
       style="fill:none;fill-opacity:1;stroke:url(#linearGradient3871);stroke-opacity:1;opacity:0.8" />
    <path
       id="path3877"
       d="M 16 2.03125 C 11.077798 2.03125 7 6.3599745 7 12.03125 L 7 13.03125 C 7 7.3599745 11.077798 3.03125 16 3.03125 C 20.922202 3.03125 25 7.3599745 25 13.03125 L 25 12.03125 C 25 6.3599745 20.922202 2.03125 16 2.03125 z "
       style="fill:#ffffff;fill-opacity:1;stroke:none;opacity:0.2" />
    <path
       style="opacity:0.05;fill:#ffffff;fill-opacity:1;stroke:none"
       d="m 16,30.03125 c -4.922202,0 -9,-4.328724 -9,-10 l 0,-1 c 0,5.671275 4.077798,10 9,10 4.922202,0 9,-4.328725 9,-10 l 0,1 c 0,5.671276 -4.077798,10 -9,10 z"
       id="path3894" />
  </g>
  <g
     id="layer2">
    <path
       style="color:#bebebe;fill:#000000;fill-opacity:1;stroke-width:2;opacity:0.29999999999999999"
       d="m 15,6 c 0,0 0,7.575749 0,7.625 L 12.21875,11.15625 C 12.142916,11.088645 12.065109,11.032119 11.96875,11 L 11.5,11 11,11 l 0,0.53125 c -0.01067,0.0724 -0.01067,0.146355 0,0.21875 0.0067,0.216211 0.112312,0.427399 0.28125,0.5625 l 3.03125,2.65625 -3.03125,2.6875 C 11.157621,17.728974 11.06196,17.84016 11,17.96875 l 0,0.6875 0,0.34375 0.46875,0 0.40625,0 c 0.131229,-0.03281 0.248128,-0.0917 0.34375,-0.1875 L 15,16.34375 l 0,3.28125 0,3.34375 0,0.71875 0,0.3125 0.34375,0 0.5625,0 c 0.135171,-0.04603 0.255638,-0.106001 0.34375,-0.21875 l 4.5,-4.25 c 0.310367,-0.289218 0.29467,-0.853429 -0.03125,-1.125 l -4.03125,-3.4375 4.03125,-3.40625 c 0.325921,-0.271571 0.341618,-0.835782 0.03125,-1.125 l -4.5,-4.25 C 16.149255,6.0871494 16.013723,6.0307972 15.875,6 L 15.5625,6 z M 16,7.96875 19.125,10.9375 16,13.625 z m 0,8.375 3.125,2.6875 L 16,22 z"
       id="path3881" />
    <path
       id="rect8730"
       d="m 15,7 c 0,0 0,7.575749 0,7.625 L 12.21875,12.15625 C 12.142916,12.088645 12.065109,12.032119 11.96875,12 L 11.5,12 11,12 l 0,0.53125 c -0.01067,0.0724 -0.01067,0.146355 0,0.21875 0.0067,0.216211 0.112312,0.427399 0.28125,0.5625 l 3.03125,2.65625 -3.03125,2.6875 C 11.157621,18.728974 11.06196,18.84016 11,18.96875 l 0,0.6875 0,0.34375 0.46875,0 0.40625,0 c 0.131229,-0.03281 0.248128,-0.0917 0.34375,-0.1875 L 15,17.34375 l 0,3.28125 0,3.34375 0,0.71875 0,0.3125 0.34375,0 0.5625,0 c 0.135171,-0.04603 0.255638,-0.106001 0.34375,-0.21875 l 4.5,-4.25 c 0.310367,-0.289218 0.29467,-0.853429 -0.03125,-1.125 l -4.03125,-3.4375 4.03125,-3.40625 c 0.325921,-0.271571 0.341618,-0.835782 0.03125,-1.125 l -4.5,-4.25 C 16.149255,7.0871494 16.013723,7.0307972 15.875,7 L 15.5625,7 z M 16,8.96875 19.125,11.9375 16,14.625 z m 0,8.375 3.125,2.6875 L 16,23 z"
       style="color:#bebebe;fill:#ffffff;stroke-width:2" />
  </g>
</svg>
