<?xml version="1.0" encoding="UTF-8" standalone="no"?>
<!-- Created with Inkscape (http://www.inkscape.org/) -->

<svg
   xmlns:dc="http://purl.org/dc/elements/1.1/"
   xmlns:cc="http://creativecommons.org/ns#"
   xmlns:rdf="http://www.w3.org/1999/02/22-rdf-syntax-ns#"
   xmlns:svg="http://www.w3.org/2000/svg"
   xmlns="http://www.w3.org/2000/svg"
   xmlns:xlink="http://www.w3.org/1999/xlink"
   xmlns:sodipodi="http://sodipodi.sourceforge.net/DTD/sodipodi-0.dtd"
   xmlns:inkscape="http://www.inkscape.org/namespaces/inkscape"
   version="1.1"
   width="32"
   height="32"
   id="svg4103"
   inkscape:version="0.48.4 r9939"
   sodipodi:docname="bluetooth.svg">
  <sodipodi:namedview
     pagecolor="#ffffff"
     bordercolor="#666666"
     borderopacity="1"
     objecttolerance="10"
     gridtolerance="10"
     guidetolerance="10"
     inkscape:pageopacity="0"
     inkscape:pageshadow="2"
     inkscape:window-width="1364"
     inkscape:window-height="700"
     id="namedview35"
     showgrid="false"
     inkscape:zoom="1"
     inkscape:cx="16.463581"
     inkscape:cy="-2.1749568"
     inkscape:window-x="0"
     inkscape:window-y="28"
     inkscape:window-maximized="1"
     inkscape:current-layer="layer1">
    <inkscape:grid
       type="xygrid"
       id="grid3854" />
  </sodipodi:namedview>
  <defs
     id="defs4105">
    <linearGradient
       x1="-21.666521"
       y1="29.19919"
       x2="-21.666521"
       y2="-5.7992778"
       id="linearGradient3054-2"
       xlink:href="#linearGradient3707-319-631-407-324-3-8-9-5-7-5-1"
       gradientUnits="userSpaceOnUse"
       gradientTransform="matrix(0.66665918,0,0,0.66669583,22.712231,0.1996879)" />
    <linearGradient
       id="linearGradient3707-319-631-407-324-3-8-9-5-7-5-1">
      <stop
         id="stop3760-7-3-2-1-3-9-1"
         style="stop-color:#185f9a;stop-opacity:1"
         offset="0" />
      <stop
         id="stop3762-8-4-4-7-5-5-8"
         style="stop-color:#599ec9;stop-opacity:1"
         offset="1" />
    </linearGradient>
    <linearGradient
       x1="71.204407"
       y1="6.2375584"
       x2="71.204407"
       y2="44.340794"
       id="linearGradient3050"
       xlink:href="#linearGradient4010"
       gradientUnits="userSpaceOnUse"
       gradientTransform="matrix(0.64224154,0,0,0.73432599,-29.943595,-2.6858196)" />
    <linearGradient
       id="linearGradient4010">
      <stop
         id="stop4012"
         style="stop-color:#ffffff;stop-opacity:1"
         offset="0" />
      <stop
         id="stop4014"
         style="stop-color:#ffffff;stop-opacity:0.23529412"
         offset="0.32362887" />
      <stop
         id="stop4016"
         style="stop-color:#ffffff;stop-opacity:0.15686275"
         offset="0.76134068" />
      <stop
         id="stop4018"
         style="stop-color:#ffffff;stop-opacity:0.39215687"
         offset="1" />
    </linearGradient>
    <radialGradient
       cx="3.9722471"
       cy="8.4497671"
       r="19.99999"
       fx="3.9722471"
       fy="8.4497671"
       id="radialGradient3057"
       xlink:href="#linearGradient2867-449-88-871-390-598-476-591-434-148-57-177-3-8-3"
       gradientUnits="userSpaceOnUse"
       gradientTransform="matrix(0,1.7715455,-1.6761799,-4.8218737e-8,30.163407,-9.650088)" />
    <linearGradient
       id="linearGradient2867-449-88-871-390-598-476-591-434-148-57-177-3-8-3">
      <stop
         id="stop3750-8-9-1"
         style="stop-color:#90dbec;stop-opacity:1"
         offset="0" />
      <stop
         id="stop3752-3-2-8"
         style="stop-color:#42baea;stop-opacity:1"
         offset="0.26238" />
      <stop
         id="stop3754-7-2-1"
         style="stop-color:#3689e6;stop-opacity:1"
         offset="0.704952" />
      <stop
         id="stop3756-9-3-3"
         style="stop-color:#2b63a0;stop-opacity:1"
         offset="1" />
    </linearGradient>
    <radialGradient
       cx="27"
       cy="45.047001"
       r="17.625"
       id="radialGradient3904"
       gradientUnits="userSpaceOnUse"
       gradientTransform="matrix(0.91545,0,6.5816e-6,0.20922,-0.71745,35.213)">
      <stop
         id="stop8694"
         style="stop-color:#000000;stop-opacity:1"
         offset="0" />
      <stop
         id="stop8696"
         style="stop-color:#000000;stop-opacity:0"
         offset="1" />
    </radialGradient>
    <radialGradient
       cx="27"
       cy="45.047001"
       r="17.625"
       id="radialGradient4099"
       xlink:href="#radialGradient3904"
       gradientUnits="userSpaceOnUse"
       gradientTransform="matrix(0.50858335,0,3.6564445e-6,0.17021288,2.2680833,21.394403)" />
    <linearGradient
       x1="-21.666521"
       y1="29.19919"
       x2="-21.666521"
       y2="-5.7992778"
       id="linearGradient4101"
       xlink:href="#linearGradient3707-319-631-407-324-3-8-9-5-7-5-1"
       gradientUnits="userSpaceOnUse"
       gradientTransform="matrix(0.66665918,0,0,0.66669583,22.712231,0.1996879)" />
    <linearGradient
       inkscape:collect="always"
       xlink:href="#linearGradient4010"
       id="linearGradient3018"
       gradientUnits="userSpaceOnUse"
       gradientTransform="matrix(0.64224154,0,0,0.73432599,-29.943595,-2.6858196)"
       x1="71.204407"
       y1="6.2375584"
       x2="71.204407"
       y2="44.340794" />
    <linearGradient
       inkscape:collect="always"
       xlink:href="#outerBackgroundGradient-1"
       id="linearGradient5576"
       gradientUnits="userSpaceOnUse"
       gradientTransform="matrix(0,-1,1,0,-12,300)"
       x1="35"
       y1="156"
       x2="253"
       y2="156" />
    <linearGradient
       id="outerBackgroundGradient-1">
      <stop
         style="stop-color:#32369a;stop-opacity:1;"
         offset="0"
         id="stop3864-8-6-43" />
      <stop
         style="stop-color:#3c41be;stop-opacity:1;"
         offset="1"
         id="stop3866-9-1-4" />
    </linearGradient>
    <radialGradient
       inkscape:collect="always"
       xlink:href="#outerBackgroundGradient-1"
       id="radialGradient3843"
       gradientUnits="userSpaceOnUse"
       gradientTransform="matrix(0,1.7715455,-1.6761799,-4.8218737e-8,30.163407,-41.650091)"
       cx="3.9722471"
       cy="8.4497671"
       fx="3.9722471"
       fy="8.4497671"
       r="19.99999" />
    <radialGradient
       inkscape:collect="always"
       xlink:href="#linearGradient26113-9-3-1"
       id="radialGradient3755"
       gradientUnits="userSpaceOnUse"
       gradientTransform="matrix(1,0,0,0.37,0,24.5124)"
       cx="24.849752"
       cy="38.908627"
       fx="24.849752"
       fy="38.908627"
       r="20.203051" />
    <linearGradient
       inkscape:collect="always"
       id="linearGradient26113-9-3-1">
      <stop
         style="stop-color: rgb(0, 0, 0); stop-opacity: 1;"
         offset="0"
         id="stop26115-7-7-9" />
      <stop
         style="stop-color: rgb(0, 0, 0); stop-opacity: 0;"
         offset="1"
         id="stop26117-3-7-8" />
    </linearGradient>
    <radialGradient
       r="20.203051"
       fy="38.908627"
       fx="24.849752"
       cy="38.908627"
       cx="24.849752"
       gradientTransform="matrix(1.00851,0,0,0.373148,-0.211403,24.39)"
       gradientUnits="userSpaceOnUse"
       id="radialGradient3972"
       xlink:href="#linearGradient26121-3-8-2"
       inkscape:collect="always" />
    <linearGradient
       inkscape:collect="always"
       id="linearGradient26121-3-8-2">
      <stop
         style="stop-color: rgb(0, 0, 0); stop-opacity: 1;"
         offset="0"
         id="stop26123-4-7-8" />
      <stop
         style="stop-color: rgb(0, 0, 0); stop-opacity: 0;"
         offset="1"
         id="stop26125-3-9-9" />
    </linearGradient>
    <radialGradient
       r="20.203051"
       fy="38.908627"
       fx="24.849752"
       cy="38.908627"
       cx="24.849752"
       gradientTransform="matrix(1.00851,0,0,0.373148,-0.211403,24.39)"
       gradientUnits="userSpaceOnUse"
       id="radialGradient3988"
       xlink:href="#linearGradient26121-3-8-2"
       inkscape:collect="always" />
    <radialGradient
       inkscape:collect="always"
       xlink:href="#linearGradient26121-3-8-2"
       id="radialGradient3952"
       gradientUnits="userSpaceOnUse"
       gradientTransform="matrix(1.00851,0,0,0.373148,-0.211403,24.39)"
       cx="24.849752"
       cy="38.908627"
       fx="24.849752"
       fy="38.908627"
       r="20.203051" />
    <radialGradient
       inkscape:collect="always"
       xlink:href="#linearGradient26113-9-3-1"
       id="radialGradient3954"
       gradientUnits="userSpaceOnUse"
       gradientTransform="matrix(1,0,0,0.37,0,24.5124)"
       cx="24.849752"
       cy="38.908627"
       fx="24.849752"
       fy="38.908627"
       r="20.203051" />
    <radialGradient
       inkscape:collect="always"
       xlink:href="#linearGradient26121-3-8-2"
       id="radialGradient3959"
       gradientUnits="userSpaceOnUse"
       gradientTransform="matrix(1.00851,0,0,0.373148,-0.211403,24.39)"
       cx="24.849752"
       cy="38.908627"
       fx="24.849752"
       fy="38.908627"
       r="20.203051" />
    <radialGradient
       inkscape:collect="always"
       xlink:href="#linearGradient26113-9-3-1"
       id="radialGradient3961"
       gradientUnits="userSpaceOnUse"
       gradientTransform="matrix(1,0,0,0.37,0,24.5124)"
       cx="24.849752"
       cy="38.908627"
       fx="24.849752"
       fy="38.908627"
       r="20.203051" />
  </defs>
  <metadata
     id="metadata4108">
    <rdf:RDF>
      <cc:Work
         rdf:about="">
        <dc:format>image/svg+xml</dc:format>
        <dc:type
           rdf:resource="http://purl.org/dc/dcmitype/StillImage" />
        <dc:title />
      </cc:Work>
    </rdf:RDF>
  </metadata>
  <g
     inkscape:groupmode="layer"
     id="layer1"
     inkscape:label="Background">
    <g
       id="g3948"
       transform="matrix(0.8,0,0,1,-139.2,-114.20852)">
      <path
         transform="matrix(0.51081599,0,0,0.46595786,181.30605,124.23221)"
         d="m 45.052803,38.908627 c 0,4.128399 -9.045214,7.475128 -20.203051,7.475128 -11.157836,0 -20.2030502,-3.346729 -20.2030502,-7.475128 0,-4.1284 9.0452142,-7.475129 20.2030502,-7.475129 11.157837,0 20.203051,3.346729 20.203051,7.475129 z"
         sodipodi:ry="7.4751287"
         sodipodi:rx="20.203051"
         sodipodi:cy="38.908627"
         sodipodi:cx="24.849752"
         id="path8606"
         style="fill:url(#radialGradient3959);fill-opacity:1;stroke:none;display:inline;filter:url(#filter5927);enable-background:new"
         sodipodi:type="arc" />
      <path
         sodipodi:type="arc"
         style="opacity:0.51836697;fill:url(#radialGradient3961);fill-opacity:1;stroke:none;display:inline;filter:url(#filter5788);enable-background:new"
         id="path8608"
         sodipodi:cx="24.849752"
         sodipodi:cy="38.908627"
         sodipodi:rx="20.203051"
         sodipodi:ry="7.4751287"
         d="m 45.052803,38.908627 c 0,4.128399 -9.045214,7.475128 -20.203051,7.475128 -11.157836,0 -20.2030502,-3.346729 -20.2030502,-7.475128 0,-4.1284 9.0452142,-7.475129 20.2030502,-7.475129 11.157837,0 20.203051,3.346729 20.203051,7.475129 z"
         transform="matrix(0.69053217,0,0,0.62989172,176.84045,117.49178)" />
    </g>
    <rect
       style="color:#000000;fill:url(#radialGradient3843);fill-opacity:1;fill-rule:nonzero;stroke:none;stroke-width:0.95313144000000005;marker:none;visibility:visible;display:inline;overflow:visible;enable-background:accumulate"
       id="rect3363"
       y="-30.523436"
       x="6.4765658"
       ry="9.5234346"
       rx="9.5234346"
       height="29.046869"
       width="19.046869"
       transform="scale(1,-1)" />
    <rect
       style="opacity:0.50000000000000000;color:#000000;fill:none;stroke:url(#linearGradient3018);stroke-width:0.94825125000000021;stroke-linecap:round;stroke-linejoin:round;stroke-miterlimit:4;stroke-opacity:1;stroke-dasharray:none;stroke-dashoffset:0;marker:none;visibility:visible;display:inline;overflow:visible;enable-background:accumulate"
       id="rect3365"
       y="2.4741254"
       x="7.4741259"
       ry="8.5258741"
       rx="8.5258741"
       height="27.051748"
       width="17.051748" />
    <rect
       style="opacity:0.29999999999999999;color:#000000;fill:none;stroke:#000000;stroke-width:0.95313144000000005;stroke-linecap:round;stroke-linejoin:round;stroke-miterlimit:4;stroke-opacity:1;stroke-dasharray:none;stroke-dashoffset:0;marker:none;visibility:visible;display:inline;overflow:visible;enable-background:accumulate"
       id="rect3363-5"
       y="1.4765667"
       x="6.4765658"
       ry="9.5234346"
       rx="9.5234346"
       height="29.046869"
       width="19.046869" />
  </g>
  <g
     inkscape:groupmode="layer"
     id="layer2"
     inkscape:label="Symbol">
    <path
       sodipodi:nodetypes="cccccccccccccccccccccccccccccccccccccccccc"
       inkscape:connector-curvature="0"
       id="path3881"
       d="m 15,6 c 0,0 0,7.575749 0,7.625 L 12.21875,11.15625 C 12.142916,11.088645 12.065109,11.032119 11.96875,11 L 11.5,11 11,11 l 0,0.53125 c -0.01067,0.0724 -0.01067,0.146355 0,0.21875 0.0067,0.216211 0.112312,0.427399 0.28125,0.5625 l 3.03125,2.65625 -3.03125,2.6875 C 11.157621,17.728974 11.06196,17.84016 11,17.96875 l 0,0.6875 0,0.34375 0.46875,0 0.40625,0 c 0.131229,-0.03281 0.248128,-0.0917 0.34375,-0.1875 L 15,16.34375 l 0,3.28125 0,3.34375 0,0.71875 0,0.3125 0.34375,0 0.5625,0 c 0.135171,-0.04603 0.255638,-0.106001 0.34375,-0.21875 l 4.5,-4.25 c 0.310367,-0.289218 0.29467,-0.853429 -0.03125,-1.125 l -4.03125,-3.4375 4.03125,-3.40625 c 0.325921,-0.271571 0.341618,-0.835782 0.03125,-1.125 l -4.5,-4.25 C 16.149255,6.0871494 16.013723,6.0307972 15.875,6 L 15.5625,6 z M 16,7.96875 19.125,10.9375 16,13.625 z m 0,8.375 3.125,2.6875 L 16,22 z"
       style="color:#bebebe;fill:#000000;fill-opacity:1;stroke-width:2;opacity:0.29999999999999999" />
    <path
       style="color:#bebebe;fill:#ffffff;stroke-width:2"
       d="m 15,7 c 0,0 0,7.575749 0,7.625 L 12.21875,12.15625 C 12.142916,12.088645 12.065109,12.032119 11.96875,12 L 11.5,12 11,12 l 0,0.53125 c -0.01067,0.0724 -0.01067,0.146355 0,0.21875 0.0067,0.216211 0.112312,0.427399 0.28125,0.5625 l 3.03125,2.65625 -3.03125,2.6875 C 11.157621,18.728974 11.06196,18.84016 11,18.96875 l 0,0.6875 0,0.34375 0.46875,0 0.40625,0 c 0.131229,-0.03281 0.248128,-0.0917 0.34375,-0.1875 L 15,17.34375 l 0,3.28125 0,3.34375 0,0.71875 0,0.3125 0.34375,0 0.5625,0 c 0.135171,-0.04603 0.255638,-0.106001 0.34375,-0.21875 l 4.5,-4.25 c 0.310367,-0.289218 0.29467,-0.853429 -0.03125,-1.125 l -4.03125,-3.4375 4.03125,-3.40625 c 0.325921,-0.271571 0.341618,-0.835782 0.03125,-1.125 l -4.5,-4.25 C 16.149255,7.0871494 16.013723,7.0307972 15.875,7 L 15.5625,7 z M 16,8.96875 19.125,11.9375 16,14.625 z m 0,8.375 3.125,2.6875 L 16,23 z"
       id="rect8730"
       inkscape:connector-curvature="0"
       sodipodi:nodetypes="cccccccccccccccccccccccccccccccccccccccccc" />
  </g>
</svg>
