<?xml version="1.0" encoding="UTF-8" standalone="no"?>
<!-- Created with Inkscape (http://www.inkscape.org/) -->

<svg
   xmlns:dc="http://purl.org/dc/elements/1.1/"
   xmlns:cc="http://creativecommons.org/ns#"
   xmlns:rdf="http://www.w3.org/1999/02/22-rdf-syntax-ns#"
   xmlns:svg="http://www.w3.org/2000/svg"
   xmlns="http://www.w3.org/2000/svg"
   xmlns:xlink="http://www.w3.org/1999/xlink"
   xmlns:sodipodi="http://sodipodi.sourceforge.net/DTD/sodipodi-0.dtd"
   xmlns:inkscape="http://www.inkscape.org/namespaces/inkscape"
   version="1.1"
   width="32"
   height="32"
   id="svg4248"
   inkscape:version="0.48.4 r9939"
   sodipodi:docname="preferences-system-time.svg">
  <sodipodi:namedview
     pagecolor="#ffffff"
     bordercolor="#666666"
     borderopacity="1"
     objecttolerance="10"
     gridtolerance="10"
     guidetolerance="10"
     inkscape:pageopacity="0"
     inkscape:pageshadow="2"
     inkscape:window-width="1364"
     inkscape:window-height="700"
     id="namedview46"
     showgrid="false"
     inkscape:zoom="1"
     inkscape:cx="17.230547"
     inkscape:cy="12.898783"
     inkscape:window-x="0"
     inkscape:window-y="28"
     inkscape:window-maximized="1"
     inkscape:current-layer="layer1"
     inkscape:snap-bbox="true"
     inkscape:bbox-paths="true"
     inkscape:snap-bbox-midpoints="true">
    <inkscape:grid
       type="xygrid"
       id="grid3847"
       empspacing="4"
       visible="true"
       enabled="true"
       snapvisiblegridlinesonly="true" />
  </sodipodi:namedview>
  <defs
     id="defs4250">
    <linearGradient
       id="linearGradient3904">
      <stop
         id="stop3906"
         offset="0"
         style="stop-color:#858585;stop-opacity:1;" />
      <stop
         id="stop3908"
         offset="1"
         style="stop-color:#8e8e8e;stop-opacity:1;" />
    </linearGradient>
    <linearGradient
       inkscape:collect="always"
       id="linearGradient3812">
      <stop
         style="stop-color:#ffffff;stop-opacity:1;"
         offset="0"
         id="stop3814" />
      <stop
         style="stop-color:#ffffff;stop-opacity:0;"
         offset="1"
         id="stop3816" />
    </linearGradient>
    <radialGradient
       inkscape:collect="always"
       xlink:href="#linearGradient3901"
       id="radialGradient3805"
       gradientUnits="userSpaceOnUse"
       gradientTransform="matrix(4.5367027e-8,-1.7632481,-1.8653063,0,31.761486,43.251051)"
       cx="6.1596723"
       cy="8.4497671"
       fx="6.1596723"
       fy="8.4497671"
       r="19.99999" />
    <linearGradient
       inkscape:collect="always"
       xlink:href="#linearGradient3812"
       id="linearGradient3818"
       x1="2"
       y1="16.000001"
       x2="30"
       y2="16.000001"
       gradientUnits="userSpaceOnUse"
       gradientTransform="matrix(0,1,-1,0,32.000001,8.5e-7)" />
    <radialGradient
       inkscape:collect="always"
       xlink:href="#linearGradient26113-9-3-1"
       id="radialGradient3755"
       gradientUnits="userSpaceOnUse"
       gradientTransform="matrix(1,0,0,0.37,0,24.5124)"
       cx="24.849752"
       cy="38.908627"
       fx="24.849752"
       fy="38.908627"
       r="20.203051" />
    <linearGradient
       inkscape:collect="always"
       id="linearGradient26113-9-3-1">
      <stop
         style="stop-color: rgb(0, 0, 0); stop-opacity: 1;"
         offset="0"
         id="stop26115-7-7-9" />
      <stop
         style="stop-color: rgb(0, 0, 0); stop-opacity: 0;"
         offset="1"
         id="stop26117-3-7-8" />
    </linearGradient>
    <linearGradient
       inkscape:collect="always"
       id="linearGradient26121-3-8-2">
      <stop
         style="stop-color: rgb(0, 0, 0); stop-opacity: 1;"
         offset="0"
         id="stop26123-4-7-8" />
      <stop
         style="stop-color: rgb(0, 0, 0); stop-opacity: 0;"
         offset="1"
         id="stop26125-3-9-9" />
    </linearGradient>
    <radialGradient
       r="20.203051"
       fy="38.908627"
       fx="24.849752"
       cy="38.908627"
       cx="24.849752"
       gradientTransform="matrix(1.00851,0,0,0.373148,-0.211403,24.39)"
       gradientUnits="userSpaceOnUse"
       id="radialGradient3972"
       xlink:href="#linearGradient26121-3-8-2"
       inkscape:collect="always" />
    <linearGradient
       inkscape:collect="always"
       xlink:href="#linearGradient3904"
       id="linearGradient3902"
       x1="1"
       y1="15.999999"
       x2="31"
       y2="15.999999"
       gradientUnits="userSpaceOnUse"
       gradientTransform="matrix(0,-1,1,0,5.0000306e-7,32)" />
    <linearGradient
       id="linearGradient3901">
      <stop
         style="stop-color:#d2d2d2;stop-opacity:1;"
         offset="0"
         id="stop3903" />
      <stop
         style="stop-color:#ffffff;stop-opacity:1;"
         offset="1"
         id="stop3905" />
    </linearGradient>
  </defs>
  <metadata
     id="metadata4253">
    <rdf:RDF>
      <cc:Work
         rdf:about="">
        <dc:format>image/svg+xml</dc:format>
        <dc:type
           rdf:resource="http://purl.org/dc/dcmitype/StillImage" />
        <dc:title></dc:title>
      </cc:Work>
    </rdf:RDF>
  </metadata>
  <g
     inkscape:groupmode="layer"
     id="layer1"
     inkscape:label="Background">
    <path
       sodipodi:type="arc"
       style="fill:url(#radialGradient3972);fill-opacity:1;stroke:none;display:inline;filter:url(#filter5927);enable-background:new"
       id="path8606"
       sodipodi:cx="24.849752"
       sodipodi:cy="38.908627"
       sodipodi:rx="20.203051"
       sodipodi:ry="7.4751287"
       d="m 45.052803,38.908627 a 20.203051,7.4751287 0 1 1 -40.4061012,0 20.203051,7.4751287 0 1 1 40.4061012,0 z"
       transform="matrix(0.51081599,0,0,0.46595786,3.1704533,10.023687)" />
    <path
       transform="matrix(0.69053217,0,0,0.62989172,-1.2951468,3.2832567)"
       d="m 45.052803,38.908627 a 20.203051,7.4751287 0 1 1 -40.4061012,0 20.203051,7.4751287 0 1 1 40.4061012,0 z"
       sodipodi:ry="7.4751287"
       sodipodi:rx="20.203051"
       sodipodi:cy="38.908627"
       sodipodi:cx="24.849752"
       id="path8608"
       style="opacity:0.51836697;fill:url(#radialGradient3755);fill-opacity:1;stroke:none;display:inline;filter:url(#filter5788);enable-background:new"
       sodipodi:type="arc" />
    <path
       style="color:#000000;fill:url(#radialGradient3805);fill-opacity:1.0;fill-rule:nonzero;stroke:none;stroke-width:1;marker:none;visibility:visible;display:inline;overflow:visible;enable-background:accumulate"
       id="path2555-7"
       inkscape:connector-curvature="0"
       d="M 16.000001,30.5 C 7.999402,30.5 1.5,24.000601 1.5,16 1.5,7.999399 7.999402,1.499997 16.000001,1.499999 24.000598,1.499999 30.500007,7.999399 30.5,16 c 0,8.000601 -6.499402,14.5 -14.499999,14.5 z" />
    <path
       style="opacity:0.6;color:#000000;fill:none;stroke:url(#linearGradient3818);stroke-width:0.99999994000000003;stroke-linecap:round;stroke-linejoin:round;stroke-miterlimit:4;stroke-opacity:1;stroke-dasharray:none;stroke-dashoffset:0;marker:none;visibility:visible;display:inline;overflow:visible;enable-background:accumulate"
       id="path8655-6"
       inkscape:connector-curvature="0"
       d="m 16.000479,29.500001 c -7.4560841,0 -13.5004782,-6.044601 -13.5004782,-13.499829 0,-7.4559107 6.0444631,-13.5001712 13.5004782,-13.5001712 7.455739,0 13.49952,6.0442605 13.49952,13.5001712 0,7.455228 -6.043781,13.499829 -13.49952,13.499829 l 0,0 z" />
    <path
       d="m 30.500001,15.999999 c 0,8.000599 -6.499399,14.500001 -14.5,14.500001 -8.0006015,0 -14.5000035,-6.499402 -14.5000015,-14.500001 0,-8.0005975 6.4994,-14.5000065 14.5000015,-14.4999995 8.000601,0 14.5,6.499402 14.5,14.4999995 z"
       inkscape:connector-curvature="0"
       id="path3866"
       style="opacity:0.91;color:#000000;fill:none;stroke:url(#linearGradient3902);stroke-width:1;stroke-opacity:1;marker:none;visibility:visible;display:inline;overflow:visible;enable-background:accumulate" />
    <path
       id="path3966"
       d="M 16,4 C 15.717935,4 15.5,4.2179352 15.5,4.5 15.5,4.7820648 15.717935,5 16,5 16.282065,5 16.5,4.7820648 16.5,4.5 16.5,4.2179352 16.282065,4 16,4 z M 4,16 C 3.7179352,16 3.5,16.217935 3.5,16.5 3.5,16.782065 3.7179352,17 4,17 4.2820648,17 4.5,16.782065 4.5,16.5 4.5,16.217935 4.2820648,16 4,16 z m 24,0 c -0.282065,0 -0.5,0.217935 -0.5,0.5 0,0.282065 0.217935,0.5 0.5,0.5 0.282065,0 0.5,-0.217935 0.5,-0.5 C 28.5,16.217935 28.282065,16 28,16 z M 16,28 c -0.282065,0 -0.5,0.217935 -0.5,0.5 0,0.282065 0.217935,0.5 0.5,0.5 0.282065,0 0.5,-0.217935 0.5,-0.5 C 16.5,28.217935 16.282065,28 16,28 z"
       style="opacity:0.6;fill:#ffffff;fill-opacity:1;stroke:none"
       inkscape:connector-curvature="0" />
    <path
       style="opacity:0.59999999999999998;fill:#000000;fill-opacity:1;stroke:none"
       d="M 16 3.5 C 15.717935 3.5 15.5 3.7179352 15.5 4 C 15.5 4.2820648 15.717935 4.5 16 4.5 C 16.282065 4.5 16.5 4.2820648 16.5 4 C 16.5 3.7179352 16.282065 3.5 16 3.5 z M 4 15.5 C 3.7179352 15.5 3.5 15.717935 3.5 16 C 3.5 16.282065 3.7179352 16.5 4 16.5 C 4.2820648 16.5 4.5 16.282065 4.5 16 C 4.5 15.717935 4.2820648 15.5 4 15.5 z M 28 15.5 C 27.717935 15.5 27.5 15.717935 27.5 16 C 27.5 16.282065 27.717935 16.5 28 16.5 C 28.282065 16.5 28.5 16.282065 28.5 16 C 28.5 15.717935 28.282065 15.5 28 15.5 z M 16 27.5 C 15.717935 27.5 15.5 27.717935 15.5 28 C 15.5 28.282065 15.717935 28.5 16 28.5 C 16.282065 28.5 16.5 28.282065 16.5 28 C 16.5 27.717935 16.282065 27.5 16 27.5 z "
       id="path3940" />
  </g>
  <g
     inkscape:groupmode="layer"
     id="layer2"
     inkscape:label="Symbol">
    <path
       style="fill:none;stroke:#2d2d2d;stroke-width:1;stroke-linecap:round;stroke-linejoin:round;stroke-miterlimit:4;stroke-opacity:1;stroke-dasharray:none;display:inline;enable-background:new"
       d="m 8,9 8,8 7.499998,-5.625"
       id="path3953"
       inkscape:connector-curvature="0"
       sodipodi:nodetypes="ccc" />
    <path
       style="fill:none;stroke:#dc0000;stroke-width:0.5;stroke-linecap:butt;stroke-linejoin:miter;stroke-miterlimit:4;stroke-opacity:1;stroke-dasharray:none;display:inline;enable-background:new"
       d="M 16,17 23.999998,8"
       id="path4005-8"
       inkscape:connector-curvature="0"
       sodipodi:nodetypes="cc" />
  </g>
</svg>
