<?xml version="1.0" encoding="UTF-8" standalone="no"?>
<svg
   xmlns:dc="http://purl.org/dc/elements/1.1/"
   xmlns:cc="http://creativecommons.org/ns#"
   xmlns:rdf="http://www.w3.org/1999/02/22-rdf-syntax-ns#"
   xmlns:svg="http://www.w3.org/2000/svg"
   xmlns="http://www.w3.org/2000/svg"
   xmlns:xlink="http://www.w3.org/1999/xlink"
   id="svg4248"
   height="32"
   width="32"
   version="1.1">
  <defs
     id="defs4250">
    <linearGradient
       id="linearGradient3904">
      <stop
         style="stop-color:#234683;stop-opacity:1;"
         offset="0"
         id="stop3906" />
      <stop
         style="stop-color:#30589e;stop-opacity:1;"
         offset="1"
         id="stop3908" />
    </linearGradient>
    <radialGradient
       r="20.203051"
       fy="38.908627"
       fx="24.849752"
       cy="38.908627"
       cx="24.849752"
       gradientTransform="matrix(1,0,0,0.37,0,24.5124)"
       gradientUnits="userSpaceOnUse"
       id="radialGradient3755"
       xlink:href="#linearGradient26113-9-3-1" />
    <linearGradient
       id="linearGradient26113-9-3-1">
      <stop
         id="stop26115-7-7-9"
         offset="0"
         style="stop-color: rgb(0, 0, 0); stop-opacity: 1;" />
      <stop
         id="stop26117-3-7-8"
         offset="1"
         style="stop-color: rgb(0, 0, 0); stop-opacity: 0;" />
    </linearGradient>
    <linearGradient
       id="linearGradient26121-3-8-2">
      <stop
         id="stop26123-4-7-8"
         offset="0"
         style="stop-color: rgb(0, 0, 0); stop-opacity: 1;" />
      <stop
         id="stop26125-3-9-9"
         offset="1"
         style="stop-color: rgb(0, 0, 0); stop-opacity: 0;" />
    </linearGradient>
    <radialGradient
       xlink:href="#linearGradient26121-3-8-2"
       id="radialGradient3972"
       gradientUnits="userSpaceOnUse"
       gradientTransform="matrix(1.00851,0,0,0.373148,-0.211403,24.39)"
       cx="24.849752"
       cy="38.908627"
       fx="24.849752"
       fy="38.908627"
       r="20.203051" />
    <linearGradient
       gradientTransform="matrix(0,-1,1,0,5.0000306e-7,32)"
       gradientUnits="userSpaceOnUse"
       y2="15.999999"
       x2="31"
       y1="15.999999"
       x1="1"
       id="linearGradient3902"
       xlink:href="#linearGradient3904" />
    <linearGradient
       id="outerBackgroundGradient-5">
      <stop
         id="stop3864-8-6-1"
         offset="0"
         style="stop-color:#0097ff;stop-opacity:1;" />
      <stop
         id="stop3866-9-1-1"
         offset="1"
         style="stop-color:#1148c1;stop-opacity:1;" />
    </linearGradient>
    <linearGradient
       gradientTransform="matrix(0,1,-1,0,32,0)"
       gradientUnits="userSpaceOnUse"
       y2="16"
       x2="30.5"
       y1="16"
       x1="1.5"
       id="linearGradient3787"
       xlink:href="#outerBackgroundGradient-5" />
  </defs>
  <metadata
     id="metadata4253">
    <rdf:RDF>
      <cc:Work
         rdf:about="">
        <dc:format>image/svg+xml</dc:format>
        <dc:type
           rdf:resource="http://purl.org/dc/dcmitype/StillImage" />
        <dc:title />
      </cc:Work>
    </rdf:RDF>
  </metadata>
  <g
     id="layer1">
    <path
       transform="matrix(0.51081599,0,0,0.46595786,3.1704533,10.023687)"
       d="m 45.052803,38.908627 a 20.203051,7.4751287 0 1 1 -40.4061012,0 20.203051,7.4751287 0 1 1 40.4061012,0 z"
       id="path8606"
       style="fill:url(#radialGradient3972);fill-opacity:1;stroke:none;display:inline;filter:url(#filter5927);enable-background:new" />
    <path
       style="opacity:0.51836697;fill:url(#radialGradient3755);fill-opacity:1;stroke:none;display:inline;filter:url(#filter5788);enable-background:new"
       id="path8608"
       d="m 45.052803,38.908627 a 20.203051,7.4751287 0 1 1 -40.4061012,0 20.203051,7.4751287 0 1 1 40.4061012,0 z"
       transform="matrix(0.69053217,0,0,0.62989172,-1.2951468,3.2832567)" />
    <path
       d="M 16.000514,1.5 C 7.992127,1.5 1.5,7.99235 1.5,15.999818 1.5,24.008018 7.992201,30.5 16.000514,30.5 24.008533,30.5 30.5,24.008018 30.5,15.999818 30.5,7.99235 24.008533,1.5 16.000514,1.5 l 0,0 z"
       id="path6495"
       style="fill:url(#linearGradient3787);fill-opacity:1;fill-rule:nonzero;stroke:none" />
    <path
       style="opacity:0.91;color:#000000;fill:none;stroke:url(#linearGradient3902);stroke-width:1;stroke-opacity:1;marker:none;visibility:visible;display:inline;overflow:visible;enable-background:accumulate"
       id="path3866"
       d="m 30.500001,15.999999 c 0,8.000599 -6.499399,14.500001 -14.5,14.500001 -8.0006015,0 -14.5000035,-6.499402 -14.5000015,-14.500001 0,-8.0005975 6.4994,-14.5000065 14.5000015,-14.4999995 8.000601,0 14.5,6.499402 14.5,14.4999995 z" />
    <path
       id="path3101"
       d="M 16 2 C 8.2701871 1.9999932 2 8.2701906 2 16 C 2 16.168178 2.0253633 16.333253 2.03125 16.5 C 2.295928 9.0027282 8.4383652 2.9999933 16 3 C 23.561635 3 29.704072 9.0027285 29.96875 16.5 C 29.974637 16.333253 30 16.168178 30 16 C 30 8.2701906 23.729813 2 16 2 z "
       style="color:#000000;fill:#ffffff;fill-opacity:1;fill-rule:nonzero;stroke:none;stroke-width:1;marker:none;visibility:visible;display:inline;overflow:visible;enable-background:accumulate;opacity:0.2" />
  </g>
  <g
     id="layer2">
    <path
       style="opacity:0.2;color:#bebebe;fill:#000000;fill-opacity:1;fill-rule:nonzero;stroke:none;stroke-width:0.5;marker:none;visibility:visible;display:inline;overflow:visible;enable-background:accumulate"
       d="m 16.028793,4.9999975 c -1.254733,0 -2.271899,1.0171633 -2.271899,2.2718983 0,1.2547351 1.017166,2.271898 2.271899,2.271898 1.254733,0 2.271898,-1.0171629 2.271898,-2.271898 0,-1.254735 -1.017165,-2.2718983 -2.271898,-2.2718983 z M 7.7079639,10.08337 c -0.4935111,0.10872 -0.5139128,0.967304 -0.028353,1.107551 l 0.056798,0.0568 0.1135949,0 c 0,0 4.0495782,0.528132 5.4525572,1.931114 0.908759,0.908759 0.298791,2.981021 0,4.543797 -0.428444,2.240912 -2.186702,6.474911 -2.186702,6.474911 l -0.02835,0.113595 c -0.16593,0.530045 0.73705,0.959312 1.022355,0.482778 l 0.0568,-0.113595 c 0,0 2.953468,-6.957689 3.862228,-6.957689 0.908759,0 3.862227,6.957689 3.862227,6.957689 l 0.0568,0.113595 c 0.285305,0.476534 1.188284,0.04723 1.022354,-0.482778 l -0.02835,-0.113595 c 0,0 -1.758259,-4.234001 -2.186703,-6.474911 -0.298791,-1.562776 -0.908759,-3.635038 0,-4.543797 1.402979,-1.402982 5.452557,-1.931114 5.452557,-1.931114 l 0.113595,0 0.0568,-0.0568 c 0.5236,-0.185283 0.296819,-1.165237 -0.255588,-1.107551 0,0 -5.367379,1.267423 -8.093639,1.249544 -2.726296,0.01788 -8.0652404,-1.249544 -8.0652404,-1.249544 -0.082243,-0.01847 -0.1733186,-0.01847 -0.2555886,0 z"
       id="path3875" />
    <path
       id="path7088"
       d="m 16.028793,5.9999987 c -1.254733,0 -2.271899,1.0171633 -2.271899,2.2718983 0,1.2547351 1.017166,2.271898 2.271899,2.271898 1.254733,0 2.271898,-1.0171629 2.271898,-2.271898 0,-1.254735 -1.017165,-2.2718983 -2.271898,-2.2718983 z M 7.7079639,11.083371 c -0.4935111,0.10872 -0.5139128,0.967304 -0.028353,1.107551 l 0.056798,0.0568 0.1135949,0 c 0,0 4.0495782,0.528132 5.4525572,1.931114 0.908759,0.908759 0.298791,2.981021 0,4.543797 -0.428444,2.240912 -2.186702,6.474911 -2.186702,6.474911 l -0.02835,0.113595 c -0.16593,0.530045 0.73705,0.959312 1.022355,0.482778 l 0.0568,-0.113595 c 0,0 2.953468,-6.957689 3.862228,-6.957689 0.908759,0 3.862227,6.957689 3.862227,6.957689 l 0.0568,0.113595 c 0.285305,0.476534 1.188284,0.04723 1.022354,-0.482778 l -0.02835,-0.113595 c 0,0 -1.758259,-4.234001 -2.186703,-6.474911 -0.298791,-1.562776 -0.908759,-3.635038 0,-4.543797 1.402979,-1.402982 5.452557,-1.931114 5.452557,-1.931114 l 0.113595,0 0.0568,-0.0568 c 0.5236,-0.185283 0.296819,-1.165237 -0.255588,-1.107551 0,0 -5.367379,1.267423 -8.093639,1.249544 -2.726296,0.01788 -8.0652404,-1.249544 -8.0652404,-1.249544 -0.082243,-0.01847 -0.1733186,-0.01847 -0.2555886,0 z"
       style="color:#bebebe;fill:#ffffff;fill-opacity:1;fill-rule:nonzero;stroke:none;stroke-width:0.50000000000000000;marker:none;visibility:visible;display:inline;overflow:visible;enable-background:accumulate" />
  </g>
</svg>
