<?xml version="1.0" encoding="UTF-8" standalone="no"?>
<svg xmlns="http://www.w3.org/2000/svg" xmlns:xlink="http://www.w3.org/1999/xlink" xmlns:sodipodi="http://sodipodi.sourceforge.net/DTD/sodipodi-0.dtd" xmlns:inkscape="http://www.inkscape.org/namespaces/inkscape" version="1.1" width="32" height="32">
 <defs id="defs4250">
  <linearGradient inkscape:collect="always" id="linearGradient3926">
   <stop id="stop3928" stop-color="#ffffff"/>
   <stop offset="1" id="stop3930" stop-color="#ffffff" stop-opacity="0"/>
  </linearGradient>
  <linearGradient id="linearGradient3904">
   <stop id="stop3906" stop-color="#234683"/>
   <stop id="stop3908" offset="1" stop-color="#30589e"/>
  </linearGradient>
  <radialGradient inkscape:collect="always" xlink:href="#outerBackgroundGradient" id="radialGradient3805" gradientUnits="userSpaceOnUse" gradientTransform="matrix(4.5367027e-8,-1.7632481,-1.8653063,0,31.761486,43.251051)" cx="6.16" cy="8.45" r="20"/>
  <linearGradient inkscape:collect="always" xlink:href="#linearGradient3926" id="linearGradient3818" x1="2" x2="30" gradientUnits="userSpaceOnUse" gradientTransform="matrix(0,1,-1,0,32.000001,8.5e-7)"/>
  <linearGradient id="outerBackgroundGradient">
   <stop id="stop3864-8-6" stop-color="#1450b9"/>
   <stop offset="1" id="stop3866-9-1" stop-color="#5187e6"/>
  </linearGradient>
  <linearGradient inkscape:collect="always" xlink:href="#linearGradient3904" id="linearGradient3109" gradientUnits="userSpaceOnUse" gradientTransform="matrix(0,-1,1,0,5.0000306e-7,32)" x1="1" x2="31"/>
  <radialGradient inkscape:collect="always" xlink:href="#outerBackgroundGradient-5" id="radialGradient4373" cx="24" cy="12" r="19.5" gradientUnits="userSpaceOnUse" gradientTransform="matrix(-1.4358974,0,0,-1.823144,58.461538,33.877729)"/>
  <linearGradient id="outerBackgroundGradient-5">
   <stop id="stop3864-8-6-1" stop-color="#0097ff"/>
   <stop id="stop4375" offset="0.75" stop-color="#006cd9"/>
   <stop offset="1" id="stop3866-9-1-1" stop-color="#1148c1"/>
  </linearGradient>
  <linearGradient id="outerBackgroundGradient-6">
   <stop id="stop3864-8-6-0" stop-color="#c23021"/>
   <stop offset="1" id="stop3866-9-1-7" stop-color="#e74c3c"/>
  </linearGradient>
  <linearGradient id="linearGradient3413">
   <stop id="stop3415" stop-color="#dddddd"/>
   <stop id="stop3886" offset="0.13" stop-color="#e2e2e2"/>
   <stop id="stop3884" offset="0.13" stop-color="#f0f0f0"/>
   <stop offset="1" id="stop3417" stop-color="#e6e6e6"/>
  </linearGradient>
  <linearGradient inkscape:collect="always" id="linearGradient3952">
   <stop id="stop3954"/>
   <stop offset="1" id="stop3956" stop-opacity="0"/>
  </linearGradient>
  <linearGradient inkscape:collect="always" xlink:href="#linearGradient3960" id="linearGradient4733" gradientUnits="userSpaceOnUse" gradientTransform="translate(-8,2.999999)" y1="45" x2="0" y2="42"/>
  <linearGradient id="linearGradient3960">
   <stop id="stop3962" stop-opacity="0"/>
   <stop id="stop3970" offset="0.5"/>
   <stop offset="1" id="stop3964" stop-opacity="0"/>
  </linearGradient>
  <linearGradient inkscape:collect="always" xlink:href="#linearGradient3960" id="linearGradient3921" gradientUnits="userSpaceOnUse" gradientTransform="translate(-7,-14.000001)" y1="45" x2="0" y2="42"/>
  <radialGradient inkscape:collect="always" xlink:href="#linearGradient3952" id="radialGradient3924" gradientUnits="userSpaceOnUse" gradientTransform="matrix(1,0,0,0.75,-6,-3.125001)" cx="9" cy="43.5" r="2"/>
  <radialGradient inkscape:collect="always" xlink:href="#linearGradient3952" id="radialGradient3927" gradientUnits="userSpaceOnUse" gradientTransform="matrix(1,0,0,0.75,-11,-3.125001)" cx="40" cy="43.5" r="2"/>
  <linearGradient inkscape:collect="always" xlink:href="#outerBackgroundGradient-7" id="linearGradient4936" gradientUnits="userSpaceOnUse" gradientTransform="matrix(0.91666667,0,0,0.91666667,-274.91793,-218.1222)" y1="267.27" x2="0" y2="234.55"/>
  <linearGradient id="outerBackgroundGradient-7">
   <stop id="stop3864-8-6-3" stop-color="#dddddd"/>
   <stop offset="1" id="stop3866-9-1-2" stop-color="#f2f2f2"/>
  </linearGradient>
  <linearGradient inkscape:collect="always" xlink:href="#linearGradient4084" id="linearGradient4932" gradientUnits="userSpaceOnUse" gradientTransform="matrix(0.91666667,0,0,0.91666667,-274.91793,-218.1222)" y1="234.55" x2="0" y2="267.27"/>
  <linearGradient id="linearGradient4084">
   <stop id="stop4086" stop-color="#cd5fc2"/>
   <stop offset="1" id="stop4088" stop-color="#9a4993"/>
  </linearGradient>
  <linearGradient inkscape:collect="always" xlink:href="#linearGradient4100" id="linearGradient4930" gradientUnits="userSpaceOnUse" gradientTransform="matrix(0.91666667,0,0,0.91666667,-274.91793,-223.78887)" y1="240.73" x2="0" y2="272.36"/>
  <linearGradient id="linearGradient4100">
   <stop id="stop4102" stop-color="#aaaaaa"/>
   <stop id="stop4104" offset="1" stop-color="#767676"/>
  </linearGradient>
  <linearGradient inkscape:collect="always" xlink:href="#outerBackgroundGradient-5-0" id="linearGradient4260" x1="418" x2="446" gradientUnits="userSpaceOnUse" gradientTransform="matrix(0,-1,1,0,364,500)"/>
  <linearGradient id="outerBackgroundGradient-5-0">
   <stop id="stop3864-8-6-4" stop-color="#261e2b"/>
   <stop offset="1" id="stop3866-9-1-86" stop-color="#352f39"/>
  </linearGradient>
  <linearGradient inkscape:collect="always" xlink:href="#linearGradient3926" id="linearGradient3932" x1="3" x2="29" gradientUnits="userSpaceOnUse" gradientTransform="matrix(0,1,-1,0,32,-2)"/>
  <linearGradient inkscape:collect="always" xlink:href="#outerBackgroundGradient-0-1" id="linearGradient3934" gradientUnits="userSpaceOnUse" gradientTransform="matrix(0,-1,1,0,0,30)" x1="2.5" x2="29.5"/>
  <linearGradient inkscape:collect="always" xlink:href="#outerBackgroundGradient-6-1" id="linearGradient3077" gradientUnits="userSpaceOnUse" gradientTransform="matrix(0,-1,1,0,832,-978.3622)" x1="-1023.86" x2="-984.86"/>
  <linearGradient id="outerBackgroundGradient-6-1">
   <stop id="stop3864-8-6-0-1" stop-color="#111111"/>
   <stop offset="1" id="stop3866-9-1-7-2" stop-color="#222222"/>
  </linearGradient>
  <linearGradient inkscape:collect="always" xlink:href="#outerBackgroundGradient-0-1" id="linearGradient3851" gradientUnits="userSpaceOnUse" gradientTransform="matrix(0,-1,-1,0,-631,-972.3622)" x1="-1023.86" x2="-984.86"/>
  <linearGradient id="outerBackgroundGradient-0-1">
   <stop id="stop3864-8-6-3-6" stop-color="#3689e6"/>
   <stop offset="1" id="stop3866-9-1-7-3" stop-color="#90dbec"/>
  </linearGradient>
  <linearGradient inkscape:collect="always" xlink:href="#linearGradient3926" id="linearGradient3929" gradientUnits="userSpaceOnUse" x1="789" x2="827"/>
  <clipPath id="clipPath4130">
   <path id="path4132" d="M 790.4375,237 C 789.62555,237 789,237.62555 789,238.4375 l 0,35.09375 c 0,0.812 0.62555,1.46875 1.4375,1.46875 l 35.125,0 c 0.81195,0 1.4375,-0.65675 1.4375,-1.46875 l 0,-35.09375 C 827,237.62555 826.37445,237 825.5625,237 l -35.125,0 z"/>
  </clipPath>
  <linearGradient x2="-984.86" x1="-1023.86" gradientTransform="matrix(0,-1,1,0,985,-972.3622)" gradientUnits="userSpaceOnUse" id="linearGradient3138" xlink:href="#outerBackgroundGradient-6-1" inkscape:collect="always"/>
  <clipPath id="clipPath4241">
   <path id="path4243" d="m 423.01,53.5 c -3.60654,0 -6.5,2.893464 -6.5,6.5 l 0,16 c 0,3.606536 2.89346,6.5 6.5,6.5 l 16,0 c 3.60654,0 6.5,-2.893464 6.5,-6.5 l 0,-16 c 0,-3.606536 -2.89346,-6.5 -6.5,-6.5 l -16,0 z"/>
  </clipPath>
  <linearGradient inkscape:collect="always" xlink:href="#linearGradient4094-1" id="linearGradient4362" gradientUnits="userSpaceOnUse" gradientTransform="matrix(0.375,0,0,0.375,298,27.999997)" y1="170.67" x2="0" y2="42.667"/>
  <linearGradient id="linearGradient4094-1">
   <stop id="stop4096-0" stop-color="#676767"/>
   <stop id="stop4098-37" offset="1" stop-color="#8a8a8a"/>
  </linearGradient>
  <clipPath id="clipPath4172-0">
   <rect id="rect4174-3" width="90" height="90" x="307" y="43" fill="none" color="#bebebe" stroke-width="0" rx="18.75"/>
  </clipPath>
  <linearGradient y2="48" x2="368" y1="128" x1="392" gradientUnits="userSpaceOnUse" id="linearGradient4316" xlink:href="#linearGradient4121-4" inkscape:collect="always"/>
  <linearGradient id="linearGradient4121-4">
   <stop id="stop4123-0" stop-color="#c3b7a4"/>
   <stop id="stop4125-76" offset="1" stop-color="#ffffff"/>
  </linearGradient>
  <linearGradient inkscape:collect="always" xlink:href="#linearGradient4094-1" id="linearGradient4460" gradientUnits="userSpaceOnUse" gradientTransform="matrix(0.09375,0,0,0.09375,413.26,97.249999)" y1="170.67" x2="0" y2="42.667"/>
  <clipPath id="clipPath4172-88">
   <rect id="rect4174-29" width="90" height="90" x="307" y="43" fill="none" color="#bebebe" stroke-width="0" rx="18.75"/>
  </clipPath>
  <linearGradient inkscape:collect="always" xlink:href="#linearGradient4121-4" id="linearGradient4456" gradientUnits="userSpaceOnUse" gradientTransform="matrix(0.25,0,0,0.25,338.76,90.25)" x1="392" y1="128" x2="368" y2="48"/>
  <clipPath id="clipPath4182">
   <path id="path4184" d="m 412.01,124.5 c -0.82175,0 -1.5,-0.67825 -1.5,-1.5 l 0,-20 c 0,-0.82175 0.67825,-1.5 1.5,-1.5 l 24,0 c 0.82175,0 1.5,0.67825 1.5,1.5 l 0,20 c 0,0.82175 -0.67825,1.5 -1.5,1.5 z"/>
  </clipPath>
  <linearGradient inkscape:collect="always" xlink:href="#outerBackgroundGradient-0-1" id="linearGradient4186" gradientUnits="userSpaceOnUse" gradientTransform="matrix(0,-1,1,0,408.01,127)" x1="2.5" x2="29.5"/>
  <linearGradient inkscape:collect="always" xlink:href="#linearGradient4094-1" id="linearGradient4362-9" gradientUnits="userSpaceOnUse" gradientTransform="matrix(0.375,0,0,0.375,298,27.999997)" y1="170.67" x2="0" y2="42.667"/>
  <clipPath id="clipPath4172-0-6">
   <rect id="rect4174-3-1" width="90" height="90" x="307" y="43" fill="none" color="#bebebe" stroke-width="0" rx="18.75"/>
  </clipPath>
  <linearGradient y2="48" x2="368" y1="128" x1="392" gradientUnits="userSpaceOnUse" id="linearGradient4316-9" xlink:href="#linearGradient4121-4" inkscape:collect="always"/>
  <clipPath id="clipPath4234">
   <path id="path4236" d="m 419.51,77 c -0.82175,0 -1.5,-0.678248 -1.5,-1.5 l 0,-20 c 0,-0.821752 0.67825,-1.5 1.5,-1.5 l 24,0 c 0.82175,0 1.5,0.678249 1.5,1.5 l 0,20 c 0,0.821751 -0.67825,1.5 -1.5,1.5 z"/>
  </clipPath>
  <linearGradient inkscape:collect="always" xlink:href="#outerBackgroundGradient-0-1" id="linearGradient4238" gradientUnits="userSpaceOnUse" gradientTransform="matrix(0,-1,1,0,415.51,79.5)" x1="2.5" x2="29.5"/>
 </defs>
 <metadata id="metadata4253"/>
 <g inkscape:groupmode="layer" id="layer1" inkscape:label="Background">
  <g id="g3930" transform="translate(0,-2)">
   <path inkscape:connector-curvature="0" id="rect3940" d="m 29,27.999999 0,3 0.5,0 c 0.831,0 1.5,-0.669 1.5,-1.5 0,-0.831 -0.669,-1.5 -1.5,-1.5 l -0.5,0 z" opacity="0.3" fill="url(#radialGradient3927)"/>
   <path inkscape:connector-curvature="0" id="rect3942" d="M 2.40625,27.999999 C 1.6271875,27.999999 1,28.627186 1,29.406249 l 0,0.1875 c 0,0.779063 0.6271875,1.40625 1.40625,1.40625 l 0.59375,0 0,-3 -0.59375,0 z" opacity="0.3" fill="url(#radialGradient3924)"/>
   <path sodipodi:nodetypes="ccccc" inkscape:connector-curvature="0" id="rect3938" d="M 2.9998571,27.999999 29,28 l 0,3 -26.0001429,-1e-6 z" opacity="0.3" fill="url(#linearGradient3921)"/>
  </g>
  <path d="M 4,27.5 C 3.1782489,27.5 2.5,26.821752 2.5,26 L 2.5,6 C 2.5,5.178248 3.1782489,4.5 4,4.5 l 24,0 c 0.821751,0 1.5,0.678249 1.5,1.5 l 0,20 c 0,0.821751 -0.678249,1.5 -1.5,1.5 z" id="rect3894" inkscape:connector-curvature="0" sodipodi:nodetypes="sssssssss" fill="url(#linearGradient3934)" fill-rule="evenodd"/>
  <path d="M 29,6 C 29,5.4373514 28.562649,5 28,5 L 4,5 C 3.437351,5 3,5.4373514 3,6 l 0,20 c 0,0.562649 0.437351,1 1,1 l 24,0 c 0.562649,0 1,-0.437351 1,-1 z M 28,6 28,26 4,26 4,6 z" id="path3951" inkscape:connector-curvature="0" sodipodi:nodetypes="sssssssssccccc" opacity="0.1" fill="url(#linearGradient3932)" fill-rule="evenodd"/>
  <path d="M 4,5 C 3.4373514,5 3,5.4373514 3,6 L 3,7 C 3,6.4373514 3.4373514,6 4,6 l 24,0 c 0.562649,0 1,0.4373514 1,1 L 29,6 C 29,5.4373514 28.562649,5 28,5 z" id="path3935" inkscape:connector-curvature="0" sodipodi:nodetypes="sscsscsss" opacity="0.05" fill="#ffffff" fill-rule="evenodd"/>
  <path id="path3949" d="M 4,27 C 3.4373514,27 3,26.562649 3,26 l 0,-1 c 0,0.562649 0.4373514,1 1,1 l 24,0 c 0.562649,0 1,-0.437351 1,-1 l 0,1 c 0,0.562649 -0.437351,1 -1,1 z" inkscape:connector-curvature="0" sodipodi:nodetypes="sscsscsss" opacity="0.05" fill="#ffffff" fill-rule="evenodd"/>
  <g id="g4127" transform="translate(-415.51,-49.5)" clip-path="url(#clipPath4234)" enable-background="new">
   <g transform="matrix(0.375,0,0,0.375,297.135,38.375)" id="g4343">
    <path transform="translate(0,-4)" sodipodi:nodetypes="cccccc" inkscape:connector-curvature="0" id="path4347" d="m 351,43 9,4 37,39 0,-24.333333 C 397.8723,57.444033 402.38518,38.937067 378.33333,43 z" fill="url(#linearGradient4362-9)" color="#bebebe" stroke-width="0"/>
    <path d="m 351,43 c 0,0 4.76696,1.936657 6,4 6.04018,10.107486 3.33333,35.166667 3.33333,35.166667 0,0 27.66667,-7.37868 36.66667,0.62132 C 397,82.787987 367,43 351,43 z" id="path4240" inkscape:connector-curvature="0" sodipodi:nodetypes="caccc" transform="translate(0,-4)" opacity="0.1" fill="none" stroke="#000000" color="#bebebe" stroke-width="5.333"/>
    <path d="m 350.94107,42.37378 c 0,0 4.76696,1.936657 6,4 6.04018,10.107486 3.33333,35.166666 3.33333,35.166666 0,0 27.66667,-7.378679 36.66667,0.621321 0,0 -30,-39.787987 -46,-39.787987 z" id="path4345" inkscape:connector-curvature="0" sodipodi:nodetypes="caccc" opacity="0.2" color="#bebebe" stroke-width="0"/>
    <path transform="translate(0,-4)" sodipodi:nodetypes="caccc" inkscape:connector-curvature="0" id="path4351" d="m 351,43 c 0,0 4.76696,1.936657 6,4 6.04018,10.107486 3.33333,35.166667 3.33333,35.166667 0,0 27.66667,-7.37868 36.66667,0.62132 C 397,82.787987 367,43 351,43 z" fill="url(#linearGradient4316-9)" color="#bebebe" stroke-width="0"/>
   </g>
  </g>
  <path d="M 4,4 C 2.9006486,4 2,4.9006486 2,6 l 0,20 c 0,1.099351 0.9006486,2 2,2 l 24,0 c 1.099351,0 2,-0.900649 2,-2 L 30,6 C 30,4.9006486 29.099351,4 28,4 L 4,4 z m 0,1 24,0 c 0.562649,0 1,0.4373514 1,1 l 0,20 c 0,0.562649 -0.437351,1 -1,1 L 4,27 C 3.4373514,27 3,26.562649 3,26 L 3,6 C 3,5.4373514 3.4373514,5 4,5 z" id="path3906" inkscape:connector-curvature="0" opacity="0.41" color="#000000"/>
 </g>
 <g inkscape:groupmode="layer" id="layer2" inkscape:label="Symbol">
  <path d="m 6,24.5 c -0.2856486,0 -0.5,0.214351 -0.5,0.5 l 0,1 0,1 20,0 0,-1 0,-1 c 0,-0.285649 -0.214351,-0.5 -0.5,-0.5 z" id="path3893" inkscape:connector-curvature="0" sodipodi:nodetypes="ssccccsss" opacity="0.2"/>
  <path d="m 6,24 c -0.5357823,0 -1,0.464217 -1,1 l 0,1 0,1 1,0 0,-1 0,-1 19,0 0,1 0,1 1,0 0,-1 0,-1 c 0,-0.535782 -0.464218,-1 -1,-1 z" id="path3902" inkscape:connector-curvature="0" sodipodi:nodetypes="ssccccccccccsss" opacity="0.3" color="#000000" fill="#ffffff"/>
  <rect id="rect3974" width="3" height="3" x="8" y="23" fill="#ffffff" rx="1"/>
  <rect y="23" x="12" height="3" width="3" id="rect3976" fill="#ffffff" rx="1"/>
  <rect id="rect3978" width="3" height="3" x="16" y="23" fill="#ffffff" rx="1"/>
  <rect y="23" x="20" height="3" width="3" id="rect3980" fill="#ffffff" rx="1"/>
 </g>
</svg>
