<?xml version="1.0" encoding="UTF-8" standalone="no"?>
<svg xmlns="http://www.w3.org/2000/svg" xmlns:xlink="http://www.w3.org/1999/xlink" xmlns:sodipodi="http://sodipodi.sourceforge.net/DTD/sodipodi-0.dtd" xmlns:inkscape="http://www.inkscape.org/namespaces/inkscape" version="1.1" width="32" height="32">
 <defs id="defs4250">
  <linearGradient id="linearGradient3838">
   <stop id="stop3840" stop-color="#32a5dc"/>
   <stop id="stop3843" offset="0.357" stop-color="#248ec3"/>
   <stop offset="0.74" id="stop3845" stop-color="#1f5271"/>
   <stop offset="1" id="stop3847" stop-color="#020509"/>
  </linearGradient>
  <linearGradient id="linearGradient3904">
   <stop id="stop3906" stop-color="#234683"/>
   <stop id="stop3908" offset="1" stop-color="#30589e"/>
  </linearGradient>
  <linearGradient inkscape:collect="always" id="linearGradient3812">
   <stop id="stop3814" stop-color="#ffffff"/>
   <stop offset="1" id="stop3816" stop-color="#ffffff" stop-opacity="0"/>
  </linearGradient>
  <radialGradient inkscape:collect="always" xlink:href="#linearGradient3838" id="radialGradient3805" gradientUnits="userSpaceOnUse" gradientTransform="matrix(0,1.3257479,-1.2500006,-1.4754776e-8,26.56227,-6.7225691)" cx="11.11" cy="8.45" r="20"/>
  <linearGradient inkscape:collect="always" xlink:href="#linearGradient3812" id="linearGradient3818" x1="2" x2="30" gradientUnits="userSpaceOnUse" gradientTransform="matrix(0,1,-1,0,32.000001,8.5e-7)"/>
  <radialGradient inkscape:collect="always" xlink:href="#linearGradient26113-9-3-1" id="radialGradient3755" gradientUnits="userSpaceOnUse" gradientTransform="matrix(1,0,0,0.37,0,24.5124)" cx="24.85" cy="38.909" r="20.2"/>
  <linearGradient inkscape:collect="always" id="linearGradient26113-9-3-1">
   <stop id="stop26115-7-7-9" stop-color="#000000"/>
   <stop offset="1" id="stop26117-3-7-8" stop-color="#000000" stop-opacity="0"/>
  </linearGradient>
  <radialGradient r="20.2" cy="38.909" cx="24.85" gradientTransform="matrix(1.00851,0,0,0.373148,-0.211403,24.39)" gradientUnits="userSpaceOnUse" id="radialGradient3972" xlink:href="#linearGradient26113-9-3-1" inkscape:collect="always"/>
  <linearGradient id="outerBackgroundGradient">
   <stop id="stop3864-8-6" stop-color="#1450b9"/>
   <stop offset="1" id="stop3866-9-1" stop-color="#5187e6"/>
  </linearGradient>
  <linearGradient inkscape:collect="always" xlink:href="#linearGradient3840" id="linearGradient3902" x1="1" x2="31" gradientUnits="userSpaceOnUse" gradientTransform="matrix(0,1,1,0,5.0000306e-7,-5.0000565e-7)"/>
  <linearGradient inkscape:collect="always" xlink:href="#linearGradient3904" id="linearGradient3109" gradientUnits="userSpaceOnUse" gradientTransform="matrix(0,-1,1,0,5.0000306e-7,32)" x1="1" x2="31"/>
  <radialGradient inkscape:collect="always" xlink:href="#outerBackgroundGradient" id="radialGradient3111" gradientUnits="userSpaceOnUse" gradientTransform="matrix(4.5367027e-8,-1.7632481,-1.8653063,0,31.761486,43.251051)" cx="6.16" cy="8.45" r="20"/>
  <linearGradient id="linearGradient3840">
   <stop id="stop3842" stop-color="#1e7488"/>
   <stop offset="0.5" id="stop3844" stop-color="#1e5976"/>
   <stop id="stop3846" offset="0.75" stop-color="#122937"/>
   <stop id="stop3848" offset="1" stop-color="#020509"/>
  </linearGradient>
  <radialGradient inkscape:collect="always" xlink:href="#linearGradient3814" id="radialGradient3820" cx="24" cy="13.948" r="19.326" gradientTransform="matrix(-1.2312427,-6.9584993e-8,7.7306876e-8,-1.3678841,45.517461,26.155761)" gradientUnits="userSpaceOnUse"/>
  <linearGradient id="linearGradient3814">
   <stop id="stop3816-8" stop-color="#ffffff"/>
   <stop id="stop3833" offset="0.25" stop-color="#f7f7f7"/>
   <stop id="stop3831" offset="0.5" stop-color="#e8e8e8"/>
   <stop offset="1" id="stop3818" stop-color="#7d7d7d"/>
  </linearGradient>
  <radialGradient inkscape:collect="always" xlink:href="#linearGradient3850" id="radialGradient3811" cx="24" cy="12" r="19.5" gradientUnits="userSpaceOnUse" gradientTransform="matrix(-1.6410256,4.1570429e-8,-4.6184956e-8,-1.8231441,63.384614,33.877729)"/>
  <linearGradient id="linearGradient3850">
   <stop id="stop3852" stop-color="#32a5dc"/>
   <stop offset="0.5" id="stop3854" stop-color="#248ec3"/>
   <stop id="stop3856" offset="0.75" stop-color="#1f5271"/>
   <stop id="stop3858" offset="1" stop-color="#020509"/>
  </linearGradient>
  <linearGradient inkscape:collect="always" xlink:href="#linearGradient3678" id="linearGradient3064" gradientUnits="userSpaceOnUse" gradientTransform="matrix(0,0.64663181,0.64663181,0,1.139061,-0.4889068)" x1="35.5" y1="22" x2="48.26" y2="21.914"/>
  <linearGradient id="linearGradient3678">
   <stop id="stop3680" stop-color="#ffffff" stop-opacity="0.134"/>
   <stop id="stop3682" offset="1" stop-color="#ffffff" stop-opacity="0"/>
  </linearGradient>
  <linearGradient inkscape:collect="always" xlink:href="#linearGradient3672" id="linearGradient3058" gradientUnits="userSpaceOnUse" gradientTransform="matrix(0,0.64663181,0.64663181,0,1.139061,-0.4889068)" x1="3.5" x2="47.5"/>
  <linearGradient id="linearGradient3672">
   <stop id="stop3674" stop-color="#ffffff" stop-opacity="0.492"/>
   <stop id="stop3676" offset="1" stop-color="#ffffff"/>
  </linearGradient>
  <linearGradient inkscape:collect="always" xlink:href="#linearGradient3678" id="linearGradient3054" gradientUnits="userSpaceOnUse" gradientTransform="matrix(0.45723773,0.45723773,-0.45723773,0.45723773,14.868501,-6.1758265)" x1="14.893" y1="22.293" x2="4.063" y2="21.83"/>
  <linearGradient inkscape:collect="always" xlink:href="#linearGradient3672" id="linearGradient3051" gradientUnits="userSpaceOnUse" gradientTransform="matrix(0.45723773,0.45723773,-0.45723773,0.45723773,14.868501,-6.1758265)" x1="46.01" y1="23.707" x2="4.287" y2="27.24"/>
  <linearGradient inkscape:collect="always" xlink:href="#linearGradient3672" id="linearGradient3047" gradientUnits="userSpaceOnUse" gradientTransform="matrix(0.45723773,-0.45723773,-0.45723773,-0.45723773,14.748777,38.235329)" x1="48.13" y1="25.828" x2="2.873" y2="24.414"/>
  <linearGradient inkscape:collect="always" xlink:href="#linearGradient3678" id="linearGradient3043" gradientUnits="userSpaceOnUse" gradientTransform="matrix(0.45723773,-0.45723773,-0.45723773,-0.45723773,14.748777,38.235329)" x1="14.893" y1="23.707" x2="2.832" y2="24.11"/>
  <linearGradient inkscape:collect="always" xlink:href="#linearGradient3672" id="linearGradient3040" gradientUnits="userSpaceOnUse" gradientTransform="matrix(0.64663181,0,0,-0.64663181,-0.477516,30.872739)" x1="4.49" x2="47.5"/>
  <linearGradient inkscape:collect="always" xlink:href="#linearGradient3678" id="linearGradient3036" gradientUnits="userSpaceOnUse" gradientTransform="matrix(0.64663181,0,0,-0.64663181,-0.477516,30.872739)" x1="37.5" y1="23" x2="49.09" y2="23.17"/>
  <linearGradient inkscape:collect="always" xlink:href="#linearGradient3678" id="linearGradient4006" gradientUnits="userSpaceOnUse" gradientTransform="matrix(0.64663181,0,0,-0.64663181,10.522485,30.018601)" x1="37.5" y1="23" x2="49.09" y2="23.17"/>
  <linearGradient inkscape:collect="always" xlink:href="#linearGradient3672" id="linearGradient4010" gradientUnits="userSpaceOnUse" gradientTransform="matrix(0.64663181,0,0,-0.64663181,10.522485,30.018601)" x1="4.49" x2="47.5"/>
  <linearGradient inkscape:collect="always" xlink:href="#linearGradient3678" id="linearGradient4013" gradientUnits="userSpaceOnUse" gradientTransform="matrix(0.45723773,-0.45723773,-0.45723773,-0.45723773,25.748778,37.381191)" x1="14.893" y1="23.707" x2="2.832" y2="24.11"/>
  <linearGradient inkscape:collect="always" xlink:href="#linearGradient3672" id="linearGradient4017" gradientUnits="userSpaceOnUse" gradientTransform="matrix(0.45723773,-0.45723773,-0.45723773,-0.45723773,25.748778,37.381191)" x1="48.13" y1="25.828" x2="2.873" y2="24.414"/>
  <linearGradient inkscape:collect="always" xlink:href="#linearGradient3672" id="linearGradient4021" gradientUnits="userSpaceOnUse" gradientTransform="matrix(0.45723773,0.45723773,-0.45723773,0.45723773,25.868502,-7.0299641)" x1="46.01" y1="23.707" x2="4.287" y2="27.24"/>
  <linearGradient inkscape:collect="always" xlink:href="#linearGradient3678" id="linearGradient4024" gradientUnits="userSpaceOnUse" gradientTransform="matrix(0.45723773,0.45723773,-0.45723773,0.45723773,25.868502,-7.0299641)" x1="14.893" y1="22.293" x2="4.063" y2="21.83"/>
  <linearGradient inkscape:collect="always" xlink:href="#linearGradient3672" id="linearGradient4028" gradientUnits="userSpaceOnUse" gradientTransform="matrix(0,0.64663181,0.64663181,0,12.139062,-1.3430444)" x1="3.5" x2="47.5"/>
  <linearGradient inkscape:collect="always" xlink:href="#linearGradient3678" id="linearGradient4031" gradientUnits="userSpaceOnUse" gradientTransform="matrix(0,0.64663181,0.64663181,0,12.139062,-1.3430444)" x1="35.5" y1="22" x2="48.26" y2="21.914"/>
 </defs>
 <metadata id="metadata4253"/>
 <g inkscape:groupmode="layer" id="layer1" inkscape:label="Background">
  <path sodipodi:type="arc" id="path8606" sodipodi:cx="24.849752" sodipodi:cy="38.908627" sodipodi:rx="20.203051" sodipodi:ry="7.4751287" d="m 45.052803,38.908627 a 20.203051,7.4751287 0 1 1 -40.4061012,0 20.203051,7.4751287 0 1 1 40.4061012,0 z" transform="matrix(0.51081599,0,0,0.46595786,3.1704533,10.023687)" fill="url(#radialGradient3972)"/>
  <path transform="matrix(0.69053217,0,0,0.62989172,-1.2951468,3.2832567)" d="m 45.052803,38.908627 a 20.203051,7.4751287 0 1 1 -40.4061012,0 20.203051,7.4751287 0 1 1 40.4061012,0 z" sodipodi:ry="7.4751287" sodipodi:rx="20.203051" sodipodi:cy="38.908627" sodipodi:cx="24.849752" id="path8608" sodipodi:type="arc" opacity="0.518" fill="url(#radialGradient3755)"/>
  <path id="path2555-7" inkscape:connector-curvature="0" d="M 16.000001,1.499999 C 7.999402,1.499999 1.5,7.999398 1.5,15.999999 1.5,24.0006 7.999402,30.500002 16.000001,30.5 24.000598,30.5 30.500007,24.0006 30.5,15.999999 c 0,-8.000601 -6.499402,-14.5 -14.499999,-14.5 z" fill="url(#radialGradient3805)" color="#000000"/>
  <path d="m 30.500001,16 c 0,-8.0005985 -6.499399,-14.5000005 -14.5,-14.5000005 -8.0006015,0 -14.5000035,6.499402 -14.5000015,14.5000005 0,8.000598 6.4994,14.500007 14.5000015,14.5 8.000601,0 14.5,-6.499402 14.5,-14.5 z" inkscape:connector-curvature="0" id="path3866" opacity="0.91" fill="none" stroke="url(#linearGradient3902)" color="#000000"/>
  <path d="M 16 2 C 8.2701871 1.9999932 2 8.2701906 2 16 C 2 16.168178 2.0253633 16.333253 2.03125 16.5 C 2.295928 9.0027282 8.4383652 2.9999933 16 3 C 23.561635 3 29.704072 9.0027285 29.96875 16.5 C 29.974637 16.333253 30 16.168178 30 16 C 30 8.2701906 23.729813 2 16 2 z " id="path3101" opacity="0.2" fill="#ffffff" color="#000000"/>
 </g>
 <g inkscape:groupmode="layer" id="layer2" inkscape:label="Symbol">
  <g id="g4033" transform="matrix(1,0,0,-1,-11,31)">
   <path d="M 26.989917,1.2435693 A 6.1430022,13.902584 0 0 0 25.758898,28.756517" inkscape:connector-curvature="0" id="path3805" fill="none" stroke="url(#linearGradient4031)" stroke-linejoin="round" stroke-linecap="round"/>
   <path d="M 29.613717,27.739769 A 6.1430022,13.902584 0 0 0 26.996842,1.2435227" inkscape:connector-curvature="0" id="path3609" fill="none" stroke="url(#linearGradient4028)" stroke-linejoin="round" stroke-linecap="round"/>
   <path d="m 28.466687,27.331003 a 1.293126,1.293126 0 0 0 2.586252,0 1.293126,1.293126 0 1 0 -2.586252,0 z" inkscape:connector-curvature="0" id="path3775" stroke-opacity="0.521" fill="#ffffff" stroke="#ffffff" stroke-linejoin="round" stroke-linecap="round" color="#000000"/>
   <path d="M 18.910689,4.4696331 A 13.902584,6.1430022 45 0 1 36.569844,25.215037" inkscape:connector-curvature="0" id="path3801" fill="none" stroke="url(#linearGradient4024)" stroke-linejoin="round" stroke-linecap="round"/>
   <path d="M 36.842209,24.976678 A 13.902584,6.1430022 45 0 1 16.277885,7.5163604" inkscape:connector-curvature="0" id="path3611" fill="none" stroke="url(#linearGradient4021)" stroke-linejoin="round" stroke-linecap="round"/>
   <path d="m 17.635297,7.9725644 a 1.2931258,1.2931258 0 0 1 -2.586251,0 1.2931258,1.2931258 0 1 1 2.586251,0 z" inkscape:connector-curvature="0" id="path3781" stroke-opacity="0.521" fill="#ffffff" stroke="#ffffff" stroke-linejoin="round" stroke-linecap="round" color="#000000"/>
   <path d="M 36.96666,5.6545467 A 6.1430022,13.902584 45 0 0 16.412625,20.496507" inkscape:connector-curvature="0" id="path3613" fill="none" stroke="url(#linearGradient4017)" stroke-linejoin="round" stroke-linecap="round"/>
   <path d="m 16.222448,22.661548 a 1.2931257,1.2931257 0 0 0 0,-2.586251 1.2931257,1.2931257 0 1 0 0,2.586251 z" inkscape:connector-curvature="0" id="path3615" stroke-opacity="0.521" fill="#ffffff" stroke="#ffffff" stroke-linejoin="round" stroke-linecap="round"/>
   <path d="M 17.086254,25.060444 A 6.1430022,13.902584 45 0 0 37.146795,5.9223341" inkscape:connector-curvature="0" id="path3787" fill="none" stroke="url(#linearGradient4013)" stroke-linejoin="round" stroke-linecap="round"/>
   <path d="m 38.852839,11.927246 a 13.902584,6.1430022 0 0 0 -25.72862,3.506071" inkscape:connector-curvature="0" id="path2835" fill="none" stroke="url(#linearGradient4010)" stroke-linejoin="round" stroke-linecap="round"/>
   <path d="m 40.38866,12.1756 a 1.2931257,1.2931257 0 0 0 -2.586248,0 1.2931257,1.2931257 0 1 0 2.586248,0 z" inkscape:connector-curvature="0" id="path3722" stroke-opacity="0.521" fill="#ffffff" stroke="#ffffff" stroke-linejoin="round" stroke-linecap="round" color="#000000"/>
   <path d="M 13.192682,15.819015 A 13.902584,6.1430022 0 0 0 40.890989,15.500737" inkscape:connector-curvature="0" id="path3797" fill="none" stroke="url(#linearGradient4006)" stroke-linejoin="round" stroke-linecap="round"/>
  </g>
 </g>
</svg>
