<?xml version="1.0" encoding="UTF-8" standalone="no"?>
<svg xmlns="http://www.w3.org/2000/svg" xmlns:xlink="http://www.w3.org/1999/xlink" xmlns:sodipodi="http://sodipodi.sourceforge.net/DTD/sodipodi-0.dtd" xmlns:inkscape="http://www.inkscape.org/namespaces/inkscape" width="32" height="32" version="1.1">
 <defs id="defs5016">
  <linearGradient id="linearGradient4240">
   <stop id="stop4242" stop-color="#a348b1"/>
   <stop id="stop4250" offset="0.25" stop-color="#a348b1" stop-opacity="0"/>
   <stop id="stop4248" offset="0.75" stop-color="#a348b1" stop-opacity="0"/>
   <stop offset="1" id="stop4244" stop-color="#a348b1"/>
  </linearGradient>
  <linearGradient inkscape:collect="always" id="linearGradient3973">
   <stop id="stop3975"/>
   <stop offset="1" id="stop3977" stop-opacity="0"/>
  </linearGradient>
  <linearGradient id="linearGradient3925">
   <stop id="stop3927" stop-color="#ebebeb"/>
   <stop id="stop3929" offset="1" stop-color="#787878"/>
  </linearGradient>
  <linearGradient id="linearGradient3913">
   <stop id="stop3915"/>
   <stop id="stop3933" offset="0.5" stop-color="#171717"/>
   <stop offset="1" id="stop3917" stop-color="#232323"/>
  </linearGradient>
  <linearGradient id="linearGradient3119">
   <stop id="stop3121" stop-color="#232323"/>
   <stop id="stop3123" offset="0.838" stop-color="#535353"/>
   <stop id="stop3125" offset="0.838" stop-color="#676767"/>
   <stop offset="1" id="stop3127" stop-color="#676767"/>
  </linearGradient>
  <linearGradient id="linearGradient4033">
   <stop id="stop4035" stop-color="#ffffff"/>
   <stop offset="1" id="stop4037" stop-color="#0051ff"/>
  </linearGradient>
  <linearGradient id="linearGradient3107">
   <stop id="stop3109" stop-color="#232323"/>
   <stop offset="0.783" id="stop3111" stop-color="#535353"/>
   <stop offset="0.783" id="stop3113" stop-color="#676767"/>
   <stop id="stop3115" offset="1" stop-color="#676767"/>
  </linearGradient>
  <linearGradient id="linearGradient3988-5">
   <stop id="stop3990-5" stop-color="#ededed"/>
   <stop offset="1" id="stop3992-0" stop-color="#fafafa"/>
  </linearGradient>
  <linearGradient id="linearGradient3960">
   <stop id="stop3962" stop-opacity="0"/>
   <stop id="stop3970" offset="0.5"/>
   <stop offset="1" id="stop3964" stop-opacity="0"/>
  </linearGradient>
  <radialGradient inkscape:collect="always" xlink:href="#linearGradient3973" id="radialGradient4001" gradientUnits="userSpaceOnUse" gradientTransform="matrix(1,0,0,0.75,0,10.875)" cx="9" cy="43.5" r="2"/>
  <linearGradient inkscape:collect="always" xlink:href="#linearGradient3988-5" id="linearGradient5128" gradientUnits="userSpaceOnUse" gradientTransform="matrix(0.12419355,0,0,0.12564103,-2.238722,-4.461562)" y1="290.2" x2="0" y2="35.51"/>
  <radialGradient inkscape:collect="always" xlink:href="#linearGradient3973" id="radialGradient5914" gradientUnits="userSpaceOnUse" gradientTransform="matrix(1,0,0,0.75,-4,-2.125)" cx="9" cy="43.5" r="2"/>
  <radialGradient inkscape:collect="always" xlink:href="#linearGradient3973" id="radialGradient5917" gradientUnits="userSpaceOnUse" gradientTransform="matrix(1,0,0,0.75,-13,-2.125)" cx="40" cy="43.5" r="2"/>
  <linearGradient inkscape:collect="always" xlink:href="#linearGradient3960" id="linearGradient5920" gradientUnits="userSpaceOnUse" y1="45" x2="0" y2="42" gradientTransform="translate(-4,-13)"/>
  <linearGradient id="linearGradient3100">
   <stop id="stop3102" stop-color="#ffffff"/>
   <stop offset="1" id="stop3104" stop-color="#a7a7a7"/>
  </linearGradient>
  <linearGradient id="linearGradient3916">
   <stop id="stop3918" stop-color="#232323"/>
   <stop id="stop3926" offset="0.8" stop-color="#535353"/>
   <stop id="stop3924" offset="0.8" stop-color="#676767"/>
   <stop offset="1" id="stop3920" stop-color="#676767"/>
  </linearGradient>
  <linearGradient inkscape:collect="always" xlink:href="#linearGradient3107" id="linearGradient3101" gradientUnits="userSpaceOnUse" gradientTransform="translate(75,33.000996)" y1="19" x2="0" y2="9"/>
  <linearGradient inkscape:collect="always" xlink:href="#linearGradient3988-5" id="linearGradient3105" gradientUnits="userSpaceOnUse" gradientTransform="matrix(0.48571543,0,0,-0.26367377,73.342869,58.667687)" y1="0.985" x2="0" y2="47.01"/>
  <radialGradient inkscape:collect="always" xlink:href="#linearGradient3973" id="radialGradient3927" gradientUnits="userSpaceOnUse" gradientTransform="matrix(1,0,0,0.75,-7,-5.125)" cx="9" cy="43.5" r="2"/>
  <radialGradient inkscape:collect="always" xlink:href="#linearGradient3973" id="radialGradient3930" gradientUnits="userSpaceOnUse" gradientTransform="matrix(1,0,0,0.75,-10,-5.125)" cx="40" cy="43.5" r="2"/>
  <linearGradient inkscape:collect="always" xlink:href="#linearGradient3960" id="linearGradient3933" gradientUnits="userSpaceOnUse" gradientTransform="matrix(1.2727273,0,0,1,-9.4545455,-16)" y1="45" x2="0" y2="42"/>
  <radialGradient inkscape:collect="always" xlink:href="#linearGradient4033" id="radialGradient4043" cx="4.672" cy="19" r="1" gradientUnits="userSpaceOnUse" gradientTransform="matrix(-1.1949773,3.9999996e-7,-4.6787414e-7,-1.3977476,10.255284,45.557202)"/>
  <linearGradient inkscape:collect="always" xlink:href="#linearGradient3119" id="linearGradient3129" gradientUnits="userSpaceOnUse" gradientTransform="matrix(1.5254237,0,0,1.5254237,-1.7714325,1.9657814)" x1="11" y1="19" x2="10.995" y2="-1.289"/>
  <radialGradient inkscape:collect="always" xlink:href="#linearGradient3913" id="radialGradient3943" gradientUnits="userSpaceOnUse" cx="16" cy="20" r="6"/>
  <radialGradient inkscape:collect="always" xlink:href="#linearGradient3100" id="radialGradient3961" cx="16" cy="19" r="2" gradientUnits="userSpaceOnUse"/>
  <linearGradient inkscape:collect="always" xlink:href="#linearGradient3925" id="linearGradient4001" gradientUnits="userSpaceOnUse" x1="10" x2="22"/>
  <linearGradient inkscape:collect="always" xlink:href="#linearGradient3973" id="linearGradient4041" gradientUnits="userSpaceOnUse" x1="10" x2="22"/>
  <radialGradient inkscape:collect="always" xlink:href="#linearGradient3973" id="radialGradient4087" cx="14" cy="22" r="6" gradientUnits="userSpaceOnUse" gradientTransform="matrix(2,0,0,2,-14,-22)"/>
  <radialGradient inkscape:collect="always" xlink:href="#linearGradient3973" id="radialGradient4094" gradientUnits="userSpaceOnUse" gradientTransform="matrix(1,0,0,0.75,-3,-2.125)" cx="9" cy="43.5" r="2"/>
  <radialGradient inkscape:collect="always" xlink:href="#linearGradient3973" id="radialGradient4097" gradientUnits="userSpaceOnUse" gradientTransform="matrix(1,0,0,0.75,-14,-2.125)" cx="40" cy="43.5" r="2"/>
  <linearGradient inkscape:collect="always" xlink:href="#linearGradient3960" id="linearGradient4100" gradientUnits="userSpaceOnUse" gradientTransform="matrix(1.2727273,0,0,1,-9.454545,-13)" y1="45" x2="0" y2="42"/>
  <linearGradient inkscape:collect="always" xlink:href="#linearGradient4240" id="linearGradient4246" x1="5" x2="27" gradientUnits="userSpaceOnUse"/>
  <linearGradient inkscape:collect="always" xlink:href="#linearGradient4240" id="linearGradient4254" gradientUnits="userSpaceOnUse" x1="5" x2="27" gradientTransform="matrix(1.3809524,0,0,1.3809524,-6.0952384,-7.619048)"/>
  <linearGradient inkscape:collect="always" xlink:href="#linearGradient4240" id="linearGradient4258" gradientUnits="userSpaceOnUse" x1="5" x2="27" gradientTransform="matrix(0.61904764,0,0,0.61904764,6.0952379,7.6190474)"/>
  <linearGradient inkscape:collect="always" xlink:href="#linearGradient4240" id="linearGradient4421" gradientUnits="userSpaceOnUse" x1="5" x2="27" gradientTransform="matrix(1.0952381,0,0,1.0952381,-1.5238098,-5.9047635)"/>
  <linearGradient inkscape:collect="always" xlink:href="#linearGradient4240" id="linearGradient4423" gradientUnits="userSpaceOnUse" gradientTransform="matrix(0.80952385,0,0,0.80952385,3.047619,-0.1904793)" x1="5" x2="27"/>
  <linearGradient inkscape:collect="always" xlink:href="#linearGradient4240" id="linearGradient4427" gradientUnits="userSpaceOnUse" gradientTransform="matrix(0.52380956,0,0,0.52380956,7.6190476,5.523807)" x1="5" x2="27"/>
 </defs>
 <metadata id="metadata5019"/>
 <g id="layer1" inkscape:label="Background" inkscape:groupmode="layer">
  <path d="m 6,29 20,0 0,3 -20,0 z" id="rect3938-8" inkscape:connector-curvature="0" sodipodi:nodetypes="ccccc" opacity="0.4" fill="url(#linearGradient4100)"/>
  <path d="m 26,29 0,3 0.5,0 C 27.331,32 28,31.331 28,30.5 28,29.669 27.331,29 26.5,29 z" id="rect3940-0" inkscape:connector-curvature="0" sodipodi:nodetypes="ccsssc" opacity="0.4" fill="url(#radialGradient4097)"/>
  <path d="M 5.40625,29 C 4.6271875,29 4,29.627187 4,30.40625 l 0,0.1875 C 4,31.372813 4.6271875,32 5.40625,32 L 6,32 6,29 z" id="rect3942-3" inkscape:connector-curvature="0" sodipodi:nodetypes="ssssccs" opacity="0.4" fill="url(#radialGradient4094)"/>
  <path d="M 5.5,4.955878 5.5,30.5 l 21,0 0,-25.455878 L 24,2.5 7.9965759,2.5 z" id="rect3145" inkscape:connector-curvature="0" sodipodi:nodetypes="ccccccc" fill="url(#linearGradient3129)"/>
  <path d="m 5.9997524,6.000002 19.9996016,0 0,-0.999999 -19.9996016,0 z" id="rect4753" inkscape:connector-curvature="0" sodipodi:nodetypes="ccccc" opacity="0.2" fill="#ffffff"/>
  <path sodipodi:nodetypes="ccccccc" inkscape:connector-curvature="0" id="path4102" d="M 5.5,4.955878 5.5,30.5 l 21,0 0,-25.455878 L 24,2.5 7.9965759,2.5 z" opacity="0.61" fill="none" stroke="#000000"/>
 </g>
 <g inkscape:groupmode="layer" id="layer2" inkscape:label="Symbol">
  <path sodipodi:type="arc" id="path3938" sodipodi:cx="16" sodipodi:cy="20" sodipodi:rx="6" sodipodi:ry="6" d="m 22,20 a 6,6 0 1 1 -12,0 6,6 0 1 1 12,0 z" transform="matrix(0,1.3333333,-1.3333333,0,42.666666,-5.333333)" opacity="0.41" fill="none" stroke="#000000" stroke-width="1.5"/>
  <path transform="matrix(0,1.3333333,-1.3333333,0,42.666666,-5.3333326)" d="m 22,20 a 6,6 0 1 1 -12,0 6,6 0 1 1 12,0 z" sodipodi:ry="6" sodipodi:rx="6" sodipodi:cy="20" sodipodi:cx="16" id="path3921" sodipodi:type="arc" fill="url(#linearGradient4001)" fill-rule="evenodd"/>
  <path sodipodi:type="arc" id="path3143" sodipodi:cx="16" sodipodi:cy="20" sodipodi:rx="6" sodipodi:ry="6" d="m 22,20 a 6,6 0 1 1 -12,0 6,6 0 1 1 12,0 z" transform="matrix(0,1,-1,0,36,0)" fill="url(#radialGradient3943)" fill-rule="evenodd"/>
  <path d="m 18,20 a 2,2 0 1 1 -4,0 2,2 0 1 1 4,0 z" sodipodi:ry="2" sodipodi:rx="2" sodipodi:cy="20" sodipodi:cx="16" id="path3963" sodipodi:type="arc" transform="translate(0,-3)" opacity="0.2"/>
  <path d="m 16,10 c -3.313708,0 -6,2.686292 -6,6 0,3.313708 2.686292,6 6,6 3.313708,0 6,-2.686292 6,-6 0,-3.313708 -2.686292,-6 -6,-6 z m 0,1 c 2.761424,0 5,2.238576 5,5 0,2.761424 -2.238576,5 -5,5 -2.761424,0 -5,-2.238576 -5,-5 0,-2.761424 2.238576,-5 5,-5 z" id="path3945" inkscape:connector-curvature="0" opacity="0.2" fill-rule="evenodd"/>
  <path d="m 16,8 c -4.418278,0 -8,3.581722 -8,8 0,0.170091 0.02079,0.332546 0.03125,0.5 C 8.2924933,12.317655 11.751813,9 16,9 c 4.248187,0 7.707507,3.317655 7.96875,7.5 C 23.97921,16.332546 24,16.170091 24,16 24,11.581722 20.418278,8 16,8 z" id="path4080" inkscape:connector-curvature="0" opacity="0.4" fill="#ffffff" fill-rule="evenodd"/>
  <path sodipodi:type="arc" id="path3952" sodipodi:cx="16" sodipodi:cy="20" sodipodi:rx="2" sodipodi:ry="2" d="m 18,20 a 2,2 0 1 1 -4,0 2,2 0 1 1 4,0 z" transform="translate(0,-4)" fill="url(#radialGradient3961)"/>
  <path transform="matrix(0,0.25,-0.25,0,14.5,22.5)" d="m 22,20 a 6,6 0 1 1 -12,0 6,6 0 1 1 12,0 z" sodipodi:ry="6" sodipodi:rx="6" sodipodi:cy="20" sodipodi:cx="16" id="path3969" sodipodi:type="arc" fill="url(#radialGradient4087)" fill-rule="evenodd"/>
  <g id="g4053" transform="translate(0,-4)">
   <path transform="matrix(0,0.08333333,-0.08333333,0,22.616414,23.616414)" d="m 22,20 c 0,3.313708 -2.686292,6 -6,6 -3.313708,0 -6,-2.686292 -6,-6 0,-3.313708 2.686292,-6 6,-6 3.313708,0 6,2.686292 6,6 z" sodipodi:ry="6" sodipodi:rx="6" sodipodi:cy="20" sodipodi:cx="16" id="path3985" sodipodi:type="arc" opacity="0.5" fill="url(#linearGradient4041)" fill-rule="evenodd"/>
   <path sodipodi:type="arc" id="path3989" sodipodi:cx="16" sodipodi:cy="20" sodipodi:rx="6" sodipodi:ry="6" d="m 22,20 c 0,3.313708 -2.686292,6 -6,6 -3.313708,0 -6,-2.686292 -6,-6 0,-3.313708 2.686292,-6 6,-6 3.313708,0 6,2.686292 6,6 z" transform="matrix(0,0.08333333,-0.08333333,0,12.716919,13.716919)" opacity="0.5" fill="url(#linearGradient4041)" fill-rule="evenodd"/>
   <path sodipodi:type="arc" id="path4025" sodipodi:cx="16" sodipodi:cy="20" sodipodi:rx="6" sodipodi:ry="6" d="m 22,20 c 0,3.313708 -2.686292,6 -6,6 -3.313708,0 -6,-2.686292 -6,-6 0,-3.313708 2.686292,-6 6,-6 3.313708,0 6,2.686292 6,6 z" transform="matrix(0,0.08333333,0.08333333,0,9.3835867,23.616414)" opacity="0.5" fill="url(#linearGradient4041)" fill-rule="evenodd"/>
   <path transform="matrix(0,0.08333333,0.08333333,0,19.283082,13.716919)" d="m 22,20 c 0,3.313708 -2.686292,6 -6,6 -3.313708,0 -6,-2.686292 -6,-6 0,-3.313708 2.686292,-6 6,-6 3.313708,0 6,2.686292 6,6 z" sodipodi:ry="6" sodipodi:rx="6" sodipodi:cy="20" sodipodi:cx="16" id="path4027" sodipodi:type="arc" opacity="0.5" fill="url(#linearGradient4041)" fill-rule="evenodd"/>
  </g>
  <path d="m 16,14 c -1.104569,0 -2,0.895431 -2,2 0,0.172589 0.0214,0.340241 0.0625,0.5 C 14.284463,15.637301 15.068019,15 16,15 c 0.931981,0 1.715537,0.637301 1.9375,1.5 C 17.978604,16.340241 18,16.172589 18,16 18,14.895431 17.104569,14 16,14 z" id="path4075" inkscape:connector-curvature="0" opacity="0.4" fill="#ffffff"/>
  <path id="path4085" d="M 16,25 C 11.581722,25 8,21.418278 8,17 8,16.829909 8.02079,16.667454 8.03125,16.5 8.2924933,20.682345 11.751813,24 16,24 20.248187,24 23.707507,20.682345 23.96875,16.5 23.97921,16.667454 24,16.829909 24,17 c 0,4.418278 -3.581722,8 -8,8 z" inkscape:connector-curvature="0" opacity="0.4" fill-rule="evenodd"/>
  <path sodipodi:type="arc" id="path4089" sodipodi:cx="16" sodipodi:cy="20" sodipodi:rx="6" sodipodi:ry="6" d="m 22,20 a 6,6 0 1 1 -12,0 6,6 0 1 1 12,0 z" transform="matrix(0,0.25,-0.25,0,27.5,22.5)" fill="url(#radialGradient4087)" fill-rule="evenodd"/>
 </g>
</svg>
