<?xml version="1.0" encoding="UTF-8" standalone="no"?>
<svg xmlns="http://www.w3.org/2000/svg" xmlns:xlink="http://www.w3.org/1999/xlink" xmlns:sodipodi="http://sodipodi.sourceforge.net/DTD/sodipodi-0.dtd" xmlns:inkscape="http://www.inkscape.org/namespaces/inkscape" version="1.1" width="32" height="32">
 <defs id="defs4250">
  <linearGradient id="linearGradient3904">
   <stop id="stop3906" stop-color="#858585"/>
   <stop id="stop3908" offset="1" stop-color="#8e8e8e"/>
  </linearGradient>
  <linearGradient inkscape:collect="always" id="linearGradient3812">
   <stop id="stop3814" stop-color="#ffffff"/>
   <stop offset="1" id="stop3816" stop-color="#ffffff" stop-opacity="0"/>
  </linearGradient>
  <linearGradient inkscape:collect="always" xlink:href="#linearGradient3812" id="linearGradient3818" x1="2" x2="30" gradientUnits="userSpaceOnUse" gradientTransform="matrix(0,1,-1,0,32.000001,8.5e-7)"/>
  <radialGradient inkscape:collect="always" xlink:href="#linearGradient26113-9-3-1" id="radialGradient3755" gradientUnits="userSpaceOnUse" gradientTransform="matrix(1,0,0,0.37,0,24.5124)" cx="24.85" cy="38.909" r="20.2"/>
  <linearGradient inkscape:collect="always" id="linearGradient26113-9-3-1">
   <stop id="stop26115-7-7-9" stop-color="#000000"/>
   <stop offset="1" id="stop26117-3-7-8" stop-color="#000000" stop-opacity="0"/>
  </linearGradient>
  <radialGradient r="20.2" cy="38.909" cx="24.85" gradientTransform="matrix(1.00851,0,0,0.373148,-0.211403,24.39)" gradientUnits="userSpaceOnUse" id="radialGradient3972" xlink:href="#linearGradient26113-9-3-1" inkscape:collect="always"/>
  <linearGradient inkscape:collect="always" xlink:href="#linearGradient3904" id="linearGradient3902" x1="1" x2="31" gradientUnits="userSpaceOnUse" gradientTransform="matrix(0,-1,1,0,5.0000306e-7,32)"/>
  <linearGradient id="linearGradient3901">
   <stop id="stop3903" stop-color="#d2d2d2"/>
   <stop offset="1" id="stop3905" stop-color="#ffffff"/>
  </linearGradient>
  <linearGradient inkscape:collect="always" xlink:href="#linearGradient3901" id="linearGradient3781" x1="1.5" x2="30.5" gradientUnits="userSpaceOnUse" gradientTransform="matrix(0,-1,1,0,5.0000306e-7,32)"/>
  <radialGradient inkscape:collect="always" xlink:href="#linearGradient3901-7" id="radialGradient3789" cx="24" cy="18.472" r="19.5" gradientUnits="userSpaceOnUse" gradientTransform="matrix(-1.846154,-5.2072031e-8,4.5634652e-8,-1.6180158,68.307698,41.888255)"/>
  <linearGradient id="linearGradient3901-7">
   <stop id="stop3903-7" stop-color="#ffffff"/>
   <stop id="stop3791" offset="0.5" stop-color="#f5f5f5"/>
   <stop offset="1" id="stop3905-7" stop-color="#e1e1e1"/>
  </linearGradient>
  <radialGradient r="19.5" cy="18.472" cx="24" gradientTransform="matrix(-1.3727812,-3.8720228e-8,3.3933459e-8,-1.20314,48.946748,29.301523)" gradientUnits="userSpaceOnUse" id="radialGradient3817" xlink:href="#linearGradient3901-7" inkscape:collect="always"/>
 </defs>
 <metadata id="metadata4253"/>
 <g inkscape:groupmode="layer" id="layer1" inkscape:label="Background">
  <path sodipodi:type="arc" id="path8606" sodipodi:cx="24.849752" sodipodi:cy="38.908627" sodipodi:rx="20.203051" sodipodi:ry="7.4751287" d="m 45.052803,38.908627 a 20.203051,7.4751287 0 1 1 -40.4061012,0 20.203051,7.4751287 0 1 1 40.4061012,0 z" transform="matrix(0.51081599,0,0,0.46595786,3.1704533,10.023687)" fill="url(#radialGradient3972)"/>
  <path transform="matrix(0.69053217,0,0,0.62989172,-1.2951468,3.2832567)" d="m 45.052803,38.908627 a 20.203051,7.4751287 0 1 1 -40.4061012,0 20.203051,7.4751287 0 1 1 40.4061012,0 z" sodipodi:ry="7.4751287" sodipodi:rx="20.203051" sodipodi:cy="38.908627" sodipodi:cx="24.849752" id="path8608" sodipodi:type="arc" opacity="0.518" fill="url(#radialGradient3755)"/>
  <path id="path6495" inkscape:connector-curvature="0" d="M 1.5,15.999486 C 1.5,24.007873 7.99235,30.5 15.999818,30.5 24.008018,30.5 30.5,24.007799 30.5,15.999486 30.5,7.991467 24.008018,1.5 15.999818,1.5 7.99235,1.5 1.5,7.991467 1.5,15.999486 l 0,0 z" fill="url(#radialGradient3817)"/>
  <path d="m 30.500001,15.999999 c 0,8.000599 -6.499399,14.500001 -14.5,14.500001 -8.0006015,0 -14.5000035,-6.499402 -14.5000015,-14.500001 0,-8.0005975 6.4994,-14.5000065 14.5000015,-14.4999995 8.000601,0 14.5,6.499402 14.5,14.4999995 z" inkscape:connector-curvature="0" id="path3866" opacity="0.41" fill="none" stroke="#000000" color="#000000"/>
  <path d="M 16 2 C 8.2701871 1.9999932 2 8.2701906 2 16 C 2 16.168178 2.0253633 16.333253 2.03125 16.5 C 2.295928 9.0027282 8.4383652 2.9999933 16 3 C 23.561635 3 29.704072 9.0027285 29.96875 16.5 C 29.974637 16.333253 30 16.168178 30 16 C 30 8.2701906 23.729813 2 16 2 z " id="path3030" opacity="0.4" fill="#ffffff"/>
 </g>
 <g inkscape:groupmode="layer" id="layer2" inkscape:label="Symbol">
  <path d="m 8,9 8,8 7.499998,-5.625" id="path3953" inkscape:connector-curvature="0" sodipodi:nodetypes="ccc" opacity="0.6" fill="none" stroke="#000000" stroke-linejoin="round" stroke-linecap="round"/>
  <path d="M 16,17 23.999998,8" id="path4005-8" inkscape:connector-curvature="0" sodipodi:nodetypes="cc" fill="none" stroke="#dc0000" stroke-width="0.5"/>
 </g>
</svg>
