<?xml version="1.0" encoding="UTF-8" standalone="no"?>
<svg
   xmlns:dc="http://purl.org/dc/elements/1.1/"
   xmlns:cc="http://creativecommons.org/ns#"
   xmlns:rdf="http://www.w3.org/1999/02/22-rdf-syntax-ns#"
   xmlns:svg="http://www.w3.org/2000/svg"
   xmlns="http://www.w3.org/2000/svg"
   xmlns:xlink="http://www.w3.org/1999/xlink"
   id="svg4248"
   height="32"
   width="32"
   version="1.1">
  <defs
     id="defs4250">
    <linearGradient
       id="linearGradient3413">
      <stop
         id="stop3415"
         offset="0"
         style="stop-color:#dddddd;stop-opacity:1;" />
      <stop
         id="stop3417"
         offset="1"
         style="stop-color:#f2f2f2;stop-opacity:1;" />
    </linearGradient>
    <linearGradient
       id="linearGradient3952">
      <stop
         id="stop3954"
         offset="0"
         style="stop-color:#000000;stop-opacity:1;" />
      <stop
         id="stop3956"
         offset="1"
         style="stop-color:#000000;stop-opacity:0;" />
    </linearGradient>
    <linearGradient
       id="linearGradient3944">
      <stop
         id="stop3946"
         offset="0"
         style="stop-color:#000000;stop-opacity:1;" />
      <stop
         id="stop3948"
         offset="1"
         style="stop-color:#000000;stop-opacity:0;" />
    </linearGradient>
    <linearGradient
       id="linearGradient3960">
      <stop
         id="stop3962"
         offset="0"
         style="stop-color:#000000;stop-opacity:0;" />
      <stop
         style="stop-color:#000000;stop-opacity:1;"
         offset="0.5"
         id="stop3970" />
      <stop
         id="stop3964"
         offset="1"
         style="stop-color:#000000;stop-opacity:0;" />
    </linearGradient>
    <linearGradient
       y2="42"
       x2="25"
       y1="45"
       x1="25"
       gradientTransform="translate(-7,-14.000001)"
       gradientUnits="userSpaceOnUse"
       id="linearGradient3921"
       xlink:href="#linearGradient3960" />
    <radialGradient
       r="2"
       fy="43.5"
       fx="9"
       cy="43.5"
       cx="9"
       gradientTransform="matrix(1,0,0,0.75,-6,-3.125001)"
       gradientUnits="userSpaceOnUse"
       id="radialGradient3924"
       xlink:href="#linearGradient3944" />
    <radialGradient
       r="2"
       fy="43.5"
       fx="40"
       cy="43.5"
       cx="40"
       gradientTransform="matrix(1,0,0,0.75,-11,-3.125001)"
       gradientUnits="userSpaceOnUse"
       id="radialGradient3927"
       xlink:href="#linearGradient3952" />
    <linearGradient
       id="outerBackgroundGradient-6-9">
      <stop
         id="stop3864-8-6-0-7"
         offset="0"
         style="stop-color:#c23021;stop-opacity:1;" />
      <stop
         id="stop3866-9-1-7-6"
         offset="1"
         style="stop-color:#e74c3c;stop-opacity:1;" />
    </linearGradient>
    <linearGradient
       y2="16"
       x2="29.5"
       y1="16"
       x1="2.5"
       gradientTransform="matrix(0,-1,1,0,0,32)"
       gradientUnits="userSpaceOnUse"
       id="linearGradient4271"
       xlink:href="#linearGradient3413" />
    <linearGradient
       y2="16"
       x2="29.5"
       y1="16"
       x1="2.5"
       gradientTransform="matrix(0,-1,1,0,0,32)"
       gradientUnits="userSpaceOnUse"
       id="linearGradient4286"
       xlink:href="#outerBackgroundGradient-6-9" />
    <clipPath
       id="clipPath4307"
       clipPathUnits="userSpaceOnUse">
      <path
         style="color:#000000;fill:#36e12b;fill-opacity:1;fill-rule:nonzero;stroke:none;stroke-width:0.84323651;marker:none;visibility:visible;display:inline;overflow:visible;enable-background:accumulate"
         id="path4309"
         d="m 168,265 c -3.86599,0 -7,3.13401 -7,7 0,3.86599 3.13401,7 7,7 3.866,0 7,-3.13401 7,-7 0,-3.86599 -3.134,-7 -7,-7 z m 3.3125,3.0625 1.5625,1.40625 -5.25,6.9375 -4.0625,-3.5 1.34375,-1.78125 2.375,2.0625 4.03125,-5.125 z" />
    </clipPath>
    <linearGradient
       xlink:href="#linearGradient3413"
       id="linearGradient3039"
       gradientUnits="userSpaceOnUse"
       gradientTransform="matrix(0.92857143,0,0,0.92857143,-131,-227.57143)"
       x1="168"
       y1="280"
       x2="168"
       y2="264" />
  </defs>
  <metadata
     id="metadata4253">
    <rdf:RDF>
      <cc:Work
         rdf:about="">
        <dc:format>image/svg+xml</dc:format>
        <dc:type
           rdf:resource="http://purl.org/dc/dcmitype/StillImage" />
        <dc:title />
      </cc:Work>
    </rdf:RDF>
  </metadata>
  <g
     id="layer1">
    <g
       id="g3930">
      <path
         style="opacity:0.3;fill:url(#radialGradient3927);fill-opacity:1;stroke:none"
         d="m 29,27.999999 0,3 0.5,0 c 0.831,0 1.5,-0.669 1.5,-1.5 0,-0.831 -0.669,-1.5 -1.5,-1.5 l -0.5,0 z"
         id="rect3940" />
      <path
         style="opacity:0.3;fill:url(#radialGradient3924);fill-opacity:1;stroke:none"
         d="M 2.40625,27.999999 C 1.6271875,27.999999 1,28.627186 1,29.406249 l 0,0.1875 c 0,0.779063 0.6271875,1.40625 1.40625,1.40625 l 0.59375,0 0,-3 -0.59375,0 z"
         id="rect3942" />
      <path
         style="opacity:0.3;fill:url(#linearGradient3921);fill-opacity:1;stroke:none"
         d="M 2.9998571,27.999999 29,28 l 0,3 -26.0001429,-1e-6 z"
         id="rect3938" />
    </g>
    <path
       id="path4269"
       d="M 2.5 9 L 2.5 28 C 2.5 28.831 3.169 29.5 4 29.5 L 28 29.5 C 28.831 29.5 29.5 28.831 29.5 28 L 29.5 9 L 2.5 9 z "
       style="fill:url(#linearGradient4271);fill-opacity:1;fill-rule:evenodd;stroke:none" />
    <path
       id="path3951"
       d="M 4 3 C 3.4373514 3 3 3.4373514 3 4 L 3 28 C 3 28.562649 3.4373514 29 4 29 L 28 29 C 28.562649 29 29 28.562649 29 28 L 29 4 C 29 3.4373514 28.562649 3 28 3 L 4 3 z M 4 4 L 28 4 L 28 28 L 4 28 L 4 4 z "
       style="fill:#ffffff;fill-opacity:1;fill-rule:evenodd;stroke:none;opacity:0.1" />
    <path
       style="opacity:0.1;fill:#ffffff;fill-opacity:1;fill-rule:evenodd;stroke:none"
       d="M 4,29 C 3.4373514,29 3,28.562649 3,28 l 0,-1 c 0,0.562649 0.4373514,1 1,1 l 24,0 c 0.562649,0 1,-0.437351 1,-1 l 0,1 c 0,0.562649 -0.437351,1 -1,1 L 4,29 z"
       id="path3949" />
    <path
       id="path4275"
       d="M 2 9 L 2 28 C 2 29.099351 2.9006486 30 4 30 L 28 30 C 29.099351 30 30 29.099351 30 28 L 30 9 L 29 9 L 29 28 C 29 28.562649 28.562649 29 28 29 L 4 29 C 3.4373514 29 3 28.562649 3 28 L 3 9 L 2 9 z "
       style="font-size:medium;font-style:normal;font-variant:normal;font-weight:normal;font-stretch:normal;text-indent:0;text-align:start;text-decoration:none;line-height:normal;letter-spacing:normal;word-spacing:normal;text-transform:none;direction:ltr;block-progression:tb;writing-mode:lr-tb;text-anchor:start;baseline-shift:baseline;opacity:0.41000001;color:#000000;fill:#000000;fill-opacity:1;stroke:none;stroke-width:1;marker:none;visibility:visible;display:inline;overflow:visible;enable-background:accumulate;font-family:Sans;-inkscape-font-specification:Sans" />
    <path
       id="rect3894"
       d="M 4 2.5 C 3.169 2.5 2.5 3.169 2.5 4 L 2.5 9 L 29.5 9 L 29.5 4 C 29.5 3.169 28.831 2.5 28 2.5 L 4 2.5 z "
       style="fill:url(#linearGradient4286);fill-opacity:1;fill-rule:evenodd;stroke:none" />
    <path
       id="path3935"
       d="M 4 3 C 3.4373514 3 3 3.4373514 3 4 L 3 5 C 3 4.4373514 3.4373514 4 4 4 L 28 4 C 28.562649 4 29 4.4373514 29 5 L 29 4 C 29 3.4373514 28.562649 3 28 3 L 4 3 z "
       style="fill:#ffffff;fill-opacity:1;fill-rule:evenodd;stroke:none;opacity:0.10000000000000001" />
    <path
       id="path3906"
       d="M 4 2 C 2.9006486 2 2 2.9006486 2 4 L 2 9 L 3 9 L 3 4 C 3 3.4373514 3.4373514 3 4 3 L 28 3 C 28.562649 3 29 3.4373514 29 4 L 29 9 L 30 9 L 30 4 C 30 2.9006486 29.099351 2 28 2 L 4 2 z "
       style="font-size:medium;font-style:normal;font-variant:normal;font-weight:normal;font-stretch:normal;text-indent:0;text-align:start;text-decoration:none;line-height:normal;letter-spacing:normal;word-spacing:normal;text-transform:none;direction:ltr;block-progression:tb;writing-mode:lr-tb;text-anchor:start;baseline-shift:baseline;opacity:0.60999999999999999;color:#000000;fill:#8f0202;fill-opacity:1;stroke:none;stroke-width:1;marker:none;visibility:visible;display:inline;overflow:visible;enable-background:accumulate;font-family:Sans;-inkscape-font-specification:Sans" />
    <g
       transform="translate(3,-24)"
       id="g3925">
      <path
         transform="matrix(0.5,0,0,0.5,-1,26)"
         style="opacity:0.2;fill:#ffffff;fill-opacity:1;stroke:none"
         id="path3863"
         d="M 10,9 C 10,9.5522847 9.5522847,10 9,10 8.4477153,10 8,9.5522847 8,9 8,8.4477153 8.4477153,8 9,8 c 0.5522847,0 1,0.4477153 1,1 z" />
      <path
         d="M 10,9 C 10,9.5522847 9.5522847,10 9,10 8.4477153,10 8,9.5522847 8,9 8,8.4477153 8.4477153,8 9,8 c 0.5522847,0 1,0.4477153 1,1 z"
         id="path3859"
         style="fill:#ad3125;fill-opacity:1;stroke:none"
         transform="matrix(0.5,0,0,0.5,-1,25)" />
    </g>
    <rect
       ry="1"
       rx="0"
       y="8"
       x="2.5"
       height="1"
       width="27"
       id="rect3921"
       style="fill:#ad3125;fill-opacity:1;stroke:none" />
    <rect
       style="opacity:0.40000000000000002;fill:#ffffff;fill-opacity:1;stroke:none"
       id="rect3923"
       width="27"
       height="1"
       x="2.5"
       y="9"
       rx="0"
       ry="1" />
    <g
       id="g3929"
       transform="translate(22,-24)">
      <path
         d="M 10,9 C 10,9.5522847 9.5522847,10 9,10 8.4477153,10 8,9.5522847 8,9 8,8.4477153 8.4477153,8 9,8 c 0.5522847,0 1,0.4477153 1,1 z"
         id="path3931"
         style="opacity:0.2;fill:#ffffff;fill-opacity:1;stroke:none"
         transform="matrix(0.5,0,0,0.5,-1,26)" />
      <path
         transform="matrix(0.5,0,0,0.5,-1,25)"
         style="fill:#ad3125;fill-opacity:1;stroke:none"
         id="path3933"
         d="M 10,9 C 10,9.5522847 9.5522847,10 9,10 8.4477153,10 8,9.5522847 8,9 8,8.4477153 8.4477153,8 9,8 c 0.5522847,0 1,0.4477153 1,1 z" />
    </g>
  </g>
  <g
     id="layer2">
    <path
       style="fill:#ffffff;fill-opacity:1;stroke:none;opacity:0.2"
       d="m 5,13 0,1 0,12 1,0 2,0 1,0 18,0 0,-1 0,-2 0,-1 0,-2 0,-1 0,-2 0,-1 0,-2 0,-1 -19,0 -2,0 -1,0 z m 1,1 2,0 0,2 -2,0 0,-2 z m 3,0 2,0 0,2 -2,0 0,-2 z m 3,0 2,0 0,2 -2,0 0,-2 z m 3,0 2,0 0,2 -2,0 0,-2 z m 3,0 2,0 0,2 -2,0 0,-2 z m 3,0 2,0 0,2 -2,0 0,-2 z m 3,0 2,0 0,2 -2,0 0,-2 z m -18,3 2,0 0,2 -2,0 0,-2 z m 3,0 2,0 0,2 -2,0 0,-2 z m 3,0 2,0 0,2 -2,0 0,-2 z m 3,0 2,0 0,2 -2,0 0,-2 z m 3,0 2,0 0,2 -2,0 0,-2 z m 3,0 2,0 0,2 -2,0 0,-2 z m 3,0 2,0 0,2 -2,0 0,-2 z m -18,3 2,0 0,2 -2,0 0,-2 z m 3,0 2,0 0,2 -2,0 0,-2 z m 3,0 2,0 0,2 -2,0 0,-2 z m 3,0 2,0 0,2 -2,0 0,-2 z m 3,0 2,0 0,2 -2,0 0,-2 z m 3,0 2,0 0,2 -2,0 0,-2 z m 3,0 2,0 0,2 -2,0 0,-2 z m -18,3 2,0 0,2 -2,0 0,-2 z m 3,0 2,0 0,2 -2,0 0,-2 z m 3,0 2,0 0,2 -2,0 0,-2 z m 3,0 2,0 0,2 -2,0 0,-2 z m 3,0 2,0 0,2 -2,0 0,-2 z m 3,0 2,0 0,2 -2,0 0,-2 z m 3,0 2,0 0,2 -2,0 0,-2 z"
       id="path3106" />
    <path
       id="rect4307"
       d="M 5 12 L 5 13 L 5 25 L 6 25 L 8 25 L 9 25 L 27 25 L 27 24 L 27 22 L 27 21 L 27 19 L 27 18 L 27 16 L 27 15 L 27 13 L 27 12 L 8 12 L 6 12 L 5 12 z M 6 13 L 8 13 L 8 15 L 6 15 L 6 13 z M 9 13 L 11 13 L 11 15 L 9 15 L 9 13 z M 12 13 L 14 13 L 14 15 L 12 15 L 12 13 z M 15 13 L 17 13 L 17 15 L 15 15 L 15 13 z M 18 13 L 20 13 L 20 15 L 18 15 L 18 13 z M 21 13 L 23 13 L 23 15 L 21 15 L 21 13 z M 24 13 L 26 13 L 26 15 L 24 15 L 24 13 z M 6 16 L 8 16 L 8 18 L 6 18 L 6 16 z M 9 16 L 11 16 L 11 18 L 9 18 L 9 16 z M 12 16 L 14 16 L 14 18 L 12 18 L 12 16 z M 15 16 L 17 16 L 17 18 L 15 18 L 15 16 z M 18 16 L 20 16 L 20 18 L 18 18 L 18 16 z M 21 16 L 23 16 L 23 18 L 21 18 L 21 16 z M 24 16 L 26 16 L 26 18 L 24 18 L 24 16 z M 6 19 L 8 19 L 8 21 L 6 21 L 6 19 z M 9 19 L 11 19 L 11 21 L 9 21 L 9 19 z M 12 19 L 14 19 L 14 21 L 12 21 L 12 19 z M 15 19 L 17 19 L 17 21 L 15 21 L 15 19 z M 18 19 L 20 19 L 20 21 L 18 21 L 18 19 z M 21 19 L 23 19 L 23 21 L 21 21 L 21 19 z M 24 19 L 26 19 L 26 21 L 24 21 L 24 19 z M 6 22 L 8 22 L 8 24 L 6 24 L 6 22 z M 9 22 L 11 22 L 11 24 L 9 24 L 9 22 z M 12 22 L 14 22 L 14 24 L 12 24 L 12 22 z M 15 22 L 17 22 L 17 24 L 15 24 L 15 22 z M 18 22 L 20 22 L 20 24 L 18 24 L 18 22 z M 21 22 L 23 22 L 23 24 L 21 24 L 21 22 z M 24 22 L 26 22 L 26 24 L 24 24 L 24 22 z "
       style="fill:#bbbbbb;fill-opacity:1;stroke:none" />
    <path
       d="m 25,18.5 c -3.589848,0 -6.5,2.910152 -6.5,6.5 0,3.589848 2.910152,6.5 6.5,6.5 3.589857,0 6.5,-2.910152 6.5,-6.5 0,-3.589848 -2.910143,-6.5 -6.5,-6.5 z"
       id="path2922-6-6-0"
       style="color:#000000;fill:url(#linearGradient3039);fill-opacity:1.0;fill-rule:nonzero;stroke:none;stroke-width:0.84323650999999999;marker:none;visibility:visible;display:inline;overflow:visible;enable-background:accumulate" />
    <path
       clip-path="url(#clipPath4307)"
       style="opacity:0.41;color:#000000;fill:none;stroke:#000000;stroke-width:2;stroke-miterlimit:4;stroke-opacity:1;stroke-dasharray:none;marker:none;visibility:visible;display:inline;overflow:visible;enable-background:accumulate"
       id="path4303"
       d="m 168,265 c -3.86599,0 -7,3.13401 -7,7 0,3.86599 3.13401,7 7,7 3.866,0 7,-3.13401 7,-7 0,-3.86599 -3.134,-7 -7,-7 z"
       transform="matrix(0,-1,-1,0,297,193)" />
    <path
       style="opacity:0.2;color:#000000;fill:#000000;fill-opacity:1;fill-rule:nonzero;stroke:none;stroke-width:0.84323651;marker:none;visibility:visible;display:inline;overflow:visible;enable-background:accumulate"
       d="m 25,32 c -3.32555,0 -6,-2.67444 -6,-6 0,-0.124916 0.02381,-0.252029 0.03125,-0.375 C 19.337252,28.659 21.882297,31 25,31 28.117703,31 30.662748,28.659 30.96875,25.625 30.97619,25.747971 31,25.875084 31,26 c 0,3.32556 -2.67445,6 -6,6 z"
       id="path3837" />
    <path
       id="path3822"
       d="m 25,19 c -3.32555,0 -6,2.67444 -6,6 0,0.124915 0.02381,0.252029 0.03125,0.375 C 19.337252,22.341 21.882297,20 25,20 c 3.117703,0 5.662748,2.341 5.96875,5.375 C 30.97619,25.252029 31,25.124915 31,25 31,21.67444 28.32555,19 25,19 z"
       style="opacity:0.4;color:#000000;fill:#ffffff;fill-opacity:1;fill-rule:nonzero;stroke:none;stroke-width:0.84323651;marker:none;visibility:visible;display:inline;overflow:visible;enable-background:accumulate" />
    <path
       id="path4417"
       d="m 24.75,20.25 0,5 4,0 0,0"
       style="fill:none;stroke:#000000;stroke-width:0.50000000000000000;stroke-linecap:round;stroke-linejoin:miter;stroke-miterlimit:4;stroke-opacity:1;stroke-dasharray:none;opacity:0.6" />
  </g>
</svg>
