<?xml version="1.0" encoding="UTF-8" standalone="no"?>
<svg xmlns="http://www.w3.org/2000/svg" xmlns:xlink="http://www.w3.org/1999/xlink" xmlns:sodipodi="http://sodipodi.sourceforge.net/DTD/sodipodi-0.dtd" xmlns:inkscape="http://www.inkscape.org/namespaces/inkscape" version="1.1" width="32" height="32">
 <metadata id="metadata41"/>
 <defs id="defs4034">
  <linearGradient id="linearGradient4073">
   <stop id="stop4075" stop-color="#ffffff"/>
   <stop offset="1" id="stop4077" stop-color="#e3e3e3"/>
  </linearGradient>
  <linearGradient inkscape:collect="always" id="linearGradient3880">
   <stop id="stop3883" stop-color="#ffffff"/>
   <stop offset="1" id="stop3885" stop-color="#ffffff" stop-opacity="0"/>
  </linearGradient>
  <linearGradient id="linearGradient3835">
   <stop id="stop3841" stop-color="#f2f2f2"/>
   <stop offset="1" id="stop3844" stop-color="#d4d4d4"/>
  </linearGradient>
  <linearGradient id="linearGradient3841">
   <stop id="stop3843" stop-color="#080808"/>
   <stop id="stop3845" offset="1" stop-color="#262626"/>
  </linearGradient>
  <linearGradient id="linearGradient3805">
   <stop id="stop3807" stop-color="#1a1a1a"/>
   <stop offset="1" id="stop3809" stop-color="#3f3f3f"/>
  </linearGradient>
  <linearGradient x1="12.938" y1="8.438" x2="15.25" y2="19.813" id="linearGradient2903-1" xlink:href="#linearGradient6592-2-7-1" gradientUnits="userSpaceOnUse" gradientTransform="matrix(0.7142858,0,0,0.86666598,-1.1428573,0.4000017)"/>
  <linearGradient id="linearGradient6592-2-7-1">
   <stop id="stop6594-0-2-4" stop-color="#ffffff" stop-opacity="0.275"/>
   <stop id="stop6596-2-5-3" offset="1" stop-color="#ffffff" stop-opacity="0"/>
  </linearGradient>
  <radialGradient cx="12.244" cy="4.863" r="21" id="radialGradient2906-7" xlink:href="#linearGradient6712-2" gradientUnits="userSpaceOnUse" gradientTransform="matrix(0.94450895,0.01356539,-0.0087941,0.75830433,-3.5503801,4.4065437)"/>
  <linearGradient id="linearGradient6712-2">
   <stop id="stop6714-7" stop-color="#3c3c3c"/>
   <stop id="stop6716-3" offset="1" stop-color="#1e1e1e"/>
  </linearGradient>
  <linearGradient x1="15.574" x2="23.578" id="linearGradient3093" xlink:href="#linearGradient3342-3" gradientUnits="userSpaceOnUse" gradientTransform="matrix(0.72744588,0,0,0.65891862,-1.151775,-2.450068)" spreadMethod="reflect"/>
  <linearGradient id="linearGradient3342-3">
   <stop id="stop3344-0" stop-color="#ffffff" stop-opacity="0"/>
   <stop id="stop3346-3" offset="1" stop-color="#ffffff"/>
  </linearGradient>
  <linearGradient y1="87.08" x2="0" y2="95.37" id="linearGradient2913-5" xlink:href="#linearGradient3178" gradientUnits="userSpaceOnUse" gradientTransform="matrix(0.68184398,0,0,0.6063426,-254.2496,-27.797984)"/>
  <linearGradient id="linearGradient3178">
   <stop id="stop3180" stop-color="#787878"/>
   <stop id="stop3184" offset="0.24" stop-color="#c8c8c8"/>
   <stop id="stop3186" offset="0.335" stop-color="#e6e6e6"/>
   <stop id="stop3188" offset="1" stop-color="#8c8c8c"/>
  </linearGradient>
  <linearGradient y1="36.08" x2="0" y2="44.32" id="linearGradient2915-7" xlink:href="#linearGradient3962" gradientUnits="userSpaceOnUse" gradientTransform="matrix(0.68430138,0,0,0.60625543,-52.461444,3.1287517)"/>
  <linearGradient id="linearGradient3962">
   <stop id="stop3964" stop-color="#464646"/>
   <stop id="stop3968" offset="0.233" stop-color="#969696"/>
   <stop id="stop3970" offset="0.344" stop-color="#aaaaaa"/>
   <stop id="stop3972" offset="1" stop-color="#646464"/>
  </linearGradient>
  <linearGradient id="linearGradient10691-1">
   <stop id="stop10693-3"/>
   <stop id="stop10695-1" offset="1" stop-opacity="0"/>
  </linearGradient>
  <radialGradient cx="6.703" cy="73.62" r="7.228" id="radialGradient4020" xlink:href="#linearGradient10691-1" gradientUnits="userSpaceOnUse" gradientTransform="matrix(1.2450862,0,0,0.27668578,7.6545456,8.631578)"/>
  <linearGradient inkscape:collect="always" xlink:href="#outerBackgroundGradient-5-0" id="linearGradient3811" y1="24.619" x2="0" y2="2" gradientUnits="userSpaceOnUse"/>
  <clipPath id="clipPath3835">
   <rect width="31" height="22" rx="0.689" ry="0.667" x="0.5" y="2.5" id="rect3837" fill="url(#linearGradient3839)"/>
  </clipPath>
  <linearGradient inkscape:collect="always" xlink:href="#linearGradient3805" id="linearGradient3839" gradientUnits="userSpaceOnUse" y1="24.619" x2="0" y2="2"/>
  <clipPath id="clipPath3872">
   <path id="path3874" d="M 1.1875,3 C 1.0655458,3 1,3.064217 1,3.15625 l 0,20.6875 C 1,23.935783 1.0655458,24 1.1875,24 l 29.625,0 C 30.934454,24 31,23.935783 31,23.84375 L 31,3.15625 C 31,3.064217 30.934454,3 30.8125,3 L 1.1875,3 z"/>
  </clipPath>
  <linearGradient inkscape:collect="always" xlink:href="#linearGradient3841" id="linearGradient3876" gradientUnits="userSpaceOnUse" y1="24.619" x2="0" y2="2"/>
  <linearGradient inkscape:collect="always" xlink:href="#linearGradient3880" id="linearGradient3884" y1="2" x2="0" y2="24.637" gradientUnits="userSpaceOnUse"/>
  <radialGradient inkscape:collect="always" xlink:href="#linearGradient10691-1" id="radialGradient3888" gradientUnits="userSpaceOnUse" gradientTransform="matrix(2.2134866,0,0,0.27668578,1.1636366,4.631578)" cx="6.703" cy="73.62" r="7.228"/>
  <linearGradient inkscape:collect="always" xlink:href="#outerBackgroundGradient-5-0" id="linearGradient3934" gradientUnits="userSpaceOnUse" gradientTransform="matrix(0,-1,1,0,0,30)" x1="2.5" x2="29.5"/>
  <linearGradient id="outerBackgroundGradient-5-0">
   <stop id="stop3864-8-6-4" stop-color="#261e2b"/>
   <stop offset="1" id="stop3866-9-1-86" stop-color="#352f39"/>
  </linearGradient>
  <clipPath id="clipPath3821">
   <rect width="31" height="22" rx="0.689" ry="0.667" x="0.5" y="2.5" id="rect3823" fill="url(#linearGradient3811)"/>
  </clipPath>
  <linearGradient inkscape:collect="always" xlink:href="#linearGradient3835" id="linearGradient3833" y1="3" x2="0" y2="25" gradientUnits="userSpaceOnUse"/>
  <linearGradient inkscape:collect="always" xlink:href="#linearGradient3835" id="linearGradient3856" gradientUnits="userSpaceOnUse" y1="24.619" x2="0" y2="2" gradientTransform="translate(0,-26.999999)"/>
  <clipPath id="clipPath3862">
   <rect width="28" height="17" rx="0" x="2" y="4" id="rect3864" fill="url(#linearGradient3811)"/>
  </clipPath>
  <linearGradient inkscape:collect="always" xlink:href="#linearGradient3880" id="linearGradient3887" x1="10" y1="-3" x2="20" y2="12" gradientUnits="userSpaceOnUse"/>
  <radialGradient inkscape:collect="always" xlink:href="#linearGradient4073" id="radialGradient4079" cx="12.75" cy="14.353" r="14" gradientTransform="matrix(1,0,0,0.60714286,0,4.9107143)" gradientUnits="userSpaceOnUse"/>
 </defs>
 <g inkscape:groupmode="layer" id="layer1" inkscape:label="Background">
  <path id="path2589" inkscape:connector-curvature="0" d="m 25,29 c 0,1.10457 -4.029438,2 -9.000001,2 C 11.029436,31 7,30.10457 7,29 7,27.895431 11.029436,27 15.999999,27 20.970562,27 25,27.895431 25,29 l 0,0 z" opacity="0.3" fill="url(#radialGradient4020)" stroke-width="0.8"/>
  <path id="rect1789-8" inkscape:connector-curvature="0" d="m 12,22 c 0,0 -0.01619,4.398544 -0.5,5 -0.483816,0.601454 -1.5,1 -1.5,1 -0.617765,0.06319 -0.622875,1.5 0,1.5 l 12,0 c 0.622876,0 0.617894,-1.437619 0,-1.5 0,0 -1.01619,-0.39853 -1.5,-1 C 20.01619,26.398546 20,22 20,22 z" sodipodi:nodetypes="cscsscccc" fill="url(#linearGradient2913-5)" color="#000000" stroke-width="0.998"/>
  <path sodipodi:nodetypes="cscsscccc" d="m 12,22 c 0,0 -0.01619,4.398544 -0.5,5 -0.483816,0.601454 -1.5,1 -1.5,1 -0.617765,0.06319 -0.622875,1.5 0,1.5 l 12,0 c 0.622876,0 0.617894,-1.437619 0,-1.5 0,0 -1.01619,-0.39853 -1.5,-1 C 20.01619,26.398546 20,22 20,22 z" inkscape:connector-curvature="0" id="path3849" opacity="0.41" fill="none" stroke="#000000" color="#000000"/>
  <rect id="rect3851" width="12" height="1" x="10" y="28" rx="0" ry="0.5" opacity="0.41" fill="#ffffff"/>
  <rect rx="0" y="27" x="11" height="1" width="10" id="rect3853" opacity="0.11"/>
  <rect width="31" height="22" rx="0.689" ry="0.667" x="0.5" y="-24.5" id="rect3854" transform="scale(1,-1)" fill="url(#linearGradient3856)"/>
  <rect id="rect3889" width="5" height="1.5" x="24" y="23" fill="#2b2b2b"/>
  <rect id="rect2722" y="4" x="2" rx="0" height="17" width="28" fill="url(#linearGradient3811)"/>
  <path id="path3868" d="M 1.1875 3 C 1.0655458 3 1 3.064217 1 3.15625 L 1 23.84375 C 1 23.935783 1.0655458 24 1.1875 24 L 30.8125 24 C 30.934454 24 31 23.935783 31 23.84375 L 31 3.15625 C 31 3.064217 30.934454 3 30.8125 3 L 1.1875 3 z " clip-path="url(#clipPath3872)" opacity="0.1" fill="none" stroke="url(#linearGradient3884)" stroke-linejoin="round" stroke-linecap="round" stroke-width="2" stroke-dashoffset="0.5"/>
  <path d="m 32,25 c 0,1.10457 -7.163445,2 -16.000002,2 C 7.163442,27 0,26.10457 0,25 0,23.895431 7.163442,23 15.999998,23 24.836555,23 32,23.895431 32,25 l 0,0 z" inkscape:connector-curvature="0" id="path3886" opacity="0.3" fill="url(#radialGradient3888)" stroke-width="0.8"/>
  <path id="path3829" d="M 1.1875,24 C 1.0655458,24 1,23.935783 1,23.84375 l 0,-1 C 1,22.93578 1.065546,23 1.1875,23 l 29.625,0 C 30.934454,23 31,22.93578 31,22.84375 l 0,1 C 31,23.93578 30.93445,24 30.8125,24 l -29.625,0 z" inkscape:connector-curvature="0" opacity="0.05" fill="#ffffff"/>
  <rect width="31" height="22" rx="0.689" ry="0.667" x="0.5" y="2.5" id="rect3803" opacity="0.61" fill="none" stroke="#000000" stroke-linejoin="round" stroke-linecap="round" stroke-dashoffset="0.5"/>
  <rect width="28" height="17" rx="0" x="2" y="4" id="rect3858" clip-path="url(#clipPath3862)" opacity="0.2" fill="none" stroke="#000000" stroke-width="2"/>
  <path d="M 1.1875 3 C 1.0655458 3 1 3.064217 1 3.15625 L 1 4.15625 C 1 4.064217 1.0655458 4 1.1875 4 L 30.8125 4 C 30.934454 4 31 4.064217 31 4.15625 L 31 3.15625 C 31 3.064217 30.934454 3 30.8125 3 L 1.1875 3 z " id="rect3815" opacity="0.1" fill="#ffffff" stroke-linejoin="round" stroke-linecap="round" stroke-dashoffset="0.5"/>
  <rect id="rect3868" width="28" height="1" x="2" y="21" opacity="0.6" fill="#ffffff" stroke-width="2"/>
  <rect y="4" x="2" height="1" width="28" id="rect3870" opacity="0.2"/>
  <path d="M 2,4 2,16 30,8.875 30,4 z" id="rect3872" inkscape:connector-curvature="0" sodipodi:nodetypes="ccccc" opacity="0.2" fill="url(#linearGradient3887)"/>
 </g>
 <g inkscape:groupmode="layer" id="layer2" inkscape:label="Symbol">
  <path d="M 12.5 4 L 10 8 L 12 8 L 12 13 L 6 13 L 6 11 L 2 13.5 L 6 16 L 6 14 L 12 14 L 12 17 L 10 17 L 12.5 21 L 15 17 L 13 17 L 13 14 L 26 14 L 26 15 L 26 16 L 30 13.5 L 26 11 L 26 12 L 26 13 L 13 13 L 13 8 L 15 8 L 12.5 4 z " id="path4215" color="#000000" fill="url(#radialGradient4079)"/>
 </g>
</svg>
