<?xml version="1.0" encoding="UTF-8" standalone="no"?>
<svg xmlns="http://www.w3.org/2000/svg" xmlns:xlink="http://www.w3.org/1999/xlink" xmlns:sodipodi="http://sodipodi.sourceforge.net/DTD/sodipodi-0.dtd" xmlns:inkscape="http://www.inkscape.org/namespaces/inkscape" version="1.1" width="32" height="32">
 <metadata id="metadata41"/>
 <defs id="defs4034">
  <linearGradient id="linearGradient4892">
   <stop id="stop4894"/>
   <stop id="stop4896" offset="1" stop-opacity="0"/>
  </linearGradient>
  <linearGradient inkscape:collect="always" id="linearGradient4762">
   <stop id="stop4764" stop-color="#e3e3e3"/>
   <stop offset="1" id="stop4766" stop-color="#e3e3e3" stop-opacity="0"/>
  </linearGradient>
  <linearGradient id="linearGradient4073">
   <stop id="stop4075" stop-color="#ffffff"/>
   <stop offset="1" id="stop4077" stop-color="#e3e3e3"/>
  </linearGradient>
  <linearGradient inkscape:collect="always" id="linearGradient3880">
   <stop id="stop3883" stop-color="#ffffff"/>
   <stop offset="1" id="stop3885" stop-color="#ffffff" stop-opacity="0"/>
  </linearGradient>
  <linearGradient id="linearGradient3835">
   <stop id="stop3841" stop-color="#f2f2f2"/>
   <stop offset="1" id="stop3844" stop-color="#d4d4d4"/>
  </linearGradient>
  <linearGradient id="linearGradient3841">
   <stop id="stop3843" stop-color="#080808"/>
   <stop id="stop3845" offset="1" stop-color="#262626"/>
  </linearGradient>
  <linearGradient id="linearGradient3805">
   <stop id="stop3807" stop-color="#1a1a1a"/>
   <stop offset="1" id="stop3809" stop-color="#3f3f3f"/>
  </linearGradient>
  <linearGradient x1="12.938" y1="8.438" x2="15.25" y2="19.813" id="linearGradient2903-1" xlink:href="#linearGradient6592-2-7-1" gradientUnits="userSpaceOnUse" gradientTransform="matrix(0.7142858,0,0,0.86666598,-1.1428573,0.4000017)"/>
  <linearGradient id="linearGradient6592-2-7-1">
   <stop id="stop6594-0-2-4" stop-color="#ffffff" stop-opacity="0.275"/>
   <stop id="stop6596-2-5-3" offset="1" stop-color="#ffffff" stop-opacity="0"/>
  </linearGradient>
  <radialGradient cx="12.244" cy="4.863" r="21" id="radialGradient2906-7" xlink:href="#linearGradient6712-2" gradientUnits="userSpaceOnUse" gradientTransform="matrix(0.94450895,0.01356539,-0.0087941,0.75830433,-3.5503801,4.4065437)"/>
  <linearGradient id="linearGradient6712-2">
   <stop id="stop6714-7" stop-color="#3c3c3c"/>
   <stop id="stop6716-3" offset="1" stop-color="#1e1e1e"/>
  </linearGradient>
  <linearGradient x1="15.574" x2="23.578" id="linearGradient3093" xlink:href="#linearGradient3342-3" gradientUnits="userSpaceOnUse" gradientTransform="matrix(0.72744588,0,0,0.65891862,-1.151775,-2.450068)" spreadMethod="reflect"/>
  <linearGradient id="linearGradient3342-3">
   <stop id="stop3344-0" stop-color="#ffffff" stop-opacity="0"/>
   <stop id="stop3346-3" offset="1" stop-color="#ffffff"/>
  </linearGradient>
  <linearGradient y1="87.08" x2="0" y2="95.37" id="linearGradient2913-5" xlink:href="#linearGradient3178" gradientUnits="userSpaceOnUse" gradientTransform="matrix(0.68184398,0,0,0.6063426,-254.2496,-27.797984)"/>
  <linearGradient id="linearGradient3178">
   <stop id="stop3180" stop-color="#787878"/>
   <stop id="stop3184" offset="0.24" stop-color="#c8c8c8"/>
   <stop id="stop3186" offset="0.335" stop-color="#e6e6e6"/>
   <stop id="stop3188" offset="1" stop-color="#8c8c8c"/>
  </linearGradient>
  <linearGradient y1="36.08" x2="0" y2="44.32" id="linearGradient2915-7" xlink:href="#linearGradient3962" gradientUnits="userSpaceOnUse" gradientTransform="matrix(0.68430138,0,0,0.60625543,-52.461444,3.1287517)"/>
  <linearGradient id="linearGradient3962">
   <stop id="stop3964" stop-color="#464646"/>
   <stop id="stop3968" offset="0.233" stop-color="#969696"/>
   <stop id="stop3970" offset="0.344" stop-color="#aaaaaa"/>
   <stop id="stop3972" offset="1" stop-color="#646464"/>
  </linearGradient>
  <radialGradient cx="6.703" cy="73.62" r="7.228" id="radialGradient4020" xlink:href="#linearGradient4892" gradientUnits="userSpaceOnUse" gradientTransform="matrix(1.2450862,0,0,0.27668578,7.6545456,8.631578)"/>
  <linearGradient inkscape:collect="always" xlink:href="#linearGradient3178" id="linearGradient3028" gradientUnits="userSpaceOnUse" gradientTransform="matrix(0.68184398,0,0,0.6063426,-255.2496,-27.797984)" y1="87.08" x2="0" y2="95.37"/>
  <radialGradient inkscape:collect="always" xlink:href="#linearGradient4892" id="radialGradient3033" gradientUnits="userSpaceOnUse" gradientTransform="matrix(1.2450862,0,0,0.27668578,6.6545456,8.631578)" cx="8.07" cy="73.3" r="7.228"/>
  <clipPath id="clipPath3835">
   <rect width="31" height="22" rx="0.689" ry="0.667" x="0.5" y="2.5" id="rect3837" fill="url(#linearGradient3839)"/>
  </clipPath>
  <linearGradient inkscape:collect="always" xlink:href="#linearGradient3805" id="linearGradient3839" gradientUnits="userSpaceOnUse" y1="24.619" x2="0" y2="2"/>
  <clipPath id="clipPath3872">
   <path id="path3874" d="M 1.1875,3 C 1.0655458,3 1,3.064217 1,3.15625 l 0,20.6875 C 1,23.935783 1.0655458,24 1.1875,24 l 29.625,0 C 30.934454,24 31,23.935783 31,23.84375 L 31,3.15625 C 31,3.064217 30.934454,3 30.8125,3 L 1.1875,3 z"/>
  </clipPath>
  <linearGradient inkscape:collect="always" xlink:href="#linearGradient3841" id="linearGradient3876" gradientUnits="userSpaceOnUse" y1="24.619" x2="0" y2="2"/>
  <linearGradient inkscape:collect="always" xlink:href="#linearGradient3880" id="linearGradient3884" y1="2" x2="0" y2="24.637" gradientUnits="userSpaceOnUse"/>
  <linearGradient inkscape:collect="always" xlink:href="#outerBackgroundGradient-5-0" id="linearGradient3934" gradientUnits="userSpaceOnUse" gradientTransform="matrix(0,-1,1,0,0,30)" x1="2.5" x2="29.5"/>
  <linearGradient id="outerBackgroundGradient-5-0">
   <stop id="stop3864-8-6-4" stop-color="#261e2b"/>
   <stop offset="1" id="stop3866-9-1-86" stop-color="#352f39"/>
  </linearGradient>
  <clipPath id="clipPath3821">
   <rect width="31" height="22" rx="0.689" ry="0.667" x="0.5" y="2.5" id="rect3823" fill="url(#linearGradient3825)"/>
  </clipPath>
  <linearGradient inkscape:collect="always" xlink:href="#outerBackgroundGradient-5-0" id="linearGradient3825" gradientUnits="userSpaceOnUse" y1="24.619" x2="0" y2="2"/>
  <linearGradient inkscape:collect="always" xlink:href="#linearGradient3835" id="linearGradient3833" y1="3" x2="0" y2="25" gradientUnits="userSpaceOnUse"/>
  <linearGradient inkscape:collect="always" xlink:href="#linearGradient3835" id="linearGradient3856" gradientUnits="userSpaceOnUse" y1="24.619" x2="0" y2="2" gradientTransform="translate(0,-26.999999)"/>
  <clipPath id="clipPath3862">
   <rect width="28" height="17" rx="0" x="2" y="4" id="rect3864" fill="url(#linearGradient3825)"/>
  </clipPath>
  <linearGradient inkscape:collect="always" xlink:href="#linearGradient3880" id="linearGradient3887" x1="10" y1="-3" x2="20" y2="12" gradientUnits="userSpaceOnUse"/>
  <radialGradient inkscape:collect="always" xlink:href="#linearGradient4892" id="radialGradient4222" gradientUnits="userSpaceOnUse" gradientTransform="matrix(2.2134866,0,0,0.27668578,1.1636366,7.631578)" cx="6.703" cy="73.62" r="7.228"/>
  <linearGradient inkscape:collect="always" xlink:href="#linearGradient4094-1-8" id="linearGradient4362-9" gradientUnits="userSpaceOnUse" gradientTransform="matrix(0.375,0,0,0.375,298,27.999997)" y1="170.67" x2="0" y2="42.667"/>
  <linearGradient id="linearGradient4094-1-8">
   <stop id="stop4096-0-9" stop-color="#676767"/>
   <stop id="stop4098-37-6" offset="1" stop-color="#8a8a8a"/>
  </linearGradient>
  <clipPath id="clipPath4172-0-6">
   <rect id="rect4174-3-1" width="90" height="90" x="307" y="43" fill="none" color="#bebebe" stroke-width="0" rx="18.75"/>
  </clipPath>
  <linearGradient y2="48" x2="368" y1="128" x1="392" gradientUnits="userSpaceOnUse" id="linearGradient4316-9" xlink:href="#linearGradient4121-4-8" inkscape:collect="always"/>
  <linearGradient id="linearGradient4121-4-8">
   <stop id="stop4123-0-37" stop-color="#c3b7a4"/>
   <stop id="stop4125-76-2" offset="1" stop-color="#ffffff"/>
  </linearGradient>
  <linearGradient inkscape:collect="always" xlink:href="#outerBackgroundGradient-0-1" id="linearGradient3934-4" gradientUnits="userSpaceOnUse" gradientTransform="matrix(0,-1,1,0,0,30)" x1="2.5" x2="29.5"/>
  <linearGradient id="outerBackgroundGradient-0-1">
   <stop id="stop3864-8-6-3-6" stop-color="#a348b1"/>
   <stop offset="1" id="stop3866-9-1-7-3" stop-color="#b1488f"/>
  </linearGradient>
  <clipPath id="clipPath4298">
   <path id="path4300" d="m 412.56306,54.066997 32.49568,0 0,20.893998 -32.49568,0 z"/>
  </clipPath>
  <linearGradient inkscape:collect="always" xlink:href="#outerBackgroundGradient-0-1" id="linearGradient4302" gradientUnits="userSpaceOnUse" y1="24.619" x2="0" y2="2" gradientTransform="matrix(1.16056,0,0,1.2290587,410.24194,49.150762)"/>
  <linearGradient inkscape:collect="always" xlink:href="#outerBackgroundGradient-0-1" id="linearGradient4304" gradientUnits="userSpaceOnUse" x1="15.354" y1="20.11" x2="15.09" y2="4.652"/>
  <linearGradient inkscape:collect="always" xlink:href="#linearGradient4762" id="linearGradient4768" y1="0" x2="0" y2="20" gradientUnits="userSpaceOnUse"/>
  <linearGradient inkscape:collect="always" xlink:href="#linearGradient4762" id="linearGradient4772" gradientUnits="userSpaceOnUse" y1="0" x2="0" y2="13" gradientTransform="translate(2,0)"/>
  <linearGradient inkscape:collect="always" xlink:href="#linearGradient4762" id="linearGradient4776" gradientUnits="userSpaceOnUse" gradientTransform="translate(4,0)" y1="0" x2="0" y2="11"/>
  <linearGradient inkscape:collect="always" xlink:href="#linearGradient4762" id="linearGradient4784" gradientUnits="userSpaceOnUse" gradientTransform="translate(8,0)" y1="0" x2="0" y2="15"/>
  <linearGradient inkscape:collect="always" xlink:href="#linearGradient4892" id="linearGradient4864" gradientUnits="userSpaceOnUse" y1="0" x2="0" y2="20"/>
  <linearGradient inkscape:collect="always" xlink:href="#linearGradient4892" id="linearGradient4866" gradientUnits="userSpaceOnUse" gradientTransform="translate(2,0)" y1="0" x2="0" y2="13"/>
  <linearGradient inkscape:collect="always" xlink:href="#linearGradient4892" id="linearGradient4868" gradientUnits="userSpaceOnUse" gradientTransform="translate(4,0)" y1="0" x2="0" y2="11"/>
  <linearGradient inkscape:collect="always" xlink:href="#linearGradient4892" id="linearGradient4872" gradientUnits="userSpaceOnUse" gradientTransform="translate(8,0)" y1="0" x2="0" y2="15"/>
 </defs>
 <g inkscape:groupmode="layer" id="layer1" inkscape:label="Background">
  <path sodipodi:nodetypes="cssscc" id="path4220" inkscape:connector-curvature="0" d="m 32,28 c 0,1.10457 -7.163445,2 -16.000002,2 C 7.163442,30 0,29.10457 0,28 0,26.895431 7.163442,26 15.999998,26 24.836555,26 32,26.895431 32,28 z" opacity="0.1" fill="url(#radialGradient4222)" stroke-width="0.8"/>
  <path id="path2589" inkscape:connector-curvature="0" d="m 24,29 c 0,1.10457 -2.529437,2 -7.5,2 C 11.529437,31 8,30.10457 8,29 c 0,-1.104569 3.529437,-2 8.5,-2 4.970563,0 7.5,0.895431 7.5,2 z" sodipodi:nodetypes="csssc" opacity="0.3" fill="url(#radialGradient3033)" stroke-width="0.8"/>
  <path id="rect1789-8" inkscape:connector-curvature="0" d="m 13,22 c 0,0 -0.01619,4.398544 -0.5,5 -0.483816,0.601454 -1.5,1 -1.5,1 -0.617765,0.06319 -0.622875,1.5 0,1.5 l 10,0 c 0.622876,0 0.617894,-1.437619 0,-1.5 0,0 -1.01619,-0.39853 -1.5,-1 C 19.01619,26.398546 19,22 19,22 z" sodipodi:nodetypes="cscsscccc" fill="url(#linearGradient3028)" color="#000000" stroke-width="0.998"/>
  <path sodipodi:nodetypes="cscsscccc" d="m 13,22 c 0,0 -0.01619,4.398544 -0.5,5 -0.483816,0.601454 -1.5,1 -1.5,1 -0.617765,0.06319 -0.622875,1.5 0,1.5 l 10,0 c 0.622876,0 0.617894,-1.437619 0,-1.5 0,0 -1.01619,-0.39853 -1.5,-1 C 19.01619,26.398546 19,22 19,22 z" inkscape:connector-curvature="0" id="path3849" opacity="0.41" fill="none" stroke="#000000" color="#000000"/>
  <path d="m 11,28 10,0 0,1 -10,0 z" id="rect3851" inkscape:connector-curvature="0" sodipodi:nodetypes="ccccc" opacity="0.41" fill="#ffffff"/>
  <path d="m 12,27 8,0 0,1 -8,0 z" id="rect3853" inkscape:connector-curvature="0" sodipodi:nodetypes="ccccc" opacity="0.11"/>
  <path transform="scale(1,-1)" d="m 1.1888871,-24.49988 29.6222259,0 c 0.381647,0 0.688893,0.297332 0.688893,0.666664 l 0,20.6664315 c 0,0.3693321 -0.307246,0.6666643 -0.688893,0.6666643 l -29.6222259,0 c -0.38164661,0 -0.68889282,-0.2973322 -0.68889282,-0.6666643 l 0,-20.6664315 c 0,-0.369332 0.30724621,-0.666664 0.68889282,-0.666664 z" id="rect3854" inkscape:connector-curvature="0" sodipodi:nodetypes="sssssssss" fill="url(#linearGradient3856)"/>
  <path d="m 24,23 5,0 0,1.5 -5,0 z" id="rect3889" inkscape:connector-curvature="0" sodipodi:nodetypes="ccccc" fill="#2b2b2b"/>
  <path d="M 2,4 30,4 30,21 2,21 z" id="rect2722" inkscape:connector-curvature="0" sodipodi:nodetypes="ccccc" fill="url(#linearGradient4304)"/>
  <g id="g4834" transform="matrix(-1,0,0,-1,34,25)">
   <rect id="rect4836" width="1" height="16" x="5" y="4" opacity="0.4" fill="url(#linearGradient4864)"/>
   <rect y="4" x="7" height="16" width="1" id="rect4838" opacity="0.4" fill="url(#linearGradient4866)"/>
   <rect id="rect4840" width="1" height="16" x="9" y="4" opacity="0.4" fill="url(#linearGradient4868)"/>
   <rect y="4" x="11" height="16" width="1" id="rect4842" opacity="0.4" fill="url(#linearGradient4864)"/>
   <rect id="rect4844" width="1" height="16" x="13" y="4" opacity="0.4" fill="url(#linearGradient4872)"/>
   <rect y="4" x="15" height="16" width="1" id="rect4846" opacity="0.4" fill="url(#linearGradient4864)"/>
   <rect id="rect4848" width="1" height="16" x="17" y="4" opacity="0.4" fill="url(#linearGradient4866)"/>
   <rect y="4" x="19" height="16" width="1" id="rect4850" opacity="0.4" fill="url(#linearGradient4868)"/>
   <rect id="rect4852" width="1" height="16" x="21" y="4" opacity="0.4" fill="url(#linearGradient4864)"/>
   <rect y="4" x="23" height="16" width="1" id="rect4854" opacity="0.4" fill="url(#linearGradient4872)"/>
   <rect id="rect4856" width="1" height="16" x="3" y="4" opacity="0.4" fill="url(#linearGradient4772)"/>
   <rect y="4" x="25" height="16" width="1" id="rect4858" opacity="0.4" fill="url(#linearGradient4866)"/>
   <rect y="4" x="29" height="16" width="1" id="rect4860" opacity="0.4" fill="url(#linearGradient4864)"/>
   <rect id="rect4862" width="1" height="16" x="27" y="4" opacity="0.4" fill="url(#linearGradient4872)"/>
  </g>
  <path d="M 2,4 2,16 30,8.875 30,4 z" id="rect3872" inkscape:connector-curvature="0" sodipodi:nodetypes="ccccc" opacity="0.4" fill="url(#linearGradient3887)"/>
  <path id="path3868" d="M 1.1875,3 C 1.0655458,3 1,3.064217 1,3.15625 l 0,20.6875 C 1,23.935783 1.0655458,24 1.1875,24 l 29.625,0 C 30.934454,24 31,23.935783 31,23.84375 L 31,3.15625 C 31,3.064217 30.934454,3 30.8125,3 z" clip-path="url(#clipPath3872)" inkscape:connector-curvature="0" sodipodi:nodetypes="sssssssss" opacity="0.1" fill="none" stroke="url(#linearGradient3884)" stroke-linejoin="round" stroke-linecap="round" stroke-width="2" stroke-dashoffset="0.5"/>
  <path id="path3829" d="M 1.1875,24 C 1.0655458,24 1,23.935783 1,23.84375 l 0,-1 C 1,22.93578 1.065546,23 1.1875,23 l 29.625,0 C 30.934454,23 31,22.93578 31,22.84375 l 0,1 C 31,23.93578 30.93445,24 30.8125,24 z" inkscape:connector-curvature="0" sodipodi:nodetypes="sscsscsss" opacity="0.05" fill="#ffffff"/>
  <path d="m 1.1888871,2.5001197 29.6222259,0 c 0.381647,0 0.688893,0.2973323 0.688893,0.6666643 l 0,20.666431 c 0,0.369332 -0.307246,0.666664 -0.688893,0.666664 l -29.6222259,0 c -0.38164661,0 -0.68889282,-0.297332 -0.68889282,-0.666664 l 0,-20.666431 c 0,-0.369332 0.30724621,-0.6666643 0.68889282,-0.6666643 z" id="rect3803" inkscape:connector-curvature="0" sodipodi:nodetypes="sssssssss" opacity="0.61" fill="none" stroke="#000000" stroke-linejoin="round" stroke-linecap="round" stroke-dashoffset="0.5"/>
  <g id="g4806">
   <rect y="4" x="5" height="16" width="1" id="rect4760" opacity="0.4" fill="url(#linearGradient4768)"/>
   <rect id="rect4770" width="1" height="16" x="7" y="4" opacity="0.4" fill="url(#linearGradient4772)"/>
   <rect y="4" x="9" height="16" width="1" id="rect4774" opacity="0.4" fill="url(#linearGradient4776)"/>
   <rect id="rect4778" width="1" height="16" x="11" y="4" opacity="0.4" fill="url(#linearGradient4768)"/>
   <rect y="4" x="13" height="16" width="1" id="rect4782" opacity="0.4" fill="url(#linearGradient4784)"/>
   <rect id="rect4786" width="1" height="16" x="15" y="4" opacity="0.4" fill="url(#linearGradient4768)"/>
   <rect y="4" x="17" height="16" width="1" id="rect4788" opacity="0.4" fill="url(#linearGradient4772)"/>
   <rect id="rect4790" width="1" height="16" x="19" y="4" opacity="0.4" fill="url(#linearGradient4776)"/>
   <rect y="4" x="21" height="16" width="1" id="rect4792" opacity="0.4" fill="url(#linearGradient4768)"/>
   <rect id="rect4794" width="1" height="16" x="23" y="4" opacity="0.4" fill="url(#linearGradient4784)"/>
   <rect y="4" x="3" height="16" width="1" id="rect4818" opacity="0.4" fill="url(#linearGradient4772)"/>
   <rect id="rect4822" width="1" height="16" x="25" y="4" opacity="0.4" fill="url(#linearGradient4772)"/>
   <rect id="rect4824" width="1" height="16" x="29" y="4" opacity="0.4" fill="url(#linearGradient4768)"/>
   <rect y="4" x="27" height="16" width="1" id="rect4830" opacity="0.4" fill="url(#linearGradient4784)"/>
  </g>
  <g id="g4127" transform="matrix(0.86165302,0,0,0.81363077,-353.48621,-39.990572)" clip-path="url(#clipPath4298)" enable-background="new">
   <g transform="matrix(0.375,0,0,0.375,297.135,38.375)" id="g4343">
    <path transform="translate(0,-4)" sodipodi:nodetypes="cccccc" inkscape:connector-curvature="0" id="path4347" d="m 351,43 9,4 37,39 0,-24.333333 C 397.8723,57.444033 402.38518,38.937067 378.33333,43 z" clip-path="none" fill="url(#linearGradient4362-9)" color="#bebebe" stroke-width="0"/>
    <path d="m 351,43 c 0,0 4.76696,1.936657 6,4 6.04018,10.107486 3.33333,35.166667 3.33333,35.166667 0,0 27.66667,-7.37868 36.66667,0.62132 C 397,82.787987 367,43 351,43 z" id="path4240" inkscape:connector-curvature="0" sodipodi:nodetypes="caccc" transform="translate(0,-4)" opacity="0.1" fill="none" stroke="#000000" color="#bebebe" stroke-width="5.333"/>
    <path d="m 350.94107,42.37378 c 0,0 4.76696,1.936657 6,4 6.04018,10.107486 3.33333,35.166666 3.33333,35.166666 0,0 27.66667,-7.378679 36.66667,0.621321 0,0 -30,-39.787987 -46,-39.787987 z" id="path4345" inkscape:connector-curvature="0" sodipodi:nodetypes="caccc" opacity="0.2" color="#bebebe" stroke-width="0"/>
    <path transform="translate(0,-4)" sodipodi:nodetypes="caccc" inkscape:connector-curvature="0" id="path4351" d="m 351,43 c 0,0 4.76696,1.936657 6,4 6.04018,10.107486 3.33333,35.166667 3.33333,35.166667 0,0 27.66667,-7.37868 36.66667,0.62132 C 397,82.787987 367,43 351,43 z" fill="url(#linearGradient4316-9)" color="#bebebe" stroke-width="0"/>
   </g>
  </g>
  <path d="M 1.1875,3 C 1.0655458,3 1,3.064217 1,3.15625 l 0,1 C 1,4.064217 1.0655458,4 1.1875,4 l 29.625,0 C 30.934454,4 31,4.064217 31,4.15625 l 0,-1 C 31,3.064217 30.934454,3 30.8125,3 z" id="rect3815" inkscape:connector-curvature="0" sodipodi:nodetypes="sscsscsss" opacity="0.1" fill="#ffffff"/>
  <path d="m 2,21 28,0 0,1 -28,0 z" id="rect3868" inkscape:connector-curvature="0" sodipodi:nodetypes="ccccc" opacity="0.6" fill="#ffffff"/>
  <path d="M 2,4 30,4 30,5 2,5 z" id="rect3870" inkscape:connector-curvature="0" sodipodi:nodetypes="ccccc" opacity="0.2"/>
  <path clip-path="url(#clipPath3862)" d="M 2,4 30,4 30,21 2,21 z" id="rect3858" inkscape:connector-curvature="0" sodipodi:nodetypes="ccccc" opacity="0.2" fill="none" stroke="#000000" stroke-width="2"/>
 </g>
</svg>
