<?xml version="1.0" encoding="UTF-8" standalone="no"?>
<svg xmlns="http://www.w3.org/2000/svg" xmlns:xlink="http://www.w3.org/1999/xlink" xmlns:sodipodi="http://sodipodi.sourceforge.net/DTD/sodipodi-0.dtd" xmlns:inkscape="http://www.inkscape.org/namespaces/inkscape" width="16" height="16" version="1.1">
 <defs id="defs5402">
  <linearGradient inkscape:collect="always" xlink:href="#linearGradient3813" id="linearGradient7546" gradientUnits="userSpaceOnUse" x1="1872" x2="1888" gradientTransform="matrix(0,1,-1,0,140,-1872)"/>
  <linearGradient id="linearGradient3813">
   <stop id="stop3815" stop-color="#3e8292"/>
   <stop offset="1" id="stop3817" stop-color="#133f8f"/>
  </linearGradient>
  <linearGradient inkscape:collect="always" xlink:href="#linearGradient6851" id="linearGradient7045" gradientUnits="userSpaceOnUse" gradientTransform="matrix(0.35135136,0,0,0.35135136,-17.2037,-0.9093)" y1="6.238" x2="0" y2="44.34"/>
  <linearGradient inkscape:collect="always" id="linearGradient6851">
   <stop id="stop6853" stop-color="#ffffff"/>
   <stop offset="1" id="stop6855" stop-color="#ffffff" stop-opacity="0"/>
  </linearGradient>
  <linearGradient inkscape:collect="always" xlink:href="#linearGradient6501" id="linearGradient7048" gradientUnits="userSpaceOnUse" y1="0" x2="0" y2="16"/>
  <linearGradient id="linearGradient6501">
   <stop id="stop6503" stop-color="#44d9ff"/>
   <stop offset="0.643" id="stop7407" stop-color="#4690d1"/>
   <stop id="stop6507" offset="1" stop-color="#4862b1"/>
  </linearGradient>
 </defs>
 <metadata id="metadata5405"/>
 <g id="layer1" inkscape:label="Layer 1" inkscape:groupmode="layer">
  <path id="path2555-7" inkscape:connector-curvature="0" d="M 8,0.5 C 3.8618,0.5 0.5,3.86176 0.5,8 c 0,4.13824 3.3618,7.5 7.5,7.5 4.1382,0 7.5,-3.36176 7.5,-7.5 C 15.5,3.86176 12.1382,0.5 8,0.5 z" fill="url(#linearGradient7048)" color="#000000"/>
  <path id="path8655-6" inkscape:connector-curvature="0" d="M 14.5,7.99977 C 14.5,11.58974 11.5896,14.5 8.0001,14.5 4.4102,14.5 1.5,11.5897 1.5,7.99977 1.5,4.40997 4.4102,1.5 8.0001,1.5 11.5896,1.5 14.5,4.40997 14.5,7.99977 l 0,0 z" opacity="0.5" fill="none" stroke="url(#linearGradient7045)" stroke-linejoin="round" stroke-linecap="round" color="#000000"/>
  <path d="m 7,5 0,3.99972 -2,0 3,4 3,-4 -2,0 L 9,5 z" inkscape:connector-curvature="0" id="path7033" sodipodi:nodetypes="cccccccc" opacity="0.3" color="#000000"/>
  <path sodipodi:nodetypes="cccccccc" id="rect3005" inkscape:connector-curvature="0" d="m 7,4 0,3.99972 -2,0 3,4 3,-4 -2,0 L 9,4 z" fill="#ffffff" color="#000000"/>
  <path d="m 8,15.5 c 4.1382,0 7.5,-3.3618 7.5,-7.5 C 15.5,3.8618 12.1382,0.5 8,0.5 3.8618,0.5 0.5,3.8618 0.5,8 c 0,4.1382 3.3618,7.5 7.5,7.5 z" inkscape:connector-curvature="0" id="path7037" opacity="0.91" fill="none" stroke="url(#linearGradient7546)" stroke-linejoin="round" stroke-linecap="round" color="#000000"/>
 </g>
</svg>
