<?xml version="1.0" encoding="UTF-8" standalone="no"?>
<svg
   xmlns:dc="http://purl.org/dc/elements/1.1/"
   xmlns:cc="http://creativecommons.org/ns#"
   xmlns:rdf="http://www.w3.org/1999/02/22-rdf-syntax-ns#"
   xmlns:svg="http://www.w3.org/2000/svg"
   xmlns="http://www.w3.org/2000/svg"
   xmlns:xlink="http://www.w3.org/1999/xlink"
   id="svg3279"
   height="16"
   width="16"
   version="1.1">
  <defs
     id="defs3281">
    <linearGradient
       id="linearGradient4222">
      <stop
         offset="0"
         style="stop-color:#ffffff;stop-opacity:1"
         id="stop4224" />
      <stop
         offset="1"
         style="stop-color:#ffffff;stop-opacity:0"
         id="stop4226" />
    </linearGradient>
    <linearGradient
       id="linearGradient3243">
      <stop
         offset="0"
         style="stop-color:#eeeeee;stop-opacity:1;"
         id="stop3245" />
      <stop
         offset="1"
         style="stop-color:#dfdfdf;stop-opacity:1;"
         id="stop3247" />
    </linearGradient>
    <linearGradient
       gradientTransform="matrix(0.82996661,0,0,0.83014725,-23.704279,-2.8028554)"
       gradientUnits="userSpaceOnUse"
       xlink:href="#linearGradient4222"
       id="linearGradient3029"
       y2="7.0924568"
       x2="40.006763"
       y1="12.910877"
       x1="40.006763" />
    <linearGradient
       gradientTransform="matrix(0.6666711,0,0,0.6666711,-17.166785,-1.1667711)"
       gradientUnits="userSpaceOnUse"
       xlink:href="#linearGradient3243"
       id="linearGradient3035"
       y2="24.0341"
       x2="39.905758"
       y1="6.1230369"
       x1="39.905758" />
  </defs>
  <metadata
     id="metadata3284">
    <rdf:RDF>
      <cc:Work
         rdf:about="">
        <dc:format>image/svg+xml</dc:format>
        <dc:type
           rdf:resource="http://purl.org/dc/dcmitype/StillImage" />
        <dc:title />
      </cc:Work>
    </rdf:RDF>
  </metadata>
  <path
     style="fill:url(#linearGradient3035);fill-opacity:1;fill-rule:evenodd;stroke:none"
     id="path2463"
     d="M 6.8333755,2.4999192 0.50000006,9.0624632 6.0000368,14.5 12.500078,8.1666242 l 0,-5.666705 -5.6667025,0 z m 2.6666849,2.000014 c 0.5520026,0 1.0000066,0.448002 1.0000066,1.000006 0,0.552004 -0.448004,1.000007 -1.0000066,1.000007 -0.5520042,0 -1.0000072,-0.448003 -1.0000072,-1.000007 0,-0.552004 0.448003,-1.000006 1.0000072,-1.000006 z" />
  <path
     style="opacity:0.6;fill:none;stroke:url(#linearGradient3029);stroke-width:1.00000012px;stroke-linecap:butt;stroke-linejoin:miter;stroke-opacity:1"
     id="path3294"
     d="M 9.4943871,3.5010736 C 10.750366,3.4567938 11.785978,4.7909532 11.428498,5.9971782 11.163042,7.1808175 9.7058904,7.86295 8.6294138,7.298845 7.5214098,6.8093158 7.1351849,5.250799 7.8946109,4.3042992 8.263526,3.8049752 8.8728487,3.4962646 9.4943871,3.5010736 z" />
  <path
     style="opacity:0.41;color:#000000;fill:none;stroke:#000000;stroke-width:1.00000011999999994px;stroke-linecap:butt;stroke-linejoin:miter;stroke-miterlimit:4;stroke-opacity:1;stroke-dasharray:none;stroke-dashoffset:0;marker:none;visibility:visible;display:inline;overflow:visible;enable-background:accumulate"
     id="path3298"
     d="m 10.333402,4.9995634 c 0.73935,-0.391482 1.702694,-0.511416 2.617932,-0.53183 0.411434,-0.0092 0.8273,0.0746 1.231029,-0.02143 0.513831,-0.122222 0.863993,-0.498679 0.812771,-0.842839 -0.06877,-0.461979 -0.68935,-0.803021 -1.271382,-1.047072 -0.516276,-0.216476 -0.913636,-0.6022352 -1.123633,-1.0097466 -0.106098,-0.20589 0.07919,-0.4220767 0.376399,-0.4884432 0.269998,-0.060291 0.552791,-0.084123 0.827535,-0.022904 0.418164,0.093175 0.911794,0.2068481 1.106321,0.5031098" />
  <path
     style="opacity:0.41;fill:none;stroke:#000000;stroke-width:1.00000011999999994px;stroke-linecap:butt;stroke-linejoin:miter;stroke-opacity:1"
     id="path2463-3"
     d="M 6.8333755,2.4999191 0.50000006,9.0624631 6.0000368,14.5 12.500078,8.1666241 l 0,-5.666705 -5.6667025,0 z m 2.6666849,2.000014 c 0.5520026,0 1.0000066,0.448002 1.0000066,1.000006 0,0.552004 -0.448004,1.000007 -1.0000066,1.000007 -0.5520042,0 -1.0000072,-0.448003 -1.0000072,-1.000007 0,-0.552004 0.448003,-1.000006 1.0000072,-1.000006 z" />
  <path
     id="path2996"
     d="M 7.03125 3 L 1.1875 9.0625 L 1.6875 9.5625 L 7.03125 4 L 9.5 4 L 12 4 L 12 3 L 7.03125 3 z M 8.09375 6 C 8.0397563 6.1539545 8 6.3286385 8 6.5 C 8 7.3225353 8.6774646 8 9.5 8 C 10.322535 8 11 7.3225359 11 6.5 C 11 6.3286384 10.960244 6.1539546 10.90625 6 C 10.701074 6.5850274 10.151174 7 9.5 7 C 8.8488261 7 8.2989259 6.5850273 8.09375 6 z "
     style="fill:#ffffff;fill-opacity:1;fill-rule:evenodd;stroke:none;opacity:0.4" />
</svg>
