<?xml version='1.0' encoding='UTF-8' standalone='no'?>
<svg height="16" xmlns:inkscape="http://www.inkscape.org/namespaces/inkscape" xmlns:sodipodi="http://sodipodi.sourceforge.net/DTD/sodipodi-0.dtd" version="1.1" width="16" xmlns="http://www.w3.org/2000/svg" enable-background="new">
 <metadata id="metadata90"/>
 <defs id="defs7386">
  <linearGradient id="linearGradient5606" osb:paint="solid">
   <stop id="stop5608"/>
  </linearGradient>
  <filter inkscape:collect="always" color-interpolation-filters="sRGB" id="filter7554">
   <feBlend inkscape:collect="always" id="feBlend7556" in2="BackgroundImage" mode="darken"/>
  </filter>
 </defs>
 <g inkscape:groupmode="layer" id="layer1" inkscape:label="places" transform="translate(-442.00003,-233)">
  <path inkscape:connector-curvature="0" d="m 448.00003,233 0,1 0,5 -1,0 L 446,239 c 1.46675,2.08173 3.50003,5.219 3.50003,5.219 L 453,239 l -0.99997,0 -1,0 0,-5 0,-1 -1,0 -1,0 z" id="path1299" sodipodi:nodetypes="cccccccccccccc" color="#000000" stroke-width="2" fill="#bebebe"/>
  <path inkscape:connector-curvature="0" d="m 447,235.34375 c -2.34254,0.99465 -4,3.32409 -4,6.0625 0,3.64238 2.91015,6.59375 6.5,6.59375 3.58985,0 6.5,-2.95137 6.5,-6.59375 0,-2.73841 -1.65746,-5.06759 -4,-6.0625 l 0,1.09375 c 1.77752,0.92757 3,2.80472 3,4.96875 0,3.08202 -2.46243,5.59375 -5.5,5.59375 -3.03757,0 -5.5,-2.51173 -5.5,-5.59375 0,-2.16403 1.22248,-4.01351 3,-4.9375 l 0,-1.125 z" id="path6557" fill="#bebebe" color="#000000"/>
 </g>
</svg>
