<?xml version="1.0" encoding="UTF-8" standalone="no"?>
<svg xmlns="http://www.w3.org/2000/svg" xmlns:xlink="http://www.w3.org/1999/xlink" xmlns:sodipodi="http://sodipodi.sourceforge.net/DTD/sodipodi-0.dtd" xmlns:inkscape="http://www.inkscape.org/namespaces/inkscape" width="16" height="16" version="1.1">
 <defs id="defs5402">
  <linearGradient inkscape:collect="always" xlink:href="#linearGradient6744" id="linearGradient6750" x1="443.5" y1="-178.5" x2="444" y2="-175.5" gradientUnits="userSpaceOnUse" gradientTransform="translate(-433,180.00027)"/>
  <linearGradient inkscape:collect="always" id="linearGradient6744">
   <stop id="stop6746" stop-color="#ffffff"/>
   <stop offset="1" id="stop6748" stop-color="#ffffff" stop-opacity="0"/>
  </linearGradient>
  <linearGradient inkscape:collect="always" xlink:href="#linearGradient6744" id="linearGradient6736" x1="435" x2="438" gradientUnits="userSpaceOnUse"/>
  <linearGradient inkscape:collect="always" xlink:href="#linearGradient5621" id="linearGradient5956" y1="63.937" x2="0" y2="47.937" gradientUnits="userSpaceOnUse" gradientTransform="translate(-1400.9375,-47.937495)"/>
  <linearGradient id="linearGradient5621">
   <stop id="stop5623" stop-color="#0b0b0b"/>
   <stop offset="1" id="stop5625" stop-color="#585858"/>
  </linearGradient>
  <linearGradient inkscape:collect="always" xlink:href="#linearGradient8589" id="linearGradient3018" gradientUnits="userSpaceOnUse" gradientTransform="matrix(0.34972769,0,0,0.35610773,-0.35686,0.30013468)" x1="32.892" y1="8.06" x2="36.36" y2="5.457"/>
  <linearGradient id="linearGradient8589">
   <stop id="stop8591" stop-color="#fefefe"/>
   <stop id="stop8593" offset="1" stop-color="#cbcbcb"/>
  </linearGradient>
  <radialGradient r="139.56" cy="112.3" cx="102" gradientTransform="matrix(0.12846887,0,0,-0.14049355,-0.25169,17.727614)" gradientUnits="userSpaceOnUse" id="radialGradient3061" xlink:href="#XMLID_8_" inkscape:collect="always"/>
  <radialGradient cx="102" cy="112.3" r="139.56" id="XMLID_8_" gradientUnits="userSpaceOnUse">
   <stop id="stop41" stop-color="#b7b8b9"/>
   <stop id="stop47" offset="0.189" stop-color="#ececec"/>
   <stop id="stop49" offset="0.257" stop-color="#fafafa" stop-opacity="0"/>
   <stop id="stop51" offset="0.301" stop-color="#ffffff" stop-opacity="0"/>
   <stop id="stop53" offset="0.531" stop-color="#fafafa" stop-opacity="0"/>
   <stop id="stop55" offset="0.845" stop-color="#ebecec" stop-opacity="0"/>
   <stop id="stop57" offset="1" stop-color="#e1e2e3" stop-opacity="0"/>
  </radialGradient>
  <linearGradient inkscape:collect="always" xlink:href="#linearGradient6744" id="linearGradient6701" y1="-180" x2="0" y2="-164" gradientUnits="userSpaceOnUse"/>
  <clipPath id="clipPath6691">
   <path id="path6693" d="m 914,-179.00027 8,-1e-5 4,3 0,11 -12,0 z"/>
  </clipPath>
  <linearGradient y2="40" x2="0" y1="280" gradientTransform="matrix(0.06666667,0,0,0.06666667,-1.6,-2.6666753)" gradientUnits="userSpaceOnUse" id="linearGradient6257" xlink:href="#outerBackgroundGradient-4" inkscape:collect="always"/>
  <linearGradient id="outerBackgroundGradient-4">
   <stop id="stop3864-8-6-6" stop-color="#f0f0f0"/>
   <stop offset="1" id="stop3866-9-1-7" stop-color="#f9f9f9"/>
  </linearGradient>
 </defs>
 <metadata id="metadata5405"/>
 <g id="layer1" inkscape:label="Layer 1" inkscape:groupmode="layer">
  <path sodipodi:nodetypes="cccccccc" inkscape:connector-curvature="0" id="path6685" d="m 2,1.0000047 8,-1.002e-5 c 0,0 1,0 2,1.00000002 l 1,1 c 1,1 1,2 1,2 l 0,9.9999993 -12,0 z" opacity="0.41" fill="none" stroke="#000000" color="#bebebe" stroke-width="2"/>
  <path d="m 2,1.0000047 8,-1.002e-5 4,3.00000002 0,10.9999993 -12,0 z" id="rect3373-6" inkscape:connector-curvature="0" sodipodi:nodetypes="cccccc" fill="url(#linearGradient6257)" color="#bebebe" stroke-width="0"/>
  <path transform="translate(-912,180.00028)" sodipodi:nodetypes="cccccc" inkscape:connector-curvature="0" id="path6687" d="m 914,-179.00027 8,-1e-5 4,3 0,11 -12,0 z" clip-path="url(#clipPath6691)" fill="none" stroke="url(#linearGradient6701)" color="#bebebe" stroke-width="2"/>
  <path id="path4191" inkscape:connector-curvature="0" d="m 10.31854,1.0185447 3.65217,3.18754 c 0,11.1521993 -12.0567,-3.18754 -3.65217,-3.18754 z" fill="url(#radialGradient3061)"/>
  <path id="path4474-4" inkscape:connector-curvature="0" d="m 7.99166,0.99376468 c 1.11697,0 1,4.01246002 1,4.01246002 0,0 5.01089,-0.58127 5.01089,1 0,-0.38528 0.0301,-1.8063 -0.0469,-1.92652 -0.55326,-0.86374 -2.94292,-2.80197 -3.80586,-3.05599 -0.69408,-0.058 -2.15813,-0.0299 -2.15813,-0.0299 z" opacity="0.17" fill-rule="evenodd"/>
  <path id="path4474-4-2" inkscape:connector-curvature="0" d="m 7.1637,1.0188547 c 1.11697,0 0.82796,4.98737 0.82796,4.98737 0,0 6.1005,-0.69597 6.1005,0.8852997 0,-0.38528 -0.0846,-2.0356897 -0.1616,-2.1559097 -0.55326,-0.86374 -3.68844,-3.37544 -4.55138,-3.62946 -1.21584,-0.12804002 -2.21548,-0.0873 -2.21548,-0.0873 z" opacity="0.05" fill-rule="evenodd"/>
  <path id="path4474" inkscape:connector-curvature="0" d="m 8.99166,0.99376468 c 1.11697,0 1,3.01246002 1,3.01246002 0,0 4.01089,-0.58127 4.01089,1 0,-0.38528 0.0301,-0.8063 -0.0469,-0.92652 -0.55326,-0.86374 -2.94292,-2.80197 -3.80586,-3.05599 -0.17779,-0.005 -0.98055,-0.02 -1.15813,-0.0299 z" fill="url(#linearGradient3018)" fill-rule="evenodd"/>
 </g>
</svg>
