<?xml version='1.0' encoding='UTF-8' standalone='no'?>
<svg height="16" xmlns:inkscape="http://www.inkscape.org/namespaces/inkscape" xmlns:sodipodi="http://sodipodi.sourceforge.net/DTD/sodipodi-0.dtd" version="1.1" width="16.01" xmlns="http://www.w3.org/2000/svg" enable-background="new">
 <metadata id="metadata90"/>
 <defs id="defs7386">
  <linearGradient id="linearGradient5606" osb:paint="solid">
   <stop id="stop5608"/>
  </linearGradient>
  <filter inkscape:collect="always" color-interpolation-filters="sRGB" id="filter7554">
   <feBlend inkscape:collect="always" id="feBlend7556" in2="BackgroundImage" mode="darken"/>
  </filter>
 </defs>
 <g inkscape:groupmode="layer" id="layer1" inkscape:label="places" transform="translate(-461.99703,-274)">
  <path inkscape:connector-curvature="0" d="m 463.00003,276 c -0.554,0 -1,0.446 -1,1 l 0,10 c 0,0.554 0.446,1 1,1 l 10,0 c 0.554,0 1,-0.446 1,-1 l 0,-3.5625 2.28125,2.28125 c 0.23073,0.2353 0.58284,0.34458 0.90625,0.28125 l 0.8125,0 0,-0.8125 c 0.004,-0.052 0.004,-0.10427 0,-0.15625 1.6e-4,-0.0104 1.6e-4,-0.0208 0,-0.0312 l 0,-6 c 0.001,-0.0312 0.001,-0.0625 0,-0.0937 l 0,-0.90625 -0.8125,0 -0.1875,0 c -0.0416,-0.003 -0.0834,-0.003 -0.125,0 -0.22185,0.024 -0.43465,0.12479 -0.59375,0.28125 l -2.28125,2.28125 0,-3.5625 c 0,-0.554 -0.446,-1 -1,-1 l -10,0 z m 0,1 10,0 0,10 -10,0 0,-10 z m 14,2 0,6 -3,-3 3,-3 z" id="path5906" color="#000000" stroke-width="2" fill="#bebebe"/>
 </g>
</svg>
