<?xml version="1.0" encoding="UTF-8" standalone="no"?>
<!-- Created with Inkscape (http://www.inkscape.org/) -->

<svg
   xmlns:dc="http://purl.org/dc/elements/1.1/"
   xmlns:cc="http://creativecommons.org/ns#"
   xmlns:rdf="http://www.w3.org/1999/02/22-rdf-syntax-ns#"
   xmlns:svg="http://www.w3.org/2000/svg"
   xmlns="http://www.w3.org/2000/svg"
   xmlns:xlink="http://www.w3.org/1999/xlink"
   xmlns:sodipodi="http://sodipodi.sourceforge.net/DTD/sodipodi-0.dtd"
   xmlns:inkscape="http://www.inkscape.org/namespaces/inkscape"
   width="16px"
   height="16px"
   id="svg5400"
   version="1.1"
   inkscape:version="0.48.4 r9939"
   sodipodi:docname="user-desktop.svg">
  <defs
     id="defs5402">
    <linearGradient
       gradientTransform="translate(-912,480)"
       inkscape:collect="always"
       xlink:href="#linearGradient6582-2"
       id="linearGradient7379"
       x1="920"
       y1="-479"
       x2="920"
       y2="-465"
       gradientUnits="userSpaceOnUse" />
    <linearGradient
       id="linearGradient6582-2">
      <stop
         style="stop-color:#ffffff;stop-opacity:1;"
         offset="0"
         id="stop6584-8" />
      <stop
         style="stop-color:#ffffff;stop-opacity:0;"
         offset="1"
         id="stop6586-4" />
    </linearGradient>
    <linearGradient
       gradientTransform="translate(-912,480)"
       inkscape:collect="always"
       xlink:href="#linearGradient7570"
       id="linearGradient7554"
       x1="927"
       y1="-464"
       x2="927"
       y2="-480"
       gradientUnits="userSpaceOnUse" />
    <linearGradient
       id="linearGradient7570">
      <stop
         id="stop7572"
         offset="0"
         style="stop-color:#347fa0;stop-opacity:1;" />
      <stop
         id="stop7574"
         offset="1"
         style="stop-color:#489fc6;stop-opacity:1;" />
    </linearGradient>
    <linearGradient
       y2="40.00005"
       x2="144"
       y1="280.00003"
       x1="144"
       gradientTransform="matrix(0.07222223,0,0,0.07142975,-2.39196,-3.435223)"
       gradientUnits="userSpaceOnUse"
       id="linearGradient6257-8"
       xlink:href="#linearGradient21877"
       inkscape:collect="always" />
    <linearGradient
       id="linearGradient21877">
      <stop
         style="stop-color:#3fafe0;stop-opacity:1;"
         offset="0"
         id="stop21879" />
      <stop
         style="stop-color:#84d5f9;stop-opacity:1;"
         offset="1"
         id="stop21881" />
    </linearGradient>
  </defs>
  <sodipodi:namedview
     id="base"
     pagecolor="#ffffff"
     bordercolor="#666666"
     borderopacity="1.0"
     inkscape:pageopacity="0.0"
     inkscape:pageshadow="2"
     inkscape:zoom="1"
     inkscape:cx="16.333669"
     inkscape:cy="4.2805687"
     inkscape:current-layer="layer1"
     showgrid="false"
     showborder="false"
     inkscape:grid-bbox="true"
     inkscape:document-units="px"
     inkscape:window-width="1364"
     inkscape:window-height="700"
     inkscape:window-x="0"
     inkscape:window-y="28"
     inkscape:window-maximized="1" />
  <metadata
     id="metadata5405">
    <rdf:RDF>
      <cc:Work
         rdf:about="">
        <dc:format>image/svg+xml</dc:format>
        <dc:type
           rdf:resource="http://purl.org/dc/dcmitype/StillImage" />
        <dc:title></dc:title>
      </cc:Work>
    </rdf:RDF>
  </metadata>
  <g
     id="layer1"
     inkscape:label="Layer 1"
     inkscape:groupmode="layer">
    <path
       style="color:#bebebe;fill:url(#linearGradient6257-8);fill-opacity:1;fill-rule:nonzero;stroke:none;stroke-width:0;marker:none;visibility:visible;display:inline;overflow:visible;enable-background:accumulate"
       d="m 1.50804,0.493427 12.99096,0.006 0.009,3.20766 0,11.78591 -13,0 z"
       id="rect3373-6-0"
       inkscape:connector-curvature="0"
       sodipodi:nodetypes="cccccc" />
    <path
       inkscape:connector-curvature="0"
       style="font-size:medium;font-style:normal;font-variant:normal;font-weight:normal;font-stretch:normal;text-indent:0;text-align:start;text-decoration:none;line-height:normal;letter-spacing:normal;word-spacing:normal;text-transform:none;direction:ltr;block-progression:tb;writing-mode:lr-tb;text-anchor:start;baseline-shift:baseline;opacity:0.91000001;color:#bebebe;fill:url(#linearGradient7554);fill-opacity:1;stroke:none;stroke-width:2;marker:none;visibility:visible;display:inline;overflow:visible;enable-background:accumulate;font-family:Sans;-inkscape-font-specification:Sans"
       d="m 1,-3e-6 0,1 0,14 0,1 1,0 12,0 1,0 0,-1 0,-10 0,-4 0,-1 -1,0 -4,0 -8,0 -1,0 z m 1,1 0.5,0 11,0 0.5,0 0,0.5 0,13 0,0.5 -0.5,0 -11,0 -0.5,0 0,-0.5 0,-13 0,-0.5 z"
       id="path6685-1" />
    <rect
       style="opacity:0.6;fill:none;stroke:url(#linearGradient7379);stroke-width:1;stroke-linecap:square;stroke-linejoin:miter;stroke-miterlimit:4;stroke-opacity:1;stroke-dasharray:none;display:inline;enable-background:new"
       id="rect7371"
       width="11"
       height="13"
       x="2.5"
       y="1.5" />
    <path
       id="path7576"
       d="m 4,2.499997 0,1 1,0 0,-1 -1,0 z m 0,1 -1,0 0,1 1,0 0,-1 z m 2,-1 0,1 1,0 0,-1 -1,0 z m 2,0 0,1 1,0 0,-1 -1,0 z m 2,0 0,1 1,0 0,-1 -1,0 z m 2,0 0,1 1,0 0,-1 -1,0 z m 0,2 0,1 1,0 0,-1 -1,0 z m -9,1 0,1 1,0 0,-1 -1,0 z m 9,1 0,1 1,0 0,-1 -1,0 z m -9,1 0,1 1,0 0,-1 -1,0 z m 9,1 0,1 1,0 0,-1 -1,0 z m -9,1 0,1 1,0 0,-1 -1,0 z m 9,1 0,1 1,0 0,-1 -1,0 z m -9,1 0,1 1,0 0,-1 -1,0 z m 9,1 0,1 1,0 0,-1 -1,0 z m 0,1 -1,0 0,1 1,0 0,-1 z m -9,0 0,1 1,0 0,-1 -1,0 z m 2,0 0,1 1,0 0,-1 -1,0 z m 2,0 0,1 1,0 0,-1 -1,0 z m 2,0 0,1 1,0 0,-1 -1,0 z"
       style="opacity:0.2;fill:#000000;fill-opacity:1;stroke:none;display:inline;enable-background:new"
       inkscape:connector-curvature="0" />
    <path
       inkscape:connector-curvature="0"
       style="fill:#ffffff;fill-opacity:1;stroke:none;display:inline;enable-background:new"
       d="m 4,1.999997 0,1 1,0 0,-1 -1,0 z m 0,1 -1,0 0,1 1,0 0,-1 z m 2,-1 0,1 1,0 0,-1 -1,0 z m 2,0 0,1 1,0 0,-1 -1,0 z m 2,0 0,1 1,0 0,-1 -1,0 z m 2,0 0,1 1,0 0,-1 -1,0 z m 0,2 0,1 1,0 0,-1 -1,0 z m -9,1 0,1 1,0 0,-1 -1,0 z m 9,1 0,1 1,0 0,-1 -1,0 z m -9,1 0,1 1,0 0,-1 -1,0 z m 9,1 0,1 1,0 0,-1 -1,0 z m -9,1 0,1 1,0 0,-1 -1,0 z m 9,1 0,1 1,0 0,-1 -1,0 z m -9,1 0,1 1,0 0,-1 -1,0 z m 9,1 0,1 1,0 0,-1 -1,0 z m 0,1 -1,0 0,1 1,0 0,-1 z m -9,0 0,1 1,0 0,-1 -1,0 z m 2,0 0,1 1,0 0,-1 -1,0 z m 2,0 0,1 1,0 0,-1 -1,0 z m 2,0 0,1 1,0 0,-1 -1,0 z"
       id="rect7288" />
  </g>
</svg>
