<?xml version="1.0" encoding="UTF-8" standalone="no"?>
<!-- Created with Inkscape (http://www.inkscape.org/) -->

<svg
   xmlns:dc="http://purl.org/dc/elements/1.1/"
   xmlns:cc="http://creativecommons.org/ns#"
   xmlns:rdf="http://www.w3.org/1999/02/22-rdf-syntax-ns#"
   xmlns:svg="http://www.w3.org/2000/svg"
   xmlns="http://www.w3.org/2000/svg"
   xmlns:xlink="http://www.w3.org/1999/xlink"
   xmlns:sodipodi="http://sodipodi.sourceforge.net/DTD/sodipodi-0.dtd"
   xmlns:inkscape="http://www.inkscape.org/namespaces/inkscape"
   width="16px"
   height="16px"
   id="svg5400"
   version="1.1"
   inkscape:version="0.48.4 r9939"
   sodipodi:docname="folder-saved-search.svg">
  <defs
     id="defs5402">
    <linearGradient
       inkscape:collect="always"
       id="linearGradient3878">
      <stop
         style="stop-color:#5fb53f;stop-opacity:1;"
         offset="0"
         id="stop3880" />
      <stop
         style="stop-color:#73d94d;stop-opacity:1"
         offset="1"
         id="stop3882" />
    </linearGradient>
    <linearGradient
       inkscape:collect="always"
       id="linearGradient3870">
      <stop
         style="stop-color:#2a64c0;stop-opacity:1;"
         offset="0"
         id="stop3872" />
      <stop
         style="stop-color:#4da1ed;stop-opacity:1"
         offset="1"
         id="stop3874" />
    </linearGradient>
    <linearGradient
       inkscape:collect="always"
       id="linearGradient3800">
      <stop
         style="stop-color:#ffffff;stop-opacity:1;"
         offset="0"
         id="stop3802" />
      <stop
         style="stop-color:#ffffff;stop-opacity:0;"
         offset="1"
         id="stop3804" />
    </linearGradient>
    <linearGradient
       id="linearGradient5621">
      <stop
         style="stop-color:#0b0b0b;stop-opacity:1"
         offset="0"
         id="stop5623" />
      <stop
         style="stop-color:#585858;stop-opacity:1"
         offset="1"
         id="stop5625" />
    </linearGradient>
    <linearGradient
       inkscape:collect="always"
       xlink:href="#linearGradient5621"
       id="linearGradient3783"
       x1="16"
       y1="16"
       x2="16"
       y2="0"
       gradientUnits="userSpaceOnUse" />
    <linearGradient
       inkscape:collect="always"
       xlink:href="#linearGradient3800"
       id="linearGradient3806"
       x1="13"
       y1="11"
       x2="12"
       y2="12"
       gradientUnits="userSpaceOnUse" />
    <linearGradient
       inkscape:collect="always"
       xlink:href="#linearGradient3870"
       id="linearGradient3876"
       x1="16"
       y1="16"
       x2="16"
       y2="0"
       gradientUnits="userSpaceOnUse"
       gradientTransform="translate(0,1)" />
    <linearGradient
       inkscape:collect="always"
       xlink:href="#linearGradient3878"
       id="linearGradient3884"
       x1="0"
       y1="16"
       x2="0"
       y2="0"
       gradientUnits="userSpaceOnUse"
       gradientTransform="translate(0,1)" />
  </defs>
  <sodipodi:namedview
     id="base"
     pagecolor="#ffffff"
     bordercolor="#666666"
     borderopacity="1.0"
     inkscape:pageopacity="0.0"
     inkscape:pageshadow="2"
     inkscape:zoom="1"
     inkscape:cx="12.926791"
     inkscape:cy="5.2297205"
     inkscape:current-layer="layer1"
     showgrid="false"
     showborder="false"
     inkscape:grid-bbox="true"
     inkscape:document-units="px"
     inkscape:window-width="1364"
     inkscape:window-height="700"
     inkscape:window-x="0"
     inkscape:window-y="28"
     inkscape:window-maximized="1"
     inkscape:snap-bbox="true"
     inkscape:snap-bbox-edge-midpoints="true"
     inkscape:snap-bbox-midpoints="true"
     inkscape:bbox-nodes="true"
     inkscape:bbox-paths="true">
    <inkscape:grid
       type="xygrid"
       id="grid3785" />
  </sodipodi:namedview>
  <metadata
     id="metadata5405">
    <rdf:RDF>
      <cc:Work
         rdf:about="">
        <dc:format>image/svg+xml</dc:format>
        <dc:type
           rdf:resource="http://purl.org/dc/dcmitype/StillImage" />
        <dc:title></dc:title>
      </cc:Work>
    </rdf:RDF>
  </metadata>
  <g
     id="layer1"
     inkscape:label="Layer 1"
     inkscape:groupmode="layer">
    <path
       id="path3868"
       d="m 5.53125,6.375 0,1.09375 0,0.96875 3,0 0.5,0 0.5,0 0,0.5 0,3 0,0.5 -0.5,0 -3.5,0 0,0.96875 0,1.09375 L 4.6875,13.78125 1.28125,10.8125 0.875,10.4375 1.28125,10.0625 4.6875,7.09375 5.53125,6.375 z"
       style="color:#000000;fill:url(#linearGradient3884);fill-opacity:1;stroke:none"
       inkscape:connector-curvature="0" />
    <path
       style="color:#000000;fill:url(#linearGradient3876);fill-opacity:1;stroke:none"
       d="m 10.5,2.4375 0,1.09375 0,0.96875 -3,0 -0.5,0 -0.5,0 0,0.5 0,3 0,0.5 0.5,0 3.5,0 0,0.96875 0,1.09375 L 11.34375,9.84375 14.75,6.875 15.15625,6.5 14.75,6.125 11.34375,3.15625 10.5,2.4375 z"
       id="path3859"
       inkscape:connector-curvature="0" />
    <path
       style="opacity:0.7;color:#000000;fill:#2d487e;fill-opacity:1;stroke:none"
       d="M 10,1.46875 10,2.5 10,4 7.5,4 7,4 6,4 l 0,5 1,0 3,0 0,1.5 0,1.03125 L 10.8125,10.875 16,6.5 10.8125,2.125 10,1.46875 z M 11,3.53125 14.40625,6.5 11,9.46875 11,8.5 11,8 10.5,8 7,8 7,5 l 0.5,0 3,0 0.5,0 0,-0.5 0,-0.96875 z"
       id="path5834"
       inkscape:connector-curvature="0" />
    <path
       style="opacity:0.7;color:#000000;fill:#335e37;fill-opacity:1;stroke:none"
       d="M 6,5.46875 5.1875,6.125 0,10.5 5.1875,14.875 6,15.53125 6,14.5 6,13 8.5,13 9,13 10,13 10,8 9,8 6,8 6,6.5 6,5.46875 z M 5,7.53125 5,8.5 5,9 5.5,9 9,9 9,12 8.5,12 5.5,12 5,12 5,12.5 5,13.46875 1.59375,10.5 5,7.53125 z"
       id="path5836"
       inkscape:connector-curvature="0" />
    <path
       style="opacity:0.4;color:#000000;fill:#ffffff;fill-opacity:1;stroke:none"
       d="M 11,3.53125 11,4.5 l 0,0.03125 0.03125,0 L 13.84375,7 14.40625,6.5 11.03125,3.53125 11,3.53125 z M 7,5 7,6 7.5,6 10.5,6 11,6 11,5.5 11,5 10.5,5 7.5,5 7,5 z"
       id="path3888"
       inkscape:connector-curvature="0" />
    <path
       id="path3900"
       d="M 11,10.46875 11,9.5 l 0,-0.03125 0.03125,0 L 13.84375,7 l 0.5625,0.5 -3.375,2.96875 z M 7,9 7,8 l 0.5,0 3,0 0.5,0 0,0.5 0,0.5 -0.5,0 -3,0 z"
       style="opacity:0.2;color:#000000;fill:#000000;fill-opacity:1;stroke:none"
       inkscape:connector-curvature="0"
       sodipodi:nodetypes="cccccccccccccccccc" />
    <path
       id="path3902"
       d="M 5,7.53125 5,8.5 l 0,0.03125 -0.03125,0 L 2.15625,11 1.59375,10.5 4.96875,7.53125 z M 9,9 9,10 8.5,10 5.5,10 5,10 5,9.5 5,9 l 0.5,0 3,0 z"
       style="opacity:0.4;color:#000000;fill:#ffffff;fill-opacity:1;stroke:none"
       inkscape:connector-curvature="0"
       sodipodi:nodetypes="cccccccccccccccccc" />
    <path
       sodipodi:nodetypes="cccccccccccccccccc"
       inkscape:connector-curvature="0"
       style="opacity:0.2;color:#000000;fill:#000000;fill-opacity:1;stroke:none"
       d="M 5,14.46875 5,13.5 l 0,-0.03125 -0.03125,0 L 2.15625,11 l -0.5625,0.5 3.375,2.96875 z M 9,13 l 0,-1 -0.5,0 -3,0 -0.5,0 0,0.5 0,0.5 0.5,0 3,0 z"
       id="path3904" />
  </g>
</svg>
