<?xml version='1.0' encoding='UTF-8' standalone='no'?>
<svg height="16" xmlns:inkscape="http://www.inkscape.org/namespaces/inkscape" xmlns:sodipodi="http://sodipodi.sourceforge.net/DTD/sodipodi-0.dtd" version="1.1" width="16" xmlns="http://www.w3.org/2000/svg" enable-background="new">
 <metadata id="metadata90"/>
 <defs id="defs7386">
  <linearGradient id="linearGradient5606" osb:paint="solid">
   <stop id="stop5608"/>
  </linearGradient>
  <filter inkscape:collect="always" color-interpolation-filters="sRGB" id="filter7554">
   <feBlend inkscape:collect="always" id="feBlend7556" in2="BackgroundImage" mode="darken"/>
  </filter>
 </defs>
 <g inkscape:groupmode="layer" id="layer1" inkscape:label="places" transform="translate(-543,-229)">
  <path inkscape:connector-curvature="0" d="m 551,240 -4.00002,-5 2,0 10e-6,-6 3.99999,0 -1e-5,6 2,0 z" id="path6148" sodipodi:nodetypes="cccccccc" fill="#bebebe"/>
  <path inkscape:connector-curvature="0" d="m 543.99999,239 0,4 c 0,0 -0.0312,0.9375 1,1 l 12,0 c 1,0 1,-1 1,-1 l 0,-4 -3.14258,0 c -0.44607,1.72227 -1.99568,3 -3.85742,3 -1.86174,0 -3.41135,-1.27773 -3.85742,-3 z" id="rect4434" sodipodi:nodetypes="cccscccscc" fill="#bebebe" fill-rule="evenodd"/>
  <path inkscape:connector-curvature="0" d="m 546.10351,231 -2.08985,7.88477 c -0.0699,0.25785 0.10738,0.55578 0.36735,0.61738 0.25996,0.0616 0.55206,-0.12511 0.60531,-0.38692 L 546.89647,232 l 1.10352,0 0,-1 z m 7.89648,0 0,1 1.10352,0 1.91015,7.11523 c 0.0532,0.26181 0.34535,0.44852 0.60531,0.38692 0.25997,-0.0616 0.43723,-0.35953 0.36735,-0.61738 L 555.89647,231 z" id="path374" sodipodi:nodetypes="ccscccccccccsccc" color="#000000" fill="#bebebe"/>
 </g>
</svg>
