<?xml version="1.0" encoding="UTF-8" standalone="no"?>
<svg
   xmlns:dc="http://purl.org/dc/elements/1.1/"
   xmlns:cc="http://creativecommons.org/ns#"
   xmlns:rdf="http://www.w3.org/1999/02/22-rdf-syntax-ns#"
   xmlns:svg="http://www.w3.org/2000/svg"
   xmlns="http://www.w3.org/2000/svg"
   xmlns:xlink="http://www.w3.org/1999/xlink"
   version="1.1"
   id="svg5400"
   height="16px"
   width="16px">
  <defs
     id="defs5402">
    <linearGradient
       id="linearGradient3785">
      <stop
         id="stop3787"
         offset="0"
         style="stop-color:#ffffff;stop-opacity:1;" />
      <stop
         id="stop3789"
         offset="1"
         style="stop-color:#ffffff;stop-opacity:0;" />
    </linearGradient>
    <linearGradient
       gradientUnits="userSpaceOnUse"
       y2="15"
       x2="8"
       y1="9"
       x1="8"
       id="linearGradient3791"
       xlink:href="#linearGradient3785" />
    <linearGradient
       y2="8"
       x2="8"
       y1="5"
       x1="8"
       gradientUnits="userSpaceOnUse"
       id="linearGradient3795"
       xlink:href="#linearGradient3785" />
  </defs>
  <metadata
     id="metadata5405">
    <rdf:RDF>
      <cc:Work
         rdf:about="">
        <dc:format>image/svg+xml</dc:format>
        <dc:type
           rdf:resource="http://purl.org/dc/dcmitype/StillImage" />
        <dc:title />
      </cc:Work>
    </rdf:RDF>
  </metadata>
  <g
     id="layer1">
    <path
       style="opacity:0.2;fill:none;stroke:#b600ff;stroke-opacity:1;display:inline;enable-background:new"
       id="path3774"
       d="m 8.00013,3.07093 c 2.02815,0 3.67225,1.54863 3.67225,3.45896 0,0.92903 -0.38896,1.77242 -1.02166,2.39384 C 10.46966,8.64927 10.21968,8.3878 9.87498,8.1873 c 0.43199,-0.43336 0.69707,-1.01608 0.69707,-1.6574 0,-1.33795 -1.15148,-2.42254 -2.57192,-2.42254 -1.4205,0 -2.57194,1.08459 -2.57194,2.42254 0,0.64274 0.26625,1.22655 0.6999,1.6602 C 5.78394,8.39129 5.53465,8.65338 5.35421,8.92827 4.71868,8.30638 4.32784,7.4612 4.32784,6.5299 c 0,-1.91029 1.6441,-3.45897 3.67229,-3.45897 z M 8.00013,1 c 3.24244,0 5.87091,2.47585 5.87091,5.52993 0,1.99309 -1.11962,3.73966 -2.79861,4.71285 0.0335,-0.23959 0.0548,-0.49675 0.0548,-0.76316 0,0 10e-4,-0.2059 -0.0573,-0.50329 1.0432,-0.8253 1.70647,-2.06279 1.70647,-3.4464 0,-2.48474 -2.13846,-4.49898 -4.77646,-4.49898 -2.63801,0 -4.77652,2.01424 -4.77652,4.49898 0,1.38654 0.66612,2.62636 1.71316,3.45166 -0.0576,0.29452 -0.0561,0.498 -0.0561,0.498 0,0.26822 0.0217,0.52707 0.0554,0.76802 C 3.25224,10.27542 2.12896,8.52632 2.12896,6.52993 2.1291,3.47582 4.75761,1 8.00007,1 l 0,0 z" />
    <path
       d="m 8.00013,3.07093 c 2.02815,0 3.67225,1.54863 3.67225,3.45896 0,0.92903 -0.38896,1.77242 -1.02166,2.39384 C 10.46966,8.64927 10.21968,8.3878 9.87498,8.1873 c 0.43199,-0.43336 0.69707,-1.01608 0.69707,-1.6574 0,-1.33795 -1.15148,-2.42254 -2.57192,-2.42254 -1.4205,0 -2.57194,1.08459 -2.57194,2.42254 0,0.64274 0.26625,1.22655 0.6999,1.6602 C 5.78394,8.39129 5.53465,8.65338 5.35421,8.92827 4.71868,8.30638 4.32784,7.4612 4.32784,6.5299 c 0,-1.91029 1.6441,-3.45897 3.67229,-3.45897 z M 8.00013,1 c 3.24244,0 5.87091,2.47585 5.87091,5.52993 0,1.99309 -1.11962,3.73966 -2.79861,4.71285 0.0335,-0.23959 0.0548,-0.49675 0.0548,-0.76316 0,0 10e-4,-0.2059 -0.0573,-0.50329 1.0432,-0.8253 1.70647,-2.06279 1.70647,-3.4464 0,-2.48474 -2.13846,-4.49898 -4.77646,-4.49898 -2.63801,0 -4.77652,2.01424 -4.77652,4.49898 0,1.38654 0.66612,2.62636 1.71316,3.45166 -0.0576,0.29452 -0.0561,0.498 -0.0561,0.498 0,0.26822 0.0217,0.52707 0.0554,0.76802 C 3.25224,10.27542 2.12896,8.52632 2.12896,6.52993 2.1291,3.47582 4.75761,1 8.00007,1 l 0,0 z"
       id="path3772"
       style="fill:#b064d6;fill-opacity:1;stroke:none;display:inline;enable-background:new" />
    <path
       style="fill:#555555;fill-opacity:1;stroke:none;display:inline;enable-background:new"
       id="path3867"
       d="m 8.00013,7.91423 c -0.81166,0 -1.46972,-0.61976 -1.46972,-1.3843 0,-0.76451 0.65801,-1.3843 1.46972,-1.3843 0.8117,0 1.46966,0.61979 1.46966,1.3843 0,0.76454 -0.65801,1.3843 -1.46966,1.3843 z m 0,0.69214 c 1.11601,0 2.02081,0.85221 2.02081,1.90343 C 10.02094,11.56099 9.11619,15 8.00013,15 6.88405,15 5.9793,11.56102 5.9793,10.5098 c 0,-1.05122 0.90475,-1.90343 2.02083,-1.90343 z" />
    <path
       d="m 8.00013,7.91423 c -0.81166,0 -1.46972,-0.61976 -1.46972,-1.3843 0,-0.76451 0.65801,-1.3843 1.46972,-1.3843 0.8117,0 1.46966,0.61979 1.46966,1.3843 0,0.76454 -0.65801,1.3843 -1.46966,1.3843 z m 0,0.69214 c 1.11601,0 2.02081,0.85221 2.02081,1.90343 C 10.02094,11.56099 9.11619,15 8.00013,15 6.88405,15 5.9793,11.56102 5.9793,10.5098 c 0,-1.05122 0.90475,-1.90343 2.02083,-1.90343 z"
       id="path3799"
       style="opacity:0.41000001;fill:none;stroke:#000000;stroke-opacity:1;display:inline;enable-background:new" />
    <path
       id="path3776"
       d="m 8,9.09375 c -0.8615552,0 -1.53125,0.641919 -1.53125,1.40625 0,0.382166 0.2160654,1.529811 0.5625,2.46875 0.1732173,0.46947 0.394557,0.908339 0.59375,1.1875 C 7.824193,14.435411 7.9777552,14.5 8,14.5 8.022233,14.5 8.1758087,14.43541 8.375,14.15625 8.5741913,13.877086 8.7955336,13.438222 8.96875,12.96875 9.3151828,12.029806 9.53125,10.882146 9.53125,10.5 9.53125,9.735685 8.8614693,9.09375 8,9.09375 z"
       style="opacity:0.4;fill:url(#linearGradient3791);fill-opacity:1;stroke:none;display:inline;enable-background:new" />
    <path
       style="opacity:0.4;fill:url(#linearGradient3795);fill-opacity:1;stroke:none;display:inline;enable-background:new"
       d="m 8,5.65625 c -0.5571897,0 -0.96875,0.3973884 -0.96875,0.875 0,0.4776311 0.4116137,0.875 0.96875,0.875 0.5571232,0 0.96875,-0.3973471 0.96875,-0.875 0,-0.4776334 -0.4115734,-0.875 -0.96875,-0.875 z"
       id="path3793" />
  </g>
</svg>
