<?xml version="1.0" encoding="UTF-8" standalone="no"?>
<svg xmlns="http://www.w3.org/2000/svg" xmlns:xlink="http://www.w3.org/1999/xlink" xmlns:sodipodi="http://sodipodi.sourceforge.net/DTD/sodipodi-0.dtd" xmlns:inkscape="http://www.inkscape.org/namespaces/inkscape" version="1.1" width="16" height="16">
 <defs id="defs4232">
  <linearGradient inkscape:collect="always" id="linearGradient3888">
   <stop id="stop3890" stop-color="#70b2ff"/>
   <stop offset="1" id="stop3892" stop-color="#416dc2"/>
  </linearGradient>
  <linearGradient id="linearGradient3811">
   <stop id="stop3813" stop-color="#c7c7c7"/>
   <stop offset="0.262" id="stop3815" stop-color="#a6a6a6"/>
   <stop offset="0.705" id="stop3817" stop-color="#7b7b7b"/>
   <stop offset="1" id="stop3819" stop-color="#595959"/>
  </linearGradient>
  <linearGradient y1="6.923" x2="0" y2="26.846" id="linearGradient3036" xlink:href="#linearGradient4503-2" gradientUnits="userSpaceOnUse" gradientTransform="matrix(0.29729718,0,0,0.35135133,0.86486,-0.43243031)"/>
  <linearGradient id="linearGradient4503-2">
   <stop id="stop4505-6" stop-color="#ffffff"/>
   <stop id="stop4507-9" offset="0.021" stop-color="#ffffff" stop-opacity="0.235"/>
   <stop id="stop4509-3" offset="0.5" stop-color="#ffffff" stop-opacity="0.157"/>
   <stop id="stop4511-0" offset="1" stop-color="#ffffff" stop-opacity="0.392"/>
  </linearGradient>
  <radialGradient cx="64.58" cy="48.605" r="31" id="radialGradient3039" xlink:href="#linearGradient3242-7-8-3-6" gradientUnits="userSpaceOnUse" gradientTransform="matrix(0,0.49514146,-0.41958841,0,28.3895,-32.00246)"/>
  <linearGradient id="linearGradient3242-7-8-3-6">
   <stop id="stop3244-5-5-7-5" stop-color="#eef87e"/>
   <stop id="stop3246-9-0-2-5" offset="0.262" stop-color="#cde34f"/>
   <stop id="stop3248-7-5-3-3" offset="0.661" stop-color="#93b723"/>
   <stop id="stop3250-8-9-5-8" offset="1" stop-color="#5a7e0d"/>
  </linearGradient>
  <linearGradient y1="124.76" x2="0" y2="51.24" id="linearGradient3041" xlink:href="#linearGradient4121-6-7-7" gradientUnits="userSpaceOnUse" gradientTransform="matrix(0.10408428,0,0,0.13471259,-1.15942,-6.8547103)"/>
  <linearGradient id="linearGradient4121-6-7-7">
   <stop id="stop4123-85-8-3" stop-color="#3f7010"/>
   <stop id="stop4125-2-9-6" offset="1" stop-color="#84a718"/>
  </linearGradient>
  <linearGradient y1="0.985" x2="0" y2="47.01" id="linearGradient3049" xlink:href="#linearGradient3600-3" gradientUnits="userSpaceOnUse" gradientTransform="matrix(0.43333498,0,0,0.3259265,-2.40004,0.67779969)"/>
  <linearGradient id="linearGradient3600-3">
   <stop id="stop3602-38" stop-color="#f4f4f4"/>
   <stop id="stop3604-0" offset="1" stop-color="#dbdbdb"/>
  </linearGradient>
  <radialGradient cx="8.327" cy="8.553" r="20" id="radialGradient3052" xlink:href="#linearGradient3811" gradientUnits="userSpaceOnUse" gradientTransform="matrix(-2.4954688e-8,0.7215665,-1.5731566,0,21.31585,-19.137096)"/>
  <linearGradient y1="0.985" x2="0" y2="47.01" id="linearGradient4226" xlink:href="#linearGradient3600-3" gradientUnits="userSpaceOnUse" gradientTransform="matrix(0.42857266,0,0,0.32592781,-2.28574,0.67776954)"/>
  <linearGradient inkscape:collect="always" xlink:href="#linearGradient3600-3" id="linearGradient3846" y1="0" x2="0" y2="16" gradientUnits="userSpaceOnUse"/>
  <linearGradient inkscape:collect="always" xlink:href="#linearGradient3811" id="linearGradient3854" gradientUnits="userSpaceOnUse" y1="0" x2="0" y2="16"/>
  <linearGradient inkscape:collect="always" xlink:href="#linearGradient3888" id="linearGradient3894" y1="0" x2="0" y2="11.5" gradientUnits="userSpaceOnUse"/>
 </defs>
 <metadata id="metadata4235"/>
 <g id="layer1">
  <path d="M 2.71875 1.5 L 2.625 1.875 L 0.53125 9.75 C 0.46829758 9.9823815 0.49941773 10.058404 0.5 10 C 0.50009406 9.99057 0.501448 10.06488 0.5 10.09375 C 0.498552 10.12262 0.4875344 10.11265 0.5 10.1875 L 0.5 13.96875 L 0.5 14 C 0.49901597 14.02742 0.481187 14.337374 0.65625 14.6875 C 0.83889572 15.052791 1.3021364 15.459599 1.96875 15.5 L 2 15.5 L 14 15.5 C 14.666667 15.5 15.127872 15.088007 15.3125 14.71875 C 15.497128 14.349493 15.5 14 15.5 14 L 15.5 10.1875 L 15.5 10.09375 C 15.4985 10.06475 15.499903 9.9902769 15.5 10 C 15.500583 10.05857 15.53191 9.982682 15.46875 9.75 L 13.375 1.875 L 13.28125 1.5 L 12.90625 1.5 L 11 1.5 L 3.09375 1.5 L 2.71875 1.5 z " id="path6148" fill="url(#linearGradient3846)"/>
  <path id="path3868" d="M 2.71875 1.5 L 2.625 1.875 L 0.53125 9.75 C 0.46829758 9.9823815 0.49941773 10.058404 0.5 10 C 0.50009406 9.99057 0.501448 10.06488 0.5 10.09375 C 0.498552 10.12262 0.4875344 10.11265 0.5 10.1875 L 0.5 13.96875 L 0.5 14 C 0.49901597 14.02742 0.481187 14.337374 0.65625 14.6875 C 0.83889572 15.052791 1.3021364 15.459599 1.96875 15.5 L 2 15.5 L 14 15.5 C 14.666667 15.5 15.127872 15.088007 15.3125 14.71875 C 15.497128 14.349493 15.5 14 15.5 14 L 15.5 10.1875 L 15.5 10.09375 C 15.4985 10.06475 15.499903 9.9902769 15.5 10 C 15.500583 10.05857 15.53191 9.982682 15.46875 9.75 L 13.375 1.875 L 13.28125 1.5 L 12.90625 1.5 L 11 1.5 L 3.09375 1.5 L 2.71875 1.5 z " opacity="0.5" fill="none" stroke="#000000" stroke-linejoin="round"/>
  <path d="M 3.875 3 L 2 9.9375 C 2.0008623 9.96117 1.9998672 9.96187 2 9.96875 C 2.0000473 9.97551 2.0000025 9.99377 2 10 L 6 10 C 6 11.104569 6.8954305 12 8 12 C 9.1045695 12 10 11.104569 10 10 L 14 10 C 14.000097 9.99293 13.999858 9.97582 14 9.96875 L 14 9.9375 L 12.125 3 L 11 3 L 3.875 3 z " id="path3852" fill="url(#linearGradient3854)"/>
  <path inkscape:connector-curvature="0" d="m 3.8750003,3 -1.875,6.9375004 c 8.623e-4,0.02367 -1.328e-4,0.02437 0,0.03125 4.73e-5,0.0068 2.5e-6,0.02502 0,0.03125 l 0.25,0 1.625,-6 7.1250007,0 1.124999,0 1.625,6 0.25,0 c 9.7e-5,-0.0071 -1.42e-4,-0.02418 0,-0.03125 L 14,9.9375004 12.125,3 11.000001,3 3.8750003,3 z" id="path4003" opacity="0.5"/>
  <path d="m 2.91874,4.5000197 5,5.9999803 5.16251,-5.9999803 -2.58125,0 0,-4.00002001 -5,0 0,4.00002001 z" inkscape:connector-curvature="0" id="path5656" fill="url(#linearGradient3894)" stroke-linejoin="round" stroke-linecap="round" color="#000000" stroke-width="0.985"/>
  <path d="m 2,10.000022 0,1 c 1.06937,0 1.92592,-5e-5 4,0 0,0 0,2 2,2 2,0 2,-2 2,-2 1.71762,5e-5 4,0 4,0 l 0,-1 c 0,0 -2.28238,5e-5 -4,0 0,0 0,2 -2,2 -2,0 -2,-2 -2,-2 -2.07408,-4.98e-5 -2.93063,0 -4,0 z" id="path3806" inkscape:connector-curvature="0" sodipodi:nodetypes="cccsccccscc" fill="#ffffff" color="#000000"/>
  <path d="M 6 1 L 6 2 L 10 2 L 10 1 L 6 1 z M 6 4.59375 A 0.50005 0.50005 0 0 1 5.5 5 L 4 5 L 4.84375 6 L 5.5 6 A 0.50005 0.50005 0 0 0 6 5.5 L 6 4.59375 z M 10 4.59375 L 10 5.5 A 0.50005 0.50005 0 0 0 10.5 6 L 11.125 6 L 12 5 L 10.5 5 A 0.50005 0.50005 0 0 1 10 4.59375 z " id="path3946" opacity="0.3" color="#000000" stroke-width="0.985" stroke-linecap="round" fill="#ffffff" stroke-linejoin="round"/>
  <path id="path3896" inkscape:connector-curvature="0" d="m 2.91874,4.5000197 5,5.9999803 5.16251,-5.9999803 -2.58125,0 0,-4.00002001 -5,0 0,4.00002001 z" opacity="0.7" color="#000000" stroke-linecap="round" fill="none" stroke-linejoin="round" stroke="#13489c"/>
 </g>
</svg>
