<?xml version="1.0" encoding="UTF-8" standalone="no"?>
<svg
   xmlns:dc="http://purl.org/dc/elements/1.1/"
   xmlns:cc="http://creativecommons.org/ns#"
   xmlns:rdf="http://www.w3.org/1999/02/22-rdf-syntax-ns#"
   xmlns:svg="http://www.w3.org/2000/svg"
   xmlns="http://www.w3.org/2000/svg"
   xmlns:xlink="http://www.w3.org/1999/xlink"
   id="svg4230"
   height="16"
   width="16"
   version="1.1">
  <defs
     id="defs4232">
    <linearGradient
       id="linearGradient3811">
      <stop
         id="stop3813"
         style="stop-color:#c7c7c7;stop-opacity:1"
         offset="0" />
      <stop
         id="stop3815"
         style="stop-color:#a6a6a6;stop-opacity:1"
         offset="0.26238" />
      <stop
         id="stop3817"
         style="stop-color:#7b7b7b;stop-opacity:1"
         offset="0.704952" />
      <stop
         id="stop3819"
         style="stop-color:#595959;stop-opacity:1"
         offset="1" />
    </linearGradient>
    <linearGradient
       id="linearGradient3600">
      <stop
         offset="0"
         style="stop-color:#f4f4f4;stop-opacity:1"
         id="stop3602" />
      <stop
         offset="1"
         style="stop-color:#dbdbdb;stop-opacity:1"
         id="stop3604" />
    </linearGradient>
    <linearGradient
       gradientUnits="userSpaceOnUse"
       y2="16"
       x2="16"
       y1="0"
       x1="16"
       id="linearGradient3846"
       xlink:href="#linearGradient3600" />
    <linearGradient
       y2="16"
       x2="16"
       y1="0"
       x1="16"
       gradientUnits="userSpaceOnUse"
       id="linearGradient3883"
       xlink:href="#linearGradient3811" />
  </defs>
  <metadata
     id="metadata4235">
    <rdf:RDF>
      <cc:Work
         rdf:about="">
        <dc:format>image/svg+xml</dc:format>
        <dc:type
           rdf:resource="http://purl.org/dc/dcmitype/StillImage" />
        <dc:title />
      </cc:Work>
    </rdf:RDF>
  </metadata>
  <g
     id="layer1">
    <path
       id="path6148"
       d="M 2.71875 1.5 L 2.625 1.875 L 0.53125 9.75 C 0.46829758 9.9823815 0.49941773 10.058404 0.5 10 C 0.50009406 9.99057 0.501448 10.06488 0.5 10.09375 C 0.498552 10.12262 0.4875344 10.11265 0.5 10.1875 L 0.5 13.96875 L 0.5 14 C 0.49901597 14.02742 0.481187 14.337374 0.65625 14.6875 C 0.83889572 15.052791 1.3021364 15.459599 1.96875 15.5 L 2 15.5 L 14 15.5 C 14.666667 15.5 15.127872 15.088007 15.3125 14.71875 C 15.497128 14.349493 15.5 14 15.5 14 L 15.5 10.1875 L 15.5 10.09375 C 15.4985 10.06475 15.499903 9.9902769 15.5 10 C 15.500583 10.05857 15.53191 9.982682 15.46875 9.75 L 13.375 1.875 L 13.28125 1.5 L 12.90625 1.5 L 11 1.5 L 3.09375 1.5 L 2.71875 1.5 z "
       style="fill:url(#linearGradient3846);fill-opacity:1;stroke:none" />
    <path
       style="fill:none;fill-opacity:1;stroke:#000000;stroke-opacity:1;opacity:0.50000000000000000;stroke-linejoin:round"
       d="M 2.71875 1.5 L 2.625 1.875 L 0.53125 9.75 C 0.46829758 9.9823815 0.49941773 10.058404 0.5 10 C 0.50009406 9.99057 0.501448 10.06488 0.5 10.09375 C 0.498552 10.12262 0.4875344 10.11265 0.5 10.1875 L 0.5 13.96875 L 0.5 14 C 0.49901597 14.02742 0.481187 14.337374 0.65625 14.6875 C 0.83889572 15.052791 1.3021364 15.459599 1.96875 15.5 L 2 15.5 L 14 15.5 C 14.666667 15.5 15.127872 15.088007 15.3125 14.71875 C 15.497128 14.349493 15.5 14 15.5 14 L 15.5 10.1875 L 15.5 10.09375 C 15.4985 10.06475 15.499903 9.9902769 15.5 10 C 15.500583 10.05857 15.53191 9.982682 15.46875 9.75 L 13.375 1.875 L 13.28125 1.5 L 12.90625 1.5 L 11 1.5 L 3.09375 1.5 L 2.71875 1.5 z "
       id="path3868" />
    <path
       id="path3852"
       d="M 3.875 3 L 2 9.9375 C 2.0008623 9.96117 1.9998672 9.96187 2 9.96875 C 2.0000473 9.97551 2.0000025 9.99377 2 10 L 6 10 C 6 11.104569 6.8954305 12 8 12 C 9.1045695 12 10 11.104569 10 10 L 14 10 C 14.000097 9.99293 13.999858 9.97582 14 9.96875 L 14 9.9375 L 12.125 3 L 11 3 L 3.875 3 z "
       style="fill:url(#linearGradient3883);fill-opacity:1;stroke:none" />
    <path
       id="path4003"
       d="M 3.875 3 L 2 9.9375 C 2.0008623 9.96117 1.9998672 9.96187 2 9.96875 C 2.0000473 9.97551 2.0000025 9.99377 2 10 L 2.25 10 L 3.875 4 L 11 4 L 12.125 4 L 13.75 10 L 14 10 C 14.000097 9.99293 13.999858 9.97582 14 9.96875 L 14 9.9375 L 12.125 3 L 11 3 L 3.875 3 z "
       style="fill:#000000;fill-opacity:1;stroke:none;opacity:0.2" />
    <path
       id="path3806"
       d="m 2,10.000022 0,1 c 1.06937,0 1.92592,-5e-5 4,0 0,0 0,2 2,2 2,0 2,-2 2,-2 1.71762,5e-5 4,0 4,0 l 0,-1 c 0,0 -2.28238,5e-5 -4,0 0,0 0,2 -2,2 -2,0 -2,-2 -2,-2 -2.07408,-4.98e-5 -2.93063,0 -4,0 z"
       style="color:#000000;fill:#ffffff;fill-opacity:1;fill-rule:nonzero;stroke:none;stroke-width:0.99992192;marker:none;visibility:visible;display:inline;overflow:visible;enable-background:accumulate" />
  </g>
</svg>
