<?xml version="1.0" encoding="UTF-8" standalone="no"?>
<!-- Created with Inkscape (http://www.inkscape.org/) -->

<svg
   xmlns:dc="http://purl.org/dc/elements/1.1/"
   xmlns:cc="http://creativecommons.org/ns#"
   xmlns:rdf="http://www.w3.org/1999/02/22-rdf-syntax-ns#"
   xmlns:svg="http://www.w3.org/2000/svg"
   xmlns="http://www.w3.org/2000/svg"
   xmlns:xlink="http://www.w3.org/1999/xlink"
   xmlns:sodipodi="http://sodipodi.sourceforge.net/DTD/sodipodi-0.dtd"
   xmlns:inkscape="http://www.inkscape.org/namespaces/inkscape"
   width="16px"
   height="16px"
   id="svg5400"
   version="1.1"
   inkscape:version="0.48.4 r9939"
   sodipodi:docname="playlist-automatic.svg">
  <defs
     id="defs5402">
    <linearGradient
       inkscape:collect="always"
       id="linearGradient3930">
      <stop
         style="stop-color:#000000;stop-opacity:1;"
         offset="0"
         id="stop3932" />
      <stop
         style="stop-color:#000000;stop-opacity:0;"
         offset="1"
         id="stop3934" />
    </linearGradient>
    <linearGradient
       inkscape:collect="always"
       id="linearGradient3818">
      <stop
         style="stop-color:#000000;stop-opacity:1;"
         offset="0"
         id="stop3820" />
      <stop
         style="stop-color:#000000;stop-opacity:0.51485151"
         offset="1"
         id="stop3822" />
    </linearGradient>
    <linearGradient
       id="linearGradient3904">
      <stop
         id="stop3906"
         offset="0"
         style="stop-color:#104b88;stop-opacity:1;" />
      <stop
         id="stop3908"
         offset="1"
         style="stop-color:#0e7398;stop-opacity:1;" />
    </linearGradient>
    <linearGradient
       inkscape:collect="always"
       id="linearGradient3804">
      <stop
         style="stop-color:#ffffff;stop-opacity:1;"
         offset="0"
         id="stop3806" />
      <stop
         style="stop-color:#ffffff;stop-opacity:0;"
         offset="1"
         id="stop3808" />
    </linearGradient>
    <linearGradient
       inkscape:collect="always"
       xlink:href="#linearGradient6744"
       id="linearGradient6750"
       x1="443.5"
       y1="-178.50027"
       x2="444"
       y2="-175.50027"
       gradientUnits="userSpaceOnUse"
       gradientTransform="translate(-433,180.00027)" />
    <linearGradient
       inkscape:collect="always"
       id="linearGradient6744">
      <stop
         style="stop-color:#ffffff;stop-opacity:1;"
         offset="0"
         id="stop6746" />
      <stop
         style="stop-color:#ffffff;stop-opacity:0;"
         offset="1"
         id="stop6748" />
    </linearGradient>
    <linearGradient
       inkscape:collect="always"
       xlink:href="#linearGradient6728"
       id="linearGradient6736"
       x1="435"
       y1="-163.5"
       x2="438"
       y2="-163.5"
       gradientUnits="userSpaceOnUse" />
    <linearGradient
       inkscape:collect="always"
       id="linearGradient6728">
      <stop
         style="stop-color:#ffffff;stop-opacity:1;"
         offset="0"
         id="stop6730" />
      <stop
         style="stop-color:#ffffff;stop-opacity:0;"
         offset="1"
         id="stop6732" />
    </linearGradient>
    <linearGradient
       inkscape:collect="always"
       xlink:href="#linearGradient6728"
       id="linearGradient6734"
       x1="435"
       y1="-163.5"
       x2="438"
       y2="-163.5"
       gradientUnits="userSpaceOnUse" />
    <linearGradient
       inkscape:collect="always"
       xlink:href="#linearGradient5621"
       id="linearGradient5956"
       x1="1407.9375"
       y1="63.937489"
       x2="1407.9375"
       y2="47.937496"
       gradientUnits="userSpaceOnUse"
       gradientTransform="translate(-1400.9375,-47.937495)" />
    <linearGradient
       id="linearGradient5621">
      <stop
         style="stop-color:#0b0b0b;stop-opacity:1"
         offset="0"
         id="stop5623" />
      <stop
         style="stop-color:#585858;stop-opacity:1"
         offset="1"
         id="stop5625" />
    </linearGradient>
    <linearGradient
       id="linearGradient8589">
      <stop
         id="stop8591"
         style="stop-color:#fefefe;stop-opacity:1"
         offset="0" />
      <stop
         id="stop8593"
         style="stop-color:#cbcbcb;stop-opacity:1"
         offset="1" />
    </linearGradient>
    <radialGradient
       cx="102"
       cy="112.3047"
       r="139.55859"
       id="XMLID_8_"
       gradientUnits="userSpaceOnUse">
      <stop
         id="stop41"
         style="stop-color:#b7b8b9;stop-opacity:1"
         offset="0" />
      <stop
         id="stop47"
         style="stop-color:#ececec;stop-opacity:1"
         offset="0.18851049" />
      <stop
         id="stop49"
         style="stop-color:#fafafa;stop-opacity:0"
         offset="0.25718147" />
      <stop
         id="stop51"
         style="stop-color:#ffffff;stop-opacity:0"
         offset="0.30111277" />
      <stop
         id="stop53"
         style="stop-color:#fafafa;stop-opacity:0"
         offset="0.53130001" />
      <stop
         id="stop55"
         style="stop-color:#ebecec;stop-opacity:0"
         offset="0.84490001" />
      <stop
         id="stop57"
         style="stop-color:#e1e2e3;stop-opacity:0"
         offset="1" />
    </radialGradient>
    <linearGradient
       inkscape:collect="always"
       xlink:href="#linearGradient6582"
       id="linearGradient6701"
       x1="920"
       y1="-180.00027"
       x2="920"
       y2="-164.00027"
       gradientUnits="userSpaceOnUse" />
    <linearGradient
       inkscape:collect="always"
       id="linearGradient6582">
      <stop
         style="stop-color:#ffffff;stop-opacity:1;"
         offset="0"
         id="stop6584" />
      <stop
         style="stop-color:#ffffff;stop-opacity:0;"
         offset="1"
         id="stop6586" />
    </linearGradient>
    <clipPath
       clipPathUnits="userSpaceOnUse"
       id="clipPath6691">
      <path
         sodipodi:nodetypes="cccccc"
         inkscape:connector-curvature="0"
         id="path6693"
         d="m 914,-179.00027 8,-1e-5 4,3 0,11 -12,0 z"
         style="color:#bebebe;fill:#ffffff;fill-opacity:0.57671958;fill-rule:nonzero;stroke:none;stroke-width:0;marker:none;visibility:visible;display:inline;overflow:visible;enable-background:accumulate" />
    </clipPath>
    <linearGradient
       id="outerBackgroundGradient-4">
      <stop
         style="stop-color:#f0f0f0;stop-opacity:1;"
         offset="0"
         id="stop3864-8-6-6" />
      <stop
         style="stop-color:#f9f9f9;stop-opacity:1;"
         offset="1"
         id="stop3866-9-1-7" />
    </linearGradient>
    <linearGradient
       inkscape:collect="always"
       xlink:href="#outerBackgroundGradient-4"
       id="linearGradient3825"
       gradientUnits="userSpaceOnUse"
       gradientTransform="matrix(0.05555556,0,0,0.05714289,-2,-2.1428659)"
       x1="144"
       y1="280.00003"
       x2="144"
       y2="40.00005" />
    <linearGradient
       inkscape:collect="always"
       xlink:href="#linearGradient3804"
       id="linearGradient3827"
       gradientUnits="userSpaceOnUse"
       x1="5"
       y1="1"
       x2="5"
       y2="14" />
    <linearGradient
       inkscape:collect="always"
       xlink:href="#outerBackgroundGradient-4"
       id="linearGradient3829"
       gradientUnits="userSpaceOnUse"
       gradientTransform="matrix(0.05555556,0,0,0.05714289,-2,-2.1428659)"
       x1="144"
       y1="280.00003"
       x2="144"
       y2="40.00005" />
    <linearGradient
       inkscape:collect="always"
       xlink:href="#linearGradient3804"
       id="linearGradient3831"
       gradientUnits="userSpaceOnUse"
       x1="5"
       y1="1"
       x2="5"
       y2="14" />
    <linearGradient
       inkscape:collect="always"
       xlink:href="#linearGradient3818"
       id="linearGradient3824"
       x1="8"
       y1="0"
       x2="8"
       y2="16"
       gradientUnits="userSpaceOnUse" />
    <linearGradient
       inkscape:collect="always"
       xlink:href="#linearGradient3818"
       id="linearGradient3866"
       gradientUnits="userSpaceOnUse"
       x1="8"
       y1="0"
       x2="8"
       y2="16"
       gradientTransform="matrix(1,0,0,-1,0,16.009618)" />
    <linearGradient
       inkscape:collect="always"
       xlink:href="#linearGradient3818"
       id="linearGradient3875"
       gradientUnits="userSpaceOnUse"
       x1="8"
       y1="0"
       x2="8"
       y2="16" />
    <linearGradient
       inkscape:collect="always"
       xlink:href="#linearGradient3818"
       id="linearGradient3881"
       gradientUnits="userSpaceOnUse"
       x1="8"
       y1="0"
       x2="8"
       y2="16"
       gradientTransform="translate(0,0.999522)" />
    <linearGradient
       inkscape:collect="always"
       xlink:href="#linearGradient3818"
       id="linearGradient3883"
       gradientUnits="userSpaceOnUse"
       x1="8"
       y1="0"
       x2="8"
       y2="16" />
    <linearGradient
       inkscape:collect="always"
       xlink:href="#linearGradient20553"
       id="linearGradient20580"
       gradientUnits="userSpaceOnUse"
       gradientTransform="matrix(0.49999997,0,0,0.35555555,277.00001,10.228848)"
       x1="317"
       y1="-939"
       x2="317"
       y2="-984" />
    <linearGradient
       id="linearGradient20553">
      <stop
         style="stop-color:#a348b1;stop-opacity:1;"
         offset="0"
         id="stop20555" />
      <stop
         style="stop-color:#bf7bca;stop-opacity:1;"
         offset="1"
         id="stop20557" />
    </linearGradient>
    <linearGradient
       y2="-984"
       x2="317"
       y1="-939"
       x1="317"
       gradientTransform="matrix(0.49999997,0,0,0.35555555,-152.12499,347.67917)"
       gradientUnits="userSpaceOnUse"
       id="linearGradient6249"
       xlink:href="#linearGradient20553"
       inkscape:collect="always" />
    <linearGradient
       inkscape:collect="always"
       xlink:href="#linearGradient3804"
       id="linearGradient3057"
       gradientUnits="userSpaceOnUse"
       x1="5"
       y1="1"
       x2="5"
       y2="14"
       gradientTransform="translate(2,1)" />
    <linearGradient
       inkscape:collect="always"
       xlink:href="#linearGradient20553"
       id="linearGradient3060"
       gradientUnits="userSpaceOnUse"
       gradientTransform="matrix(0.05555556,0,0,0.05714289,0,-1.1428659)"
       x1="144"
       y1="280.00003"
       x2="144"
       y2="40.00005" />
    <clipPath
       clipPathUnits="userSpaceOnUse"
       id="clipPath3913">
      <path
         sodipodi:nodetypes="scccccccccccccccccccccccccccccccccccccccccccccccccccccccccssssss"
         inkscape:connector-curvature="0"
         id="path3915"
         d="m 2.7800092,7.0027334 c -0.12948,0.0123 -0.29915,0.0336 -0.4375,0.0937 0,0 -0.0884,0.29603 -0.15625,1.03125 -0.0831,0.89922 -0.42428,1.13847 -0.68362,1.32214 -0.25933,0.18366 -0.34422,0.22736 -0.44138,0.27156 -0.50813999,0.0853 -0.96158999,0.13956 -1.65624996,-0.4375 -0.56778004,-0.47175 -0.81250004,-0.625 -0.81250004,-0.625 -0.28028,0.11008 -0.53125,0.40625 -0.53125,0.40625 0,0 -0.29573,0.25037 -0.40625,0.53125 0,0 0.15326,0.24473 0.625,0.8124996 0.57709,0.69462 0.52263,1.14826 0.4375,1.65625 -0.044,0.0969 -0.0877,0.1821 -0.27135,0.44154 -0.18364,0.25943 -0.42315,0.60024 -1.32235,0.68346 -0.73511,0.068 -1,0.15625 -1,0.15625 -0.12033,0.27712 -0.12505,0.65635 -0.12505,0.65635 0,0 0.005,0.37958 0.125,0.65625 0,0 0.26479,0.0887 1,0.15625 0.89918,0.0832 1.13828,0.42444 1.32209,0.68375 0.18381,0.2593 0.22761,0.34422 0.27161,0.44125 0.0855,0.50813 0.13953,0.96166 -0.4375,1.65625 -0.47174,0.5679 -0.625,0.8125 -0.625,0.8125 0.11092,0.28086 0.40625,0.53125 0.40625,0.53125 0,0 0.25046,0.29582 0.53125,0.40625 0,0 0.24473,-0.15294 0.81250004,-0.625 0.69465997,-0.57701 1.14820997,-0.52231 1.65624996,-0.4375 0.0972,0.0441 0.18199,0.0879 0.4415,0.27152 0.25952,0.18359 0.60028,0.42306 0.6835,1.32223 0.0679,0.73512 0.15625,1 0.15625,1 0.27708,0.12005 0.6563,0.125 0.6563,0.125 0,0 0.37969,-0.005 0.65625,-0.125 0,0 0.0886,-0.26465 0.15625,-1 0.0832,-0.89917 0.42466,-1.13832 0.84375,-1.4375 l 0,-0.0312 c 0.0992,-0.0371 0.18416,-0.081 0.28125,-0.125 0.5081001,-0.0855 0.9615801,-0.13956 1.6562501,0.4375 0.56778,0.47175 0.8125,0.625 0.8125,0.625 0.28091,-0.11103 0.53125,-0.40625 0.53125,-0.40625 0,0 0.29579,-0.25043 0.40625,-0.53125 0,0 -0.15284,-0.24471 -0.625,-0.8125 -0.57709,-0.69462 -0.52243,-1.1483 -0.4375,-1.65625 0.0441,-0.0972 0.0879,-0.18204 0.125,-0.28125 l 0.0312,0 c 0.29885,-0.41966 0.53829,-0.76053 1.4375,-0.84375 0.73517,-0.0679 1.03125,-0.15625 1.03125,-0.15625 0.1201607,-0.27709 0.0938,-0.6563 0.0938,-0.6563 0,0 0.0265,-0.37943 -0.0937,-0.65625 0,0 -0.29599,-0.0885 -1.03125,-0.15625 -0.89926,-0.0831 -1.13833,-0.4243 -1.4375,-0.84375 -0.0371,-0.0992 -0.11193,-0.18424 -0.15625,-0.28125 -0.0853,-0.50794 -0.13957,-0.96159 0.4375,-1.65625 0.47175,-0.5677996 0.625,-0.8124996 0.625,-0.8124996 -0.11084,-0.28079 -0.40625,-0.53125 -0.40625,-0.53125 0,0 -0.25044,-0.29579 -0.53125,-0.40625 0,0 -0.24451,0.15295 -0.8125,0.625 -0.69464,0.5771 -1.11682,0.5227 -1.7369601,0.25256 -0.62013,-0.27013 -0.96111,-0.50948 -1.04424,-1.40876 -0.068,-0.73513 -0.15625,-1.03125 -0.15625,-1.03125 -0.27702,-0.12042 -0.65636,-0.0938 -0.65635,-0.0938 0,0 -0.0893,-0.0123 -0.21875,0 z m 0.21875,3.9999996 c 1.65685,0 3.0000001,1.34315 3.0000001,3 0,1.65685 -1.3431501,3 -3.0000001,3 -1.65685,0 -2.99999996,-1.34315 -2.99999996,-3 0,-1.65685 1.34314996,-3 2.99999996,-3 z"
         style="opacity:0.3;fill:#000000;fill-opacity:1;stroke:none;display:inline;enable-background:new" />
    </clipPath>
    <clipPath
       clipPathUnits="userSpaceOnUse"
       id="clipPath3924">
      <path
         id="path3926"
         d="m 1.5,0.5 0,0.5 0,14 0,0.5 0.5,0 12,0 0.5,0 0,-0.5 0,-14 0,-0.5 -0.5,0 -12,0 -0.5,0 z"
         style="color:#bebebe;fill:url(#linearGradient3928);fill-opacity:1;fill-rule:nonzero;stroke:none;stroke-width:0;marker:none;visibility:visible;display:inline;overflow:visible;enable-background:accumulate"
         inkscape:connector-curvature="0" />
    </clipPath>
    <linearGradient
       inkscape:collect="always"
       xlink:href="#linearGradient20553"
       id="linearGradient3928"
       gradientUnits="userSpaceOnUse"
       gradientTransform="matrix(0.05555556,0,0,0.05714289,0,-1.1428659)"
       x1="144"
       y1="280.00003"
       x2="144"
       y2="40.00005" />
    <linearGradient
       inkscape:collect="always"
       xlink:href="#linearGradient3930"
       id="linearGradient3936"
       x1="-4.0012408"
       y1="14"
       x2="10.001241"
       y2="14"
       gradientUnits="userSpaceOnUse"
       gradientTransform="matrix(0,1,-1,0,17,11)" />
    <linearGradient
       y2="6"
       x2="8.75"
       y1="12.25"
       x1="8.75"
       gradientTransform="translate(-1,-1)"
       gradientUnits="userSpaceOnUse"
       id="linearGradient4064"
       xlink:href="#linearGradient3963"
       inkscape:collect="always" />
    <linearGradient
       y2="10"
       x2="15"
       y1="10"
       x1="5"
       gradientTransform="matrix(0,1,-1,0,18,-2)"
       gradientUnits="userSpaceOnUse"
       id="linearGradient4062"
       xlink:href="#linearGradient3815"
       inkscape:collect="always" />
    <linearGradient
       y2="9"
       x2="-3"
       y1="9"
       x1="-15"
       gradientTransform="translate(1,-1)"
       gradientUnits="userSpaceOnUse"
       id="linearGradient4060"
       xlink:href="#linearGradient3979"
       inkscape:collect="always" />
    <linearGradient
       y2="10"
       x2="15.5"
       y1="10"
       x1="4.5"
       gradientTransform="translate(-18,-2)"
       gradientUnits="userSpaceOnUse"
       id="linearGradient4058"
       xlink:href="#linearGradient5621-0"
       inkscape:collect="always" />
    <linearGradient
       y2="10"
       x2="15.5"
       y1="10"
       x1="4.5"
       gradientTransform="translate(-18,-2)"
       gradientUnits="userSpaceOnUse"
       id="linearGradient4048"
       xlink:href="#linearGradient5621-0"
       inkscape:collect="always" />
    <linearGradient
       y2="9"
       x2="-3"
       y1="9"
       x1="-15"
       gradientTransform="translate(1,-1)"
       gradientUnits="userSpaceOnUse"
       id="linearGradient4045"
       xlink:href="#linearGradient3979"
       inkscape:collect="always" />
    <linearGradient
       y2="10"
       x2="15"
       y1="10"
       x1="5"
       gradientTransform="matrix(0,1,-1,0,18,-2)"
       gradientUnits="userSpaceOnUse"
       id="linearGradient4042"
       xlink:href="#linearGradient3815"
       inkscape:collect="always" />
    <linearGradient
       y2="10"
       x2="15"
       y1="10"
       x1="5"
       gradientTransform="matrix(0,1,-1,0,18,-2)"
       gradientUnits="userSpaceOnUse"
       id="linearGradient4038"
       xlink:href="#linearGradient3815"
       inkscape:collect="always" />
    <linearGradient
       y2="9"
       x2="-3"
       y1="9"
       x1="-15"
       gradientTransform="translate(1,-1)"
       gradientUnits="userSpaceOnUse"
       id="linearGradient4036"
       xlink:href="#linearGradient3979"
       inkscape:collect="always" />
    <linearGradient
       y2="10"
       x2="15.5"
       y1="10"
       x1="4.5"
       gradientTransform="translate(-18,-2)"
       gradientUnits="userSpaceOnUse"
       id="linearGradient4034"
       xlink:href="#linearGradient5621-0"
       inkscape:collect="always" />
    <linearGradient
       id="linearGradient2378">
      <stop
         offset="0"
         style="stop-color:#ffffff;stop-opacity:1"
         id="stop2380" />
      <stop
         offset="0.25"
         style="stop-color:#fefede;stop-opacity:0.91836733"
         id="stop4146" />
      <stop
         offset="0.5"
         style="stop-color:#f5f328;stop-opacity:1"
         id="stop2386" />
      <stop
         offset="1"
         style="stop-color:#f5f32d;stop-opacity:0.12234043"
         id="stop10317" />
    </linearGradient>
    <radialGradient
       r="8.341651"
       fy="9.3411446"
       fx="38.658855"
       cy="9.3411446"
       cx="38.658855"
       gradientUnits="userSpaceOnUse"
       id="radialGradient3067"
       xlink:href="#linearGradient2378"
       inkscape:collect="always" />
    <linearGradient
       gradientTransform="translate(1,-1)"
       gradientUnits="userSpaceOnUse"
       y2="9"
       x2="-3"
       y1="9"
       x1="-15"
       id="linearGradient3977"
       xlink:href="#linearGradient3979"
       inkscape:collect="always" />
    <linearGradient
       gradientUnits="userSpaceOnUse"
       y2="7"
       x2="-1"
       y1="7"
       x1="-13"
       id="linearGradient3975"
       xlink:href="#linearGradient3979"
       inkscape:collect="always" />
    <linearGradient
       gradientTransform="translate(-1,-1)"
       gradientUnits="userSpaceOnUse"
       y2="6"
       x2="8.75"
       y1="12.25"
       x1="8.75"
       id="linearGradient3961"
       xlink:href="#linearGradient3963"
       inkscape:collect="always" />
    <linearGradient
       y2="10"
       x2="15.5"
       y1="10"
       x1="4.5"
       gradientTransform="translate(-18,-2)"
       gradientUnits="userSpaceOnUse"
       id="linearGradient3938"
       xlink:href="#linearGradient5621-0"
       inkscape:collect="always" />
    <linearGradient
       y2="10"
       x2="15"
       y1="10"
       x1="5"
       gradientTransform="matrix(0,1,-1,0,18,-2)"
       gradientUnits="userSpaceOnUse"
       id="linearGradient3934"
       xlink:href="#linearGradient3815"
       inkscape:collect="always" />
    <linearGradient
       y2="10"
       x2="15.5"
       y1="10"
       x1="4.5"
       gradientTransform="translate(-17,-3)"
       gradientUnits="userSpaceOnUse"
       id="linearGradient3930-0"
       xlink:href="#linearGradient5621-0"
       inkscape:collect="always" />
    <linearGradient
       y2="10"
       x2="15"
       y1="10"
       x1="5"
       gradientTransform="matrix(0,1,-1,0,17,-3)"
       gradientUnits="userSpaceOnUse"
       id="linearGradient3926"
       xlink:href="#linearGradient3815"
       inkscape:collect="always" />
    <linearGradient
       y2="10"
       x2="15"
       y1="10"
       x1="5"
       gradientTransform="matrix(0,1,-1,0,20,0)"
       gradientUnits="userSpaceOnUse"
       id="linearGradient3922"
       xlink:href="#linearGradient3815"
       inkscape:collect="always" />
    <linearGradient
       y2="10"
       x2="15.5"
       y1="10"
       x1="4.5"
       gradientTransform="translate(-20,0)"
       gradientUnits="userSpaceOnUse"
       id="linearGradient3920"
       xlink:href="#linearGradient5621-0"
       inkscape:collect="always" />
    <linearGradient
       gradientUnits="userSpaceOnUse"
       y2="4"
       x2="9"
       y1="14"
       x1="9"
       id="linearGradient3891"
       xlink:href="#linearGradient3893"
       inkscape:collect="always" />
    <linearGradient
       y2="10"
       x2="15"
       y1="10"
       x1="5"
       gradientTransform="matrix(0,1,-1,0,20,0)"
       gradientUnits="userSpaceOnUse"
       id="linearGradient3849"
       xlink:href="#linearGradient3815"
       inkscape:collect="always" />
    <linearGradient
       y2="10"
       x2="15.5"
       y1="10"
       x1="4.5"
       gradientTransform="translate(-20,0)"
       gradientUnits="userSpaceOnUse"
       id="linearGradient3847"
       xlink:href="#linearGradient5621-0"
       inkscape:collect="always" />
    <linearGradient
       y2="10"
       x2="15"
       y1="10"
       x1="5"
       gradientTransform="matrix(0,1,-1,0,20,0)"
       gradientUnits="userSpaceOnUse"
       id="linearGradient3835"
       xlink:href="#linearGradient3815"
       inkscape:collect="always" />
    <linearGradient
       y2="10"
       x2="15.5"
       y1="10"
       x1="4.5"
       gradientTransform="translate(-20,0)"
       gradientUnits="userSpaceOnUse"
       id="linearGradient3833"
       xlink:href="#linearGradient5621-0"
       inkscape:collect="always" />
    <linearGradient
       id="linearGradient5621-0">
      <stop
         id="stop5623-0"
         offset="0"
         style="stop-color:#a348b1;stop-opacity:1;" />
      <stop
         id="stop5625-3"
         offset="1"
         style="stop-color:#bd32d2;stop-opacity:1;" />
    </linearGradient>
    <linearGradient
       id="linearGradient3788">
      <stop
         style="stop-color:#4e2816;stop-opacity:1;"
         offset="0"
         id="stop3790" />
      <stop
         style="stop-color:#725722;stop-opacity:1;"
         offset="1"
         id="stop3792" />
    </linearGradient>
    <linearGradient
       id="linearGradient3815"
       inkscape:collect="always">
      <stop
         id="stop3817"
         offset="0"
         style="stop-color:#ffffff;stop-opacity:1;" />
      <stop
         id="stop3819"
         offset="1"
         style="stop-color:#ffffff;stop-opacity:0;" />
    </linearGradient>
    <linearGradient
       id="linearGradient3893">
      <stop
         style="stop-color:#eaf4ff;stop-opacity:1;"
         offset="0"
         id="stop3895" />
      <stop
         style="stop-color:#f3fbff;stop-opacity:1;"
         offset="1"
         id="stop3897" />
    </linearGradient>
    <linearGradient
       id="linearGradient3963">
      <stop
         id="stop3965"
         offset="0"
         style="stop-color:#f0d8ff;stop-opacity:1;" />
      <stop
         id="stop3967"
         offset="1"
         style="stop-color:#fcf3ff;stop-opacity:1;" />
    </linearGradient>
    <linearGradient
       id="linearGradient3979">
      <stop
         style="stop-color:#7c239f;stop-opacity:1;"
         offset="0"
         id="stop3981" />
      <stop
         style="stop-color:#ab1bc2;stop-opacity:1;"
         offset="1"
         id="stop3983" />
    </linearGradient>
    <linearGradient
       y2="6"
       x2="8.75"
       y1="12.25"
       x1="8.75"
       gradientTransform="translate(-1,-1)"
       gradientUnits="userSpaceOnUse"
       id="linearGradient4064-4"
       xlink:href="#linearGradient3963-5"
       inkscape:collect="always" />
    <linearGradient
       id="linearGradient3963-5">
      <stop
         id="stop3965-4"
         offset="0"
         style="stop-color:#f0d8ff;stop-opacity:1;" />
      <stop
         id="stop3967-0"
         offset="1"
         style="stop-color:#fcf3ff;stop-opacity:1;" />
    </linearGradient>
    <linearGradient
       y2="6"
       x2="8.75"
       y1="12.25"
       x1="8.75"
       gradientTransform="translate(3.25,5)"
       gradientUnits="userSpaceOnUse"
       id="linearGradient4414"
       xlink:href="#linearGradient3963-5"
       inkscape:collect="always" />
    <linearGradient
       inkscape:collect="always"
       xlink:href="#linearGradient5621-0"
       id="linearGradient4628"
       gradientUnits="userSpaceOnUse"
       gradientTransform="translate(-18,-2)"
       x1="4.5"
       y1="10"
       x2="15.5"
       y2="10" />
    <linearGradient
       inkscape:collect="always"
       xlink:href="#linearGradient3979"
       id="linearGradient4630"
       gradientUnits="userSpaceOnUse"
       gradientTransform="translate(1,-1)"
       x1="-15"
       y1="9"
       x2="-3"
       y2="9" />
    <linearGradient
       inkscape:collect="always"
       xlink:href="#linearGradient3815"
       id="linearGradient4632"
       gradientUnits="userSpaceOnUse"
       gradientTransform="matrix(0,1,-1,0,18,-2)"
       x1="5"
       y1="10"
       x2="15"
       y2="10" />
    <linearGradient
       inkscape:collect="always"
       xlink:href="#linearGradient3963"
       id="linearGradient4634"
       gradientUnits="userSpaceOnUse"
       gradientTransform="translate(-1,-1)"
       x1="8.75"
       y1="12.25"
       x2="8.75"
       y2="6" />
    <radialGradient
       inkscape:collect="always"
       xlink:href="#linearGradient2378"
       id="radialGradient4636"
       gradientUnits="userSpaceOnUse"
       cx="38.658855"
       cy="9.3411446"
       fx="38.658855"
       fy="9.3411446"
       r="8.341651" />
  </defs>
  <sodipodi:namedview
     id="base"
     pagecolor="#ffffff"
     bordercolor="#666666"
     borderopacity="1.0"
     inkscape:pageopacity="0.0"
     inkscape:pageshadow="2"
     inkscape:zoom="1"
     inkscape:cx="14.828459"
     inkscape:cy="12.055249"
     inkscape:current-layer="layer2"
     showgrid="false"
     showborder="true"
     inkscape:grid-bbox="true"
     inkscape:document-units="px"
     inkscape:window-width="1364"
     inkscape:window-height="700"
     inkscape:window-x="0"
     inkscape:window-y="28"
     inkscape:window-maximized="1"
     inkscape:snap-bbox="true"
     inkscape:bbox-paths="true"
     inkscape:bbox-nodes="true"
     inkscape:snap-bbox-midpoints="true"
     inkscape:snap-bbox-edge-midpoints="true">
    <inkscape:grid
       type="xygrid"
       id="grid3025"
       empspacing="4"
       visible="true"
       enabled="true"
       snapvisiblegridlinesonly="true" />
  </sodipodi:namedview>
  <metadata
     id="metadata5405">
    <rdf:RDF>
      <cc:Work
         rdf:about="">
        <dc:format>image/svg+xml</dc:format>
        <dc:type
           rdf:resource="http://purl.org/dc/dcmitype/StillImage" />
        <dc:title />
      </cc:Work>
    </rdf:RDF>
  </metadata>
  <g
     id="layer1"
     inkscape:label="Background"
     inkscape:groupmode="layer"
     style="display:inline" />
  <g
     inkscape:groupmode="layer"
     id="layer2"
     inkscape:label="Symbol"
     style="display:inline">
    <g
       inkscape:label="Layer 1"
       id="layer1-0">
      <g
         transform="translate(-1,2)"
         id="g4050">
        <rect
           style="fill:url(#linearGradient4628);fill-opacity:1;stroke:none"
           id="rect3000"
           width="11"
           height="11"
           x="-13.5"
           y="2.5"
           transform="matrix(0,-1,1,0,0,0)" />
        <rect
           transform="matrix(0,-1,1,0,0,0)"
           y="2.5"
           x="-13.5"
           height="11"
           width="11"
           id="rect3778"
           style="fill:none;stroke:url(#linearGradient4630);stroke-linejoin:round;stroke-opacity:1" />
        <path
           style="opacity:0.2;fill:url(#linearGradient4632);fill-opacity:1;stroke:none"
           d="M 13,3 3,3 3,13 13,13 13,3 z m -1,1 0,8 -8,0 0,-8 8,0 z"
           id="rect3794"
           inkscape:connector-curvature="0" />
        <path
           inkscape:connector-curvature="0"
           style="opacity:0.2;fill:#ffffff;fill-opacity:1;stroke:none"
           d="M 3,3 3,4 13,4 13,3 3,3 z"
           id="path3807" />
        <path
           id="path3953"
           d="M 6,6 6,7.5 6,9.78125 C 5.918628,9.764599 5.8362945,9.75 5.75,9.75 5.0596441,9.75 4.5,10.309644 4.5,11 c 0,0.690356 0.5596441,1.25 1.25,1.25 C 6.4403559,12.25 7,11.690356 7,11 l 0,-3.5 3,0 0,2.28125 C 9.918628,9.764599 9.836294,9.75 9.75,9.75 9.059644,9.75 8.5,10.309644 8.5,11 c 0,0.690356 0.559644,1.25 1.25,1.25 C 10.440356,12.25 11,11.690356 11,11 L 11,7.5 11,6 10,6 7,6 6,6 z"
           style="opacity:0.3;fill:#000000;fill-opacity:1;stroke:none"
           inkscape:connector-curvature="0" />
        <path
           style="fill:url(#linearGradient4634);fill-opacity:1;stroke:none"
           d="M 6,5 6,6.5 6,8.78125 C 5.918628,8.7645989 5.8362945,8.75 5.75,8.75 5.0596441,8.75 4.5,9.309644 4.5,10 c 0,0.690356 0.5596441,1.25 1.25,1.25 C 6.4403559,11.25 7,10.690356 7,10 l 0,-3.5 3,0 0,2.28125 C 9.918628,8.7645989 9.836294,8.75 9.75,8.75 9.059644,8.75 8.5,9.309644 8.5,10 c 0,0.690356 0.559644,1.25 1.25,1.25 C 10.440356,11.25 11,10.690356 11,10 L 11,6.5 11,5 10,5 7,5 6,5 z"
           id="path3940"
           inkscape:connector-curvature="0" />
      </g>
      <g
         id="g11289"
         transform="translate(-17.207104,-421.7727)">
        <g
           id="g11291"
           transform="translate(1,-2)">
          <path
             style="fill:url(#radialGradient4636);fill-opacity:1;fill-rule:evenodd;stroke:none"
             id="path11293"
             transform="matrix(0.6381964,0,0,0.6527009,1.8280575,423.27802)"
             inkscape:connector-curvature="0"
             d="m 47.000506,9.3411446 a 8.341651,8.341651 0 1 1 -16.683302,0 8.341651,8.341651 0 1 1 16.683302,0 z" />
          <path
             style="color:#000000;fill:#edd400;fill-opacity:1;fill-rule:evenodd;stroke:none;stroke-width:0.5;marker:none;visibility:visible;display:inline;overflow:visible"
             id="path11295"
             transform="matrix(0.3735602,0.1529503,-0.1660098,0.3441734,14.555208,419.81907)"
             inkscape:connector-curvature="0"
             d="m 33.71875,0.03125 c -0.46837,-0.02427825 -1.008512,0.01404767 -1.5625,0.25 -1.129977,0.48127465 -1.700725,1.4483493 -1.9375,2.0625 -0.236775,0.6141507 -0.281018,1.0549602 -0.3125,1.46875 -0.06296,0.8275796 0.01008,1.5217193 0.0625,2.1875 0.03304,0.4196326 0.06923,0.7273675 0.09375,1.0625 -0.319841,0.1605167 -0.619458,0.3286599 -1.03125,0.53125 -0.610226,0.3002144 -1.253218,0.6168944 -1.9375,1.09375 -0.342141,0.2384278 -0.720058,0.4999648 -1.125,1 -0.404942,0.500035 -0.919606,1.417742 -0.8125,2.625 0.108676,1.224957 0.83472,2.054022 1.34375,2.46875 0.50903,0.414728 0.929157,0.59112 1.3125,0.75 0.766686,0.31776 1.443306,0.466599 2.09375,0.625 0.423819,0.103212 0.72877,0.16643 1.0625,0.25 0.05591,0.355577 0.119142,0.696752 0.1875,1.15625 0.09984,0.671109 0.191872,1.391649 0.4375,2.1875 0.122814,0.397926 0.273261,0.807176 0.625,1.34375 0.351739,0.536574 1.042902,1.323794 2.21875,1.59375 1.189482,0.273085 2.196543,-0.144295 2.75,-0.5 0.553457,-0.355705 0.855882,-0.716081 1.125,-1.03125 0.538236,-0.630338 0.901965,-1.215335 1.25,-1.78125 0.224135,-0.36445 0.38361,-0.619366 0.5625,-0.90625 0.357545,0.05568 0.696337,0.112092 1.15625,0.1875 0.671715,0.110135 1.385879,0.209184 2.21875,0.21875 0.416435,0.0048 0.85184,0.01304 1.46875,-0.15625 0.61691,-0.169294 1.597608,-0.588383 2.21875,-1.625 0.629824,-1.051107 0.511312,-2.177123 0.34375,-2.8125 -0.167562,-0.635377 -0.377164,-1.02135 -0.59375,-1.375 -0.433171,-0.7073 -0.91187,-1.241553 -1.34375,-1.75 -0.276147,-0.325105 -0.469802,-0.553142 -0.6875,-0.8125 0.161407,-0.316481 0.320983,-0.6265922 0.53125,-1.03125 0.311591,-0.5996545 0.63911,-1.2121538 0.90625,-2 C 46.47732,6.9185769 46.595828,6.484287 46.625,5.84375 46.654172,5.203213 46.538668,4.1550279 45.75,3.25 44.950066,2.3320462 43.904222,2.1026594 43.25,2.0625 c -0.654222,-0.040159 -1.096889,0.03051 -1.5,0.125 -0.806222,0.1889801 -1.478143,0.4689271 -2.09375,0.71875 -0.40176,0.1630405 -0.683141,0.2800004 -1,0.40625 C 38.401264,3.0584702 38.169883,2.830184 37.84375,2.5 37.367094,2.0174234 36.855154,1.4970295 36.1875,1 35.853673,0.75148523 35.505496,0.47536814 34.90625,0.25 34.606627,0.13731593 34.18712,0.05552825 33.71875,0.03125 z" />
          <path
             style="color:#000000;fill:#ffffff;fill-opacity:1;fill-rule:evenodd;stroke:none;stroke-width:0.5;marker:none;visibility:visible;display:inline;overflow:visible"
             id="path11297"
             transform="matrix(0.3831859,0.1529503,-0.1702874,0.3441734,14.241265,419.81907)"
             inkscape:connector-curvature="0"
             d="m 44.503206,15.464878 c -1.191831,1.966747 -3.665135,-0.99033 -5.763376,-0.04909 -2.024585,0.908204 -1.431674,4.753003 -3.591868,4.245718 -2.238783,-0.52574 -0.190729,-3.79178 -1.734298,-5.496465 -1.489383,-1.644844 -4.962785,0.107157 -5.147865,-2.10407 -0.191814,-2.2916723 3.547258,-1.353118 4.691521,-3.3479161 1.104095,-1.9247728 -1.635497,-4.6867762 0.410312,-5.5461045 2.120236,-0.8905915 2.383055,2.9555064 4.633817,3.4273387 2.171752,0.4552692 3.951993,-3.0037432 5.401452,-1.3236111 1.502192,1.7412568 -2.074449,3.1797221 -1.827664,5.466128 0.238121,2.206145 4.077962,2.830361 2.927969,4.728068 z" />
        </g>
        <rect
           style="fill:#ffffff;fill-opacity:1;stroke:none"
           id="rect11299"
           y="424"
           x="27"
           height="1"
           width="1" />
        <rect
           style="fill:#ffffff;fill-opacity:1;stroke:none"
           id="rect11301"
           y="426"
           x="24"
           height="1"
           width="1" />
        <rect
           style="fill:#ffffff;fill-opacity:1;stroke:none"
           id="rect11303"
           y="426"
           x="30"
           height="1"
           width="1" />
        <rect
           style="fill:#ffffff;fill-opacity:1;stroke:none"
           id="rect11305"
           y="429"
           x="29"
           height="1"
           width="1" />
        <rect
           style="fill:#ffffff;fill-opacity:1;stroke:none"
           id="rect11307"
           y="429"
           x="25"
           height="1"
           width="1" />
      </g>
    </g>
  </g>
</svg>
