<?xml version="1.0" encoding="UTF-8" standalone="no"?>
<svg
   xmlns:dc="http://purl.org/dc/elements/1.1/"
   xmlns:cc="http://creativecommons.org/ns#"
   xmlns:rdf="http://www.w3.org/1999/02/22-rdf-syntax-ns#"
   xmlns:svg="http://www.w3.org/2000/svg"
   xmlns="http://www.w3.org/2000/svg"
   xmlns:xlink="http://www.w3.org/1999/xlink"
   version="1.1"
   id="svg5400"
   height="16px"
   width="16px">
  <defs
     id="defs5402">
    <linearGradient
       id="linearGradient3979">
      <stop
         style="stop-color:#235a9f;stop-opacity:1;"
         offset="0"
         id="stop3981" />
      <stop
         style="stop-color:#1b89c2;stop-opacity:1;"
         offset="1"
         id="stop3983" />
    </linearGradient>
    <linearGradient
       id="linearGradient3963">
      <stop
         id="stop3965"
         offset="0"
         style="stop-color:#d8ebff;stop-opacity:1" />
      <stop
         id="stop3967"
         offset="1"
         style="stop-color:#f3fbff;stop-opacity:1;" />
    </linearGradient>
    <linearGradient
       id="linearGradient3815">
      <stop
         id="stop3817"
         offset="0"
         style="stop-color:#ffffff;stop-opacity:1;" />
      <stop
         id="stop3819"
         offset="1"
         style="stop-color:#ffffff;stop-opacity:0;" />
    </linearGradient>
    <linearGradient
       id="linearGradient5621">
      <stop
         id="stop5623"
         offset="0"
         style="stop-color:#2777db;stop-opacity:1;" />
      <stop
         id="stop5625"
         offset="1"
         style="stop-color:#00a8ff;stop-opacity:1;" />
    </linearGradient>
    <linearGradient
       y2="10"
       x2="15"
       y1="10"
       x1="5"
       gradientTransform="matrix(0,1,-1,0,17,-3)"
       gradientUnits="userSpaceOnUse"
       id="linearGradient3926"
       xlink:href="#linearGradient3815" />
    <linearGradient
       y2="10"
       x2="15.5"
       y1="10"
       x1="4.5"
       gradientTransform="translate(-17,-3)"
       gradientUnits="userSpaceOnUse"
       id="linearGradient3930"
       xlink:href="#linearGradient5621" />
    <linearGradient
       y2="10"
       x2="15"
       y1="10"
       x1="5"
       gradientTransform="matrix(0,1,-1,0,19,-1)"
       gradientUnits="userSpaceOnUse"
       id="linearGradient3934"
       xlink:href="#linearGradient3815" />
    <linearGradient
       y2="10"
       x2="15.5"
       y1="10"
       x1="4.5"
       gradientTransform="translate(-19,-1)"
       gradientUnits="userSpaceOnUse"
       id="linearGradient3938"
       xlink:href="#linearGradient5621" />
    <linearGradient
       gradientUnits="userSpaceOnUse"
       y2="6"
       x2="8.75"
       y1="12.25"
       x1="8.75"
       id="linearGradient3961"
       xlink:href="#linearGradient3963" />
    <linearGradient
       gradientUnits="userSpaceOnUse"
       y2="7"
       x2="-1"
       y1="7"
       x1="-13"
       id="linearGradient3975"
       xlink:href="#linearGradient3979" />
    <linearGradient
       gradientUnits="userSpaceOnUse"
       y2="9"
       x2="-3"
       y1="9"
       x1="-15"
       id="linearGradient3977"
       xlink:href="#linearGradient3979" />
  </defs>
  <metadata
     id="metadata5405">
    <rdf:RDF>
      <cc:Work
         rdf:about="">
        <dc:format>image/svg+xml</dc:format>
        <dc:type
           rdf:resource="http://purl.org/dc/dcmitype/StillImage" />
        <dc:title />
      </cc:Work>
    </rdf:RDF>
  </metadata>
  <g
     id="layer1">
    <rect
       style="fill:url(#linearGradient3930);fill-opacity:1;stroke:none"
       id="rect3839"
       width="11"
       height="11"
       x="-12.5"
       y="1.5"
       transform="matrix(0,-1,1,0,0,0)" />
    <rect
       transform="matrix(0,-1,1,0,0,0)"
       y="1.5"
       x="-12.5"
       height="11"
       width="11"
       id="rect3841"
       style="opacity:1;fill:none;stroke:url(#linearGradient3975);stroke-linejoin:round;stroke-opacity:1" />
    <path
       style="opacity:0.2;fill:url(#linearGradient3926);fill-opacity:1;stroke:none"
       d="M 12,2 2,2 2,12 12,12 12,2 z m -1,1 0,8 -8,0 0,-8 8,0 z"
       id="path3843" />
    <path
       style="opacity:0.2;fill:#ffffff;fill-opacity:1;stroke:none"
       d="M 2,2 2,3 12,3 12,2 2,2 z"
       id="path3845" />
    <rect
       transform="matrix(0,-1,1,0,0,0)"
       y="3.5"
       x="-14.5"
       height="11"
       width="11"
       id="rect3000"
       style="fill:url(#linearGradient3938);fill-opacity:1;stroke:none" />
    <rect
       style="opacity:1;fill:none;stroke:url(#linearGradient3977);stroke-linejoin:round;stroke-opacity:1"
       id="rect3778"
       width="11"
       height="11"
       x="-14.5"
       y="3.5"
       transform="matrix(0,-1,1,0,0,0)" />
    <path
       id="rect3794"
       d="M 14,4 4,4 4,14 14,14 14,4 z m -1,1 0,8 -8,0 0,-8 8,0 z"
       style="opacity:0.2;fill:url(#linearGradient3934);fill-opacity:1;stroke:none" />
    <path
       id="path3807"
       d="M 4,4 4,5 14,5 14,4 4,4 z"
       style="opacity:0.2;fill:#ffffff;fill-opacity:1;stroke:none" />
    <path
       style="fill:#000000;fill-opacity:1;stroke:none;opacity:0.3"
       d="m 7,7 0,1.5 0,2.28125 C 6.918628,10.764599 6.8362945,10.75 6.75,10.75 6.0596441,10.75 5.5,11.309644 5.5,12 c 0,0.690356 0.5596441,1.25 1.25,1.25 C 7.4403559,13.25 8,12.690356 8,12 l 0,-3.5 3,0 0,2.28125 C 10.918628,10.764599 10.836294,10.75 10.75,10.75 10.059644,10.75 9.5,11.309644 9.5,12 c 0,0.690356 0.559644,1.25 1.25,1.25 C 11.440356,13.25 12,12.690356 12,12 L 12,8.5 12,7 11,7 8,7 7,7 z"
       id="path3953" />
    <path
       id="path3940"
       d="M 7 6 L 7 7.5 L 7 9.78125 C 6.918628 9.7645989 6.8362945 9.75 6.75 9.75 C 6.0596441 9.75 5.5 10.309644 5.5 11 C 5.5 11.690356 6.0596441 12.25 6.75 12.25 C 7.4403559 12.25 8 11.690356 8 11 L 8 7.5 L 11 7.5 L 11 9.78125 C 10.918628 9.7645989 10.836294 9.75 10.75 9.75 C 10.059644 9.75 9.5 10.309644 9.5 11 C 9.5 11.690356 10.059644 12.25 10.75 12.25 C 11.440356 12.25 12 11.690356 12 11 L 12 7.5 L 12 6 L 11 6 L 8 6 L 7 6 z "
       style="opacity:1;fill:url(#linearGradient3961);fill-opacity:1;stroke:none" />
  </g>
</svg>
