<?xml version="1.0" encoding="UTF-8" standalone="no"?>
<svg xmlns="http://www.w3.org/2000/svg" xmlns:xlink="http://www.w3.org/1999/xlink" xmlns:sodipodi="http://sodipodi.sourceforge.net/DTD/sodipodi-0.dtd" xmlns:inkscape="http://www.inkscape.org/namespaces/inkscape" width="16" height="16" version="1.1">
 <defs id="defs5402">
  <linearGradient inkscape:collect="always" id="linearGradient7223">
   <stop id="stop7225" stop-color="#ffffff"/>
   <stop offset="1" id="stop7227" stop-color="#ffffff" stop-opacity="0"/>
  </linearGradient>
  <linearGradient inkscape:collect="always" xlink:href="#linearGradient7223" id="linearGradient7229" x1="9" x2="10" gradientUnits="userSpaceOnUse"/>
 </defs>
 <metadata id="metadata5405"/>
 <g id="layer1" inkscape:label="Layer 1" inkscape:groupmode="layer">
  <path d="m 2.99959,2.99998 -2.1e-4,0.99998 10.00021,2e-5 L 12.9998,3 z" id="rect7356-3" inkscape:connector-curvature="0" sodipodi:nodetypes="ccccc" fill="#555555" color="#bebebe"/>
  <path sodipodi:nodetypes="ccccc" inkscape:connector-curvature="0" id="path6091-3" d="M 2.9998,5.99998 2.99959,6.99996 12.9998,6.99998 13.00001,6 z" fill="#555555" color="#bebebe"/>
  <path d="m 2.9998,9 -2.1e-4,0.99998 6.00028,0 L 9.00008,9 z" id="path6094-6" inkscape:connector-curvature="0" sodipodi:nodetypes="ccccc" fill="#555555" color="#bebebe"/>
  <path sodipodi:nodetypes="ccccc" inkscape:connector-curvature="0" id="path6097-0" d="m 2.9998,11.99998 -2.1e-4,0.99998 4.00028,2e-5 L 7.00008,12 z" fill="#555555" color="#bebebe"/>
  <path d="m 10.00008,7.99995 0,2 0,2.09375 C 9.84576,12.0401 9.67267,12 9.50008,12 c -0.82843,0 -1.5,0.67157 -1.5,1.5 0,0.82843 0.67157,1.5 1.5,1.5 0.82843,0 1.5,-0.67157 1.5,-1.5 l 0,-3.5 3,0 0,2.09375 c -0.15432,-0.0536 -0.32741,-0.0937 -0.5,-0.0937 -0.82843,0 -1.5,0.67157 -1.5,1.5 0,0.82843 0.67157,1.5 1.5,1.5 0.82843,0 1.5,-0.67157 1.5,-1.5 l 0,-5.5 -1,0 -3,0 -1,0 z" id="path6113-7" inkscape:connector-curvature="0" fill="#555555" color="#000000" stroke-width="2"/>
  <path sodipodi:type="arc" id="path7219" sodipodi:cx="9.5" sodipodi:cy="13.5" sodipodi:rx="0.5" sodipodi:ry="0.5" d="m 10,13.5 a 0.5,0.5 0 1 1 -1,0 0.5,0.5 0 1 1 1,0 z" transform="matrix(0,1,-1,0,23,4)" opacity="0.5" fill="url(#linearGradient7229)"/>
  <path d="m 10,13.5 a 0.5,0.5 0 1 1 -1,0 0.5,0.5 0 1 1 1,0 z" sodipodi:ry="0.5" sodipodi:rx="0.5" sodipodi:cy="13.5" sodipodi:cx="9.5" id="path7221" sodipodi:type="arc" transform="matrix(0,1,-1,0,27,4)" opacity="0.5" fill="url(#linearGradient7229)"/>
  <path d="M 3 3 L 3 3.5 L 13 3.5 L 13 3 L 3 3 z M 3 6 L 3 6.5 L 13 6.5 L 13 6 L 3 6 z M 3 9 L 3 9.5 L 9 9.5 L 9 9 L 3 9 z M 3 12 L 3 12.5 L 7 12.5 L 7 12 L 3 12 z " id="path7233" opacity="0.2" fill="#ffffff" color="#bebebe"/>
  <rect id="rect7245" width="5" height="1" x="10" y="8" opacity="0.2" fill="#ffffff"/>
 </g>
</svg>
