<?xml version="1.0" encoding="UTF-8" standalone="no"?>
<svg xmlns="http://www.w3.org/2000/svg" xmlns:xlink="http://www.w3.org/1999/xlink" xmlns:sodipodi="http://sodipodi.sourceforge.net/DTD/sodipodi-0.dtd" xmlns:inkscape="http://www.inkscape.org/namespaces/inkscape" width="16" height="16" version="1.1">
 <defs id="defs5402">
  <linearGradient id="linearGradient3979">
   <stop id="stop3981" stop-color="#235a9f"/>
   <stop id="stop3983" offset="1" stop-color="#1b89c2"/>
  </linearGradient>
  <linearGradient id="linearGradient3963">
   <stop id="stop3965" stop-color="#d8ebff"/>
   <stop offset="1" id="stop3967" stop-color="#f3fbff"/>
  </linearGradient>
  <linearGradient id="linearGradient3893">
   <stop id="stop3895" stop-color="#eaf4ff"/>
   <stop id="stop3897" offset="1" stop-color="#f3fbff"/>
  </linearGradient>
  <linearGradient inkscape:collect="always" id="linearGradient3815">
   <stop id="stop3817" stop-color="#ffffff"/>
   <stop offset="1" id="stop3819" stop-color="#ffffff" stop-opacity="0"/>
  </linearGradient>
  <linearGradient id="linearGradient3788">
   <stop id="stop3790" stop-color="#4e2816"/>
   <stop id="stop3792" offset="1" stop-color="#725722"/>
  </linearGradient>
  <linearGradient id="linearGradient5621">
   <stop id="stop5623" stop-color="#2777db"/>
   <stop offset="1" id="stop5625" stop-color="#00a8ff"/>
  </linearGradient>
  <linearGradient inkscape:collect="always" xlink:href="#linearGradient5621" id="linearGradient3833" gradientUnits="userSpaceOnUse" gradientTransform="translate(-20,0)" x1="4.5" x2="15.5"/>
  <linearGradient inkscape:collect="always" xlink:href="#linearGradient3815" id="linearGradient3835" gradientUnits="userSpaceOnUse" gradientTransform="matrix(0,1,-1,0,20,0)" x1="5" x2="15"/>
  <linearGradient inkscape:collect="always" xlink:href="#linearGradient3893" id="linearGradient3891" y1="14" x2="0" y2="4" gradientUnits="userSpaceOnUse"/>
  <linearGradient inkscape:collect="always" xlink:href="#linearGradient3815" id="linearGradient3926" gradientUnits="userSpaceOnUse" gradientTransform="matrix(0,1,-1,0,17,-3)" x1="5" x2="15"/>
  <linearGradient inkscape:collect="always" xlink:href="#linearGradient5621" id="linearGradient3930" gradientUnits="userSpaceOnUse" gradientTransform="translate(-17,-3)" x1="4.5" x2="15.5"/>
  <linearGradient inkscape:collect="always" xlink:href="#linearGradient3815" id="linearGradient3934" gradientUnits="userSpaceOnUse" gradientTransform="matrix(0,1,-1,0,19,-1)" x1="5" x2="15"/>
  <linearGradient inkscape:collect="always" xlink:href="#linearGradient5621" id="linearGradient3938" gradientUnits="userSpaceOnUse" gradientTransform="translate(-19,-1)" x1="4.5" x2="15.5"/>
  <linearGradient inkscape:collect="always" xlink:href="#linearGradient3963" id="linearGradient3961" y1="12.25" x2="0" y2="6" gradientUnits="userSpaceOnUse"/>
  <linearGradient inkscape:collect="always" xlink:href="#linearGradient3979" id="linearGradient3975" x1="-13" x2="-1" gradientUnits="userSpaceOnUse"/>
  <linearGradient inkscape:collect="always" xlink:href="#linearGradient3979" id="linearGradient3977" x1="-15" x2="-3" gradientUnits="userSpaceOnUse"/>
 </defs>
 <metadata id="metadata5405"/>
 <g id="layer1" inkscape:label="Layer 1" inkscape:groupmode="layer">
  <rect transform="matrix(0,-1,1,0,0,0)" y="1.5" x="-12.5" height="11" width="11" id="rect3839" fill="url(#linearGradient3930)"/>
  <rect id="rect3841" width="11" height="11" x="-12.5" y="1.5" transform="matrix(0,-1,1,0,0,0)" fill="none" stroke="url(#linearGradient3975)" stroke-linejoin="round"/>
  <path inkscape:connector-curvature="0" id="path3843" d="M 12,2 2,2 2,12 12,12 12,2 z m -1,1 0,8 -8,0 0,-8 8,0 z" opacity="0.2" fill="url(#linearGradient3926)"/>
  <path id="path3845" d="M 2,2 2,3 12,3 12,2 2,2 z" inkscape:connector-curvature="0" opacity="0.2" fill="#ffffff"/>
  <rect id="rect3000" width="11" height="11" x="-14.5" y="3.5" transform="matrix(0,-1,1,0,0,0)" fill="url(#linearGradient3938)"/>
  <rect transform="matrix(0,-1,1,0,0,0)" y="3.5" x="-14.5" height="11" width="11" id="rect3778" fill="none" stroke="url(#linearGradient3977)" stroke-linejoin="round"/>
  <path d="M 14,4 4,4 4,14 14,14 14,4 z m -1,1 0,8 -8,0 0,-8 8,0 z" id="rect3794" inkscape:connector-curvature="0" opacity="0.2" fill="url(#linearGradient3934)"/>
  <path inkscape:connector-curvature="0" d="M 4,4 4,5 14,5 14,4 4,4 z" id="path3807" opacity="0.2" fill="#ffffff"/>
  <path id="path3953" d="m 7,7 0,1.5 0,2.28125 C 6.918628,10.764599 6.8362945,10.75 6.75,10.75 6.0596441,10.75 5.5,11.309644 5.5,12 c 0,0.690356 0.5596441,1.25 1.25,1.25 C 7.4403559,13.25 8,12.690356 8,12 l 0,-3.5 3,0 0,2.28125 C 10.918628,10.764599 10.836294,10.75 10.75,10.75 10.059644,10.75 9.5,11.309644 9.5,12 c 0,0.690356 0.559644,1.25 1.25,1.25 C 11.440356,13.25 12,12.690356 12,12 L 12,8.5 12,7 11,7 8,7 7,7 z" inkscape:connector-curvature="0" opacity="0.3"/>
  <path d="M 7 6 L 7 7.5 L 7 9.78125 C 6.918628 9.7645989 6.8362945 9.75 6.75 9.75 C 6.0596441 9.75 5.5 10.309644 5.5 11 C 5.5 11.690356 6.0596441 12.25 6.75 12.25 C 7.4403559 12.25 8 11.690356 8 11 L 8 7.5 L 11 7.5 L 11 9.78125 C 10.918628 9.7645989 10.836294 9.75 10.75 9.75 C 10.059644 9.75 9.5 10.309644 9.5 11 C 9.5 11.690356 10.059644 12.25 10.75 12.25 C 11.440356 12.25 12 11.690356 12 11 L 12 7.5 L 12 6 L 11 6 L 8 6 L 7 6 z " id="path3940" fill="url(#linearGradient3961)"/>
 </g>
</svg>
