<?xml version="1.0" encoding="UTF-8" standalone="no"?>
<svg
   xmlns:dc="http://purl.org/dc/elements/1.1/"
   xmlns:cc="http://creativecommons.org/ns#"
   xmlns:rdf="http://www.w3.org/1999/02/22-rdf-syntax-ns#"
   xmlns:svg="http://www.w3.org/2000/svg"
   xmlns="http://www.w3.org/2000/svg"
   xmlns:xlink="http://www.w3.org/1999/xlink"
   version="1.1"
   id="svg5400"
   height="16px"
   width="16px">
  <defs
     id="defs5402">
    <linearGradient
       y2="136"
       x2="927"
       y1="136"
       x1="913"
       gradientUnits="userSpaceOnUse"
       id="linearGradient6457"
       xlink:href="#linearGradient4134" />
    <linearGradient
       id="linearGradient4134">
      <stop
         id="stop4136"
         offset="0"
         style="stop-color:#ffffff;stop-opacity:1;" />
      <stop
         id="stop4138"
         offset="1"
         style="stop-color:#ffffff;stop-opacity:0;" />
    </linearGradient>
    <clipPath
       id="clipPath4192"
       clipPathUnits="userSpaceOnUse">
      <path
         id="path4194"
         d="M 914.59375,129 C 913.70464,129 913,129.67339 913,130.5625 l 0,10.84375 c 0,0.88911 0.70464,1.59375 1.59375,1.59375 l 10.8125,0 C 926.29536,143 927,142.29536 927,141.40625 l 0,-10.84375 C 927,129.67339 926.29536,129 925.40625,129 l -10.8125,0 z"
         style="fill:#000000;fill-opacity:1;stroke:none" />
    </clipPath>
    <linearGradient
       xlink:href="#linearGradient6501"
       id="linearGradient4316"
       gradientUnits="userSpaceOnUse"
       gradientTransform="translate(-913.00003,-892.3622)"
       x1="912.5"
       y1="884.36218"
       x2="927.5"
       y2="884.36218" />
    <linearGradient
       id="linearGradient6501">
      <stop
         style="stop-color:#44d9ff;stop-opacity:1;"
         offset="0"
         id="stop6503" />
      <stop
         id="stop7407"
         offset="0.64285713"
         style="stop-color:#4690d1;stop-opacity:1;" />
      <stop
         style="stop-color:#4862b1;stop-opacity:1;"
         offset="1"
         id="stop6507" />
    </linearGradient>
  </defs>
  <metadata
     id="metadata5405">
    <rdf:RDF>
      <cc:Work
         rdf:about="">
        <dc:format>image/svg+xml</dc:format>
        <dc:type
           rdf:resource="http://purl.org/dc/dcmitype/StillImage" />
        <dc:title />
      </cc:Work>
    </rdf:RDF>
  </metadata>
  <g
     id="layer1">
    <rect
       style="fill:url(#linearGradient4316);fill-opacity:1;stroke:none;display:inline;enable-background:new"
       id="rect4628"
       width="13.00028"
       height="15"
       x="1.4997177"
       y="-15.5"
       rx="2.089283"
       ry="2.0892859"
       transform="matrix(0,1,-1,0,0,0)" />
    <path
       id="rect4630"
       d="M 16,12.40625 C 16,13.83206 14.83207,15 13.40625,15 L 2.59375,15 C 1.16793,15 0,13.83206 0,12.40625 L 0,3.59375 C 0,2.16794 1.16793,1 2.59375,1 l 10.8125,0 C 14.83207,1 16,2.16794 16,3.59375 z m -1,0 0,-8.8125 C 15,2.70464 14.29536,2 13.40625,2 L 2.59375,2 C 1.70464,2 1,2.70464 1,3.59375 l 0,8.8125 C 1,13.29536 1.70464,14 2.59375,14 l 10.8125,0 C 14.29536,14 15,13.29536 15,12.40625 z"
       style="font-size:medium;font-style:normal;font-variant:normal;font-weight:normal;font-stretch:normal;text-indent:0;text-align:start;text-decoration:none;line-height:normal;letter-spacing:normal;word-spacing:normal;text-transform:none;direction:ltr;block-progression:tb;writing-mode:lr-tb;text-anchor:start;baseline-shift:baseline;opacity:0.69999999999999996;color:#000000;fill:#172e3f;fill-opacity:1;stroke:none;stroke-width:1;marker:none;visibility:visible;display:inline;overflow:visible;enable-background:accumulate;font-family:Sans;-inkscape-font-specification:Sans" />
    <path
       id="rect6459"
       d="M 2.59375,1.49972 C 1.43629,1.49972 0.5,2.43601 0.5,3.59347 l 0,0.40625 0.75,0 c 0.25,0 0.74885,0 1.75,0 l 10,0 c 0,0 1.5,0 1.75,0 l 0.75,0 0,-0.40625 c 0,-1.15746 -0.93629,-2.09375 -2.09375,-2.09375 z"
       style="fill:#111111;fill-opacity:1;stroke:none;display:inline;enable-background:new" />
    <path
       transform="matrix(0,1,-1,0,144,-913.00001)"
       id="path4632"
       clip-path="url(#clipPath4192)"
       d="M 916.59375,128 C 915.19972,128 914,129.14504 914,130.5625 l 0,10.84375 c 0,1.41746 1.17629,2.59375 2.59375,2.59375 l 8.8125,0 C 926.82371,144 928,142.82371 928,141.40625 l 0,-10.84375 C 928,129.14504 926.80028,128 925.40625,128 z m 0,2 8.8125,0 c 0.38419,0 0.59375,0.20174 0.59375,0.5625 l 0,10.84375 C 926,141.76701 925.76701,142 925.40625,142 l -8.8125,0 C 916.23299,142 916,141.76701 916,141.40625 l 0,-10.84375 C 916,130.20174 916.20956,130 916.59375,130 z"
       style="font-size:medium;font-style:normal;font-variant:normal;font-weight:normal;font-stretch:normal;text-indent:0;text-align:start;text-decoration:none;line-height:normal;letter-spacing:normal;word-spacing:normal;text-transform:none;direction:ltr;block-progression:tb;writing-mode:lr-tb;text-anchor:start;baseline-shift:baseline;opacity:0.1;color:#000000;fill:url(#linearGradient6457);fill-opacity:1;stroke:none;stroke-width:2;marker:none;visibility:visible;display:inline;overflow:visible;enable-background:accumulate;font-family:Sans;-inkscape-font-specification:Sans" />
    <path
       style="opacity:0.15;fill:#ffffff;fill-opacity:1;stroke:none;display:inline;enable-background:new"
       d="M 2.5937,1.99999 C 1.7046,1.99999 1,2.70463 1,3.59374 l 0,1 C 1,3.70463 1.7046,2.99999 2.5937,2.99999 l 10.8438,0 C 14.3266,2.99999 15,3.70463 15,4.59374 l 0,-1 C 15,2.70463 14.3266,1.99999 13.4375,1.99999 z"
       id="path4634" />
    <path
       id="path4636"
       d="M 2.5937,13.99999 C 1.7046,13.99999 1,13.29535 1,12.40624 l 0,-1 c 0,0.88911 0.7046,1.59375 1.5937,1.59375 l 10.8438,0 c 0.8891,0 1.5625,-0.70464 1.5625,-1.59375 l 0,1 c 0,0.88911 -0.6734,1.59375 -1.5625,1.59375 z"
       style="opacity:0.1;fill:#ffffff;fill-opacity:1;stroke:none;display:inline;enable-background:new" />
    <path
       style="opacity:0.5;fill:#000000;fill-opacity:1;stroke:none;display:inline;enable-background:new"
       d="M 2.5937,14.99999 C 1.7046,14.99999 1,14.29535 1,13.40624 l 0,-1 c 0,0.88911 0.7046,1.59375 1.5937,1.59375 l 10.8438,0 c 0.8891,0 1.5625,-0.70464 1.5625,-1.59375 l 0,1 c 0,0.88911 -0.6734,1.59375 -1.5625,1.59375 z"
       id="path4638" />
  </g>
</svg>
