<?xml version='1.0' encoding='UTF-8' standalone='no'?>
<svg height="16" xmlns:inkscape="http://www.inkscape.org/namespaces/inkscape" xmlns:sodipodi="http://sodipodi.sourceforge.net/DTD/sodipodi-0.dtd" version="1.1" width="16" xmlns="http://www.w3.org/2000/svg" enable-background="new">
 <metadata id="metadata90"/>
 <defs id="defs7386">
  <linearGradient id="linearGradient5606" osb:paint="solid">
   <stop id="stop5608"/>
  </linearGradient>
  <filter inkscape:collect="always" color-interpolation-filters="sRGB" id="filter7554">
   <feBlend inkscape:collect="always" id="feBlend7556" in2="BackgroundImage" mode="darken"/>
  </filter>
 </defs>
 <g inkscape:groupmode="layer" id="layer1" inkscape:label="places" transform="translate(-442.00005,-293.007)">
  <path inkscape:connector-curvature="0" d="m 444.00003,297 0,10 c 5e-5,0.52358 0.47642,0.99995 1,1 l 8,0 1,0 c 0,0 1,0 1,-1 l 0,-8 0,-2 -1,0 0,10 -9,0 0,-10 z" id="path8523" sodipodi:nodetypes="ccccccccccccc" color="#000000" stroke-width="2" fill="#bebebe"/>
  <path inkscape:connector-curvature="0" d="m 443.06253,296 0,0 12.9375,0 0,0 c 0,-1 -1,-1 -1,-1 l -3,0 c 0,0 0,-1 -1,-1 l -3,0 c -1,0 -1,1 -1,1 l -3,0 c 0,0 -0.9375,0 -0.9375,1 z" id="path8525" sodipodi:nodetypes="ccccccccccc" color="#000000" stroke-width="2" fill="#bebebe"/>
  <path inkscape:connector-curvature="0" d="m 446.00003,306 7,0 0,-9 -7,0 z" id="path6047" sodipodi:nodetypes="ccccc" color="#000000" stroke-width="2" fill="#bebebe"/>
 </g>
</svg>
