<?xml version='1.0' encoding='UTF-8' standalone='no'?>
<svg height="16" xmlns:inkscape="http://www.inkscape.org/namespaces/inkscape" xmlns:sodipodi="http://sodipodi.sourceforge.net/DTD/sodipodi-0.dtd" version="1.1" width="16" xmlns="http://www.w3.org/2000/svg" enable-background="new">
 <metadata id="metadata90"/>
 <defs id="defs7386">
  <linearGradient id="linearGradient5606" osb:paint="solid">
   <stop id="stop5608"/>
  </linearGradient>
  <filter inkscape:collect="always" color-interpolation-filters="sRGB" id="filter7554">
   <feBlend inkscape:collect="always" id="feBlend7556" in2="BackgroundImage" mode="darken"/>
  </filter>
 </defs>
 <g inkscape:groupmode="layer" id="layer1" inkscape:label="places" transform="translate(-423.00003,-293.007)">
  <path inkscape:connector-curvature="0" d="m 425.00003,297 0,10 c 5e-5,0.52358 0.47642,0.99995 1,1 l 8,0 1,0 c 0.52358,-5e-5 0.99995,-0.47642 1,-1 l 0,-10 -1,0 0,8 0,2 c -2.33333,0 -6.66667,0 -9,0 l 0,-2 0,-8 z" id="path8476" sodipodi:nodetypes="cccccccccccccc" color="#000000" stroke-width="2" fill="#bebebe"/>
  <path inkscape:connector-curvature="0" d="m 424.0625,296 0,0 0.93753,0 1.02923,0 10.97074,0 0,0 c 0,-1 -1,-1 -1,-1 l -3,0 c 0,0 0,-1 -1,-1 l -3,0 c -1,0 -1,1 -1,1 l -3,0 c 0,0 -0.9375,0 -0.9375,1 z" id="path8478" sodipodi:nodetypes="ccccccccccccc" color="#000000" stroke-width="2" fill="#bebebe"/>
 </g>
</svg>
