<?xml version="1.0" encoding="UTF-8" standalone="no"?>
<svg xmlns="http://www.w3.org/2000/svg" xmlns:sodipodi="http://sodipodi.sourceforge.net/DTD/sodipodi-0.dtd" xmlns:inkscape="http://www.inkscape.org/namespaces/inkscape" width="22" height="22" version="1.1">
 <metadata id="metadata3500"/>
 <g id="layer1" inkscape:label="Layer 1" inkscape:groupmode="layer" transform="translate(0,-26)">
  <g id="g3779">
   <g transform="matrix(0.83333333,0,0,-0.83333333,16.333333,45.333334)" id="g4829">
    <path id="path4831" transform="matrix(1.2,0,0,-1.2,-19.6,23.200001)" d="M 3 1 L 3 21 L 16.34375 21 L 18 21 L 18 17 L 16 17 L 16 19 L 5 19 L 11 16 L 11 15.65625 L 7.09375 11.71875 L 6.375 11 L 7.09375 10.28125 L 11 6.375 L 11 3 L 16 3 L 16 5 L 18 5 L 18 1 L 3 1 z " fill="#555555"/>
   </g>
   <g transform="matrix(0.75564371,0,0,-0.75564371,16.990653,29)" id="g4763">
    <path sodipodi:nodetypes="cccccccccc" inkscape:connector-curvature="0" id="path4765" d="m -4.2376739,-2.647453 1.833,-1.834 -4.8103843,-4.8101511 11.1975524,0.027979 0,-2.6467499 -11.1975523,-0.02797 4.8103843,-4.809651 -1.833,-1.833 -7.9413842,7.993996 z" fill="#555555"/>
   </g>
  </g>
  <g id="g3785" transform="translate(0,-0.99999983)" opacity="0.1" fill="#ffffff">
   <g id="g3787" transform="matrix(0.83333333,0,0,-0.83333333,16.333333,45.333334)">
    <path d="M 3,1 3,21 16.34375,21 18,21 l 0,-4 -2,0 0,2 -11,0 6,-3 0,-0.34375 L 7.09375,11.71875 6.375,11 7.09375,10.28125 11,6.375 11,3 16,3 16,5 18,5 18,1 3,1 z" transform="matrix(1.2,0,0,-1.2,-19.6,23.200001)" id="path3789" inkscape:connector-curvature="0"/>
   </g>
   <g id="g3791" transform="matrix(0.75564371,0,0,-0.75564371,16.990653,29)">
    <path d="m -4.2376739,-2.647453 1.833,-1.834 -4.8103843,-4.8101511 11.1975524,0.027979 0,-2.6467499 -11.1975523,-0.02797 4.8103843,-4.809651 -1.833,-1.833 -7.9413842,7.993996 z" id="path3793" inkscape:connector-curvature="0" sodipodi:nodetypes="cccccccccc"/>
   </g>
  </g>
 </g>
</svg>
