<?xml version="1.0" encoding="UTF-8" standalone="no"?>
<svg xmlns="http://www.w3.org/2000/svg" xmlns:sodipodi="http://sodipodi.sourceforge.net/DTD/sodipodi-0.dtd" xmlns:inkscape="http://www.inkscape.org/namespaces/inkscape" width="22" height="22" version="1.1">
 <metadata id="metadata3500"/>
 <g id="layer1" inkscape:label="Layer 1" inkscape:groupmode="layer" transform="translate(0,-26)">
  <g id="g3961" transform="matrix(0,-1,1,0,-26.000001,47.999996)">
   <g transform="matrix(0.83333333,0,0,-0.83333333,15.333329,45.333334)" id="g4829">
    <path inkscape:connector-curvature="0" id="path4831" d="m -0.39369477,0.40000049 -13.20000023,0 0,19.20000051 13.20000023,0 -0.0063,-2.4 L 1.9937,17.2 2,22 l -18,0 0,-24 16,0 2,0 -0.0063,4.8000003 -2.3936948,5e-7 z" sodipodi:nodetypes="cccccccccccccc" fill="#555555"/>
   </g>
   <g transform="matrix(0.75564371,0,0,-0.75564371,15.990649,29)" id="g4763">
    <path sodipodi:nodetypes="cccccccccc" inkscape:connector-curvature="0" id="path4765" d="m -4.2376739,-2.647453 1.833,-1.834 -4.8103843,-4.8101511 11.1975524,0.027979 0,-2.6467499 -11.1975523,-0.02797 4.8103843,-4.809651 -1.833,-1.833 -7.9413842,7.993996 z" fill="#555555"/>
   </g>
  </g>
  <g transform="matrix(0,-1,1,0,-26.000001,46.999996)" id="g3967" opacity="0.1" fill="#ffffff">
   <g id="g3969" transform="matrix(0.83333333,0,0,-0.83333333,15.333329,45.333334)">
    <path sodipodi:nodetypes="cccccccccccccc" d="m -0.39369477,0.40000049 -13.20000023,0 0,19.20000051 13.20000023,0 -0.0063,-2.4 L 1.9937,17.2 2,22 l -18,0 0,-24 16,0 2,0 -0.0063,4.8000003 -2.3936948,5e-7 z" id="path3971" inkscape:connector-curvature="0"/>
   </g>
   <g id="g3973" transform="matrix(0.75564371,0,0,-0.75564371,15.990649,29)">
    <path d="m -4.2376739,-2.647453 1.833,-1.834 -4.8103843,-4.8101511 11.1975524,0.027979 0,-2.6467499 -11.1975523,-0.02797 4.8103843,-4.809651 -1.833,-1.833 -7.9413842,7.993996 z" id="path3975" inkscape:connector-curvature="0" sodipodi:nodetypes="cccccccccc"/>
   </g>
  </g>
 </g>
</svg>
