<?xml version="1.0" encoding="UTF-8" standalone="no"?>
<svg xmlns="http://www.w3.org/2000/svg" xmlns:sodipodi="http://sodipodi.sourceforge.net/DTD/sodipodi-0.dtd" xmlns:inkscape="http://www.inkscape.org/namespaces/inkscape" width="22" height="22" version="1.1">
 <defs id="defs3497">
  <clipPath id="clipPath3669">
   <path d="M 0,96 96,96 96,0 0,0 0,96 z" id="path3671"/>
  </clipPath>
 </defs>
 <metadata id="metadata3500"/>
 <g id="layer1" inkscape:label="Layer 1" inkscape:groupmode="layer" transform="translate(0,-26)">
  <g id="g3860" transform="translate(1,0)">
   <rect y="43" x="14" height="2" width="6" id="rect3856" fill="#555555" color="#000000" stroke-width="2"/>
   <rect id="rect3858" width="6" height="2" x="41" y="16" transform="matrix(0,1,1,0,0,0)" fill="#555555" color="#000000" stroke-width="2"/>
  </g>
  <g id="g3879" transform="translate(1,-1)" opacity="0.1" fill="#ffffff">
   <rect id="rect3887" width="6" height="2" x="14" y="43" color="#000000" stroke-width="2"/>
   <rect transform="matrix(0,1,1,0,0,0)" y="16" x="41" height="2" width="6" id="rect3889" color="#000000" stroke-width="2"/>
  </g>
  <path d="M 9.4999994,27.734254 7.5133048,32.88501 1.9999997,33.181641 6.2864989,36.664307 4.8656005,42 6.3963617,41.007568 9.4999994,38.998902 14.134399,42 12.7135,36.664307 17,33.181641 11.486694,32.88501 z" id="polygon5-7" inkscape:connector-curvature="0" sodipodi:nodetypes="cccccccccccc" color="#000000" stroke-width="5.359" fill="#555555"/>
  <path sodipodi:nodetypes="cccccccccccc" inkscape:connector-curvature="0" id="path3850" d="M 9.4999994,26.734254 7.5133048,31.88501 1.9999997,32.181641 6.2864989,35.664307 4.8656005,41 6.3963617,40.007568 9.4999994,37.998902 14.134399,41 12.7135,35.664307 17,32.181641 11.486694,31.88501 z" opacity="0.1" color="#000000" stroke-width="5.359" fill="#ffffff"/>
 </g>
</svg>
