<?xml version="1.0" encoding="UTF-8" standalone="no"?>
<!-- Created with Inkscape (http://www.inkscape.org/) -->

<svg
   xmlns:dc="http://purl.org/dc/elements/1.1/"
   xmlns:cc="http://creativecommons.org/ns#"
   xmlns:rdf="http://www.w3.org/1999/02/22-rdf-syntax-ns#"
   xmlns:svg="http://www.w3.org/2000/svg"
   xmlns="http://www.w3.org/2000/svg"
   xmlns:sodipodi="http://sodipodi.sourceforge.net/DTD/sodipodi-0.dtd"
   xmlns:inkscape="http://www.inkscape.org/namespaces/inkscape"
   width="22"
   height="22"
   id="svg3495"
   version="1.1"
   inkscape:version="0.48.4 r9939"
   sodipodi:docname="window-close.svg">
  <defs
     id="defs3497">
    <clipPath
       clipPathUnits="userSpaceOnUse"
       id="clipPath3669">
      <path
         inkscape:connector-curvature="0"
         d="M 0,96 96,96 96,0 0,0 0,96 z"
         id="path3671" />
    </clipPath>
  </defs>
  <sodipodi:namedview
     id="base"
     pagecolor="#ffffff"
     bordercolor="#666666"
     borderopacity="1.0"
     inkscape:pageopacity="0.0"
     inkscape:pageshadow="2"
     inkscape:zoom="1"
     inkscape:cx="23.393462"
     inkscape:cy="7.0632348"
     inkscape:current-layer="layer1"
     showgrid="false"
     inkscape:grid-bbox="true"
     inkscape:document-units="px"
     inkscape:window-width="1364"
     inkscape:window-height="701"
     inkscape:window-x="0"
     inkscape:window-y="27"
     inkscape:window-maximized="1"
     inkscape:snap-bbox="true"
     inkscape:bbox-paths="true"
     inkscape:bbox-nodes="true"
     inkscape:snap-bbox-edge-midpoints="false"
     showguides="true"
     inkscape:guide-bbox="true">
    <inkscape:grid
       type="xygrid"
       id="grid3512"
       empspacing="4"
       visible="true"
       enabled="true"
       snapvisiblegridlinesonly="true"
       dotted="false" />
  </sodipodi:namedview>
  <metadata
     id="metadata3500">
    <rdf:RDF>
      <cc:Work
         rdf:about="">
        <dc:format>image/svg+xml</dc:format>
        <dc:type
           rdf:resource="http://purl.org/dc/dcmitype/StillImage" />
        <dc:title></dc:title>
      </cc:Work>
    </rdf:RDF>
  </metadata>
  <g
     id="layer1"
     inkscape:label="Layer 1"
     inkscape:groupmode="layer"
     transform="translate(0,-26)">
    <g
       id="g3860">
      <g
         transform="translate(0.691495,18.112698)"
         id="g3852">
        <path
           inkscape:connector-curvature="0"
           style="color:#bebebe;fill:#333333;fill-opacity:1;fill-rule:nonzero;stroke:none;stroke-width:1;marker:none;visibility:visible;display:inline;overflow:visible;enable-background:accumulate"
           d="m 8.3085047,9.8873016 c -2.20914,0 -4,1.7908604 -4,4.0000004 0,2.20914 1.79086,4 4,4 2.2091403,0 4.0000003,-1.79086 4.0000003,-4 0,-2.20914 -1.79086,-4.0000004 -4.0000003,-4.0000004 z"
           id="path6751-4-5"
           sodipodi:nodetypes="sssss" />
        <path
           sodipodi:nodetypes="ccccsc"
           inkscape:connector-curvature="0"
           id="path6729-2-3"
           d="m 5.0897547,17.668552 c -2.24866,1.16455 -2.78125,3.51165 -2.78125,6.21875 l 12.0000003,0 c 0,-2.7071 -0.53259,-5.0542 -2.78125,-6.21875 -0.87459,0.74817 -1.9848203,1.21875 -3.2187503,1.21875 -1.23393,0 -2.34416,-0.47058 -3.21875,-1.21875 z"
           style="fill:#333333;fill-opacity:1;fill-rule:evenodd;stroke:none;display:inline;enable-background:new" />
      </g>
      <rect
         y="43"
         x="14"
         height="2"
         width="6"
         id="rect3856"
         style="color:#000000;fill:#333333;fill-opacity:1;fill-rule:nonzero;stroke:none;stroke-width:2;marker:none;visibility:visible;display:inline;overflow:visible;enable-background:accumulate" />
      <rect
         style="color:#000000;fill:#333333;fill-opacity:1;fill-rule:nonzero;stroke:none;stroke-width:2;marker:none;visibility:visible;display:inline;overflow:visible;enable-background:accumulate"
         id="rect3858"
         width="6"
         height="2"
         x="41"
         y="16"
         transform="matrix(0,1,1,0,0,0)" />
    </g>
    <g
       id="g3879"
       style="opacity:0.3;fill:#ffffff;fill-opacity:1"
       transform="translate(0,-1)">
      <g
         id="g3881"
         transform="translate(0.691495,18.112698)"
         style="fill:#ffffff;fill-opacity:1">
        <path
           sodipodi:nodetypes="sssss"
           id="path3883"
           d="m 8.3085047,9.8873016 c -2.20914,0 -4,1.7908604 -4,4.0000004 0,2.20914 1.79086,4 4,4 2.2091403,0 4.0000003,-1.79086 4.0000003,-4 0,-2.20914 -1.79086,-4.0000004 -4.0000003,-4.0000004 z"
           style="color:#bebebe;fill:#ffffff;fill-opacity:1;fill-rule:nonzero;stroke:none;stroke-width:1;marker:none;visibility:visible;display:inline;overflow:visible;enable-background:accumulate"
           inkscape:connector-curvature="0" />
        <path
           style="fill:#ffffff;fill-opacity:1;fill-rule:evenodd;stroke:none;display:inline;enable-background:new"
           d="m 5.0897547,17.668552 c -2.24866,1.16455 -2.78125,3.51165 -2.78125,6.21875 l 12.0000003,0 c 0,-2.7071 -0.53259,-5.0542 -2.78125,-6.21875 -0.87459,0.74817 -1.9848203,1.21875 -3.2187503,1.21875 -1.23393,0 -2.34416,-0.47058 -3.21875,-1.21875 z"
           id="path3885"
           inkscape:connector-curvature="0"
           sodipodi:nodetypes="ccccsc" />
      </g>
      <rect
         style="color:#000000;fill:#ffffff;fill-opacity:1;fill-rule:nonzero;stroke:none;stroke-width:2;marker:none;visibility:visible;display:inline;overflow:visible;enable-background:accumulate"
         id="rect3887"
         width="6"
         height="2"
         x="14"
         y="43" />
      <rect
         transform="matrix(0,1,1,0,0,0)"
         y="16"
         x="41"
         height="2"
         width="6"
         id="rect3889"
         style="color:#000000;fill:#ffffff;fill-opacity:1;fill-rule:nonzero;stroke:none;stroke-width:2;marker:none;visibility:visible;display:inline;overflow:visible;enable-background:accumulate" />
    </g>
  </g>
</svg>
