<?xml version="1.0" encoding="UTF-8" standalone="no"?>
<svg xmlns="http://www.w3.org/2000/svg" xmlns:xlink="http://www.w3.org/1999/xlink" xmlns:sodipodi="http://sodipodi.sourceforge.net/DTD/sodipodi-0.dtd" xmlns:inkscape="http://www.inkscape.org/namespaces/inkscape" width="22" height="22" version="1.1">
 <defs id="defs3497">
  <linearGradient inkscape:collect="always" xlink:href="#linearGradient3886" id="linearGradient3802" y1="0" x2="0" y2="22" gradientUnits="userSpaceOnUse" gradientTransform="matrix(1,0,0,-1,0,48)"/>
  <linearGradient inkscape:collect="always" xlink:href="#linearGradient3904" id="linearGradient3860" x1="161" x2="175" gradientUnits="userSpaceOnUse"/>
  <linearGradient id="linearGradient3904">
   <stop id="stop3906" stop-color="#555555"/>
   <stop id="stop3908" offset="1" stop-color="#666666"/>
  </linearGradient>
  <linearGradient id="linearGradient3886">
   <stop id="stop3888" stop-color="#2ca42a"/>
   <stop offset="1" id="stop3890" stop-color="#57d932"/>
  </linearGradient>
  <linearGradient inkscape:collect="always" xlink:href="#linearGradient3904" id="linearGradient3975" x1="1" x2="21" gradientUnits="userSpaceOnUse" gradientTransform="matrix(0,-1,1,0,0,48)"/>
  <linearGradient inkscape:collect="always" xlink:href="#linearGradient3904" id="linearGradient4138" y1="48" x2="0" y2="26" gradientUnits="userSpaceOnUse" gradientTransform="translate(0,-0.44194175)"/>
  <linearGradient inkscape:collect="always" xlink:href="#linearGradient3904" id="linearGradient4150" gradientUnits="userSpaceOnUse" y1="48" x2="0" y2="26" gradientTransform="translate(0,-26)"/>
 </defs>
 <metadata id="metadata3500"/>
 <g id="layer1" inkscape:label="Background" inkscape:groupmode="layer" transform="translate(0,-26)">
  <path d="M 18,29.43306 16.9375,30.49556 8,39.43306 5.0625,36.49556 4,35.43306 l -2.125,2.125 1.0625,1.0625 4,4 1.0625,1.0625 1.0625,-1.0625 10,-10 1.0625,-1.0625 -2.125,-2.125 z" id="path4126" inkscape:connector-curvature="0" color="#000000" stroke-width="3" fill="url(#linearGradient4138)"/>
  <path inkscape:connector-curvature="0" id="path4140" d="M 18,29.43306 16.9375,30.49556 8,39.43306 5.0625,36.49556 4,35.43306 l -2.125,2.125 1.0625,1.0625 4,4 1.0625,1.0625 1.0625,-1.0625 10,-10 1.0625,-1.0625 -2.125,-2.125 z" opacity="0.61" color="#000000" fill="none" stroke="#000000"/>
  <path d="m 18,30.12056 -0.71875,0.71875 -8.9375,8.9375 L 8,40.15181 7.65625,39.77681 4.71875,36.83931 4,36.12056 l -1.4375,1.4375 0.5,0.5 0.9375,-0.9375 0.71875,0.71875 2.9375,2.9375 0.34375,0.375 0.34375,-0.375 8.9375,-8.9375 L 18,31.12056 l 0.9375,0.9375 0.5,-0.5 L 18,30.12056 z" id="path4142" inkscape:connector-curvature="0" opacity="0.2" color="#000000" stroke-width="3" fill="#ffffff"/>
 </g>
</svg>
