<?xml version="1.0" encoding="UTF-8" standalone="no"?>
<svg xmlns="http://www.w3.org/2000/svg" xmlns:xlink="http://www.w3.org/1999/xlink" xmlns:sodipodi="http://sodipodi.sourceforge.net/DTD/sodipodi-0.dtd" xmlns:inkscape="http://www.inkscape.org/namespaces/inkscape" width="22" height="22" version="1.1">
 <defs id="defs3497">
  <clipPath id="clipPath3669">
   <path d="M 0,96 96,96 96,0 0,0 0,96 z" id="path3671"/>
  </clipPath>
  <linearGradient inkscape:collect="always" xlink:href="#outerBackgroundGradient-4" id="linearGradient3917" x1="0.5" x2="15.5" gradientUnits="userSpaceOnUse" gradientTransform="matrix(0,-1,1,0,-1.2130051e-7,16)"/>
  <linearGradient id="outerBackgroundGradient-4">
   <stop id="stop3864-8-6-6" stop-color="#cfcfcf"/>
   <stop offset="1" id="stop3866-9-1-7" stop-color="#ebebeb"/>
  </linearGradient>
  <linearGradient inkscape:collect="always" xlink:href="#outerBackgroundGradient-4" id="linearGradient3042" gradientUnits="userSpaceOnUse" gradientTransform="matrix(0,-1.2664031,1.2663965,0,1.8688284,46.131223)" x1="0.5" x2="15.5"/>
  <linearGradient inkscape:collect="always" xlink:href="#outerBackgroundGradient-4" id="linearGradient3874" gradientUnits="userSpaceOnUse" gradientTransform="matrix(0,-1.2664031,1.2663965,0,1.8688284,22.131223)" x1="0.5" x2="15.5"/>
  <linearGradient inkscape:collect="always" xlink:href="#outerBackgroundGradient-4" id="linearGradient3895" gradientUnits="userSpaceOnUse" gradientTransform="matrix(0,-1.2664031,1.2663965,0,0.8688284,47.131223)" x1="0.5" x2="15.5"/>
 </defs>
 <metadata id="metadata3500"/>
 <g id="layer1" inkscape:label="Layer 1" inkscape:groupmode="layer" transform="translate(0,-26)">
  <path d="m 10.6875,27.5 c -0.175627,0.0114 -0.374731,0.04347 -0.5625,0.125 0,0 -0.126847,0.408782 -0.21875,1.40625 C 9.793516,30.2512 9.319031,30.56289 8.75,30.96875 8.615424,31.01908 8.5066049,31.127375 8.375,31.1875 7.6859223,31.303225 7.0673857,31.376615 6.125,30.59375 5.3547162,29.953764 5.03125,29.75 5.03125,29.75 4.6503261,29.900367 4.3125,30.3125 4.3125,30.3125 c 0,0 -0.4126486,0.337798 -0.5625,0.71875 0,0 0.2033596,0.323205 0.84375,1.09375 0.7829002,0.942363 0.7102242,1.502457 0.34375,2.34375 -0.3664621,0.841282 -0.6862752,1.324724 -1.90625,1.4375 C 2.0339641,35.99849 1.625,36.125 1.625,36.125 1.4616373,36.50081 1.5,37.000014 1.5,37 c 0,0 -0.016691,0.136885 0,0.3125 0.016683,0.175655 0.043464,0.406061 0.125,0.59375 0,0 0.4088413,0.09546 1.40625,0.1875 1.2198932,0.112735 1.5320811,0.585675 1.78125,0.9375 0.2491549,0.351814 0.3150386,0.461939 0.375,0.59375 0.1157226,0.689352 0.1890968,1.30761 -0.59375,2.25 C 3.9537683,42.645262 3.75,42.96875 3.75,42.96875 c 0.1493358,0.380235 0.5625,0.71875 0.5625,0.71875 0,0 0.3377043,0.412565 0.71875,0.5625 0,0 0.3235064,-0.203777 1.09375,-0.84375 0.9423303,-0.782891 1.5608539,-0.709239 2.25,-0.59375 0.131456,0.05968 0.2417904,0.12586 0.59375,0.375 0.351945,0.249129 0.824601,0.561377 0.9375,1.78125 0.09224,0.997265 0.21875,1.375 0.21875,1.375 C 10.500944,46.506993 11,46.5 11,46.5 c 0,0 0.530917,0.0065 0.90625,-0.15625 0,0 0.09586,-0.377599 0.1875,-1.375 0.112874,-1.219845 0.585716,-1.53189 0.9375,-1.78125 0.35177,-0.24936 0.462118,-0.315308 0.59375,-0.375 0.689336,-0.115989 1.307711,-0.189061 2.25,0.59375 0.770422,0.639971 1.09375,0.84375 1.09375,0.84375 0.381019,-0.150476 0.71875,-0.5625 0.71875,-0.5625 0,0 0.41269,-0.337825 0.5625,-0.71875 0,0 -0.203346,-0.323501 -0.84375,-1.09375 -0.782779,-0.942389 -0.708805,-1.560781 -0.59375,-2.25 0.05982,-0.131863 0.125895,-0.241694 0.375,-0.59375 0.249059,-0.35207 0.561426,-0.8246 1.78125,-0.9375 0.997273,-0.09212 1.375,-0.1875 1.375,-0.1875 C 20.506612,37.530359 20.5,37 20.5,37 c 0,0 0.0065,-0.499813 -0.15625,-0.875 0,0 -0.377414,-0.126972 -1.375,-0.21875 -1.219824,-0.112875 -1.53199,-0.585938 -1.78125,-0.9375 -0.249258,-0.351561 -0.315308,-0.462036 -0.375,-0.59375 -0.115989,-0.689299 -0.189097,-1.307597 0.59375,-2.25 C 18.046232,31.354738 18.25,31.03125 18.25,31.03125 18.099377,30.650161 17.6875,30.3125 17.6875,30.3125 c 0,0 -0.337786,-0.412647 -0.71875,-0.5625 0,0 -0.32348,0.203209 -1.09375,0.84375 -0.942331,0.782893 -1.560909,0.708969 -2.25,0.59375 -0.131863,-0.05983 -0.241794,-0.125959 -0.59375,-0.375 -0.351955,-0.249039 -0.824603,-0.561364 -0.9375,-1.78125 C 12.00163,28.033903 11.90625,27.625 11.90625,27.625 11.530347,27.461988 11,27.5 11,27.5 c 0,0 -0.136873,-0.0114 -0.3125,0 z M 11,33.5 c 1.932997,0 3.5,1.567003 3.5,3.5 0,1.932997 -1.567003,3.5 -3.5,3.5 -1.932997,0 -3.5,-1.567003 -3.5,-3.5 0,-1.932997 1.567003,-3.5 3.5,-3.5 z" id="path3-8-5-9" inkscape:connector-curvature="0" fill="url(#linearGradient3895)"/>
  <path id="path3877" d="m 10.6875,27.5 c -0.175627,0.0114 -0.374731,0.04347 -0.5625,0.125 0,0 -0.126847,0.408782 -0.21875,1.40625 C 9.793516,30.2512 9.319031,30.56289 8.75,30.96875 8.615424,31.01908 8.5066049,31.127375 8.375,31.1875 7.6859223,31.303225 7.0673857,31.376615 6.125,30.59375 5.3547162,29.953764 5.03125,29.75 5.03125,29.75 4.6503261,29.900367 4.3125,30.3125 4.3125,30.3125 c 0,0 -0.4126486,0.337798 -0.5625,0.71875 0,0 0.2033596,0.323205 0.84375,1.09375 0.7829002,0.942363 0.7102242,1.502457 0.34375,2.34375 -0.3664621,0.841282 -0.6862752,1.324724 -1.90625,1.4375 C 2.0339641,35.99849 1.625,36.125 1.625,36.125 1.4616373,36.50081 1.5,37.000014 1.5,37 c 0,0 -0.016691,0.136885 0,0.3125 0.016683,0.175655 0.043464,0.406061 0.125,0.59375 0,0 0.4088413,0.09546 1.40625,0.1875 1.2198932,0.112735 1.5320811,0.585675 1.78125,0.9375 0.2491549,0.351814 0.3150386,0.461939 0.375,0.59375 0.1157226,0.689352 0.1890968,1.30761 -0.59375,2.25 C 3.9537683,42.645262 3.75,42.96875 3.75,42.96875 c 0.1493358,0.380235 0.5625,0.71875 0.5625,0.71875 0,0 0.3377043,0.412565 0.71875,0.5625 0,0 0.3235064,-0.203777 1.09375,-0.84375 0.9423303,-0.782891 1.5608539,-0.709239 2.25,-0.59375 0.131456,0.05968 0.2417904,0.12586 0.59375,0.375 0.351945,0.249129 0.824601,0.561377 0.9375,1.78125 0.09224,0.997265 0.21875,1.375 0.21875,1.375 C 10.500944,46.506993 11,46.5 11,46.5 c 0,0 0.530917,0.0065 0.90625,-0.15625 0,0 0.09586,-0.377599 0.1875,-1.375 0.112874,-1.219845 0.585716,-1.53189 0.9375,-1.78125 0.35177,-0.24936 0.462118,-0.315308 0.59375,-0.375 0.689336,-0.115989 1.307711,-0.189061 2.25,0.59375 0.770422,0.639971 1.09375,0.84375 1.09375,0.84375 0.381019,-0.150476 0.71875,-0.5625 0.71875,-0.5625 0,0 0.41269,-0.337825 0.5625,-0.71875 0,0 -0.203346,-0.323501 -0.84375,-1.09375 -0.782779,-0.942389 -0.708805,-1.560781 -0.59375,-2.25 0.05982,-0.131863 0.125895,-0.241694 0.375,-0.59375 0.249059,-0.35207 0.561426,-0.8246 1.78125,-0.9375 0.997273,-0.09212 1.375,-0.1875 1.375,-0.1875 C 20.506612,37.530359 20.5,37 20.5,37 c 0,0 0.0065,-0.499813 -0.15625,-0.875 0,0 -0.377414,-0.126972 -1.375,-0.21875 -1.219824,-0.112875 -1.53199,-0.585938 -1.78125,-0.9375 -0.249258,-0.351561 -0.315308,-0.462036 -0.375,-0.59375 -0.115989,-0.689299 -0.189097,-1.307597 0.59375,-2.25 C 18.046232,31.354738 18.25,31.03125 18.25,31.03125 18.099377,30.650161 17.6875,30.3125 17.6875,30.3125 c 0,0 -0.337786,-0.412647 -0.71875,-0.5625 0,0 -0.32348,0.203209 -1.09375,0.84375 -0.942331,0.782893 -1.560909,0.708969 -2.25,0.59375 -0.131863,-0.05983 -0.241794,-0.125959 -0.59375,-0.375 -0.351955,-0.249039 -0.824603,-0.561364 -0.9375,-1.78125 C 12.00163,28.033903 11.90625,27.625 11.90625,27.625 11.530347,27.461988 11,27.5 11,27.5 c 0,0 -0.136873,-0.0114 -0.3125,0 z M 11,33.5 c 1.932997,0 3.5,1.567003 3.5,3.5 0,1.932997 -1.567003,3.5 -3.5,3.5 -1.932997,0 -3.5,-1.567003 -3.5,-3.5 0,-1.932997 1.567003,-3.5 3.5,-3.5 z" inkscape:connector-curvature="0" opacity="0.41" fill="none" stroke="#000000"/>
  <path d="m 10.71875,28 c -0.05329,0.0035 -0.10379,0.02245 -0.15625,0.03125 -0.03028,0.114291 -0.08441,0.251518 -0.15625,1.03125 -0.06192,0.670091 -0.236486,1.167798 -0.5,1.53125 -0.263514,0.363452 -0.59471,0.581334 -0.875,0.78125 L 9,31.40625 8.9375,31.4375 c 0.00301,-0.0011 -0.1004931,0.107616 -0.34375,0.21875 l -0.0625,0 -0.0625,0.03125 C 7.7655266,31.805601 6.8494187,31.830146 5.8125,30.96875 5.2344962,30.488519 5.1106027,30.4505 5,30.375 4.8652733,30.488817 4.6875,30.625 4.6875,30.625 L 4.65625,30.65625 4.625,30.6875 c 0,0 -0.1362731,0.177924 -0.25,0.3125 0.059399,0.08707 0.1583654,0.242931 0.40625,0.5625 C 4.8405046,31.516507 4.9030625,31.456893 5,31.375 c 0.1106027,0.0755 0.2344962,0.113519 0.8125,0.59375 1.0369187,0.861396 1.9530266,0.836851 2.65625,0.71875 l 0.0625,-0.03125 0.0625,0 C 8.8370069,32.545116 8.94051,32.4364 8.9375,32.4375 L 9,32.40625 9.03125,32.375 c 0.28029,-0.199916 0.611486,-0.417798 0.875,-0.78125 0.263514,-0.363452 0.43808,-0.861159 0.5,-1.53125 0.07184,-0.779732 0.12597,-0.916959 0.15625,-1.03125 0.05246,-0.0088 0.10296,-0.02775 0.15625,-0.03125 0.137385,-0.0089 0.25,0 0.25,0 L 11,29 l 0.03125,0 c 0,0 0.2292,0.04472 0.40625,0.0625 0.02763,0.141206 0.08727,0.253204 0.15625,1 0.06199,0.669799 0.237842,1.157183 0.46875,1.5 0.230908,0.342817 0.517219,0.535761 0.6875,0.65625 0.357962,0.25329 0.493365,0.3636 0.65625,0.4375 l 0.0625,0 0.0625,0.03125 c 0.702785,0.117509 1.619292,0.142759 2.65625,-0.71875 0.577883,-0.480556 0.702052,-0.51848 0.8125,-0.59375 0.09683,0.08183 0.159459,0.141486 0.21875,0.1875 C 17.46654,31.243003 17.565495,31.087173 17.625,31 17.511177,30.865254 17.375,30.6875 17.375,30.6875 L 17.34375,30.65625 17.3125,30.625 c 0,0 -0.177927,-0.136276 -0.3125,-0.25 -0.110448,0.07527 -0.234617,0.113194 -0.8125,0.59375 -1.036958,0.861509 -1.953465,0.836259 -2.65625,0.71875 l -0.0625,-0.03125 -0.0625,0 c -0.162885,-0.0739 -0.298288,-0.18421 -0.65625,-0.4375 -0.170281,-0.120489 -0.456592,-0.313433 -0.6875,-0.65625 -0.230908,-0.342817 -0.40676,-0.830201 -0.46875,-1.5 -0.06898,-0.746796 -0.12862,-0.858794 -0.15625,-1 C 11.26045,28.04472 11.03125,28 11.03125,28 L 11,28 10.96875,28 c 0,0 -0.112615,-0.0089 -0.25,0 z M 5.625,34 c -0.051727,0.226382 -0.1214356,0.432851 -0.21875,0.65625 -0.1904944,0.437315 -0.4077949,0.865233 -0.78125,1.1875 -0.3734551,0.322267 -0.8912925,0.50045 -1.5625,0.5625 -0.7566006,0.06998 -0.874113,0.12382 -1,0.15625 C 2.042366,36.737879 2,36.96875 2,36.96875 L 2,37 2,37.0625 c 0,0 -0.011405,0.0675 0,0.1875 0.00628,0.06617 0.020473,0.122196 0.03125,0.1875 0.065061,0.013 0.1359081,0.03557 0.28125,0.0625 0.1396891,-0.02626 0.3716997,-0.05876 0.75,-0.09375 0.6712075,-0.06205 1.1890449,-0.240233 1.5625,-0.5625 0.3734551,-0.322267 0.5907556,-0.750185 0.78125,-1.1875 0.194629,-0.446797 0.327191,-0.882857 0.28125,-1.375 C 5.6788084,34.188142 5.6478509,34.091517 5.625,34 z m 10.6875,0.375 c -0.05849,0.397146 -0.05361,0.775134 0,1.09375 l 0.03125,0.0625 0,0.0625 c 0.07354,0.162279 0.183762,0.29837 0.4375,0.65625 0.12039,0.1698 0.313504,0.456555 0.65625,0.6875 0.342746,0.230945 0.830171,0.40677 1.5,0.46875 0.375391,0.03453 0.585024,0.06732 0.71875,0.09375 0.133016,-0.02708 0.183576,-0.04879 0.25,-0.0625 C 19.93409,37.246544 20,37 20,37 c 0,0 -0.063,-0.24734 -0.09375,-0.4375 -0.116908,-0.03198 -0.217968,-0.08718 -0.96875,-0.15625 -0.669829,-0.06198 -1.157254,-0.237805 -1.5,-0.46875 -0.342746,-0.230945 -0.53586,-0.5177 -0.65625,-0.6875 -0.253738,-0.35788 -0.36396,-0.493971 -0.4375,-0.65625 l 0,-0.0625 -0.03125,-0.0625 c -0.0049,-0.02896 0.0045,-0.06408 0,-0.09375 z M 7.0625,37.5 C 7.0418246,37.664208 7,37.830336 7,38 c 0,2.203217 1.7967831,4 4,4 2.203217,0 4,-1.796783 4,-4 0,-0.169664 -0.04182,-0.335792 -0.0625,-0.5 C 14.68969,39.468167 13.033553,41 11,41 8.9664469,41 7.3103105,39.468167 7.0625,37.5 z m -1.375,3.125 C 5.613221,41.09796 5.4314021,41.63056 4.96875,42.1875 4.4885247,42.765484 4.450501,42.889395 4.375,43 c 0.1137987,0.134656 0.25,0.3125 0.25,0.3125 L 4.65625,43.34375 4.6875,43.375 c 0,0 0.070636,0.04456 0.09375,0.0625 0.066604,-0.08588 0.085765,-0.127555 0.1875,-0.25 0.8258914,-0.994207 0.8233065,-1.871375 0.71875,-2.5625 z m 10.625,0 c -0.103939,0.690584 -0.107163,1.568181 0.71875,2.5625 0.101788,0.122426 0.120871,0.16412 0.1875,0.25 0.0231,-0.01793 0.09375,-0.0625 0.09375,-0.0625 L 17.34375,43.34375 17.375,43.3125 c 0,0 0.136274,-0.177927 0.25,-0.3125 -0.07533,-0.110487 -0.113278,-0.23461 -0.59375,-0.8125 -0.462664,-0.557002 -0.644561,-1.089484 -0.71875,-1.5625 z" id="path3879" inkscape:connector-curvature="0" opacity="0.4" fill="#ffffff"/>
  <path id="path3893" d="m 10.71875,47.433044 c -0.05329,-0.0035 -0.10379,-0.02245 -0.15625,-0.03125 -0.03028,-0.114291 -0.08441,-0.251518 -0.15625,-1.03125 -0.06192,-0.670091 -0.236486,-1.167798 -0.5,-1.53125 -0.263514,-0.363452 -0.59471,-0.581334 -0.875,-0.78125 L 9,44.026794 8.9375,43.995544 c 0.00301,0.0011 -0.1004931,-0.107616 -0.34375,-0.21875 l -0.0625,0 -0.0625,-0.03125 C 7.7655266,43.627443 6.8494187,43.602898 5.8125,44.464294 5.2344962,44.944525 5.1106027,44.982544 5,45.058044 c -0.1347267,-0.113817 -0.3125,-0.25 -0.3125,-0.25 L 4.65625,44.776794 4.625,44.745544 c 0,0 -0.1362731,-0.177924 -0.25,-0.3125 0.059399,-0.08707 0.1583654,-0.242931 0.40625,-0.5625 0.059255,0.04599 0.1218125,0.105608 0.21875,0.1875 0.1106027,-0.0755 0.2344962,-0.113519 0.8125,-0.59375 1.0369187,-0.861396 1.9530266,-0.836851 2.65625,-0.71875 l 0.0625,0.03125 0.0625,0 c 0.2432569,0.111134 0.34676,0.21985 0.34375,0.21875 L 9,43.026794 l 0.03125,0.03125 c 0.28029,0.199916 0.611486,0.417798 0.875,0.78125 0.263514,0.363452 0.43808,0.861159 0.5,1.53125 0.07184,0.779732 0.12597,0.916959 0.15625,1.03125 0.05246,0.0088 0.10296,0.02775 0.15625,0.03125 0.137385,0.0089 0.25,0 0.25,0 l 0.03125,0 0.03125,0 c 0,0 0.2292,-0.04472 0.40625,-0.0625 0.02763,-0.141206 0.08727,-0.253204 0.15625,-1 0.06199,-0.669799 0.237842,-1.157183 0.46875,-1.5 0.230908,-0.342817 0.517219,-0.535761 0.6875,-0.65625 0.357962,-0.25329 0.493365,-0.3636 0.65625,-0.4375 l 0.0625,0 0.0625,-0.03125 c 0.702785,-0.117509 1.619292,-0.142759 2.65625,0.71875 0.577883,0.480556 0.702052,0.51848 0.8125,0.59375 0.09683,-0.08182 0.159459,-0.141485 0.21875,-0.1875 0.24779,0.319498 0.346745,0.475327 0.40625,0.5625 -0.113823,0.134746 -0.25,0.3125 -0.25,0.3125 l -0.03125,0.03125 -0.03125,0.03125 c 0,0 -0.177927,0.136276 -0.3125,0.25 -0.110448,-0.07527 -0.234617,-0.113194 -0.8125,-0.59375 -1.036958,-0.861509 -1.953465,-0.836259 -2.65625,-0.71875 l -0.0625,0.03125 -0.0625,0 c -0.162885,0.07391 -0.298288,0.18421 -0.65625,0.4375 -0.170281,0.120489 -0.456592,0.313433 -0.6875,0.65625 -0.230908,0.342817 -0.40676,0.830201 -0.46875,1.5 -0.06898,0.746796 -0.12862,0.858794 -0.15625,1 -0.17705,0.01778 -0.40625,0.0625 -0.40625,0.0625 l -0.03125,0 -0.03125,0 c 0,0 -0.112615,0.0089 -0.25,0 z m -5.09375,-6 C 5.5732734,41.206662 5.5035644,41.000193 5.40625,40.776794 5.2157556,40.339479 4.9984551,39.911561 4.625,39.589294 c -0.3734551,-0.322267 -0.8912925,-0.50045 -1.5625,-0.5625 -0.7566006,-0.06998 -0.874113,-0.12382 -1,-0.15625 C 2.042366,38.695165 2,38.464294 2,38.464294 l 0,-0.03125 0,-0.0625 c 0,0 -0.011405,-0.0675 0,-0.1875 0.00628,-0.06617 0.020473,-0.122196 0.03125,-0.1875 0.065061,-0.013 0.1359081,-0.03557 0.28125,-0.0625 0.1396891,0.02626 0.3716997,0.05876 0.75,0.09375 0.6712075,0.06205 1.1890449,0.240233 1.5625,0.5625 0.3734551,0.322267 0.5907556,0.750185 0.78125,1.1875 0.194629,0.446797 0.327191,0.882857 0.28125,1.375 -0.00869,0.09311 -0.039649,0.189733 -0.0625,0.28125 z m 10.6875,-0.375 c -0.05849,-0.397146 -0.05361,-0.775134 0,-1.09375 l 0.03125,-0.0625 0,-0.0625 c 0.07354,-0.162279 0.183762,-0.29837 0.4375,-0.65625 0.12039,-0.1698 0.313504,-0.456555 0.65625,-0.6875 0.342746,-0.230945 0.830171,-0.40677 1.5,-0.46875 0.375391,-0.03453 0.585024,-0.06732 0.71875,-0.09375 0.133016,0.02708 0.183576,0.04879 0.25,0.0625 0.02784,0.190956 0.09375,0.4375 0.09375,0.4375 0,0 -0.063,0.24734 -0.09375,0.4375 -0.116908,0.03198 -0.217968,0.08718 -0.96875,0.15625 -0.669829,0.06198 -1.157254,0.237805 -1.5,0.46875 -0.342746,0.230945 -0.53586,0.5177 -0.65625,0.6875 -0.253738,0.35788 -0.36396,0.493971 -0.4375,0.65625 l 0,0.0625 -0.03125,0.0625 c -0.0049,0.02896 0.0045,0.06408 0,0.09375 z m -9.25,-3.125 C 7.0418246,37.768836 7,37.602708 7,37.433044 c 0,-2.203217 1.7967831,-4 4,-4 2.203217,0 4,1.796783 4,4 0,0.169664 -0.04182,0.335792 -0.0625,0.5 -0.24781,-1.968167 -1.903947,-3.5 -3.9375,-3.5 -2.0335531,0 -3.6896895,1.531833 -3.9375,3.5 z m -1.375,-3.125 C 5.613221,34.335084 5.4314021,33.802484 4.96875,33.245544 4.4885247,32.66756 4.450501,32.543649 4.375,32.433044 c 0.1137987,-0.134656 0.25,-0.3125 0.25,-0.3125 l 0.03125,-0.03125 0.03125,-0.03125 c 0,0 0.070636,-0.04456 0.09375,-0.0625 0.066604,0.08588 0.085765,0.127555 0.1875,0.25 0.8258914,0.994207 0.8233065,1.871375 0.71875,2.5625 z m 10.625,0 c -0.103939,-0.690584 -0.107163,-1.568181 0.71875,-2.5625 0.101788,-0.122426 0.120871,-0.16412 0.1875,-0.25 0.0231,0.01793 0.09375,0.0625 0.09375,0.0625 l 0.03125,0.03125 0.03125,0.03125 c 0,0 0.136274,0.177927 0.25,0.3125 -0.07533,0.110487 -0.113278,0.23461 -0.59375,0.8125 -0.462664,0.557002 -0.644561,1.089484 -0.71875,1.5625 z" inkscape:connector-curvature="0" opacity="0.2"/>
 </g>
</svg>
