<?xml version="1.0" encoding="UTF-8" standalone="no"?>
<svg xmlns="http://www.w3.org/2000/svg" xmlns:xlink="http://www.w3.org/1999/xlink" xmlns:sodipodi="http://sodipodi.sourceforge.net/DTD/sodipodi-0.dtd" xmlns:inkscape="http://www.inkscape.org/namespaces/inkscape" version="1.1" width="22" height="22">
 <defs id="defs3830">
  <linearGradient inkscape:collect="always" id="linearGradient3801">
   <stop id="stop3803" stop-color="#ffffff"/>
   <stop offset="1" id="stop3805" stop-color="#ffffff" stop-opacity="0"/>
  </linearGradient>
  <linearGradient id="linearGradient3977">
   <stop id="stop3979" stop-color="#ffffff"/>
   <stop id="stop3981" offset="0.036" stop-color="#ffffff" stop-opacity="0.235"/>
   <stop id="stop3983" offset="0.951" stop-color="#ffffff" stop-opacity="0.157"/>
   <stop id="stop3985" offset="1" stop-color="#ffffff" stop-opacity="0.392"/>
  </linearGradient>
  <linearGradient id="linearGradient3600-4">
   <stop id="stop3602-7" stop-color="#f4f4f4"/>
   <stop id="stop3604-6" offset="1" stop-color="#dbdbdb"/>
  </linearGradient>
  <linearGradient y1="5.564" x2="0" y2="43" id="linearGradient3000" xlink:href="#linearGradient3977" gradientUnits="userSpaceOnUse" gradientTransform="matrix(0.40540511,0,0,0.51351253,1.2696879,-1.32431)"/>
  <linearGradient y1="0.985" x2="0" y2="47.01" id="linearGradient3003" xlink:href="#linearGradient3988-5" gradientUnits="userSpaceOnUse" gradientTransform="matrix(0.48571543,0,0,-0.45629579,-0.6571703,22.651132)"/>
  <linearGradient inkscape:collect="always" xlink:href="#linearGradient3988-5" id="linearGradient3158" gradientUnits="userSpaceOnUse" gradientTransform="matrix(0.175,0,0,0.175,-1.20002,-6.0000326)" y1="280" x2="0" y2="40"/>
  <linearGradient id="linearGradient3988-5">
   <stop id="stop3990-5" stop-color="#ededed"/>
   <stop offset="1" id="stop3992-0" stop-color="#fafafa"/>
  </linearGradient>
  <linearGradient inkscape:collect="always" xlink:href="#linearGradient3801" id="linearGradient3807" y1="0" x2="0" y2="22" gradientUnits="userSpaceOnUse"/>
  <radialGradient inkscape:collect="always" xlink:href="#linearGradient6557" id="radialGradient3981" gradientUnits="userSpaceOnUse" cx="311.47" cy="828.53" r="3.281"/>
  <linearGradient id="linearGradient6557">
   <stop id="stop6559" stop-color="#fce94f"/>
   <stop id="stop6565" offset="0.673" stop-color="#fce94f"/>
   <stop offset="1" id="stop6561" stop-color="#fce94f" stop-opacity="0"/>
  </linearGradient>
  <linearGradient id="linearGradient6620">
   <stop id="stop6622" stop-color="#ffffff"/>
   <stop offset="0.33" id="stop6624" stop-color="#ffffff"/>
   <stop id="stop6626" offset="1" stop-color="#fce94f"/>
  </linearGradient>
  <linearGradient inkscape:collect="always" id="linearGradient3952">
   <stop id="stop3954"/>
   <stop offset="1" id="stop3956" stop-opacity="0"/>
  </linearGradient>
  <linearGradient inkscape:collect="always" xlink:href="#linearGradient3960" id="linearGradient3051" gradientUnits="userSpaceOnUse" gradientTransform="matrix(1.1428571,0,0,1,-11.857143,2)" y1="45" x2="0" y2="42"/>
  <linearGradient id="linearGradient3960">
   <stop id="stop3962" stop-opacity="0"/>
   <stop id="stop3970" offset="0.5"/>
   <stop offset="1" id="stop3964" stop-opacity="0"/>
  </linearGradient>
  <linearGradient inkscape:collect="always" xlink:href="#linearGradient3960" id="linearGradient3320" gradientUnits="userSpaceOnUse" gradientTransform="translate(-9,-23)" y1="45" x2="0" y2="42"/>
  <radialGradient inkscape:collect="always" xlink:href="#linearGradient3952" id="radialGradient3323" gradientUnits="userSpaceOnUse" gradientTransform="matrix(1,0,0,0.75,-5,-12.125)" cx="9" cy="43.5" r="2"/>
  <radialGradient inkscape:collect="always" xlink:href="#linearGradient3952" id="radialGradient3326" gradientUnits="userSpaceOnUse" gradientTransform="matrix(1,0,0,0.75,-22,-12.125)" cx="40" cy="43.5" r="2"/>
 </defs>
 <metadata id="metadata3833"/>
 <g inkscape:groupmode="layer" id="layer1" inkscape:label="Background">
  <g id="g3328" transform="translate(9.5e-7,3.9e-5)">
   <path inkscape:connector-curvature="0" id="rect3940" d="m 18,19 0,3 0.5,0 C 19.331,22 20,21.331 20,20.5 20,19.669 19.331,19 18.5,19 L 18,19 z" opacity="0.2" fill="url(#radialGradient3326)"/>
   <path inkscape:connector-curvature="0" id="rect3942" d="M 3.40625,19 C 2.6271875,19 2,19.627187 2,20.40625 l 0,0.1875 C 2,21.372813 2.6271875,22 3.40625,22 L 4,22 4,19 3.40625,19 z" opacity="0.2" fill="url(#radialGradient3323)"/>
   <path sodipodi:nodetypes="ccccc" inkscape:connector-curvature="0" id="rect3938" d="m 4,19 14,0 0,3 -14,0 z" opacity="0.2" fill="url(#linearGradient3320)"/>
  </g>
  <path d="m 3.4999609,20.500039 c 3.8955809,0 15.0000591,-0.0014 15.0000591,-0.0014 l 2.1e-5,-18.998676 c 0,0 -9.3333864,0 -15.0000801,0 0,7.000005 0,12.000008 0,19.000014 z" inkscape:connector-curvature="0" id="path4160-3" sodipodi:nodetypes="ccccsc" fill="url(#linearGradient3003)"/>
  <path d="m 3.4999609,1.4999629 c 3.8955809,0 15.0000591,0.0014 15.0000591,0.0014 l 2.1e-5,18.9986761 c 0,0 -9.3333864,0 -15.0000801,0 0,-7.000005 0,-12.0000081 0,-19.0000141 z" inkscape:connector-curvature="0" id="path4160-3-5" sodipodi:nodetypes="ccccsc" opacity="0.41" fill="none" stroke="#000000" stroke-linejoin="round"/>
  <path d="m 4,2 0,1 c 4.1579948,7.52e-5 13.292656,-7.52e-5 14,0 l 0,-1 c -0.707344,-7.52e-5 -9.8420052,7.52e-5 -14,0 z" id="path3780" inkscape:connector-curvature="0" sodipodi:nodetypes="ccccc" opacity="0.4" fill="#ffffff"/>
  <path d="M 4,2 4,20 18,20 18,2 z M 5,3 17,3 17,19 5,19 z" id="rect3796" inkscape:connector-curvature="0" sodipodi:nodetypes="cccccccccc" opacity="0.4" fill="url(#linearGradient3807)"/>
 </g>
 <g inkscape:groupmode="layer" id="layer2" inkscape:label="Symbol">
  <rect id="rect4513" width="12" height="16" x="5" y="3" opacity="0.2" fill="#a348b1"/>
  <path id="path26173" d="m 7.28906,5 0,-0.859375 L 6,4.140625 6,5 7.28906,5" inkscape:connector-curvature="0" opacity="0.2"/>
  <path id="path26177" d="m 9.78906,5 0,-0.859375 -1.28906,0 L 8.5,5 9.78906,5" inkscape:connector-curvature="0" opacity="0.2"/>
  <path id="path26179" d="m 11.03906,5 0,-0.859375 -1.28906,0 L 9.75,5 11.03906,5" inkscape:connector-curvature="0" opacity="0.2"/>
  <path id="path26181" d="m 12.28906,5 0,-0.859375 -1.28906,0 L 11,5 12.28906,5" inkscape:connector-curvature="0" opacity="0.2"/>
  <path id="path26183" d="m 16.04687,5 0,-0.859375 -1.28906,0 0,0.859375 1.28906,0" inkscape:connector-curvature="0" opacity="0.2"/>
  <path id="path26203" d="m 7.28906,7 0,-0.859375 L 6,6.140625 6,7 7.28906,7" inkscape:connector-curvature="0" opacity="0.2"/>
  <path id="path26205" d="m 8.53906,7 0,-0.859375 -1.28906,0 L 7.25,7 8.53906,7" inkscape:connector-curvature="0" opacity="0.2"/>
  <path id="path26207" d="m 9.78906,7 0,-0.859375 -1.28906,0 L 8.5,7 9.78906,7" inkscape:connector-curvature="0" opacity="0.2"/>
  <path id="path26209" d="m 13.54687,7 0,-0.859375 -1.28906,0 0,0.859375 1.28906,0" inkscape:connector-curvature="0" opacity="0.2"/>
  <path id="path26211" d="m 14.79687,7 0,-0.859375 -1.28906,0 0,0.859375 1.28906,0" inkscape:connector-curvature="0" opacity="0.2"/>
  <path id="path26213" d="m 16.04687,7 0,-0.859375 -1.28906,0 0,0.859375 1.28906,0" inkscape:connector-curvature="0" opacity="0.2"/>
  <path id="path26219" d="m 7.28906,9 0,-0.859375 L 6,8.140625 6,9 7.28906,9" inkscape:connector-curvature="0" opacity="0.2"/>
  <path id="path26223" d="m 9.78906,9 0,-0.859375 -1.28906,0 L 8.5,9 9.78906,9" inkscape:connector-curvature="0" opacity="0.2"/>
  <path id="path26225" d="m 11.03906,9 0,-0.859375 -1.28906,0 L 9.75,9 11.03906,9" inkscape:connector-curvature="0" opacity="0.2"/>
  <path id="path26227" d="m 12.28906,9 0,-0.859375 -1.28906,0 L 11,9 12.28906,9" inkscape:connector-curvature="0" opacity="0.2"/>
  <path id="path26229" d="m 13.53906,9 0,-0.859375 -1.28906,0 0,0.859375 1.28906,0" inkscape:connector-curvature="0" opacity="0.2"/>
  <path id="path26231" d="m 14.78906,9 0,-0.859375 -1.28906,0 L 13.5,9 14.78906,9" inkscape:connector-curvature="0" opacity="0.2"/>
  <path id="path26241" d="m 7.28906,11 0,-0.859375 -1.28906,0 L 6,11 7.28906,11" inkscape:connector-curvature="0" opacity="0.2"/>
  <path id="path26243" d="m 8.53906,11 0,-0.859375 -1.28906,0 0,0.859375 1.28906,0" inkscape:connector-curvature="0" opacity="0.2"/>
  <path id="path26247" d="m 11.03906,11 0,-0.859375 -1.28906,0 0,0.859375 1.28906,0" inkscape:connector-curvature="0" opacity="0.2"/>
  <path id="path26249" d="m 12.28906,11 0,-0.859375 -1.28906,0 L 11,11 l 1.28906,0" inkscape:connector-curvature="0" opacity="0.2"/>
  <path id="path26251" d="m 13.53906,11 0,-0.859375 -1.28906,0 0,0.859375 1.28906,0" inkscape:connector-curvature="0" opacity="0.2"/>
  <path id="path26255" d="m 16.03906,11 0,-0.859375 -1.28906,0 0,0.859375 1.28906,0" inkscape:connector-curvature="0" opacity="0.2"/>
  <path id="path26271" d="m 7.28906,13 0,-0.859375 -1.28906,0 L 6,13 7.28906,13" inkscape:connector-curvature="0" opacity="0.2"/>
  <path id="path26273" d="m 8.53906,13 0,-0.859375 -1.28906,0 0,0.859375 1.28906,0" inkscape:connector-curvature="0" opacity="0.2"/>
  <path id="path26275" d="m 9.78906,13 0,-0.859375 -1.28906,0 L 8.5,13 9.78906,13" inkscape:connector-curvature="0" opacity="0.2"/>
  <path id="path26277" d="m 13.54687,13 0,-0.859375 -1.28906,0 0,0.859375 1.28906,0" inkscape:connector-curvature="0" opacity="0.2"/>
  <path id="path26279" d="m 14.79687,13 0,-0.859375 -1.28906,0 0,0.859375 1.28906,0" inkscape:connector-curvature="0" opacity="0.2"/>
  <path id="path26303" d="m 7.28906,15 0,-0.859375 -1.28906,0 L 6,15 7.28906,15" inkscape:connector-curvature="0" opacity="0.2"/>
  <path id="path26305" d="m 8.53906,15 0,-0.859375 -1.28906,0 0,0.859375 1.28906,0" inkscape:connector-curvature="0" opacity="0.2"/>
  <path id="path26307" d="m 9.78906,15 0,-0.859375 -1.28906,0 L 8.5,15 9.78906,15" inkscape:connector-curvature="0" opacity="0.2"/>
  <path id="path26311" d="m 14.79687,15 0,-0.859375 -1.28906,0 0,0.859375 1.28906,0" inkscape:connector-curvature="0" opacity="0.2"/>
  <path id="path26313" d="m 16.04687,15 0,-0.859375 -1.28906,0 0,0.859375 1.28906,0" inkscape:connector-curvature="0" opacity="0.2"/>
  <path id="path26335" d="m 7.28906,17 0,-0.859375 -1.28906,0 L 6,17 7.28906,17" inkscape:connector-curvature="0" opacity="0.2"/>
  <path id="path26337" d="m 8.53906,17 0,-0.859375 -1.28906,0 0,0.859375 1.28906,0" inkscape:connector-curvature="0" opacity="0.2"/>
  <path id="path26339" d="m 9.78906,17 0,-0.859375 -1.28906,0 L 8.5,17 9.78906,17" inkscape:connector-curvature="0" opacity="0.2"/>
  <path id="path26341" d="m 11.03906,17 0,-0.859375 -1.28906,0 0,0.859375 1.28906,0" inkscape:connector-curvature="0" opacity="0.2"/>
  <path inkscape:connector-curvature="0" d="m 14.79687,5 0,-0.859375 -1.28906,0 0,0.859375 1.28906,0" id="path4457" opacity="0.2"/>
  <path inkscape:connector-curvature="0" d="m 12.28906,7 0,-0.859375 -1.28906,0 L 11,7 12.28906,7" id="path4459" opacity="0.2"/>
  <path inkscape:connector-curvature="0" d="m 11.03906,13 0,-0.859375 -1.28906,0 0,0.859375 1.28906,0" id="path4461" opacity="0.2"/>
  <path inkscape:connector-curvature="0" d="m 13.54687,17 0,-0.859375 -1.28906,0 0,0.859375 1.28906,0" id="path4463" opacity="0.2"/>
  <path inkscape:connector-curvature="0" d="m 12.28906,15 0,-0.859375 -1.28906,0 L 11,15 l 1.28906,0" id="path4465" opacity="0.2"/>
  <rect id="rect4515" width="2" height="3" x="15" y="16" opacity="0.4" fill="#a348b1"/>
  <path inkscape:connector-curvature="0" d="m 7.28906,19 0,-0.859375 -1.28906,0 L 6,19 7.28906,19" id="path4638" opacity="0.2"/>
  <path inkscape:connector-curvature="0" d="m 8.53906,19 0,-0.859375 -1.28906,0 0,0.859375 1.28906,0" id="path4640" opacity="0.2"/>
  <path inkscape:connector-curvature="0" d="m 11.03906,19 0,-0.859375 -1.28906,0 0,0.859375 1.28906,0" id="path4644" opacity="0.2"/>
  <path id="path4646" d="m 13.54687,19 0,-0.859375 -1.28906,0 0,0.859375 1.28906,0" inkscape:connector-curvature="0" opacity="0.2"/>
  <path id="path4648" d="m 12.28906,19 0,-0.859375 -1.28906,0 L 11,19 l 1.28906,0" inkscape:connector-curvature="0" opacity="0.2"/>
 </g>
</svg>
