<?xml version="1.0" encoding="UTF-8" standalone="no"?>
<svg xmlns="http://www.w3.org/2000/svg" xmlns:xlink="http://www.w3.org/1999/xlink" xmlns:sodipodi="http://sodipodi.sourceforge.net/DTD/sodipodi-0.dtd" xmlns:inkscape="http://www.inkscape.org/namespaces/inkscape" width="22" height="22" version="1.1">
 <defs id="defs3497">
  <linearGradient inkscape:collect="always" id="linearGradient3949">
   <stop id="stop3951"/>
   <stop offset="1" id="stop3953" stop-opacity="0"/>
  </linearGradient>
  <clipPath id="clipPath3669">
   <path d="M 0,96 96,96 96,0 0,0 0,96 z" id="path3671"/>
  </clipPath>
  <linearGradient inkscape:collect="always" xlink:href="#linearGradient3760" id="linearGradient3852" gradientUnits="userSpaceOnUse" gradientTransform="matrix(0.92857143,0,0,-0.92857143,-148,292.57143)" y1="280" x2="0" y2="264"/>
  <linearGradient id="linearGradient3760">
   <stop id="stop3762" stop-color="#e44343"/>
   <stop offset="1" id="stop3764" stop-color="#ac0808"/>
  </linearGradient>
  <clipPath id="clipPath4307">
   <path d="m 168,265 c -3.86599,0 -7,3.13401 -7,7 0,3.86599 3.13401,7 7,7 3.866,0 7,-3.13401 7,-7 0,-3.86599 -3.134,-7 -7,-7 z m 3.3125,3.0625 1.5625,1.40625 -5.25,6.9375 -4.0625,-3.5 1.34375,-1.78125 2.375,2.0625 4.03125,-5.125 z" id="path4309"/>
  </clipPath>
  <linearGradient y2="264" x2="0" y1="280" gradientTransform="matrix(0.92857143,0,0,-0.92857143,-123,277.94643)" gradientUnits="userSpaceOnUse" id="linearGradient3082" xlink:href="#linearGradient3760" inkscape:collect="always"/>
  <linearGradient inkscape:collect="always" xlink:href="#linearGradient3760" id="linearGradient3802" y1="0" x2="0" y2="22" gradientUnits="userSpaceOnUse"/>
  <radialGradient inkscape:collect="always" xlink:href="#linearGradient3949" id="radialGradient3955" cx="11" cy="20" r="9" gradientTransform="matrix(1,0,0,0.22222222,0,15.555556)" gradientUnits="userSpaceOnUse"/>
 </defs>
 <metadata id="metadata3500"/>
 <g id="layer1" inkscape:label="Background" inkscape:groupmode="layer" transform="translate(0,-26)">
  <g id="g4507">
   <path d="m 20,20 c 0,1.104569 -4.029437,2 -9,2 -4.9705627,0 -9,-0.895431 -9,-2 0,-1.104569 4.0294373,-2 9,-2 4.970563,0 9,0.895431 9,2 z" sodipodi:ry="2" sodipodi:rx="9" sodipodi:cy="20" sodipodi:cx="11" id="path3163" sodipodi:type="arc" transform="matrix(1,0,0,1.5,0,15)" opacity="0.4" fill="url(#radialGradient3955)"/>
   <path transform="matrix(0.66666667,0,0,1,3.6666666,26)" sodipodi:type="arc" id="path3995" sodipodi:cx="11" sodipodi:cy="20" sodipodi:rx="9" sodipodi:ry="2" d="m 20,20 c 0,1.104569 -4.029437,2 -9,2 -4.9705627,0 -9,-0.895431 -9,-2 0,-1.104569 4.0294373,-2 9,-2 4.970563,0 9,0.895431 9,2 z" opacity="0.8" fill="url(#radialGradient3955)"/>
  </g>
  <path d="M 11 1.5 C 5.7592172 1.5 1.5 5.759217 1.5 11 C 1.5 16.240782 5.7592171 20.5 11 20.5 C 16.240783 20.5 20.5 16.240782 20.5 11 C 20.5 5.759217 16.240783 1.5 11 1.5 z " id="path4791" transform="translate(0,26)" fill="url(#linearGradient3802)" fill-rule="evenodd"/>
  <path id="path3804" d="M 11 1.5 C 5.7592172 1.5 1.5 5.759217 1.5 11 C 1.5 16.240782 5.7592171 20.5 11 20.5 C 16.240783 20.5 20.5 16.240782 20.5 11 C 20.5 5.759217 16.240783 1.5 11 1.5 z " transform="translate(0,26)" opacity="0.81" fill="none" fill-rule="evenodd" stroke="#790000"/>
  <path d="M 11 2 C 6.0301193 2 2 6.030119 2 11 C 2 11.171541 2.0217745 11.330826 2.03125 11.5 C 2.2963002 6.7678487 6.2016599 3 11 3 C 15.79834 3 19.7037 6.7678487 19.96875 11.5 C 19.978226 11.330826 20 11.171541 20 11 C 20 6.030119 15.969881 2 11 2 z " transform="translate(0,26)" id="path3806" opacity="0.2" fill="#ffffff" fill-rule="evenodd"/>
  <path id="path3820" d="M 11,47 C 6.0301193,47 2,42.969881 2,38 2,37.828459 2.021774,37.669174 2.03125,37.5 2.2963002,42.232151 6.2016599,46 11,46 15.79834,46 19.7037,42.232151 19.96875,37.5 19.97825,37.669174 20,37.828459 20,38 c 0,4.969881 -4.030119,9 -9,9 z" inkscape:connector-curvature="0" opacity="0.2" fill-rule="evenodd"/>
 </g>
 <g inkscape:groupmode="layer" id="layer2" inkscape:label="Symbol">
  <path sodipodi:nodetypes="cscccscscccscscccscscccsc" inkscape:connector-curvature="0" id="path3830" d="M 7,6 7,7 C 7,7.27614 7.10029,7.53778 7.28125,7.71875 L 9.5625,10 7.28125,12.28125 C 7.10029,12.46222 7,12.723859 7,13 l 0,1 1,0 c 0.27614,0 0.53779,-0.10028 0.71875,-0.28125 L 11,11.4375 13.28125,13.71875 C 13.46221,13.89972 13.727796,13.953526 14,14 l 1,0 0,-1 c 0,-0.27614 -0.10029,-0.53778 -0.28125,-0.71875 L 12.4375,10 14.71875,7.71875 C 14.89971,7.53778 15,7.2761398 15,7 L 15,6 14,6 C 13.72386,6 13.46221,6.10028 13.28125,6.28125 L 11,8.5625 8.71875,6.28125 C 8.53779,6.10028 8.2761437,6 8,6 z" opacity="0.3" color="#000000" stroke-width="2"/>
  <path d="M 7,7 7,8 C 7,8.27614 7.10029,8.53778 7.28125,8.71875 L 9.5625,11 7.28125,13.28125 C 7.10029,13.46222 7,13.723859 7,14 l 0,1 1,0 c 0.27614,0 0.53779,-0.10028 0.71875,-0.28125 L 11,12.4375 13.28125,14.71875 C 13.46221,14.89972 13.727796,14.953526 14,15 l 1,0 0,-1 c 0,-0.27614 -0.10029,-0.53778 -0.28125,-0.71875 L 12.4375,11 14.71875,8.71875 C 14.89971,8.53778 15,8.2761398 15,8 L 15,7 14,7 C 13.72386,7 13.46221,7.10028 13.28125,7.28125 L 11,9.5625 8.71875,7.28125 C 8.53779,7.10028 8.2761437,7 8,7 z" id="path5757" inkscape:connector-curvature="0" sodipodi:nodetypes="cscccscscccscscccscscccsc" fill="#ffffff" color="#000000" stroke-width="2"/>
 </g>
</svg>
