<?xml version="1.0" encoding="UTF-8" standalone="no"?>
<!-- Created with Inkscape (http://www.inkscape.org/) -->

<svg
   xmlns:dc="http://purl.org/dc/elements/1.1/"
   xmlns:cc="http://creativecommons.org/ns#"
   xmlns:rdf="http://www.w3.org/1999/02/22-rdf-syntax-ns#"
   xmlns:svg="http://www.w3.org/2000/svg"
   xmlns="http://www.w3.org/2000/svg"
   xmlns:xlink="http://www.w3.org/1999/xlink"
   xmlns:sodipodi="http://sodipodi.sourceforge.net/DTD/sodipodi-0.dtd"
   xmlns:inkscape="http://www.inkscape.org/namespaces/inkscape"
   width="22"
   height="22"
   id="svg3495"
   version="1.1"
   inkscape:version="0.48.4 r9939"
   sodipodi:docname="edit-undo.svg">
  <defs
     id="defs3497">
    <clipPath
       clipPathUnits="userSpaceOnUse"
       id="clipPath3669">
      <path
         inkscape:connector-curvature="0"
         d="M 0,96 96,96 96,0 0,0 0,96 z"
         id="path3671" />
    </clipPath>
    <linearGradient
       inkscape:collect="always"
       xlink:href="#linearGradient3821"
       id="linearGradient3827"
       x1="8"
       y1="16"
       x2="8"
       y2="0"
       gradientUnits="userSpaceOnUse" />
    <linearGradient
       id="linearGradient3821">
      <stop
         style="stop-color:#555555;stop-opacity:1;"
         offset="0"
         id="stop3823" />
      <stop
         style="stop-color:#666666;stop-opacity:1;"
         offset="1"
         id="stop3825" />
    </linearGradient>
    <linearGradient
       gradientTransform="translate(14.052433,27.326995)"
       y2="0"
       x2="8"
       y1="16"
       x1="8"
       gradientUnits="userSpaceOnUse"
       id="linearGradient3056"
       xlink:href="#linearGradient3821"
       inkscape:collect="always" />
    <linearGradient
       inkscape:collect="always"
       xlink:href="#linearGradient3821"
       id="linearGradient3793"
       x1="12"
       y1="22"
       x2="12"
       y2="-2"
       gradientUnits="userSpaceOnUse" />
  </defs>
  <sodipodi:namedview
     id="base"
     pagecolor="#ffffff"
     bordercolor="#666666"
     borderopacity="1.0"
     inkscape:pageopacity="0.0"
     inkscape:pageshadow="2"
     inkscape:zoom="1"
     inkscape:cx="17.473964"
     inkscape:cy="16.819655"
     inkscape:current-layer="layer1"
     showgrid="false"
     inkscape:grid-bbox="true"
     inkscape:document-units="px"
     inkscape:window-width="1364"
     inkscape:window-height="700"
     inkscape:window-x="0"
     inkscape:window-y="28"
     inkscape:window-maximized="1"
     inkscape:snap-bbox="true"
     inkscape:bbox-paths="true"
     inkscape:bbox-nodes="true"
     inkscape:snap-bbox-edge-midpoints="false">
    <inkscape:grid
       type="xygrid"
       id="grid3512"
       empspacing="4"
       visible="true"
       enabled="true"
       snapvisiblegridlinesonly="true"
       dotted="false" />
  </sodipodi:namedview>
  <metadata
     id="metadata3500">
    <rdf:RDF>
      <cc:Work
         rdf:about="">
        <dc:format>image/svg+xml</dc:format>
        <dc:type
           rdf:resource="http://purl.org/dc/dcmitype/StillImage" />
        <dc:title />
      </cc:Work>
    </rdf:RDF>
  </metadata>
  <g
     id="layer1"
     inkscape:label="Background"
     inkscape:groupmode="layer"
     transform="translate(0,-26)">
    <path
       style="font-size:medium;font-style:normal;font-variant:normal;font-weight:normal;font-stretch:normal;text-indent:0;text-align:start;text-decoration:none;line-height:normal;letter-spacing:normal;word-spacing:normal;text-transform:none;direction:ltr;block-progression:tb;writing-mode:lr-tb;text-anchor:start;baseline-shift:baseline;color:#bebebe;fill:url(#linearGradient3793);fill-opacity:1;stroke:none;stroke-width:1;marker:none;visibility:visible;display:inline;overflow:visible;enable-background:accumulate;font-family:Sans;-inkscape-font-specification:Sans"
       d="M 8.53125 1.53125 L 7.78125 1.96875 L 1.75 5.5625 L 1.03125 6 L 1.75 6.4375 L 7.78125 10.0625 L 8.53125 10.5 L 8.53125 9.625 L 8.53125 7.5 L 13.03125 7.5 C 15.546404 7.5 17.53125 9.484846 17.53125 12 C 17.53125 14.515154 15.546404 16.5 13.03125 16.5 L 6.03125 16.5 L 5.53125 16.5 L 5.53125 17 L 5.53125 19 L 5.53125 19.5 L 6.03125 19.5 L 13.03125 19.5 C 17.159807 19.5 20.53125 16.128557 20.53125 12 C 20.53125 7.871443 17.159807 4.5 13.03125 4.5 L 8.53125 4.5 L 8.53125 2.40625 L 8.53125 1.53125 z "
       id="path2987"
       transform="translate(0,26)" />
    <path
       style="font-style:normal;font-variant:normal;font-weight:normal;font-stretch:normal;text-indent:0;text-align:start;text-decoration:none;line-height:normal;letter-spacing:normal;word-spacing:normal;text-transform:none;direction:ltr;block-progression:tb;writing-mode:lr-tb;text-anchor:start;baseline-shift:baseline;color:#bebebe;fill:#ffffff;fill-opacity:1;stroke:none;stroke-width:2;marker:none;visibility:visible;display:inline;overflow:visible;enable-background:accumulate;font-family:Sans;-inkscape-font-specification:Sans;opacity:0.2"
       d="M 8.03125 2.40625 L 2 6 L 2.84375 6.5 L 8.03125 3.40625 L 8.03125 2.40625 z M 8.03125 5 L 8.03125 5.5 L 8.03125 6 L 8.53125 6 L 13.03125 6 C 16.720337 6 19.742765 8.8747336 20 12.5 C 20.011703 12.335073 20.03125 12.16783 20.03125 12 C 20.03125 8.143083 16.888167 5 13.03125 5 L 8.53125 5 L 8.03125 5 z M 18 12.5 C 17.74604 15.035334 15.638534 17 13.03125 17 L 6.03125 17 L 6.03125 18 L 13.03125 18 C 15.812353 18 18.03125 15.781103 18.03125 13 C 18.03125 12.826181 18.016931 12.669022 18 12.5 z "
       transform="translate(0,26)"
       id="path4400" />
    <path
       id="path3764"
       d="M 8.53125 1.53125 L 7.78125 1.96875 L 1.75 5.5625 L 1.03125 6 L 1.75 6.4375 L 7.78125 10.0625 L 8.53125 10.5 L 8.53125 9.625 L 8.53125 7.5 L 13.03125 7.5 C 15.546404 7.5 17.53125 9.484846 17.53125 12 C 17.53125 14.515154 15.546404 16.5 13.03125 16.5 L 6.03125 16.5 L 5.53125 16.5 L 5.53125 17 L 5.53125 19 L 5.53125 19.5 L 6.03125 19.5 L 13.03125 19.5 C 17.159807 19.5 20.53125 16.128557 20.53125 12 C 20.53125 7.871443 17.159807 4.5 13.03125 4.5 L 8.53125 4.5 L 8.53125 2.40625 L 8.53125 1.53125 z "
       style="font-size:medium;font-style:normal;font-variant:normal;font-weight:normal;font-stretch:normal;text-indent:0;text-align:start;text-decoration:none;line-height:normal;letter-spacing:normal;word-spacing:normal;text-transform:none;direction:ltr;block-progression:tb;writing-mode:lr-tb;text-anchor:start;baseline-shift:baseline;color:#bebebe;fill:none;fill-opacity:1;stroke:#000000;stroke-width:1;marker:none;visibility:visible;display:inline;overflow:visible;enable-background:accumulate;font-family:Sans;-inkscape-font-specification:Sans;stroke-opacity:1;opacity:0.61"
       transform="translate(0,26)" />
  </g>
</svg>
