<?xml version="1.0" encoding="UTF-8" standalone="no"?>
<svg xmlns="http://www.w3.org/2000/svg" xmlns:xlink="http://www.w3.org/1999/xlink" xmlns:sodipodi="http://sodipodi.sourceforge.net/DTD/sodipodi-0.dtd" xmlns:inkscape="http://www.inkscape.org/namespaces/inkscape" width="22" height="22" version="1.1">
 <defs id="defs3497">
  <clipPath id="clipPath3669">
   <path d="M 0,96 96,96 96,0 0,0 0,96 z" id="path3671"/>
  </clipPath>
  <linearGradient inkscape:collect="always" xlink:href="#linearGradient3760" id="linearGradient3852" gradientUnits="userSpaceOnUse" gradientTransform="matrix(0.92857143,0,0,-0.92857143,-148,292.57143)" y1="280" x2="0" y2="264"/>
  <linearGradient id="linearGradient3760">
   <stop id="stop3762" stop-color="#e44343"/>
   <stop offset="1" id="stop3764" stop-color="#ac0808"/>
  </linearGradient>
  <clipPath id="clipPath4307">
   <path d="m 168,265 c -3.86599,0 -7,3.13401 -7,7 0,3.86599 3.13401,7 7,7 3.866,0 7,-3.13401 7,-7 0,-3.86599 -3.134,-7 -7,-7 z m 3.3125,3.0625 1.5625,1.40625 -5.25,6.9375 -4.0625,-3.5 1.34375,-1.78125 2.375,2.0625 4.03125,-5.125 z" id="path4309"/>
  </clipPath>
  <clipPath id="clipPath11923">
   <path id="path11925" d="m 433,90 0,5 0,5 0,8 c 0,0 0,2 2,2 l 18,0 c 0,0 2,0 2,-2 l 0,-8 0,-5 0,-2 -8.25,0 C 444,93 444,90 441,90 l -8,0 z"/>
  </clipPath>
  <linearGradient inkscape:collect="always" xlink:href="#linearGradient4968" id="linearGradient5279" gradientUnits="userSpaceOnUse" gradientTransform="matrix(0.38091417,0,0,0.38091417,-116.93905,-61.847007)" y1="230.62" x2="0" y2="288.38"/>
  <linearGradient id="linearGradient4968">
   <stop id="stop4970" stop-color="#f1e6f4"/>
   <stop offset="1" id="stop4972" stop-color="#c9bcce"/>
  </linearGradient>
  <linearGradient inkscape:collect="always" xlink:href="#linearGradient11359" id="linearGradient5282" gradientUnits="userSpaceOnUse" gradientTransform="translate(-433,-60)" y1="87" x2="0" y2="97"/>
  <linearGradient id="linearGradient11359">
   <stop id="stop11361" stop-color="#d5cbd7"/>
   <stop offset="1" id="stop11363" stop-color="#d9bfdf"/>
  </linearGradient>
  <linearGradient id="linearGradient6557">
   <stop id="stop6559" stop-color="#fce94f"/>
   <stop id="stop6565" offset="0.673" stop-color="#fce94f"/>
   <stop offset="1" id="stop6561" stop-color="#fce94f" stop-opacity="0"/>
  </linearGradient>
  <radialGradient inkscape:collect="always" xlink:href="#linearGradient6620" id="radialGradient6611" cx="316.09" cy="785.16" r="5.5" gradientTransform="matrix(2.2045703,0,0,1.7886049,-381.74752,-619.00808)" gradientUnits="userSpaceOnUse"/>
  <linearGradient id="linearGradient6620">
   <stop id="stop6622" stop-color="#ffffff"/>
   <stop offset="0.33" id="stop6624" stop-color="#ffffff"/>
   <stop id="stop6626" offset="1" stop-color="#fce94f"/>
  </linearGradient>
  <radialGradient inkscape:collect="always" xlink:href="#linearGradient6633" id="radialGradient6639" gradientUnits="userSpaceOnUse" gradientTransform="matrix(4.6360798,-0.00278316,0,3.8683345,-1120.2848,-2374.9385)" cx="309.37" cy="816.91" r="5.219"/>
  <linearGradient id="linearGradient6633" inkscape:collect="always">
   <stop id="stop6635" stop-color="#edd400"/>
   <stop id="stop6637" offset="1" stop-color="#c4a000"/>
  </linearGradient>
  <radialGradient inkscape:collect="always" xlink:href="#linearGradient6620" id="radialGradient3911" gradientUnits="userSpaceOnUse" gradientTransform="matrix(2.1730275,0,0,1.9594181,-673.25706,-1533.7899)" cx="316.09" cy="785.16" r="5.5"/>
  <radialGradient inkscape:collect="always" xlink:href="#linearGradient6633" id="radialGradient3913" gradientUnits="userSpaceOnUse" gradientTransform="matrix(4.5697471,-0.00304895,0,4.2377637,-1401.2274,-3457.4131)" cx="309.37" cy="816.91" r="5.219"/>
  <radialGradient inkscape:collect="always" xlink:href="#linearGradient6557" id="radialGradient3916" gradientUnits="userSpaceOnUse" cx="311.47" cy="828.53" r="3.281"/>
  <radialGradient inkscape:collect="always" xlink:href="#linearGradient6620" id="radialGradient3976" gradientUnits="userSpaceOnUse" gradientTransform="matrix(2.1730275,0,0,1.9594181,-672.25706,-1534.7899)" cx="316.09" cy="785.16" r="5.5"/>
  <radialGradient inkscape:collect="always" xlink:href="#linearGradient6633" id="radialGradient3978" gradientUnits="userSpaceOnUse" gradientTransform="matrix(4.5697471,-0.00304895,0,4.2377637,-1400.2274,-3458.4131)" cx="309.37" cy="816.91" r="5.219"/>
 </defs>
 <metadata id="metadata3500"/>
 <g id="layer1" inkscape:label="Background" inkscape:groupmode="layer" transform="translate(0,-26)">
  <path inkscape:connector-curvature="0" d="m 1.5,28.49972 0,9 19,0 0,-6 -6.75,0 c -1.55682,0 -2.44251,-0.911477 -3.15625,-1.65625 C 9.88001,29.098697 9.33333,28.49972 8,28.49972 z" id="path11573" sodipodi:nodetypes="ccccsssc" color="#000000" stroke-width="2" fill="url(#linearGradient5282)"/>
  <path inkscape:connector-curvature="0" d="m 1.5,33.49972 0,10.50014 c 0,0 -0.003,0.40051 0.1875,0.78125 0.19037,0.38074 0.47917,0.71875 1.3125,0.71875 l 16,0 c 0,0 0.40051,0.003 0.78125,-0.1875 C 20.16199,45.12199 20.5,44.83319 20.5,43.99986 l 0,-10.50014 z" id="path11602" sodipodi:nodetypes="cccsccscc" color="#000000" stroke-width="2" fill="url(#linearGradient5279)"/>
  <path d="m 2,32.999718 18,0 0,1 -18,0 z" id="rect11946" inkscape:connector-curvature="0" sodipodi:nodetypes="ccccc" opacity="0.41" color="#000000"/>
  <path d="m 1.5,28.5 0,5 0,4 0,6.50014 c 0,0 -0.003,0.40051 0.1875,0.78125 0.19037,0.38074 0.47917,0.71875 1.3125,0.71875 l 16,0 c 0,0 0.40051,0.003 0.78125,-0.1875 C 20.16199,45.12227 20.5,44.83347 20.5,44.00014 l 0,-6.50014 0,-4 0,-2 -6.75,0 c -1.55682,0 -2.44251,-0.911477 -3.15625,-1.65625 C 9.88001,29.098977 9.33333,28.5 8,28.5 z" id="path3970" inkscape:connector-curvature="0" sodipodi:nodetypes="cccccsccscccsssc" opacity="0.41" color="#000000" fill="none" stroke="#000000"/>
 </g>
 <g inkscape:groupmode="layer" id="layer2" inkscape:label="Symbol">
  <path transform="matrix(2.1333337,0,0,1.9809524,-648.46677,-1634.7809)" d="m 314.75,828.53125 a 3.28125,3.28125 0 1 1 -6.5625,0 3.28125,3.28125 0 1 1 6.5625,0 z" sodipodi:ry="3.28125" sodipodi:rx="3.28125" sodipodi:cy="828.53125" sodipodi:cx="311.46875" id="path5780" sodipodi:type="arc" fill="url(#radialGradient3916)" fill-rule="evenodd"/>
  <path d="M 16.545283,0.6346332 C 15.957653,0.3597721 15.257713,0.6061502 14.973025,1.188146 L 14.052891,3.3557807 12.027432,3.619413 c -0.443965,0.069126 -0.810897,0.3821763 -0.948243,0.809082 -0.137377,0.4269057 -0.02168,0.8946189 0.298959,1.2087208 l 1.419375,1.4119253 -0.367692,1.9744979 c -0.09463,0.44908 0.07896,0.912322 0.445583,1.189352 0.366618,0.277008 0.860509,0.318056 1.268033,0.105383 l 1.850134,-0.931918 1.756819,0.952449 c 0.396721,0.210521 0.878528,0.179749 1.245107,-0.07953 0.366589,-0.259251 0.555259,-0.702697 0.487601,-1.14598 L 19.152142,7.1264945 20.613993,5.7029131 C 20.943224,5.3863134 21.061191,4.9092885 20.917409,4.4761821 20.773626,4.0430868 20.393553,3.7307158 19.940016,3.6728733 L 17.948701,3.3798488 17.11593,1.2181298 C 17.000781,0.9624618 16.798616,0.7557299 16.545283,0.6346442 l 0,0 0,-1.1e-5 z" id="path5784" sodipodi:nodetypes="ccccscccscccscccsccccc" inkscape:connector-curvature="0" fill="url(#radialGradient3976)" fill-rule="evenodd" stroke="url(#radialGradient3978)" stroke-linejoin="round" stroke-linecap="round" stroke-width="1.045" stroke-dashoffset="0.361"/>
 </g>
</svg>
