<?xml version="1.0" encoding="UTF-8" standalone="no"?>
<!-- Created with Inkscape (http://www.inkscape.org/) -->

<svg
   xmlns:dc="http://purl.org/dc/elements/1.1/"
   xmlns:cc="http://creativecommons.org/ns#"
   xmlns:rdf="http://www.w3.org/1999/02/22-rdf-syntax-ns#"
   xmlns:svg="http://www.w3.org/2000/svg"
   xmlns="http://www.w3.org/2000/svg"
   xmlns:xlink="http://www.w3.org/1999/xlink"
   xmlns:sodipodi="http://sodipodi.sourceforge.net/DTD/sodipodi-0.dtd"
   xmlns:inkscape="http://www.inkscape.org/namespaces/inkscape"
   width="22"
   height="22"
   id="svg3495"
   version="1.1"
   inkscape:version="0.48.4 r9939"
   sodipodi:docname="format-text-bold.svg">
  <defs
     id="defs3497">
    <clipPath
       clipPathUnits="userSpaceOnUse"
       id="clipPath3669">
      <path
         inkscape:connector-curvature="0"
         d="M 0,96 96,96 96,0 0,0 0,96 z"
         id="path3671" />
    </clipPath>
    <linearGradient
       inkscape:collect="always"
       xlink:href="#linearGradient3821"
       id="linearGradient2997"
       gradientUnits="userSpaceOnUse"
       x1="12"
       y1="22"
       x2="12"
       y2="-2"
       gradientTransform="translate(0,26)" />
    <linearGradient
       id="linearGradient3821">
      <stop
         style="stop-color:#555555;stop-opacity:1;"
         offset="0"
         id="stop3823" />
      <stop
         style="stop-color:#666666;stop-opacity:1;"
         offset="1"
         id="stop3825" />
    </linearGradient>
    <linearGradient
       y2="-2"
       x2="12"
       y1="22"
       x1="12"
       gradientUnits="userSpaceOnUse"
       id="linearGradient3986"
       xlink:href="#linearGradient3821"
       inkscape:collect="always"
       gradientTransform="translate(20.051118,39.199301)" />
    <linearGradient
       inkscape:collect="always"
       xlink:href="#linearGradient3821"
       id="linearGradient3791"
       x1="12"
       y1="22"
       x2="12"
       y2="0"
       gradientUnits="userSpaceOnUse" />
    <linearGradient
       inkscape:collect="always"
       xlink:href="#linearGradient3821"
       id="linearGradient3801"
       gradientUnits="userSpaceOnUse"
       x1="12"
       y1="22"
       x2="12"
       y2="0" />
    <linearGradient
       inkscape:collect="always"
       id="linearGradient3952">
      <stop
         style="stop-color:#000000;stop-opacity:1;"
         offset="0"
         id="stop3954" />
      <stop
         style="stop-color:#000000;stop-opacity:0;"
         offset="1"
         id="stop3956" />
    </linearGradient>
    <linearGradient
       inkscape:collect="always"
       id="linearGradient3944">
      <stop
         style="stop-color:#000000;stop-opacity:1;"
         offset="0"
         id="stop3946" />
      <stop
         style="stop-color:#000000;stop-opacity:0;"
         offset="1"
         id="stop3948" />
    </linearGradient>
    <linearGradient
       inkscape:collect="always"
       xlink:href="#linearGradient3960"
       id="linearGradient4217"
       gradientUnits="userSpaceOnUse"
       x1="25"
       y1="45"
       x2="25"
       y2="42"
       gradientTransform="translate(-4.0000003,0)" />
    <linearGradient
       id="linearGradient3960">
      <stop
         style="stop-color:#000000;stop-opacity:0;"
         offset="0"
         id="stop3962" />
      <stop
         id="stop3970"
         offset="0.5"
         style="stop-color:#000000;stop-opacity:1;" />
      <stop
         style="stop-color:#000000;stop-opacity:0;"
         offset="1"
         id="stop3964" />
    </linearGradient>
    <linearGradient
       inkscape:collect="always"
       xlink:href="#linearGradient3960"
       id="linearGradient3905"
       gradientUnits="userSpaceOnUse"
       gradientTransform="translate(-8,1.5)"
       x1="25"
       y1="45"
       x2="25"
       y2="42" />
    <radialGradient
       inkscape:collect="always"
       xlink:href="#linearGradient3944"
       id="radialGradient3908"
       gradientUnits="userSpaceOnUse"
       gradientTransform="matrix(1,0,0,0.75,-5,12.375)"
       cx="9"
       cy="43.5"
       fx="9"
       fy="43.5"
       r="2" />
    <radialGradient
       inkscape:collect="always"
       xlink:href="#linearGradient3952"
       id="radialGradient3911"
       gradientUnits="userSpaceOnUse"
       gradientTransform="matrix(1,0,0,0.75,-20,12.375)"
       cx="40"
       cy="43.5"
       fx="40"
       fy="43.5"
       r="2" />
    <radialGradient
       inkscape:collect="always"
       xlink:href="#linearGradient3944"
       id="radialGradient3918"
       gradientUnits="userSpaceOnUse"
       gradientTransform="matrix(1,0,0,0.75,-4,12.375)"
       cx="9"
       cy="43.5"
       fx="9"
       fy="43.5"
       r="2" />
    <radialGradient
       inkscape:collect="always"
       xlink:href="#linearGradient3952"
       id="radialGradient3949"
       gradientUnits="userSpaceOnUse"
       gradientTransform="matrix(1,0,0,0.75,-20,12.375)"
       cx="40"
       cy="43.5"
       fx="40"
       fy="43.5"
       r="2" />
    <linearGradient
       inkscape:collect="always"
       xlink:href="#linearGradient3960"
       id="linearGradient3951"
       gradientUnits="userSpaceOnUse"
       gradientTransform="translate(-8,1.5)"
       x1="25"
       y1="45"
       x2="25"
       y2="42" />
    <linearGradient
       inkscape:collect="always"
       xlink:href="#linearGradient3960"
       id="linearGradient3954"
       gradientUnits="userSpaceOnUse"
       gradientTransform="translate(-8,1.5)"
       x1="25"
       y1="45"
       x2="25"
       y2="42" />
    <radialGradient
       inkscape:collect="always"
       xlink:href="#linearGradient3944"
       id="radialGradient3957"
       gradientUnits="userSpaceOnUse"
       gradientTransform="matrix(1,0,0,0.75,-4,12.375)"
       cx="9"
       cy="43.5"
       fx="9"
       fy="43.5"
       r="2" />
    <radialGradient
       inkscape:collect="always"
       xlink:href="#linearGradient3952"
       id="radialGradient3960"
       gradientUnits="userSpaceOnUse"
       gradientTransform="matrix(1,0,0,0.75,-21,12.375)"
       cx="40"
       cy="43.5"
       fx="40"
       fy="43.5"
       r="2" />
  </defs>
  <sodipodi:namedview
     id="base"
     pagecolor="#ffffff"
     bordercolor="#666666"
     borderopacity="1.0"
     inkscape:pageopacity="0.0"
     inkscape:pageshadow="2"
     inkscape:zoom="8"
     inkscape:cx="15.286374"
     inkscape:cy="0.75414316"
     inkscape:current-layer="layer1"
     showgrid="false"
     showborder="false"
     inkscape:grid-bbox="true"
     inkscape:document-units="px"
     inkscape:window-width="1364"
     inkscape:window-height="700"
     inkscape:window-x="0"
     inkscape:window-y="28"
     inkscape:window-maximized="1"
     inkscape:snap-bbox="true"
     inkscape:bbox-paths="true"
     inkscape:bbox-nodes="true"
     inkscape:snap-bbox-edge-midpoints="false"
     showguides="true"
     inkscape:guide-bbox="true">
    <inkscape:grid
       type="xygrid"
       id="grid3512"
       empspacing="4"
       visible="true"
       enabled="true"
       snapvisiblegridlinesonly="true"
       dotted="false" />
  </sodipodi:namedview>
  <metadata
     id="metadata3500">
    <rdf:RDF>
      <cc:Work
         rdf:about="">
        <dc:format>image/svg+xml</dc:format>
        <dc:type
           rdf:resource="http://purl.org/dc/dcmitype/StillImage" />
        <dc:title />
      </cc:Work>
    </rdf:RDF>
  </metadata>
  <g
     id="layer1"
     inkscape:label="Layer 1"
     inkscape:groupmode="layer"
     transform="translate(0,-26)">
    <path
       style="font-style:normal;font-variant:normal;font-weight:normal;font-stretch:normal;text-indent:0;text-align:start;text-decoration:none;line-height:normal;letter-spacing:normal;word-spacing:normal;text-transform:none;direction:ltr;block-progression:tb;writing-mode:lr-tb;text-anchor:start;baseline-shift:baseline;color:#000000;fill:url(#linearGradient3791);fill-opacity:1;stroke:none;stroke-width:2;marker:none;visibility:visible;display:inline;overflow:visible;enable-background:accumulate;font-family:Sans;-inkscape-font-specification:Sans"
       d="M 4.5 2.5 L 4.5 3 L 4.5 6 L 4.5 6.5 L 5 6.5 L 6.5 6.5 L 12.5 6.5 C 12.58206 6.5 12.889728 6.633396 13.125 6.875 C 13.360272 7.116604 13.5 7.457603 13.5 7.5 L 13.5 8.5 L 9.5 8.5 L 6.5 8.5 C 4.9818686 8.5 3.6231783 9.132337 2.75 10.125 L 2.71875 10.15625 C 1.8832144 11.123303 1.4895188 12.318004 1.5 13.5 C 1.50999 14.69972 1.9615175 15.914024 2.8125 16.875 C 3.6778777 17.852232 4.9943753 18.5 6.5 18.5 L 17 18.5 L 18.5 18.5 L 18.75 18.5 L 20 18.5 L 20.5 18.5 L 20.5 18 L 20.5 16.5 L 20.5 15 L 20.5 7.5 C 20.5 4.779309 18.291232 2.5 15.5 2.5 L 12.5 2.5 L 6.5 2.5 L 5 2.5 L 4.5 2.5 z M 9.5 12.5 L 13.5 12.5 L 13.5 14.5 L 9.5 14.5 C 8.9951765 14.5 8.9571342 14.448611 8.78125 14.25 C 8.6331845 14.082802 8.502401 13.770483 8.5 13.5 C 8.4979278 13.210532 8.6330513 12.882946 8.75 12.75 C 8.9077178 12.570708 8.9580406 12.5 9.5 12.5 z "
       transform="translate(0,26)"
       id="path11643-3-1" />
    <path
       id="path3783"
       transform="translate(0,26)"
       d="M 4.5 2.5 L 4.5 3 L 4.5 6 L 4.5 6.5 L 5 6.5 L 6.5 6.5 L 12.5 6.5 C 12.58206 6.5 12.889728 6.633396 13.125 6.875 C 13.360272 7.116604 13.5 7.457603 13.5 7.5 L 13.5 8.5 L 9.5 8.5 L 6.5 8.5 C 4.9818686 8.5 3.6231783 9.132337 2.75 10.125 L 2.71875 10.15625 C 1.8832144 11.123303 1.4895188 12.318004 1.5 13.5 C 1.50999 14.69972 1.9615175 15.914024 2.8125 16.875 C 3.6778777 17.852232 4.9943753 18.5 6.5 18.5 L 17 18.5 L 18.5 18.5 L 18.75 18.5 L 20 18.5 L 20.5 18.5 L 20.5 18 L 20.5 16.5 L 20.5 15 L 20.5 7.5 C 20.5 4.779309 18.291232 2.5 15.5 2.5 L 12.5 2.5 L 6.5 2.5 L 5 2.5 L 4.5 2.5 z M 9.5 12.5 L 13.5 12.5 L 13.5 14.5 L 9.5 14.5 C 8.9951765 14.5 8.9571342 14.448611 8.78125 14.25 C 8.6331845 14.082802 8.502401 13.770483 8.5 13.5 C 8.4979278 13.210532 8.6330513 12.882946 8.75 12.75 C 8.9077178 12.570708 8.9580406 12.5 9.5 12.5 z "
       style="font-style:normal;font-variant:normal;font-weight:normal;font-stretch:normal;text-indent:0;text-align:start;text-decoration:none;line-height:normal;letter-spacing:normal;word-spacing:normal;text-transform:none;direction:ltr;block-progression:tb;writing-mode:lr-tb;text-anchor:start;baseline-shift:baseline;color:#000000;fill:none;fill-opacity:1;stroke:#000000;stroke-width:1;marker:none;visibility:visible;display:inline;overflow:visible;enable-background:accumulate;font-family:Sans;-inkscape-font-specification:Sans;stroke-opacity:1;stroke-miterlimit:4;stroke-dasharray:none;opacity:0.61" />
    <path
       style="font-style:normal;font-variant:normal;font-weight:normal;font-stretch:normal;text-indent:0;text-align:start;text-decoration:none;line-height:normal;letter-spacing:normal;word-spacing:normal;text-transform:none;direction:ltr;block-progression:tb;writing-mode:lr-tb;text-anchor:start;baseline-shift:baseline;color:#000000;fill:#ffffff;fill-opacity:1;stroke:none;stroke-width:2;marker:none;visibility:visible;display:inline;overflow:visible;enable-background:accumulate;font-family:Sans;-inkscape-font-specification:Sans;opacity:0.2"
       d="M 5 3 L 5 4 L 6.5 4 L 12.5 4 L 15.5 4 C 18.019033 4 20 6.049923 20 8.5 L 20 7.5 C 20 5.049923 18.019033 3 15.5 3 L 12.5 3 L 6.5 3 L 5 3 z M 6.5 9 C 5.1207097 9 3.8978404 9.590155 3.125 10.46875 L 3.09375 10.46875 L 3.0625 10.5 C 2.3291348 11.365571 1.99065 12.445706 2 13.5 C 2.001126 13.635226 2.0488684 13.771244 2.0625 13.90625 C 2.1635386 13.051763 2.468754 12.200782 3.0625 11.5 L 3.09375 11.46875 L 3.125 11.46875 C 3.8978404 10.590155 5.1207097 10 6.5 10 L 9.5 10 L 13.5 10 L 14 10 L 14 9.5 L 14 9 L 13.5 9 L 9.5 9 L 6.5 9 z M 8.0625 14 C 8.0205927 14.155264 7.9986707 14.314313 8 14.5 C 8.0038 14.928221 8.1501803 15.304592 8.40625 15.59375 C 8.491864 15.69043 8.6327379 15.822215 8.84375 15.90625 C 9.0547621 15.990285 9.2306223 16 9.5 16 L 13.5 16 L 14 16 L 14 15.5 L 14 15 L 13.5 15 L 9.5 15 C 9.2306223 15 9.0547621 14.990285 8.84375 14.90625 C 8.6327379 14.822215 8.491864 14.69043 8.40625 14.59375 C 8.2563739 14.424508 8.1306289 14.221905 8.0625 14 z "
       transform="translate(0,26)"
       id="path3793" />
    <g
       id="g3962">
      <path
         inkscape:connector-curvature="0"
         id="rect3940"
         d="m 19,43.5 0,3 0.5,0 c 0.831,0 1.5,-0.669 1.5,-1.5 0,-0.831 -0.669,-1.5 -1.5,-1.5 l -0.5,0 z"
         style="opacity:0.2;fill:url(#radialGradient3960);fill-opacity:1;stroke:none" />
      <path
         inkscape:connector-curvature="0"
         id="rect3942"
         d="M 4.40625,43.5 C 3.6271875,43.5 3,44.127187 3,44.90625 l 0,0.1875 C 3,45.872813 3.6271875,46.5 4.40625,46.5 L 5,46.5 l 0,-3 -0.59375,0 z"
         style="opacity:0.2;fill:url(#radialGradient3957);fill-opacity:1;stroke:none" />
      <path
         sodipodi:nodetypes="ccccc"
         inkscape:connector-curvature="0"
         id="rect3938"
         d="m 5,43.5 14,0 0,3 -14,0 z"
         style="opacity:0.2;fill:url(#linearGradient3954);fill-opacity:1;stroke:none" />
    </g>
  </g>
</svg>
