<?xml version="1.0" encoding="UTF-8" standalone="no"?>
<svg xmlns="http://www.w3.org/2000/svg" xmlns:xlink="http://www.w3.org/1999/xlink" xmlns:sodipodi="http://sodipodi.sourceforge.net/DTD/sodipodi-0.dtd" xmlns:inkscape="http://www.inkscape.org/namespaces/inkscape" width="22" height="22" version="1.1">
 <defs id="defs3497">
  <clipPath id="clipPath3669">
   <path d="M 0,96 96,96 96,0 0,0 0,96 z" id="path3671"/>
  </clipPath>
  <linearGradient inkscape:collect="always" xlink:href="#linearGradient3821" id="linearGradient3793" y1="22" x2="0" y2="-2" gradientUnits="userSpaceOnUse" gradientTransform="translate(0,26)"/>
  <linearGradient id="linearGradient3821">
   <stop id="stop3823" stop-color="#555555"/>
   <stop offset="1" id="stop3825" stop-color="#666666"/>
  </linearGradient>
  <linearGradient y2="-2" x2="0" y1="22" gradientTransform="translate(31.883514,24.756453)" gradientUnits="userSpaceOnUse" id="linearGradient3011" xlink:href="#linearGradient3821" inkscape:collect="always"/>
  <linearGradient inkscape:collect="always" xlink:href="#linearGradient3821" id="linearGradient3810" gradientUnits="userSpaceOnUse" y1="22" x2="0" y2="0"/>
  <radialGradient inkscape:collect="always" xlink:href="#linearGradient3952" id="radialGradient3960" gradientUnits="userSpaceOnUse" gradientTransform="matrix(1,0,0,0.75,-21,12.375)" cx="40" cy="43.5" r="2"/>
  <linearGradient inkscape:collect="always" id="linearGradient3952">
   <stop id="stop3954"/>
   <stop offset="1" id="stop3956" stop-opacity="0"/>
  </linearGradient>
  <radialGradient inkscape:collect="always" xlink:href="#linearGradient3952" id="radialGradient3957" gradientUnits="userSpaceOnUse" gradientTransform="matrix(1,0,0,0.75,-4,12.375)" cx="9" cy="43.5" r="2"/>
  <linearGradient inkscape:collect="always" xlink:href="#linearGradient3960" id="linearGradient3954" gradientUnits="userSpaceOnUse" gradientTransform="translate(-8,1.5)" y1="45" x2="0" y2="42"/>
  <linearGradient id="linearGradient3960">
   <stop id="stop3962" stop-opacity="0"/>
   <stop id="stop3970" offset="0.5"/>
   <stop offset="1" id="stop3964" stop-opacity="0"/>
  </linearGradient>
  <linearGradient inkscape:collect="always" xlink:href="#linearGradient3960" id="linearGradient4055" gradientUnits="userSpaceOnUse" gradientTransform="translate(-9,-1)" y1="45" x2="0" y2="42"/>
  <linearGradient inkscape:collect="always" xlink:href="#linearGradient3821" id="linearGradient3233" gradientUnits="userSpaceOnUse" y1="22" x2="0" y2="0" gradientTransform="translate(2,34)"/>
  <linearGradient inkscape:collect="always" xlink:href="#linearGradient3821" id="linearGradient3247" gradientUnits="userSpaceOnUse" y1="22" x2="0" y2="0" gradientTransform="translate(1,29)"/>
  <linearGradient inkscape:collect="always" xlink:href="#linearGradient3821" id="linearGradient3261" gradientUnits="userSpaceOnUse" y1="22" x2="0" y2="0" gradientTransform="translate(0,24)"/>
  <linearGradient inkscape:collect="always" xlink:href="#linearGradient3821" id="linearGradient3275" gradientUnits="userSpaceOnUse" y1="22" x2="0" y2="0" gradientTransform="translate(3,19)"/>
 </defs>
 <metadata id="metadata3500"/>
 <g id="layer1" inkscape:label="Layer 1" inkscape:groupmode="layer" transform="translate(0,-26)">
  <path inkscape:connector-curvature="0" d="m 3.5,42.5 0,0.5 0,2 0,0.5 0.5,0 14,0 0.5,0 0,-0.5 0,-2 0,-0.5 -0.5,0 -14,0 z" id="rect3816" sodipodi:nodetypes="ccccccccccccc" fill="url(#linearGradient3233)"/>
  <path inkscape:connector-curvature="0" id="path3833" d="m 3.5,42.5 0,0.5 0,2 0,0.5 0.5,0 14,0 0.5,0 0,-0.5 0,-2 0,-0.5 -0.5,0 -14,0 z" sodipodi:nodetypes="ccccccccccccc" opacity="0.61" fill="none" stroke="#000000"/>
  <path inkscape:connector-curvature="0" d="m 4,43 0,1 14,0 0,-1 z" id="path3835" sodipodi:nodetypes="ccccc" opacity="0.2" fill="#ffffff"/>
  <path id="path3067" d="m 2.5,37.5 0,0.5 0,2 0,0.5 0.5,0 16,0 0.5,0 0,-0.5 0,-2 0,-0.5 -0.5,0 -16,0 z" inkscape:connector-curvature="0" sodipodi:nodetypes="ccccccccccccc" fill="url(#linearGradient3247)"/>
  <path d="m 2.5,37.5 0,0.5 0,2 0,0.5 0.5,0 16,0 0.5,0 0,-0.5 0,-2 0,-0.5 -0.5,0 -16,0 z" id="path3069" inkscape:connector-curvature="0" sodipodi:nodetypes="ccccccccccccc" opacity="0.61" fill="none" stroke="#000000"/>
  <path id="path3071" d="m 3,38 0,1 16,0 0,-1 z" inkscape:connector-curvature="0" sodipodi:nodetypes="ccccc" opacity="0.2" fill="#ffffff"/>
  <path inkscape:connector-curvature="0" d="m 1.5,32.5 0,0.5 0,2 0,0.5 0.5,0 18,0 0.5,0 0,-0.5 0,-2 0,-0.5 -0.5,0 -18,0 z" id="path3091" sodipodi:nodetypes="ccccccccccccc" fill="url(#linearGradient3261)"/>
  <path inkscape:connector-curvature="0" id="path3093" d="m 1.5,32.5 0,0.5 0,2 0,0.5 0.5,0 18,0 0.5,0 0,-0.5 0,-2 0,-0.5 -0.5,0 -18,0 z" sodipodi:nodetypes="ccccccccccccc" opacity="0.61" fill="none" stroke="#000000"/>
  <path inkscape:connector-curvature="0" d="m 2,33 0,1 18,0 0,-1 z" id="path3095" sodipodi:nodetypes="ccccc" opacity="0.2" fill="#ffffff"/>
  <path id="path3115" d="m 4.5,27.5 0,0.5 0,2 0,0.5 0.5,0 12,0 0.5,0 0,-0.5 0,-2 0,-0.5 -0.5,0 -12,0 z" inkscape:connector-curvature="0" sodipodi:nodetypes="ccccccccccccc" fill="url(#linearGradient3275)"/>
  <path d="m 4.5,27.5 0,0.5 0,2 0,0.5 0.5,0 12,0 0.5,0 0,-0.5 0,-2 0,-0.5 -0.5,0 -12,0 z" id="path3117" inkscape:connector-curvature="0" sodipodi:nodetypes="ccccccccccccc" opacity="0.61" fill="none" stroke="#000000"/>
  <path id="path3119" d="m 5,28 0,1 12,0 0,-1 z" inkscape:connector-curvature="0" sodipodi:nodetypes="ccccc" opacity="0.2" fill="#ffffff"/>
 </g>
</svg>
