<?xml version="1.0" encoding="UTF-8" standalone="no"?>
<svg xmlns="http://www.w3.org/2000/svg" xmlns:xlink="http://www.w3.org/1999/xlink" xmlns:sodipodi="http://sodipodi.sourceforge.net/DTD/sodipodi-0.dtd" xmlns:inkscape="http://www.inkscape.org/namespaces/inkscape" width="22" height="22" version="1.1">
 <defs id="defs3497">
  <linearGradient id="linearGradient3821">
   <stop id="stop3823" stop-color="#555555"/>
   <stop offset="1" id="stop3825" stop-color="#666666"/>
  </linearGradient>
  <linearGradient inkscape:collect="always" xlink:href="#linearGradient3821" id="linearGradient3795" x1="22" x2="0" gradientUnits="userSpaceOnUse"/>
  <linearGradient inkscape:collect="always" xlink:href="#linearGradient3821" id="linearGradient3873" gradientUnits="userSpaceOnUse" gradientTransform="matrix(0,-0.7556794,0.7556794,0,3.021018,34.039623)" x1="-18.474" x2="10.639"/>
 </defs>
 <metadata id="metadata3500"/>
 <g id="layer1" inkscape:label="Layer 1" inkscape:groupmode="layer" transform="translate(0,-26)">
  <path d="m 11,47.5 c -1.3747896,0 -2.5,-1.12521 -2.5,-2.5 0,-1.37479 1.1252104,-2.5 2.5,-2.5 1.374789,0 2.5,1.12521 2.5,2.5 0,1.37479 -1.125211,2.5 -2.5,2.5 z m 0,-5.78125 -0.34375,-0.375 -7,-7 L 3.28125,34 l 0.375,-0.34375 1.375,-1.375 0.34375,-0.375 0.34375,0.375 3.8125,3.78125 L 9.5,27 l 0,-0.5 0.5,0 2,0 0.5,0 0,0.5 0.03125,9.0625 3.75,-3.78125 0.34375,-0.375 0.34375,0.375 1.375,1.375 0.375,0.34375 -0.375,0.34375 -7,7 L 11,41.71875 z" id="path4769" inkscape:connector-curvature="0" fill="url(#linearGradient3873)"/>
  <path id="path3857" d="m 11,47.5 c -1.3747896,0 -2.5,-1.12521 -2.5,-2.5 0,-1.37479 1.1252104,-2.5 2.5,-2.5 1.374789,0 2.5,1.12521 2.5,2.5 0,1.37479 -1.125211,2.5 -2.5,2.5 z m 0,-5.78125 -0.34375,-0.375 -7,-7 L 3.28125,34 l 0.375,-0.34375 1.375,-1.375 0.34375,-0.375 0.34375,0.375 3.8125,3.78125 L 9.5,27 l 0,-0.5 0.5,0 2,0 0.5,0 0,0.5 0.03125,9.0625 3.75,-3.78125 0.34375,-0.375 0.34375,0.375 1.375,1.375 0.375,0.34375 -0.375,0.34375 -7,7 L 11,41.71875 z" inkscape:connector-curvature="0" opacity="0.61" fill="none" stroke="#000000"/>
  <path d="M 10 1 L 10 2 L 12 2 L 12 1 L 10 1 z M 5.34375 6.625 L 4 7.96875 L 4 8 L 4 8.03125 L 4.46875 8.5 L 5.34375 7.625 L 5.375 7.625 L 5.40625 7.625 L 9.1875 11.40625 L 10.03125 12.28125 L 10.03125 11.28125 L 9.1875 10.40625 L 5.40625 6.625 L 5.375 6.625 L 5.34375 6.625 z M 16.625 6.625 L 12.875 10.40625 L 12.03125 11.28125 L 12.03125 12.28125 L 12.875 11.40625 L 16.625 7.625 L 16.65625 7.625 L 17.53125 8.5 L 18 8.03125 L 18 8 L 18 7.96875 L 16.65625 6.625 L 16.625 6.625 z M 11 17 C 9.8980303 17 9 17.89803 9 19 C 9 19.172183 9.0212986 19.340423 9.0625 19.5 C 9.2849875 18.638284 10.070213 18 11 18 C 11.929786 18 12.715012 18.638284 12.9375 19.5 C 12.978701 19.340423 13 19.172183 13 19 C 13 17.89803 12.101969 17 11 17 z " transform="translate(0,26)" id="path3875" opacity="0.2" fill="#ffffff"/>
 </g>
</svg>
