<?xml version="1.0" encoding="UTF-8" standalone="no"?>
<svg xmlns="http://www.w3.org/2000/svg" xmlns:xlink="http://www.w3.org/1999/xlink" xmlns:sodipodi="http://sodipodi.sourceforge.net/DTD/sodipodi-0.dtd" xmlns:inkscape="http://www.inkscape.org/namespaces/inkscape" width="22" height="22" version="1.1">
 <defs id="defs3497">
  <clipPath id="clipPath3669">
   <path d="M 0,96 96,96 96,0 0,0 0,96 z" id="path3671"/>
  </clipPath>
  <linearGradient inkscape:collect="always" xlink:href="#linearGradient3821" id="linearGradient3827" y1="16" x2="0" y2="0" gradientUnits="userSpaceOnUse"/>
  <linearGradient id="linearGradient3821">
   <stop id="stop3823" stop-color="#555555"/>
   <stop offset="1" id="stop3825" stop-color="#666666"/>
  </linearGradient>
  <linearGradient gradientTransform="translate(14.052433,27.326995)" y2="0" x2="0" y1="16" gradientUnits="userSpaceOnUse" id="linearGradient3056" xlink:href="#linearGradient3821" inkscape:collect="always"/>
  <linearGradient inkscape:collect="always" xlink:href="#linearGradient3821" id="linearGradient3793" y1="22" x2="0" y2="-2" gradientUnits="userSpaceOnUse" gradientTransform="translate(0,26)"/>
  <linearGradient inkscape:collect="always" xlink:href="#linearGradient3821" id="linearGradient3002" gradientUnits="userSpaceOnUse" y1="22" x2="0" y2="-2"/>
 </defs>
 <metadata id="metadata3500"/>
 <g id="layer1" inkscape:label="Background" inkscape:groupmode="layer" transform="translate(0,-26)">
  <path d="m 1.5281942,38.546875 0.4375,0.75 3.59375,6.03125 0.4375,0.71875 0.4375,-0.71875 3.6249998,-6.03125 0.4375,-0.75 -0.8749998,0 -2.125,0 0,-4.5 c 0,-2.515154 1.984846,-4.5 4.4999998,-4.5 2.515154,0 4.5,1.984846 4.5,4.5 l 0,7 0,0.5 0.5,0 2,0 0.5,0 0,-0.5 0,-7 c 0,-4.128557 -3.371443,-7.5 -7.5,-7.5 -4.1285568,0 -7.4999998,3.371443 -7.4999998,7.5 l 0,4.5 -2.09375,0 -0.875,0 z" id="path2987" inkscape:connector-curvature="0" color="#bebebe" fill="url(#linearGradient3793)"/>
  <path id="path3764" d="m 1.5281942,38.546875 0.4375,0.75 3.59375,6.03125 0.4375,0.71875 0.4375,-0.71875 3.6249998,-6.03125 0.4375,-0.75 -0.8749998,0 -2.125,0 0,-4.5 c 0,-2.515154 1.984846,-4.5 4.4999998,-4.5 2.515154,0 4.5,1.984846 4.5,4.5 l 0,7 0,0.5 0.5,0 2,0 0.5,0 0,-0.5 0,-7 c 0,-4.128557 -3.371443,-7.5 -7.5,-7.5 -4.1285568,0 -7.4999998,3.371443 -7.4999998,7.5 l 0,4.5 -2.09375,0 -0.875,0 z" inkscape:connector-curvature="0" opacity="0.61" color="#bebebe" fill="none" stroke="#000000"/>
  <path d="M 12 1.0625 C 8.1436483 1.0625 5 4.206148 5 8.0625 L 5 9.0625 C 5 5.206148 8.1436483 2.0625 12 2.0625 C 15.856352 2.0625 19 5.206148 19 9.0625 L 19 8.0625 C 19 4.206148 15.856352 1.0625 12 1.0625 z M 2.4375 13.0625 L 3.03125 14.0625 L 4.5 14.0625 L 5 14.0625 L 5 13.5625 L 5 13.0625 L 4.5 13.0625 L 2.4375 13.0625 z M 7 13.0625 L 7 13.5625 L 7 14.0625 L 7.5 14.0625 L 9 14.0625 L 9.59375 13.0625 L 7.5 13.0625 L 7 13.0625 z " transform="translate(0,26)" id="path2994" opacity="0.2" color="#bebebe" fill="#ffffff"/>
 </g>
</svg>
