<?xml version="1.0" encoding="UTF-8" standalone="no"?>
<svg xmlns="http://www.w3.org/2000/svg" xmlns:xlink="http://www.w3.org/1999/xlink" xmlns:sodipodi="http://sodipodi.sourceforge.net/DTD/sodipodi-0.dtd" xmlns:inkscape="http://www.inkscape.org/namespaces/inkscape" width="22" height="22" version="1.1">
 <defs id="defs3497">
  <linearGradient inkscape:collect="always" xlink:href="#linearGradient3821" id="linearGradient2997" gradientUnits="userSpaceOnUse" y1="22" x2="0" y2="-2" gradientTransform="translate(0,26)"/>
  <linearGradient id="linearGradient3821">
   <stop id="stop3823" stop-color="#555555"/>
   <stop offset="1" id="stop3825" stop-color="#666666"/>
  </linearGradient>
  <linearGradient inkscape:collect="always" xlink:href="#linearGradient3821" id="linearGradient3809" y1="22" x2="0" y2="0" gradientUnits="userSpaceOnUse" gradientTransform="translate(0,26)"/>
 </defs>
 <metadata id="metadata3500"/>
 <g id="layer1" inkscape:label="Layer 1" inkscape:groupmode="layer" transform="translate(0,-26)">
  <g id="g4629" transform="matrix(-0.5,0,0,-0.5,23.525647,49.021017)">
   <g transform="matrix(1.5113588,0,0,-1.5113588,23.008549,40)" id="g4767">
    <path inkscape:connector-curvature="0" id="path4769" d="m 0.05293263,-0.02781246 1.83299997,1.83399996 -7.456,7.457 17.5220004,0 -2.74e-4,2.6466255 -17.5220004,0 7.456274,7.402375 -1.83299997,1.833 -10.58699963,-10.586 z" sodipodi:nodetypes="cccccccccc" fill="#555555"/>
    <path sodipodi:nodetypes="cccccccccc" d="m 0.05293263,-0.02781246 1.83299997,1.83399996 -7.456,7.457 17.5220004,0 -2.74e-4,2.6466255 -17.5220004,0 7.456274,7.402375 -1.83299997,1.833 -10.58699963,-10.586 z" id="path3784" inkscape:connector-curvature="0" fill="#555555"/>
   </g>
  </g>
  <path d="m 11.96875,28.28125 0.375,0.375 8,8 L 20.6875,37 l -0.34375,0.34375 -8,8 -0.375,0.375 -0.34375,-0.375 -1.375,-1.375 L 9.875,43.625 10.25,43.25 15,38.53125 l -12,0 -0.5,0 0,-0.5 0,-2 0,-0.5 0.5,0 12.03125,0 L 10.25,30.75 9.875,30.375 l 0.375,-0.34375 1.375,-1.375 0.34375,-0.375 z" id="path3014" inkscape:connector-curvature="0" color="#000000" fill="url(#linearGradient3809)"/>
  <g transform="matrix(-0.5,0,0,-0.5,23.525647,49.021017)" id="g3794" fill="#ffffff">
   <g id="g3796" transform="matrix(1.5113588,0,0,-1.5113588,23.008549,40)">
    <path d="M 10,3 2,11 2.5,11.5 10,4 l 0.875,0.875 0.5,-0.5 L 10,3 z m -3.25,7.03125 -1,1 13.21875,0 0,-1 -12.21875,0 z m -1,3 5.125,5.09375 0.5,-0.5 -4.625,-4.59375 -1,0 z" transform="matrix(1.3233125,0,0,1.3233125,-13.163489,-3.9977496)" id="path3798" inkscape:connector-curvature="0" opacity="0.2"/>
   </g>
  </g>
  <path id="path3821" d="m 11.96875,28.28125 0.375,0.375 8,8 L 20.6875,37 l -0.34375,0.34375 -8,8 -0.375,0.375 -0.34375,-0.375 -1.375,-1.375 L 9.875,43.625 10.25,43.25 15,38.53125 l -12,0 -0.5,0 0,-0.5 0,-2 0,-0.5 0.5,0 12.03125,0 L 10.25,30.75 9.875,30.375 l 0.375,-0.34375 1.375,-1.375 0.34375,-0.375 z" inkscape:connector-curvature="0" opacity="0.61" color="#000000" fill="none" stroke="#000000"/>
 </g>
</svg>
