<?xml version="1.0" encoding="UTF-8" standalone="no"?>
<svg xmlns="http://www.w3.org/2000/svg" xmlns:xlink="http://www.w3.org/1999/xlink" xmlns:sodipodi="http://sodipodi.sourceforge.net/DTD/sodipodi-0.dtd" xmlns:inkscape="http://www.inkscape.org/namespaces/inkscape" width="22" height="22" version="1.1">
 <defs id="defs3497">
  <linearGradient inkscape:collect="always" xlink:href="#linearGradient3821" id="linearGradient2997" gradientUnits="userSpaceOnUse" y1="22" x2="0" y2="-2" gradientTransform="translate(0,26)"/>
  <linearGradient id="linearGradient3821">
   <stop id="stop3823" stop-color="#555555"/>
   <stop offset="1" id="stop3825" stop-color="#666666"/>
  </linearGradient>
  <linearGradient y2="-2" x2="0" y1="22" gradientUnits="userSpaceOnUse" id="linearGradient3986" xlink:href="#linearGradient3821" inkscape:collect="always" gradientTransform="translate(38.4375,28.5)"/>
  <linearGradient inkscape:collect="always" xlink:href="#linearGradient3821" id="linearGradient3809" y1="22" x2="0" y2="0" gradientUnits="userSpaceOnUse"/>
 </defs>
 <metadata id="metadata3500"/>
 <g id="layer1" inkscape:label="Layer 1" inkscape:groupmode="layer" transform="translate(0,-26)">
  <g id="g4629" transform="matrix(0.5,0,0,-0.5,-1.5568971,49.021017)">
   <g transform="matrix(1.5113588,0,0,-1.5113588,23.008549,40)" id="g4767">
    <path inkscape:connector-curvature="0" id="path4769" d="m 0.05293263,-0.02781246 1.83299997,1.83399996 -7.456,7.457 17.5220004,0 -2.74e-4,2.6466255 -17.5220004,0 7.456274,7.402375 -1.83299997,1.833 -10.58699963,-10.586 z" sodipodi:nodetypes="cccccccccc" fill="#555555"/>
    <path sodipodi:nodetypes="cccccccccc" d="m 0.05293263,-0.02781246 1.83299997,1.83399996 -7.456,7.457 17.5220004,0 -2.74e-4,2.6466255 -17.5220004,0 7.456274,7.402375 -1.83299997,1.833 -10.58699963,-10.586 z" id="path3784" inkscape:connector-curvature="0" fill="#555555"/>
   </g>
  </g>
  <path d="M 10 2.28125 L 9.625 2.65625 L 1.625 10.65625 L 1.28125 11 L 1.625 11.34375 L 9.625 19.34375 L 10 19.71875 L 10.34375 19.34375 L 11.71875 17.96875 L 12.09375 17.625 L 11.71875 17.25 L 6.96875 12.53125 L 18.96875 12.53125 L 19.46875 12.53125 L 19.46875 12.03125 L 19.46875 10.03125 L 19.46875 9.53125 L 18.96875 9.53125 L 6.9375 9.53125 L 11.71875 4.75 L 12.09375 4.375 L 11.71875 4.03125 L 10.34375 2.65625 L 10 2.28125 z " transform="translate(0,26)" id="path3014" color="#000000" fill="url(#linearGradient3809)"/>
  <g transform="matrix(0.5,0,0,-0.5,-1.5568971,49.021017)" id="g3794" fill="#ffffff">
   <g id="g3796" transform="matrix(1.5113588,0,0,-1.5113588,23.008549,40)">
    <path d="M 10 3 L 2 11 L 2.5 11.5 L 10 4 L 10.875 4.875 L 11.375 4.375 L 10 3 z M 6.75 10.03125 L 5.75 11.03125 L 18.96875 11.03125 L 18.96875 10.03125 L 6.75 10.03125 z M 5.75 13.03125 L 10.875 18.125 L 11.375 17.625 L 6.75 13.03125 L 5.75 13.03125 z " transform="matrix(1.3233125,0,0,1.3233125,-13.163489,-3.9977496)" id="path3798" opacity="0.2"/>
   </g>
  </g>
  <path id="path3821" transform="translate(0,26)" d="M 10 2.28125 L 9.625 2.65625 L 1.625 10.65625 L 1.28125 11 L 1.625 11.34375 L 9.625 19.34375 L 10 19.71875 L 10.34375 19.34375 L 11.71875 17.96875 L 12.09375 17.625 L 11.71875 17.25 L 6.96875 12.53125 L 18.96875 12.53125 L 19.46875 12.53125 L 19.46875 12.03125 L 19.46875 10.03125 L 19.46875 9.53125 L 18.96875 9.53125 L 6.9375 9.53125 L 11.71875 4.75 L 12.09375 4.375 L 11.71875 4.03125 L 10.34375 2.65625 L 10 2.28125 z " opacity="0.61" color="#000000" fill="none" stroke="#000000"/>
 </g>
</svg>
