<?xml version="1.0" encoding="UTF-8" standalone="no"?>
<!-- Created with Inkscape (http://www.inkscape.org/) -->

<svg
   xmlns:dc="http://purl.org/dc/elements/1.1/"
   xmlns:cc="http://creativecommons.org/ns#"
   xmlns:rdf="http://www.w3.org/1999/02/22-rdf-syntax-ns#"
   xmlns:svg="http://www.w3.org/2000/svg"
   xmlns="http://www.w3.org/2000/svg"
   xmlns:xlink="http://www.w3.org/1999/xlink"
   xmlns:sodipodi="http://sodipodi.sourceforge.net/DTD/sodipodi-0.dtd"
   xmlns:inkscape="http://www.inkscape.org/namespaces/inkscape"
   width="22"
   height="22"
   id="svg3495"
   version="1.1"
   inkscape:version="0.48.4 r9939"
   sodipodi:docname="go-top.svg">
  <defs
     id="defs3497">
    <linearGradient
       gradientTransform="translate(1,8)"
       inkscape:collect="always"
       xlink:href="#linearGradient3821"
       id="linearGradient3824"
       x1="12"
       y1="22"
       x2="12"
       y2="0"
       gradientUnits="userSpaceOnUse" />
    <linearGradient
       id="linearGradient3821">
      <stop
         style="stop-color:#555555;stop-opacity:1;"
         offset="0"
         id="stop3823" />
      <stop
         style="stop-color:#666666;stop-opacity:1;"
         offset="1"
         id="stop3825" />
    </linearGradient>
    <linearGradient
       inkscape:collect="always"
       xlink:href="#linearGradient3821"
       id="linearGradient3795"
       x1="22.000002"
       y1="46"
       x2="1e-06"
       y2="46"
       gradientUnits="userSpaceOnUse" />
    <linearGradient
       inkscape:collect="always"
       xlink:href="#linearGradient3821"
       id="linearGradient3807"
       gradientUnits="userSpaceOnUse"
       x1="22.000002"
       y1="46"
       x2="1e-06"
       y2="46" />
    <linearGradient
       inkscape:collect="always"
       xlink:href="#linearGradient3821"
       id="linearGradient3809"
       gradientUnits="userSpaceOnUse"
       x1="22.000002"
       y1="46"
       x2="1e-06"
       y2="46" />
    <linearGradient
       inkscape:collect="always"
       xlink:href="#linearGradient3821"
       id="linearGradient3811"
       gradientUnits="userSpaceOnUse"
       x1="22.000002"
       y1="46"
       x2="1e-06"
       y2="46" />
    <linearGradient
       inkscape:collect="always"
       xlink:href="#linearGradient3821"
       id="linearGradient3813"
       gradientUnits="userSpaceOnUse"
       x1="22.000002"
       y1="46"
       x2="1e-06"
       y2="46" />
    <linearGradient
       inkscape:collect="always"
       xlink:href="#linearGradient3821"
       id="linearGradient3819"
       gradientUnits="userSpaceOnUse"
       x1="22.000002"
       y1="46"
       x2="1e-06"
       y2="46" />
    <linearGradient
       inkscape:collect="always"
       xlink:href="#linearGradient3821"
       id="linearGradient3822"
       gradientUnits="userSpaceOnUse"
       x1="22.000002"
       y1="46"
       x2="1e-06"
       y2="46" />
    <linearGradient
       inkscape:collect="always"
       xlink:href="#linearGradient3821"
       id="linearGradient3825"
       gradientUnits="userSpaceOnUse"
       x1="22.000002"
       y1="46"
       x2="1e-06"
       y2="46" />
    <linearGradient
       inkscape:collect="always"
       xlink:href="#linearGradient3821"
       id="linearGradient3829"
       gradientUnits="userSpaceOnUse"
       x1="22.000002"
       y1="46"
       x2="1e-06"
       y2="46" />
    <linearGradient
       inkscape:collect="always"
       xlink:href="#linearGradient3821"
       id="linearGradient3831"
       gradientUnits="userSpaceOnUse"
       x1="22.000002"
       y1="46"
       x2="1e-06"
       y2="46" />
    <linearGradient
       inkscape:collect="always"
       xlink:href="#linearGradient3821"
       id="linearGradient3834"
       gradientUnits="userSpaceOnUse"
       x1="22.000002"
       y1="46"
       x2="1e-06"
       y2="46"
       gradientTransform="matrix(0,0.7556794,0.7556794,0,3.021018,13.960377)" />
    <linearGradient
       inkscape:collect="always"
       xlink:href="#linearGradient3821"
       id="linearGradient3837"
       gradientUnits="userSpaceOnUse"
       gradientTransform="matrix(0,0.7556794,0.7556794,0,3.021018,13.960377)"
       x1="10.638933"
       y1="22.4685"
       x2="-18.473942"
       y2="22.4685" />
    <linearGradient
       inkscape:collect="always"
       xlink:href="#linearGradient3821"
       id="linearGradient3854"
       gradientUnits="userSpaceOnUse"
       gradientTransform="matrix(0,0.7556794,0.7556794,0,3.021018,13.960377)"
       x1="10.638933"
       y1="22.4685"
       x2="-18.473942"
       y2="22.4685" />
    <linearGradient
       inkscape:collect="always"
       xlink:href="#linearGradient3821"
       id="linearGradient3867"
       gradientUnits="userSpaceOnUse"
       gradientTransform="matrix(0,0.7556794,0.7556794,0,3.021018,13.960377)"
       x1="10.638933"
       y1="22.4685"
       x2="-18.473942"
       y2="22.4685" />
  </defs>
  <sodipodi:namedview
     id="base"
     pagecolor="#ffffff"
     bordercolor="#666666"
     borderopacity="1.0"
     inkscape:pageopacity="0.0"
     inkscape:pageshadow="2"
     inkscape:zoom="1"
     inkscape:cx="11"
     inkscape:cy="11"
     inkscape:current-layer="layer1"
     showgrid="false"
     showborder="false"
     inkscape:grid-bbox="true"
     inkscape:document-units="px"
     inkscape:window-width="1364"
     inkscape:window-height="700"
     inkscape:window-x="0"
     inkscape:window-y="28"
     inkscape:window-maximized="1"
     inkscape:snap-bbox="true"
     inkscape:bbox-paths="true"
     inkscape:bbox-nodes="true"
     inkscape:snap-bbox-edge-midpoints="false">
    <inkscape:grid
       type="xygrid"
       id="grid3512"
       empspacing="4"
       visible="true"
       enabled="true"
       snapvisiblegridlinesonly="true"
       dotted="false" />
  </sodipodi:namedview>
  <metadata
     id="metadata3500">
    <rdf:RDF>
      <cc:Work
         rdf:about="">
        <dc:format>image/svg+xml</dc:format>
        <dc:type
           rdf:resource="http://purl.org/dc/dcmitype/StillImage" />
        <dc:title />
      </cc:Work>
    </rdf:RDF>
  </metadata>
  <g
     id="layer1"
     inkscape:label="Layer 1"
     inkscape:groupmode="layer"
     transform="translate(0,-26)">
    <path
       style="fill:url(#linearGradient3854);fill-opacity:1;fill-rule:nonzero;stroke:none"
       d="M 11 0.5 C 9.6252104 0.5 8.5 1.62521 8.5 3 C 8.5 4.37479 9.6252104 5.5 11 5.5 C 12.374789 5.5 13.5 4.37479 13.5 3 C 13.5 1.62521 12.374789 0.5 11 0.5 z M 11 6.28125 L 10.65625 6.65625 L 3.65625 13.65625 L 3.28125 14 L 3.65625 14.34375 L 5.03125 15.71875 L 5.375 16.09375 L 5.71875 15.71875 L 9.53125 11.9375 L 9.5 21 L 9.5 21.5 L 10 21.5 L 12 21.5 L 12.5 21.5 L 12.5 21 L 12.53125 11.9375 L 16.28125 15.71875 L 16.625 16.09375 L 16.96875 15.71875 L 18.34375 14.34375 L 18.71875 14 L 18.34375 13.65625 L 11.34375 6.65625 L 11 6.28125 z "
       transform="translate(0,26)"
       id="path4769" />
    <path
       id="path3857"
       transform="translate(0,26)"
       d="M 11 0.5 C 9.6252104 0.5 8.5 1.62521 8.5 3 C 8.5 4.37479 9.6252104 5.5 11 5.5 C 12.374789 5.5 13.5 4.37479 13.5 3 C 13.5 1.62521 12.374789 0.5 11 0.5 z M 11 6.28125 L 10.65625 6.65625 L 3.65625 13.65625 L 3.28125 14 L 3.65625 14.34375 L 5.03125 15.71875 L 5.375 16.09375 L 5.71875 15.71875 L 9.53125 11.9375 L 9.5 21 L 9.5 21.5 L 10 21.5 L 12 21.5 L 12.5 21.5 L 12.5 21 L 12.53125 11.9375 L 16.28125 15.71875 L 16.625 16.09375 L 16.96875 15.71875 L 18.34375 14.34375 L 18.71875 14 L 18.34375 13.65625 L 11.34375 6.65625 L 11 6.28125 z "
       style="fill:none;fill-opacity:1;fill-rule:nonzero;stroke:#000000;stroke-opacity:1;opacity:0.61" />
    <path
       style="fill:#ffffff;fill-opacity:1;fill-rule:nonzero;stroke:none;opacity:0.2"
       d="M 11 1 C 9.8980303 1 9 1.89803 9 3 C 9 3.1721828 9.0212986 3.3404229 9.0625 3.5 C 9.2849875 2.6382839 10.070213 2 11 2 C 11.929786 2 12.715012 2.6382839 12.9375 3.5 C 12.978701 3.3404229 13 3.1721828 13 3 C 13 1.89803 12.101969 1 11 1 z M 10.96875 7 L 4 13.96875 L 4 14 L 4 14.03125 L 4.46875 14.5 L 10.96875 8 L 11 8 L 11.03125 8 L 17.53125 14.5 L 18 14.03125 L 18 14 L 18 13.96875 L 11.03125 7 L 11 7 L 10.96875 7 z "
       transform="translate(0,26)"
       id="path3859" />
  </g>
</svg>
