<?xml version="1.0" encoding="UTF-8" standalone="no"?>
<svg xmlns="http://www.w3.org/2000/svg" xmlns:xlink="http://www.w3.org/1999/xlink" xmlns:sodipodi="http://sodipodi.sourceforge.net/DTD/sodipodi-0.dtd" xmlns:inkscape="http://www.inkscape.org/namespaces/inkscape" width="22" height="22" version="1.1">
 <defs id="defs3497">
  <linearGradient inkscape:collect="always" id="linearGradient3884">
   <stop id="stop3886" stop-color="#ffffff"/>
   <stop offset="1" id="stop3888" stop-color="#ffffff" stop-opacity="0"/>
  </linearGradient>
  <linearGradient id="linearGradient3779">
   <stop id="stop3781" stop-color="#f6b8b9"/>
   <stop id="stop3801" offset="0.421" stop-color="#e38f90"/>
   <stop offset="0.841" id="stop3878" stop-color="#ec3b3f"/>
   <stop offset="1" id="stop3783" stop-color="#800002"/>
  </linearGradient>
  <clipPath id="clipPath3669">
   <path d="M 0,96 96,96 96,0 0,0 0,96 z" id="path3671"/>
  </clipPath>
  <linearGradient inkscape:collect="always" xlink:href="#linearGradient3760" id="linearGradient3852" gradientUnits="userSpaceOnUse" gradientTransform="matrix(0.92857143,0,0,-0.92857143,-148,292.57143)" y1="280" x2="0" y2="264"/>
  <linearGradient id="linearGradient3760">
   <stop id="stop3762" stop-color="#e44343"/>
   <stop offset="1" id="stop3764" stop-color="#ac0808"/>
  </linearGradient>
  <clipPath id="clipPath4307">
   <path d="m 168,265 c -3.86599,0 -7,3.13401 -7,7 0,3.86599 3.13401,7 7,7 3.866,0 7,-3.13401 7,-7 0,-3.86599 -3.134,-7 -7,-7 z m 3.3125,3.0625 1.5625,1.40625 -5.25,6.9375 -4.0625,-3.5 1.34375,-1.78125 2.375,2.0625 4.03125,-5.125 z" id="path4309"/>
  </clipPath>
  <linearGradient y2="264" x2="0" y1="280" gradientTransform="matrix(0.92857143,0,0,-0.92857143,-123,277.94643)" gradientUnits="userSpaceOnUse" id="linearGradient3082" xlink:href="#linearGradient3760" inkscape:collect="always"/>
  <linearGradient inkscape:collect="always" xlink:href="#outerBackgroundGradient-0" id="linearGradient3802" y1="0" x2="0" y2="22" gradientUnits="userSpaceOnUse" gradientTransform="matrix(1,0,0,-1,0,48)"/>
  <linearGradient inkscape:collect="always" xlink:href="#linearGradient3760" id="linearGradient3814" gradientUnits="userSpaceOnUse" y1="0" x2="0" y2="22"/>
  <linearGradient id="linearGradient3904">
   <stop id="stop3906" stop-color="#234683"/>
   <stop id="stop3908" offset="1" stop-color="#30589e"/>
  </linearGradient>
  <linearGradient inkscape:collect="always" xlink:href="#outerBackgroundGradient-0" id="linearGradient3874" gradientUnits="userSpaceOnUse" gradientTransform="matrix(0,-1,-1,0,48.000003,48.000003)" x1="4.5" x2="43.5"/>
  <linearGradient id="outerBackgroundGradient-0">
   <stop id="stop3864-8-6-3" stop-color="#414141"/>
   <stop offset="1" id="stop3866-9-1-7" stop-color="#9d9d9d"/>
  </linearGradient>
  <radialGradient inkscape:collect="always" xlink:href="#linearGradient3779" id="radialGradient3787" cx="12" cy="12" r="3" gradientUnits="userSpaceOnUse"/>
  <radialGradient inkscape:collect="always" xlink:href="#linearGradient3884" id="radialGradient3890" cx="8.5" cy="8.5" r="2.5" gradientUnits="userSpaceOnUse"/>
  <linearGradient inkscape:collect="always" xlink:href="#outerBackgroundGradient-0" id="linearGradient3030" gradientUnits="userSpaceOnUse" gradientTransform="matrix(1,0,0,-1,0,22)" y1="0" x2="0" y2="22"/>
  <radialGradient inkscape:collect="always" xlink:href="#linearGradient3779" id="radialGradient3813" gradientUnits="userSpaceOnUse" cx="12" cy="12" r="3" gradientTransform="matrix(1.5,0,0,1.5,-7,-7)"/>
  <radialGradient inkscape:collect="always" xlink:href="#linearGradient3949" id="radialGradient3993" gradientUnits="userSpaceOnUse" gradientTransform="matrix(1,0,0,0.22222222,0,15.555556)" cx="11" cy="20" r="9"/>
  <linearGradient inkscape:collect="always" id="linearGradient3949">
   <stop id="stop3951"/>
   <stop offset="1" id="stop3953" stop-opacity="0"/>
  </linearGradient>
 </defs>
 <metadata id="metadata3500"/>
 <g id="layer1" inkscape:label="Background" inkscape:groupmode="layer" transform="translate(0,-26)">
  <g id="g4507">
   <path d="m 20,20 c 0,1.104569 -4.029437,2 -9,2 -4.9705627,0 -9,-0.895431 -9,-2 0,-1.104569 4.0294373,-2 9,-2 4.970563,0 9,0.895431 9,2 z" sodipodi:ry="2" sodipodi:rx="9" sodipodi:cy="20" sodipodi:cx="11" id="path3163" sodipodi:type="arc" transform="matrix(1,0,0,1.5,0,15)" opacity="0.4" fill="url(#radialGradient3993)"/>
   <path transform="matrix(0.66666667,0,0,1,3.6666666,26)" sodipodi:type="arc" id="path3995" sodipodi:cx="11" sodipodi:cy="20" sodipodi:rx="9" sodipodi:ry="2" d="m 20,20 c 0,1.104569 -4.029437,2 -9,2 -4.9705627,0 -9,-0.895431 -9,-2 0,-1.104569 4.0294373,-2 9,-2 4.970563,0 9,0.895431 9,2 z" opacity="0.8" fill="url(#radialGradient3993)"/>
  </g>
  <path d="m 11,46.5 c -5.2407828,0 -9.5,-4.259217 -9.5,-9.5 0,-5.240782 4.2592171,-9.5 9.5,-9.5 5.240783,0 9.5,4.259218 9.5,9.5 0,5.240783 -4.259217,9.5 -9.5,9.5 z" id="path4791" inkscape:connector-curvature="0" fill="url(#linearGradient3802)" fill-rule="evenodd"/>
  <path id="path3804" d="m 1.5,37 c 0,5.240783 4.259217,9.5 9.5,9.5 5.240782,0 9.5,-4.259217 9.5,-9.5 0,-5.240783 -4.259218,-9.5 -9.5,-9.5 -5.240783,0 -9.5,4.259217 -9.5,9.5 z" inkscape:connector-curvature="0" opacity="0.41" fill="none" stroke="#000000"/>
  <path d="M 11 2 C 6.0301191 2 2 6.030119 2 11 C 2 11.171541 2.0217745 11.330826 2.03125 11.5 C 2.2963002 6.7678487 6.2016597 3 11 3 C 15.798339 3 19.7037 6.7678487 19.96875 11.5 C 19.978226 11.330826 20 11.171541 20 11 C 20 6.030119 15.96988 2 11 2 z " transform="translate(0,26)" id="path3022" opacity="0.4" fill="#ffffff" fill-rule="evenodd"/>
 </g>
 <g inkscape:groupmode="layer" id="layer2" inkscape:label="Symbol">
  <path sodipodi:type="arc" id="path3777" sodipodi:cx="12" sodipodi:cy="12" sodipodi:rx="3" sodipodi:ry="3" d="m 15,12 c 0,1.656854 -1.343146,3 -3,3 -1.656854,0 -3,-1.343146 -3,-3 0,-1.656854 1.343146,-3 3,-3 1.656854,0 3,1.343146 3,3 z" transform="matrix(1.5,0,0,1.5,-7,-7)" fill="url(#radialGradient3787)"/>
  <path transform="matrix(1.5,0,0,1.5,-7,-7)" d="m 15,12 c 0,1.656854 -1.343146,3 -3,3 -1.656854,0 -3,-1.343146 -3,-3 0,-1.656854 1.343146,-3 3,-3 1.656854,0 3,1.343146 3,3 z" sodipodi:ry="3" sodipodi:rx="3" sodipodi:cy="12" sodipodi:cx="12" id="path3795" sodipodi:type="arc" opacity="0.4" fill="none" stroke="#860200" stroke-width="0.667"/>
  <path d="M 10.53125,4.0625 10.40625,6.75 11.0625,6.65625 10.53125,4.0625 z M 13.375,4.78125 12.21875,6.65625 12.90625,6.875 13.375,4.78125 z M 7.5625,5.71875 8.34375,7.59375 9.125,7.125 7.5625,5.71875 z m 9.53125,0.53125 -3.1875,1.59375 0.875,1.09375 2.3125,-2.6875 z m -12.125,2.09375 1.25,0.625 0.15625,-0.5 -1.40625,-0.125 z m 10.625,1.6875 0.125,0.84375 2.59375,-0.75 -2.71875,-0.09375 z m -9.21875,1.3125 -2.125,0.5 2.15625,0 -0.03125,-0.5 z m 9.1875,1.34375 -0.15625,0.75 1.875,0.34375 L 15.5625,12.6875 z M 7.25,13.375 5.28125,15.34375 8.03125,14.1875 7.25,13.375 z m 6.75,1.0625 -0.5,0.40625 1.625,1.9375 L 14,14.4375 z M 8.75,15.125 8.28125,17.25 9.625,15.5 8.75,15.125 z M 12,15.1875 10.625,15.28125 11.53125,18.6875 12,15.1875 z" id="path3793" inkscape:connector-curvature="0" opacity="0.3"/>
  <path id="path3880" d="M 8.5239536,2.3571833 9.35604,7.3239691 10.502676,6.856607 8.5239536,2.3571833 z m 3.7881014,0.5366361 -1.357369,3.8347617 1.307148,0.1374829 0.05022,-3.9722446 z M 5.7092582,5.7988501 7.6733681,8.57618 8.7641894,7.5456152 5.7092582,5.7988501 z M 16.788726,4.1147474 12.800227,7.2947437 14.347774,8.5632096 16.788726,4.1147474 z M 3.2476341,9.5488469 6.1317172,10.341534 6.240552,9.2002158 3.2476341,9.5488469 z M 14.934306,8.9177604 15.471218,10.241302 19.514794,8.0719402 14.934306,8.9177605 z M 6.696538,11.946678 2.4852129,13.92806 6.9785787,12.972967 6.6965379,11.94668 z m 8.879816,-0.609538 -0.02629,1.379359 3.498825,-0.07279 -3.472534,-1.306571 z M 7.7477734,13.735964 5.3889258,17.36827 9.19978,14.705255 7.7477734,13.735964 z m 6.9151036,-0.383614 -0.761079,0.928529 3.675129,2.860915 -2.91405,-3.789444 z m -5.260942,1.853055 -0.02999,3.616514 1.566021,-3.304045 -1.536031,-0.312469 z m 3.663467,-0.650944 -1.923808,0.568659 2.334452,4.519656 -0.410648,-5.088314 z" inkscape:connector-curvature="0" opacity="0.2"/>
 </g>
</svg>
