<?xml version="1.0" encoding="UTF-8" standalone="no"?>
<!-- Created with Inkscape (http://www.inkscape.org/) -->

<svg
   xmlns:dc="http://purl.org/dc/elements/1.1/"
   xmlns:cc="http://creativecommons.org/ns#"
   xmlns:rdf="http://www.w3.org/1999/02/22-rdf-syntax-ns#"
   xmlns:svg="http://www.w3.org/2000/svg"
   xmlns="http://www.w3.org/2000/svg"
   xmlns:xlink="http://www.w3.org/1999/xlink"
   xmlns:sodipodi="http://sodipodi.sourceforge.net/DTD/sodipodi-0.dtd"
   xmlns:inkscape="http://www.inkscape.org/namespaces/inkscape"
   width="22"
   height="22"
   id="svg3495"
   version="1.1"
   inkscape:version="0.48.4 r9939"
   sodipodi:docname="list-add.svg">
  <defs
     id="defs3497">
    <clipPath
       clipPathUnits="userSpaceOnUse"
       id="clipPath3669">
      <path
         inkscape:connector-curvature="0"
         d="M 0,96 96,96 96,0 0,0 0,96 z"
         id="path3671" />
    </clipPath>
    <linearGradient
       inkscape:collect="always"
       xlink:href="#linearGradient3760"
       id="linearGradient3852"
       gradientUnits="userSpaceOnUse"
       gradientTransform="matrix(0.92857143,0,0,-0.92857143,-148,292.57143)"
       x1="168"
       y1="280"
       x2="168"
       y2="264" />
    <linearGradient
       id="linearGradient3760">
      <stop
         style="stop-color:#e44343;stop-opacity:1;"
         offset="0"
         id="stop3762" />
      <stop
         style="stop-color:#ac0808;stop-opacity:1;"
         offset="1"
         id="stop3764" />
    </linearGradient>
    <clipPath
       clipPathUnits="userSpaceOnUse"
       id="clipPath4307">
      <path
         d="m 168,265 c -3.86599,0 -7,3.13401 -7,7 0,3.86599 3.13401,7 7,7 3.866,0 7,-3.13401 7,-7 0,-3.86599 -3.134,-7 -7,-7 z m 3.3125,3.0625 1.5625,1.40625 -5.25,6.9375 -4.0625,-3.5 1.34375,-1.78125 2.375,2.0625 4.03125,-5.125 z"
         inkscape:connector-curvature="0"
         id="path4309"
         style="color:#000000;fill:#36e12b;fill-opacity:1;fill-rule:nonzero;stroke:none;stroke-width:0.84323651;marker:none;visibility:visible;display:inline;overflow:visible;enable-background:accumulate" />
    </clipPath>
    <linearGradient
       y2="264"
       x2="168"
       y1="280"
       x1="168"
       gradientTransform="matrix(0.92857143,0,0,-0.92857143,-123,277.94643)"
       gradientUnits="userSpaceOnUse"
       id="linearGradient3082"
       xlink:href="#linearGradient3760"
       inkscape:collect="always" />
    <linearGradient
       inkscape:collect="always"
       xlink:href="#linearGradient3886"
       id="linearGradient3802"
       x1="11"
       y1="0"
       x2="11"
       y2="22"
       gradientUnits="userSpaceOnUse"
       gradientTransform="matrix(1,0,0,-1,0,48)" />
    <linearGradient
       inkscape:collect="always"
       xlink:href="#linearGradient3760"
       id="linearGradient3814"
       gradientUnits="userSpaceOnUse"
       x1="11"
       y1="0"
       x2="11"
       y2="22" />
    <linearGradient
       inkscape:collect="always"
       xlink:href="#linearGradient3904"
       id="linearGradient3860"
       x1="161"
       y1="272"
       x2="175"
       y2="272"
       gradientUnits="userSpaceOnUse" />
    <linearGradient
       id="linearGradient3904">
      <stop
         id="stop3906"
         offset="0"
         style="stop-color:#1c521e;stop-opacity:1;" />
      <stop
         id="stop3908"
         offset="1"
         style="stop-color:#2f821a;stop-opacity:1;" />
    </linearGradient>
    <clipPath
       clipPathUnits="userSpaceOnUse"
       id="clipPath4307-6">
      <path
         d="m 168,265 c -3.86599,0 -7,3.13401 -7,7 0,3.86599 3.13401,7 7,7 3.866,0 7,-3.13401 7,-7 0,-3.86599 -3.134,-7 -7,-7 z m 3.3125,3.0625 1.5625,1.40625 -5.25,6.9375 -4.0625,-3.5 1.34375,-1.78125 2.375,2.0625 4.03125,-5.125 z"
         inkscape:connector-curvature="0"
         id="path4309-0"
         style="color:#000000;fill:#36e12b;fill-opacity:1;fill-rule:nonzero;stroke:none;stroke-width:0.84323651;marker:none;visibility:visible;display:inline;overflow:visible;enable-background:accumulate" />
    </clipPath>
    <linearGradient
       inkscape:collect="always"
       xlink:href="#linearGradient3886"
       id="linearGradient3852-7"
       gradientUnits="userSpaceOnUse"
       gradientTransform="matrix(0.92857143,0,0,0.92857143,-148,-212.57143)"
       x1="168"
       y1="280"
       x2="168"
       y2="264" />
    <linearGradient
       id="linearGradient3886">
      <stop
         style="stop-color:#2ca42a;stop-opacity:1;"
         offset="0"
         id="stop3888" />
      <stop
         style="stop-color:#57d932;stop-opacity:1;"
         offset="1"
         id="stop3890" />
    </linearGradient>
    <linearGradient
       y2="264"
       x2="168"
       y1="280"
       x1="168"
       gradientTransform="matrix(0.92857143,0,0,0.92857143,-70.793633,-251.07753)"
       gradientUnits="userSpaceOnUse"
       id="linearGradient4533"
       xlink:href="#linearGradient3886"
       inkscape:collect="always" />
    <linearGradient
       inkscape:collect="always"
       xlink:href="#linearGradient3904"
       id="linearGradient3975"
       x1="1"
       y1="11"
       x2="21"
       y2="11"
       gradientUnits="userSpaceOnUse"
       gradientTransform="matrix(0,-1,1,0,0,48)" />
    <radialGradient
       inkscape:collect="always"
       xlink:href="#linearGradient3949"
       id="radialGradient3993"
       gradientUnits="userSpaceOnUse"
       gradientTransform="matrix(1,0,0,0.22222222,0,15.555556)"
       cx="11"
       cy="20"
       fx="11"
       fy="20"
       r="9" />
    <linearGradient
       inkscape:collect="always"
       id="linearGradient3949">
      <stop
         style="stop-color:#000000;stop-opacity:1;"
         offset="0"
         id="stop3951" />
      <stop
         style="stop-color:#000000;stop-opacity:0;"
         offset="1"
         id="stop3953" />
    </linearGradient>
    <radialGradient
       inkscape:collect="always"
       xlink:href="#linearGradient3949"
       id="radialGradient3997"
       gradientUnits="userSpaceOnUse"
       gradientTransform="matrix(1,0,0,0.22222222,0,15.555556)"
       cx="11"
       cy="20"
       fx="11"
       fy="20"
       r="9" />
    <radialGradient
       r="9"
       fy="20"
       fx="11"
       cy="20"
       cx="11"
       gradientTransform="matrix(1,0,0,0.22222222,0,15.555556)"
       gradientUnits="userSpaceOnUse"
       id="radialGradient4535"
       xlink:href="#linearGradient3949"
       inkscape:collect="always" />
  </defs>
  <sodipodi:namedview
     id="base"
     pagecolor="#ffffff"
     bordercolor="#666666"
     borderopacity="1.0"
     inkscape:pageopacity="0.0"
     inkscape:pageshadow="2"
     inkscape:zoom="1"
     inkscape:cx="51.208955"
     inkscape:cy="25.916409"
     inkscape:current-layer="layer1"
     showgrid="false"
     showborder="false"
     inkscape:grid-bbox="true"
     inkscape:document-units="px"
     inkscape:window-width="1364"
     inkscape:window-height="700"
     inkscape:window-x="0"
     inkscape:window-y="28"
     inkscape:window-maximized="1"
     inkscape:snap-bbox="true"
     inkscape:bbox-paths="true"
     inkscape:bbox-nodes="true"
     inkscape:snap-bbox-edge-midpoints="false"
     showguides="true"
     inkscape:guide-bbox="true">
    <inkscape:grid
       type="xygrid"
       id="grid3512"
       empspacing="4"
       visible="true"
       enabled="true"
       snapvisiblegridlinesonly="true"
       dotted="false" />
  </sodipodi:namedview>
  <metadata
     id="metadata3500">
    <rdf:RDF>
      <cc:Work
         rdf:about="">
        <dc:format>image/svg+xml</dc:format>
        <dc:type
           rdf:resource="http://purl.org/dc/dcmitype/StillImage" />
        <dc:title />
      </cc:Work>
    </rdf:RDF>
  </metadata>
  <g
     id="layer1"
     inkscape:label="Background"
     inkscape:groupmode="layer"
     transform="translate(0,-26)">
    <g
       id="g4507">
      <path
         d="m 20,20 c 0,1.104569 -4.029437,2 -9,2 -4.9705627,0 -9,-0.895431 -9,-2 0,-1.104569 4.0294373,-2 9,-2 4.970563,0 9,0.895431 9,2 z"
         sodipodi:ry="2"
         sodipodi:rx="9"
         sodipodi:cy="20"
         sodipodi:cx="11"
         id="path3163"
         style="opacity:0.4;fill:url(#radialGradient3993);fill-opacity:1;stroke:none"
         sodipodi:type="arc"
         transform="matrix(1,0,0,1.5,0,15)" />
      <path
         transform="matrix(0.66666667,0,0,1,3.6666666,26)"
         sodipodi:type="arc"
         style="opacity:0.8;fill:url(#radialGradient4535);fill-opacity:1;stroke:none"
         id="path3995"
         sodipodi:cx="11"
         sodipodi:cy="20"
         sodipodi:rx="9"
         sodipodi:ry="2"
         d="m 20,20 c 0,1.104569 -4.029437,2 -9,2 -4.9705627,0 -9,-0.895431 -9,-2 0,-1.104569 4.0294373,-2 9,-2 4.970563,0 9,0.895431 9,2 z" />
    </g>
    <path
       style="fill:url(#linearGradient3802);fill-opacity:1;fill-rule:evenodd;stroke:none"
       d="m 11,46.5 c -5.2407828,0 -9.5,-4.259217 -9.5,-9.5 0,-5.240782 4.2592171,-9.5 9.5,-9.5 5.240783,0 9.5,4.259218 9.5,9.5 0,5.240783 -4.259217,9.5 -9.5,9.5 z"
       id="path4791"
       inkscape:connector-curvature="0" />
    <path
       id="path3804"
       d="m 1.5,37 c 0,5.240783 4.259217,9.5 9.5,9.5 5.240782,0 9.5,-4.259217 9.5,-9.5 0,-5.240783 -4.259218,-9.5 -9.5,-9.5 -5.240783,0 -9.5,4.259217 -9.5,9.5 z"
       style="opacity:0.81000001;fill:none;stroke:url(#linearGradient3975);stroke-opacity:1"
       inkscape:connector-curvature="0" />
    <path
       style="fill:#ffffff;fill-opacity:1;fill-rule:evenodd;stroke:none;opacity:0.2"
       d="M 11 2 C 6.0301193 2 2 6.030119 2 11 C 2 11.171541 2.0217745 11.330826 2.03125 11.5 C 2.2963002 6.7678487 6.2016599 3 11 3 C 15.79834 3 19.7037 6.7678487 19.96875 11.5 C 19.978226 11.330826 20 11.171541 20 11 C 20 6.030119 15.969881 2 11 2 z "
       transform="translate(0,26)"
       id="path3806" />
    <path
       id="path3820"
       d="M 11,47 C 6.0301193,47 2,42.969881 2,38 2,37.828459 2.021774,37.669174 2.03125,37.5 2.2963002,42.232151 6.2016599,46 11,46 15.79834,46 19.7037,42.232151 19.96875,37.5 19.97825,37.669174 20,37.828459 20,38 c 0,4.969881 -4.030119,9 -9,9 z"
       style="opacity:0.20000000000000001;fill:#000000;fill-opacity:1;fill-rule:evenodd;stroke:none"
       inkscape:connector-curvature="0" />
  </g>
  <g
     inkscape:groupmode="layer"
     id="layer2"
     inkscape:label="Symbol">
    <rect
       y="9"
       x="6"
       height="2"
       width="10"
       id="rect3854"
       style="opacity:0.3;fill:#000000;fill-opacity:1;stroke:none" />
    <rect
       style="fill:#ffffff;fill-opacity:1;stroke:none"
       id="rect3084"
       width="10"
       height="2"
       x="6"
       y="10" />
    <rect
       style="opacity:0.3;fill:#000000;fill-opacity:1;stroke:none"
       id="rect3015"
       width="10"
       height="2"
       x="5"
       y="-12"
       transform="matrix(0,1,-1,0,0,0)" />
    <rect
       y="-12"
       x="6"
       height="2"
       width="10"
       id="rect3017"
       style="fill:#ffffff;fill-opacity:1;stroke:none"
       transform="matrix(0,1,-1,0,0,0)" />
  </g>
</svg>
