<?xml version="1.0" encoding="UTF-8" standalone="no"?>
<svg xmlns="http://www.w3.org/2000/svg" xmlns:xlink="http://www.w3.org/1999/xlink" xmlns:sodipodi="http://sodipodi.sourceforge.net/DTD/sodipodi-0.dtd" xmlns:inkscape="http://www.inkscape.org/namespaces/inkscape" width="22" height="22" version="1.1">
 <defs id="defs3497">
  <clipPath id="clipPath3669">
   <path d="M 0,96 96,96 96,0 0,0 0,96 z" id="path3671"/>
  </clipPath>
  <linearGradient inkscape:collect="always" xlink:href="#linearGradient3760" id="linearGradient3852" gradientUnits="userSpaceOnUse" gradientTransform="matrix(0.92857143,0,0,-0.92857143,-148,292.57143)" y1="280" x2="0" y2="264"/>
  <linearGradient id="linearGradient3760">
   <stop id="stop3762" stop-color="#e44343"/>
   <stop offset="1" id="stop3764" stop-color="#ac0808"/>
  </linearGradient>
  <clipPath id="clipPath4307">
   <path d="m 168,265 c -3.86599,0 -7,3.13401 -7,7 0,3.86599 3.13401,7 7,7 3.866,0 7,-3.13401 7,-7 0,-3.86599 -3.134,-7 -7,-7 z m 3.3125,3.0625 1.5625,1.40625 -5.25,6.9375 -4.0625,-3.5 1.34375,-1.78125 2.375,2.0625 4.03125,-5.125 z" id="path4309"/>
  </clipPath>
  <linearGradient y2="264" x2="0" y1="280" gradientTransform="matrix(0.92857143,0,0,-0.92857143,-123,277.94643)" gradientUnits="userSpaceOnUse" id="linearGradient3082" xlink:href="#linearGradient3760" inkscape:collect="always"/>
  <linearGradient inkscape:collect="always" xlink:href="#linearGradient3886" id="linearGradient3802" y1="0" x2="0" y2="22" gradientUnits="userSpaceOnUse" gradientTransform="matrix(1,0,0,-1,0,48)"/>
  <linearGradient inkscape:collect="always" xlink:href="#linearGradient3760" id="linearGradient3814" gradientUnits="userSpaceOnUse" y1="0" x2="0" y2="22"/>
  <linearGradient inkscape:collect="always" xlink:href="#linearGradient3904" id="linearGradient3860" x1="161" x2="175" gradientUnits="userSpaceOnUse"/>
  <linearGradient id="linearGradient3904">
   <stop id="stop3906" stop-color="#1c521e"/>
   <stop id="stop3908" offset="1" stop-color="#2f821a"/>
  </linearGradient>
  <linearGradient inkscape:collect="always" xlink:href="#linearGradient3886" id="linearGradient3852-7" gradientUnits="userSpaceOnUse" gradientTransform="matrix(0.92857143,0,0,0.92857143,-148,-212.57143)" y1="280" x2="0" y2="264"/>
  <linearGradient id="linearGradient3886">
   <stop id="stop3888" stop-color="#2ca42a"/>
   <stop offset="1" id="stop3890" stop-color="#57d932"/>
  </linearGradient>
  <linearGradient y2="264" x2="0" y1="280" gradientTransform="matrix(0.92857143,0,0,0.92857143,-70.793633,-251.07753)" gradientUnits="userSpaceOnUse" id="linearGradient4533" xlink:href="#linearGradient3886" inkscape:collect="always"/>
  <linearGradient inkscape:collect="always" xlink:href="#linearGradient3904" id="linearGradient3975" x1="1" x2="21" gradientUnits="userSpaceOnUse" gradientTransform="matrix(0,-1,1,0,0,48)"/>
  <radialGradient inkscape:collect="always" xlink:href="#linearGradient3949" id="radialGradient3993" gradientUnits="userSpaceOnUse" gradientTransform="matrix(1,0,0,0.22222222,0,15.555556)" cx="11" cy="20" r="9"/>
  <linearGradient inkscape:collect="always" id="linearGradient3949">
   <stop id="stop3951"/>
   <stop offset="1" id="stop3953" stop-opacity="0"/>
  </linearGradient>
 </defs>
 <metadata id="metadata3500"/>
 <g id="layer1" inkscape:label="Background" inkscape:groupmode="layer" transform="translate(0,-26)">
  <g id="g4507">
   <path d="m 20,20 c 0,1.104569 -4.029437,2 -9,2 -4.9705627,0 -9,-0.895431 -9,-2 0,-1.104569 4.0294373,-2 9,-2 4.970563,0 9,0.895431 9,2 z" sodipodi:ry="2" sodipodi:rx="9" sodipodi:cy="20" sodipodi:cx="11" id="path3163" sodipodi:type="arc" transform="matrix(1,0,0,1.5,0,15)" opacity="0.4" fill="url(#radialGradient3993)"/>
   <path transform="matrix(0.66666667,0,0,1,3.6666666,26)" sodipodi:type="arc" id="path3995" sodipodi:cx="11" sodipodi:cy="20" sodipodi:rx="9" sodipodi:ry="2" d="m 20,20 c 0,1.104569 -4.029437,2 -9,2 -4.9705627,0 -9,-0.895431 -9,-2 0,-1.104569 4.0294373,-2 9,-2 4.970563,0 9,0.895431 9,2 z" opacity="0.8" fill="url(#radialGradient3993)"/>
  </g>
  <path d="m 11,46.5 c -5.2407828,0 -9.5,-4.259217 -9.5,-9.5 0,-5.240782 4.2592171,-9.5 9.5,-9.5 5.240783,0 9.5,4.259218 9.5,9.5 0,5.240783 -4.259217,9.5 -9.5,9.5 z" id="path4791" inkscape:connector-curvature="0" fill="url(#linearGradient3802)" fill-rule="evenodd"/>
  <path id="path3804" d="m 1.5,37 c 0,5.240783 4.259217,9.5 9.5,9.5 5.240782,0 9.5,-4.259217 9.5,-9.5 0,-5.240783 -4.259218,-9.5 -9.5,-9.5 -5.240783,0 -9.5,4.259217 -9.5,9.5 z" inkscape:connector-curvature="0" opacity="0.81" fill="none" stroke="url(#linearGradient3975)"/>
  <path d="M 11 2 C 6.0301193 2 2 6.030119 2 11 C 2 11.171541 2.0217745 11.330826 2.03125 11.5 C 2.2963002 6.7678487 6.2016599 3 11 3 C 15.79834 3 19.7037 6.7678487 19.96875 11.5 C 19.978226 11.330826 20 11.171541 20 11 C 20 6.030119 15.969881 2 11 2 z " transform="translate(0,26)" id="path3806" opacity="0.2" fill="#ffffff" fill-rule="evenodd"/>
  <path id="path3820" d="M 11,47 C 6.0301193,47 2,42.969881 2,38 2,37.828459 2.021774,37.669174 2.03125,37.5 2.2963002,42.232151 6.2016599,46 11,46 15.79834,46 19.7037,42.232151 19.96875,37.5 19.97825,37.669174 20,37.828459 20,38 c 0,4.969881 -4.030119,9 -9,9 z" inkscape:connector-curvature="0" opacity="0.2" fill-rule="evenodd"/>
 </g>
 <g inkscape:groupmode="layer" id="layer2" inkscape:label="Symbol">
  <rect y="9" x="6" height="2" width="10" id="rect3854" opacity="0.3"/>
  <rect id="rect3084" width="10" height="2" x="6" y="10" fill="#ffffff"/>
  <rect id="rect3015" width="10" height="2" x="5" y="-12" transform="matrix(0,1,-1,0,0,0)" opacity="0.3"/>
  <rect y="-12" x="6" height="2" width="10" id="rect3017" transform="matrix(0,1,-1,0,0,0)" fill="#ffffff"/>
 </g>
</svg>
