<?xml version="1.0" encoding="UTF-8" standalone="no"?>
<svg xmlns="http://www.w3.org/2000/svg" xmlns:sodipodi="http://sodipodi.sourceforge.net/DTD/sodipodi-0.dtd" xmlns:inkscape="http://www.inkscape.org/namespaces/inkscape" width="22" height="22" version="1.1">
 <defs id="defs3497">
  <clipPath id="clipPath3669">
   <path d="M 0,96 96,96 96,0 0,0 0,96 z" id="path3671"/>
  </clipPath>
 </defs>
 <metadata id="metadata3500"/>
 <g id="layer1" inkscape:label="Layer 1" inkscape:groupmode="layer" transform="translate(0,-26)">
  <path sodipodi:nodetypes="ccccccc" inkscape:connector-curvature="0" id="path4635" d="m 12.950734,28.947501 8.33685,5.7978 -8.33685,5.7978 0,-1.343761 6.40425,-4.454039 -6.40425,-4.454038 z" color="#bebebe" stroke-width="0" fill="#555555"/>
  <path sodipodi:nodetypes="ccccsacsscc" inkscape:connector-curvature="0" id="path4637" d="M 9,28.779 17.33685,34.5768 9,40.3746 l 0,-3.221 -0.6431693,0 c -1.7585501,0 -3.3132575,1.125228 -3.784675,2.5768 -0.5638436,1.736167 1.852075,5.1536 1.852075,5.1536 0,0 -5.1536,-1.9326 -5.1536,-6.1199 0,-4.024344 2.5767997,-6.7641 6.442,-6.7641 L 9,32 z" color="#bebebe" stroke-width="0" fill="#555555"/>
  <path d="m 12.950734,27.947502 8.33685,5.7978 -8.33685,5.7978 0,-1.343761 6.40425,-4.454039 -6.40425,-4.454038 z" id="path4144" inkscape:connector-curvature="0" sodipodi:nodetypes="ccccccc" opacity="0.1" color="#bebebe" stroke-width="0" fill="#ffffff"/>
  <path d="m 9,27.779001 8.33685,5.7978 -8.33685,5.7978 0,-3.221 -0.6431693,0 c -1.7585501,0 -3.3132575,1.125228 -3.784675,2.5768 -0.5638436,1.736167 1.852075,5.1536 1.852075,5.1536 0,0 -5.1536,-1.9326 -5.1536,-6.1199 0,-4.024344 2.5767997,-6.7641 6.442,-6.7641 l 1.2873693,0 z" id="path4146" inkscape:connector-curvature="0" sodipodi:nodetypes="ccccsacsscc" opacity="0.1" color="#bebebe" stroke-width="0" fill="#ffffff"/>
 </g>
</svg>
