<?xml version="1.0" encoding="UTF-8" standalone="no"?>
<svg xmlns="http://www.w3.org/2000/svg" xmlns:xlink="http://www.w3.org/1999/xlink" xmlns:sodipodi="http://sodipodi.sourceforge.net/DTD/sodipodi-0.dtd" xmlns:inkscape="http://www.inkscape.org/namespaces/inkscape" width="22" height="22" version="1.1">
 <defs id="defs3497">
  <linearGradient id="linearGradient3785">
   <stop id="stop3787" stop-color="#555555"/>
   <stop offset="1" id="stop3789" stop-color="#666666"/>
  </linearGradient>
  <clipPath id="clipPath3669">
   <path d="M 0,96 96,96 96,0 0,0 0,96 z" id="path3671"/>
  </clipPath>
  <linearGradient inkscape:collect="always" xlink:href="#linearGradient3785" id="linearGradient3791" y1="22" x2="0" y2="-2" gradientUnits="userSpaceOnUse"/>
 </defs>
 <metadata id="metadata3500"/>
 <g id="layer1" inkscape:label="Layer 1" inkscape:groupmode="layer" transform="translate(0,-26)">
  <path d="M 15 0.84375 L 14.59375 1.4375 L 10.25 7.75 L 9.71875 8.53125 L 10.65625 8.53125 L 12.5 8.53125 L 12.5 14 L 12.5 14.5 L 13 14.5 L 17 14.5 L 17.5 14.5 L 17.5 14 L 17.5 8.53125 L 19.375 8.53125 L 20.34375 8.53125 L 19.78125 7.75 L 15.40625 1.4375 L 15 0.84375 z M 4.5 7.5 L 4.5 8 L 4.5 13.46875 L 2.65625 13.46875 L 1.71875 13.46875 L 2.25 14.25 L 6.59375 20.5625 L 7 21.15625 L 7.40625 20.5625 L 11.78125 14.25 L 12.34375 13.46875 L 11.375 13.46875 L 9.5 13.46875 L 9.5 8 L 9.5 7.5 L 9 7.5 L 5 7.5 L 4.5 7.5 z " transform="translate(0,26)" id="path5972" fill="url(#linearGradient3791)"/>
  <path id="path3771" transform="translate(0,26)" d="M 15 0.84375 L 14.59375 1.4375 L 10.25 7.75 L 9.71875 8.53125 L 10.65625 8.53125 L 12.5 8.53125 L 12.5 14 L 12.5 14.5 L 13 14.5 L 17 14.5 L 17.5 14.5 L 17.5 14 L 17.5 8.53125 L 19.375 8.53125 L 20.34375 8.53125 L 19.78125 7.75 L 15.40625 1.4375 L 15 0.84375 z M 4.5 7.5 L 4.5 8 L 4.5 13.46875 L 2.65625 13.46875 L 1.71875 13.46875 L 2.25 14.25 L 6.59375 20.5625 L 7 21.15625 L 7.40625 20.5625 L 11.78125 14.25 L 12.34375 13.46875 L 11.375 13.46875 L 9.5 13.46875 L 9.5 8 L 9.5 7.5 L 9 7.5 L 5 7.5 L 4.5 7.5 z " opacity="0.61" fill="none" stroke="#000000"/>
  <path d="M 15 1.71875 L 10.65625 8.03125 L 11.34375 8.03125 L 15 2.71875 L 18.6875 8.03125 L 19.375 8.03125 L 15 1.71875 z M 5 8 L 5 9 L 8.8125 9 L 9 8.71875 L 9 8 L 5 8 z M 9 9.71875 L 8.78125 10.03125 L 9 10.03125 L 9 9.71875 z M 2.65625 13.96875 L 3.34375 14.96875 L 4.5 14.96875 L 5 14.96875 L 5 14.46875 L 5 13.96875 L 4.5 13.96875 L 2.65625 13.96875 z M 9 13.96875 L 9 14.46875 L 9 14.96875 L 9.5 14.96875 L 10.6875 14.96875 L 11.375 13.96875 L 9.5 13.96875 L 9 13.96875 z M 13 13.96875 L 13 14 L 13.28125 14 L 13.3125 13.96875 L 13 13.96875 z " transform="translate(0,26)" id="path3773" opacity="0.2" fill="#ffffff"/>
 </g>
</svg>
