<?xml version="1.0" encoding="UTF-8" standalone="no"?>
<svg xmlns="http://www.w3.org/2000/svg" xmlns:sodipodi="http://sodipodi.sourceforge.net/DTD/sodipodi-0.dtd" xmlns:inkscape="http://www.inkscape.org/namespaces/inkscape" width="22" height="22" version="1.1">
 <defs id="defs3497">
  <clipPath id="clipPath3669">
   <path d="M 0,96 96,96 96,0 0,0 0,96 z" id="path3671"/>
  </clipPath>
 </defs>
 <metadata id="metadata3500"/>
 <g id="layer1" inkscape:label="Layer 1" inkscape:groupmode="layer" transform="translate(0,-26)">
  <g id="g3951" transform="matrix(1.2884,0,0,1.2884,43.191415,-16.790701)" fill="#555555">
   <path d="m -26.49965,35.500001 -6.4707,4.5 6.4707,4.5 0,-1.042969 -4.9707,-3.457031 4.9707,-3.457031 z" id="path4635" inkscape:connector-curvature="0" sodipodi:nodetypes="ccccccc" color="#bebebe" stroke-width="0"/>
   <path d="m -23.433262,35.369218 -6.4707,4.5 6.4707,4.5 0,-2.5 0.4992,0 c 1.36491,0 2.571606,0.873353 2.9375,2 0.437631,1.347538 -1.4375,4 -1.4375,4 0,0 4,-1.5 4,-4.75 0,-3.123521 -2.000044,-5.233715 -5,-5.25 l -0.9992,0 z" id="path4637" inkscape:connector-curvature="0" sodipodi:nodetypes="ccccsacsscc" color="#bebebe" stroke-width="0"/>
  </g>
  <g transform="matrix(1.2884,0,0,1.2884,43.191415,-17.7907)" id="g4142" opacity="0.1" fill="#ffffff">
   <path sodipodi:nodetypes="ccccccc" inkscape:connector-curvature="0" id="path4144" d="m -26.49965,35.500001 -6.4707,4.5 6.4707,4.5 0,-1.042969 -4.9707,-3.457031 4.9707,-3.457031 z" color="#bebebe" stroke-width="0"/>
   <path sodipodi:nodetypes="ccccsacsscc" inkscape:connector-curvature="0" id="path4146" d="m -23.433262,35.369218 -6.4707,4.5 6.4707,4.5 0,-2.5 0.4992,0 c 1.36491,0 2.571606,0.873353 2.9375,2 0.437631,1.347538 -1.4375,4 -1.4375,4 0,0 4,-1.5 4,-4.75 0,-3.123521 -2.000044,-5.233715 -5,-5.25 l -0.9992,0 z" color="#bebebe" stroke-width="0"/>
  </g>
 </g>
</svg>
