<?xml version="1.0" encoding="UTF-8" standalone="no"?>
<svg xmlns="http://www.w3.org/2000/svg" xmlns:xlink="http://www.w3.org/1999/xlink" xmlns:sodipodi="http://sodipodi.sourceforge.net/DTD/sodipodi-0.dtd" xmlns:inkscape="http://www.inkscape.org/namespaces/inkscape" width="22" height="22" version="1.1">
 <defs id="defs3497">
  <linearGradient id="linearGradient3955">
   <stop id="stop3957" stop-color="#555555"/>
   <stop offset="1" id="stop3959" stop-color="#666666"/>
  </linearGradient>
  <clipPath id="clipPath3669">
   <path d="M 0,96 96,96 96,0 0,0 0,96 z" id="path3671"/>
  </clipPath>
  <linearGradient inkscape:collect="always" xlink:href="#linearGradient3955" id="linearGradient3961" y1="48" x2="0" y2="26" gradientUnits="userSpaceOnUse"/>
 </defs>
 <metadata id="metadata3500"/>
 <g id="layer1" inkscape:label="Layer 1" inkscape:groupmode="layer" transform="translate(0,-26)">
  <path d="M 11.43725,27.8125 12.2185,28.375 20.56225,34.15625 21.156,34.5625 20.56225,35 l -8.34375,5.78125 -0.78125,0.5625 0,-0.96875 0,-2.71875 -2.0625,0 c -1.545278,0 -2.917387,1.00213 -3.3125,2.21875 -0.187353,0.576892 0.173838,1.843458 0.6875,2.875 0.513662,1.031542 1.09375,1.84375 1.09375,1.84375 L 8.781,45.9375 7.24975,45.34375 c 0,0 -1.364073,-0.504159 -2.71875,-1.5625 -1.354677,-1.058341 -2.75,-2.732454 -2.75,-5.03125 0,-2.11892 0.681192,-3.952234 1.90625,-5.25 1.225058,-1.297766 2.977048,-2.026877 5.03125,-2 l 2.71875,0 0,-2.71875 0,-0.96875 z" id="path4400-3" inkscape:connector-curvature="0" color="#bebebe" stroke-width="0" fill="url(#linearGradient3961)"/>
  <path id="path3762" d="M 11.43725,27.8125 12.2185,28.375 20.56225,34.15625 21.156,34.5625 20.56225,35 l -8.34375,5.78125 -0.78125,0.5625 0,-0.96875 0,-2.71875 -2.0625,0 c -1.545278,0 -2.917387,1.00213 -3.3125,2.21875 -0.187353,0.576892 0.173838,1.843458 0.6875,2.875 0.513662,1.031542 1.09375,1.84375 1.09375,1.84375 L 8.781,45.9375 7.24975,45.34375 c 0,0 -1.364073,-0.504159 -2.71875,-1.5625 -1.354677,-1.058341 -2.75,-2.732454 -2.75,-5.03125 0,-2.11892 0.681192,-3.952234 1.90625,-5.25 1.225058,-1.297766 2.977048,-2.026877 5.03125,-2 l 2.71875,0 0,-2.71875 0,-0.96875 z" inkscape:connector-curvature="0" opacity="0.61" color="#bebebe" fill="none" stroke="#000000"/>
  <path d="m 11.93725,28.78125 8.34375,5.78125 0,0.03125 -0.6875,0.46875 -7.65625,-5.28125 0,-1 z m 0,3.21875 0,0.5 0,0.5 -0.5,0 -2.71875,0 C 6.786298,32.97472 5.188132,33.651046 4.06225,34.84375 3.075935,35.888603 2.452847,37.31049 2.31225,39 2.30785,38.91434 2.281,38.837654 2.281,38.75 2.281,36.73824 2.935033,35.037868 4.06225,33.84375 5.188132,32.651046 6.786298,31.97472 8.7185,32 l 2.71875,0 0.5,0 z m -6.375,8.84375 c 0.02519,0.138073 0.05662,0.259617 0.09375,0.40625 0.141964,0.560654 0.383866,1.171745 0.65625,1.71875 0.533935,1.072254 1.125,1.90625 1.125,1.90625 0,0 -0.324946,-0.12569 -0.8125,-0.375 -0.0026,-0.0047 -0.02862,0.0047 -0.03125,0 C 6.489714,44.313236 6.416505,44.178116 6.31225,43.96875 6.039866,43.421745 5.797964,42.810654 5.656,42.25 5.52603,41.736699 5.454274,41.285528 5.56225,40.84375 z" id="path3764" inkscape:connector-curvature="0" opacity="0.2" color="#bebebe" stroke-width="0" fill="#ffffff"/>
 </g>
</svg>
