<?xml version="1.0" encoding="UTF-8" standalone="no"?>
<!-- Created with Inkscape (http://www.inkscape.org/) -->

<svg
   xmlns:dc="http://purl.org/dc/elements/1.1/"
   xmlns:cc="http://creativecommons.org/ns#"
   xmlns:rdf="http://www.w3.org/1999/02/22-rdf-syntax-ns#"
   xmlns:svg="http://www.w3.org/2000/svg"
   xmlns="http://www.w3.org/2000/svg"
   xmlns:xlink="http://www.w3.org/1999/xlink"
   xmlns:sodipodi="http://sodipodi.sourceforge.net/DTD/sodipodi-0.dtd"
   xmlns:inkscape="http://www.inkscape.org/namespaces/inkscape"
   version="1.1"
   width="22"
   height="22"
   id="svg3828"
   inkscape:version="0.48.4 r9939"
   sodipodi:docname="mail-message-new.svg">
  <sodipodi:namedview
     pagecolor="#ffffff"
     bordercolor="#666666"
     borderopacity="1"
     objecttolerance="10"
     gridtolerance="10"
     guidetolerance="10"
     inkscape:pageopacity="0"
     inkscape:pageshadow="2"
     inkscape:window-width="1364"
     inkscape:window-height="700"
     id="namedview18"
     showgrid="false"
     inkscape:zoom="1"
     inkscape:cx="10.579191"
     inkscape:cy="10.242184"
     inkscape:window-x="0"
     inkscape:window-y="28"
     inkscape:window-maximized="1"
     inkscape:current-layer="layer1"
     inkscape:snap-bbox="true"
     inkscape:bbox-paths="true"
     inkscape:snap-bbox-edge-midpoints="true"
     inkscape:bbox-nodes="true"
     inkscape:snap-bbox-midpoints="true">
    <inkscape:grid
       type="xygrid"
       id="grid3794"
       empspacing="4"
       visible="true"
       enabled="true"
       snapvisiblegridlinesonly="true" />
  </sodipodi:namedview>
  <defs
     id="defs3830">
    <linearGradient
       inkscape:collect="always"
       id="linearGradient3801">
      <stop
         style="stop-color:#ffffff;stop-opacity:1;"
         offset="0"
         id="stop3803" />
      <stop
         style="stop-color:#ffffff;stop-opacity:0;"
         offset="1"
         id="stop3805" />
    </linearGradient>
    <linearGradient
       id="linearGradient3977">
      <stop
         id="stop3979"
         style="stop-color:#ffffff;stop-opacity:1"
         offset="0" />
      <stop
         id="stop3981"
         style="stop-color:#ffffff;stop-opacity:0.23529412"
         offset="0.03626217" />
      <stop
         id="stop3983"
         style="stop-color:#ffffff;stop-opacity:0.15686275"
         offset="0.95056331" />
      <stop
         id="stop3985"
         style="stop-color:#ffffff;stop-opacity:0.39215687"
         offset="1" />
    </linearGradient>
    <linearGradient
       id="linearGradient3600-4">
      <stop
         id="stop3602-7"
         style="stop-color:#f4f4f4;stop-opacity:1"
         offset="0" />
      <stop
         id="stop3604-6"
         style="stop-color:#dbdbdb;stop-opacity:1"
         offset="1" />
    </linearGradient>
    <linearGradient
       x1="23.99999"
       y1="5.5641499"
       x2="23.99999"
       y2="43"
       id="linearGradient3000"
       xlink:href="#linearGradient3977"
       gradientUnits="userSpaceOnUse"
       gradientTransform="matrix(0.40540511,0,0,0.51351253,1.2696879,-1.32431)" />
    <linearGradient
       x1="25.132275"
       y1="0.98520643"
       x2="25.132275"
       y2="47.013336"
       id="linearGradient3003"
       xlink:href="#linearGradient3988-5"
       gradientUnits="userSpaceOnUse"
       gradientTransform="matrix(0.48571543,0,0,-0.45629579,-0.65717005,22.651132)" />
    <linearGradient
       inkscape:collect="always"
       xlink:href="#linearGradient3988-5"
       id="linearGradient3158"
       gradientUnits="userSpaceOnUse"
       gradientTransform="matrix(0.175,0,0,0.175,-1.20002,-6.0000326)"
       x1="144.00006"
       y1="280.00018"
       x2="144.00006"
       y2="40.000172" />
    <linearGradient
       id="linearGradient3988-5">
      <stop
         style="stop-color:#ededed;stop-opacity:1;"
         offset="0"
         id="stop3990-5" />
      <stop
         style="stop-color:#fafafa;stop-opacity:1;"
         offset="1"
         id="stop3992-0" />
    </linearGradient>
    <linearGradient
       inkscape:collect="always"
       xlink:href="#linearGradient3801"
       id="linearGradient3807"
       x1="10"
       y1="0"
       x2="10"
       y2="22"
       gradientUnits="userSpaceOnUse" />
    <radialGradient
       inkscape:collect="always"
       xlink:href="#linearGradient6557"
       id="radialGradient3981"
       gradientUnits="userSpaceOnUse"
       cx="311.46875"
       cy="828.53125"
       fx="311.46875"
       fy="828.53125"
       r="3.28125" />
    <linearGradient
       id="linearGradient6557">
      <stop
         style="stop-color:#fce94f;stop-opacity:1;"
         offset="0"
         id="stop6559" />
      <stop
         id="stop6565"
         offset="0.67301035"
         style="stop-color:#fce94f;stop-opacity:1" />
      <stop
         style="stop-color:#fce94f;stop-opacity:0;"
         offset="1"
         id="stop6561" />
    </linearGradient>
    <linearGradient
       id="linearGradient6620">
      <stop
         id="stop6622"
         offset="0"
         style="stop-color:#ffffff;stop-opacity:1" />
      <stop
         style="stop-color:#ffffff;stop-opacity:1"
         offset="0.32992947"
         id="stop6624" />
      <stop
         id="stop6626"
         offset="1"
         style="stop-color:#fce94f;stop-opacity:1" />
    </linearGradient>
    <radialGradient
       r="3.28125"
       fy="828.53125"
       fx="311.46875"
       cy="828.53125"
       cx="311.46875"
       gradientUnits="userSpaceOnUse"
       id="radialGradient4009"
       xlink:href="#linearGradient6557-4"
       inkscape:collect="always" />
    <linearGradient
       id="linearGradient6557-4">
      <stop
         style="stop-color:#fce94f;stop-opacity:1;"
         offset="0"
         id="stop6559-2" />
      <stop
         id="stop6565-2"
         offset="0.67301035"
         style="stop-color:#fce94f;stop-opacity:1" />
      <stop
         style="stop-color:#fce94f;stop-opacity:0;"
         offset="1"
         id="stop6561-7" />
    </linearGradient>
    <radialGradient
       inkscape:collect="always"
       xlink:href="#linearGradient6620-1"
       id="radialGradient3976"
       gradientUnits="userSpaceOnUse"
       gradientTransform="matrix(2.1730275,0,0,1.9594181,-672.25707,-1534.79)"
       cx="316.08578"
       cy="785.15662"
       fx="316.08578"
       fy="785.15662"
       r="5.4999967" />
    <linearGradient
       id="linearGradient6620-1">
      <stop
         id="stop6622-7"
         offset="0"
         style="stop-color:#ffffff;stop-opacity:1" />
      <stop
         style="stop-color:#ffffff;stop-opacity:1"
         offset="0.32992947"
         id="stop6624-4" />
      <stop
         id="stop6626-5"
         offset="1"
         style="stop-color:#fce94f;stop-opacity:1" />
    </linearGradient>
    <radialGradient
       inkscape:collect="always"
       xlink:href="#linearGradient6633"
       id="radialGradient3978"
       gradientUnits="userSpaceOnUse"
       gradientTransform="matrix(4.5697471,-0.00304895,0,4.2377637,-1400.2274,-3458.4132)"
       cx="309.36545"
       cy="816.90698"
       fx="309.36545"
       fy="816.90698"
       r="5.2188735" />
    <linearGradient
       id="linearGradient6633"
       inkscape:collect="always">
      <stop
         id="stop6635"
         offset="0"
         style="stop-color:#edd400;stop-opacity:1" />
      <stop
         id="stop6637"
         offset="1"
         style="stop-color:#c4a000;stop-opacity:1" />
    </linearGradient>
    <radialGradient
       r="5.4999967"
       fy="785.15662"
       fx="316.08578"
       cy="785.15662"
       cx="316.08578"
       gradientTransform="matrix(2.1730275,0,0,1.9594181,-672.25707,-1534.79)"
       gradientUnits="userSpaceOnUse"
       id="radialGradient3095"
       xlink:href="#linearGradient6620-1"
       inkscape:collect="always" />
    <radialGradient
       r="5.2188735"
       fy="816.90698"
       fx="309.36545"
       cy="816.90698"
       cx="309.36545"
       gradientTransform="matrix(4.5697471,-0.00304895,0,4.2377637,-1400.2274,-3458.4132)"
       gradientUnits="userSpaceOnUse"
       id="radialGradient3097"
       xlink:href="#linearGradient6633"
       inkscape:collect="always" />
    <radialGradient
       inkscape:collect="always"
       xlink:href="#linearGradient3952"
       id="radialGradient3047"
       gradientUnits="userSpaceOnUse"
       gradientTransform="matrix(1,0,0,0.75,-21,12.875)"
       cx="40"
       cy="43.5"
       fx="40"
       fy="43.5"
       r="2" />
    <linearGradient
       inkscape:collect="always"
       id="linearGradient3952">
      <stop
         style="stop-color:#000000;stop-opacity:1;"
         offset="0"
         id="stop3954" />
      <stop
         style="stop-color:#000000;stop-opacity:0;"
         offset="1"
         id="stop3956" />
    </linearGradient>
    <radialGradient
       inkscape:collect="always"
       xlink:href="#linearGradient3944"
       id="radialGradient3049"
       gradientUnits="userSpaceOnUse"
       gradientTransform="matrix(1,0,0,0.75,-6,12.875)"
       cx="9"
       cy="43.5"
       fx="9"
       fy="43.5"
       r="2" />
    <linearGradient
       inkscape:collect="always"
       id="linearGradient3944">
      <stop
         style="stop-color:#000000;stop-opacity:1;"
         offset="0"
         id="stop3946" />
      <stop
         style="stop-color:#000000;stop-opacity:0;"
         offset="1"
         id="stop3948" />
    </linearGradient>
    <linearGradient
       inkscape:collect="always"
       xlink:href="#linearGradient3960"
       id="linearGradient3051"
       gradientUnits="userSpaceOnUse"
       gradientTransform="matrix(1.1428571,0,0,1,-11.857143,2)"
       x1="25"
       y1="45"
       x2="25"
       y2="42" />
    <linearGradient
       id="linearGradient3960">
      <stop
         style="stop-color:#000000;stop-opacity:0;"
         offset="0"
         id="stop3962" />
      <stop
         id="stop3970"
         offset="0.5"
         style="stop-color:#000000;stop-opacity:1;" />
      <stop
         style="stop-color:#000000;stop-opacity:0;"
         offset="1"
         id="stop3964" />
    </linearGradient>
    <linearGradient
       y2="42"
       x2="25"
       y1="45"
       x1="25"
       gradientTransform="matrix(1.1428571,0,0,1,-11.857143,2)"
       gradientUnits="userSpaceOnUse"
       id="linearGradient3080"
       xlink:href="#linearGradient3960"
       inkscape:collect="always" />
    <radialGradient
       inkscape:collect="always"
       xlink:href="#linearGradient3952"
       id="radialGradient3187"
       gradientUnits="userSpaceOnUse"
       gradientTransform="matrix(1,0,0,0.75,-21,12.875)"
       cx="40"
       cy="43.5"
       fx="40"
       fy="43.5"
       r="2" />
    <radialGradient
       inkscape:collect="always"
       xlink:href="#linearGradient3944"
       id="radialGradient3189"
       gradientUnits="userSpaceOnUse"
       gradientTransform="matrix(1,0,0,0.75,-6,12.875)"
       cx="9"
       cy="43.5"
       fx="9"
       fy="43.5"
       r="2" />
    <linearGradient
       inkscape:collect="always"
       xlink:href="#linearGradient3960"
       id="linearGradient3191"
       gradientUnits="userSpaceOnUse"
       gradientTransform="matrix(1.1428571,0,0,1,-11.857143,2)"
       x1="25"
       y1="45"
       x2="25"
       y2="42" />
    <linearGradient
       inkscape:collect="always"
       xlink:href="#linearGradient3960"
       id="linearGradient3059"
       gradientUnits="userSpaceOnUse"
       gradientTransform="translate(-11,-24.5)"
       x1="25"
       y1="45"
       x2="25"
       y2="42" />
    <radialGradient
       inkscape:collect="always"
       xlink:href="#linearGradient3944"
       id="radialGradient3062"
       gradientUnits="userSpaceOnUse"
       gradientTransform="matrix(1,0,0,0.75,-7,-13.625)"
       cx="9"
       cy="43.5"
       fx="9"
       fy="43.5"
       r="2" />
    <radialGradient
       inkscape:collect="always"
       xlink:href="#linearGradient3952"
       id="radialGradient3065"
       gradientUnits="userSpaceOnUse"
       gradientTransform="matrix(1,0,0,0.75,-20,-13.625)"
       cx="40"
       cy="43.5"
       fx="40"
       fy="43.5"
       r="2" />
    <radialGradient
       inkscape:collect="always"
       xlink:href="#linearGradient3952"
       id="radialGradient3930"
       gradientUnits="userSpaceOnUse"
       gradientTransform="matrix(1,0,0,0.75,-20,-13.625)"
       cx="40"
       cy="43.5"
       fx="40"
       fy="43.5"
       r="2" />
    <radialGradient
       inkscape:collect="always"
       xlink:href="#linearGradient3944"
       id="radialGradient3932"
       gradientUnits="userSpaceOnUse"
       gradientTransform="matrix(1,0,0,0.75,-7,-13.625)"
       cx="9"
       cy="43.5"
       fx="9"
       fy="43.5"
       r="2" />
    <linearGradient
       inkscape:collect="always"
       xlink:href="#linearGradient3960"
       id="linearGradient3934"
       gradientUnits="userSpaceOnUse"
       gradientTransform="translate(-11,-24.5)"
       x1="25"
       y1="45"
       x2="25"
       y2="42" />
    <linearGradient
       inkscape:collect="always"
       xlink:href="#linearGradient3988-5"
       id="linearGradient3936"
       gradientUnits="userSpaceOnUse"
       gradientTransform="matrix(0.48571543,0,0,-0.45629579,-0.65717005,22.651132)"
       x1="25.132275"
       y1="0.98520643"
       x2="25.132275"
       y2="47.013336" />
    <linearGradient
       inkscape:collect="always"
       xlink:href="#linearGradient3801"
       id="linearGradient3938"
       gradientUnits="userSpaceOnUse"
       x1="10"
       y1="0"
       x2="10"
       y2="22" />
  </defs>
  <metadata
     id="metadata3833">
    <rdf:RDF>
      <cc:Work
         rdf:about="">
        <dc:format>image/svg+xml</dc:format>
        <dc:type
           rdf:resource="http://purl.org/dc/dcmitype/StillImage" />
        <dc:title></dc:title>
      </cc:Work>
    </rdf:RDF>
  </metadata>
  <g
     inkscape:groupmode="layer"
     id="layer1"
     inkscape:label="Background"
     style="display:inline">
    <g
       id="g3900"
       transform="matrix(0.98480775,0.17364818,-0.17364818,0.98480775,2.2074808,-1.7316211)">
      <g
         id="g3902">
        <path
           inkscape:connector-curvature="0"
           id="path3904"
           d="m 20,17.5 0,3 0.5,0 c 0.831,0 1.5,-0.669 1.5,-1.5 0,-0.831 -0.669,-1.5 -1.5,-1.5 l -0.5,0 z"
           style="opacity:0.2;fill:url(#radialGradient3930);fill-opacity:1;stroke:none" />
        <path
           inkscape:connector-curvature="0"
           id="path3906"
           d="M 1.40625,17.5 C 0.6271875,17.5 0,18.127187 0,18.90625 l 0,0.1875 C 0,19.872813 0.6271875,20.5 1.40625,20.5 L 2,20.5 l 0,-3 -0.59375,0 z"
           style="opacity:0.2;fill:url(#radialGradient3932);fill-opacity:1;stroke:none" />
        <path
           sodipodi:nodetypes="ccccc"
           inkscape:connector-curvature="0"
           id="path3908"
           d="m 2,17.5 18,0 0,3 -18,0 z"
           style="opacity:0.2;fill:url(#linearGradient3934);fill-opacity:1;stroke:none" />
      </g>
      <path
         d="m 1.499963,3.499961 c 0,3.8955809 0.0014,15.000059 0.0014,15.000059 l 18.998676,2.1e-5 c 0,0 0,-9.3333863 0,-15.00008 -7.000005,0 -12.000008,0 -19.000014,0 z"
         inkscape:connector-curvature="0"
         id="path3910"
         style="fill:url(#linearGradient3936);fill-opacity:1;stroke:none;display:inline"
         sodipodi:nodetypes="ccccsc" />
      <path
         d="m 20.500039,3.4999609 c 0,3.8955809 -0.0014,15.0000591 -0.0014,15.0000591 l -18.9986761,2.1e-5 c 0,0 0,-9.3333864 0,-15.0000801 7.000005,0 12.0000081,0 19.0000141,0 z"
         inkscape:connector-curvature="0"
         id="path3912"
         style="opacity:0.41000001;fill:none;stroke:#000000;stroke-width:0.99992186;stroke-linecap:butt;stroke-linejoin:round;stroke-miterlimit:4;stroke-opacity:1;stroke-dasharray:none;stroke-dashoffset:0;display:inline"
         sodipodi:nodetypes="ccccsc" />
      <path
         style="opacity:0.4;fill:#ffffff;fill-opacity:1;stroke:none;display:inline"
         d="m 2,4 0,1 c 4.1579948,7.52e-5 17.292656,-7.52e-5 18,0 L 20,4 C 19.292656,3.9999248 6.1579948,4.0000752 2,4 z"
         id="path3914"
         inkscape:connector-curvature="0"
         sodipodi:nodetypes="ccccc" />
      <path
         style="opacity:0.4;fill:url(#linearGradient3938);fill-opacity:1"
         d="M 2,4 2,18 20,18 20,4 z M 3,5 19,5 19,17 3,17 z"
         id="path3916"
         inkscape:connector-curvature="0"
         sodipodi:nodetypes="cccccccccc" />
      <path
         style="font-size:medium;font-style:normal;font-variant:normal;font-weight:normal;font-stretch:normal;text-indent:0;text-align:start;text-decoration:none;line-height:normal;letter-spacing:normal;word-spacing:normal;text-transform:none;direction:ltr;block-progression:tb;writing-mode:lr-tb;text-anchor:start;baseline-shift:baseline;opacity:0.4;color:#000000;fill:#000000;fill-opacity:1;stroke:none;stroke-width:1px;marker:none;visibility:visible;display:inline;overflow:visible;enable-background:accumulate;font-family:Sans;-inkscape-font-specification:Sans"
         d="m 3.6623614,6.0457523 a 0.2142589,0.2142589 0 0 0 -0.02678,0.02678 0.2142589,0.2142589 0 0 0 -0.053559,0.02678 0.2142589,0.2142589 0 0 0 -0.02678,0.02678 0.2142589,0.2142589 0 0 0 -0.02678,0.02678 0.2142589,0.2142589 0 0 0 -0.02678,0.053559 0.2142589,0.2142589 0 0 0 0,0.053559 0.2142589,0.2142589 0 0 0 0,0.053559 0.2142589,0.2142589 0 0 0 0.053559,0.080339 0.2142589,0.2142589 0 0 0 0.02678,0.02678 l 4.9274618,4.6596647 -4.579326,4.498987 a 0.2142589,0.2142589 0 0 0 -0.02678,0.02679 0.2142589,0.2142589 0 0 0 -0.02678,0.05356 0.2142589,0.2142589 0 0 0 0,0.05356 0.2142589,0.2142589 0 0 0 0,0.05356 0.2142589,0.2142589 0 0 0 0.02678,0.08034 0.2142589,0.2142589 0 0 0 0.080339,0.08034 0.2142589,0.2142589 0 0 0 0.053559,0.02678 0.2142589,0.2142589 0 0 0 0.053559,0 0.2142589,0.2142589 0 0 0 0.080339,-0.02678 0.2142589,0.2142589 0 0 0 0.053559,-0.02678 l 4.8739025,-4.311529 1.5264423,1.312204 0.241017,0.187458 a 0.2142589,0.2142589 0 0 0 0.02678,0.02678 0.2142589,0.2142589 0 0 0 0.05356,0.02679 0.2142589,0.2142589 0 0 0 0.05356,0 0.2142589,0.2142589 0 0 0 0.05356,0 0.2142589,0.2142589 0 0 0 0.05356,-0.02679 0.2142589,0.2142589 0 0 0 0.02678,-0.02678 l 0.241017,-0.187458 1.526442,-1.312204 4.873902,4.311529 a 0.2142589,0.2142589 0 0 0 0.02678,0.02678 0.2142589,0.2142589 0 0 0 0.05356,0.02678 0.2142589,0.2142589 0 0 0 0.02678,0 0.2142589,0.2142589 0 0 0 0.05356,0 0.2142589,0.2142589 0 0 0 0.05356,-0.02678 0.2142589,0.2142589 0 0 0 0.05356,-0.02678 0.2142589,0.2142589 0 0 0 0.05356,-0.05356 0.2142589,0.2142589 0 0 0 0.02678,-0.107118 0.2142589,0.2142589 0 0 0 0,-0.05356 0.2142589,0.2142589 0 0 0 0,-0.02678 0.2142589,0.2142589 0 0 0 -0.05356,-0.05356 0.2142589,0.2142589 0 0 0 0,-0.02679 L 13.490508,11.080335 18.41797,6.4206707 a 0.2142589,0.2142589 0 0 0 0.02679,-0.02678 0.2142589,0.2142589 0 0 0 0.02678,-0.02678 0.2142589,0.2142589 0 0 0 0.02678,-0.080339 0.2142589,0.2142589 0 0 0 0,-0.02678 0.2142589,0.2142589 0 0 0 0,-0.053559 0.2142589,0.2142589 0 0 0 -0.02678,-0.053559 0.2142589,0.2142589 0 0 0 -0.02678,-0.02678 0.2142589,0.2142589 0 0 0 -0.02679,-0.02678 0.2142589,0.2142589 0 0 0 -0.02678,-0.02678 0.2142589,0.2142589 0 0 0 -0.08033,-0.02678 0.2142589,0.2142589 0 0 0 -0.05356,0 0.2142589,0.2142589 0 0 0 -0.05356,0.02678 0.2142589,0.2142589 0 0 0 -0.05356,0.02678 L 10.999995,11.696265 3.8498192,6.0993117 a 0.2142589,0.2142589 0 0 0 -0.02678,-0.02678 0.2142589,0.2142589 0 0 0 -0.080339,-0.02678 0.2142589,0.2142589 0 0 0 -0.053559,0 0.2142589,0.2142589 0 0 0 -0.02678,0 z"
         id="path3918"
         inkscape:connector-curvature="0" />
    </g>
    <g
       id="g3889">
      <g
         id="g3067">
        <path
           style="opacity:0.2;fill:url(#radialGradient3065);fill-opacity:1;stroke:none"
           d="m 20,17.5 0,3 0.5,0 c 0.831,0 1.5,-0.669 1.5,-1.5 0,-0.831 -0.669,-1.5 -1.5,-1.5 l -0.5,0 z"
           id="rect3940"
           inkscape:connector-curvature="0" />
        <path
           style="opacity:0.2;fill:url(#radialGradient3062);fill-opacity:1;stroke:none"
           d="M 1.40625,17.5 C 0.6271875,17.5 0,18.127187 0,18.90625 l 0,0.1875 C 0,19.872813 0.6271875,20.5 1.40625,20.5 L 2,20.5 l 0,-3 -0.59375,0 z"
           id="rect3942"
           inkscape:connector-curvature="0" />
        <path
           style="opacity:0.2;fill:url(#linearGradient3059);fill-opacity:1;stroke:none"
           d="m 2,17.5 18,0 0,3 -18,0 z"
           id="rect3938"
           inkscape:connector-curvature="0"
           sodipodi:nodetypes="ccccc" />
      </g>
      <path
         sodipodi:nodetypes="ccccsc"
         style="fill:url(#linearGradient3003);fill-opacity:1;stroke:none;display:inline"
         id="path4160-3"
         inkscape:connector-curvature="0"
         d="m 1.499963,3.499961 c 0,3.8955809 0.0014,15.000059 0.0014,15.000059 l 18.998676,2.1e-5 c 0,0 0,-9.3333863 0,-15.00008 -7.000005,0 -12.000008,0 -19.000014,0 z" />
      <path
         sodipodi:nodetypes="ccccsc"
         style="opacity:0.41000001;fill:none;stroke:#000000;stroke-width:0.99992186;stroke-linecap:butt;stroke-linejoin:round;stroke-miterlimit:4;stroke-opacity:1;stroke-dasharray:none;stroke-dashoffset:0;display:inline"
         id="path4160-3-5"
         inkscape:connector-curvature="0"
         d="m 20.500039,3.4999609 c 0,3.8955809 -0.0014,15.0000591 -0.0014,15.0000591 l -18.9986761,2.1e-5 c 0,0 0,-9.3333864 0,-15.0000801 7.000005,0 12.0000081,0 19.0000141,0 z" />
      <path
         sodipodi:nodetypes="ccccc"
         inkscape:connector-curvature="0"
         id="path3780"
         d="m 2,4 0,1 c 4.1579948,7.52e-5 17.292656,-7.52e-5 18,0 L 20,4 C 19.292656,3.9999248 6.1579948,4.0000752 2,4 z"
         style="opacity:0.4;fill:#ffffff;fill-opacity:1;stroke:none;display:inline" />
      <path
         sodipodi:nodetypes="cccccccccc"
         inkscape:connector-curvature="0"
         id="rect3796"
         d="M 2,4 2,18 20,18 20,4 z M 3,5 19,5 19,17 3,17 z"
         style="opacity:0.4;fill:url(#linearGradient3807);fill-opacity:1" />
      <path
         inkscape:connector-curvature="0"
         id="path3886"
         d="m 3.6623614,6.0457523 a 0.2142589,0.2142589 0 0 0 -0.02678,0.02678 0.2142589,0.2142589 0 0 0 -0.053559,0.02678 0.2142589,0.2142589 0 0 0 -0.02678,0.02678 0.2142589,0.2142589 0 0 0 -0.02678,0.02678 0.2142589,0.2142589 0 0 0 -0.02678,0.053559 0.2142589,0.2142589 0 0 0 0,0.053559 0.2142589,0.2142589 0 0 0 0,0.053559 0.2142589,0.2142589 0 0 0 0.053559,0.080339 0.2142589,0.2142589 0 0 0 0.02678,0.02678 l 4.9274618,4.6596647 -4.579326,4.498987 a 0.2142589,0.2142589 0 0 0 -0.02678,0.02679 0.2142589,0.2142589 0 0 0 -0.02678,0.05356 0.2142589,0.2142589 0 0 0 0,0.05356 0.2142589,0.2142589 0 0 0 0,0.05356 0.2142589,0.2142589 0 0 0 0.02678,0.08034 0.2142589,0.2142589 0 0 0 0.080339,0.08034 0.2142589,0.2142589 0 0 0 0.053559,0.02678 0.2142589,0.2142589 0 0 0 0.053559,0 0.2142589,0.2142589 0 0 0 0.080339,-0.02678 0.2142589,0.2142589 0 0 0 0.053559,-0.02678 l 4.8739025,-4.311529 1.5264423,1.312204 0.241017,0.187458 a 0.2142589,0.2142589 0 0 0 0.02678,0.02678 0.2142589,0.2142589 0 0 0 0.05356,0.02679 0.2142589,0.2142589 0 0 0 0.05356,0 0.2142589,0.2142589 0 0 0 0.05356,0 0.2142589,0.2142589 0 0 0 0.05356,-0.02679 0.2142589,0.2142589 0 0 0 0.02678,-0.02678 l 0.241017,-0.187458 1.526442,-1.312204 4.873902,4.311529 a 0.2142589,0.2142589 0 0 0 0.02678,0.02678 0.2142589,0.2142589 0 0 0 0.05356,0.02678 0.2142589,0.2142589 0 0 0 0.02678,0 0.2142589,0.2142589 0 0 0 0.05356,0 0.2142589,0.2142589 0 0 0 0.05356,-0.02678 0.2142589,0.2142589 0 0 0 0.05356,-0.02678 0.2142589,0.2142589 0 0 0 0.05356,-0.05356 0.2142589,0.2142589 0 0 0 0.02678,-0.107118 0.2142589,0.2142589 0 0 0 0,-0.05356 0.2142589,0.2142589 0 0 0 0,-0.02678 0.2142589,0.2142589 0 0 0 -0.05356,-0.05356 0.2142589,0.2142589 0 0 0 0,-0.02679 L 13.490508,11.080335 18.41797,6.4206707 a 0.2142589,0.2142589 0 0 0 0.02679,-0.02678 0.2142589,0.2142589 0 0 0 0.02678,-0.02678 0.2142589,0.2142589 0 0 0 0.02678,-0.080339 0.2142589,0.2142589 0 0 0 0,-0.02678 0.2142589,0.2142589 0 0 0 0,-0.053559 0.2142589,0.2142589 0 0 0 -0.02678,-0.053559 0.2142589,0.2142589 0 0 0 -0.02678,-0.02678 0.2142589,0.2142589 0 0 0 -0.02679,-0.02678 0.2142589,0.2142589 0 0 0 -0.02678,-0.02678 0.2142589,0.2142589 0 0 0 -0.08033,-0.02678 0.2142589,0.2142589 0 0 0 -0.05356,0 0.2142589,0.2142589 0 0 0 -0.05356,0.02678 0.2142589,0.2142589 0 0 0 -0.05356,0.02678 L 10.999995,11.696265 3.8498192,6.0993117 a 0.2142589,0.2142589 0 0 0 -0.02678,-0.02678 0.2142589,0.2142589 0 0 0 -0.080339,-0.02678 0.2142589,0.2142589 0 0 0 -0.053559,0 0.2142589,0.2142589 0 0 0 -0.02678,0 z"
         style="font-size:medium;font-style:normal;font-variant:normal;font-weight:normal;font-stretch:normal;text-indent:0;text-align:start;text-decoration:none;line-height:normal;letter-spacing:normal;word-spacing:normal;text-transform:none;direction:ltr;block-progression:tb;writing-mode:lr-tb;text-anchor:start;baseline-shift:baseline;opacity:0.4;color:#000000;fill:#000000;fill-opacity:1;stroke:none;stroke-width:1px;marker:none;visibility:visible;display:inline;overflow:visible;enable-background:accumulate;font-family:Sans;-inkscape-font-specification:Sans" />
    </g>
  </g>
  <g
     inkscape:groupmode="layer"
     id="layer2"
     inkscape:label="Symbol" />
</svg>
