<?xml version="1.0" encoding="UTF-8" standalone="no"?>
<!-- Created with Inkscape (http://www.inkscape.org/) -->

<svg
   xmlns:dc="http://purl.org/dc/elements/1.1/"
   xmlns:cc="http://creativecommons.org/ns#"
   xmlns:rdf="http://www.w3.org/1999/02/22-rdf-syntax-ns#"
   xmlns:svg="http://www.w3.org/2000/svg"
   xmlns="http://www.w3.org/2000/svg"
   xmlns:sodipodi="http://sodipodi.sourceforge.net/DTD/sodipodi-0.dtd"
   xmlns:inkscape="http://www.inkscape.org/namespaces/inkscape"
   width="22"
   height="22"
   id="svg3495"
   version="1.1"
   inkscape:version="0.48.4 r9939"
   sodipodi:docname="contact-new.svg">
  <defs
     id="defs3497">
    <clipPath
       clipPathUnits="userSpaceOnUse"
       id="clipPath3669">
      <path
         inkscape:connector-curvature="0"
         d="M 0,96 96,96 96,0 0,0 0,96 z"
         id="path3671" />
    </clipPath>
  </defs>
  <sodipodi:namedview
     id="base"
     pagecolor="#ffffff"
     bordercolor="#666666"
     borderopacity="1.0"
     inkscape:pageopacity="0.0"
     inkscape:pageshadow="2"
     inkscape:zoom="1"
     inkscape:cx="16.952328"
     inkscape:cy="3.8972443"
     inkscape:current-layer="layer1"
     showgrid="false"
     inkscape:grid-bbox="true"
     inkscape:document-units="px"
     inkscape:window-width="1364"
     inkscape:window-height="700"
     inkscape:window-x="0"
     inkscape:window-y="28"
     inkscape:window-maximized="1"
     inkscape:snap-bbox="true"
     inkscape:bbox-paths="true"
     inkscape:bbox-nodes="true"
     inkscape:snap-bbox-edge-midpoints="false"
     showguides="true"
     inkscape:guide-bbox="true">
    <inkscape:grid
       type="xygrid"
       id="grid3512"
       empspacing="4"
       visible="true"
       enabled="true"
       snapvisiblegridlinesonly="true"
       dotted="false" />
  </sodipodi:namedview>
  <metadata
     id="metadata3500">
    <rdf:RDF>
      <cc:Work
         rdf:about="">
        <dc:format>image/svg+xml</dc:format>
        <dc:type
           rdf:resource="http://purl.org/dc/dcmitype/StillImage" />
        <dc:title></dc:title>
      </cc:Work>
    </rdf:RDF>
  </metadata>
  <g
     id="layer1"
     inkscape:label="Layer 1"
     inkscape:groupmode="layer"
     transform="translate(0,-26)">
    <g
       id="g3798">
      <rect
         y="43"
         x="15"
         height="2"
         width="6"
         id="rect3856"
         style="color:#000000;fill:#555555;fill-opacity:1;fill-rule:nonzero;stroke:none;stroke-width:2;marker:none;visibility:visible;display:inline;overflow:visible;enable-background:accumulate" />
      <rect
         style="color:#000000;fill:#555555;fill-opacity:1;fill-rule:nonzero;stroke:none;stroke-width:2;marker:none;visibility:visible;display:inline;overflow:visible;enable-background:accumulate"
         id="rect3858"
         width="6"
         height="2"
         x="41"
         y="17"
         transform="matrix(0,1,1,0,0,0)" />
      <path
         sodipodi:nodetypes="scccsscssssccc"
         inkscape:connector-curvature="0"
         style="fill:#555555;fill-opacity:1;fill-rule:nonzero;stroke:none;display:inline;enable-background:new"
         d="m 3.1666667,30.029443 c -0.54208,-2.1e-5 -0.97524,0.373334 -1.1074234,0.872725 L 9,34.696553 15.940757,30.902612 C 15.808573,30.40322 15.375413,30.029908 14.833333,30.029887 z M 2,32.228342 2,38.83289 c 0,0.646333 0.5203333,1.166643 1.1666667,1.166667 L 14.833333,40 C 15.479667,40.000023 16,39.479667 16,38.833333 l 0,-6.604548 -7,3.871408 z"
         id="rect4927" />
    </g>
    <g
       id="g3803"
       style="opacity:0.1;fill:#ffffff;fill-opacity:1"
       transform="translate(0,-1)">
      <rect
         style="color:#000000;fill:#ffffff;fill-opacity:1;fill-rule:nonzero;stroke:none;stroke-width:2;marker:none;visibility:visible;display:inline;overflow:visible;enable-background:accumulate"
         id="rect3805"
         width="6"
         height="2"
         x="15"
         y="43" />
      <rect
         transform="matrix(0,1,1,0,0,0)"
         y="17"
         x="41"
         height="2"
         width="6"
         id="rect3807"
         style="color:#000000;fill:#ffffff;fill-opacity:1;fill-rule:nonzero;stroke:none;stroke-width:2;marker:none;visibility:visible;display:inline;overflow:visible;enable-background:accumulate" />
      <path
         id="path3809"
         d="m 3.1666667,30.029443 c -0.54208,-2.1e-5 -0.97524,0.373334 -1.1074234,0.872725 L 9,34.696553 15.940757,30.902612 C 15.808573,30.40322 15.375413,30.029908 14.833333,30.029887 z M 2,32.228342 2,38.83289 c 0,0.646333 0.5203333,1.166643 1.1666667,1.166667 L 14.833333,40 C 15.479667,40.000023 16,39.479667 16,38.833333 l 0,-6.604548 -7,3.871408 z"
         style="fill:#ffffff;fill-opacity:1;fill-rule:nonzero;stroke:none;display:inline;enable-background:new"
         inkscape:connector-curvature="0"
         sodipodi:nodetypes="scccsscssssccc" />
    </g>
  </g>
</svg>
