<?xml version="1.0" encoding="UTF-8" standalone="no"?>
<svg xmlns="http://www.w3.org/2000/svg" xmlns:xlink="http://www.w3.org/1999/xlink" xmlns:sodipodi="http://sodipodi.sourceforge.net/DTD/sodipodi-0.dtd" xmlns:inkscape="http://www.inkscape.org/namespaces/inkscape" width="22" height="22" version="1.1">
 <defs id="defs3497">
  <linearGradient id="linearGradient3764">
   <stop id="stop3766" stop-color="#555555"/>
   <stop offset="1" id="stop3768" stop-color="#666666"/>
  </linearGradient>
  <clipPath id="clipPath3669">
   <path d="M 0,96 96,96 96,0 0,0 0,96 z" id="path3671"/>
  </clipPath>
  <linearGradient inkscape:collect="always" xlink:href="#linearGradient3764" id="linearGradient3770" y1="24" x2="0" y2="0" gradientUnits="userSpaceOnUse"/>
  <linearGradient inkscape:collect="always" xlink:href="#linearGradient3764" id="linearGradient3801" gradientUnits="userSpaceOnUse" y1="24" x2="0" y2="0" gradientTransform="translate(-2,26)"/>
 </defs>
 <metadata id="metadata3500"/>
 <g id="layer1" inkscape:label="Layer 1" inkscape:groupmode="layer" transform="translate(1,-27)">
  <path d="M 1.5,28.15625 1.5,29 l 0,18 0,0.84375 0.75,-0.40625 16,-9 L 19.03125,38 18.25,37.5625 l -16,-9 -0.75,-0.40625 z" id="path4287" inkscape:connector-curvature="0" fill="url(#linearGradient3801)"/>
  <path id="path3762" d="M 1.5,28.15625 1.5,29 l 0,18 0,0.84375 0.75,-0.40625 16,-9 L 19.03125,38 18.25,37.5625 l -16,-9 -0.75,-0.40625 z" inkscape:connector-curvature="0" opacity="0.61" fill="none" stroke="#000000"/>
  <path d="M 2,29 2,30 17.125,38.5 18,38 2,29 z" id="path3787" inkscape:connector-curvature="0" opacity="0.2" fill="#ffffff"/>
 </g>
</svg>
