<?xml version="1.0" encoding="UTF-8" standalone="no"?>
<svg xmlns="http://www.w3.org/2000/svg" xmlns:xlink="http://www.w3.org/1999/xlink" xmlns:sodipodi="http://sodipodi.sourceforge.net/DTD/sodipodi-0.dtd" xmlns:inkscape="http://www.inkscape.org/namespaces/inkscape" width="22" height="22" version="1.1">
 <defs id="defs3497">
  <linearGradient id="linearGradient3792">
   <stop id="stop3794" stop-color="#555555"/>
   <stop offset="1" id="stop3796" stop-color="#666666"/>
  </linearGradient>
  <clipPath id="clipPath3669">
   <path d="M 0,96 96,96 96,0 0,0 0,96 z" id="path3671"/>
  </clipPath>
  <linearGradient inkscape:collect="always" xlink:href="#linearGradient3792" id="linearGradient3798" y1="22" x2="0" y2="0" gradientUnits="userSpaceOnUse"/>
  <radialGradient inkscape:collect="always" xlink:href="#linearGradient3952" id="radialGradient3960" gradientUnits="userSpaceOnUse" gradientTransform="matrix(1,0,0,0.75,-21,12.375)" cx="40" cy="43.5" r="2"/>
  <linearGradient inkscape:collect="always" id="linearGradient3952">
   <stop id="stop3954"/>
   <stop offset="1" id="stop3956" stop-opacity="0"/>
  </linearGradient>
  <radialGradient inkscape:collect="always" xlink:href="#linearGradient3952" id="radialGradient3957" gradientUnits="userSpaceOnUse" gradientTransform="matrix(1,0,0,0.75,-4,12.375)" cx="9" cy="43.5" r="2"/>
  <linearGradient inkscape:collect="always" xlink:href="#linearGradient3960" id="linearGradient3954" gradientUnits="userSpaceOnUse" gradientTransform="translate(-8,1.5)" y1="45" x2="0" y2="42"/>
  <linearGradient id="linearGradient3960">
   <stop id="stop3962" stop-opacity="0"/>
   <stop id="stop3970" offset="0.5"/>
   <stop offset="1" id="stop3964" stop-opacity="0"/>
  </linearGradient>
  <linearGradient inkscape:collect="always" xlink:href="#linearGradient3960" id="linearGradient3034" gradientUnits="userSpaceOnUse" gradientTransform="matrix(1.1428571,0,0,1,-11.857143,2)" y1="45" x2="0" y2="42"/>
  <radialGradient inkscape:collect="always" xlink:href="#linearGradient3952" id="radialGradient3037" gradientUnits="userSpaceOnUse" gradientTransform="matrix(1,0,0,0.75,-6,12.875)" cx="9" cy="43.5" r="2"/>
  <radialGradient inkscape:collect="always" xlink:href="#linearGradient3952" id="radialGradient3040" gradientUnits="userSpaceOnUse" gradientTransform="matrix(1,0,0,0.75,-21,12.875)" cx="40" cy="43.5" r="2"/>
 </defs>
 <metadata id="metadata3500"/>
 <g id="layer1" inkscape:label="Layer 1" inkscape:groupmode="layer" transform="translate(0,-26)">
  <g id="g3042" transform="translate(0,0.5)">
   <path inkscape:connector-curvature="0" id="rect3940" d="m 19,44 0,3 0.5,0 C 20.331,47 21,46.331 21,45.5 21,44.669 20.331,44 19.5,44 L 19,44 z" opacity="0.2" fill="url(#radialGradient3040)"/>
   <path inkscape:connector-curvature="0" id="rect3942" d="M 2.40625,44 C 1.6271875,44 1,44.627187 1,45.40625 l 0,0.1875 C 1,46.372813 1.6271875,47 2.40625,47 L 3,47 3,44 2.40625,44 z" opacity="0.2" fill="url(#radialGradient3037)"/>
   <path sodipodi:nodetypes="ccccc" inkscape:connector-curvature="0" id="rect3938" d="m 3,44 16,0 0,3 -16,0 z" opacity="0.2" fill="url(#linearGradient3034)"/>
  </g>
  <path d="M 2.5 2.5 L 2.5 3 L 2.5 19 L 2.5 19.5 L 3 19.5 L 19 19.5 L 19.5 19.5 L 19.5 19 L 19.5 3 L 19.5 2.5 L 19 2.5 L 3 2.5 L 2.5 2.5 z " transform="translate(0,26)" id="rect2998" fill="url(#linearGradient3798)" color="#000000" stroke-width="4"/>
  <path id="path3770" transform="translate(0,26)" d="M 2.5 2.5 L 2.5 3 L 2.5 19 L 2.5 19.5 L 3 19.5 L 19 19.5 L 19.5 19.5 L 19.5 19 L 19.5 3 L 19.5 2.5 L 19 2.5 L 3 2.5 L 2.5 2.5 z " opacity="0.61" fill="none" stroke="#000000" color="#000000"/>
  <path d="M 3 3 L 3 4 L 19 4 L 19 3 L 3 3 z " transform="translate(0,26)" id="path3772" opacity="0.2" fill="#ffffff" color="#000000" stroke-width="4"/>
 </g>
</svg>
