<?xml version="1.0" encoding="UTF-8" standalone="no"?>
<svg xmlns="http://www.w3.org/2000/svg" xmlns:xlink="http://www.w3.org/1999/xlink" xmlns:sodipodi="http://sodipodi.sourceforge.net/DTD/sodipodi-0.dtd" xmlns:inkscape="http://www.inkscape.org/namespaces/inkscape" width="22" height="22" version="1.1">
 <defs id="defs3497">
  <linearGradient id="linearGradient3762">
   <stop id="stop3764" stop-color="#555555"/>
   <stop offset="1" id="stop3766" stop-color="#666666"/>
  </linearGradient>
  <clipPath id="clipPath3669">
   <path d="M 0,96 96,96 96,0 0,0 0,96 z" id="path3671"/>
  </clipPath>
  <linearGradient inkscape:collect="always" xlink:href="#linearGradient3762" id="linearGradient3768" y1="22" x2="0" y2="0" gradientUnits="userSpaceOnUse"/>
 </defs>
 <metadata id="metadata3500"/>
 <g id="layer1" inkscape:label="Layer 1" inkscape:groupmode="layer" transform="translate(0,-26)">
  <path d="m 11,2.78125 -0.34375,0.375 -7,7 -0.15625,0.125 0,0.21875 0,0.5 0,0.5 0.5,0 14,0 0.5,0 0,-0.5 0,-0.5 0,-0.21875 -0.15625,-0.125 -7,-7 z M 3.5,14.5 l 0,0.5 0,3 0,0.5 0.5,0 14,0 0.5,0 0,-0.5 0,-3 0,-0.5 -0.5,0 -14,0 z" transform="translate(0,26)" id="path696" inkscape:connector-curvature="0" sodipodi:nodetypes="ccccccccccccccccccccccccccccc" fill="url(#linearGradient3768)" display="block" color="#000000"/>
  <path id="path3770" transform="translate(0,26)" d="m 11,2.78125 -0.34375,0.375 -7,7 -0.15625,0.125 0,0.21875 0,0.5 0,0.5 0.5,0 14,0 0.5,0 0,-0.5 0,-0.5 0,-0.21875 -0.15625,-0.125 -7,-7 z M 3.5,14.5 l 0,0.5 0,3 0,0.5 0.5,0 14,0 0.5,0 0,-0.5 0,-3 0,-0.5 -0.5,0 -14,0 z" inkscape:connector-curvature="0" sodipodi:nodetypes="ccccccccccccccccccccccccccccc" opacity="0.61" fill="none" display="block" stroke="#000000" color="#000000"/>
  <path d="M 10.96875,3.5 4,10.5 4,10.53125 4,11.5 10.96875,4.5 11,4.5 11.03125,4.5 18,11.5 18,10.53125 18,10.5 11.03125,3.5 11,3.5 z M 4,15 l 0,1 14,0 0,-1 z" transform="translate(0,26)" id="path3772" inkscape:connector-curvature="0" sodipodi:nodetypes="cccccccccccccccccc" opacity="0.2" fill="#ffffff" display="block" color="#000000"/>
 </g>
</svg>
