<?xml version="1.0" encoding="UTF-8" standalone="no"?>
<svg xmlns="http://www.w3.org/2000/svg" xmlns:xlink="http://www.w3.org/1999/xlink" xmlns:sodipodi="http://sodipodi.sourceforge.net/DTD/sodipodi-0.dtd" xmlns:inkscape="http://www.inkscape.org/namespaces/inkscape" width="22" height="22" version="1.1">
 <defs id="defs3497">
  <linearGradient id="linearGradient3865">
   <stop id="stop3867" stop-color="#555555"/>
   <stop offset="1" id="stop3869" stop-color="#666666"/>
  </linearGradient>
  <clipPath id="clipPath3669">
   <path d="M 0,96 96,96 96,0 0,0 0,96 z" id="path3671"/>
  </clipPath>
  <linearGradient inkscape:collect="always" xlink:href="#linearGradient3865" id="linearGradient3871" y1="48" x2="0" y2="26" gradientUnits="userSpaceOnUse"/>
 </defs>
 <metadata id="metadata3500"/>
 <g id="layer1" inkscape:label="Layer 1" inkscape:groupmode="layer" transform="translate(0,-26)">
  <path d="m 9.5,31.15625 0.75,0.40625 8.25,4.59375 0,-4.15625 0,-0.5 0.5,0 2,0 0.5,0 0,0.5 0,10 0,0.5 -0.5,0 -2,0 -0.5,0 0,-0.5 0,-4.15625 L 10.25,42.4375 9.5,42.84375 9.5,42 9.5,37.84375 1.25,42.4375 0.5,42.84375 0.5,42 0.5,32 0.5,31.15625 1.25,31.5625 9.5,36.15625 9.5,32 l 0,-0.84375 z" id="path5181" inkscape:connector-curvature="0" fill="url(#linearGradient3871)"/>
  <path id="path3762" d="m 9.5,31.15625 0.75,0.40625 8.25,4.59375 0,-4.15625 0,-0.5 0.5,0 2,0 0.5,0 0,0.5 0,10 0,0.5 -0.5,0 -2,0 -0.5,0 0,-0.5 0,-4.15625 L 10.25,42.4375 9.5,42.84375 9.5,42 9.5,37.84375 1.25,42.4375 0.5,42.84375 0.5,42 0.5,32 0.5,31.15625 1.25,31.5625 9.5,36.15625 9.5,32 l 0,-0.84375 z" inkscape:connector-curvature="0" opacity="0.61" fill="none" stroke="#000000"/>
  <path d="m 21,32 0,1 -2,0 0,-1 2,0 z M 10,32 18.25,36.59375 19,37 18.25,37.40625 18.09375,37.5 10,33 10,32 z M 1,32 9.25,36.59375 10,37 9.25,37.40625 9.09375,37.5 1,33 1,32 z" id="path3764" inkscape:connector-curvature="0" opacity="0.2" fill="#ffffff"/>
 </g>
</svg>
