<?xml version="1.0" encoding="UTF-8" standalone="no"?>
<svg xmlns="http://www.w3.org/2000/svg" xmlns:xlink="http://www.w3.org/1999/xlink" xmlns:sodipodi="http://sodipodi.sourceforge.net/DTD/sodipodi-0.dtd" xmlns:inkscape="http://www.inkscape.org/namespaces/inkscape" width="22" height="22" version="1.1">
 <defs id="defs3497">
  <linearGradient id="linearGradient3764">
   <stop id="stop3766" stop-color="#555555"/>
   <stop offset="1" id="stop3768" stop-color="#666666"/>
  </linearGradient>
  <clipPath id="clipPath3669">
   <path d="M 0,96 96,96 96,0 0,0 0,96 z" id="path3671"/>
  </clipPath>
  <linearGradient inkscape:collect="always" xlink:href="#linearGradient3764" id="linearGradient3770" y1="22" x2="0" y2="0" gradientUnits="userSpaceOnUse" gradientTransform="matrix(-1,0,0,1,22,26)"/>
  <linearGradient inkscape:collect="always" xlink:href="#linearGradient3764" id="linearGradient3780" gradientUnits="userSpaceOnUse" y1="22" x2="0" y2="0"/>
 </defs>
 <metadata id="metadata3500"/>
 <g id="layer1" inkscape:label="Layer 1" inkscape:groupmode="layer" transform="translate(0,-26)">
  <path d="m 10.5,31.15625 0.75,0.40625 9,5 L 21.03125,37 20.25,37.4375 l -9,5 L 10.5,42.84375 10.5,42 10.5,37.84375 2.25,42.4375 1.5,42.84375 1.5,42 l 0,-10 0,-0.84375 0.75,0.40625 8.25,4.59375 0,-4.15625 0,-0.84375 z" id="path5181" inkscape:connector-curvature="0" fill="url(#linearGradient3770)"/>
  <path id="path3762" d="m 10.5,31.15625 0.75,0.40625 9,5 L 21.03125,37 20.25,37.4375 l -9,5 L 10.5,42.84375 10.5,42 10.5,37.84375 2.25,42.4375 1.5,42.84375 1.5,42 l 0,-10 0,-0.84375 0.75,0.40625 8.25,4.59375 0,-4.15625 0,-0.84375 z" inkscape:connector-curvature="0" opacity="0.61" fill="none" stroke="#000000"/>
  <path d="m 11,32 9,5 -0.90625,0.5 L 11,33 11,32 z M 2,32 10.25,36.59375 11,37 10.25,37.40625 10.09375,37.5 2,33 2,32 z" id="path3772" inkscape:connector-curvature="0" opacity="0.2" fill="#ffffff"/>
 </g>
</svg>
