<?xml version="1.0" encoding="UTF-8" standalone="no"?>
<!-- Created with Inkscape (http://www.inkscape.org/) -->

<svg
   xmlns:dc="http://purl.org/dc/elements/1.1/"
   xmlns:cc="http://creativecommons.org/ns#"
   xmlns:rdf="http://www.w3.org/1999/02/22-rdf-syntax-ns#"
   xmlns:svg="http://www.w3.org/2000/svg"
   xmlns="http://www.w3.org/2000/svg"
   xmlns:xlink="http://www.w3.org/1999/xlink"
   xmlns:sodipodi="http://sodipodi.sourceforge.net/DTD/sodipodi-0.dtd"
   xmlns:inkscape="http://www.inkscape.org/namespaces/inkscape"
   width="22"
   height="22"
   id="svg3495"
   version="1.1"
   inkscape:version="0.48.4 r9939"
   sodipodi:docname="media-skip-forward.svg">
  <defs
     id="defs3497">
    <linearGradient
       id="linearGradient3865">
      <stop
         style="stop-color:#555555;stop-opacity:1;"
         offset="0"
         id="stop3867" />
      <stop
         style="stop-color:#666666;stop-opacity:1;"
         offset="1"
         id="stop3869" />
    </linearGradient>
    <clipPath
       clipPathUnits="userSpaceOnUse"
       id="clipPath3669">
      <path
         inkscape:connector-curvature="0"
         d="M 0,96 96,96 96,0 0,0 0,96 z"
         id="path3671" />
    </clipPath>
    <linearGradient
       inkscape:collect="always"
       xlink:href="#linearGradient3865"
       id="linearGradient3871"
       x1="12"
       y1="48"
       x2="12"
       y2="26"
       gradientUnits="userSpaceOnUse"
       gradientTransform="matrix(-1,0,0,1,22,0)" />
  </defs>
  <sodipodi:namedview
     id="base"
     pagecolor="#ffffff"
     bordercolor="#666666"
     borderopacity="1.0"
     inkscape:pageopacity="0.0"
     inkscape:pageshadow="2"
     inkscape:zoom="1"
     inkscape:cx="16.280144"
     inkscape:cy="9.2007257"
     inkscape:current-layer="layer1"
     showgrid="false"
     showborder="false"
     inkscape:grid-bbox="true"
     inkscape:document-units="px"
     inkscape:window-width="1364"
     inkscape:window-height="700"
     inkscape:window-x="0"
     inkscape:window-y="28"
     inkscape:window-maximized="1"
     inkscape:snap-bbox="true"
     inkscape:bbox-paths="true"
     inkscape:bbox-nodes="true"
     inkscape:snap-bbox-edge-midpoints="false"
     showguides="true"
     inkscape:guide-bbox="true">
    <inkscape:grid
       type="xygrid"
       id="grid3512"
       empspacing="4"
       visible="true"
       enabled="true"
       snapvisiblegridlinesonly="true"
       dotted="false" />
  </sodipodi:namedview>
  <metadata
     id="metadata3500">
    <rdf:RDF>
      <cc:Work
         rdf:about="">
        <dc:format>image/svg+xml</dc:format>
        <dc:type
           rdf:resource="http://purl.org/dc/dcmitype/StillImage" />
        <dc:title></dc:title>
      </cc:Work>
    </rdf:RDF>
  </metadata>
  <g
     id="layer1"
     inkscape:label="Layer 1"
     inkscape:groupmode="layer"
     transform="translate(0,-26)">
    <path
       style="fill:url(#linearGradient3871);fill-opacity:1;stroke:none"
       d="M 12.5,31.15625 11.75,31.5625 3.5,36.15625 3.5,32 l 0,-0.5 -0.5,0 -2,0 -0.5,0 0,0.5 0,10 0,0.5 0.5,0 2,0 0.5,0 0,-0.5 0,-4.15625 8.25,4.59375 0.75,0.40625 0,-0.84375 0,-4.15625 8.25,4.59375 0.75,0.40625 0,-0.84375 0,-10 0,-0.84375 -0.75,0.40625 -8.25,4.59375 0,-4.15625 0,-0.84375 z"
       id="path5181"
       inkscape:connector-curvature="0" />
    <path
       id="path3762"
       d="M 12.5,31.15625 11.75,31.5625 3.5,36.15625 3.5,32 l 0,-0.5 -0.5,0 -2,0 -0.5,0 0,0.5 0,10 0,0.5 0.5,0 2,0 0.5,0 0,-0.5 0,-4.15625 8.25,4.59375 0.75,0.40625 0,-0.84375 0,-4.15625 8.25,4.59375 0.75,0.40625 0,-0.84375 0,-10 0,-0.84375 -0.75,0.40625 -8.25,4.59375 0,-4.15625 0,-0.84375 z"
       style="opacity:0.61000001;fill:none;stroke:#000000;stroke-opacity:1"
       inkscape:connector-curvature="0" />
    <path
       style="opacity:0.2;fill:#ffffff;fill-opacity:1;stroke:none"
       d="m 1,32 0,1 2,0 0,-1 -2,0 z M 12,32 3.75,36.59375 3,37 3.75,37.40625 3.90625,37.5 12,33 12,32 z m 9,0 -8.25,4.59375 L 12,37 12.75,37.40625 12.90625,37.5 21,33 21,32 z"
       id="path3764"
       inkscape:connector-curvature="0" />
  </g>
</svg>
