<?xml version="1.0" encoding="UTF-8" standalone="no"?>
<svg xmlns="http://www.w3.org/2000/svg" xmlns:xlink="http://www.w3.org/1999/xlink" xmlns:sodipodi="http://sodipodi.sourceforge.net/DTD/sodipodi-0.dtd" xmlns:inkscape="http://www.inkscape.org/namespaces/inkscape" width="22" height="22" version="1.1">
 <defs id="defs3497">
  <linearGradient id="linearGradient4368">
   <stop id="stop4370" stop-color="#a0a0a0"/>
   <stop offset="1" id="stop4372" stop-color="#ffffff"/>
  </linearGradient>
  <linearGradient id="linearGradient4342">
   <stop id="stop4344" stop-opacity="0"/>
   <stop id="stop4352" offset="0.1"/>
   <stop id="stop4350" offset="0.9"/>
   <stop offset="1" id="stop4346" stop-opacity="0"/>
  </linearGradient>
  <clipPath id="clipPath3669">
   <path d="M 0,96 96,96 96,0 0,0 0,96 z" id="path3671"/>
  </clipPath>
  <linearGradient inkscape:collect="always" xlink:href="#linearGradient3821" id="linearGradient3793" y1="22" x2="0" y2="-2" gradientUnits="userSpaceOnUse" gradientTransform="translate(0,26)"/>
  <linearGradient id="linearGradient3821">
   <stop id="stop3823" stop-color="#cccccc" stop-opacity="0"/>
   <stop id="stop4356" offset="0.1" stop-color="#cccccc"/>
   <stop id="stop4354" offset="0.9" stop-color="#cccccc"/>
   <stop offset="1" id="stop3825" stop-color="#cccccc" stop-opacity="0"/>
  </linearGradient>
  <linearGradient y2="-2" x2="0" y1="22" gradientTransform="translate(31.883514,24.756453)" gradientUnits="userSpaceOnUse" id="linearGradient3011" xlink:href="#linearGradient3821" inkscape:collect="always"/>
  <linearGradient inkscape:collect="always" xlink:href="#linearGradient3821" id="linearGradient3810" gradientUnits="userSpaceOnUse" y1="22" x2="0" y2="0"/>
  <radialGradient inkscape:collect="always" xlink:href="#linearGradient3952" id="radialGradient3960" gradientUnits="userSpaceOnUse" gradientTransform="matrix(1,0,0,0.75,-21,12.375)" cx="40" cy="43.5" r="2"/>
  <linearGradient inkscape:collect="always" id="linearGradient3952">
   <stop id="stop3954"/>
   <stop offset="1" id="stop3956" stop-opacity="0"/>
  </linearGradient>
  <radialGradient inkscape:collect="always" xlink:href="#linearGradient3952" id="radialGradient3957" gradientUnits="userSpaceOnUse" gradientTransform="matrix(1,0,0,0.75,-4,12.375)" cx="9" cy="43.5" r="2"/>
  <linearGradient inkscape:collect="always" xlink:href="#linearGradient3960" id="linearGradient3954" gradientUnits="userSpaceOnUse" gradientTransform="translate(-8,1.5)" y1="45" x2="0" y2="42"/>
  <linearGradient id="linearGradient3960">
   <stop id="stop3962" stop-opacity="0"/>
   <stop id="stop3970" offset="0.5"/>
   <stop offset="1" id="stop3964" stop-opacity="0"/>
  </linearGradient>
  <linearGradient inkscape:collect="always" xlink:href="#linearGradient3960" id="linearGradient4055" gradientUnits="userSpaceOnUse" gradientTransform="translate(-9,-1)" y1="45" x2="0" y2="42"/>
  <linearGradient inkscape:collect="always" xlink:href="#linearGradient3960" id="linearGradient4055-2" gradientUnits="userSpaceOnUse" gradientTransform="translate(-9,-1)" y1="45" x2="0" y2="42"/>
  <linearGradient inkscape:collect="always" xlink:href="#linearGradient3821" id="linearGradient3261" gradientUnits="userSpaceOnUse" x1="22" x2="0" gradientTransform="translate(0,23)"/>
  <linearGradient inkscape:collect="always" xlink:href="#linearGradient4342" id="linearGradient4348" x1="1" x2="21" gradientUnits="userSpaceOnUse" gradientTransform="translate(0,-4)"/>
  <linearGradient inkscape:collect="always" xlink:href="#linearGradient4368" id="linearGradient4374" x1="7.5" x2="13.5" gradientUnits="userSpaceOnUse" gradientTransform="translate(23,-49)"/>
  <linearGradient x2="15" x1="11" gradientUnits="userSpaceOnUse" id="linearGradient3021" xlink:href="#linearGradient3760" inkscape:collect="always"/>
  <linearGradient id="outerBackgroundGradient-4">
   <stop id="stop3864-8-6-6" stop-color="#f0f0f0"/>
   <stop offset="1" id="stop3866-9-1-7" stop-color="#f9f9f9"/>
  </linearGradient>
  <radialGradient inkscape:collect="always" xlink:href="#linearGradient3952" id="radialGradient3872" cx="16.5" cy="20.5" r="5.5" gradientTransform="matrix(1,0,0,0.27272727,0,14.909091)" gradientUnits="userSpaceOnUse"/>
  <linearGradient inkscape:collect="always" xlink:href="#linearGradient3760" id="linearGradient3802" y1="0" x2="0" y2="22" gradientUnits="userSpaceOnUse"/>
  <linearGradient id="linearGradient3760">
   <stop id="stop3762" stop-color="#e44343"/>
   <stop offset="1" id="stop3764" stop-color="#ac0808"/>
  </linearGradient>
  <linearGradient inkscape:collect="always" xlink:href="#linearGradient3904" id="linearGradient3902" y1="16" x2="0" y2="8" gradientUnits="userSpaceOnUse" gradientTransform="matrix(1.49,0,0,1.49,-0.8475,24.15)"/>
  <linearGradient id="linearGradient3904">
   <stop id="stop3906" stop-color="#104b88"/>
   <stop id="stop3908" offset="1" stop-color="#0e7398"/>
  </linearGradient>
  <linearGradient y2="9" x2="0" y1="15" gradientTransform="translate(0.5,0.5)" gradientUnits="userSpaceOnUse" id="linearGradient3076" xlink:href="#linearGradient3886" inkscape:collect="always"/>
  <linearGradient inkscape:collect="always" id="linearGradient3886">
   <stop id="stop3888" stop-color="#5097e1"/>
   <stop offset="1" id="stop3890" stop-color="#53d0ff"/>
  </linearGradient>
  <linearGradient y2="9" x2="0" y1="15" gradientTransform="matrix(1.49,0,0,1.49,-0.8475,24.15)" gradientUnits="userSpaceOnUse" id="linearGradient3040" xlink:href="#linearGradient3886" inkscape:collect="always"/>
  <linearGradient inkscape:collect="always" xlink:href="#linearGradient3886" id="linearGradient4497" gradientUnits="userSpaceOnUse" gradientTransform="matrix(1.49,0,0,1.49,-0.8475,-1.85)" y1="15" x2="0" y2="9"/>
  <radialGradient inkscape:collect="always" xlink:href="#linearGradient3952" id="radialGradient3917" cx="11" cy="10.5" r="10" gradientTransform="matrix(1,0,0,0.25,0,7.875)" gradientUnits="userSpaceOnUse"/>
 </defs>
 <metadata id="metadata3500"/>
 <g id="layer1" inkscape:label="Layer 1" inkscape:groupmode="layer" transform="translate(0,-26)">
  <path transform="translate(0,25)" sodipodi:type="arc" id="path3141" sodipodi:cx="11" sodipodi:cy="10.5" sodipodi:rx="10" sodipodi:ry="2.5" d="m 21,10.5 a 10,2.5 0 1 1 -20,0 10,2.5 0 1 1 20,0 z" opacity="0.3" fill="url(#radialGradient3917)" stroke="#ffffff" stroke-linejoin="round" stroke-linecap="round" stroke-width="0"/>
  <path inkscape:connector-curvature="0" d="m 1.5,32.5 0,0.5 0,1 0,0.5 0.5,0 18,0 0.5,0 0,-0.5 0,-1 0,-0.5 -0.5,0 -18,0 z" id="path3091" sodipodi:nodetypes="ccccccccccccc" fill="url(#linearGradient3261)"/>
  <path inkscape:connector-curvature="0" id="path3093" d="m 1.5,32.5 0,0.5 0,1 0,0.5 0.5,0 18,0 0.5,0 0,-0.5 0,-1 0,-0.5 -0.5,0 -18,0 z" sodipodi:nodetypes="ccccccccccccc" opacity="0.61" fill="none" stroke="url(#linearGradient4348)"/>
  <rect id="rect4358" width="6" height="6" x="30.5" y="-14.5" transform="matrix(0,1,-1,0,0,0)" fill="url(#linearGradient4374)"/>
  <rect y="30.5" x="8.5" height="6" width="6" id="rect4360" opacity="0.41" fill="none" stroke="#000000"/>
  <path d="m 9,31 0,1 0,0 1,0 0,0 4,0 0,-1 -4,0 z" id="rect4366" inkscape:connector-curvature="0" sodipodi:nodetypes="ccccccccc" opacity="0.4" fill="#ffffff"/>
  <path d="m 15.5,37.5 0,3 -3,0 0,3 3,0 0,3 3,0 0,-3 3,0 0,-3 -3,0 0,-3 z" id="rect3881" inkscape:connector-curvature="0" sodipodi:nodetypes="ccccccccccccc" fill="url(#linearGradient3040)"/>
  <path inkscape:connector-curvature="0" id="path3894" d="m 15.5,37.5 0,3 -3,0 0,3 3,0 0,3 3,0 0,-3 3,0 0,-3 -3,0 0,-3 z" sodipodi:nodetypes="ccccccccccccc" opacity="0.81" fill="none" stroke="url(#linearGradient3902)"/>
  <path d="M 16 12 L 16 13 L 18 13 L 18 12 L 16 12 z M 13 15 L 13 16 L 15.5 16 L 16 16 L 16 15.5 L 16 15 L 15.5 15 L 13 15 z M 18 15 L 18 15.5 L 18 16 L 18.5 16 L 21 16 L 21 15 L 18.5 15 L 18 15 z " transform="translate(0,26)" id="path4487" opacity="0.4" fill="#ffffff"/>
 </g>
</svg>
