<?xml version="1.0" encoding="UTF-8" standalone="no"?>
<!-- Created with Inkscape (http://www.inkscape.org/) -->

<svg
   xmlns:dc="http://purl.org/dc/elements/1.1/"
   xmlns:cc="http://creativecommons.org/ns#"
   xmlns:rdf="http://www.w3.org/1999/02/22-rdf-syntax-ns#"
   xmlns:svg="http://www.w3.org/2000/svg"
   xmlns="http://www.w3.org/2000/svg"
   xmlns:xlink="http://www.w3.org/1999/xlink"
   xmlns:sodipodi="http://sodipodi.sourceforge.net/DTD/sodipodi-0.dtd"
   xmlns:inkscape="http://www.inkscape.org/namespaces/inkscape"
   width="22"
   height="22"
   id="svg3495"
   version="1.1"
   inkscape:version="0.48.4 r9939"
   sodipodi:docname="object-rotate-right.svg">
  <defs
     id="defs3497">
    <linearGradient
       inkscape:collect="always"
       xlink:href="#linearGradient3821"
       id="linearGradient2997"
       gradientUnits="userSpaceOnUse"
       x1="12"
       y1="22"
       x2="12"
       y2="-2"
       gradientTransform="translate(0,26)" />
    <linearGradient
       id="linearGradient3821">
      <stop
         style="stop-color:#555555;stop-opacity:1;"
         offset="0"
         id="stop3823" />
      <stop
         style="stop-color:#666666;stop-opacity:1;"
         offset="1"
         id="stop3825" />
    </linearGradient>
    <linearGradient
       y2="-2"
       x2="12"
       y1="22"
       x1="12"
       gradientUnits="userSpaceOnUse"
       id="linearGradient3967"
       xlink:href="#linearGradient3821"
       inkscape:collect="always"
       gradientTransform="translate(12.46875,43.03125)" />
    <linearGradient
       inkscape:collect="always"
       xlink:href="#linearGradient3821"
       id="linearGradient3798"
       x1="11"
       y1="22"
       x2="11"
       y2="0"
       gradientUnits="userSpaceOnUse" />
    <linearGradient
       inkscape:collect="always"
       xlink:href="#linearGradient3821"
       id="linearGradient3826"
       gradientUnits="userSpaceOnUse"
       x1="11"
       y1="22"
       x2="11"
       y2="0" />
    <radialGradient
       inkscape:collect="always"
       xlink:href="#linearGradient3949"
       id="radialGradient3993"
       gradientUnits="userSpaceOnUse"
       gradientTransform="matrix(1,0,0,0.22222222,0,15.555556)"
       cx="11"
       cy="20"
       fx="11"
       fy="20"
       r="9" />
    <linearGradient
       inkscape:collect="always"
       id="linearGradient3949">
      <stop
         style="stop-color:#000000;stop-opacity:1;"
         offset="0"
         id="stop3951" />
      <stop
         style="stop-color:#000000;stop-opacity:0;"
         offset="1"
         id="stop3953" />
    </linearGradient>
    <radialGradient
       inkscape:collect="always"
       xlink:href="#linearGradient3949"
       id="radialGradient3997"
       gradientUnits="userSpaceOnUse"
       gradientTransform="matrix(1,0,0,0.22222222,0,15.555556)"
       cx="11"
       cy="20"
       fx="11"
       fy="20"
       r="9" />
    <radialGradient
       r="9"
       fy="20"
       fx="11"
       cy="20"
       cx="11"
       gradientTransform="matrix(1,0,0,0.22222222,0,15.555556)"
       gradientUnits="userSpaceOnUse"
       id="radialGradient4804"
       xlink:href="#linearGradient3949"
       inkscape:collect="always" />
  </defs>
  <sodipodi:namedview
     id="base"
     pagecolor="#ffffff"
     bordercolor="#666666"
     borderopacity="1.0"
     inkscape:pageopacity="0.0"
     inkscape:pageshadow="2"
     inkscape:zoom="1"
     inkscape:cx="11"
     inkscape:cy="4"
     inkscape:current-layer="layer1"
     showgrid="false"
     showborder="false"
     inkscape:grid-bbox="true"
     inkscape:document-units="px"
     inkscape:window-width="1364"
     inkscape:window-height="700"
     inkscape:window-x="0"
     inkscape:window-y="28"
     inkscape:window-maximized="1"
     inkscape:snap-bbox="true"
     inkscape:bbox-nodes="true">
    <inkscape:grid
       type="xygrid"
       id="grid3512"
       empspacing="4"
       visible="true"
       enabled="true"
       snapvisiblegridlinesonly="true"
       dotted="false" />
  </sodipodi:namedview>
  <metadata
     id="metadata3500">
    <rdf:RDF>
      <cc:Work
         rdf:about="">
        <dc:format>image/svg+xml</dc:format>
        <dc:type
           rdf:resource="http://purl.org/dc/dcmitype/StillImage" />
        <dc:title />
      </cc:Work>
    </rdf:RDF>
  </metadata>
  <g
     id="layer1"
     inkscape:label="Layer 1"
     inkscape:groupmode="layer"
     transform="translate(0,-26)">
    <g
       transform="translate(0,-1)"
       id="g4507">
      <path
         d="m 20,20 c 0,1.104569 -4.029437,2 -9,2 -4.9705627,0 -9,-0.895431 -9,-2 0,-1.104569 4.0294373,-2 9,-2 4.970563,0 9,0.895431 9,2 z"
         sodipodi:ry="2"
         sodipodi:rx="9"
         sodipodi:cy="20"
         sodipodi:cx="11"
         id="path3163"
         style="opacity:0.4;fill:url(#radialGradient3993);fill-opacity:1;stroke:none"
         sodipodi:type="arc"
         transform="matrix(1,0,0,1.5,0,15)" />
      <path
         transform="matrix(0.66666667,0,0,1,3.6666666,26)"
         sodipodi:type="arc"
         style="opacity:0.8;fill:url(#radialGradient4804);fill-opacity:1;stroke:none"
         id="path3995"
         sodipodi:cx="11"
         sodipodi:cy="20"
         sodipodi:rx="9"
         sodipodi:ry="2"
         d="m 20,20 c 0,1.104569 -4.029437,2 -9,2 -4.9705627,0 -9,-0.895431 -9,-2 0,-1.104569 4.0294373,-2 9,-2 4.970563,0 9,0.895431 9,2 z" />
    </g>
    <path
       style="font-size:medium;font-style:normal;font-variant:normal;font-weight:normal;font-stretch:normal;text-indent:0;text-align:start;text-decoration:none;line-height:normal;letter-spacing:normal;word-spacing:normal;text-transform:none;direction:ltr;block-progression:tb;writing-mode:lr-tb;text-anchor:start;baseline-shift:baseline;color:#000000;fill:url(#linearGradient3798);fill-opacity:1;stroke:none;stroke-width:1;marker:none;visibility:visible;display:inline;overflow:visible;enable-background:accumulate;font-family:Sans;-inkscape-font-specification:Sans"
       d="M 10.8125 2.53125 C 10.002186 2.5485994 9.1904839 2.6524875 8.40625 2.90625 C 7.3210201 3.256048 6.3031489 3.813725 5.4375 4.5625 C 4.5684867 5.310007 3.879309 6.198439 3.375 7.21875 C 2.8914987 8.203659 2.6122431 9.274584 2.53125 10.375 C 2.5156694 10.584561 2.5 10.790841 2.5 11 C 2.5 11.886488 2.6357547 12.751862 2.90625 13.59375 C 3.2547481 14.679006 3.8154739 15.695638 4.5625 16.5625 C 5.3095691 17.429536 6.1984392 18.119518 7.21875 18.625 C 8.2049713 19.111878 9.2774281 19.387736 10.375 19.46875 C 10.572048 19.48349 10.767868 19.5 10.96875 19.5 L 11 19.5 C 11.87579 19.5 12.765378 19.359081 13.59375 19.09375 C 13.60245 19.09095 13.61631 19.09655 13.625 19.09375 C 14.698666 18.745426 15.700452 18.179156 16.5625 17.4375 C 17.430179 16.688885 18.12135 15.803363 18.625 14.78125 L 18.84375 14.3125 L 18.40625 14.09375 L 16.375 13.09375 L 15.9375 12.875 L 15.71875 13.3125 C 15.407869 13.937619 14.972437 14.475142 14.4375 14.9375 C 13.900892 15.398794 13.319871 15.753358 12.65625 15.96875 C 12.137801 16.135753 11.600809 16.21875 11.0625 16.21875 C 10.924649 16.21735 10.776817 16.19715 10.65625 16.1875 C 9.9721663 16.1371 9.3208816 15.953293 8.71875 15.65625 C 8.0958749 15.349161 7.5581906 14.944059 7.09375 14.40625 C 6.6325953 13.872599 6.2779226 13.257466 6.0625 12.59375 C 5.8978738 12.081134 5.8125 11.547501 5.8125 11 C 5.8125 10.870425 5.833666 10.728208 5.84375 10.59375 C 5.893378 9.91908 6.0763382 9.291535 6.375 8.6875 C 6.6836972 8.06207 7.0910917 7.523786 7.625 7.0625 C 8.1598837 6.60086 8.7744897 6.245773 9.4375 6.03125 C 10.054617 5.833507 10.722461 5.774182 11.4375 5.8125 C 12.095737 5.86118 12.751213 6.0189 13.34375 6.3125 C 13.631462 6.454493 13.91015 6.689604 14.1875 6.90625 L 13.21875 7.75 L 12.46875 8.40625 L 13.4375 8.625 L 18.46875 9.8125 L 19.125 9.96875 L 19.0625 9.28125 L 18.6875 4.125 L 18.625 3.15625 L 17.875 3.78125 L 16.71875 4.78125 C 16.13238 4.238272 15.50452 3.73103 14.78125 3.375 C 13.797189 2.886088 12.732234 2.61295 11.625 2.53125 C 11.358132 2.5155725 11.082605 2.5254669 10.8125 2.53125 z M 11 9.5 C 10.177495 9.5 9.5 10.177495 9.5 11 C 9.5 11.822505 10.177495 12.5 11 12.5 C 11.822505 12.5 12.5 11.822505 12.5 11 C 12.5 10.177495 11.822505 9.5 11 9.5 z "
       transform="translate(0,26)"
       id="path3010" />
    <g
       id="g4776"
       style="opacity:0.1;fill:#ffffff;fill-opacity:1"
       transform="matrix(0.5,0,0,0.5,-4.7888345,23.000001)" />
    <path
       id="path3814"
       transform="translate(0,26)"
       d="M 10.8125 2.53125 C 10.002186 2.5485994 9.1904839 2.6524875 8.40625 2.90625 C 7.3210201 3.256048 6.3031489 3.813725 5.4375 4.5625 C 4.5684867 5.310007 3.879309 6.198439 3.375 7.21875 C 2.8914987 8.203659 2.6122431 9.274584 2.53125 10.375 C 2.5156694 10.584561 2.5 10.790841 2.5 11 C 2.5 11.886488 2.6357547 12.751862 2.90625 13.59375 C 3.2547481 14.679006 3.8154739 15.695638 4.5625 16.5625 C 5.3095691 17.429536 6.1984392 18.119518 7.21875 18.625 C 8.2049713 19.111878 9.2774281 19.387736 10.375 19.46875 C 10.572048 19.48349 10.767868 19.5 10.96875 19.5 L 11 19.5 C 11.87579 19.5 12.765378 19.359081 13.59375 19.09375 C 13.60245 19.09095 13.61631 19.09655 13.625 19.09375 C 14.698666 18.745426 15.700452 18.179156 16.5625 17.4375 C 17.430179 16.688885 18.12135 15.803363 18.625 14.78125 L 18.84375 14.3125 L 18.40625 14.09375 L 16.375 13.09375 L 15.9375 12.875 L 15.71875 13.3125 C 15.407869 13.937619 14.972437 14.475142 14.4375 14.9375 C 13.900892 15.398794 13.319871 15.753358 12.65625 15.96875 C 12.137801 16.135753 11.600809 16.21875 11.0625 16.21875 C 10.924649 16.21735 10.776817 16.19715 10.65625 16.1875 C 9.9721663 16.1371 9.3208816 15.953293 8.71875 15.65625 C 8.0958749 15.349161 7.5581906 14.944059 7.09375 14.40625 C 6.6325953 13.872599 6.2779226 13.257466 6.0625 12.59375 C 5.8978738 12.081134 5.8125 11.547501 5.8125 11 C 5.8125 10.870425 5.833666 10.728208 5.84375 10.59375 C 5.893378 9.91908 6.0763382 9.291535 6.375 8.6875 C 6.6836972 8.06207 7.0910917 7.523786 7.625 7.0625 C 8.1598837 6.60086 8.7744897 6.245773 9.4375 6.03125 C 10.054617 5.833507 10.722461 5.774182 11.4375 5.8125 C 12.095737 5.86118 12.751213 6.0189 13.34375 6.3125 C 13.631462 6.454493 13.91015 6.689604 14.1875 6.90625 L 13.21875 7.75 L 12.46875 8.40625 L 13.4375 8.625 L 18.46875 9.8125 L 19.125 9.96875 L 19.0625 9.28125 L 18.6875 4.125 L 18.625 3.15625 L 17.875 3.78125 L 16.71875 4.78125 C 16.13238 4.238272 15.50452 3.73103 14.78125 3.375 C 13.797189 2.886088 12.732234 2.61295 11.625 2.53125 C 11.358132 2.5155725 11.082605 2.5254669 10.8125 2.53125 z M 11 9.5 C 10.177495 9.5 9.5 10.177495 9.5 11 C 9.5 11.822505 10.177495 12.5 11 12.5 C 11.822505 12.5 12.5 11.822505 12.5 11 C 12.5 10.177495 11.822505 9.5 11 9.5 z "
       style="font-size:medium;font-style:normal;font-variant:normal;font-weight:normal;font-stretch:normal;text-indent:0;text-align:start;text-decoration:none;line-height:normal;letter-spacing:normal;word-spacing:normal;text-transform:none;direction:ltr;block-progression:tb;writing-mode:lr-tb;text-anchor:start;baseline-shift:baseline;color:#000000;fill:none;fill-opacity:1;stroke:#000000;stroke-width:1;marker:none;visibility:visible;display:inline;overflow:visible;enable-background:accumulate;font-family:Sans;-inkscape-font-specification:Sans;stroke-opacity:1;opacity:0.61" />
    <path
       style="font-size:medium;font-style:normal;font-variant:normal;font-weight:normal;font-stretch:normal;text-indent:0;text-align:start;text-decoration:none;line-height:normal;letter-spacing:normal;word-spacing:normal;text-transform:none;direction:ltr;block-progression:tb;writing-mode:lr-tb;text-anchor:start;baseline-shift:baseline;color:#000000;fill:#ffffff;fill-opacity:1;stroke:none;stroke-width:1;marker:none;visibility:visible;display:inline;overflow:visible;enable-background:accumulate;font-family:Sans;-inkscape-font-specification:Sans;opacity:0.2"
       d="M 10.8125 3.03125 C 10.037748 3.047838 9.2886157 3.140043 8.5625 3.375 C 7.5380724 3.7052 6.5618789 4.235235 5.75 4.9375 C 4.9303939 5.642508 4.2877184 6.476045 3.8125 7.4375 C 3.3586196 8.36207 3.10781 9.366058 3.03125 10.40625 C 3.01563 10.616336 3 10.815813 3 11 C 3 11.135779 3.0248413 11.271832 3.03125 11.40625 C 3.10781 10.366058 3.3586196 9.36207 3.8125 8.4375 C 4.2877184 7.476045 4.9303939 6.642508 5.75 5.9375 C 6.5618789 5.235235 7.5380724 4.7052 8.5625 4.375 C 9.2886157 4.140043 10.037748 4.04784 10.8125 4.03125 C 11.087532 4.02535 11.35929 4.01748 11.59375 4.03125 C 12.642887 4.10866 13.640715 4.354529 14.5625 4.8125 C 15.219809 5.136061 15.805282 5.628692 16.375 6.15625 L 16.71875 6.4375 L 17.03125 6.15625 L 18.1875 5.15625 L 18.5 9.28125 L 18.5625 9.3125 L 18.1875 4.15625 L 17.03125 5.15625 L 16.71875 5.4375 L 16.375 5.15625 C 15.805282 4.628692 15.219809 4.136061 14.5625 3.8125 C 13.640715 3.354529 12.642887 3.10866 11.59375 3.03125 C 11.35929 3.01748 11.087532 3.02535 10.8125 3.03125 z M 14.375 7.40625 L 13.5625 8.125 L 14.46875 8.34375 L 14.53125 8.28125 L 14.96875 7.875 L 14.5 7.5 C 14.461198 7.4696905 14.415344 7.4373982 14.375 7.40625 z M 11 10 C 10.452061 10 10 10.452061 10 11 C 10 11.185846 10.066139 11.350111 10.15625 11.5 C 10.331818 11.207963 10.637907 11 11 11 C 11.362093 11 11.668182 11.207963 11.84375 11.5 C 11.933861 11.350111 12 11.185846 12 11 C 12 10.452061 11.547939 10 11 10 z M 5.34375 11.5625 C 5.335602 11.671145 5.3125 11.815975 5.3125 12 C 5.3125 12.599479 5.4136229 13.189117 5.59375 13.75 C 5.8309167 14.48071 6.2162356 15.137237 6.71875 15.71875 C 7.2267795 16.307034 7.8230611 16.760007 8.5 17.09375 C 9.1570279 17.417874 9.8752689 17.632263 10.625 17.6875 C 10.72265 17.6953 10.879441 17.71689 11.0625 17.71875 C 11.652203 17.71875 12.244162 17.62057 12.8125 17.4375 C 13.547863 17.198823 14.174139 16.807538 14.75 16.3125 C 15.328428 15.812552 15.813367 15.220719 16.15625 14.53125 L 17.75 15.3125 C 17.907528 15.065955 18.056163 14.829036 18.1875 14.5625 L 18.1875 14.53125 L 16.15625 13.53125 C 15.813367 14.220719 15.328428 14.812552 14.75 15.3125 C 14.174139 15.807538 13.547863 16.198823 12.8125 16.4375 C 12.244162 16.62057 11.652203 16.71875 11.0625 16.71875 C 10.879441 16.71689 10.72265 16.6953 10.625 16.6875 C 9.8752689 16.632263 9.1570279 16.417874 8.5 16.09375 C 7.8230611 15.760007 7.2267795 15.307034 6.71875 14.71875 C 6.2162356 14.137237 5.8309167 13.48071 5.59375 12.75 C 5.4714556 12.369197 5.3862881 11.963893 5.34375 11.5625 z "
       transform="translate(0,26)"
       id="path3816" />
  </g>
</svg>
