<?xml version="1.0" encoding="UTF-8" standalone="no"?>
<svg xmlns="http://www.w3.org/2000/svg" xmlns:xlink="http://www.w3.org/1999/xlink" xmlns:sodipodi="http://sodipodi.sourceforge.net/DTD/sodipodi-0.dtd" xmlns:inkscape="http://www.inkscape.org/namespaces/inkscape" width="22" height="22" version="1.1">
 <defs id="defs3497">
  <clipPath id="clipPath3669">
   <path d="M 0,96 96,96 96,0 0,0 0,96 z" id="path3671"/>
  </clipPath>
  <linearGradient inkscape:collect="always" xlink:href="#linearGradient3821" id="linearGradient3827" y1="16" x2="0" y2="0" gradientUnits="userSpaceOnUse"/>
  <linearGradient id="linearGradient3821">
   <stop id="stop3823" stop-color="#555555"/>
   <stop offset="1" id="stop3825" stop-color="#666666"/>
  </linearGradient>
  <linearGradient gradientTransform="translate(14.052433,27.326995)" y2="0" x2="0" y1="16" gradientUnits="userSpaceOnUse" id="linearGradient3056" xlink:href="#linearGradient3821" inkscape:collect="always"/>
  <linearGradient inkscape:collect="always" xlink:href="#linearGradient3821" id="linearGradient2997" gradientUnits="userSpaceOnUse" y1="22" x2="0" y2="-2" gradientTransform="translate(0,26)"/>
  <linearGradient inkscape:collect="always" xlink:href="#linearGradient3821" id="linearGradient3863" gradientUnits="userSpaceOnUse" y1="22" x2="0" y2="-2"/>
 </defs>
 <metadata id="metadata3500"/>
 <g id="layer1" inkscape:label="Background" inkscape:groupmode="layer" transform="translate(0,-26)">
  <path d="m 21.03125,37.03125 -0.75,-0.4375 -6,-3.625 -0.75,-0.4375 0,0.875 0,2.125 -5.0625,0 0,-2.125 0,-0.875 -0.75,0.4375 -6,3.625 -0.75,0.4375 0.75,0.4375 6,3.625 0.75,0.4375 0,-0.875 0,-2.125 5.0625,0 0,2.125 0,0.875 0.75,-0.4375 6,-3.625 z" id="path2987" inkscape:connector-curvature="0" sodipodi:nodetypes="ccccccccccccccccccccccc" color="#bebebe" fill="url(#linearGradient2997)"/>
  <path sodipodi:nodetypes="ccccccccccccccccccccccc" inkscape:connector-curvature="0" id="path3004" d="m 21.03125,37.03125 -0.75,-0.4375 -6,-3.625 -0.75,-0.4375 0,0.875 0,2.125 -5.0625,0 0,-2.125 0,-0.875 -0.75,0.4375 -6,3.625 -0.75,0.4375 0.75,0.4375 6,3.625 0.75,0.4375 0,-0.875 0,-2.125 5.0625,0 0,2.125 0,0.875 0.75,-0.4375 6,-3.625 z" opacity="0.61" color="#bebebe" fill="none" stroke="#000000"/>
  <path d="M 7.96875 7.40625 L 1.96875 11.03125 L 2.78125 11.53125 L 7.96875 8.40625 L 7.96875 7.40625 z M 14.03125 7.40625 L 14.03125 8.40625 L 19.21875 11.53125 L 20.03125 11.03125 L 14.03125 7.40625 z M 7.96875 10.03125 L 7.96875 10.53125 L 7.96875 11.03125 L 8.46875 11.03125 L 13.53125 11.03125 L 14.03125 11.03125 L 14.03125 10.53125 L 14.03125 10.03125 L 13.53125 10.03125 L 8.46875 10.03125 L 7.96875 10.03125 z " transform="translate(0,26)" id="path3855" opacity="0.2" color="#bebebe" fill="#ffffff"/>
 </g>
</svg>
