<?xml version="1.0" encoding="UTF-8" standalone="no"?>
<!-- Created with Inkscape (http://www.inkscape.org/) -->

<svg
   xmlns:dc="http://purl.org/dc/elements/1.1/"
   xmlns:cc="http://creativecommons.org/ns#"
   xmlns:rdf="http://www.w3.org/1999/02/22-rdf-syntax-ns#"
   xmlns:svg="http://www.w3.org/2000/svg"
   xmlns="http://www.w3.org/2000/svg"
   xmlns:xlink="http://www.w3.org/1999/xlink"
   xmlns:sodipodi="http://sodipodi.sourceforge.net/DTD/sodipodi-0.dtd"
   xmlns:inkscape="http://www.inkscape.org/namespaces/inkscape"
   width="22"
   height="22"
   id="svg3495"
   version="1.1"
   inkscape:version="0.48.4 r9939"
   sodipodi:docname="view-restore.svg">
  <defs
     id="defs3497">
    <linearGradient
       id="linearGradient3817">
      <stop
         style="stop-color:#555555;stop-opacity:1;"
         offset="0"
         id="stop3819" />
      <stop
         style="stop-color:#666666;stop-opacity:1;"
         offset="1"
         id="stop3821" />
    </linearGradient>
    <clipPath
       clipPathUnits="userSpaceOnUse"
       id="clipPath3669">
      <path
         inkscape:connector-curvature="0"
         d="M 0,96 96,96 96,0 0,0 0,96 z"
         id="path3671" />
    </clipPath>
    <linearGradient
       inkscape:collect="always"
       xlink:href="#linearGradient3817"
       id="linearGradient3823"
       x1="10"
       y1="22"
       x2="10"
       y2="0"
       gradientUnits="userSpaceOnUse" />
  </defs>
  <sodipodi:namedview
     id="base"
     pagecolor="#ffffff"
     bordercolor="#666666"
     borderopacity="1.0"
     inkscape:pageopacity="0.0"
     inkscape:pageshadow="2"
     inkscape:zoom="16"
     inkscape:cx="13.846816"
     inkscape:cy="15.942806"
     inkscape:current-layer="layer1"
     showgrid="false"
     showborder="false"
     inkscape:grid-bbox="true"
     inkscape:document-units="px"
     inkscape:window-width="1364"
     inkscape:window-height="700"
     inkscape:window-x="0"
     inkscape:window-y="28"
     inkscape:window-maximized="1"
     inkscape:snap-bbox="true"
     inkscape:bbox-paths="true"
     inkscape:bbox-nodes="true"
     inkscape:snap-bbox-edge-midpoints="false"
     showguides="true"
     inkscape:guide-bbox="true">
    <inkscape:grid
       type="xygrid"
       id="grid3512"
       empspacing="4"
       visible="true"
       enabled="true"
       snapvisiblegridlinesonly="true"
       dotted="false" />
  </sodipodi:namedview>
  <metadata
     id="metadata3500">
    <rdf:RDF>
      <cc:Work
         rdf:about="">
        <dc:format>image/svg+xml</dc:format>
        <dc:type
           rdf:resource="http://purl.org/dc/dcmitype/StillImage" />
        <dc:title />
      </cc:Work>
    </rdf:RDF>
  </metadata>
  <g
     id="layer1"
     inkscape:label="Layer 1"
     inkscape:groupmode="layer"
     transform="translate(0,-26)">
    <path
       style="fill:url(#linearGradient3823);fill-opacity:1;fill-rule:nonzero;stroke:none"
       d="M 3.9375 2 L 2 3.9375 L 5.3125 7.28125 L 3.6875 8.90625 L 9.875 9.875 L 8.9375 3.6875 L 7.28125 5.34375 L 3.9375 2 z M 18.0625 2 L 14.71875 5.34375 L 13.09375 3.6875 L 12.125 9.875 L 18.3125 8.9375 L 16.6875 7.28125 L 20 3.9375 L 18.0625 2 z M 9.875 12.125 L 3.6875 13.0625 L 5.34375 14.71875 L 2 18.0625 L 3.9375 20 L 7.28125 16.65625 L 8.90625 18.3125 L 9.875 12.125 z M 12.125 12.125 L 13.0625 18.3125 L 14.71875 16.6875 L 18.0625 20 L 20 18.0625 L 16.6875 14.71875 L 18.3125 13.09375 L 12.125 12.125 z "
       transform="translate(0,26)"
       id="path4197" />
    <path
       id="path3035"
       transform="translate(0,26)"
       d="M 3.9375 2 L 2 3.9375 L 5.3125 7.28125 L 3.6875 8.90625 L 9.875 9.875 L 8.9375 3.6875 L 7.28125 5.34375 L 3.9375 2 z M 18.0625 2 L 14.71875 5.34375 L 13.09375 3.6875 L 12.125 9.875 L 18.3125 8.9375 L 16.6875 7.28125 L 20 3.9375 L 18.0625 2 z M 9.875 12.125 L 3.6875 13.0625 L 5.34375 14.71875 L 2 18.0625 L 3.9375 20 L 7.28125 16.65625 L 8.90625 18.3125 L 9.875 12.125 z M 12.125 12.125 L 13.0625 18.3125 L 14.71875 16.6875 L 18.0625 20 L 20 18.0625 L 16.6875 14.71875 L 18.3125 13.09375 L 12.125 12.125 z "
       style="fill:none;fill-opacity:1;fill-rule:nonzero;stroke:#000000;stroke-opacity:1;opacity:0.61" />
    <path
       style="fill:#ffffff;fill-opacity:1;fill-rule:nonzero;stroke:none;opacity:0.2"
       d="M 3.9375 2.6875 L 2.6875 3.9375 L 3.1875 4.4375 L 3.9375 3.6875 L 6.9375 6.6875 L 7.28125 7.0625 L 7.625 6.6875 L 8.59375 5.71875 L 9.125 9.25 L 9.28125 9.28125 L 8.59375 4.71875 L 7.625 5.6875 L 7.28125 6.0625 L 6.9375 5.6875 L 3.9375 2.6875 z M 18.0625 2.6875 L 15.0625 5.6875 L 14.71875 6.0625 L 14.375 5.6875 L 13.4375 4.71875 L 12.71875 9.28125 L 12.875 9.25 L 13.4375 5.71875 L 14.375 6.6875 L 14.71875 7.0625 L 15.0625 6.6875 L 18.0625 3.6875 L 18.8125 4.4375 L 19.3125 3.9375 L 18.0625 2.6875 z M 5.5 7.78125 L 4.71875 8.5625 L 5.59375 8.6875 L 5.65625 8.625 L 6.03125 8.28125 L 5.65625 7.9375 L 5.5 7.78125 z M 16.5 7.78125 L 16.34375 7.9375 L 16 8.28125 L 16.34375 8.625 L 16.4375 8.71875 L 17.28125 8.59375 L 16.5 7.78125 z M 9.28125 12.71875 L 4.71875 13.40625 L 5.59375 14.28125 L 9.125 13.75 L 9.28125 12.71875 z M 12.71875 12.71875 L 12.875 13.75 L 16.40625 14.3125 L 17.28125 13.4375 L 12.71875 12.71875 z M 5.53125 15.21875 L 2.6875 18.0625 L 3.1875 18.5625 L 5.6875 16.0625 L 6.0625 15.71875 L 5.6875 15.375 L 5.53125 15.21875 z M 16.5 15.21875 L 16.34375 15.375 L 15.96875 15.71875 L 16.34375 16.0625 L 18.8125 18.5625 L 19.3125 18.0625 L 16.5 15.21875 z "
       transform="translate(0,26)"
       id="path3805" />
  </g>
</svg>
