<?xml version="1.0" encoding="UTF-8" standalone="no"?>
<!-- Created with Inkscape (http://www.inkscape.org/) -->

<svg
   xmlns:dc="http://purl.org/dc/elements/1.1/"
   xmlns:cc="http://creativecommons.org/ns#"
   xmlns:rdf="http://www.w3.org/1999/02/22-rdf-syntax-ns#"
   xmlns:svg="http://www.w3.org/2000/svg"
   xmlns="http://www.w3.org/2000/svg"
   xmlns:sodipodi="http://sodipodi.sourceforge.net/DTD/sodipodi-0.dtd"
   xmlns:inkscape="http://www.inkscape.org/namespaces/inkscape"
   width="22"
   height="22"
   id="svg3495"
   version="1.1"
   inkscape:version="0.48.4 r9939"
   sodipodi:docname="view-refresh.svg">
  <defs
     id="defs3497" />
  <sodipodi:namedview
     id="base"
     pagecolor="#ffffff"
     bordercolor="#666666"
     borderopacity="1.0"
     inkscape:pageopacity="0.0"
     inkscape:pageshadow="2"
     inkscape:zoom="11.313708"
     inkscape:cx="15.247018"
     inkscape:cy="4.8042359"
     inkscape:current-layer="layer1"
     showgrid="true"
     inkscape:grid-bbox="true"
     inkscape:document-units="px"
     inkscape:window-width="1364"
     inkscape:window-height="701"
     inkscape:window-x="0"
     inkscape:window-y="27"
     inkscape:window-maximized="1"
     inkscape:snap-bbox="true"
     inkscape:bbox-nodes="true">
    <inkscape:grid
       type="xygrid"
       id="grid3512"
       empspacing="4"
       visible="true"
       enabled="true"
       snapvisiblegridlinesonly="true"
       dotted="false" />
  </sodipodi:namedview>
  <metadata
     id="metadata3500">
    <rdf:RDF>
      <cc:Work
         rdf:about="">
        <dc:format>image/svg+xml</dc:format>
        <dc:type
           rdf:resource="http://purl.org/dc/dcmitype/StillImage" />
        <dc:title />
      </cc:Work>
    </rdf:RDF>
  </metadata>
  <g
     id="layer1"
     inkscape:label="Layer 1"
     inkscape:groupmode="layer"
     transform="translate(0,-26)">
    <g
       transform="matrix(0.5,0,0,0.5,-1.0000001,25)"
       id="g4772">
      <path
         d="m 31.54487,32.646449 c -1.171518,1.007094 -2.501587,1.754341 -3.953506,2.225591 -1.134817,0.365548 -2.313675,0.551993 -3.49547,0.551993 -0.289209,-0.0029 -0.572546,-0.01174 -0.847075,-0.03377 -1.494492,-0.110106 -2.919986,-0.500612 -4.238311,-1.150966 -1.366771,-0.673843 -2.572055,-1.611938 -3.585021,-2.784924 -1.008563,-1.167114 -1.755809,-2.498651 -2.227059,-3.95057 -0.361145,-1.12454 -0.546121,-2.304866 -0.546121,-3.50281 0,-0.283337 0.01028,-0.566674 0.0323,-0.860287 0.108637,-1.476876 0.497675,-2.893562 1.150965,-4.214823 0.67678,-1.371175 1.614875,-2.576459 2.780521,-3.583553 1.168581,-1.008562 2.498651,-1.757277 3.95057,-2.227059 1.365303,-0.437484 2.839243,-0.598971 4.373373,-0.51676 1.448983,0.107169 2.90237,0.505016 4.206014,1.150966 1.020307,0.503547 2.039146,1.262538 2.858328,2.040614 l -0.01762,0.01174 -2.908242,2.47663 10.076817,2.387079 -0.756055,-10.324921 -2.936135,2.498652 -0.02055,0.01321 C 34.18152,11.564997 32.710516,10.441925 31.100045,9.6491685 29.247344,8.72869 27.255176,8.185505 25.166116,8.0313579 23.14165,7.9124444 21.049654,8.1267823 19.094188,8.7595195 17.04917,9.4186819 15.181787,10.466882 13.550764,11.877695 c -1.638363,1.409345 -2.949348,3.099091 -3.8991876,5.020792 -0.9116701,1.857105 -1.4548551,3.847805 -1.6075341,5.922185 -0.029361,0.39491 -0.044042,0.786884 -0.044042,1.180326 0,1.669193 0.259848,3.320769 0.7692675,4.906283 0.6562263,2.04355 1.7044262,3.903592 3.1137712,5.539019 1.407877,1.633959 3.100559,2.943476 5.023728,3.896252 1.858574,0.917542 3.850742,1.460727 5.919249,1.613406 C 23.198905,39.983851 23.57473,40 23.94762,40 l 0.07634,0 c 1.667725,0 3.313429,-0.261316 4.888666,-0.772204 2.040614,-0.654758 3.903592,-1.702958 5.543423,-3.113771 1.636896,-1.412281 2.946412,-3.099091 3.894784,-5.023728 L 34.32539,29.064364 c -0.679715,1.366771 -1.611938,2.572054 -2.78052,3.582085"
         style="fill:#333333;fill-opacity:1;fill-rule:nonzero;stroke:none"
         id="path4373"
         inkscape:connector-curvature="0" />
    </g>
    <g
       id="g4776"
       style="opacity:0.3;fill:#ffffff;fill-opacity:1"
       transform="matrix(0.5,0,0,0.5,-4.7888345,23.000001)">
      <path
         inkscape:connector-curvature="0"
         id="path4780"
         style="fill:#ffffff;fill-opacity:1;fill-rule:nonzero;stroke:none"
         d="m 39.122536,34.646449 c -1.171518,1.007094 -2.501587,1.754341 -3.953506,2.225591 -1.134817,0.365548 -2.313675,0.551993 -3.49547,0.551993 -0.289209,-0.0029 -0.572546,-0.01174 -0.847075,-0.03377 -1.494492,-0.110106 -2.919986,-0.500612 -4.238311,-1.150966 -1.366771,-0.673843 -2.572055,-1.611938 -3.585021,-2.784924 -1.008563,-1.167114 -1.755809,-2.498651 -2.227059,-3.95057 -0.361145,-1.12454 -0.546121,-2.304866 -0.546121,-3.50281 0,-0.283337 0.01028,-0.566674 0.0323,-0.860287 0.108637,-1.476876 0.497675,-2.893562 1.150965,-4.214823 0.67678,-1.371175 1.614875,-2.576459 2.780521,-3.583553 1.168581,-1.008562 2.498651,-1.757277 3.95057,-2.227059 1.365303,-0.437484 2.839243,-0.598971 4.373373,-0.51676 1.448983,0.107169 2.90237,0.505016 4.206014,1.150966 1.020307,0.503547 2.039146,1.262538 2.858328,2.040614 l -0.01762,0.01174 -2.908242,2.47663 10.076817,2.387079 -0.756055,-10.324921 -2.936135,2.498652 -0.02055,0.01321 c -1.261073,-1.287484 -2.732077,-2.410556 -4.342548,-3.203312 -1.852701,-0.920479 -3.844869,-1.463664 -5.933929,-1.617811 -2.024466,-0.1189136 -4.116462,0.09542 -6.071928,0.728162 -2.045018,0.659162 -3.912401,1.707362 -5.543424,3.118175 -1.638363,1.409345 -2.949348,3.099091 -3.899187,5.020792 -0.91167,1.857105 -1.454855,3.847805 -1.607534,5.922185 -0.02936,0.39491 -0.04404,0.786884 -0.04404,1.180326 0,1.669193 0.259848,3.320769 0.769267,4.906283 0.656226,2.04355 1.704426,3.903592 3.113771,5.539019 1.407877,1.633959 3.100559,2.943476 5.023728,3.896252 1.858574,0.917542 3.850742,1.460727 5.919249,1.613406 C 30.776571,41.983851 31.152396,42 31.525286,42 l 0.07634,0 c 1.667725,0 3.313429,-0.261316 4.888666,-0.772204 2.040614,-0.654758 3.903592,-1.702958 5.543423,-3.113771 1.636896,-1.412281 2.946412,-3.099091 3.894784,-5.023728 l -4.025443,-2.025933 c -0.679715,1.366771 -1.611938,2.572054 -2.78052,3.582085" />
    </g>
  </g>
</svg>
