<?xml version="1.0" encoding="UTF-8" standalone="no"?>
<svg xmlns="http://www.w3.org/2000/svg" xmlns:xlink="http://www.w3.org/1999/xlink" xmlns:sodipodi="http://sodipodi.sourceforge.net/DTD/sodipodi-0.dtd" xmlns:inkscape="http://www.inkscape.org/namespaces/inkscape" width="22" height="22" version="1.1">
 <defs id="defs3497">
  <linearGradient id="linearGradient3817">
   <stop id="stop3819" stop-color="#555555"/>
   <stop offset="1" id="stop3821" stop-color="#666666"/>
  </linearGradient>
  <clipPath id="clipPath3669">
   <path d="M 0,96 96,96 96,0 0,0 0,96 z" id="path3671"/>
  </clipPath>
  <linearGradient inkscape:collect="always" xlink:href="#linearGradient3817" id="linearGradient3823" y1="22" x2="0" y2="0" gradientUnits="userSpaceOnUse"/>
 </defs>
 <metadata id="metadata3500"/>
 <g id="layer1" inkscape:label="Layer 1" inkscape:groupmode="layer" transform="translate(0,-26)">
  <path d="M 3.9375 2 L 2 3.9375 L 5.3125 7.28125 L 3.6875 8.90625 L 9.875 9.875 L 8.9375 3.6875 L 7.28125 5.34375 L 3.9375 2 z M 18.0625 2 L 14.71875 5.34375 L 13.09375 3.6875 L 12.125 9.875 L 18.3125 8.9375 L 16.6875 7.28125 L 20 3.9375 L 18.0625 2 z M 9.875 12.125 L 3.6875 13.0625 L 5.34375 14.71875 L 2 18.0625 L 3.9375 20 L 7.28125 16.65625 L 8.90625 18.3125 L 9.875 12.125 z M 12.125 12.125 L 13.0625 18.3125 L 14.71875 16.6875 L 18.0625 20 L 20 18.0625 L 16.6875 14.71875 L 18.3125 13.09375 L 12.125 12.125 z " transform="translate(0,26)" id="path4197" fill="url(#linearGradient3823)"/>
  <path id="path3035" transform="translate(0,26)" d="M 3.9375 2 L 2 3.9375 L 5.3125 7.28125 L 3.6875 8.90625 L 9.875 9.875 L 8.9375 3.6875 L 7.28125 5.34375 L 3.9375 2 z M 18.0625 2 L 14.71875 5.34375 L 13.09375 3.6875 L 12.125 9.875 L 18.3125 8.9375 L 16.6875 7.28125 L 20 3.9375 L 18.0625 2 z M 9.875 12.125 L 3.6875 13.0625 L 5.34375 14.71875 L 2 18.0625 L 3.9375 20 L 7.28125 16.65625 L 8.90625 18.3125 L 9.875 12.125 z M 12.125 12.125 L 13.0625 18.3125 L 14.71875 16.6875 L 18.0625 20 L 20 18.0625 L 16.6875 14.71875 L 18.3125 13.09375 L 12.125 12.125 z " opacity="0.61" fill="none" stroke="#000000"/>
  <path d="M 3.9375 2.6875 L 2.6875 3.9375 L 3.1875 4.4375 L 3.9375 3.6875 L 6.9375 6.6875 L 7.28125 7.0625 L 7.625 6.6875 L 8.59375 5.71875 L 9.125 9.25 L 9.28125 9.28125 L 8.59375 4.71875 L 7.625 5.6875 L 7.28125 6.0625 L 6.9375 5.6875 L 3.9375 2.6875 z M 18.0625 2.6875 L 15.0625 5.6875 L 14.71875 6.0625 L 14.375 5.6875 L 13.4375 4.71875 L 12.71875 9.28125 L 12.875 9.25 L 13.4375 5.71875 L 14.375 6.6875 L 14.71875 7.0625 L 15.0625 6.6875 L 18.0625 3.6875 L 18.8125 4.4375 L 19.3125 3.9375 L 18.0625 2.6875 z M 5.5 7.78125 L 4.71875 8.5625 L 5.59375 8.6875 L 5.65625 8.625 L 6.03125 8.28125 L 5.65625 7.9375 L 5.5 7.78125 z M 16.5 7.78125 L 16.34375 7.9375 L 16 8.28125 L 16.34375 8.625 L 16.4375 8.71875 L 17.28125 8.59375 L 16.5 7.78125 z M 9.28125 12.71875 L 4.71875 13.40625 L 5.59375 14.28125 L 9.125 13.75 L 9.28125 12.71875 z M 12.71875 12.71875 L 12.875 13.75 L 16.40625 14.3125 L 17.28125 13.4375 L 12.71875 12.71875 z M 5.53125 15.21875 L 2.6875 18.0625 L 3.1875 18.5625 L 5.6875 16.0625 L 6.0625 15.71875 L 5.6875 15.375 L 5.53125 15.21875 z M 16.5 15.21875 L 16.34375 15.375 L 15.96875 15.71875 L 16.34375 16.0625 L 18.8125 18.5625 L 19.3125 18.0625 L 16.5 15.21875 z " transform="translate(0,26)" id="path3805" opacity="0.2" fill="#ffffff"/>
 </g>
</svg>
