<?xml version="1.0" encoding="UTF-8" standalone="no"?>
<!-- Created with Inkscape (http://www.inkscape.org/) -->

<svg
   xmlns:dc="http://purl.org/dc/elements/1.1/"
   xmlns:cc="http://creativecommons.org/ns#"
   xmlns:rdf="http://www.w3.org/1999/02/22-rdf-syntax-ns#"
   xmlns:svg="http://www.w3.org/2000/svg"
   xmlns="http://www.w3.org/2000/svg"
   xmlns:xlink="http://www.w3.org/1999/xlink"
   xmlns:sodipodi="http://sodipodi.sourceforge.net/DTD/sodipodi-0.dtd"
   xmlns:inkscape="http://www.inkscape.org/namespaces/inkscape"
   width="22"
   height="22"
   id="svg3495"
   version="1.1"
   inkscape:version="0.48.4 r9939"
   sodipodi:docname="view-refresh.svg">
  <defs
     id="defs3497">
    <linearGradient
       inkscape:collect="always"
       xlink:href="#linearGradient3821"
       id="linearGradient2997"
       gradientUnits="userSpaceOnUse"
       x1="12"
       y1="22"
       x2="12"
       y2="-2"
       gradientTransform="translate(0,26)" />
    <linearGradient
       id="linearGradient3821">
      <stop
         style="stop-color:#555555;stop-opacity:1;"
         offset="0"
         id="stop3823" />
      <stop
         style="stop-color:#666666;stop-opacity:1;"
         offset="1"
         id="stop3825" />
    </linearGradient>
    <linearGradient
       y2="-2"
       x2="12"
       y1="22"
       x1="12"
       gradientUnits="userSpaceOnUse"
       id="linearGradient3967"
       xlink:href="#linearGradient3821"
       inkscape:collect="always"
       gradientTransform="translate(12.46875,43.03125)" />
    <linearGradient
       inkscape:collect="always"
       xlink:href="#linearGradient3821"
       id="linearGradient3798"
       x1="11"
       y1="22"
       x2="11"
       y2="0"
       gradientUnits="userSpaceOnUse" />
  </defs>
  <sodipodi:namedview
     id="base"
     pagecolor="#ffffff"
     bordercolor="#666666"
     borderopacity="1.0"
     inkscape:pageopacity="0.0"
     inkscape:pageshadow="2"
     inkscape:zoom="1"
     inkscape:cx="12.536704"
     inkscape:cy="13.555827"
     inkscape:current-layer="layer1"
     showgrid="false"
     inkscape:grid-bbox="true"
     inkscape:document-units="px"
     inkscape:window-width="1364"
     inkscape:window-height="700"
     inkscape:window-x="0"
     inkscape:window-y="28"
     inkscape:window-maximized="1"
     inkscape:snap-bbox="true"
     inkscape:bbox-nodes="true">
    <inkscape:grid
       type="xygrid"
       id="grid3512"
       empspacing="4"
       visible="true"
       enabled="true"
       snapvisiblegridlinesonly="true"
       dotted="false" />
  </sodipodi:namedview>
  <metadata
     id="metadata3500">
    <rdf:RDF>
      <cc:Work
         rdf:about="">
        <dc:format>image/svg+xml</dc:format>
        <dc:type
           rdf:resource="http://purl.org/dc/dcmitype/StillImage" />
        <dc:title />
      </cc:Work>
    </rdf:RDF>
  </metadata>
  <g
     id="layer1"
     inkscape:label="Layer 1"
     inkscape:groupmode="layer"
     transform="translate(0,-26)">
    <path
       style="font-size:medium;font-style:normal;font-variant:normal;font-weight:normal;font-stretch:normal;text-indent:0;text-align:start;text-decoration:none;line-height:normal;letter-spacing:normal;word-spacing:normal;text-transform:none;direction:ltr;block-progression:tb;writing-mode:lr-tb;text-anchor:start;baseline-shift:baseline;color:#000000;fill:url(#linearGradient3798);fill-opacity:1;stroke:none;stroke-width:1;marker:none;visibility:visible;display:inline;overflow:visible;enable-background:accumulate;font-family:Sans;-inkscape-font-specification:Sans"
       d="M 10.8125 2.53125 C 10.002186 2.5485994 9.1904839 2.6524875 8.40625 2.90625 C 7.3210201 3.256048 6.3031489 3.813725 5.4375 4.5625 C 4.5684867 5.310007 3.879309 6.198439 3.375 7.21875 C 2.8914987 8.203659 2.6122431 9.274584 2.53125 10.375 C 2.5156694 10.584561 2.5 10.790841 2.5 11 C 2.5 11.886488 2.6357547 12.751862 2.90625 13.59375 C 3.2547481 14.679006 3.8154739 15.695638 4.5625 16.5625 C 5.3095691 17.429536 6.1984392 18.119518 7.21875 18.625 C 8.2049713 19.111878 9.2774281 19.387736 10.375 19.46875 C 10.572048 19.48349 10.767868 19.5 10.96875 19.5 L 11 19.5 C 11.87579 19.5 12.765378 19.359081 13.59375 19.09375 C 13.60245 19.09095 13.61631 19.09655 13.625 19.09375 C 14.698666 18.745426 15.700452 18.179156 16.5625 17.4375 C 17.430179 16.688885 18.12135 15.803363 18.625 14.78125 L 18.84375 14.3125 L 18.40625 14.09375 L 16.375 13.09375 L 15.9375 12.875 L 15.71875 13.3125 C 15.407869 13.937619 14.972437 14.475142 14.4375 14.9375 C 13.900892 15.398794 13.319871 15.753358 12.65625 15.96875 C 12.137801 16.135753 11.600809 16.21875 11.0625 16.21875 C 10.924649 16.21735 10.776817 16.19715 10.65625 16.1875 C 9.9721663 16.1371 9.3208816 15.953293 8.71875 15.65625 C 8.0958749 15.349161 7.5581906 14.944059 7.09375 14.40625 C 6.6325953 13.872599 6.2779226 13.257466 6.0625 12.59375 C 5.8978738 12.081134 5.8125 11.547501 5.8125 11 C 5.8125 10.870425 5.833666 10.728208 5.84375 10.59375 C 5.893378 9.91908 6.0763382 9.291535 6.375 8.6875 C 6.6836972 8.06207 7.0910917 7.523786 7.625 7.0625 C 8.1598837 6.60086 8.7744897 6.245773 9.4375 6.03125 C 10.054617 5.833507 10.722461 5.774182 11.4375 5.8125 C 12.095737 5.86118 12.751213 6.0189 13.34375 6.3125 C 13.631462 6.454493 13.91015 6.689604 14.1875 6.90625 L 13.21875 7.75 L 12.46875 8.40625 L 13.4375 8.625 L 18.46875 9.8125 L 19.125 9.96875 L 19.0625 9.28125 L 18.6875 4.125 L 18.625 3.15625 L 17.875 3.78125 L 16.71875 4.78125 C 16.13238 4.238272 15.50452 3.73103 14.78125 3.375 C 13.797189 2.886088 12.732234 2.61295 11.625 2.53125 C 11.358132 2.5155725 11.082605 2.5254669 10.8125 2.53125 z "
       transform="translate(0,26)"
       id="path3010" />
    <g
       transform="matrix(0.5,0,0,0.5,-1.0000001,25)"
       id="g4772">
      <path
         style="fill:#ffffff;fill-opacity:1;fill-rule:nonzero;stroke:none;opacity:0.2"
         d="M 10.8125 3 C 10.045446 3.0198877 9.2957997 3.1377236 8.5625 3.375 C 7.539991 3.7045812 6.5967615 4.2320935 5.78125 4.9375 C 4.9620685 5.6421725 4.2874198 6.4766495 3.8125 7.4375 C 3.3566649 8.3660525 3.1075895 9.36906 3.03125 10.40625 C 3.0165695 10.603705 3 10.803279 3 11 C 3 11.135641 3.0244085 11.271178 3.03125 11.40625 C 3.1075895 10.36906 3.3566649 9.3660525 3.8125 8.4375 C 4.2874198 7.4766495 4.9620685 6.6421725 5.78125 5.9375 C 6.5967615 5.2320935 7.539991 4.704581 8.5625 4.375 C 9.540233 4.058629 10.581517 3.9717932 11.59375 4.03125 C 12.63828 4.1083235 13.63615 4.3522605 14.5625 4.8125 C 15.367736 5.208878 16.088213 5.793758 16.71875 6.4375 L 16.71875 6.40625 L 18.1875 5.15625 L 18.5 9.3125 L 18.5625 9.34375 L 18.1875 4.15625 L 16.71875 5.40625 L 16.71875 5.4375 C 16.088214 4.793758 15.367736 4.2088782 14.5625 3.8125 C 13.636149 3.3522608 12.63828 3.1083235 11.59375 3.03125 C 11.340692 3.0163858 11.068185 2.9933708 10.8125 3 z M 14.40625 7.40625 L 13.53125 8.125 L 14.46875 8.34375 L 15 7.90625 C 14.821057 7.7362866 14.615037 7.5627163 14.40625 7.40625 z M 5.34375 11.4375 C 5.3396561 11.480138 5.3469016 11.519655 5.34375 11.5625 C 5.33274 11.709307 5.3125 11.858332 5.3125 12 C 5.3125 12.598972 5.4131775 13.18773 5.59375 13.75 C 5.829375 14.47596 6.2144685 15.135193 6.71875 15.71875 C 7.225233 16.305243 7.8166145 16.788079 8.5 17.125 C 9.1591625 17.450177 9.877754 17.632447 10.625 17.6875 C 10.762264 17.698515 10.917896 17.7173 11.0625 17.71875 C 11.653397 17.71875 12.213842 17.620274 12.78125 17.4375 C 13.50721 17.201875 14.195491 16.816047 14.78125 16.3125 C 15.365541 15.807484 15.816393 15.214635 16.15625 14.53125 L 17.75 15.3125 C 17.905343 15.068732 18.058532 14.792979 18.1875 14.53125 L 16.15625 13.53125 C 15.816393 14.214635 15.365541 14.807484 14.78125 15.3125 C 14.195491 15.816047 13.50721 16.201875 12.78125 16.4375 C 12.213842 16.620274 11.653397 16.71875 11.0625 16.71875 C 10.917896 16.7173 10.762264 16.698515 10.625 16.6875 C 9.877754 16.632447 9.1591625 16.450177 8.5 16.125 C 7.8166145 15.788079 7.225233 15.305243 6.71875 14.71875 C 6.2144685 14.135193 5.829375 13.47596 5.59375 12.75 C 5.4581498 12.327766 5.3781402 11.883112 5.34375 11.4375 z "
         transform="matrix(2,0,0,2,2.0000002,2)"
         id="path4373" />
    </g>
    <g
       id="g4776"
       style="opacity:0.1;fill:#ffffff;fill-opacity:1"
       transform="matrix(0.5,0,0,0.5,-4.7888345,23.000001)" />
    <path
       id="path3800"
       transform="translate(0,26)"
       d="M 10.8125 2.53125 C 10.002186 2.5485994 9.1904839 2.6524875 8.40625 2.90625 C 7.3210201 3.256048 6.3031489 3.813725 5.4375 4.5625 C 4.5684867 5.310007 3.879309 6.198439 3.375 7.21875 C 2.8914987 8.203659 2.6122431 9.274584 2.53125 10.375 C 2.5156694 10.584561 2.5 10.790841 2.5 11 C 2.5 11.886488 2.6357547 12.751862 2.90625 13.59375 C 3.2547481 14.679006 3.8154739 15.695638 4.5625 16.5625 C 5.3095691 17.429536 6.1984392 18.119518 7.21875 18.625 C 8.2049713 19.111878 9.2774281 19.387736 10.375 19.46875 C 10.572048 19.48349 10.767868 19.5 10.96875 19.5 L 11 19.5 C 11.87579 19.5 12.765378 19.359081 13.59375 19.09375 C 13.60245 19.09095 13.61631 19.09655 13.625 19.09375 C 14.698666 18.745426 15.700452 18.179156 16.5625 17.4375 C 17.430179 16.688885 18.12135 15.803363 18.625 14.78125 L 18.84375 14.3125 L 18.40625 14.09375 L 16.375 13.09375 L 15.9375 12.875 L 15.71875 13.3125 C 15.407869 13.937619 14.972437 14.475142 14.4375 14.9375 C 13.900892 15.398794 13.319871 15.753358 12.65625 15.96875 C 12.137801 16.135753 11.600809 16.21875 11.0625 16.21875 C 10.924649 16.21735 10.776817 16.19715 10.65625 16.1875 C 9.9721663 16.1371 9.3208816 15.953293 8.71875 15.65625 C 8.0958749 15.349161 7.5581906 14.944059 7.09375 14.40625 C 6.6325953 13.872599 6.2779226 13.257466 6.0625 12.59375 C 5.8978738 12.081134 5.8125 11.547501 5.8125 11 C 5.8125 10.870425 5.833666 10.728208 5.84375 10.59375 C 5.893378 9.91908 6.0763382 9.291535 6.375 8.6875 C 6.6836972 8.06207 7.0910917 7.523786 7.625 7.0625 C 8.1598837 6.60086 8.7744897 6.245773 9.4375 6.03125 C 10.054617 5.833507 10.722461 5.774182 11.4375 5.8125 C 12.095737 5.86118 12.751213 6.0189 13.34375 6.3125 C 13.631462 6.454493 13.91015 6.689604 14.1875 6.90625 L 13.21875 7.75 L 12.46875 8.40625 L 13.4375 8.625 L 18.46875 9.8125 L 19.125 9.96875 L 19.0625 9.28125 L 18.6875 4.125 L 18.625 3.15625 L 17.875 3.78125 L 16.71875 4.78125 C 16.13238 4.238272 15.50452 3.73103 14.78125 3.375 C 13.797189 2.886088 12.732234 2.61295 11.625 2.53125 C 11.358132 2.5155725 11.082605 2.5254669 10.8125 2.53125 z "
       style="font-size:medium;font-style:normal;font-variant:normal;font-weight:normal;font-stretch:normal;text-indent:0;text-align:start;text-decoration:none;line-height:normal;letter-spacing:normal;word-spacing:normal;text-transform:none;direction:ltr;block-progression:tb;writing-mode:lr-tb;text-anchor:start;baseline-shift:baseline;color:#000000;fill:none;fill-opacity:1;stroke:#000000;stroke-width:1;marker:none;visibility:visible;display:inline;overflow:visible;enable-background:accumulate;font-family:Sans;-inkscape-font-specification:Sans;stroke-opacity:1;opacity:0.61" />
  </g>
</svg>
