<?xml version="1.0" encoding="UTF-8" standalone="no"?>
<svg xmlns="http://www.w3.org/2000/svg" xmlns:xlink="http://www.w3.org/1999/xlink" xmlns:sodipodi="http://sodipodi.sourceforge.net/DTD/sodipodi-0.dtd" xmlns:inkscape="http://www.inkscape.org/namespaces/inkscape" width="22" height="22" version="1.1">
 <defs id="defs3497">
  <clipPath id="clipPath3669">
   <path d="M 0,96 96,96 96,0 0,0 0,96 z" id="path3671"/>
  </clipPath>
  <linearGradient inkscape:collect="always" xlink:href="#linearGradient3821" id="linearGradient3827" y1="16" x2="0" y2="0" gradientUnits="userSpaceOnUse"/>
  <linearGradient id="linearGradient3821">
   <stop id="stop3823" stop-color="#555555"/>
   <stop offset="1" id="stop3825" stop-color="#666666"/>
  </linearGradient>
  <linearGradient gradientTransform="translate(14.052433,27.326995)" y2="0" x2="0" y1="16" gradientUnits="userSpaceOnUse" id="linearGradient3056" xlink:href="#linearGradient3821" inkscape:collect="always"/>
  <linearGradient inkscape:collect="always" xlink:href="#linearGradient3821" id="linearGradient3793" y1="22" x2="0" y2="-2" gradientUnits="userSpaceOnUse" gradientTransform="matrix(1,0,0,-1,-0.9999998,47.047)"/>
  <linearGradient inkscape:collect="always" xlink:href="#linearGradient3821" id="linearGradient3772" gradientUnits="userSpaceOnUse" gradientTransform="translate(2e-7,1)" y1="22" x2="0" y2="-2"/>
  <linearGradient inkscape:collect="always" xlink:href="#linearGradient3821" id="linearGradient3791" y1="22" x2="0" y2="0" gradientUnits="userSpaceOnUse"/>
  <linearGradient inkscape:collect="always" xlink:href="#linearGradient3821" id="linearGradient3853" gradientUnits="userSpaceOnUse" gradientTransform="matrix(1,0,0,-1,-0.9999998,21.047)" y1="22" x2="0" y2="-2"/>
 </defs>
 <metadata id="metadata3500"/>
 <g id="layer1" inkscape:label="Background" inkscape:groupmode="layer" transform="translate(0,-26)">
  <path d="m 19.46875,34.500125 -0.4375,-0.75 -3.59375,-6.03125 -0.4375,-0.71875 -0.4375,0.71875 -3.625,6.03125 -0.4375,0.75 0.875,0 2.125,0 0,11.999875 3,0 0,-11.999875 2.09375,0 z" id="path2987" inkscape:connector-curvature="0" sodipodi:nodetypes="cccccccccccccc" color="#bebebe" fill="url(#linearGradient3793)"/>
  <path sodipodi:nodetypes="cccccccccccccc" inkscape:connector-curvature="0" id="path2994" d="m 19.46875,34.500125 -0.4375,-0.75 -3.59375,-6.03125 -0.4375,-0.71875 -0.4375,0.71875 -3.625,6.03125 -0.4375,0.75 0.875,0 2.125,0 0,11.999875 3,0 0,-11.999875 2.09375,0 z" opacity="0.61" color="#bebebe" fill="none" stroke="#000000"/>
  <path d="M 5,1.5 C 3.6252104,1.5 2.5,2.62521 2.5,4 2.5,5.37479 3.6252104,6.5 5,6.5 6.3747896,6.5 7.5,5.37479 7.5,4 7.5,2.62521 6.3747896,1.5 5,1.5 z m 0,7 C 3.6252104,8.5 2.5,9.62521 2.5,11 2.5,12.374789 3.6252103,13.5 5,13.5 6.3747897,13.5 7.5,12.374789 7.5,11 7.5,9.62521 6.3747896,8.5 5,8.5 z m 0,7 c -1.3747897,0 -2.5,1.125211 -2.5,2.5 0,1.374789 1.1252103,2.5 2.5,2.5 1.3747897,0 2.5,-1.125211 2.5,-2.5 0,-1.374789 -1.1252103,-2.5 -2.5,-2.5 z" id="path3778" inkscape:connector-curvature="0" sodipodi:nodetypes="sssssssssssssss" transform="translate(0,26)" fill="url(#linearGradient3791)"/>
  <path id="path3800" d="M 5,1.5 C 3.6252104,1.5 2.5,2.62521 2.5,4 2.5,5.37479 3.6252104,6.5 5,6.5 6.3747896,6.5 7.5,5.37479 7.5,4 7.5,2.62521 6.3747896,1.5 5,1.5 z m 0,7 C 3.6252104,8.5 2.5,9.62521 2.5,11 2.5,12.374789 3.6252103,13.5 5,13.5 6.3747897,13.5 7.5,12.374789 7.5,11 7.5,9.62521 6.3747896,8.5 5,8.5 z m 0,7 c -1.3747897,0 -2.5,1.125211 -2.5,2.5 0,1.374789 1.1252103,2.5 2.5,2.5 1.3747897,0 2.5,-1.125211 2.5,-2.5 0,-1.374789 -1.1252103,-2.5 -2.5,-2.5 z" inkscape:connector-curvature="0" sodipodi:nodetypes="sssssssssssssss" transform="translate(0,26)" opacity="0.61" fill="none" stroke="#000000" stroke-linecap="square"/>
  <path d="M 5,2 C 3.8980303,2 3,2.89803 3,4 3,4.1721828 3.0212986,4.3404229 3.0625,4.5 3.2849875,3.6382839 4.0702131,3 5,3 5.9297869,3 6.7150125,3.6382839 6.9375,4.5 6.9787014,4.3404229 7,4.1721828 7,4 7,2.89803 6.1019697,2 5,2 z M 5,9 C 3.8980303,9 3,9.89803 3,11 3,11.172183 3.0212986,11.340423 3.0625,11.5 3.2849875,10.638284 4.0702131,10 5,10 5.9297869,10 6.7150125,10.638284 6.9375,11.5 6.9787014,11.340423 7,11.172183 7,11 7,9.89803 6.1019697,9 5,9 z m 0,7 c -1.1019695,0 -2,0.898031 -2,2 0,0.172183 0.021299,0.340423 0.0625,0.5 C 3.2849875,17.638284 4.0702132,17 5,17 5.9297868,17 6.7150125,17.638284 6.9375,18.5 6.9787014,18.340423 7,18.172183 7,18 7,16.898031 6.1019695,16 5,16 z" id="path3802" inkscape:connector-curvature="0" sodipodi:nodetypes="sscscsssscscsssscscss" transform="translate(0,26)" opacity="0.2" fill="#ffffff"/>
  <path d="M 15 1.96875 L 11.375 8 L 11.96875 8 L 15 2.96875 L 18 8 L 18.59375 8 L 15 1.96875 z " transform="translate(0,26)" id="path3837" opacity="0.2" color="#bebebe" fill="#ffffff"/>
 </g>
</svg>
