<?xml version="1.0" encoding="UTF-8" standalone="no"?>
<svg xmlns="http://www.w3.org/2000/svg" xmlns:xlink="http://www.w3.org/1999/xlink" xmlns:sodipodi="http://sodipodi.sourceforge.net/DTD/sodipodi-0.dtd" xmlns:inkscape="http://www.inkscape.org/namespaces/inkscape" width="22" height="22" version="1.1">
 <defs id="defs3497">
  <linearGradient id="linearGradient3783">
   <stop id="stop3785" stop-color="#555555"/>
   <stop offset="1" id="stop3787" stop-color="#666666"/>
  </linearGradient>
  <clipPath id="clipPath3669">
   <path d="M 0,96 96,96 96,0 0,0 0,96 z" id="path3671"/>
  </clipPath>
  <linearGradient inkscape:collect="always" xlink:href="#linearGradient3783" id="linearGradient3779" y1="19" x2="0" y2="-3" gradientUnits="userSpaceOnUse" gradientTransform="translate(3,29)"/>
 </defs>
 <metadata id="metadata3500"/>
 <g id="layer1" inkscape:label="Layer 1" inkscape:groupmode="layer" transform="translate(0,-26)">
  <path d="M 4,27.875 1.875,30 2.9375,31.0625 8.875,37 2.9375,42.9375 1.875,44 4,46.125 5.0625,45.0625 11,39.125 16.9375,45.0625 18,46.125 20.125,44 19.0625,42.9375 13.125,37 19.0625,31.0625 20.125,30 18,27.875 16.9375,28.9375 11,34.875 5.0625,28.9375 z" id="path2992" inkscape:connector-curvature="0" sodipodi:nodetypes="ccccccccccccccccccccc" color="#000000" stroke-width="3" fill="url(#linearGradient3779)"/>
  <path id="path3781" d="M 4,27.875 1.875,30 2.9375,31.0625 8.875,37 2.9375,42.9375 1.875,44 4,46.125 5.0625,45.0625 11,39.125 16.9375,45.0625 18,46.125 20.125,44 19.0625,42.9375 13.125,37 19.0625,31.0625 20.125,30 18,27.875 16.9375,28.9375 11,34.875 5.0625,28.9375 z" inkscape:connector-curvature="0" sodipodi:nodetypes="ccccccccccccccccccccc" opacity="0.61" color="#000000" fill="none" stroke="#000000"/>
  <path d="M 4,28.5625 2.5625,30 3.0625,30.5 4,29.5625 l 0.71875,0.71875 5.9375,5.9375 0.34375,0.375 0.34375,-0.375 5.9375,-5.9375 L 18,29.5625 18.9375,30.5 19.4375,30 18,28.5625 l -0.71875,0.71875 -5.9375,5.9375 -0.34375,0.375 -0.34375,-0.375 -5.9375,-5.9375 z M 9.0625,37.5 3.28125,43.28125 2.5625,44 l 0.5,0.5 0.21875,-0.21875 5.9375,-5.9375 L 9.59375,38 9.21875,37.65625 z m 3.875,0 -0.15625,0.15625 -0.375,0.34375 0.375,0.34375 5.9375,5.9375 0.21875,0.21875 0.5,-0.5 -0.71875,-0.71875 z" id="path3783" inkscape:connector-curvature="0" sodipodi:nodetypes="ccccccccccccccccccccccccccccccccccccc" opacity="0.2" color="#000000" stroke-width="3" fill="#ffffff"/>
 </g>
</svg>
