<?xml version="1.0" encoding="UTF-8" standalone="no"?>
<svg xmlns="http://www.w3.org/2000/svg" xmlns:xlink="http://www.w3.org/1999/xlink" xmlns:sodipodi="http://sodipodi.sourceforge.net/DTD/sodipodi-0.dtd" xmlns:inkscape="http://www.inkscape.org/namespaces/inkscape" width="22" height="22" version="1.1">
 <defs id="defs3497">
  <clipPath id="clipPath3669">
   <path d="M 0,96 96,96 96,0 0,0 0,96 z" id="path3671"/>
  </clipPath>
  <linearGradient inkscape:collect="always" xlink:href="#linearGradient3821" id="linearGradient4448" y1="16" x2="0" y2="0" gradientUnits="userSpaceOnUse" gradientTransform="matrix(1,0,0,-1,0,16)"/>
  <linearGradient id="linearGradient3821">
   <stop id="stop3823" stop-color="#f7f7f7"/>
   <stop offset="1" id="stop3825" stop-color="#dddddd"/>
  </linearGradient>
  <linearGradient y2="0" x2="0" y1="16" gradientTransform="matrix(1,0,0,-1,21.256543,59.181981)" gradientUnits="userSpaceOnUse" id="linearGradient3075" xlink:href="#linearGradient3821" inkscape:collect="always"/>
  <linearGradient inkscape:collect="always" xlink:href="#linearGradient3821" id="linearGradient3859" x1="2.5" x2="19.5" gradientUnits="userSpaceOnUse" gradientTransform="matrix(0,1,-1,0,22,26)"/>
  <radialGradient inkscape:collect="always" xlink:href="#linearGradient3952" id="radialGradient3200" gradientUnits="userSpaceOnUse" gradientTransform="matrix(1,0,0,0.75,-22,-12.125)" cx="40" cy="43.5" r="2"/>
  <linearGradient inkscape:collect="always" id="linearGradient3952">
   <stop id="stop3954"/>
   <stop offset="1" id="stop3956" stop-opacity="0"/>
  </linearGradient>
  <radialGradient inkscape:collect="always" xlink:href="#linearGradient3952" id="radialGradient3197" gradientUnits="userSpaceOnUse" gradientTransform="matrix(1,0,0,0.75,-5,-12.125)" cx="9" cy="43.5" r="2"/>
  <linearGradient inkscape:collect="always" xlink:href="#linearGradient3960" id="linearGradient3194" gradientUnits="userSpaceOnUse" gradientTransform="translate(-9,-23)" y1="45" x2="0" y2="42"/>
  <linearGradient id="linearGradient3960">
   <stop id="stop3962" stop-opacity="0"/>
   <stop id="stop3970" offset="0.5"/>
   <stop offset="1" id="stop3964" stop-opacity="0"/>
  </linearGradient>
 </defs>
 <metadata id="metadata3500"/>
 <g id="layer1" inkscape:label="Background" inkscape:groupmode="layer" transform="translate(0,-26)">
  <g id="g3202" transform="translate(0,25)">
   <path inkscape:connector-curvature="0" id="rect3940" d="m 18,19 0,3 0.5,0 C 19.331,22 20,21.331 20,20.5 20,19.669 19.331,19 18.5,19 L 18,19 z" opacity="0.2" fill="url(#radialGradient3200)"/>
   <path inkscape:connector-curvature="0" id="rect3942" d="M 3.40625,19 C 2.6271875,19 2,19.627187 2,20.40625 l 0,0.1875 C 2,21.372813 2.6271875,22 3.40625,22 L 4,22 4,19 3.40625,19 z" opacity="0.2" fill="url(#radialGradient3197)"/>
   <path sodipodi:nodetypes="ccccc" inkscape:connector-curvature="0" id="rect3938" d="m 4,19 14,0 0,3 -14,0 z" opacity="0.2" fill="url(#linearGradient3194)"/>
  </g>
  <path d="m 19.5,31 c 0,-1.376351 -1.123649,-2.5 -2.5,-2.5 l -12,0 c -1.376351,0 -2.5,1.123649 -2.5,2.5 l 0,12 c 0,1.376351 1.123649,2.5 2.5,2.5 l 12,0 c 1.376351,0 2.5,-1.123649 2.5,-2.5 l 0,-12 z" id="rect2998" inkscape:connector-curvature="0" fill="url(#linearGradient3859)" color="#000000" stroke-width="4"/>
  <path inkscape:connector-curvature="0" id="path3861" d="m 19.5,31 c 0,-1.376351 -1.123649,-2.5 -2.5,-2.5 l -12,0 c -1.376351,0 -2.5,1.123649 -2.5,2.5 l 0,12 c 0,1.376351 1.123649,2.5 2.5,2.5 l 12,0 c 1.376351,0 2.5,-1.123649 2.5,-2.5 l 0,-12 z" opacity="0.41" fill="none" stroke="#000000" color="#000000"/>
 </g>
 <g inkscape:groupmode="layer" id="layer2" inkscape:label="Symbol">
  <path id="path3864" d="m 6,7 0,2 0,2 2,0 0,-2 2,0 0,-2 -2,0 -2,0 z m 6,0 0,2 2,0 0,2 2,0 0,-2 0,-2 -2,0 -2,0 z m -6,6 0,2 0,2 2,0 2,0 0,-2 -2,0 0,-2 -2,0 z m 8,0 0,2 -2,0 0,2 2,0 2,0 0,-2 0,-2 -2,0 z" inkscape:connector-curvature="0" opacity="0.4" fill="#ffffff" color="#000000" stroke-width="4"/>
  <path d="m 6,6 0,2 0,2 2,0 0,-2 2,0 0,-2 -2,0 -2,0 z m 6,0 0,2 2,0 0,2 2,0 0,-2 0,-2 -2,0 -2,0 z m -6,6 0,2 0,2 2,0 2,0 0,-2 -2,0 0,-2 -2,0 z m 8,0 0,2 -2,0 0,2 2,0 2,0 0,-2 0,-2 -2,0 z" id="rect3815" inkscape:connector-curvature="0" fill="#bbbbbb" color="#000000" stroke-width="4"/>
  <path d="M 6,6 6,7 8,7 10,7 10,6 8,6 6,6 z m 6,0 0,1 2,0 2,0 0,-1 -2,0 -2,0 z m -6,6 0,1 2,0 0,-1 -2,0 z m 8,0 0,1 2,0 0,-1 -2,0 z m -6,2 0,1 2,0 0,-1 -2,0 z m 4,0 0,1 2,0 0,-1 -2,0 z" id="path3866" inkscape:connector-curvature="0" opacity="0.1" color="#000000" stroke-width="4"/>
 </g>
</svg>
