<?xml version="1.0" encoding="UTF-8" standalone="no"?>
<!-- Created with Inkscape (http://www.inkscape.org/) -->

<svg
   xmlns:dc="http://purl.org/dc/elements/1.1/"
   xmlns:cc="http://creativecommons.org/ns#"
   xmlns:rdf="http://www.w3.org/1999/02/22-rdf-syntax-ns#"
   xmlns:svg="http://www.w3.org/2000/svg"
   xmlns="http://www.w3.org/2000/svg"
   xmlns:xlink="http://www.w3.org/1999/xlink"
   xmlns:sodipodi="http://sodipodi.sourceforge.net/DTD/sodipodi-0.dtd"
   xmlns:inkscape="http://www.inkscape.org/namespaces/inkscape"
   width="24"
   height="24"
   id="svg3495"
   version="1.1"
   inkscape:version="0.48.4 r9939"
   sodipodi:docname="document-properties.svg">
  <defs
     id="defs3497">
    <clipPath
       clipPathUnits="userSpaceOnUse"
       id="clipPath3669">
      <path
         inkscape:connector-curvature="0"
         d="M 0,96 96,96 96,0 0,0 0,96 z"
         id="path3671" />
    </clipPath>
    <linearGradient
       inkscape:collect="always"
       xlink:href="#outerBackgroundGradient-4"
       id="linearGradient3917"
       x1="0.50000119"
       y1="8"
       x2="15.499999"
       y2="8"
       gradientUnits="userSpaceOnUse"
       gradientTransform="matrix(0,-1,1,0,-1.2130051e-7,16)" />
    <linearGradient
       id="outerBackgroundGradient-4">
      <stop
         style="stop-color:#cfcfcf;stop-opacity:1;"
         offset="0"
         id="stop3864-8-6-6" />
      <stop
         style="stop-color:#ebebeb;stop-opacity:1;"
         offset="1"
         id="stop3866-9-1-7" />
    </linearGradient>
    <linearGradient
       inkscape:collect="always"
       xlink:href="#outerBackgroundGradient-4"
       id="linearGradient3042"
       gradientUnits="userSpaceOnUse"
       gradientTransform="matrix(0,-1.2664031,1.2663965,0,1.8688284,46.131223)"
       x1="0.50000119"
       y1="8"
       x2="15.499999"
       y2="8" />
    <linearGradient
       inkscape:collect="always"
       xlink:href="#outerBackgroundGradient-4"
       id="linearGradient3874"
       gradientUnits="userSpaceOnUse"
       gradientTransform="matrix(0,-1.2664031,1.2663965,0,1.8688284,22.131223)"
       x1="0.50000119"
       y1="8"
       x2="15.499999"
       y2="8" />
    <linearGradient
       inkscape:collect="always"
       xlink:href="#outerBackgroundGradient-4"
       id="linearGradient3887"
       gradientUnits="userSpaceOnUse"
       gradientTransform="matrix(0,-1.2664031,1.2663965,0,1.8688284,22.131223)"
       x1="0.50000119"
       y1="8"
       x2="15.499999"
       y2="8" />
  </defs>
  <sodipodi:namedview
     id="base"
     pagecolor="#ffffff"
     bordercolor="#666666"
     borderopacity="1.0"
     inkscape:pageopacity="0.0"
     inkscape:pageshadow="2"
     inkscape:zoom="1"
     inkscape:cx="12.69448"
     inkscape:cy="7.6652977"
     inkscape:current-layer="layer1"
     showgrid="false"
     inkscape:grid-bbox="true"
     inkscape:document-units="px"
     inkscape:window-width="1364"
     inkscape:window-height="700"
     inkscape:window-x="0"
     inkscape:window-y="28"
     inkscape:window-maximized="1"
     inkscape:snap-bbox="true"
     inkscape:bbox-paths="true"
     inkscape:bbox-nodes="true"
     inkscape:snap-bbox-edge-midpoints="false"
     showguides="true"
     inkscape:guide-bbox="true">
    <inkscape:grid
       type="xygrid"
       id="grid3512"
       empspacing="4"
       visible="true"
       enabled="true"
       snapvisiblegridlinesonly="true"
       dotted="false" />
  </sodipodi:namedview>
  <metadata
     id="metadata3500">
    <rdf:RDF>
      <cc:Work
         rdf:about="">
        <dc:format>image/svg+xml</dc:format>
        <dc:type
           rdf:resource="http://purl.org/dc/dcmitype/StillImage" />
        <dc:title></dc:title>
      </cc:Work>
    </rdf:RDF>
  </metadata>
  <g
     id="layer1"
     inkscape:label="Layer 1"
     inkscape:groupmode="layer"
     transform="translate(0,-24)">
    <path
       style="fill:url(#linearGradient3874);fill-opacity:1;stroke:none;display:inline;enable-background:new"
       d="M 11.6875 2.5 C 11.511873 2.5113955 11.312769 2.543468 11.125 2.625 C 11.125 2.625 10.998153 3.033782 10.90625 4.03125 C 10.793516 5.2512 10.319031 5.56289 9.75 5.96875 C 9.615424 6.01908 9.5066049 6.127375 9.375 6.1875 C 8.6859223 6.303225 8.0673857 6.376615 7.125 5.59375 C 6.3547162 4.953764 6.03125 4.75 6.03125 4.75 C 5.6503261 4.900367 5.3125 5.3125 5.3125 5.3125 C 5.3125 5.3125 4.8998514 5.650298 4.75 6.03125 C 4.75 6.03125 4.9533596 6.354455 5.59375 7.125 C 6.3766502 8.067363 6.3039742 8.627457 5.9375 9.46875 C 5.5710379 10.310032 5.2512248 10.793474 4.03125 10.90625 C 3.0339641 10.99849 2.625 11.125 2.625 11.125 C 2.4616373 11.50081 2.5 12.000014 2.5 12 C 2.5 12 2.483309 12.136885 2.5 12.3125 C 2.516683 12.488155 2.5434635 12.718561 2.625 12.90625 C 2.625 12.90625 3.0338413 13.001707 4.03125 13.09375 C 5.2511432 13.206485 5.5633311 13.679425 5.8125 14.03125 C 6.0616549 14.383064 6.1275386 14.493189 6.1875 14.625 C 6.3032226 15.314352 6.3765968 15.93261 5.59375 16.875 C 4.9537683 17.645262 4.75 17.96875 4.75 17.96875 C 4.8993358 18.348985 5.3125 18.6875 5.3125 18.6875 C 5.3125 18.6875 5.6502043 19.100065 6.03125 19.25 C 6.03125 19.25 6.3547564 19.046223 7.125 18.40625 C 8.0673303 17.623359 8.6858539 17.697011 9.375 17.8125 C 9.506456 17.87218 9.6167904 17.93836 9.96875 18.1875 C 10.320695 18.436629 10.793351 18.748877 10.90625 19.96875 C 10.99849 20.966015 11.125 21.34375 11.125 21.34375 C 11.500944 21.506993 12 21.5 12 21.5 C 12 21.5 12.530917 21.506528 12.90625 21.34375 C 12.90625 21.34375 13.002113 20.966151 13.09375 19.96875 C 13.206624 18.748905 13.679466 18.43686 14.03125 18.1875 C 14.38302 17.93814 14.493368 17.872192 14.625 17.8125 C 15.314336 17.696511 15.932711 17.623439 16.875 18.40625 C 17.645422 19.046221 17.96875 19.25 17.96875 19.25 C 18.349769 19.099524 18.6875 18.6875 18.6875 18.6875 C 18.6875 18.6875 19.10019 18.349675 19.25 17.96875 C 19.25 17.96875 19.046654 17.645249 18.40625 16.875 C 17.623471 15.932611 17.697445 15.314219 17.8125 14.625 C 17.87232 14.493137 17.938395 14.383306 18.1875 14.03125 C 18.436559 13.67918 18.748926 13.20665 19.96875 13.09375 C 20.966023 13.00163 21.34375 12.90625 21.34375 12.90625 C 21.506612 12.530359 21.5 12 21.5 12 C 21.5 12 21.506527 11.500187 21.34375 11.125 C 21.34375 11.125 20.966336 10.998028 19.96875 10.90625 C 18.748926 10.793375 18.43676 10.320312 18.1875 9.96875 C 17.938242 9.617189 17.872192 9.506714 17.8125 9.375 C 17.696511 8.685701 17.623403 8.067403 18.40625 7.125 C 19.046232 6.354738 19.25 6.03125 19.25 6.03125 C 19.099377 5.650161 18.6875 5.3125 18.6875 5.3125 C 18.6875 5.3125 18.349714 4.899853 17.96875 4.75 C 17.96875 4.75 17.64527 4.953209 16.875 5.59375 C 15.932669 6.376643 15.314091 6.302719 14.625 6.1875 C 14.493137 6.12767 14.383206 6.061541 14.03125 5.8125 C 13.679295 5.563461 13.206647 5.251136 13.09375 4.03125 C 13.00163 3.033903 12.90625 2.625 12.90625 2.625 C 12.530347 2.461988 12 2.5 12 2.5 C 12 2.5 11.863127 2.4886045 11.6875 2.5 z M 12 8.5 C 13.932997 8.5 15.5 10.067003 15.5 12 C 15.5 13.932997 13.932997 15.5 12 15.5 C 10.067003 15.5 8.5 13.932997 8.5 12 C 8.5 10.067003 10.067003 8.5 12 8.5 z "
       transform="translate(0,24)"
       id="path3-8-5-9" />
    <path
       id="path3877"
       transform="translate(0,24)"
       d="M 11.6875 2.5 C 11.511873 2.5113955 11.312769 2.543468 11.125 2.625 C 11.125 2.625 10.998153 3.033782 10.90625 4.03125 C 10.793516 5.2512 10.319031 5.56289 9.75 5.96875 C 9.615424 6.01908 9.5066049 6.127375 9.375 6.1875 C 8.6859223 6.303225 8.0673857 6.376615 7.125 5.59375 C 6.3547162 4.953764 6.03125 4.75 6.03125 4.75 C 5.6503261 4.900367 5.3125 5.3125 5.3125 5.3125 C 5.3125 5.3125 4.8998514 5.650298 4.75 6.03125 C 4.75 6.03125 4.9533596 6.354455 5.59375 7.125 C 6.3766502 8.067363 6.3039742 8.627457 5.9375 9.46875 C 5.5710379 10.310032 5.2512248 10.793474 4.03125 10.90625 C 3.0339641 10.99849 2.625 11.125 2.625 11.125 C 2.4616373 11.50081 2.5 12.000014 2.5 12 C 2.5 12 2.483309 12.136885 2.5 12.3125 C 2.516683 12.488155 2.5434635 12.718561 2.625 12.90625 C 2.625 12.90625 3.0338413 13.001707 4.03125 13.09375 C 5.2511432 13.206485 5.5633311 13.679425 5.8125 14.03125 C 6.0616549 14.383064 6.1275386 14.493189 6.1875 14.625 C 6.3032226 15.314352 6.3765968 15.93261 5.59375 16.875 C 4.9537683 17.645262 4.75 17.96875 4.75 17.96875 C 4.8993358 18.348985 5.3125 18.6875 5.3125 18.6875 C 5.3125 18.6875 5.6502043 19.100065 6.03125 19.25 C 6.03125 19.25 6.3547564 19.046223 7.125 18.40625 C 8.0673303 17.623359 8.6858539 17.697011 9.375 17.8125 C 9.506456 17.87218 9.6167904 17.93836 9.96875 18.1875 C 10.320695 18.436629 10.793351 18.748877 10.90625 19.96875 C 10.99849 20.966015 11.125 21.34375 11.125 21.34375 C 11.500944 21.506993 12 21.5 12 21.5 C 12 21.5 12.530917 21.506528 12.90625 21.34375 C 12.90625 21.34375 13.002113 20.966151 13.09375 19.96875 C 13.206624 18.748905 13.679466 18.43686 14.03125 18.1875 C 14.38302 17.93814 14.493368 17.872192 14.625 17.8125 C 15.314336 17.696511 15.932711 17.623439 16.875 18.40625 C 17.645422 19.046221 17.96875 19.25 17.96875 19.25 C 18.349769 19.099524 18.6875 18.6875 18.6875 18.6875 C 18.6875 18.6875 19.10019 18.349675 19.25 17.96875 C 19.25 17.96875 19.046654 17.645249 18.40625 16.875 C 17.623471 15.932611 17.697445 15.314219 17.8125 14.625 C 17.87232 14.493137 17.938395 14.383306 18.1875 14.03125 C 18.436559 13.67918 18.748926 13.20665 19.96875 13.09375 C 20.966023 13.00163 21.34375 12.90625 21.34375 12.90625 C 21.506612 12.530359 21.5 12 21.5 12 C 21.5 12 21.506527 11.500187 21.34375 11.125 C 21.34375 11.125 20.966336 10.998028 19.96875 10.90625 C 18.748926 10.793375 18.43676 10.320312 18.1875 9.96875 C 17.938242 9.617189 17.872192 9.506714 17.8125 9.375 C 17.696511 8.685701 17.623403 8.067403 18.40625 7.125 C 19.046232 6.354738 19.25 6.03125 19.25 6.03125 C 19.099377 5.650161 18.6875 5.3125 18.6875 5.3125 C 18.6875 5.3125 18.349714 4.899853 17.96875 4.75 C 17.96875 4.75 17.64527 4.953209 16.875 5.59375 C 15.932669 6.376643 15.314091 6.302719 14.625 6.1875 C 14.493137 6.12767 14.383206 6.061541 14.03125 5.8125 C 13.679295 5.563461 13.206647 5.251136 13.09375 4.03125 C 13.00163 3.033903 12.90625 2.625 12.90625 2.625 C 12.530347 2.461988 12 2.5 12 2.5 C 12 2.5 11.863127 2.4886045 11.6875 2.5 z M 12 8.5 C 13.932997 8.5 15.5 10.067003 15.5 12 C 15.5 13.932997 13.932997 15.5 12 15.5 C 10.067003 15.5 8.5 13.932997 8.5 12 C 8.5 10.067003 10.067003 8.5 12 8.5 z "
       style="fill:none;fill-opacity:1;stroke:#000000;display:inline;enable-background:new;stroke-opacity:1;opacity:0.41" />
    <path
       style="fill:#ffffff;fill-opacity:1;stroke:none;display:inline;enable-background:new;opacity:0.4"
       d="M 11.71875 3 C 11.665457 3.00346 11.61496 3.02245 11.5625 3.03125 C 11.532217 3.145541 11.47809 3.282768 11.40625 4.0625 C 11.344328 4.732591 11.169764 5.230298 10.90625 5.59375 C 10.642736 5.957202 10.31154 6.175084 10.03125 6.375 L 10 6.40625 L 9.9375 6.4375 C 9.9405061 6.436376 9.8370069 6.545116 9.59375 6.65625 L 9.53125 6.65625 L 9.46875 6.6875 C 8.7655266 6.805601 7.8494187 6.830146 6.8125 5.96875 C 6.2344962 5.488519 6.1106027 5.4505 6 5.375 C 5.8652733 5.488817 5.6875 5.625 5.6875 5.625 L 5.65625 5.65625 L 5.625 5.6875 C 5.625 5.6875 5.4887269 5.865424 5.375 6 C 5.4343992 6.087071 5.5333654 6.2429311 5.78125 6.5625 C 5.8405046 6.5165075 5.9030625 6.4568927 6 6.375 C 6.1106027 6.4505 6.2344962 6.488519 6.8125 6.96875 C 7.8494187 7.830146 8.7655266 7.805601 9.46875 7.6875 L 9.53125 7.65625 L 9.59375 7.65625 C 9.8370069 7.545116 9.94051 7.4364 9.9375 7.4375 L 10 7.40625 L 10.03125 7.375 C 10.31154 7.175084 10.642736 6.957202 10.90625 6.59375 C 11.169764 6.230298 11.34433 5.732591 11.40625 5.0625 C 11.47809 4.282768 11.53222 4.145541 11.5625 4.03125 C 11.61496 4.02245 11.66546 4.0035 11.71875 4 C 11.856135 3.9911 11.96875 4 11.96875 4 L 12 4 L 12.03125 4 C 12.03125 4 12.26045 4.04472 12.4375 4.0625 C 12.46513 4.203706 12.52477 4.315704 12.59375 5.0625 C 12.65574 5.732299 12.831592 6.219683 13.0625 6.5625 C 13.293408 6.905317 13.579719 7.098261 13.75 7.21875 C 14.107962 7.47204 14.243365 7.58235 14.40625 7.65625 L 14.46875 7.65625 L 14.53125 7.6875 C 15.234035 7.805009 16.150542 7.830259 17.1875 6.96875 C 17.765383 6.488194 17.889552 6.45027 18 6.375 C 18.096827 6.4568258 18.159459 6.5164858 18.21875 6.5625 C 18.46654 6.2430028 18.565495 6.0871734 18.625 6 C 18.511177 5.865254 18.375 5.6875 18.375 5.6875 L 18.34375 5.65625 L 18.3125 5.625 C 18.3125 5.625 18.134573 5.488724 18 5.375 C 17.889552 5.450273 17.765383 5.488194 17.1875 5.96875 C 16.150542 6.830259 15.234035 6.805009 14.53125 6.6875 L 14.46875 6.65625 L 14.40625 6.65625 C 14.243365 6.582345 14.107962 6.47204 13.75 6.21875 C 13.579719 6.098261 13.293408 5.905317 13.0625 5.5625 C 12.831592 5.219683 12.65574 4.732299 12.59375 4.0625 C 12.52477 3.315704 12.46513 3.203706 12.4375 3.0625 C 12.26045 3.04472 12.03125 3 12.03125 3 L 12 3 L 11.96875 3 C 11.96875 3 11.856135 2.9911 11.71875 3 z M 6.625 9 C 6.5732734 9.2263825 6.5035644 9.4328515 6.40625 9.65625 C 6.2157556 10.093565 5.9984551 10.521483 5.625 10.84375 C 5.2515449 11.166017 4.7337075 11.3442 4.0625 11.40625 C 3.3058994 11.47623 3.188387 11.53007 3.0625 11.5625 C 3.042366 11.737879 3 11.96875 3 11.96875 L 3 12 L 3 12.0625 C 3 12.0625 2.9885953 12.130005 3 12.25 C 3.0062843 12.316167 3.0204734 12.372196 3.03125 12.4375 C 3.096311 12.450501 3.1671581 12.473066 3.3125 12.5 C 3.4521891 12.473739 3.6841997 12.44124 4.0625 12.40625 C 4.7337075 12.3442 5.2515449 12.166017 5.625 11.84375 C 5.9984551 11.521483 6.2157556 11.093565 6.40625 10.65625 C 6.600879 10.209453 6.733441 9.773393 6.6875 9.28125 C 6.6788084 9.1881419 6.6478509 9.091517 6.625 9 z M 17.3125 9.375 C 17.254008 9.7721462 17.258886 10.150134 17.3125 10.46875 L 17.34375 10.53125 L 17.34375 10.59375 C 17.41729 10.756029 17.527512 10.89212 17.78125 11.25 C 17.90164 11.4198 18.094754 11.706555 18.4375 11.9375 C 18.780246 12.168445 19.267671 12.34427 19.9375 12.40625 C 20.312891 12.440785 20.522524 12.473569 20.65625 12.5 C 20.789266 12.472915 20.839826 12.45121 20.90625 12.4375 C 20.93409 12.246544 21 12 21 12 C 21 12 20.937004 11.75266 20.90625 11.5625 C 20.789342 11.530523 20.688282 11.47532 19.9375 11.40625 C 19.267671 11.344268 18.780246 11.168445 18.4375 10.9375 C 18.094754 10.706555 17.90164 10.4198 17.78125 10.25 C 17.527512 9.89212 17.41729 9.756029 17.34375 9.59375 L 17.34375 9.53125 L 17.3125 9.46875 C 17.307627 9.439789 17.316999 9.4046732 17.3125 9.375 z M 8.0625 12.5 C 8.0418246 12.664208 8 12.830336 8 13 C 8 15.203217 9.7967831 17 12 17 C 14.203217 17 16 15.203217 16 13 C 16 12.830336 15.958175 12.664208 15.9375 12.5 C 15.68969 14.468167 14.033553 16 12 16 C 9.9664469 16 8.3103105 14.468167 8.0625 12.5 z M 6.6875 15.625 C 6.613221 16.09796 6.4314021 16.63056 5.96875 17.1875 C 5.4885247 17.765484 5.450501 17.889395 5.375 18 C 5.4887987 18.134656 5.625 18.3125 5.625 18.3125 L 5.65625 18.34375 L 5.6875 18.375 C 5.6875 18.375 5.7581365 18.419562 5.78125 18.4375 C 5.847854 18.351621 5.8670147 18.309945 5.96875 18.1875 C 6.7946414 17.193293 6.7920565 16.316125 6.6875 15.625 z M 17.3125 15.625 C 17.208561 16.315584 17.205337 17.193181 18.03125 18.1875 C 18.133038 18.309926 18.152121 18.35162 18.21875 18.4375 C 18.241849 18.41957 18.3125 18.375 18.3125 18.375 L 18.34375 18.34375 L 18.375 18.3125 C 18.375 18.3125 18.511274 18.134573 18.625 18 C 18.549673 17.889513 18.511722 17.76539 18.03125 17.1875 C 17.568586 16.630498 17.386689 16.098016 17.3125 15.625 z "
       transform="translate(0,24)"
       id="path3879" />
    <path
       id="path3893"
       d="m 11.71875,46.433044 c -0.05329,-0.0035 -0.10379,-0.02245 -0.15625,-0.03125 -0.03028,-0.114291 -0.08441,-0.251518 -0.15625,-1.03125 -0.06192,-0.670091 -0.236486,-1.167798 -0.5,-1.53125 -0.263514,-0.363452 -0.59471,-0.581334 -0.875,-0.78125 L 10,43.026794 9.9375,42.995544 c 0.00301,0.0011 -0.1004931,-0.107616 -0.34375,-0.21875 l -0.0625,0 -0.0625,-0.03125 C 8.7655266,42.627443 7.8494187,42.602898 6.8125,43.464294 6.2344962,43.944525 6.1106027,43.982544 6,44.058044 c -0.1347267,-0.113817 -0.3125,-0.25 -0.3125,-0.25 L 5.65625,43.776794 5.625,43.745544 c 0,0 -0.1362731,-0.177924 -0.25,-0.3125 0.059399,-0.08707 0.1583654,-0.242931 0.40625,-0.5625 0.059255,0.04599 0.1218125,0.105608 0.21875,0.1875 0.1106027,-0.0755 0.2344962,-0.113519 0.8125,-0.59375 1.0369187,-0.861396 1.9530266,-0.836851 2.65625,-0.71875 l 0.0625,0.03125 0.0625,0 c 0.2432569,0.111134 0.34676,0.21985 0.34375,0.21875 l 0.0625,0.03125 0.03125,0.03125 c 0.28029,0.199916 0.611486,0.417798 0.875,0.78125 0.263514,0.363452 0.43808,0.861159 0.5,1.53125 0.07184,0.779732 0.12597,0.916959 0.15625,1.03125 0.05246,0.0088 0.10296,0.02775 0.15625,0.03125 0.137385,0.0089 0.25,0 0.25,0 l 0.03125,0 0.03125,0 c 0,0 0.2292,-0.04472 0.40625,-0.0625 0.02763,-0.141206 0.08727,-0.253204 0.15625,-1 0.06199,-0.669799 0.237842,-1.157183 0.46875,-1.5 0.230908,-0.342817 0.517219,-0.535761 0.6875,-0.65625 0.357962,-0.25329 0.493365,-0.3636 0.65625,-0.4375 l 0.0625,0 0.0625,-0.03125 c 0.702785,-0.117509 1.619292,-0.142759 2.65625,0.71875 0.577883,0.480556 0.702052,0.51848 0.8125,0.59375 0.09683,-0.08182 0.159459,-0.141485 0.21875,-0.1875 0.24779,0.319498 0.346745,0.475327 0.40625,0.5625 -0.113823,0.134746 -0.25,0.3125 -0.25,0.3125 l -0.03125,0.03125 -0.03125,0.03125 c 0,0 -0.177927,0.136276 -0.3125,0.25 -0.110448,-0.07527 -0.234617,-0.113194 -0.8125,-0.59375 -1.036958,-0.861509 -1.953465,-0.836259 -2.65625,-0.71875 l -0.0625,0.03125 -0.0625,0 c -0.162885,0.07391 -0.298288,0.18421 -0.65625,0.4375 -0.170281,0.120489 -0.456592,0.313433 -0.6875,0.65625 -0.230908,0.342817 -0.40676,0.830201 -0.46875,1.5 -0.06898,0.746796 -0.12862,0.858794 -0.15625,1 -0.17705,0.01778 -0.40625,0.0625 -0.40625,0.0625 l -0.03125,0 -0.03125,0 c 0,0 -0.112615,0.0089 -0.25,0 z m -5.09375,-6 C 6.5732734,40.206662 6.5035644,40.000193 6.40625,39.776794 6.2157556,39.339479 5.9984551,38.911561 5.625,38.589294 c -0.3734551,-0.322267 -0.8912925,-0.50045 -1.5625,-0.5625 -0.7566006,-0.06998 -0.874113,-0.12382 -1,-0.15625 C 3.042366,37.695165 3,37.464294 3,37.464294 l 0,-0.03125 0,-0.0625 c 0,0 -0.011405,-0.0675 0,-0.1875 0.00628,-0.06617 0.020473,-0.122196 0.03125,-0.1875 0.065061,-0.013 0.1359081,-0.03557 0.28125,-0.0625 0.1396891,0.02626 0.3716997,0.05876 0.75,0.09375 0.6712075,0.06205 1.1890449,0.240233 1.5625,0.5625 0.3734551,0.322267 0.5907556,0.750185 0.78125,1.1875 0.194629,0.446797 0.327191,0.882857 0.28125,1.375 -0.00869,0.09311 -0.039649,0.189733 -0.0625,0.28125 z m 10.6875,-0.375 c -0.05849,-0.397146 -0.05361,-0.775134 0,-1.09375 l 0.03125,-0.0625 0,-0.0625 c 0.07354,-0.162279 0.183762,-0.29837 0.4375,-0.65625 0.12039,-0.1698 0.313504,-0.456555 0.65625,-0.6875 0.342746,-0.230945 0.830171,-0.40677 1.5,-0.46875 0.375391,-0.03453 0.585024,-0.06732 0.71875,-0.09375 0.133016,0.02708 0.183576,0.04879 0.25,0.0625 0.02784,0.190956 0.09375,0.4375 0.09375,0.4375 0,0 -0.063,0.24734 -0.09375,0.4375 -0.116908,0.03198 -0.217968,0.08718 -0.96875,0.15625 -0.669829,0.06198 -1.157254,0.237805 -1.5,0.46875 -0.342746,0.230945 -0.53586,0.5177 -0.65625,0.6875 -0.253738,0.35788 -0.36396,0.493971 -0.4375,0.65625 l 0,0.0625 -0.03125,0.0625 c -0.0049,0.02896 0.0045,0.06408 0,0.09375 z m -9.25,-3.125 C 8.0418246,36.768836 8,36.602708 8,36.433044 c 0,-2.203217 1.7967831,-4 4,-4 2.203217,0 4,1.796783 4,4 0,0.169664 -0.04182,0.335792 -0.0625,0.5 -0.24781,-1.968167 -1.903947,-3.5 -3.9375,-3.5 -2.0335531,0 -3.6896895,1.531833 -3.9375,3.5 z m -1.375,-3.125 C 6.613221,33.335084 6.4314021,32.802484 5.96875,32.245544 5.4885247,31.66756 5.450501,31.543649 5.375,31.433044 c 0.1137987,-0.134656 0.25,-0.3125 0.25,-0.3125 l 0.03125,-0.03125 0.03125,-0.03125 c 0,0 0.070636,-0.04456 0.09375,-0.0625 0.066604,0.08588 0.085765,0.127555 0.1875,0.25 0.8258914,0.994207 0.8233065,1.871375 0.71875,2.5625 z m 10.625,0 c -0.103939,-0.690584 -0.107163,-1.568181 0.71875,-2.5625 0.101788,-0.122426 0.120871,-0.16412 0.1875,-0.25 0.0231,0.01793 0.09375,0.0625 0.09375,0.0625 l 0.03125,0.03125 0.03125,0.03125 c 0,0 0.136274,0.177927 0.25,0.3125 -0.07533,0.110487 -0.113278,0.23461 -0.59375,0.8125 -0.462664,0.557002 -0.644561,1.089484 -0.71875,1.5625 z"
       style="opacity:0.2;fill:#000000;fill-opacity:1;stroke:none;display:inline;enable-background:new"
       inkscape:connector-curvature="0" />
  </g>
</svg>
