<?xml version="1.0" encoding="UTF-8" standalone="no"?>
<!-- Created with Inkscape (http://www.inkscape.org/) -->

<svg
   xmlns:dc="http://purl.org/dc/elements/1.1/"
   xmlns:cc="http://creativecommons.org/ns#"
   xmlns:rdf="http://www.w3.org/1999/02/22-rdf-syntax-ns#"
   xmlns:svg="http://www.w3.org/2000/svg"
   xmlns="http://www.w3.org/2000/svg"
   xmlns:xlink="http://www.w3.org/1999/xlink"
   xmlns:sodipodi="http://sodipodi.sourceforge.net/DTD/sodipodi-0.dtd"
   xmlns:inkscape="http://www.inkscape.org/namespaces/inkscape"
   width="24"
   height="24"
   id="svg3495"
   version="1.1"
   inkscape:version="0.48.4 r9939"
   sodipodi:docname="edit-find.svg">
  <defs
     id="defs3497">
    <linearGradient
       id="linearGradient3755">
      <stop
         style="stop-color:#555555;stop-opacity:1;"
         offset="0"
         id="stop3757" />
      <stop
         style="stop-color:#666666;stop-opacity:1;"
         offset="1"
         id="stop3759" />
    </linearGradient>
    <clipPath
       clipPathUnits="userSpaceOnUse"
       id="clipPath3669">
      <path
         inkscape:connector-curvature="0"
         d="M 0,96 96,96 96,0 0,0 0,96 z"
         id="path3671" />
    </clipPath>
    <linearGradient
       inkscape:collect="always"
       xlink:href="#linearGradient3755"
       id="linearGradient3761"
       x1="12"
       y1="22"
       x2="12"
       y2="0"
       gradientUnits="userSpaceOnUse"
       gradientTransform="translate(1,25)" />
  </defs>
  <sodipodi:namedview
     id="base"
     pagecolor="#ffffff"
     bordercolor="#666666"
     borderopacity="1.0"
     inkscape:pageopacity="0.0"
     inkscape:pageshadow="2"
     inkscape:zoom="1"
     inkscape:cx="9.8011628"
     inkscape:cy="13.72863"
     inkscape:current-layer="layer1"
     showgrid="false"
     showborder="false"
     inkscape:grid-bbox="true"
     inkscape:document-units="px"
     inkscape:window-width="1364"
     inkscape:window-height="700"
     inkscape:window-x="0"
     inkscape:window-y="28"
     inkscape:window-maximized="1"
     inkscape:snap-bbox="true"
     inkscape:bbox-paths="true"
     inkscape:bbox-nodes="true"
     inkscape:snap-bbox-edge-midpoints="false">
    <inkscape:grid
       type="xygrid"
       id="grid3512"
       empspacing="4"
       visible="true"
       enabled="true"
       snapvisiblegridlinesonly="true"
       dotted="false" />
  </sodipodi:namedview>
  <metadata
     id="metadata3500">
    <rdf:RDF>
      <cc:Work
         rdf:about="">
        <dc:format>image/svg+xml</dc:format>
        <dc:type
           rdf:resource="http://purl.org/dc/dcmitype/StillImage" />
        <dc:title></dc:title>
      </cc:Work>
    </rdf:RDF>
  </metadata>
  <g
     id="layer1"
     inkscape:label="Layer 1"
     inkscape:groupmode="layer"
     transform="translate(0,-24)">
    <path
       style="color:#000000;fill:url(#linearGradient3761);fill-opacity:1;fill-rule:nonzero;stroke:none;stroke-width:2;marker:none;visibility:visible;display:inline;overflow:visible;enable-background:accumulate"
       d="m 15,25.5 c -4.136213,0 -7.5,3.363787 -7.5,7.5 0,1.524335 0.4991213,2.913417 1.28125,4.09375 l -5.84375,5.84375 -0.03125,0 -0.6875,0.71875 L 1.90625,44 2.25,44.34375 3.65625,45.75 4,46.09375 l 0.34375,-0.3125 0.71875,-0.6875 0,-0.03125 5.84375,-5.84375 C 12.086584,40.000879 13.475666,40.5 15,40.5 c 4.136213,0 7.5,-3.363787 7.5,-7.5 0,-4.136213 -3.363787,-7.5 -7.5,-7.5 z m 0,3 c 2.491204,0 4.5,2.008796 4.5,4.5 0,2.491204 -2.008796,4.5 -4.5,4.5 -2.491204,0 -4.5,-2.008796 -4.5,-4.5 0,-2.491204 2.008796,-4.5 4.5,-4.5 z"
       id="path2993"
       inkscape:connector-curvature="0" />
    <path
       id="path3770"
       d="m 15,25.5 c -4.136213,0 -7.5,3.363787 -7.5,7.5 0,1.524335 0.4991213,2.913417 1.28125,4.09375 l -5.84375,5.84375 -0.03125,0 -0.6875,0.71875 L 1.90625,44 2.25,44.34375 3.65625,45.75 4,46.09375 l 0.34375,-0.3125 0.71875,-0.6875 0,-0.03125 5.84375,-5.84375 C 12.086584,40.000879 13.475666,40.5 15,40.5 c 4.136213,0 7.5,-3.363787 7.5,-7.5 0,-4.136213 -3.363787,-7.5 -7.5,-7.5 z m 0,3 c 2.491204,0 4.5,2.008796 4.5,4.5 0,2.491204 -2.008796,4.5 -4.5,4.5 -2.491204,0 -4.5,-2.008796 -4.5,-4.5 0,-2.491204 2.008796,-4.5 4.5,-4.5 z"
       style="opacity:0.61000001;color:#000000;fill:none;stroke:#000000;stroke-width:1;stroke-miterlimit:4;stroke-opacity:1;stroke-dasharray:none;marker:none;visibility:visible;display:inline;overflow:visible;enable-background:accumulate"
       inkscape:connector-curvature="0" />
    <path
       style="opacity:0.2;color:#000000;fill:#ffffff;fill-opacity:1;fill-rule:nonzero;stroke:none;stroke-width:2;marker:none;visibility:visible;display:inline;overflow:visible;enable-background:accumulate"
       d="m 15,26 c -3.865129,0 -7,3.134871 -7,7 0,0.09667 0.027094,0.185805 0.03125,0.28125 C 8.3898117,29.752075 11.376442,27 15,27 c 3.696941,0 6.712154,2.868201 6.96875,6.5 C 21.980424,33.334776 22,33.168188 22,33 22,29.134871 18.865129,26 15,26 z m -4.96875,7.5 C 10.01417,33.668017 10,33.827501 10,34 c 0,2.759989 2.240011,5 5,5 2.759989,0 5,-2.240011 5,-5 0,-0.172499 -0.01417,-0.331983 -0.03125,-0.5 C 19.712548,36.020256 17.58749,38 15,38 12.41251,38 10.287452,36.020256 10.03125,33.5 z m -1,4.03125 -5.75,5.75 L 3.125,43.4375 2.59375,44 l 0.5,0.5 L 3.125,44.4375 3.28125,44.28125 9.125,38.4375 9.4375,38.15625 9.1875,37.8125 C 9.128725,37.723801 9.086305,37.622149 9.03125,37.53125 z"
       id="path3772"
       inkscape:connector-curvature="0" />
  </g>
</svg>
