<?xml version="1.0" encoding="UTF-8" standalone="no"?>
<!-- Created with Inkscape (http://www.inkscape.org/) -->

<svg
   xmlns:dc="http://purl.org/dc/elements/1.1/"
   xmlns:cc="http://creativecommons.org/ns#"
   xmlns:rdf="http://www.w3.org/1999/02/22-rdf-syntax-ns#"
   xmlns:svg="http://www.w3.org/2000/svg"
   xmlns="http://www.w3.org/2000/svg"
   xmlns:xlink="http://www.w3.org/1999/xlink"
   xmlns:sodipodi="http://sodipodi.sourceforge.net/DTD/sodipodi-0.dtd"
   xmlns:inkscape="http://www.inkscape.org/namespaces/inkscape"
   width="24"
   height="24"
   id="svg3495"
   version="1.1"
   inkscape:version="0.48.4 r9939"
   sodipodi:docname="edit-clear.svg">
  <defs
     id="defs3497">
    <clipPath
       clipPathUnits="userSpaceOnUse"
       id="clipPath3669">
      <path
         inkscape:connector-curvature="0"
         d="M 0,96 96,96 96,0 0,0 0,96 z"
         id="path3671" />
    </clipPath>
    <linearGradient
       inkscape:collect="always"
       xlink:href="#linearGradient3760"
       id="linearGradient3852"
       gradientUnits="userSpaceOnUse"
       gradientTransform="matrix(0.92857143,0,0,-0.92857143,-148,292.57143)"
       x1="168"
       y1="280"
       x2="168"
       y2="264" />
    <linearGradient
       id="linearGradient3760">
      <stop
         style="stop-color:#666666;stop-opacity:1;"
         offset="0"
         id="stop3762" />
      <stop
         style="stop-color:#555555;stop-opacity:1;"
         offset="1"
         id="stop3764" />
    </linearGradient>
    <clipPath
       clipPathUnits="userSpaceOnUse"
       id="clipPath4307">
      <path
         d="m 168,265 c -3.86599,0 -7,3.13401 -7,7 0,3.86599 3.13401,7 7,7 3.866,0 7,-3.13401 7,-7 0,-3.86599 -3.134,-7 -7,-7 z m 3.3125,3.0625 1.5625,1.40625 -5.25,6.9375 -4.0625,-3.5 1.34375,-1.78125 2.375,2.0625 4.03125,-5.125 z"
         inkscape:connector-curvature="0"
         id="path4309"
         style="color:#000000;fill:#36e12b;fill-opacity:1;fill-rule:nonzero;stroke:none;stroke-width:0.84323651;marker:none;visibility:visible;display:inline;overflow:visible;enable-background:accumulate" />
    </clipPath>
    <linearGradient
       y2="264"
       x2="168"
       y1="280"
       x1="168"
       gradientTransform="matrix(0.92857143,0,0,-0.92857143,-40,314.57143)"
       gradientUnits="userSpaceOnUse"
       id="linearGradient3049"
       xlink:href="#linearGradient3760"
       inkscape:collect="always" />
    <linearGradient
       inkscape:collect="always"
       xlink:href="#linearGradient3760"
       id="linearGradient3790"
       x1="-4.8218179"
       y1="18.602501"
       x2="-4.8218179"
       y2="-9.4844999"
       gradientUnits="userSpaceOnUse" />
    <linearGradient
       inkscape:collect="always"
       xlink:href="#linearGradient3760"
       id="linearGradient3805"
       gradientUnits="userSpaceOnUse"
       x1="-4.8218179"
       y1="18.602501"
       x2="-4.8218179"
       y2="-9.4844999" />
    <linearGradient
       inkscape:collect="always"
       xlink:href="#linearGradient3760"
       id="linearGradient3807"
       gradientUnits="userSpaceOnUse"
       x1="-4.8218179"
       y1="18.602501"
       x2="-4.8218179"
       y2="-9.4844999" />
    <linearGradient
       inkscape:collect="always"
       xlink:href="#linearGradient3760"
       id="linearGradient3810"
       gradientUnits="userSpaceOnUse"
       x1="-4.8218179"
       y1="18.602501"
       x2="-4.8218179"
       y2="-9.4844999"
       gradientTransform="matrix(0.78328052,0,0,-0.78328052,16.776836,39.570976)" />
    <linearGradient
       inkscape:collect="always"
       xlink:href="#linearGradient3760"
       id="linearGradient3825"
       gradientUnits="userSpaceOnUse"
       gradientTransform="matrix(0.78328052,0,0,-0.78328052,15.776836,14.570976)"
       x1="-4.8218179"
       y1="18.602501"
       x2="-4.8218179"
       y2="-9.4844999" />
    <linearGradient
       inkscape:collect="always"
       xlink:href="#linearGradient3760"
       id="linearGradient3791"
       gradientUnits="userSpaceOnUse"
       gradientTransform="matrix(0.78328052,0,0,-0.78328052,15.776836,14.570976)"
       x1="-4.8218179"
       y1="18.602501"
       x2="-4.8218179"
       y2="-9.4844999" />
  </defs>
  <sodipodi:namedview
     id="base"
     pagecolor="#ffffff"
     bordercolor="#666666"
     borderopacity="1.0"
     inkscape:pageopacity="0.0"
     inkscape:pageshadow="2"
     inkscape:zoom="1"
     inkscape:cx="7.8068152"
     inkscape:cy="13.79096"
     inkscape:current-layer="layer2"
     showgrid="false"
     showborder="false"
     inkscape:grid-bbox="true"
     inkscape:document-units="px"
     inkscape:window-width="1364"
     inkscape:window-height="700"
     inkscape:window-x="0"
     inkscape:window-y="28"
     inkscape:window-maximized="1"
     inkscape:snap-bbox="true"
     inkscape:bbox-paths="true"
     inkscape:bbox-nodes="true"
     inkscape:snap-bbox-edge-midpoints="false"
     showguides="true"
     inkscape:guide-bbox="true">
    <inkscape:grid
       type="xygrid"
       id="grid3512"
       empspacing="4"
       visible="true"
       enabled="true"
       snapvisiblegridlinesonly="true"
       dotted="false" />
  </sodipodi:namedview>
  <metadata
     id="metadata3500">
    <rdf:RDF>
      <cc:Work
         rdf:about="">
        <dc:format>image/svg+xml</dc:format>
        <dc:type
           rdf:resource="http://purl.org/dc/dcmitype/StillImage" />
        <dc:title />
      </cc:Work>
    </rdf:RDF>
  </metadata>
  <g
     id="layer1"
     inkscape:label="Background"
     inkscape:groupmode="layer"
     transform="translate(0,-24)">
    <path
       style="fill:url(#linearGradient3810);fill-opacity:1;fill-rule:nonzero;stroke:none"
       d="m 9.25,29.5 -6.5,6.53125 6.5,6.46875 12.25,0 0,-13 -12.25,0 z"
       id="path4623"
       inkscape:connector-curvature="0" />
    <g
       transform="matrix(0.78328052,0,0,-0.78328052,15.776836,39.570976)"
       id="g3800"
       style="opacity:0.1;fill:#ffffff;fill-opacity:1" />
    <path
       id="path3779"
       d="m 9.25,29.5 -6.5,6.53125 6.5,6.46875 12.25,0 0,-13 -12.25,0 z"
       style="opacity:0.61000001;fill:none;stroke:#000000;stroke-opacity:1"
       inkscape:connector-curvature="0" />
    <path
       style="opacity:0.2;fill:#ffffff;fill-opacity:1;fill-rule:nonzero;stroke:none"
       d="m 9.4375,30 -6,6.03125 0.5,0.5 L 9.4375,31 21,31 21,30 9.4375,30 z"
       id="path3781"
       inkscape:connector-curvature="0" />
  </g>
  <g
     inkscape:groupmode="layer"
     id="layer2"
     inkscape:label="Symbol"
     transform="translate(0,2)">
    <path
       sodipodi:nodetypes="cscccscscccscscccscscccsc"
       inkscape:connector-curvature="0"
       id="path3797"
       d="m 12,6 0,1 c 0,0.27614 0.100286,0.53778 0.28125,0.71875 L 13.562503,9 12.28125,10.28125 C 12.100286,10.46222 12,10.72386 12,11 l 0,1 1,0 c 0.276142,0 0.537786,-0.10028 0.71875,-0.28125 l 1.281253,-1.28125 1.281247,1.28125 C 16.462214,11.89972 16.723858,12 17,12 l 1,0 0,-1 c 0,0 -0.100286,-0.53778 -0.28125,-0.71875 L 16.437503,9 17.71875,7.71875 C 17.899714,7.53778 18.014986,7.275733 18,7 L 18,6 17,6 C 16.723858,6 16.462214,6.10028 16.28125,6.28125 L 15.000003,7.5625 13.71875,6.28125 C 13.537786,6.10028 13.275667,6.0161869 13,6 z"
       style="opacity:0.3;color:#000000;fill:#000000;fill-opacity:1;fill-rule:nonzero;stroke:none;stroke-width:2;marker:none;visibility:visible;display:inline;overflow:visible;enable-background:new" />
    <path
       style="color:#000000;fill:#ffffff;fill-opacity:1;fill-rule:nonzero;stroke:none;stroke-width:2;marker:none;visibility:visible;display:inline;overflow:visible;enable-background:new"
       d="m 12,7 0,1 c 0,0.27614 0.100286,0.53778 0.28125,0.71875 L 13.562503,10 12.28125,11.28125 C 12.100286,11.46222 12,11.72386 12,12 l 0,1 1,0 c 0.276142,0 0.537786,-0.10028 0.71875,-0.28125 l 1.281253,-1.28125 1.281247,1.28125 C 16.462214,12.89972 16.723858,13 17,13 l 1,0 0,-1 c 0,0 -0.100286,-0.53778 -0.28125,-0.71875 L 16.437503,10 17.71875,8.71875 C 17.899714,8.53778 18.014986,8.275733 18,8 L 18,7 17,7 C 16.723858,7 16.462214,7.10028 16.28125,7.28125 L 15.000003,8.5625 13.71875,7.28125 C 13.537786,7.10028 13.275667,7.0161869 13,7 z"
       id="path5757"
       inkscape:connector-curvature="0"
       sodipodi:nodetypes="cscccscscccscscccscscccsc" />
  </g>
</svg>
