<?xml version="1.0" encoding="UTF-8" standalone="no"?>
<!-- Created with Inkscape (http://www.inkscape.org/) -->

<svg
   xmlns:dc="http://purl.org/dc/elements/1.1/"
   xmlns:cc="http://creativecommons.org/ns#"
   xmlns:rdf="http://www.w3.org/1999/02/22-rdf-syntax-ns#"
   xmlns:svg="http://www.w3.org/2000/svg"
   xmlns="http://www.w3.org/2000/svg"
   xmlns:sodipodi="http://sodipodi.sourceforge.net/DTD/sodipodi-0.dtd"
   xmlns:inkscape="http://www.inkscape.org/namespaces/inkscape"
   width="24"
   height="24"
   id="svg3495"
   version="1.1"
   inkscape:version="0.48.4 r9939"
   sodipodi:docname="format-text-underline.svg">
  <defs
     id="defs3497">
    <clipPath
       clipPathUnits="userSpaceOnUse"
       id="clipPath3669">
      <path
         inkscape:connector-curvature="0"
         d="M 0,96 96,96 96,0 0,0 0,96 z"
         id="path3671" />
    </clipPath>
  </defs>
  <sodipodi:namedview
     id="base"
     pagecolor="#ffffff"
     bordercolor="#666666"
     borderopacity="1.0"
     inkscape:pageopacity="0.0"
     inkscape:pageshadow="2"
     inkscape:zoom="1"
     inkscape:cx="16.763408"
     inkscape:cy="13.842471"
     inkscape:current-layer="layer1"
     showgrid="false"
     inkscape:grid-bbox="true"
     inkscape:document-units="px"
     inkscape:window-width="1364"
     inkscape:window-height="701"
     inkscape:window-x="0"
     inkscape:window-y="27"
     inkscape:window-maximized="1"
     inkscape:snap-bbox="true"
     inkscape:bbox-paths="true"
     inkscape:bbox-nodes="true"
     inkscape:snap-bbox-edge-midpoints="false"
     showguides="true"
     inkscape:guide-bbox="true">
    <inkscape:grid
       type="xygrid"
       id="grid3512"
       empspacing="4"
       visible="true"
       enabled="true"
       snapvisiblegridlinesonly="true"
       dotted="false" />
  </sodipodi:namedview>
  <metadata
     id="metadata3500">
    <rdf:RDF>
      <cc:Work
         rdf:about="">
        <dc:format>image/svg+xml</dc:format>
        <dc:type
           rdf:resource="http://purl.org/dc/dcmitype/StillImage" />
        <dc:title></dc:title>
      </cc:Work>
    </rdf:RDF>
  </metadata>
  <g
     id="layer1"
     inkscape:label="Layer 1"
     inkscape:groupmode="layer"
     transform="translate(1,-25)">
    <g
       id="g3933"
       transform="translate(0,1)">
      <path
         id="path11643-3-2"
         transform="translate(0,26)"
         d="m 5,2 0,3 8.5,0 C 14.14224,5 15,5.92121 15,6.5 L 15,8 7.5,8 C 6.3708281,8 5.3519252,8.3784148 4.59375,9 L 18,9 18,6.5 C 18,4.04849 16.020301,2 13.5,2 L 5,2 z M 3.03125,13 c 0.1076398,0.914344 0.4746173,1.828052 1.125,2.5625 C 4.92473,16.43031 6.13758,17 7.5,17 l 7.5,0 1.5,0 1.5,0 0,-1.25 c 0.02344,-0.140625 0,-0.25 0,-0.25 l 0,-1.5 0,-1 -3,0 0,1 -7.5,0 C 6.903195,14 6.63401,13.81969 6.40625,13.5625 6.27339,13.412472 6.1715437,13.223185 6.09375,13 l -3.0625,0 z"
         style="font-style:normal;font-variant:normal;font-weight:normal;font-stretch:normal;text-indent:0;text-align:start;text-decoration:none;line-height:normal;letter-spacing:normal;word-spacing:normal;text-transform:none;direction:ltr;block-progression:tb;writing-mode:lr-tb;text-anchor:start;baseline-shift:baseline;color:#000000;fill:#555555;fill-opacity:1;stroke:none;stroke-width:2;marker:none;visibility:visible;display:inline;overflow:visible;enable-background:accumulate;font-family:Sans;-inkscape-font-specification:Sans"
         inkscape:connector-curvature="0" />
      <rect
         style="color:#000000;fill:#555555;fill-opacity:1;fill-rule:nonzero;stroke:none;stroke-width:4;marker:none;visibility:visible;display:inline;overflow:visible;enable-background:accumulate"
         id="rect3925"
         width="18"
         height="2"
         x="2"
         y="36" />
    </g>
    <g
       id="g3937"
       style="opacity:0.1;fill:#ffffff;fill-opacity:1">
      <path
         inkscape:connector-curvature="0"
         style="font-style:normal;font-variant:normal;font-weight:normal;font-stretch:normal;text-indent:0;text-align:start;text-decoration:none;line-height:normal;letter-spacing:normal;word-spacing:normal;text-transform:none;direction:ltr;block-progression:tb;writing-mode:lr-tb;text-anchor:start;baseline-shift:baseline;color:#000000;fill:#ffffff;fill-opacity:1;stroke:none;stroke-width:2;marker:none;visibility:visible;display:inline;overflow:visible;enable-background:accumulate;font-family:Sans;-inkscape-font-specification:Sans"
         d="m 5,2 0,3 8.5,0 C 14.14224,5 15,5.92121 15,6.5 L 15,8 7.5,8 C 6.3708281,8 5.3519252,8.3784148 4.59375,9 L 18,9 18,6.5 C 18,4.04849 16.020301,2 13.5,2 L 5,2 z M 3.03125,13 c 0.1076398,0.914344 0.4746173,1.828052 1.125,2.5625 C 4.92473,16.43031 6.13758,17 7.5,17 l 7.5,0 1.5,0 1.5,0 0,-1.25 c 0.02344,-0.140625 0,-0.25 0,-0.25 l 0,-1.5 0,-1 -3,0 0,1 -7.5,0 C 6.903195,14 6.63401,13.81969 6.40625,13.5625 6.27339,13.412472 6.1715437,13.223185 6.09375,13 l -3.0625,0 z"
         transform="translate(0,26)"
         id="path3939" />
      <rect
         y="36"
         x="2"
         height="2"
         width="18"
         id="rect3941"
         style="color:#000000;fill:#ffffff;fill-opacity:1;fill-rule:nonzero;stroke:none;stroke-width:4;marker:none;visibility:visible;display:inline;overflow:visible;enable-background:accumulate" />
    </g>
  </g>
</svg>
