<?xml version="1.0" encoding="UTF-8" standalone="no"?>
<!-- Created with Inkscape (http://www.inkscape.org/) -->

<svg
   xmlns:dc="http://purl.org/dc/elements/1.1/"
   xmlns:cc="http://creativecommons.org/ns#"
   xmlns:rdf="http://www.w3.org/1999/02/22-rdf-syntax-ns#"
   xmlns:svg="http://www.w3.org/2000/svg"
   xmlns="http://www.w3.org/2000/svg"
   xmlns:xlink="http://www.w3.org/1999/xlink"
   xmlns:sodipodi="http://sodipodi.sourceforge.net/DTD/sodipodi-0.dtd"
   xmlns:inkscape="http://www.inkscape.org/namespaces/inkscape"
   width="24"
   height="24"
   id="svg3495"
   version="1.1"
   inkscape:version="0.48.4 r9939"
   sodipodi:docname="format-text-italic.svg">
  <defs
     id="defs3497">
    <clipPath
       clipPathUnits="userSpaceOnUse"
       id="clipPath3669">
      <path
         inkscape:connector-curvature="0"
         d="M 0,96 96,96 96,0 0,0 0,96 z"
         id="path3671" />
    </clipPath>
    <linearGradient
       inkscape:collect="always"
       xlink:href="#linearGradient3821"
       id="linearGradient3793"
       x1="12"
       y1="22"
       x2="12"
       y2="-2"
       gradientUnits="userSpaceOnUse"
       gradientTransform="translate(0,26)" />
    <linearGradient
       id="linearGradient3821">
      <stop
         style="stop-color:#555555;stop-opacity:1;"
         offset="0"
         id="stop3823" />
      <stop
         style="stop-color:#666666;stop-opacity:1;"
         offset="1"
         id="stop3825" />
    </linearGradient>
    <linearGradient
       y2="-2"
       x2="12"
       y1="22"
       x1="12"
       gradientTransform="translate(158.75,53.484375)"
       gradientUnits="userSpaceOnUse"
       id="linearGradient3011"
       xlink:href="#linearGradient3821"
       inkscape:collect="always" />
    <linearGradient
       inkscape:collect="always"
       xlink:href="#linearGradient3821"
       id="linearGradient3800"
       x1="12"
       y1="22"
       x2="12"
       y2="0"
       gradientUnits="userSpaceOnUse"
       gradientTransform="translate(1,25)" />
    <radialGradient
       inkscape:collect="always"
       xlink:href="#linearGradient3952"
       id="radialGradient4051"
       gradientUnits="userSpaceOnUse"
       gradientTransform="matrix(1,0,0,0.75,-22,9.875)"
       cx="40"
       cy="43.5"
       fx="40"
       fy="43.5"
       r="2" />
    <linearGradient
       inkscape:collect="always"
       id="linearGradient3952">
      <stop
         style="stop-color:#000000;stop-opacity:1;"
         offset="0"
         id="stop3954" />
      <stop
         style="stop-color:#000000;stop-opacity:0;"
         offset="1"
         id="stop3956" />
    </linearGradient>
    <radialGradient
       inkscape:collect="always"
       xlink:href="#linearGradient3944"
       id="radialGradient4053"
       gradientUnits="userSpaceOnUse"
       gradientTransform="matrix(1,0,0,0.75,-4,9.875)"
       cx="9"
       cy="43.5"
       fx="9"
       fy="43.5"
       r="2" />
    <linearGradient
       inkscape:collect="always"
       id="linearGradient3944">
      <stop
         style="stop-color:#000000;stop-opacity:1;"
         offset="0"
         id="stop3946" />
      <stop
         style="stop-color:#000000;stop-opacity:0;"
         offset="1"
         id="stop3948" />
    </linearGradient>
    <linearGradient
       inkscape:collect="always"
       xlink:href="#linearGradient3960"
       id="linearGradient4055"
       gradientUnits="userSpaceOnUse"
       gradientTransform="translate(-9,-1)"
       x1="25"
       y1="45"
       x2="25"
       y2="42" />
    <linearGradient
       id="linearGradient3960">
      <stop
         style="stop-color:#000000;stop-opacity:0;"
         offset="0"
         id="stop3962" />
      <stop
         id="stop3970"
         offset="0.5"
         style="stop-color:#000000;stop-opacity:1;" />
      <stop
         style="stop-color:#000000;stop-opacity:0;"
         offset="1"
         id="stop3964" />
    </linearGradient>
    <linearGradient
       y2="42"
       x2="25"
       y1="45"
       x1="25"
       gradientTransform="translate(-9,-1)"
       gradientUnits="userSpaceOnUse"
       id="linearGradient4125"
       xlink:href="#linearGradient3960"
       inkscape:collect="always" />
  </defs>
  <sodipodi:namedview
     id="base"
     pagecolor="#ffffff"
     bordercolor="#666666"
     borderopacity="1.0"
     inkscape:pageopacity="0.0"
     inkscape:pageshadow="2"
     inkscape:zoom="1"
     inkscape:cx="11.301424"
     inkscape:cy="6.1332067"
     inkscape:current-layer="layer1"
     showgrid="false"
     showborder="false"
     inkscape:grid-bbox="true"
     inkscape:document-units="px"
     inkscape:window-width="1364"
     inkscape:window-height="700"
     inkscape:window-x="0"
     inkscape:window-y="28"
     inkscape:window-maximized="1"
     inkscape:snap-bbox="true"
     inkscape:bbox-paths="true"
     inkscape:bbox-nodes="true"
     inkscape:snap-bbox-edge-midpoints="false"
     showguides="true"
     inkscape:guide-bbox="true">
    <inkscape:grid
       type="xygrid"
       id="grid3512"
       empspacing="4"
       visible="true"
       enabled="true"
       snapvisiblegridlinesonly="true"
       dotted="false" />
  </sodipodi:namedview>
  <metadata
     id="metadata3500">
    <rdf:RDF>
      <cc:Work
         rdf:about="">
        <dc:format>image/svg+xml</dc:format>
        <dc:type
           rdf:resource="http://purl.org/dc/dcmitype/StillImage" />
        <dc:title />
      </cc:Work>
    </rdf:RDF>
  </metadata>
  <g
     id="layer1"
     inkscape:label="Layer 1"
     inkscape:groupmode="layer"
     transform="translate(0,-24)">
    <path
       style="font-style:normal;font-variant:normal;font-weight:normal;font-stretch:normal;text-indent:0;text-align:start;text-decoration:none;line-height:normal;letter-spacing:normal;word-spacing:normal;text-transform:none;direction:ltr;block-progression:tb;writing-mode:lr-tb;text-anchor:start;baseline-shift:baseline;color:#000000;fill:#555555;fill-opacity:1;stroke:none;stroke-width:2;marker:none;visibility:visible;display:inline;overflow:visible;enable-background:accumulate;font-family:Sans;-inkscape-font-specification:Sans"
       d="m 7.5,27.5 0,0.5 0,3 0,0.5 0.5,0 9,0 c 0.217058,0 0.240181,0.04724 0.25,0.0625 0.0098,0.01526 0.04061,0.115653 -0.03125,0.375 L 16.8125,33.5 l -7.5,0 C 6.3095009,33.5 4.2092906,35.705015 3.59375,38 3.285578,39.148982 3.2978309,40.471009 4,41.625 4.7270099,42.819816 6.1722884,43.500002 7.6875,43.5 l 9,0 c 1.41124,-2e-5 1.90625,-1.40625 1.90625,-1.40625 l 0,-0.03125 2.5,-9 C 21.831932,30.398368 19.860035,27.5 17,27.5 l -9,0 -0.5,0 z m 1.8125,10 6.375,0 -0.5625,2 -7.4375,0 c -0.2158531,0 -0.265684,-0.02884 -0.28125,-0.03125 -0.00538,-0.01823 0.00219,0.01741 0,-0.03125 C 7.4018726,39.340179 7.389688,39.178224 7.4375,39 7.6287002,38.287162 8.30098,37.5 9.3125,37.5 z"
       id="path11643-3-5"
       inkscape:connector-curvature="0" />
    <path
       id="path3791"
       d="m 7.5,27.5 0,0.5 0,3 0,0.5 0.5,0 9,0 c 0.217058,0 0.240181,0.04724 0.25,0.0625 0.0098,0.01526 0.04061,0.115653 -0.03125,0.375 L 16.8125,33.5 l -7.5,0 C 6.3095009,33.5 4.2092906,35.705015 3.59375,38 3.285578,39.148982 3.2978309,40.471009 4,41.625 4.7270099,42.819816 6.1722884,43.500002 7.6875,43.5 l 9,0 c 1.41124,-2e-5 1.90625,-1.40625 1.90625,-1.40625 l 0,-0.03125 2.5,-9 C 21.831932,30.398368 19.860035,27.5 17,27.5 l -9,0 -0.5,0 z m 1.8125,10 6.375,0 -0.5625,2 -7.4375,0 c -0.2158531,0 -0.265684,-0.02884 -0.28125,-0.03125 -0.00538,-0.01823 0.00219,0.01741 0,-0.03125 C 7.4018726,39.340179 7.389688,39.178224 7.4375,39 7.6287002,38.287162 8.30098,37.5 9.3125,37.5 z"
       style="font-style:normal;font-variant:normal;font-weight:normal;font-stretch:normal;text-indent:0;text-align:start;text-decoration:none;line-height:normal;letter-spacing:normal;word-spacing:normal;text-transform:none;direction:ltr;block-progression:tb;writing-mode:lr-tb;text-anchor:start;baseline-shift:baseline;opacity:0.61000001;color:#000000;fill:url(#linearGradient3800);fill-opacity:1;stroke:#000000;stroke-width:1;stroke-miterlimit:4;stroke-opacity:1;stroke-dasharray:none;marker:none;visibility:visible;display:inline;overflow:visible;enable-background:accumulate;font-family:Sans;-inkscape-font-specification:Sans"
       inkscape:connector-curvature="0" />
    <path
       style="font-style:normal;font-variant:normal;font-weight:normal;font-stretch:normal;text-indent:0;text-align:start;text-decoration:none;line-height:normal;letter-spacing:normal;word-spacing:normal;text-transform:none;direction:ltr;block-progression:tb;writing-mode:lr-tb;text-anchor:start;baseline-shift:baseline;opacity:0.2;color:#000000;fill:#ffffff;fill-opacity:1;stroke:none;stroke-width:2;marker:none;visibility:visible;display:inline;overflow:visible;enable-background:accumulate;font-family:Sans;-inkscape-font-specification:Sans"
       d="m 8,28 0,1 9,0 c 1.988264,0 3.487343,1.604776 3.71875,3.4375 C 21.012943,30.234832 19.342189,28 17,28 l -9,0 z m 9.625,4.25 -0.34375,1.375 -0.09375,0.375 -0.375,0 -7.5,0 c -2.7582421,0 -4.6874201,2.027474 -5.25,4.125 -0.1469784,0.547991 -0.1888275,1.142229 -0.125,1.71875 C 3.96556,39.602062 4.000248,39.3571 4.0625,39.125 4.6250799,37.027474 6.5542579,35 9.3125,35 l 7.5,0 0.375,0 0.09375,-0.375 0.40625,-1.5625 c 0.04527,-0.163393 0.06239,-0.289727 0.0625,-0.40625 5.4e-5,-0.05826 0.01094,-0.10195 0,-0.15625 -0.01094,-0.0543 -0.02097,-0.105422 -0.09375,-0.21875 0.0049,0.0076 -0.02649,-0.02017 -0.03125,-0.03125 z M 16.0625,38 15.59375,39.625 15.5,40 15.125,40 7.6875,40 c -0.1044293,0 -0.1808391,-0.01954 -0.25,-0.03125 -0.00256,0.009 0.0024,0.02225 0,0.03125 -0.047812,0.178224 -0.035627,0.340179 -0.03125,0.4375 l 0,0.03125 -0.5,-0.03125 c 8.98e-5,0.0055 4.45e-5,0.03224 0,0.03125 0.00386,0.03704 -1.24e-5,0.124951 0,0.125 1.9e-5,7e-5 0.02467,0.0115 0.03125,0.03125 0.00264,0.0073 8.26e-5,0.03143 0,0.03125 2.7e-5,7e-5 0.02339,0.01636 0.03125,0.03125 0.0052,0.0085 -0.0062,0.02112 0,0.03125 L 7,40.75 c 0.00396,0.0065 5e-6,0.03126 0,0.03125 l 0.03125,0.125 0.25,0.0625 c 0.01563,0.0046 0.038505,-0.0054 0.0625,0 0.011998,0.0027 0.018157,-0.0024 0.03125,0 0.00606,0.0016 0.031243,0 0.03125,0 C 7.4803334,40.98054 7.5701958,41 7.6875,41 l 7.4375,0 0.375,0 0.09375,-0.375 0.5625,-2 L 16.34375,38 16.0625,38 z M 7.40625,38.96875 C 7.2937405,39.118722 7.2016294,39.274868 7.125,39.4375 l 0.28125,0.03125 0,-0.03125 C 7.4018726,39.340179 7.389688,39.178224 7.4375,39 c 0.0024,-0.009 -0.00256,-0.02226 0,-0.03125 -0.013005,7.12e-4 -0.031257,0 -0.03125,0 z M 7,39.78125 C 6.99046,39.81197 6.976964,39.84438 6.96875,39.875 6.918976,40.060538 6.935012,40.166831 6.9375,40.28125 6.937439,40.2814 7.000062,40.18741 7,40.1875 c -6.22e-5,9.3e-5 0.1250626,-0.125042 0.125,-0.125 -5.01e-5,3.6e-5 0.1510553,-0.07015 0.21875,-0.09375 -0.023995,-0.0054 -0.04687,0.0046 -0.0625,0 l -0.25,-0.0625 L 7,39.78125 z"
       id="path3802"
       inkscape:connector-curvature="0" />
    <g
       id="g4046"
       transform="translate(0,1.5)">
      <path
         inkscape:connector-curvature="0"
         id="rect3940"
         d="m 18,41 0,3 0.5,0 C 19.331,44 20,43.331 20,42.5 20,41.669 19.331,41 18.5,41 L 18,41 z"
         style="opacity:0.2;fill:url(#radialGradient4051);fill-opacity:1;stroke:none" />
      <path
         inkscape:connector-curvature="0"
         id="rect3942"
         d="M 4.40625,41 C 3.6271875,41 3,41.627187 3,42.40625 l 0,0.1875 C 3,43.372813 3.6271875,44 4.40625,44 L 5,44 5,41 4.40625,41 z"
         style="opacity:0.2;fill:url(#radialGradient4053);fill-opacity:1;stroke:none" />
      <path
         sodipodi:nodetypes="ccccc"
         inkscape:connector-curvature="0"
         id="rect3938"
         d="m 5,41 13,0 0,3 -13,0 z"
         style="opacity:0.2;fill:url(#linearGradient4125);fill-opacity:1;stroke:none" />
    </g>
  </g>
</svg>
