<?xml version="1.0" encoding="UTF-8" standalone="no"?>
<!-- Created with Inkscape (http://www.inkscape.org/) -->

<svg
   xmlns:dc="http://purl.org/dc/elements/1.1/"
   xmlns:cc="http://creativecommons.org/ns#"
   xmlns:rdf="http://www.w3.org/1999/02/22-rdf-syntax-ns#"
   xmlns:svg="http://www.w3.org/2000/svg"
   xmlns="http://www.w3.org/2000/svg"
   xmlns:xlink="http://www.w3.org/1999/xlink"
   xmlns:sodipodi="http://sodipodi.sourceforge.net/DTD/sodipodi-0.dtd"
   xmlns:inkscape="http://www.inkscape.org/namespaces/inkscape"
   width="24"
   height="24"
   id="svg3495"
   version="1.1"
   inkscape:version="0.48.4 r9939"
   sodipodi:docname="mail-send-receive.svg">
  <defs
     id="defs3497">
    <linearGradient
       id="linearGradient3785">
      <stop
         style="stop-color:#555555;stop-opacity:1;"
         offset="0"
         id="stop3787" />
      <stop
         style="stop-color:#666666;stop-opacity:1;"
         offset="1"
         id="stop3789" />
    </linearGradient>
    <clipPath
       clipPathUnits="userSpaceOnUse"
       id="clipPath3669">
      <path
         inkscape:connector-curvature="0"
         d="M 0,96 96,96 96,0 0,0 0,96 z"
         id="path3671" />
    </clipPath>
    <linearGradient
       inkscape:collect="always"
       xlink:href="#linearGradient3785"
       id="linearGradient3791"
       x1="12"
       y1="22"
       x2="12"
       y2="-2"
       gradientUnits="userSpaceOnUse"
       gradientTransform="translate(1,25)" />
  </defs>
  <sodipodi:namedview
     id="base"
     pagecolor="#ffffff"
     bordercolor="#666666"
     borderopacity="1.0"
     inkscape:pageopacity="0.0"
     inkscape:pageshadow="2"
     inkscape:zoom="1"
     inkscape:cx="16.782036"
     inkscape:cy="12.327113"
     inkscape:current-layer="layer1"
     showgrid="true"
     showborder="false"
     inkscape:grid-bbox="true"
     inkscape:document-units="px"
     inkscape:window-width="1364"
     inkscape:window-height="700"
     inkscape:window-x="0"
     inkscape:window-y="28"
     inkscape:window-maximized="1"
     inkscape:snap-bbox="true"
     inkscape:bbox-paths="true"
     inkscape:bbox-nodes="true"
     inkscape:snap-bbox-edge-midpoints="false"
     showguides="true"
     inkscape:guide-bbox="true">
    <inkscape:grid
       type="xygrid"
       id="grid3512"
       empspacing="4"
       visible="true"
       enabled="true"
       snapvisiblegridlinesonly="true"
       dotted="false" />
  </sodipodi:namedview>
  <metadata
     id="metadata3500">
    <rdf:RDF>
      <cc:Work
         rdf:about="">
        <dc:format>image/svg+xml</dc:format>
        <dc:type
           rdf:resource="http://purl.org/dc/dcmitype/StillImage" />
        <dc:title></dc:title>
      </cc:Work>
    </rdf:RDF>
  </metadata>
  <g
     id="layer1"
     inkscape:label="Layer 1"
     inkscape:groupmode="layer"
     transform="translate(0,-24)">
    <path
       style="fill:url(#linearGradient3791);fill-opacity:1;fill-rule:nonzero;stroke:none;display:inline;enable-background:new"
       d="M 16,25.84375 15.59375,26.4375 11.25,32.75 l -0.53125,0.78125 0.9375,0 1.84375,0 0,5.46875 0,0.5 0.5,0 4,0 0.5,0 0,-0.5 0,-5.46875 1.875,0 0.96875,0 L 20.78125,32.75 16.40625,26.4375 16,25.84375 z M 5.5,32.5 l 0,0.5 0,5.46875 -1.84375,0 -0.9375,0 L 3.25,39.25 7.59375,45.5625 8,46.15625 8.40625,45.5625 l 4.375,-6.3125 0.5625,-0.78125 -0.96875,0 -1.875,0 0,-5.46875 0,-0.5 -0.5,0 -4,0 -0.5,0 z"
       id="path5972"
       inkscape:connector-curvature="0" />
    <path
       id="path3771"
       d="M 16,25.84375 15.59375,26.4375 11.25,32.75 l -0.53125,0.78125 0.9375,0 1.84375,0 0,5.46875 0,0.5 0.5,0 4,0 0.5,0 0,-0.5 0,-5.46875 1.875,0 0.96875,0 L 20.78125,32.75 16.40625,26.4375 16,25.84375 z M 5.5,32.5 l 0,0.5 0,5.46875 -1.84375,0 -0.9375,0 L 3.25,39.25 7.59375,45.5625 8,46.15625 8.40625,45.5625 l 4.375,-6.3125 0.5625,-0.78125 -0.96875,0 -1.875,0 0,-5.46875 0,-0.5 -0.5,0 -4,0 -0.5,0 z"
       style="opacity:0.61000001;fill:none;stroke:#000000;stroke-opacity:1;display:inline;enable-background:new"
       inkscape:connector-curvature="0" />
    <path
       style="opacity:0.2;fill:#ffffff;fill-opacity:1;fill-rule:nonzero;stroke:none;display:inline;enable-background:new"
       d="m 16,26.71875 -4.34375,6.3125 0.6875,0 3.65625,-5.3125 3.6875,5.3125 0.6875,0 L 16,26.71875 z M 6,33 6,34 9.8125,34 10,33.71875 10,33 6,33 z m 4,1.71875 -0.21875,0.3125 0.21875,0 0,-0.3125 z m -6.34375,4.25 0.6875,1 1.15625,0 0.5,0 0,-0.5 0,-0.5 -0.5,0 -1.84375,0 z m 6.34375,0 0,0.5 0,0.5 0.5,0 1.1875,0 0.6875,-1 -1.875,0 -0.5,0 z m 4,0 0,0.03125 0.28125,0 0.03125,-0.03125 -0.3125,0 z"
       id="path3773"
       inkscape:connector-curvature="0" />
  </g>
</svg>
