<?xml version="1.0" encoding="UTF-8" standalone="no"?>
<!-- Created with Inkscape (http://www.inkscape.org/) -->

<svg
   xmlns:dc="http://purl.org/dc/elements/1.1/"
   xmlns:cc="http://creativecommons.org/ns#"
   xmlns:rdf="http://www.w3.org/1999/02/22-rdf-syntax-ns#"
   xmlns:svg="http://www.w3.org/2000/svg"
   xmlns="http://www.w3.org/2000/svg"
   xmlns:xlink="http://www.w3.org/1999/xlink"
   xmlns:sodipodi="http://sodipodi.sourceforge.net/DTD/sodipodi-0.dtd"
   xmlns:inkscape="http://www.inkscape.org/namespaces/inkscape"
   width="24"
   height="24"
   id="svg3495"
   version="1.1"
   inkscape:version="0.48.4 r9939"
   sodipodi:docname="object-straighten.svg">
  <defs
     id="defs3497">
    <linearGradient
       id="linearGradient3893">
      <stop
         style="stop-color:#555555;stop-opacity:0;"
         offset="0"
         id="stop3895" />
      <stop
         id="stop3903"
         offset="0.05"
         style="stop-color:#555555;stop-opacity:1;" />
      <stop
         id="stop3901"
         offset="0.94999999"
         style="stop-color:#555555;stop-opacity:1;" />
      <stop
         style="stop-color:#555555;stop-opacity:0;"
         offset="1"
         id="stop3897" />
    </linearGradient>
    <linearGradient
       id="linearGradient3881">
      <stop
         style="stop-color:#000000;stop-opacity:0;"
         offset="0"
         id="stop3883" />
      <stop
         id="stop3891"
         offset="0.07756161"
         style="stop-color:#000000;stop-opacity:1;" />
      <stop
         id="stop3889"
         offset="0.91666669"
         style="stop-color:#000000;stop-opacity:1;" />
      <stop
         style="stop-color:#000000;stop-opacity:0;"
         offset="1"
         id="stop3885" />
    </linearGradient>
    <clipPath
       clipPathUnits="userSpaceOnUse"
       id="clipPath3669">
      <path
         inkscape:connector-curvature="0"
         d="M 0,96 96,96 96,0 0,0 0,96 z"
         id="path3671" />
    </clipPath>
    <linearGradient
       inkscape:collect="always"
       xlink:href="#linearGradient3821"
       id="linearGradient3827"
       x1="8"
       y1="16"
       x2="8"
       y2="0"
       gradientUnits="userSpaceOnUse" />
    <linearGradient
       id="linearGradient3821">
      <stop
         style="stop-color:#555555;stop-opacity:1;"
         offset="0"
         id="stop3823" />
      <stop
         style="stop-color:#666666;stop-opacity:1;"
         offset="1"
         id="stop3825" />
    </linearGradient>
    <linearGradient
       gradientTransform="translate(14.052433,27.326995)"
       y2="0"
       x2="8"
       y1="16"
       x1="8"
       gradientUnits="userSpaceOnUse"
       id="linearGradient3056"
       xlink:href="#linearGradient3821"
       inkscape:collect="always" />
    <linearGradient
       inkscape:collect="always"
       xlink:href="#linearGradient4134"
       id="linearGradient4140"
       x1="789"
       y1="256"
       x2="827"
       y2="256"
       gradientUnits="userSpaceOnUse" />
    <linearGradient
       inkscape:collect="always"
       id="linearGradient4134">
      <stop
         style="stop-color:#ffffff;stop-opacity:1;"
         offset="0"
         id="stop4136" />
      <stop
         style="stop-color:#ffffff;stop-opacity:0;"
         offset="1"
         id="stop4138" />
    </linearGradient>
    <clipPath
       clipPathUnits="userSpaceOnUse"
       id="clipPath4130">
      <path
         id="path4132"
         d="M 790.4375,237 C 789.62555,237 789,237.62555 789,238.4375 l 0,35.09375 c 0,0.812 0.62555,1.46875 1.4375,1.46875 l 35.125,0 c 0.81195,0 1.4375,-0.65675 1.4375,-1.46875 l 0,-35.09375 C 827,237.62555 826.37445,237 825.5625,237 l -35.125,0 z"
         style="fill:#ba2222;fill-opacity:1;stroke:none"
         inkscape:connector-curvature="0" />
    </clipPath>
    <linearGradient
       id="linearGradient3413">
      <stop
         style="stop-color:#dddddd;stop-opacity:1;"
         offset="0"
         id="stop3415" />
      <stop
         style="stop-color:#f2f2f2;stop-opacity:1;"
         offset="1"
         id="stop3417" />
    </linearGradient>
    <linearGradient
       id="outerBackgroundGradient-6">
      <stop
         style="stop-color:#c23021;stop-opacity:1;"
         offset="0"
         id="stop3864-8-6-0" />
      <stop
         style="stop-color:#e74c3c;stop-opacity:1;"
         offset="1"
         id="stop3866-9-1-7" />
    </linearGradient>
    <linearGradient
       inkscape:collect="always"
       xlink:href="#linearGradient4134"
       id="linearGradient3907"
       x1="2"
       y1="11"
       x2="20"
       y2="11"
       gradientUnits="userSpaceOnUse"
       gradientTransform="matrix(0,1,-1,0,22,26)" />
    <linearGradient
       inkscape:collect="always"
       xlink:href="#linearGradient3413"
       id="linearGradient3796"
       gradientUnits="userSpaceOnUse"
       gradientTransform="matrix(0,-1,1,0,0,22)"
       x1="1.5"
       y1="11"
       x2="20.5"
       y2="11" />
    <linearGradient
       inkscape:collect="always"
       xlink:href="#linearGradient3413"
       id="linearGradient3803"
       gradientUnits="userSpaceOnUse"
       gradientTransform="matrix(0,-1,1,0,0,22)"
       x1="1.5"
       y1="11"
       x2="20.5"
       y2="11" />
    <linearGradient
       inkscape:collect="always"
       xlink:href="#linearGradient3413"
       id="linearGradient3812"
       gradientUnits="userSpaceOnUse"
       gradientTransform="matrix(0,-1,1,0,0,22)"
       x1="1.5"
       y1="11"
       x2="20.5"
       y2="11" />
    <linearGradient
       inkscape:collect="always"
       xlink:href="#linearGradient3413"
       id="linearGradient3822"
       gradientUnits="userSpaceOnUse"
       gradientTransform="matrix(0,-1,1,0,0,22)"
       x1="1.5"
       y1="11"
       x2="20.5"
       y2="11" />
    <linearGradient
       inkscape:collect="always"
       xlink:href="#linearGradient3413"
       id="linearGradient3831"
       gradientUnits="userSpaceOnUse"
       gradientTransform="matrix(0,-1,1,0,0,22)"
       x1="1.5"
       y1="11"
       x2="20.5"
       y2="11" />
    <linearGradient
       id="linearGradient6557-4">
      <stop
         style="stop-color:#fce94f;stop-opacity:1;"
         offset="0"
         id="stop6559-2" />
      <stop
         id="stop6565-2"
         offset="0.67301035"
         style="stop-color:#fce94f;stop-opacity:1" />
      <stop
         style="stop-color:#fce94f;stop-opacity:0;"
         offset="1"
         id="stop6561-7" />
    </linearGradient>
    <radialGradient
       r="5.4999967"
       fy="785.15662"
       fx="316.08578"
       cy="785.15662"
       cx="316.08578"
       gradientTransform="matrix(2.1730275,0,0,1.9594181,-672.25707,-1534.79)"
       gradientUnits="userSpaceOnUse"
       id="radialGradient4371"
       xlink:href="#linearGradient6620-1"
       inkscape:collect="always" />
    <linearGradient
       id="linearGradient6620-1">
      <stop
         id="stop6622-7"
         offset="0"
         style="stop-color:#ffffff;stop-opacity:1" />
      <stop
         style="stop-color:#ffffff;stop-opacity:1"
         offset="0.32992947"
         id="stop6624-4" />
      <stop
         id="stop6626-5"
         offset="1"
         style="stop-color:#fce94f;stop-opacity:1" />
    </linearGradient>
    <radialGradient
       r="5.2188735"
       fy="816.90698"
       fx="309.36545"
       cy="816.90698"
       cx="309.36545"
       gradientTransform="matrix(4.5697471,-0.00304895,0,4.2377637,-1400.2274,-3458.4132)"
       gradientUnits="userSpaceOnUse"
       id="radialGradient4373"
       xlink:href="#linearGradient6633"
       inkscape:collect="always" />
    <linearGradient
       id="linearGradient6633"
       inkscape:collect="always">
      <stop
         id="stop6635"
         offset="0"
         style="stop-color:#edd400;stop-opacity:1" />
      <stop
         id="stop6637"
         offset="1"
         style="stop-color:#c4a000;stop-opacity:1" />
    </linearGradient>
    <radialGradient
       inkscape:collect="always"
       xlink:href="#linearGradient6557-4"
       id="radialGradient4133"
       gradientUnits="userSpaceOnUse"
       cx="311.46875"
       cy="828.53125"
       fx="311.46875"
       fy="828.53125"
       r="3.28125" />
    <radialGradient
       inkscape:collect="always"
       xlink:href="#linearGradient6620-1"
       id="radialGradient4135"
       gradientUnits="userSpaceOnUse"
       gradientTransform="matrix(2.1730275,0,0,1.9594181,-672.25707,-1534.79)"
       cx="316.08578"
       cy="785.15662"
       fx="316.08578"
       fy="785.15662"
       r="5.4999967" />
    <radialGradient
       inkscape:collect="always"
       xlink:href="#linearGradient6633"
       id="radialGradient4137"
       gradientUnits="userSpaceOnUse"
       gradientTransform="matrix(4.5697471,-0.00304895,0,4.2377637,-1400.2274,-3458.4132)"
       cx="309.36545"
       cy="816.90698"
       fx="309.36545"
       fy="816.90698"
       r="5.2188735" />
    <linearGradient
       y2="10.349108"
       x2="29.440914"
       y1="27.801407"
       x1="29.440914"
       gradientTransform="matrix(0.49219581,0,0,0.45839231,-4.4906943,7.2669423)"
       gradientUnits="userSpaceOnUse"
       id="linearGradient3093"
       xlink:href="#outerBackgroundGradient-6-8"
       inkscape:collect="always" />
    <linearGradient
       id="outerBackgroundGradient-6-8">
      <stop
         style="stop-color:#c23021;stop-opacity:1;"
         offset="0"
         id="stop3864-8-6-0-5" />
      <stop
         style="stop-color:#e74c3c;stop-opacity:1;"
         offset="1"
         id="stop3866-9-1-7-0" />
    </linearGradient>
    <linearGradient
       inkscape:collect="always"
       id="linearGradient3952">
      <stop
         style="stop-color:#000000;stop-opacity:1;"
         offset="0"
         id="stop3954" />
      <stop
         style="stop-color:#000000;stop-opacity:0;"
         offset="1"
         id="stop3956" />
    </linearGradient>
    <linearGradient
       inkscape:collect="always"
       id="linearGradient3944">
      <stop
         style="stop-color:#000000;stop-opacity:1;"
         offset="0"
         id="stop3946" />
      <stop
         style="stop-color:#000000;stop-opacity:0;"
         offset="1"
         id="stop3948" />
    </linearGradient>
    <linearGradient
       id="linearGradient3960">
      <stop
         style="stop-color:#000000;stop-opacity:0;"
         offset="0"
         id="stop3962" />
      <stop
         id="stop3970"
         offset="0.5"
         style="stop-color:#000000;stop-opacity:1;" />
      <stop
         style="stop-color:#000000;stop-opacity:0;"
         offset="1"
         id="stop3964" />
    </linearGradient>
    <linearGradient
       y2="42"
       x2="25"
       y1="45"
       x1="25"
       gradientTransform="translate(-4.0000003,0)"
       gradientUnits="userSpaceOnUse"
       id="linearGradient3196"
       xlink:href="#linearGradient3960"
       inkscape:collect="always" />
    <linearGradient
       id="linearGradient3251">
      <stop
         style="stop-color:#000000;stop-opacity:0;"
         offset="0"
         id="stop3253" />
      <stop
         id="stop3255"
         offset="0.5"
         style="stop-color:#000000;stop-opacity:1;" />
      <stop
         style="stop-color:#000000;stop-opacity:0;"
         offset="1"
         id="stop3257" />
    </linearGradient>
    <linearGradient
       inkscape:collect="always"
       xlink:href="#linearGradient3960"
       id="linearGradient4474"
       gradientUnits="userSpaceOnUse"
       gradientTransform="translate(-8,2.999999)"
       x1="25"
       y1="45"
       x2="25"
       y2="42" />
    <radialGradient
       inkscape:collect="always"
       xlink:href="#linearGradient3944"
       id="radialGradient4477"
       gradientUnits="userSpaceOnUse"
       gradientTransform="matrix(1,0,0,0.75,-7,13.874999)"
       cx="9"
       cy="43.5"
       fx="9"
       fy="43.5"
       r="2" />
    <radialGradient
       inkscape:collect="always"
       xlink:href="#linearGradient3952"
       id="radialGradient4480"
       gradientUnits="userSpaceOnUse"
       gradientTransform="matrix(1,0,0,0.75,-20,13.874999)"
       cx="40"
       cy="43.5"
       fx="40"
       fy="43.5"
       r="2" />
    <radialGradient
       inkscape:collect="always"
       xlink:href="#linearGradient6557-4-7"
       id="radialGradient4268"
       gradientUnits="userSpaceOnUse"
       cx="311.46875"
       cy="828.53125"
       fx="311.46875"
       fy="828.53125"
       r="3.28125" />
    <linearGradient
       id="linearGradient6557-4-7">
      <stop
         style="stop-color:#fce94f;stop-opacity:1;"
         offset="0"
         id="stop6559-2-6" />
      <stop
         id="stop6565-2-5"
         offset="0.67301035"
         style="stop-color:#fce94f;stop-opacity:1" />
      <stop
         style="stop-color:#fce94f;stop-opacity:0;"
         offset="1"
         id="stop6561-7-6" />
    </linearGradient>
    <radialGradient
       inkscape:collect="always"
       xlink:href="#linearGradient6620-1-2"
       id="radialGradient4270"
       gradientUnits="userSpaceOnUse"
       gradientTransform="matrix(2.1730275,0,0,1.9594181,-672.25707,-1534.79)"
       cx="316.08578"
       cy="785.15662"
       fx="316.08578"
       fy="785.15662"
       r="5.4999967" />
    <linearGradient
       id="linearGradient6620-1-2">
      <stop
         id="stop6622-7-6"
         offset="0"
         style="stop-color:#ffffff;stop-opacity:1" />
      <stop
         style="stop-color:#ffffff;stop-opacity:1"
         offset="0.32992947"
         id="stop6624-4-2" />
      <stop
         id="stop6626-5-6"
         offset="1"
         style="stop-color:#fce94f;stop-opacity:1" />
    </linearGradient>
    <radialGradient
       inkscape:collect="always"
       xlink:href="#linearGradient6633-1"
       id="radialGradient4272"
       gradientUnits="userSpaceOnUse"
       gradientTransform="matrix(4.5697471,-0.00304895,0,4.2377637,-1400.2274,-3458.4132)"
       cx="309.36545"
       cy="816.90698"
       fx="309.36545"
       fy="816.90698"
       r="5.2188735" />
    <linearGradient
       id="linearGradient6633-1"
       inkscape:collect="always">
      <stop
         id="stop6635-2"
         offset="0"
         style="stop-color:#edd400;stop-opacity:1" />
      <stop
         id="stop6637-5"
         offset="1"
         style="stop-color:#c4a000;stop-opacity:1" />
    </linearGradient>
    <radialGradient
       r="5.4999967"
       fy="785.15662"
       fx="316.08578"
       cy="785.15662"
       cx="316.08578"
       gradientTransform="matrix(2.1730275,0,0,1.9594181,-672.25707,-1534.79)"
       gradientUnits="userSpaceOnUse"
       id="radialGradient4402"
       xlink:href="#linearGradient6620-1-2"
       inkscape:collect="always" />
    <radialGradient
       r="5.2188735"
       fy="816.90698"
       fx="309.36545"
       cy="816.90698"
       cx="309.36545"
       gradientTransform="matrix(4.5697471,-0.00304895,0,4.2377637,-1400.2274,-3458.4132)"
       gradientUnits="userSpaceOnUse"
       id="radialGradient4404"
       xlink:href="#linearGradient6633-1"
       inkscape:collect="always" />
    <linearGradient
       inkscape:collect="always"
       xlink:href="#linearGradient3881"
       id="linearGradient4125"
       gradientUnits="userSpaceOnUse"
       x1="0.5"
       y1="12.5"
       x2="23.5"
       y2="12.5"
       gradientTransform="translate(0,-2)" />
    <linearGradient
       inkscape:collect="always"
       xlink:href="#linearGradient3893"
       id="linearGradient4127"
       gradientUnits="userSpaceOnUse"
       x1="1"
       y1="12.5"
       x2="23"
       y2="12.5" />
    <linearGradient
       inkscape:collect="always"
       xlink:href="#linearGradient3413"
       id="linearGradient3920"
       gradientUnits="userSpaceOnUse"
       gradientTransform="translate(1,-2)"
       x1="6"
       y1="21"
       x2="6"
       y2="2" />
    <linearGradient
       inkscape:collect="always"
       xlink:href="#linearGradient3413"
       id="linearGradient4075"
       gradientUnits="userSpaceOnUse"
       gradientTransform="translate(1,-2)"
       x1="9"
       y1="14"
       x2="0"
       y2="14" />
    <linearGradient
       inkscape:collect="always"
       xlink:href="#linearGradient3881"
       id="linearGradient4146"
       gradientUnits="userSpaceOnUse"
       x1="1"
       y1="12.5"
       x2="23"
       y2="12.5"
       gradientTransform="translate(0,-2)" />
    <linearGradient
       inkscape:collect="always"
       xlink:href="#linearGradient3881"
       id="linearGradient4292"
       gradientUnits="userSpaceOnUse"
       gradientTransform="translate(0,-2)"
       x1="1"
       y1="12.5"
       x2="23"
       y2="12.5" />
    <linearGradient
       inkscape:collect="always"
       xlink:href="#linearGradient3413"
       id="linearGradient4294"
       gradientUnits="userSpaceOnUse"
       gradientTransform="translate(1,-2)"
       x1="9"
       y1="14"
       x2="0"
       y2="14" />
    <linearGradient
       inkscape:collect="always"
       xlink:href="#linearGradient3881"
       id="linearGradient4302"
       gradientUnits="userSpaceOnUse"
       gradientTransform="translate(0,-2)"
       x1="1"
       y1="12.5"
       x2="23"
       y2="12.5" />
    <radialGradient
       inkscape:collect="always"
       xlink:href="#linearGradient3952-8"
       id="radialGradient3923"
       gradientUnits="userSpaceOnUse"
       gradientTransform="matrix(1,0,0,0.75,-20,13.874999)"
       cx="40"
       cy="43.5"
       fx="40"
       fy="43.5"
       r="2" />
    <linearGradient
       inkscape:collect="always"
       id="linearGradient3952-8">
      <stop
         style="stop-color:#000000;stop-opacity:1;"
         offset="0"
         id="stop3954-6" />
      <stop
         style="stop-color:#000000;stop-opacity:0;"
         offset="1"
         id="stop3956-0" />
    </linearGradient>
    <radialGradient
       inkscape:collect="always"
       xlink:href="#linearGradient3944-3"
       id="radialGradient3925"
       gradientUnits="userSpaceOnUse"
       gradientTransform="matrix(1,0,0,0.75,-7,13.874999)"
       cx="9"
       cy="43.5"
       fx="9"
       fy="43.5"
       r="2" />
    <linearGradient
       inkscape:collect="always"
       id="linearGradient3944-3">
      <stop
         style="stop-color:#000000;stop-opacity:1;"
         offset="0"
         id="stop3946-5" />
      <stop
         style="stop-color:#000000;stop-opacity:0;"
         offset="1"
         id="stop3948-4" />
    </linearGradient>
    <linearGradient
       inkscape:collect="always"
       xlink:href="#linearGradient3960-2"
       id="linearGradient3927"
       gradientUnits="userSpaceOnUse"
       gradientTransform="translate(-8,2.999999)"
       x1="25"
       y1="45"
       x2="25"
       y2="42" />
    <linearGradient
       id="linearGradient3960-2">
      <stop
         style="stop-color:#000000;stop-opacity:0;"
         offset="0"
         id="stop3962-1" />
      <stop
         id="stop3970-4"
         offset="0.5"
         style="stop-color:#000000;stop-opacity:1;" />
      <stop
         style="stop-color:#000000;stop-opacity:0;"
         offset="1"
         id="stop3964-4" />
    </linearGradient>
    <linearGradient
       inkscape:collect="always"
       xlink:href="#linearGradient3413-6"
       id="linearGradient3929"
       gradientUnits="userSpaceOnUse"
       gradientTransform="matrix(0,-1,1,0,1,23)"
       x1="1.5"
       y1="11"
       x2="20.5"
       y2="11" />
    <linearGradient
       id="linearGradient3413-6">
      <stop
         style="stop-color:#dddddd;stop-opacity:1;"
         offset="0"
         id="stop3415-3" />
      <stop
         style="stop-color:#f2f2f2;stop-opacity:1;"
         offset="1"
         id="stop3417-3" />
    </linearGradient>
    <linearGradient
       inkscape:collect="always"
       xlink:href="#linearGradient3881"
       id="linearGradient4720"
       gradientUnits="userSpaceOnUse"
       gradientTransform="translate(0,-3)"
       x1="1"
       y1="12.5"
       x2="23"
       y2="12.5" />
  </defs>
  <sodipodi:namedview
     id="base"
     pagecolor="#ffffff"
     bordercolor="#666666"
     borderopacity="1.0"
     inkscape:pageopacity="0.0"
     inkscape:pageshadow="2"
     inkscape:zoom="1"
     inkscape:cx="17.483674"
     inkscape:cy="11.207818"
     inkscape:current-layer="layer2"
     showgrid="false"
     showborder="false"
     inkscape:grid-bbox="true"
     inkscape:document-units="px"
     inkscape:window-width="1364"
     inkscape:window-height="700"
     inkscape:window-x="0"
     inkscape:window-y="28"
     inkscape:window-maximized="1"
     inkscape:snap-bbox="true"
     inkscape:bbox-paths="true"
     inkscape:bbox-nodes="true"
     inkscape:snap-bbox-edge-midpoints="false">
    <inkscape:grid
       type="xygrid"
       id="grid3512"
       empspacing="4"
       visible="true"
       enabled="true"
       snapvisiblegridlinesonly="true"
       dotted="false" />
    <inkscape:grid
       type="xygrid"
       id="grid3022"
       empspacing="5"
       visible="true"
       enabled="true"
       snapvisiblegridlinesonly="true"
       dotted="true"
       spacingx="0.5px"
       spacingy="0.5px" />
  </sodipodi:namedview>
  <metadata
     id="metadata3500">
    <rdf:RDF>
      <cc:Work
         rdf:about="">
        <dc:format>image/svg+xml</dc:format>
        <dc:type
           rdf:resource="http://purl.org/dc/dcmitype/StillImage" />
        <dc:title></dc:title>
      </cc:Work>
    </rdf:RDF>
  </metadata>
  <g
     id="layer1"
     inkscape:label="Background"
     inkscape:groupmode="layer"
     transform="translate(0,-24)" />
  <g
     inkscape:groupmode="layer"
     id="layer2"
     inkscape:label="Symbol"
     transform="translate(0,2)">
    <g
       id="g3905"
       transform="matrix(0.98480776,0.17364818,-0.17364818,0.98480776,7.1472457,-28.233634)">
      <g
         transform="translate(1,-1)"
         id="g4741">
        <path
           style="opacity:0.3;fill:url(#radialGradient3923);fill-opacity:1;stroke:none"
           d="m 20,44.999999 0,3 0.5,0 c 0.831,0 1.5,-0.669 1.5,-1.5 0,-0.831 -0.669,-1.5 -1.5,-1.5 l -0.5,0 z"
           id="rect3940"
           inkscape:connector-curvature="0" />
        <path
           style="opacity:0.3;fill:url(#radialGradient3925);fill-opacity:1;stroke:none"
           d="M 1.40625,44.999999 C 0.6271875,44.999999 0,45.627186 0,46.406249 l 0,0.1875 c 0,0.779063 0.6271875,1.40625 1.40625,1.40625 l 0.59375,0 0,-3 -0.59375,0 z"
           id="rect3942"
           inkscape:connector-curvature="0" />
        <path
           style="opacity:0.3;fill:url(#linearGradient3927);fill-opacity:1;stroke:none"
           d="M 1.9998571,44.999999 20,45 l 0,3 -18.0001429,-10e-7 z"
           id="rect3938"
           inkscape:connector-curvature="0"
           sodipodi:nodetypes="ccccc" />
      </g>
      <path
         id="rect3847"
         transform="translate(0,24)"
         d="m 3.5,2.5 c -1,0 -1,1 -1,1 l 0,3.5 0,13.5 c 0,1 1,1 1,1 l 17,0 c 0,0 1,0 1,-1 l 0,-13.5 0,-3.5 c 0,0 0,-1 -1,-1 l -17,0 z"
         style="fill:url(#linearGradient3929);fill-opacity:1;stroke:none"
         inkscape:connector-curvature="0" />
      <path
         inkscape:connector-curvature="0"
         id="path3818"
         d="M 3.5,27 C 3.1666667,27 3.1278715,27.088007 3.0625,27.21875 2.99713,27.349493 3,27.5 3,27.5 L 3,31 3,44.5 c 0,0.333333 0.088007,0.372128 0.21875,0.4375 C 3.349493,45.0029 3.5,45 3.5,45 l 17,0 c 0,0 0.150507,0.0029 0.28125,-0.0625 C 20.91199,44.872128 21,44.833333 21,44.5 L 21,31 21,27.5 c 0,0 0.0029,-0.150507 -0.0625,-0.28125 C 20.872128,27.08801 20.833333,27 20.5,27 l -17,0 z M 4,28 20,28 20,44 4,44 4,28 z"
         style="opacity:0.1;fill:#ffffff;fill-opacity:1;stroke:none" />
      <path
         id="path3024"
         transform="translate(0,24)"
         d="M 3.5,2 C 2.8333333,2 2.3721285,2.411993 2.1875,2.78125 2.0028715,3.150507 2,3.5 2,3.5 L 2,7 2,20.5 c 0,0.666667 0.411993,1.127872 0.78125,1.3125 C 3.150507,21.997128 3.5,22 3.5,22 l 17,0 c 0,0 0.349493,-0.0029 0.71875,-0.1875 C 21.588007,21.627872 22,21.166667 22,20.5 L 22,7 22,3.5 C 22,3.5 21.9971,3.150507 21.8125,2.78125 21.627872,2.411993 21.166667,2 20.5,2 l -17,0 z m 0,1 17,0 c 0.333333,0 0.372128,0.08801 0.4375,0.21875 C 21.002872,3.349493 21,3.5 21,3.5 l 0,3.5 0,13.5 c 0,0.333333 -0.08801,0.372128 -0.21875,0.4375 C 20.650507,21.002872 20.5,21 20.5,21 l -17,0 C 3.5,21 3.349493,21.0029 3.21875,20.9375 3.088007,20.872128 3,20.833333 3,20.5 L 3,7 3,3.5 C 3,3.5 2.99713,3.349493 3.0625,3.21875 3.1278715,3.088007 3.1666667,3 3.5,3 z"
         style="font-size:medium;font-style:normal;font-variant:normal;font-weight:normal;font-stretch:normal;text-indent:0;text-align:start;text-decoration:none;line-height:normal;letter-spacing:normal;word-spacing:normal;text-transform:none;direction:ltr;block-progression:tb;writing-mode:lr-tb;text-anchor:start;baseline-shift:baseline;opacity:0.41000001;color:#000000;fill:#000000;fill-opacity:1;stroke:none;stroke-width:1;marker:none;visibility:visible;display:inline;overflow:visible;enable-background:accumulate;font-family:Sans;-inkscape-font-specification:Sans"
         inkscape:connector-curvature="0" />
      <path
         inkscape:connector-curvature="0"
         id="path3799"
         d="M 3.5,27 C 3.1666667,27 3.1278715,27.088007 3.0625,27.21875 2.99713,27.349493 3,27.5 3,27.5 l 0,0.90625 C 3.00745,28.35228 3.029815,28.284121 3.0625,28.21875 3.1278715,28.08801 3.1666667,28 3.5,28 l 17,0 c 0.333333,0 0.37213,0.08801 0.4375,0.21875 0.0327,0.06537 0.05505,0.13353 0.0625,0.1875 L 21,27.5 c 0,0 0.0029,-0.150507 -0.0625,-0.28125 C 20.872128,27.08801 20.833333,27 20.5,27 l -17,0 z"
         style="opacity:0.15;fill:#ffffff;fill-opacity:1;stroke:none" />
    </g>
    <path
       inkscape:connector-curvature="0"
       id="rect3859"
       d="m 0.5,8 0,0.5 0,1 0,0.5 L 1,10 2.5,10 3,10 3,9.5 3,8.5 3,8 2.5,8 1,8 0.5,8 z m 3.5,0 0,0.5 0,1 0,0.5 0.5,0 2,0 L 7,10 7,9.5 7,8.5 7,8 6.5,8 4.5,8 4,8 z m 4,0 0,0.5 0,1 0,0.5 0.5,0 2,0 0.5,0 0,-0.5 0,-1 L 11,8 10.5,8 8.5,8 8,8 z m 4,0 0,0.5 0,1 0,0.5 0.5,0 2,0 0.5,0 0,-0.5 0,-1 0,-0.5 -0.5,0 -2,0 -0.5,0 z m 4,0 0,0.5 0,1 0,0.5 0.5,0 2,0 0.5,0 0,-0.5 0,-1 0,-0.5 -0.5,0 -2,0 -0.5,0 z m 4,0 0,2 3,0 0,-2 -3,0 z"
       style="opacity:0.61000001;fill:url(#linearGradient4720);fill-opacity:1;stroke:none" />
  </g>
</svg>
