<?xml version="1.0" encoding="UTF-8" standalone="no"?>
<!-- Created with Inkscape (http://www.inkscape.org/) -->

<svg
   xmlns:dc="http://purl.org/dc/elements/1.1/"
   xmlns:cc="http://creativecommons.org/ns#"
   xmlns:rdf="http://www.w3.org/1999/02/22-rdf-syntax-ns#"
   xmlns:svg="http://www.w3.org/2000/svg"
   xmlns="http://www.w3.org/2000/svg"
   xmlns:xlink="http://www.w3.org/1999/xlink"
   xmlns:sodipodi="http://sodipodi.sourceforge.net/DTD/sodipodi-0.dtd"
   xmlns:inkscape="http://www.inkscape.org/namespaces/inkscape"
   width="24"
   height="24"
   id="svg3495"
   version="1.1"
   inkscape:version="0.48.4 r9939"
   sodipodi:docname="object-rotate-right.svg">
  <defs
     id="defs3497">
    <linearGradient
       inkscape:collect="always"
       xlink:href="#linearGradient3821"
       id="linearGradient2997"
       gradientUnits="userSpaceOnUse"
       x1="12"
       y1="22"
       x2="12"
       y2="-2"
       gradientTransform="translate(0,26)" />
    <linearGradient
       id="linearGradient3821">
      <stop
         style="stop-color:#555555;stop-opacity:1;"
         offset="0"
         id="stop3823" />
      <stop
         style="stop-color:#666666;stop-opacity:1;"
         offset="1"
         id="stop3825" />
    </linearGradient>
    <linearGradient
       y2="-2"
       x2="12"
       y1="22"
       x1="12"
       gradientUnits="userSpaceOnUse"
       id="linearGradient3967"
       xlink:href="#linearGradient3821"
       inkscape:collect="always"
       gradientTransform="translate(12.46875,43.03125)" />
    <linearGradient
       inkscape:collect="always"
       xlink:href="#linearGradient3821"
       id="linearGradient3798"
       x1="11"
       y1="22"
       x2="11"
       y2="0"
       gradientUnits="userSpaceOnUse"
       gradientTransform="translate(1,25)" />
    <linearGradient
       inkscape:collect="always"
       xlink:href="#linearGradient3821"
       id="linearGradient3826"
       gradientUnits="userSpaceOnUse"
       x1="11"
       y1="22"
       x2="11"
       y2="0" />
  </defs>
  <sodipodi:namedview
     id="base"
     pagecolor="#ffffff"
     bordercolor="#666666"
     borderopacity="1.0"
     inkscape:pageopacity="0.0"
     inkscape:pageshadow="2"
     inkscape:zoom="1"
     inkscape:cx="13.199228"
     inkscape:cy="16.628188"
     inkscape:current-layer="layer1"
     showgrid="false"
     inkscape:grid-bbox="true"
     inkscape:document-units="px"
     inkscape:window-width="1364"
     inkscape:window-height="700"
     inkscape:window-x="0"
     inkscape:window-y="28"
     inkscape:window-maximized="1"
     inkscape:snap-bbox="true"
     inkscape:bbox-nodes="true">
    <inkscape:grid
       type="xygrid"
       id="grid3512"
       empspacing="4"
       visible="true"
       enabled="true"
       snapvisiblegridlinesonly="true"
       dotted="false" />
  </sodipodi:namedview>
  <metadata
     id="metadata3500">
    <rdf:RDF>
      <cc:Work
         rdf:about="">
        <dc:format>image/svg+xml</dc:format>
        <dc:type
           rdf:resource="http://purl.org/dc/dcmitype/StillImage" />
        <dc:title />
      </cc:Work>
    </rdf:RDF>
  </metadata>
  <g
     id="layer1"
     inkscape:label="Layer 1"
     inkscape:groupmode="layer"
     transform="translate(0,-24)">
    <path
       style="font-size:medium;font-style:normal;font-variant:normal;font-weight:normal;font-stretch:normal;text-indent:0;text-align:start;text-decoration:none;line-height:normal;letter-spacing:normal;word-spacing:normal;text-transform:none;direction:ltr;block-progression:tb;writing-mode:lr-tb;text-anchor:start;baseline-shift:baseline;color:#000000;fill:url(#linearGradient3798);fill-opacity:1;stroke:none;stroke-width:1;marker:none;visibility:visible;display:inline;overflow:visible;enable-background:accumulate;font-family:Sans;-inkscape-font-specification:Sans"
       d="m 11.8125,27.53125 c -0.810314,0.01735 -1.622016,0.121237 -2.40625,0.375 C 8.3210201,28.256048 7.3031489,28.813725 6.4375,29.5625 5.5684867,30.310007 4.879309,31.198439 4.375,32.21875 3.8914987,33.203659 3.6122431,34.274584 3.53125,35.375 3.5156694,35.584561 3.5,35.790841 3.5,36 c 0,0.886488 0.1357547,1.751862 0.40625,2.59375 0.3484981,1.085256 0.9092239,2.101888 1.65625,2.96875 0.7470691,0.867036 1.6359392,1.557018 2.65625,2.0625 0.9862213,0.486878 2.058678,0.762736 3.15625,0.84375 C 11.572048,44.48349 11.767868,44.5 11.96875,44.5 L 12,44.5 c 0.87579,0 1.765378,-0.140919 2.59375,-0.40625 0.0087,-0.0028 0.02256,0.0028 0.03125,0 1.073666,-0.348324 2.075452,-0.914594 2.9375,-1.65625 0.867679,-0.748615 1.55885,-1.634137 2.0625,-2.65625 l 0.21875,-0.46875 -0.4375,-0.21875 -2.03125,-1 -0.4375,-0.21875 -0.21875,0.4375 c -0.310881,0.625119 -0.746313,1.162642 -1.28125,1.625 -0.536608,0.461294 -1.117629,0.815858 -1.78125,1.03125 -0.518449,0.167003 -1.055441,0.25 -1.59375,0.25 -0.137851,-0.0014 -0.285683,-0.0216 -0.40625,-0.03125 -0.684084,-0.0504 -1.335368,-0.234207 -1.9375,-0.53125 -0.6228751,-0.307089 -1.1605594,-0.712191 -1.625,-1.25 C 7.6325953,38.872599 7.2779226,38.257466 7.0625,37.59375 6.8978738,37.081134 6.8125,36.547501 6.8125,36 c 0,-0.129575 0.021166,-0.271792 0.03125,-0.40625 0.049628,-0.67467 0.2325882,-1.302215 0.53125,-1.90625 0.3086972,-0.62543 0.7160917,-1.163714 1.25,-1.625 0.5348837,-0.46164 1.1494897,-0.816727 1.8125,-1.03125 0.617117,-0.197743 1.284961,-0.257068 2,-0.21875 0.658237,0.04868 1.313713,0.2064 1.90625,0.5 0.287712,0.141993 0.5664,0.377104 0.84375,0.59375 l -0.96875,0.84375 -0.75,0.65625 0.96875,0.21875 5.03125,1.1875 0.65625,0.15625 -0.0625,-0.6875 -0.375,-5.15625 -0.0625,-0.96875 -0.75,0.625 -1.15625,1 C 17.13238,29.238272 16.50452,28.73103 15.78125,28.375 14.797189,27.886088 13.732234,27.61295 12.625,27.53125 c -0.266868,-0.01568 -0.542395,-0.0058 -0.8125,0 z M 12,34.5 c -0.822505,0 -1.5,0.677495 -1.5,1.5 0,0.822505 0.677495,1.5 1.5,1.5 0.822505,0 1.5,-0.677495 1.5,-1.5 0,-0.822505 -0.677495,-1.5 -1.5,-1.5 z"
       id="path3010"
       inkscape:connector-curvature="0" />
    <g
       id="g4776"
       style="opacity:0.1;fill:#ffffff;fill-opacity:1"
       transform="matrix(0.5,0,0,0.5,-3.7888345,22.000001)" />
    <path
       id="path3814"
       d="m 11.8125,27.53125 c -0.810314,0.01735 -1.622016,0.121237 -2.40625,0.375 C 8.3210201,28.256048 7.3031489,28.813725 6.4375,29.5625 5.5684867,30.310007 4.879309,31.198439 4.375,32.21875 3.8914987,33.203659 3.6122431,34.274584 3.53125,35.375 3.5156694,35.584561 3.5,35.790841 3.5,36 c 0,0.886488 0.1357547,1.751862 0.40625,2.59375 0.3484981,1.085256 0.9092239,2.101888 1.65625,2.96875 0.7470691,0.867036 1.6359392,1.557018 2.65625,2.0625 0.9862213,0.486878 2.058678,0.762736 3.15625,0.84375 C 11.572048,44.48349 11.767868,44.5 11.96875,44.5 L 12,44.5 c 0.87579,0 1.765378,-0.140919 2.59375,-0.40625 0.0087,-0.0028 0.02256,0.0028 0.03125,0 1.073666,-0.348324 2.075452,-0.914594 2.9375,-1.65625 0.867679,-0.748615 1.55885,-1.634137 2.0625,-2.65625 l 0.21875,-0.46875 -0.4375,-0.21875 -2.03125,-1 -0.4375,-0.21875 -0.21875,0.4375 c -0.310881,0.625119 -0.746313,1.162642 -1.28125,1.625 -0.536608,0.461294 -1.117629,0.815858 -1.78125,1.03125 -0.518449,0.167003 -1.055441,0.25 -1.59375,0.25 -0.137851,-0.0014 -0.285683,-0.0216 -0.40625,-0.03125 -0.684084,-0.0504 -1.335368,-0.234207 -1.9375,-0.53125 -0.6228751,-0.307089 -1.1605594,-0.712191 -1.625,-1.25 C 7.6325953,38.872599 7.2779226,38.257466 7.0625,37.59375 6.8978738,37.081134 6.8125,36.547501 6.8125,36 c 0,-0.129575 0.021166,-0.271792 0.03125,-0.40625 0.049628,-0.67467 0.2325882,-1.302215 0.53125,-1.90625 0.3086972,-0.62543 0.7160917,-1.163714 1.25,-1.625 0.5348837,-0.46164 1.1494897,-0.816727 1.8125,-1.03125 0.617117,-0.197743 1.284961,-0.257068 2,-0.21875 0.658237,0.04868 1.313713,0.2064 1.90625,0.5 0.287712,0.141993 0.5664,0.377104 0.84375,0.59375 l -0.96875,0.84375 -0.75,0.65625 0.96875,0.21875 5.03125,1.1875 0.65625,0.15625 -0.0625,-0.6875 -0.375,-5.15625 -0.0625,-0.96875 -0.75,0.625 -1.15625,1 C 17.13238,29.238272 16.50452,28.73103 15.78125,28.375 14.797189,27.886088 13.732234,27.61295 12.625,27.53125 c -0.266868,-0.01568 -0.542395,-0.0058 -0.8125,0 z M 12,34.5 c -0.822505,0 -1.5,0.677495 -1.5,1.5 0,0.822505 0.677495,1.5 1.5,1.5 0.822505,0 1.5,-0.677495 1.5,-1.5 0,-0.822505 -0.677495,-1.5 -1.5,-1.5 z"
       style="font-size:medium;font-style:normal;font-variant:normal;font-weight:normal;font-stretch:normal;text-indent:0;text-align:start;text-decoration:none;line-height:normal;letter-spacing:normal;word-spacing:normal;text-transform:none;direction:ltr;block-progression:tb;writing-mode:lr-tb;text-anchor:start;baseline-shift:baseline;opacity:0.61000001;color:#000000;fill:none;stroke:#000000;stroke-width:1;stroke-opacity:1;marker:none;visibility:visible;display:inline;overflow:visible;enable-background:accumulate;font-family:Sans;-inkscape-font-specification:Sans"
       inkscape:connector-curvature="0" />
    <path
       style="font-size:medium;font-style:normal;font-variant:normal;font-weight:normal;font-stretch:normal;text-indent:0;text-align:start;text-decoration:none;line-height:normal;letter-spacing:normal;word-spacing:normal;text-transform:none;direction:ltr;block-progression:tb;writing-mode:lr-tb;text-anchor:start;baseline-shift:baseline;opacity:0.2;color:#000000;fill:#ffffff;fill-opacity:1;stroke:none;stroke-width:1;marker:none;visibility:visible;display:inline;overflow:visible;enable-background:accumulate;font-family:Sans;-inkscape-font-specification:Sans"
       d="m 11.8125,28.03125 c -0.774752,0.01659 -1.523884,0.108793 -2.25,0.34375 -1.0244276,0.3302 -2.0006211,0.860235 -2.8125,1.5625 -0.8196061,0.705008 -1.4622816,1.538545 -1.9375,2.5 C 4.3586196,33.36207 4.10781,34.366058 4.03125,35.40625 4.01563,35.616336 4,35.815813 4,36 c 0,0.135779 0.024841,0.271832 0.03125,0.40625 0.07656,-1.040192 0.3273696,-2.04418 0.78125,-2.96875 0.4752184,-0.961455 1.1178939,-1.794992 1.9375,-2.5 0.8118789,-0.702265 1.7880724,-1.2323 2.8125,-1.5625 0.726116,-0.234957 1.475248,-0.32716 2.25,-0.34375 0.275032,-0.0059 0.54679,-0.01377 0.78125,0 1.049137,0.07741 2.046965,0.323279 2.96875,0.78125 0.657309,0.323561 1.242782,0.816192 1.8125,1.34375 l 0.34375,0.28125 0.3125,-0.28125 1.15625,-1 0.3125,4.125 0.0625,0.03125 -0.375,-5.15625 -1.15625,1 -0.3125,0.28125 -0.34375,-0.28125 c -0.569718,-0.527558 -1.155191,-1.020189 -1.8125,-1.34375 -0.921785,-0.457971 -1.919613,-0.70384 -2.96875,-0.78125 -0.23446,-0.01377 -0.506218,-0.0059 -0.78125,0 z m 3.5625,4.375 -0.8125,0.71875 0.90625,0.21875 0.0625,-0.0625 L 15.96875,32.875 15.5,32.5 C 15.4612,32.46969 15.41534,32.4374 15.375,32.40625 z M 12,35 c -0.547939,0 -1,0.452061 -1,1 0,0.185846 0.06614,0.350111 0.15625,0.5 C 11.331818,36.207963 11.637907,36 12,36 c 0.362093,0 0.668182,0.207963 0.84375,0.5 C 12.933861,36.350111 13,36.185846 13,36 13,35.452061 12.547939,35 12,35 z M 6.34375,36.5625 C 6.335602,36.671145 6.3125,36.815975 6.3125,37 c 0,0.599479 0.1011229,1.189117 0.28125,1.75 0.2371667,0.73071 0.6224856,1.387237 1.125,1.96875 0.5080295,0.588284 1.1043111,1.041257 1.78125,1.375 0.657028,0.324124 1.375269,0.538513 2.125,0.59375 0.09765,0.0078 0.254441,0.02939 0.4375,0.03125 0.589703,0 1.181662,-0.09818 1.75,-0.28125 0.735363,-0.238677 1.361639,-0.629962 1.9375,-1.125 0.578428,-0.499948 1.063367,-1.091781 1.40625,-1.78125 L 18.75,40.3125 c 0.157528,-0.246545 0.306163,-0.483464 0.4375,-0.75 l 0,-0.03125 -2.03125,-1 c -0.342883,0.689469 -0.827822,1.281302 -1.40625,1.78125 -0.575861,0.495038 -1.202137,0.886323 -1.9375,1.125 -0.568338,0.18307 -1.160297,0.28125 -1.75,0.28125 C 11.879441,41.71689 11.72265,41.6953 11.625,41.6875 10.875269,41.632263 10.157028,41.417874 9.5,41.09375 8.8230611,40.760007 8.2267795,40.307034 7.71875,39.71875 7.2162356,39.137237 6.8309167,38.48071 6.59375,37.75 6.4714556,37.369197 6.3862881,36.963893 6.34375,36.5625 z"
       id="path3816"
       inkscape:connector-curvature="0" />
  </g>
</svg>
