<?xml version="1.0" encoding="UTF-8" standalone="no"?>
<!-- Created with Inkscape (http://www.inkscape.org/) -->

<svg
   xmlns:osb="http://www.openswatchbook.org/uri/2009/osb"
   xmlns:dc="http://purl.org/dc/elements/1.1/"
   xmlns:cc="http://creativecommons.org/ns#"
   xmlns:rdf="http://www.w3.org/1999/02/22-rdf-syntax-ns#"
   xmlns:svg="http://www.w3.org/2000/svg"
   xmlns="http://www.w3.org/2000/svg"
   xmlns:xlink="http://www.w3.org/1999/xlink"
   xmlns:sodipodi="http://sodipodi.sourceforge.net/DTD/sodipodi-0.dtd"
   xmlns:inkscape="http://www.inkscape.org/namespaces/inkscape"
   width="24"
   height="24"
   id="svg3495"
   version="1.1"
   inkscape:version="0.91pre2+osxmenu r12822"
   sodipodi:docname="open-menu.svg">
  <defs
     id="defs3497">
    <linearGradient
       inkscape:collect="always"
       id="linearGradient7799">
      <stop
         style="stop-color:#ffffff;stop-opacity:1;"
         offset="0"
         id="stop7801" />
      <stop
         style="stop-color:#ffffff;stop-opacity:0;"
         offset="1"
         id="stop7803" />
    </linearGradient>
    <linearGradient
       inkscape:collect="always"
       id="linearGradient7772">
      <stop
         style="stop-color:#979797;stop-opacity:1;"
         offset="0"
         id="stop7774" />
      <stop
         style="stop-color:#e3e3e3;stop-opacity:1"
         offset="1"
         id="stop7776" />
    </linearGradient>
    <linearGradient
       id="linearGradient3783">
      <stop
         style="stop-color:#555555;stop-opacity:1;"
         offset="0"
         id="stop3785" />
      <stop
         style="stop-color:#666666;stop-opacity:1;"
         offset="1"
         id="stop3787" />
    </linearGradient>
    <clipPath
       clipPathUnits="userSpaceOnUse"
       id="clipPath3669">
      <path
         inkscape:connector-curvature="0"
         d="M 0,96 96,96 96,0 0,0 0,96 z"
         id="path3671" />
    </clipPath>
    <linearGradient
       osb:paint="solid"
       id="linearGradient5606">
      <stop
         id="stop5608" />
    </linearGradient>
    <linearGradient
       inkscape:collect="always"
       xlink:href="#linearGradient7772"
       id="linearGradient7778"
       x1="12"
       y1="24"
       x2="12"
       y2="3"
       gradientUnits="userSpaceOnUse" />
    <linearGradient
       inkscape:collect="always"
       xlink:href="#linearGradient7772"
       id="linearGradient7786"
       gradientUnits="userSpaceOnUse"
       x1="12"
       y1="24"
       x2="12"
       y2="3" />
    <clipPath
       clipPathUnits="userSpaceOnUse"
       id="clipPath7793">
      <path
         id="path7795"
         d="m 11,2 0,1.2871094 0,0.6328125 a 0.50005,0.50005 0 0 1 -0.01367,0.1152343 c -0.02762,0.117634 -0.09782,0.3211879 -0.253906,0.4511719 -0.156091,0.129989 -0.268279,0.1502588 -0.402344,0.1992188 C 9.9753975,4.8150859 9.5736197,4.884376 9.1328125,5.078125 8.7769999,5.234515 8.4986498,5.3806056 8.2851562,5.4941406 8.0716629,5.6076746 8.0048246,5.68867 7.7304688,5.75 7.7079389,5.75504 7.6140951,5.786455 7.4726562,5.765625 7.3312174,5.744795 7.276523,5.7053313 7.21875,5.6757812 7.011639,5.5698552 6.8250211,5.4109584 6.5449219,5.1308594 L 5.6367188,4.2226562 4.9296875,4.9296875 4.2226562,5.6367188 5.1328125,6.546875 5.578125,6.9921875 a 0.50005,0.50005 0 0 1 0.070312,0.089844 c 0.064105,0.1028431 0.1596541,0.2950699 0.1425781,0.4980469 -0.017076,0.202977 -0.08243,0.2998045 -0.1425781,0.4296875 -0.1599073,0.345301 -0.394603,0.6751449 -0.5683594,1.1230469 -0.1406146,0.362472 -0.2346405,0.6612621 -0.3046875,0.8925785 -0.070047,0.231316 -0.05894,0.334338 -0.2109375,0.574218 -0.012432,0.01962 -0.056333,0.110613 -0.171875,0.195313 -0.1155421,0.0847 -0.1793023,0.09364 -0.2402343,0.113281 C 3.9334737,10.978763 3.6863687,11 3.2890625,11 L 2,11 l 0,1 0,1 1.2890625,0 0.6308594,0 a 0.50005,0.50005 0 0 1 0.1152343,0.01367 c 0.1176336,0.02762 0.321188,0.09782 0.4511719,0.253906 0.1299839,0.156091 0.1502563,0.268279 0.1992188,0.402344 0.1295321,0.354673 0.1988291,0.756456 0.3925781,1.197266 0.1564236,0.355888 0.3024834,0.634106 0.4160156,0.847656 0.1135323,0.213549 0.1943537,0.279927 0.2558594,0.554687 0.00482,0.02152 0.037071,0.114924 0.015625,0.257813 -0.021446,0.142889 -0.060718,0.195063 -0.089844,0.251953 -0.1057945,0.206644 -0.264715,0.393622 -0.5449218,0.673828 l -0.9082032,0.910156 0.7070313,0.707031 0.7070313,0.707032 0.9101562,-0.910156 0.4453125,-0.445313 a 0.50005,0.50005 0 0 1 0.089844,-0.07031 c 0.1028433,-0.0641 0.2950694,-0.159654 0.4980469,-0.142578 0.2029776,0.01708 0.2998051,0.08243 0.4296875,0.142578 0.3453023,0.159909 0.6751443,0.394603 1.1230469,0.56836 0.3624714,0.140615 0.6612618,0.23464 0.8925785,0.304687 0.231316,0.07005 0.33434,0.05894 0.574218,0.210938 0.01961,0.01243 0.110603,0.05633 0.195313,0.171875 0.08471,0.115541 0.09364,0.179294 0.113281,0.240234 C 10.978763,20.066518 11,20.313629 11,20.710938 L 11,22 l 1,0 1,0 0,-1.289062 0,-0.63086 a 0.50005,0.50005 0 0 1 0.01367,-0.115234 c 0.02762,-0.117634 0.09782,-0.321188 0.253906,-0.451172 0.156091,-0.129989 0.268279,-0.150259 0.402344,-0.199219 0.35468,-0.129539 0.756457,-0.198829 1.197266,-0.392578 0.355887,-0.156424 0.634106,-0.302483 0.847656,-0.416016 0.213549,-0.113532 0.279927,-0.194349 0.554687,-0.255859 0.02154,-0.0048 0.11493,-0.03708 0.257813,-0.01563 0.142882,0.02145 0.195073,0.06072 0.251953,0.08984 0.206673,0.105801 0.393626,0.264716 0.673828,0.544922 l 0.910156,0.908203 0.707031,-0.707032 0.707032,-0.707031 -0.910156,-0.910156 -0.445313,-0.445313 a 0.50005,0.50005 0 0 1 -0.07031,-0.08984 c -0.06411,-0.102844 -0.159658,-0.29507 -0.142578,-0.498047 0.01708,-0.202977 0.08243,-0.299806 0.142578,-0.429688 0.159909,-0.345301 0.394603,-0.675145 0.56836,-1.123046 0.140615,-0.362472 0.234637,-0.661263 0.304687,-0.892579 0.07005,-0.231316 0.05894,-0.334337 0.210938,-0.574218 0.01243,-0.01961 0.05633,-0.110603 0.171875,-0.195313 0.115541,-0.08471 0.179294,-0.09364 0.240234,-0.113281 C 20.066518,13.021237 20.31363,13 20.710938,13 L 22,13 l 0,-2 -1.289062,0 -0.63086,0 a 0.50005,0.50005 0 0 1 -0.115234,-0.01367 C 19.84721,10.95871 19.643656,10.888513 19.513672,10.732422 19.383683,10.576331 19.363413,10.464143 19.314453,10.330078 19.184915,9.9753981 19.115624,9.5736205 18.921875,9.1328125 18.765399,8.7768045 18.619341,8.4986392 18.505859,8.2851562 18.392378,8.0716743 18.3116,8.0038818 18.25,7.7304688 c -0.0041,-0.018136 -0.03825,-0.1028949 -0.01953,-0.2480469 0.01872,-0.145152 0.0618,-0.2010556 0.0918,-0.2597657 0.106025,-0.207513 0.264765,-0.3956252 0.544922,-0.6757812 L 19.777344,5.6367188 19.070312,4.9296875 18.363281,4.2226562 17.453125,5.1328125 17.007812,5.578125 a 0.50005,0.50005 0 0 1 -0.08984,0.070312 C 16.815125,5.7125465 16.622899,5.8080956 16.419922,5.7910156 16.216945,5.7739386 16.120116,5.7085875 15.990234,5.6484375 15.644933,5.4885305 15.31509,5.2538351 14.867188,5.0800781 14.504508,4.9393831 14.206168,4.8440075 13.974609,4.7734375 13.743051,4.7028665 13.638996,4.714091 13.400391,4.5625 13.381285,4.55036 13.290198,4.506523 13.205078,4.390625 13.119957,4.274727 13.111467,4.2094875 13.091797,4.1484375 13.021347,3.9297465 13,3.6843524 13,3.2871094 L 13,2 12,2 11,2 Z m 1,5 c 2.759989,0 5,2.240011 5,5 0,2.759989 -2.240011,5 -5,5 C 9.2400111,17 7,14.759989 7,12 7,9.240011 9.2400111,7 12,7 Z"
         style="opacity:1;fill:url(#linearGradient7797);fill-opacity:1;stroke:none;stroke-width:1;stroke-linecap:round;stroke-linejoin:round;stroke-miterlimit:4;stroke-dasharray:none;stroke-opacity:1"
         inkscape:connector-curvature="0" />
    </clipPath>
    <linearGradient
       inkscape:collect="always"
       xlink:href="#linearGradient7772"
       id="linearGradient7797"
       gradientUnits="userSpaceOnUse"
       x1="12"
       y1="24"
       x2="12"
       y2="3" />
    <linearGradient
       inkscape:collect="always"
       xlink:href="#linearGradient7799"
       id="linearGradient7805"
       x1="12"
       y1="0"
       x2="12"
       y2="24"
       gradientUnits="userSpaceOnUse" />
    <linearGradient
       inkscape:collect="always"
       xlink:href="#linearGradient7799"
       id="linearGradient7821"
       gradientUnits="userSpaceOnUse"
       x1="12"
       y1="7"
       x2="12"
       y2="17" />
  </defs>
  <sodipodi:namedview
     id="base"
     pagecolor="#ffffff"
     bordercolor="#666666"
     borderopacity="1.0"
     inkscape:pageopacity="0.0"
     inkscape:pageshadow="2"
     inkscape:zoom="1"
     inkscape:cx="13.160961"
     inkscape:cy="-0.2643691"
     inkscape:current-layer="layer1"
     showgrid="false"
     showborder="false"
     inkscape:grid-bbox="true"
     inkscape:document-units="px"
     inkscape:window-width="1440"
     inkscape:window-height="810"
     inkscape:window-x="35"
     inkscape:window-y="113"
     inkscape:window-maximized="0"
     inkscape:snap-bbox="true"
     inkscape:bbox-paths="true"
     inkscape:bbox-nodes="true"
     inkscape:snap-bbox-edge-midpoints="false"
     showguides="false"
     inkscape:guide-bbox="true">
    <inkscape:grid
       type="xygrid"
       id="grid3512"
       empspacing="4"
       visible="true"
       enabled="true"
       snapvisiblegridlinesonly="true"
       dotted="false" />
  </sodipodi:namedview>
  <metadata
     id="metadata3500">
    <rdf:RDF>
      <cc:Work
         rdf:about="">
        <dc:format>image/svg+xml</dc:format>
        <dc:type
           rdf:resource="http://purl.org/dc/dcmitype/StillImage" />
        <dc:title></dc:title>
      </cc:Work>
    </rdf:RDF>
  </metadata>
  <g
     id="layer1"
     inkscape:label="Layer 1"
     inkscape:groupmode="layer"
     transform="translate(0,-24)">
    <path
       inkscape:connector-curvature="0"
       id="path7924"
       d="m 10.5,26.5 0,0.5 0,1.287109 0,0.632813 c -0.04317,0.183872 -0.07779,0.200456 -0.341797,0.296875 -0.2728994,0.09967 -0.7271054,0.18477 -1.2265624,0.404297 -0.7444001,0.327186 -1.1679765,0.608757 -1.3105468,0.640625 -0.071285,0.01593 -0.070239,0.02173 -0.1738282,-0.03125 -0.1035892,-0.05298 -0.2891975,-0.193495 -0.5488281,-0.453125 l -1.2617187,-1.261719 -1.0605469,1.060547 -1.0605469,1.060547 1.2636719,1.263672 0.4453125,0.445312 c 0.1005644,0.161334 0.088614,0.19851 -0.029297,0.453125 -0.1219603,0.263359 -0.3845595,0.643309 -0.5820313,1.152344 -0.2943588,0.758788 -0.3930903,1.258371 -0.4707031,1.380859 -0.038806,0.06124 -0.033791,0.06391 -0.1445312,0.09961 C 3.8873073,35.467342 3.6567631,35.5 3.2890625,35.5 L 1.5,35.5 l 0,1.5 0,1.5 1.7890625,0 0.6308594,0 c 0.183872,0.04317 0.2004559,0.07779 0.296875,0.341797 0.099667,0.272899 0.1847704,0.727105 0.4042969,1.226562 0.3272208,0.744479 0.6088709,1.168694 0.640625,1.310547 0.015877,0.07093 0.021704,0.06844 -0.03125,0.171875 -0.052954,0.103433 -0.1934425,0.289146 -0.453125,0.548828 l -1.2617188,1.263672 1.0605469,1.060547 1.0605469,1.060547 1.2636718,-1.263672 0.4453125,-0.445312 c 0.1613344,-0.100565 0.1985101,-0.08861 0.453125,0.0293 0.2633594,0.12196 0.6433087,0.384559 1.1523438,0.582031 0.7587878,0.294359 1.2583711,0.39309 1.3808591,0.470703 0.06124,0.03881 0.06391,0.03379 0.09961,0.144531 0.0357,0.11074 0.06836,0.341284 0.06836,0.708985 l 0,1.789062 1.5,0 1.5,0 0,-1.789062 0,-0.63086 c 0.04317,-0.183872 0.07779,-0.200456 0.341797,-0.296875 0.272899,-0.09967 0.727104,-0.18477 1.226562,-0.404297 0.744479,-0.327221 1.168694,-0.608871 1.310547,-0.640625 0.07093,-0.01588 0.06844,-0.0217 0.171875,0.03125 0.103433,0.05295 0.289146,0.193442 0.548828,0.453125 l 1.263672,1.261719 1.060547,-1.060547 1.060547,-1.060547 -1.263672,-1.263672 -0.445312,-0.445312 c -0.100565,-0.161335 -0.08861,-0.19851 0.0293,-0.453125 0.12196,-0.263359 0.384559,-0.643309 0.582031,-1.152344 0.294359,-0.758788 0.39309,-1.258371 0.470703,-1.380859 0.03881,-0.06124 0.03379,-0.06391 0.144531,-0.09961 0.11074,-0.0357 0.341284,-0.06836 0.708985,-0.06836 l 1.789062,0 0,-3 -1.789062,0 -0.63086,0 c -0.183872,-0.04317 -0.200456,-0.07779 -0.296875,-0.341797 -0.09967,-0.2729 -0.18477,-0.727105 -0.404297,-1.226562 -0.327299,-0.744658 -0.608612,-1.168465 -0.640625,-1.310547 -0.01601,-0.07104 -0.02345,-0.06865 0.0293,-0.171875 0.05274,-0.103223 0.193495,-0.289198 0.453125,-0.548828 l 1.263672,-1.263672 -1.060547,-1.060547 -1.060547,-1.060547 -1.263672,1.263672 -0.445312,0.445312 c -0.161335,0.100565 -0.19851,0.08861 -0.453125,-0.0293 -0.263359,-0.12196 -0.643309,-0.384559 -1.152344,-0.582031 -0.758603,-0.294287 -1.258198,-0.394727 -1.380859,-0.472656 -0.06133,-0.03897 -0.06384,-0.03349 -0.09961,-0.144531 C 13.532587,28.885053 13.5,28.65481 13.5,28.287109 l 0,-1.787109 -1.5,0 -1.5,0 z m 1.5,6 c 2.491204,0 4.5,2.008796 4.5,4.5 0,2.491204 -2.008796,4.5 -4.5,4.5 -2.4912037,0 -4.5,-2.008796 -4.5,-4.5 0,-2.491204 2.0087963,-4.5 4.5,-4.5 z"
       style="opacity:0.1;fill:#000000;fill-opacity:1;stroke:#000000;stroke-width:3;stroke-linecap:round;stroke-linejoin:round;stroke-miterlimit:4;stroke-dasharray:none;stroke-opacity:1" />
    <path
       style="opacity:0.2;fill:#000000;fill-opacity:1;stroke:#000000;stroke-width:1;stroke-linecap:round;stroke-linejoin:round;stroke-miterlimit:4;stroke-dasharray:none;stroke-opacity:1;"
       d="m 10.5,26.5 0,0.5 0,1.287109 0,0.632813 c -0.04317,0.183872 -0.07779,0.200456 -0.341797,0.296875 -0.2728994,0.09967 -0.7271054,0.18477 -1.2265624,0.404297 -0.7444001,0.327186 -1.1679765,0.608757 -1.3105468,0.640625 -0.071285,0.01593 -0.070239,0.02173 -0.1738282,-0.03125 -0.1035892,-0.05298 -0.2891975,-0.193495 -0.5488281,-0.453125 l -1.2617187,-1.261719 -1.0605469,1.060547 -1.0605469,1.060547 1.2636719,1.263672 0.4453125,0.445312 c 0.1005644,0.161334 0.088614,0.19851 -0.029297,0.453125 -0.1219603,0.263359 -0.3845595,0.643309 -0.5820313,1.152344 -0.2943588,0.758788 -0.3930903,1.258371 -0.4707031,1.380859 -0.038806,0.06124 -0.033791,0.06391 -0.1445312,0.09961 C 3.8873073,35.467342 3.6567631,35.5 3.2890625,35.5 L 1.5,35.5 l 0,1.5 0,1.5 1.7890625,0 0.6308594,0 c 0.183872,0.04317 0.2004559,0.07779 0.296875,0.341797 0.099667,0.272899 0.1847704,0.727105 0.4042969,1.226562 0.3272208,0.744479 0.6088709,1.168694 0.640625,1.310547 0.015877,0.07093 0.021704,0.06844 -0.03125,0.171875 -0.052954,0.103433 -0.1934425,0.289146 -0.453125,0.548828 l -1.2617188,1.263672 1.0605469,1.060547 1.0605469,1.060547 1.2636718,-1.263672 0.4453125,-0.445312 c 0.1613344,-0.100565 0.1985101,-0.08861 0.453125,0.0293 0.2633594,0.12196 0.6433087,0.384559 1.1523438,0.582031 0.7587878,0.294359 1.2583711,0.39309 1.3808591,0.470703 0.06124,0.03881 0.06391,0.03379 0.09961,0.144531 0.0357,0.11074 0.06836,0.341284 0.06836,0.708985 l 0,1.789062 1.5,0 1.5,0 0,-1.789062 0,-0.63086 c 0.04317,-0.183872 0.07779,-0.200456 0.341797,-0.296875 0.272899,-0.09967 0.727104,-0.18477 1.226562,-0.404297 0.744479,-0.327221 1.168694,-0.608871 1.310547,-0.640625 0.07093,-0.01588 0.06844,-0.0217 0.171875,0.03125 0.103433,0.05295 0.289146,0.193442 0.548828,0.453125 l 1.263672,1.261719 1.060547,-1.060547 1.060547,-1.060547 -1.263672,-1.263672 -0.445312,-0.445312 c -0.100565,-0.161335 -0.08861,-0.19851 0.0293,-0.453125 0.12196,-0.263359 0.384559,-0.643309 0.582031,-1.152344 0.294359,-0.758788 0.39309,-1.258371 0.470703,-1.380859 0.03881,-0.06124 0.03379,-0.06391 0.144531,-0.09961 0.11074,-0.0357 0.341284,-0.06836 0.708985,-0.06836 l 1.789062,0 0,-3 -1.789062,0 -0.63086,0 c -0.183872,-0.04317 -0.200456,-0.07779 -0.296875,-0.341797 -0.09967,-0.2729 -0.18477,-0.727105 -0.404297,-1.226562 -0.327299,-0.744658 -0.608612,-1.168465 -0.640625,-1.310547 -0.01601,-0.07104 -0.02345,-0.06865 0.0293,-0.171875 0.05274,-0.103223 0.193495,-0.289198 0.453125,-0.548828 l 1.263672,-1.263672 -1.060547,-1.060547 -1.060547,-1.060547 -1.263672,1.263672 -0.445312,0.445312 c -0.161335,0.100565 -0.19851,0.08861 -0.453125,-0.0293 -0.263359,-0.12196 -0.643309,-0.384559 -1.152344,-0.582031 -0.758603,-0.294287 -1.258198,-0.394727 -1.380859,-0.472656 -0.06133,-0.03897 -0.06384,-0.03349 -0.09961,-0.144531 C 13.532587,28.885053 13.5,28.65481 13.5,28.287109 l 0,-1.787109 -1.5,0 -1.5,0 z m 1.5,6 c 2.491204,0 4.5,2.008796 4.5,4.5 0,2.491204 -2.008796,4.5 -4.5,4.5 -2.4912037,0 -4.5,-2.008796 -4.5,-4.5 0,-2.491204 2.0087963,-4.5 4.5,-4.5 z"
       id="path7807"
       inkscape:connector-curvature="0" />
    <path
       style="opacity:1;fill:url(#linearGradient7778);fill-opacity:1;stroke:none;stroke-width:1;stroke-linecap:round;stroke-linejoin:round;stroke-miterlimit:4;stroke-dasharray:none;stroke-opacity:1"
       d="M 10.5 1.5 L 10.5 2 L 10.5 3.2871094 L 10.5 3.9199219 C 10.45683 4.1037939 10.42221 4.1203779 10.158203 4.2167969 C 9.8853036 4.3164669 9.4310976 4.4015668 8.9316406 4.6210938 C 8.1872405 4.9482798 7.7636641 5.2298508 7.6210938 5.2617188 C 7.5498088 5.2776488 7.5508548 5.2834488 7.4472656 5.2304688 C 7.3436764 5.1774887 7.1580681 5.0369738 6.8984375 4.7773438 L 5.6367188 3.515625 L 4.5761719 4.5761719 L 3.515625 5.6367188 L 4.7792969 6.9003906 L 5.2246094 7.3457031 C 5.3251738 7.5070371 5.3132235 7.5442131 5.1953125 7.7988281 C 5.0733522 8.0621871 4.810753 8.4421369 4.6132812 8.9511719 C 4.3189224 9.7099599 4.2201909 10.209543 4.1425781 10.332031 C 4.1037721 10.393271 4.1087871 10.395941 3.9980469 10.431641 C 3.8873073 10.467342 3.6567631 10.5 3.2890625 10.5 L 1.5 10.5 L 1.5 12 L 1.5 13.5 L 3.2890625 13.5 L 3.9199219 13.5 C 4.1037939 13.54317 4.1203778 13.57779 4.2167969 13.841797 C 4.3164639 14.114696 4.4015673 14.568902 4.6210938 15.068359 C 4.9483146 15.812838 5.2299647 16.237053 5.2617188 16.378906 C 5.2775957 16.449836 5.2834227 16.447346 5.2304688 16.550781 C 5.1775148 16.654214 5.0370263 16.839927 4.7773438 17.099609 L 3.515625 18.363281 L 4.5761719 19.423828 L 5.6367188 20.484375 L 6.9003906 19.220703 L 7.3457031 18.775391 C 7.5070375 18.674826 7.5442132 18.686777 7.7988281 18.804688 C 8.0621875 18.926648 8.4421368 19.189247 8.9511719 19.386719 C 9.7099597 19.681078 10.209543 19.779809 10.332031 19.857422 C 10.393271 19.896232 10.395941 19.891212 10.431641 20.001953 C 10.467341 20.112693 10.5 20.343237 10.5 20.710938 L 10.5 22.5 L 12 22.5 L 13.5 22.5 L 13.5 20.710938 L 13.5 20.080078 C 13.54317 19.896206 13.57779 19.879622 13.841797 19.783203 C 14.114696 19.683533 14.568901 19.598433 15.068359 19.378906 C 15.812838 19.051685 16.237053 18.770035 16.378906 18.738281 C 16.449836 18.722401 16.447346 18.716581 16.550781 18.769531 C 16.654214 18.822481 16.839927 18.962973 17.099609 19.222656 L 18.363281 20.484375 L 19.423828 19.423828 L 20.484375 18.363281 L 19.220703 17.099609 L 18.775391 16.654297 C 18.674826 16.492962 18.686778 16.455787 18.804688 16.201172 C 18.926648 15.937813 19.189247 15.557863 19.386719 15.048828 C 19.681078 14.29004 19.779809 13.790457 19.857422 13.667969 C 19.896232 13.606729 19.891212 13.604059 20.001953 13.568359 C 20.112693 13.532659 20.343237 13.5 20.710938 13.5 L 22.5 13.5 L 22.5 10.5 L 20.710938 10.5 L 20.080078 10.5 C 19.896206 10.45683 19.879622 10.42221 19.783203 10.158203 C 19.683533 9.8853031 19.598433 9.4310976 19.378906 8.9316406 C 19.051607 8.1869826 18.770294 7.7631757 18.738281 7.6210938 C 18.722271 7.5500538 18.714828 7.5524437 18.767578 7.4492188 C 18.820318 7.3459958 18.961073 7.1600206 19.220703 6.9003906 L 20.484375 5.6367188 L 19.423828 4.5761719 L 18.363281 3.515625 L 17.099609 4.7792969 L 16.654297 5.2246094 C 16.492962 5.3251744 16.455787 5.3132225 16.201172 5.1953125 C 15.937813 5.0733525 15.557863 4.8107533 15.048828 4.6132812 C 14.290225 4.3189942 13.79063 4.218554 13.667969 4.140625 C 13.606639 4.101655 13.604129 4.1071348 13.568359 3.9960938 C 13.532587 3.8850527 13.5 3.6548104 13.5 3.2871094 L 13.5 1.5 L 12 1.5 L 10.5 1.5 z M 12 7.5 C 14.491204 7.5 16.5 9.508796 16.5 12 C 16.5 14.491204 14.491204 16.5 12 16.5 C 9.5087963 16.5 7.5 14.491204 7.5 12 C 7.5 9.508796 9.5087963 7.5 12 7.5 z "
       transform="translate(0,24)"
       id="circle7735" />
    <path
       id="path7770"
       d="M 10.5 1.5 L 10.5 2 L 10.5 3.2871094 L 10.5 3.9199219 C 10.45683 4.1037939 10.42221 4.1203779 10.158203 4.2167969 C 9.8853036 4.3164669 9.4310976 4.4015668 8.9316406 4.6210938 C 8.1872405 4.9482798 7.7636641 5.2298508 7.6210938 5.2617188 C 7.5498088 5.2776488 7.5508548 5.2834488 7.4472656 5.2304688 C 7.3436764 5.1774887 7.1580681 5.0369738 6.8984375 4.7773438 L 5.6367188 3.515625 L 4.5761719 4.5761719 L 3.515625 5.6367188 L 4.7792969 6.9003906 L 5.2246094 7.3457031 C 5.3251738 7.5070371 5.3132235 7.5442131 5.1953125 7.7988281 C 5.0733522 8.0621871 4.810753 8.4421369 4.6132812 8.9511719 C 4.3189224 9.7099599 4.2201909 10.209543 4.1425781 10.332031 C 4.1037721 10.393271 4.1087871 10.395941 3.9980469 10.431641 C 3.8873073 10.467342 3.6567631 10.5 3.2890625 10.5 L 1.5 10.5 L 1.5 12 L 1.5 13.5 L 3.2890625 13.5 L 3.9199219 13.5 C 4.1037939 13.54317 4.1203778 13.57779 4.2167969 13.841797 C 4.3164639 14.114696 4.4015673 14.568902 4.6210938 15.068359 C 4.9483146 15.812838 5.2299647 16.237053 5.2617188 16.378906 C 5.2775957 16.449836 5.2834227 16.447346 5.2304688 16.550781 C 5.1775148 16.654214 5.0370263 16.839927 4.7773438 17.099609 L 3.515625 18.363281 L 4.5761719 19.423828 L 5.6367188 20.484375 L 6.9003906 19.220703 L 7.3457031 18.775391 C 7.5070375 18.674826 7.5442132 18.686777 7.7988281 18.804688 C 8.0621875 18.926648 8.4421368 19.189247 8.9511719 19.386719 C 9.7099597 19.681078 10.209543 19.779809 10.332031 19.857422 C 10.393271 19.896232 10.395941 19.891212 10.431641 20.001953 C 10.467341 20.112693 10.5 20.343237 10.5 20.710938 L 10.5 22.5 L 12 22.5 L 13.5 22.5 L 13.5 20.710938 L 13.5 20.080078 C 13.54317 19.896206 13.57779 19.879622 13.841797 19.783203 C 14.114696 19.683533 14.568901 19.598433 15.068359 19.378906 C 15.812838 19.051685 16.237053 18.770035 16.378906 18.738281 C 16.449836 18.722401 16.447346 18.716581 16.550781 18.769531 C 16.654214 18.822481 16.839927 18.962973 17.099609 19.222656 L 18.363281 20.484375 L 19.423828 19.423828 L 20.484375 18.363281 L 19.220703 17.099609 L 18.775391 16.654297 C 18.674826 16.492962 18.686778 16.455787 18.804688 16.201172 C 18.926648 15.937813 19.189247 15.557863 19.386719 15.048828 C 19.681078 14.29004 19.779809 13.790457 19.857422 13.667969 C 19.896232 13.606729 19.891212 13.604059 20.001953 13.568359 C 20.112693 13.532659 20.343237 13.5 20.710938 13.5 L 22.5 13.5 L 22.5 10.5 L 20.710938 10.5 L 20.080078 10.5 C 19.896206 10.45683 19.879622 10.42221 19.783203 10.158203 C 19.683533 9.8853031 19.598433 9.4310976 19.378906 8.9316406 C 19.051607 8.1869826 18.770294 7.7631757 18.738281 7.6210938 C 18.722271 7.5500538 18.714828 7.5524437 18.767578 7.4492188 C 18.820318 7.3459958 18.961073 7.1600206 19.220703 6.9003906 L 20.484375 5.6367188 L 19.423828 4.5761719 L 18.363281 3.515625 L 17.099609 4.7792969 L 16.654297 5.2246094 C 16.492962 5.3251744 16.455787 5.3132225 16.201172 5.1953125 C 15.937813 5.0733525 15.557863 4.8107533 15.048828 4.6132812 C 14.290225 4.3189942 13.79063 4.218554 13.667969 4.140625 C 13.606639 4.101655 13.604129 4.1071348 13.568359 3.9960938 C 13.532587 3.8850527 13.5 3.6548104 13.5 3.2871094 L 13.5 1.5 L 12 1.5 L 10.5 1.5 z M 12 7.5 C 14.491204 7.5 16.5 9.508796 16.5 12 C 16.5 14.491204 14.491204 16.5 12 16.5 C 9.5087963 16.5 7.5 14.491204 7.5 12 C 7.5 9.508796 9.5087963 7.5 12 7.5 z "
       style="opacity:0.4;fill:none;fill-opacity:1;stroke:#000000;stroke-width:1;stroke-linecap:round;stroke-linejoin:round;stroke-miterlimit:4;stroke-dasharray:none;stroke-opacity:1"
       transform="translate(0,24)" />
    <path
       style="opacity:1;fill:url(#linearGradient7786);fill-opacity:1;stroke:none;stroke-width:1;stroke-linecap:round;stroke-linejoin:round;stroke-miterlimit:4;stroke-dasharray:none;stroke-opacity:1"
       d="M 11 2 L 11 3.2871094 L 11 3.9199219 A 0.50005 0.50005 0 0 1 10.986328 4.0351562 C 10.95871 4.1527902 10.888513 4.3563441 10.732422 4.4863281 C 10.576331 4.6163171 10.464143 4.6365869 10.330078 4.6855469 C 9.9753975 4.8150859 9.5736197 4.884376 9.1328125 5.078125 C 8.7769999 5.234515 8.4986498 5.3806056 8.2851562 5.4941406 C 8.0716629 5.6076746 8.0048246 5.68867 7.7304688 5.75 C 7.7079389 5.75504 7.6140951 5.786455 7.4726562 5.765625 C 7.3312174 5.744795 7.276523 5.7053313 7.21875 5.6757812 C 7.011639 5.5698552 6.8250211 5.4109584 6.5449219 5.1308594 L 5.6367188 4.2226562 L 4.9296875 4.9296875 L 4.2226562 5.6367188 L 5.1328125 6.546875 L 5.578125 6.9921875 A 0.50005 0.50005 0 0 1 5.6484375 7.0820312 C 5.7125426 7.1848743 5.8080916 7.3771011 5.7910156 7.5800781 C 5.7739399 7.7830551 5.7085855 7.8798826 5.6484375 8.0097656 C 5.4885302 8.3550666 5.2538345 8.6849105 5.0800781 9.1328125 C 4.9394635 9.4952845 4.8454376 9.7940746 4.7753906 10.025391 C 4.7053436 10.256707 4.7164501 10.359729 4.5644531 10.599609 C 4.5520211 10.619228 4.5081202 10.710222 4.3925781 10.794922 C 4.277036 10.879623 4.2132758 10.888563 4.1523438 10.908203 C 3.9334737 10.978763 3.6863687 11 3.2890625 11 L 2 11 L 2 12 L 2 13 L 3.2890625 13 L 3.9199219 13 A 0.50005 0.50005 0 0 1 4.0351562 13.013672 C 4.1527898 13.04129 4.3563442 13.111487 4.4863281 13.267578 C 4.616312 13.423669 4.6365844 13.535857 4.6855469 13.669922 C 4.815079 14.024595 4.884376 14.426378 5.078125 14.867188 C 5.2345486 15.223076 5.3806084 15.501294 5.4941406 15.714844 C 5.6076729 15.928393 5.6884943 15.994771 5.75 16.269531 C 5.754818 16.291055 5.787071 16.384455 5.765625 16.527344 C 5.744179 16.670233 5.7049072 16.722407 5.6757812 16.779297 C 5.5699867 16.985941 5.4110662 17.172919 5.1308594 17.453125 L 4.2226562 18.363281 L 4.9296875 19.070312 L 5.6367188 19.777344 L 6.546875 18.867188 L 6.9921875 18.421875 A 0.50005 0.50005 0 0 1 7.0820312 18.351562 C 7.1848745 18.287458 7.3771006 18.191908 7.5800781 18.208984 C 7.7830557 18.22606 7.8798832 18.291415 8.0097656 18.351562 C 8.3550679 18.511471 8.6849099 18.746165 9.1328125 18.919922 C 9.4952839 19.060537 9.7940743 19.154562 10.025391 19.224609 C 10.256707 19.294656 10.359731 19.283549 10.599609 19.435547 C 10.619221 19.447975 10.710212 19.491881 10.794922 19.607422 C 10.879633 19.722963 10.888563 19.786716 10.908203 19.847656 C 10.978763 20.066518 11 20.313629 11 20.710938 L 11 22 L 12 22 L 13 22 L 13 20.710938 L 13 20.080078 A 0.50005 0.50005 0 0 1 13.013672 19.964844 C 13.04129 19.84721 13.111487 19.643656 13.267578 19.513672 C 13.423669 19.383683 13.535857 19.363413 13.669922 19.314453 C 14.024602 19.184914 14.426379 19.115624 14.867188 18.921875 C 15.223075 18.765451 15.501294 18.619392 15.714844 18.505859 C 15.928393 18.392327 15.994771 18.31151 16.269531 18.25 C 16.291071 18.24517 16.384461 18.212925 16.527344 18.234375 C 16.670226 18.255825 16.722417 18.295099 16.779297 18.324219 C 16.98597 18.43002 17.172923 18.588935 17.453125 18.869141 L 18.363281 19.777344 L 19.070312 19.070312 L 19.777344 18.363281 L 18.867188 17.453125 L 18.421875 17.007812 A 0.50005 0.50005 0 0 1 18.351562 16.917969 C 18.287454 16.815125 18.191904 16.622899 18.208984 16.419922 C 18.226061 16.216945 18.291412 16.120116 18.351562 15.990234 C 18.511471 15.644933 18.746165 15.315089 18.919922 14.867188 C 19.060537 14.504716 19.154559 14.205925 19.224609 13.974609 C 19.294656 13.743293 19.283549 13.640272 19.435547 13.400391 C 19.447975 13.380779 19.491881 13.289788 19.607422 13.205078 C 19.722963 13.120367 19.786716 13.111437 19.847656 13.091797 C 20.066518 13.021237 20.31363 13 20.710938 13 L 22 13 L 22 11 L 20.710938 11 L 20.080078 11 A 0.50005 0.50005 0 0 1 19.964844 10.986328 C 19.84721 10.95871 19.643656 10.888513 19.513672 10.732422 C 19.383683 10.576331 19.363413 10.464143 19.314453 10.330078 C 19.184915 9.9753981 19.115624 9.5736205 18.921875 9.1328125 C 18.765399 8.7768045 18.619341 8.4986392 18.505859 8.2851562 C 18.392378 8.0716743 18.3116 8.0038818 18.25 7.7304688 C 18.24591 7.7123328 18.211749 7.6275739 18.230469 7.4824219 C 18.249189 7.3372699 18.292266 7.2813663 18.322266 7.2226562 C 18.428291 7.0151432 18.587031 6.827031 18.867188 6.546875 L 19.777344 5.6367188 L 19.070312 4.9296875 L 18.363281 4.2226562 L 17.453125 5.1328125 L 17.007812 5.578125 A 0.50005 0.50005 0 0 1 16.917969 5.6484375 C 16.815125 5.7125465 16.622899 5.8080956 16.419922 5.7910156 C 16.216945 5.7739386 16.120116 5.7085875 15.990234 5.6484375 C 15.644933 5.4885305 15.31509 5.2538351 14.867188 5.0800781 C 14.504508 4.9393831 14.206168 4.8440075 13.974609 4.7734375 C 13.743051 4.7028665 13.638996 4.714091 13.400391 4.5625 C 13.381285 4.55036 13.290198 4.506523 13.205078 4.390625 C 13.119957 4.274727 13.111467 4.2094875 13.091797 4.1484375 C 13.021347 3.9297465 13 3.6843524 13 3.2871094 L 13 2 L 12 2 L 11 2 z M 12 7 C 14.759989 7 17 9.240011 17 12 C 17 14.759989 14.759989 17 12 17 C 9.2400111 17 7 14.759989 7 12 C 7 9.240011 9.2400111 7 12 7 z "
       transform="translate(0,24)"
       id="path7780" />
    <path
       id="path7789"
       transform="translate(0,24)"
       d="m 11,2 0,1.2871094 0,0.6328125 c -7e-5,0.038812 -0.0047,0.077484 -0.01367,0.1152343 -0.02762,0.117634 -0.09782,0.3211879 -0.253906,0.4511719 -0.156091,0.129989 -0.268279,0.1502588 -0.402344,0.1992188 C 9.9753975,4.8150859 9.5736197,4.884376 9.1328125,5.078125 8.7769999,5.234515 8.4986498,5.3806056 8.2851562,5.4941406 8.0716629,5.6076746 8.0048246,5.68867 7.7304688,5.75 7.7079389,5.75504 7.6140951,5.786455 7.4726562,5.765625 7.3312174,5.744795 7.276523,5.7053313 7.21875,5.6757812 7.011639,5.5698552 6.8250211,5.4109584 6.5449219,5.1308594 L 5.6367188,4.2226562 4.9296875,4.9296875 4.2226562,5.6367188 5.1328125,6.546875 5.578125,6.9921875 c 0.026788,0.027167 0.050379,0.057311 0.070312,0.089844 0.064105,0.1028431 0.1596541,0.2950699 0.1425781,0.4980469 -0.017076,0.202977 -0.08243,0.2998045 -0.1425781,0.4296875 -0.1599073,0.345301 -0.394603,0.6751449 -0.5683594,1.1230469 -0.1406146,0.362472 -0.2346405,0.6612621 -0.3046875,0.8925785 -0.070047,0.231316 -0.05894,0.334338 -0.2109375,0.574218 -0.012432,0.01962 -0.056333,0.110613 -0.171875,0.195313 -0.1155421,0.0847 -0.1793023,0.09364 -0.2402343,0.113281 C 3.9334737,10.978763 3.6863687,11 3.2890625,11 L 2,11 l 0,1 0,1 1.2890625,0 0.6308594,0 c 0.038812,7e-5 0.077484,0.0047 0.1152343,0.01367 0.1176336,0.02762 0.321188,0.09782 0.4511719,0.253906 0.1299839,0.156091 0.1502563,0.268279 0.1992188,0.402344 0.1295321,0.354673 0.1988291,0.756456 0.3925781,1.197266 0.1564236,0.355888 0.3024834,0.634106 0.4160156,0.847656 0.1135323,0.213549 0.1943537,0.279927 0.2558594,0.554687 0.00482,0.02152 0.037071,0.114924 0.015625,0.257813 -0.021446,0.142889 -0.060718,0.195063 -0.089844,0.251953 -0.1057945,0.206644 -0.264715,0.393622 -0.5449218,0.673828 l -0.9082032,0.910156 0.7070313,0.707031 0.7070313,0.707032 0.9101562,-0.910156 0.4453125,-0.445313 c 0.027167,-0.02679 0.057311,-0.05038 0.089844,-0.07031 0.1028433,-0.0641 0.2950694,-0.159654 0.4980469,-0.142578 0.2029776,0.01708 0.2998051,0.08243 0.4296875,0.142578 0.3453023,0.159909 0.6751443,0.394603 1.1230469,0.56836 0.3624714,0.140615 0.6612618,0.23464 0.8925785,0.304687 0.231316,0.07005 0.33434,0.05894 0.574218,0.210938 0.01961,0.01243 0.110603,0.05633 0.195313,0.171875 0.08471,0.115541 0.09364,0.179294 0.113281,0.240234 C 10.978763,20.066518 11,20.313629 11,20.710938 L 11,22 l 1,0 1,0 0,-1.289062 0,-0.63086 c 7e-5,-0.03881 0.0047,-0.07748 0.01367,-0.115234 0.02762,-0.117634 0.09782,-0.321188 0.253906,-0.451172 0.156091,-0.129989 0.268279,-0.150259 0.402344,-0.199219 0.35468,-0.129539 0.756457,-0.198829 1.197266,-0.392578 0.355887,-0.156424 0.634106,-0.302483 0.847656,-0.416016 0.213549,-0.113532 0.279927,-0.194349 0.554687,-0.255859 0.02154,-0.0048 0.11493,-0.03708 0.257813,-0.01563 0.142882,0.02145 0.195073,0.06072 0.251953,0.08984 0.206673,0.105801 0.393626,0.264716 0.673828,0.544922 l 0.910156,0.908203 0.707031,-0.707032 0.707032,-0.707031 -0.910156,-0.910156 -0.445313,-0.445313 c -0.02679,-0.02717 -0.05038,-0.05731 -0.07031,-0.08984 -0.06411,-0.102844 -0.159658,-0.29507 -0.142578,-0.498047 0.01708,-0.202977 0.08243,-0.299806 0.142578,-0.429688 0.159909,-0.345301 0.394603,-0.675145 0.56836,-1.123046 0.140615,-0.362472 0.234637,-0.661263 0.304687,-0.892579 0.07005,-0.231316 0.05894,-0.334337 0.210938,-0.574218 0.01243,-0.01961 0.05633,-0.110603 0.171875,-0.195313 0.115541,-0.08471 0.179294,-0.09364 0.240234,-0.113281 C 20.066518,13.021237 20.31363,13 20.710938,13 L 22,13 l 0,-2 -1.289062,0 -0.63086,0 c -0.03881,-7e-5 -0.07748,-0.0047 -0.115234,-0.01367 C 19.84721,10.95871 19.643656,10.888513 19.513672,10.732422 19.383683,10.576331 19.363413,10.464143 19.314453,10.330078 19.184915,9.9753981 19.115624,9.5736205 18.921875,9.1328125 18.765399,8.7768045 18.619341,8.4986392 18.505859,8.2851562 18.392378,8.0716743 18.3116,8.0038818 18.25,7.7304688 c -0.0041,-0.018136 -0.03825,-0.1028949 -0.01953,-0.2480469 0.01872,-0.145152 0.0618,-0.2010556 0.0918,-0.2597657 0.106025,-0.207513 0.264765,-0.3956252 0.544922,-0.6757812 L 19.777344,5.6367188 19.070312,4.9296875 18.363281,4.2226562 17.453125,5.1328125 17.007812,5.578125 c -0.02717,0.026788 -0.05731,0.050379 -0.08984,0.070312 -0.102844,0.064109 -0.29507,0.1596581 -0.498047,0.1425781 C 16.216945,5.7739386 16.120116,5.7085875 15.990234,5.6484375 15.644933,5.4885305 15.31509,5.2538351 14.867188,5.0800781 14.504508,4.9393831 14.206168,4.8440075 13.974609,4.7734375 13.743051,4.7028665 13.638996,4.714091 13.400391,4.5625 13.381285,4.55036 13.290198,4.506523 13.205078,4.390625 13.119957,4.274727 13.111467,4.2094875 13.091797,4.1484375 13.021347,3.9297465 13,3.6843524 13,3.2871094 L 13,2 12,2 Z"
       style="opacity:0.4;fill:none;fill-opacity:1;stroke:url(#linearGradient7805);stroke-width:2;stroke-linecap:round;stroke-linejoin:round;stroke-miterlimit:4;stroke-dasharray:none;stroke-opacity:1"
       clip-path="url(#clipPath7793)"
       inkscape:connector-curvature="0"
       sodipodi:nodetypes="ccccccsscscsccccccsssscscsccccccssssssscccccccsssscscsccccccccsscscccccccccssccscscccccccsscscsccccccccsscscsccc" />
    <path
       clip-path="url(#clipPath7793)"
       style="opacity:0.4;fill:none;fill-opacity:1;stroke:url(#linearGradient7821);stroke-width:2;stroke-linecap:round;stroke-linejoin:round;stroke-miterlimit:4;stroke-dasharray:none;stroke-opacity:1"
       d="m 12,7 c 2.759989,0 5,2.240011 5,5 0,2.759989 -2.240011,5 -5,5 C 9.2400111,17 7,14.759989 7,12 7,9.240011 9.2400111,7 12,7 Z"
       transform="matrix(1,0,0,-1,0,48)"
       id="path7819"
       inkscape:connector-curvature="0"
       sodipodi:nodetypes="sssss" />
  </g>
</svg>
