<?xml version="1.0" encoding="UTF-8" standalone="no"?>
<!-- Created with Inkscape (http://www.inkscape.org/) -->

<svg
   xmlns:dc="http://purl.org/dc/elements/1.1/"
   xmlns:cc="http://creativecommons.org/ns#"
   xmlns:rdf="http://www.w3.org/1999/02/22-rdf-syntax-ns#"
   xmlns:svg="http://www.w3.org/2000/svg"
   xmlns="http://www.w3.org/2000/svg"
   xmlns:xlink="http://www.w3.org/1999/xlink"
   xmlns:sodipodi="http://sodipodi.sourceforge.net/DTD/sodipodi-0.dtd"
   xmlns:inkscape="http://www.inkscape.org/namespaces/inkscape"
   version="1.1"
   width="32"
   height="32"
   id="svg2436"
   inkscape:version="0.48.4 r9939"
   sodipodi:docname="user-home.svg">
  <sodipodi:namedview
     pagecolor="#ffffff"
     bordercolor="#666666"
     borderopacity="1"
     objecttolerance="10"
     gridtolerance="10"
     guidetolerance="10"
     inkscape:pageopacity="0"
     inkscape:pageshadow="2"
     inkscape:window-width="1364"
     inkscape:window-height="700"
     id="namedview21"
     showgrid="false"
     showborder="false"
     inkscape:snap-bbox="true"
     inkscape:bbox-paths="true"
     inkscape:bbox-nodes="true"
     inkscape:snap-bbox-midpoints="true"
     inkscape:snap-bbox-edge-midpoints="true"
     inkscape:zoom="1"
     inkscape:cx="23.147398"
     inkscape:cy="10.518035"
     inkscape:window-x="0"
     inkscape:window-y="28"
     inkscape:window-maximized="1"
     inkscape:current-layer="layer2">
    <inkscape:grid
       type="xygrid"
       id="grid3813"
       empspacing="4"
       visible="true"
       enabled="true"
       snapvisiblegridlinesonly="true" />
  </sodipodi:namedview>
  <defs
     id="defs2438">
    <linearGradient
       x1="46.810242"
       y1="-3.7612398"
       x2="22.683298"
       y2="36.569065"
       id="linearGradient2399"
       xlink:href="#linearGradient4222"
       gradientUnits="userSpaceOnUse" />
    <linearGradient
       id="linearGradient4222">
      <stop
         id="stop4224"
         style="stop-color:#ffffff;stop-opacity:1"
         offset="0" />
      <stop
         id="stop4226"
         style="stop-color:#ffffff;stop-opacity:0"
         offset="1" />
    </linearGradient>
    <linearGradient
       x1="54.570274"
       y1="-14.909454"
       x2="20.825262"
       y2="40.394432"
       id="linearGradient2397"
       xlink:href="#linearGradient4222"
       gradientUnits="userSpaceOnUse" />
    <linearGradient
       x1="33.747887"
       y1="27.630672"
       x2="33.747887"
       y2="12.500461"
       id="linearGradient2395"
       xlink:href="#linearGradient5106"
       gradientUnits="userSpaceOnUse" />
    <linearGradient
       id="linearGradient5106">
      <stop
         id="stop5108"
         style="stop-color:#555555;stop-opacity:1;"
         offset="0" />
      <stop
         id="stop5110"
         style="stop-color:#222222;stop-opacity:1;"
         offset="1" />
    </linearGradient>
    <linearGradient
       x1="15.747885"
       y1="27.193487"
       x2="15.747885"
       y2="12.500461"
       id="linearGradient2393"
       xlink:href="#linearGradient5106"
       gradientUnits="userSpaceOnUse" />
    <linearGradient
       inkscape:collect="always"
       xlink:href="#linearGradient5106"
       id="linearGradient3786"
       gradientUnits="userSpaceOnUse"
       x1="33.747887"
       y1="27.630672"
       x2="33.747887"
       y2="12.500461"
       gradientTransform="matrix(1,0,0,-1,-0.98483573,48.000461)" />
    <linearGradient
       inkscape:collect="always"
       xlink:href="#linearGradient5106"
       id="linearGradient3789"
       gradientUnits="userSpaceOnUse"
       x1="15.747885"
       y1="27.193487"
       x2="15.747885"
       y2="12.500461"
       gradientTransform="matrix(1,0,0,-1,-0.99999973,48.000461)" />
    <clipPath
       clipPathUnits="userSpaceOnUse"
       id="clipPath3985">
      <path
         sodipodi:nodetypes="sscscccccccsccscccccsccssssscs"
         inkscape:connector-curvature="0"
         id="path3987"
         d="m 309,232.99972 c -0.53578,0 -1,0.46422 -1,1 l -5e-5,8 -1,0 c -0.3277,0 -0.58618,0.18225 -0.75,0.375 -0.1489,0.17519 -0.22283,0.39373 -0.21875,0.65625 l -0.0312,0 0,0.0312 c 7.3e-4,0.0115 -10e-4,0.0195 0,0.0312 l 1.00005,26.96875 0,0.0312 c 0.0279,0.29662 0.18255,0.47236 0.34375,0.625 0.1612,0.15264 0.34482,0.28259 0.65625,0.28125 l 40,0 c 0.31123,10e-4 0.49504,-0.12858 0.65625,-0.28125 0.16121,-0.15267 0.31581,-0.32853 0.34375,-0.625 l 0,-0.0312 0.99995,-26.96875 0,-0.0312 c 10e-4,-0.013 -6.9e-4,-0.0186 0,-0.0312 0.0177,-0.32247 -0.12059,-0.51812 -0.28125,-0.6875 -0.16696,-0.17602 -0.38333,-0.34519 -0.71875,-0.34375 l -1,0 5e-5,-4 c 1e-5,-0.53578 -0.46422,-1 -1,-1 l -15,0 c -1.98879,0 -3.00245,-1.00245 -4,-2 -0.99755,-0.99755 -2.01326,-2 -4,-2 l -15,0 z"
         style="font-size:medium;font-style:normal;font-variant:normal;font-weight:normal;font-stretch:normal;text-indent:0;text-align:start;text-decoration:none;line-height:normal;letter-spacing:normal;word-spacing:normal;text-transform:none;direction:ltr;block-progression:tb;writing-mode:lr-tb;text-anchor:start;baseline-shift:baseline;color:#000000;fill:#3465a4;fill-opacity:1;fill-rule:nonzero;stroke:none;stroke-width:1;marker:none;visibility:visible;display:inline;overflow:visible;enable-background:accumulate;font-family:Sans;-inkscape-font-specification:Sans" />
    </clipPath>
    <linearGradient
       inkscape:collect="always"
       xlink:href="#linearGradient11342"
       id="linearGradient3991"
       gradientUnits="userSpaceOnUse"
       x1="328"
       y1="242.99973"
       x2="328"
       y2="254.99973" />
    <linearGradient
       id="linearGradient11342">
      <stop
         style="stop-color:#ffffff;stop-opacity:1;"
         offset="0"
         id="stop11344" />
      <stop
         style="stop-color:#ffffff;stop-opacity:0;"
         offset="1"
         id="stop11346" />
    </linearGradient>
    <clipPath
       clipPathUnits="userSpaceOnUse"
       id="clipPath3995">
      <path
         style="font-size:medium;font-style:normal;font-variant:normal;font-weight:normal;font-stretch:normal;text-indent:0;text-align:start;text-decoration:none;line-height:normal;letter-spacing:normal;word-spacing:normal;text-transform:none;direction:ltr;block-progression:tb;writing-mode:lr-tb;text-anchor:start;baseline-shift:baseline;color:#000000;fill:url(#linearGradient3999);fill-opacity:1;fill-rule:nonzero;stroke:none;stroke-width:2;marker:none;visibility:visible;display:inline;overflow:visible;enable-background:accumulate;font-family:Sans;-inkscape-font-specification:Sans"
         d="m 306,242.09347 1,27 c 0.0463,0.49158 0.50624,0.90838 1,0.90625 l 40,0 c 0.49376,0.002 0.95367,-0.41467 1,-0.90625 l 1,-27 c 0.0521,-0.5539 -0.44366,-1.09614 -1,-1.09375 l -42,0 c -0.60937,0 -1.0514,0.56975 -1,1.09375 z"
         id="path3997"
         inkscape:connector-curvature="0"
         sodipodi:nodetypes="ccccccccc" />
    </clipPath>
    <linearGradient
       id="linearGradient4968">
      <stop
         id="stop4970"
         offset="0"
         style="stop-color:#f1e6f4;stop-opacity:1;" />
      <stop
         style="stop-color:#c9bcce;stop-opacity:1;"
         offset="1"
         id="stop4972" />
    </linearGradient>
    <linearGradient
       id="linearGradient11359">
      <stop
         style="stop-color:#d5cbd7;stop-opacity:1;"
         offset="0"
         id="stop11361" />
      <stop
         style="stop-color:#d9bfdf;stop-opacity:1;"
         offset="1"
         id="stop11363" />
    </linearGradient>
    <linearGradient
       inkscape:collect="always"
       xlink:href="#linearGradient11342"
       id="linearGradient3793"
       gradientUnits="userSpaceOnUse"
       x1="320"
       y1="247.99973"
       x2="320"
       y2="267.99973" />
    <clipPath
       clipPathUnits="userSpaceOnUse"
       id="clipPath11991">
      <path
         style="font-size:medium;font-style:normal;font-variant:normal;font-weight:normal;font-stretch:normal;text-indent:0;text-align:start;text-decoration:none;line-height:normal;letter-spacing:normal;word-spacing:normal;text-transform:none;direction:ltr;block-progression:tb;writing-mode:lr-tb;text-anchor:start;baseline-shift:baseline;color:#000000;fill:#204a87;fill-opacity:1;stroke:none;stroke-width:2;marker:none;visibility:visible;display:inline;overflow:visible;enable-background:accumulate;font-family:Sans;-inkscape-font-specification:Sans"
         d="m 433,42 0,2 0,5 0,5 0,14 c 0,0 4e-5,3 3,3 l 24,0 c 0,0 3,-3.8e-5 3,-3 l 0,-14 0,-5 0,-1 0,-2 -2,0 -9,0 c -1.33332,6.1e-5 -1.56251,-0.437513 -2.5625,-1.4375 C 448.43751,43.562512 446.66663,42 444,42 l -9,0 -2,0 z"
         id="path11993"
         inkscape:connector-curvature="0" />
    </clipPath>
    <linearGradient
       inkscape:collect="always"
       xlink:href="#linearGradient11852"
       id="linearGradient3972"
       gradientUnits="userSpaceOnUse"
       x1="448"
       y1="43.999722"
       x2="448"
       y2="55.999722" />
    <linearGradient
       id="linearGradient11852"
       inkscape:collect="always">
      <stop
         id="stop11854"
         offset="0"
         style="stop-color:#ffffff;stop-opacity:1;" />
      <stop
         id="stop11856"
         offset="1"
         style="stop-color:#ffffff;stop-opacity:0;" />
    </linearGradient>
    <clipPath
       clipPathUnits="userSpaceOnUse"
       id="clipPath11726">
      <path
         sodipodi:nodetypes="ccccccc"
         inkscape:connector-curvature="0"
         id="path11728"
         d="m 433.00004,44.999995 29.99994,-3.25e-4 0,18.999763 c 0,2.999962 -2.99996,2.999962 -2.99996,2.999962 L 436,66.99972 c -2.99996,0 -3.00036,-2.999962 -3.00036,-2.999962 z"
         style="font-size:medium;font-style:normal;font-variant:normal;font-weight:normal;font-stretch:normal;text-indent:0;text-align:start;text-decoration:none;line-height:normal;letter-spacing:normal;word-spacing:normal;text-transform:none;direction:ltr;block-progression:tb;writing-mode:lr-tb;text-anchor:start;baseline-shift:baseline;color:#000000;fill:url(#linearGradient11730);fill-opacity:1;fill-rule:nonzero;stroke:none;stroke-width:2;marker:none;visibility:visible;display:inline;overflow:visible;enable-background:accumulate;font-family:Sans;-inkscape-font-specification:Sans" />
    </clipPath>
    <linearGradient
       inkscape:collect="always"
       xlink:href="#linearGradient4968-0"
       id="linearGradient5273"
       gradientUnits="userSpaceOnUse"
       gradientTransform="matrix(0.76181882,0,0,0.76181882,-233.87442,-176.69082)"
       x1="349.00003"
       y1="231.9328"
       x2="349.00003"
       y2="273.93753" />
    <linearGradient
       id="linearGradient4968-0">
      <stop
         id="stop4970-0"
         offset="0"
         style="stop-color:#f1e6f4;stop-opacity:1;" />
      <stop
         style="stop-color:#c9bcce;stop-opacity:1;"
         offset="1"
         id="stop4972-8" />
    </linearGradient>
    <linearGradient
       inkscape:collect="always"
       xlink:href="#linearGradient11359-1"
       id="linearGradient5276"
       gradientUnits="userSpaceOnUse"
       gradientTransform="matrix(1.999975,0,0,1.999975,-863.98845,-247.9962)"
       x1="440"
       y1="126.99972"
       x2="440"
       y2="130.99973" />
    <linearGradient
       id="linearGradient11359-1">
      <stop
         style="stop-color:#d5cbd7;stop-opacity:1;"
         offset="0"
         id="stop11361-4" />
      <stop
         style="stop-color:#d9bfdf;stop-opacity:1;"
         offset="1"
         id="stop11363-4" />
    </linearGradient>
    <linearGradient
       inkscape:collect="always"
       xlink:href="#linearGradient11342-4"
       id="linearGradient3991-9"
       gradientUnits="userSpaceOnUse"
       x1="328"
       y1="242.99973"
       x2="328"
       y2="254.99973" />
    <linearGradient
       id="linearGradient11342-4">
      <stop
         style="stop-color:#ffffff;stop-opacity:1;"
         offset="0"
         id="stop11344-7" />
      <stop
         style="stop-color:#ffffff;stop-opacity:0;"
         offset="1"
         id="stop11346-6" />
    </linearGradient>
    <clipPath
       clipPathUnits="userSpaceOnUse"
       id="clipPath3995-5">
      <path
         style="font-size:medium;font-style:normal;font-variant:normal;font-weight:normal;font-stretch:normal;text-indent:0;text-align:start;text-decoration:none;line-height:normal;letter-spacing:normal;word-spacing:normal;text-transform:none;direction:ltr;block-progression:tb;writing-mode:lr-tb;text-anchor:start;baseline-shift:baseline;color:#000000;fill:url(#linearGradient3999);fill-opacity:1;fill-rule:nonzero;stroke:none;stroke-width:2;marker:none;visibility:visible;display:inline;overflow:visible;enable-background:accumulate;font-family:Sans;-inkscape-font-specification:Sans"
         d="m 306,242.09347 1,27 c 0.0463,0.49158 0.50624,0.90838 1,0.90625 l 40,0 c 0.49376,0.002 0.95367,-0.41467 1,-0.90625 l 1,-27 c 0.0521,-0.5539 -0.44366,-1.09614 -1,-1.09375 l -42,0 c -0.60937,0 -1.0514,0.56975 -1,1.09375 z"
         id="path3997-2"
         inkscape:connector-curvature="0"
         sodipodi:nodetypes="ccccccccc" />
    </clipPath>
    <linearGradient
       id="linearGradient4968-2">
      <stop
         id="stop4970-2"
         offset="0"
         style="stop-color:#f7f7f7;stop-opacity:1;" />
      <stop
         style="stop-color:#dedede;stop-opacity:1;"
         offset="0.66666681"
         id="stop3794" />
      <stop
         style="stop-color:#c6c6c6;stop-opacity:1;"
         offset="1"
         id="stop4972-2" />
    </linearGradient>
    <linearGradient
       id="linearGradient11359-6">
      <stop
         style="stop-color:#f5f5f5;stop-opacity:1;"
         offset="0"
         id="stop11361-1" />
      <stop
         style="stop-color:#d7d7d7;stop-opacity:1;"
         offset="1"
         id="stop11363-6" />
    </linearGradient>
  </defs>
  <metadata
     id="metadata2441">
    <rdf:RDF>
      <cc:Work
         rdf:about="">
        <dc:format>image/svg+xml</dc:format>
        <dc:type
           rdf:resource="http://purl.org/dc/dcmitype/StillImage" />
        <dc:title></dc:title>
      </cc:Work>
    </rdf:RDF>
  </metadata>
  <path
     inkscape:connector-curvature="0"
     style="font-size:medium;font-style:normal;font-variant:normal;font-weight:normal;font-stretch:normal;text-indent:0;text-align:start;text-decoration:none;line-height:normal;letter-spacing:normal;word-spacing:normal;text-transform:none;direction:ltr;block-progression:tb;writing-mode:lr-tb;text-anchor:start;baseline-shift:baseline;color:#000000;fill:url(#linearGradient5276);fill-opacity:1;stroke:none;stroke-width:2;marker:none;visibility:visible;display:inline;overflow:visible;enable-background:accumulate;font-family:Sans;-inkscape-font-specification:Sans"
     d="m 1.50036,2.4999511 0,1.5 0,9.4999999 29,0 0,-5.4999999 0,-1.5 -1.5,0 -9,0 c -0.72136,3.3e-5 -1.25494,-0.146968 -1.6875,-0.4375 -0.43256,-0.290532 -0.73104,-0.668537 -1.21875,-1.15625 -0.97544,-0.975436 -2.62243,-2.40625 -5.09375,-2.40625 l -9,0 z"
     id="path11688"
     sodipodi:nodetypes="ccccccccssscc" />
  <path
     style="font-size:medium;font-style:normal;font-variant:normal;font-weight:normal;font-stretch:normal;text-indent:0;text-align:start;text-decoration:none;line-height:normal;letter-spacing:normal;word-spacing:normal;text-transform:none;direction:ltr;block-progression:tb;writing-mode:lr-tb;text-anchor:start;baseline-shift:baseline;opacity:0.41000001;color:#000000;fill:#000000;fill-opacity:1;stroke:none;stroke-width:1;marker:none;visibility:visible;display:inline;overflow:visible;enable-background:accumulate;font-family:Sans;-inkscape-font-specification:Sans"
     d="M 1,2 1,2.5 1,4 1,9 1.5,9 2,9 2,4 2,3 3,3 12,3 c 2.278331,0 3.800677,1.3006813 4.75,2.25 0.468494,0.4684969 0.770429,0.8756535 1.28125,1.21875 C 18.556994,6.82187 19.210701,7.0000361 20,7 l 9,0 1,0 0,1 0,1 0.5,0 L 31,9 31,8 31,6.5 31,6 30.5,6 29,6 20,6 C 19.346579,6.0000299 18.933126,5.884194 18.59375,5.65625 18.239451,5.4182825 17.944426,5.0694291 17.4375,4.5625 16.435943,3.5609467 14.664309,2 12,2 L 3,2 1.5,2 z"
     id="path4022"
     inkscape:connector-curvature="0"
     sodipodi:nodetypes="cccccccccssscccccccccccccsssccc" />
  <path
     inkscape:connector-curvature="0"
     id="path13866"
     d="m 1.50036,10.499999 0,17.5 c 0,0 -0.003,0.650497 0.3125,1.28125 0.31546,0.630753 0.85419,1.21875 2.1875,1.21875 l 24,0 c 0,0 0.65052,0.0029 1.28125,-0.3125 0.63073,-0.315367 1.21875,-0.854186 1.21875,-2.1875 l 0,-17.5 z"
     style="font-size:medium;font-style:normal;font-variant:normal;font-weight:normal;font-stretch:normal;text-indent:0;text-align:start;text-decoration:none;line-height:normal;letter-spacing:normal;word-spacing:normal;text-transform:none;direction:ltr;block-progression:tb;writing-mode:lr-tb;text-anchor:start;baseline-shift:baseline;opacity:0.2;color:#000000;fill:#000000;fill-opacity:1;fill-rule:nonzero;stroke:none;stroke-width:2;marker:none;visibility:visible;display:inline;overflow:visible;enable-background:accumulate;font-family:Sans;-inkscape-font-specification:Sans"
     sodipodi:nodetypes="cccsccscc" />
  <path
     inkscape:connector-curvature="0"
     style="font-size:medium;font-style:normal;font-variant:normal;font-weight:normal;font-stretch:normal;text-indent:0;text-align:start;text-decoration:none;line-height:normal;letter-spacing:normal;word-spacing:normal;text-transform:none;direction:ltr;block-progression:tb;writing-mode:lr-tb;text-anchor:start;baseline-shift:baseline;color:#000000;fill:url(#linearGradient5273);fill-opacity:1;fill-rule:nonzero;stroke:none;stroke-width:2;marker:none;visibility:visible;display:inline;overflow:visible;enable-background:accumulate;font-family:Sans;-inkscape-font-specification:Sans"
     d="m 1.50036,9.4999511 0,17.4999999 c 0,0 -0.003,0.650497 0.3125,1.28125 0.31546,0.630753 0.85419,1.21875 2.1875,1.21875 l 24,0 c 0,0 0.65052,0.0029 1.28125,-0.3125 0.63073,-0.315367 1.21875,-0.854186 1.21875,-2.1875 l 0,-17.4999999 z"
     id="path11690"
     sodipodi:nodetypes="cccsccscc" />
  <path
     style="font-size:medium;font-style:normal;font-variant:normal;font-weight:normal;font-stretch:normal;text-indent:0;text-align:start;text-decoration:none;line-height:normal;letter-spacing:normal;word-spacing:normal;text-transform:none;direction:ltr;block-progression:tb;writing-mode:lr-tb;text-anchor:start;baseline-shift:baseline;opacity:0.4;color:#000000;fill:#ffffff;fill-opacity:1;fill-rule:nonzero;stroke:none;stroke-width:2;marker:none;visibility:visible;display:inline;overflow:visible;enable-background:accumulate;font-family:Sans;-inkscape-font-specification:Sans"
     d="m 2,10 0,1 28,0 0,-1 z"
     id="path4026"
     inkscape:connector-curvature="0"
     sodipodi:nodetypes="ccccc" />
  <path
     style="font-size:medium;font-style:normal;font-variant:normal;font-weight:normal;font-stretch:normal;text-indent:0;text-align:start;text-decoration:none;line-height:normal;letter-spacing:normal;word-spacing:normal;text-transform:none;direction:ltr;block-progression:tb;writing-mode:lr-tb;text-anchor:start;baseline-shift:baseline;opacity:0.41000001;color:#000000;fill:#000000;fill-opacity:1;stroke:none;stroke-width:1;marker:none;visibility:visible;display:inline;overflow:visible;enable-background:accumulate;font-family:Sans;-inkscape-font-specification:Sans"
     d="M 1,9 1,9.5 1,27 c 0,0 -0.002596,0.745104 0.375,1.5 0.1808609,0.361626 0.4417845,0.744146 0.875,1.03125 C 2.6832155,29.818354 3.2598441,30 4,30 l 24,0 c 0,0 0.745169,0.0025 1.5,-0.375 0.361652,-0.180827 0.744144,-0.441773 1.03125,-0.875 C 30.818356,28.316773 31,27.740161 31,27 L 31,9.5 31,9 30.5,9 1.5,9 z m 1,1 28,0 0,17 c 0,0.593153 -0.116663,0.939148 -0.28125,1.1875 C 29.554163,28.435852 29.331578,28.61546 29.0625,28.75 28.555871,29.003343 28,29 28,29 L 4,29 C 3.4068459,29 3.060842,28.883333 2.8125,28.71875 2.564158,28.554167 2.3845991,28.331627 2.25,28.0625 1.996596,27.55589 2,27 2,27 z"
     id="path4024"
     inkscape:connector-curvature="0"
     sodipodi:nodetypes="ccccssccsscccccccssccssccc" />
  <g
     inkscape:groupmode="layer"
     id="layer1"
     inkscape:label="Background" />
  <g
     inkscape:groupmode="layer"
     id="layer2"
     inkscape:label="Symbol" />
</svg>
