<?xml version="1.0" encoding="UTF-8" standalone="no"?>
<!-- Created with Inkscape (http://www.inkscape.org/) -->

<svg
   xmlns:dc="http://purl.org/dc/elements/1.1/"
   xmlns:cc="http://creativecommons.org/ns#"
   xmlns:rdf="http://www.w3.org/1999/02/22-rdf-syntax-ns#"
   xmlns:svg="http://www.w3.org/2000/svg"
   xmlns="http://www.w3.org/2000/svg"
   xmlns:xlink="http://www.w3.org/1999/xlink"
   xmlns:sodipodi="http://sodipodi.sourceforge.net/DTD/sodipodi-0.dtd"
   xmlns:inkscape="http://www.inkscape.org/namespaces/inkscape"
   version="1.1"
   width="64"
   height="64"
   id="svg4161"
   inkscape:version="0.48.4 r9939"
   sodipodi:docname="internet-mail.svg">
  <sodipodi:namedview
     pagecolor="#ffffff"
     bordercolor="#666666"
     borderopacity="1"
     objecttolerance="10"
     gridtolerance="10"
     guidetolerance="10"
     inkscape:pageopacity="0"
     inkscape:pageshadow="2"
     inkscape:window-width="1364"
     inkscape:window-height="700"
     id="namedview45"
     showgrid="false"
     showborder="false"
     inkscape:snap-bbox="true"
     inkscape:bbox-paths="true"
     inkscape:bbox-nodes="true"
     inkscape:snap-bbox-edge-midpoints="true"
     inkscape:snap-bbox-midpoints="true"
     inkscape:zoom="1"
     inkscape:cx="47.889722"
     inkscape:cy="27.389838"
     inkscape:window-x="0"
     inkscape:window-y="28"
     inkscape:window-maximized="1"
     inkscape:current-layer="layer1">
    <inkscape:grid
       type="xygrid"
       id="grid3913"
       empspacing="4"
       visible="true"
       enabled="true"
       snapvisiblegridlinesonly="true" />
  </sodipodi:namedview>
  <defs
     id="defs4163">
    <linearGradient
       y2="59.783684"
       x2="24"
       y1="-8.7154436"
       x1="24"
       gradientTransform="matrix(1.5428538,0,0,-0.93431845,-5.028491,55.357)"
       gradientUnits="userSpaceOnUse"
       id="linearGradient3343"
       xlink:href="#linearGradient3988-5"
       inkscape:collect="always" />
    <linearGradient
       id="linearGradient3988-5">
      <stop
         style="stop-color:#ededed;stop-opacity:1;"
         offset="0"
         id="stop3990-5" />
      <stop
         style="stop-color:#ffffff;stop-opacity:1;"
         offset="1"
         id="stop3992-0" />
    </linearGradient>
    <clipPath
       clipPathUnits="userSpaceOnUse"
       id="clipPath4072">
      <path
         sodipodi:nodetypes="ccccc"
         d="m 58.999941,52.997 6e-5,-42.997 c 0,0 -36.000002,0 -54.000002,0 0,14.33332 1e-6,43 1e-6,43 z"
         inkscape:connector-curvature="0"
         id="path4074"
         style="fill:url(#linearGradient4076);fill-opacity:1;stroke:none;display:inline" />
    </clipPath>
    <linearGradient
       inkscape:collect="always"
       xlink:href="#linearGradient3988-5"
       id="linearGradient4076"
       gradientUnits="userSpaceOnUse"
       gradientTransform="matrix(1.5428538,0,0,-0.93431845,-5.028491,55.357)"
       x1="24"
       y1="-8.7154436"
       x2="24"
       y2="59.783684" />
    <linearGradient
       inkscape:collect="always"
       xlink:href="#linearGradient3702-501-757-8-4-1-1-4"
       id="linearGradient3897-8"
       gradientUnits="userSpaceOnUse"
       x1="25.058096"
       y1="47.027729"
       x2="25.058096"
       y2="39.999443"
       gradientTransform="matrix(1.5789502,0,0,0.7142857,13.016883,48.838474)" />
    <linearGradient
       id="linearGradient3702-501-757-8-4-1-1-4">
      <stop
         id="stop2895-8-9-9-1-2"
         style="stop-color:#181818;stop-opacity:0"
         offset="0" />
      <stop
         id="stop2897-7-8-7-7-7"
         style="stop-color:#181818;stop-opacity:1"
         offset="0.5" />
      <stop
         id="stop2899-4-5-1-5-6"
         style="stop-color:#181818;stop-opacity:0"
         offset="1" />
    </linearGradient>
    <radialGradient
       inkscape:collect="always"
       xlink:href="#linearGradient3688-464-309-9-2-4-2-3"
       id="radialGradient3900-4"
       gradientUnits="userSpaceOnUse"
       gradientTransform="matrix(3.1638751,0,0,0.99999998,-44.614629,-123.4099)"
       cx="4.9929786"
       cy="43.5"
       fx="4.9929786"
       fy="43.5"
       r="2.5" />
    <linearGradient
       id="linearGradient3688-464-309-9-2-4-2-3">
      <stop
         id="stop2889-7-9-6-9-1"
         style="stop-color:#181818;stop-opacity:1"
         offset="0" />
      <stop
         id="stop2891-6-6-1-7-0"
         style="stop-color:#181818;stop-opacity:0"
         offset="1" />
    </linearGradient>
    <linearGradient
       id="linearGradient3688-166-749-4-0-3-8-1">
      <stop
         id="stop2883-4-0-1-8-9"
         style="stop-color:#181818;stop-opacity:1"
         offset="0" />
      <stop
         id="stop2885-9-2-9-6-3"
         style="stop-color:#181818;stop-opacity:0"
         offset="1" />
    </linearGradient>
    <radialGradient
       r="2.5"
       fy="43.5"
       fx="4.9929786"
       cy="43.5"
       cx="4.9929786"
       gradientTransform="matrix(3.1638751,0,0,0.99999998,36.297112,-40.999999)"
       gradientUnits="userSpaceOnUse"
       id="radialGradient3086"
       xlink:href="#linearGradient3688-166-749-4-0-3-8-1"
       inkscape:collect="always" />
    <radialGradient
       inkscape:collect="always"
       xlink:href="#linearGradient3688-166-749-4-0-3-8-1"
       id="radialGradient4232"
       gradientUnits="userSpaceOnUse"
       gradientTransform="matrix(3.1638751,0,0,0.99999998,57.208746,36.409903)"
       cx="4.9929786"
       cy="43.5"
       fx="4.9929786"
       fy="43.5"
       r="2.5" />
    <radialGradient
       inkscape:collect="always"
       xlink:href="#linearGradient3688-166-749-4-0-3-8-1"
       id="radialGradient4250"
       gradientUnits="userSpaceOnUse"
       gradientTransform="matrix(3.1638751,0,0,0.99999998,57.208746,36.409903)"
       cx="4.9929786"
       cy="43.5"
       fx="4.9929786"
       fy="43.5"
       r="2.5" />
    <radialGradient
       inkscape:collect="always"
       xlink:href="#linearGradient3688-464-309-9-2-4-2-3"
       id="radialGradient4252"
       gradientUnits="userSpaceOnUse"
       gradientTransform="matrix(3.1638751,0,0,0.99999998,-44.614629,-123.4099)"
       cx="4.9929786"
       cy="43.5"
       fx="4.9929786"
       fy="43.5"
       r="2.5" />
    <linearGradient
       inkscape:collect="always"
       xlink:href="#linearGradient3702-501-757-8-4-1-1-4"
       id="linearGradient4254"
       gradientUnits="userSpaceOnUse"
       gradientTransform="matrix(1.5789502,0,0,0.7142857,13.016883,48.838474)"
       x1="25.058096"
       y1="47.027729"
       x2="25.058096"
       y2="39.999443" />
    <radialGradient
       cx="4.9929786"
       cy="43.5"
       fx="4.9929786"
       fy="43.5"
       gradientTransform="matrix(2.003784,0,0,1.4,27.98813,-17.4)"
       gradientUnits="userSpaceOnUse"
       id="radialGradient8803"
       inkscape:collect="always"
       r="2.5"
       xlink:href="#linearGradient3688" />
    <linearGradient
       id="linearGradient3688"
       inkscape:collect="always">
      <stop
         id="stop3690"
         offset="0"
         style="stop-color:black;stop-opacity:1;" />
      <stop
         id="stop3692"
         offset="1"
         style="stop-color:black;stop-opacity:0;" />
    </linearGradient>
    <radialGradient
       cx="4.9929786"
       cy="43.5"
       fx="4.9929786"
       fy="43.5"
       gradientTransform="matrix(2.003784,0,0,1.4,-20.01187,-104.4)"
       gradientUnits="userSpaceOnUse"
       id="radialGradient8805"
       inkscape:collect="always"
       r="2.5"
       xlink:href="#linearGradient3688" />
    <linearGradient
       gradientUnits="userSpaceOnUse"
       id="linearGradient8807"
       inkscape:collect="always"
       x1="25.058096"
       x2="25.058096"
       xlink:href="#linearGradient3702"
       y1="47.027729"
       y2="39.999443" />
    <linearGradient
       id="linearGradient3702">
      <stop
         id="stop3704"
         offset="0"
         style="stop-color:black;stop-opacity:0;" />
      <stop
         id="stop3710"
         offset="0.5"
         style="stop-color:black;stop-opacity:1;" />
      <stop
         id="stop3706"
         offset="1"
         style="stop-color:black;stop-opacity:0;" />
    </linearGradient>
    <linearGradient
       gradientTransform="translate(46,-4)"
       gradientUnits="userSpaceOnUse"
       id="linearGradient8809"
       inkscape:collect="always"
       x1="-29.375"
       x2="-19.532248"
       xlink:href="#linearGradient8590"
       y1="9.25"
       y2="61.616341" />
    <linearGradient
       id="linearGradient8590"
       inkscape:collect="always">
      <stop
         id="stop8592"
         offset="0"
         style="stop-color:#eeeeec;stop-opacity:1;" />
      <stop
         id="stop8594"
         offset="1"
         style="stop-color:#ffffff;stop-opacity:1" />
    </linearGradient>
    <linearGradient
       gradientTransform="matrix(1.6157247,0,0,1.6197044,127.48592,-1.8429496)"
       gradientUnits="userSpaceOnUse"
       id="linearGradient8811"
       inkscape:collect="always"
       x1="-21.478369"
       x2="-21.478369"
       xlink:href="#linearGradient6394"
       y1="-0.80551612"
       y2="18.005089" />
    <linearGradient
       id="linearGradient6394"
       inkscape:collect="always">
      <stop
         id="stop6396"
         offset="0"
         style="stop-color:#729fcf;stop-opacity:1" />
      <stop
         id="stop6398"
         offset="1"
         style="stop-color:#ffffff;stop-opacity:1" />
    </linearGradient>
    <linearGradient
       gradientTransform="matrix(1.6665145,0,0,3.5,130.99041,-33.499999)"
       gradientUnits="userSpaceOnUse"
       id="linearGradient8813"
       inkscape:collect="always"
       x1="-21.03125"
       x2="-21.03125"
       xlink:href="#linearGradient6754"
       y1="16.187811"
       y2="14.13769" />
    <linearGradient
       id="linearGradient6754"
       inkscape:collect="always">
      <stop
         id="stop6756"
         offset="0"
         style="stop-color:#729fcf;stop-opacity:1" />
      <stop
         id="stop6758"
         offset="1"
         style="stop-color:#729fcf;stop-opacity:0" />
    </linearGradient>
    <radialGradient
       cx="22.010408"
       cy="22.717514"
       fx="22.010408"
       fy="22.717514"
       gradientTransform="matrix(3.0016277,0,0,1.3116125,-44.056643,-7.0790611)"
       gradientUnits="userSpaceOnUse"
       id="radialGradient8815"
       inkscape:collect="always"
       r="14"
       xlink:href="#linearGradient8758" />
    <linearGradient
       id="linearGradient8758"
       inkscape:collect="always">
      <stop
         id="stop8760"
         offset="0"
         style="stop-color:#ffffff;stop-opacity:1;" />
      <stop
         id="stop8762"
         offset="1"
         style="stop-color:#ffffff;stop-opacity:0;" />
    </linearGradient>
    <linearGradient
       id="outerBackgroundGradient-9">
      <stop
         style="stop-color:#8c166c;stop-opacity:1;"
         offset="0"
         id="stop3864-8-6-6" />
      <stop
         id="stop4409-9"
         offset="0.36206895"
         style="stop-color:#ca3561;stop-opacity:1;" />
      <stop
         style="stop-color:#f38f4e;stop-opacity:1;"
         offset="1"
         id="stop3866-9-1-1" />
    </linearGradient>
    <linearGradient
       y2="18.005089"
       x2="-21.478369"
       y1="-0.80551612"
       x1="-21.478369"
       gradientTransform="matrix(1.0769229,0,0,1.0769229,89.837817,52.791972)"
       gradientUnits="userSpaceOnUse"
       id="linearGradient3245"
       xlink:href="#outerBackgroundGradient-9"
       inkscape:collect="always" />
    <linearGradient
       inkscape:collect="always"
       xlink:href="#linearGradient8590"
       id="linearGradient4415"
       gradientUnits="userSpaceOnUse"
       gradientTransform="translate(46,-4)"
       x1="-29.375"
       y1="9.25"
       x2="-19.532248"
       y2="61.616341" />
    <linearGradient
       inkscape:collect="always"
       xlink:href="#linearGradient6394"
       id="linearGradient4417"
       gradientUnits="userSpaceOnUse"
       gradientTransform="matrix(1.6157247,0,0,1.6197044,127.48592,-1.8429496)"
       x1="-21.478369"
       y1="-0.80551612"
       x2="-21.478369"
       y2="18.005089" />
    <linearGradient
       inkscape:collect="always"
       xlink:href="#linearGradient6754"
       id="linearGradient4419"
       gradientUnits="userSpaceOnUse"
       gradientTransform="matrix(1.6665145,0,0,3.5,130.99041,-33.499999)"
       x1="-21.03125"
       y1="16.187811"
       x2="-21.03125"
       y2="14.13769" />
    <linearGradient
       inkscape:collect="always"
       xlink:href="#linearGradient6754"
       id="linearGradient4426"
       gradientUnits="userSpaceOnUse"
       gradientTransform="matrix(1.6665145,0,0,3.5,162.01341,-2.381283)"
       x1="-21.03125"
       y1="16.187811"
       x2="-21.03125"
       y2="14.13769" />
    <linearGradient
       inkscape:collect="always"
       xlink:href="#outerBackgroundGradient-9"
       id="linearGradient4430"
       gradientUnits="userSpaceOnUse"
       gradientTransform="matrix(1.6923075,0,0,1.6963854,163.79222,28.313253)"
       x1="-21.478369"
       y1="-0.80551612"
       x2="-21.478369"
       y2="18.005089" />
    <linearGradient
       inkscape:collect="always"
       xlink:href="#linearGradient8590"
       id="linearGradient4433"
       gradientUnits="userSpaceOnUse"
       gradientTransform="translate(77.023,27.118716)"
       x1="-29.375"
       y1="9.25"
       x2="-19.532248"
       y2="61.616341" />
    <clipPath
       clipPathUnits="userSpaceOnUse"
       id="clipPath4456">
      <rect
         height="22"
         id="rect4458"
         rx="1.0229988"
         ry="1"
         style="fill:url(#linearGradient4460);fill-opacity:1;stroke:none"
         width="22"
         x="36.022999"
         y="36" />
    </clipPath>
    <linearGradient
       inkscape:collect="always"
       xlink:href="#outerBackgroundGradient-9"
       id="linearGradient4460"
       gradientUnits="userSpaceOnUse"
       gradientTransform="matrix(1.6923075,0,0,1.6963854,163.79222,28.313253)"
       x1="-21.478369"
       y1="-0.80551612"
       x2="-21.478369"
       y2="18.005089" />
    <clipPath
       clipPathUnits="userSpaceOnUse"
       id="clipPath4552">
      <rect
         style="opacity:0.2;fill:#000000;fill-opacity:1;stroke:none"
         id="rect4554"
         width="21.097717"
         height="21.097717"
         x="42.891773"
         y="24.010498"
         rx="0" />
    </clipPath>
    <linearGradient
       inkscape:collect="always"
       xlink:href="#linearGradient4094-8"
       id="linearGradient3271"
       gradientUnits="userSpaceOnUse"
       gradientTransform="matrix(0,-1,1,0,-208.375,365.12502)"
       x1="324"
       y1="260"
       x2="332"
       y2="260" />
    <linearGradient
       id="linearGradient4094-8">
      <stop
         style="stop-color:#e28192;stop-opacity:1;"
         offset="0"
         id="stop4096-0" />
      <stop
         id="stop4317-3"
         offset="0.25862068"
         style="stop-color:#f7d6c7;stop-opacity:1;" />
      <stop
         style="stop-color:#fffee4;stop-opacity:1;"
         offset="1"
         id="stop4098-7" />
    </linearGradient>
    <radialGradient
       inkscape:collect="always"
       xlink:href="#linearGradient3688"
       id="radialGradient4549"
       gradientUnits="userSpaceOnUse"
       gradientTransform="matrix(2.003784,0,0,1.4,27.98813,-17.4)"
       cx="4.9929786"
       cy="43.5"
       fx="4.9929786"
       fy="43.5"
       r="2.5" />
    <radialGradient
       inkscape:collect="always"
       xlink:href="#linearGradient3688"
       id="radialGradient4551"
       gradientUnits="userSpaceOnUse"
       gradientTransform="matrix(2.003784,0,0,1.4,-20.01187,-104.4)"
       cx="4.9929786"
       cy="43.5"
       fx="4.9929786"
       fy="43.5"
       r="2.5" />
    <linearGradient
       inkscape:collect="always"
       xlink:href="#linearGradient3702"
       id="linearGradient4553"
       gradientUnits="userSpaceOnUse"
       x1="25.058096"
       y1="47.027729"
       x2="25.058096"
       y2="39.999443" />
    <linearGradient
       inkscape:collect="always"
       xlink:href="#linearGradient8590"
       id="linearGradient4555"
       gradientUnits="userSpaceOnUse"
       gradientTransform="translate(77.023,27.118716)"
       x1="-29.375"
       y1="9.25"
       x2="-19.532248"
       y2="61.616341" />
    <linearGradient
       inkscape:collect="always"
       xlink:href="#outerBackgroundGradient-9"
       id="linearGradient4557"
       gradientUnits="userSpaceOnUse"
       gradientTransform="matrix(1.6923075,0,0,1.6963854,163.79222,28.313253)"
       x1="-21.478369"
       y1="-0.80551612"
       x2="-21.478369"
       y2="18.005089" />
    <linearGradient
       inkscape:collect="always"
       xlink:href="#linearGradient4094-8"
       id="linearGradient4559"
       gradientUnits="userSpaceOnUse"
       gradientTransform="matrix(0,-1,1,0,-208.375,365.12502)"
       x1="324"
       y1="260"
       x2="332"
       y2="260" />
    <linearGradient
       inkscape:collect="always"
       xlink:href="#linearGradient3988-5"
       id="linearGradient3338"
       gradientUnits="userSpaceOnUse"
       gradientTransform="matrix(1.5428538,0,0,-0.93431845,-5.028491,53.357)"
       x1="24"
       y1="-8.7154436"
       x2="24"
       y2="59.783684" />
    <radialGradient
       inkscape:collect="always"
       xlink:href="#linearGradient3688-166-749-4-0-3-8-1"
       id="radialGradient4157"
       gradientUnits="userSpaceOnUse"
       gradientTransform="matrix(3.1638751,0,0,0.99999998,57.208746,36.409903)"
       cx="4.9929786"
       cy="43.5"
       fx="4.9929786"
       fy="43.5"
       r="2.5" />
    <radialGradient
       inkscape:collect="always"
       xlink:href="#linearGradient3688-464-309-9-2-4-2-3"
       id="radialGradient4159"
       gradientUnits="userSpaceOnUse"
       gradientTransform="matrix(3.1638751,0,0,0.99999998,-44.614629,-123.4099)"
       cx="4.9929786"
       cy="43.5"
       fx="4.9929786"
       fy="43.5"
       r="2.5" />
    <linearGradient
       inkscape:collect="always"
       xlink:href="#linearGradient3702-501-757-8-4-1-1-4"
       id="linearGradient4161"
       gradientUnits="userSpaceOnUse"
       gradientTransform="matrix(1.5789502,0,0,0.7142857,13.016883,48.838474)"
       x1="25.058096"
       y1="47.027729"
       x2="25.058096"
       y2="39.999443" />
    <linearGradient
       inkscape:collect="always"
       xlink:href="#linearGradient3988-5"
       id="linearGradient4163"
       gradientUnits="userSpaceOnUse"
       gradientTransform="matrix(1.5428538,0,0,-0.93431845,-5.028491,53.357)"
       x1="24"
       y1="-8.7154436"
       x2="24"
       y2="59.783684" />
    <radialGradient
       inkscape:collect="always"
       xlink:href="#linearGradient3688-166-749-4-0-3-8-1"
       id="radialGradient4199"
       gradientUnits="userSpaceOnUse"
       gradientTransform="matrix(3.1638751,0,0,0.99999998,57.208746,36.409903)"
       cx="4.9929786"
       cy="43.5"
       fx="4.9929786"
       fy="43.5"
       r="2.5" />
    <radialGradient
       inkscape:collect="always"
       xlink:href="#linearGradient3688-464-309-9-2-4-2-3"
       id="radialGradient4201"
       gradientUnits="userSpaceOnUse"
       gradientTransform="matrix(3.1638751,0,0,0.99999998,-44.614629,-123.4099)"
       cx="4.9929786"
       cy="43.5"
       fx="4.9929786"
       fy="43.5"
       r="2.5" />
    <linearGradient
       inkscape:collect="always"
       xlink:href="#linearGradient3702-501-757-8-4-1-1-4"
       id="linearGradient4203"
       gradientUnits="userSpaceOnUse"
       gradientTransform="matrix(1.5789502,0,0,0.7142857,13.016883,48.838474)"
       x1="25.058096"
       y1="47.027729"
       x2="25.058096"
       y2="39.999443" />
    <linearGradient
       inkscape:collect="always"
       xlink:href="#linearGradient3988-5"
       id="linearGradient4205"
       gradientUnits="userSpaceOnUse"
       gradientTransform="matrix(1.5428538,0,0,-0.93431845,-5.028491,53.357)"
       x1="24"
       y1="-8.7154436"
       x2="24"
       y2="59.783684" />
  </defs>
  <metadata
     id="metadata4166">
    <rdf:RDF>
      <cc:Work
         rdf:about="">
        <dc:format>image/svg+xml</dc:format>
        <dc:type
           rdf:resource="http://purl.org/dc/dcmitype/StillImage" />
        <dc:title />
      </cc:Work>
    </rdf:RDF>
  </metadata>
  <g
     inkscape:groupmode="layer"
     id="layer1"
     inkscape:label="Background"
     style="display:inline">
    <g
       transform="matrix(0.98480775,0.17364818,-0.17364818,0.98480775,6.12962,-4.0630022)"
       id="g4165">
      <g
         id="g4167"
         transform="translate(-18.911688,-28.409905)">
        <rect
           style="opacity:0.6;fill:url(#radialGradient4199);fill-opacity:1;stroke:none;display:inline"
           id="rect4169"
           y="77.409904"
           x="73.016991"
           height="5"
           width="7.8947511" />
        <rect
           style="opacity:0.6;fill:url(#radialGradient4201);fill-opacity:1;stroke:none;display:inline"
           id="rect4171"
           transform="scale(-1,-1)"
           y="-82.409904"
           x="-28.806385"
           height="5"
           width="7.8947511" />
        <rect
           style="opacity:0.6;fill:url(#linearGradient4203);fill-opacity:1;stroke:none;display:inline"
           id="rect4173"
           y="77.409904"
           x="28.806385"
           height="5.0000005"
           width="44.210606" />
      </g>
      <path
         style="font-size:medium;font-style:normal;font-variant:normal;font-weight:normal;font-stretch:normal;text-indent:0;text-align:start;text-decoration:none;line-height:normal;letter-spacing:normal;word-spacing:normal;text-transform:none;direction:ltr;block-progression:tb;writing-mode:lr-tb;text-anchor:start;baseline-shift:baseline;opacity:0.35;color:#000000;fill:#000000;fill-opacity:1;stroke:none;stroke-width:2;marker:none;visibility:visible;display:inline;overflow:visible;enable-background:accumulate;font-family:Sans;-inkscape-font-specification:Sans"
         d="M 4.90625,11 C 4.4146662,11.04633 3.9978709,11.506242 4,12 l 0,39 c 5.24e-5,0.523584 0.4764155,0.999948 1,1 l 54,0 c 0.523584,-5.2e-5 0.999948,-0.476416 1,-1 l 0,-39 c -5.2e-5,-0.523584 -0.476416,-0.999948 -1,-1 L 5,11 C 4.968773,10.9985 4.937477,10.9985 4.90625,11 z M 6,13 58,13 58,50 6,50 z"
         id="path4175"
         inkscape:connector-curvature="0"
         sodipodi:nodetypes="ccccccccccccccc" />
      <path
         style="fill:url(#linearGradient4205);fill-opacity:1;stroke:none;display:inline"
         id="path4177"
         inkscape:connector-curvature="0"
         d="m 58.999941,50.997 6e-5,-38.997 c 0,0 -36.000002,0 -54.000002,0 0,14.33332 1e-6,39 1e-6,39 z"
         sodipodi:nodetypes="ccccc" />
      <path
         inkscape:connector-curvature="0"
         style="opacity:0.4;fill:#ffffff;fill-opacity:1;stroke:none;display:inline"
         d="m 5,12 0,1 54,0 0,-1 z"
         id="path4179"
         sodipodi:nodetypes="ccccc" />
      <path
         inkscape:connector-curvature="0"
         style="opacity:0.4;fill:#ffffff;fill-opacity:1;stroke:none;display:inline"
         d="m 5,12 0,39 54,0 0,-39 -54,0 z m 1,1 52,0 0,37 -52,0 0,-37 z"
         id="path4181" />
      <g
         transform="matrix(1.3333333,0,0,1.3333333,-0.66666978,-0.50048437)"
         id="g4183">
        <path
           sodipodi:nodetypes="ccccccccccccc"
           inkscape:connector-curvature="0"
           id="path4185"
           d="M 6.4999998,11.799768 19.100127,23.696803 7.4000121,35.2 19.803207,24.287398 23.9096,27.774921 24.5,28.280736 25.0904,27.774921 29.196791,24.287398 41.599987,35.2 29.899872,23.696803 42.5,11.799768 24.49982,25.918749 z"
           style="font-size:medium;font-style:normal;font-variant:normal;font-weight:normal;font-stretch:normal;text-indent:0;text-align:start;text-decoration:none;line-height:normal;letter-spacing:normal;word-spacing:normal;text-transform:none;direction:ltr;block-progression:tb;writing-mode:lr-tb;text-anchor:start;baseline-shift:baseline;color:#000000;fill:#ffffff;fill-opacity:1;stroke:none;stroke-width:1px;marker:none;visibility:visible;display:inline;overflow:visible;enable-background:accumulate;font-family:Sans;-inkscape-font-specification:Sans" />
        <path
           style="font-size:medium;font-style:normal;font-variant:normal;font-weight:normal;font-stretch:normal;text-indent:0;text-align:start;text-decoration:none;line-height:normal;letter-spacing:normal;word-spacing:normal;text-transform:none;direction:ltr;block-progression:tb;writing-mode:lr-tb;text-anchor:start;baseline-shift:baseline;color:#000000;fill:#999999;fill-opacity:1;stroke:none;stroke-width:1px;marker:none;visibility:visible;display:inline;overflow:visible;enable-background:accumulate;font-family:Sans;-inkscape-font-specification:Sans"
           d="M 6.4999998,12.799884 19.100127,24.696919 7.4000121,36.200116 19.803207,25.287514 23.9096,28.775037 24.5,29.280852 25.0904,28.775037 29.196791,25.287514 41.599987,36.200116 29.899872,24.696919 42.5,12.799884 24.49982,26.918865 z"
           id="path4187"
           inkscape:connector-curvature="0"
           sodipodi:nodetypes="ccccccccccccc" />
        <path
           style="font-size:medium;font-style:normal;font-variant:normal;font-weight:normal;font-stretch:normal;text-indent:0;text-align:start;text-decoration:none;line-height:normal;letter-spacing:normal;word-spacing:normal;text-transform:none;direction:ltr;block-progression:tb;writing-mode:lr-tb;text-anchor:start;baseline-shift:baseline;color:#000000;fill:#ffffff;fill-opacity:1;stroke:none;stroke-width:1px;marker:none;visibility:visible;display:inline;overflow:visible;enable-background:accumulate;font-family:Sans;-inkscape-font-specification:Sans"
           d="m 18.46875,25.171875 -11.15625,-11 9.53125,8.375 2.15625,2.125 z m 11.875,0 -0.53125,-0.5 2.15625,-2.125 9.53125,-8.375 z"
           id="path4189"
           inkscape:connector-curvature="0"
           sodipodi:nodetypes="cccccccccc" />
      </g>
    </g>
    <g
       id="g4135"
       transform="translate(0,1)">
      <g
         transform="translate(-18.911688,-28.409905)"
         id="g4245">
        <rect
           width="7.8947511"
           height="5"
           x="73.016991"
           y="77.409904"
           id="rect2801-5-5-7-9"
           style="opacity:0.6;fill:url(#radialGradient4157);fill-opacity:1;stroke:none;display:inline" />
        <rect
           width="7.8947511"
           height="5"
           x="-28.806385"
           y="-82.409904"
           transform="scale(-1,-1)"
           id="rect3696-3-0-3-7"
           style="opacity:0.6;fill:url(#radialGradient4159);fill-opacity:1;stroke:none;display:inline" />
        <rect
           width="44.210606"
           height="5.0000005"
           x="28.806385"
           y="77.409904"
           id="rect3700-5-6-8-4"
           style="opacity:0.6;fill:url(#linearGradient4161);fill-opacity:1;stroke:none;display:inline" />
      </g>
      <path
         sodipodi:nodetypes="ccccccccccccccc"
         inkscape:connector-curvature="0"
         id="path4059"
         d="M 4.90625,11 C 4.4146662,11.04633 3.9978709,11.506242 4,12 l 0,39 c 5.24e-5,0.523584 0.4764155,0.999948 1,1 l 54,0 c 0.523584,-5.2e-5 0.999948,-0.476416 1,-1 l 0,-39 c -5.2e-5,-0.523584 -0.476416,-0.999948 -1,-1 L 5,11 C 4.968773,10.9985 4.937477,10.9985 4.90625,11 z M 6,13 58,13 58,50 6,50 z"
         style="font-size:medium;font-style:normal;font-variant:normal;font-weight:normal;font-stretch:normal;text-indent:0;text-align:start;text-decoration:none;line-height:normal;letter-spacing:normal;word-spacing:normal;text-transform:none;direction:ltr;block-progression:tb;writing-mode:lr-tb;text-anchor:start;baseline-shift:baseline;opacity:0.35;color:#000000;fill:#000000;fill-opacity:1;stroke:none;stroke-width:2;marker:none;visibility:visible;display:inline;overflow:visible;enable-background:accumulate;font-family:Sans;-inkscape-font-specification:Sans" />
      <path
         sodipodi:nodetypes="ccccc"
         d="m 58.999941,50.997 6e-5,-38.997 c 0,0 -36.000002,0 -54.000002,0 0,14.33332 1e-6,39 1e-6,39 z"
         inkscape:connector-curvature="0"
         id="path4160-9-48"
         style="fill:url(#linearGradient4163);fill-opacity:1;stroke:none;display:inline" />
      <path
         sodipodi:nodetypes="ccccc"
         id="path4078"
         d="m 5,12 0,1 54,0 0,-1 z"
         style="opacity:0.4;fill:#ffffff;fill-opacity:1;stroke:none;display:inline"
         inkscape:connector-curvature="0" />
      <path
         id="path3349"
         d="m 5,12 0,39 54,0 0,-39 -54,0 z m 1,1 52,0 0,37 -52,0 0,-37 z"
         style="opacity:0.4;fill:#ffffff;fill-opacity:1;stroke:none;display:inline"
         inkscape:connector-curvature="0" />
      <g
         id="g3350"
         transform="matrix(1.3333333,0,0,1.3333333,-0.66666978,-0.50048437)">
        <path
           style="font-size:medium;font-style:normal;font-variant:normal;font-weight:normal;font-stretch:normal;text-indent:0;text-align:start;text-decoration:none;line-height:normal;letter-spacing:normal;word-spacing:normal;text-transform:none;direction:ltr;block-progression:tb;writing-mode:lr-tb;text-anchor:start;baseline-shift:baseline;color:#000000;fill:#ffffff;fill-opacity:1;stroke:none;stroke-width:1px;marker:none;visibility:visible;display:inline;overflow:visible;enable-background:accumulate;font-family:Sans;-inkscape-font-specification:Sans"
           d="M 6.4999998,12.02349 19.100127,23.920525 7.4000121,35.423722 19.803207,24.51112 23.9096,27.998643 24.5,28.504458 25.0904,27.998643 29.196791,24.51112 41.599987,35.423722 29.899872,23.920525 42.5,12.02349 24.49982,26.142471 z"
           id="path4917"
           inkscape:connector-curvature="0"
           sodipodi:nodetypes="ccccccccccccc" />
        <path
           sodipodi:nodetypes="ccccccccccccc"
           inkscape:connector-curvature="0"
           id="path3886"
           d="M 6.4999998,12.799884 19.100127,24.696919 7.4000121,36.200116 19.803207,25.287514 23.9096,28.775037 24.5,29.280852 25.0904,28.775037 29.196791,25.287514 41.599987,36.200116 29.899872,24.696919 42.5,12.799884 24.49982,26.918865 z"
           style="font-size:medium;font-style:normal;font-variant:normal;font-weight:normal;font-stretch:normal;text-indent:0;text-align:start;text-decoration:none;line-height:normal;letter-spacing:normal;word-spacing:normal;text-transform:none;direction:ltr;block-progression:tb;writing-mode:lr-tb;text-anchor:start;baseline-shift:baseline;color:#000000;fill:#999999;fill-opacity:1;stroke:none;stroke-width:1px;marker:none;visibility:visible;display:inline;overflow:visible;enable-background:accumulate;font-family:Sans;-inkscape-font-specification:Sans" />
        <path
           sodipodi:nodetypes="cccccccccc"
           inkscape:connector-curvature="0"
           id="path4091"
           d="m 18.559896,25.180161 -11.1562456,-11 9.5312456,8.375 2.15625,2.125 z m 11.59375,0 -0.53125,-0.5 2.15625,-2.125 9.53125,-8.375 z"
           style="font-size:medium;font-style:normal;font-variant:normal;font-weight:normal;font-stretch:normal;text-indent:0;text-align:start;text-decoration:none;line-height:normal;letter-spacing:normal;word-spacing:normal;text-transform:none;direction:ltr;block-progression:tb;writing-mode:lr-tb;text-anchor:start;baseline-shift:baseline;color:#000000;fill:#ffffff;fill-opacity:1;stroke:none;stroke-width:1px;marker:none;visibility:visible;display:inline;overflow:visible;enable-background:accumulate;font-family:Sans;-inkscape-font-specification:Sans" />
      </g>
    </g>
  </g>
  <g
     inkscape:groupmode="layer"
     id="layer2"
     inkscape:label="Symbol"
     style="display:inline">
    <g
       id="g4517"
       transform="matrix(0.98480775,-0.17364818,0.17364818,0.98480775,-8.7229303,7.0176915)">
      <g
         transform="matrix(0.8947368,0,0,0.7857142,25.549316,26.690148)"
         style="opacity:0.2"
         id="g8795">
        <rect
           y="40"
           x="38"
           width="5"
           style="fill:url(#radialGradient4549);fill-opacity:1;stroke:none"
           id="rect8797"
           height="7" />
        <rect
           y="-47"
           x="-10"
           width="5"
           transform="scale(-1,-1)"
           style="fill:url(#radialGradient4551);fill-opacity:1;stroke:none"
           id="rect8799"
           height="7" />
        <rect
           y="40"
           x="10"
           width="28"
           style="fill:url(#linearGradient4553);fill-opacity:1;stroke:none"
           id="rect8801"
           height="7.0000005" />
      </g>
      <path
         d="m 32.523,61.618716 0,-3 0.53125,0 c 0.259687,0 0.46875,-0.209063 0.46875,-0.46875 l 0,-1.0625 c 0,-0.259687 -0.209063,-0.46875 -0.46875,-0.46875 l -0.53125,0 0,-2 0.53125,0 c 0.259687,0 0.46875,-0.209063 0.46875,-0.46875 l 0,-1.0625 c 0,-0.259687 -0.209063,-0.46875 -0.46875,-0.46875 l -0.53125,0 0,-2 0.53125,0 c 0.259687,0 0.46875,-0.209063 0.46875,-0.46875 l 0,-1.0625 c 0,-0.259687 -0.209063,-0.46875 -0.46875,-0.46875 l -0.53125,0 0,-2 0.53125,0 c 0.259687,0 0.46875,-0.209063 0.46875,-0.46875 l 0,-1.0625 c 0,-0.259687 -0.209063,-0.46875 -0.46875,-0.46875 l -0.53125,0 0,-2 0.53125,0 c 0.259687,0 0.46875,-0.209063 0.46875,-0.46875 l 0,-1.0625 c 0,-0.259688 -0.209063,-0.46875 -0.46875,-0.46875 l -0.53125,0 0,-2 0.53125,0 c 0.259687,0 0.46875,-0.209062 0.46875,-0.46875 l 0,-1.0625 c 0,-0.259688 -0.209063,-0.46875 -0.46875,-0.46875 l -0.53125,0 0,-4 4,0 0,0.53125 c 0,0.259688 0.209063,0.46875 0.46875,0.46875 l 1.0625,0 c 0.259687,0 0.46875,-0.209062 0.46875,-0.46875 l 0,-0.53125 2,0 0,0.53125 c 0,0.259688 0.209063,0.46875 0.46875,0.46875 l 1.0625,0 c 0.259687,0 0.46875,-0.209062 0.46875,-0.46875 l 0,-0.53125 2,0 0,0.53125 c 0,0.259688 0.209063,0.46875 0.46875,0.46875 l 1.0625,0 c 0.259687,0 0.46875,-0.209062 0.46875,-0.46875 l 0,-0.53125 2,0 0,0.53125 c 0,0.259688 0.209063,0.46875 0.46875,0.46875 l 1.0625,0 c 0.259687,0 0.46875,-0.209062 0.46875,-0.46875 l 0,-0.53125 2,0 0,0.53125 c 0,0.259688 0.209063,0.46875 0.46875,0.46875 l 1.0625,0 c 0.259687,0 0.46875,-0.209062 0.46875,-0.46875 l 0,-0.53125 2,0 0,0.53125 c 0,0.259688 0.209063,0.46875 0.46875,0.46875 l 1.0625,0 c 0.259687,0 0.46875,-0.209062 0.46875,-0.46875 l 0,-0.53125 3,0 0,3 -0.53125,0 c -0.259687,0 -0.46875,0.209062 -0.46875,0.46875 l 0,1.0625 c 0,0.259688 0.209063,0.46875 0.46875,0.46875 l 0.53125,0 0,2 -0.53125,0 c -0.259687,0 -0.46875,0.209062 -0.46875,0.46875 l 0,1.0625 c 0,0.259687 0.209063,0.46875 0.46875,0.46875 l 0.53125,0 0,2 -0.53125,0 c -0.259687,0 -0.46875,0.209063 -0.46875,0.46875 l 0,1.0625 c 0,0.259687 0.209063,0.46875 0.46875,0.46875 l 0.53125,0 0,2 -0.53125,0 c -0.259687,0 -0.46875,0.209063 -0.46875,0.46875 l 0,1.0625 c 0,0.259687 0.209063,0.46875 0.46875,0.46875 l 0.53125,0 0,2 -0.53125,0 c -0.259687,0 -0.46875,0.209063 -0.46875,0.46875 l 0,1.0625 c 0,0.259687 0.209063,0.46875 0.46875,0.46875 l 0.53125,0 0,2 -0.53125,0 c -0.259687,0 -0.46875,0.209063 -0.46875,0.46875 l 0,1.0625 c 0,0.259687 0.209063,0.46875 0.46875,0.46875 l 0.53125,0 0,4 -4,0 0,-0.53125 c 0,-0.259687 -0.209063,-0.46875 -0.46875,-0.46875 l -1.0625,0 c -0.259687,0 -0.46875,0.209063 -0.46875,0.46875 l 0,0.53125 -2,0 0,-0.53125 c 0,-0.259687 -0.209063,-0.46875 -0.46875,-0.46875 l -1.0625,0 c -0.259687,0 -0.46875,0.209063 -0.46875,0.46875 l 0,0.53125 -2,0 0,-0.53125 c 0,-0.259687 -0.209063,-0.46875 -0.46875,-0.46875 l -1.0625,0 c -0.259687,0 -0.46875,0.209063 -0.46875,0.46875 l 0,0.53125 -2,0 0,-0.53125 c 0,-0.259687 -0.209063,-0.46875 -0.46875,-0.46875 l -1.0625,0 c -0.259687,0 -0.46875,0.209063 -0.46875,0.46875 l 0,0.53125 -2,0 0,-0.53125 c 0,-0.259687 -0.209063,-0.46875 -0.46875,-0.46875 l -1.0625,0 c -0.259687,0 -0.46875,0.209063 -0.46875,0.46875 l 0,0.53125 -2,0 0,-0.53125 c 0,-0.259687 -0.209063,-0.46875 -0.46875,-0.46875 l -1.0625,0 c -0.259687,0 -0.46875,0.209063 -0.46875,0.46875 l 0,0.53125 -3,0 z"
         id="path8746"
         sodipodi:nodetypes="ccccccccccccccccccccccccccccccccccccccccccccccccccccccccccccccccccccccccccccccccccccccccccccccccccccccccccccccccccccccccccccccccccccccccccccccccccccc"
         style="fill:url(#linearGradient4555);fill-opacity:1;stroke:none"
         inkscape:connector-curvature="0" />
      <rect
         height="22"
         id="rect8651"
         rx="1.0229988"
         ry="1"
         style="fill:url(#linearGradient4557);fill-opacity:1;stroke:none"
         width="22"
         x="36.022999"
         y="36" />
      <rect
         height="18.998215"
         id="rect8657"
         style="opacity:0.2;fill:none;stroke:#ffffff;stroke-width:0.99999976;stroke-linecap:round;stroke-linejoin:miter;stroke-miterlimit:4;stroke-opacity:1;stroke-dasharray:none;stroke-dashoffset:0.7"
         width="18.992756"
         x="37.527534"
         y="37.618717" />
      <path
         inkscape:connector-curvature="0"
         style="opacity:0.41000001;fill:none;stroke:#000000;stroke-width:1;stroke-linecap:round;stroke-linejoin:miter;stroke-miterlimit:4;stroke-opacity:1;stroke-dasharray:none;stroke-dashoffset:0.7"
         sodipodi:nodetypes="ccccccccccccccccccccccccccccccccccccccccccccccccccccccccccccccccccccccccccccccccccccccccccccccccccccccccccccccccccccccccccccccccccccccccccccccccccccc"
         id="path4450"
         d="m 32.523,61.618716 0,-3 0.53125,0 c 0.259687,0 0.46875,-0.209063 0.46875,-0.46875 l 0,-1.0625 c 0,-0.259687 -0.209063,-0.46875 -0.46875,-0.46875 l -0.53125,0 0,-2 0.53125,0 c 0.259687,0 0.46875,-0.209063 0.46875,-0.46875 l 0,-1.0625 c 0,-0.259687 -0.209063,-0.46875 -0.46875,-0.46875 l -0.53125,0 0,-2 0.53125,0 c 0.259687,0 0.46875,-0.209063 0.46875,-0.46875 l 0,-1.0625 c 0,-0.259687 -0.209063,-0.46875 -0.46875,-0.46875 l -0.53125,0 0,-2 0.53125,0 c 0.259687,0 0.46875,-0.209063 0.46875,-0.46875 l 0,-1.0625 c 0,-0.259687 -0.209063,-0.46875 -0.46875,-0.46875 l -0.53125,0 0,-2 0.53125,0 c 0.259687,0 0.46875,-0.209063 0.46875,-0.46875 l 0,-1.0625 c 0,-0.259688 -0.209063,-0.46875 -0.46875,-0.46875 l -0.53125,0 0,-2 0.53125,0 c 0.259687,0 0.46875,-0.209062 0.46875,-0.46875 l 0,-1.0625 c 0,-0.259688 -0.209063,-0.46875 -0.46875,-0.46875 l -0.53125,0 0,-4 4,0 0,0.53125 c 0,0.259688 0.209063,0.46875 0.46875,0.46875 l 1.0625,0 c 0.259687,0 0.46875,-0.209062 0.46875,-0.46875 l 0,-0.53125 2,0 0,0.53125 c 0,0.259688 0.209063,0.46875 0.46875,0.46875 l 1.0625,0 c 0.259687,0 0.46875,-0.209062 0.46875,-0.46875 l 0,-0.53125 2,0 0,0.53125 c 0,0.259688 0.209063,0.46875 0.46875,0.46875 l 1.0625,0 c 0.259687,0 0.46875,-0.209062 0.46875,-0.46875 l 0,-0.53125 2,0 0,0.53125 c 0,0.259688 0.209063,0.46875 0.46875,0.46875 l 1.0625,0 c 0.259687,0 0.46875,-0.209062 0.46875,-0.46875 l 0,-0.53125 2,0 0,0.53125 c 0,0.259688 0.209063,0.46875 0.46875,0.46875 l 1.0625,0 c 0.259687,0 0.46875,-0.209062 0.46875,-0.46875 l 0,-0.53125 2,0 0,0.53125 c 0,0.259688 0.209063,0.46875 0.46875,0.46875 l 1.0625,0 c 0.259687,0 0.46875,-0.209062 0.46875,-0.46875 l 0,-0.53125 3,0 0,3 -0.53125,0 c -0.259687,0 -0.46875,0.209062 -0.46875,0.46875 l 0,1.0625 c 0,0.259688 0.209063,0.46875 0.46875,0.46875 l 0.53125,0 0,2 -0.53125,0 c -0.259687,0 -0.46875,0.209062 -0.46875,0.46875 l 0,1.0625 c 0,0.259687 0.209063,0.46875 0.46875,0.46875 l 0.53125,0 0,2 -0.53125,0 c -0.259687,0 -0.46875,0.209063 -0.46875,0.46875 l 0,1.0625 c 0,0.259687 0.209063,0.46875 0.46875,0.46875 l 0.53125,0 0,2 -0.53125,0 c -0.259687,0 -0.46875,0.209063 -0.46875,0.46875 l 0,1.0625 c 0,0.259687 0.209063,0.46875 0.46875,0.46875 l 0.53125,0 0,2 -0.53125,0 c -0.259687,0 -0.46875,0.209063 -0.46875,0.46875 l 0,1.0625 c 0,0.259687 0.209063,0.46875 0.46875,0.46875 l 0.53125,0 0,2 -0.53125,0 c -0.259687,0 -0.46875,0.209063 -0.46875,0.46875 l 0,1.0625 c 0,0.259687 0.209063,0.46875 0.46875,0.46875 l 0.53125,0 0,4 -4,0 0,-0.53125 c 0,-0.259687 -0.209063,-0.46875 -0.46875,-0.46875 l -1.0625,0 c -0.259687,0 -0.46875,0.209063 -0.46875,0.46875 l 0,0.53125 -2,0 0,-0.53125 c 0,-0.259687 -0.209063,-0.46875 -0.46875,-0.46875 l -1.0625,0 c -0.259687,0 -0.46875,0.209063 -0.46875,0.46875 l 0,0.53125 -2,0 0,-0.53125 c 0,-0.259687 -0.209063,-0.46875 -0.46875,-0.46875 l -1.0625,0 c -0.259687,0 -0.46875,0.209063 -0.46875,0.46875 l 0,0.53125 -2,0 0,-0.53125 c 0,-0.259687 -0.209063,-0.46875 -0.46875,-0.46875 l -1.0625,0 c -0.259687,0 -0.46875,0.209063 -0.46875,0.46875 l 0,0.53125 -2,0 0,-0.53125 c 0,-0.259687 -0.209063,-0.46875 -0.46875,-0.46875 l -1.0625,0 c -0.259687,0 -0.46875,0.209063 -0.46875,0.46875 l 0,0.53125 -2,0 0,-0.53125 c 0,-0.259687 -0.209063,-0.46875 -0.46875,-0.46875 l -1.0625,0 c -0.259687,0 -0.46875,0.209063 -0.46875,0.46875 l 0,0.53125 -3,0 z" />
      <rect
         clip-path="url(#clipPath4456)"
         y="36"
         x="36.022999"
         width="22"
         style="opacity:0.1;fill:none;stroke:#000000;stroke-width:2;stroke-miterlimit:4;stroke-opacity:1;stroke-dasharray:none"
         ry="1"
         rx="1.0229988"
         id="rect4452"
         height="22" />
      <g
         clip-path="url(#clipPath4552)"
         transform="matrix(1.0427668,0,0,1.0427668,-8.7022043,10.079582)"
         id="g4528">
        <path
           style="font-size:medium;font-style:normal;font-variant:normal;font-weight:normal;font-stretch:normal;text-indent:0;text-align:start;text-decoration:none;line-height:normal;letter-spacing:normal;word-spacing:normal;text-transform:none;direction:ltr;block-progression:tb;writing-mode:lr-tb;text-anchor:start;baseline-shift:baseline;opacity:0.1;color:#000000;fill:#fed8cd;fill-opacity:1;stroke:none;stroke-width:2;marker:none;visibility:visible;display:inline;overflow:visible;enable-background:new;font-family:Sans;-inkscape-font-specification:Sans"
           d="m 51.625,32.125 c -2.74958,0 -5,2.25042 -5,5 0,2.74958 2.25042,5 5,5 2.74958,0 5,-2.25042 5,-5 0,-2.74958 -2.25042,-5 -5,-5 z m 0,2 c 1.6687,0 3,1.3313 3,3 0,1.6687 -1.3313,3 -3,3 -1.6687,0 -3,-1.3313 -3,-3 0,-1.6687 1.3313,-3 3,-3 z"
           id="path4086"
           inkscape:connector-curvature="0"
           sodipodi:nodetypes="ssssssssss" />
        <path
           style="font-size:medium;font-style:normal;font-variant:normal;font-weight:normal;font-stretch:normal;text-indent:0;text-align:start;text-decoration:none;line-height:normal;letter-spacing:normal;word-spacing:normal;text-transform:none;direction:ltr;block-progression:tb;writing-mode:lr-tb;text-anchor:start;baseline-shift:baseline;opacity:0.1;color:#000000;fill:#fed8cd;fill-opacity:1;stroke:none;stroke-width:4;marker:none;visibility:visible;display:inline;overflow:visible;enable-background:new;font-family:Sans;-inkscape-font-specification:Sans"
           d="m 51.625,31.125 c -3.29002,0 -6,2.70998 -6,6 0,3.29002 2.70998,6 6,6 3.29002,0 6,-2.70998 6,-6 0,-3.29002 -2.70998,-6 -6,-6 z m 0,4 c 1.12826,0 2,0.87174 2,2 0,1.12826 -0.87174,2 -2,2 -1.12826,0 -2,-0.87174 -2,-2 0,-1.12826 0.87174,-2 2,-2 z"
           id="path4088"
           inkscape:connector-curvature="0"
           sodipodi:nodetypes="ssssssssss" />
        <path
           style="font-size:medium;font-style:normal;font-variant:normal;font-weight:normal;font-stretch:normal;text-indent:0;text-align:start;text-decoration:none;line-height:normal;letter-spacing:normal;word-spacing:normal;text-transform:none;direction:ltr;block-progression:tb;writing-mode:lr-tb;text-anchor:start;baseline-shift:baseline;opacity:0.1;color:#000000;fill:#fed8cd;fill-opacity:1;stroke:none;stroke-width:6;marker:none;visibility:visible;display:inline;overflow:visible;enable-background:new;font-family:Sans;-inkscape-font-specification:Sans"
           d="m 51.625,30.125 c -3.83046,0 -7,3.16954 -7,7 0,3.83046 3.16954,7 7,7 3.83046,0 7,-3.16954 7,-7 0,-3.83046 -3.16954,-7 -7,-7 z m 0,6 c 0.58782,0 1,0.41218 1,1 0,0.58782 -0.41218,1 -1,1 -0.58782,0 -1,-0.41218 -1,-1 0,-0.58782 0.41218,-1 1,-1 z"
           id="path4090-5"
           inkscape:connector-curvature="0"
           sodipodi:nodetypes="ssssssssss" />
        <path
           style="color:#000000;fill:url(#linearGradient4559);fill-opacity:1;fill-rule:evenodd;stroke:none;stroke-width:14;marker:none;visibility:visible;display:inline;overflow:visible;enable-background:new"
           d="m 51.625,33.12502 c 2.20914,0 4,1.79086 4,4 0,2.20914 -1.79086,4 -4,4 -2.20914,0 -4,-1.79086 -4,-4 0,-2.20914 1.79086,-4 4,-4 z"
           id="path4082"
           inkscape:connector-curvature="0"
           sodipodi:nodetypes="sssss" />
        <path
           style="fill:#000000;fill-opacity:1;stroke:none;display:inline"
           d="m 42.625,42.125017 0,-1 c 0,0 2.52394,-1.6666 3.23353,-1.812 0.7096,-0.1454 1.54759,-0.027 2.40882,0.1355 0.86124,0.162 2.14701,0.3811 2.54829,0.3948 0.40129,0.014 1.12747,-0.035 1.97121,-0.086 0.84374,-0.05 2.24079,-0.096 2.67654,-0.091 0.43575,0 1.52358,0.06 2.68316,0.1308 1.15958,0.071 2.75227,0.1896 3.11363,0.2228 0.36137,0.033 0.78614,0.094 1.26819,0.1605 0.48204,0.066 1.31657,0.1657 1.6118,0.1931 0.29522,0.027 0.97966,0.1211 1.7738,0.1942 0.79414,0.073 2.06499,0.098 2.432,0.071 0.36701,-0.027 1.13629,-0.2988 1.99357,-0.5493 0.85728,-0.2504 1.80257,-0.4797 2.5216,-0.423 0.71903,0.057 4.76386,1.4585 4.76386,1.4585 l 0,1 -5.25,0 -4.25,0 -4.25,0 -4.25,0 -4.25,0 -4.25,0 -4.25,0 z"
           id="path4084"
           inkscape:connector-curvature="0"
           sodipodi:nodetypes="cczszszszszszszcccccccccc" />
        <path
           sodipodi:nodetypes="cczszszszszszszcccccccccc"
           inkscape:connector-curvature="0"
           id="path4092"
           d="m 42.625,42.125017 0,0.6525 c 0,0 2.52394,1.0873 3.23353,1.1822 0.7096,0.095 1.54759,0.018 2.40882,-0.088 0.86124,-0.1057 2.14701,-0.2487 2.54829,-0.2576 0.40129,-0.01 1.12747,0.023 1.97121,0.056 0.84374,0.033 2.24079,0.063 2.67654,0.059 0.43575,0 1.52358,-0.039 2.68316,-0.085 1.15958,-0.046 2.75227,-0.1237 3.11363,-0.1453 0.36137,-0.022 0.78614,-0.061 1.26819,-0.1048 0.48204,-0.043 1.31657,-0.108 1.6118,-0.1259 0.29522,-0.018 0.97966,-0.079 1.7738,-0.1268 0.79414,-0.048 2.06499,-0.064 2.432,-0.046 0.36701,0.018 1.13629,0.195 1.99357,0.3584 0.85728,0.1634 1.80257,0.313 2.5216,0.276 0.71903,-0.037 4.76386,-0.9516 4.76386,-0.9516 l 0,-0.6524 -5.25,0 -4.25,0 -4.25,0 -4.25,0 -4.25,0 -4.25,0 -4.25,0 z"
           style="opacity:0.9;fill:#000000;fill-opacity:1;stroke:none;display:inline" />
        <path
           style="opacity:0.3;color:#000000;fill:#4d585e;fill-opacity:1;stroke:none;stroke-width:6;marker:none;visibility:visible;display:inline;overflow:visible;enable-background:new"
           d="m 42.625,42.125 35,0 0,3 -35,0 z"
           id="rect4102"
           inkscape:connector-curvature="0"
           sodipodi:nodetypes="ccccc" />
      </g>
      <path
         inkscape:connector-curvature="0"
         id="path4590"
         d="m 49.620845,38.888766 c -0.41804,4e-6 -0.7606,0.07861 -1.04167,0.208332 -0.27869,0.129728 -0.54581,0.319901 -0.75,0.625003 l 0.83333,0.583334 c 0.0938,-0.141744 0.23325,-0.271694 0.37499,-0.375001 0.14176,-0.103312 0.31824,-0.125008 0.54168,-0.125008 0.2066,5e-6 0.34061,0.03371 0.45832,0.125008 0.11776,0.0913 0.20834,0.218849 0.20834,0.375001 0,0.199405 -0.0682,0.400746 -0.16666,0.583337 -0.0962,0.180186 -0.24129,0.342271 -0.41667,0.541667 -0.17537,0.196998 -0.42808,0.449703 -0.75,0.750001 -0.32192,0.300303 -0.65007,0.629206 -1.04167,0.958336 l 0,0.833335 3.58334,-2e-6 0,-0.916669 -2.25001,0 c 0.0744,-0.05525 0.26381,-0.226125 0.58333,-0.500001 0.32192,-0.273872 0.61953,-0.524172 0.83335,-0.750001 0.21621,-0.228228 0.38467,-0.468091 0.5,-0.708334 0.11776,-0.242641 0.16666,-0.513809 0.16666,-0.833336 0,-0.434832 -0.16044,-0.759757 -0.45834,-1.000002 -0.29549,-0.240239 -0.69423,-0.374996 -1.20834,-0.374995 z m 4.375,0 c -0.55015,4e-6 -0.98416,0.102705 -1.29167,0.333334 -0.3075,0.230636 -0.45834,0.602033 -0.45834,1.041669 0,0.218623 0.0762,0.393547 0.20834,0.583334 0.13456,0.187389 0.31427,0.367868 0.58333,0.500001 -0.28107,0.127328 -0.4985,0.278981 -0.66666,0.500001 -0.16577,0.221021 -0.25,0.496174 -0.25001,0.791667 1e-5,0.482886 0.17328,0.83829 0.5,1.083337 0.32673,0.242642 0.78402,0.375001 1.37501,0.374991 0.59819,3e-6 1.05547,-0.120352 1.37501,-0.375001 0.3219,-0.254655 0.45832,-0.622071 0.45832,-1.083335 0,-0.187386 -0.0128,-0.348648 -0.0834,-0.499999 -0.0672,-0.151344 -0.15952,-0.298948 -0.29166,-0.416668 -0.13217,-0.117728 -0.34873,-0.240466 -0.625,-0.375001 0.23063,-0.127312 0.38707,-0.230028 0.5,-0.333333 0.11296,-0.103297 0.22199,-0.247668 0.29167,-0.375001 0.072,-0.127328 0.12496,-0.267717 0.12496,-0.41667 0,-0.449245 -0.1877,-0.776574 -0.5,-1.000002 -0.31234,-0.223415 -0.71429,-0.33333 -1.25002,-0.333327 z m 0,0.791668 c 0.26667,1e-6 0.46802,0.05856 0.58334,0.166659 0.11536,0.108112 0.16666,0.258114 0.16666,0.416668 0,0.122512 -0.0586,0.215615 -0.16667,0.333334 -0.10816,0.117728 -0.30224,0.252479 -0.58333,0.375 -0.18258,-0.07206 -0.34543,-0.168315 -0.45834,-0.250002 -0.11056,-0.08408 -0.20195,-0.133856 -0.25,-0.208331 -0.048,-0.07447 -0.0416,-0.183562 -0.0416,-0.29167 0,-0.144144 0.0586,-0.266887 0.16666,-0.375001 0.10816,-0.108112 0.29745,-0.166662 0.58334,-0.166667 z m 0,2.041671 c 0.28589,0.134544 0.48806,0.279732 0.62501,0.416668 0.13936,0.136944 0.20832,0.293394 0.20833,0.500001 -1e-5,0.182583 -0.0738,0.333426 -0.20833,0.458334 -0.13216,0.124912 -0.32952,0.166667 -0.62501,0.166667 -0.29551,-1e-6 -0.53213,-0.04656 -0.66668,-0.166666 -0.13456,-0.120112 -0.20833,-0.270948 -0.20832,-0.458335 -1e-5,-0.211412 0.0786,-0.363057 0.20834,-0.5 0.12976,-0.136944 0.36155,-0.28213 0.66667,-0.416668 z"
         style="font-size:5.53513527px;font-style:normal;font-variant:normal;font-weight:bold;font-stretch:normal;line-height:125%;letter-spacing:0px;word-spacing:0px;opacity:0.8;fill:#ffffff;fill-opacity:1;stroke:none;display:inline;font-family:Clear Sans;-inkscape-font-specification:Clear Sans" />
    </g>
  </g>
</svg>
