<?xml version="1.0" encoding="UTF-8" standalone="no"?>
<!-- Created with Inkscape (http://www.inkscape.org/) -->

<svg
   xmlns:dc="http://purl.org/dc/elements/1.1/"
   xmlns:cc="http://creativecommons.org/ns#"
   xmlns:rdf="http://www.w3.org/1999/02/22-rdf-syntax-ns#"
   xmlns:svg="http://www.w3.org/2000/svg"
   xmlns="http://www.w3.org/2000/svg"
   xmlns:xlink="http://www.w3.org/1999/xlink"
   xmlns:sodipodi="http://sodipodi.sourceforge.net/DTD/sodipodi-0.dtd"
   xmlns:inkscape="http://www.inkscape.org/namespaces/inkscape"
   version="1.1"
   width="64"
   height="64"
   id="svg4161"
   inkscape:version="0.48.4 r9939"
   sodipodi:docname="internet-mail.svg">
  <sodipodi:namedview
     pagecolor="#ffffff"
     bordercolor="#666666"
     borderopacity="1"
     objecttolerance="10"
     gridtolerance="10"
     guidetolerance="10"
     inkscape:pageopacity="0"
     inkscape:pageshadow="2"
     inkscape:window-width="1364"
     inkscape:window-height="700"
     id="namedview45"
     showgrid="false"
     showborder="true"
     inkscape:snap-bbox="true"
     inkscape:bbox-paths="true"
     inkscape:bbox-nodes="true"
     inkscape:snap-bbox-edge-midpoints="true"
     inkscape:snap-bbox-midpoints="true"
     inkscape:zoom="1"
     inkscape:cx="21.191326"
     inkscape:cy="18.535086"
     inkscape:window-x="0"
     inkscape:window-y="28"
     inkscape:window-maximized="1"
     inkscape:current-layer="layer1">
    <inkscape:grid
       type="xygrid"
       id="grid3913"
       empspacing="4"
       visible="true"
       enabled="true"
       snapvisiblegridlinesonly="true" />
  </sodipodi:namedview>
  <defs
     id="defs4163">
    <linearGradient
       y2="59.783684"
       x2="24"
       y1="-8.7154436"
       x1="24"
       gradientTransform="matrix(1.5428538,0,0,-0.93431845,-5.028491,55.357)"
       gradientUnits="userSpaceOnUse"
       id="linearGradient3343"
       xlink:href="#linearGradient3988-5"
       inkscape:collect="always" />
    <linearGradient
       id="linearGradient3988-5">
      <stop
         style="stop-color:#ededed;stop-opacity:1;"
         offset="0"
         id="stop3990-5" />
      <stop
         style="stop-color:#ffffff;stop-opacity:1;"
         offset="1"
         id="stop3992-0" />
    </linearGradient>
    <clipPath
       clipPathUnits="userSpaceOnUse"
       id="clipPath4072">
      <path
         sodipodi:nodetypes="ccccc"
         d="m 58.999941,52.997 6e-5,-42.997 c 0,0 -36.000002,0 -54.000002,0 0,14.33332 1e-6,43 1e-6,43 z"
         inkscape:connector-curvature="0"
         id="path4074"
         style="fill:url(#linearGradient4076);fill-opacity:1;stroke:none;display:inline" />
    </clipPath>
    <linearGradient
       inkscape:collect="always"
       xlink:href="#linearGradient3988-5"
       id="linearGradient4076"
       gradientUnits="userSpaceOnUse"
       gradientTransform="matrix(1.5428538,0,0,-0.93431845,-5.028491,55.357)"
       x1="24"
       y1="-8.7154436"
       x2="24"
       y2="59.783684" />
    <linearGradient
       inkscape:collect="always"
       xlink:href="#linearGradient3702-501-757-8-4-1-1-4"
       id="linearGradient3897-8"
       gradientUnits="userSpaceOnUse"
       x1="25.058096"
       y1="47.027729"
       x2="25.058096"
       y2="39.999443"
       gradientTransform="matrix(1.5789502,0,0,0.7142857,13.016883,48.838474)" />
    <linearGradient
       id="linearGradient3702-501-757-8-4-1-1-4">
      <stop
         id="stop2895-8-9-9-1-2"
         style="stop-color:#181818;stop-opacity:0"
         offset="0" />
      <stop
         id="stop2897-7-8-7-7-7"
         style="stop-color:#181818;stop-opacity:1"
         offset="0.5" />
      <stop
         id="stop2899-4-5-1-5-6"
         style="stop-color:#181818;stop-opacity:0"
         offset="1" />
    </linearGradient>
    <radialGradient
       inkscape:collect="always"
       xlink:href="#linearGradient3688-464-309-9-2-4-2-3"
       id="radialGradient3900-4"
       gradientUnits="userSpaceOnUse"
       gradientTransform="matrix(3.1638751,0,0,0.99999998,-44.614629,-123.4099)"
       cx="4.9929786"
       cy="43.5"
       fx="4.9929786"
       fy="43.5"
       r="2.5" />
    <linearGradient
       id="linearGradient3688-464-309-9-2-4-2-3">
      <stop
         id="stop2889-7-9-6-9-1"
         style="stop-color:#181818;stop-opacity:1"
         offset="0" />
      <stop
         id="stop2891-6-6-1-7-0"
         style="stop-color:#181818;stop-opacity:0"
         offset="1" />
    </linearGradient>
    <linearGradient
       id="linearGradient3688-166-749-4-0-3-8-1">
      <stop
         id="stop2883-4-0-1-8-9"
         style="stop-color:#181818;stop-opacity:1"
         offset="0" />
      <stop
         id="stop2885-9-2-9-6-3"
         style="stop-color:#181818;stop-opacity:0"
         offset="1" />
    </linearGradient>
    <radialGradient
       r="2.5"
       fy="43.5"
       fx="4.9929786"
       cy="43.5"
       cx="4.9929786"
       gradientTransform="matrix(3.1638751,0,0,0.99999998,36.297112,-40.999999)"
       gradientUnits="userSpaceOnUse"
       id="radialGradient3086"
       xlink:href="#linearGradient3688-166-749-4-0-3-8-1"
       inkscape:collect="always" />
    <radialGradient
       inkscape:collect="always"
       xlink:href="#linearGradient3688-166-749-4-0-3-8-1"
       id="radialGradient4232"
       gradientUnits="userSpaceOnUse"
       gradientTransform="matrix(3.1638751,0,0,0.99999998,57.208746,36.409903)"
       cx="4.9929786"
       cy="43.5"
       fx="4.9929786"
       fy="43.5"
       r="2.5" />
    <radialGradient
       inkscape:collect="always"
       xlink:href="#linearGradient3688-166-749-4-0-3-8-1"
       id="radialGradient4250"
       gradientUnits="userSpaceOnUse"
       gradientTransform="matrix(3.1638751,0,0,0.99999998,57.208746,36.409903)"
       cx="4.9929786"
       cy="43.5"
       fx="4.9929786"
       fy="43.5"
       r="2.5" />
    <radialGradient
       inkscape:collect="always"
       xlink:href="#linearGradient3688-464-309-9-2-4-2-3"
       id="radialGradient4252"
       gradientUnits="userSpaceOnUse"
       gradientTransform="matrix(3.1638751,0,0,0.99999998,-44.614629,-123.4099)"
       cx="4.9929786"
       cy="43.5"
       fx="4.9929786"
       fy="43.5"
       r="2.5" />
    <linearGradient
       inkscape:collect="always"
       xlink:href="#linearGradient3702-501-757-8-4-1-1-4"
       id="linearGradient4254"
       gradientUnits="userSpaceOnUse"
       gradientTransform="matrix(1.5789502,0,0,0.7142857,13.016883,48.838474)"
       x1="25.058096"
       y1="47.027729"
       x2="25.058096"
       y2="39.999443" />
    <radialGradient
       cx="4.9929786"
       cy="43.5"
       fx="4.9929786"
       fy="43.5"
       gradientTransform="matrix(2.003784,0,0,1.4,27.98813,-17.4)"
       gradientUnits="userSpaceOnUse"
       id="radialGradient8803"
       inkscape:collect="always"
       r="2.5"
       xlink:href="#linearGradient3688" />
    <linearGradient
       id="linearGradient3688"
       inkscape:collect="always">
      <stop
         id="stop3690"
         offset="0"
         style="stop-color:black;stop-opacity:1;" />
      <stop
         id="stop3692"
         offset="1"
         style="stop-color:black;stop-opacity:0;" />
    </linearGradient>
    <radialGradient
       cx="4.9929786"
       cy="43.5"
       fx="4.9929786"
       fy="43.5"
       gradientTransform="matrix(2.003784,0,0,1.4,-20.01187,-104.4)"
       gradientUnits="userSpaceOnUse"
       id="radialGradient8805"
       inkscape:collect="always"
       r="2.5"
       xlink:href="#linearGradient3688" />
    <linearGradient
       gradientUnits="userSpaceOnUse"
       id="linearGradient8807"
       inkscape:collect="always"
       x1="25.058096"
       x2="25.058096"
       xlink:href="#linearGradient3702"
       y1="47.027729"
       y2="39.999443" />
    <linearGradient
       id="linearGradient3702">
      <stop
         id="stop3704"
         offset="0"
         style="stop-color:black;stop-opacity:0;" />
      <stop
         id="stop3710"
         offset="0.5"
         style="stop-color:black;stop-opacity:1;" />
      <stop
         id="stop3706"
         offset="1"
         style="stop-color:black;stop-opacity:0;" />
    </linearGradient>
    <linearGradient
       gradientTransform="translate(46,-4)"
       gradientUnits="userSpaceOnUse"
       id="linearGradient8809"
       inkscape:collect="always"
       x1="-29.375"
       x2="-19.532248"
       xlink:href="#linearGradient8590"
       y1="9.25"
       y2="61.616341" />
    <linearGradient
       id="linearGradient8590"
       inkscape:collect="always">
      <stop
         id="stop8592"
         offset="0"
         style="stop-color:#eeeeec;stop-opacity:1;" />
      <stop
         id="stop8594"
         offset="1"
         style="stop-color:#ffffff;stop-opacity:1" />
    </linearGradient>
    <linearGradient
       gradientTransform="matrix(1.6157247,0,0,1.6197044,127.48592,-1.8429496)"
       gradientUnits="userSpaceOnUse"
       id="linearGradient8811"
       inkscape:collect="always"
       x1="-21.478369"
       x2="-21.478369"
       xlink:href="#linearGradient6394"
       y1="-0.80551612"
       y2="18.005089" />
    <linearGradient
       id="linearGradient6394"
       inkscape:collect="always">
      <stop
         id="stop6396"
         offset="0"
         style="stop-color:#729fcf;stop-opacity:1" />
      <stop
         id="stop6398"
         offset="1"
         style="stop-color:#ffffff;stop-opacity:1" />
    </linearGradient>
    <linearGradient
       gradientTransform="matrix(1.6665145,0,0,3.5,130.99041,-33.499999)"
       gradientUnits="userSpaceOnUse"
       id="linearGradient8813"
       inkscape:collect="always"
       x1="-21.03125"
       x2="-21.03125"
       xlink:href="#linearGradient6754"
       y1="16.187811"
       y2="14.13769" />
    <linearGradient
       id="linearGradient6754"
       inkscape:collect="always">
      <stop
         id="stop6756"
         offset="0"
         style="stop-color:#729fcf;stop-opacity:1" />
      <stop
         id="stop6758"
         offset="1"
         style="stop-color:#729fcf;stop-opacity:0" />
    </linearGradient>
    <radialGradient
       cx="22.010408"
       cy="22.717514"
       fx="22.010408"
       fy="22.717514"
       gradientTransform="matrix(3.0016277,0,0,1.3116125,-44.056643,-7.0790611)"
       gradientUnits="userSpaceOnUse"
       id="radialGradient8815"
       inkscape:collect="always"
       r="14"
       xlink:href="#linearGradient8758" />
    <linearGradient
       id="linearGradient8758"
       inkscape:collect="always">
      <stop
         id="stop8760"
         offset="0"
         style="stop-color:#ffffff;stop-opacity:1;" />
      <stop
         id="stop8762"
         offset="1"
         style="stop-color:#ffffff;stop-opacity:0;" />
    </linearGradient>
    <linearGradient
       id="outerBackgroundGradient-9">
      <stop
         style="stop-color:#8c166c;stop-opacity:1;"
         offset="0"
         id="stop3864-8-6-6" />
      <stop
         id="stop4409-9"
         offset="0.36206895"
         style="stop-color:#ca3561;stop-opacity:1;" />
      <stop
         style="stop-color:#f38f4e;stop-opacity:1;"
         offset="1"
         id="stop3866-9-1-1" />
    </linearGradient>
    <linearGradient
       y2="18.005089"
       x2="-21.478369"
       y1="-0.80551612"
       x1="-21.478369"
       gradientTransform="matrix(1.0769229,0,0,1.0769229,89.837817,52.791972)"
       gradientUnits="userSpaceOnUse"
       id="linearGradient3245"
       xlink:href="#outerBackgroundGradient-9"
       inkscape:collect="always" />
    <linearGradient
       inkscape:collect="always"
       xlink:href="#linearGradient8590"
       id="linearGradient4415"
       gradientUnits="userSpaceOnUse"
       gradientTransform="translate(46,-4)"
       x1="-29.375"
       y1="9.25"
       x2="-19.532248"
       y2="61.616341" />
    <linearGradient
       inkscape:collect="always"
       xlink:href="#linearGradient6394"
       id="linearGradient4417"
       gradientUnits="userSpaceOnUse"
       gradientTransform="matrix(1.6157247,0,0,1.6197044,127.48592,-1.8429496)"
       x1="-21.478369"
       y1="-0.80551612"
       x2="-21.478369"
       y2="18.005089" />
    <linearGradient
       inkscape:collect="always"
       xlink:href="#linearGradient6754"
       id="linearGradient4419"
       gradientUnits="userSpaceOnUse"
       gradientTransform="matrix(1.6665145,0,0,3.5,130.99041,-33.499999)"
       x1="-21.03125"
       y1="16.187811"
       x2="-21.03125"
       y2="14.13769" />
    <linearGradient
       inkscape:collect="always"
       xlink:href="#linearGradient6754"
       id="linearGradient4426"
       gradientUnits="userSpaceOnUse"
       gradientTransform="matrix(1.6665145,0,0,3.5,162.01341,-2.381283)"
       x1="-21.03125"
       y1="16.187811"
       x2="-21.03125"
       y2="14.13769" />
    <linearGradient
       inkscape:collect="always"
       xlink:href="#outerBackgroundGradient-9"
       id="linearGradient4430"
       gradientUnits="userSpaceOnUse"
       gradientTransform="matrix(1.6923075,0,0,1.6963854,163.79222,28.313253)"
       x1="-21.478369"
       y1="-0.80551612"
       x2="-21.478369"
       y2="18.005089" />
    <linearGradient
       inkscape:collect="always"
       xlink:href="#linearGradient8590"
       id="linearGradient4433"
       gradientUnits="userSpaceOnUse"
       gradientTransform="translate(77.023,27.118716)"
       x1="-29.375"
       y1="9.25"
       x2="-19.532248"
       y2="61.616341" />
    <clipPath
       clipPathUnits="userSpaceOnUse"
       id="clipPath4456">
      <rect
         height="22"
         id="rect4458"
         rx="1.0229988"
         ry="1"
         style="fill:url(#linearGradient4460);fill-opacity:1;stroke:none"
         width="22"
         x="36.022999"
         y="36" />
    </clipPath>
    <linearGradient
       inkscape:collect="always"
       xlink:href="#outerBackgroundGradient-9"
       id="linearGradient4460"
       gradientUnits="userSpaceOnUse"
       gradientTransform="matrix(1.6923075,0,0,1.6963854,163.79222,28.313253)"
       x1="-21.478369"
       y1="-0.80551612"
       x2="-21.478369"
       y2="18.005089" />
    <clipPath
       clipPathUnits="userSpaceOnUse"
       id="clipPath4552">
      <rect
         style="opacity:0.2;fill:#000000;fill-opacity:1;stroke:none"
         id="rect4554"
         width="21.097717"
         height="21.097717"
         x="42.891773"
         y="24.010498"
         rx="0" />
    </clipPath>
    <linearGradient
       inkscape:collect="always"
       xlink:href="#linearGradient4094-8"
       id="linearGradient3271"
       gradientUnits="userSpaceOnUse"
       gradientTransform="matrix(0,-1,1,0,-208.375,365.12502)"
       x1="324"
       y1="260"
       x2="332"
       y2="260" />
    <linearGradient
       id="linearGradient4094-8">
      <stop
         style="stop-color:#e28192;stop-opacity:1;"
         offset="0"
         id="stop4096-0" />
      <stop
         id="stop4317-3"
         offset="0.25862068"
         style="stop-color:#f7d6c7;stop-opacity:1;" />
      <stop
         style="stop-color:#fffee4;stop-opacity:1;"
         offset="1"
         id="stop4098-7" />
    </linearGradient>
    <radialGradient
       inkscape:collect="always"
       xlink:href="#linearGradient3688"
       id="radialGradient4549"
       gradientUnits="userSpaceOnUse"
       gradientTransform="matrix(2.003784,0,0,1.4,27.98813,-17.4)"
       cx="4.9929786"
       cy="43.5"
       fx="4.9929786"
       fy="43.5"
       r="2.5" />
    <radialGradient
       inkscape:collect="always"
       xlink:href="#linearGradient3688"
       id="radialGradient4551"
       gradientUnits="userSpaceOnUse"
       gradientTransform="matrix(2.003784,0,0,1.4,-20.01187,-104.4)"
       cx="4.9929786"
       cy="43.5"
       fx="4.9929786"
       fy="43.5"
       r="2.5" />
    <linearGradient
       inkscape:collect="always"
       xlink:href="#linearGradient3702"
       id="linearGradient4553"
       gradientUnits="userSpaceOnUse"
       x1="25.058096"
       y1="47.027729"
       x2="25.058096"
       y2="39.999443" />
    <linearGradient
       inkscape:collect="always"
       xlink:href="#linearGradient8590"
       id="linearGradient4555"
       gradientUnits="userSpaceOnUse"
       gradientTransform="translate(77.023,27.118716)"
       x1="-29.375"
       y1="9.25"
       x2="-19.532248"
       y2="61.616341" />
    <linearGradient
       inkscape:collect="always"
       xlink:href="#linearGradient4113"
       id="linearGradient4557"
       gradientUnits="userSpaceOnUse"
       gradientTransform="matrix(1.6923075,0,0,1.6963854,163.79222,28.313253)"
       x1="-21.478369"
       y1="-0.80551612"
       x2="-21.478369"
       y2="18.005089" />
    <linearGradient
       inkscape:collect="always"
       xlink:href="#linearGradient3988-5"
       id="linearGradient3338"
       gradientUnits="userSpaceOnUse"
       gradientTransform="matrix(1.5428538,0,0,-0.93431845,-5.028491,53.357)"
       x1="24"
       y1="-8.7154436"
       x2="24"
       y2="59.783684" />
    <linearGradient
       inkscape:collect="always"
       xlink:href="#linearGradient3960"
       id="linearGradient4236"
       gradientUnits="userSpaceOnUse"
       gradientTransform="matrix(1.0571429,0,0,1.6666667,-4.9000011,-31.500001)"
       x1="25"
       y1="45"
       x2="25"
       y2="42" />
    <linearGradient
       id="linearGradient3960">
      <stop
         style="stop-color:#000000;stop-opacity:0;"
         offset="0"
         id="stop3962" />
      <stop
         id="stop3970"
         offset="0.5"
         style="stop-color:#000000;stop-opacity:1;" />
      <stop
         style="stop-color:#000000;stop-opacity:0;"
         offset="1"
         id="stop3964" />
    </linearGradient>
    <radialGradient
       inkscape:collect="always"
       xlink:href="#linearGradient3952"
       id="radialGradient4238"
       gradientUnits="userSpaceOnUse"
       gradientTransform="matrix(1.0571429,0,0,1.25,2.0999999,-13.375001)"
       cx="40"
       cy="43.5"
       fx="40"
       fy="43.5"
       r="2" />
    <linearGradient
       inkscape:collect="always"
       id="linearGradient3952">
      <stop
         style="stop-color:#000000;stop-opacity:1;"
         offset="0"
         id="stop3954" />
      <stop
         style="stop-color:#000000;stop-opacity:0;"
         offset="1"
         id="stop3956" />
    </linearGradient>
    <radialGradient
       inkscape:collect="always"
       xlink:href="#linearGradient3944"
       id="radialGradient4240"
       gradientUnits="userSpaceOnUse"
       gradientTransform="matrix(1.0571429,0,0,1.25,-4.9000011,-13.375001)"
       cx="9"
       cy="43.5"
       fx="9"
       fy="43.5"
       r="2" />
    <linearGradient
       inkscape:collect="always"
       id="linearGradient3944">
      <stop
         style="stop-color:#000000;stop-opacity:1;"
         offset="0"
         id="stop3946" />
      <stop
         style="stop-color:#000000;stop-opacity:0;"
         offset="1"
         id="stop3948" />
    </linearGradient>
    <linearGradient
       inkscape:collect="always"
       xlink:href="#linearGradient3960"
       id="linearGradient4242"
       gradientUnits="userSpaceOnUse"
       gradientTransform="translate(-3.5000011,-2.5000014)"
       x1="25"
       y1="45"
       x2="25"
       y2="42" />
    <linearGradient
       id="linearGradient4283">
      <stop
         style="stop-color:#000000;stop-opacity:0;"
         offset="0"
         id="stop4285" />
      <stop
         id="stop4287"
         offset="0.5"
         style="stop-color:#000000;stop-opacity:1;" />
      <stop
         style="stop-color:#000000;stop-opacity:0;"
         offset="1"
         id="stop4289" />
    </linearGradient>
    <radialGradient
       inkscape:collect="always"
       xlink:href="#linearGradient3952"
       id="radialGradient4244"
       gradientUnits="userSpaceOnUse"
       gradientTransform="matrix(1,0,0,0.75,3.4999999,8.3749986)"
       cx="40"
       cy="43.5"
       fx="40"
       fy="43.5"
       r="2" />
    <radialGradient
       inkscape:collect="always"
       xlink:href="#linearGradient3944"
       id="radialGradient4246"
       gradientUnits="userSpaceOnUse"
       gradientTransform="matrix(1,0,0,0.75,-3.5000011,8.3749986)"
       cx="9"
       cy="43.5"
       fx="9"
       fy="43.5"
       r="2" />
    <linearGradient
       id="linearGradient3988-5-1">
      <stop
         style="stop-color:#e6e6e6;stop-opacity:1;"
         offset="0"
         id="stop3990-5-6" />
      <stop
         style="stop-color:#f0f0f0;stop-opacity:1;"
         offset="1"
         id="stop3992-0-6" />
    </linearGradient>
    <linearGradient
       inkscape:collect="always"
       id="linearGradient4154">
      <stop
         style="stop-color:#ffffff;stop-opacity:1;"
         offset="0"
         id="stop4156" />
      <stop
         style="stop-color:#ffffff;stop-opacity:0;"
         offset="1"
         id="stop4158" />
    </linearGradient>
    <linearGradient
       inkscape:collect="always"
       id="linearGradient4192">
      <stop
         style="stop-color:#000000;stop-opacity:1;"
         offset="0"
         id="stop4194" />
      <stop
         style="stop-color:#000000;stop-opacity:0;"
         offset="1"
         id="stop4196" />
    </linearGradient>
    <linearGradient
       inkscape:collect="always"
       xlink:href="#linearGradient4154"
       id="linearGradient4013"
       gradientUnits="userSpaceOnUse"
       gradientTransform="translate(7.0303295,8)"
       x1="24.5"
       y1="10"
       x2="24.500071"
       y2="36.5" />
    <linearGradient
       inkscape:collect="always"
       xlink:href="#linearGradient3988-5-1"
       id="linearGradient4016"
       gradientUnits="userSpaceOnUse"
       gradientTransform="matrix(-0.175,0,0,0.175,57.23035,3.999967)"
       x1="144.00006"
       y1="280.00018"
       x2="144.00006"
       y2="40.000172" />
    <radialGradient
       inkscape:collect="always"
       xlink:href="#linearGradient4192"
       id="radialGradient4042"
       gradientUnits="userSpaceOnUse"
       gradientTransform="matrix(1,0,0,0.78390198,9.0303287,2.6777825)"
       cx="24"
       cy="38.681133"
       fx="24"
       fy="38.681133"
       r="17.859375" />
    <linearGradient
       inkscape:collect="always"
       xlink:href="#linearGradient3960"
       id="linearGradient4044"
       gradientUnits="userSpaceOnUse"
       gradientTransform="matrix(1.0571429,0,0,1.6666667,-4.9000011,-31.500001)"
       x1="25"
       y1="45"
       x2="25"
       y2="42" />
    <radialGradient
       inkscape:collect="always"
       xlink:href="#linearGradient3952"
       id="radialGradient4046"
       gradientUnits="userSpaceOnUse"
       gradientTransform="matrix(1.0571429,0,0,1.25,2.0999999,-13.375001)"
       cx="40"
       cy="43.5"
       fx="40"
       fy="43.5"
       r="2" />
    <radialGradient
       inkscape:collect="always"
       xlink:href="#linearGradient3944"
       id="radialGradient4048"
       gradientUnits="userSpaceOnUse"
       gradientTransform="matrix(1.0571429,0,0,1.25,-4.9000011,-13.375001)"
       cx="9"
       cy="43.5"
       fx="9"
       fy="43.5"
       r="2" />
    <linearGradient
       inkscape:collect="always"
       xlink:href="#linearGradient3960"
       id="linearGradient4050"
       gradientUnits="userSpaceOnUse"
       gradientTransform="translate(-3.5000011,-2.5000014)"
       x1="25"
       y1="45"
       x2="25"
       y2="42" />
    <radialGradient
       inkscape:collect="always"
       xlink:href="#linearGradient3952"
       id="radialGradient4052"
       gradientUnits="userSpaceOnUse"
       gradientTransform="matrix(1,0,0,0.75,3.4999999,8.3749986)"
       cx="40"
       cy="43.5"
       fx="40"
       fy="43.5"
       r="2" />
    <radialGradient
       inkscape:collect="always"
       xlink:href="#linearGradient3944"
       id="radialGradient4054"
       gradientUnits="userSpaceOnUse"
       gradientTransform="matrix(1,0,0,0.75,-3.5000011,8.3749986)"
       cx="9"
       cy="43.5"
       fx="9"
       fy="43.5"
       r="2" />
    <radialGradient
       inkscape:collect="always"
       xlink:href="#linearGradient3944"
       id="radialGradient4057"
       gradientUnits="userSpaceOnUse"
       gradientTransform="matrix(1,0,0,0.75,-2.0000003,17.874999)"
       cx="9"
       cy="43.5"
       fx="9"
       fy="43.5"
       r="2" />
    <radialGradient
       inkscape:collect="always"
       xlink:href="#linearGradient3952"
       id="radialGradient4060"
       gradientUnits="userSpaceOnUse"
       gradientTransform="matrix(1,0,0,0.75,19.000001,17.874999)"
       cx="40"
       cy="43.5"
       fx="40"
       fy="43.5"
       r="2" />
    <linearGradient
       inkscape:collect="always"
       xlink:href="#linearGradient3960"
       id="linearGradient4063"
       gradientUnits="userSpaceOnUse"
       gradientTransform="translate(-2.0000003,6.9999986)"
       x1="25"
       y1="45"
       x2="25"
       y2="42" />
    <radialGradient
       inkscape:collect="always"
       xlink:href="#linearGradient3944"
       id="radialGradient4066"
       gradientUnits="userSpaceOnUse"
       gradientTransform="matrix(1.0571429,0,0,1.25,-3.4000003,-3.875001)"
       cx="9"
       cy="43.5"
       fx="9"
       fy="43.5"
       r="2" />
    <radialGradient
       inkscape:collect="always"
       xlink:href="#linearGradient3952"
       id="radialGradient4069"
       gradientUnits="userSpaceOnUse"
       gradientTransform="matrix(1.0571429,0,0,1.25,17.600001,-3.875001)"
       cx="40"
       cy="43.5"
       fx="40"
       fy="43.5"
       r="2" />
    <linearGradient
       inkscape:collect="always"
       xlink:href="#linearGradient3960"
       id="linearGradient4072"
       gradientUnits="userSpaceOnUse"
       gradientTransform="matrix(1.0571429,0,0,1.6666667,-3.4000003,-22.000001)"
       x1="25"
       y1="45"
       x2="25"
       y2="42" />
    <linearGradient
       inkscape:collect="always"
       xlink:href="#linearGradient3960"
       id="linearGradient4083"
       gradientUnits="userSpaceOnUse"
       gradientTransform="matrix(1.0571429,0,0,1.6666667,-3.4000003,-22.000001)"
       x1="25"
       y1="45"
       x2="25"
       y2="42" />
    <radialGradient
       inkscape:collect="always"
       xlink:href="#linearGradient3952"
       id="radialGradient4085"
       gradientUnits="userSpaceOnUse"
       gradientTransform="matrix(1.0571429,0,0,1.25,17.600001,-3.875001)"
       cx="40"
       cy="43.5"
       fx="40"
       fy="43.5"
       r="2" />
    <radialGradient
       inkscape:collect="always"
       xlink:href="#linearGradient3944"
       id="radialGradient4087"
       gradientUnits="userSpaceOnUse"
       gradientTransform="matrix(1.0571429,0,0,1.25,-3.4000003,-3.875001)"
       cx="9"
       cy="43.5"
       fx="9"
       fy="43.5"
       r="2" />
    <linearGradient
       inkscape:collect="always"
       xlink:href="#linearGradient3960"
       id="linearGradient4089"
       gradientUnits="userSpaceOnUse"
       gradientTransform="translate(-2.0000003,6.9999986)"
       x1="25"
       y1="45"
       x2="25"
       y2="42" />
    <radialGradient
       inkscape:collect="always"
       xlink:href="#linearGradient3952"
       id="radialGradient4091"
       gradientUnits="userSpaceOnUse"
       gradientTransform="matrix(1,0,0,0.75,19.000001,17.874999)"
       cx="40"
       cy="43.5"
       fx="40"
       fy="43.5"
       r="2" />
    <radialGradient
       inkscape:collect="always"
       xlink:href="#linearGradient3944"
       id="radialGradient4093"
       gradientUnits="userSpaceOnUse"
       gradientTransform="matrix(1,0,0,0.75,-2.0000003,17.874999)"
       cx="9"
       cy="43.5"
       fx="9"
       fy="43.5"
       r="2" />
    <linearGradient
       inkscape:collect="always"
       xlink:href="#linearGradient4113"
       id="linearGradient4234"
       gradientUnits="userSpaceOnUse"
       gradientTransform="matrix(1.0769229,0,0,1.0769229,48.932806,-51.47832)"
       x1="-15.956036"
       y1="17.144707"
       x2="-20.042391"
       y2="4.6646938" />
    <linearGradient
       id="linearGradient4113"
       inkscape:collect="always">
      <stop
         id="stop4115"
         offset="0"
         style="stop-color:#78a5d5;stop-opacity:1" />
      <stop
         id="stop4117"
         offset="1"
         style="stop-color:#7cc4e4;stop-opacity:1" />
    </linearGradient>
    <linearGradient
       y2="4.6646938"
       x2="-20.042391"
       y1="17.144707"
       x1="-15.956036"
       gradientTransform="matrix(1.7614247,0,0,1.7614247,126.69059,-56.86604)"
       gradientUnits="userSpaceOnUse"
       id="linearGradient4410"
       xlink:href="#linearGradient4113"
       inkscape:collect="always" />
    <linearGradient
       inkscape:collect="always"
       xlink:href="#linearGradient4113"
       id="linearGradient4120"
       gradientUnits="userSpaceOnUse"
       gradientTransform="matrix(1.6923075,0,0,1.6963854,170.03072,17.413623)"
       x1="-21.478369"
       y1="-0.80551612"
       x2="-21.478369"
       y2="18.005089" />
    <linearGradient
       inkscape:collect="always"
       xlink:href="#linearGradient8590"
       id="linearGradient4123"
       gradientUnits="userSpaceOnUse"
       gradientTransform="matrix(0.98480775,0.17364817,-0.17364817,0.98480775,79.180152,30.430888)"
       x1="-29.375"
       y1="9.25"
       x2="-19.532248"
       y2="61.616341" />
    <linearGradient
       inkscape:collect="always"
       xlink:href="#linearGradient8590"
       id="linearGradient4137"
       gradientUnits="userSpaceOnUse"
       gradientTransform="matrix(0.98480775,0.17364817,-0.17364817,0.98480775,79.180152,30.430888)"
       x1="-29.375"
       y1="9.25"
       x2="-19.532248"
       y2="61.616341" />
    <radialGradient
       inkscape:collect="always"
       xlink:href="#linearGradient3688"
       id="radialGradient4180"
       gradientUnits="userSpaceOnUse"
       gradientTransform="matrix(2.003784,0,0,1.4,27.98813,-17.4)"
       cx="4.9929786"
       cy="43.5"
       fx="4.9929786"
       fy="43.5"
       r="2.5" />
    <radialGradient
       inkscape:collect="always"
       xlink:href="#linearGradient3688"
       id="radialGradient4182"
       gradientUnits="userSpaceOnUse"
       gradientTransform="matrix(2.003784,0,0,1.4,-20.01187,-104.4)"
       cx="4.9929786"
       cy="43.5"
       fx="4.9929786"
       fy="43.5"
       r="2.5" />
    <linearGradient
       inkscape:collect="always"
       xlink:href="#linearGradient3702"
       id="linearGradient4184"
       gradientUnits="userSpaceOnUse"
       x1="25.058096"
       y1="47.027729"
       x2="25.058096"
       y2="39.999443" />
    <linearGradient
       inkscape:collect="always"
       xlink:href="#linearGradient8590"
       id="linearGradient4186"
       gradientUnits="userSpaceOnUse"
       gradientTransform="matrix(0.98480775,0.17364817,-0.17364817,0.98480775,79.180152,30.430888)"
       x1="-29.375"
       y1="9.25"
       x2="-19.532248"
       y2="61.616341" />
    <linearGradient
       inkscape:collect="always"
       xlink:href="#linearGradient4113"
       id="linearGradient4188"
       gradientUnits="userSpaceOnUse"
       gradientTransform="matrix(1.6923075,0,0,1.6963854,170.03072,17.413623)"
       x1="-21.478369"
       y1="-0.80551612"
       x2="-21.478369"
       y2="18.005089" />
    <linearGradient
       inkscape:collect="always"
       xlink:href="#linearGradient4179"
       id="linearGradient4214"
       gradientUnits="userSpaceOnUse"
       x1="8"
       y1="38.5"
       x2="15.031572"
       y2="38.5" />
    <linearGradient
       id="linearGradient4179">
      <stop
         style="stop-color:#d2d2d2;stop-opacity:1;"
         offset="0"
         id="stop4181" />
      <stop
         id="stop4191"
         offset="0.33869359"
         style="stop-color:#ebebeb;stop-opacity:1;" />
      <stop
         id="stop4189"
         offset="0.62082124"
         style="stop-color:#d2d2d2;stop-opacity:1;" />
      <stop
         id="stop4187"
         offset="0.83311057"
         style="stop-color:#f5f5f5;stop-opacity:1;" />
      <stop
         style="stop-color:#ededed;stop-opacity:1;"
         offset="1"
         id="stop4183" />
    </linearGradient>
  </defs>
  <metadata
     id="metadata4166">
    <rdf:RDF>
      <cc:Work
         rdf:about="">
        <dc:format>image/svg+xml</dc:format>
        <dc:type
           rdf:resource="http://purl.org/dc/dcmitype/StillImage" />
        <dc:title />
      </cc:Work>
    </rdf:RDF>
  </metadata>
  <g
     inkscape:groupmode="layer"
     id="layer1"
     inkscape:label="Background"
     style="display:inline">
    <use
       x="0"
       y="0"
       xlink:href="#g4143"
       id="use4164"
       transform="matrix(0.98480775,0.17364818,-0.17364818,0.98480775,6.1297177,-5.0629939)"
       width="64"
       height="64" />
    <g
       style="display:inline"
       id="g4206"
       transform="matrix(0.97608617,-0.97608617,0.97608617,0.97608617,-34.299161,18.399562)">
      <path
         sodipodi:nodetypes="sccccccccccccccccccccccccccccccscccccsssccccccccsscccccs"
         style="opacity:0.41000001;color:#000000;fill:none;stroke:#000000;stroke-width:1.44886136;stroke-linejoin:round;stroke-miterlimit:4;stroke-opacity:1;stroke-dasharray:none"
         d="m 12.500078,28 c -1.337538,0 -2.400468,1.04491 -2.46875,2.34375 -0.0022,0.04256 -0.03125,0.08192 -0.03125,0.125 -3.255e-4,0.01041 -3.255e-4,0.02084 0,0.03125 -3.368e-4,0.01041 -3.368e-4,0.02084 0,0.03125 l 0,9.375 c 0.0099,0.01087 0.02038,0.0213 0.03125,0.03125 -3.26e-4,0.01041 -3.26e-4,0.02084 0,0.03125 -0.0013,0.02081 -0.0013,0.04169 0,0.0625 0.03061,0.794606 0.666813,1.4668 1.46875,1.46875 l 0,-0.03125 c 0.752698,9.07e-4 1.366544,-0.554402 1.46875,-1.28125 0.01348,-0.03012 0.02396,-0.06157 0.03125,-0.09375 0.0016,-0.02219 -5.61e-4,-0.04006 0,-0.0625 3.26e-4,-0.01041 3.26e-4,-0.02084 0,-0.03125 3.26e-4,-0.01041 3.26e-4,-0.02084 0,-0.03125 0.01041,3.26e-4 0.02084,3.26e-4 0.03125,0 l 0,-5.46875 c 0.0098,-0.309146 -0.32555,-0.577443 -0.625,-0.5 -0.217918,0.05617 -0.382099,0.275072 -0.375,0.5 l 0,5.34375 c -3.26e-4,0.01041 -3.26e-4,0.02084 0,0.03125 l 0,0.0625 c -0.01186,0.02007 -0.02231,0.04097 -0.03125,0.0625 -7.3e-4,0.28206 -0.21793,0.50073 -0.5,0.5 -0.28207,-7.2e-4 -0.46948,-0.24919 -0.46875,-0.53125 -0.01041,-3.26e-4 -0.02084,-3.26e-4 -0.03125,0 0.01186,-0.02007 0.02231,-0.04097 0.03125,-0.0625 l 0,-9.375 0,-0.03125 c 3.26e-4,-0.01041 3.26e-4,-0.02084 0,-0.03125 0,-0.82998 0.64098,-1.5 1.46875,-1.5 0.82777,0 1.5,0.67002 1.5,1.5 0.0072,0.03216 0.01768,0.06362 0.03125,0.09375 -0.0013,0.02081 -0.0013,0.04169 0,0.0625 l 0,10.6875 c -0.0052,0.04145 -0.0052,0.08355 0,0.125 l 0,0.0625 c 0,1.38663 -1.11337,2.5 -2.5,2.5 -1.38663,0 -2.5000004,-1.11337 -2.5000004,-2.5 0,-0.008 -8e-5,-0.02305 0,-0.03125 l 0,-0.5 -0.03125,0 0,-9.46875 c 0.00523,-0.296166 -0.3027936,-0.555551 -0.59375,-0.5 -0.2292012,0.04373 -0.4103617,0.2667 -0.40625,0.5 l 0,10 c 0.00373,0.07641 0.0253,0.151899 0.0625,0.21875 C 8.1813917,43.539777 9.6812613,45 11.531328,45 c 1.92707,0 3.5,-1.57293 3.5,-3.5 l 0,-0.5 0,-10.4375 0,-0.0625 c 3.26e-4,-0.01041 3.26e-4,-0.02084 0,-0.03125 0,-0.04308 -0.02901,-0.08244 -0.03125,-0.125 C 14.931798,29.04491 13.837616,28 12.500078,28 z"
         id="path4193"
         inkscape:connector-curvature="0" />
      <path
         sodipodi:nodetypes="sccccccccccccccccccccccccccccccscccccsssccccccccsscccccs"
         inkscape:connector-curvature="0"
         id="path35480"
         d="m 12.500078,28 c -1.337538,0 -2.400468,1.04491 -2.46875,2.34375 -0.0022,0.04256 -0.03125,0.08192 -0.03125,0.125 -3.255e-4,0.01041 -3.255e-4,0.02084 0,0.03125 -3.368e-4,0.01041 -3.368e-4,0.02084 0,0.03125 l 0,9.375 c 0.0099,0.01087 0.02038,0.0213 0.03125,0.03125 -3.26e-4,0.01041 -3.26e-4,0.02084 0,0.03125 -0.0013,0.02081 -0.0013,0.04169 0,0.0625 0.03061,0.794606 0.666813,1.4668 1.46875,1.46875 l 0,-0.03125 c 0.752698,9.07e-4 1.366544,-0.554402 1.46875,-1.28125 0.01348,-0.03012 0.02396,-0.06157 0.03125,-0.09375 0.0016,-0.02219 -5.61e-4,-0.04006 0,-0.0625 3.26e-4,-0.01041 3.26e-4,-0.02084 0,-0.03125 3.26e-4,-0.01041 3.26e-4,-0.02084 0,-0.03125 0.01041,3.26e-4 0.02084,3.26e-4 0.03125,0 l 0,-5.46875 c 0.0098,-0.309146 -0.32555,-0.577443 -0.625,-0.5 -0.217918,0.05617 -0.382099,0.275072 -0.375,0.5 l 0,5.34375 c -3.26e-4,0.01041 -3.26e-4,0.02084 0,0.03125 l 0,0.0625 c -0.01186,0.02007 -0.02231,0.04097 -0.03125,0.0625 -7.3e-4,0.28206 -0.21793,0.50073 -0.5,0.5 -0.28207,-7.2e-4 -0.46948,-0.24919 -0.46875,-0.53125 -0.01041,-3.26e-4 -0.02084,-3.26e-4 -0.03125,0 0.01186,-0.02007 0.02231,-0.04097 0.03125,-0.0625 l 0,-9.375 0,-0.03125 c 3.26e-4,-0.01041 3.26e-4,-0.02084 0,-0.03125 0,-0.82998 0.64098,-1.5 1.46875,-1.5 0.82777,0 1.5,0.67002 1.5,1.5 0.0072,0.03216 0.01768,0.06362 0.03125,0.09375 -0.0013,0.02081 -0.0013,0.04169 0,0.0625 l 0,10.6875 c -0.0052,0.04145 -0.0052,0.08355 0,0.125 l 0,0.0625 c 0,1.38663 -1.11337,2.5 -2.5,2.5 -1.38663,0 -2.5000004,-1.11337 -2.5000004,-2.5 0,-0.008 -8e-5,-0.02305 0,-0.03125 l 0,-0.5 -0.03125,0 0,-9.46875 c 0.00523,-0.296166 -0.3027936,-0.555551 -0.59375,-0.5 -0.2292012,0.04373 -0.4103617,0.2667 -0.40625,0.5 l 0,10 c 0.00373,0.07641 0.0253,0.151899 0.0625,0.21875 C 8.1813917,43.539777 9.6812613,45 11.531328,45 c 1.92707,0 3.5,-1.57293 3.5,-3.5 l 0,-0.5 0,-10.4375 0,-0.0625 c 3.26e-4,-0.01041 3.26e-4,-0.02084 0,-0.03125 0,-0.04308 -0.02901,-0.08244 -0.03125,-0.125 C 14.931798,29.04491 13.837616,28 12.500078,28 z"
         style="color:#000000;fill:url(#linearGradient4214);fill-opacity:1;stroke-width:7.75500011" />
      <path
         id="path4195"
         d="m 12.5,28 c -1.337538,0 -2.400468,1.04491 -2.46875,2.34375 C 10.02905,30.38631 10,30.42567 10,30.46875 c -3.255e-4,0.01041 -3.255e-4,0.02084 0,0.03125 -3.368e-4,0.01041 -3.368e-4,0.02084 0,0.03125 l 0,0.9375 c 0,-0.04308 0.02905,-0.08244 0.03125,-0.125 0.0579,-1.101257 0.825898,-1.995972 1.875,-2.25 0.02942,-0.01263 0.06332,-0.02054 0.09375,-0.03125 0.152131,-0.05355 0.327548,-0.09375 0.5,-0.09375 0.172452,0 0.345722,0.0402 0.5,0.09375 0.03086,0.01071 0.06385,0.01862 0.09375,0.03125 1.055937,0.254028 1.848357,1.148743 1.90625,2.25 0.0022,0.04256 0.03125,0.08192 0.03125,0.125 l 0,-0.90625 0,-0.0625 c 3.26e-4,-0.01041 3.26e-4,-0.02084 0,-0.03125 0,-0.04308 -0.02901,-0.08244 -0.03125,-0.125 C 14.93172,29.04491 13.837538,28 12.5,28 z M 8.40625,31 C 8.1770488,31.04373 7.9958883,31.2667 8,31.5 l 0,1 C 7.9958883,32.2667 8.1770488,32.04373 8.40625,32 8.6972064,31.944449 9.00523,32.203834 9,32.5 l 0,-1 C 9.00523,31.203834 8.6972064,30.944449 8.40625,31 z m 4,3 c -0.217918,0.05617 -0.382099,0.275072 -0.375,0.5 l 0,1 c -0.0071,-0.224928 0.157082,-0.44383 0.375,-0.5 0.29945,-0.07744 0.6348,0.190854 0.625,0.5 l 0,-1 c 0.0098,-0.309146 -0.32555,-0.577443 -0.625,-0.5 z m -0.375,5.9375 C 12.01939,39.95757 12.00894,39.97847 12,40 c -7.3e-4,0.28206 -0.21793,0.50073 -0.5,0.5 -0.28207,-7.2e-4 -0.46948,-0.24919 -0.46875,-0.53125 l 0,0.9375 c -0.0089,0.02153 -0.01939,0.04243 -0.03125,0.0625 0.01041,-3.26e-4 0.02084,-3.26e-4 0.03125,0 -5.47e-4,0.211545 0.109577,0.416593 0.28125,0.5 0.05722,0.0278 0.116983,0.03107 0.1875,0.03125 l 0,-0.03125 c 0.07343,8.8e-5 0.148305,-0.02111 0.21875,-0.03125 C 11.877532,41.355094 11.999493,41.196066 12,41 c 0.0089,-0.02153 0.01939,-0.04243 0.03125,-0.0625 l 0,-0.0625 c -3.26e-4,-0.01041 -3.26e-4,-0.02084 0,-0.03125 l 0,-0.90625 z M 9,40.96875 l 0,1 0.03125,0 0,0.5 c -8e-5,0.0082 0,0.02325 0,0.03125 0,1.213301 0.8579602,2.205436 2,2.4375 0.163149,0.03315 0.326671,0.0625 0.5,0.0625 1.38663,0 2.5,-1.11337 2.5,-2.5 l 0,-0.0625 c -0.0052,-0.04145 -0.0052,-0.08355 0,-0.125 l 0,-0.8125 c 0,1.38663 -1.11337,2.5 -2.5,2.5 -1.38663,0 -2.5,-1.11337 -2.5,-2.5 0,-0.008 -8e-5,-0.02305 0,-0.03125 l 0,-0.5 -0.03125,0 z"
         style="color:#000000;fill:#ffffff;fill-opacity:1;stroke-width:7.75500011"
         inkscape:connector-curvature="0" />
      <path
         inkscape:connector-curvature="0"
         id="path4201"
         d="m 12.5,29 c -0.167192,0 -0.342796,0.03139 -0.5,0.0625 -0.03043,0.01071 -0.06433,0.01862 -0.09375,0.03125 -0.529491,0.227348 -0.875,0.752515 -0.875,1.375 3.26e-4,0.01041 3.26e-4,0.02084 0,0.03125 l 0,0.03125 0,0.9375 c 0,-0.82998 0.64098,-1.5 1.46875,-1.5 0.82777,0 1.5,0.67002 1.5,1.5 0.0072,0.03216 0.01768,0.06362 0.03125,0.09375 l 0,-0.9375 c -0.0013,-0.02081 -0.0013,-0.04169 0,-0.0625 C 14.01768,30.53237 14.0072,30.50091 14,30.46875 14,29.846265 13.63203,29.321098 13.09375,29.09375 13.063846,29.08112 13.030856,29.07321 13,29.0625 12.841941,29.031391 12.667192,29 12.5,29 z m -2.5,10.90625 0,1 c 0.0099,0.01087 0.02038,0.0213 0.03125,0.03125 -3.26e-4,0.01041 -3.26e-4,0.02084 0,0.03125 -0.0013,0.02081 -0.0013,0.04169 0,0.0625 0.03061,0.794606 0.666813,1.4668 1.46875,1.46875 l 0,-0.03125 c 0.752698,9.07e-4 1.366544,-0.554402 1.46875,-1.28125 0.01348,-0.03012 0.02396,-0.06157 0.03125,-0.09375 0.0016,-0.02219 -5.61e-4,-0.04006 0,-0.0625 3.26e-4,-0.01041 3.26e-4,-0.02084 0,-0.03125 3.26e-4,-0.01041 3.26e-4,-0.02084 0,-0.03125 0.01041,3.26e-4 0.02084,3.26e-4 0.03125,0 l 0,-1 c -0.01041,3.26e-4 -0.02084,3.26e-4 -0.03125,0 3.26e-4,0.01041 3.26e-4,0.02084 0,0.03125 3.26e-4,0.01041 3.26e-4,0.02084 0,0.03125 -5.61e-4,0.02244 0.0016,0.04031 0,0.0625 -0.0073,0.03218 -0.01777,0.06363 -0.03125,0.09375 -0.09224,0.655936 -0.598388,1.156181 -1.25,1.25 -0.06964,0.03614 -0.132753,0.06272 -0.21875,0.0625 -0.07052,-1.8e-4 -0.130276,-0.0034 -0.1875,-0.03125 -0.706408,-0.101224 -1.253206,-0.709515 -1.28125,-1.4375 -0.0013,-0.02081 -0.0013,-0.04169 0,-0.0625 -3.26e-4,-0.01041 -3.26e-4,-0.02084 0,-0.03125 C 10.02038,39.92755 10.0099,39.91712 10,39.90625 z m 1.03125,0 c -0.0089,0.02153 -0.01939,0.04243 -0.03125,0.0625 0.01041,-3.26e-4 0.02084,-3.26e-4 0.03125,0 l 0,-0.0625 z M 8,41.5 l 0,1 c 0.00373,0.07641 0.0253,0.151899 0.0625,0.21875 C 8.1813141,44.539777 9.6811833,46 11.53125,46 c 1.92707,0 3.5,-1.57293 3.5,-3.5 l 0,-0.5 0,-0.5 c 0,1.92707 -1.57293,3.5 -3.5,3.5 -0.168705,0 -0.337901,-0.03905 -0.5,-0.0625 C 9.4157223,44.703782 8.1704796,43.37372 8.0625,41.71875 8.0253,41.651899 8.00373,41.57641 8,41.5 z"
         style="opacity:0.2;color:#000000;fill:#000000;fill-opacity:1;stroke-width:7.75500011" />
    </g>
    <g
       id="g4143">
      <g
         transform="translate(-1,0)"
         id="g4074">
        <path
           style="opacity:0.4;fill:#ffffff;fill-opacity:1;stroke-linecap:square;stroke-linejoin:round"
           d="m 7.030329,49 52,0 0,1 -52,0 z"
           id="rect4206"
           inkscape:connector-curvature="0"
           sodipodi:nodetypes="ccccc" />
        <path
           style="opacity:0.12000002;fill:url(#linearGradient4083);fill-opacity:1;stroke:none"
           d="m 6.1142858,48 53.7715732,0 0,5 -53.7715732,0 z"
           id="rect3985"
           inkscape:connector-curvature="0"
           sodipodi:nodetypes="ccccc" />
        <path
           inkscape:connector-curvature="0"
           id="path3987"
           d="m 59.885717,48 0,5 0.528571,0 c 0.878486,0 1.585715,-1.115 1.585715,-2.5 0,-1.385 -0.707229,-2.5 -1.585715,-2.5 l -0.528571,0 z"
           style="opacity:0.12000002;fill:url(#radialGradient4085);fill-opacity:1;stroke:none" />
        <path
           inkscape:connector-curvature="0"
           id="path3989"
           d="M 5.4866072,48 C 4.6630268,48 4,49.045312 4,50.34375 l 0,0.3125 C 4,51.954689 4.6630268,53 5.4866072,53 l 0.6276786,0 0,-5 -0.6276786,0 z"
           style="opacity:0.12000002;fill:url(#radialGradient4087);fill-opacity:1;stroke:none" />
        <path
           style="opacity:0.12000002;fill:url(#linearGradient4089);fill-opacity:1;stroke:none"
           d="m 6.9999998,49 52.0001422,0 0,3 -52.0001422,0 z"
           id="rect3938"
           inkscape:connector-curvature="0"
           sodipodi:nodetypes="ccccc" />
        <path
           style="opacity:0.12000002;fill:url(#radialGradient4091);fill-opacity:1;stroke:none"
           d="m 59.000001,48.999999 0,3 0.5,0 c 0.831,0 1.5,-0.669 1.5,-1.5 0,-0.831 -0.669,-1.5 -1.5,-1.5 l -0.5,0 z"
           id="rect3940"
           inkscape:connector-curvature="0" />
        <path
           style="opacity:0.12000002;fill:url(#radialGradient4093);fill-opacity:1;stroke:none"
           d="m 6.4062497,48.999999 c -0.7790625,0 -1.40625,0.627187 -1.40625,1.40625 l 0,0.1875 c 0,0.779063 0.6271875,1.40625 1.40625,1.40625 l 0.59375,0 0,-3 -0.59375,0 z"
           id="rect3942"
           inkscape:connector-curvature="0" />
      </g>
      <path
         sodipodi:nodetypes="sssssssss"
         inkscape:connector-curvature="0"
         id="rect3886"
         d="m 5.03033,13 0,37 c 0,0.554 0.446,1 1,1 l 52,0 c 0.554,0 1,-0.446 1,-1 l 0,-37 c 0,-0.554 -0.446,-1 -1,-1 l -52,0 c -0.554001,0 -1,0.446 -1,1 z"
         style="opacity:0.41000001;color:#bebebe;fill:#000000;fill-opacity:1;fill-rule:nonzero;stroke:none;stroke-width:0;marker:none;visibility:visible;display:inline;overflow:visible;enable-background:accumulate" />
      <path
         sodipodi:nodetypes="ccccc"
         inkscape:connector-curvature="0"
         id="rect3882"
         d="m 6.03033,13 0,37 52,0 0,-37 z"
         style="color:#bebebe;fill:url(#linearGradient4016);fill-opacity:1;fill-rule:nonzero;stroke:none;stroke-width:0;marker:none;visibility:visible;display:inline;overflow:visible;enable-background:accumulate" />
      <path
         sodipodi:nodetypes="cccccccccc"
         inkscape:connector-curvature="0"
         style="opacity:0.6;fill:url(#linearGradient4013);fill-opacity:1;stroke:none"
         d="m 6.03033,13 0,37 52,0 0,-37 z m 1,1 50,0 0,35 -50,0 z"
         id="path3893" />
      <g
         transform="matrix(1.3,0,0,1.3,-10.995277,-9.6420718)"
         id="g4026">
        <path
           style="font-size:medium;font-style:normal;font-variant:normal;font-weight:normal;font-stretch:normal;text-indent:0;text-align:start;text-decoration:none;line-height:normal;letter-spacing:normal;word-spacing:normal;text-transform:none;direction:ltr;block-progression:tb;writing-mode:lr-tb;text-anchor:start;baseline-shift:baseline;opacity:0.2;color:#000000;fill:url(#radialGradient4042);fill-opacity:1;stroke:none;stroke-width:1px;marker:none;visibility:visible;display:inline;overflow:visible;enable-background:accumulate;font-family:Sans;-inkscape-font-specification:Sans"
           d="m 15.124079,20.625 9.90625,11.87565 0.78125,-0.9694 z m 35.71875,0.15625 -11.0625,11.25 L 40.771827,33 z"
           id="path4184"
           inkscape:connector-curvature="0"
           sodipodi:nodetypes="cccccccc" />
        <path
           style="font-size:medium;font-style:normal;font-variant:normal;font-weight:normal;font-stretch:normal;text-indent:0;text-align:start;text-decoration:none;line-height:normal;letter-spacing:normal;word-spacing:normal;text-transform:none;direction:ltr;block-progression:tb;writing-mode:lr-tb;text-anchor:start;baseline-shift:baseline;color:#000000;fill:#999999;fill-opacity:1;stroke:none;stroke-width:1px;marker:none;visibility:visible;display:inline;overflow:visible;enable-background:accumulate;font-family:Sans;-inkscape-font-specification:Sans"
           d="m 27.686579,33.84375 c 0.883883,0.883883 1.419773,1.453714 2.1875,1.78125 0.767727,0.327536 1.643348,0.375 3.15625,0.375 1.512902,0 2.388523,-0.04746 3.15625,-0.375 0.767727,-0.327536 1.303617,-0.897367 2.1875,-1.78125 L 51.030329,20.5 37.686579,33.15625 c -0.883883,0.883883 -1.334669,1.300728 -1.875,1.53125 C 35.271248,34.918022 34.517427,35 33.030329,35 c -1.487098,0 -2.240919,-0.08198 -2.78125,-0.3125 -0.540331,-0.230522 -0.991116,-0.647367 -1.875,-1.53125 L 15.030329,20.5 z"
           id="path3386"
           inkscape:connector-curvature="0"
           sodipodi:nodetypes="ssssscssssscs" />
        <path
           style="font-size:medium;font-style:normal;font-variant:normal;font-weight:normal;font-stretch:normal;text-indent:0;text-align:start;text-decoration:none;line-height:normal;letter-spacing:normal;word-spacing:normal;text-transform:none;direction:ltr;block-progression:tb;writing-mode:lr-tb;text-anchor:start;baseline-shift:baseline;color:#000000;fill:#999999;fill-opacity:1;stroke:none;stroke-width:1px;marker:none;visibility:visible;display:inline;overflow:visible;enable-background:accumulate;font-family:Sans;-inkscape-font-specification:Sans"
           d="M 25.686579,31.65625 15.030329,43 26.374079,32.34375 z"
           id="path4172"
           inkscape:connector-curvature="0"
           sodipodi:nodetypes="cccc" />
        <path
           style="font-size:medium;font-style:normal;font-variant:normal;font-weight:normal;font-stretch:normal;text-indent:0;text-align:start;text-decoration:none;line-height:normal;letter-spacing:normal;word-spacing:normal;text-transform:none;direction:ltr;block-progression:tb;writing-mode:lr-tb;text-anchor:start;baseline-shift:baseline;color:#000000;fill:#999999;fill-opacity:1;stroke:none;stroke-width:1px;marker:none;visibility:visible;display:inline;overflow:visible;enable-background:accumulate;font-family:Sans;-inkscape-font-specification:Sans"
           d="m 39.374079,31.625 -0.6875,0.75 L 51.030329,43 z"
           id="path4174"
           inkscape:connector-curvature="0"
           sodipodi:nodetypes="cccc" />
        <path
           sodipodi:nodetypes="ssssscssssscs"
           inkscape:connector-curvature="0"
           id="path4200"
           d="m 27.967829,32.84375 c 0.901822,0.865572 1.419773,1.453714 2.1875,1.78125 0.767727,0.327536 1.362098,0.375 2.875,0.375 1.512902,0 2.107273,-0.04746 2.875,-0.375 0.767727,-0.327536 1.284341,-0.917072 2.1875,-1.78125 L 51.207106,20.295495 37.405329,32.15625 c -0.948029,0.814702 -1.334669,1.300728 -1.875,1.53125 -0.540331,0.230522 -1.012902,0.3125 -2.5,0.3125 -1.487098,0 -1.959669,-0.08198 -2.5,-0.3125 -0.540331,-0.230522 -0.927846,-0.71553 -1.875,-1.53125 L 14.986135,20.383883 z"
           style="font-size:medium;font-style:normal;font-variant:normal;font-weight:normal;font-stretch:normal;text-indent:0;text-align:start;text-decoration:none;line-height:normal;letter-spacing:normal;word-spacing:normal;text-transform:none;direction:ltr;block-progression:tb;writing-mode:lr-tb;text-anchor:start;baseline-shift:baseline;opacity:0.6;color:#000000;fill:#ffffff;fill-opacity:1;stroke:none;stroke-width:1px;marker:none;visibility:visible;display:inline;overflow:visible;enable-background:accumulate;font-family:Sans;-inkscape-font-specification:Sans" />
        <path
           sodipodi:nodetypes="cccc"
           inkscape:connector-curvature="0"
           id="path4202"
           d="M 26.311579,32.421875 15.030329,43 26.999079,33.109375 z"
           style="font-size:medium;font-style:normal;font-variant:normal;font-weight:normal;font-stretch:normal;text-indent:0;text-align:start;text-decoration:none;line-height:normal;letter-spacing:normal;word-spacing:normal;text-transform:none;direction:ltr;block-progression:tb;writing-mode:lr-tb;text-anchor:start;baseline-shift:baseline;opacity:0.6;color:#000000;fill:#ffffff;fill-opacity:1;stroke:none;stroke-width:1px;marker:none;visibility:visible;display:inline;overflow:visible;enable-background:accumulate;font-family:Sans;-inkscape-font-specification:Sans" />
        <path
           sodipodi:nodetypes="cccc"
           inkscape:connector-curvature="0"
           id="path4204"
           d="m 39.264704,32.875 -0.6875,0.75 L 51.030329,43 z"
           style="font-size:medium;font-style:normal;font-variant:normal;font-weight:normal;font-stretch:normal;text-indent:0;text-align:start;text-decoration:none;line-height:normal;letter-spacing:normal;word-spacing:normal;text-transform:none;direction:ltr;block-progression:tb;writing-mode:lr-tb;text-anchor:start;baseline-shift:baseline;opacity:0.6;color:#000000;fill:#ffffff;fill-opacity:1;stroke:none;stroke-width:1px;marker:none;visibility:visible;display:inline;overflow:visible;enable-background:accumulate;font-family:Sans;-inkscape-font-specification:Sans" />
      </g>
    </g>
  </g>
  <g
     inkscape:groupmode="layer"
     id="layer2"
     inkscape:label="Symbol"
     style="display:inline">
    <g
       id="g4166"
       transform="matrix(0.86710219,0,0,0.86710219,7.5292382,6.5212672)">
      <g
         transform="matrix(0.88114373,0.15536941,-0.13643783,0.77377743,28.562889,21.07052)"
         style="opacity:0.2"
         id="g8795">
        <rect
           y="40"
           x="38"
           width="5"
           style="fill:url(#radialGradient4180);fill-opacity:1;stroke:none"
           id="rect8797"
           height="7" />
        <rect
           y="-47"
           x="-10"
           width="5"
           transform="scale(-1,-1)"
           style="fill:url(#radialGradient4182);fill-opacity:1;stroke:none"
           id="rect8799"
           height="7" />
        <rect
           y="40"
           x="10"
           width="28"
           style="fill:url(#linearGradient4184);fill-opacity:1;stroke:none"
           id="rect8801"
           height="7.0000005" />
      </g>
      <path
         d="m 29.365345,56.679412 0.520945,-2.954423 0.523179,0.09225 c 0.255742,0.04509 0.497932,-0.12449 0.543026,-0.380232 l 0.184501,-1.046358 c 0.04509,-0.255742 -0.124489,-0.497932 -0.380231,-0.543026 l -0.523179,-0.09225 0.347297,-1.969615 0.523179,0.09225 c 0.255741,0.04509 0.497932,-0.12449 0.543026,-0.380232 l 0.184501,-1.046358 c 0.04509,-0.255742 -0.124489,-0.497932 -0.380231,-0.543026 l -0.523179,-0.09225 0.347296,-1.969615 0.523179,0.09225 c 0.255742,0.04509 0.497932,-0.12449 0.543027,-0.380232 l 0.184501,-1.046358 c 0.04509,-0.255742 -0.12449,-0.497932 -0.380231,-0.543026 l -0.523179,-0.09225 0.347296,-1.969615 0.523179,0.09225 c 0.255742,0.04509 0.497932,-0.12449 0.543026,-0.380232 l 0.184501,-1.046358 c 0.0451,-0.255742 -0.124489,-0.497932 -0.380231,-0.543026 l -0.523179,-0.09225 0.347297,-1.969615 0.523179,0.09225 c 0.255741,0.04509 0.497932,-0.12449 0.543026,-0.380232 l 0.184501,-1.046358 c 0.04509,-0.255743 -0.124489,-0.497932 -0.380231,-0.543026 l -0.523179,-0.09225 0.347296,-1.969615 0.523179,0.09225 c 0.255742,0.04509 0.497932,-0.124489 0.543027,-0.380232 l 0.184501,-1.046358 c 0.04509,-0.255743 -0.124489,-0.497932 -0.380231,-0.543026 l -0.523179,-0.09225 0.694592,-3.939231 3.939231,0.694593 -0.09225,0.523179 c -0.04509,0.255743 0.124489,0.497932 0.380231,0.543026 l 1.046358,0.184502 c 0.255742,0.04509 0.497932,-0.124489 0.543026,-0.380231 l 0.09225,-0.52318 1.969615,0.347297 -0.09225,0.523179 c -0.04509,0.255743 0.124489,0.497932 0.380231,0.543026 l 1.046358,0.184501 c 0.255742,0.04509 0.497932,-0.124488 0.543026,-0.380231 l 0.09225,-0.523179 1.969615,0.347296 -0.09225,0.52318 c -0.04509,0.255742 0.124489,0.497932 0.380231,0.543026 l 1.046358,0.184501 c 0.255742,0.04509 0.497932,-0.124488 0.543026,-0.380231 l 0.09225,-0.523179 1.969615,0.347296 -0.09225,0.523179 c -0.04509,0.255743 0.124489,0.497932 0.380231,0.543026 l 1.046358,0.184502 c 0.255742,0.04509 0.497932,-0.124489 0.543026,-0.380231 l 0.09225,-0.523179 1.969615,0.347296 -0.09225,0.523179 c -0.04509,0.255743 0.124489,0.497932 0.380231,0.543026 l 1.046358,0.184501 c 0.255742,0.04509 0.497932,-0.124488 0.543026,-0.380231 l 0.09225,-0.523179 1.969615,0.347297 -0.09225,0.523179 c -0.04509,0.255742 0.124489,0.497932 0.380231,0.543026 l 1.046358,0.184501 c 0.255742,0.04509 0.497932,-0.124488 0.543026,-0.380231 l 0.09225,-0.523179 2.954423,0.520944 -0.520944,2.954424 -0.52318,-0.09225 c -0.255741,-0.04509 -0.497931,0.124488 -0.543026,0.380231 l -0.184501,1.046358 c -0.04509,0.255743 0.124489,0.497932 0.380231,0.543027 l 0.523179,0.09225 -0.347296,1.969616 -0.523179,-0.09225 c -0.255742,-0.04509 -0.497932,0.124488 -0.543026,0.380231 l -0.184502,1.046358 c -0.04509,0.255742 0.12449,0.497932 0.380231,0.543027 l 0.52318,0.09225 -0.347297,1.969616 -0.523179,-0.09225 c -0.255742,-0.04509 -0.497932,0.124489 -0.543026,0.380231 l -0.184501,1.046358 c -0.04509,0.255742 0.124489,0.497932 0.380231,0.543027 l 0.523179,0.09225 -0.347296,1.969616 -0.52318,-0.09225 c -0.255741,-0.04509 -0.497932,0.124489 -0.543026,0.380231 l -0.184501,1.046358 c -0.04509,0.255742 0.124489,0.497932 0.380231,0.543027 l 0.523179,0.09225 -0.347296,1.969616 -0.523179,-0.09225 c -0.255742,-0.04509 -0.497932,0.124489 -0.543026,0.380231 l -0.184502,1.046358 c -0.04509,0.255742 0.12449,0.497932 0.380231,0.543027 l 0.523179,0.09225 -0.347296,1.969616 -0.523179,-0.09225 c -0.255742,-0.04509 -0.497932,0.124489 -0.543026,0.380231 l -0.184501,1.046358 c -0.04509,0.255742 0.124489,0.497932 0.380231,0.543027 l 0.523179,0.09225 -0.694593,3.939231 -3.939231,-0.694593 0.09225,-0.523179 c 0.04509,-0.255741 -0.12449,-0.497932 -0.380231,-0.543026 L 52.6512,59.76991 c -0.255741,-0.04509 -0.497932,0.124489 -0.543026,0.380231 l -0.09225,0.523179 -1.969616,-0.347296 0.09225,-0.523179 c 0.04509,-0.255742 -0.12449,-0.497932 -0.380231,-0.543027 l -1.046359,-0.184501 c -0.255741,-0.04509 -0.497932,0.12449 -0.543026,0.380231 l -0.09225,0.523179 -1.969616,-0.347296 0.09225,-0.523179 c 0.04509,-0.255742 -0.12449,-0.497932 -0.380231,-0.543026 l -1.046359,-0.184501 c -0.255741,-0.04509 -0.497932,0.124489 -0.543026,0.380231 l -0.09225,0.523179 -1.969616,-0.347297 0.09225,-0.523179 c 0.04509,-0.255741 -0.12449,-0.497932 -0.380231,-0.543026 l -1.046359,-0.184501 c -0.255741,-0.04509 -0.497932,0.124489 -0.543026,0.380231 l -0.09225,0.523179 -1.969616,-0.347296 0.09225,-0.523179 c 0.04509,-0.255742 -0.12449,-0.497932 -0.380231,-0.543027 l -1.046359,-0.184501 c -0.255741,-0.04509 -0.497932,0.124489 -0.543026,0.380231 l -0.09225,0.523179 -1.969616,-0.347296 0.09225,-0.523179 c 0.04509,-0.255742 -0.12449,-0.497932 -0.380231,-0.543026 L 32.95504,56.296947 c -0.255741,-0.0451 -0.497932,0.124489 -0.543026,0.380231 l -0.09225,0.523179 -2.954424,-0.520945 z"
         id="path8746"
         sodipodi:nodetypes="ccccccccccccccccccccccccccccccccccccccccccccccccccccccccccccccccccccccccccccccccccccccccccccccccccccccccccccccccccccccccccccccccccccccccccccccccccccc"
         style="fill:url(#linearGradient4186);fill-opacity:1;stroke:none"
         inkscape:connector-curvature="0" />
      <rect
         transform="matrix(0.98480775,0.17364817,-0.17364817,0.98480775,0,0)"
         height="22"
         id="rect8651"
         rx="1.0229988"
         ry="1"
         style="fill:url(#linearGradient4188);fill-opacity:1;stroke:none"
         width="22"
         x="42.261494"
         y="25.10037" />
      <rect
         transform="matrix(0.98480775,0.17364817,-0.17364817,0.98480775,0,0)"
         height="18.998215"
         id="rect8657"
         style="opacity:0.2;fill:none;stroke:#ffffff;stroke-width:1.15326631;stroke-linecap:round;stroke-linejoin:miter;stroke-miterlimit:4;stroke-opacity:1;stroke-dasharray:none;stroke-dashoffset:0.7"
         width="18.992756"
         x="43.766029"
         y="26.719088" />
      <path
         inkscape:connector-curvature="0"
         style="opacity:0.41000001;fill:none;stroke:#000000;stroke-width:1.15326655;stroke-linecap:round;stroke-linejoin:miter;stroke-miterlimit:4;stroke-opacity:1;stroke-dasharray:none;stroke-dashoffset:0.7"
         sodipodi:nodetypes="ccccccccccccccccccccccccccccccccccccccccccccccccccccccccccccccccccccccccccccccccccccccccccccccccccccccccccccccccccccccccccccccccccccccccccccccccccccc"
         id="path4450"
         d="m 29.365345,56.679412 0.520945,-2.954423 0.523179,0.09225 c 0.255742,0.04509 0.497932,-0.12449 0.543026,-0.380232 l 0.184501,-1.046358 c 0.04509,-0.255742 -0.124489,-0.497932 -0.380231,-0.543026 l -0.523179,-0.09225 0.347297,-1.969615 0.523179,0.09225 c 0.255741,0.04509 0.497932,-0.12449 0.543026,-0.380232 l 0.184501,-1.046358 c 0.04509,-0.255742 -0.124489,-0.497932 -0.380231,-0.543026 l -0.523179,-0.09225 0.347296,-1.969615 0.523179,0.09225 c 0.255742,0.04509 0.497932,-0.12449 0.543027,-0.380232 l 0.184501,-1.046358 c 0.04509,-0.255742 -0.12449,-0.497932 -0.380231,-0.543026 l -0.523179,-0.09225 0.347296,-1.969615 0.523179,0.09225 c 0.255742,0.04509 0.497932,-0.12449 0.543026,-0.380232 l 0.184501,-1.046358 c 0.0451,-0.255742 -0.124489,-0.497932 -0.380231,-0.543026 l -0.523179,-0.09225 0.347297,-1.969615 0.523179,0.09225 c 0.255741,0.04509 0.497932,-0.12449 0.543026,-0.380232 l 0.184501,-1.046358 c 0.04509,-0.255743 -0.124489,-0.497932 -0.380231,-0.543026 l -0.523179,-0.09225 0.347296,-1.969615 0.523179,0.09225 c 0.255742,0.04509 0.497932,-0.124489 0.543027,-0.380232 l 0.184501,-1.046358 c 0.04509,-0.255743 -0.124489,-0.497932 -0.380231,-0.543026 l -0.523179,-0.09225 0.694592,-3.939231 3.939231,0.694593 -0.09225,0.523179 c -0.04509,0.255743 0.124489,0.497932 0.380231,0.543026 l 1.046358,0.184502 c 0.255742,0.04509 0.497932,-0.124489 0.543026,-0.380231 l 0.09225,-0.52318 1.969615,0.347297 -0.09225,0.523179 c -0.04509,0.255743 0.124489,0.497932 0.380231,0.543026 l 1.046358,0.184501 c 0.255742,0.04509 0.497932,-0.124488 0.543026,-0.380231 l 0.09225,-0.523179 1.969615,0.347296 -0.09225,0.52318 c -0.04509,0.255742 0.124489,0.497932 0.380231,0.543026 l 1.046358,0.184501 c 0.255742,0.04509 0.497932,-0.124488 0.543026,-0.380231 l 0.09225,-0.523179 1.969615,0.347296 -0.09225,0.523179 c -0.04509,0.255743 0.124489,0.497932 0.380231,0.543026 l 1.046358,0.184502 c 0.255742,0.04509 0.497932,-0.124489 0.543026,-0.380231 l 0.09225,-0.523179 1.969615,0.347296 -0.09225,0.523179 c -0.04509,0.255743 0.124489,0.497932 0.380231,0.543026 l 1.046358,0.184501 c 0.255742,0.04509 0.497932,-0.124488 0.543026,-0.380231 l 0.09225,-0.523179 1.969615,0.347297 -0.09225,0.523179 c -0.04509,0.255742 0.124489,0.497932 0.380231,0.543026 l 1.046358,0.184501 c 0.255742,0.04509 0.497932,-0.124488 0.543026,-0.380231 l 0.09225,-0.523179 2.954423,0.520944 -0.520944,2.954424 -0.52318,-0.09225 c -0.255741,-0.04509 -0.497931,0.124488 -0.543026,0.380231 l -0.184501,1.046358 c -0.04509,0.255743 0.124489,0.497932 0.380231,0.543027 l 0.523179,0.09225 -0.347296,1.969616 -0.523179,-0.09225 c -0.255742,-0.04509 -0.497932,0.124488 -0.543026,0.380231 l -0.184502,1.046358 c -0.04509,0.255742 0.12449,0.497932 0.380231,0.543027 l 0.52318,0.09225 -0.347297,1.969616 -0.523179,-0.09225 c -0.255742,-0.04509 -0.497932,0.124489 -0.543026,0.380231 l -0.184501,1.046358 c -0.04509,0.255742 0.124489,0.497932 0.380231,0.543027 l 0.523179,0.09225 -0.347296,1.969616 -0.52318,-0.09225 c -0.255741,-0.04509 -0.497932,0.124489 -0.543026,0.380231 l -0.184501,1.046358 c -0.04509,0.255742 0.124489,0.497932 0.380231,0.543027 l 0.523179,0.09225 -0.347296,1.969616 -0.523179,-0.09225 c -0.255742,-0.04509 -0.497932,0.124489 -0.543026,0.380231 l -0.184502,1.046358 c -0.04509,0.255742 0.12449,0.497932 0.380231,0.543027 l 0.523179,0.09225 -0.347296,1.969616 -0.523179,-0.09225 c -0.255742,-0.04509 -0.497932,0.124489 -0.543026,0.380231 l -0.184501,1.046358 c -0.04509,0.255742 0.124489,0.497932 0.380231,0.543027 l 0.523179,0.09225 -0.694593,3.939231 -3.939231,-0.694593 0.09225,-0.523179 c 0.04509,-0.255741 -0.12449,-0.497932 -0.380231,-0.543026 L 52.6512,59.76991 c -0.255741,-0.04509 -0.497932,0.124489 -0.543026,0.380231 l -0.09225,0.523179 -1.969616,-0.347296 0.09225,-0.523179 c 0.04509,-0.255742 -0.12449,-0.497932 -0.380231,-0.543027 l -1.046359,-0.184501 c -0.255741,-0.04509 -0.497932,0.12449 -0.543026,0.380231 l -0.09225,0.523179 -1.969616,-0.347296 0.09225,-0.523179 c 0.04509,-0.255742 -0.12449,-0.497932 -0.380231,-0.543026 l -1.046359,-0.184501 c -0.255741,-0.04509 -0.497932,0.124489 -0.543026,0.380231 l -0.09225,0.523179 -1.969616,-0.347297 0.09225,-0.523179 c 0.04509,-0.255741 -0.12449,-0.497932 -0.380231,-0.543026 l -1.046359,-0.184501 c -0.255741,-0.04509 -0.497932,0.124489 -0.543026,0.380231 l -0.09225,0.523179 -1.969616,-0.347296 0.09225,-0.523179 c 0.04509,-0.255742 -0.12449,-0.497932 -0.380231,-0.543027 l -1.046359,-0.184501 c -0.255741,-0.04509 -0.497932,0.124489 -0.543026,0.380231 l -0.09225,0.523179 -1.969616,-0.347296 0.09225,-0.523179 c 0.04509,-0.255742 -0.12449,-0.497932 -0.380231,-0.543026 L 32.95504,56.296947 c -0.255741,-0.0451 -0.497932,0.124489 -0.543026,0.380231 l -0.09225,0.523179 -2.954424,-0.520945 z" />
      <rect
         transform="matrix(0.98480775,0.17364817,-0.17364817,0.98480775,8.0364202,-9.6507363)"
         clip-path="url(#clipPath4456)"
         y="36"
         x="36.022999"
         width="22"
         style="opacity:0.1;fill:none;stroke:#000000;stroke-width:2.3065331;stroke-miterlimit:4;stroke-opacity:1;stroke-dasharray:none"
         ry="1"
         rx="1.0229988"
         id="rect4452"
         height="22" />
      <g
         clip-path="url(#clipPath4552)"
         transform="matrix(1.0269248,0.18107455,-0.18107455,1.0269248,-2.283879,-1.2354077)"
         id="g4528" />
      <path
         inkscape:connector-curvature="0"
         id="path4152"
         style="font-size:10.17097759px;font-style:normal;font-variant:normal;font-weight:bold;font-stretch:normal;line-height:125%;letter-spacing:0px;word-spacing:0px;opacity:0.5;fill:#ffffff;fill-opacity:1;stroke:none;display:inline;font-family:Clear Sans;-inkscape-font-specification:Clear Sans"
         d="m 53.129645,45.8863 c -0.158982,0.901279 -0.416214,1.658743 -0.771861,2.272386 -0.355662,0.613644 -0.808579,1.061667 -1.358749,1.344074 -0.54487,0.283345 -1.174612,0.362015 -1.88921,0.236009 -0.527991,-0.0931 -0.955261,-0.242675 -1.281843,-0.448726 -0.321267,-0.20511 -0.523166,-0.510157 -0.605715,-0.915131 -0.844121,0.390043 -1.644817,0.518301 -2.402105,0.384772 -0.677305,-0.119416 -1.222863,-0.377829 -1.636672,-0.775236 -0.413825,-0.397399 -0.693089,-0.903042 -0.837792,-1.51693 -0.143769,-0.619221 -0.148839,-1.307474 -0.01472,-2.064765 0.21721,-1.231918 0.691078,-2.157399 1.421607,-2.776431 0.73146,-0.624355 1.635821,-0.841562 2.713099,-0.651618 0.602624,0.106265 1.185668,0.40154 1.749152,0.8858 l 0.05774,-0.327982 1.719891,0.303265 -0.981725,5.567662 c -0.06198,0.35198 -0.04155,0.578309 0.06166,0.678992 0.108604,0.101618 0.240141,0.166079 0.39482,0.193326 0.341303,0.0602 0.645575,-0.01259 0.912834,-0.218461 0.267226,-0.205823 0.498059,-0.517042 0.692516,-0.933664 0.199757,-0.415679 0.348532,-0.900834 0.446358,-1.455464 0.308411,-1.749225 0.09241,-3.159267 -0.648077,-4.230139 -0.735158,-1.069915 -1.948011,-1.753924 -3.638559,-2.052026 -1.039937,-0.183359 -2.022594,-0.114688 -2.947957,0.206042 -0.925362,0.320738 -1.696519,0.858366 -2.313454,1.61289 -0.610671,0.750144 -1.005818,1.634519 -1.185408,2.653116 -0.19467,1.103939 -0.140499,2.106038 0.162743,3.00631 0.308493,0.901214 0.83264,1.639746 1.572425,2.215593 0.744154,0.582118 1.665542,0.970037 2.764147,1.163752 0.655961,0.115671 1.268153,0.19886 1.836593,0.249599 0.573755,0.05167 1.179977,0.0596 1.818666,0.02375 l 0.05806,1.494923 c -1.057487,0.07198 -2.386173,-0.03309 -3.98606,-0.315186 -1.386588,-0.244498 -2.563818,-0.740759 -3.531673,-1.488796 -0.968804,-0.742704 -1.656577,-1.691547 -2.063288,-2.846526 -0.400429,-1.159374 -0.479348,-2.427019 -0.236737,-3.802939 0.224748,-1.274584 0.733716,-2.383581 1.526938,-3.326988 0.794153,-0.948727 1.790992,-1.628023 2.990515,-2.037889 1.199522,-0.409849 2.457911,-0.498645 3.775165,-0.266387 2.143875,0.378032 3.716251,1.268409 4.717162,2.671116 1.000878,1.402727 1.314195,3.165355 0.939951,5.287888 m -5.205505,-2.476709 c -0.543088,-0.475174 -1.038628,-0.752257 -1.486588,-0.831252 -0.623969,-0.110012 -1.132921,9.47e-4 -1.526874,0.33289 -0.387688,0.327561 -0.657711,0.92331 -0.810035,1.787256 -0.134447,0.762623 -0.08653,1.348448 0.143769,1.757477 0.231243,0.403699 0.621516,0.653977 1.170819,0.750832 0.474637,0.08368 1.112524,-0.05677 1.913662,-0.421406 l 0.595247,-3.375795" />
      <path
         id="path4129"
         d="m 34.8125,28.71875 -0.53125,2.9375 0.03125,0 c 0.04808,0.0085 0.07999,0.04714 0.125,0.0625 l 0.375,-2 2.9375,0.5 0,0.03125 c -0.09168,0.520009 0.261233,1.033307 0.78125,1.125 l 1.0625,0.1875 c 0.520009,0.09168 1.03331,-0.261232 1.125,-0.78125 l 0,-0.03125 0.96875,0.15625 0,0.03125 c -0.09168,0.520009 0.261233,1.03331 0.78125,1.125 l 1.0625,0.1875 c 0.520008,0.09168 1.03331,-0.261231 1.125,-0.78125 l 0,-0.03125 0.96875,0.15625 0,0.03125 c -0.09168,0.520009 0.261232,1.033307 0.78125,1.125 l 1.0625,0.1875 c 0.520008,0.09168 1.03331,-0.261231 1.125,-0.78125 l 0,-0.03125 0.96875,0.1875 0,0.03125 c -0.09168,0.520009 0.261233,1.03331 0.78125,1.125 l 1.0625,0.1875 c 0.520009,0.09168 1.03331,-0.292482 1.125,-0.8125 L 53.5,33 l 0,0.03125 c -0.09168,0.520009 0.292483,1.033307 0.8125,1.125 l 1.03125,0.1875 c 0.520008,0.09168 1.03331,-0.261231 1.125,-0.78125 l 0,-0.03125 0.96875,0.15625 0,0.03125 c -0.09168,0.520009 0.292482,1.03331 0.8125,1.125 l 1.03125,0.1875 c 0.520008,0.09168 1.03331,-0.261231 1.125,-0.78125 l 0,-0.03125 1.8125,0.3125 0.15625,-0.96875 -1.96875,-0.34375 0,0.03125 c -0.09169,0.520019 -0.604992,0.87293 -1.125,0.78125 L 58.25,33.84375 c -0.520018,-0.09169 -0.90418,-0.604991 -0.8125,-1.125 l 0,-0.03125 -0.96875,-0.15625 0,0.03125 c -0.09169,0.520019 -0.604992,0.87293 -1.125,0.78125 L 54.3125,33.15625 C 53.792483,33.064557 53.40832,32.551259 53.5,32.03125 L 53.5,32 52.53125,31.84375 c -0.09169,0.520018 -0.604991,0.90418 -1.125,0.8125 l -1.0625,-0.1875 c -0.520017,-0.09169 -0.87293,-0.604991 -0.78125,-1.125 l 0,-0.03125 -0.96875,-0.1875 0,0.03125 c -0.09169,0.520019 -0.604992,0.87293 -1.125,0.78125 L 46.40625,31.75 C 45.886232,31.658307 45.53332,31.145009 45.625,30.625 l 0,-0.03125 -0.96875,-0.15625 0,0.03125 c -0.09169,0.520019 -0.604992,0.87293 -1.125,0.78125 l -1.0625,-0.1875 c -0.520017,-0.09169 -0.87293,-0.604991 -0.78125,-1.125 l 0,-0.03125 -0.96875,-0.15625 0,0.03125 c -0.09169,0.520018 -0.604991,0.87293 -1.125,0.78125 L 38.53125,30.375 C 38.011233,30.283307 37.65832,29.770009 37.75,29.25 l 0,-0.03125 -2.9375,-0.5 z m 0.1875,4.5 -0.09375,0.59375 c -0.09169,0.520017 -0.604991,0.90418 -1.125,0.8125 l -0.03125,0 -0.15625,0.96875 0.03125,0 c 0.04808,0.0085 0.07999,0.04714 0.125,0.0625 l 0,-0.03125 0.03125,0 c 0.520009,0.09168 1.03331,-0.292483 1.125,-0.8125 l 0.1875,-1.03125 C 35.129386,33.579123 35.082412,33.394484 35,33.21875 z m -0.6875,3.9375 -0.09375,0.625 c -0.09169,0.520019 -0.604989,0.87293 -1.125,0.78125 l -0.03125,0 -0.15625,0.96875 0.03125,0 c 0.04808,0.0085 0.07999,0.04714 0.125,0.0625 l 0,-0.03125 0.03125,0 c 0.520011,0.09168 1.03331,-0.261231 1.125,-0.78125 l 0.1875,-1.0625 c 0.03564,-0.202127 -0.01134,-0.386766 -0.09375,-0.5625 z m 26.46875,0.75 -0.09375,0.4375 c -0.0832,0.471926 0.214516,0.911748 0.65625,1.0625 l 0.15625,-0.9375 -0.03125,0 c -0.317886,-0.05605 -0.557891,-0.286127 -0.6875,-0.5625 z m -27.15625,3.1875 -0.09375,0.625 c -0.09169,0.520018 -0.60499,0.87293 -1.125,0.78125 l -0.03125,0 -0.15625,0.96875 c 0.05788,0.01021 0.102206,0.04242 0.15625,0.0625 l 0,-0.03125 0.03125,0 c 0.52001,0.09168 1.03331,-0.261232 1.125,-0.78125 l 0.1875,-1.0625 C 33.7544,41.454116 33.70741,41.269483 33.625,41.09375 z M 60.09375,41.875 60,42.3125 c -0.08365,0.474462 0.210434,0.918911 0.65625,1.0625 l 0.15625,-0.96875 -0.03125,0 C 60.463363,42.3502 60.223358,42.142295 60.09375,41.875 z m -27.15625,3.1875 -0.09375,0.59375 c -0.0917,0.520017 -0.60499,0.87293 -1.125,0.78125 l -0.03125,0 -0.1875,0.96875 0.03125,0 c 0.05788,0.01021 0.102894,0.04242 0.15625,0.0625 l 0,-0.03125 0.03125,0 c 0.52001,0.09168 1.0333,-0.261233 1.125,-0.78125 l 0.1875,-1.0625 C 33.06483,45.4033 33.01487,45.230767 32.9375,45.0625 z m 26.46875,0.75 -0.09375,0.4375 c -0.08365,0.474461 0.210434,0.918911 0.65625,1.0625 l 0.15625,-0.96875 -0.03125,0 C 59.775863,46.2877 59.535858,46.079795 59.40625,45.8125 z m -27.1875,3.15625 -0.09375,0.625 c -0.09169,0.520019 -0.573739,0.87293 -1.09375,0.78125 l -0.0625,0 -0.15625,0.96875 0.03125,0 c 0.04808,0.0085 0.07999,0.04714 0.125,0.0625 l 0,-0.03125 0.0625,0 c 0.520011,0.09168 1.00206,-0.261231 1.09375,-0.78125 l 0.1875,-1.0625 c 0.03564,-0.202127 -0.01134,-0.386766 -0.09375,-0.5625 z m 26.5,0.78125 -0.09375,0.4375 c -0.08148,0.462131 0.198974,0.902172 0.625,1.0625 l 0.1875,-0.9375 -0.03125,0 C 59.088363,50.25645 58.848358,50.026373 58.71875,49.75 z m -27.1875,3.15625 -0.09375,0.625 c -0.09169,0.520018 -0.60499,0.87293 -1.125,0.78125 l -0.03125,0 -0.34375,1.96875 0.15625,0.03125 0.1875,-1 0.03125,0 c 0.52001,0.09168 1.03331,-0.261232 1.125,-0.78125 l 0.1875,-1.0625 c 0.03564,-0.202127 -0.01134,-0.386766 -0.09375,-0.5625 z M 58,53.65625 57.90625,54.125 c -0.08148,0.462132 0.22473,0.902172 0.65625,1.0625 L 58.71875,54.25 C 58.389185,54.191888 58.13389,53.947425 58,53.65625 z m -0.6875,3.96875 -0.09375,0.4375 c -0.0832,0.471926 0.214515,0.911742 0.65625,1.0625 l 0.15625,-0.9375 -0.03125,0 C 57.682113,58.13145 57.442108,57.901373 57.3125,57.625 z"
         style="fill:#ffffff;fill-opacity:1;stroke:none"
         inkscape:connector-curvature="0" />
    </g>
  </g>
</svg>
