<?xml version="1.0" encoding="UTF-8" standalone="no"?>
<svg
   xmlns:dc="http://purl.org/dc/elements/1.1/"
   xmlns:cc="http://creativecommons.org/ns#"
   xmlns:rdf="http://www.w3.org/1999/02/22-rdf-syntax-ns#"
   xmlns:svg="http://www.w3.org/2000/svg"
   xmlns="http://www.w3.org/2000/svg"
   xmlns:xlink="http://www.w3.org/1999/xlink"
   id="svg4161"
   height="64"
   width="64"
   version="1.1">
  <defs
     id="defs4163">
    <linearGradient
       id="linearGradient3905">
      <stop
         id="stop3907"
         offset="0"
         style="stop-color:#ffffff;stop-opacity:1;" />
      <stop
         id="stop3909"
         offset="1"
         style="stop-color:#ffffff;stop-opacity:0;" />
    </linearGradient>
    <linearGradient
       id="linearGradient3688-166-749-4-0-3-8">
      <stop
         offset="0"
         style="stop-color:#181818;stop-opacity:1"
         id="stop2883-4-0-1-8" />
      <stop
         offset="1"
         style="stop-color:#181818;stop-opacity:0"
         id="stop2885-9-2-9-6" />
    </linearGradient>
    <linearGradient
       id="linearGradient3688-464-309-9-2-4-2">
      <stop
         offset="0"
         style="stop-color:#181818;stop-opacity:1"
         id="stop2889-7-9-6-9" />
      <stop
         offset="1"
         style="stop-color:#181818;stop-opacity:0"
         id="stop2891-6-6-1-7" />
    </linearGradient>
    <linearGradient
       id="linearGradient3702-501-757-8-4-1-1">
      <stop
         offset="0"
         style="stop-color:#181818;stop-opacity:0"
         id="stop2895-8-9-9-1" />
      <stop
         offset="0.5"
         style="stop-color:#181818;stop-opacity:1"
         id="stop2897-7-8-7-7" />
      <stop
         offset="1"
         style="stop-color:#181818;stop-opacity:0"
         id="stop2899-4-5-1-5" />
    </linearGradient>
    <linearGradient
       y2="32"
       x2="59.5"
       y1="32"
       x1="4.5"
       gradientTransform="translate(-64,-64)"
       gradientUnits="userSpaceOnUse"
       id="linearGradient3884"
       xlink:href="#linearGradient3934" />
    <linearGradient
       gradientTransform="matrix(1.5789502,0,0,0.7142857,-5.894751,27.928572)"
       y2="39.999443"
       x2="25.058096"
       y1="47.027729"
       x1="25.058096"
       gradientUnits="userSpaceOnUse"
       id="linearGradient3897"
       xlink:href="#linearGradient3702-501-757-8-4-1-1" />
    <radialGradient
       r="2.5"
       fy="43.5"
       fx="4.9929786"
       cy="43.5"
       cx="4.9929786"
       gradientTransform="matrix(3.1638751,0,0,0.99999998,-25.702995,-102.5)"
       gradientUnits="userSpaceOnUse"
       id="radialGradient3900"
       xlink:href="#linearGradient3688-464-309-9-2-4-2" />
    <radialGradient
       r="2.5"
       fy="43.5"
       fx="4.9929786"
       cy="43.5"
       cx="4.9929786"
       gradientTransform="matrix(3.1638751,0,0,0.99999998,38.297112,15.500001)"
       gradientUnits="userSpaceOnUse"
       id="radialGradient3903"
       xlink:href="#linearGradient3688-166-749-4-0-3-8" />
    <linearGradient
       gradientUnits="userSpaceOnUse"
       y2="60"
       x2="32"
       y1="4"
       x1="32"
       id="linearGradient3911"
       xlink:href="#linearGradient3905" />
    <linearGradient
       id="linearGradient4157">
      <stop
         style="stop-color:#ffeeea;stop-opacity:1;"
         offset="0"
         id="stop4159" />
      <stop
         style="stop-color:#fff5ee;stop-opacity:1;"
         offset="1"
         id="stop4161" />
    </linearGradient>
    <linearGradient
       id="linearGradient3934">
      <stop
         id="stop3936"
         offset="0"
         style="stop-color:#dd2f03;stop-opacity:1;" />
      <stop
         id="stop3938"
         offset="1"
         style="stop-color:#e96300;stop-opacity:1;" />
    </linearGradient>
    <linearGradient
       gradientTransform="matrix(4,0,0,4,-3202.0077,709.5)"
       y2="-177.375"
       x2="808.50195"
       y1="-161.375"
       x1="808.50195"
       gradientUnits="userSpaceOnUse"
       id="linearGradient4333"
       xlink:href="#linearGradient4157" />
  </defs>
  <metadata
     id="metadata4166">
    <rdf:RDF>
      <cc:Work
         rdf:about="">
        <dc:format>image/svg+xml</dc:format>
        <dc:type
           rdf:resource="http://purl.org/dc/dcmitype/StillImage" />
        <dc:title />
      </cc:Work>
    </rdf:RDF>
  </metadata>
  <g
     style="display:inline"
     id="layer1">
    <rect
       style="opacity:0.6;fill:url(#radialGradient3903);fill-opacity:1;stroke:none"
       id="rect2801-5-5-7-9"
       y="56.5"
       x="54.105358"
       height="5"
       width="7.8947511" />
    <rect
       style="opacity:0.6;fill:url(#radialGradient3900);fill-opacity:1;stroke:none"
       id="rect3696-3-0-3-7"
       transform="scale(-1,-1)"
       y="-61.5"
       x="-9.8947506"
       height="5"
       width="7.8947511" />
    <rect
       style="opacity:0.6;fill:url(#linearGradient3897);fill-opacity:1;stroke:none"
       id="rect3700-5-6-8-4"
       y="56.5"
       x="9.8947506"
       height="5.0000005"
       width="44.210606" />
    <rect
       width="55"
       height="55"
       rx="3"
       ry="3"
       x="-59.5"
       y="-59.5"
       id="rect5505-21-3-8-5-2"
       style="color:#000000;fill:url(#linearGradient3884);fill-opacity:1.0;fill-rule:nonzero;stroke:none;stroke-width:0.99999994000000003;marker:none;visibility:visible;display:inline;overflow:visible;enable-background:accumulate"
       transform="matrix(0,-1,-1,0,0,0)" />
    <rect
       width="53"
       height="53.142479"
       rx="2"
       ry="2"
       x="5.4999986"
       y="5.4287739"
       id="rect6741-5-0-2-3"
       style="opacity:0.1;fill:none;stroke:url(#linearGradient3911);stroke-width:1;stroke-linecap:round;stroke-linejoin:round;stroke-miterlimit:4;stroke-opacity:1;stroke-dasharray:none;stroke-dashoffset:0" />
    <rect
       width="55"
       height="55"
       rx="3"
       ry="3"
       x="4.4999986"
       y="4.5000019"
       id="rect5505-21-3-8-9-1-1"
       style="opacity:0.61000001000000004;color:#000000;fill:none;stroke:#640000;stroke-width:1;stroke-linecap:round;stroke-linejoin:round;stroke-miterlimit:4;stroke-opacity:1;stroke-dasharray:none;stroke-dashoffset:0;marker:none;visibility:visible;display:inline;overflow:visible;enable-background:accumulate" />
    <path
       id="rect3932"
       d="M 7.5,5 C 6.1063514,5 5,6.1063514 5,7.5 l 0,1 C 5,7.1063514 6.1063514,6 7.5,6 l 49,0 C 57.893649,6 59,7.1063514 59,8.5 l 0,-1 C 59,6.1063514 57.893649,5 56.5,5 l -49,0 z"
       style="opacity:0.15;color:#000000;fill:#ffffff;fill-opacity:1;fill-rule:nonzero;stroke:none;stroke-width:0.99999994;marker:none;visibility:visible;display:inline;overflow:visible;enable-background:accumulate" />
    <path
       style="opacity:0.15;color:#000000;fill:#ffffff;fill-opacity:1;fill-rule:nonzero;stroke:none;stroke-width:0.99999994;marker:none;visibility:visible;display:inline;overflow:visible;enable-background:accumulate"
       d="M 7.5,59 C 6.1063514,59 5,57.893649 5,56.5 l 0,-1 C 5,56.893649 6.1063514,58 7.5,58 l 49,0 c 1.393649,0 2.5,-1.106351 2.5,-2.5 l 0,1 c 0,1.393649 -1.106351,2.5 -2.5,2.5 l -49,0 z"
       id="path3946" />
  </g>
  <g
     style="display:inline"
     id="layer2">
    <path
       style="opacity:0.3;color:#bebebe;fill:#000000;fill-opacity:1;fill-rule:nonzero;stroke:none;stroke-width:4;marker:none;visibility:visible;display:inline;overflow:visible;enable-background:accumulate"
       d="m 50,13 -24,3.5 0,23.59375 C 24.730846,38.808426 22.949037,38 21,38 c -3.866,0 -7,3.134 -7,7 0,3.866 3.134,7 7,7 3.866,0 7,-3.134 7,-7 l 0,-22.375 20,-2.75 0,17.375 c -1.271401,-1.304155 -3.034783,-2.125 -5,-2.125 -3.866,0 -7,3.134 -7,7 0,3.866 3.134,7 7,7 3.866,0 7,-3.134 7,-7 0,-0.04194 7.35e-4,-0.08323 0,-0.125 l 0,-25 0,-4 z"
       id="path4341" />
    <path
       id="path3986"
       d="M 50 12 L 26 15.5 L 26 39.09375 C 24.730846 37.808426 22.949037 37 21 37 C 17.134 37 14 40.134 14 44 C 14 47.866 17.134 51 21 51 C 24.866 51 28 47.866 28 44 L 28 21.625 L 48 18.875 L 48 36.25 C 46.728599 34.945845 44.965217 34.125 43 34.125 C 39.134 34.125 36 37.259 36 41.125 C 36 44.991 39.134 48.125 43 48.125 C 46.866 48.125 50 44.991 50 41.125 C 50 41.083058 50.000735 41.041767 50 41 L 50 16 L 50 12 z "
       style="color:#bebebe;fill:url(#linearGradient4333);fill-opacity:1;fill-rule:nonzero;stroke:none;stroke-width:4;marker:none;visibility:visible;display:inline;overflow:visible;enable-background:accumulate" />
    <path
       id="path4336"
       d="M 50 12 L 26 15.5 L 26 16.5 L 50 13 L 50 12 z M 43 34.125 C 39.134 34.125 36 37.259 36 41.125 C 36 41.293226 36.01958 41.459744 36.03125 41.625 C 36.287778 37.992509 39.302226 35.125 43 35.125 C 44.965217 35.125 46.728599 35.945845 48 37.25 L 48 36.25 C 46.728599 34.945845 44.965217 34.125 43 34.125 z M 21 37 C 17.134 37 14 40.134 14 44 C 14 44.168226 14.01958 44.334744 14.03125 44.5 C 14.287778 40.867509 17.302226 38 21 38 C 22.949037 38 24.730846 38.808426 26 40.09375 L 26 39.09375 C 24.730846 37.808426 22.949037 37 21 37 z "
       style="color:#bebebe;fill:#ffffff;fill-opacity:1;fill-rule:nonzero;stroke:none;stroke-width:4;marker:none;visibility:visible;display:inline;overflow:visible;enable-background:accumulate" />
  </g>
</svg>
