<?xml version="1.0" encoding="UTF-8" standalone="no"?>
<svg xmlns="http://www.w3.org/2000/svg" xmlns:xlink="http://www.w3.org/1999/xlink" xmlns:sodipodi="http://sodipodi.sourceforge.net/DTD/sodipodi-0.dtd" xmlns:inkscape="http://www.inkscape.org/namespaces/inkscape" version="1.1" width="64" height="64">
 <defs id="defs4163">
  <linearGradient id="linearGradient3988-5">
   <stop id="stop3990-5" stop-color="#ededed"/>
   <stop offset="1" id="stop3992-0" stop-color="#ffffff"/>
  </linearGradient>
  <clipPath id="clipPath4072">
   <path d="m 58.999941,52.997 6e-5,-42.997 c 0,0 -36.000002,0 -54.000002,0 0,14.33332 1e-6,43 1e-6,43 z" id="path4074"/>
  </clipPath>
  <linearGradient inkscape:collect="always" xlink:href="#linearGradient3988-5" id="linearGradient4076" gradientUnits="userSpaceOnUse" gradientTransform="matrix(1.5428538,0,0,-0.93431845,-5.028491,55.357)" y1="-8.715" x2="0" y2="59.784"/>
  <linearGradient id="linearGradient3702-501-757-8-4-1-1-4">
   <stop id="stop2895-8-9-9-1-2" stop-color="#181818" stop-opacity="0"/>
   <stop id="stop2897-7-8-7-7-7" offset="0.5" stop-color="#181818"/>
   <stop id="stop2899-4-5-1-5-6" offset="1" stop-color="#181818" stop-opacity="0"/>
  </linearGradient>
  <linearGradient id="linearGradient3688-464-309-9-2-4-2-3">
   <stop id="stop2889-7-9-6-9-1" stop-color="#181818"/>
   <stop id="stop2891-6-6-1-7-0" offset="1" stop-color="#181818" stop-opacity="0"/>
  </linearGradient>
  <linearGradient id="linearGradient3702">
   <stop id="stop3704" stop-opacity="0"/>
   <stop id="stop3710" offset="0.5"/>
   <stop id="stop3706" offset="1" stop-opacity="0"/>
  </linearGradient>
  <linearGradient id="outerBackgroundGradient-9">
   <stop id="stop3864-8-6-6" stop-color="#8c166c"/>
   <stop id="stop4409-9" offset="0.362" stop-color="#ca3561"/>
   <stop offset="1" id="stop3866-9-1-1" stop-color="#f38f4e"/>
  </linearGradient>
  <linearGradient id="linearGradient4094-8">
   <stop id="stop4096-0" stop-color="#e28192"/>
   <stop id="stop4317-3" offset="0.259" stop-color="#f7d6c7"/>
   <stop offset="1" id="stop4098-7" stop-color="#fffee4"/>
  </linearGradient>
  <linearGradient inkscape:collect="always" xlink:href="#outerBackgroundGradient-9" id="linearGradient3123" gradientUnits="userSpaceOnUse" gradientTransform="matrix(0,-0.175,0.175,0,-5.0000326,-0.7999801)" y1="280" x2="0" y2="40"/>
  <clipPath id="clipPath4614">
   <rect id="rect4616" width="37" height="48" x="13" y="8" fill="url(#linearGradient4618)" color="#bebebe" stroke-width="0" rx="0"/>
  </clipPath>
  <linearGradient inkscape:collect="always" xlink:href="#outerBackgroundGradient-9" id="linearGradient4618" gradientUnits="userSpaceOnUse" gradientTransform="matrix(0,-0.175,0.175,0,-2.0000329,49.200018)" y1="280" x2="0" y2="40"/>
  <clipPath id="clipPath4657">
   <rect id="rect4659" width="39" height="50" x="12" y="7" fill="url(#linearGradient4661)" color="#bebebe" stroke-width="0" rx="0"/>
  </clipPath>
  <linearGradient inkscape:collect="always" xlink:href="#outerBackgroundGradient-9" id="linearGradient4661" gradientUnits="userSpaceOnUse" gradientTransform="matrix(0,-0.18229167,0.18445946,0,-3.8108455,49.916685)" y1="280" x2="0" y2="40"/>
  <radialGradient inkscape:collect="always" xlink:href="#linearGradient3688-464-309-9-2-4-2-3" id="radialGradient4743" gradientUnits="userSpaceOnUse" gradientTransform="matrix(3.1638751,0,0,0.99999998,57.208746,36.409903)" cx="4.993" cy="43.5" r="2.5"/>
  <radialGradient inkscape:collect="always" xlink:href="#linearGradient3688-464-309-9-2-4-2-3" id="radialGradient4745" gradientUnits="userSpaceOnUse" gradientTransform="matrix(3.1638751,0,0,0.99999998,-44.614629,-123.4099)" cx="4.993" cy="43.5" r="2.5"/>
  <linearGradient inkscape:collect="always" xlink:href="#linearGradient3702-501-757-8-4-1-1-4" id="linearGradient4747" gradientUnits="userSpaceOnUse" gradientTransform="matrix(1.5789502,0,0,0.7142857,13.016883,48.838474)" y1="47.03" x2="0" y2="39.999"/>
  <linearGradient inkscape:collect="always" xlink:href="#linearGradient4094-8" id="linearGradient4753" gradientUnits="userSpaceOnUse" gradientTransform="matrix(0,-1.4285714,1.4285714,0,-350.8643,506.31966)" x1="324" x2="332"/>
  <radialGradient inkscape:collect="always" xlink:href="#radialGradient4793-7" id="radialGradient4794" gradientUnits="userSpaceOnUse" gradientTransform="matrix(0,2.0431014,-2.6968576,0,27.488646,0.55990825)" cx="23.896" cy="3.99" r="20.397"/>
  <radialGradient gradientTransform="matrix(0,1.2316483,-1.625754,0,18.486966,-28.721977)" gradientUnits="userSpaceOnUse" id="radialGradient4793-7" r="20.397" cy="3.99" cx="23.896">
   <stop id="stop4795-6" stop-color="#232323"/>
   <stop offset="0.262" id="stop4797-5" stop-color="#212121"/>
   <stop offset="0.661" id="stop4799-7" stop-color="#1c1c1c"/>
   <stop offset="1" id="stop4801-8" stop-color="#121212"/>
  </radialGradient>
  <linearGradient inkscape:collect="always" xlink:href="#linearGradient4847-3" id="linearGradient4790" gradientUnits="userSpaceOnUse" gradientTransform="matrix(0,1.3809704,-1.3809704,0,66.443043,14.467997)" x1="26" x2="46"/>
  <linearGradient inkscape:collect="always" id="linearGradient4847-3">
   <stop id="stop4849-2" stop-color="#ffffff"/>
   <stop offset="1" id="stop4851-0" stop-color="#ffffff" stop-opacity="0"/>
  </linearGradient>
  <linearGradient inkscape:collect="always" xlink:href="#linearGradient4803-8" id="linearGradient4787" gradientUnits="userSpaceOnUse" gradientTransform="matrix(0.517864,0,0,-0.51786159,-9.8459024,80.754309)" y1="8.114" x2="0" y2="56.11"/>
  <linearGradient id="linearGradient4803-8">
   <stop id="stop4805-4" stop-color="#5f5f5f"/>
   <stop offset="0.331" id="stop4807-0" stop-color="#505050"/>
   <stop offset="1" id="stop4809-0" stop-color="#1c1c1c"/>
  </linearGradient>
  <linearGradient inkscape:collect="always" xlink:href="#linearGradient4811-9" id="linearGradient4784" gradientUnits="userSpaceOnUse" gradientTransform="matrix(0.64617596,0,0,0.64617596,-42.775653,43.135864)" y1="16.543" x2="0" y2="48.631"/>
  <linearGradient id="linearGradient4811-9">
   <stop id="stop4813-8" stop-color="#3a3842"/>
   <stop offset="1" id="stop4815-1" stop-color="#303036"/>
  </linearGradient>
  <radialGradient inkscape:collect="always" xlink:href="#linearGradient6042-1-7-8-8-5-6" id="radialGradient4779" gradientUnits="userSpaceOnUse" gradientTransform="matrix(0,0.92988622,-2.1420378,0,62.223256,29.451901)" cx="32" cy="21.239" r="10.498"/>
  <linearGradient id="linearGradient6042-1-7-8-8-5-6">
   <stop id="stop6044-9-6-3-6-6-7" stop-color="#261b2b"/>
   <stop id="stop6046-9-5-1-2-5-2" offset="1" stop-color="#332f35"/>
  </linearGradient>
  <radialGradient inkscape:collect="always" xlink:href="#linearGradient2867-449-88-871-390-598-476-591-434-148-57-177-691-4-22-1-2-5-8" id="radialGradient4772" gradientUnits="userSpaceOnUse" gradientTransform="matrix(0,0.3237217,-0.42730885,0,18.432905,53.479436)" cx="23.896" cy="3.99" r="20.397"/>
  <linearGradient id="linearGradient2867-449-88-871-390-598-476-591-434-148-57-177-691-4-22-1-2-5-8">
   <stop id="stop7191-4-6-8-8-0-3" stop-color="#612f91"/>
   <stop id="stop7197-2-8-6-5-9-2" offset="1" stop-color="#1a4aa2"/>
  </linearGradient>
  <linearGradient inkscape:collect="always" xlink:href="#linearGradient3087-408-5-3-7-9-1-0" id="linearGradient4774" gradientUnits="userSpaceOnUse" gradientTransform="matrix(0.13563873,0,0,0.13563815,13.472584,60.927324)" y1="3.082" x2="0" y2="45.37"/>
  <linearGradient y1="3.082" x2="0" y2="45.37" id="linearGradient3087-408-5-3-7-9-1-0" gradientUnits="userSpaceOnUse" gradientTransform="matrix(0.22110724,0,0,0.22110728,6.6934256,6.693263)">
   <stop id="stop7201-5-71-3-5-2-6" stop-color="#170418"/>
   <stop id="stop7203-2-8-8-5-3-1" offset="1" stop-color="#50386b"/>
  </linearGradient>
  <radialGradient inkscape:collect="always" xlink:href="#linearGradient4278-3-5-5-9-2-5" id="radialGradient4769" gradientUnits="userSpaceOnUse" gradientTransform="matrix(0.27003341,-4.0265383e-8,3.7832551e-8,0.25371562,-9.1935044,39.881669)" cx="95.84" cy="95.39" r="9.498"/>
  <linearGradient id="linearGradient4278-3-5-5-9-2-5">
   <stop id="stop4280-6-90-6-3-6-0" stop-opacity="0"/>
   <stop id="stop4286-1-9-5-7-9-3" offset="0.5" stop-opacity="0"/>
   <stop id="stop4282-24-4-0-5-4-5" offset="1"/>
  </linearGradient>
  <radialGradient inkscape:collect="always" xlink:href="#linearGradient6088-74-4-8-8-8-6" id="radialGradient4765" gradientUnits="userSpaceOnUse" gradientTransform="matrix(-0.96458415,0,0,-0.96457967,47.958402,94.480092)" cx="32.373" cy="31.405" r="3.857"/>
  <linearGradient id="linearGradient6088-74-4-8-8-8-6">
   <stop id="stop6090-5-66-7-7-4-8" stop-color="#ff54d2" stop-opacity="0"/>
   <stop id="stop6257-5-4-6-4-1-0" offset="0.324" stop-color="#f62b68"/>
   <stop id="stop6255-6-7-9-7-1-8" offset="0.561" stop-color="#ff0105"/>
   <stop id="stop6092-0-22-2-1-1-8" offset="1" stop-color="#ff54d2" stop-opacity="0.478"/>
  </linearGradient>
  <linearGradient inkscape:collect="always" xlink:href="#linearGradient4316-4-6-6-4-5-1-8-2" id="linearGradient4762" gradientUnits="userSpaceOnUse" gradientTransform="matrix(0.15597308,0,0,0.15597308,2.3650245,59.102467)" y1="16.555" x2="0" y2="48.984"/>
  <linearGradient id="linearGradient4316-4-6-6-4-5-1-8-2">
   <stop id="stop4318-4-4-6-5-3-0-4-0" stop-color="#ffffff"/>
   <stop id="stop4320-2-2-6-59-35-1-3-3" offset="0.338" stop-color="#ffffff" stop-opacity="0.235"/>
   <stop id="stop4322-4-5-5-0-1-8-6-1" offset="0.62" stop-color="#ffffff" stop-opacity="0.157"/>
   <stop id="stop4324-4-1-5-5-42-0-0-9" offset="1" stop-color="#ffffff" stop-opacity="0.392"/>
  </linearGradient>
  <linearGradient inkscape:collect="always" xlink:href="#linearGradient4847-3" id="linearGradient4759" gradientUnits="userSpaceOnUse" gradientTransform="matrix(0.07463932,0,0,0.05597924,11.733362,59.941105)" y1="52.925" x2="0" y2="65.922"/>
  <radialGradient inkscape:collect="always" xlink:href="#linearGradient6191-9-9-5-0-4-6" id="radialGradient4756" gradientUnits="userSpaceOnUse" gradientTransform="matrix(0.96512258,0.25860262,-0.24965275,0.93171239,-6.6798455,26.546265)" cx="32.373" cy="31.405" r="3.857"/>
  <linearGradient id="linearGradient6191-9-9-5-0-4-6">
   <stop id="stop6193-8-1-3-2-6-5" stop-color="#ffffff" stop-opacity="0"/>
   <stop id="stop6197-8-8-7-1-9-0" offset="0.405" stop-color="#ffffff" stop-opacity="0"/>
   <stop id="stop6195-9-3-6-0-8-1" offset="1" stop-color="#ffffff" stop-opacity="0.478"/>
  </linearGradient>
  <radialGradient inkscape:collect="always" xlink:href="#linearGradient6191-9-9-5-0-4-6" id="radialGradient4753" gradientUnits="userSpaceOnUse" gradientTransform="matrix(0,0.99916378,-0.96458415,-4.0234314e-8,47.023815,31.831874)" cx="32.373" cy="31.405" r="3.857"/>
  <radialGradient inkscape:collect="always" xlink:href="#linearGradient6191-9-9-5-0-4-6" id="radialGradient4750" gradientUnits="userSpaceOnUse" gradientTransform="matrix(0.58389446,0.81080125,-0.78274057,0.56368145,22.407018,20.226368)" cx="32.373" cy="31.405" r="3.857"/>
  <radialGradient inkscape:collect="always" xlink:href="#linearGradient6088-6-1-0-06-8-8-5" id="radialGradient4746" gradientUnits="userSpaceOnUse" gradientTransform="matrix(-0.68206399,-0.68206081,0.68206399,-0.68206081,17.387712,106.78923)" cx="32.373" cy="31.405" r="3.857"/>
  <linearGradient id="linearGradient6088-6-1-0-06-8-8-5">
   <stop id="stop6090-2-0-4-9-4-0-9" stop-color="#ff54d2" stop-opacity="0"/>
   <stop id="stop6257-4-6-1-76-0-7-7" offset="0.324" stop-color="#ff54d2" stop-opacity="0"/>
   <stop id="stop6255-3-6-7-23-8-1-3" offset="0.561" stop-color="#ff54d2" stop-opacity="0.252"/>
   <stop id="stop6092-9-6-8-9-2-4-7" offset="1" stop-color="#ff54d2" stop-opacity="0.478"/>
  </linearGradient>
  <radialGradient inkscape:collect="always" xlink:href="#linearGradient4847-3" id="radialGradient4743-7" gradientUnits="userSpaceOnUse" gradientTransform="matrix(1.0665464,-0.61576799,0.35035238,0.60682534,-33.787938,65.609824)" cx="36.491" cy="39.709" r="3.159"/>
  <radialGradient inkscape:collect="always" xlink:href="#linearGradient4847-3" id="radialGradient4739" gradientUnits="userSpaceOnUse" gradientTransform="matrix(0.85824228,-0.49550411,0.28192606,0.48830798,-28.7651,59.553221)" cx="36.491" cy="39.709" r="3.159"/>
  <radialGradient inkscape:collect="always" xlink:href="#linearGradient4847-3" id="radialGradient4736" gradientUnits="userSpaceOnUse" gradientTransform="matrix(0.24482215,0,0,0.25611161,7.5154779,53.607191)" cx="36.491" cy="39.709" r="3.159"/>
  <linearGradient inkscape:collect="always" xlink:href="#linearGradient6413-0-0-0-9-7-9" id="linearGradient4733" gradientUnits="userSpaceOnUse" gradientTransform="matrix(0.24482215,0,0,0.25611161,5.4616573,52.364098)" x1="38.851" y1="41.608" x2="34.13" y2="37.81"/>
  <linearGradient id="linearGradient6413-0-0-0-9-7-9">
   <stop id="stop6415-1-7-3-8-5-5" stop-color="#feffff"/>
   <stop id="stop6417-4-9-2-3-3-0" offset="1" stop-color="#fe70ca"/>
  </linearGradient>
  <linearGradient inkscape:collect="always" xlink:href="#linearGradient6455-7-3-3-2-4-9" id="linearGradient4730" gradientUnits="userSpaceOnUse" gradientTransform="matrix(0.17122308,0,0,0.17911867,8.5865171,55.880804)" x1="38.851" y1="41.608" x2="34.13" y2="37.81"/>
  <linearGradient id="linearGradient6455-7-3-3-2-4-9">
   <stop id="stop6457-5-1-10-5-0-8" stop-color="#fbac9b"/>
   <stop id="stop6459-8-9-7-0-2-3" offset="1" stop-color="#fcfafc"/>
  </linearGradient>
  <linearGradient inkscape:collect="always" xlink:href="#linearGradient4847-3" id="linearGradient4727" gradientUnits="userSpaceOnUse" gradientTransform="matrix(0,1.3809704,-1.3809704,0,66.441351,14.467992)" x1="28.5" x2="43.5"/>
  <radialGradient inkscape:collect="always" xlink:href="#linearGradient26113-9-3-1" id="radialGradient3755" gradientUnits="userSpaceOnUse" gradientTransform="matrix(1,0,0,0.37,0,24.5124)" cx="24.85" cy="38.909" r="20.2"/>
  <linearGradient inkscape:collect="always" id="linearGradient26113-9-3-1">
   <stop id="stop26115-7-7-9" stop-color="#000000"/>
   <stop offset="1" id="stop26117-3-7-8" stop-color="#000000" stop-opacity="0"/>
  </linearGradient>
  <radialGradient r="20.2" cy="38.909" cx="24.85" gradientTransform="matrix(1.00851,0,0,0.373148,-0.211403,24.39)" gradientUnits="userSpaceOnUse" id="radialGradient3972" xlink:href="#linearGradient26113-9-3-1" inkscape:collect="always"/>
  <radialGradient r="20.2" cy="38.909" cx="24.85" gradientTransform="matrix(1.00851,0,0,0.373148,-0.211403,24.39)" gradientUnits="userSpaceOnUse" id="radialGradient3972-3" xlink:href="#linearGradient26113-9-3-1" inkscape:collect="always"/>
  <radialGradient inkscape:collect="always" xlink:href="#linearGradient26113-9-3-1" id="radialGradient3755-9" gradientUnits="userSpaceOnUse" gradientTransform="matrix(1,0,0,0.37,0,24.5124)" cx="24.85" cy="38.909" r="20.2"/>
  <radialGradient inkscape:collect="always" xlink:href="#radialGradient4793-7" id="radialGradient3630" gradientUnits="userSpaceOnUse" gradientTransform="matrix(0,2.0431014,-2.6968576,0,27.488646,0.55990825)" cx="23.896" cy="3.99" r="20.397"/>
  <linearGradient inkscape:collect="always" xlink:href="#linearGradient4847-3" id="linearGradient3632" gradientUnits="userSpaceOnUse" gradientTransform="matrix(0,1.3809704,-1.3809704,0,66.443043,14.467997)" x1="26" x2="46"/>
  <linearGradient inkscape:collect="always" xlink:href="#linearGradient4803-8" id="linearGradient3634" gradientUnits="userSpaceOnUse" gradientTransform="matrix(0.517864,0,0,-0.51786159,-9.8459024,80.754309)" y1="8.114" x2="0" y2="56.11"/>
  <linearGradient inkscape:collect="always" xlink:href="#linearGradient4811-9" id="linearGradient3636" gradientUnits="userSpaceOnUse" gradientTransform="matrix(0.64617596,0,0,0.64617596,-42.775653,43.135864)" y1="16.543" x2="0" y2="48.631"/>
  <radialGradient inkscape:collect="always" xlink:href="#linearGradient6042-1-7-8-8-5-6" id="radialGradient3638" gradientUnits="userSpaceOnUse" gradientTransform="matrix(0,0.92988622,-2.1420378,0,62.223256,29.451901)" cx="32" cy="21.239" r="10.498"/>
  <radialGradient inkscape:collect="always" xlink:href="#linearGradient2867-449-88-871-390-598-476-591-434-148-57-177-691-4-22-1-2-5-8" id="radialGradient3640" gradientUnits="userSpaceOnUse" gradientTransform="matrix(0,0.3237217,-0.42730885,0,18.432905,53.479436)" cx="23.896" cy="3.99" r="20.397"/>
  <linearGradient inkscape:collect="always" xlink:href="#linearGradient3087-408-5-3-7-9-1-0" id="linearGradient3642" gradientUnits="userSpaceOnUse" gradientTransform="matrix(0.13563873,0,0,0.13563815,13.472584,60.927324)" y1="3.082" x2="0" y2="45.37"/>
  <radialGradient inkscape:collect="always" xlink:href="#linearGradient4278-3-5-5-9-2-5" id="radialGradient3644" gradientUnits="userSpaceOnUse" gradientTransform="matrix(0.27003341,-4.0265383e-8,3.7832551e-8,0.25371562,-9.1935044,39.881669)" cx="95.84" cy="95.39" r="9.498"/>
  <radialGradient inkscape:collect="always" xlink:href="#linearGradient6088-74-4-8-8-8-6" id="radialGradient3646" gradientUnits="userSpaceOnUse" gradientTransform="matrix(-0.96458415,0,0,-0.96457967,47.958402,94.480092)" cx="32.373" cy="31.405" r="3.857"/>
  <linearGradient inkscape:collect="always" xlink:href="#linearGradient4316-4-6-6-4-5-1-8-2" id="linearGradient3648" gradientUnits="userSpaceOnUse" gradientTransform="matrix(0.15597308,0,0,0.15597308,2.3650245,59.102467)" y1="16.555" x2="0" y2="48.984"/>
  <linearGradient inkscape:collect="always" xlink:href="#linearGradient4847-3" id="linearGradient3650" gradientUnits="userSpaceOnUse" gradientTransform="matrix(0.07463932,0,0,0.05597924,11.733362,59.941105)" y1="52.925" x2="0" y2="65.922"/>
  <radialGradient inkscape:collect="always" xlink:href="#linearGradient6191-9-9-5-0-4-6" id="radialGradient3652" gradientUnits="userSpaceOnUse" gradientTransform="matrix(0.96512258,0.25860262,-0.24965275,0.93171239,-6.6798455,26.546265)" cx="32.373" cy="31.405" r="3.857"/>
  <radialGradient inkscape:collect="always" xlink:href="#linearGradient6191-9-9-5-0-4-6" id="radialGradient3654" gradientUnits="userSpaceOnUse" gradientTransform="matrix(0,0.99916378,-0.96458415,-4.0234314e-8,47.023815,31.831874)" cx="32.373" cy="31.405" r="3.857"/>
  <radialGradient inkscape:collect="always" xlink:href="#linearGradient6191-9-9-5-0-4-6" id="radialGradient3656" gradientUnits="userSpaceOnUse" gradientTransform="matrix(0.58389446,0.81080125,-0.78274057,0.56368145,22.407018,20.226368)" cx="32.373" cy="31.405" r="3.857"/>
  <radialGradient inkscape:collect="always" xlink:href="#linearGradient6088-6-1-0-06-8-8-5" id="radialGradient3658" gradientUnits="userSpaceOnUse" gradientTransform="matrix(-0.68206399,-0.68206081,0.68206399,-0.68206081,17.387712,106.78923)" cx="32.373" cy="31.405" r="3.857"/>
  <radialGradient inkscape:collect="always" xlink:href="#linearGradient4847-3" id="radialGradient3660" gradientUnits="userSpaceOnUse" gradientTransform="matrix(1.0665464,-0.61576799,0.35035238,0.60682534,-33.787938,65.609824)" cx="36.491" cy="39.709" r="3.159"/>
  <radialGradient inkscape:collect="always" xlink:href="#linearGradient4847-3" id="radialGradient3662" gradientUnits="userSpaceOnUse" gradientTransform="matrix(0.85824228,-0.49550411,0.28192606,0.48830798,-28.7651,59.553221)" cx="36.491" cy="39.709" r="3.159"/>
  <radialGradient inkscape:collect="always" xlink:href="#linearGradient4847-3" id="radialGradient3664" gradientUnits="userSpaceOnUse" gradientTransform="matrix(0.24482215,0,0,0.25611161,7.5154779,53.607191)" cx="36.491" cy="39.709" r="3.159"/>
  <linearGradient inkscape:collect="always" xlink:href="#linearGradient6413-0-0-0-9-7-9" id="linearGradient3666" gradientUnits="userSpaceOnUse" gradientTransform="matrix(0.24482215,0,0,0.25611161,5.4616573,52.364098)" x1="38.851" y1="41.608" x2="34.13" y2="37.81"/>
  <linearGradient inkscape:collect="always" xlink:href="#linearGradient6455-7-3-3-2-4-9" id="linearGradient3668" gradientUnits="userSpaceOnUse" gradientTransform="matrix(0.17122308,0,0,0.17911867,8.5865171,55.880804)" x1="38.851" y1="41.608" x2="34.13" y2="37.81"/>
  <linearGradient inkscape:collect="always" xlink:href="#linearGradient4847-3" id="linearGradient3670" gradientUnits="userSpaceOnUse" gradientTransform="matrix(0,1.3809704,-1.3809704,0,66.441351,14.467992)" x1="28.5" x2="43.5"/>
 </defs>
 <metadata id="metadata4166"/>
 <g inkscape:groupmode="layer" id="layer1" inkscape:label="Background">
  <use xlink:href="#g4674" id="use4741" transform="matrix(0.98480775,-0.17364818,0.17364818,0.98480775,-4.2962657,8.0352978)" width="64" height="64"/>
  <g id="g4674" transform="translate(0,-1)">
   <g transform="translate(-18.911688,-26.409905)" id="g4245">
    <rect width="7.895" height="5" x="73.02" y="77.41" id="rect2801-5-5-7-9" opacity="0.6" fill="url(#radialGradient4743)"/>
    <rect width="7.895" height="5" x="-28.806" y="-82.41" transform="scale(-1,-1)" id="rect3696-3-0-3-7" opacity="0.6" fill="url(#radialGradient4745)"/>
    <rect width="44.21" height="5" x="28.806" y="77.41" id="rect3700-5-6-8-4" opacity="0.6" fill="url(#linearGradient4747)"/>
   </g>
   <path id="path4059" inkscape:connector-curvature="0" d="m 58.999941,52.997 6e-5,-42.997 c 0,0 -36.000002,0 -54.000002,0 0,14.33332 1e-6,43 1e-6,43 z" sodipodi:nodetypes="ccccc" opacity="0.35" fill="none" stroke="#000000" stroke-linejoin="round" stroke-width="2"/>
   <path sodipodi:nodetypes="ccccc" d="m 58.999941,52.997 6e-5,-42.997 c 0,0 -36.000002,0 -54.000002,0 0,14.33332 1e-6,43 1e-6,43 z" inkscape:connector-curvature="0" id="path4160-9-48" fill="url(#linearGradient4076)"/>
   <path clip-path="url(#clipPath4072)" sodipodi:nodetypes="ccccc" d="m 58.999941,52.997 6e-5,-42.997 c 0,0 -36.000002,0 -54.000002,0 0,14.33332 1e-6,43 1e-6,43 z" inkscape:connector-curvature="0" id="path4238" opacity="0.4" fill="none" stroke="#ffffff" stroke-linejoin="round" stroke-width="2"/>
   <path id="path4078" d="m 5,10 0,1 54,0 0,-1 -54,0 z" inkscape:connector-curvature="0" opacity="0.4" fill="#ffffff"/>
   <rect transform="matrix(0,1,1,0,0,0)" id="rect3383" width="39" height="50" x="12" y="7" fill="url(#linearGradient4661)" color="#bebebe" stroke-width="0" rx="0"/>
   <path sodipodi:nodetypes="ssssssssss" inkscape:connector-curvature="0" id="path4086" d="m 20.564248,30.605348 c -3.927972,0 -7.142857,3.214885 -7.142857,7.142857 0,3.927971 3.214885,7.142857 7.142857,7.142857 3.927971,0 7.142857,-3.214886 7.142857,-7.142857 0,-3.927972 -3.214886,-7.142857 -7.142857,-7.142857 z m 0,2.857143 c 2.383857,0 4.285714,1.901857 4.285714,4.285714 0,2.383857 -1.901857,4.285714 -4.285714,4.285714 -2.383857,0 -4.285715,-1.901857 -4.285715,-4.285714 0,-2.383857 1.901858,-4.285714 4.285715,-4.285714 z" opacity="0.1" color="#000000" stroke-width="2" fill="#fed8cd"/>
   <path sodipodi:nodetypes="ssssssssss" inkscape:connector-curvature="0" id="path4088" d="m 20.564248,29.176776 c -4.700029,0 -8.571429,3.8714 -8.571429,8.571429 0,4.700028 3.8714,8.571428 8.571429,8.571428 4.700028,0 8.571428,-3.8714 8.571428,-8.571428 0,-4.700029 -3.8714,-8.571429 -8.571428,-8.571429 z m 0,5.714286 c 1.6118,0 2.857142,1.245343 2.857142,2.857143 0,1.6118 -1.245342,2.857143 -2.857142,2.857143 -1.6118,0 -2.857143,-1.245343 -2.857143,-2.857143 0,-1.6118 1.245343,-2.857143 2.857143,-2.857143 z" opacity="0.1" color="#000000" stroke-width="4" fill="#fed8cd"/>
   <path sodipodi:nodetypes="ssssssssss" inkscape:connector-curvature="0" id="path4090" d="m 20.564248,27.748205 c -5.472086,0 -10,4.527914 -10,10 0,5.472085 4.527914,10 10,10 5.472085,0 9.999999,-4.527915 9.999999,-10 0,-5.472086 -4.527914,-10 -9.999999,-10 z m 0,8.571428 c 0.839742,0 1.428571,0.588829 1.428571,1.428572 0,0.839743 -0.588829,1.428571 -1.428571,1.428571 -0.839743,0 -1.428572,-0.588828 -1.428572,-1.428571 0,-0.839743 0.588829,-1.428572 1.428572,-1.428572 z" opacity="0.1" color="#000000" stroke-width="6" fill="#fed8cd"/>
   <path sodipodi:nodetypes="sssss" inkscape:connector-curvature="0" id="path4082" d="m 20.564248,32.033948 c 3.155914,0 5.714285,2.558371 5.714285,5.714285 0,3.155915 -2.558371,5.714286 -5.714285,5.714286 -3.155915,0 -5.714286,-2.558371 -5.714286,-5.714286 0,-3.155914 2.558371,-5.714285 5.714286,-5.714285 z" fill="url(#linearGradient4753)" fill-rule="evenodd" color="#000000" stroke-width="14"/>
   <path sodipodi:nodetypes="cczszszszszszszcccccccccc" inkscape:connector-curvature="0" id="path4084" d="m 7.0000016,44.71431 0,-1.428571 c 0,0 3.6056284,-2.380857 4.6193274,-2.588572 1.013715,-0.207714 2.210843,-0.03857 3.441172,0.193572 1.230343,0.231428 3.067157,0.544428 3.640414,0.564 0.573271,0.02 1.610671,-0.05 2.816014,-0.122857 1.205343,-0.07143 3.201129,-0.137143 3.823629,-0.13 0.6225,0 2.176543,0.08571 3.833085,0.186857 1.656543,0.101428 3.931815,0.270857 4.448043,0.318285 0.516243,0.04714 1.123057,0.134286 1.8117,0.229286 0.688629,0.09429 1.880814,0.236714 2.302572,0.275857 0.421742,0.03857 1.399514,0.173 2.533999,0.277429 1.134486,0.104286 2.949986,0.14 3.474286,0.101428 0.5243,-0.03857 1.623272,-0.426857 2.847957,-0.784714 1.224686,-0.357714 2.5751,-0.685286 3.602286,-0.604286 C 51.221672,41.283453 57,43.285596 57,43.285596 l 0,1.428571 -7.5,0 -6.071428,0 -6.071429,0 -6.071428,0 -6.071429,0 -6.071428,0 -6.071429,0 z"/>
   <path d="m 7.0000016,44.71431 0,0.932143 c 0,0 3.6056284,1.553286 4.6193274,1.688857 1.013715,0.135714 2.210843,0.02571 3.441172,-0.125714 1.230343,-0.151 3.067157,-0.355286 3.640414,-0.368 0.573271,-0.01429 1.610671,0.03286 2.816014,0.08 1.205343,0.04714 3.201129,0.09 3.823629,0.08429 0.6225,0 2.176543,-0.05571 3.833085,-0.121428 1.656543,-0.06571 3.931815,-0.176714 4.448043,-0.207572 0.516243,-0.03143 1.123057,-0.08714 1.8117,-0.149714 0.688629,-0.06143 1.880814,-0.154286 2.302572,-0.179857 0.421742,-0.02571 1.399514,-0.112857 2.533999,-0.181143 1.134486,-0.06857 2.949986,-0.09143 3.474286,-0.06571 0.5243,0.02571 1.623272,0.278571 2.847957,0.512 1.224686,0.233428 2.5751,0.447143 3.602286,0.394286 C 51.221672,46.953881 57,45.64731 57,45.64731 l 0,-0.932 -7.5,0 -6.071428,0 -6.071429,0 -6.071428,0 -6.071429,0 -6.071428,0 -6.071429,0 z" id="path4092" inkscape:connector-curvature="0" sodipodi:nodetypes="cczszszszszszszcccccccccc" opacity="0.9"/>
   <path sodipodi:nodetypes="ccccc" inkscape:connector-curvature="0" id="rect4102" d="M 7.000001,44.714286 57,44.714286 57,49 7.000001,49 z" opacity="0.3" fill="#4d585e" color="#000000" stroke-width="6"/>
   <rect clip-path="url(#clipPath4657)" y="7" x="12" height="50" width="39" id="rect4653" transform="matrix(0,1,1,0,0,0)" opacity="0.2" fill="none" stroke="#000000" color="#bebebe" stroke-width="2" rx="0"/>
  </g>
 </g>
 <g inkscape:groupmode="layer" id="layer2" inkscape:label="Symbol">
  <g transform="translate(29.999996,30)" id="g3691">
   <path transform="matrix(0.51081599,0,0,0.46595786,3.1704533,10.023687)" d="m 45.052803,38.908627 c 0,4.128399 -9.045214,7.475128 -20.203051,7.475128 -11.157836,0 -20.2030502,-3.346729 -20.2030502,-7.475128 0,-4.1284 9.0452142,-7.475129 20.2030502,-7.475129 11.157837,0 20.203051,3.346729 20.203051,7.475129 z" sodipodi:ry="7.4751287" sodipodi:rx="20.203051" sodipodi:cy="38.908627" sodipodi:cx="24.849752" id="path8606" sodipodi:type="arc" fill="url(#radialGradient3972-3)"/>
   <path sodipodi:type="arc" id="path8608" sodipodi:cx="24.849752" sodipodi:cy="38.908627" sodipodi:rx="20.203051" sodipodi:ry="7.4751287" d="m 45.052803,38.908627 c 0,4.128399 -9.045214,7.475128 -20.203051,7.475128 -11.157836,0 -20.2030502,-3.346729 -20.2030502,-7.475128 0,-4.1284 9.0452142,-7.475129 20.2030502,-7.475129 11.157837,0 20.203051,3.346729 20.203051,7.475129 z" transform="matrix(0.69053217,0,0,0.62989172,-1.2951468,3.2832567)" opacity="0.518" fill="url(#radialGradient3755-9)"/>
   <g transform="translate(37.999942,-76.999999)" id="g5064">
    <g transform="translate(-38.72786,28.81726)" id="g4796">
     <path id="path3431" inkscape:connector-curvature="0" d="m 16.727918,49.682739 c -8.0005971,0 -14.4999962,6.499398 -14.4999962,14.5 0,8.000602 6.4993991,14.5 14.4999962,14.5 8.000596,0 14.500009,-6.499398 14.499996,-14.5 0,-8.000602 -6.4994,-14.5 -14.499996,-14.5 z" fill="url(#radialGradient3630)" color="#000000"/>
     <path id="path3433" inkscape:connector-curvature="0" d="m 16.727918,77.301955 c -7.2455488,0 -13.1192191,-5.873667 -13.1192191,-13.119231 0,-7.245539 5.8736703,-13.119204 13.1192191,-13.119204 7.245551,0 13.11922,5.873667 13.11922,13.119204 0,7.245564 -5.873669,13.119233 -13.11922,13.119233 z" opacity="0.6" fill="none" stroke="url(#linearGradient3632)" stroke-linejoin="round" stroke-linecap="round" color="#000000" stroke-width="1.381"/>
     <path id="path3435" inkscape:connector-curvature="0" d="m 16.727931,76.611416 c -6.8580919,0 -12.4287469,-5.571247 -12.4287469,-12.428677 0,-6.858022 5.5712765,-12.428678 12.4287469,-12.428678 6.858038,0 12.42872,5.571247 12.42872,12.428678 0,6.85803 -5.571276,12.428677 -12.42872,12.428677 z" fill="url(#linearGradient3634)" color="#000000"/>
     <path inkscape:connector-curvature="0" id="path3437" d="m 27.085203,64.182739 a 10.357279,10.357279 0 0 1 -20.7145578,0 10.357279,10.357279 0 1 1 20.7145578,0 z" fill="url(#linearGradient3636)" color="#000000" stroke-width="0.791"/>
     <path inkscape:connector-curvature="0" id="path3439" d="m 27.08525,64.182739 a 10.357327,10.35728 0 0 1 -20.7146531,0 10.357327,10.35728 0 1 1 20.7146531,0 z" opacity="0.3" fill="none" stroke="#000000" color="#000000" stroke-width="1.381"/>
     <path inkscape:connector-curvature="0" id="path3441" d="m 24.323294,64.182738 a 7.5953723,7.5953372 0 1 1 -15.1907425,0 7.5953723,7.5953372 0 1 1 15.1907425,0 z" opacity="0.1" fill="none" stroke="#000000" color="#000000" stroke-width="2.762"/>
     <path id="path3445" inkscape:connector-curvature="0" d="m 16.727918,59.329639 c -2.677702,0 -4.853103,2.175273 -4.853103,4.853091 0,2.677716 2.175401,4.8531 4.853103,4.8531 2.677715,0 4.853103,-2.175273 4.853103,-4.8531 0,-2.677709 -2.175277,-4.853091 -4.853103,-4.853091 z" fill="url(#radialGradient3638)"/>
     <path id="path3447" inkscape:connector-curvature="0" d="m 16.727904,59.351864 c -2.665453,0 -4.830869,2.165323 -4.830869,4.830868 0,2.665449 2.165416,4.830879 4.830869,4.830879 2.66548,0 4.830911,-2.165313 4.830911,-4.830879 0,-2.665448 -2.165334,-4.830868 -4.830911,-4.830868 z" opacity="0.3" fill="none" stroke="#000000" stroke-linejoin="round" stroke-linecap="round" stroke-width="1.386"/>
     <path id="path3449" inkscape:connector-curvature="0" d="m 16.727821,60.35757 c -2.110661,0 -3.825357,1.714598 -3.825357,3.825329 0,2.110631 1.714696,3.82532 3.825357,3.82532 2.110634,0 3.825343,-1.714598 3.825343,-3.82532 0,-2.110651 -1.714626,-3.825329 -3.825343,-3.825329 z" fill="#2a232b"/>
     <path id="path3451" inkscape:connector-curvature="0" d="m 16.727918,61.423321 c -1.522534,0 -2.759428,1.236835 -2.759428,2.759411 0,1.522523 1.236894,2.759424 2.759428,2.759424 1.52252,0 2.759441,-1.236835 2.759441,-2.759424 0,-1.52251 -1.236866,-2.759411 -2.759441,-2.759411 z" fill="url(#radialGradient3640)" stroke="url(#linearGradient3642)" stroke-linejoin="round" stroke-linecap="round" stroke-width="1.386"/>
     <path id="path3453" inkscape:connector-curvature="0" d="m 16.727931,62.182718 c -1.103547,0 -2.000031,0.89646 -2.000031,2.000012 0,1.103521 0.896484,2.00003 2.000031,2.00003 1.10352,0 2.000018,-0.89646 2.000018,-2.00003 0,-1.103502 -0.896456,-2.000012 -2.000018,-2.000012 z" opacity="0.5" fill="url(#radialGradient3644)"/>
     <path id="path3455" inkscape:connector-curvature="0" d="m 16.727918,60.684523 c -1.930155,0 -3.498219,1.567986 -3.498219,3.498205 0,1.93016 1.568064,3.498216 3.498219,3.498216 1.930154,0 3.498219,-1.567976 3.498219,-3.498216 0,-1.930149 -1.567996,-3.498205 -3.498219,-3.498205 z" opacity="0.3" fill="none" stroke="#000000" stroke-linejoin="round" stroke-linecap="round" stroke-width="1.386"/>
     <path inkscape:connector-curvature="0" id="path3457" d="m 13.192777,63.496315 a 3.6011013,3.6010846 0 0 1 2.603011,-2.791798 l 0.932033,3.47838 z" opacity="0.4" fill="url(#radialGradient3646)" color="#000000"/>
     <path inkscape:connector-curvature="0" id="path3459" d="m 19.227944,64.182734 a 2.500026,2.500026 0 0 1 -5.000052,0 2.500026,2.500026 0 1 1 5.000052,0 z" opacity="0.3" fill="none" stroke="url(#linearGradient3648)" color="#000000" stroke-width="1.381"/>
     <path id="path3461" inkscape:connector-curvature="0" d="m 17.580529,63.543362 a 0.852715,0.63953324 0 0 1 -1.70543,0 0.852715,0.63953324 0 1 1 1.70543,0 z" opacity="0.5" fill="url(#linearGradient3650)" color="#000000"/>
     <path inkscape:connector-curvature="0" id="path3463" d="m 20.328908,64.182892 a 3.6011013,3.6010846 0 0 1 -0.227375,1.25932 l -3.373726,-1.25932 z" opacity="0.4" fill="url(#radialGradient3652)" color="#000000"/>
     <path inkscape:connector-curvature="0" id="path3465" d="m 17.051487,67.769408 a 3.6011014,3.6010846 0.22315868 0 1 -1.151145,-0.08178 l 0.82746,-3.504729 z" opacity="0.4" fill="url(#radialGradient3654)" color="#000000"/>
     <path inkscape:connector-curvature="0" id="path3467" d="m 19.786299,66.083819 a 3.6011013,3.6010846 0.09114427 0 1 -1.681852,1.426635 l -1.376638,-3.327566 z" opacity="0.4" fill="url(#radialGradient3656)" color="#000000"/>
     <path inkscape:connector-curvature="0" id="path3469" d="m 14.181446,60.736272 a 3.6011013,3.6010844 0 0 1 5.092726,0 l -2.546363,2.546352 z" opacity="0.5" fill="url(#radialGradient3658)" color="#000000"/>
     <path inkscape:connector-curvature="0" id="path3471" d="m 22.412742,65.291008 a 2.2134687,3.8903478 60.000225 1 1 -6.738288,3.890334 2.2134687,3.8903478 60.000225 0 1 6.738288,-3.890334 z" opacity="0.2" fill="url(#radialGradient3660)" color="#000000"/>
     <path inkscape:connector-curvature="0" id="path3473" d="m 16.459186,59.29667 a 1.7811627,3.1305357 60.000226 0 1 -5.422253,3.130524 1.7811627,3.1305357 60.000226 1 1 5.422253,-3.130524 z" opacity="0.4" fill="url(#radialGradient3662)" color="#000000"/>
     <path inkscape:connector-curvature="0" id="path3475" d="m 17.222675,63.777108 a 0.77337568,0.80903828 0 1 1 -1.54675,0 0.77337568,0.80903828 0 1 1 1.54675,0 z" opacity="0.8" fill="url(#radialGradient3664)" color="#000000"/>
     <path inkscape:connector-curvature="0" id="path3477" d="m 15.168855,62.534015 a 0.77337568,0.80903828 0 1 1 -1.546751,0 0.77337568,0.80903828 0 1 1 1.546751,0 z" opacity="0.4" fill="url(#linearGradient3666)" color="#000000"/>
     <path inkscape:connector-curvature="0" id="path3479" d="m 15.375513,62.993414 a 0.540882,0.56582361 0 1 1 -1.081764,0 0.540882,0.56582361 0 1 1 1.081764,0 z" opacity="0.4" fill="url(#linearGradient3668)" color="#000000"/>
     <path d="m 16.726226,74.540064 a 10.357279,10.357326 0 0 1 0,-20.714653 10.357279,10.357326 0 1 1 0,20.714653 z" id="path3481" inkscape:connector-curvature="0" opacity="0.2" fill="url(#linearGradient3670)" color="#000000"/>
     <path d="m 24.323294,64.182738 a 7.5953723,7.5953372 0 1 1 -15.1907425,0 7.5953723,7.5953372 0 1 1 15.1907425,0 z" id="path3483" inkscape:connector-curvature="0" opacity="0.3" fill="none" stroke="#000000" color="#000000" stroke-width="1.381"/>
     <path d="m 16.727918,49.682739 c -8.0005971,0 -14.4999962,6.499398 -14.4999962,14.5 0,8.000602 6.4993991,14.5 14.4999962,14.5 8.000596,0 14.500009,-6.499398 14.499996,-14.5 0,-8.000602 -6.4994,-14.5 -14.499996,-14.5 z" inkscape:connector-curvature="0" id="path3954" opacity="0.41" fill="none" stroke="#000000" color="#000000"/>
    </g>
   </g>
  </g>
 </g>
</svg>
