<?xml version="1.0" encoding="UTF-8" standalone="no"?>
<svg xmlns="http://www.w3.org/2000/svg" xmlns:xlink="http://www.w3.org/1999/xlink" xmlns:sodipodi="http://sodipodi.sourceforge.net/DTD/sodipodi-0.dtd" xmlns:inkscape="http://www.inkscape.org/namespaces/inkscape" version="1.1" width="64" height="64">
 <defs id="defs4163">
  <linearGradient inkscape:collect="always" id="linearGradient3905">
   <stop id="stop3907" stop-color="#ffffff"/>
   <stop offset="1" id="stop3909" stop-color="#ffffff" stop-opacity="0"/>
  </linearGradient>
  <linearGradient id="linearGradient3844">
   <stop id="stop3846" stop-color="#505050"/>
   <stop offset="0.262" id="stop3848" stop-color="#2b2b2b"/>
   <stop offset="0.705" id="stop3850" stop-color="#0a0a0a"/>
   <stop offset="1" id="stop3852"/>
  </linearGradient>
  <linearGradient y1="26" x2="0" y2="13" id="linearGradient4069" xlink:href="#linearGradient3680-6-6-6-3-7-1" gradientUnits="userSpaceOnUse" gradientTransform="matrix(1.326882,0,0,1.326882,-0.399219,-0.2324859)"/>
  <linearGradient id="linearGradient3680-6-6-6-3-7-1">
   <stop id="stop3682-4-6-1-3-7-7" stop-color="#dcdcdc"/>
   <stop id="stop3684-8-5-8-0-2-6" offset="1" stop-color="#ffffff"/>
  </linearGradient>
  <linearGradient y1="5" x2="0" y2="43" id="linearGradient3180" xlink:href="#linearGradient3924-2-2-5-8" gradientUnits="userSpaceOnUse" gradientTransform="matrix(1.4324324,0,0,1.4362832,-2.378381,-2.4707781)"/>
  <linearGradient id="linearGradient3924-2-2-5-8">
   <stop id="stop3926-9-4-9-6" stop-color="#ffffff"/>
   <stop id="stop3928-9-8-6-5" offset="0.063" stop-color="#ffffff" stop-opacity="0.235"/>
   <stop id="stop3930-3-5-1-7" offset="0.951" stop-color="#ffffff" stop-opacity="0.157"/>
   <stop id="stop3932-8-0-4-8" offset="1" stop-color="#ffffff" stop-opacity="0.392"/>
  </linearGradient>
  <radialGradient cx="7.118" cy="9.957" r="12.672" id="radialGradient3988-3" xlink:href="#linearGradient3844" gradientUnits="userSpaceOnUse" gradientTransform="matrix(0,12.890089,-15.824912,0,190.74237,-113.0978)"/>
  <radialGradient cx="4.993" cy="43.5" r="2.5" id="radialGradient3337-2-2" xlink:href="#linearGradient3688-166-749-4-0-3-8" gradientUnits="userSpaceOnUse" gradientTransform="matrix(2.003784,0,0,1.4,27.98813,-17.4)"/>
  <linearGradient id="linearGradient3688-166-749-4-0-3-8">
   <stop id="stop2883-4-0-1-8" stop-color="#181818"/>
   <stop id="stop2885-9-2-9-6" offset="1" stop-color="#181818" stop-opacity="0"/>
  </linearGradient>
  <radialGradient cx="4.993" cy="43.5" r="2.5" id="radialGradient3339-1-4" xlink:href="#linearGradient3688-166-749-4-0-3-8" gradientUnits="userSpaceOnUse" gradientTransform="matrix(2.003784,0,0,1.4,-20.01187,-104.4)"/>
  <linearGradient id="linearGradient3702-501-757-8-4-1-1">
   <stop id="stop2895-8-9-9-1" stop-color="#181818" stop-opacity="0"/>
   <stop id="stop2897-7-8-7-7" offset="0.5" stop-color="#181818"/>
   <stop id="stop2899-4-5-1-5" offset="1" stop-color="#181818" stop-opacity="0"/>
  </linearGradient>
  <linearGradient y1="47.03" x2="0" y2="39.999" id="linearGradient4159" xlink:href="#linearGradient3702-501-757-8-4-1-1" gradientUnits="userSpaceOnUse"/>
  <linearGradient inkscape:collect="always" xlink:href="#linearGradient3934" id="linearGradient3884" gradientUnits="userSpaceOnUse" gradientTransform="translate(-64,-64)" x1="4.5" x2="59.5"/>
  <linearGradient inkscape:collect="always" xlink:href="#linearGradient3702-501-757-8-4-1-1" id="linearGradient3897" gradientUnits="userSpaceOnUse" y1="47.03" x2="0" y2="39.999" gradientTransform="matrix(1.5789502,0,0,0.7142857,-5.894751,27.928572)"/>
  <radialGradient inkscape:collect="always" xlink:href="#linearGradient3688-166-749-4-0-3-8" id="radialGradient3900" gradientUnits="userSpaceOnUse" gradientTransform="matrix(3.1638751,0,0,0.99999998,-25.702995,-102.5)" cx="4.993" cy="43.5" r="2.5"/>
  <radialGradient inkscape:collect="always" xlink:href="#linearGradient3688-166-749-4-0-3-8" id="radialGradient3903" gradientUnits="userSpaceOnUse" gradientTransform="matrix(3.1638751,0,0,0.99999998,38.297112,15.500001)" cx="4.993" cy="43.5" r="2.5"/>
  <linearGradient inkscape:collect="always" xlink:href="#linearGradient3905" id="linearGradient3911" y1="4" x2="0" y2="60" gradientUnits="userSpaceOnUse"/>
  <linearGradient inkscape:collect="always" xlink:href="#linearGradient5618" id="linearGradient4083" x1="-1023.86" x2="-984.86" gradientUnits="userSpaceOnUse" gradientTransform="translate(980.3622,784)"/>
  <linearGradient id="linearGradient5618">
   <stop id="stop5620" stop-color="#3e3e3e"/>
   <stop offset="1" id="stop5622" stop-color="#595959"/>
  </linearGradient>
  <linearGradient inkscape:collect="always" xlink:href="#linearGradient4157" id="linearGradient4155" y1="43.5" x2="0" y2="4" gradientUnits="userSpaceOnUse" gradientTransform="translate(225,-48)"/>
  <linearGradient id="linearGradient4157">
   <stop id="stop4159" stop-color="#ffeeea"/>
   <stop id="stop4161" offset="1" stop-color="#fff5ee"/>
  </linearGradient>
  <linearGradient inkscape:collect="always" xlink:href="#linearGradient3934" id="linearGradient4117" gradientUnits="userSpaceOnUse" gradientTransform="translate(980.3622,784)" x1="-1023.86" x2="-984.86"/>
  <linearGradient id="linearGradient3934">
   <stop id="stop3936" stop-color="#dd2f03"/>
   <stop offset="1" id="stop3938" stop-color="#e96300"/>
  </linearGradient>
  <linearGradient x2="-984.86" x1="-1023.86" gradientTransform="translate(1029.3622,558)" gradientUnits="userSpaceOnUse" id="linearGradient3073" xlink:href="#linearGradient3934" inkscape:collect="always"/>
  <linearGradient inkscape:collect="always" xlink:href="#linearGradient4157" id="linearGradient4318" y1="-161.37" x2="0" y2="-177.37" gradientUnits="userSpaceOnUse"/>
  <linearGradient inkscape:collect="always" xlink:href="#linearGradient4157" id="linearGradient4327" gradientUnits="userSpaceOnUse" y1="-161.37" x2="0" y2="-177.37" gradientTransform="matrix(4,0,0,4,-3202.0077,709.5)"/>
 </defs>
 <metadata id="metadata4166"/>
 <g inkscape:groupmode="layer" id="layer1" inkscape:label="Background">
  <rect width="7.895" height="5" x="54.11" y="56.5" id="rect2801-5-5-7-9" opacity="0.6" fill="url(#radialGradient3903)"/>
  <rect width="7.895" height="5" x="-9.895" y="-61.5" transform="scale(-1,-1)" id="rect3696-3-0-3-7" opacity="0.6" fill="url(#radialGradient3900)"/>
  <rect width="44.21" height="5" x="9.895" y="56.5" id="rect3700-5-6-8-4" opacity="0.6" fill="url(#linearGradient3897)"/>
  <rect transform="matrix(0,-1,-1,0,0,0)" id="rect5505-21-3-8-5-2" y="-59.5" x="-59.5" rx="3" height="55" width="55" fill="url(#linearGradient3884)" color="#000000"/>
  <rect id="rect6741-5-0-2-3" y="5.429" x="5.5" rx="2" height="53.14" width="53" opacity="0.1" fill="none" stroke="url(#linearGradient3911)" stroke-linejoin="round" stroke-linecap="round"/>
  <rect id="rect5505-21-3-8-9-1-1" y="4.5" x="4.5" rx="3" height="55" width="55" opacity="0.61" fill="none" stroke="#640000" stroke-linejoin="round" stroke-linecap="round" color="#000000"/>
  <path d="M 7.5,5 C 6.1063514,5 5,6.1063514 5,7.5 l 0,1 C 5,7.1063514 6.1063514,6 7.5,6 l 49,0 C 57.893649,6 59,7.1063514 59,8.5 l 0,-1 C 59,6.1063514 57.893649,5 56.5,5 l -49,0 z" id="rect3932" inkscape:connector-curvature="0" opacity="0.15" fill="#ffffff" color="#000000"/>
  <path id="path3946" d="M 7.5,59 C 6.1063514,59 5,57.893649 5,56.5 l 0,-1 C 5,56.893649 6.1063514,58 7.5,58 l 49,0 c 1.393649,0 2.5,-1.106351 2.5,-2.5 l 0,1 c 0,1.393649 -1.106351,2.5 -2.5,2.5 l -49,0 z" inkscape:connector-curvature="0" opacity="0.15" fill="#ffffff" color="#000000"/>
 </g>
 <g inkscape:groupmode="layer" id="layer2" inkscape:label="Symbol">
  <path id="path4341" d="m 50,13 -24,3.5 0,23.59375 C 24.730846,38.808426 22.949037,38 21,38 c -3.866,0 -7,3.134 -7,7 0,3.866 3.134,7 7,7 3.866,0 7,-3.134 7,-7 l 0,-22.375 20,-2.75 0,17.375 c -1.271401,-1.304155 -3.034783,-2.125 -5,-2.125 -3.866,0 -7,3.134 -7,7 0,3.866 3.134,7 7,7 3.866,0 7,-3.134 7,-7 0,-0.04194 7.35e-4,-0.08323 0,-0.125 l 0,-25 0,-4 z" inkscape:connector-curvature="0" opacity="0.3" color="#bebebe" stroke-width="4"/>
  <path d="M 50 12 L 26 15.5 L 26 39.09375 C 24.730846 37.808426 22.949037 37 21 37 C 17.134 37 14 40.134 14 44 C 14 47.866 17.134 51 21 51 C 24.866 51 28 47.866 28 44 L 28 21.625 L 48 18.875 L 48 36.25 C 46.728599 34.945845 44.965217 34.125 43 34.125 C 39.134 34.125 36 37.259 36 41.125 C 36 44.991 39.134 48.125 43 48.125 C 46.866 48.125 50 44.991 50 41.125 C 50 41.083058 50.000735 41.041767 50 41 L 50 16 L 50 12 z " id="path3986" fill="url(#linearGradient4327)" color="#bebebe" stroke-width="4"/>
  <path d="M 50 12 L 26 15.5 L 26 16.5 L 50 13 L 50 12 z M 43 34.125 C 39.134 34.125 36 37.259 36 41.125 C 36 41.293226 36.01958 41.459744 36.03125 41.625 C 36.287778 37.992509 39.302226 35.125 43 35.125 C 44.965217 35.125 46.728599 35.945845 48 37.25 L 48 36.25 C 46.728599 34.945845 44.965217 34.125 43 34.125 z M 21 37 C 17.134 37 14 40.134 14 44 C 14 44.168226 14.01958 44.334744 14.03125 44.5 C 14.287778 40.867509 17.302226 38 21 38 C 22.949037 38 24.730846 38.808426 26 40.09375 L 26 39.09375 C 24.730846 37.808426 22.949037 37 21 37 z " id="path4336" fill="#ffffff" color="#bebebe" stroke-width="4"/>
 </g>
</svg>
