<?xml version="1.0" encoding="UTF-8" standalone="no"?>
<svg xmlns="http://www.w3.org/2000/svg" xmlns:xlink="http://www.w3.org/1999/xlink" xmlns:sodipodi="http://sodipodi.sourceforge.net/DTD/sodipodi-0.dtd" xmlns:inkscape="http://www.inkscape.org/namespaces/inkscape" version="1.1" width="64" height="64">
 <defs id="defs4163">
  <linearGradient inkscape:collect="always" id="linearGradient3905">
   <stop id="stop3907" stop-color="#ffffff"/>
   <stop offset="1" id="stop3909" stop-color="#ffffff" stop-opacity="0"/>
  </linearGradient>
  <linearGradient id="linearGradient3688-166-749-4-0-3-8">
   <stop id="stop2883-4-0-1-8" stop-color="#181818"/>
   <stop id="stop2885-9-2-9-6" offset="1" stop-color="#181818" stop-opacity="0"/>
  </linearGradient>
  <linearGradient id="linearGradient3702-501-757-8-4-1-1">
   <stop id="stop2895-8-9-9-1" stop-color="#181818" stop-opacity="0"/>
   <stop id="stop2897-7-8-7-7" offset="0.5" stop-color="#181818"/>
   <stop id="stop2899-4-5-1-5" offset="1" stop-color="#181818" stop-opacity="0"/>
  </linearGradient>
  <linearGradient inkscape:collect="always" xlink:href="#outerBackgroundGradient-7" id="linearGradient3884" gradientUnits="userSpaceOnUse" gradientTransform="translate(-64,-64)" x1="4.5" x2="59.5"/>
  <linearGradient inkscape:collect="always" xlink:href="#linearGradient3702-501-757-8-4-1-1" id="linearGradient3897" gradientUnits="userSpaceOnUse" y1="47.03" x2="0" y2="39.999" gradientTransform="matrix(1.5789502,0,0,0.7142857,-5.894751,27.928572)"/>
  <radialGradient inkscape:collect="always" xlink:href="#linearGradient3688-166-749-4-0-3-8" id="radialGradient3900" gradientUnits="userSpaceOnUse" gradientTransform="matrix(3.1638751,0,0,0.99999998,-25.702995,-102.5)" cx="4.993" cy="43.5" r="2.5"/>
  <radialGradient inkscape:collect="always" xlink:href="#linearGradient3688-166-749-4-0-3-8" id="radialGradient3903" gradientUnits="userSpaceOnUse" gradientTransform="matrix(3.1638751,0,0,0.99999998,38.297112,15.500001)" cx="4.993" cy="43.5" r="2.5"/>
  <linearGradient inkscape:collect="always" xlink:href="#linearGradient3905" id="linearGradient3911" y1="4" x2="0" y2="60" gradientUnits="userSpaceOnUse"/>
  <linearGradient inkscape:collect="always" xlink:href="#linearGradient4100" id="linearGradient4914" gradientUnits="userSpaceOnUse" gradientTransform="matrix(1.4999978,0,0,1.4999978,-171.99927,-214.49947)" y1="235" x2="0" y2="277"/>
  <linearGradient id="linearGradient4100">
   <stop id="stop4102" stop-color="#aaaaaa"/>
   <stop id="stop4104" offset="1" stop-color="#767676"/>
  </linearGradient>
  <linearGradient inkscape:collect="always" xlink:href="#linearGradient4084" id="linearGradient4916" gradientUnits="userSpaceOnUse" gradientTransform="matrix(1.4999978,0,0,1.4999978,-171.99927,-208.49948)" y1="231" x2="0" y2="273"/>
  <linearGradient id="linearGradient4084">
   <stop id="stop4086" stop-color="#cd5fc2"/>
   <stop offset="1" id="stop4088" stop-color="#9a4993"/>
  </linearGradient>
  <linearGradient inkscape:collect="always" xlink:href="#outerBackgroundGradient-7" id="linearGradient4918" gradientUnits="userSpaceOnUse" gradientTransform="matrix(1.4999978,0,0,1.4999978,-459.99927,-345.99947)" y1="273" x2="0" y2="231"/>
  <linearGradient id="outerBackgroundGradient-7">
   <stop id="stop3864-8-6-3" stop-color="#dddddd"/>
   <stop offset="1" id="stop3866-9-1-2" stop-color="#f2f2f2"/>
  </linearGradient>
  <linearGradient inkscape:collect="always" xlink:href="#outerBackgroundGradient-7" id="linearGradient4920" gradientUnits="userSpaceOnUse" gradientTransform="matrix(1.4999978,0,0,1.4999978,-171.99927,-208.49948)" y1="273" x2="0" y2="231"/>
  <clipPath id="clipPath4384">
   <rect y="184" x="318" height="14" width="36" id="rect4386" opacity="0" color="#bebebe" rx="7"/>
  </clipPath>
  <linearGradient x2="-984.86" x1="-1023.86" gradientTransform="matrix(0,-1,-1,0,-703.3482,-971.82845)" gradientUnits="userSpaceOnUse" id="linearGradient3155" xlink:href="#outerBackgroundGradient-7" inkscape:collect="always"/>
  <linearGradient inkscape:collect="always" xlink:href="#outerBackgroundGradient-7" id="linearGradient3954" gradientUnits="userSpaceOnUse" gradientTransform="matrix(0,-1,-1,0,64,64)" x1="4.5" x2="59.5"/>
  <linearGradient inkscape:collect="always" xlink:href="#linearGradient4100" id="linearGradient3961" gradientUnits="userSpaceOnUse" gradientTransform="matrix(1.4999978,0,0,1.4999978,-459.99927,-351.99946)" y1="235" x2="0" y2="277"/>
  <linearGradient inkscape:collect="always" xlink:href="#linearGradient4084" id="linearGradient3997" gradientUnits="userSpaceOnUse" gradientTransform="matrix(1.4999978,0,0,1.4999978,-459.99927,-345.99947)" y1="231" x2="0" y2="273"/>
 </defs>
 <metadata id="metadata4166"/>
 <g inkscape:groupmode="layer" id="layer1" inkscape:label="Background">
  <rect width="7.895" height="5" x="54.11" y="56.5" id="rect2801-5-5-7-9" opacity="0.6" fill="url(#radialGradient3903)"/>
  <rect width="7.895" height="5" x="-9.895" y="-61.5" transform="scale(-1,-1)" id="rect3696-3-0-3-7" opacity="0.6" fill="url(#radialGradient3900)"/>
  <rect width="44.21" height="5" x="9.895" y="56.5" id="rect3700-5-6-8-4" opacity="0.6" fill="url(#linearGradient3897)"/>
  <path d="M 7.5,5 C 6.1063514,5 5,6.1063514 5,7.5 l 0,49 C 5,57.893649 6.1063514,59 7.5,59 l 49,0 c 1.393649,0 2.5,-1.106351 2.5,-2.5 l 0,-49 C 59,6.1063514 57.893649,5 56.5,5 l -49,0 z" id="rect5505-21-3-8-5-2" inkscape:connector-curvature="0" fill="url(#linearGradient3954)" color="#000000"/>
  <rect id="rect6741-5-0-2-3" y="5.429" x="5.5" rx="2" height="53.14" width="53" opacity="0.1" fill="none" stroke="url(#linearGradient3911)" stroke-linejoin="round" stroke-linecap="round"/>
  <rect id="rect5505-21-3-8-9-1-1" y="4.5" x="4.5" rx="3" height="55" width="55" opacity="0.41" fill="none" stroke="#000000" stroke-linejoin="round" stroke-linecap="round" color="#000000"/>
  <path d="M 7.5,5 C 6.1063514,5 5,6.1063514 5,7.5 l 0,1 C 5,7.1063514 6.1063514,6 7.5,6 l 49,0 C 57.893649,6 59,7.1063514 59,8.5 l 0,-1 C 59,6.1063514 57.893649,5 56.5,5 l -49,0 z" id="rect3932" inkscape:connector-curvature="0" opacity="0.15" fill="#ffffff" color="#000000"/>
  <path id="path3946" d="M 7.5,59 C 6.1063514,59 5,57.893649 5,56.5 l 0,-1 C 5,56.893649 6.1063514,58 7.5,58 l 49,0 c 1.393649,0 2.5,-1.106351 2.5,-2.5 l 0,1 c 0,1.393649 -1.106351,2.5 -2.5,2.5 l -49,0 z" inkscape:connector-curvature="0" opacity="0.15" fill="#ffffff" color="#000000"/>
 </g>
 <g inkscape:groupmode="layer" id="layer2" inkscape:label="Symbol">
  <g transform="translate(-288,-136.49998)" id="g5006" opacity="0.4" fill="#ffffff" enable-background="new">
   <rect y="173.5" x="302" height="14" width="36" id="rect5008" color="#bebebe" rx="7"/>
   <rect id="rect5010" width="36" height="14" x="302" y="151.5" color="#bebebe" rx="6.75"/>
   <rect y="153.5" x="316" height="12" width="21" id="rect5012" opacity="0.1" color="#bebebe" rx="6"/>
   <rect id="rect5014" width="21" height="12" x="316" y="152.5" color="#bebebe" rx="6"/>
   <rect id="rect5016" width="21" height="12" x="303" y="175.5" opacity="0.1" color="#bebebe" rx="6"/>
   <rect y="174.5" x="303" height="12" width="21" id="rect5018" color="#bebebe" rx="6"/>
  </g>
  <rect y="36" x="14" height="14" width="36" id="rect4266" fill="url(#linearGradient3961)" color="#bebebe" rx="7"/>
  <rect id="rect4268" width="36" height="14" x="14" y="14" fill="url(#linearGradient3997)" color="#bebebe" rx="6.75"/>
  <path d="m 34,16 c -3.324,0 -6,2.676 -6,6 0,3.324 2.676,6 6,6 l 9,0 c 3.324,0 6,-2.676 6,-6 0,-3.324 -2.676,-6 -6,-6 l -9,0 z M 21,38 c -3.324,0 -6,2.676 -6,6 0,3.324 2.676,6 6,6 l 9,0 c 3.324,0 6,-2.676 6,-6 0,-3.324 -2.676,-6 -6,-6 l -9,0 z" id="path4002" inkscape:connector-curvature="0" opacity="0.2" fill="#000000" color="#bebebe"/>
  <rect y="16" x="28" height="12" width="21" id="rect4376" opacity="0.15" fill="#000000" color="#bebebe" rx="6"/>
  <path inkscape:connector-curvature="0" id="rect4276" d="m 34,15 c -3.324,0 -6,2.676 -6,6 0,3.324 2.676,6 6,6 l 9,0 c 3.324,0 6,-2.676 6,-6 0,-3.324 -2.676,-6 -6,-6 l -9,0 z M 21,37 c -3.324,0 -6,2.676 -6,6 0,3.324 2.676,6 6,6 l 9,0 c 3.324,0 6,-2.676 6,-6 0,-3.324 -2.676,-6 -6,-6 l -9,0 z" fill="url(#linearGradient4918)" color="#bebebe"/>
  <path inkscape:connector-curvature="0" id="rect3957" d="M 20.75,14 C 17.010506,14 14,17.010506 14,20.75 l 0,0.5 c 0,0.08481 -0.0031,0.165963 0,0.25 0.132315,-3.621213 3.095323,-6.5 6.75,-6.5 l 22.5,0 c 3.654677,0 6.617685,2.878787 6.75,6.5 0.0031,-0.08404 0,-0.165187 0,-0.25 l 0,-0.5 C 50,17.010506 46.989494,14 43.25,14 l -22.5,0 z M 21,36 c -3.877991,0 -7,3.122009 -7,7 0,0.168747 0.01962,0.33431 0.03125,0.5 C 14.286845,39.857971 17.290757,37 21,37 l 22,0 c 3.709243,0 6.713155,2.857971 6.96875,6.5 C 49.980378,43.33431 50,43.168747 50,43 50,39.122009 46.877991,36 43,36 l -22,0 z" opacity="0.1" fill="#000000" color="#bebebe"/>
  <path inkscape:connector-curvature="0" id="rect3967" d="m 34,15 c -3.324,0 -6,2.676 -6,6 0,0.124857 0.02381,0.252079 0.03125,0.375 C 28.337417,18.342114 30.88375,16 34,16 l 9,0 c 3.11625,0 5.662583,2.342114 5.96875,5.375 C 48.976194,21.252079 49,21.124857 49,21 49,17.676 46.324,15 43,15 l -9,0 z M 21,37 c -3.324,0 -6,2.676 -6,6 0,0.124857 0.02381,0.252079 0.03125,0.375 C 15.337417,40.342114 17.88375,38 21,38 l 9,0 c 3.11625,0 5.662583,2.342114 5.96875,5.375 C 35.976194,43.252079 36,43.124857 36,43 36,39.676 33.324,37 30,37 l -9,0 z" opacity="0.4" fill="#ffffff" color="#bebebe"/>
 </g>
</svg>
