<?xml version="1.0" encoding="UTF-8" standalone="no"?>
<svg
   xmlns:dc="http://purl.org/dc/elements/1.1/"
   xmlns:cc="http://creativecommons.org/ns#"
   xmlns:rdf="http://www.w3.org/1999/02/22-rdf-syntax-ns#"
   xmlns:svg="http://www.w3.org/2000/svg"
   xmlns="http://www.w3.org/2000/svg"
   xmlns:xlink="http://www.w3.org/1999/xlink"
   version="1.1"
   id="svg5356"
   height="64px"
   width="64px">
  <defs
     id="defs5358">
    <clipPath
       id="clipPath12225"
       clipPathUnits="userSpaceOnUse">
      <path
         style="font-size:medium;font-style:normal;font-variant:normal;font-weight:normal;font-stretch:normal;text-indent:0;text-align:start;text-decoration:none;line-height:normal;letter-spacing:normal;word-spacing:normal;text-transform:none;direction:ltr;block-progression:tb;writing-mode:lr-tb;text-anchor:start;baseline-shift:baseline;color:#000000;fill:#000000;fill-opacity:1;stroke:none;stroke-width:2;marker:none;visibility:visible;display:inline;overflow:visible;enable-background:accumulate;font-family:Sans;-inkscape-font-specification:Sans"
         d="m 310.5,158 c -1.50002,0 -1.5,1.46875 -1.5,1.46875 L 309,172 l -1.5,0 c -1.5,0 -1.5,1.28125 -1.5,1.28125 l 1.34375,35.4375 c 0.0382,0.40456 0.24888,0.69804 0.46875,0.90625 0.21986,0.2082 0.48146,0.37682 0.90625,0.375 l 54.5625,0 c 0.42451,0.001 0.65511,-0.16676 0.875,-0.375 0.2199,-0.20825 0.43064,-0.50187 0.46875,-0.90625 l 1.375,-35.5 c 0,0 -0.009,-1.21877 -1.375,-1.21875 l -1.625,0 0,-7.5 c 0,0 0,-1.5064 -1.5,-1.5 l -21.03125,0.0937 C 335.46875,163.09375 336,158 331,158 l -20.5,0 z"
         id="path12227" />
    </clipPath>
    <linearGradient
       y2="183.99973"
       x2="336"
       y1="167.99973"
       x1="336"
       gradientUnits="userSpaceOnUse"
       id="linearGradient5294"
       xlink:href="#linearGradient11342" />
    <linearGradient
       id="linearGradient11342">
      <stop
         id="stop11344"
         offset="0"
         style="stop-color:#ffffff;stop-opacity:1;" />
      <stop
         id="stop11346"
         offset="1"
         style="stop-color:#ffffff;stop-opacity:0;" />
    </linearGradient>
    <clipPath
       id="clipPath12267"
       clipPathUnits="userSpaceOnUse">
      <path
         id="path12269"
         d="m 307.5,167.99972 c -0.35457,0 -0.64506,0.0626 -0.875,0.1875 -0.22994,0.12486 -0.36622,0.31678 -0.4375,0.4375 -0.082,0.13891 -0.12908,0.27141 -0.15625,0.375 -0.0272,0.10359 -0.0274,0.12696 -0.0312,0.21875 l 0,0.0312 0,0.0312 0,0.0312 1.34375,35.34375 0,0.0312 0,0.0312 0,0.0312 c 0.0473,0.36803 0.25881,0.67618 0.46875,0.875 0.0967,0.0916 0.21058,0.16825 0.375,0.25 0.16442,0.0817 0.34434,0.12566 0.53125,0.125 l 54.5625,0 c 0.1872,4.4e-4 0.3698,-0.0362 0.53125,-0.125 0.16145,-0.0888 0.25774,-0.16855 0.34375,-0.25 0.21008,-0.19895 0.42151,-0.50693 0.46875,-0.875 0.0108,-0.10912 0.008,-0.11455 0,-0.0312 l 0,-0.0312 1.375,-35.4375 c 0,0 0.0152,-0.32086 -0.15625,-0.625 -0.0644,-0.11425 -0.19054,-0.30572 -0.40625,-0.4375 -0.21571,-0.13178 -0.48648,-0.18751 -0.8125,-0.1875 l -57.125,0 z"
         style="font-size:medium;font-style:normal;font-variant:normal;font-weight:normal;font-stretch:normal;text-indent:0;text-align:start;text-decoration:none;line-height:normal;letter-spacing:normal;word-spacing:normal;text-transform:none;direction:ltr;block-progression:tb;writing-mode:lr-tb;text-anchor:start;baseline-shift:baseline;color:#000000;fill:#000000;fill-opacity:1;stroke:none;stroke-width:1;marker:none;visibility:visible;display:inline;overflow:visible;enable-background:accumulate;font-family:Sans;-inkscape-font-specification:Sans" />
    </clipPath>
    <linearGradient
       y2="212"
       x2="368"
       y1="148"
       x1="368"
       gradientUnits="userSpaceOnUse"
       id="linearGradient5300"
       xlink:href="#linearGradient4968-9"
       gradientTransform="translate(-304,-148)" />
    <linearGradient
       gradientTransform="translate(-304,-152.00028)"
       y2="180"
       x2="336"
       y1="164"
       x1="336"
       gradientUnits="userSpaceOnUse"
       id="linearGradient5303"
       xlink:href="#linearGradient11359-7" />
    <linearGradient
       id="linearGradient4968-9">
      <stop
         style="stop-color:#f7f7f7;stop-opacity:1;"
         offset="0"
         id="stop4970-7" />
      <stop
         id="stop3794"
         offset="0.66666681"
         style="stop-color:#dedede;stop-opacity:1;" />
      <stop
         id="stop4972-5"
         offset="1"
         style="stop-color:#c6c6c6;stop-opacity:1;" />
    </linearGradient>
    <linearGradient
       id="linearGradient11359-7">
      <stop
         id="stop11361-1"
         offset="0"
         style="stop-color:#f5f5f5;stop-opacity:1;" />
      <stop
         id="stop11363-8"
         offset="1"
         style="stop-color:#d7d7d7;stop-opacity:1;" />
    </linearGradient>
  </defs>
  <metadata
     id="metadata5361">
    <rdf:RDF>
      <cc:Work
         rdf:about="">
        <dc:format>image/svg+xml</dc:format>
        <dc:type
           rdf:resource="http://purl.org/dc/dcmitype/StillImage" />
        <dc:title />
      </cc:Work>
    </rdf:RDF>
  </metadata>
  <g
     id="layer1">
    <path
       style="font-size:medium;font-style:normal;font-variant:normal;font-weight:normal;font-stretch:normal;text-indent:0;text-align:start;text-decoration:none;line-height:normal;letter-spacing:normal;word-spacing:normal;text-transform:none;direction:ltr;block-progression:tb;writing-mode:lr-tb;text-anchor:start;baseline-shift:baseline;opacity:0.2;color:#000000;fill:#000000;fill-opacity:1;stroke:none;stroke-width:1;marker:none;visibility:visible;display:inline;overflow:visible;enable-background:accumulate;font-family:Sans;-inkscape-font-specification:Sans"
       d="m 3.5,21.49977 c -0.60888,0 -0.76171,0.18314 -0.875,0.375 -0.1053,0.17837 -0.124,0.3512 -0.125,0.375 l 0,0.0312 1.34375,35.375 0,0.0312 c 0.0305,0.23711 0.14773,0.40646 0.3125,0.5625 0.18507,0.1753 0.27764,0.251 0.5625,0.25 l 54.5625,0 c 0.28554,6.7e-4 0.34678,-0.0753 0.53125,-0.25 0.16477,-0.15604 0.2821,-0.32566 0.3125,-0.5625 10e-4,-0.0101 -9.9e-4,-0.0208 0,-0.0312 L 61.5,22.21847 c 0,0 0.0105,-0.15889 -0.0937,-0.34375 -0.10424,-0.18486 -0.24809,-0.37501 -0.78125,-0.375 l -57.125,0 z"
       id="path13872" />
    <path
       id="path12179"
       d="M 6.5 7 C 6.07637 7 6.1272 7.0608 6.0625 7.1875 C 5.998 7.3142 6 7.46875 6 7.46875 L 6 20 L 6 21 L 5.5 21 L 5.5 27.5 L 58.5 27.5 L 58.5 21 L 58 21 L 58 20 L 58 12.5 C 58 12.5 57.9746 12.32448 57.90625 12.1875 C 57.8379 12.0505 57.91525 11.998 57.5 12 L 36.46875 12.09375 C 33.62917 12.09378 32.08594 10.49218 30.96875 9.21875 C 29.85156 7.94532 29.16042 7 27 7 L 6.5 7 z "
       style="font-size:medium;font-style:normal;font-variant:normal;font-weight:normal;font-stretch:normal;text-indent:0;text-align:start;text-decoration:none;line-height:normal;letter-spacing:normal;word-spacing:normal;text-transform:none;direction:ltr;block-progression:tb;writing-mode:lr-tb;text-anchor:start;baseline-shift:baseline;color:#000000;fill:url(#linearGradient5303);fill-opacity:1;stroke:none;stroke-width:1;marker:none;visibility:visible;display:inline;overflow:visible;enable-background:accumulate;font-family:Sans;-inkscape-font-specification:Sans" />
    <path
       id="path12181"
       d="M 6 20.5 L 6 21 L 5 21 L 3.5 21 C 3.03472 21 3.10317 21.08672 3.0625 21.15625 C 3.03 21.21175 3.004 21.2309 3 21.25 L 3 21.28125 L 4.34375 56.625 C 4.35386 56.73204 4.38921 56.80133 4.5 56.90625 C 4.62805 57.02745 4.56034 57.00068 4.71875 57 L 59.28125 57 C 59.44145 57.0004 59.30761 57.05885 59.46875 56.90625 C 59.5795 56.80135 59.615 56.73155 59.625 56.625 L 61 21.21875 C 61 21.21875 61.001 21.1935 61 21.1875 C 60.9955 21.1674 60.99435 21.13885 60.96875 21.09375 C 60.93525 21.03475 61.01059 20.99999 60.625 21 L 59 21 L 58 21 L 58 20.5 L 6 20.5 z "
       style="font-size:medium;font-style:normal;font-variant:normal;font-weight:normal;font-stretch:normal;text-indent:0;text-align:start;text-decoration:none;line-height:normal;letter-spacing:normal;word-spacing:normal;text-transform:none;direction:ltr;block-progression:tb;writing-mode:lr-tb;text-anchor:start;baseline-shift:baseline;color:#000000;fill:url(#linearGradient5300);fill-opacity:1;stroke:none;stroke-width:1;marker:none;visibility:visible;display:inline;overflow:visible;enable-background:accumulate;font-family:Sans;-inkscape-font-specification:Sans" />
    <path
       clip-path="url(#clipPath12267)"
       style="font-size:medium;font-style:normal;font-variant:normal;font-weight:normal;font-stretch:normal;text-indent:0;text-align:start;text-decoration:none;line-height:normal;letter-spacing:normal;word-spacing:normal;text-transform:none;direction:ltr;block-progression:tb;writing-mode:lr-tb;text-anchor:start;baseline-shift:baseline;opacity:0.2;color:#000000;fill:none;stroke:url(#linearGradient5294);stroke-width:4;stroke-miterlimit:4;stroke-opacity:1;stroke-dasharray:none;marker:none;visibility:visible;display:inline;overflow:visible;enable-background:accumulate;font-family:Sans;-inkscape-font-specification:Sans"
       d="m 307.5,167.99972 c -0.35457,0 -0.64506,0.0626 -0.875,0.1875 -0.22994,0.12486 -0.36622,0.31678 -0.4375,0.4375 -0.082,0.13891 -0.12908,0.27141 -0.15625,0.375 -0.0272,0.10359 -0.0274,0.12696 -0.0312,0.21875 l 0,0.0312 0,0.0312 0,0.0312 1.34375,35.34375 0,0.0312 0,0.0312 0,0.0312 c 0.0473,0.36803 0.25881,0.67618 0.46875,0.875 0.0967,0.0916 0.21058,0.16825 0.375,0.25 0.16442,0.0817 0.34434,0.12566 0.53125,0.125 l 54.5625,0 c 0.1872,4.4e-4 0.3698,-0.0362 0.53125,-0.125 0.16145,-0.0888 0.25774,-0.16855 0.34375,-0.25 0.21008,-0.19895 0.42151,-0.50693 0.46875,-0.875 0.0108,-0.10912 0.008,-0.11455 0,-0.0312 l 0,-0.0312 1.375,-35.4375 c 0,0 0.0152,-0.32086 -0.15625,-0.625 -0.0644,-0.11425 -0.19054,-0.30572 -0.40625,-0.4375 -0.21571,-0.13178 -0.48648,-0.18751 -0.8125,-0.1875 l -57.125,0 z"
       id="path12257"
       transform="translate(-304,-148)" />
    <path
       transform="translate(-304,-152.00028)"
       id="path12216"
       clip-path="url(#clipPath12225)"
       d="m 310.5,157 c -1.07639,0 -1.8772,0.67358 -2.1875,1.28125 -0.3103,0.60767 -0.3125,1.1875 -0.3125,1.1875 L 308,171 l -0.5,0 c -1.03472,0 -1.85317,0.55385 -2.1875,1.125 -0.33433,0.57115 -0.3125,1.15625 -0.3125,1.15625 l 0,0.0312 1.34375,35.4375 0,0.0312 0,0.0312 c 0.0663,0.70208 0.4523,1.21975 0.78125,1.53125 0.31168,0.29516 0.90258,0.65921 1.59375,0.65625 l 54.5625,0 c 0.68882,0.002 1.28386,-0.39237 1.5625,-0.65625 0.32904,-0.3116 0.71507,-0.82904 0.78125,-1.53125 l 0,-0.0312 0,-0.0312 1.375,-35.5 0,-0.0312 c 0,0 0,-0.54338 -0.3125,-1.09375 -0.3125,-0.55037 -1.08209,-1.12501 -2.0625,-1.125 l -0.625,0 0,-6.5 c 0,0 0.0254,-0.57288 -0.28125,-1.1875 -0.30665,-0.61462 -1.134,-1.31713 -2.21875,-1.3125 l -21.03125,0.0937 c -2.16042,2e-5 -2.85156,-0.94532 -3.96875,-2.21875 C 335.38281,158.60157 333.83958,157 331,157 l -20.5,0 z m 0,2 20.5,0 c 2.16042,0 2.85156,0.94532 3.96875,2.21875 1.11719,1.27343 2.66042,2.87503 5.5,2.875 L 361.5,164 c 0.41525,-0.002 0.3379,0.0505 0.40625,0.1875 C 361.9746,164.32448 362,164.5 362,164.5 l 0,7.5 0,1 1,0 1.625,0 c 0.38559,-1e-5 0.31025,0.0347 0.34375,0.0937 0.0256,0.0451 0.0267,0.0736 0.0312,0.0937 0.001,0.006 0,0.0312 0,0.0312 l -1.375,35.40625 c -0.01,0.10655 -0.0455,0.17635 -0.15625,0.28125 -0.16114,0.1526 -0.0273,0.0941 -0.1875,0.0937 l -54.5625,0 c -0.15841,6.8e-4 -0.0907,0.0275 -0.21875,-0.0937 -0.11079,-0.10492 -0.14614,-0.17421 -0.15625,-0.28125 L 307,173.28125 307,173.25 c 0.004,-0.0191 0.03,-0.0382 0.0625,-0.0937 C 307.10317,173.08677 307.03472,173 307.5,173 l 1.5,0 1,0 0,-1 0,-12.53125 c 0,0 -0.002,-0.15455 0.0625,-0.28125 C 310.1272,159.0608 310.07637,159 310.5,159 z"
       style="font-size:medium;font-style:normal;font-variant:normal;font-weight:normal;font-stretch:normal;text-indent:0;text-align:start;text-decoration:none;line-height:normal;letter-spacing:normal;word-spacing:normal;text-transform:none;direction:ltr;block-progression:tb;writing-mode:lr-tb;text-anchor:start;baseline-shift:baseline;opacity:0.41000001;color:#000000;fill:#000000;fill-opacity:1;stroke:none;stroke-width:2;marker:none;visibility:visible;display:inline;overflow:visible;enable-background:accumulate;font-family:Sans;-inkscape-font-specification:Sans" />
    <rect
       y="19.999725"
       x="6"
       height="1"
       width="52"
       id="rect12245"
       style="opacity:0.41000001;color:#000000;fill:#000000;fill-opacity:1;stroke:none;stroke-width:2;marker:none;visibility:visible;display:inline;overflow:visible;enable-background:accumulate" />
  </g>
  <g
     id="layer2" />
</svg>
