<?xml version="1.0" encoding="UTF-8" standalone="no"?>
<!-- Created with Inkscape (http://www.inkscape.org/) -->

<svg
   xmlns:dc="http://purl.org/dc/elements/1.1/"
   xmlns:cc="http://creativecommons.org/ns#"
   xmlns:rdf="http://www.w3.org/1999/02/22-rdf-syntax-ns#"
   xmlns:svg="http://www.w3.org/2000/svg"
   xmlns="http://www.w3.org/2000/svg"
   xmlns:xlink="http://www.w3.org/1999/xlink"
   xmlns:sodipodi="http://sodipodi.sourceforge.net/DTD/sodipodi-0.dtd"
   xmlns:inkscape="http://www.inkscape.org/namespaces/inkscape"
   version="1.1"
   width="64"
   height="64"
   id="svg4161"
   inkscape:version="0.48.4 r9939"
   sodipodi:docname="system-software-update.svg">
  <sodipodi:namedview
     pagecolor="#ffffff"
     bordercolor="#666666"
     borderopacity="1"
     objecttolerance="10"
     gridtolerance="10"
     guidetolerance="10"
     inkscape:pageopacity="0"
     inkscape:pageshadow="2"
     inkscape:window-width="1364"
     inkscape:window-height="700"
     id="namedview45"
     showgrid="false"
     showborder="false"
     inkscape:snap-bbox="true"
     inkscape:bbox-paths="true"
     inkscape:bbox-nodes="true"
     inkscape:snap-bbox-edge-midpoints="true"
     inkscape:snap-bbox-midpoints="true"
     inkscape:zoom="1"
     inkscape:cx="54.776003"
     inkscape:cy="44.013701"
     inkscape:window-x="0"
     inkscape:window-y="28"
     inkscape:window-maximized="1"
     inkscape:current-layer="layer2">
    <inkscape:grid
       type="xygrid"
       id="grid3913"
       empspacing="4"
       visible="true"
       enabled="true"
       snapvisiblegridlinesonly="true" />
  </sodipodi:namedview>
  <defs
     id="defs4163">
    <linearGradient
       inkscape:collect="always"
       id="linearGradient3905">
      <stop
         style="stop-color:#ffffff;stop-opacity:1;"
         offset="0"
         id="stop3907" />
      <stop
         style="stop-color:#ffffff;stop-opacity:0;"
         offset="1"
         id="stop3909" />
    </linearGradient>
    <linearGradient
       id="linearGradient3844">
      <stop
         offset="0"
         style="stop-color:#505050;stop-opacity:1"
         id="stop3846" />
      <stop
         offset="0.26238"
         style="stop-color:#2b2b2b;stop-opacity:1"
         id="stop3848" />
      <stop
         offset="0.704952"
         style="stop-color:#0a0a0a;stop-opacity:1"
         id="stop3850" />
      <stop
         offset="1"
         style="stop-color:#000000;stop-opacity:1"
         id="stop3852" />
    </linearGradient>
    <linearGradient
       x1="20"
       y1="26.000008"
       x2="20"
       y2="13.000008"
       id="linearGradient4069"
       xlink:href="#linearGradient3680-6-6-6-3-7-1"
       gradientUnits="userSpaceOnUse"
       gradientTransform="matrix(1.326882,0,0,1.326882,-0.399219,-0.2324859)" />
    <linearGradient
       id="linearGradient3680-6-6-6-3-7-1">
      <stop
         id="stop3682-4-6-1-3-7-7"
         style="stop-color:#dcdcdc;stop-opacity:1"
         offset="0" />
      <stop
         id="stop3684-8-5-8-0-2-6"
         style="stop-color:#ffffff;stop-opacity:1"
         offset="1" />
    </linearGradient>
    <linearGradient
       x1="23.99999"
       y1="4.999989"
       x2="23.99999"
       y2="43"
       id="linearGradient3180"
       xlink:href="#linearGradient3924-2-2-5-8"
       gradientUnits="userSpaceOnUse"
       gradientTransform="matrix(1.4324324,0,0,1.4362832,-2.378381,-2.4707781)" />
    <linearGradient
       id="linearGradient3924-2-2-5-8">
      <stop
         id="stop3926-9-4-9-6"
         style="stop-color:#ffffff;stop-opacity:1"
         offset="0" />
      <stop
         id="stop3928-9-8-6-5"
         style="stop-color:#ffffff;stop-opacity:0.23529412"
         offset="0.06316455" />
      <stop
         id="stop3930-3-5-1-7"
         style="stop-color:#ffffff;stop-opacity:0.15686275"
         offset="0.95056331" />
      <stop
         id="stop3932-8-0-4-8"
         style="stop-color:#ffffff;stop-opacity:0.39215687"
         offset="1" />
    </linearGradient>
    <radialGradient
       cx="7.1183534"
       cy="9.9571075"
       r="12.671875"
       fx="7.1183534"
       fy="9.9571075"
       id="radialGradient3988-3"
       xlink:href="#linearGradient2867-449-88-871-390-598-476-591-434-148-57-177-8-3-3-6-4-8-8-8-5-7"
       gradientUnits="userSpaceOnUse"
       gradientTransform="matrix(0,12.890089,-15.824912,0,190.74237,-113.0978)" />
    <linearGradient
       id="linearGradient2867-449-88-871-390-598-476-591-434-148-57-177-8-3-3-6-4-8-8-8-5-7">
      <stop
         id="stop3750-1-0-7-6-6-1-3-9-3-9"
         style="stop-color:#505050;stop-opacity:1"
         offset="0" />
      <stop
         id="stop3752-3-7-4-0-32-8-923-0-7-0"
         style="stop-color:#2b2b2b;stop-opacity:1"
         offset="0.26238" />
      <stop
         id="stop3754-1-8-5-2-7-6-7-1-9-1"
         style="stop-color:#0a0a0a;stop-opacity:1"
         offset="0.704952" />
      <stop
         id="stop3756-1-6-2-6-6-1-96-6-0-1"
         style="stop-color:#000000;stop-opacity:1"
         offset="1" />
    </linearGradient>
    <radialGradient
       cx="4.9929786"
       cy="43.5"
       r="2.5"
       fx="4.9929786"
       fy="43.5"
       id="radialGradient3337-2-2"
       xlink:href="#linearGradient3688-166-749-4-0-3-8"
       gradientUnits="userSpaceOnUse"
       gradientTransform="matrix(2.003784,0,0,1.4,27.98813,-17.4)" />
    <linearGradient
       id="linearGradient3688-166-749-4-0-3-8">
      <stop
         id="stop2883-4-0-1-8"
         style="stop-color:#181818;stop-opacity:1"
         offset="0" />
      <stop
         id="stop2885-9-2-9-6"
         style="stop-color:#181818;stop-opacity:0"
         offset="1" />
    </linearGradient>
    <radialGradient
       cx="4.9929786"
       cy="43.5"
       r="2.5"
       fx="4.9929786"
       fy="43.5"
       id="radialGradient3339-1-4"
       xlink:href="#linearGradient3688-464-309-9-2-4-2"
       gradientUnits="userSpaceOnUse"
       gradientTransform="matrix(2.003784,0,0,1.4,-20.01187,-104.4)" />
    <linearGradient
       id="linearGradient3688-464-309-9-2-4-2">
      <stop
         id="stop2889-7-9-6-9"
         style="stop-color:#181818;stop-opacity:1"
         offset="0" />
      <stop
         id="stop2891-6-6-1-7"
         style="stop-color:#181818;stop-opacity:0"
         offset="1" />
    </linearGradient>
    <linearGradient
       id="linearGradient3702-501-757-8-4-1-1">
      <stop
         id="stop2895-8-9-9-1"
         style="stop-color:#181818;stop-opacity:0"
         offset="0" />
      <stop
         id="stop2897-7-8-7-7"
         style="stop-color:#181818;stop-opacity:1"
         offset="0.5" />
      <stop
         id="stop2899-4-5-1-5"
         style="stop-color:#181818;stop-opacity:0"
         offset="1" />
    </linearGradient>
    <linearGradient
       x1="25.058096"
       y1="47.027729"
       x2="25.058096"
       y2="39.999443"
       id="linearGradient4159"
       xlink:href="#linearGradient3702-501-757-8-4-1-1"
       gradientUnits="userSpaceOnUse" />
    <linearGradient
       inkscape:collect="always"
       xlink:href="#outerBackgroundGradient-6"
       id="linearGradient3884"
       gradientUnits="userSpaceOnUse"
       gradientTransform="translate(-64,-64)"
       x1="4.5"
       y1="32"
       x2="59.5"
       y2="32" />
    <linearGradient
       inkscape:collect="always"
       xlink:href="#linearGradient3702-501-757-8-4-1-1"
       id="linearGradient3897"
       gradientUnits="userSpaceOnUse"
       x1="25.058096"
       y1="47.027729"
       x2="25.058096"
       y2="39.999443"
       gradientTransform="matrix(1.5789502,0,0,0.7142857,-5.894751,27.928572)" />
    <radialGradient
       inkscape:collect="always"
       xlink:href="#linearGradient3688-464-309-9-2-4-2"
       id="radialGradient3900"
       gradientUnits="userSpaceOnUse"
       gradientTransform="matrix(3.1638751,0,0,0.99999998,-25.702995,-102.5)"
       cx="4.9929786"
       cy="43.5"
       fx="4.9929786"
       fy="43.5"
       r="2.5" />
    <radialGradient
       inkscape:collect="always"
       xlink:href="#linearGradient3688-166-749-4-0-3-8"
       id="radialGradient3903"
       gradientUnits="userSpaceOnUse"
       gradientTransform="matrix(3.1638751,0,0,0.99999998,38.297112,15.500001)"
       cx="4.9929786"
       cy="43.5"
       fx="4.9929786"
       fy="43.5"
       r="2.5" />
    <linearGradient
       inkscape:collect="always"
       xlink:href="#linearGradient3905"
       id="linearGradient3911"
       x1="32"
       y1="4"
       x2="32"
       y2="60"
       gradientUnits="userSpaceOnUse" />
    <linearGradient
       inkscape:collect="always"
       xlink:href="#linearGradient5618"
       id="linearGradient4083"
       x1="-1023.8622"
       y1="-808"
       x2="-984.86218"
       y2="-808"
       gradientUnits="userSpaceOnUse"
       gradientTransform="translate(980.3622,784)" />
    <linearGradient
       id="linearGradient5618">
      <stop
         style="stop-color:#3e3e3e;stop-opacity:1;"
         offset="0"
         id="stop5620" />
      <stop
         style="stop-color:#595959;stop-opacity:1;"
         offset="1"
         id="stop5622" />
    </linearGradient>
    <linearGradient
       id="linearGradient3721">
      <stop
         style="stop-color:#26ee2d;stop-opacity:0;"
         offset="0"
         id="stop3723" />
      <stop
         id="stop3725"
         offset="0.1952381"
         style="stop-color:#26ee2d;stop-opacity:1;" />
      <stop
         id="stop3727"
         offset="0.5"
         style="stop-color:#26ee2d;stop-opacity:1;" />
      <stop
         id="stop3729"
         offset="0.80476189"
         style="stop-color:#26ee2d;stop-opacity:1;" />
      <stop
         style="stop-color:#26ee2d;stop-opacity:0;"
         offset="1"
         id="stop3731" />
    </linearGradient>
    <linearGradient
       id="linearGradient3168">
      <stop
         style="stop-color:#26ee2d;stop-opacity:0;"
         offset="0"
         id="stop3170" />
      <stop
         id="stop3172"
         offset="0.1952381"
         style="stop-color:#26ee2d;stop-opacity:1;" />
      <stop
         id="stop3174"
         offset="0.5"
         style="stop-color:#26ee2d;stop-opacity:1;" />
      <stop
         id="stop3176"
         offset="0.80476189"
         style="stop-color:#26ee2d;stop-opacity:1;" />
      <stop
         style="stop-color:#26ee2d;stop-opacity:0;"
         offset="1"
         id="stop3178" />
    </linearGradient>
    <linearGradient
       inkscape:collect="always"
       xlink:href="#outerBackgroundGradient-0"
       id="linearGradient4083-2"
       x1="-1023.8622"
       y1="-808"
       x2="-984.86218"
       y2="-808"
       gradientUnits="userSpaceOnUse"
       gradientTransform="translate(980.3622,784)" />
    <linearGradient
       id="outerBackgroundGradient-0">
      <stop
         style="stop-color:#232d1e;stop-opacity:1;"
         offset="0"
         id="stop3864-8-6-2" />
      <stop
         style="stop-color:#36432f;stop-opacity:1;"
         offset="1"
         id="stop3866-9-1-6" />
    </linearGradient>
    <linearGradient
       inkscape:collect="always"
       xlink:href="#outerBackgroundGradient-6"
       id="linearGradient4564"
       gradientUnits="userSpaceOnUse"
       gradientTransform="translate(980.3622,784)"
       x1="-1023.8622"
       y1="-808"
       x2="-984.86218"
       y2="-808" />
    <linearGradient
       id="outerBackgroundGradient-6">
      <stop
         style="stop-color:#2ba051;stop-opacity:1"
         offset="0"
         id="stop3864-8-6-0" />
      <stop
         style="stop-color:#46bc6c;stop-opacity:1"
         offset="1"
         id="stop3866-9-1-7" />
    </linearGradient>
    <linearGradient
       gradientTransform="translate(-6,-2.5)"
       inkscape:collect="always"
       xlink:href="#linearGradient4724"
       id="linearGradient4722"
       x1="24"
       y1="44"
       x2="24"
       y2="4"
       gradientUnits="userSpaceOnUse" />
    <linearGradient
       id="linearGradient4724">
      <stop
         id="stop4726"
         offset="0"
         style="stop-color:#f2fff6;stop-opacity:1;" />
      <stop
         id="stop4728"
         offset="1"
         style="stop-color:#f4fff5;stop-opacity:1;" />
    </linearGradient>
    <linearGradient
       inkscape:collect="always"
       xlink:href="#linearGradient4724"
       id="linearGradient3972"
       gradientUnits="userSpaceOnUse"
       gradientTransform="matrix(1.3846153,0,0,1.3846153,-1.2307708,-1.2307561)"
       x1="24"
       y1="44"
       x2="24"
       y2="4" />
  </defs>
  <metadata
     id="metadata4166">
    <rdf:RDF>
      <cc:Work
         rdf:about="">
        <dc:format>image/svg+xml</dc:format>
        <dc:type
           rdf:resource="http://purl.org/dc/dcmitype/StillImage" />
        <dc:title></dc:title>
      </cc:Work>
    </rdf:RDF>
  </metadata>
  <g
     inkscape:groupmode="layer"
     id="layer1"
     inkscape:label="Background"
     style="display:inline">
    <rect
       width="7.8947511"
       height="5"
       x="54.105358"
       y="56.5"
       id="rect2801-5-5-7-9"
       style="opacity:0.6;fill:url(#radialGradient3903);fill-opacity:1;stroke:none" />
    <rect
       width="7.8947511"
       height="5"
       x="-9.8947506"
       y="-61.5"
       transform="scale(-1,-1)"
       id="rect3696-3-0-3-7"
       style="opacity:0.6;fill:url(#radialGradient3900);fill-opacity:1;stroke:none" />
    <rect
       width="44.210606"
       height="5.0000005"
       x="9.8947506"
       y="56.5"
       id="rect3700-5-6-8-4"
       style="opacity:0.6;fill:url(#linearGradient3897);fill-opacity:1;stroke:none" />
    <rect
       transform="matrix(0,-1,-1,0,0,0)"
       style="color:#000000;fill:url(#linearGradient3884);fill-opacity:1.0;fill-rule:nonzero;stroke:none;stroke-width:0.99999994000000003;marker:none;visibility:visible;display:inline;overflow:visible;enable-background:accumulate"
       id="rect5505-21-3-8-5-2"
       y="-59.5"
       x="-59.5"
       ry="3"
       rx="3"
       height="55"
       width="55" />
    <rect
       style="opacity:0.1;fill:none;stroke:url(#linearGradient3911);stroke-width:1;stroke-linecap:round;stroke-linejoin:round;stroke-miterlimit:4;stroke-opacity:1;stroke-dasharray:none;stroke-dashoffset:0"
       id="rect6741-5-0-2-3"
       y="5.4287739"
       x="5.4999986"
       ry="2"
       rx="2"
       height="53.142479"
       width="53" />
    <rect
       style="opacity:0.81;color:#000000;fill:none;stroke:#007625;stroke-width:1;stroke-linecap:round;stroke-linejoin:round;stroke-miterlimit:4;stroke-opacity:1;stroke-dasharray:none;stroke-dashoffset:0;marker:none;visibility:visible;display:inline;overflow:visible;enable-background:accumulate"
       id="rect5505-21-3-8-9-1-1"
       y="4.5000019"
       x="4.4999986"
       ry="3"
       rx="3"
       height="55"
       width="55" />
    <path
       style="opacity:0.15;color:#000000;fill:#ffffff;fill-opacity:1;fill-rule:nonzero;stroke:none;stroke-width:0.99999994;marker:none;visibility:visible;display:inline;overflow:visible;enable-background:accumulate"
       d="M 7.5,5 C 6.1063514,5 5,6.1063514 5,7.5 l 0,1 C 5,7.1063514 6.1063514,6 7.5,6 l 49,0 C 57.893649,6 59,7.1063514 59,8.5 l 0,-1 C 59,6.1063514 57.893649,5 56.5,5 l -49,0 z"
       id="rect3932"
       inkscape:connector-curvature="0" />
    <path
       id="path3946"
       d="M 7.5,59 C 6.1063514,59 5,57.893649 5,56.5 l 0,-1 C 5,56.893649 6.1063514,58 7.5,58 l 49,0 c 1.393649,0 2.5,-1.106351 2.5,-2.5 l 0,1 c 0,1.393649 -1.106351,2.5 -2.5,2.5 l -49,0 z"
       style="opacity:0.15;color:#000000;fill:#ffffff;fill-opacity:1;fill-rule:nonzero;stroke:none;stroke-width:0.99999994;marker:none;visibility:visible;display:inline;overflow:visible;enable-background:accumulate"
       inkscape:connector-curvature="0" />
  </g>
  <g
     inkscape:groupmode="layer"
     id="layer2"
     inkscape:label="Symbol"
     style="display:inline">
    <path
       style="fill:#000000;fill-opacity:1;fill-rule:nonzero;stroke:none;display:inline;enable-background:new;opacity:0.3"
       d="m 32.035999,15 c 3.65472,0 7.23744,1.097307 10.296,3.24 0.97776,0.684 1.188,2.010323 0.504,2.988 -0.68256,0.977816 -2.01168,1.225384 -2.988,0.54 -2.36304,-1.654616 -5.12928,-2.473893 -7.956,-2.448 -0.40608,0 -0.792,0 -1.188,0.036 -0.121016,0.01385 -0.23904,0.05677 -0.36,0.072 -0.32544,0.04016 -0.6552,0.0817 -0.972,0.144 -0.14112,0.0277 -0.2952,0.04016 -0.432,0.072 -0.31248,0.07062 -0.63216,0.159784 -0.936,0.252 -0.0965,0.03047 -0.19152,0.07616 -0.288,0.108 -0.34704,0.113538 -0.67248,0.22043 -1.008,0.36 -0.03462,0.01523 -0.0749,0.02215 -0.108,0.036 -2.01312,0.865384 -3.76992,2.220507 -5.148,3.888 -0.0083,0.01385 -0.02742,0.0263 -0.036,0.036 -1.93824,2.360077 -3.09456,5.353753 -3.096,8.64 l 3.6,0 -5.76,8.64 -5.76,-8.64 3.6,0 c 0.0014,-3.775707 1.17216,-7.254693 3.168,-10.152 0.0288,-0.04984 0.0389,-0.0983 0.072,-0.144 0.24768,-0.354184 0.52272,-0.6768 0.792,-1.008 0.0317,-0.04016 0.0749,-0.103849 0.108,-0.144 1.82592,-2.216216 4.0968,-3.92123 6.696,-5.04 0.072,-0.03184 0.144,-0.07753 0.216,-0.108 0.41472,-0.171416 0.83232,-0.325384 1.26,-0.468 0.15408,-0.05123 0.31104,-0.09692 0.468,-0.144 0.37296,-0.113538 0.7704,-0.200216 1.152,-0.288 0.21024,-0.04847 0.39888,-0.102465 0.612,-0.144 0.105097,-0.01938 0.22032,-0.054 0.324,-0.072 0.28512,-0.04985 0.57888,-0.07062 0.864,-0.108 0.19728,-0.02353 0.37728,-0.05262 0.576,-0.072 0.47808,-0.0443 0.9648,-0.0637 1.44,-0.072 0.0864,0 0.1656,0 0.252,0 l 0.036,0 z m 15.804,9.36 5.76,8.64 -3.6,0 c 0,3.7872 -1.19808,7.285016 -3.204,10.188 -0.0245,0.04016 -0.04458,0.06784 -0.072,0.108 -0.20736,0.296584 -0.4248,0.5832 -0.648,0.864 -0.0835,0.106616 -0.1656,0.220293 -0.252,0.324 -0.32832,0.39877 -0.68544,0.750184 -1.044,1.116 -0.03462,0.036 -0.0389,0.07477 -0.072,0.108 -1.20384,1.20517 -2.58768,2.247784 -4.068,3.06 -0.0389,0.02353 -0.06618,0.04985 -0.108,0.072 -0.42624,0.229016 -0.85104,0.416216 -1.296,0.612 -0.110903,0.04707 -0.24768,0.09554 -0.36,0.144 -0.38016,0.157016 -0.75888,0.301016 -1.152,0.432 -0.18576,0.0637 -0.35136,0.121847 -0.54,0.18 -0.34416,0.102465 -0.72576,0.204507 -1.08,0.288 -0.23472,0.054 -0.44496,0.0983 -0.684,0.144 -0.09942,0.01938 -0.19008,0.05538 -0.288,0.072 -0.33408,0.05816 -0.67392,0.103849 -1.008,0.144 -0.121016,0.01384 -0.23904,0.02353 -0.36,0.036 -0.60048,0.05815 -1.2024,0.108 -1.8,0.108 -3.65904,0 -7.23312,-1.1304 -10.296,-3.276 -0.97632,-0.685384 -1.224,-2.046323 -0.54,-3.024 0.68544,-0.9792 2.04912,-1.189384 3.024,-0.504 2.38032,1.667493 5.14512,2.48677 7.992,2.448 0.37584,0 0.74736,0 1.116,-0.036 0.1512,-0.01523 0.3168,-0.054 0.468,-0.072 0.29088,-0.03877 0.58032,-0.08862 0.864,-0.144 0.17424,-0.03323 0.33264,-0.06785 0.504,-0.108 0.27792,-0.06506 0.55728,-0.135693 0.828,-0.216 0.130984,-0.04015 0.2664,-0.06506 0.396,-0.108 0.31248,-0.105233 0.6336,-0.233307 0.936,-0.36 0.0691,-0.0277 0.14832,-0.04153 0.216,-0.072 0.35424,-0.155493 0.6696,-0.32123 1.008,-0.504 0.01578,-0.01385 0.05622,-0.0277 0.072,-0.036 1.1448,-0.62917 2.17728,-1.42283 3.096,-2.34 0.0144,-0.01523 0.02022,-0.01938 0.036,-0.036 0.28512,-0.286477 0.5688,-0.587493 0.828,-0.9 0.0547,-0.06647 0.125307,-0.14843 0.18,-0.216 1.87056,-2.34 2.988,-5.27483 2.988,-8.496 l -3.6,0 5.76,-8.64 z"
       id="path3979"
       inkscape:connector-curvature="0" />
    <path
       inkscape:connector-curvature="0"
       id="path2995"
       d="m 32.035999,14.000013 c 3.65472,0 7.23744,1.097307 10.296,3.24 0.97776,0.684 1.188,2.010323 0.504,2.988 -0.68256,0.977816 -2.01168,1.225384 -2.988,0.54 -2.36304,-1.654616 -5.12928,-2.473893 -7.956,-2.448 -0.40608,0 -0.792,0 -1.188,0.036 -0.121016,0.01385 -0.23904,0.05677 -0.36,0.072 -0.32544,0.04016 -0.6552,0.0817 -0.972,0.144 -0.14112,0.0277 -0.2952,0.04016 -0.432,0.072 -0.31248,0.07062 -0.63216,0.159784 -0.936,0.252 -0.0965,0.03047 -0.19152,0.07616 -0.288,0.108 -0.34704,0.113538 -0.67248,0.22043 -1.008,0.36 -0.03462,0.01523 -0.0749,0.02215 -0.108,0.036 -2.01312,0.865384 -3.76992,2.220507 -5.148,3.888 -0.0083,0.01385 -0.02742,0.0263 -0.036,0.036 -1.93824,2.360077 -3.09456,5.353753 -3.096,8.64 l 3.6,0 -5.76,8.64 -5.76,-8.64 3.6,0 c 0.0014,-3.775707 1.17216,-7.254693 3.168,-10.152 0.0288,-0.04984 0.0389,-0.0983 0.072,-0.144 0.24768,-0.354184 0.52272,-0.6768 0.792,-1.008 0.0317,-0.04016 0.0749,-0.103849 0.108,-0.144 1.82592,-2.216216 4.0968,-3.92123 6.696,-5.04 0.072,-0.03184 0.144,-0.07753 0.216,-0.108 0.41472,-0.171416 0.83232,-0.325384 1.26,-0.468 0.15408,-0.05123 0.31104,-0.09692 0.468,-0.144 0.37296,-0.113538 0.7704,-0.200216 1.152,-0.288 0.21024,-0.04847 0.39888,-0.102465 0.612,-0.144 0.105097,-0.01938 0.22032,-0.054 0.324,-0.072 0.28512,-0.04985 0.57888,-0.07062 0.864,-0.108 0.19728,-0.02353 0.37728,-0.05262 0.576,-0.072 0.47808,-0.0443 0.9648,-0.0637 1.44,-0.072 0.0864,0 0.1656,0 0.252,0 l 0.036,0 z m 15.804,9.36 5.76,8.64 -3.6,0 c 0,3.7872 -1.19808,7.285016 -3.204,10.188 -0.0245,0.04016 -0.04458,0.06784 -0.072,0.108 -0.20736,0.296584 -0.4248,0.5832 -0.648,0.864 -0.0835,0.106616 -0.1656,0.220293 -0.252,0.324 -0.32832,0.39877 -0.68544,0.750184 -1.044,1.116 -0.03462,0.036 -0.0389,0.07477 -0.072,0.108 -1.20384,1.20517 -2.58768,2.247784 -4.068,3.06 -0.0389,0.02353 -0.06618,0.04985 -0.108,0.072 -0.42624,0.229016 -0.85104,0.416216 -1.296,0.612 -0.110903,0.04707 -0.24768,0.09554 -0.36,0.144 -0.38016,0.157016 -0.75888,0.301016 -1.152,0.432 -0.18576,0.0637 -0.35136,0.121847 -0.54,0.18 -0.34416,0.102465 -0.72576,0.204507 -1.08,0.288 -0.23472,0.054 -0.44496,0.0983 -0.684,0.144 -0.09942,0.01938 -0.19008,0.05538 -0.288,0.072 -0.33408,0.05816 -0.67392,0.103849 -1.008,0.144 -0.121016,0.01384 -0.23904,0.02353 -0.36,0.036 -0.60048,0.05815 -1.2024,0.108 -1.8,0.108 -3.65904,0 -7.23312,-1.1304 -10.296,-3.276 -0.97632,-0.685384 -1.224,-2.046323 -0.54,-3.024 0.68544,-0.9792 2.04912,-1.189384 3.024,-0.504 2.38032,1.667493 5.14512,2.48677 7.992,2.448 0.37584,0 0.74736,0 1.116,-0.036 0.1512,-0.01523 0.3168,-0.054 0.468,-0.072 0.29088,-0.03877 0.58032,-0.08862 0.864,-0.144 0.17424,-0.03323 0.33264,-0.06785 0.504,-0.108 0.27792,-0.06506 0.55728,-0.135693 0.828,-0.216 0.130984,-0.04015 0.2664,-0.06506 0.396,-0.108 0.31248,-0.105233 0.6336,-0.233307 0.936,-0.36 0.0691,-0.0277 0.14832,-0.04153 0.216,-0.072 0.35424,-0.155493 0.6696,-0.32123 1.008,-0.504 0.01578,-0.01385 0.05622,-0.0277 0.072,-0.036 1.1448,-0.62917 2.17728,-1.42283 3.096,-2.34 0.0144,-0.01523 0.02022,-0.01938 0.036,-0.036 0.28512,-0.286477 0.5688,-0.587493 0.828,-0.9 0.0547,-0.06647 0.125307,-0.14843 0.18,-0.216 1.87056,-2.34 2.988,-5.27483 2.988,-8.496 l -3.6,0 5.76,-8.64 z"
       style="fill:url(#linearGradient3972);fill-opacity:1;fill-rule:nonzero;stroke:none;display:inline;enable-background:new" />
    <path
       style="fill:#ffffff;fill-opacity:1;fill-rule:nonzero;stroke:none;display:inline;enable-background:new"
       d="M 31.75 14 C 31.2748 14.0083 30.79058 14.0182 30.3125 14.0625 C 30.11378 14.08188 29.91603 14.13272 29.71875 14.15625 C 29.43363 14.19363 29.16012 14.20015 28.875 14.25 C 28.77132 14.268 28.636347 14.29312 28.53125 14.3125 C 28.31813 14.354035 28.14774 14.42028 27.9375 14.46875 C 27.5559 14.556534 27.15421 14.636462 26.78125 14.75 C 26.62429 14.79708 26.46658 14.85502 26.3125 14.90625 C 25.88482 15.048866 25.47722 15.203584 25.0625 15.375 C 24.9905 15.40547 24.91575 15.43691 24.84375 15.46875 C 22.24455 16.58752 19.95092 18.315034 18.125 20.53125 C 18.0919 20.571401 18.06295 20.61609 18.03125 20.65625 C 17.76197 20.98745 17.49768 21.302066 17.25 21.65625 C 17.2169 21.70195 17.18505 21.76266 17.15625 21.8125 C 15.16041 24.709807 14.0014 28.193043 14 31.96875 L 10.40625 31.96875 L 11.0625 32.96875 L 14 32.96875 C 14.0014 29.193043 15.16041 25.709807 17.15625 22.8125 C 17.18505 22.76266 17.2169 22.70195 17.25 22.65625 C 17.49768 22.302066 17.76197 21.98745 18.03125 21.65625 C 18.06295 21.61609 18.0919 21.571401 18.125 21.53125 C 19.95092 19.315034 22.24455 17.58752 24.84375 16.46875 C 24.91575 16.43691 24.9905 16.40547 25.0625 16.375 C 25.47722 16.203584 25.88482 16.048866 26.3125 15.90625 C 26.46658 15.85502 26.62429 15.79708 26.78125 15.75 C 27.15421 15.636462 27.5559 15.556534 27.9375 15.46875 C 28.14774 15.42028 28.31813 15.354035 28.53125 15.3125 C 28.636347 15.29312 28.77132 15.268 28.875 15.25 C 29.16012 15.20015 29.43363 15.19363 29.71875 15.15625 C 29.91603 15.13272 30.11378 15.08188 30.3125 15.0625 C 30.79058 15.0182 31.2748 15.0083 31.75 15 L 32 15 L 32.03125 15 C 35.68597 15 39.28519 16.107307 42.34375 18.25 C 42.787045 18.560111 43.071545 18.986929 43.1875 19.46875 C 43.384756 18.64303 43.085658 17.769008 42.34375 17.25 C 39.28519 15.107307 35.68597 14 32.03125 14 L 32 14 L 31.75 14 z M 47.84375 23.375 L 42.09375 32 L 42.75 32 L 47.84375 24.375 L 52.9375 32 L 53.59375 32 L 47.84375 23.375 z M 18.375 31.96875 C 18.35093 32.299463 18.312648 32.631506 18.3125 32.96875 L 21.25 32.96875 L 21.90625 31.96875 L 18.375 31.96875 z M 45.625 33 C 45.418032 35.824901 44.361057 38.406443 42.6875 40.5 C 42.632807 40.56757 42.5547 40.65228 42.5 40.71875 C 42.2408 41.031257 41.97262 41.338523 41.6875 41.625 C 41.67172 41.64162 41.67065 41.64102 41.65625 41.65625 C 40.73753 42.57342 39.7073 43.37083 38.5625 44 C 38.54672 44.0083 38.48453 44.0174 38.46875 44.03125 C 38.13035 44.21402 37.82299 44.375757 37.46875 44.53125 C 37.40107 44.56172 37.3191 44.56605 37.25 44.59375 C 36.9476 44.720443 36.62498 44.863517 36.3125 44.96875 C 36.1829 45.01169 36.068484 45.02235 35.9375 45.0625 C 35.66678 45.142807 35.37167 45.21619 35.09375 45.28125 C 34.92239 45.3214 34.76799 45.37302 34.59375 45.40625 C 34.31007 45.46163 34.00963 45.49248 33.71875 45.53125 C 33.56755 45.54925 33.4012 45.57852 33.25 45.59375 C 32.88136 45.62975 32.53209 45.65625 32.15625 45.65625 C 29.30937 45.69502 26.53657 44.854993 24.15625 43.1875 C 23.18137 42.502116 21.81044 42.7083 21.125 43.6875 C 20.762826 44.205174 20.682396 44.830852 20.8125 45.40625 C 20.874853 45.164237 20.973873 44.903514 21.125 44.6875 C 21.81044 43.7083 23.18137 43.502116 24.15625 44.1875 C 26.53657 45.854993 29.30937 46.69502 32.15625 46.65625 C 32.53209 46.65625 32.88136 46.62975 33.25 46.59375 C 33.4012 46.57852 33.56755 46.54925 33.71875 46.53125 C 34.00963 46.49248 34.31007 46.46163 34.59375 46.40625 C 34.76799 46.37302 34.92239 46.3214 35.09375 46.28125 C 35.37167 46.21619 35.66678 46.142807 35.9375 46.0625 C 36.068484 46.02235 36.1829 46.01169 36.3125 45.96875 C 36.62498 45.863517 36.9476 45.720443 37.25 45.59375 C 37.3191 45.56605 37.40107 45.56172 37.46875 45.53125 C 37.82299 45.375757 38.13035 45.21402 38.46875 45.03125 C 38.48453 45.0174 38.54672 45.0083 38.5625 45 C 39.7073 44.37083 40.73753 43.57342 41.65625 42.65625 C 41.67065 42.64102 41.67172 42.64162 41.6875 42.625 C 41.97262 42.338523 42.2408 42.031257 42.5 41.71875 C 42.5547 41.65228 42.632807 41.56757 42.6875 41.5 C 44.55806 39.16 45.6875 36.22117 45.6875 33 L 45.625 33 z "
       id="path3974" />
  </g>
</svg>
