<?xml version="1.0" encoding="UTF-8" standalone="no"?>
<svg xmlns="http://www.w3.org/2000/svg" xmlns:xlink="http://www.w3.org/1999/xlink" xmlns:sodipodi="http://sodipodi.sourceforge.net/DTD/sodipodi-0.dtd" xmlns:inkscape="http://www.inkscape.org/namespaces/inkscape" version="1.1" width="64" height="64">
 <defs id="defs4163">
  <linearGradient inkscape:collect="always" id="linearGradient3905">
   <stop id="stop3907" stop-color="#ffffff"/>
   <stop offset="1" id="stop3909" stop-color="#ffffff" stop-opacity="0"/>
  </linearGradient>
  <linearGradient id="linearGradient3844">
   <stop id="stop3846" stop-color="#505050"/>
   <stop offset="0.262" id="stop3848" stop-color="#2b2b2b"/>
   <stop offset="0.705" id="stop3850" stop-color="#0a0a0a"/>
   <stop offset="1" id="stop3852"/>
  </linearGradient>
  <linearGradient y1="26" x2="0" y2="13" id="linearGradient4069" xlink:href="#linearGradient3680-6-6-6-3-7-1" gradientUnits="userSpaceOnUse" gradientTransform="matrix(1.326882,0,0,1.326882,-0.399219,-0.2324859)"/>
  <linearGradient id="linearGradient3680-6-6-6-3-7-1">
   <stop id="stop3682-4-6-1-3-7-7" stop-color="#dcdcdc"/>
   <stop id="stop3684-8-5-8-0-2-6" offset="1" stop-color="#ffffff"/>
  </linearGradient>
  <linearGradient y1="5" x2="0" y2="43" id="linearGradient3180" xlink:href="#linearGradient3924-2-2-5-8" gradientUnits="userSpaceOnUse" gradientTransform="matrix(1.4324324,0,0,1.4362832,-2.378381,-2.4707781)"/>
  <linearGradient id="linearGradient3924-2-2-5-8">
   <stop id="stop3926-9-4-9-6" stop-color="#ffffff"/>
   <stop id="stop3928-9-8-6-5" offset="0.063" stop-color="#ffffff" stop-opacity="0.235"/>
   <stop id="stop3930-3-5-1-7" offset="0.951" stop-color="#ffffff" stop-opacity="0.157"/>
   <stop id="stop3932-8-0-4-8" offset="1" stop-color="#ffffff" stop-opacity="0.392"/>
  </linearGradient>
  <radialGradient cx="7.118" cy="9.957" r="12.672" id="radialGradient3988-3" xlink:href="#linearGradient3844" gradientUnits="userSpaceOnUse" gradientTransform="matrix(0,12.890089,-15.824912,0,190.74237,-113.0978)"/>
  <radialGradient cx="4.993" cy="43.5" r="2.5" id="radialGradient3337-2-2" xlink:href="#linearGradient3688-166-749-4-0-3-8" gradientUnits="userSpaceOnUse" gradientTransform="matrix(2.003784,0,0,1.4,27.98813,-17.4)"/>
  <linearGradient id="linearGradient3688-166-749-4-0-3-8">
   <stop id="stop2883-4-0-1-8" stop-color="#181818"/>
   <stop id="stop2885-9-2-9-6" offset="1" stop-color="#181818" stop-opacity="0"/>
  </linearGradient>
  <radialGradient cx="4.993" cy="43.5" r="2.5" id="radialGradient3339-1-4" xlink:href="#linearGradient3688-166-749-4-0-3-8" gradientUnits="userSpaceOnUse" gradientTransform="matrix(2.003784,0,0,1.4,-20.01187,-104.4)"/>
  <linearGradient id="linearGradient3702-501-757-8-4-1-1">
   <stop id="stop2895-8-9-9-1" stop-color="#181818" stop-opacity="0"/>
   <stop id="stop2897-7-8-7-7" offset="0.5" stop-color="#181818"/>
   <stop id="stop2899-4-5-1-5" offset="1" stop-color="#181818" stop-opacity="0"/>
  </linearGradient>
  <linearGradient y1="47.03" x2="0" y2="39.999" id="linearGradient4159" xlink:href="#linearGradient3702-501-757-8-4-1-1" gradientUnits="userSpaceOnUse"/>
  <linearGradient inkscape:collect="always" xlink:href="#outerBackgroundGradient" id="linearGradient3884" gradientUnits="userSpaceOnUse" gradientTransform="translate(-64,-64)" x1="4.5" x2="59.5"/>
  <linearGradient inkscape:collect="always" xlink:href="#linearGradient3702-501-757-8-4-1-1" id="linearGradient3897" gradientUnits="userSpaceOnUse" y1="47.03" x2="0" y2="39.999" gradientTransform="matrix(1.5789502,0,0,0.7142857,-5.894751,27.928572)"/>
  <radialGradient inkscape:collect="always" xlink:href="#linearGradient3688-166-749-4-0-3-8" id="radialGradient3900" gradientUnits="userSpaceOnUse" gradientTransform="matrix(3.1638751,0,0,0.99999998,-25.702995,-102.5)" cx="4.993" cy="43.5" r="2.5"/>
  <radialGradient inkscape:collect="always" xlink:href="#linearGradient3688-166-749-4-0-3-8" id="radialGradient3903" gradientUnits="userSpaceOnUse" gradientTransform="matrix(3.1638751,0,0,0.99999998,38.297112,15.500001)" cx="4.993" cy="43.5" r="2.5"/>
  <linearGradient inkscape:collect="always" xlink:href="#linearGradient3905" id="linearGradient3911" y1="4" x2="0" y2="60" gradientUnits="userSpaceOnUse"/>
  <linearGradient inkscape:collect="always" xlink:href="#linearGradient5618" id="linearGradient4083" x1="-1023.86" x2="-984.86" gradientUnits="userSpaceOnUse" gradientTransform="translate(980.3622,784)"/>
  <linearGradient id="linearGradient5618">
   <stop id="stop5620" stop-color="#3e3e3e"/>
   <stop offset="1" id="stop5622" stop-color="#595959"/>
  </linearGradient>
  <linearGradient id="linearGradient4157">
   <stop id="stop4159" stop-color="#ffeeea"/>
   <stop id="stop4161" offset="1" stop-color="#fff5ee"/>
  </linearGradient>
  <linearGradient inkscape:collect="always" xlink:href="#linearGradient3934" id="linearGradient4117" gradientUnits="userSpaceOnUse" gradientTransform="translate(980.3622,784)" x1="-1023.86" x2="-984.86"/>
  <linearGradient id="linearGradient3934">
   <stop id="stop3936" stop-color="#dd2f03"/>
   <stop offset="1" id="stop3938" stop-color="#e96300"/>
  </linearGradient>
  <linearGradient inkscape:collect="always" xlink:href="#linearGradient4157" id="linearGradient4318" y1="-161.37" x2="0" y2="-177.37" gradientUnits="userSpaceOnUse"/>
  <linearGradient inkscape:collect="always" xlink:href="#linearGradient4157" id="linearGradient4333" gradientUnits="userSpaceOnUse" y1="-161.37" x2="0" y2="-177.37" gradientTransform="matrix(4,0,0,4,-3202.0077,709.5)"/>
  <linearGradient inkscape:collect="always" xlink:href="#outerBackgroundGradient" id="linearGradient4564" gradientUnits="userSpaceOnUse" gradientTransform="translate(980.3622,784)" x1="-1023.86" x2="-984.86"/>
  <linearGradient id="outerBackgroundGradient">
   <stop id="stop3864-8-6" stop-color="#bd251d"/>
   <stop offset="1" id="stop3866-9-1" stop-color="#e22c1e"/>
  </linearGradient>
  <linearGradient x2="-984.86" x1="-1023.86" gradientTransform="translate(966.3622,794)" gradientUnits="userSpaceOnUse" id="linearGradient3061" xlink:href="#outerBackgroundGradient" inkscape:collect="always"/>
  <linearGradient inkscape:collect="always" xlink:href="#linearGradient4791" id="linearGradient4789" y1="44" x2="0" y2="4" gradientUnits="userSpaceOnUse"/>
  <linearGradient id="linearGradient4791">
   <stop id="stop4793" stop-color="#fff2f3"/>
   <stop offset="1" id="stop4795" stop-color="#fff5f4"/>
  </linearGradient>
  <linearGradient gradientTransform="translate(180,-10)" y2="4" x2="0" y1="44" gradientUnits="userSpaceOnUse" id="linearGradient3089" xlink:href="#linearGradient4791" inkscape:collect="always"/>
  <linearGradient inkscape:collect="always" xlink:href="#linearGradient4791" id="linearGradient4809" y1="64" x2="0" y2="0" gradientUnits="userSpaceOnUse"/>
 </defs>
 <metadata id="metadata4166"/>
 <g inkscape:groupmode="layer" id="layer1" inkscape:label="Background">
  <rect width="7.895" height="5" x="54.11" y="56.5" id="rect2801-5-5-7-9" opacity="0.6" fill="url(#radialGradient3903)"/>
  <rect width="7.895" height="5" x="-9.895" y="-61.5" transform="scale(-1,-1)" id="rect3696-3-0-3-7" opacity="0.6" fill="url(#radialGradient3900)"/>
  <rect width="44.21" height="5" x="9.895" y="56.5" id="rect3700-5-6-8-4" opacity="0.6" fill="url(#linearGradient3897)"/>
  <rect transform="matrix(0,-1,-1,0,0,0)" id="rect5505-21-3-8-5-2" y="-59.5" x="-59.5" rx="3" height="55" width="55" fill="url(#linearGradient3884)" color="#000000"/>
  <rect id="rect6741-5-0-2-3" y="5.429" x="5.5" rx="2" height="53.14" width="53" opacity="0.1" fill="none" stroke="url(#linearGradient3911)" stroke-linejoin="round" stroke-linecap="round"/>
  <rect id="rect5505-21-3-8-9-1-1" y="4.5" x="4.5" rx="3" height="55" width="55" opacity="0.61" fill="none" stroke="#800000" stroke-linejoin="round" stroke-linecap="round" color="#000000"/>
  <path d="M 7.5,5 C 6.1063514,5 5,6.1063514 5,7.5 l 0,1 C 5,7.1063514 6.1063514,6 7.5,6 l 49,0 C 57.893649,6 59,7.1063514 59,8.5 l 0,-1 C 59,6.1063514 57.893649,5 56.5,5 l -49,0 z" id="rect3932" inkscape:connector-curvature="0" opacity="0.15" fill="#ffffff" color="#000000"/>
  <path id="path3946" d="M 7.5,59 C 6.1063514,59 5,57.893649 5,56.5 l 0,-1 C 5,56.893649 6.1063514,58 7.5,58 l 49,0 c 1.393649,0 2.5,-1.106351 2.5,-2.5 l 0,1 c 0,1.393649 -1.106351,2.5 -2.5,2.5 l -49,0 z" inkscape:connector-curvature="0" opacity="0.15" fill="#ffffff" color="#000000"/>
 </g>
 <g inkscape:groupmode="layer" id="layer2" inkscape:label="Symbol">
  <path id="path4816" d="m 35.5,13.2185 -6.78125,9.75 -16.5,-7.5625 7.75,12.375 -7.21875,0.8125 6.875,4.125 -9.625,6.875 11.40625,0.90625 -2.625,12.28125 11,-6.5625 6.625,6.5625 2.3125,-8.09375 L 51.78125,48.406 42.375,37.12475 54,35.2185 43,30.781 51.78125,21.99975 38.59375,24.2185 35.5,13.2185 z m -5.5,11.78125 3,0 0,6 c -0.147,3.61458 -0.75,4.1875 -0.75,7 l -1.5,0 c 0,-2.8125 -0.73813,-3.99086 -0.75,-7 l 0,-6 z m 1.5,15 c 0.82843,0 1.5,0.67157 1.5,1.5 0,0.82843 -0.67157,1.5 -1.5,1.5 -0.82843,0 -1.5,-0.67157 -1.5,-1.5 0,-0.82843 0.67157,-1.5 1.5,-1.5 z" inkscape:connector-curvature="0" opacity="0.3"/>
  <path inkscape:connector-curvature="0" d="m 35.5,12.21875 -6.78125,9.75 -16.5,-7.5625 7.75,12.375 -7.21875,0.8125 6.875,4.125 -9.625,6.875 11.40625,0.90625 -2.625,12.28125 11,-6.5625 6.625,6.5625 2.3125,-8.09375 13.0625,3.71875 L 42.375,36.125 54,34.21875 43,29.78125 51.78125,21 38.59375,23.21875 35.5,12.21875 z M 30,24 l 3,0 0,6 c -0.147,3.61458 -0.75,4.1875 -0.75,7 l -1.5,0 c 0,-2.8125 -0.73813,-3.99086 -0.75,-7 l 0,-6 z m 1.5,15 C 32.32843,39 33,39.67157 33,40.5 33,41.32843 32.32843,42 31.5,42 30.67157,42 30,41.32843 30,40.5 30,39.67157 30.67157,39 31.5,39 z" id="path4355" fill="url(#linearGradient4809)"/>
  <path inkscape:connector-curvature="0" d="M 206.375,0.5 201.75,7.15625 190.5,2 195.78125,10.4375 190.875,11 195.5625,13.8125 189,18.5 196.78125,19.125 195,27.5 202.5,23 207,27.5 208.59375,21.96875 217.5,24.5 211.0625,16.8125 219,15.5 l -7.5,-3 6,-6 -9,1.5 -2.125,-7.5 z M 203,8 l 2,0 0,5 c -0.098,2.40972 -0.5,2.125 -0.5,4 l -1,0 c 0,-1.875 -0.49208,-1.99391 -0.5,-4 l 0,-5 z m 1,11 c 0.55228,0 1,0.44772 1,1 0,0.55228 -0.44772,1 -1,1 -0.55228,0 -1,-0.44772 -1,-1 0,-0.55228 0.44772,-1 1,-1 z" id="path4357" fill="url(#linearGradient3089)"/>
  <path d="M 35.5 12.21875 L 28.71875 21.96875 L 12.21875 14.40625 L 13.09375 15.8125 L 28.71875 22.96875 L 35.5 13.21875 L 38.59375 24.21875 L 50.59375 22.1875 L 51.78125 21 L 38.59375 23.21875 L 35.5 12.21875 z M 19.375 26.84375 L 12.75 27.59375 L 14.15625 28.4375 L 19.96875 27.78125 L 19.375 26.84375 z M 30 30 L 30 31 C 30.01187 34.00914 30.75 35.1875 30.75 38 L 32.25 38 C 32.25 35.1875 32.853 34.61458 33 31 L 33 30 C 32.853 33.61458 32.25 34.1875 32.25 37 L 30.75 37 C 30.75 34.1875 30.01187 33.00914 30 30 z M 43.71875 30.0625 L 43 30.78125 L 52.25 34.5 L 54 34.21875 L 43.71875 30.0625 z M 18.875 32.25 L 10 38.59375 L 11.25 38.6875 L 19.625 32.71875 L 18.875 32.25 z M 43.09375 37 L 42.375 37.125 L 50.6875 47.09375 L 51.78125 47.40625 L 43.09375 37 z M 21.1875 40.46875 L 18.78125 51.78125 L 19.03125 51.625 L 21.40625 40.5 L 21.1875 40.46875 z M 30.09375 41 C 30.040108 41.154319 30 41.32741 30 41.5 C 30 42.32843 30.67157 43 31.5 43 C 32.32843 43 33 42.32843 33 41.5 C 33 41.32741 32.959892 41.154319 32.90625 41 C 32.702411 41.586413 32.15584 42 31.5 42 C 30.84416 42 30.297589 41.586413 30.09375 41 z " id="path4811" fill="#ffffff"/>
 </g>
</svg>
