<?xml version="1.0" encoding="UTF-8" standalone="no"?>
<!-- Created with Inkscape (http://www.inkscape.org/) -->

<svg
   xmlns:dc="http://purl.org/dc/elements/1.1/"
   xmlns:cc="http://creativecommons.org/ns#"
   xmlns:rdf="http://www.w3.org/1999/02/22-rdf-syntax-ns#"
   xmlns:svg="http://www.w3.org/2000/svg"
   xmlns="http://www.w3.org/2000/svg"
   xmlns:xlink="http://www.w3.org/1999/xlink"
   xmlns:sodipodi="http://sodipodi.sourceforge.net/DTD/sodipodi-0.dtd"
   xmlns:inkscape="http://www.inkscape.org/namespaces/inkscape"
   version="1.1"
   width="64"
   height="64"
   id="svg4161"
   inkscape:version="0.48.4 r9939"
   sodipodi:docname="utilities-terminal.svg">
  <sodipodi:namedview
     pagecolor="#ffffff"
     bordercolor="#666666"
     borderopacity="1"
     objecttolerance="10"
     gridtolerance="10"
     guidetolerance="10"
     inkscape:pageopacity="0"
     inkscape:pageshadow="2"
     inkscape:window-width="1364"
     inkscape:window-height="700"
     id="namedview45"
     showgrid="false"
     showborder="false"
     inkscape:snap-bbox="true"
     inkscape:bbox-paths="true"
     inkscape:bbox-nodes="true"
     inkscape:snap-bbox-edge-midpoints="true"
     inkscape:snap-bbox-midpoints="true"
     inkscape:zoom="1"
     inkscape:cx="69.656642"
     inkscape:cy="43.840647"
     inkscape:window-x="0"
     inkscape:window-y="28"
     inkscape:window-maximized="1"
     inkscape:current-layer="layer2">
    <inkscape:grid
       type="xygrid"
       id="grid3913"
       empspacing="4"
       visible="true"
       enabled="true"
       snapvisiblegridlinesonly="true" />
  </sodipodi:namedview>
  <defs
     id="defs4163">
    <linearGradient
       inkscape:collect="always"
       id="linearGradient3905">
      <stop
         style="stop-color:#ffffff;stop-opacity:1;"
         offset="0"
         id="stop3907" />
      <stop
         style="stop-color:#ffffff;stop-opacity:0;"
         offset="1"
         id="stop3909" />
    </linearGradient>
    <linearGradient
       id="linearGradient3844">
      <stop
         offset="0"
         style="stop-color:#505050;stop-opacity:1"
         id="stop3846" />
      <stop
         offset="0.26238"
         style="stop-color:#2b2b2b;stop-opacity:1"
         id="stop3848" />
      <stop
         offset="0.704952"
         style="stop-color:#0a0a0a;stop-opacity:1"
         id="stop3850" />
      <stop
         offset="1"
         style="stop-color:#000000;stop-opacity:1"
         id="stop3852" />
    </linearGradient>
    <linearGradient
       x1="20"
       y1="26.000008"
       x2="20"
       y2="13.000008"
       id="linearGradient4069"
       xlink:href="#linearGradient3680-6-6-6-3-7-1"
       gradientUnits="userSpaceOnUse"
       gradientTransform="matrix(1.326882,0,0,1.326882,-0.399219,-0.2324859)" />
    <linearGradient
       id="linearGradient3680-6-6-6-3-7-1">
      <stop
         id="stop3682-4-6-1-3-7-7"
         style="stop-color:#dcdcdc;stop-opacity:1"
         offset="0" />
      <stop
         id="stop3684-8-5-8-0-2-6"
         style="stop-color:#ffffff;stop-opacity:1"
         offset="1" />
    </linearGradient>
    <linearGradient
       x1="23.99999"
       y1="4.999989"
       x2="23.99999"
       y2="43"
       id="linearGradient3180"
       xlink:href="#linearGradient3924-2-2-5-8"
       gradientUnits="userSpaceOnUse"
       gradientTransform="matrix(1.4324324,0,0,1.4362832,-2.378381,-2.4707781)" />
    <linearGradient
       id="linearGradient3924-2-2-5-8">
      <stop
         id="stop3926-9-4-9-6"
         style="stop-color:#ffffff;stop-opacity:1"
         offset="0" />
      <stop
         id="stop3928-9-8-6-5"
         style="stop-color:#ffffff;stop-opacity:0.23529412"
         offset="0.06316455" />
      <stop
         id="stop3930-3-5-1-7"
         style="stop-color:#ffffff;stop-opacity:0.15686275"
         offset="0.95056331" />
      <stop
         id="stop3932-8-0-4-8"
         style="stop-color:#ffffff;stop-opacity:0.39215687"
         offset="1" />
    </linearGradient>
    <radialGradient
       cx="7.1183534"
       cy="9.9571075"
       r="12.671875"
       fx="7.1183534"
       fy="9.9571075"
       id="radialGradient3988-3"
       xlink:href="#linearGradient2867-449-88-871-390-598-476-591-434-148-57-177-8-3-3-6-4-8-8-8-5-7"
       gradientUnits="userSpaceOnUse"
       gradientTransform="matrix(0,12.890089,-15.824912,0,190.74237,-113.0978)" />
    <linearGradient
       id="linearGradient2867-449-88-871-390-598-476-591-434-148-57-177-8-3-3-6-4-8-8-8-5-7">
      <stop
         id="stop3750-1-0-7-6-6-1-3-9-3-9"
         style="stop-color:#505050;stop-opacity:1"
         offset="0" />
      <stop
         id="stop3752-3-7-4-0-32-8-923-0-7-0"
         style="stop-color:#2b2b2b;stop-opacity:1"
         offset="0.26238" />
      <stop
         id="stop3754-1-8-5-2-7-6-7-1-9-1"
         style="stop-color:#0a0a0a;stop-opacity:1"
         offset="0.704952" />
      <stop
         id="stop3756-1-6-2-6-6-1-96-6-0-1"
         style="stop-color:#000000;stop-opacity:1"
         offset="1" />
    </linearGradient>
    <radialGradient
       cx="4.9929786"
       cy="43.5"
       r="2.5"
       fx="4.9929786"
       fy="43.5"
       id="radialGradient3337-2-2"
       xlink:href="#linearGradient3688-166-749-4-0-3-8"
       gradientUnits="userSpaceOnUse"
       gradientTransform="matrix(2.003784,0,0,1.4,27.98813,-17.4)" />
    <linearGradient
       id="linearGradient3688-166-749-4-0-3-8">
      <stop
         id="stop2883-4-0-1-8"
         style="stop-color:#181818;stop-opacity:1"
         offset="0" />
      <stop
         id="stop2885-9-2-9-6"
         style="stop-color:#181818;stop-opacity:0"
         offset="1" />
    </linearGradient>
    <radialGradient
       cx="4.9929786"
       cy="43.5"
       r="2.5"
       fx="4.9929786"
       fy="43.5"
       id="radialGradient3339-1-4"
       xlink:href="#linearGradient3688-464-309-9-2-4-2"
       gradientUnits="userSpaceOnUse"
       gradientTransform="matrix(2.003784,0,0,1.4,-20.01187,-104.4)" />
    <linearGradient
       id="linearGradient3688-464-309-9-2-4-2">
      <stop
         id="stop2889-7-9-6-9"
         style="stop-color:#181818;stop-opacity:1"
         offset="0" />
      <stop
         id="stop2891-6-6-1-7"
         style="stop-color:#181818;stop-opacity:0"
         offset="1" />
    </linearGradient>
    <linearGradient
       id="linearGradient3702-501-757-8-4-1-1">
      <stop
         id="stop2895-8-9-9-1"
         style="stop-color:#181818;stop-opacity:0"
         offset="0" />
      <stop
         id="stop2897-7-8-7-7"
         style="stop-color:#181818;stop-opacity:1"
         offset="0.5" />
      <stop
         id="stop2899-4-5-1-5"
         style="stop-color:#181818;stop-opacity:0"
         offset="1" />
    </linearGradient>
    <linearGradient
       x1="25.058096"
       y1="47.027729"
       x2="25.058096"
       y2="39.999443"
       id="linearGradient4159"
       xlink:href="#linearGradient3702-501-757-8-4-1-1"
       gradientUnits="userSpaceOnUse" />
    <linearGradient
       inkscape:collect="always"
       xlink:href="#linearGradient5618"
       id="linearGradient3884"
       gradientUnits="userSpaceOnUse"
       gradientTransform="translate(-64,-64)"
       x1="4.5"
       y1="32"
       x2="59.5"
       y2="32" />
    <linearGradient
       inkscape:collect="always"
       xlink:href="#linearGradient3702-501-757-8-4-1-1"
       id="linearGradient3897"
       gradientUnits="userSpaceOnUse"
       x1="25.058096"
       y1="47.027729"
       x2="25.058096"
       y2="39.999443"
       gradientTransform="matrix(1.5789502,0,0,0.7142857,-5.894751,27.928572)" />
    <radialGradient
       inkscape:collect="always"
       xlink:href="#linearGradient3688-464-309-9-2-4-2"
       id="radialGradient3900"
       gradientUnits="userSpaceOnUse"
       gradientTransform="matrix(3.1638751,0,0,0.99999998,-25.702995,-102.5)"
       cx="4.9929786"
       cy="43.5"
       fx="4.9929786"
       fy="43.5"
       r="2.5" />
    <radialGradient
       inkscape:collect="always"
       xlink:href="#linearGradient3688-166-749-4-0-3-8"
       id="radialGradient3903"
       gradientUnits="userSpaceOnUse"
       gradientTransform="matrix(3.1638751,0,0,0.99999998,38.297112,15.500001)"
       cx="4.9929786"
       cy="43.5"
       fx="4.9929786"
       fy="43.5"
       r="2.5" />
    <linearGradient
       inkscape:collect="always"
       xlink:href="#linearGradient3905"
       id="linearGradient3911"
       x1="32"
       y1="4"
       x2="32"
       y2="60"
       gradientUnits="userSpaceOnUse" />
    <linearGradient
       inkscape:collect="always"
       xlink:href="#linearGradient5618"
       id="linearGradient4083"
       x1="-1023.8622"
       y1="-808"
       x2="-984.86218"
       y2="-808"
       gradientUnits="userSpaceOnUse"
       gradientTransform="translate(980.3622,784)" />
    <linearGradient
       id="linearGradient5618">
      <stop
         style="stop-color:#3e3e3e;stop-opacity:1;"
         offset="0"
         id="stop5620" />
      <stop
         style="stop-color:#595959;stop-opacity:1;"
         offset="1"
         id="stop5622" />
    </linearGradient>
  </defs>
  <metadata
     id="metadata4166">
    <rdf:RDF>
      <cc:Work
         rdf:about="">
        <dc:format>image/svg+xml</dc:format>
        <dc:type
           rdf:resource="http://purl.org/dc/dcmitype/StillImage" />
        <dc:title></dc:title>
      </cc:Work>
    </rdf:RDF>
  </metadata>
  <g
     inkscape:groupmode="layer"
     id="layer1"
     inkscape:label="Background"
     style="display:inline">
    <rect
       width="7.8947511"
       height="5"
       x="54.105358"
       y="56.5"
       id="rect2801-5-5-7-9"
       style="opacity:0.6;fill:url(#radialGradient3903);fill-opacity:1;stroke:none" />
    <rect
       width="7.8947511"
       height="5"
       x="-9.8947506"
       y="-61.5"
       transform="scale(-1,-1)"
       id="rect3696-3-0-3-7"
       style="opacity:0.6;fill:url(#radialGradient3900);fill-opacity:1;stroke:none" />
    <rect
       width="44.210606"
       height="5.0000005"
       x="9.8947506"
       y="56.5"
       id="rect3700-5-6-8-4"
       style="opacity:0.6;fill:url(#linearGradient3897);fill-opacity:1;stroke:none" />
    <rect
       transform="matrix(0,-1,-1,0,0,0)"
       style="color:#000000;fill:url(#linearGradient3884);fill-opacity:1;fill-rule:nonzero;stroke:none;stroke-width:0.99999994;marker:none;visibility:visible;display:inline;overflow:visible;enable-background:accumulate"
       id="rect5505-21-3-8-5-2"
       y="-59.5"
       x="-59.5"
       ry="3"
       rx="3"
       height="55"
       width="55" />
    <rect
       style="opacity:0.1;fill:none;stroke:url(#linearGradient3911);stroke-width:1;stroke-linecap:round;stroke-linejoin:round;stroke-miterlimit:4;stroke-opacity:1;stroke-dasharray:none;stroke-dashoffset:0"
       id="rect6741-5-0-2-3"
       y="5.4287739"
       x="5.4999986"
       ry="2"
       rx="2"
       height="53.142479"
       width="53" />
    <rect
       style="opacity:0.61000001;color:#000000;fill:none;stroke:#000000;stroke-width:1;stroke-linecap:round;stroke-linejoin:round;stroke-miterlimit:4;stroke-opacity:1;stroke-dasharray:none;stroke-dashoffset:0;marker:none;visibility:visible;display:inline;overflow:visible;enable-background:accumulate"
       id="rect5505-21-3-8-9-1-1"
       y="4.5000019"
       x="4.4999986"
       ry="3"
       rx="3"
       height="55"
       width="55" />
    <path
       style="opacity:0.15;color:#000000;fill:#ffffff;fill-opacity:1;fill-rule:nonzero;stroke:none;stroke-width:0.99999994;marker:none;visibility:visible;display:inline;overflow:visible;enable-background:accumulate"
       d="M 7.5,5 C 6.1063514,5 5,6.1063514 5,7.5 l 0,1 C 5,7.1063514 6.1063514,6 7.5,6 l 49,0 C 57.893649,6 59,7.1063514 59,8.5 l 0,-1 C 59,6.1063514 57.893649,5 56.5,5 l -49,0 z"
       id="rect3932"
       inkscape:connector-curvature="0" />
    <path
       id="path3946"
       d="M 7.5,59 C 6.1063514,59 5,57.893649 5,56.5 l 0,-1 C 5,56.893649 6.1063514,58 7.5,58 l 49,0 c 1.393649,0 2.5,-1.106351 2.5,-2.5 l 0,1 c 0,1.393649 -1.106351,2.5 -2.5,2.5 l -49,0 z"
       style="opacity:0.15;color:#000000;fill:#ffffff;fill-opacity:1;fill-rule:nonzero;stroke:none;stroke-width:0.99999994;marker:none;visibility:visible;display:inline;overflow:visible;enable-background:accumulate"
       inkscape:connector-curvature="0" />
  </g>
  <g
     inkscape:groupmode="layer"
     id="layer2"
     inkscape:label="Symbol"
     style="display:inline">
    <g
       style="opacity:0.2;fill:#000000;fill-opacity:1;display:inline;enable-background:new"
       id="g4071"
       transform="translate(-286.94541,-136.92267)">
      <rect
         y="163"
         x="310"
         height="1.9999981"
         width="12"
         id="rect4073"
         style="color:#bebebe;fill:#000000;fill-opacity:1;fill-rule:nonzero;stroke:none;stroke-width:2;marker:none;visibility:visible;display:inline;overflow:visible;enable-background:accumulate" />
      <path
         sodipodi:nodetypes="ccccccccccccccccsccccscccccccccscccccccccccccsccc"
         inkscape:connector-curvature="0"
         id="path4075"
         style="font-size:17.2705555px;font-style:normal;font-variant:normal;font-weight:bold;font-stretch:normal;text-align:center;line-height:125%;letter-spacing:0px;word-spacing:0px;text-anchor:middle;fill:#000000;fill-opacity:1;stroke:none;display:inline;enable-background:new;font-family:Inconsolata;-inkscape-font-specification:Inconsolata Bold"
         d="m 301.97857,148.94195 2.16093,0 0,1.22282 c 0.59731,0.1195 1.14897,0.35137 1.65494,0.69571 0.51298,0.33732 0.97679,0.75544 1.39142,1.25438 l -1.27547,1.61277 c 0,0 -0.3821,-0.48298 -0.55869,-0.7062 -0.14056,-0.16163 -0.33029,-0.31974 -0.56922,-0.47435 -0.23191,-0.15459 -0.48137,-0.26351 -0.74841,-0.32677 l 0,3.17285 c 0.56921,0.18273 1.07167,0.38651 1.50737,0.61139 0.43569,0.22488 0.7976,0.48489 1.08573,0.78003 0.29514,0.29516 0.5165,0.62896 0.66409,1.00141 0.14756,0.36542 0.22134,0.78354 0.22136,1.25438 -2e-5,0.44272 -0.0772,0.86788 -0.2319,1.27546 -0.15461,0.40056 -0.37949,0.76599 -0.67464,1.09627 -0.28812,0.33029 -0.63949,0.6149 -1.0541,0.85382 -0.41462,0.23894 -0.88545,0.41111 -1.41249,0.51652 l 0,1.15951 -2.16093,0 0,-1.09627 c -0.66057,-0.1125 -1.29654,-0.3338 -1.90792,-0.66408 -0.61139,-0.33029 -1.15601,-0.75896 -1.63387,-1.28601 l 1.31764,-1.85522 0.61142,0.75895 c 0.23894,0.26002 0.49191,0.48138 0.75896,0.66409 0.27406,0.18271 0.59381,0.31272 0.95923,0.39002 l 0,-3.85803 c -0.51299,-0.18973 -0.97329,-0.40056 -1.38086,-0.63246 -0.40058,-0.23189 -0.7414,-0.48839 -1.0225,-0.76949 -0.27406,-0.28812 -0.48488,-0.60435 -0.63246,-0.9487 -0.14757,-0.35136 -0.22136,-0.73435 -0.22136,-1.14898 0,-0.39352 0.0738,-0.76948 0.22136,-1.12789 0.14758,-0.35839 0.3584,-0.68165 0.63246,-0.96977 0.27408,-0.28811 0.60436,-0.53407 0.99087,-0.73788 0.39352,-0.2108 0.82922,-0.36541 1.30708,-0.4638 l 0,-1.25439 m 2.05551,11.78489 c 0.37948,-0.13351 0.68516,-0.32325 0.91707,-0.56921 0.23893,-0.24596 0.35839,-0.57273 0.3584,-0.98032 -1e-5,-0.33731 -0.10537,-0.63246 -0.31623,-0.88545 -0.2038,-0.25298 -0.52355,-0.45678 -0.95924,-0.61138 l 0,3.04636 m -1.9501,-8.5277 c -0.29514,0.0773 -0.53408,0.21434 -0.71678,0.4111 -0.18272,0.19677 -0.27407,0.44976 -0.27407,0.75896 0,0.22488 0.0737,0.45678 0.22136,0.69571 0.14757,0.23893 0.40407,0.42164 0.76949,0.54813 l 0,-2.4139" />
    </g>
    <g
       transform="translate(-286.94541,-137.92267)"
       id="g3971"
       style="fill:#ffffff;fill-opacity:1;display:inline;enable-background:new">
      <rect
         style="color:#bebebe;fill:#ffffff;fill-opacity:1;fill-rule:nonzero;stroke:none;stroke-width:2;marker:none;visibility:visible;display:inline;overflow:visible;enable-background:accumulate"
         id="rect4066"
         width="12"
         height="1.9999981"
         x="310"
         y="163" />
      <path
         d="m 301.97857,148.94195 2.16093,0 0,1.22282 c 0.59731,0.1195 1.14897,0.35137 1.65494,0.69571 0.51298,0.33732 0.97679,0.75544 1.39142,1.25438 l -1.27547,1.61277 c 0,0 -0.3821,-0.48298 -0.55869,-0.7062 -0.14056,-0.16163 -0.33029,-0.31974 -0.56922,-0.47435 -0.23191,-0.15459 -0.48137,-0.26351 -0.74841,-0.32677 l 0,3.17285 c 0.56921,0.18273 1.07167,0.38651 1.50737,0.61139 0.43569,0.22488 0.7976,0.48489 1.08573,0.78003 0.29514,0.29516 0.5165,0.62896 0.66409,1.00141 0.14756,0.36542 0.22134,0.78354 0.22136,1.25438 -2e-5,0.44272 -0.0772,0.86788 -0.2319,1.27546 -0.15461,0.40056 -0.37949,0.76599 -0.67464,1.09627 -0.28812,0.33029 -0.63949,0.6149 -1.0541,0.85382 -0.41462,0.23894 -0.88545,0.41111 -1.41249,0.51652 l 0,1.15951 -2.16093,0 0,-1.09627 c -0.66057,-0.1125 -1.29654,-0.3338 -1.90792,-0.66408 -0.61139,-0.33029 -1.15601,-0.75896 -1.63387,-1.28601 l 1.31764,-1.85522 0.61142,0.75895 c 0.23894,0.26002 0.49191,0.48138 0.75896,0.66409 0.27406,0.18271 0.59381,0.31272 0.95923,0.39002 l 0,-3.85803 c -0.51299,-0.18973 -0.97329,-0.40056 -1.38086,-0.63246 -0.40058,-0.23189 -0.7414,-0.48839 -1.0225,-0.76949 -0.27406,-0.28812 -0.48488,-0.60435 -0.63246,-0.9487 -0.14757,-0.35136 -0.22136,-0.73435 -0.22136,-1.14898 0,-0.39352 0.0738,-0.76948 0.22136,-1.12789 0.14758,-0.35839 0.3584,-0.68165 0.63246,-0.96977 0.27408,-0.28811 0.60436,-0.53407 0.99087,-0.73788 0.39352,-0.2108 0.82922,-0.36541 1.30708,-0.4638 l 0,-1.25439 m 2.05551,11.78489 c 0.37948,-0.13351 0.68516,-0.32325 0.91707,-0.56921 0.23893,-0.24596 0.35839,-0.57273 0.3584,-0.98032 -1e-5,-0.33731 -0.10537,-0.63246 -0.31623,-0.88545 -0.2038,-0.25298 -0.52355,-0.45678 -0.95924,-0.61138 l 0,3.04636 m -1.9501,-8.5277 c -0.29514,0.0773 -0.53408,0.21434 -0.71678,0.4111 -0.18272,0.19677 -0.27407,0.44976 -0.27407,0.75896 0,0.22488 0.0737,0.45678 0.22136,0.69571 0.14757,0.23893 0.40407,0.42164 0.76949,0.54813 l 0,-2.4139"
         style="font-size:17.2705555px;font-style:normal;font-variant:normal;font-weight:bold;font-stretch:normal;text-align:center;line-height:125%;letter-spacing:0px;word-spacing:0px;text-anchor:middle;fill:#ffffff;fill-opacity:1;stroke:none;display:inline;enable-background:new;font-family:Inconsolata;-inkscape-font-specification:Inconsolata Bold"
         id="path3930-2"
         inkscape:connector-curvature="0"
         sodipodi:nodetypes="ccccccccccccccccsccccscccccccccscccccccccccccsccc" />
    </g>
  </g>
</svg>
