<?xml version="1.0" encoding="UTF-8" standalone="no"?>
<svg xmlns="http://www.w3.org/2000/svg" xmlns:xlink="http://www.w3.org/1999/xlink" xmlns:sodipodi="http://sodipodi.sourceforge.net/DTD/sodipodi-0.dtd" xmlns:inkscape="http://www.inkscape.org/namespaces/inkscape" version="1.1" width="64" height="64">
 <defs id="defs4163">
  <linearGradient inkscape:collect="always" id="linearGradient3905">
   <stop id="stop3907" stop-color="#ffffff"/>
   <stop offset="1" id="stop3909" stop-color="#ffffff" stop-opacity="0"/>
  </linearGradient>
  <linearGradient id="linearGradient3844">
   <stop id="stop3846" stop-color="#505050"/>
   <stop offset="0.262" id="stop3848" stop-color="#2b2b2b"/>
   <stop offset="0.705" id="stop3850" stop-color="#0a0a0a"/>
   <stop offset="1" id="stop3852"/>
  </linearGradient>
  <linearGradient y1="26" x2="0" y2="13" id="linearGradient4069" xlink:href="#linearGradient3680-6-6-6-3-7-1" gradientUnits="userSpaceOnUse" gradientTransform="matrix(1.326882,0,0,1.326882,-0.399219,-0.2324859)"/>
  <linearGradient id="linearGradient3680-6-6-6-3-7-1">
   <stop id="stop3682-4-6-1-3-7-7" stop-color="#dcdcdc"/>
   <stop id="stop3684-8-5-8-0-2-6" offset="1" stop-color="#ffffff"/>
  </linearGradient>
  <linearGradient y1="5" x2="0" y2="43" id="linearGradient3180" xlink:href="#linearGradient3924-2-2-5-8" gradientUnits="userSpaceOnUse" gradientTransform="matrix(1.4324324,0,0,1.4362832,-2.378381,-2.4707781)"/>
  <linearGradient id="linearGradient3924-2-2-5-8">
   <stop id="stop3926-9-4-9-6" stop-color="#ffffff"/>
   <stop id="stop3928-9-8-6-5" offset="0.063" stop-color="#ffffff" stop-opacity="0.235"/>
   <stop id="stop3930-3-5-1-7" offset="0.951" stop-color="#ffffff" stop-opacity="0.157"/>
   <stop id="stop3932-8-0-4-8" offset="1" stop-color="#ffffff" stop-opacity="0.392"/>
  </linearGradient>
  <radialGradient cx="7.118" cy="9.957" r="12.672" id="radialGradient3988-3" xlink:href="#linearGradient3844" gradientUnits="userSpaceOnUse" gradientTransform="matrix(0,12.890089,-15.824912,0,190.74237,-113.0978)"/>
  <radialGradient cx="4.993" cy="43.5" r="2.5" id="radialGradient3337-2-2" xlink:href="#linearGradient3688-166-749-4-0-3-8" gradientUnits="userSpaceOnUse" gradientTransform="matrix(2.003784,0,0,1.4,27.98813,-17.4)"/>
  <linearGradient id="linearGradient3688-166-749-4-0-3-8">
   <stop id="stop2883-4-0-1-8" stop-color="#181818"/>
   <stop id="stop2885-9-2-9-6" offset="1" stop-color="#181818" stop-opacity="0"/>
  </linearGradient>
  <radialGradient cx="4.993" cy="43.5" r="2.5" id="radialGradient3339-1-4" xlink:href="#linearGradient3688-166-749-4-0-3-8" gradientUnits="userSpaceOnUse" gradientTransform="matrix(2.003784,0,0,1.4,-20.01187,-104.4)"/>
  <linearGradient id="linearGradient3702-501-757-8-4-1-1">
   <stop id="stop2895-8-9-9-1" stop-color="#181818" stop-opacity="0"/>
   <stop id="stop2897-7-8-7-7" offset="0.5" stop-color="#181818"/>
   <stop id="stop2899-4-5-1-5" offset="1" stop-color="#181818" stop-opacity="0"/>
  </linearGradient>
  <linearGradient y1="47.03" x2="0" y2="39.999" id="linearGradient4159" xlink:href="#linearGradient3702-501-757-8-4-1-1" gradientUnits="userSpaceOnUse"/>
  <linearGradient inkscape:collect="always" xlink:href="#linearGradient5618" id="linearGradient3884" gradientUnits="userSpaceOnUse" gradientTransform="translate(-64,-64)" x1="4.5" x2="59.5"/>
  <linearGradient inkscape:collect="always" xlink:href="#linearGradient3702-501-757-8-4-1-1" id="linearGradient3897" gradientUnits="userSpaceOnUse" y1="47.03" x2="0" y2="39.999" gradientTransform="matrix(1.5789502,0,0,0.7142857,-5.894751,27.928572)"/>
  <radialGradient inkscape:collect="always" xlink:href="#linearGradient3688-166-749-4-0-3-8" id="radialGradient3900" gradientUnits="userSpaceOnUse" gradientTransform="matrix(3.1638751,0,0,0.99999998,-25.702995,-102.5)" cx="4.993" cy="43.5" r="2.5"/>
  <radialGradient inkscape:collect="always" xlink:href="#linearGradient3688-166-749-4-0-3-8" id="radialGradient3903" gradientUnits="userSpaceOnUse" gradientTransform="matrix(3.1638751,0,0,0.99999998,38.297112,15.500001)" cx="4.993" cy="43.5" r="2.5"/>
  <linearGradient inkscape:collect="always" xlink:href="#linearGradient3905" id="linearGradient3911" y1="4" x2="0" y2="60" gradientUnits="userSpaceOnUse"/>
  <linearGradient inkscape:collect="always" xlink:href="#linearGradient5618" id="linearGradient4083" x1="-1023.86" x2="-984.86" gradientUnits="userSpaceOnUse" gradientTransform="translate(980.3622,784)"/>
  <linearGradient id="linearGradient5618">
   <stop id="stop5620" stop-color="#3e3e3e"/>
   <stop offset="1" id="stop5622" stop-color="#595959"/>
  </linearGradient>
 </defs>
 <metadata id="metadata4166"/>
 <g inkscape:groupmode="layer" id="layer1" inkscape:label="Background">
  <rect width="7.895" height="5" x="54.11" y="56.5" id="rect2801-5-5-7-9" opacity="0.6" fill="url(#radialGradient3903)"/>
  <rect width="7.895" height="5" x="-9.895" y="-61.5" transform="scale(-1,-1)" id="rect3696-3-0-3-7" opacity="0.6" fill="url(#radialGradient3900)"/>
  <rect width="44.21" height="5" x="9.895" y="56.5" id="rect3700-5-6-8-4" opacity="0.6" fill="url(#linearGradient3897)"/>
  <rect transform="matrix(0,-1,-1,0,0,0)" id="rect5505-21-3-8-5-2" y="-59.5" x="-59.5" rx="3" height="55" width="55" fill="url(#linearGradient3884)" color="#000000"/>
  <rect id="rect6741-5-0-2-3" y="5.429" x="5.5" rx="2" height="53.14" width="53" opacity="0.1" fill="none" stroke="url(#linearGradient3911)" stroke-linejoin="round" stroke-linecap="round"/>
  <rect id="rect5505-21-3-8-9-1-1" y="4.5" x="4.5" rx="3" height="55" width="55" opacity="0.61" fill="none" stroke="#000000" stroke-linejoin="round" stroke-linecap="round" color="#000000"/>
  <path d="M 7.5,5 C 6.1063514,5 5,6.1063514 5,7.5 l 0,1 C 5,7.1063514 6.1063514,6 7.5,6 l 49,0 C 57.893649,6 59,7.1063514 59,8.5 l 0,-1 C 59,6.1063514 57.893649,5 56.5,5 l -49,0 z" id="rect3932" inkscape:connector-curvature="0" opacity="0.15" fill="#ffffff" color="#000000"/>
  <path id="path3946" d="M 7.5,59 C 6.1063514,59 5,57.893649 5,56.5 l 0,-1 C 5,56.893649 6.1063514,58 7.5,58 l 49,0 c 1.393649,0 2.5,-1.106351 2.5,-2.5 l 0,1 c 0,1.393649 -1.106351,2.5 -2.5,2.5 l -49,0 z" inkscape:connector-curvature="0" opacity="0.15" fill="#ffffff" color="#000000"/>
 </g>
 <g inkscape:groupmode="layer" id="layer2" inkscape:label="Symbol">
  <g id="g4071" transform="translate(-286.94541,-136.92267)" opacity="0.2" enable-background="new">
   <rect y="163" x="310" height="2" width="12" id="rect4073" color="#bebebe" stroke-width="2"/>
   <path sodipodi:nodetypes="ccccccccccccccccsccccscccccccccscccccccccccccsccc" inkscape:connector-curvature="0" id="path4075" d="m 301.97857,148.94195 2.16093,0 0,1.22282 c 0.59731,0.1195 1.14897,0.35137 1.65494,0.69571 0.51298,0.33732 0.97679,0.75544 1.39142,1.25438 l -1.27547,1.61277 c 0,0 -0.3821,-0.48298 -0.55869,-0.7062 -0.14056,-0.16163 -0.33029,-0.31974 -0.56922,-0.47435 -0.23191,-0.15459 -0.48137,-0.26351 -0.74841,-0.32677 l 0,3.17285 c 0.56921,0.18273 1.07167,0.38651 1.50737,0.61139 0.43569,0.22488 0.7976,0.48489 1.08573,0.78003 0.29514,0.29516 0.5165,0.62896 0.66409,1.00141 0.14756,0.36542 0.22134,0.78354 0.22136,1.25438 -2e-5,0.44272 -0.0772,0.86788 -0.2319,1.27546 -0.15461,0.40056 -0.37949,0.76599 -0.67464,1.09627 -0.28812,0.33029 -0.63949,0.6149 -1.0541,0.85382 -0.41462,0.23894 -0.88545,0.41111 -1.41249,0.51652 l 0,1.15951 -2.16093,0 0,-1.09627 c -0.66057,-0.1125 -1.29654,-0.3338 -1.90792,-0.66408 -0.61139,-0.33029 -1.15601,-0.75896 -1.63387,-1.28601 l 1.31764,-1.85522 0.61142,0.75895 c 0.23894,0.26002 0.49191,0.48138 0.75896,0.66409 0.27406,0.18271 0.59381,0.31272 0.95923,0.39002 l 0,-3.85803 c -0.51299,-0.18973 -0.97329,-0.40056 -1.38086,-0.63246 -0.40058,-0.23189 -0.7414,-0.48839 -1.0225,-0.76949 -0.27406,-0.28812 -0.48488,-0.60435 -0.63246,-0.9487 -0.14757,-0.35136 -0.22136,-0.73435 -0.22136,-1.14898 0,-0.39352 0.0738,-0.76948 0.22136,-1.12789 0.14758,-0.35839 0.3584,-0.68165 0.63246,-0.96977 0.27408,-0.28811 0.60436,-0.53407 0.99087,-0.73788 0.39352,-0.2108 0.82922,-0.36541 1.30708,-0.4638 l 0,-1.25439 m 2.05551,11.78489 c 0.37948,-0.13351 0.68516,-0.32325 0.91707,-0.56921 0.23893,-0.24596 0.35839,-0.57273 0.3584,-0.98032 -1e-5,-0.33731 -0.10537,-0.63246 -0.31623,-0.88545 -0.2038,-0.25298 -0.52355,-0.45678 -0.95924,-0.61138 l 0,3.04636 m -1.9501,-8.5277 c -0.29514,0.0773 -0.53408,0.21434 -0.71678,0.4111 -0.18272,0.19677 -0.27407,0.44976 -0.27407,0.75896 0,0.22488 0.0737,0.45678 0.22136,0.69571 0.14757,0.23893 0.40407,0.42164 0.76949,0.54813 l 0,-2.4139"/>
  </g>
  <g transform="translate(-286.94541,-137.92267)" id="g3971" fill="#ffffff" enable-background="new">
   <rect id="rect4066" width="12" height="2" x="310" y="163" color="#bebebe" stroke-width="2"/>
   <path d="m 301.97857,148.94195 2.16093,0 0,1.22282 c 0.59731,0.1195 1.14897,0.35137 1.65494,0.69571 0.51298,0.33732 0.97679,0.75544 1.39142,1.25438 l -1.27547,1.61277 c 0,0 -0.3821,-0.48298 -0.55869,-0.7062 -0.14056,-0.16163 -0.33029,-0.31974 -0.56922,-0.47435 -0.23191,-0.15459 -0.48137,-0.26351 -0.74841,-0.32677 l 0,3.17285 c 0.56921,0.18273 1.07167,0.38651 1.50737,0.61139 0.43569,0.22488 0.7976,0.48489 1.08573,0.78003 0.29514,0.29516 0.5165,0.62896 0.66409,1.00141 0.14756,0.36542 0.22134,0.78354 0.22136,1.25438 -2e-5,0.44272 -0.0772,0.86788 -0.2319,1.27546 -0.15461,0.40056 -0.37949,0.76599 -0.67464,1.09627 -0.28812,0.33029 -0.63949,0.6149 -1.0541,0.85382 -0.41462,0.23894 -0.88545,0.41111 -1.41249,0.51652 l 0,1.15951 -2.16093,0 0,-1.09627 c -0.66057,-0.1125 -1.29654,-0.3338 -1.90792,-0.66408 -0.61139,-0.33029 -1.15601,-0.75896 -1.63387,-1.28601 l 1.31764,-1.85522 0.61142,0.75895 c 0.23894,0.26002 0.49191,0.48138 0.75896,0.66409 0.27406,0.18271 0.59381,0.31272 0.95923,0.39002 l 0,-3.85803 c -0.51299,-0.18973 -0.97329,-0.40056 -1.38086,-0.63246 -0.40058,-0.23189 -0.7414,-0.48839 -1.0225,-0.76949 -0.27406,-0.28812 -0.48488,-0.60435 -0.63246,-0.9487 -0.14757,-0.35136 -0.22136,-0.73435 -0.22136,-1.14898 0,-0.39352 0.0738,-0.76948 0.22136,-1.12789 0.14758,-0.35839 0.3584,-0.68165 0.63246,-0.96977 0.27408,-0.28811 0.60436,-0.53407 0.99087,-0.73788 0.39352,-0.2108 0.82922,-0.36541 1.30708,-0.4638 l 0,-1.25439 m 2.05551,11.78489 c 0.37948,-0.13351 0.68516,-0.32325 0.91707,-0.56921 0.23893,-0.24596 0.35839,-0.57273 0.3584,-0.98032 -1e-5,-0.33731 -0.10537,-0.63246 -0.31623,-0.88545 -0.2038,-0.25298 -0.52355,-0.45678 -0.95924,-0.61138 l 0,3.04636 m -1.9501,-8.5277 c -0.29514,0.0773 -0.53408,0.21434 -0.71678,0.4111 -0.18272,0.19677 -0.27407,0.44976 -0.27407,0.75896 0,0.22488 0.0737,0.45678 0.22136,0.69571 0.14757,0.23893 0.40407,0.42164 0.76949,0.54813 l 0,-2.4139" id="path3930-2" inkscape:connector-curvature="0" sodipodi:nodetypes="ccccccccccccccccsccccscccccccccscccccccccccccsccc"/>
  </g>
 </g>
</svg>
