<?xml version="1.0" encoding="UTF-8" standalone="no"?>
<svg xmlns="http://www.w3.org/2000/svg" xmlns:xlink="http://www.w3.org/1999/xlink" xmlns:sodipodi="http://sodipodi.sourceforge.net/DTD/sodipodi-0.dtd" xmlns:inkscape="http://www.inkscape.org/namespaces/inkscape" width="32" height="32" version="1.1">
 <defs id="defs5016">
  <linearGradient id="linearGradient4025">
   <stop id="stop4027" stop-color="#ffffff"/>
   <stop offset="1" id="stop4029" stop-color="#ff1e00"/>
  </linearGradient>
  <linearGradient id="linearGradient3969">
   <stop id="stop3971" stop-color="#a7a7a7"/>
   <stop id="stop3973" offset="0.125" stop-color="#e6e6e6"/>
   <stop offset="1" id="stop3975" stop-color="#f2f2f2"/>
  </linearGradient>
  <linearGradient id="linearGradient3945">
   <stop id="stop3947" stop-color="#a7a7a7"/>
   <stop offset="0.25" id="stop3949" stop-color="#e6e6e6"/>
   <stop id="stop3951" offset="1" stop-color="#f2f2f2"/>
  </linearGradient>
  <linearGradient id="linearGradient3937">
   <stop id="stop3939" stop-color="#a7a7a7"/>
   <stop offset="0.313" id="stop3941" stop-color="#e6e6e6"/>
   <stop id="stop3943" offset="1" stop-color="#f2f2f2"/>
  </linearGradient>
  <linearGradient id="linearGradient4033">
   <stop id="stop4035" stop-color="#ffffff"/>
   <stop offset="1" id="stop4037" stop-color="#0051ff"/>
  </linearGradient>
  <linearGradient id="linearGradient3107">
   <stop id="stop3109" stop-color="#232323"/>
   <stop offset="0.783" id="stop3111" stop-color="#535353"/>
   <stop offset="0.783" id="stop3113" stop-color="#676767"/>
   <stop id="stop3115" offset="1" stop-color="#676767"/>
  </linearGradient>
  <linearGradient id="linearGradient3988-5">
   <stop id="stop3990-5" stop-color="#ededed"/>
   <stop offset="1" id="stop3992-0" stop-color="#fafafa"/>
  </linearGradient>
  <linearGradient id="linearGradient3960">
   <stop id="stop3962" stop-opacity="0"/>
   <stop id="stop3970" offset="0.5"/>
   <stop offset="1" id="stop3964" stop-opacity="0"/>
  </linearGradient>
  <linearGradient inkscape:collect="always" id="linearGradient3952">
   <stop id="stop3954"/>
   <stop offset="1" id="stop3956" stop-opacity="0"/>
  </linearGradient>
  <radialGradient inkscape:collect="always" xlink:href="#linearGradient3952" id="radialGradient4001" gradientUnits="userSpaceOnUse" gradientTransform="matrix(1,0,0,0.75,0,10.875)" cx="9" cy="43.5" r="2"/>
  <linearGradient inkscape:collect="always" xlink:href="#linearGradient3988-5" id="linearGradient5128" gradientUnits="userSpaceOnUse" gradientTransform="matrix(0.12419355,0,0,0.12564103,-2.238722,-4.461562)" y1="290.2" x2="0" y2="35.51"/>
  <radialGradient inkscape:collect="always" xlink:href="#linearGradient3952" id="radialGradient5914" gradientUnits="userSpaceOnUse" gradientTransform="matrix(1,0,0,0.75,-4,-2.125)" cx="9" cy="43.5" r="2"/>
  <radialGradient inkscape:collect="always" xlink:href="#linearGradient3952" id="radialGradient5917" gradientUnits="userSpaceOnUse" gradientTransform="matrix(1,0,0,0.75,-13,-2.125)" cx="40" cy="43.5" r="2"/>
  <linearGradient inkscape:collect="always" xlink:href="#linearGradient3960" id="linearGradient5920" gradientUnits="userSpaceOnUse" y1="45" x2="0" y2="42" gradientTransform="translate(-4,-13)"/>
  <linearGradient id="linearGradient3916">
   <stop id="stop3918" stop-color="#232323"/>
   <stop id="stop3926" offset="0.8" stop-color="#535353"/>
   <stop id="stop3924" offset="0.8" stop-color="#676767"/>
   <stop offset="1" id="stop3920" stop-color="#676767"/>
  </linearGradient>
  <linearGradient inkscape:collect="always" xlink:href="#linearGradient3107" id="linearGradient3101" gradientUnits="userSpaceOnUse" gradientTransform="translate(75,33.000996)" y1="19" x2="0" y2="9"/>
  <linearGradient inkscape:collect="always" xlink:href="#linearGradient3988-5" id="linearGradient3105" gradientUnits="userSpaceOnUse" gradientTransform="matrix(0.48571543,0,0,-0.26367377,73.342869,58.667687)" y1="0.985" x2="0" y2="47.01"/>
  <radialGradient inkscape:collect="always" xlink:href="#linearGradient3952" id="radialGradient3927" gradientUnits="userSpaceOnUse" gradientTransform="matrix(1,0,0,0.75,-7,-5.125)" cx="9" cy="43.5" r="2"/>
  <radialGradient inkscape:collect="always" xlink:href="#linearGradient3952" id="radialGradient3930" gradientUnits="userSpaceOnUse" gradientTransform="matrix(1,0,0,0.75,-10,-5.125)" cx="40" cy="43.5" r="2"/>
  <linearGradient inkscape:collect="always" xlink:href="#linearGradient3960" id="linearGradient3933" gradientUnits="userSpaceOnUse" gradientTransform="matrix(1.2727273,0,0,1,-9.4545455,-16)" y1="45" x2="0" y2="42"/>
  <radialGradient inkscape:collect="always" xlink:href="#linearGradient4033" id="radialGradient4043" cx="4.672" cy="19" r="1" gradientUnits="userSpaceOnUse" gradientTransform="matrix(-1.1949773,3.9999996e-7,-4.6787414e-7,-1.3977476,10.255284,45.557202)"/>
  <radialGradient inkscape:collect="always" xlink:href="#linearGradient3952" id="radialGradient3109" gradientUnits="userSpaceOnUse" gradientTransform="matrix(1,0,0,0.75,-3,-2.125)" cx="9" cy="43.5" r="2"/>
  <linearGradient inkscape:collect="always" xlink:href="#linearGradient3945" id="linearGradient3120" gradientUnits="userSpaceOnUse" gradientTransform="matrix(0.74092183,0,0,-0.40221422,-2.2990094,39.11836)" y1="40.07" x2="0" y2="10.239"/>
  <linearGradient inkscape:collect="always" xlink:href="#linearGradient3107" id="linearGradient3129" gradientUnits="userSpaceOnUse" gradientTransform="matrix(1.5254237,0,0,1.5254237,-0.7711825,-1.0342186)" y1="19" x2="0" y2="9"/>
  <linearGradient inkscape:collect="always" xlink:href="#linearGradient3969" id="linearGradient3163" gradientUnits="userSpaceOnUse" gradientTransform="matrix(0.12419355,0,0,0.12564103,-1.238722,-4.461562)" y1="162.86" x2="0" y2="35.51"/>
  <linearGradient inkscape:collect="always" xlink:href="#linearGradient3930" id="linearGradient3940" gradientUnits="userSpaceOnUse" gradientTransform="matrix(1.5254237,0,0,1.5254237,1.1975675,-5.0029686)" x1="10.359" y1="18.358" x2="10.421" y2="5.292"/>
  <linearGradient id="linearGradient3930">
   <stop id="stop3932" stop-color="#d7d7d7"/>
   <stop offset="0.751" id="stop3934" stop-color="#c5c5c5"/>
   <stop offset="0.753" id="stop3936" stop-color="#b6b6b6"/>
   <stop id="stop3938" offset="1" stop-color="#9b9b9b"/>
  </linearGradient>
  <linearGradient y2="5.292" x2="10.421" y1="18.358" x1="10.359" gradientTransform="matrix(1.4618644,0,0,1.5254237,0.31694019,2.9345314)" gradientUnits="userSpaceOnUse" id="linearGradient3157" xlink:href="#linearGradient3930" inkscape:collect="always"/>
  <radialGradient inkscape:collect="always" xlink:href="#linearGradient4025" id="radialGradient3905" gradientUnits="userSpaceOnUse" gradientTransform="matrix(-5.9999994e-7,-1.7924659,2.0966214,-7.0181121e-7,-32.820178,25.867301)" cx="4.672" cy="19" r="1"/>
  <radialGradient inkscape:collect="always" xlink:href="#linearGradient3952" id="radialGradient3912" gradientUnits="userSpaceOnUse" gradientTransform="matrix(1,0,0,0.75,-14,-2.125)" cx="39.12" cy="43.618" r="2"/>
  <linearGradient inkscape:collect="always" xlink:href="#linearGradient3988-5-57" id="linearGradient3998" gradientUnits="userSpaceOnUse" gradientTransform="matrix(-0.175,0,0,0.175,52.20002,-21.000034)" y1="188.57" x2="0" y2="74.29"/>
  <linearGradient id="linearGradient3988-5-57">
   <stop id="stop3990-5-0" stop-color="#a7a7a7"/>
   <stop id="stop4243" offset="0.5" stop-color="#e6e6e6"/>
   <stop offset="1" id="stop3992-0-5" stop-color="#f2f2f2"/>
  </linearGradient>
  <linearGradient inkscape:collect="always" xlink:href="#linearGradient3937" id="linearGradient3967" gradientUnits="userSpaceOnUse" gradientTransform="matrix(0.12419355,0,0,0.12564103,-1.238722,-4.461562)" y1="138.98" x2="0" y2="35.51"/>
  <linearGradient gradientTransform="translate(-8.9999391,-10.999779)" inkscape:collect="always" xlink:href="#linearGradient4012" id="linearGradient4010" y1="43" x2="0" y2="34" gradientUnits="userSpaceOnUse"/>
  <linearGradient id="linearGradient4012">
   <stop id="stop4014" stop-color="#97caff"/>
   <stop id="stop4016" offset="1" stop-color="#45688a"/>
  </linearGradient>
  <radialGradient inkscape:collect="always" xlink:href="#linearGradient3926" id="radialGradient3161" gradientUnits="userSpaceOnUse" gradientTransform="matrix(-5.9999994e-7,-1.7924659,2.0966214,-7.0181121e-7,-29.820178,19.867301)" cx="4.672" cy="19" r="1"/>
  <linearGradient id="linearGradient3926">
   <stop id="stop3928" stop-color="#ffffff"/>
   <stop id="stop3930" offset="1" stop-color="#00c63b"/>
  </linearGradient>
  <linearGradient inkscape:collect="always" xlink:href="#linearGradient3760" id="linearGradient7048" gradientUnits="userSpaceOnUse" y1="0" x2="0" y2="16"/>
  <linearGradient id="linearGradient3760">
   <stop id="stop3762" stop-color="#e44343"/>
   <stop offset="1" id="stop3764" stop-color="#ac0808"/>
  </linearGradient>
 </defs>
 <metadata id="metadata5019"/>
 <g id="layer1" inkscape:label="Background" inkscape:groupmode="layer">
  <path d="m 2,26 28,0 0,3 -28,0 z" id="rect3938-8" inkscape:connector-curvature="0" sodipodi:nodetypes="ccccc" opacity="0.4" fill="url(#linearGradient3933)"/>
  <path d="m 30,26 0,3 0.5,0 C 31.331,29 32,28.331 32,27.5 32,26.669 31.331,26 30.5,26 z" id="rect3940-0" inkscape:connector-curvature="0" sodipodi:nodetypes="ccsssc" opacity="0.4" fill="url(#radialGradient3930)"/>
  <path d="M 1.40625,26 C 0.6271875,26 0,26.627187 0,27.40625 l 0,0.1875 C 0,28.372813 0.6271875,29 1.40625,29 L 2,29 2,26 z" id="rect3942-3" inkscape:connector-curvature="0" sodipodi:nodetypes="ssssccs" opacity="0.4" fill="url(#radialGradient3927)"/>
  <g id="g3907">
   <path sodipodi:nodetypes="ccccc" inkscape:connector-curvature="0" id="rect3938" d="m 6,29 19,0 0,3 -19,0 z" opacity="0.2" fill="url(#linearGradient5920)"/>
   <path sodipodi:nodetypes="ccsssc" inkscape:connector-curvature="0" id="rect3940" d="m 25,29 0,3 0.5,0 C 26.331,32 28,31.331 28,30.5 28,29.669 26.331,29 25.5,29 z" opacity="0.2" fill="url(#radialGradient3912)"/>
   <path sodipodi:nodetypes="ssssccs" inkscape:connector-curvature="0" id="rect3942" d="M 5.40625,29 C 4.6271875,29 4,29.627187 4,30.40625 l 0,0.1875 C 4,31.372813 4.6271875,32 5.40625,32 L 6,32 6,29 z" opacity="0.2" fill="url(#radialGradient3109)"/>
  </g>
  <path d="M 7,4 7,5 25,5 25,4 z" id="path5908" inkscape:connector-curvature="0" sodipodi:nodetypes="ccccc" opacity="0.4" fill="#ffffff" color="#bebebe" stroke-width="0"/>
  <path d="M 1.5,15.5 1.5,26 C 1.569172,27.452611 3,27.5 3,27.5 l 26,0 c 0,0 1.515796,0.05338 1.5,-1.5 l 0,-10.5 -3.5,-4 -22,0 z" id="rect3145" inkscape:connector-curvature="0" sodipodi:nodetypes="ccccccccc" fill="url(#linearGradient3129)"/>
  <path sodipodi:nodetypes="ccccccccc" inkscape:connector-curvature="0" id="path3916" d="M 1.5,15.5 1.5,26 C 1.569172,27.452611 3,27.5 3,27.5 l 26,0 c 0,0 1.515796,0.05338 1.5,-1.5 l 0,-10.5 -3.5,-4 -22,0 z" opacity="0.71" fill="none" stroke="#000000"/>
  <path sodipodi:nodetypes="ccccccccc" inkscape:connector-curvature="0" id="path3160" d="m 3.5,16 0,5.5 7.229167,0 6.169271,-2 11.601562,0 0,-3.5 -3.258333,-4.5 -18.4833337,0 z" fill="url(#linearGradient3157)"/>
  <path d="m 3.5,16 0,5.5 7.229167,0 6.169271,-2 11.601562,0 0,-3.5 -3.258333,-4.5 -18.4833337,0 z" id="path3129" inkscape:connector-curvature="0" sodipodi:nodetypes="ccccccccc" opacity="0.41" fill="none" stroke="#000000"/>
  <path d="m 4,16 24,0 0,-0.999999 -24,0 z" id="rect3937" inkscape:connector-curvature="0" sodipodi:nodetypes="ccccc" opacity="0.4" fill="#ffffff"/>
  <path d="m 6.0000029,25.000002 19.9999961,0 0,-1.000003 -19.9999961,0 z" id="rect3950" inkscape:connector-curvature="0" sodipodi:nodetypes="ccccc" fill="#505050"/>
  <path d="M 7.0000033,23.000002 25,23.000002 25,24 7.0000033,24 z" id="rect3952" inkscape:connector-curvature="0" sodipodi:nodetypes="ccccc" opacity="0.4"/>
  <path d="m 6.0000029,25.000002 19.9999961,0 0,0.999997 -19.9999961,0 z" id="rect3954" inkscape:connector-curvature="0" sodipodi:nodetypes="ccccc" opacity="0.4"/>
  <path sodipodi:nodetypes="ccccc" id="path3953" inkscape:connector-curvature="0" d="m 25.5,30 c 0,0 -0.5,-2 -0.576146,-6 0,0 -9.186521,0 -17.8306299,0 C 7,28 6.5,30 6.5,30 z" opacity="0.41" fill="none" stroke="#000000" stroke-width="2"/>
  <path d="m 25.5,30 c 0,0 -0.5,-2 -0.576146,-6 0,0 -9.186521,0 -17.8306299,0 C 7,28 6.5,30 6.5,30 z" inkscape:connector-curvature="0" id="path4030" sodipodi:nodetypes="ccccc" fill="url(#linearGradient3120)"/>
  <path sodipodi:nodetypes="ccccc" inkscape:connector-curvature="0" id="path3961" d="M 7,4 25,4 25,14 7,14 z" opacity="0.41" fill="none" stroke="#000000" color="#bebebe" stroke-width="2"/>
  <path d="M 7,4 25,4 25,14 7,14 z" id="rect3882" inkscape:connector-curvature="0" sodipodi:nodetypes="ccccc" fill="url(#linearGradient3967)" color="#bebebe" stroke-width="0"/>
  <path d="M 7,4 7,5 25,5 25,4 z" id="rect3921" inkscape:connector-curvature="0" sodipodi:nodetypes="ccccc" opacity="0.4" fill="#ffffff" color="#bebebe" stroke-width="0"/>
  <g id="g3899" transform="matrix(0.74418605,0,0,0.74418605,1.2790697,4.116279)">
   <path sodipodi:nodetypes="sssss" inkscape:connector-curvature="0" id="path4031" d="m 7.015625,19.484375 c -0.8284275,0 -1.5,-0.671573 -1.5,-1.5 0,-0.828427 0.6715725,-1.5 1.5,-1.5 0.8284275,0 1.5,0.671573 1.5,1.5 0,0.828427 -0.6715725,1.5 -1.5,1.5 z" fill="url(#radialGradient3905)"/>
   <path sodipodi:nodetypes="ssssssssss" inkscape:connector-curvature="0" id="path4041" d="M 9.03125,17.984375 C 9.03125,16.885728 8.1142715,15.96875 7.015625,15.96875 5.9169785,15.96875 5,16.885728 5,17.984375 5,19.083022 5.9169785,20 7.015625,20 8.1142715,20 9.03125,19.083022 9.03125,17.984375 z m -1.03125,0 C 8,18.542582 7.573832,18.96875 7.015625,18.96875 6.457418,18.96875 6.03125,18.542582 6.03125,17.984375 6.03125,17.426168 6.457418,17 7.015625,17 7.573832,17 8,17.426168 8,17.984375 z" opacity="0.61" color="#000000" stroke-width="0.667"/>
  </g>
  <rect id="rect3957" width="1" height="1" x="9" y="16" opacity="0.41" rx="0"/>
  <rect id="rect3959" width="1" height="1" x="11" y="16" opacity="0.41" rx="0"/>
  <path sodipodi:nodetypes="ccccc" inkscape:connector-curvature="0" id="path3965" d="m 7,12 18,0 0,2 -18,0 z" fill="url(#linearGradient3163)" color="#bebebe" stroke-width="0"/>
  <rect id="rect3977" width="18" height="1" x="7" y="11" opacity="0.41" stroke-width="2"/>
  <path d="M 5.0278844,11 2.4130194,9.125379 2.9509172,8 0.87395003,5 3.7966289,7.699697 3.2587311,8.825076 z" id="path4037" inkscape:connector-curvature="0" sodipodi:nodetypes="ccccccc" opacity="0.8"/>
  <path sodipodi:nodetypes="ccccccc" inkscape:connector-curvature="0" id="path4332" d="M 26.846066,11 29.297467,9.070879 28.814194,7.836515 31,5 27.968483,7.536212 28.451755,8.770576 z" opacity="0.8"/>
 </g>
 <g inkscape:groupmode="layer" id="layer2" inkscape:label="Symbol">
  <g id="g3026" transform="translate(16,16)">
   <path d="M 8,0.5 C 3.8618,0.5 0.5,3.86176 0.5,8 c 0,4.13824 3.3618,7.5 7.5,7.5 4.1382,0 7.5,-3.36176 7.5,-7.5 C 15.5,3.86176 12.1382,0.5 8,0.5 z" inkscape:connector-curvature="0" id="path2555-7" fill="url(#linearGradient7048)" color="#000000"/>
   <path id="path7037" inkscape:connector-curvature="0" d="m 8,15.5 c 4.1382,0 7.5,-3.3618 7.5,-7.5 C 15.5,3.8618 12.1382,0.5 8,0.5 3.8618,0.5 0.5,3.8618 0.5,8 c 0,4.1382 3.3618,7.5 7.5,7.5 z" opacity="0.81" fill="none" stroke="#790000" stroke-linejoin="round" stroke-linecap="round" color="#000000"/>
   <path inkscape:connector-curvature="0" d="M 8,16 C 4.132594,16 1,12.867406 1,9 1,8.8317131 1.0195845,8.6653066 1.03125,8.5 1.2876687,12.13361 4.3008809,15 8,15 11.699119,15 14.712331,12.13361 14.96875,8.5 14.980415,8.6653066 15,8.8317131 15,9 c 0,3.867406 -3.132594,7 -7,7 z" id="path3805" opacity="0.2" color="#000000"/>
   <path inkscape:connector-curvature="0" id="path3021" d="M 8,1 C 4.132594,1 1,4.132594 1,8 1,8.1682869 1.0195845,8.3346934 1.03125,8.5 1.2876687,4.8663902 4.3008809,2 8,2 11.699119,2 14.712331,4.8663902 14.96875,8.5 14.980415,8.3346934 15,8.1682869 15,8 15,4.132594 11.867406,1 8,1 z" opacity="0.2" fill="#ffffff" color="#000000"/>
  </g>
  <path d="m 21,22 0,1 c 0,0.27614 0.10029,0.53778 0.28125,0.71875 L 22.5625,25 21.28125,26.28125 C 21.10029,26.46222 21,26.723859 21,27 l 0,1 1,0 c 0.27614,0 0.53779,-0.10028 0.71875,-0.28125 L 24,26.4375 25.28125,27.71875 C 25.46221,27.89972 25.72393,27.993645 26,28 l 1,0 0,-1 c 0,-0.27614 -0.10029,-0.53778 -0.28125,-0.71875 L 25.4375,25 26.71875,23.71875 C 26.89971,23.53778 26.950232,23.271618 27,23 l 0,-1 -1,0 c -0.27614,0 -0.53779,0.10028 -0.71875,0.28125 L 24,23.5625 22.71875,22.28125 C 22.53779,22.10028 22.276143,22 22,22 z" id="path4083" inkscape:connector-curvature="0" sodipodi:nodetypes="cscccscscccscscccscscccsc" opacity="0.3" color="#000000" stroke-width="2"/>
  <path sodipodi:nodetypes="cscccscscccscscccscscccsc" inkscape:connector-curvature="0" id="path5757" d="m 21,21 0,1 c 0,0.27614 0.10029,0.53778 0.28125,0.71875 L 22.5625,24 21.28125,25.28125 C 21.10029,25.46222 21,25.723859 21,26 l 0,1 1,0 c 0.27614,0 0.53779,-0.10028 0.71875,-0.28125 L 24,25.4375 25.28125,26.71875 C 25.46221,26.89972 25.72393,26.993645 26,27 l 1,0 0,-1 c 0,-0.27614 -0.10029,-0.53778 -0.28125,-0.71875 L 25.4375,24 26.71875,22.71875 C 26.89971,22.53778 26.950232,22.271618 27,22 l 0,-1 -1,0 c -0.27614,0 -0.53779,0.10028 -0.71875,0.28125 L 24,22.5625 22.71875,21.28125 C 22.53779,21.10028 22.276143,21 22,21 z" fill="#ffffff" color="#000000" stroke-width="2"/>
 </g>
</svg>
