<?xml version="1.0" encoding="UTF-8" standalone="no"?>
<svg
   xmlns:osb="http://www.openswatchbook.org/uri/2009/osb"
   xmlns:dc="http://purl.org/dc/elements/1.1/"
   xmlns:cc="http://creativecommons.org/ns#"
   xmlns:rdf="http://www.w3.org/1999/02/22-rdf-syntax-ns#"
   xmlns:svg="http://www.w3.org/2000/svg"
   xmlns="http://www.w3.org/2000/svg"
   id="svg2"
   enable-background="new"
   width="16"
   version="1.1"
   height="16">
  <metadata
     id="metadata90">
    <rdf:RDF>
      <cc:Work
         rdf:about="">
        <dc:format>image/svg+xml</dc:format>
        <dc:type
           rdf:resource="http://purl.org/dc/dcmitype/StillImage" />
      </cc:Work>
    </rdf:RDF>
  </metadata>
  <defs
     id="defs7386">
    <linearGradient
       osb:paint="solid"
       id="linearGradient5606">
      <stop
         id="stop5608" />
    </linearGradient>
  </defs>
  <g
     transform="translate(-780.99997,63.000051)"
     id="g71291">
    <path
       stroke-width="2"
       color="#bebebe"
       fill="#bebebe"
       id="path7944"
       d="m 788.99998,-62 c -3.86599,0 -7,3.13401 -7,7 0,3.86599 3.13401,7 7,7 3.86599,0 7,-3.13401 7,-7 0,-3.86599 -3.13401,-7 -7,-7 z m -3,4 c 0.55404,0 1,0.44936 1,1 0,0.55064 -0.44596,1 -1,1 -0.55422,0 -1,-0.44936 -1,-1 0,-0.55055 0.44578,-1 1,-1 z m 4.5,1 3,0 c 0.277,0 0.5,0.223 0.5,0.5 0,0.277 -0.223,0.5 -0.5,0.5 l -3,0 c -0.277,0 -0.5,-0.223 -0.5,-0.5 0,-0.277 0.223,-0.5 0.5,-0.5 z m -4.625,4 c 0.7011,0.2848 1.77725,0.46875 2.96875,0.46875 1.1915,0 2.2364,-0.18395 2.9375,-0.46875 0.1414,0.144 0.25,0.30475 0.25,0.46875 0,0.7028 -1.4296,1.90625 -3.1875,1.90625 -1.7578,0 -3.1875,-1.20345 -3.1875,-1.90625 0,-0.164 0.0771,-0.32475 0.21875,-0.46875 z" />
  </g>
</svg>
