<?xml version="1.0" encoding="UTF-8" standalone="no"?>
<svg
   xmlns:osb="http://www.openswatchbook.org/uri/2009/osb"
   xmlns:dc="http://purl.org/dc/elements/1.1/"
   xmlns:cc="http://creativecommons.org/ns#"
   xmlns:rdf="http://www.w3.org/1999/02/22-rdf-syntax-ns#"
   xmlns:svg="http://www.w3.org/2000/svg"
   xmlns="http://www.w3.org/2000/svg"
   id="svg2"
   enable-background="new"
   width="16"
   version="1.1"
   height="16">
  <metadata
     id="metadata90">
    <rdf:RDF>
      <cc:Work
         rdf:about="">
        <dc:format>image/svg+xml</dc:format>
        <dc:type
           rdf:resource="http://purl.org/dc/dcmitype/StillImage" />
      </cc:Work>
    </rdf:RDF>
  </metadata>
  <defs
     id="defs7386">
    <linearGradient
       osb:paint="solid"
       id="linearGradient5606">
      <stop
         id="stop5608" />
    </linearGradient>
  </defs>
  <g
     transform="translate(-840.99998,62.999998)"
     id="g71291">
    <path
       color="#bebebe"
       fill="#bebebe"
       id="path5973"
       d="m 848.99997,-62 c -3.86599,0 -7,3.13401 -7,7 0,3.86599 3.13401,7 7,7 3.86599,0 7,-3.13401 7,-7 0,-3.86599 -3.13401,-7 -7,-7 z m -3,4 c 0.55228,0 1,0.44772 1,1 0,0.55228 -0.44772,1 -1,1 -0.55228,0 -1,-0.44772 -1,-1 0,-0.55228 0.44772,-1 1,-1 z m 6,0 c 0.55228,0 1,0.44772 1,1 0,0.55228 -0.44772,1 -1,1 -0.0217,0 -0.0412,10e-4 -0.0625,0 0.37119,0.68116 1,1.34886 1,2.03125 0,0.7234 -0.5262,1.09375 -1.0625,1.09375 -0.5364,0 -1.09375,-0.37035 -1.09375,-1.09375 1e-4,-0.6903 0.65914,-1.37319 1.03125,-2.0625 -0.45759,-0.09176 -0.8125,-0.48415 -0.8125,-0.96875 0,-0.55228 0.44772,-1 1,-1 z m -3,5.5 c 1.7578,0 3.1875,1.20355 3.1875,1.90625 0,0.164 -0.1087,0.32465 -0.25,0.46875 -0.7011,-0.2849 -1.7462,-0.46875 -2.9375,-0.46875 -1.1915,0 -2.2365,0.18375 -2.9375,0.46875 -0.1416,-0.1441 -0.25,-0.30475 -0.25,-0.46875 0,-0.7027 1.4295,-1.90625 3.1875,-1.90625 z" />
  </g>
</svg>
