<?xml version="1.0" encoding="UTF-8" standalone="no"?>
<svg
   xmlns:osb="http://www.openswatchbook.org/uri/2009/osb"
   xmlns:dc="http://purl.org/dc/elements/1.1/"
   xmlns:cc="http://creativecommons.org/ns#"
   xmlns:rdf="http://www.w3.org/1999/02/22-rdf-syntax-ns#"
   xmlns:svg="http://www.w3.org/2000/svg"
   xmlns="http://www.w3.org/2000/svg"
   id="svg2"
   enable-background="new"
   width="16"
   version="1.1"
   height="16">
  <metadata
     id="metadata90">
    <rdf:RDF>
      <cc:Work
         rdf:about="">
        <dc:format>image/svg+xml</dc:format>
        <dc:type
           rdf:resource="http://purl.org/dc/dcmitype/StillImage" />
      </cc:Work>
    </rdf:RDF>
  </metadata>
  <defs
     id="defs7386">
    <linearGradient
       osb:paint="solid"
       id="linearGradient5606">
      <stop
         id="stop5608" />
    </linearGradient>
  </defs>
  <g
     transform="translate(-720.99999,62.999998)"
     id="g71291">
    <path
       color="#bebebe"
       fill="#bebebe"
       id="path7995"
       d="m 728.99997,-61.999998 c 3.86599,0 7,3.13401 7,7 0,3.86599 -3.13401,7 -7,7 -3.86599,0 -7,-3.13401 -7,-7 0,-3.86599 3.13401,-7 7,-7 z m 3,4 c -0.55407,0 -1,0.44945 -1,1 0,0.55064 0.44593,1 1,1 0.55424,0 1,-0.44936 1,-1 0,-0.55055 -0.44576,-1 -1,-1 z m -6,0 c -0.55415,0 -1,0.44945 -1,1 0,0.55064 0.44585,1 1,1 0.55407,0 1,-0.44936 1,-1 0,-0.55055 -0.44593,-1 -1,-1 z m 3,5 c -1.7578,0 -3.1875,0.94455 -3.1875,1.5 0,0.12954 0.1084,0.26119 0.25,0.375 0.7011,-0.22517 1.746,-0.375 2.9375,-0.375 1.1915,0 2.2364,0.14983 2.9375,0.375 0.1413,-0.11381 0.25,-0.24546 0.25,-0.375 0,-0.55545 -1.4296,-1.5 -3.1875,-1.5 z" />
  </g>
</svg>
