<?xml version="1.0" encoding="UTF-8" standalone="no"?>
<svg xmlns="http://www.w3.org/2000/svg" xmlns:sodipodi="http://sodipodi.sourceforge.net/DTD/sodipodi-0.dtd" xmlns:inkscape="http://www.inkscape.org/namespaces/inkscape" version="1.0" width="24" height="24">
 <metadata id="metadata11"/>
 <path inkscape:connector-curvature="0" d="m 12,5 c -4.4159999,0 -8.0000002,3.5840001 -8,8 0,4.416 3.5840002,8 8,8 4.416,0 8,-3.584 8,-8 0,-4.4159999 -3.584,-7.9999998 -8,-8 z m 0,5 c 1.656,0 3,1.344 3,3 0,1.656 -1.344,3 -3,3 -1.656,0 -3,-1.344 -3,-3 10e-8,-1.656 1.344,-3 3,-3 z" id="path3170-4" opacity="0.2" fill-rule="evenodd"/>
 <path inkscape:connector-curvature="0" id="path3170" d="m 12,4 c -4.4159999,0 -8.0000002,3.5840001 -8,8 0,4.416 3.5840002,8 8,8 4.416,0 8,-3.584 8,-8 0,-4.4159999 -3.584,-7.9999998 -8,-8 z m 0,5 c 1.656,10e-8 3,1.344 3,3 0,1.656 -1.344,3 -3,3 -1.656,0 -3,-1.344 -3,-3 10e-8,-1.656 1.344,-3 3,-3 z" opacity="0.35" fill="#ffffff" fill-rule="evenodd"/>
 <path d="m 12,4 0,5 c 1.656,10e-8 3,1.344 3,3 0,1.656 -1.344,3 -3,3 -0.987512,0 -1.859473,-0.481732 -2.40625,-1.21875 -0.175704,-0.237918 -0.310835,-0.48556 -0.40625,-0.75 L 4.40625,14.5625 C 4.66519,15.328917 5.056456,16.064773 5.5625,16.75 7.020065,18.720951 9.362255,20 12,20 c 4.416,0 8,-3.584 8,-8 0,-4.4159999 -3.584,-7.9999998 -8,-8 z" id="path3518" inkscape:connector-curvature="0" fill="#ffffff"/>
</svg>
