<?xml version="1.0" encoding="UTF-8" standalone="no"?>
<svg
   xmlns:dc="http://purl.org/dc/elements/1.1/"
   xmlns:cc="http://creativecommons.org/ns#"
   xmlns:rdf="http://www.w3.org/1999/02/22-rdf-syntax-ns#"
   xmlns:svg="http://www.w3.org/2000/svg"
   xmlns="http://www.w3.org/2000/svg"
   id="svg2"
   height="24"
   width="24"
   version="1.0">
  <defs
     id="defs10" />
  <metadata
     id="metadata11">
    <rdf:RDF>
      <cc:Work
         rdf:about="">
        <dc:format>image/svg+xml</dc:format>
        <dc:type
           rdf:resource="http://purl.org/dc/dcmitype/StillImage" />
      </cc:Work>
    </rdf:RDF>
  </metadata>
  <path
     fill-rule="evenodd"
     opacity="0.2"
     id="path3170-4"
     d="m 10,4 c -4.4159999,0 -8.0000002,3.5840001 -8,8 0,4.416 3.5840002,8 8,8 4.416,0 8,-3.584 8,-8 0,-4.4159999 -3.584,-7.9999998 -8,-8 z m 0,5 c 1.656,0 3,1.344 3,3 0,1.656 -1.344,3 -3,3 -1.656,0 -3,-1.344 -3,-3 1e-7,-1.656 1.344,-3 3,-3 z" />
  <path
     fill-rule="evenodd"
     fill="#ffffff"
     opacity="0.35"
     id="path3170"
     d="m 10,3 c -4.4159999,0 -8.0000002,3.5840001 -8,8 0,4.416 3.5840002,8 8,8 4.416,0 8,-3.584 8,-8 0,-4.4159999 -3.584,-7.9999998 -8,-8 z m 0,5 c 1.656,10e-8 3,1.344 3,3 0,1.656 -1.344,3 -3,3 -1.656,0 -3,-1.344 -3,-3 1e-7,-1.656 1.344,-3 3,-3 z" />
  <path
     fill="#ffffff"
     id="path3263"
     d="m 10,3 0,5 c 1.656,10e-8 3,1.344 3,3 0,1.656 -1.344,3 -3,3 -0.667837,0 -1.28395,-0.223143 -1.78125,-0.59375 l -2.9375,4.0625 C 6.603685,18.434667 8.23854,19 10,19 c 4.416,0 8,-3.584 8,-8 0,-4.4159999 -3.584,-7.9999998 -8,-8 z" />
</svg>
