<?xml version="1.0" encoding="UTF-8" standalone="no"?>
<svg xmlns="http://www.w3.org/2000/svg" xmlns:xlink="http://www.w3.org/1999/xlink" xmlns:sodipodi="http://sodipodi.sourceforge.net/DTD/sodipodi-0.dtd" xmlns:inkscape="http://www.inkscape.org/namespaces/inkscape" version="1.0" width="24" height="24">
 <defs id="defs11">
  <linearGradient id="linearGradient3852">
   <stop id="stop3854"/>
   <stop id="stop3856" offset="1" stop-opacity="0"/>
  </linearGradient>
  <linearGradient id="linearGradient3768">
   <stop id="stop3770" stop-color="#ffffff"/>
   <stop offset="1" id="stop3772" stop-color="#ffffff" stop-opacity="0"/>
  </linearGradient>
  <linearGradient inkscape:collect="always" xlink:href="#linearGradient3852" id="linearGradient3918" gradientUnits="userSpaceOnUse" x1="12" y1="6" x2="23" y2="10"/>
  <linearGradient inkscape:collect="always" xlink:href="#linearGradient3852" id="linearGradient3920" gradientUnits="userSpaceOnUse" gradientTransform="matrix(-1,0,0,1,23.875,-0.125)" y1="31.13" x2="0" y2="4.125"/>
  <linearGradient inkscape:collect="always" xlink:href="#linearGradient3768" id="linearGradient3922" gradientUnits="userSpaceOnUse" x1="12" y1="6" x2="23" y2="10"/>
  <linearGradient inkscape:collect="always" xlink:href="#linearGradient3768" id="linearGradient3924" gradientUnits="userSpaceOnUse" gradientTransform="matrix(-1,0,0,1,23.875,-0.125)" y1="31.13" x2="0" y2="4.125"/>
 </defs>
 <metadata id="metadata25"/>
 <g id="g3836" transform="matrix(-0.8660254,0.5,-0.5,-0.8660254,28.392305,17.392305)" opacity="0.2">
  <path d="m 12,4 c -4.4064334,0 -8,3.5935666 -8,8 0,4.406433 3.5935666,8 8,8 l 0,-2 C 8.6744469,18 6,15.325553 6,12 6,8.6744469 8.6744469,6 12,6 12.552285,6 13,5.5522847 13,5 13,4.4477153 12.552285,4 12,4 z" id="path3838" inkscape:connector-curvature="0" color="#000000" stroke-width="2" fill="url(#linearGradient3918)"/>
  <path id="path3840" d="m 12,4 c 4.406433,0 8,3.5935666 8,8 0,4.406433 -3.593567,8 -8,8 l 0,-2 c 3.325553,0 6,-2.674447 6,-6 0,-3.3255531 -2.674447,-6 -6,-6 z" inkscape:connector-curvature="0" sodipodi:nodetypes="csccscc" color="#000000" stroke-width="2" fill="url(#linearGradient3920)"/>
 </g>
 <g id="g3792" transform="matrix(-0.8660254,0.5,-0.5,-0.8660254,28.392305,16.392305)">
  <path id="path2990" d="m 12,4 c -4.4064334,0 -8,3.5935666 -8,8 0,4.406433 3.5935666,8 8,8 l 0,-2 C 8.6744469,18 6,15.325553 6,12 6,8.6744469 8.6744469,6 12,6 12.552285,6 13,5.5522847 13,5 13,4.4477153 12.552285,4 12,4 z" inkscape:connector-curvature="0" color="#000000" stroke-width="2" fill="url(#linearGradient3922)"/>
  <path sodipodi:nodetypes="csccscc" inkscape:connector-curvature="0" d="m 12,4 c 4.406433,0 8,3.5935666 8,8 0,4.406433 -3.593567,8 -8,8 l 0,-2 c 3.325553,0 6,-2.674447 6,-6 0,-3.3255531 -2.674447,-6 -6,-6 z" id="path3785" color="#000000" stroke-width="2" fill="url(#linearGradient3924)"/>
 </g>
</svg>
