<?xml version="1.0" encoding="UTF-8" standalone="no"?>
<svg xmlns="http://www.w3.org/2000/svg" xmlns:sodipodi="http://sodipodi.sourceforge.net/DTD/sodipodi-0.dtd" xmlns:inkscape="http://www.inkscape.org/namespaces/inkscape" height="22" version="1.1" width="22" enable-background="new">
 <metadata id="metadata90"/>
 <defs id="defs7386">
  <linearGradient id="linearGradient5606" osb:paint="solid">
   <stop id="stop5608"/>
  </linearGradient>
  <filter inkscape:collect="always" color-interpolation-filters="sRGB" id="filter7554">
   <feBlend inkscape:collect="always" id="feBlend7556" in2="BackgroundImage" mode="darken"/>
  </filter>
 </defs>
 <g inkscape:groupmode="layer" id="layer9" inkscape:label="status" transform="translate(-320.96897,403)">
  <g id="g4423" transform="translate(3.062484,4)" opacity="0.2">
   <path d="M 11.09375 6 C 8.0594 6 5.32787 7.07815 3.0625 8.75 L 11.09375 17.5 L 12.03125 16.46875 L 12.03125 16 L 12.03125 15 L 13.03125 15 C 13.038971 14.245201 13.342614 13.562711 13.8125 13.03125 L 11.03125 16.03125 L 4.65625 9 C 6.55717 7.82136 8.66161 7 11.03125 7 C 13.42487 7 15.55549 7.83638 17.46875 9.03125 L 14 12.8125 C 14.534433 12.312731 15.248277 12 16.03125 12 C 16.052669 12 16.072438 11.999541 16.09375 12 L 19.0625 8.71875 C 16.80589 7.06546 14.1048 6 11.09375 6 z " transform="translate(317.90649,-407)" id="path4425" color="#000000"/>
   <path inkscape:connector-curvature="0" d="m 328.93772,-395.1875 c -0.73979,0 -1.42454,0.15999 -2.0625,0.4375 l 2.0625,2.28125 2.09375,-2.25 c -0.65021,-0.28739 -1.33816,-0.46875 -2.09375,-0.46875 z" id="path4427" color="#000000"/>
  </g>
  <g id="g4419" transform="translate(3,3.25)">
   <path d="M 11.03125 5 C 7.9969 5 5.26537 6.07815 3 7.75 L 11.03125 16.5 L 12.03125 15.40625 L 12.03125 15 L 12.03125 14 L 13.03125 14 C 13.048 12.36263 14.38564 11 16.03125 11 L 19 7.71875 C 16.74339 6.06546 14.0423 5 11.03125 5 z M 10.96875 6 C 13.36237 6 15.49299 6.83638 17.40625 8.03125 L 10.96875 15.03125 L 4.59375 8 C 6.49467 6.82136 8.59911 6 10.96875 6 z " transform="translate(317.96897,-406.25)" id="path461" fill="#ffffff" color="#000000"/>
   <path id="path7361" d="m 328.93772,-395.1875 c -0.73979,0 -1.42454,0.15999 -2.0625,0.4375 l 2.0625,2.28125 2.09375,-2.25 c -0.65021,-0.28739 -1.33816,-0.46875 -2.09375,-0.46875 z" inkscape:connector-curvature="0" fill="#ffffff" color="#000000"/>
  </g>
  <path inkscape:connector-curvature="0" d="m 337.0002,-389.99999 c -1.108,0 -2,0.91081 -2,2.03125 l 0,0.96875 -1,0 0,1 0,2 0,1 1,0 4,0 1,0 0,-1 0,-2 0,-1 -1,0 0,-0.96875 c 0,-1.12 -0.892,-2.03125 -2,-2.03125 z m 0,1 c 0.554,0 1,0.44236 1,1 l 0,1 -2,0 0,-1 c 0,-0.55764 0.446,-1 1,-1 z" id="path3947" sodipodi:nodetypes="ssccccccccccccssssccss" opacity="0.2"/>
  <path sodipodi:nodetypes="ssccccccccccccssssccss" id="path3949" d="m 337.0002,-391 c -1.108,0 -2,0.91081 -2,2.03125 l 0,0.96875 -1,0 0,1 0,2 0,1 1,0 4,0 1,0 0,-1 0,-2 0,-1 -1,0 0,-0.96875 c 0,-1.12 -0.892,-2.03125 -2,-2.03125 z m 0,1 c 0.554,0 1,0.44236 1,1 l 0,1 -2,0 0,-1 c 0,-0.55764 0.446,-1 1,-1 z" inkscape:connector-curvature="0" fill="#ffffff"/>
 </g>
</svg>
