<?xml version="1.0" encoding="UTF-8" standalone="no"?>
<svg xmlns="http://www.w3.org/2000/svg" xmlns:sodipodi="http://sodipodi.sourceforge.net/DTD/sodipodi-0.dtd" xmlns:inkscape="http://www.inkscape.org/namespaces/inkscape" height="22" version="1.1" width="22" enable-background="new">
 <metadata id="metadata90"/>
 <defs id="defs7386">
  <linearGradient id="linearGradient5606" osb:paint="solid">
   <stop id="stop5608"/>
  </linearGradient>
  <filter inkscape:collect="always" color-interpolation-filters="sRGB" id="filter7554">
   <feBlend inkscape:collect="always" id="feBlend7556" in2="BackgroundImage" mode="darken"/>
  </filter>
 </defs>
 <g inkscape:groupmode="layer" id="layer9" inkscape:label="status" transform="translate(-320.96897,403)">
  <g id="g4423" transform="translate(3.062484,4)" opacity="0.2">
   <path inkscape:connector-curvature="0" d="m 329.00022,-401 c -3.03435,0 -5.76588,1.07815 -8.03125,2.75 l 8.03125,8.75 7.96875,-8.78125 C 334.71236,-399.93454 332.01127,-401 329.00022,-401 z m -0.0625,1 c 2.39362,0 4.52424,0.83638 6.4375,2.03125 l -6.4375,7 -6.375,-7.03125 c 1.90092,-1.17864 4.00536,-2 6.375,-2 z" id="path4425" color="#000000"/>
   <path inkscape:connector-curvature="0" d="m 328.93772,-395.1875 c -0.73979,0 -1.42454,0.15999 -2.0625,0.4375 l 2.0625,2.28125 2.09375,-2.25 c -0.65021,-0.28739 -1.33816,-0.46875 -2.09375,-0.46875 z" id="path4427" color="#000000"/>
  </g>
  <g id="g4419" transform="translate(3,3.25)">
   <path id="path461" d="m 329.0002,-401.25 c -3.03435,0 -5.76588,1.07815 -8.03125,2.75 l 8.03125,8.75 7.96875,-8.78125 c -2.25661,-1.65329 -4.9577,-2.71875 -7.96875,-2.71875 z m -0.0625,1 c 2.39362,0 4.52424,0.83638 6.4375,2.03125 l -6.4375,7 -6.375,-7.03125 c 1.90092,-1.17864 4.00536,-2 6.375,-2 z" inkscape:connector-curvature="0" fill="#ffffff" color="#000000"/>
   <path id="path7361" d="m 328.93772,-395.1875 c -0.73979,0 -1.42454,0.15999 -2.0625,0.4375 l 2.0625,2.28125 2.09375,-2.25 c -0.65021,-0.28739 -1.33816,-0.46875 -2.09375,-0.46875 z" inkscape:connector-curvature="0" fill="#ffffff" color="#000000"/>
  </g>
 </g>
</svg>
